<svg id="emoji" xmlns="http://www.w3.org/2000/svg" viewBox="0 0 72 72">
  <g id="grid">
    <path d="M68,4V68H4V4H68m4-4H0V72H72V0Z" fill="#b3b3b3"/>
    <rect x="11" y="10.9583" width="50" height="50" rx="1.9231" ry="1.9231" fill="none" stroke="#00a5ff" stroke-miterlimit="10" stroke-width="0.1"/>
    <rect x="16" y="4" width="40" height="64" rx="2.2537" ry="2.2537" fill="none" stroke="#00a5ff" stroke-miterlimit="10" stroke-width="0.1"/>
    <rect x="16" y="4" width="40" height="64" rx="2.2537" ry="2.2537" transform="translate(72 0) rotate(90)" fill="none" stroke="#00a5ff" stroke-miterlimit="10" stroke-width="0.1"/>
    <circle cx="36" cy="36" r="29" fill="none" stroke="#00a5ff" stroke-miterlimit="10" stroke-width="0.1"/>
  </g>
  <g id="skin">
    <ellipse cx="35.625" cy="31" rx="11" ry="14" fill="#fcea2b"/>
  </g>
  <g id="color">
    <g id="color-2" data-name="color">
      <path d="M55.3145,60.9336a1,1,0,0,1-1-1v-3c0-4.4512-4.5-8.8106-8.6514-8.9922-6.2051,5.0127-12.4912,5.0127-18.7,0-4.1563.1826-9.6524,4.541-9.6524,8.9922v3a.9994.9994,0,0,1-1,1" fill="#92d3f5"/>
    </g>
  </g>
  <g id="line">
    <g>
      <path d="M35.8125,45C29.876,45,24.749,39,24.749,31c0-3.2851.951-7.3771,3-10a9.51,9.51,0,0,1,.84-.9439,10.6168,10.6168,0,0,1,7.16-2.8061h.0635a10.6168,10.6168,0,0,1,7.16,2.8061,9.51,9.51,0,0,1,.84.9439c2.049,2.6229,3,6.7149,3,10,0,8-5.127,14-11.0635,14" fill="none" stroke="#000" stroke-linejoin="round" stroke-width="2"/>
      <path d="M16.8145,59.877v-3c0-4.9942,5.0078-9,10-9q9,7.5,18,0c4.9941,0,10,4.0058,10,9v3" fill="none" stroke="#000" stroke-linecap="round" stroke-linejoin="round" stroke-width="2"/>
      <path d="M41.8145,29.877a2,2,0,1,1-2-2,2,2,0,0,1,2,2"/>
      <path d="M33.8145,29.877a2,2,0,1,1-2-2,2,2,0,0,1,2,2"/>
      <path d="M32.8145,38.127a6.375,6.375,0,0,0,6,0" fill="none" stroke="#000" stroke-linecap="round" stroke-linejoin="round" stroke-width="2"/>
    </g>
  </g>
</svg>
