<svg id="emoji" viewBox="0 0 72 72" xmlns="http://www.w3.org/2000/svg">
  <g id="grid">
    <path fill="#B3B3B3" d="M68,4v64H4V4H68 M72,0H0v72h72V0z"/>
    <path fill="none" stroke="#00A5FF" stroke-miterlimit="10" stroke-width="0.1" d="M12.9,11h46.2c1.1,0,1.9,0.9,1.9,1.9l0,0V59 c0,1.1-0.9,1.9-1.9,1.9H12.9C11.9,61,11,60.1,11,59l0,0V12.9C11,11.8,11.9,11,12.9,11L12.9,11z"/>
    <path fill="none" stroke="#00A5FF" stroke-miterlimit="10" stroke-width="0.1" d="M18.3,4h35.5C55,4,56,5,56,6.3v59.5 c0,1.2-1,2.3-2.3,2.3H18.3C17,68,16,67,16,65.7V6.3C16,5,17,4,18.3,4z"/>
    <path fill="none" stroke="#00A5FF" stroke-miterlimit="10" stroke-width="0.1" d="M68,18.3v35.5c0,1.2-1,2.3-2.3,2.3H6.3 C5,56,4,55,4,53.7V18.3C4,17,5,16,6.3,16h59.5C67,16,68,17,68,18.3z"/>
    <circle cx="36" cy="36" r="29" fill="none" stroke="#00A5FF" stroke-miterlimit="10" stroke-width="0.1"/>
  </g>
  <g id="color">
    <path fill="#92D3F5" d="M54,60.9V57c0-5-4.2-9-9.2-9c-6,5-12,5-18,0c-5,0-8.8,4-8.8,9v3.9H54z"/>
  </g>
  <g id="hair">
    <path fill="#F1B31C" d="M24,36c-2,0-3-12,0-16c6-8,18-8,24,0c3,4,2,16,0,16"/>
  </g>
  <g id="skin">
    <path fill="#FCEA2B" d="M25,34c0,8,4.8,11.9,10.8,11.9S47,42,47,34s-3-10-3-10c-8,4-14,2-16,0C28,24,25,26,25,34z"/>
  </g>
  <g id="skin-shadow"/>
  <g id="line">
    <path fill="none" stroke="#000000" stroke-linecap="round" stroke-linejoin="round" stroke-width="2" d="M24,36c-2,0-3-12,0-16 c6-8,18-8,24,0c3,4,2,16,0,16"/>
    <path fill="none" stroke="#000000" stroke-linecap="round" stroke-linejoin="round" stroke-width="2" d="M54,60v-3.1 c0-5-4.2-9-9.2-9c-6,5-12,5-18,0c-5,0-8.8,4-8.8,9V60"/>
    <path d="M42,33c0,1.1-0.9,2-2,2s-2-0.9-2-2s0.9-2,2-2S42,31.9,42,33"/>
    <path d="M34,33c0,1.1-0.9,2-2,2s-2-0.9-2-2s0.9-2,2-2C33.1,31,34,31.9,34,33"/>
    <path fill="none" stroke="#000000" stroke-linejoin="round" stroke-width="2" d="M25,34c0,8,4.8,11.9,10.8,11.9S47,42,47,34 s-3-10-3-10c-8,4-14,2-16,0C28,24,25,26,25,34z"/>
    <path fill="none" stroke="#000000" stroke-linecap="round" stroke-linejoin="round" stroke-width="2" d="M32.8,39.2 c1.9,1,4.1,1,6,0"/>
  </g>
</svg>
