<svg id="emoji" viewBox="0 0 72 72" xmlns="http://www.w3.org/2000/svg">
  <g id="grid">
    <path fill="#B3B3B3" d="M68,4v64H4V4H68 M72,0H0v72h72V0z"/>
    <path fill="none" stroke="#00A5FF" stroke-miterlimit="10" stroke-width="0.1" d="M12.9,11h46.2c1.1,0,1.9,0.9,1.9,1.9l0,0V59 c0,1.1-0.9,1.9-1.9,1.9H12.9C11.9,61,11,60.1,11,59l0,0V12.9C11,11.8,11.9,11,12.9,11L12.9,11z"/>
    <path fill="none" stroke="#00A5FF" stroke-miterlimit="10" stroke-width="0.1" d="M18.3,4h35.5C55,4,56,5,56,6.3v59.5 c0,1.2-1,2.3-2.3,2.3H18.3C17,68,16,67,16,65.7V6.3C16,5,17,4,18.3,4z"/>
    <path fill="none" stroke="#00A5FF" stroke-miterlimit="10" stroke-width="0.1" d="M68,18.3v35.5c0,1.2-1,2.3-2.3,2.3H6.3 C5,56,4,55,4,53.7V18.3C4,17,5,16,6.3,16h59.5C67,16,68,17,68,18.3z"/>
    <circle cx="36" cy="36" r="29" fill="none" stroke="#00A5FF" stroke-miterlimit="10" stroke-width="0.1"/>
  </g>
  <g id="color">
    <path fill="#92D3F5" d="M18,60.9V57c0-5,3.8-9,8.8-9c6,5,12,5,18,0c5,0,9.2,4,9.2,9v3.9H18z"/>
  </g>
  <g id="hair">
    <path fill="#F1B31C" d="M22.1,49.4c1.4-0.9,3-1.4,4.7-1.4c6,5,12,5,18,0c1.7,0,3.3,0.5,4.7,1.3c1.2-0.9,2.3-1.8,3.1-2.6 c2.9-3.1,3.7-6.8,2-10.8c-2.4-5.7-3-5.6-3.4-12.8c0-4.2-3.2-7.7-7.4-8c0,0-2.6-3-8-3c-6.4,0-12.2,3.5-13.7,9 c-1.5,5.6,0.3,7.8-1.3,12C19,37.8,15,41.5,19.5,47C20.1,47.7,21,48.6,22.1,49.4z"/>
  </g>
  <g id="skin">
    <path fill="#FCEA2B" d="M25,32c0,8,4.8,12.9,10.8,12.9S47,40,47,32c0-4-1-6-1-6c-2-2-4-4-4-4s-12,2-16,4C26,26,25,28,25,32z"/>
  </g>
  <g id="skin-shadow"/>
  <g id="line">
    <path fill="none" stroke="#000000" stroke-linecap="round" stroke-linejoin="round" stroke-width="2" d="M18,60v-3.1 c0-5,3.8-9,8.8-9c6,5,12,5,18,0c5,0,9.2,4,9.2,9V60"/>
    <path fill="#000" d="M42,31c0,1.1-0.9,2-2,2s-2-0.9-2-2s0.9-2,2-2S42,29.9,42,31"/>
    <path fill="#000" d="M34,31c0,1.1-0.9,2-2,2s-2-0.9-2-2s0.9-2,2-2C33.1,29,34,29.9,34,31"/>
    <path fill="none" stroke="#000000" stroke-linejoin="round" stroke-width="2" d="M25,32c0,8,4.8,12.9,10.8,12.9S47,40,47,32 c0-4-1-6-1-6c-2-2-4-4-4-4s-12,2-16,4C26,26,25,28,25,32z"/>
    <path fill="none" stroke="#000000" stroke-linecap="round" stroke-linejoin="round" stroke-width="2" d="M32.8,38.2 c1.9,1,4.1,1,6,0"/>
    <path fill="none" stroke="#000000" stroke-linecap="round" stroke-linejoin="round" stroke-width="2" d="M20,46 c-4-6-1.8-8.3,0.1-13c1.6-4.2-0.2-6.5,1.3-12s7.3-9,13.7-9c5.4,0,8,3,8,3c4.2,0.4,7.4,3.9,7.4,8c0.4,7.2,1,7.2,3.4,12.8 c1.8,4.1,1,6.8-1.9,10.1"/>
  </g>
</svg>
