<svg id="emoji" xmlns="http://www.w3.org/2000/svg" viewBox="0 0 72 72">
  <g id="grid">
    <path fill="#B3B3B3" d="M68,4v64H4V4H68 M72,0H0v72h72V0z"/>
    <path fill="none" stroke="#00A5FF" stroke-width="0.1" stroke-miterlimit="10" d="M12.9,11h46.2c1.1,0,1.9,0.9,1.9,1.9l0,0V59 c0,1.1-0.9,1.9-1.9,1.9H12.9C11.9,61,11,60.1,11,59l0,0V12.9C11,11.8,11.9,11,12.9,11L12.9,11z"/>
    <path fill="none" stroke="#00A5FF" stroke-width="0.1" stroke-miterlimit="10" d="M18.3,4h35.5C55,4,56,5,56,6.3v59.5 c0,1.2-1,2.3-2.3,2.3H18.3C17,68,16,67,16,65.7V6.3C16,5,17,4,18.3,4z"/>
    <path fill="none" stroke="#00A5FF" stroke-width="0.1" stroke-miterlimit="10" d="M68,18.3v35.5c0,1.2-1,2.3-2.3,2.3H6.3 C5,56,4,55,4,53.7V18.3C4,17,5,16,6.3,16h59.5C67,16,68,17,68,18.3z"/>
    <circle fill="none" stroke="#00A5FF" stroke-width="0.1" stroke-miterlimit="10" cx="36" cy="36" r="29"/>
  </g>
  <g id="hair">
    <path fill="#F4AA41" d="M44.6,39.6c1.3,0.5,2.7,0.3,3.7-0.5c0.8-0.6,1.3-1.5,1.5-2.5c0.9-0.5,1.6-1.3,1.9-2.4 c0.3-1.2,0-2.4-0.7-3.4c1-1,1.5-2.3,1.3-3.7c-0.2-1.1-0.8-2.1-1.6-2.7c1-1.2,1.3-2.8,0.7-4.3c-0.5-1-1.3-1.7-2.4-2.1 c0.1-1.3-0.4-2.6-1.5-3.3c-1.3-0.8-2.9-0.7-4.1,0.3c-0.5-1.3-1.6-2.2-3-2.4c-1.3-0.1-2.5,0.4-3.3,1.4c0,0-3.2-3.5-7.1,0.1 c0,0-5-2.1-6.5,2.9c0,0-4.2,1.1-2.2,5.9c0,0-2.9,3-0.8,6.5c0,0-2.1,4.2,1.8,5.7c-0.1,1,0.2,1.9,0.7,2.7c0.9,1.1,2.3,1.7,3.7,1.5"/>
  </g>
  <g id="skin">
    <path fill="#FCEA2B" d="M44.5,21.8c1.7,2.7,2.7,5.9,2.6,9.1c0,7.7-4.9,14-11,14s-11-6.3-11-14c0-2.7,0.6-5.4,1.9-7.8l3.2,1.3 c1.9-0.9,3.9-1.2,6-1.1c1.9,0.2,3,0.8,4.8,0.4C42.3,23.4,43.5,22.8,44.5,21.8z"/>
  </g>
  <g id="color">
    <path fill="#92D3F5" d="M17,61v-4c0-5,5-9,10-9c6,5,12,5,18,0c5,0,10,4,10,9v4"/>
  </g>
  <g id="line">
    <g>
      <path fill="none" stroke="#000000" stroke-width="2" stroke-linecap="round" stroke-linejoin="round" d="M17,59.9v-3c0-5,5-9,10-9 c6,5,12,5,18,0c5,0,10,4,10,9v3"/>
      <path d="M42,29.9c0,1.1-0.9,2-2,2s-2-0.9-2-2s0.9-2,2-2S42,28.8,42,29.9"/>
      <path d="M34,29.9c0,1.1-0.9,2-2,2c-1.1,0-2-0.9-2-2s0.9-2,2-2C33.1,27.9,34,28.8,34,29.9"/>
      <path fill="none" stroke="#000000" stroke-width="2" stroke-linecap="round" stroke-linejoin="round" d="M33,38.1c1.9,1,4.1,1,6,0"/>
      <path fill="none" stroke="#000000" stroke-width="2" stroke-linecap="round" stroke-linejoin="round" d="M28.8,41.5 c-2.5-2.9-3.8-6.7-3.7-10.5c0.1-2.8,0.8-5.5,2.1-8c0.5,0.9,1.4,1.5,2.4,1.6c1.3,0,2.5-0.9,2.8-2.1c1.1,1.4,3,1.7,4.4,0.6 c0.3-0.2,0.5-0.4,0.7-0.7c1.5,1.8,4.1,2.1,5.9,0.6c0.4-0.4,0.8-0.8,1.1-1.3c1.6,2.9,2.5,6.1,2.7,9.4c0,8-5.1,14-11.1,14 C33.3,45,30.6,43.7,28.8,41.5z"/>
      <path fill="none" stroke="#000000" stroke-width="2" stroke-linejoin="round" d="M44.6,39.6c1.3,0.5,2.7,0.3,3.7-0.5 c0.8-0.6,1.3-1.5,1.5-2.5c0.9-0.5,1.6-1.3,1.9-2.4c0.3-1.2,0-2.4-0.7-3.4c1-1,1.5-2.3,1.3-3.7c-0.2-1.1-0.8-2.1-1.6-2.7 c1-1.2,1.3-2.8,0.7-4.3c-0.5-1-1.3-1.7-2.4-2.1c0.1-1.3-0.4-2.6-1.5-3.3c-1.3-0.8-2.9-0.7-4.1,0.3c-0.5-1.3-1.6-2.2-3-2.4 c-1.3-0.1-2.5,0.4-3.3,1.4c0,0-3.2-3.5-7.1,0.1c0,0-4.7-3.1-6.1,2.6c0,0-5.4,0.8-2.6,6.2c0,0-2.9,3-0.8,6.5c0,0-2.1,4.2,1.8,5.7 c-0.1,1,0.2,1.9,0.7,2.7c0.9,1.1,2.3,1.7,3.7,1.5"/>
    </g>
  </g>
</svg>
