<svg id="emoji" viewBox="0 0 72 72" xmlns="http://www.w3.org/2000/svg">
  <g id="grid">
    <path fill="#B3B3B3" d="M68,4v64H4V4H68 M72,0H0v72h72V0z"/>
    <path fill="none" stroke="#00A5FF" stroke-miterlimit="10" stroke-width="0.1" d="M12.9,11h46.2c1.1,0,1.9,0.9,1.9,1.9l0,0V59 c0,1.1-0.9,1.9-1.9,1.9H12.9C11.9,61,11,60.1,11,59l0,0V12.9C11,11.8,11.9,11,12.9,11L12.9,11z"/>
    <path fill="none" stroke="#00A5FF" stroke-miterlimit="10" stroke-width="0.1" d="M18.3,4h35.5C55,4,56,5,56,6.3v59.5 c0,1.2-1,2.3-2.3,2.3H18.3C17,68,16,67,16,65.7V6.3C16,5,17,4,18.3,4z"/>
    <path fill="none" stroke="#00A5FF" stroke-miterlimit="10" stroke-width="0.1" d="M68,18.3v35.5c0,1.2-1,2.3-2.3,2.3H6.3 C5,56,4,55,4,53.7V18.3C4,17,5,16,6.3,16h59.5C67,16,68,17,68,18.3z"/>
    <circle cx="36" cy="36" r="29" fill="none" stroke="#00A5FF" stroke-miterlimit="10" stroke-width="0.1"/>
  </g>
  <g id="color">
    <path fill="#92D3F5" d="M17,61v-4c0-5,5-9,10-9c6,5,12,5,18,0c5,0,10,4,10,9v4"/>
  </g>
  <g id="hair">
    <path fill="#FCEA2B" d="M26,39c-4,0-4-6-4-13s4-14,14-14s14,7,14,14s0,13-4,13"/>
  </g>
  <g id="skin">
    <path fill="#FCEA2B" d="M24.9,31c0,9,4.9,14,11,14c6,0,11.1-5,11.1-14c0-3-1-5-1-5c-3-3-7-8-7-8c-4,3-7,6-13,7 C26,25,24.9,26,24.9,31z"/>
  </g>
  <g id="skin-shadow"/>
  <g id="line">
    <path fill="none" stroke="#000000" stroke-linecap="round" stroke-linejoin="round" stroke-width="2" d="M26,39c-4,0-4-6-4-13 s4-14,14-14s14,7,14,14s0,13-4,13"/>
    <path fill="none" stroke="#000000" stroke-linecap="round" stroke-linejoin="round" stroke-width="2" d="M17,60v-3c0-5,5-9,10-9 c6,5,12,5,18,0c5,0,10,4,10,9v3"/>
    <path d="M41.9,30c0,1.1-0.9,2-2,2s-2-0.9-2-2s0.9-2,2-2S41.9,28.9,41.9,30"/>
    <path d="M33.9,30c0,1.1-0.9,2-2,2c-1.1,0-2-0.9-2-2s0.9-2,2-2C33,28,33.9,28.9,33.9,30"/>
    <path fill="none" stroke="#000000" stroke-linejoin="round" stroke-width="2" d="M24.9,31c0,9,4.9,14,11,14c6,0,11.1-5,11.1-14 c0-3-1-5-1-5c-3-3-7-8-7-8c-4,3-7,6-13,7C26,25,24.9,26,24.9,31z"/>
    <path fill="none" stroke="#000000" stroke-linecap="round" stroke-linejoin="round" stroke-width="2" d="M33,38c1.9,0.9,4,1,6,0"/>
  </g>
</svg>
