<svg id="emoji" viewBox="0 0 72 72" xmlns="http://www.w3.org/2000/svg">
  <g id="grid">
    <path fill="#B3B3B3" d="M68,4v64H4V4H68 M72,0H0v72h72V0z"/>
    <path fill="none" stroke="#00A5FF" stroke-miterlimit="10" stroke-width="0.1" d="M12.9,11h46.2c1.1,0,1.9,0.9,1.9,1.9l0,0V59 c0,1.1-0.9,1.9-1.9,1.9H12.9C11.9,61,11,60.1,11,59l0,0V12.9C11,11.8,11.9,11,12.9,11L12.9,11z"/>
    <path fill="none" stroke="#00A5FF" stroke-miterlimit="10" stroke-width="0.1" d="M18.3,4h35.5C55,4,56,5,56,6.3v59.5 c0,1.2-1,2.3-2.3,2.3H18.3C17,68,16,67,16,65.7V6.3C16,5,17,4,18.3,4z"/>
    <path fill="none" stroke="#00A5FF" stroke-miterlimit="10" stroke-width="0.1" d="M68,18.3v35.5c0,1.2-1,2.3-2.3,2.3H6.3 C5,56,4,55,4,53.7V18.3C4,17,5,16,6.3,16h59.5C67,16,68,17,68,18.3z"/>
    <circle cx="36" cy="36" r="29" fill="none" stroke="#00A5FF" stroke-miterlimit="10" stroke-width="0.1"/>
  </g>
  <g id="color">
    <path fill="#92D3F5" d="M55,61v-4c0-5-5-9-10-9c-6,5-12,5-18,0c-5,0-10,4-10,9v4H55z"/>
  </g>
  <g id="hair">
    <path fill="#D0CFCE" d="M25,31c-2,0-3-4-3-7c0-4,4-12,14-12s14,7,14,12c0,4-1,7-3,7"/>
  </g>
  <g id="skin">
    <path fill="#FCEA2B" d="M25,31c0,8,4,14,10.9,14C43,45,47,39,47,31c0-6-3-11-4-12c-2-2-3-2-3-2c-2,1-6,1-8,0c0,0-1,0-3,2 C28,20,25,25,25,31z"/>
  </g>
  <g id="skin-shadow"/>
  <g id="line">
    <path fill="none" stroke="#000000" stroke-linecap="round" stroke-linejoin="round" stroke-width="2" d="M25,31c-2,0-3-4-3-7 c0-4,4-12,14-12s14,7,14,12c0,4-1,7-3,7"/>
    <path fill="none" stroke="#000000" stroke-linecap="round" stroke-linejoin="round" stroke-width="2" d="M17,60v-3c0-5,5-9,10-9 c6,5,12,5,18,0c5,0,10,4,10,9v3"/>
    <path fill="none" stroke="#000000" stroke-linejoin="round" stroke-width="2" d="M25,31c0,8,4,14,10.9,14C43,45,47,39,47,31 c0-6-3-11-4-12c-2-2-3-2-3-2c-2,1-6,1-8,0c0,0-1,0-3,2C28,20,25,25,25,31z"/>
    <path fill="none" stroke="#000000" stroke-linecap="round" stroke-linejoin="round" stroke-width="2" d="M38,38 c-1.2,0.8-2.6,0.8-4,0"/>
    <path fill="none" stroke="#000000" stroke-linecap="round" stroke-linejoin="round" stroke-width="2" d="M31,36c0,1-1,2-1,2"/>
    <path fill="none" stroke="#000000" stroke-linecap="round" stroke-linejoin="round" stroke-width="2" d="M41,36c0,1,1,2,1,2"/>
    <path d="M41.9,29c0,1.1-0.9,2-2,2s-2-0.9-2-2s0.9-2,2-2S41.9,27.9,41.9,29"/>
    <path d="M33.9,29c0,1.1-0.9,2-2,2c-1.1,0-2-0.9-2-2s0.9-2,2-2C33,27,33.9,27.9,33.9,29"/>
  </g>
</svg>
