<svg id="emoji" xmlns="http://www.w3.org/2000/svg" viewBox="0 0 72 72">
  <g id="grid">
    <path d="M68,4V68H4V4H68m4-4H0V72H72V0Z" fill="#b3b3b3"/>
    <path d="M12.923,10.9583H59.0769A1.9231,1.9231,0,0,1,61,12.8814V59.0352a1.9231,1.9231,0,0,1-1.9231,1.9231H12.9231A1.9231,1.9231,0,0,1,11,59.0352V12.8813A1.923,1.923,0,0,1,12.923,10.9583Z" fill="none" stroke="#00a5ff" stroke-miterlimit="10" stroke-width="0.1"/>
    <rect x="16" y="4" width="40" height="64" rx="2.2537" fill="none" stroke="#00a5ff" stroke-miterlimit="10" stroke-width="0.1"/>
    <rect x="16" y="4" width="40" height="64" rx="2.2537" transform="translate(72) rotate(90)" fill="none" stroke="#00a5ff" stroke-miterlimit="10" stroke-width="0.1"/>
    <circle cx="36" cy="36" r="29" fill="none" stroke="#00a5ff" stroke-miterlimit="10" stroke-width="0.1"/>
  </g>
  <g id="color">
    <rect x="12.0001" y="51" fill="#d0cfce" stroke="none" stroke-width="2" stroke-linejoin="round" stroke-miterlimit="10" width="5" height="9.0003"/>
    <rect x="22.75" y="41" fill="#d0cfce" stroke="none" stroke-width="2" stroke-linejoin="round" stroke-miterlimit="10" width="5" height="18.9996"/>
    <rect x="33.4999" y="31" fill="#d0cfce" stroke="none" stroke-width="2" stroke-linejoin="round" stroke-miterlimit="10" width="5" height="28.9991"/>
    <rect x="44.2497" y="21" fill="#d0cfce" stroke="none" stroke-width="2" stroke-linejoin="round" stroke-miterlimit="10" width="5" height="38.9991"/>
    <rect x="54.9996" y="12" fill="#d0cfce" stroke="none" stroke-width="2" stroke-linejoin="round" stroke-miterlimit="10" width="5" height="48"/>
  </g>
  <g id="hair"/>
  <g id="skin"/>
  <g id="skin-shadow"/>
  <g id="line">
    <rect x="12.0001" y="51" fill="none" stroke="#000000" stroke-width="2" stroke-linejoin="round" stroke-miterlimit="10" width="5" height="9.0003"/>
    <rect x="22.75" y="41" fill="none" stroke="#000000" stroke-width="2" stroke-linejoin="round" stroke-miterlimit="10" width="5" height="18.9996"/>
    <rect x="33.4999" y="31" fill="none" stroke="#000000" stroke-width="2" stroke-linejoin="round" stroke-miterlimit="10" width="5" height="28.9991"/>
    <rect x="44.2497" y="21" fill="none" stroke="#000000" stroke-width="2" stroke-linejoin="round" stroke-miterlimit="10" width="5" height="38.9991"/>
    <rect x="54.9996" y="12" fill="none" stroke="#000000" stroke-width="2" stroke-linejoin="round" stroke-miterlimit="10" width="5" height="48"/>
  </g>
</svg>
