<svg id="emoji" viewBox="0 0 72 72" xmlns="http://www.w3.org/2000/svg">
  <g id="grid">
    <path fill="#b3b3b3" d="m68,4v64H4V4h64m4-4H0v72h72V0Z"/>
    <path fill="none" stroke="#00a5ff" stroke-miterlimit="10" stroke-width="0.1" d="m12.923,10.9583h46.1539c1.0621,0,1.9231.861,1.9231,1.9231h0v46.1538c0,1.0621-.861,1.9231-1.9231,1.9231H12.9231c-1.0621,0-1.9231-.861-1.9231-1.9231h0V12.8813c0-1.062.861-1.923,1.923-1.923h0Z"/>
    <rect x="16" y="4" rx="2.2537" ry="2.2537" width="40" height="64" fill="none" stroke="#00a5ff" stroke-miterlimit="10" stroke-width="0.1"/>
    <rect x="4" y="16" rx="2.2537" ry="2.2537" width="64" height="40" fill="none" stroke="#00a5ff" stroke-miterlimit="10" stroke-width="0.1"/>
    <circle cx="36" cy="36" r="29" fill="none" stroke="#00a5ff" stroke-miterlimit="10" stroke-width="0.1"/>
  </g>
  <g id="color">
    <rect x="17.8848" y="17.7841" rx="5.0389" ry="5.0389" width="36.4415" height="36.4415" fill="#fff"/>
  </g>
  <g id="line">
    <path d="m49.2614,18c2.6129,0,4.7386,2.1257,4.7386,4.7386v26.5229c0,2.6128-2.1257,4.7385-4.7386,4.7385h-26.5228c-2.6129,0-4.7386-2.1257-4.7386-4.7386v-26.5228c0-2.6129,2.1257-4.7386,4.7386-4.7386h26.5228m0-2h-26.5228c-3.7216,0-6.7386,3.017-6.7386,6.7386v26.5229c0,3.7215,3.017,6.7385,6.7386,6.7385h26.5229c3.7215,0,6.7385-3.017,6.7385-6.7386v-26.5228c0-3.7216-3.017-6.7386-6.7386-6.7386h0Z"/>
  </g>
</svg>
