<svg id="emoji" viewBox="0 0 72 72" xmlns="http://www.w3.org/2000/svg">
  <g id="grid">
    <path fill="#b3b3b3" d="m68,4v64H4V4h64m4-4H0v72h72V0Z"/>
    <path fill="none" stroke="#00a5ff" stroke-miterlimit="10" stroke-width="0.1" d="m12.923,10.9583h46.1539c1.0621,0,1.9231.861,1.9231,1.9231h0v46.1538c0,1.0621-.861,1.9231-1.9231,1.9231H12.9231c-1.0621,0-1.9231-.861-1.9231-1.9231h0V12.8813c0-1.062.861-1.923,1.923-1.923h0Z"/>
    <rect x="16" y="4" rx="2.2537" ry="2.2537" width="40" height="64" fill="none" stroke="#00a5ff" stroke-miterlimit="10" stroke-width="0.1"/>
    <rect x="4" y="16" rx="2.2537" ry="2.2537" width="64" height="40" fill="none" stroke="#00a5ff" stroke-miterlimit="10" stroke-width="0.1"/>
    <circle cx="36" cy="36" r="29" fill="none" stroke="#00a5ff" stroke-miterlimit="10" stroke-width="0.1"/>
  </g>
  <g id="color">
    <path fill="#fff" d="m20.0838,54.8805c.4669.1716.9922.286,1.5175.286.8171,0,1.6342-.286,2.3345-.7436l28.8896-15.3878.2918-.286c.7587-.7436,1.1672-1.6589,1.1672-2.6886s-.4085-2.0021-1.1672-2.6886l-.2918-.286-28.8896-15.5023c-1.0505-.8008-2.568-.9724-3.8519-.4576-1.4591.572-2.3928,2.0021-2.3928,3.5467v30.6612c0,1.5445.9337,2.9746,2.3928,3.5466Z"/>
  </g>
  <g id="line">
    <path fill="none" stroke="#000" stroke-linejoin="round" stroke-width="2" d="m19.5816,55.6062c.4848.1782,1.0303.297,1.5758.297.8485,0,1.697-.297,2.4242-.7722l30-15.9793.303-.297c.7879-.7722,1.2121-1.7227,1.2121-2.7919s-.4242-2.0791-1.2121-2.7919l-.303-.297-30-16.0981c-1.0909-.8316-2.6667-1.0098-4-.4752-1.5152.594-2.4848,2.0791-2.4848,3.683v31.8397c0,1.6039.9696,3.0889,2.4848,3.6829Z"/>
  </g>
</svg>
