<svg id="emoji" xmlns="http://www.w3.org/2000/svg" viewBox="0 0 72 72">
  <g id="grid">
    <path d="M68,4V68H4V4H68m4-4H0V72H72V0Z" fill="#b3b3b3"></path>
    <path d="M12.923,10.9583H59.0769A1.9231,1.9231,0,0,1,61,12.8814V59.0352a1.9231,1.9231,0,0,1-1.9231,1.9231H12.9231A1.9231,1.9231,0,0,1,11,59.0352V12.8813A1.923,1.923,0,0,1,12.923,10.9583Z" fill="none" stroke="#00a5ff" stroke-miterlimit="10" stroke-width="0.1"></path>
    <rect x="16" y="4" width="40" height="64" rx="2.2537" fill="none" stroke="#00a5ff" stroke-miterlimit="10" stroke-width="0.1"></rect>
    <rect x="16" y="4" width="40" height="64" rx="2.2537" transform="translate(72) rotate(90)" fill="none" stroke="#00a5ff" stroke-miterlimit="10" stroke-width="0.1"></rect>
    <circle cx="36" cy="36" r="29" fill="none" stroke="#00a5ff" stroke-miterlimit="10" stroke-width="0.1"></circle>
  </g>
  <g id="color">
    <polygon fill="#F1B31C" points="26.1808,20.1808 38.75,32.75 51.3192,45.3192 29.7894,54.2798 8.2597,63.2403 17.2202,41.7106 	" stroke="none"></polygon>
    <polygon fill="#FCEA2B" points="40,35 25.6924,20.6692 16.3914,42.5394 7.0905,64.4095 	" stroke="none"></polygon>
    <polygon fill="#EA5A47" points="15.2238,45.2849 26.2858,56.3469 20.7548,58.5984 12.9576,50.8012 	" stroke="none"></polygon>
    <polygon fill="#D22F27" points="17.3429,55.2475 20.7548,58.5984 26.2858,56.3469 21.4849,51.546 		" stroke="none"></polygon>
    <polygon fill="#EA5A47" points="20.8045,32.1625 27.5011,38.8591 39.2002,50.5583 32.9273,53.4217 24.7555,45.2498 
		18.1504,38.6447 	" stroke="none"></polygon>
    <polygon fill="#D22F27" points="26.5369,47.0312 32.9273,53.4216 39.2003,50.5582 31.3616,42.7197 		" stroke="none"></polygon>
    <ellipse fill="#8967aa" cx="30.2951" cy="14.4579" rx="2" ry="1.9708" stroke="none"></ellipse>
    <path fill="#ea5a47" d="M23,37" stroke="none"></path>
    <ellipse fill="#f1b31c" cx="60.2951" cy="18.4579" rx="2" ry="1.9708" stroke="none"></ellipse>
    <ellipse fill="#d22f27" cx="57.2951" cy="39.4579" rx="2" ry="1.9708" stroke="none"></ellipse>
  </g>
  <g id="hair">
  </g>
  <g id="skin">
  </g>
  <g id="skin-shadow">
  </g>
  <g id="line">
    <polyline fill="none" stroke="#000000" stroke-width="2" stroke-linecap="round" stroke-linejoin="round" stroke-miterlimit="10" points="
		50.6626,45.6395 50.8308,45.8076 28.9606,55.1086 7.0904,64.4096 16.3914,42.5394 25.6923,20.6692 	"></polyline>
    <polyline fill="none" stroke="#000000" stroke-width="2" stroke-linecap="round" stroke-linejoin="round" stroke-miterlimit="10" points="
		25.801,20.7779 38.2616,33.2384 50.6626,45.6395 	"></polyline>
    <line fill="none" stroke="#000000" stroke-width="2" stroke-linecap="round" stroke-linejoin="round" stroke-miterlimit="10" x1="25.6923" y1="20.6692" x2="25.801" y2="20.7779"></line>
    <path fill="none" stroke="#000000" stroke-width="2" stroke-linecap="round" stroke-linejoin="round" stroke-miterlimit="10" d="
			M46.4905,7.3671c0.2347,0.4487,0.4027,0.943,0.4897,1.473c0.451,2.7473-1.447,5.4141-4.2392,5.9565"></path>
    <path fill="none" stroke="#000000" stroke-width="2" stroke-linecap="round" stroke-linejoin="round" stroke-miterlimit="10" d="
			M42.9327,14.7763c-0.5049,0.0384-1.0133,0.1573-1.509,0.364c-2.5697,1.0713-3.828,4.093-2.8105,6.7492"></path>
    <path fill="none" stroke="#000000" stroke-width="2" stroke-linecap="round" stroke-linejoin="round" stroke-miterlimit="10" d="
			M61.7928,26.7168c-0.0987,0.4967-0.2778,0.987-0.5425,1.4544c-1.372,2.4225-4.5229,3.309-7.0378,1.98"></path>
    <path fill="none" stroke="#000000" stroke-width="2" stroke-linecap="round" stroke-linejoin="round" stroke-miterlimit="10" d="
			M54.3745,30.2558c-0.4173-0.2868-0.8878-0.513-1.4036-0.663c-2.6733-0.7775-5.5486,0.7867-6.4223,3.4936"></path>
  </g>
</svg>