<svg version="1.1" id="emoji" xmlns="http://www.w3.org/2000/svg" x="0" y="0" viewBox="0 0 72 72" xml:space="preserve">
  <g id="grid">
    <path fill="#B3B3B3" d="M68,4v64H4V4H68 M72,0H0v72h72V0z"/>
    <path fill="none" stroke="#00A5FF" stroke-width="0.1" stroke-miterlimit="10" d="M12.923,10.9583h46.1539 c1.0621,0,1.9231,0.861,1.9231,1.9231v0v46.1538c0,1.0621-0.861,1.9231-1.9231,1.9231H12.9231 c-1.0621,0-1.9231-0.861-1.9231-1.9231l0,0V12.8813C11,11.8193,11.861,10.9583,12.923,10.9583L12.923,10.9583z"/>
    <path fill="none" stroke="#00A5FF" stroke-width="0.1" stroke-miterlimit="10" d="M18.2537,4h35.4926C54.991,4,56,5.009,56,6.2537 v59.4926C56,66.991,54.991,68,53.7463,68H18.2537C17.009,68,16,66.991,16,65.7463V6.2537C16,5.009,17.009,4,18.2537,4z"/>
    <path fill="none" stroke="#00A5FF" stroke-width="0.1" stroke-miterlimit="10" d="M68,18.2537v35.4926 C68,54.991,66.991,56,65.7463,56H6.2537C5.009,56,4,54.991,4,53.7463V18.2537C4,17.009,5.009,16,6.2537,16h59.4926 C66.991,16,68,17.009,68,18.2537z"/>
    <circle fill="none" stroke="#00A5FF" stroke-width="0.1" stroke-miterlimit="10" cx="36" cy="36" r="29"/>
  </g>
  <g id="color">
    <polygon fill="#D22F27" points="33.9763,42.6906 34.0061,49.1497 34.0359,55.6089 28.1166,51.8019 22.1972,47.995 28.0868,45.3428"/>
    <circle fill="#EA5A47" cx="45" cy="27" r="23.0003"/>
    <path fill="#D22F27" d="M60.8265,10.549c-1.3409-1.3409-2.8082-2.477-4.3606-3.4175c5.3598,8.8471,4.2238,20.5254-3.4175,28.1667 s-19.3196,8.7774-28.1667,3.4175c0.9405,1.5525,2.0767,3.0197,3.4175,4.3606c8.9822,8.9822,23.5452,8.9822,32.5273,0 C69.8087,34.0942,69.8087,19.5312,60.8265,10.549z"/>
  </g>
  <g id="hair"/>
  <g id="skin"/>
  <g id="skin-shadow"/>
  <g id="line">
    <polyline fill="none" stroke="#000000" stroke-width="2.1216" stroke-linecap="round" stroke-linejoin="round" stroke-miterlimit="10" points="34,47.2098 34.01,49.1498 34.04,55.6098 28.12,51.7998 22.2,47.9998 28.09,45.3398 30.04,44.4598"/>
    <circle fill="none" stroke="#000000" stroke-width="2" stroke-miterlimit="10" cx="45" cy="27" r="23.0003"/>
    <path fill="none" stroke="#000000" stroke-width="2" stroke-linecap="round" stroke-linejoin="round" stroke-miterlimit="10" d="M17.7253,65.09c0.5048,0.0395,1.0254-0.0002,1.547-0.1285c2.7035-0.6648,4.41-3.458,3.8116-6.2388"/>
    <path fill="none" stroke="#000000" stroke-width="2" stroke-linecap="round" stroke-linejoin="round" stroke-miterlimit="10" d="M23.1406,58.907c-0.1631-0.4794-0.2535-0.9936-0.2582-1.5307c-0.0246-2.7839,2.2596-5.1284,5.102-5.2364"/>
  </g>
</svg>
