<svg id="emoji" xmlns="http://www.w3.org/2000/svg" viewBox="0 0 72 72">
  <g id="grid">
    <path d="M68,4V68H4V4H68m4-4H0V72H72V0Z" fill="#b3b3b3"></path>
    <path d="M12.923,10.9583H59.0769A1.9231,1.9231,0,0,1,61,12.8814V59.0352a1.9231,1.9231,0,0,1-1.9231,1.9231H12.9231A1.9231,1.9231,0,0,1,11,59.0352V12.8813A1.923,1.923,0,0,1,12.923,10.9583Z" fill="none" stroke="#00a5ff" stroke-miterlimit="10" stroke-width="0.1"></path>
    <rect x="16" y="4" width="40" height="64" rx="2.2537" fill="none" stroke="#00a5ff" stroke-miterlimit="10" stroke-width="0.1"></rect>
    <rect x="16" y="4" width="40" height="64" rx="2.2537" transform="translate(72) rotate(90)" fill="none" stroke="#00a5ff" stroke-miterlimit="10" stroke-width="0.1"></rect>
    <circle cx="36" cy="36" r="29" fill="none" stroke="#00a5ff" stroke-miterlimit="10" stroke-width="0.1"></circle>
  </g>
  <g id="color">
    <path fill="#EA5A47" d="M57.294,16.4726c-4.9576,0-13.7529,4.8295-18.1344,9.5323c0.8358,0.8942,1.355,2.1297,1.355,3.4895
		c-0.0483,6.2816,0.1137,6.5231-0.1576,7.6042c11.5893,3.5957,14.4851,12.5149,20.1946,4.9369
		C67.067,33.3875,63.4223,16.4726,57.294,16.4726z" stroke="none"></path>
    <path fill="#D22F27" d="M40.5115,29.9496c4.6559-4.2405,12.2929-8.2014,16.7825-8.2014c3.3555,0,5.9664,5.0713,6.5725,11.0799
		c0.823-7.9779-2.2597-16.3555-6.5725-16.3555c-4.9576,0-13.7529,4.8295-18.1344,9.5323c0.8358,0.8942,1.355,2.1297,1.355,3.4895
		C40.5134,29.6502,40.5124,29.8012,40.5115,29.9496z" stroke="none"></path>
    <path fill="#EA5A47" d="M10.0714,41.0355c5.7096,7.5779,8.6053-1.3412,20.1946-4.9369c-0.2713-1.0811-0.1093-1.3226-0.1576-7.6042
		c0-1.3598,0.5193-2.5953,1.355-3.4895c-4.3815-4.7027-13.1768-9.5323-18.1344-9.5323
		C7.2008,15.4726,3.5561,32.3875,10.0714,41.0355z" stroke="none"></path>
    <path fill="#D22F27" d="M30.1116,28.9496c-4.6559-4.2405-12.2929-8.2014-16.7825-8.2014c-3.3555,0-5.9664,5.0713-6.5725,11.0799
		c-0.823-7.9779,2.2597-16.3555,6.5725-16.3555c4.9576,0,13.7529,4.8295,18.1344,9.5323c-0.8358,0.8942-1.355,2.1297-1.355,3.4895
		C30.1096,28.6502,30.1107,28.8012,30.1116,28.9496z" stroke="none"></path>
    <path fill="#EA5A47" d="M30.2974,36.8198c-1.2433,0.4498-2.3699,0.9827-3.4001,1.5558
		c-2.2091,2.9385-6.1227,8.8343-10.3118,18.2197c-0.3339,0.7478,0.1772,1.6439,0.8543,1.496l4.8211-1.054
		c0.6993-0.1529,1.3995,0.2638,1.7428,1.0375l2.1714,4.8934c0.38,0.8563,1.4067,0.6854,1.5923-0.2651
		c0.9416-4.8245,3.1008-15.2418,5.7176-22.2669C31.9419,40.1079,30.698,38.6771,30.2974,36.8198z" stroke="none"></path>
    <path fill="#EA5A47" d="M44.1456,38.4326c-1.0626-0.6085-2.206-1.1647-3.4429-1.6129c-0.4006,1.8573-1.6446,3.2882-3.1877,3.6164
		c2.6169,7.0251,4.7762,17.4424,5.7177,22.2669c0.1855,0.9505,1.2123,1.1214,1.5923,0.2651l2.1715-4.8934
		c0.3433-0.7734,1.0435-1.1903,1.7428-1.0375l4.8211,1.054c0.6771,0.1479,1.1882-0.7481,0.8543-1.496
		C50.2524,47.2699,46.3622,41.3901,44.1456,38.4326z" stroke="none"></path>
    <path fill="#EA5A47" d="M35.8394,22.7182h-1.6787c-2.2335,0-4.0505,2.3813-4.0505,5.3087v6.6448
		c0,2.9274,1.817,5.3088,4.0505,5.3088h1.6787c2.2335,0,4.0505-2.3815,4.0505-5.3088v-6.6448
		C39.89,25.0995,38.0729,22.7182,35.8394,22.7182z" stroke="none"></path>
    <path fill="#D22F27" d="M39.5468,24.6244c0.5888,0.922,0.9436,2.1089,0.9436,3.4025v6.6448c0,2.9274-1.817,5.3088-4.0505,5.3088
		h-1.6787c-0.5522,0-1.0787-0.146-1.5588-0.4094c1.4619-0.8019,2.4917-2.6958,2.4917-4.8994v-6.6448
		c0-2.2036-1.0298-4.0974-2.4917-4.8993c0.4801-0.2634,1.0066-0.4094,1.5588-0.4094h1.6787
		C37.6865,22.7182,38.8032,23.4599,39.5468,24.6244" stroke="none"></path>
  </g>
  <g id="hair">
  </g>
  <g id="skin">
  </g>
  <g id="skin-shadow">
  </g>
  <g id="line">
    <path fill="none" stroke="#000000" stroke-width="1.992" stroke-miterlimit="10" d="M59.056,16.1044
		c-0.5572-0.3152-1.1471-0.4855-1.762-0.4855c-2.2168,0-5.2008,0.9656-8.2145,2.4537"></path>
    <path fill="none" stroke="#000000" stroke-width="1.992" stroke-miterlimit="10" d="M40.357,36.2449
		c11.5893,3.5957,14.4851,12.5149,20.1946,4.9369c5.8616-7.7802,3.4998-22.2515-1.4956-25.0774"></path>
    <path fill="none" stroke="#000000" stroke-width="1.992" stroke-miterlimit="10" d="M49.0795,18.0727
		c-3.7261,1.8399-7.4976,4.4786-9.9199,7.0785"></path>
    <path fill="none" stroke="#000000" stroke-width="1.992" stroke-miterlimit="10" d="M10.0714,41.0355
		c5.7096,7.5779,8.6053-1.3412,20.1946-4.9369c-0.2713-1.0811-0.1093-1.3226-0.1576-7.6042c0-1.3598,0.5193-2.5953,1.355-3.4895
		c-4.3815-4.7027-13.1768-9.5323-18.1344-9.5323C7.2008,15.4726,3.5561,32.3875,10.0714,41.0355z"></path>
    <path fill="none" stroke="#000000" stroke-width="2" stroke-linecap="round" stroke-linejoin="round" stroke-miterlimit="10" d="
		M30.2974,36.8198c-1.2433,0.4498-2.3699,0.9827-3.4001,1.5558c-2.2091,2.9385-6.1227,8.8343-10.3118,18.2197
		c-0.3339,0.7478,0.1772,1.6439,0.8543,1.496l4.8211-1.054c0.6993-0.1529,1.3995,0.2638,1.7428,1.0375l2.1714,4.8934
		c0.38,0.8563,1.4067,0.6854,1.5923-0.2651c0.9416-4.8245,3.1008-15.2418,5.7176-22.2669
		C31.9419,40.1079,30.698,38.6771,30.2974,36.8198z"></path>
    <path fill="none" stroke="#000000" stroke-width="2" stroke-linecap="round" stroke-linejoin="round" stroke-miterlimit="10" d="
		M44.1456,38.4326c-1.0626-0.6085-2.206-1.1647-3.4429-1.6129c-0.4006,1.8573-1.6446,3.2882-3.1877,3.6164
		c2.6169,7.0251,4.7762,17.4424,5.7177,22.2669c0.1855,0.9505,1.2123,1.1214,1.5923,0.2651l2.1715-4.8934
		c0.3433-0.7734,1.0435-1.1903,1.7428-1.0375l4.8211,1.054c0.6771,0.1479,1.1882-0.7481,0.8543-1.496
		C50.2524,47.2699,46.3622,41.3901,44.1456,38.4326z"></path>
    <path fill="none" stroke="#000000" stroke-width="2" stroke-miterlimit="10" d="M35.8394,22.7182h-1.6787
		c-2.2335,0-4.0505,2.3813-4.0505,5.3087v6.6448c0,2.9274,1.817,5.3088,4.0505,5.3088h1.6787c2.2335,0,4.0505-2.3815,4.0505-5.3088
		v-6.6448C39.89,25.0995,38.0729,22.7182,35.8394,22.7182z"></path>
  </g>
</svg>