<svg id="emoji" viewBox="0 0 72 72" xmlns="http://www.w3.org/2000/svg">
  <g id="grid">
    <path fill="#b3b3b3" d="M68,4V68H4V4H68m4-4H0V72H72V0Z"/>
    <path fill="none" stroke="#00a5ff" stroke-miterlimit="10" stroke-width="0.1" d="M12.923,10.9583H59.0769A1.9231,1.9231,0,0,1,61,12.8814V59.0352a1.9231,1.9231,0,0,1-1.9231,1.9231H12.9231A1.9231,1.9231,0,0,1,11,59.0352V12.8813A1.923,1.923,0,0,1,12.923,10.9583Z"/>
    <rect x="16" y="4" rx="2.2537" width="40" height="64" fill="none" stroke="#00a5ff" stroke-miterlimit="10" stroke-width="0.1"/>
    <rect x="16" y="4" rx="2.2537" width="40" height="64" transform="rotate(90 36 36)" fill="none" stroke="#00a5ff" stroke-miterlimit="10" stroke-width="0.1"/>
    <circle cx="36" cy="36" r="29" fill="none" stroke="#00a5ff" stroke-miterlimit="10" stroke-width="0.1"/>
  </g>
  <g id="line-supplement">
    <g>
      <line x1="62" x2="67.6569" y1="23" y2="21.5858" fill="none" stroke="#000" stroke-linecap="round" stroke-miterlimit="10" stroke-width="2"/>
      <line x1="55" x2="56.4142" y1="14.3431" y2="20" fill="none" stroke="#000" stroke-linecap="round" stroke-miterlimit="10" stroke-width="2"/>
      <line x1="60" x2="63" y1="20" y2="15" fill="none" stroke="#000" stroke-linecap="round" stroke-miterlimit="10" stroke-width="2"/>
    </g>
  </g>
  <g id="color">
    <rect x="3.5162" y="31.2797" rx="1" width="40" height="13" transform="rotate(-45 23.516 37.78)" fill="#d22f27"/>
    <g>
      <line x1="62" x2="67.6569" y1="23" y2="21.5858" fill="none" stroke="#fcea2b" stroke-linecap="round" stroke-miterlimit="10" stroke-width="2"/>
      <line x1="55" x2="56.4142" y1="14.3431" y2="20" fill="none" stroke="#fcea2b" stroke-linecap="round" stroke-miterlimit="10" stroke-width="2"/>
      <line x1="60" x2="63" y1="20" y2="15" fill="none" stroke="#fcea2b" stroke-linecap="round" stroke-miterlimit="10" stroke-width="2"/>
    </g>
  </g>
  <g id="line">
    <rect x="3.5162" y="31.2797" rx="1" width="40" height="13" transform="rotate(-45 23.516 37.78)" fill="none" stroke="#000" stroke-linejoin="round" stroke-width="2"/>
    <path fill="none" stroke="#000" stroke-linecap="round" stroke-linejoin="round" stroke-width="2" d="M58,23.28s-2.7574,6.8285-7,4,.4721-8.7639-4-11c-4-2-9.3417,7.3573-9.3417,7.3573"/>
  </g>
</svg>
