<svg id="emoji" xmlns="http://www.w3.org/2000/svg" viewBox="0 0 72 72">
  <g id="grid">
    <path d="M68,4V68H4V4H68m4-4H0V72H72V0Z" fill="#b3b3b3"/>
    <path d="M12.923,10.9583H59.0769A1.9231,1.9231,0,0,1,61,12.8814V59.0352a1.9231,1.9231,0,0,1-1.9231,1.9231H12.9231A1.9231,1.9231,0,0,1,11,59.0352V12.8813A1.923,1.923,0,0,1,12.923,10.9583Z" fill="none" stroke="#00a5ff" stroke-miterlimit="10" stroke-width="0.1"/>
    <rect x="16" y="4" width="40" height="64" rx="2.2537" fill="none" stroke="#00a5ff" stroke-miterlimit="10" stroke-width="0.1"/>
    <rect x="16" y="4" width="40" height="64" rx="2.2537" transform="translate(72) rotate(90)" fill="none" stroke="#00a5ff" stroke-miterlimit="10" stroke-width="0.1"/>
    <circle cx="36" cy="36" r="29" fill="none" stroke="#00a5ff" stroke-miterlimit="10" stroke-width="0.1"/>
    <path d="M68,4V68H4V4H68m4-4H0V72H72V0Z" fill="#b3b3b3"/>
    <rect x="11" y="11.9583" width="50" height="50" rx="1.9231" fill="none" stroke="#00a5ff" stroke-miterlimit="10" stroke-width="0.1"/>
    <rect x="16" y="4" width="40" height="64" rx="2.2537" fill="none" stroke="#00a5ff" stroke-miterlimit="10" stroke-width="0.1"/>
    <rect x="16" y="4" width="40" height="64" rx="2.2537" transform="translate(72) rotate(90)" fill="none" stroke="#00a5ff" stroke-miterlimit="10" stroke-width="0.1"/>
    <circle cx="36" cy="36" r="29" fill="none" stroke="#00a5ff" stroke-miterlimit="10" stroke-width="0.1"/>
  </g>
  <g id="color">
    <polygon points="13 12 54 12 54 46 53 51 50 55 47 59 44 61 40 63 34 63 27 62 22 60 19 57 16 53 14 50 13 44 13 12" fill="#ea5a47" stroke="#ea5a47" stroke-miterlimit="10"/>
    <rect x="22.3541" y="22.1929" width="7.7925" height="13" rx="3.5367" fill="#fff" stroke="#fff" stroke-linecap="round" stroke-linejoin="round" transform="translate(-12.5754 30.911) rotate(-50.8152)"/>
    <rect x="38.3541" y="22.1929" width="7.7925" height="13" rx="3.5367" fill="#fff" stroke="#fff" stroke-linecap="round" stroke-linejoin="round" transform="translate(46.7049 79.5705) rotate(-129.1848)"/>
    <g>
      <polygon points="34 42 44 36 53 36 55.559 36 58 36 61 36 62 37 63 38 63 39 63 41 61 42 57 42 52 42 49 42 46 42 34 42" fill="#d22f27"/>
      <rect x="34" y="36" width="14" height="6" rx="2.5539" fill="#d22f27"/>
    </g>
  </g>
  <g id="line">
    <polyline points="13.187 43 13.187 12 54.187 12 54.187 33.201" fill="none" stroke="#000" stroke-linecap="round" stroke-linejoin="round" stroke-width="2"/>
    <path d="M54.1051,44.8508A20.5007,20.5007,0,0,1,13.1875,43" fill="none" stroke="#000" stroke-linecap="round" stroke-miterlimit="10" stroke-width="2"/>
    <path d="M41.5,51.5414a20.5713,20.5713,0,0,0-15.6265,0" fill="none" stroke="#000" stroke-linecap="round" stroke-miterlimit="10" stroke-width="2"/>
    <path d="M31.3173,29.9252a3,3,0,1,1-3-3,3.0012,3.0012,0,0,1,3,3"/>
    <path d="M43.3173,29.9252a3,3,0,1,1-3-3,3.0011,3.0011,0,0,1,3,3"/>
    <line x1="23" y1="18" x2="30" y2="24" fill="none" stroke="#000" stroke-linecap="round" stroke-linejoin="round" stroke-width="2"/>
    <line x1="45" y1="18" x2="38" y2="24" fill="none" stroke="#000" stroke-linecap="round" stroke-linejoin="round" stroke-width="2"/>
    <line x1="53.0588" y1="36" x2="36.9412" y2="36" fill="none" stroke="#000" stroke-linecap="round" stroke-linejoin="round" stroke-width="2"/>
    <line x1="58" y1="36" x2="53.1176" y2="36" fill="none" stroke="#000" stroke-linecap="round" stroke-linejoin="round" stroke-width="2"/>
    <path d="M54.1875,42H59s4,0,4-3a2.9382,2.9382,0,0,0-3-3H58" fill="none" stroke="#000" stroke-linecap="round" stroke-linejoin="round" stroke-width="2"/>
    <line x1="34" y1="42" x2="54.1875" y2="42" fill="none" stroke="#000" stroke-linecap="round" stroke-linejoin="round" stroke-width="2"/>
    <path d="M34,46s4-3,8,0a6.4227,6.4227,0,0,0,2.6154,1.2638" fill="none" stroke="#000" stroke-linecap="round" stroke-linejoin="round" stroke-width="2"/>
    <path d="M33.6154,46s-4-3-8,0A6.4227,6.4227,0,0,1,23,47.2638" fill="none" stroke="#000" stroke-linecap="round" stroke-linejoin="round" stroke-width="2"/>
  </g>
</svg>
