<svg version="1.1" id="emoji" xmlns="http://www.w3.org/2000/svg" x="0" y="0" viewBox="0 0 72 72" enable-background="new 0 0 72 72" xml:space="preserve">
  <g id="grid">
    <path fill="#B3B3B3" d="M68,4v64H4V4H68 M72,0H0v72h72V0z"/>
    <path fill="none" stroke="#00A5FF" stroke-width="0.1" stroke-miterlimit="10" d="M12.923,10.9583h46.1539 c1.0621,0,1.9231,0.861,1.9231,1.9231l0,0v46.1538c0,1.0621-0.861,1.9231-1.9231,1.9231H12.9231 c-1.0621,0-1.9231-0.861-1.9231-1.9231l0,0V12.8813C11,11.8193,11.861,10.9583,12.923,10.9583L12.923,10.9583z"/>
    <path fill="none" stroke="#00A5FF" stroke-width="0.1" stroke-miterlimit="10" d="M18.2537,4h35.4926C54.991,4,56,5.009,56,6.2537 v59.4926C56,66.991,54.991,68,53.7463,68H18.2537C17.009,68,16,66.991,16,65.7463V6.2537C16,5.009,17.009,4,18.2537,4z"/>
    <path fill="none" stroke="#00A5FF" stroke-width="0.1" stroke-miterlimit="10" d="M68,18.2537v35.4926 C68,54.991,66.991,56,65.7463,56H6.2537C5.009,56,4,54.991,4,53.7463V18.2537C4,17.009,5.009,16,6.2537,16h59.4926 C66.991,16,68,17.009,68,18.2537z"/>
    <circle fill="none" stroke="#00A5FF" stroke-width="0.1" stroke-miterlimit="10" cx="36" cy="36" r="29"/>
  </g>
  <g id="color">
    <circle fill="#FFFFFF" cx="36.9031" cy="38.7337" r="23"/>
    <path fill="#D22F27" d="M50.71,49.28c0,0-1.58,8.43-13.81,8.76c-12.18-0.44-13.81-8.76-13.81-8.76 c-0.46-1.73-1.2401-5.76,2.28-3.81c2.7,1.5,5.38,4.37,11.53,4.55c6.16-0.18,8.83-3.05,11.53-4.55 C51.95,43.52,51.18,47.55,50.71,49.28z"/>
    <path fill="#FFFFFF" d="M36.9012,55.4681c-6.0618,0-9.9298-3.3099-10.9113-4.9147s0.5505-1.1552,0.866-1.003 c2.3137,1.1164,4.0412,2.6979,10.0453,2.9036 M36.9012,55.4681c6.0618,0,9.9298-3.3099,10.9113-4.9147s-0.5505-1.1552-0.866-1.003 c-2.3138,1.1164-4.0412,2.6979-10.0453,2.9036"/>
    <polygon fill="#D22F27" points="14.3413,30.5734 13.5348,28.538 13.3043,26.5409 13.2659,24.1598 13.8602,21.221 15.7622,18.6295 17.7593,15.9028 21.83,15.0222 24.9026,15.5572 27.6293,15.826 28.0287,17.6788 23.6011,19.4499 21.5998,21.5483 20.102,23.3917 17.4023,25.6486 15.6313,30.0763"/>
    <polygon fill="#D22F27" points="46.1963,15.8581 48.2926,15.2263 50.302,15.1652 52.6778,15.3278 55.556,16.168 57.9777,18.2819 60.5262,20.5019 61.0601,24.6324 60.2678,27.6489 59.7699,30.3433 57.8899,30.5849 56.4988,26.0236 54.5768,23.8523 52.8663,22.2043 50.8453,19.3239 46.5828,17.1855"/>
  </g>
  <g id="hair"/>
  <g id="skin"/>
  <g id="skin-shadow"/>
  <g id="line">
    <path fill="none" stroke="#000000" stroke-width="2" stroke-linecap="round" stroke-linejoin="round" stroke-miterlimit="10" d="M24.3856,23.9083c2.8989-1.5543,6.1935-1.6129,8.6558,0"/>
    <path fill="none" stroke="#000000" stroke-width="2" stroke-linecap="round" stroke-linejoin="round" stroke-miterlimit="10" d="M40.8433,23.9083c2.8989-1.5543,6.1935-1.6129,8.6558,0"/>
    <path fill="none" stroke="#000000" stroke-width="2" stroke-linecap="round" stroke-linejoin="round" stroke-miterlimit="10" d="M50.71,49.28c0,0-1.58,8.43-13.81,8.76c-12.18-0.44-13.81-8.76-13.81-8.76c-0.46-1.73-1.2401-5.76,2.28-3.81 c2.7,1.5,5.38,4.37,11.53,4.55c6.16-0.18,8.83-3.05,11.53-4.55C51.95,43.52,51.18,47.55,50.71,49.28z"/>
    <path fill="none" stroke="#000000" stroke-width="2" stroke-linecap="round" stroke-linejoin="round" stroke-miterlimit="10" d="M14.5332,30.6666c0,0-2.047-1.4682-0.6019-3.1236c0,0-2.2788-2.0129-0.4281-3.9039c0,0-1.2382-4.0732,2.1382-4.309 c0,0-0.3899-4.0721,4.079-3.5985c0,0,2.5018-1.8015,4.3561,0.2489c0,0,2.5324-1.6079,3.8427,0.4026"/>
    <circle fill="none" stroke="#000000" stroke-width="2" stroke-linecap="round" stroke-linejoin="round" stroke-miterlimit="10" cx="36.9031" cy="38.7337" r="23"/>
    <path fill="none" stroke="#000000" stroke-width="2" stroke-linecap="round" stroke-linejoin="round" stroke-miterlimit="10" d="M58.843,30.6666c0,0,2.047-1.4682,0.6019-3.1236c0,0,2.2788-2.0129,0.4281-3.9039c0,0,1.2382-4.0732-2.1382-4.309 c0,0,0.3899-4.0721-4.079-3.5985c0,0-2.5018-1.8015-4.3561,0.2489c0,0-2.5324-1.6079-3.8427,0.4026"/>
    <ellipse fill="none" stroke="#000000" stroke-width="2" stroke-miterlimit="10" cx="28.7135" cy="33.5517" rx="3.5" ry="6.3045"/>
    <ellipse fill="none" stroke="#000000" stroke-width="2" stroke-miterlimit="10" cx="45.1713" cy="33.5553" rx="3.5" ry="6.3045"/>
    <circle cx="36.7837" cy="41.7116" r="2.7351"/>
  </g>
  <g id="color-foreground">
    <ellipse fill="none" stroke="#92D3F5" stroke-width="2.1" stroke-miterlimit="10" cx="28.7135" cy="33.5517" rx="3.5" ry="6.3045"/>
    <ellipse fill="none" stroke="#92D3F5" stroke-width="2.1" stroke-miterlimit="10" cx="45.1713" cy="33.5553" rx="3.5" ry="6.3045"/>
    <path d="M31.21,33.5497c0,3.04-1.32,5.31-2.5,5.31s-2.5-2.27-2.5-5.31c0-3.03,1.32-5.3,2.5-5.3S31.21,30.5198,31.21,33.5497z"/>
    <path d="M47.67,33.5598c0,3.03-1.32,5.3-2.5,5.3s-2.5-2.27-2.5-5.3c0-3.04,1.32-5.31,2.5-5.31S47.67,30.5198,47.67,33.5598z"/>
    <circle fill="#D22F27" cx="36.7837" cy="41.7116" r="2.7351"/>
  </g>
</svg>
