<svg id="emoji" xmlns="http://www.w3.org/2000/svg" viewBox="0 0 72 72">
  <g id="grid">
    <path fill="#B3B3B3" d="M68,4v64H4V4H68 M72,0H0v72h72V0z"/>
    <path fill="none" stroke="#00A5FF" stroke-width="0.1" stroke-miterlimit="10" d="M12.923,10.9583h46.1539 c1.0621,0,1.9231,0.861,1.9231,1.9231l0,0v46.1538c0,1.0621-0.861,1.9231-1.9231,1.9231H12.9231 c-1.0621,0-1.9231-0.861-1.9231-1.9231l0,0V12.8813C11,11.8193,11.861,10.9583,12.923,10.9583L12.923,10.9583z"/>
    <path fill="none" stroke="#00A5FF" stroke-width="0.1" stroke-miterlimit="10" d="M18.2537,4h35.4926C54.991,4,56,5.009,56,6.2537 v59.4926C56,66.991,54.991,68,53.7463,68H18.2537C17.009,68,16,66.991,16,65.7463V6.2537C16,5.009,17.009,4,18.2537,4z"/>
    <path fill="none" stroke="#00A5FF" stroke-width="0.1" stroke-miterlimit="10" d="M68,18.2537v35.4926 C68,54.991,66.991,56,65.7463,56H6.2537C5.009,56,4,54.991,4,53.7463V18.2537C4,17.009,5.009,16,6.2537,16h59.4926 C66.991,16,68,17.009,68,18.2537z"/>
    <circle fill="none" stroke="#00A5FF" stroke-width="0.1" stroke-miterlimit="10" cx="36" cy="36" r="29"/>
  </g>
  <g id="color">
    <path fill="#D22F27" d="M13.8451,27.9329c0,0-2.047-1.4682-0.6019-3.1236c0,0-2.2788-2.0129-0.4281-3.9039 c0,0-1.2382-4.0732,2.1382-4.309c0,0-0.3899-4.0721,4.079-3.5985c0,0,2.5018-1.8015,4.3561,0.2489c0,0,2.5324-1.6079,3.8427,0.4026"/>
    <path fill="#D22F27" d="M58.1549,27.9329c0,0,2.047-1.4682,0.6019-3.1236c0,0,2.2788-2.0129,0.4281-3.9039 c0,0,1.2382-4.0732-2.1382-4.309c0,0,0.3899-4.0721-4.079-3.5985c0,0-2.5018-1.8015-4.3561,0.2489c0,0-2.5324-1.6079-3.8427,0.4026"/>
    <circle fill="#FFFFFF" cx="36" cy="36" r="23"/>
    <path fill="#D22F27" d="M49.8069,46.5463c0,0-1.58,8.43-13.81,8.76c-12.18-0.44-13.81-8.76-13.81-8.76 c-0.46-1.73-1.2401-5.76,2.28-3.81c2.7,1.5,5.38,4.37,11.53,4.55c6.16-0.18,8.83-3.05,11.53-4.55 C51.0469,40.7863,50.2769,44.8163,49.8069,46.5463z"/>
    <path fill="#FFFFFF" d="M35.9981,52.7344c-6.0618,0-9.9298-3.3099-10.9113-4.9147s0.5505-1.1552,0.866-1.003 c2.3137,1.1164,4.0412,2.6979,10.0453,2.9036 M35.9981,52.7344c6.0618,0,9.9298-3.3099,10.9113-4.9147s-0.5505-1.1552-0.866-1.003 c-2.3138,1.1164-4.0412,2.6979-10.0453,2.9036"/>
  </g>
  <g id="hair"/>
  <g id="skin"/>
  <g id="skin-shadow"/>
  <g id="line">
    <path fill="none" stroke="#000000" stroke-width="2" stroke-linecap="round" stroke-linejoin="round" stroke-miterlimit="10" d="M23.4432,21.1746c2.8989-1.5543,6.1935-1.6129,8.6558,0"/>
    <path fill="none" stroke="#000000" stroke-width="2" stroke-linecap="round" stroke-linejoin="round" stroke-miterlimit="10" d="M39.901,21.1746c2.8989-1.5543,6.1935-1.6129,8.6558,0"/>
    <path fill="none" stroke="#000000" stroke-width="2" stroke-linecap="round" stroke-linejoin="round" stroke-miterlimit="10" d="M49.8078,46.5463c0,0-1.58,8.43-13.81,8.76c-12.18-0.44-13.81-8.76-13.81-8.76c-0.46-1.73-1.2401-5.76,2.28-3.81 c2.7,1.5,5.38,4.37,11.53,4.55c6.16-0.18,8.83-3.05,11.53-4.55C51.0478,40.7863,50.2778,44.8163,49.8078,46.5463z"/>
    <path fill="none" stroke="#000000" stroke-width="2" stroke-linecap="round" stroke-linejoin="round" stroke-miterlimit="10" d="M13.8451,27.9329c0,0-2.047-1.4682-0.6019-3.1236c0,0-2.2788-2.0129-0.4281-3.9039c0,0-1.2382-4.0732,2.1382-4.309 c0,0-0.3899-4.0721,4.079-3.5985c0,0,2.5018-1.8015,4.3561,0.2489c0,0,2.5324-1.6079,3.8427,0.4026"/>
    <circle fill="none" stroke="#000000" stroke-width="2" stroke-linecap="round" stroke-linejoin="round" stroke-miterlimit="10" cx="36" cy="36" r="23"/>
    <path fill="none" stroke="#000000" stroke-width="2" stroke-linecap="round" stroke-linejoin="round" stroke-miterlimit="10" d="M58.1549,27.9329c0,0,2.047-1.4682,0.6019-3.1236c0,0,2.2788-2.0129,0.4281-3.9039c0,0,1.2382-4.0732-2.1382-4.309 c0,0,0.3899-4.0721-4.079-3.5985c0,0-2.5018-1.8015-4.3561,0.2489c0,0-2.5324-1.6079-3.8427,0.4026"/>
    <ellipse fill="none" stroke="#000000" stroke-width="2" stroke-miterlimit="10" cx="27.7711" cy="30.818" rx="3.5" ry="6.3045"/>
    <ellipse fill="none" stroke="#000000" stroke-width="2" stroke-miterlimit="10" cx="44.2289" cy="30.8216" rx="3.5" ry="6.3045"/>
    <circle cx="36" cy="38.9779" r="2.7351"/>
  </g>
  <g id="color-foreground">
    <ellipse fill="none" stroke="#92D3F5" stroke-width="2.1" stroke-miterlimit="10" cx="27.7711" cy="30.818" rx="3.5" ry="6.3045"/>
    <ellipse fill="none" stroke="#92D3F5" stroke-width="2.1" stroke-miterlimit="10" cx="44.2289" cy="30.8216" rx="3.5" ry="6.3045"/>
    <path d="M30.2676,30.816c0,3.04-1.32,5.31-2.5,5.31s-2.5-2.27-2.5-5.31c0-3.03,1.32-5.3,2.5-5.3S30.2676,27.7861,30.2676,30.816z"/>
    <path d="M46.7276,30.8261c0,3.03-1.32,5.3-2.5,5.3s-2.5-2.27-2.5-5.3c0-3.04,1.32-5.31,2.5-5.31S46.7276,27.7861,46.7276,30.8261z"/>
    <circle fill="#D22F27" cx="36.0563" cy="38.9779" r="2.7351"/>
  </g>
</svg>
