<?xml version="1.0" encoding="utf-8"?>
<!-- Generator: Adobe Illustrator 22.0.1, SVG Export Plug-In . SVG Version: 6.00 Build 0)  -->
<svg version="1.1" id="emoji" xmlns="http://www.w3.org/2000/svg" xmlns:xlink="http://www.w3.org/1999/xlink" x="0px" y="0px"
	 viewBox="0 0 72 72" enable-background="new 0 0 72 72" xml:space="preserve">
<g id="grid">
	<path fill="#B3B3B3" d="M68,4v64H4V4H68 M72,0H0v72h72V0z"/>
	<path fill="none" stroke="#00A5FF" stroke-width="0.1" stroke-miterlimit="10" d="M12.9,11h46.2c1.1,0,1.9,0.9,1.9,1.9l0,0V59
		c0,1.1-0.9,1.9-1.9,1.9H12.9C11.9,61,11,60.1,11,59l0,0V12.9C11,11.8,11.9,11,12.9,11L12.9,11z"/>
	<path fill="none" stroke="#00A5FF" stroke-width="0.1" stroke-miterlimit="10" d="M18.3,4h35.5C55,4,56,5,56,6.3v59.5
		c0,1.2-1,2.3-2.3,2.3H18.3C17,68,16,67,16,65.7V6.3C16,5,17,4,18.3,4z"/>
	<path fill="none" stroke="#00A5FF" stroke-width="0.1" stroke-miterlimit="10" d="M68,18.3v35.5c0,1.2-1,2.3-2.3,2.3H6.3
		C5,56,4,55,4,53.7V18.3C4,17,5,16,6.3,16h59.5C67,16,68,17,68,18.3z"/>
	<circle fill="none" stroke="#00A5FF" stroke-width="0.1" stroke-miterlimit="10" cx="36" cy="36" r="29"/>
</g>
<g id="line-supplement">
	<path fill="none" stroke="#000000" stroke-width="2" stroke-linecap="round" stroke-linejoin="round" stroke-miterlimit="10" d="
		M43.7,63.9c0.3-4.4,1.9-6.6,5.4-10.1c3.3-3.3,5.5-7.4,5.5-12.2c0-9.5-8.3-17.2-18.6-17.2s-18.6,7.7-18.6,17.2
		c0,4.8,2.2,8.9,5.5,12.2c3.5,3.5,5.1,5.7,5.4,10.1"/>
</g>
<g id="color">
	<circle fill="#FCEA2B" cx="36" cy="36" r="29"/>
	<path fill="#F1B31C" d="M50.7,11c4.8,5.2,7.8,12.1,7.8,19.8c0,16-13,29-29,29c-5.4,0-10.4-1.5-14.7-4C20.1,61.4,27.7,65,36,65
		c16,0,29-13,29-29C65,25.3,59.3,16,50.7,11z"/>
	<path fill="none" stroke="#FFFFFF" stroke-width="2" stroke-linecap="round" stroke-linejoin="round" stroke-miterlimit="10" d="
		M43.7,63.9c0.3-4.4,1.9-6.6,5.4-10.1c3.3-3.3,5.5-7.4,5.5-12.2c0-9.5-8.3-17.2-18.6-17.2s-18.6,7.7-18.6,17.2
		c0,4.8,2.2,8.9,5.5,12.2c3.5,3.5,5.1,5.7,5.4,10.1"/>
</g>
<g id="hair">
</g>
<g id="skin">
</g>
<g id="skin-shadow">
</g>
<g id="line">
	
		<circle fill="none" stroke="#000000" stroke-width="2" stroke-linecap="round" stroke-linejoin="round" stroke-miterlimit="10" cx="36" cy="36" r="29"/>
</g>
</svg>
