<svg id="emoji" xmlns="http://www.w3.org/2000/svg" viewBox="0 0 72 72">
  <g id="grid">
    <path d="M68,4V68H4V4H68m4-4H0V72H72V0Z" fill="#b3b3b3"/>
    <path d="M12.923,10.9583H59.0769A1.9231,1.9231,0,0,1,61,12.8814V59.0352a1.9231,1.9231,0,0,1-1.9231,1.9231H12.9231A1.9231,1.9231,0,0,1,11,59.0352V12.8813A1.923,1.923,0,0,1,12.923,10.9583Z" fill="none" stroke="#00a5ff" stroke-miterlimit="10" stroke-width="0.1"/>
    <rect x="16" y="4" width="40" height="64" rx="2.2537" fill="none" stroke="#00a5ff" stroke-miterlimit="10" stroke-width="0.1"/>
    <rect x="16" y="4" width="40" height="64" rx="2.2537" transform="translate(72) rotate(90)" fill="none" stroke="#00a5ff" stroke-miterlimit="10" stroke-width="0.1"/>
    <circle cx="36" cy="36" r="29" fill="none" stroke="#00a5ff" stroke-miterlimit="10" stroke-width="0.1"/>
  </g>
  <g id="color">
    <g>
      <path d="M49.9661,4.9838v6s-.41,13,5,13v43h-38v-43c5.3228-.1787,4.9687-13.0312,4.9687-13.0312l.0313-5.9688h3.8363a10,10,0,0,0,20,0Z" fill="#92d3f5"/>
      <path d="M45.7971,5.0243a10,10,0,0,1-20,0s3.9632,5.0527,9.3243,5.19C40.6118,10.3552,45.7971,5.0243,45.7971,5.0243Z" fill="#61b2e4"/>
      <path d="M14.9583,52.0078V47.0331C30.7508,47.0331,45.7971,28.1679,45.7971,5H50C50,30.9117,33.4936,52.0078,14.9583,52.0078Z" fill="#fcea2b"/>
    </g>
  </g>
  <g id="line">
    <g>
      <g>
        <path d="M16.8914,46.4939V24.0162c5.3229-.1787,4.9687-13.0313,4.9687-13.0313l.0313-5.9687h3.8363a10,10,0,0,0,20,0h4.1637v6s-.41,13,5,13v43h-38v-14.75" fill="none" stroke="#000000" stroke-linecap="round" stroke-linejoin="round" stroke-width="2"/>
        <path d="M41.6674,8.3189A10.0055,10.0055,0,0,1,29.5179,8.203" fill="none" stroke="#000" stroke-linecap="round" stroke-linejoin="round" stroke-width="2"/>
      </g>
      <path d="M14.9583,52.0078V47.0331C30.7508,47.0331,45.7971,28.1679,45.7971,5H50C50,30.9117,33.4936,52.0078,14.9583,52.0078Z" fill="none" stroke="#000" stroke-linecap="round" stroke-linejoin="round" stroke-width="2"/>
    </g>
  </g>
</svg>
