<svg id="emoji" viewBox="0 0 72 72" version="1.1" xmlns="http://www.w3.org/2000/svg">
  <g id="grid">
    <path fill="#b3b3b3" d="M68,4V68H4V4H68m4-4H0V72H72V0Z"/>
    <path fill="none" stroke="#00a5ff" stroke-miterlimit="10" stroke-width="0.1" d="m12.92 10.96h46.15a1.923 1.923 0 0 1 1.923 1.923v46.15a1.923 1.923 0 0 1-1.923 1.923h-46.15a1.923 1.923 0 0 1-1.923-1.923v-46.15a1.923 1.923 0 0 1 1.923-1.923z"/>
    <rect x="16" y="4" rx="2.254" width="40" height="64" fill="none" stroke="#00a5ff" stroke-miterlimit="10" stroke-width="0.1"/>
    <rect x="16" y="4" rx="2.254" width="40" height="64" transform="translate(72) rotate(90)" fill="none" stroke="#00a5ff" stroke-miterlimit="10" stroke-width="0.1"/>
    <circle cx="36" cy="36" r="29" fill="none" stroke="#00a5ff" stroke-miterlimit="10" stroke-width="0.1"/>
  </g>
  <g id="color" fill="#61b2e4">
    <path d="m56.05 24.59-0.9331 5.604-1.645 0.5507-2.902 2.632-0.8393 2.173 0.3286 3.337 2.503 2.481 3.488 0.3572v5.566l-3.609 0.08888-4.543-1.695-2.608-2.406-1.772-2.929-1.986 2.473-3.915 3.035-5.724 1.779-4.1-0.5236-3.111-1.895-2.265-3.171-1.095-3.358-0.01355-3.473 0.7846-3.283 1.671-2.631 1.86-2.244 2.505-1.659 3-0.9247 3.91-0.03058 3.585 0.7507 3.181 1.759 1.533 1.889 0.6369 1.874-5.171 1.354-3.707-1.934-3.111 0.05021-2.546 1.366-1.363 2.133-0.3593 2.21 0.4966 2.934 1.548 2.061 2.712 0.8436 2.308-0.4547 1.964-1.204 1.226-1.51-6.532-0.2279 2.01-4.478 10.21-0.06463 0.4321-1.071 1.566-2.612 2.719-2.616 2.948-1.658z" display="none"/>
    <path d="m56.05 41.72 3.697-2.152 1.741-4.269-0.4452-2.58-2.078-1.989-3.849-0.5404 0.9331-5.604 4.993 0.9866 2.957 2.048 1.802 2.473 1.1 3.013-0.4866 4.66-1.99 4.203-3.383 3.418-4.993 1.899z" display="none"/>
    <path d="m54.84 41.86 1.206-0.1436 1.229-0.3977 0.2485 5.402-1.478 0.5619h-1.346z" display="none"/>
    <path d="m53.84 30.62 1.272-0.4259 0.9331 0.06993 1.459-5.386-1.459-0.2882-2.364 0.6242z" display="none"/>
    <path transform="matrix(.7732 .4464 -.4464 .7732 -15.64 .07618)" fill="#61b2e4" stroke="#000" stroke-linecap="round" stroke-linejoin="round" d="m62.17-4.526c-0.6682 0.4054-1.311 0.8759-1.932 1.402-3.037 2.58-4.809 5.923-5.32 9.879-0.4827 3.664 0.2445 7.102 2.486 10.1 1.893 2.528 4.394 3.997 7.533 4.389 3.384 0.4078 6.395-0.5808 9.066-2.635 3.24-2.501 5.009-5.846 5.515-9.877 0.1159-0.9189 0.2571-1.704 0.1985-2.606 1.515 1.448 3.369 2.376 5.494 2.783 3.089 0.5782 5.983-0.06734 8.704-1.559 0.7164-0.5317 1.495-1.021 2.207-1.629 2.422-2.146 4.098-4.767 4.905-7.87 1.143-4.36 0.4207-8.272-2.382-11.97-2.02-2.612-4.712-3.933-7.965-4.18-3.574-0.259-6.578 1.082-9.283 3.351-3.155 2.648-4.9 5.624-5.419 9.702-0.2278 1.758-0.1792 3.451 0.1837 5.063l-9.51 5.44c-0.4438 0.2539-0.481 0.6696-0.4673 0.8978 0.02983 1.006 0.2074 2.951 0.352 4.088 0.08309 0.6212 0.4534 0.9187 1.073 0.5608l5.697-3.289c-0.0566 0.5837-0.08823 1.076-0.1664 1.554-0.4592 2.273-1.733 3.952-3.894 4.845-2.52 1.022-5.268 0.01055-6.661-2.334-1.41-2.374-1.486-4.889-0.2283-7.347 1.052-2.064 2.701-3.369 5.09-3.528 0.7904-0.0627 1.302 0.07371 2.034 0.3199 0.6394 0.2213 0.6522 0.1752 1.027-0.1986 1.558-1.529 2.622-2.617 4.209-4.163 0.3031-0.2931 0.3347-0.5083 0.0042-0.6717-1.727-1.286-3.666-2.055-5.827-2.185-2.496-0.1824-4.72 0.4519-6.725 1.668zm23.91-6.222c2.355-1.464 5.385-1.1 7.327 1.189 0.2295 0.2611 0.4011 0.5564 0.6521 0.9231 1.318 2.624 1.139 5.247-0.494 7.803-1.104 1.7-2.677 2.726-4.71 2.955-2.671 0.2825-5.14-1.403-5.938-4.012-0.9526-3.15-0.1872-5.914 2.2-8.119 0.3037-0.2836 0.626-0.5298 0.9624-0.739z"/>
  </g>
  <g id="line" transform="matrix(.7732 .4464 -.4464 .7732 -15.64 .07618)" fill="none" stroke="#000" stroke-linecap="round" stroke-linejoin="round" stroke-miterlimit="10" stroke-width="2.24">
    <line x1="48.13" x2="54.6" y1="23.93" y2="20.25"/>
    <line x1="40.34" x2="50.05" y1="17.87" y2="12.37"/>
    <line x1="40.2" x2="52.33" y1="23.22" y2="16.32"/>
    <path fill="none" stroke="#000" stroke-linecap="round" stroke-linejoin="round" d="m62.17-4.526c-0.6682 0.4054-1.311 0.8759-1.932 1.402-3.037 2.58-4.809 5.923-5.32 9.879-0.4827 3.664 0.2445 7.102 2.486 10.1 1.893 2.528 4.394 3.997 7.533 4.389 3.384 0.4078 6.395-0.5808 9.066-2.635 3.24-2.501 5.009-5.846 5.515-9.877 0.1159-0.9189 0.2571-1.704 0.1985-2.606 1.515 1.448 3.369 2.376 5.494 2.783 3.089 0.5782 5.983-0.06734 8.704-1.559 0.7164-0.5317 1.495-1.021 2.207-1.629 2.422-2.146 4.098-4.767 4.905-7.87 1.143-4.36 0.4207-8.272-2.382-11.97-2.02-2.612-4.712-3.933-7.965-4.18-3.574-0.259-6.578 1.082-9.283 3.351-3.155 2.648-4.9 5.624-5.419 9.702-0.2278 1.758-0.1792 3.451 0.1837 5.063l-9.51 5.44c-0.4438 0.2539-0.481 0.6696-0.4673 0.8978 0.02983 1.006 0.2074 2.951 0.352 4.088 0.08309 0.6212 0.4534 0.9187 1.073 0.5608l5.697-3.289c-0.0566 0.5837-0.08823 1.076-0.1664 1.554-0.4592 2.273-1.733 3.952-3.894 4.845-2.52 1.022-5.268 0.01055-6.661-2.334-1.41-2.374-1.486-4.889-0.2283-7.347 1.052-2.064 2.701-3.369 5.09-3.528 0.7904-0.0627 1.302 0.07371 2.034 0.3199 0.6394 0.2213 0.6522 0.1752 1.027-0.1986 1.558-1.529 2.622-2.617 4.209-4.163 0.3031-0.2931 0.3347-0.5083 0.0042-0.6717-1.727-1.286-3.666-2.055-5.827-2.185-2.496-0.1824-4.72 0.4519-6.725 1.668zm23.91-6.222c2.355-1.464 5.385-1.1 7.327 1.189 0.2295 0.2611 0.4011 0.5564 0.6521 0.9231 1.318 2.624 1.139 5.247-0.494 7.803-1.104 1.7-2.677 2.726-4.71 2.955-2.671 0.2825-5.14-1.403-5.938-4.012-0.9526-3.15-0.1872-5.914 2.2-8.119 0.3037-0.2836 0.626-0.5298 0.9624-0.739z"/>
  </g>
</svg>
