<?xml version="1.0" encoding="UTF-8"?>
<svg id="emoji" xmlns="http://www.w3.org/2000/svg" viewBox="0 0 72 72">
  <g id="grid">
    <path d="m68,4v64H4V4h64Zm4-4H0v72h72V0Z" fill="#b3b3b3"/>
    <path d="m12.9,11h46.2c.2495-.0002.4967.0489.7273.1443.2306.0954.4401.2354.6166.4118.1764.1765.3164.386.4118.6166.0954.2306.1445.4777.1443.7273h0v46.1c.0002.2496-.0489.4967-.1443.7273-.0954.2306-.2354.4401-.4118.6166-.1765.1764-.386.3164-.6166.4118-.2306.0954-.4778.1445-.7273.1443H12.9c-.2519.0088-.5029-.0344-.7374-.1267-.2345-.0924-.4474-.232-.6257-.4103-.1782-.1782-.3178-.3911-.4102-.6256-.0924-.2345-.1355-.4855-.1267-.7374h0V12.9c-.0002-.2496.0488-.4967.1443-.7273.0954-.2306.2353-.4401.4118-.6166.1765-.1764.386-.3164.6166-.4118.2306-.0954.4777-.1445.7273-.1443h0Z" fill="none" stroke="#00a5ff" stroke-miterlimit="10" stroke-width=".1"/>
    <path d="m18.3,4h35.5c.2958.0055.5876.0695.8585.1883.271.1188.5158.29.7203.5038.2045.2138.3646.4659.4713.7419.1066.276.1575.5703.1499.8661v59.5c-.0068.6079-.2513,1.189-.6811,1.6188-.4299.4299-1.011.6744-1.6189.6812H18.3c-.6179-.0292-1.201-.2944-1.6289-.741-.428-.4466-.6682-1.0405-.6711-1.659V6.3c-.005-.3034.0511-.6047.1649-.8861s.283-.5369.4976-.7514.4701-.3838.7514-.4976c.2814-.1138.5827-.1699.8861-.1649h0Z" fill="none" stroke="#00a5ff" stroke-miterlimit="10" stroke-width=".1"/>
    <path d="m68,18.3v35.5c-.0068.6079-.2513,1.189-.6811,1.6188s-1.011.6744-1.6189.6812H6.3c-.6179-.0292-1.201-.2944-1.6289-.741-.428-.4466-.6682-1.0404-.6711-1.659V18.3c-.005-.3034.0511-.6047.1649-.8861.1138-.2813.283-.5368.4976-.7514s.4701-.3838.7514-.4976.5826-.1699.8861-.1649h59.5c.2958.0055.5876.0695.8585.1883.271.1187.5158.29.7203.5037.2045.2138.3646.466.4713.7419.1066.276.1575.5704.1499.8661Z" fill="none" stroke="#00a5ff" stroke-miterlimit="10" stroke-width=".1"/>
    <path d="m36,65c16.0163,0,29-12.9837,29-29S52.0163,7,36,7,7,19.9837,7,36s12.9837,29,29,29Z" fill="none" stroke="#00a5ff" stroke-miterlimit="10" stroke-width=".1"/>
  </g>
  <g id="color">
    <circle cx="36" cy="36" r="28" fill="#92d3f5"/>
    <path d="m15.5122,55.0858L55.0854,15.5126c.2429.2264.4828.458.7195.6947,10.9347,10.9347,10.9347,28.6633,0,39.598s-28.6633,10.9347-39.598,0c-.2367-.2367-.4683-.4766-.6947-.7195Z" fill="#61b2e4"/>
    <path d="m33.2,33.2l-9.2,14.8,14.8-9.2" fill="#fff"/>
    <path d="m33.2,33.2l14.8-9.2-9.2,14.8" fill="#ea5a47"/>
    <g>
      <path d="m36,14v-3" fill="none" stroke="#fff" stroke-linecap="round" stroke-linejoin="round" stroke-width="2"/>
      <path d="m36,61v-3" fill="none" stroke="#fff" stroke-linecap="round" stroke-linejoin="round" stroke-width="2"/>
      <path d="m58,36h3" fill="none" stroke="#fff" stroke-linecap="round" stroke-linejoin="round" stroke-width="2"/>
      <path d="m11,36h3" fill="none" stroke="#fff" stroke-linecap="round" stroke-linejoin="round" stroke-width="2"/>
      <path d="m51.5564,20.4436l2.1213-2.1213" fill="none" stroke="#fff" stroke-linecap="round" stroke-linejoin="round" stroke-width="2"/>
      <path d="m18.3223,53.6777l2.1214-2.1214" fill="none" stroke="#fff" stroke-linecap="round" stroke-linejoin="round" stroke-width="2"/>
      <path d="m51.5563,51.5563l2.1214,2.1214" fill="none" stroke="#fff" stroke-linecap="round" stroke-linejoin="round" stroke-width="2"/>
      <path d="m18.3223,18.3223l2.1213,2.1213" fill="none" stroke="#fff" stroke-linecap="round" stroke-linejoin="round" stroke-width="2"/>
      <path d="m47,16.9474l1.5-2.598" fill="none" stroke="#fff" stroke-linecap="round" stroke-linejoin="round" stroke-width="2"/>
      <path d="m23.5,57.6506l1.5-2.598" fill="none" stroke="#fff" stroke-linecap="round" stroke-linejoin="round" stroke-width="2"/>
      <path d="m55.0526,47l2.598,1.5" fill="none" stroke="#fff" stroke-linecap="round" stroke-linejoin="round" stroke-width="2"/>
      <path d="m14.3494,23.5l2.598,1.5" fill="none" stroke="#fff" stroke-linecap="round" stroke-linejoin="round" stroke-width="2"/>
      <path d="m57.2504,30.306l2.8978-.7765" fill="none" stroke="#fff" stroke-linecap="round" stroke-linejoin="round" stroke-width="2"/>
      <path d="m11.8519,42.4705l2.8977-.7765" fill="none" stroke="#fff" stroke-linecap="round" stroke-linejoin="round" stroke-width="2"/>
      <path d="m41.694,57.2504l.7765,2.8977" fill="none" stroke="#fff" stroke-linecap="round" stroke-linejoin="round" stroke-width="2"/>
      <path d="m29.5295,11.8519l.7765,2.8977" fill="none" stroke="#fff" stroke-linecap="round" stroke-linejoin="round" stroke-width="2"/>
      <path d="m55.0526,25l2.598-1.5" fill="none" stroke="#fff" stroke-linecap="round" stroke-linejoin="round" stroke-width="2"/>
      <path d="m14.3494,48.5l2.598-1.5" fill="none" stroke="#fff" stroke-linecap="round" stroke-linejoin="round" stroke-width="2"/>
      <path d="m47,55.0526l1.5,2.598" fill="none" stroke="#fff" stroke-linecap="round" stroke-linejoin="round" stroke-width="2"/>
      <path d="m23.5,14.3494l1.5,2.598" fill="none" stroke="#fff" stroke-linecap="round" stroke-linejoin="round" stroke-width="2"/>
      <path d="m57.2504,41.694l2.8978.7765" fill="none" stroke="#fff" stroke-linecap="round" stroke-linejoin="round" stroke-width="2"/>
      <path d="m11.8519,29.5295l2.8977.7765" fill="none" stroke="#fff" stroke-linecap="round" stroke-linejoin="round" stroke-width="2"/>
      <path d="m30.306,57.2504l-.7765,2.8977" fill="none" stroke="#fff" stroke-linecap="round" stroke-linejoin="round" stroke-width="2"/>
      <path d="m42.4705,11.8519l-.7765,2.8977" fill="none" stroke="#fff" stroke-linecap="round" stroke-linejoin="round" stroke-width="2"/>
    </g>
  </g>
  <g id="line">
    <path d="m36,64c15.464,0,28-12.536,28-28s-12.536-28-28-28-28,12.536-28,28,12.536,28,28,28Z" fill="none" stroke="#000" stroke-linecap="round" stroke-linejoin="round" stroke-width="2"/>
    <path d="m33.2,33.2l-9.2,14.8,14.8-9.2" fill="none" stroke="#000" stroke-linecap="round" stroke-linejoin="round" stroke-width="2"/>
    <path d="m33.2,33.2l14.8-9.2-9.2,14.8" fill="none" stroke="#000" stroke-linecap="round" stroke-linejoin="round" stroke-width="2"/>
  </g>
</svg>