<svg id="emoji" viewBox="0 0 72 72" xmlns="http://www.w3.org/2000/svg">
  <g id="grid">
    <path fill="#B3B3B3" d="M68 4V68H4V4H68ZM72 0H0V72H72V0Z"/>
    <path fill="none" stroke="#00A5FF" stroke-miterlimit="10" stroke-width="0.1" d="M12.923 10.9583H59.0769C59.5869 10.9583 60.0761 11.1609 60.4367 11.5216C60.7974 11.8822 61 12.3714 61 12.8814V59.0352C61 59.5452 60.7974 60.0344 60.4367 60.395C60.0761 60.7557 59.5869 60.9583 59.0769 60.9583H12.9231C12.4131 60.9583 11.9239 60.7557 11.5633 60.395C11.2026 60.0344 11 59.5452 11 59.0352V12.8813C11 12.3713 11.2026 11.8822 11.5632 11.5215C11.9239 11.1609 12.413 10.9583 12.923 10.9583V10.9583Z"/>
    <path fill="none" stroke="#00A5FF" stroke-miterlimit="10" stroke-width="0.1" d="M53.7463 4H18.2537C17.009 4 16 5.00902 16 6.2537V65.7463C16 66.991 17.009 68 18.2537 68H53.7463C54.991 68 56 66.991 56 65.7463V6.2537C56 5.00902 54.991 4 53.7463 4Z"/>
    <path fill="none" stroke="#00A5FF" stroke-miterlimit="10" stroke-width="0.1" d="M68 53.7463V18.2537C68 17.009 66.991 16 65.7463 16L6.2537 16C5.00902 16 4 17.009 4 18.2537V53.7463C4 54.991 5.00902 56 6.2537 56L65.7463 56C66.991 56 68 54.991 68 53.7463Z"/>
    <path fill="none" stroke="#00A5FF" stroke-miterlimit="10" stroke-width="0.1" d="M36 65C52.0163 65 65 52.0163 65 36C65 19.9837 52.0163 7 36 7C19.9837 7 7 19.9837 7 36C7 52.0163 19.9837 65 36 65Z"/>
  </g>
  <g id="color">
    <circle cx="36" cy="36" r="28" fill="#B1CC33"/>
    <path fill="#FCEA2B" fill-rule="evenodd" d="M34.3116 27.1581L34.3196 27.2048C36.3227 26.8575 38.4542 27.1834 40.3524 28.2793C44.6571 30.7646 46.1319 36.2689 43.6467 40.5735L30.3856 63.5424C41.8282 65.8209 53.9433 60.7391 60.1011 50.0735C64.3105 42.7826 64.8683 34.3855 62.3419 27H36C35.4229 27 34.8585 27.0543 34.3116 27.1581Z" clip-rule="evenodd"/>
    <path fill="#EA5A47" fill-rule="evenodd" d="M27 43.5L8.20227 32.6171C9.87243 18.7484 21.681 8 36 8C48.3156 8 58.7741 15.9511 62.5222 27H36C31.0294 27 27 31.0294 27 36C27 38.1919 27.7836 40.2008 29.0858 41.7618L27 43.5Z" clip-rule="evenodd"/>
    <circle cx="36" cy="36" r="9" fill="#61B2E4"/>
  </g>
  <g id="line">
    <circle cx="36" cy="36" r="28" fill="none" stroke="#000" stroke-width="2"/>
    <path fill="none" stroke="#000" stroke-linecap="round" stroke-width="2" d="M36 26H59"/>
    <path fill="none" stroke="#000" stroke-linecap="round" stroke-width="2" d="M44.6602 41L33.1602 60.9186"/>
    <path fill="none" stroke="#000" stroke-linecap="round" stroke-width="2" d="M11.0814 33.1603L31 44.6603"/>
    <circle cx="36" cy="36" r="10" fill="none" stroke="#000" stroke-width="2"/>
  </g>
</svg>
