<?xml version="1.0" encoding="UTF-8"?>
<svg id="emoji" xmlns="http://www.w3.org/2000/svg" viewBox="0 0 72 72">
  <g id="grid">
    <path d="m68,4v64H4V4h64Zm4-4H0v72h72V0Z" fill="#b3b3b3"/>
    <path d="m12.92,10.96h46.15c.51,0,.9991.2026,1.3598.5632.3606.3607.5632.8498.5632,1.3598v46.15c0,.2525-.0497.5026-.1464.7359-.0966.2333-.2383.4453-.4168.6239-.1786.1785-.3906.3202-.6239.4168-.2333.0967-.4834.1464-.7359.1464H12.92c-.2525,0-.5026-.0497-.7359-.1464-.2333-.0966-.4453-.2383-.6239-.4168-.1785-.1786-.3202-.3906-.4168-.6239-.0967-.2333-.1464-.4834-.1464-.7359V12.883c0-.51.2026-.9991.5632-1.3598.3607-.3606.8498-.5632,1.3598-.5632h0Z" fill="none" stroke="#00a5ff" stroke-miterlimit="10" stroke-width=".1"/>
    <path d="m53.746,4H18.254c-1.2449,0-2.254,1.0092-2.254,2.254v59.492c0,1.2449,1.0091,2.254,2.254,2.254h35.492c1.2448,0,2.254-1.0091,2.254-2.254V6.254c0-1.2449-1.0092-2.254-2.254-2.254Z" fill="none" stroke="#00a5ff" stroke-miterlimit="10" stroke-width=".1"/>
    <path d="m68,53.746V18.254c0-1.2449-1.0092-2.254-2.254-2.254H6.254c-1.2449,0-2.254,1.0091-2.254,2.254v35.492c0,1.2448,1.0092,2.254,2.254,2.254h59.492c1.2448,0,2.254-1.0092,2.254-2.254Z" fill="none" stroke="#00a5ff" stroke-miterlimit="10" stroke-width=".1"/>
    <path d="m36,65c16.0163,0,29-12.9837,29-29S52.0163,7,36,7,7,19.9837,7,36s12.9837,29,29,29Z" fill="none" stroke="#00a5ff" stroke-miterlimit="10" stroke-width=".1"/>
  </g>
  <g id="color">
    <path d="m58,11H14c-1.6569,0-3,1.3431-3,3v44c0,1.6569,1.3431,3,3,3h44c1.6569,0,3-1.3431,3-3V14c0-1.6569-1.3431-3-3-3Z" fill="#61b2e4"/>
    <path d="m61,46.2467c-7.6472-3.3735-16.1048-5.2467-25-5.2467s-17.3528,1.8732-25,5.2467v11.7533c0,1.6569,1.3431,3,3,3h44c1.6569,0,3-1.3431,3-3v-11.7533Z" fill="#3f3f3f" fill-rule="evenodd"/>
    <g>
      <path d="m44,19h-1v3h1c1.1046,0,2,.8954,2,2v15l-17-19h-8v3h2c1.1046,0,2,.8954,2,2v17c0,1.1046-.8954,2-2,2h-1v3h9v-3h-1c-1.1046,0-2-.8954-2-2v-17l13.9564,16.2824c2.39.2278,4.7405.5913,7.0436,1.0827v-18.3651c0-1.1046.8954-2,2-2h1v-3h-8Z" fill="#fff" fill-rule="evenodd"/>
      <path d="m43,19v-1c-.5523,0-1,.4477-1,1h1Zm0,3h-1c0,.5523.4477,1,1,1v-1Zm3,17l-.7452.6668c.2764.309.7148.4153,1.1021.2673.3873-.1479.6431-.5195.6431-.9341h-1Zm-17-19l.7452-.6668c-.1897-.212-.4607-.3332-.7452-.3332v1Zm-8,0v-1c-.5523,0-1,.4477-1,1h1Zm0,3h-1c0,.5523.4477,1,1,1v-1Zm4,2h-1,1Zm0,17h1-1Zm-3,2v-1c-.5523,0-1,.4477-1,1h1Zm0,3h-1c0,.2652.1054.5196.2929.7071s.4419.2929.7071.2929v-1Zm9,0v1c.5523,0,1-.4477,1-1h-1Zm0-3h1c0-.5523-.4477-1-1-1v1Zm-3-2h1-1Zm0-17l.7593-.6508c-.2724-.3177-.7138-.4323-1.1062-.2871-.3925.1452-.6531.5194-.6531.9379h1Zm13.9564,16.2824l-.7593.6508c.1685.1966.4066.3201.6644.3447l.0949-.9955Zm7.0436,1.0827l-.2087.978c.2952.063.6031-.0107.8377-.2006.2347-.1898.371-.4755.371-.7774h-1Zm3-20.3651v1c.5523,0,1-.4477,1-1h-1Zm0-3h1c0-.5523-.4477-1-1-1v1Zm-9,1h1v-2h-1v2Zm1,2v-3h-2v3h2Zm0-1h-1v2h1v-2Zm3,3c0-1.6569-1.3431-3-3-3v2c.5523,0,1,.4477,1,1h2Zm0,15v-15h-2v15h2Zm-18.7452-18.3332l17,19,1.4904-1.3336-17-19-1.4904,1.3336Zm-.2548.3332h1v-2h-1v2Zm-5,0h5v-2h-5v2Zm-2,0h2v-2h-2v2Zm1,2v-3h-2v3h2Zm1-1h-2v2h2v-2Zm3,3c0-1.6569-1.3431-3-3-3v2c.5523,0,1,.4477,1,1h2Zm0,17v-17h-2v17h2Zm-3,3c1.6569,0,3-1.3431,3-3h-2c0,.5523-.4477,1-1,1v2Zm-1,0h1v-2h-1v2Zm1,2v-3h-2v3h2Zm0-1h-1v2h1v-2Zm7,0h-7v2h7v-2Zm1,0h-1v2h1v-2Zm-1-2v3h2v-3h-2Zm0,1h1v-2h-1v2Zm-3-3c0,1.6569,1.3431,3,3,3v-2c-.5523,0-1-.4477-1-1h-2Zm0-17v17h2v-17h-2Zm15.7156,15.6316l-13.9563-16.2824-1.5186,1.3016,13.9564,16.2824,1.5185-1.3016Zm6.4931.7555c-2.3405-.4993-4.729-.8687-7.1574-1.1002l-.1898,1.991c2.3516.2242,4.6641.5818,6.9298,1.0652l.4174-1.956Zm-1.2087.6129v.3651h2v-.3651h-2Zm0-18v18h2v-18h-2Zm3-3c-1.6569,0-3,1.3431-3,3h2c0-.5523.4477-1,1-1v-2Zm1,0h-1v2h1v-2Zm-1-2v3h2v-3h-2Zm0,1h1v-2h-1v2Zm-7,0h7v-2h-7v2Z" fill="#fff"/>
    </g>
  </g>
  <g id="line">
    <path d="m58,11H14c-1.6569,0-3,1.3431-3,3v44c0,1.6569,1.3431,3,3,3h44c1.6569,0,3-1.3431,3-3V14c0-1.6569-1.3431-3-3-3Z" fill="none" stroke="#000" stroke-miterlimit="10" stroke-width="2"/>
    <path d="m40,39c-3.8669-4.5114-7.2192-8.4224-12-14v17c0,1.1046.8954,2,2,2h1v3h-9v-3h1c1.1046,0,2-.8954,2-2v-17c0-1.1046-.8954-2-2-2h-2v-3h8l17,19v-15c0-1.1046-.8954-2-2-2h-1v-3h9v3h-1c-1.1046,0-2,.8954-2,2v16" fill="none" stroke="#000" stroke-linecap="round" stroke-linejoin="round" stroke-width="2"/>
    <path d="m61,46.2467c-7.6472-3.3735-16.1048-5.2467-25-5.2467-1.6832,0-3.3507.0671-5,.1987m-20,5.048c2.8909-1.2753,5.8976-2.3362,9-3.1625" fill="none" stroke="#000" stroke-linecap="round" stroke-width="2"/>
  </g>
</svg>