<svg id="emoji" xmlns="http://www.w3.org/2000/svg" viewBox="0 0 72 72">
  <g id="grid">
    <path d="M68,4V68H4V4H68m4-4H0V72H72V0Z" fill="#b3b3b3"/>
    <rect x="10.9998" y="10.9581" width="50" height="50" rx="1.9231" fill="none" stroke="#00a5ff" stroke-miterlimit="10" stroke-width="0.1"/>
    <rect x="15.9998" y="3.9998" width="40" height="64" rx="2.2537" fill="none" stroke="#00a5ff" stroke-miterlimit="10" stroke-width="0.1"/>
    <rect x="15.9998" y="3.9998" width="40" height="64" rx="2.2537" transform="translate(71.9996 0) rotate(90)" fill="none" stroke="#00a5ff" stroke-miterlimit="10" stroke-width="0.1"/>
    <circle cx="35.9998" cy="35.9998" r="29" fill="none" stroke="#00a5ff" stroke-miterlimit="10" stroke-width="0.1"/>
  </g>
  <g id="color">
    <polygon points="12.231 33.089 8.011 44.143 35.645 64.14 12.231 33.089" fill="#f1b31c"/>
    <polygon points="36.047 64.441 63.982 43.741 60.264 33.793 36.047 64.441" fill="#f1b31c"/>
    <polygon points="25.496 32.888 19.265 13.092 11.729 33.089 25.496 32.888" fill="#ea5a47"/>
    <polygon points="46.296 33.29 60.465 33.29 53.029 13.193 46.296 33.29" fill="#ea5a47"/>
    <polygon points="25.998 33.089 35.946 63.637 46.799 33.391 25.998 33.089" fill="#ea5a47"/>
    <polygon points="12.131 32.888 25.998 33.089 35.946 63.738 12.131 32.888" fill="#e27022"/>
    <polygon points="46.598 33.089 36.851 62.934 59.963 33.391 46.598 33.089" fill="#e27022"/>
  </g>
  <g id="line">
    <path d="M8.28,43.3818,18.011,13.8687a1.1007,1.1007,0,0,1,2.0964.018l5.9675,19.2065,20.2165-.0016,5.7173-19.2323a1.1006,1.1006,0,0,1,2.0947-.0216l9.6344,28.8251a1.2305,1.2305,0,0,1-.4247,1.3714l-27.2549,20.62L8.7247,44.7621A1.2307,1.2307,0,0,1,8.28,43.3818Z" fill="none" stroke="#000" stroke-linecap="round" stroke-linejoin="round" stroke-width="2"/>
    <line x1="11.6729" y1="33.0916" x2="26.6254" y2="33.0916" fill="none" stroke="#000" stroke-linecap="round" stroke-miterlimit="10" stroke-width="2"/>
    <line x1="45.5862" y1="33.0916" x2="60.5387" y2="33.0916" fill="none" stroke="#000" stroke-linecap="round" stroke-miterlimit="10" stroke-width="2"/>
    <polyline points="60.337 33.079 36.245 64.617 11.79 33.079" fill="none" stroke="#000" stroke-linecap="round" stroke-linejoin="round" stroke-width="2"/>
    <path d="M46.7818,33.5822c-.2592.9938-10.5371,31.0347-10.5371,31.0347.0794-.3042-9.9348-30.7256-9.9348-30.7256" fill="none" stroke="#000" stroke-linecap="round" stroke-linejoin="round" stroke-width="2"/>
  </g>
</svg>
