<svg id="emoji" viewBox="0 0 72 72" xmlns="http://www.w3.org/2000/svg">
  <g id="grid">
    <path fill="#b3b3b3" d="M68,4V68H4V4H68m4-4H0V72H72V0Z"/>
    <rect x="11.0001" y="10.9581" rx="1.9231" width="50" height="50" fill="none" stroke="#00a5ff" stroke-miterlimit="10" stroke-width="0.1"/>
    <rect x="16.0001" y="3.9998" rx="2.2537" width="40" height="64" fill="none" stroke="#00a5ff" stroke-miterlimit="10" stroke-width="0.1"/>
    <rect x="16.0001" y="3.9998" rx="2.2537" width="40" height="64" transform="translate(71.9999 -0.0003) rotate(90)" fill="none" stroke="#00a5ff" stroke-miterlimit="10" stroke-width="0.1"/>
    <circle cx="36.0001" cy="35.9998" r="29" fill="none" stroke="#00a5ff" stroke-miterlimit="10" stroke-width="0.1"/>
  </g>
  <g id="color">
    <polygon fill="#3f3f3f" points="16.757 11.706 35.867 23.499 17.273 34.948 16.757 11.706"/>
    <polygon fill="#e27022" points="36.556 47.688 55.838 35.55 36.642 24.015 36.556 47.688"/>
    <polygon fill="#9b9b9a" points="17.101 35.895 36.297 48.204 17.015 60.256 17.101 35.895"/>
  </g>
  <g id="line">
    <polygon fill="none" stroke="#000" stroke-linecap="round" stroke-linejoin="round" stroke-width="2" points="36.263 23.347 16.783 10.958 16.783 35.736 36.263 23.347"/>
    <polygon fill="none" stroke="#000" stroke-linecap="round" stroke-linejoin="round" stroke-width="2" points="55.743 35.736 36.263 23.347 36.263 48.125 55.743 35.736"/>
    <polygon fill="none" stroke="#000" stroke-linecap="round" stroke-linejoin="round" stroke-width="2" points="36.263 48.125 16.783 35.736 16.783 60.514 36.263 48.125"/>
  </g>
</svg>
