<svg id="emoji" viewBox="0 0 72 72" xmlns="http://www.w3.org/2000/svg">
  <g id="grid">
    <path fill="#b3b3b3" d="M68,4V68H4V4H68m4-4H0V72H72V0Z"/>
    <path fill="none" stroke="#00a5ff" stroke-miterlimit="10" stroke-width="0.1" d="M12.9228,10.9581h46.154A1.923,1.923,0,0,1,61,12.8811V59.035a1.9231,1.9231,0,0,1-1.9231,1.9231H12.9229A1.9231,1.9231,0,0,1,11,59.035V12.8811a1.923,1.923,0,0,1,1.923-1.923Z"/>
    <rect x="15.9998" y="3.9998" rx="2.2537" width="40" height="64" fill="none" stroke="#00a5ff" stroke-miterlimit="10" stroke-width="0.1"/>
    <rect x="15.9998" y="3.9998" rx="2.2537" width="40" height="64" transform="translate(71.9996 0) rotate(90)" fill="none" stroke="#00a5ff" stroke-miterlimit="10" stroke-width="0.1"/>
    <circle cx="35.9998" cy="35.9998" r="29" fill="none" stroke="#00a5ff" stroke-miterlimit="10" stroke-width="0.1"/>
  </g>
  <g id="line"/>
  <g id="line-supplement">
    <path d="M35.9229,15.9417A20.0469,20.0469,0,0,0,18.8318,46.5146l-1.9236,8.5325,8.4409-1.9844a20.0688,20.0688,0,1,0,10.5738-37.121Z"/>
    <path fill="none" stroke="#000" stroke-dasharray="6.1156 4.5867" stroke-linecap="round" stroke-linejoin="round" stroke-width="2" d="M60.0376,36.1049a24.006,24.006,0,0,0-27.67-23.8674c-16.6142,2.367-25.717,21.8659-16.9262,36.0411l-2.296,10.183a.4561.4561,0,0,0,.5493.5444l10.1421-2.3844c15.5078,9.44,36.24-2.149,36.2007-20.5167Z"/>
  </g>
  <g id="color">
    <path fill="#61b2e4" d="M35.9229,15.9417A20.0469,20.0469,0,0,0,18.8318,46.5146l-1.9236,8.5325,8.4409-1.9844a20.0688,20.0688,0,1,0,10.5738-37.121Z"/>
    <path fill="none" stroke="#61b2e4" stroke-dasharray="6.1156 4.5867" stroke-linecap="round" stroke-linejoin="round" stroke-width="2" d="M60.0376,36.1049a24.006,24.006,0,0,0-27.67-23.8674c-16.6142,2.367-25.717,21.8659-16.9262,36.0411l-2.296,10.183a.4561.4561,0,0,0,.5493.5444l10.1421-2.3844c15.5078,9.44,36.24-2.149,36.2007-20.5167Z"/>
  </g>
</svg>
