<svg id="emoji" viewBox="0 0 72 72" version="1.1" xmlns="http://www.w3.org/2000/svg">
  <g id="grid">
    <path fill="#B3B3B3" d="M68 4V68H4V4H68ZM72 0H0V72H72V0Z"/>
    <path fill="none" stroke="#00A5FF" stroke-miterlimit="10" stroke-width="0.1" d="m12.92 10.96h46.15c0.51 0 0.9992 0.2026 1.36 0.5633 0.3607 0.3606 0.5633 0.8498 0.5633 1.36v46.15c0 0.51-0.2026 0.9992-0.5633 1.36-0.3606 0.3607-0.8498 0.5633-1.36 0.5633h-46.15c-0.51 0-0.9992-0.2026-1.36-0.5633-0.3607-0.3606-0.5633-0.8498-0.5633-1.36v-46.15c0-0.51 0.2026-0.9991 0.5632-1.36 0.3607-0.3606 0.8498-0.5632 1.36-0.5632z"/>
    <path fill="none" stroke="#00A5FF" stroke-miterlimit="10" stroke-width="0.1" d="m53.75 4h-35.49c-1.245 0-2.254 1.009-2.254 2.254v59.49c0 1.245 1.009 2.254 2.254 2.254h35.49c1.245 0 2.254-1.009 2.254-2.254v-59.49c0-1.245-1.009-2.254-2.254-2.254z"/>
    <path fill="none" stroke="#00A5FF" stroke-miterlimit="10" stroke-width="0.1" d="m68 53.75v-35.49c0-1.245-1.009-2.254-2.254-2.254h-59.49c-1.245 0-2.254 1.009-2.254 2.254v35.49c0 1.245 1.009 2.254 2.254 2.254h59.49c1.245 0 2.254-1.009 2.254-2.254z"/>
    <path fill="none" stroke="#00A5FF" stroke-miterlimit="10" stroke-width="0.1" d="m36 65c16.02 0 29-12.98 29-29s-12.98-29-29-29-29 12.98-29 29 12.98 29 29 29z"/>
  </g>
  <g id="color">
    <circle cx="36" cy="36" r="28" fill="#fcea2b"/>
    <path fill="#fcea2b" fill-rule="evenodd" d="m34.31 27.16 8e-3 0.0467c2.003-0.3473 4.135-0.0214 6.033 1.074 4.305 2.485 5.78 7.99 3.294 12.29l-13.26 22.97c11.44 2.278 23.56-2.803 29.72-13.47 4.209-7.291 4.767-15.69 2.241-23.07h-26.34c-0.5771 0-1.142 0.0543-1.688 0.1581z" clip-rule="evenodd"/>
    <path fill="#f1b31c" fill-rule="evenodd" d="m27 43.5-18.8-10.88c1.67-13.87 13.48-24.62 27.8-24.62 12.32 0 22.77 7.951 26.52 19h-26.52c-4.971 0-9 4.029-9 9 0 2.192 0.7836 4.201 2.086 5.762l-2.086 1.738z" clip-rule="evenodd"/>
    <circle cx="36" cy="36" r="9" fill="#f1b31c"/>
  </g>
  <g id="line" fill="none" stroke="#000" stroke-width="2">
    <circle cx="36" cy="36" r="10"/>
    <path stroke-linecap="round" d="m44.66 41-11.5 19.92"/>
    <path stroke-linecap="round" d="m11.08 33.16 19.92 11.5"/>
    <path stroke-linecap="round" d="m36 26h23"/>
    <circle cx="36" cy="36" r="28"/>
  </g>
</svg>
