<svg viewBox="0 0 72 72" xmlns="http://www.w3.org/2000/svg">
  <g id="grid">
    <path fill="#B3B3B3" d="M68 4V68H4V4H68ZM72 0H0V72H72V0Z"/>
    <path fill="none" stroke="#00A5FF" stroke-miterlimit="10" stroke-width="0.1" d="M12.923 10.9583H59.0769C59.5869 10.9583 60.0761 11.1609 60.4367 11.5216C60.7974 11.8822 61 12.3714 61 12.8814V59.0352C61 59.5452 60.7974 60.0344 60.4367 60.395C60.0761 60.7557 59.5869 60.9583 59.0769 60.9583H12.9231C12.4131 60.9583 11.9239 60.7557 11.5633 60.395C11.2026 60.0344 11 59.5452 11 59.0352V12.8813C11 12.3713 11.2026 11.8822 11.5632 11.5215C11.9239 11.1609 12.413 10.9583 12.923 10.9583V10.9583Z"/>
    <path fill="none" stroke="#00A5FF" stroke-miterlimit="10" stroke-width="0.1" d="M53.7463 4H18.2537C17.009 4 16 5.00902 16 6.2537V65.7463C16 66.991 17.009 68 18.2537 68H53.7463C54.991 68 56 66.991 56 65.7463V6.2537C56 5.00902 54.991 4 53.7463 4Z"/>
    <path fill="none" stroke="#00A5FF" stroke-miterlimit="10" stroke-width="0.1" d="M68 53.7463V18.2537C68 17.009 66.991 16 65.7463 16L6.2537 16C5.00902 16 4 17.009 4 18.2537V53.7463C4 54.991 5.00902 56 6.2537 56L65.7463 56C66.991 56 68 54.991 68 53.7463Z"/>
    <path fill="none" stroke="#00A5FF" stroke-miterlimit="10" stroke-width="0.1" d="M36 65C52.0163 65 65 52.0163 65 36C65 19.9837 52.0163 7 36 7C19.9837 7 7 19.9837 7 36C7 52.0163 19.9837 65 36 65Z"/>
  </g>
  <g>
    <path fill="#B1CC33" fill-rule="evenodd" d="M20.653 27.0593C11.3028 32.3972 5 42.4626 5 54C5 54.3346 5.0053 54.668 5.01582 55H66.9842C66.9947 54.668 67 54.3346 67 54C67 42.4626 60.6972 32.3972 51.347 27.0593L56.2 18.6536C56.7523 17.697 56.4245 16.4738 55.4679 15.9215C54.5114 15.3693 53.2882 15.697 52.7359 16.6536L47.7431 25.3014C44.1212 23.8179 40.1561 23 36 23C31.8439 23 27.8788 23.8179 24.257 25.3014L19.2641 16.6536C18.7118 15.697 17.4886 15.3692 16.5321 15.9215C15.5755 16.4738 15.2477 17.697 15.8 18.6536L20.653 27.0593Z" clip-rule="evenodd"/>
    <path fill="#000" d="M20.653 27.0593L21.1488 27.9277C21.3799 27.7958 21.5489 27.5773 21.6183 27.3205C21.6878 27.0636 21.6521 26.7897 21.5191 26.5593L20.653 27.0593ZM5.01582 55L4.01633 55.0317C4.03343 55.5714 4.47587 56 5.01582 56V55ZM66.9842 55V56C67.5241 56 67.9666 55.5714 67.9837 55.0317L66.9842 55ZM51.347 27.0593L50.4809 26.5593C50.3479 26.7897 50.3122 27.0636 50.3817 27.3205C50.4512 27.5773 50.6201 27.7958 50.8512 27.9277L51.347 27.0593ZM56.2 18.6536L57.066 19.1536V19.1536L56.2 18.6536ZM55.4679 15.9215L55.9679 15.0555L55.4679 15.9215ZM52.7359 16.6536L51.8699 16.1536V16.1536L52.7359 16.6536ZM47.7431 25.3014L47.364 26.2268C47.827 26.4165 48.3589 26.2348 48.6091 25.8014L47.7431 25.3014ZM24.257 25.3014L23.3909 25.8014C23.6411 26.2347 24.173 26.4165 24.636 26.2268L24.257 25.3014ZM19.2641 16.6536L18.3981 17.1536L18.3981 17.1536L19.2641 16.6536ZM16.5321 15.9215L16.0321 15.0555V15.0555L16.5321 15.9215ZM15.8 18.6536L14.934 19.1536L14.934 19.1536L15.8 18.6536ZM6 54C6 42.836 12.0976 33.095 21.1488 27.9277L20.1573 26.1908C10.508 31.6995 4 42.0891 4 54H6ZM6.01532 54.9683C6.00513 54.6468 6 54.324 6 54H4C4 54.3452 4.00547 54.6891 4.01633 55.0317L6.01532 54.9683ZM66.9842 54H5.01582V56H66.9842V54ZM66 54C66 54.324 65.9949 54.6468 65.9847 54.9683L67.9837 55.0317C67.9945 54.6891 68 54.3452 68 54H66ZM50.8512 27.9277C59.9024 33.095 66 42.836 66 54H68C68 42.0891 61.492 31.6995 51.8427 26.1909L50.8512 27.9277ZM55.334 18.1536L50.4809 26.5593L52.213 27.5593L57.066 19.1536L55.334 18.1536ZM54.9679 16.7876C55.4462 17.0637 55.6101 17.6753 55.334 18.1536L57.066 19.1536C57.8945 17.7187 57.4028 15.8839 55.9679 15.0555L54.9679 16.7876ZM53.6019 17.1536C53.8781 16.6753 54.4897 16.5114 54.9679 16.7876L55.9679 15.0555C54.5331 14.2271 52.6983 14.7187 51.8699 16.1536L53.6019 17.1536ZM48.6091 25.8014L53.6019 17.1536L51.8699 16.1536L46.877 24.8014L48.6091 25.8014ZM36 24C40.0239 24 43.8603 24.7917 47.364 26.2268L48.1221 24.3761C44.382 22.8441 40.2883 22 36 22V24ZM24.636 26.2268C28.1397 24.7917 31.9761 24 36 24V22C31.7117 22 27.618 22.8441 23.8779 24.3761L24.636 26.2268ZM25.123 24.8014L20.1301 16.1536L18.3981 17.1536L23.3909 25.8014L25.123 24.8014ZM20.1301 16.1536C19.3017 14.7187 17.4669 14.2271 16.0321 15.0555L17.0321 16.7876C17.5103 16.5114 18.1219 16.6753 18.3981 17.1536L20.1301 16.1536ZM16.0321 15.0555C14.5972 15.8839 14.1055 17.7187 14.934 19.1536L16.666 18.1536C16.3899 17.6753 16.5538 17.0637 17.0321 16.7876L16.0321 15.0555ZM14.934 19.1536L19.787 27.5593L21.5191 26.5593L16.666 18.1536L14.934 19.1536Z"/>
  </g>
  <circle cx="22.5" cy="42.5" r="2.5" fill="#000"/>
  <circle cx="49.5" cy="42.5" r="2.5" fill="#000"/>
</svg>
