<svg viewBox="0 0 72 72" xmlns="http://www.w3.org/2000/svg">
  <g id="grid">
    <path fill="#B3B3B3" d="M68 4V68H4V4H68ZM72 0H0V72H72V0Z"/>
    <path fill="none" stroke="#00A5FF" stroke-miterlimit="10" stroke-width="0.1" d="M12.923 10.9583H59.0769C59.5869 10.9583 60.0761 11.1609 60.4367 11.5216C60.7974 11.8822 61 12.3714 61 12.8814V59.0352C61 59.5452 60.7974 60.0344 60.4367 60.395C60.0761 60.7557 59.5869 60.9583 59.0769 60.9583H12.9231C12.4131 60.9583 11.9239 60.7557 11.5633 60.395C11.2026 60.0344 11 59.5452 11 59.0352V12.8813C11 12.3713 11.2026 11.8822 11.5632 11.5215C11.9239 11.1609 12.413 10.9583 12.923 10.9583V10.9583Z"/>
    <path fill="none" stroke="#00A5FF" stroke-miterlimit="10" stroke-width="0.1" d="M53.7463 4H18.2537C17.009 4 16 5.00902 16 6.2537V65.7463C16 66.991 17.009 68 18.2537 68H53.7463C54.991 68 56 66.991 56 65.7463V6.2537C56 5.00902 54.991 4 53.7463 4Z"/>
    <path fill="none" stroke="#00A5FF" stroke-miterlimit="10" stroke-width="0.1" d="M68 53.7463V18.2537C68 17.009 66.991 16 65.7463 16L6.2537 16C5.00902 16 4 17.009 4 18.2537V53.7463C4 54.991 5.00902 56 6.2537 56L65.7463 56C66.991 56 68 54.991 68 53.7463Z"/>
    <path fill="none" stroke="#00A5FF" stroke-miterlimit="10" stroke-width="0.1" d="M36 65C52.0163 65 65 52.0163 65 36C65 19.9837 52.0163 7 36 7C19.9837 7 7 19.9837 7 36C7 52.0163 19.9837 65 36 65Z"/>
  </g>
  <g>
    <mask id="path-7-outside-1" x="14" y="11" width="47" height="50" fill="#000" maskUnits="userSpaceOnUse">
      <rect x="14" y="11" width="47" height="50" fill="#fff"/>
      <path fill="none" fill-rule="evenodd" d="M33 17.2326L16 20V33H33V17.2326ZM16 39V52L33 54.7674V39H16ZM39 55.7442L59 59V39H39V55.7442ZM59 33H39V16.2558L59 13V33Z" clip-rule="evenodd"/>
    </mask>
    <path fill="#64B3E2" fill-rule="evenodd" d="M33 17.2326L16 20V33H33V17.2326ZM16 39V52L33 54.7674V39H16ZM39 55.7442L59 59V39H39V55.7442ZM59 33H39V16.2558L59 13V33Z" clip-rule="evenodd"/>
    <path fill="#000" d="M33 17.2326H35C35 16.646 34.7425 16.089 34.2956 15.709C33.8488 15.329 33.2576 15.1643 32.6786 15.2585L33 17.2326ZM16 20L15.6786 18.026C14.7109 18.1835 14 19.0195 14 20H16ZM16 33H14C14 34.1046 14.8954 35 16 35V33ZM33 33V35C34.1046 35 35 34.1046 35 33H33ZM16 39V37C14.8954 37 14 37.8954 14 39H16ZM16 52H14C14 52.9805 14.7109 53.8165 15.6786 53.974L16 52ZM33 54.7674L32.6786 56.7415C33.2576 56.8357 33.8488 56.671 34.2956 56.291C34.7425 55.911 35 55.354 35 54.7674H33ZM33 39H35C35 37.8954 34.1046 37 33 37V39ZM39 55.7442H37C37 56.7247 37.7109 57.5607 38.6786 57.7182L39 55.7442ZM59 59L58.6786 60.974C59.2576 61.0683 59.8488 60.9036 60.2956 60.5236C60.7425 60.1436 61 59.5866 61 59H59ZM59 39H61C61 37.8954 60.1046 37 59 37V39ZM39 39V37C37.8954 37 37 37.8954 37 39H39ZM59 33V35C60.1046 35 61 34.1046 61 33H59ZM39 33H37C37 34.1046 37.8954 35 39 35V33ZM39 16.2558L38.6786 14.2818C37.7109 14.4393 37 15.2753 37 16.2558H39ZM59 13H61C61 12.4134 60.7425 11.8564 60.2956 11.4764C59.8488 11.0964 59.2576 10.9317 58.6786 11.026L59 13ZM32.6786 15.2585L15.6786 18.026L16.3214 21.974L33.3214 19.2066L32.6786 15.2585ZM14 20V33H18V20H14ZM33 31H16V35H33V31ZM31 17.2326V33H35V17.2326H31ZM14 39V52H18V39H14ZM15.6786 53.974L32.6786 56.7415L33.3214 52.7934L16.3214 50.026L15.6786 53.974ZM31 39V54.7674H35V39H31ZM16 41H33V37H16V41ZM38.6786 57.7182L58.6786 60.974L59.3214 57.026L39.3214 53.7702L38.6786 57.7182ZM61 59V39H57V59H61ZM39 41H59V37H39V41ZM41 55.7442V39H37V55.7442H41ZM59 31H39V35H59V31ZM41 33V16.2558H37V33H41ZM58.6786 11.026L38.6786 14.2818L39.3214 18.2298L59.3214 14.974L58.6786 11.026ZM61 33V13H57V33H61Z" mask="url(#path-7-outside-1)"/>
  </g>
</svg>
