<svg id="emoji" xmlns="http://www.w3.org/2000/svg" viewBox="0 0 72 72">
  <g id="grid">
    <path d="M68,4V68H4V4H68m4-4H0V72H72V0Z" fill="#b3b3b3"></path>
    <path d="M12.923,10.9583H59.0769A1.9231,1.9231,0,0,1,61,12.8814V59.0352a1.9231,1.9231,0,0,1-1.9231,1.9231H12.9231A1.9231,1.9231,0,0,1,11,59.0352V12.8813A1.923,1.923,0,0,1,12.923,10.9583Z" fill="none" stroke="#00a5ff" stroke-miterlimit="10" stroke-width="0.1"></path>
    <rect x="16" y="4" width="40" height="64" rx="2.2537" fill="none" stroke="#00a5ff" stroke-miterlimit="10" stroke-width="0.1"></rect>
    <rect x="16" y="4" width="40" height="64" rx="2.2537" transform="translate(72) rotate(90)" fill="none" stroke="#00a5ff" stroke-miterlimit="10" stroke-width="0.1"></rect>
    <circle cx="36" cy="36" r="29" fill="none" stroke="#00a5ff" stroke-miterlimit="10" stroke-width="0.1"></circle>
  </g>
  <g id="color">
    <rect x="9.0929" y="8.877" clip-path="url(#SVGID_2_)" fill="#FCEA2B" width="55.25" height="56" stroke="none"></rect>
    <circle fill="none" stroke="#fcea2b" stroke-miterlimit="10" cx="36.3429" cy="36.877" r="23"></circle>
    <rect x="11.6826" y="36.9493" clip-path="url(#SVGID_4_)" fill="#EA5A47" width="49.0022" height="24.8349" stroke="none"></rect>
    <path fill="none" stroke="#FFFFFF" stroke-width="4" stroke-linejoin="round" stroke-miterlimit="10" d="M22.3112,45.2036
		c0,0,14.4889,3.5947,28.2711,0.0775"></path>
  </g>
  <g id="hair">
  </g>
  <g id="skin">
  </g>
  <g id="skin-shadow">
  </g>
  <g id="line">
    <path fill="none" stroke="#000000" stroke-width="0.5" stroke-linecap="round" stroke-linejoin="round" stroke-miterlimit="10" d="
		M29.3217,62.0504"></path>
    <polygon id="SVGID_1_" points="36.3429,13.877 27.7131,15.5567 22.4133,18.5772 17.5226,23.6563 14.0929,31.0069 
				14.0929,43.3467 19.6925,52.7471 27.7131,58.1973 36.3429,59.877 43.5226,58.7266 51.2326,54.3966 56.3429,48.2374 
				59.3429,39.0274 58.5929,31.0469 54.7834,23.1368 50.5734,18.8165 43.3234,14.9571 			" fill="#000000" stroke="none"></polygon>
    <path fill="none" stroke="#000000" stroke-width="2" stroke-linecap="round" stroke-linejoin="round" stroke-miterlimit="10" d="
		M50.3961,44.9138"></path>
    <path fill="none" stroke="#000000" stroke-width="2" stroke-linecap="round" stroke-linejoin="round" stroke-miterlimit="10" d="
		M22.3405,44.9138"></path>
    <circle fill="none" stroke="#000000" stroke-width="2" stroke-linecap="round" stroke-linejoin="round" stroke-miterlimit="10" cx="36.3429" cy="36.877" r="23"></circle>
    <circle cx="27.5315" cy="33.4543" r="2.6038" fill="#000000" stroke="none"></circle>
    <circle cx="44.7815" cy="33.4543" r="2.6038" fill="#000000" stroke="none"></circle>
    <polygon id="SVGID_3_" points="41.0641,54.4056 47.4146,51.3216 49.8698,48.0171 50.5395,44.3278 42.7681,44.4301 
				21.8278,44.4301 24.5879,51.3216 31.224,54.4056 			" fill="#000000" stroke="none"></polygon>
    <path fill="none" stroke="#000000" stroke-width="2" stroke-linecap="round" stroke-linejoin="round" stroke-miterlimit="10" d="
		M21.8642,42.7401c0,0,14.8044,3.5947,28.8867,0.0775"></path>
    <path fill="none" stroke="#000000" stroke-width="2" stroke-linecap="round" stroke-linejoin="round" stroke-miterlimit="10" d="
		M50.9468,42.7401c0,6.5327-4.8486,11.7255-14.5679,11.7255c-9.7171,0-14.6292-5.2088-14.6292-11.7255"></path>
    <path fill="none" stroke="#000000" stroke-width="2" stroke-linejoin="round" stroke-miterlimit="10" d="M22.2973,47.0346
		c0,0,14.4889,3.5947,28.2711,0.0775"></path>
  </g>
</svg>