<svg id="emoji" xmlns="http://www.w3.org/2000/svg" viewBox="0 0 72 72">
  <g id="grid">
    <path d="M68,4V68H4V4H68m4-4H0V72H72V0Z" fill="#b3b3b3"></path>
    <path d="M12.923,10.9583H59.0769A1.9231,1.9231,0,0,1,61,12.8814V59.0352a1.9231,1.9231,0,0,1-1.9231,1.9231H12.9231A1.9231,1.9231,0,0,1,11,59.0352V12.8813A1.923,1.923,0,0,1,12.923,10.9583Z" fill="none" stroke="#00a5ff" stroke-miterlimit="10" stroke-width="0.1"></path>
    <rect x="16" y="4" width="40" height="64" rx="2.2537" fill="none" stroke="#00a5ff" stroke-miterlimit="10" stroke-width="0.1"></rect>
    <rect x="16" y="4" width="40" height="64" rx="2.2537" transform="translate(72) rotate(90)" fill="none" stroke="#00a5ff" stroke-miterlimit="10" stroke-width="0.1"></rect>
    <circle cx="36" cy="36" r="29" fill="none" stroke="#00a5ff" stroke-miterlimit="10" stroke-width="0.1"></circle>
  </g>
  <g id="color">
    <rect x="7.784" y="8.0508" clip-path="url(#SVGID_2_)" fill="#fcea2b" width="55.25" height="56" stroke="none"></rect>
    <circle fill="none" stroke="#fcea2b" stroke-miterlimit="10" cx="35.034" cy="36.0508" r="23"></circle>
    <rect x="13.7833" y="37.7339" clip-path="url(#SVGID_4_)" fill="#FFFFFF" width="42.2284" height="21.4018" stroke="none"></rect>
    <path fill="#D22F27" stroke="none" stroke-width="2" stroke-linecap="round" stroke-linejoin="round" stroke-miterlimit="10" d="
		M25.5332,27.4892c-1.2653-3.3541-6.441-3.5687-6.1168,1.3178c0.0431,0.6485,0.281,1.2724,0.6414,1.8135l5.3179,6.4224l0,0
		l5.2212-6.266c0.5796-0.6964,0.9224-1.5779,0.905-2.4853c-0.0863-4.3523-5.0509-4.0351-6.1274-0.8036"></path>
    <path fill="#D22F27" stroke="none" stroke-width="2" stroke-linecap="round" stroke-linejoin="round" stroke-miterlimit="10" d="
		M44.8352,27.4892c-1.2547-3.3541-6.3873-3.5687-6.0658,1.3178c0.0428,0.6485,0.2787,1.2724,0.6361,1.8135l5.2737,6.4224l0,0
		l5.1777-6.266c0.5747-0.6964,0.9147-1.5779,0.8974-2.4853c-0.0856-4.3523-5.0089-4.0351-6.0763-0.8036"></path>
  </g>
  <g id="hair">
  </g>
  <g id="skin">
  </g>
  <g id="skin-shadow">
  </g>
  <g id="line">
    <polygon id="SVGID_1_" points="35.0341,13.0508 26.4043,14.7305 21.1045,17.751 16.2137,22.83 12.784,30.1806 12.784,42.5204 
				18.3836,51.9208 26.4041,57.3711 35.0339,59.0508 42.2136,57.9004 49.9237,53.5704 55.034,47.4112 58.034,38.2013 
				57.284,30.2207 53.4745,22.3106 49.2645,17.9903 42.0146,14.1309 			" fill="#000000" stroke="none"></polygon>
    <path fill="none" stroke="#000000" stroke-width="2" stroke-linecap="round" stroke-linejoin="round" stroke-miterlimit="10" d="
		M47.1453,44.5975"></path>
    <path fill="none" stroke="#000000" stroke-width="2" stroke-linecap="round" stroke-linejoin="round" stroke-miterlimit="10" d="
		M22.968,44.5975"></path>
    <circle fill="none" stroke="#000000" stroke-width="2" stroke-linecap="round" stroke-linejoin="round" stroke-miterlimit="10" cx="35.034" cy="36.0508" r="23"></circle>
    <polygon id="SVGID_3_" points="39.1033,52.7772 44.5759,50.1196 46.6917,47.2718 47.3905,43.4227 40.5718,44.1807 
				22.5575,43.4227 24.9047,50.1195 30.6235,52.7772 			" fill="#000000" stroke="none"></polygon>
    <path fill="none" stroke="#000000" stroke-width="2" stroke-linecap="round" stroke-linejoin="round" stroke-miterlimit="10" d="
		M22.5575,42.7243c0,0,12.7579,3.0979,24.8935,0.0669"></path>
    <path fill="none" stroke="#000000" stroke-width="2" stroke-linecap="round" stroke-linejoin="round" stroke-miterlimit="10" d="
		M47.6199,42.7243c0,5.6296-4.1784,10.1046-12.5541,10.1046c-8.3738,0-12.6069-4.4888-12.6069-10.1047"></path>
    <path fill="none" stroke="#000000" stroke-width="2" stroke-linecap="round" stroke-linejoin="round" stroke-miterlimit="10" d="
		M25.5332,27.4892c-1.2653-3.3541-6.441-3.5687-6.1168,1.3178c0.0431,0.6485,0.281,1.2724,0.6414,1.8135l5.3179,6.4224l0,0
		l5.2212-6.266c0.5796-0.6964,0.9224-1.5779,0.905-2.4853c-0.0863-4.3523-5.0509-4.0351-6.1274-0.8036"></path>
    <path fill="none" stroke="#000000" stroke-width="2" stroke-linecap="round" stroke-linejoin="round" stroke-miterlimit="10" d="
		M44.8352,27.4892c-1.2547-3.3541-6.3873-3.5687-6.0658,1.3178c0.0428,0.6485,0.2787,1.2724,0.6361,1.8135l5.2737,6.4224l0,0
		l5.1777-6.266c0.5747-0.6964,0.9147-1.5779,0.8974-2.4853c-0.0856-4.3523-5.0089-4.0351-6.0763-0.8036"></path>
  </g>
</svg>