<?xml version="1.0" encoding="utf-8"?>
<!-- Generator: Adobe Illustrator 23.0.1, SVG Export Plug-In . SVG Version: 6.00 Build 0)  -->
<svg version="1.1" id="emoji" xmlns="http://www.w3.org/2000/svg" xmlns:xlink="http://www.w3.org/1999/xlink" x="0px" y="0px"
	 viewBox="0 0 72 72" enable-background="new 0 0 72 72" xml:space="preserve">
<g id="grid">
	<path fill="#B3B3B3" d="M68,4v64H4V4H68 M72,0H0v72h72V0z"/>
	<path fill="none" stroke="#00A5FF" stroke-width="0.1" stroke-miterlimit="10" d="M12.923,10.9583h46.1539
		c1.0621,0,1.9231,0.861,1.9231,1.9231v0v46.1538c0,1.0621-0.861,1.9231-1.9231,1.9231H12.9231
		c-1.0621,0-1.9231-0.861-1.9231-1.9231l0,0V12.8813C11,11.8193,11.861,10.9583,12.923,10.9583L12.923,10.9583z"/>
	<path fill="none" stroke="#00A5FF" stroke-width="0.1" stroke-miterlimit="10" d="M18.2537,4h35.4926C54.991,4,56,5.009,56,6.2537
		v59.4926C56,66.991,54.991,68,53.7463,68H18.2537C17.009,68,16,66.991,16,65.7463V6.2537C16,5.009,17.009,4,18.2537,4z"/>
	<path fill="none" stroke="#00A5FF" stroke-width="0.1" stroke-miterlimit="10" d="M68,18.2537v35.4926
		C68,54.991,66.991,56,65.7463,56H6.2537C5.009,56,4,54.991,4,53.7463V18.2537C4,17.009,5.009,16,6.2537,16h59.4926
		C66.991,16,68,17.009,68,18.2537z"/>
	<circle fill="none" stroke="#00A5FF" stroke-width="0.1" stroke-miterlimit="10" cx="36" cy="36" r="29"/>
</g>
<g id="color">
	<circle fill="#FCEA2B" cx="36.3318" cy="35.9518" r="23"/>
	<path fill="#FFFFFF" d="M50.7677,41.8703c0,1.59-0.29,3.11-0.87,4.49c-12.4901,3.03-25.4301,0.34-27.4901-0.13
		c-0.55-1.34-0.83-2.81-0.83-4.36h0.11c0,0,14.8,3.59,28.89,0.07L50.7677,41.8703z"/>
	<path fill="#EA5A47" d="M49.8977,46.3603c-1.79,4.27-6.35,7.23-13.69,7.23c-7.41,0-12.03-3.03-13.8-7.36
		C24.4677,46.7001,37.4076,49.3902,49.8977,46.3603z"/>
</g>
<g id="hair">
</g>
<g id="skin">
</g>
<g id="skin-shadow">
</g>
<g id="line">
	
		<circle fill="none" stroke="#000000" stroke-width="2" stroke-linecap="round" stroke-linejoin="round" stroke-miterlimit="10" cx="36.3318" cy="35.9518" r="23"/>
	<ellipse cx="29.2367" cy="30.7698" rx="3" ry="5.4038"/>
	<ellipse cx="44.1" cy="30.7734" rx="3" ry="5.4038"/>
	<path fill="none" stroke="#000000" stroke-width="2" stroke-linecap="round" stroke-linejoin="round" stroke-miterlimit="10" d="
		M50.7677,41.8703c0,1.59-0.29,3.11-0.87,4.49c-12.4901,3.03-25.4301,0.34-27.4901-0.13c-0.55-1.34-0.83-2.81-0.83-4.36h0.11
		c0,0,14.8,3.59,28.89,0.07L50.7677,41.8703z"/>
	<path fill="none" stroke="#000000" stroke-width="2" stroke-linecap="round" stroke-linejoin="round" stroke-miterlimit="10" d="
		M49.8977,46.3603c-1.79,4.27-6.35,7.23-13.69,7.23c-7.41,0-12.03-3.03-13.8-7.36C24.4677,46.7001,37.4076,49.3902,49.8977,46.3603z
		"/>
</g>
</svg>
