<svg id="emoji" xmlns="http://www.w3.org/2000/svg" viewBox="0 0 72 72">
  <g id="grid">
    <path d="M68,4V68H4V4H68m4-4H0V72H72V0Z" fill="#b3b3b3"></path>
    <path d="M12.923,10.9583H59.0769A1.9231,1.9231,0,0,1,61,12.8814V59.0352a1.9231,1.9231,0,0,1-1.9231,1.9231H12.9231A1.9231,1.9231,0,0,1,11,59.0352V12.8813A1.923,1.923,0,0,1,12.923,10.9583Z" fill="none" stroke="#00a5ff" stroke-miterlimit="10" stroke-width="0.1"></path>
    <rect x="16" y="4" width="40" height="64" rx="2.2537" fill="none" stroke="#00a5ff" stroke-miterlimit="10" stroke-width="0.1"></rect>
    <rect x="16" y="4" width="40" height="64" rx="2.2537" transform="translate(72) rotate(90)" fill="none" stroke="#00a5ff" stroke-miterlimit="10" stroke-width="0.1"></rect>
    <circle cx="36" cy="36" r="29" fill="none" stroke="#00a5ff" stroke-miterlimit="10" stroke-width="0.1"></circle>
  </g>
  <g id="color">
    <rect x="6.9465" y="8.5815" clip-path="url(#SVGID_2_)" fill="#FCEA2B" width="55.25" height="56" stroke="none"></rect>
    <circle fill="none" stroke="#fcea2b" stroke-miterlimit="10" cx="34.1965" cy="36.5815" r="23"></circle>
  </g>
  <g id="hair">
  </g>
  <g id="skin">
  </g>
  <g id="skin-shadow">
  </g>
  <g id="line">
    <polygon id="SVGID_1_" points="34.1965,13.5815 25.5667,15.2612 20.2669,18.2817 15.3762,23.3608 11.9465,30.7114 
				11.9465,43.0512 17.5461,52.4516 25.5667,57.9018 34.1965,59.5815 41.3762,58.4311 49.0862,54.1011 54.1965,47.9419 
				57.1965,38.7319 56.4465,30.7514 52.637,22.8413 48.427,18.521 41.177,14.6616 			" fill="#000000" stroke="none"></polygon>
    <circle fill="none" stroke="#000000" stroke-width="2" stroke-linecap="round" stroke-linejoin="round" stroke-miterlimit="10" cx="34.1965" cy="36.5815" r="23"></circle>
    <path fill="none" stroke="#000000" stroke-width="2" stroke-linecap="round" stroke-linejoin="round" stroke-miterlimit="10" d="
		M44.0113,45.387c-5.8513,4.7083-14.1004,4.6878-19.6295,0"></path>
    <path d="M30.0806,34.775c-0.3672,0-0.7207-0.2032-0.8965-0.5528c-0.0098-0.0195-1.2129-2.3222-3.418-2.3222
		c-2.2305,0-3.4062,2.2988-3.418,2.3222c-0.2461,0.4942-0.8457,0.6934-1.3418,0.4473c-0.4941-0.2481-0.6933-0.8477-0.4472-1.3418
		c0.0703-0.1406,1.7539-3.4277,5.207-3.4277s5.1367,3.2871,5.207,3.4277c0.2481,0.4941,0.0469,1.0937-0.4472,1.3418
		C30.3833,34.7398,30.229,34.775,30.0806,34.775z" fill="#000000" stroke="none"></path>
    <path d="M47.3306,34.775c-0.3672,0-0.7207-0.2032-0.8965-0.5528c-0.0098-0.0195-1.2129-2.3222-3.418-2.3222
		c-2.2305,0-3.4062,2.2988-3.418,2.3222c-0.2461,0.4942-0.8457,0.6934-1.3418,0.4473c-0.4941-0.2481-0.6933-0.8477-0.4472-1.3418
		c0.0703-0.1406,1.7539-3.4277,5.207-3.4277c3.4531,0,5.1367,3.2871,5.207,3.4277c0.2481,0.4941,0.0469,1.0937-0.4472,1.3418
		C47.6333,34.7398,47.479,34.775,47.3306,34.775z" fill="#000000" stroke="none"></path>
  </g>
</svg>