<?xml version="1.0" encoding="utf-8"?>
<!-- Generator: Adobe Illustrator 23.0.1, SVG Export Plug-In . SVG Version: 6.00 Build 0)  -->
<svg version="1.1" id="emoji" xmlns="http://www.w3.org/2000/svg" xmlns:xlink="http://www.w3.org/1999/xlink" x="0px" y="0px"
	 viewBox="0 0 72 72" enable-background="new 0 0 72 72" xml:space="preserve">
<g id="grid">
	<path fill="#B3B3B3" d="M68,4v64H4V4H68 M72,0H0v72h72V0z"/>
	<path fill="none" stroke="#00A5FF" stroke-width="0.1" stroke-miterlimit="10" d="M12.923,10.9583h46.1539
		c1.0621,0,1.9231,0.861,1.9231,1.9231v0v46.1538c0,1.0621-0.861,1.9231-1.9231,1.9231H12.9231
		c-1.0621,0-1.9231-0.861-1.9231-1.9231l0,0V12.8813C11,11.8193,11.861,10.9583,12.923,10.9583L12.923,10.9583z"/>
	<path fill="none" stroke="#00A5FF" stroke-width="0.1" stroke-miterlimit="10" d="M18.2537,4h35.4926C54.991,4,56,5.009,56,6.2537
		v59.4926C56,66.991,54.991,68,53.7463,68H18.2537C17.009,68,16,66.991,16,65.7463V6.2537C16,5.009,17.009,4,18.2537,4z"/>
	<path fill="none" stroke="#00A5FF" stroke-width="0.1" stroke-miterlimit="10" d="M68,18.2537v35.4926
		C68,54.991,66.991,56,65.7463,56H6.2537C5.009,56,4,54.991,4,53.7463V18.2537C4,17.009,5.009,16,6.2537,16h59.4926
		C66.991,16,68,17.009,68,18.2537z"/>
	<circle fill="none" stroke="#00A5FF" stroke-width="0.1" stroke-miterlimit="10" cx="36" cy="36" r="29"/>
</g>
<g id="color">
	<circle fill="#FCEA2B" cx="35.253" cy="36.5338" r="23"/>
	<polygon fill="#F1B31C" points="24.4567,21.7709 32.4428,20.5702 28.5381,27.6394 32.1478,34.8636 24.218,33.3345 18.4628,39 
		17.4667,30.9858 10.3,27.263 17.6142,23.839 18.9401,15.8727 	"/>
	<polygon fill="#F1B31C" points="45.3871,21.7709 37.401,20.5702 41.3057,27.6394 37.696,34.8636 45.6258,33.3345 51.381,39 
		52.3771,30.9858 59.5438,27.263 52.2296,23.839 50.9037,15.8727 	"/>
	<path fill="#EA5A47" d="M48.99,46.8898c-1.79,4.27-6.35,7.23-13.7,7.23c-7.41,0-12.03-3.03-13.8-7.36
		C23.52,47.2198,36.47,49.9297,48.99,46.8898z"/>
	<path fill="#FFFFFF" d="M49.86,42.3998c0,1.6-0.29,3.11-0.87,4.49c-12.52,3.04-25.47,0.33-27.5-0.13
		c-0.55-1.35-0.83-2.82-0.83-4.36h0.11c0,0,14.81,3.59,28.89,0.07L49.86,42.3998z"/>
</g>
<g id="hair">
</g>
<g id="skin">
</g>
<g id="skin-shadow">
</g>
<g id="line">
	<path fill="none" stroke="#000000" stroke-width="2" stroke-linecap="round" stroke-linejoin="round" stroke-miterlimit="10" d="
		M49.3062,44.5705"/>
	<path fill="none" stroke="#000000" stroke-width="2" stroke-linecap="round" stroke-linejoin="round" stroke-miterlimit="10" d="
		M21.2506,44.5705"/>
	<path fill="none" stroke="#000000" stroke-width="2" stroke-linecap="round" stroke-linejoin="round" stroke-miterlimit="10" d="
		M49.86,42.3998c0,1.6-0.29,3.11-0.87,4.49c-12.52,3.04-25.47,0.33-27.5-0.13c-0.55-1.35-0.83-2.82-0.83-4.36h0.11
		c0,0,14.81,3.59,28.89,0.07L49.86,42.3998z"/>
	<path fill="none" stroke="#000000" stroke-width="2" stroke-linejoin="round" stroke-miterlimit="10" d="M48.99,46.8898
		c-1.79,4.27-6.35,7.23-13.7,7.23c-7.41,0-12.03-3.03-13.8-7.36C23.52,47.2198,36.47,49.9297,48.99,46.8898z"/>
	<path fill="none" stroke="#000000" stroke-width="2" stroke-linejoin="round" stroke-miterlimit="10" d="M49.48,46.7698
		c-0.16,0.04-0.33,0.08-0.49,0.12"/>
	<path fill="none" stroke="#000000" stroke-width="2" stroke-linejoin="round" stroke-miterlimit="10" d="M21.49,46.7598
		c-0.19-0.05-0.28-0.07-0.28-0.07"/>
	<path fill="none" stroke="#000000" stroke-width="2" stroke-linecap="round" stroke-linejoin="round" stroke-miterlimit="10" d="
		M45.8071,16.0929c-3.161-1.6354-6.7497-2.5591-10.5542-2.5591c-3.9546,0-7.676,0.9979-10.9261,2.7556
		c-0.0502,0.0271-0.1002,0.0544-0.1501,0.0819"/>
	<path fill="none" stroke="#000000" stroke-width="2" stroke-linecap="round" stroke-linejoin="round" stroke-miterlimit="10" d="
		M12.4474,33.5292c-0.1283,0.9833-0.1944,1.9862-0.1944,3.0046c0,12.7022,10.2969,23,23,23c12.7022,0,23-10.2978,23-23
		c0-1.0073-0.0648-1.9995-0.1903-2.9726"/>
	
		<polygon fill="none" stroke="#000000" stroke-width="2" stroke-linecap="round" stroke-linejoin="round" stroke-miterlimit="10" points="
		24.4567,21.7709 32.4428,20.5702 28.5381,27.6394 32.1478,34.8636 24.218,33.3345 18.4628,39 17.4667,30.9858 10.3,27.263 
		17.6142,23.839 18.9401,15.8727 	"/>
	
		<polygon fill="none" stroke="#000000" stroke-width="2" stroke-linecap="round" stroke-linejoin="round" stroke-miterlimit="10" points="
		45.3871,21.7709 37.401,20.5702 41.3057,27.6394 37.696,34.8636 45.6258,33.3345 51.381,39 52.3771,30.9858 59.5438,27.263 
		52.2296,23.839 50.9037,15.8727 	"/>
</g>
</svg>
