<svg id="emoji" xmlns="http://www.w3.org/2000/svg" viewBox="0 0 72 72">
  <g id="grid">
    <path d="M68,4V68H4V4H68m4-4H0V72H72V0Z" fill="#b3b3b3"></path>
    <path d="M12.923,10.9583H59.0769A1.9231,1.9231,0,0,1,61,12.8814V59.0352a1.9231,1.9231,0,0,1-1.9231,1.9231H12.9231A1.9231,1.9231,0,0,1,11,59.0352V12.8813A1.923,1.923,0,0,1,12.923,10.9583Z" fill="none" stroke="#00a5ff" stroke-miterlimit="10" stroke-width="0.1"></path>
    <rect x="16" y="4" width="40" height="64" rx="2.2537" fill="none" stroke="#00a5ff" stroke-miterlimit="10" stroke-width="0.1"></rect>
    <rect x="16" y="4" width="40" height="64" rx="2.2537" transform="translate(72) rotate(90)" fill="none" stroke="#00a5ff" stroke-miterlimit="10" stroke-width="0.1"></rect>
    <circle cx="36" cy="36" r="29" fill="none" stroke="#00a5ff" stroke-miterlimit="10" stroke-width="0.1"></circle>
  </g>
  <g id="color">
    <rect x="16" y="33" fill="#FFFFFF" width="31" height="6" stroke="none"></rect>
    <rect x="16" y="45" fill="#FFFFFF" width="26" height="6" stroke="none"></rect>
    <rect x="16" y="24" fill="#D0CFCE" width="40" height="3" stroke="none"></rect>
    <rect x="16" y="36" fill="#D0CFCE" width="31" height="3" stroke="none"></rect>
    <rect x="16.3333" y="48" fill="#D0CFCE" width="26" height="3" stroke="none"></rect>
  </g>
  <g id="hair">
  </g>
  <g id="skin">
  </g>
  <g id="skin-shadow">
  </g>
  <g id="line">
    <rect x="33" y="4" transform="matrix(-1.836970e-16 1 -1 -1.836970e-16 60 -12)" fill="none" stroke="#000000" stroke-width="2" stroke-linecap="round" stroke-linejoin="round" stroke-miterlimit="10" width="6" height="40"></rect>
    <rect x="28.5" y="20.5" transform="matrix(-1.836970e-16 1 -1 -1.836970e-16 67.5 4.5)" fill="none" stroke="#000000" stroke-width="2" stroke-linecap="round" stroke-linejoin="round" stroke-miterlimit="10" width="6" height="31"></rect>
    <rect x="26.3333" y="35" transform="matrix(-1.836970e-16 1 -1 -1.836970e-16 77.3333 18.6667)" fill="none" stroke="#000000" stroke-width="2" stroke-linecap="round" stroke-linejoin="round" stroke-miterlimit="10" width="6" height="26"></rect>
  </g>
</svg>