<?xml version="1.0" encoding="UTF-8"?>
<svg id="emoji" xmlns="http://www.w3.org/2000/svg" viewBox="0 0 72 72">
  <g id="grid">
    <path d="m68,4v64H4V4h64M72,0H0v72h72V0Z" fill="#b3b3b3"/>
    <path d="m12.923,10.9583h46.1539c1.0621,0,1.9231.861,1.9231,1.9231h0v46.1538c0,1.0621-.861,1.9231-1.9231,1.9231H12.9231c-1.0621,0-1.9231-.861-1.9231-1.9231h0V12.8813c0-1.062.861-1.923,1.923-1.923h0Z" fill="none" stroke="#00a5ff" stroke-miterlimit="10" stroke-width=".1"/>
    <rect x="16" y="4" width="40" height="64" rx="2.2537" ry="2.2537" fill="none" stroke="#00a5ff" stroke-miterlimit="10" stroke-width=".1"/>
    <rect x="4" y="16" width="64" height="40" rx="2.2537" ry="2.2537" fill="none" stroke="#00a5ff" stroke-miterlimit="10" stroke-width=".1"/>
    <circle cx="36" cy="36" r="29" fill="none" stroke="#00a5ff" stroke-miterlimit="10" stroke-width=".1"/>
  </g>
  <g id="color">
    <path d="m36.1971,9.536c-3.149,0-4.7734.6705-6.7786,2.7026-1.8633,1.8883-3.1685,3.6641-3.1685,6.468l-.25,17.9189c0,2.6406.3256,4.6911,2,6.5405,2.0169,2.2277,4.6806,4,8,4,6.0751,0,10-4.7192,10-10.5405l-.25-17.9189c0-2.8667-1.191-4.3463-3.1287-6.2464-1.9973-1.9586-3.3407-2.9241-6.4242-2.9241Zm3.8029,26.0005c0,2.5569-1.7909,4.6296-4,4.6296-1.1563,0-2.0027-.3975-3-1-1.2121-.7323-1.1074-2.3926-1-3.6296v-15.7408c0-1.1549-.6042-2.8187,0-3.6296.7335-.9845,2.7886-1,4-1,1.3009,0,3.2695-.1131,4,1,.51.7772,0,2.5784,0,3.6296v15.7408Z" fill="#d0cfce"/>
    <path d="m32.0061,35.5372c.1159-2.4366,1.8597-4.3711,3.9939-4.3711,1.2944,0,3.2689.8963,4,2,.5166.7799,0,1.5709,0,2.6296v15.7407c0,1.173.6212,2.8138,0,3.6296-.733.9626-2.8043,1-4,1-1.3246,0-3.272-.852-4-2-.4861-.7666,0-1.6059,0-2.6296v-5.8082c-3-.4378-6-9.7281-6-9.7281v15.8956c0,5.6721,3.9249,9.5203,10,9.5203s10-3.8482,10-9.5203v-17.4593c0-5.6722-3.9249-10.2703-10-10.2703-1.6162,0-3.151.3254-4.5333.9099l.5394,10.4612Z" fill="#9b9b9a"/>
  </g>
  <g id="line">
    <path d="m37.2318,41.0132c-.394.0998-.8067.1529-1.2318.1529-2.7614,0-5-2.2386-5-5v-17c0-2.7614,2.2386-5,5-5s5,2.2386,5,5v3" fill="none" stroke="#000" stroke-linecap="round" stroke-linejoin="round" stroke-width="2"/>
    <path d="m37.3602,46.0744c-.4448.0605-.8988.0917-1.3602.0917-5.5228,0-10-4.4771-10-10v-17c0-5.5228,4.4772-10,10-10s10,4.4772,10,10v7" fill="none" stroke="#000" stroke-linecap="round" stroke-linejoin="round" stroke-width="2"/>
    <path d="m34.7604,30.3209c.3964-.1011.8117-.1549,1.2396-.1549,2.7614,0,5,2.2386,5,5v17c0,2.7614-2.2386,5-5,5s-5-2.2386-5-5v-3" fill="none" stroke="#000" stroke-linecap="round" stroke-linejoin="round" stroke-width="2"/>
    <path d="m34.7494,25.2435c.4097-.0511.8271-.0774,1.2506-.0774,5.5228,0,10,4.4772,10,10v17c0,5.5229-4.4772,10-10,10s-10-4.4771-10-10v-6" fill="none" stroke="#000" stroke-linecap="round" stroke-linejoin="round" stroke-width="2"/>
  </g>
</svg>