<svg id="emoji" viewBox="0 0 72 72" xmlns="http://www.w3.org/2000/svg">
  <g id="grid">
    <path fill="#b3b3b3" d="M68,4V68H4V4H68m4-4H0V72H72V0Z"/>
    <path fill="none" stroke="#00a5ff" stroke-miterlimit="10" stroke-width="0.1" d="M12.923,10.9583H59.0769A1.9231,1.9231,0,0,1,61,12.8814V59.0352a1.9231,1.9231,0,0,1-1.9231,1.9231H12.9231A1.9231,1.9231,0,0,1,11,59.0352V12.8813A1.923,1.923,0,0,1,12.923,10.9583Z"/>
    <rect x="16" y="4" rx="2.2537" ry="2.2537" width="40" height="64" fill="none" stroke="#00a5ff" stroke-miterlimit="10" stroke-width="0.1"/>
    <rect x="16" y="4" rx="2.2537" ry="2.2537" width="40" height="64" transform="rotate(90 36 36)" fill="none" stroke="#00a5ff" stroke-miterlimit="10" stroke-width="0.1"/>
    <circle cx="36" cy="36" r="29" fill="none" stroke="#00a5ff" stroke-miterlimit="10" stroke-width="0.1"/>
  </g>
  <g id="color">
    <polygon fill="#a57939" points="37.877 21.43 37.848 43.552 39.05 47.175 39.025 62.881 37.817 62.883 34.193 62.889 32.984 62.891 33.009 47.185 34.223 43.558 34.252 21.436 37.877 21.43"/>
    <path fill="#9b9b9a" d="M29.7035,11.6v9.9H42.4314V15.8424s8.4853,0,11.3137,2.8284A15.1442,15.1442,0,0,0,42.4314,11.6,60.523,60.523,0,0,0,29.7035,11.6Z"/>
    <path fill="#d0cfce" d="M25.89,12.4785l-.0319,8.02h0a3.3363,3.3363,0,0,1-3.7013.0147h0l.0319-8.0195h0a2.6172,2.6172,0,0,1,3.7013-.0147Z"/>
  </g>
  <g id="line">
    <polygon fill="none" stroke="#000" stroke-linecap="round" stroke-linejoin="round" stroke-width="2" points="37.877 21.5 37.848 43.552 39.05 47.175 39.025 62.881 37.817 62.883 34.193 62.889 32.984 62.891 33.009 47.185 34.223 43.558 34.252 21.5 37.877 21.5"/>
    <path fill="none" stroke="#000" stroke-linecap="round" stroke-linejoin="round" stroke-width="2" d="M29.7035,11.6v9.9H42.4314V15.8424s8.4853,0,11.3137,2.8284A15.1442,15.1442,0,0,0,42.4314,11.6,60.523,60.523,0,0,0,29.7035,11.6Z"/>
    <path fill="none" stroke="#000" stroke-linecap="round" stroke-linejoin="round" stroke-width="2" d="M25.89,12.4785l-.0319,8.02h0a3.3363,3.3363,0,0,1-3.7013.0147h0l.0319-8.0195h0a2.6172,2.6172,0,0,1,3.7013-.0147Z"/>
  </g>
</svg>
