<svg id="emoji" viewBox="0 0 72 72" xmlns="http://www.w3.org/2000/svg">
  <g id="grid">
    <path fill="#b3b3b3" d="M68,4V68H4V4H68m4-4H0V72H72V0Z"/>
    <path fill="none" stroke="#00a5ff" stroke-miterlimit="10" stroke-width="0.1" d="M12.923,10.9583H59.0769A1.9231,1.9231,0,0,1,61,12.8814V59.0352a1.9231,1.9231,0,0,1-1.9231,1.9231H12.9231A1.9231,1.9231,0,0,1,11,59.0352V12.8813A1.923,1.923,0,0,1,12.923,10.9583Z"/>
    <rect x="16" y="4" rx="2.2537" width="40" height="64" fill="none" stroke="#00a5ff" stroke-miterlimit="10" stroke-width="0.1"/>
    <rect x="16" y="4" rx="2.2537" width="40" height="64" transform="translate(72) rotate(90)" fill="none" stroke="#00a5ff" stroke-miterlimit="10" stroke-width="0.1"/>
    <circle cx="36" cy="36" r="29" fill="none" stroke="#00a5ff" stroke-miterlimit="10" stroke-width="0.1"/>
  </g>
  <g id="color">
    <rect x="43.0002" y="36.1661" width="3.0001" height="3.3833" fill="#9B9B9A" stroke="none"/>
    <rect x="43.0013" y="46.1665" width="3.0001" height="12" fill="#9B9B9A" stroke="none"/>
    <rect x="41" y="22.1661" width="8" height="3.0001" fill="#9B9B9A" stroke="none"/>
    <path fill="#D0CFCE" stroke="none" d="M47,45.7774H22.6774C20.0942,45.7774,18,43.6833,18,41.1V22.3904c0-5.1665,4.1883-9.3548,9.3548-9.3548 h13.0968h1.871c2.5833,0,4.6774,2.0942,4.6774,4.6774v4.0092h-4.9714c0-1.6976-1.3762-3.0737-3.0737-3.0737h-1.2295h-8.6065 c-3.3952,0-6.1475,2.7523-6.1475,6.1475v12.2949c0,1.6976,1.3762,3.0737,3.0737,3.0737h15.9834H47V45.7774z"/>
  </g>
  <g id="hair"/>
  <g id="skin"/>
  <g id="skin-shadow"/>
  <g id="line">
    <path fill="none" stroke="#000000" stroke-linecap="round" stroke-linejoin="round" stroke-miterlimit="10" stroke-width="2" d="M47,45.7774H22.6774C20.0942,45.7774,18,43.6833,18,41.1V22.3904c0-5.1665,4.1883-9.3548,9.3548-9.3548h13.0968h1.871 c2.5833,0,4.6774,2.0942,4.6774,4.6774v4.0092h-4.9714c0-1.6976-1.3762-3.0737-3.0737-3.0737h-1.2295h-8.6065 c-3.3952,0-6.1475,2.7523-6.1475,6.1475v12.2949c0,1.6976,1.3762,3.0737,3.0737,3.0737h15.9834H47V45.7774z"/>
    <rect x="42" y="45.9065" width="5" height="13" fill="none" stroke="#000000" stroke-linecap="round" stroke-linejoin="round" stroke-miterlimit="10" stroke-width="2"/>
    <rect x="39.9999" y="21.9065" width="10" height="3.6429" fill="none" stroke="#000000" stroke-linecap="round" stroke-linejoin="round" stroke-miterlimit="10" stroke-width="2"/>
    <path fill="none" stroke="#000000" stroke-linecap="round" stroke-linejoin="round" stroke-miterlimit="10" stroke-width="2" d="M42,36.7186v3.1878h5v-3.1878c0-0.4485-0.4545-0.8122-1.0152-0.8122h-2.9696C42.4545,35.9065,42,36.2701,42,36.7186z"/>
    <line x1="41" x2="37" y1="52.1661" y2="52.1661" fill="none" stroke="#000000" stroke-linecap="round" stroke-linejoin="round" stroke-miterlimit="10" stroke-width="2"/>
    <line x1="52" x2="48" y1="52.1661" y2="52.1661" fill="none" stroke="#000000" stroke-linecap="round" stroke-linejoin="round" stroke-miterlimit="10" stroke-width="2"/>
  </g>
</svg>
