<?xml version="1.0" encoding="UTF-8"?>
<svg id="emoji" xmlns="http://www.w3.org/2000/svg" viewBox="0 0 72 72">
  <g id="grid">
    <path d="M68,4v64H4V4h64M72,0H0v72h72V0h0Z" fill="#b3b3b3"/>
    <rect x="11" y="10.9583" width="50" height="50" rx="1.923" ry="1.923" fill="none" stroke="#00a5ff" stroke-miterlimit="10" stroke-width=".1"/>
    <rect x="16" y="4" width="40" height="64" rx="2.2537" ry="2.2537" fill="none" stroke="#00a5ff" stroke-miterlimit="10" stroke-width=".1"/>
    <rect x="16" y="4" width="40" height="64" rx="2.2537" ry="2.2537" transform="translate(72) rotate(90)" fill="none" stroke="#00a5ff" stroke-miterlimit="10" stroke-width=".1"/>
    <circle cx="36" cy="36" r="29" fill="none" stroke="#00a5ff" stroke-miterlimit="10" stroke-width=".1"/>
  </g>
  <g id="color">
    <path d="M13.8017,58.1983c6.2518,3.251,13.2956.9586,17.9845-3.7303l1.8964-1.8964c.8287-.8287.7914-2.2095-.0834-3.0842l-5.5433-5.5433s-5.5433-5.5433-5.5433-5.5433c-.8747-.8747-2.2556-.912-3.0842-.0834l-1.8964,1.8964c-4.6889,4.6889-6.9812,11.7326-3.7303,17.9845Z" fill="#9b9b9a"/>
    <path d="M22.5127,43.7056c-.8747-.8747-2.2556-.912-3.0843-.0833l-1.8963,1.8964c-2.5246,2.5245-4.2998,8.1047-3.7303,12.6796,6.2519,3.2509,13.2956.9586,17.9845-3.7303l.7444-.7444-4.4747-4.4746-5.5433-5.5433Z" fill="#d0cfce"/>
    <polyline points="26.2871 42.1774 46.0254 22.4391 49.5609 25.9746 29.8226 45.7129 26.2871 42.1774" fill="#a57939"/>
    <rect x="46.95" y="16.05" width="13" height="5" transform="translate(28.772 -32.3617) rotate(45)" fill="#a57939"/>
  </g>
  <g id="line">
    <path d="M13.8017,58.1983c-3.251-6.2518-.9586-13.2956,3.7303-17.9845l1.8964-1.8964c.8287-.8287,2.2095-.7914,3.0842.0834l5.5433,5.5433" fill="none" stroke="#000" stroke-linecap="round" stroke-linejoin="round" stroke-width="2"/>
    <path d="M13.8017,58.1983c6.2518,3.251,13.2956.9586,17.9845-3.7303l1.8964-1.8964c.8287-.8287.7914-2.2095-.0834-3.0842l-5.5433-5.5433" fill="none" stroke="#000" stroke-linecap="round" stroke-linejoin="round" stroke-width="2"/>
    <rect x="46.95" y="16.05" width="13" height="5" transform="translate(28.772 -32.3617) rotate(45)" fill="none" stroke="#000" stroke-linecap="round" stroke-linejoin="round" stroke-width="2"/>
    <path d="M56.2785,24.9139l-1.0607,1.0607c-1.5621,1.5621-4.0948,1.5621-5.6569,0l-3.5355-3.5355c-1.5621-1.5621-1.5621-4.0948,0-5.6569l1.0607-1.0607" fill="none" stroke="#000" stroke-linecap="round" stroke-linejoin="round" stroke-width="2"/>
    <polyline points="26.2871 42.1774 46.0254 22.4391 49.5609 25.9746 29.8226 45.7129 26.2871 42.1774" fill="none" stroke="#000" stroke-linecap="round" stroke-linejoin="round" stroke-width="2"/>
  </g>
</svg>