<svg id="emoji" xmlns="http://www.w3.org/2000/svg" viewBox="0 0 72 72">
  <g id="grid">
    <path d="M68,4V68H4V4H68m4-4H0V72H72V0Z" fill="#b3b3b3"/>
    <path d="M12.923,10.9583H59.0769A1.9231,1.9231,0,0,1,61,12.8814V59.0352a1.9231,1.9231,0,0,1-1.9231,1.9231H12.9231A1.9231,1.9231,0,0,1,11,59.0352V12.8813A1.923,1.923,0,0,1,12.923,10.9583Z" fill="none" stroke="#00a5ff" stroke-miterlimit="10" stroke-width=".1"/>
    <rect x="16" y="4" width="40" height="64" rx="2.2537" fill="none" stroke="#00a5ff" stroke-miterlimit="10" stroke-width=".1"/>
    <rect x="16" y="4" width="40" height="64" rx="2.2537" transform="translate(72) rotate(90)" fill="none" stroke="#00a5ff" stroke-miterlimit="10" stroke-width=".1"/>
    <circle cx="36" cy="36" r="29" fill="none" stroke="#00a5ff" stroke-miterlimit="10" stroke-width=".1"/>
  </g>
  <g id="color">
    <path fill="#9B9B9A" d="M48.0626,62.92c0-3.3137-5.5964-6-12.5-6s-12.5,2.6863-12.5,6H48.0626z" stroke="none"/>
    <path fill="#D0CFCE" d="M24.9006,46.9656c0,2.1938-2.1985,3.9723-4.9106,3.9723s-4.9106-1.7785-4.9106-3.9723H24.9006z" stroke="none"/>
    <path fill="#D0CFCE" d="M57.9006,46.9248c0,2.1938-2.1985,3.9723-4.9106,3.9723c-2.712,0-4.9106-1.7785-4.9106-3.9723H57.9006z" stroke="none"/>
  </g>
  <g id="hair"/>
  <g id="skin"/>
  <g id="skin-shadow"/>
  <g id="line">
    <path fill="none" stroke="#000000" stroke-width="2" stroke-linecap="round" stroke-linejoin="round" stroke-miterlimit="10" d="M15.9996,25.1697c2.6667,0.0001,8.9544-5.3333,20.0002-5.3333S50.6666,23.8365,56,25.1697"/>
    <line fill="none" stroke="#000000" stroke-width="2" stroke-linecap="round" stroke-linejoin="round" stroke-miterlimit="10" x1="35.9998" y1="23.9064" x2="35.9998" y2="51.9064"/>
    <circle cx="35.9998" cy="13.895" r="3" fill="#000000" stroke="none"/>
    <path fill="none" stroke="#000000" stroke-width="2" stroke-linecap="round" stroke-linejoin="round" stroke-miterlimit="10" d="M48,61.9064c0-3.3137-5.5964-6-12.5-6s-12.5,2.6863-12.5,6"/>
    <path fill="none" stroke="#000000" stroke-width="2" stroke-linecap="round" stroke-linejoin="round" stroke-miterlimit="10" d="M26,45.9064c0,3.3137-2.6863,6-6,6s-6-2.6863-6-6H26z"/>
    <polygon fill="none" stroke="#000000" stroke-width="2" stroke-linecap="round" stroke-linejoin="round" stroke-miterlimit="10" points="20,27.9064 15,45.9064 25,45.9064"/>
    <line fill="none" stroke="#000000" stroke-width="2" stroke-linecap="round" stroke-linejoin="round" stroke-miterlimit="10" x1="20" y1="27.9064" x2="20" y2="45.9064"/>
    <path fill="none" stroke="#000000" stroke-width="2" stroke-linecap="round" stroke-linejoin="round" stroke-miterlimit="10" d="M59,45.9064c0,3.3137-2.6863,6-6,6s-6-2.6863-6-6H59z"/>
    <polygon fill="none" stroke="#000000" stroke-width="2" stroke-linecap="round" stroke-linejoin="round" stroke-miterlimit="10" points="53,27.9064 48,45.9064 58,45.9064"/>
    <line fill="none" stroke="#000000" stroke-width="2" stroke-linecap="round" stroke-linejoin="round" stroke-miterlimit="10" x1="53" y1="27.9064" x2="53" y2="45.9064"/>
  </g>
</svg>
