<svg id="emoji" viewBox="0 0 72 72" xmlns="http://www.w3.org/2000/svg">
  <g id="grid">
    <path fill="#b3b3b3" d="M68,4V68H4V4H68m4-4H0V72H72V0Z"/>
    <path fill="none" stroke="#00a5ff" stroke-miterlimit="10" stroke-width="0.1" d="M12.923,10.9583H59.0769A1.9231,1.9231,0,0,1,61,12.8814V59.0352a1.9231,1.9231,0,0,1-1.9231,1.9231H12.9231A1.9231,1.9231,0,0,1,11,59.0352V12.8813A1.923,1.923,0,0,1,12.923,10.9583Z"/>
    <rect x="16" y="4" rx="2.2537" ry="2.2537" width="40" height="64" fill="none" stroke="#00a5ff" stroke-miterlimit="10" stroke-width="0.1"/>
    <rect x="16" y="4" rx="2.2537" ry="2.2537" width="40" height="64" transform="rotate(90 36 36)" fill="none" stroke="#00a5ff" stroke-miterlimit="10" stroke-width="0.1"/>
    <circle cx="36" cy="36" r="29" fill="none" stroke="#00a5ff" stroke-miterlimit="10" stroke-width="0.1"/>
  </g>
  <g id="color">
    <polygon fill="#a57939" points="37.5 11.5 37.4 42.6 38.6 46.2 38.6 61.9 37.4 61.9 33.8 61.9 32.6 61.9 32.6 46.2 33.8 42.6 33.8 11.5 37.5 11.5"/>
    <path fill="#d0cfce" d="M58.6,23.3c-2-4.7-11.3-8.2-22.6-8.2-11.4,0-20.8,3.6-22.7,8.3l8-1.5a80.71,80.71,0,0,1,29.4-.1Z"/>
  </g>
  <g id="line">
    <polygon fill="none" stroke="#000" stroke-linecap="round" stroke-linejoin="round" stroke-width="2" points="37.5 20.4 37.4 42.3 38.6 46 38.6 61.7 37.4 61.7 33.8 61.7 32.6 61.7 32.6 46 33.8 42.3 33.8 20.4 37.5 20.4"/>
    <polygon fill="none" stroke="#000" stroke-linecap="round" stroke-linejoin="round" stroke-width="2" points="37.5 11.7 37.4 14.9 33.8 14.9 33.8 11.7 37.5 11.7"/>
    <path fill="none" stroke="#000" stroke-linecap="round" stroke-linejoin="round" stroke-width="2" d="M58.6,23.1c-2-4.7-11.3-8.2-22.6-8.2-11.4,0-20.8,3.6-22.7,8.3l8-1.5a80.71,80.71,0,0,1,29.4-.1Z"/>
  </g>
</svg>
