<?xml version="1.0" encoding="UTF-8"?>
<svg id="emoji" xmlns="http://www.w3.org/2000/svg" viewBox="0 0 72 72">
  <g id="grid">
    <path d="m68,4v64H4V4h64m4-4H0v72h72V0Z" fill="#b3b3b3"/>
    <path d="m12.923,10.9583h46.1539c1.0621,0,1.9231.861,1.9231,1.9231h0v46.1538c0,1.0621-.861,1.9231-1.9231,1.9231H12.9231c-1.0621,0-1.9231-.861-1.9231-1.9231h0V12.8813c0-1.062.861-1.923,1.923-1.923h0Z" fill="none" stroke="#00a5ff" stroke-miterlimit="10" stroke-width=".1"/>
    <rect x="16" y="4" width="40" height="64" rx="2.2537" ry="2.2537" fill="none" stroke="#00a5ff" stroke-miterlimit="10" stroke-width=".1"/>
    <rect x="4" y="16" width="64" height="40" rx="2.2537" ry="2.2537" fill="none" stroke="#00a5ff" stroke-miterlimit="10" stroke-width=".1"/>
    <circle cx="36" cy="36" r="29" fill="none" stroke="#00a5ff" stroke-miterlimit="10" stroke-width=".1"/>
  </g>
  <g id="color">
    <ellipse cx="35.2534" cy="15.34" rx="3.848" ry="4.6643" fill="#fff"/>
    <ellipse cx="35.3381" cy="36.0202" rx="3.848" ry="4.6643" fill="#fff"/>
    <ellipse cx="35.5076" cy="57.0394" rx="3.848" ry="4.6643" fill="#fff"/>
    <path d="m42.6346,12.4476c-.4574-3.6438-3.5668-6.4626-7.3346-6.4626-4.0828,0-7.3925,3.3097-7.3925,7.3925v3.8019c0,4.0828,3.3098,7.3925,7.3925,7.3925s7.3925-3.3097,7.3925-7.3925v-3.8019c0-.315-.0197-.6253-.0579-.9299Zm-3.0878,3.9228c0,2.3455-1.9014,4.2468-4.2468,4.2468s-4.2468-1.9014-4.2468-4.2468v-2.184c0-2.3455,1.9014-4.2467,4.2468-4.2467,2.1645,0,3.9507,1.6191,4.2135,3.7124.022.175.0333.3533.0333.5343v2.184Z" fill="#d0cfce"/>
    <path d="m42.6346,33.2616c-.4574-3.6438-3.5668-6.4625-7.3346-6.4625-4.0828,0-7.3925,3.3097-7.3925,7.3925v3.8019c0,4.0828,3.3098,7.3925,7.3925,7.3925s7.3925-3.3097,7.3925-7.3925v-3.8019c0-.315-.0197-.6253-.0579-.93Zm-3.0878,3.9228c0,2.3455-1.9014,4.2468-4.2468,4.2468s-4.2468-1.9014-4.2468-4.2468v-2.184c0-2.3455,1.9014-4.2467,4.2468-4.2467,2.1645,0,3.9507,1.6191,4.2135,3.7124.022.175.0333.3533.0333.5343v2.184Z" fill="#d0cfce"/>
    <path d="m42.6346,54.0756c-.4574-3.6438-3.5668-6.4625-7.3346-6.4625-4.0828,0-7.3925,3.3097-7.3925,7.3925v3.8019c0,4.0828,3.3098,7.3925,7.3925,7.3925s7.3925-3.3097,7.3925-7.3925v-3.8019c0-.315-.0197-.6253-.0579-.93Zm-3.0878,3.9228c0,2.3455-1.9014,4.2468-4.2468,4.2468s-4.2468-1.9014-4.2468-4.2468v-2.184c0-2.3455,1.9014-4.2467,4.2468-4.2467,2.1645,0,3.9507,1.6191,4.2135,3.7124.022.175.0333.3533.0333.5343v2.184Z" fill="#d0cfce"/>
  </g>
  <g id="line">
    <path d="m39.5468,57.9985c0,2.3454-1.9013,4.2468-4.2468,4.2468s-4.2468-1.9013-4.2468-4.2468v-2.184c0-2.3454,1.9013-4.2468,4.2468-4.2468,2.1645,0,3.9507,1.6193,4.2135,3.7125.022.175.0333.3533.0333.5342v2.1841Z" fill="none" stroke="#000" stroke-linecap="round" stroke-linejoin="round" stroke-width="2"/>
    <path d="m42.6925,58.8074c0,4.0828-3.3097,7.3925-7.3925,7.3925s-7.3925-3.3097-7.3925-7.3925v-3.8019c0-4.0828,3.3097-7.3925,7.3925-7.3925,3.7678,0,6.8772,2.8188,7.3346,6.4625.0382.3046.0579.615.0579.93v3.8019Z" fill="none" stroke="#000" stroke-linecap="round" stroke-linejoin="round" stroke-width="2"/>
    <path d="m39.5468,37.1845c0,2.3454-1.9013,4.2468-4.2468,4.2468s-4.2468-1.9013-4.2468-4.2468v-2.184c0-2.3454,1.9013-4.2468,4.2468-4.2468,2.1645,0,3.9507,1.6193,4.2135,3.7125.022.175.0333.3533.0333.5342v2.1841Z" fill="none" stroke="#000" stroke-linecap="round" stroke-linejoin="round" stroke-width="2"/>
    <path d="m42.6925,37.9934c0,4.0828-3.3097,7.3925-7.3925,7.3925s-7.3925-3.3097-7.3925-7.3925v-3.8019c0-4.0828,3.3097-7.3925,7.3925-7.3925,3.7678,0,6.8772,2.8188,7.3346,6.4625.0382.3046.0579.615.0579.93v3.8019Z" fill="none" stroke="#000" stroke-linecap="round" stroke-linejoin="round" stroke-width="2"/>
    <path d="m39.5468,16.3705c0,2.3454-1.9013,4.2468-4.2468,4.2468s-4.2468-1.9013-4.2468-4.2468v-2.184c0-2.3454,1.9013-4.2468,4.2468-4.2468,2.1645,0,3.9507,1.6193,4.2135,3.7125.022.175.0333.3533.0333.5342v2.1841Z" fill="none" stroke="#000" stroke-linecap="round" stroke-linejoin="round" stroke-width="2"/>
    <path d="m42.6925,17.1794c0,4.0828-3.3097,7.3925-7.3925,7.3925s-7.3925-3.3097-7.3925-7.3925v-3.8019c0-4.0828,3.3097-7.3925,7.3925-7.3925,3.7678,0,6.8772,2.8188,7.3346,6.4625.0382.3046.0579.615.0579.93v3.8019Z" fill="none" stroke="#000" stroke-linecap="round" stroke-linejoin="round" stroke-width="2"/>
    <line x1="35.5" y1="38.8919" x2="35.5" y2="54" fill="none" stroke="#000" stroke-linecap="round" stroke-linejoin="round" stroke-width="2"/>
    <line x1="35.5" y1="17.9307" x2="35.5" y2="33.0389" fill="none" stroke="#000" stroke-linecap="round" stroke-linejoin="round" stroke-width="2"/>
  </g>
</svg>