<svg id="emoji" viewBox="0 0 72 72" xmlns="http://www.w3.org/2000/svg">
  <g id="grid">
    <path fill="#b3b3b3" d="M68,4V68H4V4H68m4-4H0V72H72V0Z"/>
    <path fill="none" stroke="#00a5ff" stroke-miterlimit="10" stroke-width="0.1" d="M12.9231,10.9583H59.077A1.923,1.923,0,0,1,61,12.8813V59.0352a1.9231,1.9231,0,0,1-1.9231,1.9231H12.9231A1.9231,1.9231,0,0,1,11,59.0352V12.8814a1.9231,1.9231,0,0,1,1.9231-1.9231Z"/>
    <rect x="16" y="4" rx="2.2537" width="40" height="64" fill="none" stroke="#00a5ff" stroke-miterlimit="10" stroke-width="0.1"/>
    <rect x="16" y="4" rx="2.2537" width="40" height="64" transform="rotate(90 36 36)" fill="none" stroke="#00a5ff" stroke-miterlimit="10" stroke-width="0.1"/>
    <circle cx="36" cy="36" r="29" fill="none" stroke="#00a5ff" stroke-miterlimit="10" stroke-width="0.1"/>
  </g>
  <g id="color">
    <ellipse cx="36.4596" cy="21.9147" rx="11.0195" ry="11.0971" fill="#3f3f3f"/>
    <ellipse cx="36.4865" cy="40.6831" rx="16.5287" ry="17.9871" fill="#d22f27"/>
  </g>
  <g id="line">
    <path fill="none" stroke="#000" stroke-linecap="round" stroke-linejoin="round" stroke-width="2" d="M18.9837,21.7274c0,3.3082,4.2257,5.9138,5.4833,6.6049"/>
    <path fill="none" stroke="#000" stroke-linecap="round" stroke-linejoin="round" stroke-width="2" d="M14.1235,38.2566c0,.7364,3.9538,2.0393,5.8345,2.6284"/>
    <path fill="none" stroke="#000" stroke-linecap="round" stroke-linejoin="round" stroke-width="2" d="M18.9837,57.6974c0-2.8776,3.1948-4.69,4.8488-5.438"/>
    <path fill="none" stroke="#000" stroke-linecap="round" stroke-linejoin="round" stroke-width="2" d="M49.126,28.53s4.8614-3.8891,4.8614-6.806"/>
    <path fill="none" stroke="#000" stroke-linecap="round" stroke-linejoin="round" stroke-width="2" d="M53.005,40.1373a8.4318,8.4318,0,0,0,4.8715-1.8807"/>
    <path fill="none" stroke="#000" stroke-linecap="round" stroke-linejoin="round" stroke-width="2" d="M48.6433,52.8712c1.2575.1133,4.5656.7251,5.3473,3.8519"/>
    <path fill="none" stroke="#000" stroke-linecap="round" stroke-linejoin="round" stroke-width="2" d="M29.6784,9.0842c.759,3.0135,2.0958,3.6932,2.6623,3.8405"/>
    <path fill="none" stroke="#000" stroke-linecap="round" stroke-linejoin="round" stroke-width="2" d="M42.32,12.9732s2.6586-2.3334,1.9939-3.889"/>
    <ellipse cx="36.4865" cy="40.6831" rx="16.5287" ry="17.9871" fill="none" stroke="#000" stroke-linecap="round" stroke-linejoin="round" stroke-width="2"/>
    <line x1="36.4865" x2="36.4865" y1="23.6682" y2="57.6979" fill="none" stroke="#000" stroke-linecap="round" stroke-linejoin="round" stroke-width="2"/>
    <circle cx="26.8192" cy="35.2801" r="2"/>
    <circle cx="46.2647" cy="35.2801" r="2"/>
    <circle cx="42.3756" cy="41.1138" r="2"/>
    <circle cx="46.2647" cy="46.9474" r="2"/>
    <circle cx="30.7082" cy="41.1138" r="2"/>
    <circle cx="26.8192" cy="46.9474" r="2"/>
    <path fill="none" stroke="#000" stroke-linecap="round" stroke-linejoin="round" stroke-width="2" d="M26.46,21.7237a10.004,10.004,0,0,1,20,0"/>
  </g>
</svg>
