<svg id="emoji" xmlns="http://www.w3.org/2000/svg" viewBox="0 0 72 72">
  <g id="grid">
    <path d="M68,4V68H4V4H68m4-4H0V72H72V0Z" fill="#b3b3b3"/>
    <path d="M12.923,10.9583H59.0769A1.9231,1.9231,0,0,1,61,12.8814V59.0352a1.9231,1.9231,0,0,1-1.9231,1.9231H12.9231A1.9231,1.9231,0,0,1,11,59.0352V12.8813A1.923,1.923,0,0,1,12.923,10.9583Z" fill="none" stroke="#00a5ff" stroke-miterlimit="10" stroke-width=".1"/>
    <rect x="16" y="4" width="40" height="64" rx="2.2537" fill="none" stroke="#00a5ff" stroke-miterlimit="10" stroke-width=".1"/>
    <rect x="16" y="4" width="40" height="64" rx="2.2537" transform="translate(72) rotate(90)" fill="none" stroke="#00a5ff" stroke-miterlimit="10" stroke-width=".1"/>
    <circle cx="36" cy="36" r="29" fill="none" stroke="#00a5ff" stroke-miterlimit="10" stroke-width=".1"/>
  </g>
  <g id="color">
    <path fill="#B1CC33" d="M24.8935,49v-2.0773v-5.1492c0,0-10.7611-4.0651-8.6089-11.9244S28,22,30.9018,23.887 c6.4988,4.2259,4.7528,17.6156,4.7528,17.6156L36,43.9702" stroke="none"/>
    <path fill="#5C9E31" d="M32,59c-3.0952-3.2485-6.4728-11.1872-6.4728-11.1872l10.6422-5.3279c0,0,3.851,5.3032,5.8305,6.515L32,59z" stroke="none"/>
    <path fill="#5C9E31" d="M47,59c0,0,9-1,10-5s-7-4-8-4" stroke="none"/>
    <path fill="#B1CC33" d="M32,57l8.631-8.0499c0,0,7.3727,0.1723,9.369,0.0499l-3,10L32,57z" stroke="none"/>
  </g>
  <g id="hair"/>
  <g id="skin"/>
  <g id="skin-shadow"/>
  <g id="line">
    <line fill="none" stroke="#000000" stroke-width="2" stroke-linecap="round" stroke-linejoin="round" stroke-miterlimit="10" x1="22.025" y1="22.6078" x2="21" y2="19"/>
    <line fill="none" stroke="#000000" stroke-width="2" stroke-linecap="round" stroke-linejoin="round" stroke-miterlimit="10" x1="26.5193" y1="22.1874" x2="28" y2="18"/>
    <path fill="none" stroke="#000000" stroke-width="2" stroke-linecap="round" stroke-linejoin="round" stroke-miterlimit="10" d="M37,58"/>
    <line fill="none" stroke="#000000" stroke-width="2" stroke-linecap="round" stroke-linejoin="round" stroke-miterlimit="10" x1="58.3536" y1="51.1464" x2="57.6464" y2="51.8536"/>
    <path fill="none" stroke="#000000" stroke-width="2" stroke-linecap="round" stroke-linejoin="round" stroke-miterlimit="10" d="M25,46v-4.75c0,0-10-3.75-8-11s7.1667-8.75,13.5833-5.5S35,41,35,41"/>
    <path fill="none" stroke="#000000" stroke-width="2" stroke-linecap="round" stroke-linejoin="round" stroke-miterlimit="10" d="M25.4864,48.2555c0,0,1.1226,4.5305,4.2772,7.3093L29,57"/>
    <path fill="none" stroke="#000000" stroke-width="2" stroke-linecap="round" stroke-linejoin="round" stroke-miterlimit="10" d="M36.238,43.1573c0,0,0.8973,3.0323,2.8621,4.0998"/>
    <line fill="none" stroke="#000000" stroke-width="2" stroke-linecap="round" stroke-linejoin="round" stroke-miterlimit="10" x1="25.5262" y1="48.7959" x2="24.0066" y2="49.7447"/>
    <line fill="none" stroke="#000000" stroke-width="2" stroke-linecap="round" stroke-linejoin="round" stroke-miterlimit="10" x1="27.1679" y1="52.6874" x2="25.8693" y2="53.8105"/>
    <path fill="none" stroke="#000000" stroke-width="2" stroke-linecap="round" stroke-linejoin="round" stroke-miterlimit="10" d="M42.3022,59.8683"/>
    <path fill="none" stroke="#000000" stroke-width="2" stroke-linecap="round" stroke-linejoin="round" stroke-miterlimit="10" d="M41.6291,48.8889c0,0,3.0556,0.8146,5.0518,0.6922"/>
    <path fill="none" stroke="#000000" stroke-width="2" stroke-linecap="round" stroke-linejoin="round" stroke-miterlimit="10" d="M37,58"/>
    <path fill="none" stroke="#000000" stroke-width="2" stroke-linecap="round" stroke-linejoin="round" stroke-miterlimit="10" d="M32.0304,59.496l0.8949-2.0586c0,0,1.4199,0.5918,4.0107,1.0004c1.8606,0.2934,4.325,0.4924,7.3012,0.31l0.1224,1.9963"/>
    <line fill="none" stroke="#000000" stroke-width="2" stroke-linecap="round" stroke-linejoin="round" stroke-miterlimit="10" x1="41.2467" y1="59.933" x2="41.3079" y2="60.9311"/>
    <line fill="none" stroke="#000000" stroke-width="2" stroke-linecap="round" stroke-linejoin="round" stroke-miterlimit="10" x1="38.1338" y1="59.1219" x2="38.2562" y2="61.1182"/>
    <line fill="none" stroke="#000000" stroke-width="2" stroke-linecap="round" stroke-linejoin="round" stroke-miterlimit="10" x1="35.3209" y1="58.2925" x2="35.1433" y2="60.3071"/>
    <path fill="none" stroke="#000000" stroke-width="2" stroke-linecap="round" stroke-linejoin="round" stroke-miterlimit="10" d="M48,59c0,0,8-1,9-5s-6-4-7-4"/>
    <line fill="none" stroke="#000000" stroke-width="2" stroke-linecap="round" stroke-linejoin="round" stroke-miterlimit="10" x1="49.1025" y1="59.0139" x2="49.238" y2="60.2606"/>
    <line fill="none" stroke="#000000" stroke-width="2" stroke-linecap="round" stroke-linejoin="round" stroke-miterlimit="10" x1="52.9895" y1="58.0368" x2="53.351" y2="59.2377"/>
    <line fill="none" stroke="#000000" stroke-width="2" stroke-linecap="round" stroke-linejoin="round" stroke-miterlimit="10" x1="55.7968" y1="56.1335" x2="56.5437" y2="57.1409"/>
  </g>
</svg>
