<svg id="emoji" viewBox="0 0 72 72" xmlns="http://www.w3.org/2000/svg">
  <g id="grid">
    <path fill="#b3b3b3" d="M68,4V68H4V4H68m4-4H0V72H72V0h0Z"/>
    <rect x="11" y="10.9583" rx="1.923" ry="1.923" width="50" height="50" fill="none" stroke="#00a5ff" stroke-miterlimit="10" stroke-width="0.1"/>
    <rect x="16" y="4" rx="2.2537" ry="2.2537" width="40" height="64" fill="none" stroke="#00a5ff" stroke-miterlimit="10" stroke-width="0.1"/>
    <rect x="4" y="16" rx="2.2537" ry="2.2537" width="64" height="40" fill="none" stroke="#00a5ff" stroke-miterlimit="10" stroke-width="0.1"/>
    <circle cx="36" cy="36" r="29" fill="none" stroke="#00a5ff" stroke-miterlimit="10" stroke-width="0.1"/>
  </g>
  <g id="color">
    <circle cx="39.8663" cy="46.2466" r="3.8663" fill="#fcea2b"/>
  </g>
  <g id="skin">
    <path fill="#fcea2b" d="M31.2093,13.9433c.6705-3.2503,4.0434-6.6603,6.857-6.6603,1.6504,0,2.3534,.6565,2.3534,2.0065,0,7.0439,.9289,9.4563,3.4356,15.1189l4.6067,9.1357L31.1413,17.3864l.068-3.4431Z"/>
    <path fill="#fcea2b" d="M33.7419,32.0882c-1.6066-1.6066-4.2115-1.6066-5.8182,0-1.6067,1.6066-1.6066,4.2115,0,5.8182l1.4969,1.4387c-1.6066-1.6066-4.2115-1.6066-5.8182,0s-1.6066,4.2115,0,5.8182l1.4545,1.4545c-1.6066-1.6066-4.2115-1.6066-5.8182,0s-1.6066,4.2115,0,5.8182l6.7966,6.7757c6.4264,6.4264,16.8456,6.4264,23.272,0s6.3817-16.8009-.0447-23.2273l-5.982-5.982L24.9107,11.6324c-1.6049-1.6049-4.207-1.6049-5.8119,0s-1.6049,4.207,0,5.8119l14.6435,14.6435"/>
  </g>
  <g id="line">
    <path fill="none" stroke="#000" stroke-linecap="round" stroke-linejoin="round" stroke-width="2" d="M33.7419,32.0882c-1.6066-1.6066-4.2115-1.6066-5.8182,0-1.6067,1.6066-1.6066,4.2115,0,5.8182l1.4969,1.4387c-1.6066-1.6066-4.2115-1.6066-5.8182,0s-1.6066,4.2115,0,5.8182l1.4545,1.4545c-1.6066-1.6066-4.2115-1.6066-5.8182,0s-1.6066,4.2115,0,5.8182l6.7966,6.7757c6.4264,6.4264,16.8456,6.4264,23.272,0s6.3817-16.8009-.0447-23.2273l-5.982-5.982L24.9107,11.6324c-1.6049-1.6049-4.207-1.6049-5.8119,0s-1.6049,4.207,0,5.8119l14.6435,14.6435 z"/>
    <path fill="none" stroke="#000" stroke-linecap="round" stroke-linejoin="round" stroke-width="2" d="M32.2004,13.6461c0-3.688,3.0522-6.3632,5.8659-6.3632,1.6504,0,2.3534,.6565,2.3534,2.0065,0,6.8778,.2017,10.1006,2.5447,15.5202"/>
  </g>
</svg>
