<svg id="emoji" viewBox="0 0 72 72" xmlns="http://www.w3.org/2000/svg">
  <g id="grid">
    <path fill="#b3b3b3" d="M68,4V68H4V4H68m4-4H0V72H72V0Z"/>
    <path fill="none" stroke="#00a5ff" stroke-miterlimit="10" stroke-width="0.1" d="M12.923,10.9583H59.0769A1.9231,1.9231,0,0,1,61,12.8814V59.0352a1.9231,1.9231,0,0,1-1.9231,1.9231H12.9231A1.9231,1.9231,0,0,1,11,59.0352V12.8813A1.923,1.923,0,0,1,12.923,10.9583Z"/>
    <rect x="16" y="4" rx="2.2537" width="40" height="64" fill="none" stroke="#00a5ff" stroke-miterlimit="10" stroke-width="0.1"/>
    <rect x="16" y="4" rx="2.2537" width="40" height="64" transform="rotate(90 36 36)" fill="none" stroke="#00a5ff" stroke-miterlimit="10" stroke-width="0.1"/>
    <circle cx="36" cy="36" r="29" fill="none" stroke="#00a5ff" stroke-miterlimit="10" stroke-width="0.1"/>
  </g>
  <g id="color"/>
  <g id="hair"/>
  <g id="skin">
    <path fill="#fcea2b" stroke="none" d="M6.523,24.2978c-0.8267-1.1121-2.3985-1.3435-3.5107-0.5167s-1.3435,2.3985-0.5167,3.5107 c0.1325,0.1783,0.2881,0.3382,0.4628,0.4755l9.417,9.6754l0.8938,0.8849l-5.153-5.3427c-0.8267-1.1121-2.3985-1.3435-3.5107-0.5167 c-1.1121,0.8268-1.3435,2.3985-0.5167,3.5107c0.1325,0.1783,0.2881,0.3382,0.4628,0.4755l6.4432,6.62l5.0941,5.0412 c4.3891,3.9622,10.7435,2.9533,14.7048-1.4348c2.2744-2.5411,3.5384-5.8278,3.5528-9.238 c-0.0868-3.019-0.7282-10.8638-0.7282-10.8638c-0.3494-1.8195-2.5956-2.9255-2.7502-1.9455l-2.6253,7.2992l-2.7327-2.6936 l2.7327,2.6936l-2.7327-2.6936L14.5505,18.2397c-0.8267-1.1121-2.3985-1.3435-3.5107-0.5167 c-1.1121,0.8268-1.3435,2.3985-0.5167,3.5107c0.1325,0.1783,0.2881,0.3382,0.4628,0.4755l3.4694,3.5646l4.7716,4.9416 L8.7396,19.376c-0.8267-1.1121-2.3985-1.3435-3.5107-0.5167c-1.1121,0.8268-1.3435,2.3985-0.5167,3.5107 c0.1325,0.1783,0.2881,0.3382,0.4628,0.4755l9.5524,9.7181"/>
    <path fill="#fcea2b" stroke="none" d="M65.8237,24.2978c0.8267-1.1121,2.3985-1.3435,3.5107-0.5167s1.3435,2.3985,0.5167,3.5107 c-0.1325,0.1783-0.2881,0.3382-0.4628,0.4755l-9.417,9.6754l-0.8938,0.8849l5.153-5.3427 c0.8268-1.1121,2.3985-1.3435,3.5107-0.5167c1.1121,0.8268,1.3435,2.3985,0.5167,3.5107 c-0.1325,0.1783-0.2881,0.3382-0.4628,0.4755l-6.4432,6.62l-5.0941,5.0412c-4.3891,3.9622-10.7435,2.9533-14.7048-1.4348 c-2.2744-2.5411-3.5384-5.8278-3.5528-9.238c0.0868-3.019,0.7283-10.8638,0.7283-10.8638 c0.3494-1.8195,2.5956-2.9255,2.7502-1.9455l2.6253,7.2992l2.7327-2.6936l-2.7327,2.6936l2.7327-2.6936l10.9595-10.9992 c0.8267-1.1121,2.3985-1.3435,3.5107-0.5167c1.1121,0.8268,1.3435,2.3985,0.5167,3.5107 c-0.1325,0.1783-0.2881,0.3382-0.4628,0.4755l-3.4694,3.5646l-4.7716,4.9416L63.6071,19.376 c0.8267-1.1121,2.3985-1.3435,3.5107-0.5167c1.1121,0.8268,1.3435,2.3985,0.5167,3.5107 c-0.1325,0.1783-0.2881,0.3382-0.4628,0.4755l-9.5524,9.7181"/>
  </g>
  <g id="skin-shadow"/>
  <g id="line">
    <path fill="none" stroke="#000000" stroke-linecap="round" stroke-linejoin="round" stroke-width="2" d="M6.523,24.2978 c-0.8267-1.1121-2.3985-1.3435-3.5107-0.5167s-1.3435,2.3985-0.5167,3.5107c0.1325,0.1783,0.2881,0.3382,0.4628,0.4755 l9.417,9.6754l0.8938,0.8849l-5.153-5.3427c-0.8267-1.1121-2.3985-1.3435-3.5107-0.5167 c-1.1121,0.8268-1.3435,2.3985-0.5167,3.5107c0.1325,0.1783,0.2881,0.3382,0.4628,0.4755l6.4432,6.62l5.0941,5.0412 c4.3891,3.9622,10.7435,2.9533,14.7048-1.4348c2.2744-2.5411,3.5384-5.8278,3.5528-9.238 c-0.0868-3.019-0.7282-10.8638-0.7282-10.8638c-0.3494-1.8195-2.5956-2.9255-2.7502-1.9455l-2.6253,7.2992l-2.7327-2.6936 l2.7327,2.6936l-2.7327-2.6936L14.5505,18.2397c-0.8267-1.1121-2.3985-1.3435-3.5107-0.5167 c-1.1121,0.8268-1.3435,2.3985-0.5167,3.5107c0.1325,0.1783,0.2881,0.3382,0.4628,0.4755l3.4694,3.5646l4.7716,4.9416 L8.7396,19.376c-0.8267-1.1121-2.3985-1.3435-3.5107-0.5167c-1.1121,0.8268-1.3435,2.3985-0.5167,3.5107 c0.1325,0.1783,0.2881,0.3382,0.4628,0.4755l9.5524,9.7181"/>
    <path fill="none" stroke="#000000" stroke-linecap="round" stroke-linejoin="round" stroke-width="2" d="M65.8237,24.2978 c0.8267-1.1121,2.3985-1.3435,3.5107-0.5167s1.3435,2.3985,0.5167,3.5107c-0.1325,0.1783-0.2881,0.3382-0.4628,0.4755 l-9.417,9.6754l-0.8938,0.8849l5.153-5.3427c0.8268-1.1121,2.3985-1.3435,3.5107-0.5167c1.1121,0.8268,1.3435,2.3985,0.5167,3.5107 c-0.1325,0.1783-0.2881,0.3382-0.4628,0.4755l-6.4432,6.62l-5.0941,5.0412c-4.3891,3.9622-10.7435,2.9533-14.7048-1.4348 c-2.2744-2.5411-3.5384-5.8278-3.5528-9.238c0.0868-3.019,0.7283-10.8638,0.7283-10.8638 c0.3494-1.8195,2.5956-2.9255,2.7502-1.9455l2.6253,7.2992l2.7327-2.6936l-2.7327,2.6936l2.7327-2.6936l10.9595-10.9992 c0.8267-1.1121,2.3985-1.3435,3.5107-0.5167c1.1121,0.8268,1.3435,2.3985,0.5167,3.5107 c-0.1325,0.1783-0.2881,0.3382-0.4628,0.4755l-3.4694,3.5646l-4.7716,4.9416L63.6071,19.376 c0.8267-1.1121,2.3985-1.3435,3.5107-0.5167c1.1121,0.8268,1.3435,2.3985,0.5167,3.5107 c-0.1325,0.1783-0.2881,0.3382-0.4628,0.4755l-9.5524,9.7181"/>
  </g>
</svg>
