<svg id="emoji" xmlns="http://www.w3.org/2000/svg" viewBox="0 0 72 72">
  <g id="grid">
    <path d="M68,4V68H4V4H68m4-4H0V72H72V0Z" fill="#b3b3b3"/>
    <path d="M12.923,10.9583H59.0769A1.9231,1.9231,0,0,1,61,12.8814V59.0352a1.9231,1.9231,0,0,1-1.9231,1.9231H12.9231A1.9231,1.9231,0,0,1,11,59.0352V12.8813A1.923,1.923,0,0,1,12.923,10.9583Z" fill="none" stroke="#00a5ff" stroke-miterlimit="10" stroke-width="0.1"/>
    <rect x="16" y="4" width="40" height="64" rx="2.2537" fill="none" stroke="#00a5ff" stroke-miterlimit="10" stroke-width="0.1"/>
    <rect x="16" y="4" width="40" height="64" rx="2.2537" transform="rotate(90 36 36)" fill="none" stroke="#00a5ff" stroke-miterlimit="10" stroke-width="0.1"/>
    <circle cx="36" cy="36" r="29" fill="none" stroke="#00a5ff" stroke-miterlimit="10" stroke-width="0.1"/>
  </g>
  <g id="color">
    <line fill="#fcea2b" stroke="none" stroke-width="2" stroke-linecap="round" stroke-linejoin="round" stroke-miterlimit="10" x1="20.5658" y1="35.241" x2="20.5685" y2="19.2249"/>
    <path fill="#fcea2b" stroke="none" stroke-width="2" stroke-linecap="round" stroke-linejoin="round" stroke-miterlimit="10" d="M1.9557,24.2903"/>
    <path fill="#fcea2b" stroke="none" stroke-width="2" stroke-linecap="round" stroke-linejoin="round" stroke-miterlimit="10" d="M3.543,21.3454"/>
  </g>
  <g id="hair"/>
  <g id="skin">
    <path fill="#fcea2b" d="M57.5727,35.9529l-0.1749-18.6731l0.0001,0.7675c-0.0005-3.5223,6.4973-4.4704,6.498,0.8314l0.0603,6.4345 l0.1146,12.2387L63.939,23.4786c-0.0005-3.1731,5.6525-3.2804,5.6531,0.8117l0.0035,24.3792 c0.0013,8.8056-7.0629,15.8274-15.8685,15.8286S37.782,57.362,37.7808,48.5564c0.0464-3.0717-0.2798-8.2946-0.2808-15.3797 c2.1739-2.1745,5.6522,0.8046,6.8519,3.646l0.0007,4.8897l-0.0033-23.0647c-0.0005-3.6647,6.6298-3.9373,6.6304,0.5772 l-0.0004-2.9215c-0.0006-3.9456,6.4176-5.3212,6.4186,1.7439" stroke="none"/>
    <path fill="#fcea2b" d="M13.9751,35.9529L14.15,17.2797l-0.0001,0.7675c0.0005-3.5223-6.4973-4.4704-6.498,0.8314l-0.0603,6.4345 L7.477,37.5517l0.1318-14.0731c0.0005-3.1731-5.6525-3.2804-5.6531,0.8117L1.9522,48.6695 c-0.0013,8.8056,7.0629,15.8274,15.8685,15.8286s15.945-7.1361,15.9463-15.9417c-0.0464-3.0717,0.2798-8.2946,0.2808-15.3797 c-2.1739-2.1745-5.6522,0.8046-6.8519,3.646l-0.0007,4.8897l0.0033-23.0647c0.0005-3.6647-6.6298-3.9373-6.6304,0.5772 l0.0004-2.9215c0.0006-3.9456-6.4176-5.3212-6.4186,1.7439" stroke="none"/>
  </g>
  <g id="skin-shadow"/>
  <g id="line">
    <line fill="none" stroke="#000000" stroke-width="2" stroke-linecap="round" stroke-linejoin="round" stroke-miterlimit="10" x1="20.5658" y1="35.241" x2="20.5685" y2="19.2249"/>
    <path fill="none" stroke="#000000" stroke-width="2" stroke-linecap="round" stroke-linejoin="round" stroke-miterlimit="10" d="M1.9557,24.2903"/>
    <path fill="none" stroke="#000000" stroke-width="2" stroke-linecap="round" stroke-linejoin="round" stroke-miterlimit="10" d="M3.543,21.3454"/>
    <line fill="none" stroke="#000000" stroke-width="2" stroke-linecap="round" stroke-linejoin="round" stroke-miterlimit="10" x1="50.982" y1="37.5517" x2="50.9793" y2="19.2249"/>
    <path fill="none" stroke="#000000" stroke-width="2" stroke-linecap="round" stroke-linejoin="round" stroke-miterlimit="10" d="M57.5727,35.9529l-0.1749-18.6731l0.0001,0.7675c-0.0005-3.5223,6.4973-4.4704,6.498,0.8314l0.0603,6.4345l0.1146,12.2387 L63.939,23.4786c-0.0005-3.1731,5.6525-3.2804,5.6531,0.8117l0.0035,24.3792c0.0013,8.8056-7.0629,15.8274-15.8685,15.8286 S37.782,57.362,37.7808,48.5564c0.0464-3.0717-0.2798-8.2946-0.2808-15.3797c2.1739-2.1745,5.6522,0.8046,6.8519,3.646 l0.0007,4.8897l-0.0033-23.0647c-0.0005-3.6647,6.6298-3.9373,6.6304,0.5772l-0.0004-2.9215 c-0.0006-3.9456,6.4176-5.3212,6.4186,1.7439"/>
    <line fill="none" stroke="#000000" stroke-width="2" stroke-linecap="round" stroke-linejoin="round" stroke-miterlimit="10" x1="50.982" y1="37.5517" x2="50.9793" y2="19.2249"/>
    <line fill="none" stroke="#000000" stroke-width="2" stroke-linecap="round" stroke-linejoin="round" stroke-miterlimit="10" x1="20.5658" y1="37.5517" x2="20.5685" y2="19.2249"/>
    <path fill="none" stroke="#000000" stroke-width="2" stroke-linecap="round" stroke-linejoin="round" stroke-miterlimit="10" d="M1.9557,24.2903"/>
    <path fill="none" stroke="#000000" stroke-width="2" stroke-linecap="round" stroke-linejoin="round" stroke-miterlimit="10" d="M3.543,21.3454"/>
    <path fill="none" stroke="#000000" stroke-width="2" stroke-linecap="round" stroke-linejoin="round" stroke-miterlimit="10" d="M13.9751,35.9529L14.15,17.2797l-0.0001,0.7675c0.0005-3.5223-6.4973-4.4704-6.498,0.8314l-0.0603,6.4345L7.477,37.5517 l0.1318-14.0731c0.0005-3.1731-5.6525-3.2804-5.6531,0.8117L1.9522,48.6695c-0.0013,8.8056,7.0629,15.8274,15.8685,15.8286 s15.945-7.1361,15.9463-15.9417c-0.0464-3.0717,0.2798-8.2946,0.2808-15.3797c-2.1739-2.1745-5.6522,0.8046-6.8519,3.646 l-0.0007,4.8897l0.0033-23.0647c0.0005-3.6647-6.6298-3.9373-6.6304,0.5772l0.0004-2.9215 c0.0006-3.9456-6.4176-5.3212-6.4186,1.7439"/>
  </g>
</svg>
