<svg id="emoji" xmlns="http://www.w3.org/2000/svg" viewBox="0 0 72 72">
  <g id="grid">
    <path d="M68,4V68H4V4H68m4-4H0V72H72V0Z" fill="#b3b3b3"/>
    <path d="M12.923,10.9583H59.0769A1.9231,1.9231,0,0,1,61,12.8814V59.0352a1.9231,1.9231,0,0,1-1.9231,1.9231H12.9231A1.9231,1.9231,0,0,1,11,59.0352V12.8813A1.923,1.923,0,0,1,12.923,10.9583Z" fill="none" stroke="#00a5ff" stroke-miterlimit="10" stroke-width="0.1"/>
    <rect x="16" y="4" width="40" height="64" rx="2.2537" fill="none" stroke="#00a5ff" stroke-miterlimit="10" stroke-width="0.1"/>
    <rect x="16" y="4" width="40" height="64" rx="2.2537" transform="rotate(90 36 36)" fill="none" stroke="#00a5ff" stroke-miterlimit="10" stroke-width="0.1"/>
    <circle cx="36" cy="36" r="29" fill="none" stroke="#00a5ff" stroke-miterlimit="10" stroke-width="0.1"/>
  </g>
  <g id="color">
    <path fill="#92d3f5" d="M27.1667,68H4V56.3333l15-7.5c-2.6034,8.5367,7.4551,14.557,12.5,11.6667L27.1667,68z" stroke="none"/>
    <path fill="#92d3f5" d="M46.2917,68h23.1667V56.3333l-15-7.5c2.6034,8.5367-7.4551,14.557-12.5,11.6667L46.2917,68z" stroke="none"/>
  </g>
  <g id="hair"/>
  <g id="skin">
    <path fill="#fcea2b" d="M29.8302,61.109c-6.1759,0-11.1733-4.7888-11.1733-10.7068c6.625-4.0208,7.2806-13.8397,7.9681-19.4647 c0.5-2.8906,1.7917-2.8906,2.25-5.7812L31.5,7.3474C32.125,4,36.079,4.3418,36.7292,7v46.9167c0,1.9346-2.8958,3.5-3.8958,3.5 C32.0208,57.4167,29.8302,60.4462,29.8302,61.109z" stroke="none"/>
    <path fill="#fcea2b" d="M43.6281,61.109c6.1759,0,11.1733-4.7888,11.1733-10.7068c-6.625-4.0208-7.2806-13.8397-7.9681-19.4647 c-0.5-2.8906-1.7917-2.8906-2.25-5.7812l-2.625-17.8088C41.3333,4,37.3794,4.3418,36.7292,7v46.9167 c0,1.9346,2.8958,3.5,3.8958,3.5C41.4375,57.4167,43.6281,60.4462,43.6281,61.109z" stroke="none"/>
  </g>
  <g id="skin-shadow"/>
  <g id="line">
    <path fill="none" stroke="#000000" stroke-width="2" stroke-linecap="round" stroke-linejoin="round" stroke-miterlimit="10" d="M27.1667,68H4V56.3333l15-7.5c-2.6034,8.5367,7.4551,14.557,12.5,11.6667L27.1667,68z"/>
    <path fill="none" stroke="#000000" stroke-width="2" stroke-linecap="round" stroke-linejoin="round" stroke-miterlimit="10" d="M29.8302,61.109c0-0.6628,2.1906-3.6923,3.0031-3.6923c1,0,3.8958-1.5654,3.8958-3.5V7C36.079,4.3418,32.125,4,31.5,7.3474 l-2.625,17.8088c-0.4583,2.8906-1.75,2.8906-2.25,5.7812c-0.6875,5.625-1.3431,15.4439-7.9681,19.4647"/>
    <path fill="none" stroke="#000000" stroke-width="2" stroke-linecap="round" stroke-linejoin="round" stroke-miterlimit="10" d="M46.2917,68h23.1667V56.3333l-15-7.5c2.6034,8.5367-7.4551,14.557-12.5,11.6667L46.2917,68z"/>
    <path fill="none" stroke="#000000" stroke-width="2" stroke-linecap="round" stroke-linejoin="round" stroke-miterlimit="10" d="M43.6281,61.109c0-0.6628-2.1906-3.6923-3.0031-3.6923c-1,0-3.8958-1.5654-3.8958-3.5V7c0.6502-2.6582,4.6042-3,5.2292,0.3474 l2.625,17.8088c0.4583,2.8906,1.75,2.8906,2.25,5.7812c0.6875,5.625,1.3431,15.4439,7.9681,19.4647"/>
    <line fill="none" stroke="#000000" stroke-width="2" stroke-linecap="round" stroke-linejoin="round" stroke-miterlimit="10" x1="16.3806" y1="19.6075" x2="9.9565" y2="19.8692"/>
    <line fill="none" stroke="#000000" stroke-width="2" stroke-linecap="round" stroke-linejoin="round" stroke-miterlimit="10" x1="21.0759" y1="15.4036" x2="22.0435" y2="9.0474"/>
    <line fill="none" stroke="#000000" stroke-width="2" stroke-linecap="round" stroke-linejoin="round" stroke-miterlimit="10" x1="18.4709" y1="17.2572" x2="15.1357" y2="13.5321"/>
    <line fill="none" stroke="#000000" stroke-width="2" stroke-linecap="round" stroke-linejoin="round" stroke-miterlimit="10" x1="55.6196" y1="19.6075" x2="62.0437" y2="19.8692"/>
    <line fill="none" stroke="#000000" stroke-width="2" stroke-linecap="round" stroke-linejoin="round" stroke-miterlimit="10" x1="50.9243" y1="15.4036" x2="49.9568" y2="9.0474"/>
    <line fill="none" stroke="#000000" stroke-width="2" stroke-linecap="round" stroke-linejoin="round" stroke-miterlimit="10" x1="53.5294" y1="17.2572" x2="56.8646" y2="13.5321"/>
  </g>
</svg>
