<svg id="emoji" viewBox="0 0 72 72" version="1.1" xmlns="http://www.w3.org/2000/svg">
  <g id="grid">
    <path fill="#b3b3b3" d="m68 4v64h-64v-64h64m4-4h-72v72h72z"/>
    <path fill="none" stroke="#00a5ff" stroke-miterlimit="10" stroke-width="0.1" d="m12.92 11h46.15a1.923 1.923 0 0 1 1.923 1.923v46.15a1.923 1.923 0 0 1-1.923 1.923h-46.15a1.923 1.923 0 0 1-1.923-1.923v-46.15a1.923 1.923 0 0 1 1.923-1.923z"/>
    <rect x="16" y="4" rx="2.254" width="40" height="64" fill="none" stroke="#00a5ff" stroke-miterlimit="10" stroke-width="0.1"/>
    <rect x="16" y="4" rx="2.254" width="40" height="64" transform="rotate(90,36,36)" fill="none" stroke="#00a5ff" stroke-miterlimit="10" stroke-width="0.1"/>
    <circle cx="36" cy="36" r="29" fill="none" stroke="#00a5ff" stroke-miterlimit="10" stroke-width="0.1"/>
  </g>
  <g id="line-supplement" fill="none" stroke="#000" stroke-linecap="round" stroke-linejoin="round" stroke-miterlimit="10" stroke-width="6.746" clip-rule="evenodd">
    <path d="m38.16 35.99h-9.003v-11.76h9.003c3.248 0 5.883 2.634 5.883 5.883s-2.634 5.879-5.883 5.879z"/>
    <path d="m38.16 47.77h-9.003v-11.76h9.003c3.248 0 5.883 2.631 5.883 5.879s-2.634 5.883-5.883 5.883z"/>
  </g>
  <g id="color">
    <rect x="12" y="12" width="48" height="47.83" fill="#d22f27"/>
    <path fill="none" stroke="#fff" stroke-linecap="round" stroke-linejoin="round" stroke-width="6.73" d="m38.16 35.99h-9.003v-11.76h9.003c3.248 0 5.883 2.634 5.883 5.883s-2.634 5.879-5.883 5.879z"/>
    <path fill="none" stroke="#fff" stroke-linecap="round" stroke-linejoin="round" stroke-width="6.73" d="m38.16 47.77h-9.003v-11.76h9.003c3.248 0 5.883 2.631 5.883 5.879s-2.634 5.883-5.883 5.883z"/>
  </g>
  <g id="line">
    <rect x="12" y="12" width="48" height="48" fill="none" stroke="#000" stroke-linecap="round" stroke-linejoin="round" stroke-width="2"/>
  </g>
</svg>
