<svg id="emoji" viewBox="0 0 72 72" version="1.1" xmlns="http://www.w3.org/2000/svg">
  <g id="grid">
    <path fill="#b3b3b3" d="m68 4v64h-64v-64h64m4-4h-72v72h72z"/>
    <path fill="none" stroke="#00a5ff" stroke-miterlimit="10" stroke-width="0.1" d="m12.92 10.96h46.15a1.923 1.923 0 0 1 1.923 1.923v46.15a1.923 1.923 0 0 1-1.923 1.923h-46.15a1.923 1.923 0 0 1-1.923-1.923v-46.15a1.923 1.923 0 0 1 1.923-1.923z"/>
    <rect x="16" y="4" rx="2.254" width="40" height="64" fill="none" stroke="#00a5ff" stroke-miterlimit="10" stroke-width="0.1"/>
    <rect x="16" y="4" rx="2.254" width="40" height="64" transform="rotate(90,36,36)" fill="none" stroke="#00a5ff" stroke-miterlimit="10" stroke-width="0.1"/>
    <circle cx="36" cy="36" r="29" fill="none" stroke="#00a5ff" stroke-miterlimit="10" stroke-width="0.1"/>
  </g>
  <g id="line-supplement" transform="translate(-.0006922 -.01378)" fill="none" stroke="#000">
    <rect x="12" y="12.01" ry="5" width="48" height="47.83" stroke-width="2"/>
    <path transform="matrix(3.365 0 0 3.365 29.24 24.38)" fill="none" stroke="#000" stroke-linecap="round" stroke-linejoin="round" stroke-miterlimit="10" stroke-width="2" d="m0 7v-7h2.669c0.963 0 1.744 0.781 1.744 1.744s-0.781 1.743-1.744 1.743h-2.669" clip-rule="evenodd"/>
  </g>
  <g id="color" transform="translate(-.0006922 -.01378)" stroke="#d22f27">
    <rect x="12" y="12.01" ry="5" width="48" height="47.83" fill="#fff" stroke-width="0"/>
    <path transform="matrix(3.365 0 0 3.365 29.24 24.38)" fill="none" stroke="#d22f27" stroke-linecap="round" stroke-linejoin="round" stroke-miterlimit="10" stroke-width="2" d="m0 7v-7h2.669c0.963 0 1.744 0.781 1.744 1.744s-0.781 1.743-1.744 1.743h-2.669" clip-rule="evenodd"/>
    <rect x="12" y="12.01" ry="5" width="48" height="47.83" fill="none" stroke="#d22f27" stroke-width="2"/>
  </g>
  <g id="line"/>
</svg>
