<svg id="emoji" viewBox="0 0 72 72" version="1.1" xmlns="http://www.w3.org/2000/svg">
  <g id="grid">
    <path fill="#b3b3b3" d="m68 4v64h-64v-64h64m4-4h-72v72h72z"/>
    <path fill="none" stroke="#00a5ff" stroke-miterlimit="10" stroke-width="0.1" d="m12.92 11h46.15a1.923 1.923 0 0 1 1.923 1.923v46.15a1.923 1.923 0 0 1-1.923 1.923h-46.15a1.923 1.923 0 0 1-1.923-1.923v-46.15a1.923 1.923 0 0 1 1.923-1.923z"/>
    <rect x="16" y="4" rx="2.254" width="40" height="64" fill="none" stroke="#00a5ff" stroke-miterlimit="10" stroke-width="0.1"/>
    <rect x="16" y="4" rx="2.254" width="40" height="64" transform="rotate(90,36,36)" fill="none" stroke="#00a5ff" stroke-miterlimit="10" stroke-width="0.1"/>
    <circle cx="36" cy="36" r="29" fill="none" stroke="#00a5ff" stroke-miterlimit="10" stroke-width="0.1"/>
  </g>
  <g id="line-supplement" transform="translate(-.005724 -.00219)" clip-rule="evenodd">
    <path transform="matrix(0 1.995 1.995 0 31.96 41.11)" fill="none" stroke="#000" stroke-linecap="round" stroke-linejoin="round" stroke-miterlimit="10" stroke-width="2" d="m-6-1h4.5c1.381 0 2.5-1.119 2.5-2.5 0-1.38-1.119-2.5-2.5-2.5h-4.5"/>
    <path transform="matrix(0 -1.995 -1.995 0 53.7 41.11)" fill="none" stroke="#000" stroke-linecap="round" stroke-linejoin="round" stroke-miterlimit="10" stroke-width="2" d="m-1 8.251h7v-2.669c0-0.963-0.781-1.744-1.744-1.744s-1.743 0.781-1.743 1.744v2.669"/>
    <path transform="matrix(0 -1.995 -1.995 0 53.7 41.11)" fill="none" stroke="#000" stroke-linecap="round" stroke-linejoin="round" stroke-miterlimit="10" stroke-width="2" d="m6.002 0.8143h-4.324"/>
    <path transform="matrix(0 -1.995 -1.995 0 53.7 41.11)" d="m-1-0.1477c-0.552 0-1 0.447-1 1 0 0.552 0.448 1 1 1s1-0.448 1-1c0-0.553-0.448-1-1-1"/>
  </g>
  <g id="color" transform="translate(-.005724 -.00219)">
    <rect x="12" y="12" width="48" height="47.83" transform="translate(.005724 .00219)" fill="#5c9e31"/>
    <path transform="matrix(0,1.995,1.995,0,31.96,41.11)" fill="none" stroke="#fff" stroke-linecap="round" stroke-linejoin="round" stroke-miterlimit="10" stroke-width="2" d="m-6-1h4.5c1.381 0 2.5-1.119 2.5-2.5 0-1.38-1.119-2.5-2.5-2.5h-4.5"/>
    <path transform="matrix(0,-1.995,-1.995,0,53.7,41.11)" fill="none" stroke="#fff" stroke-linecap="round" stroke-linejoin="round" stroke-miterlimit="10" stroke-width="2" d="m-1 8.251h7v-2.669c0-0.963-0.781-1.744-1.744-1.744s-1.743 0.781-1.743 1.744v2.669"/>
    <path transform="matrix(0,-1.995,-1.995,0,53.7,41.11)" fill="none" stroke="#fff" stroke-linecap="round" stroke-linejoin="round" stroke-miterlimit="10" stroke-width="2" d="m6.002 0.8143h-4.324"/>
    <path transform="matrix(0,-1.995,-1.995,0,53.7,41.11)" fill="#fff" d="m-1-0.1477c-0.552 0-1 0.447-1 1 0 0.552 0.448 1 1 1s1-0.448 1-1c0-0.553-0.448-1-1-1"/>
  </g>
  <g id="line">
    <rect x="12" y="12" width="48" height="48" fill="none" stroke="#000" stroke-linecap="round" stroke-linejoin="round" stroke-width="2"/>
  </g>
</svg>
