<svg id="emoji" viewBox="0 0 72 72" version="1.1" xmlns="http://www.w3.org/2000/svg">
  <g id="grid">
    <path fill="#b3b3b3" d="m68 4v64h-64v-64h64m4-4h-72v72h72z"/>
    <path fill="none" stroke="#00a5ff" stroke-miterlimit="10" stroke-width="0.1" d="m12.92 10.96h46.15a1.923 1.923 0 0 1 1.923 1.923v46.15a1.923 1.923 0 0 1-1.923 1.923h-46.15a1.923 1.923 0 0 1-1.923-1.923v-46.15a1.923 1.923 0 0 1 1.923-1.923z"/>
    <rect x="16" y="4" rx="2.254" width="40" height="64" fill="none" stroke="#00a5ff" stroke-miterlimit="10" stroke-width="0.1"/>
    <rect x="16" y="4" rx="2.254" width="40" height="64" transform="rotate(90,36,36)" fill="none" stroke="#00a5ff" stroke-miterlimit="10" stroke-width="0.1"/>
    <circle cx="36" cy="36" r="29" fill="none" stroke="#00a5ff" stroke-miterlimit="10" stroke-width="0.1"/>
  </g>
  <g id="color" transform="translate(-.0006922 -.01378)" stroke="#d22f27">
    <rect x="12" y="12.01" ry="5" width="48" height="47.83" fill="#fff" stroke-width="0"/>
  </g>
  <g id="color-foreground" transform="translate(-.0006922 -.01378)" fill="none" stroke="#d22f27">
    <path stroke-linecap="round" stroke-linejoin="round" stroke-miterlimit="10" stroke-width="3.23" d="m37.52 30.36h-6.46v11.3h6.46" clip-rule="evenodd"/>
    <path stroke-linecap="round" stroke-linejoin="round" stroke-miterlimit="10" stroke-width="3.23" d="m31.06 36.02h4.845" clip-rule="evenodd"/>
    <path stroke-linecap="round" stroke-linejoin="round" stroke-miterlimit="10" stroke-width="3.23" d="m17.12 41.67v-11.3l8.075 11.3v-11.3" clip-rule="evenodd"/>
    <path stroke-linecap="round" stroke-linejoin="round" stroke-miterlimit="10" stroke-width="3.23" d="m55.29 30.36-3.23 11.3-3.232-11.3-3.23 11.3-3.23-11.3" clip-rule="evenodd"/>
    <rect x="12" y="12.01" ry="5" width="48" height="47.83" stroke-width="2"/>
  </g>
  <g id="line"/>
</svg>
