<svg id="emoji" version="1.1" viewBox="0 0 72 72" xmlns="http://www.w3.org/2000/svg">
 <g id="grid">
  <path d="M68,4V68H4V4H68m4-4H0V72H72V0Z" fill="#b3b3b3"/>
  <path d="m12.92 10.96h46.15a1.923 1.923 0 0 1 1.923 1.923v46.15a1.923 1.923 0 0 1-1.923 1.923h-46.15a1.923 1.923 0 0 1-1.923-1.923v-46.15a1.923 1.923 0 0 1 1.923-1.923z" fill="none" stroke="#00a5ff" stroke-miterlimit="10" stroke-width=".1"/>
  <rect x="16" y="4" width="40" height="64" rx="2.254" fill="none" stroke="#00a5ff" stroke-miterlimit="10" stroke-width=".1"/>
  <rect transform="translate(72) rotate(90)" x="16" y="4" width="40" height="64" rx="2.254" fill="none" stroke="#00a5ff" stroke-miterlimit="10" stroke-width=".1"/>
  <circle cx="36" cy="36" r="29" fill="none" stroke="#00a5ff" stroke-miterlimit="10" stroke-width=".1"/>
 </g>
 <g id="line-supplement" transform="matrix(.2609 0 0 .2609 -91.17 -3.173)" clip-rule="evenodd" fill="none" stroke="#000" stroke-linecap="round" stroke-linejoin="round" stroke-miterlimit="1.5" stroke-width="13.42">
  <path d="m428.9 124.3 119.5-0.1619"/>
  <path d="m458.8 93.77v67.07"/>
  <path d="m517.7 93.65 0.094 36.07s5.648 66.92-43.7 78.47"/>
 </g>
 <g id="color" transform="matrix(.2609 0 0 .2609 -91.17 -3.173)">
  <rect transform="matrix(3.833,0,0,3.833,349.4,12.16)" x="12" y="12" width="48" height="47.83" fill="#d22f27"/>
  <path d="m428.9 124.3 119.5-0.1619" fill="none" stroke="#fff" stroke-linecap="round" stroke-linejoin="round" stroke-width="11.5"/>
  <path d="m458.8 93.77v67.07" fill="none" stroke="#fff" stroke-linecap="round" stroke-linejoin="round" stroke-width="11.5"/>
  <path d="m517.7 93.65 0.094 36.07s5.648 66.92-43.7 78.47" fill="none" stroke="#fff" stroke-linecap="round" stroke-linejoin="round" stroke-width="11.5"/>
 </g>
 <g id="line" transform="matrix(.2901 0 0 .2901 -105 -7.199)">
  <rect transform="matrix(3.447 0 0 3.447 361.9 24.82)" x="12" y="12" width="48" height="48" fill="none" stroke="#000" stroke-linecap="round" stroke-linejoin="round" stroke-width="2"/>
 </g>
</svg>
