<svg id="emoji" viewBox="0 0 72 72" xmlns="http://www.w3.org/2000/svg">
  <g id="grid">
    <path fill="#b3b3b3" d="M68,4V68H4V4H68m4-4H0V72H72V0Z"/>
    <path fill="none" stroke="#00a5ff" stroke-miterlimit="10" stroke-width="0.1" d="M59.1,61H12.9A1.9878,1.9878,0,0,1,11,59V12.9A1.8987,1.8987,0,0,1,12.9,11H59.1A1.8987,1.8987,0,0,1,61,12.9V59A1.9878,1.9878,0,0,1,59.1,61Z"/>
    <path fill="none" stroke="#00a5ff" stroke-miterlimit="10" stroke-width="0.1" d="M53.7,68H18.3A2.263,2.263,0,0,1,16,65.7V6.3A2.263,2.263,0,0,1,18.3,4H53.8A2.2425,2.2425,0,0,1,56,6.3V65.8A2.2425,2.2425,0,0,1,53.7,68Z"/>
    <path fill="none" stroke="#00a5ff" stroke-miterlimit="10" stroke-width="0.1" d="M4,53.7V18.3A2.263,2.263,0,0,1,6.3,16H65.8a2.3261,2.3261,0,0,1,2.3,2.3V53.8a2.3261,2.3261,0,0,1-2.3,2.3H6.3A2.4139,2.4139,0,0,1,4,53.7Z"/>
    <circle cx="36" cy="36" r="29" fill="none" stroke="#00a5ff" stroke-miterlimit="10" stroke-width="0.1"/>
    <path fill="#b3b3b3" d="M68,4V68H4V4H68m4-4H0V72H72V0Z"/>
    <path fill="none" stroke="#00a5ff" stroke-miterlimit="10" stroke-width="0.1" d="M59.1,61H12.9A1.9878,1.9878,0,0,1,11,59V12.9A1.8987,1.8987,0,0,1,12.9,11H59.1A1.8987,1.8987,0,0,1,61,12.9V59A1.9878,1.9878,0,0,1,59.1,61Z"/>
    <path fill="none" stroke="#00a5ff" stroke-miterlimit="10" stroke-width="0.1" d="M53.7,68H18.3A2.263,2.263,0,0,1,16,65.7V6.3A2.263,2.263,0,0,1,18.3,4H53.8A2.2425,2.2425,0,0,1,56,6.3V65.8A2.2425,2.2425,0,0,1,53.7,68Z"/>
    <path fill="none" stroke="#00a5ff" stroke-miterlimit="10" stroke-width="0.1" d="M4,53.7V18.3A2.263,2.263,0,0,1,6.3,16H65.8a2.3261,2.3261,0,0,1,2.3,2.3V53.8a2.3261,2.3261,0,0,1-2.3,2.3H6.3A2.4139,2.4139,0,0,1,4,53.7Z"/>
    <circle cx="36" cy="36" r="29" fill="none" stroke="#00a5ff" stroke-miterlimit="10" stroke-width="0.1"/>
  </g>
  <g id="color">
    <path fill="#d0cfce" d="M13.7,12H58.4a1.6855,1.6855,0,0,1,1.7,1.7V58.4a1.6855,1.6855,0,0,1-1.7,1.7H13.7A1.6855,1.6855,0,0,1,12,58.4V13.7A1.6275,1.6275,0,0,1,13.7,12Z"/>
  </g>
  <g id="line">
    <path fill="none" stroke="#000" stroke-miterlimit="10" stroke-width="2" d="M13.7,12H58.4a1.6855,1.6855,0,0,1,1.7,1.7V58.4a1.6855,1.6855,0,0,1-1.7,1.7H13.7A1.6855,1.6855,0,0,1,12,58.4V13.7A1.6275,1.6275,0,0,1,13.7,12Z"/>
    <line x1="25" x2="47" y1="39" y2="39" fill="none" stroke="#000" stroke-linecap="round" stroke-linejoin="round" stroke-width="2"/>
    <line x1="25" x2="47" y1="30" y2="30" fill="none" stroke="#000" stroke-linecap="round" stroke-linejoin="round" stroke-width="2"/>
    <line x1="25" x2="47" y1="21" y2="21" fill="none" stroke="#000" stroke-linecap="round" stroke-linejoin="round" stroke-width="2"/>
    <path fill="none" stroke="#000" stroke-linecap="round" stroke-linejoin="round" stroke-width="2" d="M25,21V39c0,5-1,9-4,12"/>
    <path fill="none" stroke="#000" stroke-linecap="round" stroke-linejoin="round" stroke-width="2" d="M47,21V49a2.0059,2.0059,0,0,1-2,2H39"/>
  </g>
</svg>
