<svg id="emoji" viewBox="0 0 72 72" version="1.1" xmlns="http://www.w3.org/2000/svg">
  <g id="grid">
    <path fill="#b3b3b3" d="M68,4V68H4V4H68m4-4H0V72H72V0Z"/>
    <path fill="none" stroke="#00a5ff" stroke-miterlimit="10" stroke-width="0.1" d="m12.92 10.96h46.15a1.923 1.923 0 0 1 1.923 1.923v46.15a1.923 1.923 0 0 1-1.923 1.923h-46.15a1.923 1.923 0 0 1-1.923-1.923v-46.15a1.923 1.923 0 0 1 1.923-1.923z"/>
    <rect x="16" y="4" rx="2.254" width="40" height="64" fill="none" stroke="#00a5ff" stroke-miterlimit="10" stroke-width="0.1"/>
    <rect x="16" y="4" rx="2.254" width="40" height="64" transform="translate(72) rotate(90)" fill="none" stroke="#00a5ff" stroke-miterlimit="10" stroke-width="0.1"/>
    <circle cx="36" cy="36" r="29" fill="none" stroke="#00a5ff" stroke-miterlimit="10" stroke-width="0.1"/>
  </g>
  <g id="color" transform="matrix(.2609 0 0 .2609 -91.6 -3.172)">
    <rect x="397.1" y="58.15" width="184" height="183.3" fill="#fcea2b" stroke-width="3.833"/>
  </g>
  <g id="line" transform="matrix(.2841 0 0 .2841 -390.5 -102.7)" stroke="#000" stroke-linejoin="round">
    <path transform="matrix(.9587 0 0 .9587 61.21 18.62)" fill="none" stroke-miterlimit="1.5" stroke-width="9.178" d="m1444 477.9h114.6" clip-rule="evenodd"/>
    <path transform="matrix(.9633 0 0 .9468 54.78 25.79)" fill-opacity="0" stroke-linecap="round" stroke-miterlimit="1.5" stroke-width="9.214" d="m1558 445.3v61.96c0 3.256-2.599 5.901-5.8 5.901h-104.9c-3.201 0-5.8-2.645-5.8-5.901v-61.96c0-3.257 2.599-5.901 5.8-5.901h104.9c3.201 0 5.8 2.644 5.8 5.901z" clip-rule="evenodd"/>
    <path transform="matrix(.9587 0 0 .9587 61.21 18.62)" fill="none" stroke-linecap="round" stroke-miterlimit="1.5" stroke-width="9.178" d="m1499 420.3v138.4" clip-rule="evenodd"/>
    <rect x="397.1" y="58.15" width="184" height="184" transform="matrix(.9183 0 0 .9183 1052 350.3)" fill="none" stroke-linecap="round" stroke-width="7.666"/>
  </g>
</svg>
