<svg id="emoji" viewBox="0 0 72 72" xmlns="http://www.w3.org/2000/svg">
  <g id="grid">
    <path fill="#b3b3b3" d="M68,4V68H4V4H68m4-4H0V72H72V0Z"/>
    <path fill="none" stroke="#00a5ff" stroke-miterlimit="10" stroke-width="0.1" d="M12.923,10.9583H59.0769A1.9231,1.9231,0,0,1,61,12.8814V59.0352a1.9231,1.9231,0,0,1-1.9231,1.9231H12.9231A1.9231,1.9231,0,0,1,11,59.0352V12.8813A1.923,1.923,0,0,1,12.923,10.9583Z"/>
    <rect x="16" y="4" rx="2.2537" width="40" height="64" fill="none" stroke="#00a5ff" stroke-miterlimit="10" stroke-width="0.1"/>
    <rect x="16" y="4" rx="2.2537" width="40" height="64" transform="rotate(90 36 36)" fill="none" stroke="#00a5ff" stroke-miterlimit="10" stroke-width="0.1"/>
    <circle cx="36" cy="36" r="29" fill="none" stroke="#00a5ff" stroke-miterlimit="10" stroke-width="0.1"/>
  </g>
  <g id="color">
    <path fill="#ea5a47" d="M59.0349,60h-46.07A.9679.9679,0,0,1,12,59.0349v-46.07A.9679.9679,0,0,1,12.9651,12h46.07A.9679.9679,0,0,1,60,12.9651v46.07A.9679.9679,0,0,1,59.0349,60Z"/>
  </g>
  <g id="line">
    <path fill="none" stroke="#000000" stroke-miterlimit="10" stroke-width="2" d="M59.0349,60h-46.07A.9679.9679,0,0,1,12,59.0349v-46.07A.9679.9679,0,0,1,12.9651,12h46.07A.9679.9679,0,0,1,60,12.9651v46.07A.9679.9679,0,0,1,59.0349,60Z"/>
    <line x1="21.3938" x2="24.3938" y1="21.0048" y2="24.0048" fill="none" stroke="#000000" stroke-linecap="round" stroke-linejoin="round" stroke-width="2"/>
    <line x1="20.3938" x2="23.3938" y1="29.0048" y2="32.0048" fill="none" stroke="#000000" stroke-linecap="round" stroke-linejoin="round" stroke-width="2"/>
    <line x1="27.5" x2="50.5" y1="23.5" y2="23.5" fill="none" stroke="#000000" stroke-linecap="round" stroke-linejoin="round" stroke-width="2"/>
    <line x1="34.5" x2="34.5" y1="20.5" y2="28.5" fill="none" stroke="#000000" stroke-linecap="round" stroke-linejoin="round" stroke-width="2"/>
    <line x1="44.5" x2="44.5" y1="20.5" y2="28.5" fill="none" stroke="#000000" stroke-linecap="round" stroke-linejoin="round" stroke-width="2"/>
    <line x1="26.5" x2="52.5" y1="29.5" y2="29.5" fill="none" stroke="#000000" stroke-linecap="round" stroke-linejoin="round" stroke-width="2"/>
    <polyline fill="none" stroke="#000000" stroke-linecap="round" stroke-linejoin="round" stroke-width="2" points="39.5 30.5 39.5 44.5 44.5 44.5 44.5 39.5"/>
    <polyline fill="none" stroke="#000000" stroke-linecap="round" stroke-linejoin="round" stroke-width="2" points="34.5 39.5 34.5 44.5 34.5 46.5"/>
    <line x1="39.5" x2="35.5" y1="44.5" y2="44.5" fill="none" stroke="#000000" stroke-linecap="round" stroke-linejoin="round" stroke-width="2"/>
    <path fill="none" stroke="#000000" stroke-linecap="round" stroke-linejoin="round" stroke-width="2" d="M24.5,39.5s-1,7-4,9"/>
    <polyline fill="none" stroke="#000000" stroke-linecap="round" stroke-linejoin="round" stroke-width="2" points="28.5 50.5 28.5 34.5 49.5 34.5 49.5 49.5 44.5 49.5"/>
  </g>
  <g id="color-foreground">
    <line x1="21.3938" x2="24.3938" y1="21.0048" y2="24.0048" fill="none" stroke="#ffffff" stroke-linecap="round" stroke-linejoin="round" stroke-width="2"/>
    <line x1="20.3938" x2="23.3938" y1="29.0048" y2="32.0048" fill="none" stroke="#ffffff" stroke-linecap="round" stroke-linejoin="round" stroke-width="2"/>
    <line x1="27.5" x2="50.5" y1="23.5" y2="23.5" fill="none" stroke="#ffffff" stroke-linecap="round" stroke-linejoin="round" stroke-width="2"/>
    <line x1="34.5" x2="34.5" y1="20.5" y2="28.5" fill="none" stroke="#ffffff" stroke-linecap="round" stroke-linejoin="round" stroke-width="2"/>
    <line x1="44.5" x2="44.5" y1="20.5" y2="28.5" fill="none" stroke="#ffffff" stroke-linecap="round" stroke-linejoin="round" stroke-width="2"/>
    <line x1="26.5" x2="52.5" y1="29.5" y2="29.5" fill="none" stroke="#ffffff" stroke-linecap="round" stroke-linejoin="round" stroke-width="2"/>
    <polyline fill="none" stroke="#ffffff" stroke-linecap="round" stroke-linejoin="round" stroke-width="2" points="39.5 30.5 39.5 44.5 44.5 44.5 44.5 39.5"/>
    <polyline fill="none" stroke="#ffffff" stroke-linecap="round" stroke-linejoin="round" stroke-width="2" points="34.5 39.5 34.5 44.5 34.5 46.5"/>
    <line x1="39.5" x2="35.5" y1="44.5" y2="44.5" fill="none" stroke="#ffffff" stroke-linecap="round" stroke-linejoin="round" stroke-width="2"/>
    <path fill="none" stroke="#ffffff" stroke-linecap="round" stroke-linejoin="round" stroke-width="2" d="M24.5,39.5s-1,7-4,9"/>
    <polyline fill="none" stroke="#ffffff" stroke-linecap="round" stroke-linejoin="round" stroke-width="2" points="28.5 50.5 28.5 34.5 49.5 34.5 49.5 49.5 44.5 49.5"/>
  </g>
</svg>
