<svg id="emoji" version="1.1" viewBox="0 0 72 72" xmlns="http://www.w3.org/2000/svg">
 <g id="grid">
  <path d="M68,4V68H4V4H68m4-4H0V72H72V0Z" fill="#b3b3b3"/>
  <path d="m12.92 10.96h46.15a1.923 1.923 0 0 1 1.923 1.923v46.15a1.923 1.923 0 0 1-1.923 1.923h-46.15a1.923 1.923 0 0 1-1.923-1.923v-46.15a1.923 1.923 0 0 1 1.923-1.923z" fill="none" stroke="#00a5ff" stroke-miterlimit="10" stroke-width=".1"/>
  <rect x="16" y="4" width="40" height="64" rx="2.254" fill="none" stroke="#00a5ff" stroke-miterlimit="10" stroke-width=".1"/>
  <rect transform="translate(72) rotate(90)" x="16" y="4" width="40" height="64" rx="2.254" fill="none" stroke="#00a5ff" stroke-miterlimit="10" stroke-width=".1"/>
  <circle cx="36" cy="36" r="29" fill="none" stroke="#00a5ff" stroke-miterlimit="10" stroke-width=".1"/>
 </g>
 <g id="line-supplement" transform="matrix(.2609 0 0 .2609 -91.17 -3.172)" clip-rule="evenodd" fill="none" fill-rule="evenodd" stroke="#000" stroke-linejoin="round" stroke-miterlimit="1.5" stroke-width="9.946">
  <path transform="matrix(.9634 0 0 .9634 -958 -643)" d="m1475 893.4s0.214-47.42 0.285-63.29c0.013-2.822 2.303-5.102 5.125-5.102h75.1c1.365 0 2.673 0.544 3.635 1.512s1.498 2.279 1.49 3.644c-0.068 11.32-0.231 38.5-0.32 53.25-0.033 5.494-4.495 9.929-9.989 9.929h-9.667" stroke-linecap="round"/>
  <path transform="matrix(.9634 0 0 .9634 -958 -643)" d="m1518 804.8v64.84"/>
  <path transform="matrix(.9634 0 0 .9634 -958 -643)" d="m1497 754.9-0.047 47.2" stroke-linecap="round"/>
  <path transform="matrix(.9634 0 0 .9634 -918.5 -643)" d="m1497 754.9-0.047 47.2" stroke-linecap="round"/>
  <path transform="matrix(.9634 0 0 .9634 -958 -643)" d="m1473 774.2 88.34 0.102" stroke-linecap="round"/>
  <path transform="matrix(.9634 0 0 .9634 -958 -643)" d="m1467 802.9h100.6" stroke-linecap="round"/>
  <path transform="matrix(.9634 0 0 .9634 -958 -643)" d="m1494 842.6-0.121 35.41" stroke-linecap="round"/>
  <path transform="matrix(.9634 0 0 .9634 -958 -643)" d="m1494 870.5 47.62-0.07"/>
  <path transform="matrix(.9634 0 0 .9634 -912.8 -643)" d="m1495 842.6v33.41" stroke-linecap="round"/>
  <path transform="matrix(.9634 0 0 .9634 -958 -643)" d="m1459 842.6s-16.42 36.53-23.08 47.09" stroke-linecap="round"/>
  <path transform="matrix(.9634 0 0 .9634 -958 -643)" d="m1431 800.6c13.54 5.643 23.26 12.14 23.26 12.14" stroke-linecap="round"/>
  <path transform="matrix(.9634 0 0 .9634 -958 -643)" d="m1439 756.5c10.72 4.762 21.02 13.92 21.02 13.92" stroke-linecap="round"/>
 </g>
 <g id="color" transform="matrix(.2609 0 0 .2609 -91.17 -3.172)" clip-rule="evenodd" fill-rule="evenodd" stroke-miterlimit="10">
  <rect transform="matrix(.9755 0 0 .9755 -975.2 -652.8)" x="1405" y="728.9" width="188.6" height="187.9" fill="#d22f27" stroke-width="3.929"/>
  <path transform="matrix(.9634 0 0 .9634 -958 -643)" d="m1475 893.4s0.214-47.42 0.285-63.29c0.013-2.822 2.303-5.102 5.125-5.102h75.1c1.365 0 2.673 0.544 3.635 1.512s1.498 2.279 1.49 3.644c-0.068 11.32-0.231 38.5-0.32 53.25-0.033 5.494-4.495 9.929-9.989 9.929h-9.667" fill="none" stroke="#fff" stroke-linecap="round" stroke-linejoin="round" stroke-width="9.946"/>
  <path transform="matrix(.9634 0 0 .9634 -958 -643)" d="m1518 804.8v64.84" fill="none" stroke="#fff" stroke-linecap="round" stroke-linejoin="round" stroke-width="9.946"/>
  <path transform="matrix(.9634 0 0 .9634 -958 -643)" d="m1497 754.9-0.047 47.2" fill="none" stroke="#fff" stroke-linecap="round" stroke-linejoin="round" stroke-width="9.946"/>
  <path transform="matrix(.9634 0 0 .9634 -918.5 -643)" d="m1497 754.9-0.047 47.2" fill="none" stroke="#fff" stroke-linecap="round" stroke-linejoin="round" stroke-width="9.946"/>
  <path transform="matrix(.9634 0 0 .9634 -958 -643)" d="m1473 774.2 88.34 0.102" fill="none" stroke="#fff" stroke-linecap="round" stroke-linejoin="round" stroke-width="9.946"/>
  <path transform="matrix(.9634 0 0 .9634 -958 -643)" d="m1467 802.9h100.6" fill="none" stroke="#fff" stroke-linecap="round" stroke-linejoin="round" stroke-width="9.946"/>
  <path transform="matrix(.9634 0 0 .9634 -958 -643)" d="m1494 842.6-0.121 35.41" fill="none" stroke="#fff" stroke-linecap="round" stroke-linejoin="round" stroke-width="9.946"/>
  <path transform="matrix(.9634 0 0 .9634 -958 -643)" d="m1494 870.5 47.62-0.07" fill="none" stroke="#fff" stroke-linecap="round" stroke-linejoin="round" stroke-width="9.946"/>
  <path transform="matrix(.9634 0 0 .9634 -912.8 -643)" d="m1495 842.6v33.41" fill="none" stroke="#fff" stroke-linecap="round" stroke-linejoin="round" stroke-width="9.946"/>
  <path transform="matrix(.9634 0 0 .9634 -958 -643)" d="m1459 842.6s-16.42 36.53-23.08 47.09" fill="none" stroke="#fff" stroke-linecap="round" stroke-linejoin="round" stroke-width="9.946"/>
  <path transform="matrix(.9634 0 0 .9634 -958 -643)" d="m1431 800.6c13.54 5.643 23.26 12.14 23.26 12.14" fill="none" stroke="#fff" stroke-linecap="round" stroke-linejoin="round" stroke-width="9.946"/>
  <path transform="matrix(.9634 0 0 .9634 -958 -643)" d="m1439 756.5c10.72 4.762 21.02 13.92 21.02 13.92" fill="none" stroke="#fff" stroke-linecap="round" stroke-linejoin="round" stroke-width="9.946"/>
 </g>
 <g id="line" transform="matrix(.2545 0 0 .2545 -345.6 -173.5)" clip-rule="evenodd" fill-rule="evenodd" stroke-miterlimit="10">
  <rect x="1405" y="728.9" width="188.6" height="188.6" fill="none" stroke="#000" stroke-linecap="round" stroke-linejoin="round" stroke-width="7.859"/>
 </g>
</svg>
