<svg id="emoji" version="1.1" viewBox="0 0 72 72" xmlns="http://www.w3.org/2000/svg">
 <g id="grid">
  <path d="M68,4V68H4V4H68m4-4H0V72H72V0Z" fill="#b3b3b3"/>
  <path d="m12.92 10.96h46.15a1.923 1.923 0 0 1 1.923 1.923v46.15a1.923 1.923 0 0 1-1.923 1.923h-46.15a1.923 1.923 0 0 1-1.923-1.923v-46.15a1.923 1.923 0 0 1 1.923-1.923z" fill="none" stroke="#00a5ff" stroke-miterlimit="10" stroke-width=".1"/>
  <rect x="16" y="4" width="40" height="64" rx="2.254" fill="none" stroke="#00a5ff" stroke-miterlimit="10" stroke-width=".1"/>
  <rect transform="translate(72) rotate(90)" x="16" y="4" width="40" height="64" rx="2.254" fill="none" stroke="#00a5ff" stroke-miterlimit="10" stroke-width=".1"/>
  <circle cx="36" cy="36" r="29" fill="none" stroke="#00a5ff" stroke-miterlimit="10" stroke-width=".1"/>
 </g>
 <g id="color" transform="matrix(.2609 0 0 .2609 -91.17 -3.172)">
  <rect transform="matrix(1.346 0 0 1.285 -622.6 -843)" x="756.5" y="701.4" width="136.7" height="142.7" fill="#8967aa" stroke-width="2.915"/>
 </g>
 <g id="color-foreground" transform="matrix(.2609 0 0 .2609 -91.17 -3.172)" clip-rule="evenodd" stroke="#fff" stroke-linejoin="round" stroke-miterlimit="1.5">
  <path transform="matrix(1.052 0 0 1.052 -380.6 -712)" d="m874.9 755.8s-9.866 13.47-19.23 23.37" fill="none" stroke-linecap="round" stroke-width="9.109"/>
  <path transform="matrix(1.052 0 0 1.052 -380.6 -712)" d="m774.1 755.4s11.14 15.89 13.94 21.61" fill="none" stroke-linecap="round" stroke-width="9.109"/>
  <path transform="matrix(1.052 0 0 1.052 -339 -714.4)" d="m774.1 755.4s10.25 16.39 12.98 23.82" fill="none" stroke-linecap="round" stroke-width="9.109"/>
  <path transform="matrix(1.052 0 0 1.052 -380.6 -712)" d="m763.1 802.2s0.104-11.32 0.165-17.86c0.023-2.504 2.053-4.526 4.557-4.54 19.3-0.102 94.74-0.503 114.2-0.606 1.22-7e-3 2.391 0.473 3.256 1.333s1.351 2.03 1.351 3.249v18.42" fill="none" stroke-linecap="round" stroke-width="9.109"/>
  <path transform="matrix(1.052 0 0 1.052 -380.6 -712)" d="m814.6 851.3 6.954-22.31" fill="none" stroke-width="9.109"/>
  <path transform="matrix(1.055 0 0 1.083 -384 -737.9)" d="m866 802.3v24.37c0 1.281-1.067 2.321-2.382 2.321h-76.81c-1.314 0-2.382-1.04-2.382-2.321v-24.37c0-1.281 1.068-2.321 2.382-2.321h76.81c1.315 0 2.382 1.04 2.382 2.321z" fill-opacity="0" stroke-linecap="round" stroke-width="8.964"/>
  <path transform="matrix(1.298 0 0 1.239 -583.1 -807.3)" d="m866 802.3v24.37c0 1.281-0.992 2.321-2.215 2.321h-77.14c-1.223 0-2.216-1.04-2.216-2.321v-24.37c0-1.281 0.993-2.321 2.216-2.321h77.14c1.223 0 2.215 1.04 2.215 2.321z" fill-opacity="0" stroke-linecap="round" stroke-width="7.556"/>
 </g>
 <g id="line" transform="matrix(.3511 0 0 .3352 -253.6 -223.1)">
  <rect x="756.5" y="701.4" width="136.7" height="143.2" fill="none" stroke="#000" stroke-linecap="round" stroke-linejoin="round" stroke-width="5.83"/>
 </g>
</svg>
