<svg id="emoji" viewBox="0 0 72 72" xmlns="http://www.w3.org/2000/svg">
  <g id="grid">
    <path fill="#b3b3b3" d="M68,4V68H4V4H68m4-4H0V72H72V0Z"/>
    <path fill="none" stroke="#00a5ff" stroke-miterlimit="10" stroke-width="0.1" d="M12.923,10.9583H59.0769A1.9231,1.9231,0,0,1,61,12.8814V59.0352a1.9231,1.9231,0,0,1-1.9231,1.9231H12.9231A1.9231,1.9231,0,0,1,11,59.0352V12.8813A1.923,1.923,0,0,1,12.923,10.9583Z"/>
    <rect x="16" y="4" rx="2.2537" width="40" height="64" fill="none" stroke="#00a5ff" stroke-miterlimit="10" stroke-width="0.1"/>
    <rect x="16" y="4" rx="2.2537" width="40" height="64" transform="rotate(90 36 36)" fill="none" stroke="#00a5ff" stroke-miterlimit="10" stroke-width="0.1"/>
    <circle cx="36" cy="36" r="29" fill="none" stroke="#00a5ff" stroke-miterlimit="10" stroke-width="0.1"/>
  </g>
  <g id="color">
    <path fill="#d0cfce" d="M59.0349,60h-46.07A.9679.9679,0,0,1,12,59.0349v-46.07A.9679.9679,0,0,1,12.9651,12h46.07A.9679.9679,0,0,1,60,12.9651v46.07A.9679.9679,0,0,1,59.0349,60Z"/>
  </g>
  <g id="line">
    <line x1="25" x2="47" y1="37" y2="37" stroke="#000" stroke-linecap="round" stroke-linejoin="round" stroke-width="2"/>
    <polyline stroke="#000" stroke-linecap="round" stroke-linejoin="round" stroke-width="2" points="21.5 41.5 36 41.5 50.5 41.5"/>
    <polyline fill="none" stroke="#000" stroke-linecap="round" stroke-linejoin="round" stroke-width="2" points="36.5 43 36.5 50.5 31.5 50.5"/>
    <path fill="none" stroke="#000" stroke-linecap="round" stroke-linejoin="round" stroke-width="2" d="M29,44s-3,5-7,6"/>
    <path fill="none" stroke="#000" stroke-linecap="round" stroke-linejoin="round" stroke-width="2" d="M43,44s3,5,7,6"/>
    <line x1="28" x2="28" y1="22" y2="32" stroke="#000" stroke-linecap="round" stroke-linejoin="round" stroke-width="2"/>
    <line x1="21" x2="33.5" y1="24.5741" y2="24.5741" stroke="#000" stroke-linecap="round" stroke-linejoin="round" stroke-width="2"/>
    <path stroke="#000" stroke-linecap="round" stroke-linejoin="round" stroke-width="2" d="M21.5,32.5s6-4,6-8"/>
    <path stroke="#000" stroke-linecap="round" stroke-linejoin="round" stroke-width="2" d="M28.8517,24.5s1.6483,5,4.6483,6"/>
    <line x1="43.5" x2="43.5" y1="22" y2="32" stroke="#000" stroke-linecap="round" stroke-linejoin="round" stroke-width="2"/>
    <line x1="50.5" x2="38" y1="24.5741" y2="24.5741" stroke="#000" stroke-linecap="round" stroke-linejoin="round" stroke-width="2"/>
    <path stroke="#000" stroke-linecap="round" stroke-linejoin="round" stroke-width="2" d="M50,32.5s-6-4-6-8"/>
    <path stroke="#000" stroke-linecap="round" stroke-linejoin="round" stroke-width="2" d="M42.6483,24.5S40.6454,30.75,37,32"/>
    <path fill="none" stroke="#000" stroke-miterlimit="10" stroke-width="2" d="M59.0349,60h-46.07A.9679.9679,0,0,1,12,59.0349v-46.07A.9679.9679,0,0,1,12.9651,12h46.07A.9679.9679,0,0,1,60,12.9651v46.07A.9679.9679,0,0,1,59.0349,60Z"/>
  </g>
</svg>
