<svg id="emoji" viewBox="0 0 72 72" version="1.1" xmlns="http://www.w3.org/2000/svg">
  <g id="grid">
    <path fill="#b3b3b3" d="m68 4v64h-64v-64h64m4-4h-72v72h72z"/>
    <path fill="none" stroke="#00a5ff" stroke-miterlimit="10" stroke-width="0.1" d="m12.92 10.96h46.15a1.923 1.923 0 0 1 1.923 1.923v46.15a1.923 1.923 0 0 1-1.923 1.923h-46.15a1.923 1.923 0 0 1-1.923-1.923v-46.15a1.923 1.923 0 0 1 1.923-1.923z"/>
    <rect x="16" y="4" rx="2.254" ry="2.254" width="40" height="64" fill="none" stroke="#00a5ff" stroke-miterlimit="10" stroke-width="0.1"/>
    <rect x="16" y="4" rx="2.254" ry="2.254" width="40" height="64" transform="rotate(90,36,36)" fill="none" stroke="#00a5ff" stroke-miterlimit="10" stroke-width="0.1"/>
    <circle cx="36" cy="36" r="29" fill="none" stroke="#00a5ff" stroke-miterlimit="10" stroke-width="0.1"/>
  </g>
  <g id="line-supplement" fill="none" stroke="#000" stroke-linecap="round" stroke-linejoin="round" stroke-miterlimit="10" stroke-width="2" clip-rule="evenodd">
    <path transform="matrix(1.573,0,0,1.573,35.53,3.018)" d="m-5.446 16.01-3-7-3 7"/>
    <path transform="matrix(1.573,0,0,1.573,35.53,3.018)" d="m-10.45 14.33h4"/>
    <path transform="matrix(1.573,0,0,1.573,36.26,3.016)" d="m0.2971 24.45h-2.669v-3.487h2.669c0.963 0 1.744 0.78 1.744 1.743s-0.781 1.744-1.744 1.744z"/>
    <path transform="matrix(1.573,0,0,1.573,36.26,3.016)" d="m0.2971 20.96h-2.669v-3.487h2.669c0.963 0 1.744 0.781 1.744 1.744s-0.781 1.743-1.744 1.743z"/>
    <path transform="matrix(1.573,0,0,1.573,35.53,3.018)" d="m11.12 32.52c-0.441 0.391-1.022 0.629-1.659 0.629-1.38 0-2.5-1.119-2.5-2.5v-2 2-2c0-1.381 1.12-2.5 2.5-2.5 0.637 0 1.218 0.238 1.659 0.629"/>
  </g>
  <g id="color" stroke-linecap="round">
    <rect x="12" y="12" width="48" height="47.83" fill="#d0cfce"/>
    <rect x="12" y="12" width="21.54" height="21.58" fill="#3f3f3f" stroke-width="1.822"/>
    <rect x="24.71" y="24.62" width="22.59" height="22.67" fill="#3f3f3f" stroke-width="1.822"/>
    <rect x="38.46" y="38.34" width="21.54" height="21.66" fill="#3f3f3f" stroke-width="1.822"/>
    <path transform="matrix(1.573,0,0,1.573,35.53,3.018)" fill="none" stroke="#fff" stroke-linecap="round" stroke-linejoin="round" stroke-width="2" d="m-5.446 16.01-3-7-3 7"/>
    <path transform="matrix(1.573,0,0,1.573,35.53,3.018)" fill="none" stroke="#fff" stroke-linecap="round" stroke-linejoin="round" stroke-width="2" d="m-10.45 14.33h4"/>
    <path transform="matrix(1.573,0,0,1.573,36.26,3.016)" fill="none" stroke="#fff" stroke-linecap="round" stroke-linejoin="round" stroke-width="2" d="m0.2971 24.45h-2.669v-3.487h2.669c0.963 0 1.744 0.78 1.744 1.743s-0.781 1.744-1.744 1.744z"/>
    <path transform="matrix(1.573,0,0,1.573,36.26,3.016)" fill="none" stroke="#fff" stroke-linecap="round" stroke-linejoin="round" stroke-width="2" d="m0.2971 20.96h-2.669v-3.487h2.669c0.963 0 1.744 0.781 1.744 1.744s-0.781 1.743-1.744 1.743z"/>
    <path transform="matrix(1.573,0,0,1.573,35.53,3.018)" fill="none" stroke="#fff" stroke-linecap="round" stroke-linejoin="round" stroke-width="2" d="m11.12 32.52c-0.441 0.391-1.022 0.629-1.659 0.629-1.38 0-2.5-1.119-2.5-2.5v-2 2-2c0-1.381 1.12-2.5 2.5-2.5 0.637 0 1.218 0.238 1.659 0.629"/>
  </g>
  <g id="line">
    <rect x="12" y="12" width="48" height="48" fill="none" stroke="#000" stroke-linecap="round" stroke-linejoin="round" stroke-width="2"/>
  </g>
</svg>
