<svg version="1.1" id="emoji" xmlns="http://www.w3.org/2000/svg" x="0" y="0" viewBox="0 0 72 72" xml:space="preserve">
  <g id="grid">
    <path fill="#B3B3B3" d="M68,4v64H4V4H68 M72,0H0v72h72V0z"/>
    <path fill="none" stroke="#00A5FF" stroke-width="0.1" stroke-miterlimit="10" d="M12.923,10.9583h46.1539 c1.0621,0,1.9231,0.861,1.9231,1.9231v0v46.1538c0,1.0621-0.861,1.9231-1.9231,1.9231H12.9231 c-1.0621,0-1.9231-0.861-1.9231-1.9231l0,0V12.8813C11,11.8193,11.861,10.9583,12.923,10.9583L12.923,10.9583z"/>
    <path fill="none" stroke="#00A5FF" stroke-width="0.1" stroke-miterlimit="10" d="M18.2537,4h35.4926C54.991,4,56,5.009,56,6.2537 v59.4926C56,66.991,54.991,68,53.7463,68H18.2537C17.009,68,16,66.991,16,65.7463V6.2537C16,5.009,17.009,4,18.2537,4z"/>
    <path fill="none" stroke="#00A5FF" stroke-width="0.1" stroke-miterlimit="10" d="M68,18.2537v35.4926 C68,54.991,66.991,56,65.7463,56H6.2537C5.009,56,4,54.991,4,53.7463V18.2537C4,17.009,5.009,16,6.2537,16h59.4926 C66.991,16,68,17.009,68,18.2537z"/>
    <circle fill="none" stroke="#00A5FF" stroke-width="0.1" stroke-miterlimit="10" cx="36" cy="36" r="29"/>
  </g>
  <g id="hair"/>
  <g id="skin">
    <path fill="#FCEA2B" d="M39.8217,32.5222l4.0087-21.643c1.8086-7.7501-5.693-10.0141-7.6152-1.7771l-3.6586,19.2358 c-0.7941,3.5808-1.8856,5.1414-3.2721,5.7653l0,0c-2.3799,1.0711-4.5703-2.4069-5.5939-4.8077l-5.2927-12.413 c-3.2362-7.0282-9.7419-3.7315-7.1376,2.7429l7.2784,16.5182l-1.2882-2.9677l-3.1633-7.2934 c-2.7812-5.8647-8.75-3.521-6.8125,2.2915c0,0,4.3337,10.6624,5.6042,14.2813c1.6565,4.7184,3.351,14.8214,5.9365,19.1019 c5.6263,9.3151,20.6085,8.1089,27.8661,0c2.0403-2.2795,5.6369-7.247,7.6442-9.5556c2.7887-3.2074,10.0855-11.5349,10.0855-11.5349 c1.4629-2.1582,0.3282-5.4939-0.8007-4.6726l-14.6899,5.3904c-1.0085,0.339-1.6661-0.4599-2.0902-1.096 c-0.3091-0.4636,0.0883-2.0531,0.2066-2.7705c1.3997-7.8137,2.7993-15.6273,4.199-23.441c1.195-5.9529-6.1175-8.1404-7.5747-2.0134"/>
  </g>
  <g id="skin-shadow"/>
  <g id="color"/>
  <g id="line">
    <path fill="none" stroke="#000000" stroke-width="2" stroke-linecap="round" stroke-linejoin="round" d="M39.8217,32.5222 l4.0087-21.643c1.8086-7.7501-5.693-10.0141-7.6152-1.7771l-3.6586,19.2358c-0.7941,3.5808-1.8856,5.1414-3.2721,5.7653l0,0 c-2.3799,1.0711-4.5703-2.4069-5.5939-4.8077l-5.2927-12.413c-3.2362-7.0282-9.7419-3.7315-7.1376,2.7429l7.2784,16.5182 l-1.2882-2.9677l-3.1633-7.2934c-2.7812-5.8647-8.75-3.521-6.8125,2.2915c0,0,4.3337,10.6624,5.6042,14.2813 c1.6565,4.7184,3.351,14.8214,5.9365,19.1019c5.6263,9.3151,20.6085,8.1089,27.8661,0c2.0403-2.2795,5.6369-7.247,7.6442-9.5556 c2.7887-3.2074,10.0855-11.5349,10.0855-11.5349c1.4629-2.1582,0.3282-5.4939-0.8007-4.6726l-14.6899,5.3904 c-1.0085,0.339-1.6661-0.4599-2.0902-1.096c-0.3091-0.4636,0.0883-2.0531,0.2066-2.7705c1.3997-7.8137,2.7993-15.6273,4.199-23.441 c1.195-5.9529-6.1175-8.1404-7.5747-2.0134"/>
    <path fill="none" stroke="#000000" stroke-width="2" stroke-linecap="round" stroke-linejoin="round" d="M39.8217,32.5222 l4.0087-21.643c1.8086-7.7501-5.693-10.0141-7.6152-1.7771l-3.6586,19.2358c-0.7941,3.5808-1.8856,5.1414-3.2721,5.7653l0,0 c-2.3799,1.0711-4.5703-2.4069-5.5939-4.8077l-5.2927-12.413c-3.2362-7.0282-9.7419-3.7315-7.1376,2.7429l7.2784,16.5182 l-1.2882-2.9677l-3.1633-7.2934c-2.7812-5.8647-8.75-3.521-6.8125,2.2915c0,0,4.3337,10.6624,5.6042,14.2813 c1.6565,4.7184,3.351,14.8214,5.9365,19.1019c5.6263,9.3151,20.6085,8.1089,27.8661,0c2.0403-2.2795,5.6369-7.247,7.6442-9.5556 c2.7887-3.2074,10.0855-11.5349,10.0855-11.5349c1.4629-2.1582,0.3282-5.4939-0.8007-4.6726l-14.6899,5.3904 c-1.0085,0.339-1.6661-0.4599-2.0902-1.096c-0.3091-0.4636,0.0883-2.0531,0.2066-2.7705c1.3997-7.8137,2.7993-15.6273,4.199-23.441 c1.195-5.9529-6.1175-8.1404-7.5747-2.0134"/>
  </g>
</svg>
