<svg id="emoji" xmlns="http://www.w3.org/2000/svg" viewBox="0 0 72 72">
  <g id="grid">
    <path d="M68,4V68H4V4H68m4-4H0V72H72V0Z" fill="#b3b3b3"></path>
    <path d="M12.923,10.9583H59.0769A1.9231,1.9231,0,0,1,61,12.8814V59.0352a1.9231,1.9231,0,0,1-1.9231,1.9231H12.9231A1.9231,1.9231,0,0,1,11,59.0352V12.8813A1.923,1.923,0,0,1,12.923,10.9583Z" fill="none" stroke="#00a5ff" stroke-miterlimit="10" stroke-width="0.1"></path>
    <rect x="16" y="4" width="40" height="64" rx="2.2537" fill="none" stroke="#00a5ff" stroke-miterlimit="10" stroke-width="0.1"></rect>
    <rect x="16" y="4" width="40" height="64" rx="2.2537" transform="translate(72) rotate(90)" fill="none" stroke="#00a5ff" stroke-miterlimit="10" stroke-width="0.1"></rect>
    <circle cx="36" cy="36" r="29" fill="none" stroke="#00a5ff" stroke-miterlimit="10" stroke-width="0.1"></circle>
  </g>
  <g id="color">
    <path fill="#FFFFFF" d="M55.3085,50.3916c3.1835-4.0728,5.0878-9.1913,5.0878-14.7492c0-13.2334-10.7666-24-24-24
		s-24,10.7666-24,24s10.7666,24,24,24c1.9554,0,3.8548-0.2406,5.6757-0.6839C47.9909,57.4778,52.3975,54.6171,55.3085,50.3916z" stroke="none"></path>
    <path fill="#FFFFFF" d="M49.4066,51.7733c-2.2056,0-4,1.7939-4,4c0,2.206,1.7944,4,4,4c2.2055,0,4-1.794,4-4
		C53.4066,53.5672,51.6121,51.7733,49.4066,51.7733z" stroke="none"></path>
    <path fill="#FFFFFF" d="M58.5311,61.5057c-0.6255,0-1.1348,0.5088-1.1348,1.1348c0,0.6259,0.5093,1.1347,1.1348,1.1347
		s1.1347-0.5088,1.1347-1.1347C59.6658,62.0145,59.1566,61.5057,58.5311,61.5057z" stroke="none"></path>
  </g>
  <g id="hair">
  </g>
  <g id="skin">
  </g>
  <g id="skin-shadow">
  </g>
  <g id="line">
    <path fill="#000000" d="M49.4066,61.7733c-3.3086,0-6-2.6914-6-6s2.6914-6,6-6c3.3086,0,6,2.6914,6,6
		S52.7152,61.7733,49.4066,61.7733z M49.4066,51.7733c-2.2056,0-4,1.7939-4,4c0,2.206,1.7944,4,4,4c2.2055,0,4-1.794,4-4
		C53.4066,53.5672,51.6121,51.7733,49.4066,51.7733z" stroke="none"></path>
    <path d="M41.516,57.0346c-1.644,0.3935-3.3568,0.6078-5.1197,0.6078c-12.1309,0-22-9.8691-22-22c0-12.1308,9.8691-22,22-22
		s22,9.8692,22,22c0,5.0614-1.7225,9.7253-4.6059,13.4467c0.5603,0.3688,1.0675,0.8087,1.5181,1.3025
		c3.1835-4.0728,5.0878-9.1913,5.0878-14.7492c0-13.2334-10.7666-24-24-24s-24,10.7666-24,24s10.7666,24,24,24
		c1.9554,0,3.8548-0.2406,5.6757-0.6839C41.8079,58.3527,41.6232,57.7068,41.516,57.0346z" fill="#000000" stroke="none"></path>
    <path fill="#000000" d="M58.5311,65.7752c-1.7285,0-3.1348-1.4062-3.1348-3.1347c0-1.7285,1.4063-3.1348,3.1348-3.1348
		c1.7285,0,3.1347,1.4063,3.1347,3.1348C61.6658,64.369,60.2596,65.7752,58.5311,65.7752z M58.5311,61.5057
		c-0.6255,0-1.1348,0.5088-1.1348,1.1348c0,0.6259,0.5093,1.1347,1.1348,1.1347s1.1347-0.5088,1.1347-1.1347
		C59.6658,62.0145,59.1566,61.5057,58.5311,61.5057z" stroke="none"></path>
    <circle fill="#000000" cx="27.1842" cy="35.6424" r="2" stroke="none"></circle>
    <circle fill="#000000" cx="36.3964" cy="35.6424" r="2" stroke="none"></circle>
    <circle fill="#000000" cx="45.6086" cy="35.6424" r="2" stroke="none"></circle>
  </g>
</svg>