<?xml version="1.0" encoding="utf-8"?>
<!-- Generator: Adobe Illustrator 22.0.1, SVG Export Plug-In . SVG Version: 6.00 Build 0)  -->
<svg version="1.1" id="emoji" xmlns="http://www.w3.org/2000/svg" xmlns:xlink="http://www.w3.org/1999/xlink" x="0px" y="0px"
	 viewBox="0 0 72 72" enable-background="new 0 0 72 72" xml:space="preserve">
<g id="grid">
	<path fill="#B3B3B3" d="M68,4v64H4V4H68 M72,0H0v72h72V0z"/>
	<path fill="none" stroke="#00A5FF" stroke-width="0.1" stroke-miterlimit="10" d="M12.923,10.9583h46.1539
		c1.0621,0,1.9231,0.861,1.9231,1.9231v0v46.1538c0,1.0621-0.861,1.9231-1.9231,1.9231H12.9231
		c-1.0621,0-1.9231-0.861-1.9231-1.9231l0,0V12.8813C11,11.8193,11.861,10.9583,12.923,10.9583L12.923,10.9583z"/>
	<path fill="none" stroke="#00A5FF" stroke-width="0.1" stroke-miterlimit="10" d="M18.2537,4h35.4926C54.991,4,56,5.009,56,6.2537
		v59.4926C56,66.991,54.991,68,53.7463,68H18.2537C17.009,68,16,66.991,16,65.7463V6.2537C16,5.009,17.009,4,18.2537,4z"/>
	<path fill="none" stroke="#00A5FF" stroke-width="0.1" stroke-miterlimit="10" d="M68,18.2537v35.4926
		C68,54.991,66.991,56,65.7463,56H6.2537C5.009,56,4,54.991,4,53.7463V18.2537C4,17.009,5.009,16,6.2537,16h59.4926
		C66.991,16,68,17.009,68,18.2537z"/>
	<circle fill="none" stroke="#00A5FF" stroke-width="0.1" stroke-miterlimit="10" cx="36" cy="36" r="29"/>
</g>
<g id="color">
	<ellipse fill="#3F3F3F" cx="35.5" cy="34.5" rx="32.5" ry="13.5"/>
	<path fill="#9B9B9A" d="M35.5,31c13.5192,0,25.1072,3.3025,30.0053,8C67.1104,37.4606,68,35.772,68,34c0-7.1797-14.5507-13-32.5-13
		S3,26.8203,3,34c0,1.772,0.8896,3.4606,2.4947,5C10.3928,34.3025,21.9808,31,35.5,31z"/>
</g>
<g id="hair">
</g>
<g id="skin">
</g>
<g id="skin-shadow">
</g>
<g id="line">
	<ellipse fill="none" stroke="#000000" stroke-width="2" stroke-miterlimit="10" cx="35.5" cy="34.5" rx="32.5" ry="13.5"/>
	<path fill="none" stroke="#000000" stroke-width="2" stroke-miterlimit="10" d="M35.5,31c13.5192,0,25.1072,3.3025,30.0053,8
		C67.1104,37.4606,68,35.772,68,34c0-7.1797-14.5507-13-32.5-13S3,26.8203,3,34c0,1.772,0.8896,3.4606,2.4947,5
		C10.3928,34.3025,21.9808,31,35.5,31z"/>
</g>
</svg>
