<?xml version="1.0" encoding="utf-8"?>
<!-- Generator: Adobe Illustrator 23.0.1, SVG Export Plug-In . SVG Version: 6.00 Build 0)  -->
<svg version="1.1" id="emoji" xmlns="http://www.w3.org/2000/svg" xmlns:xlink="http://www.w3.org/1999/xlink" x="0px" y="0px"
	 viewBox="0 0 72 72" enable-background="new 0 0 72 72" xml:space="preserve">
<g id="grid">
	<path fill="#B3B3B3" d="M68,4v64H4V4H68 M72,0H0v72h72V0z"/>
	<path fill="none" stroke="#00A5FF" stroke-width="0.1" stroke-miterlimit="10" d="M12.923,10.9583h46.1539
		c1.0621,0,1.9231,0.861,1.9231,1.9231v0v46.1538c0,1.0621-0.861,1.9231-1.9231,1.9231H12.9231
		c-1.0621,0-1.9231-0.861-1.9231-1.9231l0,0V12.8813C11,11.8193,11.861,10.9583,12.923,10.9583L12.923,10.9583z"/>
	<path fill="none" stroke="#00A5FF" stroke-width="0.1" stroke-miterlimit="10" d="M18.2537,4h35.4926C54.991,4,56,5.009,56,6.2537
		v59.4926C56,66.991,54.991,68,53.7463,68H18.2537C17.009,68,16,66.991,16,65.7463V6.2537C16,5.009,17.009,4,18.2537,4z"/>
	<path fill="none" stroke="#00A5FF" stroke-width="0.1" stroke-miterlimit="10" d="M68,18.2537v35.4926
		C68,54.991,66.991,56,65.7463,56H6.2537C5.009,56,4,54.991,4,53.7463V18.2537C4,17.009,5.009,16,6.2537,16h59.4926
		C66.991,16,68,17.009,68,18.2537z"/>
	<circle fill="none" stroke="#00A5FF" stroke-width="0.1" stroke-miterlimit="10" cx="36" cy="36" r="29"/>
</g>
<g id="color">
	<path fill="#FFFFFF" d="M25.7191,37.219c0,0-18.6574,0.1092-18.8835,3.2051c-0.226,3.0959,12.1477,8.6395,12.1477,8.6395
		s0.7809,0.7927,11.6472,1.303c10.8662,0.5103,28.1411,1.0924,28.1411,1.0924l4.6809-4.3851
		c0.088-0.0825,0.1418-0.2035,0.1476-0.3325l0.0661-1.4563c0.0099-0.2177-0.1173-0.4093-0.3023-0.4554l-1.9028-0.4743l-5.017-3.2687
		c-0.0459-0.0299-0.0968-0.0487-0.1496-0.0553L25.7191,37.219z"/>
	<path fill="#92D3F5" d="M45.7345,39.7147c0,0-6.8479-5.3894-15.0213-6.2024c-0.0867-0.0086-0.1747,0.0159-0.2494,0.0692
		l-5.1414,3.6651L45.7345,39.7147z"/>
	
		<path fill="none" stroke="#EA5A47" stroke-width="1.8603" stroke-linecap="round" stroke-linejoin="round" stroke-miterlimit="10" d="
		M13.8717,41.0478c0,0,24.9872,2.43,42.3914,5.4447"/>
	<path fill="#92D3F5" d="M68,47v22H4V47h1c3,0,9,3,15,3s10-3,16-3s11,3,16,3s7-3,15-3H68z"/>
	<polyline fill="none" points="68,39.0208 68,55.0208 4,55.0208 4,39.0208 	"/>
</g>
<g id="hair">
</g>
<g id="skin">
</g>
<g id="skin-shadow">
</g>
<g id="line">
	
		<path fill="none" stroke="#000000" stroke-width="1.8603" stroke-linecap="round" stroke-linejoin="round" stroke-miterlimit="10" d="
		M63.4525,47.0739c0.088-0.0825,0.1418-0.2035,0.1476-0.3325l0.0661-1.4563c0.0099-0.2177-0.1173-0.4093-0.3023-0.4554
		l-1.9028-0.4743l-5.017-3.2687c-0.0459-0.0299-0.0968-0.0487-0.1496-0.0553L25.7191,37.219c0,0-18.6574,0.1092-18.8835,3.2051
		c-0.226,3.0959,12.1477,8.6395,12.1477,8.6395s0.3095,0.3142,3.25,0.6743"/>
	
		<path fill="none" stroke="#000000" stroke-width="1.8603" stroke-linecap="round" stroke-linejoin="round" stroke-miterlimit="10" d="
		M45.7345,39.7147c0,0-6.8479-5.3894-15.0213-6.2024c-0.0867-0.0086-0.1747,0.0159-0.2494,0.0692l-5.1414,3.6651L45.7345,39.7147z"
		/>
	<path fill="none" stroke="#000000" stroke-width="2" stroke-linecap="round" stroke-linejoin="round" stroke-miterlimit="10" d="
		M5,47c3,0,9,3,15,3s10-3,16-3s11,3,16,3s7-3,15-3"/>
</g>
</svg>
