<svg id="emoji" xmlns="http://www.w3.org/2000/svg" viewBox="0 0 72 72">
  <g id="grid">
    <path d="M68,4V68H4V4H68m4-4H0V72H72V0Z" fill="#b3b3b3"></path>
    <path d="M12.923,10.9583H59.0769A1.9231,1.9231,0,0,1,61,12.8814V59.0352a1.9231,1.9231,0,0,1-1.9231,1.9231H12.9231A1.9231,1.9231,0,0,1,11,59.0352V12.8813A1.923,1.923,0,0,1,12.923,10.9583Z" fill="none" stroke="#00a5ff" stroke-miterlimit="10" stroke-width="0.1"></path>
    <rect x="16" y="4" width="40" height="64" rx="2.2537" fill="none" stroke="#00a5ff" stroke-miterlimit="10" stroke-width="0.1"></rect>
    <rect x="16" y="4" width="40" height="64" rx="2.2537" transform="translate(72) rotate(90)" fill="none" stroke="#00a5ff" stroke-miterlimit="10" stroke-width="0.1"></rect>
    <circle cx="36" cy="36" r="29" fill="none" stroke="#00a5ff" stroke-miterlimit="10" stroke-width="0.1"></circle>
  </g>
  <g id="color">
    <path fill="#ea5a47" d="M68,26.0871H32.9622c-0.5314,0-0.9622,0.391-0.9622,0.8733v2.4004h36V26.0871z" stroke="none"></path>
    <path fill="#FFFFFF" d="M68,25.0871H46.7416l6.1518-13.0284c0.1277-0.31,0.4055-0.5086,0.7113-0.5086H68" stroke="none"></path>
    <path fill="#3f3f3f" d="M32,29.3608c0,0,13.4044,6.7981,15.6724,22.2469c0.0637,0.4344,0.4686,0.7673,0.9515,0.7673H68V29.3608" stroke="none"></path>
    <path fill="#3f3f3f" stroke="none" stroke-width="2" stroke-linecap="round" stroke-linejoin="round" stroke-miterlimit="10" d="
		M63.146,11.5501V5.8734C63.146,5.391,63.4699,5,63.8695,5h2.261c0.3996,0,0.7235,0.391,0.7235,0.8734v5.6767H63.146z"></path>
    <path fill="#3f3f3f" stroke="none" stroke-width="2" stroke-linecap="round" stroke-linejoin="round" stroke-miterlimit="10" d="
		M32,29.3608c0,0,10.4044,6.7981,12.6724,22.2469c0.0637,0.4344,0.4686,0.7673,0.9515,0.7673H67"></path>
    <path fill="#ea5a47" stroke="none" stroke-width="2" stroke-linecap="round" stroke-linejoin="round" stroke-miterlimit="10" d="
		M67,25.625H32.9622C32.4308,25.625,32,26.016,32,26.4984v2.4004h35"></path>
    <path fill="none" d="M67,26.0871H45.7416l7.1518-14.0284c0.1277-0.31,0.4055-0.5086,0.7113-0.5086H68" stroke="none"></path>
    <path fill="#FFFFFF" stroke="none" stroke-width="2" stroke-linecap="round" stroke-linejoin="round" stroke-miterlimit="10" d="
		M34,63.55V64c0,0-0.1899-0.07-0.5-0.21C33.64,63.72,33.8101,63.64,34,63.55z"></path>
    <path fill="#FFFFFF" stroke="none" stroke-width="2" stroke-linecap="round" stroke-linejoin="round" stroke-miterlimit="10" d="
		M33.5,63.79C33.1899,63.93,33,64,33,64v-0.45C33.1899,63.64,33.36,63.72,33.5,63.79z"></path>
    <polyline fill="none" points="69,48.2353 68,68 4,68 4,48.2353 	" stroke="none"></polyline>
    <path fill="#92d3f5" d="M68,47v21H4V47h1c3,0,9,3,15,3s10-3,16-3s11,3,16,3s7-3,15-3H68z" stroke="none"></path>
  </g>
  <g id="hair">
  </g>
  <g id="skin">
  </g>
  <g id="skin-shadow">
  </g>
  <g id="line">
    <path fill="none" stroke="#000000" stroke-width="2" stroke-linecap="round" stroke-linejoin="round" stroke-miterlimit="10" d="
		M63.146,11.5501V5.8734C63.146,5.391,63.4699,5,63.8695,5h2.261c0.3996,0,0.7235,0.391,0.7235,0.8734v5.6767H63.146z"></path>
    <line fill="none" stroke="#000000" stroke-width="2" stroke-linecap="round" stroke-linejoin="round" stroke-miterlimit="10" x1="53.7229" y1="16.3536" x2="64.3773" y2="16.3536"></line>
    <line fill="none" stroke="#000000" stroke-width="2" stroke-linecap="round" stroke-linejoin="round" stroke-miterlimit="10" x1="51.5349" y1="20.4474" x2="64.3773" y2="20.4474"></line>
    <path fill="none" stroke="#000000" stroke-width="2" stroke-linecap="round" stroke-linejoin="round" stroke-miterlimit="10" d="
		M32,29.3608c0,0,10.4044,6.7981,12.6724,22.2469c0.0637,0.4344,0.4686,0.7673,0.9515,0.7673H67"></path>
    <line fill="none" stroke="#000000" stroke-width="2" stroke-linecap="round" stroke-linejoin="round" stroke-miterlimit="10" x1="53.7229" y1="16.3536" x2="64.3773" y2="16.3536"></line>
    <line fill="none" stroke="#000000" stroke-width="2" stroke-linecap="round" stroke-linejoin="round" stroke-miterlimit="10" x1="51.5349" y1="20.4474" x2="64.3773" y2="20.4474"></line>
    <path fill="none" stroke="#000000" stroke-width="2" stroke-linecap="round" stroke-linejoin="round" stroke-miterlimit="10" d="
		M67,25.625H32.9622C32.4308,25.625,32,26.016,32,26.4984v2.4004h35"></path>
    <path fill="none" stroke="#000000" stroke-width="2" stroke-linecap="round" stroke-linejoin="round" stroke-miterlimit="10" d="
		M66,25.625H45.7416l7.1518-13.5663c0.1277-0.31,0.4055-0.5086,0.7113-0.5086H67"></path>
    <line fill="none" stroke="#000000" stroke-width="2" stroke-linecap="round" stroke-linejoin="round" stroke-miterlimit="10" x1="53.7229" y1="16.3536" x2="64.3773" y2="16.3536"></line>
    <line fill="none" stroke="#000000" stroke-width="2" stroke-linecap="round" stroke-linejoin="round" stroke-miterlimit="10" x1="51.5349" y1="20.4474" x2="64.3773" y2="20.4474"></line>
    <line fill="none" stroke="#000000" stroke-width="2" stroke-linecap="round" stroke-linejoin="round" stroke-miterlimit="10" x1="53.7229" y1="16.3536" x2="64.3773" y2="16.3536"></line>
    <line fill="none" stroke="#000000" stroke-width="2" stroke-linecap="round" stroke-linejoin="round" stroke-miterlimit="10" x1="51.5349" y1="20.4474" x2="64.3773" y2="20.4474"></line>
    <path fill="none" stroke="#000000" stroke-width="2" stroke-linecap="round" stroke-linejoin="round" stroke-miterlimit="10" d="
		M34,63.55V64c0,0-0.1899-0.07-0.5-0.21C33.64,63.72,33.8101,63.64,34,63.55z"></path>
    <path fill="none" stroke="#000000" stroke-width="2" stroke-linecap="round" stroke-linejoin="round" stroke-miterlimit="10" d="
		M33.5,63.79C33.1899,63.93,33,64,33,64v-0.45C33.1899,63.64,33.36,63.72,33.5,63.79z"></path>
    <path fill="none" stroke="#000000" stroke-width="2" stroke-linecap="round" stroke-linejoin="round" stroke-miterlimit="10" d="
		M5,47c3,0,9,3,15,3s10-3,16-3s11,3,16,3s7-3,15-3"></path>
  </g>
</svg>