<?xml version="1.0" encoding="UTF-8"?>
<svg id="emoji" xmlns="http://www.w3.org/2000/svg" viewBox="0 0 72 72">
  <g id="grid">
    <path d="m68,4v64H4V4h64m4-4H0v72h72V0Z" fill="#b3b3b3"/>
    <path d="m12.923,10.9583h46.1539c1.0621,0,1.9231.861,1.9231,1.9231h0v46.1538c0,1.0621-.861,1.9231-1.9231,1.9231H12.9231c-1.0621,0-1.9231-.861-1.9231-1.9231h0V12.8813c0-1.062.861-1.923,1.923-1.923h0Z" fill="none" stroke="#00a5ff" stroke-miterlimit="10" stroke-width=".1"/>
    <path d="m18.2537,4h35.4926c1.2447,0,2.2537,1.009,2.2537,2.2537v59.4926c0,1.2447-1.009,2.2537-2.2537,2.2537H18.2537c-1.2447,0-2.2537-1.009-2.2537-2.2537V6.2537c0-1.2447,1.009-2.2537,2.2537-2.2537Z" fill="none" stroke="#00a5ff" stroke-miterlimit="10" stroke-width=".1"/>
    <path d="m68,18.2537v35.4926c0,1.2447-1.009,2.2537-2.2537,2.2537H6.2537c-1.2447,0-2.2537-1.009-2.2537-2.2537V18.2537c0-1.2447,1.009-2.2537,2.2537-2.2537h59.4926c1.2447,0,2.2537,1.009,2.2537,2.2537Z" fill="none" stroke="#00a5ff" stroke-miterlimit="10" stroke-width=".1"/>
    <circle cx="36" cy="36" r="29" fill="none" stroke="#00a5ff" stroke-miterlimit="10" stroke-width=".1"/>
  </g>
  <g id="color">
    <path d="m39,36.09v5.55l-15.78-1.03c.01-.02.02-.04.05-.07,1.12-1.34,5.87-6.26,14.83-5.45.51.05.9.49.9,1Z" fill="#9b9b9a"/>
    <path d="m65,38.93v4.43c0,.55-.5063,1-1.125,1h-3.375v-.43c0-.52-.495-.96-1.125-.99l-3.375-.2v-3.81c0-.55.5063-1,1.125-1h6.75c.6187,0,1.125.45,1.125,1Z" fill="#3f3f3f"/>
    <path d="m60,43.93v6.07H21.45s-2.2-1.54-4.62-5c-.61-.86-1.23-1.84-1.83-2.94-.1-.16-.18-.32-.27-.49-.37-.7.21-1.51,1.03-1.45l.62.04,6.84.45,15.78,1.03,17,1.1,3,.2c.56.03,1,.47,1,.99Z" fill="#d0cfce"/>
    <polyline points="67.9643 48.1099 68.0417 68.0208 4.0417 68.0208 4.0417 48.2561" fill="none"/>
    <path d="m68,47.0208h-.9583c-8,0-10,3-15,3s-10-3-16-3-10,3-16,3-12-3-15-3h-1v21h64v-10.5h-.0417v-10.5Z" fill="#92d3f5"/>
  </g>
  <g id="line">
    <path d="m39,36.09v5.55l-15.78-1.03c.01-.02.02-.04.05-.07,1.12-1.34,5.87-6.26,14.83-5.45.51.05.9.49.9,1Z" fill="none" stroke="#000" stroke-linecap="round" stroke-linejoin="round" stroke-width="2"/>
    <line x1="63" y1="44.36" x2="63" y2="47" fill="none" stroke="#000" stroke-linecap="round" stroke-linejoin="round" stroke-width="2"/>
    <path d="m65,38.93v4.43c0,.55-.5063,1-1.125,1h-3.375v-.43c0-.52-.495-.96-1.125-.99l-3.375-.2v-3.81c0-.55.5063-1,1.125-1h6.75c.6187,0,1.125.45,1.125,1Z" fill="none" stroke="#000" stroke-linecap="round" stroke-linejoin="round" stroke-width="2.1213"/>
    <path d="m21.45,50s-2.2-1.54-4.62-5c-.61-.86-1.23-1.84-1.83-2.94-.1-.16-.18-.32-.27-.49-.37-.7.21-1.51,1.03-1.45l.62.04,6.84.45,15.78,1.03,17,1.1,3,.2c.56.03,1,.47,1,.99v3.0908" fill="none" stroke="#000" stroke-linecap="round" stroke-linejoin="round" stroke-width="2"/>
    <path d="m5.0417,47.0208c3,0,9,3,15,3s10-3,16-3,11,3,16,3,7-3,15-3" fill="none" stroke="#000" stroke-linecap="round" stroke-linejoin="round" stroke-width="2"/>
  </g>
</svg>