<?xml version="1.0" encoding="UTF-8"?>
<svg id="emoji" xmlns="http://www.w3.org/2000/svg" viewBox="0 0 72 72">
  <g id="grid">
    <path d="m68,4v64H4V4h64m4-4H0v72h72V0Z" fill="#b3b3b3"/>
    <path d="m12.923,10.9583h46.1539c1.0621,0,1.9231.861,1.9231,1.9231h0v46.1538c0,1.0621-.861,1.9231-1.9231,1.9231H12.9231c-1.0621,0-1.9231-.861-1.9231-1.9231h0V12.8813c0-1.062.861-1.923,1.923-1.923h0Z" fill="none" stroke="#00a5ff" stroke-miterlimit="10" stroke-width=".1"/>
    <path d="m18.2537,4h35.4926c1.2447,0,2.2537,1.009,2.2537,2.2537v59.4926c0,1.2447-1.009,2.2537-2.2537,2.2537H18.2537c-1.2447,0-2.2537-1.009-2.2537-2.2537V6.2537c0-1.2447,1.009-2.2537,2.2537-2.2537Z" fill="none" stroke="#00a5ff" stroke-miterlimit="10" stroke-width=".1"/>
    <path d="m68,18.2537v35.4926c0,1.2447-1.009,2.2537-2.2537,2.2537H6.2537c-1.2447,0-2.2537-1.009-2.2537-2.2537V18.2537c0-1.2447,1.009-2.2537,2.2537-2.2537h59.4926c1.2447,0,2.2537,1.009,2.2537,2.2537Z" fill="none" stroke="#00a5ff" stroke-miterlimit="10" stroke-width=".1"/>
    <circle cx="36" cy="36" r="29" fill="none" stroke="#00a5ff" stroke-miterlimit="10" stroke-width=".1"/>
  </g>
  <g id="color">
    <polyline points="68.0071 47.866 68 68 4 68 4 48.2353" fill="none"/>
    <path d="m68,47v21H4v-21h1c3,0,9,3,15,3s10-3,16-3,11,3,16,3,7-3,15-3h1Z" fill="#92d3f5"/>
    <path d="m37.5,10.5v5h-4v-5c0-.5523.4477-1,1-1h2c.5523,0,1,.4477,1,1Z" fill="#3f3f3f"/>
    <path d="m48.9045,31h-26.809l5.9312-14.8705c.1516-.3801.5196-.6295.9288-.6295h13.089c.4092,0,.7772.2494.9288.6295l5.9312,14.8705Z" fill="#fff"/>
    <path d="m55,34.7485c-8.6667,3.6647-7.2222,21.9045-10.1111,24.653-2.0799,1.9789-6.4133,3.4815-8.6667,4.1686-.2743.0825-.52.1557-.7222.2199-.2022-.0642-.4479-.1374-.7222-.2199-2.2534-.6871-6.5868-2.1897-8.6667-4.1686-2.8889-2.7485-1.4444-20.9883-10.1111-24.653h39Z" fill="#3f3f3f"/>
    <path d="m55,32v2.7485H16v-2.7485c0-.5523.4477-1,1-1h37c.5523,0,1,.4477,1,1Z" fill="#ea5a47"/>
  </g>
  <g id="line">
    <path d="m47.4115,49.3367c1.5483.386,3.0684.6633,4.5885.6633,5,0,7-3,15-3" fill="none" stroke="#000" stroke-linecap="round" stroke-linejoin="round" stroke-width="2"/>
    <path d="m5,47c3,0,9,3,15,3,1.292,0,2.4913-.1391,3.6378-.3574" fill="none" stroke="#000" stroke-linecap="round" stroke-linejoin="round" stroke-width="2"/>
    <path d="m37.5,10.5v5h-4v-5c0-.5523.4477-1,1-1h2c.5523,0,1,.4477,1,1Z" fill="none" stroke="#000" stroke-linecap="round" stroke-linejoin="round" stroke-width="2"/>
    <path d="m48.9045,31h-26.809l5.9312-14.8705c.1516-.3801.5196-.6295.9288-.6295h13.089c.4092,0,.7772.2494.9288.6295l5.9312,14.8705Z" fill="none" stroke="#000" stroke-linecap="round" stroke-linejoin="round" stroke-width="2"/>
    <path d="m23.6377,49.6421c-1.0449-5.989-2.7008-12.806-7.6377-14.8936h39c-8.6667,3.6647-7.2222,21.9045-10.1111,24.653-2.0799,1.9789-6.4133,3.4815-8.6667,4.1686-.2743.0825-.52.1557-.7222.2199-.2022-.0642-.4479-.1374-.7222-.2199-2.2534-.6871-6.5868-2.1897-8.6667-4.1686-1.2433-1.1828-1.6839-5.2348-2.4734-9.7594" fill="none" stroke="#000" stroke-linecap="round" stroke-linejoin="round" stroke-width="2"/>
    <path d="m55,32v2.7485H16v-2.7485c0-.5523.4477-1,1-1h37c.5523,0,1,.4477,1,1Z" fill="none" stroke="#000" stroke-linecap="round" stroke-linejoin="round" stroke-width="2"/>
    <line x1="35.5" y1="63.79" x2="35.5" y2="32" fill="none" stroke="#000" stroke-linecap="round" stroke-linejoin="round" stroke-width="2"/>
    <line x1="30" y1="21" x2="41" y2="21" fill="none" stroke="#000" stroke-linecap="round" stroke-linejoin="round" stroke-width="2"/>
    <line x1="28" y1="26" x2="43" y2="26" fill="none" stroke="#000" stroke-linecap="round" stroke-linejoin="round" stroke-width="2"/>
  </g>
</svg>