<svg id="emoji" viewBox="0 0 72 72" xmlns="http://www.w3.org/2000/svg">
  <g id="grid">
    <path fill="#b3b3b3" d="M68,4V68H4V4H68m4-4H0V72H72V0Z"/>
    <path fill="none" stroke="#00a5ff" stroke-miterlimit="10" stroke-width="0.1" d="M12.923,10.9583H59.0769A1.9231,1.9231,0,0,1,61,12.8814V59.0352a1.9231,1.9231,0,0,1-1.9231,1.9231H12.9231A1.9231,1.9231,0,0,1,11,59.0352V12.8813A1.923,1.923,0,0,1,12.923,10.9583Z"/>
    <rect x="16" y="4" rx="2.2537" width="40" height="64" fill="none" stroke="#00a5ff" stroke-miterlimit="10" stroke-width="0.1"/>
    <rect x="16" y="4" rx="2.2537" width="40" height="64" transform="rotate(90 36 36)" fill="none" stroke="#00a5ff" stroke-miterlimit="10" stroke-width="0.1"/>
    <circle cx="36" cy="36" r="29" fill="none" stroke="#00a5ff" stroke-miterlimit="10" stroke-width="0.1"/>
  </g>
  <g id="color">
    <rect x="18" y="9" width="36" height="54" fill="#A57939" stroke="none" stroke-linejoin="round" stroke-miterlimit="10" stroke-width="2"/>
    <rect x="24" y="14.0943" width="24" height="16.3019" fill="#6A462F" stroke="none" stroke-linejoin="round" stroke-miterlimit="10" stroke-width="2"/>
    <rect x="24" y="45.6792" width="24" height="11.2075" fill="#6A462F" stroke="none" stroke-linejoin="round" stroke-miterlimit="10" stroke-width="2"/>
  </g>
  <g id="hair"/>
  <g id="skin"/>
  <g id="skin-shadow"/>
  <g id="line">
    <rect x="18" y="9" width="36" height="54" fill="none" stroke="#000000" stroke-linejoin="round" stroke-miterlimit="10" stroke-width="2"/>
    <ellipse cx="49" cy="36.5094" rx="2.5" ry="2.0377" fill="#000000" stroke="none"/>
    <path fill="#000000" stroke="none" d="M49.5,41.6038h-1c-0.5523,0-1-0.4477-1-1v-6.1509c0-0.5523,0.4477-1,1-1h1c0.5523,0,1,0.4477,1,1v6.1509 C50.5,41.1561,50.0523,41.6038,49.5,41.6038z"/>
    <rect x="24" y="14.0943" width="24" height="16.3019" fill="none" stroke="#000000" stroke-linejoin="round" stroke-miterlimit="10" stroke-width="2"/>
    <rect x="24" y="45.6792" width="24" height="11.2075" fill="none" stroke="#000000" stroke-linejoin="round" stroke-miterlimit="10" stroke-width="2"/>
  </g>
</svg>
