<svg id="emoji" xmlns="http://www.w3.org/2000/svg" viewBox="0 0 72 72">
  <g id="grid">
    <path d="M68,4V68H4V4H68m4-4H0V72H72V0Z" fill="#b3b3b3"/>
    <path d="M12.923,10.9583H59.0769A1.9231,1.9231,0,0,1,61,12.8814V59.0352a1.9231,1.9231,0,0,1-1.9231,1.9231H12.9231A1.9231,1.9231,0,0,1,11,59.0352V12.8813A1.923,1.923,0,0,1,12.923,10.9583Z" fill="none" stroke="#00a5ff" stroke-miterlimit="10" stroke-width="0.1"/>
    <rect x="16" y="4" width="40" height="64" rx="2.2537" fill="none" stroke="#00a5ff" stroke-miterlimit="10" stroke-width="0.1"/>
    <rect x="16" y="4" width="40" height="64" rx="2.2537" transform="translate(72) rotate(90)" fill="none" stroke="#00a5ff" stroke-miterlimit="10" stroke-width="0.1"/>
    <circle cx="36" cy="36" r="29" fill="none" stroke="#00a5ff" stroke-miterlimit="10" stroke-width="0.1"/>
  </g>
  <g id="color">
    <rect x="35.264" y="29.2096" fill="#D0CFCE" width="11.3187" height="30.9" stroke="none"/>
    <rect x="29.9925" y="29.2096" fill="#9B9B9A" width="11.3187" height="7.2501" stroke="none"/>
    <path fill="#9B9B9A" d="M14.7762,36c-0.2747-6.5184,0.5759-5.8923,0.5759-5.8923l22.9394-0.0462l-0.0012,3.538 C38.2899,34.9256,37.8453,36,37.2971,36H14.7762z" stroke="none"/>
    <path fill="#D0CFCE" stroke="#D0CFCE" stroke-width="2" stroke-linejoin="round" stroke-miterlimit="10" d="M42.0698,59.2955 h6.9469c-2.6901-9.2639-1.7826-17.3885-1.7826-17.3885s0.1739-4.8033,3.4783-5.8033c0,0,3.7391-1.087,5-1.8261V16.893H42.1083 v14.1367L42.0698,59.2955z"/>
    <path fill="#D0CFCE" d="M15.661,35.5399c0,0-0.201,5.0192,4.9803,8.9725l2.9011,1.7458c0,0-0.8331,7.4562-0.9581,11.4135 c0,0,0.0723,1.5872,3.2907,1.7079h9.6223c0,0,1.9343,0.0514,2.4769-1.4407V46.0925c0,0,2.8109-2.3107,3.4363-3.3459 c0,0,2.8044-3.9765,1.6135-7.0315c0,0-0.93-0.1194-4.1375-0.1263l-18.8161-0.0401L15.661,35.5399z" stroke="none"/>
  </g>
  <g id="hair"/>
  <g id="skin"/>
  <g id="skin-shadow"/>
  <g id="line">
    <path fill="none" stroke="#000000" stroke-width="2" stroke-linecap="round" stroke-linejoin="round" stroke-miterlimit="10" d="M15.661,35.5399c0,0-0.201,5.0192,4.9803,8.9725l2.9011,1.7458c0,0-0.9857,7.4544-0.9581,11.4135 c0.0065,0.9269,0.0723,1.5872,3.2907,1.7079h9.6223c0,0,2.4297,0.1463,2.4769-1.4407c0.0894-3.0038,0-11.8463,0-11.8463 s2.8109-2.3107,3.4363-3.3459c0,0,2.8044-3.9765,1.6135-7.0315c0,0-0.93-0.1194-4.1375-0.1263l-18.8161-0.0401L15.661,35.5399z"/>
    <path fill="none" stroke="#000000" stroke-width="2" stroke-linecap="round" stroke-linejoin="round" stroke-miterlimit="10" d="M38.1354,30.0615H16.4951c0,0-0.9323,0.0764-0.8214,1.6588"/>
    <path fill="none" stroke="#000000" stroke-width="2" stroke-linecap="round" stroke-linejoin="round" stroke-miterlimit="10" d="M42.0698,59.2955h6.9469c-2.6901-9.2639-1.7826-17.3885-1.7826-17.3885s0.1739-4.8033,3.4783-5.8033c0,0,3.7391-1.087,5-1.8261 V16.893H42.1083v14.1367"/>
    <line fill="none" stroke="#000000" stroke-width="2" stroke-linecap="round" stroke-linejoin="round" stroke-miterlimit="10" x1="42" y1="12.875" x2="55.9655" y2="12.875"/>
  </g>
</svg>
