<svg id="emoji" x="0" y="0" viewBox="0 0 72 72" version="1.1" xmlns="http://www.w3.org/2000/svg">
  <g id="grid">
    <path fill="#B3B3B3" d="M68,4v64H4V4H68 M72,0H0v72h72V0z"/>
    <path fill="none" stroke="#00A5FF" stroke-miterlimit="10" stroke-width="0.1" d="M12.923,10.9583h46.1539 c1.0621,0,1.9231,0.861,1.9231,1.9231v0v46.1538c0,1.0621-0.861,1.9231-1.9231,1.9231H12.9231 c-1.0621,0-1.9231-0.861-1.9231-1.9231l0,0V12.8813C11,11.8193,11.861,10.9583,12.923,10.9583L12.923,10.9583z"/>
    <path fill="none" stroke="#00A5FF" stroke-miterlimit="10" stroke-width="0.1" d="M18.2537,4h35.4926C54.991,4,56,5.009,56,6.2537 v59.4926C56,66.991,54.991,68,53.7463,68H18.2537C17.009,68,16,66.991,16,65.7463V6.2537C16,5.009,17.009,4,18.2537,4z"/>
    <path fill="none" stroke="#00A5FF" stroke-miterlimit="10" stroke-width="0.1" d="M68,18.2537v35.4926 C68,54.991,66.991,56,65.7463,56H6.2537C5.009,56,4,54.991,4,53.7463V18.2537C4,17.009,5.009,16,6.2537,16h59.4926 C66.991,16,68,17.009,68,18.2537z"/>
    <circle cx="36" cy="36" r="29" fill="none" stroke="#00A5FF" stroke-miterlimit="10" stroke-width="0.1"/>
  </g>
  <g id="color">
    <rect x="11" y="36.3229" width="24.6979" height="24.6979" fill="#9B9B9A"/>
  </g>
  <g id="hair"/>
  <g id="skin"/>
  <g id="skin-shadow"/>
  <g id="line">
    <polyline fill="none" stroke="#000000" stroke-linecap="round" stroke-linejoin="round" stroke-width="2" points="56,38.2187 56,40.7187 53.5,40.7187"/>
    <line x1="49.5604" x2="35.7719" y1="40.7187" y2="40.7187" fill="none" stroke="#000000" stroke-dasharray="3.9396,3.9396" stroke-linecap="round" stroke-linejoin="round" stroke-width="2"/>
    <line x1="31.3021" x2="31.3021" y1="34.2791" y2="20.4906" fill="none" stroke="#000000" stroke-dasharray="3.9396,3.9396" stroke-linecap="round" stroke-linejoin="round" stroke-width="2"/>
    <polyline fill="none" stroke="#000000" stroke-linecap="round" stroke-linejoin="round" stroke-width="2" points="31.3021,18.5208 31.3021,16.0208 33.8021,16.0208"/>
    <line x1="37.7417" x2="51.5302" y1="16.0208" y2="16.0208" fill="none" stroke="#000000" stroke-dasharray="3.9396,3.9396" stroke-linecap="round" stroke-linejoin="round" stroke-width="2"/>
    <polyline fill="none" stroke="#000000" stroke-linecap="round" stroke-linejoin="round" stroke-width="2" points="53.5,16.0208 56,16.0208 56,18.5208"/>
    <line x1="56" x2="56" y1="22.4604" y2="36.2489" fill="none" stroke="#000000" stroke-dasharray="3.9396,3.9396" stroke-linecap="round" stroke-linejoin="round" stroke-width="2"/>
    <rect x="11" y="36.3229" width="24.6979" height="24.6979" fill="none" stroke="#000000" stroke-linecap="round" stroke-linejoin="round" stroke-miterlimit="10" stroke-width="2"/>
    <polyline fill="none" stroke="#000000" stroke-linecap="round" stroke-linejoin="round" stroke-miterlimit="10" stroke-width="2" points="35.6013,36.4195 42.6337,29.3871 42.6337,36"/>
    <line x1="42.6337" x2="36.0625" y1="29.3871" y2="29.3871" fill="none" stroke="#000000" stroke-linecap="round" stroke-linejoin="round" stroke-miterlimit="10" stroke-width="2"/>
  </g>
</svg>
