<svg id="emoji" x="0" y="0" viewBox="0 0 72 72" version="1.1" xmlns="http://www.w3.org/2000/svg">
  <g id="grid">
    <path fill="#B3B3B3" d="M68,4v64H4V4H68 M72,0H0v72h72V0z"/>
    <path fill="none" stroke="#00A5FF" stroke-miterlimit="10" stroke-width="0.1" d="M12.923,10.9583h46.1539 c1.0621,0,1.9231,0.861,1.9231,1.9231v0v46.1538c0,1.0621-0.861,1.9231-1.9231,1.9231H12.9231 c-1.0621,0-1.9231-0.861-1.9231-1.9231l0,0V12.8813C11,11.8193,11.861,10.9583,12.923,10.9583L12.923,10.9583z"/>
    <path fill="none" stroke="#00A5FF" stroke-miterlimit="10" stroke-width="0.1" d="M18.2537,4h35.4926C54.991,4,56,5.009,56,6.2537 v59.4926C56,66.991,54.991,68,53.7463,68H18.2537C17.009,68,16,66.991,16,65.7463V6.2537C16,5.009,17.009,4,18.2537,4z"/>
    <path fill="none" stroke="#00A5FF" stroke-miterlimit="10" stroke-width="0.1" d="M68,18.2537v35.4926 C68,54.991,66.991,56,65.7463,56H6.2537C5.009,56,4,54.991,4,53.7463V18.2537C4,17.009,5.009,16,6.2537,16h59.4926 C66.991,16,68,17.009,68,18.2537z"/>
    <circle cx="36" cy="36" r="29" fill="none" stroke="#00A5FF" stroke-miterlimit="10" stroke-width="0.1"/>
  </g>
  <g id="hair"/>
  <g id="skin">
    <path fill="#FCEA2B" d="M64.73,33.5198l-9.04,1.92c-1.07,0.25-2.07,0.56-3.35,2.15l-8.46,9.82c-0.79,0.95-1.27,1.5099-2.54,1.91 l-20.9,7.74c-4.44,1.13-8.44,0-7.44-8.43c-4.34,1.65-8.47,0.31-8.17-3.46l-0.01-20.46c0.58-4.26,4.39-6.29,7.68-6.63l51.33-2.08 C68.92,20.5898,69.32,28.4297,64.73,33.5198z"/>
  </g>
  <g id="skin-shadow"/>
  <g id="color"/>
  <g id="line">
    <path fill="none" stroke="#000000" stroke-linecap="round" stroke-linejoin="round" stroke-miterlimit="10" stroke-width="2" d="M43.875,47.4062c-0.7812,0.9585-1.2656,1.5173-2.5312,1.9171"/>
    <path fill="none" stroke="#000000" stroke-linecap="round" stroke-linejoin="round" stroke-miterlimit="10" stroke-width="2" d="M43.875,47.4062l8.4688-9.8125C53.625,36,54.625,35.6875,55.6875,35.4375l9.0401-1.9202c4.5904-5.0842,4.19-12.927-0.8941-17.5173 L12.5,18.0833c-3.2917,0.3333-7.099,2.3638-7.6823,6.6224l0.0156,20.4609C4.5312,48.9375,8.6562,50.2812,13,48.625 c-1,8.4375,3,9.5625,7.4375,8.4375l20.9063-7.7392"/>
    <path fill="none" stroke="#000000" stroke-linecap="round" stroke-linejoin="round" stroke-miterlimit="10" stroke-width="2" d="M15.3139,29.1676c0,4.0625,4.892,4.3437,10.9375,4.3437c-0.5,4.0312-2.5938,8.625-10.0312,12.995"/>
    <path fill="none" stroke="#000000" stroke-linecap="round" stroke-linejoin="round" stroke-miterlimit="10" stroke-width="2" d="M43.875,47.4062c-0.7812,0.9585-1.2656,1.5173-2.5312,1.9171"/>
    <path fill="none" stroke="#000000" stroke-linecap="round" stroke-linejoin="round" stroke-miterlimit="10" stroke-width="2" d="M43.875,47.4062l8.4688-9.8125C53.625,36,54.625,35.6875,55.6875,35.4375l9.0401-1.9202c4.5904-5.0842,4.19-12.927-0.8941-17.5173 L12.5,18.0833c-3.2917,0.3333-7.099,2.3638-7.6823,6.6224l0.0156,20.4609C4.5312,48.9375,8.6562,50.2812,13,48.625 c-1,8.4375,3,9.5625,7.4375,8.4375l20.9063-7.7392"/>
    <path fill="none" stroke="#000000" stroke-linecap="round" stroke-linejoin="round" stroke-miterlimit="10" stroke-width="2" d="M15.3139,29.1676c0,4.0625,4.892,4.3437,10.9375,4.3437c-0.5,4.0312-2.5938,8.625-10.0312,12.995"/>
  </g>
</svg>
