<svg id="emoji" viewBox="0 0 72 72" version="1.1" xmlns="http://www.w3.org/2000/svg">
  <g id="grid">
    <path fill="#B3B3B3" d="M68,4v64H4V4H68 M72,0H0v72h72V0z"/>
    <path fill="none" stroke="#00A5FF" stroke-miterlimit="10" stroke-width="0.1" d="m12.92 10.96h46.15c1.062 0 1.923 0.861 1.923 1.923v46.15c0 1.062-0.861 1.923-1.923 1.923h-46.15c-1.062 0-1.923-0.861-1.923-1.923v-46.15c0-1.062 0.861-1.923 1.923-1.923z"/>
    <path fill="none" stroke="#00A5FF" stroke-miterlimit="10" stroke-width="0.1" d="M18.2537,4h35.4926C54.991,4,56,5.009,56,6.2537 v59.4926C56,66.991,54.991,68,53.7463,68H18.2537C17.009,68,16,66.991,16,65.7463V6.2537C16,5.009,17.009,4,18.2537,4z"/>
    <path fill="none" stroke="#00A5FF" stroke-miterlimit="10" stroke-width="0.1" d="M68,18.2537v35.4926 C68,54.991,66.991,56,65.7463,56H6.2537C5.009,56,4,54.991,4,53.7463V18.2537C4,17.009,5.009,16,6.2537,16h59.4926 C66.991,16,68,17.009,68,18.2537z"/>
    <circle cx="36" cy="36" r="29" fill="none" stroke="#00A5FF" stroke-miterlimit="10" stroke-width="0.1"/>
  </g>
  <g id="color"/>
  <g id="hair"/>
  <g id="skin">
    <path fill="#fcea2b" d="m66.8 45.39c0.2947 3.704-3.753 5.02-8.026 3.399 0.9824 8.281-2.947 9.392-7.309 8.281l-20.53-7.604c-1.248-0.393-1.719-0.9431-2.485-1.876l-8.321-9.647c-1.257-1.562-2.24-1.867-3.291-2.112l-8.881-1.886c-4.509-5-4.116-12.7 0.8841-17.21l50.43 2.043c3.232 0.334 6.975 2.328 7.545 6.513z"/>
  </g>
  <g id="line" stroke-miterlimit="10">
    <path fill="none" stroke="#000" stroke-linecap="round" stroke-linejoin="round" stroke-miterlimit="10" stroke-width="2" d="m28.62 47.58-8.321-9.639c-1.259-1.566-2.241-1.872-3.285-2.118l-8.882-1.886c-4.51-4.994-4.117-12.7 0.8787-17.21l50.44 2.046c3.234 0.3274 6.975 2.322 7.548 6.505l-0.01533 20.1c0.2968 3.704-3.756 5.024-8.024 3.397 0.9826 8.288-2.948 9.393-7.308 8.288l-20.54-7.602c-1.044-0.4485-1.785-1.149-2.487-1.883z"/>
    <path fill="none" stroke="#000" stroke-linecap="round" stroke-linejoin="round" stroke-miterlimit="10" stroke-width="2" d="m56.69 29.67c0 3.99-4.807 4.267-10.75 4.267 0.4913 3.96 2.549 8.472 9.856 12.76"/>
    <path fill="none" stroke="#000" stroke-linecap="round" stroke-linejoin="round" stroke-miterlimit="10" stroke-width="2" d="m56.69 29.67c0 3.99-4.807 4.267-10.75 4.267 0.4913 3.96 2.549 8.472 9.856 12.76"/>
  </g>
</svg>
