<svg version="1.1" id="emoji" xmlns="http://www.w3.org/2000/svg" x="0" y="0" viewBox="0 0 72 72" enable-background="new 0 0 72 72" xml:space="preserve">
  <g id="grid">
    <path fill="#B3B3B3" d="M68,4v64H4V4H68 M72,0H0v72h72V0z"/>
    <path fill="none" stroke="#00A5FF" stroke-width="0.1" stroke-miterlimit="10" d="M12.923,10.9583h46.1539 c1.0621,0,1.9231,0.861,1.9231,1.9231v0v46.1538c0,1.0621-0.861,1.9231-1.9231,1.9231H12.9231 c-1.0621,0-1.9231-0.861-1.9231-1.9231l0,0V12.8813C11,11.8193,11.861,10.9583,12.923,10.9583L12.923,10.9583z"/>
    <path fill="none" stroke="#00A5FF" stroke-width="0.1" stroke-miterlimit="10" d="M18.2537,4h35.4926C54.991,4,56,5.009,56,6.2537 v59.4926C56,66.991,54.991,68,53.7463,68H18.2537C17.009,68,16,66.991,16,65.7463V6.2537C16,5.009,17.009,4,18.2537,4z"/>
    <path fill="none" stroke="#00A5FF" stroke-width="0.1" stroke-miterlimit="10" d="M68,18.2537v35.4926 C68,54.991,66.991,56,65.7463,56H6.2537C5.009,56,4,54.991,4,53.7463V18.2537C4,17.009,5.009,16,6.2537,16h59.4926 C66.991,16,68,17.009,68,18.2537z"/>
    <circle fill="none" stroke="#00A5FF" stroke-width="0.1" stroke-miterlimit="10" cx="36" cy="36" r="29"/>
  </g>
  <g id="color">
    <path fill="#92D3F5" d="M8.125,60.958V57c0-4.9941,5.0078-9,10-9c6,5,12,5,18,0c4.9941,0,10,4.0059,10,9v3.958"/>
    <path fill="#9B9B9A" d="M58.0186,39.9502c1.3173,1.9453,1.1142,4.6123-0.6084,6.335c-1.9532,1.9531-5.1182,1.9531-7.0713,0 c-1.7823-1.7832-1.9375-4.5772-0.4649-6.5362L49.375,39l0.6875-0.5625l-2.75-3.0625l-1.5-3.625l-0.1943-4.3286l2.5732,1.2036 L57.875,38.5c0,0,1.0625,0.9355,1,1.249"/>
    <path fill="#D0CFCE" d="M53.875,31.75c0,0.3428,0.0352,0.6768,0.1006,1L38.125,33c0,0,0.75,3.75,3.75,3.75h17 c2.7617,0,5-2.2383,5-5c0-2.7622-2.2383-5.0005-5-5.0005S53.875,28.9878,53.875,31.75z"/>
  </g>
  <g id="hair">
    <path fill="#F1B31C" d="M17.125,39c-4,0-4-6-4-13s4-14,14-14s13.1221,7.0181,17,14c0.7061,1.272,1,3,1,6l-7,1 c0.9457,2.7696,3.1955,4.3563,6.9414,4.5859c0,0-0.8164,3.4141-1.6289,3.4141s-8.123-0.251-8.123-0.251"/>
  </g>
  <g id="skin">
    <path fill="#FCEA2B" d="M16.0615,31c0,9,4.9365,14,11,14c5.9365,0,11.0635-5,11.0635-14c0-3-1-5-1-5c-3-2.9995-7-8.0005-7-8.0005 c-4,3-7,6-13,7.0005C17.125,25,16.0615,25.9995,16.0615,31z"/>
  </g>
  <g id="skin-shadow"/>
  <g id="line">
    <circle cx="58.875" cy="31.75" r="2"/>
    <path fill="none" stroke="#000000" stroke-width="2" stroke-linecap="round" stroke-linejoin="round" d="M45.125,37 c-0.042,1.1074-0.6924,4-2,4h-7"/>
    <path fill="none" stroke="#000000" stroke-width="2" stroke-linecap="round" stroke-linejoin="round" d="M17.125,39c-4,0-4-6-4-13 s4-14,14-14s13.1221,7.0181,17,14c0.7061,1.272,1,3,1,6"/>
    <path fill="none" stroke="#000000" stroke-width="2" stroke-linecap="round" stroke-linejoin="round" d="M8.125,60v-3 c0-4.9941,5.0078-9,10-9c6,5,12,5,18,0c4.9941,0,10,4.0059,10,9v3"/>
    <path d="M32.998,30c0,1.1045-0.8955,2-2,2c-1.1044,0-2-0.8955-2-2s0.8956-2,2-2C32.1025,28,32.998,28.8955,32.998,30"/>
    <path d="M24.998,30c0,1.1045-0.8955,2-2,2c-1.1044,0-2-0.8955-2-2s0.8956-2,2-2C24.1025,28,24.998,28.8955,24.998,30"/>
    <path fill="none" stroke="#000000" stroke-width="2" stroke-linejoin="round" d="M16.0615,31c0,9,4.9365,14,11,14 c5.9365,0,11.0635-5,11.0635-14c0-3-1-5-1-5c-3-2.9995-7-8.0005-7-8.0005c-4,3-7,6-13,7.0005C17.125,25,16.0615,25.9995,16.0615,31 z"/>
    <path fill="none" stroke="#000000" stroke-width="2" stroke-linecap="round" stroke-linejoin="round" d="M24.125,38 c1.9385,0.9385,4,1,6,0"/>
    <path fill="none" stroke="#000000" stroke-width="2" stroke-linecap="round" stroke-linejoin="round" stroke-miterlimit="10" d="M53.875,31.75c0,0.3428,0.0352,0.6768,0.1006,1L38.125,33c0,0,0.75,3.75,3.75,3.75h17c2.7617,0,5-2.2383,5-5 c0-2.7622-2.2383-5.0005-5-5.0005S53.875,28.9878,53.875,31.75z"/>
    <path fill="none" stroke="#000000" stroke-width="2" stroke-linecap="round" stroke-linejoin="round" stroke-miterlimit="10" d="M58.0186,39.9502c1.3173,1.9453,1.1142,4.6123-0.6084,6.335c-1.9532,1.9531-5.1182,1.9531-7.0713,0 c-1.7823-1.7832-1.9375-4.5772-0.4649-6.5362"/>
    <path fill="none" stroke="#000000" stroke-width="2" stroke-linecap="round" stroke-linejoin="round" stroke-miterlimit="10" d="M44.6035,26.7402c0.2598,0.1075,0.5117,0.253,0.749,0.4434c0.0909,0.0727,0.1797,0.1518,0.2657,0.2378l2.5732,2.5747"/>
    <ellipse cx="53.8751" cy="42.7494" rx="1.9995" ry="1.9995"/>
  </g>
</svg>
