<svg id="emoji" xmlns="http://www.w3.org/2000/svg" viewBox="0 0 72 72">
  <g id="grid">
    <path d="M68,4V68H4V4H68m4-4H0V72H72V0Z" fill="#b3b3b3"></path>
    <path d="M12.923,10.9583H59.0769A1.9231,1.9231,0,0,1,61,12.8814V59.0352a1.9231,1.9231,0,0,1-1.9231,1.9231H12.9231A1.9231,1.9231,0,0,1,11,59.0352V12.8813A1.923,1.923,0,0,1,12.923,10.9583Z" fill="none" stroke="#00a5ff" stroke-miterlimit="10" stroke-width="0.1"></path>
    <rect x="16" y="4" width="40" height="64" rx="2.2537" fill="none" stroke="#00a5ff" stroke-miterlimit="10" stroke-width="0.1"></rect>
    <rect x="16" y="4" width="40" height="64" rx="2.2537" transform="translate(72) rotate(90)" fill="none" stroke="#00a5ff" stroke-miterlimit="10" stroke-width="0.1"></rect>
    <circle cx="36" cy="36" r="29" fill="none" stroke="#00a5ff" stroke-miterlimit="10" stroke-width="0.1"></circle>
  </g>
  <g id="color">
    <path fill="#F1B31C" d="M17.125,39c-4,0-4-6-4-13s4-14,14-14s13.1221,7.0181,17,14c0.7061,1.272,1,3,1,6l-0.0586,5.5859
		c0,0-0.8164,3.4141-1.6289,3.4141c-0.8125,0-8.123-0.251-8.123-0.251" stroke="none"></path>
    <path fill="#92D3F5" d="M8.125,60.958V57c0-4.9941,5.0078-9,10-9c6,5,12,5,18,0c4.9941,0,10,4.0059,10,9v3.958" stroke="none"></path>
    <path fill="#9b9b9a" d="M58.0186,39.9502c1.3173,1.9453,1.1142,4.6123-0.6084,6.335c-1.9532,1.9531-5.1182,1.9531-7.0713,0
		c-1.7823-1.7832-1.9375-4.5772-0.4649-6.5362L49.375,39l0.6875-0.5625l-2.75-3.0625l-1.5-3.625l-0.1943-4.3286l2.5732,1.2036
		L57.875,38.5c0,0,1.0625,0.9355,1,1.249" stroke="none"></path>
    <path fill="#d0cfce" d="M53.875,31.75c0,0.3428,0.0352,0.6768,0.1006,1L38.125,33c0,0,0.75,3.75,3.75,3.75h17
		c2.7617,0,5-2.2383,5-5c0-2.7622-2.2383-5.0005-5-5.0005C56.1133,26.7495,53.875,28.9878,53.875,31.75z" stroke="none"></path>
  </g>
  <g id="hair">
  </g>
  <g id="skin">
    <path fill="#FCEA2B" d="M16.0615,31c0,9,4.9365,14,11,14c5.9365,0,11.0635-5,11.0635-14c0-3-1-5-1-5c-3-2.9995-7-8.0005-7-8.0005
		c-4,3-7,6-13,7.0005C17.125,25,16.0615,25.9995,16.0615,31z" stroke="none"></path>
  </g>
  <g id="skin-shadow">
  </g>
  <g id="line">
    <circle cx="58.875" cy="31.75" r="2" fill="#000000" stroke="none"></circle>
    <path fill="none" stroke="#000000" stroke-width="2" stroke-linecap="round" stroke-linejoin="round" d="M45.125,37
		c-0.042,1.1074-0.6924,4-2,4h-7"></path>
    <path fill="none" stroke="#000000" stroke-width="2" stroke-linecap="round" stroke-linejoin="round" d="M17.125,39c-4,0-4-6-4-13
		s4-14,14-14s13.1221,7.0181,17,14c0.7061,1.272,1,3,1,6"></path>
    <path fill="none" stroke="#000000" stroke-width="2" stroke-linecap="round" stroke-linejoin="round" d="M8.125,60v-3
		c0-4.9941,5.0078-9,10-9c6,5,12,5,18,0c4.9941,0,10,4.0059,10,9v3"></path>
    <path fill="#000000" d="M32.998,30c0,1.1045-0.8955,2-2,2c-1.1044,0-2-0.8955-2-2s0.8956-2,2-2
		C32.1025,28,32.998,28.8955,32.998,30" stroke="none"></path>
    <path fill="#000000" d="M24.998,30c0,1.1045-0.8955,2-2,2c-1.1044,0-2-0.8955-2-2s0.8956-2,2-2
		C24.1025,28,24.998,28.8955,24.998,30" stroke="none"></path>
    <path fill="none" stroke="#000000" stroke-width="2" stroke-linejoin="round" d="M16.0615,31c0,9,4.9365,14,11,14
		c5.9365,0,11.0635-5,11.0635-14c0-3-1-5-1-5c-3-2.9995-7-8.0005-7-8.0005c-4,3-7,6-13,7.0005C17.125,25,16.0615,25.9995,16.0615,31
		z"></path>
    <path fill="none" stroke="#000000" stroke-width="2" stroke-linecap="round" stroke-linejoin="round" d="M24.125,38
		c1.9385,0.9385,4,1,6,0"></path>
    <path fill="none" stroke="#000000" stroke-width="2" stroke-linecap="round" stroke-linejoin="round" stroke-miterlimit="10" d="
		M53.875,31.75c0,0.3428,0.0352,0.6768,0.1006,1L38.125,33c0,0,0.75,3.75,3.75,3.75h17c2.7617,0,5-2.2383,5-5
		c0-2.7622-2.2383-5.0005-5-5.0005C56.1133,26.7495,53.875,28.9878,53.875,31.75z"></path>
    <path fill="none" stroke="#000000" stroke-width="2" stroke-linecap="round" stroke-linejoin="round" stroke-miterlimit="10" d="
		M58.0186,39.9502c1.3173,1.9453,1.1142,4.6123-0.6084,6.335c-1.9532,1.9531-5.1182,1.9531-7.0713,0
		c-1.7823-1.7832-1.9375-4.5772-0.4649-6.5362"></path>
    <path fill="none" stroke="#000000" stroke-width="2" stroke-linecap="round" stroke-linejoin="round" stroke-miterlimit="10" d="
		M44.6035,26.7402c0.2598,0.1075,0.5117,0.253,0.749,0.4434c0.0909,0.0727,0.1797,0.1518,0.2657,0.2378l2.5732,2.5747"></path>
    <ellipse transform="matrix(0.7072 -0.707 0.707 0.7072 -14.4505 50.6065)" cx="53.8759" cy="42.7505" rx="1.9995" ry="1.9995" fill="#000000" stroke="none"></ellipse>
  </g>
</svg>