<svg id="emoji" version="1.1" viewBox="0 0 72 72" xmlns="http://www.w3.org/2000/svg">
  <g id="grid">
    <path fill="#b3b3b3" d="M68,4V68H4V4H68m4-4H0V72H72V0Z"/>
    <path fill="none" stroke="#00a5ff" stroke-miterlimit="10" stroke-width="0.1" d="m12.92 10.96h46.15a1.923 1.923 0 0 1 1.923 1.923v46.15a1.923 1.923 0 0 1-1.923 1.923h-46.15a1.923 1.923 0 0 1-1.923-1.923v-46.15a1.923 1.923 0 0 1 1.923-1.923z"/>
    <rect x="16" y="4" rx="2.254" width="40" height="64" fill="none" stroke="#00a5ff" stroke-miterlimit="10" stroke-width="0.1"/>
    <rect x="16" y="4" rx="2.254" width="40" height="64" transform="translate(72) rotate(90)" fill="none" stroke="#00a5ff" stroke-miterlimit="10" stroke-width="0.1"/>
    <circle cx="36" cy="36" r="29" fill="none" stroke="#00a5ff" stroke-miterlimit="10" stroke-width="0.1"/>
  </g>
  <g id="color">
    <rect x="6" y="18" width="60" height="36" fill="#9b9b9a"  stroke-width="0"/>
    <rect x="6" y="18" width="60" height="30.86" fill="#d0cfce"  stroke-width="0"/>
    <rect x="6" y="18" width="60" height="25.71" fill="#92d3f5"  stroke-width="0"/>
    <rect x="6" y="18" width="60" height="20.57" fill="#fff"  stroke-width="0"/>
    <rect x="6" y="18" width="60" height="15.43" fill="#92d3f5"  stroke-width="0"/>
    <rect x="6" y="18" width="60" height="10.29" fill="#d0cfce"  stroke-width="0"/>
    <rect x="6" y="18" width="60" height="5.141" fill="#9b9b9a"  stroke-width="0"/>
  </g>
  <g id="line">
    <rect x="5" y="17" width="62" height="38" fill="none" stroke="#000" stroke-linecap="round" stroke-linejoin="round" stroke-width="2"/>
  </g>
</svg>