<svg id="emoji" xmlns="http://www.w3.org/2000/svg" viewBox="0 0 72 72">
  <g id="grid">
    <path d="M68,4V68H4V4H68m4-4H0V72H72V0Z" fill="#b3b3b3"/>
    <path d="M12.923,10.9583H59.0769A1.9231,1.9231,0,0,1,61,12.8814V59.0352a1.9231,1.9231,0,0,1-1.9231,1.9231H12.9231A1.9231,1.9231,0,0,1,11,59.0352V12.8813A1.923,1.923,0,0,1,12.923,10.9583Z" fill="none" stroke="#00a5ff" stroke-miterlimit="10" stroke-width="0.1"/>
    <rect x="16" y="4" width="40" height="64" rx="2.2537" fill="none" stroke="#00a5ff" stroke-miterlimit="10" stroke-width="0.1"/>
    <rect x="16" y="4" width="40" height="64" rx="2.2537" transform="translate(72) rotate(90)" fill="none" stroke="#00a5ff" stroke-miterlimit="10" stroke-width="0.1"/>
    <circle cx="36" cy="36" r="29" fill="none" stroke="#00a5ff" stroke-miterlimit="10" stroke-width="0.1"/>
  </g>
  <g id="color">
    <polyline fill="#3F3F3F" stroke="#3F3F3F" stroke-width="2" stroke-miterlimit="10" points="56,27.9166 56,45.896 16,45.896 16,27.9166"/>
    <line fill="#F1B31C" stroke="#F1B31C" stroke-width="2" stroke-miterlimit="10" x1="8.7932" y1="28.5" x2="8.7932" y2="36.9063"/>
    <circle fill="#F1B31C" cx="8.7932" cy="36.9063" r="2" stroke="none"/>
    <polygon fill="#F1B31C" stroke="#F1B31C" stroke-width="1.747" stroke-linecap="round" stroke-linejoin="round" stroke-miterlimit="10" points="10.7932,45.896 7,45.896 8.8966,37.7763 8.8966,37.7763"/>
    <rect x="4" y="22.875" fill="#3F3F3F" stroke="none" stroke-width="2" stroke-linecap="round" stroke-linejoin="round" stroke-miterlimit="10" width="64" height="5.0417"/>
    <polyline fill="#3F3F3F" stroke="none" stroke-width="1.747" stroke-linecap="round" stroke-linejoin="round" stroke-miterlimit="10" points="56,30.9166 56,45.896 16,45.896 16,30.9166"/>
  </g>
  <g id="hair"/>
  <g id="skin"/>
  <g id="skin-shadow"/>
  <g id="line">
    <circle cx="36" cy="22.0023" r="3" fill="#000000" stroke="none"/>
    <rect x="4" y="22.875" fill="none" stroke="#000000" stroke-width="2" stroke-linecap="round" stroke-linejoin="round" stroke-miterlimit="10" width="64" height="5.0417"/>
    <polyline fill="none" stroke="#000000" stroke-width="1.747" stroke-linecap="round" stroke-linejoin="round" stroke-miterlimit="10" points="56,30.9166 56,45.896 16,45.896 16,30.9166"/>
  </g>
</svg>
