<svg id="emoji" xmlns="http://www.w3.org/2000/svg" viewBox="0 0 72 72">
  <g id="grid">
    <path d="M68,4V68H4V4H68m4-4H0V72H72V0Z" fill="#b3b3b3"></path>
    <path d="M12.923,10.9583H59.0769A1.9231,1.9231,0,0,1,61,12.8814V59.0352a1.9231,1.9231,0,0,1-1.9231,1.9231H12.9231A1.9231,1.9231,0,0,1,11,59.0352V12.8813A1.923,1.923,0,0,1,12.923,10.9583Z" fill="none" stroke="#00a5ff" stroke-miterlimit="10" stroke-width="0.1"></path>
    <rect x="16" y="4" width="40" height="64" rx="2.2537" fill="none" stroke="#00a5ff" stroke-miterlimit="10" stroke-width="0.1"></rect>
    <rect x="16" y="4" width="40" height="64" rx="2.2537" transform="translate(72) rotate(90)" fill="none" stroke="#00a5ff" stroke-miterlimit="10" stroke-width="0.1"></rect>
    <circle cx="36" cy="36" r="29" fill="none" stroke="#00a5ff" stroke-miterlimit="10" stroke-width="0.1"></circle>
  </g>
  <g id="color">
    <path fill="#D22F27" d="M25.5011,34.5613c2.9156,2.3721,5.4581,5.3848,6.7637,9.1491c4.3333,12.4937,1.0296,12.7289,4.3333,17.3456
		c3.9794,5.5609,40.7244,5.1768,23.375-7.0795c0,0-12.2541,2.9795-16.9395-1.3551c0,0-5.428-17.9558-26.1409-38.379
		c0,0-4.5005,2.3277-6.2424,8.0451c0,0,0.5599,2.0029,0.5599,4.5792S25.5011,34.5613,25.5011,34.5613z" stroke="none"></path>
    <path fill="#D22F27" d="M25.1077,35.453c2.9156,2.3721,5.8515,4.4931,7.1571,8.2574c4.3333,12.4937,1.0296,12.7289,4.3333,17.3456
		c3.9794,5.5609,40.7244,5.1768,23.375-7.0795c0,0-12.2541,2.9795-16.9395-1.3551c0,0-5.428-17.9558-26.1409-38.379
		c0,0-5.5038,2.1333-7.2458,7.8506c0,0-0.6444,2.1297-0.1093,3.3639S25.1077,35.453,25.1077,35.453z" stroke="none"></path>
    <path fill="#3F3F3F" stroke="none" stroke-width="2" stroke-linecap="round" stroke-linejoin="round" stroke-miterlimit="10" d="
		M19.962,33.0858l-2,27.8725h-3.8393V32.0858l-2.9125-5.982c0,0,6.6505,3.8112,10.5259,6.9115L19.962,33.0858z"></path>
  </g>
  <g id="hair">
  </g>
  <g id="skin">
  </g>
  <g id="skin-shadow">
  </g>
  <g id="line">
    <path fill="none" stroke="#000000" stroke-width="2" stroke-linecap="round" stroke-linejoin="round" stroke-miterlimit="10" d="
		M19.962,33.0858l-2,27.8725h-3.8393V32.0858l-2.9125-5.982c0,0,6.6505,3.8112,10.5259,6.9115L19.962,33.0858z"></path>
    <path fill="none" stroke="#000000" stroke-width="2" stroke-linecap="round" stroke-linejoin="round" stroke-miterlimit="10" d="
		M25.5011,34.5613c2.9156,2.3721,5.4581,5.3848,6.7637,9.1491c4.3333,12.4937,1.0296,12.7289,4.3333,17.3456
		c3.9794,5.5609,40.7244,5.1768,23.375-7.0795c0,0-12.2541,2.9795-16.9395-1.3551c0,0-5.428-17.9558-26.1409-38.379
		c0,0-4.5005,2.3277-6.2424,8.0451"></path>
    <path fill="none" stroke="#000000" stroke-width="2" stroke-linecap="round" stroke-linejoin="round" stroke-miterlimit="10" d="
		M25.5011,34.5613c2.9156,2.3721,5.4581,5.3848,6.7637,9.1491c4.3333,12.4937,1.0296,12.7289,4.3333,17.3456
		c3.9794,5.5609,40.7244,5.1768,23.375-7.0795c0,0-12.2541,2.9795-16.9395-1.3551c0,0-5.428-17.9558-26.1409-38.379
		c0,0-4.5005,2.3277-6.2424,8.0451"></path>
  </g>
</svg>