<svg id="emoji" xmlns="http://www.w3.org/2000/svg" viewBox="0 0 72 72">
  <g id="grid">
    <path d="M68,4V68H4V4H68m4-4H0V72H72V0Z" fill="#b3b3b3"></path>
    <path d="M12.923,10.9583H59.0769A1.9231,1.9231,0,0,1,61,12.8814V59.0352a1.9231,1.9231,0,0,1-1.9231,1.9231H12.9231A1.9231,1.9231,0,0,1,11,59.0352V12.8813A1.923,1.923,0,0,1,12.923,10.9583Z" fill="none" stroke="#00a5ff" stroke-miterlimit="10" stroke-width="0.1"></path>
    <rect x="16" y="4" width="40" height="64" rx="2.2537" fill="none" stroke="#00a5ff" stroke-miterlimit="10" stroke-width="0.1"></rect>
    <rect x="16" y="4" width="40" height="64" rx="2.2537" transform="translate(72) rotate(90)" fill="none" stroke="#00a5ff" stroke-miterlimit="10" stroke-width="0.1"></rect>
    <circle cx="36" cy="36" r="29" fill="none" stroke="#00a5ff" stroke-miterlimit="10" stroke-width="0.1"></circle>
  </g>
  <g id="color">
    <line fill="#EA5A47" x1="25.7466" y1="21.0015" x2="36.0014" y2="21.0015" stroke="none"></line>
    <polyline fill="#FCEA2B" points="36.0015,60.9598 61.0015,60.9598 56.0015,20.0932 53.4318,20.0932 18.5712,20.0932 
			16.0015,20.0932 11.0015,60.9598 36.0015,60.9598 		" stroke="none"></polyline>
    <line fill="#EA5A47" x1="46.2563" y1="21.0015" x2="36.0016" y2="21.0015" stroke="none"></line>
  </g>
  <g id="hair">
  </g>
  <g id="skin">
  </g>
  <g id="skin-shadow">
  </g>
  <g id="line">
    <polyline fill="none" stroke="#000000" stroke-width="2" stroke-linecap="round" stroke-linejoin="round" stroke-miterlimit="10" points="
			36.0015,60.9598 11.0015,60.9598 16.0015,21.0015 18.5712,21.0015 		"></polyline>
    <line fill="none" stroke="#000000" stroke-width="2" stroke-linecap="round" stroke-linejoin="round" stroke-miterlimit="10" x1="25.7466" y1="21.0015" x2="36.0014" y2="21.0015"></line>
    <polyline fill="none" stroke="#000000" stroke-width="2" stroke-linecap="round" stroke-linejoin="round" stroke-miterlimit="10" points="
			36.0015,60.9598 61.0015,60.9598 56.0015,21.0015 53.4318,21.0015 		"></polyline>
    <line fill="none" stroke="#000000" stroke-width="2" stroke-linecap="round" stroke-linejoin="round" stroke-miterlimit="10" x1="46.2563" y1="21.0015" x2="36.0016" y2="21.0015"></line>
    <path fill="none" stroke="#000000" stroke-width="2" stroke-linecap="round" stroke-linejoin="round" stroke-miterlimit="10" d="
		M22.049,27.662v-6.6199c0-7.7544,6.2862-14.0406,14.0406-14.0406s14.0406,6.2862,14.0406,14.0406v6.6199"></path>
    <path fill="none" stroke="#000000" stroke-width="2" stroke-linecap="round" stroke-linejoin="round" stroke-miterlimit="10" d="
		M22.049,21.0421"></path>
  </g>
</svg>