<svg id="emoji" xmlns="http://www.w3.org/2000/svg" viewBox="0 0 72 72">
  <g id="grid">
    <path d="M68,4V68H4V4H68m4-4H0V72H72V0Z" fill="#b3b3b3"/>
    <path d="M12.9231,10.9583H59.077A1.923,1.923,0,0,1,61,12.8813V59.0352a1.9231,1.9231,0,0,1-1.9231,1.9231H12.9231A1.9231,1.9231,0,0,1,11,59.0352V12.8814a1.9231,1.9231,0,0,1,1.9231-1.9231Z" fill="none" stroke="#00a5ff" stroke-miterlimit="10" stroke-width="0.1"/>
    <rect x="16" y="4" width="40" height="64" rx="2.2537" fill="none" stroke="#00a5ff" stroke-miterlimit="10" stroke-width="0.1"/>
    <rect x="16" y="4" width="40" height="64" rx="2.2537" transform="translate(72) rotate(90)" fill="none" stroke="#00a5ff" stroke-miterlimit="10" stroke-width="0.1"/>
    <circle cx="36" cy="36" r="29" fill="none" stroke="#00a5ff" stroke-miterlimit="10" stroke-width="0.1"/>
  </g>
  <g id="color">
    <path d="M35.5723,66.6641a1.003,1.003,0,0,1-.5-.1338L9.3829,51.6982a1,1,0,0,1-.5-.8662l-.001-29.664a1,1,0,0,1,.5-.8662L35.0723,5.47a1.0045,1.0045,0,0,1,1,0L61.7628,20.3018a1,1,0,0,1,.0019,1.7314L36.629,36.61,36.5723,65.666a1.0008,1.0008,0,0,1-1,.9981Z" fill="#f4aa41"/>
    <polygon points="35.572 65 61.262 50.832 61.438 21.317 35.202 36.033 35.572 65" fill="#f4aa41"/>
    <path d="M44.4415,37.9783a2.471,2.471,0,0,1-1.249-2.163V31.6434l-25.07-14.5293a1,1,0,0,1-.001-1.7305l8.2608-4.792a1.0032,1.0032,0,0,1,1.0019-.001L53.0216,25.3924a1,1,0,0,1,.5.8662V32.283a3.2891,3.2891,0,0,1-1.64,2.8409l-4.9444,2.8544a2.4738,2.4738,0,0,1-2.4961,0Z" fill="#d0cfce"/>
    <path d="M45.3377,60.3412a1,1,0,0,1-.5-.8662V56.139a2.9781,2.9781,0,0,1,1.4853-2.5722L52.3963,50.06a1.8472,1.8472,0,0,1,2.7705,1.6v3.0069a1,1,0,0,1-.5.8662l-8.3291,4.8086a1.0011,1.0011,0,0,1-1,0Z" fill="#d0cfce"/>
    <path d="M44.4274,45.9464v.8683a1.4967,1.4967,0,0,0,2.2451,1.2962l6.8048-3.76a2.28,2.28,0,0,0,1.14-1.9745V41.258a1.4442,1.4442,0,0,0-2.1663-1.2507l-6.7455,3.7252A2.5565,2.5565,0,0,0,44.4274,45.9464Z" fill="#3f3f3f"/>
    <polygon points="31.083 38.917 22.785 34.264 22.785 41.706 31.083 46.359 31.083 38.917" fill="#fff"/>
  </g>
  <g id="line">
    <polygon points="61.262 21.168 35.572 6.336 9.882 21.168 9.882 50.832 35.572 65.664 61.262 50.832 61.262 21.168" fill="none" stroke="#000" stroke-linecap="round" stroke-linejoin="round" stroke-width="2"/>
    <line x1="35.5724" y1="36.0333" x2="35.5724" y2="65.6642" fill="none" stroke="#000" stroke-linecap="round" stroke-linejoin="round" stroke-width="2"/>
    <line x1="35.6301" y1="36.0333" x2="9.9401" y2="21.2012" fill="none" stroke="#000" stroke-linecap="round" stroke-linejoin="round" stroke-width="2"/>
    <line x1="52.5169" y1="26.2504" x2="61.2624" y2="21.2012" fill="none" stroke="#000" stroke-linecap="round" stroke-linejoin="round" stroke-width="2"/>
    <line x1="35.5724" y1="36.0333" x2="44.1879" y2="31.0591" fill="none" stroke="#000" stroke-linecap="round" stroke-linejoin="round" stroke-width="2"/>
    <path d="M26.884,11.4565,52.5215,26.2583v6.0248a2.28,2.28,0,0,1-1.14,1.9745l-4.9439,2.8543a1.4967,1.4967,0,0,1-2.2451-1.2962V31.0671L18.6236,16.2488" fill="none" stroke="#000" stroke-linecap="round" stroke-linejoin="round" stroke-width="2"/>
    <polygon points="31.083 38.917 22.785 34.264 22.785 41.706 31.083 46.359 31.083 38.917" fill="none" stroke="#000" stroke-linecap="round" stroke-linejoin="round" stroke-width="2"/>
    <path d="M54.1667,54.6663V51.66a.8472.8472,0,0,0-1.2708-.7337l-6.073,3.5062a1.97,1.97,0,0,0-.9853,1.7065v3.3361" fill="none" stroke="#000" stroke-linecap="round" stroke-linejoin="round" stroke-width="2"/>
    <path d="M44.4274,45.9464v.8683a1.4967,1.4967,0,0,0,2.2451,1.2962l6.8048-3.76a2.28,2.28,0,0,0,1.14-1.9745V41.258a1.4442,1.4442,0,0,0-2.1663-1.2507l-6.7455,3.7252A2.5565,2.5565,0,0,0,44.4274,45.9464Z" fill="none" stroke="#000" stroke-linecap="round" stroke-linejoin="round" stroke-width="2"/>
  </g>
</svg>
