<svg version="1.1" id="emoji" xmlns="http://www.w3.org/2000/svg" x="0" y="0" viewBox="0 0 72 72" enable-background="new 0 0 72 72" xml:space="preserve">
  <g id="grid">
    <path fill="#B3B3B3" d="M68,4v64H4V4H68 M72,0H0v72h72V0z"/>
    <path fill="none" stroke="#00A5FF" stroke-width="0.1" stroke-miterlimit="10" d="M12.923,10.9583h46.1539 c1.0621,0,1.9231,0.861,1.9231,1.9231v0v46.1538c0,1.0621-0.861,1.9231-1.9231,1.9231H12.9231 c-1.0621,0-1.9231-0.861-1.9231-1.9231l0,0V12.8813C11,11.8193,11.861,10.9583,12.923,10.9583L12.923,10.9583z"/>
    <path fill="none" stroke="#00A5FF" stroke-width="0.1" stroke-miterlimit="10" d="M18.2537,4h35.4926C54.991,4,56,5.009,56,6.2537 v59.4926C56,66.991,54.991,68,53.7463,68H18.2537C17.009,68,16,66.991,16,65.7463V6.2537C16,5.009,17.009,4,18.2537,4z"/>
    <path fill="none" stroke="#00A5FF" stroke-width="0.1" stroke-miterlimit="10" d="M68,18.2537v35.4926 C68,54.991,66.991,56,65.7463,56H6.2537C5.009,56,4,54.991,4,53.7463V18.2537C4,17.009,5.009,16,6.2537,16h59.4926 C66.991,16,68,17.009,68,18.2537z"/>
    <circle fill="none" stroke="#00A5FF" stroke-width="0.1" stroke-miterlimit="10" cx="36" cy="36" r="29"/>
  </g>
  <g id="color">
    <path fill="#FFFFFF" d="M27.815,13.7636c-0.6841,0-1.3577,0.0737-2.0103,0.221h-0.0105c-0.642-0.1474-1.3051-0.221-1.9891-0.221 H27.815z"/>
    <path fill="#FFFFFF" stroke="#FFFFFF" stroke-width="1.8" stroke-miterlimit="10" d="M32.4985,57.778V35.8865h6.7358V57.778 c0,1.8523-1.5156,3.3679-3.3679,3.3679c-0.9262,0-1.7682-0.3789-2.3786-0.9893C32.8774,59.5461,32.4985,58.7042,32.4985,57.778z"/>
    <path fill="#61B2E4" stroke="#61B2E4" stroke-width="1.8" stroke-linejoin="round" stroke-miterlimit="10" d="M58.6049,25.9766 v10.1458c0,2.0313-1.3472,3.7152-3.0733,3.9468c-0.1368,0.0211-0.2736,0.0315-0.4209,0.0315l-29.5639-0.0315 c1.1367,0,2.0523-1.0419,2.0523-2.3154V25.9766c0-5.957-4.2099-12.2086-3.5257-12.2086h23.8174 c0.6841,0,1.3471,0.0737,1.9891,0.221h0.0105C54.8476,15.052,58.6049,20.0197,58.6049,25.9766z"/>
    <path fill="#92D3F5" d="M34.5192,25.9722v11.7771c0,1.2735-0.9156,2.3154-2.0523,2.3154H15.1748 c-1.1367,0-2.0418-1.0419-2.0418-2.3154V25.0356c0.242-3.7679,1.9892-7.0621,4.5782-9.1039 c1.7155-1.3577,3.831-2.1681,6.0938-2.1681c0.6841,0,1.3471,0.0737,1.9891,0.221h0.0105 C30.7619,15.0476,34.5192,20.0153,34.5192,25.9722z"/>
    <path fill="#EA5A47" d="M41.0868,31.3539h0.9347c0.6427,0,1.1684-0.4404,1.1684-0.9786v-9.9812h2.1031 c0.6426,0,1.1684-0.4404,1.1684-0.9786v-7.437c0-0.5383-0.5258-0.9786-1.1684-0.9786h-4.2061 c-0.6426,0-1.1684,0.4403-1.1684,0.9786v18.3968C39.9184,30.9135,40.4442,31.3539,41.0868,31.3539z"/>
    <path fill="#FFFFFF" d="M39.23,44.875V57.78c0,1.85-1.51,3.37-3.36,3.37c-0.93,0-1.77-0.38-2.38-0.99s-0.99-1.46-0.99-2.38V44.8438"/>
  </g>
  <g id="hair"/>
  <g id="skin"/>
  <g id="skin-shadow"/>
  <g id="line">
    <path fill="none" stroke="#000000" stroke-width="2" stroke-miterlimit="10" d="M27.815,13.7636 c-0.6841,0-1.3577,0.0737-2.0103,0.221h-0.0105c-0.642-0.1474-1.3051-0.221-1.9891-0.221H27.815z"/>
    <path fill="none" stroke="#000000" stroke-width="2" stroke-linecap="round" stroke-linejoin="round" stroke-miterlimit="10" d="M35.87,13.7698H24.31c-0.08,0-0.16,0-0.24,0"/>
    <path fill="none" stroke="#000000" stroke-width="2" stroke-linecap="round" stroke-linejoin="round" stroke-miterlimit="10" d="M51.35,14.4298c4.22,1.63,7.25,6.19,7.25,11.55v10.14c0,2.03-1.34,3.72-3.07,3.95c-0.14,0.02-0.27,0.03-0.42,0.03l-29.56-0.03 c0.07,0,0.14,0,0.21-0.01"/>
    <path fill="none" stroke="#000000" stroke-width="2" stroke-miterlimit="10" d="M34.5192,25.9722v11.7771 c0,1.2735-0.9156,2.3154-2.0523,2.3154H15.1748c-1.1367,0-2.0418-1.0419-2.0418-2.3154V25.0356 c0.242-3.7679,1.9892-7.0621,4.5782-9.1039c1.7155-1.3577,3.831-2.1681,6.0938-2.1681c0.6841,0,1.3471,0.0737,1.9891,0.221h0.0105 C30.7619,15.0476,34.5192,20.0153,34.5192,25.9722z"/>
    <path fill="none" stroke="#000000" stroke-width="2" stroke-linecap="round" stroke-miterlimit="10" d="M21.5528,17.4051v3.1153 c0,0.5789,0.4736,1.0525,1.0525,1.0525h2.1049c0.5789,0,1.0525-0.4736,1.0525-1.0525V17.363v-0.021"/>
    <path fill="none" stroke="#000000" stroke-width="2" stroke-linejoin="round" stroke-miterlimit="10" d="M41.0868,31.3539h0.9347 c0.6427,0,1.1684-0.4404,1.1684-0.9786v-9.9812h2.1031c0.6426,0,1.1684-0.4404,1.1684-0.9786v-7.437 c0-0.5383-0.5258-0.9786-1.1684-0.9786h-4.2061c-0.6426,0-1.1684,0.4403-1.1684,0.9786v18.3968 C39.9184,30.9135,40.4442,31.3539,41.0868,31.3539z"/>
    <path fill="none" stroke="#000000" stroke-width="2" stroke-linecap="round" stroke-miterlimit="10" d="M39.23,44.875V57.78 c0,1.85-1.51,3.37-3.36,3.37c-0.93,0-1.77-0.38-2.38-0.99s-0.99-1.46-0.99-2.38V44.8438"/>
  </g>
</svg>
