<svg id="emoji" viewBox="0 0 72 72" version="1.1" xmlns="http://www.w3.org/2000/svg">
  <g id="grid">
    <path fill="#b3b3b3" d="M68,4V68H4V4H68m4-4H0V72H72V0Z"/>
    <path fill="none" stroke="#00a5ff" stroke-miterlimit="10" stroke-width="0.1" d="m12.92 10.96h46.15a1.923 1.923 0 0 1 1.923 1.923v46.15a1.923 1.923 0 0 1-1.923 1.923h-46.15a1.923 1.923 0 0 1-1.923-1.923v-46.15a1.923 1.923 0 0 1 1.923-1.923z"/>
    <rect x="16" y="4" rx="2.254" width="40" height="64" fill="none" stroke="#00a5ff" stroke-miterlimit="10" stroke-width="0.1"/>
    <rect x="16" y="4" rx="2.254" width="40" height="64" transform="translate(72) rotate(90)" fill="none" stroke="#00a5ff" stroke-miterlimit="10" stroke-width="0.1"/>
    <circle cx="36" cy="36" r="29" fill="none" stroke="#00a5ff" stroke-miterlimit="10" stroke-width="0.1"/>
  </g>
  <g id="color">
    <rect x="25" y="12" rx="1" width="21" height="5" fill="#1e50a0"/>
    <rect x="23" y="16" rx="1" width="26" height="48" fill="#1e50a0"/>
    <path fill="#fff" fill-rule="evenodd" d="m38 9.6c0-0.8837-0.8954-1.6-2-1.6s-2 0.7163-2 1.6v2.4h4z" clip-rule="evenodd"/>
    <rect x="37" y="53" rx="1.125" ry="1.143" width="9" height="8" fill="#3f3f3f" fill-opacity=".502"/>
    <rect x="26" y="53" rx="1.125" ry="1.143" width="9" height="8" fill="#3f3f3f" fill-opacity=".502"/>
    <rect x="37" y="43" rx="1.125" ry="1.143" width="9" height="8" fill="#3f3f3f" fill-opacity=".502"/>
    <rect x="26" y="43" rx="1.125" ry="1.143" width="9" height="8" fill="#3f3f3f" fill-opacity=".502"/>
    <rect x="37" y="33" rx="1.125" ry="1.143" width="9" height="8" fill="#3f3f3f" fill-opacity=".502"/>
    <rect x="26" y="33" rx="1.125" ry="1.143" width="9" height="8" fill="#3f3f3f" fill-opacity=".502"/>
    <rect x="37" y="23" rx="1.125" ry="1.143" width="9" height="8" fill="#fff"/>
    <rect x="26" y="23" rx="1.125" ry="1.143" width="9" height="8" fill="#fff"/>
  </g>
  <g id="line">
    <rect x="26" y="18.5" rx="1" ry="1" width="20" height="3"/>
    <path fill="none" stroke="#000" stroke-linecap="round" stroke-linejoin="round" stroke-width="2" d="m38 54.01v5.986h6.986"/>
    <path fill="none" stroke="#000" stroke-linecap="round" stroke-linejoin="round" stroke-width="2" d="m27 54.01v5.986h6.986"/>
    <path fill="none" stroke="#000" stroke-linecap="round" stroke-linejoin="round" stroke-width="2" d="m38 44v6h7"/>
    <path fill="none" stroke="#000" stroke-linecap="round" stroke-linejoin="round" stroke-width="2" d="m27 44.01v5.986h6.986"/>
    <path fill="none" stroke="#000" stroke-linecap="round" stroke-linejoin="round" stroke-width="2" d="m38 34.01v5.986h6.986"/>
    <path fill="none" stroke="#000" stroke-linecap="round" stroke-linejoin="round" stroke-width="2" d="m27 34.01v5.986h6.986"/>
    <path fill="none" stroke="#000" stroke-linecap="round" stroke-linejoin="round" stroke-width="2" d="m38 24.01v5.986h6.986"/>
    <path fill="none" stroke="#000" stroke-linecap="round" stroke-linejoin="round" stroke-width="2" d="m27 24.01v5.986h6.986"/>
    <rect x="23" y="16" rx="1" width="26" height="48" fill="none" stroke="#000" stroke-width="2"/>
    <path fill="none" stroke="#000" stroke-width="2" d="m34 12v-2.4c0-0.8837 0.8954-1.6 2-1.6s2 0.7163 2 1.6v2.4"/>
    <path fill="none" stroke="#000" stroke-width="2" d="m25 16v-3c0-0.5523 0.4477-1 1-1h19c0.5523 0 1 0.4477 1 1v3"/>
  </g>
</svg>
