<?xml version="1.0" encoding="UTF-8"?>
<svg id="emoji" xmlns="http://www.w3.org/2000/svg" viewBox="0 0 72 72">
  <g id="grid">
    <path d="m68,4v64H4V4h64Zm4-4H0v72h72V0Z" fill="#b3b3b3"/>
    <path d="m12.923,10.9583h46.1539c.51,0,.9992.2026,1.3598.5633.3607.3606.5633.8498.5633,1.3598v46.1538c0,.51-.2026.9992-.5633,1.3599-.3606.3606-.8498.5632-1.3598.5632H12.9231c-.51,0-.9992-.2026-1.3598-.5632-.3607-.3607-.5633-.8499-.5633-1.3599V12.8813c0-.51.2026-.9991.5632-1.3598.3607-.3606.8498-.5632,1.3598-.5632h0Z" fill="none" stroke="#00a5ff" stroke-miterlimit="10" stroke-width=".1"/>
    <path d="m53.7463,4H18.2537c-1.2447,0-2.2537,1.009-2.2537,2.2537v59.4926c0,1.2447,1.009,2.2537,2.2537,2.2537h35.4926c1.2447,0,2.2537-1.009,2.2537-2.2537V6.2537c0-1.2447-1.009-2.2537-2.2537-2.2537Z" fill="none" stroke="#00a5ff" stroke-miterlimit="10" stroke-width=".1"/>
    <path d="m68,53.7463V18.2537c0-1.2447-1.009-2.2537-2.2537-2.2537H6.2537c-1.2447,0-2.2537,1.009-2.2537,2.2537v35.4926c0,1.2447,1.009,2.2537,2.2537,2.2537h59.4926c1.2447,0,2.2537-1.009,2.2537-2.2537Z" fill="none" stroke="#00a5ff" stroke-miterlimit="10" stroke-width=".1"/>
    <path d="m36,65c16.0163,0,29-12.9837,29-29S52.0163,7,36,7,7,19.9837,7,36s12.9837,29,29,29Z" fill="none" stroke="#00a5ff" stroke-miterlimit="10" stroke-width=".1"/>
  </g>
  <g id="color">
    <path d="m38.8772,53.9048v-13h15.3302v9l-15.3302,4Z" fill="#fff"/>
    <path d="m40.1565,19.9078h12.8551c.6623,0,1.1992.5324,1.1992,1.1891v20.8487h-15.4498v-20.6542c0-.7642.6248-1.3837,1.3954-1.3837Z" fill="#a57939"/>
    <path d="m38.9818,54.1131l-.0739,3.3387c0,1.1046.2372,1.613,1.3418,1.613h11.866c1.1046,0,1.9452-.007,1.9452-1.1116l-.0278-3.4181.0278-4.0572-15.0792,3.6352Z" fill="#6a462f" fill-rule="evenodd"/>
    <path d="m22,13.5283c0,3.0274-2.2386,8.4717-5,8.4717s-5-5.4443-5-8.4717,2.2386-2.4917,5-2.4917,5-.5358,5,2.4917Z" fill="#a57939"/>
    <rect x="44" y="14" width="5" height="5" fill="#d0cfce"/>
  </g>
  <g id="line">
    <path d="m41,53.7941l11-2.5882" fill="none" stroke="#000" stroke-linecap="round" stroke-linejoin="round" stroke-width="2"/>
    <path d="m38,21c0-1.1046.8954-2,2-2h13c1.1046,0,2,.8954,2,2v37c0,1.1046-.8954,2-2,2h-13c-1.1046,0-2-.8954-2-2V21Z" fill="none" stroke="#000" stroke-width="2"/>
    <rect x="44" y="14" width="5" height="5" fill="none" stroke="#000" stroke-linejoin="round" stroke-width="2"/>
    <path d="m44,16h-6l-15,9h-6v-3" fill="none" stroke="#000" stroke-linejoin="round" stroke-width="2"/>
    <path d="m22,13.5283c0,3.0274-2.2386,8.4717-5,8.4717s-5-5.4443-5-8.4717,2.2386-2.4917,5-2.4917,5-.5358,5,2.4917Z" fill="none" stroke="#000" stroke-width="2"/>
    <line x1="39" y1="41" x2="52" y2="41" fill="none" stroke="#000" stroke-linecap="round" stroke-width="2"/>
  </g>
</svg>