<svg id="emoji" viewBox="0 0 72 72" version="1.1" xmlns="http://www.w3.org/2000/svg">
  <g id="grid">
    <path fill="#B3B3B3" d="M68,4v64H4V4H68 M72,0H0v72h72V0z"/>
    <path fill="none" stroke="#00A5FF" stroke-miterlimit="10" stroke-width="0.1" d="m12.92 10.96h46.15c1.062 0 1.923 0.861 1.923 1.923v46.15c0 1.062-0.861 1.923-1.923 1.923h-46.15c-1.062 0-1.923-0.861-1.923-1.923v-46.15c0-1.062 0.861-1.923 1.923-1.923z"/>
    <path fill="none" stroke="#00A5FF" stroke-miterlimit="10" stroke-width="0.1" d="M18.2537,4h35.4926C54.991,4,56,5.009,56,6.2537 v59.4926C56,66.991,54.991,68,53.7463,68H18.2537C17.009,68,16,66.991,16,65.7463V6.2537C16,5.009,17.009,4,18.2537,4z"/>
    <path fill="none" stroke="#00A5FF" stroke-miterlimit="10" stroke-width="0.1" d="M68,18.2537v35.4926 C68,54.991,66.991,56,65.7463,56H6.2537C5.009,56,4,54.991,4,53.7463V18.2537C4,17.009,5.009,16,6.2537,16h59.4926 C66.991,16,68,17.009,68,18.2537z"/>
    <circle cx="36" cy="36" r="29" fill="none" stroke="#00A5FF" stroke-miterlimit="10" stroke-width="0.1"/>
  </g>
  <g id="color">
    <path fill="#fff" d="m15.23 56.02h-1.636c-0.6292 0-1.139-0.656-1.139-1.465v-39.53c0-0.8092 0.51-1.465 1.139-1.465h1.636c0.6292 0 1.139 0.656 1.139 1.465v39.53c0 0.8092-0.5101 1.465-1.139 1.465z"/>
    <path fill="#fff" d="m58.77 56.02h-1.636c-0.6292 0-1.139-0.656-1.139-1.465v-39.53c0-0.8092 0.51-1.465 1.139-1.465h1.636c0.6292 0 1.139 0.656 1.139 1.465v39.53c0 0.8092-0.5101 1.465-1.139 1.465z"/>
    <rect x="7.621" y="27.67" width="56.76" height="7.124" fill="#fff"/>
    <rect x="7.621" y="27.67" width="11.35" height="7.124" fill="#ea5a47"/>
    <rect x="18.97" y="27.67" width="11.35" height="7.124" fill="#fff"/>
    <rect x="30.28" y="27.67" width="11.35" height="7.124" fill="#ea5a47"/>
    <rect x="41.63" y="27.67" width="11.35" height="7.124" fill="#fff"/>
    <rect x="52.98" y="27.67" width="11.35" height="7.124" fill="#ea5a47"/>
    <rect x="7.621" y="41.67" width="56.76" height="7.124" fill="#fff"/>
    <rect x="7.621" y="41.67" width="11.35" height="7.124" fill="#ea5a47"/>
    <rect x="18.97" y="41.67" width="11.35" height="7.124" fill="#fff"/>
    <rect x="30.28" y="41.67" width="11.35" height="7.124" fill="#ea5a47"/>
    <rect x="41.63" y="41.67" width="11.35" height="7.124" fill="#fff"/>
    <rect x="52.98" y="41.67" width="11.35" height="7.124" fill="#ea5a47"/>
  </g>
  <g id="line" fill="none" stroke="#000" stroke-linecap="round" stroke-linejoin="round" stroke-miterlimit="10" stroke-width="2">
    <path d="m12.06 41.13v-5.941"/>
    <path d="m15.97 48.79v6.091c0 0.6292-0.5101 1.139-1.139 1.139h-1.636c-0.6292 0-1.139-0.5101-1.139-1.139v-5.682"/>
    <path d="m15.97 35.19v5.941"/>
    <path d="m12.06 27.59v-12.78c0-0.6292 0.51-1.139 1.139-1.139h1.636c0.6292 0 1.139 0.5101 1.139 1.139v12.69"/>
    <path d="m56 41.67v-6.477"/>
    <path d="m59.91 49.2v5.682c0 0.6292-0.5101 1.139-1.139 1.139h-1.636c-0.6292 0-1.139-0.5101-1.139-1.139v-5.682"/>
    <path d="m59.91 35.19v5.586"/>
    <path d="m56 27.38v-12.58c0-0.6292 0.51-1.139 1.139-1.139h1.636c0.6292 0 1.139 0.5101 1.139 1.139v12.49"/>
    <rect x="7.621" y="27.67" width="56.76" height="7.124"/>
    <rect x="7.621" y="27.67" width="11.35" height="7.124"/>
    <rect x="18.97" y="27.67" width="11.35" height="7.124"/>
    <rect x="30.28" y="27.67" width="11.35" height="7.124"/>
    <rect x="41.63" y="27.67" width="11.35" height="7.124"/>
    <rect x="52.98" y="27.67" width="11.35" height="7.124"/>
    <rect x="7.621" y="41.67" width="56.76" height="7.124"/>
    <rect x="7.621" y="41.67" width="11.35" height="7.124"/>
    <rect x="18.97" y="41.67" width="11.35" height="7.124"/>
    <rect x="30.28" y="41.67" width="11.35" height="7.124"/>
    <rect x="41.63" y="41.67" width="11.35" height="7.124"/>
    <polyline transform="translate(-.5)" points="60.41 41.67 64.83 41.67 64.83 48.79 53.48 48.79 53.48 41.67 60.41 41.67"/>
  </g>
</svg>
