<svg id="emoji" xmlns="http://www.w3.org/2000/svg" viewBox="0 0 72 72">
  <g id="grid">
    <path d="M68,4V68H4V4H68m4-4H0V72H72V0Z" fill="#b3b3b3"></path>
    <path d="M12.923,10.9583H59.0769A1.9231,1.9231,0,0,1,61,12.8814V59.0352a1.9231,1.9231,0,0,1-1.9231,1.9231H12.9231A1.9231,1.9231,0,0,1,11,59.0352V12.8813A1.923,1.923,0,0,1,12.923,10.9583Z" fill="none" stroke="#00a5ff" stroke-miterlimit="10" stroke-width="0.1"></path>
    <rect x="16" y="4" width="40" height="64" rx="2.2537" fill="none" stroke="#00a5ff" stroke-miterlimit="10" stroke-width="0.1"></rect>
    <rect x="16" y="4" width="40" height="64" rx="2.2537" transform="translate(72) rotate(90)" fill="none" stroke="#00a5ff" stroke-miterlimit="10" stroke-width="0.1"></rect>
    <circle cx="36" cy="36" r="29" fill="none" stroke="#00a5ff" stroke-miterlimit="10" stroke-width="0.1"></circle>
  </g>
  <g id="color">
    <path fill="#3f3f3f" d="M45.6693,22.2051l3.7465-1.3294c-0.0713,0.0157-0.1426,0.0374-0.2137,0.0374
			c-0.4101,0,2.9722-2.6164,2.9722-2.6164l-3.371-7.7369c0,0-4.1856,1.2874-3.944,0.9896l-3.143,1.6303
			c0.2373-0.1073,0.4787,1.0578,0.5891,1.3117l2.4753,6.4222C44.89,21.167,45.89,22.1024,45.6693,22.2051z" stroke="none"></path>
    <path fill="#9b9b9a" d="M29.095,28.198l3.8277-1.415c-0.0619,0.0172,12.4053-5.8087,12.4053-5.8087l-3.1999-6.8928
		c0,0-11.8508,4.9053-11.6593,4.8081l1.6804-0.8546l-5.2261,2.6058L29.095,28.198z" stroke="none"></path>
    <path fill="#9b9b9a" d="M14.6585,27.9833l1.7596,3.9323c0,0,9.0807-2.4898,8.951-2.4429l-1.1438,0.4143l5.4031-1.8896
		l-2.4411-7.4884l-4.0234,2.1377C23.4014,22.5474,14.6585,27.9833,14.6585,27.9833z" stroke="none"></path>
  </g>
  <g id="hair">
  </g>
  <g id="skin">
  </g>
  <g id="skin-shadow">
  </g>
  <g id="line">
    <polyline fill="none" stroke="#000000" stroke-width="2" stroke-linecap="round" stroke-linejoin="round" stroke-miterlimit="10" points="
			16.0186,56.6623 29.1491,36.039 31.624,36.039 43.8948,56.6564 		"></polyline>
    <line fill="none" stroke="#000000" stroke-width="2" stroke-linecap="round" stroke-linejoin="round" stroke-miterlimit="10" x1="30.4618" y1="36.741" x2="30.4618" y2="60.257"></line>
    <line fill="none" stroke="#000000" stroke-width="2" stroke-linecap="round" stroke-linejoin="round" stroke-miterlimit="10" x1="9.7475" y1="32.5748" x2="11.8352" y2="31.7117"></line>
    <polyline fill="none" stroke="#000000" stroke-width="2" stroke-linecap="round" stroke-linejoin="round" stroke-miterlimit="10" points="
			45.6328,12.1786 48.8033,10.5598 52.3814,18.772 49.2019,19.9125 		"></polyline>
    <line fill="none" stroke="#000000" stroke-width="2" stroke-linecap="round" stroke-linejoin="round" stroke-miterlimit="10" x1="26.8219" y1="19.924" x2="30.3531" y2="31.3607"></line>
    <circle cx="30.3531" cy="31.3607" r="2" fill="#000000" stroke="none"></circle>
    <polyline fill="none" stroke="#000000" stroke-width="2" stroke-linecap="round" stroke-linejoin="round" stroke-miterlimit="10" points="
			25.028,28.5329 16.1973,31.7319 14.6585,28.1744 23.5457,23.5568 		"></polyline>
    <polyline fill="none" stroke="#000000" stroke-width="2" stroke-linecap="round" stroke-linejoin="round" stroke-miterlimit="10" points="
			30.9216,19.7807 42.1281,14.0815 45.2549,21.3103 32.6562,25.8289 		"></polyline>
  </g>
</svg>