<?xml version="1.0" encoding="UTF-8"?>
<svg id="emoji" xmlns="http://www.w3.org/2000/svg" viewBox="0 0 72 72">
  <g id="grid">
    <path d="m68,4v64H4V4h64M72,0H0v72h72V0Z" fill="#b3b3b3"/>
    <path d="m12.923,10.9583h46.1539c1.0621,0,1.9231.861,1.9231,1.9231h0v46.1538c0,1.0621-.861,1.9231-1.9231,1.9231H12.9231c-1.0621,0-1.9231-.861-1.9231-1.9231h0V12.8813c0-1.062.861-1.923,1.923-1.923h0Z" fill="none" stroke="#00a5ff" stroke-miterlimit="10" stroke-width=".1"/>
    <rect x="16" y="4" width="40" height="64" rx="2.2537" ry="2.2537" fill="none" stroke="#00a5ff" stroke-miterlimit="10" stroke-width=".1"/>
    <rect x="4" y="16" width="64" height="40" rx="2.2537" ry="2.2537" fill="none" stroke="#00a5ff" stroke-miterlimit="10" stroke-width=".1"/>
    <circle cx="36" cy="36" r="29" fill="none" stroke="#00a5ff" stroke-miterlimit="10" stroke-width=".1"/>
  </g>
  <g id="color">
    <path d="m52.3814,18.772l-3.5781-8.2122-6.837,3.3699c.2373-.1073,3.2886,7.6306,3.2886,7.6306.1093.2534,7.1265-2.7883,7.1265-2.7883Z" fill="#3f3f3f"/>
    <path d="m29.095,27.698l3.8277-1.665c-.0619.0172,12.4053-4.5587,12.4053-4.5587l-3.1999-7.6428-15.205,7.5593,2.1719,6.3072Z" fill="#9b9b9a"/>
    <path d="m14.6585,27.9833l1.7596,3.9323,13.2103-4.4182-2.4411-6.2384-4.0234,2.1377c.2375-.0993-8.5054,4.5866-8.5054,4.5866Z" fill="#9b9b9a"/>
  </g>
  <g id="line">
    <polyline points="16.0186 56.6623 29.1491 36.039 31.624 36.039 43.8948 56.6564" fill="none" stroke="#000" stroke-linecap="round" stroke-linejoin="round" stroke-width="2"/>
    <line x1="30.4618" y1="36.741" x2="30.4618" y2="60.257" fill="none" stroke="#000" stroke-linecap="round" stroke-linejoin="round" stroke-width="2"/>
    <line x1="9.7475" y1="32.5748" x2="11.8352" y2="31.7117" fill="none" stroke="#000" stroke-linecap="round" stroke-linejoin="round" stroke-width="2"/>
    <polyline points="45.6328 12.1786 48.8033 10.5598 52.3814 18.772 49.2019 19.9125" fill="none" stroke="#000" stroke-linecap="round" stroke-linejoin="round" stroke-width="2"/>
    <line x1="26.8219" y1="19.924" x2="30.3531" y2="31.3607" fill="none" stroke="#000" stroke-linecap="round" stroke-linejoin="round" stroke-width="2"/>
    <circle cx="30.3531" cy="31.3607" r="2"/>
    <polyline points="25.028 28.5329 16.1973 31.7319 14.6585 28.1744 23.5457 23.5568" fill="none" stroke="#000" stroke-linecap="round" stroke-linejoin="round" stroke-width="2"/>
    <polyline points="30.9216 19.7807 42.1281 14.0815 45.2549 21.3103 32.6562 25.8289" fill="none" stroke="#000" stroke-linecap="round" stroke-linejoin="round" stroke-width="2"/>
  </g>
</svg>