<svg id="emoji" viewBox="0 0 72 72" xmlns="http://www.w3.org/2000/svg">
  <g id="grid">
    <path fill="#b3b3b3" d="M68,4V68H4V4H68m4-4H0V72H72V0Z"/>
    <path fill="none" stroke="#00a5ff" stroke-miterlimit="10" stroke-width="0.1" d="M12.923,10.9583H59.0769A1.9231,1.9231,0,0,1,61,12.8814V59.0352a1.9231,1.9231,0,0,1-1.9231,1.9231H12.9231A1.9231,1.9231,0,0,1,11,59.0352V12.8813A1.923,1.923,0,0,1,12.923,10.9583Z"/>
    <rect x="16" y="4" rx="2.2537" ry="2.2537" width="40" height="64" fill="none" stroke="#00a5ff" stroke-miterlimit="10" stroke-width="0.1"/>
    <rect x="16" y="4" rx="2.2537" ry="2.2537" width="40" height="64" transform="translate(72) rotate(90)" fill="none" stroke="#00a5ff" stroke-miterlimit="10" stroke-width="0.1"/>
    <circle cx="36" cy="36" r="29" fill="none" stroke="#00a5ff" stroke-miterlimit="10" stroke-width="0.1"/>
  </g>
  <g id="color">
    <rect x="11.3571" y="26.5365" rx="1.5" ry="1.5" width="3.1548" height="18.929" fill="#92d3f5"/>
    <rect x="21.8732" y="29.1655" rx="1.5" ry="1.5" width="3.1548" height="13.6709" fill="#b1cc33"/>
    <rect x="57.4915" y="26.5375" rx="1.5" ry="1.5" width="3.1548" height="18.929" fill="#92d3f5"/>
    <rect x="46.9754" y="29.1665" rx="1.5" ry="1.5" width="3.1548" height="13.6709" fill="#b1cc33"/>
  </g>
  <g id="line">
    <path fill="none" stroke="#000" stroke-linecap="round" stroke-miterlimit="10" stroke-width="2" d="M9.71,20.2278s22.1194,3.16,26.3,15.8047c5.0627,12.6631,26.28,15.7417,26.28,15.7417"/>
    <path fill="none" stroke="#000" stroke-linecap="round" stroke-miterlimit="10" stroke-width="2" d="M38.4036,32.0087C45.5936,21.4437,62.29,20.2258,62.29,20.2258"/>
    <path d="M13.0119,26.5365a1.5,1.5,0,0,1,1.5,1.5v15.929a1.5,1.5,0,0,1-1.5,1.5h-.1548a1.5,1.5,0,0,1-1.5-1.5V28.0365a1.5,1.5,0,0,1,1.5-1.5h.1548m0-2h-.1548a3.504,3.504,0,0,0-3.5,3.5v15.929a3.504,3.504,0,0,0,3.5,3.5h.1548a3.504,3.504,0,0,0,3.5-3.5V28.0365a3.504,3.504,0,0,0-3.5-3.5Z"/>
    <path d="M23.528,29.1655a1.5,1.5,0,0,1,1.5,1.5v10.671a1.5,1.5,0,0,1-1.5,1.5h-.1548a1.5,1.5,0,0,1-1.5-1.5V30.6655a1.5,1.5,0,0,1,1.5-1.5h.1548m0-2h-.1548a3.504,3.504,0,0,0-3.5,3.5v10.671a3.504,3.504,0,0,0,3.5,3.5h.1548a3.504,3.504,0,0,0,3.5-3.5V30.6655a3.504,3.504,0,0,0-3.5-3.5Z"/>
    <path d="M59.1463,26.5375a1.5,1.5,0,0,1,1.5,1.5v15.929a1.5,1.5,0,0,1-1.5,1.5h-.1548a1.5,1.5,0,0,1-1.5-1.5V28.0375a1.5,1.5,0,0,1,1.5-1.5h.1548m0-2h-.1548a3.504,3.504,0,0,0-3.5,3.5v15.929a3.504,3.504,0,0,0,3.5,3.5h.1548a3.504,3.504,0,0,0,3.5-3.5V28.0375a3.504,3.504,0,0,0-3.5-3.5Z"/>
    <path d="M48.63,29.1665a1.5,1.5,0,0,1,1.5,1.5v10.671a1.5,1.5,0,0,1-1.5,1.5h-.1548a1.5,1.5,0,0,1-1.5-1.5V30.6665a1.5,1.5,0,0,1,1.5-1.5H48.63m0-2h-.1548a3.504,3.504,0,0,0-3.5,3.5v10.671a3.504,3.504,0,0,0,3.5,3.5H48.63a3.504,3.504,0,0,0,3.5-3.5V30.6665a3.504,3.504,0,0,0-3.5-3.5Z"/>
    <path fill="none" stroke="#000" stroke-linecap="round" stroke-miterlimit="10" stroke-width="2" d="M33.5964,39.9913C26.4064,50.5563,9.71,51.7742,9.71,51.7742"/>
  </g>
</svg>
