<svg id="emoji" xmlns="http://www.w3.org/2000/svg" viewBox="0 0 72 72">
  <g id="grid">
    <path d="M68,4V68H4V4H68m4-4H0V72H72V0Z" fill="#b3b3b3"/>
    <path d="M12.923,10.9583H59.0769A1.9231,1.9231,0,0,1,61,12.8814V59.0352a1.9231,1.9231,0,0,1-1.9231,1.9231H12.9231A1.9231,1.9231,0,0,1,11,59.0352V12.8813A1.923,1.923,0,0,1,12.923,10.9583Z" fill="none" stroke="#00a5ff" stroke-miterlimit="10" stroke-width="0.1"/>
    <rect x="16" y="4" width="40" height="64" rx="2.2537" ry="2.2537" fill="none" stroke="#00a5ff" stroke-miterlimit="10" stroke-width="0.1"/>
    <rect x="16" y="4" width="40" height="64" rx="2.2537" ry="2.2537" transform="rotate(90 36 36)" fill="none" stroke="#00a5ff" stroke-miterlimit="10" stroke-width="0.1"/>
    <circle cx="36" cy="36" r="29" fill="none" stroke="#00a5ff" stroke-miterlimit="10" stroke-width="0.1"/>
  </g>
  <g id="color">
    <circle cx="36.0526" cy="36.3321" r="21.5814" fill="#d0cfce"/>
    <circle cx="36.0526" cy="36.3321" r="16.9387" fill="#92d3f5"/>
  </g>
  <g id="line">
    <circle cx="36.0526" cy="36.3321" r="16.9387" fill="none" stroke="#000" stroke-miterlimit="10" stroke-width="2"/>
    <circle cx="36.0526" cy="36.3321" r="21.5814" fill="none" stroke="#000" stroke-miterlimit="10" stroke-width="2"/>
    <line x1="27.922" y1="28.9292" x2="32.0375" y2="26.219" fill="none" stroke="#000" stroke-linecap="round" stroke-miterlimit="10" stroke-width="2"/>
    <line x1="28.3639" y1="42.5787" x2="26.9281" y2="37.8648" fill="none" stroke="#000" stroke-linecap="round" stroke-miterlimit="10" stroke-width="2"/>
    <line x1="45.7305" y1="34.5571" x2="40.8795" y2="33.6905" fill="none" stroke="#000" stroke-linecap="round" stroke-miterlimit="10" stroke-width="2"/>
    <line x1="40.4157" y1="44.4103" x2="41.6773" y2="39.6469" fill="none" stroke="#000" stroke-linecap="round" stroke-miterlimit="10" stroke-width="2"/>
    <circle cx="33.0563" cy="35.0695" r="0.8293" fill="none" stroke="#000" stroke-linecap="round" stroke-miterlimit="10" stroke-width="2"/>
    <circle cx="40.8696" cy="27.549" r="0.8293" fill="none" stroke="#000" stroke-linecap="round" stroke-miterlimit="10" stroke-width="2"/>
    <circle cx="35.2804" cy="47.5386" r="0.8293" fill="none" stroke="#000" stroke-linecap="round" stroke-miterlimit="10" stroke-width="2"/>
  </g>
</svg>
