<svg id="emoji" viewBox="0 0 72 72" xmlns="http://www.w3.org/2000/svg">
  <g id="grid">
    <path fill="#b3b3b3" d="M68,4V68H4V4H68m4-4H0V72H72V0Z"/>
    <path fill="none" stroke="#00a5ff" stroke-miterlimit="10" stroke-width="0.1" d="M12.923,10.9583H59.0769A1.9231,1.9231,0,0,1,61,12.8814V59.0352a1.9231,1.9231,0,0,1-1.9231,1.9231H12.9231A1.9231,1.9231,0,0,1,11,59.0352V12.8813A1.923,1.923,0,0,1,12.923,10.9583Z"/>
    <rect x="16" y="4" rx="2.2537" width="40" height="64" fill="none" stroke="#00a5ff" stroke-miterlimit="10" stroke-width="0.1"/>
    <rect x="16" y="4" rx="2.2537" width="40" height="64" transform="rotate(90 36 36)" fill="none" stroke="#00a5ff" stroke-miterlimit="10" stroke-width="0.1"/>
    <circle cx="36" cy="36" r="29" fill="none" stroke="#00a5ff" stroke-miterlimit="10" stroke-width="0.1"/>
  </g>
  <g id="color">
    <path fill="#D0CFCE" stroke="none" d="M63,61c0,0,0-4,0-8c0-7-4-10-8-10c-5,0-5,0-12,0c-2.7842,0-5.5645,0.5059-7,3.75 c-1.125-3.3125-4.2158-4.7031-7-4.7031C24,42.0469,24,43,17,43c-4,0-8,3-8,10c0,1,0,8,0,8"/>
    <path fill="#D0CFCE" stroke="none" d="M15,26c0,4,0.876,6.3145,2,8c1.4316,2.1484,3.7061,3,6,3c2.3809,0,4.5664-0.8516,6-3c1.123-1.6855,2-4,2-8 c0-2.1484-1.0771-9-8-9S15,22.4189,15,26z"/>
    <path fill="#D0CFCE" stroke="none" d="M41,26c0,4,0.876,6.3145,2,8c1.4316,2.1484,3.7061,3,6,3c2.3809,0,4.5664-0.8516,6-3c1.123-1.6855,2-4,2-8 c0-2.1484-1.0771-9-8-9C42.0771,17,41,22.4189,41,26z"/>
  </g>
  <g id="hair"/>
  <g id="skin"/>
  <g id="skin-shadow"/>
  <g id="line">
    <path fill="none" stroke="#000000" stroke-linecap="round" stroke-linejoin="round" stroke-width="2" d="M35,60v-7c0-7,4-10,8-10 c7,0,7,0,12,0c4,0,8,3,8,10c0,4,0,7,0,7 M34,45.0977 M9,60c0,0,0-6,0-7c0-7,4-10,8-10c7,0,7,0,12,0 c1.5313,0,3.0605,0.5313,4.3672,1.5488"/>
    <path fill="none" stroke="#000000" stroke-linejoin="round" stroke-width="2" d="M15,26c0,4,0.876,6.3145,2,8 c1.4316,2.1484,3.7061,3,6,3c2.3809,0,4.5664-0.8516,6-3c1.123-1.6855,2-4,2-8c0-2.1484-1.0771-9-8-9S15,22.4189,15,26z"/>
    <path fill="none" stroke="#000000" stroke-linejoin="round" stroke-width="2" d="M41,26c0,4,0.876,6.3145,2,8 c1.4316,2.1484,3.7061,3,6,3c2.3809,0,4.5664-0.8516,6-3c1.123-1.6855,2-4,2-8c0-2.1484-1.0771-9-8-9C42.0771,17,41,22.4189,41,26z"/>
  </g>
</svg>
