<?xml version="1.0" encoding="utf-8"?>
<!-- Generator: Adobe Illustrator 16.0.4, SVG Export Plug-In . SVG Version: 6.00 Build 0)  -->
<!DOCTYPE svg PUBLIC "-//W3C//DTD SVG 1.1//EN" "http://www.w3.org/Graphics/SVG/1.1/DTD/svg11.dtd">
<svg version="1.1" id="Ebene_1" xmlns="http://www.w3.org/2000/svg" xmlns:xlink="http://www.w3.org/1999/xlink" x="0px" y="0px"
	 width="960px" height="560px" viewBox="0 0 960 560" enable-background="new 0 0 960 560" xml:space="preserve">
<title>farbpalette</title>
<circle fill="#92D3F5" cx="442.96" cy="18.649" r="18.649"/>
<circle fill="#61B2E4" cx="480" cy="18.649" r="18.649"/>
<circle fill="#EA5A47" cx="442.96" cy="77.706" r="18.649"/>
<circle fill="#D22F27" cx="480" cy="77.706" r="18.649"/>
<circle fill="#B1CC33" cx="442.96" cy="137.021" r="18.649"/>
<circle fill="#5C9E31" cx="480" cy="137.021" r="18.649"/>
<circle fill="#FCEA2B" cx="442.96" cy="196.078" r="18.649"/>
<circle fill="#F1B31C" cx="480" cy="196.078" r="18.649"/>
<circle fill="#D0CFCE" cx="442.96" cy="255.393" r="18.649"/>
<circle fill="#9B9B9A" cx="480" cy="255.393" r="18.649"/>
<circle fill="#3F3F3F" cx="517.04" cy="255.393" r="18.649"/>
<circle fill="#F4AA41" cx="442.96" cy="422.979" r="18.649"/>
<circle fill="#E27022" cx="480" cy="422.979" r="18.649"/>
<circle fill="#FFA7C0" cx="442.96" cy="368.979" r="18.649"/>
<circle fill="#E67A94" cx="480" cy="368.979" r="18.649"/>
<circle fill="#B399C8" cx="442.96" cy="482.294" r="18.649"/>
<circle fill="#8967AA" cx="480" cy="482.294" r="18.649"/>
<circle fill="#A57939" cx="442.96" cy="541.351" r="18.649"/>
<circle fill="#6A462F" cx="480" cy="541.351" r="18.649"/>
</svg>
