<svg id="emoji" xmlns="http://www.w3.org/2000/svg" viewBox="0 0 72 72">
  <g id="grid">
    <path d="M68,4V68H4V4H68m4-4H0V72H72V0Z" fill="#b3b3b3"/>
    <path d="M12.923,10.9583H59.0769A1.9231,1.9231,0,0,1,61,12.8814V59.0352a1.9231,1.9231,0,0,1-1.9231,1.9231H12.9231A1.9231,1.9231,0,0,1,11,59.0352V12.8813A1.923,1.923,0,0,1,12.923,10.9583Z" fill="none" stroke="#00a5ff" stroke-miterlimit="10" stroke-width="0.1"/>
    <rect x="16" y="4" width="40" height="64" rx="2.2537" fill="none" stroke="#00a5ff" stroke-miterlimit="10" stroke-width="0.1"/>
    <rect x="16" y="4" width="40" height="64" rx="2.2537" transform="rotate(90 36 36)" fill="none" stroke="#00a5ff" stroke-miterlimit="10" stroke-width="0.1"/>
    <circle cx="36" cy="36" r="29" fill="none" stroke="#00a5ff" stroke-miterlimit="10" stroke-width="0.1"/>
  </g>
  <g id="color">
    <circle fill="#FFFFFF" cx="36" cy="36" r="26" stroke="none"/>
    <path fill="#FFFFFF" d="M42.6851,19.34H29.3149c-1.6927,0-3.0649,1.3722-3.0649,3.0649v27.1902 c0,1.6927,1.3722,3.0649,3.0649,3.0649h13.3702c1.6927,0,3.0649-1.3722,3.0649-3.0649V22.4049 C45.75,20.7122,44.3778,19.34,42.6851,19.34z" stroke="none"/>
    <path fill="none" d="M29.4828,20H43c1.1045,0,2,0.8955,2,2v13.5172" stroke="none"/>
    <path fill="none" d="M42.5172,52H29c-1.1045,0-2-0.8955-2-2V36.4827" stroke="none"/>
    <polyline fill="#FFFFFF" stroke="none" stroke-width="2" stroke-linecap="round" stroke-linejoin="round" stroke-miterlimit="10" points="27,37.4827 27,50 39.5172,50"/>
    <path fill="#FFFFFF" stroke="none" stroke-width="2" stroke-linecap="round" stroke-linejoin="round" stroke-miterlimit="10" d="M41.5172,52H29c-1.1045,0-2-0.8955-2-2h12.5172L41.5172,52z"/>
    <polyline fill="#FFFFFF" stroke="none" stroke-width="2" stroke-linecap="round" stroke-linejoin="round" stroke-miterlimit="10" points="45,34.5172 45,22 32.4828,22"/>
    <path fill="#FFFFFF" stroke="none" stroke-width="2" stroke-linecap="round" stroke-linejoin="round" stroke-miterlimit="10" d="M30.4828,20H43c1.1045,0,2,0.8955,2,2H32.4828L30.4828,20z"/>
    <path fill="#ea5a47" stroke="none" stroke-width="2" stroke-linecap="round" stroke-linejoin="round" stroke-miterlimit="10" d="M36,7C19.9844,7,7,19.9844,7,36s12.9844,29,29,29s29-12.9844,29-29S52.0156,7,36,7z M13,36 c0-5.0752,1.6475-9.7637,4.4316-13.5684l32.1368,32.1368C45.7637,57.3525,41.0752,59,36,59C23.2969,59,13,48.7031,13,36z M54.5684,49.5684L22.4316,17.4316C26.2363,14.6475,30.9248,13,36,13c12.7031,0,23,10.2969,23,23 C59,41.0752,57.3525,45.7637,54.5684,49.5684z"/>
  </g>
  <g id="hair"/>
  <g id="skin"/>
  <g id="skin-shadow"/>
  <g id="line">
    <polyline fill="none" stroke="#000000" stroke-width="2" stroke-linecap="round" stroke-linejoin="round" stroke-miterlimit="10" points="27,37.4827 27,50 39.5172,50"/>
    <path fill="none" stroke="#000000" stroke-width="2" stroke-linecap="round" stroke-linejoin="round" stroke-miterlimit="10" d="M41.5172,52H29c-1.1045,0-2-0.8955-2-2h12.5172L41.5172,52z"/>
    <polyline fill="none" stroke="#000000" stroke-width="2" stroke-linecap="round" stroke-linejoin="round" stroke-miterlimit="10" points="45,34.5172 45,22 32.4828,22"/>
    <path fill="none" stroke="#000000" stroke-width="2" stroke-linecap="round" stroke-linejoin="round" stroke-miterlimit="10" d="M30.4828,20H43c1.1045,0,2,0.8955,2,2H32.4828L30.4828,20z"/>
    <path fill="none" stroke="#000000" stroke-width="2" stroke-linecap="round" stroke-linejoin="round" stroke-miterlimit="10" d="M36,7C19.9844,7,7,19.9844,7,36s12.9844,29,29,29s29-12.9844,29-29S52.0156,7,36,7z M13,36 c0-5.0752,1.6475-9.7637,4.4316-13.5684l32.1368,32.1368C45.7637,57.3525,41.0752,59,36,59C23.2969,59,13,48.7031,13,36z M54.5684,49.5684L22.4316,17.4316C26.2363,14.6475,30.9248,13,36,13c12.7031,0,23,10.2969,23,23 C59,41.0752,57.3525,45.7637,54.5684,49.5684z"/>
  </g>
</svg>
