<svg id="emoji" version="1.1" viewBox="0 0 72 72" xmlns="http://www.w3.org/2000/svg">
 <g id="grid">
  <path d="M68,4V68H4V4H68m4-4H0V72H72V0Z" fill="#b3b3b3"/>
  <path d="m12.92 10.96h46.15a1.923 1.923 0 0 1 1.923 1.923v46.15a1.923 1.923 0 0 1-1.923 1.923h-46.15a1.923 1.923 0 0 1-1.923-1.923v-46.15a1.923 1.923 0 0 1 1.923-1.923z" fill="none" stroke="#00a5ff" stroke-miterlimit="10" stroke-width=".1"/>
  <rect x="16" y="4" width="40" height="64" rx="2.254" fill="none" stroke="#00a5ff" stroke-miterlimit="10" stroke-width=".1"/>
  <rect transform="translate(72) rotate(90)" x="16" y="4" width="40" height="64" rx="2.254" fill="none" stroke="#00a5ff" stroke-miterlimit="10" stroke-width=".1"/>
  <circle cx="36" cy="36" r="29" fill="none" stroke="#00a5ff" stroke-miterlimit="10" stroke-width=".1"/>
 </g>
 <g id="color">
  <circle cx="36" cy="36" r="26" fill="#fff"/>
  <path d="m20.42 33.9 6.653-4.987v24.05" clip-rule="evenodd" fill="none" stroke="#000" stroke-linecap="round" stroke-linejoin="round" stroke-miterlimit="10" stroke-width="6.869px"/>
  <path d="m37.15 46.9c0 3.328 2.696 6.025 6.025 6.025h0.8724c3.328 0 6.028-2.696 6.028-6.025 0-3.328-2.7-6.025-6.028-6.025h-0.8724c-3.328 0-6.025 2.696-6.025 6.025z" clip-rule="evenodd" fill="none" stroke="#000" stroke-linecap="round" stroke-linejoin="round" stroke-miterlimit="10" stroke-width="6.869px"/>
  <path d="m37.15 34.85c0 3.328 2.696 6.025 6.025 6.025h0.8724c3.328 0 6.028-2.696 6.028-6.025 0-3.328-2.7-6.025-6.028-6.025h-0.8724c-3.328 0-6.025 2.696-6.025 6.025z" clip-rule="evenodd" fill="none" stroke="#000" stroke-linecap="round" stroke-linejoin="round" stroke-miterlimit="10" stroke-width="6.869px"/>
  <path d="m36 7c-16.02 0-29 12.98-29 29s12.98 29 29 29 29-12.98 29-29-12.98-29-29-29zm-25.21 29.27c0-5.075 3.417-12.69 6.202-16.49l35.2 35.27c-3.805 2.784-10.93 5.904-16.01 5.904-12.7 0-25.39-11.98-25.39-24.68zm44.87 15.18-35.06-35.13c3.805-2.784 10.77-5.441 15.84-5.441 12.7 0 24.68 12.25 24.68 24.95 0 5.075-2.686 11.81-5.47 15.62z" fill="#ea5a47" stroke-miterlimit="10"/>
 </g>
 <g id="line" fill="none" stroke="#000" stroke-linecap="round" stroke-linejoin="round" stroke-width="2">
  <circle cx="36" cy="36" r="30"/>
  <path transform="matrix(.8788 0 0 .8788 3.896 8.867)" d="m35.92 25.3c1.59-3.284 4.804-5.496 9.301-5.536 6.102-0.05456 10.2 4.614 10.23 9.742 0 2.678-0.9926 5.078-2.823 6.914 1.804 1.817 2.849 4.192 2.849 6.869 0 0.7881-0.07354 1.565-0.2272 2.314" fill="none" stroke="#000" stroke-linecap="butt" stroke-width="2"/>
  <path transform="matrix(.8788 0 0 .8788 3.896 8.867)" d="m52.62 50.79c-1.859 0.1858-2.497 2.331-7.536 2.245-3.852-0.06541-5.87-1.611-6.947-2.542-1.998-1.729-3.12-4.273-3.183-7.013-0.0375-1.622 0.04034-3.825 2.623-6.959 0.238-0.239-0.387-0.8364-0.7754-1.254-0.3916-0.4209-0.7579-1.256-0.9672-1.674" fill="none" stroke="#000" stroke-linecap="butt" stroke-width="2"/>
  <path transform="matrix(.8788 0 0 .8788 3.896 8.867)" d="m40.85 30.64c-0.0415-0.2249-0.1016-0.7945-0.1016-1.019 0-1.113 0.4732-2.336 1.418-3.107 0.796-0.6499 1.537-0.9153 2.999-0.913 1.465 0.0023 1.937 0.1536 2.704 0.6693 1.162 0.7808 1.752 2.07 1.781 3.328 0.02586 1.103-0.5084 2.225-1.423 2.988-0.8967 0.7483-1.979 0.9353-3.024 0.9353-0.7025 0-0.8272-0.05459-1.473-0.3076" fill="none" stroke="#000" stroke-linecap="butt" stroke-width="2"/>
  <path transform="matrix(.8788 0 0 .8788 3.896 8.867)" d="m42.62 39.83s-1.163 1.058-1.513 1.743c-0.6052 1.186-0.456 2.821 0.2972 3.874 0.868 1.215 2.411 1.939 4.114 1.77 1.433 0.06423 2.967-1.001 2.967-1.001" fill="none" stroke="#000" stroke-linecap="butt" stroke-width="2"/>
  <path transform="matrix(.8788 0 0 .8788 3.896 8.867)" d="m23.78 21.14s-5.123 3.821-6.188 4.621c-0.6758 0.5073-1.159 0.7726-1.527 1.705-0.2986 0.756-0.2417 2.057 0.5142 2.882 0.974 1.063 2.208 1.262 3.105 0.9151 1.545-0.5967 3.836-2.873 3.836-2.873s-0.1205 14.99-0.0612 21.69c0 0-0.05888 1.09 0.6136 1.883 0.5705 0.6721 1.431 1.105 2.202 1.094 0.8008-0.01163 1.531-0.2472 2.071-0.7431 0.9862-0.905 0.9196-2.133 0.9196-2.133l-0.0128-23.17" fill="none" stroke="#000" stroke-linecap="butt" stroke-width="2"/>
  <path d="m55.66 51.44c7.846-9.939 7.019-24.18-1.926-33.14-8.945-8.963-23.18-9.819-33.13-1.992l2.657 2.662z"/>
  <path d="m16.99 19.77a24.99 24.99 0 0 0 35.2 35.27z"/>
  <path d="m44.47 17.19h-2.948v5.16h2.948" clip-rule="evenodd" fill="none" stroke="#000" stroke-linecap="round" stroke-linejoin="round" stroke-miterlimit="10" stroke-width="1.474px"/>
  <path d="m41.52 19.77h2.211" clip-rule="evenodd" fill="none" stroke="#000" stroke-linecap="round" stroke-linejoin="round" stroke-miterlimit="10" stroke-width="1.474px"/>
  <path d="m29.49 22.35v-5.16l3.686 5.16v-5.16" clip-rule="evenodd" fill="none" stroke="#000" stroke-linecap="round" stroke-linejoin="round" stroke-miterlimit="10" stroke-width="1.474px"/>
  <path d="m26.91 17.19v3.317c0 0.5171-0.2128 0.9844-0.5557 1.319m-3.13-3.363v-1.273" clip-rule="evenodd" fill="none" stroke="#000" stroke-linecap="round" stroke-linejoin="round" stroke-miterlimit="10" stroke-width="1.474px"/>
  <path d="m37.53 22.33h-1.789v-5.141h1.789c0.8462 0 1.533 0.6863 1.533 1.532v2.075c0 0.847-0.687 1.533-1.533 1.533z" clip-rule="evenodd" fill="none" stroke="#000" stroke-linecap="round" stroke-linejoin="round" stroke-miterlimit="10" stroke-width="1.474px"/>
  <path d="m46.96 22.35v-5.16h1.967c0.7098 0 1.286 0.5757 1.286 1.286 0 0.7098-0.5757 1.285-1.286 1.285h-1.967" clip-rule="evenodd" fill="none" stroke="#000" stroke-linecap="round" stroke-linejoin="round" stroke-miterlimit="10" stroke-width="1.474px"/>
  <path d="m48.97 19.76 1.119 2.59" clip-rule="evenodd" fill="none" stroke="#000" stroke-linecap="round" stroke-linejoin="round" stroke-miterlimit="10" stroke-width="1.474px"/>
 </g>
</svg>
