<svg id="emoji" viewBox="0 0 72 72" xmlns="http://www.w3.org/2000/svg">
  <g id="grid">
    <path fill="#b3b3b3" d="M68,4V68H4V4H68m4-4H0V72H72V0Z"/>
    <path fill="none" stroke="#00a5ff" stroke-miterlimit="10" stroke-width="0.1" d="M12.923,10.9583H59.0769A1.9231,1.9231,0,0,1,61,12.8814V59.0352a1.9231,1.9231,0,0,1-1.9231,1.9231H12.9231A1.9231,1.9231,0,0,1,11,59.0352V12.8813A1.923,1.923,0,0,1,12.923,10.9583Z"/>
    <rect x="16" y="4" rx="2.2537" width="40" height="64" fill="none" stroke="#00a5ff" stroke-miterlimit="10" stroke-width="0.1"/>
    <rect x="16" y="4" rx="2.2537" width="40" height="64" transform="translate(72) rotate(90)" fill="none" stroke="#00a5ff" stroke-miterlimit="10" stroke-width="0.1"/>
    <circle cx="36" cy="36" r="29" fill="none" stroke="#00a5ff" stroke-miterlimit="10" stroke-width="0.1"/>
  </g>
  <g id="color">
    <circle cx="36" cy="36" r="26" fill="#fff"/>
    <path d="m36 7c-16.02 0-29 12.98-29 29s12.98 29 29 29 29-12.98 29-29-12.98-29-29-29zm-25.21 29.27c0-5.075 3.417-12.69 6.202-16.49l35.2 35.27c-3.805 2.784-10.93 5.904-16.01 5.904-12.7 0-25.39-11.98-25.39-24.68zm44.87 15.18-35.06-35.13c3.805-2.784 10.77-5.441 15.84-5.441 12.7 0 24.68 12.25 24.68 24.95 0 5.075-2.686 11.81-5.47 15.62z" fill="#ea5a47" stroke-miterlimit="10"/>
  </g>
  <g id="line">
    <circle cx="36" cy="36" r="30" fill="none" stroke="#000" stroke-linecap="round" stroke-linejoin="round" stroke-width="2"/>
    <path d="m36.21 27.77a6.375 6.375 0 0 1 2.207-7.579 6.375 6.375 0 0 1 7.885 0.3776 6.375 6.375 0 0 1 1.473 7.755 6.375 6.375 0 0 1-7.198 3.242" style="fill:none;paint-order:normal;stroke-linecap:round;stroke-linejoin:round;stroke-width:2;stroke:#000"/>
    <path d="m40.4 31.89a10.62 10.62 0 0 1 9.261 2.998 10.62 10.62 0 0 1 2.932 9.283" style="fill:none;paint-order:normal;stroke-linecap:round;stroke-linejoin:round;stroke-width:2;stroke:#000"/>
    <path d="m45.09 52.58a10.62 10.62 0 0 1-10.47-2.686 10.62 10.62 0 0 1-2.699-10.47" style="fill:none;paint-order:normal;stroke-linecap:round;stroke-linejoin:round;stroke-width:2;stroke:#000"/>
    <path d="m26 33.48v19.52" style="fill:none;stroke-linecap:round;stroke-linejoin:round;stroke-miterlimit:10;stroke-width:2;stroke:#000"/>
    <path d="m55.66 51.44a24.99 24.99 0 0 0-35.06-35.13z" fill="none" stroke="#000" stroke-linecap="round" stroke-linejoin="round" stroke-width="2"/>
    <path d="m16.99 19.77a24.99 24.99 0 0 0 35.2 35.27z" fill="none" stroke="#000" stroke-linecap="round" stroke-linejoin="round" stroke-width="2"/>
  </g>
</svg>
