<svg id="emoji" version="1.1" viewBox="0 0 72 72" xmlns="http://www.w3.org/2000/svg">
 <g id="grid">
  <path d="M68,4V68H4V4H68m4-4H0V72H72V0Z" fill="#b3b3b3"/>
  <path d="m12.92 10.96h46.15a1.923 1.923 0 0 1 1.923 1.923v46.15a1.923 1.923 0 0 1-1.923 1.923h-46.15a1.923 1.923 0 0 1-1.923-1.923v-46.15a1.923 1.923 0 0 1 1.923-1.923z" fill="none" stroke="#00a5ff" stroke-miterlimit="10" stroke-width=".1"/>
  <rect x="16" y="4" width="40" height="64" rx="2.254" fill="none" stroke="#00a5ff" stroke-miterlimit="10" stroke-width=".1"/>
  <rect transform="translate(72) rotate(90)" x="16" y="4" width="40" height="64" rx="2.254" fill="none" stroke="#00a5ff" stroke-miterlimit="10" stroke-width=".1"/>
  <circle cx="36" cy="36" r="29" fill="none" stroke="#00a5ff" stroke-miterlimit="10" stroke-width=".1"/>
 </g>
 <g id="color">
  <circle cx="36" cy="36" r="26" fill="#fff"/>
  <path d="m20.42 34.4 6.653-4.987v24.05" clip-rule="evenodd" fill="none" stroke="#000" stroke-linecap="round" stroke-linejoin="round" stroke-miterlimit="10" stroke-width="6.869px"/>
  <path d="m37.15 47.4c0 3.328 2.696 6.025 6.025 6.025h0.8724c3.328 0 6.028-2.696 6.028-6.025 0-3.328-2.7-6.025-6.028-6.025h-0.8724c-3.328 0-6.025 2.696-6.025 6.025z" clip-rule="evenodd" fill="none" stroke="#000" stroke-linecap="round" stroke-linejoin="round" stroke-miterlimit="10" stroke-width="6.869px"/>
  <path d="m37.15 35.35c0 3.328 2.696 6.025 6.025 6.025h0.8724c3.328 0 6.028-2.696 6.028-6.025 0-3.328-2.7-6.025-6.028-6.025h-0.8724c-3.328 0-6.025 2.696-6.025 6.025z" clip-rule="evenodd" fill="none" stroke="#000" stroke-linecap="round" stroke-linejoin="round" stroke-miterlimit="10" stroke-width="6.869px"/>
  <path d="m36 7c-16.02 0-29 12.98-29 29s12.98 29 29 29 29-12.98 29-29-12.98-29-29-29zm-25.21 29.27c0-5.075 3.417-12.69 6.202-16.49l35.2 35.27c-3.805 2.784-10.93 5.904-16.01 5.904-12.7 0-25.39-11.98-25.39-24.68zm44.87 15.18-35.06-35.13c3.805-2.784 10.77-5.441 15.84-5.441 12.7 0 24.68 12.25 24.68 24.95 0 5.075-2.686 11.81-5.47 15.62z" fill="#ea5a47" stroke-miterlimit="10"/>
 </g>
 <g id="line" fill="none" stroke="#000" stroke-linecap="round" stroke-linejoin="round" stroke-width="2">
  <circle cx="36" cy="36" r="30"/>
  <path d="m35.46 31.6c1.397-2.886 4.222-4.83 8.174-4.865 5.362-0.04795 8.964 4.055 8.99 8.561 0 2.353-0.8723 4.463-2.481 6.076 1.585 1.597 2.504 3.684 2.504 6.036 0 0.6926 0.0084 1.01-0.1267 1.669" fill="none" stroke="#000" stroke-linecap="butt" stroke-width="2"/>
  <path d="m50.12 53.32c-0.5803 0.7242-2.174 2.727-6.602 2.652-3.385-0.05748-5.159-1.416-6.105-2.234-1.756-1.519-2.742-3.755-2.797-6.163-0.03295-1.425 0.06146-3.387 2.331-6.142 0.2092-0.21-0.6002-0.735-0.7595-1.128-0.3441-0.3699-1.056-1.962-1.24-2.33" fill="none" stroke="#000" stroke-linecap="butt" stroke-width="1.758"/>
  <path d="m39.71 35.4c0-0.9781 0.4158-2.053 1.246-2.73 0.6995-0.5711 1.351-0.8044 2.636-0.8023 1.287 2e-3 1.702 0.135 2.376 0.5882 1.021 0.6862 1.54 1.819 1.565 2.925 0.02273 0.9693-0.4468 1.955-1.251 2.626-0.788 0.6576-2.077 0.8219-2.996 0.8219" fill="none" stroke="#000" stroke-linecap="butt" stroke-width="2"/>
  <path d="m41.35 44.37s-1.022 0.9298-1.33 1.532c-0.5318 1.042-0.4007 2.479 0.2612 3.404 0.7628 1.068 2.119 1.704 3.615 1.555 1.259 0.05644 2.607-0.8797 2.607-0.8797" fill="none" stroke="#000" stroke-linecap="butt" stroke-width="2"/>
  <path d="m24.79 27.94s-4.502 3.358-5.438 4.061c-0.5939 0.4458-1.019 0.679-1.342 1.498-0.2624 0.6644-0.2124 1.808 0.4519 2.533 0.856 0.9342 1.94 1.109 2.729 0.8042 1.358-0.5244 3.371-2.525 3.371-2.525s-0.1059 13.17-0.05378 19.06c0 0-0.05174 0.9579 0.5392 1.655 0.5014 0.5906 1.258 0.9711 1.935 0.9614 0.7037-0.01022 1.345-0.2172 1.82-0.653 0.8667-0.7953 0.8081-1.874 0.8081-1.874l-0.01125-20.36" fill="none" stroke="#000" stroke-linecap="butt" stroke-width="2"/>
  <path d="m55.66 51.44c7.846-9.939 7.019-24.18-1.926-33.14-8.945-8.963-23.18-9.819-33.13-1.992l2.657 2.662z"/>
  <path d="m16.99 20.07a24.99 24.99 0 0 0 35.2 35.27z"/>
  <path d="m44.47 17.69h-2.948v5.16h2.948" clip-rule="evenodd" fill="none" stroke="#000" stroke-linecap="round" stroke-linejoin="round" stroke-miterlimit="10" stroke-width="1.474px"/>
  <path d="m41.52 20.27h2.211" clip-rule="evenodd" fill="none" stroke="#000" stroke-linecap="round" stroke-linejoin="round" stroke-miterlimit="10" stroke-width="1.474px"/>
  <path d="m29.49 22.85v-5.16l3.686 5.16v-5.16" clip-rule="evenodd" fill="none" stroke="#000" stroke-linecap="round" stroke-linejoin="round" stroke-miterlimit="10" stroke-width="1.474px"/>
  <path d="m26.91 17.69v3.317c0 0.5171-0.2128 0.9844-0.5557 1.319m-3.13-3.363v-1.273" clip-rule="evenodd" fill="none" stroke="#000" stroke-linecap="round" stroke-linejoin="round" stroke-miterlimit="10" stroke-width="1.474px"/>
  <path d="m37.53 22.83h-1.789v-5.141h1.789c0.8462 0 1.533 0.6863 1.533 1.532v2.075c0 0.847-0.687 1.533-1.533 1.533z" clip-rule="evenodd" fill="none" stroke="#000" stroke-linecap="round" stroke-linejoin="round" stroke-miterlimit="10" stroke-width="1.474px"/>
  <path d="m46.96 22.85v-5.16h1.967c0.7098 0 1.286 0.5757 1.286 1.286 0 0.7098-0.5757 1.285-1.286 1.285h-1.967" clip-rule="evenodd" fill="none" stroke="#000" stroke-linecap="round" stroke-linejoin="round" stroke-miterlimit="10" stroke-width="1.474px"/>
  <path d="m48.97 20.26 1.119 2.59" clip-rule="evenodd" fill="none" stroke="#000" stroke-linecap="round" stroke-linejoin="round" stroke-miterlimit="10" stroke-width="1.474px"/>
 </g>
</svg>
