<svg id="emoji" viewBox="0 0 72 72" xmlns="http://www.w3.org/2000/svg">
  <g id="grid">
    <path fill="#b3b3b3" d="M68,4V68H4V4H68m4-4H0V72H72V0Z"/>
    <path fill="none" stroke="#00a5ff" stroke-miterlimit="10" stroke-width="0.1" d="M12.923,10.9583H59.0769A1.9231,1.9231,0,0,1,61,12.8814V59.0352a1.9231,1.9231,0,0,1-1.9231,1.9231H12.9231A1.9231,1.9231,0,0,1,11,59.0352V12.8813A1.923,1.923,0,0,1,12.923,10.9583Z"/>
    <rect x="16" y="4" rx="2.2537" width="40" height="64" fill="none" stroke="#00a5ff" stroke-miterlimit="10" stroke-width="0.1"/>
    <rect x="16" y="4" rx="2.2537" width="40" height="64" transform="translate(72) rotate(90)" fill="none" stroke="#00a5ff" stroke-miterlimit="10" stroke-width="0.1"/>
    <circle cx="36" cy="36" r="29" fill="none" stroke="#00a5ff" stroke-miterlimit="10" stroke-width="0.1"/>
  </g>
  <g id="color">
    <rect x="17" y="33.13" width="34.001" height="8.7" fill="#FFFFFF" stroke="none"/>
    <rect x="50.9993" y="33.06" width="4.0017" height="8.8" fill="#9B9B9A" stroke="none"/>
    <rect x="17" y="34" width="7" height="7" fill="#f1b31c" stroke="none"/>
    <rect x="32.4645" y="4.1802" width="7.0711" height="63.6396" transform="matrix(0.7071 -0.7071 0.7071 0.7071 -14.9117 36)" fill="#ea5a47" stroke="none" stroke-linecap="round" stroke-linejoin="round" stroke-miterlimit="10" stroke-width="2"/>
  </g>
  <g id="hair"/>
  <g id="skin"/>
  <g id="skin-shadow"/>
  <g id="line">
    <polyline fill="none" stroke="#000000" stroke-linecap="round" stroke-linejoin="round" stroke-miterlimit="10" stroke-width="1.99" points="51.001,40.9648 51.001,33.9648 44,33.9648"/>
    <polyline fill="none" stroke="#000000" stroke-linecap="round" stroke-linejoin="round" stroke-miterlimit="10" stroke-width="1.99" points="22.9583,33.9648 17,33.9648 17.001,40.9648 30,40.9648"/>
    <line x1="55.001" x2="55.001" y1="34" y2="41" fill="none" stroke="#000000" stroke-linecap="round" stroke-linejoin="round" stroke-miterlimit="10" stroke-width="1.99"/>
    <path fill="none" stroke="#000000" stroke-linecap="round" stroke-linejoin="round" stroke-miterlimit="10" stroke-width="1.99" d="M49.001,24c0,1.6572,1.3428,3,3,3c1.6572,0,3,1.3428,3,3"/>
    <rect x="32.4645" y="4.1802" width="7.0711" height="63.6396" transform="matrix(0.7071 -0.7071 0.7071 0.7071 -14.9117 36)" fill="none" stroke="#000000" stroke-linecap="round" stroke-linejoin="round" stroke-miterlimit="10" stroke-width="2"/>
  </g>
</svg>
