<svg id="emoji" viewBox="0 0 72 72" xmlns="http://www.w3.org/2000/svg">
  <g id="grid">
    <path fill="#b3b3b3" d="M68,4V68H4V4H68m4-4H0V72H72V0Z"/>
    <path fill="none" stroke="#00a5ff" stroke-miterlimit="10" stroke-width="0.1" d="M12.923,10.9583H59.0769A1.9231,1.9231,0,0,1,61,12.8814V59.0352a1.9231,1.9231,0,0,1-1.9231,1.9231H12.9231A1.9231,1.9231,0,0,1,11,59.0352V12.8813a1.923,1.923,0,0,1,1.923-1.923Z"/>
    <rect x="16" y="4" rx="2.2537" ry="2.2537" width="40" height="64" fill="none" stroke="#00a5ff" stroke-miterlimit="10" stroke-width="0.1"/>
    <rect x="16" y="4" rx="2.2537" ry="2.2537" width="40" height="64" transform="translate(72) rotate(90)" fill="none" stroke="#00a5ff" stroke-miterlimit="10" stroke-width="0.1"/>
    <circle cx="36" cy="36" r="29" fill="none" stroke="#00a5ff" stroke-miterlimit="10" stroke-width="0.1"/>
  </g>
  <g id="color">
    <circle cx="36" cy="36" r="23" fill="#f4aa41"/>
  </g>
  <g id="line">
    <ellipse cx="35.96" cy="35.89" rx="3.281" ry="3.281" stroke="#000" stroke-miterlimit="10" stroke-width="1.25"/>
    <path stroke="#000" stroke-miterlimit="10" stroke-width="1.254" d="m 23.09 28.58 a 14.76 14.76 0 0 1 3.496 -4.097 l 5.791 6.957 a 5.733 5.733 0 0 0 -2.167 3.753 l -8.921 -1.537 a 14.76 14.76 0 0 1 1.8 -5.076 z"/>
    <path stroke="#000" stroke-miterlimit="10" stroke-width="1.254" d="m 48.91 28.58 a 14.76 14.76 0 0 1 1.8 5.076 l -8.921 1.537 a 5.733 5.733 0 0 0 -2.167 -3.753 l 5.791 -6.957 a 14.76 14.76 0 0 1 3.496 4.097 z"/>
    <path stroke="#000" stroke-miterlimit="10" stroke-width="1.254" d="m 36 50.87 a 14.76 14.76 0 0 1 -5.296 -0.9794 l 3.129 -8.494 a 5.733 5.733 0 0 0 4.333 0 l 3.129 8.494 a 14.76 14.76 0 0 1 -5.296 0.9794 z"/>
    <circle cx="36" cy="36" r="23" fill="none" stroke="#000" stroke-linecap="round" stroke-linejoin="round" stroke-width="2"/>
  </g>
</svg>
