<svg id="emoji" viewBox="0 0 72 72" xmlns="http://www.w3.org/2000/svg">
  <g id="grid">
    <path fill="#b3b3b3" d="M68,4V68H4V4H68m4-4H0V72H72V0Z"/>
    <path fill="none" stroke="#00a5ff" stroke-miterlimit="10" stroke-width="0.1" d="M12.923,10.9583H59.0769A1.9231,1.9231,0,0,1,61,12.8814V59.0352a1.9231,1.9231,0,0,1-1.9231,1.9231H12.9231A1.9231,1.9231,0,0,1,11,59.0352V12.8813a1.923,1.923,0,0,1,1.923-1.923Z"/>
    <rect x="16" y="4" rx="2.2537" ry="2.2537" width="40" height="64" fill="none" stroke="#00a5ff" stroke-miterlimit="10" stroke-width="0.1"/>
    <rect x="16" y="4" rx="2.2537" ry="2.2537" width="40" height="64" transform="rotate(90 36 36)" fill="none" stroke="#00a5ff" stroke-miterlimit="10" stroke-width="0.1"/>
    <circle cx="36" cy="36" r="29" fill="none" stroke="#00a5ff" stroke-miterlimit="10" stroke-width="0.1"/>
  </g>
  <g id="color">
    <circle cx="35.6649" cy="38.623" r="5.2495" fill="#f4aa41"/>
    <path fill="#f4aa41" d="M15.2068,50.4344a23.5562,23.5562,0,0,0,5.5781,6.5366l9.24-11.1a9.1461,9.1461,0,0,1-3.457-5.9876l-14.2329,2.452A23.5538,23.5538,0,0,0,15.2068,50.4344Z"/>
    <path fill="#f4aa41" d="M56.1229,50.4344a23.5561,23.5561,0,0,0,2.8718-8.0991l-14.2329-2.452a9.1472,9.1472,0,0,1-3.457,5.9876l9.24,11.1A23.5562,23.5562,0,0,0,56.1229,50.4344Z"/>
    <path fill="#f4aa41" d="M35.6649,15a23.5552,23.5552,0,0,0-8.45,1.5626l4.9929,13.5521a9.1471,9.1471,0,0,1,6.9139,0l4.9929-13.5521A23.5546,23.5546,0,0,0,35.6649,15Z"/>
  </g>
  <g id="line">
    <circle cx="35.6649" cy="38.623" r="5.2495" fill="none" stroke="#000" stroke-miterlimit="10" stroke-width="2"/>
    <path fill="none" stroke="#000" stroke-miterlimit="10" stroke-width="2" d="M15.2068,50.4344a23.5562,23.5562,0,0,0,5.5781,6.5366l9.24-11.1a9.1461,9.1461,0,0,1-3.457-5.9876l-14.2329,2.452A23.5538,23.5538,0,0,0,15.2068,50.4344Z"/>
    <path fill="none" stroke="#000" stroke-miterlimit="10" stroke-width="2" d="M56.1229,50.4344a23.5561,23.5561,0,0,0,2.8718-8.0991l-14.2329-2.452a9.1472,9.1472,0,0,1-3.457,5.9876l9.24,11.1A23.5562,23.5562,0,0,0,56.1229,50.4344Z"/>
    <path fill="none" stroke="#000" stroke-miterlimit="10" stroke-width="2" d="M35.6649,15a23.5552,23.5552,0,0,0-8.45,1.5626l4.9929,13.5521a9.1471,9.1471,0,0,1,6.9139,0l4.9929-13.5521A23.5546,23.5546,0,0,0,35.6649,15Z"/>
  </g>
</svg>
