<svg id="emoji" xmlns="http://www.w3.org/2000/svg" viewBox="0 0 72 72">
  <g id="grid">
    <path d="M68,4V68H4V4H68m4-4H0V72H72V0Z" fill="#b3b3b3"/>
    <path d="M12.923,10.9583H59.0769A1.9231,1.9231,0,0,1,61,12.8814V59.0352a1.9231,1.9231,0,0,1-1.9231,1.9231H12.9231A1.9231,1.9231,0,0,1,11,59.0352V12.8813A1.923,1.923,0,0,1,12.923,10.9583Z" fill="none" stroke="#00a5ff" stroke-miterlimit="10" stroke-width="0.1"/>
    <rect x="16" y="4" width="40" height="64" rx="2.2537" fill="none" stroke="#00a5ff" stroke-miterlimit="10" stroke-width="0.1"/>
    <rect x="16" y="4" width="40" height="64" rx="2.2537" transform="translate(72) rotate(90)" fill="none" stroke="#00a5ff" stroke-miterlimit="10" stroke-width="0.1"/>
    <circle cx="36" cy="36" r="29" fill="none" stroke="#00a5ff" stroke-miterlimit="10" stroke-width="0.1"/>
  </g>
  <g id="color">
    <path fill="#ea5a47" stroke="none" stroke-width="2" stroke-linecap="round" stroke-linejoin="round" stroke-miterlimit="10" d="M36,11c-13.8066,0-25,11.1926-25,25c0,13.8066,11.1934,25,25,25c13.8065,0,25-11.1934,25-25C61,22.1926,49.8065,11,36,11z"/>
    <path fill="#FFFFFF" stroke="none" stroke-width="2" stroke-linecap="round" stroke-linejoin="round" stroke-miterlimit="10" d="M55.5195,39.4297c0.1986-1.1263,0.3081-2.2831,0.3081-3.4659c0-1.171-0.1078-2.316-0.3014-3.4306H16.4738 c-0.1936,1.1146-0.3014,2.2596-0.3014,3.4306c0,1.1828,0.1095,2.3396,0.3081,3.4659H55.5195z"/>
  </g>
  <g id="hair"/>
  <g id="skin"/>
  <g id="skin-shadow"/>
  <g id="line">
    <path fill="none" stroke="#000000" stroke-width="2" stroke-linecap="round" stroke-linejoin="round" stroke-miterlimit="10" d="M36,11c-13.8066,0-25,11.1926-25,25c0,13.8066,11.1934,25,25,25c13.8065,0,25-11.1934,25-25C61,22.1926,49.8065,11,36,11z"/>
    <path fill="none" stroke="#000000" stroke-width="2" stroke-linecap="round" stroke-linejoin="round" stroke-miterlimit="10" d="M55.5195,39.4297c0.1986-1.1263,0.3081-2.2831,0.3081-3.4659c0-1.171-0.1078-2.316-0.3014-3.4306H16.4738 c-0.1936,1.1146-0.3014,2.2596-0.3014,3.4306c0,1.1828,0.1095,2.3396,0.3081,3.4659H55.5195z"/>
  </g>
</svg>
