<svg id="emoji" xmlns="http://www.w3.org/2000/svg" viewBox="0 0 72 72">
  <title>1F305</title>
  <g id="grid">
    <path d="M68,4.079v64H4v-64H68m4-4H0v72H72v-72Z" fill="#b3b3b3"/>
    <rect x="11" y="10.9168" width="50" height="50" rx="1.9231" ry="1.9231" fill="none" stroke="#00a5ff" stroke-miterlimit="10" stroke-width="0.1"/>
    <rect x="16" y="4.079" width="40" height="63.8794" rx="2.2537" ry="2.2537" fill="none" stroke="#00a5ff" stroke-miterlimit="10" stroke-width="0.0999"/>
    <rect x="16" y="3.9585" width="40" height="64" rx="2.2537" ry="2.2537" transform="translate(71.9585 -0.0416) rotate(90)" fill="none" stroke="#00a5ff" stroke-miterlimit="10" stroke-width="0.1"/>
    <circle cx="36" cy="35.9585" r="29" fill="none" stroke="#00a5ff" stroke-miterlimit="10" stroke-width="0.1"/>
  </g>
  <g id="color">
    <rect x="4.0003" y="47.2922" width="64" height="20.7868" fill="#65b3e2"/>
    <rect x="4.0003" y="4.079" width="64" height="43.2132" fill="#e0702e"/>
    <polyline points="68 4.079 60 4.079 44 35.079 48 38.079 65 18.079 68 14.848" fill="#f2a94c"/>
    <polygon points="4 17.641 6.019 19.554 24.55 38.145 28.3 34.837 9 4.079 4 4.079 4 17.641" fill="#f2a94c"/>
    <polyline points="30.879 4.079 33.348 32.454 38.331 32.866 42.08 6.886 42.566 4.079" fill="#f2a94c"/>
    <polyline points="68 34.719 46.068 41.718 46.775 46.668 68 44.947" fill="#f2a94c"/>
    <polyline points="4 34.899 25.933 41.898 25.226 46.848 4 45.127" fill="#f2a94c"/>
    <path d="M21.48,47.2923a15.6793,15.6793,0,1,1,29.04.0006" fill="#fbe844"/>
  </g>
  <g id="line">
    <polygon points="67.964 24.049 68 47.292 49.932 47.292 55.019 37.008 58.641 33.433 59.643 27.783 60.927 24.904 67.964 24.049" fill="#fff"/>
    <polygon points="4.037 24.049 4 47.292 21.48 47.292 18.327 36.079 14.848 32.091 14.967 28.846 11.073 24.904 4.037 24.049" fill="#fff"/>
    <path d="M8.48,32.188a7.7528,7.7528,0,0,1,9.8478,4.82" fill="none" stroke="#000" stroke-linecap="round" stroke-miterlimit="10" stroke-width="2"/>
    <path d="M5,24.0262a7.7528,7.7528,0,0,1,9.8478,4.82" fill="none" stroke="#000" stroke-linecap="round" stroke-miterlimit="10" stroke-width="2"/>
    <path d="M54.4754,40.5834a7.7527,7.7527,0,0,1,8.3317-7.127" fill="none" stroke="#000" stroke-linecap="round" stroke-miterlimit="10" stroke-width="2"/>
    <path d="M58.6412,30.7561a7.7529,7.7529,0,0,1,8.3317-7.1271" fill="none" stroke="#000" stroke-linecap="round" stroke-miterlimit="10" stroke-width="2"/>
    <line x1="5.1239" y1="47.2929" x2="66.8767" y2="47.2929" fill="none" stroke="#000" stroke-linecap="round" stroke-miterlimit="10" stroke-width="2"/>
    <path d="M20.49,43.9627a15.6793,15.6793,0,1,1,30.7746.2534" fill="none" stroke="#000" stroke-linecap="round" stroke-miterlimit="10" stroke-width="2"/>
  </g>
</svg>
