<svg id="emoji" xmlns="http://www.w3.org/2000/svg" viewBox="0 0 72 72">
  <g id="grid">
    <path d="M68,4V68H4V4H68m4-4H0V72H72V0Z" fill="#b3b3b3"></path>
    <path d="M12.923,10.9583H59.0769A1.9231,1.9231,0,0,1,61,12.8814V59.0352a1.9231,1.9231,0,0,1-1.9231,1.9231H12.9231A1.9231,1.9231,0,0,1,11,59.0352V12.8813A1.923,1.923,0,0,1,12.923,10.9583Z" fill="none" stroke="#00a5ff" stroke-miterlimit="10" stroke-width="0.1"></path>
    <rect x="16" y="4" width="40" height="64" rx="2.2537" fill="none" stroke="#00a5ff" stroke-miterlimit="10" stroke-width="0.1"></rect>
    <rect x="16" y="4" width="40" height="64" rx="2.2537" transform="translate(72) rotate(90)" fill="none" stroke="#00a5ff" stroke-miterlimit="10" stroke-width="0.1"></rect>
    <circle cx="36" cy="36" r="29" fill="none" stroke="#00a5ff" stroke-miterlimit="10" stroke-width="0.1"></circle>
  </g>
  <g id="color">
    <circle fill="none" stroke="#FCEA2B" stroke-width="1.8" stroke-miterlimit="10" cx="34.0378" cy="38.6638" r="22.9998"></circle>
    <path fill="#FCEA2B" stroke="none" stroke-width="2" stroke-linecap="round" stroke-linejoin="round" stroke-miterlimit="10" d="
		M58.4422,45.7324c-0.2143,1.636-1.9061,2.7858-1.9061,2.7858c-2.3855,1.4362-9.1328-0.7961-9.1328-0.7961
		c-4.9712-1.2549-12.0651-0.6709-12.0651-0.6709 M58.4419,45.5718c0.0273-1.8145-1.4933-3.1744-1.4933-3.1744
		c-2.2253-1.579-9.1884-0.046-9.1884-0.046c-5.3852,0.6915-12.0826-0.4781-12.0826-0.4781"></path>
    <polygon fill="#fcea2b" points="57.4142,45.7989 54.74,46.006 54.74,44.934 57.44,45.41 57.44,45.6711 	" stroke="none"></polygon>
  </g>
  <g id="hair">
  </g>
  <g id="skin">
  </g>
  <g id="skin-shadow">
  </g>
  <g id="line">
    <polygon id="SVGID_1_" points="33.8655,15.664 25.2357,17.3437 19.936,20.3642 15.0453,25.4432 11.6157,32.7937 11.6157,45.1334 
				17.2152,54.5338 25.2357,59.9839 33.8655,61.6636 41.0451,60.5132 48.755,56.1832 53.8653,50.0241 56.8653,40.8142 
				56.1153,32.8337 52.3058,24.9237 48.0958,20.6035 40.8459,16.7441 			" fill="#000000" stroke="none"></polygon>
    <path fill="none" stroke="#000000" stroke-width="2" stroke-linecap="round" stroke-linejoin="round" stroke-miterlimit="10" d="
		M18.9869,29.9408c0.851-1.3097,2.1554-2.2567,3.6642-2.659c1.4662-0.5614,3.0882-0.5534,4.5496,0.0179"></path>
    <path fill="none" stroke="#000000" stroke-width="2" stroke-linecap="round" stroke-linejoin="round" stroke-miterlimit="10" d="
		M48.5963,28.9362c-1.3537-2.8907-4.4525-4.543-7.6074-4.056"></path>
    <path fill="none" stroke="#000000" stroke-width="2" stroke-linecap="round" stroke-linejoin="round" stroke-miterlimit="10" d="
		M57.001,37.3631C56.3266,25.2653,46.303,15.664,34.0374,15.664c-12.703,0-22.9998,10.2968-22.9998,22.9998
		c0,12.7021,10.2968,22.9998,22.9998,22.9998c7.0803,0,13.4135-3.1996,17.6326-8.2316"></path>
    <circle cx="25.2868" cy="34.6731" r="2.7493" fill="#000000" stroke="none"></circle>
    <circle cx="42.5366" cy="34.6731" r="2.7493" fill="#000000" stroke="none"></circle>
    <path fill="none" stroke="#000000" stroke-width="2" stroke-linecap="round" stroke-linejoin="round" stroke-miterlimit="10" d="
		M37.76,53.2994c0,0-5.7186-1.8346-8.8718,1.5503"></path>
    <path fill="none" stroke="#000000" stroke-width="2" stroke-linecap="round" stroke-linejoin="round" stroke-miterlimit="10" d="
		M58.4422,45.7324c-0.2143,1.636-1.9061,2.7858-1.9061,2.7858c-2.3855,1.4362-9.1328-0.7961-9.1328-0.7961
		c-4.9712-1.2549-12.0651-0.6709-12.0651-0.6709 M58.4419,45.5718c0.0273-1.8145-1.4933-3.1744-1.4933-3.1744
		c-2.2253-1.579-9.1884-0.046-9.1884-0.046c-5.3852,0.6915-12.0826-0.4781-12.0826-0.4781"></path>
  </g>
</svg>