<svg id="emoji" viewBox="0 0 72 72" xmlns="http://www.w3.org/2000/svg">
  <g id="grid">
    <path fill="#B3B3B3" d="M68,4v64H4V4H68 M72,0H0v72h72V0z"/>
    <path fill="none" stroke="#00A5FF" stroke-miterlimit="10" stroke-width="0.1" d="M12.9231,10.9583h46.1538 c1.0621,0,1.9231,0.861,1.9231,1.9231v46.1538c0,1.0621-0.861,1.9231-1.9231,1.9231H12.9231c-1.0621,0-1.9231-0.861-1.9231-1.9231 V12.8814C11,11.8193,11.861,10.9583,12.9231,10.9583z"/>
    <path fill="none" stroke="#00A5FF" stroke-miterlimit="10" stroke-width="0.1" d="M18.2537,4h35.4926C54.991,4,56,5.009,56,6.2537 v59.4926C56,66.991,54.991,68,53.7463,68H18.2537C17.009,68,16,66.991,16,65.7463V6.2537C16,5.009,17.009,4,18.2537,4z"/>
    <path fill="none" stroke="#00A5FF" stroke-miterlimit="10" stroke-width="0.1" d="M6.2537,16h59.4926 C66.991,16,68,17.009,68,18.2537v35.4926C68,54.991,66.991,56,65.7463,56H6.2537C5.009,56,4,54.991,4,53.7463V18.2537 C4,17.009,5.009,16,6.2537,16z"/>
    <circle cx="36" cy="36" r="29" fill="none" stroke="#00A5FF" stroke-miterlimit="10" stroke-width="0.1"/>
  </g>
  <g id="color">
    <circle cx="36" cy="36" r="23" fill="#FCEA2B"/>
    <polygon id="SVGID" fill="#EA5A47" points="38.254,51.023 41.277,49.677 42.446,48.234 42.764,46.624 39.065,46.669 29.097,46.669 30.411,49.677 33.57,51.023"/>
  </g>
  <g id="hair"/>
  <g id="skin"/>
  <g id="skin-shadow"/>
  <g id="line">
    <path fill="none" stroke="#000000" stroke-linecap="round" stroke-linejoin="round" stroke-width="2" d="M20.6481,30.0276 c0.4053-1.5015,1.3531-2.7994,2.66-3.6424c1.2184-0.9802,2.7586-1.4705,4.3194-1.3752"/>
    <path fill="none" stroke="#000000" stroke-linecap="round" stroke-linejoin="round" stroke-width="2" d="M51.0038,31.0873 c-2.2619-2.236-5.7272-2.7128-8.5089-1.1708"/>
    <path fill="none" stroke="#000000" stroke-linecap="round" stroke-linejoin="round" stroke-width="2" d="M42.7832,45.7687 c0,2.9371-2.308,5.2718-6.9345,5.2718s-6.9637-2.3419-6.9637-5.2718"/>
    <path fill="none" stroke="#000000" stroke-linecap="round" stroke-linejoin="round" stroke-width="2" d="M28.94,45.7687 c0,0,7.0471,2.52,13.75,0.0543"/>
    <path fill="none" stroke="#000000" stroke-linecap="round" stroke-linejoin="round" stroke-width="2" d="M47.0027,35.8605 c-0.8605-0.5508-1.8492-0.8688-2.8695-0.9229c-1.1043,0.0204-2.1903,0.2852-3.18,0.7754"/>
    <circle cx="28.0794" cy="35.3089" r="3"/>
    <circle cx="36" cy="36" r="23" fill="none" stroke="#000000" stroke-linecap="round" stroke-linejoin="round" stroke-width="2"/>
  </g>
</svg>
