<svg id="emoji" xmlns="http://www.w3.org/2000/svg" viewBox="0 0 72 72">
  <g id="grid">
    <path d="M68,4V68H4V4H68m4-4H0V72H72Z" fill="#b3b3b3"/>
    <rect x="11" y="10.9583" width="50" height="50" rx="1.9231" fill="none" stroke="#00a5ff" stroke-miterlimit="10" stroke-width="0.1"/>
    <rect x="16" y="4" width="40" height="64" rx="2.2537" fill="none" stroke="#00a5ff" stroke-miterlimit="10" stroke-width="0.1"/>
    <rect x="4" y="16" width="64" height="40" rx="2.2537" fill="none" stroke="#00a5ff" stroke-miterlimit="10" stroke-width="0.1"/>
    <circle cx="36" cy="36" r="29" fill="none" stroke="#00a5ff" stroke-miterlimit="10" stroke-width="0.1"/>
  </g>
  <g id="color">
    <circle cx="36" cy="36" r="23" fill="#fcea2b"/>
    <polygon id="SVGID" points="38.254 51.023 41.277 49.677 42.446 48.234 42.764 46.624 39.065 46.669 29.097 46.669 30.411 49.677 33.57 51.023 38.254 51.023" fill="#ea5a47"/>
  </g>
  <g id="hair"/>
  <g id="skin"/>
  <g id="skin-shadow"/>
  <g id="line">
    <path d="M20.6481,30.0276a6.2827,6.2827,0,0,1,2.66-3.6424A6.28,6.28,0,0,1,27.6275,25.01" fill="none" stroke="#000" stroke-linecap="round" stroke-linejoin="round" stroke-width="2"/>
    <path d="M51.0038,31.0873a7.1632,7.1632,0,0,0-8.5089-1.1708" fill="none" stroke="#000" stroke-linecap="round" stroke-linejoin="round" stroke-width="2"/>
    <path d="M42.7832,45.7687c0,2.9371-2.308,5.2718-6.9345,5.2718s-6.9637-2.3419-6.9637-5.2718" fill="none" stroke="#000" stroke-linecap="round" stroke-linejoin="round" stroke-width="2"/>
    <path d="M28.94,45.7687s7.0471,2.52,13.75.0543" fill="none" stroke="#000" stroke-linecap="round" stroke-linejoin="round" stroke-width="2"/>
    <path d="M47.0027,35.8605a5.9024,5.9024,0,0,0-2.8695-.9229,7.4771,7.4771,0,0,0-3.18.7754" fill="none" stroke="#000" stroke-linecap="round" stroke-linejoin="round" stroke-width="2"/>
    <circle cx="28.0794" cy="35.3089" r="2.5556"/>
    <circle cx="36" cy="36" r="23" fill="none" stroke="#000" stroke-linecap="round" stroke-linejoin="round" stroke-width="2"/>
  </g>
</svg>
