<svg id="emoji" viewBox="0 0 72 72" xmlns="http://www.w3.org/2000/svg">
  <g id="grid">
    <path fill="#B3B3B3" d="M68,4v64H4V4H68 M72,0H0v72h72V0z"/>
    <path fill="none" stroke="#00A5FF" stroke-miterlimit="10" stroke-width="0.1" d="M12.9231,10.9583h46.1538 c1.0621,0,1.9231,0.861,1.9231,1.9231v46.1538c0,1.0621-0.861,1.9231-1.9231,1.9231H12.9231c-1.0621,0-1.9231-0.861-1.9231-1.9231 V12.8814C11,11.8193,11.861,10.9583,12.9231,10.9583z"/>
    <path fill="none" stroke="#00A5FF" stroke-miterlimit="10" stroke-width="0.1" d="M18.2537,4h35.4926C54.991,4,56,5.009,56,6.2537 v59.4926C56,66.991,54.991,68,53.7463,68H18.2537C17.009,68,16,66.991,16,65.7463V6.2537C16,5.009,17.009,4,18.2537,4z"/>
    <path fill="none" stroke="#00A5FF" stroke-miterlimit="10" stroke-width="0.1" d="M6.2537,16h59.4926 C66.991,16,68,17.009,68,18.2537v35.4926C68,54.991,66.991,56,65.7463,56H6.2537C5.009,56,4,54.991,4,53.7463V18.2537 C4,17.009,5.009,16,6.2537,16z"/>
    <circle cx="36" cy="36" r="29" fill="none" stroke="#00A5FF" stroke-miterlimit="10" stroke-width="0.1"/>
  </g>
  <g id="color">
    <circle cx="36" cy="36" r="23" fill="#FCEA2B"/>
  </g>
  <g id="hair"/>
  <g id="skin"/>
  <g id="skin-shadow"/>
  <g id="line">
    <circle cx="36" cy="36" r="23" fill="none" stroke="#000000" stroke-linecap="round" stroke-linejoin="round" stroke-width="2"/>
    <path fill="none" stroke="#000000" stroke-linecap="round" stroke-linejoin="round" stroke-width="2" d="M26.1851,27.0707 c2.8995-1.6362,6.2482-2.5699,9.8149-2.5699s6.9153,0.9336,9.8149,2.5699"/>
    <path d="M42,41c0-1.6568,1.3448-3,3-3c1.6553,0,3,1.3433,3,3c0,1.6552-1.3447,3-3,3C43.3448,44,42,42.6552,42,41"/>
    <path d="M24,41c0-1.6568,1.3447-3,3-3s3,1.3433,3,3c0,1.6552-1.3447,3-3,3S24,42.6552,24,41"/>
  </g>
</svg>
