<svg id="emoji" viewBox="0 0 72 72" xmlns="http://www.w3.org/2000/svg">
  <g id="grid">
    <path fill="#b3b3b3" d="M68,4V68H4V4H68m4-4H0V72H72V0Z"/>
    <path fill="none" stroke="#00a5ff" stroke-miterlimit="10" stroke-width="0.1" d="M12.923,10.9583H59.0769A1.9231,1.9231,0,0,1,61,12.8814V59.0352a1.9231,1.9231,0,0,1-1.9231,1.9231H12.9231A1.9231,1.9231,0,0,1,11,59.0352V12.8813A1.923,1.923,0,0,1,12.923,10.9583Z"/>
    <rect x="16" y="4" rx="2.2537" width="40" height="64" fill="none" stroke="#00a5ff" stroke-miterlimit="10" stroke-width="0.1"/>
    <rect x="16" y="4" rx="2.2537" width="40" height="64" transform="translate(72) rotate(90)" fill="none" stroke="#00a5ff" stroke-miterlimit="10" stroke-width="0.1"/>
    <circle cx="36" cy="36" r="29" fill="none" stroke="#00a5ff" stroke-miterlimit="10" stroke-width="0.1"/>
  </g>
  <g id="color">
    <path fill="#9B9B9A" stroke="#9B9B9A" stroke-miterlimit="10" stroke-width="2" d="M34.3553,28.1713V9.1147c0,0,1.3139-2.3918,3,0 v19.0566"/>
    <path fill="#9B9B9A" stroke="none" stroke-miterlimit="10" stroke-width="2" d="M36.0455,53.8657l-10.4464,0 c-0.678,0-1.285,0.3865-1.6097,0.9818c-3.4584,6.3419-8.0837,7.8418-9.3408,8.0783c-0.1622,0.0305-0.3206,0.0576-0.4855,0.0624 C-0.2411,63.4131,7.0666,44.424,7.0666,44.424c2.0845-6.0901,7.1142-13.241,8.808-14.8908 c0.3487-0.3396,0.8102-0.5286,1.2969-0.5286h13.0964h11.4641h13.0964c0.4867,0,0.9483,0.189,1.2969,0.5286 c1.6938,1.6498,6.7235,8.8007,8.808,14.8908c0,0,7.3077,18.9891-7.0965,18.5642c-0.165-0.0049-0.3233-0.0319-0.4855-0.0624 c-1.2571-0.2365-5.8824-1.7364-9.3408-8.0783c-0.3246-0.5953-0.9316-0.9818-1.6097-0.9818l-10.4464,0"/>
  </g>
  <g id="hair"/>
  <g id="skin"/>
  <g id="skin-shadow"/>
  <g id="line">
    <path fill="none" stroke="#000000" stroke-miterlimit="10" stroke-width="2" d="M36.0455,53.8657l-10.4464,0 c-0.678,0-1.285,0.3865-1.6097,0.9818c-3.4584,6.3419-8.0837,7.8418-9.3408,8.0783c-0.1622,0.0305-0.3206,0.0576-0.4855,0.0624 C-0.2411,63.4131,7.0666,44.424,7.0666,44.424c2.0845-6.0901,7.1142-13.241,8.808-14.8908 c0.3487-0.3396,0.8102-0.5286,1.2969-0.5286h13.0964h11.4641h13.0964c0.4867,0,0.9483,0.189,1.2969,0.5286 c1.6938,1.6498,6.7235,8.8007,8.808,14.8908c0,0,7.3077,18.9891-7.0965,18.5642c-0.165-0.0049-0.3233-0.0319-0.4855-0.0624 c-1.2571-0.2365-5.8824-1.7364-9.3408-8.0783c-0.3246-0.5953-0.9316-0.9818-1.6097-0.9818l-10.4464,0"/>
    <polygon fill="#000000" stroke="#000000" stroke-linecap="round" stroke-linejoin="round" stroke-miterlimit="10" stroke-width="2" points="24.0106,38.3755 24.0106,39.1856 19.7963,39.1856 14.6472,39.1856 14.6472,38.3755 19.6921,38.3755"/>
    <polygon fill="#000000" stroke="#000000" stroke-linecap="round" stroke-linejoin="round" stroke-miterlimit="10" stroke-width="2" points="18.9239,34.0989 19.7339,34.0989 19.7339,38.3132 19.7339,43.4622 18.9239,43.4622 18.9239,38.4174"/>
    <circle cx="30.25" cy="46" r="4" fill="#000000" stroke="none"/>
    <circle cx="41.75" cy="46" r="4" fill="#000000" stroke="none"/>
    <circle cx="48.6122" cy="38.7806" r="2" fill="#000000" stroke="none"/>
    <circle cx="57.0811" cy="38.7806" r="2" fill="#000000" stroke="none"/>
    <circle cx="52.8466" cy="42.5357" r="2" fill="#000000" stroke="none"/>
    <circle cx="52.8466" cy="35.0667" r="2" fill="#000000" stroke="none"/>
    <path fill="none" stroke="#000000" stroke-linecap="round" stroke-linejoin="round" stroke-miterlimit="10" stroke-width="2" d="M34.3553,25.0834V7.0572c0,0,0.5049-0.8693,1.2903-0.9914c0.4816-0.0748,1.0688,0.1313,1.7097,0.9914v18.0262"/>
  </g>
</svg>
