<svg id="emoji" xmlns="http://www.w3.org/2000/svg" viewBox="0 0 72 72">
  <g id="grid">
    <path d="M68,4V68H4V4H68m4-4H0V72H72V0Z" fill="#b3b3b3"></path>
    <path d="M12.923,10.9583H59.0769A1.9231,1.9231,0,0,1,61,12.8814V59.0352a1.9231,1.9231,0,0,1-1.9231,1.9231H12.9231A1.9231,1.9231,0,0,1,11,59.0352V12.8813A1.923,1.923,0,0,1,12.923,10.9583Z" fill="none" stroke="#00a5ff" stroke-miterlimit="10" stroke-width="0.1"></path>
    <rect x="16" y="4" width="40" height="64" rx="2.2537" fill="none" stroke="#00a5ff" stroke-miterlimit="10" stroke-width="0.1"></rect>
    <rect x="16" y="4" width="40" height="64" rx="2.2537" transform="translate(72) rotate(90)" fill="none" stroke="#00a5ff" stroke-miterlimit="10" stroke-width="0.1"></rect>
    <circle cx="36" cy="36" r="29" fill="none" stroke="#00a5ff" stroke-miterlimit="10" stroke-width="0.1"></circle>
  </g>
  <g id="color">
    <path fill="#3f3f3f" stroke="#3f3f3f" stroke-width="2" stroke-miterlimit="10" d="M50.1128,55.4692l-2.7648-2.7648
		c-0.21-0.21-0.4949-0.328-0.7919-0.328H22.983c-0.2839,0-0.5572,0.1078-0.7646,0.3016l-2.8312,2.6453"></path>
    <path fill="#3f3f3f" stroke="#3f3f3f" stroke-width="2" stroke-linecap="round" stroke-miterlimit="10" d="M20.4096,54.3543
		l-5.3974,5.0431c-0.7425,0.6938-0.2516,1.9383,0.7646,1.9383h39.4901c0.9978,0,1.4975-1.2064,0.7919-1.9119l-4.9236-4.9236"></path>
    <circle fill="#B399C8" stroke="none" stroke-width="2" stroke-linecap="round" stroke-linejoin="round" stroke-miterlimit="10" cx="36.0324" cy="32.8197" r="22.2164"></circle>
    <path fill="#8967AA" d="M58.25,33.0183c0,12.2649-9.9527,22.2176-22.2176,22.2176c11.5835-8.0426,15.0686-16.9118,14.5772-24.6081
		c-0.0112-0.2681-0.0335-0.5361-0.067-0.8042c-0.1675-1.7314-0.5362-3.3846-1.0612-4.9596
		c-0.067-0.2234-0.1451-0.4357-0.2234-0.6479c-0.7149-1.9883-1.6532-3.809-2.7367-5.4399
		c-0.1564-0.2569-0.3239-0.4915-0.4915-0.7261c-0.6479-0.9159-1.3404-1.7648-2.0665-2.5356
		c-0.1564-0.1788-0.3352-0.3575-0.5027-0.525c-0.2011-0.2122-0.4133-0.4245-0.6255-0.6143
		c-0.1899-0.1787-0.3798-0.3463-0.5585-0.5027c-0.1117-0.1005-0.2122-0.1899-0.324-0.2793
		c-0.1787-0.1563-0.3686-0.3015-0.5473-0.4356c-0.8378-0.6479-1.6644-1.1729-2.4575-1.5639
		c-0.1452-0.067-0.2904-0.134-0.4245-0.1899c-0.3351-0.1452-0.659-0.2681-0.9718-0.3575c-0.1787-0.0558-0.3575-0.1006-0.525-0.134
		c-0.0894-0.0224-0.1788-0.0335-0.2681-0.0447c-0.1117-0.0223-0.2122-0.0335-0.3128-0.0447h0.0894
		C48.5654,11.0911,58.25,20.9209,58.25,33.0183z" stroke="none"></path>
  </g>
  <g id="hair">
  </g>
  <g id="skin">
  </g>
  <g id="skin-shadow">
  </g>
  <g id="line">
    <path fill="#000000" stroke="#000000" stroke-width="2" stroke-linecap="round" stroke-miterlimit="10" d="M55.2676,61.3348
		H42.2318v-9.9303h5.3506c0.2904,0,0.5808,0.1229,0.793,0.3351l2.7591,2.759l4.926,4.9261
		C56.7643,60.1285,56.2617,61.3348,55.2676,61.3348z"></path>
    <circle fill="none" stroke="#000000" stroke-width="2" stroke-linecap="round" stroke-linejoin="round" stroke-miterlimit="10" cx="36.0324" cy="32.8197" r="22.2164"></circle>
    <circle fill="none" stroke="#000000" stroke-width="2" stroke-linecap="round" stroke-linejoin="round" stroke-miterlimit="10" cx="36.0324" cy="32.8197" r="22.2164"></circle>
    <path fill="none" stroke="#000000" stroke-width="2" stroke-linecap="round" stroke-miterlimit="10" d="M18.0281,56.5795
		l-3.0159,2.8179c-0.7425,0.6938-0.2516,1.9383,0.7646,1.9383h39.4901c0.9978,0,1.4975-1.2064,0.7919-1.9119l-2.8443-2.8443"></path>
  </g>
</svg>