<?xml version="1.0" encoding="utf-8"?>
<!-- Generator: Adobe Illustrator 22.0.1, SVG Export Plug-In . SVG Version: 6.00 Build 0)  -->
<svg version="1.1" id="emoji" xmlns="http://www.w3.org/2000/svg" xmlns:xlink="http://www.w3.org/1999/xlink" x="0px" y="0px"
	 viewBox="0 0 72 72" enable-background="new 0 0 72 72" xml:space="preserve">
<g id="grid">
	<path fill="#B3B3B3" d="M68,4v64H4V4H68 M72,0H0v72h72V0z"/>
	<path fill="none" stroke="#00A5FF" stroke-width="0.1" stroke-miterlimit="10" d="M12.9,11h46.2c1.1,0,1.9,0.9,1.9,1.9l0,0V59
		c0,1.1-0.9,1.9-1.9,1.9H12.9C11.9,61,11,60.1,11,59l0,0V12.9C11,11.8,11.9,11,12.9,11L12.9,11z"/>
	<path fill="none" stroke="#00A5FF" stroke-width="0.1" stroke-miterlimit="10" d="M18.3,4h35.5C55,4,56,5,56,6.3v59.5
		c0,1.2-1,2.3-2.3,2.3H18.3C17,68,16,67,16,65.7V6.3C16,5,17,4,18.3,4z"/>
	<path fill="none" stroke="#00A5FF" stroke-width="0.1" stroke-miterlimit="10" d="M68,18.3v35.5c0,1.2-1,2.3-2.3,2.3H6.3
		C5,56,4,55,4,53.7V18.3C4,17,5,16,6.3,16h59.5C67,16,68,17,68,18.3z"/>
	<circle fill="none" stroke="#00A5FF" stroke-width="0.1" stroke-miterlimit="10" cx="36" cy="36" r="29"/>
</g>
<g id="color">
	<path fill="#3F3F3F" d="M50.1,55.5l-2.8-2.8c-0.2-0.2-0.5-0.3-0.8-0.3l-23.4-1.9c-0.3,0-1.5,1.3-1.7,1.5l-2.5,2.4"/>
	<path fill="#3F3F3F" d="M19.9,53.4l-5.7,5.3c-0.7,0.7,0.5,2.6,1.5,2.6h39.5c1,0,1.5-1.2,0.8-1.9l-8.6-8.2"/>
	<circle fill="#B399C8" cx="36" cy="32.8" r="22.2"/>
	<path fill="#8967AA" d="M58.2,33c0,12.3-9.7,22.1-22,22.1c11.6-8,14.8-16.8,14.4-24.5c0-0.3,0-0.5-0.1-0.8c-0.2-1.7-0.5-3.4-1.1-5
		c-0.1-0.2-0.1-0.4-0.2-0.6c-0.7-2-1.7-3.8-2.7-5.4c-0.2-0.3-0.3-0.5-0.5-0.7c-0.6-0.9-1.3-1.8-2.1-2.5c-0.2-0.2-0.3-0.4-0.5-0.5
		c-0.2-0.2-0.4-0.4-0.6-0.6c-0.2-0.2-0.4-0.3-0.6-0.5c-0.1-0.1-0.2-0.2-0.3-0.3c-0.2-0.2-0.4-0.3-0.5-0.4c-0.8-0.6-1.7-1.2-2.5-1.6
		c-0.1-0.1-0.3-0.1-0.4-0.2c-0.3-0.1-0.7-0.3-1-0.4C37.3,11,37.1,11,37,11s-0.2,0-0.3,0s-0.2,0-0.3,0h0.1
		C48.6,11.1,58.2,20.9,58.2,33z"/>
	<path fill="none" stroke="#FFFFFF" stroke-width="2" stroke-linecap="round" stroke-linejoin="round" stroke-miterlimit="10" d="
		M19.4,30.7c0.1-0.5,0.2-1.1,0.3-1.6"/>
	<path fill="none" stroke="#FFFFFF" stroke-width="2" stroke-linecap="round" stroke-linejoin="round" stroke-miterlimit="10" d="
		M21.4,24.6c1.5-2.7,3.6-4.9,6.2-6.4"/>
	<path d="M48.7,50.8c0.1,0,0.2,0.1,0.3,0.2l2.8,2.8l2.1,2.1l2.8,2.8c0.7,0.7-0.5,2.6-1.5,2.6h-13v-7.2"/>
</g>
<g id="hair">
</g>
<g id="skin">
</g>
<g id="skin-shadow">
</g>
<g id="line">
	
		<circle fill="none" stroke="#000000" stroke-width="2" stroke-linecap="round" stroke-linejoin="round" stroke-miterlimit="10" cx="36" cy="32.8" r="22.2"/>
	
		<circle fill="none" stroke="#000000" stroke-width="2" stroke-linecap="round" stroke-linejoin="round" stroke-miterlimit="10" cx="36" cy="32.8" r="22.2"/>
	<path fill="none" stroke="#000000" stroke-width="2" stroke-linecap="round" stroke-miterlimit="10" d="M18,56.6l-3,2.8
		c-0.7,0.7-0.3,1.9,0.8,1.9h39.5c1,0,1.5-1.2,0.8-1.9l-2.8-2.8"/>
	<path fill="none" stroke="#000000" stroke-width="2" stroke-linecap="round" stroke-linejoin="round" stroke-miterlimit="10" d="
		M53.2,56.6l2.8,2.8c0.7,0.7,0.2,1.9-0.8,1.9"/>
</g>
</svg>
