<svg id="emoji" xmlns="http://www.w3.org/2000/svg" viewBox="0 0 72 72">
  <g id="grid">
    <path d="M68,4V68H4V4H68m4-4H0V72H72V0Z" fill="#b3b3b3"/>
    <path d="M12.923,10.9583H59.0769A1.9231,1.9231,0,0,1,61,12.8814V59.0352a1.9231,1.9231,0,0,1-1.9231,1.9231H12.9231A1.9231,1.9231,0,0,1,11,59.0352V12.8813A1.923,1.923,0,0,1,12.923,10.9583Z" fill="none" stroke="#00a5ff" stroke-miterlimit="10" stroke-width="0.1"/>
    <rect x="16" y="4" width="40" height="64" rx="2.2537" fill="none" stroke="#00a5ff" stroke-miterlimit="10" stroke-width="0.1"/>
    <rect x="16" y="4" width="40" height="64" rx="2.2537" transform="translate(72 0) rotate(90)" fill="none" stroke="#00a5ff" stroke-miterlimit="10" stroke-width="0.1"/>
    <circle cx="36" cy="36" r="29" fill="none" stroke="#00a5ff" stroke-miterlimit="10" stroke-width="0.1"/>
  </g>
  <g id="color">
    <path d="M39.7792,57.8819H52.77V44.851c5.2976,0,11.6314,1.4,11.6314-6.1934,0-6.7613-6.3338-5.8535-11.6314-5.8535V19.5133H39.7792c1.8239-5.8157,1.8239-11.6314-4.9774-11.6314s-6.73,6.3338-6.73,11.6314H14.4016V33.5239c4.2433-1.5715,11.6314-4.4184,11.6314,5.1737s-8.48,6.5814-11.6314,5.1737V57.8819H26.3729c0-5.2976,0-12.383,7.213-12.3112C40.3686,45.6382,39.7792,52.5843,39.7792,57.8819Z" fill="#92d3f5"/>
    <path d="M39.0542,51.0992c1.7359,1.7359,1.11,4.1339,1.11,6.7827H52.77V43.8713c5.8157,1.0357,10.9968,3.6045,10.9968-5.2137,0-5.2976-4.9743-6.1934-10.2719-6.1934V19.8154H49.3788" fill="#61b2e4"/>
  </g>
  <g id="line">
    <polyline points="14.402 33.524 14.402 19.513 29.628 19.513" fill="none" stroke="#000" stroke-linecap="round" stroke-linejoin="round" stroke-width="2"/>
    <polyline points="28 57.882 14.402 57.882 14.402 43.871" fill="none" stroke="#000" stroke-linecap="round" stroke-linejoin="round" stroke-width="2"/>
    <polyline points="52.77 43.871 52.77 57.882 38.348 57.882" fill="none" stroke="#000" stroke-linecap="round" stroke-linejoin="round" stroke-width="2"/>
    <polyline points="39.976 19.513 52.77 19.513 52.77 33.524" fill="none" stroke="#000" stroke-linecap="round" stroke-linejoin="round" stroke-width="2"/>
    <g>
      <path d="M14.4016,33.5239c2.6813-2.3413,11.6314-3.2873,11.6314,5.1737" fill="none" stroke="#000" stroke-linecap="round" stroke-linejoin="round" stroke-width="2"/>
      <path d="M14.4016,43.8713c2.6813,2.3413,11.6314,3.2873,11.6314-5.1737" fill="none" stroke="#000" stroke-linecap="round" stroke-linejoin="round" stroke-width="2"/>
    </g>
    <g>
      <path d="M28.0005,57.8819c-2.3414-2.6814-3.2873-11.6314,5.1737-11.6314" fill="none" stroke="#000" stroke-linecap="round" stroke-linejoin="round" stroke-width="2"/>
      <path d="M38.3479,57.8819c2.3413-2.6814,3.2873-11.6314-5.1737-11.6314" fill="none" stroke="#000" stroke-linecap="round" stroke-linejoin="round" stroke-width="2"/>
    </g>
    <g>
      <path d="M29.6281,19.5133c-2.3414-2.6814-3.2873-11.6314,5.1737-11.6314" fill="none" stroke="#000" stroke-linecap="round" stroke-linejoin="round" stroke-width="2"/>
      <path d="M39.9755,19.5133c2.3413-2.6814,3.2873-11.6314-5.1737-11.6314" fill="none" stroke="#000" stroke-linecap="round" stroke-linejoin="round" stroke-width="2"/>
    </g>
    <g>
      <path d="M52.77,43.8713c2.6813,2.3413,11.6314,3.2873,11.6314-5.1737" fill="none" stroke="#000" stroke-linecap="round" stroke-linejoin="round" stroke-width="2"/>
      <path d="M52.77,33.5239c2.6813-2.3413,11.6314-3.2873,11.6314,5.1737" fill="none" stroke="#000" stroke-linecap="round" stroke-linejoin="round" stroke-width="2"/>
    </g>
  </g>
</svg>
