<svg id="emoji" viewBox="0 0 72 72" xmlns="http://www.w3.org/2000/svg">
  <g id="grid">
    <path fill="#b3b3b3" d="m68,4v64H4V4h64m4-4H0v72h72V0Z"/>
    <path fill="none" stroke="#00a5ff" stroke-miterlimit="10" stroke-width="0.1" d="m12.9,11h46.2c1.1,0,1.9.9,1.9,1.9v46.1c0,1.1-.9,1.9-1.9,1.9H12.9c-1,.1-1.9-.8-1.9-1.9V12.9c0-1.1.9-1.9,1.9-1.9Z"/>
    <path fill="none" stroke="#00a5ff" stroke-miterlimit="10" stroke-width="0.1" d="m18.3,4h35.5c1.2,0,2.2,1,2.2,2.3v59.5c0,1.2-1,2.3-2.3,2.3H18.3c-1.3-.1-2.3-1.1-2.3-2.4V6.3c0-1.3,1-2.3,2.3-2.3Z"/>
    <path fill="none" stroke="#00a5ff" stroke-miterlimit="10" stroke-width="0.1" d="m68,18.3v35.5c0,1.2-1,2.3-2.3,2.3H6.3c-1.3-.1-2.3-1.1-2.3-2.4V18.3c0-1.3,1-2.3,2.3-2.3h59.5c1.2,0,2.2,1,2.2,2.3Z"/>
    <circle cx="36" cy="36" r="29" fill="none" stroke="#00a5ff" stroke-miterlimit="10" stroke-width="0.1"/>
  </g>
  <g id="color">
    <circle cx="19" cy="36.7" r="11.5" fill="#3f3f3f"/>
    <circle cx="36.2" cy="19.6" r="11.5" fill="#3f3f3f"/>
    <circle cx="53.4" cy="36.7" r="11.5" fill="#3f3f3f"/>
    <path fill="#3f3f3f" d="m38.7,38.8c1.2,7.9,7,20.5,8.9,21.3h-22.7c2-.9,8.4-15.1,9-22.8l.3-.9,4.8,1.5-.3.9Z"/>
  </g>
  <g id="line">
    <path fill="none" stroke="#000" stroke-linecap="round" stroke-linejoin="round" stroke-width="2" d="m38.7,38.8c1.2,7.9,7,20.5,8.9,21.3h-22.7c2-.9,8.4-15.1,9-22.8"/>
    <circle cx="36.2" cy="19.6" r="11.5" fill="none" stroke="#000" stroke-linecap="round" stroke-linejoin="round" stroke-width="2"/>
    <circle cx="53.4" cy="36.7" r="11.5" fill="none" stroke="#000" stroke-linecap="round" stroke-linejoin="round" stroke-width="2"/>
    <circle cx="19" cy="36.7" r="11.5" fill="none" stroke="#000" stroke-linecap="round" stroke-linejoin="round" stroke-width="2"/>
  </g>
</svg>
