<svg id="emoji" xmlns="http://www.w3.org/2000/svg" viewBox="0 0 72 72">
  <g id="line-supplement">
    <g id="A_Button" data-name="A Button">
      <path d="M59.0349,60.1374h-46.07A.9679.9679,0,0,1,12,59.1723v-46.07a.9679.9679,0,0,1,.9651-.9651h46.07A.9679.9679,0,0,1,60,13.1025v46.07A.9679.9679,0,0,1,59.0349,60.1374Z" fill="none" stroke="#000" stroke-linejoin="round" stroke-width="2"/>
      <g>
        <polyline points="45.429 46.313 36 24.313 26.571 46.313" fill="none" stroke="#000" stroke-linecap="round" stroke-linejoin="round" stroke-width="2"/>
        <line x1="29.7143" y1="41.0457" x2="42.2857" y2="41.0457" fill="none" stroke="#000" stroke-linecap="round" stroke-linejoin="round" stroke-width="2"/>
      </g>
    </g>
  </g>
  <g id="color">
    <g id="color-2" data-name="color">
      <path d="M59.0349,60h-46.07A.9679.9679,0,0,1,12,59.0349v-46.07A.9679.9679,0,0,1,12.9651,12h46.07A.9679.9679,0,0,1,60,12.9651v46.07A.9679.9679,0,0,1,59.0349,60Z" fill="#d22f27"/>
    </g>
  </g>
  <g id="line"/>
  <g id="color-foreground">
    <g id="A_Button-2" data-name="A Button">
      <path d="M59.0349,60h-46.07A.9679.9679,0,0,1,12,59.0349v-46.07A.9679.9679,0,0,1,12.9651,12h46.07A.9679.9679,0,0,1,60,12.9651v46.07A.9679.9679,0,0,1,59.0349,60Z" fill="none" stroke="#fff" stroke-linejoin="round" stroke-width="2"/>
      <g>
        <polyline points="45.429 46.176 36 24.176 26.571 46.176" fill="none" stroke="#fff" stroke-linecap="round" stroke-linejoin="round" stroke-width="2"/>
        <line x1="29.7143" y1="40.9084" x2="42.2857" y2="40.9084" fill="none" stroke="#fff" stroke-linecap="round" stroke-linejoin="round" stroke-width="2"/>
      </g>
    </g>
  </g>
</svg>
