<svg id="emoji" xmlns="http://www.w3.org/2000/svg" viewBox="0 0 72 72">
  <g id="line-supplement">
    <g id="B_Button" data-name="B Button">
      <path d="M59.0349,60h-46.07A.9679.9679,0,0,1,12,59.0349v-46.07A.9679.9679,0,0,1,12.9651,12h46.07A.9679.9679,0,0,1,60,12.9651v46.07A.9679.9679,0,0,1,59.0349,60Z" fill="none" stroke="#000" stroke-linejoin="round" stroke-width="2"/>
      <path d="M37.7628,35.2283h-8.42v-11h8.42a5.5,5.5,0,0,1,5.5,5.5h0A5.5,5.5,0,0,1,37.7628,35.2283Z" fill="none" stroke="#000" stroke-linecap="round" stroke-linejoin="round" stroke-width="2"/>
      <path d="M37.7628,46.2284h-8.42v-11h8.42a5.5,5.5,0,0,1,5.5,5.5h0A5.5,5.5,0,0,1,37.7628,46.2284Z" fill="none" stroke="#000" stroke-linecap="round" stroke-linejoin="round" stroke-width="2"/>
    </g>
  </g>
  <g id="color">
    <g id="color-2" data-name="color">
      <path d="M59.0349,60h-46.07A.9679.9679,0,0,1,12,59.0349v-46.07A.9679.9679,0,0,1,12.9651,12h46.07A.9679.9679,0,0,1,60,12.9651v46.07A.9679.9679,0,0,1,59.0349,60Z" fill="#d22f27"/>
    </g>
  </g>
  <g id="line"/>
  <g id="color-foreground">
    <g id="B_Button-2" data-name="B Button">
      <path d="M59.0349,60h-46.07A.9679.9679,0,0,1,12,59.0349v-46.07A.9679.9679,0,0,1,12.9651,12h46.07A.9679.9679,0,0,1,60,12.9651v46.07A.9679.9679,0,0,1,59.0349,60Z" fill="none" stroke="#fff" stroke-linejoin="round" stroke-width="2"/>
      <path d="M37.7628,35.2283h-8.42v-11h8.42a5.5,5.5,0,0,1,5.5,5.5h0A5.5,5.5,0,0,1,37.7628,35.2283Z" fill="none" stroke="#fff" stroke-linecap="round" stroke-linejoin="round" stroke-width="2"/>
      <path d="M37.7628,46.2284h-8.42v-11h8.42a5.5,5.5,0,0,1,5.5,5.5h0A5.5,5.5,0,0,1,37.7628,46.2284Z" fill="none" stroke="#fff" stroke-linecap="round" stroke-linejoin="round" stroke-width="2"/>
    </g>
  </g>
</svg>
