<svg id="emoji" viewBox="0 0 72 72" version="1.1" xmlns="http://www.w3.org/2000/svg">
  <g id="line-supplement" transform="translate(-.0006922 -.01378)" fill="none" stroke="#000" stroke-linecap="round" stroke-linejoin="round" stroke-miterlimit="10" stroke-width="2" clip-rule="evenodd">
    <path transform="matrix(2.395 0 0 2.395 48.77 43.44)" d="m0.3763-5.991c-0.441-0.392-1.022-0.629-1.659-0.629-1.38 0-2.5 1.119-2.5 2.5v2c0 1.38 1.12 2.5 2.5 2.5 1.381 0 2.5-1.12 2.5-2.5v-1.014h-2"/>
    <path transform="matrix(2.395 0 0 2.395 48.77 43.44)" d="m-11.89 0.3815v-7l5 7v-7"/>
  </g>
  <g id="color" transform="translate(-.0006922 -.01378)" stroke="#d22f27">
    <rect x="12" y="12.01" width="48" height="47.83" fill="#3f3f3f"/>
    <path transform="matrix(2.395,0,0,2.395,48.77,43.44)" fill="none" stroke="#fff" stroke-linecap="round" stroke-linejoin="round" stroke-width="2" d="m0.3763-5.991c-0.441-0.392-1.022-0.629-1.659-0.629-1.38 0-2.5 1.119-2.5 2.5v2c0 1.38 1.12 2.5 2.5 2.5 1.381 0 2.5-1.12 2.5-2.5v-1.014h-2"/>
    <path transform="matrix(2.395,0,0,2.395,48.77,43.44)" fill="none" stroke="#fff" stroke-linecap="round" stroke-linejoin="round" stroke-width="2" d="m-11.89 0.3815v-7l5 7v-7"/>
  </g>
  <g id="line" transform="matrix(.491 0 0 .491 18.32 18.32)" stroke="#fff" stroke-width="4.073">
    <rect x="12" y="11.96" width="48" height="48" transform="matrix(2.037 0 0 2.037 -37.31 -37.31)" fill="none" stroke="#000" stroke-linecap="round" stroke-linejoin="round" stroke-width="2"/>
  </g>
</svg>
