<?xml version="1.0" encoding="utf-8"?>
<!-- Generator: Adobe Illustrator 19.1.0, SVG Export Plug-In . SVG Version: 6.00 Build 0)  -->
<svg version="1.1" id="emoji" xmlns="http://www.w3.org/2000/svg" xmlns:xlink="http://www.w3.org/1999/xlink" x="0px" y="0px"
	 viewBox="0 0 72 72" enable-background="new 0 0 72 72" xml:space="preserve">
<g id="_xD83C__xDD92_">
	<path fill="#D0CECE" stroke="#1D1D1B" stroke-width="2" stroke-miterlimit="10" d="M59,60H13c-0.5,0-1-0.4-1-1V13c0-0.5,0.4-1,1-1
		H59c0.5,0,1,0.4,1,1V59C60,59.6,59.6,60,59,60z"/>
	<g>
		
			<polyline fill="none" stroke="#000000" stroke-width="2" stroke-linecap="round" stroke-linejoin="round" stroke-miterlimit="10" points="
			47.9,32 47.9,40 51.4,40 		"/>
		<path fill="none" stroke="#000000" stroke-width="2" stroke-linecap="round" stroke-linejoin="round" stroke-miterlimit="10" d="
			M32,40L32,40c-1.6,0-2.9-1.3-2.9-2.9v-2.3c0-1.6,1.3-2.9,2.9-2.9l0,0c1.6,0,2.9,1.3,2.9,2.9v2.3C34.8,38.7,33.5,40,32,40z"/>
		<path fill="none" stroke="#000000" stroke-width="2" stroke-linecap="round" stroke-linejoin="round" stroke-miterlimit="10" d="
			M41.1,40L41.1,40c-1.6,0-2.9-1.3-2.9-2.9v-2.3c0-1.6,1.3-2.9,2.9-2.9l0,0c1.6,0,2.9,1.3,2.9,2.9v2.3C43.9,38.7,42.7,40,41.1,40z"
			/>
		<path fill="none" stroke="#000000" stroke-width="2" stroke-linecap="round" stroke-linejoin="round" stroke-miterlimit="10" d="
			M26.4,39.3c-0.5,0.4-1.2,0.7-1.9,0.7l0,0c-1.6,0-2.9-1.3-2.9-2.9v-2.3v2.3v-2.3c0-1.6,1.3-2.9,2.9-2.9l0,0c0.7,0,1.4,0.3,1.9,0.7"
			/>
	</g>
</g>
</svg>
