<svg id="emoji" viewBox="0 0 72 72" version="1.1" xmlns="http://www.w3.org/2000/svg">
  <g id="line-supplement" fill="none" stroke="#000">
    <path transform="matrix(1.398 0 0 1.762 54.52 53.69)" stroke-linecap="round" stroke-linejoin="round" stroke-miterlimit="10" stroke-width="2" d="m0-7h-4v7h4" clip-rule="evenodd"/>
    <path transform="matrix(1.398 0 0 1.762 48.93 47.53)" stroke-linecap="round" stroke-linejoin="round" stroke-miterlimit="10" stroke-width="2" d="m0 0h3" clip-rule="evenodd"/>
    <path transform="matrix(1.398 0 0 1.762 44.04 46)" stroke-linecap="round" stroke-linejoin="round" stroke-miterlimit="10" stroke-width="2" d="m0-7h-4v7h4" clip-rule="evenodd"/>
    <path transform="matrix(1.398 0 0 1.762 38.44 39.84)" stroke-linecap="round" stroke-linejoin="round" stroke-miterlimit="10" stroke-width="2" d="m0 0h3" clip-rule="evenodd"/>
    <path transform="matrix(1.398 0 0 1.762 27.36 25.98)" stroke-linecap="round" stroke-linejoin="round" stroke-miterlimit="10" stroke-width="2" d="m0 7v-7h2.669c0.963 0 1.744 0.781 1.744 1.744s-0.781 1.743-1.744 1.743h-2.669" clip-rule="evenodd"/>
    <path transform="matrix(.5542 1.617 1.284 -.6983 34.07 32.76)" stroke-linecap="round" stroke-linejoin="round" stroke-miterlimit="10" stroke-width="2" d="m-1.155-1.757 3.827 1e-3" clip-rule="evenodd"/>
    <path transform="matrix(-1.398 0 0 1.762 18.87 24.45)" stroke-linecap="round" stroke-linejoin="round" stroke-miterlimit="10" stroke-width="2" d="m-2 0h3v3.5-7h-4" clip-rule="evenodd"/>
    <rect x="12" y="12" ry="5" width="48" height="47.83" stroke-width="2"/>
  </g>
  <g id="color" stroke="#d22f27">
    <rect x="12" y="12" ry="5" width="48" height="47.83" fill="#fff" stroke="none" stroke-width="2"/>
    <path transform="matrix(1.398,0,0,1.762,54.52,53.69)" fill="none" stroke-linecap="round" stroke-linejoin="round" stroke-miterlimit="10" stroke-width="2" d="m0-7h-4v7h4" clip-rule="evenodd"/>
    <path transform="matrix(1.398,0,0,1.762,48.93,47.53)" fill="none" stroke-linecap="round" stroke-linejoin="round" stroke-miterlimit="10" stroke-width="2" d="m0 0h3" clip-rule="evenodd"/>
    <path transform="matrix(1.398,0,0,1.762,44.04,46)" fill="none" stroke-linecap="round" stroke-linejoin="round" stroke-miterlimit="10" stroke-width="2" d="m0-7h-4v7h4" clip-rule="evenodd"/>
    <path transform="matrix(1.398,0,0,1.762,38.44,39.84)" fill="none" stroke-linecap="round" stroke-linejoin="round" stroke-miterlimit="10" stroke-width="2" d="m0 0h3" clip-rule="evenodd"/>
    <path transform="matrix(1.398,0,0,1.762,27.36,25.98)" fill="none" stroke-linecap="round" stroke-linejoin="round" stroke-miterlimit="10" stroke-width="2" d="m0 7v-7h2.669c0.963 0 1.744 0.781 1.744 1.744s-0.781 1.743-1.744 1.743h-2.669" clip-rule="evenodd"/>
    <path transform="matrix(.5542 1.617 1.284 -.6983 34.07 32.76)" fill="none" stroke-linecap="round" stroke-linejoin="round" stroke-miterlimit="10" stroke-width="2" d="m-1.155-1.757 3.827 1e-3" clip-rule="evenodd"/>
    <path transform="matrix(-1.398,0,0,1.762,18.87,24.45)" fill="none" stroke-linecap="round" stroke-linejoin="round" stroke-miterlimit="10" stroke-width="2" d="m-2 0h3v3.5-7h-4" clip-rule="evenodd"/>
    <rect x="12" y="12" ry="5" width="48" height="47.83" fill="none" stroke-width="2"/>
  </g>
  <g id="line"/>
</svg>
