<svg id="emoji" viewBox="0 0 72 72" version="1.1" xmlns="http://www.w3.org/2000/svg">
  <g id="color">
    <rect x="5" y="17" width="62" height="38" fill="#d22f27"/>
    <path fill="#fff" stroke="#fff" stroke-linecap="round" stroke-linejoin="round" d="m42.34 34.23 3.988-6.744 2.792-0.6478-2.484 1.423-3.372 7.467-6.186 0.3526-5.546 2.496 3.527 6.996-0.9624 2.697 0.1428-2.857-4.468-6.868 3.191-4.973 0.2343-5.676-7.834 0.3142-2.06-1.992 2.545 1.312 8.106-1.223 3.471 4.805z"/>
    <path fill="none" stroke="#fcea2b" stroke-linecap="round" stroke-linejoin="round" stroke-width="2" d="m35.82 33.58 1.256 2.492"/>
    <path fill="none" stroke="#fcea2b" stroke-linecap="round" stroke-linejoin="round" stroke-width="2" d="m37.42 31.11-1.603 2.476-2.858-0.01662"/>
    <polygon transform="matrix(.6713 -.3266 .3266 .6706 .7123 21.38)" fill="#fcea2b" stroke="#fcea2b" stroke-linecap="round" stroke-linejoin="round" stroke-width="1.34" points="24.21 28.34 25.16 25.34 26.06 28.32 23.65 26.5 26.65 26.47"/>
    <polygon transform="matrix(.3343 -.6675 .6671 .3338 7.886 51.12)" fill="#fcea2b" stroke="#fcea2b" stroke-linecap="round" stroke-linejoin="round" stroke-width="1.34" points="51.06 29.32 48.65 27.5 51.65 27.47 49.21 29.34 50.16 26.34"/>
    <polygon transform="matrix(.4707 -.5794 .5792 .4701 -7.299 42.64)" fill="#fcea2b" stroke="#fcea2b" stroke-linecap="round" stroke-linejoin="round" stroke-width="1.34" points="36.16 46.34 37.06 49.32 34.65 47.5 37.65 47.47 35.21 49.34"/>
  </g>
  <g id="line">
    <rect x="5" y="17" width="62" height="38" fill="none" stroke="#000" stroke-linecap="round" stroke-linejoin="round" stroke-width="2"/>
  </g>
</svg>
