<svg id="emoji" viewBox="0 0 72 72" xmlns="http://www.w3.org/2000/svg">
  <g id="color">
    <rect x="5.1969" y="17.2454" width="61.6062" height="37.7586" fill="#fff"/>
    <path fill="#fff" d="m66.8031,44.0739c-2.0263.4824-4.0854.8145-6.1606.9936-1.5593-.0491-4.6014-1.0427-6.1606-.9936s-4.6014,1.0427-6.1606.9936-4.6013-1.0427-6.1606-.9936-4.6013,1.0427-6.1606.9936-4.6014-1.0425-6.1606-.9936-4.6014,1.0414-6.1606.9936-4.6012-1.0349-6.1606-.9936-4.6006.9936-6.1606.9936c-2.0721-.2039-4.1295-.5358-6.1606-.9936v-1.9873c2.0311.4579,4.0886.7897,6.1606.9936,1.56,0,4.6011-.9525,6.1606-.9936s4.6014.9459,6.1606.9936,4.6014-.9448,6.1606-.9936,4.6013.9446,6.1606.9936,4.6013-.9446,6.1606-.9936,4.6013.9446,6.1606.9936,4.6013-.9446,6.1606-.9936,4.6013.9446,6.1606.9936c2.0752-.1792,4.1343-.5113,6.1606-.9936v1.9873Z"/>
    <path fill="#1e50a0" d="m66.8031,46.0612c-2.0263.4824-4.0854.8145-6.1606.9936-1.5593-.0491-4.6014-1.0427-6.1606-.9936s-4.6014,1.0427-6.1606.9936-4.6013-1.0427-6.1606-.9936-4.6013,1.0427-6.1606.9936-4.6014-1.0425-6.1606-.9936-4.6014,1.0414-6.1606.9936-4.6012-1.0349-6.1606-.9936-4.6006.9936-6.1606.9936c-2.0721-.2039-4.1295-.5358-6.1606-.9936v-1.9873c2.0311.4579,4.0886.7897,6.1606.9936,1.56,0,4.6011-.9525,6.1606-.9936s4.6014.9459,6.1606.9936,4.6014-.9448,6.1606-.9936,4.6013.9446,6.1606.9936,4.6013-.9446,6.1606-.9936,4.6013.9446,6.1606.9936,4.6013-.9446,6.1606-.9936,4.6013.9446,6.1606.9936c2.0752-.1792,4.1343-.5113,6.1606-.9936v1.9873Z"/>
    <path fill="#fff" d="m66.8031,48.0485c-2.0263.4824-4.0854.8145-6.1606.9936-1.5593-.0491-4.6014-1.0427-6.1606-.9936s-4.6014,1.0427-6.1606.9936-4.6013-1.0427-6.1606-.9936-4.6013,1.0427-6.1606.9936-4.6014-1.0425-6.1606-.9936-4.6014,1.0414-6.1606.9936-4.6012-1.0349-6.1606-.9936-4.6006.9936-6.1606.9936c-2.0721-.2039-4.1295-.5358-6.1606-.9936v-1.9873c2.0311.4579,4.0886.7897,6.1606.9936,1.56,0,4.6011-.9525,6.1606-.9936s4.6014.9459,6.1606.9936,4.6014-.9448,6.1606-.9936,4.6013.9446,6.1606.9936,4.6013-.9446,6.1606-.9936,4.6013.9446,6.1606.9936,4.6013-.9446,6.1606-.9936,4.6013.9446,6.1606.9936c2.0752-.1792,4.1343-.5113,6.1606-.9936v1.9873Z"/>
    <path fill="#1e50a0" d="m66.8031,50.0358c-2.0263.4824-4.0854.8145-6.1606.9936-1.5593-.0491-4.6014-1.0427-6.1606-.9936s-4.6014,1.0427-6.1606.9936-4.6013-1.0427-6.1606-.9936-4.6013,1.0427-6.1606.9936-4.6014-1.0425-6.1606-.9936-4.6014,1.0414-6.1606.9936-4.6012-1.0349-6.1606-.9936-4.6006.9936-6.1606.9936c-2.0721-.2039-4.1295-.5358-6.1606-.9936v-1.9873c2.0311.4579,4.0886.7897,6.1606.9936,1.56,0,4.6011-.9525,6.1606-.9936s4.6014.9459,6.1606.9936,4.6014-.9448,6.1606-.9936,4.6013.9446,6.1606.9936,4.6013-.9446,6.1606-.9936,4.6013.9446,6.1606.9936,4.6013-.9446,6.1606-.9936,4.6013.9446,6.1606.9936c2.0752-.1792,4.1343-.5113,6.1606-.9936v1.9873Z"/>
    <path fill="#1e50a0" d="m66.8031,55.004s-4.6013-.9446-6.1606-.9936-4.6014.9446-6.1606.9936-4.6014-.9446-6.1606-.9936-4.6013.9446-6.1606.9936-4.6013-.9446-6.1606-.9936-4.6014.9448-6.1606.9936-4.6014-.9459-6.1606-.9936-4.6012.9524-6.1606.9936-4.6006-.9936-6.1606-.9936c-2.0721.2039-4.1295.5358-6.1606.9936v-3.9746c2.0311.4579,4.0886.7897,6.1606.9936,1.56,0,4.6011-.9525,6.1606-.9936s4.6014.9459,6.1606.9936,4.6014-.9448,6.1606-.9936,4.6013.9446,6.1606.9936,4.6013-.9446,6.1606-.9936,4.6013.9446,6.1606.9936,4.6013-.9446,6.1606-.9936,4.6013.9446,6.1606.9936c2.0752-.1792,4.1343-.5113,6.1606-.9936v3.9746Z"/>
    <path fill="#fff" d="m66.8031,52.0231c-2.0263.4824-4.0854.8145-6.1606.9936-1.5593-.0491-4.6014-1.0427-6.1606-.9936s-4.6014,1.0427-6.1606.9936-4.6013-1.0427-6.1606-.9936-4.6013,1.0427-6.1606.9936-4.6014-1.0425-6.1606-.9936-4.6014,1.0414-6.1606.9936-4.6012-1.0349-6.1606-.9936-4.6006.9936-6.1606.9936c-2.0721-.2039-4.1295-.5358-6.1606-.9936v-1.9873c2.0311.4579,4.0886.7897,6.1606.9936,1.56,0,4.6011-.9525,6.1606-.9936s4.6014.9459,6.1606.9936,4.6014-.9448,6.1606-.9936,4.6013.9446,6.1606.9936,4.6013-.9446,6.1606-.9936,4.6013.9446,6.1606.9936,4.6013-.9446,6.1606-.9936,4.6013.9446,6.1606.9936c2.0752-.1792,4.1343-.5113,6.1606-.9936v1.9873Z"/>
    <path fill="#1e50a0" d="m66.8031,38.112c-2.0263.4824-4.0854.8145-6.1606.9936-1.5593-.0491-4.6014-1.0427-6.1606-.9936s-4.6014,1.0427-6.1606.9936-4.6013-1.0427-6.1606-.9936-4.6013,1.0427-6.1606.9936-4.6014-1.0425-6.1606-.9936-4.6014,1.0414-6.1606.9936-4.6012-1.0349-6.1606-.9936-4.6006.9936-6.1606.9936c-2.0721-.2039-4.1295-.5358-6.1606-.9936v-1.9873c2.0311.4579,4.0886.7897,6.1606.9936,1.56,0,4.6011-.9525,6.1606-.9936s4.6014.9459,6.1606.9936,4.6014-.9448,6.1606-.9936,4.6013.9446,6.1606.9936,4.6013-.9446,6.1606-.9936,4.6013.9446,6.1606.9936,4.6013-.9446,6.1606-.9936,4.6013.9446,6.1606.9936c2.0752-.1792,4.1343-.5113,6.1606-.9936v1.9873Z"/>
    <path fill="#fff" d="m66.8031,40.0993c-2.0263.4824-4.0854.8145-6.1606.9936-1.5593-.0491-4.6014-1.0427-6.1606-.9936s-4.6014,1.0427-6.1606.9936-4.6013-1.0427-6.1606-.9936-4.6013,1.0427-6.1606.9936-4.6014-1.0425-6.1606-.9936-4.6014,1.0414-6.1606.9936-4.6012-1.0349-6.1606-.9936-4.6006.9936-6.1606.9936c-2.0721-.2039-4.1295-.5358-6.1606-.9936v-1.9873c2.0311.4579,4.0886.7897,6.1606.9936,1.56,0,4.6011-.9525,6.1606-.9936s4.6014.9459,6.1606.9936,4.6014-.9448,6.1606-.9936,4.6013.9446,6.1606.9936,4.6013-.9446,6.1606-.9936,4.6013.9446,6.1606.9936,4.6013-.9446,6.1606-.9936,4.6013.9446,6.1606.9936c2.0752-.1792,4.1343-.5113,6.1606-.9936v1.9873Z"/>
    <path fill="#1e50a0" d="m66.8031,42.0866c-2.0263.4824-4.0854.8145-6.1606.9936-1.5593-.0491-4.6014-1.0427-6.1606-.9936s-4.6014,1.0427-6.1606.9936-4.6013-1.0427-6.1606-.9936-4.6013,1.0427-6.1606.9936-4.6014-1.0425-6.1606-.9936-4.6014,1.0414-6.1606.9936-4.6012-1.0349-6.1606-.9936-4.6006.9936-6.1606.9936c-2.0721-.2039-4.1295-.5358-6.1606-.9936v-1.9873c2.0311.4579,4.0886.7897,6.1606.9936,1.56,0,4.6011-.9525,6.1606-.9936s4.6014.9459,6.1606.9936,4.6014-.9448,6.1606-.9936,4.6013.9446,6.1606.9936,4.6013-.9446,6.1606-.9936,4.6013.9446,6.1606.9936,4.6013-.9446,6.1606-.9936,4.6013.9446,6.1606.9936c2.0752-.1792,4.1343-.5113,6.1606-.9936v1.9873Z"/>
    <path fill="#fff" d="m66.8031,44.0739c-2.0263.4824-4.0854.8145-6.1606.9936-1.5593-.0491-4.6014-1.0427-6.1606-.9936s-4.6014,1.0427-6.1606.9936-4.6013-1.0427-6.1606-.9936-4.6013,1.0427-6.1606.9936-4.6014-1.0425-6.1606-.9936-4.6014,1.0414-6.1606.9936-4.6012-1.0349-6.1606-.9936-4.6006.9936-6.1606.9936c-2.0721-.2039-4.1295-.5358-6.1606-.9936v-1.9873c2.0311.4579,4.0886.7897,6.1606.9936,1.56,0,4.6011-.9525,6.1606-.9936s4.6014.9459,6.1606.9936,4.6014-.9448,6.1606-.9936,4.6013.9446,6.1606.9936,4.6013-.9446,6.1606-.9936,4.6013.9446,6.1606.9936,4.6013-.9446,6.1606-.9936,4.6013.9446,6.1606.9936c2.0752-.1792,4.1343-.5113,6.1606-.9936v1.9873Z"/>
    <path fill="#1e50a0" d="m66.8031,30.1628c-2.0263.4824-4.0854.8145-6.1606.9936-1.5593-.0491-4.6014-1.0427-6.1606-.9936s-4.6014,1.0427-6.1606.9936-4.6013-1.0427-6.1606-.9936-4.6013,1.0427-6.1606.9936-4.6014-1.0425-6.1606-.9936-4.6014,1.0414-6.1606.9936-4.6012-1.0349-6.1606-.9936-4.6006.9936-6.1606.9936c-2.0721-.2039-4.1295-.5358-6.1606-.9936v-1.9873c2.0311.4579,4.0886.7897,6.1606.9936,1.56,0,4.6011-.9525,6.1606-.9936s4.6014.9459,6.1606.9936,4.6014-.9448,6.1606-.9936,4.6013.9446,6.1606.9936,4.6013-.9446,6.1606-.9936,4.6013.9446,6.1606.9936,4.6013-.9446,6.1606-.9936,4.6013.9446,6.1606.9936c2.0752-.1792,4.1343-.5113,6.1606-.9936v1.9873Z"/>
    <path fill="#fff" d="m66.8031,32.1501c-2.0263.4824-4.0854.8145-6.1606.9936-1.5593-.0491-4.6014-1.0427-6.1606-.9936s-4.6014,1.0427-6.1606.9936-4.6013-1.0427-6.1606-.9936-4.6013,1.0427-6.1606.9936-4.6014-1.0425-6.1606-.9936c-1.5592.0489-4.6014,1.0414-6.1606.9936s-4.6012-1.0349-6.1606-.9936-4.6006.9936-6.1606.9936c-2.0721-.2039-4.1295-.5358-6.1606-.9936v-1.9873c2.0311.4579,4.0886.7897,6.1606.9936,1.56,0,4.6011-.9525,6.1606-.9936s4.6014.9459,6.1606.9936,4.6014-.9448,6.1606-.9936,4.6013.9446,6.1606.9936,4.6013-.9446,6.1606-.9936,4.6013.9446,6.1606.9936,4.6013-.9446,6.1606-.9936,4.6013.9446,6.1606.9936c2.0752-.1792,4.1343-.5113,6.1606-.9936v1.9873Z"/>
    <path fill="#1e50a0" d="m66.8031,34.1374c-2.0263.4824-4.0854.8145-6.1606.9936-1.5593-.0491-4.6014-1.0427-6.1606-.9936s-4.6014,1.0427-6.1606.9936-4.6013-1.0427-6.1606-.9936-4.6013,1.0427-6.1606.9936-4.6014-1.0425-6.1606-.9936-4.6014,1.0414-6.1606.9936-4.6012-1.0349-6.1606-.9936-4.6006.9936-6.1606.9936c-2.0721-.2039-4.1295-.5358-6.1606-.9936v-1.9873c2.0311.4579,4.0886.7897,6.1606.9936,1.56,0,4.6011-.9525,6.1606-.9936s4.6014.9459,6.1606.9936,4.6014-.9448,6.1606-.9936,4.6013.9446,6.1606.9936,4.6013-.9446,6.1606-.9936,4.6013.9446,6.1606.9936,4.6013-.9446,6.1606-.9936,4.6013.9446,6.1606.9936c2.0752-.1792,4.1343-.5113,6.1606-.9936v1.9873Z"/>
    <path fill="#fff" d="m66.8031,36.1247c-2.0263.4824-4.0854.8145-6.1606.9936-1.5593-.0491-4.6014-1.0427-6.1606-.9936s-4.6014,1.0427-6.1606.9936-4.6013-1.0427-6.1606-.9936-4.6013,1.0427-6.1606.9936-4.6014-1.0425-6.1606-.9936-4.6014,1.0414-6.1606.9936-4.6012-1.0349-6.1606-.9936-4.6006.9936-6.1606.9936c-2.0721-.2039-4.1295-.5358-6.1606-.9936v-1.9873c2.0311.4579,4.0886.7897,6.1606.9936,1.56,0,4.6011-.9525,6.1606-.9936s4.6014.9459,6.1606.9936,4.6014-.9448,6.1606-.9936,4.6013.9446,6.1606.9936,4.6013-.9446,6.1606-.9936,4.6013.9446,6.1606.9936,4.6013-.9446,6.1606-.9936,4.6013.9446,6.1606.9936c2.0752-.1792,4.1343-.5113,6.1606-.9936v1.9873Z"/>
    <path fill="#1e50a0" d="m66.8031,22.2136c-2.0263.4824-4.0854.8145-6.1606.9936-1.5593-.0491-4.6014-1.0427-6.1606-.9936s-4.6014,1.0427-6.1606.9936-4.6013-1.0427-6.1606-.9936-4.6013,1.0427-6.1606.9936-4.6014-1.0425-6.1606-.9936-4.6014,1.0414-6.1606.9936-4.6012-1.0349-6.1606-.9936-4.6006.9936-6.1606.9936c-2.0721-.2039-4.1295-.5358-6.1606-.9936v-1.9873c2.0311.4579,4.0886.7897,6.1606.9936,1.56,0,4.6011-.9525,6.1606-.9936s4.6014.9459,6.1606.9936,4.6014-.9448,6.1606-.9936,4.6013.9446,6.1606.9936,4.6013-.9446,6.1606-.9936,4.6013.9446,6.1606.9936,4.6013-.9446,6.1606-.9936,4.6013.9446,6.1606.9936c2.0752-.1792,4.1343-.5113,6.1606-.9936v1.9873Z"/>
    <path fill="#fff" d="m66.8031,24.2009c-2.0263.4824-4.0854.8145-6.1606.9936-1.5593-.0491-4.6014-1.0427-6.1606-.9936s-4.6014,1.0427-6.1606.9936-4.6013-1.0427-6.1606-.9936-4.6013,1.0427-6.1606.9936-4.6014-1.0425-6.1606-.9936-4.6014,1.0414-6.1606.9936-4.6012-1.0349-6.1606-.9936-4.6006.9936-6.1606.9936c-2.0721-.2039-4.1295-.5358-6.1606-.9936v-1.9873c2.0311.4579,4.0886.7897,6.1606.9936,1.56,0,4.6011-.9525,6.1606-.9936s4.6014.9459,6.1606.9936,4.6014-.9448,6.1606-.9936,4.6013.9446,6.1606.9936,4.6013-.9446,6.1606-.9936,4.6013.9446,6.1606.9936,4.6013-.9446,6.1606-.9936,4.6013.9446,6.1606.9936c2.0752-.1792,4.1343-.5113,6.1606-.9936v1.9873Z"/>
    <path fill="#1e50a0" d="m66.8031,18.571c-2.0263.3215-4.0854.5428-6.1606.6622-1.5593-.0327-4.6014-.695-6.1606-.6622s-4.6014.695-6.1606.6622-4.6013-.695-6.1606-.6622-4.6013.695-6.1606.6622-4.6014-.6948-6.1606-.6622-4.6014.6941-6.1606.6622-4.6012-.6897-6.1606-.6622-4.6006.6622-6.1606.6622c-2.0721-.1359-4.1295-.3571-6.1606-.6622v-1.3245c2.0311.3052,4.0886.5263,6.1606.6622,1.56,0,4.6011-.6348,6.1606-.6622s4.6014.6304,6.1606.6622,4.6014-.6297,6.1606-.6622,4.6013.6295,6.1606.6622,4.6013-.6295,6.1606-.6622,4.6013.6295,6.1606.6622,4.6013-.6295,6.1606-.6622,4.6013.6295,6.1606.6622c2.0752-.1194,4.1343-.3407,6.1606-.6622v1.3245Z"/>
    <path fill="#fff" d="m66.8031,20.2263c-2.0263.4824-4.0854.8145-6.1606.9936-1.5593-.0491-4.6014-1.0427-6.1606-.9936s-4.6014,1.0427-6.1606.9936-4.6013-1.0427-6.1606-.9936-4.6013,1.0427-6.1606.9936-4.6014-1.0425-6.1606-.9936-4.6014,1.0414-6.1606.9936-4.6012-1.0349-6.1606-.9936-4.6006.9936-6.1606.9936c-2.0721-.2039-4.1295-.5358-6.1606-.9936v-1.9873c2.0311.4579,4.0886.7897,6.1606.9936,1.56,0,4.6011-.9525,6.1606-.9936s4.6014.9459,6.1606.9936,4.6014-.9448,6.1606-.9936,4.6013.9446,6.1606.9936,4.6013-.9446,6.1606-.9936,4.6013.9446,6.1606.9936,4.6013-.9446,6.1606-.9936,4.6013.9446,6.1606.9936c2.0752-.1792,4.1343-.5113,6.1606-.9936v1.9873Z"/>
    <path fill="#1e50a0" d="m66.8031,26.1882c-2.0263.4824-4.0854.8145-6.1606.9936-1.5593-.0491-4.6014-1.0427-6.1606-.9936s-4.6014,1.0427-6.1606.9936-4.6013-1.0427-6.1606-.9936-4.6013,1.0427-6.1606.9936-4.6014-1.0425-6.1606-.9936-4.6014,1.0414-6.1606.9936-4.6012-1.0349-6.1606-.9936-4.6006.9936-6.1606.9936c-2.0721-.2039-4.1295-.5358-6.1606-.9936v-1.9873c2.0311.4579,4.0886.7897,6.1606.9936,1.56,0,4.6011-.9525,6.1606-.9936s4.6014.9459,6.1606.9936,4.6014-.9448,6.1606-.9936,4.6013.9446,6.1606.9936,4.6013-.9446,6.1606-.9936,4.6013.9446,6.1606.9936,4.6013-.9446,6.1606-.9936,4.6013.9446,6.1606.9936c2.0752-.1792,4.1343-.5113,6.1606-.9936v1.9873Z"/>
    <path fill="#fff" d="m66.8031,28.1755c-2.0263.4824-4.0854.8145-6.1606.9936-1.5593-.0491-4.6014-1.0427-6.1606-.9936s-4.6014,1.0427-6.1606.9936-4.6013-1.0427-6.1606-.9936-4.6013,1.0427-6.1606.9936-4.6014-1.0425-6.1606-.9936-4.6014,1.0414-6.1606.9936-4.6012-1.0349-6.1606-.9936-4.6006.9936-6.1606.9936c-2.0721-.2039-4.1295-.5358-6.1606-.9936v-1.9873c2.0311.4579,4.0886.7897,6.1606.9936,1.56,0,4.6011-.9525,6.1606-.9936s4.6014.9459,6.1606.9936,4.6014-.9448,6.1606-.9936,4.6013.9446,6.1606.9936,4.6013-.9446,6.1606-.9936,4.6013.9446,6.1606.9936,4.6013-.9446,6.1606-.9936,4.6013.9446,6.1606.9936c2.0752-.1792,4.1343-.5113,6.1606-.9936v1.9873Z"/>
    <rect x="5.1969" y="17.2454" width="30.8031" height="18.8793" fill="#1e50a0"/>
    <g>
      <polygon fill="#fff" points="10.0529 18.239 6.1905 18.239 6.1905 20.5562 32.1377 36.1247 36 36.1247 36 33.8075 10.0529 18.239"/>
      <polygon fill="#fff" points="36 20.5562 36 18.239 32.1377 18.239 6.1905 33.8075 6.1905 36.1247 10.0529 36.1247 36 20.5562"/>
      <rect x="6.1905" y="24.2009" width="29.8095" height="5.9619" fill="#fff"/>
      <rect x="18.1143" y="18.239" width="5.9619" height="17.8857" fill="#fff"/>
      <rect x="20.1016" y="18.239" width="1.9873" height="17.8857" fill="#d22f27"/>
      <rect x="6.1905" y="26.1882" width="29.8095" height="1.9873" fill="#d22f27"/>
      <polygon fill="#d22f27" points="36 33.8075 29.9258 30.1628 26.0635 30.1628 36 36.1247 36 33.8075"/>
      <polygon fill="#d22f27" points="36 18.239 32.1377 18.239 24.0762 23.0761 24.0762 24.2009 26.0635 24.2009 36 18.239"/>
      <polygon fill="#d22f27" points="6.1905 20.5562 12.2647 24.2009 16.127 24.2009 6.1905 18.239 6.1905 20.5562"/>
      <polygon fill="#d22f27" points="6.1905 36.1247 10.0529 36.1247 18.1143 31.2876 18.1143 30.1628 16.127 30.1628 6.1905 36.1247"/>
    </g>
  </g>
  <g id="line">
    <rect x="5.1969" y="17.2454" width="61.6062" height="37.7586" fill="none" stroke="#000" stroke-linecap="round" stroke-linejoin="round" stroke-width="1.9873"/>
  </g>
</svg>
