<svg id="emoji" xmlns="http://www.w3.org/2000/svg" viewBox="0 0 72 72">
  <g id="color">
    <rect x="5" y="17" width="62" height="38" fill="#fff"/>
    <g>
      <polygon points="43.5 25.91 44.5 22.91 27.5 22.91 28.5 25.91 43.5 25.91" fill="#fcea2b" stroke="#fcea2b" stroke-linecap="round" stroke-linejoin="round"/>
      <path d="M36,45.91s7.5-2.5,7.5-10v-10h-15v10C28.5,43.41,36,45.91,36,45.91Z" fill="#1e50a0" stroke="#1e50a0" stroke-linecap="round" stroke-linejoin="round"/>
      <path d="M28.5,32.41v3.5a10.1844,10.1844,0,0,0,.3063,2.5H43.1938a10.1845,10.1845,0,0,0,.3062-2.5v-3.5Z" fill="#d22f27" stroke="#d22f27" stroke-miterlimit="10"/>
      <g>
        <g>
          <line x1="36" y1="30.1603" x2="36" y2="27.6603" fill="#fcea2b" stroke="#fcea2b" stroke-linecap="round" stroke-linejoin="round"/>
          <line x1="35.375" y1="28.4936" x2="36.625" y2="28.4936" fill="#fcea2b" stroke="#fcea2b" stroke-linecap="round" stroke-linejoin="round"/>
        </g>
        <g>
          <line x1="40.5" y1="30.1603" x2="40.5" y2="27.6603" fill="#fcea2b" stroke="#fcea2b" stroke-linecap="round" stroke-linejoin="round"/>
          <line x1="39.875" y1="28.4936" x2="41.125" y2="28.4936" fill="#fcea2b" stroke="#fcea2b" stroke-linecap="round" stroke-linejoin="round"/>
        </g>
        <g>
          <line x1="31.5" y1="30.1603" x2="31.5" y2="27.6603" fill="#fcea2b" stroke="#fcea2b" stroke-linecap="round" stroke-linejoin="round"/>
          <line x1="30.875" y1="28.4936" x2="32.125" y2="28.4936" fill="#fcea2b" stroke="#fcea2b" stroke-linecap="round" stroke-linejoin="round"/>
        </g>
      </g>
      <g>
        <line x1="36" y1="36.6603" x2="36" y2="34.1603" fill="#fff" stroke="#fff" stroke-linecap="round" stroke-linejoin="round"/>
        <line x1="37.25" y1="35.4103" x2="34.75" y2="35.4103" fill="#fff" stroke="#fff" stroke-linecap="round" stroke-linejoin="round"/>
      </g>
      <circle cx="36" cy="43.9103" r="1" fill="#fcea2b"/>
      <circle cx="33" cy="40.9103" r="1" fill="#fcea2b"/>
      <circle cx="39" cy="40.9103" r="1" fill="#fcea2b"/>
      <path d="M47,46.2692A23.0924,23.0924,0,0,1,36,49.09" fill="none" stroke="#a57939" stroke-linecap="round" stroke-linejoin="round" stroke-width="2"/>
      <path d="M25,46.2692A23.093,23.093,0,0,0,36,49.09" fill="none" stroke="#a57939" stroke-linecap="round" stroke-linejoin="round" stroke-width="2"/>
    </g>
  </g>
  <g id="line">
    <rect x="5" y="17" width="62" height="38" fill="none" stroke="#000" stroke-linecap="round" stroke-linejoin="round" stroke-width="2"/>
  </g>
</svg>
