<svg id="emoji" viewBox="0 0 72 72" xmlns="http://www.w3.org/2000/svg">
  <g id="color">
    <path d="M36.9189,21.6057c-.1572-.3677-.519-.606-.9189-.606s-.7617,.2383-.9189,.606l-12,28c-.2178,.5078,.0176,1.0957,.5249,1.313,.5083,.2188,1.0962-.0176,1.313-.5249l2.6202-6.1138h16.9216l2.6202,6.1138c.1621,.3789,.5312,.6064,.9194,.6064,.1313,0,.2651-.0264,.3936-.0815,.5073-.2173,.7427-.8052,.5249-1.313l-12-28Zm-8.5226,20.6743l7.6037-17.7417,7.6037,17.7417h-15.2074Z"/>
  </g>
  <g id="skin"/>
  <g id="skin-shadow"/>
  <g id="hair"/>
  <g id="line">
    <g id="line-2">
      <circle cx="36" cy="36" r="28" fill="none" stroke="#000" stroke-linejoin="round" stroke-width="2"/>
    </g>
    <path fill="none" stroke="#000" stroke-linejoin="round" stroke-width="2" d="M36.9189,21.6057c-.1572-.3677-.519-.606-.9189-.606s-.7617,.2383-.9189,.606l-12,28c-.2178,.5078,.0176,1.0957,.5249,1.313,.5083,.2188,1.0962-.0176,1.313-.5249l2.6202-6.1138h16.9216l2.6202,6.1138c.1621,.3789,.5312,.6064,.9194,.6064,.1313,0,.2651-.0264,.3936-.0815,.5073-.2173,.7427-.8052,.5249-1.313l-12-28Zm-8.5226,20.6743l7.6037-17.7417,7.6037,17.7417h-15.2074Z"/>
  </g>
</svg>
