<svg id="emoji" viewBox="0 0 72 72" xmlns="http://www.w3.org/2000/svg">
  <g id="color">
    <path d="M44,20.5081c-.5527,0-1,.4478-1,1v12.96h-14v-12.96c0-.5522-.4473-1-1-1s-1,.4478-1,1v28c0,.5522,.4473,1,1,1s1-.4478,1-1v-13.04h14v13.04c0,.5522,.4473,1,1,1s1-.4478,1-1V21.5081c0-.5522-.4473-1-1-1Z"/>
  </g>
  <g id="skin"/>
  <g id="skin-shadow"/>
  <g id="hair"/>
  <g id="line">
    <g id="line-2">
      <circle cx="36" cy="36" r="28" fill="none" stroke="#000" stroke-linejoin="round" stroke-width="2"/>
    </g>
    <path fill="none" stroke="#000" stroke-linejoin="round" stroke-width="2" d="M44,20.5081c-.5527,0-1,.4478-1,1v12.96h-14v-12.96c0-.5522-.4473-1-1-1s-1,.4478-1,1v28c0,.5522,.4473,1,1,1s1-.4478,1-1v-13.04h14v13.04c0,.5522,.4473,1,1,1s1-.4478,1-1V21.5081c0-.5522-.4473-1-1-1Z"/>
  </g>
</svg>
