<svg id="emoji" viewBox="0 0 72 72" xmlns="http://www.w3.org/2000/svg">
  <g id="color">
    <rect x="5" y="17" rx="3.2004" ry="3.2004" width="62" height="38" fill="#5c9e31"/>
    <path d="m29.4811,39.9955l-17.346,10.6314c-3.1225,1.9138-7.135-.3331-7.135-3.9955v-21.2629c0-3.6623,4.0125-5.9093,7.135-3.9955l17.346,10.6314c2.9832,1.8284,2.9832,6.1625,0,7.9909Z"/>
    <path d="m42.12,39.7509l18.1816,11.1436c2.9314,1.7967,6.6984-.3127,6.6984-3.7509v-22.2872c0-3.4382-3.767-5.5476-6.6984-3.7509l-18.1816,11.1436c-2.8006,1.7165-2.8006,5.7854,0,7.5019Z"/>
    <path fill="#fcea2b" d="m5,21.6921v-2.4179c0-1.256,1.0182-2.2742,2.2742-2.2742h4.1124c.4018,0,.7964.1064,1.1437.3085l53.3393,31.0338c.6999.4072,1.1305,1.1559,1.1305,1.9657v2.4179c0,1.256-1.0182,2.2742-2.2742,2.2742h-4.1124c-.4018,0-.7964-.1064-1.1437-.3085L6.1305,23.6577c-.6999-.4072-1.1305-1.1559-1.1305-1.9657Z"/>
    <path fill="#fcea2b" d="m67,21.3178v-1.3929c0-1.6154-1.3095-2.9249-2.9249-2.9249h-3.2861c-.5168,0-1.0243.1369-1.4709.3968L6.454,48.154c-.9002.5238-1.454,1.4867-1.454,2.5282v1.3929c0,1.6154,1.3095,2.9249,2.9249,2.9249h3.2861c.5168,0,1.0243-.1369,1.4709-.3968l52.864-30.7573c.9002-.5238,1.454-1.4867,1.454-2.5282Z"/>
  </g>
  <g id="line">
    <rect x="5" y="17" width="62" height="38" fill="none" stroke="#000" stroke-linecap="round" stroke-linejoin="round" stroke-width="2"/>
  </g>
</svg>
