<svg id="emoji" viewBox="0 0 72 72" xmlns="http://www.w3.org/2000/svg">
  <g id="color">
    <path d="M46.8259,29.022c0-4.3979-3.5781-7.9761-7.9761-7.9761h-10.6758c-.5522,0-1,.4478-1,1v27.9082c0,.5522,.4478,1,1,1h10.6758c4.3979,0,7.9761-3.5781,7.9761-7.9761,0-2.9995-1.666-5.6177-4.1216-6.978,2.4556-1.3604,4.1216-3.9785,4.1216-6.978Zm-2,13.9561c0,3.2954-2.6807,5.9761-5.9761,5.9761h-9.6758v-11.9482h9.6758c3.2954,0,5.9761,2.6792,5.9761,5.9722Zm-5.9761-7.9839c-.0206,0-.0378,.0105-.058,.0117h-9.6177v-11.96h9.6758c3.2954,0,5.9761,2.6807,5.9761,5.9761,0,3.293-2.6807,5.9722-5.9761,5.9722Z"/>
  </g>
  <g id="skin"/>
  <g id="skin-shadow"/>
  <g id="hair"/>
  <g id="line">
    <g id="line-2">
      <circle cx="36" cy="36" r="28" fill="none" stroke="#000" stroke-linejoin="round" stroke-width="2"/>
    </g>
    <path fill="none" stroke="#000" stroke-linejoin="round" stroke-width="2" d="M46.8259,29.022c0-4.3979-3.5781-7.9761-7.9761-7.9761h-10.6758c-.5522,0-1,.4478-1,1v27.9082c0,.5522,.4478,1,1,1h10.6758c4.3979,0,7.9761-3.5781,7.9761-7.9761,0-2.9995-1.666-5.6177-4.1216-6.978,2.4556-1.3604,4.1216-3.9785,4.1216-6.978Zm-2,13.9561c0,3.2954-2.6807,5.9761-5.9761,5.9761h-9.6758v-11.9482h9.6758c3.2954,0,5.9761,2.6792,5.9761,5.9722Zm-5.9761-7.9839c-.0206,0-.0378,.0105-.058,.0117h-9.6177v-11.96h9.6758c3.2954,0,5.9761,2.6807,5.9761,5.9761,0,3.293-2.6807,5.9722-5.9761,5.9722Z"/>
  </g>
</svg>
