<svg id="emoji" viewBox="0 0 72 72" version="1.1" xmlns="http://www.w3.org/2000/svg">
  <g id="color">
    <rect x="5" y="17" width="62" height="38" fill="#d22f27"/>
    <polygon fill="#f1b31c" points="5 17 5 55 67 17"/>
    <g>
      <path fill="none" stroke="#fff" stroke-linecap="round" stroke-linejoin="round" stroke-width="3" d="m46.24 27.67c0.2011 0.1408-9.044-2.459-5.06 6.075 3.623 7.761-10.23-2.525-11.32 3.865-0.7428 4.356-3.086 7.037-7.395 7.782"/>
      <path fill="none" stroke="#fff" stroke-linecap="round" stroke-linejoin="round" stroke-width="2" d="m40.81 32.58c2.651 1.756 5.4 3.373 7.745 1.011"/>
      <path fill="none" stroke="#fff" stroke-linecap="round" stroke-linejoin="round" stroke-width="2" d="m41.33 36.44c-0.966 4.229-0.4486 4.465 2.864 5.502"/>
      <circle cx="46.92" cy="43.06" r="1.5" fill="#fff"/>
      <circle cx="51.01" cy="32.07" r="1.5" fill="#fff"/>
      <g transform="matrix(1.5 0 0 1.5 -22.39 -22.64)" stroke-width="0.6667">
        <circle cx="35.19" cy="47.37" r="1" fill="#fff" stroke-width="0.4444"/>
      </g>
      <path fill="none" stroke="#fff" stroke-linecap="round" stroke-linejoin="round" stroke-width="2" d="m29.21 40.36c1.304 2.327 1.453 3.054 1.085 5.196"/>
      <path fill="none" stroke="#fff" stroke-linecap="round" stroke-linejoin="round" stroke-width="2" d="m29.3 38.71c1.54 0.5389 2.636 1.603 4.377 1.421"/>
      <g transform="matrix(1.5 0 0 1.5 -16.34 -31.18)" stroke-width="0.6667">
        <circle cx="35.19" cy="47.37" r="1" fill="#fff" stroke-width="0.4444"/>
      </g>
    </g>
  </g>
  <g id="line">
    <rect x="5" y="17" width="62" height="38" fill="none" stroke="#000" stroke-linecap="round" stroke-linejoin="round" stroke-width="2"/>
  </g>
</svg>
