<svg id="emoji" viewBox="0 0 72 72" xmlns="http://www.w3.org/2000/svg">
  <g id="color">
    <path d="M35.8999,34.6265c-4.7129-.813-7.6016-1.5205-7.6016-5.6387,0-3.3086,3.4951-6,7.792-6,3.709,0,6.9238,2.0342,7.6426,4.8369,.1377,.5361,.6836,.8589,1.2178,.7202,.5342-.1372,.8564-.6826,.7197-1.2173-.9434-3.6733-4.9717-6.3398-9.5801-6.3398-5.3994,0-9.792,3.5889-9.792,8,0,6.0117,4.9209,6.8608,9.2617,7.6099,5.0654,.874,8.1416,1.7417,8.1416,6.4146,0,3.3086-3.4951,6-7.792,6-3.708,0-6.9229-2.0361-7.6426-4.8408-.1377-.5356-.6816-.8564-1.2178-.7202-.5342,.1377-.8564,.6826-.7197,1.2173,.9434,3.6758,4.9727,6.3438,9.5801,6.3438,5.3994,0,9.792-3.5889,9.792-8,0-6.6943-5.4346-7.6323-9.8018-8.3857Z"/>
  </g>
  <g id="skin"/>
  <g id="skin-shadow"/>
  <g id="hair"/>
  <g id="line">
    <g id="line-2">
      <circle cx="36" cy="36" r="28" fill="none" stroke="#000" stroke-linejoin="round" stroke-width="2"/>
    </g>
    <path fill="none" stroke="#000" stroke-linejoin="round" stroke-width="2" d="M35.8999,34.6265c-4.7129-.813-7.6016-1.5205-7.6016-5.6387,0-3.3086,3.4951-6,7.792-6,3.709,0,6.9238,2.0342,7.6426,4.8369,.1377,.5361,.6836,.8589,1.2178,.7202,.5342-.1372,.8564-.6826,.7197-1.2173-.9434-3.6733-4.9717-6.3398-9.5801-6.3398-5.3994,0-9.792,3.5889-9.792,8,0,6.0117,4.9209,6.8608,9.2617,7.6099,5.0654,.874,8.1416,1.7417,8.1416,6.4146,0,3.3086-3.4951,6-7.792,6-3.708,0-6.9229-2.0361-7.6426-4.8408-.1377-.5356-.6816-.8564-1.2178-.7202-.5342,.1377-.8564,.6826-.7197,1.2173,.9434,3.6758,4.9727,6.3438,9.5801,6.3438,5.3994,0,9.792-3.5889,9.792-8,0-6.6943-5.4346-7.6323-9.8018-8.3857Z"/>
  </g>
</svg>
