<svg id="emoji" viewBox="0 0 72 72" xmlns="http://www.w3.org/2000/svg">
  <g id="color">
    <path d="M40.8496,21.0122h-10.6758c-.5527,0-1,.4478-1,1v28c0,.5522,.4473,1,1,1s1-.4478,1-1v-13.0518h9.6758c4.3984,0,7.9766-3.5762,7.9766-7.9722s-3.5781-7.9761-7.9766-7.9761Zm0,13.9482h-9.6758v-11.9482h9.6758c3.2959,0,5.9766,2.6807,5.9766,5.9761,0,3.293-2.6807,5.9722-5.9766,5.9722Z"/>
  </g>
  <g id="skin"/>
  <g id="skin-shadow"/>
  <g id="hair"/>
  <g id="line">
    <g id="line-2">
      <circle cx="36" cy="36" r="28" fill="none" stroke="#000" stroke-linejoin="round" stroke-width="2"/>
    </g>
    <path fill="none" stroke="#000" stroke-linejoin="round" stroke-width="2" d="M40.8496,21.0122h-10.6758c-.5527,0-1,.4478-1,1v28c0,.5522,.4473,1,1,1s1-.4478,1-1v-13.0518h9.6758c4.3984,0,7.9766-3.5762,7.9766-7.9722s-3.5781-7.9761-7.9766-7.9761Zm0,13.9482h-9.6758v-11.9482h9.6758c3.2959,0,5.9766,2.6807,5.9766,5.9761,0,3.293-2.6807,5.9722-5.9766,5.9722Z"/>
  </g>
</svg>
