<svg id="emoji" viewBox="0 0 72 72" xmlns="http://www.w3.org/2000/svg">
  <g id="color">
    <rect x="5" y="17" width="62" height="38" fill="#61b2e4"/>
    <polygon transform="translate(14.6 8.726) scale(.6848)" fill="#fcea2b" stroke="#fcea2b" stroke-linecap="round" stroke-linejoin="round" points="44.23 28.71 40.94 32.59 45.74 30.89 41.61 33.87 46.68 33.37 41.96 35.28 47 36 41.96 36.72 46.68 38.63 41.61 38.13 45.74 41.11 40.94 39.41 44.23 43.29 39.98 40.49 42.25 45.05 38.79 41.31 39.9 46.28 37.44 41.83 37.33 46.92 36 42 34.67 46.92 34.56 41.83 32.1 46.28 33.21 41.31 29.75 45.05 32.02 40.49 27.77 43.29 31.06 39.41 26.26 41.11 30.39 38.13 25.32 38.63 30.04 36.72 25 36 30.04 35.28 25.32 33.37 30.39 33.87 26.26 30.89 31.06 32.59 27.77 28.71 32.02 31.51 29.75 26.95 33.21 30.69 32.1 25.72 34.56 30.17 34.67 25.08 36 30 37.33 25.08 37.44 30.17 39.9 25.72 38.79 30.69 42.25 26.95 39.98 31.51"/>
    <path fill="none" stroke="#fcea2b" stroke-linecap="round" stroke-linejoin="round" stroke-width="2" d="m31.09 39.13s2.312 4.125 6.688 4.688c2.768 0.3559 1.376 0.6496-0.04232 1.065-0.8236 0.2413-1.676 0.5633-1.676 0.5633s1.315-0.5202 3.443-0.616c2.104-0.09466 1.471-0.06925 0.8339-0.2106-0.4556-0.1011-1.57-0.1957-1.263-0.2675 4.083-0.9558 7.427-2.98 8.33-5.222"/>
    <path fill="none" stroke="#fcea2b" stroke-linecap="round" stroke-linejoin="round" stroke-width="3.995" d="m10.5 22.02v27.95"/>
  </g>
  <g id="line">
    <rect x="5" y="17" width="62" height="38" fill="none" stroke="#000" stroke-linecap="round" stroke-linejoin="round" stroke-width="2"/>
  </g>
</svg>
