<svg id="emoji" viewBox="0 0 72 72" xmlns="http://www.w3.org/2000/svg">
  <g id="color">
    <path d="M47.8262,28.9883c0-4.3979-3.5781-7.9761-7.9756-7.9761h-10.6768c-.5527,0-1,.4478-1,1v28c0,.5522,.4473,1,1,1s1-.4478,1-1v-13.0518h9.2615l5.8088,13.4453c.1631,.3779,.5312,.604,.9189,.604,.1318,0,.2666-.0269,.3955-.0825,.5068-.2192,.7402-.8076,.5215-1.3145l-5.5452-12.835c3.5908-.7753,6.2913-3.9715,6.2913-7.7896Zm-7.9756,5.9722h-9.6768v-11.9482h9.6768c3.2949,0,5.9756,2.6807,5.9756,5.9761,0,3.293-2.6807,5.9722-5.9756,5.9722Z"/>
  </g>
  <g id="skin"/>
  <g id="skin-shadow"/>
  <g id="hair"/>
  <g id="line">
    <g id="line-2">
      <circle cx="36" cy="36" r="28" fill="none" stroke="#000" stroke-linejoin="round" stroke-width="2"/>
    </g>
    <path fill="none" stroke="#000" stroke-linejoin="round" stroke-width="2" d="M47.8262,28.9883c0-4.3979-3.5781-7.9761-7.9756-7.9761h-10.6768c-.5527,0-1,.4478-1,1v28c0,.5522,.4473,1,1,1s1-.4478,1-1v-13.0518h9.2615l5.8088,13.4453c.1631,.3779,.5312,.604,.9189,.604,.1318,0,.2666-.0269,.3955-.0825,.5068-.2192,.7402-.8076,.5215-1.3145l-5.5452-12.835c3.5908-.7753,6.2913-3.9715,6.2913-7.7896Zm-7.9756,5.9722h-9.6768v-11.9482h9.6768c3.2949,0,5.9756,2.6807,5.9756,5.9761,0,3.293-2.6807,5.9722-5.9756,5.9722Z"/>
  </g>
</svg>
