<svg id="emoji" viewBox="0 0 72 72" xmlns="http://www.w3.org/2000/svg">
  <g id="color">
    <rect x="5" y="17" width="62" height="38" fill="#d22f27"/>
    <rect x="5" y="17" width="21" height="38" fill="#5c9e31"/>
    <circle cx="26" cy="36" r="12" fill="none" stroke="#fcea2b" stroke-miterlimit="10" stroke-width="2"/>
    <line x1="26" x2="26" y1="24" y2="48" fill="none" stroke="#fcea2b" stroke-linecap="round" stroke-linejoin="round"/>
    <polygon fill="none" stroke="#fcea2b" stroke-linecap="round" stroke-linejoin="round" points="26 39.5 17 44 35 44 26 39.5"/>
    <polygon fill="none" stroke="#fcea2b" stroke-linecap="round" stroke-linejoin="round" points="26 33.5 35 28 26.5 29.5 17 28 26 33.5"/>
    <polygon fill="none" stroke="#fcea2b" stroke-linecap="round" stroke-linejoin="round" points="38 36 26 41 14 36 26 31 38 36"/>
    <path fill="#fff" stroke="#d22f27" stroke-linecap="round" stroke-linejoin="round" stroke-width="2" d="M20.2,29H31.8V39.1c0,2.5-2.6,4.6-5.8,4.6h0c-3.2,0-5.8-2.1-5.8-4.6V29Z"/>
    <circle cx="26" cy="32.8" r="0.7" fill="#1e50a0" stroke="#1e50a0" stroke-linecap="round" stroke-linejoin="round"/>
    <circle cx="26" cy="38.7" r="0.7" fill="#1e50a0" stroke="#1e50a0" stroke-linecap="round" stroke-linejoin="round"/>
    <circle cx="26" cy="35.7" r="0.7" fill="#1e50a0" stroke="#1e50a0" stroke-linecap="round" stroke-linejoin="round"/>
    <circle cx="29" cy="35.7" r="0.7" fill="#1e50a0" stroke="#1e50a0" stroke-linecap="round" stroke-linejoin="round"/>
    <circle cx="23" cy="35.7" r="0.7" fill="#1e50a0" stroke="#1e50a0" stroke-linecap="round" stroke-linejoin="round"/>
  </g>
  <g id="line">
    <rect x="5" y="17" width="62" height="38" fill="none" stroke="#000" stroke-linecap="round" stroke-linejoin="round" stroke-width="2"/>
  </g>
</svg>
