<svg id="emoji" viewBox="0 0 72 72" xmlns="http://www.w3.org/2000/svg">
  <g id="color">
    <rect x="5" y="17" width="62" height="38" fill="#5c9e31"/>
    <rect x="5" y="30" width="62" height="12" fill="#d22f27"/>
    <rect x="5" y="17" width="62" height="13" fill="#1e50a0"/>
    <circle cx="25" cy="36.5" r="13" fill="#fcea2b" stroke="#000" stroke-miterlimit="10"/>
    <line x1="25" x2="25" y1="23.56" y2="48.56" fill="none" stroke="#000" stroke-linecap="round" stroke-linejoin="round"/>
    <ellipse cx="25" cy="36.93" rx="1.785" ry="1.071" stroke="#000" stroke-linecap="round" stroke-linejoin="round" stroke-width="0"/>
    <ellipse cx="25" cy="42.49" rx="1.162" ry="1.55" stroke="#000" stroke-linecap="round" stroke-linejoin="round" stroke-width="0.7749"/>
    <circle cx="25" cy="31.29" r="1.353" stroke="#000" stroke-linecap="round" stroke-linejoin="round" stroke-width="0.9021"/>
    <line x1="22.83" x2="27.17" y1="28.61" y2="26.11" fill="none" stroke="#000" stroke-linecap="round" stroke-linejoin="round"/>
    <path stroke="#000" stroke-miterlimit="10" stroke-width="1.046" d="m25 49.49a10.75 17.05 0 0 0 3.694-1.05c-0.2219-1.632-1.782-2.902-3.694-2.902s-3.472 1.27-3.694 2.902a10.75 17.05 0 0 0 3.694 1.05z"/>
    <path fill="none" stroke="#000" stroke-linecap="round" stroke-linejoin="round" d="m22.39 42.45c1.114-3.639 4.098-3.639 5.216 0"/>
    <path fill="none" stroke="#000" stroke-linecap="round" stroke-linejoin="round" d="m22.4 31.36c1.11 3.798 4.085 3.798 5.199 0"/>
    <line x1="23.35" x2="26.65" y1="35.25" y2="35.25" fill="none" stroke="#000" stroke-linecap="round" stroke-linejoin="round"/>
    <line x1="23.35" x2="26.65" y1="38.61" y2="38.61" fill="none" stroke="#000" stroke-linecap="round" stroke-linejoin="round" stroke-width="0.9999"/>
  </g>
  <g id="line">
    <rect x="5" y="17" width="62" height="38" fill="none" stroke="#000" stroke-linecap="round" stroke-linejoin="round" stroke-width="2"/>
  </g>
</svg>
