<svg id="emoji" viewBox="0 0 72 72" xmlns="http://www.w3.org/2000/svg">
  <g id="color">
    <path d="M44,49h-14.2764l15.1445-26.5039c.1768-.3096,.1758-.6899-.0029-.998-.1797-.3081-.5088-.498-.8652-.498H28c-.5527,0-1,.4478-1,1s.4473,1,1,1h14.2764l-15.1445,26.5039c-.1768,.3096-.1758,.6899,.0029,.998,.1797,.3081,.5088,.498,.8652,.498h16c.5527,0,1-.4478,1-1s-.4473-1-1-1Z"/>
  </g>
  <g id="skin"/>
  <g id="skin-shadow"/>
  <g id="hair"/>
  <g id="line">
    <g id="line-2">
      <circle cx="36" cy="36" r="28" fill="none" stroke="#000" stroke-linejoin="round" stroke-width="2"/>
    </g>
    <path fill="none" stroke="#000" stroke-linejoin="round" stroke-width="2" d="M44,49h-14.2764l15.1445-26.5039c.1768-.3096,.1758-.6899-.0029-.998-.1797-.3081-.5088-.498-.8652-.498H28c-.5527,0-1,.4478-1,1s.4473,1,1,1h14.2764l-15.1445,26.5039c-.1768,.3096-.1758,.6899,.0029,.998,.1797,.3081,.5088,.498,.8652,.498h16c.5527,0,1-.4478,1-1s-.4473-1-1-1Z"/>
  </g>
</svg>
