<?xml version="1.0" encoding="utf-8"?>
<!-- Generator: Adobe Illustrator 19.1.0, SVG Export Plug-In . SVG Version: 6.00 Build 0)  -->
<svg version="1.1" id="emoji" xmlns="http://www.w3.org/2000/svg" xmlns:xlink="http://www.w3.org/1999/xlink" x="0px" y="0px"
	 viewBox="0 0 72 72" enable-background="new 0 0 72 72" xml:space="preserve">
<g id="_xD83C__xDE02__xFE0F_">
	<path fill="#D0CECE" stroke="#1D1D1B" stroke-width="2" stroke-miterlimit="10" d="M59,60H13c-0.5,0-1-0.4-1-1V13c0-0.5,0.4-1,1-1
		H59c0.5,0,1,0.4,1,1V59C60,59.6,59.6,60,59,60z"/>
	<path fill="#1D1D1B" d="M49.1,29.9h-5.5v-4.8c0-0.3-0.2-0.5-0.5-0.5h-1.7c-0.3,0-0.5,0.2-0.5,0.5v4.8h-9.2v-4.8
		c0-0.3-0.2-0.5-0.5-0.5h-1.7c-0.3,0-0.5,0.2-0.5,0.5v4.8h-6.2c-0.3,0-0.5,0.2-0.5,0.5v1.7c0,0.3,0.2,0.5,0.5,0.5H29v7.6
		c0,0.3,0.2,0.5,0.5,0.5h1.7c0.3,0,0.5-0.2,0.5-0.5v-7.6h9.2v4.9c0,3-1.1,5.8-3.1,7.7c-1.3,1.3-2.7,2-4.2,2.1
		c-0.3,0-0.5,0.2-0.5,0.5v1.7c0,0.3,0.2,0.5,0.5,0.5c2.2-0.1,4.3-1.1,6.1-2.9c2.4-2.4,3.8-6,3.8-9.6v-4.9h5.5c0.3,0,0.5-0.2,0.5-0.5
		v-1.7C49.6,30.1,49.4,29.9,49.1,29.9z"/>
</g>
</svg>
