<svg id="emoji" viewBox="0 0 72 72" version="1.1" xmlns="http://www.w3.org/2000/svg">
  <g id="color" transform="matrix(.2609 0 0 .2609 -91.17 -3.173)">
    <rect x="391.7" y="54.17" width="191.7" height="191.7" fill="#92d3f5" stroke-width="0"/>
    <path transform="matrix(1.04 0 0 1.04 -19.52 -356)" fill="none" stroke="#000" stroke-linecap="round" stroke-linejoin="round" stroke-miterlimit="1.5" stroke-width="7.369" d="m535.7 527.7s8.831 8.689 19.79 27.23" clip-rule="evenodd"/>
    <path transform="matrix(1.04 0 0 1.04 -19.52 -356)" fill="none" stroke="#000" stroke-linecap="round" stroke-linejoin="round" stroke-miterlimit="1.5" stroke-width="7.37" d="m501.7 529.8s7.768 16.6 9.567 23.63" clip-rule="evenodd"/>
    <path transform="matrix(1.04 0 0 1.04 -19.52 -356)" fill="none" stroke="#000" stroke-linecap="round" stroke-linejoin="round" stroke-miterlimit="1.5" stroke-width="7.37" d="m467.7 530.9s3.026 12.02 3.189 22.57" clip-rule="evenodd"/>
    <path transform="matrix(1.04 0 0 1.04 -19.52 -356)" fill="none" stroke="#000" stroke-linecap="round" stroke-linejoin="round" stroke-miterlimit="1.5" stroke-width="7.37" d="m419 555.9c13.82-10.55 19.87-27.23 19.87-27.23" clip-rule="evenodd"/>
    <path transform="matrix(1.04 0 0 1.04 -19.52 -356)" fill="none" stroke="#000" stroke-linecap="square" stroke-linejoin="round" stroke-miterlimit="1.5" stroke-width="7.37" d="m441.7 437.8v74.65" clip-rule="evenodd"/>
    <path transform="matrix(1.04 0 0 1.04 10.64 -356)" fill="none" stroke="#000" stroke-linecap="square" stroke-linejoin="round" stroke-miterlimit="1.5" stroke-width="7.37" d="m441.7 436.8v75.65" clip-rule="evenodd"/>
    <path transform="matrix(1.04 0 0 1.04 41.89 -356)" fill="none" stroke="#000" stroke-linecap="square" stroke-linejoin="round" stroke-miterlimit="1.5" stroke-width="7.37" d="m441.7 436.8v75.65" clip-rule="evenodd"/>
    <path transform="matrix(1.04 0 0 1.04 73.1 -356)" fill="none" stroke="#000" stroke-linecap="square" stroke-linejoin="round" stroke-miterlimit="1.5" stroke-width="7.37" d="m441.7 436.8v75.65" clip-rule="evenodd"/>
    <path transform="matrix(1.04 0 0 1.04 -19.52 -356)" fill="none" stroke="#000" stroke-linecap="round" stroke-linejoin="round" stroke-miterlimit="1.5" stroke-width="7.37" d="m421.7 513.3 130.5 0.132" clip-rule="evenodd"/>
    <path transform="matrix(1.04 0 0 1.04 -19.52 -356)" fill="none" stroke="#000" stroke-linecap="round" stroke-linejoin="round" stroke-miterlimit="1.5" stroke-width="7.37" d="m419.2 474.6 136.3 0.021" clip-rule="evenodd"/>
    <path transform="matrix(1.04 0 0 1.04 -19.52 -356)" fill="none" stroke="#000" stroke-linecap="round" stroke-linejoin="round" stroke-miterlimit="1.5" stroke-width="7.37" d="m548.7 436.2-106.6 0.058" clip-rule="evenodd"/>
    <path transform="matrix(1.04 0 0 1.04 -19.52 -356)" fill="none" stroke="#000" stroke-linecap="round" stroke-linejoin="round" stroke-miterlimit="1.5" stroke-width="7.37" d="m419.5 457.9c25.72-22.83 31.99-41.11 31.99-41.11" clip-rule="evenodd"/>
  </g>
  <g id="line" transform="matrix(1.087 0 0 1.087 -3.129 -3.173)">
    <rect x="391.7" y="54.17" width="191.7" height="191.7" transform="matrix(.24 0 0 .24 -81 0)" fill="none" stroke="#000" stroke-linecap="round" stroke-linejoin="round" stroke-miterlimit="1.5" stroke-width="7.667" clip-rule="evenodd"/>
  </g>
</svg>
