<svg id="emoji" xmlns="http://www.w3.org/2000/svg" viewBox="0 0 72 72">
  <g id="color">
    <path d="M13.7,12H58.4a1.6855,1.6855,0,0,1,1.7,1.7V58.4a1.6855,1.6855,0,0,1-1.7,1.7H13.7A1.6855,1.6855,0,0,1,12,58.4V13.7A1.6275,1.6275,0,0,1,13.7,12Z" fill="#d0cfce"/>
  </g>
  <g id="line">
    <path d="M13.7,12H58.4a1.6855,1.6855,0,0,1,1.7,1.7V58.4a1.6855,1.6855,0,0,1-1.7,1.7H13.7A1.6855,1.6855,0,0,1,12,58.4V13.7A1.6275,1.6275,0,0,1,13.7,12Z" fill="none" stroke="#000" stroke-miterlimit="10" stroke-width="2"/>
    <line x1="25" y1="39" x2="47" y2="39" fill="none" stroke="#000" stroke-linecap="round" stroke-linejoin="round" stroke-width="2"/>
    <line x1="25" y1="30" x2="47" y2="30" fill="none" stroke="#000" stroke-linecap="round" stroke-linejoin="round" stroke-width="2"/>
    <line x1="25" y1="21" x2="47" y2="21" fill="none" stroke="#000" stroke-linecap="round" stroke-linejoin="round" stroke-width="2"/>
    <path d="M25,21V39c0,5-1,9-4,12" fill="none" stroke="#000" stroke-linecap="round" stroke-linejoin="round" stroke-width="2"/>
    <path d="M47,21V49a2.0059,2.0059,0,0,1-2,2H39" fill="none" stroke="#000" stroke-linecap="round" stroke-linejoin="round" stroke-width="2"/>
  </g>
</svg>
