<svg id="emoji" xmlns="http://www.w3.org/2000/svg" viewBox="0 0 72 72">
  <g id="color">
    <path d="M59.0349,60h-46.07A.9679.9679,0,0,1,12,59.0349v-46.07A.9679.9679,0,0,1,12.9651,12h46.07A.9679.9679,0,0,1,60,12.9651v46.07A.9679.9679,0,0,1,59.0349,60Z" fill="#ea5a47"/>
  </g>
  <g id="line">
    <path d="M59.0349,60h-46.07A.9679.9679,0,0,1,12,59.0349v-46.07A.9679.9679,0,0,1,12.9651,12h46.07A.9679.9679,0,0,1,60,12.9651v46.07A.9679.9679,0,0,1,59.0349,60Z" fill="none" stroke="#000" stroke-miterlimit="10" stroke-width="2"/>
    <path d="M20,31c7,0,15-11,15-11s9.5,10.5,15.5,11.5" fill="none" stroke="#000000" stroke-linecap="round" stroke-linejoin="round" stroke-width="2"/>
    <line x1="28.5" y1="30.5" x2="42.5" y2="30.5" fill="none" stroke="#000000" stroke-linecap="round" stroke-linejoin="round" stroke-width="2"/>
    <polyline points="25.5 50.5 25.5 37.5 45.5 37.5 45.5 50.5" fill="none" stroke="#000000" stroke-linecap="round" stroke-linejoin="round" stroke-width="2"/>
    <line x1="26.5" y1="48.5" x2="45.5" y2="48.5" fill="none" stroke="#000000" stroke-linecap="round" stroke-linejoin="round" stroke-width="2"/>
  </g>
  <g id="color-foreground">
    <path d="M20,31c7,0,15-11,15-11s9.5,10.5,15.5,11.5" fill="none" stroke="#ffffff" stroke-linecap="round" stroke-linejoin="round" stroke-width="2"/>
    <line x1="28.5" y1="30.5" x2="42.5" y2="30.5" fill="none" stroke="#ffffff" stroke-linecap="round" stroke-linejoin="round" stroke-width="2"/>
    <polyline points="25.5 50.5 25.5 37.5 45.5 37.5 45.5 50.5" fill="none" stroke="#ffffff" stroke-linecap="round" stroke-linejoin="round" stroke-width="2"/>
    <line x1="26.5" y1="48.5" x2="45.5" y2="48.5" fill="none" stroke="#ffffff" stroke-linecap="round" stroke-linejoin="round" stroke-width="2"/>
  </g>
</svg>
