<svg id="emoji" xmlns="http://www.w3.org/2000/svg" viewBox="0 0 72 72">
  <g id="color">
    <rect x="11.2344" y="11.9216" width="48.9841" height="48.9841" rx="1.6991" fill="#d0cfce"/>
  </g>
  <g id="line">
    <g>
      <line x1="22.9795" y1="31.4292" x2="35.9717" y2="31.4292" fill="none" stroke="#000" stroke-linecap="round" stroke-miterlimit="10" stroke-width="2"/>
      <line x1="22.9795" y1="25.4179" x2="37.0869" y2="25.4179" fill="none" stroke="#000" stroke-linecap="round" stroke-miterlimit="10" stroke-width="2"/>
      <line x1="22.2226" y1="25.4179" x2="36.3299" y2="25.4179" fill="none" stroke="#000" stroke-linecap="round" stroke-miterlimit="10" stroke-width="2"/>
      <line x1="23.3965" y1="35.5475" x2="35.5363" y2="35.5475" fill="none" stroke="#000" stroke-linecap="round" stroke-miterlimit="10" stroke-width="2"/>
      <line x1="24.1105" y1="50.7068" x2="35.0249" y2="50.7068" fill="none" stroke="#000" stroke-linecap="round" stroke-miterlimit="10" stroke-width="2"/>
      <line x1="21.7278" y1="40.1152" x2="37.1933" y2="40.1152" fill="none" stroke="#000" stroke-linecap="round" stroke-miterlimit="10" stroke-width="2"/>
      <line x1="29.4756" y1="28.8853" x2="29.4756" y2="40.1152" fill="none" stroke="#000" stroke-linecap="round" stroke-miterlimit="10" stroke-width="2"/>
      <line x1="42.2216" y1="25.6206" x2="42.2216" y2="43.0035" fill="none" stroke="#000" stroke-linecap="round" stroke-miterlimit="10" stroke-width="2"/>
      <line x1="29.4756" y1="21.9511" x2="29.4756" y2="25.1559" fill="none" stroke="#000" stroke-linecap="round" stroke-miterlimit="10" stroke-width="2"/>
      <line x1="37.0869" y1="25.4179" x2="37.0869" y2="28.8853" fill="none" stroke="#000" stroke-linecap="round" stroke-miterlimit="10" stroke-width="2"/>
      <line x1="22.2226" y1="25.4179" x2="22.2226" y2="28.8853" fill="none" stroke="#000" stroke-linecap="round" stroke-miterlimit="10" stroke-width="2"/>
      <polyline points="24.11 52.46 24.11 44.388 35.168 44.388 35.168 52.46" fill="none" stroke="#000" stroke-linecap="round" stroke-linejoin="round" stroke-width="2"/>
      <polyline points="49.416 21.951 49.416 51.87 43.774 51.87" fill="none" stroke="#000" stroke-linecap="round" stroke-linejoin="round" stroke-width="2"/>
      <rect x="11.2344" y="11.9216" width="48.9841" height="48.9841" rx="1.6991" fill="none" stroke="#000" stroke-miterlimit="10" stroke-width="2"/>
    </g>
  </g>
</svg>
