<svg id="emoji" xmlns="http://www.w3.org/2000/svg" viewBox="0 0 72 72">
  <g id="line-supplement">
    <g>
      <g>
        <path d="M41.7734,19.4732a7.2185,7.2185,0,0,1-5.695,9.864" fill="none" stroke="#000" stroke-linecap="round" stroke-miterlimit="10" stroke-width="2"/>
        <path d="M41.7734,19.4732a6.0541,6.0541,0,0,1-5.695,9.864" fill="none" stroke="#000" stroke-linecap="round" stroke-miterlimit="10" stroke-width="2"/>
      </g>
      <polygon points="22 22.381 23.854 23.706 23.166 21.533 25 20.18 22.721 20.073 22 18 21.279 20.162 19 20.18 20.834 21.533 20.146 23.706 22 22.381" stroke="#000" stroke-linejoin="round" stroke-width="2"/>
      <polygon points="27 32.46 27.618 32.902 27.389 32.178 28 31.727 27.24 31.721 27 31 26.76 31.721 26 31.727 26.611 32.088 26.382 32.902 27 32.46" stroke="#000" stroke-linejoin="round" stroke-width="0.75"/>
      <polygon points="51.5 26.337 52.427 27 52.083 25.913 53 25.237 51.86 25.138 51.5 24.147 51.14 25.228 50 25.237 50.917 25.913 50.573 27 51.5 26.337" stroke="#000" stroke-linejoin="round"/>
    </g>
  </g>
  <g id="color">
    <rect x="12" y="12" width="48" height="48" rx="1" fill="#1e50a0"/>
    <g>
      <g>
        <path d="M41.7734,19.4732a7.2185,7.2185,0,0,1-5.695,9.864" fill="none" stroke="#f1b31c" stroke-linecap="round" stroke-miterlimit="10" stroke-width="2"/>
        <path d="M41.7734,19.4732a6.0541,6.0541,0,0,1-5.695,9.864" fill="none" stroke="#f1b31c" stroke-linecap="round" stroke-miterlimit="10" stroke-width="2"/>
      </g>
      <polygon points="22 22.381 23.854 23.706 23.166 21.533 25 20.18 22.721 20.073 22 18 21.279 20.162 19 20.18 20.834 21.533 20.146 23.706 22 22.381" fill="#f1b31c" stroke="#f1b31c" stroke-linejoin="round" stroke-width="2"/>
      <polygon points="27 32.46 27.618 32.902 27.389 32.178 28 31.727 27.24 31.721 27 31 26.76 31.721 26 31.727 26.611 32.088 26.382 32.902 27 32.46" fill="#f1b31c" stroke="#f1b31c" stroke-linejoin="round" stroke-width="0.75"/>
      <polygon points="51.5 26.337 52.427 27 52.083 25.913 53 25.237 51.86 25.138 51.5 24.147 51.14 25.228 50 25.237 50.917 25.913 50.573 27 51.5 26.337" fill="#f1b31c" stroke="#f1b31c" stroke-linejoin="round"/>
    </g>
  </g>
  <g id="line">
    <g>
      <line x1="12.9231" y1="48.0385" x2="59.0769" y2="48.0385" fill="none" stroke="#000" stroke-linecap="round" stroke-miterlimit="10" stroke-width="2"/>
      <line x1="24" y1="36.9615" x2="12" y2="48.0385" fill="none" stroke="#000" stroke-linecap="round" stroke-miterlimit="10" stroke-width="2"/>
      <line x1="24" y1="36.9615" x2="24" y2="60.0385" fill="none" stroke="#000" stroke-miterlimit="10" stroke-width="2"/>
      <line x1="48" y1="60.0385" x2="48" y2="36.9615" fill="none" stroke="#000" stroke-miterlimit="10" stroke-width="2"/>
      <g>
        <line x1="24" y1="41.2219" x2="16.6154" y2="48.0385" fill="none" stroke="#000" stroke-miterlimit="10" stroke-width="2"/>
        <line x1="24" y1="45.4823" x2="21.2308" y2="48.0385" fill="none" stroke="#000" stroke-miterlimit="10" stroke-width="2"/>
      </g>
      <line x1="48" y1="36.9615" x2="36" y2="48.0385" fill="none" stroke="#000" stroke-linecap="round" stroke-miterlimit="10" stroke-width="2"/>
      <g>
        <line x1="48" y1="41.2219" x2="40.6154" y2="48.0385" fill="none" stroke="#000" stroke-miterlimit="10" stroke-width="2"/>
        <line x1="48" y1="45.4823" x2="45.2308" y2="48.0385" fill="none" stroke="#000" stroke-miterlimit="10" stroke-width="2"/>
      </g>
      <line x1="24" y1="36.9615" x2="36" y2="48.0385" fill="none" stroke="#000" stroke-linecap="round" stroke-miterlimit="10" stroke-width="2"/>
      <g>
        <line x1="24" y1="41.2219" x2="31.3846" y2="48.0385" fill="none" stroke="#000" stroke-miterlimit="10" stroke-width="2"/>
        <line x1="24" y1="45.4823" x2="26.7692" y2="48.0385" fill="none" stroke="#000" stroke-miterlimit="10" stroke-width="2"/>
      </g>
      <line x1="48" y1="36.9615" x2="60" y2="48.0385" fill="none" stroke="#000" stroke-linecap="round" stroke-miterlimit="10" stroke-width="2"/>
      <g>
        <line x1="48" y1="41.2219" x2="55.3846" y2="48.0385" fill="none" stroke="#000" stroke-miterlimit="10" stroke-width="2"/>
        <line x1="48" y1="45.4823" x2="50.7692" y2="48.0385" fill="none" stroke="#000" stroke-miterlimit="10" stroke-width="2"/>
      </g>
      <rect x="12" y="12" width="48" height="48" rx="1" fill="none" stroke="#000" stroke-linejoin="round" stroke-width="2"/>
    </g>
  </g>
</svg>
