<?xml version="1.0" encoding="utf-8"?>
<!-- Generator: Adobe Illustrator 19.1.0, SVG Export Plug-In . SVG Version: 6.00 Build 0)  -->
<svg version="1.1" id="emoji" xmlns="http://www.w3.org/2000/svg" xmlns:xlink="http://www.w3.org/1999/xlink" x="0px" y="0px"
	 viewBox="0 0 72 72" enable-background="new 0 0 72 72" xml:space="preserve">
<g id="_xD83C__xDF0A__1_">
	<g>
		<path fill="#92D3F5" d="M4,28.2C4,14.8,10.3,1.9,27.8,4v0C15,19.3,26.3,43.7,56.4,41.6c4.3-0.3,8.9-1.8,12.6-3.7v30.1
			c0,0.6-0.5,1-1,1L4,69L4,28.2"/>
		<path fill="#61B2E4" d="M21.8,12.2c-3.8,7.2-6,19,6.5,31.2c0,0,20.2,15.3,40.7,4.9V37.3c0,0-11.1,7.6-27.5,2.3
			C26.1,34.8,22,23.2,22.6,18.9c0.2-1.5-0.1-3.9,0.8-6C23.7,11.9,22.3,11.2,21.8,12.2z"/>
	</g>
	<path fill="none" stroke="#000000" stroke-width="2" stroke-linecap="round" stroke-linejoin="round" stroke-miterlimit="10" d="
		M4,68V27.8 M68,47.9L68,68 M4,27.8 M27.8,4C10.3,2,4,14.7,4,27.8"/>
	<path fill="none" stroke="#000000" stroke-width="2" stroke-linecap="round" stroke-linejoin="round" stroke-miterlimit="10" d="
		M68,37.5c-3.6,1.9-7.3,3.2-11.6,3.5C26.2,43.1,15,19.1,27.8,4"/>
	<path fill="none" stroke="#000000" stroke-width="2" stroke-linecap="round" stroke-linejoin="round" stroke-miterlimit="10" d="
		M68,47.9c-4.8,2.7-11.2,3.4-19,3C15,49.2,14.2,14,27.8,4"/>
	<g>
		<g>
			<g>
				<path fill="#92D3F5" d="M44.9,9.7c1.7,1.9,1.6,4.7-0.2,6.3s-4.6,1.3-6.3-0.6c0,0-2.1-2.3-3-8.9c0,0-0.3-1.3,1-1
					C42.8,7.4,44.9,9.7,44.9,9.7"/>
			</g>
			<g>
				<path fill="#61B2E4" d="M35.4,6.1c4.4-0.6,9.2,3.4,9.2,3.4c2.1,2.4,1.9,5,0.1,6.6C44.6,16,43.6,10.6,35.4,6.1"/>
			</g>
		</g>
		
			<path fill="none" stroke="#000000" stroke-width="1.9" stroke-linecap="round" stroke-linejoin="round" stroke-miterlimit="10" d="
			M44.9,9.7c1.7,1.9,1.6,4.7-0.2,6.3s-4.6,1.3-6.3-0.6c0,0-2.1-2.3-3-8.9c0,0-0.3-1.3,1-1C42.8,7.4,44.9,9.7,44.9,9.7"/>
	</g>
	<g>
		<path fill="none" stroke="#000000" stroke-width="2" stroke-linecap="round" stroke-linejoin="round" stroke-miterlimit="10" d="
			M63.9,63.3c-3.4,0-3.4-2.1-6.8-2.1c-3.4,0-3.4,2.1-6.8,2.1c-3.4,0-3.4-2.1-6.8-2.1c-3.4,0-3.4,2.1-6.9,2.1s-3.4-2.1-6.9-2.1"/>
	</g>
</g>
</svg>
