<svg id="emoji" xmlns="http://www.w3.org/2000/svg" viewBox="0 0 72 72">
  <g id="color">
    <path fill="#EA5A47" d="M68,4v7.0655c0,0-21.0692-1.2795-39.2572,15.7532C14,40.625,11.0655,56.7497,11.0655,68H4
		c0,0-0.875-27.375,19.4823-45.9784C44.0151,3.2577,68,4,68,4z" stroke="none"></path>
    <path fill="#F4AA41" d="M68,11.0655v6.5303c0,0-19.4027-2.3018-35.0583,14.1917C20.875,44.5,17.5958,56.7497,17.5958,68h-6.5303
		c0,0-1.7452-22.2498,17.6773-41.1813C45.7411,10.25,68,11.0655,68,11.0655z" stroke="none"></path>
    <path fill="#FCEA2B" d="M68,17.5958l-0.0783,6.0166c0,0-17.6982,0.4474-29.0177,10.7693
		C26.6195,45.5836,23.4823,56.7497,23.4823,68H17.974c0,0-1.9167-21.1193,16.672-38.2028C46.9271,18.5106,68,17.5958,68,17.5958z" stroke="none"></path>
    <path fill="#B1CC33" d="M67.9217,23.6124L68,29.1932c0,0-14.4028-1.6793-25.2021,9.1856C33.0479,48.188,28.9912,56.7497,28.9912,68
		h-5.5089c0,0-1.1238-19.7334,14.695-33.4441C52.8366,21.8501,67.9217,23.6124,67.9217,23.6124z" stroke="none"></path>
    <path fill="#92D3F5" d="M68,29.1932v5.1886c0,0-14.9112-0.4458-24.0716,10.05C38.2009,50.9942,35.125,58.0625,34.2441,68H29.25
		c0,0-1.4906-17.2046,12.4255-28.4705C58.1253,26.2122,68,29.1932,68,29.1932z" stroke="none"></path>
    <path fill="#B399C8" d="M68,34.3817v4.6709c0,0-13.7142,0.8416-19.3982,7.4619C41.9483,54.264,41.125,56.25,39.0527,68h-4.8086
		c0,0-1.2441-11.375,11.1569-24.971C53.1017,34.5863,68,34.3817,68,34.3817z" stroke="none"></path>
  </g>
  <g id="hair"> </g>
  <g id="skin"> </g>
  <g id="skin-shadow"> </g>
  <g id="line">
    <path fill="none" stroke="#000000" stroke-width="2" stroke-linecap="round" stroke-linejoin="round" stroke-miterlimit="10" d="
		M68,17.5958v21.4569c-15.9872,0-28.9473,12.9602-28.9473,28.9473 M34.2441,68c0-18.5669,15.113-33.6183,33.7559-33.6183
		 M68,29.1932c-21.544,0-39.0088,17.3744-39.0088,38.8068 M68,11.0655v6.5303c-27.8375,0-50.4042,22.5667-50.4042,50.4042
		 M11.0655,68c0-31.4441,25.4904-56.9345,56.9345-56.9345V4C32.6538,4,4,32.6538,4,68 M39.0527,68h-4.8086h-5.2529h-4.6517H18.453
		h-7.3875H4 M68,23.6124c-24.5432,0-44.5177,19.873-44.5177,44.3876"></path>
  </g>
</svg>