<?xml version="1.0" encoding="utf-8"?>
<!-- Generator: Adobe Illustrator 19.1.0, SVG Export Plug-In . SVG Version: 6.00 Build 0)  -->
<svg version="1.1" id="emoji" xmlns="http://www.w3.org/2000/svg" xmlns:xlink="http://www.w3.org/1999/xlink" x="0px" y="0px"
	 viewBox="0 0 72 72" enable-background="new 0 0 72 72" xml:space="preserve">
<g id="_xD83C__xDF08__1_">
	<path fill="#EA5A47" d="M68,4v7.1c0,0-21.1-1.3-39.3,15.8C14,40.6,11.1,56.7,11.1,68H4c0,0-0.9-27.4,19.5-46C44,3.3,68,4,68,4z"/>
	<path fill="#F4AA41" d="M68,11.1v6.5c0,0-19.4-2.3-35.1,14.2C20.9,44.5,17.6,56.7,17.6,68h-6.5c0,0-1.7-22.2,17.7-41.2
		C45.7,10.2,68,11.1,68,11.1z"/>
	<path fill="#FCEA2B" d="M68,17.6l-0.1,6c0,0-17.7,0.4-29,10.8C26.6,45.6,23.5,56.7,23.5,68H18c0,0-1.9-21.1,16.7-38.2
		C46.9,18.5,68,17.6,68,17.6z"/>
	<path fill="#B1CC33" d="M67.9,23.6l0.1,5.6c0,0-14.4-1.7-25.2,9.2C33,48.2,29,56.7,29,68h-5.5c0,0-1.1-19.7,14.7-33.4
		C52.8,21.9,67.9,23.6,67.9,23.6z"/>
	<path fill="#92D3F5" d="M68,29.2v5.2c0,0-14.9-0.4-24.1,10.1C38.2,51,35.1,58.1,34.2,68h-5c0,0-1.5-17.2,12.4-28.5
		C58.1,26.2,68,29.2,68,29.2z"/>
	<path fill="#B399C8" d="M68,34.4v4.7c0,0-13.7,0.8-19.4,7.5c-6.7,7.7-7.5,9.7-9.5,21.5h-4.8c0,0-1.2-11.4,11.2-25
		C53.1,34.6,68,34.4,68,34.4z"/>
	<path fill="none" stroke="#000000" stroke-width="2" stroke-linecap="round" stroke-linejoin="round" stroke-miterlimit="10" d="
		M68,17.6v21.5c-16,0-28.9,13-28.9,28.9 M34.2,68c0-18.6,15.1-33.6,33.8-33.6 M68,29.2c-21.5,0-39,17.4-39,38.8 M68,11.1v6.5
		c-27.8,0-50.4,22.6-50.4,50.4 M11.1,68c0-31.4,25.5-56.9,56.9-56.9V4C32.7,4,4,32.7,4,68 M39.1,68h-4.8H29h-4.7h-5.9h-7.4H4
		 M68,23.6c-24.5,0-44.5,19.9-44.5,44.4"/>
</g>
</svg>
