<?xml version="1.0" encoding="utf-8"?>
<!-- Generator: Adobe Illustrator 21.1.0, SVG Export Plug-In . SVG Version: 6.00 Build 0)  -->
<svg version="1.1" id="emoji" xmlns="http://www.w3.org/2000/svg" xmlns:xlink="http://www.w3.org/1999/xlink" x="0px" y="0px"
	 viewBox="0 0 72 72" enable-background="new 0 0 72 72" xml:space="preserve">
<g id="_xD83C__xDF19_">
	<path fill="#FCEA2B" d="M7.4,42.4c4.6,6.2,11.9,10.2,20.1,10.2c13.8,0,25-11.2,25-25c0-8.5-4.3-16-10.8-20.6
		c13,2.8,22.8,14.4,22.8,28.3c0,16-13,29-29,29C21.9,64.4,10.5,55,7.4,42.4z"/>
	<path fill="#F1B31C" d="M45.8,9.2C54.1,13.5,62,21.1,62,33.9c0,15.4-12.5,28-28,28c-9.2,0-19.8-4.8-24.3-15.5
		c0,0,4.4,18.7,25.7,18.7c19.3,0,28-20.6,28-20.6C70,12.4,45.8,9.2,45.8,9.2z"/>
	<path fill="none" stroke="#000000" stroke-width="2" stroke-linecap="round" stroke-linejoin="round" stroke-miterlimit="10" d="
		M7.4,42.4c4.6,6.2,11.9,10.2,20.1,10.2c13.8,0,25-11.2,25-25c0-8.5-4.3-16-10.8-20.6c13,2.8,22.8,14.4,22.8,28.3c0,16-13,29-29,29
		C21.9,64.4,10.5,55,7.4,42.4z"/>
</g>
</svg>
