<?xml version="1.0" encoding="utf-8"?>
<!-- Generator: Adobe Illustrator 21.1.0, SVG Export Plug-In . SVG Version: 6.00 Build 0)  -->
<svg version="1.1" id="Ebene_3" xmlns="http://www.w3.org/2000/svg" xmlns:xlink="http://www.w3.org/1999/xlink" x="0px" y="0px"
	 viewBox="0 0 72 72" enable-background="new 0 0 72 72" xml:space="preserve">
<g>
	<g>
		<ellipse transform="matrix(0.9659 -0.2588 0.2588 0.9659 -5.0542 8.2223)" fill="#E95947" cx="28.7" cy="23.3" rx="6" ry="6"/>
		<ellipse transform="matrix(0.7071 -0.7071 0.7071 0.7071 -16.7863 19.7875)" fill="#E95947" cx="15.5" cy="30.2" rx="6" ry="6"/>
		<ellipse transform="matrix(0.7072 -0.707 0.707 0.7072 -4.7714 48.7851)" fill="#E95947" cx="56.5" cy="30.2" rx="6" ry="6"/>
		<path fill="#E95947" d="M49.1,24.9c-0.9,3.2-4.1,5.1-7.3,4.2c-3.2-0.9-5.1-4.1-4.2-7.3c0.9-3.2,4.1-5.1,7.3-4.2
			C48,18.4,49.9,21.7,49.1,24.9z"/>
	</g>
	<path fill="#B1CB34" d="M57.4,48.6l5-0.8l-0.3-1c1.6-0.4,2.6-2.1,2.1-3.7c-0.2-0.9-0.9-1.6-1.7-2c1.4-1.6,1.7-3.9,0.6-5.8
		c-1.2-2-3.6-2.9-5.7-2.3c0.3-1,0-2.1-0.8-2.9c-0.7-0.7-1.6-0.9-2.5-0.8c0.4-2-0.5-4.2-2.4-5.3c-2-1.2-4.6-0.7-6.1,0.9
		c-0.3-1-1-1.9-2.1-2.2c-0.9-0.2-1.8,0-2.6,0.5c-0.7-2-2.5-3.4-4.7-3.4c-2.4,0-4.3,1.6-4.8,3.8c-0.7-0.8-1.8-1.1-2.9-0.8
		c-0.9,0.2-1.6,0.9-2,1.7c-1.6-1.4-3.9-1.7-5.8-0.6c-2,1.2-2.9,3.6-2.3,5.7c-1-0.3-2.1,0-2.9,0.8c-0.7,0.7-0.9,1.6-0.8,2.5
		c-2-0.4-4.2,0.5-5.3,2.4c-1.2,2-0.7,4.6,0.9,6.1c-1,0.3-1.9,1-2.2,2.1c-0.4,1.6,0.5,3.2,2.1,3.7l0,1l3.1,0.7"/>
	<path fill="#FBEA2E" d="M15.1,53c-1.1,0-2-0.9-2-2c0-12.7,10.3-23,23-23c12.7,0,23,10.3,23,23c0,1.1-0.9,2-2,2H15.1z"/>
	<path fill="none" stroke="#000000" stroke-width="2" stroke-linecap="round" stroke-linejoin="round" stroke-miterlimit="10" d="
		M15.1,53c-1.1,0-2-0.9-2-2c0-12.7,10.3-23,23-23c12.7,0,23,10.3,23,23c0,1.1-0.9,2-2,2H15.1z"/>
	<path fill="none" stroke="#000000" stroke-width="2" stroke-linecap="round" stroke-linejoin="round" stroke-miterlimit="10" d="
		M62.1,46.9c1.6-0.4,2.6-2.1,2.1-3.7c-0.2-0.9-0.9-1.6-1.7-2c1.4-1.6,1.7-3.9,0.6-5.8c-1.2-2-3.6-2.9-5.7-2.3c0.3-1,0-2.1-0.8-2.9
		c-0.7-0.7-1.6-0.9-2.5-0.8c0.4-2-0.5-4.2-2.4-5.3c-2-1.2-4.6-0.7-6.1,0.9c-0.3-1-1-1.9-2.1-2.2c-0.9-0.2-1.8,0-2.6,0.5
		c-0.7-2-2.5-3.4-4.7-3.4c-2.4,0-4.3,1.6-4.8,3.8c-0.7-0.8-1.8-1.1-2.9-0.8c-0.9,0.2-1.6,0.9-2,1.7c-1.6-1.4-3.9-1.7-5.8-0.6
		c-2,1.2-2.9,3.6-2.3,5.7c-1-0.3-2.1,0-2.9,0.8c-0.7,0.7-0.9,1.6-0.8,2.5c-2-0.4-4.2,0.5-5.3,2.4c-1.2,2-0.7,4.6,0.9,6.1
		c-1,0.3-1.9,1-2.2,2.1c-0.4,1.6,0.5,3.2,2.1,3.7"/>
	<path fill="none" stroke="#000000" stroke-width="2" stroke-linecap="round" stroke-linejoin="round" stroke-miterlimit="10" d="
		M15,25.2c-1.1,0.1-2.2,0.6-3,1.4c-0.8,0.8-1.3,1.8-1.4,2.9"/>
	<path fill="none" stroke="#000000" stroke-width="2" stroke-linecap="round" stroke-linejoin="round" stroke-miterlimit="10" d="
		M30.7,18.7c-1-0.4-2.1-0.6-3.3-0.3c-1.1,0.3-2.1,1-2.7,1.9"/>
	<path fill="none" stroke="#000000" stroke-width="2" stroke-linecap="round" stroke-linejoin="round" stroke-miterlimit="10" d="
		M41.3,18.7c1-0.4,2.1-0.6,3.3-0.3c1.1,0.3,2.1,1,2.7,1.9"/>
	<path fill="none" stroke="#000000" stroke-width="2" stroke-linecap="round" stroke-linejoin="round" stroke-miterlimit="10" d="
		M57,25.2c1.1,0.1,2.2,0.6,3,1.4c0.8,0.8,1.3,1.8,1.4,2.9"/>
</g>
</svg>
