<svg id="emoji" viewBox="0 0 72 72" xmlns="http://www.w3.org/2000/svg">
  <g id="color">
    <path fill="#d0cfce" d="m14.5968,29.9075c-.0396.4525-.4062.8186-.8602.8673-5.5036.5895-9.7366,6.0085-9.7366,12.6046,0,6.9899,4.8475,13.3716,10.8272,13.3716h41.2775c1.3997-.037,2.5589-.1579,3.7218-.551,3.1992-1.5711,8.1735-6.7931,8.1735-13.5393,0-7.079-4.8912-12.8736-11.0809-13.3441-.4735-.036-.8576-.3674-.9479-.8313-1.3827-7.1005-7.7614-12.4363-15.3028-12.4363-4.9012,0-9.2671,2.2189-12.1023,5.7487-.277.3449-.742.503-1.151.3315-1.091-.4575-2.2432-.6789-3.5324-.6789-4.8718,0-8.8707,3.7179-9.2859,8.4572Z"/>
  </g>
  <g id="line">
    <path fill="none" stroke="#000" stroke-linecap="round" stroke-linejoin="round" stroke-width="2" d="m59.4442,55.4591c4.944-1.6229,8.5558-6.7575,8.5558-12.8408,0-7.079-4.8912-12.8736-11.0809-13.3441-.4735-.036-.8576-.3674-.9479-.8313-1.3827-7.1005-7.7614-12.4363-15.3028-12.4363-4.9012,0-9.2671,2.2189-12.1023,5.7487-.277.3449-.742.503-1.151.3315-1.091-.4575-2.2432-.6789-3.5324-.6789-4.8718,0-8.8707,3.718-9.2859,8.4573-.0396.4525-.4062.8186-.8602.8673-5.5036.5895-9.7366,6.0085-9.7366,12.6046,0,6.9899,4.8475,12.6562,10.8272,12.6562h36.2187"/>
    <path fill="none" stroke="#000" stroke-linecap="round" stroke-linejoin="round" stroke-width="2" d="m31.686,32.062c-1.2083.9992-2.7458,1.5119-4.312,1.438-1.5664.0745-3.1043-.4379-4.313-1.437"/>
    <path fill="none" stroke="#000" stroke-linecap="round" stroke-linejoin="round" stroke-width="2" d="m48.939,32.062c-1.2083.9992-2.7458,1.5119-4.312,1.438-1.5664.0745-3.1043-.4379-4.313-1.437"/>
    <path fill="none" stroke="#000" stroke-linecap="round" stroke-linejoin="round" stroke-width="2" d="m39.6114,45.3333c1.6569,0,3-1.1379,3-2.5417,0-1.0528-.7555-1.9561-1.8323-2.3419-.3589-.1286-.7535-.1997-1.1677-.1997"/>
    <path fill="none" stroke="#000" stroke-linecap="round" stroke-linejoin="round" stroke-width="2" d="m39.1843,50.4062c.9401,0,2.0159-.5708,2.3309-1.472.5041-1.4419-.3552-3.0541-1.9192-3.6009"/>
    <path fill="none" stroke="#000" stroke-linecap="round" stroke-linejoin="round" stroke-width="2" d="m62.3636,45.5589c2.1545-3.308,2.0114-7.9339-1.9915-9.7984-1.7893-.8334-3.8681-.6097-4.9454,1.0444-.5386.827-.3048,1.9341.5222,2.4727"/>
    <path fill="none" stroke="#000" stroke-linecap="round" stroke-linejoin="round" stroke-width="2" d="m46.0899,46.5506c4.7602,2.7667,12.0053,5.3518,16.2737-.9917"/>
    <path fill="none" stroke="#000" stroke-linecap="round" stroke-linejoin="round" stroke-width="1.9066" d="m55.7258,59.2062c-.2065,1.8432-1.8674,3.2117-3.7107,3.0052-1.5499-.1736-2.7348-1.376-2.9498-2.8502"/>
    <path fill="none" stroke="#000" stroke-linecap="round" stroke-linejoin="round" stroke-width="1.9066" d="m46.3213,46.5506s10.2039,5.4508,9.4045,12.6556"/>
  </g>
</svg>
