<svg id="emoji" viewBox="0 0 72 72" xmlns="http://www.w3.org/2000/svg">
  <g id="color">
    <path fill="#fcea2b" d="m18.4581,38.6795c-5.4169-2.5921-8.9028-9.1973-7.2499-12.8243,1.6957-3.721,6.3132-8.2657,12.5546-6.0993s6.4721,8.2507,6.4721,8.2507l-.5935,2.6219,4.6867-3.895c.6492-.6562.5418-2.3959-.5453-2.0062l-4.9426-1.5867,1.5132-7.2451-6.5478,3.4556-3.0298-6.7554-3.2654,6.6472-6.424-3.6849,1.2657,7.2946-7.3608.7964,5.3058,5.1605-5.4825,4.9712,7.325,1.0555-.3472,5.3113c.0598,1.2459,1.2922,1.5423,2.1236,1.0765l4.5423-2.5447Z"/>
    <path fill="#fcea2b" d="m30.2348,28.0066c-.4926-4.9479-4.6676-8.8118-9.7451-8.8118-5.409,0-9.7937,4.3848-9.7937,9.7937,0,3.8896,2.2674,7.2497,5.5527,8.8303l2.2094.8606,3.4979-.3638,1.8196-4.6131,4.6969-2.9142,1.4821-.4156.2802-2.3663Z"/>
    <path fill="#fff" d="m22.3417,37.7133c-.0332.38-.3412.6874-.7224.7283-4.6214.495-8.176,5.0455-8.176,10.5845,0,5.8696,4.0705,10.6278,9.0919,10.6278h34.6617c5.5166,0,9.9888-5.0285,9.9888-11.2313,0-5.9444-4.1072-10.8103-9.3049-11.2054-.3977-.0302-.7201-.3086-.796-.698-1.1611-5.9624-6.5175-10.443-12.8501-10.443-4.1156,0-7.7819,1.8632-10.1626,4.8274-.2326.2897-.6231.4224-.9665.2783-.9161-.3842-1.8837-.5702-2.9663-.5702-4.091,0-7.4489,3.1221-7.7976,7.1017Z"/>
  </g>
  <g id="line">
    <polyline fill="none" stroke="#000" stroke-linecap="round" stroke-linejoin="round" stroke-width="1.7258" points="13.5326 40.4503 10.6262 42.0816 12.1393 34.8365 4.8144 33.781 10.2968 28.8098 4.9911 23.6493 12.3518 22.8528 11.0862 15.5581 17.5102 19.243 20.7757 12.5959 23.8054 19.3513 30.3533 15.8956 28.8401 23.1407 36.1651 24.1962 33.5091 26.3602"/>
    <path fill="none" stroke="#000" stroke-linecap="round" stroke-linejoin="round" stroke-width="1.7258" d="m16.2487,37.8189c-3.2852-1.5807-5.5527-4.9407-5.5527-8.8303,0-5.409,4.3848-9.7937,9.7937-9.7937,5.0775,0,9.2525,3.8639,9.7451,8.8118"/>
    <path fill="none" stroke="#000" stroke-linecap="round" stroke-linejoin="round" stroke-width="1.8166" d="m22.3417,37.7133c-.0332.38-.3412.6874-.7224.7283-4.6214.495-8.176,5.0455-8.176,10.5845,0,5.8696,4.0705,10.6278,9.0919,10.6278h34.6617c5.5166,0,9.9888-5.0285,9.9888-11.2313,0-5.9444-4.1072-10.8103-9.3049-11.2054-.3977-.0302-.7201-.3086-.796-.698-1.1611-5.9624-6.5175-10.443-12.8501-10.443-4.1156,0-7.7819,1.8632-10.1626,4.8274-.2326.2897-.6231.4224-.9665.2783-.9161-.3842-1.8837-.5702-2.9663-.5702-4.091,0-7.4489,3.1221-7.7976,7.1017Z"/>
  </g>
</svg>
