<?xml version="1.0" encoding="utf-8"?>
<!-- Generator: Adobe Illustrator 21.1.0, SVG Export Plug-In . SVG Version: 6.00 Build 0)  -->
<svg version="1.1" id="Ebene_3" xmlns="http://www.w3.org/2000/svg" xmlns:xlink="http://www.w3.org/1999/xlink" x="0px" y="0px"
	 viewBox="0 0 72 72" enable-background="new 0 0 72 72" xml:space="preserve">
<g>
	<g>
		<path fill="#B1CB34" d="M23,23.5v-7.6l0.9,0c0.5-0.5,1.2-0.8,1.9-0.9c-0.5-0.5-0.8-1.2-0.8-2c0-1.7,1.3-3,3-3c0-1.7,1.3-3,3-3
			c0.9,0,1.6,0.4,2.2,1c0.4-1.1,1.5-2,2.8-2s2.4,0.8,2.8,2c0.5-0.6,1.3-1,2.2-1c1.7,0,3,1.3,3,3c1.7,0,3,1.3,3,3
			c0,0.8-0.3,1.5-0.8,2c0.8,0.1,1.4,0.4,1.9,0.9H49v8L36,34.5L23,23.5z"/>
		<path fill="#E95947" d="M39,15c-0.3,0-0.6,0-0.9,0.1C37.1,13.8,35.7,13,34,13c-2.2,0-4,1.4-4.7,3.3c0,0-0.6-1-0.7-1
			c-0.2,0.5-0.4,1.4-0.5,1.9C27.9,20.4,31.2,33,34,33c0.3,0,0.6,0,0.9-0.1c0.9,1.3,2.4,2.1,4.1,2.1c2.8,0,4.4-12.2,4.4-14.9
			c0-1.3,0.4-3.2-0.7-4.8c0,0-0.1,1.2-0.1,1.2C41.7,15.6,40.4,15,39,15z"/>
		<path fill="#FBEA2E" d="M43,61c-10.7-11.6-10.7-30.4,0-42h2c1.7,0,3,1.3,3,3v39c0,2.8-2.2,5-5,5H29c-2.8,0-5-2.2-5-5V22
			c0-1.7,1.3-3,3-3h2c3.4,3.7,5.8,8.2,7,13"/>
	</g>
	<path fill="none" stroke="#000000" stroke-width="2" stroke-linecap="round" stroke-linejoin="round" stroke-miterlimit="10" d="
		M48.1,15.9c-0.5-0.5-1.2-0.8-1.9-0.9c0.5-0.5,0.8-1.2,0.8-2c0-1.7-1.3-3-3-3c0-1.7-1.3-3-3-3c-0.9,0-1.6,0.4-2.2,1
		c-0.4-1.1-1.5-2-2.8-2s-2.4,0.8-2.8,2c-0.5-0.6-1.3-1-2.2-1c-1.7,0-3,1.3-3,3c-1.7,0-3,1.3-3,3c0,0.8,0.3,1.5,0.8,2
		c-0.8,0.1-1.4,0.4-1.9,0.9"/>
	<path fill="none" stroke="#000000" stroke-width="2" stroke-linecap="round" stroke-linejoin="round" stroke-miterlimit="10" d="
		M36,48.1c-1.2,4.7-3.6,9.2-7,12.9"/>
	<path fill="none" stroke="#000000" stroke-width="2" stroke-linecap="round" stroke-linejoin="round" stroke-miterlimit="10" d="
		M43,61c-10.7-11.6-10.7-30.4,0-42h2c1.7,0,3,1.3,3,3v39c0,2.8-2.2,5-5,5H29c-2.8,0-5-2.2-5-5V22c0-1.7,1.3-3,3-3h2
		c3.4,3.7,5.8,8.2,7,13"/>
	<path fill="none" stroke="#000000" stroke-width="2" stroke-linecap="round" stroke-linejoin="round" stroke-miterlimit="10" d="
		M42,16c-0.8-0.6-1.9-1-3-1c-0.3,0-0.6,0-0.9,0.1C37.1,13.8,35.7,13,34,13c-1.9,0-3.6,1.1-4.4,2.7"/>
</g>
</svg>
