<?xml version="1.0" encoding="utf-8"?>
<!-- Generator: Adobe Illustrator 21.1.0, SVG Export Plug-In . SVG Version: 6.00 Build 0)  -->
<svg version="1.1" id="emoji" xmlns="http://www.w3.org/2000/svg" xmlns:xlink="http://www.w3.org/1999/xlink" x="0px" y="0px"
	 viewBox="0 0 72 72" enable-background="new 0 0 72 72" xml:space="preserve">
<g id="_xD83C__xDF24__xFE0F_">
	<g>
		<path fill="#FCEA2B" d="M51.1,42.5l0.1-0.3c0.9-3.1,0.8-7.2-0.4-10.3l0,0l5.9-8.3l-10.4,0.8L47,13.3l-9.2,6.2l-4.9-10l-4.9,10
			l-9.2-6.2l0.8,11.1L8.6,23.6l6.2,9.2l-10,4.9l10,4.9l-6.2,9.2l11.1-0.8L18.9,62l9.2-6.2L51.1,42.5z"/>
		<g>
			<path fill="none" stroke="#000000" stroke-width="2" stroke-linecap="round" stroke-linejoin="round" stroke-miterlimit="10" d="
				M24.5,53.5c-6.1-2.9-10.3-9.2-10.3-16.4c0-10.1,8.2-18.2,18.2-18.2c9.1,0,16.6,6.6,18,15.3"/>
			
				<polyline fill="none" stroke="#000000" stroke-width="2" stroke-linecap="round" stroke-linejoin="round" stroke-miterlimit="10" points="
				24.5,57 18.6,61 19.4,50.1 8.5,50.9 14.6,41.9 4.8,37.1 14.6,32.4 8.5,23.3 19.4,24.1 18.6,13.2 27.6,19.3 32.4,9.5 37.1,19.3 
				46.2,13.2 45.4,24.1 56.3,23.3 50.1,32.4 			"/>
		</g>
	</g>
	
		<path fill="#FFFFFF" stroke="#000000" stroke-width="2" stroke-linecap="round" stroke-linejoin="round" stroke-miterlimit="10" d="
		M34.8,46.6c0,0.3-0.2,0.5-0.5,0.5c-3.3,0.4-5.9,3.6-5.9,7.7c0,4.2,2.9,7.7,6.6,7.7H60c4,0,7.2-3.6,7.2-8.1c0-4.3-3-7.8-6.7-8.1
		c-0.3,0-0.5-0.2-0.6-0.5c-0.8-4.3-4.7-7.6-9.3-7.6c-3,0-5.6,1.3-7.4,3.5c-0.2,0.2-0.5,0.3-0.7,0.2c-0.7-0.3-1.4-0.4-2.1-0.4
		C37.5,41.5,35,43.7,34.8,46.6z"/>
</g>
</svg>
