<svg id="emoji" viewBox="0 0 72 72" xmlns="http://www.w3.org/2000/svg">
  <g id="color">
    <path fill="#d0cfce" d="m33.4404,3.9997c2.559,0,4.1336,2.4682,4.2596,3.9003.659-.307,1.3734-.4771,2.1-.5h.3c.3739.018.7437.0852,1.1.2,2.194.6783,3.6927,2.7036,3.7,5-.0004,2.7777-2.2229,5.0446-5,5.1h-21.2c-3.653-.0079-6.6079-2.9756-6.6-6.6285.0074-3.4095,2.7306-6.7548,6.1254-7.0715"/>
    <path fill="#d0cfce" d="m10.5,9.9c1.917-.0342,3.7629.7259,5.1,2.1.6753.597,1.1909,1.3532,1.5,2.2,2.2706-1.2242,4.9401-1.4767,7.4-.7.1,0,.2.1.3.1.5183.1919,1.02.426,1.5.7.2803.1438.5479.3111.8.5,1.0109.7582,1.8608,1.71,2.5,2.8l.3.6c.0541-.0012.0988.0417.1.0958,0,.0014,0,.0028,0,.0042.1759.3147.3104.6508.4,1,.2301.7808.3645,1.5867.4,2.4.8989-.4463,1.8978-.653,2.9-.6.6376.0171,1.2728.084,1.9.2,1.3358.3014,2.5325,1.0405,3.4,2.1.1954.1742.3639.3764.5.6.1235.114.2252.2495.3.4.7082,1.1049,1.0896,2.3876,1.1,3.7l.1,6.5H4V14.1c.2948-.8371.7349-1.6157,1.3-2.3,1.3107-1.4569,3.2588-2.1687,5.2-1.9Z"/>
    <path fill="#fff" d="m68,14.8v15.5h0l-.1.1c-1.5879,1.0972-3.4699,1.6896-5.4,1.7h-31.3c-4.0325-.3785-6.9946-3.9543-6.616-7.9868.3785-4.0325,3.9543-6.9946,7.9868-6.616.0098.0009.0195.0019.0293.0028.8208.1052,1.6263.3066,2.4.6.2539-5.2313,4.6658-9.2868,9.9-9.1,1.5021.0913,2.9677.5003,4.3,1.2,1.5646-3.7406,5.8653-5.5047,9.6059-3.9401.0315.0132.0628.0265.0941.0401,2.7194,1.1694,4.4867,3.8399,4.5,6.8h0c.3,0,2.9.7,3.1.8.5415.2247,1.0469.528,1.5.9Z"/>
    <path fill="#d0cfce" d="m68,26.5v18.5h-.1c-.521.1571-1.0574.2577-1.6.3h0c-.4,0-.7.1-1.1.1h-31c-.645-.0018-1.2858-.103-1.9-.3-3.0082-.8097-5.1994-3.3993-5.5-6.5v-.7c.0097-1.3752.3897-2.7224,1.1-3.9l.6-.9h0l.3-.3c.9716-1.0335,2.2221-1.7629,3.6-2.1.3-.1.6-.1.9-.2.3,0,.6-.1.9-.1,1.0745-.0187,2.1378.2214,3.1.7.0985-2.6794,1.3353-5.1895,3.4-6.9,3.0566-2.6757,7.4741-3.1175,11-1.1,1.609-3.8137,6.0049-5.601,9.8186-3.992,2.7721,1.1695,4.5761,3.8834,4.5814,6.892h0c.642.132,1.2762.2989,1.9.5-.1-.1,0-.1,0,0Z"/>
    <path fill="#fff" d="m47.5,44.4c.0117.3363-.022.6727-.1,1,.0155.1728-.0192.3464-.1.5-.1.4-.2.8-.3,1.1-.1919.5183-.426,1.02-.7,1.5-.8456,1.2992-2.0663,2.3106-3.5,2.9h0c-.3.1-.5.2-.8.3-.1174.0794-.259.1149-.4.1-.4954.083-.9979.1165-1.5.1H9.3c-1.8822-.0229-3.7195-.5776-5.3-1.6v-16c.0757-.1599.2253-.2721.4-.3.2-.1.5-.3.7-.4h0c1.0368-.4964,2.1548-.8013,3.3-.9h0c-.0061-2.8025,1.585-5.3636,4.1-6.6h0c1.0219-.5221,2.1524-.7961,3.3-.8,2.8704-.1296,5.4965,1.6076,6.5,4.3h0c1.5968-.7327,3.3448-1.0755,5.1-1,2.1015.0057,4.1416.7092,5.8,2,2.1926,1.6969,3.5715,4.2369,3.8,7v.1c.7503-.3628,1.5673-.5671,2.4-.6h.7c2.6412.0011,5.0811,1.4117,6.4,3.7.0772.1793.1781.3475.3.5.4891.9585.7298,2.0244.7,3.1Z"/>
    <path fill="#fff" d="m68,33v18.9h-22.5c-.947.0175-1.8808-.2246-2.7-.7h0c-.2-.1-.3-.2-.5-.3-.1-.1-.3-.2-.4-.3-1.3121-1.0872-2.08-2.6961-2.1-4.4-.0163-.3035.0175-.6075.1-.9v-.2h0c.3161-1.7061,1.432-3.1568,3-3.9.8017-.4293,1.6912-.6688,2.6-.7.3364-.0164.6735.0173,1,.1.4787.0868.9477.2208,1.4.4.1632-4.032,3.5641-7.1682,7.5961-7.0049.0346.0014.0693.0031.1039.0049,1.1628.072,2.2928.4145,3.3,1,1.2199-2.8671,4.5008-4.2416,7.4-3.1.6102.2946,1.1812.6642,1.7,1.1Z"/>
    <path fill="#d0cfce" d="m21.3,56.8c-3.653-.0079-6.6079-2.9756-6.6-6.6285.0073-3.4095,2.6052-6.2548,6-6.5715h0c.0118-2.8118,2.2882-5.0882,5.1-5.1,2.0531-.0246,3.9143,1.203,4.7,3.1,3.1529-1.8012,7.1691-.7055,8.9703,2.4474.01.0175.0199.035.0297.0526.5077.9255.8144,1.9478.9,3,2.5654-1.1933,5.6124-.0809,6.8057,2.4845,1.1933,2.5654.0809,5.6124-2.4845,6.8057-.007.0033-.0141.0065-.0211.0098-.659.307-1.3734.4771-2.1.5l-21.3-.1Z"/>
    <path fill="#d0cfce" d="m66.7,45.2c.5651.6843,1.0052,1.4629,1.3,2.3v20.5H31l.1-6.5c.0104-1.3124.3918-2.5951,1.1-3.7.0748-.1505.1765-.286.3-.4.1361-.2236.3046-.4258.5-.6.8675-1.0595,2.0642-1.7986,3.4-2.1.6272-.116,1.2624-.1829,1.9-.2,1.0022-.053,2.0011.1537,2.9.6.0355-.8133.1699-1.6192.4-2.4.0896-.3492.2241-.6853.4-1-.0012-.0541.0417-.0988.0958-.1.0014,0,.0028,0,.0042,0l.3-.6c.6392-1.09,1.4891-2.0418,2.5-2.8.2521-.1889.5197-.3562.8-.5.48-.274.9817-.5081,1.5-.7.1,0,.2-.1.3-.1,2.4599-.7767,5.1294-.5242,7.4.7.3091-.8468.8247-1.603,1.5-2.2,1.3371-1.3741,3.183-2.1342,5.1-2.1,2,0,3.9.4,5.2,1.9Z"/>
    <path fill="#fff" d="m34.7,62.2c.005,1.5498-.5651,3.0464-1.6,4.2-.5836.6709-1.2983,1.2154-2.1,1.6H4v-21.2c.3559-.2782.7639-.4822,1.2-.6.1824-.1109.3875-.1792.6-.2h0c.1889-.0815.3948-.1158.6-.1.1685-.0235.3354-.0569.5-.1h.7c2.5779-.0247,4.9126,1.5185,5.9,3.9.4-.2.9-.4,1.4-.6.1,0,.2-.1.3-.1.7808-.2301,1.5867-.3645,2.4-.4,2.9812.0015,5.7313,1.6057,7.2,4.2.6323,1.0962.9763,2.3348,1,3.6,1.9419-.8739,4.1913-.7239,6,.4.3.2.5.4.8.6.2.1.3.3.5.4,1.0385,1.2303,1.6057,2.7899,1.6,4.4Z"/>
  </g>
  <g id="line">
    <path fill="none" stroke="#000" stroke-linecap="round" stroke-linejoin="round" stroke-width="2" d="m5.3,11.8c1.3-1.5,3.2-1.9,5.2-1.9,1.917-.0342,3.7629.7259,5.1,2.1.6753.597,1.1909,1.3532,1.5,2.2,2.2706-1.2242,4.9401-1.4767,7.4-.7.1,0,.2.1.3.1.5183.1919,1.02.426,1.5.7.2803.1438.5479.3111.8.5"/>
    <path fill="none" stroke="#000" stroke-linecap="round" stroke-linejoin="round" stroke-width="2" d="m24.5,24c.3678-4.0162,3.9218-6.9738,7.938-6.6059.0207.0019.0414.0039.062.0059.8208.1052,1.6263.3066,2.4.6.2539-5.2313,4.6658-9.2868,9.9-9.1,1.5021.0913,2.9677.5003,4.3,1.2,1.5646-3.7406,5.8653-5.5047,9.6059-3.9401.0315.0132.0628.0265.0941.0401,2.7194,1.1694,4.4867,3.8399,4.5,6.8h0c.3,0,3.4.9,3.5,1"/>
    <path fill="none" stroke="#000" stroke-linecap="round" stroke-linejoin="round" stroke-width="2" d="m38.2,30.3c0-2.5,1.3-4.4,4.2-6.3,1.5192-.9008,3.2359-1.4158,5-1.5,1.5798-.0054,3.1327.4087,4.5,1.2,1.5313-3.6048,5.6825-5.3009,9.3-3.8,2.596,1.1385,4.3075,3.6668,4.4,6.5h0"/>
    <path fill="none" stroke="#000" stroke-linecap="round" stroke-linejoin="round" stroke-width="2" d="m42.4,38.4c-1.4715-1.5992-3.8853-1.8956-5.7-.7-1.4-6.8-5.6-7.6-6.6-8.1-.5249-.3029-1.1012-.5063-1.7-.6h0c-.7494-.2043-1.5232-.3053-2.3-.3-1.3069.0146-2.5981.2864-3.8.8h0c-.2534.0947-.4898.2298-.7.4-1.1385-2.596-3.6668-4.3075-6.5-4.4-.857.0114-1.7045.1809-2.5.5h0c-2.7505,1.0373-4.5788,3.6605-4.6,6.6h0c-.5471.0025-1.0892.1042-1.6.3-.4717.1538-.912.3908-1.3.7"/>
    <path fill="none" stroke="#000" stroke-linecap="round" stroke-linejoin="round" stroke-width="2" d="m47.9,41.1c.1632-4.032,3.5641-7.1682,7.5961-7.0049.0346.0014.0693.0031.1039.0049,1.1628.072,2.2928.4145,3.3,1,1.2199-2.8671,4.5008-4.2416,7.4-3.1"/>
    <path fill="none" stroke="#000" stroke-linecap="round" stroke-linejoin="round" stroke-width="2" d="m18.3,44.3c.7103-.4718,1.5475-.716,2.4-.7h0c.0118-2.8118,2.2882-5.0882,5.1-5.1,2.0531-.0246,3.9143,1.203,4.7,3.1,3.1529-1.8012,7.1691-.7055,8.9703,2.4474.01.0175.0199.035.0297.0526.5077.9255.8144,1.9478.9,3"/>
    <path fill="none" stroke="#000" stroke-linecap="round" stroke-linejoin="round" stroke-width="2" d="m33.1,66.4c2.1933-2.5153,2.1066-6.2881-.2-8.7-.1407-.1629-.3102-.2984-.5-.4-1.8858-1.6261-4.5561-1.9795-6.8-.9-.0716-1.2578-.4126-2.4855-1-3.6-1.45-2.6127-4.212-4.2239-7.2-4.2-1.4366.0219-2.8453.3999-4.1,1.1-.9874-2.3815-3.3221-3.9248-5.9-3.9-.7857-.0221-1.5679.1139-2.3.4"/>
    <path fill="none" stroke="#000" stroke-linecap="round" stroke-linejoin="round" stroke-width="2" d="m36.4,54.7c.6272-.116,1.2624-.1829,1.9-.2,1.0022-.053,2.0011.1537,2.9.6.0355-.8133.1699-1.6192.4-2.4.0896-.3492.2241-.6853.4-1-.0012-.0541.0417-.0988.0958-.1.0014,0,.0028,0,.0042,0l.3-.6c.6392-1.09,1.4891-2.0418,2.5-2.8.2521-.1889.5197-.3562.8-.5.48-.274.9817-.5081,1.5-.7.1,0,.2-.1.3-.1,2.4599-.7767,5.1294-.5242,7.4.7.3091-.8468.8247-1.603,1.5-2.2,1.3371-1.3741,3.183-2.1342,5.1-2.1,2,0,3.9.4,5.2,1.9"/>
  </g>
</svg>
