<?xml version="1.0" encoding="utf-8"?>
<!-- Generator: Adobe Illustrator 19.1.0, SVG Export Plug-In . SVG Version: 6.00 Build 0)  -->
<svg version="1.1" id="emoji" xmlns="http://www.w3.org/2000/svg" xmlns:xlink="http://www.w3.org/1999/xlink" x="0px" y="0px"
	 viewBox="0 0 72 72" enable-background="new 0 0 72 72" xml:space="preserve">
<g id="_xD83C__xDF25__xFE0F_">
	<g>
		<path fill="#FCEA2B" d="M16.7,38.8c-6-2.9-9.8-10.1-8-14.1c1.9-4.1,7-9.1,13.8-6.7s7.1,9.1,7.1,9.1L29,29.9l7.8-6.4l-8.7-1.9
			l1.7-8l-7.2,3.8l-3.3-7.4l-3.6,7.3l-7.1-4.1l1.4,8l-8.1,0.9l5.8,5.7l-6,5.5l8.1,1.2L9,43.1L16.7,38.8z"/>
		<g>
			<path fill="#FCEA2B" d="M29.7,27.1c-0.5-5.4-5.1-9.7-10.7-9.7c-6,0-10.8,4.8-10.8,10.8c0,4.3,2.5,8,6.1,9.7l2.4,0.9l3.9-0.4
				l2-5.1l5.2-3.2l1.6-0.5L29.7,27.1z"/>
			
				<polyline fill="none" stroke="#000000" stroke-width="1.9" stroke-linecap="round" stroke-linejoin="round" stroke-miterlimit="10" points="
				11.3,40.8 8.1,42.6 9.7,34.6 1.7,33.4 7.7,27.9 1.9,22.3 10,21.4 8.6,13.4 15.6,17.4 19.2,10.1 22.6,17.5 29.8,13.7 28.1,21.7 
				36.2,22.9 33.3,25.2 			"/>
			
				<path fill="none" stroke="#000000" stroke-width="1.9" stroke-linecap="round" stroke-linejoin="round" stroke-miterlimit="10" d="
				M14.3,37.9c-3.6-1.7-6.1-5.4-6.1-9.7c0-6,4.8-10.8,10.8-10.8c5.6,0,10.2,4.3,10.7,9.7"/>
		</g>
	</g>
	
		<path fill="#FFFFFF" stroke="#000000" stroke-width="2" stroke-linecap="round" stroke-linejoin="round" stroke-miterlimit="10" d="
		M21,37.7c0,0.4-0.4,0.8-0.8,0.8c-5.1,0.5-9,5.6-9,11.7c0,6.5,4.5,11.7,10,11.7l38.2,0c6.1,0,11-5.5,11-12.4
		c0-6.5-4.5-11.9-10.2-12.3c-0.4,0-0.8-0.3-0.9-0.8c-1.3-6.6-7.2-11.5-14.1-11.5c-4.5,0-8.6,2.1-11.2,5.3c-0.3,0.3-0.7,0.5-1.1,0.3
		c-1-0.4-2.1-0.6-3.3-0.6C25,29.9,21.3,33.4,21,37.7z"/>
</g>
</svg>
