<?xml version="1.0" encoding="utf-8"?>
<!-- Generator: Adobe Illustrator 19.1.0, SVG Export Plug-In . SVG Version: 6.00 Build 0)  -->
<svg version="1.1" id="emoji" xmlns="http://www.w3.org/2000/svg" xmlns:xlink="http://www.w3.org/1999/xlink" x="0px" y="0px"
	 viewBox="0 0 72 72" enable-background="new 0 0 72 72" xml:space="preserve">
<g id="_xD83C__xDF28__xFE0F_">
	<path fill="#D0D0D0" d="M19.3,22.4c0,0.4-0.3,0.6-0.7,0.7C14.3,23.6,11,27.8,11,33c0,5.5,3.8,9.9,8.5,9.9h32.2
		c5.1,0,9.3-4.7,9.3-10.4c0-5.5-3.8-10.1-8.7-10.4c-0.4,0-0.7-0.3-0.7-0.6c-1.1-5.5-6.1-9.7-12-9.7c-3.8,0-7.2,1.7-9.5,4.5
		c-0.2,0.3-0.6,0.4-0.9,0.3c-0.9-0.4-1.8-0.5-2.8-0.5C22.7,15.8,19.6,18.7,19.3,22.4z"/>
	<path fill="none" stroke="#000000" stroke-width="2" stroke-linecap="round" stroke-linejoin="round" stroke-miterlimit="10" d="
		M19.3,22.4c0,0.4-0.3,0.6-0.7,0.7C14.3,23.6,11,27.8,11,33c0,5.5,3.8,9.9,8.5,9.9h32.2c5.1,0,9.3-4.7,9.3-10.4
		c0-5.5-3.8-10.1-8.7-10.4c-0.4,0-0.7-0.3-0.7-0.6c-1.1-5.5-6.1-9.7-12-9.7c-3.8,0-7.2,1.7-9.5,4.5c-0.2,0.3-0.6,0.4-0.9,0.3
		c-0.9-0.4-1.8-0.5-2.8-0.5C22.7,15.8,19.6,18.7,19.3,22.4z"/>
	<g>
		
			<line fill="none" stroke="#000000" stroke-width="1.8" stroke-linecap="round" stroke-linejoin="round" stroke-miterlimit="10" x1="28.8" y1="52.5" x2="28.8" y2="60.4"/>
		
			<line fill="none" stroke="#000000" stroke-width="1.8" stroke-linecap="round" stroke-linejoin="round" stroke-miterlimit="10" x1="25.4" y1="58.4" x2="32.1" y2="54.5"/>
		
			<line fill="none" stroke="#000000" stroke-width="1.8" stroke-linecap="round" stroke-linejoin="round" stroke-miterlimit="10" x1="32.1" y1="58.4" x2="25.4" y2="54.5"/>
	</g>
	<g>
		
			<line fill="none" stroke="#000000" stroke-width="1.8" stroke-linecap="round" stroke-linejoin="round" stroke-miterlimit="10" x1="56.3" y1="46" x2="56.3" y2="53.3"/>
		
			<line fill="none" stroke="#000000" stroke-width="1.8" stroke-linecap="round" stroke-linejoin="round" stroke-miterlimit="10" x1="53.2" y1="51.5" x2="59.4" y2="47.8"/>
		
			<line fill="none" stroke="#000000" stroke-width="1.8" stroke-linecap="round" stroke-linejoin="round" stroke-miterlimit="10" x1="59.4" y1="51.5" x2="53.2" y2="47.8"/>
	</g>
	<g>
		
			<line fill="none" stroke="#000000" stroke-width="1.8" stroke-linecap="round" stroke-linejoin="round" stroke-miterlimit="10" x1="17" y1="47" x2="17" y2="54.3"/>
		
			<line fill="none" stroke="#000000" stroke-width="1.8" stroke-linecap="round" stroke-linejoin="round" stroke-miterlimit="10" x1="13.9" y1="52.5" x2="20" y2="48.8"/>
		
			<line fill="none" stroke="#000000" stroke-width="1.8" stroke-linecap="round" stroke-linejoin="round" stroke-miterlimit="10" x1="20" y1="52.5" x2="13.9" y2="48.8"/>
	</g>
	<g>
		
			<line fill="none" stroke="#000000" stroke-width="1.8" stroke-linecap="round" stroke-linejoin="round" stroke-miterlimit="10" x1="42.7" y1="48.1" x2="42.7" y2="60.1"/>
		
			<line fill="none" stroke="#000000" stroke-width="1.8" stroke-linecap="round" stroke-linejoin="round" stroke-miterlimit="10" x1="37.6" y1="57.1" x2="47.8" y2="51.1"/>
		
			<line fill="none" stroke="#000000" stroke-width="1.8" stroke-linecap="round" stroke-linejoin="round" stroke-miterlimit="10" x1="47.8" y1="57.1" x2="37.6" y2="51.1"/>
	</g>
</g>
</svg>
