<svg id="emoji" viewBox="0 0 72 72" xmlns="http://www.w3.org/2000/svg">
  <g id="color">
    <path fill="#fcea2b" d="m18.1614,32.7701l-3.2872,1.7201c-.867.4537-2.0118.0607-2.2652-.8845-.0153-.0572-.0232-.1085-.0222-.1515l.1368-5.8167-8.0643-1.162,6.0358-5.473-5.8412-5.6814,8.1036-.8768-1.3933-8.0309,7.0724,4.0568,3.595-7.3181,3.3356,7.4372,7.2087-3.8045-1.6659,7.9764,5.994,1.6251c.9561.2592,1.2279,1.4855.4708,2.1244l-4.1241,3.4802,5.8187,5.7815-8.1229.6762,1.1943,8.063-6.9703-4.2205-4.6578,7.5588-2.5514-7.0798Z"/>
    <path fill="#d0cfce" d="m25.6193,30.5602c-.031.3535-.3174.6396-.6721.6775-4.2996.4606-7.6067,4.6942-7.6067,9.8474,0,5.4608,3.7871,9.8877,8.4588,9.8877h32.248c5.1325,0,9.2932-4.6783,9.2932-10.4492,0-5.5305-3.8212-10.0575-8.6569-10.4251-.37-.0281-.67-.2871-.7406-.6494-1.0803-5.5472-6.0636-9.7159-11.9553-9.7159-3.829,0-7.2399,1.7335-9.4549,4.4912-.2164.2695-.5797.3929-.8992.2589-.8523-.3575-1.7525-.5304-2.7597-.5304-3.806.0001-6.9302,2.9047-7.2546,6.6073Z"/>
    <path fill="#92d3f5" d="m28.6934,59.2233c-.7516,1.1632-2.1343,1.6031-3.0902.9854s-1.1216-2.0613-.37-3.2245c0,0,.8943-1.4257,4.0066-3.0386,0,0,.6168-.3534.5724.3205-.1914,3.5001-1.1188,4.9572-1.1188,4.9572"/>
    <path fill="#61b2e4" d="m29.1527,54.0877c.5441,1.6504-.7227,4.9495-.7227,4.9495-.9587,1.3692-2.1337,1.5027-3.1418.7967-.0001,0,2.7195-.9711,3.8645-5.7462"/>
    <path fill="#92d3f5" d="m58.798,59.2233c-.7516,1.1632-2.1343,1.6031-3.0902.9854s-1.1216-2.0613-.37-3.2245c0,0,.8943-1.4257,4.0066-3.0386,0,0,.6168-.3534.5724.3205-.1914,3.5001-1.1188,4.9572-1.1188,4.9572"/>
    <path fill="#61b2e4" d="m59.2573,54.0877c.5441,1.6504-.7227,4.9495-.7227,4.9495-.9587,1.3692-2.1337,1.5027-3.1418.7967-.0001,0,2.7195-.9711,3.8645-5.7462"/>
    <path fill="#92d3f5" d="m43.7457,59.2233c-.7516,1.1632-2.1343,1.6031-3.0902.9854s-1.1216-2.0613-.37-3.2245c0,0,.8943-1.4257,4.0066-3.0386,0,0,.6168-.3534.5724.3205-.1914,3.5001-1.1188,4.9572-1.1188,4.9572"/>
    <path fill="#61b2e4" d="m44.205,54.0877c.5441,1.6504-.7227,4.9495-.7227,4.9495-.9587,1.3692-2.1337,1.5027-3.1418.7967-.0001,0,2.7195-.9711,3.8645-5.7462"/>
    <path fill="#92d3f5" d="m35.7196,66.7944c-.7516,1.1632-2.1343,1.603-3.0902.9854-.9559-.6177-1.1216-2.0613-.37-3.2245,0,0,.8943-1.4257,4.0066-3.0385,0,0,.6168-.3534.5724.3205-.1915,3.5001-1.1188,4.9571-1.1188,4.9571"/>
    <path fill="#61b2e4" d="m36.1789,61.6589c.5441,1.6504-.7227,4.9495-.7227,4.9495-.9587,1.3692-2.1337,1.5027-3.1418.7967-.0001,0,2.7194-.9711,3.8645-5.7462"/>
    <path fill="#92d3f5" d="m50.7719,66.7944c-.7516,1.1632-2.1343,1.603-3.0902.9854-.9559-.6177-1.1216-2.0613-.37-3.2245,0,0,.8943-1.4257,4.0066-3.0385,0,0,.6168-.3534.5724.3205-.1915,3.5001-1.1188,4.9571-1.1188,4.9571"/>
    <path fill="#61b2e4" d="m51.2312,61.6589c.5441,1.6504-.7227,4.9495-.7227,4.9495-.9587,1.3692-2.1337,1.5027-3.1418.7967-.0001,0,2.7195-.9711,3.8645-5.7462"/>
  </g>
  <g id="line">
    <polyline fill="none" stroke="#000" stroke-linecap="round" stroke-linejoin="round" stroke-width="1.9" points="14.5238 33.667 11.324 35.463 12.9899 27.4866 4.9255 26.3246 10.9614 20.8516 5.1201 15.1703 13.2238 14.2934 11.8304 6.2625 18.9028 10.3193 22.4979 3.0012 25.8335 10.4384 33.0422 6.634 31.3763 14.6103 39.4406 15.7723 36.5166 18.1549"/>
    <path fill="none" stroke="#000" stroke-linecap="round" stroke-linejoin="round" stroke-width="1.9" d="m32.9118,19.9675c-.5423-5.4473-5.1387-9.7012-10.7287-9.7012-5.9549,0-10.7822,4.8274-10.7822,10.7822,0,4.2822,2.4963,7.9814,6.1131,9.7216"/>
    <path fill="none" stroke="#000" stroke-linecap="round" stroke-linejoin="round" stroke-width="2" d="m25.6193,30.5602c-.031.3535-.3174.6396-.6721.6775-4.2996.4606-7.6067,4.6942-7.6067,9.8474,0,5.4608,3.7871,9.8877,8.4588,9.8877h32.248c5.1325,0,9.2932-4.6783,9.2932-10.4492,0-5.5305-3.8212-10.0575-8.6569-10.4251-.37-.0281-.67-.2871-.7406-.6494-1.0803-5.5472-6.0636-9.7159-11.9553-9.7159-3.829,0-7.2399,1.7335-9.4549,4.4912-.2164.2695-.5797.3929-.8992.2589-.8523-.3575-1.7525-.5304-2.7597-.5304-3.806.0001-6.9302,2.9047-7.2546,6.6073Z"/>
    <path fill="none" stroke="#000" stroke-linecap="round" stroke-linejoin="round" stroke-width="1.8" d="m28.6934,59.2233c-.7516,1.1632-2.1343,1.6031-3.0902.9854s-1.1216-2.0613-.37-3.2245c0,0,.8761-1.5078,4.0066-3.0386,0,0,.6168-.3534.5724.3205-.1914,3.5001-1.1188,4.9572-1.1188,4.9572"/>
    <path fill="none" stroke="#000" stroke-linecap="round" stroke-linejoin="round" stroke-width="1.8" d="m58.798,59.2233c-.7516,1.1632-2.1343,1.6031-3.0902.9854s-1.1216-2.0613-.37-3.2245c0,0,.8761-1.5078,4.0066-3.0386,0,0,.6168-.3534.5724.3205-.1914,3.5001-1.1188,4.9572-1.1188,4.9572"/>
    <path fill="none" stroke="#000" stroke-linecap="round" stroke-linejoin="round" stroke-width="1.8" d="m43.7457,59.2233c-.7516,1.1632-2.1343,1.6031-3.0902.9854s-1.1216-2.0613-.37-3.2245c0,0,.8761-1.5078,4.0066-3.0386,0,0,.6168-.3534.5724.3205-.1914,3.5001-1.1188,4.9572-1.1188,4.9572"/>
    <path fill="none" stroke="#000" stroke-linecap="round" stroke-linejoin="round" stroke-width="1.8" d="m35.7196,66.7944c-.7516,1.1632-2.1343,1.603-3.0902.9854-.9559-.6177-1.1216-2.0613-.37-3.2245,0,0,.8761-1.5078,4.0066-3.0385,0,0,.6168-.3534.5724.3205-.1915,3.5001-1.1188,4.9571-1.1188,4.9571"/>
    <path fill="none" stroke="#000" stroke-linecap="round" stroke-linejoin="round" stroke-width="1.8" d="m50.7719,66.7944c-.7516,1.1632-2.1343,1.603-3.0902.9854-.9559-.6177-1.1216-2.0613-.37-3.2245,0,0,.8761-1.5078,4.0066-3.0385,0,0,.6168-.3534.5724.3205-.1915,3.5001-1.1188,4.9571-1.1188,4.9571"/>
  </g>
</svg>
