<?xml version="1.0" encoding="utf-8"?>
<!-- Generator: Adobe Illustrator 21.1.0, SVG Export Plug-In . SVG Version: 6.00 Build 0)  -->
<svg version="1.1" id="emoji" xmlns="http://www.w3.org/2000/svg" xmlns:xlink="http://www.w3.org/1999/xlink" x="0px" y="0px"
	 viewBox="0 0 72 72" enable-background="new 0 0 72 72" xml:space="preserve">
<g id="_xD83C__xDF26__xFE0F_">
	<g>
		<polygon fill="#FCEA2B" points="18.2,32.8 12,36.2 12.7,27.6 4.7,26.5 10.7,21 4.9,15.3 13,14.4 11.6,6.4 18.6,10.5 22.2,3.2 
			25.6,10.6 32.8,6.8 31.1,14.8 39.8,16.6 33.5,22 39.3,27.8 31.1,28.4 32.3,36.5 25.4,32.3 20.7,39.8 		"/>
		<g>
			
				<polyline fill="none" stroke="#000000" stroke-width="1.9" stroke-linecap="round" stroke-linejoin="round" stroke-miterlimit="10" points="
				14.5,33.7 11.3,35.5 13,27.5 4.9,26.3 11,20.9 5.1,15.2 13.2,14.3 11.8,6.3 18.9,10.3 22.5,3 25.8,10.4 33,6.6 31.4,14.6 
				39.4,15.8 36.5,18.2 			"/>
			
				<path fill="none" stroke="#000000" stroke-width="1.9" stroke-linecap="round" stroke-linejoin="round" stroke-miterlimit="10" d="
				M32.9,20c-0.5-5.4-5.1-9.7-10.7-9.7c-6,0-10.8,4.8-10.8,10.8c0,4.3,2.5,8,6.1,9.7"/>
		</g>
	</g>
	<g>
		
			<path fill="#D0D0D0" stroke="#000000" stroke-width="2" stroke-linecap="round" stroke-linejoin="round" stroke-miterlimit="10" d="
			M25.6,30.6c0,0.4-0.3,0.6-0.7,0.7c-4.3,0.5-7.6,4.7-7.6,9.8c0,5.5,3.8,9.9,8.5,9.9L58,51c5.1,0,9.3-4.7,9.3-10.4
			c0-5.5-3.8-10.1-8.7-10.4c-0.4,0-0.7-0.3-0.7-0.6c-1.1-5.5-6.1-9.7-12-9.7c-3.8,0-7.2,1.7-9.5,4.5c-0.2,0.3-0.6,0.4-0.9,0.3
			c-0.9-0.4-1.8-0.5-2.8-0.5C29.1,24,25.9,26.9,25.6,30.6z"/>
		<g>
			<g>
				<g>
					<path fill="#92D3F5" d="M28.7,59.2c-0.8,1.2-2.1,1.6-3.1,1c-1-0.6-1.1-2.1-0.4-3.2c0,0,0.9-1.4,4-3c0,0,0.6-0.4,0.6,0.3
						C29.6,57.8,28.7,59.2,28.7,59.2"/>
					<g>
						<path fill="#61B2E4" d="M29.2,54.1c0.5,1.7-0.7,4.9-0.7,4.9c-1,1.4-2.1,1.5-3.1,0.8C25.3,59.8,28,58.9,29.2,54.1"/>
					</g>
				</g>
				<g>
					<g>
						
							<path fill="none" stroke="#000000" stroke-width="1.8" stroke-linecap="round" stroke-linejoin="round" stroke-miterlimit="10" d="
							M28.7,59.2c-0.8,1.2-2.1,1.6-3.1,1c-1-0.6-1.1-2.1-0.4-3.2c0,0,0.9-1.5,4-3c0,0,0.6-0.4,0.6,0.3
							C29.6,57.8,28.7,59.2,28.7,59.2"/>
					</g>
				</g>
			</g>
			<g>
				<g>
					<path fill="#92D3F5" d="M58.8,59.2c-0.8,1.2-2.1,1.6-3.1,1c-1-0.6-1.1-2.1-0.4-3.2c0,0,0.9-1.4,4-3c0,0,0.6-0.4,0.6,0.3
						C59.7,57.8,58.8,59.2,58.8,59.2"/>
					<g>
						<path fill="#61B2E4" d="M59.3,54.1c0.5,1.7-0.7,4.9-0.7,4.9c-1,1.4-2.1,1.5-3.1,0.8C55.4,59.8,58.1,58.9,59.3,54.1"/>
					</g>
				</g>
				<g>
					<g>
						
							<path fill="none" stroke="#000000" stroke-width="1.8" stroke-linecap="round" stroke-linejoin="round" stroke-miterlimit="10" d="
							M58.8,59.2c-0.8,1.2-2.1,1.6-3.1,1c-1-0.6-1.1-2.1-0.4-3.2c0,0,0.9-1.5,4-3c0,0,0.6-0.4,0.6,0.3
							C59.7,57.8,58.8,59.2,58.8,59.2"/>
					</g>
				</g>
			</g>
			<g>
				<g>
					<path fill="#92D3F5" d="M43.7,59.2c-0.8,1.2-2.1,1.6-3.1,1c-1-0.6-1.1-2.1-0.4-3.2c0,0,0.9-1.4,4-3c0,0,0.6-0.4,0.6,0.3
						C44.7,57.8,43.7,59.2,43.7,59.2"/>
					<g>
						<path fill="#61B2E4" d="M44.2,54.1c0.5,1.7-0.7,4.9-0.7,4.9c-1,1.4-2.1,1.5-3.1,0.8C40.3,59.8,43.1,58.9,44.2,54.1"/>
					</g>
				</g>
				<g>
					<g>
						
							<path fill="none" stroke="#000000" stroke-width="1.8" stroke-linecap="round" stroke-linejoin="round" stroke-miterlimit="10" d="
							M43.7,59.2c-0.8,1.2-2.1,1.6-3.1,1c-1-0.6-1.1-2.1-0.4-3.2c0,0,0.9-1.5,4-3c0,0,0.6-0.4,0.6,0.3
							C44.7,57.8,43.7,59.2,43.7,59.2"/>
					</g>
				</g>
			</g>
			<g>
				<g>
					<path fill="#92D3F5" d="M35.7,66.8c-0.8,1.2-2.1,1.6-3.1,1c-1-0.6-1.1-2.1-0.4-3.2c0,0,0.9-1.4,4-3c0,0,0.6-0.4,0.6,0.3
						C36.6,65.3,35.7,66.8,35.7,66.8"/>
					<g>
						<path fill="#61B2E4" d="M36.2,61.7c0.5,1.7-0.7,4.9-0.7,4.9c-1,1.4-2.1,1.5-3.1,0.8C32.3,67.4,35,66.4,36.2,61.7"/>
					</g>
				</g>
				<g>
					<g>
						
							<path fill="none" stroke="#000000" stroke-width="1.8" stroke-linecap="round" stroke-linejoin="round" stroke-miterlimit="10" d="
							M35.7,66.8c-0.8,1.2-2.1,1.6-3.1,1c-1-0.6-1.1-2.1-0.4-3.2c0,0,0.9-1.5,4-3c0,0,0.6-0.4,0.6,0.3
							C36.6,65.3,35.7,66.8,35.7,66.8"/>
					</g>
				</g>
			</g>
			<g>
				<g>
					<path fill="#92D3F5" d="M50.8,66.8c-0.8,1.2-2.1,1.6-3.1,1c-1-0.6-1.1-2.1-0.4-3.2c0,0,0.9-1.4,4-3c0,0,0.6-0.4,0.6,0.3
						C51.7,65.3,50.8,66.8,50.8,66.8"/>
					<g>
						<path fill="#61B2E4" d="M51.2,61.7c0.5,1.7-0.7,4.9-0.7,4.9c-1,1.4-2.1,1.5-3.1,0.8C47.4,67.4,50.1,66.4,51.2,61.7"/>
					</g>
				</g>
				<g>
					<g>
						
							<path fill="none" stroke="#000000" stroke-width="1.8" stroke-linecap="round" stroke-linejoin="round" stroke-miterlimit="10" d="
							M50.8,66.8c-0.8,1.2-2.1,1.6-3.1,1c-1-0.6-1.1-2.1-0.4-3.2c0,0,0.9-1.5,4-3c0,0,0.6-0.4,0.6,0.3
							C51.7,65.3,50.8,66.8,50.8,66.8"/>
					</g>
				</g>
			</g>
		</g>
	</g>
</g>
</svg>
