<svg id="emoji" viewBox="0 0 72 72" xmlns="http://www.w3.org/2000/svg">
  <g id="color">
    <path fill="#a57939" d="m28,28.6136l18-1s5,25-1,25l-9,5-7.79-4.7685c-4.21-12.2315-.21-24.2315-.21-24.2315Z"/>
    <path fill="#f1b31c" d="m17,23.6136s1.3997-3.1233,4.9774-5.8066c6.7747-4.6017,14.6946-4.3,14.6946-4.3l-13.672,12.1066-6-2Z"/>
    <path fill="#6a462f" d="m27,27.6136l-11.2506-4s-12.7494,19,11.2506,28v-24Z"/>
    <path fill="#6a462f" d="m47,27.6136l9.8246-3.1745s10.931,12.1435-9.8246,27.1745l1-13-1-11Z"/>
    <path fill="#f1b31c" d="m16.9266,23.4983l.0839.1938c17.4971,10.4924,39.9895-.0785,39.9895-.0785-4.4394-6.2995-11.6499-10.0647-19.3564-10.1076"/>
  </g>
  <g id="line">
    <path fill="none" stroke="#000" stroke-miterlimit="10" stroke-width="2" d="m16.9266,23.4983l.0839.1938c17.4971,10.4924,39.9895-.0785,39.9895-.0785-4.4394-6.2995-11.6499-10.0647-19.3564-10.1076"/>
    <path fill="none" stroke="#000" stroke-miterlimit="10" stroke-width="2" d="m16,23.6136c17.4971,10.4924,41,0,41,0"/>
    <path fill="none" stroke="#000" stroke-miterlimit="10" stroke-width="2" d="m46.4732,27.5435s4.6059,13.5332-1.1843,25.3016"/>
    <path fill="none" stroke="#000" stroke-miterlimit="10" stroke-width="2" d="m46.4732,27.5435s4.6059,13.5332-1.1843,25.3016"/>
    <path fill="none" stroke="#000" stroke-linecap="round" stroke-linejoin="round" stroke-width="2" d="m21.9774,17.807c-6.1574,3.983-10.2448,10.3897-9.8666,17.7417.3892,7.5649,6.78,14.6806,13.5472,16.3619,4.101,1.0189,8.7043,4.8382,10.0172,5.9834.2172.1908.537.2077.7731.0409,2.7272-1.8628,5.5839-3.5287,8.5483-4.9849,8.5745-4.2024,13.5034-9.836,14.977-17.4009,2.291-11.7612-10.0847-22.0421-23.3016-22.0421-3.9287.0022-7.8109.8495-11.3832,2.4845"/>
    <path fill="none" stroke="#000" stroke-miterlimit="10" stroke-width="2" d="m27.0255,27.5435c-.5483,8.4517-.151,16.9381,1.1845,25.3016"/>
  </g>
</svg>
