<?xml version="1.0" encoding="utf-8"?>
<!-- Generator: Adobe Illustrator 21.1.0, SVG Export Plug-In . SVG Version: 6.00 Build 0)  -->
<svg version="1.1" id="emoji" xmlns="http://www.w3.org/2000/svg" xmlns:xlink="http://www.w3.org/1999/xlink" x="0px" y="0px"
	 viewBox="0 0 72 72" enable-background="new 0 0 72 72" xml:space="preserve">
<g id="_xD83C__xDF32_">
	<path fill="#5C9E31" d="M56,54l-8.1-15.2l3.3,0.5c0.5,0.1,1.1-0.3,1.1-0.8c0-0.2,0-0.5-0.1-0.7l-7.4-12.4l3.1,0.2
		c0.5,0,1-0.4,1.1-0.9c0-0.2,0-0.5-0.2-0.6l-12-17.3c-0.2-0.3-0.5-0.4-0.8-0.4c-0.3,0-0.6,0.2-0.8,0.5l-3.7,5.7l-7.8,12
		c-0.3,0.5-0.2,1.1,0.3,1.4c0.2,0.1,0.5,0.2,0.7,0.1l2.3-0.4l-7.6,12.2c-0.3,0.5-0.1,1.1,0.3,1.4c0.2,0.1,0.4,0.2,0.7,0.1l3.7-0.6
		L16,54c-0.3,0.5-0.1,1.1,0.4,1.4c0.2,0.1,0.4,0.1,0.5,0.1l12.4-0.8l1-0.1l11-0.1l13.7,1h0.1c0.6,0,1-0.4,1-1
		C56.1,54.3,56.1,54.1,56,54L56,54z"/>
	<polyline fill="none" stroke="#010202" stroke-width="2" stroke-linecap="round" stroke-linejoin="round" points="41.4,53.5 
		55.2,54.5 46.1,37.5 51.4,38.4 43.1,24.3 48.1,24.6 36,7.2 24.4,25 28.9,24.3 20.2,38.4 25.9,37.5 16.8,54.5 30.3,53.6 	"/>
	
		<line fill="none" stroke="#010202" stroke-width="2" stroke-linecap="round" stroke-miterlimit="10" x1="36" y1="56" x2="36" y2="65.3"/>
</g>
</svg>
