<?xml version="1.0" encoding="utf-8"?>
<!-- Generator: Adobe Illustrator 19.1.0, SVG Export Plug-In . SVG Version: 6.00 Build 0)  -->
<svg version="1.1" id="emoji" xmlns="http://www.w3.org/2000/svg" xmlns:xlink="http://www.w3.org/1999/xlink" x="0px" y="0px"
	 viewBox="0 0 72 72" enable-background="new 0 0 72 72" xml:space="preserve">
<g id="_xD83C__xDF3C_">
	<path fill="#FCEA2B" d="M53.2,26.1c-0.3-0.4-0.3-0.8,0-1.2l0.8-1.1c1.7-2.4,1.2-5.7-1.1-7.4c-1.1-0.8-2.4-1.1-3.7-1l-1.3,0.1
		c-0.4,0-0.8-0.2-1-0.6l-0.5-1.2c-1.2-2.7-4.3-3.9-7-2.7c-1.2,0.5-2.2,1.5-2.7,2.7l-0.5,1.2c-0.2,0.4-0.6,0.6-1,0.6l-1.3-0.1
		c-2.9-0.3-5.5,1.8-5.8,4.7c-0.1,1.3,0.2,2.6,1,3.7l0.8,1.1c0.3,0.4,0.3,0.8,0,1.2l-0.8,1.1c-1.7,2.4-1.2,5.7,1.1,7.4
		c1.1,0.8,2.4,1.1,3.7,1l1.3-0.1c0.4,0,0.8,0.2,1,0.6l0.5,1.2c0.1,0.3,0.3,0.6,0.5,0.9c0,0.1,0.1,0.1,0.1,0.2
		c0.2,0.2,0.4,0.4,0.6,0.7c0,0,0,0,0.1,0.1c0.5,0.5,1.1,0.8,1.7,1.1l0,0c0.6,0.2,1.2,0.3,1.9,0.3c2.1,0,4-1.2,4.8-3.2l0.5-1.2
		c0.2-0.4,0.6-0.6,1-0.6l1.3,0.1c2.9,0.3,5.5-1.8,5.8-4.7c0.1-1.3-0.2-2.6-1-3.7L53.2,26.1z"/>
	<path fill="#5C9E31" d="M10.1,28.4c-0.2,2.1-0.2,7.2,2.7,10.7s7.9,4.5,10,4.8c0.2-2.1,0.2-7.2-2.7-10.7l0,0
		C17.2,29.7,12.2,28.7,10.1,28.4z"/>
	<path fill="#F1B31C" d="M41.4,21.5c-2.2,0-4,1.8-4,4s1.8,4,4,4s4-1.8,4-4S43.6,21.5,41.4,21.5z"/>
	
		<circle fill="none" stroke="#1E1E1C" stroke-width="2" stroke-linecap="round" stroke-linejoin="round" cx="41.4" cy="25.5" r="5"/>
	<path fill="none" stroke="#1E1E1C" stroke-width="2" stroke-linecap="round" stroke-linejoin="round" d="M20.8,32.5
		c4,4.9,2.8,12.5,2.8,12.5S16,44.7,12,39.8S9.2,27.3,9.2,27.3S16.8,27.7,20.8,32.5z"/>
	<path fill="none" stroke="#1E1E1C" stroke-width="2" stroke-linecap="round" stroke-linejoin="round" d="M32,41.1
		c-3.4,3.5-7.7,10.2-5.8,20.7"/>
	<path fill="none" stroke="#1E1E1C" stroke-width="2" stroke-linecap="round" stroke-linejoin="round" d="M47.2,13.4l0.5,1.2
		l1.3-0.1c3.5-0.4,6.6,2.1,6.9,5.6c0.2,1.6-0.3,3.1-1.2,4.4L54,25.5l0.8,1.1c2.1,2.8,1.4,6.7-1.4,8.8c-1.3,0.9-2.8,1.3-4.4,1.2
		l-1.3-0.1l-0.5,1.2c-1.4,3.2-5.1,4.6-8.3,3.2c-1.4-0.6-2.6-1.8-3.2-3.2l-0.5-1.2l-1.3,0.1c-3.5,0.4-6.6-2.1-6.9-5.6
		c-0.2-1.6,0.3-3.1,1.2-4.4l0.8-1.1l-0.8-1.1c-2.1-2.8-1.4-6.7,1.4-8.8c1.3-0.9,2.8-1.3,4.4-1.2l1.3,0.1l0.5-1.2
		c1.4-3.2,5.1-4.6,8.3-3.2C45.4,10.9,46.6,12,47.2,13.4z"/>
</g>
</svg>
