<?xml version="1.0" encoding="utf-8"?>
<!-- Generator: Adobe Illustrator 21.1.0, SVG Export Plug-In . SVG Version: 6.00 Build 0)  -->
<svg version="1.1" id="emoji" xmlns="http://www.w3.org/2000/svg" xmlns:xlink="http://www.w3.org/1999/xlink" x="0px" y="0px"
	 viewBox="0 0 72 72" enable-background="new 0 0 72 72" xml:space="preserve">
<g id="_xD83C__xDF39_">
	<path fill="#EA5A47" d="M38.2,16.8c0,0-5.2-0.5-5.9,3s1.8,6.5,2.9,6.7c0,0-2.6,6.3,1.9,9.7s9.2,1.2,11-2.1c0,0,8.1,1,8.4-6.5
		c0,0-1-6.4-5.9-6.3c0,0,1.4-7-3.9-8.5S38.2,16.8,38.2,16.8z"/>
	<path fill="#B1CC33" d="M25.9,32.6c4,4.9,2.8,12.5,2.8,12.5s-7.7-0.3-11.7-5.2s-2.8-12.5-2.8-12.5S21.9,27.7,25.9,32.6z"/>
	<path fill="#D22F27" d="M44.4,38.2c0.9,2,1.9,3.7,3.5,4.6c1.7,0.9,3.7,0.7,5.1-0.1c1.5-0.8,2.7-2.5,2.7-4.6c0-1.8-1.1-3.5-2.1-5.4
		l-5,2.4L44.4,38.2z"/>
	<path fill="#D22F27" d="M52,20.1c0,0,0.2-3.3-0.3-4.1c0,0,1.1-1.7,3.1-1.3c1.5,0.3,2.3,3.3,2.7,4.8c0.1,0.5,0.3,0.7,0,1.1
		c-0.5,0.6-1.8,1.8-3,2.1L52,20.1z"/>
	<path fill="#EA5A47" d="M48.4,22.7c0,1.6-2.1,3-4.7,3s-4.7-1.3-4.7-3"/>
	<path fill="#D22F27" d="M50.5,31.2c-0.5,0.7-1.4,1.1-2.3,1.4c-1.1,0.3-2.4,0.4-3.5,0.3c-2.1-0.3-4-1.3-5.5-2.7
		c-1.4-1.3-2.3-3-2.7-4.8c0,0,0,0,0-0.1c-0.1-0.4-0.2-2.1,1.4-3.4c0.7-0.6,1.6-0.9,2.5-1c1.2-0.2,2.4-0.1,3.5,0.3
		c2,0.6,3.8,1.8,5,3.4c1.1,1.5,1.8,3.3,1.9,5.2"/>
	<g>
		<path fill="#EA5A47" d="M39,22.8c0,1.6,1.9,2.7,4.5,2.8s4.8-1.1,4.8-2.7l0-0.3c0-1.6-2.1-3-4.7-3C41,19.5,39,21.2,39,22.8"/>
	</g>
	<g>
		<path fill="#D22F27" d="M43.2,24.8c-0.6-1.4,0.3-3.2,2.1-3.9c0.9-0.4,2-0.4,2.9,0c1.4,0.5,2.4,1.9,2.4,3.4c0,0.2,0,0.4-0.1,0.6"/>
		<path fill="#D22F27" d="M43.2,23.8c-0.6,1.4,0.3,3.2,2.1,3.9c0.9,0.4,2,0.4,2.9,0c1.4-0.5,2.4-1.9,2.4-3.4c0-0.2,0-0.4-0.1-0.6"/>
	</g>
	<path fill="none" stroke="#BAB63E" stroke-width="2" stroke-linecap="round" stroke-linejoin="round" d="M22.5,31.2"/>
	<path fill="none" stroke="#000000" stroke-width="2" stroke-linecap="round" stroke-linejoin="round" stroke-miterlimit="10" d="
		M49.9,30.4c-0.4,0.6-1.3,1-2,1.3c-1,0.3-2.1,0.4-3.1,0.2c-1.9-0.3-3.5-1.2-4.8-2.5c-1.2-1.2-2.1-2.8-2.4-4.5"/>
	<path fill="none" stroke="#000000" stroke-width="2" stroke-linecap="round" stroke-linejoin="round" stroke-miterlimit="10" d="
		M40,22.8c0-1.6,1.7-3,3.7-3c2,0,3.7,1.3,3.7,3"/>
	<path fill="none" stroke="#000000" stroke-width="2" stroke-linecap="round" stroke-linejoin="round" stroke-miterlimit="10" d="
		M49.4,25c0,1.2-1.2,2.1-2.6,2.1c-0.8,0-1.5-0.3-2-0.8c-0.8-0.8-1.1-2-0.6-3c0.1-0.1,0.2-0.3,0.3-0.4"/>
	<path fill="none" stroke="#000000" stroke-width="2" stroke-linecap="round" stroke-linejoin="round" stroke-miterlimit="10" d="
		M53.3,15.9c1-0.6,2.4-0.1,3.2,1.1c0.8,1.2,0.6,2.7-0.4,3.3"/>
	<path fill="none" stroke="#000000" stroke-width="2" stroke-linecap="round" stroke-linejoin="round" stroke-miterlimit="10" d="
		M54.2,35.9c1.2,2.1,0.4,4.8-1.7,5.9c-2.1,1.2-4.8,0.4-5.9-1.7"/>
	<g>
		<path fill="none" stroke="#000000" stroke-width="2" stroke-linecap="round" stroke-linejoin="round" stroke-miterlimit="10" d="
			M38.2,16.2c-2.3-0.9-5.9,1.2-6.5,3.7c-0.6,2.3,0.9,6.2,3.2,7.1"/>
		<path fill="none" stroke="#000000" stroke-width="2" stroke-linecap="round" stroke-linejoin="round" stroke-miterlimit="10" d="
			M50.9,20.8c5.4,0.6,6.4,6.5,5.8,8.8c-0.9,3.4-5.4,5.4-8.1,4.7"/>
		<path fill="none" stroke="#000000" stroke-width="2" stroke-linecap="round" stroke-linejoin="round" stroke-miterlimit="10" d="
			M50.9,20.8c1.3-3.5-0.5-7.4-4-8.7c-3.5-1.3-7.4,0.5-8.7,4"/>
		<path fill="none" stroke="#000000" stroke-width="2" stroke-linecap="round" stroke-linejoin="round" stroke-miterlimit="10" d="
			M34.8,26.9c-2,3.8-0.6,8.5,3.2,10.6s8.5,0.6,10.6-3.2"/>
	</g>
	<path fill="none" stroke="#000000" stroke-width="2" stroke-linecap="round" stroke-linejoin="round" d="M25.9,32.3
		c4,4.9,2.8,12.5,2.8,12.5s-7.7-0.3-11.7-5.2s-2.8-12.5-2.8-12.5S21.9,27.4,25.9,32.3z"/>
	<path fill="none" stroke="#000000" stroke-width="2" stroke-linecap="round" stroke-linejoin="round" d="M37.1,40.9
		c-3.4,3.5-7.7,10.2-5.8,20.7"/>
	<path fill="none" stroke="#9B971E" stroke-width="2" stroke-linecap="round" stroke-linejoin="round" stroke-miterlimit="10" d="
		M50.9,27.4"/>
	<path fill="none" stroke="#9B971E" stroke-width="2" stroke-linecap="round" stroke-linejoin="round" stroke-miterlimit="10" d="
		M48.3,29.1"/>
	<path fill="none" stroke="#1E1E1D" stroke-width="2" stroke-linecap="round" stroke-linejoin="round" stroke-miterlimit="10" d="
		M37.5,24.7"/>
</g>
</svg>
