<?xml version="1.0" encoding="utf-8"?>
<!-- Generator: Adobe Illustrator 21.1.0, SVG Export Plug-In . SVG Version: 6.00 Build 0)  -->
<svg version="1.1" id="emoji" xmlns="http://www.w3.org/2000/svg" xmlns:xlink="http://www.w3.org/1999/xlink" x="0px" y="0px"
	 viewBox="0 0 72 72" enable-background="new 0 0 72 72" xml:space="preserve">
<g id="_xD83C__xDF33_">
	<path fill="none" stroke="#010202" stroke-width="2" stroke-miterlimit="10" d="M44.1,42.2"/>
	<path fill="#B0CB35" d="M51.6,17.7c-0.5,0-1,0-1.5,0.1l-0.7,0.1L49,17.3c-2.7-5-8.5-8.3-14.9-8.3c-9,0-16.4,6.4-16.4,14.3
		c0,0.5,0,1,0.1,1.5l0.1,0.8l-0.8,0.3c-4,1.3-6.6,4.2-6.6,7.4c0,4.4,4.9,8.1,10.8,8.1c2.3,0,4.6-0.6,6.6-1.7l0.6-0.3l0.2,0.2
		l0.3,0.3c2.7,2.2,7.1,3.5,11.7,3.5c7.8,0,14.3-3.7,14.3-8.1c0-0.3,0-0.5-0.1-0.8l-0.1-0.8l0-0.1l0.8-0.3c4-1.3,6.6-4.2,6.6-7.4
		C62.4,21.3,57.5,17.7,51.6,17.7z"/>
	<path fill="#5C9F32" d="M39.5,28c0,0,4.9,7.3,15.4,5.5l0.9,3.6l-4,4.9l-9.2,2l-12.1-2.6l-1.8-2.1C33.8,37.5,37.8,33.3,39.5,28z"/>
	<polyline fill="none" stroke="#010202" stroke-width="2" stroke-linecap="round" stroke-linejoin="round" points="35.8,63.9 
		35.8,52.8 28.2,45.3 	"/>
	
		<line fill="none" stroke="#010202" stroke-width="2" stroke-linecap="round" stroke-linejoin="round" x1="35.8" y1="52.8" x2="40.2" y2="48.2"/>
	<path fill="none" stroke="#010202" stroke-width="2" stroke-miterlimit="10" d="M45.3,41.4"/>
	<path fill="none" stroke="#010202" stroke-width="2" stroke-linecap="round" stroke-miterlimit="10" d="M63.4,25.8
		c0-5-5.3-9.1-11.8-9.1c-0.5,0-1.1,0-1.6,0.1C47.2,11.6,41.2,8,34.2,8c-9.6,0-17.4,6.8-17.4,15.3c0,0.6,0,1.1,0.1,1.7
		c-4.3,1.4-7.3,4.6-7.3,8.4c0,5,5.3,9.1,11.8,9.1c2.5,0,4.9-0.6,7.1-1.8c2.8,2.2,7.3,3.7,12.3,3.7c8.5,0,15.3-4.1,15.3-9.1
		c0-0.3,0-0.7-0.1-1C60.3,32.8,63.4,29.6,63.4,25.8z"/>
</g>
</svg>
