<svg id="emoji" xmlns="http://www.w3.org/2000/svg" viewBox="0 0 72 72">
  <g id="color">
    <path fill="#B1CC33" d="M51.935,35.8718c4.1996,0.9278,6.7648,5.4824,6.7648,5.4824s-4.2448,3.05-8.4449,2.1226 s-6.7648-5.4824-6.7648-5.4824S47.7371,34.9462,51.935,35.8718z" stroke="none"/>
    <path fill="#5C9E31" d="M22.3618,19.992c4.067,1.3991,6.0978,6.2158,6.0978,6.2158s-4.5639,2.5478-8.6315,1.149 s-6.0978-6.2158-6.0978-6.2158S18.2963,18.5952,22.3618,19.992z" stroke="none"/>
  </g>
  <g id="hair"/>
  <g id="skin"/>
  <g id="skin-shadow"/>
  <g id="line">
    <path fill="none" stroke="#000000" stroke-width="2" stroke-linecap="round" stroke-linejoin="round" stroke-miterlimit="10" d="M34.9254,33.9599"/>
    <polyline fill="none" stroke="#000000" stroke-width="2" stroke-linecap="round" stroke-linejoin="round" points="36,63.1661 36,51.1661 31,29.1661"/>
    <line fill="none" stroke="#000000" stroke-width="2" stroke-linecap="round" stroke-linejoin="round" x1="36" y1="51.1661" x2="41" y2="41.1661"/>
    <path fill="none" stroke="#000000" stroke-width="2" stroke-linecap="round" stroke-linejoin="round" d="M22.3618,19.992 c4.067,1.3991,6.0978,6.2158,6.0978,6.2158s-4.5639,2.5478-8.6315,1.149s-6.0978-6.2158-6.0978-6.2158 S18.2963,18.5952,22.3618,19.992z"/>
    <path fill="none" stroke="#000000" stroke-width="2" stroke-linecap="round" stroke-linejoin="round" d="M51.935,35.8718 c4.1996,0.9278,6.7648,5.4824,6.7648,5.4824s-4.2448,3.05-8.4449,2.1226s-6.7648-5.4824-6.7648-5.4824 S47.7371,34.9462,51.935,35.8718z"/>
  </g>
</svg>
