<?xml version="1.0" encoding="utf-8"?>
<!-- Generator: Adobe Illustrator 21.1.0, SVG Export Plug-In . SVG Version: 6.00 Build 0)  -->
<svg version="1.1" id="emoji" xmlns="http://www.w3.org/2000/svg" xmlns:xlink="http://www.w3.org/1999/xlink" x="0px" y="0px"
	 viewBox="0 0 72 72" enable-background="new 0 0 72 72" xml:space="preserve">
<g id="_xD83C__xDF37_">
	<path fill="#5C9E31" d="M23.7,59.4c0,0-8.8-5.4-9.2-14.7c-0.4-9.6,9.2-26.9,9.2-26.9S19,38.5,23.7,59.4z"/>
	<g>
		<path fill="#F4AA41" d="M50.7,27.3c-2.8-0.1-8.1,1.6-9.5,2.9c-2.5,2.2-2.9,2.9-3.8,6.5c-0.1,0.4,0.1,0.6,0.2,1.4
			c0.1,1.2-3.6-1.4-3.6-1.4c-2.1-1.9-1.3-5.3-0.2-7.9c2.7-6.2,14.3-9.9,16.5-8c0,0,1,1.2,1.1,6.5L50.7,27.3z"/>
		<path fill="#F4AA41" d="M49.3,21.5"/>
	</g>
	<path fill="#F4AA41" d="M57.3,29.9c1.3,2.5-3.1,13.6-9.7,14.8c-2.2,0.4-3.9-0.1-5.7-1.5c-1-0.8-1.8-1.7-2.5-2.8v0
		c-1.6-2.4-0.8-5.7,0.9-7.9C44.6,27.3,55.7,27.5,57.3,29.9"/>
	<g>
		<path fill="#E27022" d="M52.9,22.7c2.2-0.5,4.3-0.3,4.8,0.4"/>
		<path fill="#E27022" d="M51.4,27.3c0,0-0.4-4.5-0.5-4.8c-0.1-0.3,3.1-2.1,6.9-1.1c3.8,0.9,0,8,0,8l-1.3-1
			c-0.2-0.2-0.5-0.3-0.7-0.3C54.6,27.8,51.4,27.3,51.4,27.3z"/>
	</g>
	<path fill="none" stroke="#000000" stroke-width="2" stroke-linecap="round" stroke-linejoin="round" d="M23.7,59.4
		c0,0-8.8-5.4-9.2-14.7c-0.4-9.6,9.2-26.9,9.2-26.9S19,38.5,23.7,59.4z"/>
	<path fill="none" stroke="#000000" stroke-width="2" stroke-linecap="round" stroke-linejoin="round" d="M34.1,41.3
		c-3.4,3.5-7.7,10.2-5.8,20.7"/>
	<path fill="none" stroke="#1E1E1C" stroke-width="2" stroke-linecap="round" stroke-linejoin="round" d="M47.4,21.1"/>
	<path fill="none" stroke="#000000" stroke-width="2" stroke-linecap="round" stroke-linejoin="round" d="M57.1,29.9
		c1.3,2.5-3.1,13.6-9.7,14.8c-2.2,0.4-3.9-0.1-5.7-1.5c-1-0.8-1.8-1.7-2.5-2.8v0c-1.6-2.4-0.8-5.7,0.9-7.9
		C44.4,27.3,55.5,27.5,57.1,29.9"/>
	<g>
		<path fill="none" stroke="#000000" stroke-width="2" stroke-linecap="round" stroke-linejoin="round" d="M53.5,22.3
			c2.2-0.5,4.3-0.3,4.8,0.4"/>
		<path fill="none" stroke="#000000" stroke-width="2" stroke-linecap="round" stroke-linejoin="round" d="M58.4,22.7
			c0.4,0.6,0.2,2.2-0.4,3.8"/>
	</g>
	<g>
		<path fill="none" stroke="#000000" stroke-width="2" stroke-linecap="round" stroke-linejoin="round" d="M34.6,35.9
			c-2.1-1.9-1.9-4.8-0.8-7.4c2.7-6.2,13.5-9,15.6-7.1"/>
		<path fill="none" stroke="#000000" stroke-width="2" stroke-linecap="round" stroke-linejoin="round" d="M49.3,21.2
			c0.5,0.5,0.8,1.6,0.8,3.1"/>
	</g>
	<path fill="none" stroke="#D1CC1B" stroke-width="2" stroke-linecap="round" stroke-linejoin="round" d="M62,33.5"/>
	<path fill="none" stroke="#D1CC1B" stroke-width="2" stroke-linecap="round" stroke-linejoin="round" d="M46.7,16.6"/>
</g>
</svg>
