<?xml version="1.0" encoding="utf-8"?>
<!-- Generator: Adobe Illustrator 19.1.0, SVG Export Plug-In . SVG Version: 6.00 Build 0)  -->
<svg version="1.1" id="emoji" xmlns="http://www.w3.org/2000/svg" xmlns:xlink="http://www.w3.org/1999/xlink" x="0px" y="0px"
	 viewBox="0 0 72 72" enable-background="new 0 0 72 72" xml:space="preserve">
<g id="_xD83C__xDF3A__1_">
	<path fill="#FFA7C0" stroke="#FFA7C0" stroke-miterlimit="10" d="M57.2,26.3c0.1-2.5-1.9-4.6-4.4-4.7c2.7-3.6-1.5-8.3-5.5-5.6h0
		c-0.1-2.5-2.2-4.5-4.7-4.4c-2.5,0.1-4.5,2.2-4.4,4.7l0,0c-3.6-2.6-8.9,1.5-6.2,5.6l0,0c-2.5,0.1-4.5,2.2-4.4,4.7
		c0.1,2.5,2.2,4.5,4.7,4.4L32,24.3l0.2,6.8c-2.7,3.6,1.5,8.3,5.5,5.6l0,0c0.1,2.5,2.2,4.5,4.7,4.4c2.5-0.1,4.5-2.2,4.4-4.7l0,0
		c3.6,2.7,8.3-1.5,5.6-5.6l0,0C55,30.8,57.1,28.8,57.2,26.3z"/>
	<path fill="#FCEA2B" d="M40.8,28.4c-1.8,0-3.3-1.4-3.3-3.2c0-1.4,0.8-2.5,2-3c0.2-0.1,0.5,0,0.7,0.1l3.4,2.9l3.3,2.8
		c0.4,0.3,0.6,0.8,0.4,1.3c-0.4,1.4-1.7,2.4-3.2,2.4C42.3,31.6,40.8,30.2,40.8,28.4"/>
	<path fill="#B1CC33" d="M21.8,33.3c4,4.9,2.8,12.5,2.8,12.5S17,45.4,13,40.5S10.2,28,10.2,28S17.8,28.4,21.8,33.3z"/>
	<path fill="none" stroke="#000000" stroke-width="2" stroke-linecap="round" stroke-linejoin="round" d="M21.8,33.3
		c4,4.9,2.8,12.5,2.8,12.5S17,45.4,13,40.5S10.2,28,10.2,28S17.8,28.4,21.8,33.3z"/>
	<path fill="none" stroke="#000000" stroke-width="2" stroke-linecap="round" stroke-linejoin="round" d="M33,41.8
		c-3.4,3.5-7.7,10.2-5.8,20.7"/>
	<g>
		<path fill="none" stroke="#000000" stroke-width="2" stroke-linecap="round" stroke-linejoin="round" stroke-miterlimit="10" d="
			M43,26.4c0,0,3-3.9-0.1-7.5"/>
		<path fill="none" stroke="#000000" stroke-width="2" stroke-linecap="round" stroke-linejoin="round" stroke-miterlimit="10" d="
			M46.4,29c0,1.7-1.3,3-3,3s-3-1.3-3-3"/>
		<path fill="none" stroke="#000000" stroke-width="2" stroke-linecap="round" stroke-linejoin="round" stroke-miterlimit="10" d="
			M40.4,29c-1.7,0-3-1.3-3-3c0-1.4,1-2.6,2.3-2.9"/>
	</g>
	<g>
		<g>
			<path fill="none" stroke="#000000" stroke-width="2" stroke-linecap="round" stroke-linejoin="round" stroke-miterlimit="10" d="
				M37.7,15.3c-0.1-2.8,2.1-5.1,4.8-5.2c2.8-0.1,5.1,2.1,5.2,4.8"/>
			<path fill="none" stroke="#000000" stroke-width="2" stroke-linecap="round" stroke-linejoin="round" stroke-miterlimit="10" d="
				M53.4,31c2.8,0.1,5.1-2.1,5.2-4.8s-2.1-5.1-4.8-5.2"/>
			<path fill="none" stroke="#000000" stroke-width="2" stroke-linecap="round" stroke-linejoin="round" stroke-miterlimit="10" d="
				M53.7,21c2.9-3.9-1.7-9.1-6.1-6.1"/>
		</g>
		<path fill="none" stroke="#000000" stroke-width="2" stroke-linecap="round" stroke-linejoin="round" stroke-miterlimit="10" d="
			M47.3,37.1c3.9,2.9,9.1-1.7,6.1-6.1"/>
		<path fill="none" stroke="#000000" stroke-width="2" stroke-linecap="round" stroke-linejoin="round" stroke-miterlimit="10" d="
			M47.3,37c0.1,2.8-2.1,5.1-4.8,5.2c-2.8,0.1-5.1-2.1-5.2-4.8"/>
		<path fill="none" stroke="#000000" stroke-width="2" stroke-linecap="round" stroke-linejoin="round" stroke-miterlimit="10" d="
			M31.2,31.3c-2.9,3.9,1.7,9.1,6.1,6.1"/>
		<path fill="none" stroke="#000000" stroke-width="2" stroke-linecap="round" stroke-linejoin="round" stroke-miterlimit="10" d="
			M37.7,15.3c-3.9-2.9-9.8,1.6-6.8,6.1"/>
		<path fill="none" stroke="#000000" stroke-width="2" stroke-linecap="round" stroke-linejoin="round" stroke-miterlimit="10" d="
			M31.2,31.3c-2.8,0.1-5.1-2.1-5.2-4.8s2.1-5.1,4.8-5.2"/>
	</g>
	<circle cx="47.8" cy="25" r="1"/>
	<circle cx="47.7" cy="19.4" r="1"/>
</g>
</svg>
