<?xml version="1.0" encoding="utf-8"?>
<!-- Generator: Adobe Illustrator 19.1.0, SVG Export Plug-In . SVG Version: 6.00 Build 0)  -->
<svg version="1.1" id="emoji" xmlns="http://www.w3.org/2000/svg" xmlns:xlink="http://www.w3.org/1999/xlink" x="0px" y="0px"
	 viewBox="0 0 72 72" enable-background="new 0 0 72 72" xml:space="preserve">
<g id="_xD83C__xDF34_">
	<path fill="#5B9E32" d="M36.2,29.3L36.2,29.3c-2.3-4.3-8.3-5.5-13.5-2.8S16,34.7,18.3,39l1.2-1.3c1.8-1.9,2.6-2.3,4.8-3.7
		C24.3,34,30.4,29.5,36.2,29.3z"/>
	<path fill="#AFCA34" d="M37.3,28.2c-2.3-0.9-4.9-0.2-6.9,1.6c-1,0.9-1.9,2.2-2.4,3.7c-1.6,4.3,0,8.8,3.5,10.2v0
		C31.7,38.1,33.8,32.6,37.3,28.2L37.3,28.2z"/>
	<path fill="#5B9E32" d="M56.6,20L56.6,20c-1.8-4.5-7.6-6.5-13-4.4c-3.4,1.3-5.9,4-6.8,6.9c-0.5,1.7-0.5,3.5,0.1,5.1
		C36.9,27.6,45.5,19.2,56.6,20z"/>
	<path fill="#AFCA34" d="M61.7,34.9c1.5-5.7-2.8-11.8-9.6-13.6c-1.1-0.3-2.1-0.4-3.1-0.5c-5.6-0.3-10.7,2.7-11.9,7.5h0
		C45.6,27.8,54.5,30.1,61.7,34.9L61.7,34.9z"/>
	<path fill="#5B9E32" d="M12.3,23.7c0,0,12.5-0.9,23.3,2.6l0.8,0.4c0,0,2.2-6.8-3.3-9.7C28.5,14.7,16.7,12.6,12.3,23.7z"/>
	<g>
		<path fill="none" stroke="#000000" stroke-width="2" stroke-linecap="round" stroke-linejoin="round" d="M40,32.4
			c2.4,6.9,4.3,16.8,2.9,30.3"/>
	</g>
	<path fill="none" stroke="#000000" stroke-width="2" stroke-linecap="round" stroke-linejoin="round" d="M36.2,28.3L36.2,28.3
		c-2.3-4.3-8.3-5.5-13.5-2.8s-7.4,8.5-5.1,12.8l0,0c1.8-1.9,3.9-3.6,6.1-5.1"/>
	<path fill="none" stroke="#000000" stroke-width="2" stroke-linecap="round" stroke-linejoin="round" d="M56.4,19L56.4,19
		c-2.1-4.4-8-6-13.3-3.5c-3.3,1.6-5.6,4.4-6.3,7.4c-0.4,1.7-0.3,3.5,0.5,5.1"/>
	<path fill="none" stroke="#000000" stroke-width="2" stroke-linecap="round" stroke-linejoin="round" d="M37.3,28.2
		c-2.3-0.9-4.9-0.2-6.9,1.6c-1,0.9-1.9,2.2-2.4,3.7c-1.6,4.3,0,8.8,3.5,10.2v0C31.7,38.1,33.8,32.6,37.3,28.2L37.3,28.2z"/>
	<path fill="none" stroke="#000000" stroke-width="2" stroke-linecap="round" stroke-linejoin="round" d="M61.7,34.9
		c1.5-5.7-2.8-11.8-9.6-13.6c-1.1-0.3-2.1-0.4-3.1-0.5c-5.6-0.3-10.7,2.7-11.9,7.5h0C45.6,27.8,54.5,30.1,61.7,34.9L61.7,34.9z"/>
	<path fill="none" stroke="#000000" stroke-width="2" stroke-linecap="round" stroke-linejoin="round" d="M34.2,19
		c-0.1-0.1-0.2-0.2-0.3-0.3c-1.8-1.6-4.2-2.9-6.9-3.6c-6.9-1.7-13.5,1.9-14.8,7.7h0c2.3-0.2,4.6-0.3,6.9-0.1"/>
	
		<line fill="none" stroke="#1D1E1C" stroke-width="2" stroke-linecap="round" stroke-linejoin="round" x1="56.4" y1="19" x2="55" y2="18.9"/>
</g>
</svg>
