<svg id="emoji" viewBox="0 0 72 72" xmlns="http://www.w3.org/2000/svg">
  <g id="color">
    <path fill="#b1cc33" d="m51.5605,17.7304c-.5093.0029-1.018.0333-1.524.091l-.673.072-.317-.6c-2.673-5.047-8.5-8.308-14.854-8.308-9.026,0-16.369,6.4-16.369,14.268.0014.5162.0348,1.0319.1,1.544l.1.824-.792.251c-4.015,1.272-6.608,4.186-6.608,7.421,0,4.445,4.851,8.061,10.813,8.061,2.3045.0227,4.5747-.5593,6.584-1.688l.591-.341.189.151.344.275c2.714,2.167,7.082,3.462,11.683,3.462,7.762,0,14.32-3.691,14.32-8.061-.0013-.2702-.0274-.5396-.078-.805l-.138-.751-.022-.117.842-.266c4.022-1.271,6.622-4.185,6.622-7.425.001-4.439-4.851-8.058-10.813-8.058Z"/>
    <path fill="#5c9e31" d="m39.4685,27.9974s4.917,7.331,15.443,5.488l.6272,1.7053-.8266,2.6189c-2.5901,3.1871-5.0927,4.6512-9.1032,5.5357l-7.9389.0438-7.2116-1.9327-1.846-2.126c5.1993-1.8606,9.2206-6.0585,10.856-11.333Z"/>
  </g>
  <g id="line">
    <polyline fill="none" stroke="#000" stroke-linecap="round" stroke-linejoin="round" stroke-width="2" points="35.7895 63.9434 35.7895 52.7764 28.1585 45.2604"/>
    <line x1="35.7895" x2="40.1575" y1="52.7764" y2="48.2304" fill="none" stroke="#000" stroke-linecap="round" stroke-linejoin="round" stroke-width="2"/>
    <path fill="none" stroke="#000" stroke-linecap="round" stroke-miterlimit="10" stroke-width="2" d="m63.3745,25.7734c0-5-5.289-9.061-11.813-9.061-.5451.0044-1.0895.0378-1.631.1-2.763-5.216-8.762-8.839-15.738-8.839-9.593,0-17.369,6.836-17.369,15.268.0017.5574.0378,1.1141.108,1.667-4.288,1.359-7.306,4.595-7.306,8.374,0,5,5.289,9.061,11.813,9.061,2.4798.021,4.922-.6072,7.084-1.822,2.791,2.229,7.257,3.681,12.307,3.681,8.461,0,15.32-4.057,15.32-9.061-.0014-.3308-.0329-.6609-.094-.986,4.293-1.36,7.319-4.598,7.319-8.382Z"/>
  </g>
</svg>
