<svg id="emoji" xmlns="http://www.w3.org/2000/svg" viewBox="0 0 72 72">
  <g id="color">
    <path d="M52.598,12.598A28.1421,28.1421,0,0,1,12.799,52.397Z" fill="#f4aa41"/>
    <path d="M47.6231,17.5729A21.1066,21.1066,0,0,1,17.7739,47.4221Z" fill="#fcea2b"/>
    <path d="M41.67,23.5261A12.9032,12.9032,0,0,1,23.7271,41.4688Z" fill="#f1b31c"/>
  </g>
  <g id="line">
    <polyline points="52.598 12.598 47.623 17.573 41.67 23.526 23.727 41.469 17.774 47.422 12.799 52.397" fill="none" stroke="#000000" stroke-linecap="round" stroke-linejoin="round" stroke-width="2.3452"/>
    <path d="M52.598,12.598A28.1421,28.1421,0,0,1,12.799,52.397Z" fill="none" stroke="#000000" stroke-miterlimit="10" stroke-width="2.2514"/>
    <path d="M47.6231,17.5729A21.1066,21.1066,0,0,1,17.7739,47.4221Z" fill="none" stroke="#000000" stroke-miterlimit="10" stroke-width="2.2514"/>
    <path d="M41.67,23.5261A12.9032,12.9032,0,0,1,23.7271,41.4688Z" fill="none" stroke="#000000" stroke-miterlimit="10" stroke-width="2.3452"/>
    <path d="M30.2111,49.91S50.94,52.397,50.1106,30.01" fill="none" stroke="#000000" stroke-linecap="round" stroke-linejoin="round" stroke-width="2.2514"/>
    <circle cx="49.2814" cy="25.8643" r="1.1726" fill="#000000"/>
  </g>
</svg>
