<?xml version="1.0" encoding="utf-8"?>
<!-- Generator: Adobe Illustrator 19.1.0, SVG Export Plug-In . SVG Version: 6.00 Build 0)  -->
<svg version="1.1" id="emoji" xmlns="http://www.w3.org/2000/svg" xmlns:xlink="http://www.w3.org/1999/xlink" x="0px" y="0px"
	 viewBox="0 0 72 72" enable-background="new 0 0 72 72" xml:space="preserve">
<g id="_xD83C__xDF46_">
	
		<path fill="#8967AA" stroke="#8967AA" stroke-width="2" stroke-linecap="round" stroke-linejoin="round" stroke-miterlimit="10" d="
		M60.6,23.8c0.2,11.6-3.4,22-9.1,27.2c-0.1,0.1-0.2,0.2-0.3,0.3c-0.2,0.2-0.4,0.4-0.6,0.6c-0.3,0.3-0.6,0.6-0.9,0.9
		c-0.4,0.3-0.7,0.6-1.1,1c-0.2,0.2-0.4,0.3-0.6,0.4c-0.5,0.4-1.1,0.8-1.7,1.2c-0.2,0.1-0.4,0.3-0.6,0.4c-6.1,3.9-13.6,5.8-21.3,5
		c-0.8-0.1-1.6-0.2-2.4-0.4c-1.2-0.3-2.3-0.7-3.3-1.2C54.6,59,51.4,26.7,51.3,23.5L60.6,23.8z"/>
	
		<path fill="#B399C8" stroke="#B399C8" stroke-width="2" stroke-linecap="round" stroke-linejoin="round" stroke-miterlimit="10" d="
		M43.3,22.6l-0.2,0C43.2,22.5,43.3,22.5,43.3,22.6z"/>
	
		<path fill="#B399C8" stroke="#B399C8" stroke-width="2" stroke-linecap="round" stroke-linejoin="round" stroke-miterlimit="10" d="
		M18.7,59.2c-0.1,0-0.2-0.1-0.3-0.1c-5.3-2.9-8.4-8.8-7.1-14.9c1.6-7.5,9.1-12.4,16.9-10.9c0,0,8.1,2.6,13.3-3.8
		c1.8-2.2,2.2-6.2,1.8-6.9l10.8,0.8l-3-1.4C51.3,25.2,54.6,59,18.7,59.2z"/>
	<path fill="none" stroke="#000000" stroke-width="2" stroke-linecap="round" stroke-linejoin="round" stroke-miterlimit="10" d="
		M60.3,30.4c-0.1,1.8-0.5,3.8-0.9,5.6C56,52,40.7,62.6,24.4,60.8c-0.8-0.1-1.6-0.2-2.4-0.4c-7.5-1.7-12.2-8.9-10.7-16.2
		c1.6-7.5,9.1-12.4,16.9-10.9c0,0,7.7,2,12.9-3.2"/>
	
		<path fill="#5C9E31" stroke="#5C9E31" stroke-width="2" stroke-linecap="round" stroke-linejoin="round" stroke-miterlimit="10" d="
		M61.7,26.2c0,0-3.7,0.5-6.8-1.8c-0.5,3.8-3.5,6-3.5,6s-3-2.2-3.5-6c-0.7,0.5-1.5,0.9-2.2,1.2c-2.4,0.9-4.6,0.6-4.6,0.6
		s-0.6-4.5,2.5-7.7c0.7-0.7,1.4-1.2,2.1-1.5c2.8-1.4,10.3-1.7,13.5,1.5C62.3,21.8,61.7,26.2,61.7,26.2z"/>
	<path fill="#FFFFFF" stroke="#000000" stroke-width="2" stroke-miterlimit="10" d="M37.8,38.9"/>
	<path fill="none" stroke="#000000" stroke-width="2" stroke-linecap="round" stroke-linejoin="round" stroke-miterlimit="10" d="
		M50.8,12c-0.6-1-1.7-2-3.8-2"/>
	<path fill="none" stroke="#000000" stroke-width="2" stroke-miterlimit="10" d="M29,17"/>
	<path fill="#B1CC33" d="M51.4,30.4c0,0-3-2.2-3.5-6c-0.7,0.5-1.5,0.9-2.2,1.2c-2.4,0.9-4.6,0.6-4.6,0.6s-0.6-4.5,2.5-7.7
		c0.7-0.7,1.4-1.2,2.1-1.5c2.8-1.4,5.6-1,5.6-1L51.4,30.4z"/>
	<path fill="none" stroke="#000000" stroke-width="2" stroke-linecap="round" stroke-linejoin="round" stroke-miterlimit="10" d="
		M61.7,26.2c0,0-3.7,0.5-6.8-1.8c-0.5,3.8-3.5,6-3.5,6s-3-2.2-3.5-6c-0.7,0.5-1.5,0.9-2.2,1.2c-2.4,0.9-4.6,0.6-4.6,0.6
		s-0.6-4.5,2.5-7.7c0.7-0.7,1.4-1.2,2.1-1.5c2.8-1.4,10.3-1.7,13.5,1.5C62.3,21.8,61.7,26.2,61.7,26.2z"/>
	<path fill="none" stroke="#000000" stroke-width="2" stroke-linecap="round" stroke-linejoin="round" stroke-miterlimit="10" d="
		M41,30.1c0.1-0.1,0.3-0.3,0.4-0.4"/>
</g>
</svg>
