<?xml version="1.0" encoding="utf-8"?>
<!-- Generator: Adobe Illustrator 19.1.0, SVG Export Plug-In . SVG Version: 6.00 Build 0)  -->
<svg version="1.1" id="emoji" xmlns="http://www.w3.org/2000/svg" xmlns:xlink="http://www.w3.org/1999/xlink" x="0px" y="0px"
	 viewBox="0 0 72 72" enable-background="new 0 0 72 72" xml:space="preserve">
<g id="_xD83C__xDF4B__1_">
	<path fill="#FCEA0D" stroke="#1D1D1B" stroke-width="2" stroke-linecap="round" stroke-miterlimit="10" d="M16,55.9
		c-1.6-1.7-1.9-4.1-1-6.1c-4.3-8.3-1.7-20.3,7-28.9s20.5-11.2,28.9-7c2-0.9,4.5-0.6,6.2,1.1c1.7,1.7,2,4.1,1.1,6.2
		c4.3,8.4,1.7,20.3-7,28.9s-20.5,11.2-28.9,7C20.3,58.1,17.8,57.7,16,55.9C16.1,56,16.1,56,16,55.9"/>
	<path fill="#F8B133" stroke="#F8B133" stroke-width="2" stroke-miterlimit="10" d="M50.6,50c-8.6,8.6-20.5,11.2-28.9,7
		C56.3,57,58,21.8,58,21.8C62.3,30.2,59.2,41.4,50.6,50z"/>
	<path fill="#F8B133" d="M57,14.9c0,0,1.8,4.8,1,7.2L53.8,18L57,14.9"/>
	<path fill="#F8B133" d="M16.2,57.1c0,0,5.1,1,7.3-0.2l-4.7-3.4L16.2,57.1"/>
	<path fill="none" stroke="#1D1D1B" stroke-width="2" stroke-linecap="round" stroke-miterlimit="10" d="M16,55.9
		c-1.6-1.7-1.9-4.1-1-6.1c-4.3-8.3-1.7-20.3,7-28.9s20.5-11.2,28.9-7c2-0.9,4.5-0.6,6.2,1.1c1.7,1.7,2,4.1,1.1,6.2
		c4.3,8.4,1.7,20.3-7,28.9s-20.5,11.2-28.9,7C20.3,58.1,17.8,57.7,16,55.9C16.1,56,16.1,56,16,55.9"/>
</g>
</svg>
