<svg id="emoji" viewBox="0 0 72 72" version="1.1" xmlns="http://www.w3.org/2000/svg">
  <g id="color">
    <path fill="#b1cc33" stroke-width="0" d="M20.0405,18s-5,10-4,15,5,20,23,15,17-14,17-14L20.0405,18"/>
    <path fill="#5c9e31" stroke-width="0" d="M38.0405,27s4,12,6,13c.8944.4472,3,1,7-3,2-2,2.2649-3.3675,1-4-2-1-14-6-14-6Z"/>
    <path fill="#5c9e31" stroke-width="0" d="M36.0405,28l-9,15s-2,4,6,4,9-3,9-5-6-14-6-14Z"/>
    <path fill="#5c9e31" stroke-width="0" d="M34.0405,27s-13,2-14,3c-2,2-2,6,0,10s3.2929,3.7071,4,3c2-2,10-16,10-16Z"/>
    <path fill="#5c9e31" stroke-width="0" d="M22.0405,21c-2,1-3,6-1,7s13-3,13-3c0,0-10.2111-4.8944-12-4Z"/>
    <path fill="#fff" stroke-width="0" d="M26.4508,29.9179c.9179-.9179,4.5897-.9179,4.5897-.9179,0,0-.9179,2.7538-1.8359,3.6718-.3629.3629-1.7537.5065-1.8359,0-.156-.9611,1.8359-2.7538,1.8359-2.7538,0,0-1.3365.8-1.8359.9179-.8934.2109-1.2808-.5551-.9179-.9179h0Z"/>
    <path fill="#fff" stroke-width="0" d="M35.8219,31s-1.6585,2.4877-.8292,4.1461,1.6585,0,1.6585-.8292-.8292-3.3169-.8292-3.3169h0Z"/>
    <path fill="#fff" stroke-width="0" d="M40.0405,28.8473s1.4352,2.1527,2.1527,2.1527.8473-1,0-1.4352c-.5046-.2592-2.1527-.7176-2.1527-.7176h0Z"/>
    <path fill="#5c9e31" stroke-width="0" d="M56.0405,34.4595c0,18.5454-18,24.6892-33,14.402s-3-30.8615-3-30.8615c0,0-11,25.7179,7,29.8328,19.9104,4.5516,29-16.4595,29-13.3733Z"/>
  </g>
  <g id="line">
    <path fill="none" stroke="#000" stroke-linejoin="round" stroke-width="2" d="M56.4437,35.2005c-.1519,18.0271-18.2015,23.8475-33.1168,13.7215-14.9152-10.126-2.7472-30.0242-2.7472-30.0242,0,0-11.2102,24.9065,6.7555,29.0579,19.8724,4.5921,29.1338-15.7551,29.1085-12.7552Z"/>
  </g>
</svg>
