<svg id="emoji" xmlns="http://www.w3.org/2000/svg" viewBox="0 0 72 72">
  <g id="color">
    <path fill="#a57939" stroke="#a57939" stroke-width="0" stroke-linecap="round" stroke-linejoin="round" d="M49.334,35.25 L39.209,46H56c1.1045,0,2-0.8955,2-2v-6.75c0-1.1045-0.8955-2-2-2H49.334"/>
    <path fill="#a57939" d="M32.875,46H16c-1.1045,0-2-0.8955-2-2v-6.75c0-1.1045,0.8955-2,2-2h6.584L32.875,46z" stroke="none"/>
    <path fill="#f4aa41" d="M32.875,46H15c-1.1045,0-2,0.8955-2,2v6c0,1.1045,0.8955,2,2,2h42c1.1045,0,2-0.8955,2-2v-6 c0-1.1045-0.8955-2-2-2H39.209" stroke="none"/>
    <path fill="#e27022" d="M48,46h9c1.1045,0,2,0.8955,2,2v6c0,1.1045-0.8955,2-2,2h-9V46z" stroke="none"/>
    <path fill="#f4aa41" d="M59,33.1758c0,1.1045-0.8955,2-2,2H15c-1.1045,0-2-0.8955-2-2C14.4844,21.792,24.2119,13,36,13 S57.5156,21.792,59,33.1758z" stroke="none"/>
    <path fill="#e27022" d="M42,13.8438c3.0742,5.1484,5.1563,12.2099,6,21.332h9c1.1045,0,2-0.8955,2-2 C57.5,21.9375,48.3438,15.1875,42,13.8438z" stroke="none"/>
    <polygon fill="#fcea2b" points="49.9414,35.25 22.0586,35.25 36,49.1914" stroke="none"/>
    <path fill="#6A462F" stroke="#a57939" stroke-width="0" stroke-linecap="round" stroke-linejoin="round" d="M48,35.1758V46h8 c1.1045,0,2-0.8955,2-2v-6.75c0-1.1045-0.8955-2-2-2h-6.666"/>
  </g>
  <g id="hair"/>
  <g id="skin"/>
  <g id="skin-shadow"/>
  <g id="line">
    <path fill="none" stroke="#000000" stroke-width="2" stroke-linecap="round" stroke-linejoin="round" stroke-miterlimit="10" d="M32.875,46H16c-1.1045,0-2-0.8955-2-2v-6.75c0-1.1045,0.8955-2,2-2h40c1.1045,0,2,0.8955,2,2V44c0,1.1045-0.8955,2-2,2H39.209"/>
    <path fill="none" stroke="#000000" stroke-width="2" stroke-linecap="round" stroke-linejoin="round" stroke-miterlimit="10" d="M32.875,46H15c-1.1045,0-2,0.8955-2,2v6c0,1.1045,0.8955,2,2,2h42c1.1045,0,2-0.8955,2-2v-6c0-1.1045-0.8955-2-2-2H39.209"/>
    <path fill="none" stroke="#000000" stroke-width="2" stroke-linecap="round" stroke-linejoin="round" stroke-miterlimit="10" d="M59,33.1758c0,1.1045-0.8955,2-2,2H15c-1.1045,0-2-0.8955-2-2C14.4844,21.792,24.2119,13,36,13S57.5156,21.792,59,33.1758z"/>
    <polygon fill="none" stroke="#000000" stroke-width="2" stroke-linecap="round" stroke-linejoin="round" stroke-miterlimit="10" points="49.9414,35.25 22.0586,35.25 36,49.1914"/>
  </g>
</svg>
