<?xml version="1.0" encoding="utf-8"?>
<!-- Generator: Adobe Illustrator 21.1.0, SVG Export Plug-In . SVG Version: 6.00 Build 0)  -->
<svg version="1.1" id="Ebene_3" xmlns="http://www.w3.org/2000/svg" xmlns:xlink="http://www.w3.org/1999/xlink" x="0px" y="0px"
	 viewBox="0 0 72 72" enable-background="new 0 0 72 72" xml:space="preserve">
<g>
	<g>
		<path fill="#F4A941" d="M52.3,19.7c0.5,0.5,0.9,1,1.3,1.5l2.9-5.7c-11.3-11.3-29.7-11.3-41,0l2.9,5.7c0.4-0.5,0.9-1,1.3-1.5
			C28.7,10.8,43.3,10.8,52.3,19.7z"/>
		<path fill="#FBEA2E" d="M53.6,21.2c-0.4-0.5-0.9-1-1.3-1.5c-9-9-23.5-9-32.5,0c-0.5,0.5-0.9,1-1.3,1.5L36,56L53.6,21.2z"/>
		<circle fill="#E95947" cx="31" cy="24" r="5"/>
		<circle fill="#E95947" cx="44" cy="24" r="3"/>
		<circle fill="#E95947" cx="37" cy="36" r="3"/>
	</g>
	<path fill="none" stroke="#000000" stroke-width="2" stroke-linecap="round" stroke-linejoin="round" stroke-miterlimit="10" d="
		M52.3,19.7c0.5,0.5,0.9,1,1.3,1.5l2.9-5.7c-11.3-11.3-29.7-11.3-41,0l2.9,5.7c0.4-0.5,0.9-1,1.3-1.5C28.7,10.8,43.3,10.8,52.3,19.7
		z"/>
	<path fill="none" stroke="#000000" stroke-width="2" stroke-linecap="round" stroke-linejoin="round" stroke-miterlimit="10" d="
		M53.6,21.2c-0.4-0.5-0.9-1-1.3-1.5c-9-9-23.5-9-32.5,0c-0.5,0.5-0.9,1-1.3,1.5L36,56L53.6,21.2z"/>
	
		<circle fill="none" stroke="#000000" stroke-width="2" stroke-linecap="round" stroke-linejoin="round" stroke-miterlimit="10" cx="31" cy="24" r="5"/>
	
		<circle fill="none" stroke="#000000" stroke-width="2" stroke-linecap="round" stroke-linejoin="round" stroke-miterlimit="10" cx="44" cy="24" r="3"/>
	
		<circle fill="none" stroke="#000000" stroke-width="2" stroke-linecap="round" stroke-linejoin="round" stroke-miterlimit="10" cx="37" cy="36" r="3"/>
</g>
</svg>
