<?xml version="1.0" encoding="utf-8"?>
<!-- Generator: Adobe Illustrator 21.1.0, SVG Export Plug-In . SVG Version: 6.00 Build 0)  -->
<svg version="1.1" id="Ebene_3" xmlns="http://www.w3.org/2000/svg" xmlns:xlink="http://www.w3.org/1999/xlink" x="0px" y="0px"
	 viewBox="0 0 72 72" enable-background="new 0 0 72 72" xml:space="preserve">
<g>
	<g>
		<path fill="#A47938" stroke="#A47938" stroke-width="0" stroke-linecap="round" stroke-linejoin="round" d="M49.3,35.2L39.2,46H56
			c1.1,0,2-0.9,2-2v-6.8c0-1.1-0.9-2-2-2H49.3"/>
		<path fill="#A47938" d="M32.9,46H16c-1.1,0-2-0.9-2-2v-6.8c0-1.1,0.9-2,2-2h6.6L32.9,46z"/>
		<g>
			<path fill="#F4A941" d="M32.9,46H15c-1.1,0-2,0.9-2,2v6c0,1.1,0.9,2,2,2h42c1.1,0,2-0.9,2-2v-6c0-1.1-0.9-2-2-2H39.2"/>
		</g>
		<g>
			<path fill="#E16F20" d="M48,46h9c1.1,0,2,0.9,2,2v6c0,1.1-0.9,2-2,2h-9V46z"/>
		</g>
		<path fill="#F4A941" d="M59,33.2c0,1.1-0.9,2-2,2H15c-1.1,0-2-0.9-2-2C14.5,21.8,24.2,13,36,13S57.5,21.8,59,33.2z"/>
		<path fill="#E16F20" d="M42,13.8c3.1,5.1,5.2,12.2,6,21.3h9c1.1,0,2-0.9,2-2C57.5,21.9,48.3,15.2,42,13.8z"/>
		<polygon fill="#FBEA2E" points="49.9,35.2 22.1,35.2 36,49.2 		"/>
		<path fill="#6A462F" stroke="#A47938" stroke-width="0" stroke-linecap="round" stroke-linejoin="round" d="M48,35.2V46h8
			c1.1,0,2-0.9,2-2v-6.8c0-1.1-0.9-2-2-2h-6.7"/>
	</g>
	<path fill="none" stroke="#000000" stroke-width="2" stroke-linecap="round" stroke-linejoin="round" stroke-miterlimit="10" d="
		M32.9,46H16c-1.1,0-2-0.9-2-2v-6.8c0-1.1,0.9-2,2-2h40c1.1,0,2,0.9,2,2V44c0,1.1-0.9,2-2,2H39.2"/>
	<g>
		<path fill="none" stroke="#000000" stroke-width="2" stroke-linecap="round" stroke-linejoin="round" stroke-miterlimit="10" d="
			M32.9,46H15c-1.1,0-2,0.9-2,2v6c0,1.1,0.9,2,2,2h42c1.1,0,2-0.9,2-2v-6c0-1.1-0.9-2-2-2H39.2"/>
	</g>
	<path fill="none" stroke="#000000" stroke-width="2" stroke-linecap="round" stroke-linejoin="round" stroke-miterlimit="10" d="
		M59,33.2c0,1.1-0.9,2-2,2H15c-1.1,0-2-0.9-2-2C14.5,21.8,24.2,13,36,13S57.5,21.8,59,33.2z"/>
	
		<polygon fill="none" stroke="#000000" stroke-width="2" stroke-linecap="round" stroke-linejoin="round" stroke-miterlimit="10" points="
		49.9,35.2 22.1,35.2 36,49.2 	"/>
</g>
</svg>
