<?xml version="1.0" encoding="utf-8"?>
<!-- Generator: Adobe Illustrator 21.1.0, SVG Export Plug-In . SVG Version: 6.00 Build 0)  -->
<svg version="1.1" id="emoji" xmlns="http://www.w3.org/2000/svg" xmlns:xlink="http://www.w3.org/1999/xlink" x="0px" y="0px"
	 viewBox="0 0 72 72" enable-background="new 0 0 72 72" xml:space="preserve">
<g id="_xD83C__xDF53_">
	
		<path fill="#EA5A47" stroke="#EA5A47" stroke-width="2" stroke-linecap="round" stroke-linejoin="round" stroke-miterlimit="10" d="
		M55.3,34.4L55.3,34.4c0,8.8-10.5,20-16.1,25.3c-1.9,1.8-4.7,1.8-6.6,0c-5.5-5.3-16.1-16.5-16.1-25.3c0,0,0-0.7,0-1.1
		c0-7.2,5.3-13.1,11.9-13.1c2.8,0,7.5,0.7,7.5,0.7s4.6-0.7,7.5-0.7c6.6,0,11.9,5.8,11.9,13.1C55.3,33.7,55.3,34.1,55.3,34.4z"/>
	<path fill="#D22F27" stroke="#D22F27" stroke-width="2" stroke-linejoin="round" stroke-miterlimit="10" d="M55.3,34.4
		c0,8.8-10.5,20-16.1,25.3c-0.9,0.9-2,1.3-3.1,1.3C53.5,43.7,47.3,28,47.3,28s-2-3.8-5.1-5.2c-0.2-0.1-0.4-0.2-0.6-0.2
		c0.9,0,1.8-0.2,2.7-0.5c0.8-0.3,1.6-0.8,2.3-1.4c5.1,1.5,8.8,6.6,8.8,12.6C55.3,33.7,55.3,34.4,55.3,34.4z"/>
	
		<path fill="#EA5A47" stroke="#EA5A47" stroke-width="2" stroke-linecap="round" stroke-linejoin="round" stroke-miterlimit="10" d="
		M47.3,28c0,0-4.2,1.1-7.2-0.2c-1.7-0.7-3.1-2.2-4-3.4c-0.5,0.6-1.1,1.3-1.8,1.9c-0.7,0.6-1.6,1.2-2.5,1.6c-3.1,1.2-7.2-0.1-7.2-0.1
		s2.2-3.7,5.3-4.9c0.1,0,0.2-0.1,0.3-0.1c-0.9-0.1-1.9-0.3-2.8-0.6c-0.7-0.3-1.4-0.8-2-1.3c1-0.3,2.1-0.5,3.2-0.5
		c2.8,0,7.5,0.7,7.5,0.7s4.6-0.7,7.5-0.7c1.1,0,2.1,0.2,3.1,0.5c-0.7,0.6-1.4,1.1-2.3,1.4c-0.9,0.3-1.8,0.5-2.7,0.5
		c0.2,0.1,0.4,0.1,0.6,0.2C45.3,24.2,47.3,28,47.3,28z"/>
	<path fill="none" stroke="#000000" stroke-linejoin="round" stroke-miterlimit="10" d="M50.6,34.4"/>
	
		<path fill="#B1CC33" stroke="#000000" stroke-width="2" stroke-linecap="round" stroke-linejoin="round" stroke-miterlimit="10" d="
		M47.3,28c0,0-4.2,1.1-7.2-0.2c-1.7-0.7-3.1-2.2-4-3.4c-0.5,0.6-1.1,1.3-1.8,1.9c-0.7,0.6-1.6,1.2-2.5,1.6c-3.1,1.2-7.2-0.1-7.2-0.1
		s2.2-3.7,5.3-4.9c0.1,0,0.2-0.1,0.3-0.1c-0.9-0.1-1.9-0.3-2.8-0.6c-0.7-0.3-1.4-0.8-2-1.3c-1.9-1.6-3-3.8-3-3.8s4.2-1.1,7.2,0.2
		c0.2,0.1,0.5,0.2,0.7,0.4c-0.8-3,0.3-6.5,0.3-6.5s3.7,2.2,4.9,5.3c0.1,0.4,0.2,0.7,0.3,1.1c0.1-0.4,0.2-0.8,0.4-1.2
		c1.4-3.1,5.2-5.1,5.2-5.1s0.9,3.4,0.1,6.3c0.3-0.2,0.5-0.3,0.8-0.4c3.1-1.2,7.2,0.1,7.2,0.1s-1.2,2-3,3.5c-0.7,0.6-1.4,1.1-2.3,1.4
		c-0.9,0.3-1.8,0.5-2.7,0.5c0.2,0.1,0.4,0.1,0.6,0.2C45.3,24.2,47.3,28,47.3,28z"/>
	<ellipse cx="35.6" cy="38.5" rx="0.9" ry="1.8"/>
	<ellipse cx="23" cy="37.4" rx="0.9" ry="1.8"/>
	<ellipse cx="47" cy="38.5" rx="0.9" ry="1.8"/>
	<ellipse cx="41.3" cy="46.5" rx="0.9" ry="1.8"/>
	<ellipse cx="35.6" cy="54.5" rx="0.9" ry="1.8"/>
	<ellipse cx="29.9" cy="46.5" rx="0.9" ry="1.8"/>
	<g>
		<path fill="none" stroke="#000000" stroke-width="2" stroke-linecap="round" stroke-linejoin="round" stroke-miterlimit="10" d="
			M21.9,22.5c-3.4,2.4-4.7,6.7-4.7,6.7c-0.4,1.3-0.7,2.7-0.7,4.1c0,0.4,0,1.1,0,1.1c0,8.8,10.6,20.1,16.2,25.3
			c1.9,1.8,4.7,1.8,6.6,0c5.5-5.3,16.1-16.5,16.1-25.3c0,0,0-0.7,0-1.1c0-1.4-0.2-2.7-0.5-3.9c0,0-0.7-3.9-4.7-7"/>
	</g>
</g>
</svg>
