<svg id="emoji" viewBox="0 0 72 72" xmlns="http://www.w3.org/2000/svg">
  <g id="color">
    <path fill="#d22f27" d="m62.92,35.0029c.0686-1.0352-.7149-1.9301-1.7502-1.9988-.0413-.0027-.0826-.0041-.124-.0041H11.0529c-1.0895-.002-1.9743.8795-1.9764,1.969-.0001.0542.002.1083.0064.1623.857,9.7287,7.53,17.9843,16.7945,21.7238v5.4866c.0335.9444.8226,1.6848,1.7672,1.6583h16.7108c.9445.0264,1.7335-.714,1.767-1.6583v-4.8424c9.712-3.3783,16.0713-12.1093,16.7976-22.4964Z"/>
  </g>
  <g id="line">
    <line x1="61.4336" x2="17.4336" y1="21" y2="21" fill="none" stroke="#000" stroke-linecap="round" stroke-linejoin="round" stroke-width="2"/>
    <line x1="61.4336" x2="17.4336" y1="13" y2="13" fill="none" stroke="#000" stroke-linecap="round" stroke-linejoin="round" stroke-width="2"/>
    <line x1="34.2773" x2="34.4336" y1="10.8125" y2="33" fill="none" stroke="#000" stroke-linecap="round" stroke-linejoin="round" stroke-width="1.8409"/>
    <line x1="28.2773" x2="28.4336" y1="10.8125" y2="33" fill="none" stroke="#000" stroke-linecap="round" stroke-linejoin="round" stroke-width="1.8409"/>
    <line x1="22.2773" x2="22.4336" y1="10.8125" y2="33" fill="none" stroke="#000" stroke-linecap="round" stroke-linejoin="round" stroke-width="1.8409"/>
    <path fill="none" stroke="#000" stroke-linecap="round" stroke-linejoin="round" stroke-width="2" d="m62.92,35.0029c.0686-1.0352-.7149-1.9301-1.7502-1.9988-.0413-.0027-.0826-.0041-.124-.0041H11.0529c-1.0895-.002-1.9743.8795-1.9764,1.969-.0001.0542.002.1083.0064.1623.857,9.7287,7.53,17.9843,16.7945,21.7238v5.4866c.0335.9444.8226,1.6848,1.7672,1.6583h16.7108c.9445.0264,1.7335-.714,1.767-1.6583v-4.8424c9.712-3.3783,16.0713-12.1093,16.7976-22.4964Z"/>
  </g>
  <g id="color-foreground">
    <line x1="34.2773" x2="34.4336" y1="10.8125" y2="33" fill="none" stroke="#f1b31c" stroke-linecap="round" stroke-linejoin="round" stroke-width="1.8409"/>
    <line x1="28.2773" x2="28.4336" y1="10.8125" y2="33" fill="none" stroke="#f1b31c" stroke-linecap="round" stroke-linejoin="round" stroke-width="1.8409"/>
    <line x1="22.2773" x2="22.4336" y1="10.8125" y2="33" fill="none" stroke="#f1b31c" stroke-linecap="round" stroke-linejoin="round" stroke-width="1.8409"/>
  </g>
</svg>
