<?xml version="1.0" encoding="utf-8"?>
<!-- Generator: Adobe Illustrator 21.1.0, SVG Export Plug-In . SVG Version: 6.00 Build 0)  -->
<svg version="1.1" id="emoji" xmlns="http://www.w3.org/2000/svg" xmlns:xlink="http://www.w3.org/1999/xlink" x="0px" y="0px"
	 viewBox="0 0 72 72" enable-background="new 0 0 72 72" xml:space="preserve">
<g id="_xD83C__xDF6C_">
	<g>
		<path fill="#B1CB34" d="M47.1,27.1l5.3-1l-0.5-0.7L63,23.1l1.4-1.4c0.8-0.8,0.8-2,0-2.8c-0.8-0.8-2-0.8-2.8,0
			c-0.8,0.8-2,0.8-2.8,0c-0.8-0.8-0.8-2,0-2.8c0.8-0.8,0.8-2,0-2.8c-0.8-0.8-2-0.8-2.8,0c-0.8,0.8-2,0.8-2.8,0c-0.8-0.8-0.8-2,0-2.8
			c0.8-0.8,0.8-2,0-2.8c-0.8-0.8-2-0.8-2.8,0L48.9,9l-2.2,11.1l-0.9-0.6l-0.8,4.1"/>
		<path fill="#B1CB34" d="M24.7,44.7l-5.3,1l0.7,0.9L9,48.9l-1.4,1.4c-0.8,0.8-0.8,2,0,2.8c0.8,0.8,2,0.8,2.8,0c0.8-0.8,2-0.8,2.8,0
			c0.8,0.8,0.8,2,0,2.8c-0.8,0.8-0.8,2,0,2.8c0.8,0.8,2,0.8,2.8,0c0.8-0.8,2-0.8,2.8,0c0.8,0.8,0.8,2,0,2.8c-0.8,0.8-0.8,2,0,2.8
			c0.8,0.8,2,0.8,2.8,0l1.4-1.4l2.2-11.1l0.9,0.6l0.8-4.1"/>
	</g>
	
		<ellipse transform="matrix(0.7071 -0.7071 0.7071 0.7071 -14.9118 35.9986)" fill="none" stroke="#1D1D1B" stroke-width="2" stroke-linecap="round" stroke-linejoin="round" stroke-miterlimit="10" cx="36" cy="36" rx="15" ry="15"/>
	<g>
		<path fill="none" stroke="#1D1D1B" stroke-width="2" stroke-linecap="round" stroke-linejoin="round" stroke-miterlimit="10" d="
			M51.9,25.4L63,23.1l1.4-1.4c0.8-0.8,0.8-2,0-2.8c-0.8-0.8-2-0.8-2.8,0c-0.8,0.8-2,0.8-2.8,0c-0.8-0.8-0.8-2,0-2.8
			c0.8-0.8,0.8-2,0-2.8c-0.8-0.8-2-0.8-2.8,0c-0.8,0.8-2,0.8-2.8,0c-0.8-0.8-0.8-2,0-2.8c0.8-0.8,0.8-2,0-2.8c-0.8-0.8-2-0.8-2.8,0
			L48.9,9l-2.2,11.1"/>
		<path fill="none" stroke="#1D1D1B" stroke-width="2" stroke-linecap="round" stroke-linejoin="round" stroke-miterlimit="10" d="
			M20.1,46.6L9,48.9l-1.4,1.4c-0.8,0.8-0.8,2,0,2.8c0.8,0.8,2,0.8,2.8,0c0.8-0.8,2-0.8,2.8,0c0.8,0.8,0.8,2,0,2.8
			c-0.8,0.8-0.8,2,0,2.8c0.8,0.8,2,0.8,2.8,0c0.8-0.8,2-0.8,2.8,0c0.8,0.8,0.8,2,0,2.8c-0.8,0.8-0.8,2,0,2.8c0.8,0.8,2,0.8,2.8,0
			l1.4-1.4l2.2-11.1"/>
	</g>
	<circle fill="#B1CB34" cx="36" cy="36" r="15"/>
	<path fill="#5B9D32" d="M51,36c0-5.5-3-10.3-7.4-12.9c1.3,2.2,2.1,4.8,2.1,7.6c0,8.3-6.7,15-15,15c-2.8,0-5.4-0.8-7.6-2.1
		C25.7,48,30.5,51,36,51C44.3,51,51,44.3,51,36z"/>
	
		<ellipse transform="matrix(0.7071 -0.7071 0.7071 0.7071 -14.8817 35.9886)" fill="none" stroke="#1D1D1B" stroke-width="2" stroke-linecap="round" stroke-linejoin="round" stroke-miterlimit="10" cx="36" cy="36" rx="15" ry="15"/>
</g>
</svg>
