<?xml version="1.0" encoding="utf-8"?>
<!-- Generator: Adobe Illustrator 21.1.0, SVG Export Plug-In . SVG Version: 6.00 Build 0)  -->
<svg version="1.1" id="Ebene_3" xmlns="http://www.w3.org/2000/svg" xmlns:xlink="http://www.w3.org/1999/xlink" x="0px" y="0px"
	 viewBox="0 0 72 72" enable-background="new 0 0 72 72" xml:space="preserve">
<g>
	<path fill="#F4A941" d="M32.7,22.1C29.2,23.5,21,29,17,38c-2.3,5.2-5,22-5,22s6.4-3.1,13-4.3c4.4-0.8,7.4-1.7,9.4-2.5
		c7-2.8,16.2-10.7,18.8-16.3C56.1,30.7,60,12,60,12s-3.5,2.2-11.8,5.2C43,19.1,36.2,20.6,32.7,22.1z"/>
	<path fill="#E16F20" d="M59.2,12.5c-0.6,0.9-1.4,1.6-2.4,2c-2.6,1-3.9,3.8-2.9,6.4c1,2.6-0.4,5.5-2.9,6.4c-2.6,1-3.9,3.8-2.9,6.4
		c1,2.6-0.4,5.5-2.9,6.4c-2.6,1-3.9,3.8-2.9,6.4c0.2,0.7,0.3,1.4,0.3,2c4.8-3.5,9.2-8.1,10.9-11.8C56.1,30.7,60,12,60,12
		S59.7,12.2,59.2,12.5z"/>
	<path fill="none" stroke="#1D1D1B" stroke-width="2" stroke-linecap="round" stroke-linejoin="round" stroke-miterlimit="10" d="
		M32.7,22.1C29.2,23.5,21,29,17,38c-2.3,5.2-5,22-5,22s6.4-3.1,13-4.3c4.4-0.8,7.4-1.7,9.4-2.5c7-2.8,16.2-10.7,18.8-16.3
		C56.1,30.7,60,12,60,12s-3.5,2.2-11.8,5.2C43,19.1,36.2,20.6,32.7,22.1z"/>
	<path fill="none" stroke="#1D1D1B" stroke-width="2" stroke-linecap="round" stroke-linejoin="round" stroke-miterlimit="10" d="
		M50,22c1.1,0,2,0.9,2,2"/>
	<path fill="none" stroke="#1D1D1B" stroke-width="2" stroke-linecap="round" stroke-linejoin="round" stroke-miterlimit="10" d="
		M41,24c1.1,0,2,0.9,2,2"/>
	<path fill="none" stroke="#1D1D1B" stroke-width="2" stroke-linecap="round" stroke-linejoin="round" stroke-miterlimit="10" d="
		M43,33c1.1,0,2,0.9,2,2"/>
	<path fill="none" stroke="#1D1D1B" stroke-width="2" stroke-linecap="round" stroke-linejoin="round" stroke-miterlimit="10" d="
		M32,29c1.1,0,2,0.9,2,2"/>
	<path fill="none" stroke="#1D1D1B" stroke-width="2" stroke-linecap="round" stroke-linejoin="round" stroke-miterlimit="10" d="
		M35,41c1.1,0,2,0.9,2,2"/>
	<path fill="none" stroke="#1D1D1B" stroke-width="2" stroke-linecap="round" stroke-linejoin="round" stroke-miterlimit="10" d="
		M25,37c1.1,0,2,0.9,2,2"/>
</g>
</svg>
