<?xml version="1.0" encoding="utf-8"?>
<!-- Generator: Adobe Illustrator 21.1.0, SVG Export Plug-In . SVG Version: 6.00 Build 0)  -->
<svg version="1.1" id="emoji" xmlns="http://www.w3.org/2000/svg" xmlns:xlink="http://www.w3.org/1999/xlink" x="0px" y="0px"
	 viewBox="0 0 72 72" enable-background="new 0 0 72 72" xml:space="preserve">
<g id="_xD83C__xDF6D_">
	<ellipse transform="matrix(0.7071 -0.7071 0.7071 0.7071 -14.9122 35.9995)" fill="#E95947" cx="36" cy="36" rx="15" ry="15"/>
	
		<ellipse transform="matrix(0.7071 -0.7071 0.7071 0.7071 -14.9124 36.0002)" fill="none" stroke="#1D1D1B" stroke-width="2.0397" stroke-linecap="round" stroke-linejoin="round" stroke-miterlimit="10" cx="36" cy="36" rx="15" ry="15"/>
	
		<line fill="none" stroke="#1D1D1B" stroke-width="2" stroke-linecap="round" stroke-linejoin="round" stroke-miterlimit="10" x1="12" y1="60" x2="23" y2="49"/>
	<path fill="none" stroke="#1D1D1B" stroke-width="2" stroke-linecap="round" stroke-linejoin="round" stroke-miterlimit="10" d="
		M29.6,31c3.1-3.1,8.2-3.1,11.3,0"/>
	<path fill="none" stroke="#1D1D1B" stroke-width="2" stroke-linecap="round" stroke-linejoin="round" stroke-miterlimit="10" d="
		M43.8,28.2c-2.2-2.2-4.9-3.3-7.7-3.5"/>
	<path fill="none" stroke="#1D1D1B" stroke-width="2" stroke-linecap="round" stroke-linejoin="round" stroke-miterlimit="10" d="
		M32.5,33.9c1.6-1.6,4.1-1.6,5.7,0"/>
	<path fill="none" stroke="#1D1D1B" stroke-width="2" stroke-linecap="round" stroke-linejoin="round" stroke-miterlimit="10" d="
		M40.9,40.9c2.7-2.7,2.7-7.2,0-9.9"/>
	<path fill="none" stroke="#1D1D1B" stroke-width="2" stroke-linecap="round" stroke-linejoin="round" stroke-miterlimit="10" d="
		M43.8,43.8c4.3-4.3,4.3-11.3,0-15.6"/>
	<path fill="none" stroke="#1D1D1B" stroke-width="2" stroke-linecap="round" stroke-linejoin="round" stroke-miterlimit="10" d="
		M38.1,38.1c1.2-1.2,1.2-3.1,0-4.2"/>
	<path fill="none" stroke="#1D1D1B" stroke-width="2" stroke-linecap="round" stroke-linejoin="round" stroke-miterlimit="10" d="
		M40.9,40.9c-2.3,2.3-6.1,2.3-8.5,0"/>
	<path fill="none" stroke="#1D1D1B" stroke-width="2" stroke-linecap="round" stroke-linejoin="round" stroke-miterlimit="10" d="
		M43.8,43.8c-3.9,3.9-10.2,3.9-14.1,0"/>
	<path fill="none" stroke="#1D1D1B" stroke-width="2" stroke-linecap="round" stroke-linejoin="round" stroke-miterlimit="10" d="
		M38.1,38.1c-0.8,0.8-2,0.8-2.8,0"/>
	<path fill="none" stroke="#1D1D1B" stroke-width="2" stroke-linecap="round" stroke-linejoin="round" stroke-miterlimit="10" d="
		M32.5,40.9c-2-2-2-5.1,0-7.1"/>
	<path fill="none" stroke="#1D1D1B" stroke-width="2" stroke-linecap="round" stroke-linejoin="round" stroke-miterlimit="10" d="
		M29.6,43.8c-3.5-3.5-3.5-9.2,0-12.7"/>
</g>
</svg>
