<svg id="emoji" xmlns="http://www.w3.org/2000/svg" viewBox="0 0 72 72">
  <g id="color">
    <path fill="#fcea2b" d="M52.0703,24.8882c3.9063,3.9043,3.9063,10.2358,0.001,14.1421C48.166,42.9346,39.9053,45.0713,36,41.167
		c-3.9053-3.9063-1.9766-12.3745,1.9287-16.2798S48.166,20.9819,52.0703,24.8882z" stroke="none"></path>
    <path fill="#f1b31c" d="M52.0703,24.896c-2.5937-2.5938-6.2578-3.4551-9.5713-2.6016c1.6748,0.4317,3.2608,1.291,4.5713,2.6016
		c3.9063,3.9062,3.9063,10.2378,0.001,14.1421c-1.3106,1.3105-2.8975,2.1719-4.5713,2.6015
		c3.3135,0.8536,6.9766-0.0078,9.5713-2.6015C55.9766,35.1338,55.9766,28.8022,52.0703,24.896z" stroke="none"></path>
    <ellipse transform="matrix(0.7071 -0.7071 0.7071 0.7071 -14.7491 28.4773)" fill="#fcea2b" cx="26.9997" cy="32.042" rx="9.9998" ry="10.0005" stroke="none"></ellipse>
    <path fill="#f1b31c" d="M34.0703,24.979c-2.5937-2.5937-6.2578-3.4551-9.5713-2.6016c1.6748,0.4317,3.2608,1.2911,4.5713,2.6016
				c3.9063,3.9063,3.9063,10.2378,0.001,14.1421c-1.3106,1.3105-2.8975,2.1719-4.5713,2.6016
				c3.3135,0.8535,6.9766-0.0079,9.5713-2.6016C37.9766,35.2168,37.9766,28.8853,34.0703,24.979z" stroke="none"></path>
    <path fill="#ea5a47" stroke="none" stroke-width="2" stroke-linecap="round" stroke-linejoin="round" stroke-miterlimit="10" d="
		M31,27c1.6436,0,3.0889-0.8037,4-2.0273V30c0,1.6563,1.3428,3,3,3c1.6572,0,3-1.3437,3-3v2c0,1.6563,1.3428,3,3,3
		c1.6572,0,3-1.3437,3-3v-2.1836C47.3145,29.9277,47.6475,30,48,30c1.6572,0,3-1.3437,3-3v-2.9956
		c-1.4219-1.0684-3.1357-1.769-5.0029-1.9541C45.9971,22.0332,46,22.0171,46,22c0-5.5229-4.4775-10-10-10c-5.5225,0-10,4.4771-10,10
		C26,24.7612,28.2393,27,31,27z"></path>
    <path fill="#FFFFFF" stroke="none" stroke-width="1.9467" stroke-linecap="round" stroke-linejoin="round" stroke-miterlimit="10" d="
		M33,60v-6c0-2.7617-2.2393-5-5-5h-4h-3c-2.7607,0-5-2.2383-5-5v-3c0-1.1045,0.8955-2,2-2h36c1.1045,0,2,0.8955,2,2v3
		c0,2.7617-2.2393,5-5,5h-3h-4c-2.7607,0-5,2.2383-5,5v6"></path>
  </g>
  <g id="hair"> </g>
  <g id="skin"> </g>
  <g id="skin-shadow"> </g>
  <g id="line">
    <path fill="none" stroke="#000000" stroke-width="2" stroke-linecap="round" stroke-linejoin="round" stroke-miterlimit="10" d="
		M35,32c0-5.5229,4.4775-10,10-10c5.5225,0,10,4.4771,10,10c0,5.5234-4.4775,10-10,10"></path>
    <circle fill="none" stroke="#000000" stroke-width="2" stroke-linecap="round" stroke-linejoin="round" stroke-miterlimit="10" cx="27" cy="32" r="10"></circle>
    <path fill="none" stroke="#000000" stroke-width="2" stroke-linecap="round" stroke-linejoin="round" stroke-miterlimit="10" d="
		M31,27c1.6436,0,3.0889-0.8037,4-2.0273V30c0,1.6563,1.3428,3,3,3c1.6572,0,3-1.3437,3-3v2c0,1.6563,1.3428,3,3,3
		c1.6572,0,3-1.3437,3-3v-2.1836C47.3145,29.9277,47.6475,30,48,30c1.6572,0,3-1.3437,3-3v-2.9956
		c-1.4219-1.0684-3.1357-1.769-5.0029-1.9541C45.9971,22.0332,46,22.0171,46,22c0-5.5229-4.4775-10-10-10c-5.5225,0-10,4.4771-10,10
		C26,24.7612,28.2393,27,31,27z"></path>
    <path fill="none" stroke="#000000" stroke-width="1.9467" stroke-linecap="round" stroke-linejoin="round" stroke-miterlimit="10" d="
		M33,60v-6c0-2.7617-2.2393-5-5-5h-4h-3c-2.7607,0-5-2.2383-5-5v-3c0-1.1045,0.8955-2,2-2h36c1.1045,0,2,0.8955,2,2v3
		c0,2.7617-2.2393,5-5,5h-3h-4c-2.7607,0-5,2.2383-5,5v6"></path>
    <line fill="none" stroke="#000000" stroke-width="1.9467" stroke-linecap="round" stroke-linejoin="round" stroke-miterlimit="10" x1="29" y1="60" x2="43" y2="60"></line>
  </g>
</svg>