<svg id="emoji" viewBox="0 0 72 72" xmlns="http://www.w3.org/2000/svg">
  <g id="color">
    <polygon fill="#ea5a47" points="55 26 17 26 17 14 43.0198 14 55 14 55 26"/>
    <path fill="#ea5a47" d="m56,24c0,11.0457-8.9543,20-20,20s-20-8.9543-20-20"/>
    <path fill="#d22f27" d="m55,24v-10h-7.5698c.5966,6.3347.293,21.2038-13.788,29.849.7747.0911,1.5587.151,2.3578.151,11.0457,0,20-8.9543,20-20h-1Z"/>
  </g>
  <g id="line">
    <line x1="20" x2="52" y1="67" y2="67" fill="none" stroke="#000" stroke-linecap="round" stroke-linejoin="round" stroke-width="2"/>
    <line x1="36" x2="36" y1="44" y2="67" fill="none" stroke="#000" stroke-linecap="round" stroke-linejoin="round" stroke-width="2"/>
    <path fill="none" stroke="#000" stroke-linecap="round" stroke-linejoin="round" stroke-width="2" d="m56,24c0,3.265-.7824,6.3473-2.1699,9.0696-3.3065,6.4874-10.0494,10.9304-17.8301,10.9304-11.0457,0-20-8.9543-20-20"/>
    <line x1="16" x2="16" y1="5" y2="24" fill="none" stroke="#000" stroke-linecap="round" stroke-linejoin="round" stroke-width="2"/>
    <line x1="56" x2="56" y1="5" y2="24" fill="none" stroke="#000" stroke-linecap="round" stroke-linejoin="round" stroke-width="2"/>
  </g>
</svg>
