<?xml version="1.0" encoding="utf-8"?>
<!-- Generator: Adobe Illustrator 19.1.0, SVG Export Plug-In . SVG Version: 6.00 Build 0)  -->
<svg version="1.1" id="emoji" xmlns="http://www.w3.org/2000/svg" xmlns:xlink="http://www.w3.org/1999/xlink" x="0px" y="0px"
	 viewBox="0 0 72 72" enable-background="new 0 0 72 72" xml:space="preserve">
<g id="_xD83C__xDF7E__1_">
	<path fill="#B1CC33" d="M37.7,28.9l10.2-10.2l5.2,5.2L43,34.1c-1.2,1.2-1.9,2.7-1.9,4.2l-0.1,2.9c-0.1,2.4-1.2,4.8-3.1,6.6
		L20.7,65.1c-1.5,1.5-3.8,1.7-5.1,0.5l-9.2-9.2c-1.3-1.3-1.1-3.6,0.5-5.1L24,34c1.8-1.8,4.3-3,6.6-3.1l2.9-0.1
		C35.1,30.8,36.6,30.1,37.7,28.9z"/>
	<path fill="#5B9E30" d="M16.4,60.8l6.2-6.2c6.8-6.8,9.1-10.9,9.9-13.1c0.7-2,1.9-3.9,3.4-5.4l14.7-14.7l2.6,2.6L43,34.1
		c-1.2,1.2-1.9,2.7-1.9,4.2l-0.1,2.9c-0.1,2.4-1.2,4.8-3.1,6.6L20.7,65.1c-1.5,1.5-3.8,1.7-5.1,0.5l-4.6-4.6
		C13.5,63.5,16.4,60.8,16.4,60.8z"/>
	<path fill="#B1CC33" d="M37.7,48.1l-17,17c-1.5,1.5-3.8,1.7-5.1,0.5l-9.2-9.2c-1.3-1.3-1.1-3.6,0.5-5.1l17-17L37.7,48.1z"/>
	<path fill="#5B9E30" d="M32.3,41.9l5.8,5.8L20.7,65c-1.6,1.6-3.9,1.8-5.2,0.5l-4.7-4.7c2.6,2.6,5.5-0.2,5.5-0.2l6.3-6.3
		C28.7,48.3,31.3,44.3,32.3,41.9z"/>
	
		<rect x="12" y="40.7" transform="matrix(0.7071 0.7071 -0.7071 0.7071 41.7995 -0.753)" fill="#D0CFCE" width="19.6" height="18.8"/>
	<path fill="#9B9B9A" d="M35.4,50.4L22.1,63.6l-4.8-4.8l6.6-6.6c2.6-2.6,4.7-4.8,6.4-6.8L35.4,50.4L35.4,50.4z"/>
	<path fill="#F7EA29" d="M37.7,28.9l10.2-10.2l5.2,5.2L43,34.1c-1.2,1.2-1.9,2.7-1.9,4.2l-3.6,0c-2.3,0-3.9-1.7-3.9-3.9l0-3.6
		C35.1,30.8,36.6,30.1,37.7,28.9z"/>
	<path fill="#EFB31A" d="M43,34.1c-1.2,1.2-1.9,2.7-1.9,4.2l-3.6,0c-1.1,0-2.1-0.4-2.8-1.1c0.3-0.4,0.7-0.8,1.1-1.2l14.7-14.7
		l2.6,2.6L43,34.1L43,34.1z"/>
	<path fill="#F7EA29" d="M46.7,21l4,4c0.8,0.8,2.8,0.2,4.3-1.3l0,0c1.6-1.6,2.2-3.5,1.3-4.3l-4-4c-0.8-0.8-2.8-0.2-4.3,1.3l0,0
		C46.4,18.2,45.8,20.2,46.7,21z"/>
	<path fill="#EFB31A" d="M52.9,21.5L52.9,21.5c1.6-1.6,2.1-3.5,1.3-4.4l2.3,2.3c0.8,0.8,0.3,2.8-1.3,4.4l0,0
		c-1.6,1.6-3.5,2.1-4.4,1.3l-2.3-2.3C49.3,23.7,51.3,23.1,52.9,21.5z"/>
	<path fill="#F2AA40" d="M55.7,12l4,4c0.8,0.8,3,0,4.8-1.8l0,0c1.8-1.8,2.7-4,1.8-4.8l-4-4c-0.8-0.8-3,0-4.8,1.8l0,0
		C55.7,9,54.8,11.2,55.7,12z"/>
	<path fill="#E27020" d="M62.4,12L62.4,12c1.8-1.8,2.6-4,1.8-4.9l2.3,2.3c0.8,0.8,0,3-1.8,4.9l0,0c-1.8,1.8-4,2.6-4.9,1.8l-2.3-2.3
		C58.3,14.7,60.5,13.9,62.4,12z"/>
	<path fill="none" stroke="#000000" stroke-width="2" stroke-miterlimit="10" d="M62.3,5.3l1.8,1.8l0,0l2.3,2.3c0.8,0.8,0,3-1.8,4.9
		c-1.8,1.8-4,2.6-4.9,1.8l-0.1-0.1l0,0l-4-4c-0.8-0.8,0-3,1.8-4.8C59.3,5.3,61.5,4.5,62.3,5.3z"/>
	<path fill="none" stroke="#000000" stroke-width="2" stroke-linecap="round" stroke-miterlimit="10" d="M56,20.5
		c0.3,0.9-0.1,2.2-1.2,3.3c-0.9,0.9-2,1.3-2.9,1.3l-8.7,8.7c-0.1,0.1-0.3,0.3-0.4,0.5c-0.3,0.3-0.5,0.6-0.7,1
		c-0.3,0.5-0.5,1.1-0.7,1.6c-0.1,0.4-0.1,0.7-0.2,1.1l-0.1,2.9c-0.1,2.4-1.2,4.8-3.1,6.6L38,47.6l-17,17l0,0
		c-1.5,1.5-3.8,1.7-5.1,0.5l-9.2-9.2c-0.8-0.8-1-2-0.7-3.2c0.2-0.7,0.6-1.4,1.2-2l17.2-17.2c1.8-1.8,4.3-3,6.6-3.1l2.9-0.1v0
		c0.6,0,1.1-0.1,1.7-0.3c0.9-0.3,1.8-0.9,2.5-1.6l8.6-8.6c-0.2-0.9,0.2-2.2,1.2-3.2c1.2-1.2,2.7-1.6,3.6-1"/>
	
		<line fill="none" stroke="#000000" stroke-width="2" stroke-linecap="round" stroke-linejoin="round" stroke-miterlimit="10" x1="22" y1="37" x2="35" y2="50"/>
	
		<line fill="none" stroke="#000000" stroke-width="2" stroke-linecap="round" stroke-linejoin="round" stroke-miterlimit="10" x1="8.5" y1="50.5" x2="21.5" y2="63.5"/>
</g>
</svg>
