<?xml version="1.0" encoding="utf-8"?>
<!-- Generator: Adobe Illustrator 19.1.0, SVG Export Plug-In . SVG Version: 6.00 Build 0)  -->
<svg version="1.1" id="emoji" xmlns="http://www.w3.org/2000/svg" xmlns:xlink="http://www.w3.org/1999/xlink" x="0px" y="0px"
	 viewBox="0 0 72 72" enable-background="new 0 0 72 72" xml:space="preserve">
<g id="_xD83C__xDF7C_">
	<path fill="#FCEA2B" d="M51.5,37.4L35.2,21.1c6.3-6.3,8.6,1.4,15.9-5.9l1.6-1.6c1.7-1.7,4.6-1.7,6.3,0c1.7,1.7,1.7,4.6,0,6.3
		l-1.6,1.6C50.1,28.8,57.8,31.1,51.5,37.4z"/>
	<path fill="#F1B31C" d="M53.2,17l1.6-1.5c0.9-0.8,1.4-1.9,1.4-3c1.2,0,2.3,0.5,3.2,1.4c1.7,1.8,1.6,4.6-0.2,6.3l-1.6,1.5
		c-7.6,7.1,0,9.7-6.5,15.7l-6.8-7.1C50.8,24.2,45.6,24.1,53.2,17z"/>
	<path fill="#92D3F5" d="M48.8,41.3L30.7,58.9c-2.1,2-5.5,2-7.6,0l-10-9.8c-2.1-2-2.1-5.4,0-7.4l4.5-4.4l4.5-4.4l4.5-4.4l4.5-4.4
		c2.1-2,3.6-3.6,5.7-1.5l13.7,14C52.6,38.6,50.9,39.2,48.8,41.3z"/>
	<path fill="#61B2E4" d="M16.2,51.9c2.1,2,5.5,2,7.6,0l17.9-17.6c2.1-2,2.1-5.4,0-7.4L39,24.2l0,0l10.6,11.3c2.1,2,1.5,3.9-0.6,5.9
		L31,59.1c-2.1,2-5.5,2-7.6,0l-10-9.8c0,0,0,0,0,0L16.2,51.9z"/>
	<path fill="none" stroke="#000000" stroke-width="2" stroke-linejoin="round" stroke-miterlimit="10" d="M51.5,37.4L35.2,21.1
		c6.3-6.3,8.6,1.4,15.9-5.9l1.6-1.6c1.7-1.7,4.6-1.7,6.3,0c1.7,1.7,1.7,4.6,0,6.3l-1.6,1.6C50.1,28.8,57.8,31.1,51.5,37.4z"/>
	<path fill="none" stroke="#000000" stroke-width="2" stroke-miterlimit="10" d="M57.5,12.6C57.5,12.6,57.5,12.6,57.5,12.6
		c0.3,0.1,0.5,0.2,0.7,0.4c0,0,0.1,0,0.1,0.1c0.2,0.2,0.5,0.4,0.7,0.6c0.4,0.4,0.8,0.9,1,1.5c0.3,0.8,0.4,1.7,0.2,2.5
		c-0.2,0.8-0.6,1.6-1.2,2.3l-1.6,1.6c-2.3,2.3-3.1,4.1-3.4,5.7c0,0.3-0.1,0.6-0.1,0.9c0,0.6,0,1.2,0.1,1.8c0.1,0.7,0.2,1.4,0.1,2.1
		c0,0.3,0,0.6-0.1,0.9c-0.1,0.9-0.5,1.8-1.2,2.9c-0.2,0.3-0.5,0.7-0.9,1.1c0,1.4-0.6,2.7-1.6,3.7L32,59c-2.1,2.1-5.6,2.1-7.8,0
		L14,48.7l0,0l-0.2-0.2c-2.1-2.1-2.1-5.6,0-7.8l4.6-4.6l4.6-4.6l4.6-4.6l4.6-4.6c0.9-0.9,2.1-1.4,3.3-1.6c6-5.6,8.4,1.6,15.6-5.6
		l1.6-1.6C54,12.3,55.9,12,57.5,12.6z"/>
	
		<line fill="none" stroke="#000000" stroke-width="2" stroke-linecap="round" stroke-linejoin="round" stroke-miterlimit="10" x1="34" y1="35" x2="27" y2="28"/>
	
		<line fill="none" stroke="#000000" stroke-width="2" stroke-linecap="round" stroke-linejoin="round" stroke-miterlimit="10" x1="29.5" y1="39.5" x2="22.5" y2="32.5"/>
	
		<line fill="none" stroke="#000000" stroke-width="2" stroke-linecap="round" stroke-linejoin="round" stroke-miterlimit="10" x1="24.5" y1="44.5" x2="17.5" y2="37.5"/>
</g>
</svg>
