<?xml version="1.0" encoding="utf-8"?>
<!-- Generator: Adobe Illustrator 21.1.0, SVG Export Plug-In . SVG Version: 6.00 Build 0)  -->
<svg version="1.1" id="Ebene_3" xmlns="http://www.w3.org/2000/svg" xmlns:xlink="http://www.w3.org/1999/xlink" x="0px" y="0px"
	 viewBox="0 0 72 72" enable-background="new 0 0 72 72" xml:space="preserve">
<g>
	<path fill="#9A9B99" d="M61.9,5.9l-11.7,12c1.5,1.2,2.8,2.5,4,4l12-11.7c1.2-1.2,1.2-3.1,0-4.2C64.9,4.7,63.1,4.7,61.9,5.9z"/>
	<path fill="#D0CECD" d="M54.1,21.9c-1.2-1.5-2.5-2.8-4-4c-3.9-3-8.8-4.9-14.1-4.9c-12.7,0-23,10.3-23,23s10.3,23,23,23
		s23-10.3,23-23C59,30.7,57.2,25.8,54.1,21.9z"/>
	<path fill="#FFFFFF" d="M47.2,37.5c-0.1,0-0.1-0.1-0.2-0.1c-0.6-0.3-1.1-1.1-1.1-1.9c0-0.1,0-0.2,0-0.3c0-0.2,0-0.4-0.1-0.7
		c0-0.1,0-0.3-0.1-0.4c0-0.2-0.1-0.5-0.2-0.7c0-0.1-0.1-0.2-0.1-0.3c-0.1-0.3-0.2-0.6-0.3-0.9c0,0,0-0.1,0-0.1
		c-0.7-1.8-2-3.3-3.5-4.4c-0.5-0.4-0.8-1-0.8-1.6C40.6,23.8,38.5,22,36,22c-2.3,0-4.2,1.5-4.8,3.6c-0.1,0.2-0.1,0.4-0.1,0.6
		c0,0.6-0.3,1.1-0.7,1.5c-0.1,0.1-0.2,0.2-0.3,0.2c0,0,0,0,0,0c0,0,0,0,0,0c-0.2,0.2-0.4,0.3-0.6,0.5c0,0,0,0-0.1,0.1
		c-0.2,0.2-0.4,0.4-0.6,0.6c0,0,0,0,0,0C27,31,26,33.4,26,36c0,5.5,4.5,10,10,10c0.3,0,0.6,0,0.9,0c0.3,0,0.5-0.1,0.8-0.1
		c0,0,0.1,0,0.1,0c0.7-0.1,1.4-0.3,2-0.6c0.6-0.2,1.3,0,1.8,0.4c0.1,0,0.1,0.1,0.2,0.1l0,0c0.9,0.8,2,1.2,3.3,1.2c2.8,0,5-2.2,5-5
		C50,40,48.9,38.4,47.2,37.5z"/>
	<circle fill="#FBEA2E" cx="36" cy="35.9" r="5"/>
</g>
<path fill="none" stroke="#000000" stroke-width="2" stroke-linecap="round" stroke-linejoin="round" stroke-miterlimit="10" d="
	M61.9,5.9l-11.7,12c1.5,1.2,2.8,2.5,4,4l12-11.7c1.2-1.2,1.2-3.1,0-4.2C64.9,4.7,63.1,4.7,61.9,5.9z"/>
<path fill="none" stroke="#000000" stroke-width="2" stroke-linecap="round" stroke-linejoin="round" stroke-miterlimit="10" d="
	M54.1,21.9c-1.2-1.5-2.5-2.8-4-4c-3.9-3-8.8-4.9-14.1-4.9c-12.7,0-23,10.3-23,23s10.3,23,23,23s23-10.3,23-23
	C59,30.7,57.2,25.8,54.1,21.9z"/>
<circle fill="none" stroke="#000000" stroke-width="2" stroke-linecap="round" stroke-linejoin="round" stroke-miterlimit="10" cx="36" cy="35.9" r="5"/>
<path fill="none" stroke="#000000" stroke-width="2" stroke-linecap="round" stroke-linejoin="round" stroke-miterlimit="10" d="
	M47.2,37.5c-0.1,0-0.1-0.1-0.2-0.1c-0.6-0.3-1.1-1.1-1.1-1.9c0,0,0,0,0,0c-0.1-3.2-1.8-6-4.2-7.7c-0.5-0.4-0.8-1-0.8-1.6
	C40.6,23.8,38.5,22,36,22c-2.3,0-4.2,1.5-4.8,3.6c-0.1,0.2-0.1,0.4-0.1,0.6c0,0.6-0.3,1.1-0.7,1.5C27.7,29.5,26,32.5,26,36
	c0,5.5,4.5,10,10,10c1.4,0,2.6-0.3,3.8-0.8c0.6-0.2,1.3,0,1.8,0.4c0.1,0,0.1,0.1,0.2,0.1l0,0c0.9,0.8,2,1.2,3.3,1.2c2.8,0,5-2.2,5-5
	C50,40,48.9,38.4,47.2,37.5z"/>
</svg>
