<?xml version="1.0" encoding="utf-8"?>
<!-- Generator: Adobe Illustrator 21.1.0, SVG Export Plug-In . SVG Version: 6.00 Build 0)  -->
<svg version="1.1" id="Ebene_3" xmlns="http://www.w3.org/2000/svg" xmlns:xlink="http://www.w3.org/1999/xlink" x="0px" y="0px"
	 viewBox="0 0 72 72" enable-background="new 0 0 72 72" xml:space="preserve">
<g>
	<polygon fill="#E95947" points="22,27 50,27 47,60 25,60 	"/>
	<path fill="#FBEA2E" d="M50.7,27.2l2.9-1.5L53,24.8c1.2-0.4,2-1.5,2-2.8c0-1.4-1-2.6-2.4-2.9c0.6-1.1,0.4-2.6-0.5-3.5
		c-0.8-0.8-2.1-1.1-3.1-0.7c-0.1-0.9-0.6-1.8-1.5-2.3c-0.8-0.5-1.7-0.5-2.5-0.2c-0.1-1.2-0.9-2.4-2.2-2.7c-1-0.3-1.9,0-2.7,0.6
		C39.8,10.1,39.4,10,39,10c-0.2,0-0.5,0-0.7,0.1C37.7,9.4,36.9,9,36,9c-0.9,0-1.7,0.4-2.3,1.1C33.5,10,33.2,10,33,10
		c-0.4,0-0.8,0.1-1.1,0.2c-0.7-0.6-1.7-0.8-2.7-0.6C27.7,10,26.8,11.5,27,13c-0.9-0.9-2.4-1.1-3.5-0.4c-0.8,0.5-1.3,1.3-1.5,2.1
		c-0.8,0-1.6,0.3-2.2,0.9c-1,1-1.1,2.4-0.5,3.5C18,19.4,17,20.6,17,22c0,1.3,0.8,2.4,2,2.8l-0.3,0.9l3.1,1.9"/>
	<path fill="none" stroke="#000000" stroke-width="2" stroke-linecap="round" stroke-linejoin="round" stroke-miterlimit="10" d="
		M53,24.8c1.2-0.4,2-1.5,2-2.8c0-1.4-1-2.6-2.4-2.9c0.6-1.1,0.4-2.6-0.5-3.5c-0.8-0.8-2.1-1.1-3.1-0.7c-0.1-0.9-0.6-1.8-1.5-2.3
		c-0.8-0.5-1.7-0.5-2.5-0.2c-0.1-1.2-0.9-2.4-2.2-2.7c-1-0.3-1.9,0-2.7,0.6C39.8,10.1,39.4,10,39,10c-0.2,0-0.5,0-0.7,0.1
		C37.7,9.4,36.9,9,36,9c-0.9,0-1.7,0.4-2.3,1.1C33.5,10,33.2,10,33,10c-0.4,0-0.8,0.1-1.1,0.2c-0.7-0.6-1.7-0.8-2.7-0.6
		C27.7,10,26.8,11.5,27,13c-0.9-0.9-2.4-1.1-3.5-0.4c-0.8,0.5-1.3,1.3-1.5,2.1c-0.8,0-1.6,0.3-2.2,0.9c-1,1-1.1,2.4-0.5,3.5
		C18,19.4,17,20.6,17,22c0,1.3,0.8,2.4,2,2.8"/>
	
		<polygon fill="none" stroke="#000000" stroke-width="2" stroke-linecap="round" stroke-linejoin="round" stroke-miterlimit="10" points="
		22,27 50,27 47,60 25,60 	"/>
	<path fill="none" stroke="#000000" stroke-width="2" stroke-linecap="round" stroke-linejoin="round" stroke-miterlimit="10" d="
		M26,21c0-1.7,1.3-3,3-3"/>
	<path fill="none" stroke="#000000" stroke-width="2" stroke-linecap="round" stroke-linejoin="round" stroke-miterlimit="10" d="
		M34,18c0-1.7,1.3-3,3-3"/>
</g>
</svg>
