<svg id="emoji" viewBox="0 0 72 72" xmlns="http://www.w3.org/2000/svg">
  <g id="color">
    <path fill="#b1cc33" d="m37.7394,28.9024l10.1983-10.1983,5.2468,5.2468-10.1982,10.1983c-1.1588,1.1588-1.8563,2.6718-1.9213,4.1683l-.1273,2.9232c-.1036,2.382-1.2137,4.7905-3.0584,6.6352l-17.2079,17.2079c-1.5429,1.5429-3.839,1.7482-5.1284.4588l-9.1968-9.1968c-1.2895-1.2895-1.084-3.5856.4588-5.1284l17.2079-17.2079c1.8446-1.8446,4.2531-2.9548,6.6352-3.0584l2.9232-.1273c1.4963-.0651,3.0093-.7626,4.1681-1.9214Z"/>
    <path fill="#5c9e31" d="m16.351,60.7845l6.1656-6.1656c6.8117-6.8117,9.1408-10.8955,9.8941-13.1276.6734-1.9952,1.8553-3.8628,3.4063-5.4138l14.7471-14.7471,2.6205,2.6205-10.1983,10.1983c-1.1588,1.1588-1.8563,2.6718-1.9213,4.1683l-.1272,2.9233c-.1036,2.382-1.2137,4.7905-3.0584,6.6352l-17.208,17.2079c-1.5429,1.5429-3.839,1.7482-5.1284.4588l-4.5954-4.5954c2.5116,2.5119,5.4034-.1628,5.4034-.1628h0Z"/>
    <path fill="#b1cc33" d="m37.686,48.0693l-17.0147,17.0147c-1.5429,1.5429-3.839,1.7482-5.1284.4588l-9.1969-9.1968c-1.2895-1.2895-1.084-3.5856.4588-5.1284l17.0147-17.0147s13.8665,13.8664,13.8665,13.8664Z"/>
    <path fill="#5c9e31" d="m32.3157,41.8796l5.78,5.78-17.3667,17.3667c-1.5748,1.5748-3.9223,1.7804-5.2433.4595l-4.7077-4.7078c2.5733,2.5733,5.5253-.1563,5.5253-.1563l6.2931-6.2931c6.0747-6.0748,8.6538-10.0264,9.7193-12.449Z"/>
    <rect x="12.4237" y="40.2744" width="18.768" height="19.6101" transform="translate(-29.0242 30.0883) rotate(-45)" fill="#d0cfce"/>
    <path fill="#9b9b9a" d="m35.3776,50.3776l-13.2715,13.2716-4.8121-4.8121,6.6357-6.6357c2.5564-2.5564,4.6814-4.8211,6.448-6.8237l4.9999,4.9999h0Z"/>
    <path fill="#fcea2b" d="m37.7394,28.9024l10.1983-10.1983,5.2468,5.2468-10.1982,10.1983c-1.1588,1.1588-1.8563,2.6718-1.9213,4.1683l-3.5522-.0048c-2.2744-.0029-3.9293-1.6565-3.9341-3.9304l-.0074-3.5586c1.4963-.065,3.0093-.7625,4.1681-1.9213Z"/>
    <path fill="#f1b31c" d="m42.9862,34.1493c-1.1588,1.1588-1.8563,2.6718-1.9213,4.1683l-3.5522-.0048c-1.1042-.0014-2.0615-.3927-2.7558-1.0543.3306-.4103.6842-.8052,1.0601-1.1811l14.747-14.747,2.6205,2.6205-10.1983,10.1984h0Z"/>
    <path fill="#fcea2b" d="m46.6575,21.0114l4.0442,4.0442c.8245.8245,2.7765.2218,4.3376-1.3393h0c1.5611-1.5611,2.1638-3.5131,1.3393-4.3376l-4.0442-4.0442c-.8245-.8245-2.7765-.2218-4.3376,1.3393h0c-1.5612,1.561-2.1639,3.513-1.3393,4.3376Z"/>
    <path fill="#f1b31c" d="m52.8699,21.5468h0c1.5611-1.5611,2.147-3.5299,1.3019-4.375l2.3451,2.3451c.8451.8451.2592,2.8139-1.3019,4.375h0c-1.5611,1.5611-3.5299,2.147-4.375,1.3019l-2.3451-2.3451c.8451.8452,2.8138.2592,4.375-1.3019Z"/>
    <path fill="#f4aa41" d="m55.6575,12.0114c1.0111,1.011,4.0442,4.0442,4.0442,4.0442.8245.8245,3.0015-.0032,4.8376-1.8393h0c1.8361-1.8361,2.6638-4.0131,1.8393-4.8376,0,0-3.0332-3.0332-4.0442-4.0442-.8245-.8245-3.0015.0032-4.8376,1.8393h0c-1.8362,1.836-2.6639,4.013-1.8393,4.8376Z"/>
    <path fill="#e27022" d="m62.3699,12.0468h0c1.1349-1.1349,1.8782-2.4066,2.0807-3.4118.0855-.4241.6107-.5737.9166-.2678l1.1497,1.1497c.8451.8451.0342,3.0389-1.8019,4.875h0c-1.8361,1.8361-4.0299,2.647-4.875,1.8019l-1.1497-1.1497c-.3059-.3059-.1564-.8311.2678-.9166,1.0052-.2026,2.2768-.9458,3.4118-2.0808h0Z"/>
  </g>
  <g id="line">
    <path fill="none" stroke="#000" stroke-miterlimit="10" stroke-width="2" d="m62.3344,5.3344l1.8375,1.8375v-.0002l2.345,2.3452c.8451.8451.0342,3.0388-1.8019,4.875-1.8361,1.8362-4.0299,2.647-4.875,1.802l-.1383-.1384h0l-4.0442-4.0442c-.8245-.8245.0032-3.0015,1.8393-4.8376,1.8361-1.8361,4.0131-2.6639,4.8376-1.8393Z"/>
    <path fill="none" stroke="#000" stroke-linecap="round" stroke-miterlimit="10" stroke-width="2" d="m56.0211,20.5021c.3033.9062-.1427,2.2344-1.1827,3.2744-.897.8971-2.0029,1.3395-2.8731,1.2531l-8.6799,8.6799c-.1448.1448-.2825.2952-.4126.4504-.2602.3103-.4902.6399-.6874.983-.2957.5146-.5176,1.0596-.6566,1.6151-.0927.3704-.1484.7455-.1647,1.1196l-.1272,2.9233c-.1036,2.382-1.2137,4.7905-3.0583,6.6351l-.1934.1935-17.0146,17.0147-.0002.0002c-1.5429,1.5429-3.839,1.7482-5.1284.4587l-9.1968-9.1968c-.806-.806-1.0279-2.0051-.7043-3.1678.1941-.6976.5846-1.3822,1.1632-1.9608l17.2078-17.2079c1.8446-1.8446,4.2531-2.9548,6.6352-3.0583l2.9232-.1273v-.0002c.5612-.0243,1.1246-.1376,1.6709-.3309.9105-.322,1.7731-.866,2.4973-1.5903l8.5557-8.5557c-.2427-.9022.1978-2.1692,1.2017-3.1731,1.1668-1.1668,2.6965-1.5859,3.5859-1.0379"/>
    <line x1="22" x2="35" y1="37" y2="50" fill="none" stroke="#000" stroke-linecap="round" stroke-linejoin="round" stroke-width="2"/>
    <line x1="8.5" x2="21.5" y1="50.5" y2="63.5" fill="none" stroke="#000" stroke-linecap="round" stroke-linejoin="round" stroke-width="2"/>
  </g>
</svg>
