<?xml version="1.0" encoding="utf-8"?>
<!-- Generator: Adobe Illustrator 21.1.0, SVG Export Plug-In . SVG Version: 6.00 Build 0)  -->
<svg version="1.1" id="Ebene_3" xmlns="http://www.w3.org/2000/svg" xmlns:xlink="http://www.w3.org/1999/xlink" x="0px" y="0px"
	 viewBox="0 0 72 72" enable-background="new 0 0 72 72" xml:space="preserve">
<g id="_xD83C__xDF79__1_">
	<path fill="#FCEA2B" d="M56,33c-0.1-2.1-0.3-4.1-0.7-6H16.8c-0.4,1.9-0.7,3.9-0.7,6h0c0,0.2,0,0.4,0,0.6c0,0.1,0,0.2,0,0.4h0
		c0.5,12.2,9.2,22,20,22s19.5-9.8,20-22h0c0-0.1,0-0.2,0-0.4C56,33.4,56,33.2,56,33L56,33z"/>
	<path fill="#F1B31C" d="M56,33L56,33c-0.1-2.1-0.4-4.1-0.8-6h-13c0.4,1.9,0.7,3.9,0.7,6h0c0,0.2,0,0.4,0,0.6c0,0.1,0,0.2,0,0.4h0
		c-0.4,9.6-5.9,17.8-13.5,20.8c2,0.8,4.2,1.2,6.5,1.2c10.8,0,19.5-9.8,20-22h0c0-0.1,0-0.2,0-0.4C56,33.4,56,33.2,56,33z"/>
	
		<line fill="none" stroke="#070707" stroke-width="2" stroke-linecap="round" stroke-linejoin="round" stroke-miterlimit="10" x1="36" y1="56" x2="36" y2="67"/>
	
		<line fill="none" stroke="#070707" stroke-width="2" stroke-linecap="round" stroke-linejoin="round" stroke-miterlimit="10" x1="20" y1="67" x2="52" y2="67"/>
	<g>
		<path fill="none" stroke="#000000" stroke-width="2" stroke-miterlimit="10" d="M56,33c0,12.7-9,23-20,23S16,45.7,16,33"/>
		<path fill="none" stroke="#000000" stroke-width="2" stroke-linecap="round" stroke-linejoin="round" stroke-miterlimit="10" d="
			M50.1,15.6C53.8,20.3,56,26.8,56,34"/>
		<path fill="none" stroke="#000000" stroke-width="2" stroke-linecap="round" stroke-linejoin="round" stroke-miterlimit="10" d="
			M16,34c0-7,2.1-13.3,5.6-18"/>
	</g>
	
		<polyline fill="none" stroke="#000000" stroke-width="2" stroke-linecap="round" stroke-linejoin="round" stroke-miterlimit="10" points="
		43,24 43,11 50,4 	"/>
</g>
</svg>
