<svg id="emoji" xmlns="http://www.w3.org/2000/svg" viewBox="0 0 72 72">
  <g id="line-supplement">
    <rect x="35" y="38.915" width="2" height="25" stroke-width="2" stroke="#000" stroke-linecap="round" stroke-linejoin="round" fill="none"/>
    <g>
      <line x1="15.9954" y1="32.9114" x2="15.9954" y2="32.9114" fill="none" stroke="#000" stroke-linecap="round" stroke-miterlimit="10" stroke-width="2"/>
      <line x1="55.9886" y1="32.902" x2="55.9886" y2="32.902" fill="none" stroke="#000" stroke-linecap="round" stroke-miterlimit="10" stroke-width="2"/>
      <line x1="35.978" y1="12.9148" x2="35.978" y2="12.9148" fill="none" stroke="#000" stroke-linecap="round" stroke-miterlimit="10" stroke-width="2"/>
      <line x1="21.8491" y1="18.771" x2="31.7486" y2="28.6705" fill="none" stroke="#000" stroke-linecap="round" stroke-linejoin="round" stroke-width="2"/>
      <line x1="40.2339" y1="28.6704" x2="50.1334" y2="18.771" fill="none" stroke="#000" stroke-linecap="round" stroke-linejoin="round" stroke-width="2"/>
      <line x1="50.1334" y1="47.0552" x2="40.2339" y2="37.1557" fill="none" stroke="#000" stroke-linecap="round" stroke-linejoin="round" stroke-width="2"/>
      <line x1="31.7486" y1="37.1557" x2="21.8491" y2="47.0552" fill="none" stroke="#000" stroke-linecap="round" stroke-linejoin="round" stroke-width="2"/>
      <line x1="29.9913" y1="32.9131" x2="20.9913" y2="32.9131" fill="none" stroke="#000" stroke-linecap="round" stroke-miterlimit="10" stroke-width="2"/>
      <line x1="35.9913" y1="17.913" x2="35.9913" y2="26.913" fill="none" stroke="#000" stroke-linecap="round" stroke-miterlimit="10" stroke-width="2"/>
      <line x1="50.9912" y1="32.9131" x2="41.9912" y2="32.9131" fill="none" stroke="#000" stroke-linecap="round" stroke-miterlimit="10" stroke-width="2"/>
      <line x1="13.0873" y1="23.4273" x2="19.6434" y2="26.143" fill="none" stroke="#000" stroke-linecap="round" stroke-miterlimit="10" stroke-width="2"/>
      <line x1="13.0883" y1="42.4095" x2="19.6442" y2="39.6931" fill="none" stroke="#000" stroke-linecap="round" stroke-miterlimit="10" stroke-width="2"/>
      <line x1="26.5133" y1="55.8299" x2="29.2274" y2="49.2731" fill="none" stroke="#000" stroke-linecap="round" stroke-miterlimit="10" stroke-width="2"/>
      <line x1="45.4951" y1="55.8246" x2="42.7773" y2="49.2693" fill="none" stroke="#000" stroke-linecap="round" stroke-miterlimit="10" stroke-width="2"/>
      <line x1="58.9127" y1="42.3963" x2="52.3553" y2="39.6837" fill="none" stroke="#000" stroke-linecap="round" stroke-miterlimit="10" stroke-width="2"/>
      <line x1="58.9032" y1="23.4149" x2="52.3485" y2="26.1341" fill="none" stroke="#000" stroke-linecap="round" stroke-miterlimit="10" stroke-width="2"/>
      <line x1="45.4716" y1="10" x2="42.7605" y2="16.5581" fill="none" stroke="#000" stroke-linecap="round" stroke-miterlimit="10" stroke-width="2"/>
      <line x1="26.492" y1="10.0241" x2="29.2159" y2="16.5769" fill="none" stroke="#000" stroke-linecap="round" stroke-miterlimit="10" stroke-width="2"/>
      <polygon points="36 34.315 37.7 35.53 37.069 33.538 38.75 32.298 36.661 32.282 36 30.3 35.339 32.282 33.25 32.298 34.931 33.538 34.3 35.53 36 34.315" stroke="#000" stroke-linejoin="round" stroke-width="2"/>
    </g>
  </g>
  <g id="color">
    <rect x="35" y="38.915" width="2" height="25" stroke-width="2" stroke="#d22f27" stroke-linecap="round" stroke-linejoin="round" fill="none"/>
    <g>
      <line x1="15.9954" y1="32.9114" x2="15.9954" y2="32.9114" fill="none" stroke="#fcea2b" stroke-linecap="round" stroke-miterlimit="10" stroke-width="2"/>
      <line x1="55.9886" y1="32.902" x2="55.9886" y2="32.902" fill="none" stroke="#f1b31c" stroke-linecap="round" stroke-miterlimit="10" stroke-width="2"/>
      <line x1="35.978" y1="12.9148" x2="35.978" y2="12.9148" fill="none" stroke="#f1b31c" stroke-linecap="round" stroke-miterlimit="10" stroke-width="2"/>
      <line x1="21.8491" y1="18.771" x2="31.7486" y2="28.6705" fill="none" stroke="#e27022" stroke-linecap="round" stroke-linejoin="round" stroke-width="2"/>
      <line x1="40.2339" y1="28.6704" x2="50.1334" y2="18.771" fill="none" stroke="#61b2e4" stroke-linecap="round" stroke-linejoin="round" stroke-width="2"/>
      <line x1="50.1334" y1="47.0552" x2="40.2339" y2="37.1557" fill="none" stroke="#f1b31c" stroke-linecap="round" stroke-linejoin="round" stroke-width="2"/>
      <line x1="31.7486" y1="37.1557" x2="21.8491" y2="47.0552" fill="none" stroke="#e67a94" stroke-linecap="round" stroke-linejoin="round" stroke-width="2"/>
      <line x1="29.9913" y1="32.9131" x2="20.9913" y2="32.9131" fill="none" stroke="#d0cfce" stroke-linecap="round" stroke-miterlimit="10" stroke-width="2"/>
      <line x1="35.9913" y1="17.913" x2="35.9913" y2="26.913" fill="none" stroke="#8967aa" stroke-linecap="round" stroke-miterlimit="10" stroke-width="2"/>
      <line x1="50.9912" y1="32.9131" x2="41.9912" y2="32.9131" fill="none" stroke="#ea5a47" stroke-linecap="round" stroke-miterlimit="10" stroke-width="2"/>
      <line x1="13.0873" y1="23.4273" x2="19.6434" y2="26.143" fill="none" stroke="#b399c8" stroke-linecap="round" stroke-miterlimit="10" stroke-width="2"/>
      <line x1="13.0883" y1="42.4095" x2="19.6442" y2="39.6931" fill="none" stroke="#92d3f5" stroke-linecap="round" stroke-miterlimit="10" stroke-width="2"/>
      <line x1="26.5133" y1="55.8299" x2="29.2274" y2="49.2731" fill="none" stroke="#b1cc33" stroke-linecap="round" stroke-miterlimit="10" stroke-width="2"/>
      <line x1="45.4951" y1="55.8246" x2="42.7773" y2="49.2693" fill="none" stroke="#ffa7c0" stroke-linecap="round" stroke-miterlimit="10" stroke-width="2"/>
      <line x1="58.9127" y1="42.3963" x2="52.3553" y2="39.6837" fill="none" stroke="#b399c8" stroke-linecap="round" stroke-miterlimit="10" stroke-width="2"/>
      <line x1="58.9032" y1="23.4149" x2="52.3485" y2="26.1341" fill="none" stroke="#b1cc33" stroke-linecap="round" stroke-miterlimit="10" stroke-width="2"/>
      <line x1="45.4716" y1="10" x2="42.7605" y2="16.5581" fill="none" stroke="#a57939" stroke-linecap="round" stroke-miterlimit="10" stroke-width="2"/>
      <line x1="26.492" y1="10.0241" x2="29.2159" y2="16.5769" fill="none" stroke="#fcea2b" stroke-linecap="round" stroke-miterlimit="10" stroke-width="2"/>
      <polygon points="36 34.315 37.7 35.53 37.069 33.538 38.75 32.298 36.661 32.282 36 30.3 35.339 32.282 33.25 32.298 34.931 33.538 34.3 35.53 36 34.315" fill="#d22f27" stroke="#d22f27" stroke-linejoin="round" stroke-width="2"/>
    </g>
  </g>
  <g id="line">
    <polyline points="35 58.915 35 38.915 37 38.915" fill="none" stroke="#000" stroke-linecap="round" stroke-linejoin="round" stroke-width="2"/>
  </g>
</svg>
