<svg id="emoji" xmlns="http://www.w3.org/2000/svg" viewBox="0 0 72 72">
  <g id="color">
    <path fill="#B1CC33" d="M57.6963,32.9388c-0.0972,0-0.1942-0.0187-0.2886-0.056c-0.58-0.2286-14.0759-5.6686-21.5575-17.85
		c-6.8325,3.0833-11.5895,10.2596-11.6642,10.375c-0.3334,0.5119-0.935,0.5901-1.3459,0.1738
		c-0.41-0.4163-0.4717-1.1685-0.1392-1.6804c0.1298-0.1982,13.1054-19.7577,27.7987-9.8503
		c7.8693,5.3059,8.1448,17.1677,8.1532,17.6704c0.0056,0.3848-0.1372,0.7497-0.3839,0.9795
		C58.1016,32.8573,57.8999,32.9388,57.6963,32.9388z" stroke="none"></path>
    <path fill="#5C9E31" d="M23.9844,25.9945c1.9157-2.992,5.2798-7.3798,9.791-9.9801c0.6218-0.3907,1.2601-0.761,1.9261-1.083
		c0.0206,0.0323,0.0425,0.0629,0.0632,0.0952c3.6437-1.5269,7.9114-1.7803,12.6838,0.6358
		c7.7149,3.9057,9.912,14.0599,10.3039,16.2592c0.0769-0.1857,0.1241-0.3896,0.1162-0.606
		c-0.0195-0.5083-0.5581-12.503-8.5431-17.6986C35.416,3.9156,22.8774,23.9885,22.752,24.1919
		c-0.3211,0.5251-0.2427,1.2848,0.1765,1.697C23.2437,26.1982,23.6601,26.2232,23.9844,25.9945z" stroke="none"></path>
    <path fill="#B1CC33" d="M28.7007,4.534H15.5409c-1.5335,0-2.6953,0.5828-2.3725,1.2062c1.0379,2.0035,1.6823,4.784,1.6823,7.8618
		c0,3.7561-0.9596,8.0768-2.4233,10.0755v2.0151c1.4637,1.9986,2.4233,6.3192,2.4233,10.0755c0,3.756-0.9596,8.0768-2.4233,10.0755
		v2.0151c1.4637,1.9986,2.4233,6.3192,2.4233,10.0755c0,3.0779-0.6444,5.8583-1.6823,7.8618
		c-0.3231,0.6233,0.839,1.2062,2.3725,1.2062h13.1595c1.5335,0,2.6953-0.5828,2.3725-1.2062
		c-1.0379-2.0035-1.6823-4.7839-1.6823-7.8618c0-3.7561,0.9596-8.0769,2.4233-10.0755v-2.0151
		c-1.4637-1.9987-2.4233-6.3194-2.4233-10.0755s0.9596-8.0769,2.4233-10.0755v-2.0151c-1.4637-1.9987-2.4233-6.3194-2.4233-10.0755
		c0-3.0778,0.6444-5.8583,1.6823-7.8618C31.396,5.1168,30.2339,4.534,28.7007,4.534z" stroke="none"></path>
    <path fill="#5C9E31" d="M22.8988,65.7955c1.3567-2.0035,2.1991-4.784,2.1991-7.8618c0-3.7561-1.2543-7.0694-3.1676-9.068v-4.0301
		c1.9133-1.9987,3.1676-5.3118,3.1676-9.068s-1.2543-7.0693-3.1676-9.0679v-4.0301c1.9133-1.9987,3.1676-5.3118,3.1676-9.068
		c0-3.0779-0.8423-5.8583-2.1991-7.8618C22.4768,5.1168,23.9954,4.534,26,4.534h-9.5028c-2.0046,0-3.5232,0.5828-3.1012,1.2062
		c1.3571,2.0035,2.1991,4.7839,2.1991,7.8618c0,3.7561-1.2543,8.0768-3.1676,10.0755v2.0151
		c1.9133,1.9986,3.1676,6.3192,3.1676,10.0755c0,3.756-1.2543,8.0768-3.1676,10.0755v2.0151
		c1.9133,1.9986,3.1676,6.3192,3.1676,10.0755c0,3.0778-0.8423,5.8583-2.1991,7.8618c-0.4219,0.6232,1.0967,1.2062,3.1012,1.2062H26
		C23.9954,67.0017,22.4768,66.4189,22.8988,65.7955z" stroke="none"></path>
    <path fill="#EA5A47" d="M40.445,27.9895l-5.4208,2.6931c-0.6447,0.3203-0.978,1.0867-0.7746,1.8045
		c1.2382,4.368,5.9416,19.1975,15.1459,28.9456c0.5127,0.5431,1.346,0.5627,1.9107,0.0672l9.2458-8.1146
		c0.7049-0.6187,0.7032-1.763-0.0138-2.3489c-3.1252-2.5532-10.8734-9.6479-18.2871-22.4672
		C41.8759,27.9204,41.1009,27.6636,40.445,27.9895z" stroke="none"></path>
    <path fill="#D22F27" d="M39.497,28.4598l-4.2734,2.123c-0.6447,0.3203-0.978,1.0867-0.7746,1.8045
		c1.2382,4.368,5.9416,19.1975,15.1459,28.9456c0.5127,0.5431,1.346,0.5627,1.9107,0.0672l2.5674-2.2533
		C45.2467,48.7822,40.7485,33.3158,39.497,28.4598z" stroke="none"></path>
    <path fill="#5c9e31" d="M31.5232,50.2071H12.4641C11.6588,50.2071,11,49.5482,11,48.743V44.449
		c0-0.8052,0.6588-1.4641,1.4641-1.4641h19.0591c0.8053,0,1.4641,0.6588,1.4641,1.4641v4.2939
		C32.9873,49.5482,32.3285,50.2071,31.5232,50.2071z" stroke="none"></path>
    <path fill="#5c9e31" d="M31.5232,28.2071H12.4641C11.6588,28.2071,11,27.5482,11,26.743V22.449
		c0-0.8052,0.6588-1.4641,1.4641-1.4641h19.0591c0.8053,0,1.4641,0.6588,1.4641,1.4641v4.2939
		C32.9873,27.5482,32.3285,28.2071,31.5232,28.2071z" stroke="none"></path>
    <path fill="#B1CC33" d="M31.5232,20.9849H31.316l-14.424,7.2221h14.6311c0.8053,0,1.4641-0.6588,1.4641-1.4641V22.449
		C32.9873,21.6437,32.3285,20.9849,31.5232,20.9849z" stroke="none"></path>
    <path fill="#B1CC33" d="M31.5232,42.9849H31.316l-14.424,7.2221h14.6311c0.8053,0,1.4641-0.6588,1.4641-1.4641V44.449
		C32.9873,43.6437,32.3285,42.9849,31.5232,42.9849z" stroke="none"></path>
  </g>
  <g id="hair"> </g>
  <g id="skin"> </g>
  <g id="skin-shadow"> </g>
  <g id="line">
    <path fill="none" stroke="#000000" stroke-width="2" stroke-linecap="round" stroke-linejoin="round" stroke-miterlimit="10" d="
		M29.7936,17.5924c-0.2024-1.3083-0.3097-2.6666-0.304-3.9578c0.0138-3.0777,0.6706-5.8554,1.7175-7.8542
		c0.3259-0.6219-0.8336-1.2099-2.3668-1.2168L15.6806,4.5048c-1.5335-0.0069-2.6979,0.5708-2.3779,1.1955
		c1.0289,2.0081,1.6609,4.7915,1.6471,7.8692c-0.0168,3.7561-0.9957,8.0724-2.4683,10.0645l-0.009,2.0151
		c1.4547,2.0051,2.395,6.33,2.3782,10.0862c-0.0168,3.756-0.9957,8.0724-2.4683,10.0645l-0.009,2.015
		c1.4547,2.0051,2.395,6.33,2.3782,10.0862c-0.0138,3.0778-0.6706,5.8554-1.7175,7.8542c-0.3259,0.6219,0.8336,1.2099,2.3671,1.2168
		l13.1594,0.0589c1.5335,0.0069,2.6979-0.5708,2.3779-1.1955c-1.0289-2.0081-1.6609-4.7914-1.6471-7.8692
		c0.0046-1.0392,0.0829-2.1213,0.225-3.1852"></path>
    <path fill="none" stroke="#000000" stroke-width="2" stroke-linecap="round" stroke-linejoin="round" stroke-miterlimit="10" d="
		M41,12c3.3439-0.5011,6.7458-0.4799,10.4994,2.0511c7.8693,5.3059,8.1448,17.1677,8.1532,17.6704
		c0.0056,0.3848-0.1372,0.7497-0.3839,0.9795c-0.167,0.1563-0.3688,0.2379-0.5724,0.2379c-0.0972,0-0.1942-0.0187-0.2886-0.056
		C57.8743,32.6727,46.6569,28.2104,39,18"></path>
    <path fill="none" stroke="#000000" stroke-width="2" stroke-linecap="round" stroke-linejoin="round" stroke-miterlimit="10" d="
		M40.445,27.9895l-5.4208,2.6931c-0.6447,0.3203-0.978,1.0867-0.7746,1.8045c1.2382,4.368,5.9416,19.1975,15.1459,28.9456
		c0.5127,0.5431,1.346,0.5627,1.9107,0.0672l9.2458-8.1146c0.7049-0.6187,0.7032-1.763-0.0138-2.3489
		c-3.1252-2.5532-10.8734-9.6479-18.2871-22.4672C41.8759,27.9204,41.1009,27.6636,40.445,27.9895z"></path>
    <path fill="none" stroke="#000000" stroke-width="2" stroke-miterlimit="10" d="M29.5163,54.7811
		c0.3713-2.7814,1.1782-5.4385,2.2433-6.8793l0.009-2.0151c-1.4548-2.0052-2.395-6.3301-2.3782-10.0862
		c0.0168-3.7561,0.9957-8.0725,2.4683-10.0645l0.009-2.0151c-0.9547-1.3159-1.6878-3.6309-2.0742-6.1285"></path>
  </g>
</svg>