<?xml version="1.0" encoding="utf-8"?>
<!-- Generator: Adobe Illustrator 21.1.0, SVG Export Plug-In . SVG Version: 6.00 Build 0)  -->
<svg version="1.1" id="emoji" xmlns="http://www.w3.org/2000/svg" xmlns:xlink="http://www.w3.org/1999/xlink" x="0px" y="0px"
	 viewBox="0 0 72 72" enable-background="new 0 0 72 72" xml:space="preserve">
<g id="_xD83C__xDF88__1_">
	
		<polygon fill="#D22F27" stroke="#000000" stroke-width="2.1216" stroke-linecap="round" stroke-linejoin="round" stroke-miterlimit="10" points="
		34,42.7 34,49.1 34,55.6 28.1,51.8 22.2,48 28.1,45.3 	"/>
	<circle fill="#EA5A47" cx="45" cy="27" r="23"/>
	<path fill="#D22F27" d="M60.8,10.5c-1.3-1.3-2.8-2.5-4.4-3.4c5.4,8.8,4.2,20.5-3.4,28.2c-7.6,7.6-19.3,8.8-28.2,3.4
		c0.9,1.6,2.1,3,3.4,4.4c9,9,23.5,9,32.5,0C69.8,34.1,69.8,19.5,60.8,10.5z"/>
	<circle fill="none" stroke="#000000" stroke-width="2" stroke-miterlimit="10" cx="45" cy="27" r="23"/>
	<g>
		<path fill="none" stroke="#000000" stroke-width="2" stroke-linecap="round" stroke-linejoin="round" stroke-miterlimit="10" d="
			M17.7,65.1c0.5,0,1,0,1.5-0.1c2.7-0.7,4.4-3.5,3.8-6.2"/>
		<path fill="none" stroke="#000000" stroke-width="2" stroke-linecap="round" stroke-linejoin="round" stroke-miterlimit="10" d="
			M23.1,58.9c-0.2-0.5-0.3-1-0.3-1.5c0-2.8,2.3-5.1,5.1-5.2"/>
	</g>
</g>
</svg>
