<svg id="emoji" viewBox="0 0 72 72" version="1.1" xmlns="http://www.w3.org/2000/svg">
  <g id="color">
    <path fill="#5C9E31" d="m45.49 4.406c-5.275-3.825-12.77 1.104-13.62 15.35 0.0057-0.0012 0.0123-2e-3 0.0179-0.0032-0.0017 0.0278-0.0058 0.0557-0.0074 0.0834 0.8161-0.1688 1.765-0.2942 2.859-0.3484 0.0019-0.0265 6e-3 -0.053 0.0079-0.0795 0.3639-0.0173 0.7436-0.0267 1.14-0.0267 1.711 0 3.112 0.1713 4.247 0.4241-3.19-8.198-0.1797-11.54 1.282-12.31 1.362-0.7169 3.447-0.1576 2.959 1.75-0.0955 0.3729-0.4211 0.5609-0.616 0.8633-0.8978 1.388 0.3412 2.316 1.652 1.985 3.516-0.8865 3.008-5.566 0.0797-7.69z"/>
    <path fill="#F4AA41" d="m27.79 19.87c-10.33-3.932-21.22 4.318-20.99 19.13s14.4 24.43 21.5 20.37c2.166 2.158 13.23 2.158 15.4 0 7.095 4.062 21.27-5.552 21.5-20.37s-10.66-23.06-20.99-19.13c-2.95-3.243-13.46-3.244-16.41 0z"/>
    <path fill="#E27022" d="m65.2 39c0.2302-14.81-10.66-23.06-20.99-19.13 2.887 1.24 11.42 6.089 11.42 19.13s-8.87 19-11.93 20.37c7.095 4.062 21.27-5.552 21.5-20.37z"/>
    <path fill="#FCEA2B" d="m20 48s15 10 32 0c0 0-16 20-32 0z"/>
    <polygon fill="#FCEA2B" points="35.9 47.93 34.18 44.96 32.47 42 35.9 42 39.32 42 37.61 44.96"/>
    <path fill="#FCEA2B" d="m48.97 37.84c2.59-0.9575 3.914-3.834 2.956-6.424l-9.38 3.468c0.9576 2.59 3.834 3.914 6.424 2.956z"/>
    <path fill="#FCEA2B" d="m22.82 37.84c-2.59-0.9575-3.914-3.834-2.956-6.424l9.38 3.468c-0.9575 2.59-3.834 3.914-6.424 2.956z"/>
  </g>
  <g id="hair"/>
  <g id="skin"/>
  <g id="skin-shadow"/>
  <g id="line" fill="none" stroke="#000" stroke-linecap="round" stroke-linejoin="round" stroke-miterlimit="10" stroke-width="2">
    <path d="m7.187 33.92c-3.021 17.33 12.93 30.13 21.11 25.45 2.166 2.158 13.23 2.158 15.4 0 7.096 4.062 21.27-5.552 21.5-20.37s-10.66-23.06-20.99-19.13c-2.95-3.243-13.46-3.244-16.41 0-6.088-2.317-12.37-0.4048-16.46 4.587"/>
    <path d="m39.4 17.66c-1.804-6.206 0.3711-9.293 2.01-10.16 1.36-0.72 3.446-0.161 2.96 1.75-0.0939 0.369-0.42 0.56-0.62 0.86-0.89 1.39 0.35 2.32 1.66 1.99 2.951-0.7557 3.419-4.636 0.5591-7.222-4.528-4.095-12.29-1.156-13.93 12.84"/>
    <path d="m20 48s15 10 32 0c0 0-16 20-32 0z"/>
    <polygon points="35.9 47.93 34.18 44.96 32.47 42 35.9 42 39.32 42 37.61 44.96"/>
    <path d="m51.93 31.42-9.38 3.468c2.267 6.132 11.65 2.664 9.38-3.468z"/>
    <path d="m19.86 31.42 9.38 3.468c-2.267 6.132-11.65 2.665-9.38-3.468z"/>
  </g>
</svg>
