<svg id="emoji" xmlns="http://www.w3.org/2000/svg" viewBox="0 0 72 72">
  <g id="line-supplement">
    <g>
      <g>
        <line x1="22.7071" y1="46.7071" x2="31.8995" y2="55.8995" fill="none" stroke="#000" stroke-linecap="round" stroke-miterlimit="10" stroke-width="2"/>
        <line x1="29.0711" y1="48.8284" x2="29.0711" y2="53.0711" fill="none" stroke="#000" stroke-linecap="round" stroke-miterlimit="10" stroke-width="2"/>
        <line x1="26.2426" y1="46" x2="26.2426" y2="50.2426" fill="none" stroke="#000" stroke-linecap="round" stroke-miterlimit="10" stroke-width="2"/>
        <line x1="24.8284" y1="53.0711" x2="29.0711" y2="53.0711" fill="none" stroke="#000" stroke-linecap="round" stroke-miterlimit="10" stroke-width="2"/>
        <line x1="22" y1="50.2426" x2="26.2426" y2="50.2426" fill="none" stroke="#000" stroke-linecap="round" stroke-miterlimit="10" stroke-width="2"/>
      </g>
      <g>
        <line x1="49.2929" y1="46.7071" x2="40.1005" y2="55.8995" fill="none" stroke="#000" stroke-linecap="round" stroke-miterlimit="10" stroke-width="2"/>
        <line x1="42.9289" y1="48.8284" x2="42.9289" y2="53.0711" fill="none" stroke="#000" stroke-linecap="round" stroke-miterlimit="10" stroke-width="2"/>
        <line x1="45.7574" y1="46" x2="45.7574" y2="50.2426" fill="none" stroke="#000" stroke-linecap="round" stroke-miterlimit="10" stroke-width="2"/>
        <line x1="47.1716" y1="53.0711" x2="42.9289" y2="53.0711" fill="none" stroke="#000" stroke-linecap="round" stroke-miterlimit="10" stroke-width="2"/>
        <line x1="50" y1="50.2426" x2="45.7574" y2="50.2426" fill="none" stroke="#000" stroke-linecap="round" stroke-miterlimit="10" stroke-width="2"/>
      </g>
      <g>
        <line x1="36" y1="43" x2="36" y2="56" fill="none" stroke="#000" stroke-linecap="round" stroke-miterlimit="10" stroke-width="2"/>
        <line x1="33" y1="49" x2="36" y2="52" fill="none" stroke="#000" stroke-linecap="round" stroke-miterlimit="10" stroke-width="2"/>
        <line x1="33" y1="45" x2="36" y2="48" fill="none" stroke="#000" stroke-linecap="round" stroke-miterlimit="10" stroke-width="2"/>
        <line x1="39" y1="49" x2="36" y2="52" fill="none" stroke="#000" stroke-linecap="round" stroke-miterlimit="10" stroke-width="2"/>
        <line x1="39" y1="45" x2="36" y2="48" fill="none" stroke="#000" stroke-linecap="round" stroke-miterlimit="10" stroke-width="2"/>
      </g>
    </g>
    <g>
      <line x1="35" y1="22" x2="35" y2="33" fill="#fff" stroke="#000" stroke-linecap="round" stroke-miterlimit="10" stroke-width="2"/>
      <line x1="37" y1="28" x2="37" y2="39" fill="none" stroke="#000" stroke-linecap="round" stroke-linejoin="round" stroke-width="2"/>
    </g>
    <g>
      <path d="M36.5,8C37.8807,8,39,9.7909,39,12s-1.1193,4-2.5,4S34,14.2091,34,12s1.1193-4,2.5-4m0-2C33.9766,6,32,8.6355,32,12s1.9766,6,4.5,6S41,15.3645,41,12s-1.9766-6-4.5-6Z"/>
      <path d="M40.5,24c1.3807,0,2.5,1.7909,2.5,4s-1.1193,4-2.5,4S38,30.2091,38,28s1.1193-4,2.5-4m0-2c-2.5234,0-4.5,2.6355-4.5,6s1.9766,6,4.5,6S45,31.3645,45,28s-1.9766-6-4.5-6Z"/>
      <path d="M31.5,18c1.3807,0,2.5,1.7909,2.5,4s-1.1193,4-2.5,4S29,24.2091,29,22s1.1193-4,2.5-4m0-2c-2.5234,0-4.5,2.6355-4.5,6s1.9766,6,4.5,6S36,25.3645,36,22s-1.9766-6-4.5-6Z"/>
    </g>
    <path d="M36.5,8C37.8807,8,39,9.7908,39,12V24.8181A1.9823,1.9823,0,0,1,40.5,24c1.3807,0,2.5,1.7908,2.5,4V55H29V22c0-2.2092,1.1193-4,2.5-4S34,19.7908,34,22l.08-10c0-2.2092,1.039-4,2.42-4m0-2c-2.52,0-4.42,2.5794-4.42,6l-.0325,4.0421A3.5721,3.5721,0,0,0,31.5,16c-2.5234,0-4.5,2.6355-4.5,6V55a2,2,0,0,0,2,2H43a2,2,0,0,0,2-2V28c0-3.1388-1.72-5.6432-4-5.965V12c0-3.3645-1.9766-6-4.5-6Z"/>
    <g>
      <line x1="32" y1="56" x2="32" y2="67" fill="none" stroke="#000" stroke-linecap="round" stroke-linejoin="round" stroke-width="2"/>
      <line x1="40" y1="56" x2="40" y2="67" fill="none" stroke="#000" stroke-linecap="round" stroke-linejoin="round" stroke-width="2"/>
      <line x1="46" y1="59.5" x2="26" y2="59.5" fill="none" stroke="#000" stroke-linecap="round" stroke-linejoin="round" stroke-width="2"/>
      <line x1="26" y1="63.5" x2="46" y2="63.5" fill="none" stroke="#000" stroke-linecap="round" stroke-linejoin="round" stroke-width="2"/>
    </g>
  </g>
  <g id="color">
    <g>
      <rect x="26" y="56" width="20" height="11" fill="#f4aa41"/>
      <line x1="32" y1="56" x2="32" y2="67" fill="none" stroke="#a57939" stroke-linecap="round" stroke-linejoin="round" stroke-width="2"/>
      <line x1="40" y1="56" x2="40" y2="67" fill="none" stroke="#a57939" stroke-linecap="round" stroke-linejoin="round" stroke-width="2"/>
      <line x1="46" y1="59.5" x2="26" y2="59.5" fill="none" stroke="#a57939" stroke-linecap="round" stroke-linejoin="round" stroke-width="2"/>
      <line x1="26" y1="63.5" x2="46" y2="63.5" fill="none" stroke="#a57939" stroke-linecap="round" stroke-linejoin="round" stroke-width="2"/>
      <rect x="29" y="22" width="5" height="33" fill="#b1cc33"/>
      <rect x="34" y="12" width="5" height="43" fill="#5c9e31"/>
      <rect x="38" y="28" width="5" height="27" fill="#b1cc33"/>
      <ellipse cx="36.5" cy="12" rx="2.5" ry="4" fill="#f4aa41"/>
      <ellipse cx="40.5" cy="28" rx="2.5" ry="4" fill="#f4aa41"/>
      <ellipse cx="31.5" cy="22" rx="2.5" ry="4" fill="#f4aa41"/>
    </g>
    <g>
      <g>
        <line x1="22.7071" y1="46.7071" x2="31.8995" y2="55.8995" fill="none" stroke="#186648" stroke-linecap="round" stroke-miterlimit="10" stroke-width="2"/>
        <line x1="29.0711" y1="48.8284" x2="29.0711" y2="53.0711" fill="none" stroke="#186648" stroke-linecap="round" stroke-miterlimit="10" stroke-width="2"/>
        <line x1="26.2426" y1="46" x2="26.2426" y2="50.2426" fill="none" stroke="#186648" stroke-linecap="round" stroke-miterlimit="10" stroke-width="2"/>
        <line x1="24.8284" y1="53.0711" x2="29.0711" y2="53.0711" fill="none" stroke="#186648" stroke-linecap="round" stroke-miterlimit="10" stroke-width="2"/>
        <line x1="22" y1="50.2426" x2="26.2426" y2="50.2426" fill="none" stroke="#186648" stroke-linecap="round" stroke-miterlimit="10" stroke-width="2"/>
      </g>
      <g>
        <line x1="49.2929" y1="46.7071" x2="40.1005" y2="55.8995" fill="none" stroke="#186648" stroke-linecap="round" stroke-miterlimit="10" stroke-width="2"/>
        <line x1="42.9289" y1="48.8284" x2="42.9289" y2="53.0711" fill="none" stroke="#186648" stroke-linecap="round" stroke-miterlimit="10" stroke-width="2"/>
        <line x1="45.7574" y1="46" x2="45.7574" y2="50.2426" fill="none" stroke="#186648" stroke-linecap="round" stroke-miterlimit="10" stroke-width="2"/>
        <line x1="47.1716" y1="53.0711" x2="42.9289" y2="53.0711" fill="none" stroke="#186648" stroke-linecap="round" stroke-miterlimit="10" stroke-width="2"/>
        <line x1="50" y1="50.2426" x2="45.7574" y2="50.2426" fill="none" stroke="#186648" stroke-linecap="round" stroke-miterlimit="10" stroke-width="2"/>
      </g>
      <g>
        <line x1="36" y1="43" x2="36" y2="56" fill="none" stroke="#186648" stroke-linecap="round" stroke-miterlimit="10" stroke-width="2"/>
        <line x1="33" y1="49" x2="36" y2="52" fill="none" stroke="#186648" stroke-linecap="round" stroke-miterlimit="10" stroke-width="2"/>
        <line x1="33" y1="45" x2="36" y2="48" fill="none" stroke="#186648" stroke-linecap="round" stroke-miterlimit="10" stroke-width="2"/>
        <line x1="39" y1="49" x2="36" y2="52" fill="none" stroke="#186648" stroke-linecap="round" stroke-miterlimit="10" stroke-width="2"/>
        <line x1="39" y1="45" x2="36" y2="48" fill="none" stroke="#186648" stroke-linecap="round" stroke-miterlimit="10" stroke-width="2"/>
      </g>
    </g>
  </g>
  <g id="line">
    <rect x="26" y="56" width="20" height="11" stroke-width="2" stroke="#000" stroke-linecap="round" stroke-linejoin="round" fill="none"/>
  </g>
</svg>
