<?xml version="1.0" encoding="utf-8"?>
<!-- Generator: Adobe Illustrator 21.1.0, SVG Export Plug-In . SVG Version: 6.00 Build 0)  -->
<svg version="1.1" id="emoji" xmlns="http://www.w3.org/2000/svg" xmlns:xlink="http://www.w3.org/1999/xlink" x="0px" y="0px"
	 viewBox="0 0 72 72" enable-background="new 0 0 72 72" xml:space="preserve">
<g id="_xD83C__xDF82_">
	<g>
		<path fill="#FBEA2E" d="M11,37c0,1.1,50,2.1,50,1v-7h-1V20c0-2.8-2.2-5-5-5H17c-2.8,0-5,2.2-5,5v11h-1V37z"/>
	</g>
	<path fill="#FFFFFF" d="M12,21.9c1.9-1.3,4.6-1.1,6.3,0.6c2,2,5.1,2,7.1,0c2-2,5.1-2,7.1,0c2,2,5.1,2,7.1,0c2-2,5.1-2,7.1,0
		c2,2,5.1,2,7.1,0c1.7-1.7,4.4-1.9,6.3-0.6V20c0-2.8-2.2-5-5-5H17c-2.8,0-5,2.2-5,5V21.9z"/>
	<g>
		<path fill="#FBEA2E" d="M5,60c0,1.1,0.9,2,2,2h58c1.1,0,2-0.9,2-2V41c0-2.8-2.2-5-5-5H10c-2.8,0-5,2.2-5,5V60z"/>
	</g>
	<g>
		<circle fill="#E95947" cx="36" cy="12" r="3"/>
	</g>
	<g>
		
			<circle fill="none" stroke="#1D1D1B" stroke-width="2" stroke-linecap="round" stroke-linejoin="round" stroke-miterlimit="10" cx="36" cy="12" r="3"/>
		<path fill="none" stroke="#1D1D1B" stroke-width="2" stroke-linecap="round" stroke-linejoin="round" stroke-miterlimit="10" d="
			M36,10.8c0-2.8,2.2-5,5-5"/>
	</g>
	<g>
		<path fill="none" stroke="#1D1D1B" stroke-width="2" stroke-linecap="round" stroke-linejoin="round" stroke-miterlimit="10" d="
			M11.3,45.5c2,2,5.1,2,7.1,0c2-2,5.1-2,7.1,0c2,2,5.1,2,7.1,0c2-2,5.1-2,7.1,0c2,2,5.1,2,7.1,0c2-2,5.1-2,7.1,0c2,2,5.1,2,7.1,0
			c1.7-1.7,4.3-1.9,6.3-0.7V41c0-2.8-2.2-5-5-5H10c-2.8,0-5,2.2-5,5v3.9C6.9,43.6,9.6,43.8,11.3,45.5z"/>
		<path fill="none" stroke="#1D1D1B" stroke-width="2" stroke-linecap="round" stroke-linejoin="round" stroke-miterlimit="10" d="
			M5,44.9V60c0,1.1,0.9,2,2,2h58c1.1,0,2-0.9,2-2V44.9"/>
	</g>
	<g>
		
			<path fill="#FFFFFF" stroke="#1D1D1B" stroke-width="2" stroke-linecap="round" stroke-linejoin="round" stroke-miterlimit="10" d="
			M11.3,45.5c2,2,5.1,2,7.1,0c2-2,5.1-2,7.1,0c2,2,5.1,2,7.1,0c2-2,5.1-2,7.1,0c2,2,5.1,2,7.1,0c2-2,5.1-2,7.1,0c2,2,5.1,2,7.1,0
			c1.7-1.7,4.3-1.9,6.3-0.7V41c0-2.8-2.2-5-5-5H10c-2.8,0-5,2.2-5,5v3.9C6.9,43.6,9.6,43.8,11.3,45.5z"/>
	</g>
	
		<line fill="none" stroke="#1D1D1B" stroke-width="2" stroke-linecap="round" stroke-linejoin="round" stroke-miterlimit="10" x1="60" y1="21.9" x2="60" y2="32"/>
	
		<line fill="none" stroke="#1D1D1B" stroke-width="2" stroke-linecap="round" stroke-linejoin="round" stroke-miterlimit="10" x1="12" y1="21.9" x2="12" y2="32"/>
	<path fill="none" stroke="#1D1D1B" stroke-width="2" stroke-linecap="round" stroke-linejoin="round" stroke-miterlimit="10" d="
		M12,21.9c1.9-1.3,4.6-1.1,6.3,0.6c2,2,5.1,2,7.1,0c2-2,5.1-2,7.1,0c2,2,5.1,2,7.1,0c2-2,5.1-2,7.1,0c2,2,5.1,2,7.1,0
		c1.7-1.7,4.4-1.9,6.3-0.6V20c0-2.8-2.2-5-5-5H17c-2.8,0-5,2.2-5,5V21.9z"/>
</g>
</svg>
