<svg id="emoji" xmlns="http://www.w3.org/2000/svg" viewBox="0 0 72 72">
  <g id="color">
    <g>
      <path d="M58.6923,19.1538c2.9231,0,7.3077-2.4615,7.3077-2.4615v9.8462s-2.9231-4.9231-7.3077-2.4616S47,26.5385,47,26.5385L45.5385,29H38.2308l-1.4616-2.4615A20.7985,20.7985,0,0,1,28,24.0769V20.3846s4.3846-3.5555,8.7692-3.5555V14.3675s9.0433-3,17.5385,1.094v2.4616A7.0984,7.0984,0,0,0,58.6923,19.1538Z" fill="#61b2e4"/>
      <path d="M56.6923,40.1538c2.9231,0,7.3077-2.4615,7.3077-2.4615v9.8462s-2.9231-4.9231-7.3077-2.4616S45,47.5385,45,47.5385L43.5385,50H36.2308l-1.4616-2.4615A20.7985,20.7985,0,0,1,26,45.0769V41.3846s4.3846-3.5555,8.7692-3.5555V35.3675s9.0433-3,17.5385,1.094v2.4616A7.0984,7.0984,0,0,0,56.6923,40.1538Z" fill="#d22f27"/>
    </g>
  </g>
  <g id="line">
    <g>
      <line x1="18" y1="67" x2="18" y2="8" fill="none" stroke="#000" stroke-linecap="round" stroke-linejoin="round" stroke-width="2"/>
      <circle cx="18" cy="7" r="1" stroke="#000" stroke-linecap="round" stroke-linejoin="round" stroke-width="2"/>
      <circle cx="18" cy="7" r="2" stroke="#000" stroke-linecap="round" stroke-linejoin="round" stroke-width="2"/>
      <circle cx="36" cy="21.3675" r="1" stroke="#000" stroke-linecap="round" stroke-linejoin="round" stroke-width="2"/>
      <path d="M42,20s3,0,4,2" fill="#d22f27" stroke="#000" stroke-linecap="round" stroke-linejoin="round" stroke-width="2"/>
      <circle cx="34" cy="42.3675" r="1" stroke="#000" stroke-linecap="round" stroke-linejoin="round" stroke-width="2"/>
      <path d="M40,41s3,0,4,2" fill="#d22f27" stroke="#000" stroke-linecap="round" stroke-linejoin="round" stroke-width="2"/>
      <polyline points="28 20.385 18 22 28 24.077" fill="none" stroke="#000" stroke-linecap="round" stroke-linejoin="round" stroke-width="2"/>
      <polyline points="26 41.385 18 43 26 45.077" fill="none" stroke="#000" stroke-linecap="round" stroke-linejoin="round" stroke-width="2"/>
      <path d="M58.6923,19.1538c2.9231,0,7.3077-2.4615,7.3077-2.4615v9.8462s-2.9231-4.9231-7.3077-2.4616S47,26.5385,47,26.5385L45.5385,29H38.2308l-1.4616-2.4615A20.7985,20.7985,0,0,1,28,24.0769V20.3846s4.3846-3.5555,8.7692-3.5555V14.3675s9.0433-3,17.5385,1.094v2.4616A7.0984,7.0984,0,0,0,58.6923,19.1538Z" fill="none" stroke="#000" stroke-linecap="round" stroke-linejoin="round" stroke-width="2"/>
      <path d="M56.6923,40.1538c2.9231,0,7.3077-2.4615,7.3077-2.4615v9.8462s-2.9231-4.9231-7.3077-2.4616S45,47.5385,45,47.5385L43.5385,50H36.2308l-1.4616-2.4615A20.7985,20.7985,0,0,1,26,45.0769V41.3846s4.3846-3.5555,8.7692-3.5555V35.3675s9.0433-3,17.5385,1.094v2.4616A7.0984,7.0984,0,0,0,56.6923,40.1538Z" fill="none" stroke="#000" stroke-linecap="round" stroke-linejoin="round" stroke-width="2"/>
    </g>
  </g>
</svg>
