<?xml version="1.0" encoding="utf-8"?>
<!-- Generator: Adobe Illustrator 19.1.0, SVG Export Plug-In . SVG Version: 6.00 Build 0)  -->
<svg version="1.1" id="emoji" xmlns="http://www.w3.org/2000/svg" xmlns:xlink="http://www.w3.org/1999/xlink" x="0px" y="0px"
	 viewBox="0 0 72 72" enable-background="new 0 0 72 72" xml:space="preserve">
<g id="_xD83C__xDF9B__xFE0F_">
	<path fill="#D0CFCE" d="M14.8,13.2c-1.1,0-2,0.9-2,2v41.7c0,1.1,0.9,2,2,2h41.7c1.1,0,2-0.9,2-2V15.2c0-1.1-0.9-2-2-2H14.8z
		 M52.4,20.4c0.4,0.4,0.3,1-0.1,1.4l-5,4.5c-0.2,0.2-0.4,0.3-0.7,0.3c-0.3,0-0.5-0.1-0.7-0.3c-0.4-0.4-0.3-1,0.1-1.4l5-4.5
		C51.4,20,52,20,52.4,20.4z M46.9,19.6c0.6,0,1,0.5,1,1c0,0.6-0.5,1-1,1c-2.2-0.1-4.1,1.6-4.2,3.8c-0.1,2.2,1.6,4.1,3.8,4.2
		c2.2,0.1,4.1-1.6,4.2-3.8c0-0.6,0.5-1,1-1c0.6,0,1,0.5,1,1c-0.1,3.2-2.8,5.8-6,5.8c-0.1,0-0.2,0-0.2,0c-3.3-0.1-5.9-2.9-5.8-6.2
		C40.8,22,43.6,19.4,46.9,19.6z M18.4,25.2c0.1-1.6,0.8-3.1,2-4.1c1.2-1.1,2.7-1.6,4.3-1.5c1.6,0.1,3.1,0.8,4.1,2
		c0.4,0.4,0.3,1-0.1,1.4c-0.4,0.4-1,0.3-1.4-0.1c-0.7-0.8-1.7-1.3-2.8-1.3c-1.1,0-2.1,0.3-2.9,1c-0.8,0.7-1.3,1.7-1.3,2.8
		c-0.1,1.1,0.3,2.1,1,2.9c0.7,0.8,1.7,1.3,2.8,1.3c1.1,0.1,2.1-0.3,2.9-1c0.4-0.4,1-0.3,1.4,0.1c0.4,0.4,0.3,1-0.1,1.4
		c-1.1,1-2.5,1.5-4,1.5c-0.1,0-0.2,0-0.3,0c-1.6-0.1-3.1-0.8-4.1-2C18.9,28.4,18.3,26.8,18.4,25.2z M18,43c0.3-0.4,1-0.5,1.4-0.2
		l5.6,4.3c0.4,0.3,0.5,1,0.2,1.4c-0.2,0.3-0.5,0.4-0.8,0.4c-0.2,0-0.4-0.1-0.6-0.2l-5.6-4.3C17.7,44,17.7,43.4,18,43z M24.4,53.9
		c-3.3,0-6-2.7-6-6c0-0.6,0.4-1,1-1c0.6,0,1,0.4,1,1c0,2.2,1.8,4,4,4s4-1.8,4-4c0-2.2-1.8-4-4-4c-0.6,0-1-0.4-1-1c0-0.6,0.4-1,1-1
		c3.3,0,6,2.7,6,6C30.4,51.2,27.7,53.9,24.4,53.9z M31.3,26.8C31.3,26.8,31.3,26.8,31.3,26.8l-7.2-0.3c-0.6,0-1-0.5-1-1
		c0-0.5,0.5-1,1-1c0,0,0,0,0,0l7.2,0.3c0.6,0,1,0.5,1,1C32.3,26.4,31.9,26.8,31.3,26.8z M50.9,52.1c-1.2,1.2-2.7,1.8-4.2,1.8
		c-1.5,0-3.1-0.6-4.2-1.8c-1.1-1.1-1.8-2.6-1.8-4.2c0-1.6,0.6-3.1,1.8-4.2c1.1-1.1,2.6-1.8,4.2-1.8c1.6,0,3.1,0.6,4.2,1.8
		c0.4,0.4,0.4,1,0,1.4c-0.4,0.4-1,0.4-1.4,0c-1.5-1.5-4.1-1.5-5.7,0c-0.8,0.8-1.2,1.8-1.2,2.8c0,1.1,0.4,2.1,1.2,2.8
		c1.6,1.6,4.1,1.6,5.7,0c0.4-0.4,1-0.4,1.4,0C51.3,51.1,51.3,51.7,50.9,52.1z M53.5,49.1C53.5,49.1,53.5,49.1,53.5,49.1l-6.9-0.2
		c-0.6,0-1-0.5-1-1c0-0.5,0.5-1,1-1c0,0,0,0,0,0l6.8,0.2c0.6,0,1,0.5,1,1C54.5,48.7,54,49.1,53.5,49.1z"/>
	<path fill="#9B9B9A" d="M18.4,47.9c0-0.6,0.4-1,1-1c0.6,0,1,0.4,1,1c0,2.2,1.8,4,4,4s4-1.8,4-4c0-2.2-1.8-4-4-4c-0.6,0-1-0.4-1-1
		c0-0.6,0.4-1,1-1c0,0,0,0,0,0c-1.6,0-3,0.6-4.1,1.6l4.7,3.6c0.4,0.3,0.5,1,0.2,1.4c-0.2,0.3-0.5,0.4-0.8,0.4
		c-0.2,0-0.4-0.1-0.6-0.2L19.1,45C18.6,45.9,18.4,46.8,18.4,47.9"/>
	<g>
		<path fill="#9B9B9A" d="M50.9,43.6c0.4,0.4,0.4,1,0,1.4c-0.4,0.4-1,0.4-1.4,0c-1.5-1.5-4.1-1.5-5.7,0c-0.8,0.8-1.2,1.8-1.2,2.8
			c0,1.1,0.4,2.1,1.2,2.8c1.6,1.6,4.1,1.6,5.7,0c0.4-0.4,1-0.4,1.4,0c0.4,0.4,0.4,1,0,1.4c0.8-0.8,1.4-1.9,1.6-3.1l-5.9-0.2
			c-0.6,0-1-0.5-1-1c0-0.5,0.5-1,1-1c0,0,0,0,0,0l5.9,0.2c-0.2-1.5-1-2.9-2.1-3.8C50.6,43.3,50.8,43.5,50.9,43.6z"/>
	</g>
	<g>
		<path fill="#9B9B9A" d="M24.1,26.5c-0.6,0-1-0.5-1-1c0-0.5,0.5-1,1-1c0,0,0,0,0,0l6.1,0.2c-0.2-1.2-0.7-2.2-1.4-3.1
			c0.3,0.4,0.2,1-0.1,1.3c-0.4,0.4-1,0.3-1.4-0.1c-0.7-0.8-1.7-1.3-2.8-1.3c-1.1,0-2.1,0.3-2.9,1c-0.8,0.7-1.3,1.7-1.3,2.8
			c-0.1,1.1,0.3,2.1,1,2.9c0.7,0.8,1.7,1.3,2.8,1.3c1.1,0.1,2.1-0.3,2.9-1c0.4-0.4,1-0.3,1.4,0.1c0.3,0.4,0.3,0.9,0,1.3
			c0.9-0.8,1.5-1.9,1.8-3.2L24.1,26.5z"/>
	</g>
	<g>
		<path fill="#9B9B9A" d="M51.7,22.4l-4.4,3.9c-0.2,0.2-0.4,0.3-0.7,0.3c-0.3,0-0.5-0.1-0.7-0.3c-0.4-0.4-0.3-1,0.1-1.4l4.4-3.9
			c-1-0.8-2.2-1.2-3.5-1.3c0.5,0,0.9,0.5,0.9,1c0,0.6-0.5,1-1,1c-2.2-0.1-4.1,1.6-4.2,3.8c-0.1,2.2,1.6,4.1,3.8,4.2
			c2.2,0.1,4.1-1.6,4.2-3.8c0-0.6,0.5-1,1-1c0.5,0,1,0.5,1,1c0-0.1,0-0.1,0-0.2C52.7,24.4,52.3,23.3,51.7,22.4z"/>
	</g>
	<path fill="none" stroke="#000000" stroke-width="2" stroke-linecap="round" stroke-linejoin="round" stroke-miterlimit="10" d="
		M56.5,59.8H14.8c-1.7,0-3-1.3-3-3V15.2c0-1.7,1.3-3,3-3h41.7c1.7,0,3,1.3,3,3v41.7C59.5,58.5,58.1,59.8,56.5,59.8z"/>
	<path fill="none" stroke="#000000" stroke-width="2" stroke-linecap="round" stroke-linejoin="round" stroke-miterlimit="10" d="
		M51.7,25.8c-0.1,2.8-2.4,4.9-5.2,4.8c-2.8-0.1-4.9-2.4-4.8-5.2c0.1-2.8,2.4-4.9,5.2-4.8"/>
	<path fill="none" stroke="#000000" stroke-width="2" stroke-linecap="round" stroke-linejoin="round" stroke-miterlimit="10" d="
		M27.7,29.3c-2.1,1.8-5.2,1.7-7.1-0.4c-1.8-2.1-1.7-5.2,0.4-7.1c2.1-1.8,5.2-1.7,7.1,0.4"/>
	<path fill="none" stroke="#000000" stroke-width="2" stroke-linecap="round" stroke-linejoin="round" stroke-miterlimit="10" d="
		M50.2,51.4c-2,2-5.1,2-7.1,0c-2-2-2-5.1,0-7.1c2-2,5.1-2,7.1,0"/>
	<path fill="none" stroke="#000000" stroke-width="2" stroke-linecap="round" stroke-linejoin="round" stroke-miterlimit="10" d="
		M24.4,42.9c2.8,0,5,2.2,5,5c0,2.8-2.2,5-5,5c-2.8,0-5-2.2-5-5"/>
	
		<line fill="none" stroke="#000000" stroke-width="2" stroke-linecap="round" stroke-linejoin="round" stroke-miterlimit="10" x1="24.4" y1="47.9" x2="18.8" y2="43.6"/>
	
		<line fill="none" stroke="#000000" stroke-width="2" stroke-linecap="round" stroke-linejoin="round" stroke-miterlimit="10" x1="53.5" y1="48.1" x2="46.7" y2="47.9"/>
	
		<line fill="none" stroke="#000000" stroke-width="2" stroke-linecap="round" stroke-linejoin="round" stroke-miterlimit="10" x1="31.3" y1="25.8" x2="24.2" y2="25.5"/>
	
		<line fill="none" stroke="#000000" stroke-width="2" stroke-linecap="round" stroke-linejoin="round" stroke-miterlimit="10" x1="51.7" y1="21.1" x2="46.7" y2="25.6"/>
</g>
</svg>
