<?xml version="1.0" encoding="utf-8"?>
<!-- Generator: Adobe Illustrator 19.1.0, SVG Export Plug-In . SVG Version: 6.00 Build 0)  -->
<svg version="1.1" id="emoji" xmlns="http://www.w3.org/2000/svg" xmlns:xlink="http://www.w3.org/1999/xlink" x="0px" y="0px"
	 viewBox="0 0 72 72" enable-background="new 0 0 72 72" xml:space="preserve">
<g id="_xD83C__xDF9A__xFE0F_">
	<path fill="#D0CECE" d="M51.9,5.9H20c-1.1,0-2,0.9-2,2v56.1c0,1.1,0.9,2,2,2h31.9c1.1,0,2-0.9,2-2V7.9C53.9,6.8,53,5.9,51.9,5.9z
		 M23.9,59.9h-2.7c-0.6,0-1-0.4-1-1s0.4-1,1-1h2.7c0.6,0,1,0.4,1,1S24.5,59.9,23.9,59.9z M23.9,55.2h-2.7c-0.6,0-1-0.4-1-1
		c0-0.6,0.4-1,1-1h2.7c0.6,0,1,0.4,1,1C24.9,54.7,24.5,55.2,23.9,55.2z M23.9,50h-2.7c-0.6,0-1-0.4-1-1c0-0.6,0.4-1,1-1h2.7
		c0.6,0,1,0.4,1,1C24.9,49.5,24.5,50,23.9,50z M23.9,45.2h-2.6c-0.6,0-1-0.4-1-1c0-0.6,0.4-1,1-1h2.6c0.6,0,1,0.4,1,1
		C24.9,44.8,24.5,45.2,23.9,45.2z M23.9,40h-2.6c-0.6,0-1-0.4-1-1c0-0.6,0.4-1,1-1h2.6c0.6,0,1,0.4,1,1C24.9,39.6,24.5,40,23.9,40z
		 M23.9,34.4h-2.6c-0.6,0-1-0.4-1-1c0-0.6,0.4-1,1-1h2.6c0.6,0,1,0.4,1,1C24.9,34,24.5,34.4,23.9,34.4z M23.9,29.2h-2.6
		c-0.6,0-1-0.4-1-1c0-0.6,0.4-1,1-1h2.6c0.6,0,1,0.4,1,1C24.9,28.8,24.5,29.2,23.9,29.2z M23.9,24.5h-2.6c-0.6,0-1-0.4-1-1
		c0-0.6,0.4-1,1-1h2.6c0.6,0,1,0.4,1,1C24.9,24,24.5,24.5,23.9,24.5z M23.9,19.3h-2.6c-0.6,0-1-0.4-1-1c0-0.6,0.4-1,1-1h2.6
		c0.6,0,1,0.4,1,1C24.9,18.8,24.5,19.3,23.9,19.3z M23.9,13.6h-2.6c-0.6,0-1-0.4-1-1c0-0.6,0.4-1,1-1h2.6c0.6,0,1,0.4,1,1
		C24.9,13.2,24.5,13.6,23.9,13.6z M43.9,33.1c0,0.6-0.4,1-1,1h-2.8V58c0,2.2-1.8,4-4,4h-0.3c-2.2,0-4-1.8-4-4V34.1h-2.6
		c-0.6,0-1-0.4-1-1v-9.7c0-0.6,0.4-1,1-1h2.6V14c0-2.2,1.8-4,4-4h0.3c2.2,0,4,1.8,4,4v8.5h2.8c0.6,0,1,0.4,1,1V33.1z M50.6,59.9
		h-2.7c-0.6,0-1-0.4-1-1s0.4-1,1-1h2.7c0.6,0,1,0.4,1,1S51.1,59.9,50.6,59.9z M50.6,55.2h-2.7c-0.6,0-1-0.4-1-1c0-0.6,0.4-1,1-1h2.7
		c0.6,0,1,0.4,1,1C51.6,54.7,51.1,55.2,50.6,55.2z M50.6,50h-2.7c-0.6,0-1-0.4-1-1c0-0.6,0.4-1,1-1h2.7c0.6,0,1,0.4,1,1
		C51.6,49.5,51.1,50,50.6,50z M50.6,45.2h-2.6c-0.6,0-1-0.4-1-1c0-0.6,0.4-1,1-1h2.6c0.6,0,1,0.4,1,1C51.6,44.8,51.1,45.2,50.6,45.2
		z M50.6,40h-2.6c-0.6,0-1-0.4-1-1c0-0.6,0.4-1,1-1h2.6c0.6,0,1,0.4,1,1C51.6,39.6,51.1,40,50.6,40z M50.6,34.4h-2.6
		c-0.6,0-1-0.4-1-1c0-0.6,0.4-1,1-1h2.6c0.6,0,1,0.4,1,1C51.6,34,51.1,34.4,50.6,34.4z M50.6,29.2h-2.6c-0.6,0-1-0.4-1-1
		c0-0.6,0.4-1,1-1h2.6c0.6,0,1,0.4,1,1C51.6,28.8,51.1,29.2,50.6,29.2z M50.6,24.5h-2.6c-0.6,0-1-0.4-1-1c0-0.6,0.4-1,1-1h2.6
		c0.6,0,1,0.4,1,1C51.6,24,51.1,24.5,50.6,24.5z M50.6,19.3h-2.6c-0.6,0-1-0.4-1-1c0-0.6,0.4-1,1-1h2.6c0.6,0,1,0.4,1,1
		C51.6,18.8,51.1,19.3,50.6,19.3z M50.6,13.6h-2.6c-0.6,0-1-0.4-1-1c0-0.6,0.4-1,1-1h2.6c0.6,0,1,0.4,1,1
		C51.6,13.2,51.1,13.6,50.6,13.6z"/>
	<path fill="#9A9B99" d="M38.1,23.1V14c0-1.1-0.9-2-2-2h-0.3c-1.1,0-2,0.9-2,2v9.1c0,0,0,0,0,0L38.1,23.1
		C38.1,23.1,38.1,23.1,38.1,23.1z"/>
	<path fill="#9A9B99" d="M33.7,33.4V58c0,1.1,0.9,2,2,2h0.3c1.1,0,2-0.9,2-2V33.4H33.7z"/>
	<path fill="none" stroke="#000000" stroke-width="2" stroke-linecap="round" stroke-linejoin="round" stroke-miterlimit="10" d="
		M32.7,23.1V14c0-1.7,1.3-3,3-3h0.3c1.7,0,3,1.3,3,3v9.1"/>
	<path fill="none" stroke="#000000" stroke-width="2" stroke-linecap="round" stroke-linejoin="round" stroke-miterlimit="10" d="
		M39.1,33.4V58c0,1.7-1.3,3-3,3h-0.3c-1.7,0-3-1.3-3-3V33.4"/>
	
		<rect x="29.1" y="23.4" fill="none" stroke="#000000" stroke-width="2" stroke-linecap="round" stroke-linejoin="round" stroke-miterlimit="10" width="13.8" height="9.7"/>
	
		<line fill="none" stroke="#000000" stroke-width="2" stroke-linecap="round" stroke-linejoin="round" stroke-miterlimit="10" x1="33" y1="28.3" x2="38.9" y2="28.3"/>
	<g>
		<path fill="none" stroke="#000000" stroke-width="2" stroke-linecap="round" stroke-linejoin="round" stroke-miterlimit="10" d="
			M51.9,67.1H20c-1.7,0-3-1.3-3-3V7.9c0-1.7,1.3-3,3-3h31.9c1.7,0,3,1.3,3,3v56.1C54.9,65.7,53.5,67.1,51.9,67.1z"/>
		<g>
			<g>
				
					<line fill="none" stroke="#000000" stroke-width="2" stroke-linecap="round" stroke-linejoin="round" stroke-miterlimit="10" x1="47.9" y1="18.3" x2="50.6" y2="18.3"/>
				
					<line fill="none" stroke="#000000" stroke-width="2" stroke-linecap="round" stroke-linejoin="round" stroke-miterlimit="10" x1="47.9" y1="12.6" x2="50.6" y2="12.6"/>
				
					<line fill="none" stroke="#000000" stroke-width="2" stroke-linecap="round" stroke-linejoin="round" stroke-miterlimit="10" x1="47.9" y1="23.5" x2="50.6" y2="23.5"/>
				
					<line fill="none" stroke="#000000" stroke-width="2" stroke-linecap="round" stroke-linejoin="round" stroke-miterlimit="10" x1="47.9" y1="28.2" x2="50.6" y2="28.2"/>
				
					<line fill="none" stroke="#000000" stroke-width="2" stroke-linecap="round" stroke-linejoin="round" stroke-miterlimit="10" x1="47.9" y1="33.4" x2="50.6" y2="33.4"/>
			</g>
			<g>
				
					<line fill="none" stroke="#000000" stroke-width="2" stroke-linecap="round" stroke-linejoin="round" stroke-miterlimit="10" x1="47.9" y1="39" x2="50.6" y2="39"/>
				
					<line fill="none" stroke="#000000" stroke-width="2" stroke-linecap="round" stroke-linejoin="round" stroke-miterlimit="10" x1="47.9" y1="44.2" x2="50.6" y2="44.2"/>
				
					<line fill="none" stroke="#000000" stroke-width="2" stroke-linecap="round" stroke-linejoin="round" stroke-miterlimit="10" x1="47.9" y1="49" x2="50.6" y2="49"/>
				
					<line fill="none" stroke="#000000" stroke-width="2" stroke-linecap="round" stroke-linejoin="round" stroke-miterlimit="10" x1="47.9" y1="54.2" x2="50.6" y2="54.2"/>
				
					<line fill="none" stroke="#000000" stroke-width="2" stroke-linecap="round" stroke-linejoin="round" stroke-miterlimit="10" x1="47.9" y1="58.9" x2="50.6" y2="58.9"/>
			</g>
		</g>
		<g>
			<g>
				
					<line fill="none" stroke="#000000" stroke-width="2" stroke-linecap="round" stroke-linejoin="round" stroke-miterlimit="10" x1="21.3" y1="18.3" x2="23.9" y2="18.3"/>
				
					<line fill="none" stroke="#000000" stroke-width="2" stroke-linecap="round" stroke-linejoin="round" stroke-miterlimit="10" x1="21.3" y1="12.6" x2="23.9" y2="12.6"/>
				
					<line fill="none" stroke="#000000" stroke-width="2" stroke-linecap="round" stroke-linejoin="round" stroke-miterlimit="10" x1="21.3" y1="23.5" x2="23.9" y2="23.5"/>
				
					<line fill="none" stroke="#000000" stroke-width="2" stroke-linecap="round" stroke-linejoin="round" stroke-miterlimit="10" x1="21.3" y1="28.2" x2="23.9" y2="28.2"/>
				
					<line fill="none" stroke="#000000" stroke-width="2" stroke-linecap="round" stroke-linejoin="round" stroke-miterlimit="10" x1="21.3" y1="33.4" x2="23.9" y2="33.4"/>
			</g>
			<g>
				
					<line fill="none" stroke="#000000" stroke-width="2" stroke-linecap="round" stroke-linejoin="round" stroke-miterlimit="10" x1="21.3" y1="39" x2="23.9" y2="39"/>
				
					<line fill="none" stroke="#000000" stroke-width="2" stroke-linecap="round" stroke-linejoin="round" stroke-miterlimit="10" x1="21.3" y1="44.2" x2="23.9" y2="44.2"/>
				
					<line fill="none" stroke="#000000" stroke-width="2" stroke-linecap="round" stroke-linejoin="round" stroke-miterlimit="10" x1="21.3" y1="49" x2="23.9" y2="49"/>
				
					<line fill="none" stroke="#000000" stroke-width="2" stroke-linecap="round" stroke-linejoin="round" stroke-miterlimit="10" x1="21.3" y1="54.2" x2="23.9" y2="54.2"/>
				
					<line fill="none" stroke="#000000" stroke-width="2" stroke-linecap="round" stroke-linejoin="round" stroke-miterlimit="10" x1="21.3" y1="58.9" x2="23.9" y2="58.9"/>
			</g>
		</g>
	</g>
	<path fill="#3E4040" d="M30.1,24.4v7.7h11.8v-7.7H30.1z M38.9,29.3H33c-0.6,0-1-0.4-1-1c0-0.6,0.4-1,1-1h5.9c0.6,0,1,0.4,1,1
		C39.9,28.9,39.5,29.3,38.9,29.3z"/>
</g>
</svg>
