<svg id="emoji" xmlns="http://www.w3.org/2000/svg" viewBox="0 0 72 72">
  
  <g id="color">
    <path fill="#9B9B9A" d="M48.9168,19.9187c-0.1849-0.2533-1.2358-1.9027-1.4643-2.1312c0,0-5.1073-4.7402-5.3368-4.8645
			c-0.73-0.3955-2.1893-0.6668-2.2053-0.7131c-0.2464-0.7121-5.162,1.1193-5.4261,1.3823
			c-0.0022,0.0022-3.6495,3.8816-3.6495,3.8816c-0.3906,0.3906-2.359,0.6734-2.1901,0.477l-5.1488,5.2369
			c0.3622-0.1492-4.8163,7.0006-4.8163,7.0006s-1.1971,3.9865-1.188,4.0327c0.0707,0.3537,3.715,6.5829,3.715,6.5829
			c0.0244,0.0244,4.6927,3.3427,4.7174,3.3667c0.2244,0.1507,3.1695-0.6934,5.1882-2.4371
			c0.9495-0.8201,2.6635-5.6152,2.6635-5.6152l5.1605,0.72c0.8687-0.752,8.6831-9.9086,9.461-10.5139
			C49.8915,25.1617,48.9168,19.9188,48.9168,19.9187z" stroke="none"></path>
    <path fill="#3F3F3F" d="M46.5949,21.4485c-0.6926,1.1732-3.932,4.4622-5.4263,5.6249c-0.778,0.6053-2.6856,2.0592-3.5543,2.8112
		c0.7162,0.5967,0.5555,1.2519,0.5555,2.2547l0.5629,5.7745l4.9521-4.8686l0.007-0.0134c-0.1835,0.1501-0.4011,0.2387-0.6254,0.2387
		c-0.2559,0,5.7045-7.1821,5.8038-7.4161c0.0589-0.1387,0.3098-2.4404,0.3587-2.6636c0.0336-0.1539,0.0946-1.1395,0.0873-1.2997
		c-0.0098-0.2162,0.2511-1.1038,0.2186-1.3181c-0.0241-0.1593-1.9208-2.6187-2.1896-1.3433
		C47.3311,19.399,47.2254,20.3806,46.5949,21.4485z" stroke="none"></path>
    <path fill="#3F3F3F" d="M26.9541,40.0789c-2.0146,1.7403-3.289,1.5215-3.5152,1.3707c1.4725,1.4244,2.9311,2.3483,2.9311,2.3483
		s4.1691,0.9207,3.7443,1.1083c1.2384-0.4113,3.1959-1.9056,3.4564-2.1446v-9.4198l-1.0004-0.4734
		c-0.0259,0.0888-0.1701,1.3313-1.0075,2.657C30.9577,36.4833,27.9035,39.2588,26.9541,40.0789z" stroke="none"></path>
    <rect x="21.9021" y="54.6877" fill="#D0CFCE" width="27.8432" height="5.2972" stroke="none"></rect>
    <rect x="47.051" y="54.6877" fill="#3F3F3F" width="2.6943" height="5.2972" stroke="none"></rect>
    <path fill="#9B9B9A" d="M36.3643,30.5947l-0.5432-1.3615c-0.6895,0-2.2504,0.9225-2.2504,1.6119v24.092
		c0,0.0001,2.9293-0.2495,2.9293-0.2495L36.3643,30.5947z" stroke="none"></path>
    <path fill="#3F3F3F" d="M38.1196,54.6877l-0.2185-23.8192c0-0.6894-0.8474-1.0591-1.5368-1.0591L36.5,54.6877
		C36.5,54.6877,38.1196,54.6878,38.1196,54.6877z" stroke="none"></path>
    <path fill="#D0CFCE" d="M32.4199,28.0879c-0.2558,0-0.5117-0.0977-0.707-0.293l-7.5977-7.5971
		c-0.3906-0.3907-0.3906-1.0235,0-1.4141c0.0187-0.0186,0.0435-0.0251,0.0632-0.0419l-0.0261-0.0264
		c0,0-0.3883,0.3664-0.7789,0.7571c-0.3907,0.3906-0.3907,1.0234,0,1.414l7.4951,7.5705c0.1953,0.1953,0.4511,0.2929,0.707,0.2929
		s0.5117-0.0976,0.707-0.2929c0.2255-0.2258,0.462-0.403,0.6302-0.5197C32.7584,28.0265,32.5929,28.0879,32.4199,28.0879z" stroke="none"></path>
    <path fill="#D0CFCE" d="M41.0273,35.6579l-1.2024,1.1804c-0.0477,0.3048,0.0283,0.6249,0.2632,0.8599l0.6086,0.5919
		c0.1953,0.1963,0.4511,0.2939,0.708,0.2939c0.2549,0,0.5107-0.0966,0.706-0.2919c0.3906-0.3897,0.822-0.7921,0.822-0.7921
		l-1.9054-1.8422V35.6579z" stroke="none"></path>
  </g>
  <g id="hair">
  </g>
  <g id="skin">
  </g>
  <g id="skin-shadow">
  </g>
  <g id="line">
    <path fill="none" stroke="#000000" stroke-width="2" stroke-linecap="round" stroke-linejoin="round" stroke-miterlimit="10" d="
			M29.3922,18.5962l4.3865-4.3865c2.7764-2.7764,7.3196-2.7764,10.096,0l3.5778,3.5778c2.7764,2.7765,2.7764,7.3197,0,10.0961
			L43.0661,32.27"></path>
    <path fill="none" stroke="#000000" stroke-width="2" stroke-linecap="round" stroke-linejoin="round" stroke-miterlimit="10" d="
			M29.7195,44.009c-2.2958,0.4945-4.7929-0.1458-6.5678-1.9207l-3.5778-3.5778c-2.7764-2.7764-2.7764-7.3196,0-10.096l4.3033-4.3033
			"></path>
    <path fill="none" stroke="#000000" stroke-width="2" stroke-linecap="round" stroke-linejoin="round" stroke-miterlimit="10" d="
			M33.5707,54.6877V31.8448c0-1.2429,1.0075-2.2505,2.2504-2.2505h0.543c1.2429,0,2.2504,1.0076,2.2504,2.2505v22.8429"></path>
    <rect x="22.4399" y="54.6877" fill="none" stroke="#000000" stroke-width="2" stroke-linecap="round" stroke-linejoin="round" stroke-miterlimit="10" width="27.3054" height="5.2972"></rect>
    <line fill="none" stroke="#000000" stroke-width="2" stroke-linecap="round" stroke-linejoin="round" stroke-miterlimit="10" x1="20.9962" y1="40.4989" x2="18.5728" y2="42.9681"></line>
    <line fill="none" stroke="#000000" stroke-width="2" stroke-linecap="round" stroke-linejoin="round" stroke-miterlimit="10" x1="41.6359" y1="36.304" x2="42.1701" y2="36.8383"></line>
    <line fill="none" stroke="#000000" stroke-width="2" stroke-linecap="round" stroke-linejoin="round" stroke-miterlimit="10" x1="24.8226" y1="19.4908" x2="32.4197" y2="27.0879"></line>
  </g>
</svg>