<?xml version="1.0" encoding="utf-8"?>
<!-- Generator: Adobe Illustrator 21.1.0, SVG Export Plug-In . SVG Version: 6.00 Build 0)  -->
<svg version="1.1" id="emoji" xmlns="http://www.w3.org/2000/svg" xmlns:xlink="http://www.w3.org/1999/xlink" x="0px" y="0px"
	 viewBox="0 0 72 72" enable-background="new 0 0 72 72" xml:space="preserve">
<g id="_xD83C__xDF99__xFE0F_">
	<g>
		<path fill="#9B9B9A" d="M48.9,19.9c-0.2-0.3-1.2-1.9-1.5-2.1c0,0-5.1-4.7-5.3-4.9c-0.7-0.4-2.2-0.7-2.2-0.7
			c-0.2-0.7-5.2,1.1-5.4,1.4c0,0-3.6,3.9-3.6,3.9c-0.4,0.4-2.4,0.7-2.2,0.5l-5.1,5.2c0.4-0.1-4.8,7-4.8,7s-1.2,4-1.2,4
			c0.1,0.4,3.7,6.6,3.7,6.6c0,0,4.7,3.3,4.7,3.4c0.2,0.2,3.2-0.7,5.2-2.4c0.9-0.8,2.7-5.6,2.7-5.6l5.2,0.7c0.9-0.8,8.7-9.9,9.5-10.5
			C49.9,25.2,48.9,19.9,48.9,19.9z"/>
	</g>
	<path fill="#3F3F3F" d="M46.6,21.4c-0.7,1.2-3.9,4.5-5.4,5.6c-0.8,0.6-2.7,2.1-3.6,2.8c0.7,0.6,0.6,1.3,0.6,2.3l0.6,5.8l5-4.9l0,0
		c-0.2,0.2-0.4,0.2-0.6,0.2c-0.3,0,5.7-7.2,5.8-7.4c0.1-0.1,0.3-2.4,0.4-2.7c0-0.2,0.1-1.1,0.1-1.3c0-0.2,0.3-1.1,0.2-1.3
		c0-0.2-1.9-2.6-2.2-1.3C47.3,19.4,47.2,20.4,46.6,21.4z"/>
	<path fill="#3F3F3F" d="M27,40.1c-2,1.7-3.3,1.5-3.5,1.4c1.5,1.4,2.9,2.3,2.9,2.3s4.2,0.9,3.7,1.1c1.2-0.4,3.2-1.9,3.5-2.1v-9.4
		l-1-0.5c0,0.1-0.2,1.3-1,2.7C31,36.5,27.9,39.3,27,40.1z"/>
	<rect x="21.9" y="54.7" fill="#D0CFCE" width="27.8" height="5.3"/>
	<rect x="47.1" y="54.7" fill="#3F3F3F" width="2.7" height="5.3"/>
	<path fill="#9B9B9A" d="M36.4,30.6l-0.5-1.4c-0.7,0-2.3,0.9-2.3,1.6v24.1c0,0,2.9-0.2,2.9-0.2L36.4,30.6z"/>
	<path fill="#3F3F3F" d="M38.1,54.7l-0.2-23.8c0-0.7-0.8-1.1-1.5-1.1l0.1,24.9C36.5,54.7,38.1,54.7,38.1,54.7z"/>
	<path fill="#D0CFCE" d="M32.4,28.1c-0.3,0-0.5-0.1-0.7-0.3l-7.6-7.6c-0.4-0.4-0.4-1,0-1.4c0,0,0,0,0.1,0l0,0c0,0-0.4,0.4-0.8,0.8
		c-0.4,0.4-0.4,1,0,1.4l7.5,7.6c0.2,0.2,0.5,0.3,0.7,0.3s0.5-0.1,0.7-0.3c0.2-0.2,0.5-0.4,0.6-0.5C32.8,28,32.6,28.1,32.4,28.1z"/>
	<path fill="#D0CFCE" d="M41,35.7l-1.2,1.2c0,0.3,0,0.6,0.3,0.9l0.6,0.6c0.2,0.2,0.5,0.3,0.7,0.3c0.3,0,0.5-0.1,0.7-0.3
		c0.4-0.4,0.8-0.8,0.8-0.8L41,35.7L41,35.7z"/>
	<g>
		<path fill="none" stroke="#000000" stroke-width="2" stroke-linecap="round" stroke-linejoin="round" stroke-miterlimit="10" d="
			M29.4,18.6l4.4-4.4c2.8-2.8,7.3-2.8,10.1,0l3.6,3.6c2.8,2.8,2.8,7.3,0,10.1l-4.4,4.4"/>
		<path fill="none" stroke="#000000" stroke-width="2" stroke-linecap="round" stroke-linejoin="round" stroke-miterlimit="10" d="
			M29.7,44c-2.3,0.5-4.8-0.1-6.6-1.9l-3.6-3.6c-2.8-2.8-2.8-7.3,0-10.1l4.3-4.3"/>
		<path fill="none" stroke="#000000" stroke-width="2" stroke-linecap="round" stroke-linejoin="round" stroke-miterlimit="10" d="
			M33.6,54.7V31.8c0-1.2,1-2.3,2.3-2.3h0.5c1.2,0,2.3,1,2.3,2.3v22.8"/>
		
			<rect x="22.4" y="54.7" fill="none" stroke="#000000" stroke-width="2" stroke-linecap="round" stroke-linejoin="round" stroke-miterlimit="10" width="27.3" height="5.3"/>
		<g>
			
				<line fill="none" stroke="#000000" stroke-width="2" stroke-linecap="round" stroke-linejoin="round" stroke-miterlimit="10" x1="21" y1="40.5" x2="18.6" y2="43"/>
		</g>
		
			<line fill="none" stroke="#000000" stroke-width="2" stroke-linecap="round" stroke-linejoin="round" stroke-miterlimit="10" x1="41.6" y1="36.3" x2="42.2" y2="36.8"/>
		
			<line fill="none" stroke="#000000" stroke-width="2" stroke-linecap="round" stroke-linejoin="round" stroke-miterlimit="10" x1="24.8" y1="19.5" x2="32.4" y2="27.1"/>
	</g>
</g>
</svg>
