<?xml version="1.0" encoding="utf-8"?>
<!-- Generator: Adobe Illustrator 21.1.0, SVG Export Plug-In . SVG Version: 6.00 Build 0)  -->
<svg version="1.1" id="emoji" xmlns="http://www.w3.org/2000/svg" xmlns:xlink="http://www.w3.org/1999/xlink" x="0px" y="0px"
	 viewBox="0 0 72 72" enable-background="new 0 0 72 72" xml:space="preserve">
<g id="_xD83C__xDF9A__xFE0F_">
	<path fill="#D0CECE" d="M51.9,5.9H20c-1.1,0-2,0.9-2,2v56.1c0,1.1,0.9,2,2,2h31.9c1.1,0,2-0.9,2-2V7.9C53.9,6.8,53,5.9,51.9,5.9z"
		/>
	<path fill="#3E4040" d="M29.1,23.5v9.7h13.8v-9.7H29.1z"/>
	<path fill="#9A9B99" d="M39.1,14c0-1.1-2.2-3-3.3-3c0,0-2.7,0.6-2.7,1.7c0,0-0.3,10.8-0.3,10.8l6.6,0C39.4,23.5,39.1,14,39.1,14z"
		/>
	<path fill="#9A9B99" d="M32.7,33.4V58c0,1.1,1,3,3,3s3.3-1.9,3.3-3V33.4H32.7z"/>
	<path fill="none" stroke="#000000" stroke-width="2" stroke-linecap="round" stroke-linejoin="round" stroke-miterlimit="10" d="
		M32.7,23.1V14c0-1.7,1.3-3,3-3h0.3c1.7,0,3,1.3,3,3v9.1"/>
	<path fill="none" stroke="#000000" stroke-width="2" stroke-linecap="round" stroke-linejoin="round" stroke-miterlimit="10" d="
		M39.1,33.4V58c0,1.7-1.3,3-3,3h-0.3c-1.7,0-3-1.3-3-3V33.4"/>
	
		<rect x="29.1" y="23.4" fill="none" stroke="#000000" stroke-width="2" stroke-linecap="round" stroke-linejoin="round" stroke-miterlimit="10" width="13.8" height="9.7"/>
	
		<line fill="none" stroke="#000000" stroke-width="2" stroke-linecap="round" stroke-linejoin="round" stroke-miterlimit="10" x1="33" y1="28.3" x2="38.9" y2="28.3"/>
	<g>
		<path fill="none" stroke="#000000" stroke-width="2" stroke-linecap="round" stroke-linejoin="round" stroke-miterlimit="10" d="
			M51.9,67.1H20c-1.7,0-3-1.3-3-3V7.9c0-1.7,1.3-3,3-3h31.9c1.7,0,3,1.3,3,3v56.1C54.9,65.7,53.5,67.1,51.9,67.1z"/>
		<g>
			<g>
				
					<line fill="none" stroke="#000000" stroke-width="2" stroke-linecap="round" stroke-linejoin="round" stroke-miterlimit="10" x1="47.9" y1="18.3" x2="50.6" y2="18.3"/>
				
					<line fill="none" stroke="#000000" stroke-width="2" stroke-linecap="round" stroke-linejoin="round" stroke-miterlimit="10" x1="47.9" y1="12.6" x2="50.6" y2="12.6"/>
				
					<line fill="none" stroke="#000000" stroke-width="2" stroke-linecap="round" stroke-linejoin="round" stroke-miterlimit="10" x1="47.9" y1="23.5" x2="50.6" y2="23.5"/>
				
					<line fill="none" stroke="#000000" stroke-width="2" stroke-linecap="round" stroke-linejoin="round" stroke-miterlimit="10" x1="47.9" y1="28.2" x2="50.6" y2="28.2"/>
				
					<line fill="none" stroke="#000000" stroke-width="2" stroke-linecap="round" stroke-linejoin="round" stroke-miterlimit="10" x1="47.9" y1="33.4" x2="50.6" y2="33.4"/>
			</g>
			<g>
				
					<line fill="none" stroke="#000000" stroke-width="2" stroke-linecap="round" stroke-linejoin="round" stroke-miterlimit="10" x1="47.9" y1="39" x2="50.6" y2="39"/>
				
					<line fill="none" stroke="#000000" stroke-width="2" stroke-linecap="round" stroke-linejoin="round" stroke-miterlimit="10" x1="47.9" y1="44.2" x2="50.6" y2="44.2"/>
				
					<line fill="none" stroke="#000000" stroke-width="2" stroke-linecap="round" stroke-linejoin="round" stroke-miterlimit="10" x1="47.9" y1="49" x2="50.6" y2="49"/>
				
					<line fill="none" stroke="#000000" stroke-width="2" stroke-linecap="round" stroke-linejoin="round" stroke-miterlimit="10" x1="47.9" y1="54.2" x2="50.6" y2="54.2"/>
				
					<line fill="none" stroke="#000000" stroke-width="2" stroke-linecap="round" stroke-linejoin="round" stroke-miterlimit="10" x1="47.9" y1="58.9" x2="50.6" y2="58.9"/>
			</g>
		</g>
		<g>
			<g>
				
					<line fill="none" stroke="#000000" stroke-width="2" stroke-linecap="round" stroke-linejoin="round" stroke-miterlimit="10" x1="21.3" y1="18.3" x2="23.9" y2="18.3"/>
				
					<line fill="none" stroke="#000000" stroke-width="2" stroke-linecap="round" stroke-linejoin="round" stroke-miterlimit="10" x1="21.3" y1="12.6" x2="23.9" y2="12.6"/>
				
					<line fill="none" stroke="#000000" stroke-width="2" stroke-linecap="round" stroke-linejoin="round" stroke-miterlimit="10" x1="21.3" y1="23.5" x2="23.9" y2="23.5"/>
				
					<line fill="none" stroke="#000000" stroke-width="2" stroke-linecap="round" stroke-linejoin="round" stroke-miterlimit="10" x1="21.3" y1="28.2" x2="23.9" y2="28.2"/>
				
					<line fill="none" stroke="#000000" stroke-width="2" stroke-linecap="round" stroke-linejoin="round" stroke-miterlimit="10" x1="21.3" y1="33.4" x2="23.9" y2="33.4"/>
			</g>
			<g>
				
					<line fill="none" stroke="#000000" stroke-width="2" stroke-linecap="round" stroke-linejoin="round" stroke-miterlimit="10" x1="21.3" y1="39" x2="23.9" y2="39"/>
				
					<line fill="none" stroke="#000000" stroke-width="2" stroke-linecap="round" stroke-linejoin="round" stroke-miterlimit="10" x1="21.3" y1="44.2" x2="23.9" y2="44.2"/>
				
					<line fill="none" stroke="#000000" stroke-width="2" stroke-linecap="round" stroke-linejoin="round" stroke-miterlimit="10" x1="21.3" y1="49" x2="23.9" y2="49"/>
				
					<line fill="none" stroke="#000000" stroke-width="2" stroke-linecap="round" stroke-linejoin="round" stroke-miterlimit="10" x1="21.3" y1="54.2" x2="23.9" y2="54.2"/>
				
					<line fill="none" stroke="#000000" stroke-width="2" stroke-linecap="round" stroke-linejoin="round" stroke-miterlimit="10" x1="21.3" y1="58.9" x2="23.9" y2="58.9"/>
			</g>
		</g>
	</g>
</g>
</svg>
