<?xml version="1.0" encoding="utf-8"?>
<!-- Generator: Adobe Illustrator 21.1.0, SVG Export Plug-In . SVG Version: 6.00 Build 0)  -->
<svg version="1.1" id="emoji" xmlns="http://www.w3.org/2000/svg" xmlns:xlink="http://www.w3.org/1999/xlink" x="0px" y="0px"
	 viewBox="0 0 72 72" enable-background="new 0 0 72 72" xml:space="preserve">
<g id="_xD83C__xDFA4_">
	<g>
		<path fill="#3E4040" d="M37.1,25.7C37,25.8,37,25.9,36.8,26C37,25.9,37,25.8,37.1,25.7z"/>
		<path fill="#3E4040" d="M36.2,26.2c-0.1,0-0.2,0-0.3,0C36.1,26.2,36.1,26.2,36.2,26.2z"/>
		<path fill="#3E4040" d="M43,32.3C43,32.3,43,32.3,43,32.3L43,32.3C43,32.3,43,32.3,43,32.3z"/>
		<path fill="#3E4040" d="M36.7,26.1c0,0,0.1,0,0.1-0.1C36.8,26,36.8,26.1,36.7,26.1z"/>
		<path fill="#3E4040" d="M35.8,26.1C35.8,26.1,35.8,26.1,35.8,26.1C35.8,26.1,35.8,26.1,35.8,26.1C35.8,26.1,35.8,26.1,35.8,26.1z"
			/>
		<path fill="#3E4040" d="M39.4,29.5c-2.6-2.2-2.6-3.5-2.6-3.5c-0.1-0.1-1.8-1.7-1.8-2.2c0,0,0-0.1,0-0.1L32.5,27
			c0.3-0.4-6.3,10.4-6.3,10.4L14.4,53.7l3.4,3.4c0,0,24.4-21.3,24.1-20.9l3.4-3.4C45.1,32.8,42,31.7,39.4,29.5z"/>
		<path fill="#3E4040" d="M43.1,31.2c0,0,0.1-0.1,0.1-0.1l0,0C43.2,31.1,43.2,31.1,43.1,31.2z"/>
		<path fill="#3E4040" d="M43.4,32.7C43.4,32.7,43.4,32.7,43.4,32.7c-0.1,0-0.1-0.1-0.2-0.1C43.3,32.6,43.4,32.7,43.4,32.7z"/>
	</g>
	<path fill="#9A9B99" d="M36,18.9C36,18.9,36,19,36,18.9L36,18.9c0.1-0.2,0.3,5.3,0.3,5.3s-0.7,1.7-0.8,1.6c0,0,0,0,0,0
		c0,0,0.6,2,3.3,4.2c2.6,2.2,4.7,2.7,4.7,2.7l0,0c0,0,0,0,0,0c-0.1,0,0.6-1.1,1.1-1.1c1.3,0.1,4.4-0.9,5.3-1.7l2.8-0.6L37.2,16.6
		C36.8,17.3,36,18.9,36,18.9z"/>
	<g>
		<path fill="#3E4040" d="M46.7,30.5c0.4-0.1-1,1.1-0.2,1.3c0.9,0.1,3.9-0.8,3.9-0.7c0,0,0,0,0,0c0.5-0.2,1.7-1.1,2.1-1.4L50.1,28
			C49.2,28.8,47.7,30,46.7,30.5z"/>
	</g>
	<g>
		<path fill="#D0CECE" d="M37.9,14.2C37.9,14.2,37.9,14.2,37.9,14.2c-0.1-0.1-0.1-0.1-0.2-0.1C37.8,14.1,37.8,14.1,37.9,14.2z"/>
		<path fill="#D0CECE" d="M54.9,29.4c0-0.1,0-0.1,0-0.2C54.8,29.3,54.9,29.4,54.9,29.4z"/>
		<path fill="#D0CECE" d="M54.6,28.9c0,0.1,0.1,0.1,0.1,0.2C54.7,29,54.7,29,54.6,28.9z"/>
		<path fill="#D0CECE" d="M37.4,14c0.1,0,0.1,0,0.2,0C37.5,14,37.4,14,37.4,14z"/>
		<path fill="#D0CECE" d="M36.6,14.2c0.1,0,0.1-0.1,0.2-0.1C36.7,14.1,36.7,14.1,36.6,14.2z"/>
		<path fill="#D0CECE" d="M54.8,29.8c0-0.1,0-0.1,0-0.2C54.8,29.7,54.8,29.8,54.8,29.8z"/>
		<path fill="#D0CECE" d="M54.6,30.2c-0.2,0.2-0.5,0.3-0.8,0.3c-0.2,0-0.5-0.1-0.7-0.2L36.6,15.7c-0.4-0.4-0.5-1-0.1-1.4
			c0,0,0,0,0,0l-0.7,0.8c-0.3,0.4-0.3,1,0.1,1.4l16.6,14.6c0.2,0.2,0.4,0.2,0.7,0.2c0,0,0.1,0,0.1,0c0.3,0,0.5-0.2,0.7-0.4
			L54.6,30.2c0.1-0.1,0.1-0.1,0.1-0.2C54.7,30.1,54.7,30.1,54.6,30.2z"/>
		<path fill="#D0CECE" d="M37.2,13.9C37.1,14,37,14,37,14C37,14,37.1,14,37.2,13.9z"/>
	</g>
	<g>
		<path fill="#9A9B99" d="M53.6,24.7C53.6,24.7,53.6,24.7,53.6,24.7C53.7,24.7,53.6,24.7,53.6,24.7z"/>
		<path fill="#9A9B99" d="M54.9,15.8c-0.3-0.5-3.2-3.4-3.2-3.4c0,0-6.1-0.5-6.1-0.5c-0.3,0.1-5,1.2-4.8,0.9c0,0,0,0,0,0c0,0,0,0,0,0
			c0,0,0,0,0,0c-0.2,0.1-2.2,1.7-2.2,2l-0.3,0.9l14.4,12.1C54.8,24.7,55.7,19.1,54.9,15.8z"/>
	</g>
	<path fill="#3E4040" d="M54.6,16.1c0,0-0.4-0.6-0.6-0.8c0,0-0.5,0.4-0.5,0.4c0.9,3.3,0.3,7.2-1.9,10.4l-0.6,1l2.9,1
		c0.1-0.1,0.9-1.4,1.2-2c0.1-0.1,0.1-0.2,0.2-0.4C55.1,26.1,55.8,18.6,54.6,16.1z"/>
	<g>
		
			<line fill="none" stroke="#000000" stroke-width="2" stroke-linecap="round" stroke-linejoin="round" stroke-miterlimit="10" x1="30.7" y1="38.9" x2="34.8" y2="34.3"/>
		<g>
			<path fill="none" stroke="#000000" stroke-width="2" stroke-linecap="round" stroke-linejoin="round" stroke-miterlimit="10" d="
				M49.5,30.4c-1.8,1-3.8,1.5-5.6,1.4"/>
			<path fill="none" stroke="#000000" stroke-width="2" stroke-linecap="round" stroke-linejoin="round" stroke-miterlimit="10" d="
				M41.5,13.7c3.7-2.5,8.4-2.6,11.5,0.1c3.1,2.7,3.6,7.5,1.5,11.5"/>
			<path fill="none" stroke="#000000" stroke-width="2" stroke-linecap="round" stroke-linejoin="round" stroke-miterlimit="10" d="
				M36.2,25.2c-0.4-1.8-0.2-3.9,0.6-5.8"/>
			
				<polyline fill="none" stroke="#000000" stroke-width="2" stroke-linecap="round" stroke-linejoin="round" stroke-miterlimit="10" points="
				33.3,27.6 14.4,53.7 17.8,57.1 41.1,35.5 			"/>
			
				<line fill="none" stroke="#000000" stroke-width="2" stroke-linecap="round" stroke-linejoin="round" stroke-miterlimit="10" x1="15.5" y1="56" x2="12.5" y2="59.1"/>
			
				<line fill="none" stroke="#000000" stroke-width="2" stroke-linecap="round" stroke-linejoin="round" stroke-miterlimit="10" x1="53.9" y1="29.5" x2="37.2" y2="14.9"/>
		</g>
	</g>
</g>
</svg>
