<?xml version="1.0" encoding="utf-8"?>
<!-- Generator: Adobe Illustrator 21.1.0, SVG Export Plug-In . SVG Version: 6.00 Build 0)  -->
<svg version="1.1" id="emoji" xmlns="http://www.w3.org/2000/svg" xmlns:xlink="http://www.w3.org/1999/xlink" x="0px" y="0px"
	 viewBox="0 0 72 72" enable-background="new 0 0 72 72" xml:space="preserve">
<g id="_xD83C__xDFA5_">
	<circle fill="#CFCECD" cx="22.3" cy="26.1" r="3"/>
	<circle fill="#CFCECD" cx="46.2" cy="26.1" r="3"/>
	<g>
		<path fill="#3F3F3F" d="M46.2,16.1c-5.5,0-10,4.5-10,10c0,5.5,4.5,10,10,10s10-4.5,10-10C56.2,20.6,51.7,16.1,46.2,16.1z
			 M46.2,29.1c-1.7,0-3-1.3-3-3c0-1.7,1.3-3,3-3c1.7,0,3,1.3,3,3C49.2,27.8,47.8,29.1,46.2,29.1z"/>
	</g>
	<g>
		<path fill="#3F3F3F" d="M22.3,16.1c-5.5,0-10,4.5-10,10c0,5.5,4.5,10,10,10s10-4.5,10-10C32.3,20.6,27.8,16.1,22.3,16.1z
			 M22.3,29.1c-1.7,0-3-1.3-3-3c0-1.7,1.3-3,3-3c1.7,0,3,1.3,3,3C25.3,27.8,23.9,29.1,22.3,29.1z"/>
	</g>
	<path fill="#3F3F3F" d="M20.4,44.2l7,0.8c0.4-0.1,2.8-0.4,2.8-0.4s2.8,1.8,3.2,4.6c0.4,2.8-4.6,3.8-4.9,3.8c-2.5,0-3.6-4.6-3.6-4.6
		l-4.5-0.7v4l1,3.4c0,0.4,1.4,1.8,1.9,1.8h24.8V40H20.4V44.2z"/>
	<g>
		<polygon fill="#9A9A99" points="51.7,42.8 51.7,42.8 51.9,42.8 		"/>
		<path fill="#9A9A99" d="M61.2,55l-0.2-13.6c0,0-9.3,1.5-9.2,1.5c0,0,0,0,0,0l-3.4,1V53l3.6,1l-0.1,0C51.7,54,61.2,55,61.2,55z"/>
	</g>
	<path fill="#CFCECD" d="M24.2,48.5c0.1,0,2.6,3.5,2.7,3.6c0.1,0.1,3.4,1,3.6,1c0.2,0,2.3-2,2.4-2.1c0,0,1.2-1.8,0.8-3.2
		c-0.2-1-2-1.9-2.1-1.9c-0.2-0.1-3.7-0.7-3.7-0.7c0,0-15.5-2.6-15.7-2.6l-4.4-3.5l-1.3,8l4.7-0.7C11.4,46.2,24.2,48.5,24.2,48.5z"/>
	<g>
		<path fill="none" stroke="#000000" stroke-width="2" stroke-linecap="round" stroke-linejoin="round" stroke-miterlimit="10" d="
			M21.4,40h26.7v16.9H23.3c-1,0-1.9-0.8-1.9-1.8V52"/>
		<path fill="none" stroke="#000000" stroke-width="2" stroke-linecap="round" stroke-linejoin="round" stroke-miterlimit="10" d="
			M7.9,39.4L6.8,47l5-0.8l13.6,2.5c0,0.3,0,0.6,0,0.8c0.3,2.2,2.4,3.8,4.6,3.5c2.2-0.3,3.8-2.4,3.5-4.6c-0.3-2.2-2.4-3.8-4.6-3.5
			c-0.4,0.1-0.8,0.2-1.2,0.3l-15.3-2.8L7.9,39.4z"/>
		
			<circle fill="none" stroke="#000000" stroke-width="2" stroke-linecap="round" stroke-linejoin="round" stroke-miterlimit="10" cx="46.2" cy="26.1" r="10"/>
		
			<circle fill="none" stroke="#000000" stroke-width="2" stroke-linecap="round" stroke-linejoin="round" stroke-miterlimit="10" cx="46.2" cy="26.1" r="3"/>
		
			<circle fill="none" stroke="#000000" stroke-width="2" stroke-linecap="round" stroke-linejoin="round" stroke-miterlimit="10" cx="22.3" cy="26.1" r="10"/>
		
			<circle fill="none" stroke="#000000" stroke-width="2" stroke-linecap="round" stroke-linejoin="round" stroke-miterlimit="10" cx="22.3" cy="26.1" r="3"/>
		
			<polyline fill="none" stroke="#000000" stroke-width="2" stroke-linecap="round" stroke-linejoin="round" stroke-miterlimit="10" points="
			52.1,53.1 60.9,55.2 60.9,41.4 52.1,43.8 		"/>
	</g>
</g>
</svg>
