<?xml version="1.0" encoding="utf-8"?>
<!-- Generator: Adobe Illustrator 21.1.0, SVG Export Plug-In . SVG Version: 6.00 Build 0)  -->
<svg version="1.1" id="emoji" xmlns="http://www.w3.org/2000/svg" xmlns:xlink="http://www.w3.org/1999/xlink" x="0px" y="0px"
	 viewBox="0 0 72 72" enable-background="new 0 0 72 72" xml:space="preserve">
<g id="_xD83C__xDFA8__1_">
	
		<path fill="#A57939" stroke="#000000" stroke-width="2" stroke-linecap="round" stroke-linejoin="round" stroke-miterlimit="10" d="
		M15,29c0,0.1-0.6,1-1,2c-1.7,4.4,0.7,9.5,1,10c2.2,4.5,6.1,6.5,9,8c1.1,0.5,6.4,3.2,14,3c1.5,0,7.6-0.3,14-4c2.7-1.6,5.9-3.5,7-7
		c0.2-0.6,0.8-2.7,0-5c-0.3-0.7-0.7-2.1-2-3c-1.6-1.1-3.6-1-4-1c-0.8,0-1.2,0.2-2,0c-0.6-0.1-1.5-0.3-2-1c-0.4-0.6-0.1-1.1,0-3
		c0.1-1.5,0.2-2.3,0-3c-0.4-1.6-1.5-2.6-2-3c-1-0.9-2.4-1.6-5-2c-1.8-0.3-4.8-0.6-9,0c-2.1,0.3-4.9,0.9-8,2c-1.7,0.7-3.7,1.4-6,3
		C16.5,26.8,15.4,28.3,15,29z"/>
	
		<circle fill="#D22F27" stroke="#000000" stroke-width="2" stroke-linecap="round" stroke-linejoin="round" stroke-miterlimit="10" cx="20" cy="33" r="3"/>
	
		<circle fill="#5C9E31" stroke="#000000" stroke-width="2" stroke-linecap="round" stroke-linejoin="round" stroke-miterlimit="10" cx="25" cy="42" r="3"/>
	
		<circle fill="#FCEA2B" stroke="#000000" stroke-width="2" stroke-linecap="round" stroke-linejoin="round" stroke-miterlimit="10" cx="35" cy="45" r="3"/>
	
		<circle fill="#E27022" stroke="#000000" stroke-width="2" stroke-linecap="round" stroke-linejoin="round" stroke-miterlimit="10" cx="45" cy="44" r="3"/>
	
		<circle fill="#8967AA" stroke="#000000" stroke-width="2" stroke-linecap="round" stroke-linejoin="round" stroke-miterlimit="10" cx="53" cy="39" r="3"/>
	
		<path fill="#FFFFFF" stroke="#000000" stroke-width="2" stroke-linecap="round" stroke-linejoin="round" stroke-miterlimit="10" d="
		M43,25c-0.2-0.1-0.5-0.1-2,0c-2.8,0.3-3.7,0.8-4,1c-0.7,0.5-0.9,0.8-1,1c-0.3,0.6-0.4,1.4,0,2c0.4,0.7,1.3,0.8,3,1
		c1.2,0.2,2,0.3,3,0c0.6-0.1,1.3-0.3,2-1c0.3-0.3,1.1-1,1-2C44.9,25.9,43.7,25.2,43,25z"/>
</g>
</svg>
