<?xml version="1.0" encoding="utf-8"?>
<!-- Generator: Adobe Illustrator 21.1.0, SVG Export Plug-In . SVG Version: 6.00 Build 0)  -->
<svg version="1.1" id="emoji" xmlns="http://www.w3.org/2000/svg" xmlns:xlink="http://www.w3.org/1999/xlink" x="0px" y="0px"
	 viewBox="0 0 72 72" enable-background="new 0 0 72 72" xml:space="preserve">
<g id="_xD83C__xDFA7__xFE0F_">
	<path fill="#9B9B9A" d="M27.4,62.5L27,39.6c-1.7,1.1-6.1,5.6-6.6,11.8C20,58,25.5,61.6,27.4,62.5z"/>
	<path fill="#9B9B9A" d="M44.7,39.5l-0.2,22.9c1-0.5,3-0.8,4.6-2.9c1.5-1.9,2.7-5.4,2.5-8.5c-0.2-2.7-0.8-5.4-2.1-7.3
		C48,41.4,45.7,40.1,44.7,39.5z"/>
	<path fill="#D0CFCE" d="M44.6,61.6l0.2-21.5c0-0.3-0.4-1.5-0.3-1.5v0l-3.8,1.1c0,0,0,0,0,0c0.4-0.1-0.5,1.4-0.9,1.7
		c-0.6,0.4-0.3,1.1-0.3,1.8l-0.2,15.5c0,0.6,1.7,3.8,1.6,3.8c0,0,0,0,0,0l3.6,1v0C44.3,63.4,44.6,61.9,44.6,61.6z"/>
	<path fill="#D0CFCE" d="M31.5,60.7c0.7-0.3,1.1-2.1,1.1-2.9l-0.1-14.9c0-0.2-0.2-1.1-0.2-1.3c-0.1-0.3-1.3-2-0.9-1.9c0,0,0,0,0-0.1
		l-3.6-1l0,0c0.1,0-0.6,1.8-0.6,2.1l0.1,20.6c0,0.3,0.7,2.1,0.6,2.1l3.4-0.9c0,0,0,0,0,0C31.2,62.5,31,60.9,31.5,60.7z"/>
	<path fill="#D0CFCE" d="M60.8,48.3c1.4-3.2,2.2-15.1,2.2-15.1c0-9.2-7.4-17.6-7.4-17.6s-2.1-2.9-5.8-4.8c-5-2.5-12.1-4.1-12.1-4.1
		c-8.9,0-19.1,4.9-24.3,12.5c-1.6,2.3-3,8.8-3.9,10.8c-1,2.5,0,11.1,0,11.1c0.1,0.5,0.8,4.1,0.9,4.5c0.1,0.4,3.1,7.3,3.5,7.8
		c0.2,0.4,1.2,0.7,1,1l0,0c0,0,1.5-2,0-4.4c-1.5-2.5-3.2-8.9-3.2-14.4C11.6,20.9,22.1,9.8,36,9.8c13.9,0,24.4,11.1,24.4,25.9
		c0,5.5-2,13-3.3,15.1c-1.2,2.1,0,3.6,0,3.6l0,0C57,54,59.4,51.5,60.8,48.3z"/>
	<g>
		<path fill="none" stroke="#000000" stroke-width="2" stroke-linecap="round" stroke-linejoin="round" stroke-miterlimit="10" d="
			M31.2,40.6c1,0.5,1.6,1.5,1.6,2.7l0,15.5c0,1.2-0.7,2.3-1.8,2.7"/>
		<path fill="none" stroke="#000000" stroke-width="2" stroke-linecap="round" stroke-linejoin="round" stroke-miterlimit="10" d="
			M27.5,39.6c0,0-6.4,1.8-7.1,11.5s7,11.4,7,11.4L27.5,39.6z"/>
		<path fill="none" stroke="#000000" stroke-width="2" stroke-linecap="round" stroke-linejoin="round" stroke-miterlimit="10" d="
			M40.9,40.6c-0.9,0.5-1.4,1.5-1.4,2.5l-0.2,15.5c0,1.2,0.7,2.3,1.8,2.8"/>
		<path fill="none" stroke="#000000" stroke-width="2" stroke-linecap="round" stroke-linejoin="round" stroke-miterlimit="10" d="
			M44.7,39.5c0,0,6.3,1.9,6.9,11.6c0.6,9.7-7.1,11.3-7.1,11.3L44.7,39.5z"/>
		<path fill="none" stroke="#000000" stroke-width="2" stroke-linecap="round" stroke-linejoin="round" stroke-miterlimit="10" d="
			M58,53.8c3.2-5.1,5.1-11.2,5.1-18.2C63.1,19.9,51.8,7.1,36,7.1v0c0,0,0,0,0,0c0,0,0,0,0,0v0C20.2,7.1,8.9,19.9,8.9,35.6
			c0,7,1.9,13.1,5.1,18.2"/>
	</g>
	<path fill="none" stroke="#000000" stroke-width="2" stroke-linecap="round" stroke-linejoin="round" stroke-miterlimit="10" d="
		M50.2,20.2c-3.1-4.4-8.2-7.3-14.2-7.3v0c0,0,0,0,0,0c0,0,0,0,0,0v0c-6,0-11,2.9-14.1,7.3"/>
</g>
</svg>
