<svg id="emoji" viewBox="0 0 72 72" xmlns="http://www.w3.org/2000/svg">
  <g id="color">
    <path fill="#9b9b9a" d="m27.4471,62.5368l.0831-22.9125c-3.694,1.0745-6.6166,5.5623-7.0765,11.8191-.4795,6.5166,3.4325,10.1089,6.9934,11.0934Z"/>
    <path fill="#9b9b9a" d="m44.716,39.5293l-.1605,22.9123c1.0262-.3686,2.7729-.836,4.6035-2.8555,1.9968-1.9624,2.6903-5.3707,2.496-8.4901-.1696-2.7185-.8216-5.4282-2.0577-7.2953-2.1322-3.3831-3.875-3.8615-4.8813-4.2714Z"/>
    <path fill="#d0cfce" d="m44.5856,39.4457l-3.731,1.1935-1.4506,4.4484-.1561,13.3758,1.7824,2.9884,3.5465.9244.0089-22.9305Z"/>
    <path fill="#d0cfce" d="m32.3654,57.7281l.1657-13.8114-1.363-3.2763c-.2773-.1438-3.3624-.964-3.3624-.964-.1306.2061-.0631,22.8996-.0631,22.8996l3.2686-.9966s1.4414-2.482,1.3543-3.8512Z"/>
    <path fill="#d0cfce" d="m60.8332,48.2998c6.9712-16.9327-3.0828-30.1484-5.233-32.7421-1.0391-1.2534-9.822-8.6596-20.1521-8.4332-8.9475.1961-18.9149,7.4647-22.0958,12.3547-5.9344,9.6375-3.952,21.602-3.9419,21.6668,1.6967,9.7432,4.5704,12.5976,4.5704,12.5976,0,0,1.6571-1.4108.2463-4.2996-.9774-1.5277-2.6421-8.3268-2.6421-13.8249,0-14.7353,10.5029-25.8535,24.4296-25.8623,13.9288.0088,24.4307,11.127,24.4307,25.8623,0,5.4991-1.3411,11.4973-2.5739,13.559-1.6166,3.0832.2,4.6165.2,4.6165.2129-.2619.9494-2.5189,2.7618-5.4948h0Z"/>
  </g>
  <g id="line">
    <path fill="none" stroke="#000" stroke-linecap="round" stroke-linejoin="round" stroke-width="2" d="m31.1611,40.6344c.9756.5038,1.643,1.5194,1.643,2.6874l-.0002,15.5047c-.0651,1.2243.0944,1.6453-1.8007,2.7478"/>
    <path fill="none" stroke="#000" stroke-linecap="round" stroke-linejoin="round" stroke-width="2" d="m27.5419,39.6241s-6.354,1.7853-7.0674,11.4887,6.9726,11.424,6.9726,11.424c0,0,.0948-22.9127.0948-22.9127Z"/>
    <path fill="none" stroke="#000" stroke-linecap="round" stroke-linejoin="round" stroke-width="2" d="m40.8586,40.6258c-.8573.5269-1.4336,1.4669-1.4456,2.5423l-.1726,15.5037c-.0139,1.2475.7356,2.3231,1.8156,2.7878"/>
    <path fill="none" stroke="#000" stroke-linecap="round" stroke-linejoin="round" stroke-width="2" d="m44.716,39.5293s6.3337,1.8559,6.939,11.5667c.6052,9.7107-7.0995,11.3456-7.0995,11.3456l.1605-22.9123Z"/>
    <path fill="none" stroke="#000" stroke-linecap="round" stroke-linejoin="round" stroke-width="2" d="m58.0474,53.8081c3.209-5.0583,5.0887-11.1701,5.0887-18.1887,0-15.7593-11.3519-28.5359-27.1053-28.5525v-.0007c-.0053,0-.0102.0002-.0154.0002-.0051,0-.0102-.0002-.0153-.0002v.0007c-15.7534.0166-27.1053,12.7932-27.1053,28.5525,0,7.0186,1.8794,13.1304,5.0884,18.1887"/>
    <path fill="none" stroke="#000" stroke-linecap="round" stroke-linejoin="round" stroke-width="2" d="m50.2136,20.1939c-3.1322-4.4436-8.1665-7.3121-14.1882-7.3184v-.0005c-.0034,0-.0066.0001-.01.0001-.0033,0-.0066-.0001-.0099-.0001v.0005c-5.9961.0063-11.0132,2.8504-14.1482,7.2618"/>
  </g>
</svg>
