<?xml version="1.0" encoding="utf-8"?>
<!-- Generator: Adobe Illustrator 19.1.0, SVG Export Plug-In . SVG Version: 6.00 Build 0)  -->
<svg version="1.1" id="emoji" xmlns="http://www.w3.org/2000/svg" xmlns:xlink="http://www.w3.org/1999/xlink" x="0px" y="0px"
	 viewBox="0 0 72 72" enable-background="new 0 0 72 72" xml:space="preserve">
<g id="_xD83C__xDFAC__xFE0F_">
	<path fill="none" stroke="#000000" stroke-width="2" stroke-linecap="round" stroke-linejoin="round" stroke-miterlimit="10" d="
		M55.5,37.4"/>
	<path fill="none" stroke="#000000" stroke-width="2" stroke-linecap="round" stroke-linejoin="round" stroke-miterlimit="10" d="
		M16.6,37.4"/>
	<circle fill="#FFFFFF" cx="15.8" cy="31" r="1.5"/>
	<path fill="#3F3F3F" d="M17.6,38.4V55c0,1.1,0.9,2,2,2h32.9c1.1,0,2-0.9,2-2V38.4H17.6z"/>
	<path fill="none" stroke="#000000" stroke-width="2" stroke-linecap="round" stroke-linejoin="round" stroke-miterlimit="10" d="
		M55.5,37.4"/>
	<path fill="none" stroke="#000000" stroke-width="2" stroke-linecap="round" stroke-linejoin="round" stroke-miterlimit="10" d="
		M16.6,37.4"/>
	<polygon fill="#3F3F3F" points="42.7,13.3 47.9,16 49.8,15.3 44.5,12.6 	"/>
	<polygon fill="#3F3F3F" points="38.3,19.7 33.1,17 31.2,17.7 36.4,20.4 	"/>
	<polygon fill="#3F3F3F" points="22,21.2 20.2,21.9 25.4,24.6 26.1,24.4 27.3,23.9 	"/>
	<polygon fill="#3F3F3F" points="27.9,32 25.9,32 21.9,36.4 23.9,36.4 	"/>
	<polygon fill="#3F3F3F" points="39.9,32 37.9,32 33.9,36.4 35.9,36.4 	"/>
	<polygon fill="#3F3F3F" points="45.9,36.4 47.9,36.4 51.9,32 49.9,32 	"/>
	<g>
		<polygon fill="#FFFFFF" points="43.3,36.4 47.2,32 42.6,32 38.6,36.4 		"/>
		<polygon fill="#FFFFFF" points="50.6,36.4 54.5,36.4 54.5,32 		"/>
		<circle fill="#3F3F3F" cx="15.8" cy="31" r="1.5"/>
		<path fill="#FFFFFF" d="M17.6,34v2.4h1.7l3.9-4.4h-4.1C18.9,32.8,18.3,33.5,17.6,34z"/>
		<polygon fill="#FFFFFF" points="31.3,36.4 35.2,32 30.6,32 26.6,36.4 		"/>
		<polygon fill="#FFFFFF" points="47,11.6 48.7,12.5 48.2,11.1 		"/>
		<polygon fill="#FFFFFF" points="40.1,14.2 35.5,16 40.8,18.7 45.4,16.9 		"/>
		<polygon fill="#FFFFFF" points="28.7,18.6 24.5,20.2 29.7,23 33.9,21.3 		"/>
		<path fill="#FFFFFF" d="M17.7,22.8l-3.9,1.5l1.2,3.2c0.3-0.1,0.5-0.1,0.8-0.1c0.5,0,1,0.1,1.5,0.3c0,0,0.1-0.1,0.1-0.1l5.5-2.1
			L17.7,22.8z"/>
	</g>
	<g>
		
			<polyline fill="none" stroke="#000000" stroke-width="2" stroke-linecap="round" stroke-linejoin="round" stroke-miterlimit="10" points="
			17.7,28.6 51.1,15.8 48.8,9.8 12.5,23.8 14.2,28.3 		"/>
		<path fill="none" stroke="#000000" stroke-width="2" stroke-linecap="round" stroke-linejoin="round" stroke-miterlimit="10" d="
			M55.5,37.4"/>
		<path fill="none" stroke="#000000" stroke-width="2" stroke-linecap="round" stroke-linejoin="round" stroke-miterlimit="10" d="
			M16.6,37.4"/>
		<path fill="none" stroke="#000000" stroke-width="2" stroke-linecap="round" stroke-linejoin="round" stroke-miterlimit="10" d="
			M16.6,37.4v1.7V55c0,1.7,1.3,3,3,3h32.9c1.7,0,3-1.3,3-3V39.1v-1.7L16.6,37.4z"/>
		
			<polyline fill="none" stroke="#000000" stroke-width="2" stroke-linecap="round" stroke-linejoin="round" stroke-miterlimit="10" points="
			18.9,31 55.5,31 55.5,37.4 		"/>
		
			<line fill="none" stroke="#000000" stroke-width="2" stroke-linecap="round" stroke-linejoin="round" stroke-miterlimit="10" x1="16.6" y1="37" x2="16.6" y2="34"/>
		
			<polygon fill="none" stroke="#000000" stroke-width="2" stroke-linecap="round" stroke-linejoin="round" stroke-miterlimit="10" points="
			19.7,37.4 24.4,37.4 30.1,31 25.4,31 		"/>
		
			<polygon fill="none" stroke="#000000" stroke-width="2" stroke-linecap="round" stroke-linejoin="round" stroke-miterlimit="10" points="
			31.7,37.4 36.4,37.4 42.1,31 37.4,31 		"/>
		
			<polygon fill="none" stroke="#000000" stroke-width="2" stroke-linecap="round" stroke-linejoin="round" stroke-miterlimit="10" points="
			43.7,37.4 48.4,37.4 54.1,31 49.4,31 		"/>
		
			<circle fill="none" stroke="#000000" stroke-width="2" stroke-linecap="round" stroke-linejoin="round" stroke-miterlimit="10" cx="15.8" cy="31" r="2.5"/>
		
			<polyline fill="none" stroke="#000000" stroke-width="2" stroke-linecap="round" stroke-linejoin="round" stroke-miterlimit="10" points="
			47.9,17.1 40.2,13.1 44.6,11.5 50.6,14.6 		"/>
		
			<polygon fill="none" stroke="#000000" stroke-width="2" stroke-linecap="round" stroke-linejoin="round" stroke-miterlimit="10" points="
			40.8,19.8 36.4,21.5 28.7,17.5 33.1,15.9 		"/>
		
			<polygon fill="none" stroke="#000000" stroke-width="2" stroke-linecap="round" stroke-linejoin="round" stroke-miterlimit="10" points="
			29.7,24.1 25.3,25.7 17.7,21.7 22.1,20.1 		"/>
	</g>
</g>
</svg>
