<?xml version="1.0" encoding="utf-8"?>
<!-- Generator: Adobe Illustrator 21.1.0, SVG Export Plug-In . SVG Version: 6.00 Build 0)  -->
<svg version="1.1" id="emoji" xmlns="http://www.w3.org/2000/svg" xmlns:xlink="http://www.w3.org/1999/xlink" x="0px" y="0px"
	 viewBox="0 0 72 72" enable-background="new 0 0 72 72" xml:space="preserve">
<g id="_xD83C__xDFA3_">
	<g>
		<g>
			<g>
				<g>
					<path fill="#92D3F5" d="M46.9,68.5l-1.7,0.8c-0.7,0.4-1.6-0.3-1.3-1.1c1.2-3.1,5.3-4.8,5.3-4.8c-6-6.5-5.7-15-5.7-15
						C43.2,36,51.1,33,51.1,33s10,3.3,9.7,15.7c0,0,0,6.8-7.6,14.7c0,0,4.1,1.8,5.1,4.9c0.2,0.7-0.6,1.4-1.3,1l-1.7-0.9
						C52.7,67.2,49.5,67.2,46.9,68.5z"/>
				</g>
			</g>
			<path fill="#92D3F5" d="M43.8,52.5c-0.5,0-4.8,0.1-5.5,0.2v-4c0,0,0.8-4,5.5-4.8"/>
			<path fill="#92D3F5" d="M60.1,43c5.2,0.1,6.7,5.1,6.7,5.1l-2.9,10.7c-0.5-0.8-1.2-1-2-1.2c0,0-2.3-0.7-3.9-0.5
				C58.1,57.1,61.7,49.4,60.1,43"/>
			<path fill="#61B2E4" d="M60.1,43c5.2,0.1,6.7,5.1,6.7,5.1l-2.9,10.7c-0.5-0.8-1.2-1-2-1.2c0,0-2.3-0.7-3.9-0.5
				C58.1,57.1,61.7,49.4,60.1,43"/>
		</g>
		<path fill="#61B2E4" d="M50.9,67.6c0,0,6.7,1.8,7.4,1.8c0,0-0.2-3.3-4.7-5.8c0,0,7.2-9.2,7.1-15.8c0-6.9-3.8-11.6-9.7-14.7
			c3.9,4.8,7.6,6.6,6.3,15.4C57.4,48.4,56.7,57,50.9,67.6z"/>
	</g>
	<circle cx="53.9" cy="41.9" r="1.8"/>
	<g>
		<path fill="none" stroke="#000000" stroke-width="2" stroke-linecap="round" stroke-linejoin="round" stroke-miterlimit="10" d="
			M62.4,56.7c0.8,0.2,1.5,0.7,2,1.5l2.5-10.1c0,0-1.5-5-6.7-5.1"/>
		<g>
			<path fill="none" stroke="#000000" stroke-width="2" stroke-linecap="round" stroke-linejoin="round" stroke-miterlimit="10" d="
				M46.9,68.5l-1.7,0.8c-0.7,0.4-1.6-0.3-1.3-1.1c1.2-3.1,5.3-4.8,5.3-4.8c-6-6.5-5.7-15-5.7-15C43.2,36,51.1,33,51.1,33
				s10,3.3,9.7,15.7c0,0,0,6.8-7.6,14.7c0,0,4.1,1.8,5.1,4.9c0.2,0.7-0.6,1.4-1.3,1l-1.7-0.9C52.7,67.2,49.5,67.2,46.9,68.5z"/>
			<path fill="none" stroke="#000000" stroke-width="2" stroke-linecap="round" stroke-linejoin="round" stroke-miterlimit="10" d="
				M40.1,51.6c-0.5,0-1.1,0.1-1.8,0.2v-3.6c0,0,0.8-3.5,5.5-4.3"/>
		</g>
	</g>
	<path fill="none" stroke="#000000" stroke-width="2" stroke-linecap="round" stroke-linejoin="round" stroke-miterlimit="10" d="
		M51.1,33l0.1-25.1c0,0-3.7-8.8-16.5-3.8C22.8,8.7,16.4,31.9,13.4,44.5"/>
	<path fill="#A57939" d="M15.2,49.1l-4.3,17.5c-3.6-0.1-5.7-1.4-5.7-1.4l4.3-17.5C9.4,47.7,12.1,49.1,15.2,49.1z"/>
	<path fill="#6A462F" d="M12.9,48.9c0.7,0.1,1.5,0.2,2.3,0.2l-4.3,17.5c-0.7,0-1.5-0.1-2.1-0.2L12.9,48.9z"/>
	<path fill="none" stroke="#000000" stroke-width="2" stroke-linecap="round" stroke-linejoin="round" stroke-miterlimit="10" d="
		M15.2,49.1l-4.3,17.5c-3.6-0.1-5.7-1.4-5.7-1.4l4.3-17.5C9.4,47.7,12.1,49.1,15.2,49.1z"/>
	<path fill="none" stroke="#000000" stroke-width="2" stroke-linecap="round" stroke-linejoin="round" stroke-miterlimit="10" d="
		M6.1,61.5c0,0,2.6,1.4,5.7,1.4"/>
</g>
</svg>
