<?xml version="1.0" encoding="utf-8"?>
<!-- Generator: Adobe Illustrator 19.1.0, SVG Export Plug-In . SVG Version: 6.00 Build 0)  -->
<svg version="1.1" id="emoji" xmlns="http://www.w3.org/2000/svg" xmlns:xlink="http://www.w3.org/1999/xlink" x="0px" y="0px"
	 viewBox="0 0 72 72" enable-background="new 0 0 72 72" xml:space="preserve">
<g id="_xD83C__xDFAE__xFE0F__1_">
	<path fill="#9B9B9A" stroke="#9B9B9A" stroke-width="2" stroke-miterlimit="10" d="M34.4,28.2V9.1c0,0,1.3-2.4,3,0v19.1"/>
	<path fill="none" stroke="#000100" stroke-miterlimit="10" d="M36.4,18"/>
	<path fill="none" stroke="#000100" stroke-miterlimit="10" d="M38.5,18"/>
	<path fill="none" stroke="#000100" stroke-miterlimit="10" d="M35.9,18"/>
	<path fill="none" stroke="#000100" stroke-miterlimit="10" d="M38,18"/>
	<path fill="#9B9B9A" stroke="#000000" stroke-width="2" stroke-miterlimit="10" d="M36,53.9l-10.4,0c-0.7,0-1.3,0.4-1.6,1
		c-3.5,6.3-8.1,7.8-9.3,8.1c-0.2,0-0.3,0.1-0.5,0.1c-14.4,0.4-7.1-18.6-7.1-18.6c2.1-6.1,7.1-13.2,8.8-14.9c0.3-0.3,0.8-0.5,1.3-0.5
		h13.1h11.5h13.1c0.5,0,0.9,0.2,1.3,0.5c1.7,1.6,6.7,8.8,8.8,14.9c0,0,7.3,19-7.1,18.6c-0.2,0-0.3,0-0.5-0.1
		c-1.3-0.2-5.9-1.7-9.3-8.1c-0.3-0.6-0.9-1-1.6-1L36,53.9"/>
	<polygon stroke="#000000" stroke-width="2" stroke-linecap="round" stroke-linejoin="round" stroke-miterlimit="10" points="
		24,38.4 24,39.2 19.8,39.2 14.6,39.2 14.6,38.4 19.7,38.4 	"/>
	<polygon stroke="#000000" stroke-width="2" stroke-linecap="round" stroke-linejoin="round" stroke-miterlimit="10" points="
		18.9,34.1 19.7,34.1 19.7,38.3 19.7,43.5 18.9,43.5 18.9,38.4 	"/>
	<circle cx="30.2" cy="46" r="4"/>
	<circle cx="41.8" cy="46" r="4"/>
	<circle cx="48.6" cy="38.8" r="2"/>
	<circle cx="57.1" cy="38.8" r="2"/>
	<circle cx="52.8" cy="42.5" r="2"/>
	<circle cx="52.8" cy="35.1" r="2"/>
	<path fill="none" stroke="#000000" stroke-width="2" stroke-linecap="round" stroke-linejoin="round" stroke-miterlimit="10" d="
		M34.4,25.1v-18c0,0,0.5-0.9,1.3-1c0.5-0.1,1.1,0.1,1.7,1v18"/>
</g>
</svg>
