<?xml version="1.0" encoding="utf-8"?>
<!-- Generator: Adobe Illustrator 21.1.0, SVG Export Plug-In . SVG Version: 6.00 Build 0)  -->
<svg version="1.1" id="emoji" xmlns="http://www.w3.org/2000/svg" xmlns:xlink="http://www.w3.org/1999/xlink" x="0px" y="0px"
	 viewBox="0 0 72 72" enable-background="new 0 0 72 72" xml:space="preserve">
<g id="_xD83C__xDFAC__xFE0F_">
	<path fill="none" stroke="#000000" stroke-width="2" stroke-linecap="round" stroke-linejoin="round" stroke-miterlimit="10" d="
		M55.5,37.4"/>
	<path fill="none" stroke="#000000" stroke-width="2" stroke-linecap="round" stroke-linejoin="round" stroke-miterlimit="10" d="
		M16.6,37.4"/>
	<circle fill="#FFFFFF" cx="15.8" cy="31" r="1.5"/>
	<path fill="#3F3F3F" d="M16.6,37.4V55c0,1.1,1.9,3,3,3l33.6,0.2c1.1,0,2.3-2.1,2.3-3.2V37.4H16.6z"/>
	<path fill="none" stroke="#000000" stroke-width="2" stroke-linecap="round" stroke-linejoin="round" stroke-miterlimit="10" d="
		M55.5,37.4"/>
	<path fill="none" stroke="#000000" stroke-width="2" stroke-linecap="round" stroke-linejoin="round" stroke-miterlimit="10" d="
		M16.6,37.4"/>
	<polygon fill="#3F3F3F" points="41.4,12.9 48.5,16.6 51.1,15.6 43.9,11.9 	"/>
	<polygon fill="#3F3F3F" points="40,20.1 32.3,16.2 29.5,17.2 37.2,21.2 	"/>
	<polygon fill="#3F3F3F" points="22.1,20.1 18.6,21.7 25.3,25.7 29.7,24.1 	"/>
	<polygon fill="#3F3F3F" points="29.3,31.3 25.7,31.3 20.6,37 24.1,37 	"/>
	<polygon fill="#3F3F3F" points="41.2,31 38.3,31 32.6,37.4 35.5,37.4 	"/>
	<polygon fill="#3F3F3F" points="44.6,37.4 47.5,37.4 53.2,31 50.3,31 	"/>
	<g>
		<polygon fill="#FFFFFF" points="43.3,36.9 48.2,31.5 42.5,31.5 37.6,36.9 		"/>
		<polygon fill="#FFFFFF" points="49.7,37 55.1,37 55.1,31 		"/>
		<circle fill="#3F3F3F" cx="15.8" cy="31" r="2.5"/>
		<path fill="#FFFFFF" d="M16.5,33.9v3.3h3.3l5.4-6.1h-6.6C18.3,32.3,17.6,33.3,16.5,33.9z"/>
		<polygon fill="#FFFFFF" points="31.3,36.9 36.2,31.5 30.5,31.5 25.6,36.9 		"/>
		<polygon fill="#FFFFFF" points="45.9,11.2 49.6,13.1 48.5,10.2 		"/>
		<polygon fill="#FFFFFF" points="40,13.4 33.7,15.8 40.9,19.5 47.2,17.1 		"/>
		<polygon fill="#FFFFFF" points="28.5,18 23.1,20 29.9,23.6 35.4,21.5 		"/>
		<path fill="#FFFFFF" d="M17.5,22.2l-5,1.9l1.5,4c0.3-0.1,0.7-0.1,1-0.1c0.7,0,1.3,0.2,1.8,0.4c0.1,0,0.1-0.1,0.1-0.1l6.9-2.7
			L17.5,22.2z"/>
	</g>
	<g>
		
			<polyline fill="none" stroke="#000000" stroke-width="2" stroke-linecap="round" stroke-linejoin="round" stroke-miterlimit="10" points="
			17.7,28.6 51.1,15.8 48.8,9.8 12.5,23.8 14.2,28.3 		"/>
		<path fill="none" stroke="#000000" stroke-width="2" stroke-linecap="round" stroke-linejoin="round" stroke-miterlimit="10" d="
			M55.5,37.4"/>
		<path fill="none" stroke="#000000" stroke-width="2" stroke-linecap="round" stroke-linejoin="round" stroke-miterlimit="10" d="
			M16.6,37.4"/>
		<path fill="none" stroke="#000000" stroke-width="2" stroke-linecap="round" stroke-linejoin="round" stroke-miterlimit="10" d="
			M16.6,37.4v1.7V55c0,1.7,1.3,3,3,3h32.9c1.7,0,3-1.3,3-3V39.1v-1.7L16.6,37.4z"/>
		
			<polyline fill="none" stroke="#000000" stroke-width="2" stroke-linecap="round" stroke-linejoin="round" stroke-miterlimit="10" points="
			18.9,31 55.5,31 55.5,37.4 		"/>
		
			<line fill="none" stroke="#000000" stroke-width="2" stroke-linecap="round" stroke-linejoin="round" stroke-miterlimit="10" x1="16.6" y1="37" x2="16.6" y2="34"/>
		
			<polygon fill="none" stroke="#000000" stroke-width="2" stroke-linecap="round" stroke-linejoin="round" stroke-miterlimit="10" points="
			19.7,37.4 24.4,37.4 30.1,31 25.4,31 		"/>
		
			<polygon fill="none" stroke="#000000" stroke-width="2" stroke-linecap="round" stroke-linejoin="round" stroke-miterlimit="10" points="
			31.7,37.4 36.4,37.4 42.1,31 37.4,31 		"/>
		
			<polygon fill="none" stroke="#000000" stroke-width="2" stroke-linecap="round" stroke-linejoin="round" stroke-miterlimit="10" points="
			43.7,37.4 48.4,37.4 54.1,31 49.4,31 		"/>
		
			<circle fill="none" stroke="#000000" stroke-width="2" stroke-linecap="round" stroke-linejoin="round" stroke-miterlimit="10" cx="15.8" cy="31" r="2.5"/>
		
			<polyline fill="none" stroke="#000000" stroke-width="2" stroke-linecap="round" stroke-linejoin="round" stroke-miterlimit="10" points="
			47.9,17.1 40.2,13.1 44.6,11.5 50.6,14.6 		"/>
		
			<polygon fill="none" stroke="#000000" stroke-width="2" stroke-linecap="round" stroke-linejoin="round" stroke-miterlimit="10" points="
			40.8,19.8 36.4,21.5 28.7,17.5 33.1,15.9 		"/>
		
			<polygon fill="none" stroke="#000000" stroke-width="2" stroke-linecap="round" stroke-linejoin="round" stroke-miterlimit="10" points="
			29.7,24.1 25.3,25.7 17.7,21.7 22.1,20.1 		"/>
	</g>
</g>
</svg>
