<?xml version="1.0" encoding="utf-8"?>
<!-- Generator: Adobe Illustrator 19.1.0, SVG Export Plug-In . SVG Version: 6.00 Build 0)  -->
<svg version="1.1" id="emoji" xmlns="http://www.w3.org/2000/svg" xmlns:xlink="http://www.w3.org/1999/xlink" x="0px" y="0px"
	 viewBox="0 0 72 72" enable-background="new 0 0 72 72" xml:space="preserve">
<g id="_xD83C__xDFA7__xFE0F_">
	<path fill="#9B9B9A" d="M26.5,61.1l0.1-19.9c-1.7,1.1-4.6,3.7-5.1,10C21,57.7,24.5,60.2,26.5,61.1z"/>
	<path fill="#9B9B9A" d="M45.7,41.1L45.6,61c1.9-0.9,5.5-3.4,5.1-9.9C50.3,44.9,47.4,42.2,45.7,41.1z"/>
	<path fill="#D0CFCE" d="M43.9,63.2c-0.2-0.2-0.4-0.5-0.4-0.8l0.2-22.9c0-0.3,0.2-0.6,0.4-0.8c0.1-0.1,0.2-0.1,0.3-0.1v0l-3.8,1.1
		c0,0,0,0,0,0c0.4-0.1,0.8,0.1,1.1,0.4c0.3,0.5,0.1,1.1-0.3,1.4c-0.6,0.4-1,1-1,1.7l-0.2,15.5c0,0.6,0.3,1.2,0.7,1.5
		c0.1,0.1,0.3,0.2,0.5,0.3l0,0c0.5,0.2,0.7,0.8,0.5,1.3c-0.2,0.4-0.5,0.6-0.9,0.6c-0.1,0-0.1,0-0.2,0c0,0,0,0,0,0l3.6,1v0
		C44.3,63.4,44.1,63.3,43.9,63.2z"/>
	<path fill="#D0CFCE" d="M31,62.6c-0.4,0-0.8-0.2-0.9-0.6c-0.2-0.5,0-1.1,0.5-1.3c0.7-0.3,1.2-1,1.2-1.8V43.3c0-0.2,0-0.4-0.1-0.6
		c-0.1-0.3-0.3-0.6-0.5-0.8c0,0,0-0.1-0.1-0.1c-0.1-0.1-0.3-0.2-0.5-0.3c-0.5-0.3-0.7-0.9-0.4-1.3c0.2-0.4,0.7-0.6,1.1-0.5
		c0,0,0,0,0-0.1l-3.6-1l0,0c0.1,0,0.2,0.1,0.3,0.2c0.2,0.2,0.4,0.5,0.4,0.8l-0.1,22.9c0,0.3-0.1,0.6-0.4,0.8
		c-0.1,0.1-0.1,0.1-0.2,0.1l3.4-0.9c0,0,0,0,0,0C31.2,62.5,31.1,62.6,31,62.6z"/>
	<path fill="#D0CFCE" d="M57.2,53.3c0.3-0.5,0.6-1,0.9-1.6c0.2-0.3,0.3-0.6,0.5-0.8c0.2-0.4,0.4-0.7,0.5-1.1
		c0.1-0.3,0.3-0.6,0.4-0.9c0.2-0.4,0.3-0.8,0.5-1.1c0.1-0.3,0.2-0.6,0.3-0.9c0.1-0.4,0.3-0.8,0.4-1.2c0.1-0.3,0.2-0.6,0.3-0.9
		c0.1-0.4,0.2-0.8,0.3-1.2c0.1-0.3,0.1-0.6,0.2-0.9c0.1-0.4,0.2-0.9,0.2-1.3c0-0.3,0.1-0.6,0.1-0.9c0.1-0.5,0.1-1,0.1-1.5
		c0-0.3,0.1-0.5,0.1-0.8c0-0.8,0.1-1.5,0.1-2.3c0,0,0,0,0,0C62.1,19.9,50.9,8.1,36,8.1c0,0,0,0,0,0C21.1,8.1,9.9,19.9,9.9,35.6
		c0,0.8,0,1.6,0.1,2.4c0,0.3,0,0.5,0.1,0.7c0,0.5,0.1,1,0.2,1.5c0,0.3,0.1,0.6,0.1,0.9c0.1,0.5,0.1,0.9,0.2,1.4
		c0.1,0.3,0.1,0.6,0.2,0.9c0.1,0.4,0.2,0.8,0.3,1.3c0.1,0.3,0.2,0.6,0.3,0.9c0.1,0.4,0.2,0.8,0.4,1.2c0.1,0.3,0.2,0.6,0.3,0.9
		c0.1,0.4,0.3,0.8,0.5,1.2c0.1,0.3,0.3,0.6,0.4,0.9c0.2,0.4,0.4,0.8,0.6,1.1c0.1,0.3,0.3,0.6,0.4,0.8c0.3,0.5,0.6,1.1,0.9,1.6
		c0.2,0.4,0.2,0.9-0.1,1.2l0,0c0,0,1.5-2,0-4.4c-1.5-2.5-3.2-8.9-3.2-14.4C11.6,20.9,22.1,9.8,36,9.8c13.9,0,24.4,11.1,24.4,25.9
		c0,5.5-2,13-3.3,15.1c-1.2,2.1,0,3.6,0,3.6l0,0C57,54,57,53.6,57.2,53.3z"/>
	<g>
		<path fill="none" stroke="#000000" stroke-width="2" stroke-linecap="round" stroke-linejoin="round" stroke-miterlimit="10" d="
			M31.2,40.6c1,0.5,1.6,1.5,1.6,2.7l0,15.5c0,1.2-0.7,2.3-1.8,2.7"/>
		<path fill="none" stroke="#000000" stroke-width="2" stroke-linecap="round" stroke-linejoin="round" stroke-miterlimit="10" d="
			M27.5,39.6c0,0-6.4,1.8-7.1,11.5s7,11.4,7,11.4L27.5,39.6z"/>
		<path fill="none" stroke="#000000" stroke-width="2" stroke-linecap="round" stroke-linejoin="round" stroke-miterlimit="10" d="
			M40.9,40.6c-0.9,0.5-1.4,1.5-1.4,2.5l-0.2,15.5c0,1.2,0.7,2.3,1.8,2.8"/>
		<path fill="none" stroke="#000000" stroke-width="2" stroke-linecap="round" stroke-linejoin="round" stroke-miterlimit="10" d="
			M44.7,39.5c0,0,6.3,1.9,6.9,11.6c0.6,9.7-7.1,11.3-7.1,11.3L44.7,39.5z"/>
		<path fill="none" stroke="#000000" stroke-width="2" stroke-linecap="round" stroke-linejoin="round" stroke-miterlimit="10" d="
			M58,53.8c3.2-5.1,5.1-11.2,5.1-18.2C63.1,19.9,51.8,7.1,36,7.1v0c0,0,0,0,0,0c0,0,0,0,0,0v0C20.2,7.1,8.9,19.9,8.9,35.6
			c0,7,1.9,13.1,5.1,18.2"/>
	</g>
	<path fill="none" stroke="#000000" stroke-width="2" stroke-linecap="round" stroke-linejoin="round" stroke-miterlimit="10" d="
		M50.2,20.2c-3.1-4.4-8.2-7.3-14.2-7.3v0c0,0,0,0,0,0c0,0,0,0,0,0v0c-6,0-11,2.9-14.1,7.3"/>
</g>
</svg>
