<?xml version="1.0" encoding="utf-8"?>
<!-- Generator: Adobe Illustrator 19.1.0, SVG Export Plug-In . SVG Version: 6.00 Build 0)  -->
<svg version="1.1" id="emoji" xmlns="http://www.w3.org/2000/svg" xmlns:xlink="http://www.w3.org/1999/xlink" x="0px" y="0px"
	 viewBox="0 0 72 72" enable-background="new 0 0 72 72" xml:space="preserve">
<g id="_xD83C__xDFBA_">
	<g>
		<path fill="#F9E937" d="M62.1,26.5L62.1,26.5L62.1,26.5C62.1,26.5,62.1,26.5,62.1,26.5z"/>
	</g>
	<g>
		<path fill="#FCEA2B" d="M51.6,33.6c-0.2-0.2-0.3-0.4-0.5-0.6c-1.2-1.3-2.3-1.6-3.1-1.8c-0.7-0.1-6.5-0.2-12.5-0.2
			c-0.3,0-0.5,0-0.8,0c-0.4,0-0.8,0-1.2,0c-2,0-4,0-5.7,0l0,0l0,0c-0.1,0-0.4,0-1-0.1c-0.3,0-0.5,0-0.9-0.1c-0.3,0-0.7-0.1-1.1-0.1
			c-1.5-0.1-3.2-0.3-4.4-0.6c-0.2,0-0.3-0.1-0.5-0.1c-7.7-2.1-8.8-8.4-8.9-11.4c0-0.2,0-0.4,0-0.6h-1v27.4h1.1c0-0.3,0-0.7,0.1-1.2
			c0-0.4,0.1-0.9,0.2-1.4c0.3-1.3,0.8-2.8,1.7-4.2c0.7-1.1,1.7-2.2,3.1-3.1c1-0.7,2.2-1.2,3.7-1.6c0.6-0.2,1.4-0.3,2.3-0.5
			c0.4-0.1,0.8-0.1,1.3-0.2c1.1-0.1,2.1-0.2,2.9-0.3c0.2,0,0.3,0,0.4,0c0.4,0,0.7-0.1,0.9-0.1c0,0,0.1,0,0.1,0
			c4.8-0.2,10.2-0.3,14.2-0.2c1.2,0,2.3,0.1,3.1,0.1c1.4,0.1,2.4,0.2,2.7,0.4c0.3,0.2,0.5,0.3,0.7,0.6c0.4,0.3,0.7,0.8,1,1.2
			c0.1,0.2,0.3,0.5,0.4,0.7c0.1,0.2,0.2,0.4,0.3,0.7c0.2,0.5,0.3,1.1,0.4,1.7c0,0.1,0,0.2,0,0.3c0.1,0.8,0.1,1.6,0.1,2.5
			c0,0.3,0,0.6,0,0.9c0,0.3-0.1,0.6-0.1,0.8c-0.1,0.8-0.3,1.4-0.5,2c-0.1,0.2-0.1,0.4-0.2,0.5c-0.2,0.3-0.3,0.6-0.5,0.9
			c-0.3,0.4-0.6,0.7-1,0.9c-0.6,0.4-1.2,0.7-1.9,0.9C45.5,48.2,29.2,48.7,27,48c-1.2-0.4-2.2-1.1-2.9-2.1c-0.2-0.2-0.3-0.5-0.4-0.8
			c-0.4-0.8-0.6-1.7-0.6-2.8l0,0l0,0c0,0,0,0,0,0c0-0.1,0-0.2,0-0.4c0.2-2.3,2-4.7,2.2-5c0.2-0.2,0.4-0.3,0.6-0.4l-4.3,0.2
			c0.2,0,0.4,0.1,0.5,0.3c0.4,0.4,0.4,1,0,1.4c-0.6,0.6-2.5,4.3-0.4,7.8c1.7,2.5,3,3,4.2,3.3c0.1,0,0.3,0.1,0.4,0.1
			c0.7,0.2,3.9,0.3,7.6,0.3c0.6,0,1.1,0,1.7,0c1.2,0,2.3,0,3.5,0c0.6,0,1.1,0,1.7,0c1.1,0,2.1,0,2.9-0.1c0.9,0,1.6-0.1,2.1-0.1
			c0.2,0,0.3,0,0.4,0c0.2,0,0.4,0,0.5-0.1c1.7-0.5,4.9-1.3,5.8-4.8c0.3-1.1,0.5-2.3,0.6-3.4C53.5,38.3,53,35.3,51.6,33.6z"/>
		<path fill="#FCEA2B" d="M26.3,36.7C26.3,36.7,26.3,36.7,26.3,36.7l-0.2,0C26.2,36.7,26.2,36.7,26.3,36.7z"/>
	</g>
	<path fill="#F9E937" d="M62.8,35.4c0-0.6,0.4-1,1-1h0.5v-6.8h-0.5c-0.6,0-1-0.4-1-1c0-0.4,0.3-0.8,0.6-0.9c0,0,0,0-0.1,0
		c-0.7,0.2-2.8,0.7-3.8,1.3c0.5-0.1,1,0.1,1.2,0.6c0.2,0.5,0,1.1-0.5,1.3c-0.9,0.4-1.5,1.2-1.5,2.2c0,1,0.6,1.8,1.5,2.2
		c0.5,0.2,0.8,0.8,0.5,1.3c-0.2,0.4-0.5,0.6-0.9,0.6c-0.1,0-0.2,0-0.3-0.1c0.4,0.3,3,1.3,4.2,1.3c0,0,0,0,0,0
		C63.2,36.4,62.8,36,62.8,35.4z"/>
	<path fill="#F9E937" d="M56.7,31.2h-2.4c-0.6,0-1-0.4-1-1c0-0.6,0.4-1,1-1h-6c0,0,0.1,0,0.1,0c1.9,0.4,3.4,1.3,4.8,3.1
		c0.2,0.2,0.3,0.4,0.4,0.6c0.1,0.2,0.3,0.4,0.4,0.6c0,0,0,0,0,0l3.5-0.1l0,0C57,32.8,56.8,32,56.7,31.2z"/>
	<g>
		
			<line fill="none" stroke="#000000" stroke-width="2" stroke-linecap="round" stroke-linejoin="round" stroke-miterlimit="10" x1="57.8" y1="30.2" x2="54.3" y2="30.2"/>
		
			<polyline fill="none" stroke="#000000" stroke-width="2" stroke-linecap="round" stroke-linejoin="round" stroke-miterlimit="10" points="
			63.8,35.4 65.3,35.4 65.3,26.6 63.8,26.6 		"/>
		
			<line fill="none" stroke="#000000" stroke-width="2" stroke-linecap="round" stroke-linejoin="round" stroke-miterlimit="10" x1="30.2" y1="37.5" x2="30.3" y2="44.2"/>
		
			<line fill="none" stroke="#000000" stroke-width="2" stroke-linecap="round" stroke-linejoin="round" stroke-miterlimit="10" x1="36.6" y1="44.2" x2="36.5" y2="37.5"/>
		
			<line fill="none" stroke="#000000" stroke-width="2" stroke-linecap="round" stroke-linejoin="round" stroke-miterlimit="10" x1="42.4" y1="44.2" x2="42.3" y2="37.5"/>
		
			<line fill="none" stroke="#000000" stroke-width="2" stroke-linecap="round" stroke-linejoin="round" stroke-miterlimit="10" x1="41.7" y1="22.7" x2="43.1" y2="22.7"/>
		
			<line fill="none" stroke="#000000" stroke-width="2" stroke-linecap="round" stroke-linejoin="round" stroke-miterlimit="10" x1="35.9" y1="22.7" x2="37.2" y2="22.7"/>
		
			<line fill="none" stroke="#000000" stroke-width="2" stroke-linecap="round" stroke-linejoin="round" stroke-miterlimit="10" x1="29.6" y1="22.7" x2="31" y2="22.7"/>
		<path fill="none" stroke="#000000" stroke-width="2" stroke-linecap="round" stroke-linejoin="round" stroke-miterlimit="10" d="
			M26.1,37.6c0,0-2,2.7-2,4.7c0,2.6,1.4,4.1,3.2,4.6c2,0.6,18.1,0.2,19.4-0.2c1.4-0.4,3.3-1.1,3.5-6c0.1-4.9-1.8-6.3-2.6-6.7
			C46.3,33.4,28.1,34,28.1,34s-5.2,0.4-7.7,1c-9.1,2.5-8,11.5-8,11.5H9.3V17.1h3.1c0,0-1.6,9.7,8.5,12.2c2.2,0.5,7,0.8,7,0.8
			s19-0.1,20.3,0.2c1.3,0.2,2.8,0.9,4.2,2.7c2.2,2.8,2.4,7.8,1.2,12.3c-1.1,4.1-4.7,5.1-6.6,5.5c-1.8,0.5-19,0.5-20.9,0
			c-1.3-0.3-3.3-0.5-5.2-3.8c-2.2-3.8-0.5-8,0.6-9"/>
		<path fill="none" stroke="#000000" stroke-width="2" stroke-linecap="round" stroke-linejoin="round" stroke-miterlimit="10" d="
			M59.8,27.9c-1.2,0.5-2.1,1.7-2.1,3.1c0,1.4,0.9,2.6,2.1,3.1"/>
		
			<line fill="none" stroke="#000000" stroke-width="2" stroke-linecap="round" stroke-linejoin="round" stroke-miterlimit="10" x1="30.3" y1="26.3" x2="30.3" y2="26.8"/>
		
			<line fill="none" stroke="#000000" stroke-width="2" stroke-linecap="round" stroke-linejoin="round" stroke-miterlimit="10" x1="36.6" y1="26.8" x2="36.6" y2="26.3"/>
		
			<line fill="none" stroke="#000000" stroke-width="2" stroke-linecap="round" stroke-linejoin="round" stroke-miterlimit="10" x1="42.4" y1="26.8" x2="42.4" y2="26.3"/>
		
			<line fill="none" stroke="#000000" stroke-width="2" stroke-linecap="round" stroke-linejoin="round" stroke-miterlimit="10" x1="30.3" y1="54.5" x2="30.3" y2="55.1"/>
		
			<line fill="none" stroke="#000000" stroke-width="2" stroke-linecap="round" stroke-linejoin="round" stroke-miterlimit="10" x1="36.6" y1="55.1" x2="36.6" y2="54.5"/>
		
			<line fill="none" stroke="#000000" stroke-width="2" stroke-linecap="round" stroke-linejoin="round" stroke-miterlimit="10" x1="42.4" y1="55.1" x2="42.4" y2="54.5"/>
	</g>
</g>
</svg>
