<?xml version="1.0" encoding="utf-8"?>
<!-- Generator: Adobe Illustrator 21.1.0, SVG Export Plug-In . SVG Version: 6.00 Build 0)  -->
<svg version="1.1" id="emoji" xmlns="http://www.w3.org/2000/svg" xmlns:xlink="http://www.w3.org/1999/xlink" x="0px" y="0px"
	 viewBox="0 0 72 72" enable-background="new 0 0 72 72" xml:space="preserve">
<g id="_xD83C__xDFB8_">
	<path fill="#EA5A47" d="M33.1,48.3c2.3-0.9,4.8-2.2,5.1-2.6c0.1-0.1,0.5-2.4,0.5-2.5c-0.7,0-3.7-0.8-4.6-1
		c-1.7-0.4-4.8-5.8-4.2-7.7c0.5-1.5,3.7-7.1,3.7-7.1s-0.7-0.6-1.9-0.4c-0.7,0.1-2,0.9-2.2,1.2c-1.1,1.3-3.2,6.8-4.1,8.2
		c-0.9,1.5-2.2,2.4-3.8,2.6c-1.4,0.2-3.9,0.9-6.3,2.7c-2.8,2.1-5.1,8.3-1.6,13c0.8,1.1,6,4.7,10.2,3.8c3.6-0.8,6.8-3.4,7.2-6.5
		C31.2,51.9,31.1,49.1,33.1,48.3z"/>
	
		<ellipse transform="matrix(0.9999 -1.577817e-02 1.577817e-02 0.9999 -0.751 0.3649)" fill="#FFFFFF" cx="22.8" cy="47.8" rx="5.5" ry="5.5"/>
	<path fill="#A47938" d="M58,14.4c-0.1,0-5.6,2.7-6.7,3.4c-1.5,1-2.5,3.8-2.6,3.9L25.8,43.4c0.4,0.5,1.7,1.6,2,2.2L51.6,23
		c-0.1-0.1,2-0.4,3.3-2c0.3-0.4,1.1-1.6,2.2-2.6c1.1-1,2.4-1.7,2.8-2.4C60.7,14.5,58.5,14.4,58,14.4z"/>
	<path fill="none" stroke="#000000" stroke-width="2" stroke-linecap="round" stroke-linejoin="round" stroke-miterlimit="10" d="
		M34,40.2"/>
	<g>
		<path fill="none" stroke="#000000" stroke-width="2" stroke-linecap="round" stroke-linejoin="round" stroke-miterlimit="10" d="
			M34,40.2"/>
	</g>
	<path fill="none" stroke="#000000" stroke-width="2" stroke-linecap="round" stroke-linejoin="round" stroke-miterlimit="10" d="
		M34,40.2"/>
	<g>
		
			<line fill="none" stroke="#000000" stroke-width="2" stroke-linecap="round" stroke-linejoin="round" stroke-miterlimit="10" x1="20.9" y1="46.9" x2="23.3" y2="49.2"/>
		<path fill="none" stroke="#000000" stroke-width="2" stroke-linecap="round" stroke-linejoin="round" stroke-miterlimit="10" d="
			M52.3,22.3c0,0,1.3,0,2.2-0.6c0.9-0.6,1.1-1.1,1.1-1.5s0.7-2.3,2.3-2.7c1.6-0.4,2.5-1.3,2.1-2.3c-0.4-1-2.1-0.7-2.6-0.7
			c-0.4,0-3.2,1.7-3.2,1.7s-3.5,2.3-4,2.9c-0.5,0.6-0.5,1-0.5,1L26.2,43.2"/>
		
			<ellipse transform="matrix(0.9999 -1.577817e-02 1.577817e-02 0.9999 -0.751 0.3649)" fill="none" stroke="#000000" stroke-width="2" stroke-linecap="round" stroke-linejoin="round" stroke-miterlimit="10" cx="22.8" cy="47.8" rx="5.5" ry="5.5"/>
		<path fill="none" stroke="#000000" stroke-width="2" stroke-linecap="round" stroke-linejoin="round" stroke-miterlimit="10" d="
			M30.2,38.3c-0.6-1.6-0.7-3.4-0.1-5.2c0.8-2.4,3.2-5.5,3.2-5.5c0-0.3-2.5-0.7-4.1,1.2c-1.6,1.9-2,3.6-2.5,4.8
			c-0.5,1.2-0.6,1.5-1.5,2.8c-0.8,1.2-2.3,2.2-3.7,2.4c-1.4,0.2-3.6,0.6-6.2,2.6c-3.2,2.4-5.3,8.5-1.5,13.7
			c1.7,2.4,6.3,5.3,11.4,3.3c3.8-1.4,5.1-3.6,5.5-4.6c0.6-1.4,0.9-3.2,1-3.6c0.1-0.8,0-1.7,1.8-2.4c1.8-0.7,4-1.7,4.6-2.4
			c0.7-0.8,0.7-1.5,0.5-2.2c-0.1,0-1.2,0.4-3.2-0.1c-2-0.5-2.1-1.1-2.3-1.3"/>
	</g>
	<g>
		<path fill="#EA5A47" d="M32.4,41.1c-0.1,0.1-0.2,0.1-0.2,0.2C32.2,41.2,32.3,41.2,32.4,41.1L32.4,41.1z"/>
		<path fill="#EA5A47" d="M28.1,44.1c0,0-0.1-0.1-0.1-0.1C28,44,28.1,44.1,28.1,44.1z"/>
	</g>
</g>
</svg>
