<?xml version="1.0" encoding="utf-8"?>
<!-- Generator: Adobe Illustrator 21.1.0, SVG Export Plug-In . SVG Version: 6.00 Build 0)  -->
<svg version="1.1" id="emoji" xmlns="http://www.w3.org/2000/svg" xmlns:xlink="http://www.w3.org/1999/xlink" x="0px" y="0px"
	 viewBox="0 0 72 72" enable-background="new 0 0 72 72" xml:space="preserve">
<g id="_xD83C__xDFBF__1_">
	<g>
		<g>
			<path fill="#A5D1F2" d="M13.1,50.9c0,2.8,2.9,6,6.1,4.5l37.9-21.9c0.8-0.4,1.6,0,2.1,0.8l0.5,0.8c0.5,0.8,0.5,2.6-0.2,3
				L20.9,60.3c-1.4,0.7-3.7,0.6-5.4,0.6c-5.7,0-10.3-4.4-10.3-9.9"/>
			<path fill="#A5D1F2" d="M5.2,50.9c0-2.2,1.8-4,4-4s4,1.8,4,4"/>
		</g>
		<path fill="#7EAFE0" d="M13,59.5c2.1,1.5,5.9,2,8.2,0.6l38-21.8c0.7-0.4,0.7-1.9,0.3-2.6l-0.2-0.4l0,0.1l-41,23.5
			C18.2,58.9,15.8,60.2,13,59.5z"/>
		<g>
			<path fill="#7EAFE0" d="M9.6,48.3c-1.1,2-0.3,4.6,1.9,5.8c0,0,1.8,1.1,2.4-0.2v0c0.1-0.4-0.2-0.9-0.6-1.1
				c-0.9-0.5-1.2-1.9-0.7-2.7"/>
			<path fill="#7EAFE0" d="M9.6,48.3c0.5-0.8,1.5-1,2.3-0.6c0.8,0.5,1.1,1.5,0.7,2.3"/>
		</g>
	</g>
	<g>
		<g>
			<g>
				<path fill="#FCEA2B" d="M23.3,48c-2.2,1.3-5.1,0.3-6.5-2c-1.4-2.4-0.7-5.3,1.5-6.6c3.9-2.2,6.1-6,4.1-9.5L17,20.2
					c0,0,1.4-2.2,3.5-1.9c0.4,0.1,0.7-0.1,0.9-0.5c0.8-2,3.9-9.1,7.1-3.6l12.7,22.2c0.3,0.5,0.2,1.2-0.3,1.5L23.3,48"/>
			</g>
			<rect x="34.1" y="20.1" transform="matrix(0.866 -0.5 0.5 0.866 -10.2229 21.6469)" fill="#F1B31C" width="2.4" height="19.6"/>
			<g>
				<path fill="#9B9B9A" d="M20.6,26.5L17,20.2c0,0,1.2-2,3.5-1.9l0.9-0.5c0,0,1.9-6,4.8-5.7c0,0,2.9,1.4,5.6,7.9L20.6,26.5z"/>
				<rect x="26.7" y="12.2" transform="matrix(0.866 -0.5 0.5 0.866 -4.7763 16.2002)" fill="#3F3F3F" width="2.4" height="9.7"/>
			</g>
		</g>
		<g>
			<path fill="none" stroke="#000000" stroke-width="2" stroke-linecap="round" stroke-linejoin="round" stroke-miterlimit="10" d="
				M20.2,59.5c-1.4,0.7-3,1.2-4.7,1.2c-5.5,0-10-4.3-10-9.6"/>
			
				<line fill="none" stroke="#000000" stroke-width="2" stroke-linecap="round" stroke-linejoin="round" stroke-miterlimit="10" x1="55" y1="39.6" x2="20.1" y2="59.6"/>
			<path fill="none" stroke="#000000" stroke-width="2" stroke-linecap="round" stroke-linejoin="round" stroke-miterlimit="10" d="
				M13.2,51.1c0,2.7,2.8,5.8,6,4.3l38.9-22.3l0.1,0c1.4,0.4,2.3,2.1,1.9,3.4l-1.6,0.9"/>
			<path fill="none" stroke="#000000" stroke-width="2" stroke-linecap="round" stroke-linejoin="round" stroke-miterlimit="10" d="
				M5.5,51.1c0-2.1,1.7-3.9,3.9-3.9s3.9,1.7,3.9,3.9"/>
		</g>
		<g>
			<g>
				
					<line fill="none" stroke="#000000" stroke-width="2" stroke-linecap="round" stroke-linejoin="round" stroke-miterlimit="10" x1="48.2" y1="24.9" x2="61.6" y2="17.2"/>
				
					<line fill="none" stroke="#000000" stroke-width="2" stroke-linecap="round" stroke-linejoin="round" stroke-miterlimit="10" x1="46.7" y1="30.4" x2="66.8" y2="18.9"/>
				
					<line fill="none" stroke="#000000" stroke-width="2" stroke-linecap="round" stroke-linejoin="round" stroke-miterlimit="10" x1="39.3" y1="25.5" x2="64.4" y2="11.1"/>
			</g>
			<g>
				<g>
					
						<path fill="none" stroke="#000000" stroke-width="2" stroke-linecap="round" stroke-linejoin="round" stroke-miterlimit="10" d="
						M23.3,48.3c-2.2,1.3-5.1,0.3-6.5-2s-0.7-5.3,1.5-6.6c3.9-2.2,6.1-6,4.1-9.5L17,20.4c0,0,1.4-2.2,3.5-1.9
						c0.4,0.1,0.7-0.1,0.9-0.5c0.8-2,3.9-9.1,7.1-3.6l12.7,22.2c0.3,0.5,0.2,1.2-0.3,1.5L23.3,48.3"/>
				</g>
				
					<line fill="none" stroke="#000000" stroke-width="2" stroke-linecap="round" stroke-linejoin="round" stroke-miterlimit="10" x1="20.5" y1="26.8" x2="31.8" y2="20.3"/>
				<g>
					
						<line fill="none" stroke="#000000" stroke-width="2" stroke-linecap="round" stroke-linejoin="round" stroke-miterlimit="10" x1="19.6" y1="38.8" x2="21.4" y2="42"/>
					
						<line fill="none" stroke="#000000" stroke-width="2" stroke-linecap="round" stroke-linejoin="round" stroke-miterlimit="10" x1="22.5" y1="35.6" x2="24.9" y2="39.9"/>
					
						<line fill="none" stroke="#000000" stroke-width="2" stroke-linecap="round" stroke-linejoin="round" stroke-miterlimit="10" x1="22.6" y1="30.3" x2="26.8" y2="27.9"/>
				</g>
			</g>
		</g>
	</g>
</g>
</svg>
