<?xml version="1.0" encoding="utf-8"?>
<!-- Generator: Adobe Illustrator 19.1.0, SVG Export Plug-In . SVG Version: 6.00 Build 0)  -->
<svg version="1.1" id="emoji" xmlns="http://www.w3.org/2000/svg" xmlns:xlink="http://www.w3.org/1999/xlink" x="0px" y="0px"
	 viewBox="0 0 72 72" enable-background="new 0 0 72 72" xml:space="preserve">
<g id="_xD83C__xDFBB__1_">
	<polygon fill="#A57939" points="60.2,12.8 58.1,14.2 58.8,15 	"/>
	<path fill="#A57939" d="M13.2,56.2l3.6-3.5c0,0,1.2-0.8,2.4,0.5c1.3,1.3,0.5,2.4,0.5,2.4l-3.4,3.7"/>
	<path fill="#A57939" d="M55.9,18.8c-0.3,0.1-0.7,0-1-0.2l-0.4-0.4L33.2,38.5c-0.2,0.2-0.4,0.3-0.7,0.3c-0.2,0-0.3-0.1-0.5-0.1
		l1.6,1.5L55.9,18.8C55.9,18.9,55.9,18.8,55.9,18.8z"/>
	
		<polyline fill="none" stroke="#000000" stroke-width="2" stroke-linecap="round" stroke-linejoin="round" stroke-miterlimit="10" points="
		32.5,37.8 54.6,16.7 55.7,17.8 	"/>
	<path fill="#6A462F" d="M44,36.8c-0.1-0.1-0.4-0.6-0.8-1.1c-0.1-0.1-0.2-0.2-0.2-0.3c0-0.1,0-0.2,0-0.3c0,0,0,0,0-0.1
		c0-0.2,0.1-0.5,0.3-0.7l-1.8-1.8l-7.2,6.9l0,0l-0.6,0.6L32,38.6c-0.1,0-0.2-0.1-0.2-0.2c-0.4-0.4-0.4-1,0-1.4l6.5-6.3
		c0,0-0.1-0.1-0.1-0.2c0,0,0,0-0.1-0.1c-0.1-0.1-0.1-0.1-0.2-0.2c0,0-0.1-0.1-0.1-0.1c-0.1-0.1-0.1-0.1-0.2-0.2c0,0-0.1-0.1-0.1-0.1
		c-0.1-0.1-0.1-0.1-0.2-0.2c0,0-0.1-0.1-0.1-0.1c-0.1-0.1-0.1-0.1-0.2-0.2c0,0-0.1-0.1-0.1-0.1c0,0-0.1-0.1-0.1-0.1
		c-0.1,0-0.1-0.1-0.2-0.1c0,0-0.1-0.1-0.1-0.1c-0.1-0.1-0.1-0.1-0.2-0.1c-0.7-0.4-1.6-0.5-2.4-0.3c-0.1,0-0.4,0.1-0.5,0.1
		c0,0-0.5,0.2-0.7,0.3c-0.1,0-0.1,0.1-0.2,0.1c-0.6,0.4-1.3,0.8-2,1.3c-0.6,0.4-1.3,0.9-2,1.3c-0.8,0.5-1.4,0.7-1.9,0.9
		c0.1,0.2,0.2,0.4,0.2,0.6c1,3.1-0.7,6.5-3.8,7.6c-1.6,0.5-3.3,0.4-4.7-0.4c-0.2,0.2-0.3,0.4-0.5,0.7c-1.1,1.4-2.5,3.3-3.1,3.9
		c-0.3,0.3-0.6,0.7-0.8,1c-0.1,0.1-0.1,0.1-0.2,0.2c-0.2,0.3-0.5,0.7-0.6,1.1c0,0,0,0.1-0.1,0.1c-0.2,0.3-0.3,0.7-0.4,1.1
		c0,0,0,0.1-0.1,0.1c-0.1,0.4-0.2,0.8-0.3,1.2c0,0,0,0.1,0,0.1c-0.1,0.8-0.1,1.7,0,2.5c0,0,0,0,0,0.1c0.1,0.9,0.4,1.7,0.7,2.5l3.1-3
		c0,0,0.1-0.1,0.1-0.1c0.6-0.4,2.2-0.8,3.7,0.6c1.4,1.4,1,3,0.6,3.7c0,0-0.1,0.1-0.1,0.1l-2.9,3.2c0.8,0.4,1.6,0.6,2.5,0.8
		c0,0,0,0,0,0c0.8,0.1,1.7,0.1,2.5,0c0,0,0,0,0.1,0c0.4-0.1,0.8-0.2,1.2-0.3c0.1,0,0.1,0,0.2-0.1c0.4-0.1,0.7-0.3,1.1-0.4
		c0,0,0.1,0,0.1,0c0.4-0.2,0.7-0.4,1.1-0.6c0.1-0.1,0.2-0.1,0.2-0.2c0.3-0.2,0.7-0.5,1-0.8c0.7-0.6,2.6-2,4-3
		c0.3-0.2,0.5-0.4,0.7-0.5c-0.7-1.5-0.8-3.2-0.3-4.7c1.1-3.1,4.6-4.7,7.7-3.6c0.2,0.1,0.4,0.2,0.6,0.3c0.1-0.5,0.4-1.1,0.9-1.9
		c0.4-0.7,0.9-1.3,1.3-1.9c0.5-0.7,1-1.3,1.3-1.9c0.1-0.1,0.1-0.1,0.1-0.2c0.1-0.2,0.3-0.7,0.3-0.8c0-0.1,0.1-0.4,0.1-0.5
		C44.5,38.4,44.4,37.5,44,36.8z M27.3,43.4c0.4-0.4,1-0.5,1.4-0.1c0.4,0.4,0.8,0.7,1.2,1.2c0.4,0.4,0.3,1-0.1,1.4
		c-0.2,0.2-0.4,0.3-0.7,0.3c-0.3,0-0.6-0.1-0.7-0.3c-0.3-0.3-0.6-0.7-1-0.9C27,44.5,27,43.8,27.3,43.4z M20.6,48
		c-0.2,0.1-0.4,0.2-0.6,0.2c-0.3,0-0.6-0.1-0.8-0.4c-0.3-0.4-0.2-1.1,0.2-1.4l4.3-3.2c0.4-0.3,1.1-0.2,1.4,0.2
		c0.3,0.4,0.2,1.1-0.2,1.4L20.6,48z M30,49.5l-3.5,4.1C26.3,53.9,26,54,25.8,54c-0.2,0-0.5-0.1-0.6-0.2c-0.4-0.4-0.5-1-0.1-1.4
		l3.5-4.1c0.4-0.4,1-0.5,1.4-0.1C30.3,48.5,30.3,49.1,30,49.5z"/>
	<g>
		
			<line fill="none" stroke="#000000" stroke-width="2" stroke-linecap="round" stroke-linejoin="round" stroke-miterlimit="10" x1="55.1" y1="21.4" x2="56.4" y2="22.7"/>
		
			<line fill="none" stroke="#000000" stroke-width="2" stroke-linecap="round" stroke-linejoin="round" stroke-miterlimit="10" x1="51" y1="17.3" x2="52.1" y2="18.5"/>
		
			<line fill="none" stroke="#000000" stroke-width="2" stroke-linecap="round" stroke-linejoin="round" stroke-miterlimit="10" x1="53" y1="23.5" x2="54.5" y2="25.1"/>
		
			<line fill="none" stroke="#000000" stroke-width="2" stroke-linecap="round" stroke-linejoin="round" stroke-miterlimit="10" x1="49" y1="19.5" x2="49.9" y2="20.4"/>
		
			<line fill="none" stroke="#000000" stroke-width="2" stroke-linecap="round" stroke-linejoin="round" stroke-miterlimit="10" x1="62.6" y1="17.8" x2="64" y2="16.5"/>
		
			<line fill="none" stroke="#000000" stroke-width="2" stroke-linecap="round" stroke-linejoin="round" stroke-miterlimit="10" x1="55.5" y1="10.7" x2="56.8" y2="9.4"/>
		<path fill="none" stroke="#000000" stroke-width="2" stroke-linecap="round" stroke-linejoin="round" stroke-miterlimit="10" d="
			M43.9,35.1c0.5,0.6,1,1.2,1,1.3c0.4,0.9,0.6,2,0.4,3.1c0,0.1-0.1,0.5-0.2,0.6c0,0-0.2,0.6-0.4,0.8c-0.1,0.1-0.1,0.2-0.2,0.3
			c-0.7,1.2-1.8,2.5-2.7,3.9c-1,1.5-0.8,2.2-1.2,2.9c-0.4-0.4-0.9-0.7-1.5-0.9c-2.6-0.9-5.5,0.4-6.4,3c-0.6,1.6-0.3,3.3,0.7,4.6
			c-0.3,0.3-4.4,3.2-5.4,4c-4.2,3.7-9.8,3.6-13.9-0.3L14,58.2c-3.7-4.1-3.7-9.8,0.1-13.9c0.9-0.9,3.9-5,4.1-5.3c1.3,1,3,1.3,4.6,0.8
			c2.6-0.9,4-3.7,3.2-6.3c-0.2-0.6-0.5-1.1-0.8-1.5c0.8-0.3,1.4-0.2,2.9-1.1c1.4-0.9,2.8-1.9,4-2.6c0.1-0.1,0.2-0.1,0.3-0.1
			c0.2-0.1,0.8-0.4,0.9-0.4c0.2,0,0.6-0.1,0.7-0.1c1.1-0.2,2.2,0,3.1,0.5c0.1,0,2,1.7,2.4,2.3"/>
		
			<line fill="none" stroke="#000000" stroke-width="2" stroke-linecap="round" stroke-linejoin="round" stroke-miterlimit="10" x1="29.2" y1="48.9" x2="25.8" y2="53"/>
		
			<line fill="none" stroke="#000000" stroke-width="2" stroke-linecap="round" stroke-linejoin="round" stroke-miterlimit="10" x1="20" y1="47.2" x2="24.3" y2="44"/>
		
			<polygon fill="none" stroke="#000000" stroke-width="2" stroke-linecap="round" stroke-linejoin="round" stroke-miterlimit="10" points="
			59,16.5 56.5,14.1 60.7,11.3 61.7,12.4 		"/>
		
			<polyline fill="none" stroke="#000000" stroke-width="2" stroke-linecap="round" stroke-linejoin="round" stroke-miterlimit="10" points="
			32.5,37.8 54.6,16.7 55.7,17.8 		"/>
		<path fill="none" stroke="#000000" stroke-width="2" stroke-linecap="round" stroke-linejoin="round" stroke-miterlimit="10" d="
			M13.2,56.2l3.6-3.5c0,0,1.2-0.8,2.4,0.5c1.3,1.3,0.5,2.4,0.5,2.4l-3.4,3.7"/>
		<path fill="none" stroke="#000000" stroke-width="2" stroke-linecap="round" stroke-linejoin="round" stroke-miterlimit="10" d="
			M28.1,44.1c0.4,0.3,0.7,0.7,1.1,1"/>
	</g>
</g>
</svg>
