<?xml version="1.0" encoding="utf-8"?>
<!-- Generator: Adobe Illustrator 21.1.0, SVG Export Plug-In . SVG Version: 6.00 Build 0)  -->
<svg version="1.1" id="emoji" xmlns="http://www.w3.org/2000/svg" xmlns:xlink="http://www.w3.org/1999/xlink" x="0px" y="0px"
	 viewBox="0 0 72 72" enable-background="new 0 0 72 72" xml:space="preserve">
<g id="_xD83C__xDFCC__xFE0F__1_">
	<circle fill="#FCEA2B" cx="39" cy="11.1" r="3"/>
	<g>
		<path fill="#FCEA2B" d="M30,51.5"/>
	</g>
	<path fill="#D0CFCE" d="M53.9,15.8L57,16l1,3c1,2-3,3.2-4,0.2"/>
	<path fill="#FCEA2B" d="M33.2,20c-4.1,0.5-5.8,0.2-6.4-0.6c-0.5-0.8-0.2-4.5-0.4-8.8l-2.2-1.2l0,10.9l1.4,2l5.2,0.8l1.3-0.6
		L33.2,20z"/>
	<g>
		<path fill="#FCEA2B" d="M28,11l2,5l10,3l1,3l-1,11l1,4l1,14l4,16h-3l-6-16l-2-11h-1l-1,10l-2,17h-3V49l1-13l2-9l2.2-6.9
			c-0.8-0.3-3.5-0.9-4.6-2.2s-3.3-5.8-3.4-7.4"/>
	</g>
	<g>
		<path fill="none" stroke="#000000" stroke-width="2" stroke-linecap="round" stroke-linejoin="round" stroke-miterlimit="10" d="
			M30,51.5"/>
	</g>
	<g>
		<path fill="none" stroke="#000000" stroke-width="2" stroke-linecap="round" stroke-linejoin="round" stroke-miterlimit="10" d="
			M33,21l-1.4,4.1c-0.3,1-0.8,2.8-1.1,3.8L29.4,34c-0.2,1.1-0.5,2.8-0.6,3.9l-0.7,9c-0.1,1.1-0.2,2.9-0.2,4v14c0,1.1,0.7,2,1.5,2
			c0.8,0,1.6-0.9,1.7-2l1.5-13c0.1-1.1,0.3-2.9,0.4-4l0.6-6c0.1-1.1,0.4-2,0.7-2c0.3,0,0.7,0.9,0.9,2l1.3,7.1
			c0.2,1.1,0.7,2.8,1.1,3.8l4.6,12.3c0.4,1,1.4,1.9,2.2,1.9c0.8,0,1.3-0.9,1-1.9l-3-12.1c-0.3-1.1-0.5-2.8-0.6-3.9l-0.7-10
			c-0.1-1.1-0.4-2.9-0.6-3.9l0-0.1c-0.3-1.1-0.4-2.8-0.3-3.9l0.6-7c0.1-1.1,0-2.7-0.3-3.5c-0.3-0.8-1.4-1.8-2.4-2.1l-6.2-1.9
			c-1.1-0.3-2.2-1.4-2.7-2.4L28,11"/>
	</g>
	<circle fill="none" stroke="#000000" stroke-width="2" stroke-miterlimit="10" cx="39" cy="11.1" r="3"/>
	<g>
		<path fill="none" stroke="#000000" stroke-width="2" stroke-linecap="round" stroke-linejoin="round" stroke-miterlimit="10" d="
			M32,23l-5-0.6c-1.6-0.2-3-1.7-3-3.4v-9"/>
	</g>
	<path fill="none" stroke="#000000" stroke-width="2" stroke-linecap="round" stroke-linejoin="round" stroke-miterlimit="10" d="
		M45.8,13.8L57,16l1,3c1,2-2,3-3,0"/>
	
		<line fill="none" stroke="#000000" stroke-width="2" stroke-linecap="round" stroke-linejoin="round" stroke-miterlimit="10" x1="21" y1="9" x2="32" y2="11.1"/>
</g>
</svg>
