<?xml version="1.0" encoding="utf-8"?>
<!-- Generator: Adobe Illustrator 21.1.0, SVG Export Plug-In . SVG Version: 6.00 Build 0)  -->
<svg version="1.1" id="emoji" xmlns="http://www.w3.org/2000/svg" xmlns:xlink="http://www.w3.org/1999/xlink" x="0px" y="0px"
	 viewBox="0 0 72 72" enable-background="new 0 0 72 72" xml:space="preserve">
<g id="_xD83C__xDFC7__1_">
	<path fill="#F8EB2B" d="M46,44"/>
	<path fill="#A57939" d="M54,49c-1-2,4-5,4-8c0-1.6-1-6-5-7c-1.7-0.4-4-1.4-6.2-1.3c-9.5,0.6-15.2,2.9-18.8,2c-1-0.2-8.8-8-9.4-8.7
		l-3.5-3.4l-0.5,3.7C11.5,28.4,11,30,6,34c-0.6,0.4,1.3,2.2,2,2c4-1,8-1,8-1s1.9,6.2,2,8c0.1,2,0,6,1,7c1.6,1.6,3,2,3,2s-2,4-3,6
		c-0.6,1.3-0.4,2.6,0,3c2,2,8,4,8,4l1-3c0,0-5-2-5-3c0-1.1,4-4,5-6c0,0,6.6-0.4,9-1c1.7-0.4,7-2.8,10.6-4.4c1.8,2.6,4.2,5.7,4.2,6.4
		l-4,5l2,1c0,0,5-4,6-5c0.4-0.4,0.2-1.5,0-2C55.2,51.7,54.6,50.3,54,49z"/>
	<path fill="#F8EB2B" d="M48,48"/>
	<path fill="#6A462F" d="M48,49c0,0-2.1,6.8-3,9c-0.9,2.3-2,8-2,8l4.2-1.2l2.4-4.9l-1.2-0.2v-2.6l2.9-3"/>
	<path fill="#6A462F" d="M56,35c0,0-1,0,2,0s7,3,6,7c-0.7,2.9-4.1,5.6,0.9,10.6c0,0,0.7,2.8-2,2c0,0-2.4-0.9-3.4-4.1
		c-1.8-5.5,1.7-8.2,1-10.2c-0.4-1.2-2.3-1.1-2.3-1.1"/>
	<path fill="#6A462F" d="M21.3,52.1l-1.1,2.9c-0.6,0.2-4.4,1.5-4.3,2.7C16.1,59.6,15,65,15,65l-2,1c0,0-2-8-2-9c0-0.8,0-2,1-3
		s6-4,6-4"/>
	<circle fill="#FCEA2B" cx="28.4" cy="13.1" r="3"/>
	<g>
		<path fill="#FCEA2B" d="M34,28l1,3l-6.8,8l-0.1,2.3L33,50l3.4-2L33,40l9-5l2-4l-9-13l-5,1l2,7l-8,2.2c0,0,0.8,1.7,1.9,1.5
			s6-1,7.2-2.2"/>
	</g>
	<circle fill="none" stroke="#000000" stroke-width="2" stroke-miterlimit="10" cx="28.4" cy="13.1" r="3"/>
	<g>
		<path fill="none" stroke="#000000" stroke-width="2" stroke-linecap="round" stroke-linejoin="round" stroke-miterlimit="10" d="
			M25,28l5.1-1.5c1.1-0.3,1.7-1.4,1.4-2.5l-0.9-3.2c-0.3-1.1,0.3-2.1,1.4-2.3l1.1-0.2c1.1-0.2,2.5,0.3,3.1,1.3l6.7,9.7
			c0.6,0.9,0.7,2.4,0.2,3.4l-0.2,0.4c-0.5,1-1.7,2.2-2.6,2.8L34.7,39c-1,0.5-1.4,1.8-1,2.8l1.8,4.3c0.4,1,0,2.3-0.9,2.8
			c-0.9,0.5-2.2,0.2-2.7-0.7l-2.9-5.2c-0.5-1-1-2.3-0.9-2.9c0-0.6,0.6-1.8,1.3-2.7l4.2-5c0.7-0.8,1.1-2.2,0.8-3
			C34.2,28.7,34,28,34,28"/>
	</g>
	<path fill="none" stroke="#000000" stroke-width="2" stroke-linecap="round" stroke-linejoin="round" stroke-miterlimit="10" d="
		M46,44"/>
	<path fill="none" stroke="#000000" stroke-width="2" stroke-linecap="round" stroke-linejoin="round" stroke-miterlimit="10" d="
		M48,48"/>
	<path fill="none" stroke="#000000" stroke-width="2" stroke-linecap="round" stroke-linejoin="round" stroke-miterlimit="10" d="
		M27,35c-1-1-3.5-4.5-6-7c-1-1-3-2-3-2l-2-3"/>
	<path fill="none" stroke="#000000" stroke-width="2" stroke-linecap="round" stroke-linejoin="round" stroke-miterlimit="10" d="
		M46,40c0,0-1,3,0,5c1.2,2.4,5.8,8,5.8,9L49,57c0,0-1.1,0.7-1.1,1.4c0,1.9,1.9,1.6,1.9,1.6s6.4-5.6,6.2-6c-0.5-1.3-1.4-3.7-2-5
		c-1-2,4-5,4-8c0-1.6-1-6-5-7c-1.7-0.4-3.8-0.5-6-0.3"/>
	<path fill="none" stroke="#000000" stroke-width="2" stroke-linecap="round" stroke-linejoin="round" stroke-miterlimit="10" d="
		M24,64c-1.8-0.8-4-2-5-3c-0.4-0.4-0.6-1.7,0-3c1-2,3-6,3-6s-1.4-0.4-3-2c-1-1-0.9-5-1-7c-0.1-1.8-2-8-2-8s-4,0-8,1
		c-0.7,0.2-2.6-1.6-2-2c5-4,5-4,8-6"/>
	<g>
		<path fill="none" stroke="#000000" stroke-width="2" stroke-linecap="round" stroke-linejoin="round" stroke-miterlimit="10" d="
			M26,61c0,0,0.6,0.5,1.2,1.2c0.7,0.6,0.7,1.7,0,2.4c-0.7,0.7-1.7,0.8-2.2,0.3c-0.6-0.5-1-0.9-1-0.9"/>
	</g>
	<path fill="none" stroke="#000000" stroke-width="2" stroke-linecap="round" stroke-linejoin="round" stroke-miterlimit="10" d="
		M47,48c0,0-7.4,3.4-10,4c-2.4,0.6-9,1-9,1c-4,4-5,6-5,6s1.6,1.3,3,2"/>
	<g>
		<path fill="none" stroke="#000000" stroke-width="2" stroke-linecap="round" stroke-linejoin="round" stroke-miterlimit="10" d="
			M48,49c0,0-2.1,6.8-3,9c-0.5,1.2-0.6,1.9-1.5,4c-0.8,1.8-0.9,2.1-0.9,2.1c-0.3,1.1,0.1,2.1,1,2.4c0.8,0.3,1.9-0.3,2.4-1.3l1-2.1"
			/>
	</g>
	<g>
		<path fill="none" stroke="#000000" stroke-width="2" stroke-linecap="round" stroke-linejoin="round" stroke-miterlimit="10" d="
			M15,62v2c0,1.1-0.7,2-1.5,2c-0.8,0-1.5-0.7-1.5-1.6c0,0,0,0,0-2.4"/>
	</g>
	<path fill="none" stroke="#000000" stroke-width="2" stroke-linecap="round" stroke-linejoin="round" stroke-miterlimit="10" d="
		M18,50c0,0-5,3-6,4s-1,2.2-1,3c0,0.5,0.5,2.9,1,5"/>
	<path fill="none" stroke="#000000" stroke-width="2" stroke-linecap="round" stroke-linejoin="round" stroke-miterlimit="10" d="
		M56,35c0,0-1,0,2,0s7,3,6,7c-0.7,2.9-5,6,0,11"/>
	
		<line fill="none" stroke="#000000" stroke-width="2" stroke-linecap="round" stroke-linejoin="round" stroke-miterlimit="10" x1="15" y1="58" x2="15" y2="62"/>
</g>
</svg>
