<svg id="emoji" viewBox="0 0 72 72" xmlns="http://www.w3.org/2000/svg">
  <g id="color">
    <path fill="#fcea2b" d="m41.5853,12.081l-21.3404-.1065c.072.333,2.1834,8.7995,3.9434,17.6035.112.562.239,1.1.373,1.616.04.154.084.3.126.451.1.365.207.721.32,1.064.051.154.1.3.156.453.1213.3413.249.6713.383.99.049.117.1.236.147.35.183.413.376.81.582,1.183l.01.019c.2198.3981.4604.7843.721,1.157l.025.034c.2309.3262.4792.6397.744.939.042.047.085.093.128.139.2358.258.4852.5034.747.735.042.037.084.076.127.112,2.0451,1.6637,4.6303,2.5178,7.264,2.4.9852.0032,1.968-.1,2.931-.308,4.4137-10.1309,4.3193-19.5704,2.613-28.831Z"/>
    <path fill="#f1b31c" d="m41.5853,12.081c.6086,9.4384,1.8951,17.5-3.112,29.828,4.706-1.027,8.576-5.732,9.922-12.46,1.457-7.282,3.1185-16.6378,3.1935-16.9758,0,0-10.0035-.3922-10.0035-.3922Z"/>
    <path fill="#fcea2b" d="m31.4213,51.333h-3.871v7.167h10.958v-7.167h-7.087Z"/>
    <path fill="#f1b31c" d="m43.8833,51.333h-5.375v7.167h5.375v-7.167Z"/>
    <circle cx="36.0373" cy="24.581" r="4" fill="#f1b31c"/>
  </g>
  <g id="line">
    <path fill="none" stroke="#000" stroke-linecap="round" stroke-linejoin="round" stroke-width="2" d="m52.219,11.832c.1581,0,.275.1446.2389.2984-.2055.8767-.9426,4.2922-3.5876,17.5156-1.588,7.942-5.5,12.572-12.833,12.572s-11.245-4.5-12.833-12.443c-2.414-11.8492-3.667-17.943-3.667-17.943h32.6817Z"/>
    <path fill="none" stroke="#000" stroke-linecap="round" stroke-linejoin="round" stroke-width="2" d="m23.0443,31.479s.079-.261-5.421-3.928c-2.528-1.683-5.459-3.9-5.459-6.943s2.5-5.11,5.539-5.11h1.513"/>
    <path fill="none" stroke="#000" stroke-linecap="round" stroke-linejoin="round" stroke-width="2" d="m48.7113,31.766s.079-.261,5.579-3.928c2.528-1.683,5.541-3.9,5.541-6.943-.0146-2.842-2.3303-5.1341-5.1723-5.1196-.0963.0005-.1926.0037-.2887.0096h-2.154"/>
    <rect x="26.5503" y="50.332" width="18.333" height="9.167" fill="none" stroke="#000" stroke-linecap="round" stroke-linejoin="round" stroke-width="2"/>
    <circle cx="36.0373" cy="24.581" r="5" fill="none" stroke="#000" stroke-linecap="round" stroke-linejoin="round" stroke-width="2"/>
    <line x1="36.0373" x2="36.0373" y1="50.332" y2="42.218" fill="none" stroke="#000" stroke-linecap="round" stroke-linejoin="round" stroke-width="2"/>
  </g>
</svg>
