<?xml version="1.0" encoding="utf-8"?>
<!-- Generator: Adobe Illustrator 21.1.0, SVG Export Plug-In . SVG Version: 6.00 Build 0)  -->
<svg version="1.1" id="emoji" xmlns="http://www.w3.org/2000/svg" xmlns:xlink="http://www.w3.org/1999/xlink" x="0px" y="0px"
	 viewBox="0 0 72 72" enable-background="new 0 0 72 72" xml:space="preserve">
<g id="_xD83C__xDFCD__xFE0F__1_">
	<g>
		<ellipse fill="#9B9B9A" cx="12" cy="48" rx="7" ry="7"/>
		<ellipse fill="#9B9B9A" cx="53" cy="48" rx="8" ry="8"/>
		<path fill="none" stroke="#000000" stroke-width="2" stroke-linecap="round" stroke-linejoin="round" stroke-miterlimit="10" d="
			M45.1,44"/>
		<path fill="#EA5A47" d="M12.1,35.1c-1.2-0.7-2-1.1-2-1.1s3.8-6.4,9-9c4-2,11-3,11-3v3l-6,4l4,3l8-2l7,6c0,0,7-3,10-6v-2l14-3l-1,3
			c0,0-22,16-28,16l5,6h-20c0,0,0-6-1-8c-0.5-1.1-4-3.2-7-5"/>
		<path fill="none" stroke="#000000" stroke-width="2" stroke-linecap="round" stroke-linejoin="round" stroke-miterlimit="10" d="
			M15.1,37c0,0,3-4,2-5"/>
		<polyline fill="#FCEA2B" points="65.1,30 67.1,32 65.4,33.7 62.9,31.1 		"/>
		<path fill="#FCEA2B" d="M15,38l-3-2c0,0,4-5,5-5S15,38,15,38z"/>
		<path fill="#D22F27" d="M28.1,32c0,4.8,4.9,7.7,8.6,7.7c3.1,0,10.1-4.9,12.5-5.3c1.7-0.3,1.5-1.9,4.1-2.7
			c1.6-0.5,10.2-4.5,12.8-4.2c1.6,0.2-2.5,2.3-1.3,1.6c6.7-3.7-25,14.7-25,14.7L37,44l-7.8-3.7l-5.7-5.5v-5.5L28.1,32z"/>
		<polygon fill="#3F3F3F" points="39.5,32.5 42,36 50.5,33 53.1,30 53.1,28 		"/>
		<polygon fill="#D0CFCE" points="40.2,45.4 45.8,46 48.6,45 52.7,42.9 59.6,39.8 59.8,38.5 56,34.9 48,40.3 40.3,43.3 38.9,44 
			39.5,45 		"/>
	</g>
	<ellipse fill="none" stroke="#000000" stroke-width="2" stroke-miterlimit="10" cx="12" cy="48" rx="7" ry="7"/>
	<path fill="none" stroke="#000000" stroke-width="2" stroke-linecap="round" stroke-linejoin="round" stroke-miterlimit="10" d="
		M45.1,44"/>
	<path fill="none" stroke="#000000" stroke-width="2" stroke-linecap="round" stroke-linejoin="round" stroke-miterlimit="10" d="
		M15.1,37c3,1.8,6.5,3.9,7,5c1,2,1,9,1,9h20c0,0-0.5-6-12.3-10c-2-0.7-11.5-7.2-6.7-12"/>
	<path fill="none" stroke="#000000" stroke-width="2" stroke-linecap="round" stroke-linejoin="round" stroke-miterlimit="10" d="
		M12.1,35.1c-1.2-0.7-2-1.1-2-1.1s3.8-6.4,9-9c4-2,11-3,11-3v3l-6,4l4,3c0,0,6.7-3.6,10-1c1.9,1.5,4,5,4,5s8-2,11-5v-3l14-3l-1,3
		c0,0-22.5,16.2-28.5,16.2"/>
	<path fill="none" stroke="#000000" stroke-width="2" stroke-linecap="round" stroke-linejoin="round" stroke-miterlimit="10" d="
		M15.1,37c0,0,3-4,2-5"/>
	
		<line fill="none" stroke="#000000" stroke-width="2" stroke-linecap="round" stroke-linejoin="round" stroke-miterlimit="10" x1="18.1" y1="40" x2="12" y2="48"/>
	
		<polyline fill="none" stroke="#000000" stroke-width="2" stroke-linecap="round" stroke-linejoin="round" stroke-miterlimit="10" points="
		65.1,30 67.1,32 66.1,33 	"/>
	
		<polyline fill="none" stroke="#000000" stroke-width="2" stroke-linecap="round" stroke-linejoin="round" stroke-miterlimit="10" points="
		59,39 48.1,45 46,45 	"/>
	<path fill="none" stroke="#000000" stroke-width="2" stroke-linecap="round" stroke-linejoin="round" stroke-miterlimit="10" d="
		M53.1,28c-5.3,2.8-10.3,4-14,4"/>
	<path fill="none" stroke="#000000" stroke-width="2" stroke-linecap="round" stroke-miterlimit="10" d="M46.3,49.9
		c0.8,2.9,3.5,5.1,6.8,5.1c3.9,0,7-3.1,7-7c0-1.7-0.6-3.2-1.6-4.4"/>
</g>
</svg>
