<svg id="emoji" xmlns="http://www.w3.org/2000/svg" viewBox="0 0 72 72">
  <g id="color">
    <path fill="#f4aa41" d="M58.6194,13.2261c-12.3292-3.2325-25.9985-0.0171-35.6616,9.646 c-9.6832,9.6832-12.8918,23.3893-9.6257,35.7385l0.0486,0.0486c12.3292,3.2325,25.9985,0.0171,35.6616-9.646 C58.7255,39.33,61.934,25.6239,58.668,13.2747" stroke="none"/>
    <path fill="#e27022" d="M60.0187,20.3525c-1.4674,9.6513-6.7618,19.7594-15.3964,25.7913 c-9.7444,6.8072-21.6281,8.2594-32.1623,4.9803c0.1342,2.5292,0.5149,5.0476,1.1665,7.5114l0.0484,0.0484 c12.283,3.2204,25.9011,0.017,35.5281-9.6099C56.8108,41.4663,60.4342,30.3167,60.0187,20.3525z" stroke="none"/>
  </g>
  <g id="hair"/>
  <g id="skin"/>
  <g id="skin-shadow"/>
  <g id="line">
    <path fill="none" stroke="#000000" stroke-width="2" stroke-linecap="round" stroke-linejoin="round" stroke-miterlimit="10" d="M58.6194,13.2261c-12.3292-3.2325-25.9985-0.0171-35.6616,9.646c-9.6832,9.6832-12.8918,23.3893-9.6257,35.7385l0.0486,0.0486 c12.3292,3.2325,25.9985,0.0171,35.6616-9.646C58.7255,39.33,61.934,25.6239,58.668,13.2747"/>
    <line fill="none" stroke="#000000" stroke-width="2" stroke-linecap="round" stroke-linejoin="round" stroke-miterlimit="10" x1="58.6692" y1="13.276" x2="13.3333" y2="58.6119"/>
    <line fill="none" stroke="#000000" stroke-width="2" stroke-linecap="round" stroke-linejoin="round" stroke-miterlimit="10" x1="41.5751" y1="34.4467" x2="37.4959" y2="30.3675"/>
    <line fill="none" stroke="#000000" stroke-width="2" stroke-linecap="round" stroke-linejoin="round" stroke-miterlimit="10" x1="45.1107" y1="30.9112" x2="41.0314" y2="26.832"/>
    <line fill="none" stroke="#000000" stroke-width="2" stroke-linecap="round" stroke-linejoin="round" stroke-miterlimit="10" x1="38.0396" y1="37.9823" x2="33.9604" y2="33.903"/>
    <line fill="none" stroke="#000000" stroke-width="2" stroke-linecap="round" stroke-linejoin="round" stroke-miterlimit="10" x1="34.5041" y1="41.5178" x2="30.4248" y2="37.4386"/>
    <line fill="none" stroke="#000000" stroke-width="2" stroke-linecap="round" stroke-linejoin="round" stroke-miterlimit="10" x1="30.9685" y1="45.0533" x2="26.8893" y2="40.9741"/>
    <path fill="none" stroke="#000000" stroke-width="2" stroke-linecap="round" stroke-linejoin="round" stroke-miterlimit="10" d="M26.0156,36.0794c0-1.7991,0.4751-3.4872,1.3066-4.9457"/>
    <path fill="none" stroke="#000000" stroke-width="2" stroke-linecap="round" stroke-linejoin="round" stroke-miterlimit="10" d="M41.0078,44.7461c-1.4691,0.8481-3.174,1.3333-4.9922,1.3333"/>
    <path fill="none" stroke="#000000" stroke-width="2" stroke-linecap="round" stroke-linejoin="round" stroke-miterlimit="10" d="M46.0156,36.0794c0,1.8198-0.4861,3.5261-1.3355,4.996"/>
    <path fill="none" stroke="#000000" stroke-width="2" stroke-linecap="round" stroke-linejoin="round" stroke-miterlimit="10" d="M30.9861,27.4344c1.4575-0.8498,3.1494-1.3415,4.9551-1.3547"/>
  </g>
</svg>
