<?xml version="1.0" encoding="utf-8"?>
<!-- Generator: Adobe Illustrator 21.1.0, SVG Export Plug-In . SVG Version: 6.00 Build 0)  -->
<svg version="1.1" id="emoji" xmlns="http://www.w3.org/2000/svg" xmlns:xlink="http://www.w3.org/1999/xlink" x="0px" y="0px"
	 viewBox="0 0 72 72" enable-background="new 0 0 72 72" xml:space="preserve">
<g id="_xD83C__xDFC9_">
	<path fill="#F4AA41" d="M58.6,13.2c-12.3-3.2-26,0-35.7,9.6c-9.7,9.7-12.9,23.4-9.6,35.7l0,0c12.3,3.2,26,0,35.7-9.6
		C58.7,39.3,61.9,25.6,58.6,13.2"/>
	<path fill="#A57939" d="M60,20.4c-1.5,9.7-6.8,19.8-15.4,25.8c-9.7,6.8-21.6,8.3-32.2,5c0.1,2.5,0.5,5,1.2,7.5l0,0
		c12.3,3.2,25.9,0,35.5-9.6C56.8,41.5,60.4,30.3,60,20.4z"/>
	<g>
		<path fill="none" stroke="#000000" stroke-width="2" stroke-linecap="round" stroke-linejoin="round" stroke-miterlimit="10" d="
			M58.6,13.2c-12.3-3.2-26,0-35.7,9.6c-9.7,9.7-12.9,23.4-9.6,35.7l0,0c12.3,3.2,26,0,35.7-9.6C58.7,39.3,61.9,25.6,58.6,13.2"/>
		
			<line fill="none" stroke="#000000" stroke-width="2" stroke-linecap="round" stroke-linejoin="round" stroke-miterlimit="10" x1="58.7" y1="13.3" x2="13.3" y2="58.6"/>
		<g>
			
				<line fill="none" stroke="#000000" stroke-width="2" stroke-linecap="round" stroke-linejoin="round" stroke-miterlimit="10" x1="41.6" y1="34.4" x2="37.5" y2="30.4"/>
			
				<line fill="none" stroke="#000000" stroke-width="2" stroke-linecap="round" stroke-linejoin="round" stroke-miterlimit="10" x1="45.1" y1="30.9" x2="41" y2="26.8"/>
			
				<line fill="none" stroke="#000000" stroke-width="2" stroke-linecap="round" stroke-linejoin="round" stroke-miterlimit="10" x1="38" y1="38" x2="34" y2="33.9"/>
			
				<line fill="none" stroke="#000000" stroke-width="2" stroke-linecap="round" stroke-linejoin="round" stroke-miterlimit="10" x1="34.5" y1="41.5" x2="30.4" y2="37.4"/>
			
				<line fill="none" stroke="#000000" stroke-width="2" stroke-linecap="round" stroke-linejoin="round" stroke-miterlimit="10" x1="31" y1="45.1" x2="26.9" y2="41"/>
		</g>
		<path fill="none" stroke="#000000" stroke-width="2" stroke-linecap="round" stroke-linejoin="round" stroke-miterlimit="10" d="
			M26,36.1c0-1.8,0.5-3.5,1.3-4.9"/>
		<path fill="none" stroke="#000000" stroke-width="2" stroke-linecap="round" stroke-linejoin="round" stroke-miterlimit="10" d="
			M41,44.7c-1.5,0.8-3.2,1.3-5,1.3"/>
		<path fill="none" stroke="#000000" stroke-width="2" stroke-linecap="round" stroke-linejoin="round" stroke-miterlimit="10" d="
			M46,36.1c0,1.8-0.5,3.5-1.3,5"/>
		<path fill="none" stroke="#000000" stroke-width="2" stroke-linecap="round" stroke-linejoin="round" stroke-miterlimit="10" d="
			M31,27.4c1.5-0.8,3.1-1.3,5-1.4"/>
	</g>
</g>
</svg>
