<svg id="emoji" xmlns="http://www.w3.org/2000/svg" viewBox="0 0 72 72">
  <g id="color">
    <polyline fill="#9B9B9A" points="10,34 10,17 20,17 20,34 	" stroke="none"></polyline>
    <rect x="34" y="21" fill="#9B9B9A" width="13" height="35" stroke="none"></rect>
    <polyline fill="#D0CFCE" stroke="none" stroke-miterlimit="10" points="51,56 51,25 67,25 67,56 	"></polyline>
    <polyline fill="#D0CFCE" stroke="none" stroke-miterlimit="10" points="5,56 5,34 39,34 39,56 	"></polyline>
  </g>
  <g id="hair"> </g>
  <g id="skin"> </g>
  <g id="skin-shadow"> </g>
  <g id="line">
    <polyline fill="none" stroke="#000000" stroke-miterlimit="10" points="51,56 51,25 67,25 67,56 	"></polyline>
    <polyline fill="none" stroke="#000000" stroke-miterlimit="10" points="5,56 5,34 39,34 39,56 	"></polyline>
    <polyline fill="none" stroke="#000000" stroke-width="2" stroke-linecap="round" stroke-linejoin="round" stroke-miterlimit="10" points="
		51,55 51,25 67,25 67,55 	"></polyline>
    <polyline fill="none" stroke="#000000" stroke-width="2" stroke-linecap="round" stroke-linejoin="round" stroke-miterlimit="10" points="
		5,55 5,34 39,34 39,55 	"></polyline>
    <polyline fill="none" stroke="#000000" stroke-width="2" stroke-linecap="round" stroke-linejoin="round" stroke-miterlimit="10" points="
		35,31 35,21 47,21 47,55 	"></polyline>
    <polyline fill="none" stroke="#000000" stroke-width="2" stroke-linecap="round" stroke-linejoin="round" stroke-miterlimit="10" points="
		11,31 11,17 19,17 19,31 	"></polyline>
    <polyline fill="none" stroke="#000000" stroke-width="2" stroke-linecap="round" stroke-linejoin="round" stroke-miterlimit="10" points="
		57,34 55,34 55,29 	"></polyline>
    <polyline fill="none" stroke="#000000" stroke-width="2" stroke-linecap="round" stroke-linejoin="round" stroke-miterlimit="10" points="
		63,34 61,34 61,29 	"></polyline>
    <polyline fill="none" stroke="#000000" stroke-width="2" stroke-linecap="round" stroke-linejoin="round" stroke-miterlimit="10" points="
		57,44 55,44 55,39 	"></polyline>
    <polyline fill="none" stroke="#000000" stroke-width="2" stroke-linecap="round" stroke-linejoin="round" stroke-miterlimit="10" points="
		63,44 61,44 61,39 	"></polyline>
    <polyline fill="none" stroke="#000000" stroke-width="2" stroke-linecap="round" stroke-linejoin="round" stroke-miterlimit="10" points="
		29,43 27,43 27,38 	"></polyline>
    <polyline fill="none" stroke="#000000" stroke-width="2" stroke-linecap="round" stroke-linejoin="round" stroke-miterlimit="10" points="
		35,43 33,43 33,38 	"></polyline>
    <polyline fill="none" stroke="#000000" stroke-width="2" stroke-linecap="round" stroke-linejoin="round" stroke-miterlimit="10" points="
		29,53 27,53 27,48 	"></polyline>
    <polyline fill="none" stroke="#000000" stroke-width="2" stroke-linecap="round" stroke-linejoin="round" stroke-miterlimit="10" points="
		35,53 33,53 33,48 	"></polyline>
    <polyline fill="none" stroke="#000000" stroke-width="2" stroke-linecap="round" stroke-linejoin="round" stroke-miterlimit="10" points="
		17,43 15,43 15,38 	"></polyline>
    <polyline fill="none" stroke="#000000" stroke-width="2" stroke-linecap="round" stroke-linejoin="round" stroke-miterlimit="10" points="
		23,43 21,43 21,38 	"></polyline>
    <polyline fill="none" stroke="#000000" stroke-width="2" stroke-linecap="round" stroke-linejoin="round" stroke-miterlimit="10" points="
		17,53 15,53 15,48 	"></polyline>
    <polyline fill="none" stroke="#000000" stroke-width="2" stroke-linecap="round" stroke-linejoin="round" stroke-miterlimit="10" points="
		11,43 9,43 9,38 	"></polyline>
    <polyline fill="none" stroke="#000000" stroke-width="2" stroke-linecap="round" stroke-linejoin="round" stroke-miterlimit="10" points="
		11,53 9,53 9,48 	"></polyline>
    <polyline fill="none" stroke="#000000" stroke-width="2" stroke-linecap="round" stroke-linejoin="round" stroke-miterlimit="10" points="
		23,53 21,53 21,48 	"></polyline>
    <polyline fill="none" stroke="#000000" stroke-width="2" stroke-linecap="round" stroke-linejoin="round" stroke-miterlimit="10" points="
		57,54 55,54 55,49 	"></polyline>
    <polyline fill="none" stroke="#000000" stroke-width="2" stroke-linecap="round" stroke-linejoin="round" stroke-miterlimit="10" points="
		63,54 61,54 61,49 	"></polyline>
    <line fill="none" stroke="#000000" stroke-width="2" stroke-linecap="round" stroke-linejoin="round" stroke-miterlimit="10" x1="15" y1="20" x2="15" y2="31"></line>
    <line fill="none" stroke="#000000" stroke-width="2" stroke-linecap="round" stroke-linejoin="round" stroke-miterlimit="10" x1="39" y1="24" x2="39" y2="31"></line>
    <line fill="none" stroke="#000000" stroke-width="2" stroke-linecap="round" stroke-linejoin="round" stroke-miterlimit="10" x1="43" y1="24" x2="43" y2="55"></line>
  </g>
</svg>