<?xml version="1.0" encoding="utf-8"?>
<!-- Generator: Adobe Illustrator 21.1.0, SVG Export Plug-In . SVG Version: 6.00 Build 0)  -->
<svg version="1.1" id="emoji" xmlns="http://www.w3.org/2000/svg" xmlns:xlink="http://www.w3.org/1999/xlink" x="0px" y="0px"
	 viewBox="0 0 72 72" enable-background="new 0 0 72 72" xml:space="preserve">
<g id="_xD83C__xDFDC__xFE0F__1_">
	
		<path fill="#F1B31C" stroke="#F1B31C" stroke-width="2" stroke-linecap="round" stroke-linejoin="round" stroke-miterlimit="10" d="
		M65,39c0,0-3,0-6,1c-0.9,0.3-2,0-2,0c-8.4,0-12-1.6-12-1.6s-5.8-3.5-7.9-4.4C35,33.1,33,29,33,29c-1-3-3.3-6-5-6
		c-4.2,0-6.3,5.8-11,9c-3,2-3.4,2.8-6,4c-2.3,1-3.5,3-4,4c0,0-3,1.9-3.1,5.7C3.9,49.4,7,52,7,52s5,6.8,13.8,3.9
		c9.2-3,10.2-1.5,13.7-0.8c4.6,1,15.7-0.3,19.2,1.2c6.3,2.8,10.8-2.5,11.4-3.3c1.2-1.6,0.8-4.1,1.8-5.5C69.8,43.4,68.9,42.4,65,39z"
		/>
	
		<path fill="#5B9E32" stroke="#5B9E32" stroke-width="2" stroke-linecap="round" stroke-linejoin="round" stroke-miterlimit="10" d="
		M48,49V26c0-1.7-1.3-3-3-3l0,0c-1.7,0-3,1.3-3,3v23H48z"/>
	<path fill="none" stroke="#000000" stroke-width="2" stroke-linecap="round" stroke-linejoin="round" stroke-miterlimit="10" d="
		M48,49V26c0-1.7-1.3-3-3-3l0,0c-1.7,0-3,1.3-3,3v23"/>
	
		<path fill="#5C9E31" stroke="#000000" stroke-width="2" stroke-linecap="round" stroke-linejoin="round" stroke-miterlimit="10" d="
		M41,35c-1.1,0-2-0.9-2-2v-2c0-1.1-0.9-2-2-2l0,0c-1.1,0-2,0.9-2,2v2c0,3.3,2.7,6,6,6"/>
	
		<path fill="#5C9E31" stroke="#000000" stroke-width="2" stroke-linecap="round" stroke-linejoin="round" stroke-miterlimit="10" d="
		M49,39c1.1,0,2-0.9,2-2v-5c0-1.1,0.9-2,2-2l0,0c1.1,0,2,0.9,2,2v5c0,3.3-2.7,6-6,6"/>
	<path fill="none" stroke="#000000" stroke-width="2" stroke-linecap="round" stroke-linejoin="round" stroke-miterlimit="10" d="
		M65,53c-1,0-5.2-0.8-6-1c-5-1-9.2-1.2-15,1c-8,3-8.9,2.3-10,2c-2.2-0.5-5.2-3.9-9-5c-4.7-1.4-6.1-1.1-9-1c-1.8,0.1-5.1,0.5-9,3"/>
	<path fill="none" stroke="#000000" stroke-width="2" stroke-linecap="round" stroke-linejoin="round" stroke-miterlimit="10" d="
		M7,40c0.5-1,1.7-3,4-4c2.6-1.2,3-2,6-4c4.7-3.2,6.8-9,11-9c1.7,0,4,3,5,6"/>
	<path fill="none" stroke="#000000" stroke-width="2" stroke-linecap="round" stroke-linejoin="round" stroke-miterlimit="10" d="
		M65,39c0,0-3,0-6,1c-0.9,0.3-2,0-2,0"/>
</g>
</svg>
