<?xml version="1.0" encoding="utf-8"?>
<!-- Generator: Adobe Illustrator 21.1.0, SVG Export Plug-In . SVG Version: 6.00 Build 0)  -->
<svg version="1.1" id="emoji" xmlns="http://www.w3.org/2000/svg" xmlns:xlink="http://www.w3.org/1999/xlink" x="0px" y="0px"
	 viewBox="0 0 72 72" enable-background="new 0 0 72 72" xml:space="preserve">
<g id="_xD83C__xDFD3_">
	<path fill="#987840" d="M14.1,33l31.5,16.9c0,0-8.6,3.6-19.3-1.1C26.2,48.8,17.3,43.3,14.1,33z"/>
	<g>
		<path fill="#EA5A47" d="M50.1,48.3c-0.1,0.1-0.2,0.2-0.4,0.3c-4.8,3.7-12.1,3.2-18.6,1.7l-0.1,0c0,0-1.1-0.2-1.6,0.9l-7-3.7
			c0.6-1-0.1-1.8-0.1-1.8l0,0c-7.3-6.7-11-14.9-5.7-24.8c6.1-11.5,18-21.8,32-14.3C59.9,12.5,62,23.3,59.1,33
			C59.1,33,56.7,42.6,50.1,48.3z"/>
		<line fill="#EA5A47" x1="45.5" y1="49.9" x2="14.5" y2="33.4"/>
	</g>
	<g>
		<path fill="none" stroke="#000000" stroke-width="2" stroke-linecap="round" stroke-linejoin="round" stroke-miterlimit="10" d="
			M29.4,51.2c0.5-1.1,1.6-0.9,1.6-0.9l0.1,0c6.7,1.6,13,1.2,18-2.5"/>
		<path fill="none" stroke="#000000" stroke-width="2" stroke-linecap="round" stroke-linejoin="round" stroke-miterlimit="10" d="
			M22.4,47.5c0.6-1-0.1-1.8-0.1-1.8l0,0c-7.3-6.7-11-14.9-5.7-24.8c6.1-11.5,18-21.8,32-14.3c11.3,6,12.5,16.3,9.7,26"/>
		
			<line fill="none" stroke="#000000" stroke-width="2" stroke-linecap="round" stroke-linejoin="round" stroke-miterlimit="10" x1="45.5" y1="49.9" x2="14.5" y2="33.4"/>
	</g>
	<g>
		<g>
			<path fill="#A57939" d="M21.8,70.2l4.1-8.9l7.8-17.7l-6.5-3.5L17,56.5l-4.6,7.4c-0.3,0.5-0.3,0.7-0.2,1.1l0,0
				c0.1,0.4,0.4,0.8,0.9,1.3c0,0,1.4,1.4,4.1,2.6C17.1,68.9,21.1,70.8,21.8,70.2z"/>
		</g>
		<g>
			<path fill="none" stroke="#000000" stroke-width="2" stroke-linecap="round" stroke-linejoin="round" stroke-miterlimit="10" d="
				M21.4,69.3l4-9L33,43.2L27,40.1L17.2,56l-4.5,7.1c-0.3,0.5-0.3,0.7-0.2,1.1v0c0.1,0.4,0.4,0.8,0.8,1.2c0,0,1.7,1.5,4.2,2.6"/>
		</g>
	</g>
	
		<circle fill="#FFFFFF" stroke="#000000" stroke-width="2" stroke-linecap="round" stroke-linejoin="round" stroke-miterlimit="10" cx="54.8" cy="40.9" r="5"/>
</g>
</svg>
