<?xml version="1.0" encoding="utf-8"?>
<!-- Generator: Adobe Illustrator 21.1.0, SVG Export Plug-In . SVG Version: 6.00 Build 0)  -->
<svg version="1.1" id="emoji" xmlns="http://www.w3.org/2000/svg" xmlns:xlink="http://www.w3.org/1999/xlink" x="0px" y="0px"
	 viewBox="0 0 72 72" enable-background="new 0 0 72 72" xml:space="preserve">
<g id="_xD83C__xDFD6__xFE0F_">
	<path fill="#F1B31C" d="M10,50c0-1,10.9-10.7,24-8.5c0.3,0.1,0.7,0.1,1,0.2l5.5,1.1c9,2.1,18.5,6.2,19.5,6.7c0,0,1.1,1.1,0.7,2.4
		c-0.4,1.3-3.5,2.1-3.5,2.1H28.6H11.8c0,0-1.2-0.6-1.8-1.8C9.5,50.9,10,50,10,50z"/>
	<path fill="#92D3F5" d="M12,55.5c1.7-2,4.3-5.4,7-5c2.9,0.5,4.6,4.1,6.4,4.1c2.9,0,4.5-3.6,8.6-4.1c3.6-0.4,3.6,2.3,6,3.7
		c1,0.6,2.6,0.3,3,0.3c3.7,0,5-4,8-4c4.1,0,7.4,1.6,8,5"/>
	<path fill="none" stroke="#000000" stroke-width="2" stroke-linecap="round" stroke-linejoin="round" stroke-miterlimit="10" d="
		M12,54.5c1.7-2,4.3-4.4,7-4c2.9,0.5,3.3,3.5,6,4c3.1,0.6,4.9-3.5,9-4c3.6-0.4,4.1,2.4,6.7,3.5c1,0.4,1.9,0.5,2.3,0.5
		c3.7,0,5-3.6,8-4c1.3-0.2,3.3,0.2,6,3"/>
	<path fill="none" stroke="#000000" stroke-width="2" stroke-linecap="round" stroke-linejoin="round" stroke-miterlimit="10" d="
		M41.7,44.1c9,2.1,15.1,4.4,18.3,4.4"/>
	<path fill="none" stroke="#000000" stroke-width="2" stroke-linecap="round" stroke-linejoin="round" stroke-miterlimit="10" d="
		M10,49c3.6-0.4,9.7-8.9,22.8-6.7c0.3,0.1,0.7,0.1,1,0.2"/>
	
		<path fill="#FFFFFF" stroke="#000000" stroke-width="2" stroke-linecap="round" stroke-linejoin="round" stroke-miterlimit="10" d="
		M52.2,33.5c1.2-6.5-3.4-12.8-10.2-14c-6.8-1.2-13.2,3.1-14.4,9.6L52.2,33.5z"/>
	
		<path fill="#EA5A47" stroke="#000000" stroke-width="2" stroke-linecap="round" stroke-linejoin="round" stroke-miterlimit="10" d="
		M44.8,32.2C46,25.7,44.7,20,42,19.5c-2.7-0.5-5.9,4.4-7,10.9L44.8,32.2z"/>
	
		<polygon fill="#FFFFFF" stroke="#000000" stroke-width="2" stroke-linecap="round" stroke-linejoin="round" stroke-miterlimit="10" points="
		37.3,46.1 37.3,46.1 39.9,31.3 39.9,31.3 	"/>
</g>
</svg>
