<?xml version="1.0" encoding="utf-8"?>
<!-- Generator: Adobe Illustrator 21.1.0, SVG Export Plug-In . SVG Version: 6.00 Build 0)  -->
<svg version="1.1" id="emoji" xmlns="http://www.w3.org/2000/svg" xmlns:xlink="http://www.w3.org/1999/xlink" x="0px" y="0px"
	 viewBox="0 0 72 72" enable-background="new 0 0 72 72" xml:space="preserve">
<g id="_xD83C__xDFDA__xFE0F__1_">
	<polygon fill="#EA5A47" stroke="#000000" stroke-miterlimit="10" points="28.5,22.1 23.5,26.8 23.5,17 28.5,17 	"/>
	
		<rect x="25.5" y="40" fill="#A57939" stroke="#000000" stroke-width="2" stroke-linecap="round" stroke-linejoin="round" stroke-miterlimit="10" width="9" height="16"/>
	
		<polygon fill="#9B9B9A" stroke="#000000" stroke-width="2" stroke-linecap="round" stroke-linejoin="round" stroke-miterlimit="10" points="
		48,47 42.8,47 40,47 40,40 42,40 48,40 	"/>
	
		<rect x="20.1" y="43.5" transform="matrix(0.7071 -0.7071 0.7071 0.7071 -23.5764 34.1183)" fill="#6A462F" stroke="#000000" stroke-width="2" stroke-linecap="round" stroke-linejoin="round" stroke-miterlimit="10" width="18.7" height="4.1"/>
	
		<polygon fill="#92D3F5" stroke="#000000" stroke-width="2" stroke-linecap="round" stroke-linejoin="round" stroke-miterlimit="10" points="
		42.8,47 46,43 43,42 42,40 48,40 48,47 	"/>
	
		<line fill="none" stroke="#000000" stroke-width="2" stroke-linecap="round" stroke-linejoin="round" stroke-miterlimit="10" x1="42" y1="22" x2="42" y2="26"/>
	
		<line fill="none" stroke="#000000" stroke-width="2" stroke-linecap="round" stroke-linejoin="round" stroke-miterlimit="10" x1="45" y1="25" x2="45" y2="26"/>
	
		<line fill="none" stroke="#000000" stroke-width="2" stroke-linecap="round" stroke-linejoin="round" stroke-miterlimit="10" x1="39" y1="19" x2="39" y2="26"/>
	
		<polyline fill="#EA5A47" stroke="#000000" stroke-width="2" stroke-linecap="round" stroke-linejoin="round" stroke-miterlimit="10" points="
		40,19 36,15 19,31 19,32 53,32 53,31 47,26 40,27 32,28 34,24 32,22 38.6,17.6 	"/>
	
		<line fill="none" stroke="#000000" stroke-width="2" stroke-linecap="round" stroke-linejoin="round" stroke-miterlimit="10" x1="36" y1="20" x2="36" y2="27"/>
	
		<rect x="19" y="32" fill="none" stroke="#000000" stroke-width="2" stroke-linecap="round" stroke-linejoin="round" stroke-miterlimit="10" width="34" height="24"/>
</g>
</svg>
