<svg version="1.1" id="emoji" xmlns="http://www.w3.org/2000/svg" x="0" y="0" viewBox="0 0 72 72" enable-background="new 0 0 72 72" xml:space="preserve">
  <g id="color">
    <rect x="18.5" y="31.5" fill="#FFFFFF" width="35" height="25"/>
    <polygon fill="#EA5A47" points="28.5,22.0588 23.5,26.7647 23.5,17 28.5,17"/>
    <rect x="25.5" y="40" fill="#A57939" width="9" height="16"/>
    <polygon fill="#6A462F" points="37.45,40.3798 24.26,53.5698 21.34,50.6598 25.5,46.4998 32,39.9998 34.53,37.4698"/>
    <polygon fill="#9B9B9A" points="48,47 42.7924,47 40,47 40,40 42,40 48,40"/>
    <polygon fill="#92D3F5" points="42.7917,47 46,43 43,42 42,40 48,40 48,47"/>
    <polygon fill="#EA5A47" points="36,15 19,31 19,32.0003 53,32.0003 53,31 47,26 40,27 32,28 34,24 32,22 38.6,17.6"/>
  </g>
  <g id="hair"/>
  <g id="skin"/>
  <g id="skin-shadow"/>
  <g id="line">
    <polygon fill="none" stroke="#000000" stroke-width="2" stroke-linecap="round" stroke-linejoin="round" stroke-miterlimit="10" points="28.5,22.0588 23.5,26.7647 23.5,17 28.5,17"/>
    <polygon fill="none" stroke="#000000" stroke-width="2" stroke-linecap="round" stroke-linejoin="round" stroke-miterlimit="10" points="32,39.9998 25.5,46.4998 25.5,39.9998"/>
    <polygon fill="none" stroke="#000000" stroke-width="2" stroke-linecap="round" stroke-linejoin="round" stroke-miterlimit="10" points="34.5,43.3298 34.5,55.9998 25.5,55.9998 25.5,52.3298"/>
    <polygon fill="none" stroke="#000000" stroke-width="2" stroke-linecap="round" stroke-linejoin="round" stroke-miterlimit="10" points="48,47 42.7924,47 40,47 40,40 42,40 48,40"/>
    <rect x="20.0678" y="43.4573" transform="matrix(0.7071 -0.7071 0.7071 0.7071 -23.5765 34.1179)" fill="none" stroke="#000000" stroke-width="2" stroke-linecap="round" stroke-linejoin="round" stroke-miterlimit="10" width="18.6558" height="4.122"/>
    <polygon fill="none" stroke="#000000" stroke-width="2" stroke-linecap="round" stroke-linejoin="round" stroke-miterlimit="10" points="42.7917,47 46,43 43,42 42,40 48,40 48,47"/>
    <line fill="none" stroke="#000000" stroke-width="2" stroke-linecap="round" stroke-linejoin="round" stroke-miterlimit="10" x1="42" y1="22" x2="42" y2="26"/>
    <line fill="none" stroke="#000000" stroke-width="2" stroke-linecap="round" stroke-linejoin="round" stroke-miterlimit="10" x1="45" y1="25" x2="45" y2="26"/>
    <line fill="none" stroke="#000000" stroke-width="2" stroke-linecap="round" stroke-linejoin="round" stroke-miterlimit="10" x1="39" y1="19" x2="39" y2="26"/>
    <polyline fill="none" stroke="#000000" stroke-width="2" stroke-linecap="round" stroke-linejoin="round" stroke-miterlimit="10" points="40,19 36,15 19,31 19,32.0003 53,32.0003 53,31 47,26 40,27 32,28 34,24 32,22 38.6,17.6"/>
    <line fill="none" stroke="#000000" stroke-width="2" stroke-linecap="round" stroke-linejoin="round" stroke-miterlimit="10" x1="36" y1="20" x2="36" y2="27"/>
    <rect x="19" y="32" fill="none" stroke="#000000" stroke-width="2" stroke-linecap="round" stroke-linejoin="round" stroke-miterlimit="10" width="34" height="24"/>
  </g>
</svg>
