<svg id="emoji" xmlns="http://www.w3.org/2000/svg" viewBox="0 0 72 72">
  <g id="color">
    <rect x="19" y="32" fill="#FFFFFF" width="34" height="24" stroke="none"/>
    <rect x="25" y="40" fill="#A57939" stroke="none" stroke-width="2" stroke-linecap="round" stroke-linejoin="round" stroke-miterlimit="10" width="9" height="16"/>
    <rect x="40" y="40" fill="#92D3F5" stroke="none" stroke-width="2" stroke-linecap="round" stroke-linejoin="round" stroke-miterlimit="10" width="8" height="7"/>
    <polygon fill="#EA5A47" stroke="none" stroke-width="2" stroke-linecap="round" stroke-linejoin="round" stroke-miterlimit="10" points="53,32 19,32.0003 19,31 35,15 53,31"/>
    <polygon fill="#EA5A47" stroke="none" stroke-width="2" stroke-linecap="round" stroke-linejoin="round" stroke-miterlimit="10" points="29,21 24,26 24,17 29,17"/>
  </g>
  <g id="hair"/>
  <g id="skin"/>
  <g id="skin-shadow"/>
  <g id="line">
    <rect x="25" y="40" fill="none" stroke="#000000" stroke-width="2" stroke-linecap="round" stroke-linejoin="round" stroke-miterlimit="10" width="9" height="16"/>
    <rect x="40" y="40" fill="none" stroke="#000000" stroke-width="2" stroke-linecap="round" stroke-linejoin="round" stroke-miterlimit="10" width="8" height="7"/>
    <polygon fill="none" stroke="#000000" stroke-width="2" stroke-linecap="round" stroke-linejoin="round" stroke-miterlimit="10" points="53,32 19,32.0003 19,31 35,15 53,31"/>
    <rect x="19" y="32" fill="none" stroke="#000000" stroke-width="2" stroke-linecap="round" stroke-linejoin="round" stroke-miterlimit="10" width="34" height="24"/>
    <polygon fill="none" stroke="#000000" stroke-width="2" stroke-linecap="round" stroke-linejoin="round" stroke-miterlimit="10" points="29,21 24,26 24,17 29,17"/>
  </g>
</svg>
