<svg id="emoji" xmlns="http://www.w3.org/2000/svg" viewBox="0 0 72 72">
  
  <g id="color">
    <rect x="9" y="38" fill="#E27022" stroke="none" stroke-width="2" stroke-linecap="round" stroke-linejoin="round" stroke-miterlimit="10" width="53" height="17"></rect>
    <rect x="14" y="45" fill="#92D3F5" stroke="none" stroke-width="2" stroke-linecap="round" stroke-linejoin="round" stroke-miterlimit="10" width="10" height="10"></rect>
    <rect x="28" y="45" fill="#92D3F5" stroke="none" stroke-width="2" stroke-linecap="round" stroke-linejoin="round" stroke-miterlimit="10" width="10" height="10"></rect>
    <rect x="38" y="45" fill="#92D3F5" stroke="none" stroke-width="2" stroke-linecap="round" stroke-linejoin="round" stroke-miterlimit="10" width="10" height="10"></rect>
    <rect x="48" y="45" fill="#92D3F5" stroke="none" stroke-width="2" stroke-linecap="round" stroke-linejoin="round" stroke-miterlimit="10" width="10" height="10"></rect>
    <ellipse fill="#FFFFFF" stroke="none" stroke-width="2" stroke-miterlimit="10" cx="19" cy="37" rx="7" ry="5"></ellipse>
  </g>
  <g id="hair">
  </g>
  <g id="skin">
  </g>
  <g id="skin-shadow">
  </g>
  <g id="line">
    <rect x="9" y="38" fill="none" stroke="#000000" stroke-width="2" stroke-linecap="round" stroke-linejoin="round" stroke-miterlimit="10" width="53" height="17"></rect>
    <rect x="14" y="45" fill="none" stroke="#000000" stroke-width="2" stroke-linecap="round" stroke-linejoin="round" stroke-miterlimit="10" width="10" height="10"></rect>
    <line fill="none" stroke="#000000" stroke-width="2" stroke-linecap="round" stroke-linejoin="round" stroke-miterlimit="10" x1="19" y1="55" x2="19" y2="45"></line>
    <rect x="28" y="45" fill="none" stroke="#000000" stroke-width="2" stroke-linecap="round" stroke-linejoin="round" stroke-miterlimit="10" width="10" height="10"></rect>
    <rect x="38" y="45" fill="none" stroke="#000000" stroke-width="2" stroke-linecap="round" stroke-linejoin="round" stroke-miterlimit="10" width="10" height="10"></rect>
    <rect x="48" y="45" fill="none" stroke="#000000" stroke-width="2" stroke-linecap="round" stroke-linejoin="round" stroke-miterlimit="10" width="10" height="10"></rect>
    <ellipse fill="none" stroke="#000000" stroke-width="2" stroke-miterlimit="10" cx="19" cy="37" rx="7" ry="5"></ellipse>
    <path fill="none" stroke="#000000" stroke-width="0.8571" stroke-linecap="round" stroke-linejoin="round" stroke-miterlimit="10" d="
		M16.577,35.9892c0.0859-0.4199,0.4575-0.7358,0.9028-0.7358l0,0c0.2544,0,0.4848,0.1032,0.6516,0.2699
		c0.2594,0.2594,0.2355,0.6905-0.0079,0.9649l-1.5652,1.7652h1.843"></path>
    <polyline fill="none" stroke="#000000" stroke-width="0.8571" stroke-linecap="round" stroke-linejoin="round" stroke-miterlimit="10" points="
			20.778,35.2534 19.6632,37.7737 21.4179,37.7737 		"></polyline>
    <line fill="none" stroke="#000000" stroke-width="0.8571" stroke-linecap="round" stroke-linejoin="round" stroke-miterlimit="10" x1="21.1289" y1="36.8447" x2="21.1289" y2="38.2534"></line>
  </g>
</svg>