<svg id="emoji" viewBox="0 0 72 72" xmlns="http://www.w3.org/2000/svg">
  <g id="line-supplement">
    <g>
      <polyline fill="none" stroke="#000" stroke-linecap="round" stroke-linejoin="round" stroke-width="2" points="20.071 27.98 24.541 18.066 29.01 27.98"/>
      <line x1="21.1945" x2="27.7593" y1="25.5309" y2="25.5309" fill="none" stroke="#000" stroke-linecap="round" stroke-linejoin="round" stroke-width="2"/>
    </g>
    <line x1="34.5559" x2="34.5559" y1="18.0657" y2="27.9796" fill="none" stroke="#000" stroke-linecap="round" stroke-linejoin="round" stroke-width="2"/>
    <line x1="31.1833" x2="37.9285" y1="18.0657" y2="18.0657" fill="none" stroke="#000" stroke-linecap="round" stroke-linejoin="round" stroke-width="2"/>
    <polyline fill="none" stroke="#000" stroke-linecap="round" stroke-linejoin="round" stroke-width="2" points="42.575 28.002 42.575 18.044 46.809 26.937 51.278 18.044 51.278 28.002"/>
  </g>
  <g id="color">
    <rect x="16" y="13.4375" width="40" height="45.0417" fill="#3f3f3f"/>
    <g>
      <polyline fill="none" stroke="#fff" stroke-linecap="round" stroke-linejoin="round" stroke-width="2" points="20.071 27.98 24.541 18.066 29.01 27.98"/>
      <line x1="21.1945" x2="27.7593" y1="25.5309" y2="25.5309" fill="none" stroke="#fff" stroke-linecap="round" stroke-linejoin="round" stroke-width="2"/>
    </g>
    <line x1="34.5559" x2="34.5559" y1="18.0657" y2="27.9796" fill="none" stroke="#fff" stroke-linecap="round" stroke-linejoin="round" stroke-width="2"/>
    <line x1="31.1833" x2="37.9285" y1="18.0657" y2="18.0657" fill="none" stroke="#fff" stroke-linecap="round" stroke-linejoin="round" stroke-width="2"/>
    <polyline fill="none" stroke="#fff" stroke-linecap="round" stroke-linejoin="round" stroke-width="2" points="42.575 28.002 42.575 18.044 46.809 26.937 51.278 18.044 51.278 28.002"/>
    <rect x="19.4258" y="33.6381" width="15.1255" height="13.8874" fill="#d0cfce"/>
    <rect x="19.4258" y="51.1472" width="32.4976" height="3.5422" fill="#b1cc33"/>
    <path fill="#d0cfce" d="M43.2372,39.7711H38.1044a.9994.9994,0,0,1-1-1V33.6383a1,1,0,0,1,1-1h5.1328a1,1,0,0,1,1,1v5.1328A.9993.9993,0,0,1,43.2372,39.7711Z"/>
    <path fill="#d0cfce" d="M51.9238,39.7711H46.791a.9993.9993,0,0,1-1-1V33.6383a1,1,0,0,1,1-1h5.1328a1,1,0,0,1,1,1v5.1328A.9994.9994,0,0,1,51.9238,39.7711Z"/>
    <path fill="#d0cfce" d="M43.2372,48.5287H38.1044a1,1,0,0,1-1-1V42.3958a1,1,0,0,1,1-1h5.1328a1,1,0,0,1,1,1v5.1329A.9994.9994,0,0,1,43.2372,48.5287Z"/>
    <path fill="#d0cfce" d="M51.9238,48.5287H46.791a.9994.9994,0,0,1-1-1V42.3958a1,1,0,0,1,1-1h5.1328a1,1,0,0,1,1,1v5.1329A1,1,0,0,1,51.9238,48.5287Z"/>
  </g>
  <g id="line">
    <rect x="16" y="13.4375" width="40" height="45.0417" fill="none" stroke="#000" stroke-linecap="round" stroke-linejoin="round" stroke-width="2.1223"/>
    <rect x="19.4258" y="33.6381" width="15.1255" height="13.8874" fill="none" stroke="#000" stroke-linecap="round" stroke-linejoin="round" stroke-width="2"/>
    <polyline fill="none" stroke="#000" stroke-linecap="round" stroke-linejoin="round" stroke-width="2" points="19.426 53.723 19.426 51.147 51.923 51.147 51.923 53.723"/>
    <polyline fill="none" stroke="#000" stroke-linecap="round" stroke-linejoin="round" stroke-width="2" points="38.104 38.771 38.104 33.638 43.237 33.638"/>
    <polyline fill="none" stroke="#000" stroke-linecap="round" stroke-linejoin="round" stroke-width="2" points="46.79 38.771 46.79 33.638 51.923 33.638"/>
    <polyline fill="none" stroke="#000" stroke-linecap="round" stroke-linejoin="round" stroke-width="2" points="38.104 47.529 38.104 42.396 43.237 42.396"/>
    <polyline fill="none" stroke="#000" stroke-linecap="round" stroke-linejoin="round" stroke-width="2" points="46.79 47.529 46.79 42.396 51.923 42.396"/>
  </g>
</svg>
