<?xml version="1.0" encoding="utf-8"?>
<!-- Generator: Adobe Illustrator 21.1.0, SVG Export Plug-In . SVG Version: 6.00 Build 0)  -->
<svg version="1.1" id="emoji" xmlns="http://www.w3.org/2000/svg" xmlns:xlink="http://www.w3.org/1999/xlink" x="0px" y="0px"
	 viewBox="0 0 72 72" enable-background="new 0 0 72 72" xml:space="preserve">
<g id="_xD83C__xDFF0_">
	<rect x="30" y="27" fill="#9B9B9A" width="12" height="14"/>
	
		<polyline fill="none" stroke="#000000" stroke-width="2" stroke-linecap="round" stroke-linejoin="round" stroke-miterlimit="10" points="
		31,35 31,28 41,28 41,35 	"/>
	<path fill="none" stroke="#000000" stroke-width="2" stroke-linecap="round" stroke-linejoin="round" stroke-miterlimit="10" d="
		M37,35h-2v-3c0-0.6,0.4-1,1-1l0,0"/>
	
		<polygon fill="#D0CFCE" stroke="#000000" stroke-width="2" stroke-linecap="round" stroke-linejoin="round" stroke-miterlimit="10" points="
		52,55 20,55 20,41 20,39 20,39 27,39 27,41 32,41 32,39 40,39 40,41 45,41 45,39 52,39 52,41 52,39 	"/>
	
		<rect x="10" y="32" fill="#D0CFCE" stroke="#000000" stroke-width="2" stroke-linecap="round" stroke-linejoin="round" stroke-miterlimit="10" width="10" height="23"/>
	
		<rect x="52" y="32" fill="#D0CFCE" stroke="#000000" stroke-width="2" stroke-linecap="round" stroke-linejoin="round" stroke-miterlimit="10" width="10" height="23"/>
	
		<rect x="8" y="26" fill="#D0CFCE" stroke="#000000" stroke-width="2" stroke-linecap="round" stroke-linejoin="round" stroke-miterlimit="10" width="14" height="6"/>
	
		<rect x="29.5" y="22" fill="#D0CFCE" stroke="#000000" stroke-width="2" stroke-linecap="round" stroke-linejoin="round" stroke-miterlimit="10" width="13" height="6"/>
	
		<rect x="50" y="26" fill="#D0CFCE" stroke="#000000" stroke-width="2" stroke-linecap="round" stroke-linejoin="round" stroke-miterlimit="10" width="14" height="6"/>
	
		<polygon fill="#EA5A47" stroke="#000000" stroke-width="2" stroke-linecap="round" stroke-linejoin="round" stroke-miterlimit="10" points="
		36,12 31.5,22 40.5,22 	"/>
	
		<polygon fill="#EA5A47" stroke="#000000" stroke-width="2" stroke-linecap="round" stroke-linejoin="round" stroke-miterlimit="10" points="
		15,16 9.5,26 20.5,26 	"/>
	
		<polygon fill="#EA5A47" stroke="#000000" stroke-width="2" stroke-linecap="round" stroke-linejoin="round" stroke-miterlimit="10" points="
		57,16 51.5,26 62.5,26 	"/>
	
		<path fill="#A57939" stroke="#000000" stroke-width="2" stroke-linecap="round" stroke-linejoin="round" stroke-miterlimit="10" d="
		M40.5,55h-9v-6c0-1.7,1.3-3,3-3h3c1.7,0,3,1.3,3,3V55z"/>
	
		<line fill="none" stroke="#000000" stroke-width="2" stroke-linecap="round" stroke-linejoin="round" stroke-miterlimit="10" x1="36" y1="46" x2="36" y2="55"/>
	<path fill="none" stroke="#000000" stroke-width="2" stroke-linecap="round" stroke-linejoin="round" stroke-miterlimit="10" d="
		M16,40h-2v-3c0-0.6,0.4-1,1-1l0,0"/>
	<path fill="none" stroke="#000000" stroke-width="2" stroke-linecap="round" stroke-linejoin="round" stroke-miterlimit="10" d="
		M58,40h-2v-3c0-0.6,0.4-1,1-1l0,0"/>
</g>
</svg>
