<svg id="emoji" viewBox="0 0 72 72" version="1.1" xmlns="http://www.w3.org/2000/svg">
  <g id="color">
    <rect x="5" y="17" width="62" height="38"/>
    <rect x="5" y="30" width="62" height="12" fill="#fff"/>
    <rect x="5" y="17" width="62" height="13" fill="#5c9e31"/>
    <g transform="translate(-12.58 .1993)">
      <g stroke-linecap="round">
        <g transform="translate(-.035 -.02538)">
          <path stroke="#000" stroke-linejoin="round" stroke-width="4" d="m31.63 34.08h8.784c0 10.31-2.035 10.34-4.416 10.34-2.431 0-4.368 0.09442-4.368-10.34z"/>
          <path fill="#61b2e4" stroke="#61b2e4" stroke-linejoin="round" stroke-width="2" d="m31.63 34.08h8.784c0 10.31-2.035 10.34-4.416 10.34-2.431 0-4.368 0.09442-4.368-10.34z"/>
          <path fill="none" stroke="#f1b31c" stroke-linejoin="round" stroke-width="3" d="m31.52 29.63c3.306-0.8714 5.541-0.9361 8.997-0.03174"/>
          <path fill="none" stroke="#f1b31c" stroke-linejoin="round" d="m30.96 31.05c3.306-0.8714 6.684-0.9044 10.14 0"/>
          <path fill="none" stroke="#f1b31c" stroke-width="2" d="m36 26.23 0.03 3.714"/>
          <path fill="none" stroke="#f1b31c" stroke-width="2" d="m29.57 27.64 1.396 2.911"/>
          <path fill="none" stroke="#f1b31c" stroke-width="2" d="m42.5 27.64-1.396 2.911"/>
          <path fill="#ea5a47" stroke-linejoin="round" stroke-width="4" d="m30.63 33.08 10.78-2e-6v3.779l-0.2462 2.392h-10.32l-0.2197-2.394z"/>
          <circle cx="36.04" cy="42.31" r="2.58" fill="#fff" display="none"/>
          <path fill="#fcea2b" stroke-linejoin="round" stroke-width="2.858" d="m30.63 33.08 5.393-1e-6 -3e-3 3.085-0.01325 3.086h-5.16l-0.2198-2.394z"/>
          <path fill="#fff" stroke="#fff" stroke-linejoin="round" stroke-width="1.268" d="m34.63 37.61h2.784c0 3.268-0.645 3.277-1.4 3.277-0.7705 0-1.384 0.02993-1.384-3.277z"/>
        </g>
        <path fill="none" stroke="#fcea2b" d="m32.97 43.07v-2.116"/>
        <path fill="none" stroke="#fcea2b" d="m38.95 43.07v-2.116"/>
        <path transform="translate(-.035 -.02538)" fill="none" stroke="#fff" stroke-linejoin="round" stroke-width="1" d="m33.79 44.42h4.415"/>
        <path transform="translate(-.035 -.02538)" fill="none" stroke="#fff" stroke-linejoin="round" stroke-width="1" d="m33.01 43.1h5.983"/>
        <path fill="none" stroke="#f1b31c" stroke-width="1.5" d="m38.88 37.93v-3.584"/>
        <path fill="none" stroke="#d22f27" stroke-width="1.5" d="m33.09 37.93v-3.584"/>
        <path fill="none" stroke="#5c9e31" d="m35.99 40.34v-2.116"/>
      </g>
    </g>
  </g>
  <g id="line">
    <rect x="5" y="17" width="62" height="38" fill="none" stroke="#000" stroke-linecap="round" stroke-linejoin="round" stroke-width="2"/>
  </g>
</svg>
