<svg id="emoji" viewBox="0 0 72 72" version="1.1" xmlns="http://www.w3.org/2000/svg">
  <g id="color">
    <rect x="5" y="17" width="62" height="38" fill="#61b2e4"/>
    <path fill="none" stroke="#d22f27" stroke-linecap="round" stroke-linejoin="round" stroke-width="2" d="m31.62 34.32h8.784c0 10.31-2.035 10.34-4.416 10.34-2.431 0-4.368 0.09442-4.368-10.34z"/>
    <path fill="none" stroke="#fff" stroke-dasharray="2, 4" stroke-linecap="round" stroke-linejoin="round" stroke-width="2" d="m31.62 34.32h8.784c0 10.31-2.035 10.34-4.416 10.34-2.431 0-4.368 0.09442-4.368-10.34z"/>
    <path fill="none" stroke="#f1b31c" stroke-linecap="round" stroke-linejoin="round" stroke-width="3" d="m30.94 31.3c3.306-0.8714 6.684-0.9044 10.14 0"/>
    <path fill="none" stroke="#f1b31c" stroke-linecap="round" stroke-width="2" d="m35.98 27.48v3.032"/>
    <path fill="none" stroke="#f1b31c" stroke-linecap="round" stroke-width="2" d="m29.55 28.89 1.396 2.911"/>
    <path fill="none" stroke="#f1b31c" stroke-linecap="round" stroke-width="2" d="m42.48 28.89-1.396 2.911"/>
    <path fill="none" stroke="#5c9e31" stroke-linecap="round" stroke-linejoin="round" stroke-width="2" d="m30.94 46.78c3.306 0.8714 6.684 0.9044 10.14 0"/>
    <path fill="none" stroke="#fff" stroke-linecap="round" stroke-width="2" d="m29.03 34.44 0.0077 9.079"/>
    <path fill="none" stroke="#fff" stroke-linecap="round" stroke-width="2" d="m43.11 34.44-8e-3 9.079"/>
    <path fill="#f4aa41" d="m34.26 37.68h3.53c0.028 2.18-3.571 2.013-3.53 0z"/>
    <path fill="#f4aa41" d="m34.25 41.51h3.53c0.028 2.18-3.571 2.013-3.53 0z"/>
    <path fill="none" stroke="#186648" stroke-linecap="round" stroke-width="1" d="m33.6 36.67c0.409 0.2519 0.6286 0.5132 1.93 0.5132"/>
    <path fill="none" stroke="#186648" stroke-linecap="round" stroke-width="1" d="m38.46 36.67c-0.409 0.2519-0.6286 0.5132-1.93 0.5132"/>
    <path fill="none" stroke="#186648" stroke-linecap="round" stroke-width="1" d="m33.58 40.49c0.409 0.2519 0.6286 0.5132 1.93 0.5132"/>
    <path fill="none" stroke="#186648" stroke-linecap="round" stroke-width="1" d="m38.44 40.49c-0.409 0.2519-0.6286 0.5132-1.93 0.5132"/>
    <path fill="none" stroke="#fff" stroke-linecap="round" stroke-linejoin="round" stroke-width="1.5" d="m30.99 27.05c3.314-3.702 6.655-3.638 10.02 0"/>
    <path fill="none" stroke="#fff" stroke-linecap="round" stroke-linejoin="round" stroke-width="1.5" d="m30.99 27.05-2.686-0.5703"/>
    <path fill="none" stroke="#fff" stroke-linecap="round" stroke-linejoin="round" stroke-width="1.5" d="m41.01 27.05 2.686-0.5703"/>
  </g>
  <g id="line">
    <rect x="5" y="17" width="62" height="38" fill="none" stroke="#000" stroke-linecap="round" stroke-linejoin="round" stroke-width="2"/>
  </g>
</svg>
