<?xml version="1.0" encoding="utf-8"?>
<!-- Generator: Adobe Illustrator 21.1.0, SVG Export Plug-In . SVG Version: 6.00 Build 0)  -->
<svg version="1.1" id="emoji" xmlns="http://www.w3.org/2000/svg" xmlns:xlink="http://www.w3.org/1999/xlink" x="0px" y="0px"
	 viewBox="0 0 72 72" enable-background="new 0 0 72 72" xml:space="preserve">
<g id="_xD83C__xDFF3__xFE0F__x200D__xD83C__xDF08_">
	<g>
		<path fill="#FFFFFF" d="M33.3,31.9"/>
		<path fill="#FFFFFF" d="M45.8,37.9"/>
		<g>
			<path fill="#EA5A47" d="M22.2,18c0,0,7.5-6.2,16-2.4c3.6,1.6,5.5,4.5,14.6,3.9c0.8,0,1.4,0.6,1.4,1.3c0,3.1,0,10.6,0,14.4
				c0,0.6-0.4,1-0.9,1.3c-1.1,0.5-3.1,0.7-6.2,0.2c-2.4-0.4-5.4-1.4-9-3c-3.6-1.7-9.5-2.6-16,2.9"/>
			<path fill="#F4AA41" d="M22.2,22.2c0,0,7.5-6.7,16-2.9c3.6,1.6,5.5,4.5,14.6,3.9c0.8,0,1.4,0.6,1.4,1.3c0,3.1-0.3,8.2-0.3,12
				c0,0.6-0.4,1.1-1,1.4c-1.1,0.5-2.5,0.9-5.5,0.3c-2.4-0.4-4.9-0.9-8.5-2.6C35.5,34,28.8,31,22.2,36.5"/>
			<path fill="#FCEA2B" d="M22.2,25.1c0,0,7.5-6.7,16-2.9c3.6,1.6,5.5,4.5,14.6,3.9c0.8,0,1.4,0.6,1.4,1.3c0,3.1-0.3,5.3-0.3,9.1
				c0,0.6-0.4,1.1-1,1.4c-1.1,0.5-2.5,0.9-5.5,0.3c-2.4-0.4-6.5-1.7-10.1-3.3c-3.6-1.7-8.7-4-15.3,1.5"/>
			<path fill="#B1CC33" d="M22.2,28c0,0,7.5-6.7,16-2.9c3.6,1.6,5.5,4.5,14.6,3.9c0.8,0,1.4,0.6,1.4,1.3c0,3.1-0.3,2.5-0.3,6.3
				c0,0.6-0.4,1.1-1,1.4c-1.1,0.5-2.5,0.9-5.5,0.3c-2.4-0.4-4.9-0.9-8.5-2.6C35.5,34,28.8,31,22.2,36.5"/>
			<path fill="#92D3F5" d="M22.2,30.8c0,0,7.5-6.7,16-2.9c3.6,1.6,5.5,4.5,14.6,3.9c0.8,0,1.4,0.6,1.4,1.3c0,3.1,0,0.8,0,4.6
				c0,0.6-1.9,0.5-2.4,0.7c-1.1,0.5-2.1,0.7-5.1,0.2c-2.4-0.4-5.7-2.1-9.3-3.8c-3.6-1.7-8.7-4-15.3,1.5"/>
			<path fill="#FFFFFF" d="M22.1,33.4c0,0,6-5.8,14.5-3c4.1,1.4,8.4,5.6,17.3,4c0.8-0.1,0.8,0.9,0.8,1.7c0,3.1-0.7-3.2-0.7,0.6
				c0,0.6-0.4,1.1-1,1.4c-1.1,0.5-1.1,1.1-4.1,0.5c-2.4-0.4-4-0.5-7.6-2.2c-3.7-1.7-12.5-5.3-19.1,0.2"/>
		</g>
	</g>
	<path fill="none" stroke="#000000" stroke-width="2" stroke-linecap="round" stroke-linejoin="round" stroke-miterlimit="10" d="
		M23.1,17.5c2.9-1.8,8.4-4.2,14.4-1.5c3.7,1.7,5.6,4.7,15,4.1c0.8,0,1.5,0.6,1.5,1.4c0,3.3,0,11.1,0,15.1c0,0.6-0.4,1.1-1,1.4
		c-1.9,1-7.3,0.9-15.5-3c-3.4-1.6-8.6-2.6-14.5,1.4"/>
	
		<line fill="none" stroke="#000000" stroke-width="2" stroke-linecap="round" stroke-miterlimit="10" x1="19.3" y1="12.9" x2="19.3" y2="59.8"/>
</g>
<g id="_xD83C__xDFF3__xFE0F__x200D__xD83C__xDF08__2_">
</g>
</svg>
