<svg id="emoji" viewBox="0 0 72 72" version="1.1" xmlns="http://www.w3.org/2000/svg">
  <g id="color">
    <rect x="5" y="17" width="62" height="38" fill="#fff"/>
    <rect x="5" y="17" width="31" height="19" fill="#d22f27" stroke-width="0.5"/>
    <rect x="36" y="36" width="31" height="19" fill="#d22f27" stroke-width="0.5"/>
    <g transform="translate(-77.25 -.5118)" fill="none" stroke-linecap="round">
      <path stroke="#8967aa" stroke-width="3" d="m98.67 41.11c-0.9877 2.289-1.551 3.658 0.2649 6.334"/>
      <path stroke="#8967aa" stroke-width="2" d="m98.93 47.44c-0.5265 1.376 0.2267 1.711 1.5 2.744 0.3652 0.2964 0.87 1.73 0.87 1.73"/>
      <path stroke="#8967aa" stroke-width="2" d="m95.52 51.18c-0.5265-1.376 0.2267-1.711 1.5-2.744 0.3652-0.2964 0.87-1.73 0.87-1.73"/>
      <path stroke="#8967aa" stroke-linejoin="round" stroke-width="2" d="m94.67 47.28 2.712-2.184-3.212-3.438"/>
      <path stroke="#fcea2b" stroke-width="1" d="m98.39 39.61c1.044 0.05729 1.642 0.577 1.862 1.488"/>
      <path stroke="#8967aa" stroke-linejoin="round" stroke-width="1" d="m99.86 47.67c2.54-0.1284 2.137-2.487 1.359-4.712"/>
    </g>
    <g transform="translate(-46.56,-18.81)" fill="none" stroke-linecap="round">
      <path stroke="#8967aa" stroke-width="3" d="m98.67 41.11c-0.9877 2.289-1.551 3.658 0.2649 6.334"/>
      <path stroke="#8967aa" stroke-width="2" d="m98.93 47.44c-0.5265 1.376 0.2267 1.711 1.5 2.744 0.3652 0.2964 0.87 1.73 0.87 1.73"/>
      <path stroke="#8967aa" stroke-width="2" d="m95.52 51.18c-0.5265-1.376 0.2267-1.711 1.5-2.744 0.3652-0.2964 0.87-1.73 0.87-1.73"/>
      <path stroke="#8967aa" stroke-linejoin="round" stroke-width="2" d="m94.67 47.28 2.712-2.184-3.212-3.438"/>
      <path stroke="#fcea2b" stroke-width="1" d="m98.39 39.61c1.044 0.05729 1.642 0.577 1.862 1.488"/>
      <path stroke="#8967aa" stroke-linejoin="round" stroke-width="1" d="m99.86 47.67c2.54-0.1284 2.137-2.487 1.359-4.712"/>
    </g>
    <g transform="translate(-96.2 .5663)">
      <path fill="#fcea2b" d="m113.2 33.43-1.538-1.009v-1.582l0.7327-0.5974 0.0161-4.917-0.2737-0.4493v-1.23l0.8534-0.5167v-3.039h1.622l0.0658 2.689 0.7761 0.0047-0.0893-2.569-0.2898-0.2503-0.0241-1.05 0.4831-0.4602 2.367-0.01615 0.467 0.4198v1.13l-0.2657 0.2422v2.551h0.6199v-2.601h1.763v2.959l0.8459 0.4895-0.0161 1.227-0.287 0.4545-3e-3 4.874 0.7649 0.6539 8e-3 1.574-1.554 1.009z"/>
      <path fill="#1e50a0" d="m116 33.41 1.441 0.0059v-2.482c-0.1822-0.3272-1.154-0.5274-1.429 0.02371z"/>
      <path fill="#1e50a0" d="m116.4 22.17 0.6431 0.0012-2e-3 -1.655c-0.1822-0.3272-0.3754-0.5511-0.6507 0z"/>
      <path fill="#1e50a0" d="m117.9 27.83 0.6431 0.0012-2e-3 -1.655c-0.1822-0.3272-0.3754-0.5511-0.6507 0z"/>
      <path fill="#1e50a0" d="m114.8 27.84 0.6431 0.0012-2e-3 -1.655c-0.1822-0.3272-0.3754-0.5511-0.6507 0z"/>
    </g>
    <g transform="translate(-65.2 19.57)">
      <path fill="#fcea2b" d="m113.2 33.43-1.538-1.009v-1.582l0.7327-0.5974 0.0161-4.917-0.2737-0.4493v-1.23l0.8534-0.5167v-3.039h1.622l0.0658 2.689 0.7761 0.0047-0.0893-2.569-0.2898-0.2503-0.0241-1.05 0.4831-0.4602 2.367-0.01615 0.467 0.4198v1.13l-0.2657 0.2422v2.551h0.6199v-2.601h1.763v2.959l0.8459 0.4895-0.0161 1.227-0.287 0.4545-3e-3 4.874 0.7649 0.6539 8e-3 1.574-1.554 1.009z"/>
      <path fill="#1e50a0" d="m116 33.41 1.441 0.0059v-2.482c-0.1822-0.3272-1.154-0.5274-1.429 0.02371z"/>
      <path fill="#1e50a0" d="m116.4 22.17 0.6431 0.0012-2e-3 -1.655c-0.1822-0.3272-0.3754-0.5511-0.6507 0z"/>
      <path fill="#1e50a0" d="m117.9 27.83 0.6431 0.0012-2e-3 -1.655c-0.1822-0.3272-0.3754-0.5511-0.6507 0z"/>
      <path fill="#1e50a0" d="m114.8 27.84 0.6431 0.0012-2e-3 -1.655c-0.1822-0.3272-0.3754-0.5511-0.6507 0z"/>
    </g>
  </g>
  <g id="line">
    <rect x="5" y="17" width="62" height="38" fill="none" stroke="#000" stroke-linecap="round" stroke-linejoin="round" stroke-width="2"/>
  </g>
</svg>
