<svg id="emoji" viewBox="0 0 72 72" version="1.1" xmlns="http://www.w3.org/2000/svg">
  <g id="color">
    <rect x="5" y="17" width="62" height="38" fill="#5c9e31"/>
    <rect x="5" y="30" width="62" height="12" fill="#fff"/>
    <g transform="matrix(1.25 0 0 1.25 -9.021 -8.565)">
      <path fill="#d0cfce" d="m35.37 38.91 1.414-0.3207 0.6767 2.13-1.91 0.1221z"/>
      <path fill="none" stroke="#b1cc33" stroke-width="1" d="m32.37 31.32c0.08007-4.916 7.133-4.406 7.219 0"/>
      <path fill="#d0cfce" stroke="#d0cfce" stroke-width="1" d="m32.37 31.32v8.563"/>
      <path fill="#d0cfce" stroke="#d0cfce" stroke-width="1" d="m39.58 31.32v8.612"/>
      <path fill="none" stroke="#f1b31c" stroke-linecap="round" stroke-width="1" d="m31.38 31.78h1.922"/>
      <path fill="none" stroke="#f1b31c" stroke-linecap="round" stroke-width="1" d="m38.59 31.78 2.14-0.03352"/>
      <rect x="31.18" y="40.1" width="9.167" height="3.504" fill="#5c9e31"/>
      <path fill="none" stroke="#fff" stroke-width="1" d="m31.18 41.85h9.167"/>
      <g>
        <path fill="#d0cfce" stroke="#d0cfce" stroke-width="0.5" d="m36.57 33.99 0.7565 0.8761"/>
        <path fill="#d0cfce" stroke="#d0cfce" stroke-linecap="round" stroke-width="0.75" d="m35.1 33.13-1.267 3.507"/>
        <path fill="#f1b31c" d="m39.04 36.5-1.988 2.48-1.687-0.06783 1.814-4.198c1.052-1.011 1.824-1.049 2.172 0.3771z"/>
        <path fill="none" stroke="#f1b31c" stroke-linecap="round" stroke-width="0.75" d="m39.89 36.36-2.064 1.502 0.6803 1.22"/>
        <path fill="none" stroke="#f1b31c" stroke-linecap="round" stroke-width="0.75" d="m36.4 38.42 0.6803 1.22"/>
        <path fill="#d0cfce" d="m36.16 32.55c0.4594 0.0231 0.7724 0.2857 0.6405 1.275l0.2582 3.545-1.662 1.216-0.311-2.153c0.012-0.2178-0.2906-0.4535-0.2388-0.8247 0.05404-0.3866 0.4007-0.7633 0.4265-0.8103 0.148-0.2701-0.08468-0.7185-0.1833-0.9027 0.0059-0.5306-1.176-0.5868 0.1559-1.647 0.07876-1.569 1.996-1.9 0.9139 0.3022z"/>
        <path fill="#f1b31c" d="m34.69 36.85c-2.972-1.607-4.013 3.37-2.491 3.017l3.785 0.2397c0.333-1.553-0.2167-2.674-1.294-3.257z"/>
        <path fill="#f4aa41" d="m35.19 34.91c1.103 0.1544 1.571 0.1403 1.707 0.0378l0.09089 1.199-1.899 0.2811c-0.2583-0.5112-0.4129-1.021 0.1013-1.518z"/>
        <path fill="#f1b31c" d="m36.48 31.59-1.233 0.6582c-0.2843-0.8534 1.376-2.033 1.233-0.6582z"/>
      </g>
      <rect x="31.18" y="40.1" width="9.167" height="3.504" fill="none" stroke="#f1b31c" stroke-linecap="round" stroke-linejoin="round" stroke-width="0.75"/>
    </g>
  </g>
  <g id="line">
    <rect x="5" y="17" width="62" height="38" fill="none" stroke="#000" stroke-linecap="round" stroke-linejoin="round" stroke-width="2"/>
  </g>
</svg>
