<svg id="emoji" viewBox="0 0 72 72" version="1.1" xmlns="http://www.w3.org/2000/svg">
  <g id="color">
    <g stroke-width="0">
      <rect x="6" y="30" ry="0" width="60" height="12" fill="#fff"/>
      <rect x="6" y="42" ry="0" width="60" height="12" fill="#1e50a0"/>
      <rect x="6" y="18" ry="0" width="60" height="12" fill="#1e50a0"/>
    </g>
    <g stroke-linecap="round" stroke-linejoin="round">
      <path fill="#d22f27" stroke="#d22f27" stroke-width="0.3" d="m26.64 47.19c-1.872-0.2555-3.768-1.041-5.327-2.206-0.2938-0.2195-0.8763-0.754-1.294-1.188-1.55-1.607-2.54-3.505-2.98-5.711-0.2193-1.098-0.2205-3.073-0.0026-4.154 0.8258-4.096 3.68-7.36 7.558-8.643 1.354-0.448 1.912-0.5314 3.541-0.5299 1.258 0.0012 1.55 0.02163 2.143 0.1499 2.936 0.6349 5.403 2.222 7.047 4.535 0.4572 0.6432 0.9314 1.498 0.8646 1.559-0.06359 0.0579-4.755 1.859-4.841 1.859-0.02783-6.5e-5 -0.1384-0.1391-0.2457-0.309-0.2651-0.4196-1.042-1.194-1.526-1.522-1.214-0.8214-2.691-1.188-4.108-1.021-2.605 0.3072-4.664 2.163-5.232 4.715-0.1608 0.722-0.146 1.924 0.0328 2.663 0.1546 0.6388 0.5302 1.5 0.8746 2.005 0.315 0.4622 1.023 1.182 1.494 1.52 1.722 1.233 4.104 1.456 6.012 0.5614 1.014-0.4754 1.91-1.218 2.45-2.032 0.1309-0.1972 0.2567-0.3586 0.2795-0.3586 0.04957 0 4.872 1.793 4.907 1.825 0.04096 0.03691-0.4545 0.8924-0.8599 1.485-1.529 2.234-3.884 3.88-6.501 4.542-1.36 0.3444-2.941 0.4386-4.285 0.2552z"/>
      <path fill="#d22f27" stroke="#d22f27" stroke-width="0.9" d="m27.56 23.68a12.33 12.33 0 0 0-1.701 0.1973 12.33 12.33 0 0 0-10.06 12.18 12.33 12.33 0 0 0 10.17 12.08 12.33 12.33 0 0 0 13.72-7.826l-6.877-2.568a5.002 5.002 0 0 1-4.676 3.256 5.002 5.002 0 0 1-5.002-5.002 5.002 5.002 0 0 1 5.002-5.002 5.002 5.002 0 0 1 4.67 3.209l6.842-2.627a12.33 12.33 0 0 0-12.09-7.896z"/>
      <circle cx="28.1" cy="36" r="4.999" fill="#f1b31c" stroke="#f1b31c" stroke-width="2.002"/>
    </g>
  </g>
  <g id="line">
    <g stroke-width="2">
      <rect x="5" y="17" width="62" height="38" fill="none" stroke="#000" stroke-linecap="round" stroke-linejoin="round" stroke-width="2"/>
    </g>
  </g>
</svg>
