<svg id="emoji" viewBox="0 0 72 72" version="1.1" xmlns="http://www.w3.org/2000/svg">
  <g id="color">
    <rect x="5" y="17" width="62" height="38" fill="#d22f27"/>
    <g transform="translate(0 .1993)">
      <g stroke-linecap="round">
        <g transform="translate(-.035 -.02538)">
          <path stroke="#000" stroke-linejoin="round" stroke-width="4" d="m31.63 34.08h8.784c0 10.31-2.035 10.34-4.416 10.34-2.431 0-4.368 0.09442-4.368-10.34z"/>
          <path fill="#d22f27" stroke="#d22f27" stroke-linejoin="round" stroke-width="2" d="m31.63 34.08h8.784c0 10.31-2.035 10.34-4.416 10.34-2.431 0-4.368 0.09442-4.368-10.34z"/>
          <path fill="none" stroke="#ea5a47" stroke-linejoin="round" stroke-width="3" d="m31.52 29.63c3.306-0.8714 5.541-0.9361 8.997-0.03174"/>
          <path fill="none" stroke="#f1b31c" stroke-linejoin="round" d="m30.96 31.05c3.306-0.8714 6.684-0.9044 10.14 0"/>
          <path fill="none" stroke="#f1b31c" stroke-width="2" d="m36 26.23 0.03 3.714"/>
          <path fill="none" stroke="#f1b31c" stroke-width="2" d="m29.57 27.64 1.396 2.911"/>
          <path fill="none" stroke="#f1b31c" stroke-width="2" d="m42.5 27.64-1.396 2.911"/>
        </g>
        <path fill="none" stroke="#f1b31c" stroke-linejoin="round" stroke-width="1" d="m32.28 39.22 7.428-2e-6"/>
      </g>
    </g>
    <path fill="none" stroke="#f1b31c" stroke-linecap="round" stroke-linejoin="round" stroke-width="1" d="m31.6 34.25h8.784"/>
    <path fill="none" stroke="#f1b31c" stroke-linecap="round" stroke-linejoin="round" stroke-width="1" d="m35.99 34.25-0.024 10.34-3.486-2.012 3.486 2.012"/>
    <path fill="none" stroke="#f1b31c" stroke-linecap="round" stroke-linejoin="round" stroke-width="1" d="m35.96 44.59 3.486-2.012-3.486 2.012"/>
    <path fill="none" stroke="#f1b31c" stroke-linecap="round" stroke-linejoin="round" stroke-width="1" d="m31.6 34.25 0.8823 8.328 3.498-3.158 3.474 3.158 0.9303-8.328-4.404 5.17z"/>
    <circle cx="35.99" cy="39.42" r="0.5145" fill="#5c9e31" stroke="#5c9e31" stroke-linecap="round" stroke-linejoin="round"/>
  </g>
  <g id="line">
    <rect x="5" y="17" width="62" height="38" fill="none" stroke="#000" stroke-linecap="round" stroke-linejoin="round" stroke-width="2"/>
  </g>
</svg>
