<svg id="emoji" viewBox="0 0 72 72" xmlns="http://www.w3.org/2000/svg">
  <g id="line-supplement">
    <path fill="#000" fill-rule="evenodd" d="M5 17H67V55H5V17ZM22.7242 18.8299C23.425 18.9873 24.0317 19.4582 24.4554 20.1358C25.0289 21.0447 24.6469 21.896 24.2448 22.4165C24.103 22.6 23.949 22.7578 23.81 22.885C24.1238 23.1893 24.5718 23.6327 25.0876 24.1917C25.2632 24.3819 25.2645 24.6748 25.0906 24.8666L22.8704 27.3158C22.7785 27.4172 22.6491 27.4765 22.5123 27.4798C22.3754 27.4832 22.2432 27.4303 22.1464 27.3335L20.7494 25.9365C20.6239 26.0236 20.4712 26.1219 20.3001 26.216C19.8548 26.4609 19.1521 26.7527 18.4708 26.5582C17.9353 26.4071 17.4886 26.1229 17.1987 25.6952C16.9077 25.266 16.8101 24.7447 16.8776 24.1873C16.8803 24.1656 16.8843 24.144 16.8898 24.1228C17.236 22.7767 18.395 21.9627 19.6881 21.9765C19.6115 21.0497 19.917 20.0833 20.5616 19.401C20.5796 19.3819 20.5992 19.3642 20.6201 19.3481C21.2727 18.8459 22.0161 18.6707 22.7242 18.8299ZM49.3893 18.8363C50.1144 18.7015 50.8775 18.8893 51.5293 19.3909C51.5501 19.4069 51.5696 19.4245 51.5876 19.4435C52.2358 20.1287 52.5084 21.0658 52.4236 21.9717C53.708 21.9466 54.9071 22.6924 55.2582 24.0565C55.2637 24.0777 55.2677 24.0993 55.2704 24.1211C55.4164 25.328 54.6427 26.2701 53.5464 26.5792C52.8605 26.7747 52.1665 26.4727 51.7304 26.2209C51.5686 26.1275 51.4239 26.0302 51.304 25.9431L49.9836 27.2636C49.8841 27.363 49.7474 27.416 49.6069 27.4095C49.4664 27.403 49.3352 27.3377 49.2454 27.2295L47.1279 24.6799C46.9674 24.4865 46.9753 24.204 47.1465 24.0199L48.216 22.87C48.075 22.7403 47.9169 22.5767 47.7723 22.385C47.3784 21.8629 47.015 21.0167 47.5851 20.1133C48.0196 19.4192 48.6653 18.9708 49.3893 18.8363ZM22.9313 44.3437C23.0871 44.363 23.2247 44.4542 23.3031 44.5901L25.0502 47.6189C25.1631 47.8147 25.1307 48.0618 24.9711 48.2218L23.9156 49.2803C24.2711 49.6602 24.4597 50.0675 24.5377 50.4717C24.6381 50.9926 24.5447 51.466 24.482 51.7684C24.4711 51.8207 24.4519 51.8709 24.4252 51.9171C24.0036 52.646 23.3577 53.0867 22.6252 53.1845C21.9005 53.2812 21.1527 53.0348 20.5229 52.5144C20.5071 52.5013 20.492 52.4872 20.4779 52.4723C20.0946 52.0666 19.8014 51.6166 19.6471 51.1038C19.5505 50.7828 19.512 50.4491 19.5321 50.1016C18.2454 50.051 17.1177 49.3032 16.7628 47.9235C16.7573 47.9023 16.7532 47.8807 16.7506 47.859C16.6825 47.2957 16.7894 46.7545 17.0758 46.3072C17.3627 45.859 17.8099 45.5365 18.365 45.3796C19.3129 45.0986 20.3137 45.398 20.9536 46.1004L22.5108 44.4921C22.6199 44.3794 22.7756 44.3245 22.9313 44.3437ZM49.1589 44.4338C49.3058 44.4157 49.4531 44.4636 49.5612 44.5646C50.204 45.1647 50.6892 45.6932 51.0136 46.057C51.6333 45.3816 52.5678 45.1213 53.5024 45.3992C54.6406 45.7217 55.321 46.7804 55.1804 47.9435C55.1777 47.9652 55.1737 47.9867 55.1683 48.0078C54.8114 49.3971 53.5651 50.057 52.2894 50.012C52.3717 50.9102 52.098 51.8299 51.4529 52.5128C51.4387 52.5277 51.4237 52.5418 51.4079 52.5549C50.7722 53.0801 50.0149 53.3123 49.2861 53.2021C48.5528 53.0911 47.9046 52.6414 47.4844 51.9139C47.4804 51.907 47.4766 51.8999 47.4729 51.8928C47.4692 51.8855 47.4656 51.8782 47.4622 51.8707C47.2486 51.4007 47.1776 50.8658 47.3474 50.3156C47.4708 49.9156 47.7126 49.5361 48.0721 49.1828L47.0211 48.1325C46.8542 47.9657 46.8266 47.705 46.9549 47.507L48.8004 44.6582C48.8808 44.534 49.0121 44.4518 49.1589 44.4338ZM35.2 23.42C24.9 23.3255 20.31 36.09 27.6 43.08L27.6682 43.1482C28.4251 43.8257 28.9302 44.7402 29.1012 45.7412V48.6072C29.1056 48.9104 28.1839 49.2494 27.8802 49.2451C28.5936 49.7551 29.6911 50.1896 31 50.5108V48.652C31 48.5194 31.0527 48.3922 31.1464 48.2984C31.2402 48.2047 31.3674 48.152 31.5 48.152C31.6326 48.152 31.7598 48.2047 31.8536 48.2984C31.9473 48.3922 32 48.5194 32 48.652V50.7264C32.6371 50.846 33.3092 50.9403 34 51.0057V48.652C34 48.5194 34.0527 48.3922 34.1464 48.2984C34.2402 48.2047 34.3674 48.152 34.5 48.152C34.6326 48.152 34.7598 48.2047 34.8536 48.2984C34.9473 48.3922 35 48.5194 35 48.652V51.0794C35.6614 51.1142 36.3325 51.1222 37 51.1004V48.652C37 48.5194 37.0527 48.3922 37.1464 48.2984C37.2402 48.2047 37.3674 48.152 37.5 48.152C37.6326 48.152 37.7598 48.2047 37.8536 48.2984C37.9473 48.3922 38 48.5194 38 48.652V51.0447C38.6826 50.9905 39.3542 50.9029 40 50.7787V48.652C40 48.5194 40.0527 48.3922 40.1464 48.2984C40.2402 48.2047 40.3674 48.152 40.5 48.152C40.6326 48.152 40.7598 48.2047 40.8536 48.2984C40.9473 48.3922 41 48.5194 41 48.652V50.5506C42.2755 50.2105 43.4062 49.7052 44.2602 49.0059C43.7968 48.3506 43.3698 47.9036 43.0404 47.5588C42.1695 46.6469 41.9816 46.4502 43.6092 45.0099C52.9472 36.0689 45.4982 23.5099 35.1952 23.4199L35.2 23.42ZM34.32 39.54C34.32 41.1969 32.9769 42.54 31.32 42.54C29.6632 42.54 28.32 41.1969 28.32 39.54C28.32 37.8832 29.6632 36.54 31.32 36.54C32.9769 36.54 34.32 37.8832 34.32 39.54ZM40.68 42.54C42.3368 42.54 43.68 41.1969 43.68 39.54C43.68 37.8832 42.3368 36.54 40.68 36.54C39.0231 36.54 37.68 37.8832 37.68 39.54C37.68 41.1969 39.0231 42.54 40.68 42.54ZM38.2713 44.88C38.611 45.4541 37.7499 45.9642 37.41 45.39L35.8944 42.829L34.3784 45.39C34.0385 45.964 33.1772 45.4542 33.5171 44.88L35.4951 41.537C35.5845 41.3765 35.758 41.2814 35.8942 41.2924C36.0304 41.2814 36.2039 41.3765 36.2933 41.537L38.2713 44.88Z" clip-rule="evenodd"/>
    <path fill="#000" d="M43.36 51.61C43.0993 51.6098 42.849 51.5078 42.6624 51.3258C42.4758 51.1437 42.3676 50.896 42.361 50.6354L42.2878 45.7704C42.4538 44.6796 43.03 43.6934 43.8988 43.0134L44.1688 42.7365C46.09 40.754 47.1468 38.0908 47.1078 35.3305C47.0946 32.3936 45.9159 29.5821 43.8308 27.5139C41.7456 25.4456 38.9247 24.2898 35.9878 24.3005C35.2364 24.3013 34.4865 24.3652 33.7458 24.4914C31.8233 24.8652 30.0364 25.7482 28.5716 27.0484C27.1068 28.3485 26.018 30.018 25.4186 31.8826C24.8193 33.7471 24.7315 35.7384 25.1645 37.6485C25.5974 39.5586 26.5351 41.3174 27.8798 42.7414C28.6474 43.5466 29.6118 44.5584 29.6118 45.7454V51.6114C29.6118 51.8766 29.5064 52.1309 29.3189 52.3185C29.1314 52.506 28.877 52.6114 28.6118 52.6114C28.3466 52.6114 28.0922 52.506 27.9047 52.3185C27.7172 52.1309 27.6118 51.8766 27.6118 51.6114V45.7454C27.6118 45.3587 26.8296 44.5374 26.4958 44.1874L26.4226 44.1107C24.831 42.4249 23.7214 40.3426 23.2101 38.0813C22.6987 35.82 22.8042 33.4628 23.5157 31.2562C24.2271 29.0497 25.5183 27.0748 27.2542 25.5381C28.9901 24.0014 31.107 22.9592 33.3836 22.5207C34.2437 22.3726 35.1148 22.2976 35.9876 22.2966C39.4515 22.2859 42.7781 23.6497 45.2377 26.0887C47.6973 28.5277 49.0891 31.8427 49.1076 35.3066C49.154 38.5863 47.9012 41.7512 45.6226 44.1106L45.3179 44.4217C45.0386 44.7039 44.2939 45.4537 44.2879 45.7447L44.3611 50.5847C44.3675 50.8498 44.2685 51.1066 44.0858 51.2988C43.9031 51.4909 43.6516 51.6028 43.3865 51.6097L43.36 51.61Z"/>
  </g>
  <g id="color">
    <path fill="#3F3F3F" d="M67 17H5V55H67V17Z"/>
    <g>
      <path fill="#fff" stroke="#fff" stroke-linecap="round" stroke-linejoin="round" d="M49.63 26.9101L51.267 25.2731C51.267 25.2731 52.455 26.3711 53.41 26.0982C54.3072 25.8456 54.886 25.1067 54.774 24.1812C54.4347 22.8632 53.113 22.2212 51.795 22.5592C52.1053 21.6057 51.9131 20.5152 51.2244 19.7872C50.1294 18.9445 48.7414 19.2078 48.0084 20.3795C47.1897 21.6755 48.9486 22.8165 48.9486 22.8165L47.5126 24.3605L49.63 26.9101Z"/>
      <path fill="#fff" stroke="#fff" stroke-linecap="round" stroke-linejoin="round" d="M22.87 44.84L20.892 46.883C20.4473 46.0103 19.443 45.58 18.504 45.86C17.6064 46.1122 17.135 46.873 17.247 47.799C17.5863 49.118 18.778 49.76 20.119 49.573C19.8629 50.592 20.1527 51.4 20.8414 52.129C21.9234 53.0231 23.2894 52.8821 23.9924 51.6668C24.1167 51.0681 24.2807 50.1198 23.1891 49.3008L24.6171 47.8688L22.87 44.84Z"/>
      <path fill="#fff" stroke="#fff" stroke-linecap="round" stroke-linejoin="round" d="M22.5 26.98L20.794 25.274C20.794 25.274 19.563 26.35 18.608 26.0774C17.7108 25.8248 17.262 25.1726 17.374 24.2474C17.7133 22.9284 18.992 22.2214 20.311 22.5604C20.0007 21.6069 20.2363 20.4734 20.925 19.7444C22.02 18.9017 23.3 19.2301 24.032 20.4018C24.8507 21.6978 23.0522 22.8478 23.0522 22.8478C23.2568 23.0524 23.9016 23.6438 24.7202 24.5308L22.5 26.98Z"/>
      <path fill="#fff" stroke="#fff" stroke-linecap="round" stroke-linejoin="round" d="M49.22 44.9301C50.243 45.8853 50.857 46.6541 51.062 46.8591C51.5067 45.9864 52.425 45.5991 53.363 45.8795C54.2602 46.1321 54.796 46.9575 54.684 47.8835C54.3452 49.2025 52.979 49.7585 51.66 49.4185C51.9703 50.372 51.7781 51.4405 51.0894 52.1695C50.0074 53.0636 48.6194 52.8793 47.9174 51.6639C47.5763 50.9134 47.7159 50.0299 48.8075 49.2109L47.3745 47.7789L49.22 44.9301Z"/>
    </g>
    <path fill="#fff" fill-rule="evenodd" d="M27.6 43.08C20.31 36.09 24.9 23.3255 35.2 23.42L35.1952 23.4199C45.4982 23.5099 52.9472 36.0689 43.6092 45.0099C41.9816 46.4502 42.1695 46.6469 43.0404 47.5588C43.3698 47.9036 43.7968 48.3506 44.2602 49.0059C43.4062 49.7052 42.2755 50.2105 41 50.5506V48.652C41 48.5194 40.9473 48.3922 40.8536 48.2984C40.7598 48.2047 40.6326 48.152 40.5 48.152C40.3674 48.152 40.2402 48.2047 40.1464 48.2984C40.0527 48.3922 40 48.5194 40 48.652V50.7787C39.3542 50.9029 38.6826 50.9905 38 51.0447V48.652C38 48.5194 37.9473 48.3922 37.8536 48.2984C37.7598 48.2047 37.6326 48.152 37.5 48.152C37.3674 48.152 37.2402 48.2047 37.1464 48.2984C37.0527 48.3922 37 48.5194 37 48.652V51.1004C36.3325 51.1222 35.6614 51.1142 35 51.0794V48.652C35 48.5194 34.9473 48.3922 34.8536 48.2984C34.7598 48.2047 34.6326 48.152 34.5 48.152C34.3674 48.152 34.2402 48.2047 34.1464 48.2984C34.0527 48.3922 34 48.5194 34 48.652V51.0057C33.3092 50.9403 32.6371 50.846 32 50.7264V48.652C32 48.5194 31.9473 48.3922 31.8536 48.2984C31.7598 48.2047 31.6326 48.152 31.5 48.152C31.3674 48.152 31.2402 48.2047 31.1464 48.2984C31.0527 48.3922 31 48.5194 31 48.652V50.5108C29.6911 50.1896 28.5936 49.7551 27.8802 49.2451C28.1839 49.2494 29.1056 48.9104 29.1012 48.6072V45.7412C28.9302 44.7402 28.4251 43.8257 27.6682 43.1482L27.6 43.08Z" clip-rule="evenodd"/>
    <g>
      <path fill="#000" d="M37.41 45.39C37.7499 45.9642 38.611 45.4541 38.2713 44.88L36.2933 41.537C36.2039 41.3765 36.0304 41.2814 35.8942 41.2924C35.758 41.2814 35.5845 41.3765 35.4951 41.537L33.5171 44.88C33.1772 45.4542 34.0385 45.964 34.3784 45.39L35.8944 42.829L37.41 45.39Z"/>
      <path fill="#000" d="M31.32 42.54C32.9769 42.54 34.32 41.1969 34.32 39.54C34.32 37.8832 32.9769 36.54 31.32 36.54C29.6632 36.54 28.32 37.8832 28.32 39.54C28.32 41.1969 29.6632 42.54 31.32 42.54Z"/>
      <path fill="#000" d="M40.68 42.54C42.3368 42.54 43.68 41.1969 43.68 39.54C43.68 37.8832 42.3368 36.54 40.68 36.54C39.0231 36.54 37.68 37.8832 37.68 39.54C37.68 41.1969 39.0231 42.54 40.68 42.54Z"/>
      <path fill="#000" d="M43.36 49.61C43.0993 49.6098 42.849 49.5078 42.6624 49.3258C42.4758 49.1437 42.3676 48.896 42.361 48.6354L42.2878 45.7704C42.4538 44.6796 43.03 43.6934 43.8988 43.0134L44.1688 42.7365C46.09 40.754 47.1468 38.0908 47.1078 35.3305C47.0946 32.3936 45.9159 29.5821 43.8308 27.5139C41.7456 25.4456 38.9247 24.2898 35.9878 24.3005C35.2364 24.3013 34.4865 24.3652 33.7458 24.4914C31.8233 24.8652 30.0364 25.7482 28.5716 27.0484C27.1068 28.3485 26.018 30.018 25.4186 31.8826C24.8193 33.7471 24.7315 35.7384 25.1645 37.6485C25.5974 39.5586 26.5351 41.3174 27.8798 42.7414C28.6474 43.5466 29.6118 44.5584 29.6118 45.7454V48.6114C29.6118 48.8766 29.5064 49.1309 29.3189 49.3185C29.1314 49.506 28.877 49.6114 28.6118 49.6114C28.3466 49.6114 28.0922 49.506 27.9047 49.3185C27.7172 49.1309 27.6118 48.8766 27.6118 48.6114V45.7454C27.6118 45.3587 26.8296 44.5374 26.4958 44.1874L26.4226 44.1107C24.831 42.4249 23.7214 40.3426 23.2101 38.0813C22.6987 35.82 22.8042 33.4628 23.5157 31.2562C24.2271 29.0497 25.5183 27.0748 27.2542 25.5381C28.9901 24.0014 31.107 22.9592 33.3836 22.5207C34.2437 22.3726 35.1148 22.2976 35.9876 22.2966C39.4515 22.2859 42.7781 23.6497 45.2377 26.0887C47.6973 28.5277 49.0891 31.8427 49.1076 35.3066C49.154 38.5863 47.9012 41.7512 45.6226 44.1106L45.3179 44.4217C45.0386 44.7039 44.2939 45.4537 44.2879 45.7447L44.3611 48.5847C44.3675 48.8498 44.2685 49.1066 44.0858 49.2988C43.9031 49.4909 43.6516 49.6028 43.3865 49.6097L43.36 49.61Z"/>
      <path fill="#000" d="M22.14 53.32C21.4985 53.3241 20.8778 53.0923 20.396 52.6686C20.062 52.3388 19.8084 51.9365 19.655 51.4929C19.5015 51.0493 19.4522 50.5763 19.511 50.1106C18.8348 50.1034 18.1775 49.8864 17.63 49.4895C17.3596 49.2988 17.1303 49.0556 16.9559 48.7743C16.7815 48.4931 16.6656 48.1796 16.615 47.8525C16.542 47.2858 16.6762 46.7118 16.9927 46.2361C17.3093 45.7604 17.787 45.415 18.338 45.2635C18.7949 45.1272 19.2811 45.1237 19.7399 45.2534C20.1987 45.3831 20.6111 45.6406 20.929 45.9959L22.489 44.4359C22.5832 44.3441 22.7097 44.2931 22.8412 44.294C22.9727 44.2948 23.0986 44.3474 23.1916 44.4404C23.2846 44.5334 23.3372 44.6593 23.338 44.7908C23.3388 44.9223 23.2878 45.0489 23.196 45.143L21.218 47.121C21.1632 47.1765 21.096 47.2182 21.0221 47.2428C20.9481 47.2674 20.8693 47.2742 20.7922 47.2626C20.7151 47.2513 20.6416 47.2221 20.5777 47.1775C20.5138 47.1328 20.4612 47.0739 20.424 47.0053C20.2635 46.682 19.9935 46.4262 19.6621 46.2833C19.3306 46.1405 18.9592 46.1199 18.614 46.2253C18.2989 46.3153 18.0254 46.5131 17.8412 46.7841C17.657 47.0551 17.5737 47.3822 17.606 47.7083C17.6381 47.9047 17.7095 48.0926 17.8161 48.2607C17.9226 48.4287 18.0621 48.5735 18.226 48.6863C18.4851 48.8683 18.7782 48.9962 19.0878 49.0626C19.3973 49.1289 19.7171 49.1323 20.028 49.0725C20.1107 49.0565 20.1962 49.0624 20.2759 49.0894C20.3557 49.1165 20.4271 49.1638 20.483 49.2268C20.5397 49.2888 20.5799 49.364 20.5999 49.4456C20.6199 49.5272 20.619 49.6125 20.5973 49.6936C20.4713 50.073 20.4479 50.4789 20.5295 50.8702C20.6112 51.2615 20.7949 51.6243 21.0621 51.9216C21.2583 52.0795 21.4859 52.1938 21.7297 52.2569C21.9735 52.3201 22.228 52.3306 22.4762 52.2878C22.7244 52.2451 22.9606 52.15 23.1692 52.0089C23.3778 51.8677 23.554 51.6839 23.6861 51.4694C23.7827 51.2555 24.0845 50.5925 22.8843 49.6934C22.8269 49.6504 22.7795 49.5956 22.7451 49.5327C22.7108 49.4698 22.6904 49.4002 22.6853 49.3287C22.6802 49.2572 22.6905 49.1855 22.7156 49.1183C22.7407 49.0512 22.7799 48.9902 22.8306 48.9395L24.2636 47.5065C24.3578 47.4147 24.4843 47.3637 24.6158 47.3646C24.7473 47.3654 24.8732 47.418 24.9662 47.511C25.0592 47.604 25.1118 47.7299 25.1126 47.8614C25.1134 47.9929 25.0624 48.1195 24.9706 48.2136L23.9226 49.2616C24.3136 49.56 24.5925 49.9815 24.7144 50.458C24.8364 50.9344 24.7941 51.4381 24.5945 51.8876C24.4079 52.243 24.1428 52.5512 23.8193 52.7887C23.4958 53.0263 23.1224 53.187 22.7275 53.2586C22.5349 53.2992 22.3387 53.3198 22.1419 53.3201L22.14 53.32Z"/>
      <path fill="#000" d="M22.5 27.49C22.4343 27.4901 22.3693 27.4772 22.3086 27.4521C22.248 27.4269 22.1929 27.39 22.1465 27.3435L20.7645 25.9625C20.4497 26.252 20.0759 26.4697 19.6688 26.6007C19.2617 26.7316 18.831 26.7726 18.4065 26.7208C17.8527 26.5674 17.3731 26.2187 17.0566 25.739C16.74 25.2594 16.6078 24.6814 16.6845 24.1118C16.7369 23.7881 16.8535 23.478 17.0275 23.2C17.2014 22.922 17.4293 22.6815 17.6975 22.4928C18.2453 22.0966 18.9025 21.8803 19.5785 21.8737C19.5195 21.4087 19.5683 20.9364 19.7213 20.4933C19.8742 20.0502 20.1271 19.6483 20.4603 19.3187C20.7359 19.0731 21.0621 18.8911 21.4158 18.7854C21.7695 18.6798 22.1422 18.6532 22.5073 18.7074C22.9329 18.7707 23.3408 18.9213 23.7054 19.1496C24.07 19.378 24.3836 19.6792 24.6263 20.0344C24.8709 20.5161 24.9301 21.0709 24.7925 21.5934C24.655 22.1158 24.3304 22.5696 23.8803 22.8684C24.1859 23.1609 24.6127 23.5784 25.1183 24.1274C25.1659 24.1751 25.2033 24.2318 25.2284 24.2943C25.2535 24.3567 25.2657 24.4236 25.2643 24.4909C25.2629 24.5582 25.248 24.6245 25.2203 24.6859C25.1927 24.7472 25.153 24.8024 25.1035 24.8481C25.0541 24.8937 24.9959 24.9289 24.9325 24.9515C24.8691 24.9742 24.8018 24.9838 24.7346 24.9797C24.6674 24.9757 24.6017 24.9582 24.5415 24.9282C24.4813 24.8982 24.4277 24.8563 24.384 24.8051C23.7726 24.1425 23.278 23.6761 22.984 23.3971L22.7603 23.1823C22.7076 23.1296 22.6673 23.0657 22.6425 22.9954C22.6176 22.9251 22.6088 22.8502 22.6167 22.776C22.6246 22.7019 22.6489 22.6304 22.688 22.5669C22.727 22.5034 22.7798 22.4494 22.8424 22.4089C22.857 22.3989 24.3254 21.4318 23.7824 20.5719C23.6185 20.3381 23.4086 20.1401 23.1657 19.9899C22.9228 19.8397 22.6519 19.7406 22.3694 19.6984C22.1478 19.6633 21.9211 19.678 21.7059 19.7415C21.4907 19.8051 21.2924 19.9158 21.1254 20.0656C20.8563 20.3614 20.6715 20.724 20.5903 21.1155C20.509 21.507 20.5343 21.9132 20.6635 22.2916C20.6851 22.3727 20.686 22.4579 20.666 22.5394C20.646 22.6209 20.6059 22.696 20.5492 22.7579C20.4928 22.8204 20.4214 22.8674 20.3418 22.8945C20.2621 22.9216 20.1769 22.9279 20.0941 22.9127C19.7835 22.8524 19.4638 22.8554 19.1544 22.9215C18.8449 22.9876 18.552 23.1154 18.2931 23.2974C18.1311 23.4077 17.9929 23.5494 17.8865 23.714C17.7802 23.8786 17.7079 24.0629 17.674 24.2559C17.6375 24.5851 17.7185 24.9166 17.9028 25.1919C18.0871 25.4671 18.3627 25.6683 18.681 25.7599C19.1888 25.9089 20.094 25.2585 20.451 24.9221C20.5456 24.8327 20.6714 24.7837 20.8016 24.7855C20.9318 24.7874 21.0562 24.84 21.1482 24.9321L22.8542 26.6381C22.9241 26.708 22.9717 26.7971 22.991 26.8941C23.0103 26.9911 23.0004 27.0916 22.9625 27.183C22.9247 27.2743 22.8606 27.3524 22.7784 27.4073C22.6962 27.4623 22.5996 27.4916 22.5007 27.4916L22.5 27.49Z"/>
      <path fill="#000" d="M49.79 53.3201C49.5928 53.3198 49.3961 53.2992 49.2031 53.2586C48.8089 53.1871 48.4362 53.0268 48.113 52.79C47.7899 52.5532 47.5249 52.2459 47.3381 51.8916C47.138 51.4417 47.0953 50.9375 47.2169 50.4603C47.3384 49.9832 47.6171 49.5609 48.0081 49.2616L46.9601 48.2136C46.8683 48.1194 46.8173 47.9929 46.8181 47.8614C46.8189 47.7298 46.8715 47.604 46.9645 47.511C47.0575 47.418 47.1834 47.3653 47.3149 47.3645C47.4464 47.3637 47.5729 47.4147 47.6671 47.5065L49.1011 48.9405C49.1516 48.9912 49.1906 49.0522 49.2155 49.1192C49.2404 49.1863 49.2506 49.258 49.2454 49.3294C49.2402 49.4007 49.2197 49.4702 49.1854 49.533C49.1511 49.5958 49.1037 49.6505 49.0464 49.6934C47.8474 50.5934 48.148 51.2554 48.2464 51.4734C48.3791 51.6875 48.5559 51.8709 48.765 52.0114C48.974 52.152 49.2106 52.2464 49.4589 52.2885C49.7073 52.3307 49.9618 52.3195 50.2055 52.2557C50.4492 52.1919 50.6765 52.077 50.8724 51.9187C51.1387 51.6214 51.3216 51.259 51.4025 50.8682C51.4835 50.4775 51.4596 50.0722 51.3333 49.6937C51.3116 49.6125 51.3107 49.5272 51.3307 49.4456C51.3507 49.364 51.3909 49.2888 51.4476 49.2269C51.5038 49.1641 51.5751 49.1169 51.6549 49.0899C51.7346 49.0629 51.82 49.0569 51.9027 49.0726C52.2136 49.1317 52.5332 49.1281 52.8427 49.0619C53.1522 48.9956 53.4453 48.8681 53.7047 48.6869C53.8664 48.5764 54.0043 48.4347 54.1105 48.2702C54.2166 48.1057 54.2888 47.9217 54.3229 47.7289C54.3599 47.3997 54.2791 47.0681 54.095 46.7928C53.9109 46.5175 53.6352 46.3163 53.3169 46.2249C52.9717 46.1199 52.6005 46.1407 52.2691 46.2835C51.9377 46.4262 51.6677 46.6818 51.5069 47.0049C51.4699 47.0734 51.4173 47.1324 51.3535 47.177C51.2897 47.2217 51.2163 47.2509 51.1392 47.2622C51.0621 47.2736 50.9835 47.2667 50.9095 47.2423C50.8355 47.2179 50.7682 47.1765 50.713 47.1216L50.4943 46.8945C50.2023 46.5869 49.6573 46.0145 48.8843 45.2905C48.8331 45.2466 48.7913 45.1928 48.7614 45.1323C48.7315 45.0719 48.7142 45.006 48.7104 44.9386C48.7066 44.8713 48.7165 44.8039 48.7395 44.7405C48.7625 44.6771 48.798 44.619 48.8441 44.5697C48.8901 44.5203 48.9456 44.4809 49.0072 44.4536C49.0689 44.4263 49.1355 44.4117 49.2029 44.4108C49.2703 44.4099 49.3373 44.4226 49.3996 44.4483C49.462 44.4739 49.5186 44.5119 49.5659 44.56C50.2036 45.1552 50.6889 45.65 51.0099 45.985C51.3276 45.6325 51.7388 45.3775 52.1957 45.2496C52.6526 45.1217 53.1364 45.1261 53.5909 45.2624C54.145 45.4156 54.6247 45.7645 54.9411 46.2444C55.2576 46.7244 55.3893 47.3027 55.3119 47.8724C55.2593 48.1958 55.1426 48.5054 54.9686 48.7831C54.7947 49.0608 54.567 49.3009 54.2989 49.4894C53.7513 49.8852 53.0946 50.1018 52.4189 50.1094C52.4778 50.5743 52.4289 51.0467 52.276 51.4897C52.1231 51.9328 51.8702 52.3347 51.537 52.6644C51.0543 53.0889 50.4328 53.3219 49.79 53.3193V53.3201Z"/>
      <path fill="#000" d="M49.63 27.42C49.5311 27.42 49.4345 27.3906 49.3523 27.3357C49.2701 27.2808 49.206 27.2027 49.1682 27.1113C49.1303 27.02 49.1204 26.9195 49.1397 26.8225C49.159 26.7255 49.2066 26.6364 49.2765 26.5665L50.9125 24.9295C51.0046 24.8372 51.129 24.7844 51.2594 24.7823C51.3897 24.7802 51.5158 24.829 51.6108 24.9183C51.9672 25.2552 52.8638 25.9061 53.3828 25.7566C53.6979 25.6666 53.9714 25.4688 54.1556 25.1978C54.3398 24.9268 54.4231 24.5997 54.3908 24.2736C54.3586 24.0769 54.2869 23.8887 54.1799 23.7204C54.073 23.5522 53.9331 23.4073 53.7687 23.2946C53.5096 23.113 53.2167 22.9854 52.9073 22.9193C52.5979 22.8532 52.2784 22.85 51.9677 22.9099C51.885 22.9244 51.7999 22.9178 51.7204 22.8907C51.6409 22.8637 51.5694 22.817 51.5127 22.7551C51.456 22.6932 51.4158 22.6179 51.3958 22.5363C51.3758 22.4547 51.3767 22.3694 51.3984 22.2883C51.5244 21.9089 51.5478 21.503 51.4661 21.1117C51.3845 20.7203 51.2007 20.3576 50.9335 20.0603C50.7666 19.9117 50.5688 19.802 50.3544 19.739C50.1399 19.6761 49.9142 19.6616 49.6935 19.6965C49.4103 19.7388 49.1386 19.8384 48.8952 19.9891C48.6517 20.1399 48.4415 20.3388 48.2775 20.5735C47.7365 21.4299 49.2052 22.3975 49.2199 22.4075C49.2825 22.448 49.3353 22.502 49.3743 22.5655C49.4134 22.629 49.4377 22.7005 49.4456 22.7746C49.4534 22.8488 49.4446 22.9237 49.4197 22.994C49.3949 23.0643 49.3546 23.1282 49.3019 23.1809L47.8009 24.6819C47.7067 24.7737 47.5802 24.8247 47.4487 24.8239C47.3172 24.823 47.1913 24.7704 47.0983 24.6774C47.0053 24.5844 46.9527 24.4585 46.9519 24.327C46.9511 24.1955 47.0021 24.069 47.0939 23.9748L48.1909 22.8768C47.738 22.579 47.4105 22.1249 47.2707 21.6012C47.131 21.0775 47.1888 20.5207 47.4331 20.0368C47.6758 19.6806 47.9897 19.3786 48.3549 19.1497C48.7201 18.9208 49.1287 18.77 49.5551 18.7068C49.9194 18.6528 50.291 18.6793 50.644 18.7843C50.9969 18.8893 51.3226 19.0704 51.5981 19.3147C51.9323 19.6446 52.186 20.047 52.3396 20.4908C52.4932 20.9346 52.5426 21.4078 52.4838 21.8737C53.1594 21.8805 53.8163 22.0968 54.3638 22.4928C54.6343 22.6837 54.8637 22.9272 55.0382 23.2086C55.2128 23.49 55.3289 23.8036 55.3798 24.1308C55.453 24.6977 55.319 25.272 55.0024 25.7479C54.6858 26.2238 54.2079 26.5693 53.6568 26.7208C53.232 26.7724 52.8011 26.7313 52.3937 26.6004C51.9862 26.4695 51.612 26.2519 51.2968 25.9625L49.9848 27.2755C49.9384 27.322 49.8832 27.3589 49.8224 27.384C49.7617 27.4091 49.6965 27.422 49.6308 27.4218L49.63 27.42Z"/>
    </g>
  </g>
  <g id="line">
    <path fill="#000" d="M67 56H5C4.73478 56 4.48043 55.8946 4.29289 55.7071C4.10536 55.5196 4 55.2652 4 55V17C4 16.7348 4.10536 16.4804 4.29289 16.2929C4.48043 16.1054 4.73478 16 5 16H67C67.2652 16 67.5196 16.1054 67.7071 16.2929C67.8946 16.4804 68 16.7348 68 17V55C68 55.2652 67.8946 55.5196 67.7071 55.7071C67.5196 55.8946 67.2652 56 67 56ZM6 54H66V18H6V54Z"/>
  </g>
</svg>
