<svg id="emoji" viewBox="0 0 72 72" xmlns="http://www.w3.org/2000/svg">
  <g id="color">
    <path fill="#6a462f" d="m46.2822,42.9446l1.9958,5.7265c.1351.3878.1431.8086.0227,1.2012l-2.1388,6.9763c-.0497.1622-.1206.3172-.2109.4609l-1.6129,2.5682c-.2522.4015-.3171.8929-.1779,1.3461h0c.2038.6635.8052,1.1254,1.4988,1.151l.6336.0234c.3575.0132.7117-.0732,1.0229-.2496l1.8371-1.041c.3818-.2163.6785-.5563.8412-.9638l3.5694-8.9413c.1454-.3641.1764-.7638.089-1.146l-.15-.656c-.015-.0656-.0316-.1237-.0546-.1869-.218-.5997-1.5018-4.104-2.5846-6.4692-.4373-.9553-1.5494-1.3941-2.5161-.9825l-1.8992.8085c-.1451.0618-.2175.2254-.1656.3744Z"/>
    <path fill="#6a462f" d="m57.3414,29.9148l.0541,2.6959-.6894,6.3165c-.2229,2.0424.1098,4.1071.963,5.976l.1192.261c.4826,1.0571.81,2.1782.9497,3.3319.3918,3.2356,3.4177,10.0194,7.9469,8.249l-.7121-.5168c-.4942-.696-.8829-1.4611-1.1534-2.2707l-1.1636-3.4816c-.3018-.9031-.4627-1.8453-.4769-2.7974-.0396-2.6554-.1195-8.0946-.114-8.394.0042-.2293-.2008-2.4188-.3749-4.2281-.1548-1.6096-.646-3.1659-1.4415-4.5737l-.8015-1.4183c-.1587-.2808-.3958-.5094-.6822-.6577h0c-1.1183-.5789-2.4488.2489-2.4236,1.5079Z"/>
    <path fill="#a57939" d="m10.81,13.29c1.139,3.392-2.043,5.957-2.92,8.968-1.6486,1.8295-2.8915,5.8362.0156,6.6388.4897.1352,1.0142-.0136,1.4058-.3374,2.145-1.7737,5.9551-3.602,6.1515-3.1384l1.3717,2.2748c.0225.0373.0404.0693.06.1082.3297.657,3.6088,7.2419,3.6744,9.336.3465,3.8283,4.5419,5.0954,5.9606,8.1521.0448.0965.0794.1984.1074.301,1.1603,4.255,2.4208,8.5503,2.7081,12.9726.0213.3284-.031.6701-.2029.9508-1.5534,2.5368,2.7822,5.555,3.5038,1.7724,1.158-3.662-.7283-7.357-.6783-11.06.2027-1.7795-.383-4.6919.0956-6.4533.1886-.6941.8528-1.1522,1.572-1.1628l12.344-.1816c.8084-.0119,1.6058-.1881,2.3439-.518h0c.7074-.3161,1.5378-.1098,2.009.5053,1.1635,1.5191,3.2879,4.4016,4.4043,6.5916.0718.1409.124.2873.157.442.744,3.4871-.5779,6.9732-1.6401,10.246-1.162,2.592,2.062,4.688,3.234,1.698,1.3837-4.2038,2.6449-8.5471,2.8963-12.9995.013-.2309-.014-.47-.0958-.6863-.8542-2.2579-3.0066-3.0182-1.7365-5.6442,2.198-1.901,3.8361-6.8874,3.3827-9.9146-.436-2.9103-.7916-4.1385-4.7836-5.7724-.0958-.0392-.2005-.0738-.3009-.0986-5.9454-1.4665-12.0619,1.6061-18.0259.6964-.0479-.0073-7.194-.3742-9.2552-3.2316-2.368-3.529-5.572-6.668-9.713-7.966-2.63-.6877-4.81-3.352-7.689-2.602l-.3564.1125Z"/>
    <path fill="#6a462f" d="m22.0308,41.189l.5594,5.3463c.06.5738.2222,1.1323.4789,1.649l.4133.8322c.459.9241.6106,1.9707.4327,2.987l-.8242,4.7083c-.0232.1327-.052.2644-.0862.3947l-.784,2.9853c-.1204.4585-.0354.9468.233,1.3375h0c.393.5721,1.105.8329,1.7745.6498h0c.8036-.2198,1.5347-.6454,2.129-1.2292.4513-.4433.8868-.9178.8868-1.0985,0-.2697,1.0342-3.8684,1.6152-5.8689.252-.8676.2546-1.7827.0104-2.6525l-1.3748-4.8963c-.1252-.4459-.3137-.8714-.5599-1.2637l-.5795-.9235c-.47-.749-1.1361-1.3549-1.9262-1.7519l-2.3982-1.2051-.0002-.0005Z"/>
  </g>
  <g id="line">
    <path fill="none" stroke="#000" stroke-linecap="round" stroke-linejoin="round" stroke-width="2" d="m16.31,22.62c-.264,3.606-4.25,3.438-4.25,3.438l-1.571,1.736c-1.304,2.826-4.804.8261-4.804-1.236,1.508-3.415,3.062-5.75,3.062-5.75-.125-2.792,3.312-4.625,3.312-4.625l-1.278-1.772c-.4364-.5685-.0718-1.388.6417-1.455,1.253-.1186,3.615-.1459,4.574,1.977,0,0,8.865.9329,13.96,10.43.238.4441,9.877,2.308,16.07.4421,4.284-1.29,17.05-2.062,17.28,10.5.1169,6.406-1.252,15.1,2.998,19.52"/>
    <path fill="none" stroke="#000" stroke-linecap="round" stroke-linejoin="round" stroke-width="2" d="m59.19,37.02c-.4424,1.631-1.221,3.426-2.589,4.642,0,0,1.096,4.786,3.172,6.804l-2.71,12.17-1.062,1.927c-.3055.5545-.8885.8989-1.522.8989h0c-1.252,0-2.096-1.276-1.594-2.423.968-2.212,2.16-5.956,2.389-11.3,0,0-6.722-6.584-6.104-12.48"/>
    <path fill="none" stroke="#000" stroke-linecap="round" stroke-linejoin="round" stroke-width="2" d="m17.78,27.49l2.668,5.633s-1.153,6.343,3.287,9.168l2.422,1.557,2.513,9.234.9167,6.833-.4839,1.213c-.4446,1.114.3761,2.325,1.576,2.325h0c.7126,0,1.349-.4454,1.594-1.115l.7465-2.045c.2401-.6576.2986-1.368.1694-2.056l-1.331-7.089-.1597-8.684s7.241,2.141,14.32-.6019"/>
    <path fill="none" stroke="#000" stroke-linecap="round" stroke-linejoin="round" stroke-width="2" d="m23.51,47.21l.6035,4.42-1.74,7.287-.3672.9192c-.482,1.207.4068,2.519,1.706,2.519h0c.7335,0,1.397-.4362,1.687-1.11l.7899-1.831"/>
    <path fill="none" stroke="#000" stroke-linecap="round" stroke-linejoin="round" stroke-width="2" d="m48.9,60.26l-1.452,1.652c-.4179.4755-1.061.6861-1.68.5495h0c-1.223-.2701-1.771-1.698-1.033-2.71,1.422-1.951,3.394-5.35,4.771-10.52,0,0-.9047-2.133-1.716-4.966"/>
  </g>
</svg>
