<?xml version="1.0" encoding="utf-8"?>
<!-- Generator: Adobe Illustrator 21.1.0, SVG Export Plug-In . SVG Version: 6.00 Build 0)  -->
<svg version="1.1" id="emoji" xmlns="http://www.w3.org/2000/svg" xmlns:xlink="http://www.w3.org/1999/xlink" x="0px" y="0px"
	 viewBox="0 0 72 72" enable-background="new 0 0 72 72" xml:space="preserve">
<g id="_xD83D__xDC09_">
	
		<path fill="#B1CC33" stroke="#B1CC33" stroke-width="2" stroke-linecap="round" stroke-linejoin="round" stroke-miterlimit="10" d="
		M46,24c-1.1-0.6-4-1-5.9-0.9C38.2,23.2,37,21,37,21c-0.9,1.4-0.3,2.8,0.6,3.9c1.2,1.4,2.8,2.4,4.6,2.8C47.7,28.9,48,30,48,30
		l-0.2,2.9c3.9,1.6,4.6,4.5,4.9,5.5l-4.4,0c3.5,2.4,4.3,7.4,4.3,7.4L50,46c-0.2,3-3.5,7.9-8,11s-2.2,7.8-2.2,7.8S34,58,42,51
		s0.6-15,0.6-15c1.6,12-4.4,14.6-4.4,14.6c-7.8,1.6-8.4-3.3-8.4-3.3l3.8,1.4c8.5,0.7,0.2-11.1,0.2-11.1c-9.3-5.4-13.7,2.4-14.1,1
		c-0.4-1.4,1.6-4.8,1.6-4.8c-1.8-1.2-10.8,3.1-10.8,3.1c-0.7-1.1,7.3-5.9,7.3-5.9c-1.4-2-7.6-2-7.6-2s4-6,14.2-2.8L37,34
		c0,0-6.7-6.9-8-12c-1.3-5.2,2.6-8.5,2-8l-3.3-4.3c1.9-0.5,3.6,0.8,4.1,1.2l-1.6-5.1c2.5,0.1,3.8,2.1,4.2,2.8L36,5l3.9,3.5
		c0,0,2.1-1.5,3,0.2c0.9,1.8,3.1,5.2,6.2,5.8c3.1,0.6,1.5,3.9,1.5,3.9S46,17,44,17s-2.8,1.6-2.8,1.6S41,18,45,20S46,24,46,24"/>
	<path fill="#EA5A47" d="M50,21c0,0,4,2,3,4c0,0,3.3,0,4.2,2.5C58,30,63,28,63,28l-4.3-2.2c0,0,0-2.8-1.3-2.8C56,23,53,20,50,21z"/>
	<path fill="none" stroke="#030104" stroke-width="2" stroke-linecap="round" stroke-linejoin="round" stroke-miterlimit="10" d="
		M52.7,45.7c0,0-0.9-4.9-4.3-7.4"/>
	<path fill="none" stroke="#030104" stroke-width="2" stroke-linecap="round" stroke-linejoin="round" stroke-miterlimit="10" d="
		M52.7,38.3c-0.3-1-1-3.9-4.9-5.5"/>
	<path fill="none" stroke="#030104" stroke-width="2" stroke-linecap="round" stroke-linejoin="round" stroke-miterlimit="10" d="
		M48,30c0,0-0.3-1.1-5.8-2.3c-1.8-0.4-3.5-1.3-4.6-2.8c-0.9-1.2-1.5-2.6-0.6-3.9c0,0,1.2,2.2,3.1,2.1C42,23,44.9,23.4,46,24"/>
	<path fill="none" stroke="#030104" stroke-width="2" stroke-linecap="round" stroke-linejoin="round" stroke-miterlimit="10" d="
		M46,24c0,0,3-2-1-4s-3.8-1.4-3.8-1.4S42,17,44,17s6.6,1.5,6.6,1.5s1.6-3.3-1.5-3.9c-3.1-0.6-5.2-4.1-6.2-5.8c-0.9-1.8-3-0.2-3-0.2
		L36,5"/>
	<path fill="none" stroke="#030104" stroke-width="2" stroke-linecap="round" stroke-linejoin="round" stroke-miterlimit="10" d="
		M24.2,26.2C14,23,10,29,10,29s6.2,0,7.6,2c0,0-7.9,4.8-7.3,5.9c0,0,9-4.2,10.8-3.1c0,0-2,3.3-1.6,4.8c0.4,1.4,4.8-6.4,14.1-1
		c0,0,8.3,11.8-0.2,11.1l-3.8-1.4c0,0,0.6,4.9,8.4,3.3c0,0,6-2.6,4.4-14.6c0,0,7.4,8-0.6,15s-2.2,13.8-2.2,13.8S37.5,60.1,42,57
		s7.8-8,8-11"/>
	<path fill="none" stroke="#030104" stroke-width="2" stroke-linecap="round" stroke-linejoin="round" stroke-miterlimit="10" d="
		M31,14c0.6-0.5-3.3,2.8-2,8c1.3,5.1,8,12,8,12"/>
	<path fill="none" stroke="#030104" stroke-width="2" stroke-linecap="round" stroke-linejoin="round" stroke-miterlimit="10" d="
		M34.5,8.5c-0.5-0.7-1.7-2.7-4.2-2.8"/>
	<path fill="none" stroke="#030104" stroke-width="2" stroke-linecap="round" stroke-linejoin="round" stroke-miterlimit="10" d="
		M31.8,10.9c-0.6-0.4-2.2-1.7-4.1-1.2"/>
	<path fill="none" stroke="#030104" stroke-width="2" stroke-linecap="round" stroke-linejoin="round" stroke-miterlimit="10" d="
		M50,21c0,0,4,2,3,4c0,0,3.3,0,4.2,2.5C58,30,63,28,63,28l-4.3-2.2c0,0,0-2.8-1.3-2.8C56,23,53,20,50,21z"/>
</g>
</svg>
