<?xml version="1.0" encoding="utf-8"?>
<!-- Generator: Adobe Illustrator 22.0.1, SVG Export Plug-In . SVG Version: 6.00 Build 0)  -->
<svg version="1.1" id="emoji" xmlns="http://www.w3.org/2000/svg" xmlns:xlink="http://www.w3.org/1999/xlink" x="0px" y="0px"
	 viewBox="0 0 72 72" enable-background="new 0 0 72 72" xml:space="preserve">
<g id="_xD83D__xDC0D_">
	<polygon fill="#5C9F32" points="11.4,52.4 13.1,48 15.8,45.1 19.7,43.2 24,43.1 30.1,43.6 48.8,52 58.5,57.1 58.3,58.2 45,60 
		24.2,60.9 	"/>
	<path fill="#B0CB35" d="M18.5,50.8c0,0.5,0.5,1,1,1h0l1.1,0c4,0.1,7.9-0.7,11.6-2.2c8.2-3.5,4.7-26,4.2-28.9v-0.1
		c0-3.1,2.5-5.6,5.6-5.6c3.4,0,8,2.8,8,5.6c0,3.3-6.5,3.5-6.5,3.5c-0.6,0-1,0.5-1,1c0,0.1,0,0.1,0,0.2c3.1,14.2,1.4,29.7-2.2,31.3
		c-5.6,2.5-16.1,2.8-23.4,2.1c-1.9-0.2-3.1-0.7-3.8-1.6c-0.7-0.9-0.9-2.3-0.6-4.3c0,0,0-0.1,0-0.1"/>
	<path fill="none" stroke="#010101" stroke-width="2" stroke-linecap="round" stroke-linejoin="round" d="M45,59
		c2.2,0,9.4-0.1,12.5-0.2c0.7,0,1.2-0.6,1.1-1.2c0-0.4-0.3-0.8-0.6-1l-9.5-3.6"/>
	<path fill="none" stroke="#010101" stroke-width="2" stroke-linecap="round" stroke-linejoin="round" d="M19.5,50.7
		c0.4,0,0.7,0,1.1,0c3.8,0.1,7.7-0.6,11.2-2.1c7.8-3.3,3.5-27.9,3.5-27.9v-0.2c0-3.6,2.9-6.6,6.6-6.6h0c3.6,0,9,3,9,6.6
		c0,4.3-7.5,4.5-7.5,4.5c2.9,13.6,1.7,30.4-2.8,32.4c-5.8,2.6-16.3,3-23.9,2.2c-5.2-0.5-5.8-3.6-5.3-7.1"/>
	<path fill="none" stroke="#010101" stroke-width="2" stroke-linecap="round" stroke-linejoin="round" d="M29.7,44.6
		c-13.3-6-18.3,6.1-18.3,8"/>
	<path fill="none" stroke="#010101" stroke-width="2" stroke-linecap="round" stroke-miterlimit="10" d="M48.7,24.5
		c0,0,3.8,4.1,7.6,4.6"/>
	<polyline fill="none" stroke="#010101" stroke-width="2" stroke-linecap="round" stroke-miterlimit="10" points="56.9,33.6 
		55.8,29 60.7,26.8 	"/>
</g>
</svg>
