<svg id="emoji" viewBox="0 0 72 72" xmlns="http://www.w3.org/2000/svg">
  <g id="color">
    <path fill="#e27022" d="m48.5444,45.6928l.1799.1825c.7727.7838,1.7552,1.3279,2.8295,1.5672l1.7307.3854c1.1899.265,1.8963,1.4935,1.5267,2.6551l-.3471,1.0911c-.1676.5268-.1898,1.0891-.0643,1.6275l.2578,1.1061c.1617.6939.8822,1.1013,1.5602.8822h0c.608-.1965,1.1151-.6228,1.4131-1.188l1.511-2.8661c.4319-.8192.789-1.6758,1.067-2.5592l.2734-.8688c.5611-1.7832.1134-3.7211-1.1447-5.1039-1.8425-2.025-2.8178-4.375-3.7999-6.8312-.1932-.4831-.8347-.5802-1.1625-.1761l-5.9635,7.3517c-.6613.8152-.604,1.9972.1329,2.7446Z"/>
    <path fill="#e27022" d="m30.2921,43.5997l-1.1611,3.0323-1.4041,6.6825c-.1171.5575-.3815,1.0734-.7657,1.494h0c-.6137.672-1.5735.9049-2.427.5891h0c-.9292-.3439-1.5687-1.2029-1.6314-2.1918l-.2301-3.6238s.5-4.511,1-6.547c.304-1.238,2.21-1.8452,3.6574-2.131.9821-.1939,1.979.2522,2.5083,1.1019l.4537,1.5939h0Z"/>
    <path fill="#f4aa41" d="m67.14,16.53l-1.8874-.5852c-1.1342-.1412-1.7245-.1411-2.7989.2488l-.9428.3995c-1.1559.4195-1.682,2.0188-1.8682,3.2344-.1511.9865.0784,1.931-.0586,2.8527-.3021,2.0332-1.2806,3.899-2.7781,5.307l-.1654.1555c-1.0288.9673-2.3334,1.5902-3.7325,1.782l-2.3026.3157c-1.3985.1918-2.8229-.0016-4.1197-.5593l-.9645-.4148c-1.7964-.7725-3.7089-1.2403-5.659-1.3842l-10.0541-.7419c-1.6796-.1239-3.3681-.0257-5.022.2921l-.654.1257c-2.1473.4127-4.3692.1663-6.374-.7067l-1.6898-.7359c-1.0357-.451-2.0298-.9922-2.9709-1.6171l-2.4522-.7735c-.3224-.2141-2.2812-.1697-2.2812-.1697-.9437.1925-1.3004.6414-.8614,1.4986l.4919.9605c.2377.4641.2089,1.0199-.0754,1.457l-1.8326,2.8169c-.656,1.0083-.8786,2.2381-.6178,3.4124h0c.3088,1.3902,1.5093,2.3997,2.932,2.4638,1.0657.048,2.3166.1327,3.379.2819.8271.1162,1.6683.0163,2.4561-.2614l.043-.0152c.8804-.3103,1.8337.2625,1.9306,1.1835.1366,1.2982.6328,2.5938,1.1383,3.8151.2843.6869-.0048,1.4701-.6559,1.8288-2.1275,1.1723-3.3371,2.3017-4.0527,4.0364-.1604.3892-.2959,1.0226-.4112,1.7291-.2876,1.7615-1.0399,3.0134.397,4.0723l.8801.4484c.372.2741,1.4684.436,1.9074.292.9599-.315,2.4133-1.1994,1.822-3.6287-.1222-.502.0196-1.0361.3893-1.3971l1.1039-1.0779c.734-.7167,1.5769-1.3111,2.4969-1.7648,1.0385-.5121,2.1523-1.0409,2.6894-1.2945.2167-.1023.4509-.1475.6902-.1355l13.5132.6778c.398.02.7705.2023,1.0304.5045l1.8851,2.1916c.2853.3317.4062.7741.3293,1.2048l-.8669,4.8546c-.1704.9541.6219,1.805,1.5857,1.703h0c.4017-.0425.7676-.25,1.0103-.5729l4.2126-5.6053c.1895-.2521.2919-.5589.2919-.8743v-2.4575c0-.3496.1246-.6849.3527-.9497,1.1492-1.3342,4.7636-5.6731,5.6683-8.4829l.0119.0164s5.806-3.004,8.03-7.525c3.597-5.054-.6774-9.975,4.438-8.312,1.289.4189,2.883-2.184,1.32-3.809-.2826-.3119-.1871-.2065-.2826-.3119l.0059.0013Z"/>
  </g>
  <g id="line">
    <path fill="none" stroke="#000" stroke-linecap="round" stroke-linejoin="round" stroke-width="2" d="m12.46,35.74c-2.333,1-4.917.8333-4.917.8333-1.677.1458-3.115-4.01-2.485-4.733l3.318-5.1-1.75-3.417s5.008-1.415,7.883,2.09c.3444.42.7943.7429,1.279.9871.0298.015.0602.0302.0912.0456,2.593,1.289,5.546,1.571,8.385.9981,7.222-1.458,14.07-1.37,21.7,2.212,7.625,3.583,14.53-2.25,13.64-7.5-.793-4.647,3.562-7.583,6.75-5"/>
    <path fill="none" stroke="#000" stroke-linecap="round" stroke-linejoin="round" stroke-width="2" d="m16.05,48.82c.6006-2.206,8.491-3.648,8.491-3.648,0,0,3.228-1.201,1.426-4.504"/>
    <path fill="none" stroke="#000" stroke-linecap="round" stroke-linejoin="round" stroke-width="2" d="m18.3,33.24c-1.543,1.834-3.893,4.803-.44,9.158,0,0-6.756,2.853-6.006,8.033,0,0,.3624,2.476,2.402,2.402"/>
    <path fill="none" stroke="#000" stroke-linecap="round" stroke-linejoin="round" stroke-width="2" d="m23.5,50.03c-1.156,7.254,2.386,6.055,3.017,5.661,1.148-.7173,1.848-9.854,3.952-11.31,1.592-1.104,8.167-.3021,8.167-.3021"/>
    <path fill="none" stroke="#000" stroke-linecap="round" stroke-linejoin="round" stroke-width="2" d="m38.44,41.33c.0911,1.742.7529,3.402,1.734,4.845.6616.9727,1.803,2.32,1.453,2.985-4.479,8.5.6224,7.022,1.083,6.167,3.188-5.917,6.125-4.104,4.647-10.52,0,0,5.27-1.81,5.52-7.977"/>
    <path fill="none" stroke="#000" stroke-linecap="round" stroke-linejoin="round" stroke-width="2" d="m48.15,45.59s2.367,3.204,7.758,2.693c0,0-3.326,6.762,0,7.62,1.917.4941,4.722-11.16,4.722-11.16,0,0-1.839-.7937-3.951-4.182"/>
  </g>
</svg>
