<svg id="emoji" viewBox="0 0 72 72" xmlns="http://www.w3.org/2000/svg">
  <g id="color">
    <path fill="#3f3f3f" d="m8.6557,28.7147l-1.4839,2.2388c-.4358.6576-.6675,1.4294-.6658,2.2183h0c.0019.9123.5309,1.7412,1.3575,2.1272h0c1.6013.7478,3.4305.8441,5.1015.2687l1.387-.4776c.8303-.2859,1.7486.0964,2.1119.8959.6897,1.5177,2.0374,3.8555,4.1702,5.0262.7175.3939,1.5276.5845,2.343.6561.817.0718,2.0979.1843,3.0822.2707.8164.0717,1.4666.7106,1.5544,1.5255l.3586,3.3295c.1323,1.2283.1511,2.4662.0563,3.698l-.1408,1.8299c-.0767.9969.2175,1.9871.8262,2.7804h0c.5391.7027,1.5245.8795,2.2744.4083h0c.389-.2445.6638-.6348.7627-1.0835l1.0281-4.6641c.2589-1.1744.4292-2.3665.5096-3.5664l.2028-3.0272c.0596-.889.7896-1.5845,1.6804-1.6009l4.1571-.0769c.8942-.0165,1.7885.0289,2.6765.1361l3.4285.4136c.862.104,1.6899.3993,2.4231.8644h0c.5923.3757,1.3537.3531,1.9227-.0571l2.6282-2.9569c.8868-.6394,2.1374-.2975,2.5756.704l1.4704,4.3454c.1017.2323.1506.4843.1432.7378l-.1787,6.1288c-.025.8575.2422,2.1993.5938,2.9818h0c.4025.8957,1.2931,1.472,2.2751,1.472h0c.5715,0,1.1255-.1974,1.5683-.5588h0c.6778-.5532,1.0871-1.3694,1.1249-2.2434l.3623-8.357c.0086-.1974-.0164-.3926-.075-.5813-.2624-.8445-1.0246-3.3004-1.0703-3.4821-.0405-.1612.6018-6.4764.9469-9.8288.1107-1.0752.2765-2.1382.53-3.189.3891-1.6132.8604-4.522-.3187-5.997-1.6848-2.1075-8.9295-1.9046-8.9295-1.9046l-13.764.0602c-.145.0006-.284-.0161-.4245-.0516-1.1751-.2968-7.2014-1.6823-10.3049.2611-.28.1753-.793.2479-1.1193.1963l-.5235-.0828c-.6913-.1093-1.3104.1346-1.6945.6252l-.5968.7623c-.4107.5245-1.0878.764-1.7369.6142l-3.2506-.75c-.1091-.0252-.2155-.061-.3177-.1069l-1.673-.7519c-1.286-.578-2.7368-.6747-4.0881-.2724h0c-1.9788.589-3.4593,2.2394-3.8307,4.2704l-.0777.4252c-.2218,1.2128-.6873,2.368-1.3685,3.3957Z"/>
    <path fill="#3f3f3f" d="m39.4279,43.8041l-1.2714,9.5503c-.0869.6524-.3571,1.2675-.7841,1.7683-.3626.4253-.5471.6304-.868.8355-.4174.2667-2.012.5766-2.3021.5416-.0118-.0014-.0238-.0025-.0358-.0039-1.3956-.1535-2.327-1.5188-2.0004-2.8843l.9144-3.8239c.0325-.136.0529-.2747.0608-.4144l.3123-5.5108c.0303-.5344.2418-1.0425.5995-1.4406l.4232-.4709c.4267-.4747,1.0278-.7559,1.6656-.7791l.8664-.0315c1.4574-.053,2.6119,1.2181,2.4195,2.6637Z"/>
    <path fill="#9b9b9a" d="m9.2127,16.625c-.7838-.3971-2.748.2718-4,2.0833-2.0867,3.0193-1.3098,7.7014,5.25,6.0417,0,0,2.0417-3.6667,7.467-.6992,0,0,5.8915,5.0326,9.908-.8073.6672-1.2435,1.5833-7.1383-3.7083-7.1185l1.562,3.9537c.1486.3761.0664.8041-.2108,1.0985h0c-.9463,1.0048-2.393,1.3623-3.6989.9152-.89-.3047-1.7583-.596-1.9343-.6341-.3847-.0833-3.5891-1.2083-3.8202-1.2083s-3.1062.4583-3.5228.8333-2.6667,1.1787-3.3334,1.1667c-.1775-.0032-.4343-.0136-.7154-.0272-.8896-.0429-1.5216-.8858-1.3106-1.7511.1685-.691.3146-1.3532.2761-1.4301-.0833-.1666,1.7917-2.4166,1.7917-2.4166Z"/>
  </g>
  <g id="line">
    <path fill="none" stroke="#000" stroke-linecap="round" stroke-linejoin="round" stroke-width="2" d="m8.9109,17.5549s-3.968,3.5483-1.7036,5.0512c.9172.6087,2.9356-.4136,3.4998-1.0225.8495-.9168,3.7525-3.6489,8.2239-.3394,1.174.8689,2.6347,2.5625,5.0689,1.3867,1.5162-.7324,3.6398-3.5863.2605-5.5297"/>
    <path fill="none" stroke="#000" stroke-linecap="round" stroke-linejoin="round" stroke-width="2" d="m19.1534,26.5124s2.3202-.7013,4.6678,1.5608c0,0,.0058,3.0133-4.5349,3.029"/>
    <path fill="none" stroke="#000" stroke-linecap="round" stroke-linejoin="round" stroke-width="2" d="m29.1683,20.4855s2.6885-2.5698,9.6703-.8573c5.3092,1.3022,12.4973.3827,15.6368-.1326,1.0363-.1701,11.7128.2626,11.0173,9.2837-.4897,6.352-1.9217,11.048.7569,14.3853"/>
    <path fill="none" stroke="#000" stroke-linecap="round" stroke-linejoin="round" stroke-width="2" d="m27.3372,41.0565c-3.3251.4223-5.8873.4044-7.6501-.8123-1.8748-1.577-2.9481-3.5708-3.7853-5.6875-1.6255,1.1176-6.5272,1.9792-7.785,1.3629-2.6033-1.2755-1.6134-3.9576-1.6134-3.9576l4.1212-6.2179"/>
    <path fill="none" stroke="#000" stroke-linecap="round" stroke-linejoin="round" stroke-width="2" d="m34.5837,27.6133l.4346,9.4476s-2.7664,4.918-1.976,10.4948l-1.466,6.7936c-.1951.9041-.9947,1.5495-1.9196,1.5495h-.1172c-1.2916,0-2.2456-1.2282-1.8966-2.4718.6333-2.2561,1.2656-5.7606.4971-9.2444-1.5235-6.9057-.411-8.5966-.411-8.5966"/>
    <path fill="none" stroke="#000" stroke-linecap="round" stroke-linejoin="round" stroke-width="2" d="m33.4376,41.2899s10.4948-1.1991,15.5445,1.3039c0,0,3.1177-3.6885,5.0498-3.9959"/>
    <path fill="none" stroke="#000" stroke-linecap="round" stroke-linejoin="round" stroke-width="2" d="m50.2325,30.1022s5.3842,11.0864,5.9989,13.0624c.487,1.5655.4278,7.9893.4355,10.4924.0093,3.0265,4.3664,2.6583,4.4853.2332.0937-1.9102.3043-5.6929.9117-8.5278.1792-.8364.2995-1.6849-.1053-2.4384-.94-1.7497-1.8987-5.1703-.9868-9.6829.8332-4.1227.7776-5.066.7776-5.066"/>
    <path fill="none" stroke="#000" stroke-linecap="round" stroke-linejoin="round" stroke-width="2" d="m39.3137,41.1544s-1.3498,10.3292-1.4115,12.7244c-.0191.7432-.9928,1.3614-1.7362,1.3614h-1.1477"/>
  </g>
</svg>
