<svg id="emoji" viewBox="0 0 72 72" xmlns="http://www.w3.org/2000/svg">
  <g id="color">
    <path fill="#ffa7c0" d="m66.4474,42.6927c.1302,1.5025-3.1506,5.5731-4.3616,7.1622-.369.4842-.6417,1.037-.7606,1.634-.3227,1.6203-1.6193,5.2049-6.7964,5.8764-1.2259.159-2.4689.0698-3.6829-.1633-6.0074-1.1533-31.286-5.3218-40.6398,4.1455-.2722.2755.0033.7386.3735.6246,1.2098-.3724,2.6523-1.6478,4.572-2.2387,4.2443-1.3066,8.652-2.0074,13.0922-2.0817l5.1721-.0865c2.7337-.0457,5.4664.1391,8.1691.5523l8.9224,1.3643c3.104.4746,6.2784.1093,9.1934-1.058h0c1.833-.734,2.9232-2.0829,4.2654-3.5311h0c.9559-1.0314,1.6552-2.372,2.2024-3.7737.4395-1.1259.9156-2.2944.8831-3.5027l-.1019-1.242c-.1643-1.7028-.1471-2.6436-.5024-3.6818"/>
    <path fill="#9b9b9a" d="m66.3401,42.2902l-.5705-1.7515c-.8069-2.477-2.0566-4.7869-3.6885-6.8175h0c-2.1577-2.6849-4.9158-4.8254-8.0522-6.2493h0c-2-.908-4.1456-1.4533-6.3364-1.6104l-.7487-.0537c-1.9209-.1378-3.8516-.0169-5.7404.3593l-4.197.8359c-.5811.1157-1.1721.174-1.7646.174h-4.2744c-.8295,0-1.6542-.1257-2.446-.3729l-2.0728-.6471c-.6014-.1877-1.0434-.7016-1.1391-1.3243l-.07-.4556c-.1811-1.1779-1.4226-1.8706-2.52-1.4058h0c-.59.2498-1.1207.621-1.5578,1.0895l-.869.9315c-.2377.2548-.55.4278-.8921.4942l-4.5527.8835c-.7965.1546-1.5775.3809-2.3332.6762l-4.6089,1.8009c-1.1067.4324-1.6358,1.695-1.168,2.7872h0c.2402.5608.6501,1.0323,1.172,1.3481l2.8995,1.7544,1.055.6039c1.4351.8216,3.0486,1.2815,4.7012,1.34l2.0596.073c.6614.0234,1.2448.4399,1.482,1.0578l.346.9016c.3954,1.0304.9386,1.9977,1.6125,2.8717l1.4174,1.8381c.067.0869.1252.1802.1736.2786l.5622,1.1417c.2109.4282.2259.9268.0413,1.367l-2.1861,5.2121c-.1603.3823-.1709.8109-.0296,1.2006l.1364.3761c.2998.8268,1.1955,1.2731,2.0361,1.0146l.7701-.2368c.2264-.0696.4351-.1872.6121-.3447l6.6257-5.8986c.5857-.5215,1.4526-.5613,2.0801-.0909.8966.6721,2.3588,1.5759,4.2621,2.0942.9492.2585,1.458,1.2916,1.0888,2.2035h0c-.1976.4881-.1504,1.0412.1271,1.4887l.03.0483c.3585.5781,1.035.8769,1.7038.7526l1.9176-.3565c.1456-.0271.2869-.0736.4201-.1384l2.2561-1.0974c.3589-.1746.7688-.2131,1.154-.1086l3.846,1.0441c.0831.0226.169.04.2544.051,4.1119.5289,7.8084-.2504,10.9348-2.8238,1.1127-.8062,2.2884-1.5596,2.9187-2.6834,1.2842-2.2898,1.5018-4.6184,1.1219-5.6267Z"/>
  </g>
  <g id="line">
    <path fill="none" stroke="#000" stroke-linecap="round" stroke-linejoin="round" stroke-width="2" d="m19.927,36.0341c-6.75,2.4057-9.6365-1.2167-9.6365-1.2167-3.0683,0-4.2715-2.4868-4.6998-3.8443-.1516-.4805.0785-.9949.5357-1.2065l6.2553-2.895c.9073-.4199,1.8704-.7067,2.8596-.8514l4.1816-.6119s5.1722-6.4608,5.5874.0426c0,0,.3333,5.6667-2.8199,4.4545"/>
    <path fill="none" stroke="#000" stroke-linecap="round" stroke-linejoin="round" stroke-width="2" d="m32.499,35.6476c2.4907,3.5284,0,11.0005,0,11.0005l-7.9635,7.0895c-.4845.4893-1.1866.6949-1.8585.5443l-.0865-.0194c-1.2654-.2836-1.9277-1.6753-1.3501-2.8363,1.4782-2.9711,2.818-6.6461,2.818-6.6461-1.4108-.7054-2.209-2.6946-2.9129-4.8293"/>
    <path fill="none" stroke="#000" stroke-linecap="round" stroke-linejoin="round" stroke-width="2" d="m10.3333,62.3382c13.5-7.3948,30.1667-3.9632,42.3436-2.2208,8.3342,1.1723,18.9168-6.3613,12.1776-20.2726-8.7723-19.7705-26.2673-13.6064-29.0347-12.5686s-10.8095-1.8254-10.8095-1.8254"/>
    <path fill="none" stroke="#000" stroke-linecap="round" stroke-linejoin="round" stroke-width="2" d="m60.677,50.375c-5.302,6.375-14.5356,1.7219-14.5356,1.7219,0,0-4.7982,2.4447-5.4176,2.4447h-.1645c-1.5297,0-2.4931-1.6473-1.7431-2.9805l2.3608-4.777c-5.6878-8.5793,6.2429-12.9353,6.2429-12.9353"/>
  </g>
</svg>
