<svg id="emoji" viewBox="0 0 72 72" xmlns="http://www.w3.org/2000/svg">
  <g id="color">
    <path fill="#d0cfce" d="m27.1076,20.1271c.0532,1.1599.4684,2.2753,1.2138,3.1655.5807.6935,1.3738,1.5016,2.3584,2.183,1.0424.7214,3.3369,1.3232,5.4995,1.7614,2.9265.593,5.9471.5184,8.8446-.2032l1.1341-.2824c3.2698-.8144,6.7446-.5531,9.7862.8974.7691.3668,1.4156.7658,1.7721,1.1778,1.3395,1.5479,7.178,6.2112,1.2949,13.7981-.8458,1.0907-1.2604,2.4585-1.2101,3.8379l.1444,3.9683c.0089.2455.0084.295.0057.3518l-.4741,10.0551c-.0237.5017-.2272.9805-.5826,1.3353-.3093.3088-.6744.6223-.8813.6223-.2049,0-.9153-.3074-1.5712-.6132-.7545-.3517-1.2165-1.1297-1.1711-1.9609l.1882-3.4463c.0361-.6602.0119-1.3223-.0722-1.9781l-.1096-.855c-.1196-.9326-.3983-1.8377-.8241-2.676l-1.2418-2.4449c-.5147-1.0133-1.2449-1.9018-2.1392-2.6032h0c-.5504-.4316-1.2814-.5531-1.9406-.3191-1.138.4041-2.8567.9053-3.2849.9678-.6171.0902-7.1254.3638-7.9218.4112-.0607.0036-.1052.0042-.1659.0019-.2983-.0113-1.3242-.0608-2.3235-.2359-1.0815-.1894-2.1125.5364-2.329,1.6127l-2.1778,10.8231c-.1178.5854-.4857,1.09-1.0071,1.3811h0c-.5539.3093-1.2199.3438-1.8028.0935l-.2658-.1142c-.7917-.34-1.2851-1.1401-1.2334-2.0002l.5694-9.4858c.0492-.8197-.0391-1.6419-.2612-2.4325h0c-.2115-.7527-.8116-1.3651-1.5818-1.4996-2.2472-.3926-3.7429-1.9652-4.7493-4.3061l-1.6108-3.4073c-1.1474-2.4272-2.0025-4.9821-2.5473-7.6111l-.0089-.0431c-.1538-.7421-.7056-1.3381-1.4336-1.5485l-3.5018-1.0122c-.937-.2708-1.7074-.94-2.1068-1.8298l-.307-.684c-.4158-.9265-.0882-2.0178.7692-2.5621l2.7764-1.7625c.1521-.0965.2907-.2127.4123-.3456l.5933-.6483c.5724-.6254,1.1793-1.2184,1.8178-1.7762l2.0876-1.8236c.0869-.0759.1674-.1574.2393-.2477.5304-.6659,3.2673-3.8375,6.0519-2.1553,1.307.7896,2.431,1.6488,3.2941,2.3786,1.2066,1.0203,1.9129,2.5111,1.9854,4.0896h0Z"/>
    <path fill="#a57939" d="m16.7078,19.0282c.572.2029,1.3463.2985,2.3943.1877.155-.0164.3105-.0685.4457-.1459l1.142-.6538c.3263-.1868.7247-.197,1.0601-.027h0c.3756.1903.6124.5756.6124.9967v.8509c0,.2514-.0848.4954-.2406.6926l-.6343.8029c-.2722.3445-.7209.4977-1.1469.3916l-1.5156-.3776c-.3238-.0807-.6559-.1232-.9895-.1266l-1.7783-.0182-.192.6598c-.0985.3384-.0668.7013.0887,1.0175l.377.7664c.1481.301.3325.5827.549.8388h0c.7659.9058,1.8919,1.4283,3.0781,1.4283h0c.5845,0,1.1672-.0658,1.737-.1961l1.2577-.2877c.9161-.2095,1.7412-.7066,2.3547-1.4185l.7725-.8964c.5873-.6816.9968-1.4979,1.1918-2.3763l.1102-.4962c.1398-.6297.1587-1.2802.0556-1.9169l-.158-.9759c-.1251-.7729-.4791-1.4906-1.0162-2.0603l-.137-.1453c-.7231-.7669-1.6235-1.3445-2.622-1.6819l-.8615-.2911c-.6523-.2204-1.3442-.2986-2.0292-.2293l-.5062.0512c-1.0812.1093-2.0898.5941-2.8506,1.3701l-1.2294,1.2539c-.9351.9538-.5786,2.566.6803,3.0125Z"/>
    <path fill="#fff" d="m23.2296,27.0112c-.5137,1.2258-2.0585,3.7445-6.3283,4.9154-.7337.2012-1.1482.9773-.8764,1.6879.6585,1.7213,1.7245,4.5078,1.9142,5.0037.0177.0462.0371.1154.0495.1633.1766.6797,1.3558,4.2628,2.1868,4.3646.5243.0642,1.9954,1.3713,3.2146,1.8654.9291.3765,1.967.384,2.8923-.0018,1.0534-.4392,2.6326-.8877,4.3027-.6123.8377.1381,1.5633-.5929,1.4503-1.4344h0c-.1219-.9078.4322-1.7707,1.312-2.0258,2.5779-.7472,7.9795-1.7952,12.5317.7329,1.3906.7723,2.9845,1.1576,4.5649.9766,1.6311-.1867,3.8128.0207,5.5861,1.8072.7878.7936,2.1333.3286,2.2098-.787v-.0012c.0186-.2703.1224-.5277.2965-.7353l1.7245-2.0566c.8796-1.049,1.3617-2.3742,1.3617-3.7432h0c0-1.6474-.3869-3.2718-1.1295-4.7424l-.4778-.9462c-.4168-.8254-.9918-1.5608-1.6922-2.1644l-.6445-.5554c-.931-.8023-2.2186-1.5536-3.0129-1.9847-.607-.3295-1.2724-.5272-1.9602-.5901-.9202-.0842-2.1045-.1147-2.9719-.1252-.76-.0092-1.5102.1034-2.2475.2879-1.2972.3245-2.6175.5515-3.9497.6788l-.7726.0738c-1.546.1478-3.1026.1486-4.6487.0024l-.2774-.0262c-1.3393-.1266-2.644-.4975-3.8496-1.0943l-2.5668-1.2707c-.5704-.2823-1.1227-.5997-1.6539-.9501l-1.0947-.7222c-.582-.384-1.3616-.2345-1.7573.3395-.7295,1.0581-1.9214,2.5801-2.9395,2.9139-.3513.1152-.6029.4154-.7458.7563Z"/>
  </g>
  <g id="line">
    <path fill="none" stroke="#000" stroke-linecap="round" stroke-linejoin="round" stroke-width="2" d="m30.5646,25.1929l.5192.26s8.4026,3.5753,16.954.7563c0,0,8.1052-2.4752,12.2693,5.5005,2.7067,5.1842.6735,8.54-1.0813,10.2539-1.0828,1.0576-1.6594,2.5275-1.4654,4.0286l.4646,3.5942-.3795,10.9952c-.0372,1.0771-.9211,1.931-1.9988,1.931h-.5794c-1.1966,0-2.1254-1.0437-1.9865-2.2323l.2318-5.4098c.073-1.7043-.3885-3.3889-1.32-4.818l-3.4857-5.3479s-2.8257-5.1567-.5205-8.8008"/>
    <path fill="none" stroke="#000" stroke-linecap="round" stroke-linejoin="round" stroke-width="2" d="m36.0861,46.1265c3.5312.4581,9.2266.9151,11.6542-.4592"/>
    <path fill="none" stroke="#000" stroke-linecap="round" stroke-linejoin="round" stroke-width="2" d="m63.0383,28.9594s3.1975.1375,3.3462,4.813"/>
    <path fill="none" stroke="#000" stroke-linecap="round" stroke-linejoin="round" stroke-width="2" d="m19.5581,18.2215s2.7513-1.3862,3.0487,1.3862c.1487,1.3862-.6784,1.9951-1.3481,2.5483-.9896.8174-3.3808.0229-4.7505-.5393-.4961-.2036-1.0303.234-.912.757.352,1.5559,1.5637,3.7142,4.2163,4.1262,6.4375,1,11.0482-7.7853,4.8764-11.9107-6.7203-4.492-9.7411,2.6815-9.7411,2.6815l-2.7362,1.4439-1.1154,1.5126s-6.0962,1.6336-4.0962,4.9394l1.75,2.25,4.1958.3953c1.136.107,2.0137,1.0444,2.0459,2.185l1.028,4.5431,3.6444,7.767c.504,1.0741,1.4088,1.9079,2.5204,2.3226l2.7982,1.044c.4563,1.1771.7472,2.1251.7472,2.1251l-1.1773,11.0583c-.1258,1.1817.8004,2.2117,1.9888,2.2117h.7429c.9595,0,1.7838-.6814,1.9643-1.6237l2.7706-14.4637c.0701-.3659.0872-.7399.0507-1.1106l-.5399-5.4916"/>
  </g>
</svg>
