<svg id="emoji" viewBox="0 0 72 72" xmlns="http://www.w3.org/2000/svg">
  <g id="color">
    <path fill="#3f3f3f" d="m48.1281,45.2706l.3905.3961c.907.9199,2.0601,1.5586,3.3211,1.8394l2.0024.4459c.8902.1982,1.4188,1.1174,1.1423,1.9865l-.3893,1.2238c-.2533.7963-.2869,1.6462-.0973,2.46l.077.3303c.2063.8851,1.1251,1.4046,1.9899,1.1251h0c.3856-.1246.7071-.395.8961-.7534l1.2982-2.4624c.6852-1.2997,1.2017-2.6816,1.537-4.1121l.2654-1.1324c.2828-1.2067.0426-2.4774-.664-3.4957-.7102-1.0234-1.4197-2.0506-1.9236-3.0872-.0907-.1866-.2187-.3468-.3748-.4835-.6357-.5563-1.1298-1.2287-1.5661-1.9701-.9488-1.6125-3.2394-1.703-4.2612-.1358l-3.8386,5.8872c-.3988.6116-.3176,1.4184.195,1.9384Z"/>
    <path fill="#3f3f3f" d="m30.1301,45.071l-.7613,1.1894c-.1572.2457-.2686.5178-.3285.8033l-1.3571,6.4586c-.0885.4214-.2884.8113-.5788,1.1292l-.0647.0708c-.6612.724-1.6953.9749-2.6148.6347h0c-.8675-.321-1.4746-1.1105-1.5621-2.0313l-.2976-3.1312c-.0204-.2145-.0123-.4282.0248-.6404.1925-1.1033.8444-4.7847,1.2667-6.5041.2504-1.0196,1.5414-1.6154,2.7679-1.9561,1.3488-.3747,2.7813.2168,3.5214,1.4051h0c.4912.7887.485,1.7896-.0159,2.5721Z"/>
    <path fill="#3f3f3f" d="m67.59,16.75l-.4712-.0984c-.8619-.2526-1.5234-.4165-2.0589-.5108-1.5456-.2721-3.0951.4408-3.8994,1.7884-.4024.6742-.8002,1.4674-.9065,2.11l-.3503,2.1166h0c-.2443,2.0484-1.0874,3.9792-2.4238,5.5508l-.3528.4148c-.5614.6602-1.23,1.221-1.9778,1.659l-.3108.182c-.7889.462-1.6861.7069-2.6003.7099h0c-.1816.0006-.3601-.0142-.5385-.0483-.2808-.0537-.8014-.1148-.8014-.1148-1.6075,0-3.2015-.2943-4.7031-.8684l-3.0516-1.1666-1.935-.676c-2.6649-.931-5.4863-1.3307-8.3049-1.1765l-5.508.3013c-.0767.0042-.153.0136-.2284.0281l-3.0356.5834c-2.1452.4123-4.5736,1.0394-6.5763.1672l-2.6488-1.4227c-.0914-.0398-.8435-.5251-.9266-.5803l-2.1153-1.4601c-.3773-.2505-1.8266-.7847-2.2703-.6942l-1.6139.0671c-1.1044.2253-.3921.5973.1217,1.6005l.4305.702c.2782.5431-.3564,1.1418-.6892,1.6533l-2.0459,3.1447c-.4695.7217-.6289,1.6019-.4422,2.4423h0c.3813,1.7167,1.8847,2.9517,3.6427,2.9926l1.9176.0446c.119.0028.2374.018.3533.0455l.6966.1652c.6196.1469,1.2685.1125,1.8691-.0992h0c1.1635-.4101,2.3635.5144,2.2637,1.744h0c-.0332.4085.0297.8191.1836,1.199l.5682,1.4029c.1939.4788.1601,1.0198-.0921,1.4707h0c-.4689.8384-1.097,1.5773-1.849,2.175l-.9766.7763c-1.0214.8119-1.6807,1.9944-1.8344,3.2901l-.0935.7885c-.097.8174.151,1.6381.6844,2.2651l.528.6207c1.5224,1.7896,4.5243.439,4.0741-1.867-.007-.036-.0145-.0725-.0225-.1092-.1284-.5909.027-1.2095.4597-1.6319l.7061-.6894c.8908-.8698,1.9931-1.492,3.198-1.8052l2.6605-.6916c.1642-.0427.3212-.1097.4656-.1988h0c1.1304-.6973,2.4778-.9541,3.7855-.7217l2.2578.4014c.0984.0175.1981.0263.2981.0263h7.3155c.5869,0,1.1324.3022,1.4437.7997l1.2184,1.9471c.2612.4175.329.9277.1857,1.3989l-1.116,3.6702c-.0546.1795-.0791.3668-.0726.5543l.0224.6487c.0341.9875.8987,1.7387,1.8812,1.6348h0c.4706-.0498.8993-.2931,1.1832-.6717l2.5027-3.3364,1.594-2.1149c.2226-.2954.343-.6552.343-1.0251v-2.2043c0-.4572.1838-.8951.5101-1.2154l2.9136-2.8599c.1425-.1398.2592-.3036.345-.4839l1.9511-4.1025c.1695-.3564.4356-.6545.7738-.8579,1.5161-.9117,6.0324-3.8566,7.8694-7.5909,3.597-5.054-.677-9.975,4.438-8.312,1.289.4189,2.75-2.25,1.187-3.875l.0009-.0017Z"/>
  </g>
  <g id="line">
    <path fill="none" stroke="#000" stroke-linecap="round" stroke-linejoin="round" stroke-width="2" d="m12.46,35.74c-2.333,1-4.917.8333-4.917.8333-1.677.1458-3.115-4.01-2.485-4.733l3.318-5.1-1.75-3.417s5.008-1.415,7.883,2.09c.3444.42.7943.7429,1.279.9871.0298.015.0602.0302.0912.0456,2.593,1.289,5.546,1.571,8.385.9981,7.222-1.458,14.07-1.37,21.7,2.212,7.625,3.583,14.83-2.25,13.94-7.5-.793-4.647,3.562-7.583,6.75-5"/>
    <path fill="none" stroke="#000" stroke-linecap="round" stroke-linejoin="round" stroke-width="2" d="m16.05,48.82c.6006-2.206,8.491-3.648,8.491-3.648,0,0,3.228-1.201,1.426-4.504"/>
    <path fill="none" stroke="#000" stroke-linecap="round" stroke-linejoin="round" stroke-width="2" d="m18.3,33.24c-1.543,1.834-3.893,4.803-.44,9.158,0,0-6.756,2.853-6.006,8.033,0,0,.3624,2.476,2.402,2.402"/>
    <path fill="none" stroke="#000" stroke-linecap="round" stroke-linejoin="round" stroke-width="2" d="m23.5,50.03c-1.156,7.254,2.386,6.055,3.017,5.661,1.148-.7173,1.848-9.854,3.952-11.31,1.592-1.104,8.167-.3021,8.167-.3021"/>
    <path fill="none" stroke="#000" stroke-linecap="round" stroke-linejoin="round" stroke-width="2" d="m38.44,41.33c.0911,1.742.7529,3.402,1.734,4.845.6616.9727,1.803,2.32,1.453,2.985-4.479,8.5.6224,7.022,1.083,6.167,3.188-5.917,6.125-4.104,4.647-10.52,0,0,5.27-1.81,5.52-7.977"/>
    <path fill="none" stroke="#000" stroke-linecap="round" stroke-linejoin="round" stroke-width="2" d="m48.15,45.59s2.367,3.204,7.758,2.693c0,0-3.326,6.762,0,7.62,1.917.4941,4.722-11.16,4.722-11.16,0,0-2.667-2.45-3.583-4.366"/>
  </g>
</svg>
