<?xml version="1.0" encoding="utf-8"?>
<!-- Generator: Adobe Illustrator 19.1.0, SVG Export Plug-In . SVG Version: 6.00 Build 0)  -->
<svg version="1.1" id="emoji" xmlns="http://www.w3.org/2000/svg" xmlns:xlink="http://www.w3.org/1999/xlink" x="0px" y="0px"
	 viewBox="0 0 72 72" enable-background="new 0 0 72 72" xml:space="preserve">
<g id="_xD83D__xDC06_">
	<path fill="#F4AA41" d="M10.9,22.6l-4,2l-2.5,1.8l-0.9,2.7L2,33.3l1.8,2.3L9.7,34l1.6,1.6l3.7,1.9l1.2,4.3l-4,3.9l-1.4,4.4l0.5,2.7
		l2.8,2.4l3-2.8c0,0-0.5-3,0.9-4.3c1.5-1.3,3.4-3.7,3.4-3.7v8.4l0.6,2.5l2.2,0.5l1.4-1.8l1.5-12.9l2.3,0.3l6,0.5l4.2-2.1l1.1,4.6
		l3.7,3.7l-0.8,4.8l1.2,2.3l2.5-1.5l2.4-4.1v-3.6l-4.1-4l7.7,5.3l2.8,1.8l0.7,5.9l1.9,1l1.8-1.4l-0.8-9l-1.7-1.4l-3.5-5.7l0.3-4.3
		l-0.6-5.3c-3.7-1.9-7.6-2.9-11.6-2.8L34,25.7l-7.4,0.5l-4.8-1.4l-6.8-0.2l-1.7-1.4L10.9,22.6z"/>
	<path fill="#FFFFFF" d="M42.2,37.1c0,0-10.7-4.6-14.2-0.2l-0.9,4l4.4,1l7.2-1.4L42.2,37.1z"/>
	<path fill="#FFFFFF" d="M19.9,40.9L15,43.5L11.5,48v5.4l4.4,1.6l1.4-2.9c0,0-0.3-2.6,0.7-3.9c1-1.2,3.3-4.1,3.3-4.1l-0.2-2.2
		L19.9,40.9z"/>
	<path fill="#FFFFFF" d="M40.6,43c0,0,7.6-1.3,9.8,2.6v3.7L46.7,55l-2.2,0.2l-1.1-1.5l1-4.4l-0.7-1.6l-1.5-2.5L40.6,43z"/>
	<path fill="#F4A941" d="M54,33.8c0,0,2.5,9.3,6.4,11.8c3.9,2.5,5.7,3,7.9,2.6c1.8-0.3,1.6-2.6,1.6-2.6h-2.1l-6.1-3.2l-1.6-3.3
		l-0.7-2.8l-1.1-4L54.9,29l-2-1.1L54,33.8z"/>
	<g>
		<path fill="none" stroke="#000000" stroke-width="2" stroke-linecap="round" stroke-linejoin="round" stroke-miterlimit="10" d="
			M14.3,24.5h6.3c0.8,0,1.5,0.2,2.2,0.5l0.9,0.4c1.4,0.6,2.9,0.9,4.4,0.7c5.5-0.7,18.9-1,23.9,1.3c6.9,3.2,6.5,7.4,7.3,9.6
			c0.9,2.3,3,9,9.7,8.6"/>
		<path fill="none" stroke="#000000" stroke-width="2" stroke-linecap="round" stroke-linejoin="round" stroke-miterlimit="10" d="
			M18.2,35.1c0.4,2.2,1.5,4.7,3.6,7.4v11.2c0,1.1,0.9,2,2,2H24c1.1,0,2-0.9,2-1.9c0.1-4,1.5-15.2,2.5-16.8c0,0-0.6-2.6-1.2-4.2"/>
		<path fill="none" stroke="#000000" stroke-width="2" stroke-linecap="round" stroke-linejoin="round" stroke-miterlimit="10" d="
			M12.2,35c0.4,0.6,1.7,1.5,2.5,1.9c0.4,0.2,0.8,0.6,0.9,1.1l1.2,4.6c0,0-7.4,4-4.5,11c0.3,0.7,1.1,1.4,2.1,1.6
			c1.1,0.2,3-0.7,2.3-2.7"/>
		<path fill="none" stroke="#000000" stroke-width="2" stroke-linecap="round" stroke-linejoin="round" stroke-miterlimit="10" d="
			M28,40.7c0,0,7.6,2.9,14-2.9c0,0,0.1,1.7,6.3,6.1c0,0,3.8,2.9,7.6,4.7l0.6,5.7c0.1,0.9,1.2,1.5,2.1,1.5h0c1.1,0,1.9-0.9,1.8-2
			l-0.6-8c0-0.6-0.4-1-1-1.2c-1.3-0.5-3.4-4.2-4.8-7.2l-0.4-3.3"/>
		<path fill="none" stroke="#000000" stroke-width="2" stroke-linecap="round" stroke-linejoin="round" stroke-miterlimit="10" d="
			M38.6,40.1c0,0,1.4,4.1,6.3,8.5L44,52.7c-0.3,1.2,0.6,2.3,1.8,2.3h0c0.7,0,1.4-0.4,1.7-1.1c0.6-1.3,1.3-3.5,2-4.5"/>
		<path fill="none" stroke="#000000" stroke-width="2" stroke-linecap="round" stroke-linejoin="round" stroke-miterlimit="10" d="
			M13.8,26.1c1.7-2.8-1.7-4.6-3.8-2.9c-1.5,1.3-2.4,1.2-2.4,1.2c-3.8,1.1-3.6,3.9-3.6,3.9l-1.7,4.6c-0.1,0.3,0,0.7,0.3,0.9l1.7,1.3
			c0.5,0.4,1.2,0.5,1.8,0.2c1.7-0.7,5.3-2.7,5.3-5.6"/>
		<path fill="none" stroke="#000000" stroke-width="2" stroke-linecap="round" stroke-linejoin="round" stroke-miterlimit="10" d="
			M21.8,44.2c0,0-2.9,1.6-4.3,3.7"/>
		<g>
			<path fill="none" stroke="#000000" stroke-width="2" stroke-linecap="round" stroke-linejoin="round" stroke-miterlimit="10" d="
				M49.2,35.7c-0.8,0-1.5-0.7-1.5-1.5c0-0.8,0.7-1.5,1.5-1.5c0.3,0,0.6,0.1,0.9,0.3"/>
			<path fill="none" stroke="#000000" stroke-width="2" stroke-linecap="round" stroke-linejoin="round" stroke-miterlimit="10" d="
				M32.1,32.3c-0.8,0-1.5-0.7-1.5-1.5s0.7-1.5,1.5-1.5c0.3,0,0.6,0.1,0.9,0.3"/>
			<path fill="none" stroke="#000000" stroke-width="2" stroke-linecap="round" stroke-linejoin="round" stroke-miterlimit="10" d="
				M40.5,32.9c-0.6-0.5-0.8-1.5-0.2-2.1c0.5-0.6,1.5-0.8,2.1-0.2c0.3,0.2,0.4,0.5,0.5,0.8"/>
			<path fill="none" stroke="#000000" stroke-width="2" stroke-linecap="round" stroke-linejoin="round" stroke-miterlimit="10" d="
				M17.5,32.1c-0.6-0.5-0.8-1.5-0.2-2.1c0.5-0.6,1.5-0.8,2.1-0.2c0.3,0.2,0.4,0.5,0.5,0.8"/>
			<path fill="none" stroke="#000000" stroke-width="2" stroke-linecap="round" stroke-linejoin="round" stroke-miterlimit="10" d="
				M34.4,35.6c0.5-0.6,1.5-0.7,2.1-0.1c0.6,0.5,0.7,1.5,0.1,2.1c-0.2,0.3-0.5,0.4-0.8,0.5"/>
			<path fill="none" stroke="#000000" stroke-width="2" stroke-linecap="round" stroke-linejoin="round" stroke-miterlimit="10" d="
				M22,34.7c0.5-0.6,1.5-0.7,2.1-0.1c0.6,0.5,0.7,1.5,0.1,2.1c-0.2,0.3-0.5,0.4-0.8,0.5"/>
		</g>
	</g>
</g>
</svg>
