<?xml version="1.0" encoding="utf-8"?>
<!-- Generator: Adobe Illustrator 21.1.0, SVG Export Plug-In . SVG Version: 6.00 Build 0)  -->
<svg version="1.1" id="emoji" xmlns="http://www.w3.org/2000/svg" xmlns:xlink="http://www.w3.org/1999/xlink" x="0px" y="0px"
	 viewBox="0 0 72 72" enable-background="new 0 0 72 72" xml:space="preserve">
<g>
	<path fill="#E27022" d="M11.3,25.5L9,28.1l-3.6,3.7l-0.5,4.6l0.4,1.9l1.6,1.1l5.9-1.6l2.4-0.5l0.6,4.7l-3.5,3l-1.2,0.6
		c0,0-4.2,4.1-1.7,8.2h3.2l1.3-2.2l0.4-2.1l7.8-4.9l2.5-2.6l6.8-0.8l6.8-0.7l4.2-1.5l1.8,5.6l1.7,4.1l-0.8,4.7l-0.1,1.5l1.3,1.3h1.8
		l2.6-6.5l-0.9-3.4l0.1-5.4l2.3-5.3l1.4-3.7c0,0,0.3-3.5-1.2-5.2c-1.5-1.8-8.3-2.5-8.3-2.5h-7.7L29.3,25l-4.9,0.5h-3.7l-4.8,1.6
		l-1.6-0.2L11.3,25.5z"/>
	<polygon fill="#CFCECD" points="23.5,43.9 23.8,46.9 24.4,49.9 23.9,53.1 24.6,54.6 25.5,55.4 28,55.4 29.6,49.7 29.6,41.6 
		24.6,42 	"/>
	<path fill="#E27022" d="M50.4,42.4l2.4,3l3.8,2.8l2.2,3.5l0.7,3.1l2.5,0.6l2.6-2.3c0,0,0.4-2.7-1.2-4.3l-3.2-2.5l-2.5-5.8l-1-8.4
		L55,29.1l-1.3-1.3h-1.5l1.1,5.9l-1,3.6l-2.2,4L50.4,42.4z"/>
	<path fill="#CFCECD" d="M24.4,41.6l6.2-0.1l4.8-0.6l4.8-1l2.2-0.8l0.7-5c0,0-6.8,5.1-18.7,5L24.4,41.6z"/>
	<path fill="#CFCECD" d="M16.8,33.3l-1,3.3l-0.2,1.3l-5,0.6l-3.2,0.9c0,0,1.2-5.4,4.7-7.1C12.1,32.2,15.9,31,16.8,33.3z"/>
	<path fill="#CFCECD" d="M53.1,45.2l4.6-4.7l2.5,5.8c0,0,3.9,2.4,4.1,4.1c0.3,1.7,0.7,2.8-0.4,4.6l-3,0.4l-1.8-1.6l-0.9-3.3
		l-0.6-1.7l-2.2-1.5l-2-1.8L53.1,45.2z"/>
	<path fill="none" stroke="#000000" stroke-width="2" stroke-linecap="round" stroke-linejoin="round" stroke-miterlimit="10" d="
		M12.1,37.5l-2.4,1.6c-0.4,0.3-0.9,0.4-1.4,0.4H7.4c-0.7,0-1.4-0.3-1.9-0.8l0,0c-0.6-0.6-0.8-1.4-0.7-2.2l0.9-4.8L9,29.2
		c0,0,1.4-5.3,4.8-2.6c3.9,3-1.8,5.2-1.8,5.2"/>
	<path fill="none" stroke="#000000" stroke-width="2" stroke-linecap="round" stroke-linejoin="round" stroke-miterlimit="10" d="
		M14.9,27.6c0,0,5.6-2.7,9.1-2.2c1.4,0.2,2.9,0.1,4.3-0.2c5.4-1,16.8-2.6,22.6,0.5c0,0,8.8,2.5,9.8,17.7c0.1,1.4,0.7,2.7,1.7,3.5
		c1.2,1.1,4.3,1.9,5.1-2.2"/>
	<path fill="none" stroke="#000000" stroke-width="2" stroke-linecap="round" stroke-linejoin="round" stroke-miterlimit="10" d="
		M24.3,37.3c0,0,0.9,5.4-1.6,6.9c-2.8,1.7-8.8,5.5-8.8,5.5s0.7,5.8-3.8,3.5"/>
	<path fill="none" stroke="#000000" stroke-width="2" stroke-linecap="round" stroke-linejoin="round" stroke-miterlimit="10" d="
		M16.8,33.3c0,0-2,2.7-0.6,8.7l-4.4,4.3"/>
	<path fill="none" stroke="#000000" stroke-width="2" stroke-linecap="round" stroke-linejoin="round" stroke-miterlimit="10" d="
		M24.6,42c0,0,12.6-0.9,14.9-2c2.3-1.1,2.8-0.9,2.8-0.9"/>
	<path fill="none" stroke="#000000" stroke-width="2" stroke-linecap="round" stroke-linejoin="round" stroke-miterlimit="10" d="
		M42.8,34.5c0,0-1.8,5.2,3.5,14.3L45,54c-0.3,1.2,0.6,2.3,1.8,2.3h0c0.8,0,1.5-0.5,1.8-1.2l2.2-6.2c0,0-2.7-5,0.1-9.7
		c2.7-4.8,2-7.5,2-7.5"/>
	<path fill="none" stroke="#000000" stroke-width="2" stroke-linecap="round" stroke-linejoin="round" stroke-miterlimit="10" d="
		M50.8,42.7c0,0,3.2,4.1,6.2,5.6c2.1,1,1.9,4.5,1.9,4.5v0.2c0,1.1,0.9,2,2.1,2l0.8,0c1.1,0,1.9-0.9,1.9-2v-0.1"/>
	<path fill="none" stroke="#000000" stroke-width="2" stroke-linecap="round" stroke-linejoin="round" stroke-miterlimit="10" d="
		M24.6,46.7c0,0,0.6,2.6,0,6.4l0,0c-0.6,1.1,0.2,2.5,1.5,2.5h0.4c0.8,0,1.4-0.5,1.6-1.2l1.1-4.6L28.8,42"/>
	<path fill="none" stroke="#000000" stroke-width="2" stroke-linecap="round" stroke-linejoin="round" stroke-miterlimit="10" d="
		M26.8,25.5c0,0,4,3.3,2.4,12.7"/>
	<path fill="none" stroke="#000000" stroke-width="2" stroke-linecap="round" stroke-linejoin="round" stroke-miterlimit="10" d="
		M33.4,41.2c0,0,2.3-6.6,0.7-11.8"/>
	<path fill="none" stroke="#000000" stroke-width="2" stroke-linecap="round" stroke-linejoin="round" stroke-miterlimit="10" d="
		M37.1,24.1c0,0,2.1,2.5,2.2,8.1"/>
	<path fill="none" stroke="#000000" stroke-width="2" stroke-linecap="round" stroke-linejoin="round" stroke-miterlimit="10" d="
		M43.1,23.9c0,0,2.4,1.8,2.2,6.1"/>
	<path fill="none" stroke="#000000" stroke-width="2" stroke-linecap="round" stroke-linejoin="round" stroke-miterlimit="10" d="
		M21.5,32.7c0,0,0.4-3.4-1.7-6.9"/>
</g>
</svg>
