<svg id="emoji" viewBox="0 0 72 72" xmlns="http://www.w3.org/2000/svg">
  <g id="color">
    <path fill="#e27022" d="m9.5447,27.49l-.1547.1804c-.257.2996-.5227.5916-.7969.8756l-1.2493,1.2939c-1.2468,1.2914-2.032,2.9586-2.2333,4.7423l-.1322,1.1715c-.0543.4813-.0301.9682.0719,1.4417l.0183.0848c.1556.7231.5864,1.3573,1.2013,1.7684h0c.3917.2619.8774.3418,1.3323.219l5.1525-1.3902.7168-.1612c.9138-.2055,1.8064.4194,1.926,1.3483l.1459,1.1336c.1449,1.1259-.2891,2.2487-1.1535,2.9845l-1.9651,1.6725c-.1119.0953-.2323.173-.3655.235-.0036.0017-.0071.0033-.0108.005-.6513.3037-1.2319.7507-1.6706,1.3198-1.1777,1.5277-2.1307,3.415-1.962,5.2173.1252,1.3383,1.3591,2.3006,2.7016,2.234h0c.9173-.0455,1.7495-.5515,2.212-1.345l.1254-.2151c.2571-.4411.4395-.9217.5399-1.4222h0c.1777-.8863.7128-1.6603,1.4792-2.1396l4.0135-2.5101c1.7252-1.0789,3.3154-2.3599,4.7369-3.8158h0c.262-.2683.6085-.4382.981-.4811l6.216-.7154,5.6467-.5844c.761-.0788,1.51-.2479,2.2311-.5038l.5269-.187c1.3994-.4967,2.9329.2589,3.3917,1.6712l.6626,2.0398c.2213.6813.4706,1.3532.7473,2.0139l.3874.925c.592,1.4138.7743,2.9656.526,4.4781l-.3452,2.1026c-.0298.1818-.0496.3651-.0591.549h0c-.0392.7591.2566,1.4971.8092,2.019h0c.3029.2861.7038.4455,1.1205.4455h0c.6672,0,1.2672-.4061,1.5151-1.0256l1.4114-3.5266c.5129-1.2816.6053-2.6931.2637-4.0307l-.0368-.144c-.2018-.7901-.2935-1.6043-.2725-2.4195l.0062-.2394c.0674-2.6158.6479-5.1929,1.7084-7.5851l.3504-.7904c.2564-.5783.4929-1.1652.7092-1.7596l.9483-2.6062c.0578-.1588.0918-.3252.0971-.4941.0264-.837.005-3.4838-1.2158-4.9634-.9571-1.16-4.229-1.8867-6.3784-2.2508-1.1487-.1945-2.3111-.2836-3.4761-.2836h-4.5821c-1.0801,0-2.159.0703-3.23.2105l-5.55.7267-4.322.4277c-.3969.0393-.7954.0589-1.1942.0589h-.5147c-1.7415,0-3.472.2767-5.1267.8196l-1.526.5007c-.5361.1759-1.1029.2389-1.6646.1851h0c-.4718-.0452-.9321-.1725-1.36-.3762h0c-1.3997-.6661-3.0722-.3116-4.0813.8651Z"/>
    <path fill="#d0cfce" d="m23.5711,44.9608l.193,1.8716c.0072.0703.0183.1402.0331.2093l.2831,1.3229c.2226,1.0402.2544,2.1122.0939,3.1638l-.041.2686c-.1262.8269-.0152,1.6727.3203,2.439h0c.1156.264.2879.4993.5047.6892h0c.3576.3131.8168.4857,1.2921.4857h0c1.0125,0,1.9011-.6743,2.1737-1.6494l.6693-2.3945c.3163-1.1314.4766-2.3007.4766-3.4754v-2.5414c0-2.0309-1.7397-3.6258-3.7629-3.4497h0c-.7408.0645-1.4068.4771-1.7944,1.1117h0c-.3565.5837-.5116,1.2683-.4415,1.9487Z"/>
    <path fill="#e27022" d="m50.6472,42.7287l.75.926c.9547,1.1787,2.0567,2.2299,3.2791,3.1278l.1085.0797c1.232.905,2.2792,2.0378,3.0847,3.337l.0228.0368c.6085.9814,1.0533,2.0554,1.3168,3.1797l.0373.159c.1732.7388.7533,1.3136,1.4936,1.48l.1347.0303c.7087.1593,1.4478-.0823,1.9256-.6295h0c1.2429-1.4234,1.4366-3.5434.3323-5.0768-.1207-.1675-.2512-.329-.3913-.4834l-2.2468-2.3685c-.159-.1677-.2875-.3619-.3796-.5738l-2.2454-5.1689c-.0766-.1762-.1271-.3627-.1499-.5535l-.6895-5.7587c-.1822-1.5216-.6656-2.9917-1.4221-4.3244h0c-.4005-.7056-.9027-1.3483-1.4906-1.9074h0c-.2948-.2804-.769-.8461-1.0929-.4368l-.1725,3.8388c.2473,1.3522.1794,2.7433-.1987,4.065h0c-.2931,1.0249-.6954,2.0153-1.1999,2.9544l-1.012,1.884c-.2474.4606-.3026,1.0004-.1536,1.5015h0c.0739.2486.196.4802.3592.6817Z"/>
    <path fill="#d0cfce" d="m25.5738,41.5481l5.0146-.1092c.0411-.0009.0821-.004.1229-.0094l4.7081-.6208c.0282-.0037.0562-.0085.0839-.0143l4.6458-.9737c.0495-.0104.0982-.024.1458-.0409l1.4408-.5112c.396-.1405.6811-.4894.7399-.9055l.2745-1.9437c.1292-.9146-.8268-1.5898-1.6416-1.1548-2.6884,1.4352-8.0414,3.6577-15.559,3.7684-.6192.0091-1.1251.4999-1.1275,1.1191l-.001.2636c-.0025.6344.5185,1.1461,1.1527,1.1323Z"/>
    <path fill="#d0cfce" d="m15.1212,31.9599c1.0561.2321,1.6643,1.3522,1.3616,2.3903l-.6451,2.2123h0c-.2417.7818-.9195,1.3491-1.7317,1.4493l-2.1272.2623c-.8463.1044-1.6692.3492-2.4348.7244l-.4685.2296c-.5842.2863-1.234-.2525-1.0515-.877.5589-1.9129,1.7919-5.0218,4.1126-6.1842-.0003-.0001,1.6161-.5078,2.9846-.207Z"/>
    <path fill="#d0cfce" d="m57.5464,40.7282c.1008-.1017.2721-.0717.3324.0582l1.4415,3.1063c.639,1.3771,1.5799,2.589,2.7369,3.5718.8876.7539,1.8416,1.6596,2.1074,2.2666.1993.5365.3409,1.0912.4233,1.6548.126.8615-.2472,1.7213-.9731,2.202h0c-.5552.3677-2.9707.996-3.4803.5674h0c-.6402-.5384-.8196-.929-1.0346-1.7373l-.0571-.2348c-.1727-.7101-.496-1.3669-.8717-1.9937-.0472-.0787-.0867-.1633-.1242-.2748h0c-.245-.7294-.7297-1.3543-1.3752-1.7731l-.1654-.1073c-.7171-.4653-1.4011-.9799-2.0469-1.5401h0c-.5934-.5147-.659-1.4123-.1466-2.0078l3.2336-3.7581Z"/>
  </g>
  <g id="line">
    <path fill="none" stroke="#000" stroke-linecap="round" stroke-linejoin="round" stroke-width="2" d="m12.1118,37.5052l-2.4246,1.5916c-.419.275-.9092.4215-1.4104.4215h-.8551c-.7039-.0001-1.3769-.2891-1.8617-.7994h0c-.567-.5968-.8136-1.4291-.6633-2.2384l.7202-3.8778c.1099-.5916.4343-1.1219.911-1.4892l2.5175-1.9396s1.363-5.2538,4.7676-2.6374c3.8838,2.9846-1.7758,5.2236-1.7758,5.2236"/>
    <path fill="none" stroke="#000" stroke-linecap="round" stroke-linejoin="round" stroke-width="2" d="m14.8519,27.6188s5.5681-2.7151,9.0881-2.2188c1.4273.1718,2.8731.1086,4.28-.1869,5.3712-1.018,16.7957-2.6465,22.5624.5368,0,0,8.7736,2.5188,9.787,17.6594.0731,1.3611.6901,2.6358,1.7123,3.5375,1.2438,1.058,4.3018,1.8859,5.0518-2.1974"/>
    <path fill="none" stroke="#000" stroke-linecap="round" stroke-linejoin="round" stroke-width="2" d="m24.2555,37.3332s.9081,5.3808-1.5889,6.9168c-2.7974,1.7208-8.7769,5.4861-8.7769,5.4861,0,0,.6949,5.7817-3.7587,3.5413"/>
    <path fill="none" stroke="#000" stroke-linecap="round" stroke-linejoin="round" stroke-width="2" d="m16.7957,33.277s-2.0215,2.6553-.6317,8.7261l-4.414,4.33"/>
    <path fill="none" stroke="#000" stroke-linecap="round" stroke-linejoin="round" stroke-width="2" d="m24.629,42.0031s12.571-.9207,14.9086-2.0142,3.0907-.9552,3.0907-.9552"/>
    <path fill="none" stroke="#000" stroke-linecap="round" stroke-linejoin="round" stroke-width="2" d="m42.7736,34.5s-1.784,5.1542,3.4593,14.2605l-1.2,5.202c-.2309,1.001.3933,1.9996,1.3943,2.2305.1371.0316.2774.0476.4181.0476h.0024c.7907,0,1.4949-.4999,1.7558-1.2463l2.1789-6.2338s-2.6532-4.9632.0632-9.7268,1.9879-7.45,1.9879-7.45"/>
    <path fill="none" stroke="#000" stroke-linecap="round" stroke-linejoin="round" stroke-width="2" d="m49.8724,41.5141s4.0648,5.2765,7.1008,6.7766c2.11,1.0426,1.9436,4.4593,1.9436,4.4593v.173c0,1.1046.8954,2,2,2,.029,0,.058-.0006.087-.0019l.75-.0326c1.0697-.0466,1.913-.9274,1.913-1.9981v-.1088"/>
    <path fill="none" stroke="#000" stroke-linecap="round" stroke-linejoin="round" stroke-width="2" d="m24.629,46.7007c.3673,2.1041.3673,4.2559,0,6.36h0c-.4371.8095-.1351,1.8201.6744,2.2572.2432.1313.5152.2.7915.2h.41c.7563,0,1.4177-.5095,1.6107-1.2408l1.0516-4.61-.3853-8.0173"/>
    <path fill="none" stroke="#000" stroke-linecap="round" stroke-linejoin="round" stroke-width="2" d="m26.7967,25.4963s4.0366,3.3371,2.37,12.67"/>
    <path fill="none" stroke="#000" stroke-linecap="round" stroke-linejoin="round" stroke-width="2" d="m33.3883,41.1571s2.2784-6.5738.6227-11.74"/>
    <path fill="none" stroke="#000" stroke-linecap="round" stroke-linejoin="round" stroke-width="2" d="m37.1262,24.0725s2.091,2.5109,2.1744,8.0942"/>
    <path fill="none" stroke="#000" stroke-linecap="round" stroke-linejoin="round" stroke-width="2" d="m43.1546,23.9437s2.3454,1.723,2.1787,6.0563"/>
    <path fill="none" stroke="#000" stroke-linecap="round" stroke-linejoin="round" stroke-width="2" d="m21.5,32.6622c.1446-2.4026-.441-4.7927-1.68-6.8562"/>
  </g>
</svg>
