<svg id="emoji" viewBox="0 0 72 72" xmlns="http://www.w3.org/2000/svg">
  <g id="color">
    <path fill="#fff" d="m18.171,25.1667l-.2068-.1171-1.1922-.6753c-.9428-.5341-2.0629-.6597-3.1006-.3478h0c-1.0877.3269-2.0417.9931-2.7232,1.9017-.9603,1.2803-2.2387,2.9868-2.2813,3.0539-.0465.0732-1.1788,2.0157-1.9021,3.2573-.3804.653-.4765,1.43-.2689,2.1567h0c.2924,1.0235,1.1298,1.7939,2.1743,1.9989,1.6984.3333,4.4552.5995,7.3987-.2369.4505-.128.9323-.0509,1.2965.2436,1.0695.865,3.2015,2.8955,3.5571,5.5717.0893.672.6942,1.1544,1.3721,1.1621,1.6191.0184,4.1264.508,4.1264,3.3645,0,.1402-.153,3.4814-.253,5.6511-.0562,1.2196.0459,2.4366.3033,3.6301h0c.1409.6531.7184,1.1194,1.3866,1.1194h.5787c.6709,0,1.25-.47,1.3881-1.1266l2.0186-9.5997c.159-.7559.8936-1.2457,1.6525-1.1017l2.0822.3951c.1127.0214.2276.029.3422.0227l12.0905-.6637c.1614-.0089.3201-.0452.4692-.1076l2.0671-.8639c.6992-.2922,1.5045.0167,1.8289.7016l.7097,1.4982c.1365.2882.1719.6139.1006.9247l-1.5074,6.5646c-.11.479.0358.9808.3854,1.3263l.7015.6933c.5494.543,1.4323.5466,1.9861.008h0c.6701-.6518,1.7859-.4936,2.2257.3313.3091.5796.9294.9966,2.1267.8327,1.806-.2471,2.451-.9181,2.6803-1.3378.0896-.1641.1251-.3523.1338-.539l.2896-6.2462c.0035-.0752.001-.1506-.0075-.2254l-.238-2.1002c-.0342-.3017-.1643-.5845-.3712-.8067l-2.0328-2.1838c-.2969-.3189-.4307-.7566-.363-1.187l1.3614-8.652c.021-.1334.0238-.2626.0064-.3966-.0993-.7641-.4939-3.6032-1.1632-6.016-.5788-2.0863-2.4775-3.5262-4.642-3.578-4.8393-.1157-14.3982-.3442-19.2312-.4597-1.9656-.047-3.9253.0446-5.8781.2737l-3.869.454c-1.2659.1486-2.5244.3551-3.7714.6191l-3.8368.8122Z"/>
    <path fill="#a57939" d="m22.9475,23.8211c-1.4549-.0609-2.5499.0978-3.5918.453l-2.1186.7232s-5.4553,1.8146-5.4652,6.8653c-.0099,5.0507,3.5658,4.9708,3.5658,4.9708h0c2.1886,0,4.1497,1.3531,4.9218,3.401.2541.6739.4518,1.4185.5272,2.2057.1981,2.0698,1.8822,2.8806,3.0093,3.1929.7699.2134,1.4577.6494,2.0092,1.2274h0c.4413.4625.6749,1.085.6469,1.7236l-.1067,2.4341c-.0617,1.4074-.2309,2.8081-.5063,4.1897h0c-.0563.2827.0785.5691.3323.7058h0c.748.4029,1.6235.499,2.4411.2679h0c.7519-.2125,1.3304-.8145,1.5128-1.5742l2.4557-10.2256.0664-.522c.3468-2.7284.3114-5.4921-.1053-8.2107-.2907-1.8967-.581-3.8011-.6211-4.1033-.0387-.2924-.2232-1.6522-.5181-3.2381-.552-2.9685-3.1922-4.3728-6.2089-4.4991l-2.2465.0127Z"/>
    <path fill="#a57939" d="m41.8568,23.8208c-.6759-.0245-.9309-.0654-.5069.4614,1.4752,1.8326,3.7104,5.5399,3.6545,11.1345-.0521,5.2083,2.6618,7.1059,4.7045,7.7967,1.4073.4759,2.5079,1.5844,2.8691,3.0254h0c.1999.7974.2069,1.6309.0205,2.4315l-.7959,3.4187c-.1694.7277-.0963,1.4909.2082,2.1732h0c.3718.833,1.2673,1.3013,2.1635,1.1313h0c.5361-.1017.9801-.4761,1.1709-.9873l2.9438-7.8907c.1858-.4979.3545-.9972.509-1.5057.519-1.7087,1.6984-11.4646,1.7827-12.0444.0055-.0377.0072-.0646.0067-.1027-.0078-.647-.2941-6.1269-3.3577-8.362-.1202-.0877-.2598-.1322-.4085-.1376-1.5521-.0562-10.8884-.3946-14.9643-.5423Z"/>
  </g>
  <g id="line">
    <path fill="none" stroke="#000" stroke-linecap="round" stroke-linejoin="round" stroke-width="2" d="m59.8526,33.2589c.5483,2.1777.198,5.6858-1.0426,8.387l-.8143,5.1605-2.5058,7.6663c-.2665.8154-1.0078,1.3645-1.842,1.3645h-.2583c-1.3215,0-2.2578-1.3307-1.8481-2.6267l1.6269-6.9876s-4.1332-7.6611-2.9994-11.2117"/>
    <path fill="none" stroke="#000" stroke-linecap="round" stroke-linejoin="round" stroke-width="2" d="m31.0503,31.8625l1.5307,8.1589-2.5362,15.1266c-.1241.9835-.9267,1.7256-1.888,1.7458l-.3071.0065c-1.3326.028-2.2977-1.2976-1.8918-2.6071.826-2.6646.9821-6.9715-.2413-9.9115-1.3972-3.3576-.753-4.9584-.753-4.9584"/>
    <path fill="none" stroke="#000" stroke-linecap="round" stroke-linejoin="round" stroke-width="2" d="m35.7475,44.5012s12.0966,1.3113,15.3787-1.4411"/>
    <path fill="none" stroke="#000" stroke-linecap="round" stroke-linejoin="round" stroke-width="2" d="m65.1997,44.3816s-2.1681-3.6663-1.239-9.2472c1.1957-10.4524-8.5173-11.9422-6.4472-11.4468l-.3398-.1311-23.1965-.584c-.9297-.0234-1.86.0154-2.7845.1161l-7.911.8621"/>
    <path fill="none" stroke="#000" stroke-linecap="round" stroke-linejoin="round" stroke-width="2" d="m58.7561,41.9871l3.1531,3.8358-.0649,8.3475c0,.9206-.7235,1.6669-1.616,1.6669h-1.681"/>
    <path fill="none" stroke="#000" stroke-linecap="round" stroke-linejoin="round" stroke-width="2" d="m7.79,22.2691c1.9909,2.5381,3.9819,2.5381,3.9819,2.5381"/>
    <path fill="none" stroke="#000" stroke-linecap="round" stroke-linejoin="round" stroke-width="2" d="m18.9754,20.6949c1.4174,2.8432-1.7383,4.3023-1.7383,4.3023,0,0-2.717-3.7782-5.4652-.19l-2.0612,2.4996s-2.1109,3.471-3.5898,5.4622c-.4114.554.3304,2.4246.6856,3.0185.6608,1.105,5.3525,1.7864,9.723.2124,0,0,3.6456.3266,4.3312,7.0608.1304,1.2807,2.7376,3.0159,4.8836,2.731"/>
    <path fill="none" stroke="#000" stroke-linecap="round" stroke-linejoin="round" stroke-width="2" d="m18.654,31.5053c4.7561,1.5524,4.9952-2.4579,4.9952-2.4579v-.2588c-2.3138-2.7598-4.4562-.7762-4.4562-.7762"/>
  </g>
</svg>
