<svg id="emoji" viewBox="0 0 72 72" xmlns="http://www.w3.org/2000/svg">
  <g id="color">
    <path fill="#9b9b9a" d="m30.5065,19.7014l-.5748-.5864c-.5802-.5919-1.3815-.9143-2.2099-.8892l-1.8967.0574c-.8501.0257-1.6484.4149-2.1924,1.0688l-.5962.7167c-.8708,1.0467-1.3085,2.3868-1.2234,3.7457h0c.0396.6332.4805,1.1696,1.094,1.3312h0c.1634.043.3329.0576.5012.0431l5.2334-.4514c.9125-.0787,1.7375-.5742,2.2358-1.3426h0c.7561-1.1661.602-2.7007-.3708-3.6932Z"/>
    <path fill="#9b9b9a" d="m24.2637,41.7074l-.1982.5648c-.0682.1944-.1646.3778-.2861.5442l-1.3996,1.9165c-.5804.7947-.9201,1.7395-.9787,2.7218l-.0399.6685c-.0305.5115.1267,1.0165.4421,1.4203h0c.3488.4465.8632.7481,1.4272.8015.9642.0914,1.8781-.0624,2.7321-.5075l2.6524-1.8614c.2294-.161.4244-.3662.5734-.6036l2.3351-3.7206c.1574-.2508.2601-.532.3013-.8252l.0554-.394c.1903-1.3524-.9385-2.5247-2.2971-2.3857l-2.6169.2677c-.1212.0124-.2433.0142-.3649.0055l-.2018-.0145c-.9466-.068-1.8216.5062-2.1358,1.4017Z"/>
    <path fill="#d0cfce" d="m33.5191,19.2653l-1.3677.0613c-1.5905.3417-3.0803,1.047-4.3527,2.0607l-.7324.5835c-.2091.1666-.383.373-.5117.6073l-.6879,1.2527c-.3175.5781-.8973.9647-1.553,1.0355l-1.4624.1578c-1.065.1149-2.119.3154-3.1518.5996l-3.622.9965c-.3412.0939-.6638.2452-.9541.4476h0c-1.7251,1.2027-3.2164,2.7099-4.4009,4.4476l-.3999.5867c-.635.9315-1.113,1.9607-1.4153,3.0468l-.0713.2561c-.173.6218-.0384,1.2888.3623,1.7947h0c.7052.8904,1.6997,1.506,2.8111,1.7402l3.7422.7886c.5.1054,1.01.1567,1.521.153l7.2725-.0524c.4138-.003.8186.1213,1.1594.356l1.3826.952.3468.2648c.7623.582,1.0099,1.6201.5923,2.4835l-.9147,1.8915c-.0572.1182-.1027.2417-.1358.3687l-.443,1.6958c-.2046.7834.0785,1.6132.7193,2.1081h0c.6126.4731,1.4418.5543,2.1346.209l3.845-2.4749h0c1.5737-.8858,3.5183-.7468,5.3098-.5196l1.9008.241c.0965.0122.1919.0314.2856.0574l.2823.0783c3.7233,1.0325,7.6841.7986,11.2599-.6649h0c.1001-.041.1967-.0899.2889-.1463h0c.9501-.5813,1.7516-1.3761,2.3407-2.3214l1.4781-2.3718c.0634-.1017.1175-.2088.1619-.32l.5646-1.416c.0585-.1466.0995-.2996.1224-.4558l.3436-2.3508c.3896-2.6657-.0947-5.3859-1.3804-7.7534h0c-.5035-.9271-1.0917-1.8056-1.7573-2.6241l-1.6525-2.0325c-1.0394-1.2784-2.4981-2.1472-4.1173-2.4521l-.4946-.0931c-2.3134-.4357-4.6859-.4562-7.0065-.0608h0c-.5934.1011-1.2009-.0678-1.6569-.4607h0c-1.1014-.9489-2.3758-1.6761-3.7532-2.1413l-2.2326-.6099"/>
  </g>
  <g id="line">
    <path fill="none" stroke="#000" stroke-linecap="round" stroke-linejoin="round" stroke-width="2" d="m53.5925,45.3883c-.888.8428-1.9637,1.5428-3.3211,2.1079-2.2113.9206-4.6535,1.136-7.0265.8101l-8.9309-1.2267"/>
    <path fill="none" stroke="#000" stroke-linecap="round" stroke-linejoin="round" stroke-width="2" d="m40.0767,23.4917c2-1,5-2,10,0,3.8282,1.5313,10,8,7.0199,15.9501-.2141.5711-.4314,1.1152-.6588,1.633"/>
    <path fill="none" stroke="#000" stroke-linecap="round" stroke-linejoin="round" stroke-width="2" d="m36.6696,41.6175c-.5145,1.8742-4.3697,6.5546-5.8144,8.322-1.6076,1.9668-6.7002.5522-4.8585-3.1099.7387-1.4689,1.9142-2.6962,2.1526-4.323.0514-.3507.0819-.6918.0967-1.018"/>
    <path fill="none" stroke="#000" stroke-linecap="round" stroke-linejoin="round" stroke-width="2" d="m22.3815,49.2187c-.6896-.7299-.8252-1.9762.3992-3.6776.6175-.858,2.1556-2.6643,2.2769-4.741,0,0-2.9074-.2291-4.2157-.233-13.8387-.042-12.0415-5.1665-11.8579-5.6907.2987-.853,4.0154-6.5648,6.9052-8.0097,4.3697-2.1849,9.6853-1.6357,9.6853-1.6357,1.5022-5.7393,10.5248-9.6715,14.2016-1.0924,3.2773,7.647-4.6994,10.3531-7.6994,10.3531"/>
    <path fill="none" stroke="#000" stroke-linecap="round" stroke-linejoin="round" stroke-width="2" d="m56.4366,41.0744c2,0,3.6401,3.4173,2.6401,6.4173s-1.8218,3.9576-6.1915,6.1425c-8.7394,4.3697-19.6637,2.1849-29.6446.3599-6.311-1.154-9.2354.6406-10.1639,2.4977-1.0924,2.1849,1.6796,5.8607,7.0357,4.7895"/>
    <path fill="none" stroke="#000" stroke-linecap="round" stroke-linejoin="round" stroke-width="2" d="m22.6508,21.6985c.1574-.8515.4634-1.624.8426-2.1859,2.2057-3.2685,6.8333-1.8141,7.6419,0"/>
  </g>
</svg>
