<svg id="emoji" xmlns="http://www.w3.org/2000/svg" viewBox="0 0 72 72">
  <g id="color">
    <path fill="#6A462F" d="M57.6295,26.1688v6.052l-1.0301,9.4374l2.423,10.1641c0,0,0.1902,7.0986,7.7736,4.8444l-1.335-1.88 l-2.0269-6.0648c0,0-0.1428-9.4316-0.1355-9.8291c0.0073-0.3975-0.6129-6.672-0.6129-6.672l-2.1384-4.5426L57.6295,26.1688z" stroke="none"/>
    <path fill="#A57939" d="M10.8093,13.2868l0.501,1.8579l-1.1723,2.5324l-1.3791,2.7724l-3.0714,6.1129l1.4289,2.2054h3.3463 l1.5998-2.7054l2.459-0.569l0.9495-0.7396l1.4292,3.1211l2.8432,3.7684l0.5926,4.103l0.9657,3.8363l2.4298,2.7098l2.4218,1.5569 l2.3385,8.5917l0.9579,6.4798l-0.4623,2.951l0.7252,1.5829l2.2189-0.5635l1.2449-3.1814l-0.6396-4.9231l-0.7176-5.5375 l0.331-6.6478L41.1502,43l4.3106-2.1904l1.8144-0.4346l2.1129-1.125l2.4496,4.6766l2.7418,4.1984l0.6416,2.5591l-1.0603,6.6433 l-1.2769,3.7042l0.6367,2.136l2.4786-0.6117l1.7551-5.0398l1.418-6.3658l0.3192-2.9888l-2.892-6.5033l3.5339-4.5212 c0,0,2.2044-3.7619-1.6082-10.6994l-5-1.5l-5.6321,0.4577l-5.8145,1.1229l-8.6952-0.3403l-3.4267-0.8074l-5.3075-6.4792 l-5.2713-3.0433l-3.5918-1.3116l-2.511-1.619L10.8093,13.2868" stroke="none"/>
    <path fill="#6A462F" d="M21.8749,41l0.6502,6.2142l1.508,3.0358l-1.133,6.472l-1.0252,3.903l1.0791,1.5712l2.2575-0.6175 c0,0,1.8762-1.6412,1.8762-2.0162s2-7.1875,2-7.1875l-1.9375-6.9022l-1.6689-2.6603L21.8749,41z" stroke="none"/>
  </g>
  <g id="hair"/>
  <g id="skin"/>
  <g id="skin-shadow"/>
  <g id="line">
    <path fill="none" stroke="#000000" stroke-width="2" stroke-linecap="round" stroke-linejoin="round" stroke-miterlimit="10" d="M16.3125,22.625c-0.264,3.6061-4.25,3.4375-4.25,3.4375l-1.571,1.7364c-1.304,2.8261-4.804,0.8261-4.804-1.2364 c1.5076-3.415,3.0625-5.75,3.0625-5.75c-0.125-2.7917,3.3125-4.625,3.3125-4.625l-1.2779-1.7715 c-0.4364-0.5685-0.0718-1.3875,0.6417-1.455c1.2532-0.1186,3.6151-0.1459,4.5737,1.9766c0,0,8.8648,0.9329,13.9566,10.4329 c0.238,0.4441,9.8767,2.3078,16.0746,0.4421c4.2838-1.2895,17.0521-2.0625,17.2812,10.5 c0.1169,6.406-1.2515,15.1012,2.9984,19.5208"/>
    <path fill="none" stroke="#000000" stroke-width="2" stroke-linecap="round" stroke-linejoin="round" stroke-miterlimit="10" d="M59.1884,37.0158c-0.4424,1.6306-1.2206,3.426-2.589,4.6423c0,0,1.0956,4.786,3.1715,6.8042l-2.7102,12.1669l-1.0616,1.9266 c-0.3055,0.5545-0.8885,0.8989-1.5216,0.8989h0c-1.252,0-2.0956-1.2762-1.5937-2.4232c0.968-2.2123,2.1598-5.9562,2.3893-11.3006 c0,0-7.2655-10.2063-5.651-15.742"/>
    <path fill="none" stroke="#000000" stroke-width="2" stroke-linecap="round" stroke-linejoin="round" stroke-miterlimit="10" d="M17.7764,27.4908l2.6684,5.6332c0,0-1.1533,6.3429,3.2868,9.1684l2.4218,1.5569l2.5133,9.234l0.9167,6.8333l-0.4839,1.2127 c-0.4446,1.1143,0.3761,2.3254,1.5758,2.3254h0c0.7126,0,1.3493-0.4454,1.5937-1.1148l0.7465-2.0449 c0.2401-0.6576,0.2986-1.3678,0.1694-2.0559l-1.3308-7.089l-0.1597-8.6838c0,0,8.118,2.7836,14.8296-2.4039"/>
    <path fill="none" stroke="#000000" stroke-width="2" stroke-linecap="round" stroke-linejoin="round" stroke-miterlimit="10" d="M23.512,47.2142l0.6035,4.4196l-1.7405,7.287l-0.3672,0.9192c-0.482,1.2068,0.4068,2.5191,1.7064,2.5191h0 c0.7335,0,1.3967-0.4362,1.6872-1.1097l0.7899-1.8311"/>
  </g>
</svg>
