<svg id="emoji" viewBox="0 0 72 72" xmlns="http://www.w3.org/2000/svg">
  <g id="color">
    <path fill="#5c9e31" d="m12.593,49.1734h0c.2127-.5316.5196-1.0205.9061-1.4429l1.4879-1.6263c.4066-.4445.8941-.8075,1.4363-1.0699l2.1386-1.0348c.6035-.292,1.262-.453,1.9322-.4725l3.0016-.087c.1956-.0057.3914.0007.5862.0192l3.9809.7126c.5132.0486,1.84.5159,2.3108.7257l18.108,7.4056c.0918.0409.1823.0847.2714.1314l9.5364,4.997-.25,1.188-13.0703,1.0938c-.785.0543-5.7972.1295-6.8354.1311l-9.0073.1189c-3.732.173-6.8399.2365-9.9432-1.8437l-4.8241-3.2336c-1.863-1.2488-2.5993-3.63-1.7663-5.7124Z"/>
    <path fill="#b1cc33" d="m18.4553,50.754c.006.548.452.989,1,.989h.011l1.132-.014c3.9774.0945,7.93-.6507,11.6-2.187,8.23-3.493,4.665-25.974,4.157-28.931v-.133c.0039-3.0745,2.4955-5.5657,5.57-5.569,3.4,0,7.962,2.765,7.962,5.592,0,3.252-6.458,3.5-6.523,3.5-.5521.0125-.9896.4702-.9771,1.0224.0014.0631.0088.1259.0221.1876,3.074,14.237,1.364,29.705-2.2,31.3-5.617,2.519-16.071,2.844-23.41,2.081-1.858-.193-3.148-.744-3.833-1.637-.7-.916-.881-2.275-.561-4.279.005-.032-.006-.061,0-.092"/>
  </g>
  <g id="line">
    <path fill="none" stroke="#000" stroke-linecap="round" stroke-linejoin="round" stroke-width="2" d="m44.9693,59c2.194.007,9.422-.092,12.491-.183.6551-.0245,1.1663-.5754,1.1418-1.2305-.016-.4279-.2613-.8141-.6418-1.0105l-9.472-3.638"/>
    <path fill="none" stroke="#000" stroke-linecap="round" stroke-linejoin="round" stroke-width="2" d="m19.4543,50.74c.368-.004.7433-.0087,1.126-.014,3.8491.1018,7.6758-.6165,11.226-2.107,7.82-3.319,3.549-27.92,3.549-27.92v-.224c0-3.6285,2.9415-6.57,6.57-6.57h0c3.628,0,8.962,2.964,8.962,6.592,0,4.333-7.5,4.5-7.5,4.5,2.935,13.6,1.708,30.419-2.772,32.428-5.794,2.6-16.262,2.959-23.923,2.163-5.217-.542-5.83-3.608-5.278-7.068"/>
    <path fill="none" stroke="#000" stroke-linecap="round" stroke-linejoin="round" stroke-width="2" d="m29.6873,44.563c-13.331-5.972-18.322,6.062-18.275,7.957"/>
    <path fill="none" stroke="#000" stroke-linecap="round" stroke-miterlimit="10" stroke-width="2" d="m48.7393,24.452s3.793,4.054,7.585,4.577"/>
    <polyline fill="none" stroke="#000" stroke-linecap="round" stroke-miterlimit="10" stroke-width="2" points="56.8733 33.606 55.8273 29.029 60.6653 26.806"/>
  </g>
</svg>
