<svg id="emoji" xmlns="http://www.w3.org/2000/svg" viewBox="0 0 72 72">
  <g id="color">
    <path fill="#D0CFCE" d="M64.6667,17.5372" stroke="none"/>
    <path fill="#D0CFCE" stroke="#D0CFCE" stroke-width="1.8" stroke-miterlimit="10" d="M32,29.9591c0,0-20-15.9226-20-3.9807 s7,5.971,9,9.9516s5,0.9952,5,0.9952L31,40"/>
    <path fill="#D0CFCE" stroke="#D0CFCE" stroke-width="1.8" stroke-miterlimit="10" d="M40,30c0,0,20-16,20-4s-7,6-9,10s-5,1-5,1 l-5,3"/>
    <ellipse fill="#FCEA2B" cx="36" cy="27" rx="4" ry="3" stroke="none"/>
    <ellipse fill="#A57939" cx="36" cy="32" rx="4" ry="2" stroke="none"/>
    <path fill="#FCEA2B" d="M35,34.1667C22.3124,34.7886,36,53,36,53S52,33.3333,35,34.1667z" stroke="none"/>
  </g>
  <g id="hair"/>
  <g id="skin"/>
  <g id="skin-shadow"/>
  <g id="line">
    <line fill="none" stroke="#000000" stroke-width="2" stroke-linecap="round" stroke-linejoin="round" stroke-miterlimit="10" x1="34" y1="23.5833" x2="32" y2="20"/>
    <line fill="none" stroke="#000000" stroke-width="2" stroke-linecap="round" stroke-linejoin="round" stroke-miterlimit="10" x1="38.3333" y1="23.6667" x2="40" y2="20"/>
    <ellipse fill="none" stroke="#000000" stroke-width="2" stroke-linecap="round" stroke-linejoin="round" stroke-miterlimit="10" cx="36" cy="27" rx="4" ry="3"/>
    <ellipse fill="none" stroke="#000000" stroke-width="2" stroke-linecap="round" stroke-linejoin="round" stroke-miterlimit="10" cx="36" cy="32" rx="4" ry="2"/>
    <path fill="none" stroke="#000000" stroke-width="2" stroke-linecap="round" stroke-linejoin="round" stroke-miterlimit="10" d="M35,34.1667C22.3124,34.7886,36,53,36,53S52,33.3333,35,34.1667z"/>
    <path fill="none" stroke="#000000" stroke-width="2" stroke-linecap="round" stroke-linejoin="round" stroke-miterlimit="10" d="M32,30c0,0-20-16-20-4s7,6,9,10s5,1,5,1"/>
    <path fill="none" stroke="#000000" stroke-width="2" stroke-linecap="round" stroke-linejoin="round" stroke-miterlimit="10" d="M46,37c0,0,3,3,5-1s9,2,9-10s-20,4-20,4"/>
  </g>
</svg>
