<svg id="emoji" viewBox="0 0 72 72" xmlns="http://www.w3.org/2000/svg">
  <g id="color">
    <path fill="#f4aa41" d="m16.4225,52.5106c.01-.025.0115-.0511.019-.0768.1695-.4767-.0475-1.0045-.5032-1.2242-1.2397-.6076-2.3099-1.5123-3.1152-2.6337-1.1566-1.6278-1.7834-3.5726-1.795-5.5694.0447-.5505-.3646-1.0332-.915-1.0791-.0332-.0019-.0618.0112-.0942.0122l-.0074-.0014h-.01c-1.6572-.0823-3.2605.6002-4.35,1.8515-1.0459,1.3526-1.2569,3.3184-.6211,5.8613.5441,1.7699,1.7901,3.2394,3.4472,4.0655.8471.3845,1.7681.5788,2.6983.5693,1.6511-.0552,3.2699-.4733,4.7412-1.2246.2044-.1317.3747-.3099.4971-.52.0058-.0096.004-.0205.0083-.0306Z"/>
    <path fill="#b1cc33" d="m47.4061,31.66c-.2285-.167-5.6211-4.0595-9.5782-1.9375-.1069.0573-.1967.1415-.299.2061-2.3188-.6375-6.2432-1.2077-9.0222,1.0644-.0833.0681-.1515.1526-.2312.2245-1.7034-.196-7.35-.5526-10.54,2.79-.6455.6863-1.1532,1.4903-1.4955,2.3681-.7561.1233-5.0351.9595-6.6382,4.3311-1.14,2.3955-.63,5.3936,1.5254,8.9277.0351.0547,2.7705,4.2266,7.6826,4.2266,1.6287-.0348,3.2272-.4467,4.67-1.2033.4314.0684.8674.103,1.3042.1037.4925-.0009.9842-.0398,1.4707-.1162,1.1944-.1964,2.3523-.57,3.4356-1.1083.1204-.0598.2585-.0539.3763.011.6847.3774,1.4566.5716,2.2408.5621,1.5662-.0831,3.0692-.643,4.3077-1.6041.0178-.0138.0437-.0082.0539.0119.3583.7077.6767,1.4349.9539,2.1782l.0839.2959c.252.9121.8692,3.1523,3.4209,3.1513.3955-.0033.7894-.0495,1.1749-.1377,1.9882-.44,2.91-2.6982,2.53-6.1963-.0028-.0258-.018-.0462-.0227-.0713-.0133-.0614-.0324-.1214-.0571-.1791-.024-.0665-.0552-.1302-.093-.19-.0127-.0189-.0152-.0413-.0293-.06-1.751-2.2783-1.919-5.788-.501-10.43.8555-2.7989,1.9346-4.67,3.208-5.5616.006-.0042.0087-.0109.0145-.0152.4636-.2853.608-.8924.3227-1.356-.0694-.1128-.1608-.2104-.2688-.287l.0002.001Z"/>
    <path fill="#b1cc33" d="m55.64,35.402c-.0549-.2597-.2109-.4869-.4336-.6313-.0514-.1855-.1568-.3516-.3028-.4771-.2129-.1728-5.2451-4.2373-9.2109-2.415-2.5908,1.19-3.97,4.5156-4.0986,9.8828-.0889,3.69.3672,6.5352,1.3535,8.4492.4342.947.8125,1.9187,1.1328,2.91l.0615.2763c.1924.9112.68,3.21,3.4531,3.209.2643-.0009.5282-.0195.79-.0556,1.0706-.153,1.9707-.8814,2.3437-1.8965.0193-.043.0353-.0874.0479-.1328.2286-.821.3604-1.666.3926-2.5176,0-.03-.0147-.056-.0174-.0858-.0171-.1338-.0563-.2639-.1158-.3849-.0106-.02-.0111-.0415-.0231-.0606-.5752-.914-1.0732-3.0048-.1728-7.7773.8027-4.26,2.1962-6.7178,4.0293-7.1065.54-.1154.8847-.646.7706-1.1863Z"/>
    <path fill="#b1cc33" d="m54.6,57.2507c-1.8592.1902-3.5205-1.1628-3.7107-3.0219-.0071-.0697-.0121-.1396-.0149-.2096l-.043-.2461c-.2526-.9089-.5621-1.8009-.9267-2.6709-.8584-1.8066-1.1367-4.4082-.8223-7.7178.4385-4.625,1.9053-7.4628,4.3594-8.4365,3.8379-1.5224,8.4844,2.2715,9.0967,2.792,1.2615.9021,2.078,2.2998,2.2441,3.8418.5283,3.9434-2.2793,9.0186-8.3457,15.085-.0479.0479-.1006.0908-.1572.1279-.4347.2845-.9406.4412-1.46.4521-.0738.0033-.148.004-.2197.004Zm1.13-1.2907h0Z"/>
    <path fill="#5c9e31" d="m65.5752,44.1666c-.3095-.2179-.6343-.4133-.9719-.5846-.1167-.117-.2612-.2025-.42-.2484-.5341-.1404-1.0811.1779-1.2229.7117-.8774,2.813-2.2222,5.4582-3.978,7.8247-.3146.4539-.2017,1.0769.2522,1.3915,0,0,.0001.0001.0002.0002l.0138.0062c.3825.5055.9301.8609,1.5475,1.0046.3512.075.7127.0893,1.0688.0423.708-.1035,1.3852-.3594,1.9847-.75.028-.019.0551-.0394.081-.0612,2.3059-1.95,3.448-3.9155,3.3952-5.8424-.0601-1.3608-.6967-2.6316-1.7506-3.4946Z"/>
  </g>
  <g id="line">
    <path fill="none" stroke="#000" stroke-linecap="round" stroke-linejoin="round" stroke-width="2" d="m16.4874,37.35s-10.7857,1.4686-4.518,11.7468c1.6145,2.358,4.2913,3.7642,7.149,3.7555"/>
    <path fill="none" stroke="#000" stroke-linecap="round" stroke-linejoin="round" stroke-width="2" d="m10.0116,42.9384c-1.8613.0181-5.4378.76-4.0155,6.45,0,0,1.7487,6.4281,9.4948,2.7686"/>
    <path fill="none" stroke="#000" stroke-linecap="round" stroke-linejoin="round" stroke-width="2" d="m28.6134,32.2705s-14.5225-2.4028-11.6645,10.9767c1.7,7.959,6.0151,8.902,9.1506,8.41"/>
    <path fill="none" stroke="#000" stroke-linecap="round" stroke-linejoin="round" stroke-width="2" d="m37.6168,30.9932c-3.3141-.9893-12.0795-2.4665-10.95,10.0681.86,9.5456,4.309,10.53,6.8106,9.8954"/>
    <path fill="none" stroke="#000" stroke-linecap="round" stroke-linejoin="round" stroke-width="2" d="m46.8152,32.4668s-12.3728-9.0547-11.5975,8.1713c.1875,4.1649.9041,6.8339,1.8743,8.4945l.0274.0457c.5457,1.0462,1.0325,2.1222,1.4582,3.2227.3192,1.0337.6121,3.2676,3.5089,2.6276.1894-.041.3711-.1116.5385-.2091"/>
    <path fill="none" stroke="#000" stroke-linecap="round" stroke-linejoin="round" stroke-width="2" d="m54.27,35.0685s-11.2947-9.24-11.677,6.7171c-.0924,3.8582.4214,6.3731,1.2449,7.9752l.0233.0441c.455,1.0028.8523,2.0308,1.19,3.079.2391.977.3743,3.06,3.1993,2.6755.3456-.0437.6705-.1888.9336-.4171"/>
    <path fill="none" stroke="#000" stroke-linecap="round" stroke-linejoin="round" stroke-width="2" d="m55.73,55.96c-.2805.1824-.6067.2821-.9412.2878-2.7942.09-2.8-1.7769-2.9752-2.668-.2691-.968-.5964-1.9188-.98-2.8474l-.02-.0413c-.71-1.5-1.0612-3.7848-.7359-7.2112,1.3458-14.1719,11.8623-4.9358,11.8623-4.9358,0,0,6.2689,3.58-3.94,15.02"/>
    <path fill="none" stroke="#000" stroke-linecap="round" stroke-linejoin="round" stroke-width="2" d="m19.1184,52.8527s1.3622.4,0,2.6883"/>
    <path fill="none" stroke="#000" stroke-linecap="round" stroke-linejoin="round" stroke-width="2" d="m26.0988,51.6527s1.3621.4,0,2.6883"/>
    <path fill="none" stroke="#000" stroke-linecap="round" stroke-linejoin="round" stroke-width="2" d="m33.4775,50.9584s1.3622.4,0,2.6884"/>
    <path fill="none" stroke="#000" stroke-linecap="round" stroke-linejoin="round" stroke-width="1.8807" d="m59.8041,52.4394c1.1586,1.9389,3.52.3461,3.52.3461,5.7078-4.8285,1.69-7.8645,1.69-7.8645-.3315-.2354-.6837-.4401-1.0524-.6115"/>
  </g>
</svg>
