<svg id="emoji" viewBox="0 0 72 72" xmlns="http://www.w3.org/2000/svg">
  <g id="color">
    <path fill="#a57939" d="m58.8883,25.3814c-.025-.055-.0499-.1014-.081-.1533-1.1738-1.9611-2.8971-3.5357-4.9573-4.5281-.8272-.4037-1.7002-.7059-2.6-.9-2.245-.4735-4.3604-1.4289-6.2-2.8-.724-.5174-1.196-1.3162-1.3-2.2-.2-1.8,1.4-2.5,4.1-2.1,1.9487.3541,3.6563,1.5168,4.7,3.2.4462.7963,1.1037,1.4538,1.9,1.9,1.3066.5939,1.9078-.2584,2.1805-1.0486.199-.5765.0014-1.215-.4865-1.581l-.822-.6165c-.048-.036-.0936-.075-.1366-.1168l-2.971-2.8907c-.4377-.4259-.9631-.7511-1.5396-.9528l-1.5129-.5295c-1.0479-.3668-2.1848-.3939-3.249-.0775l-1.1991.3565c-.5698.1694-1.0986.4545-1.5533.8374l-.8679.7308c-.2229.1877-.3819.4403-.4547.7225l-.2377.921c-.2859,1.1077-.0737,2.285.5809,3.2233l.6686.9583c.8501,1.2184,2.0215,2.1772,3.384,2.7695l2.5162,1.094,3.395,1.2901c1.059.4024,2.0257,1.015,2.8418,1.8009l.5565.5359c.5939.5719,1.026,1.2907,1.2526,2.0835h0c.2803.9811.0067,2.0371-.7148,2.7586h0c-.34.34-.8011.531-1.2819.531h-1.6815c-.1768,0-.3519-.0334-.5163-.0985l-3.4482-1.3649c-.7341-.2906-1.4913-.5188-2.2637-.6822l-1.3121-.2776c-1.77-.3744-3.6138-.1632-5.2533.6019l-.2734.1276c-.1324.0618-.2756.0973-.4215.1046h0c-.9101.0455-1.6261-.7674-1.4659-1.6645l.0944-.5285c.0586-.3284-.0308-.666-.2444-.9223l-.3242-.389c-.2148-.2577-.5329-.4067-.8683-.4067h-1.5693c-.2596,0-.5113.0894-.7128.2531h0c-.7275.5911-1.7871.5234-2.4335-.1553l-.624-.6552c-.1519-.1595-.3392-.2809-.5467-.3546h0c-1.7373-.6165-3.6684-.3153-5.1355.801l-.793.6034c-.9484.7216-1.6573,1.7124-2.0342,2.843l-.1907.572c-.4151,1.2453-.5407,2.569-.3672,3.8702l.115.8624c.0142.1063.0405.2107.0785.311l1.2918,3.414c.034.0897.077.1757.1285.2567l1.091,1.7144c.5866.9218.7059,2.0656.3223,3.0886h0c-.1923.5127-.4752.9866-.8352,1.3992l-1.6309,1.8688c-1.7336,1.9864-3.8328,3.6211-6.1835,4.815l-1.4534.7382c-.8579.4358-1.7377.8272-2.6358,1.1726l-2.2056.8483c-1.0806.4156-2.0408,1.0934-2.7942,1.9724h0c-.3721.4342-.3614,1.0779.025,1.4994h0c.2631.2871.6555.4184,1.0384.3478l5.8319-1.0767c.035-.0065.0698-.0143.1043-.0234l6.7483-1.7863,2.7967-.6315c2.1933-.4953,4.1308-1.7732,5.4496-3.5944l.9881-1.3646c.7753-1.0707,1.4488-2.2115,2.0117-3.4076h0c.3851-.8183,1.4324-1.0637,2.141-.5018l1.3778,1.0927c.0897.0712.1704.153.2402.2438l1.0156,1.3203c.5488.7134.7016,1.6551.4066,2.5055l-1.1826,3.4085c-.0298.0858-.0678.1686-.1136.247l-1.0223,1.7525c-.1969.3376-.5258.5778-.9074.6626l-2.7592.6132c-.754.1676-1.467.4838-2.0973.9303l-.3475.2461c-.6135.4346-.7753,1.2756-.3669,1.9068l.125.1932c.1569.2424.4006.4157.6811.4841l.7533.1837c1.9199.4683,3.9149.5422,5.8642.2173l.3947-.0658c.1659-.0277.3355-.0252.5005.0071l3.1086.6095c1.1438.2243,2.3251.1654,3.441-.1714l.7964-.2404c1.7474-.5275,3.1056-1.9089,3.6036-3.6649l.6116-2.1565c.325-1.146.5119-2.3268.5569-3.5172l.0605-1.6027c.0449-1.1901.6827-2.2786,1.6989-2.8996l1.4573-.8906c1.5217-.9299,2.7984-2.2109,3.7232-3.7356l1.0727-1.7685c.8058-1.3285,1.3511-2.7985,1.6065-4.3311l.041-.2461c.0471-.2824.0126-.5754-.1095-.8344-.2959-.6273-.6347-1.233-1.0141-1.8128-.3437-.5254-.3066-1.2352.1327-1.6838,2.3698-2.4203.9599-5.8523.7015-6.4215Zm-17.4654,30.6151l.9193-2.145c.4705-1.0978,2.0825-.9036,2.2788.2745l.1161.6966c.1202.7214-.334,1.4141-1.0435,1.5915l-1.5789.3947c-.4778.1194-.8858-.3596-.6918-.8123Z"/>
    <path fill="#6a462f" d="m55.5091,46.316h0c-.0382.2481.0121.5016.1421.7163l.5923.9785c.9713,1.6047,2.4917,2.8026,4.2792,3.3713l2.625.8352c.7375.2347,1.2805.8641,1.4044,1.6281l.074.4566c.2156,1.3298.324,2.6748.324,4.0219v1.9377c0,.8635-.5402,1.6347-1.3517,1.9298h0c-.5406.1966-1.1388.1574-1.6491-.108h0c-1.0619-.5522-1.7785-1.5975-1.9107-2.787l-.016-.1441c-.1127-1.0145-.7223-1.9353-1.6569-2.3456-.0052-.0023-.0104-.0046-.0156-.0068-.2,0-7.1-3.7-7.1-3.7-.4554-.5942-.8108-1.2493-1.0598-1.9401-.6508-1.8057.1068-3.8207,1.7647-4.7878l1.9584-1.1424c.7771-.4533,1.7325.1971,1.5957,1.0863Z"/>
    <path fill="#f4aa41" d="m26.3518,31.3281l2.6622.2476c.8209.0764,1.5311.6033,1.8422,1.3668l.2081.5108c.2447.6006.2133,1.2783-.0859,1.8536l-.6745,1.297c-.102.1962-.1741.4067-.2136.6243l-.0173.0949c-.188,1.0339-1.0779,1.7925-2.1286,1.8144l-1.3861.0289c-.9587.02-1.821-.5806-2.1347-1.4868l-.3409-.9847c-.0219-.0633-.0467-.1256-.0743-.1867l-.8544-1.8919c-.3137-.6945-.2474-1.5016.1753-2.1357h0c.3326-.4989.8537-.8413,1.4437-.9486l.9786-.1779c.1979-.036.3998-.0448.6001-.0262Z"/>
  </g>
  <g id="line">
    <path fill="none" stroke="#000" stroke-linecap="round" stroke-linejoin="round" stroke-width="2" d="m55.85,16c-6.2-10.1-13.9-5.7-14.6-2.5-.6,2.8.5,6.2,9.3,8.6,2.6466.5943,4.928,2.26,6.3,4.6.7812,1.3525.318,3.0821-1.0345,3.8633-.0217.0125-.0435.0248-.0655.0367-.6957.4149-1.5431.4886-2.3.2-4.7-1.6-9.4-5-15-.9"/>
    <path fill="none" stroke="#000" stroke-linecap="round" stroke-linejoin="round" stroke-width="2" d="m35.25,35.7c5,.3,2.8-9.7,2.8-9.7-.5-.8-2.3-1.8-4.6,1.2-.2163-.761-.6304-1.451-1.2-2-1.7261-1.6072-4.3739-1.6926-6.2-.2-2.4767,1.6721-3.7007,4.6727-3.1,7.6"/>
    <path fill="none" stroke="#000" stroke-linecap="round" stroke-linejoin="round" stroke-width="2" d="m24.05,36.6s-3-3.8.8-4.6,5.3,0,5.3,0c0,0,3,.8,0,4.6,0,0,1.1,3.4-2.7,3.4-1.6722.2031-3.1924-.9879-3.3954-2.6601-.0016-.0133-.0031-.0266-.0046-.0399-.0882-.211-.0397-.4688,0-.7Z"/>
    <path fill="none" stroke="#000" stroke-linecap="round" stroke-linejoin="round" stroke-width="2" d="m31.15,46.8l-3.3,6s-7.9,1.8-10.3,2.4c-1.8.5-5.4,1.6-7,2.2-.7302.2337-1.5239.1616-2.2-.2-1.1-.6-1.9-2.8,5.8-5.2,6.9-2.2,11.8-7.6,12.1-12"/>
    <path fill="none" stroke="#000" stroke-linecap="round" stroke-linejoin="round" stroke-width="2" d="m39.15,37.9s7.9,7.9,5.4,11.5c-1.8,2.7-4.5,7.6-5.9,10.1-.4909.9247-1.4531,1.502-2.5,1.5h-5.1c-2.6,0-2.9-4-.3-4.2h.5c1.1,0,4.1-.6,4.6-1.6l3.1-6.9s-2.9-4.3-6.1-4.9"/>
    <path fill="none" stroke="#000" stroke-linecap="round" stroke-linejoin="round" stroke-width="2" d="m58.55,36.1s3,6.7-9.1,12.1c.0179,3.706-.4187,7.4003-1.3,11-.2437.9779-1.2109,1.5934-2.2,1.4h-3.3"/>
    <path fill="none" stroke="#000" stroke-linecap="round" stroke-linejoin="round" stroke-width="2" d="m52.25,53c1,3,6,4.2,8,4v2.8c.0264,1.2967,1.099,2.3265,2.3957,2.3001.0014,0,.0028,0,.0043,0h.1c1.0145.0027,1.8914-.7072,2.1-1.7.1194-2.4874-.1163-4.9791-.7-7.4-9.7-1.8-9.3-7.2-9.3-7.2"/>
    <path fill="none" stroke="#000" stroke-linecap="round" stroke-linejoin="round" stroke-width="2" d="m41.95,57.1c1.0852.0216,2.1448-.3316,3-1l-1-5"/>
  </g>
</svg>
