<?xml version="1.0" encoding="utf-8"?>
<!-- Generator: Adobe Illustrator 21.1.0, SVG Export Plug-In . SVG Version: 6.00 Build 0)  -->
<svg version="1.1" id="emoji" xmlns="http://www.w3.org/2000/svg" xmlns:xlink="http://www.w3.org/1999/xlink" x="0px" y="0px"
	 viewBox="0 0 72 72" enable-background="new 0 0 72 72" xml:space="preserve">
<g id="_xD83D__xDC11_">
	<path fill="#D0CFCE" d="M10.7,17.1l-3.1,2.7l-2.7,3.9v2.5l2.6,1.1l4.8-0.7l1.9,3.1l0.6,2.8c0,0,1.1,2.1,3.5,3.5
		c0,0-1.7,2.1,1.4,4.1l0.6,3.7l4.1,0.7L23.1,59l2.5,2.8l4.1-0.7h1.7l1-1.6L32,45.6l4,0.6l5.2,0.3l3.9-0.8l3.2,0.1l6.4-1.3l3.1,5
		l0,10.1l1.3,2.2l2.6-1.6l1.3-10.3l-1.3-3.4l-0.9-5.6l1.8-4.1l-0.5-3.5l0.9-4.2l-2.3-2.1l-1.8-2.8l-3.2-0.5l-3.3-1.8l-4.6,1l-3-1
		l-3.6,0.5c0,0-3.6-0.7-5.7,0c0,0-3.9-1.9-5.6-0.5c0,0-6,0.4-6.9,1.2c0,0-1.1-1.6-3.3-1l0.7-3.8c0,0-2-3.6-5.8-1.8
		C12.2,17.6,10.7,17.1,10.7,17.1z"/>
	<path fill="#FFFFFF" d="M9.8,18.2c0,0,4.4,0.5,6.1,3.6l2.6,0.5l1.9-2.1l-0.9-4.2h-3.8L11.9,17L9.8,18.2z"/>
	<path fill="#FFFFFF" d="M19,22.3c0,0,1.3,6.8-4.4,8.7l0.5,3.5l2.7,1.1l-0.4,2.7l2.4,1.8v2.7c0,0,7,1.1,7.5,4.6c0,0,3.5-3.7,4.7-2
		l3,0.8l3-0.8l3.1,0.8h3.5l5.5-0.8c0,0,4,0.7,4.5-1.1c0,0,3.7-3.7,6.3-0.6l-0.2-3.1l1.8-4.1l-0.5-3.5l0.9-2.8l-2.7-3l-1.5-3.3
		l-3.2-0.5l-3.3-1.8l-4.1,0.8l-3.5-0.8l-2.4,0.8l-2.8-0.8l-4,0.5l-2.6-1.2l-3,0.7l-3.7-1.1l-3.7,1.6C22.6,22.3,21.8,20.4,19,22.3z"
		/>
	<path fill="none" stroke="#000000" stroke-width="2" stroke-linecap="round" stroke-linejoin="round" stroke-miterlimit="10" d="
		M23.1,22.9c0,0,3.7-3.5,6.2-0.9c0,0,4.3-1.9,6.5,0.4c0,0,3.8-1.8,6.1,0.4c0,0,3.5-2.5,6.4,0.2c0,0,4.2-2.5,7.4,0.4
		c0,0,4.6-1,4.6,3.8c0,0,3.8,2.1,1.8,5.8c0,0,1.8,4-1.3,7.5c0,0-0.1,4.8,1.7,7c0.4,0.6,0.6,1.3,0.5,2l-1.3,10.3
		c-0.1,1-1,1.7-1.9,1.7h0c-1.2,0-2.1-1.1-1.9-2.3l0-10.1c0,0-1.5-3.3-3.1-5c0,0-1.8-0.6-3.4-2.6"/>
	<path fill="none" stroke="#000000" stroke-width="2" stroke-linecap="round" stroke-linejoin="round" stroke-miterlimit="10" d="
		M31.6,40.1c1,1.8,0.8,6.3,0.8,6.3v13.1c0,1-0.8,1.8-1.8,1.8h0c-0.9,0-1.7-0.7-1.8-1.6l-0.9-8l-0.6-4.1c-1.6-3.4-4.6-3.6-4.6-3.6
		c-3.5-0.2-2.9-3.8-2.9-3.8c-2.9-0.8-2-4.6-2-4.6c-3.8-0.7-3.1-5.1-3.1-5.1l-2.4-3.8c-1-0.1-2,0-2.8,0.3c-0.5,0.2-1.2,0.4-2,0.4
		c-1.3,0-2.1-0.4-2.5-0.9c-0.7-0.7-0.7-1.8-0.1-2.7l2.7-3.9l2.5-1.9c1.1-0.9,2.5-1.3,3.9-1.3h0.6c0,0,5.6-2.3,5.6,2.3
		c-0.1,4.7-3.6,3.2-3.6,3.2"/>
	<path fill="none" stroke="#000000" stroke-width="2" stroke-linecap="round" stroke-linejoin="round" stroke-miterlimit="10" d="
		M35.3,45.6c0,0,0.9,0.8,2.9-0.1c0.2,0,4.7,2.2,6.4-0.2c0,0,2.3,1.8,4.7-0.3"/>
	<path fill="none" stroke="#000000" stroke-width="2" stroke-linecap="round" stroke-linejoin="round" stroke-miterlimit="10" d="
		M24.3,45.6c-0.1,0.8,0.5,5-0.7,12.9c-0.2,1.2,0.7,2.3,2,2.3"/>
	<path fill="none" stroke="#000000" stroke-width="2" stroke-linecap="round" stroke-linejoin="round" stroke-miterlimit="10" d="
		M64.7,27.4c0.4,0.3,3.9-2.2,1.3,17.5"/>
</g>
</svg>
