<?xml version="1.0" encoding="utf-8"?>
<!-- Generator: Adobe Illustrator 19.1.0, SVG Export Plug-In . SVG Version: 6.00 Build 0)  -->
<svg version="1.1" id="emoji" xmlns="http://www.w3.org/2000/svg" xmlns:xlink="http://www.w3.org/1999/xlink" x="0px" y="0px"
	 viewBox="0 0 72 72" enable-background="new 0 0 72 72" xml:space="preserve">
<g id="_xD83D__xDC14_">
	<path fill="#EA5A47" d="M44.6,26.2c0,0,4.4-7.2,2.4-8.2s-5,1-5,1s2-7-2-7s-5,4-5,4s-1.5-8.3-7-6c-3.5,1.4-5,5,0,15"/>
	<path fill="#FCEA2B" d="M36,64c0,0,30-1,15-29c0,0-4-11-15-11c-3.1,0-5.7,0.7-7.7,1.8C23,28.5,20.7,33.6,20,35C19,37,4,62,36,64z"
		/>
	<path fill="none" stroke="#000000" stroke-width="2" stroke-linecap="round" stroke-linejoin="round" stroke-miterlimit="10" d="
		M44.6,26.2c0,0,4.4-7.2,2.4-8.2s-5,1-5,1s2-7-2-7s-5,4-5,4s-1.5-8.3-7-6c-3.5,1.4-5,5,0,15"/>
	<path fill="none" stroke="#000000" stroke-width="2" stroke-linecap="round" stroke-linejoin="round" stroke-miterlimit="10" d="
		M36,64c0,0,30-1,15-29c0,0-4-11-15-11c-3.1,0-5.7,0.7-7.7,1.8C23,28.5,20.7,33.6,20,35C19,37,4,62,36,64z"/>
	<path fill="#F1B31C" d="M36,43c0,0,18-1,0,18C36,61,18,43,36,43z"/>
	<circle cx="27" cy="39" r="2"/>
	<circle cx="45" cy="39" r="2"/>
	<path fill="none" stroke="#000000" stroke-width="2" stroke-linecap="round" stroke-linejoin="round" stroke-miterlimit="10" d="
		M36,43c0,0,18-1,0,18C36,61,18,43,36,43z"/>
</g>
</svg>
