<?xml version="1.0" encoding="utf-8"?>
<!-- Generator: Adobe Illustrator 19.1.0, SVG Export Plug-In . SVG Version: 6.00 Build 0)  -->
<svg version="1.1" id="emoji" xmlns="http://www.w3.org/2000/svg" xmlns:xlink="http://www.w3.org/1999/xlink" x="0px" y="0px"
	 viewBox="0 0 72 72" enable-background="new 0 0 72 72" xml:space="preserve">
<g id="_xD83D__xDC19__1_">
	<path fill="#D22F27" d="M60,30.4c2-6.1-3-6.1-3-6.1c-7,1-2,7.1-2,7.1s6,11.2-4.6,10.8S43,31.4,43,31.4c6.1-5.2,4-11.2,4-11.2
		C44,10,36,11,36,11s-8-1-11,8.2c0,0-3,9.2,4,12.2c0,0,4,11.2-8,11.2c0,0-10,0-4-13.3c0,0,2-7.1-4-5.1c0,0-3,1-2,6.1
		c0,0-5,21.4,14,16.3c0,0,16-3.1,22,0c6,3.1,14,1,14-9.2L60,30.4z"/>
	<path fill="none" stroke="#000000" stroke-width="2" stroke-linecap="round" stroke-linejoin="round" stroke-miterlimit="10" d="
		M60,30c2-6-3-6-3-6c-7,1-2,7-2,7s6,11-4.6,10.6C39.8,41.2,43,31,43,31c6.1-5.1,4-11,4-11c-3-10-11-9-11-9s-8-1-11,8c0,0-3,9,4,12
		c0,0,4,11-8,11c0,0-10,0-4-13c0,0,2-7-4-5c0,0-3,1-2,6"/>
	<path fill="none" stroke="#000000" stroke-width="2" stroke-linecap="round" stroke-linejoin="round" stroke-miterlimit="10" d="
		M12,30"/>
	<path fill="none" stroke="#000000" stroke-width="2" stroke-linecap="round" stroke-linejoin="round" stroke-miterlimit="10" d="
		M34,32"/>
	<path fill="#EA5A47" d="M33,32c0,0,4,11.4-7,14.6c0,0-7-1-7,5.2s4,6.2,6,5.2c2-1,3-4.2,3-4.2s0-2.9-4,0.2s-3-3.3,4-4.3
		c7-1,10-12.5,8-16.7H33z"/>
	<path fill="#EA5A47" d="M19.1,45c0,0-2,1-4-1s-4-1-4-1s-4,1-1,5c0,0,1,2,4,1c0,0,1.9-1-0.1-2s-4-2-2-2S18.2,50,19.1,45z"/>
	<path fill="#EA5A47" d="M38.6,32c0,0-4,11.4,7,14.6c0,0,7-1,7,5.2s-4,6.2-6,5.2c-2-1-3-4.2-3-4.2S44,49.9,48,53s2.6-3.3-4.4-4.3
		c-7-1-10-12.5-8-16.7H38.6z"/>
	<path fill="none" stroke="#000000" stroke-width="2" stroke-linecap="round" stroke-linejoin="round" stroke-miterlimit="10" d="
		M33,33c0,0,4,11-7,14c0,0-7-1-7,5s4,6,6,5s3-4,3-4"/>
	<path fill="none" stroke="#000000" stroke-width="2" stroke-linecap="round" stroke-linejoin="round" stroke-miterlimit="10" d="
		M38.7,33c0,0-4,11,7,14c0,0,7-1,7,5s-4,6-6,5s-3-4-3-4"/>
	<path fill="none" stroke="#000000" stroke-width="2" stroke-linecap="round" stroke-linejoin="round" stroke-miterlimit="10" d="
		M19.1,45c0,0-2,1-4-1s-4-1-4-1s-4,1-1,5c0,0,1,2,4,1"/>
	<path fill="#EA5A47" d="M54,45c0,0,2,1,4-1s4-1,4-1s4,1,1,5c0,0-1,2-4,1c0,0-1.9-1,0.1-2s4-2,2-2S54.9,50,54,45z"/>
	<path fill="none" stroke="#000000" stroke-width="2" stroke-linecap="round" stroke-linejoin="round" stroke-miterlimit="10" d="
		M54,45c0,0,2,1,4-1s4-1,4-1s4,1,1,5c0,0-1,2-4,1"/>
</g>
</svg>
