<?xml version="1.0" encoding="utf-8"?>
<!-- Generator: Adobe Illustrator 21.1.0, SVG Export Plug-In . SVG Version: 6.00 Build 0)  -->
<svg version="1.1" id="emoji" xmlns="http://www.w3.org/2000/svg" xmlns:xlink="http://www.w3.org/1999/xlink" x="0px" y="0px"
	 viewBox="0 0 72 72" enable-background="new 0 0 72 72" xml:space="preserve">
<g id="_xD83D__xDC1D_">
	<path fill="#D0CFCE" d="M64.7,17.5"/>
	<path fill="#D0CFCE" stroke="#D0CFCE" stroke-width="2" stroke-miterlimit="10" d="M32,30c0,0-20-15.9-20-4s7,6,9,10s5,1,5,1l5,3.1
		"/>
	<path fill="#D0CFCE" stroke="#D0CFCE" stroke-width="2" stroke-miterlimit="10" d="M40,30c0,0,20-16,20-4s-7,6-9,10s-5,1-5,1l-5,3"
		/>
	<ellipse fill="#FCEA2B" cx="36" cy="27" rx="4" ry="3"/>
	<ellipse fill="#A57939" cx="36" cy="32" rx="4" ry="2"/>
	<path fill="#FCEA2B" d="M35,34.2C22.3,34.8,36,53,36,53S52,33.3,35,34.2z"/>
	
		<line fill="none" stroke="#000000" stroke-width="2" stroke-linecap="round" stroke-linejoin="round" stroke-miterlimit="10" x1="34" y1="23.6" x2="32" y2="20"/>
	
		<line fill="none" stroke="#000000" stroke-width="2" stroke-linecap="round" stroke-linejoin="round" stroke-miterlimit="10" x1="38.3" y1="23.7" x2="40" y2="20"/>
	
		<ellipse fill="none" stroke="#000000" stroke-width="2" stroke-linecap="round" stroke-linejoin="round" stroke-miterlimit="10" cx="36" cy="27" rx="4" ry="3"/>
	
		<ellipse fill="none" stroke="#000000" stroke-width="2" stroke-linecap="round" stroke-linejoin="round" stroke-miterlimit="10" cx="36" cy="32" rx="4" ry="2"/>
	<path fill="none" stroke="#000000" stroke-width="2" stroke-linecap="round" stroke-linejoin="round" stroke-miterlimit="10" d="
		M35,34.2C22.3,34.8,36,53,36,53S52,33.3,35,34.2z"/>
	<path fill="none" stroke="#000000" stroke-width="2" stroke-linecap="round" stroke-linejoin="round" stroke-miterlimit="10" d="
		M32,30c0,0-20-16-20-4s7,6,9,10s5,1,5,1"/>
	<path fill="none" stroke="#000000" stroke-width="2" stroke-linecap="round" stroke-linejoin="round" stroke-miterlimit="10" d="
		M46,37c0,0,3,3,5-1s9,2,9-10s-20,4-20,4"/>
</g>
</svg>
