<?xml version="1.0" encoding="utf-8"?>
<!-- Generator: Adobe Illustrator 19.1.0, SVG Export Plug-In . SVG Version: 6.00 Build 0)  -->
<svg version="1.1" id="emoji" xmlns="http://www.w3.org/2000/svg" xmlns:xlink="http://www.w3.org/1999/xlink" x="0px" y="0px"
	 viewBox="0 0 72 72" enable-background="new 0 0 72 72" xml:space="preserve">
<g id="_xD83D__xDC12_">
	<path fill="#A57939" d="M57.6,22.3c-1.3-2.4-3.5-3.9-5-4.6c-0.8-0.4-1.7-0.7-2.6-0.9c-3-0.7-5.1-2-6.2-2.8
		c-0.7-0.5-1.2-1.3-1.3-2.2c-0.2-1.8,1.3-2.5,4.1-2.2c2.4,0.3,3.9,2.1,4.7,3.2c0.5,0.8,1.1,1.6,1.9,1.9c2.2,1,2.4-2.1,2.4-2.1
		L54,11.5l-3.7-3.6l-4-1.4l-3.7,1.1l-1.9,1.6l-0.8,3.1l3,4.3l4.6,2.1l5,1.9l2.7,2.6l0.8,2.8l-1.7,1.7l-2.7,0l-4.8-1.9l-5.2-1.1
		l-3,1.4l-2,0.1l0.5-2.8l-1-1.2h-2.5l-1.6,1.3l-2.1-2.1l-3.1-1.1l-4.6,3.5l-1.4,4.2l0.4,3l1.4,3.7l2.1,3.3l-0.9,2.4l-4.8,5.5L13,49
		l-5.2,2l-1.8,2.1l1.1,1.2l6.5-1.2l6.8-1.8l6.2-1.4l4.2-5.8l1.6-3.4l2.9,2.3l2,2.6l-1.7,4.9l-1.4,2.4l-4.5,1.1l-2.4,1.7l1.1,1.7
		l4.1,1.1l3.6-0.6l5.1,1l5.3-1.6l1.9-6.7l0.2-5.3l5.4-3.3l3.7-6.1l0.5-3c0,0-0.7-1.5-1.9-3.2C60,26.9,57.6,22.3,57.6,22.3z"/>
	<path fill="#6A462F" d="M54.7,41.1l-0.4,2.6l2.3,3.8l6.6,2.1l0.6,3.7v5.4l-2.2,0.9L59,58.3l-0.4-3.6c0,0-1.3-0.8-1.5-0.8
		c-0.2,0-7.1-3.7-7.1-3.7s-1.8-2.1-1.4-5.5L54.7,41.1"/>
	<polygon fill="#F4AA41" points="24.8,28.4 29.1,28.7 30.2,31.4 29,33.9 28.6,36.1 23.7,36.2 22.8,33.6 21.5,30.5 22.7,28.7 	"/>
	<path fill="none" stroke="#000000" stroke-width="2" stroke-linecap="round" stroke-linejoin="round" stroke-miterlimit="10" d="
		M54.6,13C48.5,2.9,40.7,7.3,40,10.5c-0.6,2.8,0.5,6.2,9.3,8.6c3.3,0.9,5.2,2.7,6.3,4.6c1.3,2.2-0.9,4.9-3.4,4.1
		c-4.7-1.6-9.4-5-15-0.9"/>
	<path fill="none" stroke="#000000" stroke-width="2" stroke-linecap="round" stroke-linejoin="round" stroke-miterlimit="10" d="
		M34,32.7c5,0.3,2.8-9.7,2.8-9.7c-0.5-0.8-2.3-1.8-4.6,1.2c-1-3.5-5.1-3.7-5.1-3.7c-1.6,0.8-6.5,3-5.5,9"/>
	<path fill="none" stroke="#000000" stroke-width="2" stroke-linecap="round" stroke-linejoin="round" stroke-miterlimit="10" d="
		M22.8,33.6c0,0-3-3.8,0.8-4.6s5.3,0,5.3,0s3,0.8,0,4.6c0,0,1.1,3.4-2.7,3.4S22.8,33.6,22.8,33.6z"/>
	<path fill="none" stroke="#000000" stroke-width="2" stroke-linecap="round" stroke-linejoin="round" stroke-miterlimit="10" d="
		M30,43.8l-3.3,6c0,0-7.9,1.8-10.3,2.4c-1.8,0.5-5.4,1.6-7,2.1c-0.7,0.2-1.5,0.2-2.2-0.2C6,53.6,5.3,51.4,13,49
		c6.8-2.2,11.8-7.6,12.1-12"/>
	<path fill="none" stroke="#000000" stroke-width="2" stroke-linecap="round" stroke-linejoin="round" stroke-miterlimit="10" d="
		M37.9,34.9c0,0,7.9,7.9,5.5,11.5c-1.8,2.7-4.5,7.6-5.9,10.1C37,57.4,36,58,35,58h-5c-2.6,0-2.9-3.9-0.3-4.2c0.2,0,0.3,0,0.5,0
		c1.1,0,4.1-0.6,4.6-1.6l3.1-6.9c0,0-2.9-4.3-6.1-4.9"/>
	<path fill="none" stroke="#000000" stroke-width="2" stroke-linecap="round" stroke-linejoin="round" stroke-miterlimit="10" d="
		M57.3,33.1c0,0,3,6.7-9.1,12.1c0,0,0.1,5.7-1.3,11c-0.3,1-1.2,1.6-2.2,1.4l-3.3,0"/>
	<path fill="none" stroke="#000000" stroke-width="2" stroke-linecap="round" stroke-linejoin="round" stroke-miterlimit="10" d="
		M51,50c1,3,6,4.2,8,4l0.1,2.8c0,1.3,1.2,2.4,2.5,2.3l0,0c1-0.1,2-0.7,2.1-1.7C64,54,63,50,63,50c-9.7-1.8-9.3-7.2-9.3-7.2"/>
</g>
</svg>
