<svg id="emoji" viewBox="0 0 72 72" xmlns="http://www.w3.org/2000/svg">
  <g id="color">
    <path fill="#6a462f" d="m17.8856,21.0752l-.2041.3763c-.5882,1.0845-1.4576,1.9906-2.5169,2.6231l-5.2653,3.1439s-4.0991,3.4124-3.7536,4.6981c.174.6475.4054,1.3613.5923,1.9103.1872.55.3278,1.1104.4182,1.6843.1342.8525.4422,2.1861,1.0982,2.7351.5.4185,1.4422.3,2.2593.0769,1.3027-.3556,2.6324-.6031,3.9812-.6661l.6014-.0281.4577-.0142c1.0553-.0328,2.107.1411,3.0961.5107,5.9704,2.231,5.5246,2.1336,5.8485,2.2044.7635.1667,2.1724,1.5073,2.1724,1.5073,0,0-.4167,2.7282,0,3.737.4167,1.0089,1.2734,5.1857,1.2734,5.1857l-.8227,4.0732,1.6454,2.0833s3.18-.0069,3.3155-1.5989l1.0051,2.0195,2.4235-.3976.7191-1.5272.399-7.183,1.9584-4.7014s1.5.7085,2.25,1.0069c.4139.1647,2.1036.1476,3.5349.0992,1.3888-.0469,2.7524-.3828,4.0081-.978l2.3126-1.0961,3.655,3.6086-.1854,4.8619-.3369,3.5493.5224,1.3659,1.3309.6716,2.2822-.6716,1.1272-10.8603-.8331-3.2397s4.3089-9.7208,3.2373-12.7833c-.7663-2.1899-5.2765-4.9907-7.7847-6.4091-1.0177-.5755-2.0822-1.0474-3.189-1.4239l-6.6658-2.2676c-.5952-.2025-1.1917-.3815-1.8002-.5394-2.4073-.6249-8.7749-2.2219-11.7153-2.4224-3.0279-.2064-9.294,2.9231-11.3853,4.0198-.4536.2379-.8229.6052-1.0671,1.0554Z"/>
    <path fill="#3f3f3f" d="m22.0044,38.2464s8.7917,6.2119,16.8333,4.1286l-1.8638,5.3524c-.2499.7177-.3958,1.4675-.4331,2.2265l-.2169,4.4065c-.0657,1.3352-1.0105,2.4642-2.3132,2.7642h0c-.5702.1313-1.167-.0547-1.5615-.4868l-.6319-.692s-1.3082,1.2625-3.0501.9709c-.7664-.1283-1.2681-.7325-1.5898-1.369-.4317-.8541-.4691-1.8547-.1784-2.7664l.3654-1.1461c.4311-1.3522.4574-2.801.0754-4.168h0c-.3898-1.3949-1.0252-2.7071-1.8824-3.8746-1.3113-1.7859-3.2056-4.4429-3.553-5.3463Z"/>
    <path fill="#3f3f3f" d="m59.0877,38.875s-6.7083-.125-7.7083,2.5833c-.6,1.625.5888,2.9957,1.6358,3.8323.8042.6425,1.2417,1.6379,1.1188,2.6599l-.3231,2.6861c-.0099.0823-.0164.165-.0195.2478l-.128,3.4167c-.0217.5793.1952,1.1421.6,1.557h0c.4663.4779,1.1308.7076,1.7927.6198h0c1.2267-.1628,2.2304-1.0567,2.5335-2.2565l.4324-1.7114c.0437-.173.072-.3495.0846-.5274l.5002-7.0796c.015-.2125.0075-.426-.0223-.637l-.6218-4.391.125-1Z"/>
    <path fill="#3f3f3f" d="m23.3377,21.6875s-5.5,5.5,1.5625,8.6875l3.0442-2.1875s1.0808-3.6875,1.0808-3.9375-.2581-3.3907-.2581-3.3907l-1.1169-.3593-4.3125,1.1875Z"/>
  </g>
  <g id="line">
    <path fill="none" stroke="#000" stroke-linecap="round" stroke-linejoin="round" stroke-width="2" d="m8.9874,37.6522s2.0168,1.435,4.2662-.1551l3.1083.2228c1.2161.0872,2.411-.3521,3.2811-1.2061l3.2672-3.2067"/>
    <path fill="none" stroke="#000" stroke-linecap="round" stroke-linejoin="round" stroke-width="2" d="m13.5926,33.272c-.862-.6593-1.3426-2.5845-.4667-4.2095"/>
    <path fill="none" stroke="#000" stroke-linecap="round" stroke-linejoin="round" stroke-width="2" d="m15.2316,32.2225c-2.6899,2.3456-8.1684,2.5269-8.1684,2.5269l-.9175-2.4814c1.2128-4.971,10.6373-9.1597,10.6373-9.1597l.8422-2.227c4.6223-3.7209,9.9561-5.1271,16.0675-4.0947,0,0,22.6884,2.9476,27.5312,12.1651,0,0,1.5911,2.3191-2.9684,12.8941l.8349,3.2467-.6967,9.7954c-.0693.9744-.88,1.7295-1.8569,1.7295h-.8575c-1.0976,0-1.957-.9448-1.8533-2.0375l.7712-8.1238-3.6699-4.2393s-2.0681,3.983-9.5452,1.5783"/>
    <path fill="none" stroke="#000" stroke-linecap="round" stroke-linejoin="round" stroke-width="2" d="m23.8161,22.5654l3.7744-1.6828c.4668-.1173.9199.2224.9441.7031.1034,2.0556.2325,7.379-3.8398,7.7668"/>
    <path fill="none" stroke="#000" stroke-linecap="round" stroke-linejoin="round" stroke-width="2" d="m22.2409,38.4064c5.7778,1.9598,6.5262,2.4823,8.5566,4.3669l1.6928,7.755-.4077,4.7893c-.0925,1.0865.7645,2.0195,1.8549,2.0195h.4326c1.0539,0,1.903-.8717,1.8602-1.9248-.1416-3.4875.0316-10.8589,3.5901-14.8514"/>
    <path fill="none" stroke="#000" stroke-linecap="round" stroke-linejoin="round" stroke-width="2" d="m27.6225,45.5745c.4154,1.9173.6969,4.7358-.4188,8.2036-.344,1.0692.4357,2.1677,1.5588,2.1677h.0046"/>
    <path fill="none" stroke="#000" stroke-linecap="round" stroke-linejoin="round" stroke-width="2" d="m64.5713,31.0769c.5566,1.0204,1.515,6.2151-.4484,7.4211-1.9634,1.2059.5892,3.3395.5892,3.3395"/>
  </g>
</svg>
