<svg id="emoji" viewBox="0 0 72 72" xmlns="http://www.w3.org/2000/svg">
  <g id="color">
    <path fill="#d0cfce" d="m10.0813,17.6765l-2.338,2.0423c-.1185.1035-.224.2211-.3141.3501l-2.2616,3.2373c-.2276.3258-.3497.7137-.3497,1.1112v.5944c0,.7869.4752,1.4959,1.2031,1.7948l.9466.3888c.3244.1332.6788.1761,1.0255.124l3.0418-.457c.7678-.1153,1.5305.2381,1.9387.8986l1.0913,1.7654c.1161.1878.1992.3939.246.6097l.4727,2.1832c.0488.2256.1344.4351.2579.6301.3157.4988,1.028,1.4892,2.1915,2.3978.5394.4213.8448,1.1126.7301,1.7873-.1184.6968.0412,1.6684,1.261,2.6425.3623.2893.6063.7073.6864,1.1639l.2745,1.5651c.1417.8076.7756,1.439,1.5838,1.5773l.9733.1666c1.0058.1722,1.7064,1.094,1.603,2.1092l-1.1536,11.3248c-.0854.8389.1835,1.6753.7419,2.3071l.1887.2136c.8725.9873,2.1957,1.4499,3.4933,1.2214l1.4815-.2609c.3644-.0642.7337-.0965,1.1037-.0965h.0818c.6809,0,1.312-.3569,1.6629-.9404h0c.2592-.4311.3904-.927.3782-1.4299l-.2635-10.8484c-.0292-1.2006,1.0282-2.1391,2.2169-1.9676l1.596.2302c.0595.0086.1194.0144.1795.0174l4.8651.245c.1683.0085.337-.005.5019-.0401l3.4296-.7306c.1556-.0331.3146-.047.4735-.0413l2.6919.0961c.1474.0053.2949-.0063.4397-.0344l4.8951-.952c.7927-.1542,1.5981.1988,2.022.8862l2.0908,3.3905c.1883.3054.2883.6571.2888,1.0159l.012,9.0233c.0005.3453.0931.6843.2683.9818h0c.5492.9329,1.7557,1.2359,2.6806.6733l.122-.0742c.505-.3072.8425-.828.9166-1.4145l1.1241-8.8965c.0392-.3099.0029-.6248-.1057-.9177l-1.0289-2.7757c-.0437-.118-.0759-.2399-.096-.3642l-.7931-4.8962c-.0595-.3672-.0122-.7438.1363-1.0848l1.3332-3.0622c.1412-.3243.191-.6809.1442-1.0315l-.3486-2.6093c-.0286-.2143-.0212-.4319.0219-.6438l.5735-2.8188c.1379-.6779-.0955-1.378-.6127-1.8375l-1.3047-1.1591c-.1366-.1214-.2554-.2614-.3528-.416l-1.1419-1.8118c-.2979-.4727-.7852-.7941-1.337-.8818l-1.9796-.3146c-.209-.0332-.4111-.1004-.5983-.1988l-2.4139-1.2689c-.4082-.2146-.8794-.2768-1.3292-.1754l-3.3837.7621c-.3557.0801-.7269.0584-1.0708-.0627l-1.9982-.7036c-.2852-.1004-.5899-.1328-.8898-.0946l-2.838.3617c-.1879.024-.3782.0188-.5651-.0125-.7983-.1339-3.1584-.4697-4.8671-.0935-.3667.0807-.7447.0296-1.0922-.1127-1.0642-.4357-3.3466-1.2085-4.7109-.4841-.209.1109-.4198.2064-.6558.2229-1.0301.0724-4.0652.3154-5.6359.7596-.5364.1517-1.1059.0767-1.5718-.2294-.2324-.1527-.5226-.3008-.8698-.4009-.9578-.2762-1.5485-1.2374-1.3642-2.217l.1364-.7254c.1111-.5907-.0488-1.2031-.4539-1.6471-.8622-.9449-2.6218-2.2255-5.1825-.9714-1.4599.715-2.559.8592-3.2153.8571-.4888-.0015-.9627.1561-1.3309.4777Z"/>
    <path fill="#fff" d="m10.1449,18.6246s3.3375-.0334,5.2965,2.4184c.373.4669.8936.7934,1.4786.9154l.1687.0352c.8823.184,1.7966-.1065,2.4109-.766h0c.5769-.6194.8127-1.4828.6307-2.3095l-.1808-.8212c-.26-1.1809-1.3064-2.022-2.5156-2.022h-1.3788c-.1998,0-.399.0233-.5934.0693l-3.1649.7493c-.234.0554-.4591.1433-.6688.2612l-1.483,1.47Z"/>
    <path fill="#fff" d="m19.1101,23.177c.1266,1.7578-.0224,5.6657-3.518,7.429-.5624.2837-.8989.8782-.8134,1.5022l.2133,1.5561c.0708.5167.4133.9558.8972,1.1504l.8621.3466c.6192.249.9891.8879.8967,1.5489l-.1108.7924c-.0719.514.1359,1.0274.5452,1.3466l1.1333.8839c.3529.2752.5592.6978.5592,1.1454v.8515c0,.6697.4534,1.2606,1.1045,1.4173,1.5658.3768,4.3872,1.2509,5.7071,2.8766.5137.6328,1.4149.79,2.0542.2844,1.1161-.8828,2.6268-1.753,3.3638-.7535l2.6139.7262c.2526.0702.5196.0707.7725.0014l2.2777-.6238c.248-.0679.5096-.0688.7581-.0025l2.5604.6831c.1221.0326.248.0491.3744.0491h3.2001c.0728,0,.1456-.0055.2176-.0164l5.173-.7839c.1388-.021.2735-.0228.4124-.003.808.1153,3.8877.444,4.302-1.1681,0,0,2.1783-2.1984,4.3961-1.7763.9441.1797,1.8018-.5776,1.7254-1.5356h0c-.019-.2378.0209-.4766.1161-.6954l1.4698-3.376c.1057-.2427.143-.5097.108-.7722l-.3666-2.7444c-.0284-.2129-.0093-.4295.056-.6341l.5371-1.6821c.1553-.4863.0439-1.0184-.2934-1.4015l-1.9774-2.2464c-.0978-.1111-.178-.2365-.2379-.3718l-1.0501-2.3722c-.1994-.4505-.6137-.7693-1.1003-.8466l-2.1468-.3411c-.1564-.0249-.3077-.0751-.4479-.1488l-2.6587-1.3976c-.2966-.1559-.638-.2045-.9663-.1375l-3.2611.6655c-.2072.0423-.4211.0388-.6269-.0102l-2.7926-.6649c-.2584-.0615-.5288-.051-.7816.0304l-1.6148.52c-.2687.0865-.5567.0929-.8289.0183l-2.1494-.5887c-.1786-.0489-.3649-.0632-.5489-.0422l-3.3084.3786c-.2634.0301-.53-.0124-.771-.1229l-1.7853-.8192c-.2857-.1311-.6062-.166-.9135-.0994l-2.1637.4689c-.2382.0516-.4855.0425-.7192-.0266l-2.7988-.8269c-.3303-.0976-.6846-.0746-.9996.0648l-2.2307.9876c-.4832.2139-1.0221.1166-1.4655-.1708-.3918-.2539-1.0412-.4034-2.0632.0363-.5726.2464-.9417.8193-.8969,1.4411Z"/>
  </g>
  <g id="line">
    <path fill="none" stroke="#000" stroke-linecap="round" stroke-linejoin="round" stroke-width="2" d="m23.0574,22.9291s3.6604-3.4572,6.1926-.8662c0,0,4.3429-1.8549,6.5.4371,0,0,3.8325-1.7757,6.0833.4167,0,0,3.5093-2.5403,6.4167.25,0,0,4.25-2.5,7.4167.4167,0,0,4.5833-1,4.6237,3.8016,0,0,3.7514,2.1213,1.7819,5.8085,0,0,1.761,3.9732-1.313,7.5491,0,0-.0759,4.7775,1.6838,7.043.4358.5611.5798,1.2965.4908,2.0014l-1.301,10.2965c-.1235.9776-.955,1.7106-1.9403,1.7106h0c-1.2088,0-2.1281-1.0856-1.9291-2.2779l-.0135-10.0995s-1.489-3.3059-3.0833-5c0,0-1.7853-.5603-3.3797-2.5534"/>
    <path fill="none" stroke="#000" stroke-linecap="round" stroke-linejoin="round" stroke-width="2" d="m31.5833,40.1194c.9911,1.8333.7589,6.2567.7589,6.2567v13.0923c0,1.0092-.8181,1.8274-1.8274,1.8274h0c-.9342,0-1.7179-.7046-1.817-1.6334l-.8573-8.033-.5627-4.0858c-1.5944-3.3882-4.5955-3.5875-4.5955-3.5875-3.4701-.1993-2.9074-3.7868-2.9074-3.7868-1.8197-.499-2.1331-2.1691-2.1129-3.3489.0117-.6855-.3817-1.2941-.9954-1.5999-2.5228-1.2571-2-4.7205-2-4.7205l-2.3661-3.8276c-.967-.1323-1.955-.0498-2.8468.3467-.4923.2189-1.1527.3952-1.9906.38-1.2767-.0231-2.053-.4391-2.5249-.939-.678-.7181-.686-1.8437-.1204-2.6533l2.747-3.9321,2.5327-1.9196c1.1301-.8565,2.5091-1.3201,3.9271-1.3201h.5971s5.6119-2.26,5.5628,2.2991c-.051,4.742-3.562,3.2397-3.562,3.2397"/>
    <path fill="none" stroke="#000" stroke-linecap="round" stroke-linejoin="round" stroke-width="2" d="m35.3333,45.5546s.9167.8215,2.9492-.0979c.2007.0096,4.6708,2.1931,6.3774-.1599,0,0,2.2509,1.7544,4.6893-.3384"/>
    <path fill="none" stroke="#000" stroke-linecap="round" stroke-linejoin="round" stroke-width="2" d="m24.2766,45.5546c-.0857.8158.5325,5.0353-.7205,12.9143-.1937,1.2178.7374,2.3286,1.9705,2.3286"/>
    <path fill="none" stroke="#000" stroke-linecap="round" stroke-linejoin="round" stroke-width="2" d="m64.7288,27.3849c.3751.3276,3.939-2.1638,1.313,17.468"/>
  </g>
</svg>
