<svg id="emoji" viewBox="0 0 72 72" xmlns="http://www.w3.org/2000/svg">
  <g id="color">
    <path fill="#92d3f5" d="m38.5518,28.0684c-.5098.3583-.9704.7819-1.37,1.26l-.02.02c-.0212-.0021-.0418-.0089-.06-.02-.56-.23-1.11-.55-1.74-.79-5.29-2.31-13.82-5.62-20.37-6.37-.5-2.19-.39-3.73.12-4.64.66-1.13,1.88-1.42,3.52-1.12,5.44.89,15.0799,7.9,19.92,11.66Z"/>
    <path fill="#fcea2b" d="m57.6893,31.9455c.0086,1.927-.6968,3.7888-1.98,5.2264h0l-.0792.0792h0l-.0792.0792c-.3898.4581-.8431.8581-1.3462,1.1879-.9706.7342-2.118,1.1986-3.326,1.3462-.4189.0658-.8431.0923-1.267.0792-.2665.0171-.534-.0097-.7919-.0792l-.2376.2376c-.44.4126-.9172.7837-1.4254,1.1086h0c-.1583.0792-.2375.1584-.3959.2376h0c-.5722.3186-1.1848.5583-1.8213.7126-.1584,0-.396.0792-.5544.0792-.3923.0658-.7902.0923-1.1878.0792-.2926.013-.5856-.0136-.8711-.0792h-.7127c-.4762.0797-.9175.3004-1.267.6335l-.1584.1584c-.0792.0792-.0792.1584-.1584.2376-.7899,1.0695-1.8209,1.9376-3.0092,2.534h0c-.1583.1584-.3167.2376-.4751.396-.0792,0-.0792.0792-.1584.0792h0c-.7127.5543-1.4254,1.1086-2.1381,1.5838h0c-.9601.6519-1.9656,1.2341-3.009,1.7421-3.228,1.6848-6.229,2.7513-10.3776,3.2323,0,0-.4154-.0564-.6295-.0647-2.1655.0216-3.9384-1.7164-3.96-3.8818-.0003-.0259-.0003-.0518,0-.0777-.013-.2664.0137-.5332.0792-.7918h0v-.0792c1.0496-4.5214,3.42-8.6286,6.81-11.7992.6606-.6423,1.3763-1.2254,2.1389-1.7425.2717-.2125.5635-.3982.8711-.5543.0763-.0979.1926-.1561.3167-.1584.766-.4692,1.5593-.8923,2.3757-1.267h0c1.3664-1.0362,3.0364-1.5929,4.7513-1.5838h.6335c.5112.0048,1.0197-.0755,1.5046-.2376.4719-.1692.8846-.4717,1.1878-.871.0804-.1503.1878-.2845.3168-.396.6607-.782,1.4677-1.4276,2.3757-1.9005.9618-.4916,2.0114-.7877,3.0883-.8711h1.3463c1.4998-1.6552,3.6264-2.6036,5.86-2.6132.3976-.0131.7955.0134,1.1879.0792h0c3.8045.7253,6.5607,4.0462,6.5726,7.9192Z"/>
    <path fill="#3f3f3f" d="m36.4667,46.3579c-.0792,0-.0792.0792-.1584.0792h0c-.7127.5543-1.4254,1.1086-2.1381,1.5838h0c-.9602.6518-1.9658,1.234-3.0092,1.7421-.4936-.3168-.9694-.6605-1.4254-1.0294-3.6953-2.9364-5.9461-7.3226-6.1767-12.0368-.1584-.0792-.3168-.0792-.4752-.1584l.4752-.4751c.7942-.7705,1.6409-1.4849,2.534-2.1381.8343-.6071,1.7382-1.1122,2.6924-1.5046l.7127-.2375c.2828.1865.5479.3985.7919.6335.4752.3959,1.03.871,1.4254,1.267,3.1659,3.2886,4.8779,7.7112,4.7514,12.2743Z"/>
    <path fill="#92d3f5" d="m37.1,29.3322c-.5544-.2375-1.1088-.5543-1.7422-.7919-6.3351-2.7716-17.3424-6.9686-23.9942-6.4935-3.0092.2376-5.1473,1.4255-5.5432,4.1179-.7919,5.7016,6.0975,8.394,13.3036,9.5819,1.2671.2375,2.6132.3959,3.88.5543,3.7618.3845,7.5432.5432,11.324.4751l6.0976-5.86s-.6839-.3417-1.8241-.8963c-.436-.1982-.9352-.4262-1.5015-.6875Z"/>
  </g>
  <g id="line">
    <path fill="none" stroke="#000" stroke-linecap="round" stroke-linejoin="round" stroke-width="2" d="m15.0017,22.1684c-.5-2.27-.41-3.76.11-4.66.65-1.06,1.87-1.35,3.52-1.12,5.45.88,15.1,7.92,19.94,11.67"/>
    <path fill="none" stroke="#000" stroke-linecap="round" stroke-linejoin="round" stroke-width="2" d="m57.67,30.66l.89-.14c.961-.2262,1.9581-.2535,2.93-.08l2.3.32,2.45.39"/>
    <path fill="none" stroke="#000" stroke-linecap="round" stroke-linejoin="round" stroke-width="2" d="m38.3672,42.7944l.95,3.0883c.0911.3091.1443.6281.1584.95v2.4549c.0066.7721-.2442,1.5244-.7127,2.1381l-1.6629,2.1384"/>
    <path fill="none" stroke="#000" stroke-linecap="round" stroke-linejoin="round" stroke-width="2" d="m48.1866,40.102l.6335,1.8213c.1701.564.224,1.1567.1584,1.7422l-.3959,2.6924"/>
    <path fill="none" stroke="#000" stroke-linecap="round" stroke-linejoin="round" stroke-width="2" d="m35.5164,43.27l.1584,5.1473c.0128.2142-.014.429-.0792.6335l-.5544,3.3259c-.1426.8649-.628,1.6357-1.3462,2.1382l-1.5838,1.1878"/>
    <path fill="none" stroke="#000" stroke-linecap="round" stroke-linejoin="round" stroke-width="2" d="m44.6231,40.7355l.95,2.0589c.4753.9746.2253,2.1137-.25,3.0883l-.7127,1.5046"/>
    <path fill="none" stroke="#000" stroke-linecap="round" stroke-linejoin="round" stroke-width="2" d="m52.78,29.8074l1.1086-1.1087c1.3219-1.3951,3.0326-2.3607,4.91-2.7716l6.3351-1.4254"/>
    <path fill="none" stroke="#000" stroke-linecap="round" stroke-linejoin="round" stroke-width="2" d="m23,36.3c-3.3868,3.1735-5.7566,7.2799-6.81,11.8v.08c-.0656.2579-.0926.5242-.08.79-.0195,2.1675,1.7218,3.9405,3.8893,3.96.0236.0002.0471.0002.0707,0,.2163.0083,2.1726-.2467,2.93-.39"/>
    <path fill="none" stroke="#000" stroke-linecap="round" stroke-linejoin="round" stroke-width="2" d="m54.28,38.52c.5049-.3297.9595-.7305,1.35-1.19l.08-.08.08-.08v-.08c1.2936-1.4287,2.0007-3.2928,1.98-5.22.0023-.4055-.0311-.8104-.1-1.21-.1986-1.3496-.7506-2.6226-1.6-3.69-.07-.1-.16-.2-.24-.3-1.2277-1.4268-2.928-2.364-4.79-2.64-.393-.0661-.7917-.0929-1.19-.08-2.2339.0053-4.3618.9531-5.86,2.61h-1.35c-1.4702.1097-2.8802.6294-4.07,1.5"/>
    <path fill="none" stroke="#000" stroke-linecap="round" stroke-linejoin="round" stroke-width="2" d="m40.4217,30.8384s-1.24-.55-3.26-1.49c-.0212-.0021-.0418-.0089-.06-.02-.56-.23-1.11-.55-1.74-.79-5.29-2.31-13.82-5.62-20.37-6.37-1.2037-.1517-2.4189-.1919-3.63-.12-3.01.24-5.15,1.42-5.54,4.12-.79,5.7,6.1,8.39,13.3,9.58,1.27.24,2.62.39,3.88.55,3.7635.3885,7.5471.5488,11.33.48"/>
  </g>
</svg>
