<svg id="emoji" viewBox="0 0 72 72" xmlns="http://www.w3.org/2000/svg">
  <g id="color">
    <path fill="#9b9b9a" d="m19.7711,19.0647l-.6248.177c-1.3588.3849-2.5854,1.1364-3.5454,2.1721l-.4298.4637c-.5834.6294-1.0279,1.3745-1.3046,2.1868l-1.2872,3.7783-1.061,3.0721c-.9488,2.7473-1.4993,5.6163-1.6348,8.5196l-.0983,2.1056c-.0809,1.7347.1748,3.4687.753,5.1062l.0714.2022c.6338,1.7949,1.8212,3.3422,3.3908,4.4189l.6114.4194c1.2191.8363,2.7351,1.1179,4.1732.7752l1.059-.2524c.7718-.1839,1.424-.6974,1.7839-1.4045h0c.5676-1.1151.7429-2.389.4975-3.616l-.2173-1.0865s-2.5903-2.0797-3.4497,1.1334c-.2382.8904-1.1383,1.5096-2.0176,1.2333-.3541-.1112-.7386-.3395-1.1344-.7506-2.8968-3.008,1.3438-6.1225,1.3438-6.1225l.8403-1.1585c.4534-.6251,1.262-.871,1.9878-.6075,1.2256.4449,3.1788.9611,4.7739.4971.3136-.0912.6238.1418.6238.4683v.3289c0,1.2479.111,2.4933.3318,3.7215l1.0171,5.6579.1916,1.4312c.1035.7733-.0371,1.5596-.4023,2.2491l-.847,1.5995c-.1837.3469-.1968.7591-.0354,1.117h0c.1621.3595.5198.5905.9141.5905h4.8401c.8306,0,1.5896-.4701,1.9596-1.2137h0c.1656-.3329.2462-.6976.2332-1.0692-.0695-1.9891-.2336-8.717.6431-10.4732,1.0324-2.0681,0,0,0,0l2.58,1.0109c.9083.3559,1.8899.4842,2.8592.3738l5.1544-.5873,5.0148-.9487c3.2921.4679,5.2979,1.7727,5.3891,4.3231l.1987,2.3057c.108,1.2528-.1386,2.5107-.7114,3.6301l-.5261,1.0281c-.0218.0425-.0451.0814-.0699.1186-.4462.6698-.5322,1.5154-.1562,2.2269l.0488.0924c.5637.697,1.0447.7677,1.6283.7882.7256.0255,2.1723-.0384,2.9019-.1129.7568-.0772,2.345-.4491,2.9019-.9673.1883-.1752.4853-.5679.5965-.8383.3031-.7372.4123-1.2346.4353-2.0313l-.5228-13.0367.5228-8.9424-1.1578-3.8408c-.0444-.4517-.1928-.8869-.4334-1.2717h0c-1.755-2.8066-4.0844-5.2097-6.835-7.0512l-.1489-.0997c-4.4522-2.6162-7.1483-1.5507-9.838-.8838l-.8227.204c-1.121.278-2.2712.4208-3.426.4253h0c-2.3284.3488-4.7061-.1058-6.7416-1.2889l-.7043-.4093c-2.1508-1.2501-4.6432-1.8427-7.115-1.5616-.5039.0573-1.0135.1429-1.508.2664l-.8485.3975-1.1933.5082c-.4635.1974-.9389.3652-1.4236.5025Z"/>
    <path fill="#3f3f3f" d="m47.975,45.6551l.6483,2.3439c.0332.12.0434.2452.0302.3689l-.4197,3.9303-.155.3678-2.275,2.7488c-.0379.0965-.3121.5324-.2629.7543.3191,1.4375,1.5768,2.4775,3.0409,2.6344,1.6409.1758,4.1593.1211,4.8849.0189.8444-.1189,1.1564-1.177.51-1.7332h0c-.3775-.3248-.4549-.8794-.1808-1.2952l1.4-2.1233c.1205-.1828.177-.4003.1607-.6186l-.2962-3.9617c-.0079-.1059-.0328-.2099-.0738-.3079l-.9676-2.3152c-.0888-.2124-.2487-.3872-.4524-.4943l-2.4447-1.286c-.1129-.0594-.2362-.0964-.3631-.109l-1.7323-.1718c-.6918-.0686-1.237.5787-1.0516,1.2488Z"/>
  </g>
  <g id="line">
    <path fill="none" stroke="#000" stroke-linecap="round" stroke-linejoin="round" stroke-width="2" d="m21.2018,46.7173c1.2841,2.2998.6705,4.1675-.3068,5.0943-1.0582,1.0035-3.1239,1.4522-4.5341,1.0805-12.6453-3.3328-3.9473-25.1574-3.9473-25.1574.6152-9.2276,8.0852-8.8761,8.0852-8.8761,0,0,6.9105-4.5689,11.0186.1662,1.2299,1.4176,1.7756,3.2996,1.7197,5.1755-.0871,2.9273,2.8817,6.9577-1.6526,10.3584-1.75,1.3125-.947,5.108-4.5,5.5833,0,0-5.0918.5197-5.1797-7.4775"/>
    <path fill="none" stroke="#000" stroke-linecap="round" stroke-linejoin="round" stroke-width="2" d="m25.3153,40.5458s-.3114,2.4517,1.0948,12.4702l-1.5105,2.5977c-.5087.8748.0629,1.9876,1.0713,2.0714,1.2249.1018,3.9499.1775,5.2613.0134,1.0114-.1266,1.8256-1.0297,1.7028-2.0416-.8553-7.0462.6214-11.0302.6214-11.0302,4.6607,3.5732,11.223.1962,14.9141-.1554.7382-.0703,2.0387.1671,2.6527.3435,2.3131.6643,3.8527,2.1228,3.7945,8.5894l-1.5535,2.5634c-.4911.9067.1568,2.0371,1.1652,2.2526,1.1002.2352,4.1595-.0517,5.0685-.2525,1.7298-.382,1.6507-2.2086,1.7573-3.9768.2273-3.7699-.0975-9.0142-.3054-11.7441-.0757-.9936-.0446-1.9861.1017-2.9718.3711-2.5006,3.1904-12.548-8.1712-19.2086-6.5744-3.8542-13.1928,4.2417-20.6246-.55"/>
    <path fill="none" stroke="#000" stroke-linecap="round" stroke-linejoin="round" stroke-width="2" d="m18.1259,35.9077s.1758,10.8095-13.0066,11.1611"/>
    <path fill="none" stroke="#000" stroke-linecap="round" stroke-linejoin="round" stroke-width="2" d="m64.1336,29.8101c1.0513,2.4141,1.7681,6.2446,1.2036,12.3001"/>
    <path fill="none" stroke="#000" stroke-linecap="round" stroke-linejoin="round" stroke-width="2" d="m47.9594,45.4242l.4015,4.8512c.0638.7704-.1286,1.5402-.5457,2.1835l-.883,1.3619c-.2136.3294-.3728.8248-.464,1.3684-.2372,1.4145.847,2.7027,2.2429,2.7027h1.1233"/>
  </g>
</svg>
