<?xml version="1.0" encoding="utf-8"?>
<!-- Generator: Adobe Illustrator 21.1.0, SVG Export Plug-In . SVG Version: 6.00 Build 0)  -->
<svg version="1.1" id="emoji" xmlns="http://www.w3.org/2000/svg" xmlns:xlink="http://www.w3.org/1999/xlink" x="0px" y="0px"
	 viewBox="0 0 72 72" enable-background="new 0 0 72 72" xml:space="preserve">
<g id="_xD83D__xDC18_">
	<path fill="#9B9B9A" d="M20.7,18.2l-3.6,1.6L13,23.5l-0.4,4.3l-2.5,7.2l-0.4,9.1l1.9,5.4l4.9,3.4l4.5-1.1l1.4-2.8l-0.6-3
		c0,0-2.6-2.1-3.4,1.1c-0.2,0.9-1.1,1.5-2,1.2c-0.4-0.1-0.7-0.3-1.1-0.8c-2.9-3,1.3-6.1,1.3-6.1l1.6-2.3c0,0,4,2,6.6,0.8V43l1.3,7.5
		l0.4,2.6l-1.7,3.2l0.5,1.2h6.8l0.9-1.7c0,0-0.4-9,0.6-11c1-2.1,0,0,0,0l4,1.6l6.6-0.8l5-0.9c3.3,0.5,5.3,1.8,5.4,4.3l0.4,4.2
		l-1.7,3.3l0,1.6l5.6,0.2l2.3-1.7L61.2,41l0.1-7l-0.5-5.4l-3-4.8l-10.2-5.7L41,20.6l-6.2,0L31,18.5L26.7,17l-4.3,1.1L20.7,18.2z"/>
	<path fill="#3F3F3F" d="M47.7,44.2l1.1,3.9l-0.5,4.2l-1.7,4.3l3.7,2.2c0,0,3.6,0.2,5.2-0.7l-2.1-1.8l2.1-3.1l-0.3-4.5L54,46
		L51,44.5L47.7,44.2z"/>
	<path fill="none" stroke="#000000" stroke-width="2" stroke-linecap="round" stroke-linejoin="round" stroke-miterlimit="10" d="
		M21.2,46.7c1.3,2.3,0.7,4.2-0.3,5.1c-1.1,1-3.1,1.5-4.5,1.1c-12.6-3.3-3.9-25.2-3.9-25.2c0.6-9.2,8.1-8.9,8.1-8.9s6.9-4.6,11,0.2
		c1.2,1.4,1.8,3.3,1.7,5.2c-0.1,2.9,2.9,7-1.7,10.4c-1.8,1.3-0.9,5.1-4.5,5.6c0,0-5.1,0.5-5.2-7.5"/>
	<path fill="none" stroke="#000000" stroke-width="2" stroke-linecap="round" stroke-linejoin="round" stroke-miterlimit="10" d="
		M25.3,40.5c0,0-0.3,2.5,1.1,12.5l-1.5,2.6c-0.5,0.9,0.1,2,1.1,2.1c1.2,0.1,3.9,0.2,5.3,0c1-0.1,1.8-1,1.7-2c-0.9-7,0.6-11,0.6-11
		c4.7,3.6,11.2,0.2,14.9-0.2c0.7-0.1,2,0.2,2.7,0.3c2.3,0.7,3.9,2.1,3.8,8.6L53.4,56c-0.5,0.9,0.2,2,1.2,2.3
		c1.1,0.2,4.2-0.1,5.1-0.3c1.7-0.4,1.7-2.2,1.8-4c0.2-3.8-0.1-9-0.3-11.7c-0.1-1,0-2,0.1-3c0.4-2.5,3.2-12.5-8.2-19.2
		c-6.6-3.9-13.2,4.2-20.6-0.5"/>
	<path fill="none" stroke="#000000" stroke-width="2" stroke-linecap="round" stroke-linejoin="round" stroke-miterlimit="10" d="
		M18.1,35.9c0,0,0.2,10.8-13,11.2"/>
	<path fill="none" stroke="#000000" stroke-width="2" stroke-linecap="round" stroke-linejoin="round" stroke-miterlimit="10" d="
		M64.1,29.8c1.1,2.4,1.8,6.2,1.2,12.3"/>
	<path fill="none" stroke="#000000" stroke-width="2" stroke-linecap="round" stroke-linejoin="round" stroke-miterlimit="10" d="
		M48,45.4l0.4,4.9c0.1,0.8-0.1,1.5-0.5,2.2l-0.9,1.4c-0.2,0.3-0.4,0.8-0.5,1.4c-0.2,1.4,0.8,2.7,2.2,2.7h1.1"/>
</g>
</svg>
