<?xml version="1.0" encoding="utf-8"?>
<!-- Generator: Adobe Illustrator 19.1.0, SVG Export Plug-In . SVG Version: 6.00 Build 0)  -->
<svg version="1.1" id="emoji" xmlns="http://www.w3.org/2000/svg" xmlns:xlink="http://www.w3.org/1999/xlink" x="0px" y="0px"
	 viewBox="0 0 72 72" enable-background="new 0 0 72 72" xml:space="preserve">
<g id="_xD83D__xDC1A_">
	<path fill="#FFA7C0" d="M30,31c0,0-2,23,7,26s14-34,6-34c-6.2,0-7-1-11.7-0.3C29.9,22.8,28,22.8,26,24c-8,5,5,29,8,31"/>
	<path fill="#E67A94" d="M42,22c0,0,1-3-2-3s-7,0-7,0s-2.1-0.4-1,3"/>
	<path fill="#FFA7C0" d="M34,18c3.2-5.3,5.1,0.3,5,0"/>
	<path fill="none" stroke="#000000" stroke-width="2" stroke-linecap="round" stroke-linejoin="round" stroke-miterlimit="10" d="
		M30,31c0,0-2,23,7,26s14-34,6-34c-6.2,0-7-1-11.7-0.3C29.9,22.8,28,22.8,26,24c-8,5,5,29,8,31"/>
	<path fill="none" stroke="#000000" stroke-width="2" stroke-linecap="round" stroke-linejoin="round" stroke-miterlimit="10" d="
		M42,22c0,0,1-3-2-3s-7,0-7,0s-2.1-0.4-1,3"/>
	<path fill="none" stroke="#000000" stroke-width="2" stroke-linecap="round" stroke-linejoin="round" stroke-miterlimit="10" d="
		M34,18c3.2-5.3,5.1,0.3,5,0"/>
</g>
</svg>
