<?xml version="1.0" encoding="utf-8"?>
<!-- Generator: Adobe Illustrator 21.1.0, SVG Export Plug-In . SVG Version: 6.00 Build 0)  -->
<svg version="1.1" id="emoji" xmlns="http://www.w3.org/2000/svg" xmlns:xlink="http://www.w3.org/1999/xlink" x="0px" y="0px"
	 viewBox="0 0 72 72" enable-background="new 0 0 72 72" xml:space="preserve">
<g id="_xD83D__xDC2A__1_">
	<path fill="#F4AA41" d="M15,20.6l-8.9,1.8L4.9,25l0.9,1.2l3.1-0.3l5,1.7c0,0,3.8,11,15,9.4v4.4v14.3V59h3.9l1.5-4.9l0.6-3.6
		l8.6,6.6l2.1-1l-0.6-2.6c0,0-7.1-5.1-7-5.8c0.1-0.8,0.8-6.3,0.8-6.3s5.5-0.6,6.8-1.3c0.5-0.3,6.1-1.2,6.1-1.2s5.2,9.2-1.8,18.3
		l1.3,2.3l2.7-0.3c0,0,3.5-5.3,5.4-11.5c2.2-7.3,3-15.9,4.5-18.2l-1.1-2.8l-9-7l-3.7-3.7c0,0-5.1-1-7,0.1c-1.9,1-3.7,3.7-3.7,3.7
		s-8.8,3.3-10.6,8.4c0,0-6.4,4.6-12.5-7.1L15,20.6z"/>
	<path fill="#E27022" d="M64.6,43.5c0,0-3.1-7.6-1.5-13.2c0,0-2.4,6.2-4.6,7.3s-0.2,6.8-0.2,6.8l1.9,3.2l-1.5,5.8
		c0,0.2-0.1,0.3-0.1,0.5l-1.3,4c0,0-1.6,3.3,2.9,2.2s3.3-6.6,3.3-6.6l1.2-8.3L64.6,43.5z"/>
	<path fill="#E27022" d="M29.6,36.1l-0.8,0.5v7.2v10c0,0-0.1,5,0,5.2c0.1,0.2,4.5-0.3,4.5-0.3l0.9-4.5l0.5-4.1l-1.1-10.9L29.6,36.1z
		"/>
	<path fill="none" stroke="#000000" stroke-width="2" stroke-linecap="round" stroke-linejoin="round" stroke-miterlimit="10" d="
		M59.3,35.7c-1,1.9-2.1,4.3-1.9,5.6c0.5,2.4,1.7,6.2,1.7,6.2l-5.1,11.1c-0.3,0.7-1,1.1-1.8,1.1h0c-1.5,0-2.4-1.6-1.7-2.9
		c1.9-3.3,4.1-9.1,1.4-16.3c-0.7-1.8-0.7-3.7,0-5.5l2.5-7.1"/>
	<path fill="none" stroke="#000000" stroke-width="2" stroke-linecap="round" stroke-linejoin="round" stroke-miterlimit="10" d="
		M63.2,42.9c0.5,0.7,1.5,4.6,1.3,5.4l-2.3,9.4c-0.2,0.9-1,1.5-1.9,1.5h-2.4"/>
	<path fill="none" stroke="#000000" stroke-width="2" stroke-linecap="round" stroke-linejoin="round" stroke-miterlimit="10" d="
		M38.4,31.4l0.7,6.8l-1.1,9.6l7,5.6c0.4,0.3,0.7,0.7,0.8,1.2l0,0c0.4,1.8-1.7,3.1-3.1,2l-7.8-6.2L33.2,39l-2.9-2.6
		c-11,3.5-16.8-9.5-16.8-9.5l-5.2-1l-1.9,0.5c-0.5,0.1-1.1-0.7-1.2-1.2c-0.9-2,1.6-3.2,1.6-3.2l8.4-1.4c0.6-0.1,1.1,0.2,1.4,0.7
		c1.4,2.6,5.9,10.2,12.2,6.6c0,0,1.4-4.8,8-6.9c1.6-0.5,2.9-1.5,3.8-2.8c0.7-1,1.5-2.1,2.3-2.3c1.3-0.3,3.7-0.5,5.4-0.6
		c1,0,1.9,0.5,2.3,1.4c0.8,1.6,11.4,9.1,11.4,9.1c1.3,1.1,2,2.8,2,4.5c-0.1,2.2,0.8,6.2,2,9"/>
	<path fill="none" stroke="#000000" stroke-width="2" stroke-linecap="round" stroke-linejoin="round" stroke-miterlimit="10" d="
		M30,41.2l-1.1,16.6c-0.1,0.6,0.4,1.2,1,1.2h1.5c1.1,0,2-0.9,2-2v-2.6"/>
	<path fill="none" stroke="#000000" stroke-width="2" stroke-linecap="round" stroke-linejoin="round" stroke-miterlimit="10" d="
		M42.9,39.9c2.8-0.3,6.7-0.9,8-1.9"/>
</g>
</svg>
