<svg id="emoji" viewBox="0 0 72 72" xmlns="http://www.w3.org/2000/svg">
  <g id="color">
    <path fill="#f4aa41" d="m15.012,20.6113l-8.9258,1.8002-1.1962,2.5885.8559,1.1667,3.0919-.3333,4.9593,1.6804s3.7749,11.0061,15.0463,9.4478v22.0074h3.9148l1.4545-4.9385.6012-3.6307,8.5906,6.5854,2.1212-1.0195-.5892-2.5869s-7.0832-5.0589-6.966-5.8439.7549-6.3475.7549-6.3475l2.5523-.0066c2.5781-.2187,5.1271-.7006,7.6071-1.438l2.7675-1.043s5.1853,9.2167-1.8147,18.3209l1.3274,2.3125,2.6515-.3332s3.4672-5.3228,5.3599-11.5197c2.2364-7.322,3.0499-15.8608,4.4943-18.2303l-1.1135-2.833-9.0423-6.9512-3.6978-3.6864s-5.0878-.9774-7.0336.0591c-1.9459,1.0365-3.6959,3.6615-3.6959,3.6615,0,0-8.75,3.3226-10.625,8.4113,0,0-6.4254,4.6188-12.4627-7.0837l-.988-.2163Z"/>
    <path fill="#e27022" d="m64.1105,42.4963s-2.6468-6.5597-.9598-12.153c0,0-2.3756,6.2192-4.6256,7.2817s-.25,6.8125-.25,6.8125l1.875,3.1562-1.528,5.8123-.1498.5016-1.3321,3.9727s-.847,1.8245.3931,2.2008c1.2655.3839,4.6376.1679,5.1319-1.0024,1.3002-3.0787,2.7703-11.1728,2.7703-11.1728.0992-.6695-.4135-2.3125-.691-3.3881-.1385-.537-.303-1.0662-.4845-1.5902l-.1494-.4313Z"/>
    <path fill="#e27022" d="m29.6294,36.1306l-.786.4944v17.1666s-.1193,4.9797,0,5.1774c.1193.1976,4.5316-.2607,4.5316-.2607l.9054-4.5.4903-4.1146-1.0997-10.927-4.0416-3.0361Z"/>
  </g>
  <g id="line">
    <path fill="none" stroke="#000" stroke-linecap="round" stroke-linejoin="round" stroke-width="2" d="m59.3346,35.6722c-1.0322,1.8633-2.1378,4.2568-1.8743,5.5745.4734,2.3672,1.7162,6.2337,1.7162,6.2337l-5.0977,11.1058c-.3146.6855-.9998,1.1249-1.754,1.1249h-.0118c-1.4871,0-2.4197-1.6063-1.6706-2.8909,1.914-3.282,4.0872-9.1253,1.4405-16.3143-.6513-1.7691-.6643-3.7138-.039-5.4923l2.4968-7.1021"/>
    <path fill="none" stroke="#000" stroke-linecap="round" stroke-linejoin="round" stroke-width="2" d="m63.25,42.9349c.464.6901,1.5227,4.6182,1.3283,5.4268l-2.2703,9.4393c-.2162.8988-1.0201,1.5323-1.9445,1.5323h-2.4483"/>
    <path fill="none" stroke="#000" stroke-linecap="round" stroke-linejoin="round" stroke-width="2" d="m38.375,31.4375l.6999,6.8107-1.1374,9.5643,6.999,5.5663c.4067.2948.6875.7318.7868,1.2242l.0032.016c.3617,1.7945-1.6777,3.0917-3.1497,2.0033l-7.7629-6.2224-1.6028-11.3595-2.8949-2.607c-10.9681,3.4718-16.8162-9.5167-16.8162-9.5167l-5.25-1-1.9167.5c-.4704.0884-1.0571-.7298-1.25-1.1678-.8884-2.0178,1.5725-3.1907,1.5725-3.1907l8.3562-1.4468c.5717-.1006,1.1403.1768,1.4055.6932,1.3581,2.6452,5.9254,10.2179,12.1628,6.6068,0,0,1.4468-4.8436,8.0473-6.9487,1.5595-.4974,2.9298-1.464,3.8123-2.8426.6625-1.0349,1.5157-2.0836,2.3438-2.2815,1.2957-.3098,3.7318-.5408,5.4141-.5968.9628-.0321,1.8537.4943,2.2758,1.3603.7867,1.6141,11.4126,9.105,11.4126,9.105,1.3039,1.1445,2.0292,2.8096,1.9628,4.5432-.0857,2.2388.821,6.2497,1.9635,8.9997"/>
    <path fill="none" stroke="#000" stroke-linecap="round" stroke-linejoin="round" stroke-width="2" d="m30,41.1875l-1.1395,16.6297c-.1143.615.3576,1.1828.9832,1.1828h1.5313c1.1046,0,2-.8954,2-2v-2.5625"/>
    <path fill="none" stroke="#000" stroke-linecap="round" stroke-linejoin="round" stroke-width="2" d="m42.9495,39.9365c2.815-.282,6.6505-.8706,8.0404-1.9251"/>
  </g>
</svg>
