<svg id="emoji" viewBox="0 0 72 72" xmlns="http://www.w3.org/2000/svg">
  <g id="color">
    <path fill="#d0cfce" d="m21.7898,17.0696l-5.5522-5.5148c-1.0533-.8844-2.4639-.5512-3.8009-.2288l-.1283.0309c-.97.2339-1.6807.7571-2.2845,1.5514l-2.1754,3.2533c-.7004.9214-.6168,2.1644-.454,3.3103l.7144,5.176c.0929.6534.3338,1.2769.7043,1.823l2.9633,4.1985c.3294.4854.7539.8988,1.2479,1.2152l.6261.401c1.4585.9342,4.5319,1.7084,2.2028,5.1257l-.5496,4.2089c-.0838.5054-.0965,1.6388,0,2.1419l.8244,5.0684c.1383.7208.5985,1.8179,1.0686,2.3816l1.9236,2.1678c.4137.4961,1.0909.9638,1.678,1.2332l10.145,4.5411,3.1033,1.545c.6694.3293,1.3242.9575,2.069.9152l.7909-.0449c.5872-.0333,1.1614-.1859,1.6877-.4483l2.5888-1.291c.0691-.0344.139-.067.2098-.0977l9.785-4.2431c.3436-.149.6665-.342.9605-.574l3.1346-2.4742c.7805-.6161,2.2412-3.5271,2.4588-4.4974l.422-3.9204c.1136-.5064.1352-1.0291.0639-1.5432l-.588-7.204c-.2111-1.5212.3007-.7836,1.5053-1.7362l.7478-.5914c.3447-.2726.6458-.596.8932-.9591l3.9919-5.8605c.3464-.5086.5805-1.0851.6867-1.6913l.8908-5.0859c.1252-.7148.0688-1.4496-.164-2.137l-.9727-2.8716c-.3104-.9164-.9186-1.7024-1.7277-2.2329l-1.3523-.8866c-1.4326-.9392-2.7883-.1713-4.2277.7574l-1.3094,1.0026c-.21.1355-.4078.2889-.5914.4585l-3.8723,3.7008c-2.4911,4.0854-4.3608,1.0929-5.9372.4037l-3.1967-1.0016c-.4629-.2024-1.2561-.566-1.7604-.5979h-7.3072c-.5376-.034-7.3695,2.5222-7.3695,2.5222-1.182.5423-2.6294.6851-3.5373-.2459-.3021-.3099-.9443-.9143-1.2296-1.1539Z"/>
    <path fill="#ffa7c0" d="m60.1806,13.2168l-.3822.3024c-.2975.2353-.5511.5212-.7494.8445l-4.2829,6.9842c-.3116.5081-.4765,1.0925-.4765,1.6884v7.9029c0,.5676.1448,1.1255.4322,1.6148.0084.0144.017.0289.0256.0435,1.0318,1.7407,3.4161,2.0759,4.9202.7222l3.1217-2.8096c.2928-.2635.535-.5784.7145-.9291l2.2714-4.4377c.1755-.3429.2882-.7144.3329-1.0969l.675-5.7795c.0691-.5919-.0268-1.1914-.2773-1.7321l-.6136-1.3248c-.1479-.3193-.3469-.6123-.5893-.8673l-.7769-.8177c-1.1508-1.2112-3.0353-1.3448-4.3455-.3083Z"/>
    <path fill="#ffa7c0" d="m13.6032,13.2895l.3822.3024c.2974.2353.5511.5212.7494.8445l4.2829,6.9842c.3116.5081.4765,1.0924.4765,1.6884v7.9029c0,.5676-.1448,1.1255-.4322,1.6148-.0084.0144-.017.0289-.0256.0435-1.0318,1.7407-3.2272,1.8327-4.7313.4791l-2.9402-2.8571c-.2928-.2635-.5349-.5784-.7144-.9291l-2.1925-3.9878c-.1755-.3429-.2875-.83-.3322-1.2126l-.6926-5.7762c-.0691-.5919.0268-1.1914.2773-1.7321l.1812-1.3716c.1479-.3193.3469-.6122.5893-.8673l.7769-.8177c1.1508-1.2112,3.0353-1.3449,4.3455-.3083Z"/>
  </g>
  <g id="line">
    <circle cx="26.7818" cy="38.6203" r="3"/>
    <line x1="37" x2="37" y1="54.469" y2="57.491" fill="none" stroke="#000" stroke-linecap="round" stroke-linejoin="round" stroke-width="2"/>
    <path fill="none" stroke="#000" stroke-linecap="round" stroke-linejoin="round" stroke-width="2" d="m42.0616,59.9329l10.4088-4.5136c10.5713-5.4638,5.345-20.6675,5.345-20.6675,4.3948-1.7817,6.8394-6.0914,6.8394-6.0914,6.3409-12.3194-.2162-16.7439-3.6864-18.1503-1.0579-.4287-2.2666-.1795-3.0757.6257l-8.3325,7.6996c-8.3737-4.9392-16.7472-4.9392-25.1207,0l-8.3325-7.6996c-.809-.8052-2.0178-1.0544-3.0757-.6257-3.47,1.4064-10.027,5.8309-3.6862,18.1503,0,0,2.4446,4.3097,6.8394,6.0914,0,0-5.2263,15.2037,5.345,20.6675l10.4088,4.5136c2.7411,2.534,7.3824,2.5339,10.1233,0Z"/>
    <path fill="none" stroke="#000" stroke-linecap="round" stroke-linejoin="round" stroke-width="2" d="m13.4527,14.728s8.077,3.8724,5.2263,16.5211"/>
    <circle cx="47.2182" cy="38.6203" r="3"/>
    <path fill="none" stroke="#000" stroke-linecap="round" stroke-linejoin="round" stroke-width="2" d="m60.5473,14.728s-8.077,3.8724-5.2263,16.5211"/>
    <path d="m34.449,50.265c1.4173-.2612,3.1422-.4049,4.971-.1656,1.8102.2369,2.6036,1.9215,1.4716,3.0418l-1.9003,1.8806c-.9386.9289-2.7309.9772-3.7505.1011l-2.0222-1.7375c-1.2421-1.0671-.5736-2.788,1.2304-3.1204Z"/>
  </g>
</svg>
