<svg id="emoji" viewBox="0 0 72 72" xmlns="http://www.w3.org/2000/svg">
  <g id="color">
    <path fill="#e27022" d="m17.2664,9.4484c-2.2128,1.2003-6.1636,2.8238-2.7257,8.8503.032.0561.0428.118.0676.1775.2278.5461,1.794,3.2955,2.1979,4.6025.3666,1.1865,1.7313,3.5509.7591,4.3238-7.7768,6.1825-2.3401,18.3573-2.3054,18.564,0,0,1.1513,2.4232,1.4107,2.7585,1.0185,1.3167,3.9016,4.6299,7.4386,5.097.4914.0649.6838-.3208,1.8208,1.6158.5515.9394,2.0166,3.7339,2.7202,4.0622.3445.1608,3.8822,2.9634,7.3959,3.0138,3.7503.0538,7.4794-2.6501,7.4794-2.6501.2691-.1266.5135-.2939.7223-.5056.615-.6236,1.85-2.0743,2.0594-3.8457.0473-.4004.2622-1.4184,1.5591-1.5786,1.281-.1583,3.6727-2.4157,5.6826-3.7313,2.7682-1.8119,3.1394-3.9265,3.8407-6.2607,2.5489-8.4834.0741-14.6741-2.7719-16.4916-.202-.129-.1674-.3495-.1887-.3734,0,0-.541-.5331.9716-4.3353.5149-1.2944,2.1469-4.5539,2.1469-4.5539l1.1219-2.6993c.2634-.6258.2283-1.9729-.0242-2.6032,0,0-.3983-1.4657-2.6451-2.8347,0,0-2.9665-2.3221-5.2063.8387l-3.3727,3.5092c-.7585.8013-1.9371,1.0287-2.9425.5743-1.9286-.8718-5.1615-2.125-7.5131-1.9651-2.6113.1776-7.3177,1.3987-9.6491,2.0394-.8703.2392-1.7949.0032-2.45-.6178l-4.7358-4.664c-.571-.5413-2.1726-.692-2.8642-.3168Z"/>
    <path fill="#fff" d="m38.3377,29.5055s4.1875,3.7873,4.5,8.1312c0,0,4,3.7631,5.9375-1.9828l2.8125-6.4229s-1.9316-3.5892-8.125-3.7797l-5.125,4.0542Z"/>
    <path fill="#fff" d="m33.8458,29.5293s-3.0706,3.8199-3.3831,8.1638c0,0-4,3.7631-5.9375-1.9828l-4.125-6.4793s2.3691-4.0405,8.5625-4.231l4.8831,4.5293Z"/>
    <path fill="#fff" d="m52.2127,33.5c0,.3125.125,12-11.0625,13.375,0,0-6.625-2.125-10.625.375,0,0-11.4375-4.3125-10.9375-13.875l-.1875,5.8125c-1.4367,1.1319-4.8271-3.8841-.6458-13.0208-5.2301,3.4846-5.9625,16.141-2.4792,22.0208,0,0,3.5,5.75,9.3125,5.9375,0,0,3.5,4.4375,10.3125,1.1875,0,0,5.625,3.625,10.5-1.375,0,0,6.2313.7549,9.5625-6.1959,0,0,4.09-15.5926-2.2083-21.6582,0,0,3.3333,13.5417-1.2292,13.1667l-.3125-5.7501Z"/>
    <path fill="#d0cfce" d="m25.5896,55s1.3523,3.2822,3.0606,4.5c0,0,3.5644,1.456,6.0606,2.1833,1.1656.3396,2.4015.3075,3.5512-.0826l5.6382-1.9132s2.6875-1.5208,2.4375-4.6875c0,0-6.75,2.5-10.1667.1667,0,0-6.3075,2.0547-10.5814-.1667Z"/>
    <path fill="#e27022" d="m31.5044,47.0833s3.5,2.75,9.0833.0833l-.25,2.6667-4.4167,1.8333-3.9167-1-.4999-3.5833Z"/>
  </g>
  <g id="line">
    <path d="m47.3393,34.6182s.0607,2.3422-1.2037,3.1596c-1.2644.8174-3.3752-.1996-3.3752-.1996,0,0-.0607-2.3422,1.2037-3.1596s3.3752.1996,3.3752.1996Z"/>
    <path d="m25.9305,34.6182s-.0607,2.3422,1.2037,3.1596c1.2644.8174,3.3752-.1996,3.3752-.1996,0,0,.0607-2.3422-1.2037-3.1596s-3.3752.1996-3.3752.1996Z"/>
    <path fill="none" stroke="#000" stroke-linecap="round" stroke-linejoin="round" stroke-width="2" d="m24.1981,47.3666s-1.6667,12.7083,11.9583,7.5833v-3.3438"/>
    <path fill="none" stroke="#000" stroke-linecap="round" stroke-linejoin="round" stroke-width="2" d="m21.2398,28.4916c-.1667.3333-4.6667,9.1667.9167,16.25"/>
    <path fill="none" stroke="#000" stroke-linecap="round" stroke-linejoin="round" stroke-width="2" d="m22.1549,23.2401c-4.6652,2.7745-12.117,9.7821-5.2485,24.1265"/>
    <path fill="none" stroke="#000" stroke-linecap="round" stroke-linejoin="round" stroke-width="2" d="m27.3231,48.9916s-11.1667.75-12.75,6.8333"/>
    <path fill="none" stroke="#000" stroke-linecap="round" stroke-linejoin="round" stroke-width="2" d="m28.9064,52.1582c-.25.1667-10.3333,5.75-8.5833,10.6667"/>
    <path fill="none" stroke="#000" stroke-linecap="round" stroke-linejoin="round" stroke-width="2" d="m29.5766,59.1521c1.9799,2.0495,7.4123,6.3778,13.517.1296"/>
    <path fill="none" stroke="#000" stroke-linecap="round" stroke-linejoin="round" stroke-width="2" d="m17.4898,22.3249c-7.9284-9.061-3.0759-11.6581-.2234-12.8765.9417-.4022,2.0253-.2705,2.8642.3168l5.7994,6.0597s9.3237-6.3941,20.14,0l5.7994-6.0597c.8389-.5872,1.9225-.719,2.8642-.3168,2.9293,1.3038,7.705,3.8155-.2234,12.8765"/>
    <path fill="none" stroke="#000" stroke-linecap="round" stroke-linejoin="round" stroke-width="2" d="m40.7186,47.7416s1,2.875-3.4167,3.625h-2.6038c-4.4167-.75-3.4167-3.625-3.4167-3.625"/>
    <path fill="none" stroke="#000" stroke-linecap="round" stroke-linejoin="round" stroke-width="2" d="m47.8019,47.3666s1.6667,12.7083-11.9583,7.5833v-3.5833"/>
    <path fill="none" stroke="#000" stroke-linecap="round" stroke-linejoin="round" stroke-width="2" d="m50.7602,28.4916c.1667.3333,4.6667,9.1667-.9167,16.25"/>
    <path fill="none" stroke="#000" stroke-linecap="round" stroke-linejoin="round" stroke-width="2" d="m49.8832,23.2628c4.6675,2.7899,12.0602,9.7983,5.2104,24.1037"/>
    <path fill="none" stroke="#000" stroke-linecap="round" stroke-linejoin="round" stroke-width="2" d="m44.6769,48.9916s11.1667.75,12.75,6.8333"/>
    <path fill="none" stroke="#000" stroke-linecap="round" stroke-linejoin="round" stroke-width="2" d="m43.0936,52.1582c.25.1667,10.3333,5.75,8.5833,10.6667"/>
    <path fill="none" stroke="#000" stroke-linecap="round" stroke-linejoin="round" stroke-width="2" d="m29.5766,24.1069s7.0776-3.3333,13.1833.4167"/>
    <path fill="none" stroke="#000" stroke-linecap="round" stroke-linejoin="round" stroke-width="2" d="m31.5208,29.2864s4.9901-3.3333,9.2949.4167"/>
  </g>
</svg>
