<svg id="emoji" xmlns="http://www.w3.org/2000/svg" viewBox="0 0 72 72">
  <g id="color">
    <path fill="#FCEA2B" stroke="#FCEA2B" stroke-width="2" stroke-miterlimit="10" d="M51.989,51.91 C63,43,53.7604,34.196,53.7604,34.196c0-13.0876-10.032-17.4726-15.2722-18.8704c-1.9297-0.5147-3.9633-0.5083-5.88,0.053 C17.1418,19.9076,18.3325,34.196,18.3325,34.196C10,44,19.4396,51.4671,19.4396,51.4671S36.0464,66.0812,51.989,51.91"/>
    <path fill="#F1B31C" d="M36.7052,38.8074c0,0,10.4746-0.5149,0,9.2687C36.7052,48.076,26.2306,38.8074,36.7052,38.8074z" stroke="none"/>
  </g>
  <g id="hair"/>
  <g id="skin"/>
  <g id="skin-shadow"/>
  <g id="line">
    <line fill="none" stroke="#000000" stroke-width="2" stroke-linecap="round" stroke-linejoin="round" stroke-miterlimit="10" x1="31.3965" y1="15.5963" x2="26.968" y2="12.2749"/>
    <line fill="none" stroke="#000000" stroke-width="2" stroke-linecap="round" stroke-linejoin="round" stroke-miterlimit="10" x1="34.0536" y1="14.4892" x2="32.2822" y2="10.725"/>
    <line fill="none" stroke="#000000" stroke-width="2" stroke-linecap="round" stroke-linejoin="round" stroke-miterlimit="10" x1="37.5964" y1="15.1534" x2="37.8178" y2="9.3964"/>
    <circle cx="28.9608" cy="32.4246" r="3" fill="#000000" stroke="none"/>
    <circle cx="44" cy="32" r="3" fill="#000000" stroke="none"/>
    <path fill="none" stroke="#000000" stroke-width="2" stroke-linecap="round" stroke-linejoin="round" stroke-miterlimit="10" d="M51.989,51.91C63,43,53.7604,34.196,53.7604,34.196c0-13.0876-10.032-17.4726-15.2722-18.8704 c-1.9297-0.5147-3.9633-0.5083-5.88,0.053C17.1418,19.9076,18.3325,34.196,18.3325,34.196C10,44,19.4396,51.4671,19.4396,51.4671 S36.0464,66.0812,51.989,51.91"/>
    <path fill="none" stroke="#000000" stroke-width="2" stroke-linecap="round" stroke-linejoin="round" stroke-miterlimit="10" d="M36.7052,38.8074c0,0,10.4746-0.5149,0,9.2687C36.7052,48.076,26.2306,38.8074,36.7052,38.8074z"/>
  </g>
</svg>
