<svg id="emoji" viewBox="0 0 72 72" xmlns="http://www.w3.org/2000/svg">
  <g id="color">
    <path fill="#fcea2b" d="m25.2143,36.3299c1.2659,2.4576,2.0766,6.0273,1.1466,11.0493-.1711.9241-.5658,1.8021-1.1774,2.5156-.8871,1.0349-2.1394,2.1946-2.2737.6823-.2101-2.3671,2.7077-6.2436-1.6203-12.2319-3.1554-4.3658-4.384-7.6141-4.384-7.6141l1.3924.3202c2.9593.6805,5.5258,2.5791,6.9163,5.2786Z"/>
    <path fill="#61b2e4" d="m17.6875,19.0625s13.1478-1.8668,15.2103-1.0536,17.0185,21.3663-1.4898,37.27c0,0,.092-3.7789-.908-5.7789s-1.75-3.875-.375-4.9375-3.3634,3.1875-3.3634,3.1875c0,0-1.3944-12.5467-4.3944-15.5467l5.8935,3.3461s3.2393-8.0495,2.2393-11.0495-3.625-5.875-12.8125-5.4375Z"/>
    <path fill="#61b2e4" d="m44.5071,23.3149c4.8883,5.451,11.6479,19.6212-1.2262,32.1868-.282.2752-.3795.6606-.384,1.0546-.0104.9204-1.6691,2.3046-1.6691,2.3046,21.7369-6.2593,14.7136-30.274,11.4868-32.7264-.3058-.2324-.4429-.614-.7938-.77-.9298-.4135-3.628-4.3936-5.9234-4.7821-1.5304-.259-2.5265,1.5769-1.4902,2.7325Z"/>
    <path fill="#fcea2b" d="m53.3947,29.1554c4.1891,10.1345,2.4448,15.7111,2.4448,15.7111,0,0-.2911-2.8084,6.4931-4.8044.4344-.1278.5296-.7003.1519-.9502-1.5375-1.0175-4.3456-3.2037-5.236-6.0797-1.2484-4.0324-3.8538-3.8768-3.8538-3.8768Z"/>
    <path fill="#f1b31c" d="m34.5728,18.0089s14.0671,22.0723-3.5728,39.9911l10.454-.5514c17.6585-17.0276,3.1603-37.4406,3.1603-37.4406,0,0-5.4687-2.9903-10.0415-1.9991Z"/>
    <path fill="#92d3f5" d="m49,39.7431s-4.4523-12.9405-7.7915-9.7054c-3.3392,3.2351-1.789,8.0166-.9044,9.7054,0,0,.0873,1.2787,5.5047,2.2569"/>
  </g>
  <g id="line">
    <path fill="none" stroke="#000" stroke-linecap="round" stroke-linejoin="round" stroke-width="2" d="m13,20s35.5-12.25,44.75,14.375c0,0,1.25,4.625,6.25,3.625,0,0-2,2,0,3,0,0-4.5-1-6.75,2.5s-1.25,10.5-16.25,16.5h0c.6448-.9672-.219-2.2288-1.3514-1.9661-2.6933.6246-6.671,1.1026-10.6487-.0339,0,0,3.5-5.5,1.25-8.75s-.25-5.25-.25-5.25c0,0-4,9-8,8,0,0,2.5-7.5.25-11.25s-7.25-10.75-6.25-10.75,8,1,12,5c0,0,2-5.5,2.5-8.25s1.5-8.75-17.5-6.75Z"/>
    <path fill="none" stroke="#000" stroke-linecap="round" stroke-linejoin="round" stroke-width="2" d="m48,39s-4-12-7-9-1.8069,7.45-.7042,9.5144c.3465.6487-.0299.6714,4.8372,1.5785"/>
    <path fill="none" stroke="#000" stroke-linecap="round" stroke-linejoin="round" stroke-width="2" d="m33.5728,18.0089s14.5212,21.521-3.1188,39.4397"/>
    <path fill="none" stroke="#000" stroke-linecap="round" stroke-linejoin="round" stroke-width="2" d="m44.6143,20.008s14.0984,20.5735-3.56,37.6011"/>
    <path fill="none" stroke="#000" stroke-linecap="round" stroke-linejoin="round" stroke-width="2" d="m54.0669,50.5597s3.3113-14.2907-.8778-24.4252"/>
    <path fill="none" stroke="#000" stroke-linecap="round" stroke-linejoin="round" stroke-width="2" d="m20.7477,31.0566s8.9354,6.0382,5.4487,18.6186"/>
  </g>
</svg>
