<?xml version="1.0" encoding="utf-8"?>
<!-- Generator: Adobe Illustrator 19.1.0, SVG Export Plug-In . SVG Version: 6.00 Build 0)  -->
<svg version="1.1" id="emoji" xmlns="http://www.w3.org/2000/svg" xmlns:xlink="http://www.w3.org/1999/xlink" x="0px" y="0px"
	 viewBox="0 0 72 72" enable-background="new 0 0 72 72" xml:space="preserve">
<g id="_xD83D__xDC2E__1_">
	<path fill="#FFFFFF" d="M15,10v3l6,4l-1,8l2,8l-1,8l2,8l3,2l1,7c0,0,0,4,3,5s7,2,7,2l6-2c0,0,4-4,4-6s0-5,0-5l3-7l1-13l1-6l-2-9
		l4-1l3-4V9l-9,2l-5-2l-8-2l-6,2l-4,2L15,10z"/>
	<path fill="#A57939" d="M67,16.5l-5.6,0.4l-7.3,2.5l-2.9,1.3c0,0-10.4,1.5-10.2,7.3c0,0-0.5,3.6,2,6.1c1.9,2,3,4.6,2.5,7.3
		c-0.3,1.8-1.3,3.5-3.5,4.6l0,0l0,0l3.6,1.3l1.6,4.4c0,0,2.2-0.7,3.5-4.1c0,0,1-5.9,0.9-6.1c-0.1-0.2-0.4-6.1-0.4-6.1l-0.3-2.1
		l1.5-1.2l6.1-1.6l4.8-3.3l2.9-5L67,16.5z"/>
	<path fill="#A57939" d="M5,16.5l5.6,0.4l7.3,2.5l2.9,1.3c0,0,10.4,1.5,10.2,7.3c0,0,0.5,3.6-2,6.1c-1.9,2-3,4.6-2.5,7.3
		c0.3,1.8,1.3,3.5,3.5,4.6l0,0l0,0l-3.6,1.3l-1.6,4.4c0,0-2.2-0.7-3.5-4.1c0,0-1-5.9-0.9-6.1s0.4-6.1,0.4-6.1l0.3-2.1l-1.5-1.2
		l-6.1-1.6l-4.8-3.3l-2.9-5L5,16.5z"/>
	<polygon fill="#F4AA41" points="27.9,45.3 25.6,52.4 26.2,57.7 28,57.8 36.4,57.2 45.4,58.2 47,56.6 47.3,50.9 44.9,46.3 34.8,46 	
		"/>
	<path d="M26.2,31.1c0,0-3-0.2-3.8-1c-0.8-0.8-0.8-2,0-2.8c0.8-0.8,2-0.8,2.8,0C25.9,28,26.2,31.1,26.2,31.1z"/>
	<path fill="none" stroke="#000000" stroke-width="2" stroke-linecap="round" stroke-linejoin="round" stroke-miterlimit="10" d="
		M19.6,26.2l2-9.2c0,0-7.7-0.6-6.5-7.4c0,0,10,3.3,12.8,0.5c0,0,6.2-6.7,16.2,0c3.3,2.2,12.8-0.5,12.8-0.5c1.2,6.8-6.5,7.4-6.5,7.4
		l2,9.2"/>
	<path fill="none" stroke="#000000" stroke-width="2" stroke-linecap="round" stroke-linejoin="round" stroke-miterlimit="10" d="
		M28.5,46h15.7c0.3,0,0.5,0.1,0.7,0.3c0.8,1,3.1,4.3,2.1,10.3c-0.2,1-1.2,1.7-2.2,1.6c-3.5-0.6-11.3-1.8-16.8-0.3
		c-1.1,0.3-2.2-0.5-2.3-1.6c-0.3-2.5-0.3-6.6,2-9.9C27.9,46.1,28.2,46,28.5,46z"/>
	<path fill="none" stroke="#000000" stroke-width="2" stroke-linecap="round" stroke-linejoin="round" stroke-miterlimit="10" d="
		M29.9,50.3c0,0-0.7,2.9,3.2,2.9"/>
	<path fill="none" stroke="#000000" stroke-width="2" stroke-linecap="round" stroke-linejoin="round" stroke-miterlimit="10" d="
		M29.1,61.5c0,0,6.3,7.9,13.8,0.3"/>
	<path fill="none" stroke="#000000" stroke-width="2" stroke-linecap="round" stroke-linejoin="round" stroke-miterlimit="10" d="
		M17.5,20.2c-3.1-2-7.4-4.6-12.4-3.3c0,0-1.5,14,15.4,15.5l1.2,0.9c0,0-2.3,8.9,1.3,16.1"/>
	<path d="M45.9,31c0,0,3-0.2,3.8-1c0.8-0.8,0.8-2,0-2.8c-0.8-0.8-2-0.8-2.8,0C46.1,28,45.9,31,45.9,31z"/>
	<path fill="none" stroke="#000000" stroke-width="2" stroke-linecap="round" stroke-linejoin="round" stroke-miterlimit="10" d="
		M43.2,50.2c0,0,0.7,2.9-3.2,2.9"/>
	<path fill="none" stroke="#000000" stroke-width="2" stroke-linecap="round" stroke-linejoin="round" stroke-miterlimit="10" d="
		M54.8,20c3-1.9,7.3-4.4,12.2-3.2c0,0,1.5,14-15.4,15.5l-1.2,0.9c0,0,2.5,8-1,15.2"/>
</g>
</svg>
