<svg id="emoji" viewBox="0 0 72 72" version="1.1" xmlns="http://www.w3.org/2000/svg">
  <g id="color">
    <path fill="#e27022" stroke-width="0" d="M44.956,34.0234c2.5121-1.0397.2346-3.9508.2346-3.9508,5-7,4.9701-10.1194,4-14-1-4-5-6-5-6,0,0,9,2,13,7,2.8804,3.6005,1.6124,8.2381.677,10.5522-.2985.7384-.6823,1.4299-1.1301,2.0885-.7969,1.1719-1.8823,3.3531-1.5469,4.3594.5,1.5,4,2,8-3,0,0-3.4586,7.4586-6.5,10.5-3,3-5.5,4.5-5.5,4.5,0,0,1.5,2.5,5.5.5,0,0-5,6-9,7,0,0-2,1-5,0,0,0-1.0563,8.2777-5.0563,10.2777,0,0,2.9313-7.4623-.4549-14.1827-.5359-1.0635-1.5056-1.0484-2.0684.0011-2.54,4.7367-.4767,14.1816-.4767,14.1816-4-2-5.0683-10.4632-5.0683-10.4632-3,1-5,0-5,0-4-1-9-7-9-7,4,2,5.5-.5,5.5-.5,0,0-2.5-1.5-5.5-4.5-3.0414-3.0414-6.5-10.5-6.5-10.5,4,5,7.5,4.5,8,3,.3354-1.0062-.75-3.1875-1.5469-4.3594-.4478-.6586-.8316-1.3501-1.1301-2.0885-.9355-2.314-2.2034-6.9516.677-10.5522,4-5,13-7,13-7,0,0-4,2-5,6-.9701,3.8806-1,7,4,14,0,0-2.7462,5.4923,2.2712,5.9673.7245.0686,1.4783-.1201,2.0124-.6144.7409-.6858,1.3277-2.0746.2164-4.8529-2-5,3-7,1-8s-2.7071-3.7071-2-3c1,1,7,0,9,1s4.7889,5.8944,3,5c-2.0121-1.0061-3.0121-1-4.0182.0183-1.3585,1.3749-1.2361,3.7274.1307,5.0942l2.711,2.711c.9338.9338,2.3462,1.3179,3.5665.8129h0Z"/>
    <path fill="#d22f27" stroke-width="0" d="M41.3895,33.2105s1.7388,1.6581,1.7388,4.6581-3,6-5,7-3,1-2-1,3-3,2-5-7.5574-2.2574-6.7787-3.6287c.4985-.8779,1.3277-2.0746.2164-4.8529-2-5,3-7,1-8s-2.7071-3.7071-2-3c1,1,7,0,9,1s4.7889,5.8944,3,5c-2.0121-1.0061-3.0121-1-4.0182.0183-1.3585,1.3749-1.2361,3.7274.1307,5.0942l2.711,2.711"/>
  </g>
  <g id="line">
    <path fill="none" stroke="#000" stroke-linecap="round" stroke-linejoin="round" stroke-width="2" d="M21.066,45.887s-2.5-1.5-5.5-4.5c-2.7946-2.7946-5.9414-9.3186-6.4337-10.359"/>
    <path fill="none" stroke="#000" stroke-linecap="round" stroke-linejoin="round" stroke-width="2" d="M29.566,53.387c-3,1-5,0-5,0-4-1-9-7-9-7"/>
    <path fill="none" stroke="#000" stroke-linecap="round" stroke-linejoin="round" stroke-width="2" d="M37.6343,63.8502s2.9313-7.4623-.4549-14.1827c-.5359-1.0635-1.5056-1.0484-2.0684.0011-2.5394,4.7355-.4777,14.177-.4767,14.1816"/>
    <path fill="none" stroke="#000" stroke-linecap="round" stroke-linejoin="round" stroke-width="2" d="M56.6906,46.5726s-5,6-9,7c0,0-2,1-5,0"/>
    <path fill="none" stroke="#000" stroke-linecap="round" stroke-linejoin="round" stroke-width="2" d="M63.1906,31.0726s-3.4586,7.4586-6.5,10.5c-3,3-5.5,4.5-5.5,4.5"/>
    <path fill="none" stroke="#000" stroke-linecap="round" stroke-linejoin="round" stroke-width="2" d="M44.1906,10.0726s9,2,13,7c2.8804,3.6005,1.6124,8.2381.677,10.5522-.2985.7384-.6823,1.4299-1.1301,2.0885-.7969,1.1719-1.8823,3.3531-1.5469,4.3594"/>
    <path fill="none" stroke="#000" stroke-linecap="round" stroke-linejoin="round" stroke-width="2" d="M32.566,22.387c-2-1-2.7071-3.7071-2-3,1,1,7,0,9,1s4.7889,5.8944,3,5c-2.0121-1.0061-3.0121-1-4.0182.0183-1.3585,1.3749-1.2361,3.7274.1307,5.0942l3.4497,3.3691"/>
    <path fill="none" stroke="#000" stroke-linecap="round" stroke-linejoin="round" stroke-width="2" d="M17.066,33.887c.3354-1.0062-.75-3.1875-1.5469-4.3594-.4478-.6586-.8316-1.3501-1.1301-2.0885-.9355-2.314-2.2034-6.9516.677-10.5522,4-5,13-7,13-7"/>
  </g>
</svg>
