<?xml version="1.0" encoding="utf-8"?>
<!-- Generator: Adobe Illustrator 19.1.0, SVG Export Plug-In . SVG Version: 6.00 Build 0)  -->
<svg version="1.1" id="emoji" xmlns="http://www.w3.org/2000/svg" xmlns:xlink="http://www.w3.org/1999/xlink" x="0px" y="0px"
	 viewBox="0 0 72 72" enable-background="new 0 0 72 72" xml:space="preserve">
<g id="_xD83D__xDC2B__1_">
	<path fill="#F4AA41" d="M18.1,16l-11,1.8l-2.6,3.5l1.3,1.8l3.1-0.2l3.2,1c0,0,0.4,2.7,0.4,4.4c0,0,0.9,2.6,1.1,3.2
		s1.4,8.2,13.3,6.6c0,0,2.7-0.3,3.2,7.3c0.5,7.5,1.2,9.4,0,12.8l0.7,2.6l2.9,0l1.5-1.4l0.4-17.6v-1c0,0,2.5,2.8,5.6,1.7l5.9-0.3
		l8.3-2.9l2,5.2l2.5,6l-1.4,8.3l0.9,1.7h2.2l1.6-0.4c0,0,1.4-10.8,1.4-11.1c0-0.2-2.8-18.8-2.8-18.8l-4.9-4.9l-4-8.9l-3.8-0.8
		l-1.6,0.8l-1.9,4.5c0,0-1.2,1.5-1.5,1.5c-0.3,0-4-1.1-4-1.1l-1.8-5.7H33l-1.2,2.6l-2.1,4.7l-5.6,3.8l-3,0.6l-0.2-2.8l0.4-4.3
		l-1.1-3.7L18.1,16z"/>
	<path fill="#E27022" d="M50.7,40.6c0,0,1.6,3.7,1.9,6.2c0.4,2.4-0.4,5.8-0.5,6.1s-1.8,6-1.8,6l2.9,1.5l1.4,0.7c0,0,1.4-0.3,2-3
		c0.2-0.9,1.1-8.7,1.1-8.7l0.6-3L56.2,40l-1-1.6L50.7,40.6z"/>
	<path fill="none" stroke="#000000" stroke-width="2" stroke-linecap="round" stroke-linejoin="round" stroke-miterlimit="10" d="
		M53.8,29.2c0,0,0.4,10.6,5.1,18.5c0.8,1.3,1,2.8,0.5,4.3l-1,6c-0.4,1.3,0.5,2.6,1.9,2.6l0.7,0c1,0,1.8-0.7,2-1.6
		c0.5-2.6,0.7-7,1.3-9.1c0.2-0.7,0.2-1.4,0-2.1c-0.8-2.8-1.9-12-2.3-16.3c-0.2-1.4-0.9-2.7-2-3.6l-1.1-0.8c-1.7-1.3-3.1-2.9-4.2-4.7
		l-2.2-5.6c-0.4-0.8-2.3-1.2-3.2-1.2h-0.3c-0.9,0-1.7,0.6-2,1.4c-0.5,1.5-1.2,3.6-2.2,4.5c-1,0.9-2.7,0.6-3.9,0.4
		c-0.8-0.2-1.3-0.8-1.5-1.5l-1-3.7c-0.2-0.7-0.8-1.2-1.5-1.3c-1.2-0.2-3-0.3-3.6,0.2c-0.9,0.8-1.2,2.5-1.9,4.3
		c-0.5,1.3-1.3,2.4-2.4,3.3c-3.2,2.6-9.6,7.2-8,1.2c2-7.5-2.7-8.4-2.7-8.4L7.2,18.4c0,0-3,1.4-2,3.9c0.2,0.6,1,1,1.6,0.8l2-0.4
		c0,0,3,1.9,6.4,0.6"/>
	<path fill="none" stroke="#000000" stroke-width="2" stroke-linecap="round" stroke-linejoin="round" stroke-miterlimit="10" d="
		M52.7,43.9l0.4,2c0.7,3.4-2.6,10.8-2.6,10.8c-0.8,1.3,0,2.9,1.5,3.1l1.8,0.1"/>
	<path fill="none" stroke="#000000" stroke-width="2" stroke-linecap="round" stroke-linejoin="round" stroke-miterlimit="10" d="
		M13.3,27.2c0,0-1.1,8.3,5.7,10.8c0,0,2.9,0.9,5.5,0.1c1.8-0.6,3.9,0.2,4.6,1.9l0,0.1c0.1,0.3,0.9,5.1,1.4,7.9
		c0.2,1.4,0.3,2.8,0.1,4.2l-0.7,6.3c-0.1,1.2,0.8,2.2,2,2.2l0.9,0c1.1,0,2-0.9,2-2v-10c0,0-0.7-7.3,1.8-11.5"/>
	<path fill="none" stroke="#000000" stroke-width="2" stroke-linecap="round" stroke-linejoin="round" stroke-miterlimit="10" d="
		M38.7,41.7c2,0.6,8.1,1.6,12-1c0,0,2.8-1.8,4.5-1.5"/>
	<path fill="none" stroke="#000000" stroke-width="2" stroke-linecap="round" stroke-linejoin="round" stroke-miterlimit="10" d="
		M64.8,31.9c0.4,0.1,1.7,2,1.8,10.6"/>
</g>
</svg>
