<?xml version="1.0" encoding="utf-8"?>
<!-- Generator: Adobe Illustrator 19.1.0, SVG Export Plug-In . SVG Version: 6.00 Build 0)  -->
<svg version="1.1" id="emoji" xmlns="http://www.w3.org/2000/svg" xmlns:xlink="http://www.w3.org/1999/xlink" x="0px" y="0px"
	 viewBox="0 0 72 72" enable-background="new 0 0 72 72" xml:space="preserve">
<g id="_xD83D__xDC2F_">
	<path fill="#E27022" d="M19.4,9.2c0,0-8.3-0.8-4.8,9.2c0,0,2.5,6.1,4.8,7.4c0,0-9.4,6.4-3.7,18.6l0.6,3.9c0,0,3.8,5.6,8.5,5.7
		l1.8,1.6c0,0,1.2,3.6,2.1,4c0.9,0.4,5.4,3,5.4,3l4.4-0.3l5.5-2.6c0,0,2.4-2.1,2.4-4.7l1-1.4c0,0,6.2-1.2,8.6-5.9l1.9-7.1v-4.5
		l-0.4-2.9l-2.3-5.8l-1.6-1.8c0,0,1.3-2.2,2-3.3c0.7-1.1,2.3-4.7,2.3-4.7l1.4-3.3l-1.4-3.5l-4-1.5l-2.4,0.9l-5.4,5.7
		c0,0-5.6-3-9.2-2.8c-3.6,0.2-11,2.4-11,2.4L19.4,9.2z"/>
	<path fill="#FFFFFF" d="M38.3,29.5c0,0,4.2,3.8,4.5,8.1c0,0,4,3.8,5.9-2l2.8-6.4c0,0-1.9-3.6-8.1-3.8L38.3,29.5z"/>
	<path fill="#FFFFFF" d="M33.8,29.6c0,0-3.1,3.8-3.4,8.1c0,0-4,3.8-5.9-2l-4.1-6.5c0,0,2.4-4,8.6-4.2L33.8,29.6z"/>
	<path fill="#FFFFFF" d="M52.2,33.5c0,0.3,0.1,12-11.1,13.4c0,0-6.6-2.1-10.6,0.4c0,0-11.4-4.3-10.9-13.9l-0.2,5.8
		c-1.4,1.1-3.7-4-0.6-13c-5.2,3.5-6,16.1-2.5,22c0,0,3.5,5.8,9.3,5.9c0,0,3.5,4.4,10.3,1.2c0,0,5.6,3.6,10.5-1.4
		c0,0,7.2-0.8,9.6-6.2c0,0,5.2-15.2-2.2-21.7c0,0,3.3,13.5-1.2,13.2L52.2,33.5z"/>
	<path fill="#D0CFCE" d="M26.5,55.5c0,0,0.8,4.2,3.6,4.9l5.7,2.2l4.8-0.9l3.4-2.1c0,0,2.7-1.5,2.4-4.7c0,0-6.8,2.5-10.2,0.2
		C36.2,55.2,30.4,57.3,26.5,55.5z"/>
	<path fill="#E27022" d="M31.5,47.1c0,0,3.5,2.8,9.1,0.1l-0.2,2.7l-4.4,1.8l-3.9-1L31.5,47.1z"/>
	<path d="M47.3,34.6c0,0,0.1,2.3-1.2,3.2c-1.3,0.8-3.4-0.2-3.4-0.2s-0.1-2.3,1.2-3.2S47.3,34.6,47.3,34.6z"/>
	<path d="M25.9,34.6c0,0-0.1,2.3,1.2,3.2c1.3,0.8,3.4-0.2,3.4-0.2s0.1-2.3-1.2-3.2S25.9,34.6,25.9,34.6z"/>
	<path fill="none" stroke="#000000" stroke-width="2" stroke-linecap="round" stroke-linejoin="round" stroke-miterlimit="10" d="
		M24.2,47.4c0,0-1.7,12.7,12,7.6v-3.3"/>
	<path fill="none" stroke="#000000" stroke-width="2" stroke-linecap="round" stroke-linejoin="round" stroke-miterlimit="10" d="
		M21.2,28.5c-0.2,0.3-4.7,9.2,0.9,16.2"/>
	<path fill="none" stroke="#000000" stroke-width="2" stroke-linecap="round" stroke-linejoin="round" stroke-miterlimit="10" d="
		M22.2,23.2C17.5,26,10,33,16.9,47.4"/>
	<path fill="none" stroke="#000000" stroke-width="2" stroke-linecap="round" stroke-linejoin="round" stroke-miterlimit="10" d="
		M27.3,49c0,0-11.2,0.8-12.7,6.8"/>
	<path fill="none" stroke="#000000" stroke-width="2" stroke-linecap="round" stroke-linejoin="round" stroke-miterlimit="10" d="
		M28.9,52.2c-0.2,0.2-10.3,5.8-8.6,10.7"/>
	<path fill="none" stroke="#000000" stroke-width="2" stroke-linecap="round" stroke-linejoin="round" stroke-miterlimit="10" d="
		M29.6,59.2c2,2,7.4,6.4,13.5,0.1"/>
	<path fill="none" stroke="#000000" stroke-width="2" stroke-linecap="round" stroke-linejoin="round" stroke-miterlimit="10" d="
		M17.5,22.3c-7.9-9.1-3.1-11.7-0.2-12.9c0.9-0.4,2-0.3,2.9,0.3l5.8,6.1c0,0,9.3-6.4,20.1,0l5.8-6.1c0.8-0.6,1.9-0.7,2.9-0.3
		c2.9,1.2,7.7,3.8-0.2,12.9"/>
	<path fill="none" stroke="#000000" stroke-width="2" stroke-linecap="round" stroke-linejoin="round" stroke-miterlimit="10" d="
		M40.7,47.7c0,0,1,2.9-3.4,3.6h-2.6c-4.4-0.8-3.4-3.6-3.4-3.6"/>
	<path fill="none" stroke="#000000" stroke-width="2" stroke-linecap="round" stroke-linejoin="round" stroke-miterlimit="10" d="
		M47.8,47.4c0,0,1.7,12.7-12,7.6v-3.6"/>
	<path fill="none" stroke="#000000" stroke-width="2" stroke-linecap="round" stroke-linejoin="round" stroke-miterlimit="10" d="
		M50.8,28.5c0.2,0.3,4.7,9.2-0.9,16.2"/>
	<path fill="none" stroke="#000000" stroke-width="2" stroke-linecap="round" stroke-linejoin="round" stroke-miterlimit="10" d="
		M49.9,23.3c4.7,2.8,12.1,9.8,5.2,24.1"/>
	<path fill="none" stroke="#000000" stroke-width="2" stroke-linecap="round" stroke-linejoin="round" stroke-miterlimit="10" d="
		M44.7,49c0,0,11.2,0.8,12.8,6.8"/>
	<path fill="none" stroke="#000000" stroke-width="2" stroke-linecap="round" stroke-linejoin="round" stroke-miterlimit="10" d="
		M43.1,52.2c0.2,0.2,10.3,5.8,8.6,10.7"/>
	<path fill="none" stroke="#000000" stroke-width="2" stroke-linecap="round" stroke-linejoin="round" stroke-miterlimit="10" d="
		M29.6,24.1c0,0,7.1-3.3,13.2,0.4"/>
	<path fill="none" stroke="#000000" stroke-width="2" stroke-linecap="round" stroke-linejoin="round" stroke-miterlimit="10" d="
		M31.5,29.3c0,0,5-3.3,9.3,0.4"/>
</g>
</svg>
