<?xml version="1.0" encoding="utf-8"?>
<!-- Generator: Adobe Illustrator 19.1.0, SVG Export Plug-In . SVG Version: 6.00 Build 0)  -->
<svg version="1.1" id="emoji" xmlns="http://www.w3.org/2000/svg" xmlns:xlink="http://www.w3.org/1999/xlink" x="0px" y="0px"
	 viewBox="0 0 72 72" enable-background="new 0 0 72 72" xml:space="preserve">
<g id="_xD83D__xDC25_">
	<ellipse fill="#FCEA2B" stroke="#FCEA2B" stroke-width="2" stroke-miterlimit="10" cx="36" cy="43" rx="15" ry="11"/>
	<path fill="none" stroke="#000000" stroke-width="2" stroke-linecap="round" stroke-linejoin="round" stroke-miterlimit="10" d="
		M23,49c0,0,4.8,5,13.5,5C45,54,49,49,49,49"/>
	<path fill="#FCEA2B" d="M42.2,36c2,9,9,9,9,9c2-6-6-11-6-11c7-6,1-10,1-10c0-10-10.4-11-10.4-11c-10.4,2-9.6,11-9.6,11
		c-6,4,0.6,9.8,0.6,9.8S19.2,38,21.2,45c0,0,8,0,8-9"/>
	
		<line fill="none" stroke="#000000" stroke-width="2" stroke-linecap="round" stroke-linejoin="round" stroke-miterlimit="10" x1="33.6" y1="13.5" x2="31.1" y2="11.6"/>
	
		<line fill="none" stroke="#000000" stroke-width="2" stroke-linecap="round" stroke-linejoin="round" stroke-miterlimit="10" x1="35.1" y1="12.9" x2="34.1" y2="10.8"/>
	
		<line fill="none" stroke="#000000" stroke-width="2" stroke-linecap="round" stroke-linejoin="round" stroke-miterlimit="10" x1="37.1" y1="13.2" x2="37.2" y2="10"/>
	
		<polyline fill="none" stroke="#000000" stroke-width="2" stroke-linecap="round" stroke-linejoin="round" stroke-miterlimit="10" points="
		31.3,53.7 30.4,58.2 27.2,60 	"/>
	
		<line fill="none" stroke="#000000" stroke-width="2" stroke-linecap="round" stroke-linejoin="round" stroke-miterlimit="10" x1="33.2" y1="59" x2="30.2" y2="58"/>
	
		<polyline fill="none" stroke="#000000" stroke-width="2" stroke-linecap="round" stroke-linejoin="round" stroke-miterlimit="10" points="
		40.2,53.7 41.1,58.2 44.2,60 	"/>
	
		<line fill="none" stroke="#000000" stroke-width="2" stroke-linecap="round" stroke-linejoin="round" stroke-miterlimit="10" x1="38.2" y1="59" x2="41.2" y2="58"/>
	<circle cx="32.2" cy="23" r="2"/>
	<circle cx="40.2" cy="23" r="2"/>
	<path fill="#F1B31C" d="M36.6,26.6c0,0,5.9-0.3,0,5.2C36.6,31.8,30.7,26.6,36.6,26.6z"/>
	<path fill="none" stroke="#000000" stroke-width="2" stroke-linecap="round" stroke-linejoin="round" stroke-miterlimit="10" d="
		M36.4,26.6c0,0,5.9-0.3,0,5.2C36.4,31.8,30.5,26.6,36.4,26.6z"/>
	<path fill="none" stroke="#000000" stroke-width="2" stroke-linecap="round" stroke-linejoin="round" stroke-miterlimit="10" d="
		M42,36c2,9,9,9,9,9c2-6-6-11-6-11c7-6,1-10,1-10c0-10-10.4-11-10.4-11C25.2,15,26,24,26,24c-6,4,0.6,9.8,0.6,9.8S19,38,21,45
		c0,0,8,0,8-9"/>
</g>
</svg>
