<?xml version="1.0" encoding="utf-8"?>
<!-- Generator: Adobe Illustrator 21.1.0, SVG Export Plug-In . SVG Version: 6.00 Build 0)  -->
<svg version="1.1" id="emoji" xmlns="http://www.w3.org/2000/svg" xmlns:xlink="http://www.w3.org/1999/xlink" x="0px" y="0px"
	 viewBox="0 0 72 72" enable-background="new 0 0 72 72" xml:space="preserve">
<g id="_xD83D__xDC3A__1_">
	<path fill="#9B9B9A" d="M53.2,6.2l-6.2,6c0,0-5.9-3.1-12-3.1s-10.8,3-10.8,3l-6.8-6l-3.2-0.4l-3,3.7L9.7,17c0,0-0.1,9.8,2.5,11.6
		s-2,13.2-2,13.2l3.4,6.8l8,5.6l2.8,1.9c0,0,3.3,7.6,11,5.6c0,0,5.8,3.5,10.4-5.5l2.5-1.5l6.4-3.6l6-8.1c0,0-3.2-10.8-2.5-14.2
		s2.9-9.5,2.6-11.2s-2-8.6-2-8.6S56.8,4.1,53.2,6.2z"/>
	<path fill="#3F3F3F" d="M12.4,45.5c0,0,4.1-10.2,10.2-10l7.6-0.4l2.2,3.2c0,0,1,5.7-0.7,9.5c-0.3,0.7,0.3,1.5,1,1.4
		c1.1-0.2,2.5-0.2,4.1,0.1c0.8,0.1,1.4-0.6,1.1-1.3c-0.7-2-1.4-5.4-0.6-9.8l2.8-2.9l3.8,0.2l3.5,0.6c0,0,9.5-2,9.9,10.2l2.7-3.9
		l-2.5-12.2l1-2.6l2-7.5l-1.1-8.9l-2.8-5.2L52.7,6l-4.4,5.2l-1.7,0.7L41.3,10l-9.2-0.7l-8.4,2.8l-6-6.8l-3.6-0.2l-3.5,5.7l-0.8,6.9
		l1.2,6.9l1.6,3.7l-0.8,6.8l-2,6.5L12.4,45.5z"/>
	<path fill="#3F3F3F" d="M29.5,53c0,0,4.4-2.6,11.2,0.1l0.1,0.8l-2.2,1.5l-0.9,1.6c0,0-1.3,1.2-2,1c-0.7-0.2-3-1.1-3-1.1l-0.8-1.6
		L29.2,54l0.1-0.9"/>
	<path fill="#9B9B9A" d="M55.3,8.7c0,0,5.2,8.6,0.8,17.5c0,0-4.4-6.5-7.9-6.4C48.1,19.8,55.2,15.6,55.3,8.7z"/>
	<path fill="#9B9B9A" d="M14.7,8.7c0,0-5.2,8.6-0.8,17.5c0,0,4.4-6.5,7.9-6.4C21.9,19.8,14.8,15.6,14.7,8.7z"/>
	<path fill="#9B9B9A" d="M29.2,62.1c0.1,2.4,0.9,4.2,2.7,4.9h6.6c2.1-0.7,2.5-2.5,2.3-4.7L29.2,62.1"/>
	<circle cx="26.2" cy="40.3" r="2"/>
	<circle cx="44.3" cy="40.5" r="2"/>
	<path fill="none" stroke="#000000" stroke-width="2" stroke-linecap="round" stroke-linejoin="round" stroke-miterlimit="10" d="
		M29.3,54l2.4,1.4c0,0,0.5,3,3.3,2.7v3.6c0,0-3.5,1.8-6.3-0.5c-2.2-1.8-3.6-4.7-3.6-4.7"/>
	<path fill="none" stroke="#000000" stroke-width="2" stroke-linecap="round" stroke-linejoin="round" stroke-miterlimit="10" d="
		M21.7,53.3c-3.8-1.1-6.3-3.1-7.8-5.5l-4-5.5c2.8-7.1,2.6-14.1,2.6-14.1c-4.7-8.7-1.6-17.5-1.6-17.5c2.5-8.3,6.8-5,6.8-5
		c3,5.2,9.9,8.9,9.9,8.9"/>
	<path fill="none" stroke="#000000" stroke-width="2" stroke-linecap="round" stroke-linejoin="round" stroke-miterlimit="10" d="
		M15.6,9.2c0,0,0.4,7.5,7.3,10.4c0,0-6.7,1.7-7.8,6.3"/>
	<path fill="none" stroke="#000000" stroke-width="2" stroke-linecap="round" stroke-linejoin="round" stroke-miterlimit="10" d="
		M54.9,9.2c0,0-0.4,7.5-7.3,10.4c0,0,6.7,1.7,7.8,6.3"/>
	<path fill="none" stroke="#000000" stroke-width="2" stroke-linecap="round" stroke-linejoin="round" stroke-miterlimit="10" d="
		M30.9,40.5c0,0,2.7-4.4-1.2-5.7c-2.8-0.9-6.2,1.1-6.2,1.1"/>
	<path fill="none" stroke="#000000" stroke-width="2" stroke-linecap="round" stroke-linejoin="round" stroke-miterlimit="10" d="
		M35.3,61.7c0,0,3.5,1.8,6.3-0.5c2.2-1.8,3.6-4.7,3.6-4.7"/>
	<path fill="none" stroke="#000000" stroke-width="2" stroke-linecap="round" stroke-linejoin="round" stroke-miterlimit="10" d="
		M40.7,54l-2.8,1.4c0,0-0.2,3-2.9,2.7"/>
	<path fill="none" stroke="#000000" stroke-width="2" stroke-linecap="round" stroke-linejoin="round" stroke-miterlimit="10" d="
		M42.8,15c0,0,6.8-3.8,9.9-8.9c0,0,4.2-3.2,6.8,5c0,0,3.1,8.8-1.6,17.5c0,0-0.1,7.3,2.6,13.8l-4.7,6.7c-1.6,2-3.9,3.7-7.2,4.6"/>
	<path fill="none" stroke="#000000" stroke-width="2" stroke-linecap="round" stroke-linejoin="round" stroke-miterlimit="10" d="
		M39.3,40.9c0,0-2.7-4.4,1.2-5.7c2.8-0.9,6.2,1.1,6.2,1.1"/>
	<path fill="none" stroke="#000000" stroke-width="2" stroke-linecap="round" stroke-linejoin="round" stroke-miterlimit="10" d="
		M24.7,11.5c0,0,8-5.6,21.4,0"/>
	<path fill="none" stroke="#000000" stroke-width="2" stroke-linecap="round" stroke-linejoin="round" stroke-miterlimit="10" d="
		M31.4,65.9c2.7,1.5,5.3,1.4,7.8,0"/>
</g>
</svg>
