<?xml version="1.0" encoding="utf-8"?>
<!-- Generator: Adobe Illustrator 21.1.0, SVG Export Plug-In . SVG Version: 6.00 Build 0)  -->
<svg version="1.1" id="emoji" xmlns="http://www.w3.org/2000/svg" xmlns:xlink="http://www.w3.org/1999/xlink" x="0px" y="0px"
	 viewBox="0 0 72 72" enable-background="new 0 0 72 72" xml:space="preserve">
<g id="_xD83D__xDC3F__xFE0F_">
	<path fill="#A57939" d="M21.6,15.1l-2.2,3.6l-4.2,2l-4.5,5.4l-1.5,4.5l1.5,3l4.2,0.4l5.9-1.1c0,0,1.5,0.4,2,2.5
		c0.7,2.4-1.5,3.4-1.9,3.5s-4,0-4,0l-5.6,0.5l-0.6,3.8l0.9,1.4c0,0,3.5,0.8,5-0.4s5,0.9,5,0.9l4.9,0.6c0,0-2.3,4.4-0.5,6.6
		s-1.5,2.9-1.5,2.9L22,57.3L21.3,59l1.1,2l3.4,0.2l1.6,1.1l1.2,0.4l1.4,0.3l7.5-1.9l6.2-0.2l3.1-1.6c0,0,1.1-2.4,1.2-2.8
		s2.2-8,2.2-8v-8.2l-1-6.5L47,29.6l-4.4-4l-7-2.6c0,0-5.1-0.5-5.6-0.8s-4-1.8-4-1.8l-1.2-3.8L23,14.5h-1.4V15.1z"/>
	<path fill="#A57939" d="M37.5,23.7v-3.2c0,0,2.6-7.7,2.7-7.9c0.1-0.2,3.7-4.5,3.7-4.5l3.9-1.4L54,7l7.1,6.1l2.5,2.8
		c2.3,10.7-13.7,10.5-11.5,1.6c-2.6,6.5,1.4,10.1,6.2,13.7l4.2,5.4l0.2,4.8l-1.6,5.8c0,0-3.4,3.9-4.5,4.3c-1.1,0.4-7.4,2.8-7.4,2.8
		l1.2-8.2l0.1-6.2l-1.3-4.6l-1.1-3.7L45,27.7l-4.3-2.9L37.5,23.7z"/>
	<path fill="#D0CFCE" d="M34,23.2c-0.5,0.4-2,3.8-0.3,4.5s4.7,2.4,4.7,2.4l4.5,5l1.8,4.8v7.9l-1,4.6c0,0,1.5,5.2,5.1,1.9
		c3.5-3.3,0.5,0,0.5,0l1.8-9.8l-1.8-9.3l-1.8-4.8l-4.9-4.9L34,23.2z"/>
	<g>
		<path fill="none" stroke="#000000" stroke-width="2" stroke-linecap="round" stroke-linejoin="round" stroke-miterlimit="10" d="
			M20.4,32.5c-3,2.2-6.6,2-8.8,1.5C10,33.6,9,32,9.3,30.4c0.3-1.2,0.9-2.9,2-5.1c3.1-6.5,8.4-6.5,8.4-6.5c0.4-1,1.9-3.7,3-4.2
			c0,0,7.1,7.4,1,11.3"/>
		<path fill="none" stroke="#000000" stroke-width="2" stroke-linecap="round" stroke-linejoin="round" stroke-miterlimit="10" d="
			M11.7,43.6c-1.8-0.7-2.8-6.6,6.7-4.5c0.6,0.1,1.6,0.2,2.2,0.1c1.8-0.5,5.6-0.6,5.6-4.6"/>
		<path fill="none" stroke="#000000" stroke-width="2" stroke-linecap="round" stroke-linejoin="round" stroke-miterlimit="10" d="
			M34.1,35.1c0.1,0.1,4.6,9.9-3.1,10.4s-13.8-2-13.8-2"/>
		<path fill="none" stroke="#000000" stroke-width="2" stroke-linecap="round" stroke-linejoin="round" stroke-miterlimit="10" d="
			M30.1,49.4c0,0-1.1,4,1.9,7l-2.8,0.8c-1.3,0.4-2.4,1.3-3,2.6v0c-0.5,1,0,2.2,1,2.6c1.6,0.6,4.3,0.9,8.1-1.1c0,0,9.3,2.6,12.4-3.9
			c0,0,5.5-9.2,1.7-22.3c-2.7-9.2-10.6-11.3-15-11.8c-1.6-0.2-3.2-0.7-4.7-1.4c-1.9-0.8-3.5-1-3.5-1"/>
		<path fill="none" stroke="#000000" stroke-width="2" stroke-linecap="round" stroke-linejoin="round" stroke-miterlimit="10" d="
			M38.6,20.6c0,0,0.1-13.1,10.1-13.9s13.9,9.6,13.9,9.6"/>
		<path fill="none" stroke="#000000" stroke-width="2" stroke-linecap="round" stroke-linejoin="round" stroke-miterlimit="10" d="
			M55.9,16.6c-2.2-1.2-7.4,1.9-3.6,8.1s13.4,10.6,10.3,18.8C59,53.2,49.5,54.2,49.5,54.2"/>
		<path fill="none" stroke="#000000" stroke-width="2" stroke-linecap="round" stroke-linejoin="round" stroke-miterlimit="10" d="
			M34.1,27.8c0,0,15.4,4.6,9.9,23.7"/>
		<path fill="none" stroke="#000000" stroke-width="2" stroke-linecap="round" stroke-linejoin="round" stroke-miterlimit="10" d="
			M26.4,45.6c0,0-2.1,4.7,0.5,9.2c0,0-6.9,0.8-4.7,5.2"/>
	</g>
</g>
</svg>
