<svg id="emoji" viewBox="0 0 72 72" xmlns="http://www.w3.org/2000/svg">
  <g id="color">
    <path fill="#3f3f3f" d="m11.9757,19.2767s-.3253,2.1644-.1301,2.4924,1.8214,2.23,2.0817,2.23,1.9516.1968,1.9516.1968l1.1059-2.23-1.3011-2.23-2.4069-.9838-1.3011.5247Z"/>
    <polygon fill="#3f3f3f" points="17.0448 11.1712 16.9178 13.7029 18.5051 15.6777 20.2195 15.6777 21.1084 14.3934 20.7274 11.6315 18.1651 9.7531 17.0448 11.1712"/>
    <path fill="#3f3f3f" d="m26.4409,8.0392l-.5941,1.9061.064,1.8344.9599,1.6638,1.6339.3148,1.0537-1.6586v-2.5959s-1.7239-1.8702-2.0572-1.8702c-.3333.0001-1.0603.4057-1.0603.4057Z"/>
    <path fill="#3f3f3f" d="m34.9124,11.8983l-1.2414,2.1037s.2538,3.1341.5038,3.3841,2.4519.9704,2.4519.9704l1.711-1.9378-.0327-3.3291-1.4997-1.6604-1.8929.469Z"/>
    <path fill="#3f3f3f" d="m22.6372,21.3816c-.0833.25-1.8308,3.208-1.8308,3.208l.3333,3.5833-1.1667,3.3333.6667,3.3333,3.0942,1.6432,2.7207-.9913,2.8051-2.5098,3.8976,1.0272c.7819.1921,1.6072-.036,2.1765-.6054.8367-.8369,1.6757-2.1015,1.624-2.2567-.0833-.25-.2953-3.0006-.2953-3.0006,0,0-2.2417-3.1558-2.9917-2.9892,0,0-1.0548-4.4404-4.2214-5.3571-3.1667-.9167-4.4502-.0844-4.4502-.0844l-2.3622,1.6662Z"/>
    <path fill="#3f3f3f" d="m35.7755,41.081s-1.8649,2.5979-1.6982,2.8479,1.045,3.0372,1.045,3.0372c0,0,2.3333.4567,2.4167.2067.0833-.25.9144-2.2641.9144-2.2641l-.5878-3.0045-2.0901-.8231Z"/>
    <polygon fill="#3f3f3f" points="44.171 35.5855 42.421 38.5021 44.2426 42.1522 47.0877 40.7521 47.5573 38.2245 46.6524 35.9249 44.171 35.5855"/>
    <path fill="#3f3f3f" d="m53.6913,38.0631c-.0833.25-2.3255,3.1891-2.3255,3.1891l.9167,3.1667,1.9583-.5763,1.5032-2.1488-.073-2.5248-1.9797-1.1058Z"/>
    <path fill="#3f3f3f" d="m58.6422,46.0333l-1.798,2.3723-.4994,2.2225.874,1.0738,2.2725-.4745s1.6482-1.9942,1.6482-2.2442-.1249-2.2008-.1249-2.2008l-2.3723-.7492Z"/>
    <path fill="#3f3f3f" d="m40.3568,50.3528c-.1975.9874-1.0242,3.0563-1.0242,3.0563,0,0-2.6816,1.7442-2.8482,2.0775-.1667.3333-.9047,2.7141-.9047,2.7141l.8712,2.6136,2.178,1.5079,4.7916-1.2733,3.3508,3.1162s2.8217,1.2827,4.155-.134c1.3333-1.4167,1.8094-3.8199,1.8094-3.8199l-1.2398-3.1833.3016-4.1215s-1.7229-4.7152-4.3896-5.2152c-2.6667-.4999-6.8013,1.4116-7.0513,2.6616Z"/>
  </g>
  <g id="line">
    <path fill="none" stroke="#000" stroke-linecap="round" stroke-linejoin="round" stroke-width="2" d="m34.2042,25.0412c-.0364-.2205-.0784-.4413-.134-.6623-1.0117-4.0167-4.871-6.5074-8.6199-5.5631s-5.9678,4.9659-4.9561,8.9826c.0557.221.1233.4353.1957.6468-1.1533,1.1787-1.6914,2.9682-1.2371,4.7717.6745,2.6778,3.2473,4.3382,5.7466,3.7087,1.6833-.424,3.7084-3.5122,3.9147-3.5641.2063-.052,3.4527,1.7084,5.136,1.2844,2.4993-.6295,3.9785-3.3106,3.3041-5.9884-.4544-1.8035-1.7759-3.1246-3.35-3.6163Z"/>
    <ellipse cx="19.0131" cy="12.9337" rx="2.6883" ry="3.7635" transform="translate(-3.3852 7.7286) rotate(-21.1428)" fill="none" stroke="#000" stroke-linecap="round" stroke-linejoin="round" stroke-width="2"/>
    <ellipse cx="14.1245" cy="21.5483" rx="2.6882" ry="3.7633" transform="translate(-9.6423 11.6) rotate(-34.0429)" fill="none" stroke="#000" stroke-linecap="round" stroke-linejoin="round" stroke-width="2"/>
    <ellipse cx="36.1312" cy="14.8264" rx="3.7634" ry="2.6883" transform="translate(18.6437 49.7474) rotate(-85.7103)" fill="none" stroke="#000" stroke-linecap="round" stroke-linejoin="round" stroke-width="2"/>
    <path fill="none" stroke="#000" stroke-linecap="round" stroke-linejoin="round" stroke-width="2" d="m27.1536,6.7703c1.3727-.2023,3.0014,1.9274,3.2082,3.3312.303,2.0562-.642,4.1486-2.1108,4.3651s-2.9052-1.2749-3.2082-3.3312.642-4.1486,2.1108-4.3651Z"/>
    <path fill="none" stroke="#000" stroke-linecap="round" stroke-linejoin="round" stroke-width="2" d="m52.0157,56.9056c.0775-.2096.1503-.4223.2113-.6418,1.1089-3.991-1.0118-8.0652-4.7367-9.1002s-7.6434,1.3613-8.7523,5.3523c-.061.2196-.1083.4393-.1501.6589-1.5855.4534-2.9387,1.742-3.4366,3.534-.7393,2.6606.6745,5.3768,3.1578,6.0668,1.6725.4647,4.9607-1.2164,5.1656-1.1594s2.1545,3.1934,3.8271,3.6581c2.4832.69,5.0956-.9076,5.8349-3.5682.4978-1.7922.0033-3.5942-1.121-4.8005Z"/>
    <path fill="none" stroke="#000" stroke-linecap="round" stroke-linejoin="round" stroke-width="2.0001" d="m42.4003,38.5324c.3105-2.0552,1.7481-3.5436,3.2165-3.3236s2.409,2.0648,2.101,4.1204-1.7454,3.5249-3.2165,3.3236c-1.481-.2026-2.4122-2.0604-2.101-4.1204Z"/>
    <ellipse cx="36.2975" cy="44.1831" rx="2.6883" ry="3.7635" transform="translate(-3.2653 2.8982) rotate(-4.3759)" fill="none" stroke="#000" stroke-linecap="round" stroke-linejoin="round" stroke-width="2"/>
    <ellipse cx="58.7502" cy="48.9832" rx="3.7636" ry="2.6884" transform="translate(-14.6955 70.3534) rotate(-56.043)" fill="none" stroke="#000" stroke-linecap="round" stroke-linejoin="round" stroke-width="2.0001"/>
    <ellipse cx="53.6913" cy="41.331" rx="3.7634" ry="2.6883" transform="translate(-4.3103 76.3571) rotate(-68.7157)" fill="none" stroke="#000" stroke-linecap="round" stroke-linejoin="round" stroke-width="2"/>
  </g>
</svg>
