<?xml version="1.0" encoding="utf-8"?>
<!-- Generator: Adobe Illustrator 21.1.0, SVG Export Plug-In . SVG Version: 6.00 Build 0)  -->
<svg version="1.1" id="emoji" xmlns="http://www.w3.org/2000/svg" xmlns:xlink="http://www.w3.org/1999/xlink" x="0px" y="0px"
	 viewBox="0 0 72 72" enable-background="new 0 0 72 72" xml:space="preserve">
<g id="_xD83D__xDC3B__1_">
	<path fill="#6A462F" d="M24.8,17.9l-6.7-5.3l-8.2,1l-3,4.7l0.5,6.7l3.8,5.8c0,0,1.8,1.2,2.7,1.7l-2.5,7.7l-0.3,6.3l1.5,5.5l2.8,3.7
		l5.5,3.8c0,0,15.7,9,30.7,0.2l5.8-4.8l3.2-6l0.7-4.7l-1.3-8.8l-1.7-2.5l2.8-2.2l2.5-4.8l1.7-5.3l-1.7-5l-4.3-3l-4.2-0.2l-6,3.8
		l-1.3,1.5l-8.3-1.7h-8.2L24.8,17.9z"/>
	<path fill="#A57939" d="M29.6,37.8l-2,5l-0.8,6.7l2,3.2l0.3,4.3l2.8,2.2l8.7-0.3l2.3-1l0.2-5.2l2-3.2l-1.2-6.7l-2.5-5.5
		C41.4,37.3,34.4,32.4,29.6,37.8z"/>
	<path fill="#3F3F3F" d="M30.8,47.8c0,0,4.3-4.7,9.8-0.3l-1.8,2.8l-6-0.2L30.8,47.8z"/>
	<path fill="#A57939" d="M47.8,18.4c0,0,12.8-4,15.2,8l2-4l-0.2-5.5l-3.5-3.8l-5.5-1.3l-5.5,3.7L47.8,18.4z"/>
	<path fill="#A57939" d="M24.3,18.4c0,0-12.8-4-15.2,8l-2-4l0.2-5.5l3.5-3.8l5.5-1.3l5.5,3.7L24.3,18.4z"/>
	<circle cx="28.6" cy="37" r="2"/>
	<path fill="none" stroke="#000000" stroke-width="2" stroke-linecap="round" stroke-linejoin="round" stroke-miterlimit="10" d="
		M26,19.9c0,0-7.7-11.6-14.9-6.8C4.5,17.5,7.2,27,11.7,30"/>
	<path fill="none" stroke="#000000" stroke-width="2" stroke-linecap="round" stroke-linejoin="round" stroke-miterlimit="10" d="
		M21.1,58.6c-15.9-6.3-7.9-24-7.9-24s3.6-9.4,9.3-11.6"/>
	<path fill="none" stroke="#000000" stroke-width="2" stroke-linecap="round" stroke-linejoin="round" stroke-miterlimit="10" d="
		M51.1,58.6c15.9-6.3,7.9-24,7.9-24s-3.6-9.4-9.3-11.6"/>
	<circle cx="43.4" cy="37" r="2"/>
	<path fill="none" stroke="#000000" stroke-width="2" stroke-linecap="round" stroke-linejoin="round" stroke-miterlimit="10" d="
		M43.5,43.3l1.6,4.8c0.2,0.8,0.1,1.7-0.4,2.4c-1.2,1.9-4.1,5.1-8.3,2.2h-0.9c-4.2,2.9-7-0.3-8.3-2.2c-0.5-0.7-0.6-1.6-0.4-2.4
		l1.6-4.8"/>
	<path fill="none" stroke="#000000" stroke-width="2" stroke-linecap="round" stroke-linejoin="round" stroke-miterlimit="10" d="
		M40.2,47.9c-0.1,3-2.8,1.7-2.8,1.7L36,48.9l-1.4,0.7c0,0-2.7,1.4-2.8-1.7"/>
	<path fill="none" stroke="#000000" stroke-width="2" stroke-linecap="round" stroke-linejoin="round" stroke-miterlimit="10" d="
		M46,19.9c0,0,7.7-11.6,14.9-6.8c6.6,4.4,3.9,14-0.6,16.9"/>
	<path fill="none" stroke="#000000" stroke-width="2" stroke-linecap="round" stroke-linejoin="round" stroke-miterlimit="10" d="
		M29.9,57.1c0,0,5.2,6.6,12.1,0.6"/>
	<path fill="none" stroke="#000000" stroke-width="2" stroke-linecap="round" stroke-linejoin="round" stroke-miterlimit="10" d="
		M24.7,18c0,0,8.7-4.9,22.3,0"/>
	
		<line fill="none" stroke="#000000" stroke-width="2" stroke-linecap="round" stroke-linejoin="round" stroke-miterlimit="10" x1="36" y1="52.8" x2="36" y2="49.6"/>
</g>
</svg>
