<?xml version="1.0" encoding="utf-8"?>
<!-- Generator: Adobe Illustrator 19.1.0, SVG Export Plug-In . SVG Version: 6.00 Build 0)  -->
<svg version="1.1" id="emoji" xmlns="http://www.w3.org/2000/svg" xmlns:xlink="http://www.w3.org/1999/xlink" x="0px" y="0px"
	 viewBox="0 0 72 72" enable-background="new 0 0 72 72" xml:space="preserve">
<g id="_xD83D__xDC3E__1_">
	<path fill="#3F3F3F" d="M11.3,18.7c0,0-0.4,2.8-0.2,3.2c0.2,0.4,2.3,2.8,2.7,2.8s2.5,0.2,2.5,0.2l1.4-2.8L16,19.3L12.9,18
		L11.3,18.7z"/>
	<polygon fill="#3F3F3F" points="16.3,10.6 16.1,13.3 18.2,15.8 20.4,15.8 21.6,14.1 21.1,11.1 18.8,8.6 	"/>
	<path fill="#3F3F3F" d="M26.5,7.3l-1.9,2.5l1.1,2.2l1.1,1.3l2.6,0.1l0.8-2.2l-0.2-2.8c0,0-0.8-1.2-1.1-1.2
		C28.4,7.3,26.5,7.3,26.5,7.3z"/>
	<path fill="#3F3F3F" d="M34.7,10.9l-1,3.1c0,0,0.2,3.2,0.4,3.5s2.7,1.2,2.7,1.2l1.6-2.3l0.3-3.6L36.9,11L34.7,10.9z"/>
	<path fill="#3F3F3F" d="M22,20.8c-0.1,0.2-1.7,3.6-1.7,3.6l0.3,3.6l-1.2,3.3l0.7,3.3l2.8,2.1l3.6-0.5l2.2-2.6l5.2,1.4
		c0,0,3.5-2,3.4-2.2c-0.1-0.2,0.6-4.3,0.6-4.3s-2.8-3.6-3.6-3.4c0,0-1.2-4.5-4.3-5.4c-3.2-0.9-6-0.5-6-0.5L22,20.8z"/>
	<path fill="#3F3F3F" d="M34.8,40.6c0,0-1.2,3.2-1.1,3.4c0.2,0.2,1.4,3.2,1.4,3.2s2.6,0.4,2.7,0.2c0.1-0.2,1.1-2.9,1.1-2.9l-0.1-3.2
		L34.8,40.6z"/>
	<polygon fill="#3F3F3F" points="44.2,35.1 42.4,38.3 43.7,41.8 47.3,40.3 47.8,37.8 46.9,35.3 	"/>
	<path fill="#3F3F3F" d="M53.3,37.3c-0.1,0.2-2.4,3.4-2.4,3.4l0.9,3.2l2.8-0.1l2-3.1l-0.6-3L53.3,37.3z"/>
	<path fill="#3F3F3F" d="M58.7,45.3l-2.5,3.1l-0.5,2.8l1.4,1l3.8-1c0,0,1-2.2,1-2.4s-0.4-2.8-0.4-2.8L58.7,45.3z"/>
	<path fill="#3F3F3F" d="M41,48.8c-0.2,1-2.2,4.5-2.2,4.5s-2.9,1.9-3.1,2.2c-0.2,0.3-0.8,3.6-0.8,3.6l1.5,2.8l2.4,1.2l4.8-1.4
		l3.2,3.5c0,0,3.2,0.5,4.6-0.9c1.3-1.4,1.9-4.3,1.9-4.3l-1.5-3l0.6-4c0,0-1.1-5.3-3.8-5.8C46.1,46.7,41.3,47.5,41,48.8z"/>
	<g>
		<path fill="none" stroke="#000000" stroke-width="2" stroke-linecap="round" stroke-linejoin="round" stroke-miterlimit="10" d="
			M34.2,25c0-0.2-0.1-0.4-0.1-0.7c-1-4-4.9-6.5-8.6-5.6c-3.7,0.9-6,5-5,9c0.1,0.2,0.1,0.4,0.2,0.6c-1.2,1.2-1.7,3-1.2,4.8
			c0.7,2.7,3.2,4.3,5.7,3.7c1.7-0.4,3.7-3.5,3.9-3.6c0.2-0.1,3.5,1.7,5.1,1.3c2.5-0.6,4-3.3,3.3-6C37.1,26.9,35.8,25.5,34.2,25z"/>
		
			<ellipse transform="matrix(0.9327 -0.3607 0.3607 0.9327 -3.2047 7.6957)" fill="none" stroke="#000000" stroke-width="2" stroke-linecap="round" stroke-linejoin="round" stroke-miterlimit="10" cx="19" cy="12.4" rx="2.7" ry="3.8"/>
		
			<ellipse transform="matrix(0.8286 -0.5598 0.5598 0.8286 -9.6426 11.5991)" fill="none" stroke="#000000" stroke-width="2" stroke-linecap="round" stroke-linejoin="round" stroke-miterlimit="10" cx="14.1" cy="21.5" rx="2.7" ry="3.8"/>
		
			<ellipse transform="matrix(0.9972 7.483191e-02 -7.483191e-02 0.9972 1.2109 -2.6623)" fill="none" stroke="#000000" stroke-width="2" stroke-linecap="round" stroke-linejoin="round" stroke-miterlimit="10" cx="36.1" cy="14.8" rx="2.7" ry="3.8"/>
		
			<ellipse transform="matrix(0.9893 -0.1458 0.1458 0.9893 -1.1975 4.1481)" fill="none" stroke="#000000" stroke-width="2" stroke-linecap="round" stroke-linejoin="round" stroke-miterlimit="10" cx="27.7" cy="10.2" rx="2.7" ry="3.8"/>
	</g>
	<g>
		<path fill="none" stroke="#000000" stroke-width="2" stroke-linecap="round" stroke-linejoin="round" stroke-miterlimit="10" d="
			M52,56.9c0.1-0.2,0.2-0.4,0.2-0.6c1.1-4-1-8.1-4.7-9.1c-3.7-1-7.6,1.4-8.8,5.4c-0.1,0.2-0.1,0.4-0.2,0.7c-1.6,0.5-2.9,1.7-3.4,3.5
			c-0.7,2.7,0.7,5.4,3.2,6.1c1.7,0.5,5-1.2,5.2-1.2s2.2,3.2,3.8,3.7c2.5,0.7,5.1-0.9,5.8-3.6C53.6,59.9,53.1,58.1,52,56.9z"/>
		
			<ellipse transform="matrix(0.989 0.1482 -0.1482 0.989 6.1913 -6.2514)" fill="none" stroke="#000000" stroke-width="2" stroke-linecap="round" stroke-linejoin="round" stroke-miterlimit="10" cx="45.1" cy="38.4" rx="2.7" ry="3.8"/>
		
			<ellipse transform="matrix(0.9971 -7.627431e-02 7.627431e-02 0.9971 -3.2453 2.8964)" fill="none" stroke="#000000" stroke-width="2" stroke-linecap="round" stroke-linejoin="round" stroke-miterlimit="10" cx="36.3" cy="43.9" rx="2.7" ry="3.8"/>
		
			<ellipse transform="matrix(0.8295 0.5586 -0.5586 0.8295 37.3804 -24.4601)" fill="none" stroke="#000000" stroke-width="2" stroke-linecap="round" stroke-linejoin="round" stroke-miterlimit="10" cx="58.7" cy="49" rx="2.7" ry="3.8"/>
		
			<ellipse transform="matrix(0.9318 0.363 -0.363 0.9318 18.4818 -16.7034)" fill="none" stroke="#000000" stroke-width="2" stroke-linecap="round" stroke-linejoin="round" stroke-miterlimit="10" cx="53.7" cy="40.8" rx="2.7" ry="3.8"/>
	</g>
</g>
</svg>
