<?xml version="1.0" encoding="utf-8"?>
<!-- Generator: Adobe Illustrator 19.1.0, SVG Export Plug-In . SVG Version: 6.00 Build 0)  -->
<svg version="1.1" id="emoji" xmlns="http://www.w3.org/2000/svg" xmlns:xlink="http://www.w3.org/1999/xlink" x="0px" y="0px"
	 viewBox="0 0 72 72" enable-background="new 0 0 72 72" xml:space="preserve">
<g id="_xD83D__xDC3D__1_">
	<path fill="#FFA7C0" d="M34.3,15.3c-0.8,0.3-7.3,3-8.2,3c-0.8,0-11,8-11,8l-4.3,7.3L9.9,45.3l1.2,5.3l4.7,4.5l6.5,1l13.5-5l5.5,1.2
		l8.5,3.2l7.7,0.2l4.8-4l1.7-4.3l-0.2-8.3l-0.8-5.7l-2.2-5.7l-8.3-6.5l-8.7-4.5L34.3,15.3z"/>
	<path fill="#E67A94" d="M24.3,33.4l-4.1,2.1L17.1,41l0.4,5l2.9,2.6l4.4-2.3l2.4-5c0,0,0.4-3.7,0.3-3.9
		C27.5,37.1,26.3,33.4,24.3,33.4z"/>
	<path fill="#E67A94" d="M49.7,33.4l4.1,2.1l3.2,5.5l-0.4,5l-2.9,2.6l-4.4-2.3l-2.4-5c0,0-0.4-3.7-0.3-3.9S47.8,33.4,49.7,33.4z"/>
	<path fill="none" stroke="#000000" stroke-width="2" stroke-linecap="round" stroke-linejoin="round" stroke-miterlimit="10" d="
		M50.4,55.4L38.7,51c-1.1-0.4-2.3-0.4-3.3,0l-11.7,4.4c-6.5,2.4-13.4-2.4-13.4-9.3v-7.3c0-6.2,3.2-12,8.5-15.3l7-4.4
		c6.9-4.3,15.7-4.3,22.6,0l7,4.4c5.3,3.3,8.5,9.1,8.5,15.3v7.3C63.8,53,56.9,57.8,50.4,55.4z"/>
	
		<ellipse transform="matrix(0.943 0.3327 -0.3327 0.943 14.9182 -5.0914)" fill="none" stroke="#000000" stroke-width="2" stroke-linecap="round" stroke-linejoin="round" stroke-miterlimit="10" cx="22.3" cy="41" rx="4.9" ry="8"/>
	
		<ellipse transform="matrix(-0.943 0.3327 -0.3327 -0.943 114.0477 62.5154)" fill="none" stroke="#000000" stroke-width="2" stroke-linecap="round" stroke-linejoin="round" stroke-miterlimit="10" cx="51.7" cy="41" rx="4.9" ry="8"/>
</g>
</svg>
