<svg id="emoji" viewBox="0 0 72 72" xmlns="http://www.w3.org/2000/svg">
  <g id="color">
    <path fill="#f4aa41" d="m58.2673,11.3469s-10.4076,2.3754-15.5743,6.7088c0,0-9-2.5-13.8333.1667,0,0-9.6549-6.7318-15.6549-6.7318,0,0-5.0326,3.75.3216,21.0651,0,0-2.6667,10.6667,1.6667,16.3333.7823,1.023,1.6026,1.9862,2.4217,2.8779,3.4268,3.7306,7.5912,6.7046,12.1937,8.8205l1.696.7797c1.5277.7023,3.1777,1.1,4.8576,1.1707h0c.9304.0392,1.8573-.1359,2.7093-.5118l4.5429-2.0042c3.8082-1.6801,7.2734-4.0872,10.0486-7.1894,1.1585-1.295,2.2135-2.71,2.8635-4.11,4.4736-10.6191,1.5314-16.2624,1.5314-16.2624l1.2356-7.1292c.8094-3.1482.8268-6.4477.0506-9.6043l-1.0768-4.3796Z"/>
    <path fill="#fff" d="m30.8377,47.3355s-7.3487,2.8338-1.0987,9.3338c0,0-1.6971,4.2984,3.5271,4.6285.6823.0431,2.7339.0635,2.7339.0635l1.5797.0367c.4833.0112.9656-.0228,1.4424-.1026,1.8709-.3132,3.9279-.7821,3.181-4.5878,0,0,7.5513-6.3722-1.3654-9.3722l-4.875,2-5.125-1.9999Z"/>
  </g>
  <g id="line">
    <ellipse cx="45.0854" cy="38.1033" rx="1.6461" ry="2.8119"/>
    <ellipse cx="26.8427" cy="38.1033" rx="1.6461" ry="2.8119"/>
    <polyline fill="none" stroke="#000" stroke-linecap="round" stroke-linejoin="round" stroke-width="2" points="31.9328 47.2287 36.037 50.0204 39.8495 47.2287"/>
    <path fill="none" stroke="#000" stroke-linecap="round" stroke-linejoin="round" stroke-width="2" d="m36.037,50.0204v4.2708s-1.1042,3.6875-5.5417,2.875"/>
    <path fill="none" stroke="#000" stroke-linecap="round" stroke-linejoin="round" stroke-width="2" d="m15.8717,48.4759c-4.8928-7.2535-2.0014-15.8722-2.0014-15.8722,0,0-5.25-14.875-.4375-21.25,0,0,9.1875,1.5,15.6875,7.375,4.5946-1.9379,9.1575-2.0128,13.6875-.1437,6.5-5.875,15.6875-7.375,15.6875-7.375,4.8125,6.375-.4375,21.25-.4375,21.25,0,0,2.8914,8.6187-2.0014,15.8722"/>
    <path fill="none" stroke="#000" stroke-linecap="round" stroke-linejoin="round" stroke-width="2" d="m14.7453,15.1037s12.8125,6.1875,10.0625,11.8125"/>
    <path fill="none" stroke="#000" stroke-linecap="round" stroke-linejoin="round" stroke-width="2" d="m24.8491,50.8753s-9.3615-.458-13.6525,7.5243"/>
    <path fill="none" stroke="#000" stroke-linecap="round" stroke-linejoin="round" stroke-width="2" d="m35.8911,49.8767v4.2708s1.1042,3.6875,5.5417,2.875"/>
    <path fill="none" stroke="#000" stroke-linecap="round" stroke-linejoin="round" stroke-width="2" d="m57.1828,14.96s-12.8125,6.1875-10.0625,11.8125"/>
    <path fill="none" stroke="#000" stroke-linecap="round" stroke-linejoin="round" stroke-width="2" d="m47.2048,54.6836s8.2116,2.2454,8.6795,11.2958"/>
    <path fill="none" stroke="#000" stroke-linecap="round" stroke-linejoin="round" stroke-width="2" d="m48.079,50.7316s9.3615-.458,13.6525,7.5243"/>
    <path fill="none" stroke="#000" stroke-linecap="round" stroke-linejoin="round" stroke-width="2" d="m31.3859,60.7598c3.88,1.6845,5.6481,1.8093,9.3021,0"/>
    <path fill="none" stroke="#000" stroke-linecap="round" stroke-linejoin="round" stroke-width="2" d="m25.4446,54.6836s-8.2116,2.2454-8.6795,11.2958"/>
  </g>
</svg>
