<svg id="emoji" viewBox="0 0 72 72" xmlns="http://www.w3.org/2000/svg">
  <g id="color">
    <path fill="#3f3f3f" d="m36.4139,9.9552c-.4743.0949-3.9421-.5421-6.3456-.3134-2.2036.2097-4.3033,1.025-6.0715,2.3567l-5.1608,4.8413-5.6651,9.8592-1.7766,5.8212c-.974,3.1916-.798,6.2933-.798,9.6303l.07.7313c.3101,2.4813.5899,4.2256,1.5846,6.0446.5691,1.0406,1.3408,1.9529,2.2013,2.7691,1.0973,1.0407,2.7985,2.6424,3.0852,2.8425,1.535,1.0711,4.9167,3.5699,10.903,4.708,0,0,18.5453,2.6127,26.0223-4.4859.086-.0816.1913-.1784.311-.2864,2.753-2.4819,4.8275-5.6593,5.843-9.2241.416-1.4604.7468-3.0671.8624-4.7115.1343-1.9108.3055-4.1988,0-5.3529-.3724-1.4069-1.9698-5.2727-1.9698-5.2727l-2.9167-6.0895-4.032-7.1602-4.171-4.0088-3.8466-2.155-4.843-.9269-3.2862.383h.0001Z"/>
    <path fill="#f4aa41" d="m55.5877,19.5021l2.5-1.8333,3.0833-.5,1.9167,1.25.75,1s.9167,3.6667,1,3.9167,0,6,0,6l-1.25,3.1667-2.1667,1.9167-2.3333-5.5-3.1667-7.25-.3333-2.1668Z"/>
    <polygon fill="#f4aa41" points="16.671 19.7177 14.0044 17.8844 11.2544 17.3011 8.7206 18.8938 7.7894 24.0219 7.9603 29.2618 8.9001 31.8641 10.521 33.4765 11.6624 30.3725 14.421 24.9677 16.671 19.7177"/>
    <path fill="#f4aa41" d="m46.3377,44.5855l4.0833-2.4167,1.75-4.6667,1.25-7.25-1.0833-4.75-2.4167-2.8333-4.3333-1.8333-5.4167.1667-3.5833-.0833-7-.3333-4.6667.3333-4.25,2.8333-2,4.5833.0833,3.9167s-.0833,3.5.1667,3.9167,1.5833,4.4167,1.5833,4.4167l1.1667,1.6667,4,1.8333-1,4s-.1667,6.5,1.25,8.4167,5.8752,4.5693,5.8752,4.5693l5.2114.9113,4.6419-1.5378,4.8548-4.3594c.8412-2.6884,1.1213-5.4142,1-8.1667l-1.1667-3.3335h0Z"/>
  </g>
  <g id="line">
    <circle cx="27.6338" cy="29.6771" r="2"/>
    <path fill="none" stroke="#000" stroke-linecap="round" stroke-linejoin="round" stroke-width="2" d="m23.0393,27.9538s4.726-6.5434,9.4521.1023"/>
    <path fill="none" stroke="#000" stroke-linecap="round" stroke-linejoin="round" stroke-width="2" d="m30.8968,40.1701s.6484,2.299,3.537,2.7117"/>
    <path fill="none" stroke="#000" stroke-linecap="round" stroke-linejoin="round" stroke-width="2" d="m27.989,51.7674l1.2915.8045c1.2002.7477,2.5573,1.1408,3.9382,1.1408h5.6222c1.3232,0,2.6255-.361,3.7893-1.0503l1.5111-.895"/>
    <path fill="none" stroke="#000" stroke-linecap="round" stroke-linejoin="round" stroke-width="2" d="m31.0557,35.5878c-2.6158,1.5082-5.9686,4.8289-5.5798,11.8762"/>
    <path fill="none" stroke="#000" stroke-linecap="round" stroke-linejoin="round" stroke-width="2" d="m26.8178,56.0264l.2809.6695c1.0574,2.5206,3.1675,4.4503,5.7723,5.279l.7864.2502c2.2541.7171,4.6965.5509,6.8326-.4651h0c2.0135-.9577,3.6173-2.6051,4.5206-4.6436l.4855-1.0957"/>
    <path fill="none" stroke="#000" stroke-linecap="round" stroke-linejoin="round" stroke-width="2" d="m16.0795,18.8447l-1.7688-1.228c-1.6197-1.1245-3.7931-1.0191-5.2965.2567h0c-.7659.65-1.2866,1.5421-1.4642,2.5308-.6192,3.4457-1.5742,11.5715,2.6707,13.7114"/>
    <circle cx="43.3662" cy="29.9126" r="2"/>
    <path fill="none" stroke="#000" stroke-linecap="round" stroke-linejoin="round" stroke-width="2" d="m48.0175,28.1759s-4.726-6.5434-9.4521.1023"/>
    <path fill="none" stroke="#000" stroke-linecap="round" stroke-linejoin="round" stroke-width="2" d="m49.9607,41.4195c2.5152-1.7505,2.6995-5.9685,3.3012-10.1803.4127-2.8885-.4716-5.895-3.5959-8.4888-3.1321-2.6002-7.3146-2.1486-9.39-1.6993-1.0224.2213-2.0608.3145-3.1062.2758l-2.7267-.1011c-.842-.0312-1.6765-.1564-2.4973-.3471-1.9859-.4613-6.3637-1.0469-9.6117,1.6496-3.1243,2.5938-4.0086,5.6002-3.5959,8.4888.6017,4.2118.786,8.4298,3.3012,10.1803"/>
    <path fill="none" stroke="#000" stroke-linecap="round" stroke-linejoin="round" stroke-width="2" d="m41.1032,40.1701s-.6484,2.299-3.537,2.7117"/>
    <path fill="none" stroke="#000" stroke-linecap="round" stroke-linejoin="round" stroke-width="2" d="m41.2534,35.9947c2.5625,1.588,5.6444,4.9189,5.2707,11.6914"/>
    <path fill="none" stroke="#000" stroke-linecap="round" stroke-linejoin="round" stroke-width="2" d="m41.2534,35.9947c-.5708-.3538-1.1928-.6531-1.7718-.8958-1.2375-.5188-2.5724-.7524-3.9139-.7201l-.0521.0013c-1.5439.0372-3.0699.4152-4.4116,1.18-.0161.0092-.0322.0184-.0483.0277"/>
    <path fill="none" stroke="#000" stroke-linecap="round" stroke-linejoin="round" stroke-width="2" d="m54.4627,54.7601s12.6763-6.0522,3.9518-28.4623-22.3494-16.5873-22.3494-16.5873c0,0-13.755-6.0449-22.4795,16.3652-8.7245,22.4101,3.9518,28.4623,3.9518,28.4623"/>
    <path fill="none" stroke="#000" stroke-linecap="round" stroke-linejoin="round" stroke-width="2" d="m55.9205,19.0668l1.7688-1.228c1.6197-1.1245,3.7931-1.0191,5.2965.2567h0c.7659.65,1.2866,1.5421,1.4642,2.5308.6192,3.4457,1.5742,11.5715-2.6707,13.7114"/>
  </g>
</svg>
