<svg id="emoji" viewBox="0 0 72 72" xmlns="http://www.w3.org/2000/svg">
  <g id="color">
    <path fill="#a57939" d="m19.7807,19.2933h0c-1.0245-.0683-2.0613.1518-2.9281.7022-1.4889.9454-2.7779,2.183-3.786,3.6438l-1.8913,2.7408-.9526,2.8442c-.2793.8339-.3114,1.7308-.0924,2.5825l.2379.4251c.3084.5511.8386.9433,1.4558,1.0768l2.0137.1713c.6164.0524,1.2365.0412,1.8506-.0335l5.0244-.6111s1.4611.3956,2.0417,2.5c.6667,2.4167-1.5417,3.375-1.9167,3.5s-6.3646.6701-6.3646.6701l-1.8464.392c-.5033.1069-.9136.4701-1.0806.9568l-.2505.7299.0502.8642c.0722,1.2421,1.0412,1.8034,2.2852,1.8272.9975.0191,2.2241-.1681,2.9109-.6832,1.5-1.125,4.826.4393,4.826.4393l5.1189.7357s-1.3917,6.7005.3583,8.9505c1.5183,1.952-1.7924,2.0172-2.4257,2.3949-.1222.0729-.234.1516-.3449.2407l-1.6031,1.2878.1839,1.7165h0c-.1691.853.4442,1.6624,1.3111,1.7305l2.125-.0853,1.3762.5311,1.41.3985,2.4828-.0307,4.1579-1.3794,4.077.6743c1.9672-.0787,4.877-1.0327,6.2362-2.4569l.6098-.6389s1.2544-2.1078,1.3794-2.4828c.091-.2731,1.4554-4.4142,2.0453-7.1706.2465-1.1519.3371-2.3233.2729-3.4995l-.2625-4.8088-1.5646-6.5806-1.8867-3.4053-1.906-2.4599c-1.9626-1.5195-4.2553-2.556-6.6925-3.0256l-3.7731-.727s-5.9497-2.0049-6.4497-2.2549-1.9171-1.6488-1.9171-1.6488l-3.0068-4.6096-2.8991,3.8655Z"/>
    <path fill="#a57939" d="m37.5044,23.6688l.0668-.4364c.268-1.7515.7506-3.4602,1.4391-5.0929.9153-2.1704,2.1138-5.0187,2.1651-5.1724.0833-.25,2.1636-3.2307,2.1636-3.2307l3.4678-2.0155,2.7175-.1722c2.6386-.1672,5.2474.6351,7.3361,2.256l4.3178,4.9595c.293.3366.9502.8653.9502.8653.4787.7096,1.0129,1.7759,1.0739,2.6409.647,9.1804-13.1777,7.6809-11.0989-.753-2.3412,5.8115.814,10.2652,4.966,13.6701.9982.8186,1.8749,1.775,2.563,2.8674l2.4739,3.9273.2226,3.7615-2.0477,4.9857s-3.027,2.9825-4.2512,4.2512c-1.0833.4167-6.036,2.5043-6.036,2.5043l.5106-7.3997.0833-6.25-1.3333-4.5833-1.0833-3.6667-3.1667-3.9167-4.3333-2.9167-3.1668-1.083Z"/>
    <path fill="#d0cfce" d="m33.9666,23.205c-.5456.3805-1.9622,3.7574-.2539,4.5273s4.7276,2.4477,4.7276,2.4477l4.4879,5.02,1.7623,4.7822v7.8729l-1.0195,4.6054s1.5329,5.2083,5.0581,1.875.5252,0,.5252,0l1.75-9.8147-1.75-9.2687-1.7794-4.75-4.8873-4.9167-8.621-2.3804Z"/>
  </g>
  <g id="line">
    <path fill="none" stroke="#000" stroke-linecap="round" stroke-linejoin="round" stroke-width="2" d="m20.4001,32.4935c-3.0173,2.2297-6.5652,1.993-8.8312,1.4888-1.597-.3554-2.6144-1.9684-2.2352-3.5599.2859-1.2.8627-2.8654,1.9621-5.1475,3.1184-6.473,8.4386-6.4878,8.4386-6.4878.4074-1.0361,1.8658-3.7003,3.0066-4.1946,0,0,7.1306,7.3708,1.0283,11.3438"/>
    <path fill="none" stroke="#000" stroke-linecap="round" stroke-linejoin="round" stroke-width="2" d="m11.6785,43.5925c-1.8048-.7483-2.8431-6.5592,6.7421-4.5.5798.1245,1.5991.2365,2.1722.084,1.7947-.4774,5.6455-.6465,5.6455-4.584"/>
    <path fill="none" stroke="#000" stroke-linecap="round" stroke-linejoin="round" stroke-width="2" d="m34.1166,35.0863c.1417.0945,4.5831,9.8748-3.1184,10.4418s-13.7964-2.0317-13.7964-2.0317"/>
    <path fill="none" stroke="#000" stroke-linecap="round" stroke-linejoin="round" stroke-width="2" d="m30.1234,49.4018s-1.1252,3.9695,1.8987,6.9934l-2.7832.8106c-1.3249.3859-2.4211,1.3209-3.0112,2.5684h0c-.4746,1.0034.0081,2.1977,1.0489,2.5834,1.6081.5959,4.3116.8772,8.1206-1.109.0483.1155,9.4796,2.8727,12.4213-3.9085,0,0,5.5148-9.2134,1.7349-22.2538-2.6759-9.2317-10.6098-11.3262-15.0161-11.7622-1.6261-.1609-3.1757-.6903-4.6658-1.3609-1.8515-.8333-3.5115-1.0041-3.5115-1.0041"/>
    <path fill="none" stroke="#000" stroke-linecap="round" stroke-linejoin="round" stroke-width="2" d="m38.6145,20.5915s.1099-13.1129,10.1264-13.8688,13.8662,9.6165,13.8662,9.6165"/>
    <path fill="none" stroke="#000" stroke-linecap="round" stroke-linejoin="round" stroke-width="2" d="m55.866,16.5925c-2.1875-1.25-7.4368,1.8883-3.5625,8.125s13.3546,10.5693,10.3037,18.779c-3.5909,9.6629-13.1162,10.721-13.1162,10.721"/>
    <path fill="none" stroke="#000" stroke-linecap="round" stroke-linejoin="round" stroke-width="2" d="m34.0535,27.8017s15.4375,4.6032,9.875,23.7282"/>
    <path fill="none" stroke="#000" stroke-linecap="round" stroke-linejoin="round" stroke-width="2" d="m26.3601,45.6091s-2.0983,4.7126.485,9.2126c0,0-6.9167.75-4.7352,5.2441"/>
  </g>
</svg>
