<?xml version="1.0" encoding="utf-8"?>
<!-- Generator: Adobe Illustrator 19.1.0, SVG Export Plug-In . SVG Version: 6.00 Build 0)  -->
<svg version="1.1" id="emoji" xmlns="http://www.w3.org/2000/svg" xmlns:xlink="http://www.w3.org/1999/xlink" x="0px" y="0px"
	 viewBox="0 0 72 72" enable-background="new 0 0 72 72" xml:space="preserve">
<g id="_xD83D__xDC39__1_">
	<path fill="#F4AA41" d="M19.6,25.3c0,0-12.5,3.2-8.8,19.8s16,13.5,16,13.5l4.8-1.2l9.5-0.2c0,0,9,2.8,14.2-0.2s7.8-12.2,7.8-12.2
		v-7l-2.5-5.5l-4.2-4.2l-2.5-2c0,0,7.5-7,5-11.5s-4.2-5.8-11.5,0.2l-1.2,1c0,0-9.8-4.8-19.5-0.2c0,0-5-8-11.8-3l-0.5,5
		C14.3,17.3,16.1,25.3,19.6,25.3z"/>
	<path fill="#FFFFFF" d="M9.9,40.8c0,0,9.6,10.3,22.2,2.2c0,0,1.2,4.4,3.8,3.8c2.7-0.7,4.9-3.4,4.9-3.4s15.1,5.6,22.9-2.6
		c0,0,0.5,9.3-8.3,16.7c0,0-8.1,2.9-14.4-0.2l-9.8,0.2c0,0-7.6,2.7-12.8-0.2C13.2,54.3,8.8,44.3,9.9,40.8z"/>
	<path fill="#EA5A47" d="M32.1,42.9l8.4-0.1c0,0-0.7,3.9-3.8,3.9S32.1,42.9,32.1,42.9z"/>
	<circle cx="27.8" cy="32.1" r="3"/>
	<circle cx="44.4" cy="32.1" r="3"/>
	<path fill="none" stroke="#000000" stroke-width="2" stroke-linecap="round" stroke-linejoin="round" stroke-miterlimit="10" d="
		M32.4,43.8c0,0,0.8,2.6,3.8,2.9c3,0.3,4-2.9,4-2.9"/>
	<path fill="none" stroke="#000000" stroke-width="2" stroke-linecap="round" stroke-linejoin="round" stroke-miterlimit="10" d="
		M36.1,46.7l0.1,4.3c1.6,1,2.6,1.5,5,1"/>
	<path fill="none" stroke="#000000" stroke-width="2" stroke-linecap="round" stroke-linejoin="round" stroke-miterlimit="10" d="
		M31.4,52c2,0.3,2.9,0,4.9-1"/>
	<path fill="none" stroke="#000000" stroke-width="2" stroke-linecap="round" stroke-linejoin="round" stroke-miterlimit="10" d="
		M41.9,56.7c5.4,2.8,9.7,1.7,12.8-0.2"/>
	<path fill="none" stroke="#000000" stroke-width="2" stroke-linecap="round" stroke-linejoin="round" stroke-miterlimit="10" d="
		M11,44.5C7.2,31,20,25.8,20,25.8c-3-1-8.3-9.6-3.9-13.6s10.5,3.3,10.5,3.3s9.8-4.2,20,0c0,0,6.1-7.3,10.5-3.3s-0.9,12.6-3.9,13.6
		c0,0,12.6,5.1,9.1,18.4"/>
	<path fill="none" stroke="#000000" stroke-width="2" stroke-linecap="round" stroke-linejoin="round" stroke-miterlimit="10" d="
		M19.2,56.8c3,1.7,7.1,2.5,12.2-0.1"/>
	<path fill="none" stroke="#000000" stroke-width="2" stroke-linecap="round" stroke-linejoin="round" stroke-miterlimit="10" d="
		M26.6,43.5c0,0-17,2.7-19.8,11.8"/>
	<path fill="none" stroke="#000000" stroke-width="2" stroke-linecap="round" stroke-linejoin="round" stroke-miterlimit="10" d="
		M27.4,47.2c0,0-12.3,2.2-14.5,13.3"/>
	<path fill="none" stroke="#000000" stroke-width="2" stroke-linecap="round" stroke-linejoin="round" stroke-miterlimit="10" d="
		M46.6,43.5c0,0,17,2.7,19.8,11.8"/>
	<path fill="none" stroke="#000000" stroke-width="2" stroke-linecap="round" stroke-linejoin="round" stroke-miterlimit="10" d="
		M45.9,47.2c0,0,11.7,3.8,14.5,13.3"/>
</g>
</svg>
