<svg id="emoji" viewBox="0 0 72 72" xmlns="http://www.w3.org/2000/svg">
  <g id="color">
    <path fill="#d0cfce" d="m50.6975,53.9417h-6.8075s-.3683-3.9115,2.5783-4.2258,2.0717-4.5681,2.0717-4.5681h7.327v8.7939h-5.1695Z"/>
    <path d="m7.3036,29.26s1.6438.8078.69,1.945c-.2746.4704-.8786.629-1.3489.3544-.1506-.0879-.2752-.2142-.3611-.366,0,0-1.0958-.3741,1.02-1.9334Z"/>
    <path fill="#fff" d="m55.8671,50.631s-6.6033.4392-5.0148,4.2254h9.3464s2.4571,0,1.9707-5.8393c0,0,1.7093-15.8608-.4973-16.6883l2.8521,1.809c.4545.2809,1.0506.1403,1.3316-.3142.0987-.1597.1488-.3446.1442-.5323v-.7731c-.4627-1.7564-9.4146-9.3746-16.8734-9.3746-1.6588-.0042-3.3076.2565-4.8841.7724,0,0-.0442.0113-.1105.0341-.7183.1818-4.5637,1.1926-5.4808,1.2835-1.0166.0909-17.6021-.5973-17.6021-.5973-2.3466-.0378-2.7887-.8026-4.3654-.3568-4.084,1.1546-11.4128,5.399-10.4,6.9135,1.0783,1.6122,2.0719,4.638,10.5546,1.31h.0442c.2984,0,2.1658.2045,6.7737,4.7023.0008.0087.0047.0168.011.0228,3.0168,2.9419,12.0373,14.8597,12.8628,15.5156s5.851,2.1127,5.16-3.01c-1.5424-.1533-2.8951-.4089-2.8951-.4089l-.1156-3.3284c5.0669,1.3752,11.9363-1.05,11.9363-1.05"/>
    <path fill="#d0cfce" d="m23.2417,37.1571c.1326.5338,3.2727,12.0447-.011,12.5056s-3.79,1.1586-3.7018,3.4757h8.7516l4.1659-3.8391s-3.7406-9.7902-9.2047-12.1422Z"/>
  </g>
  <g id="line">
    <path fill="none" stroke="#000" stroke-linecap="round" stroke-linejoin="round" stroke-width="2" d="m38.7948,49.3248s1.3527.2556,2.8951.4089c.6907,5.1227-4.3352,3.666-5.16,3.01s-9.8459-12.5737-12.8626-15.5156c-.0063-.006-.0102-.0141-.011-.0228-4.6079-4.4978-6.4753-4.7023-6.7737-4.7023h-.0442c-8.4827,3.328-9.4763.3022-10.5546-1.31-1.0129-1.5145,6.3159-5.7589,10.4-6.9135,1.5767-.4458,2.0188.319,4.3654.3568,0,0,16.5855.6882,17.6021.5973.9171-.0909,4.7625-1.1017,5.4808-1.2835.0663-.0228.1105-.0341.1105-.0341,1.5765-.5159,3.2253-.7766,4.8841-.7724,7.4588,0,16.4107,7.6182,16.8734,9.3746v.7731c.0131.5341-.4093.9777-.9435.9908-.1877.0046-.3726-.0455-.5323-.1443l-2.8521-1.809"/>
    <path fill="none" stroke="#000" stroke-linecap="round" stroke-linejoin="round" stroke-width="2" d="m23.6673,37.2281c.1326.5339,3.2727,12.0447-.011,12.5056s-3.79,1.1586-3.7018,3.4757h8.7517l4.1658-3.8394"/>
    <path fill="none" stroke="#000" stroke-linecap="round" stroke-linejoin="round" stroke-width="2" d="m50.6155,53.9417h-6.8076s-.3684-3.534,2.5783-3.818,2.0719-4.1273,2.0719-4.1273c-3.2096.8081-6.5693.8081-9.7789,0"/>
    <path fill="none" stroke="#000" stroke-linecap="round" stroke-linejoin="round" stroke-width="2" d="m55.8671,50.631s-7.2364-6.3521-7.8234-10.9665"/>
    <path fill="none" stroke="#000" stroke-linecap="round" stroke-linejoin="round" stroke-width="2" d="m55.8671,50.631s-6.6033.4392-5.0148,4.2254h9.3464s2.3113-.1064,1.3994-5.8564c0,0,3.5266-9.125,1.3985-15.8437"/>
    <path fill="none" stroke="#000" stroke-linecap="round" stroke-linejoin="round" stroke-width="2" d="m17.1768,26.1842s2.3021-.38,1.3813,3.0754"/>
  </g>
</svg>
