<?xml version="1.0" encoding="utf-8"?>
<!-- Generator: Adobe Illustrator 21.1.0, SVG Export Plug-In . SVG Version: 6.00 Build 0)  -->
<svg version="1.1" id="emoji" xmlns="http://www.w3.org/2000/svg" xmlns:xlink="http://www.w3.org/1999/xlink" x="0px" y="0px"
	 viewBox="0 0 72 72" enable-background="new 0 0 72 72" xml:space="preserve">
<g id="_xD83D__xDC37__1_">
	<path fill="#FFA7C0" d="M26.8,20.6c0,0-0.8-5.1-10.4-7.1s-8.6-2.4-8.6-2.4L6,13l2.1,9.3L9,28.6l2.6,7l3.8,3.4h5.5l-1.2,8.8l1.2,8.4
		l2.8,4.2l2,2.2c0,0,13.5,7.2,20.9-1s5.9-15.5,5.9-15.5l-1.1-7.4l2.9-0.1l4.1-1l3.5-7l1.4-4.9L63,21.5l2.4-6.4l0.1-3.1l-3.1-1
		L58,12.5l-7.5,2l-4.9,3.1l-1.1,3.5C44.5,21.1,33,19.3,26.8,20.6z"/>
	<polygon fill="#E67A94" points="36,42.2 28,46 26.5,51.1 27.5,54.8 29.7,55.8 35.7,54 40.1,55.3 44.3,54.7 45.2,50.6 43.7,45.6 	
		"/>
	<path fill="#E67A94" d="M64.5,14.1l-3.4,2.5l-6.9,1.6l-4.9,4.2l-1,4.4c0,0,0.2,8.8,2.5,10.4s5,1.5,5,1.5L59,37l3.2-7.4l1-6.2
		l2.1-8.3L64.5,14.1z"/>
	<path fill="#E67A94" d="M7.3,14.1l3.4,2.5l6.9,1.6l4.9,4.2l1,4.4c0,0-0.2,8.8-2.5,10.4s-5,1.5-5,1.5L12.8,37l-3.2-7.4l-1-6.2
		l-2.1-8.3L7.3,14.1z"/>
	<path fill="none" stroke="#000000" stroke-width="2" stroke-linecap="round" stroke-linejoin="round" stroke-miterlimit="10" d="
		M40.5,55.6l-4-1.5c-0.4-0.1-0.8-0.1-1.1,0l-4,1.5c-2.2,0.8-4.5-0.8-4.5-3.1V50c0-2.1,1.1-4.1,2.9-5.2l2.4-1.5
		c2.3-1.4,5.3-1.4,7.6,0l2.4,1.5c1.8,1.1,2.9,3.1,2.9,5.2v2.5C45.1,54.8,42.7,56.5,40.5,55.6z"/>
	<ellipse transform="matrix(0.3327 -0.943 0.943 0.3327 -25.3997 63.5235)" cx="32.2" cy="49.7" rx="2.6" ry="1.6"/>
	<ellipse transform="matrix(0.943 -0.3327 0.3327 0.943 -14.2694 16.0738)" cx="39.8" cy="49.7" rx="1.6" ry="2.6"/>
	<circle cx="26.1" cy="36.1" r="2"/>
	<circle cx="46" cy="36.1" r="2"/>
	<path fill="none" stroke="#000000" stroke-width="2" stroke-linecap="round" stroke-linejoin="round" stroke-miterlimit="10" d="
		M25.8,61.4c-10.1-6.5-5.2-23.2-5.2-23.2c-7.8,2.9-9-3.7-10.9-8.2c-0.7-1.8-1.1-3.6-1.2-5.5C8.4,21.1,7,16.4,6.1,13.9
		c-0.5-1.4,0.6-2.8,2.1-2.6c1.2,0.1,2.5,0.5,3.6,1c1.9,0.8,3.9,1.4,5.9,1.6c8.4,1,9.3,7.3,9.3,7.3s10.6-1.8,17.8,0.2
		c0,0,0.8-6.9,9.2-7.9c2-0.2,4-0.8,5.9-1.6c1.1-0.5,2.4-0.9,3.6-1c1.4-0.1,2.5,1.3,2.1,2.6c-0.9,2.6-2.3,7.2-2.5,10.6
		c-0.1,1.9-0.4,3.8-1.2,5.5c-1.9,4.5-3.1,11.1-10.9,8.2c0,0,4.9,16.7-5.2,23.2"/>
	<path fill="none" stroke="#000000" stroke-width="2" stroke-linecap="round" stroke-linejoin="round" stroke-miterlimit="10" d="
		M30.8,59.3c0,0,4.7,4,10.7,0"/>
	<path fill="none" stroke="#000000" stroke-width="2" stroke-linecap="round" stroke-linejoin="round" stroke-miterlimit="10" d="
		M23.1,26c0,0-1.4-6.4-7.2-8c-5.8-1.6-5.5-2.2-5.5-2.2"/>
	<path fill="none" stroke="#000000" stroke-width="2" stroke-linecap="round" stroke-linejoin="round" stroke-miterlimit="10" d="
		M47.8,26c0,0,1.4-6.4,7.2-8s5.5-2.2,5.5-2.2"/>
</g>
</svg>
