<?xml version="1.0" encoding="utf-8"?>
<!-- Generator: Adobe Illustrator 21.1.0, SVG Export Plug-In . SVG Version: 6.00 Build 0)  -->
<svg version="1.1" id="emoji" xmlns="http://www.w3.org/2000/svg" xmlns:xlink="http://www.w3.org/1999/xlink" x="0px" y="0px"
	 viewBox="0 0 72 72" enable-background="new 0 0 72 72" xml:space="preserve">
<g id="_xD83D__xDC33_">
	<path fill="#3F3F3F" d="M31,25c0,0,24-15,33,9c0,0,2,4-16,4c0,0-2,5-9,5c0,0-2,0,1-5c0,0-10-0.5-15.5,9.8c0,0,6.5,6.2,2.5,6.2
		s-5-1-5-1s-1,5-6,7c0,0-0.7-7.7,3.7-10.8C19.7,49.2,19,33,31,25"/>
	<path fill="#FFFFFF" d="M63,35c0,0-3.5-0.2-5.8-0.6C55,34,53.4,33.1,49.2,34S46,35,46,35l3,3"/>
	
		<line fill="none" stroke="#000000" stroke-width="2" stroke-linecap="round" stroke-linejoin="round" stroke-miterlimit="10" x1="40" y1="16" x2="37" y2="7"/>
	<path fill="none" stroke="#000000" stroke-width="2" stroke-linecap="round" stroke-linejoin="round" stroke-miterlimit="10" d="
		M43.6,16.9c0,0-0.9-8.2,1.8-5.8"/>
	<path fill="none" stroke="#000000" stroke-width="2" stroke-linecap="round" stroke-linejoin="round" stroke-miterlimit="10" d="
		M38.3,18.6c0,0-5.2-6.4-5.4-2.8"/>
	<circle cx="47" cy="13" r="1"/>
	<path fill="none" stroke="#000000" stroke-width="2" stroke-linecap="round" stroke-linejoin="round" stroke-miterlimit="10" d="
		M31,25c0,0,24-15,33,9c0,0,2,4-16,4c0,0-2,5-9,5c0,0-2,0,1-5c0,0-10-0.5-15.5,9.8c0,0,6.5,6.2,2.5,6.2s-5-1-5-1s-1,5-6,7
		c0,0-0.7-7.7,3.7-10.8C19.7,49.2,19,33,31,25"/>
	<path fill="none" stroke="#000000" stroke-width="2" stroke-linecap="round" stroke-linejoin="round" stroke-miterlimit="10" d="
		M63,35c0,0-3.5-0.2-5.8-0.6C55,34,53.4,33.1,49.2,34S46,35,46,35l3,3"/>
</g>
</svg>
