<?xml version="1.0" encoding="utf-8"?>
<!-- Generator: Adobe Illustrator 19.1.0, SVG Export Plug-In . SVG Version: 6.00 Build 0)  -->
<svg version="1.1" id="emoji" xmlns="http://www.w3.org/2000/svg" xmlns:xlink="http://www.w3.org/1999/xlink" x="0px" y="0px"
	 viewBox="0 0 72 72" enable-background="new 0 0 72 72" xml:space="preserve">
<g id="_xD83D__xDC32_">
	
		<path fill="#5C9E31" stroke="#5C9E31" stroke-width="2" stroke-linecap="round" stroke-linejoin="round" stroke-miterlimit="10" d="
		M22,38c0,0-4,0-7-5c0,0,3,1,6-1c0,0-5-3-7-7l7,2c0,0-4-2-3-11c0,0,1,4,5,5c0,0,4-6,10-6l3-4l3,4c0,0,6,0,10,6c0,0,3-1,5-5
		c0,0,2,6-2,11l7-3c0,0,0,5-8,9c0,0,2,1,7,0c0,0-1,5-8,5"/>
	
		<path fill="#B1CC33" stroke="#B1CC33" stroke-width="2" stroke-linecap="round" stroke-linejoin="round" stroke-miterlimit="10" d="
		M26,38c0,0,0-1,4.1-0.9c0,0,5.9-4,11.9,0c0,0,4.1,0.9,4.1,2.9c0,0,4,3,1.9,6c0,0,0,4-5.9,7.9c0,0-4,2-11.9,0c0,0-7.3-6.1-6.1-10.9
		C25,39,26,38,26,38z"/>
	<path fill="none" stroke="#000000" stroke-width="2" stroke-linecap="round" stroke-linejoin="round" stroke-miterlimit="10" d="
		M31,46v4c-3-3-3-7-3-7s8,7,16,0c0,0,1,5-3,7v-4"/>
	
		<path fill="#EA5A47" stroke="#EA5A47" stroke-width="2" stroke-linecap="round" stroke-linejoin="round" stroke-miterlimit="10" d="
		M34,49c0,0,0,10-2,11c0,0,4-1,4-5c0,0,1,4,4,5c0,0-3-7-2-11H34z"/>
	<path fill="none" stroke="#000000" stroke-width="2" stroke-linecap="round" stroke-linejoin="round" stroke-miterlimit="10" d="
		M27,23c0,0,7,2,9,8c0,0,2-7,10-8"/>
	<circle cx="29" cy="30" r="2"/>
	<circle cx="43" cy="30" r="2"/>
	<circle cx="34" cy="39" r="1"/>
	<circle cx="38" cy="39" r="1"/>
	<path fill="none" stroke="#000000" stroke-width="2" stroke-linecap="round" stroke-linejoin="round" stroke-miterlimit="10" d="
		M34,49c0,0,0,10-2,11c0,0,4-1,4-5c0,0,1,4,4,5c0,0-3-7-2-11"/>
	<path fill="none" stroke="#000000" stroke-width="2" stroke-linecap="round" stroke-linejoin="round" stroke-miterlimit="10" d="
		M22,38c0,0-4,0-7-5c0,0,3,1,6-1c0,0-5-3-7-7l7,2c0,0-4-2-3-11c0,0,1,4,5,5c0,0,4-6,10-6l3-4l3,4c0,0,6,0,10,6c0,0,3-1,5-5
		c0,0,2,6-2,11l7-3c0,0,0,5-8,9c0,0,2,1,7,0c0,0-1,5-8,5"/>
	<path fill="none" stroke="#000000" stroke-width="2" stroke-linecap="round" stroke-linejoin="round" stroke-miterlimit="10" d="
		M25,39c0,0-1-3,5-2c0,0,6-5,12,0c0,0,5-1,5,2"/>
	<path fill="none" stroke="#000000" stroke-width="2" stroke-linecap="round" stroke-linejoin="round" stroke-miterlimit="10" d="
		M29,40c0,0-6-1-9,3s-6,4-8,2"/>
	<path fill="none" stroke="#000000" stroke-width="2" stroke-linecap="round" stroke-linejoin="round" stroke-miterlimit="10" d="
		M43,40c0,0,6-1,9,3s6,4,8,2"/>
	<path fill="#FFFFFF" d="M31,46v4c-3-3-3-7-3-7s8,7,16,0c0,0,1,5-3,7v-4"/>
	<path fill="none" stroke="#000000" stroke-width="2" stroke-linecap="round" stroke-linejoin="round" stroke-miterlimit="10" d="
		M23.3,40.6c0,0-1.3,10.4,6.7,13.4"/>
	<path fill="none" stroke="#000000" stroke-width="2" stroke-linecap="round" stroke-linejoin="round" stroke-miterlimit="10" d="
		M49.2,40.8c0,0-0.2,10.2-7.2,13.2"/>
	<path fill="none" stroke="#000000" stroke-width="2" stroke-linecap="round" stroke-linejoin="round" stroke-miterlimit="10" d="
		M31,46v4c-3-3-3-7-3-7s8,7,16,0c0,0,1,5-3,7v-4"/>
</g>
</svg>
