<?xml version="1.0" encoding="utf-8"?>
<!-- Generator: Adobe Illustrator 21.1.0, SVG Export Plug-In . SVG Version: 6.00 Build 0)  -->
<svg version="1.1" id="emoji" xmlns="http://www.w3.org/2000/svg" xmlns:xlink="http://www.w3.org/1999/xlink" x="0px" y="0px"
	 viewBox="0 0 72 72" enable-background="new 0 0 72 72" xml:space="preserve">
<g id="_xD83D__xDC4A__xFE0F_">
	<path fill="#FCEA35" d="M39.1,24.8l0,16.7c0,1.2-5.7,6.7-4.9,8.9c0.6,1.6,7-0.2,8-0.1c2.1,0.1,8.9-1.9,8.9-2.3c0-0.3,0-6.4,0-6.7
		c0.1-1.6,0.9-10.8-0.5-11.9c-0.2-0.1-1.4-0.4-1.4-0.4l-2.2,0c-0.5-0.2-1-1.1-1-3.2"/>
	<path fill="#FCEA35" d="M18,27.7l0,8.6c-0.3,1.9,1.1,3.7,3,4s3.7-1.1,4-3c0-0.3,0-0.6,0-0.9l0-8.6"/>
	<path fill="#FCEA35" d="M32.1,24.8L32,43.2c-4.3,2.4,1.1,5.9,3,6.2s3.7-3.3,4-5.3c0-0.3,0-0.6,0-0.9l0.1-17.5"/>
	<path fill="#FCEA35" d="M25.1,26.7L25,41.2c-0.3,1.9,1.1,3.7,3,4s3.7-1.1,4-3c0-0.3,0-2.7,0-3l0.1-12.4"/>
	<path fill="#FCEA35" d="M25,27.7c0.3-1.9-1.1-3.7-3-4s-3.7,1.1-4,3c0,0.3,0,0.6,0,0.9"/>
	<path fill="#FCEA35" d="M46.1,25.7c0.3-1.9-1.1-3.7-3-4s-3.7,1.1-4,3"/>
	<path fill="#FCEA35" d="M32.1,26.7c0.3-1.9-1.1-3.7-3-4s-3.7,1.1-4,3c0,0.3,0,0.6,0,0.9"/>
	<path fill="#FCEA35" d="M39.1,25.8c0.3-1.9-1.1-3.7-3-4s-3.7,1.1-4,3"/>
	<path fill="#FCEA35" d="M49.7,37"/>
	<g>
		<path fill="#FCEA35" d="M51,47.4c-0.2,2.2-2,4-4.2,4h-10"/>
		<line fill="#FCEA35" x1="51" y1="47.4" x2="51" y2="33.1"/>
		<path fill="#FCEA35" d="M36.8,51.4c-2,0-7.8,3.6-6.6-6.2"/>
		<path fill="#FCEA35" d="M51,33.1c0-1.5,0-3.2-1.6-3.2"/>
	</g>
	<path fill="none" stroke="#010101" stroke-width="2" stroke-linecap="round" stroke-linejoin="round" d="M39.1,36v5.4
		c-0.3,1.9,1.1,3.7,3,4s3.7-1.1,4-3c0-0.3,0-0.6,0-0.9l0-15.8"/>
	<path fill="none" stroke="#010101" stroke-width="2" stroke-linecap="round" stroke-linejoin="round" d="M18,27.7l0,8.6
		c-0.3,1.9,1.1,3.7,3,4s3.7-1.1,4-3c0-0.3,0-0.6,0-0.9v-1"/>
	<path fill="none" stroke="#010101" stroke-width="2" stroke-linecap="round" stroke-linejoin="round" d="M32,32l0,11.2
		c-0.3,1.9,1.1,3.7,3,4s3.7-1.1,4-3c0-0.3,0-0.6,0-0.9l0.1-12.2"/>
	<path fill="none" stroke="#010101" stroke-width="2" stroke-linecap="round" stroke-linejoin="round" d="M25,32.6l0,8.7
		c-0.3,1.9,1.1,3.7,3,4s3.7-1.1,4-3c0-0.3,0-2.7,0-3v-3.9"/>
	<path fill="none" stroke="#010101" stroke-width="2" stroke-linecap="round" stroke-linejoin="round" d="M25,27.7
		c0.3-1.9-1.1-3.7-3-4s-3.7,1.1-4,3c0,0.3,0,0.6,0,0.9"/>
	<path fill="none" stroke="#010101" stroke-width="2" stroke-linecap="round" stroke-linejoin="round" d="M46.1,25.7
		c0.3-1.9-1.1-3.7-3-4s-3.7,1.1-4,3"/>
	<path fill="none" stroke="#010101" stroke-width="2" stroke-linecap="round" stroke-linejoin="round" d="M32.1,26.7
		c0.3-1.9-1.1-3.7-3-4s-3.7,1.1-4,3c0,0.3,0,0.6,0,0.9"/>
	<path fill="none" stroke="#010101" stroke-width="2" stroke-linecap="round" stroke-linejoin="round" d="M39.1,25.8
		c0.3-1.9-1.1-3.7-3-4s-3.7,1.1-4,3"/>
	<path fill="none" stroke="#010101" stroke-width="2" stroke-linecap="round" stroke-linejoin="round" d="M49.7,37"/>
	<g>
		<path fill="none" stroke="#010101" stroke-width="2" stroke-linecap="round" stroke-linejoin="round" d="M51,47.4
			c-0.2,2.2-2,4-4.2,4h-10"/>
		
			<line fill="none" stroke="#010101" stroke-width="2" stroke-linecap="round" stroke-linejoin="round" x1="51" y1="47.4" x2="51" y2="33.1"/>
		<path fill="none" stroke="#1D1D1B" stroke-width="2" stroke-linecap="round" stroke-linejoin="round" stroke-miterlimit="10" d="
			M36.8,51.4c-2,0-5.7,0.5-5.7-2.4"/>
		<path fill="none" stroke="#1D1D1B" stroke-width="2" stroke-linecap="round" stroke-linejoin="round" stroke-miterlimit="10" d="
			M51,33.1c0-1.5,0-3.2-1.6-3.2"/>
	</g>
</g>
</svg>
