<?xml version="1.0" encoding="utf-8"?>
<!-- Generator: Adobe Illustrator 21.1.0, SVG Export Plug-In . SVG Version: 6.00 Build 0)  -->
<svg version="1.1" id="emoji" xmlns="http://www.w3.org/2000/svg" xmlns:xlink="http://www.w3.org/1999/xlink" x="0px" y="0px"
	 viewBox="0 0 72 72" enable-background="new 0 0 72 72" xml:space="preserve">
<g id="_xD83D__xDC4A__xFE0F_">
	<path fill="#FCEA35" d="M39,44.2c-0.3,1.9-2,5.5-4,5.3c-0.2,0-0.5-0.1-0.8-0.2c0.7-2.4,4.3-6.2,4.8-7.5l0,1.6
		C39,43.5,39,43.9,39,44.2z"/>
	<path fill="#FCEA35" d="M32.1,25.7l0,1h0C32.1,26.4,32.1,26,32.1,25.7z M39.1,24.8v0.9C39.1,25.4,39.1,25.1,39.1,24.8z"/>
	<path fill="#FCEA35" d="M50.7,29.3c-0.2-0.1-1.4-0.4-1.4-0.4l-2.2,0c-0.5-0.2-1-1.1-1-3.2c0.3-1.9-1.1-3.7-3-4
		c-1.9-0.3-3.7,1.1-4,3v0.1c0,0.3,0,0.6,0,0.9v-0.9c-0.2-1.5-1.4-2.8-3-3c-1.9-0.3-3.7,1.1-4,3v0.9c0,0.3,0,0.6,0,1h0l0-1
		c-0.2-1.5-1.4-2.8-3-3c-1.9-0.3-3.7,1.1-4,3c0,0.3,0,0.6,0,0.9v1H25c0.2-1.9-1.1-3.7-3-4c-1.9-0.3-3.7,1.1-4,3c0,0.3,0,0.6,0,0.9h0
		l0,8.6c-0.3,1.9,1.1,3.7,3,4c1.9,0.2,3.7-1.1,4-3c0-0.1,0-0.2,0-0.3l0,4.3c-0.3,1.9,1.1,3.7,3,4c0.9,0.1,1.8-0.1,2.6-0.7
		c0.2-0.3,0.5-0.7,0.9-1c0.3-0.4,0.4-0.9,0.5-1.4v1.1c-0.2,0.1-0.4,0.2-0.5,0.3c-0.2,0.4-0.5,0.7-0.9,1c-0.9,1.9,1.8,4,3.6,4.6
		c-0.1,0.5-0.1,0.9,0,1.2c0.6,1.6,7-0.2,8-0.2c2.1,0.1,8.9-1.9,8.9-2.3c0-0.3,0-6.4,0-6.7C51.3,39.6,52.1,30.5,50.7,29.3z M25,36.6
		c0-0.1,0-0.2,0-0.3l0-0.2V36.6z M32,42.1l0-2.7C32,40.1,32,41.7,32,42.1z M32,39.3c0-0.1,0-0.2,0-0.2l0-8.5L32,39.3z"/>
	<path fill="#FCEA35" d="M31.5,43.5c-0.2,0.4-0.5,0.7-0.9,1C30.8,44.2,31.1,43.9,31.5,43.5z"/>
	<path fill="#FCEA35" d="M32,39.4c0,0.7,0,2.3,0,2.7L32,39.4z"/>
	<path fill="#FCEA35" d="M31.5,43.5c-0.2,0.4-0.5,0.7-0.9,1C30.8,44.2,31.1,43.9,31.5,43.5z"/>
	<path fill="#FCEA35" d="M32,42.1l0-2.7C32,40.1,32,41.7,32,42.1z"/>
	<path fill="#FCEA35" d="M32.1,26.7L32.1,26.7v-1C32.1,26,32.1,26.4,32.1,26.7z"/>
	<path fill="#FCEA35" d="M39.1,25.8v-0.9C39.1,25.1,39.1,25.4,39.1,25.8z"/>
	<path fill="#FCEA35" d="M49.7,37"/>
	<g>
		<path fill="#FCEA35" d="M51,47.4c-0.2,2.2-2,4-4.2,4h-10L51,47.4z"/>
		<line fill="none" x1="51" y1="47.4" x2="51" y2="33.1"/>
		<path fill="#FCEA35" d="M36.8,51.4c-2,0-7.8,3.6-6.6-6.2L36.8,51.4z"/>
		<path fill="#FCEA35" d="M51,33.1c0-1.5,0-3.2-1.6-3.2L51,33.1z"/>
	</g>
	<path fill="none" stroke="#010101" stroke-width="2" stroke-linecap="round" stroke-linejoin="round" d="M39.1,36v5.4
		c-0.3,1.9,1.1,3.7,3,4s3.7-1.1,4-3c0-0.3,0-0.6,0-0.9l0-15.8"/>
	<path fill="none" stroke="#010101" stroke-width="2" stroke-linecap="round" stroke-linejoin="round" d="M18,27.7l0,8.6
		c-0.3,1.9,1.1,3.7,3,4s3.7-1.1,4-3c0-0.3,0-0.6,0-0.9v-1"/>
	<path fill="none" stroke="#010101" stroke-width="2" stroke-linecap="round" stroke-linejoin="round" d="M32,32l0,11.2
		c-0.3,1.9,1.1,3.7,3,4s3.7-1.1,4-3c0-0.3,0-0.6,0-0.9l0.1-12.2"/>
	<path fill="none" stroke="#010101" stroke-width="2" stroke-linecap="round" stroke-linejoin="round" d="M25,32.6l0,8.7
		c-0.3,1.9,1.1,3.7,3,4s3.7-1.1,4-3c0-0.3,0-2.7,0-3v-3.9"/>
	<path fill="none" stroke="#010101" stroke-width="2" stroke-linecap="round" stroke-linejoin="round" d="M25,27.7
		c0.3-1.9-1.1-3.7-3-4s-3.7,1.1-4,3c0,0.3,0,0.6,0,0.9"/>
	<path fill="none" stroke="#010101" stroke-width="2" stroke-linecap="round" stroke-linejoin="round" d="M46.1,25.7
		c0.3-1.9-1.1-3.7-3-4s-3.7,1.1-4,3"/>
	<path fill="none" stroke="#010101" stroke-width="2" stroke-linecap="round" stroke-linejoin="round" d="M32.1,26.7
		c0.3-1.9-1.1-3.7-3-4s-3.7,1.1-4,3c0,0.3,0,0.6,0,0.9"/>
	<path fill="none" stroke="#010101" stroke-width="2" stroke-linecap="round" stroke-linejoin="round" d="M39.1,25.8
		c0.3-1.9-1.1-3.7-3-4s-3.7,1.1-4,3"/>
	<path fill="none" stroke="#010101" stroke-width="2" stroke-linecap="round" stroke-linejoin="round" d="M49.7,37"/>
	<g>
		<path fill="none" stroke="#010101" stroke-width="2" stroke-linecap="round" stroke-linejoin="round" d="M51,47.4
			c-0.2,2.2-2,4-4.2,4h-10"/>
		
			<line fill="none" stroke="#010101" stroke-width="2" stroke-linecap="round" stroke-linejoin="round" x1="51" y1="47.4" x2="51" y2="33.1"/>
		<path fill="none" stroke="#1D1D1B" stroke-width="2" stroke-linecap="round" stroke-linejoin="round" stroke-miterlimit="10" d="
			M36.8,51.4c-2,0-5.7,0.5-5.7-2.4"/>
		<path fill="none" stroke="#1D1D1B" stroke-width="2" stroke-linecap="round" stroke-linejoin="round" stroke-miterlimit="10" d="
			M51,33.1c0-1.5,0-3.2-1.6-3.2"/>
	</g>
</g>
</svg>
