<?xml version="1.0" encoding="utf-8"?>
<!-- Generator: Adobe Illustrator 21.1.0, SVG Export Plug-In . SVG Version: 6.00 Build 0)  -->
<svg version="1.1" id="emoji" xmlns="http://www.w3.org/2000/svg" xmlns:xlink="http://www.w3.org/1999/xlink" x="0px" y="0px"
	 viewBox="0 0 72 72" enable-background="new 0 0 72 72" xml:space="preserve">
<g id="_xD83D__xDC45__1_">
	<path fill="none" stroke="#1D1D1B" stroke-width="2" stroke-linecap="round" stroke-linejoin="round" stroke-miterlimit="10" d="
		M62.4,12.5C56.3,19.6,49,22.2,36,22.2c-13,0-20.3-2.6-26.4-9.7"/>
	<path fill="none" d="M15.6,21.8c0,0,18.7,0,41.8,0"/>
	<path fill="#E95947" d="M57,16.8c0,6-41.8,7.8-41.3,1C6,53,25,60.4,36.5,60.4S68.4,54.4,57,16.8z"/>
	<path fill="none" stroke="#1D1D1B" stroke-width="2" stroke-linecap="round" stroke-linejoin="round" stroke-miterlimit="10" d="
		M62.4,12.5C56.3,19.6,49,22.2,36,22.2c-13,0-20.3-2.6-26.4-9.7"/>
	<path fill="none" stroke="#1D1D1B" stroke-width="2" stroke-linecap="round" stroke-linejoin="round" stroke-miterlimit="10" d="
		M57.4,21.8c9.1,33.4-9.3,38.6-20.9,38.6s-30-5.2-20.9-38.6"/>
	
		<line fill="none" stroke="#1D1D1B" stroke-width="2" stroke-linecap="round" stroke-linejoin="round" stroke-miterlimit="10" x1="36.5" y1="60.4" x2="36.5" y2="34.2"/>
</g>
</svg>
