<?xml version="1.0" encoding="utf-8"?>
<!-- Generator: Adobe Illustrator 21.1.0, SVG Export Plug-In . SVG Version: 6.00 Build 0)  -->
<svg version="1.1" id="emoji" xmlns="http://www.w3.org/2000/svg" xmlns:xlink="http://www.w3.org/1999/xlink" x="0px" y="0px"
	 viewBox="0 0 72 72" enable-background="new 0 0 72 72" xml:space="preserve">
<g id="_xD83D__xDC43__1_">
	<path fill="#FCEA2F" d="M46,41.9c-1.1-3.8-4.4-14.9-3.2-30H29.5c1.2,15.2-2.1,26.2-3.2,30"/>
	<path fill="#FCEA2F" d="M50.2,36.7c7.6,4.7,2.8,12.8-1.7,14C44.6,51.8,46,60.1,36,60c-10,0-8.6-8.2-12.6-9.3
		c-4.5-1.3-9.3-9.4-1.7-14"/>
	<path fill="none" stroke="#1D1D1B" stroke-width="2" stroke-linecap="round" stroke-linejoin="round" stroke-miterlimit="10" d="
		M29.5,12.9c1.2,14.7-2.1,25.3-3.2,29"/>
	<path fill="none" stroke="#1D1D1B" stroke-width="2" stroke-linecap="round" stroke-linejoin="round" stroke-miterlimit="10" d="
		M42.9,12.9c-1.2,14.7,2.1,25.3,3.2,29"/>
	<path fill="none" stroke="#1D1D1B" stroke-width="2" stroke-linecap="round" stroke-linejoin="round" stroke-miterlimit="10" d="
		M50.2,37.7c7.6,4.7,2.8,11.8-1.7,13C44.6,51.8,46,60.1,36,60c-10,0-8.6-8.2-12.6-9.3c-4.5-1.3-9.3-8.4-1.7-13"/>
</g>
</svg>
