<?xml version="1.0" encoding="utf-8"?>
<!-- Generator: Adobe Illustrator 21.1.0, SVG Export Plug-In . SVG Version: 6.00 Build 0)  -->
<svg version="1.1" id="emoji" xmlns="http://www.w3.org/2000/svg" xmlns:xlink="http://www.w3.org/1999/xlink" x="0px" y="0px"
	 viewBox="0 0 72 72" enable-background="new 0 0 72 72" xml:space="preserve">
<g id="_xD83D__xDC49__xFE0F__1_">
	<path fill="#FBEA2E" d="M26.3,55.3c-12,0-18.4-7.2-18.4-16.2S5.7,22.4,39.1,22.4"/>
	<line fill="#FBEA2E" x1="25.2" y1="55.5" x2="37.2" y2="55.5"/>
	<path fill="#FBEA2E" d="M37.5,48.5c1.9,0.1,3.4,1.7,3.4,3.6c-0.1,1.9-1.7,3.4-3.6,3.4"/>
	<path fill="#FBEA2E" d="M37.8,41.5c1.9,0.1,3.4,1.7,3.4,3.6c-0.1,1.9-1.7,3.4-3.6,3.4"/>
	<path fill="#FBEA2E" d="M37.9,41.5c1.9,0.2,3.4,1.8,3.2,3.8c-0.2,1.9-1.8,3.4-3.8,3.2"/>
	<path fill="#FBEA2E" d="M38.2,34.5c1.9,0.1,3.4,1.8,3.3,3.7s-1.8,3.4-3.7,3.3"/>
	<path fill="#FBEA2E" d="M28.9,23c7.6-5.9,10.7-6.7,12-5.4c1.3,1.4-0.8,5.7-2.2,7"/>
	<path fill="#FBEA2E" d="M60.6,27.5c1.9,0,3.5,1.6,3.5,3.5s-1.6,3.5-3.5,3.5"/>
	<line fill="#FBEA2E" x1="38.3" y1="34.5" x2="60.6" y2="34.5"/>
	<line fill="#FBEA2E" x1="60.6" y1="27.5" x2="32.8" y2="27.5"/>
	<line fill="#FBEA2E" x1="38.7" y1="24.5" x2="40.9" y2="22.5"/>
	<path fill="#FBEA2E" d="M33.7,19.3c-2.1,2-5.2,3.4-9.5,3.3"/>
	<line fill="#FBEA2E" x1="36" y1="17.5" x2="33.6" y2="19.3"/>
	<polygon fill="#FBEA2E" points="33.2,34.6 35.2,27.5 61,27.5 61,34.5 	"/>
	
		<rect x="21.7" y="38.9" transform="matrix(-1.836970e-16 1 -1 -1.836970e-16 77.2085 12.8684)" fill="#FBEA2E" width="20.9" height="12.2"/>
	<polygon fill="#FBEA2E" points="35.1,27.5 36.1,24.8 39.2,25.3 36.3,27.5 	"/>
	<path fill="none" stroke="#1D1D1B" stroke-width="2" stroke-linecap="round" stroke-linejoin="round" stroke-miterlimit="10" d="
		M24.4,55.5c-9.1,0-16.5-7.4-16.5-16.5s7.4-16.5,16.5-16.5"/>
	
		<line fill="none" stroke="#1D1D1B" stroke-width="2" stroke-linecap="round" stroke-linejoin="round" stroke-miterlimit="10" x1="25.2" y1="55.5" x2="37.2" y2="55.5"/>
	<path fill="none" stroke="#1D1D1B" stroke-width="2" stroke-linecap="round" stroke-linejoin="round" stroke-miterlimit="10" d="
		M37.5,48.5c1.9,0.1,3.4,1.7,3.4,3.6c-0.1,1.9-1.7,3.4-3.6,3.4"/>
	<path fill="none" stroke="#1D1D1B" stroke-width="2" stroke-linecap="round" stroke-linejoin="round" stroke-miterlimit="10" d="
		M37.8,41.5c1.9,0.1,3.4,1.7,3.4,3.6c-0.1,1.9-1.7,3.4-3.6,3.4"/>
	<path fill="none" stroke="#1D1D1B" stroke-width="2" stroke-linecap="round" stroke-linejoin="round" stroke-miterlimit="10" d="
		M37.9,41.5c1.9,0.2,3.4,1.8,3.2,3.8c-0.2,1.9-1.8,3.4-3.8,3.2"/>
	<path fill="none" stroke="#1D1D1B" stroke-width="2" stroke-linecap="round" stroke-linejoin="round" stroke-miterlimit="10" d="
		M38.2,34.5c1.9,0.1,3.4,1.8,3.3,3.7s-1.8,3.4-3.7,3.3"/>
	<path fill="none" stroke="#1D1D1B" stroke-width="2" stroke-linecap="round" stroke-linejoin="round" stroke-miterlimit="10" d="
		M36,17.5c1.4-1.3,3.6-1.3,4.9,0.1c1.3,1.4,1.3,3.6-0.1,4.9"/>
	<path fill="none" stroke="#1D1D1B" stroke-width="2" stroke-linecap="round" stroke-linejoin="round" stroke-miterlimit="10" d="
		M60.6,27.5c1.9,0,3.5,1.6,3.5,3.5s-1.6,3.5-3.5,3.5"/>
	
		<line fill="none" stroke="#1D1D1B" stroke-width="2" stroke-linecap="round" stroke-linejoin="round" stroke-miterlimit="10" x1="38.3" y1="34.5" x2="60.6" y2="34.5"/>
	
		<line fill="none" stroke="#1D1D1B" stroke-width="2" stroke-linecap="round" stroke-linejoin="round" stroke-miterlimit="10" x1="60.6" y1="27.5" x2="32.8" y2="27.5"/>
	
		<line fill="none" stroke="#1D1D1B" stroke-width="2" stroke-linecap="round" stroke-linejoin="round" stroke-miterlimit="10" x1="38.7" y1="24.5" x2="40.9" y2="22.5"/>
	<path fill="none" stroke="#1D1D1B" stroke-width="2" stroke-linecap="round" stroke-linejoin="round" stroke-miterlimit="10" d="
		M33.7,19.3c-2.1,2-5.2,3.4-9.5,3.3"/>
	
		<line fill="none" stroke="#1D1D1B" stroke-width="2" stroke-linecap="round" stroke-linejoin="round" stroke-miterlimit="10" x1="36" y1="17.5" x2="33.6" y2="19.3"/>
</g>
</svg>
