<?xml version="1.0" encoding="utf-8"?>
<!-- Generator: Adobe Illustrator 21.1.0, SVG Export Plug-In . SVG Version: 6.00 Build 0)  -->
<svg version="1.1" id="emoji" xmlns="http://www.w3.org/2000/svg" xmlns:xlink="http://www.w3.org/1999/xlink" x="0px" y="0px"
	 viewBox="0 0 72 72" enable-background="new 0 0 72 72" xml:space="preserve">
<g id="_xD83D__xDC4D__xFE0F__1_">
	<polygon fill="#FCEA2F" points="37.1,11.2 34.2,11.9 19,29.2 11.7,42.3 13.7,53.5 26.6,60.6 36.2,60.6 50.3,60.8 52.7,59.2 
		53.4,55.4 52.7,53.8 56.3,53.7 57.6,52 58.4,49.7 56.8,46.7 58.4,46 60.3,43.4 59.4,40.6 56.9,39.5 58.1,37.3 58.3,33.9 55.7,32.4 
		42.5,31.9 41.7,31.2 40.8,30.6 31.7,30.6 31.8,28.9 35.7,19.3 37.3,14.7 	"/>
	<path fill="none" stroke="#010101" stroke-width="2" stroke-linecap="round" stroke-linejoin="round" d="M35.2,59.6h-9
		c-8.3,0-14-6.7-14-15c0-4.8,1.8-9.4,5-13"/>
	<path fill="none" stroke="#010101" stroke-width="2" stroke-linecap="round" stroke-linejoin="round" d="M34.6,31.6h-4.4l7-18
		c0.8-2.1-2.8-3.8-5-1l-15,19"/>
	<path fill="none" stroke="#010101" stroke-width="2" stroke-linecap="round" stroke-linejoin="round" d="M37.4,35.1
		c0.2,2.1,1.9,3.6,4,3.5h13c1.9,0.3,3.7-1.1,4-3s-1.1-3.7-3-4c-0.3,0-0.6,0-0.9,0h-13C39.4,31.5,37.6,33,37.4,35.1z"/>
	<path fill="none" stroke="#010101" stroke-width="2" stroke-linecap="round" stroke-linejoin="round" d="M38.3,56.4
		c0.2,2.1,1.9,3.6,4,3.5h7c1.9,0.3,3.7-1.1,4-3s-1.1-3.7-3-4c-0.3,0-0.6,0-0.9,0h-7C40.2,52.8,38.5,54.4,38.3,56.4z"/>
	<path fill="none" stroke="#010101" stroke-width="2" stroke-linecap="round" stroke-linejoin="round" d="M33.2,42.4
		c0.2,2.1,1.9,3.6,4,3.5h19c1.9,0.3,3.7-1.1,4-3s-1.1-3.7-3-4c-0.3,0-0.6,0-0.9,0h-19C35.2,38.8,33.4,40.4,33.2,42.4z"/>
	<path fill="none" stroke="#010101" stroke-width="2" stroke-linecap="round" stroke-linejoin="round" d="M35.2,49.4
		c0.2,2.1,1.9,3.6,4,3.5h15c1.9,0.3,3.7-1.1,4-3s-1.1-3.7-3-4c-0.3,0-0.6,0-0.9,0h-15C37.2,45.8,35.4,47.4,35.2,49.4z"/>
	<path fill="none" stroke="#1D1E1C" stroke-width="2" stroke-miterlimit="10" d="M14.1,36.3c-1.2,2.5-1.8,5.1-1.9,7.8
		c0,8.6,4.6,15.5,15.1,15.5"/>
</g>
</svg>
