<?xml version="1.0" encoding="utf-8"?>
<!-- Generator: Adobe Illustrator 21.1.0, SVG Export Plug-In . SVG Version: 6.00 Build 0)  -->
<svg version="1.1" id="emoji" xmlns="http://www.w3.org/2000/svg" xmlns:xlink="http://www.w3.org/1999/xlink" x="0px" y="0px"
	 viewBox="0 0 72 72" enable-background="new 0 0 72 72" xml:space="preserve">
<g id="_xD83D__xDC48__1_">
	<path fill="none" stroke="#1D1D1B" stroke-width="2" stroke-linecap="round" stroke-linejoin="round" stroke-miterlimit="10" d="
		M47.6,55.5c9.1,0,16.5-7.4,16.5-16.5s-7.4-16.5-16.5-16.5"/>
	<g>
		<path fill="#FBEA2E" d="M45.7,55.3c12,0,18.4-7.2,18.4-16.2s-6.3-19.3-31.2-16.6"/>
		<line fill="#FBEA2E" x1="46.8" y1="55.5" x2="34.8" y2="55.5"/>
		<path fill="#FBEA2E" d="M34.5,48.5c-1.9,0.1-3.4,1.7-3.4,3.6c0.1,1.9,1.7,3.4,3.6,3.4"/>
		<path fill="#FBEA2E" d="M34.2,41.5c-1.9,0.1-3.4,1.7-3.4,3.6c0.1,1.9,1.7,3.4,3.6,3.4"/>
		<path fill="#FBEA2E" d="M34.1,41.5c-1.9,0.2-3.4,1.8-3.2,3.8c0.2,1.9,1.8,3.4,3.8,3.2"/>
		<path fill="#FBEA2E" d="M33.8,34.5c-1.9,0.1-3.4,1.8-3.3,3.7s1.8,3.4,3.7,3.3"/>
		<path fill="#FBEA2E" d="M43.1,23c-7.6-5.9-10.7-6.7-12-5.4c-1.3,1.4,0.8,5.7,2.2,7"/>
		<path fill="#FBEA2E" d="M11.4,27.5c-1.9,0-3.5,1.6-3.5,3.5s1.6,3.5,3.5,3.5"/>
		<line fill="#FBEA2E" x1="33.7" y1="34.5" x2="11.4" y2="34.5"/>
		<line fill="#FBEA2E" x1="11.4" y1="27.5" x2="39.2" y2="27.5"/>
		<line fill="#FBEA2E" x1="33.3" y1="24.5" x2="31.1" y2="22.5"/>
		<path fill="#FBEA2E" d="M38.3,19.3c2.1,2,5.2,3.4,9.5,3.3"/>
		<line fill="#FBEA2E" x1="36" y1="17.5" x2="38.4" y2="19.3"/>
		<polygon fill="#FBEA2E" points="38.8,34.6 36.8,27.5 11,27.5 11,34.5 		"/>
		
			<rect x="29.4" y="38.9" transform="matrix(-4.495001e-11 1 -1 -4.495001e-11 84.8684 5.2085)" fill="#FBEA2E" width="20.9" height="12.2"/>
		<polygon fill="#FBEA2E" points="36.9,27.5 35.9,24.8 32.8,25.3 35.7,27.5 		"/>
		
			<line fill="none" stroke="#1D1D1B" stroke-width="2" stroke-linecap="round" stroke-linejoin="round" stroke-miterlimit="10" x1="46.8" y1="55.5" x2="34.8" y2="55.5"/>
		<path fill="none" stroke="#1D1D1B" stroke-width="2" stroke-linecap="round" stroke-linejoin="round" stroke-miterlimit="10" d="
			M34.5,48.5c-1.9,0.1-3.4,1.7-3.4,3.6c0.1,1.9,1.7,3.4,3.6,3.4"/>
		<path fill="none" stroke="#1D1D1B" stroke-width="2" stroke-linecap="round" stroke-linejoin="round" stroke-miterlimit="10" d="
			M34.2,41.5c-1.9,0.1-3.4,1.7-3.4,3.6c0.1,1.9,1.7,3.4,3.6,3.4"/>
		<path fill="none" stroke="#1D1D1B" stroke-width="2" stroke-linecap="round" stroke-linejoin="round" stroke-miterlimit="10" d="
			M34.1,41.5c-1.9,0.2-3.4,1.8-3.2,3.8c0.2,1.9,1.8,3.4,3.8,3.2"/>
		<path fill="none" stroke="#1D1D1B" stroke-width="2" stroke-linecap="round" stroke-linejoin="round" stroke-miterlimit="10" d="
			M33.8,34.5c-1.9,0.1-3.4,1.8-3.3,3.7s1.8,3.4,3.7,3.3"/>
		<path fill="none" stroke="#1D1D1B" stroke-width="2" stroke-linecap="round" stroke-linejoin="round" stroke-miterlimit="10" d="
			M36,17.5c-1.4-1.3-3.6-1.3-4.9,0.1c-1.3,1.4-1.3,3.6,0.1,4.9"/>
		<path fill="none" stroke="#1D1D1B" stroke-width="2" stroke-linecap="round" stroke-linejoin="round" stroke-miterlimit="10" d="
			M11.4,27.5c-1.9,0-3.5,1.6-3.5,3.5s1.6,3.5,3.5,3.5"/>
		
			<line fill="none" stroke="#1D1D1B" stroke-width="2" stroke-linecap="round" stroke-linejoin="round" stroke-miterlimit="10" x1="33.7" y1="34.5" x2="11.4" y2="34.5"/>
		
			<line fill="none" stroke="#1D1D1B" stroke-width="2" stroke-linecap="round" stroke-linejoin="round" stroke-miterlimit="10" x1="11.4" y1="27.5" x2="39.2" y2="27.5"/>
		
			<line fill="none" stroke="#1D1D1B" stroke-width="2" stroke-linecap="round" stroke-linejoin="round" stroke-miterlimit="10" x1="33.3" y1="24.5" x2="31.1" y2="22.5"/>
		<path fill="none" stroke="#1D1D1B" stroke-width="2" stroke-linecap="round" stroke-linejoin="round" stroke-miterlimit="10" d="
			M38.3,19.3c2.1,2,5.2,3.4,9.5,3.3"/>
		
			<line fill="none" stroke="#1D1D1B" stroke-width="2" stroke-linecap="round" stroke-linejoin="round" stroke-miterlimit="10" x1="36" y1="17.5" x2="38.4" y2="19.3"/>
	</g>
	<g>
		<path fill="none" stroke="#1D1D1B" stroke-width="2" stroke-linecap="round" stroke-linejoin="round" stroke-miterlimit="10" d="
			M47.6,55.5c9.1,0,16.5-7.4,16.5-16.5s-7.4-16.5-16.5-16.5"/>
		
			<line fill="none" stroke="#1D1D1B" stroke-width="2" stroke-linecap="round" stroke-linejoin="round" stroke-miterlimit="10" x1="46.8" y1="55.5" x2="34.8" y2="55.5"/>
		<path fill="none" stroke="#1D1D1B" stroke-width="2" stroke-linecap="round" stroke-linejoin="round" stroke-miterlimit="10" d="
			M34.5,48.5c-1.9,0.1-3.4,1.7-3.4,3.6c0.1,1.9,1.7,3.4,3.6,3.4"/>
		<path fill="none" stroke="#1D1D1B" stroke-width="2" stroke-linecap="round" stroke-linejoin="round" stroke-miterlimit="10" d="
			M34.2,41.5c-1.9,0.1-3.4,1.7-3.4,3.6c0.1,1.9,1.7,3.4,3.6,3.4"/>
		<path fill="none" stroke="#1D1D1B" stroke-width="2" stroke-linecap="round" stroke-linejoin="round" stroke-miterlimit="10" d="
			M34.1,41.5c-1.9,0.2-3.4,1.8-3.2,3.8c0.2,1.9,1.8,3.4,3.8,3.2"/>
		<path fill="none" stroke="#1D1D1B" stroke-width="2" stroke-linecap="round" stroke-linejoin="round" stroke-miterlimit="10" d="
			M33.8,34.5c-1.9,0.1-3.4,1.8-3.3,3.7s1.8,3.4,3.7,3.3"/>
		<path fill="none" stroke="#1D1D1B" stroke-width="2" stroke-linecap="round" stroke-linejoin="round" stroke-miterlimit="10" d="
			M36,17.5c-1.4-1.3-3.6-1.3-4.9,0.1c-1.3,1.4-1.3,3.6,0.1,4.9"/>
		<path fill="none" stroke="#1D1D1B" stroke-width="2" stroke-linecap="round" stroke-linejoin="round" stroke-miterlimit="10" d="
			M11.4,27.5c-1.9,0-3.5,1.6-3.5,3.5s1.6,3.5,3.5,3.5"/>
		
			<line fill="none" stroke="#1D1D1B" stroke-width="2" stroke-linecap="round" stroke-linejoin="round" stroke-miterlimit="10" x1="33.7" y1="34.5" x2="11.4" y2="34.5"/>
		
			<line fill="none" stroke="#1D1D1B" stroke-width="2" stroke-linecap="round" stroke-linejoin="round" stroke-miterlimit="10" x1="11.4" y1="27.5" x2="39.2" y2="27.5"/>
		
			<line fill="none" stroke="#1D1D1B" stroke-width="2" stroke-linecap="round" stroke-linejoin="round" stroke-miterlimit="10" x1="33.3" y1="24.5" x2="31.1" y2="22.5"/>
		<path fill="none" stroke="#1D1D1B" stroke-width="2" stroke-linecap="round" stroke-linejoin="round" stroke-miterlimit="10" d="
			M38.3,19.3c2.1,2,5.2,3.4,9.5,3.3"/>
		
			<line fill="none" stroke="#1D1D1B" stroke-width="2" stroke-linecap="round" stroke-linejoin="round" stroke-miterlimit="10" x1="36" y1="17.5" x2="38.4" y2="19.3"/>
	</g>
</g>
</svg>
