<?xml version="1.0" encoding="utf-8"?>
<!-- Generator: Adobe Illustrator 21.1.0, SVG Export Plug-In . SVG Version: 6.00 Build 0)  -->
<svg version="1.1" id="emoji" xmlns="http://www.w3.org/2000/svg" xmlns:xlink="http://www.w3.org/1999/xlink" x="0px" y="0px"
	 viewBox="0 0 72 72" enable-background="new 0 0 72 72" xml:space="preserve">
<g id="_xD83D__xDC47__xFE0F__1_">
	<path fill="#FBEA2E" d="M16.7,26.3c0-12,7.2-18.4,16.2-18.4s16.6-2.2,16.6,31.2"/>
	<line fill="#FBEA2E" x1="16.5" y1="25.3" x2="16.5" y2="37.3"/>
	<path fill="#FBEA2E" d="M23.5,37.6c-0.1,1.9-1.7,3.4-3.6,3.4s-3.4-1.7-3.4-3.6"/>
	<path fill="#FBEA2E" d="M30.5,37.8c-0.1,1.9-1.7,3.4-3.6,3.4s-3.4-1.7-3.4-3.6"/>
	<path fill="#FBEA2E" d="M30.5,37.9c-0.2,1.9-1.8,3.4-3.8,3.2s-3.4-1.8-3.2-3.8"/>
	<path fill="#FBEA2E" d="M37.5,38.3c-0.1,1.9-1.8,3.4-3.7,3.3s-3.4-1.8-3.3-3.7"/>
	<path fill="#FBEA2E" d="M49.1,29c5.9,7.6,6.7,10.7,5.4,12s-5.7-0.8-7-2.2"/>
	<path fill="#FBEA2E" d="M44.5,60.6c0,1.9-1.6,3.5-3.5,3.5c-1.9,0-3.5-1.6-3.5-3.5"/>
	<line fill="#FBEA2E" x1="37.5" y1="38.3" x2="37.5" y2="60.6"/>
	<line fill="#FBEA2E" x1="44.5" y1="60.6" x2="44.5" y2="32.8"/>
	<line fill="#FBEA2E" x1="47.5" y1="38.7" x2="49.5" y2="40.9"/>
	<path fill="#FBEA2E" d="M52.7,33.7c-2-2.1-3.4-5.2-3.3-9.5"/>
	<line fill="#FBEA2E" x1="54.5" y1="36" x2="52.7" y2="33.7"/>
	<polygon fill="#FBEA2E" points="37.4,33.2 44.5,35.2 44.5,61 37.5,61 	"/>
	
		<rect x="16.5" y="26.1" transform="matrix(-1 4.494970e-11 -4.494970e-11 -1 53.9536 64.3706)" fill="#FBEA2E" width="20.9" height="12.2"/>
	<polygon fill="#FBEA2E" points="44.5,35.1 47.2,36.1 46.7,39.3 44.5,36.3 	"/>
	<path fill="none" stroke="#1D1D1B" stroke-width="2" stroke-linecap="round" stroke-linejoin="round" stroke-miterlimit="10" d="
		M16.5,24.4c0-9.1,7.4-16.5,16.5-16.5s16.5,7.4,16.5,16.5"/>
	
		<line fill="none" stroke="#1D1D1B" stroke-width="2" stroke-linecap="round" stroke-linejoin="round" stroke-miterlimit="10" x1="16.5" y1="25.3" x2="16.5" y2="37.3"/>
	<path fill="none" stroke="#1D1D1B" stroke-width="2" stroke-linecap="round" stroke-linejoin="round" stroke-miterlimit="10" d="
		M23.5,37.6c-0.1,1.9-1.7,3.4-3.6,3.4s-3.4-1.7-3.4-3.6"/>
	<path fill="none" stroke="#1D1D1B" stroke-width="2" stroke-linecap="round" stroke-linejoin="round" stroke-miterlimit="10" d="
		M30.5,37.8c-0.1,1.9-1.7,3.4-3.6,3.4s-3.4-1.7-3.4-3.6"/>
	<path fill="none" stroke="#1D1D1B" stroke-width="2" stroke-linecap="round" stroke-linejoin="round" stroke-miterlimit="10" d="
		M30.5,37.9c-0.2,1.9-1.8,3.4-3.8,3.2s-3.4-1.8-3.2-3.8"/>
	<path fill="none" stroke="#1D1D1B" stroke-width="2" stroke-linecap="round" stroke-linejoin="round" stroke-miterlimit="10" d="
		M37.5,38.3c-0.1,1.9-1.8,3.4-3.7,3.3s-3.4-1.8-3.3-3.7"/>
	<path fill="none" stroke="#1D1D1B" stroke-width="2" stroke-linecap="round" stroke-linejoin="round" stroke-miterlimit="10" d="
		M54.5,36c1.3,1.4,1.3,3.6-0.1,4.9s-3.6,1.3-4.9-0.1"/>
	<path fill="none" stroke="#1D1D1B" stroke-width="2" stroke-linecap="round" stroke-linejoin="round" stroke-miterlimit="10" d="
		M44.5,60.6c0,1.9-1.6,3.5-3.5,3.5c-1.9,0-3.5-1.6-3.5-3.5"/>
	
		<line fill="none" stroke="#1D1D1B" stroke-width="2" stroke-linecap="round" stroke-linejoin="round" stroke-miterlimit="10" x1="37.5" y1="38.3" x2="37.5" y2="60.6"/>
	
		<line fill="none" stroke="#1D1D1B" stroke-width="2" stroke-linecap="round" stroke-linejoin="round" stroke-miterlimit="10" x1="44.5" y1="60.6" x2="44.5" y2="32.8"/>
	
		<line fill="none" stroke="#1D1D1B" stroke-width="2" stroke-linecap="round" stroke-linejoin="round" stroke-miterlimit="10" x1="47.5" y1="38.7" x2="49.5" y2="40.9"/>
	<path fill="none" stroke="#1D1D1B" stroke-width="2" stroke-linecap="round" stroke-linejoin="round" stroke-miterlimit="10" d="
		M52.7,33.7c-2-2.1-3.4-5.2-3.3-9.5"/>
	
		<line fill="none" stroke="#1D1D1B" stroke-width="2" stroke-linecap="round" stroke-linejoin="round" stroke-miterlimit="10" x1="54.5" y1="36" x2="52.7" y2="33.7"/>
</g>
</svg>
