<?xml version="1.0" encoding="utf-8"?>
<!-- Generator: Adobe Illustrator 21.1.0, SVG Export Plug-In . SVG Version: 6.00 Build 0)  -->
<svg version="1.1" id="emoji" xmlns="http://www.w3.org/2000/svg" xmlns:xlink="http://www.w3.org/1999/xlink" x="0px" y="0px"
	 viewBox="0 0 72 72" enable-background="new 0 0 72 72" xml:space="preserve">
<g id="_xD83D__xDC5A_">
	<path fill="#8967AA" stroke="#8967AA" stroke-width="2" stroke-miterlimit="10" d="M16.4,17l-7.3,8.1c0,0,1.4,3,7.3,5.1l3.6,1.4"/>
	<path fill="#8967AA" d="M16.4,17l-7.8,7.8c0,0,1.8,3.3,7.8,5.4"/>
	<path fill="#8967AA" stroke="#8967AA" stroke-width="2" stroke-miterlimit="10" d="M56.6,17l7.3,8.2c0,0-1.3,2.9-7.2,5l-3.4,1.3"/>
	
		<path fill="#8967AA" stroke="#1D1D1B" stroke-width="2.0957" stroke-linecap="round" stroke-linejoin="round" stroke-miterlimit="10" d="
		M56.6,17l7.8,7.8c0,0-1.8,3.3-7.8,5.4"/>
	
		<path fill="none" stroke="#1D1D1B" stroke-width="2.0957" stroke-linecap="round" stroke-linejoin="round" stroke-miterlimit="10" d="
		M16.4,17l-7.8,7.8c0,0,1.8,3.3,7.8,5.4"/>
	<path fill="#B399C8" d="M29.4,16c0,1.5,3.2,2.6,7.2,2.6s7.2-1.2,7.2-2.6h2.9l-2.9,13.6l-8.2,5.3l-8.8-9L25.2,16L29.4,16z"/>
	
		<path fill="#8967AA" stroke="#1D1D1B" stroke-width="2.0957" stroke-linecap="round" stroke-linejoin="round" stroke-miterlimit="10" d="
		M36.4,61h-20c0,0,3.9-7.3,3.9-22s-3.9-22-3.9-22h9.9c0,6.1,5.3,6.6,5.3,6.6l4.8,10.2h0.2l4.8-10.2c0,0,5.3-0.5,5.3-6.6h9.9
		c0,0-3.9,7.3-3.9,22s3.9,22,3.9,22h-20"/>
	<path fill="none" stroke="#1D1D1B" stroke-width="2" stroke-linecap="round" stroke-linejoin="round" stroke-miterlimit="10" d="
		M43.8,17c0,1.4-3.2,2.5-7.2,2.5s-7.2-1.1-7.2-2.5"/>
</g>
</svg>
