<?xml version="1.0" encoding="utf-8"?>
<!-- Generator: Adobe Illustrator 21.1.0, SVG Export Plug-In . SVG Version: 6.00 Build 0)  -->
<svg version="1.1" id="emoji" xmlns="http://www.w3.org/2000/svg" xmlns:xlink="http://www.w3.org/1999/xlink" x="0px" y="0px"
	 viewBox="0 0 72 72" enable-background="new 0 0 72 72" xml:space="preserve">
<g id="_xD83D__xDC5E__1_">
	<path fill="#A57939" d="M7.7,50.5C5.4,48.6,4,45.8,4,42.7c0-2.8,1.1-12.3,3-14.1c0,0,16.4,9.1,29,0L48.5,36c0,0,6.8,0.8,11.6,1.3
		c4.9,0.4,6.6,4.9,6.6,7.6c0,8.7-13.3,7.2-20.1,6.9c-3.7-0.2-9.1-0.5-13.3-0.7l-20.7-0.3L7.7,50.5z"/>
	<path fill="#A57939" stroke="#A57939" stroke-width="2" stroke-miterlimit="10" d="M7.7,50.5C5.4,48.6,4,45.8,4,42.7
		c0-2.8,1.1-12.3,3-14.1c0,0,16.4,9.1,29,0L48.5,36c0,0,6.8,0.8,11.6,1.3c4.9,0.4,6.6,4.9,6.6,7.6c0,8.7-13.3,7.2-20.1,6.9
		c-3.7-0.2-9.1-0.5-13.3-0.7L7.7,50.5z"/>
	<path fill="none" stroke="#1D1D1B" stroke-width="2" stroke-linecap="round" stroke-linejoin="round" stroke-miterlimit="10" d="
		M7.7,50.5C5.4,48.6,4,45.8,4,42.7c0-2.8,1.1-12.3,3-14.1c0,0,16.4,9.1,29,0L48.5,36c0,0,6.8,0.8,11.6,1.3c4.9,0.4,6.6,4.9,6.6,7.6
		c0,8.7-13.3,7.2-20.1,6.9c-3.7-0.2-9.1-0.5-13.3-0.7"/>
	
		<rect x="11" y="50.7" fill="#3F3F3F" stroke="#1D1D1B" stroke-width="2" stroke-linecap="round" stroke-linejoin="round" stroke-miterlimit="10" width="16.5" height="3.3"/>
	
		<line fill="none" stroke="#1D1D1B" stroke-width="2" stroke-linecap="round" stroke-linejoin="round" stroke-miterlimit="10" x1="37.1" y1="33.4" x2="34.3" y2="35.3"/>
	
		<line fill="none" stroke="#1D1D1B" stroke-width="2" stroke-linecap="round" stroke-linejoin="round" stroke-miterlimit="10" x1="40.7" y1="35.2" x2="37.9" y2="37.2"/>
	
		<line fill="none" stroke="#1D1D1B" stroke-width="2" stroke-linecap="round" stroke-linejoin="round" stroke-miterlimit="10" x1="44.2" y1="37.1" x2="41.5" y2="39"/>
</g>
</svg>
