<?xml version="1.0" encoding="utf-8"?>
<!-- Generator: Adobe Illustrator 21.1.0, SVG Export Plug-In . SVG Version: 6.00 Build 0)  -->
<svg version="1.1" id="emoji" xmlns="http://www.w3.org/2000/svg" xmlns:xlink="http://www.w3.org/1999/xlink" x="0px" y="0px"
	 viewBox="0 0 72 72" enable-background="new 0 0 72 72" xml:space="preserve">
<g id="_xD83D__xDC5B_">
	<path fill="#D0CFCE" d="M14.5,29.8v-5.3c0,0,11.7-1.2,21.5-1.2s21.5,1.2,21.5,1.2v5.3"/>
	
		<path fill="#8967AA" stroke="#1D1D1B" stroke-width="2" stroke-linecap="round" stroke-linejoin="round" stroke-miterlimit="10" d="
		M36,27.9H18.3c0,10.9-7.3,14-7.3,21.1s11.2,12.3,25,12.3S61,56.1,61,49s-7.3-10.2-7.3-21.1H36z"/>
	<path fill="#B399C8" d="M44,27.9c0,0,9.6,10,6,31.4c-0.3,1.7,11-5.9,11-10.3c0-7.1-7.3-10.2-7.3-21.1H44"/>
	<path fill="none" stroke="#1D1D1B" stroke-width="2" stroke-linecap="round" stroke-linejoin="round" stroke-miterlimit="10" d="
		M14.5,28.9v-4.5c0,0,11.7-1,21.5-1s21.5,1,21.5,1v4.5"/>
	
		<polyline fill="none" stroke="#1D1D1B" stroke-width="2" stroke-linecap="round" stroke-linejoin="round" stroke-miterlimit="10" points="
		18.7,20.4 25,20.4 28.4,17.4 	"/>
	
		<polyline fill="none" stroke="#1D1D1B" stroke-width="2" stroke-linecap="round" stroke-linejoin="round" stroke-miterlimit="10" points="
		50.1,20.4 43.8,20.4 42.1,18.9 	"/>
	<circle fill="#D0CFCE" cx="37.7" cy="14.9" r="3.9"/>
	
		<circle fill="#D0CFCE" stroke="#1D1D1B" stroke-width="2" stroke-linecap="round" stroke-linejoin="round" stroke-miterlimit="10" cx="33" cy="13.7" r="3"/>
	
		<path fill="#D0CFCE" stroke="#1D1D1B" stroke-width="2" stroke-linecap="round" stroke-linejoin="round" stroke-miterlimit="10" d="
		M38.5,12c1.6,0.5,2.5,2.1,2.1,3.7s-2.1,2.5-3.7,2.1"/>
	<path fill="none" stroke="#1D1D1B" stroke-width="2" stroke-linecap="round" stroke-linejoin="round" stroke-miterlimit="10" d="
		M36,27.9H18.3c0,10.9-7.3,14-7.3,21.1s11.2,12.3,25,12.3S61,56.1,61,49s-7.3-10.2-7.3-21.1H36z"/>
</g>
</svg>
