<?xml version="1.0" encoding="utf-8"?>
<!-- Generator: Adobe Illustrator 21.1.0, SVG Export Plug-In . SVG Version: 6.00 Build 0)  -->
<svg version="1.1" id="emoji" xmlns="http://www.w3.org/2000/svg" xmlns:xlink="http://www.w3.org/1999/xlink" x="0px" y="0px"
	 viewBox="0 0 72 72" enable-background="new 0 0 72 72" xml:space="preserve">
<g id="_xD83D__xDC54_">
	<path fill="#61B2E4" stroke="#61B2E4" stroke-width="2" stroke-miterlimit="10" d="M16.1,13.8c-3.3,0-6,2.7-6,6v38.1
		c0,3.3,2.7,6,6,6h38.1c3.3,0,6-2.7,6-6V19.7c0-3.3-2.7-6-6-6H51L40.7,8l-8.5-0.2L23.9,10l-4,3.7H16.1z"/>
	<path fill="#92D3F5" stroke="#92D3F5" stroke-width="2" stroke-miterlimit="10" d="M20.7,12.6c0,0-4.6,3,6.5,16.7l4-7l-6.8-8.4
		l-3.1-3.1"/>
	<path fill="#92D3F5" stroke="#92D3F5" stroke-width="2" stroke-miterlimit="10" d="M48.5,11.4l-2.4,2.4l-7.2,8.5l4.7,7
		c11.1-13.8,6-16.4,6-16.4"/>
	<path fill="none" stroke="#1D1D1B" stroke-width="2" stroke-linecap="round" stroke-linejoin="round" stroke-miterlimit="10" d="
		M55.2,45.9"/>
	<path fill="none" stroke="#1D1D1B" stroke-width="2" stroke-linecap="round" stroke-linejoin="round" stroke-miterlimit="10" d="
		M16.1,13.8c-3.3,0-6,2.7-6,6v38.1c0,3.3,2.7,6,6,6h38.1c3.3,0,6-2.7,6-6V19.7c0-3.3-2.7-6-6-6"/>
	<path fill="none" stroke="#1D1D1B" stroke-width="2" stroke-linecap="round" stroke-linejoin="round" stroke-miterlimit="10" d="
		M24.4,13.9l7.8,8.4l-5,8c-11.1-13.8-7.3-17.5-7.3-17.5s14.4-13,30.6,0c0,0,3.8,3.8-7.3,17.5l-5-8l7.9-8.5"/>
	<path fill="none" stroke="#1D1D1B" stroke-width="2" stroke-linecap="round" stroke-linejoin="round" stroke-miterlimit="10" d="
		M19.9,13.8"/>
	
		<polygon fill="#8967AA" stroke="#1D1D1B" stroke-width="2" stroke-linecap="round" stroke-linejoin="round" stroke-miterlimit="10" points="
		36.7,31.6 33.7,31.6 29.6,63.8 40.7,63.8 	"/>
	
		<polygon fill="#8967AA" stroke="#1D1D1B" stroke-width="2" stroke-linecap="round" stroke-linejoin="round" stroke-miterlimit="10" points="
		36.7,24.7 33.7,24.7 32.2,28.1 33.7,31.6 36.7,31.6 38.2,28.1 	"/>
</g>
</svg>
