<svg version="1.1" id="emoji" xmlns="http://www.w3.org/2000/svg" x="0" y="0" viewBox="0 0 72 72" enable-background="new 0 0 72 72" xml:space="preserve">
  <g id="color">
    <ellipse fill="#FCEA2B" cx="20.7606" cy="38.4741" rx="8.655" ry="11.2891"/>
    <path fill="#A57939" d="M9.8478,33.2058c0.6413-8.7163,7.2257-8.8092,10.5365-8.2787c0.3214,0.0515,1.2221,0.0354,1.5052,0 c6.0208-0.7526,9.0313,6.0208,9.0313,9.0313c0,1.0649,0,3.763-1.5052,5.2682c0,0-3.4469-4.1722-3.605-6.6018 c0,0-11.4471,4.3439-12.1998,0.5809c0,0-0.7526,3.0104-1.5052,3.763c0,0,0,2.2578,0,3.0104 C12.1056,39.9793,9.5717,36.9587,9.8478,33.2058z"/>
    <path fill="#EA5A47" d="M38.7848,10.525c-0.9239,0.414-1.6707,1.1428-2.1069,2.0564c-0.0894,0.1847-0.3116,0.2619-0.4963,0.1724 c-0.0752-0.0364-0.136-0.0972-0.1724-0.1724c-1.0251-2.1295-3.5823-3.0248-5.7118-1.9997s-3.0248,3.5823-1.9997,5.7118 c0.0602,0.1251,0.1265,0.2471,0.1985,0.3658l0.2452,0.3619l7.2723,9.3239C39.4655,21.7162,41.8098,15.2969,38.7848,10.525z"/>
    <path fill="#D22F27" d="M40.531,10.1557c-0.6015-0.0011-1.1965,0.1246-1.7462,0.3689c3.025,4.7719,0.6795,11.1915-2.7712,15.8185 l0.331,0.4228l0.5822-0.7464l7.065-9.059c1.3934-1.9107,0.9741-4.5892-0.9365-5.9826c-0.7326-0.5343-1.616-0.8222-2.5228-0.8223 H40.531V10.1557z"/>
    <path fill="#92D3F5" d="M34.701,62.8315c-0.4171,0-0.7552-0.3402-0.7552-0.7598v-2.2793c0-3.3825-3.3984-5.9346-6.5341-6.0721 c-4.6861,3.808-9.4333,3.808-14.1224,0c-3.1387,0.1383-6.5341,2.6903-6.5341,6.0721v2.2793c0,0.4196-0.3381,0.7598-0.7552,0.7598"/>
    <ellipse fill="#FCEA2B" cx="51.7606" cy="38.4741" rx="8.655" ry="11.2891"/>
    <path fill="#92D3F5" d="M65.701,62.8315c-0.4171,0-0.7552-0.3402-0.7552-0.7598v-2.2793c0-3.3825-3.3984-5.9346-6.5341-6.0721 c-4.6861,3.808-9.4333,3.808-14.1224,0c-3.1387,0.1383-6.5341,2.6903-6.5341,6.0721v2.2793c0,0.4196-0.3381,0.7598-0.7552,0.7598"/>
    <path fill="#A57939" d="M43,27c-0.0378,0.2614,13.1745-6.7573,15.6919,1.3816c0,0,3.4686,1.7019,2.8332,7.5429 c-0.1081,0.9941-0.1096,3.2608-1.1096,4.2608L57.63,33.1345c0,0-7.3601,2.8475-12.363-0.5962L43,40c0,0-0.8764-1.2972-1-3 c0,0-0.3675-3.9755,0.4395-5.4446C42.4395,31.5554,44,29,43,27z"/>
  </g>
  <g id="hair"/>
  <g id="skin"/>
  <g id="skin-shadow"/>
  <g id="line">
    <path fill="none" stroke="#000000" stroke-width="2" stroke-miterlimit="10" d="M29.4,37.7909 c0.0103,0.226,0.0156,0.4538,0.0156,0.6832c0,6.2348-3.875,11.2891-8.655,11.2891s-8.655-5.0543-8.655-11.2891 c0-0.2294,0.0052-0.4572,0.0156-0.6832"/>
    <path fill="none" stroke="#000000" stroke-width="2" stroke-linecap="round" stroke-linejoin="round" d="M9.8478,33.2058 c0.6413-8.7163,7.2257-8.8092,10.5365-8.2787c0.3214,0.0515,1.2221,0.0354,1.5052,0c6.0208-0.7526,9.0313,6.0208,9.0313,9.0313 c0,1.0649,0,3.763-1.5052,5.2682c0,0-3.4469-4.1722-3.605-6.6018c0,0-11.4471,4.3439-12.1998,0.5809 c0,0-0.7526,3.0104-1.5052,3.763c0,0,0,2.2578,0,3.0104C12.1056,39.9793,9.5717,36.9587,9.8478,33.2058z"/>
    <path fill="none" stroke="#000000" stroke-width="2" stroke-linecap="round" stroke-linejoin="round" d="M36.3446,27.3816 l-7.9098-10.1427L28.18,16.8621c-1.3378-2.1927-0.6448-5.0547,1.5479-6.3925s5.0547-0.6448,6.3925,1.5479 c0.0817,0.1339,0.1566,0.2719,0.2244,0.4134c1.1153-2.3138,3.8951-3.2854,6.2089-2.1701s3.2854,3.8951,2.1701,6.2089 c-0.1237,0.2566-0.2706,0.5012-0.4391,0.7309L36.3446,27.3816z"/>
    <path fill="none" stroke="#000000" stroke-width="2" stroke-linecap="round" stroke-linejoin="round" d="M56.8829,26.6449"/>
    <path fill="none" stroke="#000000" stroke-width="2" stroke-linecap="round" stroke-linejoin="round" d="M6,61.8952v-2.2659 c0-3.7719,3.7817-6.7976,7.5529-6.7976c4.5317,3.7764,9.0635,3.7764,13.5952,0c3.7719,0,7.5529,3.0257,7.5529,6.7976v2.2659"/>
    <path d="M25,39.1854c0,0.7706-0.6247,1.3952-1.3952,1.3952c-0.7706,0-1.3952-0.6247-1.3952-1.3952 c0-0.7706,0.6247-1.3952,1.3952-1.3952C24.3753,37.7901,25,38.4148,25,39.1854"/>
    <path d="M19.4191,39.1854c0,0.7706-0.6247,1.3952-1.3952,1.3952c-0.7706,0-1.3952-0.6247-1.3952-1.3952 c0-0.7706,0.6247-1.3952,1.3952-1.3952C18.7945,37.7901,19.4191,38.4148,19.4191,39.1854"/>
    <path fill="none" stroke="#000000" stroke-width="2" stroke-linecap="round" stroke-linejoin="round" d="M18.7215,44.9407 c1.308,0.6976,2.8776,0.6976,4.1857,0"/>
    <path fill="none" stroke="#000000" stroke-width="2" stroke-miterlimit="10" d="M60.3705,37.315 c0.0298,0.3811,0.0451,0.7678,0.0451,1.1591c0,6.2348-3.875,11.2891-8.655,11.2891s-8.655-5.0543-8.655-11.2891 c0-0.2294,0.0052-0.4572,0.0156-0.6832"/>
    <path fill="none" stroke="#000000" stroke-width="2" stroke-linecap="round" stroke-linejoin="round" d="M37,61.8952v-2.2659 c0-3.7719,3.7817-6.7976,7.5529-6.7976c4.5317,3.7764,9.0635,3.7764,13.5952,0c3.7719,0,7.5529,3.0257,7.5529,6.7976v2.2659"/>
    <path d="M56,39.1854c0,0.7706-0.6247,1.3952-1.3952,1.3952c-0.7706,0-1.3952-0.6247-1.3952-1.3952 c0-0.7706,0.6247-1.3952,1.3952-1.3952C55.3753,37.7901,56,38.4148,56,39.1854"/>
    <path d="M50.4191,39.1854c0,0.7706-0.6247,1.3952-1.3952,1.3952c-0.7706,0-1.3952-0.6247-1.3952-1.3952 c0-0.7706,0.6247-1.3952,1.3952-1.3952C49.7945,37.7901,50.4191,38.4148,50.4191,39.1854"/>
    <path fill="none" stroke="#000000" stroke-width="2" stroke-linecap="round" stroke-linejoin="round" d="M49.7215,44.9407 c1.308,0.6976,2.8776,0.6976,4.1857,0"/>
    <path fill="none" stroke="#000000" stroke-width="2" stroke-linejoin="round" stroke-miterlimit="10" d="M43,27 c-0.0378,0.2614,13.1745-6.7573,15.6919,1.3816c0,0,3.4686,1.7019,2.8332,7.5429c-0.1081,0.9941-0.1096,3.2608-1.1096,4.2608 L57.63,33.1345c0,0-7.3601,2.8475-12.363-0.5962L43,40c0,0-0.8764-1.2972-1-3c0,0-0.3675-3.9755,0.4395-5.4446 C42.4395,31.5554,44,29,43,27z"/>
  </g>
</svg>
