<?xml version="1.0" encoding="utf-8"?>
<!-- Generator: Adobe Illustrator 21.1.0, SVG Export Plug-In . SVG Version: 6.00 Build 0)  -->
<svg version="1.1" id="emoji" xmlns="http://www.w3.org/2000/svg" xmlns:xlink="http://www.w3.org/1999/xlink" x="0px" y="0px"
	 viewBox="0 0 72 72" enable-background="new 0 0 72 72" xml:space="preserve">
<g id="_xD83D__xDC60_">
	<path fill="#D22F27" d="M25.5,34.6c2.9,2.4,5.5,5.4,6.8,9.1c4.3,12.5,1,12.7,4.3,17.3c4,5.6,40.7,5.2,23.4-7.1c0,0-12.3,3-16.9-1.4
		c0,0-5.4-18-26.1-38.4c0,0-4.5,2.3-6.2,8c0,0,0.6,2,0.6,4.6S25.5,34.6,25.5,34.6z"/>
	<path fill="#D22F27" d="M25.1,35.5c2.9,2.4,5.9,4.5,7.2,8.3c4.3,12.5,1,12.7,4.3,17.3c4,5.6,40.7,5.2,23.4-7.1c0,0-12.3,3-16.9-1.4
		c0,0-5.4-18-26.1-38.4c0,0-5.5,2.1-7.2,7.9c0,0-0.6,2.1-0.1,3.4S25.1,35.5,25.1,35.5z"/>
	
		<path fill="#3F3F3F" stroke="#1D1D1B" stroke-width="2" stroke-linecap="round" stroke-linejoin="round" stroke-miterlimit="10" d="
		M20,33.1L18,61h-3.8V32.1l-2.9-6c0,0,6.7,3.8,10.5,6.9L20,33.1z"/>
	<path fill="none" stroke="#1D1D1B" stroke-width="2" stroke-linecap="round" stroke-linejoin="round" stroke-miterlimit="10" d="
		M25.5,34.6c2.9,2.4,5.5,5.4,6.8,9.1c4.3,12.5,1,12.7,4.3,17.3c4,5.6,40.7,5.2,23.4-7.1c0,0-12.3,3-16.9-1.4c0,0-5.4-18-26.1-38.4
		c0,0-4.5,2.3-6.2,8"/>
	<path fill="none" stroke="#1D1D1B" stroke-width="2" stroke-linecap="round" stroke-linejoin="round" stroke-miterlimit="10" d="
		M25.5,34.6c2.9,2.4,5.5,5.4,6.8,9.1c4.3,12.5,1,12.7,4.3,17.3c4,5.6,40.7,5.2,23.4-7.1c0,0-12.3,3-16.9-1.4c0,0-5.4-18-26.1-38.4
		c0,0-4.5,2.3-6.2,8"/>
</g>
</svg>
