<?xml version="1.0" encoding="utf-8"?>
<!-- Generator: Adobe Illustrator 21.1.0, SVG Export Plug-In . SVG Version: 6.00 Build 0)  -->
<svg version="1.1" id="emoji" xmlns="http://www.w3.org/2000/svg" xmlns:xlink="http://www.w3.org/1999/xlink" x="0px" y="0px"
	 viewBox="0 0 72 72" enable-background="new 0 0 72 72" xml:space="preserve">
<g id="_xD83D__xDC69__x200D__x2764__xFE0F__x200D__xD83D__xDC8B__x200D__xD83D__xDC68_">
	<ellipse fill="#FCEA2B" stroke="#000000" stroke-width="2" stroke-miterlimit="10" cx="17.2" cy="41.1" rx="8.7" ry="11.3"/>
	<path fill="#A57939" d="M64.2,54.5c-0.3,0.3,2.2-5.8,0.2-9.4c-0.3-0.6-0.6-1.3-0.9-2c-1.1-2.5-1.5-3.4-1.8-8c0-2.8-2.1-5.1-4.9-5.4
		c-0.2,0-0.4-0.1-0.5-0.3c-0.1-0.1-1.8-2-5.5-2c-4.7,0-8.7,2.6-9.6,6.2c-0.4,1.5-0.5,3.1-0.4,4.7c0.2,1.5,0,3.1-0.6,4.5
		c-0.2,0.6-0.5,1.1-0.8,1.6c-2.9,3.3-1.1,10.1-1.2,9.9"/>
	<path fill="none" stroke="#000000" stroke-width="2" stroke-linecap="round" stroke-linejoin="round" d="M38.7,54
		c-3-4.5-0.6-7.8,0.8-11.3c1.2-3.2-0.2-4.9,1-9.1c1.1-4.2,5.5-6.8,10.4-6.8c4.1,0,6.1,2.3,6.1,2.3c3.2,0.3,5.6,2.9,5.6,6.1
		c0.3,5.4,0.8,5.4,2.6,9.7c1.3,3.1,0.8,6.6-1.4,9.2"/>
	<path fill="#FCEA2B" stroke="#000000" stroke-width="2" stroke-miterlimit="10" d="M43.3,41.9c0,6.1,3.8,10.6,8.3,10.6
		s8.3-4.5,8.3-10.6c0-3.8-1.5-6.1-4.5-9.1c-3,3-12.1,6.8-12.1,8.3V41.9z"/>
	<path fill="none" stroke="#010101" stroke-width="2" stroke-linecap="round" stroke-linejoin="round" d="M16.9,47.4
		c0.6,0.7,1.4,0.7,2.1,0"/>
	<path fill="none" stroke="#010101" stroke-width="2" stroke-linecap="round" stroke-linejoin="round" d="M49.3,47.4
		c0.6,0.8,1.4,0.8,2.1,0"/>
	<path fill="none" stroke="#000000" stroke-width="2" stroke-linecap="round" stroke-miterlimit="10" d="M54,41.1c0,0,1.5,1.5,3,0"
		/>
	<path fill="none" stroke="#000000" stroke-width="2" stroke-linecap="round" stroke-miterlimit="10" d="M46.4,41.8c0,0,1.5,1.5,3,0
		"/>
	<path fill="none" stroke="#000000" stroke-width="2" stroke-linecap="round" stroke-miterlimit="10" d="M19.2,41.8c0,0,1.5,1.5,3,0
		"/>
	<path fill="none" stroke="#000000" stroke-width="2" stroke-linecap="round" stroke-miterlimit="10" d="M11.6,41.1c0,0,1.5,1.5,3,0
		"/>
	<path fill="#A57939" d="M6.2,35.8c0.6-8.8,7.3-8.9,10.6-8.3c0.3,0.1,1.2,0,1.5,0c6.1-0.8,9.1,6.1,9.1,9.1c0,1.1,0,3.8-1.5,5.3
		c0,0-3.5-4.2-3.6-6.6c0,0-11.5,4.4-12.3,0.6c0,0-0.8,3-1.5,3.8c0,0,0,2.3,0,3C8.5,42.6,5.9,39.5,6.2,35.8z"/>
	<path fill="none" stroke="#000000" stroke-width="2" stroke-linecap="round" stroke-linejoin="round" d="M6.2,35.8
		c0.6-8.8,7.3-8.9,10.6-8.3c0.3,0.1,1.2,0,1.5,0c6.1-0.8,9.1,6.1,9.1,9.1c0,1.1,0,3.8-1.5,5.3c0,0-3.5-4.2-3.6-6.6
		c0,0-11.5,4.4-12.3,0.6c0,0-0.8,3-1.5,3.8c0,0,0,2.3,0,3C8.5,42.6,5.9,39.5,6.2,35.8z"/>
	<g>
		<path fill="#EA5A47" d="M35.9,18.7c-0.9,0.4-1.7,1.1-2.1,2.1c-0.1,0.2-0.3,0.3-0.5,0.2c-0.1,0-0.1-0.1-0.2-0.2c-1-2.1-3.6-3-5.7-2
			c-2.1,1-3,3.6-2,5.7c0.1,0.1,0.1,0.2,0.2,0.4l0.2,0.4l7.3,9.4C36.6,30,38.9,23.5,35.9,18.7z"/>
		<path fill="#D23029" d="M37.6,18.4c-0.6,0-1.2,0.1-1.8,0.4c3,4.8,0.7,11.2-2.8,15.9l0.3,0.4l0.6-0.8l7.1-9.1c1.4-1.9,1-4.6-0.9-6
			C39.5,18.7,38.6,18.4,37.6,18.4L37.6,18.4z"/>
		<path fill="none" stroke="#010101" stroke-width="2" stroke-linecap="round" stroke-linejoin="round" d="M33.4,35.7l-8-10.2
			l-0.3-0.4c-1.3-2.2-0.6-5.1,1.6-6.4c2.2-1.3,5.1-0.6,6.4,1.6c0.1,0.1,0.2,0.3,0.2,0.4c1.1-2.3,3.9-3.3,6.2-2.2
			c2.3,1.1,3.3,3.9,2.2,6.2c-0.1,0.3-0.3,0.5-0.4,0.7L33.4,35.7z"/>
	</g>
	<path fill="none" stroke="#010101" stroke-width="2" stroke-linecap="round" stroke-linejoin="round" d="M57.7,29.2"/>
</g>
</svg>
