<svg id="emoji" xmlns="http://www.w3.org/2000/svg" viewBox="0 0 72 72">
  <g id="color">
    <path d="M37.1222,51.899s-5.7978-7.1368-3.1925-7.2612c5.5418-.0792,16.8329.7977,20.7243-2.546,2.5969.1245,5.8992,2.6966,5.8992,5.6586V60.9013H37.1222V51.899Z" fill="#92d3f5"/>
    <path d="M39.12,60.9987,35.44,60.8436H11.0669V47.6927c0-2.962,3.435-5.5341,6.1363-5.6586,4.0478,3.3437,14.797,2.52,19.1616,2.5987,2.7777-.1113,1.026,7.974,1.026,7.974Z" fill="#92d3f5"/>
    <path d="M16.6769,60.9842v-1.1c0-2.6265,2.5843-4.7335,5.1613-4.7335q4.645,3.9445,9.29,0c2.5775,0,5.1612,2.1069,5.1612,4.7335v1.1" fill="#b1cc33"/>
    <path d="M55.917,61.0964v-1.1c0-2.6265-2.5842-4.7335-5.1612-4.7335q-4.6452,3.9445-9.29,0c-2.5775,0-5.1612,2.1069-5.1612,4.7335v1.1" fill="#b1cc33"/>
  </g>
  <g id="skin">
    <path d="M48.731,18.8945c-4.4577,0-8.0714,4.6184-8.0714,10.3155,0,4.4861,2.2407,8.3033,5.37,9.7234.8447.3834,1.597-.3854,2.5446-.3854.5992,0,1.2985.8783,1.7962.696,2.742-1.0048,4.1338-4.5374,6.2682-7.9545.5593-.8955.164-1.3672.164-2.0795C56.8023,23.5129,53.1887,18.8945,48.731,18.8945Z" fill="#fcea2b"/>
    <ellipse cx="26.5655" cy="46.4428" rx="6.4885" ry="7.031" fill="#fcea2b"/>
    <path d="M23.0176,19.2572c4.4577,0,8.0714,4.6184,8.0714,10.3155,0,4.1116-1.8822,7.6614-4.6056,9.3187-1.05.6391-1.3049-.4854-2.5454-.4854-.47,0-1.825,1.4212-2.2308,1.307-2.9627-.834-4.3789-4.51-6.5968-8.0608-.5594-.8955-.1641-1.3672-.1641-2.0795C14.9463,23.8756,18.56,19.2572,23.0176,19.2572Z" fill="#fcea2b"/>
    <ellipse cx="46.0284" cy="46.555" rx="6.4885" ry="7.031" fill="#fcea2b"/>
  </g>
  <g id="hair">
    <path d="M58.9079,24.3961c-.5981-7.9646-6.7385-8.05-9.826-7.5647a8.2942,8.2942,0,0,1-1.4037,0c-5.6148-.6877-8.4223,5.5015-8.4223,8.2523,0,.9731,0,3.4385,1.4037,4.8139,0,0,3.2145-3.8124,3.3619-6.0324,0,0,10.6752,3.9692,11.3771.5308-.0336.0028,1.7275,3.7247,1.4037,6.1892A9.5011,9.5011,0,0,0,58.9079,24.3961Z" fill="#a57939"/>
    <path d="M24.1285,43.02c.4694,3.363,4.487-.8707,4.487-.8707.5491,1.5737,4.4254,3.8674,4.4254,3.8674,1.0324-.9557.5259-2.8525.3721-3.5135a5.1206,5.1206,0,0,0-5.8079-4.1142,6.4443,6.4443,0,0,1-1.0324,0c-2.2709-.3368-6.03-.1483-7.12,4.6433-.5317,2.3383.624,2.9844.624,2.9844S23.8407,40.9578,24.1285,43.02Z" fill="#a57939"/>
    <path d="M12.8407,24.7588c.5981-7.9646,6.7385-8.05,9.826-7.5647a8.2942,8.2942,0,0,0,1.4037,0c5.6148-.6877,8.4223,5.5015,8.4223,8.2524,0,.973,0,3.4384-1.4037,4.8138,0,0-3.2145-3.8124-3.3619-6.0324,0,0-10.6752,3.9692-11.3771.5308.0336.0028-1.7275,3.7247-1.4037,6.1892A9.5011,9.5011,0,0,1,12.8407,24.7588Z" fill="#a57939"/>
    <path d="M48.4654,43.1323c-.4694,3.3631-4.487-.8707-4.487-.8707-.549,1.5737-4.4253,3.8675-4.4253,3.8675-1.0325-.9558-.526-2.8526-.3722-3.5136a5.1206,5.1206,0,0,1,5.8079-4.1141,6.4572,6.4572,0,0,0,1.0325,0c2.2709-.3369,6.03-.1484,7.12,4.6433.5317,2.3382-.6239,2.9844-.6239,2.9844S48.7532,41.07,48.4654,43.1323Z" fill="#a57939"/>
  </g>
  <g id="line">
    <g>
      <path d="M50.9467,39.135q.1031-.0369.2053-.0772c3.3416-1.3166,5.8765-5.2613,5.8765-9.89" fill="none" stroke="#000" stroke-miterlimit="10" stroke-width="2"/>
      <path d="M40.66,29.21a11.3034,11.3034,0,0,0,3.5586,8.5537c.0577.05.7119.69.7706.7377" fill="none" stroke="#000" stroke-miterlimit="10" stroke-width="2"/>
      <path d="M58.9079,24.3961c-.5981-7.9646-6.7385-8.05-9.826-7.5647a8.2942,8.2942,0,0,1-1.4037,0c-5.6148-.6877-8.4223,5.5015-8.4223,8.2523,0,.9731,0,3.4385,1.4037,4.8139,0,0,3.2145-3.8124,3.3619-6.0324,0,0,10.6752,3.9692,11.3771.5308,0,0,2.4,1.7757,1.43,6.52A14.0688,14.0688,0,0,0,58.9079,24.3961Z" fill="none" stroke="#000" stroke-linecap="round" stroke-linejoin="round" stroke-width="2"/>
      <path d="M45.1719,29.81A1.3014,1.3014,0,1,0,46.473,28.535,1.2882,1.2882,0,0,0,45.1719,29.81"/>
      <path d="M49.982,29.86a1.3014,1.3014,0,1,0,1.3011-1.2748A1.2882,1.2882,0,0,0,49.982,29.86"/>
      <path d="M50.6326,35.1188a4.2233,4.2233,0,0,1-3.9035,0" fill="none" stroke="#000" stroke-linecap="round" stroke-linejoin="round" stroke-width="1.6"/>
    </g>
    <g>
      <path d="M20.86,39.518C17.3889,38.3091,14.72,34.28,14.72,29.53" fill="none" stroke="#000" stroke-miterlimit="10" stroke-width="2"/>
      <path d="M31.089,29.5727A11.3034,11.3034,0,0,1,27.53,38.1264l-.3436.28" fill="none" stroke="#000" stroke-miterlimit="10" stroke-width="2"/>
      <path d="M12.8407,24.7588c.5981-7.9646,6.7385-8.05,9.826-7.5647a8.2942,8.2942,0,0,0,1.4037,0c5.6148-.6877,8.4223,5.5015,8.4223,8.2524,0,.973,0,3.4384-1.4037,4.8138,0,0-3.2145-3.8124-3.3619-6.0324,0,0-10.6752,3.9692-11.3771.5308,0,0-2.4,1.7757-1.43,6.52A14.0688,14.0688,0,0,1,12.8407,24.7588Z" fill="none" stroke="#000" stroke-linecap="round" stroke-linejoin="round" stroke-width="2"/>
      <path d="M26.5767,30.1726a1.3014,1.3014,0,1,1-1.3011-1.2749,1.2882,1.2882,0,0,1,1.3011,1.2749"/>
      <path d="M21.7666,30.2226a1.3014,1.3014,0,1,1-1.3011-1.2748,1.2882,1.2882,0,0,1,1.3011,1.2748"/>
      <path d="M21.116,35.4815a4.2233,4.2233,0,0,0,3.9035,0" fill="none" stroke="#000" stroke-linecap="round" stroke-linejoin="round" stroke-width="1.6"/>
    </g>
    <path d="M11.6662,60.0139V48.09c0-3.13,4.0421-5.6331,7.2274-5.6331" fill="none" stroke="#000" stroke-linecap="round" stroke-linejoin="round" stroke-width="2"/>
    <path d="M53.8315,42.5157c3.129,0,6.7217,2.5028,6.7217,5.6324V60.0716" fill="none" stroke="#000" stroke-linecap="round" stroke-linejoin="round" stroke-width="2"/>
    <g>
      <path d="M32.9239,46.0168q.0117.2113.0118.426a6.7762,6.7762,0,0,1-6.4886,7.031,6.7761,6.7761,0,0,1-6.4885-7.031q0-.1428.0052-.2841" fill="none" stroke="#000" stroke-miterlimit="10" stroke-width="1.6"/>
      <path d="M29.2994,46.8858a.9415.9415,0,1,1-.9387-.869.9058.9058,0,0,1,.9387.869"/>
      <path d="M25.5446,46.8858a.9415.9415,0,1,1-.9387-.869.9058.9058,0,0,1,.9387.869"/>
      <path d="M25.0753,50.2686a2.2231,2.2231,0,0,0,2.816,0" fill="none" stroke="#000" stroke-linecap="round" stroke-linejoin="round" stroke-width="1.6"/>
      <path d="M24.01,43.02c.4694,3.363,4.487-.8707,4.487-.8707.5491,1.5737,4.4254,3.8674,4.4254,3.8674,1.0324-.9557.5259-2.8525.3721-3.5135a5.1206,5.1206,0,0,0-5.8079-4.1142,6.4443,6.4443,0,0,1-1.0324,0c-2.2709-.3368-6.03-.1483-7.12,4.6433-.5317,2.3383.624,2.9844.624,2.9844S23.7223,40.9578,24.01,43.02Z" fill="none" stroke="#000" stroke-linecap="round" stroke-linejoin="round" stroke-width="1.6"/>
      <path d="M16.6769,60.1545v-.9437c0-2.253,2.5843-4.06,5.1613-4.06a7.2229,7.2229,0,0,0,9.29,0c2.5775,0,5.1612,1.8073,5.1612,4.06v.9437" fill="none" stroke="#000" stroke-linecap="round" stroke-linejoin="round" stroke-width="1.6"/>
    </g>
    <g>
      <g>
        <path d="M39.67,46.129q-.0117.2114-.0117.426a6.7762,6.7762,0,0,0,6.4885,7.0311,6.7763,6.7763,0,0,0,6.4886-7.0311q0-.1427-.0052-.2841" fill="none" stroke="#000" stroke-miterlimit="10" stroke-width="1.6"/>
        <path d="M43.2946,46.998a.9414.9414,0,1,0,.9387-.8689.9058.9058,0,0,0-.9387.8689Z"/>
        <path d="M47.0494,46.998a.9414.9414,0,1,0,.9386-.8689.9058.9058,0,0,0-.9386.8689Z"/>
        <path d="M47.5187,50.3808a2.2232,2.2232,0,0,1-2.8161,0" fill="none" stroke="#000" stroke-linecap="round" stroke-linejoin="round" stroke-width="1.6"/>
        <path d="M48.5838,43.1323c-.4694,3.3631-4.487-.8707-4.487-.8707-.549,1.5737-4.4253,3.8675-4.4253,3.8675-1.0325-.9558-.526-2.8526-.3722-3.5136a5.1206,5.1206,0,0,1,5.8079-4.1141,6.456,6.456,0,0,0,1.0324,0c2.271-.3369,6.03-.1484,7.12,4.6433.5317,2.3382-.6239,2.9844-.6239,2.9844S48.8716,41.07,48.5838,43.1323Z" fill="none" stroke="#000" stroke-linecap="round" stroke-linejoin="round" stroke-width="1.6"/>
      </g>
      <path d="M55.917,60.2667V59.323c0-2.253-2.5842-4.06-5.1612-4.06a7.223,7.223,0,0,1-9.29,0c-2.5775,0-5.1612,1.8073-5.1612,4.06v.9437" fill="none" stroke="#000" stroke-linecap="round" stroke-linejoin="round" stroke-width="1.6"/>
    </g>
  </g>
</svg>
