<?xml version="1.0" encoding="utf-8"?>
<!-- Generator: Adobe Illustrator 21.1.0, SVG Export Plug-In . SVG Version: 6.00 Build 0)  -->
<svg version="1.1" id="emoji" xmlns="http://www.w3.org/2000/svg" xmlns:xlink="http://www.w3.org/1999/xlink" x="0px" y="0px"
	 viewBox="0 0 72 72" enable-background="new 0 0 72 72" xml:space="preserve">
<g id="_xD83D__xDC6F__1_">
	<rect y="-10.8" fill="none" width="75.2" height="8.8"/>
	<text transform="matrix(1 0 0 1 0 -6.4961)" font-family="'ArialMT'" font-size="6px">Author: Johanna Wellnitz</text>
	<circle fill="#FCEA2B" cx="25" cy="20.1" r="3"/>
	<g>
		<path fill="#FCEA2B" d="M29,33l-1,6l2,5l2,12l2.7,11h-3.3L28,56l-3-11h-1l-1.4,22h-3.3L19,44l2-6l-1-5c0,0,0-2-1,0l1,2v3l-3-3v-3
			v-2l3-2l1-1h7l2,1l1,2l1,3l-2,4h-1"/>
	</g>
	<g>
		<path fill="#FCEA2B" d="M50,33l-1,6l2,5l2,12l2.7,11h-3.3L49,56l-3-11h-1l-1.4,22h-3.3L40,44l2-6l-1-5c0,0,0-2-1,0l1,2v3l-3-3v-3
			v-2l3-2l1-1h7l2,1l1,2l1,3l-2,4h-1"/>
	</g>
	<polyline fill="#A4A4A4" points="22,19 19,11 21,11 25,17 	"/>
	<polyline fill="#A4A4A4" points="28,19 30,16 32,18 28,14 25,17 	"/>
	<polyline fill="#F8EB2B" points="32,18 31,14 28,14 	"/>
	<circle fill="#FCEA2B" cx="45.9" cy="20.1" r="3"/>
	<polyline fill="#A4A4A4" points="42.9,19 39.9,11 41.9,11 45.9,17 	"/>
	<polyline fill="#A4A4A4" points="48.9,19 50.9,16 52.9,18 48.9,14 45.9,17 	"/>
	<polyline fill="#F8EB2B" points="52.9,18 51.9,14 48.9,14 	"/>
	<circle fill="none" stroke="#000000" stroke-width="2" stroke-miterlimit="10" cx="25" cy="20.1" r="3"/>
	
		<polyline fill="none" stroke="#000000" stroke-width="2" stroke-linecap="round" stroke-linejoin="round" stroke-miterlimit="10" points="
		22,19 19,11 21,11 25,17 	"/>
	
		<polyline fill="none" stroke="#000000" stroke-width="2" stroke-linecap="round" stroke-linejoin="round" stroke-miterlimit="10" points="
		28,19 30,16 32,18 28,14 25,17 	"/>
	
		<polyline fill="none" stroke="#000000" stroke-width="2" stroke-linecap="round" stroke-linejoin="round" stroke-miterlimit="10" points="
		32,18 31,14 28,14 	"/>
	<circle fill="none" stroke="#000000" stroke-width="2" stroke-miterlimit="10" cx="45.9" cy="20.1" r="3"/>
	
		<polyline fill="none" stroke="#000000" stroke-width="2" stroke-linecap="round" stroke-linejoin="round" stroke-miterlimit="10" points="
		42.9,19 39.9,11 41.9,11 45.9,17 	"/>
	
		<polyline fill="none" stroke="#000000" stroke-width="2" stroke-linecap="round" stroke-linejoin="round" stroke-miterlimit="10" points="
		48.9,19 50.9,16 52.9,18 48.9,14 45.9,17 	"/>
	
		<polyline fill="none" stroke="#000000" stroke-width="2" stroke-linecap="round" stroke-linejoin="round" stroke-miterlimit="10" points="
		52.9,18 51.9,14 48.9,14 	"/>
	<g>
		<path fill="none" stroke="#000000" stroke-width="2" stroke-linecap="round" stroke-linejoin="round" stroke-miterlimit="10" d="
			M29,33v4c0,1.1,0.2,2.9,0.4,4l0.2,1.1c0.2,1.1,0.5,2.8,0.7,3.9l1.3,8.1c0.2,1.1,0.5,2.8,0.8,3.9l1.7,7.1c0.3,1.1-0.3,1.9-1.2,1.9
			c-0.9,0-1.9-0.9-2.2-1.9l-2.2-7.2c-0.3-1.1-0.8-2.8-1.1-3.8l-1.9-7.1c-0.3-1.1-0.8-1.9-1-1.9c-0.3,0-0.6,0.9-0.6,2l-1.1,18
			c-0.1,1.1-0.9,2-1.8,2c-0.9,0-1.7-0.9-1.7-2L19,46c0-1.1,0.1-2.9,0.3-4l0.3-2.1c0.2-1.1,0.3-2.9,0.3-4v-3"/>
	</g>
	<g>
		<path fill="none" stroke="#000000" stroke-width="2" stroke-linecap="round" stroke-linejoin="round" stroke-miterlimit="10" d="
			M50,33v4c0,1.1,0.2,2.9,0.4,4l0.2,1.1c0.2,1.1,0.5,2.9,0.7,3.9l1.3,8.1c0.2,1.1,0.5,2.8,0.8,3.9l1.7,7.1c0.3,1.1-0.3,1.9-1.2,1.9
			c-0.9,0-1.9-0.9-2.2-1.9l-2.2-7.2c-0.3-1.1-0.8-2.8-1.1-3.8l-1.9-7.1c-0.3-1.1-0.8-1.9-1-1.9c-0.3,0-0.6,0.9-0.6,2l-1.1,18
			c-0.1,1.1-0.9,2-1.8,2c-0.9,0-1.7-0.9-1.7-2l-0.2-19c0-1.1,0.1-2.9,0.3-4l0.4-2.1c0.2-1.1,0.4-2.9,0.4-4v-3"/>
	</g>
	<g>
		<path fill="none" stroke="#000000" stroke-width="2" stroke-linecap="round" stroke-linejoin="round" stroke-miterlimit="10" d="
			M19.5,38.8l-2.9-4.1c-0.6-0.9-0.6-2.4,0.1-3.2l2.1-2.8c0.7-0.9,2.1-1.6,3.2-1.6h1c1.1,0,2.9,0,4,0h1c1.1,0,2.4,0.8,2.9,1.8
			l1.2,2.4c0.5,1,0.4,2.6-0.2,3.5L29.3,39"/>
	</g>
	<g>
		<path fill="none" stroke="#000000" stroke-width="2" stroke-linecap="round" stroke-linejoin="round" stroke-miterlimit="10" d="
			M40.6,39l-3.1-4.4c-0.6-0.9-0.6-2.4,0.1-3.2l2.1-2.8c0.7-0.9,2.1-1.6,3.2-1.6h1c1.1,0,2.9,0,4,0h1c1.1,0,2.4,0.8,2.9,1.8l1.2,2.4
			c0.5,1,0.4,2.6-0.1,3.5L50.3,39"/>
	</g>
</g>
</svg>
