<?xml version="1.0" encoding="utf-8"?>
<!-- Generator: Adobe Illustrator 21.1.0, SVG Export Plug-In . SVG Version: 6.00 Build 0)  -->
<svg version="1.1" id="emoji" xmlns="http://www.w3.org/2000/svg" xmlns:xlink="http://www.w3.org/1999/xlink" x="0px" y="0px"
	 viewBox="0 0 72 72" enable-background="new 0 0 72 72" xml:space="preserve">
<g id="_xD83D__xDC69__x200D__xD83C__xDFED__1_">
	<path fill="#CFCFCE" d="M17.4,57.9c0,0-2.2-13.7,9.8-13.7c3.2,2.1,5.9,3.6,9,3.6h-0.1c3.1,0,4.7-2.2,7.9-4.3
		c5.3,0,8.8,1.4,10.4,3.6c2.8,3.9,1.1,10.7,1.1,10.7"/>
	<path fill="#5AA8D4" d="M51.2,45.1v12.8H22V44.8l0,0c1.4-0.8,3.2-1.3,5.5-1.3v9.3h17.8v-9.1l0-0.2C47.7,43.6,49.8,44.1,51.2,45.1"
		/>
	<path fill="#69462E" d="M25,24.5c0,0-10.6,2.5-7.9,15.7c0,0,5.4,0.1,7.5-2.4c0,0,2.5-2.2,3.5-8.2c1-5.9-3.3-5.1-3.3-5.1"/>
	<ellipse fill="#FCEA2C" cx="35.8" cy="26.8" rx="11.3" ry="14.2"/>
	<g>
		<path fill="#9A9B99" d="M35.7,9.1C35.7,9.1,35.7,9.1,35.7,9.1c0.1,0,0.1,0,0.2,0H35.7z"/>
		<path fill="#9A9B99" d="M35.8,9.1C23.1,9.4,25,18.7,25,18.7c6.5-3.5,18-2.5,21.5,0C46.5,18.7,48.4,9.4,35.8,9.1z"/>
	</g>
	<path fill="#000100" d="M42,25.4c0,1.1-0.9,2-2,2c-1.1,0-2-0.9-2-2c0-1.1,0.9-2,2-2C41.1,23.4,42,24.3,42,25.4"/>
	<path fill="#000100" d="M34,25.4c0,1.1-0.9,2-2,2c-1.1,0-2-0.9-2-2c0-1.1,0.9-2,2-2C33.1,23.4,34,24.3,34,25.4"/>
	<path fill="#000100" d="M36,35.4c-1.2,0-2.3-0.3-3.4-0.9c-0.5-0.2-0.7-0.8-0.4-1.3c0.2-0.5,0.8-0.7,1.3-0.4c1.7,0.9,3.4,0.9,5.1,0
		c0.5-0.2,1.1,0,1.3,0.4c0.2,0.5,0,1.1-0.4,1.3C38.3,35.1,37.1,35.4,36,35.4z"/>
	<path fill="none" stroke="#000000" stroke-width="2" stroke-miterlimit="10" d="M24.8,24.3c-0.1,0.8-0.2,1.6-0.2,2.5
		c0,7.8,5.1,14.2,11.3,14.2c6.3,0,11.3-6.3,11.3-14.2c0-1.2-0.1-2.3-0.3-3.4"/>
	<path fill="#E27023" d="M58.9,32.3c4.6,3.8,7.9-1.1,7.9-1.1s-3.2-5-7.8-1.5"/>
	
		<polyline fill="#90D2F4" stroke="#000000" stroke-width="2" stroke-linecap="round" stroke-linejoin="round" stroke-miterlimit="10" points="
		32,9.5 32,12.6 39.2,12.6 39.2,9.5 	"/>
	
		<line fill="none" stroke="#000000" stroke-width="2" stroke-linecap="round" stroke-linejoin="round" stroke-miterlimit="10" x1="47.5" y1="15.7" x2="47.5" y2="13"/>
	
		<line fill="none" stroke="#000000" stroke-width="2" stroke-linecap="round" stroke-linejoin="round" stroke-miterlimit="10" x1="24.1" y1="15.7" x2="24.1" y2="13"/>
	<path fill="none" stroke="#1D1D1B" stroke-width="3" stroke-linejoin="round" stroke-miterlimit="10" d="M51.8,41.6"/>
	<path fill="#FCEA2C" d="M58.5,31.7c2.2,1.8,3.7-0.5,3.7-0.5s-1.5-2.3-3.7-0.7"/>
	<path fill="none" stroke="#000000" stroke-width="2" stroke-linecap="round" stroke-linejoin="round" stroke-miterlimit="10" d="
		M21.6,32.4"/>
	<path fill="none" stroke="#000000" stroke-width="2" stroke-linecap="round" stroke-linejoin="round" stroke-miterlimit="10" d="
		M54,48.4c2.1,3.8,1.3,8.5,1.3,8.5"/>
	<path fill="none" stroke="#000000" stroke-width="2" stroke-linecap="round" stroke-linejoin="round" stroke-miterlimit="10" d="
		M17.5,56.9c0,0-2-13,10-13c3.2,2.1,5.9,3.6,9,3.6h-0.1c2.7,0,5.2-1.1,7.9-2.9"/>
	
		<polyline fill="none" stroke="#000000" stroke-width="2" stroke-linecap="round" stroke-linejoin="round" stroke-miterlimit="10" points="
		27.5,43.9 27.5,53.8 41.7,53.8 	"/>
	
		<line fill="none" stroke="#000000" stroke-width="2" stroke-linecap="round" stroke-linejoin="round" stroke-miterlimit="10" x1="21.9" y1="45.2" x2="21.9" y2="56.9"/>
	<g id="XMLID_50_">
		<g>
		</g>
		<g>
		</g>
	</g>
	<path fill="none" stroke="#000000" stroke-width="2" stroke-linecap="round" stroke-linejoin="round" stroke-miterlimit="10" d="
		M25,18.7c0,0-1.9-9.3,10.8-9.6h-0.2c12.7,0.3,10.8,9.6,10.8,9.6"/>
	<path fill="none" stroke="#000000" stroke-width="3" stroke-linejoin="round" stroke-miterlimit="10" d="M49.9,41.6l2-7.1
		c0,0,0.8-2.7,2.3-2.7l4-0.5"/>
	<path fill="#69462E" d="M24.6,25.7"/>
	<path fill="#69462E" d="M24.9,24.5C29.6,24,36.7,17,36.7,17s8.5,8.7,10.9,6.9c0.2-2.4-1.3-4.8-1.3-4.8s-8.8-5.5-20-0.4
		c-3.1,3.8-1.6,7-1.6,7"/>
	
		<rect x="39.8" y="47.3" transform="matrix(0.2706 -0.9627 0.9627 0.2706 -12.588 81.9158)" fill="#3F3F3F" stroke="#000000" stroke-width="2" stroke-linecap="round" stroke-linejoin="round" stroke-miterlimit="10" width="16" height="4"/>
	
		<line fill="#9A9B99" stroke="#000000" stroke-width="2" stroke-linecap="round" stroke-linejoin="round" stroke-miterlimit="10" x1="58" y1="28.1" x2="58.4" y2="34.3"/>
	<path fill="none" stroke="#000000" stroke-width="2" stroke-linecap="round" stroke-linejoin="round" stroke-miterlimit="10" d="
		M26.3,18.5c-3.1,3.8-1.6,7-1.6,7s-9.4,2.5-7,14.1c0,0,4.4-0.1,6.3-2.4"/>
	<path fill="none" stroke="#000000" stroke-width="2" stroke-linecap="round" stroke-linejoin="round" stroke-miterlimit="10" d="
		M46.3,18.8c0,0,1.5,2.4,1.3,4.8c-2.4,1.8-10.9-6.9-10.9-6.9s-7,7.1-11.8,7.6"/>
	<path fill="none" stroke="#000000" stroke-width="2" stroke-linecap="round" stroke-linejoin="round" stroke-miterlimit="10" d="
		M49.7,20.8c-2.1-2.6-8.3-4.2-14.5-4.3h1.1c-6.2,0.1-12.3,1.7-14.5,4.3"/>
	<path fill="none" stroke="#000000" stroke-width="2" stroke-linecap="round" stroke-linejoin="round" stroke-miterlimit="10" d="
		M58.9,32.3c4.6,3.8,7.9-1.1,7.9-1.1s-3.2-5-7.8-1.5"/>
</g>
</svg>
