<?xml version="1.0" encoding="utf-8"?>
<!-- Generator: Adobe Illustrator 21.1.0, SVG Export Plug-In . SVG Version: 6.00 Build 0)  -->
<svg version="1.1" id="emoji" xmlns="http://www.w3.org/2000/svg" xmlns:xlink="http://www.w3.org/1999/xlink" x="0px" y="0px"
	 viewBox="0 0 72 72" enable-background="new 0 0 72 72" xml:space="preserve">
<g id="_xD83D__xDC68__x200D__xD83D__xDE92__1_">
	<path fill="#A37838" d="M16.7,58.9c0,0-2-13.5,10-13.5c3.2,2.1,5.9,3.6,9,3.6h-0.1c3.1,0,5.7-2.6,8.9-4.7
		c10.1-0.6,11.8,7.5,11.4,10.9c-0.2,1.9-1.1,3.7-1,3.7"/>
	<g id="XMLID_55_">
		<g>
			<path fill="#FCEA2C" d="M44.7,45L44.7,45l-5,7.7H32L26.9,45c3.1,2.1,5.9,3.6,8.9,3.6c0,0,0,0,0,0h0.1
				C38.9,48.5,41.6,47.1,44.7,45z"/>
			<polygon fill="#3F3F3F" points="39.7,52.7 35.8,58.6 32,52.7 			"/>
		</g>
		<g>
		</g>
	</g>
	<path fill="#C12423" d="M51.8,21.9c-1.2-1-3.2-1.3-5-1.2c-1.9,0.1-3.8,0.7-5.5,1.8c-1.7,1-3.5,1.5-5.3,1.5c-1.8,0-3.6-0.5-5.3-1.5
		c-1.7-1-3.6-1.6-5.5-1.8c-1.9-0.1-3.8,0.1-5,1.2c0,0-4.5,3.4,0.6,7.4c10.1,4.2,20.3,4.2,30.4,0C56.3,25.3,51.8,21.9,51.8,21.9z"/>
	<ellipse fill="#FCEA2C" cx="35.8" cy="28.5" rx="11.3" ry="14.2"/>
	<g>
		<path fill="#EA5946" d="M35.8,7.2c0.1,0,0.1,0,0.2,0c0.1,0,0.1,0,0.2,0H35.8z"/>
		<path fill="#EA5946" d="M36,7.2c-5.4,0.1-11.7,2.6-11.8,12.5l-0.3,0.9c0.6-0.1,1.2-0.1,1.8,0c1.9,0.1,3.7,0.7,5.3,1.6
			c1.6,0.9,3.4,1.4,5.1,1.4c1.7,0,3.5-0.5,5.1-1.4c1.6-0.9,3.5-1.5,5.3-1.6c0.5,0,1,0,1.5,0l-0.3-0.9C47.7,9.8,41.4,7.3,36,7.2z"/>
	</g>
	<path fill="#000100" d="M42,27c0,1.1-0.9,2-2,2s-2-0.9-2-2c0-1.1,0.9-2,2-2S42,25.9,42,27"/>
	<path fill="#000100" d="M34,27c0,1.1-0.9,2-2,2s-2-0.9-2-2c0-1.1,0.9-2,2-2S34,25.9,34,27"/>
	<path fill="#000100" d="M36,37c-1.2,0-2.3-0.3-3.4-0.9c-0.5-0.2-0.7-0.8-0.4-1.3c0.2-0.5,0.8-0.7,1.3-0.4c1.7,0.9,3.4,0.9,5.1,0
		c0.5-0.2,1.1,0,1.3,0.4c0.2,0.5,0,1.1-0.4,1.3C38.3,36.7,37.1,37,36,37z"/>
	<path fill="none" stroke="#000000" stroke-width="2" stroke-linecap="round" stroke-linejoin="round" stroke-miterlimit="10" d="
		M24.6,28.4c0,7.8,5.1,14.2,11.3,14.2s11.3-6.3,11.3-14.2"/>
	<path fill="none" stroke="#000000" stroke-width="2" stroke-linecap="round" stroke-linejoin="round" stroke-miterlimit="10" d="
		M16.9,57.9c0,0-2-13,10-13c3.2,2.1,5.9,3.6,9,3.6h-0.1c3.1,0,5.8-1.5,9-3.6c1.2,0,2.3,0.1,3.3,0.4"/>
	
		<path fill="#FCEA2C" stroke="#000000" stroke-width="2" stroke-linecap="round" stroke-linejoin="round" stroke-miterlimit="10" d="
		M31.7,17.9v-4.7l4.1-5.8l4.5,5.9v4.6C37.7,19.7,33.9,19.1,31.7,17.9z"/>
	
		<polyline fill="none" stroke="#000000" stroke-width="2" stroke-linecap="round" stroke-linejoin="round" stroke-miterlimit="10" points="
		25.1,45 25.1,57.9 26.9,57.9 26.9,44.9 35.8,57.9 44.7,45 44.7,56.5 46.5,53 46.5,45.1 	"/>
	
		<line fill="none" stroke="#000000" stroke-width="2" stroke-linecap="round" stroke-linejoin="round" stroke-miterlimit="10" x1="32" y1="52.2" x2="39.7" y2="52.2"/>
	<path fill="none" stroke="#000000" stroke-width="2" stroke-linecap="round" stroke-linejoin="round" stroke-miterlimit="10" d="
		M47.6,19.7c-0.1-10.1-6.5-12.5-12-12.5H36c-5.5,0-11.9,2.5-12,12.5"/>
	<path fill="#69462E" d="M47.7,20.6c1.4,3.2,0.2,7.6-0.8,7.6c-1.8,0.3-2.4-5-2.4-5c-0.3,3.7-2.6,1.2-4-0.8"/>
	<path fill="#69462E" d="M40.9,22.3c1.6-0.9,3.5-1.5,5.3-1.6"/>
	<path fill="#69462E" d="M25.3,20.6c1.9,0.1,3.7,0.7,5.3,1.6"/>
	<path fill="#69462E" d="M31,22.4c-1.4,1.9-3.7,4.5-4,0.8c0,0-0.5,5.3-2.4,5c-1,0-2.1-4.4-0.8-7.6"/>
	<path fill="none" stroke="#000000" stroke-width="2" stroke-linecap="round" stroke-linejoin="round" stroke-miterlimit="10" d="
		M40.8,22.4c1.4,1.9,3.7,4.5,4,0.8c0,0,0.5,5.3,2.4,5c1,0,2.1-4.4,0.8-7.6"/>
	<path fill="none" stroke="#000000" stroke-width="2" stroke-linecap="round" stroke-linejoin="round" stroke-miterlimit="10" d="
		M31.2,22.4c-1.4,1.9-3.7,4.5-4,0.8c0,0-0.5,5.3-2.4,5c-1,0-2.1-4.4-0.8-7.6"/>
	<path fill="none" stroke="#000000" stroke-width="2" stroke-linecap="round" stroke-linejoin="round" stroke-miterlimit="10" d="
		M50.7,28.5c4.9-3.6,0.6-6.8,0.6-6.8c-1.2-0.9-3.1-1.2-4.9-1.1c-1.9,0.1-3.7,0.7-5.3,1.6c-1.6,0.9-3.4,1.4-5.1,1.4
		c-1.7,0-3.5-0.5-5.1-1.4c-1.6-0.9-3.5-1.5-5.3-1.6c-1.8-0.1-3.7,0.1-4.9,1.1c0,0-4.3,3.2,0.6,6.8"/>
	<g>
		<g id="XMLID_54_">
			<g>
				<path fill="#9A9B99" d="M63.7,38.6l1.4,1.7c-2.3,1.8-6.6,7.2-6.6,7.2l-3-3.6C55.5,43.9,61.4,40.7,63.7,38.6z"/>
				
					<rect x="53.8" y="44.5" transform="matrix(0.7694 -0.6387 0.6387 0.7694 -17.1339 46.3199)" fill="#9A9B99" width="3.7" height="4.7"/>
				<path fill="#3F3F3F" d="M52.7,46.2l3,3.7c0,0-7,5.9-6.7,9h-5.2C42.9,52.8,52.7,46.2,52.7,46.2z"/>
			</g>
			<g>
			</g>
		</g>
	</g>
	<g>
		<path fill="none" stroke="#000000" stroke-width="2" stroke-linecap="round" stroke-linejoin="round" stroke-miterlimit="10" d="
			M58.6,47.6l-2.8,2.3l-3-3.7l2.8-2.3L58.6,47.6c0,0,4.3-5.5,6.6-7.2l-1.4-1.7c-2.3,2.1-8.2,5.3-8.2,5.3l-7.4-3.5"/>
		<path fill="none" stroke="#000000" stroke-width="2" stroke-linecap="round" stroke-linejoin="round" stroke-miterlimit="10" d="
			M52.8,46.2c0,0-9.8,5.5-8.8,11.7"/>
		<path fill="none" stroke="#000000" stroke-width="2" stroke-linecap="round" stroke-linejoin="round" stroke-miterlimit="10" d="
			M55.8,49.9c0,0-7,4.9-6.6,8"/>
		<path fill="none" stroke="#000000" stroke-width="2" stroke-linecap="round" stroke-linejoin="round" stroke-miterlimit="10" d="
			M54.6,47.5"/>
	</g>
	<path fill="none" stroke="#000000" stroke-width="2" stroke-linecap="round" stroke-linejoin="round" stroke-miterlimit="10" d="
		M54.9,57.9c0,0,0.1-0.5,0.1-1.4c0-0.1,0-0.2,0-0.3c0-0.3,0-0.7,0-1l0-0.6"/>
</g>
</svg>
