<svg id="emoji" xmlns="http://www.w3.org/2000/svg" viewBox="0 0 72 72">
  <g id="color">
    <rect x="23.8158" y="49.2957" width="24.4194" height="8.6781" stroke-width="1.6" stroke="#92d3f5" stroke-linecap="round" stroke-linejoin="round" fill="#92d3f5"/>
    <path d="M31.8922,51.714v5.7333l3.6391,1.22v2.2236H11.7426V47.74c0-2.962,3.3527-5.5341,5.9893-5.6586,3.9507,3.3437,8.5754,2.1821,12.5429-.4812,2.6451.1244,5.2565,2.9952,5.2565,5.9573v4.3311Z" fill="#92d3f5"/>
    <path d="M37.4022,51.9087s-5.7978-7.2064-3.1925-7.3321c5.5418-.08,16.8329.8056,20.7242-2.5708,2.597.1257,5.8993,2.7229,5.8993,5.7138V60.9989l-15.16-.01-.333-3.7742Z" fill="#92d3f5"/>
    <path d="M26.5156,61.016V59.9614a4.8923,4.8923,0,0,1,4.8977-4.5376q4.4079,3.7813,8.8159,0a4.8919,4.8919,0,0,1,4.8977,4.5376V61.016Z" fill="#b1cc33"/>
  </g>
  <g id="skin">
    <path d="M23.0176,19.2572c4.4577,0,8.0714,4.6184,8.0714,10.3155s-3.6137,10.3155-8.0714,10.3155c-3.9,0-5.3855-4.1986-7.9072-8.236-.5594-.8955-.1641-1.3672-.1641-2.0795C14.9463,23.8756,18.56,19.2572,23.0176,19.2572Z" fill="#fcea2b"/>
    <path d="M48.731,18.8945c-4.4577,0-8.0714,4.6184-8.0714,10.3155s3.6137,10.3154,8.0714,10.3154c3.9,0,5.3855-4.1985,7.9073-8.2359.5593-.8955.164-1.3672.164-2.0795C56.8023,23.5129,53.1887,18.8945,48.731,18.8945Z" fill="#fcea2b"/>
    <path d="M42.9189,47.3577a7.4617,7.4617,0,0,1-2.605,5.7526,6.2882,6.2882,0,0,1-2.3308,1.2566l-.2742.0769a6.3891,6.3891,0,0,1-1.4076.1624,5.9963,5.9963,0,0,1-.9689-.0769c-.1463-.0257-.2834-.0513-.42-.0855a6.2483,6.2483,0,0,1-2.8792-1.5557,7.5191,7.5191,0,0,1-2.3491-5.53,6.94,6.94,0,0,1,1.4533-4.385,6.4224,6.4224,0,0,1,5.1-2.3933,6.5588,6.5588,0,0,1,5.6305,3.043A6.8551,6.8551,0,0,1,42.9189,47.3577Z" fill="#fcea2b"/>
  </g>
  <g id="hair">
    <path d="M12.8407,24.7588c.5981-7.9646,6.7385-8.05,9.826-7.5647a8.2942,8.2942,0,0,0,1.4037,0c5.6148-.6877,8.4223,5.5015,8.4223,8.2524,0,.973,0,3.4384-1.4037,4.8138,0,0-3.2145-3.8124-3.3619-6.0324,0,0-10.6752,3.9692-11.3771.5308.0336.0028-1.7275,3.7247-1.4037,6.1892A9.5011,9.5011,0,0,1,12.8407,24.7588Z" fill="#a57939"/>
    <path d="M58.9079,24.3961c-.5981-7.9646-6.7385-8.05-9.826-7.5647a8.2942,8.2942,0,0,1-1.4037,0c-5.6148-.6877-8.4223,5.5015-8.4223,8.2523,0,.9731,0,3.4385,1.4037,4.8139,0,0,3.2145-3.8124,3.3619-6.0324,0,0,10.6752,3.9692,11.3771.5308-.0336.0028,1.7275,3.7247,1.4037,6.1892A9.5011,9.5011,0,0,0,58.9079,24.3961Z" fill="#a57939"/>
    <path d="M36.0029,42.5917a8.7923,8.7923,0,0,1,5.244,5.9437,9.5713,9.5713,0,0,1,.6746,3.6866,4.1816,4.1816,0,0,0,3.8023-1.4541A7.2293,7.2293,0,0,1,43.5773,47.63c1.0617-11.2264-7.4809-8.4921-7.4809-8.4921h0s-8.22-2.5261-7.6678,8.4921a7.23,7.23,0,0,1-2.1465,3.1375,4.1816,4.1816,0,0,0,3.8023,1.4541,9.5253,9.5253,0,0,1,.6747-3.6866,9.137,9.137,0,0,1,5.2438-5.9437" fill="#a57939"/>
  </g>
  <g id="line">
    <path d="M43.3433,44.459c2.5882.8124,8.6351.12,11.2232-2.0369,3.129,0,6.2667,2.51,6.2667,5.64V59.9856" fill="none" stroke="#000" stroke-linecap="round" stroke-linejoin="round" stroke-width="2"/>
    <path d="M11.7426,60.0609V48.1374c0-3.13,3.1856-5.64,6.3624-5.64,2.6276,2.1567,6.6811,2.2712,9.3087,1.4589" fill="none" stroke="#000" stroke-linecap="round" stroke-linejoin="round" stroke-width="2"/>
    <g>
      <path d="M31.089,29.5727c0,5.6971-3.6137,10.3155-8.0714,10.3155S14.72,35.2274,14.72,29.53" fill="none" stroke="#000" stroke-miterlimit="10" stroke-width="2"/>
      <path d="M12.8407,24.7588c.5981-7.9646,6.7385-8.05,9.826-7.5647a8.2942,8.2942,0,0,0,1.4037,0c5.6148-.6877,8.4223,5.5015,8.4223,8.2524,0,.973,0,3.4384-1.4037,4.8138,0,0-3.2145-3.8124-3.3619-6.0324,0,0-10.6752,3.9692-11.3771.5308,0,0-2.4,1.7757-1.43,6.52A14.0688,14.0688,0,0,1,12.8407,24.7588Z" fill="none" stroke="#000" stroke-linecap="round" stroke-linejoin="round" stroke-width="2"/>
      <path d="M26.5767,30.1726a1.3014,1.3014,0,1,1-1.3011-1.2749,1.2882,1.2882,0,0,1,1.3011,1.2749"/>
      <path d="M21.7666,30.2226a1.3014,1.3014,0,1,1-1.3011-1.2748,1.2882,1.2882,0,0,1,1.3011,1.2748"/>
      <path d="M21.116,35.4815a4.2233,4.2233,0,0,0,3.9035,0" fill="none" stroke="#000" stroke-linecap="round" stroke-linejoin="round" stroke-width="1.6"/>
    </g>
    <g>
      <path d="M40.66,29.21c0,5.6971,3.6137,10.3154,8.0714,10.3154s8.2975-4.6607,8.2975-10.3578" fill="none" stroke="#000" stroke-miterlimit="10" stroke-width="2"/>
      <path d="M58.9079,24.3961c-.5981-7.9646-6.7385-8.05-9.826-7.5647a8.2942,8.2942,0,0,1-1.4037,0c-5.6148-.6877-8.4223,5.5015-8.4223,8.2523,0,.9731,0,3.4385,1.4037,4.8139,0,0,3.2145-3.8124,3.3619-6.0324,0,0,10.6752,3.9692,11.3771.5308,0,0,2.4,1.7757,1.43,6.52A14.0688,14.0688,0,0,0,58.9079,24.3961Z" fill="none" stroke="#000" stroke-linecap="round" stroke-linejoin="round" stroke-width="2"/>
      <path d="M45.1719,29.81A1.3014,1.3014,0,1,0,46.473,28.535,1.2882,1.2882,0,0,0,45.1719,29.81"/>
      <path d="M49.982,29.86a1.3014,1.3014,0,1,0,1.3011-1.2748A1.2882,1.2882,0,0,0,49.982,29.86"/>
      <path d="M50.6326,35.1188a4.2233,4.2233,0,0,1-3.9035,0" fill="none" stroke="#000" stroke-linecap="round" stroke-linejoin="round" stroke-width="1.6"/>
    </g>
    <g>
      <path d="M41.5039,51.9179l2.6791.08.3913.0079S42.2609,52.6257,41.5039,51.9179Z" fill="#fff"/>
      <path d="M41.3593,55.2982a7.8075,7.8075,0,0,0,2.8237,1.2965,3.7392,3.7392,0,0,0,.3913.0716Z" fill="#fff"/>
      <path d="M44.5743,58.432l-.3913-.1273" fill="none"/>
      <path d="M41.2815,50.2979a9.6646,9.6646,0,0,1-2.05,3.15,5.8506,5.8506,0,0,1-2.1689,1.1692l-.2551.0716a5.95,5.95,0,0,1-1.31.1511,5.5737,5.5737,0,0,1-.9016-.0716c-.1361-.0238-.2636-.0477-.3912-.08a5.8152,5.8152,0,0,1-2.6792-1.4476,9.5241,9.5241,0,0,1-1.7591-2.78" fill="none" stroke="#000" stroke-miterlimit="10" stroke-width="1.6"/>
      <path d="M38.2793,47.5928a.8928.8928,0,1,1-.8908-.833.8634.8634,0,0,1,.8908.833Z"/>
      <path d="M34.7162,47.5928a.8928.8928,0,1,1-.8907-.833.8633.8633,0,0,1,.8907.833Z"/>
      <path d="M34.2709,50.8356a2.093,2.093,0,0,0,2.6722,0" fill="none" stroke="#000" stroke-linecap="round" stroke-linejoin="round" stroke-width="1.6"/>
      <path d="M44.9109,60.3123v-.9067c0-2.02-2.1518-3.6746-4.44-3.8655a4.4434,4.4434,0,0,0-.4593-.0238,2.2481,2.2481,0,0,1-.2467.167,7.6983,7.6983,0,0,1-2.8662,1.3123.0123.0123,0,0,1-.017,0,5.7524,5.7524,0,0,1-2.2114.0637,3.7375,3.7375,0,0,1-.3912-.0716,7.8071,7.8071,0,0,1-2.8238-1.2965c-.085-.0556-.17-.1113-.2551-.1749a4.4434,4.4434,0,0,0-.4593.0238c-2.2879.1909-4.44,1.8453-4.44,3.8655v.9067" fill="none" stroke="#000" stroke-linecap="round" stroke-linejoin="round" stroke-width="1.6"/>
      <path d="M31.6617,39.2169c-1.7214.6141-3.415,2.2239-3.7034,6.1506a18.0623,18.0623,0,0,0-.0186,2.2611A7.1971,7.1971,0,0,1,25.79,50.7644a4.1879,4.1879,0,0,0,3.8058,1.4609,9.6058,9.6058,0,0,1,.67-3.6941,10.7889,10.7889,0,0,1,.9305-2.1216,8.4348,8.4348,0,0,1,4.3176-3.815,8.3085,8.3085,0,0,1,4.01,3.2288,11.0077,11.0077,0,0,1,1.2376,2.7078c.2047.6793.3536,1.2469.4466,1.7121a6.0828,6.0828,0,0,1,.2234,1.982,3.5968,3.5968,0,0,0,1.2561.0279h.0187a3.514,3.514,0,0,0,.8839-.27,4.6634,4.6634,0,0,0,1.647-1.219,7.1975,7.1975,0,0,1-2.1494-3.1358,14.1022,14.1022,0,0,0-.0559-3.5359c-.53-3.4056-2.5309-4.606-4.3175-4.9689a7.75,7.75,0,0,0-3.1079.0186,7.212,7.212,0,0,0-1.9168-.2512,6.3041,6.3041,0,0,0-2.0285.3257" fill="none" stroke="#000" stroke-linecap="round" stroke-linejoin="round" stroke-width="1.6"/>
    </g>
  </g>
</svg>
