<?xml version="1.0" encoding="utf-8"?>
<!-- Generator: Adobe Illustrator 21.1.0, SVG Export Plug-In . SVG Version: 6.00 Build 0)  -->
<svg version="1.1" id="emoji" xmlns="http://www.w3.org/2000/svg" xmlns:xlink="http://www.w3.org/1999/xlink" x="0px" y="0px"
	 viewBox="0 0 72 72" enable-background="new 0 0 72 72" xml:space="preserve">
<g id="_xD83D__xDC69__x200D__xD83D__xDE80__1_">
	<path fill="#9A9B99" d="M50.9,27.5c0,1.2-0.1,2.4-0.4,3.6c-1.6,6.6-7.5,11.4-14.6,11.4c-7.1,0-13-4.9-14.6-11.4
		c-0.3-1.1-0.4-2.3-0.4-3.6c0-8.3,6.7-15,15-15C44.2,12.5,50.9,19.2,50.9,27.5z"/>
	<path fill="#CFCFCE" d="M31.9,12.9c0,0-6.5,2.2-9.2,7.4c-1.2,2.1-3,3.5-1.4,10.8c1.6,7.3,10.6,11,10.6,11c5.5-1.3,9.8-5.6,11.1-11
		c0.3-1.1,0.4-2.3,0.4-3.6C43.5,20.4,38.5,14.5,31.9,12.9z"/>
	<path fill="#FCEA2C" d="M47,26.6C46.6,24,33,18,24.8,25.8c0,0-0.3,2-0.3,3.1c0,7.8,5.1,14.2,11.3,14.2c6.3,0,11.3-6.3,11.3-14.2
		C47.1,28.1,47.3,29.1,47,26.6z"/>
	<path fill="#A37838" d="M42,23.4c2.1,0.6,3.8,1.9,5,3.5c0.3,0.4,0.5,0.7,0.7,1.1l-0.6-0.9c0,0.4,0,0.8,0,1.2c0,2.1-0.4,4.1-1,5.9
		l0.3-0.7c-3.1,1.6-2.9-9.2-2.9-9.2"/>
	<path fill="#A37838" d="M33.8,22.6c0,0-3.7,5.4-8.5,8l-0.6,0.5c-0.2-0.9-0.2-1.9-0.2-2.9c0-0.4,0-0.8,0-1.2l-0.6,1
		c1.2-2.2,3.2-3.9,5.7-4.6"/>
	<path fill="#CFCFCE" d="M16.8,58.8c0,0-2-13.7,10-13.7c3.2,2.1,5.9,3.6,9,3.6h-0.1c3.1,0,5.5-2.2,8.7-4.3
		C59.9,44.3,55,58.8,55,58.8"/>
	<rect x="28.1" y="52.9" fill="#9A9B99" width="15.6" height="5.8"/>
	<path fill="#9A9B99" d="M44.4,45.7c-3.2,2.1-4.9,3-8.9,3.6c13.1,0.4,13.1,5.5,13.8,9.5c4.2,0,5.1,0,5.1,0S56.4,45.7,44.4,45.7z"/>
	<path d="M34.5,58.7c0-0.2,0.1-0.3,0.1-0.5c0-1.1-0.9-2-2-2h0c-1.1,0-2,0.9-2,2c0,0.2,0,0.3,0.1,0.5"/>
	<path d="M41.2,58.7c0-0.2,0.1-0.3,0.1-0.5c0-1.1-0.9-2-2-2h0c-1.1,0-2,0.9-2,2c0,0.2,0,0.3,0.1,0.5"/>
	
		<polyline fill="none" stroke="#000000" stroke-width="2" stroke-linecap="round" stroke-linejoin="round" stroke-miterlimit="10" points="
		43.5,57.8 43.5,53 28.3,53 28.3,57.8 	"/>
	<path d="M41.9,27c0,1.1-0.9,2-2,2c-1.1,0-2-0.9-2-2c0-1.1,0.9-2,2-2C41,25,41.9,25.9,41.9,27"/>
	<path d="M33.9,27c0,1.1-0.9,2-2,2c-1.1,0-2-0.9-2-2c0-1.1,0.9-2,2-2C33,25,33.9,25.9,33.9,27"/>
	<path d="M35.9,37c-1.2,0-2.3-0.3-3.4-0.9c-0.5-0.2-0.7-0.8-0.4-1.3c0.2-0.5,0.8-0.7,1.3-0.4c1.7,0.9,3.4,0.9,5.1,0
		c0.5-0.2,1.1,0,1.3,0.4c0.2,0.5,0,1.1-0.4,1.3C38.2,36.7,37.1,37,35.9,37z"/>
	<path fill="none" stroke="#000000" stroke-width="2" stroke-miterlimit="10" d="M46.2,34.2c0.7-1.8,1-3.8,1-5.9c0-0.4,0-0.8,0-1.2"
		/>
	<path fill="none" stroke="#000000" stroke-width="2" stroke-miterlimit="10" d="M24.6,27.1c0,0.4,0,0.8,0,1.2
		c0,7.8,5.1,14.2,11.3,14.2"/>
	<path fill="none" stroke="#000000" stroke-width="2" stroke-linecap="round" stroke-linejoin="round" stroke-miterlimit="10" d="
		M16.9,57.8c0,0-2-13,10-13c3.2,2.1,5.9,3.6,9,3.6h-0.1c3.1,0,5.8-1.5,9-3.6c12,0,10,13,10,13"/>
	<path fill="none" stroke="#000000" stroke-width="2" stroke-linecap="round" stroke-linejoin="round" stroke-miterlimit="10" d="
		M50.9,27.5c0,1.2-0.1,2.4-0.4,3.6c-1.6,6.6-7.5,11.4-14.6,11.4c-7.1,0-13-4.9-14.6-11.4c-0.3-1.1-0.4-2.3-0.4-3.6
		c0-8.3,6.7-15,15-15S50.9,19.2,50.9,27.5z"/>
	<path fill="none" stroke="#1D1D1B" stroke-width="2" stroke-linecap="round" stroke-linejoin="round" stroke-miterlimit="10" d="
		M47.8,28.1c-0.2-0.4-0.4-0.8-0.7-1.1c-1.2-1.6-2.9-2.9-5-3.5c-2.1-0.6-4.1-0.9-6.2-0.8c-2.1-0.1-4.1,0.2-6.2,0.8
		c-2.5,0.7-4.5,2.4-5.7,4.6"/>
	
		<line fill="none" stroke="#000000" stroke-width="2" stroke-linecap="round" stroke-linejoin="round" stroke-miterlimit="10" x1="53.9" y1="25.5" x2="53.9" y2="30.2"/>
	
		<line fill="none" stroke="#000000" stroke-width="2" stroke-linecap="round" stroke-linejoin="round" stroke-miterlimit="10" x1="17.8" y1="25.5" x2="17.8" y2="30.2"/>
	<path fill="none" stroke="#000000" stroke-width="2" stroke-linecap="round" stroke-miterlimit="10" d="M46.1,34.2
		c-2.6,5.1-9.6,5.1-9.6,5.1"/>
	
		<polyline fill="none" stroke="#000000" stroke-width="2" stroke-linecap="round" stroke-linejoin="round" stroke-miterlimit="10" points="
		43.8,57.8 43.8,53 28.6,53 28.6,57.8 	"/>
	<path fill="none" stroke="#000000" stroke-width="2" stroke-linecap="round" stroke-miterlimit="10" d="M36.3,22.4"/>
	<path fill="none" stroke="#000000" stroke-width="2" stroke-linecap="round" stroke-miterlimit="10" d="M43.6,24.4
		c0,0-0.2,10.7,2.9,9.2"/>
	<path fill="none" stroke="#000000" stroke-width="2" stroke-linecap="round" stroke-miterlimit="10" d="M33.9,22.7
		c0,0-3.7,5.4-8.5,8"/>
	<path fill="none" stroke="#000000" stroke-width="2" stroke-miterlimit="10" d="M46.2,34.2c0.7-1.8,1-3.8,1-5.9c0-0.4,0-0.8,0-1.2"
		/>
	<path fill="none" stroke="#000000" stroke-width="2" stroke-miterlimit="10" d="M24.6,27.1c0,0.4,0,0.8,0,1.2
		c0,7.8,5.1,14.2,11.3,14.2"/>
	<path fill="none" stroke="#000000" stroke-width="2" stroke-linecap="round" stroke-linejoin="round" stroke-miterlimit="10" d="
		M47.8,28.1c-0.2-0.4-0.4-0.8-0.7-1.1c-1.2-1.6-2.9-2.9-5-3.5c-2.1-0.6-4.1-0.9-6.2-0.8c-2.1-0.1-4.1,0.2-6.2,0.8
		c-2.5,0.7-4.5,2.4-5.7,4.6"/>
	<path fill="none" stroke="#000000" stroke-width="2" stroke-linecap="round" stroke-miterlimit="10" d="M43.6,24.4
		c0,0-0.2,10.7,2.9,9.2"/>
	<path fill="none" stroke="#000000" stroke-width="2" stroke-linecap="round" stroke-miterlimit="10" d="M33.9,22.7
		c0,0-3.7,5.4-8.5,8"/>
</g>
</svg>
