<svg id="emoji" xmlns="http://www.w3.org/2000/svg" viewBox="0 0 72 72">
  <g id="color">
    <path d="M26.4906,61.0092v-1.1c0-2.6265,2.5842-4.7334,5.1612-4.7334q4.6452,3.9444,9.29,0c2.5776,0,5.1613,2.1068,5.1613,4.7334v1.1" fill="#b1cc33"/>
    <path d="M37.0472,56.4887a32.8122,32.8122,0,0,0-6.09-1.0852c-2.043-.1827-5.066,2.7149-4.9907,5.4262-4.01.1294-4.8765.1137-4.8765.1137l-9.1838.0474V47.84c0-2.9621,3.5064-5.5342,6.264-5.6586.9645.78,4.8279,1.4622,5.5235,2.617.661,1.0975,4.3346-1.0368,4.4623-.3287.3133,1.7386.9649,1.191,1.2476,3.6948,1.9452,1.43.3107,2.5887,1.5524,3.2325,3.9346,2.04,6.08.5215,6.08,2.7444Z" fill="#92d3f5"/>
  </g>
  <g id="skin">
    <ellipse cx="36.357" cy="46.5565" rx="6.4885" ry="7.031" fill="#fcea2b"/>
    <path d="M23.0176,19.2572c4.4577,0,8.0714,4.6184,8.0714,10.3155s-3.6137,10.3155-8.0714,10.3155c-3.9,0-5.3855-4.1986-7.9072-8.236-.5594-.8955-.1641-1.3672-.1641-2.0795C14.9463,23.8756,18.56,19.2572,23.0176,19.2572Z" fill="#fcea2b"/>
  </g>
  <g id="hair">
    <path d="M33.92,43.1338c.4694,3.363,4.4869-.8707,4.4869-.8707.5491,1.5737,4.4254,3.8674,4.4254,3.8674,1.0325-.9557.526-2.8525.3722-3.5136a5.1207,5.1207,0,0,0-5.8079-4.1141,6.4456,6.4456,0,0,1-1.0325,0c-2.2709-.3368-6.03-.1483-7.12,4.6433-.5316,2.3382.624,2.9844.624,2.9844S33.6322,41.0714,33.92,43.1338Z" fill="#a57939"/>
    <path d="M12.8407,24.7588c.5981-7.9646,6.7385-8.05,9.826-7.5647a8.2942,8.2942,0,0,0,1.4037,0c5.6148-.6877,8.4223,5.5015,8.4223,8.2524,0,.973,0,3.4384-1.4037,4.8138,0,0-3.2145-3.8124-3.3619-6.0324,0,0-10.6752,3.9692-11.3771.5308.0336.0028-1.7275,3.7247-1.4037,6.1892A9.5011,9.5011,0,0,1,12.8407,24.7588Z" fill="#a57939"/>
  </g>
  <g id="line">
    <path d="M11.2737,60.148V48.2244c0-3.1295,3.1377-5.64,6.2667-5.64,2.5881,2.1568,8.5253,2.3691,11.0283.4293l.3969-.3483" fill="none" stroke="#000" stroke-linecap="round" stroke-linejoin="round" stroke-width="2"/>
    <path d="M42.7154,46.13q.0117.2115.0117.4261a6.7761,6.7761,0,0,1-6.4885,7.031,6.7762,6.7762,0,0,1-6.4886-7.031q0-.1428.0052-.2841" fill="none" stroke="#000" stroke-miterlimit="10" stroke-width="1.6"/>
    <path d="M39.0908,47a.9414.9414,0,1,1-.9387-.869.9058.9058,0,0,1,.9387.869"/>
    <path d="M35.336,47a.9414.9414,0,1,1-.9387-.869A.9058.9058,0,0,1,35.336,47"/>
    <path d="M34.8667,50.3823a2.2232,2.2232,0,0,0,2.8161,0" fill="none" stroke="#000" stroke-linecap="round" stroke-linejoin="round" stroke-width="1.6"/>
    <path d="M33.8016,43.1338c.4694,3.363,4.4869-.8707,4.4869-.8707.5491,1.5737,4.4254,3.8674,4.4254,3.8674,1.0325-.9557.526-2.8525.3722-3.5136a5.1207,5.1207,0,0,0-5.8079-4.1141,6.4456,6.4456,0,0,1-1.0325,0c-2.2709-.3368-6.03-.1483-7.12,4.6433-.5316,2.3382.624,2.9844.624,2.9844S33.5138,41.0714,33.8016,43.1338Z" fill="none" stroke="#000" stroke-linecap="round" stroke-linejoin="round" stroke-width="1.6"/>
    <path d="M26.4906,60.1794v-.9437c0-2.253,2.5842-4.06,5.1612-4.06a7.2231,7.2231,0,0,0,9.29,0c2.5776,0,5.1613,1.8072,5.1613,4.06v.9437" fill="none" stroke="#000" stroke-linecap="round" stroke-linejoin="round" stroke-width="1.6"/>
    <g>
      <path d="M31.089,29.5727c0,5.6971-3.6137,10.3155-8.0714,10.3155S14.72,35.2274,14.72,29.53" fill="none" stroke="#000" stroke-miterlimit="10" stroke-width="2"/>
      <path d="M12.8407,24.7588c.5981-7.9646,6.7385-8.05,9.826-7.5647a8.2942,8.2942,0,0,0,1.4037,0c5.6148-.6877,8.4223,5.5015,8.4223,8.2524,0,.973,0,3.4384-1.4037,4.8138,0,0-3.2145-3.8124-3.3619-6.0324,0,0-10.6752,3.9692-11.3771.5308,0,0-2.4,1.7757-1.43,6.52A14.0688,14.0688,0,0,1,12.8407,24.7588Z" fill="none" stroke="#000" stroke-linecap="round" stroke-linejoin="round" stroke-width="2"/>
      <path d="M26.5767,30.1726a1.3014,1.3014,0,1,1-1.3011-1.2749,1.2882,1.2882,0,0,1,1.3011,1.2749"/>
      <path d="M21.7666,30.2226a1.3014,1.3014,0,1,1-1.3011-1.2748,1.2882,1.2882,0,0,1,1.3011,1.2748"/>
      <path d="M21.116,35.4815a4.2233,4.2233,0,0,0,3.9035,0" fill="none" stroke="#000" stroke-linecap="round" stroke-linejoin="round" stroke-width="1.6"/>
    </g>
  </g>
</svg>
