<svg id="emoji" viewBox="0 0 72 72" xmlns="http://www.w3.org/2000/svg">
  <g id="color" transform="scale(-1, 1) translate(-72, 0)">
    <path fill="#d0cfce" d="M40.0416,59.4823A12.319,12.319,0,0,1,27.5644,47.3234h0a12.3191,12.3191,0,1,1,12.4772,12.159"/>
    <path fill="#9b9b9a" d="M39.8108,41.6212a5.5435,5.5435,0,1,1-5.4715,5.6147A5.5435,5.5435,0,0,1,39.8108,41.6212z"/>
  </g>
  <g id="skin" transform="scale(-1, 1) translate(-72, 0)">
    <path fill="#c19a65" d="M43.9019,31.5638a.4877,.4877,0,0,0-.05,-.216l-1.0645,-2.1529a.6442,.6442,0,0,0-.4884,-.295c-.1669,0-.2768,.1566-.2768,.3513v1.9613a.4873,.4873,0,0,1-.4873,.4873h-1.4215a14.0763,14.0763,0,0,0-6.5905,1.5785a.4873,.4873,0,0,1-.7189,-.4905l.4619,-3.2823l.5986,-3.922a2.965,2.965,0,0,1,2.46,-2.6594L40.55,22.3922c1.6617,-.1993,2.758,.05,3.2576,.9971l2.3771,4.41A6.7577,6.7577,0,0,1,47.21,31.9772v6.6783c0,1.5228-.7282,2.1783-1.69,2.1783c-.9983,0-1.6183,-.9379-1.6183,-2.276z"/>
    <circle cx="37.7459" cy="15.736" r="3.5559" fill="#c19a65"/>
    <path fill="#c19a65" d="M21.3178,56.1237c-1.2071,0-2.01,-1.1816-2.01,-2.957c0,0,.5541,-10.2185,.744,-12.6678s2.3424,-3.947,5.7334,-3.947"/>
    <path fill="#c19a65" d="M25.7856,36.5519l-2.2944,17.2346c-.244,1.6308-1.0284,2.3372-2.1734,2.3372"/>
  </g>
  <g id="line" transform="scale(-1, 1) translate(-72, 0)">
    <path fill="none" stroke="#000" stroke-linecap="round" stroke-linejoin="round" stroke-width="2.0071" d="M23.4912,53.7865c-.244,1.6308-1.0284,2.3372-2.1734,2.3372"/>
    <g>
      <path fill="none" stroke="#000" stroke-linecap="round" stroke-linejoin="round" stroke-width="2.0071" d="M21.3178,56.1237c-1.2071,0-2.01,-1.1816-2.01,-2.957c0,0,.5541,-10.2185,.744,-12.6678s2.3424,-3.947,5.7334,-3.947"/>
      <path fill="none" stroke="#000" stroke-linecap="round" stroke-linejoin="round" stroke-width="2.0071" d="M45.4255,47.0927a5.5436,5.5436,0,1,1-5.6149,-5.4715h0"/>
      <path fill="none" stroke="#000" stroke-linecap="round" stroke-linejoin="round" stroke-width="2.0071" d="M41.717,31.7h-1.6041a14.0754,14.0754,0,0,0-7.4462,2.0607l.5987,-4.255l.5986,-3.922a2.965,2.965,0,0,1,2.46,-2.6594L40.55,22.3922c1.6617,-.1993,2.7878,.05,3.2576,.9971l3.2958,7.4548a1.2455,1.2455,0,0,1,.1064,.5034v7.3081c0,1.5228-.7282,2.1783-1.69,2.1783"/>
      <circle cx="37.7459" cy="15.736" r="3.5559" fill="none" stroke="#000" stroke-linecap="round" stroke-linejoin="round" stroke-width="2.0071"/>
      <path fill="none" stroke="#000" stroke-linecap="round" stroke-linejoin="round" stroke-width="2.0071" d="M49.5027,39.5367a12.2851,12.2851,0,1,1-7.4935,-4.382"/>
    </g>
  </g>
</svg>
