<svg id="emoji" xmlns="http://www.w3.org/2000/svg" viewBox="0 0 72 72">
  <g id="color">
    <path d="M36.5756,51.9s-5.7978-7.1367-3.1925-7.2612c5.5418-.0792,16.8329.7978,20.7243-2.546,2.597.1245,5.8992,2.6966,5.8992,5.6587V60.9024H36.5756V51.9Z" fill="#92d3f5"/>
    <rect x="22.9892" y="49.3827" width="24.4194" height="8.6781" stroke-width="1.6" stroke="#92d3f5" stroke-linecap="round" stroke-linejoin="round" fill="#92d3f5"/>
    <path d="M31.12,51.8011v5.7333l3.5844,1.22v2.2237H11.2737V47.8268c0-2.9621,3.3022-5.5342,5.8992-5.6586,3.8914,3.3437,8.4465,2.1821,12.3544-.4813,2.6053.1245,5.1774,2.9953,5.1774,5.9573v4.3311Z" fill="#92d3f5"/>
    <path d="M26.2759,61.0979v-1.1c0-2.6265,2.5842-4.7335,5.1612-4.7335q4.6452,3.9445,9.29,0c2.5776,0,5.1613,2.1069,5.1613,4.7335v1.1" fill="#b1cc33"/>
  </g>
  <g id="skin">
    <ellipse cx="36.1644" cy="46.5565" rx="6.4885" ry="7.031" fill="#fcea2b"/>
    <path d="M48.731,18.8945c-4.4577,0-8.0714,4.6184-8.0714,10.3155s3.6137,10.3154,8.0714,10.3154c3.9,0,5.3855-4.1985,7.9073-8.2359.5593-.8955.164-1.3672.164-2.0795C56.8023,23.5129,53.1887,18.8945,48.731,18.8945Z" fill="#fcea2b"/>
    <path d="M23.0176,19.2572c4.4577,0,8.0714,4.6184,8.0714,10.3155s-3.6137,10.3155-8.0714,10.3155c-3.9,0-5.3855-4.1986-7.9072-8.236-.5594-.8955-.1641-1.3672-.1641-2.0795C14.9463,23.8756,18.56,19.2572,23.0176,19.2572Z" fill="#fcea2b"/>
  </g>
  <g id="hair">
    <path d="M33.7275,43.1338c.4693,3.363,4.4869-.8707,4.4869-.8707.5491,1.5737,4.4254,3.8674,4.4254,3.8674,1.0324-.9557.526-2.8525.3721-3.5136a5.1207,5.1207,0,0,0-5.8079-4.1141,6.4443,6.4443,0,0,1-1.0324,0c-2.2709-.3368-6.03-.1483-7.12,4.6433-.5317,2.3382.624,2.9844.624,2.9844S33.44,41.0714,33.7275,43.1338Z" fill="#a57939"/>
    <path d="M12.8407,24.7588c.5981-7.9646,6.7385-8.05,9.826-7.5647a8.2942,8.2942,0,0,0,1.4037,0c5.6148-.6877,8.4223,5.5015,8.4223,8.2524,0,.973,0,3.4384-1.4037,4.8138,0,0-3.2145-3.8124-3.3619-6.0324,0,0-10.6752,3.9692-11.3771.5308.0336.0028-1.7275,3.7247-1.4037,6.1892A9.5011,9.5011,0,0,1,12.8407,24.7588Z" fill="#a57939"/>
    <path d="M58.9079,24.3961c-.5981-7.9646-6.7385-8.05-9.826-7.5647a8.2942,8.2942,0,0,1-1.4037,0c-5.6148-.6877-8.4223,5.5015-8.4223,8.2523,0,.9731,0,3.4385,1.4037,4.8139,0,0,3.2145-3.8124,3.3619-6.0324,0,0,10.6752,3.9692,11.3771.5308-.0336.0028,1.7275,3.7247,1.4037,6.1892A9.5011,9.5011,0,0,0,58.9079,24.3961Z" fill="#a57939"/>
  </g>
  <g id="line">
    <g>
      <path d="M42.5229,46.13q.0117.2115.0117.4261a6.7761,6.7761,0,0,1-6.4885,7.031,6.7761,6.7761,0,0,1-6.4886-7.031q0-.1428.0052-.2841" fill="none" stroke="#000" stroke-miterlimit="10" stroke-width="1.6"/>
      <path d="M38.8983,47a.9415.9415,0,1,1-.9387-.869.9058.9058,0,0,1,.9387.869"/>
      <path d="M35.1435,47a.9414.9414,0,1,1-.9387-.869.9058.9058,0,0,1,.9387.869"/>
      <path d="M34.6742,50.3823a2.2231,2.2231,0,0,0,2.816,0" fill="none" stroke="#000" stroke-linecap="round" stroke-linejoin="round" stroke-width="1.6"/>
      <path d="M33.6091,43.1338c.4693,3.363,4.4869-.8707,4.4869-.8707.5491,1.5737,4.4254,3.8674,4.4254,3.8674,1.0324-.9557.526-2.8525.3722-3.5136a5.1208,5.1208,0,0,0-5.8079-4.1141,6.4456,6.4456,0,0,1-1.0325,0c-2.2709-.3368-6.03-.1483-7.12,4.6433-.5316,2.3382.624,2.9844.624,2.9844S33.3213,41.0714,33.6091,43.1338Z" fill="none" stroke="#000" stroke-linecap="round" stroke-linejoin="round" stroke-width="1.6"/>
      <path d="M26.2759,60.2682v-.9437c0-2.253,2.5842-4.06,5.1612-4.06a7.2229,7.2229,0,0,0,9.29,0c2.5776,0,5.1613,1.8073,5.1613,4.06v.9437" fill="none" stroke="#000" stroke-linecap="round" stroke-linejoin="round" stroke-width="1.6"/>
    </g>
    <path d="M43.9407,44.5044A11.9823,11.9823,0,0,0,53.74,42.5091c3.129,0,6.2667,2.5105,6.2667,5.64V60.0727" fill="none" stroke="#000" stroke-linecap="round" stroke-linejoin="round" stroke-width="2"/>
    <path d="M11.2737,60.148V48.2244c0-3.1295,3.1377-5.64,6.2667-5.64,2.5881,2.1568,8.5253,2.3691,11.0283.4293" fill="none" stroke="#000" stroke-linecap="round" stroke-linejoin="round" stroke-width="2"/>
    <g>
      <path d="M31.089,29.5727c0,5.6971-3.6137,10.3155-8.0714,10.3155S14.72,35.2274,14.72,29.53" fill="none" stroke="#000" stroke-miterlimit="10" stroke-width="2"/>
      <path d="M12.8407,24.7588c.5981-7.9646,6.7385-8.05,9.826-7.5647a8.2942,8.2942,0,0,0,1.4037,0c5.6148-.6877,8.4223,5.5015,8.4223,8.2524,0,.973,0,3.4384-1.4037,4.8138,0,0-3.2145-3.8124-3.3619-6.0324,0,0-10.6752,3.9692-11.3771.5308,0,0-2.4,1.7757-1.43,6.52A14.0688,14.0688,0,0,1,12.8407,24.7588Z" fill="none" stroke="#000" stroke-linecap="round" stroke-linejoin="round" stroke-width="2"/>
      <path d="M26.5767,30.1726a1.3014,1.3014,0,1,1-1.3011-1.2749,1.2882,1.2882,0,0,1,1.3011,1.2749"/>
      <path d="M21.7666,30.2226a1.3014,1.3014,0,1,1-1.3011-1.2748,1.2882,1.2882,0,0,1,1.3011,1.2748"/>
      <path d="M21.116,35.4815a4.2233,4.2233,0,0,0,3.9035,0" fill="none" stroke="#000" stroke-linecap="round" stroke-linejoin="round" stroke-width="1.6"/>
    </g>
    <g>
      <path d="M40.66,29.21c0,5.6971,3.6137,10.3154,8.0714,10.3154s8.2975-4.6607,8.2975-10.3578" fill="none" stroke="#000" stroke-miterlimit="10" stroke-width="2"/>
      <path d="M58.9079,24.3961c-.5981-7.9646-6.7385-8.05-9.826-7.5647a8.2942,8.2942,0,0,1-1.4037,0c-5.6148-.6877-8.4223,5.5015-8.4223,8.2523,0,.9731,0,3.4385,1.4037,4.8139,0,0,3.2145-3.8124,3.3619-6.0324,0,0,10.6752,3.9692,11.3771.5308,0,0,2.4,1.7757,1.43,6.52A14.0688,14.0688,0,0,0,58.9079,24.3961Z" fill="none" stroke="#000" stroke-linecap="round" stroke-linejoin="round" stroke-width="2"/>
      <path d="M45.1719,29.81A1.3014,1.3014,0,1,0,46.473,28.535,1.2882,1.2882,0,0,0,45.1719,29.81"/>
      <path d="M49.982,29.86a1.3014,1.3014,0,1,0,1.3011-1.2748A1.2882,1.2882,0,0,0,49.982,29.86"/>
      <path d="M50.6326,35.1188a4.2233,4.2233,0,0,1-3.9035,0" fill="none" stroke="#000" stroke-linecap="round" stroke-linejoin="round" stroke-width="1.6"/>
    </g>
  </g>
</svg>
