<svg id="emoji" xmlns="http://www.w3.org/2000/svg" viewBox="0 0 72 72">
  <g id="color">
    <path d="M60.2154,60.2985h-25.41l.13-1.8871.47-6.9728.3218-4.6627c0-3.0041,2.974-5.272,5.722-5.3989,4.1132,3.3849,8.27,3.3849,12.3744,0,2.748.1269,5.7307,2.3948,5.7307,5.3989Z" fill="#92d3f5" stroke="#92d3f5" stroke-linecap="round" stroke-linejoin="round" stroke-width="1.6"/>
    <path d="M12.4691,46.7888c0-3.0113,3.11-5.2845,5.9742-5.4118,4.279,3.393,8.6123,3.393,12.9,0,2.8647.1273,5.9651,2.4005,5.9651,5.4118l.3354,4.6738.49,6.99.136,1.8916H11.78Z" fill="#92d3f5" stroke="#92d3f5" stroke-linecap="round" stroke-linejoin="round" stroke-width="1.6"/>
    <path d="M26.5156,61.016V59.9614a4.8923,4.8923,0,0,1,4.8977-4.5376q4.4079,3.7813,8.8159,0a4.8919,4.8919,0,0,1,4.8977,4.5376V61.016Z" fill="#b1cc33"/>
  </g>
  <g id="skin">
    <path d="M30.9093,30.3417v-.6683c0-1.3365-8.019-4.6778-10.692-7.3507-2.673,2.673-4.0094,4.6778-4.0094,8.019,0,5.346,3.3412,9.3555,7.3507,9.3555s7.3508-4.01,7.3508-9.3555Z" fill="#fcea2b"/>
    <path d="M38.7467,29.5205v-.6682c0-1.3366,8.019-4.6778,10.692-7.3508,2.6729,2.6731,4.0094,4.6778,4.0094,8.019,0,5.3461-3.3412,9.3555-7.3507,9.3555s-7.3508-4.0095-7.3508-9.3555Z" fill="#fcea2b"/>
    <path d="M42.9189,47.3577a7.4617,7.4617,0,0,1-2.605,5.7526,6.2882,6.2882,0,0,1-2.3308,1.2566l-.2742.0769a6.3891,6.3891,0,0,1-1.4076.1624,5.9963,5.9963,0,0,1-.9689-.0769c-.1463-.0257-.2834-.0513-.42-.0855a6.2483,6.2483,0,0,1-2.8792-1.5557,7.5191,7.5191,0,0,1-2.3491-5.53,6.94,6.94,0,0,1,1.4533-4.385,6.4224,6.4224,0,0,1,5.1-2.3933,6.5588,6.5588,0,0,1,5.6305,3.043A6.8551,6.8551,0,0,1,42.9189,47.3577Z" fill="#fcea2b"/>
  </g>
  <g id="hair">
    <path d="M12.3986,41.6633c.77.63,6.0577-.26,7.0035.8884,2.0219.0532,2.2072-.0066,2.8266-2.2-2.08-1.62-6.39-6.8986-6.39-10.3686,0-3.34,1.34-5.35,4.01-8.02,2.67,2.67,10.69,6.02,10.69,7.35v.67c0,3.55-1.2033,10.052-9.5506,10.2963,1.3344.476-4.5819,2.0551-.4153,2.91,1.61.3306,2.1182.9364,7.7679.0533,3.18-1.37,7.738-1.77,7.928-1.95-.08,0,1.46-6.13-1.14-9.17a4.81,4.81,0,0,1-.79-1.46,9.3922,9.3922,0,0,1-.53-4.17,12.8574,12.8574,0,0,0-.4-4.32c-.91-3.39-4.58-5.75-8.93-5.75a6.9349,6.9349,0,0,0-5.08,1.85.66.66,0,0,1-.48.24,4.9528,4.9528,0,0,0-4.54,4.97c-.23,4.21-.62,5.07-1.65,7.36-.23.63-1.44,4.2-1.75,4.79C8.8586,38.7933,12.2387,41.5733,12.3986,41.6633Z" fill="#a57939"/>
    <path d="M58.745,34.8121c-.31-.59-1.52-4.16-1.75-4.79-1.03-2.29-1.42-3.15-1.65-7.36a4.9528,4.9528,0,0,0-4.54-4.97.66.66,0,0,1-.48-.24,6.9347,6.9347,0,0,0-5.08-1.85c-4.35,0-8.02,2.36-8.93,5.75-.38,1.41-1.7526,2.9314-1.6426,4.3814a7.5565,7.5565,0,0,1-.1759,3.7542c-.18.53.4485,1.3744.0985,1.8144-2.6,3.04-1.06,9.17-1.14,9.17.19.18,1.94.816,5.12,2.186,20.2711,3.1685,8.3107-2.54,10.1606-3.2-8.3473-.2442-9.5506-6.7462-9.5506-10.2963v-.67c0-1.33,8.02-4.68,10.69-7.35,2.67,2.67,4.01,4.68,4.01,8.02,0,3.47-3.228,9.2552-6.195,10.1582.6194,2.1932,2.0161,1.6273,1.7963,4.607a48.8692,48.8692,0,0,1,7.8387-3.0851C57.485,40.7521,60.865,37.9721,58.745,34.8121Z" fill="#a57939"/>
    <path d="M36.0029,42.5917a8.7923,8.7923,0,0,1,5.244,5.9437,9.5713,9.5713,0,0,1,.6746,3.6866,4.1816,4.1816,0,0,0,3.8023-1.4541A7.2293,7.2293,0,0,1,43.5773,47.63c1.0617-11.2264-7.4809-8.4921-7.4809-8.4921h0s-8.22-2.5261-7.6678,8.4921a7.23,7.23,0,0,1-2.1465,3.1375,4.1816,4.1816,0,0,0,3.8023,1.4541,9.5253,9.5253,0,0,1,.6747-3.6866,9.137,9.137,0,0,1,5.2438-5.9437" fill="#a57939"/>
  </g>
  <g id="line">
    <path d="M12.3292,40.3273a7.7526,7.7526,0,0,1-.6881-7.407c1.6072-3.7889,2.0328-3.77,2.2915-8.5682a5.4341,5.4341,0,0,1,4.9483-5.3707,7.2359,7.2359,0,0,1,5.3459-2.0047c4.2983,0,8.1727,2.3162,9.1611,5.9915,1.0023,3.7308-.23,5.2351.8627,8.0417.4653,1.1958.3944,2.102.8054,3.2928" fill="none" stroke="#000" stroke-linecap="round" stroke-linejoin="round" stroke-width="2"/>
    <path d="M30.9093,30.3417v-.6683c0-1.3365-8.019-4.6778-10.692-7.3507-2.673,2.673-4.0094,4.6778-4.0094,8.019,0,5.346,3.3412,9.3555,7.3507,9.3555s7.3508-4.01,7.3508-9.3555Z" fill="none" stroke="#000" stroke-miterlimit="10" stroke-width="1.6"/>
    <path d="M19.8844,30.22a1.2389,1.2389,0,1,1,1.2388,1.2388A1.2388,1.2388,0,0,1,19.8844,30.22"/>
    <path d="M24.84,30.22a1.2388,1.2388,0,1,1,1.2388,1.2388A1.2387,1.2387,0,0,1,24.84,30.22"/>
    <path d="M21.7427,35.33a3.9489,3.9489,0,0,0,3.7165,0" fill="none" stroke="#000" stroke-linecap="round" stroke-linejoin="round" stroke-width="1.6"/>
    <path d="M57.3268,39.5062a7.7526,7.7526,0,0,0,.6881-7.407c-1.6072-3.789-2.0328-3.77-2.2915-8.5682A5.4341,5.4341,0,0,0,50.7751,18.16a7.236,7.236,0,0,0-5.346-2.0047c-4.2982,0-8.1726,2.3162-9.161,5.9916-1.0023,3.7308-1.0751,2.4115-1.5957,6.5269a15.4161,15.4161,0,0,0-.39,2.3674" fill="none" stroke="#000" stroke-linecap="round" stroke-linejoin="round" stroke-width="2"/>
    <path d="M38.7467,29.5205v-.6682c0-1.3366,8.019-4.6778,10.692-7.3508,2.6729,2.6731,4.0094,4.6778,4.0094,8.019,0,5.3461-3.3412,9.3555-7.3507,9.3555s-7.3508-4.0095-7.3508-9.3555Z" fill="none" stroke="#000" stroke-miterlimit="10" stroke-width="1.6"/>
    <path d="M49.7716,29.399a1.2389,1.2389,0,1,0-1.2388,1.2388,1.2388,1.2388,0,0,0,1.2388-1.2388"/>
    <path d="M44.8162,29.399a1.2388,1.2388,0,1,0-1.2388,1.2388,1.2387,1.2387,0,0,0,1.2388-1.2388"/>
    <path d="M47.9133,34.5091a3.9489,3.9489,0,0,1-3.7165,0" fill="none" stroke="#000" stroke-linecap="round" stroke-linejoin="round" stroke-width="1.6"/>
    <path d="M60.555,59.99V47.23c0-3.3491-3.3572-6.0357-6.7063-6.0357-2.8289,2.2585-7.5874,2.4265-10.39,1.2957l-.8228-.2974" fill="none" stroke="#000" stroke-linecap="round" stroke-linejoin="round" stroke-width="2"/>
    <path d="M11.7544,60.16v-12.76c0-3.3491,3.4571-6.0356,6.9058-6.0356q4.4937,3.6366,8.9873,2.0145" fill="none" stroke="#000" stroke-linecap="round" stroke-linejoin="round" stroke-width="2"/>
    <g>
      <path d="M41.5039,51.9179l2.6791.08.3913.0079S42.2609,52.6257,41.5039,51.9179Z" fill="#fff"/>
      <path d="M41.3593,55.2982a7.8075,7.8075,0,0,0,2.8237,1.2965,3.7392,3.7392,0,0,0,.3913.0716Z" fill="#fff"/>
      <path d="M44.5743,58.432l-.3913-.1273" fill="none"/>
      <path d="M41.2815,50.2979a9.6646,9.6646,0,0,1-2.05,3.15,5.8506,5.8506,0,0,1-2.1689,1.1692l-.2551.0716a5.95,5.95,0,0,1-1.31.1511,5.5737,5.5737,0,0,1-.9016-.0716c-.1361-.0238-.2636-.0477-.3912-.08a5.8152,5.8152,0,0,1-2.6792-1.4476,9.5241,9.5241,0,0,1-1.7591-2.78" fill="none" stroke="#000" stroke-miterlimit="10" stroke-width="1.6"/>
      <path d="M38.2793,47.5928a.8928.8928,0,1,1-.8908-.833.8634.8634,0,0,1,.8908.833Z"/>
      <path d="M34.7162,47.5928a.8928.8928,0,1,1-.8907-.833.8633.8633,0,0,1,.8907.833Z"/>
      <path d="M34.2709,50.8356a2.093,2.093,0,0,0,2.6722,0" fill="none" stroke="#000" stroke-linecap="round" stroke-linejoin="round" stroke-width="1.6"/>
      <path d="M44.9109,60.3123v-.9067c0-2.02-2.1518-3.6746-4.44-3.8655a4.4434,4.4434,0,0,0-.4593-.0238,2.2481,2.2481,0,0,1-.2467.167,7.6983,7.6983,0,0,1-2.8662,1.3123.0123.0123,0,0,1-.017,0,5.7524,5.7524,0,0,1-2.2114.0637,3.7375,3.7375,0,0,1-.3912-.0716,7.8071,7.8071,0,0,1-2.8238-1.2965c-.085-.0556-.17-.1113-.2551-.1749a4.4434,4.4434,0,0,0-.4593.0238c-2.2879.1909-4.44,1.8453-4.44,3.8655v.9067" fill="none" stroke="#000" stroke-linecap="round" stroke-linejoin="round" stroke-width="1.6"/>
      <path d="M31.6617,39.2169c-1.7214.6141-3.415,2.2239-3.7034,6.1506a18.0623,18.0623,0,0,0-.0186,2.2611A7.1971,7.1971,0,0,1,25.79,50.7644a4.1879,4.1879,0,0,0,3.8058,1.4609,9.6058,9.6058,0,0,1,.67-3.6941,10.7889,10.7889,0,0,1,.9305-2.1216,8.4348,8.4348,0,0,1,4.3176-3.815,8.3085,8.3085,0,0,1,4.01,3.2288,11.0077,11.0077,0,0,1,1.2376,2.7078c.2047.6793.3536,1.2469.4466,1.7121a6.0828,6.0828,0,0,1,.2234,1.982,3.5968,3.5968,0,0,0,1.2561.0279h.0187a3.514,3.514,0,0,0,.8839-.27,4.6634,4.6634,0,0,0,1.647-1.219,7.1975,7.1975,0,0,1-2.1494-3.1358,14.1022,14.1022,0,0,0-.0559-3.5359c-.53-3.4056-2.5309-4.606-4.3175-4.9689a7.75,7.75,0,0,0-3.1079.0186,7.212,7.212,0,0,0-1.9168-.2512,6.3041,6.3041,0,0,0-2.0285.3257" fill="none" stroke="#000" stroke-linecap="round" stroke-linejoin="round" stroke-width="1.6"/>
    </g>
  </g>
</svg>
