<?xml version="1.0" encoding="utf-8"?>
<!-- Generator: Adobe Illustrator 21.1.0, SVG Export Plug-In . SVG Version: 6.00 Build 0)  -->
<svg version="1.1" id="emoji" xmlns="http://www.w3.org/2000/svg" xmlns:xlink="http://www.w3.org/1999/xlink" x="0px" y="0px"
	 viewBox="0 0 72 72" enable-background="new 0 0 72 72" xml:space="preserve">
<g id="_xD83D__xDC6C__1_">
	<path fill="#FCEA2B" d="M55.8,41.8L55,22.3c-0.1-2.3-2-4.1-4.2-4.1h-6c-2.2,0-4.1,1.8-4.2,4.1l-2.3,19.4c0,0.1,0.2,0.7,0.1,0.8
		l4.2-2.5l-0.9,22.1c0,0.3,0.3,0.7,0.5,0.9c0,0,0.1,0.1,0.2,0.1c0.2,0,0.7-0.4,0.7-1.1l2.5-22.5c0.1-0.5,0.2-0.9,0.4-1.3l1-0.6h1.6
		l0.7,0.8c0.2,0.4,0.4,0.8,0.4,1.2l2.9,22.5c0.1,0.7,0.5,1.1,0.7,1.1c0.1,0,0.1,0,0.2-0.1c0.2-0.2,0.3-0.6,0.2-0.9l-0.7-22.1
		l2.9,2.1C55.8,42.1,55.8,41.9,55.8,41.8z"/>
	<circle fill="#FCEA2B" cx="47.7" cy="10.7" r="3"/>
	<circle fill="none" stroke="#000000" stroke-width="2" stroke-miterlimit="10" cx="47.7" cy="10.7" r="3"/>
	<path fill="none" stroke="#000000" stroke-width="2" stroke-linecap="round" stroke-linejoin="round" d="M52.7,23.6l1.9,38
		c0.1,1.1-0.6,2-1.4,2c-1-0.2-1.7-1-1.7-2l-2.5-22c-0.1-1.1-0.7-2-1.2-2s-1.1,0.9-1.2,2l-2.5,22c0,1-0.8,1.8-1.7,2
		c-0.8,0-1.5-0.9-1.4-2l1.9-38"/>
	<path fill="none" stroke="#000000" stroke-width="2" stroke-linecap="round" stroke-linejoin="round" d="M37.7,42
		c0,0,1.3-7.6,1.5-10.1c0.2-2.3,0.3-9.3,0.3-9.3c0.1-2.8,2.4-5,5.2-5h6c2.8,0,5.1,2.2,5.2,5l0.8,19"/>
	<path fill="#FCEA2B" d="M17.2,42.2l2.9-2.1l-0.7,22.1c0,0.3,0.1,0.6,0.2,0.9c0,0,0.1,0.1,0.2,0.1c0.2,0,0.7-0.4,0.7-1.1l2.9-22.5
		c0-0.4,0.2-0.8,0.4-1.2l0.7-0.8h1.6l1,0.6c0.2,0.4,0.3,0.9,0.4,1.3L30.1,62c0.1,0.7,0.5,1.1,0.7,1.1c0.1,0,0.1,0,0.2-0.1
		c0.2-0.2,0.5-0.6,0.5-0.9l-0.9-22.1l4.2,2.5c-0.1-0.1,0.1-0.7,0.1-0.8l-2.3-19.4c-0.1-2.3-2-4.1-4.2-4.1h-6c-2.2,0-4.1,1.8-4.2,4.1
		l-0.8,19.4C17.3,41.9,17.3,42,17.2,42.2z"/>
	<circle fill="#FCEA2B" cx="25.4" cy="10.7" r="3"/>
	<circle fill="none" stroke="#000000" stroke-width="2" stroke-miterlimit="10" cx="25.4" cy="10.7" r="3"/>
	<path fill="none" stroke="#000000" stroke-width="2" stroke-linecap="round" stroke-linejoin="round" d="M30.4,23.6l1.9,38
		c0.1,1.1-0.6,2-1.4,2c-1-0.2-1.7-1-1.7-2l-2.5-22c-0.1-1.1-0.7-2-1.2-2s-1.1,0.9-1.2,2l-2.5,22c0,1-0.8,1.8-1.7,2
		c-0.8,0-1.5-0.9-1.4-2l1.9-38"/>
	<path fill="none" stroke="#000000" stroke-width="2" stroke-linecap="round" stroke-linejoin="round" d="M16.4,41.6l0.8-19
		c0.1-2.8,2.4-5,5.2-5h6c2.8,0,5.1,2.2,5.2,5c0,0,0.1,7,0.3,9.3c0.2,2.5,1.5,10.1,1.5,10.1"/>
</g>
</svg>
