<?xml version="1.0" encoding="utf-8"?>
<!-- Generator: Adobe Illustrator 21.1.0, SVG Export Plug-In . SVG Version: 6.00 Build 0)  -->
<svg version="1.1" id="emoji" xmlns="http://www.w3.org/2000/svg" xmlns:xlink="http://www.w3.org/1999/xlink" x="0px" y="0px"
	 viewBox="0 0 72 72" enable-background="new 0 0 72 72" xml:space="preserve">
<g id="_xD83D__xDC69__x200D__x2696__xFE0F__1_">
	<g>
		<path fill="#69462E" d="M29.9,21c-0.1,1.8-1.7,3.2-3.5,3.2c-1,0-2.4,0.1-3-0.7c-0.4-0.6-0.7-1-0.3-2.6c0.4-1.6,1.2-3.2,2.8-3.5
			C28.1,17.1,30,18.9,29.9,21z"/>
	</g>
	<g>
		<path fill="#69462E" d="M37.8,11.7c0-2.8-2.2-5-5-5s-5,2.2-5,5c0,0.9,0.3,1.2,0.7,2"/>
		<path d="M28.5,14.6c-0.3,0-0.7-0.2-0.9-0.5l-0.1-0.2c-0.4-0.6-0.7-1.1-0.7-2.2c0-3.3,2.7-6,6-6s6,2.7,6,6c0,0.6-0.4,1-1,1
			c-0.6,0-1-0.4-1-1c0-2.2-1.8-4-4-4c-2.2,0-4,1.8-4,4c0,0.5,0.1,0.7,0.4,1.2l0.1,0.2c0.3,0.5,0.1,1.1-0.4,1.4
			C28.8,14.6,28.6,14.6,28.5,14.6z"/>
	</g>
	<g>
		<path fill="#3F3F3F" d="M16.9,58.8c0,0-1.9-14.9,10.1-14.9c3.2,2.1,5.1,3.6,8.9,3.6c3.7,0,5.8-1.6,9-3.8c14,0,10.5,15,10.8,15.1"
			/>
	</g>
	<g>
		<path fill="#FFFFFF" d="M45,44.4l-3.9,6l-2.6,4.5c-1.2,2.1-4.2,2.1-5.4,0l-2.6-4.5l-3.5-6C33.1,49.7,39.1,49.7,45,44.4z"/>
	</g>
	<g>
		<path fill="#FCEA2C" d="M48.1,28.5c0-8.4-5.4-15.2-12.1-15.2c-6.7,0-12.1,6.8-12.1,15.2c0,1.3,0.8,2.5,1,3.6
			c0.1,0.7-0.4,1.4-0.1,2.1C26.6,39.5,30.9,43,36,43C42.7,43,48.1,36.9,48.1,28.5z"/>
	</g>
	<g>
		<path fill="#000100" d="M42,27c0,1.1-0.9,2-2,2c-1.1,0-2-0.9-2-2c0-1.1,0.9-2,2-2C41.1,25,42,25.9,42,27"/>
	</g>
	<g>
		<path fill="#000100" d="M34,27c0,1.1-0.9,2-2,2c-1.1,0-2-0.9-2-2c0-1.1,0.9-2,2-2C33.1,25,34,25.9,34,27"/>
	</g>
	<g>
		<path fill="#000100" d="M36,37c-1.2,0-2.3-0.3-3.4-0.9c-0.5-0.2-0.7-0.8-0.4-1.3c0.2-0.5,0.8-0.7,1.3-0.4c1.7,0.9,3.4,0.9,5.1,0
			c0.5-0.2,1.1,0,1.3,0.4c0.2,0.5,0,1.1-0.4,1.3C38.3,36.7,37.1,37,36,37z"/>
	</g>
	<g>
		<path d="M36,43.5c-3.8,0-7.3-2.1-9.7-5.7c-0.3-0.5-0.2-1.1,0.3-1.4c0.5-0.3,1.1-0.2,1.4,0.3c2,3.1,4.9,4.8,8,4.8
			c5.7,0,10.3-5.9,10.3-13.2c0-1.1-0.1-2.3-0.3-3.4c-0.1-0.5,0.2-1.1,0.8-1.2c0.5-0.1,1.1,0.2,1.2,0.8c0.3,1.2,0.4,2.5,0.4,3.8
			C48.3,36.7,42.8,43.5,36,43.5z"/>
	</g>
	<g>
		<path d="M17,58.8c-0.5,0-0.9-0.4-1-0.8c0-0.3-1-6.6,2.6-10.8c1.9-2.2,4.6-3.3,8.2-3.4c0.4-0.1,0.8,0,1,0.3c3,2,5.5,3.3,8.2,3.3
			c2.7,0,5.2-1.3,8.4-3.4c0.4-0.3,0.9-0.2,1.2,0.1c0.3,0.3,0.4,0.8,0.2,1.2c-1.7,2.8-7.2,11.9-9.6,12.6c-2,0.6-5.2-3.5-9.7-12.1
			c-2.8,0.1-4.9,1-6.3,2.7c-3,3.4-2.1,9.1-2.1,9.2c0.1,0.5-0.3,1.1-0.8,1.1C17.1,58.8,17.1,58.8,17,58.8z M29.7,47.6
			c2.4,4.2,4.9,7.9,5.9,8.3c1-0.5,3.6-4.1,6.2-8.1c-2,1-3.8,1.6-5.8,1.6c0,0,0,0-0.1,0c0,0,0,0,0,0h0c0,0,0,0,0,0c0,0,0,0,0,0
			C33.8,49.4,31.8,48.7,29.7,47.6z"/>
	</g>
	<g>
		<g id="XMLID_60_">
			<g>
				<path fill="#A37838" d="M64.4,41.2c1.5,0.7,2.2,2.6,1.4,4.1l-1.6,3.4c-0.7,1.5-2.6,2.2-4.1,1.4l-2-1.7l0.4-0.4l3.4-7l0-0.2
					L64.4,41.2z"/>
				<polygon fill="#F0B41A" points="61.8,40.7 61.8,40.9 58.4,48 58,48.4 57.5,47.9 57.5,47.9 53.8,46.2 53.8,46.2 52.8,46 53,45.3 
					56.4,38.3 56.5,38.1 57.4,38.8 61,40.5 				"/>
				<path fill="#A37838" d="M57.5,47.9L57.5,47.9L57.5,47.9l-5.5,11.5c-0.4,0.9-1.5,1.5-2.4,1.2c-1.2-0.4-1.8-1.7-1.3-2.8l5.5-11.5
					l0-0.1h0L57.5,47.9z"/>
				<path fill="#A37838" d="M54.6,36.5l1.9,1.6l-0.2,0.2l-3.4,7L52.8,46l-2.5-0.5c-1.5-0.7-2.2-2.6-1.4-4.1l1.6-3.4
					C51.3,36.4,53.1,35.8,54.6,36.5z"/>
			</g>
			<g>
				
					<path fill="none" stroke="#000000" stroke-width="2" stroke-linecap="round" stroke-linejoin="round" stroke-miterlimit="10" d="
					M57.4,48l-5.5,11.4c-0.4,0.9-1.5,1.5-2.4,1.2c-1.2-0.4-1.8-1.7-1.3-2.8l5.5-11.5"/>
				
					<path fill="none" stroke="#000000" stroke-width="2" stroke-linecap="round" stroke-linejoin="round" stroke-miterlimit="10" d="
					M56.5,38.1l-1.9-1.6c-1.5-0.7-3.4-0.1-4.1,1.4l-1.6,3.4c-0.7,1.5-0.1,3.4,1.4,4.1l2.5,0.5l1,0.2h0l3.7,1.8l0,0l0.5,0.5l2,1.7
					c1.5,0.7,3.4,0.1,4.1-1.4l1.6-3.4c0.7-1.5,0.1-3.4-1.4-4.1l-2.5-0.5L61,40.5l-3.6-1.8L56.5,38.1z"/>
				
					<line fill="none" stroke="#000000" stroke-width="2" stroke-linecap="round" stroke-linejoin="round" stroke-miterlimit="10" x1="61.8" y1="40.9" x2="58.4" y2="48"/>
				
					<line fill="none" stroke="#000000" stroke-width="2" stroke-linecap="round" stroke-linejoin="round" stroke-miterlimit="10" x1="53" y1="45.3" x2="56.4" y2="38.3"/>
			</g>
		</g>
	</g>
	<g>
		<path fill="none" stroke="#000000" stroke-width="2" stroke-linecap="round" stroke-linejoin="round" stroke-miterlimit="10" d="
			M27.4,58.7"/>
	</g>
	<g>
		<path d="M32.2,54.4c-0.2,0-0.4-0.1-0.6-0.2c-0.4-0.3-0.5-1-0.2-1.4l3.8-5c0.2-0.3,0.5-0.4,0.8-0.4c0.3,0,0.6,0.2,0.8,0.4l3.4,4.8
			c0.3,0.5,0.2,1.1-0.2,1.4c-0.5,0.3-1.1,0.2-1.4-0.2l-2.6-3.6L33,54C32.8,54.3,32.5,54.4,32.2,54.4z"/>
	</g>
	<g>
		<path fill="#69462E" d="M25,23.9c0,0,0.5-0.1,1.4-0.3c1.8-0.5,5-1.8,8.5-4.7c0,0,3.4,5,11.6,6c4.3,0.5,0.4-14.3-11.2-13
			c-7.5,0.9-10.4,4.8-11,8.1"/>
		<path d="M46.7,25.9c-0.1,0-0.2,0-0.3,0c-6.5-0.8-10.2-4-11.6-5.5c-3.4,2.7-6.5,3.8-8.1,4.3c-1,0.3-1.5,0.3-1.6,0.4
			c-0.6,0.1-1-0.3-1.1-0.9c-0.1-0.5,0.3-1,0.9-1.1l0,0c0,0,0.5-0.1,1.3-0.3c1.6-0.4,4.7-1.6,8.1-4.5c0.2-0.2,0.5-0.3,0.8-0.2
			c0.3,0,0.5,0.2,0.7,0.4c0,0,3.3,4.6,10.8,5.5c0.2,0,0.3,0,0.4-0.1c0.5-0.7,0.2-3.2-1.4-5.8c-1.1-1.7-4.3-5.7-10.2-5
			c-8.3,0.9-9.8,5.8-10.1,7.3c-0.1,0.5-0.6,0.9-1.2,0.8c-0.5-0.1-0.9-0.6-0.8-1.2c0.3-1.8,2.2-7.8,11.8-8.9c7-0.8,10.8,3.9,12.1,6
			c1.8,3,2.4,6.3,1.4,8C48.2,25.5,47.5,25.9,46.7,25.9z"/>
	</g>
	<g>
		<path fill="#69462E" d="M24.6,34.4c-0.3,0-0.6-0.1-0.8-0.4c-0.3-0.4-0.3-1.1,0.2-1.4l0.1-0.1c0.2-0.1,0.4-0.3,0.6-0.5
			c-0.2-0.2-0.6-0.5-1.7-0.9c-2-0.8-2.6-2.1-2.7-3c-0.4-3.5,4.7-7.3,4.8-7.3c0.4-0.3,1.1-0.2,1.4,0.2c0.3,0.4,0.2,1.1-0.2,1.4
			c-1.5,1.1-4.2,3.8-4,5.5c0,0.2,0.1,0.9,1.5,1.4c2,0.8,2.9,1.5,3,2.5c0.2,1.1-0.7,1.8-1.4,2.3l-0.1,0.1
			C25,34.3,24.8,34.4,24.6,34.4z"/>
	</g>
	<g>
		<path d="M25.1,35.2c-0.1,0-0.3,0-0.4,0c-0.5-0.1-0.9-0.6-0.8-1.2c0.1-0.5,0.6-0.9,1.2-0.8c0.4,0.1,1.1-0.5,1.3-1.1
			c0.2-0.7-0.2-1.2-1.2-1.5c-1.8-0.6-2.8-1.6-3-2.8c-0.3-2.3,2.6-4.2,3.2-4.6l0.4-0.3c0.4-0.3,1.1-0.2,1.4,0.2
			c0.3,0.4,0.2,1.1-0.2,1.4l-0.5,0.3c-1.1,0.7-2.4,2-2.4,2.7c0,0.4,0.6,0.8,1.6,1.1c2.4,0.8,2.9,2.5,2.5,3.9
			C27.9,34,26.5,35.2,25.1,35.2z"/>
	</g>
</g>
</svg>
