<svg id="emoji" xmlns="http://www.w3.org/2000/svg" viewBox="0 0 72 72">
  <g id="hair">
    <path d="M44.3734,39.5679a4.0914,4.0914,0,0,0,3.7413-.5049,4.1611,4.1611,0,0,0,1.5086-2.5443,3.8294,3.8294,0,0,0,1.92-2.3672,4.0385,4.0385,0,0,0-.6978-3.376,4.4493,4.4493,0,0,0,1.3489-3.71,4.2107,4.2107,0,0,0-1.6459-2.72,4.1145,4.1145,0,0,0,.6949-4.2694,3.9152,3.9152,0,0,0-2.3562-2.0736A3.5927,3.5927,0,0,0,47.418,14.68a3.3752,3.3752,0,0,0-4.0752.2575A3.6762,3.6762,0,0,0,40.38,12.52a3.8094,3.8094,0,0,0-3.2817,1.405s-3.1583-3.5294-7.139.0971c0,0-5.0194-2.1167-6.4857,2.8691,0,0-4.2157,1.136-2.2,5.9325,0,0-2.9326,3.0294-.7942,6.5,0,0-2.0773,4.2285,1.8329,5.7432a4.0943,4.0943,0,0,0,.7376,2.72,3.8863,3.8863,0,0,0,3.7281,1.47" fill="#a57939"/>
  </g>
  <g id="skin">
    <path d="M44.3789,21.9115A16.3828,16.3828,0,0,1,47,30.99C47,38.7273,42.0751,45,36,45S25,38.7273,25,30.99a16.7567,16.7567,0,0,1,1.8786-7.8334l3.1575,1.3094a12.2351,12.2351,0,0,1,6.0015-1.0789c1.8973.1695,2.9821.7844,4.7706.4437A7.2535,7.2535,0,0,0,44.3789,21.9115Z" fill="#fadcbc"/>
  </g>
  <g id="color">
    <g id="color-2" data-name="color">
      <path d="M55.3145,60.9336a1,1,0,0,1-1-1v-3c0-4.4512-4.5-8.8106-8.6514-8.9922-6.2051,5.0127-12.4912,5.0127-18.7,0-4.1563.1826-9.6524,4.541-9.6524,8.9922v3a.9994.9994,0,0,1-1,1" fill="#92d3f5"/>
    </g>
  </g>
  <g id="line">
    <g>
      <path d="M16.8145,59.877v-3c0-4.9942,5.0078-9,10-9q9,7.5,18,0c4.9941,0,10,4.0058,10,9v3" fill="none" stroke="#000" stroke-linecap="round" stroke-linejoin="round" stroke-width="2"/>
      <path d="M41.8145,29.877a2,2,0,1,1-2-2,2,2,0,0,1,2,2"/>
      <path d="M33.8145,29.877a2,2,0,1,1-2-2,2,2,0,0,1,2,2"/>
      <path d="M32.8145,38.127a6.375,6.375,0,0,0,6,0" fill="none" stroke="#000" stroke-linecap="round" stroke-linejoin="round" stroke-width="2"/>
      <path d="M28.5878,41.5443A15.3823,15.3823,0,0,1,24.9365,31a20.9616,20.9616,0,0,1,2.0571-8.037,2.8914,2.8914,0,0,0,2.4336,1.5619,2.94,2.94,0,0,0,2.8277-2.113,3.1594,3.1594,0,0,0,5.1148-.1075,4.191,4.191,0,0,0,6.9654-.704A21.9134,21.9134,0,0,1,47,31c0,8-5.127,14-11.0635,14A9.8876,9.8876,0,0,1,28.5878,41.5443Z" fill="none" stroke="#000" stroke-linecap="round" stroke-linejoin="round" stroke-width="2"/>
      <path d="M44.3734,39.5679a4.0914,4.0914,0,0,0,3.7413-.5049,4.1611,4.1611,0,0,0,1.5086-2.5443,3.8294,3.8294,0,0,0,1.92-2.3672,4.0385,4.0385,0,0,0-.6978-3.376,4.4493,4.4493,0,0,0,1.3489-3.71,4.2107,4.2107,0,0,0-1.6459-2.72,4.1145,4.1145,0,0,0,.6949-4.2694,3.9152,3.9152,0,0,0-2.3562-2.0736A3.5927,3.5927,0,0,0,47.418,14.68a3.3752,3.3752,0,0,0-4.0752.2575A3.6762,3.6762,0,0,0,40.38,12.52a3.8094,3.8094,0,0,0-3.2817,1.405s-3.1583-3.5294-7.139.0971c0,0-4.715-3.0635-6.1078,2.5775,0,0-5.4215.82-2.5774,6.2241,0,0-2.9326,3.0294-.7942,6.5,0,0-2.0773,4.2285,1.8329,5.7432a4.0943,4.0943,0,0,0,.7376,2.72,3.8863,3.8863,0,0,0,3.7281,1.47" fill="none" stroke="#000" stroke-linejoin="round" stroke-width="2"/>
    </g>
  </g>
</svg>
