<svg version="1.1" id="emoji" xmlns="http://www.w3.org/2000/svg" x="0" y="0" viewBox="0 0 72 72" enable-background="new 0 0 72 72" xml:space="preserve">
  <g id="color">
    <path fill="#92D3F5" d="M55.3145,60.9336c-0.5518,0-1-0.4473-1-1v-3c0-4.4512-4.5-8.8106-8.6514-8.9922 c-6.2051,5.0127-12.4912,5.0127-18.7002,0c-4.1563,0.1826-9.6524,4.541-9.6524,8.9922v3c0,0.5527-0.4472,1-1,1"/>
  </g>
  <g id="hair">
    <path fill="#a57939" d="M17.9688,47.3125c1.1414,1.0391,2.3607,1.9395,3.6331,2.7193c1.6947-1.2169,3.6406-2.0148,5.361-2.0904 c6.209,5.0127,12.4951,5.0127,18.7002,0c1.4288,0.0625,2.895,0.628,4.2087,1.5136c1.0563-0.6992,2.0542-1.4738,2.972-2.33 c1.1884-0.7148,3.125-8.2822,0.3916-13.0254c-0.4385-0.8535-0.8252-1.7324-1.1573-2.6328 c-1.4726-3.2695-2.0234-4.4927-2.3486-10.5239c0.0273-3.6929-3.794-6.7842-7.4746-7.0928 c-0.2656-0.0181-0.5137-0.1416-0.6885-0.3433c-0.0928-0.0995-2.4082-2.6547-7.2432-2.6547c-6.2002,0-11.4413,3.3818-12.743,8.226 c-0.5342,2.0121-0.7246,4.1001-0.5645,6.1758c0.2041,2.019-0.0566,4.0586-0.7607,5.9609c-0.248,0.7559-0.627,1.4629-1.1192,2.0879 C15.3633,37.7227,18.1611,47.6055,17.9688,47.3125z"/>
  </g>
  <g id="skin">
    <path fill="#fadcbc" d="M25.3887,29.418v0.957c0,7.6494,4.6093,13.6426,10.4941,13.6426c5.8838,0,10.4942-5.9932,10.4942-13.6426 c0-4.6533-1.7784-7.5151-5.2842-11.1343c-2.8301,2.1704-5.836,4.1006-8.9883,5.772C29.458,26.5269,25.8496,28.582,25.3887,29.418z"/>
  </g>
  <g id="skin-shadow"/>
  <g id="line">
    <path fill="none" stroke="#000000" stroke-width="2" stroke-linecap="round" stroke-linejoin="round" d="M18.6348,46.6016 c-3.7227-5.8565-0.628-10.0801,1.1797-14.7246c1.6357-4.2002-0.209-6.4512,1.291-12.0342c1.4795-5.5,7.2773-8.9658,13.709-8.9658 c5.4003,0,8,3,8,3c4.1689,0.374,7.373,3.8515,7.4052,8.0371c0.3867,7.1797,1.0244,7.1523,3.4287,12.8222 c1.6748,3.875,1.1065,8.3389-1.4463,11.6631"/>
    <path fill="none" stroke="#000000" stroke-width="2" stroke-linecap="round" stroke-linejoin="round" d="M16.8145,59.877v-3 c0-4.9942,5.0078-9,10-9c6,5,12,5,18,0c4.9941,0,10,4.0058,10,9v3"/>
    <path d="M41.8145,29.877c0,1.1044-0.8956,2-2,2c-1.1045,0-2-0.8956-2-2c0-1.1045,0.8955-2,2-2 C40.9189,27.877,41.8145,28.7725,41.8145,29.877"/>
    <path d="M33.8145,29.877c0,1.1044-0.8956,2-2,2c-1.1045,0-2-0.8956-2-2c0-1.1045,0.8955-2,2-2 C32.9189,27.877,33.8145,28.7725,33.8145,29.877"/>
    <path fill="none" stroke="#000000" stroke-width="2" stroke-linejoin="round" d="M24.8145,30.877c0,8,5,14,11,14s11-6,11-14 c0-5-2-8-6-12c-4,4-16,9-16,11C24.8145,29.877,24.8145,30.877,24.8145,30.877z"/>
    <path fill="none" stroke="#000000" stroke-width="2" stroke-linecap="round" stroke-linejoin="round" d="M32.8145,38.127 c1.875,1,4.125,1,6,0"/>
  </g>
</svg>
