<?xml version="1.0" encoding="utf-8"?>
<!-- Generator: Adobe Illustrator 21.1.0, SVG Export Plug-In . SVG Version: 6.00 Build 0)  -->
<svg version="1.1" id="emoji" xmlns="http://www.w3.org/2000/svg" xmlns:xlink="http://www.w3.org/1999/xlink" x="0px" y="0px"
	 viewBox="0 0 72 72" enable-background="new 0 0 72 72" xml:space="preserve">
<g id="_xD83D__xDC69__x200D__x2708__xFE0F__1_">
	<path fill="#FFFFFF" d="M16.7,58.9c0,0-1-3.9-0.2-7.7c0.7-3.4,4.6-7.2,10.2-7.2c3.2,2.1,5.5,4.6,8.6,4.6h-0.1
		c3.1,0,6.3-1.6,9.5-3.7c11.6,0,10,13.9,10.2,14"/>
	<path fill="#CFCFCE" d="M44.6,49.8c4.3,2.3,4.4,6.3,4.9,9c4.2,0,5.1,0,5.1,0s1.7-4.6,0.1-8.8C53.6,47,50.3,44,45.1,44"/>
	<rect x="16.8" y="44.4" fill="#FCEB2F" width="7" height="3.9"/>
	<rect x="47.7" y="44.4" fill="#FCEB2F" width="7" height="3.9"/>
	<path fill="#A37938" d="M46.5,42c6.2-0.6,8.4-3.3,8.4-3.3L49,38.1c8.1-8.4-3.4-16.9-3.4-16.9H26.2c0,0-11.4,8.4-3.4,16.9l-5.6,0.6
		c0,0,1.9,2.7,8.1,3.3C25.3,43.2,46.5,43.2,46.5,42z"/>
	<ellipse fill="#FCEB2F" cx="35.9" cy="28.7" rx="11.3" ry="14.2"/>
	<g id="XMLID_62_">
		<g>
			<path fill="#3F3F3F" d="M50.3,16.1c0.6,1.1,0.4,2.5-0.4,3.5l-2.2,2.7l-0.1,0.1c-1-1.6-2.3-2.5-2.3-2.5l0-0.1
				c0.5-0.3,0.9-0.8,1.3-1.2H25.4c0.3,0.3,0.7,0.6,1.1,0.9l0,0c0,0-1.2,0.9-2.2,2.4l-0.2-0.2l-1.8-2.2c-0.8-1-1-2.4-0.4-3.5
				c1.4-2.6,5-6.7,14.2-7.3C45.3,9.4,48.9,13.5,50.3,16.1z"/>
			<path fill="#A37938" d="M47.5,22.4c1.2,1.8,1.9,4.5-0.4,7.5c0,0-2.7-8-5.8-8.2c1.4-0.4,2.7-1,3.8-1.8l0,0.1
				C45.2,19.9,46.5,20.9,47.5,22.4z"/>
			<path fill="#3F3F3F" d="M33.9,22.2c-2.8-0.3-5.5-1.2-7.4-2.6c-0.4-0.3-0.8-0.6-1.1-0.9h21.1c-0.4,0.5-0.8,0.9-1.3,1.2
				c-1.1,0.8-2.4,1.4-3.8,1.8C39.1,22.4,36.5,22.5,33.9,22.2z"/>
			<path fill="#A37938" d="M33.9,22.2c-7,1.1-9.4,7.7-9.4,7.7c-2.5-3.1-1.5-6-0.3-7.9c1-1.5,2.2-2.4,2.2-2.4l0,0
				C28.4,21,31.1,21.9,33.9,22.2z"/>
		</g>
		<g>
		</g>
	</g>
	<path fill="#010202" d="M42,26.8c0,1.1-0.9,2-2,2c-1.1,0-2-0.9-2-2c0-1.1,0.9-2,2-2C41.1,24.8,42,25.7,42,26.8"/>
	<path fill="#CFCFCE" d="M33,18.1c0-1.7,1.3-3,3-3c1.7,0,3,1.3,3,3"/>
	<path fill="#010202" d="M34,26.8c0,1.1-0.9,2-2,2c-1.1,0-2-0.9-2-2c0-1.1,0.9-2,2-2C33.1,24.8,34,25.7,34,26.8"/>
	<path fill="#010202" d="M36,36.8c-1.2,0-2.3-0.3-3.4-0.9c-0.5-0.2-0.7-0.8-0.4-1.3c0.2-0.5,0.8-0.7,1.3-0.4c1.7,0.9,3.4,0.9,5.1,0
		c0.5-0.2,1.1,0,1.3,0.4c0.2,0.5,0,1.1-0.4,1.3C38.3,36.6,37.2,36.8,36,36.8z"/>
	<path fill="none" stroke="#010202" stroke-width="2" stroke-linecap="round" stroke-miterlimit="10" d="M24.7,28.2
		c0,7.8,5.1,14.2,11.3,14.2S47.4,36,47.4,28.2"/>
	<path fill="none" stroke="#010202" stroke-width="2" stroke-linecap="round" stroke-linejoin="round" stroke-miterlimit="10" d="
		M46.5,18.8C42,24,30,23.4,25.4,18.8H46.5z"/>
	<path fill="none" stroke="#010202" stroke-width="2" stroke-linecap="round" stroke-linejoin="round" stroke-miterlimit="10" d="
		M47.8,22.2l2-2.5c0.8-1,1-2.4,0.4-3.5c-1.4-2.6-5-6.7-14.2-7.3c-9.2,0.6-12.9,4.7-14.2,7.3c-0.6,1.1-0.4,2.5,0.4,3.5l1.9,2.3"/>
	<path fill="none" stroke="#1E1E1C" stroke-width="2" stroke-linecap="round" stroke-linejoin="round" stroke-miterlimit="10" d="
		M42.3,17.1"/>
	<path fill="none" stroke="#1E1E1C" stroke-width="2" stroke-linecap="round" stroke-linejoin="round" stroke-miterlimit="10" d="
		M29.7,17.1"/>
	<path fill="none" stroke="#1E1E1C" stroke-width="2" stroke-linecap="round" stroke-linejoin="round" stroke-miterlimit="10" d="
		M46.5,16.3"/>
	<path fill="none" stroke="#010202" stroke-width="2" stroke-linecap="round" stroke-linejoin="round" stroke-miterlimit="10" d="
		M26.2,20.6c0,0-11.4,8.4-3.4,16.9l-5.6,0.6c0,0,1.9,2.7,8.1,3.3"/>
	<path fill="none" stroke="#010202" stroke-width="2" stroke-linecap="round" stroke-linejoin="round" stroke-miterlimit="10" d="
		M45.6,20.6c0,0,11.4,8.4,3.4,16.9l5.9,0.6c0,0-2.2,2.7-8.4,3.3"/>
	<path fill="none" stroke="#010202" stroke-width="2" stroke-linecap="round" stroke-linejoin="round" stroke-miterlimit="10" d="
		M34.4,22.5c0,0-9.8,2.8-10.6,6.9"/>
	
		<line fill="none" stroke="#010202" stroke-width="2" stroke-linecap="round" stroke-linejoin="round" stroke-miterlimit="10" x1="42.1" y1="21.9" x2="47.3" y2="28"/>
	<path fill="none" stroke="#010202" stroke-width="2" stroke-linecap="round" stroke-linejoin="round" stroke-miterlimit="10" d="
		M33,18.1c0-1.7,1.3-3,3-3c1.7,0,3,1.3,3,3"/>
	<polygon fill="#3F3F3F" points="35.7,50.2 39.5,58.9 35.7,58.9 31.8,58.9 	"/>
	
		<path fill="#3F3F3F" stroke="#010202" stroke-width="2" stroke-linecap="round" stroke-linejoin="round" stroke-miterlimit="10" d="
		M33.4,48.7c0,0-1.2,5,2.3,5s2.3-5,2.3-5"/>
	<path fill="none" stroke="#010202" stroke-width="2" stroke-linecap="round" stroke-linejoin="round" stroke-miterlimit="10" d="
		M53.9,50.5c1.4,3.5,0.8,7.4,0.8,7.4"/>
	<path fill="none" stroke="#010202" stroke-width="2" stroke-linecap="round" stroke-linejoin="round" stroke-miterlimit="10" d="
		M33.4,48.7l-3.3,5L26.3,45l0.6,0c3.2,2.1,5.9,3.6,9,3.6h-0.1c3.1,0,5.8-1.5,9-3.6l0.7,0l-4.1,8.7l-3-5"/>
	<path fill="none" stroke="#010202" stroke-width="2" stroke-linecap="round" stroke-linejoin="round" stroke-miterlimit="10" d="
		M16.9,57.9c0,0-0.6-3.9,0.8-7.4"/>
	<path fill="none" stroke="#020203" stroke-width="2" stroke-linecap="round" stroke-linejoin="round" stroke-miterlimit="10" d="
		M29,56.4"/>
	<path fill="none" stroke="#020203" stroke-width="2" stroke-linecap="round" stroke-linejoin="round" stroke-miterlimit="10" d="
		M41.1,56.4"/>
	<path fill="none" stroke="#1E1E1C" stroke-width="2" stroke-linecap="round" stroke-linejoin="round" stroke-miterlimit="10" d="
		M32.6,59.7"/>
	<path fill="none" stroke="#1E1E1C" stroke-width="2" stroke-linecap="round" stroke-linejoin="round" stroke-miterlimit="10" d="
		M35.4,54.1"/>
	
		<line fill="none" stroke="#010202" stroke-width="2" stroke-linecap="round" stroke-linejoin="round" stroke-miterlimit="10" x1="34.1" y1="54.2" x2="31.9" y2="57.9"/>
	
		<line fill="none" stroke="#010202" stroke-width="2" stroke-linecap="round" stroke-linejoin="round" stroke-miterlimit="10" x1="37.2" y1="54.2" x2="39.5" y2="57.9"/>
	<g>
		
			<line fill="none" stroke="#020203" stroke-width="2" stroke-linecap="round" stroke-linejoin="round" stroke-miterlimit="10" x1="23.7" y1="45.3" x2="23.7" y2="47.2"/>
		
			<line fill="none" stroke="#020203" stroke-width="2" stroke-linecap="round" stroke-linejoin="round" stroke-miterlimit="10" x1="20.3" y1="45.3" x2="20.3" y2="47.2"/>
		
			<line fill="none" stroke="#020203" stroke-width="2" stroke-linecap="round" stroke-linejoin="round" stroke-miterlimit="10" x1="16.9" y1="45.3" x2="16.9" y2="47.2"/>
	</g>
	<g>
		
			<line fill="none" stroke="#020203" stroke-width="2" stroke-linecap="round" stroke-linejoin="round" stroke-miterlimit="10" x1="47.8" y1="45.3" x2="47.8" y2="47.2"/>
		
			<line fill="none" stroke="#020203" stroke-width="2" stroke-linecap="round" stroke-linejoin="round" stroke-miterlimit="10" x1="51.2" y1="45.3" x2="51.2" y2="47.2"/>
		
			<line fill="none" stroke="#020203" stroke-width="2" stroke-linecap="round" stroke-linejoin="round" stroke-miterlimit="10" x1="54.6" y1="45.3" x2="54.6" y2="47.2"/>
	</g>
</g>
</svg>
