<?xml version="1.0" encoding="utf-8"?>
<!-- Generator: Adobe Illustrator 21.1.0, SVG Export Plug-In . SVG Version: 6.00 Build 0)  -->
<svg version="1.1" id="emoji" xmlns="http://www.w3.org/2000/svg" xmlns:xlink="http://www.w3.org/1999/xlink" x="0px" y="0px"
	 viewBox="0 0 72 72" enable-background="new 0 0 72 72" xml:space="preserve">
<g id="_xD83D__xDC6E__1_">
	<path fill="#90D2F4" d="M16.5,58.6c0,0-1.8-13.9,10.2-13.9c3.2,2.1,5.9,3.6,9,3.6h-0.1c3.1,0,6.3-1.6,9.5-3.7
		c11.6,0,9.6,13.9,9.8,14"/>
	<path fill="#5AA8D4" d="M45.3,43.6c-3.2,2.1-5.1,3.3-9.1,3.9c13.1,0.4,13.1,7.1,13.8,11.1c4.2,0,5.1,0,5.1,0S57.3,43.6,45.3,43.6z"
		/>
	<path fill="#3F3F3F" d="M35.9,53.2l1.8,3.2l1.6,1.9c0.1,0.1,0,0.3-0.2,0.3h-3.3h-3.3c-0.2,0-0.3-0.2-0.2-0.3l1.6-1.9L35.9,53.2z"/>
	<path d="M49.4,55c0,1.1-0.9,2-2,2c-1.1,0-2-0.9-2-2c0-1.1,0.9-2,2-2C48.5,53,49.4,53.9,49.4,55"/>
	<path fill="none" stroke="#1D1D1B" stroke-width="2" stroke-linecap="round" stroke-linejoin="round" stroke-miterlimit="10" d="
		M51.3,53.6"/>
	<path fill="none" stroke="#1D1D1B" stroke-width="2" stroke-linecap="round" stroke-linejoin="round" stroke-miterlimit="10" d="
		M45.8,48.2"/>
	<g id="XMLID_63_">
		<g>
			<path fill="#90D2F4" d="M44.7,44.8L41,53.6l-2.6-2.7v0l-2.5-2.6H36C38.9,48.2,41.6,46.8,44.7,44.8z"/>
			<path fill="#3F3F3F" d="M38.4,50.9L38.4,50.9c-0.1,1.6-0.7,3.2-2.5,3.2c-1.8,0-2.3-1.5-2.5-3l-0.2-0.1l2.6-2.7L38.4,50.9z"/>
			<path fill="#90D2F4" d="M35.8,48.3l-2.6,2.7l-2.6,2.6L27,44.7C30.1,46.8,32.8,48.2,35.8,48.3z"/>
		</g>
		<g>
			<path fill="none" stroke="#000000" stroke-width="2" stroke-linecap="round" stroke-linejoin="round" stroke-miterlimit="10" d="
				M17,57.7c0,0-2-13,10-13c3.2,2.1,5.9,3.5,8.9,3.6H36c3,0,5.6-1.4,8.7-3.5c0.1,0,0.1-0.1,0.2-0.1c12,0,10,13,10,13"/>
			
				<polyline fill="none" stroke="#000000" stroke-width="2" stroke-linecap="round" stroke-linejoin="round" stroke-miterlimit="10" points="
				27,44.7 30.7,53.6 33.3,50.9 35.8,48.3 			"/>
			
				<line fill="none" stroke="#000000" stroke-width="2" stroke-linecap="round" stroke-linejoin="round" stroke-miterlimit="10" x1="38.4" y1="50.9" x2="35.8" y2="48.3"/>
			
				<polyline fill="none" stroke="#000000" stroke-width="2" stroke-linecap="round" stroke-linejoin="round" stroke-miterlimit="10" points="
				44.7,44.7 44.7,44.8 41,53.6 38.4,50.9 			"/>
			<path fill="none" stroke="#000000" stroke-width="2" stroke-linecap="round" stroke-linejoin="round" stroke-miterlimit="10" d="
				M33.4,51.1c0.1,1.5,0.7,3,2.5,3c1.8,0,2.4-1.6,2.5-3.2v0"/>
			
				<line fill="none" stroke="#000000" stroke-width="2" stroke-linecap="round" stroke-linejoin="round" stroke-miterlimit="10" x1="35" y1="54.1" x2="32.6" y2="57.7"/>
			
				<line fill="none" stroke="#000000" stroke-width="2" stroke-linecap="round" stroke-linejoin="round" stroke-miterlimit="10" x1="36.7" y1="54.1" x2="39.2" y2="57.7"/>
		</g>
	</g>
	
		<line fill="none" stroke="#000000" stroke-width="2" stroke-linecap="round" stroke-linejoin="round" stroke-miterlimit="10" x1="21.1" y1="56.1" x2="27" y2="56.1"/>
	<g id="XMLID_61_">
		<g>
			<path fill="#90D2F4" d="M50.3,16.2c1.2,0.3,0.4,2.5-0.4,3.5l-2.2,2.7l-0.1,0c-0.9-1.3-1.9-2-1.9-2L45.1,20
				c0.5-0.4,0.9-0.8,1.3-1.2H25.3c0.4,0.4,0.9,0.8,1.5,1.2L26,20.5c0,0-0.9,0.6-1.8,1.8l-0.1-0.1l-2-2.4c-0.8-1-1.6-3.2-0.4-3.5
				c5.7-1.5,6-7.9,14.3-7.9S44.6,14.7,50.3,16.2z M36.1,16.6c2.1,0,2.5-3.9,2.5-3.9c-0.9-0.9-3.4-1.3-5-0.1
				C33.5,12.6,33.9,16.6,36.1,16.6z"/>
			<path fill="#F4AA42" d="M47.2,29.9c0,0-0.1,0.1-0.1,0.1c0,0-2.7-8-5.8-8.2l0,0c1.4-0.4,2.7-1,3.7-1.8l0.7,0.5c0,0,1,0.7,1.9,2
				C48.8,24.2,49.6,26.8,47.2,29.9z"/>
			<path fill="#FCEA2C" d="M47.1,30c0,0,0.1-0.1,0.1-0.1c-0.7,7-5.5,12.5-11.3,12.5c-5.9,0-10.6-5.5-11.3-12.6
				c0.6-1.3,3.1-6.4,9.3-7.4c2.5,0.3,5.1,0.1,7.4-0.6l0,0C44.4,22.1,47.1,30,47.1,30z M42,26.8c0-1.1-0.9-2-2-2c-1.1,0-2,0.9-2,2
				c0,1.1,0.9,2,2,2C41.1,28.8,42,27.9,42,26.8z M34,26.8c0-1.1-0.9-2-2-2c-1.1,0-2,0.9-2,2c0,1.1,0.9,2,2,2
				C33.1,28.8,34,27.9,34,26.8z"/>
			<path fill="#3F3F3F" d="M34,22.3c-2.7-0.3-5.3-1.1-7.2-2.4c-0.6-0.4-1-0.8-1.5-1.2h21.1c-0.4,0.5-0.8,0.9-1.3,1.2
				c-1.1,0.8-2.3,1.4-3.7,1.8C39.1,22.4,36.5,22.6,34,22.3z"/>
			<path fill="#000100" d="M40,24.8c1.1,0,2,0.9,2,2c0,1.1-0.9,2-2,2c-1.1,0-2-0.9-2-2C38,25.7,38.9,24.8,40,24.8z"/>
			<path fill="#1D1D1B" d="M38.5,12.7c0,0-0.3,3.9-2.5,3.9c-2.1,0-2.5-3.9-2.5-3.9C35.1,11.4,37.6,11.7,38.5,12.7z"/>
			<path fill="#000100" d="M32,24.8c1.1,0,2,0.9,2,2c0,1.1-0.9,2-2,2c-1.1,0-2-0.9-2-2C30,25.7,30.9,24.8,32,24.8z"/>
			<path fill="#F4AA42" d="M24.7,29.7c-0.1,0.2-0.1,0.3-0.1,0.3C22,26.7,23,24,24.3,22.3c0.8-1.1,1.8-1.8,1.8-1.8l0.8-0.6
				c1.9,1.3,4.5,2.1,7.2,2.4C27.8,23.3,25.3,28.4,24.7,29.7z"/>
		</g>
		<g>
		</g>
	</g>
	<path d="M36,36.8c-1.2,0-2.3-0.3-3.4-0.9c-0.5-0.2-0.7-0.8-0.4-1.3c0.2-0.5,0.8-0.7,1.3-0.4c1.7,0.9,3.4,0.9,5.1,0
		c0.5-0.2,1.1,0,1.3,0.4c0.2,0.5,0,1.1-0.4,1.3C38.3,36.5,37.2,36.8,36,36.8z"/>
	<path d="M42,26.8c0,1.1-0.9,2-2,2c-1.1,0-2-0.9-2-2c0-1.1,0.9-2,2-2C41.1,24.8,42,25.7,42,26.8"/>
	<path d="M34,26.8c0,1.1-0.9,2-2,2c-1.1,0-2-0.9-2-2c0-1.1,0.9-2,2-2C33.1,24.8,34,25.7,34,26.8"/>
	<path fill="none" stroke="#000000" stroke-width="2" stroke-miterlimit="10" d="M24.7,29.5c0.5,7.2,5.4,12.8,11.3,12.8
		c5.8,0,10.6-5.5,11.3-12.6c0-0.5,0.1-1.1,0.1-1.6"/>
	<path fill="none" stroke="#1D1D1B" stroke-width="2" stroke-linecap="round" stroke-linejoin="round" stroke-miterlimit="10" d="
		M42.3,17.1"/>
	<path fill="none" stroke="#1D1D1B" stroke-width="2" stroke-linecap="round" stroke-linejoin="round" stroke-miterlimit="10" d="
		M29.6,17.1"/>
	<path fill="none" stroke="#1D1D1B" stroke-width="2" stroke-linecap="round" stroke-linejoin="round" stroke-miterlimit="10" d="
		M46.4,16.3"/>
	
		<path fill="#FCEA2C" stroke="#000000" stroke-width="2" stroke-linecap="round" stroke-linejoin="round" stroke-miterlimit="10" d="
		M36.1,16.6c-2.1,0-2.5-3.9-2.5-3.9c1.6-1.3,4.1-0.9,5,0.1C38.6,12.7,38.2,16.6,36.1,16.6z"/>
	<path fill="none" stroke="#000000" stroke-width="2" stroke-linecap="round" stroke-linejoin="round" stroke-miterlimit="10" d="
		M34.2,22.3c-7.2,1-9.5,7.7-9.5,7.7c-4.4-5.5,1.4-9.5,1.4-9.5l0.8-0.6"/>
	<path fill="#5AA8D4" d="M42.9,10.5c0,0,0.9,8.2-2.6,8.2l5.3,0.3l1.7,3c0,0,3.7-1.9,3.6-5.2C51,16.8,43.7,12.6,42.9,10.5z"/>
	<path fill="none" stroke="#000000" stroke-width="2" stroke-linecap="round" stroke-linejoin="round" stroke-miterlimit="10" d="
		M46.4,18.8C42,24,30,23.4,25.3,18.8H46.4z"/>
	<path fill="none" stroke="#000000" stroke-width="2" stroke-linecap="round" stroke-linejoin="round" stroke-miterlimit="10" d="
		M47.7,22.5l2.2-2.7c0.8-1,1.6-3.2,0.4-3.5c-5.7-1.5-5.9-7.9-14.3-7.9c-8.4,0-8.6,6.3-14.3,7.9c-1.2,0.3-0.4,2.5,0.4,3.5l2,2.4"/>
	<path fill="none" stroke="#000000" stroke-width="2" stroke-linecap="round" stroke-linejoin="round" stroke-miterlimit="10" d="
		M41.4,21.8c3.1,0.3,5.8,8.2,5.8,8.2c4.4-5.5-1.4-9.5-1.4-9.5L45.1,20"/>
</g>
</svg>
