<svg id="emoji" xmlns="http://www.w3.org/2000/svg" viewBox="0 0 72 72">
  <g id="color">
    <path fill="#9b9b9a" d="M17.298,58.8535c0,0-2-13.8,10-13.8c3.1918,2.1279,5.9264,3.5984,9,3.5921h-0.125
		c3.0736,0.0063,5.3081-2.6642,8.5-4.7921c13.3136,0,10.9,15,10.9,15" stroke="none"></path>
    <polyline fill="#d0cfce" points="36.6129,54.2067 39.0281,58.7515 45.4,44.1365 51.8574,53.9202 40.6996,58.0515 	" stroke="none"></polyline>
    <path fill="#FFFFFF" d="M38.507,57.7426c-0.5976,1.0349-4.8914,1.0349-5.489,0l-1.842-2.4101l-3.3864-8.7387l7.9729,2.7l7.573-2.7
		l-3.2865,8.7387L38.507,57.7426z" stroke="none"></path>
    <path fill="#fcea2b" stroke="none" stroke-width="2" stroke-linecap="round" stroke-linejoin="round" stroke-miterlimit="10" d="
		M27.6859,18.6041c-1.945,2.5445-3.1396,5.9929-3.1396,9.79c0,7.8277,5.0765,14.1732,11.3386,14.1732
		c6.2622,0,11.3386-6.3455,11.3386-14.1732c0-1.1581-0.1111-2.2838-0.3208-3.3613"></path>
    <path fill="#d0cfce" d="M65.729,58.4861H50.2443V38.6837h15.2709c0.1181,0,0.2138,0.0957,0.2138,0.2138V58.4861z" stroke="none"></path>
    <path fill="#FFFFFF" d="M62.6179,60.9619H48.0103V42.0102h10.753c2.1288,0,3.8546,1.7257,3.8546,3.8545V60.9619z" stroke="none"></path>
    <path fill="#3F3F3F" stroke="none" stroke-width="2" stroke-linecap="round" stroke-linejoin="round" stroke-miterlimit="10" d="
		M33.4552,48.5348c0,0-1.2063,6.0215,2.3073,6.0215s2.3073-6.0215,2.3073-6.0215"></path>
    <path fill="#3F3F3F" stroke="none" stroke-width="2" stroke-linecap="round" stroke-linejoin="round" stroke-miterlimit="10" d="
		M27.3738,18.7874c0,0,10.1357,7.9589,10.5113,2.439c0,0,5.3353,3.8061,9.0176,3.8064c6.4331,0.0005-0.131-12.4794-11.1402-15.1193
		c-3.1441-0.7528-9.8929-1.7551-9.8929,4.4592c0,0-7.6176,4.2314-1.3233,12.5495l0.0911-0.3328
		C24.9505,23.5099,27.3738,18.7874,27.3738,18.7874z"></path>
    <path fill="#3F3F3F" d="M35.0163,54.8799c0.3249-0.5627,1.137-0.5627,1.4619,0l1.1645,2.0171l1.8956,1.9831h-3.7911h-3.791
		l1.8955-1.9831L35.0163,54.8799z" stroke="none"></path>
    <polyline fill="#d0cfce" stroke="none" stroke-width="2" stroke-linecap="round" stroke-linejoin="round" stroke-miterlimit="10" points="
		34.9121,54.5563 32.4969,57.8011 26.825,44.8861 22.8676,53.3698 32.3254,57.8011 	"></polyline>
  </g>
  <g id="hair"> </g>
  <g id="skin"> </g>
  <g id="skin-shadow"> </g>
  <g id="line">
    <path fill="none" stroke="#000000" stroke-width="2" stroke-linecap="round" stroke-linejoin="round" stroke-miterlimit="10" d="
		M27.6859,18.6041c-1.945,2.5445-3.1396,5.9929-3.1396,9.79c0,7.8277,5.0765,14.1732,11.3386,14.1732
		c6.2622,0,11.3386-6.3455,11.3386-14.1732c0-1.1581-0.1111-2.2838-0.3208-3.3613"></path>
    <path fill="#000000" d="M41.8851,27.0333c0,1.1045-0.8965,2-2,2s-2-0.8955-2-2c0-1.1035,0.8965-2,2-2
		S41.8851,25.9298,41.8851,27.0333" stroke="none"></path>
    <path fill="#000000" d="M33.8851,27.0333c0,1.1045-0.8965,2-2,2s-2-0.8955-2-2c0-1.1035,0.8965-2,2-2
		S33.8851,25.9298,33.8851,27.0333" stroke="none"></path>
    <path fill="#000000" d="M35.8849,37.0357c-1.1518,0-2.3037-0.2861-3.4472-0.8579c-0.4942-0.2471-0.6944-0.8477-0.4473-1.3418
		c0.2466-0.4936,0.8462-0.6943,1.3418-0.4473c1.7178,0.8594,3.3877,0.8594,5.1055,0c0.4946-0.247,1.0947-0.0463,1.3418,0.4473
		c0.247,0.4941,0.0468,1.0947-0.4473,1.3418C38.1886,36.7496,37.0368,37.0357,35.8849,37.0357z" stroke="none"></path>
    <polygon fill="none" stroke="#000000" stroke-width="2" stroke-linecap="round" stroke-linejoin="round" stroke-miterlimit="10" points="
			62.6179,60.9619 48.0103,60.9619 48.0103,42.3261 59.8355,42.3261 59.8355,44.4385 62.6179,44.4385 		"></polygon>
    <polyline fill="none" stroke="#000000" stroke-width="2" stroke-linecap="round" stroke-linejoin="round" stroke-miterlimit="10" points="
			51.2144,38.8631 66.0398,38.8631 66.0398,57.499 		"></polyline>
    <line fill="none" stroke="#000000" stroke-width="2" stroke-linecap="round" stroke-linejoin="round" stroke-miterlimit="10" x1="59.8355" y1="42.3261" x2="62.6179" y2="44.4385"></line>
    <line fill="none" stroke="#000000" stroke-width="2" stroke-linecap="round" stroke-linejoin="round" stroke-miterlimit="10" x1="50.9548" y1="48.5348" x2="59.3875" y2="48.5348"></line>
    <path fill="none" stroke="#000000" stroke-width="2" stroke-linecap="round" stroke-linejoin="round" stroke-miterlimit="10" d="
			M59.3875,50.583"></path>
    <path fill="none" stroke="#000000" stroke-width="2" stroke-linecap="round" stroke-linejoin="round" stroke-miterlimit="10" d="
			M50.9548,50.583"></path>
    <line fill="none" stroke="#000000" stroke-width="2" stroke-linecap="round" stroke-linejoin="round" stroke-miterlimit="10" x1="50.9548" y1="52.6312" x2="59.3875" y2="52.6312"></line>
    <line fill="none" stroke="#000000" stroke-width="2" stroke-linecap="round" stroke-linejoin="round" stroke-miterlimit="10" x1="50.9548" y1="56.2155" x2="59.3875" y2="56.2155"></line>
    <path fill="none" stroke="#000000" stroke-width="2" stroke-linecap="round" stroke-linejoin="round" stroke-miterlimit="10" d="
		M33.4552,48.5348c0,0-1.2063,6.0215,2.3073,6.0215s2.3073-6.0215,2.3073-6.0215"></path>
    <path fill="none" stroke="#000000" stroke-width="2" stroke-linecap="round" stroke-linejoin="round" stroke-miterlimit="10" d="
		M32.5649,57.8011"></path>
    <path fill="none" stroke="#000000" stroke-width="2" stroke-linecap="round" stroke-linejoin="round" stroke-miterlimit="10" d="
		M38.9601,57.8011"></path>
    <line fill="none" stroke="#000000" stroke-width="2" stroke-linecap="round" stroke-linejoin="round" stroke-miterlimit="10" x1="44.7" y1="55.6292" x2="38.9601" y2="57.8075"></line>
    <path fill="none" stroke="#000000" stroke-width="2" stroke-linecap="round" stroke-linejoin="round" stroke-miterlimit="10" d="
		M27.3738,18.7874c0,0,10.1357,7.9589,10.5113,2.439c0,0,5.3353,3.8061,9.0176,3.8064c6.4331,0.0005-0.131-12.4794-11.1402-15.1193
		c-3.1441-0.7528-9.8929-1.7551-9.8929,4.4592c0,0-7.6176,4.2314-1.3233,12.5495l0.0911-0.3328
		C24.9505,23.5099,27.3738,18.7874,27.3738,18.7874z"></path>
    <path fill="none" stroke="#000000" stroke-width="2" stroke-linecap="round" stroke-linejoin="round" stroke-miterlimit="10" d="
		M16.825,57.8861c0,0-2-13,10-13c3.1919,2.1279,5.9264,3.5984,9,3.5921H35.7c3.0736,0.0063,5.8081-1.4642,9-3.5921"></path>
    <polyline fill="none" stroke="#000000" stroke-width="2" stroke-linecap="round" stroke-linejoin="round" stroke-miterlimit="10" points="
		34.9121,54.5563 32.4969,57.8011 26.825,44.8861 22.8676,53.3698 32.3254,57.8011 	"></polyline>
    <polyline fill="none" stroke="#000000" stroke-width="2" stroke-linecap="round" stroke-linejoin="round" stroke-miterlimit="10" points="
		44.7,44.8861 39.0281,57.8011 36.6129,54.5563 	"></polyline>
  </g>
</svg>