<svg id="emoji" xmlns="http://www.w3.org/2000/svg" viewBox="0 0 72 72">
  <g id="color">
    <path d="M59.9438,60.2462h-25.83l.1326-1.8468.4773-6.8237.3271-4.563c0-2.94,3.0232-5.1592,5.8166-5.2835,4.1812,3.3125,8.4066,3.3125,12.5789,0,2.7934.1243,5.8254,2.3436,5.8254,5.2835Z" fill="#92d3f5" stroke="#92d3f5" stroke-linecap="round" stroke-linejoin="round" stroke-width="1.6"/>
    <path d="M12.2526,47.3287c0-2.87,3.0576-5.036,5.8746-5.1572,4.2076,3.2334,8.5462,3.0282,12.7627-.2052,1.4085.0606,2.753.1523,6.765.0513,2.0263-.051-.763,4.1585-.763,5.5933l-1.194,5.1345,1.7913,5.6981.1337,1.8027H11.5751Z" fill="#92d3f5" stroke="#92d3f5" stroke-linecap="round" stroke-linejoin="round" stroke-width="1.6"/>
    <path d="M35.544,61.0236V59.969a4.8922,4.8922,0,0,0-4.8977-4.5375q-4.4079,3.7812-8.8159,0a4.8918,4.8918,0,0,0-4.8977,4.5376v1.0545Z" fill="#b1cc33"/>
    <path d="M36.2694,61.0473V59.9927a4.8923,4.8923,0,0,1,4.8977-4.5376q4.4081,3.7812,8.8159,0a4.8919,4.8919,0,0,1,4.8978,4.5376v1.0546Z" fill="#b1cc33"/>
  </g>
  <g id="skin">
    <path d="M52.6728,47.389a7.4618,7.4618,0,0,1-2.6051,5.7526,6.2865,6.2865,0,0,1-2.3308,1.2565l-.2742.077a6.3951,6.3951,0,0,1-1.4076.1624,6.0085,6.0085,0,0,1-.9689-.0769c-.1463-.0257-.2834-.0513-.42-.0855a6.2492,6.2492,0,0,1-2.8792-1.5557,7.5191,7.5191,0,0,1-2.3491-5.53,6.94,6.94,0,0,1,1.4533-4.385,6.4225,6.4225,0,0,1,5.1-2.3934,6.559,6.559,0,0,1,5.63,3.043A6.8549,6.8549,0,0,1,52.6728,47.389Z" fill="#fcea2b"/>
    <path d="M19.1407,47.3654a7.4619,7.4619,0,0,0,2.605,5.7526,6.2894,6.2894,0,0,0,2.3308,1.2565l.2742.0769a6.39,6.39,0,0,0,1.4077.1624,5.9981,5.9981,0,0,0,.9689-.0769c.1462-.0256.2833-.0513.42-.0855a6.2485,6.2485,0,0,0,2.8793-1.5556,7.52,7.52,0,0,0,2.3491-5.53,6.939,6.939,0,0,0-1.4534-4.385,6.4224,6.4224,0,0,0-5.1-2.3934,6.559,6.559,0,0,0-5.6306,3.043A6.8555,6.8555,0,0,0,19.1407,47.3654Z" fill="#fcea2b"/>
    <path d="M30.9093,30.3417v-.6683c0-1.3365-8.019-4.6778-10.692-7.3507-2.673,2.673-4.0094,4.6778-4.0094,8.019,0,5.346,3.3412,9.3555,7.3507,9.3555s7.3508-4.01,7.3508-9.3555Z" fill="#fcea2b"/>
    <path d="M38.7467,29.5205v-.6682c0-1.3366,8.019-4.6778,10.692-7.3508,2.6729,2.6731,4.0094,4.6778,4.0094,8.019,0,5.3461-3.3412,9.3555-7.3507,9.3555s-7.3508-4.0095-7.3508-9.3555Z" fill="#fcea2b"/>
  </g>
  <g id="hair">
    <path d="M26.0567,42.5994a8.7917,8.7917,0,0,0-5.2439,5.9436,9.5709,9.5709,0,0,0-.6747,3.6866,4.1815,4.1815,0,0,1-3.8022-1.4541,7.23,7.23,0,0,0,2.1464-3.1375c-1.0617-11.2264,7.4809-8.492,7.4809-8.492h0s8.22-2.5262,7.6679,8.492a7.23,7.23,0,0,0,2.1464,3.1375A4.1816,4.1816,0,0,1,31.9752,52.23a9.5227,9.5227,0,0,0-.6747-3.6866,9.1366,9.1366,0,0,0-5.2438-5.9436" fill="#a57939"/>
    <path d="M45.7567,42.623a8.7923,8.7923,0,0,1,5.244,5.9437,9.5713,9.5713,0,0,1,.6746,3.6866,4.1819,4.1819,0,0,0,3.8023-1.4541,7.23,7.23,0,0,1-2.1465-3.1375C54.3928,36.4353,45.85,39.17,45.85,39.17h0s-8.22-2.5262-7.6679,8.4921a7.23,7.23,0,0,1-2.1465,3.1375,4.182,4.182,0,0,0,3.8024,1.4541,9.5231,9.5231,0,0,1,.6746-3.6866,9.137,9.137,0,0,1,5.2438-5.9437" fill="#a57939"/>
    <path d="M12.3986,41.6633c.77.63,6.0577-.26,7.0035.8884,2.0219.0532,2.2072-.0066,2.8266-2.2-2.08-1.62-6.39-6.8986-6.39-10.3686,0-3.34,1.34-5.35,4.01-8.02,2.67,2.67,10.69,6.02,10.69,7.35v.67c0,3.55-1.2033,10.052-9.5506,10.2963,1.3344.476-4.5819,2.0551-.4153,2.91,1.61.3306,2.1182.9364,7.7679.0533,3.18-1.37,7.738-1.77,7.928-1.95-.08,0,1.46-6.13-1.14-9.17a4.81,4.81,0,0,1-.79-1.46,9.3922,9.3922,0,0,1-.53-4.17,12.8574,12.8574,0,0,0-.4-4.32c-.91-3.39-4.58-5.75-8.93-5.75a6.9349,6.9349,0,0,0-5.08,1.85.66.66,0,0,1-.48.24,4.9528,4.9528,0,0,0-4.54,4.97c-.23,4.21-.62,5.07-1.65,7.36-.23.63-1.44,4.2-1.75,4.79C8.8586,38.7933,12.2387,41.5733,12.3986,41.6633Z" fill="#a57939"/>
    <path d="M58.745,34.8121c-.31-.59-1.52-4.16-1.75-4.79-1.03-2.29-1.42-3.15-1.65-7.36a4.9528,4.9528,0,0,0-4.54-4.97.66.66,0,0,1-.48-.24,6.9347,6.9347,0,0,0-5.08-1.85c-4.35,0-8.02,2.36-8.93,5.75-.38,1.41-1.7526,2.9314-1.6426,4.3814a7.5565,7.5565,0,0,1-.1759,3.7542c-.18.53.4485,1.3744.0985,1.8144-2.6,3.04-1.0362,13.5159-1.1281,11.4221.19.18,1.8107.02,5.1081-.0661,20.2711,3.1685,8.3107-2.54,10.1606-3.2-8.3473-.2442-9.5506-6.7462-9.5506-10.2963v-.67c0-1.33,8.02-4.68,10.69-7.35,2.67,2.67,4.01,4.68,4.01,8.02,0,3.47-3.228,9.2552-6.195,10.1582.6194,2.1932,2.0161,1.6273,1.7963,4.607a48.8692,48.8692,0,0,1,7.8387-3.0851C57.485,40.7521,60.865,37.9721,58.745,34.8121Z" fill="#a57939"/>
  </g>
  <g id="line">
    <path d="M12.3292,40.3273a7.7526,7.7526,0,0,1-.6881-7.407c1.6072-3.7889,2.0328-3.77,2.2915-8.5682a5.4341,5.4341,0,0,1,4.9483-5.3707,7.2359,7.2359,0,0,1,5.3459-2.0047c4.2983,0,8.1727,2.3162,9.1611,5.9915,1.0023,3.7308-.23,5.2351.8627,8.0417.4653,1.1958.3944,2.102.8054,3.2928" fill="none" stroke="#000" stroke-linecap="round" stroke-linejoin="round" stroke-width="2"/>
    <path d="M30.9093,30.3417v-.6683c0-1.3365-8.019-4.6778-10.692-7.3507-2.673,2.673-4.0094,4.6778-4.0094,8.019,0,5.346,3.3412,9.3555,7.3507,9.3555s7.3508-4.01,7.3508-9.3555Z" fill="none" stroke="#000" stroke-miterlimit="10" stroke-width="1.6"/>
    <path d="M19.8844,30.22a1.2389,1.2389,0,1,1,1.2388,1.2388A1.2388,1.2388,0,0,1,19.8844,30.22"/>
    <path d="M24.84,30.22a1.2388,1.2388,0,1,1,1.2388,1.2388A1.2387,1.2387,0,0,1,24.84,30.22"/>
    <path d="M21.7427,35.33a3.9489,3.9489,0,0,0,3.7165,0" fill="none" stroke="#000" stroke-linecap="round" stroke-linejoin="round" stroke-width="1.6"/>
    <path d="M57.3268,39.5062a7.7526,7.7526,0,0,0,.6881-7.407c-1.6072-3.789-2.0328-3.77-2.2915-8.5682A5.4341,5.4341,0,0,0,50.7751,18.16a7.236,7.236,0,0,0-5.346-2.0047c-4.2982,0-8.1726,2.3162-9.161,5.9916-1.0023,3.7308-1.0751,2.4115-1.5957,6.5269a15.4161,15.4161,0,0,0-.39,2.3674" fill="none" stroke="#000" stroke-linecap="round" stroke-linejoin="round" stroke-width="2"/>
    <path d="M38.7467,29.5205v-.6682c0-1.3366,8.019-4.6778,10.692-7.3508,2.6729,2.6731,4.0094,4.6778,4.0094,8.019,0,5.3461-3.3412,9.3555-7.3507,9.3555s-7.3508-4.0095-7.3508-9.3555Z" fill="none" stroke="#000" stroke-miterlimit="10" stroke-width="1.6"/>
    <path d="M49.7716,29.399a1.2389,1.2389,0,1,0-1.2388,1.2388,1.2388,1.2388,0,0,0,1.2388-1.2388"/>
    <path d="M44.8162,29.399a1.2388,1.2388,0,1,0-1.2388,1.2388,1.2387,1.2387,0,0,0,1.2388-1.2388"/>
    <path d="M47.9133,34.5091a3.9489,3.9489,0,0,1-3.7165,0" fill="none" stroke="#000" stroke-linecap="round" stroke-linejoin="round" stroke-width="1.6"/>
    <path d="M60.166,60.2462v-12.76a6.036,6.036,0,0,0-6.2243-5.8939H52.6069" fill="none" stroke="#000" stroke-linecap="round" stroke-linejoin="round" stroke-width="2"/>
    <path d="M11.5671,60.4168v-12.76a6.1862,6.1862,0,0,1,6.1907-6.1091h1.706" fill="none" stroke="#000" stroke-linecap="round" stroke-linejoin="round" stroke-width="2"/>
    <g>
      <path d="M51.2577,51.9492l2.6792.08.3912.008S52.0147,52.657,51.2577,51.9492Z" fill="#fff"/>
      <path d="M51.1131,55.33a7.8071,7.8071,0,0,0,2.8238,1.2965,3.7364,3.7364,0,0,0,.3912.0715Z" fill="#fff"/>
      <path d="M54.3281,58.4633l-.3912-.1273" fill="none"/>
      <path d="M51.0353,50.3291a9.664,9.664,0,0,1-2.05,3.15,5.8538,5.8538,0,0,1-2.1688,1.1692l-.2552.0716a5.9494,5.9494,0,0,1-1.31.1511A5.585,5.585,0,0,1,44.35,54.8c-.136-.0239-.2636-.0477-.3912-.0795A5.8144,5.8144,0,0,1,41.28,53.2727a9.5225,9.5225,0,0,1-1.7591-2.7806" fill="none" stroke="#000" stroke-miterlimit="10" stroke-width="1.6"/>
      <path d="M48.0331,47.6241a.8928.8928,0,1,1-.8907-.833.8633.8633,0,0,1,.8907.833Z"/>
      <path d="M44.47,47.6241a.8928.8928,0,1,1-.8907-.833.8633.8633,0,0,1,.8907.833Z"/>
      <path d="M44.0247,50.8669a2.0934,2.0934,0,0,0,2.6723,0" fill="none" stroke="#000" stroke-linecap="round" stroke-linejoin="round" stroke-width="1.6"/>
      <path d="M54.6647,60.3436v-.9067c0-2.02-2.1518-3.6746-4.44-3.8655a4.4435,4.4435,0,0,0-.4593-.0239,2.2484,2.2484,0,0,1-.2466.1671,7.6994,7.6994,0,0,1-2.8663,1.3123.0123.0123,0,0,1-.017,0,5.7524,5.7524,0,0,1-2.2114.0636,3.7411,3.7411,0,0,1-.3912-.0715A7.806,7.806,0,0,1,41.21,55.7225c-.0851-.0557-.17-.1113-.2552-.175a4.4435,4.4435,0,0,0-.4593.0239c-2.2879.1909-4.44,1.8452-4.44,3.8655v.9067" fill="none" stroke="#000" stroke-linecap="round" stroke-linejoin="round" stroke-width="1.6"/>
      <path d="M36.15,51.3781a3.8763,3.8763,0,0,0,3.2.8785,9.605,9.605,0,0,1,.67-3.6941,10.7778,10.7778,0,0,1,.9305-2.1216,8.4346,8.4346,0,0,1,4.3175-3.815,8.3087,8.3087,0,0,1,4.0105,3.2288,11.0091,11.0091,0,0,1,1.2375,2.7078c.2047.6792.3536,1.2468.4467,1.7121a6.0838,6.0838,0,0,1,.2233,1.982,3.5974,3.5974,0,0,0,1.2562.0279h.0186a3.5148,3.5148,0,0,0,.884-.27,4.6627,4.6627,0,0,0,1.6469-1.2189A7.1981,7.1981,0,0,1,52.8421,47.66a14.1026,14.1026,0,0,0-.0558-3.5359c-.53-3.4057-2.531-4.606-4.3176-4.9689a7.75,7.75,0,0,0-3.1079.0186,7.212,7.212,0,0,0-1.9168-.2512,6.3065,6.3065,0,0,0-2.0285.3256" fill="none" stroke="#000" stroke-linecap="round" stroke-linejoin="round" stroke-width="1.6"/>
      <path d="M41.4155,39.2481c-1.7214.6142-3.4149,2.2239-3.7034,6.1507a18.0621,18.0621,0,0,0-.0186,2.2611,8.0059,8.0059,0,0,1-1.6286,2.6984" fill="none" stroke="#000" stroke-linecap="round" stroke-linejoin="round" stroke-width="1.6"/>
    </g>
    <g>
      <path d="M20.5557,51.9256l-2.6791.0795-.3913.0079S19.7988,52.6334,20.5557,51.9256Z" fill="#fff"/>
      <path d="M20.7,55.3059a7.8081,7.8081,0,0,1-2.8237,1.2964,3.7392,3.7392,0,0,1-.3913.0716Z" fill="#fff"/>
      <path d="M17.4853,58.44l.3913-.1272" fill="none"/>
      <path d="M20.7781,50.3055a9.6664,9.6664,0,0,0,2.05,3.15,5.853,5.853,0,0,0,2.1688,1.1692l.2551.0715a5.9443,5.9443,0,0,0,1.31.1512,5.5847,5.5847,0,0,0,.9015-.0716c.1361-.0239.2637-.0478.3912-.08a5.8136,5.8136,0,0,0,2.6792-1.4475,9.5259,9.5259,0,0,0,1.7591-2.7806" fill="none" stroke="#000" stroke-miterlimit="10" stroke-width="1.6"/>
      <path d="M23.78,47.6a.8928.8928,0,1,0,.8908-.833.8633.8633,0,0,0-.8908.833Z"/>
      <path d="M27.3434,47.6a.8928.8928,0,1,0,.8908-.833.8633.8633,0,0,0-.8908.833Z"/>
      <path d="M27.7887,50.8432a2.093,2.093,0,0,1-2.6722,0" fill="none" stroke="#000" stroke-linecap="round" stroke-linejoin="round" stroke-width="1.6"/>
      <path d="M17.1487,60.32v-.9067c0-2.02,2.1518-3.6747,4.44-3.8655a4.4158,4.4158,0,0,1,.4593-.0239,2.2481,2.2481,0,0,0,.2467.167,7.7,7.7,0,0,0,2.8662,1.3124.0124.0124,0,0,0,.017,0,5.7544,5.7544,0,0,0,2.2114.0636,3.7327,3.7327,0,0,0,.3912-.0716,7.8085,7.8085,0,0,0,2.8238-1.2964c.085-.0557.17-.1114.2551-.175a4.4158,4.4158,0,0,1,.4593.0239c2.2879.1908,4.44,1.8452,4.44,3.8655V60.32" fill="none" stroke="#000" stroke-linecap="round" stroke-linejoin="round" stroke-width="1.6"/>
      <path d="M35.8179,50.4022a7.9018,7.9018,0,0,1-1.698-2.766,18.0244,18.0244,0,0,0-.0186-2.2611c-.2884-3.9267-1.9819-5.5365-3.7034-6.1506" fill="none" stroke="#000" stroke-linecap="round" stroke-linejoin="round" stroke-width="1.6"/>
      <path d="M30.3979,39.2245a6.306,6.306,0,0,0-2.0285-.3257,7.2094,7.2094,0,0,0-1.9168.2513,7.7511,7.7511,0,0,0-3.1079-.0187c-1.7865.3629-3.7871,1.5633-4.3175,4.9689a14.0981,14.0981,0,0,0-.0558,3.5359,7.1971,7.1971,0,0,1-2.1495,3.1358,4.662,4.662,0,0,0,1.647,1.219,3.5094,3.5094,0,0,0,.884.27h.0186a3.5926,3.5926,0,0,0,1.2562-.0279,6.0793,6.0793,0,0,1,.2233-1.9819c.093-.4653.2419-1.0329.4466-1.7122a11.0146,11.0146,0,0,1,1.2376-2.7077,8.3079,8.3079,0,0,1,4.0105-3.2289,8.4356,8.4356,0,0,1,4.3175,3.8151,10.7857,10.7857,0,0,1,.9305,2.1215,9.6058,9.6058,0,0,1,.67,3.6941,3.924,3.924,0,0,0,3.3143-.9727" fill="none" stroke="#000" stroke-linecap="round" stroke-linejoin="round" stroke-width="1.6"/>
    </g>
  </g>
</svg>
