<?xml version="1.0" encoding="utf-8"?>
<!-- Generator: Adobe Illustrator 21.1.0, SVG Export Plug-In . SVG Version: 6.00 Build 0)  -->
<svg version="1.1" id="emoji" xmlns="http://www.w3.org/2000/svg" xmlns:xlink="http://www.w3.org/1999/xlink" x="0px" y="0px"
	 viewBox="0 0 72 72" enable-background="new 0 0 72 72" xml:space="preserve">
<g id="_xD83D__xDC6A__xFE0F__2_">
	
		<rect x="21.1" y="47" fill="#92D3F5" stroke="#92D3F5" stroke-width="0.5" stroke-linecap="round" stroke-linejoin="round" stroke-miterlimit="10" width="29.4" height="10.5"/>
	<g id="_xD83D__xDC6A__xFE0F__1_">
		<g>
			<ellipse fill="#FCEA2B" stroke="#000000" stroke-width="2" stroke-miterlimit="10" cx="21.8" cy="24.5" rx="8.7" ry="11.3"/>
			<path fill="#A57939" d="M10.8,19.2c0.6-8.7,7.2-8.8,10.5-8.3c0.3,0.1,1.2,0,1.5,0c6-0.8,9,6,9,9c0,1.1,0,3.8-1.5,5.3
				c0,0-3.4-4.2-3.6-6.6c0,0-11.4,4.3-12.2,0.6c0,0-0.8,3-1.5,3.8c0,0,0,2.3,0,3C13.1,26,10.6,23,10.8,19.2z"/>
			<path fill="none" stroke="#000000" stroke-width="2" stroke-linecap="round" stroke-linejoin="round" d="M10.8,19.2
				c0.6-8.7,7.2-8.8,10.5-8.3c0.3,0.1,1.2,0,1.5,0c6-0.8,9,6,9,9c0,1.1,0,3.8-1.5,5.3c0,0-3.4-4.2-3.6-6.6c0,0-11.4,4.3-12.2,0.6
				c0,0-0.8,3-1.5,3.8c0,0,0,2.3,0,3C13.1,26,10.6,23,10.8,19.2z"/>
			<path fill="#92D3F5" d="M30.9,49.9v6.9l4.3,1.5V61H7V45.1c0-3.6,4-6.7,7.1-6.8c4.7,4,10.2,2.6,14.9-0.6c3.1,0.1,6.2,3.6,6.2,7.2
				v5.2L30.9,49.9z"/>
			<path fill="none" stroke="#010101" stroke-width="2" stroke-linecap="round" stroke-linejoin="round" d="M7,60V45.6
				c0-3.8,3.8-6.8,7.6-6.8c3.1,2.6,6.2,3.4,9.4,2.4"/>
			<path d="M26,25.2c0,0.8-0.6,1.4-1.4,1.4c-0.8,0-1.4-0.6-1.4-1.4c0-0.8,0.6-1.4,1.4-1.4C25.4,23.8,26,24.4,26,25.2"/>
			<path d="M20.4,25.2c0,0.8-0.6,1.4-1.4,1.4c-0.8,0-1.4-0.6-1.4-1.4c0-0.8,0.6-1.4,1.4-1.4C19.8,23.8,20.4,24.4,20.4,25.2"/>
			<path fill="none" stroke="#000000" stroke-width="2" stroke-linecap="round" stroke-linejoin="round" d="M19.7,30.9
				c1.3,0.7,2.9,0.7,4.2,0"/>
		</g>
		<path fill="#A57939" d="M63,38.5c0.2-0.1,4-3.2,1.6-6.8c-0.3-0.7-1.7-4.7-2-5.4c-1.2-2.6-1.6-3.5-1.9-8.3c0-2.9-2.2-5.3-5.1-5.6
			c-0.2,0-0.4-0.1-0.5-0.3c-0.1-0.1-1.9-2.1-5.7-2.1c-4.9,0-9,2.7-10.1,6.5c-0.4,1.6-0.6,3.2-0.4,4.9c0.2,1.6,0,3.2-0.6,4.7
			c-0.2,0.6-0.5,1.2-0.9,1.6c-3,3.5-1.1,10.5-1.3,10.3C36.1,38.1,48.7,50.1,63,38.5z"/>
		<path fill="none" stroke="#000000" stroke-width="2" stroke-linecap="round" stroke-linejoin="round" d="M37.2,30.1
			c0.5-1.3,1.1-2.6,1.7-4c1.2-3.2-0.2-4.9,1-9.1c1.1-4.1,5.5-6.7,10.3-6.7c4.1,0,6,2.3,6,2.3c3.1,0.3,5.5,2.9,5.6,6
			c0.3,5.4,0.8,5.4,2.6,9.6c1.2,2.8,0.9,5.9-0.8,8.3"/>
		<path fill="none" stroke="#010101" stroke-width="2" stroke-linecap="round" stroke-linejoin="round" d="M56.9,12.6"/>
		
			<path fill="#92D3F5" stroke="#92D3F5" stroke-width="0.5" stroke-linecap="round" stroke-linejoin="round" stroke-miterlimit="10" d="
			M65.2,60.7H36l0.2-2.2l4.5-1.1v-6.9l-3.9-0.2l0.4-5.5c0-3.5,3.4-6.2,6.6-6.4c4.7,4,9.5,4,14.2,0c3.2,0.2,6.6,2.8,6.6,6.4
			L65.2,60.7z"/>
		<path fill="none" stroke="#010101" stroke-width="2" stroke-linecap="round" stroke-linejoin="round" d="M47.6,41.1
			c3.3,1.2,6.6,0.5,9.8-2.3c3.8,0,7.6,3,7.6,6.8V60"/>
		<path fill="#FCEA2B" stroke="#000000" stroke-width="2" stroke-miterlimit="10" d="M42.6,25.3c0,6,3.8,10.5,8.3,10.5
			s8.3-4.5,8.3-10.5c0-3.8-1.5-6-4.5-9c-3,3-12,6.8-12,8.3V25.3z"/>
		<path d="M55,25.2c0,0.8-0.6,1.4-1.4,1.4c-0.8,0-1.4-0.6-1.4-1.4c0-0.8,0.6-1.4,1.4-1.4C54.4,23.8,55,24.4,55,25.2"/>
		<path d="M49.4,25.2c0,0.8-0.6,1.4-1.4,1.4c-0.8,0-1.4-0.6-1.4-1.4c0-0.8,0.6-1.4,1.4-1.4C48.8,23.8,49.4,24.4,49.4,25.2"/>
		<path fill="none" stroke="#000000" stroke-width="2" stroke-linecap="round" stroke-linejoin="round" d="M48.7,30.9
			c1.3,0.7,2.9,0.7,4.2,0"/>
		<g>
			<ellipse fill="#FCEA2B" stroke="#000000" stroke-width="2" stroke-miterlimit="10" cx="35.8" cy="43.5" rx="7.2" ry="8.5"/>
			<path fill="#010101" d="M38.9,44c0,0.6-0.5,1-1,1s-1-0.5-1-1s0.5-1,1-1S38.9,43.4,38.9,44"/>
			<path fill="#010101" d="M34.8,44c0,0.6-0.5,1-1,1s-1-0.5-1-1s0.5-1,1-1S34.8,43.4,34.8,44"/>
			<path fill="none" stroke="#010101" stroke-width="2" stroke-linecap="round" stroke-linejoin="round" d="M34.2,48.1
				c1,0.8,2.2,0.8,3.1,0"/>
			<path fill="#A57939" d="M33,39.3c0.5,4.1,5-1,5-1C38.7,40.2,43,43,43,43c1.2-1.2,0.6-3.4,0.4-4.2c-0.3-1.6-1.9-5.5-6.5-5
				c-0.2,0-0.9,0-1.2,0c-2.5-0.4-6.7-0.2-7.9,5.6c-0.6,2.8,0.7,3.6,0.7,3.6S32.7,36.9,33,39.3z"/>
			<path fill="none" stroke="#010101" stroke-width="2" stroke-linecap="round" stroke-linejoin="round" d="M33,39.3
				c0.5,4.1,5-1,5-1C38.7,40.2,43,43,43,43c1.2-1.2,0.6-3.4,0.4-4.2c-0.3-1.6-1.9-5.5-6.5-5c-0.2,0-0.9,0-1.2,0
				c-2.5-0.4-6.7-0.2-7.9,5.6c-0.6,2.8,0.7,3.6,0.7,3.6S32.7,36.9,33,39.3z"/>
		</g>
		<path fill="#B1CC33" d="M24.9,61v-1.3c0-3.2,2.9-5.7,5.8-5.7c3.5,3.2,6.9,3.2,10.4,0c2.9,0,5.8,2.5,5.8,5.7V61"/>
		<path fill="none" stroke="#000000" stroke-width="2" stroke-linecap="round" stroke-linejoin="round" d="M24.9,60v-1.1
			c0-2.7,2.9-4.9,5.8-4.9c3.5,2.7,6.9,2.7,10.4,0c2.9,0,5.8,2.2,5.8,4.9V60"/>
	</g>
</g>
</svg>
