<svg id="emoji" xmlns="http://www.w3.org/2000/svg" viewBox="0 0 72 72">
  
  <g id="color">
    <polyline fill="#5c9e31" points="13.8857,52.0966 10.8304,52.0966 10.8304,16.9138 19.8222,16.9138 36.3277,16.9138 
			52.0393,16.9138 60.7657,16.9138 60.7657,52.0966 56.6808,52.0966 		" stroke="none"></polyline>
    <path fill="#6a462f" d="M53.8795,58.9993c0,0,2.7-14.1375-9.3-14.1375c-3.1919,2.1192-5.9264,3.5837-9,3.5775h0.125
			c-3.0736,0.0062-5.8082-1.4583-9-3.5775c-12,0-10,14.1375-10,14.1375" stroke="none"></path>
    <path fill="#a57939" d="M50.5004,21.3145c1.11,4.55-2.78,7.44-2.78,7.44l-0.43-0.01c0-0.07,0-0.14,0-0.21
				c0-1.16-0.11-2.29-0.32-3.36c-0.21-1.07-0.51-2.08-0.89-3.03v-0.01c0.49-0.04,0.99-0.09,1.51-0.14L50.5004,21.3145z" stroke="none"></path>
    <path fill="#a57939" d="M50.5004,21.3145l-2.91,0.68c-0.52,0.05-1.02,0.1-1.51,0.14c-11.23,1-15.76-0.99-17.81-3.15
				c-0.98-1.02-1.39-2.09-1.7-2.89c-0.15-0.4-0.23-0.84-0.23-1.26c-0.01-0.72,0.21-1.43,0.64-2.03c2.27-2.89,10.52-4.04,16-0.09
				C47.8604,15.9345,49.9104,18.8645,50.5004,21.3145z" stroke="none"></path>
    <path fill="#a57939" d="M24.6104,28.6645c-0.03,0.03-0.06,0.06-0.09,0.09c-0.73,1.8-5.14-7.02,1.36-13.91l0.46-0.01
				c0,0.42,0.08,0.86,0.23,1.26c0.31,0.8,0.72,1.87,1.7,2.89l-0.1,0.1C28.1704,19.0845,27.4604,25.8845,24.6104,28.6645z" stroke="none"></path>
    <polygon fill="#3F3F3F" points="44.5804,45.3645 47.1504,54.4045 41.5304,54.1645 41.6204,58.9545 35.7404,57.3545 
				35.8304,57.3245 35.7404,57.1945 			" stroke="none"></polygon>
    <path fill="#d0cfce" d="M44.4804,45.2145l0.1,0.15l-8.84,11.83l-8.85-11.83l0.16-0.24c3.08,2.05,5.75,3.46,8.72,3.49
				c0.01,0,0.02,0,0.03,0h0.09C38.8204,48.5845,41.4504,47.2145,44.4804,45.2145z" stroke="none"></path>
    <polygon fill="#3F3F3F" points="35.7404,57.1945 35.6404,57.3245 35.7404,57.3545 29.8504,58.9545 29.9404,54.1645 
				24.3204,54.4045 26.8904,45.3645 			" stroke="none"></polygon>
  </g>
  <g id="hair">
  </g>
  <g id="skin">
    <path fill="#fcea2b" d="M47.169,28.5368c0-2.2835-0.432-4.4408-1.1994-6.3513c-7.4505,0.6891-15.8386-0.043-18.1301-3.704
			c-0.1611,3.4348-1.0463,6.4725-3.3477,10.0553c0,7.8276,5.0765,14.1732,11.3386,14.1732S47.169,36.3644,47.169,28.5368z" stroke="none"></path>
  </g>
  <g id="skin-shadow">
  </g>
  <g id="line">
    <path d="M60.7656,52.1963h-2.5849c-0.5528,0-1-0.4473-1-1s0.4472-1,1-1h1.5849V17.9136H11.8301v32.2827h2.0556
			c0.5528,0,1,0.4473,1,1s-0.4472,1-1,1h-3.0556c-0.5528,0-1-0.4473-1-1V16.9136c0-0.5523,0.4472-1,1-1h49.9355
			c0.5528,0,1,0.4477,1,1v34.2827C61.7656,51.749,61.3184,52.1963,60.7656,52.1963z" fill="#000000" stroke="none"></path>
    <path d="M41.953,27.171c0,1.1045-0.8965,2-2,2c-1.1035,0-2-0.8955-2-2c0-1.1035,0.8965-2,2-2
			C41.0565,25.171,41.953,26.0675,41.953,27.171" fill="#000000" stroke="none"></path>
    <path d="M33.953,27.171c0,1.1045-0.8965,2-2,2c-1.1035,0-2-0.8955-2-2c0-1.1035,0.8965-2,2-2
			C33.0565,25.171,33.953,26.0675,33.953,27.171" fill="#000000" stroke="none"></path>
    <path d="M35.9528,37.1734c-1.1518,0-2.3037-0.2861-3.4472-0.8579c-0.4942-0.2471-0.6944-0.8476-0.4473-1.3418
			c0.2466-0.4936,0.8462-0.6943,1.3418-0.4473c1.7178,0.8594,3.3877,0.8594,5.1055,0c0.4946-0.247,1.0947-0.0463,1.3418,0.4473
			c0.247,0.4942,0.0468,1.0947-0.4473,1.3418C38.2565,36.8873,37.1047,37.1734,35.9528,37.1734z" fill="#000000" stroke="none"></path>
    <path fill="none" stroke="#000000" stroke-width="2" stroke-linecap="round" stroke-linejoin="round" stroke-miterlimit="10" d="
			M27.4414,25.171"></path>
    <path d="M41.376,32.3584h-2.0069c-1.5478,0-2.8828-0.9258-3.4814-2.2529c-0.5986,1.3271-1.9336,2.2529-3.4814,2.2529h-2.0069
			c-2.1045,0-3.8164-1.7119-3.8164-3.8159v-1.2378h-0.6924c-0.5527,0-1-0.4478-1-1c0-0.5523,0.4473-1,1-1h1.6924
			c0.5527,0,1,0.4477,1,1v2.2378c0,1.0014,0.8145,1.8159,1.8164,1.8159h2.0069c1.0019,0,1.8164-0.8145,1.8164-1.8159v-1.104
			c0-0.5523,0.4472-1,1-1h1.33c0.5528,0,1,0.4477,1,1v1.104c0,1.0014,0.8145,1.8159,1.8164,1.8159h2.0069
			c1.0019,0,1.8164-0.8145,1.8164-1.8159v-2.2378c0-0.5523,0.4472-1,1-1h2.957c0.5527,0,1,0.4477,1,1c0,0.5522-0.4473,1-1,1h-1.957
			v1.2378C45.1924,30.6465,43.4805,32.3584,41.376,32.3584z" fill="#000000" stroke="none"></path>
    <path fill="none" stroke="#000000" stroke-width="2" stroke-linecap="round" stroke-linejoin="round" stroke-miterlimit="10" d="
				M24.6104,28.5345c0,0.04,0,0.09,0,0.13c0.06,7.76,5.11,14.04,11.34,14.04c6.2,0,11.25-6.24,11.34-13.96c0-0.07,0-0.14,0-0.21
				c0-1.16-0.11-2.29-0.32-3.36c-0.21-1.07-0.51-2.08-0.89-3.03"></path>
    <path fill="none" stroke="#000000" stroke-width="2" stroke-linecap="round" stroke-linejoin="round" stroke-miterlimit="10" d="
				M47.7204,28.7545c0,0,3.89-2.89,2.78-7.44c-0.59-2.45-2.64-5.38-7.52-8.6c-5.48-3.95-13.73-2.8-16,0.09
				c-0.43,0.6-0.65,1.31-0.64,2.03c0,0.42,0.08,0.86,0.23,1.26c0.31,0.8,0.72,1.87,1.7,2.89c2.05,2.16,6.58,4.15,17.81,3.15
				c0.49-0.04,0.99-0.09,1.51-0.14"></path>
    <path fill="none" stroke="#000000" stroke-width="2" stroke-linecap="round" stroke-linejoin="round" stroke-miterlimit="10" d="
				M25.8804,14.8445c-6.5,6.89-2.09,15.71-1.36,13.91c0.03-0.03,0.06-0.06,0.09-0.09c2.85-2.78,3.56-9.58,3.56-9.58"></path>
    <path fill="none" stroke="#000000" stroke-width="2" stroke-linecap="round" stroke-linejoin="round" stroke-miterlimit="10" d="
				M16.8904,58.0245c0,0-2-13,10-13c0.05,0.04,0.11,0.07,0.16,0.1c3.08,2.05,5.75,3.46,8.72,3.49c0.01,0,0.02,0,0.03,0h0.09
				c2.93-0.03,5.56-1.4,8.59-3.4c0.1-0.06,0.19-0.12,0.29-0.19c3.99,0,6.43,1.44,7.92,3.36l0.78,1.26"></path>
    <polygon fill="none" stroke="#000000" stroke-width="2" stroke-linecap="round" stroke-linejoin="round" stroke-miterlimit="10" points="
				35.7404,57.1945 35.8304,57.3245 35.7404,57.3545 29.8504,58.9545 29.9404,54.1645 24.3204,54.4045 26.8904,45.3645 			"></polygon>
    <polygon fill="none" stroke="#000000" stroke-width="2" stroke-linecap="round" stroke-linejoin="round" stroke-miterlimit="10" points="
				35.7404,57.1945 35.6404,57.3245 35.7404,57.3545 41.6204,58.9545 41.5304,54.1645 47.1504,54.4045 44.5804,45.3645 			"></polygon>
    <path d="M53.0441,58.7525c-0.5096,0-0.9023-0.4491-0.8345-0.9541l3.3718-26.5033L54.1676,57.967
			C54.1379,58.4091,53.4872,58.7525,53.0441,58.7525L53.0441,58.7525z" fill="#000000" stroke="none"></path>
    <path d="M53.0439,59.5029c-0.4599,0-0.8964-0.1982-1.1982-0.5439c-0.3027-0.3467-0.4404-0.8057-0.3789-1.2608l3.3701-26.498
			c0.0508-0.3994,0.3975-0.6895,0.8115-0.6523c0.4014,0.0361,0.7032,0.3837,0.6817,0.7871L54.917,58.0068
			C54.8506,58.9746,53.7676,59.5029,53.0439,59.5029z M53.7539,51.6025l-0.7998,6.2911l0.0898,0.1093
			c0.1153,0,0.3028-0.0859,0.379-0.1572L53.7539,51.6025z" fill="#000000" stroke="none"></path>
  </g>
</svg>