<?xml version="1.0" encoding="utf-8"?>
<!-- Generator: Adobe Illustrator 21.1.0, SVG Export Plug-In . SVG Version: 6.00 Build 0)  -->
<svg version="1.1" id="emoji" xmlns="http://www.w3.org/2000/svg" xmlns:xlink="http://www.w3.org/1999/xlink" x="0px" y="0px"
	 viewBox="0 0 72 72" enable-background="new 0 0 72 72" xml:space="preserve">
<g id="_xD83D__xDC69__x200D__x2696__xFE0F__1_">
	<path fill="#69462E" d="M29.9,21c-0.1,1.8-1.7,3.2-3.5,3.2c-1,0-2.4,0.1-3-0.7c-0.4-0.6-0.7-1-0.3-2.6c0.4-1.6,1.2-3.2,2.8-3.5
		C28.1,17.1,30,18.9,29.9,21z"/>
	
		<path fill="#69462E" stroke="#000000" stroke-width="2" stroke-linecap="round" stroke-linejoin="round" stroke-miterlimit="10" d="
		M37.8,11.7c0-2.8-2.2-5-5-5s-5,2.2-5,5c0,0.9,0.3,1.2,0.7,2"/>
	<path fill="#3F3F3F" d="M16.9,58.8c0,0-1.9-14.9,10.1-14.9c3.2,2.1,5.1,3.6,8.9,3.6c3.7,0,5.8-1.6,9-3.8c14,0,10.5,15,10.8,15.1"/>
	<path fill="#FFFFFF" d="M45,44.4l-3.9,6l-2.6,4.5c-1.2,2.1-4.2,2.1-5.4,0l-2.6-4.5l-3.5-6C33.1,49.7,39.1,49.7,45,44.4z"/>
	<path fill="#FCEA2C" d="M48.1,28.5c0-8.4-5.4-15.2-12.1-15.2c-6.7,0-12.1,6.8-12.1,15.2c0,1.3,0.8,2.5,1,3.6
		c0.1,0.7-0.4,1.4-0.1,2.1C26.6,39.5,30.9,43,36,43C42.7,43,48.1,36.9,48.1,28.5z"/>
	<path fill="#000100" d="M42,27c0,1.1-0.9,2-2,2c-1.1,0-2-0.9-2-2c0-1.1,0.9-2,2-2C41.1,25,42,25.9,42,27"/>
	<path fill="#000100" d="M34,27c0,1.1-0.9,2-2,2c-1.1,0-2-0.9-2-2c0-1.1,0.9-2,2-2C33.1,25,34,25.9,34,27"/>
	<path fill="#000100" d="M36,37c-1.2,0-2.3-0.3-3.4-0.9c-0.5-0.2-0.7-0.8-0.4-1.3c0.2-0.5,0.8-0.7,1.3-0.4c1.7,0.9,3.4,0.9,5.1,0
		c0.5-0.2,1.1,0,1.3,0.4c0.2,0.5,0,1.1-0.4,1.3C38.3,36.7,37.1,37,36,37z"/>
	<path fill="none" stroke="#000000" stroke-width="2" stroke-linecap="round" stroke-linejoin="round" stroke-miterlimit="10" d="
		M47,24.7c0.2,1.1,0.4,2.4,0.4,3.6c0,7.8-5.1,14.2-11.3,14.2c-3.6,0-6.7-2.1-8.8-5.3"/>
	<path fill="none" stroke="#000000" stroke-width="2" stroke-linecap="round" stroke-linejoin="round" stroke-miterlimit="10" d="
		M17,57.8c0,0-2-13,10-13c3.2,2.1,5.9,3.6,9,3.6h-0.1c3.1,0,5.8-1.5,9-3.6c0,0-6.8,11.5-9.1,12.1c-2.2,0.6-8.8-12.1-8.8-12.1"/>
	<g>
		<g id="XMLID_60_">
			<g>
				<path fill="#A37838" d="M64.4,41.2c1.5,0.7,2.2,2.6,1.4,4.1l-1.6,3.4c-0.7,1.5-2.6,2.2-4.1,1.4l-2-1.7l0.4-0.4l3.4-7l0-0.2
					L64.4,41.2z"/>
				<polygon fill="#F0B41A" points="61.8,40.7 61.8,40.9 58.4,48 58,48.4 57.5,47.9 57.5,47.9 53.8,46.2 53.8,46.2 52.8,46 53,45.3 
					56.4,38.3 56.5,38.1 57.4,38.8 61,40.5 				"/>
				<path fill="#A37838" d="M57.5,47.9L57.5,47.9L57.5,47.9l-5.5,11.5c-0.4,0.9-1.5,1.5-2.4,1.2c-1.2-0.4-1.8-1.7-1.3-2.8l5.5-11.5
					l0-0.1h0L57.5,47.9z"/>
				<path fill="#A37838" d="M54.6,36.5l1.9,1.6l-0.2,0.2l-3.4,7L52.8,46l-2.5-0.5c-1.5-0.7-2.2-2.6-1.4-4.1l1.6-3.4
					C51.3,36.4,53.1,35.8,54.6,36.5z"/>
			</g>
			<g>
				
					<path fill="none" stroke="#000000" stroke-width="2" stroke-linecap="round" stroke-linejoin="round" stroke-miterlimit="10" d="
					M57.4,48l-5.5,11.4c-0.4,0.9-1.5,1.5-2.4,1.2c-1.2-0.4-1.8-1.7-1.3-2.8l5.5-11.5"/>
				
					<path fill="none" stroke="#000000" stroke-width="2" stroke-linecap="round" stroke-linejoin="round" stroke-miterlimit="10" d="
					M56.5,38.1l-1.9-1.6c-1.5-0.7-3.4-0.1-4.1,1.4l-1.6,3.4c-0.7,1.5-0.1,3.4,1.4,4.1l2.5,0.5l1,0.2h0l3.7,1.8l0,0l0.5,0.5l2,1.7
					c1.5,0.7,3.4,0.1,4.1-1.4l1.6-3.4c0.7-1.5,0.1-3.4-1.4-4.1l-2.5-0.5L61,40.5l-3.6-1.8L56.5,38.1z"/>
				
					<line fill="none" stroke="#000000" stroke-width="2" stroke-linecap="round" stroke-linejoin="round" stroke-miterlimit="10" x1="61.8" y1="40.9" x2="58.4" y2="48"/>
				
					<line fill="none" stroke="#000000" stroke-width="2" stroke-linecap="round" stroke-linejoin="round" stroke-miterlimit="10" x1="53" y1="45.3" x2="56.4" y2="38.3"/>
			</g>
		</g>
	</g>
	<path fill="none" stroke="#000000" stroke-width="2" stroke-linecap="round" stroke-linejoin="round" stroke-miterlimit="10" d="
		M27.4,58.7"/>
	
		<polyline fill="none" stroke="#000000" stroke-width="2" stroke-linecap="round" stroke-linejoin="round" stroke-miterlimit="10" points="
		32.2,53.4 35.9,48.4 39.3,53.2 	"/>
	
		<path fill="#69462E" stroke="#000000" stroke-width="2" stroke-linecap="round" stroke-linejoin="round" stroke-miterlimit="10" d="
		M25,23.9c0,0,0.5-0.1,1.4-0.3c1.8-0.5,5-1.8,8.5-4.7c0,0,3.4,5,11.6,6c4.3,0.5,0.4-14.3-11.2-13c-7.5,0.9-10.4,4.8-11,8.1"/>
	<path fill="none" stroke="#69462E" stroke-width="2" stroke-linecap="round" stroke-linejoin="round" stroke-miterlimit="10" d="
		M25.6,21.6c-1.8,1.3-7.4,6.5-2.3,8.6c3.6,1.5,2.4,2.3,1.2,3.2"/>
	<path fill="none" stroke="#000000" stroke-width="2" stroke-linecap="round" stroke-linejoin="round" stroke-miterlimit="10" d="
		M24.9,34.2c2,0.3,4.2-3.3,0.6-4.6C20,27.7,25.9,24,25.9,24l0.5-0.3"/>
</g>
</svg>
