<svg version="1.1" id="emoji" xmlns="http://www.w3.org/2000/svg" x="0" y="0" viewBox="0 0 72 72" enable-background="new 0 0 72 72" xml:space="preserve">
  <g id="color"/>
  <g id="skin">
    <g id="skin-b">
      <path fill="#fadcbc" d="M55.0182,41.7563l-0.792-19.4393c-0.1147-2.2991-1.959-4.1095-4.209-4.1314h-6 c-2.25,0.0219-4.0944,1.8322-4.209,4.1314l-2.2979,19.4428c-0.0058,0.1301,0.1828,0.7293,0.1305,0.848l4.1998-2.5089 L40.9084,62.209c-0.0326,0.315,0.2646,0.6517,0.4568,0.9c0.0379,0.0484,0.0921,0.0805,0.152,0.09 c0.214,0,0.657-0.4277,0.736-1.1254l2.542-22.5343c0.0537-0.4621,0.1722-0.9139,0.352-1.3413l0.984-0.6231h1.625l0.7246,0.8052 c0.1537,0.3939,0.3534,0.7711,0.4028,1.1922l2.8986,22.5033c0.079,0.6988,0.521,1.1254,0.735,1.1254 c0.0599-0.0096,0.1141-0.0417,0.152-0.09c0.1924-0.2483,0.2821-0.5637,0.25-0.8789l-0.7136-22.1333l2.9336,2.0944 C55.0667,42.059,55.0253,41.9095,55.0182,41.7563z"/>
      <circle fill="#fadcbc" cx="46.9373" cy="10.68" r="2.969"/>
    </g>
    <g id="skin-a">
      <path fill="#a57939" d="M33.7219,41.3845l-1.9494-19.0066c-0.1146-2.2991-2.5058-4.1704-4.7553-4.1923h-5.9987 c-2.2495,0.0219-4.7874,1.8323-4.902,4.1314L14.513,41.7597c-0.0058,0.1301,0.8987,0.7873,0.8464,0.9059l2.4694-1.0398 l-0.2503,20.6536c-0.0326,0.315,0.5964,0.581,0.7885,0.8294c0.0379,0.0484,0.0921,0.0805,0.152,0.09 c0.2139,0,0.6569-0.4277,0.7358-1.1254l2.5414-22.5343c0.0537-0.4621,0.1722-0.9139,0.3519-1.3413l0.9838-0.6231h1.6246 l1.1778,0.7366c0.1537,0.3939,0.2566,0.8066,0.3059,1.2278L28.3,62.2185c0.079,0.6988,1.0025,0.9824,1.2164,0.9824 c0.0599-0.0096,0.114-0.0417,0.152-0.09c0.1923-0.2483,1.0395-0.5772,1.0074-0.8924l-0.2437-20.6514l3.6551,0.9138 C34.0149,42.3468,33.729,41.5376,33.7219,41.3845z"/>
      <circle fill="#a57939" cx="24.0334" cy="10.68" r="2.969"/>
    </g>
  </g>
  <g id="hair"/>
  <g id="skin-shadow"/>
  <g id="line">
    <circle fill="none" stroke="#000000" stroke-width="2" stroke-miterlimit="10" cx="46.9373" cy="10.68" r="2.969"/>
    <circle fill="none" stroke="#000000" stroke-width="2" stroke-miterlimit="10" cx="24.0405" cy="10.68" r="2.969"/>
    <path fill="none" stroke="#000000" stroke-width="2" stroke-linecap="round" stroke-linejoin="round" d="M51.9683,23.618l1.9,38 c0.055,1.1-0.575,2-1.4,2c-0.9765-0.1651-1.7004-0.997-1.729-1.987L48.2003,39.6c-0.126-1.093-0.679-1.987-1.229-1.987 s-1.1,0.894-1.229,1.987l-2.542,22.031c-0.0286,0.99-0.7525,1.8219-1.729,1.987c-0.825,0-1.455-0.9-1.4-2l1.9-38"/>
    <path fill="none" stroke="#000000" stroke-width="2" stroke-linecap="round" stroke-linejoin="round" d="M29,24 c-2.3523,3.5329-0.677,6.107-0.0317,8c0.4586,1.3452,0.7554,4.1995,0.8975,5.6136c0.6004,5.9762,1.0025,24.0044,1.0025,24.0044 c0.055,1.1-0.575,2-1.4,2c-0.9765-0.1651-1.7004-0.997-1.729-1.987L25.2003,39.6c-0.126-1.093-0.679-1.987-1.229-1.987 s-1.1,0.894-1.229,1.987l-2.542,22.031c-0.0286,0.99-0.7525,1.8219-1.729,1.987c-0.825,0-1.455-0.9-1.4-2 c0,0,0.5226-17.8415,1.0731-23.7627c0.1369-1.472,0.3706-4.4492,0.8269-5.8553c0.6173-1.9024,2.416-4.7392,0.0287-8"/>
    <path fill="none" stroke="#000000" stroke-width="2" stroke-linecap="round" stroke-linejoin="round" d="M37,42 c0,0,1.254-7.5666,1.478-10.1115c0.2033-2.3098,0.2823-9.2705,0.2823-9.2705c0.1444-2.7799,2.4245-4.9689,5.208-5h6 c2.7835,0.0311,5.0636,2.2201,5.208,5l0.792,19"/>
    <path fill="none" stroke="#000000" stroke-width="2" stroke-linecap="round" stroke-linejoin="round" d="M14.9683,42l0.792-19 c0.1444-2.7799,2.4245-4.9689,5.208-5h6c2.7835,0.0311,5.0636,2.2201,5.208,5c0,0-0.2643,6.9504-0.0511,9.2541 c0.2286,2.4706,2.1759,9.7669,2.1759,9.7669"/>
  </g>
</svg>
