<svg id="emoji" xmlns="http://www.w3.org/2000/svg" viewBox="0 0 72 72">
  <g id="color">
    <path d="M21.5512,61.0472v-1.1c0-2.6265,2.5843-4.7335,5.1613-4.7335q4.6451,3.9445,9.29,0c2.5775,0,5.1612,2.1069,5.1612,4.7335v1.1" fill="#b1cc33"/>
    <path d="M37.5534,55.311s-7.0213,2.3192-13.1507-.2485c-3.9758.2485-3.3132,5.8809-3.3132,5.8809l-9.1838.0474V47.84c0-2.9621,3.5064-5.5342,6.264-5.6586.9645.78,4.8279,1.4622,5.5235,2.617,2.2842,3.7921.9934,6.572,3.668,6.8012,7.7947,5.7314,10.24-4.3376,10.24-1.3755Z" fill="#92d3f5"/>
    <path d="M60.7766,61.1594v-1.1c0-2.6265-2.5842-4.7335-5.1612-4.7335q-4.6452,3.9445-9.29,0c-2.5776,0-5.1613,2.1069-5.1613,4.7335v1.1" fill="#b1cc33"/>
  </g>
  <g id="skin">
    <ellipse cx="31.4398" cy="46.5058" rx="6.4885" ry="7.031" fill="#fcea2b"/>
    <path d="M23.0176,19.2572c4.4577,0,8.0714,4.6184,8.0714,10.3155s-3.6137,10.3155-8.0714,10.3155c-3.9,0-5.3855-4.1986-7.9072-8.236-.5594-.8955-.1641-1.3672-.1641-2.0795C14.9463,23.8756,18.56,19.2572,23.0176,19.2572Z" fill="#fcea2b"/>
    <ellipse cx="50.8881" cy="46.618" rx="6.4885" ry="7.031" fill="#fcea2b"/>
  </g>
  <g id="hair">
    <path d="M29.0028,43.0831c.4694,3.3631,4.487-.8707,4.487-.8707.549,1.5737,4.4254,3.8674,4.4254,3.8674,1.0324-.9557.5259-2.8525.3721-3.5135a5.1206,5.1206,0,0,0-5.8079-4.1141,6.4677,6.4677,0,0,1-1.0324,0c-2.2709-.3369-6.03-.1484-7.12,4.6433-.5317,2.3382.624,2.9843.624,2.9843S28.715,41.0208,29.0028,43.0831Z" fill="#a57939"/>
    <path d="M12.8407,24.7588c.5981-7.9646,6.7385-8.05,9.826-7.5647a8.2942,8.2942,0,0,0,1.4037,0c5.6148-.6877,8.4223,5.5015,8.4223,8.2524,0,.973,0,3.4384-1.4037,4.8138,0,0-3.2145-3.8124-3.3619-6.0324,0,0-10.6752,3.9692-11.3771.5308.0336.0028-1.7275,3.7247-1.4037,6.1892A9.5011,9.5011,0,0,1,12.8407,24.7588Z" fill="#a57939"/>
    <path d="M53.325,43.1953c-.4693,3.3631-4.4869-.8707-4.4869-.8707-.5491,1.5737-4.4254,3.8675-4.4254,3.8675-1.0324-.9558-.5259-2.8526-.3721-3.5136a5.1206,5.1206,0,0,1,5.8079-4.1141,6.4443,6.4443,0,0,0,1.0324,0c2.2709-.3369,6.03-.1484,7.12,4.6433.5317,2.3382-.624,2.9844-.624,2.9844S53.6128,41.133,53.325,43.1953Z" fill="#a57939"/>
  </g>
  <g id="line">
    <g>
      <path d="M31.089,29.5727c0,5.6971-3.6137,10.3155-8.0714,10.3155S14.72,35.2274,14.72,29.53" fill="none" stroke="#000" stroke-miterlimit="10" stroke-width="2"/>
      <path d="M12.8407,24.7588c.5981-7.9646,6.7385-8.05,9.826-7.5647a8.2942,8.2942,0,0,0,1.4037,0c5.6148-.6877,8.4223,5.5015,8.4223,8.2524,0,.973,0,3.4384-1.4037,4.8138,0,0-3.2145-3.8124-3.3619-6.0324,0,0-10.6752,3.9692-11.3771.5308,0,0-2.4,1.7757-1.43,6.52A14.0688,14.0688,0,0,1,12.8407,24.7588Z" fill="none" stroke="#000" stroke-linecap="round" stroke-linejoin="round" stroke-width="2"/>
      <path d="M26.5767,30.1726a1.3014,1.3014,0,1,1-1.3011-1.2749,1.2882,1.2882,0,0,1,1.3011,1.2749"/>
      <path d="M21.7666,30.2226a1.3014,1.3014,0,1,1-1.3011-1.2748,1.2882,1.2882,0,0,1,1.3011,1.2748"/>
      <path d="M21.116,35.4815a4.2233,4.2233,0,0,0,3.9035,0" fill="none" stroke="#000" stroke-linecap="round" stroke-linejoin="round" stroke-width="1.6"/>
    </g>
    <path d="M11.6223,60.2555V48.332c0-3.13,3.1377-5.64,6.2667-5.64a11.367,11.367,0,0,0,5.2916,1.8071" fill="none" stroke="#000" stroke-linecap="round" stroke-linejoin="round" stroke-width="2"/>
    <g>
      <path d="M37.7982,46.08q.0117.2114.0118.426a6.7763,6.7763,0,0,1-6.4886,7.0311,6.7762,6.7762,0,0,1-6.4885-7.0311q0-.1428.0052-.2841" fill="none" stroke="#000" stroke-miterlimit="10" stroke-width="1.6"/>
      <path d="M34.1736,46.9488a.9414.9414,0,1,1-.9386-.869.9057.9057,0,0,1,.9386.869"/>
      <path d="M30.4189,46.9488a.9415.9415,0,1,1-.9387-.869.9058.9058,0,0,1,.9387.869"/>
      <path d="M29.95,50.3316a2.2231,2.2231,0,0,0,2.816,0" fill="none" stroke="#000" stroke-linecap="round" stroke-linejoin="round" stroke-width="1.6"/>
      <path d="M28.8844,43.0831c.4694,3.3631,4.487-.8707,4.487-.8707.549,1.5737,4.4254,3.8674,4.4254,3.8674,1.0324-.9557.5259-2.8525.3721-3.5135a5.1205,5.1205,0,0,0-5.8079-4.1141,6.4677,6.4677,0,0,1-1.0324,0,7.3442,7.3442,0,0,0-4.0029.3984,5.6149,5.6149,0,0,0-3.1169,4.2449c-.5317,2.3382.624,2.9843.624,2.9843S28.5966,41.0208,28.8844,43.0831Z" fill="none" stroke="#000" stroke-linecap="round" stroke-linejoin="round" stroke-width="1.6"/>
      <path d="M21.5512,60.2175v-.9437c0-2.253,2.5843-4.06,5.1613-4.06a7.2229,7.2229,0,0,0,9.29,0c2.5775,0,5.1612,1.8073,5.1612,4.06v.9437" fill="none" stroke="#000" stroke-linecap="round" stroke-linejoin="round" stroke-width="1.6"/>
    </g>
    <g>
      <g>
        <path d="M44.53,46.192q-.0117.2114-.0117.426a6.7761,6.7761,0,0,0,6.4885,7.0311A6.7762,6.7762,0,0,0,57.495,46.618q0-.1427-.0052-.2841" fill="none" stroke="#000" stroke-miterlimit="10" stroke-width="1.6"/>
        <path d="M48.1542,47.061a.9415.9415,0,1,0,.9387-.8689.9059.9059,0,0,0-.9387.8689Z"/>
        <path d="M51.909,47.061a.9414.9414,0,1,0,.9387-.8689.9059.9059,0,0,0-.9387.8689Z"/>
        <path d="M52.3783,50.4438a2.2231,2.2231,0,0,1-2.816,0" fill="none" stroke="#000" stroke-linecap="round" stroke-linejoin="round" stroke-width="1.6"/>
        <path d="M53.4434,43.1953c-.4693,3.3631-4.4869-.8707-4.4869-.8707-.5491,1.5737-4.4254,3.8675-4.4254,3.8675-1.0324-.9558-.526-2.8526-.3722-3.5136a5.1207,5.1207,0,0,1,5.8079-4.1141,6.4456,6.4456,0,0,0,1.0325,0c2.2709-.3369,6.03-.1484,7.12,4.6433.5316,2.3382-.624,2.9844-.624,2.9844S53.7312,41.133,53.4434,43.1953Z" fill="none" stroke="#000" stroke-linecap="round" stroke-linejoin="round" stroke-width="1.6"/>
      </g>
      <path d="M60.7766,60.33V59.386c0-2.253-2.5842-4.06-5.1612-4.06a7.2231,7.2231,0,0,1-9.29,0c-2.5776,0-5.1613,1.8072-5.1613,4.06V60.33" fill="none" stroke="#000" stroke-linecap="round" stroke-linejoin="round" stroke-width="1.6"/>
    </g>
  </g>
</svg>
