<?xml version="1.0" encoding="utf-8"?>
<!-- Generator: Adobe Illustrator 21.1.0, SVG Export Plug-In . SVG Version: 6.00 Build 0)  -->
<svg version="1.1" id="emoji" xmlns="http://www.w3.org/2000/svg" xmlns:xlink="http://www.w3.org/1999/xlink" x="0px" y="0px"
	 viewBox="0 0 72 72" enable-background="new 0 0 72 72" xml:space="preserve">
<g id="_xD83D__xDC69__x200D__xD83C__xDF93__1_">
	<path fill="#F4AA42" d="M45.5,20.2c2.2,3.1,9.5,13,7.5,21.5c-2.1,8.7-17,15.5-17,15.5S21.6,51.9,19,41.7
		c-2.2-8.5,5.4-18.4,7.6-21.5"/>
	<path fill="#FCEA2C" d="M47.1,28.9c0-7.8-5.1-14.2-11.3-14.2c-5.9,0-10.7,5.6-11.3,12.8c0,0.5-0.1,0.9-0.1,1.4
		c0,7.8,5.1,14.2,11.3,14.2C42.1,43.1,47.1,36.7,47.1,28.9z"/>
	<path fill="#3F3F3F" d="M54.8,58.9c0,0,2-14-10-14c-3.2,2.1-5.9,3.6-9,3.6H36c-3.1,0-5.8-1.5-9-3.6c-12,0-10,14-10,14"/>
	<path d="M41.9,27.1c0,1.1-0.9,2-2,2s-2-0.9-2-2c0-1.1,0.9-2,2-2S41.9,26,41.9,27.1"/>
	<path d="M33.9,27.1c0,1.1-0.9,2-2,2c-1.1,0-2-0.9-2-2c0-1.1,0.9-2,2-2C33,25.1,33.9,26,33.9,27.1"/>
	<path d="M35.9,37.1c-1.2,0-2.3-0.3-3.4-0.9C32,36,31.8,35.4,32,34.9c0.2-0.5,0.8-0.7,1.3-0.4c1.7,0.9,3.4,0.9,5.1,0
		c0.5-0.2,1.1,0,1.3,0.4c0.2,0.5,0,1.1-0.4,1.3C38.2,36.8,37.1,37.1,35.9,37.1z"/>
	<path fill="none" stroke="#000000" stroke-width="2" stroke-linecap="round" stroke-linejoin="round" stroke-miterlimit="10" d="
		M54.7,57.9c0,0,2-13-10-13c-3.2,2.1-5.9,3.6-9,3.6h0.1c-3.1,0-5.8-1.5-9-3.6c-12,0-10,13-10,13"/>
	
		<line fill="none" stroke="#000000" stroke-width="2" stroke-linecap="round" stroke-linejoin="round" stroke-miterlimit="10" x1="21.3" y1="12" x2="21.3" y2="20.1"/>
	
		<line fill="none" stroke="#000000" stroke-width="2" stroke-linecap="round" stroke-linejoin="round" stroke-miterlimit="10" x1="21.3" y1="20.1" x2="19.3" y2="22.7"/>
	
		<line fill="none" stroke="#000000" stroke-width="2" stroke-linecap="round" stroke-linejoin="round" stroke-miterlimit="10" x1="21.3" y1="20.1" x2="21.3" y2="24.2"/>
	<path fill="#F4AA42" d="M32.4,20.9l-5.9-1.1L22,29.1c0,0-0.3-0.3,2.9-1.4C28.1,26.5,32.4,20.9,32.4,20.9z"/>
	<path fill="#F4AA42" d="M39.4,20.9l5.9-1.1l4.4,9.2c0,0,0.3-0.3-2.9-1.4C43.6,26.5,39.4,20.9,39.4,20.9z"/>
	<path fill="none" stroke="#000000" stroke-width="2" stroke-linecap="round" stroke-linejoin="round" stroke-miterlimit="10" d="
		M20.3,43.1c-0.2-0.4-0.4-0.9-0.5-1.3c-2.9-8.3,4.5-18.4,6.7-21.5"/>
	<path fill="none" stroke="#000000" stroke-width="2" stroke-linecap="round" stroke-linejoin="round" stroke-miterlimit="10" d="
		M45.4,20.2c2.2,3.1,9.6,13.2,6.7,21.5c-0.2,0.4-0.3,0.9-0.5,1.3"/>
	<path fill="none" stroke="#000000" stroke-width="2" stroke-linecap="round" stroke-linejoin="round" stroke-miterlimit="10" d="
		M24.6,27.6c4.3-2.3,4.3-2.3,8.4-6.5"/>
	<path fill="none" stroke="#000000" stroke-width="2" stroke-linecap="round" stroke-linejoin="round" stroke-miterlimit="10" d="
		M47.2,27.6c0,0-4.3-2.3-8.4-6.5"/>
	<path fill="none" stroke="#000000" stroke-width="2" stroke-linecap="round" stroke-linejoin="round" stroke-miterlimit="10" d="
		M24.6,27.9c0,8.9,5.1,14.7,11.3,14.7s11.3-6.3,11.3-14.2c0-0.3,0-0.5,0-0.8"/>
	<g id="XMLID_9_">
		<g>
			<polygon fill="#9A9B99" points="45.1,12.3 35.8,13.2 26.7,12.3 21.3,11.8 35.2,9.2 50.3,11.8 			"/>
			<path fill="#3F3F3F" d="M45.1,12.3v8c0,0-6.7-0.3-9.2,2.6c-2.5-2.9-9.2-2.6-9.2-2.6v-8l9.1,0.9L45.1,12.3z"/>
		</g>
		<g>
			
				<polyline fill="none" stroke="#000000" stroke-width="2" stroke-linecap="round" stroke-linejoin="round" stroke-miterlimit="10" points="
				21.3,11.8 26.7,12.3 35.8,13.2 45.1,12.3 50.3,11.8 			"/>
			<path fill="none" stroke="#000000" stroke-width="2" stroke-linecap="round" stroke-linejoin="round" stroke-miterlimit="10" d="
				M26.7,11.8v0.5v8c0,0,6.7-0.3,9.2,2.6"/>
			<path fill="none" stroke="#000000" stroke-width="2" stroke-linecap="round" stroke-linejoin="round" stroke-miterlimit="10" d="
				M45.1,11.8v0.5v8c0,0-6.7-0.3-9.2,2.6"/>
			
				<polyline fill="none" stroke="#000000" stroke-width="2" stroke-linecap="round" stroke-linejoin="round" stroke-miterlimit="10" points="
				50.3,11.8 35.2,9.2 21.3,11.8 			"/>
		</g>
	</g>
	<path fill="none" stroke="#FFFFFF" stroke-width="2" stroke-linecap="round" stroke-miterlimit="10" d="M44.7,46.9
		c-3.2,2.1-5.9,3.6-9,3.6h0.1c-3.1,0-5.8-1.5-9-3.6"/>
</g>
</svg>
