<?xml version="1.0" encoding="utf-8"?>
<!-- Generator: Adobe Illustrator 21.1.0, SVG Export Plug-In . SVG Version: 6.00 Build 0)  -->
<svg version="1.1" id="Ebene_3" xmlns="http://www.w3.org/2000/svg" xmlns:xlink="http://www.w3.org/1999/xlink" x="0px" y="0px"
	 viewBox="0 0 72 72" enable-background="new 0 0 72 72" xml:space="preserve">
<g id="_xD83D__xDC61_">
	<polyline fill="#6A462F" points="10.3,30.5 10.3,59 19.7,59 22.4,36.7 	"/>
	
		<polyline fill="#6A462F" stroke="#1D1D1B" stroke-width="2" stroke-linecap="round" stroke-linejoin="round" stroke-miterlimit="10" points="
		11.2,34.5 11.2,59 19,59 21,40.5 	"/>
	<path fill="#6A462F" d="M59.1,52.3c2.8,0,5.9-0.2,8.4-1.2c0.7,6.5-0.6,8.3-4,9.7c-5.7,2.5-19.6,1.3-23.3-1.5
		c-4.6-3.4-2.6-4-10.3-14.7c-6.2-8.5-18.7-13.9-18.7-13.9V25c0,0,20.7,6.7,25,17.8c0.8,2.1,2.8,3.4,4.3,4.9
		C40.4,47.8,47.7,52.1,59.1,52.3z"/>
	<path fill="none" stroke="#1D1D1B" stroke-width="2" stroke-linecap="round" stroke-linejoin="round" stroke-miterlimit="10" d="
		M59.5,53.2c2.8-0.4,5.5-1.1,8-2c0.7,6.5-0.6,8.3-4,9.7c-5.7,2.5-19.6,1.3-23.3-1.5c-4.6-3.4-2.6-4-10.3-14.7
		c-6.2-8.5-18.7-13.9-18.7-13.9V25c0,0,20.7,6.7,25,17.8c0.8,2.1,2,3.9,3.5,5.3"/>
	<polyline fill="#A57939" points="41.3,57.6 45.4,36.7 58.1,39.3 55.4,60.3 	"/>
	
		<polyline fill="none" stroke="#1D1D1B" stroke-width="2" stroke-linecap="round" stroke-linejoin="round" stroke-miterlimit="10" points="
		41.8,56.8 45.4,36.7 58.1,39.3 55.5,59.3 	"/>
	
		<path fill="#6A462F" stroke="#1D1D1B" stroke-width="2" stroke-linecap="round" stroke-linejoin="round" stroke-miterlimit="10" d="
		M50.8,52.6"/>
</g>
</svg>
