<?xml version="1.0" encoding="utf-8"?>
<!-- Generator: Adobe Illustrator 21.1.0, SVG Export Plug-In . SVG Version: 6.00 Build 0)  -->
<svg version="1.1" id="emoji" xmlns="http://www.w3.org/2000/svg" xmlns:xlink="http://www.w3.org/1999/xlink" x="0px" y="0px"
	 viewBox="0 0 72 72" enable-background="new 0 0 72 72" xml:space="preserve">
<g id="_xD83D__xDC69__x200D__xD83D__xDD2C__1_">
	
		<line fill="none" stroke="#000000" stroke-width="2" stroke-linecap="round" stroke-linejoin="round" stroke-miterlimit="10" x1="33" y1="54.9" x2="33" y2="56.7"/>
	<path fill="#E27023" d="M52.2,25.2c-0.8-6-2.8-10.7-5.1-12.7c-2.9-2.6-6.5-0.5-6.5-0.5s-5.3-6.5-12.9-1.7
		c-7.6,4.8-8.4,14.9-8.4,14.9s-0.7,8.1,0.3,16.5c0.2,2,0.8,4,1.7,5.7c6.9,13.2,26.7,7.8,30.6-5c0.3-1.1,0.4-2.2,0.5-3.3
		C52.4,35.9,52.5,28.1,52.2,25.2z"/>
	<path fill="#FCEA2C" d="M47.6,27.9c-3.3-4.9-4.4-5.8-8.7-9.5c-11,8.2-14,1.7-14,9.5c0,7.8,5.1,14.2,11.3,14.2
		C42.6,42.1,47.6,35.8,47.6,27.9z"/>
	<path fill="#FFFFFF" d="M16.4,58.8c0,0-2-13.5,10-13.5c3.2,2.1,5.9,3.6,9,3.6h-0.1c3.1,0,5.5-2.2,8.7-4.3
		c15.6,0,10.7,14.2,10.7,14.2"/>
	<path fill="#CFCFCE" d="M45.3,44.1c-3.2,2.1-3.1,3.7-7.1,4.3c13.1,0.4,13.1,5.4,13.8,9.4c4.2,0,5.1,0,5.1,0S57.3,44.1,45.3,44.1z"
		/>
	<g>
		<path fill="#FFFFFF" d="M58.4,43.2h-1.2v6.5l3.9,8.8c0,0,0.3,1.4-0.8,1.4c-0.5,0-9.8,0-10.4,0c-1.1,0-0.8-1.4-0.8-1.4l3.9-8.8
			v-6.5h-1.1"/>
		<line fill="#8767A9" x1="53" y1="43.2" x2="57.2" y2="43.2"/>
	</g>
	<path fill="#B0CB34" d="M57,49.6l3.9,8.8c0,0,0.3,1.4-0.8,1.4c-0.5,0-9.8,0-10.4,0c-1.1,0-0.8-1.4-0.8-1.4l3.9-8.8"/>
	<path fill="#90D2F4" d="M22.8,25.2c0,0,12.7-7,26.2,0.8l-3.9,6c0,0-6.7,0.9-9.2-1.6C33.3,33,27.4,32,27.4,32L22.8,25.2z"/>
	<path d="M41.9,27.1c0,1.1-0.9,2-2,2s-2-0.9-2-2c0-1.1,0.9-2,2-2S41.9,26,41.9,27.1"/>
	<path d="M33.9,27.1c0,1.1-0.9,2-2,2s-2-0.9-2-2c0-1.1,0.9-2,2-2S33.9,26,33.9,27.1"/>
	<path d="M35.9,37.1c-1.2,0-2.3-0.3-3.4-0.9C32,36,31.7,35.4,32,34.9c0.2-0.5,0.8-0.7,1.3-0.4c1.7,0.9,3.4,0.9,5.1,0
		c0.5-0.2,1.1,0,1.3,0.4c0.2,0.5,0,1.1-0.4,1.3C38.2,36.8,37,37.1,35.9,37.1z"/>
	<path fill="none" stroke="#000000" stroke-width="2" stroke-linecap="round" stroke-linejoin="round" stroke-miterlimit="10" d="
		M47.2,29.9c-0.6,7.2-5.4,12.7-11.3,12.7c-6.3,0-11.3-6.3-11.3-14.2v-1.3"/>
	<path fill="none" stroke="#000000" stroke-width="2" stroke-linecap="round" stroke-linejoin="round" stroke-miterlimit="10" d="
		M16.8,57.9c0,0-2-13,10-13c3.2,2.1,5.9,3.6,9,3.6h-0.1c3.1,0,5.8-1.5,9-3.6c1.9,0,3.4,0.3,4.7,0.9"/>
	<g>
		<path fill="none" stroke="#000000" stroke-width="2" stroke-linecap="round" stroke-linejoin="round" stroke-miterlimit="10" d="
			M58.3,43.1h-1.2v6.5l3.9,8.8c0,0,0.3,1.4-0.8,1.4c-0.5,0-9.8,0-10.4,0c-1.1,0-0.8-1.4-0.8-1.4l3.9-8.8v-6.5h-1.1"/>
		
			<line fill="none" stroke="#000000" stroke-width="2" stroke-linecap="round" stroke-linejoin="round" stroke-miterlimit="10" x1="52.9" y1="43.1" x2="57.1" y2="43.1"/>
	</g>
	<path fill="none" stroke="#000000" stroke-width="2" stroke-linecap="round" stroke-linejoin="round" stroke-miterlimit="10" d="
		M32.3,22.4c4.3-1.6,6.6-4,6.6-4s3.8,3.9,7.8,6.1"/>
	<path fill="none" stroke="#000000" stroke-width="2" stroke-linecap="round" stroke-linejoin="round" stroke-miterlimit="10" d="
		M20.7,42.7c-1.4-8.9-0.4-18.1-0.4-18.1s0.8-9.7,7.8-14.4s12.1,1.6,12.1,1.6s3.3-2,6,0.5c2.2,2,4.1,6.5,4.8,12.3
		c0.4,3.6,0.6,9.7,0.3,14.8"/>
	<path fill="none" stroke="#000000" stroke-width="2" stroke-linecap="round" stroke-linejoin="round" stroke-miterlimit="10" d="
		M26.3,44.9c0,0,4.8,7.1,11.1,7.7v5.3"/>
	
		<line fill="none" stroke="#000000" stroke-width="2" stroke-linecap="round" stroke-linejoin="round" stroke-miterlimit="10" x1="33" y1="56.1" x2="33" y2="57.9"/>
	<path fill="none" stroke="#000000" stroke-width="2" stroke-linecap="round" stroke-linejoin="round" stroke-miterlimit="10" d="
		M23.1,25.1c0,0,12.7-7,26.2,0.8l-3.9,6c0,0-6.7,0.9-9.2-1.6c-2.6,2.6-8.5,1.6-8.5,1.6L23.1,25.1z"/>
</g>
</svg>
