<svg id="emoji" xmlns="http://www.w3.org/2000/svg" viewBox="0 0 72 72">
  <g id="color">
    <path d="M21.2591,61.6231v-1.1c0-2.6266,2.5843-4.7335,5.1613-4.7335q4.645,3.9445,9.29,0c2.5775,0,5.1612,2.1069,5.1612,4.7335v1.1" fill="#b1cc33"/>
    <path d="M12.0848,47.3842c0-2.9337,2.8228-5.1484,5.4233-5.2724,3.8843,3.3056,7.9634,4.1147,11.8559.8091,2.6006.124,5.27,1.53,5.27,4.4633l.793,2.0341s.1266,2.2833.1266,6.105c-1.9131.7971-3.5494,1.6419-5.22,1.0465-4.0254-1.4348-5.97-1.1872-6.8551-.3986a4.2924,4.2924,0,0,0-2.7046,4.4836L11.4594,60.59Z" fill="#92d3f5" stroke="#92d3f5" stroke-linecap="round" stroke-linejoin="round" stroke-width="1.6"/>
    <path d="M60.3925,61.4838v-1.1c0-2.6266-2.5842-4.7335-5.1612-4.7335q-4.6452,3.9445-9.29,0c-2.5775,0-5.1612,2.1069-5.1612,4.7335v1.1" fill="#b1cc33"/>
  </g>
  <g id="skin">
    <ellipse cx="31.1186" cy="47.6341" rx="6.4885" ry="7.031" fill="#fcea2b"/>
    <path d="M31.0573,29.426v-.6682c0-1.3366-8.019-4.6778-10.6919-7.3508-2.673,2.6731-4.01,4.6778-4.01,8.019,0,5.3461,3.3412,9.3555,7.3508,9.3555s7.3507-4.01,7.3507-9.3555Z" fill="#fcea2b"/>
    <ellipse cx="50.5039" cy="47.2466" rx="6.4885" ry="7.031" fill="#fcea2b"/>
  </g>
  <g id="hair">
    <path d="M28.6816,44.2114c.4694,3.3631,4.487-.8707,4.487-.8707.5491,1.5737,4.4254,3.8674,4.4254,3.8674,1.0324-.9557.5259-2.8525.3721-3.5135A5.1206,5.1206,0,0,0,32.1582,39.58a6.4443,6.4443,0,0,1-1.0324,0c-2.2709-.3368-6.03-.1483-7.12,4.6434-.5317,2.3382.624,2.9843.624,2.9843S28.3939,42.1491,28.6816,44.2114Z" fill="#a57939"/>
    <path d="M35.64,31.5653a4.7588,4.7588,0,0,1-.7845-1.46,9.2965,9.2965,0,0,1-.5335-4.1691,12.9211,12.9211,0,0,0-.3954-4.3194c-.9128-3.3879-4.5872-5.7532-8.9338-5.7532A6.9069,6.9069,0,0,0,19.9145,17.72a.7015.7015,0,0,1-.4823.24,4.9465,4.9465,0,0,0-4.5394,4.9607c-.225,4.1648-.6043,5.0513-1.6073,7.2745-.0248.0549-.0465.1063-.067.163-.289.8-1.427,4.1447-1.7238,4.72-1.6067,2.3934-.0038,4.9039.9357,6.0137a2.3546,2.3546,0,0,0,1.3547.79c1.6813.32,3.1489-.1191,4.1828.1948,2.0284.6158,2.9992,1.9812,5.0746,2.0786a26.5356,26.5356,0,0,0,12.6054-2.8092A2.4019,2.4019,0,0,0,36.97,39.5291C37.2406,37.59,37.5259,33.7683,35.64,31.5653Zm-6.89,4.7038c-1.3386,3.0954-5.8144,2.1333-7.4876,2.1333s-2.05-1.7568-3.5974-3.8065-.9621-5.2706-.5438-7.7386a7.5062,7.5062,0,0,1,1.8824-3.5237,2.4025,2.4025,0,0,1,2.7169-.6143c3.234,1.3386,9.1643,5.858,9.3361,6.7067C31.2725,30.4888,30.0892,33.1737,28.7507,36.2691Z" fill="#a57939"/>
    <path d="M52.9409,43.8239c-.4694,3.363-4.487-.8707-4.487-.8707-.549,1.5737-4.4253,3.8674-4.4253,3.8674-1.0325-.9557-.526-2.8525-.3722-3.5135a5.1207,5.1207,0,0,1,5.8079-4.1142,6.4456,6.4456,0,0,0,1.0325,0c2.2709-.3368,6.03-.1483,7.12,4.6433.5317,2.3382-.6239,2.9844-.6239,2.9844S53.2287,41.7616,52.9409,43.8239Z" fill="#a57939"/>
  </g>
  <g id="line">
    <path d="M37.477,47.2081q.0117.2113.0118.426A6.7762,6.7762,0,0,1,31,54.6652a6.7762,6.7762,0,0,1-6.4885-7.0311q0-.1428.0052-.2841" fill="none" stroke="#000" stroke-miterlimit="10" stroke-width="1.6"/>
    <path d="M33.8525,48.0771a.9415.9415,0,1,1-.9387-.869.9058.9058,0,0,1,.9387.869"/>
    <path d="M30.0977,48.0771a.9415.9415,0,1,1-.9387-.869.9058.9058,0,0,1,.9387.869"/>
    <path d="M29.6284,51.46a2.2231,2.2231,0,0,0,2.816,0" fill="none" stroke="#000" stroke-linecap="round" stroke-linejoin="round" stroke-width="1.6"/>
    <path d="M28.5633,44.2114c.4693,3.3631,4.4869-.8707,4.4869-.8707.5491,1.5737,4.4254,3.8674,4.4254,3.8674,1.0324-.9557.5259-2.8525.3721-3.5135A5.1206,5.1206,0,0,0,32.04,39.58a6.4443,6.4443,0,0,1-1.0324,0c-2.2709-.3368-6.03-.1483-7.12,4.6434-.5317,2.3382.624,2.9843.624,2.9843S28.2755,42.1491,28.5633,44.2114Z" fill="none" stroke="#000" stroke-linecap="round" stroke-linejoin="round" stroke-width="1.6"/>
    <path d="M21.2591,60.7934V59.85c0-2.253,2.5843-4.06,5.1613-4.06a7.2231,7.2231,0,0,0,9.29,0c2.5775,0,5.1612,1.8073,5.1612,4.06v.9437" fill="none" stroke="#000" stroke-linecap="round" stroke-linejoin="round" stroke-width="1.6"/>
    <path d="M11.3487,60.6535v-12.76c0-3.3491,3.3572-6.0357,6.7064-6.0357a9.42,9.42,0,0,0,5.5719,2.4058" fill="none" stroke="#000" stroke-linecap="round" stroke-linejoin="round" stroke-width="2"/>
    <g>
      <path d="M12.4772,39.4117a7.7523,7.7523,0,0,1-.688-7.407c1.6071-3.789,2.0328-3.77,2.2914-8.5682a5.4342,5.4342,0,0,1,4.9484-5.3708,7.2356,7.2356,0,0,1,5.3459-2.0047c4.2982,0,8.1727,2.3162,9.161,5.9916,1.0024,3.7308-.23,5.2351.8627,8.0417.4654,1.1957,1.0586,2.35,1.47,3.54" fill="none" stroke="#000" stroke-linecap="round" stroke-linejoin="round" stroke-width="2"/>
      <path d="M31.0573,29.426v-.6682c0-1.3366-8.019-4.6778-10.6919-7.3508-2.673,2.6731-4.01,4.6778-4.01,8.019,0,5.3461,3.3412,9.3555,7.3508,9.3555s7.3507-4.01,7.3507-9.3555Z" fill="none" stroke="#000" stroke-miterlimit="10" stroke-width="1.6"/>
      <path d="M20.0325,29.3045a1.2388,1.2388,0,1,1,1.2388,1.2388,1.2388,1.2388,0,0,1-1.2388-1.2388"/>
      <path d="M24.9878,29.3045a1.2389,1.2389,0,1,1,1.2388,1.2388,1.2387,1.2387,0,0,1-1.2388-1.2388"/>
      <path d="M21.8907,34.4146a3.9489,3.9489,0,0,0,3.7165,0" fill="none" stroke="#000" stroke-linecap="round" stroke-linejoin="round" stroke-width="1.6"/>
    </g>
    <g>
      <g>
        <path d="M44.1455,46.8205q-.0117.2115-.0117.4261a6.7761,6.7761,0,0,0,6.4885,7.031,6.7762,6.7762,0,0,0,6.4886-7.031q0-.1428-.0052-.2841" fill="none" stroke="#000" stroke-miterlimit="10" stroke-width="1.6"/>
        <path d="M47.77,47.69a.9414.9414,0,1,0,.9386-.869.9057.9057,0,0,0-.9386.869Z"/>
        <path d="M51.5249,47.69a.9414.9414,0,1,0,.9386-.869.9057.9057,0,0,0-.9386.869Z"/>
        <path d="M51.9942,51.0724a2.2232,2.2232,0,0,1-2.8161,0" fill="none" stroke="#000" stroke-linecap="round" stroke-linejoin="round" stroke-width="1.6"/>
        <path d="M53.0593,43.8239c-.4694,3.363-4.487-.8707-4.487-.8707-.549,1.5737-4.4254,3.8674-4.4254,3.8674-1.0324-.9557-.5259-2.8525-.3721-3.5135a5.1207,5.1207,0,0,1,5.8079-4.1142,6.4443,6.4443,0,0,0,1.0324,0c2.271-.3368,6.03-.1483,7.12,4.6433.5317,2.3382-.624,2.9844-.624,2.9844S53.3471,41.7616,53.0593,43.8239Z" fill="none" stroke="#000" stroke-linecap="round" stroke-linejoin="round" stroke-width="1.6"/>
      </g>
      <path d="M60.3925,60.9583v-.9437c0-2.253-2.5842-4.06-5.1612-4.06a7.223,7.223,0,0,1-9.29,0c-2.5775,0-5.1612,1.8073-5.1612,4.06v.9437" fill="none" stroke="#000" stroke-linecap="round" stroke-linejoin="round" stroke-width="1.6"/>
    </g>
  </g>
</svg>
