<?xml version="1.0" encoding="utf-8"?>
<!-- Generator: Adobe Illustrator 21.1.0, SVG Export Plug-In . SVG Version: 6.00 Build 0)  -->
<svg version="1.1" id="emoji" xmlns="http://www.w3.org/2000/svg" xmlns:xlink="http://www.w3.org/1999/xlink" x="0px" y="0px"
	 viewBox="0 0 72 72" enable-background="new 0 0 72 72" xml:space="preserve">
<g id="_xD83D__xDC6B__1_">
	<path fill="#FDEB2D" d="M55,41.8l-0.8-19.4c-0.1-2.3-2-4.1-4.2-4.1h-6c-2.2,0-4.1,1.8-4.2,4.1l-2.3,19.4c0,0.1,0.2,0.7,0.1,0.8
		l4.2-2.5l-0.9,22.1c0,0.3,0.3,0.7,0.5,0.9c0,0,0.1,0.1,0.2,0.1c0.2,0,0.7-0.4,0.7-1.1l2.5-22.5c0.1-0.5,0.2-0.9,0.4-1.3l1-0.6h1.6
		l0.7,0.8c0.2,0.4,0.4,0.8,0.4,1.2l2.9,22.5c0.1,0.7,0.5,1.1,0.7,1.1c0.1,0,0.1,0,0.2-0.1c0.2-0.2,0.3-0.6,0.2-0.9l-0.7-22.1
		l2.9,2.1C55.1,42.1,55,41.9,55,41.8z"/>
	<path fill="#FDEB2D" d="M33.7,41.4l-1.9-19c-0.1-2.3-2.5-4.2-4.8-4.2h-6c-2.2,0-4.8,1.8-4.9,4.1l-1.6,19.4c0,0.1,0.9,0.8,0.8,0.9
		l2.5-1l-0.3,20.7c0,0.3,0.6,0.6,0.8,0.8c0,0,0.1,0.1,0.2,0.1c0.2,0,0.7-0.4,0.7-1.1l2.5-22.5c0.1-0.5,0.2-0.9,0.4-1.3l1-0.6h1.6
		l1.2,0.7c0.2,0.4,0.3,0.8,0.3,1.2l2.1,22.7c0.1,0.7,1,1,1.2,1c0.1,0,0.1,0,0.2-0.1c0.2-0.2,1-0.6,1-0.9l-0.2-20.7l3.7,0.9
		C34,42.3,33.7,41.5,33.7,41.4z"/>
	<circle fill="#FDEB2D" cx="46.9" cy="10.7" r="3"/>
	<circle fill="#FDEB2D" cx="24" cy="10.7" r="3"/>
	<circle fill="none" stroke="#000000" stroke-width="2" stroke-miterlimit="10" cx="46.9" cy="10.7" r="3"/>
	<circle fill="none" stroke="#000000" stroke-width="2" stroke-miterlimit="10" cx="24" cy="10.7" r="3"/>
	<path fill="none" stroke="#000000" stroke-width="2" stroke-linecap="round" stroke-linejoin="round" d="M52,23.6l1.9,38
		c0.1,1.1-0.6,2-1.4,2c-1-0.2-1.7-1-1.7-2l-2.5-22c-0.1-1.1-0.7-2-1.2-2s-1.1,0.9-1.2,2l-2.5,22c0,1-0.8,1.8-1.7,2
		c-0.8,0-1.5-0.9-1.4-2l1.9-38"/>
	<path fill="none" stroke="#000000" stroke-width="2" stroke-linecap="round" stroke-linejoin="round" d="M29,24
		c-2.4,3.5-0.7,6.1,0,8c0.5,1.3,0.8,4.2,0.9,5.6c0.6,6,1,24,1,24c0.1,1.1-0.6,2-1.4,2c-1-0.2-1.7-1-1.7-2l-2.5-22
		c-0.1-1.1-0.7-2-1.2-2s-1.1,0.9-1.2,2l-2.5,22c0,1-0.8,1.8-1.7,2c-0.8,0-1.5-0.9-1.4-2c0,0,0.5-17.8,1.1-23.8
		c0.1-1.5,0.4-4.4,0.8-5.9c0.6-1.9,2.4-4.7,0-8"/>
	<path fill="none" stroke="#000000" stroke-width="2" stroke-linecap="round" stroke-linejoin="round" d="M37,42
		c0,0,1.3-7.6,1.5-10.1c0.2-2.3,0.3-9.3,0.3-9.3c0.1-2.8,2.4-5,5.2-5h6c2.8,0,5.1,2.2,5.2,5l0.8,19"/>
	<path fill="none" stroke="#000000" stroke-width="2" stroke-linecap="round" stroke-linejoin="round" d="M15,42l0.8-19
		c0.1-2.8,2.4-5,5.2-5h6c2.8,0,5.1,2.2,5.2,5c0,0-0.3,7-0.1,9.3c0.2,2.5,2.2,9.8,2.2,9.8"/>
</g>
</svg>
