<svg id="emoji" xmlns="http://www.w3.org/2000/svg" viewBox="0 0 72 72">
  <g id="color">
    <rect x="23.4805" y="49.2423" width="24.773" height="8.8037" stroke-width="1.6" stroke="#92d3f5" stroke-linecap="round" stroke-linejoin="round" fill="#92d3f5"/>
    <path d="M31.7294,51.6956v5.8163l3.6363,1.2374v2.2558h-23.77V47.6638c0-3.005,3.35-5.6143,5.9847-5.7406,3.9476,3.3922,8.5687,2.2138,12.5332-.4882,2.643.1263,5.2524,3.0386,5.2524,6.0436v4.3938Z" fill="#92d3f5"/>
    <path d="M60.3339,60.2118H36.0054l.1249-1.7649,3.73-.9022V52.0761l-3.28-.15.308-4.3606c0-2.8095,2.8475-4.9305,5.4785-5.0492,3.9382,3.1656,7.918,3.1656,11.8479,0,2.631.1187,5.4868,2.24,5.4868,5.0492Z" fill="#92d3f5" stroke="#92d3f5" stroke-linecap="round" stroke-linejoin="round" stroke-width="1.6"/>
    <path d="M26.1936,61.1611v-1.1c0-2.6265,2.5843-4.7335,5.1613-4.7335q4.645,3.9445,9.29,0c2.5775,0,5.1613,2.1069,5.1613,4.7335v1.1" fill="#b1cc33"/>
  </g>
  <g id="skin">
    <path d="M38.7467,29.5205v-.6682c0-1.3366,8.019-4.6778,10.692-7.3508,2.6729,2.6731,4.0094,4.6778,4.0094,8.019,0,5.3461-3.3412,9.3555-7.3507,9.3555s-7.3508-4.0095-7.3508-9.3555Z" fill="#fcea2b"/>
    <path d="M23.0176,19.2572c4.4577,0,8.0714,4.6184,8.0714,10.3155s-3.6137,10.3155-8.0714,10.3155c-3.9,0-5.3855-4.1986-7.9072-8.236-.5594-.8955-.1641-1.3672-.1641-2.0795C14.9463,23.8756,18.56,19.2572,23.0176,19.2572Z" fill="#fcea2b"/>
    <ellipse cx="36.0822" cy="46.6197" rx="6.4885" ry="7.031" fill="#fcea2b"/>
  </g>
  <g id="hair">
    <path d="M58.5421,34.474c-.31-.59-1.52-4.16-1.75-4.79-1.03-2.29-1.42-3.15-1.65-7.36a4.9529,4.9529,0,0,0-4.54-4.97.66.66,0,0,1-.48-.24,6.9349,6.9349,0,0,0-5.08-1.85c-4.35,0-8.02,2.36-8.93,5.75a12.8548,12.8548,0,0,0-.4,4.32,9.3937,9.3937,0,0,1-.53,4.17,4.8117,4.8117,0,0,1-.79,1.46c-2.6,3.04-1.06,9.17-1.14,9.17a19.8039,19.8039,0,0,0,5.38,3.4c20.2711,3.1685,8.0507-3.7537,9.9007-4.4137-8.3474-.2443-9.5507-6.7463-9.5507-10.2963v-.67c0-1.33,8.02-4.68,10.69-7.35,2.67,2.67,4.01,4.68,4.01,8.02,0,3.47-3.6888,9.0622-5.7688,10.6822.62,2.1931,1.8583,1.5563,1.6385,4.536.75-.48,6.8-2.9082,7.57-3.5382C57.2821,40.414,60.6621,37.634,58.5421,34.474Z" fill="#a57939"/>
    <path d="M12.8407,24.7588c.5981-7.9646,6.7385-8.05,9.826-7.5647a8.2942,8.2942,0,0,0,1.4037,0c5.6148-.6877,8.4223,5.5015,8.4223,8.2524,0,.973,0,3.4384-1.4037,4.8138,0,0-3.2145-3.8124-3.3619-6.0324,0,0-10.6752,3.9692-11.3771.5308.0336.0028-1.7275,3.7247-1.4037,6.1892A9.5011,9.5011,0,0,1,12.8407,24.7588Z" fill="#a57939"/>
    <path d="M33.6452,43.197c.4694,3.3631,4.487-.8707,4.487-.8707.5491,1.5737,4.4254,3.8675,4.4254,3.8675,1.0324-.9558.5259-2.8526.3721-3.5136a5.1206,5.1206,0,0,0-5.8079-4.1141,6.4443,6.4443,0,0,1-1.0324,0c-2.2709-.3369-6.03-.1484-7.12,4.6433-.5317,2.3382.624,2.9844.624,2.9844S33.3574,41.1347,33.6452,43.197Z" fill="#a57939"/>
  </g>
  <g id="line">
    <path d="M57.3268,39.5062a7.7526,7.7526,0,0,0,.6881-7.407c-1.6072-3.789-2.0328-3.77-2.2915-8.5682A5.4341,5.4341,0,0,0,50.7751,18.16a7.236,7.236,0,0,0-5.346-2.0047c-4.2982,0-8.1726,2.3162-9.161,5.9916-1.0023,3.7308.23,5.2351-.8627,8.0417-.4653,1.1957-1.0585,2.35-1.47,3.5405" fill="none" stroke="#000" stroke-linecap="round" stroke-linejoin="round" stroke-width="2"/>
    <path d="M38.7467,29.5205v-.6682c0-1.3366,8.019-4.6778,10.692-7.3508,2.6729,2.6731,4.0094,4.6778,4.0094,8.019,0,5.3461-3.3412,9.3555-7.3507,9.3555s-7.3508-4.0095-7.3508-9.3555Z" fill="none" stroke="#000" stroke-miterlimit="10" stroke-width="1.6"/>
    <path d="M49.7716,29.399a1.2389,1.2389,0,1,0-1.2388,1.2388,1.2388,1.2388,0,0,0,1.2388-1.2388"/>
    <path d="M44.8162,29.399a1.2388,1.2388,0,1,0-1.2388,1.2388,1.2387,1.2387,0,0,0,1.2388-1.2388"/>
    <path d="M47.9133,34.5091a3.9489,3.9489,0,0,1-3.7165,0" fill="none" stroke="#000" stroke-linecap="round" stroke-linejoin="round" stroke-width="1.6"/>
    <path d="M11.5954,60.1633V48.0672c0-3.1749,3.1832-5.7217,6.3575-5.7217,2.6256,2.188,7.2741,3.7019,10.9887.4207" fill="none" stroke="#000" stroke-linecap="round" stroke-linejoin="round" stroke-width="2"/>
    <path d="M42.9,44.3757c2.7467,1.0105,8.33.393,11.0767-1.8726,3.162,0,6.3317,2.51,6.3317,5.64V60.0667" fill="none" stroke="#000" stroke-linecap="round" stroke-linejoin="round" stroke-width="2"/>
    <g>
      <path d="M31.089,29.5727c0,5.6971-3.6137,10.3155-8.0714,10.3155S14.72,35.2274,14.72,29.53" fill="none" stroke="#000" stroke-miterlimit="10" stroke-width="2"/>
      <path d="M12.8407,24.7588c.5981-7.9646,6.7385-8.05,9.826-7.5647a8.2942,8.2942,0,0,0,1.4037,0c5.6148-.6877,8.4223,5.5015,8.4223,8.2524,0,.973,0,3.4384-1.4037,4.8138,0,0-3.2145-3.8124-3.3619-6.0324,0,0-10.6752,3.9692-11.3771.5308,0,0-2.4,1.7757-1.43,6.52A14.0688,14.0688,0,0,1,12.8407,24.7588Z" fill="none" stroke="#000" stroke-linecap="round" stroke-linejoin="round" stroke-width="2"/>
      <path d="M26.5767,30.1726a1.3014,1.3014,0,1,1-1.3011-1.2749,1.2882,1.2882,0,0,1,1.3011,1.2749"/>
      <path d="M21.7666,30.2226a1.3014,1.3014,0,1,1-1.3011-1.2748,1.2882,1.2882,0,0,1,1.3011,1.2748"/>
      <path d="M21.116,35.4815a4.2233,4.2233,0,0,0,3.9035,0" fill="none" stroke="#000" stroke-linecap="round" stroke-linejoin="round" stroke-width="1.6"/>
    </g>
    <g>
      <g>
        <path d="M42.4406,46.1937q.0117.2114.0118.426a6.7763,6.7763,0,0,1-6.4886,7.0311A6.7762,6.7762,0,0,1,29.4753,46.62q0-.1427.0052-.2841" fill="none" stroke="#000" stroke-miterlimit="10" stroke-width="1.6"/>
        <path d="M38.8161,47.0627a.9415.9415,0,1,1-.9387-.8689.9059.9059,0,0,1,.9387.8689Z"/>
        <path d="M35.0613,47.0627a.9415.9415,0,1,1-.9387-.8689.9059.9059,0,0,1,.9387.8689Z"/>
        <path d="M34.592,50.4455a2.2231,2.2231,0,0,0,2.816,0" fill="none" stroke="#000" stroke-linecap="round" stroke-linejoin="round" stroke-width="1.6"/>
        <path d="M33.5268,43.197c.4694,3.3631,4.487-.8707,4.487-.8707.5491,1.5737,4.4254,3.8675,4.4254,3.8675,1.0324-.9558.5259-2.8526.3721-3.5136a5.1206,5.1206,0,0,0-5.8079-4.1141,6.4443,6.4443,0,0,1-1.0324,0c-2.2709-.3369-6.03-.1484-7.12,4.6433-.5317,2.3382.624,2.9844.624,2.9844S33.239,41.1347,33.5268,43.197Z" fill="none" stroke="#000" stroke-linecap="round" stroke-linejoin="round" stroke-width="1.6"/>
      </g>
      <path d="M26.1936,60.3314v-.9437c0-2.253,2.5843-4.06,5.1613-4.06a7.2229,7.2229,0,0,0,9.29,0c2.5775,0,5.1613,1.8073,5.1613,4.06v.9437" fill="none" stroke="#000" stroke-linecap="round" stroke-linejoin="round" stroke-width="1.6"/>
    </g>
  </g>
</svg>
