<?xml version="1.0" encoding="utf-8"?>
<!-- Generator: Adobe Illustrator 21.1.0, SVG Export Plug-In . SVG Version: 6.00 Build 0)  -->
<svg version="1.1" id="emoji" xmlns="http://www.w3.org/2000/svg" xmlns:xlink="http://www.w3.org/1999/xlink" x="0px" y="0px"
	 viewBox="0 0 72 72" enable-background="new 0 0 72 72" xml:space="preserve">
<g id="_xD83D__xDC69__x200D__xD83C__xDFED__1_">
	<g>
		<path fill="#CFCFCE" d="M17.4,57.9c0,0-2.2-13.7,9.8-13.7c3.2,2.1,5.9,3.6,9,3.6h-0.1c3.1,0,4.7-2.2,7.9-4.3
			c5.3,0,8.8,1.4,10.4,3.6c2.8,3.9,1.1,10.7,1.1,10.7"/>
	</g>
	<g>
		<path fill="#5AA8D4" d="M51.2,45.1v12.8H22V44.8l0,0c1.4-0.8,3.2-1.3,5.5-1.3v9.3h17.8v-9.1l0-0.2C47.7,43.6,49.8,44.1,51.2,45.1"
			/>
	</g>
	<g>
		<path fill="#69462E" d="M25,24.5c0,0-10.6,2.5-7.9,15.7c0,0,5.4,0.1,7.5-2.4c0,0,2.5-2.2,3.5-8.2c1-5.9-3.3-5.1-3.3-5.1"/>
	</g>
	<g>
		<ellipse fill="#FCEA2C" cx="35.8" cy="26.8" rx="11.3" ry="14.2"/>
	</g>
	<g>
		<g>
			<path fill="#9A9B99" d="M35.7,9.1C35.7,9.1,35.7,9.1,35.7,9.1c0.1,0,0.1,0,0.2,0H35.7z"/>
		</g>
		<g>
			<path fill="#9A9B99" d="M35.8,9.1C23.1,9.4,25,18.7,25,18.7c6.5-3.5,18-2.5,21.5,0C46.5,18.7,48.4,9.4,35.8,9.1z"/>
		</g>
	</g>
	<g>
		<path fill="#000100" d="M42,25.4c0,1.1-0.9,2-2,2c-1.1,0-2-0.9-2-2c0-1.1,0.9-2,2-2C41.1,23.4,42,24.3,42,25.4"/>
	</g>
	<g>
		<path fill="#000100" d="M34,25.4c0,1.1-0.9,2-2,2c-1.1,0-2-0.9-2-2c0-1.1,0.9-2,2-2C33.1,23.4,34,24.3,34,25.4"/>
	</g>
	<g>
		<path fill="#000100" d="M36,35.4c-1.2,0-2.3-0.3-3.4-0.9c-0.5-0.2-0.7-0.8-0.4-1.3c0.2-0.5,0.8-0.7,1.3-0.4c1.7,0.9,3.4,0.9,5.1,0
			c0.5-0.2,1.1,0,1.3,0.4c0.2,0.5,0,1.1-0.4,1.3C38.3,35.1,37.1,35.4,36,35.4z"/>
	</g>
	<g>
		<path d="M36,41.9c-6.8,0-12.3-6.8-12.3-15.2c0-0.9,0.1-1.8,0.2-2.6l2,0.3c-0.1,0.8-0.2,1.5-0.2,2.3c0,7.3,4.6,13.2,10.3,13.2
			S46.3,34,46.3,26.8c0-1.1-0.1-2.1-0.3-3.2l2-0.4c0.2,1.2,0.3,2.4,0.3,3.6C48.3,35.1,42.8,41.9,36,41.9z"/>
	</g>
	<g>
		<path fill="#E27023" d="M58.9,32.3c4.6,3.8,7.9-1.1,7.9-1.1s-3.2-5-7.8-1.5"/>
	</g>
	<g>
		<polyline fill="#90D2F4" points="32,9.5 32,12.6 39.2,12.6 39.2,9.5 		"/>
		<path d="M39.2,13.6H32c-0.6,0-1-0.4-1-1V9.5c0-0.6,0.4-1,1-1s1,0.4,1,1v2.1h5.3V9.5c0-0.6,0.4-1,1-1c0.6,0,1,0.4,1,1v3.1
			C40.2,13.1,39.8,13.6,39.2,13.6z"/>
	</g>
	<g>
		<path d="M47.5,16.7c-0.6,0-1-0.4-1-1V13c0-0.6,0.4-1,1-1s1,0.4,1,1v2.7C48.5,16.2,48,16.7,47.5,16.7z"/>
	</g>
	<g>
		<path d="M24.1,16.7c-0.6,0-1-0.4-1-1V13c0-0.6,0.4-1,1-1c0.6,0,1,0.4,1,1v2.7C25.1,16.2,24.6,16.7,24.1,16.7z"/>
	</g>
	<g>
		<path fill="none" stroke="#1D1D1B" stroke-width="3" stroke-linejoin="round" stroke-miterlimit="10" d="M51.8,41.6"/>
	</g>
	<g>
		<path fill="#FCEA2C" d="M58.5,31.7c2.2,1.8,3.7-0.5,3.7-0.5s-1.5-2.3-3.7-0.7"/>
	</g>
	<g>
		<path fill="none" stroke="#000000" stroke-width="2" stroke-linecap="round" stroke-linejoin="round" stroke-miterlimit="10" d="
			M21.6,32.4"/>
	</g>
	<g>
		<path d="M55.4,57.9c-0.1,0-0.1,0-0.2,0c-0.5-0.1-0.9-0.6-0.8-1.1c0,0,0.6-4.5-1.2-7.9c-0.3-0.5-0.1-1.1,0.4-1.4
			c0.5-0.3,1.1-0.1,1.4,0.4c2.2,4,1.5,8.9,1.5,9.2C56.3,57.6,55.8,57.9,55.4,57.9z"/>
	</g>
	<g>
		<path d="M17.5,57.9c-0.5,0-0.9-0.4-1-0.8c0-0.3-1-6.6,2.6-10.8c1.9-2.2,4.8-3.4,8.4-3.4c0.2,0,0.4,0.1,0.6,0.2
			c3.2,2.1,5.7,3.4,8.4,3.4c2.2,0,4.3-0.8,7.3-2.7c0.5-0.3,1.1-0.2,1.4,0.3c0.3,0.5,0.2,1.1-0.3,1.4c-2.4,1.5-5.1,3-8.3,3
			c0,0,0,0,0,0h0c0,0,0,0,0,0h0c0,0,0,0,0,0h0c0,0,0,0,0,0c-3.1,0-5.8-1.4-9.1-3.6c-2.9,0.1-5.1,1-6.6,2.7c-3,3.4-2.1,9.1-2.1,9.2
			c0.1,0.5-0.3,1.1-0.8,1.1C17.6,57.9,17.5,57.9,17.5,57.9z"/>
	</g>
	<g>
		<path d="M41.7,54.8H27.5c-0.6,0-1-0.4-1-1v-9.9c0-0.6,0.4-1,1-1c0.6,0,1,0.4,1,1v8.9h13.2c0.6,0,1,0.4,1,1S42.3,54.8,41.7,54.8z"
			/>
	</g>
	<g>
		<path d="M21.9,57.9c-0.6,0-1-0.4-1-1V45.2c0-0.6,0.4-1,1-1c0.6,0,1,0.4,1,1v11.7C22.9,57.5,22.5,57.9,21.9,57.9z"/>
	</g>
	<g>
		<path d="M25,19.7c-0.5,0-0.9-0.3-1-0.8c0-0.2-0.7-3.8,1.7-6.9c1.9-2.4,5.2-3.7,9.8-3.9c0,0,0.1,0,0.1,0h0.2c0,0,0.1,0,0.1,0
			c4.6,0.2,7.9,1.5,9.8,3.9c2.5,3.1,1.8,6.8,1.7,6.9c-0.1,0.5-0.6,0.9-1.2,0.8c-0.5-0.1-0.9-0.6-0.8-1.2c0,0,0.5-3-1.3-5.3
			c-1.6-2-4.4-3-8.4-3.1c-4,0.1-6.9,1.2-8.5,3.2c-1.9,2.4-1.3,5.2-1.3,5.3c0.1,0.5-0.2,1.1-0.8,1.2C25.1,19.7,25,19.7,25,19.7z"/>
	</g>
	<g>
		<path d="M51.4,42l-2.9-0.8l2-7.1c0.2-0.6,1.2-3.7,3.7-3.8l3.9-0.5l0.4,3l-4,0.5c-0.1,0-0.1,0-0.2,0c-0.2,0.1-0.7,0.9-0.9,1.6
			L51.4,42z"/>
	</g>
	<g>
		<path fill="#69462E" d="M24.6,25.7"/>
	</g>
	<g>
		<path fill="#69462E" d="M24.9,24.5C29.6,24,36.7,17,36.7,17s8.5,8.7,10.9,6.9c0.2-2.4-1.3-4.8-1.3-4.8s-8.8-5.5-20-0.4
			c-3.1,3.8-1.6,7-1.6,7"/>
	</g>
	<g>
		
			<rect x="39.8" y="47.3" transform="matrix(0.2706 -0.9627 0.9627 0.2706 -12.588 81.9158)" fill="#3F3F3F" width="16" height="4"/>
		<path d="M47.5,58.5c-0.1,0-0.2,0-0.3,0l-3.9-1.1c-0.3-0.1-0.5-0.2-0.6-0.5c-0.1-0.2-0.2-0.5-0.1-0.8L47,40.8
			c0.1-0.3,0.2-0.5,0.5-0.6c0.2-0.1,0.5-0.2,0.8-0.1l3.9,1.1c0.5,0.1,0.8,0.7,0.7,1.2l-4.3,15.4C48.4,58.2,48,58.5,47.5,58.5z
			 M44.9,55.7l1.9,0.5l3.8-13.5l-1.9-0.5L44.9,55.7z"/>
	</g>
	<g>
		<line fill="#9A9B99" x1="58" y1="28.1" x2="58.4" y2="34.3"/>
		<path d="M58.4,35.3c-0.5,0-1-0.4-1-0.9L57,28.2c0-0.6,0.4-1,0.9-1.1c0.6,0,1,0.4,1.1,0.9l0.4,6.1C59.5,34.8,59,35.2,58.4,35.3
			C58.5,35.3,58.4,35.3,58.4,35.3z"/>
	</g>
	<g>
		<path d="M17.7,40.5c-0.5,0-0.9-0.3-1-0.8c-2.1-10.1,4.2-13.9,6.7-14.9c-0.3-1.4-0.3-4,2-7c0.3-0.4,1-0.5,1.4-0.2
			c0.4,0.3,0.5,1,0.2,1.4c-2.6,3.2-1.5,5.8-1.5,5.9c0.1,0.3,0.1,0.6,0,0.8c-0.1,0.3-0.4,0.5-0.6,0.5c-0.3,0.1-8,2.3-6.4,12.1
			c1.4-0.2,3.6-0.7,4.7-2c0.4-0.4,1-0.5,1.4-0.1c0.4,0.4,0.5,1,0.1,1.4C22.6,40.4,18,40.5,17.7,40.5C17.8,40.5,17.8,40.5,17.7,40.5z
			"/>
	</g>
	<g>
		<path d="M24.9,25.3c-0.5,0-0.9-0.4-1-0.9c-0.1-0.5,0.3-1,0.9-1.1c3.6-0.4,9.3-5.4,11.2-7.3c0.2-0.2,0.4-0.3,0.7-0.3
			c0.3,0,0.5,0.1,0.7,0.3c4,4.1,7.8,6.8,9.2,6.9c-0.1-1.8-1.1-3.5-1.2-3.5c-0.3-0.5-0.2-1.1,0.3-1.4c0.5-0.3,1.1-0.2,1.4,0.3
			c0.1,0.1,1.7,2.7,1.5,5.4c0,0.3-0.2,0.5-0.4,0.7c-2.6,2-8.5-3.2-11.5-6.3c-2,1.9-7.5,6.7-11.7,7.2C25,25.3,24.9,25.3,24.9,25.3z
			 M47.6,23.6L47.6,23.6L47.6,23.6z"/>
	</g>
	<g>
		<path d="M49.8,21.8c-0.3,0-0.6-0.1-0.8-0.4c-1.8-2.1-7.1-3.7-13.1-3.9c-6,0.2-11.4,1.7-13.1,3.9c-0.4,0.4-1,0.5-1.4,0.1
			c-0.4-0.4-0.5-1-0.1-1.4c2.5-3,8.7-4.3,13.8-4.6c0.1,0,0.2,0,0.3,0h1.1c0.1,0,0.2,0,0.3,0c5.1,0.3,11.3,1.6,13.8,4.6
			c0.4,0.4,0.3,1.1-0.1,1.4C50.2,21.7,50,21.8,49.8,21.8z"/>
	</g>
	<g>
		<path d="M62.4,34.8c-1.4,0-2.8-0.6-4.1-1.7c-0.4-0.4-0.5-1-0.1-1.4c0.4-0.4,1-0.5,1.4-0.1c1.1,0.9,2.2,1.3,3.3,1.2
			c1.2-0.2,2.1-1,2.6-1.5c-0.5-0.6-1.5-1.5-2.7-1.7c-1-0.2-2.1,0.1-3.2,1c-0.4,0.3-1.1,0.2-1.4-0.2c-0.3-0.4-0.2-1.1,0.2-1.4
			c1.5-1.2,3.1-1.6,4.7-1.3c2.8,0.5,4.4,3,4.5,3.1c0.2,0.3,0.2,0.8,0,1.1c-0.1,0.1-1.7,2.5-4.5,2.9C62.9,34.7,62.6,34.8,62.4,34.8z"
			/>
	</g>
</g>
</svg>
