<svg version="1.1" id="emoji" xmlns="http://www.w3.org/2000/svg" x="0" y="0" viewBox="0 0 72 72" enable-background="new 0 0 72 72" xml:space="preserve">
  <g id="color">
    <path fill="#92D3F5" d="M18,60.9375V57c0-4.9941,3.8223-9,8.8145-9c6,5,12,5,18,0C49.8086,48,54,52.0059,54,57v3.9375H18z"/>
  </g>
  <g id="hair">
    <path fill="#fcea2b" d="M22.0975,49.3665C23.4494,48.5048,25.0566,48,26.8145,48c6,5,12,5,18,0 c1.7172,0,3.3337,0.4823,4.7233,1.3068c1.231-0.8702,2.2903-1.7713,3.0872-2.6193c2.9375-3.125,3.7246-6.7637,1.9678-10.8281 c-2.4043-5.6699-3.042-5.6426-3.4286-12.8223C51.1318,18.8516,47.9277,15.374,43.7588,15c0,0-2.5996-3-8.001-3 c-6.4316,0-12.2285,3.4658-13.709,8.9658c-1.5,5.583,0.3457,7.834-1.291,12.0342c-1.8359,4.7168-5.8203,8.375-1.3203,13.875 C20.1225,47.7122,21.0214,48.5602,22.0975,49.3665z"/>
  </g>
  <g id="skin">
    <path fill="#debb90" d="M25,32c0,8,4.8145,12.877,10.8145,12.877S47,40,47,32c0-4-1-6-1-6c-2-2-4-4-4-4s-12,2-16,4 C26,26,25,28,25,32z"/>
  </g>
  <g id="skin-shadow"/>
  <g id="line">
    <path fill="none" stroke="#000000" stroke-width="2" stroke-linecap="round" stroke-linejoin="round" d="M18,60v-3.123 c0-4.9942,3.8223-9,8.8145-9c6,5,12,5,18,0c4.9941,0,9.1855,4.0058,9.1855,9V60"/>
    <path d="M42,31c0,1.1045-0.8955,2-2,2s-2-0.8955-2-2s0.8955-2,2-2S42,29.8955,42,31"/>
    <path d="M34,31c0,1.1045-0.8955,2-2,2s-2-0.8955-2-2s0.8955-2,2-2S34,29.8955,34,31"/>
    <path fill="none" stroke="#000000" stroke-width="2" stroke-linejoin="round" d="M25,32c0,8,4.8145,12.877,10.8145,12.877 S47,40,47,32c0-4-1-6-1-6c-2-2-4-4-4-4s-12,2-16,4C26,26,25,28,25,32z"/>
    <path fill="none" stroke="#000000" stroke-width="2" stroke-linecap="round" stroke-linejoin="round" d="M32.8145,38.25 c1.875,1,4.125,1,6,0"/>
    <path fill="none" stroke="#000000" stroke-width="2" stroke-linecap="round" stroke-linejoin="round" d="M20,46 c-4-6-1.7637-8.2832,0.0723-13c1.6367-4.2002-0.209-6.4512,1.291-12.0342C22.8438,15.4658,28.6406,12,35.0723,12 c5.4013,0,8.0009,3,8.0009,3c4.169,0.374,7.3731,3.8516,7.4053,8.0371c0.3867,7.1797,1.0244,7.1524,3.4287,12.8223 C55.6641,39.9238,54.8789,42.6348,52,46"/>
  </g>
</svg>
