<svg id="emoji" xmlns="http://www.w3.org/2000/svg" viewBox="0 0 72 72">
  <g id="color">
    <path d="M26.38,61.4711V60.3258c0-2.7343,2.69-4.9278,5.3731-4.9278q4.8358,4.1064,9.6717,0c2.6833,0,5.3731,2.1934,5.3731,4.9278v1.1453" fill="#b1cc33"/>
    <path d="M12.0848,47.3842c0-2.9337,2.8228-5.1484,5.4233-5.2724,3.8843,3.3056,7.9634,4.1147,11.8559.8091,2.6006.124,5.27,1.53,5.27,4.4633l.793,2.0341s.1793,2.9284.1793,6.75c-1.913.7971-2.0812-.39-3.7518-.9856-4.0254-1.4348-6.3087,4.5392-5.488,5.488-3.2569-.0256-5.5925-.016-5.5925-.016L11.4594,60.59Z" fill="#92d3f5" stroke="#92d3f5" stroke-linecap="round" stroke-linejoin="round" stroke-width="1.6"/>
  </g>
  <g id="skin">
    <ellipse cx="36.7125" cy="46.752" rx="6.7549" ry="7.3197" fill="#fcea2b"/>
    <path d="M31.0573,29.426v-.6682c0-1.3366-8.019-4.6778-10.6919-7.3508-2.673,2.6731-4.01,4.6778-4.01,8.019,0,5.3461,3.3412,9.3555,7.3508,9.3555s7.3507-4.01,7.3507-9.3555Z" fill="#fcea2b"/>
  </g>
  <g id="hair">
    <path d="M34.1754,43.1887c.4887,3.5012,4.6712-.9064,4.6712-.9064.5716,1.6383,4.6071,4.0262,4.6071,4.0262,1.0748-.995.5475-2.97.3874-3.6578a5.331,5.331,0,0,0-6.0464-4.2831,6.6935,6.6935,0,0,1-1.0748,0c-2.3641-.3506-6.2778-.1544-7.4121,4.834-.5535,2.4342.65,3.1069.65,3.1069S33.8758,41.0417,34.1754,43.1887Z" fill="#a57939"/>
    <path d="M35.64,31.5653a4.7588,4.7588,0,0,1-.7845-1.46,9.2965,9.2965,0,0,1-.5335-4.1691,12.9211,12.9211,0,0,0-.3954-4.3194c-.9128-3.3879-4.5872-5.7532-8.9338-5.7532A6.9069,6.9069,0,0,0,19.9145,17.72a.7015.7015,0,0,1-.4823.24,4.9465,4.9465,0,0,0-4.5394,4.9607c-.225,4.1648-.6043,5.0513-1.6073,7.2745-.0248.0549-.0465.1063-.067.163-.289.8-1.427,4.1447-1.7238,4.72-1.6067,2.3934-.0038,4.9039.9357,6.0137a2.3546,2.3546,0,0,0,1.3547.79c1.6813.32,3.1489-.1191,4.1828.1948,2.0284.6158,2.9992,1.9812,5.0746,2.0786a26.5356,26.5356,0,0,0,12.6054-2.8092A2.4019,2.4019,0,0,0,36.97,39.5291C37.2406,37.59,37.5259,33.7683,35.64,31.5653Zm-6.89,4.7038c-1.3386,3.0954-5.8144,2.1333-7.4876,2.1333s-2.05-1.7568-3.5974-3.8065-.9621-5.2706-.5438-7.7386a7.5062,7.5062,0,0,1,1.8824-3.5237,2.4025,2.4025,0,0,1,2.7169-.6143c3.234,1.3386,9.1643,5.858,9.3361,6.7067C31.2725,30.4888,30.0892,33.1737,28.7507,36.2691Z" fill="#a57939"/>
  </g>
  <g id="line">
    <path d="M43.3319,46.3084q.0122.22.0123.4436a7.0544,7.0544,0,0,1-6.755,7.32,7.0544,7.0544,0,0,1-6.7549-7.32q0-.1486.0054-.2958" fill="none" stroke="#000" stroke-miterlimit="10" stroke-width="1.6"/>
    <path d="M39.5586,47.2131a.98.98,0,1,1-.9773-.9046.9431.9431,0,0,1,.9773.9046"/>
    <path d="M35.65,47.2131a.98.98,0,1,1-.9772-.9046.943.943,0,0,1,.9772.9046"/>
    <path d="M35.161,50.7348a2.3143,2.3143,0,0,0,2.9317,0" fill="none" stroke="#000" stroke-linecap="round" stroke-linejoin="round" stroke-width="1.6"/>
    <path d="M34.0522,43.1887c.4886,3.5012,4.6711-.9064,4.6711-.9064.5717,1.6383,4.6071,4.0262,4.6071,4.0262,1.0749-.995.5476-2.97.3874-3.6578a5.3309,5.3309,0,0,0-6.0463-4.2831,6.6936,6.6936,0,0,1-1.0748,0c-2.3642-.3506-6.2779-.1544-7.4121,4.834-.5536,2.4342.65,3.1069.65,3.1069S33.7525,41.0417,34.0522,43.1887Z" fill="none" stroke="#000" stroke-linecap="round" stroke-linejoin="round" stroke-width="1.6"/>
    <path d="M26.38,60.6073v-.9824c0-2.3455,2.69-4.227,5.3731-4.227a7.52,7.52,0,0,0,9.6717,0c2.6833,0,5.3731,1.8815,5.3731,4.227v.9824" fill="none" stroke="#000" stroke-linecap="round" stroke-linejoin="round" stroke-width="1.6"/>
    <path d="M11.3487,60.6535v-12.76c0-3.3491,3.3572-6.0357,6.7064-6.0357a9.1023,9.1023,0,0,0,9.1492,1.9066l1.6934-.7849" fill="none" stroke="#000" stroke-linecap="round" stroke-linejoin="round" stroke-width="2"/>
    <g>
      <path d="M12.4772,39.4117a7.7523,7.7523,0,0,1-.688-7.407c1.6071-3.789,2.0328-3.77,2.2914-8.5682a5.4342,5.4342,0,0,1,4.9484-5.3708,7.2356,7.2356,0,0,1,5.3459-2.0047c4.2982,0,8.1727,2.3162,9.161,5.9916,1.0024,3.7308-.23,5.2351.8627,8.0417.4654,1.1957,1.0586,2.35,1.47,3.54" fill="none" stroke="#000" stroke-linecap="round" stroke-linejoin="round" stroke-width="2"/>
      <path d="M31.0573,29.426v-.6682c0-1.3366-8.019-4.6778-10.6919-7.3508-2.673,2.6731-4.01,4.6778-4.01,8.019,0,5.3461,3.3412,9.3555,7.3508,9.3555s7.3507-4.01,7.3507-9.3555Z" fill="none" stroke="#000" stroke-miterlimit="10" stroke-width="1.6"/>
      <path d="M20.0325,29.3045a1.2388,1.2388,0,1,1,1.2388,1.2388,1.2388,1.2388,0,0,1-1.2388-1.2388"/>
      <path d="M24.9878,29.3045a1.2389,1.2389,0,1,1,1.2388,1.2388,1.2387,1.2387,0,0,1-1.2388-1.2388"/>
      <path d="M21.8907,34.4146a3.9489,3.9489,0,0,0,3.7165,0" fill="none" stroke="#000" stroke-linecap="round" stroke-linejoin="round" stroke-width="1.6"/>
    </g>
  </g>
</svg>
