<svg id="emoji" viewBox="0 0 72 72" xmlns="http://www.w3.org/2000/svg">
  <g id="color">
    <path fill="#5c9e31" d="M41.0089,53.7541H28.7462A.9979.9979,0,0,1,28.07,53.49l-7.4307-6.834a1,1,0,0,1-.2637-1.0761c1.4776-4.0948,2.5049-6.8242,3.0547-8.1114a4.274,4.274,0,0,1,4.0176-2.4843c.1562-.0137.3105-.0264.4609-.045a3.0652,3.0652,0,0,1,2.1212.5235A11.5665,11.5665,0,0,0,36,37.3416h0a18.7285,18.7285,0,0,0,7.4141-2.1,1.8526,1.8526,0,0,1,1.6524-.3021c.15.0186.3047.0313.46.045a4.2534,4.2534,0,0,1,3.9961,2.4365c1.0136,2.3682,3.1191,8.1963,4.7119,12.6777a1,1,0,0,1-.7568,1.3174l-12.2832,2.32A.99.99,0,0,1,41.0089,53.7541Z"/>
    <path fill="#b1cc33" d="M36.9777,50.6337a27.0456,27.0456,0,0,0-3.5672-.3886,8.2421,8.2421,0,0,1-12.4241,8.71A9.3928,9.3928,0,0,0,24.2306,63.09a22.645,22.645,0,0,0,9.8017,4.0635,26.74,26.74,0,0,0,4.6856.4258c6.14,0,10.8838-2.3282,11.5488-6.0538C51.0919,56.8935,45.254,52.1093,36.9777,50.6337Z"/>
    <path fill="#92d3f5" d="M36.3234,50.4338a2.7013,2.7013,0,0,1-2.55-1.8115l-.79-2.2754a2.7,2.7,0,0,1,1.6621-3.4307l8.583-2.98a2.6968,2.6968,0,0,1,3.4307,1.6611l.79,2.2774a2.6982,2.6982,0,0,1-1.6621,3.43l-8.583,2.9795A2.6768,2.6768,0,0,1,36.3234,50.4338Z"/>
    <circle cx="33.2779" cy="47.4336" r="2" fill="#f1b31c"/>
  </g>
  <g id="skin">
    <path fill="#6a462f" d="M25.3321,60.2209a8.2569,8.2569,0,1,1,8.2569-8.2568A8.2663,8.2663,0,0,1,25.3321,60.2209Z"/>
    <path fill="#6a462f" d="M56.0392,55.2209s-.8418-2.415-1.9424-5.5088a.9456.9456,0,0,0-.0531-.0882.925.925,0,0,0-.0358-.0983c-.0178-.0292-.0466-.0454-.0667-.0721a.9721.9721,0,0,0-.1331-.1437.96.96,0,0,0-.1569-.1153.9942.9942,0,0,0-.7368-.1034.2513.2513,0,0,0-.1834.0668.9352.9352,0,0,0-.0981.0357,10.1709,10.1709,0,0,1-5.1561,1.1044C46.23,48.2748,44.93,46.33,44.2261,45.1109A2.1824,2.1824,0,0,0,41.5,43.9182a2.5916,2.5916,0,0,0-1.5674,3.456c3.0694,7.3545,7.545,15.8018,11.9053,15.8018a3.3207,3.3207,0,0,0,.874-.1172c.0185-.005.0313-.0186.0492-.0245.02-.0066.04-.0037.06-.0116a5.5823,5.5823,0,0,0,3.27-3.0127A6.8493,6.8493,0,0,0,56.0392,55.2209Z"/>
    <path fill="#6a462f" d="M32.6124,61.6867l-8.9951-3.6992c-.0184-.0076-.0378-.0045-.0564-.0109-.0134-.0046-.0227-.0152-.0364-.0194A6.2733,6.2733,0,0,1,19.14,52.8713a.92.92,0,0,0-.0423-.1191.99.99,0,0,0-.0783-.2217.9758.9758,0,0,0-.1236-.1582.6813.6813,0,0,0-.3469-.2591.917.917,0,0,0-.0876-.05c-.0065-.0021-.013,0-.0195-.0022a.958.958,0,0,0-.2384-.0271.994.994,0,0,0-.1648-.0074c-.0107.0014-.0206-.0032-.0314-.0014a.9415.9415,0,0,0-.1482.0528.9954.9954,0,0,0-.1875.0669,2.5273,2.5273,0,0,0-.2922.2439,1.0009,1.0009,0,0,0-.1141.2016.9443.9443,0,0,0-.0647.1145c-.0058.0177-.0093.0333-.0149.0509l-.0029.01c-2.0249,6.2906.6584,8.2629.95,8.4537a43.2914,43.2914,0,0,0,12.85,5.3174,2.578,2.578,0,0,0,3.0987-1.7051A2.5489,2.5489,0,0,0,32.6124,61.6867Z"/>
    <path fill="#6a462f" d="M35.5778,34.49c-4.9668.001-9.5888-4.8467-10.6172-11.4209a12.7968,12.7968,0,0,1,.543-6.0459,1.0668,1.0668,0,0,1,1.8291-.2266c.02.0235,3.43,3.9014,13.9619-3.1845a1.0652,1.0652,0,0,1,1.5938.5088,33.6385,33.6385,0,0,1,1.6367,5.9c1.1035,7.085-2.3809,13.5332-7.77,14.377A7.6052,7.6052,0,0,1,35.5778,34.49Z"/>
  </g>
  <g id="hair">
    <path fill="#000000" d="M44.2477,9.339a7.2335,7.2335,0,0,0-5.4443-2.9179c-.4717,0-11.4433.0595-15.6426,5.1308a7.1755,7.1755,0,0,0-1.4716,6.1895c1.8906,9.9541,6.3173,12.4922,6.5048,12.5947a.9858.9858,0,0,0,.4776.123.9972.9972,0,0,0,.87-.51.9823.9823,0,0,0,.0389-.8638,1.05,1.05,0,0,0-.1737-.4331A13.94,13.94,0,0,1,27.0681,22.74a12.8015,12.8015,0,0,1,.0166-3.5244c2.04,1.0664,6.4121,1.8535,14.249-3.083a25.5272,25.5272,0,0,1,1.0781,4.1777l.0045.0133c.0006.0048-.0013.0092-.0006.0141a14.5219,14.5219,0,0,1,.043,4.3066,1.0659,1.0659,0,0,0,.9043,1.207,1.02,1.02,0,0,0,.1523.0117,1.0532,1.0532,0,0,0,.7512-.3277.9748.9748,0,0,0,.3572-.4916C46.7683,17.8312,46.6413,12.547,44.2477,9.339Z"/>
  </g>
  <g id="line">
    <path fill="none" stroke="#000" stroke-linecap="round" stroke-linejoin="round" stroke-width="2" d="M21.3154,45.9132c1.2325-3.4162,2.4138-6.6069,3.0343-8.0587.9436-1.9239,2.4321-1.78,3.6765-1.9282a2.6819,2.6819,0,0,1,1.7149.3828A11.9015,11.9015,0,0,0,36,38.0861h.9747a11.9015,11.9015,0,0,0,6.2589-1.777,2.6819,2.6819,0,0,1,1.7149-.3828c1.2444.1478,2.7329.0043,3.6765,1.9282,1.65,3.86,6.47,17.6883,6.47,17.6883s1.9655,4.681-2.6193,6.5337l-.0256.01c-4.3986,1.1908-9.8745-10.9634-11.6494-15.2355"/>
    <path fill="none" stroke="#000" stroke-linecap="round" stroke-linejoin="round" stroke-width="2" d="M43.47,20.1733a32.96,32.96,0,0,0-1.58-5.6764h0c-11.6718,7.853-15.406,2.9469-15.406,2.9469a11.8113,11.8113,0,0,0-.47,5.461c1.02,6.52,5.7549,11.1941,10.5753,10.44s7.9007-6.6513,6.88-13.1713"/>
    <circle cx="25.332" cy="51.9641" r="7.257" fill="none" stroke="#000" stroke-linecap="round" stroke-linejoin="round" stroke-width="2"/>
    <path fill="none" stroke="#000" stroke-linecap="round" stroke-linejoin="round" stroke-width="2" d="M18.7,60.3962a42.8516,42.8516,0,0,0,12.8,5.2409"/>
    <path fill="none" stroke="#000" stroke-linecap="round" stroke-linejoin="round" stroke-width="2" d="M41.2136,47.8346,36.8761,49.34a1.7005,1.7005,0,0,1-2.1578-1.0458l-.79-2.2759a1.7,1.7,0,0,1,1.0457-2.1578l8.5828-2.9794a1.7005,1.7005,0,0,1,2.1578,1.0458l.79,2.2759"/>
    <path fill="none" stroke="#000" stroke-linecap="round" stroke-linejoin="round" stroke-width="2" d="M32.552,51.2309a25.7011,25.7011,0,0,1,4.2495.4043,23.5323,23.5323,0,0,1,7.5264,2.6413"/>
    <path fill="none" stroke="#000" stroke-linecap="round" stroke-linejoin="round" stroke-width="2" d="M46.5572,50.737a49.6144,49.6144,0,0,0,4.9284,6.7669"/>
    <path fill="none" stroke="#000" stroke-linecap="round" stroke-linejoin="round" stroke-width="2" d="M31.3262,47.8724a2.0016,2.0016,0,0,1,2.5118-2.3593"/>
    <path fill="none" stroke="#000" stroke-linecap="round" stroke-linejoin="round" stroke-width="2" d="M34.88,48.6312a2,2,0,0,1-2.9721.2593"/>
    <path fill="none" stroke="#000" stroke-linecap="round" stroke-linejoin="round" stroke-width="2" d="M28.6769,29.46s-4.1811-2.3-6.005-11.9059C20.7478,7.4205,38.8032,7.4208,38.8032,7.4208s10.0164,0,4.8618,17.3378"/>
  </g>
</svg>
