<?xml version="1.0" encoding="utf-8"?>
<!-- Generator: Adobe Illustrator 21.1.0, SVG Export Plug-In . SVG Version: 6.00 Build 0)  -->
<svg version="1.1" id="emoji" xmlns="http://www.w3.org/2000/svg" xmlns:xlink="http://www.w3.org/1999/xlink" x="0px" y="0px"
	 viewBox="0 0 72 72" enable-background="new 0 0 72 72" xml:space="preserve">
<g id="_xD83D__xDC68__x200D__xD83D__xDCBC__1_">
	<path fill="#9A9A99" d="M17.3,58.9c0,0-2-13.8,10-13.8c3.2,2.1,5.9,3.6,9,3.6h-0.1c3.1,0,5.3-2.7,8.5-4.8c13.3,0,10.9,15,10.9,15"
		/>
	<polyline fill="#CECECD" points="36.6,54.2 39,58.8 45.4,44.1 51.9,53.9 40.7,58.1 	"/>
	<path fill="#FFFFFF" d="M38.5,57.7c-0.6,1-4.9,1-5.5,0l-1.8-2.4l-3.4-8.7l8,2.7l7.6-2.7L40,55.3L38.5,57.7z"/>
	
		<path fill="#FBEA2E" stroke="#000000" stroke-width="2" stroke-linecap="round" stroke-linejoin="round" stroke-miterlimit="10" d="
		M27.7,18.6c-1.9,2.5-3.1,6-3.1,9.8c0,7.8,5.1,14.2,11.3,14.2c6.3,0,11.3-6.3,11.3-14.2c0-1.2-0.1-2.3-0.3-3.4"/>
	<path fill="#CECECD" d="M65.7,58.5H50.2V38.7h15.3c0.1,0,0.2,0.1,0.2,0.2V58.5z"/>
	<path fill="#FFFFFF" d="M62.6,61H48V42h10.8c2.1,0,3.9,1.7,3.9,3.9V61z"/>
	<path fill="#010101" d="M41.9,27c0,1.1-0.9,2-2,2s-2-0.9-2-2c0-1.1,0.9-2,2-2S41.9,25.9,41.9,27"/>
	<path fill="#010101" d="M33.9,27c0,1.1-0.9,2-2,2s-2-0.9-2-2c0-1.1,0.9-2,2-2S33.9,25.9,33.9,27"/>
	<path fill="#010101" d="M35.9,37c-1.2,0-2.3-0.3-3.4-0.9c-0.5-0.2-0.7-0.8-0.4-1.3c0.2-0.5,0.8-0.7,1.3-0.4c1.7,0.9,3.4,0.9,5.1,0
		c0.5-0.2,1.1,0,1.3,0.4c0.2,0.5,0,1.1-0.4,1.3C38.2,36.7,37,37,35.9,37z"/>
	<g>
		
			<polygon fill="none" stroke="#000000" stroke-width="2" stroke-linecap="round" stroke-linejoin="round" stroke-miterlimit="10" points="
			62.6,61 48,61 48,42.3 59.8,42.3 59.8,44.4 62.6,44.4 		"/>
		
			<polyline fill="none" stroke="#000000" stroke-width="2" stroke-linecap="round" stroke-linejoin="round" stroke-miterlimit="10" points="
			51.2,38.9 66,38.9 66,57.5 		"/>
		
			<line fill="none" stroke="#000000" stroke-width="2" stroke-linecap="round" stroke-linejoin="round" stroke-miterlimit="10" x1="59.8" y1="42.3" x2="62.6" y2="44.4"/>
		
			<line fill="none" stroke="#000000" stroke-width="2" stroke-linecap="round" stroke-linejoin="round" stroke-miterlimit="10" x1="51" y1="48.5" x2="59.4" y2="48.5"/>
		<path fill="none" stroke="#000000" stroke-width="2" stroke-linecap="round" stroke-linejoin="round" stroke-miterlimit="10" d="
			M59.4,50.6"/>
		<path fill="none" stroke="#000000" stroke-width="2" stroke-linecap="round" stroke-linejoin="round" stroke-miterlimit="10" d="
			M51,50.6"/>
		
			<line fill="none" stroke="#000000" stroke-width="2" stroke-linecap="round" stroke-linejoin="round" stroke-miterlimit="10" x1="51" y1="52.6" x2="59.4" y2="52.6"/>
		
			<line fill="none" stroke="#000000" stroke-width="2" stroke-linecap="round" stroke-linejoin="round" stroke-miterlimit="10" x1="51" y1="56.2" x2="59.4" y2="56.2"/>
	</g>
	
		<path fill="#3F3F3F" stroke="#000000" stroke-width="2" stroke-linecap="round" stroke-linejoin="round" stroke-miterlimit="10" d="
		M33.5,48.5c0,0-1.2,6,2.3,6s2.3-6,2.3-6"/>
	<path fill="none" stroke="#1D1E1C" stroke-width="2" stroke-linecap="round" stroke-linejoin="round" stroke-miterlimit="10" d="
		M32.6,57.8"/>
	<path fill="none" stroke="#1D1E1C" stroke-width="2" stroke-linecap="round" stroke-linejoin="round" stroke-miterlimit="10" d="
		M39,57.8"/>
	
		<line fill="none" stroke="#000000" stroke-width="2" stroke-linecap="round" stroke-linejoin="round" stroke-miterlimit="10" x1="44.7" y1="55.6" x2="39" y2="57.8"/>
	
		<path fill="#3F3F3F" stroke="#000000" stroke-width="2" stroke-linecap="round" stroke-linejoin="round" stroke-miterlimit="10" d="
		M27.4,18.8c0,0,10.1,8,10.5,2.4c0,0,5.3,3.8,9,3.8c6.4,0-0.1-12.5-11.1-15.1c-3.1-0.8-9.9-1.8-9.9,4.5c0,0-7.6,4.2-1.3,12.5
		l0.1-0.3C25,23.5,27.4,18.8,27.4,18.8z"/>
	<path fill="none" stroke="#000000" stroke-width="2" stroke-linecap="round" stroke-linejoin="round" stroke-miterlimit="10" d="
		M16.8,57.9c0,0-2-13,10-13c3.2,2.1,5.9,3.6,9,3.6h-0.1c3.1,0,5.8-1.5,9-3.6"/>
	<path fill="#3F3F3F" d="M35,54.9c0.3-0.6,1.1-0.6,1.5,0l1.2,2l1.9,2h-3.8H32l1.9-2L35,54.9z"/>
	
		<polyline fill="#CECECD" stroke="#000000" stroke-width="2" stroke-linecap="round" stroke-linejoin="round" stroke-miterlimit="10" points="
		34.9,54.6 32.5,57.8 26.8,44.9 22.9,53.4 32.3,57.8 	"/>
	
		<polyline fill="none" stroke="#000000" stroke-width="2" stroke-linecap="round" stroke-linejoin="round" stroke-miterlimit="10" points="
		44.7,44.9 39,57.8 36.6,54.6 	"/>
</g>
</svg>
