<?xml version="1.0" encoding="utf-8"?>
<!-- Generator: Adobe Illustrator 21.1.0, SVG Export Plug-In . SVG Version: 6.00 Build 0)  -->
<svg version="1.1" id="emoji" xmlns="http://www.w3.org/2000/svg" xmlns:xlink="http://www.w3.org/1999/xlink" x="0px" y="0px"
	 viewBox="0 0 72 72" enable-background="new 0 0 72 72" xml:space="preserve">
<g id="_xD83D__xDC68__x200D__xD83C__xDFEB__1_">
	<g>
		<polyline fill="#5C9E32" points="13.9,52.1 10.8,52.1 10.8,16.9 19.8,16.9 36.3,16.9 52,16.9 60.8,16.9 60.8,52.1 56.7,52.1 		"/>
	</g>
	<g>
		<path d="M60.8,52.2h-2.6c-0.6,0-1-0.4-1-1s0.4-1,1-1h1.6V17.9H11.8v32.3h2.1c0.6,0,1,0.4,1,1s-0.4,1-1,1h-3.1c-0.6,0-1-0.4-1-1
			V16.9c0-0.6,0.4-1,1-1h49.9c0.6,0,1,0.4,1,1v34.3C61.8,51.7,61.3,52.2,60.8,52.2z"/>
	</g>
	<g>
		<path fill="#FCEA2C" d="M47.2,28.5c0-2.3-0.4-4.4-1.2-6.4c-7.5,0.7-15.8,0-18.1-3.7c-0.2,3.4-1,6.5-3.3,10.1
			c0,7.8,5.1,14.2,11.3,14.2S47.2,36.4,47.2,28.5z"/>
	</g>
	<g>
		<path d="M42,27.2c0,1.1-0.9,2-2,2c-1.1,0-2-0.9-2-2c0-1.1,0.9-2,2-2C41.1,25.2,42,26.1,42,27.2"/>
	</g>
	<g>
		<path d="M34,27.2c0,1.1-0.9,2-2,2c-1.1,0-2-0.9-2-2c0-1.1,0.9-2,2-2C33.1,25.2,34,26.1,34,27.2"/>
	</g>
	<g>
		<path d="M36,37.2c-1.2,0-2.3-0.3-3.4-0.9c-0.5-0.2-0.7-0.8-0.4-1.3c0.2-0.5,0.8-0.7,1.3-0.4c1.7,0.9,3.4,0.9,5.1,0
			c0.5-0.2,1.1,0,1.3,0.4c0.2,0.5,0,1.1-0.4,1.3C38.3,36.9,37.1,37.2,36,37.2z"/>
	</g>
	<g>
		<path fill="#69462E" d="M53.9,59c0,0,2.7-14.1-9.3-14.1c-3.2,2.1-5.9,3.6-9,3.6h0.1c-3.1,0-5.8-1.5-9-3.6c-12,0-10,14.1-10,14.1"
			/>
	</g>
	<g>
		<path fill="none" stroke="#000100" stroke-width="2" stroke-linecap="round" stroke-linejoin="round" stroke-miterlimit="10" d="
			M27.4,25.2"/>
	</g>
	<g>
		<path d="M41.4,32.4h-2c-1.5,0-2.9-0.9-3.5-2.3c-0.6,1.3-1.9,2.3-3.5,2.3h-2c-2.1,0-3.8-1.7-3.8-3.8v-1.2h-0.7c-0.6,0-1-0.4-1-1
			c0-0.6,0.4-1,1-1h1.7c0.6,0,1,0.4,1,1v2.2c0,1,0.8,1.8,1.8,1.8h2c1,0,1.8-0.8,1.8-1.8v-1.1c0-0.6,0.4-1,1-1h1.3c0.6,0,1,0.4,1,1
			v1.1c0,1,0.8,1.8,1.8,1.8h2c1,0,1.8-0.8,1.8-1.8v-2.2c0-0.6,0.4-1,1-1h3c0.6,0,1,0.4,1,1c0,0.6-0.4,1-1,1h-2v1.2
			C45.2,30.6,43.5,32.4,41.4,32.4z"/>
	</g>
	<g id="XMLID_10_">
		<g>
			<path fill="#A37838" d="M50.5,21.3c1.1,4.5-2.8,7.4-2.8,7.4l-0.4,0c0-0.1,0-0.1,0-0.2c0-1.2-0.1-2.3-0.3-3.4
				c-0.2-1.1-0.5-2.1-0.9-3v0c0.5,0,1-0.1,1.5-0.1L50.5,21.3z"/>
			<path fill="#A37838" d="M50.5,21.3L47.6,22c-0.5,0.1-1,0.1-1.5,0.1c-11.2,1-15.8-1-17.8-3.1c-1-1-1.4-2.1-1.7-2.9
				c-0.1-0.4-0.2-0.8-0.2-1.3c0-0.7,0.2-1.4,0.6-2c2.3-2.9,10.5-4,16-0.1C47.9,15.9,49.9,18.9,50.5,21.3z"/>
			<path fill="#A37838" d="M24.6,28.7C24.6,28.7,24.6,28.7,24.6,28.7c-0.8,1.9-5.2-6.9,1.3-13.8l0.5,0c0,0.4,0.1,0.9,0.2,1.3
				c0.3,0.8,0.7,1.9,1.7,2.9l-0.1,0.1C28.2,19.1,27.5,25.9,24.6,28.7z"/>
		</g>
		<g>
			<path fill="none" stroke="#000000" stroke-width="2" stroke-linecap="round" stroke-linejoin="round" stroke-miterlimit="10" d="
				M24.6,28.5c0,0,0,0.1,0,0.1c0.1,7.8,5.1,14,11.3,14c6.2,0,11.2-6.2,11.3-14c0-0.1,0-0.1,0-0.2c0-1.2-0.1-2.3-0.3-3.4
				c-0.2-1.1-0.5-2.1-0.9-3"/>
			<path fill="none" stroke="#000000" stroke-width="2" stroke-linecap="round" stroke-linejoin="round" stroke-miterlimit="10" d="
				M47.7,28.8c0,0,3.9-2.9,2.8-7.4c-0.6-2.5-2.6-5.4-7.5-8.6c-5.5-4-13.7-2.8-16,0.1c-0.4,0.6-0.6,1.3-0.6,2c0,0.4,0.1,0.9,0.2,1.3
				c0.3,0.8,0.7,1.9,1.7,2.9c2,2.2,6.6,4.1,17.8,3.1c0.5,0,1-0.1,1.5-0.1"/>
			<path fill="none" stroke="#000000" stroke-width="2" stroke-linecap="round" stroke-linejoin="round" stroke-miterlimit="10" d="
				M25.9,14.8c-6.5,6.9-2.1,15.7-1.4,13.9c0,0,0.1-0.1,0.1-0.1c2.8-2.8,3.6-9.6,3.6-9.6"/>
		</g>
	</g>
	<g id="XMLID_9_">
		<g>
			<polygon fill="#3F3F3F" points="44.6,45.4 47.2,54.4 41.5,54.2 41.6,59 35.7,57.4 35.8,57.3 35.7,57.2 			"/>
			<path fill="#CFCFCE" d="M44.5,45.2l0.1,0.1l-8.8,11.8l-8.9-11.8l0.2-0.2c3.1,2,5.8,3.5,8.7,3.5c0,0,0,0,0,0h0.1
				C38.8,48.6,41.5,47.2,44.5,45.2z"/>
			<polygon fill="#3F3F3F" points="35.7,57.2 35.6,57.3 35.7,57.4 29.9,59 29.9,54.2 24.3,54.4 26.9,45.4 			"/>
		</g>
		<g>
			<path fill="none" stroke="#000000" stroke-width="2" stroke-linecap="round" stroke-linejoin="round" stroke-miterlimit="10" d="
				M16.9,58c0,0-2-13,10-13c0.1,0,0.1,0.1,0.2,0.1c3.1,2,5.8,3.5,8.7,3.5c0,0,0,0,0,0h0.1c2.9,0,5.6-1.4,8.6-3.4
				c0.1-0.1,0.2-0.1,0.3-0.2c4,0,6.4,1.4,7.9,3.4l0.8,1.3"/>
			
				<polygon fill="none" stroke="#000000" stroke-width="2" stroke-linecap="round" stroke-linejoin="round" stroke-miterlimit="10" points="
				35.7,57.2 35.8,57.3 35.7,57.4 29.9,59 29.9,54.2 24.3,54.4 26.9,45.4 			"/>
			
				<polygon fill="none" stroke="#000000" stroke-width="2" stroke-linecap="round" stroke-linejoin="round" stroke-miterlimit="10" points="
				35.7,57.2 35.6,57.3 35.7,57.4 41.6,59 41.5,54.2 47.2,54.4 44.6,45.4 			"/>
		</g>
	</g>
	<g>
		<path d="M53,58.8c-0.5,0-0.9-0.4-0.8-1l3.4-26.5L54.2,58C54.1,58.4,53.5,58.8,53,58.8L53,58.8z"/>
		<path d="M53,59.5c-0.5,0-0.9-0.2-1.2-0.5c-0.3-0.3-0.4-0.8-0.4-1.3l3.4-26.5c0.1-0.4,0.4-0.7,0.8-0.7c0.4,0,0.7,0.4,0.7,0.8
			L54.9,58C54.9,59,53.8,59.5,53,59.5z M53.8,51.6L53,57.9L53,58c0.1,0,0.3-0.1,0.4-0.2L53.8,51.6z"/>
	</g>
</g>
</svg>
