<?xml version="1.0" encoding="utf-8"?>
<!-- Generator: Adobe Illustrator 21.1.0, SVG Export Plug-In . SVG Version: 6.00 Build 0)  -->
<svg version="1.1" id="emoji" xmlns="http://www.w3.org/2000/svg" xmlns:xlink="http://www.w3.org/1999/xlink" x="0px" y="0px"
	 viewBox="0 0 72 72" enable-background="new 0 0 72 72" xml:space="preserve">
<g id="_xD83D__xDC69__x200D__xD83D__xDCBB__1_">
	<g>
		<path fill="#A37838" d="M56.8,45.6c5.7-7-2.8-7.5-2.8-7.5s0.1-0.2,0.1-0.7c0-1.6-0.2-6.2-4.2-19c-7.1-17.1-20.6-9.1-22-6.7
			c-2.3-0.9-3.3,0-5.2,5.7c-1.4,5.4-4.3,16.5-4,20.5c1-0.6-8-1.2-3.1,7.9C26.8,59.7,43.8,59.3,56.8,45.6z"/>
	</g>
	<g>
		<path fill="#FCEA2C" d="M47.4,22.3c0.2,0.7,0.4,1.4,0.5,2.1c0.2,1.1,0.3,2.3,0.3,3.5c0,8.2-5.3,14.9-11.9,14.9
			s-11.9-6.7-11.9-14.9c0-0.5,0-1,0.1-1.4l0.1,0.4c2-1,5-9.8,5-9.8s-0.7,6.4,17.8,5.6"/>
	</g>
	<g>
		<path d="M42,26.9c0,1.1-0.9,2-2,2c-1.1,0-2-0.9-2-2c0-1.1,0.9-2,2-2C41.1,24.9,42,25.8,42,26.9"/>
	</g>
	<g>
		<path d="M34,26.9c0,1.1-0.9,2-2,2c-1.1,0-2-0.9-2-2c0-1.1,0.9-2,2-2C33.1,24.9,34,25.8,34,26.9"/>
	</g>
	<g>
		<path d="M36,36.9c-1.2,0-2.3-0.3-3.4-0.9c-0.5-0.2-0.7-0.8-0.4-1.3c0.2-0.5,0.8-0.7,1.3-0.4c1.7,0.9,3.4,0.9,5.1,0
			c0.5-0.2,1.1,0,1.3,0.4c0.2,0.5,0,1.1-0.4,1.3C38.3,36.6,37.2,36.9,36,36.9z"/>
	</g>
	<g>
		<path d="M36,43.4c-6.8,0-12.3-6.8-12.3-15.2c0-0.5,0-1,0.1-1.4l2,0.2c0,0.4,0,0.9,0,1.3c0,7.3,4.6,13.2,10.3,13.2
			c5.7,0,10.3-5.9,10.3-13.2c0-1.1-0.1-2.1-0.3-3.2c-0.1-0.6-0.3-1.3-0.5-1.9l1.9-0.6c0.2,0.7,0.4,1.4,0.6,2.1
			c0.2,1.2,0.3,2.3,0.3,3.6C48.4,36.6,42.8,43.4,36,43.4z"/>
	</g>
	<g>
		<path d="M41.5,32.5h-2c-1.5,0-2.9-0.9-3.5-2.3c-0.6,1.3-1.9,2.3-3.5,2.3h-2c-2.1,0-3.8-1.7-3.8-3.8v-1.2H26c-0.6,0-1-0.4-1-1
			c0-0.6,0.4-1,1-1h1.7c0.6,0,1,0.4,1,1v2.2c0,1,0.8,1.8,1.8,1.8h2c1,0,1.8-0.8,1.8-1.8v-1.1c0-0.6,0.4-1,1-1h1.3c0.6,0,1,0.4,1,1
			v1.1c0,1,0.8,1.8,1.8,1.8h2c1,0,1.8-0.8,1.8-1.8v-2.2c0-0.6,0.4-1,1-1h1.2c0.6,0,1,0.4,1,1c0,0.6-0.4,1-1,1h-0.2v1.2
			C45.3,30.8,43.6,32.5,41.5,32.5z"/>
	</g>
	<g>
		<path d="M24.7,27.9c-0.4,0-0.7-0.2-0.9-0.6c-0.2-0.5,0-1.1,0.5-1.3c0.9-0.5,3-4.9,4.3-8.8c0.2-0.5,0.7-0.8,1.2-0.7
			c0.5,0.1,0.8,0.6,0.8,1.1l0,0c0,0,0,0.7,0.8,1.5c1.2,1.2,4.8,3.2,15.1,2.7c0.5,0,1,0.4,1,1c0,0.6-0.4,1-1,1
			c-8.6,0.4-14.3-0.8-16.8-3.5c-0.1-0.1-0.1-0.1-0.2-0.2c-1.1,2.8-2.9,6.8-4.4,7.6C25,27.8,24.9,27.9,24.7,27.9z"/>
	</g>
	<g>
		<path d="M16.3,46c-0.4,0-0.7-0.2-0.9-0.5c-1.8-3.3-2.1-5.6-1-7c0.9-1.1,2.5-1.1,3.7-1c0.2-3.4,1.6-10,4.2-19.9
			c1.4-4,2.3-5.6,3.5-6.2c0.7-0.3,1.4-0.3,2.1-0.1c1.6-1.6,5.6-3.9,10-3.6C41.5,8,46.6,10,50.1,18.5c1.8,5.7,3,10.4,3.7,13.9
			c0.1,0.4,0.5,3.3,0.8,4.9c0.9,0,2.3,0.3,3.3,1.5c0.3,0.4,0.3,1.1-0.2,1.4c-0.4,0.3-1.1,0.3-1.4-0.2c-0.8-1-2.3-0.7-2.3-0.7
			c-0.3,0.1-0.6,0-0.8-0.1s-0.4-0.4-0.4-0.7c0,0-0.8-5.2-0.9-5.8c-0.6-3.5-1.8-8-3.6-13.6c-2.5-6-6-9.2-10.5-9.5
			c-4.3-0.3-8.1,2.3-8.7,3.3c-0.2,0.4-0.8,0.6-1.2,0.4c-0.8-0.3-1-0.2-1.2-0.1c-0.8,0.4-1.7,2.7-2.5,4.9c-2.9,11-4.3,18-4.1,20.5
			c0,0.3-0.1,0.7-0.4,0.9c-0.3,0.2-0.6,0.3-0.9,0.2c-0.9-0.3-2.4-0.4-2.8,0.1c-0.1,0.2-0.7,1.1,1.2,4.7c0.3,0.5,0.1,1.1-0.4,1.4
			C16.6,46,16.4,46,16.3,46z"/>
	</g>
	<g>
		<path fill="#90D2F4" d="M17.2,58.6c0,0-2-13.5,10-13.5c3.2,2.1,5.9,3.6,9,3.6h-0.1c3.1,0,4.7-2.2,7.9-4.3
			c15.6,0,11.5,14.2,11.5,14.2"/>
	</g>
	<g>
		<polygon fill="#FFFFFF" points="35.5,55.3 32.2,51.4 29,47.4 35.5,47.4 42,47.4 38.7,51.4 		"/>
	</g>
	<g>
		<path fill="#5AA8D4" d="M26.5,44.7c0,0-5.9,4-2.2,7.5h4.6l-0.8,3.7l7.9,2l0.3-2.5L27.9,45"/>
	</g>
	<g>
		<path d="M16.9,58.7c-0.5,0-0.9-0.4-1-0.8c0-0.3-1-6.6,2.6-10.8c1.9-2.2,4.8-3.4,8.4-3.4c0.2,0,0.4,0.1,0.6,0.2
			c3.2,2.1,5.7,3.4,8.4,3.4h0c0.6,0,1,0.4,1,1c0,0.6-0.4,1-1,1c0,0,0,0,0,0h-0.1c0,0,0,0,0,0c-3.1,0-5.8-1.4-9.1-3.6
			c-2.9,0.1-5.1,1-6.6,2.7c-3,3.4-2.1,9.1-2.1,9.2c0.1,0.5-0.3,1.1-0.8,1.1C17,58.7,16.9,58.7,16.9,58.7z"/>
	</g>
	<g>
		<path d="M33.9,55.1c-0.3,0-0.6-0.1-0.8-0.4l-7.3-9.1c-0.3-0.4-0.3-1.1,0.2-1.4c0.4-0.3,1.1-0.3,1.4,0.2l7.3,9.1
			c0.3,0.4,0.3,1.1-0.2,1.4C34.4,55,34.2,55.1,33.9,55.1z"/>
	</g>
	<g>
		<path d="M33,57.2c-0.1,0-0.1,0-0.2,0L27.8,56c-0.3-0.1-0.5-0.2-0.6-0.5c-0.1-0.2-0.2-0.5-0.1-0.8l0.5-1.6h-3.2
			c-0.3,0-0.5-0.1-0.7-0.3c-1.4-1.3-1.6-2.6-1.6-3.6c0.2-2.9,3.5-5.2,3.8-5.5c0.5-0.3,1.1-0.2,1.4,0.3c0.3,0.5,0.2,1.1-0.3,1.4
			c-0.8,0.5-2.8,2.3-3,4c0,0.6,0.2,1.1,0.7,1.7h4.2c0.3,0,0.6,0.1,0.8,0.4c0.2,0.3,0.2,0.6,0.2,0.9l-0.5,1.8l3.9,0.9
			c0.5,0.1,0.9,0.7,0.8,1.2C33.8,56.8,33.4,57.2,33,57.2z"/>
	</g>
	<g>
		<g id="XMLID_5_">
			<g>
				<polygon fill="#CFCFCE" points="67,43.2 60.1,59.6 35.1,59.6 42,43.2 				"/>
			</g>
		</g>
		<g id="XMLID_3_">
			<g>
				<polygon fill="#9A9B99" points="67.3,43.2 60.3,59.6 60.1,59.6 51.3,59.6 58.3,43.2 67,43.2 				"/>
			</g>
		</g>
		<g id="XMLID_2_">
			<g>
				
					<polygon fill="none" stroke="#000000" stroke-width="2" stroke-linecap="round" stroke-linejoin="round" stroke-miterlimit="10" points="
					35.1,59.6 60.1,59.6 67,43.2 42,43.2 				"/>
				
					<line fill="none" stroke="#000000" stroke-width="2" stroke-linecap="round" stroke-linejoin="round" stroke-miterlimit="10" x1="24.1" y1="59.6" x2="35.1" y2="59.6"/>
			</g>
		</g>
	</g>
</g>
</svg>
