<svg id="emoji" viewBox="0 0 72 72" xmlns="http://www.w3.org/2000/svg">
  <g id="color">
    <path fill="#d22f27" d="m25.5011,34.5613c2.9156,2.3721,5.4581,5.3848,6.7637,9.1491,4.3333,12.4937,1.0296,12.7289,4.3333,17.3456,3.9794,5.5609,40.7244,5.1768,23.375-7.0795,0,0-12.2541,2.9795-16.9395-1.3551,0,0-5.428-17.9558-26.1409-38.379,0,0-4.5005,2.3277-6.2424,8.0451,0,0-1.1042,1.8496.5599,3.8163,1.5566,1.8397,14.2909,8.4575,14.2909,8.4575Z"/>
    <path fill="#d22f27" d="m25.1077,35.453c2.9156,2.3721,5.8515,4.4931,7.1571,8.2574,4.3333,12.4937,1.0296,12.7289,4.3333,17.3456,3.7635,5.2592,36.8343,5.201,25.7347-5.1888-1.2857-1.2035-3.0747-1.6967-4.8131-1.4148-2.9056.4711-7.8134.9701-11.482-.1862-1.674-.5276-3.0082-1.79-3.6383-3.4282-1.7731-4.6093-7.5973-17.608-21.5715-32.5555-2.5696-2.7485-5.8837-2.4176-7.8364.7986-.041.0676-.0817.1359-.122.2051-.9074,1.5579-2.2426,3.4668-1.5357,5.1254.0374.0878.0751.1755.1129.2627.5351,1.2342,13.6611,10.7787,13.6611,10.7787Z"/>
    <path fill="#3f3f3f" d="m19.962,33.0858l-2,27.8725h-3.8393v-28.8725l-2.9125-5.982s6.6505,3.8112,10.5259,6.9115l-1.7741.0705Z"/>
  </g>
  <g id="line">
    <path fill="none" stroke="#000" stroke-linecap="round" stroke-linejoin="round" stroke-width="2" d="m19.962,33.0858l-2,27.8725h-3.8393v-28.8725l-2.9125-5.982s6.6505,3.8112,10.5259,6.9115l-1.7741.0705Z"/>
    <path fill="none" stroke="#000" stroke-linecap="round" stroke-linejoin="round" stroke-width="2" d="m25.5011,34.5613c2.9156,2.3721,5.4581,5.3848,6.7637,9.1491,4.3333,12.4937,1.0296,12.7289,4.3333,17.3456,3.9794,5.5609,40.7244,5.1768,23.375-7.0795,0,0-12.2541,2.9795-16.9395-1.3551,0,0-5.428-17.9558-26.1409-38.379,0,0-4.5005,2.3277-6.2424,8.0451"/>
    <path fill="none" stroke="#000" stroke-linecap="round" stroke-linejoin="round" stroke-width="2" d="m25.5011,34.5613c2.9156,2.3721,5.4581,5.3848,6.7637,9.1491,4.3333,12.4937,1.0296,12.7289,4.3333,17.3456,3.9794,5.5609,40.7244,5.1768,23.375-7.0795,0,0-12.2541,2.9795-16.9395-1.3551,0,0-5.428-17.9558-26.1409-38.379,0,0-4.5005,2.3277-6.2424,8.0451"/>
  </g>
</svg>
