<svg version="1.1" id="emoji" xmlns="http://www.w3.org/2000/svg" x="0" y="0" viewBox="0 0 72 72" enable-background="new 0 0 72 72" xml:space="preserve">
  <g id="color">
    <rect x="21.12" y="47.0253" fill="#92D3F5" stroke="#92D3F5" stroke-width="0.5" stroke-linecap="round" stroke-linejoin="round" stroke-miterlimit="10" width="29.4313" height="10.4592"/>
    <ellipse fill="#FCEA2B" cx="21.7606" cy="24.4741" rx="8.655" ry="11.2891"/>
    <path fill="#A57939" d="M10.8478,19.2058c0.6413-8.7163,7.2257-8.8092,10.5365-8.2787c0.3214,0.0515,1.2221,0.0354,1.5052,0 c6.0208-0.7526,9.0313,6.0208,9.0313,9.0313c0,1.0649,0,3.763-1.5052,5.2682c0,0-3.4469-4.1722-3.605-6.6018 c0,0-11.4471,4.3439-12.1998,0.5809c0,0-0.7526,3.0104-1.5052,3.763c0,0,0,2.2578,0,3.0104 C13.1056,25.9793,10.5717,22.9587,10.8478,19.2058z"/>
    <path fill="#92D3F5" d="M30.92,49.94v6.91l4.32,1.47V61H7V45.15c0-3.57,3.98-6.67,7.11-6.82c4.69,4.03,10.18,2.63,14.89-0.58 c3.14,0.15,6.24,3.61,6.24,7.18v5.22L30.92,49.94z"/>
    <path fill="#A57939" d="M63.0129,38.4793c0.1893-0.0996,3.9869-3.2393,1.6027-6.7908c-0.3465-0.672-1.7107-4.6943-1.9732-5.4032 c-1.1623-2.5757-1.5973-3.539-1.8539-8.2895c0.0213-2.9091-2.2066-5.3438-5.1125-5.587c-0.2099-0.0143-0.4055-0.1115-0.5432-0.2702 c-0.0734-0.0788-1.9021-2.0913-5.7197-2.0913c-4.8954,0-9.0336,2.6639-10.0616,6.4795c-0.4216,1.5851-0.5721,3.2297-0.4453,4.8647 c0.1608,1.5903-0.0447,3.1963-0.6009,4.6954c-0.1959,0.5955-0.495,1.1522-0.8835,1.6447 c-2.9791,3.4808-1.1465,10.5494-1.2989,10.3186C36.1227,38.05,48.6672,50.1408,63.0129,38.4793z"/>
    <path fill="#92D3F5" stroke="#92D3F5" stroke-width="0.5" stroke-linecap="round" stroke-linejoin="round" stroke-miterlimit="10" d="M65.22,60.69H36l0.15-2.23l4.48-1.14v-6.91l-3.94-0.19l0.37-5.51c0-3.55,3.42-6.23,6.58-6.38c4.73,4,9.51,4,14.23,0 c3.16,0.15,6.59,2.83,6.59,6.38L65.22,60.69z"/>
    <path fill="#FCEA2B" d="M42.5834,25.3223c0,6.0208,3.763,10.5365,8.2787,10.5365s8.2787-4.5156,8.2787-10.5365 c0-3.763-1.5052-6.0208-4.5156-9.0313c-3.0104,3.0104-12.0417,6.7734-12.0417,8.2787L42.5834,25.3223L42.5834,25.3223z"/>
    <ellipse fill="#FCEA2B" cx="35.7606" cy="43.4741" rx="7.2394" ry="8.4741"/>
    <path fill="#A57939" d="M33.0416,39.3489c0.5237,4.0533,5.0062-1.0494,5.0062-1.0494c0.6126,1.8967,4.9375,4.6612,4.9375,4.6612 c1.1519-1.1519,0.5868-3.438,0.4152-4.2347c-0.3427-1.5917-1.8723-5.5345-6.48-4.9585c-0.2167,0.0271-0.906,0.0394-1.1519,0 c-2.5337-0.406-6.7281-0.1788-7.9437,5.5963c-0.5932,2.8181,0.6962,3.5969,0.6962,3.5969S32.7205,36.8633,33.0416,39.3489z"/>
    <path fill="#B1CC33" d="M24.8598,61v-1.3259c0-3.1656,2.8833-5.705,5.7585-5.705c3.4551,3.1694,6.9102,3.1694,10.3653,0 c2.8758,0,5.7585,2.5393,5.7585,5.705V61"/>
  </g>
  <g id="hair"/>
  <g id="skin"/>
  <g id="skin-shadow"/>
  <g id="line">
    <path fill="none" stroke="#000000" stroke-width="2" stroke-miterlimit="10" d="M30.4156,24.4741 c0,6.2348-3.875,11.2891-8.655,11.2891s-8.655-5.0543-8.655-11.2891"/>
    <path fill="none" stroke="#000000" stroke-width="2" stroke-linecap="round" stroke-linejoin="round" d="M10.8478,19.2058 c0.6413-8.7163,7.2257-8.8092,10.5365-8.2787c0.3214,0.0515,1.2221,0.0354,1.5052,0c6.0208-0.7526,9.0313,6.0208,9.0313,9.0313 c0,1.0649,0,3.763-1.5052,5.2682c0,0-3.4469-4.1722-3.605-6.6018c0,0-11.4471,4.3439-12.1998,0.5809 c0,0-0.7526,3.0104-1.5052,3.763c0,0,0,2.2578,0,3.0104C13.1056,25.9793,10.5717,22.9587,10.8478,19.2058z"/>
    <path fill="none" stroke="#000000" stroke-width="2" stroke-linecap="round" stroke-linejoin="round" d="M7,60V45.6293 c0-3.7719,3.7817-6.7976,7.5529-6.7976c3.1193,2.5994,6.2387,3.4096,9.358,2.4305"/>
    <path d="M26,25.1854c0,0.7706-0.6247,1.3952-1.3952,1.3952c-0.7706,0-1.3952-0.6247-1.3952-1.3952 c0-0.7706,0.6247-1.3952,1.3952-1.3952C25.3753,23.7901,26,24.4148,26,25.1854"/>
    <path d="M20.4191,25.1854c0,0.7706-0.6247,1.3952-1.3952,1.3952c-0.7706,0-1.3952-0.6247-1.3952-1.3952 c0-0.7706,0.6247-1.3952,1.3952-1.3952C19.7945,23.7901,20.4191,24.4148,20.4191,25.1854"/>
    <path fill="none" stroke="#000000" stroke-width="2" stroke-linecap="round" stroke-linejoin="round" d="M19.7215,30.9406 c1.308,0.6976,2.8776,0.6976,4.1857,0"/>
    <path fill="none" stroke="#000000" stroke-width="2" stroke-linecap="round" stroke-linejoin="round" d="M37.1652,30.0624 c0.4629-1.3411,1.131-2.6408,1.6551-3.9875c1.2305-3.1609-0.1573-4.8551,0.9716-9.0569c1.1131-4.1393,5.4767-6.7479,10.3175-6.7479 c4.0641,0,6.0208,2.2578,6.0208,2.2578c3.1375,0.2815,5.5489,2.8987,5.573,6.0487c0.2913,5.4037,0.7707,5.3826,2.5807,9.6499 c1.1885,2.7511,0.8754,5.8948-0.7749,8.342"/>
    <path fill="none" stroke="#000000" stroke-width="2" stroke-linecap="round" stroke-linejoin="round" d="M56.8829,12.6449"/>
    <path fill="none" stroke="#000000" stroke-width="2" stroke-linecap="round" stroke-linejoin="round" d="M47.6176,41.1006 c3.2765,1.2179,6.553,0.4616,9.8295-2.2689c3.7719,0,7.5529,3.0257,7.5529,6.7976V60"/>
    <path fill="none" stroke="#000000" stroke-width="2" stroke-miterlimit="10" d="M42.5834,25.3223 c0,6.0208,3.763,10.5365,8.2787,10.5365s8.2787-4.5156,8.2787-10.5365c0-3.763-1.5052-6.0208-4.5156-9.0313 c-3.0104,3.0104-12.0417,6.7734-12.0417,8.2787L42.5834,25.3223L42.5834,25.3223z"/>
    <path d="M55,25.1854c0,0.7706-0.6247,1.3952-1.3952,1.3952c-0.7706,0-1.3952-0.6247-1.3952-1.3952 c0-0.7706,0.6247-1.3952,1.3952-1.3952C54.3753,23.7901,55,24.4148,55,25.1854"/>
    <path d="M49.4191,25.1854c0,0.7706-0.6247,1.3952-1.3952,1.3952c-0.7706,0-1.3952-0.6247-1.3952-1.3952 c0-0.7706,0.6247-1.3952,1.3952-1.3952C48.7945,23.7901,49.4191,24.4148,49.4191,25.1854"/>
    <path fill="none" stroke="#000000" stroke-width="2" stroke-linecap="round" stroke-linejoin="round" d="M48.7215,30.9406 c1.308,0.6976,2.8776,0.6976,4.1857,0"/>
    <path fill="none" stroke="#000000" stroke-width="2" stroke-miterlimit="10" d="M42.9869,42.9606 C42.9956,43.1305,43,43.3017,43,43.4741c0,4.6801-3.2412,8.4741-7.2394,8.4741s-7.2394-3.794-7.2394-8.4741 c0-0.1147,0.0019-0.2289,0.0058-0.3424"/>
    <path d="M38.9429,44.008c0,0.5784-0.4689,1.0473-1.0473,1.0473s-1.0473-0.4689-1.0473-1.0473s0.4689-1.0473,1.0473-1.0473 S38.9429,43.4296,38.9429,44.008"/>
    <path d="M34.7536,44.008c0,0.5784-0.4689,1.0473-1.0473,1.0473s-1.0473-0.4689-1.0473-1.0473s0.4689-1.0473,1.0473-1.0473 S34.7536,43.4296,34.7536,44.008"/>
    <path fill="none" stroke="#000000" stroke-width="2" stroke-linecap="round" stroke-linejoin="round" d="M34.23,48.0851 c0.9819,0.8079,2.1601,0.8079,3.1419,0"/>
    <path fill="none" stroke="#000000" stroke-width="2" stroke-linecap="round" stroke-linejoin="round" d="M33.0416,39.3489 c0.5237,4.0533,5.0062-1.0494,5.0062-1.0494c0.6126,1.8967,4.9375,4.6612,4.9375,4.6612c1.1519-1.1519,0.5868-3.438,0.4152-4.2347 c-0.3427-1.5917-1.8723-5.5345-6.48-4.9585c-0.2167,0.0271-0.906,0.0394-1.1519,0c-2.5337-0.406-6.7281-0.1788-7.9437,5.5963 c-0.5932,2.8181,0.6962,3.5969,0.6962,3.5969S32.7205,36.8633,33.0416,39.3489z"/>
    <path fill="none" stroke="#000000" stroke-width="2" stroke-linecap="round" stroke-linejoin="round" d="M24.8598,60v-1.1374 c0-2.7154,2.8833-4.8936,5.7585-4.8936c3.4551,2.7186,6.9102,2.7186,10.3653,0c2.8758,0,5.7585,2.1782,5.7585,4.8936V60"/>
  </g>
</svg>
