<svg id="emoji" xmlns="http://www.w3.org/2000/svg" viewBox="0 0 72 72">
  <g id="color">
    <path d="M36.2694,61.0473V59.9927a4.8923,4.8923,0,0,1,4.8977-4.5376q4.4081,3.7812,8.8159,0a4.8919,4.8919,0,0,1,4.8978,4.5376v1.0546Z" fill="#b1cc33"/>
    <path d="M12.0848,47.3842c0-2.9337,2.8228-5.1484,5.4233-5.2724,3.8843,3.3056,7.9634,4.1147,11.8559.8091,2.6006.124,4.7559,1.7817,4.7559,4.7153l.1576,4.9405s-.0005.3379-.0005,4.1216c-6.2853,1.1254-6.2675-.3916-8.0608-.8761-5.59-1.51-7.3443,3.2955-6.0874,4.3188l-8.6694-.0127Z" fill="#92d3f5" stroke="#92d3f5" stroke-linecap="round" stroke-linejoin="round" stroke-width="1.6"/>
    <path d="M35.544,61.0236V59.969a4.8922,4.8922,0,0,0-4.8977-4.5375q-4.4079,3.7812-8.8159,0a4.8919,4.8919,0,0,0-4.8977,4.5376v1.0545Z" fill="#b1cc33"/>
  </g>
  <g id="skin">
    <path d="M31.0573,29.426v-.6682c0-1.3366-8.019-4.6778-10.6919-7.3508-2.673,2.6731-4.01,4.6778-4.01,8.019,0,5.3461,3.3412,9.3555,7.3508,9.3555s7.3507-4.01,7.3507-9.3555Z" fill="#fcea2b"/>
    <path d="M19.1407,47.3654a7.4621,7.4621,0,0,0,2.605,5.7526,6.29,6.29,0,0,0,2.3308,1.2565l.2742.0769a6.389,6.389,0,0,0,1.4077.1624,6.001,6.001,0,0,0,.9689-.0769c.1462-.0256.2833-.0513.42-.0855a6.2486,6.2486,0,0,0,2.8793-1.5556,7.52,7.52,0,0,0,2.3491-5.53,6.9387,6.9387,0,0,0-1.4534-4.385,6.4224,6.4224,0,0,0-5.1-2.3934,6.5588,6.5588,0,0,0-5.6306,3.043A6.8559,6.8559,0,0,0,19.1407,47.3654Z" fill="#fcea2b"/>
    <path d="M52.6728,47.389a7.4619,7.4619,0,0,1-2.6051,5.7526,6.286,6.286,0,0,1-2.3308,1.2565l-.2742.077a6.3934,6.3934,0,0,1-1.4076.1624,6.001,6.001,0,0,1-.9689-.0769c-.1463-.0257-.2834-.0513-.42-.0855a6.2493,6.2493,0,0,1-2.8792-1.5557,7.5189,7.5189,0,0,1-2.3491-5.53,6.94,6.94,0,0,1,1.4533-4.385,6.4224,6.4224,0,0,1,5.1-2.3934,6.5588,6.5588,0,0,1,5.63,3.043A6.8551,6.8551,0,0,1,52.6728,47.389Z" fill="#fcea2b"/>
  </g>
  <g id="hair">
    <path d="M35.64,31.5653a4.7586,4.7586,0,0,1-.7845-1.46,9.2956,9.2956,0,0,1-.5335-4.1691,12.923,12.923,0,0,0-.3954-4.3194c-.9128-3.3879-4.5872-5.7532-8.9338-5.7532A6.9071,6.9071,0,0,0,19.9145,17.72a.7014.7014,0,0,1-.4823.24,4.9465,4.9465,0,0,0-4.5394,4.9607c-.225,4.1648-.6043,5.0513-1.6073,7.2745-.0248.0549-.0465.1063-.067.163-.289.8-1.427,4.1447-1.7238,4.72-1.6067,2.3934-.0038,4.9039.9357,6.0137a2.3544,2.3544,0,0,0,1.3547.79c1.6813.32,3.1489-.1191,4.1828.1948,2.0284.6158,2.9992,1.9812,5.0746,2.0786,1.1563.0543,2.2816-.86,3.354-.9692,4.1616-.4246,7.5648-.9991,9.2514-1.84a2.4019,2.4019,0,0,0,1.3221-1.817C37.2406,37.59,37.5259,33.7683,35.64,31.5653Zm-6.89,4.7038c-1.3386,3.0954-5.8144,2.1333-7.4876,2.1333s-2.05-1.7568-3.5974-3.8065-.9621-5.2706-.5438-7.7386a7.5058,7.5058,0,0,1,1.8824-3.5237,2.4026,2.4026,0,0,1,2.7169-.6143c3.234,1.3386,9.1643,5.858,9.3361,6.7067.2159,1.0628-.9674,3.7477-2.3059,6.8431Z" fill="#a57939"/>
    <path d="M26.0567,42.5994a8.7916,8.7916,0,0,0-5.2439,5.9436,9.5693,9.5693,0,0,0-.6747,3.6866,4.1816,4.1816,0,0,1-3.8022-1.4541,7.23,7.23,0,0,0,2.1464-3.1375c-1.0617-11.2264,7.4809-8.492,7.4809-8.492h0s8.22-2.5262,7.6679,8.492a7.23,7.23,0,0,0,2.1464,3.1375A4.1816,4.1816,0,0,1,31.9752,52.23a9.523,9.523,0,0,0-.6747-3.6866A9.1366,9.1366,0,0,0,26.0567,42.6" fill="#a57939"/>
    <path d="M45.7567,42.623a8.7919,8.7919,0,0,1,5.244,5.9437,9.5711,9.5711,0,0,1,.6746,3.6866,4.1821,4.1821,0,0,0,3.8023-1.4541,7.2291,7.2291,0,0,1-2.1465-3.1375C54.3928,36.4353,45.85,39.17,45.85,39.17h0s-8.22-2.5262-7.6679,8.4921A7.2291,7.2291,0,0,1,36.0356,50.8a4.1819,4.1819,0,0,0,3.8024,1.4541,9.5232,9.5232,0,0,1,.6746-3.6866,9.1373,9.1373,0,0,1,5.2438-5.9437" fill="#a57939"/>
  </g>
  <g id="line">
    <path d="M11.3487,60.6535v-12.76c0-3.319,3.2972-5.9873,6.6161-6.035.03-.0005.06-.0008.09-.0007a11.94,11.94,0,0,0,1.109.8224" fill="none" stroke="#000" stroke-linecap="round" stroke-linejoin="round" stroke-width="2"/>
    <g>
      <path d="M12.4772,39.4117a7.7523,7.7523,0,0,1-.688-7.407c1.6071-3.789,2.0328-3.77,2.2914-8.5682a5.4342,5.4342,0,0,1,4.9484-5.3708,7.2353,7.2353,0,0,1,5.3459-2.0047c4.2982,0,8.1727,2.3162,9.161,5.9916,1.0024,3.7308-.23,5.2351.8627,8.0417.4654,1.1957,1.0586,2.35,1.47,3.54" fill="none" stroke="#000" stroke-linecap="round" stroke-linejoin="round" stroke-width="2"/>
      <path d="M31.0573,29.426v-.6682c0-1.3366-8.019-4.6778-10.6919-7.3508-2.673,2.6731-4.01,4.6778-4.01,8.019,0,5.3461,3.3412,9.3555,7.3508,9.3555s7.3507-4.01,7.3507-9.3555Z" fill="none" stroke="#000" stroke-miterlimit="10" stroke-width="1.6"/>
      <path d="M20.0325,29.3045a1.2388,1.2388,0,1,1,1.2388,1.2388,1.2388,1.2388,0,0,1-1.2388-1.2388h0"/>
      <path d="M24.9878,29.3045a1.2389,1.2389,0,1,1,1.239,1.2388h0a1.2387,1.2387,0,0,1-1.2388-1.2386v0"/>
      <path d="M21.8907,34.4146a3.9489,3.9489,0,0,0,3.7165,0" fill="none" stroke="#000" stroke-linecap="round" stroke-linejoin="round" stroke-width="1.6"/>
    </g>
    <g>
      <path d="M20.5557,51.9256l-2.6791.0795-.3913.0079S19.7988,52.6334,20.5557,51.9256Z" fill="#fff"/>
      <path d="M20.7,55.3059a7.8085,7.8085,0,0,1-2.8237,1.2964,3.7375,3.7375,0,0,1-.3913.0716Z" fill="#fff"/>
      <path d="M17.4853,58.44l.3913-.1272" fill="none"/>
      <path d="M20.7781,50.3055a9.668,9.668,0,0,0,2.05,3.15,5.8528,5.8528,0,0,0,2.1688,1.1692l.2551.0715a5.9487,5.9487,0,0,0,1.31.1512,5.59,5.59,0,0,0,.9015-.0716c.1361-.0239.2637-.0478.3912-.08a5.8138,5.8138,0,0,0,2.6792-1.4475,9.5249,9.5249,0,0,0,1.7591-2.7806" fill="none" stroke="#000" stroke-miterlimit="10" stroke-width="1.6"/>
      <path d="M23.78,47.6a.8928.8928,0,1,0,.9506-.831q-.03-.002-.06-.002A.8633.8633,0,0,0,23.78,47.6Z"/>
      <path d="M27.3434,47.6a.8928.8928,0,1,0,.9506-.831c-.02-.0013-.04-.002-.06-.002A.8633.8633,0,0,0,27.3434,47.6Z"/>
      <path d="M27.7887,50.8432a2.093,2.093,0,0,1-2.6722,0" fill="none" stroke="#000" stroke-linecap="round" stroke-linejoin="round" stroke-width="1.6"/>
      <path d="M17.1487,60.32v-.9067c0-2.02,2.1518-3.6747,4.44-3.8655a4.4319,4.4319,0,0,1,.4593-.0239,2.2575,2.2575,0,0,0,.2467.167,7.7005,7.7005,0,0,0,2.8662,1.3124.0124.0124,0,0,0,.017,0,5.7557,5.7557,0,0,0,2.2114.0636,3.7309,3.7309,0,0,0,.3912-.0716,7.809,7.809,0,0,0,2.8238-1.2964c.085-.0557.17-.1114.2551-.175a4.4319,4.4319,0,0,1,.4593.0239c2.2879.1908,4.44,1.8452,4.44,3.8655V60.32" fill="none" stroke="#000" stroke-linecap="round" stroke-linejoin="round" stroke-width="1.6"/>
      <path d="M35.7773,50.363A7.9618,7.9618,0,0,1,34.12,47.6362a18.0332,18.0332,0,0,0-.0186-2.2611c-.2884-3.9267-1.9819-5.5365-3.7034-6.1506" fill="none" stroke="#000" stroke-linecap="round" stroke-linejoin="round" stroke-width="1.6"/>
      <path d="M30.3979,39.2245a6.3053,6.3053,0,0,0-2.0285-.3257,7.21,7.21,0,0,0-1.9168.2513,7.75,7.75,0,0,0-3.1079-.0187,5.0933,5.0933,0,0,0-4.0105,3.657,8.4812,8.4812,0,0,0-.307,1.3119,14.0989,14.0989,0,0,0-.0558,3.5359,7.1975,7.1975,0,0,1-2.1495,3.1358,4.663,4.663,0,0,0,1.647,1.219,3.5074,3.5074,0,0,0,.884.27h.0186a3.5923,3.5923,0,0,0,1.2562-.0279,6.08,6.08,0,0,1,.2233-1.9819c.093-.4653.2419-1.0329.4466-1.7122a11.0141,11.0141,0,0,1,1.2376-2.7077,8.3082,8.3082,0,0,1,4.0105-3.2289,8.4357,8.4357,0,0,1,4.3175,3.8151,10.7877,10.7877,0,0,1,.9305,2.1215,9.607,9.607,0,0,1,.67,3.6941,3.948,3.948,0,0,0,3.3691-1.02" fill="none" stroke="#000" stroke-linecap="round" stroke-linejoin="round" stroke-width="1.6"/>
    </g>
    <g>
      <path d="M51.2577,51.9492l2.6792.08.3912.008S52.0147,52.657,51.2577,51.9492Z" fill="#fff"/>
      <path d="M51.1131,55.33a7.8075,7.8075,0,0,0,2.8238,1.2965,3.7306,3.7306,0,0,0,.3912.0715Z" fill="#fff"/>
      <path d="M54.3281,58.4633l-.3912-.1273" fill="none"/>
      <path d="M51.0353,50.3291a9.6638,9.6638,0,0,1-2.05,3.15,5.8528,5.8528,0,0,1-2.1688,1.1692l-.2552.0716a5.9486,5.9486,0,0,1-1.31.1511A5.586,5.586,0,0,1,44.35,54.8c-.136-.0239-.2636-.0477-.3912-.0795A5.8148,5.8148,0,0,1,41.28,53.2727a9.5228,9.5228,0,0,1-1.7591-2.7806" fill="none" stroke="#000" stroke-miterlimit="10" stroke-width="1.6"/>
      <path d="M48.0331,47.6241a.8928.8928,0,1,1-.9506-.831q.03-.002.06-.002A.8633.8633,0,0,1,48.0331,47.6241Z"/>
      <path d="M44.47,47.6241a.8928.8928,0,1,1-.9506-.831q.03-.002.06-.002A.8633.8633,0,0,1,44.47,47.6241Z"/>
      <path d="M44.0247,50.8669a2.0934,2.0934,0,0,0,2.6723,0" fill="none" stroke="#000" stroke-linecap="round" stroke-linejoin="round" stroke-width="1.6"/>
      <path d="M54.6647,60.3436v-.9067c0-2.02-2.1518-3.6746-4.44-3.8655a4.4319,4.4319,0,0,0-.4593-.0239,2.2475,2.2475,0,0,1-.2466.1671,7.7008,7.7008,0,0,1-2.8663,1.3123.0124.0124,0,0,1-.017,0,5.7517,5.7517,0,0,1-2.2114.0636,3.7306,3.7306,0,0,1-.3912-.0715A7.8068,7.8068,0,0,1,41.21,55.7225c-.0851-.0557-.17-.1113-.2552-.175a4.4319,4.4319,0,0,0-.4593.0239c-2.2879.1909-4.44,1.8452-4.44,3.8655v.9067" fill="none" stroke="#000" stroke-linecap="round" stroke-linejoin="round" stroke-width="1.6"/>
      <path d="M36.2687,51.4709a3.83,3.83,0,0,0,3.0811.7857,9.6051,9.6051,0,0,1,.67-3.6941,10.7741,10.7741,0,0,1,.9305-2.1216,8.4351,8.4351,0,0,1,4.3175-3.815,8.3085,8.3085,0,0,1,4.0105,3.2288,11.0091,11.0091,0,0,1,1.2375,2.7078c.2047.6792.3536,1.2468.4467,1.7121a6.0832,6.0832,0,0,1,.2233,1.982,3.5972,3.5972,0,0,0,1.2562.0279h.0186a3.5156,3.5156,0,0,0,.884-.27,4.6633,4.6633,0,0,0,1.6469-1.2189A7.1981,7.1981,0,0,1,52.8421,47.66a14.1036,14.1036,0,0,0-.0558-3.5359c-.53-3.4057-2.531-4.606-4.3176-4.9689a7.75,7.75,0,0,0-3.1079.0186,7.21,7.21,0,0,0-1.9168-.2512,6.3053,6.3053,0,0,0-2.0285.3256" fill="none" stroke="#000" stroke-linecap="round" stroke-linejoin="round" stroke-width="1.6"/>
      <path d="M41.4155,39.2481c-1.7214.6142-3.4149,2.2239-3.7034,6.1507a18.0713,18.0713,0,0,0-.0186,2.2611,8.3435,8.3435,0,0,1-1.3859,2.438" fill="none" stroke="#000" stroke-linecap="round" stroke-linejoin="round" stroke-width="1.6"/>
    </g>
  </g>
</svg>
