<?xml version="1.0" encoding="utf-8"?>
<!-- Generator: Adobe Illustrator 21.1.0, SVG Export Plug-In . SVG Version: 6.00 Build 0)  -->
<svg version="1.1" id="emoji" xmlns="http://www.w3.org/2000/svg" xmlns:xlink="http://www.w3.org/1999/xlink" x="0px" y="0px"
	 viewBox="0 0 72 72" enable-background="new 0 0 72 72" xml:space="preserve">
<g id="_xD83D__xDC69__x200D__xD83D__xDCBC__1_">
	<path fill="#3F3F3F" d="M52,27.7c-0.1-6.6-1-15.7-8.5-15.4C41.6,7.9,18.6,2.6,19.5,28c-0.1,4.4-5.1,10.3-2.3,16.7l0,0
		c0.4,0.6,0.9,1.2,1.4,1.7c12,10.5,23.6,10.2,35.5-1l0.3-0.8C56.7,41,56.2,35.9,52,27.7z"/>
	<path fill="none" stroke="#1D1D1B" stroke-width="2" stroke-linecap="round" stroke-linejoin="round" stroke-miterlimit="10" d="
		M39,57.8"/>
	<path fill="none" stroke="#000000" stroke-width="2" stroke-linecap="round" stroke-linejoin="round" stroke-miterlimit="10" d="
		M18.2,44.4l-0.6-0.9c-2.7-6.1,2.5-11.7,2.6-15.8c-0.9-24.1,20.9-19,22.7-14.9c7.2-0.2,7.9,8.4,8.1,14.6c1.5,2.9,2.5,5.5,3.1,7.7"/>
	
		<path fill="#FCEA2C" stroke="#000000" stroke-width="2" stroke-linecap="round" stroke-linejoin="round" stroke-miterlimit="10" d="
		M41,15.9c-2,3.7-11.7,8.6-16.4,10.8l0.1,0c-0.1,0.7-0.1,1.4-0.1,2.1c0,7.8,5.1,14.2,11.3,14.2c6.3,0,11.3-6.3,11.3-14.2
		c0-1.2-0.1-2.3-0.3-3.4c-0.8-4-2.9-7.4-5.8-9.2"/>
	<path d="M41.9,27c0,1.1-0.9,2-2,2s-2-0.9-2-2c0-1.1,0.9-2,2-2S41.9,25.9,41.9,27"/>
	<path d="M33.9,27c0,1.1-0.9,2-2,2s-2-0.9-2-2c0-1.1,0.9-2,2-2S33.9,25.9,33.9,27"/>
	<path d="M35.9,37c-1.2,0-2.3-0.3-3.4-0.9c-0.5-0.2-0.7-0.8-0.4-1.3c0.2-0.5,0.8-0.7,1.3-0.4c1.7,0.9,3.4,0.9,5.1,0
		c0.5-0.2,1.1,0,1.3,0.4c0.2,0.5,0,1.1-0.4,1.3C38.2,36.7,37.1,37,35.9,37z"/>
	<path fill="#9A9B99" d="M16.8,58.9c0,0-1.5-13.8,10.5-13.8c3.2,2.1,5.9,3.6,9,3.6h-0.1c3.1,0,5.1-2.6,8.3-4.7
		c15.6,0,11.1,14.9,11.1,14.9"/>
	<polyline fill="#CFCFCE" points="36.6,54.2 39,57.4 45.4,44.1 52.2,53.6 40.4,58.3 	"/>
	<path fill="#FFFFFF" d="M38.5,57.7c-0.6,1-4.9,1-5.5,0l-1.8-2.4l-3.4-8.7l8,2.7l7.6-2.7l-3.3,8.7L38.5,57.7z"/>
	
		<path fill="#3F3F3F" stroke="#000000" stroke-width="2" stroke-linecap="round" stroke-linejoin="round" stroke-miterlimit="10" d="
		M33.5,48.5c0,0-1.2,6,2.3,6c3.5,0,2.3-6,2.3-6"/>
	<path fill="none" stroke="#1D1D1B" stroke-width="2" stroke-linecap="round" stroke-linejoin="round" stroke-miterlimit="10" d="
		M32.6,57.8"/>
	<path fill="none" stroke="#1D1D1B" stroke-width="2" stroke-linecap="round" stroke-linejoin="round" stroke-miterlimit="10" d="
		M39,57.8"/>
	
		<line fill="none" stroke="#000000" stroke-width="2" stroke-linecap="round" stroke-linejoin="round" stroke-miterlimit="10" x1="44.7" y1="55.6" x2="39" y2="57.9"/>
	<path fill="none" stroke="#000000" stroke-width="2" stroke-linecap="round" stroke-linejoin="round" stroke-miterlimit="10" d="
		M16.8,57.8c0,0-2-13,10-13c3.2,2.1,5.9,3.6,9,3.6h-0.1c3.1,0,5.8-1.5,9-3.6"/>
	<path fill="#3F3F3F" d="M35,54.8c0.3-0.6,1.1-0.6,1.5,0l2.5,4h-6.6L35,54.8z"/>
	
		<polyline fill="#CFCFCE" stroke="#000000" stroke-width="2" stroke-linecap="round" stroke-linejoin="round" stroke-miterlimit="10" points="
		34.9,54.5 32.5,57.9 26.8,44.9 22.9,53.3 32.3,57.9 	"/>
	
		<polyline fill="none" stroke="#000000" stroke-width="2" stroke-linecap="round" stroke-linejoin="round" stroke-miterlimit="10" points="
		44.7,44.8 39,57.9 36.6,54.5 	"/>
	<path fill="#CFCFCE" d="M66.1,58.4H50.6V38.6h15.3c0.1,0,0.2,0.1,0.2,0.2V58.4z"/>
	<path fill="#FFFFFF" d="M62.7,60.9H48.1V42h10.8c2.1,0,3.9,1.7,3.9,3.9V60.9z"/>
	<g>
		
			<polygon fill="none" stroke="#000000" stroke-width="2" stroke-linecap="round" stroke-linejoin="round" stroke-miterlimit="10" points="
			62.7,60.9 48.1,60.9 48.1,42.3 59.9,42.3 59.9,44.4 62.7,44.4 		"/>
		
			<polyline fill="none" stroke="#000000" stroke-width="2" stroke-linecap="round" stroke-linejoin="round" stroke-miterlimit="10" points="
			51.3,38.8 66.1,38.8 66.1,57.5 		"/>
		
			<line fill="none" stroke="#000000" stroke-width="2" stroke-linecap="round" stroke-linejoin="round" stroke-miterlimit="10" x1="59.9" y1="42.3" x2="62.7" y2="44.4"/>
		
			<line fill="none" stroke="#000000" stroke-width="2" stroke-linecap="round" stroke-linejoin="round" stroke-miterlimit="10" x1="51" y1="48.5" x2="59.4" y2="48.5"/>
		<path fill="none" stroke="#000000" stroke-width="2" stroke-linecap="round" stroke-linejoin="round" stroke-miterlimit="10" d="
			M59.4,50.5"/>
		<path fill="none" stroke="#000000" stroke-width="2" stroke-linecap="round" stroke-linejoin="round" stroke-miterlimit="10" d="
			M51,50.5"/>
		
			<line fill="none" stroke="#000000" stroke-width="2" stroke-linecap="round" stroke-linejoin="round" stroke-miterlimit="10" x1="51" y1="52.6" x2="59.4" y2="52.6"/>
		
			<line fill="none" stroke="#000000" stroke-width="2" stroke-linecap="round" stroke-linejoin="round" stroke-miterlimit="10" x1="51" y1="56.2" x2="59.4" y2="56.2"/>
	</g>
</g>
</svg>
