<?xml version="1.0" encoding="utf-8"?>
<!-- Generator: Adobe Illustrator 21.1.0, SVG Export Plug-In . SVG Version: 6.00 Build 0)  -->
<svg version="1.1" id="emoji" xmlns="http://www.w3.org/2000/svg" xmlns:xlink="http://www.w3.org/1999/xlink" x="0px" y="0px"
	 viewBox="0 0 72 72" enable-background="new 0 0 72 72" xml:space="preserve">
<g id="_xD83D__xDC69__x200D__xD83C__xDF3E__1_">
	<rect x="58.3" y="54.4" fill="#A37838" width="4" height="4.6"/>
	<path fill="#B0CB34" d="M54.8,59c0,0,2-14-10-14c-3.2,2.1-5.9,3.6-9,3.6H36c-3.1,0-5.8-1.5-9-3.6c-12,0-10,14-10,14"/>
	<rect x="22" y="45" fill="#5AA8D4" width="4.3" height="14"/>
	<rect x="44.5" y="45" fill="#5AA8D4" width="4.3" height="14"/>
	<rect x="22" y="57.3" fill="#5AA8D4" width="27.5" height="1.7"/>
	<ellipse fill="#FCEA2C" cx="36" cy="28.5" rx="11.3" ry="14.2"/>
	<path d="M41.9,27.1c0,1.1-0.9,2-2,2c-1.1,0-2-0.9-2-2c0-1.1,0.9-2,2-2C41,25.1,41.9,26,41.9,27.1"/>
	<path d="M33.9,27.1c0,1.1-0.9,2-2,2c-1.1,0-2-0.9-2-2c0-1.1,0.9-2,2-2C33,25.1,33.9,26,33.9,27.1"/>
	<path d="M35.9,37.1c-1.2,0-2.3-0.3-3.4-0.9C32,36,31.8,35.4,32,34.9c0.2-0.5,0.8-0.7,1.3-0.4c1.7,0.9,3.4,0.9,5.1,0
		c0.5-0.2,1.1,0,1.3,0.4c0.2,0.5,0,1.1-0.4,1.3C38.2,36.8,37.1,37.1,35.9,37.1z"/>
	
		<polyline fill="#5C9E32" stroke="#000000" stroke-width="2" stroke-linecap="round" stroke-linejoin="round" stroke-miterlimit="10" points="
		26.9,45.1 32.7,55.2 35.9,49.9 	"/>
	
		<polyline fill="#5C9E32" stroke="#000000" stroke-width="2" stroke-linecap="round" stroke-linejoin="round" stroke-miterlimit="10" points="
		44.9,45.1 39.1,55.2 35.9,49.9 	"/>
	<path fill="none" stroke="#000000" stroke-width="2" stroke-linecap="round" stroke-linejoin="round" stroke-miterlimit="10" d="
		M54.8,58c0,0,2-13-10-13c-3.2,2.1-5.9,3.6-9,3.6H36c-3.1,0-5.8-1.5-9-3.6c-12,0-10,13-10,13"/>
	
		<line fill="none" stroke="#000000" stroke-width="2" stroke-linecap="round" stroke-linejoin="round" stroke-miterlimit="10" x1="22" y1="45.9" x2="22" y2="58.1"/>
	
		<line fill="none" stroke="#000000" stroke-width="2" stroke-linecap="round" stroke-linejoin="round" stroke-miterlimit="10" x1="49.5" y1="45.9" x2="49.5" y2="58.1"/>
	
		<polyline fill="none" stroke="#000000" stroke-width="2" stroke-linecap="round" stroke-linejoin="round" stroke-miterlimit="10" points="
		27.2,45.2 27.2,58.1 44.6,58.1 44.6,45.2 	"/>
	<path fill="#A37838" d="M9.7,48.3c6.4-0.4,4.6-5.7,4.6-5.7S8.7,42,9.7,48.3z"/>
	<path fill="#A37838" d="M26.5,20.3l0.6,2.1h8.8H36L35.9,16h-9.5c0,0-12,8.8-7.3,17.9c-1.2-0.8-2.4-0.3-3.1,0.9
		c-0.8,1.2-0.8,2.6,0.4,3.3c-1.4,0-2.6,1.1-2.6,2.6c0,1.4,1.1,2.6,2.6,2.6c1.4,0,2.6-1.1,2.6-2.6c0.7,1.3,2,1.3,3.3,0.7
		c2-1,1.1-3.5,1.1-3.5c3.6,6.1,9.2,3.8,9.2,3.8l0,0c-4.6-1.8-7.9-7.2-7.9-13.5C24.6,25.2,25.3,22.4,26.5,20.3"/>
	<path fill="none" stroke="#000000" stroke-width="2" stroke-linecap="round" stroke-linejoin="round" stroke-miterlimit="10" d="
		M16.4,38.5c-1.2-0.8-1.2-2.1-0.4-3.3c0.8-1.2,1.9-1.7,3.1-0.9"/>
	<path fill="none" stroke="#000000" stroke-width="2" stroke-linecap="round" stroke-linejoin="round" stroke-miterlimit="10" d="
		M18.9,41c0,1.4-1.1,2.6-2.6,2.6c-1.4,0-2.6-1.1-2.6-2.6s1.1-2.6,2.6-2.6"/>
	<path fill="none" stroke="#000000" stroke-width="2" stroke-linecap="round" stroke-linejoin="round" stroke-miterlimit="10" d="
		M9.7,48.7c6.4-0.4,4.6-5.7,4.6-5.7S8.7,42.4,9.7,48.7z"/>
	<path fill="none" stroke="#000000" stroke-width="2" stroke-linecap="round" stroke-linejoin="round" stroke-miterlimit="10" d="
		M23.3,38.2c0,0,0.9,2.6-1.1,3.5c-1.3,0.6-2.6,0.6-3.3-0.7"/>
	<polyline fill="#F4AA42" points="27.1,16.4 27.1,8.2 35.8,9.6 44.6,8.2 44.6,16.4 	"/>
	<rect x="27.1" y="13" fill="#E27023" width="17.4" height="2.7"/>
	
		<polyline fill="none" stroke="#000000" stroke-width="2" stroke-linecap="round" stroke-linejoin="round" stroke-miterlimit="10" points="
		27.1,16.4 27.1,8.2 35.8,9.6 44.6,8.2 44.6,16.4 	"/>
	
		<line fill="none" stroke="#000000" stroke-width="2" stroke-linecap="round" stroke-linejoin="round" stroke-miterlimit="10" x1="27.1" y1="12.9" x2="44.6" y2="12.9"/>
	<path fill="none" stroke="#000000" stroke-width="2" stroke-linecap="round" stroke-linejoin="round" stroke-miterlimit="10" d="
		M26.4,16.4c0,0-12,8.8-7.3,17.9"/>
	<path fill="#A37838" d="M45.1,20.3l-0.6,2.1h-8.8h-0.1l0.1-6.3h10.5c0,0,3.5,2.6,6,6.5c2.1,3.2,3.9,6.7,1.8,10.8
		c1.2-0.8,4.3,2.3,2.2,4.7c2,0,2.1,1.4,1.6,2.6c0,1.4,0.3,3.6-3.3,3.6c-1.4,0-2.6-1.1-2.6-2.6c-0.7,1.3-1.3,0.3-2.6-0.3
		c-2-1-1.1-3.5-1.1-3.5c-3.6,6.1-9.2,3.8-9.2,3.8l0,0c4.6-1.8,7.9-7.2,7.9-13.5C47,25.2,46.3,22.4,45.1,20.3"/>
	<path fill="none" stroke="#000000" stroke-width="2" stroke-linecap="round" stroke-linejoin="round" stroke-miterlimit="10" d="
		M52.6,41c0,0.8,0.4,1.5,1,2"/>
	<path fill="none" stroke="#000000" stroke-width="2" stroke-linecap="round" stroke-linejoin="round" stroke-miterlimit="10" d="
		M48.3,38.2c0,0-0.9,2.6,1.1,3.5c1.3,0.6,2.6,0.6,3.3-0.7"/>
	<path fill="none" stroke="#000000" stroke-width="2" stroke-linecap="round" stroke-linejoin="round" stroke-miterlimit="10" d="
		M45.2,16.4c0,0,3,2.2,5.4,5.4"/>
	<path fill="none" stroke="#000000" stroke-width="2" stroke-linecap="round" stroke-linejoin="round" stroke-miterlimit="10" d="
		M53.1,25.1c0,0-2.4,15.4,7.1,15.7V25.1"/>
	<path fill="none" stroke="#000000" stroke-width="2" stroke-linecap="round" stroke-linejoin="round" stroke-miterlimit="10" d="
		M67.3,25.1c0,0,2.4,15.4-7.1,15.7V25.1"/>
	
		<rect x="57.6" y="40.8" fill="#9A9B99" stroke="#000000" stroke-width="2" stroke-linecap="round" stroke-linejoin="round" stroke-miterlimit="10" width="5.5" height="4.2"/>
	
		<polyline fill="#A37838" stroke="#000000" stroke-width="2" stroke-linecap="round" stroke-linejoin="round" stroke-miterlimit="10" points="
		62.3,58 62.3,45 58.3,45 58.3,58 	"/>
	
		<line fill="none" stroke="#000000" stroke-width="2" stroke-linecap="round" stroke-linejoin="round" stroke-miterlimit="10" x1="19.4" y1="16.4" x2="52" y2="16.4"/>
	<path fill="none" stroke="#000000" stroke-width="2" stroke-linecap="round" stroke-linejoin="round" stroke-miterlimit="10" d="
		M26.5,20.5c-1.2,2.3-1.9,5-1.9,7.9c0,7.8,5.1,14.2,11.3,14.2s11.3-6.3,11.3-14.2c0-2.8-0.6-5.4-1.7-7.5L45.3,20l-0.5,2.6H36h-0.1
		h-8.8L26.5,20.5"/>
</g>
</svg>
