<?xml version="1.0" encoding="utf-8"?>
<!-- Generator: Adobe Illustrator 21.1.0, SVG Export Plug-In . SVG Version: 6.00 Build 0)  -->
<svg version="1.1" id="emoji" xmlns="http://www.w3.org/2000/svg" xmlns:xlink="http://www.w3.org/1999/xlink" x="0px" y="0px"
	 viewBox="0 0 72 72" enable-background="new 0 0 72 72" xml:space="preserve">
<g id="_xD83D__xDC69__x200D__x2708__xFE0F__1_">
	<g>
		<path fill="#FFFFFF" d="M16.7,58.9c0,0-1-3.9-0.2-7.7c0.7-3.4,4.6-7.2,10.2-7.2c3.2,2.1,5.5,4.6,8.6,4.6h-0.1
			c3.1,0,6.3-1.6,9.5-3.7c11.6,0,10,13.9,10.2,14"/>
	</g>
	<g>
		<path fill="#CFCFCE" d="M44.6,49.8c4.3,2.3,4.4,6.3,4.9,9c4.2,0,5.1,0,5.1,0s1.7-4.6,0.1-8.8C53.6,47,50.3,44,45.1,44"/>
	</g>
	<g>
		<rect x="16.8" y="44.4" fill="#FCEB2F" width="7" height="3.9"/>
	</g>
	<g>
		<rect x="47.7" y="44.4" fill="#FCEB2F" width="7" height="3.9"/>
	</g>
	<g>
		<path fill="#A37938" d="M46.5,42c6.2-0.6,8.4-3.3,8.4-3.3L49,38.1c8.1-8.4-3.4-16.9-3.4-16.9H26.2c0,0-11.4,8.4-3.4,16.9l-5.6,0.6
			c0,0,1.9,2.7,8.1,3.3C25.3,43.2,46.5,43.2,46.5,42z"/>
	</g>
	<g>
		<ellipse fill="#FCEB2F" cx="35.9" cy="28.7" rx="11.3" ry="14.2"/>
	</g>
	<g id="XMLID_62_">
		<g>
			<path fill="#3F3F3F" d="M50.3,16.1c0.6,1.1,0.4,2.5-0.4,3.5l-2.2,2.7l-0.1,0.1c-1-1.6-2.3-2.5-2.3-2.5l0-0.1
				c0.5-0.3,0.9-0.8,1.3-1.2H25.4c0.3,0.3,0.7,0.6,1.1,0.9l0,0c0,0-1.2,0.9-2.2,2.4l-0.2-0.2l-1.8-2.2c-0.8-1-1-2.4-0.4-3.5
				c1.4-2.6,5-6.7,14.2-7.3C45.3,9.4,48.9,13.5,50.3,16.1z"/>
			<path fill="#A37938" d="M47.5,22.4c1.2,1.8,1.9,4.5-0.4,7.5c0,0-2.7-8-5.8-8.2c1.4-0.4,2.7-1,3.8-1.8l0,0.1
				C45.2,19.9,46.5,20.9,47.5,22.4z"/>
			<path fill="#3F3F3F" d="M33.9,22.2c-2.8-0.3-5.5-1.2-7.4-2.6c-0.4-0.3-0.8-0.6-1.1-0.9h21.1c-0.4,0.5-0.8,0.9-1.3,1.2
				c-1.1,0.8-2.4,1.4-3.8,1.8C39.1,22.4,36.5,22.5,33.9,22.2z"/>
			<path fill="#A37938" d="M33.9,22.2c-7,1.1-9.4,7.7-9.4,7.7c-2.5-3.1-1.5-6-0.3-7.9c1-1.5,2.2-2.4,2.2-2.4l0,0
				C28.4,21,31.1,21.9,33.9,22.2z"/>
		</g>
	</g>
	<g>
		<path fill="#010202" d="M42,26.8c0,1.1-0.9,2-2,2c-1.1,0-2-0.9-2-2c0-1.1,0.9-2,2-2C41.1,24.8,42,25.7,42,26.8"/>
	</g>
	<g>
		<path fill="#CFCFCE" d="M33,18.1c0-1.7,1.3-3,3-3c1.7,0,3,1.3,3,3"/>
	</g>
	<g>
		<path fill="#010202" d="M34,26.8c0,1.1-0.9,2-2,2c-1.1,0-2-0.9-2-2c0-1.1,0.9-2,2-2C33.1,24.8,34,25.7,34,26.8"/>
	</g>
	<g>
		<path fill="#010202" d="M36,36.8c-1.2,0-2.3-0.3-3.4-0.9c-0.5-0.2-0.7-0.8-0.4-1.3c0.2-0.5,0.8-0.7,1.3-0.4c1.7,0.9,3.4,0.9,5.1,0
			c0.5-0.2,1.1,0,1.3,0.4c0.2,0.5,0,1.1-0.4,1.3C38.3,36.6,37.2,36.8,36,36.8z"/>
	</g>
	<g>
		<path fill="#010202" d="M36,43.4c-6.8,0-12.3-6.8-12.3-15.2c0-0.6,0.4-1,1-1c0.6,0,1,0.4,1,1c0,7.3,4.6,13.2,10.3,13.2
			c5.7,0,10.3-5.9,10.3-13.2c0-0.6,0.4-1,1-1c0.6,0,1,0.4,1,1C48.4,36.6,42.8,43.4,36,43.4z"/>
	</g>
	<g>
		<path fill="#010202" d="M36.4,23.5c-4.7,0-9.2-1.5-11.7-4c-0.3-0.3-0.4-0.7-0.2-1.1c0.2-0.4,0.5-0.6,0.9-0.6h21.1
			c0.4,0,0.7,0.2,0.9,0.6c0.2,0.4,0.1,0.8-0.1,1.1c-2,2.4-5.7,3.9-10,4C36.9,23.5,36.6,23.5,36.4,23.5z M28.5,19.8
			c2.3,1.2,5.4,1.8,8.6,1.7c2.6-0.1,4.8-0.7,6.5-1.7H28.5z"/>
	</g>
	<g>
		<path fill="#010202" d="M47.8,23.2c-0.2,0-0.4-0.1-0.6-0.2c-0.4-0.4-0.5-1-0.1-1.4l2-2.5c0.6-0.7,0.7-1.6,0.3-2.4
			c-1.2-2.3-4.5-6.2-13.3-6.8c-8.8,0.6-12.1,4.5-13.3,6.8c-0.4,0.8-0.3,1.7,0.3,2.4l1.9,2.3c0.4,0.4,0.3,1.1-0.1,1.4
			c-0.4,0.4-1.1,0.3-1.4-0.1l-1.9-2.3c-1.1-1.3-1.3-3.1-0.5-4.6c1.4-2.7,5.2-7.2,15-7.8c0,0,0.1,0,0.1,0c9.8,0.6,13.6,5.2,15,7.8
			c0.8,1.5,0.6,3.3-0.5,4.6l-2,2.5C48.4,23.1,48.1,23.2,47.8,23.2z"/>
	</g>
	<g>
		<path fill="none" stroke="#1E1E1C" stroke-width="2" stroke-linecap="round" stroke-linejoin="round" stroke-miterlimit="10" d="
			M42.3,17.1"/>
	</g>
	<g>
		<path fill="none" stroke="#1E1E1C" stroke-width="2" stroke-linecap="round" stroke-linejoin="round" stroke-miterlimit="10" d="
			M29.7,17.1"/>
	</g>
	<g>
		<path fill="none" stroke="#1E1E1C" stroke-width="2" stroke-linecap="round" stroke-linejoin="round" stroke-miterlimit="10" d="
			M46.5,16.3"/>
	</g>
	<g>
		<path fill="#010202" d="M25.3,42.4C25.3,42.4,25.2,42.4,25.3,42.4c-6.7-0.7-8.8-3.6-8.9-3.7c-0.2-0.3-0.2-0.7-0.1-1
			c0.1-0.3,0.5-0.5,0.8-0.6l3.8-0.4c-1.4-2-2.1-4.2-1.9-6.4c0.5-5.9,6.4-10.3,6.6-10.4c0.4-0.3,1.1-0.2,1.4,0.2
			c0.3,0.4,0.2,1.1-0.2,1.4c-0.1,0-5.4,4.1-5.8,9c-0.2,2.2,0.7,4.4,2.6,6.4c0.3,0.3,0.3,0.7,0.2,1c-0.1,0.4-0.5,0.6-0.8,0.7
			l-3.2,0.3c1.2,0.6,3,1.3,5.7,1.6c0.5,0.1,1,0.5,0.9,1.1C26.2,42.1,25.8,42.4,25.3,42.4z"/>
	</g>
	<g>
		<path fill="#010202" d="M46.5,42.4c-0.5,0-0.9-0.4-1-0.9c-0.1-0.5,0.3-1,0.9-1.1c2.7-0.3,4.6-0.9,5.8-1.6l-3.3-0.3
			c-0.4,0-0.7-0.3-0.8-0.6c-0.1-0.4,0-0.8,0.2-1c1.9-2,2.8-4.1,2.6-6.4c-0.4-5-5.8-9-5.8-9c-0.4-0.3-0.5-1-0.2-1.4
			c0.3-0.4,1-0.5,1.4-0.2c0.2,0.2,6.1,4.6,6.6,10.4c0.2,2.3-0.4,4.4-1.9,6.4l4,0.4c0.4,0,0.7,0.3,0.8,0.6c0.1,0.3,0.1,0.7-0.1,1
			C55.6,38.9,53.2,41.8,46.5,42.4C46.6,42.4,46.5,42.4,46.5,42.4z"/>
	</g>
	<g>
		<path fill="#010202" d="M23.7,30.3c-0.1,0-0.1,0-0.2,0c-0.5-0.1-0.9-0.6-0.8-1.2c1-4.5,10.3-7.3,11.3-7.6c0.5-0.2,1.1,0.2,1.2,0.7
			c0.2,0.5-0.2,1.1-0.7,1.2c-3.6,1-9.4,3.6-9.9,6.1C24.6,30,24.2,30.3,23.7,30.3z"/>
	</g>
	<g>
		<path fill="#010202" d="M47.3,29c-0.3,0-0.6-0.1-0.8-0.3l-5.3-6.1c-0.4-0.4-0.3-1,0.1-1.4c0.4-0.4,1-0.3,1.4,0.1l5.3,6.1
			c0.4,0.4,0.3,1-0.1,1.4C47.8,28.9,47.6,29,47.3,29z"/>
	</g>
	<g>
		<path fill="#010202" d="M39,19.1c-0.6,0-1-0.4-1-1c0-1.1-0.9-2-2-2c-1.1,0-2,0.9-2,2c0,0.6-0.4,1-1,1c-0.6,0-1-0.4-1-1
			c0-2.2,1.8-4,4-4c2.2,0,4,1.8,4,4C40,18.6,39.6,19.1,39,19.1z"/>
	</g>
	<g>
		<polygon fill="#3F3F3F" points="35.7,50.2 39.5,58.9 35.7,58.9 31.8,58.9 		"/>
	</g>
	<g>
		<path fill="#3F3F3F" d="M33.4,48.7c0,0-1.2,5,2.3,5s2.3-5,2.3-5"/>
		<path fill="#010202" d="M35.7,54.8c-1.4,0-2.2-0.6-2.6-1.2c-1.4-1.8-0.7-4.7-0.6-5.1c0.1-0.5,0.7-0.9,1.2-0.7
			c0.5,0.1,0.9,0.7,0.7,1.2c-0.1,0.6-0.4,2.5,0.3,3.4c0.1,0.2,0.4,0.4,1.1,0.4c0.7,0,0.9-0.2,1.1-0.4c0.6-0.8,0.4-2.6,0.3-3.4
			c-0.1-0.5,0.2-1.1,0.7-1.2c0.5-0.1,1.1,0.2,1.2,0.7c0.1,0.3,0.7,3.3-0.6,5.1C37.9,54.1,37.1,54.8,35.7,54.8z"/>
	</g>
	<g>
		<path fill="#010202" d="M54.8,58.9c-0.1,0-0.1,0-0.2,0c-0.5-0.1-0.9-0.6-0.8-1.1c0,0,0.5-3.7-0.8-6.9c-0.2-0.5,0-1.1,0.5-1.3
			c0.5-0.2,1.1,0,1.3,0.5c1.5,3.7,0.9,7.8,0.9,8C55.7,58.6,55.2,58.9,54.8,58.9z"/>
	</g>
	<g>
		<path fill="#010202" d="M30.1,54.7C30.1,54.7,30,54.7,30.1,54.7c-0.5,0-0.8-0.3-0.9-0.6l-3.8-8.7c-0.1-0.3-0.1-0.6,0.1-0.9
			c0.2-0.3,0.5-0.5,0.8-0.5l0.6,0c0.2,0,0.5,0,0.6,0.2c3.2,2.1,5.7,3.4,8.4,3.4c2.7,0,5.2-1.3,8.4-3.4c0.2-0.1,0.4-0.2,0.6-0.2
			l0.7,0c0.3,0,0.6,0.2,0.8,0.5c0.2,0.3,0.2,0.6,0,0.9l-4.1,8.7c-0.2,0.3-0.5,0.6-0.9,0.6c-0.4,0-0.7-0.2-0.9-0.5l-2.9-4.9
			c-0.5,0.1-1.1,0.1-1.7,0.2c0,0,0,0-0.1,0c0,0,0,0,0,0h0c0,0,0,0,0,0c0,0,0,0,0,0c-0.5,0-1-0.1-1.6-0.1l-3.2,4.9
			C30.8,54.5,30.4,54.7,30.1,54.7z M28.3,47l2,4.6l1.8-2.8C30.9,48.4,29.6,47.8,28.3,47z M39.6,48.8l1.6,2.8l2.1-4.6
			C42.1,47.7,40.8,48.4,39.6,48.8z"/>
	</g>
	<g>
		<path fill="#010202" d="M16.9,58.9c-0.5,0-0.9-0.4-1-0.8c0-0.2-0.6-4.2,0.9-7.9c0.2-0.5,0.8-0.8,1.3-0.6c0.5,0.2,0.8,0.8,0.6,1.3
			c-1.3,3.2-0.8,6.8-0.7,6.8c0.1,0.5-0.3,1.1-0.8,1.1C17,58.9,16.9,58.9,16.9,58.9z"/>
	</g>
	<g>
		<path fill="none" stroke="#020203" stroke-width="2" stroke-linecap="round" stroke-linejoin="round" stroke-miterlimit="10" d="
			M29,56.4"/>
	</g>
	<g>
		<path fill="none" stroke="#020203" stroke-width="2" stroke-linecap="round" stroke-linejoin="round" stroke-miterlimit="10" d="
			M41.1,56.4"/>
	</g>
	<g>
		<path fill="none" stroke="#1E1E1C" stroke-width="2" stroke-linecap="round" stroke-linejoin="round" stroke-miterlimit="10" d="
			M32.6,59.7"/>
	</g>
	<g>
		<path fill="none" stroke="#1E1E1C" stroke-width="2" stroke-linecap="round" stroke-linejoin="round" stroke-miterlimit="10" d="
			M35.4,54.1"/>
	</g>
	<g>
		<path fill="#010202" d="M31.9,58.9c-0.2,0-0.4,0-0.5-0.1c-0.5-0.3-0.6-0.9-0.3-1.4l2.2-3.7c0.3-0.5,0.9-0.6,1.4-0.3
			c0.5,0.3,0.6,0.9,0.3,1.4l-2.2,3.7C32.6,58.7,32.2,58.9,31.9,58.9z"/>
	</g>
	<g>
		<path fill="#010202" d="M39.5,58.9c-0.3,0-0.7-0.2-0.9-0.5l-2.2-3.7c-0.3-0.5-0.1-1.1,0.3-1.4c0.5-0.3,1.1-0.1,1.4,0.3l2.2,3.7
			c0.3,0.5,0.1,1.1-0.3,1.4C39.8,58.8,39.6,58.9,39.5,58.9z"/>
	</g>
	<g>
		<g>
			<path fill="#020203" d="M23.7,48.2c-0.6,0-1-0.4-1-1v-2c0-0.6,0.4-1,1-1c0.6,0,1,0.4,1,1v2C24.7,47.8,24.3,48.2,23.7,48.2z"/>
		</g>
		<g>
			<path fill="#020203" d="M20.3,48.2c-0.6,0-1-0.4-1-1v-2c0-0.6,0.4-1,1-1c0.6,0,1,0.4,1,1v2C21.3,47.8,20.9,48.2,20.3,48.2z"/>
		</g>
		<g>
			<path fill="#020203" d="M16.9,48.2c-0.6,0-1-0.4-1-1v-2c0-0.6,0.4-1,1-1c0.6,0,1,0.4,1,1v2C17.9,47.8,17.5,48.2,16.9,48.2z"/>
		</g>
	</g>
	<g>
		<g>
			<path fill="#020203" d="M47.8,48.2c-0.6,0-1-0.4-1-1v-2c0-0.6,0.4-1,1-1c0.6,0,1,0.4,1,1v2C48.8,47.8,48.3,48.2,47.8,48.2z"/>
		</g>
		<g>
			<path fill="#020203" d="M51.2,48.2c-0.6,0-1-0.4-1-1v-2c0-0.6,0.4-1,1-1c0.6,0,1,0.4,1,1v2C52.2,47.8,51.7,48.2,51.2,48.2z"/>
		</g>
		<g>
			<path fill="#020203" d="M54.6,48.2c-0.6,0-1-0.4-1-1v-2c0-0.6,0.4-1,1-1c0.6,0,1,0.4,1,1v2C55.6,47.8,55.1,48.2,54.6,48.2z"/>
		</g>
	</g>
</g>
</svg>
