<?xml version="1.0" encoding="utf-8"?>
<!-- Generator: Adobe Illustrator 21.1.0, SVG Export Plug-In . SVG Version: 6.00 Build 0)  -->
<svg version="1.1" id="emoji" xmlns="http://www.w3.org/2000/svg" xmlns:xlink="http://www.w3.org/1999/xlink" x="0px" y="0px"
	 viewBox="0 0 72 72" enable-background="new 0 0 72 72" xml:space="preserve">
<g id="_xD83D__xDC68__x200D__xD83D__xDCBB__1_">
	<g>
		<path fill="#90D2F4" d="M17.3,58.8c0,0-2-13.5,10-13.5c3.2,2.1,5.9,3.6,9,3.6h-0.1c3.1,0,4.7-2.2,7.9-4.3
			c15.6,0,11.5,14.2,11.5,14.2"/>
	</g>
	<g>
		<polygon fill="#FFFFFF" points="35.5,55.5 32.3,51.6 29.1,47.6 35.5,47.6 42,47.6 38.8,51.6 		"/>
	</g>
	<g>
		<path fill="#5AA8D4" d="M26.5,44.9c0,0-5.9,4-2.2,7.5h4.6l-0.8,3.7l7.9,2l0.3-2.5l-8.4-10.4"/>
	</g>
	<g>
		<path d="M16.9,58.9c-0.5,0-0.9-0.4-1-0.8c0-0.3-1-6.6,2.6-10.8c1.9-2.2,4.8-3.4,8.4-3.4c0.2,0,0.4,0.1,0.6,0.2
			c3.2,2.1,5.7,3.4,8.4,3.4h0c0.6,0,1,0.4,1,1c0,0.6-0.4,1-1,1c0,0,0,0,0,0h0c0,0,0,0,0,0h-0.1c0,0,0,0,0,0c-3.1,0-5.8-1.4-9.1-3.6
			c-2.9,0.1-5.1,1-6.6,2.7c-3,3.4-2.1,9.1-2.1,9.2c0.1,0.5-0.3,1.1-0.8,1.1C17,58.9,17,58.9,16.9,58.9z"/>
	</g>
	<g>
		<path d="M34,55.3c-0.3,0-0.6-0.1-0.8-0.4L26,45.8c-0.3-0.4-0.3-1.1,0.2-1.4c0.4-0.3,1.1-0.3,1.4,0.2l7.3,9.1
			c0.3,0.4,0.3,1.1-0.2,1.4C34.4,55.2,34.2,55.3,34,55.3z"/>
	</g>
	<g>
		<path d="M33,57.4c-0.1,0-0.1,0-0.2,0l-4.9-1.1c-0.3-0.1-0.5-0.2-0.6-0.5c-0.1-0.2-0.2-0.5-0.1-0.8l0.5-1.6h-3.2
			c-0.3,0-0.5-0.1-0.7-0.3c-1.4-1.3-1.6-2.6-1.6-3.6c0.2-2.9,3.5-5.2,3.8-5.5c0.5-0.3,1.1-0.2,1.4,0.3c0.3,0.5,0.2,1.1-0.3,1.4
			c-0.8,0.5-2.8,2.3-3,4c0,0.6,0.2,1.1,0.7,1.7h4.2c0.3,0,0.6,0.1,0.8,0.4c0.2,0.3,0.2,0.6,0.2,0.9l-0.5,1.8l3.9,0.9
			c0.5,0.1,0.9,0.7,0.8,1.2C33.9,57,33.5,57.4,33,57.4z"/>
	</g>
	<g>
		<g id="XMLID_5_">
			<g>
				<polygon fill="#CFCFCE" points="67.1,43.4 60.1,59.8 35.1,59.8 42.1,43.4 				"/>
			</g>
		</g>
		<g id="XMLID_3_">
			<g>
				<polygon fill="#9A9B99" points="67.3,43.4 60.4,59.8 60.1,59.8 51.4,59.8 58.3,43.4 67.1,43.4 				"/>
			</g>
		</g>
		<g id="XMLID_2_">
			<g>
				
					<polygon fill="none" stroke="#000000" stroke-width="2" stroke-linecap="round" stroke-linejoin="round" stroke-miterlimit="10" points="
					35.1,59.8 60.1,59.8 67.1,43.4 42.1,43.4 				"/>
				
					<line fill="none" stroke="#000000" stroke-width="2" stroke-linecap="round" stroke-linejoin="round" stroke-miterlimit="10" x1="24.2" y1="59.8" x2="35.1" y2="59.8"/>
			</g>
		</g>
	</g>
	<g>
		<ellipse fill="#FCEA2C" cx="35.6" cy="27.4" rx="11.3" ry="14.2"/>
	</g>
	<g>
		<path fill="#000100" d="M42,27c0,1.1-0.9,2-2,2s-2-0.9-2-2c0-1.1,0.9-2,2-2S42,25.9,42,27"/>
	</g>
	<g>
		<path fill="#000100" d="M34,27c0,1.1-0.9,2-2,2s-2-0.9-2-2c0-1.1,0.9-2,2-2S34,25.9,34,27"/>
	</g>
	<g>
		<path fill="#000100" d="M36,37c-1.2,0-2.3-0.3-3.4-0.9c-0.5-0.2-0.7-0.8-0.4-1.3c0.2-0.5,0.8-0.7,1.3-0.4c1.7,0.9,3.4,0.9,5.1,0
			c0.5-0.2,1.1,0,1.3,0.4c0.2,0.5,0,1.1-0.4,1.3C38.3,36.8,37.1,37,36,37z"/>
	</g>
	<g>
		<path d="M35.9,43.6c-6.8,0-12.3-6.8-12.3-15.2c0-0.7,0-1.3,0.1-2c0.1-0.5,0.6-0.9,1.1-0.9c0.5,0.1,0.9,0.6,0.9,1.1
			c-0.1,0.6-0.1,1.2-0.1,1.8c0,7.3,4.6,13.2,10.3,13.2c5.7,0,10.3-5.9,10.3-13.2c0-0.6,0-1.2-0.1-1.8c-0.1-0.5,0.3-1,0.9-1.1
			c0.6-0.1,1,0.3,1.1,0.9c0.1,0.7,0.1,1.3,0.1,2C48.2,36.8,42.7,43.6,35.9,43.6z"/>
	</g>
	<g>
		<path d="M41.5,32.7h-2c-1.5,0-2.9-0.9-3.5-2.3c-0.6,1.3-1.9,2.3-3.5,2.3h-2c-2.1,0-3.8-1.7-3.8-3.8v-1.2H26c-0.6,0-1-0.4-1-1
			c0-0.6,0.4-1,1-1h1.7c0.6,0,1,0.4,1,1v2.2c0,1,0.8,1.8,1.8,1.8h2c1,0,1.8-0.8,1.8-1.8v-1.1c0-0.6,0.4-1,1-1h1.3c0.6,0,1,0.4,1,1
			v1.1c0,1,0.8,1.8,1.8,1.8h2c1,0,1.8-0.8,1.8-1.8v-2.2c0-0.6,0.4-1,1-1h1.2c0.6,0,1,0.4,1,1c0,0.6-0.4,1-1,1h-0.2v1.2
			C45.3,31,43.6,32.7,41.5,32.7z"/>
	</g>
	<g>
		<path fill="none" stroke="#000000" stroke-width="2" stroke-linecap="round" stroke-linejoin="round" stroke-miterlimit="10" d="
			M34,19"/>
	</g>
	<g>
		<path fill="#A37838" d="M47.7,18.1c0.9,3,1.8,7-0.5,8.5c0,0-1.3-5.2-3-6.1"/>
		<path fill="#1D1D1B" d="M47.2,27.5c-0.1,0-0.2,0-0.4-0.1c-0.3-0.1-0.5-0.4-0.6-0.7c-0.6-2.3-1.7-5-2.5-5.5
			c-0.5-0.3-0.7-0.9-0.4-1.4c0.3-0.5,0.9-0.7,1.4-0.4c1.3,0.7,2.2,2.9,2.8,4.7c0.3-1.6-0.3-4-0.8-5.9c-0.2-0.5,0.1-1.1,0.7-1.2
			c0.5-0.2,1.1,0.1,1.2,0.7c0.7,2.3,2.3,7.5-0.9,9.6C47.6,27.5,47.4,27.5,47.2,27.5z"/>
	</g>
	<g>
		<path fill="#A37838" d="M28.1,20c5.5,2.7,12.8,2.2,16.9-0.1c0.8-0.4,1.5-1,2.1-1.7c2.9-3.2,0.2-6.3,0.2-6.3l-2.6,2
			c-8.8-8.8-18.7-3.6-18,1.4c0,0-6.9,3.6-2.1,11.5L28.1,20z"/>
		<path fill="#1D1D1B" d="M24.5,27.8c-0.3,0-0.7-0.2-0.9-0.5c-1.7-2.8-2.2-5.4-1.6-7.8c0.7-2.5,2.6-4.1,3.5-4.7
			c0-2.2,1.6-4.3,4.1-5.6c3.6-1.8,9.4-1.8,15,3.4l1.9-1.5c0.4-0.3,1-0.3,1.4,0.1c1.1,1.3,2.5,4.6-0.3,7.7c-0.7,0.7-1.5,1.4-2.4,1.9
			c-3.9,2.2-11,3-16.9,0.5l-3.1,6C25.2,27.6,24.9,27.8,24.5,27.8C24.5,27.8,24.5,27.8,24.5,27.8z M34.5,10.1c-1.5,0-2.8,0.3-3.9,0.9
			c-2,1-3.2,2.6-3,4.2c0.1,0.4-0.2,0.8-0.5,1c0,0-2.4,1.3-3.1,3.9c-0.4,1.4-0.2,2.9,0.5,4.6l2.7-5.1c0.2-0.5,0.8-0.7,1.3-0.4
			c5.3,2.6,12.2,2,15.9,0c0.7-0.4,1.4-0.9,1.9-1.5c1.5-1.7,1.2-3.3,0.7-4.2l-1.8,1.4c-0.4,0.3-1,0.3-1.3-0.1
			C40.7,11.3,37.3,10.1,34.5,10.1z"/>
	</g>
</g>
</svg>
