<?xml version="1.0" encoding="utf-8"?>
<!-- Generator: Adobe Illustrator 21.1.0, SVG Export Plug-In . SVG Version: 6.00 Build 0)  -->
<svg version="1.1" id="emoji" xmlns="http://www.w3.org/2000/svg" xmlns:xlink="http://www.w3.org/1999/xlink" x="0px" y="0px"
	 viewBox="0 0 72 72" enable-background="new 0 0 72 72" xml:space="preserve">
<g id="_xD83D__xDC68__x200D__xD83C__xDFA8__1_">
	<ellipse fill="#FCEA2C" cx="36" cy="28.8" rx="11.3" ry="14.2"/>
	<path d="M42,26.9c0,1.1-0.9,2-2,2c-1.1,0-2-0.9-2-2c0-1.1,0.9-2,2-2C41.1,24.9,42,25.8,42,26.9"/>
	<path d="M34,26.9c0,1.1-0.9,2-2,2c-1.1,0-2-0.9-2-2c0-1.1,0.9-2,2-2C33.1,24.9,34,25.8,34,26.9"/>
	<path d="M36,36.9c-1.2,0-2.3-0.3-3.4-0.9c-0.5-0.2-0.7-0.8-0.4-1.3c0.2-0.5,0.8-0.7,1.3-0.4c1.7,0.9,3.4,0.9,5.1,0
		c0.5-0.2,1.1,0,1.3,0.4c0.2,0.5,0,1.1-0.4,1.3C38.3,36.7,37.1,36.9,36,36.9z"/>
	<path fill="none" stroke="#000000" stroke-width="2" stroke-miterlimit="10" d="M24.6,27.7c0,0.2,0,0.4,0,0.6
		c0,7.8,5.1,14.2,11.3,14.2c6.3,0,11.3-6.3,11.3-14.2c0-0.2,0-0.4,0-0.6"/>
	<path fill="none" stroke="#000100" stroke-width="2" stroke-linecap="round" stroke-linejoin="round" stroke-miterlimit="10" d="
		M44.8,44.8"/>
	<path fill="none" stroke="#000100" stroke-width="2" stroke-linecap="round" stroke-linejoin="round" stroke-miterlimit="10" d="
		M49.9,45.9"/>
	
		<path fill="#3F3F3F" stroke="#000000" stroke-width="2" stroke-linecap="round" stroke-linejoin="round" stroke-miterlimit="10" d="
		M22.8,18.6c0,0-1.2-1,0-1.9c0,0-2.4-1.4-1.3-2.6c0.7-0.7,7.3-4.1,14.2-4.8c4.2-0.5,9.4,0,12.3,2.7c0,0,3.6,2.8,0.3,4.2
		c0,0,1.9,1.9,0,2.3L22.8,18.6z"/>
	
		<line fill="none" stroke="#000000" stroke-width="2" stroke-linecap="round" stroke-linejoin="round" stroke-miterlimit="10" x1="35.8" y1="6.2" x2="35.8" y2="9.3"/>
	
		<path fill="#F4AA42" stroke="#000000" stroke-width="2" stroke-linecap="round" stroke-linejoin="round" stroke-miterlimit="10" d="
		M29.4,20.7c0,0,6,4,4.6,1c0,0,6,4,5.1,0.6c0,0,5.4,5.9,5.8,0.5c0,0,0.5,5.3,2.4,5c1.1,0,3.2-6.1,0.4-9.1H24.6c0,0-3.4,6.1,0,9.1
		C26.5,26.9,29.4,20.7,29.4,20.7z"/>
	<path fill="none" stroke="#010101" stroke-width="2" stroke-linecap="round" stroke-linejoin="round" stroke-miterlimit="10" d="
		M51.5,46.2"/>
	<path fill="#FFFFFF" d="M56.4,59.2c0,0,2.2-15-10.9-15c-3.5,2.3-6.5,3.9-9.8,3.9h0.1c-3.3,0-6.3-1.6-9.8-3.9
		c-13.1,0-10.9,15-10.9,15"/>
	<path fill="#CECECD" d="M44.8,44.1c-3.8,2.5-5.8,3.6-10.7,4.3c15.7,0.5,15.7,6,16.6,10.8c5.1,0,6.1,0,6.1,0S59.2,44.1,44.8,44.1z"
		/>
	<g id="XMLID_4_">
		<g>
			<path fill="#E95946" d="M50,53.3c0,0-3.9,0.8-6.2-3.1l-0.3-0.6c0.2-0.4,0.3-0.8,0.4-1.2h0l1,0.1C49.4,49.3,50,53.3,50,53.3z"/>
			<path fill="#E95946" d="M43.5,49.6c-0.2,0.4-0.5,0.7-0.9,1c-0.1,0.1-0.2,0.1-0.3,0.2c-0.3,0.1-0.6,0.2-0.9,0.3
				c-0.2,0-0.4,0.1-0.6,0c-1.1,0-2.1-0.6-2.6-1.6l-0.5-1.1v0c1.9-0.3,3.6-1.2,5.5-2.4v0l0.3,0.8c0.3,0.5,0.4,1.1,0.3,1.6
				C43.8,48.8,43.7,49.2,43.5,49.6z"/>
			<path fill="#E95946" d="M43.2,51.2c2.9,3.1,0.4,6.4,0.4,6.4s-3.6-1.9-2.5-5.9l0.2-0.6v0c0.3,0,0.6-0.1,0.9-0.3
				c0.1-0.1,0.2-0.1,0.3-0.2l0.1,0.2L43.2,51.2z"/>
			<path fill="#E95946" d="M40.8,51.1l0,0.3C27.4,54.9,27,45,27,45c3.1,2.1,5.8,3.6,8.9,3.6H36c0.6,0,1.1-0.1,1.7-0.2v0l0.5,1.1
				C38.7,50.5,39.7,51.1,40.8,51.1z"/>
		</g>
		<g>
			<path fill="none" stroke="#000000" stroke-width="2" stroke-linecap="round" stroke-linejoin="round" stroke-miterlimit="10" d="
				M42.2,50.8c0.1-0.1,0.2-0.1,0.3-0.2c0.4-0.3,0.7-0.6,0.9-1c0.2-0.4,0.3-0.8,0.4-1.2c0.1-0.5,0-1.1-0.3-1.6L43.3,46"/>
			<path fill="none" stroke="#000000" stroke-width="2" stroke-linecap="round" stroke-linejoin="round" stroke-miterlimit="10" d="
				M42.2,50.8c-0.3,0.1-0.6,0.2-0.9,0.3c-0.2,0-0.4,0.1-0.6,0c-1.1,0-2.1-0.6-2.6-1.6l-0.5-1.1"/>
			<path fill="none" stroke="#000000" stroke-width="2" stroke-linecap="round" stroke-linejoin="round" stroke-miterlimit="10" d="
				M50.9,46.5c-1.5-1-3.4-1.6-6-1.6c-0.6,0.4-1.1,0.7-1.6,1c-1.9,1.2-3.7,2-5.5,2.4c-0.6,0.1-1.1,0.2-1.7,0.2h-0.1
				c-3,0-5.7-1.5-8.9-3.6c-12,0-10,13-10,13"/>
			<path fill="none" stroke="#000000" stroke-width="2" stroke-linecap="round" stroke-linejoin="round" stroke-miterlimit="10" d="
				M42.7,50.8l0.6,0.4c2.9,3.1,0.4,6.4,0.4,6.4s-3.6-1.9-2.5-5.9l0.2-0.6"/>
			<path fill="none" stroke="#000000" stroke-width="2" stroke-linecap="round" stroke-linejoin="round" stroke-miterlimit="10" d="
				M27,45c0,0,0.3,10,13.8,6.5"/>
			<path fill="none" stroke="#000000" stroke-width="2" stroke-linecap="round" stroke-linejoin="round" stroke-miterlimit="10" d="
				M43.5,49.6L43.5,49.6l0.4,0.6c2.3,3.9,6.2,3.1,6.2,3.1s-0.6-4-5.1-4.7l-1-0.1"/>
		</g>
	</g>
	<g>
		
			<path fill="#EEB319" stroke="#000000" stroke-width="2" stroke-linecap="round" stroke-linejoin="round" stroke-miterlimit="10" d="
			M16.3,59.7c-0.5-0.3-0.9-0.7-1.3-1.1c-0.3-0.3-0.5-0.5-0.8-0.8c-3.3-3.6-4-8.1-3.1-11.5c1.1-4.1,5.4-6.5,9.6-5.3
			c2,0.5,7.9,1.6,9,11.6c3.8-1.2,7.8,1.9,5,6c-0.4,0.6-1,1.2-1.7,1.9C29.2,63.7,21.3,63.5,16.3,59.7z"/>
		<path fill="#E95946" d="M17.9,46.3c-0.3,1.1-1.4,1.7-2.5,1.4c-1.1-0.3-1.7-1.4-1.4-2.5c0.3-1.1,1.4-1.7,2.5-1.4
			C17.5,44.2,18.1,45.3,17.9,46.3"/>
		<path fill="#FBEA2E" d="M18.3,53.2c-0.3,1.1-1.4,1.7-2.5,1.4c-1.1-0.3-1.7-1.4-1.4-2.5c0.3-1.1,1.4-1.7,2.5-1.4
			C18,51,18.6,52.1,18.3,53.2"/>
		<path fill="#5AA7D4" d="M23.6,57.9c-0.3,1.1-1.4,1.7-2.5,1.4c-1.1-0.3-1.7-1.4-1.4-2.5c0.3-1.1,1.4-1.7,2.5-1.4
			C23.3,55.8,23.9,56.9,23.6,57.9"/>
	</g>
	<g id="XMLID_3_">
		<g>
			<path fill="#3F3F3F" d="M60.3,44.2l-3.9,15c-0.3,1.1-1.5,1.8-2.6,1.5c-0.6-0.1-1-0.5-1.3-1c-0.3-0.5-0.4-1-0.2-1.6l3.9-15
				L60.3,44.2z"/>
			<polygon fill="#9A9A99" points="61.2,40.8 60.3,44.2 56.2,43.1 57,39.7 58.1,40 60.1,40.5 			"/>
			<path fill="#A27838" d="M61.3,31.9c0,0,4,4.4-0.4,8.1l-0.7,0.6L58.1,40l-0.5-0.9C55.6,33.6,61.3,31.9,61.3,31.9z"/>
		</g>
		<g>
			<path fill="none" stroke="#000000" stroke-width="2" stroke-linecap="round" stroke-linejoin="round" stroke-miterlimit="10" d="
				M58.1,40l-0.5-0.9c-2-5.5,3.7-7.2,3.7-7.2s4,4.4-0.4,8.1l-0.7,0.6"/>
			<path fill="none" stroke="#000000" stroke-width="2" stroke-linecap="round" stroke-linejoin="round" stroke-miterlimit="10" d="
				M60.3,44.2l-3.9,15c-0.3,1.1-1.5,1.8-2.6,1.5c-0.6-0.1-1-0.5-1.3-1c-0.3-0.5-0.4-1-0.2-1.6l3.9-15"/>
			
				<polygon fill="none" stroke="#000000" stroke-width="2" stroke-linecap="round" stroke-linejoin="round" stroke-miterlimit="10" points="
				60.3,44.2 61.2,40.8 60.1,40.5 58.1,40 57,39.7 56.2,43.1 			"/>
		</g>
	</g>
</g>
</svg>
