<?xml version="1.0" encoding="utf-8"?>
<!-- Generator: Adobe Illustrator 21.1.0, SVG Export Plug-In . SVG Version: 6.00 Build 0)  -->
<svg version="1.1" id="emoji" xmlns="http://www.w3.org/2000/svg" xmlns:xlink="http://www.w3.org/1999/xlink" x="0px" y="0px"
	 viewBox="0 0 72 72" enable-background="new 0 0 72 72" xml:space="preserve">
<g id="_xD83D__xDC64__1_">
	<path fill="#D0CFCE" d="M58,61c0,0,0-3-1-7c-1.2-4.8-4-8-10-8c-5,0-15,0-22,0c-6,0-8.8,3.2-10,8c-1,4-1,7-1,7H58z"/>
	<path fill="#D0CFCE" d="M26,26c0,3.7,0.5,7.8,2,10c1.9,2.8,5,4,8,4c3.1,0,6.1-1.2,8-4c1.5-2.2,2-6.3,2-10c0-2.8-1-12-10-12
		S26,21.3,26,26z"/>
	<path fill="none" stroke="#040404" stroke-width="2" stroke-linecap="round" stroke-linejoin="round" d="M58,60c0,0,0-2-1-6
		c-1.2-4.8-4-8-10-8c-5,0-15,0-22,0c-6,0-8.8,3.2-10,8c-1,4-1,6-1,6"/>
	<path fill="none" stroke="#040404" stroke-width="2" stroke-linejoin="round" d="M26,26c0,3.7,0.5,7.8,2,10c1.9,2.8,5,4,8,4
		c3.1,0,6.1-1.2,8-4c1.5-2.2,2-6.3,2-10c0-2.8-1-12-10-12S26,21.3,26,26z"/>
</g>
</svg>
