<svg id="emoji" viewBox="0 0 72 72" xmlns="http://www.w3.org/2000/svg">
  <g id="color">
    <polyline fill="#6a462f" points="10.1126 50.1558 10.247 60.9497 19.8879 61.2288 21.0821 50.1763"/>
    <polyline fill="#6a462f" points="10.3692 52.9798 11.0428 60.9583 18.8821 60.9583 19.5557 54.7243"/>
    <path fill="#a57939" d="m50.3692,52.6627c5.0161.1894,5,8.2957,5,8.2957h-24.9957l-8.5938-11.0526h-11.6605c1.0244-3.1706,5.7177-8.176,6.8115-11.8457,3.613-12.1211-7.7259-27.1017-7.7259-27.1017C21.5547,1.0701,41.451,3.9709,41.6469,3.9998c.0034.0005.0025-.0015.0007.0015-.0738.1166-5.286,8.3971-6.2784,22.574-1.0161,14.5157-.0139,18.8882,3.2856,22.9289,3.2996,4.0407,6.6983,2.9692,11.7144,3.1586Z"/>
    <line x1="22.2778" x2="26.0361" y1="9.1397" y2="25.3132" fill="none"/>
  </g>
  <g id="line">
    <polyline fill="none" stroke="#000" stroke-linecap="round" stroke-linejoin="round" stroke-width="2" points="10.3692 52.9798 11.0428 60.9583 18.8821 60.9583 19.5557 54.7243"/>
    <path fill="none" stroke="#000" stroke-linecap="round" stroke-linejoin="round" stroke-width="2" d="m50.3692,52.6627c5.0161.1894,5,8.2957,5,8.2957h-24.9957l-8.5938-11.0526h-11.4105c1.0244-3.1706,5.4677-8.176,6.5615-11.8457,3.613-12.1211-7.7259-27.1017-7.7259-27.1017C21.6159,1.0211,41.6484,4,41.6484,4c0,0-5.2797,8.2972-6.2792,22.5752-1.0161,14.5157-.0139,18.8882,3.2856,22.9289,3.2996,4.0407,6.6983,2.9692,11.7144,3.1586Z"/>
    <line x1="22.2778" x2="26.0361" y1="9.1397" y2="25.3132" fill="none" stroke="#000" stroke-linecap="round" stroke-linejoin="round" stroke-width="2"/>
  </g>
</svg>
