<svg id="emoji" xmlns="http://www.w3.org/2000/svg" viewBox="0 0 72 72">
  <g id="color">
    <path d="M37.3585,56.4579c-.0016.73-2.7979.5166-6.4018-1.0545-1.88-.82-5.066,2.715-4.9907,5.4263-4.01.1294-4.8765.1137-4.8765.1137l-9.1838.0474V47.84c0-2.9621,3.5064-5.5342,6.264-5.6586.9645.78,4.8279,1.4622,5.5235,2.617.661,1.0975,4.3346-1.0368,4.4623-.3287.3133,1.7386-3.6807,5.4339-1.78,5.5968,1.9452,1.43,3.3384.6867,4.58,1.3305,3.9346,2.04,6.0914-.2118,6.0914,2.011Z" fill="#92d3f5"/>
    <path d="M25.7794,60.9583V59.9037a4.8923,4.8923,0,0,1,4.8977-4.5376q4.408,3.7813,8.8159,0a4.8919,4.8919,0,0,1,4.8978,4.5376v1.0546Z" fill="#b1cc33"/>
  </g>
  <g id="skin">
    <path d="M23.0176,19.2572c4.4577,0,8.0714,4.6184,8.0714,10.3155s-3.6137,10.3155-8.0714,10.3155c-3.9,0-5.3855-4.1986-7.9072-8.236-.5594-.8955-.1641-1.3672-.1641-2.0795C14.9463,23.8756,18.56,19.2572,23.0176,19.2572Z" fill="#fcea2b"/>
    <path d="M42.1827,47.3a7.462,7.462,0,0,1-2.605,5.7527,6.2894,6.2894,0,0,1-2.3308,1.2565l-.2742.0769a6.3891,6.3891,0,0,1-1.4076.1624,5.9963,5.9963,0,0,1-.9689-.0769c-.1463-.0257-.2834-.0513-.4205-.0855A6.2483,6.2483,0,0,1,31.2965,52.83a7.5191,7.5191,0,0,1-2.3491-5.53,6.94,6.94,0,0,1,1.4533-4.385,6.4224,6.4224,0,0,1,5.1-2.3933,6.5588,6.5588,0,0,1,5.63,3.043A6.8545,6.8545,0,0,1,42.1827,47.3Z" fill="#fcea2b"/>
  </g>
  <g id="hair">
    <path d="M12.8407,24.7588c.5981-7.9646,6.7385-8.05,9.826-7.5647a8.2942,8.2942,0,0,0,1.4037,0c5.6148-.6877,8.4223,5.5015,8.4223,8.2524,0,.973,0,3.4384-1.4037,4.8138,0,0-3.2145-3.8124-3.3619-6.0324,0,0-10.6752,3.9692-11.3771.5308.0336.0028-1.7275,3.7247-1.4037,6.1892A9.5011,9.5011,0,0,1,12.8407,24.7588Z" fill="#a57939"/>
    <path d="M35.2667,42.534a8.7923,8.7923,0,0,1,5.244,5.9437,9.5713,9.5713,0,0,1,.6746,3.6866A4.1816,4.1816,0,0,0,44.9876,50.71a7.23,7.23,0,0,1-2.1465-3.1375c1.0617-11.2264-7.4808-8.4921-7.4808-8.4921h0s-8.22-2.5261-7.6679,8.4921A7.23,7.23,0,0,1,25.5459,50.71a4.1817,4.1817,0,0,0,3.8024,1.4541,9.5233,9.5233,0,0,1,.6746-3.6866,9.137,9.137,0,0,1,5.2438-5.9437" fill="#a57939"/>
  </g>
  <g id="line">
    <path d="M11.2737,60.148V48.2244c0-3.1295,3.1377-5.64,6.2667-5.64,2.2646,1.8872,6.8881,2.2653,9.6854,1.0309" fill="none" stroke="#000" stroke-linecap="round" stroke-linejoin="round" stroke-width="2"/>
    <g>
      <path d="M31.089,29.5727c0,5.6971-3.6137,10.3155-8.0714,10.3155S14.72,35.2274,14.72,29.53" fill="none" stroke="#000" stroke-miterlimit="10" stroke-width="2"/>
      <path d="M12.8407,24.7588c.5981-7.9646,6.7385-8.05,9.826-7.5647a8.2942,8.2942,0,0,0,1.4037,0c5.6148-.6877,8.4223,5.5015,8.4223,8.2524,0,.973,0,3.4384-1.4037,4.8138,0,0-3.2145-3.8124-3.3619-6.0324,0,0-10.6752,3.9692-11.3771.5308,0,0-2.4,1.7757-1.43,6.52A14.0688,14.0688,0,0,1,12.8407,24.7588Z" fill="none" stroke="#000" stroke-linecap="round" stroke-linejoin="round" stroke-width="2"/>
      <path d="M26.5767,30.1726a1.3014,1.3014,0,1,1-1.3011-1.2749,1.2882,1.2882,0,0,1,1.3011,1.2749"/>
      <path d="M21.7666,30.2226a1.3014,1.3014,0,1,1-1.3011-1.2748,1.2882,1.2882,0,0,1,1.3011,1.2748"/>
      <path d="M21.116,35.4815a4.2233,4.2233,0,0,0,3.9035,0" fill="none" stroke="#000" stroke-linecap="round" stroke-linejoin="round" stroke-width="1.6"/>
    </g>
    <g>
      <path d="M40.7677,51.86l2.6792.08.3912.0079S41.5247,52.568,40.7677,51.86Z" fill="#fff"/>
      <path d="M40.6231,55.2405a7.8071,7.8071,0,0,0,2.8238,1.2965,3.7327,3.7327,0,0,0,.3912.0716Z" fill="#fff"/>
      <path d="M43.8381,58.3743l-.3912-.1273" fill="none"/>
      <path d="M40.5453,50.24a9.6646,9.6646,0,0,1-2.05,3.15A5.8506,5.8506,0,0,1,36.3268,54.56l-.2551.0716a5.9494,5.9494,0,0,1-1.31.1511,5.5737,5.5737,0,0,1-.9016-.0716c-.1361-.0238-.2636-.0477-.3912-.0795A5.8152,5.8152,0,0,1,30.79,53.1837a9.5238,9.5238,0,0,1-1.759-2.7805" fill="none" stroke="#000" stroke-miterlimit="10" stroke-width="1.6"/>
      <path d="M37.5431,47.5351a.8928.8928,0,1,1-.8907-.833.8633.8633,0,0,1,.8907.833Z"/>
      <path d="M33.98,47.5351a.8928.8928,0,1,1-.8907-.833.8633.8633,0,0,1,.8907.833Z"/>
      <path d="M33.5347,50.7779a2.093,2.093,0,0,0,2.6722,0" fill="none" stroke="#000" stroke-linecap="round" stroke-linejoin="round" stroke-width="1.6"/>
      <path d="M44.1747,60.2546v-.9067c0-2.02-2.1518-3.6746-4.44-3.8655a4.4434,4.4434,0,0,0-.4593-.0238,2.2481,2.2481,0,0,1-.2467.167,7.6986,7.6986,0,0,1-2.8662,1.3124.0124.0124,0,0,1-.017,0,5.7543,5.7543,0,0,1-2.2114.0636,3.7375,3.7375,0,0,1-.3912-.0716A7.806,7.806,0,0,1,30.72,55.6335c-.0851-.0556-.17-.1113-.2552-.1749a4.4434,4.4434,0,0,0-.4593.0238c-2.2879.1909-4.44,1.8453-4.44,3.8655v.9067" fill="none" stroke="#000" stroke-linecap="round" stroke-linejoin="round" stroke-width="1.6"/>
      <path d="M30.9255,39.1592c-1.7214.6141-3.4149,2.2239-3.7034,6.1506a18.0626,18.0626,0,0,0-.0186,2.2611,7.1971,7.1971,0,0,1-2.1495,3.1358A4.1881,4.1881,0,0,0,28.86,52.1676a9.6058,9.6058,0,0,1,.67-3.6941A10.7857,10.7857,0,0,1,30.46,46.352a8.435,8.435,0,0,1,4.3176-3.8151,8.3085,8.3085,0,0,1,4.01,3.2288,11.0077,11.0077,0,0,1,1.2376,2.7078c.2047.6793.3536,1.2469.4467,1.7121a6.0838,6.0838,0,0,1,.2233,1.982,3.5974,3.5974,0,0,0,1.2562.0279h.0186a3.514,3.514,0,0,0,.8839-.27,4.6634,4.6634,0,0,0,1.647-1.219,7.1975,7.1975,0,0,1-2.1494-3.1358,14.1022,14.1022,0,0,0-.0559-3.5359c-.53-3.4056-2.5309-4.606-4.3175-4.9689a7.75,7.75,0,0,0-3.1079.0186,7.212,7.212,0,0,0-1.9168-.2512,6.3041,6.3041,0,0,0-2.0285.3257" fill="none" stroke="#000" stroke-linecap="round" stroke-linejoin="round" stroke-width="1.6"/>
    </g>
  </g>
</svg>
