<svg id="emoji" xmlns="http://www.w3.org/2000/svg" viewBox="0 0 72 72">
  <g id="color">
    <path fill="#92D3F5" d="M54,60.9375V57c0-4.9941-4.1914-9-9.1855-9c-6,5-12,5-18,0C21.8223,48,18,52.0059,18,57v3.9375H54z" stroke="none"/>
  </g>
  <g id="hair">
    <path fill="#000000" d="M24,36c-2,0-3-12,0-16c6-8,18-8,24,0c3,4,2,16,0,16" stroke="none"/>
  </g>
  <g id="skin">
    <path fill="#6a462f" d="M25,34c0,8,4.8145,11.877,10.8145,11.877S47,42,47,34s-3-10-3-10c-8,4-14,2-16,0C28,24,25,26,25,34z" stroke="#6a462f"/>
  </g>
  <g id="skin-shadow"/>
  <g id="line">
    <path fill="none" stroke="#000000" stroke-width="2" stroke-linecap="round" stroke-linejoin="round" d="M24,36c-2,0-3-12,0-16 c6-8,18-8,24,0c3,4,2,16,0,16"/>
    <path fill="none" stroke="#000000" stroke-width="2" stroke-linecap="round" stroke-linejoin="round" d="M54,60v-3.123 c0-4.9942-4.1914-9-9.1855-9c-6,5-12,5-18,0c-4.9922,0-8.8145,4.0058-8.8145,9V60"/>
    <path fill="#000000" d="M42,33c0,1.1045-0.8955,2-2,2c-1.1045,0-2-0.8955-2-2s0.8955-2,2-2C41.1045,31,42,31.8955,42,33" stroke="none"/>
    <path fill="#000000" d="M34,33c0,1.1045-0.8955,2-2,2c-1.1045,0-2-0.8955-2-2s0.8955-2,2-2C33.1045,31,34,31.8955,34,33" stroke="none"/>
    <path fill="none" stroke="#000000" stroke-width="2" stroke-linejoin="round" d="M25,34c0,8,4.8145,11.877,10.8145,11.877 S47,42,47,34s-3-10-3-10c-8,4-14,2-16,0C28,24,25,26,25,34z"/>
    <path fill="none" stroke="#000000" stroke-width="2" stroke-linecap="round" stroke-linejoin="round" d="M32.8145,39.25 c1.875,1,4.125,1,6,0"/>
  </g>
</svg>
