<?xml version="1.0" encoding="utf-8"?>
<!-- Generator: Adobe Illustrator 21.1.0, SVG Export Plug-In . SVG Version: 6.00 Build 0)  -->
<svg version="1.1" id="emoji" xmlns="http://www.w3.org/2000/svg" xmlns:xlink="http://www.w3.org/1999/xlink" x="0px" y="0px"
	 viewBox="0 0 72 72" enable-background="new 0 0 72 72" xml:space="preserve">
<g id="_xD83D__xDC68__x200D__x2764__xFE0F__x200D__xD83D__xDC68__1_">
	<ellipse fill="#FCEA2B" stroke="#000000" stroke-width="2" stroke-miterlimit="10" cx="20.8" cy="38.5" rx="8.7" ry="11.3"/>
	<path fill="#A57939" d="M9.8,33.2c0.6-8.7,7.2-8.8,10.5-8.3c0.3,0.1,1.2,0,1.5,0c6-0.8,9,6,9,9c0,1.1,0,3.8-1.5,5.3
		c0,0-3.4-4.2-3.6-6.6c0,0-11.4,4.3-12.2,0.6c0,0-0.8,3-1.5,3.8c0,0,0,2.3,0,3C12.1,40,9.6,37,9.8,33.2z"/>
	<path fill="none" stroke="#000000" stroke-width="2" stroke-linecap="round" stroke-linejoin="round" d="M9.8,33.2
		c0.6-8.7,7.2-8.8,10.5-8.3c0.3,0.1,1.2,0,1.5,0c6-0.8,9,6,9,9c0,1.1,0,3.8-1.5,5.3c0,0-3.4-4.2-3.6-6.6c0,0-11.4,4.3-12.2,0.6
		c0,0-0.8,3-1.5,3.8c0,0,0,2.3,0,3C12.1,40,9.6,37,9.8,33.2z"/>
	<g>
		<path fill="#EA5A47" d="M38.8,10.5c-0.9,0.4-1.7,1.1-2.1,2.1c-0.1,0.2-0.3,0.3-0.5,0.2c-0.1,0-0.1-0.1-0.2-0.2c-1-2.1-3.6-3-5.7-2
			s-3,3.6-2,5.7c0.1,0.1,0.1,0.2,0.2,0.4l0.2,0.4l7.3,9.3C39.5,21.7,41.8,15.3,38.8,10.5z"/>
		<path fill="#D23029" d="M40.5,10.2c-0.6,0-1.2,0.1-1.7,0.4c3,4.8,0.7,11.2-2.8,15.8l0.3,0.4l0.6-0.7L44,17c1.4-1.9,1-4.6-0.9-6
			C42.3,10.4,41.4,10.2,40.5,10.2L40.5,10.2z"/>
		<path fill="none" stroke="#000000" stroke-width="2" stroke-linecap="round" stroke-linejoin="round" d="M36.3,27.4l-7.9-10.1
			l-0.3-0.4c-1.3-2.2-0.6-5.1,1.5-6.4c2.2-1.3,5.1-0.6,6.4,1.5c0.1,0.1,0.2,0.3,0.2,0.4c1.1-2.3,3.9-3.3,6.2-2.2
			c2.3,1.1,3.3,3.9,2.2,6.2c-0.1,0.3-0.3,0.5-0.4,0.7L36.3,27.4z"/>
	</g>
	<path fill="none" stroke="#010101" stroke-width="2" stroke-linecap="round" stroke-linejoin="round" d="M56.9,26.6"/>
	<path fill="#92D3F5" d="M34.7,62.8c-0.4,0-0.8-0.3-0.8-0.8v-2.3c0-3.4-3.4-5.9-6.5-6.1c-4.7,3.8-9.4,3.8-14.1,0
		c-3.1,0.1-6.5,2.7-6.5,6.1v2.3c0,0.4-0.3,0.8-0.8,0.8"/>
	<path fill="none" stroke="#000000" stroke-width="2" stroke-linecap="round" stroke-linejoin="round" d="M6,61.9v-2.3
		c0-3.8,3.8-6.8,7.6-6.8c4.5,3.8,9.1,3.8,13.6,0c3.8,0,7.6,3,7.6,6.8v2.3"/>
	<path d="M25,39.2c0,0.8-0.6,1.4-1.4,1.4c-0.8,0-1.4-0.6-1.4-1.4c0-0.8,0.6-1.4,1.4-1.4C24.4,37.8,25,38.4,25,39.2"/>
	<path d="M19.4,39.2c0,0.8-0.6,1.4-1.4,1.4c-0.8,0-1.4-0.6-1.4-1.4c0-0.8,0.6-1.4,1.4-1.4C18.8,37.8,19.4,38.4,19.4,39.2"/>
	<path fill="none" stroke="#000000" stroke-width="2" stroke-linecap="round" stroke-linejoin="round" d="M18.7,44.9
		c1.3,0.7,2.9,0.7,4.2,0"/>
	<ellipse fill="#FCEA2B" stroke="#000000" stroke-width="2" stroke-miterlimit="10" cx="51.8" cy="38.5" rx="8.7" ry="11.3"/>
	<path fill="#92D3F5" d="M65.7,62.8c-0.4,0-0.8-0.3-0.8-0.8v-2.3c0-3.4-3.4-5.9-6.5-6.1c-4.7,3.8-9.4,3.8-14.1,0
		c-3.1,0.1-6.5,2.7-6.5,6.1v2.3c0,0.4-0.3,0.8-0.8,0.8"/>
	<path fill="none" stroke="#000000" stroke-width="2" stroke-linecap="round" stroke-linejoin="round" d="M37,61.9v-2.3
		c0-3.8,3.8-6.8,7.6-6.8c4.5,3.8,9.1,3.8,13.6,0c3.8,0,7.6,3,7.6,6.8v2.3"/>
	<path d="M56,39.2c0,0.8-0.6,1.4-1.4,1.4c-0.8,0-1.4-0.6-1.4-1.4c0-0.8,0.6-1.4,1.4-1.4C55.4,37.8,56,38.4,56,39.2"/>
	<path d="M50.4,39.2c0,0.8-0.6,1.4-1.4,1.4c-0.8,0-1.4-0.6-1.4-1.4c0-0.8,0.6-1.4,1.4-1.4C49.8,37.8,50.4,38.4,50.4,39.2"/>
	<path fill="none" stroke="#000000" stroke-width="2" stroke-linecap="round" stroke-linejoin="round" d="M49.7,44.9
		c1.3,0.7,2.9,0.7,4.2,0"/>
	<path fill="#A57939" d="M43,27c0,0.3,13.2-6.8,15.7,1.4c0,0,3.5,1.7,2.8,7.5c-0.1,1-0.1,3.3-1.1,4.3l-2.8-7.1c0,0-7.4,2.8-12.4-0.6
		L43,40c0,0-0.9-1.3-1-3c0,0-0.4-4,0.4-5.4C42.4,31.6,44,29,43,27z"/>
	<path fill="none" stroke="#000000" stroke-width="2" stroke-linejoin="round" stroke-miterlimit="10" d="M43,27
		c0,0.3,13.2-6.8,15.7,1.4c0,0,3.5,1.7,2.8,7.5c-0.1,1-0.1,3.3-1.1,4.3l-2.8-7.1c0,0-7.4,2.8-12.4-0.6L43,40c0,0-0.9-1.3-1-3
		c0,0-0.4-4,0.4-5.4C42.4,31.6,44,29,43,27z"/>
</g>
</svg>
