<?xml version="1.0" encoding="utf-8"?>
<!-- Generator: Adobe Illustrator 21.1.0, SVG Export Plug-In . SVG Version: 6.00 Build 0)  -->
<svg version="1.1" id="emoji" xmlns="http://www.w3.org/2000/svg" xmlns:xlink="http://www.w3.org/1999/xlink" x="0px" y="0px"
	 viewBox="0 0 72 72" enable-background="new 0 0 72 72" xml:space="preserve">
<g id="_xD83D__xDC68__x200D__xD83C__xDF93__1_">
	<ellipse fill="#FCEA2C" cx="35.8" cy="28.8" rx="11.3" ry="14.2"/>
	<path fill="#F4AA42" d="M45,20.1c0,0-3.4-0.2-6.3,0.9l0,0.1c4,3.9,8,3.1,8,3.1l0,0C46.3,22.7,45.8,21.3,45,20.1"/>
	<path fill="#F4AA42" d="M26.6,20.1c-0.7,1.2-1.2,2.6-1.6,4l0,0.1c0,0,4,0.8,8-3.1l0-0.1C30.1,20,26.6,20.1,26.6,20.1"/>
	<path fill="#3F3F3F" d="M54.9,58.8c0,0,2-14-10-14c-3.2,2.1-5.9,3.6-9,3.6H36c-3.1,0-5.8-1.5-9-3.6c-12,0-10,14-10,14"/>
	<path fill="#000100" d="M41.9,27c0,1.1-0.9,2-2,2s-2-0.9-2-2c0-1.1,0.9-2,2-2S41.9,25.8,41.9,27"/>
	<path fill="#000100" d="M33.9,27c0,1.1-0.9,2-2,2s-2-0.9-2-2c0-1.1,0.9-2,2-2S33.9,25.8,33.9,27"/>
	<path fill="#000100" d="M35.9,37c-1.2,0-2.3-0.3-3.4-0.9c-0.5-0.2-0.7-0.8-0.4-1.3c0.2-0.5,0.8-0.7,1.3-0.4c1.7,0.9,3.4,0.9,5.1,0
		c0.5-0.2,1.1,0,1.3,0.4c0.2,0.5,0,1.1-0.4,1.3C38.2,36.7,37.1,37,35.9,37z"/>
	<ellipse fill="none" stroke="#000000" stroke-width="2" stroke-miterlimit="10" cx="35.9" cy="28.3" rx="11.3" ry="14.2"/>
	<g id="XMLID_24_">
		<g>
			<polygon fill="#9A9B99" points="45.1,12.2 35.8,13.1 26.8,12.2 21.3,11.7 35.2,9.1 50.3,11.7 			"/>
			<path fill="#3F3F3F" d="M45.1,12.2v8c0,0-6.7-0.3-9.2,2.6c-2.5-2.9-9.2-2.6-9.2-2.6v-7.9l9.1,0.9L45.1,12.2z"/>
		</g>
		<g>
			
				<polyline fill="none" stroke="#000000" stroke-width="2" stroke-linecap="round" stroke-linejoin="round" stroke-miterlimit="10" points="
				21.3,11.7 26.8,12.2 35.8,13.1 45.1,12.2 50.3,11.7 			"/>
			<path fill="none" stroke="#000000" stroke-width="2" stroke-linecap="round" stroke-linejoin="round" stroke-miterlimit="10" d="
				M26.8,11.7v0.5v7.9c0,0,6.7-0.3,9.2,2.6"/>
			<path fill="none" stroke="#000000" stroke-width="2" stroke-linecap="round" stroke-linejoin="round" stroke-miterlimit="10" d="
				M45.1,11.7v0.5v8c0,0-6.7-0.3-9.2,2.6"/>
			
				<polyline fill="none" stroke="#000000" stroke-width="2" stroke-linecap="round" stroke-linejoin="round" stroke-miterlimit="10" points="
				50.3,11.7 35.2,9.1 21.3,11.7 			"/>
		</g>
	</g>
	
		<line fill="none" stroke="#000000" stroke-width="2" stroke-linecap="round" stroke-linejoin="round" stroke-miterlimit="10" x1="21.3" y1="11.9" x2="21.3" y2="20"/>
	
		<line fill="none" stroke="#000000" stroke-width="2" stroke-linecap="round" stroke-linejoin="round" stroke-miterlimit="10" x1="21.3" y1="20" x2="19.3" y2="22.6"/>
	
		<line fill="none" stroke="#000000" stroke-width="2" stroke-linecap="round" stroke-linejoin="round" stroke-miterlimit="10" x1="21.3" y1="20" x2="21.3" y2="24.1"/>
	<path fill="none" stroke="#000000" stroke-width="2" stroke-linecap="round" stroke-linejoin="round" stroke-miterlimit="10" d="
		M46.8,24.2c0,0-4,0.8-8-3.1"/>
	<path fill="none" stroke="#000000" stroke-width="2" stroke-linecap="round" stroke-linejoin="round" stroke-miterlimit="10" d="
		M25.1,24.2c0,0,4,0.8,8-3.1"/>
	<path fill="none" stroke="#FFFFFF" stroke-width="2" stroke-linecap="round" stroke-miterlimit="10" d="M44.9,46.8
		c-3.2,2.1-5.9,3.6-9,3.6H36c-3.1,0-5.8-1.5-9-3.6"/>
	<path fill="none" stroke="#000000" stroke-width="2" stroke-linecap="round" stroke-linejoin="round" stroke-miterlimit="10" d="
		M54.8,57.8c0,0,2-13-10-13c-3.2,2.1-5.9,3.6-9,3.6h0.1c-3.1,0-5.8-1.5-9-3.6c-12,0-10,13-10,13"/>
</g>
</svg>
