<?xml version="1.0" encoding="utf-8"?>
<!-- Generator: Adobe Illustrator 21.1.0, SVG Export Plug-In . SVG Version: 6.00 Build 0)  -->
<svg version="1.1" id="emoji" xmlns="http://www.w3.org/2000/svg" xmlns:xlink="http://www.w3.org/1999/xlink" x="0px" y="0px"
	 viewBox="0 0 72 72" enable-background="new 0 0 72 72" xml:space="preserve">
<g id="_xD83D__xDC77__1_">
	<g>
		<path fill="#90D2F4" d="M54.1,58.9c0,0,2-13.8-10-13.8c-3.2,2.1-5.9,3.6-9,3.6h0.1c-3.1,0-5.8-1.5-9-3.6c-12,0-10,13.8-10,13.8"/>
	</g>
	<g>
		<path fill="#5AA8D4" d="M43.1,49.1c5.4,2.3,5.6,6.8,6.1,9.8c4.2,0,5,0,5,0S56.4,44,44.6,44"/>
	</g>
	<g>
		<path fill="#E27023" d="M49.1,58.9V45.8L45,45.1c-2.4,5.5-5,10.9-6.8,13.8H49.1z"/>
	</g>
	<g>
		<path fill="#E27023" d="M33.7,58.9c-1.8-2.9-4.5-8.3-6.8-13.8l-4.3,0.7v13.1L33.7,58.9z"/>
	</g>
	<g>
		<g>
			<line fill="#1D1D1B" x1="24.7" y1="45.5" x2="28.1" y2="58.9"/>
		</g>
		<g>
			<polygon fill="#FCEA2C" points="27.2,58.9 23.7,45.7 25.6,45.2 29.4,58.9 			"/>
		</g>
		<g>
			<polygon fill="#FCEA2C" points="44.4,58.9 47.9,45.7 46,45.2 42.2,58.9 			"/>
		</g>
	</g>
	<g>
		<path d="M54.8,58.9c-0.1,0-0.1,0-0.2,0c-0.5-0.1-0.9-0.6-0.8-1.1c0-0.1,0.8-5.7-2.1-9.2c-1.5-1.7-3.7-2.6-6.6-2.7
			c-3.3,2.2-6,3.5-9.1,3.6c0,0,0,0-0.1,0c0,0,0,0,0,0h0c0,0,0,0,0,0c0,0,0,0,0,0c-3.1,0-5.8-1.4-9.1-3.6c-2.9,0.1-5.1,1-6.6,2.7
			c-3,3.4-2.1,9.1-2.1,9.2c0.1,0.5-0.3,1.1-0.8,1.1C16.5,59,16,58.6,15.9,58c0-0.3-1-6.6,2.6-10.8c1.9-2.2,4.8-3.4,8.4-3.4
			c0.2,0,0.4,0.1,0.6,0.2c3.2,2.1,5.7,3.4,8.4,3.4c2.7,0,5.2-1.3,8.4-3.4c0.2-0.1,0.4-0.2,0.6-0.2c3.7,0,6.5,1.1,8.4,3.4
			c3.6,4.1,2.6,10.5,2.6,10.8C55.7,58.5,55.3,58.9,54.8,58.9z"/>
	</g>
	<g>
		<path d="M33.8,58.9c-0.3,0-0.7-0.2-0.8-0.5c-1.8-2.9-4.5-7.6-6.9-13.1c-0.2-0.5,0-1.1,0.5-1.3c0.5-0.2,1.1,0,1.3,0.5
			c2.3,5.5,5,10,6.8,12.9c0.3,0.5,0.2,1.1-0.3,1.4C34.1,58.8,33.9,58.9,33.8,58.9z"/>
	</g>
	<g>
		<path d="M38.2,58.9c-0.2,0-0.4,0-0.5-0.2c-0.5-0.3-0.6-0.9-0.3-1.4c1.8-2.9,4.4-7.4,6.8-12.9c0.2-0.5,0.8-0.7,1.3-0.5
			c0.5,0.2,0.7,0.8,0.5,1.3c-2.4,5.6-5.1,10.2-6.9,13.1C38.9,58.7,38.5,58.9,38.2,58.9z"/>
	</g>
	<g>
		<path d="M22.6,58.9c-0.6,0-1-0.4-1-1V45.6c0-0.6,0.4-1,1-1s1,0.4,1,1v12.3C23.6,58.4,23.2,58.9,22.6,58.9z"/>
	</g>
	<g>
		<path d="M49.1,58.9c-0.6,0-1-0.4-1-1V45.6c0-0.6,0.4-1,1-1s1,0.4,1,1v12.3C50.1,58.4,49.7,58.9,49.1,58.9z"/>
	</g>
	<g id="XMLID_68_">
		<g>
			<path fill="#FCEA2C" d="M47,25c0.2,1.1,0.3,2.2,0.3,3.4c0,7.8-5.1,14.2-11.3,14.2s-11.3-6.4-11.3-14.2c0-1.5,0.2-3,0.6-4.3
				l0.5,0.2c3.4,1.4,9.3-3.5,10.2-4.3c0.9,0.8,6.9,5.7,10.2,4.3l0.6-0.2C46.9,24.4,46.9,24.7,47,25z M42,27c0-1.1-0.9-2-2-2
				c-1.1,0-2,0.9-2,2c0,1.1,0.9,2,2,2C41.1,29,42,28.1,42,27z M39.4,36.2c0.5-0.2,0.7-0.8,0.5-1.3c-0.2-0.5-0.9-0.7-1.3-0.4
				c-1.7,0.9-3.4,0.9-5.1,0c-0.5-0.2-1.1-0.1-1.3,0.4c-0.2,0.5,0,1.1,0.5,1.3c1.1,0.6,2.3,0.9,3.4,0.9S38.3,36.8,39.4,36.2z M34,27
				c0-1.1-0.9-2-2-2c-1.1,0-2,0.9-2,2c0,1.1,0.9,2,2,2C33.1,29,34,28.1,34,27z"/>
			<path fill="#F0B41A" d="M46.9,21.3L46.9,21.3c-0.4,0-0.8-0.2-1.3-0.3c-2.1-0.6-5-1.2-8.6-1.2v-2.6H40l0.1-6
				C46.9,12.5,46.9,21.3,46.9,21.3z"/>
			<path fill="#3F3F3F" d="M46.8,24.1l-0.6,0.2c-3.4,1.4-9.3-3.5-10.2-4.3c0.1-0.1,0.1-0.1,0.1-0.1c0.3,0,0.7,0,1,0
				c3.6,0,6.5,0.5,8.6,1.2C46.1,21.9,46.5,23,46.8,24.1z"/>
			<path d="M40,25c1.1,0,2,0.9,2,2c0,1.1-0.9,2-2,2c-1.1,0-2-0.9-2-2C38,25.9,38.9,25,40,25z"/>
			<path fill="#FCEA2C" d="M40,11.3l-0.1,6h-2.9H32l0.1-6C33.6,8.4,39.4,9.2,40,11.3L40,11.3z"/>
			<path d="M39.9,34.8c0.2,0.5,0,1.1-0.5,1.3C38.3,36.8,37.1,37,36,37s-2.3-0.3-3.4-0.9c-0.5-0.2-0.7-0.8-0.5-1.3
				c0.2-0.5,0.8-0.7,1.3-0.4c1.7,0.9,3.4,0.9,5.1,0C39,34.1,39.6,34.3,39.9,34.8z"/>
			<path fill="#F0B41A" d="M37.1,17.3v2.6c-0.3,0-0.7,0-1,0h-0.2c0,0-0.1,0-0.1,0c-4-0.1-7.2,0.5-9.5,1.1v0
				c-0.6,0.2-1.1,0.4-1.6,0.5l-0.1-0.2c0,0,0.1-9.2,7.4-10.1l-0.1,6H37.1z"/>
			<path fill="#3F3F3F" d="M35.8,19.9c0,0,0,0,0.1,0.1c-0.9,0.8-6.9,5.7-10.2,4.3l-0.5-0.2c0.3-1.1,0.7-2.1,1.1-3.1v0
				C28.6,20.3,31.8,19.7,35.8,19.9z"/>
			<path d="M32,25c1.1,0,2,0.9,2,2c0,1.1-0.9,2-2,2c-1.1,0-2-0.9-2-2C30,25.9,30.9,25,32,25z"/>
		</g>
		<g>
			<path fill="none" stroke="#000000" stroke-width="2" stroke-miterlimit="10" d="M26.3,21c-0.5,1-0.9,2-1.1,3.1
				c-0.4,1.4-0.6,2.8-0.6,4.3c0,7.8,5.1,14.2,11.3,14.2s11.3-6.4,11.3-14.2c0-1.1-0.1-2.3-0.3-3.4c-0.1-0.3-0.1-0.7-0.2-1
				c-0.3-1.1-0.7-2.1-1.1-3.1"/>
			<path fill="none" stroke="#000000" stroke-width="2" stroke-linecap="round" stroke-linejoin="round" stroke-miterlimit="10" d="
				M26.3,21c-0.6,0.2-1.1,0.4-1.6,0.5c-1.7,0.6-2.6,1.2-2.6,1.2"/>
			<line fill="none" stroke="#000000" stroke-width="2" stroke-miterlimit="10" x1="26.3" y1="21" x2="26.3" y2="21"/>
			<path fill="none" stroke="#000000" stroke-width="2" stroke-linecap="round" stroke-linejoin="round" stroke-miterlimit="10" d="
				M49.9,22.7c0,0-1-0.7-3-1.4c-0.4-0.1-0.8-0.3-1.2-0.4c-2.1-0.6-5-1.2-8.6-1.2c-0.3,0-0.7,0-1,0h-0.2c0,0-0.1,0-0.1,0
				c-4-0.1-7.2,0.5-9.5,1.1"/>
			<path fill="none" stroke="#000000" stroke-width="2" stroke-linecap="round" stroke-linejoin="round" stroke-miterlimit="10" d="
				M40,11.3L40,11.3c-0.6-2.2-6.4-2.9-8-0.1l-0.1,6h5.1H40L40,11.3z"/>
			<path fill="none" stroke="#000000" stroke-width="2" stroke-miterlimit="10" d="M24.6,21.3c0,0,0.1-9.2,7.4-10.1"/>
			<path fill="none" stroke="#000000" stroke-width="2" stroke-miterlimit="10" d="M46.9,21.3c0,0,0-8.8-6.9-10
				c-0.2,0-0.3-0.1-0.5-0.1"/>
			<path fill="none" stroke="#000000" stroke-width="2" stroke-linecap="round" stroke-miterlimit="10" d="M36.1,19.9
				c0,0,0,0-0.1,0.1c-0.9,0.8-6.9,5.7-10.2,4.3l-0.5-0.2h0"/>
			<path fill="none" stroke="#000000" stroke-width="2" stroke-linecap="round" stroke-miterlimit="10" d="M35.8,19.9
				c0,0,0,0,0.1,0.1c0.9,0.8,6.9,5.7,10.2,4.3l0.6-0.2"/>
		</g>
	</g>
</g>
</svg>
