<?xml version="1.0" encoding="utf-8"?>
<!-- Generator: Adobe Illustrator 21.1.0, SVG Export Plug-In . SVG Version: 6.00 Build 0)  -->
<svg version="1.1" id="emoji" xmlns="http://www.w3.org/2000/svg" xmlns:xlink="http://www.w3.org/1999/xlink" x="0px" y="0px"
	 viewBox="0 0 72 72" enable-background="new 0 0 72 72" xml:space="preserve">
<g id="_xD83D__xDC7D__xFE0F__1_">
	<path fill="#D7D8DE" d="M56.8,32.4c0,5.5-1.7,11.1-4.2,15.9c-0.6,1.2-1.9,1.6-2.6,2.7c-0.6,0.9-0.7,2.6-1.4,3.5
		c-4,5.1-8.8,8.5-12.6,8.5c-3.8,0-8.5-3.3-12.5-8.4C22.8,53.8,23.6,52,23,51c-0.5-0.8-2.5-0.8-3-1.6c-2.9-5.1-4.8-11.1-4.8-17
		C15.2,17.4,25.6,10,36,10S56.8,17.4,56.8,32.4z"/>
	<path fill="#AAAFB5" d="M37,63c6-5,11.9-48.1,12-49c2.2,3.1,7,9.9,7.7,14c1.2,7.7-2,13.8-5,20.5C46,61,37,63,37,63"/>
	<path fill="none" stroke="#010101" stroke-width="2" stroke-linecap="round" stroke-linejoin="round" stroke-miterlimit="10" d="
		M30.8,53.7c0.4,0.4,2.3,2.1,5.1,1.9c2.2-0.1,3.8-1.5,4.3-1.9"/>
	<path fill="#3F3F3F" d="M22.6,42.3c2,3.7,5.3,5.7,7.5,4.5c2.1-1.2,2.3-5.2,0.3-8.9c-2-3.7-5.3-5.7-7.5-4.5S20.6,38.6,22.6,42.3z"/>
	<path fill="none" stroke="#010101" stroke-width="2" stroke-miterlimit="10" d="M22.6,42.3c2,3.7,5.3,5.7,7.5,4.5
		c2.1-1.2,2.3-5.2,0.3-8.9c-2-3.7-5.3-5.7-7.5-4.5S20.6,38.6,22.6,42.3z"/>
	<path fill="none" stroke="#1D1E1C" stroke-width="2" stroke-linecap="round" stroke-linejoin="round" stroke-miterlimit="10" d="
		M36,63c-10,0-13.5-11.8-13.5-11.8s-7.3-5.9-7.3-18.8C15.2,17.4,25.6,10,36,10s20.8,7.4,20.8,22.4c0,13-7.1,18.4-7.3,18.8
		C45.4,60.6,40.4,63,36,63z"/>
	<path fill="#3F3F3F" d="M49.1,42.3c-2,3.7-5.3,5.7-7.5,4.5c-2.1-1.2-2.3-5.2-0.3-8.9c2-3.7,5.3-5.7,7.5-4.5
		C51,34.7,51.1,38.6,49.1,42.3z"/>
	<path fill="none" stroke="#010101" stroke-width="2" stroke-miterlimit="10" d="M49.1,42.3c-2,3.7-5.3,5.7-7.5,4.5
		c-2.1-1.2-2.3-5.2-0.3-8.9c2-3.7,5.3-5.7,7.5-4.5C51,34.7,51.1,38.6,49.1,42.3z"/>
</g>
</svg>
