<svg id="emoji" viewBox="0 0 72 72" xmlns="http://www.w3.org/2000/svg">
  <g id="color">
    <path fill="#fff" d="M53.6583,27.1555c-.0057-.0128-.0172-.02-.0234-.0329a.9779.9779,0,0,0-.1238-.1745.9986.9986,0,0,0-.1135-.1358,2.4417,2.4417,0,0,0-.3408-.1927c-.0126-.0041-.0213-.0141-.0342-.0178a1820.9231,1820.9231,0,0,1-.35-.0281.972.972,0,0,0-.1948.0443.93.93,0,0,0-.1394.0317c-.0133.0059-.0212.0178-.0341.0242a.9783.9783,0,0,0-.1756.1249.5626.5626,0,0,0-.2283.2644.9707.9707,0,0,0-.0959.1844c-.0048.0139-.0157.0235-.02.0378a11.2434,11.2434,0,0,1-5.8818,7.0859.9476.9476,0,0,0-.1109.089.7144.7144,0,0,0-.2776.3039.9232.9232,0,0,0-.0715.1042c-1.98,4.6533-5.6133,7.51-9.4541,7.4141-3.1816-.0655-6.1328-2.0967-8.0977-5.5713-.0075-.0136-.0211-.0208-.0293-.0339a.9771.9771,0,0,0-.1578-.1824.9991.9991,0,0,0-.1085-.1018.9768.9768,0,0,0-.1881-.0937.9883.9883,0,0,0-.1685-.0634c-.02-.0044-.0353-.0176-.0558-.0209-2.9531-.4775-6.1132-6.7031-7.082-9.0615a.9267.9267,0,0,0-.0759-.1138.67.67,0,0,0-.33-.34.9544.9544,0,0,0-.11-.0785l-.0121-.0026a.9938.9938,0,0,0-.2614-.0589,1.0458,1.0458,0,0,0-.1189-.0245,1.059,1.059,0,0,0-.134.0232,1.0077,1.0077,0,0,0-.248.0473l-.0147.0028a.9518.9518,0,0,0-.134.0893.98.98,0,0,0-.178.1187.97.97,0,0,0-.1482.2071.91.91,0,0,0-.072.1006l-.01.0221-.0009.0018C16.6869,30.6417,9.2191,47.9476,13.1075,51.77a2.8859,2.8859,0,0,0,2.1065.8193,6.7893,6.7893,0,0,0,2.8144-.75c.0113-.0052.0177-.0155.0286-.0212a.9873.9873,0,0,0,.2662-.1972.9467.9467,0,0,0,.0613-.08.979.979,0,0,0,.0863-.1127c1.502-2.6367,4.1367-4.0069,7.8311-4.0762,3.4638,2.2871,6.3047,3.7119,9.542,3.7568.0146.001.03.001.0449.001h.1142c.0215,0,.044,0,.0655-.001,3.2383-.0449,6.0791-1.47,9.542-3.7568,3.5771.0674,6.1621,1.3535,7.6845,3.8272.0173.0278.045.0431.0644.0687a.99.99,0,0,0,.52.5914,6.79,6.79,0,0,0,2.8145.75,2.8843,2.8843,0,0,0,2.1035-.8164C59.75,50.8381,62.1935,46.304,53.6583,27.1555Z"/>
    <path fill="#fff" d="M51.1466,60.9583H20.9142a1,1,0,0,1-.8135-1.5811c4.3564-6.0977,6.6016-6.0557,10.8672-5.4053a30.9193,30.9193,0,0,0,4.9883.4522,33.0315,33.0315,0,0,0,5.2383-.459c4.3212-.6465,6.416-.6748,10.7656,5.4121a1,1,0,0,1-.8135,1.5811Z"/>
  </g>
  <g id="skin">
    <path fill="#6a462f" d="M36.1534,44.2844c-.0683,0-.1377-.0009-.206-.0019-6.96-.1455-12.4649-7.7637-12.2735-16.9824A23.6216,23.6216,0,0,1,24.92,19.6975a1.0008,1.0008,0,0,1,.586-.5517.9908.9908,0,0,1,.8037.0585,25.3563,25.3563,0,0,0,20.4756-.0361,1,1,0,0,1,1.3769.7363,43.8643,43.8643,0,0,1,.7549,7.9336A19.7648,19.7648,0,0,1,45.0734,39.46,11.3168,11.3168,0,0,1,36.1534,44.2844Z"/>
    <path fill="#6a462f" d="M54.0792,48.8685c-2.0039-2.336-4.9531-3.52-8.7666-3.52a1.0011,1.0011,0,0,0-.5547.168C41.45,47.7229,38.82,49.095,35.9562,49.11c-2.8614-.0147-5.4932-1.3877-8.8018-3.5928a1.0006,1.0006,0,0,0-.5547-.168c-3.8135,0-6.7617,1.1836-8.7656,3.5186-3.7061,4.32-2.7344,10.9619-2.6914,11.2431a1.0006,1.0006,0,0,0,.9883.8477h4.7832a1,1,0,0,1-.8135-1.5811c4.3564-6.0976,6.6016-6.0556,10.8672-5.4052a30.9206,30.9206,0,0,0,4.9883.4521,33.02,33.02,0,0,0,5.2383-.459c4.3212-.6464,6.416-.6748,10.7656,5.4121a1,1,0,0,1-.8135,1.5811h4.6357a1.0006,1.0006,0,0,0,.9883-.8477C56.8136,59.8294,57.7853,53.1888,54.0792,48.8685Z"/>
  </g>
  <g id="hair">
    <path fill="#000000" d="M53.1564,15.3362a5.9711,5.9711,0,0,0-5.045-3.5645,7.449,7.449,0,0,0-4.333,1.0547c-1.3886-1.5527-5.0312-5.0439-9.91-5.3C30.173,7.33,26.5958,9.0413,23.2237,12.6624a7.2937,7.2937,0,0,1-6.6425,2.4121,1,1,0,0,0-1.16,1.1562c.0694.3985.6377,3.3291,2.5078,4.6973a5.8245,5.8245,0,0,0-1.1963,3.0478,5.5138,5.5138,0,0,0,1.587,4.1035c.6376,1.5121,4.0869,9.2226,8.4044,10.0739.0282.0088.056.0161.0848.0223.0181.0032.0357.0113.0537.0142A.9965.9965,0,0,0,27,38.2005c.0073,0,.0144.0029.0217.0029a.9944.9944,0,0,0,.31-.0564c.03-.01.058-.0227.087-.0354a.9481.9481,0,0,0,.094-.0381c.0237-.0134.0369-.0361.0591-.0511a.9774.9774,0,0,0,.1785-.1547.9606.9606,0,0,0,.088-.1051,1.4962,1.4962,0,0,0,.1493-.3374c.0051-.0221.0185-.04.0222-.0626a131.6715,131.6715,0,0,1-.0127-.3262.9665.9665,0,0,0-.0731-.2234.9242.9242,0,0,0-.0334-.1018A18.5416,18.5416,0,0,1,25.6739,27.32a25.0526,25.0526,0,0,1,.7452-5.8662,27.24,27.24,0,0,0,19.98.0273,36.14,36.14,0,0,1,.52,6.2774c0,.0045.0022.0085.0019.0131l-.0029.0132a19.29,19.29,0,0,1-1.4746,7.084c-.0059.0139-.0034.0285-.0088.0424a1.1873,1.1873,0,0,0,.0256.7608c.007.0155.0057.0321.0135.0474a.9412.9412,0,0,0,.09.1127,1.9119,1.9119,0,0,0,.4076.3482c.0144.0061.0294.0036.044.009a.9822.9822,0,0,0,.2089.0428,1.06,1.06,0,0,0,.1387.0283c.0156,0,.03-.006.046-.0067.03-.0013.0575-.0087.0871-.0127a.9861.9861,0,0,0,.2683-.0759c.0184-.0081.0384-.0067.0566-.016C58.3214,30.2092,53.2159,15.5032,53.1564,15.3362Z"/>
  </g>
  <g id="line">
    <path fill="none" stroke="#000" stroke-linecap="round" stroke-linejoin="round" stroke-width="2" d="M47.9172,27.8051a43.3663,43.3663,0,0,0-.7382-7.7178h0a26.0907,26.0907,0,0,1-21.338,0A22.9285,22.9285,0,0,0,24.6739,27.32c-.1811,8.6818,4.8753,15.8284,11.2939,15.9622s11.7683-6.7957,11.9494-15.4775"/>
    <path fill="none" stroke="#000" stroke-linecap="round" stroke-linejoin="round" stroke-width="2" d="M46.3619,35.26c10.856-5.6062,5.86-19.5675,5.86-19.5675a4.9807,4.9807,0,0,0-4.1981-2.9241,6.7193,6.7193,0,0,0-4.4341,1.3884S34.4771,2.055,24.0025,13.29a8.3451,8.3451,0,0,1-7.5966,2.7683s.7136,4.0878,3.1862,4.5277c0,0-3.9156,3.2042-.4165,6.9468,0,0,3.6875,8.9966,7.8474,9.6691"/>
    <path d="M42,29.773a2,2,0,1,1-2-2,2.0007,2.0007,0,0,1,2,2"/>
    <path d="M34,29.773a2,2,0,1,1-2-2,2.0007,2.0007,0,0,1,2,2"/>
    <path d="M36,39.7754a7.6524,7.6524,0,0,1-3.4472-.8579,1,1,0,0,1,.8945-1.7891,5.3774,5.3774,0,0,0,5.1055,0,1,1,0,1,1,.8945,1.7891A7.6528,7.6528,0,0,1,36,39.7754Z"/>
    <path fill="none" stroke="#000" stroke-linecap="round" stroke-linejoin="round" stroke-width="2" d="M16.1309,59.9584s-2.0938-13.61,10.4689-13.61c3.3416,2.2277,6.2043,3.7671,9.4221,3.7605H35.891c3.2178.0066,6.0806-1.5328,9.4221-3.7605,12.5627,0,10.4689,13.61,10.4689,13.61"/>
    <path fill="none" stroke="#000" stroke-linecap="round" stroke-linejoin="round" stroke-width="2" d="M51.1468,59.9584c-5.7322-8.0208-6.9511-4.5345-15.19-4.5345-7.8374,0-9.31-3.4863-15.0426,4.5345"/>
    <path fill="none" stroke="#000" stroke-linecap="round" stroke-linejoin="round" stroke-width="2" d="M24.6692,16.4756s12.1185,5.7865,23.2631,0"/>
    <path fill="none" stroke="#000" stroke-linecap="round" stroke-linejoin="round" stroke-width="2" d="M19.1756,27.5332S9.2978,49.5547,14.44,51.4577"/>
    <path fill="none" stroke="#000" stroke-linecap="round" stroke-linejoin="round" stroke-width="2" d="M52.745,27.5626c.3992.896,9.7523,22.0251,4.725,23.8941"/>
  </g>
</svg>
