<svg id="emoji" viewBox="0 0 72 72" xmlns="http://www.w3.org/2000/svg">
  <g id="color">
    <path fill="#fff" d="m13.9953,51.377c-.9623-2.069,3.4028-6.2239,6.017-12.0822,1.1268-2.5251,1.2295-4.7069.738-6.384-1.2826-2.5697-2.3564-3.62-3.4174-6.1225-.8441-1.991,8.174-.2897,8.3927-.3765.8853-.7861,3.2644-9.554,5.4268-12.2402.9874-1.2266,3.396-2.6415,5.7808-2.5013,2.0182.1187,4.1012,1.3013,4.9603,2.3747,2.171,2.7125,4.7139,12.2063,5.4308,12.3544,1.9302.3988,7.9684-1.8974,8.321.4119.0771.5053-1.9201,5.7746-2.2439,6.1147-.5692,1.348-1.1653,3.3725-.3164,5.4799,1.2135,3.0123,6.055,8.5856,6.0544,14.0239,0,.1925-.9263,5.5194-7.6907,3.6474-.1511-.0418-.184-.1383-.2678-.2018-1.5408-1.1691-4.7131-1.7748-7.61-.9184-3.4167,1.01-2.8112,2.9781-6.954,4.7235-1.0835.4565-3.1113,1.2832-5.7731,1.0496-.7152-.0628-2.7788-.2675-4.8115-1.6059-2.9156-1.9198-2.3607-3.9289-4.7879-5.7011-3.2153-2.3478-6.5523-.5481-7.2491-2.0461Z"/>
    <ellipse cx="39.8979" cy="23.2122" rx="1.7074" ry="3.1872" fill="#3f3f3f"/>
    <ellipse cx="36.5193" cy="30.3411" rx="1.7742" ry="2.1254" fill="#3f3f3f"/>
    <path fill="#d0cfce" d="m40.1212,56.6767c.7152-.0627,3.5205-2.5204,5.4482-2.3674,3.4799.2761,9.0034,3.463,11.4306,1.6907,3.2152-2.3476,1.2678-3.0961,1.9646-4.5942.9623-2.069-3.4028-6.2239-6.017-12.0822-1.1268-2.5251-1.2295-4.7069-.738-6.384,1.2826-2.5697,2.3564-3.62,3.4174-6.1225.8441-1.991-8.174-.2897-8.3927-.3765-.8853-.7861-1.9246-3.9216-3.4483-7.7112"/>
    <ellipse cx="33.1007" cy="23.2122" rx="1.7074" ry="3.1872" fill="#3f3f3f"/>
  </g>
  <g id="line">
    <ellipse cx="39.8778" cy="23.2122" rx="1.7074" ry="3.1872" fill="none" stroke="#000" stroke-linecap="round" stroke-linejoin="round" stroke-width="2"/>
    <path fill="none" stroke="#000" stroke-linecap="round" stroke-linejoin="round" stroke-width="2" d="m13.9753,51.377c-.9623-2.069,3.4028-6.2239,6.017-12.0822,1.1268-2.5251,1.2295-4.7069.738-6.384-1.2826-2.5697-2.3564-3.62-3.4174-6.1225-.8441-1.991,8.174-.2897,8.3927-.3765.8853-.7861,3.2644-9.554,5.4268-12.2402.9874-1.2266,3.396-2.6415,5.7808-2.5013,2.0182.1187,4.1012,1.3013,4.9603,2.3747,2.171,2.7125,4.7139,12.2063,5.4308,12.3544,1.9302.3988,7.9684-1.8974,8.321.4119.0771.5053-1.9201,5.7746-2.2439,6.1147-.5692,1.348-1.1653,3.3725-.3164,5.4799,1.2135,3.0123,6.055,8.5856,6.0544,14.0239,0,.1925-.9263,5.5194-7.6907,3.6474-.1511-.0418-4.9809-1.9766-7.8778-1.1202-3.4167,1.01-2.8112,2.9781-6.954,4.7235-1.0835.4565-3.1113,1.2832-5.7731,1.0496-.7152-.0628-2.7788-.2675-4.8115-1.6059-2.9156-1.9198-2.3607-3.9289-4.7879-5.7011-3.2154-2.3478-6.5524-.5481-7.2491-2.0461Z"/>
    <ellipse cx="36.4993" cy="30.3411" rx="1.7742" ry="2.1254" fill="none" stroke="#000" stroke-linecap="round" stroke-linejoin="round" stroke-width="2"/>
    <ellipse cx="33.0806" cy="23.2122" rx="1.7074" ry="3.1872" fill="none" stroke="#000" stroke-linecap="round" stroke-linejoin="round" stroke-width="2"/>
  </g>
</svg>
