<svg id="emoji" xmlns="http://www.w3.org/2000/svg" viewBox="0 0 72 72">
  <g id="color">
    <path d="M40.9512,10.5119s5.4813,8.9463,1.1446,12.8282l5.4149,4.4923S55.823,15.6109,40.9512,10.5119Z" fill="#d0cfce"/>
    <path d="M54.8642,60.1072s2-13.7973-10-13.7973c-3.1918,2.1192-5.9264,3.5837-9,3.5775h.125c-3.0736.0062-5.8081-1.4583-9-3.5775-12,0-10,13.7973-10,13.7973" fill="#b1cc33"/>
    <path d="M45.2573,45.1631c-3.1127,2.0751-4.9833,3.24-8.9725,3.8184,12.8266.404,12.8266,7.1793,13.575,11.1071h5.02S57.0405,45.1631,45.2573,45.1631Z" fill="#5c9e31"/>
  </g>
  <g id="hair">
    <path d="M24,29l-1,6v2l-1,3,1,1h5l.1323-.6659S26.1447,38,26.5724,38s-1.2219-3-1.2219-3l-.4049-2.3739Z" fill="#fcea2b"/>
    <path d="M48.1323,29l1,6v2l1,3-1,1h-5L44,40.3341S45.9876,38,45.56,38s1.2218-3,1.2218-3l.4049-2.3739Z" fill="#fcea2b"/>
  </g>
  <g id="skin">
    <g id="skin-2" data-name="skin">
      <path d="M47.02,26.765a17.6438,17.6438,0,0,1,.32,3.36c0,7.83-5.08,14.18-11.34,14.18s-11.34-6.35-11.34-14.18A8.8683,8.8683,0,0,1,25,27l.74-.995C28.14,23.9924,34.2985,20.9666,36,23c2.8123-2.0267,8.7265,1.6022,10.18,3.005L47,27C47.08,27.32,46.96,26.435,47.02,26.765ZM41,29c0-1.1.11-2.235-1-2.235-1.1,0-1,1.135-1,2.235,0,1.11-.1,1,1,1C41.11,30,41,30.11,41,29Zm-2,8c.49-.25,1.14.065.9-.425a.9935.9935,0,0,0-1.34-.45,5.383,5.383,0,0,1-5.11,0,.9879.9879,0,0,0-1.34.45c-.25.49,1.39.175,1.89.425,1.14.57.85,1,2,1A6.2207,6.2207,0,0,0,39,37Zm-6-8c0-1.1.11-2.235-1-2.235-1.1,0-1,1.135-1,2.235,0,1.11-.1,1,1,1C33.11,30,33,30.11,33,29Z" fill="#debb90"/>
    </g>
  </g>
  <g id="line">
    <path d="M24.7614,27.38a17.5915,17.5915,0,0,0-.1145,2.0118c0,7.83,5.08,14.18,11.34,14.18s11.34-6.35,11.34-14.18a17.8661,17.8661,0,0,0-.1132-2.0119" fill="none" stroke="#000" stroke-miterlimit="10" stroke-width="2"/>
    <path d="M40.0984,26.2524a2,2,0,1,1-2,2A2.0059,2.0059,0,0,1,40.0984,26.2524Z"/>
    <path d="M39.9884,36.0624a.9935.9935,0,0,1-.45,1.34,7.33,7.33,0,0,1-6.89,0,1.0108,1.0108,0,0,1-.45-1.34.9935.9935,0,0,1,1.34-.45,5.383,5.383,0,0,0,5.11,0A.9935.9935,0,0,1,39.9884,36.0624Z"/>
    <path d="M32.0984,26.2524a2,2,0,1,1-2,2,2.0261,2.0261,0,0,1,.45-1.27A2.0009,2.0009,0,0,1,32.0984,26.2524Z"/>
    <path d="M40.0984,26.2524a2,2,0,1,1-2,2A2.0059,2.0059,0,0,1,40.0984,26.2524Z"/>
    <path d="M32.0984,26.2524a2,2,0,1,1-2,2,2.0261,2.0261,0,0,1,.45-1.27A2.0009,2.0009,0,0,1,32.0984,26.2524Z"/>
    <path d="M44.9084,46.1124c12,0,10,13,10,13" fill="none" stroke="#000" stroke-linecap="round" stroke-linejoin="round" stroke-width="2"/>
    <path d="M41.4684,48.1824a35.3342,35.3342,0,0,0,3.33-2" fill="none" stroke="#000" stroke-linecap="round" stroke-linejoin="round" stroke-width="2"/>
    <path d="M17.0384,59.1124s-2-13,10-13c3.14,2.09,5.84,3.55,8.87,3.59h.13a12.2021,12.2021,0,0,0,5.42-1.51" fill="none" stroke="#000" stroke-linecap="round" stroke-linejoin="round" stroke-width="2"/>
    <path d="M24.8484,27.7724c.33-.22,1.59-1.07,3.17-2.35a39.4538,39.4538,0,0,0,4.08-3.79,18.72,18.72,0,0,0,4.07-6.24,9.0785,9.0785,0,0,0,.47-1.95,6.8919,6.8919,0,0,0-.53-3.75c0-.01-.01-.02-.01-.03a13.1031,13.1031,0,0,0-3.84.54c-15.84,4.84-7.5,17.63-7.5,17.63l.09-.06" fill="none" stroke="#000" stroke-linecap="round" stroke-linejoin="round" stroke-width="2"/>
    <path d="M23.4084,23.9624a40.62,40.62,0,0,0,9.66-10.11" fill="none" stroke="#000" stroke-linecap="round" stroke-linejoin="round" stroke-width="2"/>
    <path d="M47.4084,27.7624a46.092,46.092,0,0,1-6.98-6.13,21.3528,21.3528,0,0,1-4.13-6.19" fill="none" stroke="#000" stroke-linecap="round" stroke-linejoin="round" stroke-width="2"/>
    <path d="M36.1684,9.6624a13.217,13.217,0,0,1,3.85.54c10.25,3.13,10.37,9.6,9.18,13.76a15.582,15.582,0,0,1-1.69,3.87s-.03-.02-.1-.07" fill="none" stroke="#000" stroke-linecap="round" stroke-linejoin="round" stroke-width="2"/>
    <path d="M48.8584,23.9624a49.7116,49.7116,0,0,1-9.3-10.11" fill="none" stroke="#000" stroke-linecap="round" stroke-linejoin="round" stroke-width="2"/>
    <path d="M32.0984,21.6324s4.59,3.57,8.33,0h.01" fill="none" stroke="#000" stroke-linecap="round" stroke-linejoin="round" stroke-width="2"/>
    <path d="M44.9084,46.1124a.9322.9322,0,0,0-.11.07c-.37.21-1.64.96-3.33,2a.01.01,0,0,1-.01.01c-5.09,3.14-14.05,8.95-14.05,10.92" fill="none" stroke="#000" stroke-linecap="round" stroke-linejoin="round" stroke-width="2"/>
    <g>
      <path d="M28.1323,41.0457c-2.8064,1.58-4.7476.7338-5.8883-.2663a1.3329,1.3329,0,0,1-.1494-1.9094C24.05,36.75,24.1929,27,24.1929,27" fill="none" stroke="#000" stroke-linecap="round" stroke-linejoin="round" stroke-width="2"/>
      <path d="M47.6984,27s.143,9.75,2.0983,11.87a1.3329,1.3329,0,0,1-.1494,1.9094c-1.1408,1-3.0819,1.8465-5.8884.2663" fill="none" stroke="#000" stroke-linecap="round" stroke-linejoin="round" stroke-width="2"/>
    </g>
  </g>
</svg>
