<?xml version="1.0" encoding="utf-8"?>
<!-- Generator: Adobe Illustrator 21.1.0, SVG Export Plug-In . SVG Version: 6.00 Build 0)  -->
<svg version="1.1" id="emoji" xmlns="http://www.w3.org/2000/svg" xmlns:xlink="http://www.w3.org/1999/xlink" x="0px" y="0px"
	 viewBox="0 0 72 72" enable-background="new 0 0 72 72" xml:space="preserve">
<g id="_xD83D__xDC7F__1_">
	<path fill="#CD4D41" d="M49,20c3-2,4-5,3-9c7,2,6,10,3,15"/>
	<path fill="#CD4D41" d="M23.3,20c-3-2-4-5-3-9c-7,2-6,10-3,15"/>
	<path fill="#E37861" d="M36.2,17.3c-12.6,0-22.8,10.2-22.8,22.8c0,12.6,10.2,22.8,22.8,22.8C48.8,62.9,59,52.7,59,40.1
		C59,27.5,48.8,17.3,36.2,17.3z"/>
	<circle fill="none" stroke="#010101" stroke-width="2" stroke-miterlimit="10" cx="36" cy="40" r="23"/>
	<path fill="#010101" d="M30.3,36.9c0,1.7-1.3,3-3,3c-1.7,0-3-1.3-3-3c0-1.7,1.3-3,3-3C29,33.9,30.3,35.3,30.3,36.9"/>
	<path fill="#010101" d="M48.3,36.9c0,1.7-1.3,3-3,3s-3-1.3-3-3c0-1.7,1.3-3,3-3S48.3,35.3,48.3,36.9"/>
	
		<line fill="none" stroke="#1D1E1C" stroke-width="2" stroke-linecap="round" stroke-linejoin="round" stroke-miterlimit="10" x1="23" y1="29" x2="30" y2="33"/>
	
		<line fill="none" stroke="#1D1E1C" stroke-width="2" stroke-linecap="round" stroke-linejoin="round" stroke-miterlimit="10" x1="49" y1="29" x2="42" y2="33"/>
	<path fill="none" stroke="#010101" stroke-width="2" stroke-linecap="round" stroke-linejoin="round" stroke-miterlimit="10" d="
		M49,20c3-2,4-5,3-9c7,2,6,10,3,15"/>
	<path fill="none" stroke="#010101" stroke-width="2" stroke-linecap="round" stroke-linejoin="round" stroke-miterlimit="10" d="
		M23.3,20c-3-2-4-5-3-9c-7,2-6,10-3,15"/>
	<path fill="none" stroke="#010101" stroke-width="2" stroke-linecap="round" stroke-linejoin="round" stroke-miterlimit="10" d="
		M30,49c1.3-0.6,4-1,6.8-1c2.6,0,5,0.4,6.2,1"/>
</g>
</svg>
