<svg id="emoji" viewBox="0 0 72 72" xmlns="http://www.w3.org/2000/svg">
  <g id="color">
    <path fill="#ea5a47" stroke="#ea5a47" stroke-miterlimit="10" d="m15.3127,11h41l-.4087,34.0923-1.7905,4.6783-2.5492,4.3957-2.9134,2.9134-2.8831,2.0637-4.1474,1.8149-4.9635.8888c-.8756-.0237-1.7477-.1194-2.6076-.2862l-4.639-.9001-4.4658-1.9235c-.2193-.1136-.4318-.2397-.6366-.3776l-1.9475-1.312c-.6975-.6975-1.3447-1.4437-1.9365-2.2328l-2.1111-2.8148-1.0908-1.6362c-.5993-.8989-1.001-1.9148-1.1786-2.9805l-.5259-3.1555c-.1362-.8171-.2046-1.6441-.2046-2.4724V11Z"/>
    <path fill="#fff" stroke="#fff" stroke-linecap="round" stroke-linejoin="round" d="m23.2977,23.8647l.4543-.5574c1.2341-1.514,3.4619-1.7409,4.9759-.5068l4.5938,3.7446c1.514,1.2341,1.7409,3.4619.5068,4.9759l-.4543.5574c-1.2341,1.514-3.4619,1.7409-4.9759.5068l-4.5938-3.7446c-1.5141-1.2341-1.741-3.4619-.5068-4.9759Z"/>
    <path fill="#fff" stroke="#fff" stroke-linecap="round" stroke-linejoin="round" d="m39.7519,32.0784l-.4543-.5574c-1.2341-1.514-1.0072-3.7418.5068-4.9759l4.5938-3.7446c1.514-1.2341,3.7418-1.0072,4.9759.5068l.4543.5574c1.2341,1.514,1.0072,3.7418-.5068,4.9759l-4.5938,3.7446c-1.5139,1.2341-3.7417,1.0072-4.9759-.5068Z"/>
    <g>
      <polygon fill="#d22f27" points="36.3127 41 46.3127 35 55.3127 35 57.0181 35.6017 59.7267 35.6548 62.8335 35.761 64.002 36.4235 64.533 37.3012 64.5065 38.3633 63.8692 39.5317 62.8867 40.2222 59.3127 41 54.3127 41 51.3127 41 48.3127 41 36.3127 41"/>
      <path fill="#d22f27" d="m38.8666,35h8.8922c1.4105,0,2.5539,1.1434,2.5539,2.5539v.8922c0,1.4105-1.1434,2.5539-2.5539,2.5539h-8.8922c-1.4105,0-2.5539-1.1434-2.5539-2.5539v-.8922c0-1.4105,1.1434-2.5539,2.5539-2.5539Z"/>
    </g>
  </g>
  <g id="line">
    <polyline fill="none" stroke="#000" stroke-linecap="round" stroke-linejoin="round" stroke-width="2" points="15.4997 42 15.4997 11 56.4997 11 56.4997 32.201"/>
    <path fill="none" stroke="#000" stroke-linecap="round" stroke-miterlimit="10" stroke-width="2" d="m56.4178,43.8508c-1.0227,11.2759-10.9927,19.5879-22.2687,18.5652-10.561-.9579-18.6485-9.8117-18.6489-20.416"/>
    <path fill="none" stroke="#000" stroke-linecap="round" stroke-miterlimit="10" stroke-width="2" d="m43.8127,50.5414c-5.0061-2.0554-10.6204-2.0554-15.6265,0"/>
    <path d="m33.63,28.9252c0,1.6569-1.3431,3-3,3s-3-1.3431-3-3,1.3431-3,3-3h0c1.6565.0007,2.9993,1.3434,3,3"/>
    <path d="m45.63,28.9252c0,1.6569-1.3431,3-3,3s-3-1.3431-3-3,1.3431-3,3-3h0c1.6566.0006,2.9994,1.3434,3,3"/>
    <line x1="25.3127" x2="32.3127" y1="17" y2="23" fill="none" stroke="#000" stroke-linecap="round" stroke-linejoin="round" stroke-width="2"/>
    <line x1="47.3127" x2="40.3127" y1="17" y2="23" fill="none" stroke="#000" stroke-linecap="round" stroke-linejoin="round" stroke-width="2"/>
    <line x1="55.3715" x2="39.2539" y1="35" y2="35" fill="none" stroke="#000" stroke-linecap="round" stroke-linejoin="round" stroke-width="2"/>
    <line x1="60.3127" x2="55.4303" y1="35" y2="35" fill="none" stroke="#000" stroke-linecap="round" stroke-linejoin="round" stroke-width="2"/>
    <path fill="none" stroke="#000" stroke-linecap="round" stroke-linejoin="round" stroke-width="2" d="m56.5002,41h4.8125s4,0,4-3c.0345-1.6224-1.2527-2.9655-2.8751-3-.0416-.0009-.0833-.0009-.1249,0h-2"/>
    <line x1="36.3127" x2="56.5002" y1="41" y2="41" fill="none" stroke="#000" stroke-linecap="round" stroke-linejoin="round" stroke-width="2"/>
    <path fill="none" stroke="#000" stroke-linecap="round" stroke-linejoin="round" stroke-width="2" d="m36.3127,45s4-3,8,0c.7638.6155,1.6585,1.0478,2.6154,1.2638"/>
    <path fill="none" stroke="#000" stroke-linecap="round" stroke-linejoin="round" stroke-width="2" d="m35.9281,45s-4-3-8,0c-.7638.6155-1.6585,1.0478-2.6154,1.2638"/>
  </g>
</svg>
