<svg id="emoji" viewBox="0 0 72 72" version="1.1" xmlns="http://www.w3.org/2000/svg">
  <g id="color">
    <path fill="#ea5a47" d="m14.2 22.78 42.29-0.1777s-3.513-15.66-22.58-14.65-19.7 14.83-19.7 14.83z"/>
    <path fill="#d22f27" d="m12.83 23.13c14.66-2.151 31.54-2.378 46.17 0-0.5201 0.965 2.919 7.022 1.004 7.903-16.2-3.621-31.88-1.554-48.18 0 1.078-1.432-1.526-6.867 1.004-7.903z"/>
    <circle cx="36" cy="25.01" r="3.597" fill="#f1b31c"/>
    <path fill="#5c9e31" d="m28.88 8.708c1.004 0.2433 8.503-1.764 13.79 0.2433v12.27h-13.5z"/>
  </g>
  <g id="skin">
    <path fill="#fadcbc" d="m53.2 30.02c3.393 0.861 2.024 6.922 2.024 10.81 0 13.35-8.613 24.17-19.24 24.17s-19.24-10.82-19.24-24.17c-0.01644-3.822 0.7184-7.609 2.163-11.15 0 0 26.49-1.638 34.29 0.3416z"/>
  </g>
  <g id="hair" fill="#f1b31c">
    <path d="M13,31c-3,7,4.0909,11.853,2.476,11.0792L18,30Z"/>
    <path d="M53,30l2.9041,12.0792C54.2891,42.853,62,38,59,31Z"/>
  </g>
  <g id="line">
    <path d="m32.03 40.84a2.839 2.839 0 1 1-2.839-2.839 2.847 2.847 0 0 1 2.839 2.839"/>
    <path d="m45.65 40.84a2.839 2.839 0 1 1-2.839-2.839 2.847 2.847 0 0 1 2.839 2.839"/>
    <path fill="none" stroke="#000" stroke-linecap="round" stroke-miterlimit="10" stroke-width="2" d="m31.19 52.74c-0.0466 0.01 5.015 2.831 9.591 0"/>
    <path fill="none" stroke="#000" stroke-linecap="round" stroke-miterlimit="10" stroke-width="2" d="m25.9 34.07a11.61 11.61 0 0 1 6.596 0"/>
    <path fill="none" stroke="#000" stroke-linecap="round" stroke-miterlimit="10" stroke-width="2" d="m39.51 34.07a11.61 11.61 0 0 1 6.596 0"/>
    <path fill="none" stroke="#000" stroke-linecap="round" stroke-linejoin="round" stroke-width="2" d="m56.99 22s-2.936-14.05-21.25-14.05-21.08 14.05-21.08 14.05"/>
    <line x1="42.67" x2="42.67" y1="21" y2="9.596" fill="none" stroke="#000" stroke-linecap="round" stroke-linejoin="round" stroke-width="2"/>
    <path fill="none" stroke="#000" stroke-linecap="round" stroke-linejoin="round" stroke-width="2" d="m60 31.03c-23.55-4.592-48.21-0.1832-48.18 0-0.5085-2.755-0.1064-5.38 1.004-7.903 29.86-4.891 45.62 0.1826 46.17 0 0.5151 1.408 0.9492 2.817 1.144 4.225 0.1694 1.226 0.1575 2.452-0.1401 3.678z"/>
    <line x1="28.85" x2="28.85" y1="8.951" y2="21.22" fill="none" stroke="#000" stroke-linecap="round" stroke-linejoin="round" stroke-width="2"/>
    <path fill="none" stroke="#000" stroke-linecap="round" stroke-linejoin="round" stroke-width="2" d="m55.9 41.34c-0.1719 0.0784 4.626-2.616 3.092-10.3"/>
    <path fill="none" stroke="#000" stroke-linecap="round" stroke-linejoin="round" stroke-width="2" d="m18.63 30.03c-0.8024 1.569-1.333 3.262-1.568 5.008-0.3463 1.91-0.5173 3.847-0.5107 5.788v0.34c0.1699 13.28 8.682 23.83 19.25 23.83s19.08-10.56 19.25-23.83v-0.34c0.0066-1.941-0.1644-3.878-0.5107-5.788-0.2355-1.746-0.7658-3.439-1.568-5.008"/>
    <path fill="none" stroke="#000" stroke-linecap="round" stroke-linejoin="round" stroke-width="2" d="m12.61 31.03c-1.534 7.687 3.264 10.38 3.092 10.3"/>
    <circle cx="36" cy="24.98" r="3.953" fill="none" stroke="#000" stroke-miterlimit="10" stroke-width="2"/>
  </g>
</svg>
