<svg id="emoji" viewBox="0 0 72 72" xmlns="http://www.w3.org/2000/svg">
  <g id="color">
    <path fill="#fff" d="M53.7274,27.1555c-.0057-.0128-.0172-.02-.0234-.0329a.9779.9779,0,0,0-.1238-.1745.9986.9986,0,0,0-.1135-.1358,2.4361,2.4361,0,0,0-.3409-.1927c-.0125-.0041-.0212-.0141-.0341-.0178a1820.9231,1820.9231,0,0,1-.35-.0281.972.972,0,0,0-.1948.0443.93.93,0,0,0-.1394.0317c-.0133.0059-.0212.0178-.0341.0242a.9783.9783,0,0,0-.1756.1249.5626.5626,0,0,0-.2283.2644.9707.9707,0,0,0-.0959.1844c-.0048.0139-.0157.0235-.02.0378a11.2432,11.2432,0,0,1-5.8819,7.0859.9584.9584,0,0,0-.3884.3929.9232.9232,0,0,0-.0715.1042c-1.98,4.6533-5.6133,7.51-9.4541,7.4141-3.1817-.0655-6.1328-2.0967-8.0977-5.5713-.0075-.0136-.0211-.0208-.0293-.0339a.9771.9771,0,0,0-.1578-.1824.9991.9991,0,0,0-.1085-.1018,1.9082,1.9082,0,0,0-.3566-.1571c-.02-.0044-.0353-.0176-.0558-.0209-2.9531-.4775-6.1133-6.7031-7.082-9.0615a.9267.9267,0,0,0-.0759-.1138.67.67,0,0,0-.33-.34.9544.9544,0,0,0-.11-.0785l-.0121-.0026a.9938.9938,0,0,0-.2614-.0589,1.0458,1.0458,0,0,0-.1189-.0245,1.056,1.056,0,0,0-.134.0232,1.0068,1.0068,0,0,0-.248.0473l-.0147.0028a.9461.9461,0,0,0-.134.0893.98.98,0,0,0-.178.1187.97.97,0,0,0-.1482.2071.91.91,0,0,0-.072.1006l-.01.0221-.0009.0018C16.756,30.6417,9.2882,47.9476,13.1766,51.77a2.8859,2.8859,0,0,0,2.1065.8193,6.79,6.79,0,0,0,2.8144-.75c.0113-.0052.0177-.0155.0286-.0212a.9873.9873,0,0,0,.2662-.1972.9467.9467,0,0,0,.0613-.08.979.979,0,0,0,.0863-.1127c1.502-2.6367,4.1367-4.0069,7.8311-4.0762,3.4638,2.2871,6.3047,3.7119,9.542,3.7568.0146.001.03.001.0449.001h.1142c.0215,0,.044,0,.0655-.001,3.2382-.0449,6.0791-1.47,9.542-3.7568,3.5771.0674,6.1621,1.3535,7.6845,3.8272.0172.0278.0449.0431.0644.0687a.99.99,0,0,0,.52.5914,6.79,6.79,0,0,0,2.8145.75,2.8843,2.8843,0,0,0,2.1035-.8164C59.8192,50.8381,62.2626,46.304,53.7274,27.1555Z"/>
    <path fill="#fff" d="M51.2157,60.9583H20.9833a1,1,0,0,1-.8135-1.5811c4.3564-6.0977,6.6016-6.0557,10.8672-5.4053a30.9193,30.9193,0,0,0,4.9883.4522,33.029,33.029,0,0,0,5.2382-.459c4.3213-.6465,6.4161-.6748,10.7657,5.4121a1,1,0,0,1-.8135,1.5811Z"/>
  </g>
  <g id="skin">
    <path fill="#fcea2b" d="M54.1483,48.8685c-2.0039-2.336-4.9531-3.52-8.7666-3.52a1.0008,1.0008,0,0,0-.5547.168c-3.3076,2.206-5.9385,3.5781-8.8017,3.5928-2.8614-.0147-5.4932-1.3877-8.8018-3.5928a1.0008,1.0008,0,0,0-.5547-.168c-3.8135,0-6.7617,1.1836-8.7656,3.5186-3.7061,4.32-2.7344,10.9619-2.6914,11.2431a1.0006,1.0006,0,0,0,.9883.8477h4.7832a1,1,0,0,1-.8135-1.5811c4.3564-6.0976,6.6016-6.0556,10.8672-5.4052a30.9206,30.9206,0,0,0,4.9883.4521,33.0172,33.0172,0,0,0,5.2382-.459c4.3213-.6464,6.4161-.6748,10.7657,5.4121a1,1,0,0,1-.8135,1.5811h4.6357a1.0006,1.0006,0,0,0,.9883-.8477C56.8827,59.8294,57.8544,53.1888,54.1483,48.8685Z"/>
    <path fill="#fcea2b" d="M36.0364,45.4619a10.8141,10.8141,0,0,1-7.69-3.3613,16.2725,16.2725,0,0,1-4.31-11.6514,21.9869,21.9869,0,0,1,2.2246-8.6084,1,1,0,0,1,1.5088-.375,9.1705,9.1705,0,0,0,9.7236.2188h0c3.1934-1.7471,5.5772-2.3741,7.0782-1.8662a1.9835,1.9835,0,0,1,1.23,1.0029A27.1356,27.1356,0,0,1,48.1,30.4619C48.1,38.7334,42.6878,45.4619,36.0364,45.4619Z"/>
  </g>
  <g id="hair">
    <path fill="#f1b31c" d="M36.0994,11.4618c-9,0-14,6-14,12,0,6.29.8126,12.5618,3.1527,13.7736a15.3392,15.3392,0,0,1-1.2157-6.7862,23.234,23.234,0,0,1,2.2246-8.6084,1.3246,1.3246,0,0,1,1.5088-.375c3.1729,2.04,5.71,1.6085,8.3512.9874C38.2,21.9659,40.6744,19.78,44.1988,19.78a3.1338,3.1338,0,0,1,1.6023,1.0418c.1269.2539,2.2988,5.714,2.2988,9.6406a19.4173,19.4173,0,0,1-1.3508,6.8673c2.4936-.9508,3.35-7.4026,3.35-13.8674C50.0994,17.4618,45.0994,11.4618,36.0994,11.4618Z"/>
  </g>
  <g id="line">
    <path fill="none" stroke="#000" stroke-linecap="round" stroke-linejoin="round" stroke-width="2" d="M16.2,59.9584s-2.0938-13.61,10.4689-13.61c3.3416,2.2277,6.2043,3.7671,9.4221,3.7605H35.96c3.2177.0066,6.0806-1.5328,9.4221-3.7605,12.5627,0,10.4689,13.61,10.4689,13.61"/>
    <path fill="none" stroke="#000" stroke-linecap="round" stroke-linejoin="round" stroke-width="2" d="M51.2159,59.9584c-5.7322-8.0208-6.9511-4.5345-15.19-4.5345-7.8374,0-9.31-3.4863-15.0426,4.5345"/>
    <path fill="none" stroke="#000" stroke-linecap="round" stroke-linejoin="round" stroke-width="2" d="M19.2447,27.5332S9.3669,49.5547,14.5092,51.4577"/>
    <path fill="none" stroke="#000" stroke-linecap="round" stroke-linejoin="round" stroke-width="2" d="M52.8141,27.5626c.3992.896,9.7523,22.0251,4.725,23.8941"/>
    <path fill="none" stroke="#000" stroke-linecap="round" stroke-linejoin="round" stroke-width="2" d="M26.1,37.4618c-3,0-4-7-4-14,0-6,5-12,14-12s14,6,14,12c0,7-1,14-4,14"/>
    <path d="M41.9725,29.4618a2,2,0,1,1-2-2,2,2,0,0,1,2,2"/>
    <path d="M33.9725,29.4618a2,2,0,1,1-2-2,2,2,0,0,1,2,2"/>
    <path fill="none" stroke="#000" stroke-linejoin="round" stroke-width="2" d="M37.9725,22.5611a10.22,10.22,0,0,1-10.8053-.2971,21.15,21.15,0,0,0-2.1312,8.1978c-.1015,7.999,4.9365,14,11,14,5.9365,0,11.0635-6,11.0635-14a26.5183,26.5183,0,0,0-2.2116-9.2336S44.01,19.259,37.9725,22.5611Z"/>
    <path fill="none" stroke="#000" stroke-linecap="round" stroke-linejoin="round" stroke-width="2" d="M32.9725,37.7118a8.2741,8.2741,0,0,0,6,0"/>
    <path fill="none" stroke="#000" stroke-linecap="round" stroke-linejoin="round" stroke-width="2" d="M27.8283,17.1677s7.5751,3.5795,14.9005,0"/>
  </g>
</svg>
