<svg version="1.1" id="emoji" xmlns="http://www.w3.org/2000/svg" x="0" y="0" viewBox="0 0 72 72" enable-background="new 0 0 72 72" xml:space="preserve">
  <g id="color">
    <path fill="#B1CC33" d="M54.8642,59.1072c0,0,2-13.7973-10-13.7973c-3.1918,2.1192-5.9264,3.5837-9,3.5775h0.125 c-3.0736,0.0062-5.8081-1.4583-9-3.5775c-12,0-10,13.7973-10,13.7973"/>
    <path fill="#5C9E31" d="M45.2573,44.1631c-3.1127,2.0751-4.9833,3.2404-8.9725,3.8184c12.8266,0.404,12.8266,7.1793,13.575,11.1071 c4.1613,0,5.0205,0,5.0205,0S57.0405,44.1631,45.2573,44.1631z"/>
    <path fill="#FFFFFF" d="M40.0184,9.2024c10.25,3.13,10.37,9.6,9.18,13.76h-0.34c0,0-5.46-4.32-9.3-10.11l-2.92-0.41 c0.16-1.26,0.02-2.52-0.53-3.75l0.06-0.03C37.4684,8.6624,38.7684,8.8224,40.0184,9.2024z"/>
    <path fill="#FFFFFF" d="M40.4284,20.6324c-1.69-1.86-3.26-3.99-4.13-6.19l-0.13-0.05c0.23-0.64,0.39-1.3,0.47-1.95l2.92,0.41 c3.84,5.79,9.3,10.11,9.3,10.11h0.34c-0.65,2.28-1.69,3.87-1.69,3.87s-0.03-0.02-0.1-0.07 C46.7984,26.3324,43.4184,23.9124,40.4284,20.6324z"/>
    <path fill="#FFFFFF" d="M40.4284,20.6324c-3.74,3.57-8.33,0-8.33,0c1.73-1.86,3.29-4.01,4.07-6.24l0.13,0.05 C37.1684,16.6424,38.7384,18.7724,40.4284,20.6324z"/>
    <path fill="#FFFFFF" d="M36.1084,8.6924c0.55,1.23,0.69,2.49,0.53,3.75c-0.08,0.65-0.24,1.31-0.47,1.95 c-0.78,2.23-2.34,4.38-4.07,6.24c-1.36,1.47-2.82,2.77-4.08,3.79c-1.58,1.28-2.84,2.13-3.17,2.35c-0.06,0.04-0.09,0.06-0.09,0.06 s-8.34-12.79,7.5-17.63c1.24-0.38,2.54-0.54,3.84-0.54C36.0984,8.6724,36.1084,8.6824,36.1084,8.6924z"/>
    <path fill="#D0CFCE" d="M40.9512,9.5119c0,0,5.4813,8.9463,1.1446,12.8282l5.4149,4.4923 C47.5107,26.8324,55.823,14.6109,40.9512,9.5119z"/>
  </g>
  <g id="hair">
    <path fill="#a57939" d="M45.8284,35.8824c-1.89,3.96-5.1,6.62-9.17,8.38c-0.36,0.15-0.77,0.16-1.12,0.01 c-3.83-1.54-7.72-4.81-9.52-9.15c0,0,2.8-2.59,6.73-3.72C36.5484,30.3124,41.4184,30.5824,45.8284,35.8824z M39.5384,36.4024 c0.5-0.25,0.7-0.85,0.45-1.34c-0.25-0.5-0.85-0.7-1.34-0.45c-1.72,0.86-3.39,0.86-5.11,0c-0.49-0.25-1.09-0.05-1.34,0.45 c-0.24,0.49-0.04,1.09,0.45,1.34c1.14,0.57,2.3,0.86,3.45,0.86S38.3984,36.9724,39.5384,36.4024z"/>
  </g>
  <g id="skin">
    <path fill="#fadcbc" d="M47.3484,26.8524c0.06,0.58,0.09,1.17,0.09,1.76c0,2.66-0.59,5.15-1.61,7.27 c-4.41-5.3-9.28-5.57-13.08-4.48l-0.65-2.15c1.1,0,2-0.89,2-2c0-1.1-0.9-2-2-2c-0.62,0-1.18,0.28-1.55,0.73l-2.53-1.56 c1.26-1.02,2.72-2.32,4.08-3.79c0,0,4.59,3.57,8.33,0c2.99,3.28,6.37,5.7,6.98,6.13L47.3484,26.8524z M42.0984,27.2524 c0-1.1-0.9-2-2-2c-1.11,0-2,0.9-2,2c0,1.11,0.89,2,2,2C41.1984,29.2524,42.0984,28.3624,42.0984,27.2524z"/>
    <path fill="#fadcbc" d="M32.0984,29.2524l0.65,2.15c-3.93,1.13-6.73,3.72-6.73,3.72c-0.81-1.95-1.26-4.16-1.26-6.51 c0-0.62,0.03-1.23,0.09-1.84c0.33-0.22,1.59-1.07,3.17-2.35l2.53,1.56c-0.28,0.35-0.45,0.79-0.45,1.27 C30.0984,28.3624,30.9884,29.2524,32.0984,29.2524z"/>
  </g>
  <g id="skin-shadow"/>
  <g id="line">
    <path d="M40.0984,25.2524c1.1,0,2,0.9,2,2c0,1.11-0.9,2-2,2c-1.11,0-2-0.89-2-2C38.0984,26.1524,38.9884,25.2524,40.0984,25.2524z"/>
    <path d="M39.9884,35.0624c0.25,0.49,0.05,1.09-0.45,1.34c-1.14,0.57-2.29,0.86-3.44,0.86s-2.31-0.29-3.45-0.86 c-0.49-0.25-0.69-0.85-0.45-1.34c0.25-0.5,0.85-0.7,1.34-0.45c1.72,0.86,3.39,0.86,5.11,0 C39.1384,34.3624,39.7384,34.5624,39.9884,35.0624z"/>
    <path d="M32.0984,25.2524c1.1,0,2,0.9,2,2c0,1.11-0.9,2-2,2c-1.11,0-2-0.89-2-2c0-0.48,0.17-0.92,0.45-1.27 C30.9184,25.5324,31.4784,25.2524,32.0984,25.2524z"/>
    <path fill="none" stroke="#000000" stroke-miterlimit="10" d="M26.0184,35.1224c0,0,2.8-2.59,6.73-3.72 c3.8-1.09,8.67-0.82,13.08,4.48"/>
    <path d="M40.0984,25.2524c1.1,0,2,0.9,2,2c0,1.11-0.9,2-2,2c-1.11,0-2-0.89-2-2C38.0984,26.1524,38.9884,25.2524,40.0984,25.2524z"/>
    <path d="M39.9884,35.0624c0.25,0.49,0.05,1.09-0.45,1.34c-1.14,0.57-2.29,0.86-3.44,0.86s-2.31-0.29-3.45-0.86 c-0.49-0.25-0.69-0.85-0.45-1.34c0.25-0.5,0.85-0.7,1.34-0.45c1.72,0.86,3.39,0.86,5.11,0 C39.1384,34.3624,39.7384,34.5624,39.9884,35.0624z"/>
    <path d="M32.0984,25.2524c1.1,0,2,0.9,2,2c0,1.11-0.9,2-2,2c-1.11,0-2-0.89-2-2c0-0.48,0.17-0.92,0.45-1.27 C30.9184,25.5324,31.4784,25.2524,32.0984,25.2524z"/>
    <path fill="none" stroke="#000000" stroke-width="2" stroke-linecap="round" stroke-linejoin="round" stroke-miterlimit="10" d="M24.8484,26.7724c-0.06,0.61-0.09,1.22-0.09,1.84c0,2.35,0.45,4.56,1.26,6.51c1.8,4.34,5.69,7.61,9.52,9.15 c0.35,0.15,0.76,0.14,1.12-0.01c4.07-1.76,7.28-4.42,9.17-8.38c1.02-2.12,1.61-4.61,1.61-7.27c0-0.59-0.03-1.18-0.09-1.76"/>
    <path fill="none" stroke="#000000" stroke-width="2" stroke-linecap="round" stroke-linejoin="round" stroke-miterlimit="10" d="M44.9084,45.1124c12,0,10,13,10,13"/>
    <path fill="none" stroke="#000000" stroke-width="2" stroke-linecap="round" stroke-linejoin="round" stroke-miterlimit="10" d="M41.4684,47.1824c1.07-0.55,2.17-1.23,3.33-2"/>
    <path fill="none" stroke="#000000" stroke-width="2" stroke-linecap="round" stroke-linejoin="round" stroke-miterlimit="10" d="M17.0384,58.1124c0,0-2-13,10-13c3.14,2.09,5.84,3.55,8.87,3.59h0.13c1.87-0.03,3.62-0.59,5.42-1.51"/>
    <path fill="none" stroke="#000000" stroke-width="2" stroke-linecap="round" stroke-linejoin="round" stroke-miterlimit="10" d="M36.1084,8.6924c0-0.01-0.01-0.02-0.01-0.03c-1.3,0-2.6,0.16-3.84,0.54c-15.84,4.84-7.5,17.63-7.5,17.63s0.03-0.02,0.09-0.06 c0.33-0.22,1.59-1.07,3.17-2.35c1.26-1.02,2.72-2.32,4.08-3.79c1.73-1.86,3.29-4.01,4.07-6.24c0.23-0.64,0.39-1.3,0.47-1.95 C36.7984,11.1824,36.6584,9.9224,36.1084,8.6924z"/>
    <path fill="none" stroke="#000000" stroke-width="2" stroke-linecap="round" stroke-linejoin="round" stroke-miterlimit="10" d="M23.4084,22.9624c0,0,5.82-4.08,9.66-10.11"/>
    <path fill="none" stroke="#000000" stroke-width="2" stroke-linecap="round" stroke-linejoin="round" stroke-miterlimit="10" d="M36.1684,8.6624c1.3,0,2.6,0.16,3.85,0.54c10.25,3.13,10.37,9.6,9.18,13.76c-0.65,2.28-1.69,3.87-1.69,3.87s-0.03-0.02-0.1-0.07 c-0.61-0.43-3.99-2.85-6.98-6.13c-1.69-1.86-3.26-3.99-4.13-6.19"/>
    <path fill="none" stroke="#000000" stroke-width="2" stroke-linecap="round" stroke-linejoin="round" stroke-miterlimit="10" d="M48.8584,22.9624c0,0-5.46-4.32-9.3-10.11"/>
    <path fill="none" stroke="#000000" stroke-width="2" stroke-linecap="round" stroke-linejoin="round" stroke-miterlimit="10" d="M32.0984,20.6324c0,0,4.59,3.57,8.33,0h0.01"/>
    <path fill="none" stroke="#000000" stroke-width="2" stroke-linecap="round" stroke-linejoin="round" stroke-miterlimit="10" d="M26.0184,35.1224c0,0,2.8-2.59,6.73-3.72c3.8-1.09,8.67-0.82,13.08,4.48"/>
    <path fill="none" stroke="#000000" stroke-width="2" stroke-linecap="round" stroke-linejoin="round" stroke-miterlimit="10" d="M44.9084,45.1124c0,0-0.04,0.02-0.11,0.07c-0.37,0.21-1.64,0.96-3.33,2c0,0,0,0.01-0.01,0.01c-5.09,3.14-14.05,8.95-14.05,10.92"/>
  </g>
</svg>
