<?xml version="1.0" encoding="utf-8"?>
<!-- Generator: Adobe Illustrator 21.1.0, SVG Export Plug-In . SVG Version: 6.00 Build 0)  -->
<svg version="1.1" id="emoji" xmlns="http://www.w3.org/2000/svg" xmlns:xlink="http://www.w3.org/1999/xlink" x="0px" y="0px"
	 viewBox="0 0 72 72" enable-background="new 0 0 72 72" xml:space="preserve">
<g id="_xD83D__xDC78__1_">
	<path fill="#F4AA42" d="M49.3,24.2c-8.9-8.3-17.8-8.3-26.6,0c-1.2,4.2-4.1,15.4-0.9,19c9.5,8.2,19,8.2,28.5,0
		C53.4,39.6,50.5,28.4,49.3,24.2z"/>
	<path fill="#FCEA2C" d="M54.8,58.8c0,0,2-14.4-10-14.4c-3.2,2.1-5.9,3.6-9,3.6h0.1c-3.1,0-5.8-1.5-9-3.6c-12,0-10,14.4-10,14.4"/>
	<ellipse fill="#FCEA2C" cx="36" cy="28" rx="11.3" ry="14.2"/>
	<path fill="#F4AA42" d="M44.7,14.2c-5.8-3.7-11.6-3.7-17.4,0C12,29.5,33.9,24,36,18.7C38,24,60,29.5,44.7,14.2z"/>
	<path fill="#F2ADC1" d="M50.1,58.8c0-4,3.9-8.1,3.9-8.1l-2.1-3.4c-4.4-0.5-6.1,8.8-6.1,8.8c-3.7-4.6-9.9,0.2-9.9,0.2
		s-6.4-4.8-10.1-0.2c0,0-1.6-9.2-6.1-8.8l-2.1,3.4c0,0,3.9,4.1,3.9,8.1H50.1z"/>
	<path fill="#000100" d="M42,27c0,1.1-0.9,2-2,2s-2-0.9-2-2c0-1.1,0.9-2,2-2S42,25.9,42,27"/>
	<path fill="#000100" d="M34,27c0,1.1-0.9,2-2,2c-1.1,0-2-0.9-2-2c0-1.1,0.9-2,2-2C33.1,25,34,25.9,34,27"/>
	<path fill="#000100" d="M36,37c-1.2,0-2.3-0.3-3.4-0.9c-0.5-0.2-0.7-0.8-0.4-1.3c0.2-0.5,0.8-0.7,1.3-0.4c1.7,0.9,3.4,0.9,5.1,0
		c0.5-0.2,1.1,0,1.3,0.4c0.2,0.5,0,1.1-0.4,1.3C38.3,36.7,37.1,37,36,37z"/>
	<path fill="none" stroke="#000000" stroke-width="2" stroke-miterlimit="10" d="M25,25c-0.2,1.1-0.3,2.2-0.3,3.4
		c0,7.8,5.1,14.2,11.3,14.2c6.3,0,11.3-6.3,11.3-14.2c0-1.2-0.1-2.3-0.3-3.4"/>
	<path fill="none" stroke="#000000" stroke-width="2" stroke-linecap="round" stroke-linejoin="round" stroke-miterlimit="10" d="
		M16.9,57.8c0,0-2-13,10-13c3.2,2.1,5.9,3.6,9,3.6h-0.1c3.1,0,5.8-1.5,9-3.6c12,0,10,13,10,13"/>
	
		<polygon fill="#FCEA2C" stroke="#000000" stroke-width="2" stroke-linecap="round" stroke-linejoin="round" stroke-miterlimit="10" points="
		31.4,17.6 31.4,7.8 34.6,10.5 36,6.9 37.4,10.3 40.3,7.8 40.3,17.6 	"/>
	<path fill="none" stroke="#000000" stroke-width="2" stroke-linecap="round" stroke-linejoin="round" stroke-miterlimit="10" d="
		M17.6,50.7c0,0,3.9,3.1,3.9,7.1"/>
	<path fill="none" stroke="#000000" stroke-width="2" stroke-linecap="round" stroke-linejoin="round" stroke-miterlimit="10" d="
		M51.8,47.4c-4.4-0.5-6.1,8.8-6.1,8.8c-3.7-4.6-9.9,0.2-9.9,0.2s-6.4-4.8-10.1-0.2c0,0-1.6-9.2-6.1-8.8"/>
	<path fill="none" stroke="#000000" stroke-width="2" stroke-linecap="round" stroke-linejoin="round" stroke-miterlimit="10" d="
		M53.9,50.7c0,0-3.9,3.1-3.9,7.1"/>
	<path fill="none" stroke="#000000" stroke-width="2" stroke-linecap="round" stroke-linejoin="round" stroke-miterlimit="10" d="
		M44.3,15.1c14.6,14.5-6.3,9.3-8.3,4.3c-2,5-22.8,10.2-8.3-4.3"/>
	<path fill="none" stroke="#000000" stroke-width="2" stroke-linecap="round" stroke-linejoin="round" stroke-miterlimit="10" d="
		M23.1,23.8c-1.2,4.1-4,15-0.9,18.4"/>
	<path fill="none" stroke="#000000" stroke-width="2" stroke-linecap="round" stroke-linejoin="round" stroke-miterlimit="10" d="
		M48.9,23.8c1.2,4.1,4,15,0.9,18.4"/>
</g>
</svg>
