<?xml version="1.0" encoding="utf-8"?>
<!-- Generator: Adobe Illustrator 21.1.0, SVG Export Plug-In . SVG Version: 6.00 Build 0)  -->
<svg version="1.1" id="emoji" xmlns="http://www.w3.org/2000/svg" xmlns:xlink="http://www.w3.org/1999/xlink" x="0px" y="0px"
	 viewBox="0 0 72 72" enable-background="new 0 0 72 72" xml:space="preserve">
<g id="_xD83D__xDC8C__1_">
	<path fill="#EA5A47" d="M30.5,27.7c-3.1,0-5.6,2.5-5.6,5.6c0,1,0.3,2,0.8,2.9l0.3,0.5l10,12.7L46,36.5c0.7-1,1.1-2.1,1.1-3.3
		c0-3.1-2.5-5.6-5.6-5.6c-2.2,0-4.1,1.2-5,3.2c-0.1,0.2-0.2,0.3-0.4,0.3c-0.2,0-0.4-0.1-0.4-0.3C34.6,28.9,32.7,27.7,30.5,27.7z"/>
	<path fill="#D22F27" d="M41.8,27.7c3.3,0,6,2.5,6,5.6c0,1-0.3,2-0.9,2.9l-0.3,0.5L35.8,49.3l-0.8-1C46.8,33.6,41.8,27.7,41.8,27.7z
		"/>
	<path fill="none" stroke="#010103" stroke-width="2" stroke-linecap="round" stroke-linejoin="round" stroke-miterlimit="10" d="
		M36,29.6 M30.5,27.7c-3.1,0-5.6,2.5-5.6,5.6c0,1,0.3,2,0.8,2.9l0.3,0.5l10,12.7L46,36.5c0.7-1,1.1-2.1,1.1-3.3
		c0-3.1-2.5-5.6-5.6-5.6c-2.2,0-4.1,1.2-5,3.2c-0.1,0.2-0.2,0.3-0.4,0.3c-0.2,0-0.4-0.1-0.4-0.3C34.6,28.9,32.7,27.7,30.5,27.7z"/>
	<path fill="none" stroke="#000000" stroke-width="2" stroke-linecap="round" stroke-linejoin="round" stroke-miterlimit="10" d="
		M65.1,55.5H6.9c-1.6,0-2.9-1.3-2.9-2.9V17.2C4,16,5,15,6.2,15h59.4c1.3,0,2.3,1,2.3,2.3v35.3C68,54.2,66.7,55.5,65.1,55.5z"/>
	
		<line fill="none" stroke="#000000" stroke-width="2" stroke-linecap="round" stroke-miterlimit="10" x1="5" y1="16" x2="20" y2="32"/>
	
		<line fill="none" stroke="#000000" stroke-width="2" stroke-linecap="round" stroke-miterlimit="10" x1="67" y1="16" x2="52" y2="32"/>
</g>
</svg>
