<?xml version="1.0" encoding="utf-8"?>
<!-- Generator: Adobe Illustrator 21.1.0, SVG Export Plug-In . SVG Version: 6.00 Build 0)  -->
<svg version="1.1" id="emoji" xmlns="http://www.w3.org/2000/svg" xmlns:xlink="http://www.w3.org/1999/xlink" x="0px" y="0px"
	 viewBox="0 0 72 72" enable-background="new 0 0 72 72" xml:space="preserve">
<g id="_xD83D__xDC82__1_">
	<path fill="#EA5946" d="M54.9,58.9c0,0,4-14-10.3-14.9c-3.2,2.1-5.9,3.6-9,3.6h0.1c-3.1,0-5.8-1.5-9-3.6c-12,0-10,14.9-10,14.9"/>
	<path fill="#C12623" d="M45.4,44.1c-3.1,2.1-5,3.2-9,3.8c12.8,0.4,12.8,7.1,13.6,11c4.2,0,5,0,5,0S57.1,44.1,45.4,44.1z"/>
	<polygon fill="#FFFFFF" points="38,52.1 33.8,52.1 34.1,58.9 37.8,58.9 	"/>
	<path fill="#FCEA2D" d="M47.2,28.9c0-7.6-5.1-13.7-11.5-13.7s-11.4,6.2-11.4,13.7c0,0.9,0.1,1.9,0.2,2.8c1.1,6.3,5.5,11,11.6,11
		S46.4,37.4,47,31.8C47.1,30.8,47.2,29.9,47.2,28.9z"/>
	<path fill="#000100" d="M41.9,27.1c0,1.1-0.9,2-2,2s-2-0.9-2-2c0-1.1,0.9-2,2-2S41.9,26,41.9,27.1"/>
	<path fill="#000100" d="M33.9,27.1c0,1.1-0.9,2-2,2s-2-0.9-2-2c0-1.1,0.9-2,2-2S33.9,26,33.9,27.1"/>
	<path fill="#000100" d="M35.9,37.1c-1.2,0-2.3-0.3-3.4-0.9c-0.5-0.2-0.7-0.8-0.4-1.3c0.2-0.5,0.8-0.7,1.3-0.4
		c1.7,0.9,3.4,0.9,5.1,0c0.5-0.2,1.1,0,1.3,0.4c0.2,0.5,0,1.1-0.4,1.3C38.2,36.8,37,37.1,35.9,37.1z"/>
	<path fill="#3F3F3F" d="M24.9,23h21.3V9.6c0-4.1-3.3-7.4-7.4-7.4h-6.6c-4.1,0-7.4,3.3-7.4,7.4V23z"/>
	<g id="XMLID_69_">
		<g>
			<path fill="#3F3F3F" d="M44.8,44.9c1.2,0,2.2,0.1,3.2,0.4c-7.5,9.3-18.8,7.4-24.2,0c0.9-0.2,2-0.4,3.2-0.4
				c3.2,2.1,5.9,3.6,8.9,3.6h0.1C39,48.5,41.7,47,44.8,44.9z"/>
		</g>
		<g>
			<path fill="none" stroke="#000000" stroke-width="2" stroke-linecap="round" stroke-linejoin="round" stroke-miterlimit="10" d="
				M16.9,57.9c0,0-1.6-10.6,6.8-12.6c0.9-0.2,2-0.4,3.2-0.4c3.2,2.1,5.9,3.6,8.9,3.6h0.1c3,0,5.7-1.5,8.9-3.6c1.2,0,2.2,0.1,3.2,0.4
				c8.5,2.1,6.8,12.6,6.8,12.6"/>
			<path fill="none" stroke="#000000" stroke-width="2" stroke-linecap="round" stroke-linejoin="round" stroke-miterlimit="10" d="
				M23.8,45.3c5.4,7.4,16.7,9.3,24.2,0"/>
		</g>
	</g>
	
		<line fill="none" stroke="#000000" stroke-width="2" stroke-linecap="round" stroke-linejoin="round" stroke-miterlimit="10" x1="34.2" y1="51.6" x2="34.2" y2="58"/>
	
		<line fill="none" stroke="#000000" stroke-width="2" stroke-linecap="round" stroke-linejoin="round" stroke-miterlimit="10" x1="37.8" y1="51.5" x2="37.8" y2="58"/>
	<path fill="none" stroke="#000000" stroke-width="2" stroke-linecap="round" stroke-linejoin="round" stroke-miterlimit="10" d="
		M25.2,23h21.3V9.6c0-4.1-3.3-7.4-7.4-7.4h-6.6c-4.1,0-7.4,3.3-7.4,7.4V23z"/>
	<path opacity="0.5" d="M41.9,27.1c0,1.1-0.9,2-2,2s-2-0.9-2-2c0-1.1,0.9-2,2-2S41.9,26,41.9,27.1"/>
	<path opacity="0.5" d="M33.9,27.1c0,1.1-0.9,2-2,2s-2-0.9-2-2c0-1.1,0.9-2,2-2S33.9,26,33.9,27.1"/>
	<path opacity="0.5" d="M35.9,37.1c-1.2,0-2.3-0.3-3.4-0.9c-0.5-0.2-0.7-0.8-0.4-1.3c0.2-0.5,0.8-0.7,1.3-0.4c1.7,0.9,3.4,0.9,5.1,0
		c0.5-0.2,1.1,0,1.3,0.4c0.2,0.5,0,1.1-0.4,1.3C38.2,36.8,37,37.1,35.9,37.1z"/>
	<path fill="none" stroke="#000000" stroke-width="2" stroke-linecap="round" stroke-linejoin="round" stroke-miterlimit="10" d="
		M25.3,23.3c-0.5,1.6-0.8,3.3-0.8,5.2c0,7.8,5.1,14.2,11.3,14.2s11.3-6.3,11.3-14.2c0-1.2-0.1-2.3-0.3-3.4c-0.1-0.6-0.3-1.2-0.4-1.8
		"/>
	<g id="XMLID_1_">
		<g>
		</g>
		<g>
			<path fill="none" stroke="#000000" stroke-width="2" stroke-linecap="round" stroke-linejoin="round" stroke-miterlimit="10" d="
				M17.7,44.5c1.6-1.1,3.7-2,6.4-2.4"/>
		</g>
	</g>
	<g id="XMLID_2_">
		<g>
		</g>
		<g>
			<path fill="none" stroke="#000000" stroke-width="2" stroke-linecap="round" stroke-linejoin="round" stroke-miterlimit="10" d="
				M54.3,44.5c-1.6-1.1-3.7-2-6.4-2.4"/>
		</g>
	</g>
</g>
</svg>
