<?xml version="1.0" encoding="utf-8"?>
<!-- Generator: Adobe Illustrator 21.1.0, SVG Export Plug-In . SVG Version: 6.00 Build 0)  -->
<svg version="1.1" id="Ebene_3" xmlns="http://www.w3.org/2000/svg" xmlns:xlink="http://www.w3.org/1999/xlink" x="0px" y="0px"
	 viewBox="0 0 72 72" enable-background="new 0 0 72 72" xml:space="preserve">
<g id="_xD83D__xDC80_">
	<path fill="#FFFFFF" d="M41.2,14.2c-1.7-0.5-3.4-0.8-5.2-0.8h0c-1.3,0-2.5,0.1-3.7,0.4c-4.3,0.9-8.2,3.4-10.9,7
		c-2,2.7-3.4,5.8-3.9,9.1c-1.1,6.2,0.7,12.5,4.8,17.2l0.1,0.1c1.1,1.2,2.5,2.8,2.5,4.6l0,5c0,0.6-0.4,1-1,1l0,0c2.2,1.1,4.6,2,7,2.5
		c3.8,0.9,7.8,0.8,11.5-0.3C45.7,44.8,44.8,29,41.2,14.2z"/>
	<path fill="#CFCFCE" d="M48.9,18.9c-2.1-2.2-4.8-3.8-7.7-4.6C44.8,29,45.7,44.8,42.5,60c1.9-0.5,3.8-1.3,5.6-2.3c-0.6,0-1-0.4-1-1
		L47,51.8c0-1.6,1.4-3.2,2.4-4.3c0.1-0.2,0.3-0.3,0.4-0.5C56.9,38.8,56.5,26.6,48.9,18.9L48.9,18.9z"/>
	<path fill="#3F3F3F" d="M27.9,36.9c-2.2,0-4,1.8-4,4s1.8,4,4,4s4-1.8,4-4S30.1,36.9,27.9,36.9z"/>
	<path fill="#3F3F3F" d="M44.2,36.9c-2.2,0-4,1.8-4,4s1.8,4,4,4s4-1.8,4-4S46.5,36.9,44.2,36.9z"/>
	<path fill="none" stroke="#1D1D1B" stroke-width="2" stroke-linecap="round" stroke-linejoin="round" d="M48.1,56.7L48,51.7
		c0-1.4,1.6-3,2.6-4.1c3.4-3.9,5.3-9,5.3-14.2c0-11.6-8.9-21-19.9-21c-1.3,0-2.6,0.1-3.9,0.4c-7.9,1.6-14.2,8.5-15.5,16.8
		c-1.1,6.5,0.7,13.1,5,18c0.9,1,2.4,2.6,2.4,4l0,5"/>
	
		<line fill="none" stroke="#1D1D1B" stroke-width="2" stroke-linecap="round" stroke-linejoin="round" x1="27.9" y1="55" x2="27.9" y2="59.8"/>
	
		<line fill="none" stroke="#1D1D1B" stroke-width="2" stroke-linecap="round" stroke-linejoin="round" x1="33.6" y1="56.1" x2="33.6" y2="60.8"/>
	
		<line fill="none" stroke="#1D1D1B" stroke-width="2" stroke-linecap="round" stroke-linejoin="round" x1="44.2" y1="55" x2="44.2" y2="59.8"/>
	
		<line fill="none" stroke="#1D1D1B" stroke-width="2" stroke-linecap="round" stroke-linejoin="round" x1="39.1" y1="56.1" x2="39.1" y2="60.8"/>
	<polyline fill="none" stroke="#1D1D1B" stroke-width="2" stroke-linecap="round" stroke-linejoin="round" points="33.1,52.2 
		36,46.4 39.5,52.2 	"/>
	<circle fill="none" stroke="#1D1D1B" stroke-width="2" stroke-miterlimit="10" cx="27.9" cy="40.8" r="5"/>
	<circle fill="none" stroke="#1D1D1B" stroke-width="2" stroke-miterlimit="10" cx="44.2" cy="40.8" r="5"/>
</g>
</svg>
