<svg id="emoji" xmlns="http://www.w3.org/2000/svg" viewBox="0 0 72 72">
  <g id="color">
    <path fill="#FFFFFF" d="M66.0315,15.5H5.9685C4.6052,15.5,4.5,15.6052,4.5,16.9685v37.0629C4.5,55.3948,4.6052,55.5,5.9685,55.5 h60.0629c1.3633,0,1.4685-0.1052,1.4685-1.4685V16.9685C67.5,15.6052,67.3948,15.5,66.0315,15.5z" stroke="none"/>
    <path fill="#EA5A47" d="M30.5122,27.6679c-3.0825,0.0091-5.5828,2.5243-5.5737,5.6068c0.003,1.0269,0.2862,2.0296,0.8195,2.8995 l0.3217,0.4715l9.9651,12.6964l9.948-12.8336c0.6967-0.9556,1.0677-2.1001,1.0641-3.2991 c-0.0091-3.0825-2.5248-5.5828-5.6077-5.5737c-2.1602,0.0064-4.0847,1.2257-5.0223,3.1819 c-0.0805,0.1678-0.2498,0.2749-0.436,0.2754c-0.1862,0.0006-0.3564-0.1055-0.4376-0.2728 C34.6041,28.8695,32.6725,27.6616,30.5122,27.6679z" stroke="none"/>
    <path fill="#D22F27" d="M41.7699,27.6668c3.3352,0.0099,6.0412,2.5257,6.0321,5.6082c-0.003,1.0269-0.3092,2.0295-0.886,2.8994 l-0.348,0.4714l-10.7792,12.694l-0.8195-0.977C46.7658,33.5536,41.7699,27.6668,41.7699,27.6668z" stroke="none"/>
  </g>
  <g id="hair"/>
  <g id="skin"/>
  <g id="skin-shadow"/>
  <g id="line">
    <path fill="none" stroke="#000000" stroke-width="2" stroke-linecap="round" stroke-linejoin="round" stroke-miterlimit="10" d="M35.9865,29.6254 M30.5122,27.6679c-3.0825,0.0091-5.5828,2.5243-5.5737,5.6068c0.003,1.0269,0.2862,2.0296,0.8195,2.8995 l0.3217,0.4715l9.9651,12.6964l9.948-12.8336c0.6967-0.9556,1.0677-2.1001,1.0641-3.2991 c-0.0091-3.0825-2.5248-5.5828-5.6077-5.5737c-2.1602,0.0064-4.0847,1.2257-5.0223,3.1819 c-0.0805,0.1678-0.2498,0.2749-0.436,0.2754c-0.1862,0.0006-0.3564-0.1055-0.4376-0.2728 C34.6041,28.8695,32.6725,27.6616,30.5122,27.6679z"/>
    <path fill="none" stroke="#000000" stroke-width="2" stroke-linecap="round" stroke-linejoin="round" stroke-miterlimit="10" d="M65.0856,55.5H6.8775C5.2883,55.5,4,54.2117,4,52.6225V17.2483C4,16.0066,5.0066,15,6.2483,15h59.4459 C66.9677,15,68,16.0323,68,17.3058v35.2799C68,54.1952,66.6952,55.5,65.0856,55.5z"/>
    <line fill="none" stroke="#000000" stroke-width="2" stroke-linecap="round" stroke-miterlimit="10" x1="5" y1="16" x2="20" y2="32"/>
    <line fill="none" stroke="#000000" stroke-width="2" stroke-linecap="round" stroke-miterlimit="10" x1="67" y1="16" x2="52" y2="32"/>
  </g>
</svg>
