<svg id="emoji" xmlns="http://www.w3.org/2000/svg" viewBox="0 0 72 72">
  <g id="color">
    <path fill="#D22F27" d="M57.83,51.563c0.0023-0.0038,0.0034-0.008,0.0058-0.0118c0.0024-0.004,0.0038-0.0086,0.0063-0.0126 c0.3557-0.5929,0.3272-1.306-0.0084-1.8614c-2.3758-5.3476-2.4708-10.5429-2.5386-14.7272 c-0.0692-4.2642-0.1243-7.6324-2.4436-9.7216c-1.5084-1.3593-3.6639-1.866-6.7806-1.5912 c-2.0898,0.1883-2.3516,0.4517-3.3919-0.1941c-1.0403-0.6458-0.9204-0.9973-1.6799-2.9566 c-1.1463-2.9441-2.5625-4.6637-4.4577-5.4131c-2.8893-1.1421-5.9077,0.3033-9.7293,2.1327 c-3.7707,1.8059-8.4563,4.0366-14.325,4.2904c-0.6841-0.0849-1.3929,0.1982-1.7732,0.8108 c-0.5718,0.921-0.1461,2.0778,0.599,2.5454c0.4679,0.6741,0.9501,3.2438,1.3393,5.3361 c1.2839,6.8908,3.2244,17.3045,11.7939,22.6244s18.7632,2.4391,25.5084,0.5326c2.0479-0.5794,4.5646-1.2873,5.3764-1.167 C56.2018,52.7137,57.3285,52.3708,57.83,51.563z" stroke="none"/>
    <path fill="#FFFFFF" stroke="none" stroke-width="2" stroke-miterlimit="10" d="M43.8189,42.0768 c-0.9369-1.4129-1.1178-2.8533-1.2846-4.1833c-0.0759-0.6058-0.1509-1.199-0.3-1.7581c-0.0009-0.0034-0.0014-0.0071-0.0024-0.0104 c-0.1354-0.5044-0.3421-0.9768-0.6552-1.4088c-0.1523-0.2099-0.3219-0.4132-0.5356-0.6003 c-0.1635-0.1431-0.3466-0.279-0.5527-0.4069c-0.9423-0.585-2.0104-0.5527-2.8008-0.5619 c-0.4743-0.0056-0.9525-0.1248-0.9525-0.1248s0.9527,0.1256,0.9525,0.1248l-0.9537-0.1275 c-0.0069-0.0154-1.0207-2.2751-2.3856-3.1224c-1.522-0.9448-2.7501-0.6102-4.5924,0.0536 c-1.2572,0.4516-2.6185,0.9414-4.2992,0.7309c-0.5597-0.0701-0.8772,0.6307-0.4723,1.0234 c3.4626,3.3568,5.1926,7.5546,5.8325,9.4125c0.0932,0.2708,0.2726,0.488,0.4996,0.6284l-0.0001,0.0002 c0.2268,0.1402,0.5013,0.2037,0.785,0.1671c1.9428-0.25,6.4557-0.5624,10.9928,1.0418c0.2711,0.096,0.5318-0.0038,0.6849-0.1875 C43.9325,42.584,43.9779,42.3165,43.8189,42.0768z"/>
    <polygon fill="#FFFFFF" stroke="none" stroke-width="2" stroke-miterlimit="10" points="31.3165,41.7463 31.3165,41.7463 31.3164,41.7462"/>
  </g>
  <g id="hair"/>
  <g id="skin"/>
  <g id="skin-shadow"/>
  <g id="line">
    <path fill="none" stroke="#000000" stroke-width="2" stroke-miterlimit="10" d="M57.83,51.563 c0.0023-0.0038,0.0034-0.008,0.0058-0.0118c0.0024-0.004,0.0038-0.0086,0.0063-0.0126c0.3557-0.5929,0.3272-1.306-0.0084-1.8614 c-2.3758-5.3476-2.4708-10.5429-2.5386-14.7272c-0.0692-4.2642-0.1243-7.6324-2.4436-9.7216 c-1.5084-1.3593-3.6639-1.866-6.7806-1.5912c-2.0898,0.1883-2.3516,0.4517-3.3919-0.1941 c-1.0403-0.6458-0.9204-0.9973-1.6799-2.9566c-1.1463-2.9441-2.5625-4.6637-4.4577-5.4131 c-2.8893-1.1421-5.9077,0.3033-9.7293,2.1327c-3.7707,1.8059-8.4563,4.0366-14.325,4.2904 c-0.6841-0.0849-1.3929,0.1982-1.7732,0.8108c-0.5718,0.921-0.1461,2.0778,0.599,2.5454c0.4679,0.6741,0.9501,3.2438,1.3393,5.3361 c1.2839,6.8908,3.2244,17.3045,11.7939,22.6244s18.7632,2.4391,25.5084,0.5326c2.0479-0.5794,4.5646-1.2873,5.3764-1.167 C56.2018,52.7137,57.3285,52.3708,57.83,51.563z"/>
    <path fill="none" stroke="#000000" stroke-width="2" stroke-miterlimit="10" d="M43.8189,42.0768 c-0.9369-1.4129-1.1178-2.8533-1.2846-4.1833c-0.0759-0.6058-0.1509-1.199-0.3-1.7581c-0.0009-0.0034-0.0014-0.0071-0.0024-0.0104 c-0.1354-0.5044-0.3421-0.9768-0.6552-1.4088c-0.1523-0.2099-0.3219-0.4132-0.5356-0.6003 c-0.1635-0.1431-0.3466-0.279-0.5527-0.4069c-0.9423-0.585-2.0104-0.5527-2.8008-0.5619 c-0.4743-0.0056-0.9525-0.1248-0.9525-0.1248s0.9527,0.1256,0.9525,0.1248l-0.9537-0.1275 c-0.0069-0.0154-1.0207-2.2751-2.3856-3.1224c-1.522-0.9448-2.7501-0.6102-4.5924,0.0536 c-1.2572,0.4516-2.6185,0.9414-4.2992,0.7309c-0.5597-0.0701-0.8772,0.6307-0.4723,1.0234 c3.4626,3.3568,5.1926,7.5546,5.8325,9.4125c0.0932,0.2708,0.2726,0.488,0.4996,0.6284l-0.0001,0.0002 c0.2268,0.1402,0.5013,0.2037,0.785,0.1671c1.9428-0.25,6.4557-0.5624,10.9928,1.0418c0.2711,0.096,0.5318-0.0038,0.6849-0.1875 C43.9325,42.584,43.9779,42.3165,43.8189,42.0768z"/>
    <polygon fill="none" stroke="#000000" stroke-width="2" stroke-miterlimit="10" points="31.3165,41.7463 31.3165,41.7463 31.3164,41.7462"/>
  </g>
</svg>
