<svg version="1.1" id="emoji" xmlns="http://www.w3.org/2000/svg" x="0" y="0" viewBox="0 0 72 72" enable-background="new 0 0 72 72" xml:space="preserve">
  <g id="color">
    <path fill="#92D3F5" d="M17,60v-3c0-4.9941,5.0078-9,10-9c6,5,12,5,18,0c4.9941,0,10,4.0059,10,9v3"/>
  </g>
  <g id="hair">
    <path fill="#a57939" d="M26,39c-2.6621,0-3.7021-3.1592-4-7c0,0,0-5,2-10c1.1748-2.936,2.3125-7.833,2.3125-7.833 c3.166-2.8125,5.8037-2.7085,9.6563-2.7085c3.8525,0,5.8242-0.375,9.8867,2.7705c0,0,1.5429,5.4458,2.6445,9.1294 C50,28.375,50,32,50,32c-0.2852,3.9268-1.3008,7-4,7H26z"/>
  </g>
  <g id="skin">
    <path fill="#fadcbc" d="M44.7021,23.3608c0,3.6392,0.5616,4.8355,0.8819,5.7007C46.0264,30.2578,47,32,47,34 c0,5-5.127,11-11.0635,11c-6.0635,0-11-6-11-11c0-1.875,0.458-2.79,1.0635-4c1-2,1.3848-5.271,1.708-6.3335l3.5645-1.875 c0.8379-0.8286,2.1074-1.7446,2.6005-2.02c2.1993-1.228,2.627-1.105,4.1885-0.166c1.3155,0.791,2.7686,1.2114,3.4961,1.8662 L44.7021,23.3608z"/>
    <path fill="#fadcbc" d="M55,5c0,3-1,11-1,11v12c-1,4-4,4-4,4c0-6-3-12-3-12c-2,2-1.8545,1.7646-3.3408,4.1714 C42.1729,26.5781,40,25,41,23c0.8379-1.6758,3.0469-5.6196,4-7c0.9092-1.3174,2.1025-2.3677,4-3V5"/>
    <path fill="#fadcbc" d="M17,5c0,3,1,11,1,11v12c1,4,4,4,4,4c0-6,3-12,3-12c2,2,1.8545,1.7646,3.3408,4.1714 C29.8271,26.5781,32,25,31,23c-0.8379-1.6758-3.0469-5.6196-4-7c-0.9092-1.3174-2.1025-2.3677-4-3V5"/>
  </g>
  <g id="skin-shadow"/>
  <g id="line">
    <path d="M41.873,30c0,1.1045-0.8955,2-2,2c-1.1044,0-2-0.8955-2-2s0.8956-2,2-2C40.9775,28,41.873,28.8955,41.873,30"/>
    <path d="M33.873,30c0,1.1045-0.8955,2-2,2c-1.1044,0-2-0.8955-2-2s0.8956-2,2-2C32.9775,28,33.873,28.8955,33.873,30"/>
    <path fill="none" stroke="#000000" stroke-width="2" stroke-linecap="round" stroke-linejoin="round" d="M50,32 c-0.2852,3.9268-1.3008,7-4,7"/>
    <path fill="none" stroke="#000000" stroke-width="2" stroke-linecap="round" stroke-linejoin="round" d="M29.1592,13.3999 C31.0264,12.5137,33.293,12,36,12c2.5879,0,4.7744,0.4688,6.5928,1.2847"/>
    <path fill="none" stroke="#000000" stroke-width="2" stroke-linecap="round" stroke-linejoin="round" d="M26,39 c-1.6484,0-2.6748-1.2109-3.2881-3.0449C22.335,34.8271,22.1133,33.4629,22,32"/>
    <path fill="none" stroke="#000000" stroke-width="2" stroke-linecap="round" stroke-linejoin="round" d="M17,60v-3 c0-4.9941,5.0078-9,10-9c6,5,12,5,18,0c4.9941,0,10,4.0059,10,9v3"/>
    <path d="M41.873,30c0,1.1045-0.8955,2-2,2c-1.1044,0-2-0.8955-2-2s0.8956-2,2-2C40.9775,28,41.873,28.8955,41.873,30"/>
    <path d="M33.873,30c0,1.1045-0.8955,2-2,2c-1.1044,0-2-0.8955-2-2s0.8956-2,2-2C32.9775,28,33.873,28.8955,33.873,30"/>
    <path fill="none" stroke="#000000" stroke-width="2" stroke-linecap="round" stroke-linejoin="round" d="M36,17.9995 c0-0.0005-1.541,0.3335-2.457,0.8594"/>
    <path fill="none" stroke="#000000" stroke-width="2" stroke-linecap="round" stroke-linejoin="round" d="M26,27.1079 c-0.293,1.146-1.0635,5.0171-1.0635,6.8921c0,5,4.9365,11,11,11C41.873,45,47,39,47,34c0-2-0.707-5.9766-1-6.8921"/>
    <path fill="none" stroke="#000000" stroke-width="2" stroke-linecap="round" stroke-linejoin="round" d="M33,38 c1.9385,0.9385,4,1,6,0"/>
    <path fill="none" stroke="#000000" stroke-width="2" stroke-linecap="round" stroke-linejoin="round" d="M17,6c0,3,1,10,1,10v12 c1,4,4,4,4,4c0-6,3-12,3-12c2,2,2,2,4,4c1,1,3,0,2-2c-0.8379-1.6758-3.0469-4.6196-4-6c-0.9092-1.3174-2.1025-2.3677-4-3V6"/>
    <path fill="none" stroke="#000000" stroke-width="2" stroke-linecap="round" stroke-linejoin="round" d="M55.2734,6c0,3-1,10-1,10 v12c-1,4-4,4-4,4c0-6-3-12-3-12c-2,2-2,2-4,4c-1,1-3,0-2-2c0.8379-1.6758,3.0469-4.6196,4-6c0.9092-1.3174,2.1026-2.3677,4-3V6"/>
    <path fill="none" stroke="#000000" stroke-width="2" stroke-linecap="round" stroke-linejoin="round" d="M36,17.999 c0,0,1.4443,0.1573,2.334,0.6675"/>
  </g>
</svg>
