<svg id="emoji" viewBox="0 0 72 72" xmlns="http://www.w3.org/2000/svg">
  <g id="color">
    <path fill="#61B2E4" stroke="none" stroke-linecap="round" stroke-linejoin="round" stroke-miterlimit="10" stroke-width="2.3851" d="M45.8743,51.5138"/>
    <polygon fill="#61B2E4" stroke="none" stroke-linecap="round" stroke-linejoin="round" stroke-miterlimit="10" stroke-width="2.3851" points="56.3771,12.2798 16.3771,12.2798 4,23.3481 36,64.0837 68,23.3481"/>
    <polyline fill="#92D3F5" stroke="none" points="37.3698,62.3355 55.9791,23.8347 40.1045,13.255 55.6075,13.255 67.2305,24.3233 37.3698,62.3355"/>
  </g>
  <g id="hair"/>
  <g id="skin"/>
  <g id="skin-shadow"/>
  <g id="line">
    <path fill="none" stroke="#000000" stroke-linecap="round" stroke-linejoin="round" stroke-miterlimit="10" stroke-width="2.3851" d="M45.8743,51.5138"/>
    <polygon fill="none" stroke="#000000" stroke-linecap="round" stroke-linejoin="round" stroke-miterlimit="10" stroke-width="2.3851" points="56.3771,12.2798 16.3771,12.2798 4,23.3481 36,64.0837 68,23.3481"/>
    <polyline fill="none" stroke="#000000" stroke-linecap="round" stroke-linejoin="round" stroke-miterlimit="10" stroke-width="2.3851" points="55.7486,23.8595 36,64.0837 36,24.3482 36,12.2798 16.2556,23.3482"/>
    <line x1="16.2556" x2="36.0042" y1="23.8595" y2="64.0837" fill="none" stroke="#000000" stroke-linecap="round" stroke-linejoin="round" stroke-miterlimit="10" stroke-width="2.3851"/>
    <path fill="#000000" stroke="#000000" stroke-linecap="round" stroke-linejoin="round" stroke-miterlimit="10" stroke-width="2.3851" d="M36,23.3482"/>
    <line x1="4" x2="68" y1="23.3482" y2="23.3482" fill="#000000" stroke="#000000" stroke-linecap="round" stroke-linejoin="round" stroke-miterlimit="10" stroke-width="2"/>
    <line x1="36" x2="55.7486" y1="12.2798" y2="23.3482" fill="none" stroke="#000000" stroke-linecap="round" stroke-linejoin="round" stroke-miterlimit="10" stroke-width="2.3851"/>
    <polygon fill="none" stroke="#000000" stroke-linecap="round" stroke-linejoin="round" stroke-miterlimit="10" stroke-width="2.3851" points="56.3771,12.2798 16.3771,12.2798 4,23.3481 36,64.0837 68,23.3481"/>
  </g>
</svg>
