<svg id="emoji" xmlns="http://www.w3.org/2000/svg" viewBox="0 0 72 72">
  
  <g id="color">
    <path fill="#ea5a47" d="M54.9199,58.9415c0,0,4.011-14.0016-10.3-14.8974c-3.1919,2.1193-5.9264,3.5838-9,3.5775h0.125
			c-3.0736,0.0063-5.8082-1.4582-9-3.5775c-12,0-10,14.8974-10,14.8974" stroke="none"></path>
    <path fill="#d22f27" d="M45.3616,44.0895c-3.1127,2.0751-4.9834,3.2404-8.9725,3.8183
			c12.8266,0.404,12.8266,7.1094,13.5749,11.0371c4.1614,0,5.0206,0,5.0206,0S57.1448,44.0895,45.3616,44.0895z" stroke="none"></path>
    <polygon fill="#FFFFFF" points="38.0001,52.0607 33.8167,52.0607 34.1167,58.9433 37.8001,58.9433 		" stroke="none"></polygon>
    <path fill="#3F3F3F" d="M24.8721,23.026h21.2725V9.5862c0-4.0604-3.2916-7.3521-7.352-7.3521h-6.5685
			c-4.0604,0-7.352,3.2917-7.352,7.3521V23.026z" stroke="none"></path>
    <path fill="#3F3F3F" d="M44.8159,44.9433c1.19,0,2.24,0.13,3.17,0.36c-7.49,9.31-18.82,7.44-24.21,0
				c0.93-0.23,1.97-0.36,3.16-0.36c3.16,2.09,5.86,3.55,8.88,3.59h0.12C38.9559,48.4933,41.6659,47.0333,44.8159,44.9433z" stroke="none"></path>
  </g>
  <g id="hair">
  </g>
  <g id="skin">
    <path fill="#fcea2b" d="M47.2076,28.8665c0-7.5922-5.1263-13.7468-11.45-13.7468s-11.45,6.1546-11.45,13.7468
			c0,0.949,0.0801,1.8756,0.2326,2.7704c1.0677,6.2642,5.4904,10.9764,11.5946,10.9764s10.2669-5.1983,10.8175-10.8467
			C47.1196,30.8317,47.2076,29.8614,47.2076,28.8665z" stroke="none"></path>
  </g>
  <g id="skin-shadow">
  </g>
  <g id="line">
    <path fill="#000000" d="M41.8801,27.0871c0,1.1045-0.8965,2-2,2s-2-0.8955-2-2c0-1.1035,0.8965-2,2-2
			S41.8801,25.9836,41.8801,27.0871" stroke="none"></path>
    <path fill="#000000" d="M33.8801,27.0871c0,1.1045-0.8965,2-2,2s-2-0.8955-2-2c0-1.1035,0.8965-2,2-2
			S33.8801,25.9836,33.8801,27.0871" stroke="none"></path>
    <path fill="#000000" d="M35.88,37.0895c-1.1519,0-2.3037-0.2861-3.4473-0.8579c-0.4941-0.2471-0.6943-0.8477-0.4472-1.3418
			c0.2466-0.4937,0.8462-0.6943,1.3418-0.4473c1.7177,0.8594,3.3877,0.8594,5.1054,0c0.4947-0.247,1.0948-0.0464,1.3418,0.4473
			c0.2471,0.4941,0.0469,1.0947-0.4472,1.3418C38.1837,36.8034,37.0319,37.0895,35.88,37.0895z" stroke="none"></path>
    <path fill="none" stroke="#000000" stroke-width="2" stroke-linecap="round" stroke-linejoin="round" stroke-miterlimit="10" d="
				M16.9359,57.9433c0,0-1.62-10.56,6.84-12.64c0.93-0.23,1.97-0.36,3.16-0.36c3.16,2.09,5.86,3.55,8.88,3.59h0.12
				c3.02-0.04,5.73-1.5,8.88-3.59c1.19,0,2.24,0.13,3.17,0.36c8.45,2.09,6.83,12.64,6.83,12.64"></path>
    <path fill="none" stroke="#000000" stroke-width="2" stroke-linecap="round" stroke-linejoin="round" stroke-miterlimit="10" d="
				M23.7759,45.3033c5.39,7.44,16.72,9.31,24.21,0"></path>
    <path d="M34.2207,58.9531c-0.5527,0-1-0.4472-1-1v-6.4013c0-0.5528,0.4473-1,1-1c0.5527,0,1,0.4472,1,1v6.4013
			C35.2207,58.5059,34.7734,58.9531,34.2207,58.9531z" fill="#000000" stroke="none"></path>
    <path d="M37.7793,58.9531c-0.5527,0-1-0.4472-1-1v-6.4326c0-0.5527,0.4473-1,1-1c0.5527,0,1,0.4473,1,1v6.4326
			C38.7793,58.5059,38.332,58.9531,37.7793,58.9531z" fill="#000000" stroke="none"></path>
    <path d="M46.4443,24.0259H25.1719c-0.5528,0-1-0.4478-1-1V9.5864c0-4.6054,3.747-8.3525,8.3525-8.3525h6.5684
			c4.6054,0,8.3515,3.7471,8.3515,8.3525v13.4395C47.4443,23.5781,46.9971,24.0259,46.4443,24.0259z M26.1719,22.0259h19.2724
			V9.5864c0-3.5029-2.8496-6.3525-6.3515-6.3525h-6.5684c-3.5029,0-6.3525,2.8496-6.3525,6.3525V22.0259z" fill="#000000" stroke="none"></path>
    <path d="M41.8758,27.0792c0,1.1045-0.8965,2-2,2s-2-0.8955-2-2c0-1.1035,0.8965-2,2-2S41.8758,25.9757,41.8758,27.0792" fill="#000000" stroke="none"></path>
    <path d="M33.8758,27.0792c0,1.1045-0.8965,2-2,2s-2-0.8955-2-2c0-1.1035,0.8965-2,2-2S33.8758,25.9757,33.8758,27.0792" fill="#000000" stroke="none"></path>
    <path d="M35.8757,37.0817c-1.1519,0-2.3037-0.2862-3.4473-0.8579c-0.4941-0.2471-0.6943-0.8477-0.4472-1.3418
			c0.2465-0.4937,0.8461-0.6944,1.3418-0.4473c1.7177,0.8594,3.3876,0.8594,5.1054,0c0.4947-0.2471,1.0947-0.0464,1.3418,0.4473
			c0.2471,0.4941,0.0469,1.0947-0.4472,1.3418C38.1794,36.7955,37.0275,37.0817,35.8757,37.0817z" fill="#000000" stroke="none"></path>
    <path d="M35.876,43.6133c-6.8037,0-12.3389-6.8067-12.3389-15.1734c0-1.8813,0.2764-3.7172,0.8203-5.4565
			c0.1651-0.5264,0.7227-0.8203,1.253-0.6558c0.5263,0.1651,0.8203,0.7261,0.6552,1.2535
			c-0.4834,1.5454-0.7285,3.1801-0.7285,4.8588c0,7.2642,4.6377,13.1734,10.3389,13.1734c5.7002,0,10.3379-5.9092,10.3379-13.1734
			c0-1.0756-0.1016-2.142-0.3018-3.1699c-0.1094-0.563-0.251-1.1255-0.4209-1.6723c-0.1641-0.5274,0.1309-1.0879,0.6582-1.252
			c0.5313-0.165,1.0889,0.1314,1.252,0.6582c0.1914,0.6167,0.3506,1.2505,0.4736,1.8843c0.2246,1.1528,0.3389,2.3481,0.3389,3.5517
			C48.2139,36.8066,42.6787,43.6133,35.876,43.6133z" fill="#000000" stroke="none"></path>
    <path fill="none" stroke="#000000" stroke-width="2" stroke-linecap="round" stroke-linejoin="round" stroke-miterlimit="10" d="
				M17.7153,44.4632c1.5814-1.107,3.6505-1.9636,6.3522-2.3986"></path>
    <path fill="none" stroke="#000000" stroke-width="2" stroke-linecap="round" stroke-linejoin="round" stroke-miterlimit="10" d="
				M54.2847,44.4632c-1.5814-1.107-3.6505-1.9636-6.3522-2.3986"></path>
  </g>
</svg>