<?xml version="1.0" encoding="utf-8"?>
<!-- Generator: Adobe Illustrator 21.1.0, SVG Export Plug-In . SVG Version: 6.00 Build 0)  -->
<svg version="1.1" id="emoji" xmlns="http://www.w3.org/2000/svg" xmlns:xlink="http://www.w3.org/1999/xlink" x="0px" y="0px"
	 viewBox="0 0 72 72" enable-background="new 0 0 72 72" xml:space="preserve">
<g id="_xD83D__xDC8B__1_">
	<path fill="#D22F27" d="M57.8,51.6C57.8,51.6,57.8,51.6,57.8,51.6C57.8,51.5,57.8,51.5,57.8,51.6c0.4-0.6,0.3-1.3,0-1.9
		c-2.4-5.3-2.5-10.5-2.5-14.7c-0.1-4.3-0.1-7.6-2.4-9.7c-1.5-1.4-3.7-1.9-6.8-1.6c-2.1,0.2-2.4,0.5-3.4-0.2c-1-0.6-0.9-1-1.7-3
		c-1.1-2.9-2.6-4.7-4.5-5.4c-2.9-1.1-5.9,0.3-9.7,2.1c-3.8,1.8-8.5,4-14.3,4.3c-0.7-0.1-1.4,0.2-1.8,0.8c-0.6,0.9-0.1,2.1,0.6,2.5
		c0.5,0.7,1,3.2,1.3,5.3c1.3,6.9,3.2,17.3,11.8,22.6s18.8,2.4,25.5,0.5c2-0.6,4.6-1.3,5.4-1.2C56.2,52.7,57.3,52.4,57.8,51.6z"/>
	<path fill="none" stroke="#000000" stroke-width="2" stroke-miterlimit="10" d="M57.8,51.6C57.8,51.6,57.8,51.6,57.8,51.6
		C57.8,51.5,57.8,51.5,57.8,51.6c0.4-0.6,0.3-1.3,0-1.9c-2.4-5.3-2.5-10.5-2.5-14.7c-0.1-4.3-0.1-7.6-2.4-9.7
		c-1.5-1.4-3.7-1.9-6.8-1.6c-2.1,0.2-2.4,0.5-3.4-0.2c-1-0.6-0.9-1-1.7-3c-1.1-2.9-2.6-4.7-4.5-5.4c-2.9-1.1-5.9,0.3-9.7,2.1
		c-3.8,1.8-8.5,4-14.3,4.3c-0.7-0.1-1.4,0.2-1.8,0.8c-0.6,0.9-0.1,2.1,0.6,2.5c0.5,0.7,1,3.2,1.3,5.3c1.3,6.9,3.2,17.3,11.8,22.6
		s18.8,2.4,25.5,0.5c2-0.6,4.6-1.3,5.4-1.2C56.2,52.7,57.3,52.4,57.8,51.6z"/>
	<g>
		<path fill="#FFFFFF" stroke="#000000" stroke-width="2" stroke-miterlimit="10" d="M43.8,42.1c-0.9-1.4-1.1-2.9-1.3-4.2
			c-0.1-0.6-0.2-1.2-0.3-1.8c0,0,0,0,0,0c-0.1-0.5-0.3-1-0.7-1.4c-0.2-0.2-0.3-0.4-0.5-0.6c-0.2-0.1-0.3-0.3-0.6-0.4
			c-0.9-0.6-2-0.6-2.8-0.6c-0.5,0-1-0.1-1-0.1s1,0.1,1,0.1l-1-0.1c0,0-1-2.3-2.4-3.1c-1.5-0.9-2.8-0.6-4.6,0.1
			c-1.3,0.5-2.6,0.9-4.3,0.7c-0.6-0.1-0.9,0.6-0.5,1c3.5,3.4,5.2,7.6,5.8,9.4c0.1,0.3,0.3,0.5,0.5,0.6l0,0c0.2,0.1,0.5,0.2,0.8,0.2
			c1.9-0.2,6.5-0.6,11,1c0.3,0.1,0.5,0,0.7-0.2C43.9,42.6,44,42.3,43.8,42.1z"/>
		<polygon fill="#FFFFFF" stroke="#000000" stroke-width="2" stroke-miterlimit="10" points="31.3,41.7 31.3,41.7 31.3,41.7 		"/>
	</g>
</g>
</svg>
