<?xml version="1.0" encoding="utf-8"?>
<!-- Generator: Adobe Illustrator 21.1.0, SVG Export Plug-In . SVG Version: 6.00 Build 0)  -->
<svg version="1.1" id="emoji" xmlns="http://www.w3.org/2000/svg" xmlns:xlink="http://www.w3.org/1999/xlink" x="0px" y="0px"
	 viewBox="0 0 72 72" enable-background="new 0 0 72 72" xml:space="preserve">
<g id="_xD83D__xDC8D_">
	<g>
		<path fill="#D0CFCE" d="M37.6,25c8.8,0,16,7.2,16,16s-7.2,16-16,16c-8.8,0-16-7.2-16-16S28.8,25,37.6,25 M37.6,21
			c-11,0-20,8.9-20,20s8.9,20,20,20s20-8.9,20-20S48.6,21,37.6,21L37.6,21z"/>
	</g>
	
		<circle fill="none" stroke="#1D1D1B" stroke-width="2" stroke-linecap="round" stroke-linejoin="round" stroke-miterlimit="10" cx="37.6" cy="41" r="20"/>
	
		<line fill="none" stroke="#1D1D1B" stroke-width="2" stroke-linecap="round" stroke-linejoin="round" stroke-miterlimit="10" x1="27.9" y1="12" x2="31.2" y2="18.4"/>
	
		<line fill="none" stroke="#1D1D1B" stroke-width="2" stroke-linecap="round" stroke-linejoin="round" stroke-miterlimit="10" x1="46.9" y1="12" x2="43.6" y2="18.4"/>
	
		<polygon fill="#61B2E4" stroke="#1D1D1B" stroke-width="2" stroke-linecap="round" stroke-linejoin="round" stroke-miterlimit="10" points="
		41.3,17 33.6,17 32.6,12 42.3,12 	"/>
</g>
</svg>
