<svg id="emoji" xmlns="http://www.w3.org/2000/svg" viewBox="0 0 72 72">
  <g id="color">
    <path fill="#FFA7C0" d="M25.0228,17.6092c-6.3535,0-11.5225,5.169-11.5225,11.5225c0,2.1167,0.5776,4.185,1.6714,5.9814 l0.6602,0.9737l20.4624,26.2299l20.5825-26.3916c1.4419-1.9653,2.2134-4.3222,2.2134-6.7934c0-6.3535-5.17-11.5225-11.5245-11.5225 c-4.4526,0-8.4267,2.5015-10.3711,6.5278c-0.1669,0.3453-0.5166,0.565-0.9003,0.565c-0.3838,0-0.7339-0.2197-0.9004-0.565 C33.4495,20.1107,29.4754,17.6092,25.0228,17.6092z" stroke="none"/>
    <path fill="#E67A94" d="M48.6289,17.6092c6.7448,0,12.2321,5.3636,12.2321,11.9563c0,2.1964-0.6132,4.3426-1.7743,6.2066 l-0.7009,1.0104L36.6632,64L35,61.9156C58.7672,30.168,48.6289,17.6092,48.6289,17.6092z" stroke="none"/>
  </g>
  <g id="hair"/>
  <g id="skin"/>
  <g id="skin-shadow"/>
  <g id="line">
    <path fill="none" stroke="#000000" stroke-width="2" stroke-linecap="round" stroke-linejoin="round" stroke-miterlimit="10" d="M8,27c0,0,0-9,8-12"/>
    <path fill="none" stroke="#000000" stroke-width="2" stroke-linecap="round" stroke-linejoin="round" stroke-miterlimit="10" d="M4,24c0,0,0-9,8-12"/>
    <path fill="none" stroke="#000000" stroke-width="2" stroke-linecap="round" stroke-linejoin="round" stroke-miterlimit="10" d="M64,27c0,0,0-9-8-12"/>
    <path fill="none" stroke="#000000" stroke-width="2" stroke-linecap="round" stroke-linejoin="round" stroke-miterlimit="10" d="M68,24c0,0,0-9-8-12"/>
    <path fill="#000000" d="M36.2943,64.9427c-0.3081,0-0.5992-0.1421-0.7886-0.3848L14.2152,37.2625l-0.7261-1.0688 c-1.3101-2.1504-1.9888-4.5786-1.9888-7.062c0-7.4566,6.0659-13.5225,13.5225-13.5225c4.6123,0,8.7866,2.2852,11.2715,6.0679 c2.4848-3.7827,6.6591-6.0679,11.2714-6.0679c7.4576,0,13.5245,6.0659,13.5245,13.5225c0,2.8999-0.9058,5.6665-2.6187,8 L37.0828,64.5575C36.8934,64.8006,36.6024,64.9427,36.2943,64.9427z M25.0228,17.6092c-6.3535,0-11.5225,5.169-11.5225,11.5225 c0,2.1167,0.5776,4.185,1.6714,5.9814l0.6602,0.9737l20.4624,26.2299l20.5825-26.3916c1.4419-1.9653,2.2134-4.3222,2.2134-6.7934 c0-6.3535-5.17-11.5225-11.5245-11.5225c-4.4526,0-8.4267,2.5015-10.3711,6.5278c-0.1669,0.3453-0.5166,0.565-0.9003,0.565 c-0.3838,0-0.7339-0.2197-0.9004-0.565C33.4495,20.1107,29.4754,17.6092,25.0228,17.6092z" stroke="none"/>
  </g>
</svg>
