<svg id="emoji" viewBox="0 0 72 72" xmlns="http://www.w3.org/2000/svg">
  <g id="color">
    <path fill="#e67a94" d="m60.5,25c0-7.4438-6.0557-13.5-13.5-13.5-4.4033,0-8.4844,2.1377-11,5.6724-2.5156-3.5347-6.5962-5.6724-11-5.6724-7.4438,0-13.5,6.0562-13.5,13.5,0,2.7285.8403,5.4082,2.3833,7.6504l-.0347.0273,20.866,25.8619h2.5708l20.2273-25.0695.668-.8369-.0352-.0244c1.5244-2.2333,2.3545-4.8969,2.3545-7.6088Z"/>
    <path fill="#fcea2b" d="m26.676,38.3048c.1049.5815.6677,1.0558,1.421,1.1981l10.1458,1.9169c-.0372.0074-7.2045,1.3613-10.1506,1.9179-.7533.1423-1.3112.616-1.4161,1.1974l-2.5737,8.4291-2.7755-8.4289c-.1049-.5815-.6629-1.0552-1.4163-1.1975-2.954-.5578-5.1603-1.918-5.1605-1.9181-.0001,0,2.2069-1.3594,5.1607-1.9178.7532-.1423.8465-.8247.9514-1.4061l1.7931-10.1776c.0627-.3475,1.6784-2.5957,1.741-2.2481.7095,3.9321,2.1393,11.8564,2.2797,12.6347Z"/>
    <path fill="#f1b31c" d="m24.5872,53.9186l1.0246-7.8747c-1.9242-3.3355-3.3469-6.7963-4.2428-9.2606l-.2443,1.5312c-.0927.5811-.5856,1.0544-1.2512,1.1968-2.5521.8623-4.5062,1.9778-4.5913,1.9963.0813.0177,1.9715.6926,4.591,1.8376.6657.1423,1.1588.6157,1.2515,1.1969l2.7642,9.3767c.0555.3472.643.3472.6983-.0002Z"/>
    <path fill="#fcea2b" d="m51.8824,18.9358c.0862.4637.5487.8419,1.1677.9554l7.0663,1.2955c.3309.0607.3347.4049.0038.4656-1.8753.3438-5.352.9812-7.074,1.2969-.619.1135-1.0775.4912-1.1637.9548l-1.8733,10.0742c-.0515.2771-.5978.2771-.6494,0l-1.8733-10.074c-.0862-.4637-.5448-.8414-1.1639-.9549-1.722-.3156-5.1988-.9529-7.0743-1.2967-.3309-.0607-.3309-.4042,0-.4649,1.8755-.3438,5.3525-.9813,7.0745-1.2972.619-.1135.6956-.6577.7818-1.1213l2.2236-8.1159c.0515-.2771.6293-2.0699.6808-1.7927.583,3.1355,1.758,9.4545,1.8734,10.0752Z"/>
    <path fill="#f1b31c" d="m50.0748,33.9782l1.2105-8.8711c-1.3126-2.6598-2.2831-5.4195-2.8942-7.3846l-.1666,1.221c-.0633.4634-.3994.8408-.8535.9543-1.263.3156-3.8133.9528-5.1889,1.2965-.2427.0606-.2427.404,0,.4647,1.3756.3437,3.9257.9807,5.1887,1.2961.4541.1134.7904.491.8537.9544l1.374,10.0688c.0378.2769.4385.2769.4763,0Z"/>
  </g>
  <g id="line">
    <g id="line-2">
      <path fill="none" stroke="#000" stroke-linecap="round" stroke-linejoin="round" stroke-width="2" d="m29.1505,50.0504l6.8495,8.4893,20.7339-25.6975-.0043-.0034c1.7301-2.1446,2.7704-4.8689,2.7704-7.8388"/>
      <path fill="none" stroke="#000" stroke-linecap="round" stroke-linejoin="round" stroke-width="2" d="m45.2493,12.6217c-4.0043.5613-7.3996,3.0202-9.2493,6.4381-2.1139-3.9062-6.2467-6.5598-11-6.5598-6.9036,0-12.5,5.5964-12.5,12.5,0,2.9699,1.0403,5.6942,2.7703,7.8387l-.0043.0034,2.1605,2.6777"/>
    </g>
    <path fill="none" stroke="#000" stroke-linecap="round" stroke-linejoin="round" stroke-width="2" d="m22.5556,32.4499l1.5469-8.0604.5052,3.0162c.081.4824,1.6827,10.0429,1.6827,10.0429.1889,1.1269,1.1869,2.0334,2.5426,2.3092l8.167,1.662-8.1728,1.663c-1.3523.2752-2.3482,1.1812-2.5369,2.3084l-2.1876,13.0587-2.1876-13.0582c-.1889-1.1272-1.1848-2.0333-2.5372-2.3085l-8.173-1.6629,8.1735-1.6634c1.352-.2753,2.2663-1.8467,2.455-2.9736"/>
    <path fill="none" stroke="#000" stroke-linecap="round" stroke-linejoin="round" stroke-width="2" d="m48.8482,14.267l1.2335-6.4275.4029,2.4052c.0646.3847,1.3418,8.0084,1.3418,8.0084.1506.8986.9465,1.6215,2.0275,1.8414l6.2626,1.3253-6.2671,1.3261c-1.0783.2194-1.8725.9419-2.023,1.8408l-1.7445,10.4133-1.7445-10.4129c-.1506-.8988-.9448-1.6214-2.0232-1.8409l-6.5174-1.326,6.5177-1.3264c1.0781-.2195,1.8072-1.4726,1.9577-2.3712"/>
  </g>
</svg>
