<?xml version="1.0" encoding="utf-8"?>
<!-- Generator: Adobe Illustrator 21.1.0, SVG Export Plug-In . SVG Version: 6.00 Build 0)  -->
<svg version="1.1" id="emoji" xmlns="http://www.w3.org/2000/svg" xmlns:xlink="http://www.w3.org/1999/xlink" x="0px" y="0px"
	 viewBox="0 0 72 72" enable-background="new 0 0 72 72" xml:space="preserve">
<g id="_xD83D__xDC92__1_">
	<path fill="#D0CFCE" d="M44,34V19.8v-0.4l-7.3-5.2c-0.4-0.3-1-0.3-1.4,0L28,19.4v0.4V34"/>
	
		<path fill="#FFFFFF" stroke="#000000" stroke-width="2" stroke-linecap="round" stroke-linejoin="round" stroke-miterlimit="10" d="
		M53,41.5V66c0,0.6-0.4,1-0.9,1H19.9c-0.5,0-0.9-0.4-0.9-1V41.5c0-0.3,0.1-0.6,0.3-0.8l16.1-15.5c0.3-0.3,0.8-0.3,1.2,0l16.1,15.5
		C52.9,40.9,53,41.2,53,41.5z"/>
	<path fill="none" stroke="#000000" stroke-width="2" stroke-linecap="round" stroke-linejoin="round" stroke-miterlimit="10" d="
		M43,27v-8.2v-0.4l-6.4-5.2c-0.4-0.3-0.9-0.3-1.2,0L29,18.4v0.4V27"/>
	
		<line fill="none" stroke="#000000" stroke-width="2" stroke-linecap="round" stroke-miterlimit="10" x1="36" y1="13" x2="36" y2="5"/>
	
		<line fill="none" stroke="#000000" stroke-width="2" stroke-linecap="round" stroke-miterlimit="10" x1="32.5" y1="8" x2="39.5" y2="8"/>
	<path fill="#A57939" stroke="#000000" stroke-width="2" stroke-linecap="round" stroke-miterlimit="10" d="M41,58.9
		c0-3.9-3.3-6.1-4.6-6.8c-0.3-0.2-0.6-0.2-0.9,0c-1.2,0.7-4.6,3-4.6,6.8V66c0,0.5,0.4,1,0.9,1h8.2c0.5,0,0.9-0.4,0.9-1V58.9z"/>
	<path fill="#EA5A47" stroke="#000000" stroke-width="2" stroke-linecap="round" stroke-linejoin="round" d="M36,45.8l-4.9-6.2
		L31,39.3c-0.8-1.4-0.4-3.1,1-3.9c1.4-0.8,3.1-0.4,3.9,1c0,0.1,0.1,0.2,0.1,0.2c0.7-1.4,2.4-2,3.8-1.3c1.4,0.7,2,2.4,1.3,3.8
		c-0.1,0.2-0.2,0.3-0.3,0.5L36,45.8z"/>
</g>
</svg>
