<?xml version="1.0" encoding="utf-8"?>
<!-- Generator: Adobe Illustrator 21.1.0, SVG Export Plug-In . SVG Version: 6.00 Build 0)  -->
<svg version="1.1" id="emoji" xmlns="http://www.w3.org/2000/svg" xmlns:xlink="http://www.w3.org/1999/xlink" x="0px" y="0px"
	 viewBox="0 0 72 72" enable-background="new 0 0 72 72" xml:space="preserve">
<g>
	<path fill="#EA5A47" d="M24,17.6c-6.4,0-11.5,5.2-11.5,11.5c0,2.1,0.6,4.2,1.7,6l0.7,1l20.5,26.2l20.6-26.4c1.4-2,2.2-4.3,2.2-6.8
		c0-6.4-5.2-11.5-11.5-11.5c-4.5,0-8.4,2.5-10.4,6.5c-0.2,0.3-0.5,0.6-0.9,0.6c-0.4,0-0.7-0.2-0.9-0.6C32.4,20.1,28.5,17.6,24,17.6z
		"/>
	<path fill="#D22F27" d="M46.3,17.6c6.4,0,11.5,5.2,11.5,11.5c0,2.1-0.6,4.2-1.7,6l-0.7,1L35.1,62.3l-1.6-2
		C55.9,29.7,46.3,17.6,46.3,17.6z"/>
	<path fill="#070707" d="M35.3,64.9c-0.3,0-0.6-0.1-0.8-0.4L13.2,37.3l-0.7-1.1c-1.3-2.2-2-4.6-2-7.1c0-7.5,6.1-13.5,13.5-13.5
		c4.6,0,8.8,2.3,11.3,6.1c2.5-3.8,6.7-6.1,11.3-6.1c7.5,0,13.5,6.1,13.5,13.5c0,2.9-0.9,5.7-2.6,8L36.1,64.6
		C35.9,64.8,35.6,64.9,35.3,64.9z M24,17.6c-6.4,0-11.5,5.2-11.5,11.5c0,2.1,0.6,4.2,1.7,6l0.7,1l20.5,26.2l20.6-26.4
		c1.4-2,2.2-4.3,2.2-6.8c0-6.4-5.2-11.5-11.5-11.5c-4.5,0-8.4,2.5-10.4,6.5c-0.2,0.3-0.5,0.6-0.9,0.6c-0.4,0-0.7-0.2-0.9-0.6
		C32.4,20.1,28.5,17.6,24,17.6z"/>
	<path fill="#FCEA2B" d="M59.8,29.6c-2.9,0-8.1,2.8-10.7,5.6c0.5,0.5,0.8,1.3,0.8,2.1c0,3.7,0.1,3.8-0.1,4.5
		c6.8,2.1,8.5,7.4,11.9,2.9C65.6,39.6,63.4,29.6,59.8,29.6z"/>
	<path fill="#F1B31C" d="M49.9,37.6c2.7-2.5,7.3-4.8,9.9-4.8c2,0,3.5,3,3.9,6.5c0.5-4.7-1.3-9.7-3.9-9.7c-2.9,0-8.1,2.8-10.7,5.6
		c0.5,0.5,0.8,1.3,0.8,2.1C49.9,37.4,49.9,37.5,49.9,37.6z"/>
	<path fill="#FCEA2B" d="M31.9,44.7c3.4,4.5,5.1-0.8,11.9-2.9c-0.2-0.6-0.1-0.8-0.1-4.5c0-0.8,0.3-1.5,0.8-2.1
		c-2.6-2.8-7.8-5.6-10.7-5.6C30.2,29.6,28.1,39.6,31.9,44.7z"/>
	<path fill="#F1B31C" d="M43.7,37.6c-2.7-2.5-7.3-4.8-9.9-4.8c-2,0-3.5,3-3.9,6.5c-0.5-4.7,1.3-9.7,3.9-9.7c2.9,0,8.1,2.8,10.7,5.6
		c-0.5,0.5-0.8,1.3-0.8,2.1C43.7,37.4,43.7,37.5,43.7,37.6z"/>
	<path fill="none" stroke="#000000" stroke-width="2" stroke-miterlimit="10" d="M60.8,29.4c-0.3-0.2-0.7-0.3-1-0.3
		c-1.3,0-3.1,0.6-4.8,1.4"/>
	<path fill="none" stroke="#000000" stroke-width="2" stroke-miterlimit="10" d="M49.8,41.3c6.8,2.1,8.5,7.4,11.9,2.9
		c3.5-4.6,2.1-13.1-0.9-14.8"/>
	<path fill="none" stroke="#000000" stroke-width="2" stroke-miterlimit="10" d="M54.9,30.6c-2.2,1.1-4.4,2.6-5.9,4.2"/>
	<path fill="#FCEA2B" d="M44.4,42.2c-0.7,0.3-1.4,0.6-2,0.9c-1.3,1.7-3.6,5.2-6.1,10.8c-0.2,0.4,0.1,1,0.5,0.9l2.8-0.6
		c0.4-0.1,0.8,0.2,1,0.6l1.3,2.9c0.2,0.5,0.8,0.4,0.9-0.2c0.6-2.8,1.8-9,3.4-13.1C45.4,44.2,44.7,43.3,44.4,42.2z"/>
	<path fill="#FCEA2B" d="M52,43.2c-0.6-0.4-1.3-0.7-2-1c-0.2,1.1-1,1.9-1.9,2.1c1.5,4.1,2.8,10.3,3.4,13.1c0.1,0.6,0.7,0.7,0.9,0.2
		l1.3-2.9c0.2-0.5,0.6-0.7,1-0.6l2.8,0.6c0.4,0.1,0.7-0.4,0.5-0.9C55.6,48.4,53.3,44.9,52,43.2z"/>
	<path fill="none" stroke="#000000" stroke-width="2" stroke-linecap="round" stroke-linejoin="round" stroke-miterlimit="10" d="
		M43.9,42.2c-0.7,0.3-1.4,0.6-2,0.9c-1.3,1.7-3.6,5.2-6.1,10.8c-0.2,0.4,0.1,1,0.5,0.9l2.8-0.6c0.4-0.1,0.8,0.2,1,0.6l1.3,2.9
		c0.2,0.5,0.8,0.4,0.9-0.2c0.6-2.8,1.8-9,3.4-13.1C44.8,44.2,44.1,43.3,43.9,42.2z"/>
	<path fill="none" stroke="#000000" stroke-width="2" stroke-linecap="round" stroke-linejoin="round" stroke-miterlimit="10" d="
		M52,43.2c-0.6-0.4-1.3-0.7-2-1c-0.2,1.1-1,1.9-1.9,2.1c1.5,4.1,2.8,10.3,3.4,13.1c0.1,0.6,0.7,0.7,0.9,0.2l1.3-2.9
		c0.2-0.5,0.6-0.7,1-0.6l2.8,0.6c0.4,0.1,0.7-0.4,0.5-0.9C55.6,48.4,53.3,44.9,52,43.2z"/>
	<path fill="#F4EA27" d="M47.1,34.5h-1c-1.3,0-2.4,1.4-2.4,3.1v3.9c0,1.7,1.1,3.1,2.4,3.1h1c1.3,0,2.4-1.4,2.4-3.1v-3.9
		C49.5,35.9,48.4,34.5,47.1,34.5z"/>
	<path fill="#F1B31C" d="M46.3,41.6v-3.9c0-1.3-0.6-2.4-1.5-2.9c0.3-0.2,0.6-0.2,0.9-0.2h1c1.3,0,2.4,1.4,2.4,3.1v3.9
		c0,1.7-1.1,3.1-2.4,3.1h-1c-0.3,0-0.6-0.1-0.9-0.2C45.7,44,46.3,42.9,46.3,41.6z"/>
	<path fill="none" stroke="#000000" stroke-width="2" stroke-miterlimit="10" d="M47.1,33.9h-1c-1.3,0-2.4,1.4-2.4,3.1V41
		c0,1.7,1.1,3.1,2.4,3.1h1c1.3,0,2.4-1.4,2.4-3.1v-3.9C49.5,35.3,48.4,33.9,47.1,33.9z"/>
	<line fill="#F4EA27" x1="15" y1="37.4" x2="31.9" y2="37.4"/>
	<path fill="none" stroke="#000000" stroke-width="2" stroke-miterlimit="10" d="M44,35c-2.6-2.8-7.2-5.4-10.2-5.4
		c-3.6,0-5.8,10-1.9,15.1c3.4,4.5,5.1-0.8,11.9-2.9"/>
</g>
</svg>
