<?xml version="1.0" encoding="utf-8"?>
<!-- Generator: Adobe Illustrator 21.1.0, SVG Export Plug-In . SVG Version: 6.00 Build 0)  -->
<svg version="1.1" id="emoji" xmlns="http://www.w3.org/2000/svg" xmlns:xlink="http://www.w3.org/1999/xlink" x="0px" y="0px"
	 viewBox="0 0 72 72" enable-background="new 0 0 72 72" xml:space="preserve">
<g>
	
		<rect x="11" y="11" fill="#B399C6" stroke="#000000" stroke-width="2" stroke-linecap="round" stroke-linejoin="round" stroke-miterlimit="10" width="50" height="50"/>
	<polygon fill="#8967AA" points="29.9,59.9 59.9,60.1 60.1,12.1 45.9,12 	"/>
	<g>
		
			<path fill="#FFFFFF" stroke="#000000" stroke-width="2" stroke-linecap="round" stroke-linejoin="round" stroke-miterlimit="10" d="
			M20.3,30.9 M28.9,23.6c-4,0-7.3,3.3-7.3,7.3c0,1.3,0.4,2.7,1.1,3.8l0.4,0.6L36,52l13-16.7c0.9-1.2,1.4-2.7,1.4-4.3
			c0-4-3.3-7.3-7.3-7.3c-2.8,0-5.3,1.6-6.6,4.1c-0.1,0.2-0.3,0.4-0.6,0.4c-0.2,0-0.5-0.1-0.6-0.4C34.2,25.2,31.7,23.6,28.9,23.6z"/>
		
			<path fill="#FFFFFF" stroke="#000000" stroke-width="2" stroke-linecap="round" stroke-linejoin="round" stroke-miterlimit="10" d="
			M28.9,23.6c-4,0-7.3,3.3-7.3,7.3c0,1.3,0.4,2.7,1.1,3.8L36,52l13-16.7c0.9-1.2,1.4-2.7,1.4-4.3c0-4-3.3-7.3-7.3-7.3
			c-2.8,0-5.3,1.6-6.6,4.1c-0.1,0.2-0.3,0.4-0.6,0.4c-0.2,0-0.5-0.1-0.6-0.4C34.2,25.2,31.7,23.6,28.9,23.6z"/>
		
			<path fill="#FFFFFF" stroke="#000000" stroke-width="2" stroke-linecap="round" stroke-linejoin="round" stroke-miterlimit="10" d="
			M22.6,34.7"/>
	</g>
</g>
</svg>
