<svg id="emoji" xmlns="http://www.w3.org/2000/svg" viewBox="0 0 72 72">
  <g id="color">
    <path fill="#FFA7C0" d="M26.2796,51.0429l8.0147,10.2738l20.5825-26.3916c1.4419-1.9653,2.2134-4.3222,2.2134-6.7934 c0-6.3535-5.17-11.5225-11.5245-11.5225c-4.4526,0-8.4267,2.5015-10.3711,6.5278c-0.1669,0.3453-0.5166,0.565-0.9003,0.565 c-0.3838,0-0.7339-0.2197-0.9004-0.565c-1.9444-4.0263-5.9185-6.5278-10.3711-6.5278c-6.3535,0-11.5225,5.169-11.5225,11.5225 c0,2.1167,0.5776,4.185,1.6714,5.9814l0.1133,1.4425L25.2251,50.861 M25.772,50.3923l0.5076,0.6507" stroke="none"/>
    <path fill="#e67a94" d="M46.1955,16.6092c7.0252,0,10.6576,4.9402,10.6576,11.3908c0,2.1491,0.1679,4.1761-1.0416,6h0.0495l-22,28 L32,59.9605C56.7554,28.8973,46.1955,16.6092,46.1955,16.6092z" stroke="none"/>
    <polyline fill="#61b2e4" points="17.8211,54.1789 18.0962,60.9038 12.1071,66.8929 11.832,60.168 17.8211,54.1789" stroke="none"/>
    <polyline fill="#92d3f5" points="5.8823,59.668 12.332,59.668 18.3211,53.6789 11.8713,53.6789 5.8823,59.668" stroke="none"/>
    <polygon fill="#92d3f5" stroke="none" stroke-width="2" stroke-linecap="round" stroke-linejoin="round" stroke-miterlimit="10" points="66.1798,5.6284 64.9243,10.4798 63.6689,15.3311 60.073,11.7352 56.477,8.1393 61.3284,6.8839"/>
  </g>
  <g id="hair"/>
  <g id="skin"/>
  <g id="skin-shadow"/>
  <g id="line">
    <path fill="none" stroke="#000000" stroke-width="2" stroke-linecap="round" stroke-linejoin="round" stroke-miterlimit="10" d="M21.5104,44.9597c-3.4283-4.3998-7.6785-9.8729-7.6785-9.8729l-0.6602-0.9737c-1.0938-1.7964-1.6714-3.8647-1.6714-5.9814 c0-6.3535,5.169-11.5225,11.5225-11.5225c4.4526,0,8.4267,2.5015,10.3711,6.5278c0.1665,0.3453,0.5166,0.565,0.9004,0.565 c0.3837,0,0.7334-0.2197,0.9003-0.565c1.9444-4.0263,5.9185-6.5278,10.3711-6.5278c6.3546,0,11.5245,5.169,11.5245,11.5225 c0,2.4712-0.7715,4.8281-2.2134,6.7934L34.2943,61.3167l-8.0139-10.2726"/>
    <line fill="none" stroke="#000000" stroke-width="2" stroke-linecap="round" stroke-linejoin="round" stroke-miterlimit="10" x1="32.5" y1="39.5" x2="19" y2="53"/>
    <line fill="none" stroke="#000000" stroke-width="2" stroke-linecap="round" stroke-linejoin="round" stroke-miterlimit="10" x1="61" y1="11" x2="56" y2="16"/>
    <polygon fill="none" stroke="#000000" stroke-width="2" stroke-linecap="round" stroke-linejoin="round" stroke-miterlimit="10" points="18.5962,53.4541 11.6464,53.4541 5.1931,59.9074 12.1429,59.9074 12.1429,66.8571 18.5962,60.4038"/>
    <polygon fill="none" stroke="#000000" stroke-width="2" stroke-linecap="round" stroke-linejoin="round" stroke-miterlimit="10" points="66.1798,5.6284 64.9243,10.4798 63.6689,15.3311 60.073,11.7352 56.477,8.1393 61.3284,6.8839"/>
  </g>
</svg>
