<svg id="emoji" xmlns="http://www.w3.org/2000/svg" viewBox="0 0 72 72">
  <g id="color">
    <path fill="#FFA7C0" d="M23.7156,13c-6.5266,0-11.8365,5.3099-11.8365,11.8365c0,2.1744,0.5933,4.2991,1.717,6.1444l0.6782,1.0002 l21.0201,26.9447l21.1434-27.1108c1.4812-2.0189,2.2737-4.44,2.2737-6.9785C58.7114,18.3099,53.4005,13,46.8728,13 c-4.5739,0-8.6563,2.5697-10.6537,6.7057c-0.1714,0.3547-0.5307,0.5804-0.9248,0.5804c-0.3943,0-0.7539-0.2257-0.9249-0.5804 C32.3719,15.5697,28.2895,13,23.7156,13z" stroke="none"/>
    <path fill="#E67A94" d="M25.0564,18c-5.7709,0-10.4659,4.856-10.4659,10.8247c0,1.9885,0.5246,3.9316,1.5181,5.6192l0.5997,0.9147 L35.2944,60l18.6952-24.7933C55.2992,33.3604,56,31.1462,56,28.8247C56,22.856,51.3041,18,45.5322,18 c-4.0443,0-7.654,2.35-9.4201,6.1325c-0.1516,0.3244-0.4692,0.5308-0.8177,0.5308c-0.3486,0-0.6666-0.2064-0.8178-0.5308 C32.7104,20.35,29.1008,18,25.0564,18z" stroke="none"/>
    <path fill="#FFA7C0" d="M27.0345,23c-4.656,0-8.444,4.2779-8.444,9.536c0,1.7518,0.4233,3.4635,1.2248,4.9502l0.4838,0.8058 L35.2946,60L50.378,38.1583C51.4346,36.5318,52,34.5812,52,32.536C52,27.2779,48.2113,23,43.5545,23 c-3.263,0-6.1753,2.0702-7.6002,5.4024c-0.1223,0.2858-0.3786,0.4676-0.6598,0.4676c-0.2813,0-0.5378-0.1818-0.6598-0.4676 C33.2098,25.0702,30.2975,23,27.0345,23z" stroke="none"/>
    <path fill="#E67A94" d="M28.0235,27c-4.0986,0-7.433,3.7985-7.433,8.4674c0,1.5555,0.3726,3.0754,1.0782,4.3955l0.4259,0.7155 l13.2,19.2752l13.2775-19.394C49.5023,39.0153,50,37.2834,50,35.4674C50,30.7985,46.6649,27,42.5657,27 c-2.8723,0-5.436,1.8382-6.6903,4.797c-0.1077,0.2537-0.3333,0.4152-0.5808,0.4152c-0.2476,0-0.4734-0.1614-0.5808-0.4152 C33.4595,28.8382,30.8958,27,28.0235,27z" stroke="none"/>
  </g>
  <g id="hair"/>
  <g id="skin"/>
  <g id="skin-shadow"/>
  <g id="line">
    <path fill="none" stroke="#000000" stroke-width="0.1841" stroke-linecap="round" stroke-linejoin="round" stroke-miterlimit="10" d="M14.0568,32.6316"/>
    <path fill="#000000" d="M35.2943,60.9427c-0.3081,0-0.5992-0.1421-0.7886-0.3848L13.2152,33.2625l-0.7261-1.0688 c-1.3101-2.1504-1.9888-4.5786-1.9888-7.062c0-7.4566,6.0659-13.5225,13.5225-13.5225c4.6123,0,8.7866,2.2852,11.2715,6.0679 c2.4848-3.7827,6.6591-6.0679,11.2714-6.0679c7.4576,0,13.5245,6.0659,13.5245,13.5225c0,2.8999-0.9058,5.6665-2.6187,8 L36.0828,60.5575C35.8934,60.8006,35.6024,60.9427,35.2943,60.9427z M24.0228,13.6092c-6.3535,0-11.5225,5.169-11.5225,11.5225 c0,2.1167,0.5776,4.185,1.6714,5.9814l0.6602,0.9737l20.4624,26.2299l20.5825-26.3916c1.4419-1.9653,2.2134-4.3222,2.2134-6.7934 c0-6.3535-5.17-11.5225-11.5245-11.5225c-4.4526,0-8.4267,2.5015-10.3711,6.5278c-0.1669,0.3453-0.5166,0.565-0.9003,0.565 c-0.3838,0-0.7339-0.2197-0.9004-0.565C32.4495,16.1107,28.4754,13.6092,24.0228,13.6092z" stroke="none"/>
  </g>
</svg>
