<?xml version="1.0" encoding="utf-8"?>
<!-- Generator: Adobe Illustrator 21.1.0, SVG Export Plug-In . SVG Version: 6.00 Build 0)  -->
<svg version="1.1" id="emoji" xmlns="http://www.w3.org/2000/svg" xmlns:xlink="http://www.w3.org/1999/xlink" x="0px" y="0px"
	 viewBox="0 0 72 72" enable-background="new 0 0 72 72" xml:space="preserve">
<g id="_xD83D__xDC94__1_">
	<path fill="#E37761" d="M49.6,15.6c-4.3,0-8.2,2.4-10.2,6.2L36,29.7l7,6l-6,8.4l5,6.9l-3.6,9.2l20.5-26.2c1.4-2,2.2-4.3,2.2-6.8
		C61.1,20.8,55.9,15.6,49.6,15.6z"/>
	<path fill="#CE4C3F" d="M49.3,15.6c6.4,0,11.5,5.2,11.5,11.5c0,2.1-0.6,4.2-1.7,6l-0.7,1L38.1,60.3L39,58
		C61.4,27.4,49.3,15.6,49.3,15.6z"/>
	<path fill="#E37761" d="M37.1,51L32,44l5.9-8l-7-5.9c0,0,1.6-7.5,1.5-7.9c-1.9-4-5.9-6.5-10.4-6.5c-6.4,0-11.5,5.2-11.5,11.5
		c0,2.1,0.6,4.2,1.7,6l0.7,1l20.5,26.2l0.4-0.4L37.1,51z"/>
	<path fill="none" stroke="#000000" stroke-width="2" stroke-linecap="round" stroke-linejoin="round" stroke-miterlimit="10" d="
		M49.6,15.6c-4.3,0-8.2,2.4-10.2,6.2L36,29.7l7,6l-6,8.4l5,6.9l-3.6,9.2l20.5-26.2c1.4-2,2.2-4.3,2.2-6.8
		C61.1,20.8,55.9,15.6,49.6,15.6z"/>
	<path fill="none" stroke="#000000" stroke-width="2" stroke-miterlimit="10" d="M37.1,51L32,44l5.9-8l-7-5.9c0,0,1.6-7.5,1.5-7.9
		c-1.9-4-5.9-6.5-10.4-6.5c-6.4,0-11.5,5.2-11.5,11.5c0,2.1,0.6,4.2,1.7,6l0.7,1l20.5,26.2l0.4-0.4L37.1,51z"/>
</g>
</svg>
