<svg id="emoji" xmlns="http://www.w3.org/2000/svg" viewBox="0 0 72 72">
  <g id="color">
    <path fill="#FFA7C0" d="M20.2462,28.0908c-4.5367,0-8.2276,3.6909-8.2276,8.2276c0,1.5114,0.4124,2.9883,1.1935,4.271 l0.4714,0.6953l14.6111,18.7294l14.6969-18.8448c1.0296-1.4033,1.5805-3.0863,1.5805-4.8508c0-4.5367-3.6916-8.2276-8.229-8.2276 c-3.1794,0-6.0171,1.7862-7.4054,4.6612c-0.1192,0.2466-0.3689,0.4034-0.6429,0.4034c-0.274,0-0.524-0.1569-0.6429-0.4034 C26.2633,29.877,23.4256,28.0908,20.2462,28.0908z" stroke="none"/>
    <path fill="#E67A94" d="M36.1857,28.0908c4.5367,0,8.2276,3.6909,8.2276,8.2276c0,1.5114-0.4124,2.9883-1.1935,4.271 l-0.4714,0.6953L28.1373,60.0141l-1.1187-1.4344C43.005,36.733,36.1857,28.0908,36.1857,28.0908z" stroke="none"/>
    <path fill="#FFA7C0" d="M48.3427,12.3656c-2.2328,0-4.0494,1.8165-4.0494,4.0493c0,0.7439,0.203,1.4707,0.5874,2.102l0.232,0.3422 l7.1911,9.218l7.2333-9.2748c0.5067-0.6907,0.7779-1.5189,0.7779-2.3874c0-2.2328-1.8169-4.0493-4.0501-4.0493 c-1.5648,0-2.9614,0.8791-3.6447,2.2941c-0.0587,0.1213-0.1815,0.1986-0.3164,0.1986c-0.1349,0-0.2579-0.0772-0.3164-0.1986 C51.3041,13.2447,49.9075,12.3656,48.3427,12.3656z" stroke="none"/>
    <path fill="#E67A94" d="M55.8051,12.3656c2.2328,0,4.0494,1.8165,4.0494,4.0493c0,0.7439-0.203,1.4707-0.5874,2.102l-0.232,0.3422 l-7.1911,9.218l-0.5506-0.706C59.1613,16.619,55.8051,12.3656,55.8051,12.3656z" stroke="none"/>
  </g>
  <g id="hair"/>
  <g id="skin"/>
  <g id="skin-shadow"/>
  <g id="line">
    <path fill="none" stroke="#000000" stroke-width="2" stroke-linecap="round" stroke-miterlimit="10" d="M20.6143,21.6923 C24.7178,18.4958,30.5411,16.5,37,16.5c0.6906,0,1.3739,0.0228,2.0486,0.0675"/>
    <path fill="none" stroke="#000000" stroke-width="2" stroke-linecap="round" stroke-miterlimit="10" d="M61.9199,30.2613 C62.2994,31.4626,62.5,32.7141,62.5,34c0,8.7281-9.2412,15.8734-20.9398,16.4609"/>
    <path fill="none" stroke="#000000" stroke-width="2" stroke-linecap="round" stroke-linejoin="round" stroke-miterlimit="10" d="M10.5905,36 M20.2462,27.7724c-4.5367,0-8.2276,3.6909-8.2276,8.2276c0,1.5114,0.4124,2.9883,1.1935,4.271l0.4714,0.6953 l14.6111,18.7294l14.6969-18.8448c1.0296-1.4033,1.5805-3.0863,1.5805-4.8508c0-4.5367-3.6916-8.2276-8.229-8.2276 c-3.1794,0-6.0171,1.7862-7.4054,4.6612c-0.1192,0.2466-0.3689,0.4034-0.6429,0.4034c-0.274,0-0.524-0.1569-0.6429-0.4034 C26.2633,29.5586,23.4256,27.7724,20.2462,27.7724z"/>
    <path fill="none" stroke="#000000" stroke-width="2" stroke-linecap="round" stroke-linejoin="round" stroke-miterlimit="10" d="M44.5446,19.2724 M48.3427,12.3656c-2.2328,0-4.0494,1.8165-4.0494,4.0493c0,0.7439,0.203,1.4707,0.5874,2.102l0.232,0.3422 l7.1911,9.218l7.2333-9.2748c0.5067-0.6907,0.7779-1.5189,0.7779-2.3874c0-2.2328-1.8169-4.0493-4.0501-4.0493 c-1.5648,0-2.9614,0.8791-3.6447,2.2941c-0.0587,0.1213-0.1815,0.1986-0.3164,0.1986c-0.1349,0-0.2579-0.0772-0.3164-0.1986 C51.3041,13.2447,49.9075,12.3656,48.3427,12.3656z"/>
  </g>
</svg>
