<?xml version="1.0" encoding="utf-8"?>
<!-- Generator: Adobe Illustrator 21.1.0, SVG Export Plug-In . SVG Version: 6.00 Build 0)  -->
<svg version="1.1" id="emoji" xmlns="http://www.w3.org/2000/svg" xmlns:xlink="http://www.w3.org/1999/xlink" x="0px" y="0px"
	 viewBox="0 0 72 72" enable-background="new 0 0 72 72" xml:space="preserve">
<g>
	<path fill="#FFA7C0" d="M26.3,51l8,10.3l20.6-26.4c1.4-2,2.2-4.3,2.2-6.8c0-6.4-5.2-11.5-11.5-11.5c-4.5,0-8.4,2.5-10.4,6.5
		c-0.2,0.3-0.5,0.6-0.9,0.6c-0.4,0-0.7-0.2-0.9-0.6c-1.9-4-5.9-6.5-10.4-6.5c-6.4,0-11.5,5.2-11.5,11.5c0,2.1,0.6,4.2,1.7,6l0.1,1.4
		l11.9,15.3 M25.8,50.4l0.5,0.7"/>
	<path fill="#E47A94" d="M46.2,16.6c7,0,10.7,4.9,10.7,11.4c0,2.1,0.2,4.2-1,6h0l-22,28L32,60C56.8,28.9,46.2,16.6,46.2,16.6z"/>
	<path fill="none" stroke="#010103" stroke-width="2" stroke-linecap="round" stroke-linejoin="round" stroke-miterlimit="10" d="
		M21.5,45c-3.4-4.4-7.7-9.9-7.7-9.9l-0.7-1c-1.1-1.8-1.7-3.9-1.7-6c0-6.4,5.2-11.5,11.5-11.5c4.5,0,8.4,2.5,10.4,6.5
		c0.2,0.3,0.5,0.6,0.9,0.6c0.4,0,0.7-0.2,0.9-0.6c1.9-4,5.9-6.5,10.4-6.5c6.4,0,11.5,5.2,11.5,11.5c0,2.5-0.8,4.8-2.2,6.8L34.3,61.3
		l-8-10.3"/>
	
		<line fill="none" stroke="#010103" stroke-width="2" stroke-linecap="round" stroke-linejoin="round" stroke-miterlimit="10" x1="32.5" y1="39.5" x2="19" y2="53"/>
	
		<line fill="none" stroke="#010103" stroke-width="2" stroke-linecap="round" stroke-linejoin="round" stroke-miterlimit="10" x1="61" y1="11" x2="56" y2="16"/>
	<path fill="none" stroke="#010103" stroke-width="2" stroke-linecap="round" stroke-linejoin="round" stroke-miterlimit="10" d="
		M66,66"/>
	<polyline fill="#5FB0D0" points="17.8,54.2 18.1,60.9 12.1,66.9 11.8,60.2 17.8,54.2 	"/>
	<polyline fill="#93CFE3" points="5.9,59.7 12.3,59.7 18.3,53.7 11.9,53.7 5.9,59.7 	"/>
	
		<polygon fill="none" stroke="#010103" stroke-width="2" stroke-linecap="round" stroke-linejoin="round" stroke-miterlimit="10" points="
		18.6,53.5 11.6,53.5 5.2,59.9 12.1,59.9 12.1,66.9 18.6,60.4 	"/>
	
		<polygon fill="#93CFE3" stroke="#010103" stroke-width="2" stroke-linecap="round" stroke-linejoin="round" stroke-miterlimit="10" points="
		66.2,5.6 64.9,10.5 63.7,15.3 60.1,11.7 56.5,8.1 61.3,6.9 	"/>
</g>
</svg>
