<?xml version="1.0" encoding="utf-8"?>
<!-- Generator: Adobe Illustrator 21.1.0, SVG Export Plug-In . SVG Version: 6.00 Build 0)  -->
<svg version="1.1" id="emoji" xmlns="http://www.w3.org/2000/svg" xmlns:xlink="http://www.w3.org/1999/xlink" x="0px" y="0px"
	 viewBox="0 0 72 72" enable-background="new 0 0 72 72" xml:space="preserve">
<g>
	<path fill="none" stroke="#000000" stroke-width="2" stroke-linecap="round" stroke-miterlimit="10" d="M20.6,21.7
		c4.1-3.2,9.9-5.2,16.4-5.2c0.7,0,1.4,0,2,0.1"/>
	<path fill="none" stroke="#000000" stroke-width="2" stroke-linecap="round" stroke-miterlimit="10" d="M61.9,30.3
		c0.4,1.2,0.6,2.5,0.6,3.7c0,8.7-9.2,15.9-20.9,16.5"/>
	<path fill="#FFA7C0" d="M20.2,28.1c-4.5,0-8.2,3.7-8.2,8.2c0,1.5,0.4,3,1.2,4.3l0.5,0.7L28.3,60L43,41.2c1-1.4,1.6-3.1,1.6-4.9
		c0-4.5-3.7-8.2-8.2-8.2c-3.2,0-6,1.8-7.4,4.7c-0.1,0.2-0.4,0.4-0.6,0.4c-0.3,0-0.5-0.2-0.6-0.4C26.3,29.9,23.4,28.1,20.2,28.1z"/>
	<path fill="#E67A94" d="M36.2,28.1c4.5,0,8.2,3.7,8.2,8.2c0,1.5-0.4,3-1.2,4.3l-0.5,0.7L28.1,60L27,58.6
		C43,36.7,36.2,28.1,36.2,28.1z"/>
	<path fill="#FFA7C0" d="M48.3,12.4c-2.2,0-4,1.8-4,4c0,0.7,0.2,1.5,0.6,2.1l0.2,0.3l7.2,9.2l7.2-9.3c0.5-0.7,0.8-1.5,0.8-2.4
		c0-2.2-1.8-4-4.1-4c-1.6,0-3,0.9-3.6,2.3c-0.1,0.1-0.2,0.2-0.3,0.2c-0.1,0-0.3-0.1-0.3-0.2C51.3,13.2,49.9,12.4,48.3,12.4z"/>
	<path fill="#E67A94" d="M55.8,12.4c2.2,0,4,1.8,4,4c0,0.7-0.2,1.5-0.6,2.1L59,18.9l-7.2,9.2l-0.6-0.7
		C59.2,16.6,55.8,12.4,55.8,12.4z"/>
	<path fill="none" stroke="#070707" stroke-width="2" stroke-linecap="round" stroke-linejoin="round" stroke-miterlimit="10" d="
		M10.6,36 M20.2,27.8c-4.5,0-8.2,3.7-8.2,8.2c0,1.5,0.4,3,1.2,4.3l0.5,0.7l14.6,18.7L43,40.9c1-1.4,1.6-3.1,1.6-4.9
		c0-4.5-3.7-8.2-8.2-8.2c-3.2,0-6,1.8-7.4,4.7c-0.1,0.2-0.4,0.4-0.6,0.4c-0.3,0-0.5-0.2-0.6-0.4C26.3,29.6,23.4,27.8,20.2,27.8z"/>
	<path fill="none" stroke="#070707" stroke-width="2" stroke-linecap="round" stroke-linejoin="round" stroke-miterlimit="10" d="
		M44.5,19.3 M48.3,12.4c-2.2,0-4,1.8-4,4c0,0.7,0.2,1.5,0.6,2.1l0.2,0.3l7.2,9.2l7.2-9.3c0.5-0.7,0.8-1.5,0.8-2.4c0-2.2-1.8-4-4.1-4
		c-1.6,0-3,0.9-3.6,2.3c-0.1,0.1-0.2,0.2-0.3,0.2c-0.1,0-0.3-0.1-0.3-0.2C51.3,13.2,49.9,12.4,48.3,12.4z"/>
</g>
</svg>
