<svg id="emoji" xmlns="http://www.w3.org/2000/svg" viewBox="0 0 72 72">
  <g id="color">
    <path fill="#E67A94" d="M24.7156,17c-6.5266,0-11.8365,5.3099-11.8365,11.8365c0,2.1744,0.5933,4.2991,1.717,6.1444l0.6782,1.0002 l21.0201,26.9447l21.1434-27.1108c1.4812-2.0189,2.2737-4.44,2.2737-6.9785C59.7114,22.3099,54.4005,17,47.8728,17 c-4.5739,0-8.6563,2.5697-10.6537,6.7057c-0.1714,0.3547-0.5307,0.5804-0.9248,0.5804c-0.3943,0-0.7539-0.2257-0.9249-0.5804 C33.3719,19.5697,29.2895,17,24.7156,17z" stroke="none"/>
    <path fill="#fcea2b" d="M26.676,43.3048c0.1049,0.5815,0.6677,1.0558,1.421,1.1981l8.5987,1.6246 c0.4027,0.0761,0.4073,0.5078,0.0046,0.5839c-2.282,0.4312-6.5127,1.2304-8.6081,1.6263c-0.7533,0.1423-1.3112,0.616-1.4161,1.1974 l-2.2795,12.6334c-0.0627,0.3475-0.7275,0.3475-0.7902,0l-2.2795-12.6332c-0.1049-0.5815-0.6629-1.0552-1.4163-1.1975 c-2.0955-0.3957-6.3263-1.195-8.6084-1.6262c-0.4027-0.0761-0.4027-0.5069,0-0.583c2.2823-0.4312,6.5133-1.2306,8.6086-1.6267 c0.7532-0.1423,0.8465-0.8247,0.9514-1.4061l1.7931-10.1776c0.0627-0.3475,1.6784-2.5957,1.741-2.2481 C25.1058,34.6022,26.5356,42.5265,26.676,43.3048z" stroke="none"/>
    <path fill="#f1b31c" d="M23.8372,62.1686l1.7746-11.1247c-1.9242-3.3355-3.3469-6.7963-4.2428-9.2606l-0.2443,1.5312 c-0.0927,0.5811-0.5856,1.0544-1.2512,1.1968c-1.8515,0.3958-5.5901,1.1948-7.6067,1.6259c-0.3558,0.076-0.3558,0.5066,0,0.5827 c2.0165,0.431,5.7549,1.2298,7.6064,1.6253c0.6657,0.1423,1.1588,0.6157,1.2515,1.1969l2.0142,12.6267 C23.1944,62.516,23.7819,62.516,23.8372,62.1686z" stroke="none"/>
    <path fill="#fcea2b" d="M52.8824,24.9358c0.0862,0.4637,0.5487,0.8419,1.1677,0.9554l7.0663,1.2955 c0.3309,0.0607,0.3347,0.4049,0.0038,0.4656c-1.8753,0.3438-5.352,0.9812-7.074,1.2969c-0.619,0.1135-1.0775,0.4912-1.1637,0.9548 l-1.8733,10.0742c-0.0515,0.2771-0.5978,0.2771-0.6494,0l-1.8733-10.074c-0.0862-0.4637-0.5448-0.8414-1.1639-0.9549 c-1.722-0.3156-5.1988-0.9529-7.0743-1.2967c-0.3309-0.0607-0.3309-0.4042,0-0.4649c1.8755-0.3438,5.3525-0.9813,7.0745-1.2972 c0.619-0.1135,0.6956-0.6577,0.7818-1.1213l1.4736-8.1159c0.0515-0.2771,1.3793-2.0699,1.4308-1.7927 C51.592,17.9961,52.767,24.3151,52.8824,24.9358z" stroke="none"/>
    <path fill="#f1b31c" d="M51.0748,39.9782l1.2105-8.8711c-1.3126-2.6598-2.2831-5.4195-2.8942-7.3846l-0.1666,1.221 c-0.0633,0.4634-0.3994,0.8408-0.8535,0.9543c-1.263,0.3156-3.8133,0.9528-5.1889,1.2965c-0.2427,0.0606-0.2427,0.404,0,0.4647 c1.3756,0.3437,3.9257,0.9807,5.1887,1.2961c0.4541,0.1134,0.7904,0.491,0.8537,0.9544l1.374,10.0688 C50.6363,40.2552,51.037,40.2552,51.0748,39.9782z" stroke="none"/>
  </g>
  <g id="hair"/>
  <g id="skin"/>
  <g id="skin-shadow"/>
  <g id="line">
    <path fill="none" stroke="#000000" stroke-width="0.1841" stroke-linecap="round" stroke-linejoin="round" stroke-miterlimit="10" d="M23.0568,35.6316"/>
    <path fill="none" stroke="#000000" stroke-width="2" stroke-linecap="round" stroke-linejoin="round" stroke-miterlimit="10" d="M22.5556,37.4499l1.5469-8.0604l0.5052,3.0162c0.081,0.4824,1.6827,10.0429,1.6827,10.0429 c0.1889,1.1269,1.1869,2.0334,2.5426,2.3092L37,46.4198l-8.1728,1.663c-1.3523,0.2752-2.3482,1.1812-2.5369,2.3084l-2.1876,13.0587 l-2.1876-13.0582c-0.1889-1.1272-1.1848-2.0333-2.5372-2.3085l-8.173-1.6629l8.1735-1.6634 c1.352-0.2753,2.2663-1.8467,2.455-2.9736"/>
    <path fill="none" stroke="#000000" stroke-width="2" stroke-linecap="round" stroke-linejoin="round" stroke-miterlimit="10" d="M49.8482,20.267l1.2335-6.4275l0.4029,2.4052c0.0646,0.3847,1.3418,8.0084,1.3418,8.0084 c0.1506,0.8986,0.9465,1.6215,2.0275,1.8414l6.5126,1.3253l-6.5171,1.3261c-1.0783,0.2194-1.8725,0.9419-2.023,1.8408L51.0819,41 l-1.7445-10.4129c-0.1506-0.8988-0.9448-1.6214-2.0232-1.8409l-6.5174-1.326l6.5177-1.3264 c1.0781-0.2195,1.8072-1.4726,1.9577-2.3712"/>
    <path fill="none" stroke="#000000" stroke-width="2" stroke-linecap="round" stroke-linejoin="round" stroke-miterlimit="10" d="M46.3203,17.6751c-3.9386,0.4194-7.3646,2.8152-9.1257,6.4619c-0.1669,0.3453-0.5166,0.565-0.9003,0.565 c-0.3838,0-0.7339-0.2197-0.9004-0.565c-1.9444-4.0263-5.9185-6.5278-10.3711-6.5278c-6.3535,0-11.5225,5.169-11.5225,11.5225 c0,2.1167,0.5776,4.185,1.6714,5.9814l0.6602,0.9737l1.6832,2.1576 M29.517,53.6291l6.7773,8.6876l20.5825-26.3916 c0.8796-1.1989,1.5097-2.5434,1.8674-3.9708 M29.2582,53.2974l0.2588,0.3317 M29.2582,53.2974 M21.7132,43.6258 M17.5151,38.2444 l0.6467,0.829"/>
  </g>
</svg>
