<svg id="emoji" xmlns="http://www.w3.org/2000/svg" viewBox="0 0 72 72">
  <g id="color">
    <rect x="11" y="11" fill="#b399c8" stroke="none" stroke-width="2" stroke-linecap="round" stroke-linejoin="round" stroke-miterlimit="10" width="50" height="50"/>
    <polygon fill="#8967AA" points="29.8941,59.9335 59.8939,60.066 60.1059,12.0665 45.8955,12.0037" stroke="none"/>
    <path fill="#FFFFFF" stroke="none" stroke-width="2" stroke-linecap="round" stroke-linejoin="round" stroke-miterlimit="10" d="M20.2952,30.9414 M28.8602,23.6432c-4.0242,0-7.2982,3.274-7.2982,7.2982c0,1.3407,0.3658,2.6507,1.0586,3.7885l0.4182,0.6167 l12.9606,16.6136l13.0366-16.716c0.9133-1.2448,1.4019-2.7376,1.4019-4.3028c0-4.0242-3.2746-7.2982-7.2994-7.2982 c-2.8202,0-5.3373,1.5844-6.5689,4.1346c-0.1057,0.2187-0.3272,0.3579-0.5702,0.3579c-0.2431,0-0.4648-0.1392-0.5703-0.3579 C34.1975,25.2276,31.6804,23.6432,28.8602,23.6432z"/>
    <path fill="#FFFFFF" stroke="none" stroke-width="2" stroke-linecap="round" stroke-linejoin="round" stroke-miterlimit="10" d="M28.8602,23.6432c-4.0242,0-7.2982,3.274-7.2982,7.2982c0,1.3407,0.3658,2.6507,1.0586,3.7885l13.3787,17.2304l13.0366-16.716 c0.9133-1.2448,1.4019-2.7376,1.4019-4.3028c0-4.0242-3.2746-7.2982-7.2994-7.2982c-2.8202,0-5.3373,1.5844-6.5689,4.1346 c-0.1057,0.2187-0.3272,0.3579-0.5702,0.3579c-0.2431,0-0.4648-0.1392-0.5703-0.3579 C34.1975,25.2276,31.6804,23.6432,28.8602,23.6432z"/>
    <path fill="#FFFFFF" stroke="none" stroke-width="2" stroke-linecap="round" stroke-linejoin="round" stroke-miterlimit="10" d="M22.6207,34.7299"/>
  </g>
  <g id="hair"/>
  <g id="skin"/>
  <g id="skin-shadow"/>
  <g id="line">
    <rect x="11" y="11" fill="none" stroke="#000000" stroke-width="2" stroke-linecap="round" stroke-linejoin="round" stroke-miterlimit="10" width="50" height="50"/>
    <path fill="none" stroke="#000000" stroke-width="2" stroke-linecap="round" stroke-linejoin="round" stroke-miterlimit="10" d="M20.2952,30.9414 M28.8602,23.6432c-4.0242,0-7.2982,3.274-7.2982,7.2982c0,1.3407,0.3658,2.6507,1.0586,3.7885l0.4182,0.6167 l12.9606,16.6136l13.0366-16.716c0.9133-1.2448,1.4019-2.7376,1.4019-4.3028c0-4.0242-3.2746-7.2982-7.2994-7.2982 c-2.8202,0-5.3373,1.5844-6.5689,4.1346c-0.1057,0.2187-0.3272,0.3579-0.5702,0.3579c-0.2431,0-0.4648-0.1392-0.5703-0.3579 C34.1975,25.2276,31.6804,23.6432,28.8602,23.6432z"/>
    <path fill="none" stroke="#000000" stroke-width="2" stroke-linecap="round" stroke-linejoin="round" stroke-miterlimit="10" d="M28.8602,23.6432c-4.0242,0-7.2982,3.274-7.2982,7.2982c0,1.3407,0.3658,2.6507,1.0586,3.7885l13.3787,17.2304l13.0366-16.716 c0.9133-1.2448,1.4019-2.7376,1.4019-4.3028c0-4.0242-3.2746-7.2982-7.2994-7.2982c-2.8202,0-5.3373,1.5844-6.5689,4.1346 c-0.1057,0.2187-0.3272,0.3579-0.5702,0.3579c-0.2431,0-0.4648-0.1392-0.5703-0.3579 C34.1975,25.2276,31.6804,23.6432,28.8602,23.6432z"/>
    <path fill="none" stroke="#000000" stroke-width="2" stroke-linecap="round" stroke-linejoin="round" stroke-miterlimit="10" d="M22.6207,34.7299"/>
  </g>
</svg>
