<svg id="emoji" viewBox="0 0 72 72" version="1.1" xmlns="http://www.w3.org/2000/svg">
  <g id="color">
    <path fill="#ea5a47" d="m60.5 25c0-7.444-6.056-13.5-13.5-13.5-4.403 0-8.484 2.138-11 5.672-2.516-3.535-6.596-5.672-11-5.672-7.444 0-13.5 6.056-13.5 13.5 0 2.728 0.8403 5.408 2.383 7.65l-0.0347 0.0273 20.87 25.86h2.571l20.23-25.07 0.668-0.8369-0.0352-0.0244c1.524-2.233 2.354-4.897 2.354-7.609z"/>
    <path fill="#fcea2b" d="m26.68 38.3c0.1049 0.5815 0.6677 1.056 1.421 1.198l10.15 1.917c-0.0372 0.0074-7.204 1.361-10.15 1.918-0.7533 0.1423-1.311 0.616-1.416 1.197l-2.574 8.429-2.776-8.429c-0.1049-0.5815-0.6629-1.055-1.416-1.198-2.954-0.5578-5.16-1.918-5.16-1.918-1e-4 0 2.207-1.359 5.161-1.918 0.7532-0.1423 0.8465-0.8247 0.9514-1.406l1.793-10.18c0.0627-0.3475 1.678-2.596 1.741-2.248 0.7095 3.932 2.139 11.86 2.28 12.63z"/>
    <path fill="#f1b31c" d="m24.59 53.92 1.025-7.875c-1.924-3.336-3.347-6.796-4.243-9.261l-0.2443 1.531c-0.0927 0.5811-0.5856 1.054-1.251 1.197-2.552 0.8623-4.506 1.978-4.591 1.996 0.0813 0.0177 1.972 0.6926 4.591 1.838 0.6657 0.1423 1.159 0.6157 1.252 1.197l2.764 9.377c0.0555 0.3472 0.643 0.3472 0.6983-2e-4z"/>
    <path fill="#fcea2b" d="m51.8824,18.9358c.0862.4637.5487.8419,1.1677.9554l7.0663,1.2955c.3309.0607.3347.4049.0038.4656-1.8753.3438-5.352.9812-7.074,1.2969-.619.1135-1.0775.4912-1.1637.9548l-1.8733,10.0742c-.0515.2771-.5978.2771-.6494,0l-1.8733-10.074c-.0862-.4637-.5448-.8414-1.1639-.9549-1.722-.3156-5.1988-.9529-7.0743-1.2967-.3309-.0607-.3309-.4042,0-.4649,1.8755-.3438,5.3525-.9813,7.0745-1.2972.619-.1135.6956-.6577.7818-1.1213l2.2236-8.1159c.0515-.2771.6293-2.0699.6808-1.7927.583,3.1355,1.758,9.4545,1.8734,10.0752Z"/>
    <path fill="#f1b31c" d="m50.0748,33.9782l1.2105-8.8711c-1.3126-2.6598-2.2831-5.4195-2.8942-7.3846l-.1666,1.221c-.0633.4634-.3994.8408-.8535.9543-1.263.3156-3.8133.9528-5.1889,1.2965-.2427.0606-.2427.404,0,.4647,1.3756.3437,3.9257.9807,5.1887,1.2961.4541.1134.7904.491.8537.9544l1.374,10.0688c.0378.2769.4385.2769.4763,0Z"/>
  </g>
  <g id="line" fill="none" stroke="#000" stroke-linecap="round" stroke-linejoin="round" stroke-width="2">
    <g>
      <path d="m29.15 50.05 6.85 8.489 20.73-25.7-0.0043-0.0034c1.73-2.145 2.77-4.869 2.77-7.839"/>
      <path d="m45.25 12.62c-4.004 0.5613-7.4 3.02-9.249 6.438-2.114-3.906-6.247-6.56-11-6.56-6.904 0-12.5 5.596-12.5 12.5 0 2.97 1.04 5.694 2.77 7.839l-0.0043 0.0034 2.16 2.678"/>
    </g>
    <path d="m22.56 32.45 1.547-8.06 0.5052 3.016c0.081 0.4824 1.683 10.04 1.683 10.04 0.1889 1.127 1.187 2.033 2.543 2.309l8.167 1.662-8.173 1.663c-1.352 0.2752-2.348 1.181-2.537 2.308l-2.188 13.06-2.188-13.06c-0.1889-1.127-1.185-2.033-2.537-2.308l-8.173-1.663 8.174-1.663c1.352-0.2753 2.266-1.847 2.455-2.974"/>
    <path d="m48.85 14.27 1.234-6.428 0.4029 2.405c0.0646 0.3847 1.342 8.008 1.342 8.008 0.1506 0.8986 0.9465 1.622 2.028 1.841l6.263 1.325-6.267 1.326c-1.078 0.2194-1.872 0.9419-2.023 1.841l-1.744 10.41-1.744-10.41c-0.1506-0.8988-0.9448-1.621-2.023-1.841l-6.517-1.326 6.518-1.326c1.078-0.2195 1.807-1.473 1.958-2.371"/>
  </g>
</svg>
