<?xml version="1.0" encoding="utf-8"?>
<!-- Generator: Adobe Illustrator 21.1.0, SVG Export Plug-In . SVG Version: 6.00 Build 0)  -->
<svg version="1.1" id="emoji" xmlns="http://www.w3.org/2000/svg" xmlns:xlink="http://www.w3.org/1999/xlink" x="0px" y="0px"
	 viewBox="0 0 72 72" enable-background="new 0 0 72 72" xml:space="preserve">
<g id="_xD83D__xDC97__1_">
	
		<path fill="none" stroke="#000000" stroke-width="0.1841" stroke-linecap="round" stroke-linejoin="round" stroke-miterlimit="10" d="
		M14.1,32.6"/>
	<path fill="#FFA7C0" d="M23.7,13c-6.5,0-11.8,5.3-11.8,11.8c0,2.2,0.6,4.3,1.7,6.1l0.7,1l21,26.9l21.1-27.1c1.5-2,2.3-4.4,2.3-7
		c0-6.5-5.3-11.8-11.8-11.8c-4.6,0-8.7,2.6-10.7,6.7c-0.2,0.4-0.5,0.6-0.9,0.6c-0.4,0-0.8-0.2-0.9-0.6C32.4,15.6,28.3,13,23.7,13z"
		/>
	<path fill="#E67A94" d="M25.1,18c-5.8,0-10.5,4.9-10.5,10.8c0,2,0.5,3.9,1.5,5.6l0.6,0.9L35.3,60L54,35.2c1.3-1.8,2-4.1,2-6.4
		c0-6-4.7-10.8-10.5-10.8c-4,0-7.7,2.4-9.4,6.1c-0.2,0.3-0.5,0.5-0.8,0.5c-0.3,0-0.7-0.2-0.8-0.5C32.7,20.4,29.1,18,25.1,18z"/>
	<path fill="#FFA7C0" d="M27,23c-4.7,0-8.4,4.3-8.4,9.5c0,1.8,0.4,3.5,1.2,5l0.5,0.8l15,21.7l15.1-21.8c1.1-1.6,1.6-3.6,1.6-5.6
		c0-5.3-3.8-9.5-8.4-9.5c-3.3,0-6.2,2.1-7.6,5.4c-0.1,0.3-0.4,0.5-0.7,0.5c-0.3,0-0.5-0.2-0.7-0.5C33.2,25.1,30.3,23,27,23z"/>
	<path fill="#E67A94" d="M28,27c-4.1,0-7.4,3.8-7.4,8.5c0,1.6,0.4,3.1,1.1,4.4l0.4,0.7l13.2,19.3l13.3-19.4c0.9-1.4,1.4-3.2,1.4-5
		c0-4.7-3.3-8.5-7.4-8.5c-2.9,0-5.4,1.8-6.7,4.8c-0.1,0.3-0.3,0.4-0.6,0.4c-0.2,0-0.5-0.2-0.6-0.4C33.5,28.8,30.9,27,28,27z"/>
	<path fill="#010103" d="M35.3,60.9c-0.3,0-0.6-0.1-0.8-0.4L13.2,33.3l-0.7-1.1c-1.3-2.2-2-4.6-2-7.1c0-7.5,6.1-13.5,13.5-13.5
		c4.6,0,8.8,2.3,11.3,6.1c2.5-3.8,6.7-6.1,11.3-6.1c7.5,0,13.5,6.1,13.5,13.5c0,2.9-0.9,5.7-2.6,8L36.1,60.6
		C35.9,60.8,35.6,60.9,35.3,60.9z M24,13.6c-6.4,0-11.5,5.2-11.5,11.5c0,2.1,0.6,4.2,1.7,6l0.7,1l20.5,26.2l20.6-26.4
		c1.4-2,2.2-4.3,2.2-6.8c0-6.4-5.2-11.5-11.5-11.5c-4.5,0-8.4,2.5-10.4,6.5c-0.2,0.3-0.5,0.6-0.9,0.6c-0.4,0-0.7-0.2-0.9-0.6
		C32.4,16.1,28.5,13.6,24,13.6z"/>
</g>
</svg>
