<svg id="emoji" xmlns="http://www.w3.org/2000/svg" viewBox="0 0 72 72">
  <g id="color">
    <path fill="#FFFFFF" d="M48.4066,51.7733c-2.2056,0-4,1.7939-4,4c0,2.206,1.7944,4,4,4c2.2055,0,4-1.794,4-4 C52.4066,53.5672,50.6121,51.7733,48.4066,51.7733z" stroke="none"/>
    <path fill="#FFFFFF" d="M57.5311,61.5057c-0.6255,0-1.1348,0.5088-1.1348,1.1348c0,0.6259,0.5093,1.1347,1.1348,1.1347 s1.1347-0.5088,1.1347-1.1347C58.6658,62.0145,58.1566,61.5057,57.5311,61.5057z" stroke="none"/>
    <path fill="#FFFFFF" d="M60.4045,28.6967c-0.5837-5.4919-5.5089-9.4708-11.0008-8.8872c-0.881,0.0936-1.7173,0.3098-2.5079,0.6113 C45.4884,12.7849,38.4244,7.4003,30.575,8.2344c-6.7054,0.7126-11.9056,5.7405-13.1367,12.0291 c-0.3856-0.0038-0.7741,0.0084-1.1669,0.0501c-5.4919,0.5836-9.4709,5.5088-8.8872,11.0008 c0.3337,3.1409,2.0908,5.7819,4.5585,7.3626c-0.0659,0.8881-0.066,1.7917,0.0314,2.7087 c0.8755,8.2379,8.2633,14.2063,16.5012,13.3309c3.5776-0.3802,6.7247-1.991,9.0716-4.3639 c0.8268,0.6583,1.7573,2.187,2.7583,2.5587c5.4509,1.263,10.61-0.9425,13.1023-5.3335c1.0418-1.7793,0.5444-3.8953,0.3098-6.103 c-0.0786-0.7397-0.2418-1.449-0.4687-2.1264C57.8173,38.0261,60.9246,33.5909,60.4045,28.6967z" stroke="none"/>
    <path fill="#FFFFFF" d="M48.4066,51.7733c-2.2056,0-4,1.7939-4,4c0,2.206,1.7944,4,4,4c2.2055,0,4-1.794,4-4 C52.4066,53.5672,50.6121,51.7733,48.4066,51.7733z" stroke="none"/>
    <path fill="#FFFFFF" d="M57.5311,61.5057c-0.6255,0-1.1348,0.5088-1.1348,1.1348c0,0.6259,0.5093,1.1347,1.1348,1.1347 s1.1347-0.5088,1.1347-1.1347C58.6658,62.0145,58.1566,61.5057,57.5311,61.5057z" stroke="none"/>
  </g>
  <g id="hair"/>
  <g id="skin"/>
  <g id="skin-shadow"/>
  <g id="line">
    <path fill="none" stroke="#000000" stroke-width="2" stroke-linecap="round" stroke-linejoin="round" stroke-miterlimit="10" d="M40.8185,52.0863"/>
    <path fill="#000000" d="M48.4066,61.7733c-3.3086,0-6-2.6914-6-6s2.6914-6,6-6c3.3086,0,6,2.6914,6,6 S51.7152,61.7733,48.4066,61.7733z M48.4066,51.7733c-2.2056,0-4,1.7939-4,4c0,2.206,1.7944,4,4,4c2.2055,0,4-1.794,4-4 C52.4066,53.5672,50.6121,51.7733,48.4066,51.7733z" stroke="none"/>
    <path fill="#000000" d="M57.5311,65.7752c-1.7285,0-3.1348-1.4062-3.1348-3.1347c0-1.7285,1.4063-3.1348,3.1348-3.1348 c1.7285,0,3.1347,1.4063,3.1347,3.1348C60.6658,64.369,59.2596,65.7752,57.5311,65.7752z M57.5311,61.5057 c-0.6255,0-1.1348,0.5088-1.1348,1.1348c0,0.6259,0.5093,1.1347,1.1348,1.1347s1.1347-0.5088,1.1347-1.1347 C58.6658,62.0145,58.1566,61.5057,57.5311,61.5057z" stroke="none"/>
    <path fill="none" stroke="#000000" stroke-width="2" stroke-linecap="round" stroke-linejoin="round" stroke-miterlimit="10" d="M40.8185,52.0863"/>
    <path fill="none" stroke="#000000" stroke-width="2" stroke-linecap="round" stroke-linejoin="round" stroke-miterlimit="10" d="M52.4075,47.578c1.0418-1.7793,1.5444-3.8954,1.3098-6.103c-0.0786-0.7397-0.2418-1.449-0.4687-2.1264 c4.5686-1.3225,7.6759-5.7577,7.1558-10.6518c-0.5836-5.492-5.5088-9.4709-11.0008-8.8872 c-0.881,0.0936-1.7173,0.3098-2.5079,0.6113C45.4884,12.785,38.4244,7.4003,30.575,8.2345 c-6.7055,0.7126-11.9056,5.7405-13.1367,12.0291c-0.3856-0.0038-0.7741,0.0084-1.1669,0.0501 c-5.4919,0.5836-9.4709,5.5088-8.8872,11.0008c0.3338,3.1409,2.0908,5.7819,4.5585,7.3627 c-0.0658,0.8881-0.066,1.7917,0.0315,2.7087c0.8755,8.2379,8.2633,14.2063,16.5012,13.3309 c3.5776-0.3802,6.7247-1.991,9.0716-4.3639c0.8269,0.6584,1.7573,1.187,2.7583,1.5587"/>
  </g>
</svg>
