<?xml version="1.0" encoding="utf-8"?>
<!-- Generator: Adobe Illustrator 21.1.0, SVG Export Plug-In . SVG Version: 6.00 Build 0)  -->
<svg version="1.1" id="emoji" xmlns="http://www.w3.org/2000/svg" xmlns:xlink="http://www.w3.org/1999/xlink" x="0px" y="0px"
	 viewBox="0 0 72 72" enable-background="new 0 0 72 72" xml:space="preserve">
<g id="_xD83D__xDCA5__1_">
	<path fill="#FEE235" d="M45.2,42l12.4-2.6l-13.9-3.4c-0.4-0.1-0.7-0.4-0.7-0.8c-0.1-0.4,0.1-0.8,0.4-1l7.4-5.2l-9.6,2.3
		c-0.3,0.1-0.7,0-0.9-0.3c-0.2-0.2-0.4-0.6-0.3-0.9l3.1-14l-6.6,10.1c-1.3-1.4-2.8-3.8-3-4.1L26.6,9.4c-0.2-0.4-0.7-0.6-1.2-0.5
		c-0.5,0.2-0.7,0.6-0.7,1.1l2.5,15.9l-10-5.7c-0.4-0.2-0.9-0.1-1.2,0.2c-0.3,0.4-0.3,0.9-0.1,1.3l7.3,10L10.6,34
		c-0.5,0.1-0.8,0.5-0.8,0.9c0,0.5,0.3,0.9,0.7,1l13.4,3.7L16,46.8c-0.4,0.3-0.4,0.9-0.2,1.3c0.2,0.3,0.5,0.5,0.9,0.5
		c0.1,0,0.2,0,0.4-0.1l11.6-4.3c-0.1,1.9-0.1,3.5-0.1,3.7l2.8,10.7l6.3-14.2c0.2-0.3,0.5-0.6,0.8-0.6c0.4,0,0.7,0.2,0.9,0.5l6.1,9.8
		L44.4,43C44.4,42.5,44.7,42.1,45.2,42z"/>
	<path fill="#020203" d="M30.6,63.6c-0.1,0-0.1,0-0.2,0c-0.5-0.1-0.8-0.5-0.8-0.9l-1.1-15.1c0-0.6,0.4-1,0.9-1.1
		c0.6,0,1,0.4,1.1,0.9l0.8,11.1l6.3-14.2c0.2-0.3,0.5-0.6,0.8-0.6c0.4,0,0.7,0.2,0.9,0.5l6.1,9.8L44.4,43c0-0.5,0.3-1,0.8-1.1
		l12.4-2.6l-13.9-3.4c-0.4-0.1-0.7-0.4-0.7-0.8c-0.1-0.4,0.1-0.8,0.4-1l7.4-5.2l-9.6,2.3c-0.3,0.1-0.7,0-0.9-0.3
		c-0.2-0.2-0.4-0.6-0.3-0.9l3.1-14l-7.3,11.2c-0.3,0.5-0.9,0.6-1.4,0.3c-0.5-0.3-0.6-0.9-0.3-1.4l10.3-15.8c0.3-0.4,0.8-0.6,1.2-0.4
		c0.4,0.2,0.7,0.7,0.6,1.1L42.3,29l13.2-3.2c0.5-0.1,0.9,0.1,1.1,0.6c0.2,0.4,0.1,1-0.3,1.2l-10,7l16,3.9c0.5,0.1,0.8,0.5,0.8,1
		c0,0.5-0.3,0.9-0.8,1l-15.8,3.4l1.2,14.3c0,0.5-0.2,0.9-0.7,1c-0.4,0.1-0.9,0-1.2-0.4L38.6,47L31.5,63
		C31.3,63.4,30.9,63.6,30.6,63.6z"/>
	<path fill="#020203" d="M16.6,48.5c-0.3,0-0.7-0.2-0.9-0.5c-0.3-0.4-0.2-0.9,0.2-1.3l7.9-7.2l-13.4-3.7c-0.5-0.1-0.8-0.5-0.7-1
		c0-0.5,0.4-0.9,0.8-0.9l12.7-2.3l-7.3-10c-0.3-0.4-0.3-0.9,0.1-1.3c0.3-0.4,0.8-0.4,1.2-0.2l10,5.7L24.7,10
		c-0.1-0.5,0.2-0.9,0.7-1.1c0.5-0.2,1,0,1.2,0.5l6.9,12.7c0.3,0.5,0.1,1.1-0.4,1.4c-0.5,0.3-1.1,0.1-1.4-0.4l-4.1-7.6l1.9,12.2
		c0.1,0.4-0.1,0.8-0.4,1c-0.3,0.2-0.7,0.2-1.1,0l-7.8-4.4l5.5,7.6c0.2,0.3,0.2,0.6,0.1,1c-0.1,0.3-0.4,0.6-0.8,0.6l-9.9,1.8l10.9,3
		c0.4,0.1,0.6,0.4,0.7,0.7c0.1,0.4,0,0.7-0.3,1l-5.3,4.9l7.6-2.9c0.5-0.2,1.1,0.1,1.3,0.6c0.2,0.5-0.1,1.1-0.6,1.3L17,48.5
		C16.9,48.5,16.7,48.5,16.6,48.5z"/>
</g>
</svg>
