<?xml version="1.0" encoding="utf-8"?>
<!-- Generator: Adobe Illustrator 21.1.0, SVG Export Plug-In . SVG Version: 6.00 Build 0)  -->
<svg version="1.1" id="emoji" xmlns="http://www.w3.org/2000/svg" xmlns:xlink="http://www.w3.org/1999/xlink" x="0px" y="0px"
	 viewBox="0 0 72 72" enable-background="new 0 0 72 72" xml:space="preserve">
<g id="_xD83D__xDCAA_">
	<path fill="#FCEA2B" d="M63.1,54.2c-11,9.4-26.4,11.7-46.4,11.6c0,0-3.7,1.1-4.6-3.6c0,0-0.8-20.9,3.8-35.5c0,0-0.2-6,0-9.9
		c0-0.7,0.3-1.3,0.8-1.8c5.8-5.3,8.3-6.1,8.3-6.1l8.4-1.5c1.3,0.9,4.2,4.2,3.8,10l0.1-0.4l3.2,0.9c1.1,0.3,1.9,1.5,1.8,2.7
		c0,1.2-2.8,2-2.8,2C33.5,24,33.5,24,33.5,24c-1.8,2.9-5.6,3.2-7.3,3.1c-0.1-0.2-0.6,0-0.2,0c0.6,1.5,1.3,5.1,1.9,11.8l0.2,1.9
		c0,0.5,0.3,4.7,0.4,7.5c1.8-4.4,6.6-12.6,15.7-13.8c13.5-1.9,20.2,8.5,20.2,8.5s0.2,0.3,0.5,0.8C67,47.1,66.2,51.5,63.1,54.2z"/>
	<path fill="#FCEA2B" d="M26.5,26.8c-0.4,0-0.7-0.1-0.9-0.1l0.6-0.5C26.3,26.4,26.4,26.6,26.5,26.8z"/>
	<path fill="#FCEA2B" d="M26.5,26.8c-0.4,0-0.7-0.1-0.9-0.1l0.6-0.5C26.3,26.4,26.4,26.6,26.5,26.8z"/>
	<path fill="#F1B31C" d="M21.9,26.2c0,0,5.3-5,1.6-6.4l12.8-0.4l0.7-1.1l0.2-1.8c1.1,0.2,3.4,0.9,3.6,1c0,0,2.4,1.9,0.4,4.1
		l-7.8,2.2C33.5,23.8,28.8,27.6,21.9,26.2z"/>
	<path fill="#F1B31C" d="M21.9,26.2c0.8,9.2,2.6,25.6,2.1,27.7c0,0.7,0.7,0.8,1,0.3c0.8-0.7,2.8-2.6,3.8-5.2
		c0-5.8-0.7-12.5-2.2-22.3C26,25.2,23.7,25.2,21.9,26.2z"/>
	<path fill="#F1B31C" d="M48.2,34.1c0,0,10.2,7,3.1,16.4c0,0,2.1,8.5,0.2,9.9c-2,1.3,20.6-5.5,12.1-18.6
		C63.6,41.8,58.4,34.2,48.2,34.1z"/>
	<path fill="none" stroke="#1D1D1B" stroke-width="2" stroke-linecap="round" stroke-linejoin="round" stroke-miterlimit="10" d="
		M27.5,40.6c-0.4-4.3-1.1-12.7-2-13.8c0,0,5.2,1.1,7.8-3"/>
	<path fill="none" stroke="#1D1D1B" stroke-width="2" stroke-linecap="round" stroke-linejoin="round" stroke-miterlimit="10" d="
		M34.5,53.1c0,0,10.8,2.7,19.3-4.3"/>
	<path fill="none" stroke="#1D1D1B" stroke-width="2" stroke-linecap="round" stroke-linejoin="round" stroke-miterlimit="10" d="
		M27.7,50.6c0,0,2.9-14.5,16.4-16.4s20.2,8.5,20.2,8.5s0.2,0.3,0.5,0.8c2.1,3.5,1.3,7.9-1.8,10.6c-11,9.5-26.4,11.7-46.5,11.6
		c0,0-3.8,1.1-4.6-3.6c0,0-0.8-20.9,3.8-35.6c0,0-0.2-6,0-9.9c0-0.7,0.3-1.3,0.8-1.8c5.8-5.3,8.4-6.1,8.4-6.1l8.4-1.5
		c1.4,1,4.7,4.7,3.6,11.5"/>
	<path fill="none" stroke="#1D1D1B" stroke-width="2" stroke-linecap="round" stroke-linejoin="round" stroke-miterlimit="10" d="
		M25.6,19.3c0,0,1.8,2.6,3.6-0.3v-3l-0.5-1.7l-0.4-0.3"/>
	<path fill="none" stroke="#1D1D1B" stroke-width="2" stroke-linecap="round" stroke-linejoin="round" stroke-miterlimit="10" d="
		M29.5,19.3c0,0,1.8,2.6,3.6-0.3v-3l-0.9-2.1"/>
	<path fill="none" stroke="#1D1D1B" stroke-width="2" stroke-linecap="round" stroke-linejoin="round" stroke-miterlimit="10" d="
		M36.8,19c-2,1.9-3.3,0-3.3,0"/>
	<path fill="none" stroke="#1D1D1B" stroke-width="2" stroke-linecap="round" stroke-linejoin="round" stroke-miterlimit="10" d="
		M25.2,19.3"/>
	<path fill="none" stroke="#1D1D1B" stroke-width="2" stroke-linecap="round" stroke-linejoin="round" stroke-miterlimit="10" d="
		M20.3,16.4c0.5,0.4,1.1,1.2,1.3,2.4c0,0.3,0.1,0.6,0.3,0.8c0.6,0.6,2,1.5,3.3-0.6v-3l-0.6-1.3"/>
	<path fill="none" stroke="#1D1D1B" stroke-width="2" stroke-linecap="round" stroke-linejoin="round" stroke-miterlimit="10" d="
		M40.4,18.3c1.9,0.6,2.3,3.4-0.7,4.1c-6.3,1.4-6.3,1.4-6.3,1.4"/>
</g>
</svg>
