<?xml version="1.0" encoding="utf-8"?>
<!-- Generator: Adobe Illustrator 21.1.0, SVG Export Plug-In . SVG Version: 6.00 Build 0)  -->
<svg version="1.1" id="emoji" xmlns="http://www.w3.org/2000/svg" xmlns:xlink="http://www.w3.org/1999/xlink" x="0px" y="0px"
	 viewBox="0 0 72 72" enable-background="new 0 0 72 72" xml:space="preserve">
<g id="_xD83D__xDCAF_">
	<g>
		<g>
			<g>
				<path fill="#D22F27" d="M16.1,40.3V19.6L11,24.2v-5.1l5.1-4.6h4.6v25.8H16.1z"/>
			</g>
			<g>
				<path fill="#D22F27" d="M34.1,40.6c-4.1,0-7.7-2.8-7.7-7.7V22c0-4.9,3.6-7.7,7.7-7.7c4.1,0,7.7,2.7,7.7,7.7v10.9
					C41.7,37.8,38.2,40.6,34.1,40.6z M37.1,22.1c0-2.2-1.2-3.5-3.1-3.5c-1.8,0-3.1,1.3-3.1,3.5v10.7c0,2.2,1.2,3.5,3.1,3.5
					c1.8,0,3.1-1.3,3.1-3.5V22.1z"/>
			</g>
			<g>
				<path fill="#D22F27" d="M53.3,40.6c-4.1,0-7.7-2.8-7.7-7.7V22c0-4.9,3.6-7.7,7.7-7.7c4.1,0,7.7,2.7,7.7,7.7v10.9
					C61,37.8,57.5,40.6,53.3,40.6z M56.4,22.1c0-2.2-1.2-3.5-3.1-3.5c-1.8,0-3.1,1.3-3.1,3.5v10.7c0,2.2,1.2,3.5,3.1,3.5
					c1.8,0,3.1-1.3,3.1-3.5V22.1z"/>
			</g>
		</g>
	</g>
	
		<line fill="none" stroke="#D22F27" stroke-width="4" stroke-linecap="round" stroke-linejoin="round" stroke-miterlimit="10" x1="59" y1="47" x2="13" y2="47"/>
	
		<line fill="none" stroke="#D22F27" stroke-width="4" stroke-linecap="round" stroke-linejoin="round" stroke-miterlimit="10" x1="59" y1="55" x2="13" y2="55"/>
</g>
</svg>
