<svg id="emoji" xmlns="http://www.w3.org/2000/svg" viewBox="0 0 72 72">
  <g id="color">
    <line fill="none" stroke="#D22F27" stroke-width="4" stroke-linecap="round" stroke-linejoin="round" stroke-miterlimit="10" x1="59.1829" y1="46.059" x2="13.1829" y2="46.059"></line>
    <line fill="none" stroke="#D22F27" stroke-width="4" stroke-linecap="round" stroke-linejoin="round" stroke-miterlimit="10" x1="59.1829" y1="54.059" x2="13.1829" y2="54.059"></line>
    <path fill="none" stroke="#D22F27" stroke-width="4" stroke-linecap="round" stroke-linejoin="round" stroke-miterlimit="10" d="
			M32.9833,37.0046L32.9833,37.0046c-3.4677,0-6.2789-2.8112-6.2789-6.2789V20.3382c0-3.4677,2.8112-6.2792,6.2789-6.2792l0,0
			c3.4681,0,6.2792,2.8115,6.2792,6.2792v10.3875C39.2625,34.1934,36.4513,37.0046,32.9833,37.0046z"></path>
    <path fill="none" stroke="#D22F27" stroke-width="4" stroke-linecap="round" stroke-linejoin="round" stroke-miterlimit="10" d="
			M52.9092,37.0046L52.9092,37.0046c-3.4677,0-6.2789-2.8112-6.2789-6.2789V20.3382c0-3.4677,2.8112-6.2792,6.2789-6.2792l0,0
			c3.4681,0,6.2792,2.8115,6.2792,6.2792v10.3875C59.1884,34.1934,56.3773,37.0046,52.9092,37.0046z"></path>
    <polyline fill="none" stroke="#D22F27" stroke-width="4" stroke-linecap="round" stroke-linejoin="round" stroke-miterlimit="10" points="
			12.9843,18.8851 19.3366,14.1262 19.3366,37.0718 		"></polyline>
  </g>
  <g id="hair"> </g>
  <g id="skin"> </g>
  <g id="skin-shadow"> </g>
  <g id="line"> </g>
</svg>