<?xml version="1.0" encoding="utf-8"?>
<!-- Generator: Adobe Illustrator 21.1.0, SVG Export Plug-In . SVG Version: 6.00 Build 0)  -->
<svg version="1.1" id="emoji" xmlns="http://www.w3.org/2000/svg" xmlns:xlink="http://www.w3.org/1999/xlink" x="0px" y="0px"
	 viewBox="0 0 72 72" enable-background="new 0 0 72 72" xml:space="preserve">
<g id="_xD83D__xDCAB__1_">
	<path fill="#F7EA29" d="M14.8,18.5C14.5,18.3,95,7.8,44.8,58l-12.1-9.5C32.7,48.5,80.4,29.9,14.8,18.5z"/>
	<path fill="#EFB31A" d="M31.3,48.4l3.8,3.1c11.1-5,39.6-20.6-0.4-33.8C24,17.2,14,18.5,14,18.5C78,29.6,31.3,48.4,31.3,48.4z"/>
	<path fill="none" stroke="#000000" stroke-width="2" stroke-linecap="round" stroke-linejoin="round" stroke-miterlimit="10" d="
		M48.7,34.8c0.7-5.5-6.5-11.6-33.8-16.2c0,0,73-10,34.8,33.1"/>
	<polygon fill="#F7EA29" points="35,30.4 39.9,40.4 51,42 43,49.8 44.9,60.8 35,55.6 25.1,60.8 27,49.8 19,42 30.1,40.4 	"/>
	
		<polygon fill="none" stroke="#000000" stroke-width="2" stroke-linecap="round" stroke-linejoin="round" stroke-miterlimit="10" points="
		35,30.4 39.9,40.4 51,42 44,49.8 45.9,60.8 35,55.6 25.1,60.8 27,49.8 19,42 30.1,40.4 	"/>
</g>
</svg>
