<?xml version="1.0" encoding="utf-8"?>
<!-- Generator: Adobe Illustrator 21.1.0, SVG Export Plug-In . SVG Version: 6.00 Build 0)  -->
<svg version="1.1" id="emoji" xmlns="http://www.w3.org/2000/svg" xmlns:xlink="http://www.w3.org/1999/xlink" x="0px" y="0px"
	 viewBox="0 0 72 72" enable-background="new 0 0 72 72" xml:space="preserve">
<g id="_xD83D__xDCBC_">
	<path fill="#A57939" d="M42.5,42.1"/>
	<polygon fill="#FCEA2B" points="41.6,36.4 33.1,36.3 31.1,36.3 31.1,39.3 31.1,42.4 38.8,42.4 41.6,42.4 	"/>
	<g>
		<path fill="#6A462F" d="M31.5,42.1L31.2,39L18,38.5c-1.9,0-6.5-0.2-6.9-2l0.4,5.9h0C11.7,42,12,43,12.5,43c0.5,0,0.8-1,0.9-0.6
			h16.8C30.2,42.3,31.5,42.2,31.5,42.1z"/>
		<path fill="#6A462F" d="M56.9,38.7H42v3.5c0,0.1,0.5,0.2,0.5,0.3h16c0.1-0.4,0.5,0.8,0.9,0.8s0.8-1.2,0.9-0.8h0l0.4-6.3
			C60.6,38.1,57.6,38.1,56.9,38.7z"/>
		<polygon fill="#6A462F" points="60.9,35.3 60.9,35.5 60.9,35.3 		"/>
	</g>
	<path fill="#A57939" d="M12,36.8c0,0-0.2,1.9,3.8,1.9c3,0,14.9,0,14.9,0l1-1.9l9.4-0.1l1.4,1.7c0,0,12,0.5,14.4,0.3
		c3.2-0.3,3-3.9,3-4V19.9H12V36.8z"/>
	<path fill="#A57939" d="M42.5,41.7H30.2H12.5l0,0c0.5,0-0.5,1.3-0.5,1.9l0.5,15.3h46.9V42.7c0-0.5-0.6-0.9-0.2-1l0-0.1H42.5z"/>
	<g>
		
			<polyline fill="none" stroke="#000000" stroke-width="2" stroke-linecap="round" stroke-linejoin="round" stroke-miterlimit="10" points="
			31.5,15.9 31.5,12.1 41.8,12.1 41.8,15.9 		"/>
		
			<polyline fill="none" stroke="#000000" stroke-width="2" stroke-linecap="round" stroke-linejoin="round" stroke-miterlimit="10" points="
			59.4,42.7 59.4,58.9 12.5,58.9 12.5,42.7 		"/>
		<path fill="none" stroke="#000000" stroke-width="2" stroke-linecap="round" stroke-linejoin="round" stroke-miterlimit="10" d="
			M42,38.7h14.9c1.7,0,3-1.3,3-3V19.9H12v15.7c0,1.7,1.3,3,3,3h15.6"/>
		
			<rect x="31.2" y="36.3" fill="none" stroke="#000000" stroke-width="2" stroke-linecap="round" stroke-linejoin="round" stroke-miterlimit="10" width="10.3" height="5.8"/>
	</g>
</g>
</svg>
