<?xml version="1.0" encoding="utf-8"?>
<!-- Generator: Adobe Illustrator 21.1.0, SVG Export Plug-In . SVG Version: 6.00 Build 0)  -->
<svg version="1.1" id="emoji" xmlns="http://www.w3.org/2000/svg" xmlns:xlink="http://www.w3.org/1999/xlink" x="0px" y="0px"
	 viewBox="0 0 72 72" enable-background="new 0 0 72 72" xml:space="preserve">
<g id="_xD83D__xDCBB__xFE0F__3_">
	<polygon fill="#9B9B9A" points="63.7,41 63.7,68 11.8,68 11.8,41 11.8,36 63.7,36 	"/>
	
		<polyline fill="none" stroke="#1D1D1B" stroke-width="2" stroke-linecap="round" stroke-linejoin="round" stroke-miterlimit="10" points="
		62.6,41 62.6,68 12.6,68 12.6,41 	"/>
	
		<rect x="12.6" y="3.9" transform="matrix(-1 -1.224647e-16 1.224647e-16 -1 75.25 39.85)" fill="#9B9B9A" stroke="#1D1D1B" stroke-width="2" stroke-linecap="round" stroke-linejoin="round" stroke-miterlimit="10" width="50" height="32.1"/>
	
		<line fill="none" stroke="#1D1D1B" stroke-width="2" stroke-linecap="round" stroke-linejoin="round" stroke-miterlimit="10" x1="17.6" y1="41.5" x2="57.6" y2="41.5"/>
	
		<line fill="none" stroke="#1D1D1B" stroke-width="2" stroke-linecap="round" stroke-linejoin="round" stroke-miterlimit="10" x1="17.6" y1="47.1" x2="57.6" y2="47.1"/>
	
		<line fill="none" stroke="#1D1D1B" stroke-width="2" stroke-linecap="round" stroke-linejoin="round" stroke-miterlimit="10" x1="17.6" y1="52.7" x2="57.6" y2="52.7"/>
	
		<rect x="30.7" y="56.2" fill="none" stroke="#1D1D1B" stroke-width="2" stroke-linecap="round" stroke-linejoin="round" stroke-miterlimit="10" width="13.5" height="8.1"/>
	<polygon fill="#FFFFFF" points="62.6,36 12.6,13.8 12.6,3.9 62.6,26.1 	"/>
	
		<rect x="12.6" y="3.9" transform="matrix(-1 -1.224647e-16 1.224647e-16 -1 75.25 39.85)" fill="none" stroke="#1D1D1B" stroke-width="2" stroke-linecap="round" stroke-linejoin="round" stroke-miterlimit="10" width="50" height="32.1"/>
</g>
</svg>
