<?xml version="1.0" encoding="utf-8"?>
<!-- Generator: Adobe Illustrator 21.1.0, SVG Export Plug-In . SVG Version: 6.00 Build 0)  -->
<svg version="1.1" id="emoji" xmlns="http://www.w3.org/2000/svg" xmlns:xlink="http://www.w3.org/1999/xlink" x="0px" y="0px"
	 viewBox="0 0 72 72" enable-background="new 0 0 72 72" xml:space="preserve">
<g id="_xD83D__xDCBD_">
	
		<rect x="11" y="11" fill="#3F3F3F" stroke="#1D1D1B" stroke-width="2" stroke-linecap="round" stroke-linejoin="round" stroke-miterlimit="10" width="50" height="50"/>
	
		<path fill="#D0CFCE" stroke="#1D1D1B" stroke-width="2" stroke-linecap="round" stroke-linejoin="round" stroke-miterlimit="10" d="
		M52.5,47.1c-3.6,5.3-9.7,8.8-16.5,8.8c-11,0-20-8.9-20-20S25,16,36,16c6.9,0,12.9,3.5,16.5,8.7"/>
	<circle fill="#D0CFCE" cx="35.9" cy="35.9" r="20"/>
	<path fill="#D0CFCE" d="M17.5,26.4c3.1-5.9,9-10.3,16.1-11.1c11.4-1.3,21.8,6.9,23.1,18.3C58,45,49.9,55.3,38.4,56.7
		c-7.1,0.8-13.8-2-18.2-7.1"/>
	
		<path fill="#D0CFCE" stroke="#1D1D1B" stroke-width="2" stroke-linecap="round" stroke-linejoin="round" stroke-miterlimit="10" d="
		M52.5,47c-3.6,5.3-9.7,8.8-16.5,8.8c-11,0-20-8.9-20-20s8.9-20,20-20c6.9,0,12.9,3.5,16.5,8.7"/>
	
		<circle fill="#3F3F3F" stroke="#1D1D1B" stroke-width="2" stroke-linecap="round" stroke-linejoin="round" stroke-miterlimit="10" cx="36" cy="36" r="5"/>
	
		<polyline fill="#D0CFCE" stroke="#1D1D1B" stroke-width="2" stroke-linecap="round" stroke-linejoin="round" stroke-miterlimit="10" points="
		44,36.5 44,42 61,44.4 61,36.5 61,36.4 61,28.5 44,31 44,36.4 	"/>
</g>
</svg>
