<?xml version="1.0" encoding="utf-8"?>
<!-- Generator: Adobe Illustrator 19.1.0, SVG Export Plug-In . SVG Version: 6.00 Build 0)  -->
<svg version="1.1" id="emoji" xmlns="http://www.w3.org/2000/svg" xmlns:xlink="http://www.w3.org/1999/xlink" x="0px" y="0px"
	 viewBox="0 0 72 72" enable-background="new 0 0 72 72" xml:space="preserve">
<g id="_xD83D__xDCBC_">
	<path fill="#A57939" d="M42.5,42.1"/>
	<polygon fill="#FCEA2B" points="40.5,37.3 33.7,37.3 32.2,37.3 32.2,39.2 32.2,41.1 38.3,41.1 40.5,41.1 	"/>
	<g>
		<path fill="#6A462F" d="M30.2,42.1v-2.5H15c-1.9,0-3.5-1.3-3.9-3.1l0.4,5.9h0c0.1-0.4,0.5-0.7,0.9-0.7c0.5,0,0.8,0.3,0.9,0.7h16.8
			C30.2,42.3,30.2,42.2,30.2,42.1z"/>
		<path fill="#6A462F" d="M56.9,39.7H42.5v2.5c0,0.1,0,0.2-0.1,0.3h16c0.1-0.4,0.5-0.7,0.9-0.7s0.8,0.3,0.9,0.7h0l0.4-6.3
			C60.6,38.1,58.9,39.7,56.9,39.7z"/>
		<polygon fill="#6A462F" points="60.9,35.3 60.9,35.5 60.9,35.3 		"/>
	</g>
	<path fill="#A57939" d="M13,35.7c0,0.2,0,0.3,0.1,0.5c0,0,0,0.1,0,0.1c0,0.1,0.1,0.2,0.1,0.3c0,0,0,0.1,0.1,0.1
		c0.1,0.1,0.1,0.2,0.2,0.3c0,0,0.1,0.1,0.1,0.1c0.1,0.1,0.2,0.2,0.3,0.3c0.2,0.1,0.5,0.2,0.7,0.3c0.1,0,0.3,0,0.4,0h15.2v-1.3
		c0-0.6,0.4-1,1-1h10.3c0.6,0,1,0.4,1,1v1.3h14.4c0.6,0,1.1-0.2,1.4-0.6c0.4-0.4,0.6-0.9,0.6-1.4V20.9H13V35.7z"/>
	<path fill="#A57939" d="M42.5,41.7v0.5c0,0.6-0.4,1-1,1H31.2c-0.6,0-1-0.4-1-1v-0.5H12.5l0,0c0.5,0,1,0.5,1,1v15.2h44.9V42.7
		c0-0.5,0.4-0.9,0.8-1l0-0.1H42.5z"/>
	<g>
		
			<polyline fill="none" stroke="#000000" stroke-width="2" stroke-linecap="round" stroke-linejoin="round" stroke-miterlimit="10" points="
			31.5,15.9 31.5,12.1 41.8,12.1 41.8,15.9 		"/>
		
			<polyline fill="none" stroke="#000000" stroke-width="2" stroke-linecap="round" stroke-linejoin="round" stroke-miterlimit="10" points="
			59.4,42.7 59.4,58.9 12.5,58.9 12.5,42.7 		"/>
		<path fill="none" stroke="#000000" stroke-width="2" stroke-linecap="round" stroke-linejoin="round" stroke-miterlimit="10" d="
			M30.6,38.7H15c-1.7,0-3-1.3-3-3V19.9h47.9v15.7c0,1.7-1.3,3-3,3H42"/>
		
			<rect x="31.2" y="36.3" fill="none" stroke="#000000" stroke-width="2" stroke-linecap="round" stroke-linejoin="round" stroke-miterlimit="10" width="10.3" height="5.8"/>
	</g>
</g>
</svg>
