<svg id="emoji" xmlns="http://www.w3.org/2000/svg" viewBox="0 0 72 72">
  <g id="color">
    <polygon id="_1F4B9" data-name="1F4B9" points="34.091 29.625 25.416 50.239 18.42 47.255 10.958 59.008 14.036 61.06 19.633 52.012 24.017 53.691 27.375 55.09 36.061 34.53 46.777 40.539 60.302 13.389 57.504 11.524 44.911 35.875 34.091 29.625" fill="#b1cc33"/>
  </g>
  <g id="line">
    <g id="_1F4B9-2" data-name="1F4B9">
      <g>
        <polyline points="18.316 32.405 18.316 24.155 23.816 13.155 18.316 24.155 12.816 13.155" fill="none" stroke="#000" stroke-linecap="round" stroke-linejoin="round" stroke-width="2"/>
        <line x1="13.0952" y1="23.7435" x2="23.4605" y2="23.7435" fill="none" stroke="#000" stroke-linecap="round" stroke-linejoin="round" stroke-width="2"/>
      </g>
      <polygon points="34.091 29.625 25.416 50.239 18.42 47.255 10.958 59.008 14.036 61.06 19.633 52.012 24.017 53.691 27.375 55.09 36.061 34.53 46.777 40.539 60.302 13.389 57.504 11.524 44.911 35.875 34.091 29.625" fill="none" stroke="#000" stroke-linecap="round" stroke-linejoin="round" stroke-width="2"/>
    </g>
  </g>
</svg>
