<?xml version="1.0" encoding="utf-8"?>
<!-- Generator: Adobe Illustrator 21.1.0, SVG Export Plug-In . SVG Version: 6.00 Build 0)  -->
<svg version="1.1" id="emoji" xmlns="http://www.w3.org/2000/svg" xmlns:xlink="http://www.w3.org/1999/xlink" x="0px" y="0px"
	 viewBox="0 0 72 72" enable-background="new 0 0 72 72" xml:space="preserve">
<g id="_xD83D__xDCB7__2_">
	<rect x="11.6" y="19.9" fill="#FFFFFF" width="48.6" height="32.9"/>
	<g id="_xD83D__xDCB7_">
		<rect x="34.4" y="19.9" fill="#B399C8" width="22.6" height="33.1"/>
		<path fill="none" stroke="#000000" stroke-width="2" stroke-linecap="round" stroke-linejoin="round" stroke-miterlimit="10" d="
			M41.7,20.8h17.8c0.6,0,1,0.4,1,1V51c0,0.6-0.4,1-1,1H41.7"/>
		
			<path fill="#D0CFCE" stroke="#000000" stroke-width="2" stroke-linecap="round" stroke-linejoin="round" stroke-miterlimit="10" d="
			M36.6,21.8v29.3c0,0.1,0,0.2,0,0.3c-0.1,0.4-0.5,0.7-1,0.7H20.2c-0.4,0-0.8-0.3-1-0.7c0-0.1,0-0.2,0-0.3V21.8c0-0.1,0-0.2,0-0.3
			c0.1-0.4,0.5-0.7,1-0.7h15.3c0.4,0,0.8,0.3,1,0.7C36.5,21.6,36.6,21.7,36.6,21.8z"/>
		<path fill="none" stroke="#1D1D1B" stroke-width="2" stroke-linecap="round" stroke-linejoin="round" stroke-miterlimit="10" d="
			M23.3,20.8"/>
		<path fill="none" stroke="#1D1D1B" stroke-width="2" stroke-linecap="round" stroke-linejoin="round" stroke-miterlimit="10" d="
			M13.8,20.8"/>
		<path fill="none" stroke="#000000" stroke-width="2" stroke-linecap="round" stroke-linejoin="round" stroke-miterlimit="10" d="
			M13.7,52h-1.6c-0.6,0-1-0.4-1-1V21.8c0-0.6,0.4-1,1-1h1.6"/>
		<path fill="none" stroke="#1D1D1B" stroke-width="2" stroke-linecap="round" stroke-linejoin="round" stroke-miterlimit="10" d="
			M13.7,52"/>
		<path fill="none" stroke="#1D1D1B" stroke-width="2" stroke-linecap="round" stroke-linejoin="round" stroke-miterlimit="10" d="
			M23.3,52"/>
		<g>
			
				<line fill="none" stroke="#000000" stroke-width="2" stroke-linecap="round" stroke-linejoin="round" stroke-miterlimit="10" x1="25.4" y1="36.4" x2="27.2" y2="36.4"/>
			<path fill="none" stroke="#000000" stroke-width="2" stroke-linecap="round" stroke-linejoin="round" stroke-miterlimit="10" d="
				M30,40h-3.7v-5.1c0-1,0.8-1.9,1.9-1.9l0,0c1,0,1.8,0.7,1.9,1.7"/>
		</g>
		<path fill="none" stroke="#000000" stroke-width="2" stroke-linecap="round" stroke-linejoin="round" stroke-miterlimit="10" d="
			M53.2,32.9L53.2,32.9c-1.1,0-1.9-0.9-1.9-1.9v-3.2c0-1.1,0.9-1.9,1.9-1.9l0,0c1.1,0,1.9,0.9,1.9,1.9V31
			C55.2,32.1,54.3,32.9,53.2,32.9z"/>
		<path fill="none" stroke="#000000" stroke-width="2" stroke-linecap="round" stroke-linejoin="round" stroke-miterlimit="10" d="
			M44,27.7c0.2-1,1.1-1.7,2.1-1.7l0,0c0.6,0,1.1,0.2,1.5,0.6c0.6,0.6,0.5,1.6,0,2.3l-3.7,4.1h4.3"/>
	</g>
</g>
</svg>
