<svg id="emoji" viewBox="0 0 72 72" xmlns="http://www.w3.org/2000/svg">
  <g id="color">
    <rect x="14.6394" y="23.0377" width="46.4144" height="27.8803" fill="#fff"/>
    <rect x="22.2852" y="48.7145" width="31.1096" height="2.9375" fill="#5c9e31"/>
    <rect x="19.7775" y="22.3357" width="31.1096" height="2.9375" fill="#5c9e31"/>
    <path fill="#5c9e31" d="m12.94,21.1704v31.45h49.37v-31.14l-49.37-.31Zm46.42,24.74c-.13-.01-.28-.01-.43-.01-2.15,0-3.95,1.68-4.05,3.81H20.33c-.09-2.13-1.88-3.81-4.05-3.81-.14,0-.27,0-.39.01v-17.91c.12.01.25.01.39.01,2.16,0,3.94-1.65,4.05-3.76h34.55c.13,2.11,1.91,3.76,4.05,3.76.15,0,.3,0,.43-.01,0,0,0,17.91,0,17.91Z"/>
    <ellipse cx="37.34" cy="36.6758" rx="16.1711" ry="10.0088" fill="#5c9e31" stroke="#5c9e31" stroke-miterlimit="10" stroke-width="2"/>
    <path fill="#d0cfce" d="m46.0276,22.3781v29.2855c0,.1053-.02.2011-.05.2969-.13.383-.51.6608-.95.6608h-15.34c-.44,0-.82-.2778-.95-.6608-.03-.0958-.05-.1915-.05-.2969v-29.2855c0-.1053.02-.2011.05-.2969.13-.3831.51-.6608.95-.6608h15.34c.44,0,.82.2777.95.6608.0301.0957.05.1915.05.2969Z"/>
    <path fill="#5c9e31" d="m48.7533,29.5853c2.939,1.8123,4.7578,4.3199,4.7578,7.0905,0,2.7944-1.8502,5.3213-4.8338,7.137"/>
    <path fill="#5c9e31" d="m24.7399,42.9499c-2.2338-1.7164-3.5709-3.8986-3.5709-6.2741,0-2.5704,1.5655-4.9145,4.1386-6.687"/>
  </g>
  <g id="line">
    <path fill="none" stroke="#000" stroke-linecap="round" stroke-linejoin="round" stroke-width="2" d="m50.0275,24.2504h4.8525c.13,2.11,1.91,3.76,4.05,3.76.15,0,.3,0,.43-.01v17.91c-.13-.01-.28-.01-.43-.01-2.15,0-3.95,1.68-4.05,3.81h-4.8525m-24.9199,0h-4.7776c-.09-2.13-1.88-3.81-4.05-3.81-.14,0-.27,0-.39.01v-17.91c.12.01.25.01.39.01,2.16,0,3.94-1.65,4.05-3.76h4.385"/>
    <path fill="none" stroke="#000" stroke-linecap="round" stroke-linejoin="round" stroke-width="2" d="m46.0276,22.3781v29.2855c0,.1053-.02.2011-.05.2969-.13.383-.51.6608-.95.6608h-15.34c-.44,0-.82-.2778-.95-.6608-.03-.0958-.05-.1915-.05-.2969v-29.2855c0-.1053.02-.2011.05-.2969.13-.3831.51-.6608.95-.6608h15.34c.44,0,.82.2777.95.6608.0301.0957.05.1915.05.2969Z"/>
    <path fill="none" stroke="#000" stroke-linecap="round" stroke-linejoin="round" stroke-width="2" d="m25.1075,52.6212h-11.1675c-.5523,0-1-.4477-1-1v-29.2008c0-.5523.4477-1,1-1h10.8375"/>
    <path fill="none" stroke="#000" stroke-linecap="round" stroke-linejoin="round" stroke-width="2" d="m49.7719,21.4204h11.5381c.5523,0,1,.4477,1,1v29.2008c0,.5523-.4477,1-1,1h-11.5376"/>
    <path fill="none" stroke="#000" stroke-linecap="round" stroke-miterlimit="10" stroke-width="2" d="m48.7533,29.5853c2.939,1.8123,4.7578,4.3199,4.7578,7.0905,0,2.7944-1.8502,5.3213-4.8338,7.137"/>
    <path fill="none" stroke="#000" stroke-linecap="round" stroke-miterlimit="10" stroke-width="2" d="m24.7399,42.9499c-2.2338-1.7164-3.5709-3.8986-3.5709-6.2741,0-2.5704,1.5655-4.9145,4.1386-6.687"/>
    <path fill="none" stroke="#000" stroke-linecap="round" stroke-linejoin="round" stroke-width="2" d="m39.6628,34.2208c-.2188-.8514-1.1649-1.4919-2.2989-1.4919h0c-1.296,0-2.3466.8366-2.3466,1.8685s1.0506,1.8685,2.3466,1.8685l-.0476.0069c1.296,0,2.3466.8366,2.3466,1.8685s-1.0506,1.8685-2.3466,1.8685h0c-1.134,0-2.0802-.6404-2.299-1.4919"/>
    <line x1="37.34" x2="37.34" y1="32.7289" y2="30.9475" fill="none" stroke="#000" stroke-linecap="round" stroke-linejoin="round" stroke-width="2"/>
    <line x1="37.34" x2="37.34" y1="41.9912" y2="40.2098" fill="none" stroke="#000" stroke-linecap="round" stroke-linejoin="round" stroke-width="2"/>
  </g>
</svg>
