<?xml version="1.0" encoding="utf-8"?>
<!-- Generator: Adobe Illustrator 21.1.0, SVG Export Plug-In . SVG Version: 6.00 Build 0)  -->
<svg version="1.1" id="emoji" xmlns="http://www.w3.org/2000/svg" xmlns:xlink="http://www.w3.org/1999/xlink" x="0px" y="0px"
	 viewBox="0 0 72 72" enable-background="new 0 0 72 72" xml:space="preserve">
<g id="_xD83D__xDCBF__xFE0F_">
	<path fill="#FFFFFF" stroke="#1D1D1B" stroke-miterlimit="10" d="M37,7c-0.1,0-0.2,0-0.2,0c-5.5,0-10.6,1.6-14.9,4.2
		c-5.3,3.2-9.4,8.1-11.8,13.9C8.7,28.5,8,32.1,8,36c0,15.9,12.8,28.9,28.8,29c0,0,0,0,0,0c0.1,0,0.1,0,0.2,0c16,0,29-13,29-29
		C66,19.9,53,7,37,7z M41.5,36c0,2.8-2.2,5-5,5s-5-2.2-5-5c0-2.8,2.2-5,5-5S41.5,33.2,41.5,36z"/>
	<g id="_xD83D__xDCBF__xFE0F__3_">
		<g>
			<path fill="#D0CFCE" d="M9.7,24.8C8.3,28.3,7.5,32,7.5,36c0,16,13,29,29,29c5.3,0,10.2-1.4,14.5-3.9L9.7,24.8z"/>
			<path fill="#D0CFCE" d="M63.1,47.4c1.5-3.5,2.4-7.4,2.4-11.5c0-16-13-29-29-29C31.1,7,26,8.5,21.7,11.1L63.1,47.4z"/>
		</g>
		<path fill="none" stroke="#1D1D1B" stroke-width="2" stroke-linecap="round" stroke-linejoin="round" stroke-miterlimit="10" d="
			M64.6,28.7c-0.2-0.9-0.5-1.8-0.9-2.7c-0.3-0.9-0.7-1.8-1.1-2.6C59.8,17.5,55,12.7,49.1,9.8c-0.8-0.4-1.7-0.8-2.6-1.1
			c-0.9-0.3-1.8-0.6-2.7-0.8c-2.2-0.6-4.6-0.9-7-0.9c-0.1,0-0.2,0-0.2,0c-0.4,0-0.9,0-1.3,0c-0.1,0-0.2,0-0.3,0c-0.3,0-0.6,0-1,0.1
			c-0.1,0-0.3,0-0.4,0c-0.3,0-0.6,0.1-1,0.1c-0.3,0-0.7,0.1-1,0.2c-0.6,0.1-1.3,0.2-1.9,0.4C29.3,7.9,29,7.9,28.7,8c0,0-0.1,0-0.1,0
			c-0.6,0.2-1.2,0.3-1.8,0.6c-0.3,0.1-0.5,0.2-0.8,0.3c-0.1,0-0.1,0-0.2,0.1c-0.6,0.2-1.1,0.4-1.7,0.7c-0.3,0.1-0.6,0.3-0.8,0.4
			c-0.6,0.3-1.1,0.6-1.7,0.9l0,0c-5.3,3.2-9.6,8-12,13.8c-0.2,0.4-0.3,0.9-0.5,1.3c-0.3,0.9-0.6,1.8-0.8,2.7
			c-0.2,0.6-0.3,1.1-0.4,1.7c-0.2,0.8-0.3,1.7-0.4,2.5C7.5,34,7.5,35,7.5,36c0,2.5,0.3,4.9,0.9,7.2c0.2,0.9,0.5,1.8,0.9,2.7
			c0.5,1.3,1.1,2.6,1.7,3.9c1.3,2.5,3,4.7,5,6.7c1,1,2,1.9,3.2,2.7c0.7,0.6,1.5,1.1,2.3,1.6h0c0.8,0.5,1.6,0.9,2.5,1.3
			C27.7,63.9,32,65,36.5,65c0.1,0,0.2,0,0.2,0c0,0,0,0,0,0c0.3,0,0.7,0,1,0c0.1,0,0.3,0,0.5,0c0.3,0,0.6,0,0.9-0.1
			c0.5,0,0.9-0.1,1.4-0.2c0.3,0,0.5-0.1,0.8-0.1c0.6-0.1,1.2-0.2,1.9-0.4c0.3-0.1,0.6-0.1,0.8-0.2c0.7-0.2,1.3-0.4,2-0.6
			c0.3-0.1,0.5-0.2,0.8-0.3c0.6-0.2,1.2-0.5,1.7-0.7c0.3-0.1,0.6-0.3,0.8-0.4c0.5-0.3,1.1-0.6,1.6-0.9l0,0
			c5.4-3.1,9.7-7.9,12.1-13.6c0,0,0,0,0,0c0.4-0.9,0.7-1.8,1-2.7c0.1-0.5,0.3-0.9,0.4-1.4c0.1-0.4,0.2-0.8,0.3-1.2
			c0.1-0.6,0.2-1.1,0.3-1.7c0.1-0.5,0.1-1,0.2-1.5c0-0.4,0.1-0.7,0.1-1.1c0-0.6,0.1-1.3,0.1-1.9C65.5,33.5,65.2,31,64.6,28.7z
			 M31.5,36c0-2.8,2.2-5,5-5s5,2.2,5,5c0,2.8-2.2,5-5,5S31.5,38.7,31.5,36z"/>
	</g>
</g>
</svg>
