<?xml version="1.0" encoding="utf-8"?>
<!-- Generator: Adobe Illustrator 19.1.0, SVG Export Plug-In . SVG Version: 6.00 Build 0)  -->
<svg version="1.1" id="emoji" xmlns="http://www.w3.org/2000/svg" xmlns:xlink="http://www.w3.org/1999/xlink" x="0px" y="0px"
	 viewBox="0 0 72 72" enable-background="new 0 0 72 72" xml:space="preserve">
<g id="_xD83D__xDCC2_">
	<path fill="#9B9B9A" d="M12.1,60c0-0.3,0.1-0.5,0.2-0.7c0.1-0.2,0.3-0.3,0.6-0.3c0,0,0,0,0.1,0c0,0,0,0,0,0
		c1.1-0.2,2.5-1.9,3.1-3.7c0.5-1.5,4.7-20.3,6.9-30.1c0-0.1,0-0.3,0.1-0.4c0,0,0-0.1,0-0.1c0-0.1,0.1-0.2,0.1-0.3
		c0-0.1,0.1-0.2,0.1-0.2c0,0,0-0.1,0.1-0.1c0.1-0.1,0.1-0.2,0.2-0.2c0,0,0,0,0,0c0.1-0.1,0.2-0.1,0.3-0.2c0,0,0,0,0,0
		c0.3-0.2,0.7-0.3,1.1-0.3h33v-3c0,0.6-0.4,1-1,1s-1-0.4-1-1v-2.4l-26.3,0c-0.3,0-0.5-0.1-0.8-0.2c-0.1-0.1-0.2-0.2-0.3-0.3
		c-0.2-0.2-0.3-0.5-0.3-0.9l0-0.7l0-0.8c-0.1-1.2-0.9-2-2-2H15c-1.1,0-2,0.9-2,2V56c0,0.6-0.4,1-1,1c-0.6,0-1-0.4-1-1
		c0,0,0.4,3.6,1.4,4.6c0,0,0,0,0,0C12.2,60.4,12.2,60.3,12.1,60z"/>
	<path fill="#D0CFCE" d="M25,25.3c0,0.1,0,0.1,0,0.2c-0.3,1.2-6.4,28.4-7,30.3c-0.3,1.1-0.9,2.2-1.7,3.1L57,59c1.1,0,1.4,0,2-2.3
		c0.6-2.4,6.3-28.6,6.9-31.4c0,0,0,0,0,0H25z"/>
	<g>
		<path fill="none" stroke="#000000" stroke-width="2" stroke-linecap="round" stroke-linejoin="round" stroke-miterlimit="10" d="
			M57,20.3v-3.4l-27.3,0c-0.2,0-0.4-0.2-0.4-0.4l-0.1-1.5c-0.1-1.8-1.3-3-3-3H15c-1.7,0-3,1.3-3,3V56"/>
		<path fill="none" stroke="#000000" stroke-width="2" stroke-linecap="round" stroke-linejoin="round" stroke-miterlimit="10" d="
			M17,55.6c-0.6,2-2.2,4.1-3.9,4.4L57,60c1.7,0,2.3-0.4,3-3c0.7-2.6,7-31.7,7-31.7c0-0.6-0.4-1-1-1H25c-0.6,0-1,0.4-1,1
			C24,25.3,17.6,53.6,17,55.6z"/>
	</g>
</g>
</svg>
