<?xml version="1.0" encoding="utf-8"?>
<!-- Generator: Adobe Illustrator 19.1.0, SVG Export Plug-In . SVG Version: 6.00 Build 0)  -->
<svg version="1.1" id="emoji" xmlns="http://www.w3.org/2000/svg" xmlns:xlink="http://www.w3.org/1999/xlink" x="0px" y="0px"
	 viewBox="0 0 72 72" enable-background="new 0 0 72 72" xml:space="preserve">
<g id="_xD83D__xDCC5_">
	<path fill="#FFFFFF" d="M13,29.2v29.9l29.2,0v-5.4c0,0,0-0.1,0-0.1V48c0-0.3,0.1-0.5,0.3-0.7s0.4-0.3,0.7-0.3H59V29.2H13z
		 M29.3,51.9c0,0.6-0.4,1-1,1c-0.6,0-1-0.4-1-1V35.6l-3.5,2.6c-0.4,0.3-1.1,0.2-1.4-0.2c-0.3-0.4-0.2-1.1,0.2-1.4l5.1-3.8
		c0.3-0.2,0.7-0.3,1-0.1c0.3,0.2,0.6,0.5,0.6,0.9V51.9z M44.5,41.8l-8.1,9.1H39c0.6,0,1,0.4,1,1c0,0.6-0.4,1-1,1h-4.8
		c-0.4,0-0.8-0.2-0.9-0.6c-0.2-0.4-0.1-0.8,0.2-1.1L43,40.5c1.2-1.3,1.2-3.4,0.1-4.5c-0.9-0.9-2-1.4-3.3-1.4c-2.2,0-4.1,1.6-4.5,3.7
		c-0.1,0.5-0.6,0.9-1.2,0.8c-0.5-0.1-0.9-0.6-0.8-1.2c0.6-3.1,3.4-5.3,6.5-5.3c1.8,0,3.4,0.7,4.7,1.9C46.4,36.5,46.4,39.6,44.5,41.8
		z"/>
	<g>
		<path fill="#EA5A47" d="M19,12.1c0,0.6-0.4,1-1,1h-5v14h46v-14h-5c-0.6,0-1-0.4-1-1c0-0.6,0.4-1,1-1h-3V16c1.7,0.5,3,2,3,3.9
			c0,0,0,0,0,0c0,2.2-1.8,4-4,4c0,0,0,0,0,0c-2.2,0-4-1.8-4-4c0-1.1,0.4-2.1,1.2-2.8c0.5-0.5,1.1-0.8,1.8-1v-4.9h-3c0.6,0,1,0.4,1,1
			c0,0.6-0.4,1-1,1H26c-0.6,0-1-0.4-1-1c0-0.6,0.4-1,1-1h-3V16c1.7,0.5,3,2,3,3.9c0,2.2-1.8,4-4,4c0,0,0,0,0,0c-2.2,0-4-1.8-4-4
			c0-1.1,0.4-2.1,1.2-2.8c0.5-0.5,1.1-0.8,1.8-1v-4.9h-3C18.6,11.1,19,11.6,19,12.1z"/>
	</g>
	<path fill="#D0CECE" d="M57,49H44.1v4.5c0,0.6-0.4,1-1,1c-0.5,0-0.9-0.4-1-0.9v5.4l1.2,0L57,49z"/>
	
		<circle fill-rule="evenodd" clip-rule="evenodd" fill="none" stroke="#000000" stroke-width="2" stroke-linecap="round" stroke-linejoin="round" stroke-miterlimit="10" cx="22" cy="19.8" r="3"/>
	
		<line fill="none" stroke="#000000" stroke-width="2" stroke-linecap="round" stroke-linejoin="round" stroke-miterlimit="10" x1="26" y1="12.1" x2="46.1" y2="12.1"/>
	
		<polyline fill="none" stroke="#000000" stroke-width="2" stroke-linecap="round" stroke-linejoin="round" stroke-miterlimit="10" points="
		54,12.1 60,12.1 60,28.1 12,28.1 12,12.1 18,12.1 	"/>
	
		<line fill-rule="evenodd" clip-rule="evenodd" fill="#9A9B99" stroke="#000000" stroke-width="2" stroke-linecap="round" stroke-linejoin="round" stroke-miterlimit="10" x1="22" y1="8.7" x2="22" y2="19"/>
	
		<circle fill-rule="evenodd" clip-rule="evenodd" fill="none" stroke="#000000" stroke-width="2" stroke-linecap="round" stroke-linejoin="round" stroke-miterlimit="10" cx="50" cy="19.8" r="3"/>
	
		<line fill-rule="evenodd" clip-rule="evenodd" fill="#9A9B99" stroke="#000000" stroke-width="2" stroke-linecap="round" stroke-linejoin="round" stroke-miterlimit="10" x1="50" y1="8.7" x2="50" y2="19"/>
	<path fill="none" stroke="#000000" stroke-width="2" stroke-linecap="round" stroke-linejoin="round" stroke-miterlimit="10" d="
		M34.3,38.1c0.5-2.6,2.8-4.5,5.5-4.5l0,0c1.6,0,3,0.6,4,1.6c1.6,1.6,1.4,4.2,0,5.9l-9.6,10.8H39"/>
	
		<polyline fill="none" stroke="#000000" stroke-width="2" stroke-linecap="round" stroke-linejoin="round" stroke-miterlimit="10" points="
		23.3,37.4 28.3,33.6 28.3,51.9 	"/>
	
		<polyline fill="none" stroke="#000000" stroke-width="2" stroke-linecap="round" stroke-linejoin="round" stroke-miterlimit="10" points="
		12,28.1 12,60.1 43.7,60.1 60,48 60,28.1 	"/>
	
		<polyline fill="none" stroke="#000000" stroke-width="2" stroke-linecap="round" stroke-linejoin="round" stroke-miterlimit="10" points="
		59.7,48 43.1,48 43.1,53.5 	"/>
</g>
</svg>
