<?xml version="1.0" encoding="utf-8"?>
<!-- Generator: Adobe Illustrator 21.1.0, SVG Export Plug-In . SVG Version: 6.00 Build 0)  -->
<svg version="1.1" id="emoji" xmlns="http://www.w3.org/2000/svg" xmlns:xlink="http://www.w3.org/1999/xlink" x="0px" y="0px"
	 viewBox="0 0 72 72" enable-background="new 0 0 72 72" xml:space="preserve">
<g id="_xD83D__xDCC6_">
	<path fill="#FFFFFF" d="M12,27.9v32.2l31.7,0l16.5-11.9V28.1L12,27.9z"/>
	<path fill="#EA5A47" d="M19.2,18.7c0-0.7-0.8-2.3-0.4-2.9c-0.1-0.5,1.7-3.6,1.7-3.6H12l0,15l48.1,0.3L60,12.3l-6.7-0.4l-2,3.5
		c0.4,1,0.7,1.9,0.8,2.1c0.4,0.5,0.7,3.2,0.7,3.2c0,1.9-2.7,2.2-2.9,2.2c-2.4-0.4-2.7-2.1-2.7-4.3c0-0.7-0.3-2.7-0.3-2.7
		c0-0.1,1.5-3.7,1.5-3.7H25.6l-2.2,3.1c0.4,1,1.6,4.6,1.6,4.6c0,2.2-1.2,2.7-3,3C20.1,23.2,19.2,20.9,19.2,18.7z"/>
	
		<polyline fill="none" stroke="#000000" stroke-width="2" stroke-linecap="round" stroke-linejoin="round" stroke-miterlimit="10" points="
		53.3,12.3 60,12.3 60,28.3 12,28.3 12,12.3 20.5,12.3 	"/>
	
		<line fill="none" stroke="#000000" stroke-width="2" stroke-linecap="round" stroke-linejoin="round" stroke-miterlimit="10" x1="25.6" y1="12.3" x2="48.5" y2="12.3"/>
	
		<path fill-rule="evenodd" clip-rule="evenodd" fill="none" stroke="#000000" stroke-width="2" stroke-linecap="round" stroke-linejoin="round" stroke-miterlimit="10" d="
		M53.3,12.3l-2,3.1c0,0,1,2.8,1.1,2.9c0.3,0.5,0.5,1.1,0.5,1.7c0,1.7-1.4,3-3,3c-1.7,0-3-1.4-3-3c0-0.6,0.2-1.2,0.5-1.7
		c0.1-0.1-0.9-2.9-0.9-2.9l1.9-3.1"/>
	
		<path fill-rule="evenodd" clip-rule="evenodd" fill="none" stroke="#000000" stroke-width="2" stroke-linecap="round" stroke-linejoin="round" stroke-miterlimit="10" d="
		M25.3,12.3l-2,3.1c0,0,1,2.8,1.1,2.9c0.3,0.5,0.5,1.1,0.5,1.7c0,1.7-1.4,3-3,3c-1.7,0-3-1.4-3-3c0-0.6,0.2-1.2,0.5-1.7
		c0.1-0.1-0.9-2.9-0.9-2.9l1.9-3.1"/>
	<path fill="#D0CECE" d="M60.1,48.2l-17.2-0.4c0,0,0.8,3.9,0.2,3.9c-0.5,0-0.9,2.4-1,1.9v6.7l1.7-0.1L60.1,48.2z"/>
	<path fill="none" stroke="#000000" stroke-width="2" stroke-linecap="round" stroke-linejoin="round" stroke-miterlimit="10" d="
		M34.3,38.1c0.5-2.6,2.8-4.5,5.5-4.5l0,0c1.6,0,3,0.6,4,1.6c1.6,1.6,1.4,4.2,0,5.9l-9.6,10.8H39"/>
	
		<polyline fill="none" stroke="#000000" stroke-width="2" stroke-linecap="round" stroke-linejoin="round" stroke-miterlimit="10" points="
		23.3,37.4 28.3,33.6 28.3,51.9 	"/>
	
		<polyline fill="none" stroke="#000000" stroke-width="2" stroke-linecap="round" stroke-linejoin="round" stroke-miterlimit="10" points="
		12,28.1 12,60.1 43.7,60.1 60,48 60,28.1 	"/>
	
		<polyline fill="none" stroke="#000000" stroke-width="2" stroke-linecap="round" stroke-linejoin="round" stroke-miterlimit="10" points="
		59.7,48 43.1,48 43.1,53.5 	"/>
</g>
</svg>
