<svg id="emoji" xmlns="http://www.w3.org/2000/svg" viewBox="0 0 72 72">
  <g id="color">
    <polyline fill="#9B9B9A" points="56,48.8213 56,10.9583 15.0372,10.9583 15.0372,41.1106 15.0372,52.2652 54.4639,50.9166" stroke="none"/>
    <polyline fill="#9B9B9A" stroke="none" stroke-width="2" stroke-linecap="round" stroke-linejoin="round" stroke-miterlimit="10" points="56,48.8213 56,10.9583 16,10.9583 16,41.1106"/>
    <polygon fill="#D0CFCE" stroke="none" stroke-width="2" stroke-linecap="round" stroke-linejoin="round" stroke-miterlimit="10" points="47.9719,38.1494 13.8387,45.6521 14.6533,56.4415 45.8422,52.277 49.1154,51.84 53,51.3213"/>
  </g>
  <g id="hair"/>
  <g id="skin"/>
  <g id="skin-shadow"/>
  <g id="line">
    <polyline fill="none" stroke="#000000" stroke-width="2" stroke-linecap="round" stroke-linejoin="round" stroke-miterlimit="10" points="56,48.8213 56,10.9583 16,10.9583 16,41.1106"/>
    <polygon fill="none" stroke="#000000" stroke-width="2" stroke-linecap="round" stroke-linejoin="round" stroke-miterlimit="10" points="47.9719,38.1494 13.8387,45.6521 14.6533,56.4415 45.8422,52.277 49.1154,51.84 53,51.3213"/>
    <line fill="none" stroke="#000000" stroke-width="2" stroke-linecap="round" stroke-linejoin="round" stroke-miterlimit="10" x1="20.6218" y1="16" x2="36" y2="16"/>
    <line fill="none" stroke="#000000" stroke-width="2" stroke-linecap="round" stroke-linejoin="round" stroke-miterlimit="10" x1="20.6218" y1="21.328" x2="51.6602" y2="21.328"/>
    <line fill="none" stroke="#000000" stroke-width="2" stroke-linecap="round" stroke-linejoin="round" stroke-miterlimit="10" x1="20.6218" y1="32.2205" x2="51.6602" y2="32.2205"/>
    <line fill="none" stroke="#000000" stroke-width="2" stroke-linecap="round" stroke-linejoin="round" stroke-miterlimit="10" x1="20.6218" y1="37.6274" x2="33.3927" y2="37.6274"/>
    <line fill="none" stroke="#000000" stroke-width="2" stroke-linecap="round" stroke-linejoin="round" stroke-miterlimit="10" x1="20.6218" y1="26.8137" x2="51.6602" y2="26.8137"/>
    <path fill="none" stroke="#000000" stroke-width="2" stroke-linecap="round" stroke-linejoin="round" stroke-miterlimit="10" d="M56,48.3213c0,1.6569-1.3431,3-3,3"/>
  </g>
</svg>
