<svg id="emoji" viewBox="0 0 72 72" xmlns="http://www.w3.org/2000/svg">
  <g id="color">
    <path fill="#9b9b9a" d="m15.464,59.6264c.1391-.1691,2.3559-7.8264,2.8998-9.627.457-1.5137,3.9618-15.2702,6.1601-25.071.0084-.1315,32.4839-.6133,32.4839-.6133v-4.0109c0,.5522,0-3.356,0-3.356l-27.4931-.5712c-.0801-1.2364-1.004-4.1216-2.1368-4.1216l-12.5869-.1983c-1.1026,0-2.8321,1.3407-2.8321,2.4437,0,0-.25,36.1831-.25,44.977,0,1.3282,3.7343.1738,3.7551.1486Z"/>
    <path fill="#d0cfce" d="m23.9444,24.3151c0,.0782-.0083.1557-.0259.2318-.2749,1.226-6.7345,30.0417-7.363,32.1243-.3359,1.1164-.9593,2.3082-1.7645,3.291l43.1115.0104c1.1381,0,1.5216,0,2.1521-2.3899.6676-2.5305,6.6984-30.2693,7.342-33.2323.0017-.009.0066-.0353.0066-.0353,0,0-43.4588,0-43.4588,0Z"/>
  </g>
  <g id="line">
    <path fill="none" stroke="#000" stroke-linecap="round" stroke-linejoin="round" stroke-width="2" d="m57.0078,20.3044v-3.3562l-27.3383-.0025c-.198,0-.3586-.165-.3586-.3684l-.0687-1.5169c-.116-1.7878-1.3398-3.0033-2.9967-3.0033h-11.2866c-1.6569,0-3,1.3432-3,3v40.9429"/>
    <path fill="none" stroke="#000" stroke-linecap="round" stroke-linejoin="round" stroke-width="2" d="m17.0271,55.5678c-.5897,1.954-2.9723,4.1389-4.6459,4.394l44.6648.0108c1.6569,0,2.3233-.4388,3-3s7-31.6575,7-31.6575c0-.5523-.4477-1-1-1H24.9649c-.5523,0-1,.4477-1,1,0,0-6.3481,28.2986-6.9378,30.2527Z"/>
  </g>
</svg>
