<svg id="emoji" viewBox="0 0 72 72" xmlns="http://www.w3.org/2000/svg">
  <g id="color">
    <path fill="#a57939" d="m19.4835,11.9519c-1.6223.0879-2.6548,1.3894-2.6446,3.0141l.3073,49.0067c0,1.1025,1.5713,3.0003,2.6738,3.0003h28.4129c3.5401,0,6.4365-2.8964,6.4365-6.4365V14.8499c0-1.6248-1.2817-2.8115-2.9042-2.898-.7359-.0392-31.6955-.0318-32.2816,0Z"/>
    <path fill="#d0cfce" d="m32.9574,11.2092l-4.0841.1491c-1.6251,0-3.3121,2.401-3.7826,3.8716l21.4716.3382c-.4705-1.4707-1.8325-4.3589-3.4576-4.3589l-3.8013-.3336c-.3697,0-.1859-3.8359-3.3445-3.6872s-2.6318,4.0208-3.0015,4.0208Z"/>
    <path fill="#fff" d="m51.7802,54.9399v-.1743c-.0021.0239-.0102.0456-.014.0689.0046.0353.0131.0696.014.1054Z"/>
    <path fill="#fff" d="m47.1379,14.8526c.008.1192-2.3273.5918-2.88.5918,0,0-20.1393-.4492-20.1313-.5685h-3.0741s.0002.0001.0004.0001c.236.0377-.1528,46.5465-.1528,46.5465h22.5355s7.3614-6.4365,7.3614-6.4623l-.1522-2.8562.1522-36.2586c0-.0543-.0221-.9928-.0221-.9928,0,0-3.637,0-3.637,0Z"/>
    <path fill="#fff" d="m42.7393,57.1041c.0184.0177.0435.0265.0633.0427-.0199-.0159-.0447-.0253-.0633-.0427Z"/>
    <path fill="#fff" d="m43.0405,57.301c.1157.0482.2423.076.3765.076-.1336,0-.2601-.0286-.3765-.076Z"/>
    <polygon fill="#d0cfce" points="50.5145 55.2072 45.8303 54.8528 43.6878 54.7656 42.4317 56.4499 42.4317 60.4229 43.4356 61.4225 50.5145 55.2072"/>
    <polyline fill="none" stroke="#6a462f" stroke-linecap="round" stroke-linejoin="round" stroke-width="2" points="50.6448 55.9269 43.2287 62.4038 20.9144 62.4038"/>
  </g>
  <g id="line">
    <path fill="none" stroke="#000" stroke-linecap="round" stroke-linejoin="round" stroke-width="2" d="m49.6856,11.9519h4.9838v52.0211c0,1.6568-1.3431,3-3,3h-31.8494c-1.6569,0-3-1.3432-3-3V11.9519h4.6155"/>
    <line x1="50.797" x2="50.797" y1="15.8454" y2="54.9602" fill="none" stroke="#000" stroke-linecap="round" stroke-linejoin="round" stroke-width="2"/>
    <polyline fill="none" stroke="#000" stroke-linecap="round" stroke-linejoin="round" stroke-width="2" points="43.4175 56.3765 43.4175 54.9641 50.7959 54.9602 43.4356 61.4225 20.9001 61.4225 20.9001 15.8454"/>
    <line x1="24.5808" x2="37.3475" y1="22.6148" y2="22.6148" fill="none" stroke="#000" stroke-linecap="round" stroke-linejoin="round" stroke-width="2"/>
    <line x1="24.5808" x2="41.5632" y1="26.6148" y2="26.6148" fill="none" stroke="#000" stroke-linecap="round" stroke-linejoin="round" stroke-width="2"/>
    <line x1="24.5808" x2="44.781" y1="30.6148" y2="30.6148" fill="none" stroke="#000" stroke-linecap="round" stroke-linejoin="round" stroke-width="2"/>
    <line x1="24.5808" x2="38.1335" y1="34.6148" y2="34.6148" fill="none" stroke="#000" stroke-linecap="round" stroke-linejoin="round" stroke-width="2"/>
    <line x1="24.5808" x2="40.9916" y1="38.6148" y2="38.6148" fill="none" stroke="#000" stroke-linecap="round" stroke-linejoin="round" stroke-width="2"/>
    <line x1="24.5808" x2="31.7029" y1="42.6148" y2="42.6148" fill="none" stroke="#000" stroke-linecap="round" stroke-linejoin="round" stroke-width="2"/>
    <path fill="none" stroke="#000" stroke-linecap="round" stroke-linejoin="round" stroke-width="2" d="m42.2763,10.9439h-3.7961c.1302-.3182.2034-.666.2034-1.0311,0-1.5047-1.2199-2.7244-2.7247-2.7244s-2.7244,1.2197-2.7244,2.7244c0,.3651.0729.7129.2033,1.0311h-4.0611c-2.367,0-4.286,1.9189-4.286,4.286h21.4716c0-2.3671-1.919-4.286-4.286-4.286Z"/>
  </g>
</svg>
