<?xml version="1.0" encoding="utf-8"?>
<!-- Generator: Adobe Illustrator 21.1.0, SVG Export Plug-In . SVG Version: 6.00 Build 0)  -->
<svg version="1.1" id="emoji" xmlns="http://www.w3.org/2000/svg" xmlns:xlink="http://www.w3.org/1999/xlink" x="0px" y="0px"
	 viewBox="0 0 72 72" enable-background="new 0 0 72 72" xml:space="preserve">
<g id="_xD83D__xDCC5_">
	<path fill="#FFFFFF" d="M12,28.1l0,32l31.7,0l16.1-12c0,0,0.3-3.9,0.3-3.9l0-16L12,28.1z"/>
	<g>
		<path fill="#EA5A47" d="M11.4,28.3L60,28.1l0-16c0,0-6.5-1-6-1h-3.6l0.1,5.8c1.7,0.5,2.2,3.1,2.2,3.1c0,2.2-2.7,2.5-2.7,2.5
			c-1.8-0.4-2.5-1.3-2.5-2.8c0-1.1,0-1.3,0.8-2.1c0.5-0.5,0.6-0.6,1.3-0.8l0-5.7h-3.5c0.3,0-20.6,0-20,0h-3.7l0.1,5.7
			c1.7,0.5,2.3,0.9,2.3,2.7c0,2.2-2.7,3.3-2.7,3.3c-2.2,0-3-1-3-3.2c0-1.1,0.9-1.9,1.6-2.6c0.5-0.5,0.7-0.8,1.4-1l-0.2-4.9H18
			c0.2,0-6,1-6,1L11.4,28.3z"/>
	</g>
	<path fill="#D0CECE" d="M60,48H43.1c0,0-0.9,6.1-1,5.6v5.4l1.5,1L60,48z"/>
	
		<ellipse transform="matrix(9.566548e-03 -1 1 9.566548e-03 1.9414 41.6581)" fill-rule="evenodd" clip-rule="evenodd" fill="none" stroke="#000000" stroke-width="2" stroke-linecap="round" stroke-linejoin="round" stroke-miterlimit="10" cx="22" cy="19.8" rx="3" ry="3"/>
	
		<line fill="none" stroke="#000000" stroke-width="2" stroke-linecap="round" stroke-linejoin="round" stroke-miterlimit="10" x1="26" y1="12.1" x2="46.1" y2="12.1"/>
	
		<polyline fill="none" stroke="#000000" stroke-width="2" stroke-linecap="round" stroke-linejoin="round" stroke-miterlimit="10" points="
		54,12.1 60,12.1 60,28.1 12,28.1 12,12.1 18,12.1 	"/>
	
		<line fill-rule="evenodd" clip-rule="evenodd" fill="#9A9B99" stroke="#000000" stroke-width="2" stroke-linecap="round" stroke-linejoin="round" stroke-miterlimit="10" x1="22" y1="8.7" x2="22" y2="19"/>
	
		<ellipse transform="matrix(9.566708e-03 -1 1 9.566708e-03 29.6742 69.6575)" fill-rule="evenodd" clip-rule="evenodd" fill="none" stroke="#000000" stroke-width="2" stroke-linecap="round" stroke-linejoin="round" stroke-miterlimit="10" cx="50" cy="19.8" rx="3" ry="3"/>
	
		<line fill-rule="evenodd" clip-rule="evenodd" fill="#9A9B99" stroke="#000000" stroke-width="2" stroke-linecap="round" stroke-linejoin="round" stroke-miterlimit="10" x1="50" y1="8.7" x2="50" y2="19"/>
	<path fill="none" stroke="#000000" stroke-width="2" stroke-linecap="round" stroke-linejoin="round" stroke-miterlimit="10" d="
		M34.3,38.1c0.5-2.6,2.8-4.5,5.5-4.5l0,0c1.6,0,3,0.6,4,1.6c1.6,1.6,1.4,4.2,0,5.9l-9.6,10.8H39"/>
	
		<polyline fill="none" stroke="#000000" stroke-width="2" stroke-linecap="round" stroke-linejoin="round" stroke-miterlimit="10" points="
		23.3,37.4 28.3,33.6 28.3,51.9 	"/>
	
		<polyline fill="none" stroke="#000000" stroke-width="2" stroke-linecap="round" stroke-linejoin="round" stroke-miterlimit="10" points="
		12,28.1 12,60.1 43.7,60.1 60,48 60,28.1 	"/>
	
		<polyline fill="none" stroke="#000000" stroke-width="2" stroke-linecap="round" stroke-linejoin="round" stroke-miterlimit="10" points="
		59.7,48 43.1,48 43.1,53.5 	"/>
</g>
</svg>
