<?xml version="1.0" encoding="utf-8"?>
<!-- Generator: Adobe Illustrator 19.1.0, SVG Export Plug-In . SVG Version: 6.00 Build 0)  -->
<svg version="1.1" id="emoji" xmlns="http://www.w3.org/2000/svg" xmlns:xlink="http://www.w3.org/1999/xlink" x="0px" y="0px"
	 viewBox="0 0 72 72" enable-background="new 0 0 72 72" xml:space="preserve">
<g id="_xD83D__xDCCB_">
	<path fill="#D0CECE" d="M33.4,11.9h-4.1c-1.5,0-2.7,1-3.1,2.3h19.2c-0.4-1.3-1.7-2.3-3.1-2.3h-3.8c-0.3,0-0.6-0.2-0.8-0.4
		c-0.2-0.3-0.2-0.6-0.1-0.9c0.1-0.2,0.1-0.4,0.1-0.7c0-1-0.8-1.7-1.7-1.7c-1,0-1.7,0.8-1.7,1.7c0,0.2,0,0.4,0.1,0.7
		c0.1,0.3,0.1,0.7-0.1,0.9C34.1,11.8,33.8,11.9,33.4,11.9z"/>
	<g>
		<path fill="#FFFFFF" d="M51.8,54.9v-0.2c0,0,0,0,0,0.1C51.8,54.9,51.8,54.9,51.8,54.9z"/>
	</g>
	<path fill="#FFFFFF" d="M51.1,14.9L51.1,14.9l-0.1,0C51,14.9,51,14.9,51.1,14.9z"/>
	<path fill="#FFFFFF" d="M20.7,14.9h-0.3v0.1C20.6,14.9,20.7,14.9,20.7,14.9z"/>
	<g>
		<path fill="#FFFFFF" d="M47.5,14.9c0,0.1,0,0.2,0,0.4c0,0.6-0.4,1-1,1H25.1c-0.6,0-1-0.4-1-1c0-0.1,0-0.2,0-0.4h-3.1c0,0,0,0,0,0
			c0.2,0,0.4,0.1,0.6,0.3c0,0,0,0.1,0.1,0.1c0,0.1,0.1,0.1,0.1,0.2c0,0.1,0.1,0.2,0.1,0.4v44.6h20.5v-4v0c0,0,0,0,0-0.1V55
			c0-0.6,0.4-1,1-1l6.4,0V15.8c0-0.1,0-0.3,0.1-0.4c0-0.1,0.1-0.1,0.1-0.2c0,0,0-0.1,0.1-0.1c0.2-0.2,0.4-0.3,0.6-0.3c0,0,0,0,0,0
			H47.5z M23.6,22.3c0-0.1,0.1-0.2,0.2-0.3c0,0,0-0.1,0.1-0.1c0.2-0.2,0.4-0.3,0.7-0.3h12.8c0.6,0,1,0.4,1,1c0,0.3-0.1,0.5-0.3,0.7
			c-0.2,0.2-0.4,0.3-0.7,0.3H24.6c-0.6,0-1-0.4-1-1C23.6,22.5,23.6,22.4,23.6,22.3z M23.6,26.3c0-0.1,0.1-0.2,0.2-0.3
			c0,0,0-0.1,0.1-0.1c0.2-0.2,0.4-0.3,0.7-0.3h17c0.6,0,1,0.4,1,1l0,0c0,0.6-0.4,1-1,1h-17c-0.6,0-1-0.4-1-1
			C23.6,26.5,23.6,26.4,23.6,26.3z M32.7,42.6c0,0.6-0.4,1-1,1h-7.1c-0.6,0-1-0.4-1-1c0-0.3,0.1-0.5,0.3-0.7s0.4-0.3,0.7-0.3h7.1
			C32.3,41.6,32.7,42.1,32.7,42.6L32.7,42.6z M42,38.6c0,0.6-0.4,1-1,1H24.6c-0.6,0-1-0.4-1-1c0-0.3,0.1-0.5,0.3-0.7
			s0.4-0.3,0.7-0.3H41c0.1,0,0.2,0,0.3,0.1c0.1,0,0.1,0.1,0.2,0.1c0.1,0.1,0.2,0.2,0.3,0.3C41.9,38.2,42,38.4,42,38.6
			C42,38.6,42,38.6,42,38.6L42,38.6z M23.6,34.6c0-0.3,0.1-0.5,0.3-0.7s0.4-0.3,0.7-0.3h13.6c0.6,0,1,0.4,1,1l0,0c0,0.6-0.4,1-1,1
			H24.6C24,35.6,23.6,35.2,23.6,34.6z M45.5,31.3c-0.2,0.2-0.4,0.3-0.7,0.3H24.6c-0.6,0-1-0.4-1-1c0-0.3,0.1-0.5,0.3-0.7
			c0.2-0.2,0.4-0.3,0.7-0.3h20.2c0.6,0,1,0.4,1,1C45.8,30.9,45.7,31.1,45.5,31.3z"/>
		<path fill="#FFFFFF" d="M42.7,57.1C42.8,57.1,42.8,57.1,42.7,57.1C42.8,57.1,42.8,57.1,42.7,57.1z"/>
		<path fill="#FFFFFF" d="M43,57.3c0.1,0,0.2,0.1,0.4,0.1C43.3,57.4,43.2,57.3,43,57.3z"/>
	</g>
	<g>
		<path fill="#D0CECE" d="M48.1,56l-3.7,0v0.4c0,0.6-0.4,1-1,1c-0.5,0-0.9-0.4-1-0.9v4h0.6L48.1,56z"/>
	</g>
	<path fill="#A57939" d="M49.7,13L49.7,13c-0.3,0-0.5-0.1-0.7-0.3c0,0,0-0.1-0.1-0.1c-0.1-0.1-0.1-0.2-0.2-0.3
		c0-0.1-0.1-0.2-0.1-0.3c0,0,0,0,0,0h-2.3v0l0,0c0.6,0.8,1,1.8,1.1,2.9l3.2,0l0,0c0,0,0,0,0,0c0.4,0,0.7,0.2,0.9,0.6c0,0,0,0,0,0
		c0.1,0.1,0.1,0.2,0.1,0.4c0,0,0,0,0,0c0,0,0,0.1,0,0.1v38.8V55c0,0,0,0,0,0c0,0,0,0,0,0c0,0,0,0,0,0c0,0.1,0,0.2,0,0.2
		c0,0,0,0.1,0,0.1c0,0.1-0.1,0.1-0.1,0.2c0.1,0.4,0.1,0.8-0.3,1.1l-7.4,6.5c-0.2,0.2-0.4,0.2-0.7,0.2H20.9c-0.6,0-1-0.4-1-1
		c0-0.2,0.1-0.3,0.1-0.5c-0.1-0.1-0.2-0.3-0.2-0.5l0,0V15.8c0-0.6,0.4-1,1-1c0.1,0,0.2,0,0.3,0.1l2.9-0.1c0.1-1.1,0.5-2.1,1.1-2.9v0
		h-2.8c0,0,0,0,0,0c0,0.1,0,0.2-0.1,0.3c0,0,0,0.1,0,0.1c0,0,0,0,0,0c0,0.1-0.1,0.2-0.2,0.3c0,0-0.1,0.1-0.1,0.1
		c-0.1,0.1-0.2,0.1-0.3,0.2c-0.1,0-0.2,0.1-0.3,0.1l0,0h-3.6v51c0,1.1,0.9,2,2,2h31.8c1.1,0,2-0.9,2-2V13H49.7z"/>
	
		<polyline fill="none" stroke="#6A462F" stroke-width="2" stroke-linecap="round" stroke-linejoin="round" stroke-miterlimit="10" points="
		50.6,55.9 43.2,62.4 20.9,62.4 	"/>
	<g>
		<path fill="none" stroke="#000000" stroke-width="2" stroke-linecap="round" stroke-linejoin="round" stroke-miterlimit="10" d="
			M49.7,12h5v52c0,1.7-1.3,3-3,3H19.8c-1.7,0-3-1.3-3-3V12h4.6"/>
		
			<line fill="none" stroke="#000000" stroke-width="2" stroke-linecap="round" stroke-linejoin="round" stroke-miterlimit="10" x1="50.8" y1="15.8" x2="50.8" y2="55"/>
		
			<polyline fill="none" stroke="#000000" stroke-width="2" stroke-linecap="round" stroke-linejoin="round" stroke-miterlimit="10" points="
			43.4,56.4 43.4,55 50.8,55 43.4,61.4 20.9,61.4 20.9,15.8 		"/>
		
			<line fill="none" stroke="#000000" stroke-width="2" stroke-linecap="round" stroke-linejoin="round" stroke-miterlimit="10" x1="24.6" y1="22.6" x2="37.3" y2="22.6"/>
		
			<line fill="none" stroke="#000000" stroke-width="2" stroke-linecap="round" stroke-linejoin="round" stroke-miterlimit="10" x1="24.6" y1="26.6" x2="41.6" y2="26.6"/>
		
			<line fill="none" stroke="#000000" stroke-width="2" stroke-linecap="round" stroke-linejoin="round" stroke-miterlimit="10" x1="24.6" y1="30.6" x2="44.8" y2="30.6"/>
		
			<line fill="none" stroke="#000000" stroke-width="2" stroke-linecap="round" stroke-linejoin="round" stroke-miterlimit="10" x1="24.6" y1="34.6" x2="38.1" y2="34.6"/>
		
			<line fill="none" stroke="#000000" stroke-width="2" stroke-linecap="round" stroke-linejoin="round" stroke-miterlimit="10" x1="24.6" y1="38.6" x2="41" y2="38.6"/>
		
			<line fill="none" stroke="#000000" stroke-width="2" stroke-linecap="round" stroke-linejoin="round" stroke-miterlimit="10" x1="24.6" y1="42.6" x2="31.7" y2="42.6"/>
		<path fill="none" stroke="#000000" stroke-width="2" stroke-linecap="round" stroke-linejoin="round" stroke-miterlimit="10" d="
			M42.3,10.9h-3.8c0.1-0.3,0.2-0.7,0.2-1c0-1.5-1.2-2.7-2.7-2.7c-1.5,0-2.7,1.2-2.7,2.7c0,0.4,0.1,0.7,0.2,1h-4.1
			c-2.4,0-4.3,1.9-4.3,4.3h21.5C46.6,12.9,44.6,10.9,42.3,10.9z"/>
	</g>
</g>
</svg>
