<?xml version="1.0" encoding="utf-8"?>
<!-- Generator: Adobe Illustrator 19.1.0, SVG Export Plug-In . SVG Version: 6.00 Build 0)  -->
<svg version="1.1" id="emoji" xmlns="http://www.w3.org/2000/svg" xmlns:xlink="http://www.w3.org/1999/xlink" x="0px" y="0px"
	 viewBox="0 0 72 72" enable-background="new 0 0 72 72" xml:space="preserve">
<g id="_xD83D__xDCCD_">
	<path fill="none" d="M36.5,36.4"/>
	<path fill="#EA5A47" d="M36,10.6c-6,0-10.8,4.8-10.8,10.8S30,32.2,36,32.2c6,0,10.8-4.8,10.8-10.8S41.9,10.6,36,10.6z"/>
	<path fill="#D22F27" d="M39.7,31.5c4.1-1.5,7-5.5,7-10.1c0-4.7-3-8.7-7.2-10.2c0,0,3.1,4.4,3.1,10.2S39.7,31.5,39.7,31.5z"/>
	<path fill="#D0CFCE" d="M35.9,61l1.7-5.5V37.1c0-0.5,0.3-0.9,0.8-1h-5.2c0.4,0.1,0.8,0.5,0.8,1v18.4L35.9,61z"/>
	<path fill="#9B9B9A" d="M35.9,61l1.7-5.5V37.1c0-0.5,0.3-0.9,0.8-1h-2.6L35.9,61z"/>
	<g>
		<g>
			
				<circle fill="none" stroke="#000000" stroke-width="2" stroke-linecap="round" stroke-linejoin="round" stroke-miterlimit="10" cx="36" cy="21.4" r="11.8"/>
		</g>
		
			<polyline fill="none" stroke="#000000" stroke-width="2" stroke-linecap="round" stroke-linejoin="round" stroke-miterlimit="10" points="
			38.5,37.1 38.5,55.7 35.9,64.2 32.9,55.7 32.9,37.1 		"/>
	</g>
</g>
</svg>
