<?xml version="1.0" encoding="utf-8"?>
<!-- Generator: Adobe Illustrator 19.1.0, SVG Export Plug-In . SVG Version: 6.00 Build 0)  -->
<svg version="1.1" id="emoji" xmlns="http://www.w3.org/2000/svg" xmlns:xlink="http://www.w3.org/1999/xlink" x="0px" y="0px"
	 viewBox="0 0 72 72" enable-background="new 0 0 72 72" xml:space="preserve">
<g id="_xD83D__xDCCC_">
	<polygon fill="#EA5A47" points="31.4,9.8 30.8,13.6 37.1,13.6 36.9,9.8 	"/>
	<polygon fill="#D22F27" points="39,9.8 36.9,9.8 37.1,13.6 39.6,13.6 	"/>
	<path fill="#D0CECE" d="M32.8,40.2L32.8,40.2c0.1,0,0.2,0,0.2,0c0.6,0,1,0.4,1,1l0,14.6l1.8,4.8l-0.2-20.4H32.8z"/>
	<path fill="#9C9C9A" d="M35.8,60.7l1.4-4.8l0-14.6c0-0.6,0.4-1,1-1c0,0,0,0,0.1,0v0l-2.7,0L35.8,60.7z"/>
	<path fill="#D22F27" d="M38,31.8c0,0,1.4,1.2,2.3,2.6c0.7,1.2,0.9,1.8,0.9,1.9h5.4c-0.5-1-1.7-2.6-4.5-3.6
		c-0.3-0.1-0.6-0.4-0.7-0.8l-2.4-13.3c-0.1-0.5,0.3-1.1,0.8-1.2c0.5-0.1,0.9,0.2,1.1,0.7l-0.5-2.7l-3.3,0.1L38,30L38,31.8z"/>
	<path fill="#EA5A47" d="M40.3,34.4C39.5,33,38,31.8,38,31.8l0-1.9l-0.8-14.4h-7.1l-0.7,2.6c0,0,0,0,0,0c0.2-0.4,0.5-0.6,0.9-0.6
		c0.1,0,0.1,0,0.2,0c0.5,0.1,0.9,0.6,0.8,1.2L28.9,32c-0.1,0.4-0.3,0.6-0.7,0.8c-2.8,1-4,2.5-4.5,3.6h17.4
		C41.1,36.2,41,35.6,40.3,34.4z"/>
	<g>
		
			<polyline fill="none" stroke="#000000" stroke-width="2" stroke-linecap="round" stroke-linejoin="round" stroke-miterlimit="10" points="
			33.1,41.2 33.1,56 35.9,63.9 38.3,56 38.2,41.2 		"/>
		<path fill="none" stroke="#000000" stroke-width="2" stroke-linecap="round" stroke-linejoin="round" stroke-miterlimit="10" d="
			M30.3,18.6l-2.4,13.3c-5.2,1.8-5.5,5.5-5.5,5.5h25.5c0,0-0.3-3.7-5.5-5.5l-2.4-13.3"/>
		
			<polygon fill="none" stroke="#000000" stroke-width="2" stroke-linecap="round" stroke-linejoin="round" stroke-miterlimit="10" points="
			40.8,14.6 29.6,14.6 30.6,8.8 39.8,8.8 		"/>
	</g>
</g>
</svg>
