<?xml version="1.0" encoding="utf-8"?>
<!-- Generator: Adobe Illustrator 21.1.0, SVG Export Plug-In . SVG Version: 6.00 Build 0)  -->
<svg version="1.1" id="emoji" xmlns="http://www.w3.org/2000/svg" xmlns:xlink="http://www.w3.org/1999/xlink" x="0px" y="0px"
	 viewBox="0 0 72 72" enable-background="new 0 0 72 72" xml:space="preserve">
<g id="_xD83D__xDCCB_">
	<path fill="#A57939" d="M50.1,11c0,0-28.5,0-28.5,0c-1.7,0.3-4.8,1-4.8,1l0.3,52c0,1.1,1.6,3,2.7,3h32.8c1.1,0,2-2.3,2-3.4V12
		C54.7,12,50.1,11,50.1,11z"/>
	<path fill="#D0CECE" d="M33,11.2l-4.1,0.1c-1.6,0-3.3,2.4-3.8,3.9l21.5,0.3c-0.5-1.5-1.8-4.4-3.5-4.4l-3.8-0.3
		c-0.4,0-0.2-3.8-3.3-3.7C32.8,7.3,33.3,11.2,33,11.2z"/>
	<g>
		<path fill="#FFFFFF" d="M51.8,54.9v-0.2c0,0,0,0,0,0.1C51.8,54.9,51.8,54.9,51.8,54.9z"/>
	</g>
	<g>
		<path fill="#FFFFFF" d="M47.1,14.9c0,0.1-2.3,0.6-2.9,0.6c0,0-20.1-0.4-20.1-0.6h-3.1c0,0,0,0,0,0c0.2,0-0.2,46.5-0.2,46.5h22.5
			c0,0,7.4-6.4,7.4-6.5l-0.2-2.9l0.2-36.3c0-0.1,0-1,0-1H47.1z"/>
		<path fill="#FFFFFF" d="M42.7,57.1C42.8,57.1,42.8,57.1,42.7,57.1C42.8,57.1,42.8,57.1,42.7,57.1z"/>
		<path fill="#FFFFFF" d="M43,57.3c0.1,0,0.2,0.1,0.4,0.1C43.3,57.4,43.2,57.3,43,57.3z"/>
	</g>
	<g>
		<polygon fill="#D0CECE" points="50.5,55.2 45.8,54.9 43.7,54.8 42.4,56.4 42.4,60.4 43.4,61.4 		"/>
	</g>
	
		<polyline fill="none" stroke="#6A462F" stroke-width="2" stroke-linecap="round" stroke-linejoin="round" stroke-miterlimit="10" points="
		50.6,55.9 43.2,62.4 20.9,62.4 	"/>
	<g>
		<path fill="none" stroke="#000000" stroke-width="2" stroke-linecap="round" stroke-linejoin="round" stroke-miterlimit="10" d="
			M49.7,12h5v52c0,1.7-1.3,3-3,3H19.8c-1.7,0-3-1.3-3-3V12h4.6"/>
		
			<line fill="none" stroke="#000000" stroke-width="2" stroke-linecap="round" stroke-linejoin="round" stroke-miterlimit="10" x1="50.8" y1="15.8" x2="50.8" y2="55"/>
		
			<polyline fill="none" stroke="#000000" stroke-width="2" stroke-linecap="round" stroke-linejoin="round" stroke-miterlimit="10" points="
			43.4,56.4 43.4,55 50.8,55 43.4,61.4 20.9,61.4 20.9,15.8 		"/>
		
			<line fill="none" stroke="#000000" stroke-width="2" stroke-linecap="round" stroke-linejoin="round" stroke-miterlimit="10" x1="24.6" y1="22.6" x2="37.3" y2="22.6"/>
		
			<line fill="none" stroke="#000000" stroke-width="2" stroke-linecap="round" stroke-linejoin="round" stroke-miterlimit="10" x1="24.6" y1="26.6" x2="41.6" y2="26.6"/>
		
			<line fill="none" stroke="#000000" stroke-width="2" stroke-linecap="round" stroke-linejoin="round" stroke-miterlimit="10" x1="24.6" y1="30.6" x2="44.8" y2="30.6"/>
		
			<line fill="none" stroke="#000000" stroke-width="2" stroke-linecap="round" stroke-linejoin="round" stroke-miterlimit="10" x1="24.6" y1="34.6" x2="38.1" y2="34.6"/>
		
			<line fill="none" stroke="#000000" stroke-width="2" stroke-linecap="round" stroke-linejoin="round" stroke-miterlimit="10" x1="24.6" y1="38.6" x2="41" y2="38.6"/>
		
			<line fill="none" stroke="#000000" stroke-width="2" stroke-linecap="round" stroke-linejoin="round" stroke-miterlimit="10" x1="24.6" y1="42.6" x2="31.7" y2="42.6"/>
		<path fill="none" stroke="#000000" stroke-width="2" stroke-linecap="round" stroke-linejoin="round" stroke-miterlimit="10" d="
			M42.3,10.9h-3.8c0.1-0.3,0.2-0.7,0.2-1c0-1.5-1.2-2.7-2.7-2.7c-1.5,0-2.7,1.2-2.7,2.7c0,0.4,0.1,0.7,0.2,1h-4.1
			c-2.4,0-4.3,1.9-4.3,4.3h21.5C46.6,12.9,44.6,10.9,42.3,10.9z"/>
	</g>
</g>
</svg>
