<svg id="emoji" xmlns="http://www.w3.org/2000/svg" viewBox="0 0 72 72">
  <g id="color">
    <path fill="#9b9b9a" stroke="none" stroke-width="2" stroke-linecap="round" stroke-linejoin="round" stroke-miterlimit="10" d="M41,56c0,2.7614-2.2386,5-5,5s-5-2.2386-5-5"/>
    <path fill="#d0cfce" stroke="none" stroke-width="2" stroke-linecap="round" stroke-linejoin="round" stroke-miterlimit="10" d="M67.0015,56H4.9985C4.447,56,4,55.553,4,55.0015v-38.003C4,16.447,4.447,16,4.9985,16h62.003C67.553,16,68,16.447,68,16.9985 v38.003C68,55.553,67.553,56,67.0015,56z"/>
    <path fill="#FFFFFF" stroke="none" stroke-width="2" stroke-linecap="round" stroke-linejoin="round" stroke-miterlimit="10" d="M64.0015,51.625H7.9985C7.447,51.625,7,51.178,7,50.6265v-29.253c0-0.5514,0.447-0.9985,0.9985-0.9985h56.003 C64.553,20.375,65,20.822,65,21.3735v29.253C65,51.178,64.553,51.625,64.0015,51.625z"/>
  </g>
  <g id="hair"/>
  <g id="skin"/>
  <g id="skin-shadow"/>
  <g id="line">
    <path fill="none" stroke="#000000" stroke-width="2" stroke-linecap="round" stroke-linejoin="round" stroke-miterlimit="10" d="M41,56c0,2.7614-2.2386,5-5,5s-5-2.2386-5-5"/>
    <path fill="none" stroke="#000000" stroke-width="2" stroke-linecap="round" stroke-linejoin="round" stroke-miterlimit="10" d="M67.0015,56H4.9985C4.447,56,4,55.553,4,55.0015v-38.003C4,16.447,4.447,16,4.9985,16h62.003C67.553,16,68,16.447,68,16.9985 v38.003C68,55.553,67.553,56,67.0015,56z"/>
    <path fill="none" stroke="#000000" stroke-width="2" stroke-linecap="round" stroke-linejoin="round" stroke-miterlimit="10" d="M64.0015,51.625H7.9985C7.447,51.625,7,51.178,7,50.6265v-29.253c0-0.5514,0.447-0.9985,0.9985-0.9985h56.003 C64.553,20.375,65,20.822,65,21.3735v29.253C65,51.178,64.553,51.625,64.0015,51.625z"/>
    <line fill="none" stroke="#000000" stroke-width="2" stroke-linecap="round" stroke-linejoin="round" stroke-miterlimit="10" x1="36" y1="17" x2="36" y2="55"/>
    <line fill="none" stroke="#000000" stroke-width="2" stroke-linecap="round" stroke-linejoin="round" stroke-miterlimit="10" x1="11" y1="27" x2="31" y2="27"/>
    <line fill="none" stroke="#000000" stroke-width="2" stroke-linecap="round" stroke-linejoin="round" stroke-miterlimit="10" x1="11" y1="33" x2="31" y2="33"/>
    <line fill="none" stroke="#000000" stroke-width="2" stroke-linecap="round" stroke-linejoin="round" stroke-miterlimit="10" x1="11" y1="39" x2="31" y2="39"/>
    <line fill="none" stroke="#000000" stroke-width="2" stroke-linecap="round" stroke-linejoin="round" stroke-miterlimit="10" x1="11" y1="45" x2="31" y2="45"/>
    <line fill="none" stroke="#000000" stroke-width="2" stroke-linecap="round" stroke-linejoin="round" stroke-miterlimit="10" x1="41" y1="27" x2="61" y2="27"/>
    <line fill="none" stroke="#000000" stroke-width="2" stroke-linecap="round" stroke-linejoin="round" stroke-miterlimit="10" x1="41" y1="33" x2="61" y2="33"/>
    <line fill="none" stroke="#000000" stroke-width="2" stroke-linecap="round" stroke-linejoin="round" stroke-miterlimit="10" x1="41" y1="39" x2="61" y2="39"/>
    <line fill="none" stroke="#000000" stroke-width="2" stroke-linecap="round" stroke-linejoin="round" stroke-miterlimit="10" x1="41" y1="45" x2="61" y2="45"/>
  </g>
</svg>
