<?xml version="1.0" encoding="utf-8"?>
<!-- Generator: Adobe Illustrator 21.1.0, SVG Export Plug-In . SVG Version: 6.00 Build 0)  -->
<svg version="1.1" id="emoji" xmlns="http://www.w3.org/2000/svg" xmlns:xlink="http://www.w3.org/1999/xlink" x="0px" y="0px"
	 viewBox="0 0 72 72" enable-background="new 0 0 72 72" xml:space="preserve">
<g id="_xD83D__xDCD2_">
	<path fill="#FCEA2B" d="M60.1,57.1c0.6,0,1-0.5,1-1V12c0-0.6-0.5-1-1-1H16.2c-0.6,0-1,0.5-1,1v27.1l36.1,17.9H60.1z"/>
	<path fill="#FCEA2B" d="M60.1,56c0.6,0,1-0.4,1-1V12c0-0.6-0.4-1-1-1h-43c-0.6,0-1,0.4-1,1v44H60.1z"/>
	
		<path fill="#FCEA2B" stroke="#000000" stroke-width="2" stroke-linecap="round" stroke-linejoin="round" stroke-miterlimit="10" d="
		M16.1,12c0-0.6,0.4-1,1-1h43c0.6,0,1,0.4,1,1v43c0,0.6-0.4,1-1,1"/>
	
		<path fill="#F1B31C" stroke="#000000" stroke-width="2" stroke-linecap="round" stroke-linejoin="round" stroke-miterlimit="10" d="
		M55.1,61h-43c-0.6,0-1-0.4-1-1v-5.9V25.7v-3.2V17c0-0.6,0.4-1,1-1h43c0.6,0,1,0.4,1,1v43C56.1,60.6,55.7,61,55.1,61z"/>
	
		<line fill="none" stroke="#000000" stroke-width="2" stroke-linecap="round" stroke-linejoin="round" stroke-miterlimit="10" x1="7" y1="23.4" x2="15.7" y2="23.4"/>
	
		<line fill="none" stroke="#000000" stroke-width="2" stroke-linecap="round" stroke-linejoin="round" stroke-miterlimit="10" x1="7" y1="29.4" x2="15.7" y2="29.4"/>
	
		<line fill="none" stroke="#000000" stroke-width="2" stroke-linecap="round" stroke-linejoin="round" stroke-miterlimit="10" x1="7" y1="35.5" x2="15.7" y2="35.5"/>
	
		<line fill="none" stroke="#000000" stroke-width="2" stroke-linecap="round" stroke-linejoin="round" stroke-miterlimit="10" x1="15.7" y1="41.5" x2="7" y2="41.5"/>
	
		<line fill="none" stroke="#000000" stroke-width="2" stroke-linecap="round" stroke-linejoin="round" stroke-miterlimit="10" x1="7" y1="47.6" x2="15.7" y2="47.6"/>
	
		<line fill="none" stroke="#000000" stroke-width="2" stroke-linecap="round" stroke-linejoin="round" stroke-miterlimit="10" x1="7" y1="53.6" x2="15.7" y2="53.6"/>
</g>
</svg>
