<svg id="emoji" viewBox="0 0 72 72" xmlns="http://www.w3.org/2000/svg">
  <g id="color">
    <rect x="17.5625" y="12" width="42.4375" height="47.5" fill="#fcea2b"/>
    <rect x="18" y="12" width="42" height="47.5" fill="#b1cc33"/>
    <path fill="#5c9e31" d="m14.6754,12h1.6417c1.4776,0,2.6754,1.1978,2.6754,2.6754v42.1492c0,1.4776-1.1978,2.6754-2.6754,2.6754h-1.6417c-1.4776,0-2.1754-1.1978-2.1754-2.6754V14.6754c0-1.4776.6978-2.6754,2.1754-2.6754Z"/>
  </g>
  <g id="line">
    <line x1="18" x2="18" y1="13" y2="59" fill="none" stroke="#000" stroke-linecap="round" stroke-linejoin="round" stroke-width="2"/>
    <path fill="none" stroke="#000" stroke-linecap="round" stroke-linejoin="round" stroke-width="2" d="m62.9087,54.8149c.6677-.3369,1.0895-1.0203,1.0913-1.7682V9.0833c0-1.1506-.9327-2.0833-2.0833-2.0833H16.4591c-1.5975,0-3.0889.7996-3.9733,2.13h0c-.5776.8688-.3416,2.0413.5271,2.6189.3099.206.6737.316,1.0459.316h3.8086l2.1331-.0177h39.9162v48H14.0583c-1.0289.0008-1.8696-.8213-1.8916-1.85V10.575"/>
    <g>
      <polyline fill="none" stroke="#000" stroke-linecap="round" stroke-linejoin="round" stroke-width="2" points="39.533 27.219 39.533 34.219 42.533 34.219"/>
      <path fill="none" stroke="#000" stroke-linecap="round" stroke-linejoin="round" stroke-width="2" d="m33.7078,34.2187h0c-1.3807,0-2.5-1.1193-2.5-2.5v-2c0-1.3807,1.1193-2.5,2.5-2.5h0c1.3807,0,2.5,1.1193,2.5,2.5v2c0,1.3807-1.1193,2.5-2.5,2.5Z"/>
      <circle cx="45.5328" cy="34.2187" r="1"/>
      <polyline fill="none" stroke="#000" stroke-linecap="round" stroke-linejoin="round" stroke-width="2" points="28.416 27.29 26.898 34.29 26.208 34.29 25.537 34.29 24 27.29"/>
      <path fill="none" stroke="#000" stroke-linecap="round" stroke-linejoin="round" stroke-width="2" d="m49.4011,29.0073c.2058-.9997,1.0858-1.7171,2.1065-1.7173h0c.5703-.0006,1.1173.2262,1.52.63.5815.6406.5735,1.6205-.0185,2.2515l-3.6517,4.1185h4.3"/>
    </g>
  </g>
</svg>
