<?xml version="1.0" encoding="utf-8"?>
<!-- Generator: Adobe Illustrator 19.1.0, SVG Export Plug-In . SVG Version: 6.00 Build 0)  -->
<svg version="1.1" id="emoji" xmlns="http://www.w3.org/2000/svg" xmlns:xlink="http://www.w3.org/1999/xlink" x="0px" y="0px"
	 viewBox="0 0 72 72" enable-background="new 0 0 72 72" xml:space="preserve">
<g id="_xD83D__xDCD0_">
	<path fill="#D0CFCE" d="M18.1,17.1v36.6l35.4-36.5L18.1,17.1z M21.5,34.4v-13c0-0.3,0.1-0.5,0.3-0.7c0.1-0.1,0.2-0.2,0.3-0.2
		c0.1,0,0.3-0.1,0.4-0.1c0,0,0,0,0,0l0,0l12.6,0c0.1,0,0.2,0,0.3,0c0.3,0.1,0.5,0.3,0.6,0.6c0,0.1,0.1,0.2,0.1,0.3
		c0,0.3-0.1,0.6-0.3,0.8l-12.6,13l0,0l0,0c-0.2,0.2-0.5,0.3-0.7,0.3c-0.1,0-0.3,0-0.4-0.1c-0.3-0.1-0.5-0.3-0.6-0.6
		C21.6,34.6,21.5,34.5,21.5,34.4L21.5,34.4z M24.6,44c-0.2,0.2-0.5,0.3-0.7,0.3c-0.2,0-0.5-0.1-0.7-0.3l-1.3-1.2
		c-0.4-0.4-0.4-1,0-1.4c0.4-0.4,1-0.4,1.4,0l1.3,1.2C24.9,43,25,43.6,24.6,44z M27.4,41.2c-0.2,0.2-0.5,0.3-0.7,0.3
		c-0.2,0-0.5-0.1-0.7-0.3l-2.2-2.1c-0.4-0.4-0.4-1,0-1.4c0.4-0.4,1-0.4,1.4,0l2.2,2.1C27.8,40.2,27.8,40.8,27.4,41.2z M30.1,38.2
		c-0.2,0.2-0.5,0.3-0.7,0.3c-0.2,0-0.5-0.1-0.7-0.3L27.4,37c-0.4-0.4-0.4-1,0-1.4c0.4-0.4,1-0.4,1.4,0l1.3,1.2
		C30.5,37.2,30.5,37.8,30.1,38.2z M32.9,35.3c-0.2,0.2-0.5,0.3-0.7,0.3c-0.2,0-0.5-0.1-0.7-0.3l-1.3-1.2c-0.4-0.4-0.4-1,0-1.4
		c0.4-0.4,1-0.4,1.4,0l1.3,1.2C33.3,34.3,33.3,34.9,32.9,35.3z M35.7,32.5c-0.2,0.2-0.5,0.3-0.7,0.3c-0.2,0-0.5-0.1-0.7-0.3L33,31.2
		c-0.4-0.4-0.4-1,0-1.4c0.4-0.4,1-0.4,1.4,0l1.3,1.2C36.1,31.4,36.1,32.1,35.7,32.5z M38.5,29.6c-0.2,0.2-0.5,0.3-0.7,0.3
		c-0.2,0-0.5-0.1-0.7-0.3l-1.3-1.2c-0.4-0.4-0.4-1,0-1.4c0.4-0.4,1-0.4,1.4,0l1.3,1.2C38.8,28.6,38.8,29.2,38.5,29.6z M41.3,26.8
		c-0.2,0.2-0.5,0.3-0.7,0.3c-0.2,0-0.5-0.1-0.7-0.3l-2.2-2.1c-0.4-0.4-0.4-1,0-1.4c0.4-0.4,1-0.4,1.4,0l2.2,2.1
		C41.7,25.8,41.7,26.4,41.3,26.8z M43.3,24.1c-0.2,0-0.5-0.1-0.7-0.3l-1.3-1.2c-0.4-0.4-0.4-1,0-1.4c0.4-0.4,1-0.4,1.4,0l1.3,1.2
		c0.4,0.4,0.4,1,0,1.4C43.8,24,43.6,24.1,43.3,24.1z"/>
	<path fill="#9B9B9A" d="M53.5,17.1l-5.4,0l-4.7,4.8l0.5,0.5c0.4,0.4,0.4,1,0,1.4c-0.2,0.2-0.5,0.3-0.7,0.3c-0.2,0-0.5-0.1-0.7-0.3
		l-0.5-0.5l-1.4,1.4l0.6,0.6c0.4,0.4,0.4,1,0,1.4c-0.2,0.2-0.5,0.3-0.7,0.3c-0.2,0-0.5-0.1-0.7-0.3l-0.6-0.6l-1.4,1.4l0.6,0.5
		c0.4,0.4,0.4,1,0,1.4c-0.2,0.2-0.5,0.3-0.7,0.3c-0.2,0-0.5-0.1-0.7-0.3l-0.6-0.5l-1.4,1.4l0.6,0.5c0.4,0.4,0.4,1,0,1.4
		c-0.2,0.2-0.5,0.3-0.7,0.3c-0.2,0-0.5-0.1-0.7-0.3l-0.6-0.5l-1.4,1.4l0.6,0.6c0.4,0.4,0.4,1,0,1.4c-0.2,0.2-0.5,0.3-0.7,0.3
		c-0.2,0-0.5-0.1-0.7-0.3l-0.6-0.6l-1.4,1.4l0.6,0.6c0.4,0.4,0.4,1,0,1.4c-0.2,0.2-0.5,0.3-0.7,0.3c-0.2,0-0.5-0.1-0.7-0.3l-0.6-0.6
		l-1.4,1.4l0.7,0.7c0.4,0.4,0.4,1,0,1.4c-0.2,0.2-0.5,0.3-0.7,0.3c-0.2,0-0.5-0.1-0.7-0.3l-0.7-0.7L23.9,42l0.6,0.6
		c0.4,0.4,0.4,1,0,1.4c-0.2,0.2-0.5,0.3-0.7,0.3c-0.2,0-0.5-0.1-0.7-0.3l-0.6-0.6l-4.5,4.6v5.6L53.5,17.1z"/>
	<g id="_xD83D__xDCD0__2_">
		
			<polygon fill="none" stroke="#000000" stroke-width="2" stroke-linecap="round" stroke-linejoin="round" stroke-miterlimit="10" points="
			17.1,56.1 17.1,16.1 55.8,16.1 		"/>
		
			<polygon fill="none" stroke="#000000" stroke-width="2" stroke-linecap="round" stroke-linejoin="round" stroke-miterlimit="10" points="
			22.5,34.4 22.5,21.3 35.2,21.3 		"/>
		<g>
			
				<line fill="#D0CECE" stroke="#000000" stroke-width="2" stroke-linecap="round" stroke-linejoin="round" stroke-miterlimit="10" x1="23.9" y1="43.3" x2="22.6" y2="42"/>
			
				<line fill="#D0CECE" stroke="#000000" stroke-width="2" stroke-linecap="round" stroke-linejoin="round" stroke-miterlimit="10" x1="29.4" y1="37.5" x2="28.1" y2="36.3"/>
			
				<line fill="#D0CECE" stroke="#000000" stroke-width="2" stroke-linecap="round" stroke-linejoin="round" stroke-miterlimit="10" x1="32.2" y1="34.7" x2="30.9" y2="33.4"/>
			
				<line fill="#D0CECE" stroke="#000000" stroke-width="2" stroke-linecap="round" stroke-linejoin="round" stroke-miterlimit="10" x1="35" y1="31.8" x2="33.7" y2="30.5"/>
			
				<line fill="#D0CECE" stroke="#000000" stroke-width="2" stroke-linecap="round" stroke-linejoin="round" stroke-miterlimit="10" x1="37.7" y1="28.9" x2="36.4" y2="27.6"/>
			
				<line fill="#D0CECE" stroke="#000000" stroke-width="2" stroke-linecap="round" stroke-linejoin="round" stroke-miterlimit="10" x1="43.3" y1="23.1" x2="42" y2="21.9"/>
			
				<line fill="#D0CECE" stroke="#000000" stroke-width="2" stroke-linecap="round" stroke-linejoin="round" stroke-miterlimit="10" x1="26.7" y1="40.5" x2="24.5" y2="38.4"/>
			
				<line fill="#D0CECE" stroke="#000000" stroke-width="2" stroke-linecap="round" stroke-linejoin="round" stroke-miterlimit="10" x1="40.6" y1="26.1" x2="38.4" y2="24"/>
		</g>
	</g>
</g>
</svg>
