<svg id="emoji" xmlns="http://www.w3.org/2000/svg" viewBox="0 0 72 72">
  <g id="color">
    <polyline points="54.92 23 44 11.647 44 23" fill="#d0cfce"/>
    <polygon points="67 34 59.546 34 57.709 31.521 59.546 29.042 67 29.042 67 34" fill="#92d3f5"/>
    <polygon points="62 52.958 54.546 52.958 52.709 50.479 54.546 48 62 48 62 52.958" fill="#ea5a47"/>
  </g>
  <g id="line">
    <polyline points="60 28.75 60 17 49.319 17" fill="none" stroke="#000" stroke-linecap="round" stroke-linejoin="round" stroke-width="2"/>
    <line x1="60" y1="47.4999" x2="60" y2="34.417" fill="none" stroke="#000" stroke-linecap="round" stroke-linejoin="round" stroke-width="2"/>
    <polyline points="22 63.093 22 65 60 65 60 53.333" fill="none" stroke="#000" stroke-linecap="round" stroke-linejoin="round" stroke-width="2"/>
    <polyline points="55 48 55 22.681 44.319 12 17 12 17 60 55 60 55 53" fill="none" stroke="#000" stroke-linecap="round" stroke-linejoin="round" stroke-width="2"/>
    <polyline points="55 23 44.302 23 44.319 12" fill="none" stroke="#000" stroke-linecap="round" stroke-linejoin="round" stroke-width="2"/>
    <polygon points="67 34 59.546 34 57.709 31.521 59.546 29.042 67 29.042 67 34" fill="none" stroke="#000" stroke-linecap="round" stroke-linejoin="round" stroke-width="2"/>
    <polygon points="62 52.958 54.546 52.958 52.709 50.479 54.546 48 62 48 62 52.958" fill="none" stroke="#000" stroke-linecap="round" stroke-linejoin="round" stroke-width="2"/>
    <line x1="23" y1="21" x2="37" y2="21" fill="none" stroke="#000" stroke-linecap="round" stroke-linejoin="round" stroke-width="2"/>
    <line x1="23" y1="29" x2="49" y2="29" fill="none" stroke="#000" stroke-linecap="round" stroke-linejoin="round" stroke-width="2"/>
    <line x1="23" y1="36" x2="49" y2="36" fill="none" stroke="#000" stroke-linecap="round" stroke-linejoin="round" stroke-width="2"/>
    <line x1="23" y1="44" x2="49" y2="44" fill="none" stroke="#000" stroke-linecap="round" stroke-linejoin="round" stroke-width="2"/>
    <line x1="23" y1="52" x2="49" y2="52" fill="none" stroke="#000" stroke-linecap="round" stroke-linejoin="round" stroke-width="2"/>
  </g>
</svg>
