<svg id="emoji" xmlns="http://www.w3.org/2000/svg" viewBox="0 0 72 72">
  <g id="color">
    <path fill="#FCEA2B" d="M60.1001,57.0799c0.5632,0,1.0198-0.4576,1.0198-1.0222V12.0344c0-0.5645-0.4566-1.0222-1.0198-1.0222 h-43.922c-0.5632,0-1.0198,0.4576-1.0198,1.0222V39.163l36.0608,17.917H60.1001z" stroke="none"/>
    <path fill="#FCEA2B" d="M60.1214,56.0122c0.5514,0,0.9985-0.447,0.9985-0.9985v-43.003c0-0.5514-0.447-0.9985-0.9985-0.9985 h-43.003c-0.5514,0-0.9985,0.447-0.9985,0.9985v44.0015H60.1214z" stroke="none"/>
    <path fill="#FCEA2B" stroke="none" stroke-width="2" stroke-linecap="round" stroke-linejoin="round" stroke-miterlimit="10" d="M16.1199,12.0107c0-0.5514,0.447-0.9985,0.9985-0.9985h43.003c0.5514,0,0.9985,0.447,0.9985,0.9985v43.003 c0,0.5514-0.447,0.9985-0.9985,0.9985"/>
    <path fill="#F1B31C" stroke="none" stroke-width="2" stroke-linecap="round" stroke-linejoin="round" stroke-miterlimit="10" d="M55.1336,61h-43.003c-0.5514,0-0.9985-0.447-0.9985-0.9985v-5.8828V25.6668v-3.2316v-5.4367c0-0.5514,0.447-0.9985,0.9985-0.9985 h43.003c0.5514,0,0.9985,0.447,0.9985,0.9985v43.003C56.1321,60.553,55.685,61,55.1336,61z"/>
  </g>
  <g id="hair"/>
  <g id="skin"/>
  <g id="skin-shadow"/>
  <g id="line">
    <path fill="none" stroke="#000000" stroke-width="2" stroke-linecap="round" stroke-linejoin="round" stroke-miterlimit="10" d="M16.1199,12.0107c0-0.5514,0.447-0.9985,0.9985-0.9985h43.003c0.5514,0,0.9985,0.447,0.9985,0.9985v43.003 c0,0.5514-0.447,0.9985-0.9985,0.9985"/>
    <path fill="none" stroke="#000000" stroke-width="2" stroke-linecap="round" stroke-linejoin="round" stroke-miterlimit="10" d="M55.1336,61h-43.003c-0.5514,0-0.9985-0.447-0.9985-0.9985v-5.8828V25.6668v-3.2316v-5.4367c0-0.5514,0.447-0.9985,0.9985-0.9985 h43.003c0.5514,0,0.9985,0.447,0.9985,0.9985v43.003C56.1321,60.553,55.685,61,55.1336,61z"/>
    <line fill="none" stroke="#000000" stroke-width="2" stroke-linecap="round" stroke-linejoin="round" stroke-miterlimit="10" x1="7" y1="23.4114" x2="15.7116" y2="23.4114"/>
    <line fill="none" stroke="#000000" stroke-width="2" stroke-linecap="round" stroke-linejoin="round" stroke-miterlimit="10" x1="7" y1="29.4469" x2="15.7116" y2="29.4469"/>
    <line fill="none" stroke="#000000" stroke-width="2" stroke-linecap="round" stroke-linejoin="round" stroke-miterlimit="10" x1="7" y1="35.4823" x2="15.7116" y2="35.4823"/>
    <line fill="none" stroke="#000000" stroke-width="2" stroke-linecap="round" stroke-linejoin="round" stroke-miterlimit="10" x1="15.7116" y1="41.5177" x2="7" y2="41.5177"/>
    <line fill="none" stroke="#000000" stroke-width="2" stroke-linecap="round" stroke-linejoin="round" stroke-miterlimit="10" x1="7" y1="47.5532" x2="15.7116" y2="47.5532"/>
    <line fill="none" stroke="#000000" stroke-width="2" stroke-linecap="round" stroke-linejoin="round" stroke-miterlimit="10" x1="7" y1="53.5886" x2="15.7116" y2="53.5886"/>
  </g>
</svg>
