<svg id="emoji" viewBox="0 0 72 72" xmlns="http://www.w3.org/2000/svg">
  <g id="color">
    <path fill="#fff" d="m19.64,44.13l17.5701,1.1537c2.2294.1147,11.5148,2.6342,13.5707,3.5041l8.8592,4.2342V17.582l-11.4626,5.4053c-4.2491,1.6889-11.7209,2.7518-16.2754,3.1557l-12.262.581v17.406Z"/>
    <path fill="#d0cfce" d="m19.64,44.0667v-3.1828s25.39-.507,40,8.546l-.171,3.5013c-15.21-10.43-39.829-8.8645-39.829-8.8645"/>
    <path fill="#d22f27" d="m12.85,25.98h6.787v18.63h-6.787c-1.1046,0-2-.8954-2-2v-14.63c0-1.1046.8954-2,2-2Z"/>
    <rect x="59.64" y="15.29" rx="2" ry="2" width="6" height="40.01" fill="#ea5a47"/>
    <path fill="#9b9b9a" d="m19.636,44.92l.6284,4.031h-1.368s1.681,8.9161,1.681,8.9161h.75l.38,2.016-5.725.0758-2.835-15.04"/>
    <path fill="#ea5a47" d="m10.85,28.79h-2.485c-1.1046,0-2,.8954-2,2v8.922c0,1.1046.8954,2,2,2h2.485"/>
  </g>
  <g id="line">
    <path fill="none" stroke="#000" stroke-linecap="round" stroke-linejoin="round" stroke-width="2" d="m19.64,25.98s24.79,1.289,40-9.142"/>
    <path fill="none" stroke="#000" stroke-linecap="round" stroke-linejoin="round" stroke-width="2" d="m19.64,44.88s24.79-1.289,40,9.142"/>
    <path fill="none" stroke="#000" stroke-linecap="round" stroke-linejoin="round" stroke-width="2" d="m12.85,25.98h6.787v18.63h-6.787c-1.1046,0-2-.8954-2-2v-14.63c0-1.1046.8954-2,2-2Z"/>
    <rect x="59.64" y="15.29" rx="2" ry="2" width="6" height="40.01" fill="none" stroke="#000" stroke-linecap="round" stroke-linejoin="round" stroke-width="2"/>
    <path fill="none" stroke="#000" stroke-linecap="round" stroke-linejoin="round" stroke-width="2" d="m19.636,44.92l.8766,4.648h-1.5l1.564,8.299h.4996l.38,2.016-5.475.0758-2.835-15.04"/>
    <path fill="none" stroke="#000" stroke-linecap="round" stroke-linejoin="round" stroke-width="2" d="m19.64,25.98s24.79,1.289,40-9.142"/>
    <path fill="none" stroke="#000" stroke-linecap="round" stroke-linejoin="round" stroke-width="2" d="m19.64,44.88s24.79-1.289,40,9.142"/>
    <path fill="none" stroke="#000" stroke-linecap="round" stroke-linejoin="round" stroke-width="2" d="m10.85,28.79h-2.485c-1.1046,0-2,.8954-2,2v8.922c0,1.1046.8954,2,2,2h2.485"/>
    <line x1="13.64" x2="16.64" y1="41" y2="41" fill="none" stroke="#000" stroke-linecap="round" stroke-linejoin="round" stroke-width="2"/>
  </g>
</svg>
