<?xml version="1.0" encoding="utf-8"?>
<!-- Generator: Adobe Illustrator 19.1.0, SVG Export Plug-In . SVG Version: 6.00 Build 0)  -->
<svg version="1.1" id="emoji" xmlns="http://www.w3.org/2000/svg" xmlns:xlink="http://www.w3.org/1999/xlink" x="0px" y="0px"
	 viewBox="0 0 72 72" enable-background="new 0 0 72 72" xml:space="preserve">
<g id="_xD83D__xDCE6__xFE0F_">
	
		<path fill="#C99D66" stroke="#1D1D1B" stroke-width="2" stroke-linecap="round" stroke-linejoin="round" stroke-miterlimit="10" d="
		M61.7,12v48c0,0.5-0.5,1-1,1h-48c-0.5,0-1-0.5-1-1V12c0-0.5,0.5-1,1-1h48C61.2,11,61.7,11.4,61.7,12z"/>
	<path fill="#1D1D1B" stroke="#1D1D1B" stroke-width="2" stroke-miterlimit="10" d="M41.9,29.4H31.4c-1.6,0-2.9-1.3-2.9-2.9v0
		c0-1.6,1.3-2.9,2.9-2.9h10.5c1.6,0,2.9,1.3,2.9,2.9v0C44.8,28.1,43.5,29.4,41.9,29.4z"/>
	
		<path fill="#DBC1A5" stroke="#1D1D1B" stroke-width="2" stroke-linecap="round" stroke-linejoin="round" stroke-miterlimit="10" d="
		M44.8,58.6V61H28.5v-2.4c0-1.1,1.4-2,3-2h10.3C43.5,56.6,44.8,57.5,44.8,58.6z"/>
	
		<path fill="#DBC1A5" stroke="#1D1D1B" stroke-width="2" stroke-linecap="round" stroke-linejoin="round" stroke-miterlimit="10" d="
		M44.8,12v5.2c0,1.1-1.3,1.9-3,1.9H31.4c-1.6,0-3-0.9-3-1.9V12"/>
</g>
</svg>
