<?xml version="1.0" encoding="utf-8"?>
<!-- Generator: Adobe Illustrator 19.1.0, SVG Export Plug-In . SVG Version: 6.00 Build 0)  -->
<svg version="1.1" id="emoji" xmlns="http://www.w3.org/2000/svg" xmlns:xlink="http://www.w3.org/1999/xlink" x="0px" y="0px"
	 viewBox="0 0 72 72" enable-background="new 0 0 72 72" xml:space="preserve">
<g id="_xD83D__xDCE1__1_">
	<g>
		<path fill="#D0CFCE" d="M13.8,31.5l3.1,0v-1.1h-3.1c0,0.1-0.1,0.3-0.1,0.5C13.8,31.2,13.8,31.4,13.8,31.5z"/>
		<path fill="#D0CFCE" d="M13.5,31.5C13.5,31.5,13.5,31.5,13.5,31.5L13.5,31.5C13.5,31.5,13.5,31.5,13.5,31.5z"/>
	</g>
	<polygon fill="#9A9A99" points="51.2,59 53.8,39.2 52.6,39.2 49.9,59 	"/>
	<g>
		<path fill="#D0CFCE" d="M47.6,29.4c0.1,0.5,0.1,1,0.1,1.6C47.7,30.4,47.7,29.9,47.6,29.4z"/>
		<path fill="#D0CFCE" d="M47.6,29.4c-0.7-6.7-6.2-11.9-12.9-12.4v24.8C41.5,41.3,46.9,36,47.6,29.4z"/>
	</g>
	<path fill="#9A9A99" d="M34.7,41.8v3.1c7.3-0.5,13-6.6,13-14c0-0.5,0-1-0.1-1.6C46.9,36,41.5,41.3,34.7,41.8z"/>
	<g>
		<path fill="#3F3F3F" d="M52.7,27l-3.4,0c0.3,1.3,0.5,2.6,0.5,4c0,1.4-0.2,2.7-0.5,4h3.1l0,0c-0.5-0.1-0.8-0.5-0.8-1
			c0-0.5,0.5-1,1-1c0,0,0,0,0.1,0c0.5,0,1-0.2,1.4-0.6c0.4-0.4,0.6-0.9,0.6-1.4c0-0.3,0-0.5-0.1-0.8c0,0,0,0,0,0
			c0-0.1-0.1-0.2-0.2-0.3c0,0-0.1-0.1-0.1-0.1c0-0.1-0.1-0.1-0.1-0.2c0,0-0.1-0.1-0.1-0.1c-0.1,0-0.1-0.1-0.2-0.1
			c-0.2-0.1-0.4-0.2-0.6-0.3c0,0,0,0-0.1,0c-0.1,0-0.2,0-0.4,0c0,0,0,0,0,0c-0.6,0-1-0.5-1-1C51.7,27.4,52.1,27,52.7,27z"/>
		<polygon fill="#3F3F3F" points="52.7,27 52.7,27 52.7,27 		"/>
	</g>
	<g>
		<path fill="none" stroke="#000000" stroke-width="2" stroke-linecap="round" stroke-linejoin="round" stroke-miterlimit="10" d="
			M33.7,45.9c8.3,0,15-6.7,15-15c0-8.3-6.7-15-15-15V45.9z"/>
		<path fill="none" stroke="#000000" stroke-width="2" stroke-linecap="round" stroke-linejoin="round" stroke-miterlimit="10" d="
			M52.6,28c1.7,0,3,1.4,2.9,3.1c0,1.7-1.4,3-3.1,2.9"/>
		<path fill="none" stroke="#000000" stroke-width="2" stroke-linecap="round" stroke-linejoin="round" stroke-miterlimit="10" d="
			M17.9,32.5h-4.4c0,0-0.7,0-0.7-1.5c0-1.6,0.7-1.5,0.7-1.5h4.4V32.5z"/>
		
			<line fill="none" stroke="#000000" stroke-width="2" stroke-linecap="round" stroke-linejoin="round" stroke-miterlimit="10" x1="24.1" y1="30.9" x2="33.7" y2="30.9"/>
		
			<line fill="none" stroke="#000000" stroke-width="2" stroke-linecap="round" stroke-linejoin="round" stroke-miterlimit="10" x1="22.1" y1="27.6" x2="33.7" y2="15.9"/>
		
			<line fill="none" stroke="#000000" stroke-width="2" stroke-linecap="round" stroke-linejoin="round" stroke-miterlimit="10" x1="22.2" y1="34.3" x2="33.7" y2="45.9"/>
		
			<line fill="none" stroke="#000000" stroke-width="2" stroke-linecap="round" stroke-linejoin="round" stroke-miterlimit="10" x1="40.2" y1="60" x2="58.8" y2="60"/>
		
			<polyline fill="none" stroke="#000000" stroke-width="2" stroke-linecap="round" stroke-linejoin="round" stroke-miterlimit="10" points="
			48.8,60 51.7,38.2 55,38.2 52,60 		"/>
	</g>
</g>
</svg>
