<?xml version="1.0" encoding="utf-8"?>
<!-- Generator: Adobe Illustrator 19.1.0, SVG Export Plug-In . SVG Version: 6.00 Build 0)  -->
<svg version="1.1" id="emoji" xmlns="http://www.w3.org/2000/svg" xmlns:xlink="http://www.w3.org/1999/xlink" x="0px" y="0px"
	 viewBox="0 0 72 72" enable-background="new 0 0 72 72" xml:space="preserve">
<g id="_xD83D__xDCF7__xFE0F_">
	<path fill="#3F3F3F" d="M33.9,28.6c-5,0-9,4-9,9s4,9,9,9s9-4,9-9S38.8,28.6,33.9,28.6z M33.9,43.6c-3.3,0-6-2.7-6-6
		c0-3.3,2.7-6,6-6c3.3,0,6,2.7,6,6C39.9,40.9,37.2,43.6,33.9,43.6z"/>
	<path fill="#D0CFCE" d="M33.9,33.6c-2.2,0-4,1.8-4,4c0,2.2,1.8,4,4,4c2.2,0,4-1.8,4-4C37.9,35.4,36.1,33.6,33.9,33.6z"/>
	<path fill="#FFFFFF" d="M56.9,23.9H15.3c-1.2,0-2.1,0.9-2.1,2.1v6.2h7.2h1.4h2.6c0,0,0,0,0,0.1c1.9-3.4,5.5-5.7,9.6-5.7
		c4.2,0,7.8,2.3,9.6,5.7c0,0,0-0.1,0-0.1c0,0,0,0,0,0h2.6h1h11.9V26C59.1,24.8,58.1,23.9,56.9,23.9z"/>
	<path fill="#F1B31C" d="M28.8,19.2c0,0.3-0.1,0.5-0.3,0.7c0,0,0,0-0.1,0c-0.1,0.1-0.2,0.1-0.2,0.2c-0.1,0-0.2,0.1-0.4,0.1
		c-0.6,0-1-0.4-1-1V18l-7.7,0l0,1.1c0,0.6-0.4,1-1,1c-0.1,0-0.2,0-0.3-0.1c0,0-0.1,0-0.1-0.1c-0.1,0-0.1-0.1-0.2-0.1
		c0,0-0.1-0.1-0.1-0.1c0,0-0.1-0.1-0.1-0.1c0-0.1-0.1-0.1-0.1-0.2v2.5h11.7V19.2z"/>
	<path fill="#9B9B9A" d="M57,51.3c0.1,0,0.3,0,0.4,0c0,0,0,0,0,0c0.1,0,0.3-0.1,0.4-0.1c0,0,0.1,0,0.1-0.1c0.1,0,0.2-0.1,0.2-0.1
		c0,0,0.1-0.1,0.1-0.1c0.1,0,0.1-0.1,0.2-0.1c0,0,0.1-0.1,0.1-0.1c0.1-0.1,0.1-0.1,0.1-0.2c0,0,0.1-0.1,0.1-0.1
		c0-0.1,0.1-0.1,0.1-0.2c0,0,0-0.1,0.1-0.1c0-0.1,0.1-0.2,0.1-0.2c0,0,0-0.1,0-0.1c0-0.1,0-0.3,0-0.4v-15H47.2h0c-0.6,0-1-0.4-1-1
		c0-0.6,0.4-1,1-1h-3.7c0,0,0,0,0,0c0,0,0,0,0,0c0.2,0.4,0.4,0.8,0.6,1.2c0,0,0,0.1,0,0.1c0.1,0.4,0.3,0.7,0.4,1.1
		c0,0.1,0.1,0.2,0.1,0.3c0.1,0.3,0.1,0.6,0.2,1c0,0.1,0,0.2,0.1,0.4c0.1,0.4,0.1,0.9,0.1,1.3c0,0,0,0,0,0c0,0.4,0,0.7-0.1,1
		c0,0.1,0,0.2,0,0.3c0,0.2-0.1,0.5-0.1,0.7c0,0.1-0.1,0.3-0.1,0.4c0,0.2-0.1,0.4-0.2,0.6c0,0.1-0.1,0.3-0.1,0.4
		c-0.1,0.2-0.1,0.4-0.2,0.6C44,41.8,44,41.9,43.9,42c-0.1,0.2-0.2,0.4-0.3,0.6c-0.1,0.1-0.1,0.2-0.2,0.3c-0.1,0.2-0.2,0.4-0.4,0.6
		c-0.1,0.1-0.1,0.2-0.2,0.3c-0.2,0.3-0.4,0.5-0.6,0.8c-0.4,0.5-0.9,1-1.5,1.5c-0.3,0.2-0.5,0.4-0.8,0.6c-0.1,0.1-0.2,0.1-0.3,0.2
		c-0.2,0.1-0.4,0.2-0.6,0.4c-0.1,0.1-0.2,0.1-0.3,0.2c-0.2,0.1-0.4,0.2-0.6,0.3c-0.1,0.1-0.3,0.1-0.4,0.2c-0.2,0.1-0.4,0.1-0.6,0.2
		c-0.1,0-0.3,0.1-0.4,0.1c-0.2,0.1-0.4,0.1-0.6,0.2c-0.1,0-0.3,0.1-0.4,0.1c-0.2,0-0.5,0.1-0.7,0.1c-0.1,0-0.2,0-0.3,0
		c-0.3,0-0.7,0.1-1,0.1c0,0,0,0,0,0c0,0,0,0,0,0c-0.3,0-0.7,0-1-0.1c-0.1,0-0.2,0-0.3,0c-0.2,0-0.4-0.1-0.6-0.1
		c-0.1,0-0.3-0.1-0.4-0.1c-0.2,0-0.4-0.1-0.5-0.1c-0.1,0-0.3-0.1-0.4-0.1c-0.1,0-0.2-0.1-0.3-0.1c-0.4-0.1-0.7-0.3-1.1-0.4
		c-0.1,0-0.1-0.1-0.2-0.1c-0.2-0.1-0.4-0.2-0.6-0.3c-0.1,0-0.1-0.1-0.2-0.1c-0.6-0.3-1.1-0.7-1.6-1.2c0,0-0.1-0.1-0.1-0.1
		c-0.3-0.3-0.6-0.5-0.8-0.8c0,0,0-0.1-0.1-0.1c-0.6-0.6-1-1.3-1.4-2.1c0,0,0,0,0-0.1c-0.2-0.3-0.3-0.7-0.5-1c0-0.1-0.1-0.2-0.1-0.3
		c-0.1-0.3-0.2-0.6-0.3-0.8c0-0.1-0.1-0.3-0.1-0.4c-0.1-0.3-0.1-0.6-0.2-0.9c0-0.1,0-0.2-0.1-0.4c0-0.4-0.1-0.8-0.1-1.3c0,0,0,0,0,0
		c0,0,0,0,0,0c0-0.4,0-0.9,0.1-1.3c0-0.1,0-0.2,0.1-0.3c0.1-0.3,0.1-0.7,0.2-1c0-0.1,0-0.2,0.1-0.3c0.2-0.9,0.6-1.7,1-2.4
		c0,0,0,0,0,0h-3.6c0.6,0,1,0.4,1,1c0,0.6-0.4,1-1,1h-0.7h-6.8v15c0,0.1,0,0.3,0,0.4c0.1,0.5,0.4,1,0.9,1.3c0.1,0.1,0.2,0.1,0.4,0.2
		c0.2,0.1,0.5,0.2,0.8,0.2c0,0,0,0,0,0L57,51.3C56.9,51.3,57,51.3,57,51.3z"/>
	<g>
		<path fill="none" stroke="#000000" stroke-width="2" stroke-linecap="round" stroke-linejoin="round" stroke-miterlimit="10" d="
			M15.3,22.9c-1.7,0-3.1,1.4-3.1,3.1v23.2c0,1.7,1.4,3.1,3.1,3.1h41.7c1.7,0,3.1-1.4,3.1-3.1V26c0-1.7-1.4-3.1-3.1-3.1H15.3z"/>
		
			<line fill="none" stroke="#000000" stroke-width="2" stroke-linecap="round" stroke-linejoin="round" stroke-miterlimit="10" x1="47.2" y1="33.2" x2="59.6" y2="33.2"/>
		
			<line fill="none" stroke="#000000" stroke-width="2" stroke-linecap="round" stroke-linejoin="round" stroke-miterlimit="10" x1="12.6" y1="33.2" x2="20.6" y2="33.2"/>
		
			<circle fill="none" stroke="#000000" stroke-width="2" stroke-linecap="round" stroke-linejoin="round" stroke-miterlimit="10" cx="33.9" cy="37.6" r="10"/>
		
			<circle fill="none" stroke="#000000" stroke-width="2" stroke-linecap="round" stroke-linejoin="round" stroke-miterlimit="10" cx="33.9" cy="37.6" r="5"/>
		<path fill="none" stroke="#000000" stroke-width="2" stroke-linecap="round" stroke-linejoin="round" stroke-miterlimit="10" d="
			M27.8,19.1V18c0-0.6-0.5-1-1-1h-7.7c-0.6,0-1,0.5-1,1v1.1"/>
	</g>
</g>
</svg>
