<?xml version="1.0" encoding="utf-8"?>
<!-- Generator: Adobe Illustrator 19.1.0, SVG Export Plug-In . SVG Version: 6.00 Build 0)  -->
<svg version="1.1" id="emoji" xmlns="http://www.w3.org/2000/svg" xmlns:xlink="http://www.w3.org/1999/xlink" x="0px" y="0px"
	 viewBox="0 0 72 72" enable-background="new 0 0 72 72" xml:space="preserve">
<g id="_xD83D__xDCF9__xFE0F_">
	<path fill="#D0CFCE" d="M54.8,32.2l2.1,0c0,0,0,0,0,0v0l-5.2,0v21l3.2,0c-0.5,0-1-0.4-1-1c0-0.6,0.4-1,1-1l1.1,0v-17l-1.1,0
		c0,0,0,0,0,0c-0.6,0-1-0.4-1-1C53.8,32.7,54.2,32.2,54.8,32.2z"/>
	<polygon fill="#D0CFCE" points="55.3,53.2 56.8,53.2 56.8,53.2 	"/>
	<path fill="#3F3F3F" d="M56.1,25l-5.3-6.1l-4.4,3.3h4.1c0.6,0,1,0.4,1,1v5.3L56.1,25z"/>
	<polygon fill="#3F3F3F" points="52.2,17.4 58,24.1 60.9,23.6 54.4,13.4 	"/>
	<path fill="#9B9B9A" d="M44.3,49V33.3c0-1.1-0.9-2-2-2H24.7V51h17.6C43.4,51,44.3,50.1,44.3,49z M34.3,49.3c-3.3,0-6-2.7-6-6
		c0-3.3,2.7-6,6-6s6,2.7,6,6C40.3,46.6,37.6,49.3,34.3,49.3z"/>
	<path fill="#D0CFCE" d="M34.3,47.3c2.2,0,4-1.8,4-4c0-2.2-1.8-4-4-4c-2.2,0-4,1.8-4,4C30.3,45.5,32.1,47.3,34.3,47.3z"/>
	<rect x="12.7" y="21.5" fill="#3F3F3F" width="1.6" height="16.9"/>
	<path fill="#D0CFCE" d="M37.6,23.3v-1.8H16.4c0,0.1,0,0.3-0.1,0.4v17.5V55h33.3V24.3h-11l0,0C38,24.3,37.6,23.8,37.6,23.3z
		 M42.3,29.3L42.3,29.3c2.2,0,4,1.8,4,4V49c0,2.2-1.8,4-4,4l0,0H23.7c-0.6,0-1-0.4-1-1V30.3c0-0.6,0.4-1,1-1H42.3z"/>
	<g>
		
			<line fill="none" stroke="#000000" stroke-width="2" stroke-linecap="round" stroke-linejoin="round" stroke-miterlimit="10" x1="57.6" y1="25.1" x2="51" y2="30.3"/>
		
			<line fill="none" stroke="#000000" stroke-width="2" stroke-linecap="round" stroke-linejoin="round" stroke-miterlimit="10" x1="43.9" y1="23" x2="51" y2="17.6"/>
		
			<polygon fill="none" stroke="#000000" stroke-width="2" stroke-linecap="round" stroke-linejoin="round" stroke-miterlimit="10" points="
			51,17.6 57.6,25.1 62.6,24.3 54.3,11.4 		"/>
		
			<polyline fill="none" stroke="#000000" stroke-width="2" stroke-linecap="round" stroke-linejoin="round" stroke-miterlimit="10" points="
			15.3,39.4 15.3,56 50.6,56 50.6,23.3 38.6,23.3 38.6,20.5 15.5,20.5 		"/>
		
			<polyline fill="none" stroke="#000000" stroke-width="2" stroke-linecap="round" stroke-linejoin="round" stroke-miterlimit="10" points="
			54.8,33.2 56.8,33.2 56.8,52.2 54.8,52.2 		"/>
		<path fill="none" stroke="#000000" stroke-width="2" stroke-linecap="round" stroke-linejoin="round" stroke-miterlimit="10" d="
			M42.3,52H23.7V30.3h18.6c1.7,0,3,1.3,3,3V49C45.3,50.7,44,52,42.3,52z"/>
		
			<circle fill="none" stroke="#000000" stroke-width="2" stroke-linecap="round" stroke-linejoin="round" stroke-miterlimit="10" cx="34.3" cy="43.3" r="5"/>
		
			<rect x="11.7" y="20.5" fill="none" stroke="#000000" stroke-width="2" stroke-linecap="round" stroke-linejoin="round" stroke-miterlimit="10" width="3.6" height="18.9"/>
	</g>
</g>
</svg>
