<svg id="emoji" xmlns="http://www.w3.org/2000/svg" viewBox="0 0 72 72">
  
  <g id="color">
    <polygon fill="#F1B31C" points="37.3037,56.9264 38.6067,53.2677 42.4051,53.5098 42.7217,57.9283 	" stroke="none"></polygon>
    <polyline fill="#F1B31C" points="41.5621,55.2169 42.4051,65.9918 35.281,64.8074 39.0648,54.9973 		" stroke="none"></polyline>
    <circle fill="#FCEA2B" cx="40.4665" cy="54" r="2" stroke="none"></circle>
    <path fill="none" stroke="#D22F27" stroke-width="4" stroke-linecap="round" stroke-linejoin="round" stroke-dasharray="0,6.7346,0,0,0,0" d="
				M47.6095,12.8474c1.1383,11.1934-2.5564,14.3792,7.9682,15.4424c10.5246,1.0632,0.6967,20.0417-13.9754,20.0417
				c-14.6721,0-16.3637-10.2514-12.1898-14.4253c4.1738-4.1738-3.1185-6.2607-4.3102-4.1738
				c-1.1917,2.0869-17.9028,0.1524-9.9347-10.6242S46.4711,1.654,47.6095,12.8474z"></path>
    <polyline fill="#F1B31C" stroke="none" stroke-width="2" stroke-linecap="round" stroke-linejoin="round" stroke-miterlimit="10" points="
			41.7833,58.045 42.4051,65.9918 35.281,64.8074 38.124,57.4366 		"></polyline>
  </g>
  <g id="hair">
  </g>
  <g id="skin">
  </g>
  <g id="skin-shadow">
  </g>
  <g id="line">
    <polyline fill="none" stroke="#000000" stroke-width="2" stroke-linecap="round" stroke-linejoin="round" stroke-miterlimit="10" points="
			41.7833,58.045 42.4051,65.9918 35.281,64.8074 38.124,57.4366 		"></polyline>
  </g>
</svg>