<?xml version="1.0" encoding="utf-8"?>
<!-- Generator: Adobe Illustrator 19.1.0, SVG Export Plug-In . SVG Version: 6.00 Build 0)  -->
<svg version="1.1" id="emoji" xmlns="http://www.w3.org/2000/svg" xmlns:xlink="http://www.w3.org/1999/xlink" x="0px" y="0px"
	 viewBox="0 0 72 72" enable-background="new 0 0 72 72" xml:space="preserve">
<g id="_xD83D__xDCFC_">
	<path fill="#D0CFCE" d="M6.3,18.1v33.8c0,1.1,0.9,2,2,2h55.6c1.1,0,2-0.9,2-2V18.1H6.3z M23.7,47.8c0,0.6-0.4,1-1,1
		c-5.4,0-9.7-4.4-9.7-9.7s4.4-9.7,9.7-9.7c0.6,0,1,0.4,1,1V47.8z M15.8,25.8c0-0.6,0.4-1,1-1h39.3c0.6,0,1,0.4,1,1c0,0.6-0.4,1-1,1
		H16.8C16.2,26.8,15.8,26.3,15.8,25.8z M45.6,45.5c0,0.6-0.4,1-1,1H27.1c-0.6,0-1-0.4-1-1V31.9c0-0.6,0.4-1,1-1h17.6
		c0.6,0,1,0.4,1,1V45.5z M49.2,48.8c-0.6,0-1-0.4-1-1V30.3c0-0.6,0.4-1,1-1c5.4,0,9.7,4.4,9.7,9.7S54.5,48.8,49.2,48.8z M62,28.1
		c0,0.6-0.4,1-1,1c-0.6,0-1-0.4-1-1v-6H12v6c0,0.6-0.4,1-1,1c-0.6,0-1-0.4-1-1v-7c0-0.6,0.4-1,1-1h50c0.6,0,1,0.4,1,1V28.1z"/>
	<line fill="none" x1="16.8" y1="27" x2="56.1" y2="27"/>
	<polyline fill="none" points="11,28.1 11,21.1 61,21.1 61,28.1 	"/>
	<path fill="#FFFFFF" d="M49.2,42.8c2.1,0,3.8-1.7,3.8-3.8c0-2.1-1.7-3.8-3.8-3.8V42.8z"/>
	<rect x="28.1" y="32.9" fill="#FCEA2B" width="15.6" height="11.6"/>
	<g>
		<path fill="#FFFFFF" d="M52,39.1c0-1.2-0.7-2.2-1.8-2.6v5.2C51.2,41.2,52,40.2,52,39.1z"/>
	</g>
	<g>
		<path fill="#FFFFFF" d="M19.9,39.1c0,1.2,0.7,2.2,1.8,2.6v-5.2C20.6,36.9,19.9,37.9,19.9,39.1z"/>
	</g>
	<path fill="#D0CFCE" d="M16.2,36.3c-0.7,1.1-1.3,2.7-1.3,2.7c0,3.9,2.9,7.1,6.7,7.6v-3c-2.2-0.5-3.8-2.4-3.8-4.7
		c0-2.3,1.6-4.2,3.8-4.7v-1.7c0,0-1.2,0.1-2.5,0.8C18,34.1,16.9,35.2,16.2,36.3z"/>
	<path fill="#D0CFCE" d="M56.4,36.4c0,0-0.5-0.7-1.1-1.3c-0.3-0.3-0.7-0.7-1-1c-1.2-0.9-2.5-1.4-2.5-1.4L51.7,35l0.1,0
		c1.3,0.8,2.2,2.3,2.2,4c0,1.6-0.8,3-2,3.9l0,0l0,3.3c2.9-1.1,4.9-3.9,4.9-7.2C56.9,38.1,56.7,37.3,56.4,36.4z"/>
	<g>
		<g>
			<path fill="#9B9B9A" d="M21.7,32.7v-1.3c-3.8,0.5-6.7,3.7-6.7,7.6c0,0,0.6-1.6,1.3-2.7c0.7-1.1,1.8-2.3,3-2.9
				C20.5,32.8,21.7,32.7,21.7,32.7z"/>
		</g>
		<path fill="#9B9B9A" d="M52,46.2c-0.6,0.2-1.2,0.4-1.8,0.5v-3c0.7-0.1,1.3-0.4,1.8-0.8L52,46.2z"/>
		<path fill="#9B9B9A" d="M56.4,36.5c-1-2.7-3.4-4.7-6.3-5v3c0.5,0.1,1,0.3,1.5,0.6l0.1-2.2c0,0,1.3,0.5,2.5,1.4
			C55.5,35.1,56.4,36.5,56.4,36.5z"/>
	</g>
	<g>
		<path fill="#9B9B9A" d="M60,22.1H12v6c0,0.4-0.3,0.8-0.6,0.9c0,0,1.8,0.2,1.8-0.9c0-1.1,0-4.8,0-4.8H60V22.1z"/>
		<polygon fill="#9B9B9A" points="62,21.1 62,21.1 62,21.1 		"/>
	</g>
	<g>
		<path fill="none" stroke="#000000" stroke-width="2" stroke-linecap="round" stroke-linejoin="round" stroke-miterlimit="10" d="
			M63.8,54.9H8.3c-1.7,0-3-1.3-3-3V17.1h61.6v34.8C66.8,53.6,65.5,54.9,63.8,54.9z"/>
		<path fill="none" stroke="#000000" stroke-width="2" stroke-linecap="round" stroke-linejoin="round" stroke-miterlimit="10" d="
			M22.7,30.3c-4.8,0-8.7,3.9-8.7,8.7s3.9,8.7,8.7,8.7V30.3z"/>
		<path fill="none" stroke="#000000" stroke-width="2" stroke-linecap="round" stroke-linejoin="round" stroke-miterlimit="10" d="
			M49.2,47.8c4.8,0,8.7-3.9,8.7-8.7s-3.9-8.7-8.7-8.7V47.8z"/>
		<path fill="none" stroke="#000000" stroke-width="2" stroke-linecap="round" stroke-linejoin="round" stroke-miterlimit="10" d="
			M22.7,35.3c-2.1,0-3.8,1.7-3.8,3.8c0,2.1,1.7,3.8,3.8,3.8V35.3z"/>
		
			<rect x="27.1" y="31.9" fill="none" stroke="#000000" stroke-width="2" stroke-linecap="round" stroke-linejoin="round" stroke-miterlimit="10" width="17.6" height="13.6"/>
		
			<polyline fill="none" stroke="#000000" stroke-width="2" stroke-linecap="round" stroke-linejoin="round" stroke-miterlimit="10" points="
			11,28.1 11,21.1 61,21.1 61,28.1 		"/>
		<path fill="none" stroke="#000000" stroke-width="2" stroke-linecap="round" stroke-linejoin="round" stroke-miterlimit="10" d="
			M49.2,42.8c2.1,0,3.8-1.7,3.8-3.8c0-2.1-1.7-3.8-3.8-3.8V42.8z"/>
		
			<line fill="none" stroke="#000000" stroke-width="2" stroke-linecap="round" stroke-linejoin="round" stroke-miterlimit="10" x1="16.8" y1="25.8" x2="56.1" y2="25.8"/>
	</g>
</g>
</svg>
