<?xml version="1.0" encoding="utf-8"?>
<!-- Generator: Adobe Illustrator 21.1.0, SVG Export Plug-In . SVG Version: 6.00 Build 0)  -->
<svg version="1.1" id="emoji" xmlns="http://www.w3.org/2000/svg" xmlns:xlink="http://www.w3.org/1999/xlink" x="0px" y="0px"
	 viewBox="0 0 72 72" enable-background="new 0 0 72 72" xml:space="preserve">
<g id="_xD83D__xDCF5_">
	<path fill="none" d="M29.5,20H43c1.1,0,2,0.9,2,2v13.5"/>
	<path fill="none" d="M42.5,52H29c-1.1,0-2-0.9-2-2V36.5"/>
	
		<polyline fill="#FFFFFF" stroke="#1D1D1B" stroke-width="2" stroke-linecap="round" stroke-linejoin="round" stroke-miterlimit="10" points="
		27,37.5 27,50 39.5,50 	"/>
	
		<path fill="#FFFFFF" stroke="#1D1D1B" stroke-width="2" stroke-linecap="round" stroke-linejoin="round" stroke-miterlimit="10" d="
		M41.5,52H29c-1.1,0-2-0.9-2-2h12.5L41.5,52z"/>
	
		<polyline fill="#FFFFFF" stroke="#1D1D1B" stroke-width="2" stroke-linecap="round" stroke-linejoin="round" stroke-miterlimit="10" points="
		45,34.5 45,22 32.5,22 	"/>
	
		<path fill="#FFFFFF" stroke="#1D1D1B" stroke-width="2" stroke-linecap="round" stroke-linejoin="round" stroke-miterlimit="10" d="
		M30.5,20H43c1.1,0,2,0.9,2,2H32.5L30.5,20z"/>
	
		<path fill="#E95947" stroke="#1D1D1B" stroke-width="2" stroke-linecap="round" stroke-linejoin="round" stroke-miterlimit="10" d="
		M36,7C20,7,7,20,7,36s13,29,29,29s29-13,29-29S52,7,36,7z M13,36c0-5.1,1.6-9.8,4.4-13.6l32.1,32.1C45.8,57.4,41.1,59,36,59
		C23.3,59,13,48.7,13,36z M54.6,49.6L22.4,17.4C26.2,14.6,30.9,13,36,13c12.7,0,23,10.3,23,23C59,41.1,57.4,45.8,54.6,49.6z"/>
</g>
</svg>
