<?xml version="1.0" encoding="utf-8"?>
<!-- Generator: Adobe Illustrator 19.1.0, SVG Export Plug-In . SVG Version: 6.00 Build 0)  -->
<svg version="1.1" id="emoji" xmlns="http://www.w3.org/2000/svg" xmlns:xlink="http://www.w3.org/1999/xlink" x="0px" y="0px"
	 viewBox="0 0 72 72" enable-background="new 0 0 72 72" xml:space="preserve">
<g id="_xD83D__xDCF8_">
	<path fill="#D0CFCE" d="M33.9,33.6c-2.2,0-4,1.8-4,4c0,2.2,1.8,4,4,4c2.2,0,4-1.8,4-4C37.9,35.4,36.1,33.6,33.9,33.6z"/>
	<path fill="#3F3F3F" d="M33.9,28.6c-2.1,0-4,0.7-5.6,1.9l0.5,0.8c0.2,0.4,0.2,0.9-0.1,1.2c-0.3,0.3-0.8,0.4-1.2,0.2l-0.8-0.5
		c-1.1,1.5-1.8,3.3-1.8,5.3c0,5,4,9,9,9s9-4,9-9S38.8,28.6,33.9,28.6z M33.9,43.6c-3.3,0-6-2.7-6-6c0-3.3,2.7-6,6-6c3.3,0,6,2.7,6,6
		C39.9,40.9,37.2,43.6,33.9,43.6z"/>
	<g>
		<polygon fill="#F1B31C" points="21,18 21.2,19.3 25.8,18 		"/>
		<polygon fill="#F1B31C" points="26.1,21.9 28.8,21.9 28.8,20.3 		"/>
	</g>
	<polygon fill="#FFFFFF" points="11.5,21.9 11.1,21.9 11.1,24.2 12.4,22.7 	"/>
	<path fill="#FFFFFF" d="M57.7,21.9h-0.7C57.2,21.9,57.5,21.9,57.7,21.9L57.7,21.9z"/>
	<path fill="#9B9B9A" d="M12.1,32.2h-0.3l0.1,0C12,32.2,12.1,32.2,12.1,32.2z"/>
	<path fill="#FFFFFF" d="M26.7,32.3l-5.1-3.1l-1,3C23.4,32.2,26.2,32.2,26.7,32.3L26.7,32.3z"/>
	<path fill="#FFFFFF" d="M46.5,34c0.2,0.1,0.4,0.2,0.6,0.2h0C46.9,34.2,46.7,34.1,46.5,34L46.5,34z"/>
	<g>
		<polygon fill="#FFFFFF" points="28.9,32.3 28.9,32.3 28.9,32.3 		"/>
		<path fill="#FFFFFF" d="M56.9,23.9H29.5c-0.6,0-1-0.4-1-1c0-0.6,0.4-1,1-1h-3.3l-2.3,1.3l5,8.1l-0.5-0.8c1.1-0.9,2.5-1.5,4-1.8
			c-0.4,0.1-0.9,0.2-1.3,0.3c-0.5,0.2-1.1-0.1-1.3-0.6c-0.2-0.5,0.1-1.1,0.6-1.3c1.1-0.4,2.3-0.6,3.6-0.6c4.1,0,7.7,2.3,9.6,5.7h0
			c0,0,0,0,0-0.1c0,0,0,0,0,0c0,0,0,0,0,0h3.7c-0.2,0-0.5,0.1-0.6,0.2v0c0.2-0.2,0.4-0.3,0.6-0.3h11.9V26
			C59.1,24.8,58.1,23.9,56.9,23.9z"/>
		<path fill="#FFFFFF" d="M28.9,31.7C28.9,31.7,28.9,31.7,28.9,31.7C28.9,31.7,28.9,31.7,28.9,31.7z"/>
		<path fill="#FFFFFF" d="M28.9,31.9c0,0,0,0.1,0,0.1C28.9,32,28.9,32,28.9,31.9z"/>
	</g>
	<g>
		<path fill="#FFFFFF" d="M12.1,32.2c0.1,0,0.2,0,0.4,0.1C12.4,32.2,12.3,32.2,12.1,32.2z"/>
		<path fill="#FFFFFF" d="M12.8,32.4c0,0-0.1-0.1-0.1-0.1C12.7,32.4,12.7,32.4,12.8,32.4z"/>
		<path fill="#FFFFFF" d="M13.1,32.2c0,0,0.9,0,2.2,0l-0.4-3.9l-3.8,2v2.8h0c0-0.4,0.4-0.8,0.8-0.9l-0.1,0h0.3H13.1z"/>
		<path fill="#FFFFFF" d="M13.1,33L13.1,33C13.1,33,13.1,33,13.1,33C13.1,33,13.1,33.1,13.1,33L13.1,33L13.1,33z"/>
		<path fill="#FFFFFF" d="M13,32.7C13,32.7,12.9,32.7,13,32.7C12.9,32.7,13,32.7,13,32.7z"/>
	</g>
	<g>
		<path fill="#9B9B9A" d="M57,51.3c0.1,0,0.3,0,0.4,0c0,0,0,0,0,0c0.1,0,0.2-0.1,0.3-0.1c0,0,0.1,0,0.1,0c0,0,0.1,0,0.1-0.1
			c0.1,0,0.2-0.1,0.2-0.1c0,0,0.1-0.1,0.1-0.1c0.1,0,0.1-0.1,0.2-0.1c0,0,0.1-0.1,0.1-0.1c0.1-0.1,0.1-0.1,0.1-0.2
			c0,0,0.1-0.1,0.1-0.1c0-0.1,0.1-0.1,0.1-0.2c0,0,0-0.1,0.1-0.1c0-0.1,0.1-0.2,0.1-0.2c0,0,0-0.1,0-0.1c0-0.1,0-0.3,0-0.4v-15H47.2
			h0c-0.6,0-1-0.4-1-1c0-0.6,0.4-1,1-1h-3.7c0,0,0,0,0,0c0,0,0,0,0,0c0.2,0.4,0.4,0.8,0.6,1.2c0,0,0,0,0,0c0,0,0,0.1,0,0.1l0,0
			c0.1,0.4,0.3,0.7,0.4,1.1c0,0,0,0,0,0c0,0,0,0.1,0,0.1v0c0.1,0.4,0.2,0.8,0.3,1.3c0,0.1,0,0.1,0,0.2c0.1,0.5,0.1,0.9,0.1,1.4
			c0,0,0,0,0,0c0,0.4,0,0.7-0.1,1c0,0,0,0,0,0c0,0,0,0,0,0c0,0.1,0,0.3-0.1,0.4c0,0.2,0,0.4-0.1,0.5c0,0.2-0.1,0.3-0.1,0.5
			c0,0.1-0.1,0.3-0.1,0.4c-0.1,0.2-0.1,0.4-0.2,0.6c0,0.1-0.1,0.2-0.1,0.3c-0.1,0.2-0.2,0.4-0.2,0.6c0,0,0,0,0,0
			c0,0.1-0.1,0.2-0.1,0.3c-0.1,0.2-0.2,0.4-0.3,0.7l0,0c0,0.1-0.1,0.1-0.1,0.2h0c-0.1,0.3-0.3,0.5-0.5,0.7c-0.2,0.2-0.3,0.5-0.5,0.7
			c-0.4,0.5-0.9,1-1.5,1.5c-0.3,0.3-0.7,0.5-1.1,0.8c0,0,0,0,0,0c0,0,0,0,0,0c-0.2,0.1-0.4,0.2-0.6,0.4c0,0,0,0,0,0
			c-0.7,0.4-1.5,0.7-2.2,0.9c0,0,0,0,0,0c-0.1,0-0.1,0-0.2,0c-0.3,0.1-0.5,0.1-0.8,0.2h0c-0.1,0-0.1,0-0.2,0c0,0,0,0,0,0
			c-0.3,0-0.5,0.1-0.8,0.1h0c0,0,0,0,0,0c-0.3,0-0.7,0.1-1,0.1c0,0,0,0,0,0c-0.4,0-0.8,0-1.2-0.1c0,0,0,0,0,0
			c-0.4,0-0.8-0.1-1.1-0.2c0,0,0,0,0,0c-0.1,0-0.2-0.1-0.3-0.1c-0.2-0.1-0.4-0.1-0.6-0.2l0,0c-0.1,0-0.2-0.1-0.3-0.1c0,0,0,0,0,0
			c0,0,0,0,0,0c-1-0.4-2-0.9-2.8-1.5l0,0c0,0,0,0,0,0c-0.3-0.2-0.6-0.5-0.9-0.7c0,0,0,0,0,0c-0.3-0.3-0.5-0.5-0.8-0.8l0,0l0,0
			c0,0,0,0,0,0c-0.2-0.2-0.4-0.5-0.6-0.8c0,0,0,0,0-0.1c-0.2-0.2-0.3-0.5-0.5-0.7c0,0,0,0,0-0.1c-0.2-0.3-0.3-0.5-0.4-0.8
			c0,0,0,0,0-0.1c-0.1-0.3-0.3-0.6-0.4-0.9c0-0.1,0-0.1-0.1-0.2l0,0v0c-0.1-0.4-0.3-0.8-0.4-1.2c0,0,0,0,0,0c0,0,0,0,0,0l0,0
			c-0.1-0.3-0.1-0.6-0.2-0.9c0,0,0,0,0,0c0-0.1,0-0.2-0.1-0.4c0,0,0,0,0,0c0-0.4-0.1-0.8-0.1-1.3c0,0,0,0,0,0c0,0,0,0,0,0
			c0,0,0,0,0,0c0,0,0,0,0,0c0-1.1,0.2-2.2,0.5-3.2c0,0,0-0.1,0-0.1c0-0.1,0-0.2,0.1-0.2c0,0,0,0,0.1,0c0,0,0,0,0.1-0.1
			c0.1-0.1,0.1-0.1,0.2-0.2c0,0,0.1,0,0.1-0.1c0.1,0,0.1-0.1,0.2-0.1c0,0,0.1,0,0.1,0c0.1,0,0.2,0,0.4,0c0.1,0,0.2,0.1,0.3,0.2
			c0.1,0.1,0.1,0.1,0.2,0.2c0,0,0,0,0,0.1c0.1,0.2,0.2,0.5,0.1,0.7c0,0,0,0,0-0.1c0.1-0.3,1.3-2.3,1.4-2.5c0-0.1-3-0.1-6.2-0.1
			L18,39.4c-0.1,0.4-0.5,0.7-0.9,0.7c0,0-0.1,0-0.1,0c-0.5-0.1-0.8-0.4-0.9-0.9l-0.8-6.9c-1.3,0-2.2,0-2.2,0h-1c0.1,0,0.2,0,0.4,0.1
			c0.1,0,0.1,0.1,0.2,0.1c0,0,0.1,0,0.1,0.1c0.1,0.1,0.1,0.2,0.2,0.2c0,0,0,0,0,0c0.1,0.1,0.1,0.2,0.1,0.3l0,0v0.2v16
			c0,0.1,0,0.3,0,0.4c0,0.1,0.1,0.3,0.1,0.4c0.1,0.2,0.3,0.5,0.5,0.7c0.1,0.1,0.2,0.2,0.3,0.3c0.1,0.1,0.2,0.1,0.4,0.2
			c0.2,0.1,0.5,0.2,0.8,0.2c0,0,0,0,0,0L57,51.3C56.9,51.3,57,51.3,57,51.3z"/>
	</g>
	<path fill="#F1B31C" d="M15.7,25.7c0.2,0,0.3,0,0.5,0.1c0.3,0.2,0.5,0.4,0.5,0.8l0.9,7.9l2.5-7.1c0.1-0.3,0.3-0.5,0.6-0.6
		c0.3-0.1,0.6-0.1,0.9,0.1l3.4,2.1l-3.4-5.5c-0.1-0.2-0.2-0.5-0.1-0.8c0.1-0.3,0.2-0.5,0.5-0.6l2.9-1.7l-4.3,1.2
		c-0.3,0.1-0.6,0-0.8-0.1c-0.2-0.2-0.4-0.4-0.4-0.7L18.7,15l-1.7,5.4c-0.1,0.3-0.3,0.5-0.5,0.6c-0.3,0.1-0.5,0.1-0.8,0l-4.3-1.8
		l3.1,2.6c0.2,0.2,0.3,0.4,0.4,0.7c0,0.3-0.1,0.5-0.2,0.7l-4.7,5.5l5.4-2.9C15.4,25.7,15.6,25.7,15.7,25.7z"/>
	<g>
		<path fill="none" stroke="#000000" stroke-width="2" stroke-linecap="round" stroke-linejoin="round" stroke-miterlimit="10" d="
			M12.1,33.2v16c0,1.7,1.4,3.1,3.1,3.1h41.7c1.7,0,3.1-1.4,3.1-3.1V26c0-1.7-1.4-3.1-3.1-3.1H29.5"/>
		
			<line fill="none" stroke="#000000" stroke-width="2" stroke-linecap="round" stroke-linejoin="round" stroke-miterlimit="10" x1="47.2" y1="33.2" x2="59.6" y2="33.2"/>
		<path fill="none" stroke="#000000" stroke-width="2" stroke-linecap="round" stroke-linejoin="round" stroke-miterlimit="10" d="
			M30.6,28.1c1-0.3,2.1-0.5,3.2-0.5c5.5,0,10,4.5,10,10c0,5.5-4.5,10-10,10c-5.5,0-10-4.5-10-10c0-1,0.2-2,0.4-3"/>
		
			<circle fill="none" stroke="#000000" stroke-width="2" stroke-linecap="round" stroke-linejoin="round" stroke-miterlimit="10" cx="33.9" cy="37.6" r="5"/>
		
			<polygon fill="none" stroke="#000000" stroke-width="2" stroke-linecap="round" stroke-linejoin="round" stroke-miterlimit="10" points="
			13.9,22.6 5.6,32.2 15.7,26.7 17.1,39 21,27.7 27.9,31.9 22.4,22.9 31.9,17.4 20.3,20.6 19.2,9.9 16.1,20.1 5.6,15.8 		"/>
	</g>
</g>
</svg>
