<svg id="emoji" xmlns="http://www.w3.org/2000/svg" viewBox="0 0 72 72">
  <g id="color">
    <path fill="#d0cfce" d="M13.2227,59.3477h45.7451V32.7764H13.2227V59.3477z" stroke="none"/>
    <path fill="#9B9B9A" d="M18.7401,38.2841l36.479,0.177l0.4075-2.1818H16.6237v11.1684l2.0825,0.336L18.7401,38.2841z" stroke="none"/>
    <polygon fill="#d0cfce" points="59.9675,23.7932 12.2227,23.7932 12.2227,26.6208 59.9675,26.6059" stroke="none"/>
    <circle fill="#d0cfce" cx="22.2676" cy="13.5693" r="1" stroke="none"/>
    <circle fill="#3f3f3f" cx="22.4902" cy="41.9844" r="2.0004" stroke="none"/>
  </g>
  <g id="hair"/>
  <g id="skin"/>
  <g id="skin-shadow"/>
  <g id="line">
    <path fill="none" stroke="#000000" stroke-width="2" stroke-linecap="round" stroke-linejoin="round" stroke-miterlimit="10" d="M43.203,23.3918"/>
    <line fill="none" stroke="#000000" stroke-width="2" stroke-linecap="round" stroke-linejoin="round" stroke-miterlimit="10" x1="47.4338" y1="27.2143" x2="55.2191" y2="31.4279"/>
    <line fill="none" stroke="#000000" stroke-width="2" stroke-linecap="round" stroke-linejoin="round" stroke-miterlimit="10" x1="24.0277" y1="14.5462" x2="34.665" y2="20.3035"/>
    <circle fill="none" stroke="#000000" stroke-width="2" stroke-linecap="round" stroke-linejoin="round" stroke-miterlimit="10" cx="22.2675" cy="13.5691" r="2"/>
    <path fill="none" stroke="#000000" stroke-width="2" stroke-linecap="round" stroke-linejoin="round" stroke-miterlimit="10" d="M43.203,23.3918"/>
    <rect x="12.2227" y="31.7767" fill="none" stroke="#000000" stroke-width="2" stroke-linecap="round" stroke-linejoin="round" stroke-miterlimit="10" width="47.7448" height="28.5707"/>
    <line fill="none" stroke="#000000" stroke-width="2" stroke-linecap="round" stroke-linejoin="round" stroke-miterlimit="10" x1="16.5455" y1="52.2367" x2="55.1183" y2="52.2367"/>
    <line fill="none" stroke="#000000" stroke-width="2" stroke-linecap="round" stroke-linejoin="round" stroke-miterlimit="10" x1="16.5455" y1="56.2367" x2="55.1183" y2="56.2367"/>
    <rect x="16.6237" y="36.2793" fill="none" stroke="#000000" stroke-width="2" stroke-linecap="round" stroke-linejoin="round" stroke-miterlimit="10" width="38.5954" height="11.5044"/>
    <circle fill="none" stroke="#000000" stroke-width="2" stroke-linecap="round" stroke-linejoin="round" stroke-miterlimit="10" cx="22.4906" cy="41.9848" r="2"/>
    <polyline fill="none" stroke="#000000" stroke-width="2" stroke-linecap="round" stroke-linejoin="round" stroke-miterlimit="10" points="12.2227,26.9462 12.2227,23.7932 59.9675,23.7932 59.9675,26.9462"/>
    <line fill="none" stroke="#000000" stroke-width="2" stroke-linecap="round" stroke-linejoin="round" stroke-miterlimit="10" x1="38.2935" y1="41.6974" x2="38.2935" y2="42.3642"/>
    <line fill="none" stroke="#000000" stroke-width="2" stroke-linecap="round" stroke-linejoin="round" stroke-miterlimit="10" x1="42.2935" y1="41.6974" x2="42.2935" y2="42.3642"/>
    <line fill="none" stroke="#000000" stroke-width="2" stroke-linecap="round" stroke-linejoin="round" stroke-miterlimit="10" x1="46.2935" y1="41.6974" x2="46.2935" y2="42.3642"/>
  </g>
</svg>
