<?xml version="1.0" encoding="utf-8"?>
<!-- Generator: Adobe Illustrator 21.1.0, SVG Export Plug-In . SVG Version: 6.00 Build 0)  -->
<svg version="1.1" id="emoji" xmlns="http://www.w3.org/2000/svg" xmlns:xlink="http://www.w3.org/1999/xlink" x="0px" y="0px"
	 viewBox="0 0 72 72" enable-background="new 0 0 72 72" xml:space="preserve">
<g id="_xD83D__xDCF9__xFE0F_">
	<polygon fill="#D0CFCE" points="55.3,53.2 56.8,53.2 56.8,53.2 	"/>
	<path fill="#D0CFCE" d="M56.9,51.2l-0.1-19c0,0-3.5,0-6,0l0.1-9.2c0,0-12,0.9-12,0.3l-0.3-2.8l-23.3,0.2l-0.2,35.4L50.6,56l0-2.8
		l5.8,0C55.9,53.2,56.9,51.2,56.9,51.2z"/>
	<polygon fill="#3F3F3F" points="62.6,24.3 54.3,11.4 51.4,16.8 42.9,23.3 50.1,23.8 51,30.3 56.8,25.7 56.8,25.7 	"/>
	<path fill="#9B9B9A" d="M45.3,49.8V32.5c0-1.2-1-2.2-2.2-2.2H23.7V52h19.4C44.3,52,45.3,51,45.3,49.8z"/>
	<circle fill="#D0CFCE" cx="34.3" cy="43.3" r="5"/>
	<rect x="11.8" y="20.6" fill="#3F3F3F" width="3.5" height="18.7"/>
	<g>
		
			<line fill="none" stroke="#000000" stroke-width="2" stroke-linecap="round" stroke-linejoin="round" stroke-miterlimit="10" x1="57.6" y1="25.1" x2="51" y2="30.3"/>
		
			<line fill="none" stroke="#000000" stroke-width="2" stroke-linecap="round" stroke-linejoin="round" stroke-miterlimit="10" x1="43.9" y1="23" x2="51" y2="17.6"/>
		
			<polygon fill="none" stroke="#000000" stroke-width="2" stroke-linecap="round" stroke-linejoin="round" stroke-miterlimit="10" points="
			51,17.6 57.6,25.1 62.6,24.3 54.3,11.4 		"/>
		
			<polyline fill="none" stroke="#000000" stroke-width="2" stroke-linecap="round" stroke-linejoin="round" stroke-miterlimit="10" points="
			15.3,39.4 15.3,56 50.6,56 50.6,23.3 38.6,23.3 38.6,20.5 15.5,20.5 		"/>
		
			<polyline fill="none" stroke="#000000" stroke-width="2" stroke-linecap="round" stroke-linejoin="round" stroke-miterlimit="10" points="
			54.8,33.2 56.8,33.2 56.8,52.2 54.8,52.2 		"/>
		<path fill="none" stroke="#000000" stroke-width="2" stroke-linecap="round" stroke-linejoin="round" stroke-miterlimit="10" d="
			M42.3,52H23.7V30.3h18.6c1.7,0,3,1.3,3,3V49C45.3,50.7,44,52,42.3,52z"/>
		
			<circle fill="none" stroke="#000000" stroke-width="2" stroke-linecap="round" stroke-linejoin="round" stroke-miterlimit="10" cx="34.3" cy="43.3" r="5"/>
		
			<rect x="11.7" y="20.5" fill="none" stroke="#000000" stroke-width="2" stroke-linecap="round" stroke-linejoin="round" stroke-miterlimit="10" width="3.6" height="18.9"/>
	</g>
</g>
</svg>
