<?xml version="1.0" encoding="utf-8"?>
<!-- Generator: Adobe Illustrator 19.1.0, SVG Export Plug-In . SVG Version: 6.00 Build 0)  -->
<svg version="1.1" id="emoji" xmlns="http://www.w3.org/2000/svg" xmlns:xlink="http://www.w3.org/1999/xlink" x="0px" y="0px"
	 viewBox="0 0 72 72" enable-background="new 0 0 72 72" xml:space="preserve">
<g id="_xD83D__xDCFB_">
	<path fill="none" stroke="#000000" stroke-width="2" stroke-linecap="round" stroke-linejoin="round" stroke-miterlimit="10" d="
		M43.2,23.4"/>
	<path fill="#D0CECE" d="M59,24.8H13.2v2.2h33.3c0-0.1,0-0.1,0.1-0.2c0.3-0.5,0.9-0.7,1.4-0.4l1.1,0.6H59V24.8z"/>
	<circle fill="#D0CECE" cx="22.3" cy="13.6" r="1"/>
	<path fill="#D0CECE" d="M13.2,59.3H59V32.8H13.2V59.3z M15.6,36.3c0-0.6,0.4-1,1-1h38.6c0.6,0,1,0.4,1,1v11.5c0,0.6-0.4,1-1,1H16.6
		c-0.6,0-1-0.4-1-1V36.3z M16.5,51.2h38.6c0.6,0,1,0.4,1,1c0,0.6-0.4,1-1,1H16.5c-0.6,0-1-0.4-1-1C15.5,51.7,16,51.2,16.5,51.2z
		 M16.5,55.2h38.6c0.6,0,1,0.4,1,1c0,0.6-0.4,1-1,1H16.5c-0.6,0-1-0.4-1-1C15.5,55.7,16,55.2,16.5,55.2z"/>
	<circle fill="#5C5C5C" cx="22.5" cy="42" r="1"/>
	<path fill="#D0CFCE" d="M17.6,37.3v9.5h36.6v-9.5H17.6z M22.5,45c-1.7,0-3-1.3-3-3c0-1.7,1.3-3,3-3c1.7,0,3,1.3,3,3
		C25.5,43.6,24.1,45,22.5,45z M39.3,42.4c0,0.6-0.4,1-1,1c-0.6,0-1-0.4-1-1v-0.7c0-0.6,0.4-1,1-1c0.6,0,1,0.4,1,1V42.4z M43.3,42.4
		c0,0.6-0.4,1-1,1c-0.6,0-1-0.4-1-1v-0.7c0-0.6,0.4-1,1-1c0.6,0,1,0.4,1,1V42.4z M47.3,42.4c0,0.6-0.4,1-1,1c-0.6,0-1-0.4-1-1v-0.7
		c0-0.6,0.4-1,1-1c0.6,0,1,0.4,1,1V42.4z"/>
	<g>
		
			<line fill="none" stroke="#000000" stroke-width="2" stroke-linecap="round" stroke-linejoin="round" stroke-miterlimit="10" x1="47.4" y1="27.2" x2="55.2" y2="31.4"/>
		
			<line fill="none" stroke="#000000" stroke-width="2" stroke-linecap="round" stroke-linejoin="round" stroke-miterlimit="10" x1="24" y1="14.5" x2="34.7" y2="20.3"/>
		
			<circle fill="none" stroke="#000000" stroke-width="2" stroke-linecap="round" stroke-linejoin="round" stroke-miterlimit="10" cx="22.3" cy="13.6" r="2"/>
		<path fill="none" stroke="#000000" stroke-width="2" stroke-linecap="round" stroke-linejoin="round" stroke-miterlimit="10" d="
			M43.2,23.4"/>
		
			<rect x="12.2" y="31.8" fill="none" stroke="#000000" stroke-width="2" stroke-linecap="round" stroke-linejoin="round" stroke-miterlimit="10" width="47.7" height="28.6"/>
		
			<line fill="none" stroke="#000000" stroke-width="2" stroke-linecap="round" stroke-linejoin="round" stroke-miterlimit="10" x1="16.5" y1="52.2" x2="55.1" y2="52.2"/>
		
			<line fill="none" stroke="#000000" stroke-width="2" stroke-linecap="round" stroke-linejoin="round" stroke-miterlimit="10" x1="16.5" y1="56.2" x2="55.1" y2="56.2"/>
		
			<rect x="16.6" y="36.3" fill="none" stroke="#000000" stroke-width="2" stroke-linecap="round" stroke-linejoin="round" stroke-miterlimit="10" width="38.6" height="11.5"/>
		
			<circle fill="none" stroke="#000000" stroke-width="2" stroke-linecap="round" stroke-linejoin="round" stroke-miterlimit="10" cx="22.5" cy="42" r="2"/>
		
			<polyline fill="none" stroke="#000000" stroke-width="2" stroke-linecap="round" stroke-linejoin="round" stroke-miterlimit="10" points="
			12.2,26.9 12.2,23.8 60,23.8 60,26.9 		"/>
		
			<line fill="none" stroke="#000000" stroke-width="2" stroke-linecap="round" stroke-linejoin="round" stroke-miterlimit="10" x1="38.3" y1="41.7" x2="38.3" y2="42.4"/>
		
			<line fill="none" stroke="#000000" stroke-width="2" stroke-linecap="round" stroke-linejoin="round" stroke-miterlimit="10" x1="42.3" y1="41.7" x2="42.3" y2="42.4"/>
		
			<line fill="none" stroke="#000000" stroke-width="2" stroke-linecap="round" stroke-linejoin="round" stroke-miterlimit="10" x1="46.3" y1="41.7" x2="46.3" y2="42.4"/>
	</g>
	<path fill="#9B9B9A" d="M18.7,38.3l35.5,0.2l0-1.2H17.6v9.5h1.1L18.7,38.3z"/>
</g>
</svg>
