<svg id="emoji" viewBox="0 0 72 72" xmlns="http://www.w3.org/2000/svg">
  <g id="color">
    <path fill="#d0cfce" d="m42.6389,31.8639l-12.371-.3152-13.8725,11.1591.4431,13.2445,31.7828-.7021-.0516-4.1134-5.425-1.0927c-.5527,0-.5058-18.1802-.5058-18.1802Z"/>
    <rect x="47.9455" y="40.2257" width="7.0661" height="4.5557" fill="#d0cfce"/>
    <polygon fill="#9b9b9a" points="47.9434 44.0688 48.0504 46.4939 54.9065 46.4939 55.0116 44.0688 47.9434 44.0688"/>
    <path fill="#d0cfce" d="m60.7265,44.3793c0-1.7945.065-2.6512.1481-3.6536h-5.863v4.8024h5.7347s-.0198-.4653-.0198-1.1488Z"/>
    <path fill="#d0cfce" d="m60.5723,45.494c-.0056-.052-.0103-.1144-.0155-.1698.0053.0646.0105.1227.0155.1698Z"/>
    <path fill="#9b9b9a" d="m55.0116,44.0688l-.1051,2.4251h6.856c-.0391-.3668-.2797-2.3728-.2797-2.3728l-6.4712-.0523Z"/>
    <path fill="#9b9b9a" d="m33.6436,28.4507c.0036.0166.0153.0285.0197.0447-.0312-.1137-.042-.1455-.0197-.0447Z"/>
    <path fill="#9b9b9a" d="m40.2296,28.3969c-.0002.0045.0003.0089,0,.0135.0001-.0045-.0003-.009,0-.0135Z"/>
    <path fill="#9b9b9a" d="m47.2993,36.6465l-.2467.0274c.0081.0002.0155.0038.0236.0038.0744,0,.1487-.0138.2231-.0312Z"/>
    <path fill="#9b9b9a" d="m52.3867,21.4277c-2.1435-4.4756-8.5711-6.0514-13.2689-3.0185-4.3839,3.3671-5.3156,10.597-5.4545,10.0862.13.4756.8648,2.6605.8648,2.6605l5.1432.1189,2.7164-3.9992c.4883-.812,2.268-1.7955,2.8187-1.3907,1.253.9214-1.6947,7.2765-1.6947,7.2765l.1377,3.8894,3.4032-.3769c-.4261-.0105-.5357-1.4421.6401-2.0983,1.7236-.9639,3.4569-2.0367,4.5257-3.7835,1.7269-2.8225,1.5726-6.4323.1683-9.3644Z"/>
    <path fill="#9b9b9a" d="m45.7668,30.0366c-.0149.007-.0302.0125-.0454.0186.0154-.0065.0303-.0113.0454-.0186Z"/>
    <path fill="#9b9b9a" d="m29.8198,32.4042c.1748-.1367.2202-1.4755.4429-1.4765l-.5565-1.7307c.0545.4878-1.5581.4131-1.6948-.1221-.8066-3.1538-3.7063-5.4551-6.847-6.294-4.7968-1.2827-9.3783,2.1105-10.5237,4.8668-.941,1.2724-1.7668,6.7659,1.3938,10.2806.4873.2607,2.0774,1.8287,2.4374,2.4736,0,0,.7204.3893.5916.6928l1.3529,1.0333c.3734.255.2732,1.1737.4221,1.0566l5.5177-4.7492-3.1692-3.2331-.4974-.3296c-.6143-.7217-1.1222-1.0329-.9992-2.0036.0967-.7667.0609-1.1753.6195-1.5689,1.2744-.8935,1.7364-.7536,2.8497.5579l1.0812.8509c.0157.0174.4983.8929.5126.911,0-.0002,2.8677,1.9541,2.8677,1.9541l4.1987-3.1699Z"/>
    <path fill="#d0cfce" d="m23.5283,33.0065c-.5374-.086-.4709-.4919-.863-.1374-.4092.3721-.3022.3185-.6723-.0897l-1.1997-1.1322c-.4659-.5488-2.3953-.1518-2.4207.0445-.0518.4092-.2705,1.6342,0,1.9526l.2098,1.558c.3427.4336,1.0781.6189.6455.9617-.1846.1455-.1927.7569-.39.5079l2.0237,2.3191,4.775-3.7469-2.1083-2.2376Z"/>
    <path fill="#d0cfce" d="m42.6389,31.8639l1.0028,1.4762,2.4474-3.5369s-.0003-.005-.0003-.0052c-.1923.2162.964-3.5686-1.1614-4.1405-2.1253-.5718-4.7971,2.8435-4.6277,2.4111l-1.6134,2.8159v.9794c.2725.0029,3.9516-.2656,3.9526,0Z"/>
    <polygon fill="#d0cfce" points="40.6462 27.464 40.6462 27.464 40.6461 27.4642 40.6462 27.464"/>
  </g>
  <g id="line">
    <path fill="none" stroke="#000" stroke-linecap="round" stroke-linejoin="round" stroke-width="2" d="m45.3461,29.1377l.3297-.5876c.6377-1.0595.444-2.2743-.3788-2.879-.8227-.6047-2.2838-.09-2.9215.9694l-1.1633,1.7874"/>
    <line x1="48.6081" x2="47.6392" y1="21.4277" y2="22.4536" fill="none" stroke="#000" stroke-linecap="round" stroke-linejoin="round" stroke-width="2"/>
    <line x1="41.6468" x2="42.5284" y1="20.4571" y2="21.7116" fill="none" stroke="#000" stroke-linecap="round" stroke-linejoin="round" stroke-width="2"/>
    <line x1="46.8985" x2="46.9433" y1="32.0248" y2="32.1858" fill="none" stroke="#000" stroke-linecap="round" stroke-linejoin="round" stroke-width="2"/>
    <line x1="37.6465" x2="38.8447" y1="25.5258" y2="25.7893" fill="none" stroke="#000" stroke-linecap="round" stroke-linejoin="round" stroke-width="2"/>
    <line x1="50.6519" x2="49.3642" y1="27.9531" y2="27.51" fill="none" stroke="#000" stroke-linecap="round" stroke-linejoin="round" stroke-width="2"/>
    <line x1="21.9565" x2="34.2633" y1="43.9928" y2="43.9928" fill="none" stroke="#000" stroke-linecap="round" stroke-linejoin="round" stroke-width="2"/>
    <line x1="21.9565" x2="34.2633" y1="47.9928" y2="47.9928" fill="none" stroke="#000" stroke-linecap="round" stroke-linejoin="round" stroke-width="2"/>
    <line x1="21.9565" x2="34.2633" y1="51.9928" y2="51.9928" fill="none" stroke="#000" stroke-linecap="round" stroke-linejoin="round" stroke-width="2"/>
    <line x1="21.9565" x2="34.2633" y1="43.9928" y2="43.9928" fill="none" stroke="#000" stroke-linecap="round" stroke-linejoin="round" stroke-width="2"/>
    <line x1="21.9565" x2="34.2633" y1="47.9928" y2="47.9928" fill="none" stroke="#000" stroke-linecap="round" stroke-linejoin="round" stroke-width="2"/>
    <line x1="21.9565" x2="34.2633" y1="51.9928" y2="51.9928" fill="none" stroke="#000" stroke-linecap="round" stroke-linejoin="round" stroke-width="2"/>
    <polygon fill="none" stroke="#000" stroke-linecap="round" stroke-linejoin="round" stroke-width="2" points="42.6785 50.3426 42.6785 44.733 42.6648 44.733 42.6389 31.8639 30.2679 31.928 16.8385 42.4653 16.8385 55.9523 41.7062 55.9523 42.6785 55.9523 49.323 55.9523 49.323 50.3426 42.6785 50.3426"/>
    <path fill="none" stroke="#000" stroke-linecap="round" stroke-linejoin="round" stroke-width="2" d="m61.7625,46.4939h-6.856v-6.5555h6.856s-.2947.8214-.2947,3.2778.2947,3.2777.2947,3.2777Z"/>
    <polyline fill="none" stroke="#000" stroke-linecap="round" stroke-linejoin="round" stroke-width="2" points="56.0594 46.4939 48.0504 46.4939 48.0504 39.9384 56.0594 39.9384"/>
    <path fill="none" stroke="#000" stroke-linecap="round" stroke-linejoin="round" stroke-width="2" d="m14.3144,40.5951c-4.003-2.1406-6.1592-6.8223-4.937-11.3972,1.4254-5.3358,6.9064-8.5057,12.2421-7.0803,3.6206.9672,6.244,3.8018,7.1111,7.1913"/>
    <path fill="none" stroke="#000" stroke-linecap="round" stroke-linejoin="round" stroke-width="2" d="m22.7534,33.62l-1.5938-1.7619c-.8012-.9419-2.0144-1.1452-2.8497-.5579-.8352.5873-.8128,2.1362-.0117,3.0781l1.3238,1.6721"/>
    <line x1="18.2351" x2="18.3847" y1="25.5404" y2="26.9435" fill="none" stroke="#000" stroke-linecap="round" stroke-linejoin="round" stroke-width="2"/>
    <line x1="12.9719" x2="14.4983" y1="30.1988" y2="30.3444" fill="none" stroke="#000" stroke-linecap="round" stroke-linejoin="round" stroke-width="2"/>
    <line x1="14.2226" x2="15.2018" y1="36.5336" y2="35.7944" fill="none" stroke="#000" stroke-linecap="round" stroke-linejoin="round" stroke-width="2"/>
    <line x1="24.522" x2="23.3482" y1="28.2297" y2="28.9201" fill="none" stroke="#000" stroke-linecap="round" stroke-linejoin="round" stroke-width="2"/>
    <path fill="none" stroke="#000" stroke-linecap="round" stroke-linejoin="round" stroke-width="2" d="m47.0768,35.6781c.6124-.1736,1.3634-.466,2.4997-1.1004,1.9943-1.1134,2.9915-2.7252,2.9915-2.7252,2.0117-2.8624,2.46-6.6986.8411-10.0784-2.3858-4.9809-8.3577-7.0847-13.3387-4.6989-4.2707,2.0456-6.4262,6.7276-5.4503,11.1608"/>
  </g>
</svg>
