<?xml version="1.0" encoding="utf-8"?>
<!-- Generator: Adobe Illustrator 19.1.0, SVG Export Plug-In . SVG Version: 6.00 Build 0)  -->
<svg version="1.1" id="emoji" xmlns="http://www.w3.org/2000/svg" xmlns:xlink="http://www.w3.org/1999/xlink" x="0px" y="0px"
	 viewBox="0 0 72 72" enable-background="new 0 0 72 72" xml:space="preserve">
<g id="_xD83D__xDD07__1_">
	<g>
		
			<path fill="#CFCFCE" stroke="#CFCFCE" stroke-width="2" stroke-linecap="round" stroke-linejoin="round" stroke-miterlimit="10" d="
			M33.8,47.4l16.4,13.1l0-49.2L33.8,24.7"/>
		
			<line fill="#CFCFCE" stroke="#CFCFCE" stroke-width="2" stroke-linecap="round" stroke-linejoin="round" stroke-miterlimit="10" x1="33.7" y1="24.8" x2="33.7" y2="46.1"/>
	</g>
	<g>
		<path fill="#9C9B99" stroke="#9C9B99" stroke-width="1.9381" stroke-miterlimit="10" d="M32.8,24.7H20.9c-1.6,0-2.8,1.3-2.8,3
			v16.7c0,1.7,1.3,3,2.8,3h11.9"/>
	</g>
	<path fill="none" stroke="#000000" stroke-width="2" stroke-linecap="round" stroke-linejoin="round" d="M50.2,45.5l0-34.1
		L33.8,24.7h-4.1"/>
	<path fill="none" stroke="#000000" stroke-width="2" stroke-linecap="round" stroke-linejoin="round" d="M20.2,24.8
		c-1.2,0.4-2.2,1.5-2.2,2.9v16.7c0,1.7,1.3,3,3,3h12.7l16.4,13.1l0-5.7"/>
	
		<line fill="none" stroke="#000000" stroke-width="2" stroke-linecap="round" stroke-linejoin="round" x1="33.8" y1="25.3" x2="33.8" y2="29"/>
	
		<line fill="none" stroke="#000000" stroke-width="2" stroke-linecap="round" stroke-linejoin="round" x1="33.8" y1="39" x2="33.8" y2="47.1"/>
	<path fill="none" stroke="#000000" stroke-width="2" stroke-linecap="round" stroke-linejoin="round" d="M30.2,28"/>
	<path fill="none" stroke="#000000" stroke-width="2" stroke-linecap="round" stroke-linejoin="round" d="M30.2,28"/>
	
		<line fill="none" stroke="#000000" stroke-width="2" stroke-linecap="round" stroke-linejoin="round" x1="11.6" y1="11.8" x2="60.1" y2="60.3"/>
</g>
</svg>
