<?xml version="1.0" encoding="utf-8"?>
<!-- Generator: Adobe Illustrator 19.1.0, SVG Export Plug-In . SVG Version: 6.00 Build 0)  -->
<svg version="1.1" id="emoji" xmlns="http://www.w3.org/2000/svg" xmlns:xlink="http://www.w3.org/1999/xlink" x="0px" y="0px"
	 viewBox="0 0 72 72" enable-background="new 0 0 72 72" xml:space="preserve">
<g id="_xD83D__xDD0D_">
	<path fill="#D0CFCE" d="M21.4,13.9c-2.9,2.2-4.8,5.4-5.3,9c-0.5,3.6,0.4,7.2,2.6,10.1c4.5,6,13.1,7.3,19.1,2.7
		c6-4.5,7.3-13.1,2.7-19.1c-2.2-2.9-5.4-4.8-9-5.3C27.9,10.8,24.3,11.7,21.4,13.9z M39.3,17.5c2.6,3.4,3.1,7.8,1.6,11.6
		c-0.8,2.1-2.2,4-4.1,5.4c-5.4,4-13,2.9-17-2.5c-1.9-2.6-2.8-5.8-2.3-9c0.5-3.2,2.1-6.1,4.8-8c2.6-1.9,5.8-2.8,9-2.3
		C34.5,13.3,37.4,14.9,39.3,17.5z"/>
	
		<circle fill="none" stroke="#000000" stroke-width="2" stroke-linecap="round" stroke-linejoin="round" stroke-miterlimit="10" cx="29.6" cy="24.8" r="14.6"/>
	<g>
		<path fill="#FFFFFF" d="M39.7,24.7c0-0.2,0-0.3,0-0.5C39.7,24.4,39.7,24.5,39.7,24.7z"/>
		<path fill="#FFFFFF" d="M38.6,29.6c0.5-0.9,0.8-1.9,1-2.9C39.4,27.7,39,28.7,38.6,29.6z"/>
		<path fill="#FFFFFF" d="M39.7,25.1c0,0.2,0,0.4,0,0.5C39.7,25.4,39.7,25.3,39.7,25.1z"/>
		<path fill="#FFFFFF" d="M37.6,31c0.4-2.3,0.2-5.6-2.5-9.5c-3.2-4.6-7-5.8-9.4-6c0.8-0.3,1.7-0.6,2.6-0.7c-1.7,0.2-3.3,0.9-4.8,1.9
			c-1.6,1.2-2.7,2.7-3.4,4.5c-0.3,0.7-0.4,1.4-0.6,2.2c-0.4,2.7,0.3,5.4,1.9,7.5c1.6,2.2,4,3.6,6.7,4c2.7,0.4,5.4-0.3,7.5-1.9
			c1-0.7,1.8-1.6,2.4-2.6C37.9,30.6,37.8,30.8,37.6,31z"/>
		<path fill="#FFFFFF" d="M29.8,14.7c0.4,0,0.8,0,1.3,0.1C30.6,14.7,30.2,14.7,29.8,14.7z"/>
		<path fill="#FFFFFF" d="M28.4,14.7c0.4,0,0.7-0.1,1.1-0.1C29.1,14.7,28.7,14.7,28.4,14.7z"/>
		<path fill="#FFFFFF" d="M39.7,23.7c0-0.2,0-0.4-0.1-0.6C39.6,23.3,39.7,23.5,39.7,23.7z"/>
		<path fill="#FFFFFF" d="M38.9,20.7c0-0.1-0.1-0.2-0.2-0.3C38.8,20.5,38.8,20.6,38.9,20.7z"/>
		<path fill="#FFFFFF" d="M39.1,21.2c0,0.1,0.1,0.2,0.1,0.3C39.2,21.5,39.1,21.3,39.1,21.2z"/>
		<path fill="#FFFFFF" d="M38.3,19.5c0.1,0.1,0.1,0.2,0.2,0.3C38.4,19.7,38.3,19.6,38.3,19.5z"/>
		<path fill="#FFFFFF" d="M38.5,29.7c-0.1,0.2-0.2,0.4-0.4,0.6C38.3,30.1,38.4,29.9,38.5,29.7z"/>
		<path fill="#FFFFFF" d="M39.4,22.1c0,0.1,0.1,0.2,0.1,0.3C39.4,22.4,39.4,22.2,39.4,22.1z"/>
		<path fill="#FFFFFF" d="M39.6,26.5c0-0.2,0.1-0.4,0.1-0.6C39.7,26.1,39.6,26.3,39.6,26.5z"/>
	</g>
	
		<circle fill="none" stroke="#000000" stroke-width="2" stroke-linecap="round" stroke-linejoin="round" stroke-miterlimit="10" cx="29.6" cy="24.8" r="11.2"/>
	<path fill="#3F3F3F" d="M40.1,42l8.8,11.7l2.3,3c0.5,0.7,1.5,0.9,2.3,0.3c0.3-0.3,0.6-0.6,0.6-1.1c0-0.1,0-0.2,0-0.2
		c0,0,0-0.1,0-0.1c0-0.1,0-0.3-0.1-0.4c0-0.1-0.1-0.2-0.1-0.3c0,0-0.1-0.1-0.1-0.1l-1.2-1.7l-9.8-13.1L40.1,42z"/>
	<path fill="none" stroke="#000000" stroke-width="2" stroke-linecap="round" stroke-linejoin="round" stroke-miterlimit="10" d="
		M38.7,41.8l4.2-3.1l11.7,15.6c0.8,1.1,0.6,2.7-0.6,3.6l0,0c-1.2,0.9-2.8,0.7-3.6-0.5L38.7,41.8z"/>
	<path fill="#92D3F5" d="M37.7,18.7c-1.6-2.2-4-3.6-6.7-4c-1.8-0.3-3.7,0-5.3,0.7c2.4,0.2,6.3,1.4,9.4,6c2.7,3.9,2.9,7.3,2.5,9.5
		C40.3,27.5,40.5,22.5,37.7,18.7z"/>
</g>
</svg>
