<?xml version="1.0" encoding="utf-8"?>
<!-- Generator: Adobe Illustrator 21.1.0, SVG Export Plug-In . SVG Version: 6.00 Build 0)  -->
<svg version="1.1" id="emoji" xmlns="http://www.w3.org/2000/svg" xmlns:xlink="http://www.w3.org/1999/xlink" x="0px" y="0px"
	 viewBox="0 0 72 72" enable-background="new 0 0 72 72" xml:space="preserve">
<g id="_xD83D__xDD0C__1_">
	<path fill="#9C9C9A" d="M30.6,51.1c0.5-0.1,1.1,0.2,1.2,0.7l1.5,5.4h8.4l1.5-5.4c0.1-0.5,0.7-0.9,1.2-0.7c0,0,0,0,0,0"/>
	<path fill="#3F3F3F" d="M33,24.1c-0.6,0-1-0.4-1-1V8.2c0-1.3-1-2.3-2.3-2.3c-1.3,0-2.3,1-2.3,2.3v14.9c0,0.6-0.4,1-1,1"/>
	<path fill="#3F3F3F" d="M49.5,24.1c-0.6,0-1-0.4-1-1V8.2c0-1.3-1-2.3-2.3-2.3c-1.3,0-2.3,1-2.3,2.3v14.9c0,0.6-0.4,1-1,1"/>
	<path fill="#D0D0D0" d="M47.6,24.2H20.4v10.5c0,9.5,7.7,17.2,17.1,17.2c3.5,0,7-1.1,9.9-3.1C48.1,40.6,48.1,32.4,47.6,24.2z"/>
	<path fill="#9C9C9A" d="M47.6,24.2c0.5,8.2,0.5,16.4-0.1,24.5c4.6-3.2,7.3-8.5,7.3-14.1V24.2L47.6,24.2z"/>
	<path fill="#D0D0D0" d="M41.7,67.1c-0.6,0-1-0.4-1-1V59h-6.1v7.1c0,0.6-0.4,1-1,1"/>
	<path fill="none" stroke="#010101" stroke-width="2" stroke-linecap="round" stroke-miterlimit="10" d="M33,23.1V8.2
		c0-1.8-1.5-3.3-3.3-3.3h0l0,0c-1.8,0-3.3,1.5-3.3,3.3l0,0v14.9"/>
	<path fill="none" stroke="#010101" stroke-width="2" stroke-linecap="round" stroke-miterlimit="10" d="M49.5,23.1V8.2
		c0-1.8-1.5-3.3-3.3-3.3h0l0,0c-1.8,0-3.3,1.5-3.3,3.3l0,0v14.9"/>
	<path fill="none" stroke="#010101" stroke-width="2" stroke-linecap="round" stroke-linejoin="round" d="M19.4,23.2v11.5
		c0,10,8.1,18.2,18.2,18.2s18.2-8.1,18.2-18.2V23.2H19.4z"/>
	<polyline fill="none" stroke="#010101" stroke-width="2" stroke-linecap="round" stroke-linejoin="round" points="31,51.8 32.7,58 
		42.6,58 44.2,51.8 	"/>
	<polyline fill="none" stroke="#010101" stroke-width="2" stroke-linecap="round" stroke-linejoin="round" points="33.6,66.1 
		33.6,58 41.7,58 41.7,66.1 	"/>
</g>
</svg>
