<?xml version="1.0" encoding="utf-8"?>
<!-- Generator: Adobe Illustrator 19.1.0, SVG Export Plug-In . SVG Version: 6.00 Build 0)  -->
<svg version="1.1" id="emoji" xmlns="http://www.w3.org/2000/svg" xmlns:xlink="http://www.w3.org/1999/xlink" x="0px" y="0px"
	 viewBox="0 0 72 72" enable-background="new 0 0 72 72" xml:space="preserve">
<g id="_xD83D__xDD12__xFE0F__1_">
	
		<path fill="#D0CFCE" stroke="#D0CFCE" stroke-width="2" stroke-linecap="round" stroke-linejoin="round" stroke-miterlimit="10" d="
		M21.4,31.2c-0.4-8.8,6.4-18.5,14.4-18.8c8-0.2,16.5,11,14.3,19.1h-4c0,0,1.6-7.9-2.2-11.3c-1.8-1.6-5.3-4.8-8.6-4.3
		c-2.3,0.3-6.9,3.5-7.9,5.4c-2.1,3.8-1.7,9.8-1.7,9.8L21.4,31.2z"/>
	<polygon fill="#FCEA2B" points="53,32.3 54.9,32.3 54.9,59.2 16.9,59.2 16.9,32.3 18.8,32.3 	"/>
	<polygon fill="#F1B31C" points="54.4,32.5 35.7,59 55,59 	"/>
	
		<polygon fill="none" stroke="#000000" stroke-width="2" stroke-linecap="round" stroke-linejoin="round" stroke-miterlimit="10" points="
		53,32.2 54.9,32.2 54.9,59.1 16.9,59.1 16.9,32.2 18.8,32.2 	"/>
	<path fill="none" stroke="#000000" stroke-width="2" stroke-linecap="round" stroke-linejoin="round" stroke-miterlimit="10" d="
		M21.4,28.9c0-8.4,6.4-16.3,14.3-16.5c8-0.3,15.4,7.3,14.7,16.5"/>
	<path fill="none" stroke="#000000" stroke-width="2" stroke-linecap="round" stroke-linejoin="round" stroke-miterlimit="10" d="
		M25.5,28.9c0-6.3,4.6-12.3,10.2-12.5c5.7-0.2,11,5.5,10.5,12.5"/>
	<path fill="none" stroke="#1D1D1B" stroke-width="2" stroke-linecap="round" stroke-linejoin="round" stroke-miterlimit="10" d="
		M46.3,29.9"/>
</g>
</svg>
