<?xml version="1.0" encoding="utf-8"?>
<!-- Generator: Adobe Illustrator 21.1.0, SVG Export Plug-In . SVG Version: 6.00 Build 0)  -->
<svg version="1.1" id="emoji" xmlns="http://www.w3.org/2000/svg" xmlns:xlink="http://www.w3.org/1999/xlink" x="0px" y="0px"
	 viewBox="0 0 72 72" enable-background="new 0 0 72 72" xml:space="preserve">
<g id="_xD83D__xDD11__1_">
	<path fill="#F4AA41" d="M33.5,32c-1.4-4.3-0.2-9.4,3.4-13.1c5-5,12.8-5.4,17.4-0.8s4.2,12.4-0.8,17.4c-4.1,4.1-10.4,5.5-14.3,2.6"
		/>
	
		<polyline fill="#F4AA41" stroke="#F4AA41" stroke-width="2" stroke-linecap="round" stroke-linejoin="round" stroke-miterlimit="10" points="
		33.7,31.7 31.2,34.2 14.6,50.5 14.6,57.7 22,57.7 22,53.1 27.1,53.1 27.1,47.3 32,47.3 34.4,44.9 34.4,40.6 36.4,40.6 39.5,37.5 	
		"/>
	
		<polyline fill="none" stroke="#000000" stroke-width="2" stroke-linecap="round" stroke-linejoin="round" stroke-miterlimit="10" points="
		30.7,34.7 14.3,50.7 14.3,57.9 21.9,57.9 21.9,53.3 27,53.3 27,47.4 32.1,47.4 34.5,45 34.5,40.7 36.5,40.7 	"/>
	<polygon fill="#E27022" points="16,53.3 16,51.4 31.9,35.9 32.9,36.8 	"/>
	<circle fill="#E27022" cx="48.5" cy="24" r="4"/>
	
		<circle fill="none" stroke="#000000" stroke-width="2" stroke-linecap="round" stroke-linejoin="round" stroke-miterlimit="10" cx="48.5" cy="24" r="4"/>
	<path fill="none" stroke="#000000" stroke-width="2" stroke-linecap="round" stroke-linejoin="round" stroke-miterlimit="10" d="
		M34.2,31.2c-1.4-4.2-0.3-9.2,3.2-12.7c4.8-4.8,12.5-4.9,17-0.3s4.3,12.2-0.5,17c-3.9,3.9-9.6,4.7-14.1,2.4"/>
</g>
</svg>
