<?xml version="1.0" encoding="utf-8"?>
<!-- Generator: Adobe Illustrator 21.1.0, SVG Export Plug-In . SVG Version: 6.00 Build 0)  -->
<svg version="1.1" id="emoji" xmlns="http://www.w3.org/2000/svg" xmlns:xlink="http://www.w3.org/1999/xlink" x="0px" y="0px"
	 viewBox="0 0 72 72" enable-background="new 0 0 72 72" xml:space="preserve">
<g id="_xD83D__xDD1E_">
	<path fill="none" stroke="#000000" stroke-width="2" stroke-linecap="round" stroke-linejoin="round" stroke-miterlimit="10" d="
		M41.3,31.8c0.3,0,0.6,0,0.8,0c-0.3,0-0.7,0-1-0.1"/>
	
		<line fill="none" stroke="#000000" stroke-width="2" stroke-linecap="round" stroke-linejoin="round" stroke-miterlimit="10" x1="26" y1="36.5" x2="26" y2="53"/>
	<path fill="none" stroke="#000000" stroke-width="2" stroke-linecap="round" stroke-linejoin="round" stroke-miterlimit="10" d="
		M43.4,52.9C43,53,42.6,53,42.1,53c-5.9,0-10.6-4.8-10.6-10.6c0-0.4,0-0.9,0.1-1.3"/>
	<path fill="none" stroke="#000000" stroke-width="2" stroke-linecap="round" stroke-linejoin="round" stroke-miterlimit="10" d="
		M35.8,26.3c0-0.3-0.1-0.6-0.1-1c0-3.5,2.9-6.4,6.4-6.4c3.5,0,6.4,2.9,6.4,6.4s-2.9,6.4-6.4,6.4c5.9,0,10.6,4.8,10.6,10.6
		c0,0.3,0,0.6,0,0.8"/>
	
		<path fill="#E95947" stroke="#1D1D1B" stroke-width="2" stroke-linecap="round" stroke-linejoin="round" stroke-miterlimit="10" d="
		M36,7C20,7,7,20,7,36s13,29,29,29s29-13,29-29S52,7,36,7z M13,36c0-5.1,1.6-9.8,4.4-13.6l32.1,32.1C45.8,57.4,41.1,59,36,59
		C23.3,59,13,48.7,13,36z M54.6,49.6L22.4,17.4C26.2,14.6,30.9,13,36,13c12.7,0,23,10.3,23,23C59,41.1,57.4,45.8,54.6,49.6z"/>
</g>
</svg>
