<svg id="emoji" xmlns="http://www.w3.org/2000/svg" viewBox="0 0 72 72">
  <g id="color">
    <g>
      <polyline points="16.5 27.5 16.5 30.567 44.344 30.567 44.344 39 57 27.5" fill="#3f3f3f"/>
      <polyline points="16.5 27.5 16.5 24.433 44.344 24.433 44.344 16 57 27.5" fill="#3f3f3f"/>
    </g>
  </g>
  <g id="line">
    <g>
      <polyline points="16.5 27.5 16.5 30.567 44.344 30.567 44.344 39 57 27.5" fill="none" stroke="#000" stroke-linecap="round" stroke-linejoin="round" stroke-width="2"/>
      <polyline points="16.5 27.5 16.5 24.433 44.344 24.433 44.344 16 57 27.5" fill="none" stroke="#000" stroke-linecap="round" stroke-linejoin="round" stroke-width="2"/>
    </g>
    <path d="M24.3987,45.4609a3.0492,3.0492,0,0,0-3.0732-1.9942h0c-1.7325,0-3.1369,1.1182-3.1369,2.4976s1.4044,2.4977,3.1369,2.4977l-.0638.0093c1.7326,0,3.137,1.1182,3.137,2.4977s-1.4044,2.4977-3.137,2.4977h0a3.049,3.049,0,0,1-3.0731-1.9943" fill="none" stroke="#000" stroke-linecap="round" stroke-linejoin="round" stroke-width="2"/>
    <polyline points="47.392 53.383 47.392 43.383 54.534 53.383 54.534 43.383" fill="none" stroke="#000" stroke-linecap="round" stroke-linejoin="round" stroke-width="2"/>
    <path d="M40.9631,53.3449h0a3.5715,3.5715,0,0,1-3.5715-3.5714V46.9163a3.5715,3.5715,0,0,1,3.5715-3.5714h0a3.5714,3.5714,0,0,1,3.5714,3.5714v2.8572A3.5714,3.5714,0,0,1,40.9631,53.3449Z" fill="none" stroke="#000" stroke-linecap="round" stroke-linejoin="round" stroke-width="2"/>
    <path d="M30.9631,53.3449h0a3.5715,3.5715,0,0,1-3.5715-3.5714V46.9163a3.5715,3.5715,0,0,1,3.5715-3.5714h0a3.5714,3.5714,0,0,1,3.5714,3.5714v2.8572A3.5714,3.5714,0,0,1,30.9631,53.3449Z" fill="none" stroke="#000" stroke-linecap="round" stroke-linejoin="round" stroke-width="2"/>
  </g>
</svg>
