<?xml version="1.0" encoding="utf-8"?>
<!-- Generator: Adobe Illustrator 19.1.0, SVG Export Plug-In . SVG Version: 6.00 Build 0)  -->
<svg version="1.1" id="emoji" xmlns="http://www.w3.org/2000/svg" xmlns:xlink="http://www.w3.org/1999/xlink" x="0px" y="0px"
	 viewBox="0 0 72 72" enable-background="new 0 0 72 72" xml:space="preserve">
<g id="_xD83D__xDD13__xFE0F__1_">
	<polygon fill="#FCEA2B" points="53,32.3 54.9,32.3 54.9,59.2 16.9,59.2 16.9,32.3 18.8,32.3 	"/>
	<polygon fill="#F1B31C" points="54.4,32.5 35.7,59 55,59 	"/>
	<path fill="#D0CFCE" stroke="#D0CFCE" stroke-width="2" stroke-linejoin="round" stroke-miterlimit="10" d="M46.1,31.8l0.2-2.9
		c0.5-7-4.8-12.7-10.5-12.5c-4.7,0.2-8.6,4.3-9.8,9.3l-4.1-0.9c1.7-6.7,7.2-12.2,13.8-12.4c8-0.3,15.4,7.3,14.7,16.5l-0.2,2.9"/>
	
		<polygon fill="none" stroke="#000000" stroke-width="2" stroke-linecap="round" stroke-linejoin="round" stroke-miterlimit="10" points="
		53,32.2 54.9,32.2 54.9,59.1 16.9,59.1 16.9,32.2 18.8,32.2 	"/>
	<path fill="none" stroke="#000000" stroke-width="2" stroke-linecap="round" stroke-linejoin="round" stroke-miterlimit="10" d="
		M46.3,28.9c0.5-7-4.8-12.7-10.5-12.5c-4.7,0.2-8.6,4.3-9.8,9.3l-4.1-0.9c1.7-6.7,7.2-12.2,13.8-12.4c8-0.3,15.4,7.3,14.7,16.5"/>
	<path fill="none" stroke="#1D1D1B" stroke-width="2" stroke-linecap="round" stroke-linejoin="round" stroke-miterlimit="10" d="
		M46.3,29.9"/>
</g>
</svg>
