<?xml version="1.0" encoding="utf-8"?>
<!-- Generator: Adobe Illustrator 19.1.0, SVG Export Plug-In . SVG Version: 6.00 Build 0)  -->
<svg version="1.1" id="emoji" xmlns="http://www.w3.org/2000/svg" xmlns:xlink="http://www.w3.org/1999/xlink" x="0px" y="0px"
	 viewBox="0 0 72 72" enable-background="new 0 0 72 72" xml:space="preserve">
<g id="_xD83D__xDD2A_">
	<path fill="#3F3F3F" stroke="#3F3F3F" stroke-width="2" stroke-miterlimit="10" d="M24.3,30.1c-3.5-0.3-13.7-0.8-18.7,0
		c0,0-1.4,0.8,0,4.6c0,0,1.3,0.5,3,0.5c1.5,0,12.9,1.5,15.7,1.1"/>
	
		<path fill="#3F3F3F" stroke="#1D1D1B" stroke-width="2" stroke-linecap="round" stroke-linejoin="round" stroke-miterlimit="10" d="
		M20.5,30.1c-3.5-0.3-10.9-0.8-15.9,0c0,0-1.4,1.8,0,5.6c0,0,2.3-0.5,4-0.5c1.5,0,9.4,1.2,12.2,0.8"/>
	
		<path fill="#D0CFCE" stroke="#1D1D1B" stroke-width="2" stroke-linecap="round" stroke-linejoin="round" stroke-miterlimit="10" d="
		M24.3,39.8h9.3c32,0,31.9-9.7,31.9-9.7H33.6h-9.3V39.8"/>
</g>
</svg>
