<?xml version="1.0" encoding="utf-8"?>
<!-- Generator: Adobe Illustrator 21.1.0, SVG Export Plug-In . SVG Version: 6.00 Build 0)  -->
<svg version="1.1" id="emoji" xmlns="http://www.w3.org/2000/svg" xmlns:xlink="http://www.w3.org/1999/xlink" x="0px" y="0px"
	 viewBox="0 0 72 72" enable-background="new 0 0 72 72" xml:space="preserve">
<g id="_xD83D__xDD2D_">
	<g>
		<path fill="#3E4040" d="M45.7,22.2l3.7-1.3c-0.1,0-0.1,0-0.2,0c-0.4,0,3-2.6,3-2.6l-3.4-7.7c0,0-4.2,1.3-3.9,1l-3.1,1.6
			c0.2-0.1,0.5,1.1,0.6,1.3l2.5,6.4C44.9,21.2,45.9,22.1,45.7,22.2z"/>
	</g>
	<path fill="#9C9C9A" d="M29.1,28.2l3.8-1.4c-0.1,0,12.4-5.8,12.4-5.8l-3.2-6.9c0,0-11.9,4.9-11.7,4.8l1.7-0.9l-5.2,2.6L29.1,28.2z"
		/>
	<path fill="#9C9C9A" d="M14.7,28l1.8,3.9c0,0,9.1-2.5,9-2.4l-1.1,0.4l5.4-1.9l-2.4-7.5l-4,2.1C23.4,22.5,14.7,28,14.7,28z"/>
	<g>
		
			<polyline fill="none" stroke="#000000" stroke-width="2" stroke-linecap="round" stroke-linejoin="round" stroke-miterlimit="10" points="
			16,56.7 29.1,36 31.6,36 43.9,56.7 		"/>
		
			<line fill="none" stroke="#000000" stroke-width="2" stroke-linecap="round" stroke-linejoin="round" stroke-miterlimit="10" x1="30.5" y1="36.7" x2="30.5" y2="60.3"/>
		
			<line fill="none" stroke="#000000" stroke-width="2" stroke-linecap="round" stroke-linejoin="round" stroke-miterlimit="10" x1="9.7" y1="32.6" x2="11.8" y2="31.7"/>
		
			<polyline fill="none" stroke="#000000" stroke-width="2" stroke-linecap="round" stroke-linejoin="round" stroke-miterlimit="10" points="
			45.6,12.2 48.8,10.6 52.4,18.8 49.2,19.9 		"/>
		
			<line fill="none" stroke="#000000" stroke-width="2" stroke-linecap="round" stroke-linejoin="round" stroke-miterlimit="10" x1="26.8" y1="19.9" x2="30.4" y2="31.4"/>
		<circle cx="30.4" cy="31.4" r="2"/>
		
			<polyline fill="none" stroke="#000000" stroke-width="2" stroke-linecap="round" stroke-linejoin="round" stroke-miterlimit="10" points="
			25,28.5 16.2,31.7 14.7,28.2 23.5,23.6 		"/>
		
			<polyline fill="none" stroke="#000000" stroke-width="2" stroke-linecap="round" stroke-linejoin="round" stroke-miterlimit="10" points="
			30.9,19.8 42.1,14.1 45.3,21.3 32.7,25.8 		"/>
	</g>
</g>
</svg>
