<?xml version="1.0" encoding="utf-8"?>
<!-- Generator: Adobe Illustrator 21.1.0, SVG Export Plug-In . SVG Version: 6.00 Build 0)  -->
<svg version="1.1" id="emoji" xmlns="http://www.w3.org/2000/svg" xmlns:xlink="http://www.w3.org/1999/xlink" x="0px" y="0px"
	 viewBox="0 0 72 72" enable-background="new 0 0 72 72" xml:space="preserve">
<g id="_xD83D__xDD21_">
	<path fill="#D0CECE" stroke="#1D1D1B" stroke-width="2" stroke-linejoin="round" stroke-miterlimit="10" d="M59,60H13
		c-0.5,0-1-0.4-1-1V13c0-0.5,0.4-1,1-1H59c0.5,0,1,0.4,1,1V59C60,59.6,59.6,60,59,60z"/>
	<g>
		<path fill="none" stroke="#000000" stroke-width="2" stroke-linecap="round" stroke-linejoin="round" stroke-miterlimit="10" d="
			M32.9,48.6c-0.4,0.4-1,0.6-1.7,0.6l0,0c-1.4,0-2.5-1.1-2.5-2.5v-2v2v-2c0-1.4,1.1-2.5,2.5-2.5l0,0c0.6,0,1.2,0.2,1.7,0.6"/>
		<g>
			<path fill="none" stroke="#000000" stroke-width="2" stroke-linecap="round" stroke-linejoin="round" stroke-miterlimit="10" d="
				M42.5,49.2L42.5,49.2c-1.4,0-2.5-1.1-2.5-2.5v-2c0-1.4,1.1-2.5,2.5-2.5l0,0c1.4,0,2.5,1.1,2.5,2.5v2C45,48.1,43.9,49.2,42.5,49.2
				z"/>
			
				<line fill="none" stroke="#000000" stroke-width="2" stroke-linecap="round" stroke-linejoin="round" stroke-miterlimit="10" x1="45" y1="46.3" x2="45" y2="37.3"/>
		</g>
		<g>
			<path fill="none" stroke="#000000" stroke-width="2" stroke-linecap="round" stroke-linejoin="round" stroke-miterlimit="10" d="
				M42.5,32.5L42.5,32.5c1.4,0,2.5-1.1,2.5-2.5v-2c0-1.4-1.1-2.5-2.5-2.5l0,0c-1.4,0-2.5,1.1-2.5,2.5v2C40,31.4,41.1,32.5,42.5,32.5
				z"/>
			
				<line fill="none" stroke="#000000" stroke-width="2" stroke-linecap="round" stroke-linejoin="round" stroke-miterlimit="10" x1="40" y1="29.5" x2="40" y2="20.5"/>
		</g>
		<g>
			<path fill="none" stroke="#000000" stroke-width="2" stroke-linecap="round" stroke-linejoin="round" stroke-miterlimit="10" d="
				M28,30.7L28,30.7c0,1,0.9,1.8,1.9,1.8h1.5c1.1,0,1.9-0.8,1.9-1.8l0,0c0-1-0.9-1.8-1.9-1.8h-1.5C28.9,28.9,28,29.7,28,30.7z"/>
			<path fill="none" stroke="#000000" stroke-width="2" stroke-linecap="round" stroke-linejoin="round" stroke-miterlimit="10" d="
				M28.4,26.3c0.4-0.6,1.2-0.9,2-0.9h0.8c1.3,0,2.4,0.9,2.4,2l0,0v5.2"/>
		</g>
	</g>
</g>
</svg>
