<?xml version="1.0" encoding="utf-8"?>
<!-- Generator: Adobe Illustrator 21.1.0, SVG Export Plug-In . SVG Version: 6.00 Build 0)  -->
<svg version="1.1" id="emoji" xmlns="http://www.w3.org/2000/svg" xmlns:xlink="http://www.w3.org/1999/xlink" x="0px" y="0px"
	 viewBox="0 0 72 72" enable-background="new 0 0 72 72" xml:space="preserve">
<g id="_xD83D__xDD27_">
	<path fill="#D0CFCE" d="M41,64.9V36.5l1.4-0.5c4.1-1.6,7-5.2,7.6-9.6v0c0.6-4.3-0.5-7.6-3-10.1c0,0-1.4-1.4-3.6-2.5
		c-0.7-0.3-1.4,0.2-1.4,0.9l0,7.6l-2,3h-3h-1h-3l-2-3l0-7.6c0-0.7-0.8-1.2-1.4-0.9c-2.2,1.1-3.6,2.5-3.6,2.5
		c-2.5,2.6-3.6,5.9-3,10.1c0,0,0,0.1,0,0.1c0.6,4.4,3.7,8,7.8,9.6l1.2,0.4v28.4"/>
	<path fill="none" stroke="#000000" stroke-width="2" stroke-linecap="round" stroke-linejoin="round" stroke-miterlimit="10" d="
		M41,63.9v-28l1.4-0.5c4.1-1.5,7-5.2,7.6-9.5v0c0.6-4.2-0.5-7.5-3-10c0,0-1.4-1.4-3.6-2.4c-0.7-0.3-1.4,0.2-1.4,0.9l0,7.5l-2,3h-3
		h-1h-3l-2-3l0-7.5c0-0.7-0.8-1.2-1.4-0.9c-2.2,1-3.6,2.4-3.6,2.4c-2.5,2.5-3.6,5.8-3,10c0,0,0,0.1,0,0.1c0.6,4.3,3.7,7.9,7.8,9.5
		l1.2,0.4v28"/>
</g>
</svg>
