<?xml version="1.0" encoding="utf-8"?>
<!-- Generator: Adobe Illustrator 21.1.0, SVG Export Plug-In . SVG Version: 6.00 Build 0)  -->
<svg version="1.1" id="emoji" xmlns="http://www.w3.org/2000/svg" xmlns:xlink="http://www.w3.org/1999/xlink" x="0px" y="0px"
	 viewBox="0 0 72 72" enable-background="new 0 0 72 72" xml:space="preserve">
<g id="_xD83D__xDD26__1_">
	
		<line fill="none" stroke="#FCEA2B" stroke-width="2" stroke-linecap="round" stroke-linejoin="round" stroke-miterlimit="10" x1="13.2" y1="46.3" x2="9.3" y2="47.3"/>
	
		<line fill="none" stroke="#FCEA2B" stroke-width="2" stroke-linecap="round" stroke-linejoin="round" stroke-miterlimit="10" x1="19.1" y1="53.2" x2="15.2" y2="57"/>
	
		<line fill="none" stroke="#FCEA2B" stroke-width="2" stroke-linecap="round" stroke-linejoin="round" stroke-miterlimit="10" x1="26.2" y1="59.5" x2="25.1" y2="63.1"/>
	<g>
		<path fill="#D0CFCE" d="M56.5,17c-2-2-4-3.5-5-2.7L29.6,36.2c1.3,0.5,2.9,1.5,3.9,2.5c1,1,2.8,3.8,3.4,5.1l21.9-22.5
			C58.7,20.8,58.5,19,56.5,17z"/>
		<path fill="#D0CFCE" d="M20.5,38.2l-4.8,4.9l14.1,14.1L35,52c1.7-1.7,1.5-3.8,1.5-6.2s-0.9-5-2.6-6.7C30.4,35.6,24,34.7,20.5,38.2
			z"/>
	</g>
	<path fill="#9B9B9A" d="M35.8,39.8c0.4,0.6,0.7,3.2,1,3.9l21.9-22.5c0-0.2-0.1-2.1-0.6-2.7c-0.3-0.3-1,0.7-1.3,0.3L35.8,39.8z"/>
	<path fill="#9B9B9A" d="M27.4,54.9l2.4,2.4l4.8-4.9c1.7-1.7,2.4-4.5,2.4-6.9c0-0.8-0.4-2.9-0.9-3.5c-0.5-0.6-1.1,0.3-1.5-0.4
		c-0.2-0.3,0.6,2.3-0.6,5.8C32.9,50.8,27.4,54.9,27.4,54.9z"/>
	<g>
		<path fill="none" stroke="#000000" stroke-width="2" stroke-linecap="round" stroke-linejoin="round" stroke-miterlimit="10" d="
			M29.6,36.2l21.9-21.9c0,0,1.5-0.8,4.6,2.3c3.1,3.1,2.6,5,2.6,5L36.8,43.4"/>
		<path fill="none" stroke="#000000" stroke-width="2" stroke-linecap="round" stroke-linejoin="round" stroke-miterlimit="10" d="
			M19.7,39.1c3.9-3.9,10.2-3.9,14.1,0c3.9,3.9,3.9,10.2,0,14.1l-4.1,4.1L15.7,43.2L19.7,39.1z"/>
	</g>
</g>
</svg>
