<?xml version="1.0" encoding="utf-8"?>
<!-- Generator: Adobe Illustrator 19.1.0, SVG Export Plug-In . SVG Version: 6.00 Build 0)  -->
<svg version="1.1" id="emoji" xmlns="http://www.w3.org/2000/svg" xmlns:xlink="http://www.w3.org/1999/xlink" x="0px" y="0px"
	 viewBox="0 0 72 72" enable-background="new 0 0 72 72" xml:space="preserve">
<g id="_xD83D__xDD31_">
	<path fill="#FCEA2B" d="M40.2,68l0-8.7c1.6,1,3.5,1.5,5.5,1.5c4.8,0,9.2-2,10.5-7.1c0.3-1.2,0.3-2.5,0.2-3.7l-0.2-0.8
		c-1.3-5.9-1.8-12-1.6-18l0,0h3l-4.5-8l-4.5,8h3l-0.5,9.3l-0.3,5.2c-0.1,1.4-0.4,2.8-1,4.1l0,0c-1.7,3.7-6.9,3.7-8.6,0l0,0
		c-0.6-1.3-0.9-2.7-1.1-4.1l-1.6-19.6l0-0.3h3l-4.5-8l-4.5,8h3l0,0.2L34,45.6c-0.1,1.4-0.5,2.8-1.1,4.1l0,0c-1.7,3.7-6.9,3.7-8.6,0
		l0,0c-0.6-1.3-0.9-2.7-1-4.1l-0.3-5.2l-0.5-9.3h3l-4.5-8l-4.5,8h3l0,0c0.3,6-0.3,12.1-1.6,18l-0.2,0.8c-0.1,1.2-0.1,2.5,0.2,3.7
		c1.3,5,5.7,7.1,10.5,7.1c2,0,3.9-0.5,5.5-1.5l0,8.7L40.2,68z"/>
	<path fill="none" stroke="#000000" stroke-width="2" stroke-linecap="round" stroke-linejoin="round" stroke-miterlimit="10" d="
		M40.2,67v-8.5c1.6,0.9,3.5,1.5,5.5,1.5c4.8,0,9.2-2,10.5-6.9c0.3-1.2,0.3-2.4,0.2-3.6l-0.2-0.8c-1.3-5.8-1.8-11.7-1.6-17.7l0,0h3
		l-4.5-7.8L48.7,31h3l-0.5,9.1l-0.3,5.1c-0.1,1.4-0.4,2.7-1,4l0,0c-1.7,3.7-6.9,3.7-8.6,0l0,0c-0.6-1.3-0.9-2.6-1.1-4L38.7,26l0-0.3
		h3l-4.5-7.8l-4.5,7.8h3l0,0.2L34,45.1c-0.1,1.4-0.5,2.7-1.1,4l0,0c-1.7,3.7-6.9,3.7-8.6,0l0,0c-0.6-1.3-0.9-2.6-1-4L23.1,40
		l-0.5-9.1h3L21.1,23l-4.5,7.8h3l0,0c0.3,5.9-0.3,11.9-1.6,17.7l-0.2,0.8c-0.1,1.2-0.1,2.4,0.2,3.6c1.3,4.9,5.7,6.9,10.5,6.9
		c2,0,3.9-0.5,5.5-1.5l0,8.6"/>
</g>
</svg>
