<?xml version="1.0" encoding="utf-8"?>
<!-- Generator: Adobe Illustrator 21.1.0, SVG Export Plug-In . SVG Version: 6.00 Build 0)  -->
<svg version="1.1" id="emoji" xmlns="http://www.w3.org/2000/svg" xmlns:xlink="http://www.w3.org/1999/xlink" x="0px" y="0px"
	 viewBox="0 0 72 72" enable-background="new 0 0 72 72" xml:space="preserve">
<g id="_xD83D__xDD4D__1_">
	<path fill="#F4AA41" stroke="#000000" stroke-width="2" stroke-miterlimit="10" d="M52,33.8V60H18V33.8c0-0.3,0.2-0.6,0.4-0.8
		l16-11.7c0.4-0.3,0.9-0.3,1.2,0l16,11.7C51.8,33.2,52,33.5,52,33.8z"/>
	
		<rect x="8" y="39" fill="#F4AA41" stroke="#000000" stroke-width="2" stroke-linecap="round" stroke-linejoin="round" stroke-miterlimit="10" width="10" height="21"/>
	
		<rect x="52" y="39" fill="#F4AA41" stroke="#000000" stroke-width="2" stroke-linecap="round" stroke-linejoin="round" stroke-miterlimit="10" width="10" height="21"/>
	
		<path fill="#A57939" stroke="#000000" stroke-width="2" stroke-linecap="round" stroke-linejoin="round" stroke-miterlimit="10" d="
		M39,60h-8v-6c0-1.7,1.3-3,3-3h2c1.7,0,3,1.3,3,3V60z"/>
	<path fill="none" stroke="#000000" stroke-width="2" stroke-linecap="round" stroke-linejoin="round" stroke-miterlimit="10" d="
		M14,47h-2v-3c0-0.6,0.4-1,1-1l0,0"/>
	<path fill="none" stroke="#000000" stroke-width="2" stroke-linecap="round" stroke-linejoin="round" stroke-miterlimit="10" d="
		M58,47h-2v-3c0-0.6,0.4-1,1-1l0,0"/>
	
		<line fill="none" stroke="#000000" stroke-width="2" stroke-linecap="round" stroke-linejoin="round" stroke-miterlimit="10" x1="35" y1="60" x2="35" y2="51"/>
	
		<polygon fill="#3F3F3F" stroke="#000000" stroke-width="2" stroke-linecap="round" stroke-linejoin="round" stroke-miterlimit="10" points="
		57,30 52,39 62,39 	"/>
	
		<polygon fill="#3F3F3F" stroke="#000000" stroke-width="2" stroke-linecap="round" stroke-linejoin="round" stroke-miterlimit="10" points="
		13,30 8,39 18,39 	"/>
	
		<polygon fill="#FFFFFF" stroke="#000000" stroke-width="2" stroke-linecap="round" stroke-linejoin="round" stroke-miterlimit="10" points="
		35,27 26.3,42 43.7,42 	"/>
	
		<polygon fill="#D0CFCE" stroke="#000000" stroke-width="2" stroke-linecap="round" stroke-linejoin="round" stroke-miterlimit="10" points="
		35,47 43.7,32 26.3,32 	"/>
	
		<polygon fill="#D0CFCE" stroke="#000000" stroke-width="2" stroke-linecap="round" stroke-linejoin="round" stroke-miterlimit="10" points="
		35,27 26.3,42 43.7,42 	"/>
	
		<polygon fill="none" stroke="#000000" stroke-width="2" stroke-linecap="round" stroke-linejoin="round" stroke-miterlimit="10" points="
		35,47 43.7,32 26.3,32 	"/>
</g>
</svg>
