<?xml version="1.0" encoding="utf-8"?>
<!-- Generator: Adobe Illustrator 21.1.0, SVG Export Plug-In . SVG Version: 6.00 Build 0)  -->
<svg version="1.1" id="emoji" xmlns="http://www.w3.org/2000/svg" xmlns:xlink="http://www.w3.org/1999/xlink" x="0px" y="0px"
	 viewBox="0 0 72 72" enable-background="new 0 0 72 72" xml:space="preserve">
<g id="_xD83D__xDD75__1_">
	<path fill="#A37838" d="M55.2,58.9c0,0,3.8-14-10.5-14.9c-3.2,2.1-5.9,3.6-9,3.6h0.1c-3.1,0-5.8-1.5-9-3.6c-12,0-10,14.9-10,14.9"
		/>
	<polygon fill="#CFCFCE" points="38.7,58.9 32.6,58.9 32.6,51.4 29.6,48 41.1,48 38.7,51.4 	"/>
	<g id="XMLID_72_">
		<g>
			<path fill="#69462E" d="M44.8,44.8l-5.9,7.3c6-4.9,6.3,4.3,6.3,4.3l8.9-7.1c-1.2-2.8-3.8-5.2-9-5.2c-0.2,0.1-0.4,0.2-0.5,0.4
				L44.8,44.8z"/>
		</g>
		<g>
		</g>
	</g>
	<path fill="none" stroke="#000000" stroke-width="2" stroke-linecap="round" stroke-linejoin="round" stroke-miterlimit="10" d="
		M54.7,57.9c0,0,0.2-1.3,0.1-3.1"/>
	<ellipse transform="matrix(0.3572 -0.934 0.934 0.3572 -7.2958 80.403)" fill="#CFCFCE" cx="54.8" cy="45.5" rx="5" ry="5"/>
	
		<line fill="none" stroke="#000000" stroke-width="2" stroke-linecap="round" stroke-linejoin="round" stroke-miterlimit="10" x1="53" y1="50.2" x2="49.6" y2="59"/>
	<g id="XMLID_70_">
		<g>
			<path fill="#FCEA2C" d="M47.1,25c0.2,1.1,0.3,2.2,0.3,3.4c0,7.8-5.1,14.2-11.3,14.2s-11.3-6.3-11.3-14.2c0-1.2,0.1-2.3,0.3-3.4v0
				c0.2-1,0.5-2,0.9-2.9c0,0,0.1,0,0.1,0c3,0.6,6.3,0.9,9.5,0.9H36c3.2,0,6.5-0.3,9.5-0.9l0.8,0.2c0.2,0.6,0.4,1.3,0.6,1.9
				C46.9,24.5,47,24.7,47.1,25z M42,27c0-1.1-0.9-2-2-2c-1.1,0-2,0.9-2,2c0,1.1,0.9,2,2,2C41.1,29,42,28.1,42,27z M39.5,36.1
				c0.5-0.2,0.7-0.8,0.4-1.3c-0.2-0.5-0.8-0.7-1.3-0.5c-1.7,0.9-3.4,0.9-5.1,0c-0.5-0.2-1.1,0-1.3,0.5c-0.3,0.5,0,1.1,0.4,1.3
				c1.2,0.6,2.3,0.9,3.5,0.9C37.2,37,38.3,36.7,39.5,36.1z M34,27c0-1.1-0.9-2-2-2c-1.1,0-2,0.9-2,2c0,1.1,0.9,2,2,2
				C33.1,29,34,28.1,34,27z"/>
			<path fill="#69462E" d="M35.7,8.7c13.6,1.5,13.4,11,11.1,15.5h0c-0.2-0.7-0.4-1.3-0.6-1.9l-0.8-0.2c0.6-0.1,0.9-0.8,1.3-1.3
				c-0.7-0.9-1.5-1.7-2.5-2.3l0.1-0.1C42.5,13.6,38.2,9.4,35.7,8.7z"/>
			<path fill="#A37838" d="M25.9,22.1c-0.6-0.2-0.8-0.8-1.2-1.2c0.7-0.9,1.5-1.7,2.5-2.3c0,0,0.1,0,0.1,0c2.4-1.4,5.4-2,8.4-1.9
				c3-0.1,6,0.5,8.4,1.9c0,0,0,0,0.1,0c1,0.6,1.9,1.4,2.5,2.3c-0.3,0.5-0.6,1.1-1.3,1.3c-3,0.6-6.3,0.9-9.5,0.9h-0.5
				C32.3,23,28.9,22.7,25.9,22.1C25.9,22.1,25.9,22.1,25.9,22.1z"/>
			<path fill="#A37838" d="M44.3,18.4L44.3,18.4c-0.1,0.1-0.1,0.1-0.1,0c-2.4-1.4-5.4-2-8.4-1.9c-3-0.1-6.1,0.5-8.4,1.9
				c0,0,0,0-0.1,0l-0.1-0.1c1.8-4.8,6-9.1,8.5-9.7C38.2,9.4,42.5,13.6,44.3,18.4z"/>
			<path d="M40,25c1.1,0,2,0.9,2,2c0,1.1-0.9,2-2,2c-1.1,0-2-0.9-2-2C38,25.9,38.9,25,40,25z"/>
			<path d="M39.9,34.8c0.2,0.5,0,1.1-0.4,1.3C38.3,36.7,37.2,37,36,37c-1.2,0-2.3-0.3-3.5-0.9c-0.5-0.2-0.7-0.8-0.4-1.3
				c0.2-0.5,0.8-0.7,1.3-0.5c1.7,0.9,3.4,0.9,5.1,0C39.1,34.1,39.7,34.3,39.9,34.8z"/>
			<path d="M32,25c1.1,0,2,0.9,2,2c0,1.1-0.9,2-2,2c-1.1,0-2-0.9-2-2C30,25.9,30.9,25,32,25z"/>
			<path fill="#69462E" d="M35.7,8.7c-2.5,0.7-6.8,4.9-8.5,9.7l0.1,0.1c-1,0.6-1.9,1.4-2.5,2.3c0.3,0.4,0.6,1.1,1.2,1.2
				C25.5,23,25.2,24,25,25C22.4,20.9,21.3,10.3,35.7,8.7z"/>
		</g>
		<g>
			<path fill="none" stroke="#000000" stroke-width="2" stroke-linecap="round" stroke-linejoin="round" stroke-miterlimit="10" d="
				M25,25c0.2-1,0.5-2,0.9-2.9v0"/>
			<path fill="none" stroke="#000000" stroke-width="2" stroke-linecap="round" stroke-linejoin="round" stroke-miterlimit="10" d="
				M46.3,22.3c0.2,0.6,0.4,1.3,0.6,1.9c0.1,0.2,0.1,0.5,0.2,0.8c0.2,1.1,0.3,2.2,0.3,3.4c0,7.8-5.1,14.2-11.3,14.2
				s-11.3-6.3-11.3-14.2c0-1.2,0.1-2.3,0.3-3.4"/>
			<path fill="none" stroke="#000000" stroke-width="2" stroke-linecap="round" stroke-linejoin="round" stroke-miterlimit="10" d="
				M35.7,16.6c-3-0.1-6.1,0.5-8.4,1.9c0,0,0,0-0.1,0c-1,0.6-1.9,1.4-2.5,2.3c0.3,0.4,0.6,1.1,1.2,1.2c0,0,0.1,0,0.1,0
				c3,0.6,6.3,0.9,9.5,0.9"/>
			<path fill="none" stroke="#000000" stroke-width="2" stroke-linecap="round" stroke-linejoin="round" stroke-miterlimit="10" d="
				M27.2,18.4c1.8-4.8,6-9.1,8.5-9.7C21.3,10.3,22.4,20.9,25,25v0"/>
			<path fill="none" stroke="#000000" stroke-width="2" stroke-linecap="round" stroke-linejoin="round" stroke-miterlimit="10" d="
				M35.7,16.6c3-0.1,6,0.5,8.4,1.9c0,0,0,0,0.1,0c1,0.6,1.9,1.4,2.5,2.3c-0.3,0.5-0.6,1.1-1.3,1.3c-3,0.6-6.3,0.9-9.5,0.9"/>
			<path fill="none" stroke="#000000" stroke-width="2" stroke-linecap="round" stroke-linejoin="round" stroke-miterlimit="10" d="
				M44.3,18.4c-1.8-4.8-6-9.1-8.5-9.7c13.6,1.5,13.4,11,11.1,15.5"/>
			
				<line fill="none" stroke="#000000" stroke-width="2" stroke-linecap="round" stroke-linejoin="round" stroke-miterlimit="10" x1="35.7" y1="8.7" x2="35.7" y2="7.3"/>
		</g>
	</g>
	<path fill="none" stroke="#000000" stroke-width="2" stroke-linecap="round" stroke-linejoin="round" stroke-miterlimit="10" d="
		M38.6,58v-5.8c6-4.9,6.3,3.5,6.3,3.5l3.7-2.9"/>
	<path fill="none" stroke="#000000" stroke-width="2" stroke-linecap="round" stroke-linejoin="round" stroke-miterlimit="10" d="
		M38.6,52.2"/>
	<g id="XMLID_71_">
		<g>
			<path fill="#69462E" d="M26.8,44.9l5.9,7.4c-6-4.9-6.3,3.5-6.3,3.5l-8.2-6.4h0C19.6,46.9,22.1,44.9,26.8,44.9z"/>
		</g>
		<g>
			<path fill="none" stroke="#000000" stroke-width="2" stroke-linecap="round" stroke-linejoin="round" stroke-miterlimit="10" d="
				M46.4,45c-0.7-0.1-0.9-0.2-1.7-0.2c-3.1,2.1-5.9,3.5-8.9,3.6h-0.1c-3,0-5.7-1.5-8.9-3.6c-4.7,0-7.3,2-8.6,4.5
				c-2.1,3.8-1.4,8.5-1.4,8.5"/>
			<path fill="none" stroke="#000000" stroke-width="2" stroke-linecap="round" stroke-linejoin="round" stroke-miterlimit="10" d="
				M32.7,58v-5.8c-6-4.9-6.3,3.5-6.3,3.5l-8.2-6.4"/>
			
				<line fill="none" stroke="#000000" stroke-width="2" stroke-linecap="round" stroke-linejoin="round" stroke-miterlimit="10" x1="32.7" y1="52.2" x2="26.8" y2="44.9"/>
		</g>
	</g>
	
		<line fill="none" stroke="#000000" stroke-width="2" stroke-linecap="round" stroke-linejoin="round" stroke-miterlimit="10" x1="38.6" y1="52.2" x2="44.7" y2="44.9"/>
	<path fill="#FFFFFF" d="M54.8,40.2l3.7,6.6c0.8,1.3,0.3,3-1.1,3.8l-0.2,0.1l-5-9"/>
	
		<ellipse transform="matrix(0.3572 -0.934 0.934 0.3572 -7.2958 80.403)" fill="none" stroke="#000000" stroke-width="2" stroke-linecap="round" stroke-linejoin="round" stroke-miterlimit="10" cx="54.8" cy="45.5" rx="5" ry="5"/>
</g>
</svg>
