<?xml version="1.0" encoding="utf-8"?>
<!-- Generator: Adobe Illustrator 21.1.0, SVG Export Plug-In . SVG Version: 6.00 Build 0)  -->
<svg version="1.1" id="emoji" xmlns="http://www.w3.org/2000/svg" xmlns:xlink="http://www.w3.org/1999/xlink" x="0px" y="0px"
	 viewBox="0 0 72 72" enable-background="new 0 0 72 72" xml:space="preserve">
<g id="_xD83D__xDD76__xFE0F__1_">
	<path fill="#3F3F3F" stroke="#3F3F3F" stroke-miterlimit="10" d="M36.2,33.2c1-0.2,2.4-0.4,3.2,3.6c0.5,2.6,2.5,2.4,3.6,4
		c2.3,3.3,7.1,5.5,11.4,5.5c6.9,0,12.5-5.6,12.5-12.5l0.1-4.9l1.9,0.1v-4.1c0,0-18.9-16.2-29.5,5.3h-3h-0.5h-3
		C22.4,8.6,3.4,24.7,3.4,24.7v4.1l1.9-0.1l0.1,4.9c0,6.9,5.6,12.5,12.5,12.5c4.3,0,9.1-2.2,11.4-5.5"/>
	<path fill="#3F3F3F" stroke="#3F3F3F" stroke-miterlimit="10" d="M36.2,33.2c1-0.2,2.4-0.4,3.2,3.6c0.5,2.6,2.5,2.4,3.6,4
		c2.3,3.3,7.1,5.5,11.4,5.5"/>
	<path fill="#3F3F3F" stroke="#3F3F3F" stroke-miterlimit="10" d="M18.3,45.9c4.3,0,9.1-2.2,11.4-5.5c1.1-1.6,2.3-1.4,3.7-3.7
		c0.3-0.5-3.6-4.9,3.1-3.9"/>
	<path fill="none" stroke="#000000" stroke-width="2" stroke-linecap="round" stroke-linejoin="round" stroke-miterlimit="10" d="
		M29.3,40.7c-2.2,3.3-7.1,5.5-11.4,5.5c-6.9,0-12.5-5.6-12.5-12.5l-0.1-4.9l-1.9,0.1v-4.1c0,0,18.9-16.2,29.5,5.3h3h0.5h3
		c10.5-21.5,29.5-5.3,29.5-5.3v4.1l-1.9-0.1l-0.1,4.9c0,6.9-5.6,12.5-12.5,12.5c-4.3,0-9.1-2.2-11.4-5.5"/>
	<path fill="none" stroke="#000000" stroke-width="2" stroke-linecap="round" stroke-linejoin="round" stroke-miterlimit="10" d="
		M33.4,36.7c0-1.7,1.3-3,3-3c1.7,0,3,1.3,3,3"/>
	
		<circle fill="none" stroke="#000000" stroke-width="2" stroke-linecap="round" stroke-linejoin="round" stroke-miterlimit="10" cx="18.4" cy="32.6" r="9.6"/>
	
		<circle fill="none" stroke="#000000" stroke-width="2" stroke-linecap="round" stroke-linejoin="round" stroke-miterlimit="10" cx="53.9" cy="32.6" r="9.6"/>
	<path fill="#3F3F3F" stroke="#9B9B9A" stroke-width="2" stroke-miterlimit="10" d="M32.6,38.8"/>
</g>
</svg>
