<?xml version="1.0" encoding="utf-8"?>
<!-- Generator: Adobe Illustrator 19.1.0, SVG Export Plug-In . SVG Version: 6.00 Build 0)  -->
<svg version="1.1" id="emoji" xmlns="http://www.w3.org/2000/svg" xmlns:xlink="http://www.w3.org/1999/xlink" x="0px" y="0px"
	 viewBox="0 0 72 72" enable-background="new 0 0 72 72" xml:space="preserve">
<g id="_xD83D__xDD79__xFE0F__1_">
	<polyline fill="#EA5A47" points="17,55 17,52 24,52 24,55 	"/>
	<circle fill="#EA5A47" cx="36" cy="17" r="10"/>
	<path fill="#3F3F3F" d="M27,55c0-3.9,4-7,9-7s9,3.1,9,7"/>
	
		<rect x="33" y="27" fill="#9B9B9A" stroke="#9B9B9A" stroke-width="2" stroke-linecap="round" stroke-linejoin="round" stroke-miterlimit="10" width="6" height="21"/>
	
		<rect x="14" y="55" fill="#9B9B9A" stroke="#000000" stroke-width="2" stroke-linecap="round" stroke-linejoin="round" stroke-miterlimit="10" width="44" height="10"/>
	<path fill="none" stroke="#000000" stroke-width="2" stroke-miterlimit="10" d="M27,55c0-3.9,4-7,9-7s9,3.1,9,7"/>
	
		<polyline fill="none" stroke="#000000" stroke-width="2" stroke-linecap="round" stroke-linejoin="round" stroke-miterlimit="10" points="
		17,55 17,52 24,52 24,55 	"/>
	
		<polyline fill="none" stroke="#000000" stroke-width="2" stroke-linecap="round" stroke-linejoin="round" stroke-miterlimit="10" points="
		39,44.7 39,44 39,27 33,27 33,44.7 	"/>
	<polygon fill="#D22F27" points="41,8 34,27 40,26 45,21 46,15 	"/>
	<circle fill="none" stroke="#000000" stroke-width="2" stroke-miterlimit="10" cx="36" cy="17" r="10"/>
</g>
</svg>
