<?xml version="1.0" encoding="utf-8"?>
<!-- Generator: Adobe Illustrator 21.1.0, SVG Export Plug-In . SVG Version: 6.00 Build 0)  -->
<svg version="1.1" id="emoji" xmlns="http://www.w3.org/2000/svg" xmlns:xlink="http://www.w3.org/1999/xlink" x="0px" y="0px"
	 viewBox="0 0 72 72" enable-background="new 0 0 72 72" xml:space="preserve">
<g id="_xD83D__xDD96__1_">
	<path fill="#FBEA2C" stroke="#010101" stroke-width="2" stroke-linecap="round" stroke-linejoin="round" d="M39.8,32.5l4-21.6
		c1.8-7.8-5.7-10-7.6-1.8l-3.7,19.2c-0.8,3.6-1.9,5.1-3.3,5.8l0,0c-2.4,1.1-4.6-2.4-5.6-4.8l-5.3-12.4c-3.2-7-9.7-3.7-7.1,2.7
		l7.3,16.5l-1.3-3l-3.2-7.3c-2.8-5.9-8.8-3.5-6.8,2.3c0,0,4.3,10.7,5.6,14.3c1.7,4.7,3.4,14.8,5.9,19.1c5.6,9.3,20.6,8.1,27.9,0
		c2-2.3,5.6-7.2,7.6-9.6c2.8-3.2,10.1-11.5,10.1-11.5c1.5-2.2,0.3-5.5-0.8-4.7l-14.7,5.4c-1,0.3-1.7-0.5-2.1-1.1
		c-0.3-0.5,0.1-2.1,0.2-2.8c1.4-7.8,2.8-15.6,4.2-23.4c1.2-6-6.1-8.1-7.6-2"/>
	<path fill="none" stroke="#010101" stroke-width="2" stroke-linecap="round" stroke-linejoin="round" d="M39.8,32.5l4-21.6
		c1.8-7.8-5.7-10-7.6-1.8l-3.7,19.2c-0.8,3.6-1.9,5.1-3.3,5.8l0,0c-2.4,1.1-4.6-2.4-5.6-4.8l-5.3-12.4c-3.2-7-9.7-3.7-7.1,2.7
		l7.3,16.5l-1.3-3l-3.2-7.3c-2.8-5.9-8.8-3.5-6.8,2.3c0,0,4.3,10.7,5.6,14.3c1.7,4.7,3.4,14.8,5.9,19.1c5.6,9.3,20.6,8.1,27.9,0
		c2-2.3,5.6-7.2,7.6-9.6c2.8-3.2,10.1-11.5,10.1-11.5c1.5-2.2,0.3-5.5-0.8-4.7l-14.7,5.4c-1,0.3-1.7-0.5-2.1-1.1
		c-0.3-0.5,0.1-2.1,0.2-2.8c1.4-7.8,2.8-15.6,4.2-23.4c1.2-6-6.1-8.1-7.6-2"/>
</g>
</svg>
