<svg id="emoji" xmlns="http://www.w3.org/2000/svg" viewBox="0 0 72 72">
  
  <g id="color">
    <polygon fill="#9B9B9A" points="56.5,57.0387 68.5,57.0387 68.5,15.9286 4.5,15.9286 4.5,57.0387 16.4998,57.0387 	" stroke="none"></polygon>
    <polyline fill="#9B9B9A" points="16.4998,56 4.5,56 4.5,15.9286 68.5,15.9286 68.5,56 56.5,56 	" stroke="none"></polyline>
    <rect x="5.3926" y="15.9286" fill="#D0CFCE" width="7.1411" height="40.0714" stroke="none"></rect>
    <rect x="60.1359" y="15.9286" fill="#D0CFCE" width="7.9178" height="40.0714" stroke="none"></rect>
    <polyline fill="#D0CFCE" points="15.5006,15.4123 15.5006,4.9923 57.4994,4.9923 57.4994,15.9286 	" stroke="none"></polyline>
    <polyline fill="#D0CFCE" stroke="none" stroke-width="2" stroke-linecap="round" stroke-linejoin="round" stroke-miterlimit="10" points="
		16.5,12.5029 16.5,4.9923 56.5,4.9923 56.5,12.8751 	"></polyline>
    <polyline fill="#3F3F3F" points="52.5398,44.4334 52.5398,68 20.4602,68 20.4602,44.4334 	" stroke="none"></polyline>
    <polyline fill="#3F3F3F" stroke="none" stroke-width="2" stroke-linecap="round" stroke-linejoin="round" stroke-miterlimit="10" points="
		51.5857,50.5871 51.5857,68 21.4143,68 21.4143,50.5871 	"></polyline>
    <line fill="#FFFFFF" stroke="none" stroke-width="2" stroke-linecap="round" stroke-linejoin="round" stroke-miterlimit="10" x1="61.1454" y1="20.3352" x2="61.1454" y2="52.2851"></line>
    <polyline fill="#FFFFFF" stroke="none" stroke-width="2" stroke-linecap="round" stroke-linejoin="round" stroke-miterlimit="10" points="
			46.7833,44.4525 46.7833,63.7559 26.2167,63.7559 26.2167,44.4525 		"></polyline>
    <line fill="#FFFFFF" stroke="none" stroke-width="2" stroke-linecap="round" stroke-linejoin="round" stroke-miterlimit="10" x1="11.5" y1="20.3352" x2="11.5" y2="52.2851"></line>
  </g>
  <g id="hair">
  </g>
  <g id="skin">
  </g>
  <g id="skin-shadow">
  </g>
  <g id="line">
    <polyline fill="none" stroke="#000000" stroke-width="2" stroke-linecap="round" stroke-linejoin="round" stroke-miterlimit="10" points="
		16.5,12.5029 16.5,4.9923 56.5,4.9923 56.5,12.8751 	"></polyline>
    <polyline fill="none" stroke="#000000" stroke-width="2" stroke-linecap="round" stroke-linejoin="round" stroke-miterlimit="10" points="
		51.5857,50.5871 51.5857,68 21.4143,68 21.4143,50.5871 	"></polyline>
    <line fill="none" stroke="#000000" stroke-width="2" stroke-linecap="round" stroke-linejoin="round" stroke-miterlimit="10" x1="61.1454" y1="20.3352" x2="61.1454" y2="52.2851"></line>
    <polyline fill="none" stroke="#000000" stroke-width="2" stroke-linecap="round" stroke-linejoin="round" stroke-miterlimit="10" points="
			46.7833,44.4525 46.7833,63.7559 26.2167,63.7559 26.2167,44.4525 		"></polyline>
    <line fill="none" stroke="#000000" stroke-width="2" stroke-linecap="round" stroke-linejoin="round" stroke-miterlimit="10" x1="29.5276" y1="48.3784" x2="43.4724" y2="48.3784"></line>
    <line fill="none" stroke="#000000" stroke-width="2" stroke-linecap="round" stroke-linejoin="round" stroke-miterlimit="10" x1="29.5276" y1="53.2052" x2="43.4724" y2="53.2052"></line>
    <line fill="none" stroke="#000000" stroke-width="2" stroke-linecap="round" stroke-linejoin="round" stroke-miterlimit="10" x1="29.5276" y1="58.5044" x2="43.4724" y2="58.5044"></line>
    <line fill="none" stroke="#000000" stroke-width="2" stroke-linecap="round" stroke-linejoin="round" stroke-miterlimit="10" x1="11.5" y1="20.3352" x2="11.5" y2="52.2851"></line>
    <path fill="none" stroke="#000000" stroke-width="2" stroke-linecap="round" stroke-linejoin="round" stroke-miterlimit="10" d="
		M16.5,52.2851v-3.1353c0-2.6048,2.1116-4.7164,4.7164-4.7164h30.5672c2.6048,0,4.7164,2.1116,4.7164,4.7164v3.1353"></path>
    <polyline fill="none" stroke="#000000" stroke-width="2" stroke-linecap="round" stroke-linejoin="round" stroke-miterlimit="10" points="
		56.5,56 68.5,56 68.5,15.9286 4.5,15.9286 4.5,56 16.4998,56 	"></polyline>
  </g>
</svg>