<?xml version="1.0" encoding="utf-8"?>
<!-- Generator: Adobe Illustrator 21.1.0, SVG Export Plug-In . SVG Version: 6.00 Build 0)  -->
<svg version="1.1" id="emoji" xmlns="http://www.w3.org/2000/svg" xmlns:xlink="http://www.w3.org/1999/xlink" x="0px" y="0px"
	 viewBox="0 0 72 72" enable-background="new 0 0 72 72" xml:space="preserve">
<g>
	<path fill="#9B9B9A" d="M25,13.6c-6.4,0-11.5,5.2-11.5,11.5c0,2.1,0.6,4.2,1.7,6l0.7,1l20.5,26.2l20.6-26.4c1.4-2,2.2-4.3,2.2-6.8
		c0-6.4-5.2-11.5-11.5-11.5c-4.5,0-8.4,2.5-10.4,6.5c-0.2,0.3-0.5,0.6-0.9,0.6c-0.4,0-0.7-0.2-0.9-0.6C33.4,16.1,29.5,13.6,25,13.6z
		"/>
	<path fill="#3F3F3F" d="M48.1,13.6c6.5,0,11.8,5.2,11.8,11.7c0,2.1-0.6,4.2-1.7,6.1l-0.7,1L36.6,59L35,57
		C57.8,25.9,48.1,13.6,48.1,13.6z"/>
	<path fill="#010103" d="M36.3,60.9c-0.3,0-0.6-0.1-0.8-0.4L14.2,33.3l-0.7-1.1c-1.3-2.2-2-4.6-2-7.1c0-7.5,6.1-13.5,13.5-13.5
		c4.6,0,8.8,2.3,11.3,6.1c2.5-3.8,6.7-6.1,11.3-6.1c7.5,0,13.5,6.1,13.5,13.5c0,2.9-0.9,5.7-2.6,8L37.1,60.6
		C36.9,60.8,36.6,60.9,36.3,60.9z M25,13.6c-6.4,0-11.5,5.2-11.5,11.5c0,2.1,0.6,4.2,1.7,6l0.7,1l20.5,26.2l20.6-26.4
		c1.4-2,2.2-4.3,2.2-6.8c0-6.4-5.2-11.5-11.5-11.5c-4.5,0-8.4,2.5-10.4,6.5c-0.2,0.3-0.5,0.6-0.9,0.6c-0.4,0-0.7-0.2-0.9-0.6
		C33.4,16.1,29.5,13.6,25,13.6z"/>
</g>
</svg>
