<svg id="emoji" xmlns="http://www.w3.org/2000/svg" viewBox="0 0 72 72">
  <g id="color">
    <path fill="#9B9B9A" d="M25.0228,13.6092c-6.3535,0-11.5225,5.169-11.5225,11.5225c0,2.1167,0.5776,4.185,1.6714,5.9814 l0.6602,0.9737l20.4624,26.2299l20.5825-26.3916c1.4419-1.9653,2.2134-4.3222,2.2134-6.7934c0-6.3535-5.17-11.5225-11.5245-11.5225 c-4.4526,0-8.4267,2.5015-10.3711,6.5278c-0.1669,0.3453-0.5166,0.565-0.9003,0.565c-0.3838,0-0.7339-0.2197-0.9004-0.565 C33.4495,16.1107,29.4754,13.6092,25.0228,13.6092z" stroke="none"/>
    <path fill="#3F3F3F" d="M48.1019,13.6092c6.484,0,11.7591,5.248,11.7591,11.6986c0,2.1491-0.5895,4.249-1.7057,6.0728 l-0.6738,0.9886L36.5989,59L35,56.9605C57.8482,25.8973,48.1019,13.6092,48.1019,13.6092z" stroke="none"/>
  </g>
  <g id="hair"/>
  <g id="skin"/>
  <g id="skin-shadow"/>
  <g id="line">
    <path fill="#000000" d="M36.2943,60.9427c-0.3081,0-0.5992-0.1421-0.7886-0.3848L14.2152,33.2625l-0.7261-1.0688 c-1.3101-2.1504-1.9888-4.5786-1.9888-7.062c0-7.4566,6.0659-13.5225,13.5225-13.5225c4.6123,0,8.7866,2.2852,11.2715,6.0679 c2.4848-3.7827,6.6591-6.0679,11.2714-6.0679c7.4576,0,13.5245,6.0659,13.5245,13.5225c0,2.8999-0.9058,5.6665-2.6187,8 L37.0828,60.5575C36.8934,60.8006,36.6024,60.9427,36.2943,60.9427z M25.0228,13.6092c-6.3535,0-11.5225,5.169-11.5225,11.5225 c0,2.1167,0.5776,4.185,1.6714,5.9814l0.6602,0.9737l20.4624,26.2299l20.5825-26.3916c1.4419-1.9653,2.2134-4.3222,2.2134-6.7934 c0-6.3535-5.17-11.5225-11.5245-11.5225c-4.4526,0-8.4267,2.5015-10.3711,6.5278c-0.1669,0.3453-0.5166,0.565-0.9003,0.565 c-0.3838,0-0.7339-0.2197-0.9004-0.565C33.4495,16.1107,29.4754,13.6092,25.0228,13.6092z" stroke="none"/>
  </g>
</svg>
