<?xml version="1.0" encoding="utf-8"?>
<!-- Generator: Adobe Illustrator 21.1.0, SVG Export Plug-In . SVG Version: 6.00 Build 0)  -->
<svg version="1.1" id="emoji" xmlns="http://www.w3.org/2000/svg" xmlns:xlink="http://www.w3.org/1999/xlink" x="0px" y="0px"
	 viewBox="0 0 72 72" enable-background="new 0 0 72 72" xml:space="preserve">
<g id="_xD83D__xDDA5__xFE0F__3_">
	<path fill="#D0CFCE" d="M44.2,61c0,5,7.8,7,7.8,7H36.4H36H20.4c0,0,7.8-2.1,7.8-7V56H44L44.2,61z"/>
	
		<path fill="#9B9B9A" stroke="#1D1D1B" stroke-width="2" stroke-linecap="round" stroke-linejoin="round" stroke-miterlimit="10" d="
		M63.2,56h-54c-2.8,0-5.1-2.3-5.1-5.1V16c0-2.8,2.3-5.1,5.1-5.1h54c2.8,0,5.1,2.3,5.1,5.1v34.9C68.3,53.7,66,56,63.2,56z"/>
	<polygon fill="#FFFFFF" points="67.5,46.7 4.2,24.2 4.2,11 67.5,33.5 	"/>
	
		<path fill="#D0CFCE" stroke="#1D1D1B" stroke-width="0.9187" stroke-linecap="round" stroke-linejoin="round" stroke-miterlimit="10" d="
		M68.3,47.6c0,0,0.2,4.9-1.5,6.8S66,56,63.2,56h-54c-2.8,0-4.2-1.9-4.2-2.4l-0.9-6"/>
	<path fill="none" stroke="#1D1D1B" stroke-width="2" stroke-linecap="round" stroke-linejoin="round" stroke-miterlimit="10" d="
		M63.2,56h-54c-2.8,0-5.1-2.3-5.1-5.1V16c0-2.8,2.3-5.1,5.1-5.1h54c2.8,0,5.1,2.3,5.1,5.1v34.9C68.3,53.7,66,56,63.2,56z"/>
	
		<line fill="none" stroke="#1D1D1B" stroke-width="2" stroke-linecap="round" stroke-linejoin="round" stroke-miterlimit="10" x1="7.2" y1="48.5" x2="65.2" y2="48.5"/>
	<path fill="none" stroke="#1D1D1B" stroke-width="2" stroke-linecap="round" stroke-linejoin="round" stroke-miterlimit="10" d="
		M43.2,61c0,5,8.8,7,8.8,7H36.4H36H20.4c0,0,8.8-2.1,8.8-7"/>
</g>
</svg>
