<?xml version="1.0" encoding="utf-8"?>
<!-- Generator: Adobe Illustrator 19.1.0, SVG Export Plug-In . SVG Version: 6.00 Build 0)  -->
<svg version="1.1" id="emoji" xmlns="http://www.w3.org/2000/svg" xmlns:xlink="http://www.w3.org/1999/xlink" x="0px" y="0px"
	 viewBox="0 0 72 72" enable-background="new 0 0 72 72" xml:space="preserve">
<g id="_xD83D__xDDA8__xFE0F_">
	<polygon fill="#9B9B9A" points="56.5,57 68.5,57 68.5,15.9 4.5,15.9 4.5,57 16.5,57 	"/>
	<polyline fill="#9B9B9A" points="16.5,56 4.5,56 4.5,15.9 68.5,15.9 68.5,56 56.5,56 	"/>
	<rect x="5.4" y="15.9" fill="#D0CFCE" width="7.1" height="40.1"/>
	<rect x="60.1" y="15.9" fill="#D0CFCE" width="7.9" height="40.1"/>
	<polyline fill="#D0CFCE" points="15.5,15.4 15.5,5 57.5,5 57.5,15.9 	"/>
	
		<polyline fill="#D0CFCE" stroke="#1D1D1B" stroke-width="2" stroke-linecap="round" stroke-linejoin="round" stroke-miterlimit="10" points="
		16.5,12.5 16.5,5 56.5,5 56.5,12.9 	"/>
	<polyline fill="#3F3F3F" points="52.5,44.4 52.5,68 20.5,68 20.5,44.4 	"/>
	
		<polyline fill="#3F3F3F" stroke="#1D1D1B" stroke-width="2" stroke-linecap="round" stroke-linejoin="round" stroke-miterlimit="10" points="
		51.6,50.6 51.6,68 21.4,68 21.4,50.6 	"/>
	
		<line fill="#FFFFFF" stroke="#1D1D1B" stroke-width="2" stroke-linecap="round" stroke-linejoin="round" stroke-miterlimit="10" x1="61.1" y1="20.3" x2="61.1" y2="52.3"/>
	
		<line fill="#FFFFFF" stroke="#1D1D1B" stroke-width="2" stroke-linecap="round" stroke-linejoin="round" stroke-miterlimit="10" x1="11.5" y1="20.3" x2="11.5" y2="52.3"/>
	<path fill="none" stroke="#1D1D1B" stroke-width="2" stroke-linecap="round" stroke-linejoin="round" stroke-miterlimit="10" d="
		M16.5,52.3v-3.1c0-2.6,2.1-4.7,4.7-4.7h30.6c2.6,0,4.7,2.1,4.7,4.7v3.1"/>
	
		<polyline fill="none" stroke="#1D1D1B" stroke-width="2" stroke-linecap="round" stroke-linejoin="round" stroke-miterlimit="10" points="
		56.5,56 68.5,56 68.5,15.9 4.5,15.9 4.5,56 16.5,56 	"/>
</g>
</svg>
