<?xml version="1.0" encoding="utf-8"?>
<!-- Generator: Adobe Illustrator 19.1.0, SVG Export Plug-In . SVG Version: 6.00 Build 0)  -->
<svg version="1.1" id="emoji" xmlns="http://www.w3.org/2000/svg" xmlns:xlink="http://www.w3.org/1999/xlink" x="0px" y="0px"
	 viewBox="0 0 72 72" enable-background="new 0 0 72 72" xml:space="preserve">
<g id="_xD83D__xDDB1__xFE0F_">
	
		<path fill="#9B9B9A" stroke="#1D1D1B" stroke-width="1.9847" stroke-linecap="round" stroke-linejoin="round" stroke-miterlimit="10" d="
		M15.9,53.4c0,6.9,5,12.5,11.6,13.7l0,0c2.4,0.6,5.8,0.8,8.8,0.8h-0.4c3,0,6.4-0.3,8.8-0.8l0,0c6.6-1.2,11.6-6.9,11.6-13.7l0-34.9
		c0-6.9-5-12.5-11.6-13.7l0,0c-2.4-0.6-5.8-0.8-8.8-0.8h0.4c-3,0-6.4,0.3-8.8,0.8l0,0C20.9,6,15.9,11.7,15.9,18.5L15.9,53.4z"/>
	<path fill="#D0CFCE" d="M44.7,67.2L44.7,67.2c6.6-1.2,11.6-6.9,11.6-13.8l0-34.9c0-6.9-5-12.5-11.6-13.7l0,0
		C44.7,4.8,49.6,32.7,44.7,67.2z"/>
	
		<path fill="none" stroke="#1D1D1B" stroke-width="1.9847" stroke-linecap="round" stroke-linejoin="round" stroke-miterlimit="10" d="
		M15.9,53.4c0,6.9,5,12.5,11.6,13.7l0,0c2.4,0.6,5.8,0.8,8.8,0.8h-0.4c3,0,6.4-0.3,8.8-0.8l0,0c6.6-1.2,11.6-6.9,11.6-13.7l0-34.9
		c0-6.9-5-12.5-11.6-13.7l0,0c-2.4-0.6-5.8-0.8-8.8-0.8h0.4c-3,0-6.4,0.3-8.8,0.8l0,0C20.9,6,15.9,11.7,15.9,18.5L15.9,53.4z"/>
</g>
</svg>
