<?xml version="1.0" encoding="utf-8"?>
<!-- Generator: Adobe Illustrator 21.1.0, SVG Export Plug-In . SVG Version: 6.00 Build 0)  -->
<svg version="1.1" id="emoji" xmlns="http://www.w3.org/2000/svg" xmlns:xlink="http://www.w3.org/1999/xlink" x="0px" y="0px"
	 viewBox="0 0 72 72" enable-background="new 0 0 72 72" xml:space="preserve">
<g id="_xD83D__xDDB1__xFE0F__2_">
	<path fill="#D0CFCE" d="M39.6,15.9h-3.9c-5.9,0-10.7,4.8-10.7,10.7v19.2c0,5.9,4.8,10.7,10.7,10.7h3.9c5.9,0,10.7-4.8,10.7-10.7
		V26.6C50.3,20.7,45.5,15.9,39.6,15.9z"/>
	<path fill="#3F3F3F" d="M37.7,21.6h-0.2c-1.1,0-2.1,0.9-2.1,2.1v6.4c0,1.1,0.9,2.1,2.1,2.1h0.2c1.1,0,2.1-0.9,2.1-2.1v-6.4
		C39.8,22.5,38.9,21.6,37.7,21.6z"/>
	<path fill="#9B9B9A" d="M36.6,17.4c3.2,1.4,6.3,3.4,6.6,8.3c0.4,5.8-1.7,16.6-2.4,22.1c-0.5,3.8-2.4,5.6-4.9,7.6
		c-1.3,1,5.6,0.9,8.4-0.8c2.4-1.4,4.8-3.8,4.8-3.1l0.3-27.4c0,0-1-7.4-9.1-7.4C40.4,16.9,32.3,16.5,36.6,17.4z"/>
	<path fill="none" stroke="#000000" stroke-width="2" stroke-linecap="round" stroke-linejoin="round" stroke-miterlimit="10" d="
		M41.1,55.9h-7c-5,0-9-4.1-9-9V25.5c0-5,4.1-9,9-9h7c5,0,9,4.1,9,9v21.3C50.1,51.8,46.1,55.9,41.1,55.9z"/>
	<path fill="none" stroke="#000000" stroke-width="2" stroke-linecap="round" stroke-linejoin="round" stroke-miterlimit="10" d="
		M37.8,32.2h-0.4c-1.1,0-2-0.9-2-2v-6.7c0-1.1,0.9-2,2-2h0.4c1.1,0,2,0.9,2,2v6.7C39.9,31.3,39,32.2,37.8,32.2z"/>
</g>
</svg>
