<?xml version="1.0" encoding="utf-8"?>
<!-- Generator: Adobe Illustrator 21.1.0, SVG Export Plug-In . SVG Version: 6.00 Build 0)  -->
<svg version="1.1" id="emoji" xmlns="http://www.w3.org/2000/svg" xmlns:xlink="http://www.w3.org/1999/xlink" x="0px" y="0px"
	 viewBox="0 0 72 72" enable-background="new 0 0 72 72" xml:space="preserve">
<g id="_xD83D__xDDC3__xFE0F_">
	<path fill="#D0CECE" d="M11.9,59.9h47.7V42.7H11.9V59.9z"/>
	<path fill="#9B9B9A" d="M59.7,21.8l-47.7-0.1v18.5l5.2-0.2c1.2-0.8,0.4-5.7,0.5-5.8c0-0.8-0.1-4.9,0.1-5.2c0.3-0.7,9.9-0.1,9.9-0.1
		l1.4,4.1c0.1-0.2,10.1-1.8,10.1-1.8c0.1,0,2.9,5.6,2.9,5.6c0.1-0.1,12.5,2.7,12.5,2.8l1.7,0.2l3.4,0.1L59.7,21.8z"/>
	<path fill="#D0CECE" d="M55.8,38.8c0,0.1-4-0.9-6.3-0.9C40,37.8,17.4,38.7,17,38.6c-0.4-0.1-1.8,0.3-1.9,0.2c0,0.5-0.1,1.5-0.1,2.5
		l40.7,0L55.8,38.8z"/>
	<path fill="#3E4040" d="M16.3,38.8c0-0.1,0-0.1-0.1-0.2L12,38.7l-0.1,3l4.5,0.5C16.4,41.2,16.4,39.4,16.3,38.8z"/>
	<path fill="#D0CECE" d="M16.5,33.9c0,0,0.1-0.1,0.1-0.1c0.1,0,0.1-0.1,0.2-0.1c0,0,0.1,0,0.1-0.1c0.1,0,0.2-0.1,0.3-0.1h0.1h11.2
		v-0.3c0-0.4,0.1-0.9,0.3-1.2c0,0,0,0,0,0c0,0,0,0,0-0.1c0-0.1,0.1-0.2,0.1-0.3c0,0-0.1,0.1-0.1,0.1c0,0,0,0,0,0c0,0,0,0,0,0
		c0,0.1-2.2-1.4-2.2-1.4c0,0-4-1.2-8.5,0.3c-0.2,0.1-1.2,1.2-1.4,1.2h0c0,0,0,0,0,0c-0.1-0.1-0.3-0.2-0.3-0.3c0,0,0,0,0-0.1v2.6
		c0,0,0,0,0,0C16.4,34,16.4,33.9,16.5,33.9z"/>
	<path fill="#D0CECE" d="M16.6,37.6c0.1,0,0.1-0.1,0.2-0.1c0,0,0.1,0,0.1-0.1c0.1,0,0.2-0.1,0.3-0.1h0.2h23.9v-0.2
		c0-0.2,0-0.3,0.1-0.5c0-0.1,0.1-0.2,0.1-0.3c0,0,0-0.1,0-0.1c0.1-0.1,0.1-0.3,0.2-0.4c0,0,0,0,0,0c0.1-0.1,0.2-0.2,0.3-0.4
		c0,0,0,0,0,0l-1.4-2l-8.4,0.6l-2.8,1.5c0.1,0,0.2,0,0.3-0.1c0,0-0.1,0-0.1,0c-0.1,0-0.1,0-0.2,0l0,0H17.3h-0.1
		c-0.1,0-0.2,0-0.3-0.1c0,0-0.1,0-0.1-0.1c-0.1,0-0.1-0.1-0.2-0.1c-0.1-0.1-0.2-0.2-0.3-0.3c0,0,0,0,0,0c0,0.8,0,2.1,0,3
		c0-0.1,0.1-0.2,0.2-0.2C16.5,37.7,16.6,37.6,16.6,37.6z"/>
	<rect x="28.6" y="47.4" fill="#9B9B9A" width="14.2" height="6.4"/>
	<path fill="#D0CECE" d="M28.9,28.1C28.9,28.1,28.8,28.1,28.9,28.1C28.8,28,28.8,28,28.8,28C28.8,28,28.8,28,28.9,28.1
		C28.8,28.1,28.8,28.1,28.9,28.1z"/>
	<path fill="#D0CECE" d="M28.9,29.3c0.1-0.1,0.1-0.2,0.1-0.3v0C29,29.1,29,29.2,28.9,29.3c-0.2,0.2-0.4,0.4-0.7,0.4
		C28.5,29.7,28.8,29.5,28.9,29.3z"/>
	<path fill="#F9E937" d="M54.1,39.4c-0.5,0,0.5-2.1,0.5-2.1c0-0.4-1.1-1.7-1.6-1.7l-8.9,0.1c-0.2,0-1.5,1.5-1.5,1.7l-0.9,1.1
		c0,0.5-0.3,0.6-0.7,0.7l1.6,0.3C42.6,39.4,54.2,39.4,54.1,39.4z"/>
	<path fill="#95D3F4" d="M42,35.5L42,32.4c0,0,0,0,0,0c0,0.1-1.2,0.3-1.4-0.2c-0.1-0.3-0.9-0.8-1.2-0.8l-7.9-0.1
		c-0.5,0-1.7,0.7-1.7,1.2l-0.5,2.2c0,0.6-1.1,1-1.7,1L42,35.5z"/>
	<polygon fill="#3E4040" points="59.4,38.7 54.9,38.7 55,41.9 59.4,41.8 	"/>
	<rect x="11.7" y="15.1" fill="#D0CECE" width="47.9" height="6.5"/>
	<path fill="#D0CECE" d="M17.6,32C17.6,32,17.7,32,17.6,32C17.7,32,17.6,32,17.6,32z"/>
	<path fill="#D0CECE" d="M19.1,29.4h8c0,0,0,0,0,0L19.1,29.4c-0.2,0-0.4,0.1-0.5,0.2C18.7,29.5,18.9,29.4,19.1,29.4z"/>
	<path fill="#D0CECE" d="M18.5,29.6C18.5,29.6,18.4,29.7,18.5,29.6C18.4,29.7,18.5,29.6,18.5,29.6z"/>
	<path fill="#EA5A48" d="M29.1,31.6l0-2.6c0,0.1-0.9-0.4-1.4-0.7c-0.1-0.1-8.6,0-8.6,0c-0.5,0-2.1,2.1-2.1,2.1s0.6,1.8,0.1,1.8
		c-0.4,0,11.7,0,11.7,0C28.8,31.9,29.1,31.6,29.1,31.6z"/>
	<g>
		
			<polyline fill="none" stroke="#000000" stroke-width="2" stroke-linecap="round" stroke-linejoin="round" stroke-miterlimit="10" points="
			11.8,21.6 11.8,42.3 59.7,42.3 59.7,21.6 		"/>
		
			<rect x="11.7" y="15" fill="none" stroke="#000000" stroke-width="2" stroke-linecap="round" stroke-linejoin="round" stroke-miterlimit="10" width="48" height="6.6"/>
		
			<rect x="11.8" y="42.3" fill="none" stroke="#000000" stroke-width="2" stroke-linecap="round" stroke-linejoin="round" stroke-miterlimit="10" width="48" height="17.4"/>
		
			<rect x="28.6" y="47.1" fill="none" stroke="#000000" stroke-width="2" stroke-linecap="round" stroke-linejoin="round" stroke-miterlimit="10" width="14.4" height="6.8"/>
		<path fill="none" stroke="#000000" stroke-width="2" stroke-linecap="round" stroke-linejoin="round" stroke-miterlimit="10" d="
			M28.1,28.7c-0.3-0.2-0.7-0.3-1.1-0.3h-8c-1,0-1.8,0.8-1.8,1.8v0.9"/>
		<path fill="none" stroke="#000000" stroke-width="2" stroke-linecap="round" stroke-linejoin="round" stroke-miterlimit="10" d="
			M41,32.5c-0.3-0.6-0.9-1-1.6-1h-8c-1,0-1.8,0.8-1.8,1.8v1.3H17.2"/>
		<path fill="none" stroke="#000000" stroke-width="2" stroke-linecap="round" stroke-linejoin="round" stroke-miterlimit="10" d="
			M54,38.4v-1.2c0-0.9-0.8-1.7-1.8-1.7h-8c-1,0-1.8,0.7-1.8,1.7v1.2H17.2"/>
	</g>
</g>
</svg>
