<?xml version="1.0" encoding="utf-8"?>
<!-- Generator: Adobe Illustrator 19.1.0, SVG Export Plug-In . SVG Version: 6.00 Build 0)  -->
<svg version="1.1" id="emoji" xmlns="http://www.w3.org/2000/svg" xmlns:xlink="http://www.w3.org/1999/xlink" x="0px" y="0px"
	 viewBox="0 0 72 72" enable-background="new 0 0 72 72" xml:space="preserve">
<g id="_xD83D__xDDC4__xFE0F_">
	<g>
		<path fill="#D0CECE" d="M22.3,17v14h27.5V17H22.3z M42.1,29H29.7c-0.6,0-1-0.4-1-1c0-0.6,0.4-1,1-1h12.4c0.6,0,1,0.4,1,1
			C43.1,28.6,42.7,29,42.1,29z M43.1,24c0,0.6-0.4,1-1,1H29.7c-0.6,0-1-0.4-1-1v-4.1c0-0.6,0.4-1,1-1h12.4c0.6,0,1,0.4,1,1V24z"/>
	</g>
	<g>
		<path fill="#D0CECE" d="M49.8,50.8v-14H22.3v14H49.8z M28.7,39.7c0-0.6,0.4-1,1-1h12.4c0.6,0,1,0.4,1,1v4.1c0,0.6-0.4,1-1,1H29.7
			c-0.6,0-1-0.4-1-1V39.7z M29.7,46.8h12.4c0.6,0,1,0.4,1,1s-0.4,1-1,1H29.7c-0.6,0-1-0.4-1-1S29.2,46.8,29.7,46.8z"/>
	</g>
	<path fill="#3E4040" d="M18,55h36V13H18V55z M20.3,16c0-0.6,0.4-1,1-1h29.5c0.6,0,1,0.4,1,1v16c0,0.6-0.4,1-1,1H21.3
		c-0.6,0-1-0.4-1-1V16z M20.3,35.8c0-0.6,0.4-1,1-1h29.5c0.6,0,1,0.4,1,1v16c0,0.6-0.4,1-1,1H21.3c-0.6,0-1-0.4-1-1V35.8z"/>
	<rect x="30.7" y="20.9" fill="#9B9B9A" width="10.4" height="2.1"/>
	<rect x="30.7" y="40.7" fill="#9B9B9A" width="10.4" height="2.1"/>
	<g>
		
			<rect x="17" y="12" fill="none" stroke="#000000" stroke-width="2" stroke-linecap="round" stroke-linejoin="round" stroke-miterlimit="10" width="38" height="44"/>
		
			<line fill="#D0CECE" stroke="#000000" stroke-width="2" stroke-linecap="round" stroke-linejoin="round" stroke-miterlimit="10" x1="17" y1="60" x2="55" y2="60"/>
		<g>
			
				<rect x="21.3" y="35.8" fill="none" stroke="#000000" stroke-width="2" stroke-linecap="round" stroke-linejoin="round" stroke-miterlimit="10" width="29.5" height="16"/>
			
				<rect x="29.7" y="39.7" fill="none" stroke="#000000" stroke-width="2" stroke-linecap="round" stroke-linejoin="round" stroke-miterlimit="10" width="12.4" height="4.1"/>
			
				<line fill="none" stroke="#000000" stroke-width="2" stroke-linecap="round" stroke-linejoin="round" stroke-miterlimit="10" x1="42.1" y1="47.8" x2="29.7" y2="47.8"/>
		</g>
		<g>
			
				<rect x="21.3" y="16" fill="none" stroke="#000000" stroke-width="2" stroke-linecap="round" stroke-linejoin="round" stroke-miterlimit="10" width="29.5" height="16"/>
			
				<rect x="29.7" y="19.9" fill="none" stroke="#000000" stroke-width="2" stroke-linecap="round" stroke-linejoin="round" stroke-miterlimit="10" width="12.4" height="4.1"/>
			
				<line fill="none" stroke="#000000" stroke-width="2" stroke-linecap="round" stroke-linejoin="round" stroke-miterlimit="10" x1="42.1" y1="28" x2="29.7" y2="28"/>
		</g>
	</g>
</g>
</svg>
