<?xml version="1.0" encoding="utf-8"?>
<!-- Generator: Adobe Illustrator 21.1.0, SVG Export Plug-In . SVG Version: 6.00 Build 0)  -->
<svg version="1.1" id="emoji" xmlns="http://www.w3.org/2000/svg" xmlns:xlink="http://www.w3.org/1999/xlink" x="0px" y="0px"
	 viewBox="0 0 72 72" enable-background="new 0 0 72 72" xml:space="preserve">
<g id="_xD83D__xDDD2__xFE0F_">
	<g>
		<path fill="#FFFFFF" d="M60.1,17l-5.9-0.9H17.2l-5.3,1l0,43.2l31.6,0l16.5-12.1L60.1,17z"/>
	</g>
	<path fill="#D0CECE" d="M57,49H44.1v4.5c0,0.6-0.4,1-1,1c-0.5,0-0.9-0.4-1-0.9v5.4l1.2,0L57,49z"/>
	<g>
		<g>
			
				<line fill="#FFFFFF" stroke="#000000" stroke-width="2" stroke-linecap="round" stroke-linejoin="round" stroke-miterlimit="10" x1="45.5" y1="14" x2="45.5" y2="19.6"/>
			
				<line fill="#FFFFFF" stroke="#000000" stroke-width="2" stroke-linecap="round" stroke-linejoin="round" stroke-miterlimit="10" x1="40.7" y1="14" x2="40.7" y2="19.6"/>
			
				<line fill="#FFFFFF" stroke="#000000" stroke-width="2" stroke-linecap="round" stroke-linejoin="round" stroke-miterlimit="10" x1="36" y1="14" x2="36" y2="19.6"/>
			
				<line fill="#FFFFFF" stroke="#000000" stroke-width="2" stroke-linecap="round" stroke-linejoin="round" stroke-miterlimit="10" x1="50.2" y1="14" x2="50.2" y2="19.6"/>
			
				<line fill="#FFFFFF" stroke="#000000" stroke-width="2" stroke-linecap="round" stroke-linejoin="round" stroke-miterlimit="10" x1="31.2" y1="14" x2="31.2" y2="19.6"/>
			
				<line fill="#FFFFFF" stroke="#000000" stroke-width="2" stroke-linecap="round" stroke-linejoin="round" stroke-miterlimit="10" x1="26.4" y1="14" x2="26.4" y2="19.6"/>
			
				<line fill="#FFFFFF" stroke="#000000" stroke-width="2" stroke-linecap="round" stroke-linejoin="round" stroke-miterlimit="10" x1="21.7" y1="14" x2="21.7" y2="19.6"/>
		</g>
		<g>
			
				<line fill="none" stroke="#000000" stroke-width="2" stroke-linecap="round" stroke-linejoin="round" stroke-miterlimit="10" x1="17" y1="29.4" x2="54.8" y2="29.4"/>
			
				<line fill="none" stroke="#000000" stroke-width="2" stroke-linecap="round" stroke-linejoin="round" stroke-miterlimit="10" x1="17" y1="39.8" x2="54.8" y2="39.8"/>
			
				<line fill="none" stroke="#000000" stroke-width="2" stroke-linecap="round" stroke-linejoin="round" stroke-miterlimit="10" x1="17" y1="50.3" x2="39.1" y2="50.3"/>
		</g>
		<g>
			
				<line fill="none" stroke="#000000" stroke-width="2" stroke-linecap="round" stroke-linejoin="round" stroke-miterlimit="10" x1="25.9" y1="24.4" x2="25.9" y2="55.5"/>
		</g>
		<g>
			<g>
				
					<polyline fill="none" stroke="#000000" stroke-width="2" stroke-linecap="round" stroke-linejoin="round" stroke-miterlimit="10" points="
					54.3,17 60,17 60,48 43.7,60.1 12,60.1 12,17 17.6,17 				"/>
			</g>
		</g>
		
			<polyline fill="none" stroke="#000000" stroke-width="2" stroke-linecap="round" stroke-linejoin="round" stroke-miterlimit="10" points="
			59.7,48 43.1,48 43.1,53.5 		"/>
	</g>
</g>
</svg>
