<?xml version="1.0" encoding="utf-8"?>
<!-- Generator: Adobe Illustrator 21.1.0, SVG Export Plug-In . SVG Version: 6.00 Build 0)  -->
<svg version="1.1" id="emoji" xmlns="http://www.w3.org/2000/svg" xmlns:xlink="http://www.w3.org/1999/xlink" x="0px" y="0px"
	 viewBox="0 0 72 72" enable-background="new 0 0 72 72" xml:space="preserve">
<g id="_xD83D__xDDD1__xFE0F_">
	<polygon fill="#D0CFCE" points="15.1,12.1 15.1,18 50.8,18 51.5,12.1 	"/>
	<polygon fill="#D0CFCE" points="21.9,54.7 22.4,60 43.9,60 44.5,54.7 	"/>
	<polygon fill="#9B9B9A" points="42.1,60.2 49.4,60.2 49.9,54.4 42.7,54.4 	"/>
	<polygon fill="#9B9B9A" points="56.5,12.3 48.9,12.3 48.3,17.9 56.5,17.9 	"/>
	<g>
		
			<line fill="none" stroke="#000000" stroke-width="2" stroke-linecap="round" stroke-linejoin="round" stroke-miterlimit="10" x1="21.4" y1="50.4" x2="17.8" y2="22"/>
		
			<line fill="none" stroke="#000000" stroke-width="2" stroke-linecap="round" stroke-linejoin="round" stroke-miterlimit="10" x1="54.3" y1="22" x2="50.5" y2="50.4"/>
		
			<line fill="none" stroke="#000000" stroke-width="2" stroke-linecap="round" stroke-linejoin="round" stroke-miterlimit="10" x1="40.6" y1="22.1" x2="48.7" y2="32.1"/>
		
			<line fill="none" stroke="#000000" stroke-width="2" stroke-linecap="round" stroke-linejoin="round" stroke-miterlimit="10" x1="30.4" y1="22.1" x2="47.6" y2="42.8"/>
		
			<line fill="none" stroke="#000000" stroke-width="2" stroke-linecap="round" stroke-linejoin="round" stroke-miterlimit="10" x1="22.4" y1="24.3" x2="44.2" y2="50.4"/>
		
			<line fill="none" stroke="#000000" stroke-width="2" stroke-linecap="round" stroke-linejoin="round" stroke-miterlimit="10" x1="23.9" y1="37" x2="35.9" y2="50.6"/>
		
			<line fill="none" stroke="#000000" stroke-width="2" stroke-linecap="round" stroke-linejoin="round" stroke-miterlimit="10" x1="25.3" y1="49.4" x2="26.7" y2="50.8"/>
		
			<line fill="none" stroke="#000000" stroke-width="2" stroke-linecap="round" stroke-linejoin="round" stroke-miterlimit="10" x1="23.2" y1="31.2" x2="31.8" y2="22.1"/>
		
			<line fill="none" stroke="#000000" stroke-width="2" stroke-linecap="round" stroke-linejoin="round" stroke-miterlimit="10" x1="24.6" y1="41.9" x2="42.9" y2="22.1"/>
		
			<line fill="none" stroke="#000000" stroke-width="2" stroke-linecap="round" stroke-linejoin="round" stroke-miterlimit="10" x1="26.9" y1="50.6" x2="49.4" y2="26.7"/>
		
			<line fill="none" stroke="#000000" stroke-width="2" stroke-linecap="round" stroke-linejoin="round" stroke-miterlimit="10" x1="36.6" y1="50.6" x2="48.1" y2="38.7"/>
		
			<line fill="none" stroke="#000000" stroke-width="2" stroke-linecap="round" stroke-linejoin="round" stroke-miterlimit="10" x1="44.2" y1="50.8" x2="46.3" y2="49"/>
		
			<rect x="14.9" y="12" fill="none" stroke="#000000" stroke-width="2" stroke-linecap="round" stroke-linejoin="round" stroke-miterlimit="10" width="42" height="5.9"/>
		<line fill="none" stroke="#000000" stroke-miterlimit="10" x1="42.9" y1="54.4" x2="50.1" y2="54.4"/>
		
			<polyline fill="none" stroke="#000000" stroke-width="2" stroke-linecap="round" stroke-linejoin="round" stroke-miterlimit="10" points="
			50.1,54.4 49.4,60 22.4,60 21.7,54.4 50.1,54.4 		"/>
	</g>
</g>
</svg>
