<?xml version="1.0" encoding="utf-8"?>
<!-- Generator: Adobe Illustrator 21.1.0, SVG Export Plug-In . SVG Version: 6.00 Build 0)  -->
<svg version="1.1" id="emoji" xmlns="http://www.w3.org/2000/svg" xmlns:xlink="http://www.w3.org/1999/xlink" x="0px" y="0px"
	 viewBox="0 0 72 72" enable-background="new 0 0 72 72" xml:space="preserve">
<g id="_xD83D__xDDDD__xFE0F_">
	<path fill="#3F3F3F" d="M58.4,24.9c-1.1-1.1-3.7-2.8-4.6-4.1c-0.9-1.2-1.8-4.2-2.5-5.6c-2-3.8-7.4-4.2-10.8-1.6l-1.3,0.9
		c-3.4,2.5-4.8,7.9-1.6,10.8c1.2,1.1,3.8,2.8,4.7,4.1c0.9,1.2,1.7,4.2,2.4,5.6c1.8,3.8,7.4,4.2,10.8,1.6l1.3-0.9
		C60.2,33.2,61.4,27.9,58.4,24.9z M56.1,30.4c-0.4,2.7-3,4.5-5.7,4.1c-2.7-0.4-4.2-2.9-4.1-5.7c0.2-3.2-2.5-3.1-2.5-3.1
		c-2.7-0.4-4.5-3-4.1-5.7c0.4-2.7,3-4.5,5.7-4.1s4.5,3,4.1,5.7c0,0-0.7,3,2.5,3.1C54.7,24.8,56.5,27.7,56.1,30.4z"/>
	<path fill="#3F3F3F" d="M23.6,51.6l-2.2-2l22.8-16.9l-4.7-5.9L10.9,48.8l3.8,5.4l2.8-2.1l2.1,2.5l-2.7,2.3l3.2,3.9l2.2-1.8
		c0,0,0.5-3.5,4-3.1l2.4-2L25.7,50L23.6,51.6z"/>
	<path fill="none" stroke="#000000" stroke-width="2" stroke-linecap="round" stroke-linejoin="round" stroke-miterlimit="10" d="
		M40.6,34.6L21.2,49.2l2.2,2.6l2.1-1.6l2.9,3.6l-2.3,2c-3.5-0.4-3.9,3.1-3.9,3.1l-2.2,1.8l-3.2-3.9l2.7-2.2l-2.1-2.5l-2.7,2.1
		l-3.7-4.5l26.2-19.8"/>
	<path fill="none" stroke="#000000" stroke-width="2" stroke-miterlimit="10" d="M58.4,24.9c-1.1-1.1-3.7-2.8-4.6-4.1
		c-0.9-1.2-1.8-4.2-2.5-5.6c-2-3.8-7.4-4.2-10.8-1.6l-1.3,0.9c-3.4,2.5-4.8,7.9-1.6,10.8c1.2,1.1,3.8,2.8,4.7,4.1
		c0.9,1.2,1.7,4.2,2.4,5.6c1.8,3.8,7.4,4.2,10.8,1.6l1.3-0.9C60.2,33.2,61.4,27.9,58.4,24.9z M56.1,30.4c-0.4,2.7-3,4.5-5.7,4.1
		c-2.7-0.4-4.2-2.9-4.1-5.7c0.2-3.2-2.5-3.1-2.5-3.1c-2.7-0.4-4.5-3-4.1-5.7c0.4-2.7,3-4.5,5.7-4.1s4.5,3,4.1,5.7c0,0-0.7,3,2.5,3.1
		C54.7,24.8,56.5,27.7,56.1,30.4z"/>
</g>
</svg>
