<?xml version="1.0" encoding="utf-8"?>
<!-- Generator: Adobe Illustrator 19.1.0, SVG Export Plug-In . SVG Version: 6.00 Build 0)  -->
<svg version="1.1" id="emoji" xmlns="http://www.w3.org/2000/svg" xmlns:xlink="http://www.w3.org/1999/xlink" x="0px" y="0px"
	 viewBox="0 0 72 72" enable-background="new 0 0 72 72" xml:space="preserve">
<g id="_xD83D__xDDD3__xFE0F_">
	<path fill="#E95947" d="M13,27.2h46v-14H13V27.2z M50,15.9C50,15.9,50,15.9,50,15.9c1.1,0,2.1,0.4,2.9,1.2c0.7,0.8,1.2,1.8,1.1,2.8
		c0,2.2-1.8,4-4,4c0,0,0,0,0,0c-2.2,0-4-1.8-4-4C46,17.7,47.8,15.9,50,15.9z M19.2,17.1c0.8-0.7,1.7-1.1,2.8-1.1c0,0,0,0,0,0
		c2.2,0,4,1.8,4,4c0,2.2-1.8,4-4,4c0,0,0,0,0,0c-2.2,0-4-1.8-4-4C18,18.8,18.4,17.8,19.2,17.1z"/>
	<path fill="#D0CECE" d="M57,49H44.1v4.5c0,0.6-0.4,1-1,1c-0.5,0-0.9-0.4-1-0.9v5.4l1.2,0L57,49z"/>
	<path fill="#FFFFFF" d="M13,29.2v29.9l29.2,0v-5.4c0,0,0-0.1,0-0.1V48c0-0.6,0.4-1,1-1H59V29.2H13z M18.2,47.7c-1.1,0-2-0.9-2-2
		c0-1.1,0.9-2,2-2c1.1,0,2,0.9,2,2C20.2,46.8,19.3,47.7,18.2,47.7z M18.2,41.7c-1.1,0-2-0.9-2-2c0-1.1,0.9-2,2-2c1.1,0,2,0.9,2,2
		C20.2,40.8,19.3,41.7,18.2,41.7z M18.2,35.7c-1.1,0-2-0.9-2-2c0-1.1,0.9-2,2-2c1.1,0,2,0.9,2,2C20.2,34.8,19.3,35.7,18.2,35.7z
		 M24.2,41.7c-1.1,0-2-0.9-2-2c0-1.1,0.9-2,2-2c1.1,0,2,0.9,2,2C26.2,40.8,25.3,41.7,24.2,41.7z M24.2,35.7c-1.1,0-2-0.9-2-2
		c0-1.1,0.9-2,2-2c1.1,0,2,0.9,2,2C26.2,34.8,25.3,35.7,24.2,35.7z M30.2,41.7c-1.1,0-2-0.9-2-2c0-1.1,0.9-2,2-2c1.1,0,2,0.9,2,2
		C32.2,40.8,31.3,41.7,30.2,41.7z M30.2,35.7c-1.1,0-2-0.9-2-2c0-1.1,0.9-2,2-2c1.1,0,2,0.9,2,2C32.2,34.8,31.3,35.7,30.2,35.7z
		 M36.2,41.7c-1.1,0-2-0.9-2-2c0-1.1,0.9-2,2-2c1.1,0,2,0.9,2,2C38.2,40.8,37.3,41.7,36.2,41.7z M36.2,35.7c-1.1,0-2-0.9-2-2
		c0-1.1,0.9-2,2-2c1.1,0,2,0.9,2,2C38.2,34.8,37.3,35.7,36.2,35.7z"/>
	
		<circle fill-rule="evenodd" clip-rule="evenodd" fill="none" stroke="#000000" stroke-width="2" stroke-linecap="round" stroke-linejoin="round" stroke-miterlimit="10" cx="22" cy="19.9" r="3"/>
	
		<rect x="12" y="12.2" fill="none" stroke="#000000" stroke-width="2" stroke-linecap="round" stroke-linejoin="round" stroke-miterlimit="10" width="48" height="16"/>
	
		<circle fill-rule="evenodd" clip-rule="evenodd" fill="none" stroke="#000000" stroke-width="2" stroke-linecap="round" stroke-linejoin="round" stroke-miterlimit="10" cx="50" cy="19.9" r="3"/>
	
		<polyline fill="none" stroke="#000000" stroke-width="2" stroke-linecap="round" stroke-linejoin="round" stroke-miterlimit="10" points="
		12,28.1 12,60.1 43.7,60.1 60,48 60,28.1 	"/>
	<g>
		<g>
			<circle cx="18.2" cy="33.7" r="2"/>
		</g>
		<g>
			<circle cx="24.2" cy="33.7" r="2"/>
		</g>
		<g>
			<circle cx="30.2" cy="33.7" r="2"/>
		</g>
		<g>
			<circle cx="36.2" cy="33.7" r="2"/>
		</g>
	</g>
	<g>
		<g>
			<circle cx="18.2" cy="39.7" r="2"/>
		</g>
		<g>
			<circle cx="24.2" cy="39.7" r="2"/>
		</g>
		<g>
			<circle cx="30.2" cy="39.7" r="2"/>
		</g>
		<g>
			<circle cx="36.2" cy="39.7" r="2"/>
		</g>
	</g>
	<g>
		<g>
			<circle cx="18.2" cy="45.7" r="2"/>
		</g>
	</g>
	
		<polyline fill="none" stroke="#000000" stroke-width="2" stroke-linecap="round" stroke-linejoin="round" stroke-miterlimit="10" points="
		59.9,48 43.1,48 43.1,53.5 	"/>
</g>
</svg>
