<?xml version="1.0" encoding="utf-8"?>
<!-- Generator: Adobe Illustrator 19.1.0, SVG Export Plug-In . SVG Version: 6.00 Build 0)  -->
<svg version="1.1" id="emoji" xmlns="http://www.w3.org/2000/svg" xmlns:xlink="http://www.w3.org/1999/xlink" x="0px" y="0px"
	 viewBox="0 0 72 72" enable-background="new 0 0 72 72" xml:space="preserve">
<g id="_xD83D__xDDD2__xFE0F_">
	<g>
		<path fill="#FFFFFF" d="M44.1,49v4.5c0,0.6-0.4,1-1,1c-0.6,0-1-0.4-1-1V48c0-0.6,0.4-1,1-1H59L59,18h-4.6c-0.6,0-1-0.4-1-1l0,0
			h-2.1v2.6c0,0.6-0.4,1-1,1s-1-0.4-1-1V17h-2.8v2.6c0,0.6-0.4,1-1,1c-0.6,0-1-0.4-1-1V17h-2.8v2.6c0,0.6-0.4,1-1,1
			c-0.6,0-1-0.4-1-1V17H37v2.6c0,0.6-0.4,1-1,1c-0.6,0-1-0.4-1-1V17h-2.8v2.6c0,0.6-0.4,1-1,1c-0.6,0-1-0.4-1-1V17h-2.8v2.6
			c0,0.6-0.4,1-1,1c-0.6,0-1-0.4-1-1V17h-2.8v2.6c0,0.6-0.4,1-1,1c-0.6,0-1-0.4-1-1V17h-2.1l0,0c0,0.6-0.4,1-1,1H13l0,41.1l30.3,0
			L57,49H44.1z M39.1,51.3H26.9v4.2c0,0.6-0.4,1-1,1c-0.6,0-1-0.4-1-1v-4.2h-8c-0.6,0-1-0.4-1-1c0-0.6,0.4-1,1-1h8v-8.5h-8
			c-0.6,0-1-0.4-1-1s0.4-1,1-1h8v-8.5h-8c-0.6,0-1-0.4-1-1c0-0.6,0.4-1,1-1h8v-3.9c0-0.6,0.4-1,1-1c0.6,0,1,0.4,1,1v3.9h27.8
			c0.6,0,1,0.4,1,1c0,0.6-0.4,1-1,1H26.9v8.5h27.8c0.6,0,1,0.4,1,1s-0.4,1-1,1H26.9v8.5h12.2c0.6,0,1,0.4,1,1
			C40.1,50.9,39.7,51.3,39.1,51.3z"/>
	</g>
	<path fill="#D0CECE" d="M57,49H44.1v4.5c0,0.6-0.4,1-1,1c-0.5,0-0.9-0.4-1-0.9v5.4l1.2,0L57,49z"/>
	<g>
		<g>
			
				<line fill="#FFFFFF" stroke="#000000" stroke-width="2" stroke-linecap="round" stroke-linejoin="round" stroke-miterlimit="10" x1="45.5" y1="14" x2="45.5" y2="19.6"/>
			
				<line fill="#FFFFFF" stroke="#000000" stroke-width="2" stroke-linecap="round" stroke-linejoin="round" stroke-miterlimit="10" x1="40.7" y1="14" x2="40.7" y2="19.6"/>
			
				<line fill="#FFFFFF" stroke="#000000" stroke-width="2" stroke-linecap="round" stroke-linejoin="round" stroke-miterlimit="10" x1="36" y1="14" x2="36" y2="19.6"/>
			
				<line fill="#FFFFFF" stroke="#000000" stroke-width="2" stroke-linecap="round" stroke-linejoin="round" stroke-miterlimit="10" x1="50.2" y1="14" x2="50.2" y2="19.6"/>
			
				<line fill="#FFFFFF" stroke="#000000" stroke-width="2" stroke-linecap="round" stroke-linejoin="round" stroke-miterlimit="10" x1="31.2" y1="14" x2="31.2" y2="19.6"/>
			
				<line fill="#FFFFFF" stroke="#000000" stroke-width="2" stroke-linecap="round" stroke-linejoin="round" stroke-miterlimit="10" x1="26.4" y1="14" x2="26.4" y2="19.6"/>
			
				<line fill="#FFFFFF" stroke="#000000" stroke-width="2" stroke-linecap="round" stroke-linejoin="round" stroke-miterlimit="10" x1="21.7" y1="14" x2="21.7" y2="19.6"/>
		</g>
		<g>
			
				<line fill="none" stroke="#000000" stroke-width="2" stroke-linecap="round" stroke-linejoin="round" stroke-miterlimit="10" x1="17" y1="29.4" x2="54.8" y2="29.4"/>
			
				<line fill="none" stroke="#000000" stroke-width="2" stroke-linecap="round" stroke-linejoin="round" stroke-miterlimit="10" x1="17" y1="39.8" x2="54.8" y2="39.8"/>
			
				<line fill="none" stroke="#000000" stroke-width="2" stroke-linecap="round" stroke-linejoin="round" stroke-miterlimit="10" x1="17" y1="50.3" x2="39.1" y2="50.3"/>
		</g>
		<g>
			
				<line fill="none" stroke="#000000" stroke-width="2" stroke-linecap="round" stroke-linejoin="round" stroke-miterlimit="10" x1="25.9" y1="24.4" x2="25.9" y2="55.5"/>
		</g>
		<g>
			<g>
				
					<polyline fill="none" stroke="#000000" stroke-width="2" stroke-linecap="round" stroke-linejoin="round" stroke-miterlimit="10" points="
					54.3,17 60,17 60,48 43.7,60.1 12,60.1 12,17 17.6,17 				"/>
			</g>
		</g>
		
			<polyline fill="none" stroke="#000000" stroke-width="2" stroke-linecap="round" stroke-linejoin="round" stroke-miterlimit="10" points="
			59.7,48 43.1,48 43.1,53.5 		"/>
	</g>
</g>
</svg>
