<?xml version="1.0" encoding="utf-8"?>
<!-- Generator: Adobe Illustrator 19.1.0, SVG Export Plug-In . SVG Version: 6.00 Build 0)  -->
<svg version="1.1" id="emoji" xmlns="http://www.w3.org/2000/svg" xmlns:xlink="http://www.w3.org/1999/xlink" x="0px" y="0px"
	 viewBox="0 0 72 72" enable-background="new 0 0 72 72" xml:space="preserve">
<g id="_xD83D__xDDDD__xFE0F_">
	<path fill="#3F3F3F" d="M44.6,35c-0.7-1.4-1.5-4.3-2.4-5.6c-0.9-1.3-3.6-3-4.7-4.1c-3.1-2.9-1.8-8.3,1.6-10.8l1.3-0.9
		c3.4-2.5,8.8-2.1,10.8,1.6c0.7,1.3,1.6,4.4,2.5,5.6c0.9,1.2,3.5,3,4.6,4.1c3,3,1.8,8.3-1.6,10.8l-1.3,0.9
		C52,39.2,46.5,38.9,44.6,35z"/>
	<path fill="#3F3F3F" d="M41.1,34.2L21.4,49l2.2,2.6l2.1-1.6l2.9,3.7l-2.4,2c-3.6-0.4-4,3.1-4,3.1l-2.2,1.8l-3.2-3.9l2.7-2.3
		L17.4,52l-2.8,2.1l-3.8-4.6l26.7-20.1"/>
	<path fill="none" stroke="#000000" stroke-width="2" stroke-linecap="round" stroke-linejoin="round" stroke-miterlimit="10" d="
		M40.6,34.6L21.2,49.2l2.2,2.6l2.1-1.6l2.9,3.6l-2.3,2c-3.5-0.4-3.9,3.1-3.9,3.1l-2.2,1.8l-3.2-3.9l2.7-2.2l-2.1-2.5l-2.7,2.1
		l-3.7-4.5l26.2-19.8"/>
	<path fill="none" stroke="#000000" stroke-width="2" stroke-miterlimit="10" d="M44.6,35c-0.7-1.4-1.5-4.3-2.4-5.6
		c-0.9-1.3-3.6-3-4.7-4.1c-3.1-2.9-1.8-8.3,1.6-10.8l1.3-0.9c3.4-2.5,8.8-2.1,10.8,1.6c0.7,1.3,1.6,4.4,2.5,5.6
		c0.9,1.2,3.5,3,4.6,4.1c3,3,1.8,8.3-1.6,10.8l-1.3,0.9C52,39.2,46.5,38.9,44.6,35z"/>
	
		<path fill="#FFFFFF" stroke="#000000" stroke-width="2" stroke-linecap="round" stroke-linejoin="round" stroke-miterlimit="10" d="
		M46.4,28.8c-0.1,2.7,1.4,5.2,4.1,5.7c2.7,0.4,5.2-1.4,5.7-4.1c0.4-2.7-1.4-5.6-4.1-5.7c-3.2-0.1-2.5-3.1-2.5-3.1
		c0.4-2.7-1.4-5.2-4.1-5.7c-2.7-0.4-5.2,1.4-5.7,4.1c-0.4,2.7,1.4,5.2,4.1,5.7C43.8,25.7,46.5,25.6,46.4,28.8z"/>
</g>
</svg>
