<svg id="emoji" xmlns="http://www.w3.org/2000/svg" viewBox="0 0 72 72">
  <g id="color">
    <path fill="#FFFFFF" stroke="none" stroke-width="2" stroke-linecap="round" stroke-linejoin="round" stroke-miterlimit="10" d="M54.8808,49.1283C57.4746,45.405,59,40.8818,59,36c0-12.7026-10.2974-23-23-23S13,23.2974,13,36c0,12.7025,10.2974,23,23,23 c3.7581,0,7.3021-0.9071,10.4348-2.5054l4.8138,2.0528l5.7283,2.4428l-1.0836-6.1324L54.8808,49.1283z"/>
  </g>
  <g id="hair"/>
  <g id="skin"/>
  <g id="skin-shadow"/>
  <g id="line">
    <path fill="none" stroke="#000000" stroke-width="2" stroke-linecap="round" stroke-linejoin="round" stroke-miterlimit="10" d="M54.8808,49.1283C57.4746,45.405,59,40.8818,59,36c0-12.7026-10.2974-23-23-23S13,23.2974,13,36c0,12.7025,10.2974,23,23,23 c3.7581,0,7.3021-0.9071,10.4348-2.5054l4.8138,2.0528l5.7283,2.4428l-1.0836-6.1324L54.8808,49.1283z"/>
  </g>
</svg>
