<?xml version="1.0" encoding="utf-8"?>
<!-- Generator: Adobe Illustrator 21.1.0, SVG Export Plug-In . SVG Version: 6.00 Build 0)  -->
<svg version="1.1" id="emoji" xmlns="http://www.w3.org/2000/svg" xmlns:xlink="http://www.w3.org/1999/xlink" x="0px" y="0px"
	 viewBox="0 0 72 72" enable-background="new 0 0 72 72" xml:space="preserve">
<g id="_xD83D__xDDEF__xFE0F__1_">
	
		<polyline fill="#FFFFFF" stroke="#000000" stroke-width="2" stroke-linecap="round" stroke-linejoin="round" stroke-miterlimit="10" points="
		49,55 61,64 54,52 	"/>
	
		<path fill="#FFFFFF" stroke="#000000" stroke-width="2.0887" stroke-linecap="round" stroke-linejoin="round" stroke-miterlimit="10" d="
		M49.6,49.6L49.6,49.6L54,52 M48.7,54.8l0.9-5.2 M54.6,52.3l1.1,0.6l-1.5-8.7L54,43l4.1,0.5l-3.5-6.5l0.7-0.4l7-4.4l-7.4-3.4
		l2.3-4.9l-7.9,1.6l0.2-0.6l2.5-8.4l-7.6,2.9l-0.6,0.2l0,0l-2.2-8.5l-4.8,7l-2.2,3.2l-1.1-2.5L29.7,11l-3.6,7.9l-0.7,1.5l-6.8-3.7
		l1.4,8L18.2,25l-8,1.3l5.8,6.1l0.9,1l-6.3,4.1l7.5,3.3l0.2,0.1l-4.6,7.2l7.4-0.3l0.1,1.6l0.5,8.8l6.1-5.8l0.9-0.8l3.2,7.2l3.3-7
		l0,0l2.1,8.5l4.9-7l0.7-1.1l5.2,6.2l0.6-3.5 M54,52l0.6,0.3 M26.4,40.3"/>
</g>
</svg>
