<svg id="emoji" xmlns="http://www.w3.org/2000/svg" viewBox="0 0 72 72">
  <g id="color">
    <g id="_1F5F3" data-name="1F5F3">
      <polygon points="42.147 32.46 39.735 38.34 25.83 32.638 25.903 32.46 14.484 32.46 14.484 59.633 57.508 59.633 57.508 32.46 42.147 32.46" fill="#d0cfce"/>
      <polygon points="35.162 59.633 57.516 37.279 57.508 59.633 35.162 59.633" fill="#9b9b9a"/>
      <rect x="24.2575" y="37.2698" width="23.6528" height="3.1959" fill="#d0cfce"/>
      <rect x="23.7083" y="37.861" width="24.8607" height="1.8457" rx="0.774" fill="#9b9b9a"/>
    </g>
  </g>
  <g id="line">
    <g id="_1F5F3-2" data-name="1F5F3">
      <polyline points="42.41 32.46 57.508 32.46 57.508 57.369" fill="none" stroke="#000" stroke-linecap="round" stroke-linejoin="round" stroke-width="2"/>
      <polyline points="14.484 57.369 14.484 32.46 25.738 32.46" fill="none" stroke="#000" stroke-linecap="round" stroke-linejoin="round" stroke-width="2"/>
      <polyline points="37.054 37.241 25.83 32.638 34.144 12.367 48.048 18.07 40.247 37.091" fill="none" stroke="#000" stroke-linecap="round" stroke-linejoin="round" stroke-width="2"/>
      <line x1="24.2722" y1="37.3039" x2="47.7203" y2="37.3039" fill="none" stroke="#000" stroke-linecap="round" stroke-linejoin="round" stroke-width="2"/>
    </g>
  </g>
</svg>
