<svg id="emoji" xmlns="http://www.w3.org/2000/svg" viewBox="0 0 72 72">
  <g id="color">
    <path d="M36,60A24,24,0,0,0,54.157,20.3047q-.1309-.1515-.2646-.3008A24,24,0,1,0,36,60Z" fill="#fcea2b"/>
  </g>
  <g id="hair"/>
  <g id="skin"/>
  <g id="skin-shadow"/>
  <g id="line">
    <path d="M45.8147,45.2268a15.4294,15.4294,0,0,1-19.6294,0" fill="none" stroke="#000" stroke-linecap="round" stroke-linejoin="round" stroke-width="2"/>
    <path d="M47.7657,16.233a23.0273,23.0273,0,0,0-23.3693-.096" fill="none" stroke="#000" stroke-linecap="round" stroke-linejoin="round" stroke-width="2"/>
    <path d="M17.6381,22.1467a23,23,0,1,0,36.625-.1294" fill="none" stroke="#000" stroke-linecap="round" stroke-linejoin="round" stroke-width="2"/>
    <ellipse cx="36" cy="14.8" rx="25" ry="5.25" fill="none" stroke="#000" stroke-miterlimit="10" stroke-width="2"/>
    <path d="M31.6941,33.4036a4.7262,4.7262,0,0,0-8.6382,0" fill="none" stroke="#000" stroke-linecap="round" stroke-miterlimit="10" stroke-width="2"/>
    <path d="M48.9441,33.4036a4.7262,4.7262,0,0,0-8.6382,0" fill="none" stroke="#000" stroke-linecap="round" stroke-miterlimit="10" stroke-width="2"/>
  </g>
  <g id="color-foreground">
    <ellipse cx="36" cy="14.8" rx="25" ry="5.25" fill="none" stroke="#61b2e4" stroke-miterlimit="10" stroke-width="2.1"/>
  </g>
</svg>
