<?xml version="1.0" encoding="utf-8"?>
<!-- Generator: Adobe Illustrator 21.1.0, SVG Export Plug-In . SVG Version: 6.00 Build 0)  -->
<svg version="1.1" id="emoji" xmlns="http://www.w3.org/2000/svg" xmlns:xlink="http://www.w3.org/1999/xlink" x="0px" y="0px"
	 viewBox="0 0 72 72" enable-background="new 0 0 72 72" xml:space="preserve">
<g id="_xD83D__xDE00__1_">
	<path fill="none" stroke="#1F201F" stroke-width="0.5" stroke-linecap="round" stroke-linejoin="round" stroke-miterlimit="10" d="
		M27.8,65.7"/>
	<g>
		<defs>
			<polygon id="SVGID_1_" points="35.8,10.2 25.9,12.1 19.8,15.6 14.2,21.5 10.2,29.9 10.2,44.2 16.7,55 25.9,61.3 35.8,63.2 
				44.1,61.9 53,56.9 58.9,49.8 62.3,39.2 61.5,30 57.1,20.9 52.2,15.9 43.9,11.5 			"/>
		</defs>
		<use xlink:href="#SVGID_1_"  overflow="visible" fill="#FCEA2B"/>
		<clipPath id="SVGID_2_">
			<use xlink:href="#SVGID_1_"  overflow="visible"/>
		</clipPath>
		<rect x="4.4" y="4.5" clip-path="url(#SVGID_2_)" fill="#FCEA2B" width="63.7" height="64.5"/>
	</g>
	<circle fill="none" stroke="#FDE034" stroke-miterlimit="10" cx="35.8" cy="36.7" r="26.5"/>
	<path fill="none" stroke="#1F201F" stroke-width="2" stroke-linecap="round" stroke-linejoin="round" stroke-miterlimit="10" d="
		M52,46"/>
	<path fill="none" stroke="#1F201F" stroke-width="2" stroke-linecap="round" stroke-linejoin="round" stroke-miterlimit="10" d="
		M19.7,46"/>
	
		<circle fill="none" stroke="#000000" stroke-width="2" stroke-linecap="round" stroke-linejoin="round" stroke-miterlimit="10" cx="35.8" cy="36.7" r="26.5"/>
	<circle cx="25.7" cy="32.8" r="3"/>
	<circle cx="45.6" cy="32.8" r="3"/>
	<g>
		<defs>
			<polygon id="SVGID_3_" points="41.3,56.9 48.6,53.4 51.4,49.5 52.2,45.3 43.2,45.4 19.1,45.4 22.3,53.4 29.9,56.9 			"/>
		</defs>
		<use xlink:href="#SVGID_3_"  overflow="visible" fill="#EA5A47"/>
		<clipPath id="SVGID_4_">
			<use xlink:href="#SVGID_3_"  overflow="visible"/>
		</clipPath>
		<rect x="7.4" y="36.8" clip-path="url(#SVGID_4_)" fill="#EA5A47" width="56.5" height="28.6"/>
	</g>
	<path fill="none" stroke="#FFFFFF" stroke-width="4" stroke-linejoin="round" stroke-miterlimit="10" d="M19.7,46.3
		c0,0,16.7,4.1,32.6,0.1"/>
	<path fill="none" stroke="#000000" stroke-width="2" stroke-linecap="round" stroke-linejoin="round" stroke-miterlimit="10" d="
		M19.2,43.5c0,0,17.1,4.1,33.3,0.1"/>
	<path fill="none" stroke="#000000" stroke-width="2" stroke-linecap="round" stroke-linejoin="round" stroke-miterlimit="10" d="
		M52.7,43.5C52.7,51,47.1,57,35.9,57C24.7,57,19,51,19,43.5"/>
	<path fill="none" stroke="#000000" stroke-width="2" stroke-linejoin="round" stroke-miterlimit="10" d="M19.7,48.4
		c0,0,16.7,4.1,32.6,0.1"/>
</g>
</svg>
