<?xml version="1.0" encoding="utf-8"?>
<!-- Generator: Adobe Illustrator 21.1.0, SVG Export Plug-In . SVG Version: 6.00 Build 0)  -->
<svg version="1.1" id="emoji" xmlns="http://www.w3.org/2000/svg" xmlns:xlink="http://www.w3.org/1999/xlink" x="0px" y="0px"
	 viewBox="0 0 72 72" enable-background="new 0 0 72 72" xml:space="preserve">
<g id="_xD83D__xDE02__1_">
	<path fill="none" stroke="#1F201F" stroke-width="2" stroke-linecap="round" stroke-linejoin="round" stroke-miterlimit="10" d="
		M34.6,28.6"/>
	<path fill="none" stroke="#1F201F" stroke-width="2" stroke-linecap="round" stroke-linejoin="round" stroke-miterlimit="10" d="
		M34.6,29.3"/>
	<g>
		<defs>
			<polygon id="SVGID_1_" points="35.9,9.7 25.7,11.7 19.5,15.2 13.7,21.2 9.7,29.9 9.7,44.4 16.3,55.5 25.7,61.9 35.9,63.9 
				44.3,62.5 53.4,57.4 59.4,50.2 63,39.3 62.1,29.9 57.6,20.6 52.6,15.5 44.1,11 			"/>
		</defs>
		<use xlink:href="#SVGID_1_"  overflow="visible" fill="#FCEA2B"/>
		<clipPath id="SVGID_2_">
			<use xlink:href="#SVGID_1_"  overflow="visible"/>
		</clipPath>
		<rect x="3.8" y="3.8" clip-path="url(#SVGID_2_)" fill="#FCEA2B" width="65.1" height="66"/>
	</g>
	<circle fill="none" stroke="#FCEA2B" stroke-width="2" stroke-miterlimit="10" cx="35.9" cy="36.8" r="27.1"/>
	<path fill="none" stroke="#1F201F" stroke-width="2" stroke-linecap="round" stroke-linejoin="round" stroke-miterlimit="10" d="
		M52,46.3"/>
	<path fill="none" stroke="#1F201F" stroke-width="2" stroke-linecap="round" stroke-linejoin="round" stroke-miterlimit="10" d="
		M18.9,46.3"/>
	<path fill="none" stroke="#000000" stroke-width="2" stroke-linecap="round" stroke-linejoin="round" stroke-miterlimit="10" d="
		M62.8,33.7c0-0.1,0-0.1,0-0.2C61.1,20.1,49.7,9.7,35.9,9.7C22.2,9.7,10.8,20,9,33.2c0,0.1,0,0.4-0.1,0.5"/>
	<path fill="none" stroke="#000000" stroke-width="2" stroke-linecap="round" stroke-linejoin="round" stroke-miterlimit="10" d="
		M13.7,52.4c4.9,6.8,13.1,11.5,22.2,11.5c9,0,17.2-4.6,22.1-11.4"/>
	<path d="M30.9,37c-0.4,0-0.8-0.2-1.1-0.7c0,0-1.4-2.7-4-2.7c-2.6,0-4,2.7-4,2.7c-0.3,0.6-1,0.8-1.6,0.5c-0.6-0.3-0.8-1-0.5-1.6
		c0.1-0.2,2.1-4,6.1-4s6.1,3.9,6.1,4c0.3,0.6,0.1,1.3-0.5,1.6C31.3,37,31.1,37,30.9,37z"/>
	<path d="M51.2,37c-0.4,0-0.8-0.2-1.1-0.7c0,0-1.4-2.7-4-2.7c-2.6,0-4,2.7-4,2.7c-0.3,0.6-1,0.8-1.6,0.5c-0.6-0.3-0.8-1-0.5-1.6
		c0.1-0.2,2.1-4,6.1-4s6.1,3.9,6.1,4c0.3,0.6,0.1,1.3-0.5,1.6C51.6,37,51.4,37,51.2,37z"/>
	<path fill="none" stroke="#1F201F" stroke-width="2" stroke-linecap="round" stroke-linejoin="round" stroke-miterlimit="10" d="
		M52,47"/>
	<path fill="none" stroke="#1F201F" stroke-width="2" stroke-linecap="round" stroke-linejoin="round" stroke-miterlimit="10" d="
		M18.9,47"/>
	<path fill="none" stroke="#1F201F" stroke-width="2" stroke-linecap="round" stroke-linejoin="round" stroke-miterlimit="10" d="
		M52.4,47"/>
	<path fill="none" stroke="#1F201F" stroke-width="2" stroke-linecap="round" stroke-linejoin="round" stroke-miterlimit="10" d="
		M19.4,47"/>
	<g>
		<defs>
			<polygon id="SVGID_3_" points="41.4,58.2 48.9,54.6 51.8,50.7 52.6,46.3 43.4,46.4 18.8,46.4 22,54.6 29.8,58.2 			"/>
		</defs>
		<use xlink:href="#SVGID_3_"  overflow="visible" fill="#EA5A47"/>
		<clipPath id="SVGID_4_">
			<use xlink:href="#SVGID_3_"  overflow="visible"/>
		</clipPath>
		<rect x="6.8" y="37.6" clip-path="url(#SVGID_4_)" fill="#EA5A47" width="57.7" height="29.3"/>
	</g>
	<path fill="none" stroke="#FFFFFF" stroke-width="4" stroke-linejoin="round" stroke-miterlimit="10" d="M19.3,47.4
		c0,0,17.1,4.2,33.3,0.1"/>
	<path fill="none" stroke="#000000" stroke-width="2" stroke-linecap="round" stroke-linejoin="round" stroke-miterlimit="10" d="
		M18.8,44.5c0,0,17.4,4.2,34,0.1"/>
	<path fill="none" stroke="#000000" stroke-width="2" stroke-linecap="round" stroke-linejoin="round" stroke-miterlimit="10" d="
		M53.1,44.5c0,7.7-5.7,13.8-17.2,13.8c-11.4,0-17.2-6.1-17.2-13.8"/>
	<path fill="none" stroke="#000000" stroke-width="2" stroke-linejoin="round" stroke-miterlimit="10" d="M19.3,49.5
		c0,0,17.1,4.2,33.3,0.1"/>
	<path d="M8.9,50.5c-1.7,0-3.2-0.7-4.4-1.8c-1.2-1.2-1.8-2.8-1.8-4.4c0-1.7,0.7-3.2,1.8-4.4c3.9-3.9,11.3-3.9,11.6-3.9
		c0.7,0,1.2,0.5,1.2,1.2c0,0.3,0,7.7-3.9,11.6l0,0C12.1,49.8,10.5,50.5,8.9,50.5z M14.8,38.3c-2.1,0.2-6.3,0.8-8.7,3.2
		C5.4,42.2,5,43.2,5,44.2c0,1,0.4,2,1.1,2.8c1.5,1.5,4,1.5,5.5,0l0,0C14,44.6,14.6,40.4,14.8,38.3z"/>
	<path fill="#92D3F5" d="M14.8,38.3c-2.1,0.2-6.3,0.8-8.7,3.2C5.4,42.2,5,43.2,5,44.2c0,1,0.4,2,1.1,2.8c1.5,1.5,4,1.5,5.5,0l0,0
		C14,44.6,14.6,40.4,14.8,38.3z"/>
	<path d="M63,50.5c-1.7,0-3.2-0.7-4.4-1.8c-3.9-3.9-3.9-11.3-3.9-11.6c0-0.7,0.5-1.2,1.2-1.2c0.3,0,7.7,0,11.6,3.9l0,0
		c2.4,2.4,2.4,6.4,0,8.8C66.3,49.8,64.7,50.5,63,50.5z M57.1,38.3c0.2,2.1,0.8,6.3,3.2,8.7c1.5,1.5,4,1.5,5.5,0c1.5-1.5,1.5-4,0-5.5
		l0,0C63.5,39.1,59.2,38.5,57.1,38.3z"/>
	<path fill="#92D3F5" d="M57.1,38.3c0.2,2.1,0.8,6.3,3.2,8.7c1.5,1.5,4,1.5,5.5,0c1.5-1.5,1.5-4,0-5.5l0,0
		C63.5,39.1,59.2,38.5,57.1,38.3z"/>
	<path fill="none" stroke="#000000" stroke-width="2" stroke-linecap="round" stroke-linejoin="round" stroke-miterlimit="10" d="
		M17.4,27.6c0.8-1.6,2.3-2.9,4-3.5c1.7-0.8,3.6-1,5.3-0.5"/>
	<path fill="none" stroke="#000000" stroke-width="2" stroke-linecap="round" stroke-linejoin="round" stroke-miterlimit="10" d="
		M53.5,27.6c-1.9-3.3-5.7-4.9-9.3-4"/>
</g>
</svg>
