<?xml version="1.0" encoding="utf-8"?>
<!-- Generator: Adobe Illustrator 21.1.0, SVG Export Plug-In . SVG Version: 6.00 Build 0)  -->
<svg version="1.1" id="emoji" xmlns="http://www.w3.org/2000/svg" xmlns:xlink="http://www.w3.org/1999/xlink" x="0px" y="0px"
	 viewBox="0 0 72 72" enable-background="new 0 0 72 72" xml:space="preserve">
<g>
	<g>
		<defs>
			<polygon id="SVGID_1_" points="35.6,13.3 27,14.9 21.7,18 16.8,23 13.3,30.4 13.3,42.7 18.9,52.1 27,57.6 35.6,59.3 42.8,58.1 
				50.5,53.8 55.6,47.6 58.6,38.4 57.8,30.4 54,22.5 49.8,18.2 42.6,14.3 			"/>
		</defs>
		<use xlink:href="#SVGID_1_"  overflow="visible" fill="#FCEA2B"/>
		<clipPath id="SVGID_2_">
			<use xlink:href="#SVGID_1_"  overflow="visible"/>
		</clipPath>
		<rect x="8.3" y="8.3" clip-path="url(#SVGID_2_)" fill="#FCEA2B" width="55.2" height="56"/>
	</g>
	<circle fill="none" stroke="#FCEA2B" stroke-width="1.8" stroke-miterlimit="10" cx="35.6" cy="36.3" r="23"/>
	<path fill="none" stroke="#1F201F" stroke-width="2" stroke-linecap="round" stroke-linejoin="round" stroke-miterlimit="10" d="
		M51.7,45.6"/>
	<path fill="none" stroke="#1F201F" stroke-width="2" stroke-linecap="round" stroke-linejoin="round" stroke-miterlimit="10" d="
		M21.6,44.3"/>
	<g>
		<defs>
			<polygon id="SVGID_3_" points="40.3,53.8 46.7,50.7 49.1,47.4 49.8,43.7 42,43.8 21.1,43.8 23.8,50.7 30.5,53.8 			"/>
		</defs>
		<use xlink:href="#SVGID_3_"  overflow="visible" fill="#EA5A47"/>
		<clipPath id="SVGID_4_">
			<use xlink:href="#SVGID_3_"  overflow="visible"/>
		</clipPath>
		<rect x="10.9" y="36.3" clip-path="url(#SVGID_4_)" fill="#EA5A47" width="49" height="24.8"/>
	</g>
	<path fill="none" stroke="#FFFFFF" stroke-width="4" stroke-linejoin="round" stroke-miterlimit="10" d="M21.6,44.6
		c0,0,14.5,3.6,28.3,0.1"/>
	<path fill="none" stroke="#000000" stroke-width="2" stroke-linecap="round" stroke-linejoin="round" stroke-miterlimit="10" d="
		M21.1,42.1c0,0,14.8,3.6,28.9,0.1"/>
	<path fill="none" stroke="#000000" stroke-width="2" stroke-linecap="round" stroke-linejoin="round" stroke-miterlimit="10" d="
		M50.2,42.1c0,6.5-4.8,11.7-14.6,11.7c-9.7,0-14.6-5.2-14.6-11.7"/>
	<path fill="none" stroke="#000000" stroke-width="2" stroke-linejoin="round" stroke-miterlimit="10" d="M21.5,46.4
		c0,0,14.5,3.6,28.3,0.1"/>
	<path d="M57.6,27.9c-1,1-2.3,1.5-3.7,1.5c-1.4,0-2.7-0.5-3.7-1.5c-1-1-1.5-2.3-1.5-3.7c0-4.6,4.4-9,4.5-9.2c0.4-0.4,1-0.4,1.4,0
		c0.2,0.2,4.5,4.6,4.5,9.2l0,0C59.1,25.6,58.5,26.9,57.6,27.9z M53.8,17.2c-1.1,1.3-3.3,4.2-3.3,7c0,0.9,0.3,1.7,1,2.3
		c0.6,0.6,1.4,1,2.3,1c1.7,0,3.3-1.5,3.3-3.3l0,0C57.1,21.4,55,18.5,53.8,17.2z"/>
	<path fill="#92D3F5" d="M53.8,17.2c-1.1,1.3-3.3,4.2-3.3,7c0,0.9,0.3,1.7,1,2.3c0.6,0.6,1.4,1,2.3,1c1.7,0,3.3-1.5,3.3-3.3l0,0
		C57.1,21.4,55,18.5,53.8,17.2z"/>
	<path fill="none" stroke="#000000" stroke-width="2" stroke-linecap="round" stroke-linejoin="round" stroke-miterlimit="10" d="
		M47.7,16.7c-3.5-2.2-7.7-3.4-12.1-3.4c-12.7,0-23,10.3-23,23c0,12.7,10.3,23,23,23c12.7,0,23-10.3,23-23c0-1.7-0.2-3.3-0.5-4.8"/>
	<path d="M31.5,33.5c-0.4,0-0.7-0.2-0.9-0.6c0,0-1.2-2.3-3.4-2.3c-2.2,0-3.4,2.3-3.4,2.3c-0.2,0.5-0.8,0.7-1.3,0.4
		c-0.5-0.2-0.7-0.8-0.4-1.3c0.1-0.1,1.8-3.4,5.2-3.4c3.5,0,5.1,3.3,5.2,3.4c0.2,0.5,0,1.1-0.4,1.3C31.8,33.4,31.6,33.5,31.5,33.5z"
		/>
	<path d="M48.7,33.5c-0.4,0-0.7-0.2-0.9-0.6c0,0-1.2-2.3-3.4-2.3c-2.2,0-3.4,2.3-3.4,2.3c-0.2,0.5-0.8,0.7-1.3,0.4
		c-0.5-0.2-0.7-0.8-0.4-1.3c0.1-0.1,1.8-3.4,5.2-3.4c3.5,0,5.1,3.3,5.2,3.4c0.2,0.5,0,1.1-0.4,1.3C49,33.4,48.9,33.5,48.7,33.5z"/>
</g>
</svg>
