<svg id="emoji" xmlns="http://www.w3.org/2000/svg" viewBox="0 0 72 72">
  <g id="color">
    <rect x="6.859" y="10.594" clip-path="url(#SVGID_2_)" fill="#FCEA2B" width="55.25" height="56" stroke="none"></rect>
    <path fill="none" stroke="#FCEA2B" stroke-width="1.8" stroke-miterlimit="10" d="M34.109,61c12.7022,0,23-10.1648,23-22.703
		c0-5.6768-2.1107-10.8668-5.5995-14.8472c-0.0837-0.0955-0.1683-0.1904-0.2536-0.2845c-1.2483-1.3773-2.6643-2.6032-4.2165-3.6466
		c-3.6847-2.4769-8.1363-3.9248-12.9304-3.9248c-12.7031,0-23,10.1639-23,22.703C11.109,50.8352,21.4059,61,34.109,61z"></path>
    <path fill="none" stroke="#e67a94" stroke-width="2" stroke-linecap="round" stroke-linejoin="round" stroke-miterlimit="10" d="
		M16.2172,27.5695"></path>
    <ellipse fill="none" stroke="#61b2e4" stroke-width="2" stroke-miterlimit="10" cx="34" cy="17" rx="25" ry="5.2885"></ellipse>
  </g>
  <g id="hair"> </g>
  <g id="skin"> </g>
  <g id="skin-shadow"> </g>
  <g id="line">
    <polygon id="SVGID_1_" points="34.109,15.594 25.4792,17.2737 20.1794,20.2942 15.2887,25.3733 11.859,32.7239 11.859,45.0637 
				17.4586,54.4641 25.4792,59.9143 34.109,61.594 41.2887,60.4436 48.9987,56.1136 54.109,49.9544 57.109,40.7444 56.359,32.7639 
				52.5495,24.8538 48.3395,20.5335 41.0895,16.6741 			" fill="#000000" stroke="none"></polygon>
    <path fill="none" stroke="#000000" stroke-width="2" stroke-linecap="round" stroke-linejoin="round" stroke-miterlimit="10" d="
		M43.9238,47.3995c-5.8513,4.7083-14.1004,4.6878-19.6295,0"></path>
    <path d="M29.9931,36.7874c-0.3672,0-0.7207-0.2032-0.8965-0.5528c-0.0098-0.0195-1.2129-2.3222-3.418-2.3222
		c-2.2305,0-3.4062,2.2988-3.418,2.3222c-0.2461,0.4942-0.8457,0.6934-1.3418,0.4473c-0.4941-0.2481-0.6933-0.8477-0.4472-1.3418
		c0.0703-0.1406,1.7539-3.4277,5.207-3.4277s5.1367,3.2871,5.207,3.4277c0.2481,0.4941,0.0469,1.0937-0.4472,1.3418
		C30.2958,36.7523,30.1415,36.7874,29.9931,36.7874z" fill="#000000" stroke="none"></path>
    <path d="M47.2431,36.7874c-0.3672,0-0.7207-0.2032-0.8965-0.5528c-0.0098-0.0195-1.2129-2.3222-3.418-2.3222
		c-2.2305,0-3.4062,2.2988-3.418,2.3222c-0.2461,0.4942-0.8457,0.6934-1.3418,0.4473c-0.4941-0.2481-0.6933-0.8477-0.4472-1.3418
		c0.0703-0.1406,1.7539-3.4277,5.207-3.4277c3.4531,0,5.1367,3.2871,5.207,3.4277c0.2481,0.4941,0.0469,1.0937-0.4472,1.3418
		C47.5458,36.7523,47.3915,36.7874,47.2431,36.7874z" fill="#000000" stroke="none"></path>
    <path fill="none" stroke="#000000" stroke-width="2" stroke-linecap="round" stroke-linejoin="round" stroke-miterlimit="10" d="
		M45.8802,18.6635c-3.4345-2.0487-7.4493-3.2257-11.7389-3.2257c-4.2227,0-8.179,1.1403-11.5776,3.1299"></path>
    <path fill="none" stroke="#000000" stroke-width="2" stroke-linecap="round" stroke-linejoin="round" stroke-miterlimit="10" d="
		M15.8206,24.5638c-2.9048,3.8443-4.6276,8.6317-4.6276,13.8217c-0.0001,12.6735,10.2734,22.9481,22.9478,22.9483
		C46.8144,61.3339,57.089,51.0595,57.0891,38.386c0-5.2484-1.7617-10.0852-4.7262-13.9513"></path>
  </g>
</svg>