<svg version="1.1" id="emoji" xmlns="http://www.w3.org/2000/svg" x="0" y="0" viewBox="0 0 72 72" enable-background="new 0 0 72 72" xml:space="preserve">
  <g id="color">
    <circle fill="#FCEA2B" cx="35.594" cy="36.2623" r="23.9546"/>
    <path fill="#92D3F5" d="M53.8435,17.157c-1.1384,1.3483-3.2693,4.2456-3.2693,7.0377c-0.0013,0.8739,0.3395,1.6946,0.9557,2.3109 c0.6176,0.6176,1.4384,0.9584,2.3137,0.9585c1.7478-0.0001,3.2707-1.5229,3.2693-3.2693l0,0 C57.1129,21.4026,54.9819,18.5054,53.8435,17.157z"/>
    <path fill="#FFFFFF" d="M50.4777,41.8703c0,1.59-0.29,3.11-0.87,4.49c-12.4901,3.03-25.4301,0.34-27.4901-0.13 c-0.55-1.34-0.83-2.81-0.83-4.36h0.11c0,0,14.8,3.59,28.89,0.07L50.4777,41.8703z"/>
    <path fill="#EA5A47" d="M49.6077,46.3603c-1.79,4.27-6.35,7.23-13.69,7.23c-7.41,0-12.03-3.03-13.8-7.36 C24.1777,46.7001,37.1176,49.3902,49.6077,46.3603z"/>
  </g>
  <g id="hair"/>
  <g id="skin"/>
  <g id="skin-shadow"/>
  <g id="line">
    <path d="M57.5519,27.9031c-0.9898,0.9898-2.3068,1.5351-3.7084,1.5351c-1.4015,0-2.7185-0.5454-3.7097-1.5365 c-0.9898-0.9898-1.5351-2.3067-1.5338-3.7069c0-4.6136,4.36-9.0255,4.5455-9.2109c0.3858-0.3858,1.0103-0.3858,1.3961,0 c0.1854,0.1854,4.5454,4.5972,4.5454,9.2109l0,0C59.0883,25.5949,58.543,26.9119,57.5519,27.9031z M53.8435,17.157 c-1.1384,1.3483-3.2693,4.2456-3.2693,7.0377c-0.0013,0.8739,0.3395,1.6946,0.9557,2.3109 c0.6176,0.6176,1.4384,0.9584,2.3137,0.9585c1.7478-0.0001,3.2707-1.5229,3.2693-3.2693l0,0 C57.1129,21.4026,54.9819,18.5054,53.8435,17.157z"/>
    <path fill="none" stroke="#000000" stroke-width="2" stroke-linecap="round" stroke-linejoin="round" stroke-miterlimit="10" d="M47.6886,16.6953c-3.5138-2.1765-7.6575-3.433-12.0945-3.433c-12.7031,0-23,10.2969-23,23c0,12.7022,10.2969,23,23,23 c12.7022,0,23-10.2978,23-23c0-1.6537-0.1745-3.2667-0.5062-4.8215"/>
    <path d="M31.4781,33.4558c-0.3672,0-0.7207-0.2032-0.8965-0.5528c-0.0098-0.0195-1.2129-2.3222-3.418-2.3222 c-2.2305,0-3.4062,2.2988-3.418,2.3222c-0.2461,0.4942-0.8457,0.6934-1.3418,0.4473c-0.4941-0.2481-0.6933-0.8477-0.4472-1.3418 c0.0703-0.1406,1.7539-3.4277,5.207-3.4277s5.1367,3.2871,5.207,3.4277c0.2481,0.4941,0.0469,1.0937-0.4472,1.3418 C31.7808,33.4206,31.6265,33.4558,31.4781,33.4558z"/>
    <path d="M48.7281,33.4558c-0.3672,0-0.7207-0.2032-0.8965-0.5528c-0.0098-0.0195-1.2129-2.3222-3.418-2.3222 c-2.2305,0-3.4062,2.2988-3.418,2.3222c-0.2461,0.4942-0.8457,0.6934-1.3418,0.4473c-0.4941-0.2481-0.6933-0.8477-0.4472-1.3418 c0.0703-0.1406,1.7539-3.4277,5.207-3.4277c3.4531,0,5.1367,3.2871,5.207,3.4277c0.2481,0.4941,0.0469,1.0937-0.4472,1.3418 C49.0308,33.4206,48.8765,33.4558,48.7281,33.4558z"/>
    <path fill="none" stroke="#000000" stroke-width="2" stroke-linecap="round" stroke-linejoin="round" stroke-miterlimit="10" d="M50.4777,41.8703c0,1.59-0.29,3.11-0.87,4.49c-12.4901,3.03-25.4301,0.34-27.4901-0.13c-0.55-1.34-0.83-2.81-0.83-4.36h0.11 c0,0,14.8,3.59,28.89,0.07L50.4777,41.8703z"/>
    <path fill="none" stroke="#000000" stroke-width="2" stroke-linecap="round" stroke-linejoin="round" stroke-miterlimit="10" d="M49.6077,46.3603c-1.79,4.27-6.35,7.23-13.69,7.23c-7.41,0-12.03-3.03-13.8-7.36C24.1777,46.7001,37.1176,49.3902,49.6077,46.3603z"/>
  </g>
</svg>
