<?xml version="1.0" encoding="utf-8"?>
<!-- Generator: Adobe Illustrator 21.1.0, SVG Export Plug-In . SVG Version: 6.00 Build 0)  -->
<svg version="1.1" id="emoji" xmlns="http://www.w3.org/2000/svg" xmlns:xlink="http://www.w3.org/1999/xlink" x="0px" y="0px"
	 viewBox="0 0 72 72" enable-background="new 0 0 72 72" xml:space="preserve">
<g id="_xD83D__xDE0B__1_">
	<g>
		<defs>
			<polygon id="SVGID_1_" points="36.1,9.3 25.9,11.3 19.7,14.8 13.9,20.8 9.9,29.5 9.9,44 16.5,55.1 25.9,61.5 36.1,63.5 
				44.5,62.1 53.6,57 59.6,49.8 63.2,38.9 62.3,29.5 57.8,20.2 52.8,15.1 44.3,10.6 			"/>
		</defs>
		<use xlink:href="#SVGID_1_"  overflow="visible" fill="#FCEA2B"/>
		<clipPath id="SVGID_2_">
			<use xlink:href="#SVGID_1_"  overflow="visible"/>
		</clipPath>
		<rect x="4" y="3.4" clip-path="url(#SVGID_2_)" fill="#FCEA2B" width="65" height="65.9"/>
	</g>
	<circle fill="none" stroke="#FCEA2B" stroke-width="2" stroke-miterlimit="10" cx="36" cy="36.4" r="27"/>
	<path fill="none" stroke="#000000" stroke-width="2" stroke-linecap="round" stroke-linejoin="round" stroke-miterlimit="10" d="
		M61.1,46.8c1.3-3.2,2.1-6.7,2.1-10.4c0-15-12.1-27.1-27.1-27.1C21.1,9.3,9,21.4,9,36.4c0,15,12.1,27.1,27.1,27.1
		c4,0,7.7-0.9,11.1-2.4"/>
	<path d="M31.2,34.3c-0.4,0-0.8-0.2-1.1-0.7c0,0-1.4-2.7-4-2.7c-2.6,0-4,2.7-4,2.7c-0.3,0.6-1,0.8-1.6,0.5c-0.6-0.3-0.8-1-0.5-1.6
		c0.1-0.2,2.1-4,6.1-4s6,3.9,6.1,4c0.3,0.6,0.1,1.3-0.5,1.6C31.6,34.2,31.4,34.3,31.2,34.3z"/>
	<path d="M51.5,34.3c-0.4,0-0.8-0.2-1.1-0.7c0,0-1.4-2.7-4-2.7c-2.6,0-4,2.7-4,2.7c-0.3,0.6-1,0.8-1.6,0.5c-0.6-0.3-0.8-1-0.5-1.6
		c0.1-0.2,2.1-4,6.1-4s6,3.9,6.1,4c0.3,0.6,0.1,1.3-0.5,1.6C51.9,34.2,51.7,34.3,51.5,34.3z"/>
	<polygon fill="#EA5A47" points="46.6,53.4 48.7,56.3 52.3,59.8 55.1,61.4 58,60.8 60.6,58.8 61.3,55.9 60.4,53.4 58.7,51.2 
		57,49.7 55.6,48.1 53.1,46.3 51.8,47.9 49.8,50.5 	"/>
	<path fill="none" stroke="#000000" stroke-width="2" stroke-miterlimit="10" d="M53.5,46.5c0,0,8.1,5.7,7.9,9.4l0,0
		c-0.2,5.7-5.3,5.6-5.3,5.6c-3.6,0.4-9.5-7.7-9.5-7.7"/>
	<path fill="none" stroke="#000000" stroke-width="2" stroke-linecap="round" stroke-linejoin="round" stroke-miterlimit="10" d="
		M17.4,42.7c2.6,7.8,10,13.4,18.6,13.4c8.7,0,16-5.6,18.6-13.4"/>
</g>
</svg>
