<?xml version="1.0" encoding="utf-8"?>
<!-- Generator: Adobe Illustrator 21.1.0, SVG Export Plug-In . SVG Version: 6.00 Build 0)  -->
<svg version="1.1" id="emoji" xmlns="http://www.w3.org/2000/svg" xmlns:xlink="http://www.w3.org/1999/xlink" x="0px" y="0px"
	 viewBox="0 0 72 72" enable-background="new 0 0 72 72" xml:space="preserve">
<g id="_xD83D__xDE01__1_">
	<g>
		<defs>
			<polygon id="SVGID_1_" points="35.9,13.6 27.2,15.3 21.9,18.3 17,23.4 13.6,30.8 13.6,43.1 19.2,52.5 27.2,58 35.9,59.6 43,58.5 
				50.7,54.2 55.9,48 58.9,38.8 58.1,30.8 54.3,22.9 50.1,18.6 42.8,14.7 			"/>
		</defs>
		<use xlink:href="#SVGID_1_"  overflow="visible" fill="#FCEA2B"/>
		<clipPath id="SVGID_2_">
			<use xlink:href="#SVGID_1_"  overflow="visible"/>
		</clipPath>
		<rect x="8.6" y="8.6" clip-path="url(#SVGID_2_)" fill="#FCEA2B" width="55.2" height="56"/>
	</g>
	<circle fill="none" stroke="#FDE034" stroke-miterlimit="10" cx="35.9" cy="36.6" r="23"/>
	
		<circle fill="none" stroke="#000000" stroke-width="2" stroke-linecap="round" stroke-linejoin="round" stroke-miterlimit="10" cx="35.9" cy="36.6" r="23"/>
	<path d="M31.7,33.8c-0.4,0-0.7-0.2-0.9-0.6c0,0-1.2-2.3-3.4-2.3c-2.2,0-3.4,2.3-3.4,2.3c-0.2,0.5-0.8,0.7-1.3,0.4
		c-0.5-0.2-0.7-0.8-0.4-1.3c0.1-0.1,1.8-3.4,5.2-3.4c3.5,0,5.1,3.3,5.2,3.4c0.2,0.5,0,1.1-0.4,1.3C32,33.8,31.8,33.8,31.7,33.8z"/>
	<path d="M48.9,33.8c-0.4,0-0.7-0.2-0.9-0.6c0,0-1.2-2.3-3.4-2.3c-2.2,0-3.4,2.3-3.4,2.3c-0.2,0.5-0.8,0.7-1.3,0.4
		c-0.5-0.2-0.7-0.8-0.4-1.3c0.1-0.1,1.8-3.4,5.2-3.4c3.5,0,5.1,3.3,5.2,3.4c0.2,0.5,0,1.1-0.4,1.3C49.2,33.8,49.1,33.8,48.9,33.8z"
		/>
	<g>
		<defs>
			<polygon id="SVGID_3_" points="40.6,54.8 46.9,51.7 49.4,48.4 50.1,44.7 42.3,44.8 21.3,44.8 24.1,51.7 30.7,54.8 			"/>
		</defs>
		<use xlink:href="#SVGID_3_"  overflow="visible" fill="#E95947"/>
		<clipPath id="SVGID_4_">
			<use xlink:href="#SVGID_3_"  overflow="visible"/>
		</clipPath>
		<rect x="11.2" y="37.4" clip-path="url(#SVGID_4_)" fill="#E95947" width="49" height="24.8"/>
	</g>
	<path fill="none" stroke="#FFFFFF" stroke-width="4" stroke-linejoin="round" stroke-miterlimit="10" d="M21.8,45.6
		c0,0,14.5,3.6,28.3,0.1"/>
	<path fill="none" stroke="#000000" stroke-width="2" stroke-linecap="round" stroke-linejoin="round" stroke-miterlimit="10" d="
		M21.4,43.1c0,0,14.8,3.6,28.9,0.1"/>
	<path fill="#FFFFFF" d="M22.3,47.5c0,0,11.1,5.4,27.2,0L45.4,52l-4.2,2l-5.4,1l-3.9-0.5l-3.7-1.2l-4.2-3.2L22.3,47.5z"/>
	<path fill="none" stroke="#000000" stroke-width="2" stroke-linecap="round" stroke-linejoin="round" stroke-miterlimit="10" d="
		M50.5,43.1c0,6.5-4.8,11.7-14.6,11.7c-9.7,0-14.6-5.2-14.6-11.7"/>
	<path fill="none" stroke="#000000" stroke-width="2" stroke-linejoin="round" stroke-miterlimit="10" d="M21.8,47.4
		c0,0,14.5,3.6,28.3,0.1"/>
</g>
</svg>
