<svg version="1.1" id="emoji" xmlns="http://www.w3.org/2000/svg" x="0" y="0" viewBox="0 0 72 72" enable-background="new 0 0 72 72" xml:space="preserve">
  <g id="color">
    <circle fill="#FCEA2B" cx="35.034" cy="36.0508" r="23"/>
    <path fill="#D22F27" d="M25.5332,27.4892c-1.2653-3.3541-6.441-3.5687-6.1168,1.3178c0.0431,0.6485,0.281,1.2724,0.6414,1.8135 l5.3179,6.4224l0,0l5.2212-6.266c0.5796-0.6964,0.9224-1.5779,0.905-2.4853c-0.0863-4.3523-5.0509-4.0351-6.1274-0.8036"/>
    <path fill="#D22F27" d="M44.8352,27.4892c-1.2547-3.3541-6.3873-3.5687-6.0658,1.3178c0.0428,0.6485,0.2787,1.2724,0.6361,1.8135 l5.2737,6.4224l0,0l5.1777-6.266c0.5747-0.6964,0.9147-1.5779,0.8974-2.4853c-0.0856-4.3523-5.0089-4.0351-6.0763-0.8036"/>
    <polygon id="SVGID_3_" fill="#FFFFFF" points="39.1033,52.7772 44.5759,50.1196 46.6917,47.2718 47.3905,43.4227 40.5718,44.1807 22.5575,43.4227 24.9047,50.1195 30.6235,52.7772"/>
  </g>
  <g id="hair"/>
  <g id="skin"/>
  <g id="skin-shadow"/>
  <g id="line">
    <path fill="none" stroke="#000000" stroke-width="2" stroke-linecap="round" stroke-linejoin="round" stroke-miterlimit="10" d="M47.1453,44.5975"/>
    <path fill="none" stroke="#000000" stroke-width="2" stroke-linecap="round" stroke-linejoin="round" stroke-miterlimit="10" d="M22.968,44.5975"/>
    <circle fill="none" stroke="#000000" stroke-width="2" stroke-linecap="round" stroke-linejoin="round" stroke-miterlimit="10" cx="35.034" cy="36.0508" r="23"/>
    <path fill="none" stroke="#000000" stroke-width="2" stroke-linecap="round" stroke-linejoin="round" stroke-miterlimit="10" d="M22.5575,42.7243c0,0,12.7579,3.0979,24.8935,0.0669"/>
    <path fill="none" stroke="#000000" stroke-width="2" stroke-linecap="round" stroke-linejoin="round" stroke-miterlimit="10" d="M47.6199,42.7243c0,5.6296-4.1784,10.1046-12.5541,10.1046c-8.3738,0-12.6069-4.4888-12.6069-10.1047"/>
    <path fill="none" stroke="#000000" stroke-width="2" stroke-linecap="round" stroke-linejoin="round" stroke-miterlimit="10" d="M25.5332,27.4892c-1.2653-3.3541-6.441-3.5687-6.1168,1.3178c0.0431,0.6485,0.281,1.2724,0.6414,1.8135l5.3179,6.4224l0,0 l5.2212-6.266c0.5796-0.6964,0.9224-1.5779,0.905-2.4853c-0.0863-4.3523-5.0509-4.0351-6.1274-0.8036"/>
    <path fill="none" stroke="#000000" stroke-width="2" stroke-linecap="round" stroke-linejoin="round" stroke-miterlimit="10" d="M44.8352,27.4892c-1.2547-3.3541-6.3873-3.5687-6.0658,1.3178c0.0428,0.6485,0.2787,1.2724,0.6361,1.8135l5.2737,6.4224l0,0 l5.1777-6.266c0.5747-0.6964,0.9147-1.5779,0.8974-2.4853c-0.0856-4.3523-5.0089-4.0351-6.0763-0.8036"/>
  </g>
</svg>
