<?xml version="1.0" encoding="utf-8"?>
<!-- Generator: Adobe Illustrator 21.1.0, SVG Export Plug-In . SVG Version: 6.00 Build 0)  -->
<svg version="1.1" id="emoji" xmlns="http://www.w3.org/2000/svg" xmlns:xlink="http://www.w3.org/1999/xlink" x="0px" y="0px"
	 viewBox="0 0 72 72" enable-background="new 0 0 72 72" xml:space="preserve">
<g id="_xD83D__xDE06__1_">
	<g>
		<defs>
			<polygon id="SVGID_1_" points="35.3,9.4 25.2,11.4 19,14.9 13.2,20.9 9.2,29.5 9.2,44 15.8,55 25.2,61.4 35.3,63.4 43.8,62.1 
				52.8,57 58.8,49.7 62.3,38.9 61.5,29.6 57,20.3 52,15.2 43.5,10.7 			"/>
		</defs>
		<use xlink:href="#SVGID_1_"  overflow="visible" fill="#FCEA2B"/>
		<clipPath id="SVGID_2_">
			<use xlink:href="#SVGID_1_"  overflow="visible"/>
		</clipPath>
		<rect x="3.3" y="3.5" clip-path="url(#SVGID_2_)" fill="#FCEA2B" width="64.9" height="65.7"/>
	</g>
	<circle fill="none" stroke="#FBE930" stroke-width="2" stroke-miterlimit="10" cx="35.3" cy="36.4" r="27"/>
	<path fill="none" stroke="#1F201F" stroke-width="2" stroke-linecap="round" stroke-linejoin="round" stroke-miterlimit="10" d="
		M51.8,45.8"/>
	<g>
		<defs>
			<polygon id="SVGID_3_" points="40.9,57 48.3,53.4 51.2,49.5 52,45.2 42.9,45.3 18.3,45.3 21.5,53.4 29.3,57 			"/>
		</defs>
		<use xlink:href="#SVGID_3_"  overflow="visible" fill="#EA5A47"/>
		<clipPath id="SVGID_4_">
			<use xlink:href="#SVGID_3_"  overflow="visible"/>
		</clipPath>
		<rect x="6.4" y="36.5" clip-path="url(#SVGID_4_)" fill="#EA5A47" width="57.5" height="29.2"/>
	</g>
	<path fill="none" stroke="#FFFFFF" stroke-width="4" stroke-linejoin="round" stroke-miterlimit="10" d="M18.9,46.2
		c0,0,17,4.2,33.2,0.1"/>
	<path fill="none" stroke="#000000" stroke-width="2" stroke-linecap="round" stroke-linejoin="round" stroke-miterlimit="10" d="
		M18.3,43.3c0,0,17.4,4.2,33.9,0.1"/>
	<path fill="none" stroke="#000000" stroke-width="2" stroke-linecap="round" stroke-linejoin="round" stroke-miterlimit="10" d="
		M52.5,43.3c0,7.7-5.7,13.8-17.1,13.8c-11.4,0-17.2-6.1-17.2-13.8"/>
	<path fill="none" stroke="#000000" stroke-width="2" stroke-linejoin="round" stroke-miterlimit="10" d="M18.8,48.3
		c0,0,17,4.2,33.2,0.1"/>
	
		<polyline fill="none" stroke="#000000" stroke-width="2" stroke-linecap="round" stroke-linejoin="round" stroke-miterlimit="10" points="
		23,26.3 30.7,31 23,35.4 	"/>
	
		<polyline fill="none" stroke="#000000" stroke-width="2" stroke-linecap="round" stroke-linejoin="round" stroke-miterlimit="10" points="
		48.4,26.3 40.7,31 48.4,35.4 	"/>
	
		<circle fill="none" stroke="#1D1E1C" stroke-width="2" stroke-linecap="round" stroke-linejoin="round" stroke-miterlimit="10" cx="35.3" cy="36.4" r="27"/>
</g>
</svg>
