<svg version="1.1" id="emoji" xmlns="http://www.w3.org/2000/svg" x="0" y="0" viewBox="0 0 72 72" enable-background="new 0 0 72 72" xml:space="preserve">
  <g id="color">
    <polygon id="SVGID_1_" fill="#FCEA2B" points="34.162,12.5056 25.5322,14.1853 20.2324,17.2058 15.3417,22.2849 11.912,29.6355 11.912,41.9753 17.5116,51.3757 25.5322,56.8259 34.162,58.5056 41.3417,57.3552 49.0517,53.0252 54.162,46.866 57.162,37.656 56.412,29.6755 52.6025,21.7654 48.3925,17.4451 41.1425,13.5857"/>
  </g>
  <g id="hair"/>
  <g id="skin"/>
  <g id="skin-shadow"/>
  <g id="line">
    <path fill="none" stroke="#000000" stroke-width="2" stroke-linecap="round" stroke-linejoin="round" stroke-miterlimit="10" d="M34.7481,41.5966c0,0,10.5248,3.1956,0,5.5637c0,0,10.4577,2.9883,0,4.9125"/>
    <path d="M30.1312,33.6991c-0.3672,0-0.7207-0.2032-0.8965-0.5528c-0.0098-0.0195-1.2129-2.3222-3.418-2.3222 c-2.2305,0-3.4062,2.2988-3.418,2.3222c-0.2461,0.4942-0.8457,0.6934-1.3418,0.4473c-0.4941-0.2481-0.6933-0.8477-0.4472-1.3418 c0.0703-0.1406,1.7539-3.4277,5.207-3.4277s5.1367,3.2871,5.207,3.4277c0.2481,0.4941,0.0469,1.0937-0.4472,1.3418 C30.4339,33.6639,30.2796,33.6991,30.1312,33.6991z"/>
    <path d="M47.3812,33.6991c-0.3672,0-0.7207-0.2032-0.8965-0.5528c-0.0098-0.0195-1.2129-2.3222-3.418-2.3222 c-2.2305,0-3.4062,2.2988-3.418,2.3222c-0.2461,0.4942-0.8457,0.6934-1.3418,0.4473c-0.4941-0.2481-0.6933-0.8477-0.4472-1.3418 c0.0703-0.1406,1.7539-3.4277,5.207-3.4277c3.4531,0,5.1367,3.2871,5.207,3.4277c0.2481,0.4941,0.0469,1.0937-0.4472,1.3418 C47.6839,33.6639,47.5296,33.6991,47.3812,33.6991z"/>
    <ellipse fill="none" stroke="#000000" stroke-width="2" stroke-linecap="round" stroke-linejoin="round" stroke-miterlimit="10" cx="34.3329" cy="35.5042" rx="23.0001" ry="23.0001"/>
  </g>
</svg>
