<?xml version="1.0" encoding="utf-8"?>
<!-- Generator: Adobe Illustrator 21.1.0, SVG Export Plug-In . SVG Version: 6.00 Build 0)  -->
<svg version="1.1" id="emoji" xmlns="http://www.w3.org/2000/svg" xmlns:xlink="http://www.w3.org/1999/xlink" x="0px" y="0px"
	 viewBox="0 0 72 72" enable-background="new 0 0 72 72" xml:space="preserve">
<g id="_xD83D__xDE19_">
	<g>
		<defs>
			<polygon id="SVGID_1_" points="35.6,9 25.7,10.9 19.6,14.4 14,20.3 10,28.7 10,43 16.5,53.8 25.7,60.1 35.6,62 43.9,60.7 
				52.8,55.7 58.7,48.6 62.1,38 61.3,28.8 56.9,19.7 52,14.7 43.7,10.3 			"/>
		</defs>
		<use xlink:href="#SVGID_1_"  overflow="visible" fill="#FCEA2B"/>
		<clipPath id="SVGID_2_">
			<use xlink:href="#SVGID_1_"  overflow="visible"/>
		</clipPath>
	</g>
	<path fill="none" stroke="#1F201E" stroke-width="2" stroke-linecap="round" stroke-linejoin="round" stroke-miterlimit="10" d="
		M49.4,46.7"/>
	<path fill="none" stroke="#000000" stroke-width="2" stroke-linecap="round" stroke-linejoin="round" stroke-miterlimit="10" d="
		M36.3,42.5c0,0,12.1,3.7,0,6.4c0,0,12,3.4,0,5.7"/>
	<path d="M31,33.4c-0.4,0-0.8-0.2-1-0.6c0,0-1.4-2.7-3.9-2.7c-2.6,0-3.9,2.6-3.9,2.7c-0.3,0.6-1,0.8-1.5,0.5c-0.6-0.3-0.8-1-0.5-1.5
		c0.1-0.2,2-3.9,6-3.9s5.9,3.8,6,3.9c0.3,0.6,0.1,1.3-0.5,1.5C31.3,33.4,31.2,33.4,31,33.4z"/>
	<path d="M50.9,33.4c-0.4,0-0.8-0.2-1-0.6c0,0-1.4-2.7-3.9-2.7c-2.6,0-3.9,2.6-3.9,2.7c-0.3,0.6-1,0.8-1.5,0.5
		c-0.6-0.3-0.8-1-0.5-1.5c0.1-0.2,2-3.9,6-3.9s5.9,3.8,6,3.9c0.3,0.6,0.1,1.3-0.5,1.5C51.2,33.4,51,33.4,50.9,33.4z"/>
	
		<ellipse transform="matrix(2.335999e-03 -1 1 2.335999e-03 0.2448 71.2565)" fill="none" stroke="#000000" stroke-width="2" stroke-linecap="round" stroke-linejoin="round" stroke-miterlimit="10" cx="35.8" cy="35.5" rx="26.5" ry="26.5"/>
</g>
</svg>
