<svg id="emoji" xmlns="http://www.w3.org/2000/svg" viewBox="0 0 72 72">
  <g id="color">
    <path fill="#fcea2b" d="M36.2002,13.3163c-12.5719,0-22.7998,10.2279-22.7998,22.7998c0,12.5718,10.2279,22.7998,22.7998,22.7998 C48.772,58.9159,59,48.6879,59,36.1161C59,23.5442,48.772,13.3163,36.2002,13.3163z" stroke="none"/>
  </g>
  <g id="hair"/>
  <g id="skin"/>
  <g id="skin-shadow"/>
  <g id="line">
    <circle fill="none" stroke="#000000" stroke-width="2" stroke-miterlimit="10" cx="36" cy="36" r="23"/>
    <line fill="none" stroke="#000000" stroke-width="2" stroke-linecap="round" stroke-linejoin="round" stroke-miterlimit="10" x1="27" y1="46" x2="45" y2="46"/>
    <path fill="none" stroke="#000000" stroke-width="2" stroke-linecap="round" stroke-linejoin="round" stroke-miterlimit="10" d="M23,33.0774c0.4132,0.344,2.2456,1.7915,4.9091,1.6364c2.1608-0.1259,3.61-1.2333,4.0909-1.6364"/>
    <path fill="none" stroke="#000000" stroke-width="2" stroke-linecap="round" stroke-linejoin="round" stroke-miterlimit="10" d="M41,33.0774c0.4132,0.344,2.2456,1.7915,4.9091,1.6364c2.1608-0.1259,3.61-1.2333,4.0909-1.6364"/>
    <path fill="none" stroke="#000000" stroke-width="2" stroke-linecap="round" stroke-linejoin="round" stroke-miterlimit="10" d="M19.9385,27.2501c0.4872,0.2275,2.6277,1.1608,5.1639,0.3327c2.0576-0.6718,3.1771-2.1117,3.5396-2.6239"/>
    <path fill="none" stroke="#000000" stroke-width="2" stroke-linecap="round" stroke-linejoin="round" stroke-miterlimit="10" d="M52.642,27.2501c-0.4872,0.2275-2.6277,1.1608-5.1639,0.3327c-2.0576-0.6718-3.1771-2.1117-3.5396-2.6239"/>
  </g>
</svg>
