<svg id="emoji" xmlns="http://www.w3.org/2000/svg" viewBox="0 0 72 72">
  <g id="color">
    <path fill="#fcea2b" d="M36.2002,13.3163c-12.5719,0-22.7998,10.2279-22.7998,22.7998c0,12.5718,10.2279,22.7998,22.7998,22.7998 C48.772,58.9159,59,48.6879,59,36.1161C59,23.5442,48.772,13.3163,36.2002,13.3163z" stroke="none"/>
    <path fill="#FFFFFF" d="M41.7481,46.5925c2.018-1.0892,3.6277-2.7511,4.4969-4.7746c-1.9847,0.9853-6.1585,1.5931-10.5745,1.5426 c-4.0546-0.0464-7.7116-0.6408-9.5171-1.5426h-0.2385c0.939,2.1647,2.7178,3.8986,4.9168,4.9729" stroke="none"/>
    <path fill="#ea5a47" d="M41.6571,42.818c0,6.0751-2.5324,11-5.6562,11c-3.1239,0-5.6563-4.9249-5.6563-11" stroke="none"/>
  </g>
  <g id="hair"/>
  <g id="skin"/>
  <g id="skin-shadow"/>
  <g id="line">
    <circle fill="none" stroke="#000000" stroke-width="2" stroke-miterlimit="10" cx="36" cy="36" r="23"/>
    <path fill="none" stroke="#000000" stroke-width="2" stroke-linecap="round" stroke-linejoin="round" stroke-miterlimit="10" d="M24,27c2.3334,1.3333,4.6666,2.6667,7,4c-2.3334,1.3333-4.6666,2.6667-7,4"/>
    <path fill="none" stroke="#000000" stroke-width="2" stroke-linecap="round" stroke-linejoin="round" stroke-miterlimit="10" d="M48,27c-2.3334,1.3333-4.6666,2.6667-7,4c2.3334,1.3333,4.6666,2.6667,7,4"/>
    <path fill="none" stroke="#000000" stroke-width="2" stroke-linecap="round" stroke-linejoin="round" stroke-miterlimit="10" d="M30.8317,46.7908c-2.199-1.0742-3.9778-2.8081-4.9168-4.9729 M30.8317,46.7908 M41.1803,46.8788 M41.7481,46.5925 M46.245,41.818 c-0.8692,2.0234-2.4789,3.6854-4.4969,4.7746 M26.1534,41.818c1.8055,0.9018,5.4625,1.4962,9.5171,1.5426 c4.4161,0.0505,8.5899-0.5572,10.5745-1.5426"/>
    <path fill="none" stroke="#000000" stroke-width="2" stroke-linejoin="round" stroke-miterlimit="10" d="M41.7397,42.818 c0,6.0751-2.5324,11-5.6562,11s-5.6563-4.9249-5.6563-11"/>
  </g>
</svg>
