<?xml version="1.0" encoding="utf-8"?>
<!-- Generator: Adobe Illustrator 21.1.0, SVG Export Plug-In . SVG Version: 6.00 Build 0)  -->
<svg version="1.1" id="emoji" xmlns="http://www.w3.org/2000/svg" xmlns:xlink="http://www.w3.org/1999/xlink" x="0px" y="0px"
	 viewBox="0 0 72 72" enable-background="new 0 0 72 72" xml:space="preserve">
<g id="_xD83D__xDE19_">
	<g>
		<defs>
			<polygon id="SVGID_1_" points="34.2,12.5 25.5,14.2 20.2,17.2 15.3,22.3 11.9,29.6 11.9,42 17.5,51.4 25.5,56.8 34.2,58.5 
				41.3,57.4 49.1,53 54.2,46.9 57.2,37.7 56.4,29.7 52.6,21.8 48.4,17.4 41.1,13.6 			"/>
		</defs>
		<use xlink:href="#SVGID_1_"  overflow="visible" fill="#FCEA2B"/>
		<clipPath id="SVGID_2_">
			<use xlink:href="#SVGID_1_"  overflow="visible"/>
		</clipPath>
	</g>
	<path fill="none" stroke="#1F201E" stroke-width="2" stroke-linecap="round" stroke-linejoin="round" stroke-miterlimit="10" d="
		M46.1,45.2"/>
	<path fill="none" stroke="#000000" stroke-width="2" stroke-linecap="round" stroke-linejoin="round" stroke-miterlimit="10" d="
		M34.7,41.6c0,0,10.5,3.2,0,5.6c0,0,10.5,3,0,4.9"/>
	<path d="M30.1,33.7c-0.4,0-0.7-0.2-0.9-0.6c0,0-1.2-2.3-3.4-2.3c-2.2,0-3.4,2.3-3.4,2.3c-0.2,0.5-0.8,0.7-1.3,0.4
		c-0.5-0.2-0.7-0.8-0.4-1.3c0.1-0.1,1.8-3.4,5.2-3.4s5.1,3.3,5.2,3.4c0.2,0.5,0,1.1-0.4,1.3C30.4,33.7,30.3,33.7,30.1,33.7z"/>
	<path d="M47.4,33.7c-0.4,0-0.7-0.2-0.9-0.6c0,0-1.2-2.3-3.4-2.3c-2.2,0-3.4,2.3-3.4,2.3c-0.2,0.5-0.8,0.7-1.3,0.4
		c-0.5-0.2-0.7-0.8-0.4-1.3c0.1-0.1,1.8-3.4,5.2-3.4c3.5,0,5.1,3.3,5.2,3.4c0.2,0.5,0,1.1-0.4,1.3C47.7,33.7,47.5,33.7,47.4,33.7z"
		/>
	
		<ellipse transform="matrix(2.335999e-03 -1 1 2.335999e-03 -1.2517 69.7565)" fill="none" stroke="#000000" stroke-width="2" stroke-linecap="round" stroke-linejoin="round" stroke-miterlimit="10" cx="34.3" cy="35.5" rx="23" ry="23"/>
</g>
</svg>
