<?xml version="1.0" encoding="utf-8"?>
<!-- Generator: Adobe Illustrator 21.1.0, SVG Export Plug-In . SVG Version: 6.00 Build 0)  -->
<svg version="1.1" id="emoji" xmlns="http://www.w3.org/2000/svg" xmlns:xlink="http://www.w3.org/1999/xlink" x="0px" y="0px"
	 viewBox="0 0 72 72" enable-background="new 0 0 72 72" xml:space="preserve">
<g id="_xD83D__xDE13__1_">
	<path fill="#FBEA2E" d="M37.2,14.3c-1.9,0-3.9-1.1-5.7-0.7c-8.4,1.8-13,6.7-15.9,12.6c-1.5,3.1-1.2,7.2-1.2,10.9
		c0,12.6,10.2,22.8,22.8,22.8C49.8,59.9,60,49.7,60,37.1C60,24.5,49.8,14.3,37.2,14.3z"/>
	<path fill="#90D1F3" d="M23.8,12c-1.9,2-4.6,5.3-4.9,9.6c-0.2,2.7,2,5.3,4.7,5.5c2.8,0.2,5.3-1.9,5.5-4.7l0,0
		C29.5,18,26,14,23.8,12z"/>
	<path fill="none" stroke="#010101" stroke-width="2" stroke-miterlimit="10" d="M20.6,25c-1-1-1.5-2.2-1.5-3.6
		c0-4.5,4.2-8.7,4.4-8.9c0.4-0.4,1-0.4,1.3,0c0.2,0.2,4.4,4.4,4.4,8.9l0,0c0,2.8-2.3,5.1-5.1,5.1C22.8,26.5,21.5,26,20.6,25z"/>
	<path fill="none" stroke="#010101" stroke-width="2" stroke-linecap="round" stroke-linejoin="round" stroke-miterlimit="10" d="
		M29,47c1.6-2.6,4.9-4.1,8.4-4c3.2,0.1,6.1,1.7,7.6,4"/>
	<path fill="none" stroke="#010101" stroke-width="2" stroke-linecap="round" stroke-linejoin="round" stroke-miterlimit="10" d="
		M41,33.7c0.4-0.3,2.2-1.8,4.9-1.6c2.2,0.1,3.6,1.2,4.1,1.6"/>
	<path fill="none" stroke="#010101" stroke-width="2" stroke-linecap="round" stroke-linejoin="round" stroke-miterlimit="10" d="
		M23,33.7c0.4-0.3,2.2-1.8,4.9-1.6c2.2,0.1,3.6,1.2,4.1,1.6"/>
	<path fill="none" stroke="#010101" stroke-width="2" stroke-linecap="round" stroke-linejoin="round" stroke-miterlimit="10" d="
		M31.6,14.6c1-0.2,2.4-0.5,3.9-0.6C44,13.7,59,20.7,60,35.5c0.8,12.7-8.8,23.6-21.5,24.4C25.8,60.8,14.9,51.2,14,38.5
		c-0.3-5.3,1.3-9.6,2.4-11.9"/>
</g>
</svg>
