<?xml version="1.0" encoding="utf-8"?>
<!-- Generator: Adobe Illustrator 21.1.0, SVG Export Plug-In . SVG Version: 6.00 Build 0)  -->
<svg version="1.1" id="emoji" xmlns="http://www.w3.org/2000/svg" xmlns:xlink="http://www.w3.org/1999/xlink" x="0px" y="0px"
	 viewBox="0 0 72 72" enable-background="new 0 0 72 72" xml:space="preserve">
<g id="_xD83D__xDE18__1_">
	<g>
		<defs>
			<polygon id="SVGID_1_" points="35.5,9 25.4,11 19.1,14.6 13.4,20.5 9.4,29.2 9.4,43.6 15.9,54.7 25.4,61.1 35.5,63.1 43.9,61.7 
				53,56.6 59,49.4 62.5,38.6 61.6,29.2 57.1,19.9 52.2,14.8 43.7,10.3 			"/>
		</defs>
		<use xlink:href="#SVGID_1_"  overflow="visible" fill="#FCEA2B"/>
		<clipPath id="SVGID_2_">
			<use xlink:href="#SVGID_1_"  overflow="visible"/>
		</clipPath>
	</g>
	<path fill="none" stroke="#1F201E" stroke-width="2" stroke-linecap="round" stroke-linejoin="round" stroke-miterlimit="10" d="
		M49.5,47.4"/>
	<path fill="none" stroke="#000000" stroke-width="2" stroke-linecap="round" stroke-linejoin="round" stroke-miterlimit="10" d="
		M17.6,29c0.5-1.8,1.6-3.3,3.1-4.3c1.4-1.2,3.3-1.7,5.1-1.6"/>
	<path fill="none" stroke="#000000" stroke-width="2" stroke-linecap="round" stroke-linejoin="round" stroke-miterlimit="10" d="
		M53.4,30.3c-2.7-2.6-6.8-3.2-10-1.4"/>
	<path fill="none" stroke="#000000" stroke-width="2" stroke-linecap="round" stroke-linejoin="round" stroke-miterlimit="10" d="
		M48.7,35.9c-0.9-0.6-2.1-1.1-3.4-1.1c-1.3,0-2.5,0.4-3.7,0.9"/>
	<circle fill="none" stroke="#FCEA2B" stroke-width="2" stroke-miterlimit="10" cx="36.1" cy="36.5" r="26.5"/>
	<path fill="none" stroke="#000000" stroke-width="2" stroke-linecap="round" stroke-linejoin="round" stroke-miterlimit="10" d="
		M62,42.3c0.5-2,0.7-4.1,0.7-6.3c0-14.9-12.1-27-27-27c-14.9,0-27,12.1-27,27c0,14.9,12.1,27,27,27c4.3,0,8.3-1,11.9-2.7"/>
	<circle cx="26.3" cy="35.2" r="3"/>
	<path fill="none" stroke="#000000" stroke-width="2" stroke-linecap="round" stroke-linejoin="round" stroke-miterlimit="10" d="
		M36.2,43.2c0,0,12.4,3.8,0,6.5c0,0,12.3,3.5,0,5.8"/>
	<path fill="#D22F27" d="M53.7,45.4c-1.9-0.6-3.9,0.5-4.5,2.4c-0.2,0.6-0.2,1.3,0,1.9l0.1,0.4l3.8,9.7l8.6-6.1
		c0.6-0.5,1.1-1.1,1.3-1.8c0.6-1.9-0.5-3.9-2.4-4.5c-1.3-0.4-2.8,0-3.7,1c-0.1,0.1-0.2,0.1-0.3,0.1c-0.1,0-0.2-0.1-0.2-0.3
		C56,46.9,55,45.8,53.7,45.4z"/>
	<path fill="none" stroke="#000000" stroke-miterlimit="10" d="M52.8,60.7c-0.1,0-0.2-0.1-0.2-0.2l-4-10.1L48.6,50
		c-0.2-0.8-0.2-1.6,0-2.3c0.7-2.2,3-3.5,5.3-2.9c1.4,0.4,2.4,1.5,2.8,2.8c1.1-0.9,2.5-1.2,3.9-0.8c2.2,0.7,3.5,3,2.9,5.3
		c-0.3,0.9-0.8,1.6-1.5,2.2l-8.9,6.3C53,60.7,52.9,60.7,52.8,60.7z M53.7,45.4c-1.9-0.6-3.9,0.5-4.5,2.4c-0.2,0.6-0.2,1.3,0,1.9
		l0.1,0.4l3.8,9.7l8.6-6.1c0.6-0.5,1.1-1.1,1.3-1.8c0.6-1.9-0.5-3.9-2.4-4.5c-1.3-0.4-2.8,0-3.7,1c-0.1,0.1-0.2,0.1-0.3,0.1
		c-0.1,0-0.2-0.1-0.2-0.3C56,46.9,55,45.8,53.7,45.4z"/>
</g>
</svg>
