<svg id="emoji" xmlns="http://www.w3.org/2000/svg" viewBox="0 0 72 72">
  <g id="color">
    <path fill="#fcea2b" d="M36.2002,13.3163c-12.5719,0-22.7998,10.2279-22.7998,22.7998c0,12.5718,10.2279,22.7998,22.7998,22.7998 C48.772,58.9159,59,48.6879,59,36.1161C59,23.5442,48.772,13.3163,36.2002,13.3163z" stroke="none"/>
    <path fill="#FFFFFF" d="M41.7481,45.5925c2.018-1.0892,3.6277-2.7511,4.4969-4.7746c-1.9847,0.9853-6.1585,1.5931-10.5745,1.5426 c-4.0546-0.0464-7.7116-0.6408-9.5171-1.5426h-0.2385c0.939,2.1647,2.7178,3.8986,4.9168,4.9729" stroke="none"/>
    <path fill="#ea5a47" d="M41.6571,41.818c0,6.0751-2.5324,11-5.6562,11c-3.1239,0-5.6563-4.9249-5.6563-11" stroke="none"/>
  </g>
  <g id="hair"/>
  <g id="skin"/>
  <g id="skin-shadow"/>
  <g id="line">
    <circle fill="none" stroke="#000000" stroke-width="2" stroke-miterlimit="10" cx="36" cy="36" r="23"/>
    <path fill="#000000" d="M30.3173,30.9252c0,1.6568-1.3448,3-3,3c-1.6553,0-3-1.3433-3-3c0-1.6552,1.3447-3,3-3 C28.9725,27.9252,30.3173,29.27,30.3173,30.9252" stroke="none"/>
    <path fill="none" stroke="#000000" stroke-width="2" stroke-linecap="round" stroke-linejoin="round" stroke-miterlimit="10" d="M40,31.7253c0.4132-0.344,2.2456-1.7915,4.9091-1.6364c2.1608,0.1259,3.61,1.2333,4.0909,1.6364"/>
    <path fill="none" stroke="#000000" stroke-width="2" stroke-linecap="round" stroke-linejoin="round" stroke-miterlimit="10" d="M30.8317,45.7908c-2.199-1.0742-3.9778-2.8081-4.9168-4.9729 M30.8317,45.7908 M41.1803,45.8788 M41.7481,45.5925 M46.245,40.818 c-0.8692,2.0234-2.4789,3.6854-4.4969,4.7746 M26.1534,40.818c1.8055,0.9018,5.4625,1.4962,9.5171,1.5426 c4.4161,0.0505,8.5899-0.5572,10.5745-1.5426"/>
    <path fill="none" stroke="#000000" stroke-width="2" stroke-miterlimit="10" d="M41.7397,41.818c0,6.0751-2.5324,11-5.6562,11 s-5.6563-4.9249-5.6563-11"/>
  </g>
</svg>
