<?xml version="1.0" encoding="utf-8"?>
<!-- Generator: Adobe Illustrator 21.1.0, SVG Export Plug-In . SVG Version: 6.00 Build 0)  -->
<svg version="1.1" id="emoji" xmlns="http://www.w3.org/2000/svg" xmlns:xlink="http://www.w3.org/1999/xlink" x="0px" y="0px"
	 viewBox="0 0 72 72" enable-background="new 0 0 72 72" xml:space="preserve">
<g id="_xD83D__xDE14__1_">
	<path fill="#FBEA2E" d="M36.2,13.3c-12.6,0-22.8,10.2-22.8,22.8c0,12.6,10.2,22.8,22.8,22.8C48.8,58.9,59,48.7,59,36.1
		C59,23.5,48.8,13.3,36.2,13.3z"/>
	<circle fill="none" stroke="#010101" stroke-width="2" stroke-miterlimit="10" cx="36" cy="36" r="23"/>
	
		<line fill="none" stroke="#010101" stroke-width="2" stroke-linecap="round" stroke-linejoin="round" stroke-miterlimit="10" x1="27" y1="46" x2="45" y2="46"/>
	<path fill="none" stroke="#010101" stroke-width="2" stroke-linecap="round" stroke-linejoin="round" stroke-miterlimit="10" d="
		M23,33.1c0.4,0.3,2.2,1.8,4.9,1.6c2.2-0.1,3.6-1.2,4.1-1.6"/>
	<path fill="none" stroke="#010101" stroke-width="2" stroke-linecap="round" stroke-linejoin="round" stroke-miterlimit="10" d="
		M41,33.1c0.4,0.3,2.2,1.8,4.9,1.6c2.2-0.1,3.6-1.2,4.1-1.6"/>
	<path fill="none" stroke="#010101" stroke-width="2" stroke-linecap="round" stroke-linejoin="round" stroke-miterlimit="10" d="
		M19.9,27.3c0.5,0.2,2.6,1.2,5.2,0.3c2.1-0.7,3.2-2.1,3.5-2.6"/>
	<path fill="none" stroke="#010101" stroke-width="2" stroke-linecap="round" stroke-linejoin="round" stroke-miterlimit="10" d="
		M52.6,27.3c-0.5,0.2-2.6,1.2-5.2,0.3c-2.1-0.7-3.2-2.1-3.5-2.6"/>
</g>
</svg>
