<svg id="emoji" xmlns="http://www.w3.org/2000/svg" viewBox="0 0 72 72">
  <g id="color">
    <path fill="#fcea2b" d="M36,13.1161c-12.6823,0-23,10.3177-23,23c0,12.6822,10.3177,23,23,23c12.6822,0,23-10.3178,23-23 C59,23.4338,48.6822,13.1161,36,13.1161z" stroke="none"/>
  </g>
  <g id="hair"/>
  <g id="skin"/>
  <g id="skin-shadow"/>
  <g id="line">
    <circle fill="none" stroke="#000000" stroke-width="2" stroke-miterlimit="10" cx="36" cy="36" r="23"/>
    <path fill="#000000" d="M30.3173,30.9252c0,1.6568-1.3448,3-3,3c-1.6553,0-3-1.3433-3-3c0-1.6552,1.3447-3,3-3 C28.9725,27.9252,30.3173,29.27,30.3173,30.9252" stroke="none"/>
    <path fill="#000000" d="M48.3173,30.9252c0,1.6568-1.3447,3-3,3s-3-1.3433-3-3c0-1.6552,1.3447-3,3-3 S48.3173,29.27,48.3173,30.9252" stroke="none"/>
    <path fill="none" stroke="#000000" stroke-width="2" stroke-linecap="round" stroke-linejoin="round" stroke-miterlimit="10" d="M27,44.1262c1.8768-1.5425,5.8239-2.494,10-2.4149c3.8343,0.0726,7.2926,1.0032,9,2.4149"/>
    <path fill="none" stroke="#000000" stroke-width="2" stroke-linecap="round" stroke-linejoin="round" stroke-miterlimit="10" d="M22,27c1.1854-2.4206,3-5,9-4"/>
    <path fill="none" stroke="#000000" stroke-width="2" stroke-linecap="round" stroke-linejoin="round" stroke-miterlimit="10" d="M51,27c-1.1854-2.4206-3-5-9-4"/>
  </g>
</svg>
