<?xml version="1.0" encoding="utf-8"?>
<!-- Generator: Adobe Illustrator 21.1.0, SVG Export Plug-In . SVG Version: 6.00 Build 0)  -->
<svg version="1.1" id="emoji" xmlns="http://www.w3.org/2000/svg" xmlns:xlink="http://www.w3.org/1999/xlink" x="0px" y="0px"
	 viewBox="0 0 72 72" enable-background="new 0 0 72 72" xml:space="preserve">
<g id="_xD83D__xDE2B__1_">
	<path fill="#FBEA2E" d="M37.2,13.3c-12.6,0-22.8,10.2-22.8,22.8c0,12.6,10.2,22.8,22.8,22.8C49.8,58.9,60,48.7,60,36.1
		C60,23.5,49.8,13.3,37.2,13.3z"/>
	<circle fill="none" stroke="#010101" stroke-width="2" stroke-miterlimit="10" cx="37" cy="36" r="23"/>
	<path fill="#FFFFFF" d="M32.8,31.5c0,2.5-2,4.5-4.5,4.5s-4.5-2-4.5-4.5c0-2.5,2-4.5,4.5-4.5S32.8,29,32.8,31.5"/>
	<path fill="none" stroke="#010101" stroke-width="2" stroke-miterlimit="10" d="M32.8,31.5c0,2.5-2,4.5-4.5,4.5s-4.5-2-4.5-4.5
		c0-2.5,2-4.5,4.5-4.5S32.8,29,32.8,31.5"/>
	<path fill="#010101" d="M30.3,31.9c0,1.1-0.9,2-2,2c-1.1,0-2-0.9-2-2c0-1.1,0.9-2,2-2C29.4,29.9,30.3,30.8,30.3,31.9"/>
	<path fill="#FFFFFF" d="M50.8,31.5c0,2.5-2,4.5-4.5,4.5c-2.5,0-4.5-2-4.5-4.5c0-2.5,2-4.5,4.5-4.5C48.8,27,50.8,29,50.8,31.5"/>
	<path fill="none" stroke="#010101" stroke-width="2" stroke-miterlimit="10" d="M50.8,31.5c0,2.5-2,4.5-4.5,4.5
		c-2.5,0-4.5-2-4.5-4.5c0-2.5,2-4.5,4.5-4.5C48.8,27,50.8,29,50.8,31.5"/>
	<path fill="#010101" d="M48.3,31.9c0,1.1-0.9,2-2,2c-1.1,0-2-0.9-2-2c0-1.1,0.9-2,2-2C47.4,29.9,48.3,30.8,48.3,31.9"/>
	<path fill="#010101" d="M23.9,31c0-2.5,2-4.5,4.5-4.5s4.5,2,4.5,4.5"/>
	<path fill="#010101" d="M32.8,31"/>
	<path fill="#010101" d="M41.9,31c0-2.5,2-4.5,4.5-4.5c2.5,0,4.5,2,4.5,4.5"/>
	<path fill="none" stroke="#010101" stroke-width="2" stroke-linecap="round" stroke-linejoin="round" stroke-miterlimit="10" d="
		M30,43c1.3-0.6,4-1,6.8-1c2.6,0,5,0.4,6.2,1"/>
</g>
</svg>
