<?xml version="1.0" encoding="utf-8"?>
<!-- Generator: Adobe Illustrator 21.1.0, SVG Export Plug-In . SVG Version: 6.00 Build 0)  -->
<svg version="1.1" id="emoji" xmlns="http://www.w3.org/2000/svg" xmlns:xlink="http://www.w3.org/1999/xlink" x="0px" y="0px"
	 viewBox="0 0 72 72" enable-background="new 0 0 72 72" xml:space="preserve">
<g id="_xD83D__xDE29_">
	<path fill="#FBEA2E" d="M37.2,14.3c-12.6,0-22.8,10.2-22.8,22.8c0,12.6,10.2,22.8,22.8,22.8C49.8,59.9,60,49.7,60,37.1
		C60,24.5,49.8,14.3,37.2,14.3z"/>
	<path fill="#FFFFFF" d="M32.8,33.5c0,2.5-2,4.5-4.5,4.5s-4.5-2-4.5-4.5c0-2.5,2-4.5,4.5-4.5S32.8,31,32.8,33.5"/>
	<path fill="none" stroke="#010101" stroke-width="2" stroke-miterlimit="10" d="M32.8,33.5c0,2.5-2,4.5-4.5,4.5s-4.5-2-4.5-4.5
		c0-2.5,2-4.5,4.5-4.5S32.8,31,32.8,33.5"/>
	<path fill="#010101" d="M30.3,33.9c0,1.1-0.9,2-2,2c-1.1,0-2-0.9-2-2c0-1.1,0.9-2,2-2C29.4,31.9,30.3,32.8,30.3,33.9"/>
	<path fill="#FFFFFF" d="M50.8,33.5c0,2.5-2,4.5-4.5,4.5c-2.5,0-4.5-2-4.5-4.5c0-2.5,2-4.5,4.5-4.5C48.8,29,50.8,31,50.8,33.5"/>
	<path fill="none" stroke="#010101" stroke-width="2" stroke-miterlimit="10" d="M50.8,33.5c0,2.5-2,4.5-4.5,4.5
		c-2.5,0-4.5-2-4.5-4.5c0-2.5,2-4.5,4.5-4.5C48.8,29,50.8,31,50.8,33.5"/>
	<path fill="#010101" d="M48.3,33.9c0,1.1-0.9,2-2,2c-1.1,0-2-0.9-2-2c0-1.1,0.9-2,2-2C47.4,31.9,48.3,32.8,48.3,33.9"/>
	<path fill="#010101" d="M23.9,33c0-2.5,2-4.5,4.5-4.5s4.5,2,4.5,4.5"/>
	<path fill="#010101" d="M32.8,33"/>
	<path fill="#010101" d="M41.9,33c0-2.5,2-4.5,4.5-4.5c2.5,0,4.5,2,4.5,4.5"/>
	<path fill="#010101" d="M50.8,33"/>
	<path fill="none" stroke="#010101" stroke-width="2" stroke-linecap="round" stroke-linejoin="round" stroke-miterlimit="10" d="
		M29,48c1.6-2.6,4.9-4.1,8.4-4c3.2,0.1,6.1,1.7,7.6,4"/>
	<path fill="#90D1F3" d="M25,11c-1.9,2-4.7,5.3-5.1,9.7c-0.2,2.7,2,5.3,4.7,5.5c2.8,0.2,5.3-1.9,5.5-4.7l0,0
		C30.5,17,26.6,13.2,25,11z"/>
	<path fill="none" stroke="#010101" stroke-width="2" stroke-miterlimit="10" d="M21.6,24.1c-1-1-1.5-2.2-1.5-3.6
		c0-4.5,4.2-8.7,4.4-8.9c0.4-0.4,1-0.4,1.3,0c0.2,0.2,4.4,4.4,4.4,8.9l0,0c0,2.8-2.3,5.1-5.1,5.1C23.8,25.5,22.5,25,21.6,24.1z"/>
	<path fill="none" stroke="#010101" stroke-width="2" stroke-linecap="round" stroke-linejoin="round" stroke-miterlimit="10" d="
		M33.1,14.3c1-0.2,2.5-0.4,3.9-0.3c8.5,0.2,23,8.1,23,23c0,12.7-10.3,23-23,23S14,49.7,14,37c0-5.3,1.9-9.5,3.2-11.7"/>
</g>
</svg>
