<svg id="emoji" xmlns="http://www.w3.org/2000/svg" viewBox="0 0 72 72">
  <g id="color">
    <path fill="#fcea2b" d="M36.2002,13.3163c-12.5719,0-22.7998,10.2279-22.7998,22.7998c0,12.5718,10.2279,22.7998,22.7998,22.7998 C48.772,58.9159,59,48.6879,59,36.1161C59,23.5442,48.772,13.3163,36.2002,13.3163z" stroke="none"/>
    <path fill="#FFFFFF" d="M28,51c0.2704-0.3562,3.3099-8.2177,8.4211-8.0038C41.0265,43.1889,43.6499,50.5372,44,51 C38.6667,51,33.3333,51,28,51z" stroke="none"/>
  </g>
  <g id="hair"/>
  <g id="skin"/>
  <g id="skin-shadow"/>
  <g id="line">
    <circle fill="none" stroke="#000000" stroke-width="2" stroke-miterlimit="10" cx="36" cy="36" r="23"/>
    <line fill="none" stroke="#000000" stroke-width="2" stroke-linecap="round" stroke-linejoin="round" stroke-miterlimit="10" x1="44.5361" y1="21.4389" x2="50.9214" y2="24.7158"/>
    <line fill="none" stroke="#000000" stroke-width="2" stroke-linecap="round" stroke-linejoin="round" stroke-miterlimit="10" x1="26.9214" y1="21.4389" x2="20.5361" y2="24.7158"/>
    <path fill="none" stroke="#000000" stroke-width="2" stroke-linecap="round" stroke-linejoin="round" stroke-miterlimit="10" d="M24,28c2.3334,1.3333,4.6666,2.6667,7,4c-2.3334,1.3333-4.6666,2.6667-7,4"/>
    <path fill="none" stroke="#000000" stroke-width="2" stroke-linecap="round" stroke-linejoin="round" stroke-miterlimit="10" d="M48,28c-2.3334,1.3333-4.6666,2.6667-7,4c2.3334,1.3333,4.6666,2.6667,7,4"/>
    <path fill="none" stroke="#000000" stroke-width="2" stroke-linecap="round" stroke-linejoin="round" stroke-miterlimit="10" d="M28,51c0.2704-0.3562,1-8,8.4211-8.0038C43,42.9929,43.6499,50.5372,44,51C38.6667,51,33.3333,51,28,51z"/>
  </g>
</svg>
