<?xml version="1.0" encoding="utf-8"?>
<!-- Generator: Adobe Illustrator 21.1.0, SVG Export Plug-In . SVG Version: 6.00 Build 0)  -->
<svg version="1.1" id="emoji" xmlns="http://www.w3.org/2000/svg" xmlns:xlink="http://www.w3.org/1999/xlink" x="0px" y="0px"
	 viewBox="0 0 72 72" enable-background="new 0 0 72 72" xml:space="preserve">
<g id="_xD83D__xDE3F__1_">
	<path fill="none" stroke="#1D1D1B" stroke-width="2" stroke-linecap="round" stroke-linejoin="round" stroke-miterlimit="10" d="
		M64,56.1"/>
	<path fill="#F4AA41" d="M58.7,49.7C55.1,58.8,46,64.9,35.5,64.9c-9.1,0-19.3-5.8-22.9-15l-0.1-0.3c-1.1-2.9-2-6.4-2-9.6l3.7-33.4
		l11.2,11.1c2.9-1.2,6.1-1.9,9.5-1.9H36c3.4,0,6.6,0.7,9.5,1.9L56.7,6.6l3.7,33.9C60.5,43.7,59.8,46.8,58.7,49.7"/>
	<path fill="#E27022" d="M35.5,64.9c10.6,0.3,20.4-6,24-15.1l0.1-0.2c1.1-2.9,2-6.9,2-10.2L56.7,6.6"/>
	
		<line fill="none" stroke="#000000" stroke-width="2" stroke-linecap="round" stroke-linejoin="round" stroke-miterlimit="10" x1="40.2" y1="53.4" x2="36" y2="48.2"/>
	
		<line fill="none" stroke="#000000" stroke-width="2" stroke-linecap="round" stroke-linejoin="round" stroke-miterlimit="10" x1="31.8" y1="53.4" x2="36" y2="48.2"/>
	
		<path fill="#FFFFFF" stroke="#000000" stroke-width="2" stroke-linecap="round" stroke-linejoin="round" stroke-miterlimit="10" d="
		M55.1,34.4c0,0-9.3-9.3-13.3,6.6C52.5,49,55.1,34.4,55.1,34.4z"/>
	
		<line fill="none" stroke="#000000" stroke-width="2" stroke-linecap="round" stroke-linejoin="round" stroke-miterlimit="10" x1="62" y1="54.8" x2="52.6" y2="49.6"/>
	<path fill="none" stroke="#1D1D1B" stroke-width="2" stroke-linecap="round" stroke-linejoin="round" stroke-miterlimit="10" d="
		M52.6,47.6"/>
	<path fill="none" stroke="#1D1D1B" stroke-width="2" stroke-linecap="round" stroke-linejoin="round" stroke-miterlimit="10" d="
		M10,52.8"/>
	
		<line fill="none" stroke="#000000" stroke-width="2" stroke-linecap="round" stroke-linejoin="round" stroke-miterlimit="10" x1="57.8" y1="60" x2="48.5" y2="54.8"/>
	<path fill="none" stroke="#1D1D1B" stroke-width="2" stroke-linecap="round" stroke-linejoin="round" stroke-miterlimit="10" d="
		M46.4,55.9"/>
	<path fill="none" stroke="#1D1D1B" stroke-width="2" stroke-linecap="round" stroke-linejoin="round" stroke-miterlimit="10" d="
		M55.8,61.1"/>
	<path fill="none" stroke="#000000" stroke-width="2" stroke-linecap="round" stroke-linejoin="round" stroke-miterlimit="10" d="
		M13.3,48.7c-1.1-2.8-1.7-5.8-1.7-9L15.2,7l11,10.7c2.9-1.2,6-1.9,9.3-1.9h1c3.3,0,6.4,0.7,9.3,1.9L56.8,7l3.6,32.8
		c0,3.2-0.6,6.2-1.7,9"/>
	<path fill="none" stroke="#000000" stroke-width="2" stroke-linecap="round" stroke-linejoin="round" stroke-miterlimit="10" d="
		M27,62.4c2.6,1,5.5,1.5,8.5,1.5h1c4.6,0,9-1.3,12.7-3.6"/>
	
		<path fill="#FFFFFF" stroke="#000000" stroke-width="2" stroke-linecap="round" stroke-linejoin="round" stroke-miterlimit="10" d="
		M16.9,34.4c0,0,9.3-9.3,13.3,6.6C19.5,49,16.9,34.4,16.9,34.4z"/>
	
		<line fill="none" stroke="#000000" stroke-width="2" stroke-linecap="round" stroke-linejoin="round" stroke-miterlimit="10" x1="31.8" y1="47.6" x2="40.2" y2="47.6"/>
	
		<line fill="none" stroke="#000000" stroke-width="2" stroke-linecap="round" stroke-linejoin="round" stroke-miterlimit="10" x1="10" y1="54.8" x2="19.4" y2="49.6"/>
	<path fill="none" stroke="#1D1D1B" stroke-width="2" stroke-linecap="round" stroke-linejoin="round" stroke-miterlimit="10" d="
		M19.4,47.6"/>
	<path fill="none" stroke="#1D1D1B" stroke-width="2" stroke-linecap="round" stroke-linejoin="round" stroke-miterlimit="10" d="
		M10,52.8"/>
	
		<line fill="none" stroke="#000000" stroke-width="2" stroke-linecap="round" stroke-linejoin="round" stroke-miterlimit="10" x1="14.2" y1="60" x2="23.5" y2="54.8"/>
	<path fill="none" stroke="#1D1D1B" stroke-width="2" stroke-linecap="round" stroke-linejoin="round" stroke-miterlimit="10" d="
		M25.6,55.9"/>
	<path fill="none" stroke="#1D1D1B" stroke-width="2" stroke-linecap="round" stroke-linejoin="round" stroke-miterlimit="10" d="
		M16.2,61.1"/>
	<circle cx="23.5" cy="37.2" r="2.1"/>
	<circle cx="48.5" cy="37.2" r="2.1"/>
	<path d="M24.8,60.4c-1,1-2.4,1.6-3.9,1.6c-1.5,0-2.9-0.6-3.9-1.6c-1-1-1.6-2.4-1.6-3.9c0-4.9,4.6-9.5,4.8-9.7
		c0.4-0.4,1.1-0.4,1.5,0c0.2,0.2,4.8,4.8,4.8,9.7l0,0C26.4,58,25.9,59.3,24.8,60.4z M20.9,49.1c-1.2,1.4-3.4,4.5-3.4,7.4
		c0,0.9,0.4,1.8,1,2.4c0.7,0.7,1.5,1,2.4,1c1.8,0,3.4-1.6,3.4-3.4l0,0C24.4,53.5,22.1,50.5,20.9,49.1z"/>
	<path fill="#92D3F5" d="M20.9,49.1c-1.2,1.4-3.4,4.5-3.4,7.4c0,0.9,0.4,1.8,1,2.4c0.7,0.7,1.5,1,2.4,1c1.8,0,3.4-1.6,3.4-3.4l0,0
		C24.4,53.5,22.1,50.5,20.9,49.1z"/>
</g>
</svg>
