<?xml version="1.0" encoding="utf-8"?>
<!-- Generator: Adobe Illustrator 21.1.0, SVG Export Plug-In . SVG Version: 6.00 Build 0)  -->
<svg version="1.1" id="emoji" xmlns="http://www.w3.org/2000/svg" xmlns:xlink="http://www.w3.org/1999/xlink" x="0px" y="0px"
	 viewBox="0 0 72 72" enable-background="new 0 0 72 72" xml:space="preserve">
<g>
	<polyline fill="#FCEA2B" points="35.9,13.3 27.3,15 22,18 17.1,23.1 13.7,30.5 13.7,42.8 19.3,52.2 27.3,57.6 35.9,59.3 43.1,58.2 
		50.8,53.8 55.9,47.7 58.9,38.5 58.2,30.5 54.4,22.6 50.1,18.3 42.9,14.4 35.9,13.3 	"/>
	<path fill="none" stroke="#1F201E" stroke-width="2" stroke-linecap="round" stroke-linejoin="round" stroke-miterlimit="10" d="
		M47.9,46"/>
	<path fill="none" stroke="#000000" stroke-width="2" stroke-linecap="round" stroke-linejoin="round" stroke-miterlimit="10" d="
		M23.3,32.3c0,0,3.4-2.9,7.8-1.5"/>
	<path fill="none" stroke="#000000" stroke-width="2" stroke-linecap="round" stroke-linejoin="round" stroke-miterlimit="10" d="
		M48.8,32.3c0,0-3.4-2.9-7.8-1.5"/>
	<circle fill="none" stroke="#FCEA2B" stroke-width="2" stroke-miterlimit="10" cx="36.1" cy="36.3" r="23"/>
	<polygon fill="#FFFFFF" points="13.4,34.6 13.4,37.7 16.3,39.9 21.2,43.4 23.9,44.9 24.8,44.9 24.8,43.1 24.8,42.2 22.6,40.9 	"/>
	
		<polyline fill="none" stroke="#000000" stroke-width="2" stroke-linecap="round" stroke-linejoin="round" stroke-miterlimit="10" points="
		25.1,46.3 13.1,38.2 13.1,34 25.1,42.2 	"/>
	<polygon fill="#FFFFFF" points="58.4,34.4 58.4,37.5 55.4,39.7 50.5,43.2 47.9,44.7 47,44.7 47,42.9 47,42 49.2,40.7 	"/>
	
		<polyline fill="none" stroke="#000000" stroke-width="2" stroke-linecap="round" stroke-linejoin="round" stroke-miterlimit="10" points="
		46.7,46.1 59.1,38 59.1,33.9 46.7,42 	"/>
	<path fill="none" stroke="#000000" stroke-width="2" stroke-linecap="round" stroke-linejoin="round" stroke-miterlimit="10" d="
		M58.3,30.5c-2.6-9.8-11.5-17.1-22.2-17.1"/>
	<path fill="none" stroke="#000000" stroke-width="2" stroke-linecap="round" stroke-linejoin="round" stroke-miterlimit="10" d="
		M13.9,42.3c2.6,9.8,11.5,17,22.2,17.1c10.7,0,19.6-7.2,22.3-17"/>
	<path fill="none" stroke="#1D1E1C" stroke-width="2" stroke-linecap="round" stroke-linejoin="round" stroke-miterlimit="10" d="
		M13.2,33.8"/>
	<path fill="none" stroke="#000000" stroke-width="2" stroke-linecap="round" stroke-linejoin="round" stroke-miterlimit="10" d="
		M36.1,13.3c-10.7,0-19.7,7.2-22.3,17.1"/>
	
		<path fill="#FFFFFF" stroke="#000000" stroke-width="2" stroke-linecap="round" stroke-linejoin="round" stroke-miterlimit="10" d="
		M45.8,52.7H25.9c-1.2,0-2.1-0.9-2.1-2.1v-9.7c0-1.2,0.9-2.1,2.1-2.1h19.9c1.2,0,2.1,0.9,2.1,2.1v9.7C47.9,51.8,46.9,52.7,45.8,52.7
		z"/>
</g>
</svg>
