<svg id="emoji" xmlns="http://www.w3.org/2000/svg" viewBox="0 0 72 72">
  <g id="color">
    <rect x="8.3205" y="9.9742" clip-path="url(#SVGID_2_)" fill="#FCEA2B" width="55.25" height="56" stroke="none"></rect>
    <circle fill="none" stroke="#FCEA2B" stroke-width="2" stroke-miterlimit="10" cx="35.5705" cy="37.9742" r="23"></circle>
    <circle fill="#FFFFFF" stroke="none" stroke-width="2" stroke-linecap="round" stroke-linejoin="round" stroke-miterlimit="10" cx="35.2396" cy="50.1177" r="3.4042"></circle>
    <path fill="#61B2E4" d="M44.4453,26h-2.6162c-0.3564,0-0.6855-0.1899-0.8652-0.498c-0.1787-0.3086-0.1797-0.6885-0.0029-0.998
		l1.7607-3.082h-0.8926c-0.5527,0-1-0.4478-1-1s0.4473-1,1-1h2.6162c0.3564,0,0.6855,0.1899,0.8652,0.498
		c0.1787,0.3086,0.1797,0.6885,0.0029,0.998L43.5527,24h0.8926c0.5527,0,1,0.4478,1,1S44.998,26,44.4453,26z" stroke="none"></path>
    <path fill="#61B2E4" d="M50.5889,22h-3.7598c-0.3564,0-0.6855-0.1899-0.8652-0.498c-0.1787-0.3086-0.1797-0.6885-0.0029-0.998
		l2.9043-5.082h-2.0361c-0.5527,0-1-0.4478-1-1s0.4473-1,1-1h3.7598c0.3564,0,0.6855,0.1899,0.8652,0.498
		c0.1787,0.3086,0.1797,0.6885,0.0029,0.998L48.5527,20h2.0361c0.5527,0,1,0.4478,1,1S51.1416,22,50.5889,22z" stroke="none"></path>
    <path fill="#61B2E4" d="M58.7314,27h-4.9023c-0.3564,0-0.6855-0.1899-0.8652-0.498c-0.1787-0.3086-0.1797-0.6885-0.0029-0.998
		l4.0469-7.082h-3.1787c-0.5527,0-1-0.4478-1-1s0.4473-1,1-1h4.9023c0.3564,0,0.6855,0.1899,0.8652,0.498
		c0.1787,0.3086,0.1797,0.6885,0.0029,0.998L55.5527,25h3.1787c0.5527,0,1,0.4478,1,1S59.2842,27,58.7314,27z" stroke="none"></path>
  </g>
  <g id="hair"> </g>
  <g id="skin"> </g>
  <g id="skin-shadow"> </g>
  <g id="line">
    <polygon id="SVGID_1_" points="35.5705,14.9742 26.9407,16.6539 21.6409,19.6744 16.7502,24.7535 13.3205,32.1041 
					13.3205,44.4439 18.9201,53.8443 26.9407,59.2945 35.5705,60.9742 42.7502,59.8238 50.4602,55.4938 55.5705,49.3346 
					58.5705,40.1246 57.8205,32.1441 54.011,24.234 49.801,19.9137 42.551,16.0543 				" fill="#000000" stroke="none"></polygon>
    <path fill="none" stroke="#000000" stroke-width="2" stroke-linecap="round" stroke-linejoin="round" stroke-miterlimit="10" d="
			M44.3398,16.705c-0.3678-0.1518-0.7405-0.2944-1.1176-0.4274c-2.3937-0.8442-4.9691-1.3034-7.6517-1.3034
			c-12.7031,0-23,10.2969-23,23c0,12.7022,10.2969,23,23,23c12.7022,0,23-10.2978,23-23c0-2.8236-0.5088-5.5284-1.4397-8.0276"></path>
    <circle fill="none" stroke="#000000" stroke-width="2" stroke-linecap="round" stroke-linejoin="round" stroke-miterlimit="10" cx="35.2396" cy="50.1177" r="3.4042"></circle>
    <path fill="none" stroke="#000000" stroke-width="2" stroke-linecap="round" stroke-linejoin="round" stroke-miterlimit="10" d="
			M49.6708,34.8335c-3.1758,2.3436-7.4563,2.061-10,0"></path>
    <path fill="none" stroke="#000000" stroke-width="2" stroke-linecap="round" stroke-linejoin="round" stroke-miterlimit="10" d="
			M31.3404,34.8335c-3.1758,2.3436-7.4563,2.061-10,0"></path>
  </g>
</svg>