<svg id="emoji" xmlns="http://www.w3.org/2000/svg" viewBox="0 0 72 72">
  <g id="color">
    <path fill="#F4AA41" d="M58.6655,49.6993C55.0678,58.8162,46.0342,64.854,35.4583,64.854c-9.1173,0-19.256-5.8476-22.8537-14.9645 l-0.1262-0.3127c-1.1415-2.8597-1.9573-6.3599-1.9573-9.6324L14.188,6.5731L25.4162,17.653 c2.9226-1.2477,6.137-1.9388,9.5103-1.9388H35.99c3.3734,0,6.5877,0.6911,9.5103,1.9388L56.7285,6.5731l3.7223,33.8758 c0,3.2725-0.6283,6.3969-1.7707,9.2566" stroke="none"/>
    <path fill="#E27022" d="M35.4583,64.854C46.0671,65.1964,55.8124,58.85,59.41,49.7331l0.1109-0.231 c1.1415-2.8597,1.9579-6.8965,1.9579-10.169l-4.7503-32.76" stroke="none"/>
    <path fill="#EA5A47" stroke="none" stroke-width="2" stroke-linecap="round" stroke-linejoin="round" stroke-miterlimit="10" d="M25.6,49.391c0,0,7.8,4.16,10.4-3.12c2.6,7.28,10.805,3.0701,10.805,3.0701s-2.6936,4.3812-3.4875,5.2337 c-4.0173,4.3139-9.4006,4.0538-13.6716,0.1167C28.7107,53.8294,25.6,49.391,25.6,49.391z"/>
  </g>
  <g id="hair"/>
  <g id="skin"/>
  <g id="skin-shadow"/>
  <g id="line">
    <line fill="none" stroke="#000000" stroke-width="2" stroke-linecap="round" stroke-linejoin="round" stroke-miterlimit="10" x1="62" y1="54.9331" x2="52.64" y2="49.7331"/>
    <path fill="none" stroke="#000000" stroke-width="2" stroke-linecap="round" stroke-linejoin="round" stroke-miterlimit="10" d="M52.64,47.6531"/>
    <line fill="none" stroke="#000000" stroke-width="2" stroke-linecap="round" stroke-linejoin="round" stroke-miterlimit="10" x1="57.84" y1="60.1331" x2="48.48" y2="54.9331"/>
    <path fill="none" stroke="#000000" stroke-width="2" stroke-linecap="round" stroke-linejoin="round" stroke-miterlimit="10" d="M46.4,55.9731"/>
    <path fill="none" stroke="#000000" stroke-width="2" stroke-linecap="round" stroke-linejoin="round" stroke-miterlimit="10" d="M13.2916,48.8048c-1.1172-2.7655-1.7316-5.787-1.7316-8.9517l3.64-32.76L26.1799,17.808c2.858-1.2066,6.0013-1.8749,9.3001-1.8749 h1.04c3.2988,0,6.4421,0.6683,9.3001,1.8749L56.8,7.0931l3.64,32.76c0,3.1647-0.6144,6.1862-1.7316,8.9517"/>
    <line fill="none" stroke="#000000" stroke-width="2" stroke-linecap="round" stroke-linejoin="round" stroke-miterlimit="10" x1="10" y1="54.9331" x2="19.36" y2="49.7331"/>
    <path fill="none" stroke="#000000" stroke-width="2" stroke-linecap="round" stroke-linejoin="round" stroke-miterlimit="10" d="M19.36,47.6531"/>
    <line fill="none" stroke="#000000" stroke-width="2" stroke-linecap="round" stroke-linejoin="round" stroke-miterlimit="10" x1="14.16" y1="60.1331" x2="23.52" y2="54.9331"/>
    <path fill="none" stroke="#000000" stroke-width="2" stroke-linecap="round" stroke-linejoin="round" stroke-miterlimit="10" d="M25.6,55.9731"/>
    <line fill="none" stroke="#000000" stroke-width="2" stroke-linecap="round" stroke-linejoin="round" stroke-miterlimit="10" x1="31.84" y1="46.271" x2="40.16" y2="46.271"/>
    <path fill="none" stroke="#000000" stroke-width="2" stroke-linecap="round" stroke-linejoin="round" stroke-miterlimit="10" d="M25.6,49.391c0,0,7.8,4.16,10.4-3.12c2.6,7.28,10.805,3.0701,10.805,3.0701s-2.6936,4.3812-3.4875,5.2337 c-4.0173,4.3139-9.4006,4.0538-13.6716,0.1167C28.7107,53.8294,25.6,49.391,25.6,49.391z"/>
    <path fill="none" stroke="#000000" stroke-width="2" stroke-linecap="round" stroke-linejoin="round" stroke-miterlimit="10" d="M55.722,61.0307"/>
    <path fill="none" stroke="#000000" stroke-width="2" stroke-linecap="round" stroke-linejoin="round" stroke-miterlimit="10" d="M16.279,61.0307"/>
    <path fill="none" stroke="#000000" stroke-width="2" stroke-linecap="round" stroke-linejoin="round" stroke-miterlimit="10" d="M55.7218,61.0305"/>
    <path fill="none" stroke="#000000" stroke-width="2" stroke-linecap="round" stroke-linejoin="round" stroke-miterlimit="10" d="M16.2792,61.0305"/>
    <path fill="none" stroke="#000000" stroke-width="2" stroke-linecap="round" stroke-linejoin="round" stroke-miterlimit="10" d="M64,56.0731"/>
    <path fill="none" stroke="#000000" stroke-width="2" stroke-linecap="round" stroke-linejoin="round" stroke-miterlimit="10" d="M22.851,60.1947c3.6644,2.2888,7.9926,3.6106,12.6301,3.6106h1.038c4.6375,0,8.9677-1.3218,12.6301-3.6106"/>
    <path fill="none" stroke="#000000" stroke-width="2" stroke-linecap="round" stroke-linejoin="round" stroke-miterlimit="10" d="M55.203,38.5638c-3.1139-4.1519-9.3418-4.1519-11.4177,0"/>
    <path fill="none" stroke="#000000" stroke-width="2" stroke-linecap="round" stroke-linejoin="round" stroke-miterlimit="10" d="M16.798,38.5638c3.1139-4.1519,9.3418-4.1519,11.4177,0"/>
  </g>
</svg>
