<svg id="emoji" xmlns="http://www.w3.org/2000/svg" viewBox="0 0 72 72">
  <g id="color">
    <path fill="#F4AA41" d="M58.6505,49.4519C55.0598,58.551,46.0437,64.577,35.4885,64.577c-9.0995,0-19.2185-5.8362-22.8091-14.9354 l-0.1259-0.3121C11.4142,46.4755,10.6,42.9821,10.6,39.716l4.6597-32.3062l10.2062,10.0583c2.9169-1.2453,6.125-1.935,9.4918-1.935 h1.0614c3.3668,0,6.5749,0.6897,9.4918,1.935L56.7173,6.4098l3.715,33.8098c0,3.2661-0.6271,6.3845-1.7673,9.2386" stroke="none"/>
    <path fill="#E27022" d="M35.4885,64.2749c10.4781,0.3382,20.1034-5.93,23.6567-14.9346l0.1095-0.2282 c1.1274-2.8244,1.9338-6.8115,1.9338-10.0437L56.4967,6.712" stroke="none"/>
    <path fill="#92D3F5" d="M14.2466,43.4264c-1.8488,0.1561-5.5872,0.7259-7.6631,2.8018c-0.6507,0.6487-1.0076,1.5123-1.0076,2.4286 c0,0.9184,0.3569,1.782,1.0076,2.4328c1.2995,1.2994,3.564,1.2994,4.8614,0l0,0C13.5209,49.0137,14.0906,45.2754,14.2466,43.4264z" stroke="none"/>
    <path fill="#92D3F5" d="M57.7564,43.4264c0.1561,1.8489,0.7257,5.5873,2.8017,7.6632c1.2995,1.2994,3.564,1.2975,4.8615,0 c1.34-1.3401,1.34-3.5214,0.0021-4.8614l0,0C63.3457,44.1523,59.6073,43.5825,57.7564,43.4264z" stroke="none"/>
    <path fill="#EA5A47" stroke="none" stroke-width="2" stroke-linecap="round" stroke-linejoin="round" stroke-miterlimit="10" d="M25.0988,49.613c0,0,7.7848,4.1519,10.3797-3.1139c2.5949,7.2658,10.784,3.0641,10.784,3.0641s-2.6883,4.3726-3.4807,5.2235 c-4.0095,4.3055-9.3823,4.0459-13.645,0.1165C28.2034,54.0428,25.0988,49.613,25.0988,49.613z"/>
  </g>
  <g id="hair"/>
  <g id="skin"/>
  <g id="skin-shadow"/>
  <g id="line">
    <line fill="none" stroke="#000000" stroke-width="2" stroke-linecap="round" stroke-linejoin="round" stroke-miterlimit="10" x1="61.9498" y1="54.8029" x2="52.6081" y2="49.613"/>
    <path fill="none" stroke="#000000" stroke-width="2" stroke-linecap="round" stroke-linejoin="round" stroke-miterlimit="10" d="M52.6081,47.5371"/>
    <path fill="none" stroke="#000000" stroke-width="2" stroke-linecap="round" stroke-linejoin="round" stroke-miterlimit="10" d="M61.9498,52.7269"/>
    <line fill="none" stroke="#000000" stroke-width="2" stroke-linecap="round" stroke-linejoin="round" stroke-miterlimit="10" x1="57.7979" y1="59.9927" x2="48.4562" y2="54.8029"/>
    <path fill="none" stroke="#000000" stroke-width="2" stroke-linecap="round" stroke-linejoin="round" stroke-miterlimit="10" d="M46.3802,55.8408"/>
    <path fill="none" stroke="#000000" stroke-width="2" stroke-linecap="round" stroke-linejoin="round" stroke-miterlimit="10" d="M55.722,61.0307"/>
    <path fill="none" stroke="#000000" stroke-width="2" stroke-linecap="round" stroke-linejoin="round" stroke-miterlimit="10" d="M11.7403,38.5632l3.5008-31.5071l10.9585,10.694c2.8525-1.2043,5.9896-1.8713,9.282-1.8713h1.038 c3.2923,0,6.4295,0.667,9.282,1.8713L56.76,7.0561l3.5219,31.6975"/>
    <path fill="none" stroke="#000000" stroke-width="2" stroke-linecap="round" stroke-linejoin="round" stroke-miterlimit="10" d="M22.8515,60.015c3.6644,2.2888,7.9926,3.6106,12.6301,3.6106h1.038c4.6375,0,8.9677-1.3218,12.6301-3.6106"/>
    <line fill="none" stroke="#000000" stroke-width="2" stroke-linecap="round" stroke-linejoin="round" stroke-miterlimit="10" x1="9.0132" y1="54.8029" x2="18.355" y2="49.613"/>
    <path fill="none" stroke="#000000" stroke-width="2" stroke-linecap="round" stroke-linejoin="round" stroke-miterlimit="10" d="M19.393,47.5371"/>
    <line fill="none" stroke="#000000" stroke-width="2" stroke-linecap="round" stroke-linejoin="round" stroke-miterlimit="10" x1="14.2031" y1="59.9927" x2="23.5448" y2="54.8029"/>
    <path fill="none" stroke="#000000" stroke-width="2" stroke-linecap="round" stroke-linejoin="round" stroke-miterlimit="10" d="M25.6208,55.8408"/>
    <path fill="none" stroke="#000000" stroke-width="2" stroke-linecap="round" stroke-linejoin="round" stroke-miterlimit="10" d="M16.279,61.0307"/>
    <path fill="none" stroke="#000000" stroke-width="2" stroke-linecap="round" stroke-linejoin="round" stroke-miterlimit="10" d="M55.203,38.5638c-3.1139-4.1519-9.3418-4.1519-11.4177,0"/>
    <path fill="none" stroke="#000000" stroke-width="2" stroke-linecap="round" stroke-linejoin="round" stroke-miterlimit="10" d="M16.798,38.5638c3.1139-4.1519,9.3418-4.1519,11.4177,0"/>
    <path d="M9.0142,54.1732c-1.4718,0-2.8564-0.5738-3.8985-1.6158C4.0737,51.5153,3.5,50.1307,3.5,48.6569 c0-1.4718,0.5737-2.8564,1.6157-3.8964c3.4302-3.4302,9.952-3.4687,10.2278-3.4687c0.5737,0,1.038,0.4643,1.038,1.038 c0,0.2757-0.0385,6.7975-3.4687,10.2277l0,0C11.8727,53.5994,10.488,54.1732,9.0142,54.1732z M14.2466,43.4264 c-1.8488,0.1561-5.5872,0.7259-7.6631,2.8018c-0.6507,0.6487-1.0076,1.5123-1.0076,2.4286c0,0.9184,0.3569,1.782,1.0076,2.4328 c1.2995,1.2994,3.564,1.2994,4.8614,0l0,0C13.5209,49.0137,14.0906,45.2754,14.2466,43.4264z" fill="#000000" stroke="none"/>
    <path d="M62.9909,54.1732c-1.4739,0-2.8585-0.5738-3.9006-1.6158c-3.4301-3.4302-3.4686-9.952-3.4686-10.2277 c0-0.5737,0.4642-1.038,1.038-1.038c0.2757,0,6.7994,0.0385,10.2296,3.4687l0,0c2.1489,2.1489,2.1469,5.648-0.002,7.7969 C65.8473,53.5994,64.4626,54.1732,62.9909,54.1732z M57.7564,43.4264c0.1561,1.8489,0.7257,5.5873,2.8017,7.6632 c1.2995,1.2994,3.564,1.2975,4.8615,0c1.34-1.3401,1.34-3.5214,0.0021-4.8614l0,0C63.3457,44.1523,59.6073,43.5825,57.7564,43.4264 z" fill="#000000" stroke="none"/>
    <line fill="none" stroke="#000000" stroke-width="2" stroke-linecap="round" stroke-linejoin="round" stroke-miterlimit="10" x1="31.3266" y1="46.4991" x2="39.6304" y2="46.4991"/>
    <path fill="none" stroke="#000000" stroke-width="2" stroke-linecap="round" stroke-linejoin="round" stroke-miterlimit="10" d="M25.0988,49.613c0,0,7.7848,4.1519,10.3797-3.1139c2.5949,7.2658,10.784,3.0641,10.784,3.0641s-2.6883,4.3726-3.4807,5.2235 c-4.0095,4.3055-9.3823,4.0459-13.645,0.1165C28.2034,54.0428,25.0988,49.613,25.0988,49.613z"/>
  </g>
</svg>
