<svg id="emoji" viewBox="0 0 72 72" xmlns="http://www.w3.org/2000/svg">
  <g id="color">
    <path fill="#fcea2b" d="m36.29,12c-13.08,0-24.29,10.74-24.29,23.94s10.33,24.06,24.29,24.06c13.08,0,23.71-10.86,23.71-24.06s-10.64-23.94-23.71-23.94Z"/>
    <path fill="#fff" d="m33.25,30.85c0,3.452-2.802,6.25-6.25,6.25s-6.25-2.798-6.25-6.25c0-3.448,2.802-6.25,6.25-6.25s6.25,2.802,6.25,6.25"/>
    <path fill="#fff" d="m51.25,30.85c0,3.452-2.802,6.25-6.25,6.25s-6.25-2.798-6.25-6.25c0-3.448,2.802-6.25,6.25-6.25s6.25,2.802,6.25,6.25"/>
    <path fill="#fff" d="m28,49.38c.2704-.3562,3.31-8.218,8.421-8.004,4.605.1927,7.229,7.541,7.579,8.004,0,0-16,0-16,0Z"/>
    <path fill="#fcea2b" d="m50.07,65.35c.9871-4.017,1.6806-3.191,1.974-5.957-.4629-1.34-.771-3.423-.7441-5.946.0213-1.978.1355-2.668,1.079-6.899,1.241-5.568.428-6.914,1.135-6.957,1.269-.0767,3.11,4.147,3.951,7.807.8934,3.886-1.4577,9.572-1.4577,9.572l1.5405,5.589"/>
    <path fill="#fcea2b" d="m21.87,64.97c-.9871-4.017-1.1806-2.691-1.474-5.457.4629-1.34.771-3.423.7441-5.946-.0213-1.978.6145-2.668-.329-6.899-1.241-5.568-1.178-6.914-1.885-6.957-1.269-.0767-3.36,4.147-4.201,7.807-.8934,3.886,1.9577,9.572,1.9577,9.572l-1.5405,5.339"/>
  </g>
  <g id="line">
    <path fill="none" stroke="#000" stroke-linecap="round" stroke-linejoin="round" stroke-width="2" d="m21,24c1-1,4.998-5.603,11-1.002"/>
    <path fill="none" stroke="#000" stroke-miterlimit="10" stroke-width="2" d="m33.25,31.46c0,3.452-2.802,6.25-6.25,6.25s-6.25-2.798-6.25-6.25c0-3.448,2.802-6.25,6.25-6.25s6.25,2.802,6.25,6.25"/>
    <path d="m29,31.46c0,1.104-.8965,2-2,2s-2-.8955-2-2,.8965-2,2-2,2,.8965,2,2"/>
    <path fill="none" stroke="#000" stroke-miterlimit="10" stroke-width="2" d="m51.25,31.46c0,3.452-2.802,6.25-6.25,6.25s-6.25-2.798-6.25-6.25c0-3.448,2.802-6.25,6.25-6.25s6.25,2.802,6.25,6.25"/>
    <path d="m47,31.46c0,1.104-.8965,2-2,2s-2-.8955-2-2,.8965-2,2-2,2,.8965,2,2"/>
    <path fill="none" stroke="#000" stroke-linecap="round" stroke-linejoin="round" stroke-width="2" d="m28,50c.2704-.3562,1-8,8.421-8.004,6.579-.0033,7.229,7.541,7.579,8.004,0,0-16,0-16,0Z"/>
    <path fill="none" stroke="#000" stroke-linecap="round" stroke-linejoin="round" stroke-width="2" d="m47.33,56.02c-3.344,1.896-7.21,2.979-11.33,2.979-3.994,0-7.749-1.018-11.02-2.808"/>
    <path fill="none" stroke="#000" stroke-linecap="round" stroke-linejoin="round" stroke-width="2" d="m13.21,39.07c-.1076-1.378-.245-1.638-.2117-3.073.2947-12.7,10.3-23,23-23s23,10.3,23,23c0,1.073-.0735,2.129-.2156,3.163"/>
    <path fill="none" stroke="#000" stroke-linecap="round" stroke-linejoin="round" stroke-width="2" d="m49.81,64.32c1.208-3.956.9131-2.154,1.359-4.899-.3878-1.364-.8299-3.474-.6628-5.992.131-1.973,2.418-3.208,2.841-7.757.4175-4.077.4286-5.896,1.137-5.899,1.271-.0062,3.125,4.327,3.762,8.028.6764,3.93-1.667,9.391-1.667,9.391l1.365,4.535"/>
    <path fill="none" stroke="#000" stroke-linecap="round" stroke-linejoin="round" stroke-width="2" d="m22.57,64.32c-1.208-3.956-.9131-2.154-1.359-4.899.3878-1.364.8299-3.474.6628-5.992-.131-1.973-2.418-3.208-2.841-7.757-.4175-4.077-.4286-5.896-1.137-5.899-1.271-.0062-3.125,4.327-3.762,8.028-.6764,3.93,1.667,9.391,1.667,9.391l-1.365,4.535"/>
    <path fill="none" stroke="#000" stroke-linecap="round" stroke-linejoin="round" stroke-width="2" d="m51.48,24c-1-1-4.998-5.603-11-1.002"/>
  </g>
</svg>
