<?xml version="1.0" encoding="utf-8"?>
<!-- Generator: Adobe Illustrator 21.1.0, SVG Export Plug-In . SVG Version: 6.00 Build 0)  -->
<svg version="1.1" id="emoji" xmlns="http://www.w3.org/2000/svg" xmlns:xlink="http://www.w3.org/1999/xlink" x="0px" y="0px"
	 viewBox="0 0 72 72" enable-background="new 0 0 72 72" xml:space="preserve">
<g id="_xD83D__xDE3B__1_">
	<path fill="#F4AA41" d="M58.6,49.5C55,58.6,46,64.6,35.4,64.6c-9.1,0-19.2-5.8-22.8-15l-0.1-0.3c-1.1-2.9-2-6.4-2-9.6l3.7-33.3
		l11.2,11.1c2.9-1.2,6.1-1.9,9.5-1.9H36c3.4,0,6.6,0.7,9.5,1.9L56.7,6.4l3.7,33.8C60.4,43.5,59.8,46.6,58.6,49.5"/>
	<path fill="#E27022" d="M35.4,64.6c10.6,0.3,20.3-6,23.9-15.1l0.1-0.2c1.1-2.9,2-6.9,2-10.2L56.7,6.4"/>
	
		<line fill="none" stroke="#000000" stroke-width="2" stroke-linecap="round" stroke-linejoin="round" stroke-miterlimit="10" x1="62" y1="54.6" x2="52.5" y2="49.6"/>
	<path fill="none" stroke="#1D1D1B" stroke-width="2" stroke-linecap="round" stroke-linejoin="round" stroke-miterlimit="10" d="
		M52.6,47.4"/>
	<path fill="none" stroke="#1D1D1B" stroke-width="2" stroke-linecap="round" stroke-linejoin="round" stroke-miterlimit="10" d="
		M62,52.6"/>
	
		<line fill="none" stroke="#000000" stroke-width="2" stroke-linecap="round" stroke-linejoin="round" stroke-miterlimit="10" x1="57.8" y1="59.9" x2="48.5" y2="54.7"/>
	<path fill="none" stroke="#1D1D1B" stroke-width="2" stroke-linecap="round" stroke-linejoin="round" stroke-miterlimit="10" d="
		M46.4,55.7"/>
	<path fill="none" stroke="#1D1D1B" stroke-width="2" stroke-linecap="round" stroke-linejoin="round" stroke-miterlimit="10" d="
		M55.7,60.9"/>
	<path fill="none" stroke="#000000" stroke-width="2" stroke-linecap="round" stroke-linejoin="round" stroke-miterlimit="10" d="
		M13.3,48.6c-1.1-2.8-1.7-5.8-1.7-8.9l3.6-32.7l11,10.7c2.9-1.2,6-1.9,9.3-1.9h1c3.3,0,6.4,0.7,9.3,1.9l11-10.7l3.6,32.7
		c0,3.2-0.6,6.2-1.7,8.9"/>
	<path fill="none" stroke="#000000" stroke-width="2" stroke-linecap="round" stroke-linejoin="round" stroke-miterlimit="10" d="
		M22.8,59.9c3.7,2.3,8,3.6,12.6,3.6h1c4.6,0,9-1.3,12.6-3.6"/>
	
		<line fill="none" stroke="#000000" stroke-width="2" stroke-linecap="round" stroke-linejoin="round" stroke-miterlimit="10" x1="10" y1="54.7" x2="19.4" y2="49.5"/>
	<path fill="none" stroke="#1D1D1B" stroke-width="2" stroke-linecap="round" stroke-linejoin="round" stroke-miterlimit="10" d="
		M19.4,47.4"/>
	
		<line fill="none" stroke="#000000" stroke-width="2" stroke-linecap="round" stroke-linejoin="round" stroke-miterlimit="10" x1="14.2" y1="59.9" x2="23.5" y2="54.7"/>
	<path fill="none" stroke="#1D1D1B" stroke-width="2" stroke-linecap="round" stroke-linejoin="round" stroke-miterlimit="10" d="
		M25.6,55.7"/>
	<path fill="none" stroke="#1D1D1B" stroke-width="2" stroke-linecap="round" stroke-linejoin="round" stroke-miterlimit="10" d="
		M16.2,60.9"/>
	
		<path fill="#D22F27" stroke="#000000" stroke-width="2" stroke-linecap="round" stroke-linejoin="round" stroke-miterlimit="10" d="
		M23.9,31.9c-1.4-3.6-6.9-3.8-6.6,1.4c0,0.7,0.3,1.4,0.7,2l5.7,6.9l0,0l5.6-6.8c0.6-0.8,1-1.7,1-2.7c-0.1-4.7-5.4-4.4-6.6-0.9"/>
	
		<line fill="none" stroke="#000000" stroke-width="2" stroke-linecap="round" stroke-linejoin="round" stroke-miterlimit="10" x1="31.6" y1="46.1" x2="39.9" y2="46.1"/>
	
		<path fill="#EA5A47" stroke="#000000" stroke-width="2" stroke-linecap="round" stroke-linejoin="round" stroke-miterlimit="10" d="
		M25.4,49.3c0,0,7.8,4.2,10.4-3.1c2.6,7.3,10.8,3.1,10.8,3.1s-2.7,4.4-3.5,5.2c-4,4.3-9.4,4.1-13.7,0.1
		C28.5,53.7,25.4,49.3,25.4,49.3z"/>
	<path fill="none" stroke="#1D1D1B" stroke-width="2" stroke-linecap="round" stroke-linejoin="round" stroke-miterlimit="10" d="
		M63,52.8"/>
	
		<path fill="#D22F27" stroke="#000000" stroke-width="2" stroke-linecap="round" stroke-linejoin="round" stroke-miterlimit="10" d="
		M48.6,31.9c-1.4-3.6-6.9-3.8-6.6,1.4c0,0.7,0.3,1.4,0.7,2l5.7,6.9l0,0l5.6-6.8c0.6-0.8,1-1.7,1-2.7c-0.1-4.7-5.4-4.4-6.6-0.9"/>
</g>
</svg>
