<svg id="emoji" xmlns="http://www.w3.org/2000/svg" viewBox="0 0 72 72">
  
  <g id="color">
    <path fill="#fcea2b" d="M36.2002,13.3163c-12.5719,0-22.7998,10.2279-22.7998,22.7998c0,12.5718,10.2279,22.7998,22.7998,22.7998
		C48.772,58.9159,59,48.6879,59,36.1161C59,23.5442,48.772,13.3163,36.2002,13.3163z" stroke="none"></path>
    <path fill="#FFFFFF" d="M31.7799,31.4626c0,2.4645-2.0004,4.4626-4.4626,4.4626s-4.4626-1.9981-4.4626-4.4626
		c0-2.4622,2.0004-4.4626,4.4626-4.4626S31.7799,29.0004,31.7799,31.4626" stroke="none"></path>
    <path fill="#FFFFFF" d="M49.7799,31.4626c0,2.4645-2.0004,4.4626-4.4626,4.4626c-2.4622,0-4.4626-1.9981-4.4626-4.4626
		c0-2.4622,2.0004-4.4626,4.4626-4.4626C47.7795,27,49.7799,29.0004,49.7799,31.4626" stroke="none"></path>
    <line fill="none" stroke="#ea5a47" stroke-width="2" stroke-linecap="round" stroke-linejoin="round" stroke-miterlimit="10" x1="18" y1="40" x2="20" y2="38"></line>
    <line fill="none" stroke="#ea5a47" stroke-width="2" stroke-linecap="round" stroke-linejoin="round" stroke-miterlimit="10" x1="20" y1="44" x2="24" y2="40"></line>
    <line fill="none" stroke="#ea5a47" stroke-width="2" stroke-linecap="round" stroke-linejoin="round" stroke-miterlimit="10" x1="54" y1="40" x2="52" y2="38"></line>
    <line fill="none" stroke="#ea5a47" stroke-width="2" stroke-linecap="round" stroke-linejoin="round" stroke-miterlimit="10" x1="52" y1="44" x2="48" y2="40"></line>
  </g>
  <g id="hair">
  </g>
  <g id="skin">
  </g>
  <g id="skin-shadow">
  </g>
  <g id="line">
    <path fill="#000000" d="M29.3173,31.9252c0,1.1045-0.8965,2-2,2c-1.1035,0-2-0.8955-2-2c0-1.1035,0.8965-2,2-2
		C28.4208,29.9252,29.3173,30.8217,29.3173,31.9252" stroke="none"></path>
    <path fill="#000000" d="M47.3173,31.9252c0,1.1045-0.8965,2-2,2c-1.1035,0-2-0.8955-2-2c0-1.1035,0.8965-2,2-2
		C46.4208,29.9252,47.3173,30.8217,47.3173,31.9252" stroke="none"></path>
    <circle fill="none" stroke="#000000" stroke-width="2" stroke-miterlimit="10" cx="36" cy="36" r="23"></circle>
    <path fill="none" stroke="#000000" stroke-width="2" stroke-miterlimit="10" d="M31.7799,31.4626
		c0,2.4645-2.0004,4.4626-4.4626,4.4626s-4.4626-1.9981-4.4626-4.4626c0-2.4622,2.0004-4.4626,4.4626-4.4626
		S31.7799,29.0004,31.7799,31.4626"></path>
    <path fill="none" stroke="#000000" stroke-width="2" stroke-miterlimit="10" d="M49.7799,31.4626
		c0,2.4645-2.0004,4.4626-4.4626,4.4626c-2.4622,0-4.4626-1.9981-4.4626-4.4626c0-2.4622,2.0004-4.4626,4.4626-4.4626
		C47.7795,27,49.7799,29.0004,49.7799,31.4626"></path>
    <path fill="none" stroke="#000000" stroke-width="2" stroke-linecap="round" stroke-linejoin="round" stroke-miterlimit="10" d="
		M23,23.7253c0.4132-0.344,2.2456-1.7915,4.9091-1.6364c2.1608,0.1259,3.61,1.2333,4.0909,1.6364"></path>
    <path fill="none" stroke="#000000" stroke-width="2" stroke-linecap="round" stroke-linejoin="round" stroke-miterlimit="10" d="
		M41,23.7253c0.4132-0.344,2.2456-1.7915,4.9091-1.6364c2.1608,0.1259,3.61,1.2333,4.0909,1.6364"></path>
    <path fill="none" stroke="#000000" stroke-width="2" stroke-linecap="round" stroke-linejoin="round" stroke-miterlimit="10" d="
		M43,43.0019c-1.2841,0.6376-3.9847,1.0308-6.8421,0.9981c-2.6235-0.03-4.9897-0.4146-6.1579-0.9981"></path>
  </g>
</svg>