<?xml version="1.0" encoding="utf-8"?>
<!-- Generator: Adobe Illustrator 21.1.0, SVG Export Plug-In . SVG Version: 6.00 Build 0)  -->
<svg version="1.1" id="emoji" xmlns="http://www.w3.org/2000/svg" xmlns:xlink="http://www.w3.org/1999/xlink" x="0px" y="0px"
	 viewBox="0 0 72 72" enable-background="new 0 0 72 72" xml:space="preserve">
<g id="_xD83D__xDE37__1_">
	<polyline fill="#FCEA2B" points="36.4,8.8 26.4,10.8 20.3,14.2 14.7,20.1 10.7,28.6 10.7,42.8 17.2,53.6 26.4,59.9 36.4,61.8 
		44.7,60.5 53.5,55.5 59.4,48.4 62.9,37.8 62,28.6 57.6,19.5 52.8,14.5 44.4,10.1 36.4,8.8 	"/>
	<path fill="none" stroke="#1F201E" stroke-width="2" stroke-linecap="round" stroke-linejoin="round" stroke-miterlimit="10" d="
		M50.2,46.5"/>
	<path fill="none" stroke="#000000" stroke-width="2" stroke-linecap="round" stroke-linejoin="round" stroke-miterlimit="10" d="
		M21.8,30.7c0,0,4-3.3,9-1.8"/>
	<path fill="none" stroke="#000000" stroke-width="2" stroke-linecap="round" stroke-linejoin="round" stroke-miterlimit="10" d="
		M51.2,30.7c0,0-4-3.3-9-1.8"/>
	<circle fill="none" stroke="#FCEA2B" stroke-width="2" stroke-miterlimit="10" cx="36.6" cy="35.3" r="26.5"/>
	<polygon fill="#FFFFFF" points="10.4,33.3 10.4,36.9 13.8,39.5 19.5,43.4 22.5,45.2 23.6,45.2 23.6,43.1 23.6,42 21,40.5 	"/>
	
		<polyline fill="none" stroke="#000000" stroke-width="2" stroke-linecap="round" stroke-linejoin="round" stroke-miterlimit="10" points="
		23.9,46.8 10.1,37.5 10.1,32.7 23.9,42 	"/>
	<polygon fill="#FFFFFF" points="62.3,33.1 62.3,36.7 58.9,39.3 53.2,43.2 50.2,45 49.1,45 49.1,42.9 49.1,41.8 51.7,40.3 	"/>
	
		<polyline fill="none" stroke="#000000" stroke-width="2" stroke-linecap="round" stroke-linejoin="round" stroke-miterlimit="10" points="
		48.8,46.6 63.1,37.3 63.1,32.5 48.8,41.8 	"/>
	<path fill="none" stroke="#000000" stroke-width="2" stroke-linecap="round" stroke-linejoin="round" stroke-miterlimit="10" d="
		M62.2,28.6c-3-11.3-13.3-19.7-25.6-19.7"/>
	<path fill="none" stroke="#000000" stroke-width="2" stroke-linecap="round" stroke-linejoin="round" stroke-miterlimit="10" d="
		M11,42.2c3,11.3,13.3,19.6,25.5,19.7c12.3,0,22.6-8.3,25.7-19.6"/>
	<path fill="none" stroke="#1D1E1C" stroke-width="2" stroke-linecap="round" stroke-linejoin="round" stroke-miterlimit="10" d="
		M10.2,32.5"/>
	<path fill="none" stroke="#000000" stroke-width="2" stroke-linecap="round" stroke-linejoin="round" stroke-miterlimit="10" d="
		M36.6,8.8C24.3,8.8,14,17.2,11,28.5"/>
	
		<path fill="#FFFFFF" stroke="#000000" stroke-width="2" stroke-linecap="round" stroke-linejoin="round" stroke-miterlimit="10" d="
		M47.8,54.2H24.9c-1.3,0-2.4-1.1-2.4-2.4V40.6c0-1.3,1.1-2.4,2.4-2.4h22.9c1.3,0,2.4,1.1,2.4,2.4v11.2
		C50.2,53.1,49.1,54.2,47.8,54.2z"/>
</g>
</svg>
