<?xml version="1.0" encoding="utf-8"?>
<!-- Generator: Adobe Illustrator 21.1.0, SVG Export Plug-In . SVG Version: 6.00 Build 0)  -->
<svg version="1.1" id="emoji" xmlns="http://www.w3.org/2000/svg" xmlns:xlink="http://www.w3.org/1999/xlink" x="0px" y="0px"
	 viewBox="0 0 72 72" enable-background="new 0 0 72 72" xml:space="preserve">
<g id="_xD83D__xDE30_">
	<path fill="#FBEA2E" d="M37.2,13.3c-4.7,0-8.9,0.7-12.6,3c-6,3.7-10.4,11.2-10.5,18.8c0,0.3,0.1,0.7,0.1,1
		c0.3,12.4,10.4,22.8,23,22.8C49.8,58.9,61,48.7,61,36.1C61,23.5,49.8,13.3,37.2,13.3z"/>
	<path fill="#010101" d="M31.3,30.9c0,1.7-1.3,3-3,3c-1.7,0-3-1.3-3-3c0-1.7,1.3-3,3-3C30,27.9,31.3,29.3,31.3,30.9"/>
	<path fill="#010101" d="M49.3,30.9c0,1.7-1.3,3-3,3s-3-1.3-3-3c0-1.7,1.3-3,3-3S49.3,29.3,49.3,30.9"/>
	<path fill="none" stroke="#010101" stroke-width="2" stroke-linecap="round" stroke-linejoin="round" stroke-miterlimit="10" d="
		M28,48c1.9-3.8,5.8-6.2,10-6c3.8,0.2,7.3,2.5,9,6"/>
	<path fill="none" stroke="#010101" stroke-width="2" stroke-linecap="round" stroke-linejoin="round" stroke-miterlimit="10" d="
		M24.9,24.3c0.5,0.2,2.6,1.2,5.2,0.3c2.1-0.7,3.2-2.1,3.5-2.6"/>
	<path fill="none" stroke="#010101" stroke-width="2" stroke-linecap="round" stroke-linejoin="round" stroke-miterlimit="10" d="
		M50.6,24.3c-0.5,0.2-2.6,1.2-5.2,0.3c-2.1-0.7-3.2-2.1-3.5-2.6"/>
	<path fill="#90D1F3" d="M19.9,20c-2.1,0.5-6.4,1.9-8.4,4.8c-1.3,1.8-0.8,4.4,0.9,5.7c1.8,1.3,4.4,0.9,5.7-0.9l0,0
		C20.2,26.6,20.1,22.2,19.9,20z"/>
	<path fill="none" stroke="#010101" stroke-width="2" stroke-miterlimit="10" d="M11.2,27.7c-0.3-1-0.1-2.1,0.5-3
		c1.8-3,6.4-4.2,6.6-4.2c0.4-0.1,0.8,0.1,0.9,0.6c0,0.2,1.1,4.8-0.7,7.8l0,0c-1.1,1.9-3.6,2.5-5.5,1.3
		C12.1,29.6,11.5,28.8,11.2,27.7z"/>
	<path fill="none" stroke="#010101" stroke-width="2" stroke-linecap="round" stroke-linejoin="round" stroke-miterlimit="10" d="
		M24,17.7c0.8-0.6,2-1.5,3.3-2.1c7.6-3.7,24.1-3.5,31.1,9.7c5.9,11.2,1.6,25.2-9.7,31.1s-25.2,1.6-31.1-9.7
		c-2.5-4.7-2.7-9.3-2.6-11.9"/>
</g>
</svg>
