<svg id="emoji" xmlns="http://www.w3.org/2000/svg" viewBox="0 0 72 72">
  <g id="color">
    <path fill="#fcea2b" d="M36.2002,10.6161c-12.958,0-24.0669,10.542-24.0669,23.5c0,12.9579,10.2349,23.6134,24.0669,23.6134 c12.9579,0,23.5-10.6555,23.5-23.6134C59.7002,21.1581,49.1581,10.6161,36.2002,10.6161z" stroke="none"/>
    <path fill="#FFFFFF" d="M31.7799,29.4626c0,2.4645-2.0004,4.4626-4.4626,4.4626s-4.4626-1.9981-4.4626-4.4626 c0-2.4622,2.0004-4.4626,4.4626-4.4626S31.7799,27.0004,31.7799,29.4626" stroke="none"/>
    <path fill="#FFFFFF" d="M49.7799,29.4626c0,2.4645-2.0004,4.4626-4.4626,4.4626c-2.4622,0-4.4626-1.9981-4.4626-4.4626 c0-2.4622,2.0004-4.4626,4.4626-4.4626C47.7795,25,49.7799,27.0004,49.7799,29.4626" stroke="none"/>
    <path fill="#FFFFFF" d="M28,48c0.2704-0.3562,3.3099-8.2177,8.4211-8.0038C41.0265,40.1889,43.6499,47.5372,44,48 C38.6667,48,33.3333,48,28,48z" stroke="none"/>
    <path fill="#fcea2b" d="M52.52,63c0.4217-4.1147,0.48-3.2895,0.3874-6.0694c-0.6439-1.2632-1.4852-3.2486-1.8075-5.7513 c-0.2526-1.9615,0.0126-2.6953,0.3615-7.0169c0.459-5.6858,0.2095-7.0107,0.9037-7.1508c1.2458-0.2515,3.9016,3.6422,5.2416,7.1508 c1.4226,3.7249,1.0845,9.2613,1.0845,9.2613L60,58.8838" stroke="none"/>
    <path fill="#fcea2b" d="M19.48,63c-0.4217-4.1147-0.48-3.2895-0.3874-6.0694c0.6439-1.2632,1.4852-3.2486,1.8075-5.7513 c0.2526-1.9615-0.0126-2.6953-0.3615-7.0169c-0.459-5.6858-0.2095-7.0107-0.9037-7.1508 c-1.2458-0.2515-3.9016,3.6422-5.2416,7.1508c-1.4226,3.7249-1.0845,9.2613-1.0845,9.2613L12,58.8838" stroke="none"/>
  </g>
  <g id="hair"/>
  <g id="skin"/>
  <g id="skin-shadow"/>
  <g id="line">
    <path fill="none" stroke="#000000" stroke-width="2" stroke-linecap="round" stroke-linejoin="round" stroke-miterlimit="10" d="M22,23c1-1,4-7,10-2"/>
    <path fill="none" stroke="#000000" stroke-width="2" stroke-linecap="round" stroke-linejoin="round" stroke-miterlimit="10" d="M51,23c-1-1-4-7-10-2"/>
    <path fill="none" stroke="#000000" stroke-width="2" stroke-miterlimit="10" d="M31.7799,29.4626 c0,2.4645-2.0004,4.4626-4.4626,4.4626s-4.4626-1.9981-4.4626-4.4626c0-2.4622,2.0004-4.4626,4.4626-4.4626 S31.7799,27.0004,31.7799,29.4626"/>
    <path fill="#000000" d="M29.3173,29.9252c0,1.1045-0.8965,2-2,2c-1.1035,0-2-0.8955-2-2c0-1.1035,0.8965-2,2-2 C28.4208,27.9252,29.3173,28.8217,29.3173,29.9252" stroke="none"/>
    <path fill="none" stroke="#000000" stroke-width="2" stroke-miterlimit="10" d="M49.7799,29.4626 c0,2.4645-2.0004,4.4626-4.4626,4.4626c-2.4622,0-4.4626-1.9981-4.4626-4.4626c0-2.4622,2.0004-4.4626,4.4626-4.4626 C47.7795,25,49.7799,27.0004,49.7799,29.4626"/>
    <path fill="#000000" d="M47.3173,29.9252c0,1.1045-0.8965,2-2,2c-1.1035,0-2-0.8955-2-2c0-1.1035,0.8965-2,2-2 C46.4208,27.9252,47.3173,28.8217,47.3173,29.9252" stroke="none"/>
    <path fill="none" stroke="#000000" stroke-width="2" stroke-linecap="round" stroke-linejoin="round" stroke-miterlimit="10" d="M28,48c0.2704-0.3562,1-8,8.4211-8.0038C43,39.9929,43.6499,47.5372,44,48C38.6667,48,33.3333,48,28,48z"/>
    <path fill="none" stroke="#000000" stroke-width="2" stroke-linecap="round" stroke-linejoin="round" stroke-miterlimit="10" d="M47.3294,54.0207C43.9853,55.9172,40.1191,57,36,57c-3.9935,0-7.7494-1.0178-11.0222-2.8082"/>
    <path fill="none" stroke="#000000" stroke-width="2" stroke-linecap="round" stroke-linejoin="round" stroke-miterlimit="10" d="M13.3921,38.2514C13.1346,36.8736,13,35.4525,13,34c0-12.7025,10.2975-23,23-23s23,10.2975,23,23 c0,1.0729-0.0735,2.1287-0.2156,3.1626"/>
    <path fill="none" stroke="#000000" stroke-width="2" stroke-linecap="round" stroke-linejoin="round" stroke-miterlimit="10" d="M19.48,62c-0.4217-4.1147-0.48-2.2895-0.3874-5.0694c0.6439-1.2632,1.4852-3.2486,1.8075-5.7513 c0.2526-1.9615-0.0126-2.6953-0.3615-7.0169c-0.459-5.6858-0.2095-7.0107-0.9037-7.1508 c-1.2458-0.2515-3.9016,3.6422-5.2416,7.1508c-1.4226,3.7249-1.0845,9.2613-1.0845,9.2613L12,57.8838"/>
    <path fill="none" stroke="#000000" stroke-width="2" stroke-linecap="round" stroke-linejoin="round" stroke-miterlimit="10" d="M52.52,62c0.4217-4.1147,0.48-2.2895,0.3874-5.0694c-0.6439-1.2632-1.4852-3.2486-1.8075-5.7513 c-0.2526-1.9615,0.0126-2.6953,0.3615-7.0169c0.459-5.6858,0.2095-7.0107,0.9037-7.1508c1.2458-0.2515,3.9016,3.6422,5.2416,7.1508 c1.4226,3.7249,1.0845,9.2613,1.0845,9.2613L60,57.8838"/>
  </g>
</svg>
