<?xml version="1.0" encoding="utf-8"?>
<!-- Generator: Adobe Illustrator 21.1.0, SVG Export Plug-In . SVG Version: 6.00 Build 0)  -->
<svg version="1.1" id="emoji" xmlns="http://www.w3.org/2000/svg" xmlns:xlink="http://www.w3.org/1999/xlink" x="0px" y="0px"
	 viewBox="0 0 72 72" enable-background="new 0 0 72 72" xml:space="preserve">
<g id="_xD83D__xDE3D__1_">
	<path fill="none" stroke="#1D1D1B" stroke-width="2" stroke-linecap="round" stroke-linejoin="round" stroke-miterlimit="10" d="
		M64,56.1"/>
	<path fill="#F4AA41" d="M58.7,49.7C55.1,58.8,46,64.9,35.5,64.9c-9.1,0-19.3-5.8-22.9-15l-0.1-0.3c-1.1-2.9-2-6.4-2-9.6l3.7-33.4
		l11.2,11.1c2.9-1.2,6.1-1.9,9.5-1.9H36c3.4,0,6.6,0.7,9.5,1.9L56.7,6.6l3.7,33.9C60.5,43.7,59.8,46.8,58.7,49.7"/>
	<path fill="#E27022" d="M35.5,64.9c10.6,0.3,20.4-6,24-15.1l0.1-0.2c1.1-2.9,2-6.9,2-10.2L56.7,6.6"/>
	
		<line fill="none" stroke="#000000" stroke-width="2" stroke-linecap="round" stroke-linejoin="round" stroke-miterlimit="10" x1="62" y1="55.1" x2="52.6" y2="49.9"/>
	<path fill="none" stroke="#1D1D1B" stroke-width="2" stroke-linecap="round" stroke-linejoin="round" stroke-miterlimit="10" d="
		M52.6,47.8"/>
	<path fill="none" stroke="#1D1D1B" stroke-width="2" stroke-linecap="round" stroke-linejoin="round" stroke-miterlimit="10" d="
		M62,53"/>
	
		<line fill="none" stroke="#000000" stroke-width="2" stroke-linecap="round" stroke-linejoin="round" stroke-miterlimit="10" x1="57.8" y1="60.3" x2="48.5" y2="55.1"/>
	<path fill="none" stroke="#1D1D1B" stroke-width="2" stroke-linecap="round" stroke-linejoin="round" stroke-miterlimit="10" d="
		M46.4,56.1"/>
	<path fill="none" stroke="#1D1D1B" stroke-width="2" stroke-linecap="round" stroke-linejoin="round" stroke-miterlimit="10" d="
		M55.8,61.3"/>
	<path fill="none" stroke="#000000" stroke-width="2" stroke-linecap="round" stroke-linejoin="round" stroke-miterlimit="10" d="
		M13.3,48.9c-1.1-2.8-1.7-5.8-1.7-9l3.6-32.8l11,10.7c2.9-1.2,6-1.9,9.3-1.9h1c3.3,0,6.4,0.7,9.3,1.9l11-10.7L60.4,40
		c0,3.2-0.6,6.2-1.7,9"/>
	<path fill="none" stroke="#000000" stroke-width="2" stroke-linecap="round" stroke-linejoin="round" stroke-miterlimit="10" d="
		M22.8,60.3c3.7,2.3,8,3.6,12.7,3.6h1c4.6,0,9-1.3,12.7-3.6"/>
	
		<line fill="none" stroke="#000000" stroke-width="2" stroke-linecap="round" stroke-linejoin="round" stroke-miterlimit="10" x1="10" y1="55.1" x2="19.4" y2="49.9"/>
	<path fill="none" stroke="#1D1D1B" stroke-width="2" stroke-linecap="round" stroke-linejoin="round" stroke-miterlimit="10" d="
		M19.4,47.8"/>
	
		<line fill="none" stroke="#000000" stroke-width="2" stroke-linecap="round" stroke-linejoin="round" stroke-miterlimit="10" x1="14.2" y1="60.3" x2="23.5" y2="55.1"/>
	<path fill="none" stroke="#1D1D1B" stroke-width="2" stroke-linecap="round" stroke-linejoin="round" stroke-miterlimit="10" d="
		M25.6,56.1"/>
	<path fill="none" stroke="#1D1D1B" stroke-width="2" stroke-linecap="round" stroke-linejoin="round" stroke-miterlimit="10" d="
		M16.2,61.3"/>
	<path fill="none" stroke="#000000" stroke-width="2" stroke-linecap="round" stroke-linejoin="round" stroke-miterlimit="10" d="
		M55.2,39.8c-3.1-4.2-9.4-4.2-11.4,0"/>
	<path fill="none" stroke="#000000" stroke-width="2" stroke-linecap="round" stroke-linejoin="round" stroke-miterlimit="10" d="
		M16.8,39.8c3.1-4.2,9.4-4.2,11.4,0"/>
	<path fill="none" stroke="#000000" stroke-width="2" stroke-linecap="round" stroke-linejoin="round" stroke-miterlimit="10" d="
		M35.6,48.6c0,0,10.9,3.3,0,5.8c0,0,10.9,3.1,0,5.1"/>
</g>
</svg>
