<svg id="emoji" xmlns="http://www.w3.org/2000/svg" viewBox="0 0 72 72">
  <g id="color">
    <path fill="#f4aa41" d="M58.6655,49.6992c-3.5976,9.1169-12.6313,15.0413-23.2072,15.0413c-9.1173,0-19.256-5.7342-22.8537-14.8511 l-0.1262-0.3127c-1.1415-2.8597-0.9573-6.3599-0.9573-9.6324L15.188,7.573l10.2281,10.0799 c2.9226-1.2477,6.137-1.9388,9.5103-1.9388H35.99c3.3734,0,6.5877,0.6911,9.5103,1.9388L56.7285,6.573l3.7223,33.8758 c0,3.2725-0.6283,6.3969-1.7707,9.2566" stroke="none"/>
    <path fill="#e27022" d="M35.4583,64.7404C46.0671,65.0829,55.8124,58.8499,59.41,49.733l0.1109-0.231 c1.1415-2.8597,0.9579-6.8965,0.9579-10.169l-3.7503-31.76" stroke="none"/>
    <path fill="#ea5a47" stroke="none" stroke-width="2" stroke-linecap="round" stroke-linejoin="round" stroke-miterlimit="10" d="M33.4302,54.5338C37.7056,57.3352,43,54,43.7606,50.8508l1.0825-0.96c0,0-4.7131,3.6039-7.9674-1.0495 c0.2153,4.0063-1.5621,5.151-3.3756,5.7404"/>
    <path fill="#FFFFFF" stroke="none" stroke-width="2" stroke-linecap="round" stroke-linejoin="round" stroke-miterlimit="10" d="M55.1059,34.4946c0,0-13.9059,5.8784-13.2519,6.6249C55.1598,53.2227,56.2039,36.1805,55.1059,34.4946z"/>
    <path fill="#FFFFFF" stroke="none" stroke-width="2" stroke-linecap="round" stroke-linejoin="round" stroke-miterlimit="10" d="M16.8941,34.4946c0,0,12.8659,6.9184,13.2519,6.6249C17.3013,53.8574,15.5971,37.2601,16.8941,34.4946z"/>
  </g>
  <g id="hair"/>
  <g id="skin"/>
  <g id="skin-shadow"/>
  <g id="line">
    <path fill="none" stroke="#000000" stroke-width="2" stroke-linecap="round" stroke-linejoin="round" stroke-miterlimit="10" d="M64,56.0731"/>
    <line fill="none" stroke="#000000" stroke-width="2" stroke-linecap="round" stroke-linejoin="round" stroke-miterlimit="10" x1="34" y1="47.653" x2="40.16" y2="47.653"/>
    <path fill="none" stroke="#000000" stroke-width="2" stroke-linecap="round" stroke-linejoin="round" stroke-miterlimit="10" d="M33.4302,54.5338C37.7056,57.3352,43,54,43.7606,50.8508l1.0825-0.96c0,0-4.7131,3.6039-7.9674-1.0495 c0.2153,4.0063-1.5621,5.151-3.3756,5.7404"/>
    <path fill="none" stroke="#000000" stroke-width="2" stroke-linecap="round" stroke-linejoin="round" stroke-miterlimit="10" d="M55.1059,34.4946c0,0-13.9059,5.8784-13.2519,6.6249C55.1598,53.2227,56.2039,36.1805,55.1059,34.4946z"/>
    <line fill="none" stroke="#000000" stroke-width="2" stroke-linecap="round" stroke-linejoin="round" stroke-miterlimit="10" x1="62" y1="54.933" x2="52.64" y2="49.733"/>
    <path fill="none" stroke="#000000" stroke-width="2" stroke-linecap="round" stroke-linejoin="round" stroke-miterlimit="10" d="M52.64,47.653"/>
    <path fill="none" stroke="#000000" stroke-width="2" stroke-linecap="round" stroke-linejoin="round" stroke-miterlimit="10" d="M62,52.853"/>
    <line fill="none" stroke="#000000" stroke-width="2" stroke-linecap="round" stroke-linejoin="round" stroke-miterlimit="10" x1="57.84" y1="60.133" x2="48.48" y2="54.933"/>
    <path fill="none" stroke="#000000" stroke-width="2" stroke-linecap="round" stroke-linejoin="round" stroke-miterlimit="10" d="M46.4,55.973"/>
    <path fill="none" stroke="#000000" stroke-width="2" stroke-linecap="round" stroke-linejoin="round" stroke-miterlimit="10" d="M55.76,61.173"/>
    <path fill="none" stroke="#000000" stroke-width="2" stroke-linecap="round" stroke-linejoin="round" stroke-miterlimit="10" d="M13.2916,48.8047c-1.1172-2.7655-1.7316-5.787-1.7316-8.9517l3.64-32.76l10.9799,10.7149c2.858-1.2066,6.0013-1.8749,9.3001-1.8749 h1.04c3.2988,0,6.4411,0.6683,9.3011,1.8749L56.8,7.093l3.64,32.76c0,3.1647-0.6144,6.1862-1.7316,8.9517"/>
    <path fill="none" stroke="#000000" stroke-width="2" stroke-linecap="round" stroke-linejoin="round" stroke-miterlimit="10" d="M22.8253,60.1553c3.6715,2.2933,8.0082,3.6176,12.6547,3.6176h1.04c4.6465,0,8.9842-1.3243,12.6547-3.6176"/>
    <path fill="none" stroke="#000000" stroke-width="2" stroke-linecap="round" stroke-linejoin="round" stroke-miterlimit="10" d="M16.8941,34.4946c0,0,12.8659,6.9184,13.2519,6.6249C17.3013,53.8574,15.5971,37.2601,16.8941,34.4946z"/>
    <line fill="none" stroke="#000000" stroke-width="2" stroke-linecap="round" stroke-linejoin="round" stroke-miterlimit="10" x1="10" y1="54.933" x2="19.36" y2="49.733"/>
    <path fill="none" stroke="#000000" stroke-width="2" stroke-linecap="round" stroke-linejoin="round" stroke-miterlimit="10" d="M19.36,47.653"/>
    <path fill="none" stroke="#000000" stroke-width="2" stroke-linecap="round" stroke-linejoin="round" stroke-miterlimit="10" d="M10,52.853"/>
    <line fill="none" stroke="#000000" stroke-width="2" stroke-linecap="round" stroke-linejoin="round" stroke-miterlimit="10" x1="14.16" y1="60.133" x2="23.52" y2="54.933"/>
    <path fill="none" stroke="#000000" stroke-width="2" stroke-linecap="round" stroke-linejoin="round" stroke-miterlimit="10" d="M25.6,55.973"/>
    <path fill="none" stroke="#000000" stroke-width="2" stroke-linecap="round" stroke-linejoin="round" stroke-miterlimit="10" d="M16.24,61.173"/>
    <circle cx="23.52" cy="39.333" r="2.08" fill="#000000" stroke="none"/>
    <circle cx="48.48" cy="39.333" r="2.08" fill="#000000" stroke="none"/>
  </g>
</svg>
