<?xml version="1.0" encoding="utf-8"?>
<!-- Generator: Adobe Illustrator 21.1.0, SVG Export Plug-In . SVG Version: 6.00 Build 0)  -->
<svg version="1.1" id="emoji" xmlns="http://www.w3.org/2000/svg" xmlns:xlink="http://www.w3.org/1999/xlink" x="0px" y="0px"
	 viewBox="0 0 72 72" enable-background="new 0 0 72 72" xml:space="preserve">
<g>
	<g>
		<defs>
			<polygon id="SVGID_1_" points="35.6,15 26.9,16.7 21.6,19.7 16.8,24.8 13.3,32.1 13.3,44.4 18.9,53.8 26.9,59.3 35.6,61 
				42.8,59.8 50.5,55.5 55.6,49.3 58.6,40.1 57.8,32.1 54,24.2 49.8,19.9 42.6,16.1 			"/>
		</defs>
		<use xlink:href="#SVGID_1_"  overflow="visible" fill="#FCEA2B"/>
		<clipPath id="SVGID_2_">
			<use xlink:href="#SVGID_1_"  overflow="visible"/>
		</clipPath>
		<rect x="8.3" y="10" clip-path="url(#SVGID_2_)" fill="#FCEA2B" width="55.2" height="56"/>
	</g>
	<circle fill="none" stroke="#FCEA2B" stroke-width="2" stroke-miterlimit="10" cx="35.6" cy="38" r="23"/>
	<path fill="none" stroke="#000000" stroke-width="2" stroke-linecap="round" stroke-linejoin="round" stroke-miterlimit="10" d="
		M44.3,16.7c-0.4-0.2-0.7-0.3-1.1-0.4c-2.4-0.8-5-1.3-7.7-1.3c-12.7,0-23,10.3-23,23c0,12.7,10.3,23,23,23c12.7,0,23-10.3,23-23
		c0-2.8-0.5-5.5-1.4-8"/>
	
		<circle fill="#FFFFFF" stroke="#000000" stroke-width="2" stroke-linecap="round" stroke-linejoin="round" stroke-miterlimit="10" cx="35.2" cy="50.1" r="3.4"/>
	<path fill="none" stroke="#000000" stroke-width="2" stroke-linecap="round" stroke-linejoin="round" stroke-miterlimit="10" d="
		M49.7,34.8c-3.2,2.3-7.5,2.1-10,0"/>
	<path fill="none" stroke="#000000" stroke-width="2" stroke-linecap="round" stroke-linejoin="round" stroke-miterlimit="10" d="
		M31.3,34.8c-3.2,2.3-7.5,2.1-10,0"/>
	<g>
		<path fill="#61B2E4" d="M41,24.2l2.4-3.1c0.2-0.3,0.4-0.5,0.7-0.8v0h-2.9v-0.8h4l0,0.6l-2.4,3.1c-0.2,0.3-0.4,0.6-0.7,0.8v0h3.1
			v0.8H41V24.2z"/>
	</g>
	<g>
		<path fill="#61B2E4" d="M52.5,25.6l4.2-5.4c0.4-0.5,0.8-0.9,1.2-1.4v0h-5v-1.4h7.1l0,1.1l-4.1,5.4c-0.4,0.5-0.8,1-1.2,1.5v0H60
			v1.3h-7.5V25.6z"/>
	</g>
	<g>
		<path fill="#61B2E4" d="M46.4,20.7l3.2-4.1c0.3-0.4,0.6-0.7,0.9-1.1v0h-3.8v-1H52l0,0.8l-3.1,4.1c-0.3,0.4-0.6,0.7-0.9,1.1v0h4.1
			v1h-5.7V20.7z"/>
	</g>
</g>
</svg>
