<svg version="1.1" id="emoji" xmlns="http://www.w3.org/2000/svg" x="0" y="0" viewBox="0 0 72 72" enable-background="new 0 0 72 72" xml:space="preserve">
  <g id="color">
    <circle fill="#FCEA2B" cx="35.5" cy="36.0565" r="23"/>
    <path fill="#FFFFFF" d="M42.6797,51.9266H28.3106c0-4,2.3896-7.1796,7.1797-7.1796c4.789,0,7.2099,3.1894,7.2099,7.1796"/>
  </g>
  <g id="hair"/>
  <g id="skin"/>
  <g id="skin-shadow"/>
  <g id="line">
    <path fill="none" stroke="#000000" stroke-width="2" stroke-linecap="round" stroke-linejoin="round" stroke-miterlimit="10" d="M42.6797,51.9266H28.3106c0-4,2.3896-7.1796,7.1797-7.1796c4.789,0,7.2099,3.1894,7.2099,7.1796"/>
    <path fill="none" stroke="#000000" stroke-width="2" stroke-linecap="round" stroke-linejoin="round" stroke-miterlimit="10" d="M19.7793,27.2567c0.7207-1.3857,1.9278-2.4541,3.3907-3c1.4052-0.7002,3.0205-0.8486,4.5302-0.4209"/>
    <path fill="none" stroke="#000000" stroke-width="2" stroke-linecap="round" stroke-linejoin="round" stroke-miterlimit="10" d="M50.3897,27.2567c-1.582-2.7724-4.8037-4.1699-7.9092-3.4306"/>
    <circle fill="none" stroke="#000000" stroke-width="2" stroke-linecap="round" stroke-linejoin="round" stroke-miterlimit="10" cx="35.5" cy="36.0565" r="23"/>
    <path fill="none" stroke="#000000" stroke-width="2" stroke-linecap="round" stroke-linejoin="round" stroke-miterlimit="10" d="M28.3106,51.9266c0-4,2.3896-7.1796,7.1797-7.1796c4.789,0,7.2099,3.1894,7.2099,7.1796"/>
    <path fill="none" stroke="#000000" stroke-width="2" stroke-linecap="round" stroke-linejoin="round" stroke-miterlimit="10" d="M42.6797,51.9266"/>
    <circle cx="43.6758" cy="36.037" r="2.5556"/>
    <circle cx="26.4258" cy="36.037" r="2.5556"/>
    <path fill="none" stroke="#000000" stroke-width="2" stroke-linecap="round" stroke-linejoin="round" stroke-miterlimit="10" d="M19.7793,27.2567c0.7207-1.3857,1.9278-2.4541,3.3907-3c1.4052-0.7002,3.0205-0.8486,4.5302-0.4209"/>
    <path fill="none" stroke="#000000" stroke-width="2" stroke-linecap="round" stroke-linejoin="round" stroke-miterlimit="10" d="M50.3897,27.2567c-1.582-2.7724-4.8037-4.1699-7.9092-3.4306"/>
  </g>
</svg>
