<svg id="emoji" xmlns="http://www.w3.org/2000/svg" viewBox="0 0 72 72">
  <g id="color">
    <path d="M22.4944,65l-.2186-2.8134A23.4263,23.4263,0,0,1,17.94,58.6693L21.9169,48.6c1.0234-2.5912,1.6347-3.5607,3.0234-2.5912,3.0068,2.0987,6.3457,2.9219,7.625,3.85,4.3281,3.6926,12.34,4.625,19.3405,1.46,3,0,9.5687,3.8215,9.5687,9.09v4.5458Z" fill="#92d3f5"/>
  </g>
  <g id="skin">
    <path d="M31.9068,32.5076v.957c0,7.6494,4.6093,13.6426,10.4941,13.6426S52.8951,41.114,52.8951,33.4646c0-4.6533-1.7784-7.5151-5.2842-11.1343a64.1459,64.1459,0,0,1-8.9883,5.772C35.9761,29.6165,32.3677,31.6716,31.9068,32.5076Z" fill="#a57939"/>
    <path d="M18.6281,55.99c-2.624-3.249-5.7119-4.458-6.2119-6.458-.543-2.169-3.1934-15.626-2.1924-19.8755a31.006,31.006,0,0,0,.25-7.6665c-.06-.998.8437-4.6875.8437-6.6875a15.0447,15.0447,0,0,1,.375-3.9375c1.1875-2.5625,4.2753-2,3.7813,0A15.5974,15.5974,0,0,1,15.63,7.5209c.1875-1.2813,3.6983-2.2188,3.1875,1.25A11.8885,11.8885,0,0,1,19.63,5.973a1.5474,1.5474,0,0,1,2.69,1.1729,7.51,7.51,0,0,1-.0381,1.0781s2.254-.1094,1.671,2.9116c-.19.9824-1.6328,10.23-1.6328,10.23.458-.458,1.4453-4.5068,3.0283-4.5068,2.1191,0,2,1.4575,2,1.4575s-.6026,1.4326-1.2813,2.6733c-1.0117,1.8506-2.2812,5.5-3.2812,6.5a45.7206,45.7206,0,0,1-5.2218,3L20.4738,42.74s.167.5381,2.496,2.2559" fill="#a57939"/>
  </g>
  <g id="hair">
    <path d="M59.7535,37.1893a23.7419,23.7419,0,0,1-1.1573-2.6329c-1.4726-3.2695-2.0234-4.4927-2.3486-10.5239.0273-3.6929-3.794-6.7842-7.4746-7.0928a1.0016,1.0016,0,0,1-.6885-.3433c-.0928-.0995-2.4082-2.6546-7.2432-2.6546-6.2,0-11.4412,3.3817-12.743,8.2259a18.5186,18.5186,0,0,0-.5645,6.1759,13.317,13.317,0,0,1-.7607,5.9608,38.8843,38.8843,0,0,1-3.12,4.7343L21.976,43.4776c.92.9473,9.7846,7.629,11.505,7.5535,4.953,1.2891,10.8956,2.9162,18.7,0A8.3428,8.3428,0,0,1,56.39,52.5446a22.7842,22.7842,0,0,0,2.972-2.33C60.55,49.5,62.4869,41.9324,59.7535,37.1893ZM41.56,47.93c-10.9558-.0471-10.1044-15.429-10.1044-15.429C33.7691,30.1075,46.95,22.33,46.95,22.33c6.0806,1.9552,6.3829,10.9722,6.3829,10.9722S52.5159,47.9767,41.56,47.93Z" fill="#000000"/>
  </g>
  <g id="line">
    <path d="M48.3323,32.9718a2,2,0,1,1-2-2,2,2,0,0,1,2,2"/>
    <path d="M40.3323,32.9718a2,2,0,1,1-2-2,2,2,0,0,1,2,2"/>
    <path d="M39.4593,40.9718a6.5535,6.5535,0,0,0,6,0" fill="none" stroke="#000" stroke-linecap="round" stroke-linejoin="round" stroke-width="2"/>
    <path d="M22.4738,63.99a2.9818,2.9818,0,0,0-.8419-2.6982C18.4738,58.846,17.4738,57.99,17.4738,57.99l5-12" fill="none" stroke="#000" stroke-linecap="round" stroke-linejoin="round" stroke-width="2"/>
    <path d="M20.1828,6.7816c-.709,3.9248-1.125,6.6318-1.709,11.208" fill="none" stroke="#000" stroke-linecap="round" stroke-linejoin="round" stroke-width="2"/>
    <path d="M21.5421,21.3651C21.835,19.2025,22.64,14.6146,23.0988,9.99" fill="none" stroke="#000" stroke-linecap="round" stroke-linejoin="round" stroke-width="2"/>
    <path d="M61.4738,63.99s.0908-2.25.0908-3c0-7-9.0908-10-9.0908-10-7,2-11,2-16,1-3.2754-.6553-10.0273-4.59-15-8,0,0-3.9093-9.5-3.9093-13.5005,0-.5825,5.5518-1.9936,7-6.5.7813-2.4307,1.8106-5.6738,1.8106-5.6738" fill="none" stroke="#000" stroke-linecap="round" stroke-linejoin="round" stroke-width="2"/>
    <path d="M14.4738,17.99c.86-5.0757,1.5645-8.6211,2-10" fill="none" stroke="#000" stroke-linecap="round" stroke-linejoin="round" stroke-width="2"/>
    <path d="M18.6281,55.221c-5-4-6.5879-5.12-7.1543-8.2314-2-11-1-14.5811-1-18,0-1,.0156,0,.0156-6,.001-.812.5078-4.3931.9844-7a25.2783,25.2783,0,0,1,1-4" fill="none" stroke="#000" stroke-linecap="round" stroke-linejoin="round" stroke-width="2"/>
    <path d="M24.1413,40.2425c.6148-1.774,1.4978-3.4939,2.1913-5.2759,1.6357-4.2-.209-6.4512,1.291-12.0342,1.48-5.5,7.2773-8.9658,13.709-8.9658,5.4,0,8,3,8,3a8.1321,8.1321,0,0,1,7.4052,8.0371c.3867,7.18,1.0244,7.1523,3.4287,12.8222A11.5986,11.5986,0,0,1,58.72,49.489" fill="none" stroke="#000" stroke-linecap="round" stroke-linejoin="round" stroke-width="2"/>
    <path d="M31.3326,33.9666c0,8,5,14,11,14s11-6,11-14c0-5-2-8-6-12-4,4-16,9-16,11Z" fill="none" stroke="#000" stroke-linejoin="round" stroke-width="2"/>
  </g>
</svg>
