<?xml version="1.0" encoding="utf-8"?>
<!-- Generator: Adobe Illustrator 21.1.0, SVG Export Plug-In . SVG Version: 6.00 Build 0)  -->
<svg version="1.1" id="emoji" xmlns="http://www.w3.org/2000/svg" xmlns:xlink="http://www.w3.org/1999/xlink" x="0px" y="0px"
	 viewBox="0 0 72 72" enable-background="new 0 0 72 72" xml:space="preserve">
<g id="_xD83D__xDE4C__1_">
	<path fill="#FDEB36" d="M57.6,36l-0.2-18.7l0,0.8c0-3.5,6.5-4.5,6.5,0.8l0.1,6.4l0.1,12.2l-0.1-14.1c0-3.2,5.7-3.3,5.7,0.8l0,24.4
		c0,8.8-7.1,15.8-15.9,15.8s-15.9-7.1-15.9-15.9c0-3.1-0.3-8.3-0.3-15.4c2.2-2.2,5.7,0.8,6.9,3.6l0,4.9l0-23.1
		c0-3.7,6.6-3.9,6.6,0.6l0-2.9c0-3.9,6.4-5.3,6.4,1.7"/>
	
		<line fill="#FCEA33" stroke="#1D1D1B" stroke-width="2" stroke-linecap="round" stroke-linejoin="round" stroke-miterlimit="10" x1="20.6" y1="35.2" x2="20.6" y2="19.2"/>
	
		<path fill="#FCEA33" stroke="#1D1D1B" stroke-width="2" stroke-linecap="round" stroke-linejoin="round" stroke-miterlimit="10" d="
		M2,24.3"/>
	
		<path fill="#FCEA33" stroke="#1D1D1B" stroke-width="2" stroke-linecap="round" stroke-linejoin="round" stroke-miterlimit="10" d="
		M3.5,21.3"/>
	<path fill="#FCEA33" d="M14,36l0.2-18.7l0,0.8c0-3.5-6.5-4.5-6.5,0.8l-0.1,6.4L7.5,37.6l0.1-14.1c0-3.2-5.7-3.3-5.7,0.8l0,24.4
		C2,57.5,9,64.5,17.8,64.5s15.9-7.1,15.9-15.9c0-3.1,0.3-8.3,0.3-15.4c-2.2-2.2-5.7,0.8-6.9,3.6l0,4.9l0-23.1c0-3.7-6.6-3.9-6.6,0.6
		l0-2.9c0-3.9-6.4-5.3-6.4,1.7"/>
	
		<line fill="none" stroke="#1D1D1B" stroke-width="2" stroke-linecap="round" stroke-linejoin="round" stroke-miterlimit="10" x1="51" y1="37.6" x2="51" y2="19.2"/>
	<path fill="none" stroke="#1D1D1B" stroke-width="2" stroke-linecap="round" stroke-linejoin="round" stroke-miterlimit="10" d="
		M57.6,36l-0.2-18.7l0,0.8c0-3.5,6.5-4.5,6.5,0.8l0.1,6.4l0.1,12.2l-0.1-14.1c0-3.2,5.7-3.3,5.7,0.8l0,24.4
		c0,8.8-7.1,15.8-15.9,15.8s-15.9-7.1-15.9-15.9c0-3.1-0.3-8.3-0.3-15.4c2.2-2.2,5.7,0.8,6.9,3.6l0,4.9l0-23.1
		c0-3.7,6.6-3.9,6.6,0.6l0-2.9c0-3.9,6.4-5.3,6.4,1.7"/>
	
		<line fill="none" stroke="#1D1D1B" stroke-width="2" stroke-linecap="round" stroke-linejoin="round" stroke-miterlimit="10" x1="51" y1="37.6" x2="51" y2="19.2"/>
	
		<line fill="none" stroke="#1D1D1B" stroke-width="2" stroke-linecap="round" stroke-linejoin="round" stroke-miterlimit="10" x1="20.6" y1="37.6" x2="20.6" y2="19.2"/>
	<path fill="none" stroke="#1D1D1B" stroke-width="2" stroke-linecap="round" stroke-linejoin="round" stroke-miterlimit="10" d="
		M2,24.3"/>
	<path fill="none" stroke="#1D1D1B" stroke-width="2" stroke-linecap="round" stroke-linejoin="round" stroke-miterlimit="10" d="
		M3.5,21.3"/>
	<path fill="none" stroke="#1D1D1B" stroke-width="2" stroke-linecap="round" stroke-linejoin="round" stroke-miterlimit="10" d="
		M14,36l0.2-18.7l0,0.8c0-3.5-6.5-4.5-6.5,0.8l-0.1,6.4L7.5,37.6l0.1-14.1c0-3.2-5.7-3.3-5.7,0.8l0,24.4C2,57.5,9,64.5,17.8,64.5
		s15.9-7.1,15.9-15.9c0-3.1,0.3-8.3,0.3-15.4c-2.2-2.2-5.7,0.8-6.9,3.6l0,4.9l0-23.1c0-3.7-6.6-3.9-6.6,0.6l0-2.9
		c0-3.9-6.4-5.3-6.4,1.7"/>
</g>
</svg>
