<?xml version="1.0" encoding="utf-8"?>
<!-- Generator: Adobe Illustrator 21.1.0, SVG Export Plug-In . SVG Version: 6.00 Build 0)  -->
<svg version="1.1" id="emoji" xmlns="http://www.w3.org/2000/svg" xmlns:xlink="http://www.w3.org/1999/xlink" x="0px" y="0px"
	 viewBox="0 0 72 72" enable-background="new 0 0 72 72" xml:space="preserve">
<g id="_xD83D__xDE49__1_">
	<circle fill="#83674C" cx="36.1" cy="39" r="23"/>
	<path fill="#B59054" d="M26.1,61c-1-3.4-1.4-6-0.1-12.2c-0.4-0.1-5.3-1.2-7-5.7c-1.6-4.1,0.2-8.8,3.7-11c4.2-2.6,10.5-1.1,13.5,4
		c3-5.1,9.3-6.5,13.5-4c3.6,2.2,5,7,3.7,11c-1.6,4.7-6.3,6.2-6.7,6.3c0.9,4.1,1.2,6.2,0.9,8.1c-0.1,0.6-0.7,1.1-1.4,2.6
		c-0.4,0.9-3.7,0.5-4,1"/>
	<circle fill="#010101" cx="26.8" cy="41.2" r="3"/>
	<circle fill="#010101" cx="45.4" cy="41.2" r="3"/>
	
		<path fill="#FFFFFF" stroke="#010101" stroke-width="2" stroke-linecap="round" stroke-linejoin="round" stroke-miterlimit="10" d="
		M42,52c-0.2,0.3-0.8,6-6.3,6c-5,0-5.4-5.7-5.7-6C34,52,38,52,42,52z"/>
	<circle fill="#010101" cx="34.1" cy="47.5" r="1"/>
	<circle fill="#010101" cx="37.7" cy="47.5" r="1"/>
	<path fill="#83674C" d="M18.7,22.3c-0.3,0-7.1-2.2-10.3,3.9c-2.8,5.4,0.1,9.8,3.5,13.3"/>
	<path fill="#83674C" d="M53.2,22.3c0.3,0,7.1-2.2,10.3,3.9c2.8,5.4-0.1,9.8-3.5,13.3"/>
	<path fill="none" stroke="#010101" stroke-width="2" stroke-linecap="round" stroke-linejoin="round" stroke-miterlimit="10" d="
		M11.7,23.2c-1.2,0.6-2.3,1.7-3.2,3.4c-1.7,3.3-1.3,6.3,0.1,8.8"/>
	<path fill="none" stroke="#010101" stroke-width="2" stroke-linecap="round" stroke-linejoin="round" stroke-miterlimit="10" d="
		M60.5,23.2c1.2,0.7,2.2,1.7,3.1,3.3c1.6,3.1,1.3,5.9,0.2,8.3"/>
	<path fill="none" stroke="#010101" stroke-width="2" stroke-linecap="round" stroke-linejoin="round" stroke-miterlimit="10" d="
		M50,57.2c-3.9,3-8.8,4.8-14.1,4.8c-5.1,0-9.8-1.7-13.7-4.5"/>
	<path fill="none" stroke="#010101" stroke-width="2" stroke-linecap="round" stroke-linejoin="round" stroke-miterlimit="10" d="
		M23.8,19.4C27.4,17.2,31.5,16,36,16c4.6,0,8.9,1.3,12.5,3.7"/>
	<path fill="#B59054" d="M18.9,53.5c-0.5-6,0-0.1-0.4-6.1c0.7-1.9,1.7-4.8,2.1-8.4c0.3-2.9,0-4-0.4-10.3c-0.5-8.3-0.2-10.3-1-10.5
		c-1.4-0.4-4.4,5.3-6,10.5c-1.6,5.5-1.6,10.3-1.2,13.6c-0.9,7.7-0.3-2.4-1.2,5.3"/>
	<path fill="#83674C" d="M19,61c-0.5-6.1-0.5-13.5-0.5-13.5l-7.2-5.2c0,0,0.7-2.2-1.3,5.3"/>
	<path fill="none" stroke="#010101" stroke-width="2" stroke-linecap="round" stroke-linejoin="round" stroke-miterlimit="10" d="
		M18.9,59.9c-0.5-6,0-6.4-0.4-12.5c0.7-1.9,1.7-4.8,2.1-8.4c0.3-2.9,0-4-0.4-10.3c-0.5-8.3-0.2-10.3-1-10.5c-1.4-0.4-4.4,5.3-6,10.5
		c-1.6,5.5-1.2,13.6-1.2,13.6l-1.2,5.3"/>
	<path fill="#B59054" d="M53.4,53.5c0.5-6,0-0.1,0.4-6.1c-0.7-1.9-1.7-4.8-2.1-8.4c-0.3-2.9,0-4,0.4-10.3c0.5-8.3,0.2-10.3,1-10.5
		c1.4-0.4,4.4,5.3,6,10.5c1.6,5.5,1.6,10.3,1.2,13.6c0.9,7.7,0.6-1.1,1.5,6.5"/>
	<path fill="#83674C" d="M53.4,62c0.5-6.4,0.5-14.3,0.5-14.3l7.4-5.4c0,0-1.4-1.2,0.7,6.7"/>
	<path fill="none" stroke="#010101" stroke-width="2" stroke-linecap="round" stroke-linejoin="round" stroke-miterlimit="10" d="
		M53.4,61c0.5-6,0-7.5,0.4-13.6c-0.7-1.9-1.7-4.8-2.1-8.4c-0.3-2.9,0-4,0.4-10.3c0.5-8.3,0.2-10.3,1-10.5c1.4-0.4,4.4,5.3,6,10.5
		c1.6,5.5,1.2,13.6,1.2,13.6l1.5,6.5"/>
</g>
</svg>
