<?xml version="1.0" encoding="utf-8"?>
<!-- Generator: Adobe Illustrator 21.1.0, SVG Export Plug-In . SVG Version: 6.00 Build 0)  -->
<svg version="1.1" id="lines" xmlns="http://www.w3.org/2000/svg" xmlns:xlink="http://www.w3.org/1999/xlink" x="0px" y="0px"
	 viewBox="0 0 72 72" enable-background="new 0 0 72 72" xml:space="preserve">
<g id="_xD83D__xDE45__1_">
	<path fill="#F1B31C" d="M26,39c-4,0-5-5.9-5-12.9S26,12,36,12s15,7.1,15,14.1S50,39,46,39"/>
	<path fill="#92D3F5" d="M17,61v-4c0-5,2.8-7.1,7-9.4c5.4-2.5,16.6-2.9,23.9-0.1C51.3,48.9,55,52,55,57v4"/>
	<path fill="#FCEA2B" d="M25.8,30.3c0,9,4,14.7,10.1,14.7C41.9,45,46,39.1,46,30.1c0-3,0-4.1,0-4.1c-3-3-7-8-7-8c-4,3-7,6-13,7
		C26,25,25.8,25.3,25.8,30.3z"/>
	<path fill="#FCEA2B" d="M42.6,38.4l8-7c0,0,1-1,2,0c1,1,0,2,0,2l-5,6"/>
	<path fill="#FCEA2B" d="M50,61L34,44l-3.6-4l-1-1l-6-4.6c0,0-1-1-2,0s0,2,0,2l3,3.6c0,0,1,4,2,6c0.6,1.3,3.6,2,3.6,2l2,2l8,11"/>
	<path fill="#FCEA2B" d="M22,61l16-17l3.6-4l1-1l6-4.6c0,0,1-1,2,0s0,2,0,2l-3,3.6c0,0-1,4-2,6c-0.6,1.3-3.6,2-3.6,2l-2,2l-8,11"/>
	<path fill="#FCEA2B" d="M29.4,38.4l-8-7c0,0-1-1-2,0c-1,1,0,2,0,2l5,6"/>
	<path fill="none" stroke="#040404" stroke-width="2" stroke-linecap="round" stroke-linejoin="round" d="M22,28c0-0.7,0-1.3,0-2
		c0-7,5-14,14-14c8.8,0,14,7,14,14c0,0.6,0,1.1,0,1.7"/>
	<path fill="#040404" d="M41.9,30c0,1.1-0.9,2-2,2c-1.1,0-2-0.9-2-2s0.9-2,2-2C41,28,41.9,28.9,41.9,30"/>
	<path fill="#040404" d="M33.9,30c0,1.1-0.9,2-2,2c-1.1,0-2-0.9-2-2s0.9-2,2-2C33,28,33.9,28.9,33.9,30"/>
	<path fill="none" stroke="#040404" stroke-width="2" stroke-linecap="round" stroke-linejoin="round" d="M47,30c-0.2-2.4-1-4-1-4
		c-3-3-7-8-7-8c-4,3-7,6-13,7c0,0-0.9,0.9-1,5.1"/>
	<path fill="none" stroke="#040404" stroke-width="2" stroke-linecap="round" stroke-linejoin="round" d="M34,38c1.8,0,1.6,0,4,0"/>
	<path fill="none" stroke="#040404" stroke-width="2" stroke-linecap="round" stroke-linejoin="round" d="M47.9,48.4
		C51.8,49.6,55,53,55,57v3"/>
	<path fill="none" stroke="#040404" stroke-width="2" stroke-linecap="round" stroke-linejoin="round" d="M17,60v-3
		c0-4,3.2-7.3,7-8.5"/>
	<path fill="none" stroke="#000000" stroke-width="2" stroke-linecap="round" stroke-linejoin="round" stroke-miterlimit="10" d="
		M42.6,38.4l8-7c0,0,1-1,2,0c1,1,0,2,0,2l-5,6"/>
	<path fill="none" stroke="#000000" stroke-width="2" stroke-linecap="round" stroke-linejoin="round" stroke-miterlimit="10" d="
		M29.4,38.4l-8-7c0,0-1-1-2,0c-1,1,0,2,0,2l5,6"/>
	
		<line fill="none" stroke="#000000" stroke-width="2" stroke-linecap="round" stroke-linejoin="round" stroke-miterlimit="10" x1="36" y1="54.9" x2="32" y2="60"/>
	<path fill="none" stroke="#000000" stroke-width="2" stroke-linecap="round" stroke-linejoin="round" stroke-miterlimit="10" d="
		M36,45.5l5.6-6.1l1-1l6-4.6c0,0,1-1,2,0s0,2,0,2l-3,3.6c0,0-1,4-2,6c-0.6,1.3-3.6,2-3.6,2l-2.1,2"/>
	
		<line fill="none" stroke="#000000" stroke-width="2" stroke-linecap="round" stroke-linejoin="round" stroke-miterlimit="10" x1="22" y1="60" x2="32" y2="49.4"/>
	<path fill="none" stroke="#000000" stroke-width="2" stroke-linecap="round" stroke-linejoin="round" stroke-miterlimit="10" d="
		M50,60L34,43.4l-3.6-4l-1-1l-6-4.6c0,0-1-1-2,0s0,2,0,2l3,3.6c0,0,1,4,2,6c0.6,1.3,3.6,2,3.6,2l2,2L40,60"/>
</g>
</svg>
