<?xml version="1.0" encoding="utf-8"?>
<!-- Generator: Adobe Illustrator 21.1.0, SVG Export Plug-In . SVG Version: 6.00 Build 0)  -->
<svg version="1.1" xmlns="http://www.w3.org/2000/svg" xmlns:xlink="http://www.w3.org/1999/xlink" x="0px" y="0px"
	 viewBox="0 0 72 72" enable-background="new 0 0 72 72" xml:space="preserve">
<g id="color">
</g>
<g id="emoji">
	<g id="_xD83D__xDE46__1_">
		<path fill="#F1B31C" d="M26,41c-4,0-4-6-4-13s4-14,14-14s14,7,14,14s0,13-4,13"/>
		<path fill="#FCEA2B" d="M24.9,33c0,9,4.9,14,11,14C41.9,47,47,42,47,33c0-3-1-5-1-5c-3-3-7-8-7-8c-4,3-7,6-13,7
			C26,27,24.9,28,24.9,33z"/>
		<path fill="#92D3F5" d="M56.5,61l4-17l-10.9-4.4L49.4,39c-2.4,3-2.8,1.3-4.3,2.4c-6.7,8.6-13.8,6.1-19.1,0
			c-1.8-1.4-1.7,0.6-2.5-1.4h-1l-10,3l4,18"/>
		<path fill="#FCEA2B" d="M23,40c-1.1-4.1-1.7-8.5-2-10.2C20.4,26.4,26,17,26,17s1.2,0,2,0c3,0,5-2,11-2c0.3,0,0.8,0,0.9-0.5
			l-11-2.9c-1.4,0.1-2.8,0.2-4,0.4c-2,0.4-4,2-4,2s-7,11-7,15c0,3,0,13,0,13"/>
		<path fill="#FCEA2B" d="M48.9,39c0.9-3.7,1.6-7.6,2.1-10c0.7-3.3-5-12-5-12s-1-1-2-1c-3,0-4-2-6-3c0,0-5-1-8-1c-1,0-1-1-1-1
			s0-1.1,1-1.1c2.6,0,7.2,0.1,11,0.1c1,0,6,1.1,8,2c0.6,0.3,2,2,2,2s7,11,7,15c0,3.2,0,13,0,13"/>
		<path fill="none" stroke="#040404" stroke-width="2" stroke-linecap="round" stroke-linejoin="round" d="M48.6,39.6
			C48,40.5,47.2,41,46,41"/>
		<path fill="none" stroke="#040404" stroke-width="2" stroke-linecap="round" stroke-linejoin="round" d="M26,41
			c-1.4,0-2.7-0.7-3.3-1.9"/>
		<path fill="#040404" d="M41.9,32c0,1.1-0.9,2-2,2c-1.1,0-2-0.9-2-2s0.9-2,2-2C41,30,41.9,30.9,41.9,32"/>
		<path fill="#040404" d="M33.9,32c0,1.1-0.9,2-2,2c-1.1,0-2-0.9-2-2s0.9-2,2-2C33,30,33.9,30.9,33.9,32"/>
		<path fill="none" stroke="#040404" stroke-width="2" stroke-linejoin="round" d="M24.9,33c0,9,4.9,14,11,14C41.9,47,47,42,47,33
			c0-3-1-5-1-5c-3-3-7-8-7-8c-4,3-7,6-13,7C26,27,24.9,28,24.9,33z"/>
		<path fill="none" stroke="#040404" stroke-width="2" stroke-linecap="round" stroke-linejoin="round" d="M39,39.5c-1,2-5,2-6,0"/>
		<path fill="none" stroke="#040404" stroke-width="2" stroke-linecap="round" stroke-linejoin="round" d="M48.8,39.5
			c1-3.8,1.7-8,2.2-10.5c0.7-3.3-5-12-5-12s-1-1-2-1c-3,0-4-2-6-3c0,0-4.5-0.9-7.6-1C29,12,29,10.7,29,10.7s0-1.5,2.1-1.4
			c3.2,0,6.1,0,9.9,0.8c1,0.2,6,1.1,8,2c0.6,0.3,2,2,2,2s7,11,7,15c0,3.2,0,14,0,14"/>
		<path fill="none" stroke="#040404" stroke-width="2" stroke-linecap="round" stroke-linejoin="round" d="M39.9,14.5
			C39.8,15,39.3,15,39,15c-6,0-8,2-11,2c-0.8,0-2,0-2,0s-5.6,9.4-5,12.8c0.3,1.6,0.8,5.4,1.7,9.2"/>
		<path fill="none" stroke="#040404" stroke-width="2" stroke-linecap="round" stroke-linejoin="round" d="M14,42c0,0,0-10,0-13
			c0-4,7-15,7-15s2-1.6,4-2c1.2-0.2,3.2-0.5,4.7-0.2"/>
		<path fill="none" stroke="#040404" stroke-width="2" stroke-linecap="round" stroke-linejoin="round" d="M16,61"/>
		<polyline fill="none" stroke="#040404" stroke-width="2" stroke-linecap="round" stroke-linejoin="round" points="22.5,40 12,43 
			16,60 		"/>
		<polyline fill="none" stroke="#040404" stroke-width="2" stroke-linecap="round" stroke-linejoin="round" points="48.6,39.6 
			60,44 56,60 		"/>
	</g>
</g>
</svg>
