<?xml version="1.0" encoding="utf-8"?>
<!-- Generator: Adobe Illustrator 21.1.0, SVG Export Plug-In . SVG Version: 6.00 Build 0)  -->
<svg version="1.1" id="emoji" xmlns="http://www.w3.org/2000/svg" xmlns:xlink="http://www.w3.org/1999/xlink" x="0px" y="0px"
	 viewBox="0 0 72 72" enable-background="new 0 0 72 72" xml:space="preserve">
<g id="_xD83D__xDE47__1_">
	<path fill="#92D3F5" d="M21,33c0,0-2,1-3.7,2.3c-2.2,1.8-3.9,16.3-3.8,17.7c0.1,1.3,1.6,7.9,2.2,7.9c0.7,0,40.3,0,40.3,0
		s2.2-3.3,2.1-4.3S58.4,41.8,57,40s-1.5-4.2-2.4-4.8C53,34,51,33,51,33"/>
	<path fill="#F1B31C" d="M25,43c-2,0-3-3-3-10s4-14,14-14s14,7,14,14s-1,10-3,10"/>
	<path fill="#FCEA2B" d="M39,36c0,4-14,2-14,6l0,0c0,4,4.9,8,10.9,8C41.9,50,47,46,47,40l0,0C47,38,40,38,39,36"/>
	<path fill="#FCEA2B" d="M34,58c0,0,0,1.9-2,1.9c-1.1,0-6,0.1-6,0.1h-6c0,0,0-4,5-4h1c3,0,5,0,6,0C34,56,34,58,34,58z"/>
	<path fill="#FCEA2B" d="M38,58c0,0,0,1.9,2,1.9c1.1,0,6,0.1,6,0.1h6c0,0,0-4-5-4h-1c-3,0-5,0-6,0C38,56,38,58,38,58z"/>
	<path fill="none" stroke="#040404" stroke-width="2" stroke-linecap="round" stroke-linejoin="round" d="M25,43c-2,0-3-3-3-10
		s4-14,14-14s14,7,14,14s-1,10-3,10"/>
	<path fill="none" stroke="#040404" stroke-width="2" stroke-linecap="round" stroke-linejoin="round" d="M39,36c0,4-14,2-14,6l0,0
		c0,4,4.9,8,10.9,8C41.9,50,47,46,47,40l0,0C47,38,40,38,39,36"/>
	<path fill="none" stroke="#040404" stroke-width="2" stroke-linecap="round" stroke-linejoin="round" d="M34,58c0,0,0,1.9-2,1.9
		c-1.1,0-6,0.1-6,0.1h-6c0,0,0-4,5-4h1c3,0,5,0,6,0C34,56,34,58,34,58z"/>
	<path fill="none" stroke="#040404" stroke-width="2" stroke-linecap="round" stroke-linejoin="round" d="M38,58c0,0,0,1.9,2,1.9
		c1.1,0,6,0.1,6,0.1h6c0,0,0-4-5-4h-1c-3,0-5,0-6,0C38,56,38,58,38,58z"/>
	<path fill="none" stroke="#040404" stroke-width="2" stroke-linecap="round" stroke-linejoin="round" d="M18,36c0,0-4,3-4,12
		c0,2,0,2,0,4c0,3,0,6,2,8"/>
	<path fill="none" stroke="#040404" stroke-width="2" stroke-linecap="round" stroke-linejoin="round" d="M54,36c0,0,4,3,4,12
		c0,2,0,3,0,5c0,3,0,5-2,7"/>
	
		<line fill="none" stroke="#040404" stroke-width="2" stroke-linecap="round" stroke-linejoin="round" x1="23" y1="15" x2="26" y2="18"/>
	
		<line fill="none" stroke="#040404" stroke-width="2" stroke-linecap="round" stroke-linejoin="round" x1="31" y1="15" x2="29" y2="12"/>
	
		<line fill="none" stroke="#040404" stroke-width="2" stroke-linecap="round" stroke-linejoin="round" x1="49" y1="15" x2="46" y2="18"/>
	
		<line fill="none" stroke="#040404" stroke-width="2" stroke-linecap="round" stroke-linejoin="round" x1="41" y1="15" x2="43" y2="12"/>
	<path fill="none" stroke="#040404" stroke-width="2" stroke-linecap="round" stroke-linejoin="round" d="M39,36c0,0,0-3,0-7"/>
	<path fill="none" stroke="#040404" stroke-width="2" stroke-linecap="round" stroke-miterlimit="10" d="M33,43c-1.6,1-3,0-3,0"/>
	<path fill="none" stroke="#040404" stroke-width="2" stroke-linecap="round" stroke-miterlimit="10" d="M39,43c1.6,0.9,3,0,3,0"/>
</g>
</svg>
