<?xml version="1.0" encoding="utf-8"?>
<!-- Generator: Adobe Illustrator 21.1.0, SVG Export Plug-In . SVG Version: 6.00 Build 0)  -->
<svg version="1.1" id="emoji" xmlns="http://www.w3.org/2000/svg" xmlns:xlink="http://www.w3.org/1999/xlink" x="0px" y="0px"
	 viewBox="0 0 72 72" enable-background="new 0 0 72 72" xml:space="preserve">
<g id="_xD83D__xDE4E__1_">
	<path fill="#F1B31C" d="M26,39c-4,0-4-6-4-13s4-14,14-14s14,7,14,14s0,13-4,13"/>
	<path fill="#92D3F5" d="M17,61v-4c0-5,5-9,10-9c6,5,12,5,18,0c5,0,10,4,10,9v4"/>
	<path fill="#FCEA2B" d="M24.9,31c0,9,4.9,14,11,14C41.9,45,47,40,47,31c0-3-1-5-1-5c-3-3-7-8-7-8c-4,3-7,6-13,7
		C26,25,24.9,26,24.9,31z"/>
	<path fill="none" stroke="#040404" stroke-width="2" stroke-linecap="round" stroke-linejoin="round" d="M26,39c-4,0-4-6-4-13
		s4-14,14-14s14,7,14,14s0,13-4,13"/>
	<path fill="none" stroke="#040404" stroke-width="2" stroke-linecap="round" stroke-linejoin="round" d="M17,60v-3c0-5,5-9,10-9
		c6,5,12,5,18,0c5,0,10,4,10,9v3"/>
	<path fill="none" stroke="#040404" stroke-width="2" stroke-linejoin="round" d="M24.9,31c0,9,4.9,14,11,14C41.9,45,47,40,47,31
		c0-3-1-5-1-5c-3-3-7-8-7-8c-4,3-7,6-13,7C26,25,24.9,26,24.9,31z"/>
	<path fill="#040404" d="M41.9,30c0,1.1-0.9,2-2,2c-1.1,0-2-0.9-2-2s2-2,3.1-2C41,28,41.9,28.9,41.9,30"/>
	<path fill="#040404" d="M34,30c0,1.1-0.9,2-2,2c-1.1,0-2-0.9-2-2s1-2,1-2C32.1,28,34,28.9,34,30"/>
	<path fill="none" stroke="#040404" stroke-width="2" stroke-linecap="round" stroke-linejoin="round" d="M39,38c-1-2-5-2-6,0"/>
</g>
</svg>
