<svg id="emoji" xmlns="http://www.w3.org/2000/svg" viewBox="0 0 72 72">
  <g id="color">
    <path d="M22.4944,65l-.2186-2.8134A23.4263,23.4263,0,0,1,17.94,58.6693L21.9169,48.6c1.0234-2.5912,1.6347-3.5607,3.0234-2.5912,3.0068,2.0987,6.3457,2.9219,7.625,3.85,4.3281,3.6926,12.34,4.625,19.3405,1.46,3,0,9.5687,3.8215,9.5687,9.09v4.5458Z" fill="#92d3f5"/>
  </g>
  <g id="skin">
    <path d="M31.4025,33.985c0,9,4.9365,14,11,14,5.9365,0,11.0635-5,11.0635-14a12.1371,12.1371,0,0,0-1-5c-3-3-7-8-7-8-4,3-7,6-13,7C32.466,27.985,31.4025,28.9845,31.4025,33.985Z" fill="#fcea2b"/>
    <path d="M18.6281,55.99c-2.624-3.249-5.7119-4.458-6.2119-6.458-.543-2.169-3.1934-15.626-2.1924-19.8755a31.006,31.006,0,0,0,.25-7.6665c-.06-.998.8437-4.6875.8437-6.6875a15.0447,15.0447,0,0,1,.375-3.9375c1.1875-2.5625,4.2753-2,3.7813,0A15.5974,15.5974,0,0,1,15.63,7.5209c.1875-1.2813,3.6983-2.2188,3.1875,1.25A11.8885,11.8885,0,0,1,19.63,5.973a1.5474,1.5474,0,0,1,2.69,1.1729,7.51,7.51,0,0,1-.0381,1.0781s2.254-.1094,1.671,2.9116c-.19.9824-1.6328,10.23-1.6328,10.23.458-.458,1.4453-4.5068,3.0283-4.5068,2.1191,0,2,1.4575,2,1.4575s-.6026,1.4326-1.2813,2.6733c-1.0117,1.8506-2.2812,5.5-3.2812,6.5a45.7206,45.7206,0,0,1-5.2218,3L20.4738,42.74s.167.5381,2.496,2.2559" fill="#fcea2b"/>
  </g>
  <g id="hair">
    <path d="M52.5829,29.0768c-2.6614-.8555-7.3665-7.9369-7.3665-7.9369-2.6615,3.2318-12.737,6.9864-12.737,6.9864-2.9942,2.9941-.0451,13.8587-.0451,13.8587-4,0-4-6-4-13s4-14,14-14,14,7,14,14,0,13-4,13C53.7589,39.7323,52.5829,29.0768,52.5829,29.0768Z" fill="#f1b31c"/>
  </g>
  <g id="line">
    <path d="M32.466,41.985c-4,0-4-6-4-13s4-14,14-14,14,7,14,14,0,13-4,13" fill="none" stroke="#000" stroke-linecap="round" stroke-linejoin="round" stroke-width="2"/>
    <path d="M48.339,32.985a2,2,0,1,1-2-2,2,2,0,0,1,2,2"/>
    <path d="M40.339,32.985a2,2,0,1,1-2-2,2,2,0,0,1,2,2"/>
    <path d="M31.4025,33.985c0,9,4.9365,14,11,14,5.9365,0,11.0635-5,11.0635-14a12.1371,12.1371,0,0,0-1-5c-3-3-7-8-7-8-4,3-7,6-13,7C32.466,27.985,31.4025,28.9845,31.4025,33.985Z" fill="none" stroke="#000" stroke-linejoin="round" stroke-width="2"/>
    <path d="M39.466,40.985a6.5535,6.5535,0,0,0,6,0" fill="none" stroke="#000" stroke-linecap="round" stroke-linejoin="round" stroke-width="2"/>
    <path d="M22.4738,63.99a2.9818,2.9818,0,0,0-.8419-2.6982C18.4738,58.846,17.4738,57.99,17.4738,57.99l5-12" fill="none" stroke="#000" stroke-linecap="round" stroke-linejoin="round" stroke-width="2"/>
    <path d="M20.1828,6.7816c-.709,3.9248-1.125,6.6318-1.709,11.208" fill="none" stroke="#000" stroke-linecap="round" stroke-linejoin="round" stroke-width="2"/>
    <path d="M21.5421,21.3651C21.835,19.2025,22.64,14.6146,23.0988,9.99" fill="none" stroke="#000" stroke-linecap="round" stroke-linejoin="round" stroke-width="2"/>
    <path d="M61.4738,63.99s.0908-2.25.0908-3c0-7-9.0908-10-9.0908-10-7,2-11,2-16,1-3.2754-.6553-10.0273-4.59-15-8,0,0-3.9093-9.5-3.9093-13.5005,0-.5825,5.5518-1.9936,7-6.5.7813-2.4307,1.8106-5.6738,1.8106-5.6738" fill="none" stroke="#000" stroke-linecap="round" stroke-linejoin="round" stroke-width="2"/>
    <path d="M14.4738,17.99c.86-5.0757,1.5645-8.6211,2-10" fill="none" stroke="#000" stroke-linecap="round" stroke-linejoin="round" stroke-width="2"/>
    <path d="M18.6281,55.221c-5-4-6.5879-5.12-7.1543-8.2314-2-11-1-14.5811-1-18,0-1,.0156,0,.0156-6,.001-.812.5078-4.3931.9844-7a25.2783,25.2783,0,0,1,1-4" fill="none" stroke="#000" stroke-linecap="round" stroke-linejoin="round" stroke-width="2"/>
  </g>
</svg>
