<svg id="emoji" xmlns="http://www.w3.org/2000/svg" viewBox="0 0 72 72">
  <title>1F68D</title>
  
  <g id="color">
    <rect x="27.6889" y="10.9583" width="16.9457" height="4.9408" rx="2.4704" ry="2.4704" fill="#fbe844"></rect>
    <path d="M24.23,13.9583H47.7695A7.2305,7.2305,0,0,1,55,21.1888V47.4583a1.5,1.5,0,0,1-1.5,1.5h-35a1.5,1.5,0,0,1-1.5-1.5v-26.27a7.23,7.23,0,0,1,7.23-7.23Z" fill="#fbe844"></path>
    <rect x="17" y="38.9583" width="38" height="10" fill="#f0b233"></rect>
    <rect x="20" y="20.9583" width="31" height="13" fill="#94d3f3"></rect>
    <rect x="20" y="41.9583" width="7" height="3" fill="#fff"></rect>
    <rect x="44" y="41.9583" width="7" height="3" fill="#fff"></rect>
    <rect x="16" y="48.9583" width="40" height="8" rx="2.6211" ry="2.6211" fill="#3f3f3f"></rect>
    <rect x="30.0444" y="13.2175" width="10.9112" height="2.8665" rx="1.4333" ry="1.4333" fill="#3f3f3f"></rect>
  </g>
  <g id="line">
    <rect x="16" y="48.9583" width="40" height="8" rx="2.6211" ry="2.6211" fill="none" stroke="#000" stroke-linecap="round" stroke-linejoin="round" stroke-width="2"></rect>
    <rect x="18" y="56.9583" width="6" height="4" rx="2" ry="2"></rect>
    <rect x="48" y="56.9583" width="6" height="4" rx="2" ry="2"></rect>
    <line x1="16" y1="25.9583" x2="13" y2="25.9583" fill="none" stroke="#000" stroke-linecap="round" stroke-linejoin="round" stroke-width="2"></line>
    <line x1="13" y1="22.9583" x2="13" y2="28.9583" fill="none" stroke="#000" stroke-linecap="round" stroke-linejoin="round" stroke-width="2"></line>
    <line x1="56" y1="25.9583" x2="59" y2="25.9583" fill="none" stroke="#000" stroke-linecap="round" stroke-linejoin="round" stroke-width="2"></line>
    <line x1="59" y1="22.9583" x2="59" y2="28.9583" fill="none" stroke="#000" stroke-linecap="round" stroke-linejoin="round" stroke-width="2"></line>
    <path d="M44.1556,13.9583H47.77A7.2518,7.2518,0,0,1,55,21.1888v26.27a1.5044,1.5044,0,0,1-1.5,1.5h-35a1.5044,1.5044,0,0,1-1.5-1.5v-26.27a7.2515,7.2515,0,0,1,7.23-7.23h2.6142" fill="none" stroke="#000" stroke-linecap="round" stroke-linejoin="round" stroke-width="2"></path>
    <path d="M51,21.9583v11.8H21" fill="none" stroke="#000" stroke-linecap="round" stroke-linejoin="round" stroke-width="2"></path>
    <polyline points="21 44.958 27 44.958 27 42.958" fill="none" stroke="#000" stroke-linecap="round" stroke-linejoin="round" stroke-width="2"></polyline>
    <polyline points="45 44.958 51 44.958 51 42.958" fill="none" stroke="#000" stroke-linecap="round" stroke-linejoin="round" stroke-width="2"></polyline>
    <line x1="32" y1="41.9583" x2="41" y2="41.9583" fill="none" stroke="#000" stroke-linecap="round" stroke-miterlimit="10" stroke-width="2"></line>
    <line x1="32" y1="44.9583" x2="41" y2="44.9583" fill="none" stroke="#000" stroke-linecap="round" stroke-miterlimit="10" stroke-width="2"></line>
    <path d="M26.8444,13.9583v-.4791a2.5283,2.5283,0,0,1,2.5209-2.5209H41.6347a2.5283,2.5283,0,0,1,2.5209,2.5209v.4791" fill="none" stroke="#000" stroke-linecap="round" stroke-linejoin="round" stroke-width="2"></path>
  </g>
</svg>