<?xml version="1.0" encoding="utf-8"?>
<!-- Generator: Adobe Illustrator 19.1.0, SVG Export Plug-In . SVG Version: 6.00 Build 0)  -->
<svg version="1.1" id="emoji" xmlns="http://www.w3.org/2000/svg" xmlns:xlink="http://www.w3.org/1999/xlink" x="0px" y="0px"
	 viewBox="0 0 72 72" enable-background="new 0 0 72 72" xml:space="preserve">
<g id="_xD83D__xDE8C__1_">
	<path fill="#E85949" d="M17.9,54l-6.6-1c0,0-1.1,0-1.1-1.2s-0.1-3.6-0.1-3.6s0.7-9.5,2.6-10.6c1.6-1,46.5-0.7,53.1-0.6
		c0.5,0,0.9,0.3,0.9,0.8c0.2,1.3,0.7,4.1,0.7,6.3c0.1,3.1-0.1,8-0.1,8l-4.8,1.8"/>
	<path fill="#3F4040" d="M13.1,38.1c0,0-2.3,3.2-2.1,9c0,0,3.9,1.5,10-4.3l42.9,1.3c0,0,2.2-1.2,2.3-6.3
		C66.3,37.8,20.4,35.7,13.1,38.1z"/>
	<path fill="none" stroke="#000000" stroke-width="2" stroke-linecap="round" stroke-linejoin="round" stroke-miterlimit="10" d="
		M17.9,53l-6.6,0c0,0-1.1,0-1.1-1.2s-0.1-3.6-0.1-3.6s0.7-9.5,2.6-10.6c1.6-1,46.5-0.7,53.1-0.6c0.5,0,0.9,0.3,0.9,0.8
		c0.2,1.3,0.7,4.1,0.7,6.3c0.1,3.1-0.1,8-0.1,8l-4.8,0.8"/>
	
		<line fill="#FFFFFF" stroke="#000000" stroke-width="2" stroke-linecap="round" stroke-linejoin="round" stroke-miterlimit="10" x1="50.3" y1="53.1" x2="30.2" y2="53"/>
	
		<polyline fill="none" stroke="#000000" stroke-width="2" stroke-linecap="round" stroke-linejoin="round" stroke-miterlimit="10" points="
		11.3,40.5 6.7,40.8 5.3,44.1 	"/>
	
		<circle fill="#CECCCC" stroke="#000000" stroke-width="2" stroke-linecap="round" stroke-linejoin="round" stroke-miterlimit="10" cx="56.5" cy="53.3" r="3"/>
	
		<circle fill="#CECCCC" stroke="#000000" stroke-width="2" stroke-linecap="round" stroke-linejoin="round" stroke-miterlimit="10" cx="24" cy="53.3" r="3"/>
	<path fill="none" stroke="#000000" stroke-width="2" stroke-linecap="round" stroke-linejoin="round" stroke-miterlimit="10" d="
		M13.3,46.3c0,0,4-0.9,7.7-3.5l42.7,0.4c0,0,0,0,0,0"/>
	<path fill="none" stroke="#000000" stroke-width="2" stroke-linecap="round" stroke-linejoin="round" stroke-miterlimit="10" d="
		M17.9,53l-6.6,0c0,0-1.1,0-1.1-1.2s-0.1-3.6-0.1-3.6s0.7-9.5,2.6-10.6c1.6-1,46.5-0.7,53.1-0.6c0.5,0,0.9,0.3,0.9,0.8
		c0.2,1.3,0.7,4.1,0.7,6.3c0.1,3.1-0.1,8-0.1,8"/>
	
		<rect x="40.5" y="40.3" fill="#3F4040" stroke="#000000" stroke-width="2" stroke-linecap="round" stroke-linejoin="round" stroke-miterlimit="10" width="5.1" height="12.7"/>
	<path fill="#F9E936" d="M11.2,50.7h2.6l1.1-2.3h-2.9c-0.4,0-0.8,0.4-0.8,0.9V50.7z"/>
	
		<polyline fill="none" stroke="#000000" stroke-width="2" stroke-linecap="round" stroke-linejoin="round" stroke-miterlimit="10" points="
		11.2,50.7 13.7,50.7 14.8,49.3 	"/>
</g>
</svg>
