<?xml version="1.0" encoding="utf-8"?>
<!-- Generator: Adobe Illustrator 21.1.0, SVG Export Plug-In . SVG Version: 6.00 Build 0)  -->
<svg version="1.1" id="emoji" xmlns="http://www.w3.org/2000/svg" xmlns:xlink="http://www.w3.org/1999/xlink" x="0px" y="0px"
	 viewBox="0 0 72 72" enable-background="new 0 0 72 72" xml:space="preserve">
<g id="_xD83D__xDE89_">
	<polyline fill="#CECCCC" points="53.8,42.6 53.8,18.8 60.8,18.8 60.8,42.6 	"/>
	
		<polyline fill="none" stroke="#000000" stroke-width="2" stroke-linecap="round" stroke-linejoin="round" stroke-miterlimit="10" points="
		54.9,34.9 54.9,18.8 59.7,18.8 59.7,34.9 	"/>
	<circle cx="57.9" cy="66" r="2"/>
	<polyline fill="#CECCCC" points="34.4,62.5 3.8,62.5 3.8,50.9 34.8,50.9 	"/>
	
		<polyline fill="none" stroke="#000000" stroke-width="2" stroke-linecap="round" stroke-linejoin="round" stroke-miterlimit="10" points="
		7.4,61.5 3.8,61.5 3.8,51.9 14.8,51.9 	"/>
	
		<path fill="#3F4040" stroke="#000000" stroke-width="2" stroke-linecap="round" stroke-linejoin="round" stroke-miterlimit="10" d="
		M35.1,22.5h-18c-0.6,0-1,0.4-1,1v10c0,0.6,0.4,1,1,1h18c0.6,0,1-0.4,1-1v-10C36.1,22.9,35.6,22.5,35.1,22.5z"/>
	
		<path fill="#9B9A98" stroke="#000000" stroke-width="2" stroke-linecap="round" stroke-linejoin="round" stroke-miterlimit="10" d="
		M31.7,25.5H20.4c-0.6,0-1,0.4-1,1v4c0,0.6,0.4,1,1,1h11.3c0.6,0,1-0.4,1-1v-4C32.7,25.9,32.3,25.5,31.7,25.5z"/>
	
		<rect x="3.8" y="9.2" fill="#CECCCC" stroke="#000000" stroke-width="2" stroke-linecap="round" stroke-linejoin="round" stroke-miterlimit="10" width="64.5" height="9.6"/>
	
		<polyline fill="#CECCCC" stroke="#000000" stroke-width="2.0766" stroke-linecap="round" stroke-linejoin="round" stroke-miterlimit="10" points="
		14.8,51.9 10.8,51.9 10.8,18.8 15.6,18.8 15.6,51.9 14.8,51.9 	"/>
	<circle cx="44.9" cy="66" r="2"/>
	
		<line fill="none" stroke="#000000" stroke-width="2" stroke-linecap="round" stroke-linejoin="round" stroke-miterlimit="10" x1="6.1" y1="68" x2="68" y2="68"/>
	
		<path fill="#CECCCC" stroke="#000000" stroke-width="2" stroke-linecap="round" stroke-linejoin="round" stroke-miterlimit="10" d="
		M55.3,38.8c0,0-13.7-1-23.8,5.6S15.3,56,15.3,56s-1.8,1.8-1.9,3.9c-0.2,3,6.9,3.9,6.9,3.9l15.4,1.1c0.3,0,0.7,0,1,0h32.5
		c0,0-0.2-26.2,0-26.2H55.3z"/>
	<path fill="#3F4040" d="M30.4,50.1l3,3h32.7v-7c0-0.6-0.4-1-1-1h-17c0,0-8.6-0.2-18.1,4.1"/>
	
		<polyline fill="none" stroke="#000000" stroke-width="2" stroke-linecap="round" stroke-linejoin="round" stroke-miterlimit="10" points="
		30.4,50.1 33.4,53.2 65.2,53.2 	"/>
	<path fill="none" stroke="#E85949" stroke-width="2" stroke-linecap="round" stroke-linejoin="round" stroke-miterlimit="10" d="
		M17.8,59.5c0,0,12.4-2.1,47.4-1"/>
</g>
</svg>
