<?xml version="1.0" encoding="utf-8"?>
<!-- Generator: Adobe Illustrator 19.1.0, SVG Export Plug-In . SVG Version: 6.00 Build 0)  -->
<svg version="1.1" id="emoji" xmlns="http://www.w3.org/2000/svg" xmlns:xlink="http://www.w3.org/1999/xlink" x="0px" y="0px"
	 viewBox="0 0 72 72" enable-background="new 0 0 72 72" xml:space="preserve">
<g id="_xD83D__xDE82__1_">
	
		<path fill="#E85949" stroke="#000100" stroke-width="2" stroke-linecap="round" stroke-linejoin="round" stroke-miterlimit="10" d="
		M7.7,46.6"/>
	<path fill="#3F4040" d="M6.6,38.7V31c0-0.6,0.5-1,1-1h58.5c0.6,0,1,0.4,1,1v9.3c0,0.6-0.5,1-1,1H7.6c-0.6,0-1-0.4-1-1V38.7"/>
	<path fill="#E85949" d="M63.9,41.2H7.8c-0.6,0-1.1,0.5-1.1,1.1v5.1c0,1.3,1,2.3,2.3,2.3h54.9c0.6,0,1.1-0.5,1.1-1.1v-6.3
		C65,41.7,64.5,41.2,63.9,41.2z"/>
	
		<rect x="31.4" y="25.4" fill="#3F4040" stroke="#000000" stroke-width="2" stroke-linecap="round" stroke-linejoin="round" stroke-miterlimit="10" width="4.1" height="4.5"/>
	
		<path fill="#3F4040" stroke="#000000" stroke-width="2" stroke-linecap="round" stroke-linejoin="round" stroke-miterlimit="10" d="
		M27.3,31.7h-6.7c0,0,0,0,0,0v-6.4c0-1.3,1.1-2.4,2.4-2.4h2.3c1.2,0,2.1,0.9,2.1,2.1L27.3,31.7C27.3,31.7,27.3,31.7,27.3,31.7z"/>
	
		<rect x="9.6" y="18.7" fill="#3F4040" stroke="#000000" stroke-width="2" stroke-linecap="round" stroke-linejoin="round" stroke-miterlimit="10" width="3.1" height="11.6"/>
	
		<path fill="#3F4040" stroke="#000000" stroke-width="2" stroke-linecap="round" stroke-linejoin="round" stroke-miterlimit="10" d="
		M7.6,37.7V31c0-0.6,0.5-1,1-1h36.9V18.1h20.7v12.8c0,0,0,0.1,0,0.1v6.6"/>
	
		<rect x="53.7" y="14.9" fill="#3F4040" stroke="#000000" stroke-width="2" stroke-linecap="round" stroke-linejoin="round" stroke-miterlimit="10" width="4.6" height="3.2"/>
	
		<line fill="#3F4040" stroke="#000100" stroke-width="2" stroke-linecap="round" stroke-linejoin="round" stroke-miterlimit="10" x1="64" y1="41.2" x2="10.5" y2="41.2"/>
	
		<path fill="#E85949" stroke="#000000" stroke-width="2" stroke-linecap="round" stroke-linejoin="round" stroke-miterlimit="10" d="
		M7.7,44.6v3.1c0,0.6,0.4,1,1,1h6.2"/>
	
		<path fill="#E85949" stroke="#000000" stroke-width="2" stroke-linecap="round" stroke-linejoin="round" stroke-miterlimit="10" d="
		M60.4,48.7H64c0.6,0,1-0.4,1-1v-5.5c0-0.6-0.4-1-1-1H8.7c-0.6,0-1,0.4-1,1v0.5"/>
	
		<line fill="#E85949" stroke="#000000" stroke-width="2" stroke-linecap="round" stroke-linejoin="round" stroke-miterlimit="10" x1="29.8" y1="48.7" x2="33" y2="48.7"/>
	
		<path fill="#E85949" stroke="#000000" stroke-width="2" stroke-linecap="round" stroke-linejoin="round" stroke-miterlimit="10" d="
		M66.8,43.9H5.2c-0.7,0-1.2-0.5-1.2-1.2v-0.8c0-0.7,0.5-1.2,1.2-1.2h61.6c0.7,0,1.2,0.5,1.2,1.2v0.8C68,43.3,67.5,43.9,66.8,43.9z"
		/>
	
		<circle fill="#E85949" stroke="#000000" stroke-width="2" stroke-linecap="round" stroke-linejoin="round" stroke-miterlimit="10" cx="53.3" cy="51" r="5"/>
	
		<circle fill="#E85949" stroke="#000000" stroke-width="2" stroke-linecap="round" stroke-linejoin="round" stroke-miterlimit="10" cx="40.3" cy="51" r="5"/>
	
		<circle fill="#E85949" stroke="#000000" stroke-width="2" stroke-linecap="round" stroke-linejoin="round" stroke-miterlimit="10" cx="22.3" cy="51" r="5"/>
	<path fill="#1D1E1C" d="M57.3,30h-8v-8.6c0-0.6,0.4-1,1-1h7V30z"/>
	
		<polyline fill="#1D1E1C" stroke="#000000" stroke-width="2" stroke-linecap="round" stroke-linejoin="round" stroke-miterlimit="10" points="
		57.2,21.3 57.2,30 50.2,30 	"/>
</g>
</svg>
