<svg id="emoji" viewBox="0 0 72 72" xmlns="http://www.w3.org/2000/svg">
  <g id="color">
    <path fill="#fff" d="m38.4759,25.1614l-.248,10.5806h.8266s4.877-6.1169,8.5141-6.1996l-.0827-4.877-9.01.496Z"/>
    <rect x="26.682" y="28.3643" width="3.1666" height="4.4166" fill="#3f3f3f"/>
    <path fill="#b1cc33" d="m51.0954,20.2843s-9.8301-1.17-16.1602.58l-.5,10.5799s-18.8398,1.5901-22.5898,5.5901l1.25,13.5h40.25s1.1543-10.4774.4938-19.4245c-.3326-4.5061-1.7792-8.367-2.7438-10.8255Zm-11.2621,17.2806l-2.6789.0313.1406-12.6345c5.3893-1.8888,11.6402.0726,11.6402.0726l.0701,4.9c-7.85,2.07-9.172,7.6306-9.172,7.6306Z"/>
    <path fill="#3f3f3f" d="m11.4801,42.5186s16.6362-2.6442,30.9971-3.035c0,0,4.0063-4.2064,6.0381-4.911,1.9375-.6719,4.8815-1.2129,5.2787-.875.4009.341.2324,2.6722.331,5.9151l-.7213,11.9543-41.0612-.2137-.8624-8.8347Z"/>
    <circle cx="52.98" cy="46.5898" r="5" fill="#ea5a47"/>
    <circle cx="15.02" cy="51.5898" r="3" fill="#ea5a47"/>
    <path fill="#fcea2b" d="m14.07,41.1351h1.7578c.9668,0,1.7578-.45,1.7578-1v-2.12c-.1406.2258.3418-1-.625-1l-1.4721.3355c-.4164.0949-.7386.425-.8233.8437l-.5952,2.9408Z"/>
  </g>
  <g id="line">
    <path d="m52.9805,35.59c-6.0654,0-11,4.9346-11,11s4.9346,11,11,11,11-4.9346,11-11-4.9346-11-11-11Zm4,11c0,2.2061-1.7939,4-4,4s-4-1.7939-4-4,1.7939-4,4-4,4,1.7939,4,4Z"/>
    <path d="m15.02,45.59c-3.3086,0-6,2.6914-6,6s2.6914,6,6,6,6-2.6914,6-6-2.6914-6-6-6Zm0,8c-1.103,0-2-.8975-2-2s.897-2,2-2,2,.8975,2,2-.897,2-2,2Z"/>
    <polyline fill="none" stroke="#000" stroke-linecap="round" stroke-linejoin="round" stroke-width="2" points="26.682 32.2999 26.682 28.3643 29.8486 28.3643 29.8486 31.8513"/>
    <path fill="none" stroke="#000" stroke-linecap="round" stroke-linejoin="round" stroke-width="2" d="m26.682,32.2999c-5.1431.7998-11.7743,2.1973-14.4066,4.3368-.2664.2165-.4129.5443-.3812.8861l.6871,6.5445"/>
    <path fill="none" stroke="#000" stroke-linecap="round" stroke-linejoin="round" stroke-width="2" d="m29.8486,31.8513c-.9401.1207-2.0161.2697-3.1666.4487"/>
    <path fill="none" stroke="#000" stroke-linecap="round" stroke-linejoin="round" stroke-width="2" d="m52.8185,30.467c-.3456-3.6951-.8852-8.0548-1.7199-10.1861,0,0-10.8333-1.1666-17.1666.5834l-.5,10.5833s-1.4378.1282-3.5834.4037"/>
    <line x1="22.5153" x2="40.3521" y1="50.5309" y2="50.5309" fill="none" stroke="#000" stroke-linecap="round" stroke-linejoin="round" stroke-width="2"/>
    <path fill="none" stroke="#000" stroke-linecap="round" stroke-linejoin="round" stroke-width="2" d="m40.3521,43.4723c1.537-6.9462,8.414-11.3309,15.36-9.7939,2.792.6178,5.1703,2.0984,6.9165,4.0996"/>
    <path fill="none" stroke="#000" stroke-linecap="round" stroke-linejoin="round" stroke-width="2" d="m48.9672,23.6688s-5.919-.8771-11.669.2895l-.2845,13.4635h2.5016s2.875-4.6409,9.5223-6.8492l-.0704-6.9038Z"/>
    <path stroke="#000" stroke-linecap="round" stroke-linejoin="round" stroke-width="2" d="m28.1193,28.3643s.3381-3.5834-1.2846-3.5834"/>
    <path fill="none" stroke="#000" stroke-linecap="round" stroke-linejoin="round" stroke-width="2" d="m37.0168,37.2787h2.6602s2.7485-4.8599,9.3606-6.7061"/>
    <path fill="none" stroke="#000" stroke-linecap="round" stroke-linejoin="round" stroke-width="2" d="m17.044,38.0151v2.12c0,.55-.4501,1-1,1h-1"/>
  </g>
</svg>
