<?xml version="1.0" encoding="utf-8"?>
<!-- Generator: Adobe Illustrator 19.1.0, SVG Export Plug-In . SVG Version: 6.00 Build 0)  -->
<svg version="1.1" id="emoji" xmlns="http://www.w3.org/2000/svg" xmlns:xlink="http://www.w3.org/1999/xlink" x="0px" y="0px"
	 viewBox="0 0 72 72" enable-background="new 0 0 72 72" xml:space="preserve">
<g id="_xD83D__xDE9A__1_">
	<path fill="#FFFFFF" d="M61.3,53c0.6,0,0.9-1,0.9-1s2,0.1,2.3-1.2c0-0.2,0.3-13.8-1.5-17.6c-0.1-0.3-0.4-0.5-0.8-0.6
		c-3-0.4-19.4-1.2-32.3,0.3c0,0-4.6,1.2-12.8,6.9c0,0-5.5,2.2-7.9,3.9S7,48.4,7,48.4s0.2,3,0.8,3.9c0.1,0.1,0.4,1.2,2.6,1.3"/>
	<path fill="#3F4040" d="M64.5,48.9h-9.3v0.8c0,1.8,1.5,3.2,3.2,3.2h3.1c1,0,1.9-0.4,2.5-1.2l0.9-1.1L64.5,48.9z"/>
	<polygon fill="#3F4040" points="17.4,49.7 8.1,49.7 8.1,52.2 10.1,53.7 16,53.7 17.9,51.5 	"/>
	<path fill="none" stroke="#000000" stroke-width="2" stroke-linecap="round" stroke-linejoin="round" stroke-miterlimit="10" d="
		M22.8,52.7c8.3-0.1,17.4-0.3,25.3-0.4"/>
	<circle fill="#9B9A98" stroke="#000000" stroke-width="2" stroke-miterlimit="10" cx="17.1" cy="52.7" r="3"/>
	<circle fill="#9B9A98" stroke="#000000" stroke-width="2" stroke-miterlimit="10" cx="55.2" cy="52.7" r="3"/>
	<path fill="#3F4040" d="M33.9,35.1v6.7l-14.2,0.4C19.8,42.1,26.7,34.2,33.9,35.1z"/>
	
		<polyline fill="none" stroke="#000000" stroke-width="2" stroke-linecap="round" stroke-linejoin="round" stroke-miterlimit="10" points="
		33.9,36.1 33.9,41.8 20.5,42.7 	"/>
	
		<line fill="none" stroke="#000000" stroke-width="2" stroke-linecap="round" stroke-linejoin="round" stroke-miterlimit="10" x1="24.1" y1="49.1" x2="49.1" y2="48.1"/>
	<path fill="#CECCCC" d="M14.4,45.7c0,0,0.1-1.1-1.3-1.2s-3.9,1.2-4,1.6c-0.1,0.4-0.3,1.4,0.3,1.6C10,47.9,14.4,45.7,14.4,45.7z"/>
	
		<path fill="#CECCCC" stroke="#000000" stroke-width="2" stroke-linecap="round" stroke-linejoin="round" stroke-miterlimit="10" d="
		M13.5,45.6c0,0-2,1.7-3.6,1.9"/>
	<path fill="none" stroke="#000000" stroke-width="2" stroke-linecap="round" stroke-linejoin="round" stroke-miterlimit="10" d="
		M61.3,52c0.6,0,0.9,0,0.9,0s2,0.1,2.3-1.2c0-0.2,0.3-13.8-1.5-17.6c-0.1-0.3-0.4-0.5-0.8-0.6c-3-0.4-19.4-1.2-32.3,0.3
		c0,0-4.6,1.2-12.8,6.9c0,0-5.5,2.2-7.9,3.9S7,48.4,7,48.4s0.2,3,0.8,3.9c0.1,0.1,0.4,0.2,2.6,0.3"/>
</g>
</svg>
