<?xml version="1.0" encoding="utf-8"?>
<!-- Generator: Adobe Illustrator 19.1.0, SVG Export Plug-In . SVG Version: 6.00 Build 0)  -->
<svg version="1.1" id="emoji" xmlns="http://www.w3.org/2000/svg" xmlns:xlink="http://www.w3.org/1999/xlink" x="0px" y="0px"
	 viewBox="0 0 72 72" enable-background="new 0 0 72 72" xml:space="preserve">
<g id="_xD83D__xDE99__1_">
	<path fill="#93D1F2" d="M63.5,50h0.6c0.6,0,1-0.4,1-1v-2c0-0.1-0.1-0.2-0.2-0.2l-1.7-0.2c0-1.7,0.5-13.9-0.9-19.4
		c-0.1-0.4-0.5-0.7-0.9-0.7l-26.8,0c-0.4,0-0.7,0.2-0.9,0.5l-4.4,9.1l-16.7,1.6c-0.3,0-0.6,0.2-0.8,0.5l-3.1,6.4H7.5
		c-0.6,0-1,0.4-1,1v1.6c0,0.6,0.4,1,1,1h1.1h15.4l2.8,3.4l27.2,0.2v-1.9h9"/>
	<path fill="#3F4040" d="M33.4,36H46c0,0,0.5-6.8,0-6.8h-8.7c-0.4,0-0.8,0.2-1,0.6L33.4,36z"/>
	<path fill="#3F4040" d="M7.2,44.6v4.5h3.3h14.1l1.9,2.6l29.4,0.1l2.8-0.9h5.9l0.7-4.3l-3-0.1l-1.9-4.4l-9.3,1l-2.5,2.2l-25.9-0.2
		l-1.4-2.8c-0.2-0.4-0.5-0.6-0.9-0.6L13.6,41l-2.9,3.7L7.2,44.6z"/>
	<path fill="none" stroke="#000000" stroke-width="2" stroke-linecap="round" stroke-linejoin="round" stroke-miterlimit="10" d="
		M63.1,50h1c0.6,0,1-0.4,1-1v-2c0-0.1-0.1-0.2-0.2-0.2l-1.7-0.2c0-1.7,0.5-13.9-0.9-19.4c-0.1-0.4-0.5-0.7-0.9-0.7l-26.8,0
		c-0.4,0-0.7,0.2-0.9,0.5l-4.4,9.1l-16.7,1.6c-0.3,0-0.6,0.2-0.8,0.5l-3.1,6.4H7.5c-0.6,0-1,0.4-1,1v1.6c0,0.6,0.4,1,1,1h1.1"/>
	<path fill="none" stroke="#000000" stroke-width="2" stroke-linecap="round" stroke-linejoin="round" stroke-miterlimit="10" d="
		M23.7,48.2h0.7l1.6,2.2c0.2,0.3,0.5,0.4,0.8,0.4h19.7"/>
	<path fill="#9C9B99" d="M16.4,46.7c-2.2,0-4,1.8-4,4s1.8,4,4,4s4-1.8,4-4S18.6,46.7,16.4,46.7z"/>
	
		<circle fill="none" stroke="#000000" stroke-width="2" stroke-linecap="round" stroke-linejoin="round" cx="16.4" cy="50.7" r="5"/>
	<path fill="#9C9B99" d="M54.5,46.7c-2.2,0-4,1.8-4,4s1.8,4,4,4c2.2,0,4-1.8,4-4S56.7,46.7,54.5,46.7z"/>
	
		<circle fill="none" stroke="#000000" stroke-width="2" stroke-linecap="round" stroke-linejoin="round" cx="54.5" cy="50.7" r="5"/>
	
		<polyline fill="none" stroke="#000000" stroke-width="2" stroke-linecap="round" stroke-linejoin="round" stroke-miterlimit="10" points="
		34.2,36.5 46,36.5 46,30.2 	"/>
	
		<polyline fill="none" stroke="#000000" stroke-width="2" stroke-linecap="round" stroke-linejoin="round" stroke-miterlimit="10" points="
		47.6,45.7 50.7,42.5 59.5,42.5 	"/>
	
		<polyline fill="none" stroke="#000000" stroke-width="2" stroke-linecap="round" stroke-linejoin="round" stroke-miterlimit="10" points="
		14.4,41.7 21.6,41.7 23.5,44.6 	"/>
	
		<path fill="#3F4040" stroke="#000000" stroke-width="2" stroke-linecap="round" stroke-linejoin="round" stroke-miterlimit="10" d="
		M63.5,32c0.1,0,1.4,0.1,1.4,0.1s1.7,1,1.6,5.8c-0.1,4.8-1.7,5.7-1.7,5.7H64"/>
</g>
</svg>
