<?xml version="1.0" encoding="utf-8"?>
<!-- Generator: Adobe Illustrator 21.1.0, SVG Export Plug-In . SVG Version: 6.00 Build 0)  -->
<svg version="1.1" id="emoji" xmlns="http://www.w3.org/2000/svg" xmlns:xlink="http://www.w3.org/1999/xlink" x="0px" y="0px"
	 viewBox="0 0 72 72" enable-background="new 0 0 72 72" xml:space="preserve">
<g id="_xD83D__xDE92__1_">
	<path fill="#E85949" d="M54.5,53.6l4.3-0.9l5.9-2.6V35l-2.5-2.5H20.5c0,0-7.9,0-9.8,0.5C8.9,33.5,6.2,41,7.2,50.6l5.9,2H25v0.1
		L42,53.6"/>
	
		<polyline fill="none" stroke="#000000" stroke-width="2" stroke-linecap="round" stroke-linejoin="round" stroke-miterlimit="10" points="
		24.8,51.6 24.8,52.7 41.8,52.7 	"/>
	<path fill="none" stroke="#000000" stroke-width="2" stroke-linecap="round" stroke-linejoin="round" stroke-miterlimit="10" d="
		M54.6,52.7h4l5.9-2.6V35L62,32.5H20.3c0,0-7.9,0-9.8,0.5C8.8,33.5,6,42,7,51.6h5.9"/>
	<path fill="#3F4040" d="M23.1,36.6V41c0,0.6,0.4,1,0.9,1l7.5-0.6c0.5,0,0.9-0.4,0.9-1l0.6-3.8c0-0.6-0.4-1-0.9-1l-8.1,0
		C23.5,35.6,23.1,36.1,23.1,36.6z"/>
	
		<path fill="#93D1F2" stroke="#000000" stroke-width="2" stroke-linecap="round" stroke-linejoin="round" stroke-miterlimit="10" d="
		M12.9,32c0,0-0.1-2.1,2.4-2.2c2.4-0.1,2.4,2.2,2.4,2.2"/>
	<circle fill="#9B9A98" stroke="#000000" stroke-width="2" stroke-miterlimit="10" cx="19" cy="53.3" r="3"/>
	<path fill="#3F4040" d="M16.8,35.1h-3.1c-1.7,0-3,1.3-3,3l-0.4,3l5.8-1.1L16.8,35.1z"/>
	<circle fill="#9B9A98" stroke="#000000" stroke-width="2" stroke-miterlimit="10" cx="48.2" cy="53.3" r="3"/>
	<path fill="none" stroke="#000000" stroke-width="2" stroke-linecap="round" stroke-linejoin="round" stroke-miterlimit="10" d="
		M11.3,40.9l4.4-0.7c0.5-0.1,0.8-0.5,0.8-0.9l0.1-3.2"/>
	
		<path fill="#3F4040" stroke="#000000" stroke-width="2" stroke-linecap="round" stroke-linejoin="round" stroke-miterlimit="10" d="
		M24,41.4h7.2c0.6,0,1-0.4,1-1v-3.8"/>
	
		<path fill="#CECCCC" stroke="#000000" stroke-width="1.9162" stroke-linecap="round" stroke-linejoin="round" stroke-miterlimit="10" d="
		M60.7,36.5v11.8c0,0.3-0.3,0.6-0.6,0.6h-6.3c-0.3,0-0.6-0.3-0.6-0.6v-1.2h-9.5v1.2c0,0.3-0.3,0.6-0.6,0.6h-6.3
		c-0.3,0-0.6-0.3-0.6-0.6V36.5c0-0.5,0.4-0.9,0.9-0.9h22.5C60.3,35.6,60.7,36,60.7,36.5z"/>
	
		<line fill="none" stroke="#000100" stroke-width="2" stroke-linecap="round" stroke-linejoin="round" stroke-miterlimit="10" x1="61.2" y1="32.5" x2="21.2" y2="32.5"/>
	
		<line fill="none" stroke="#000000" stroke-width="2" stroke-linecap="round" stroke-linejoin="round" stroke-miterlimit="10" x1="61.2" y1="27.5" x2="21.2" y2="27.5"/>
	
		<line fill="none" stroke="#000000" stroke-width="2" stroke-linecap="round" stroke-linejoin="round" stroke-miterlimit="10" x1="26.2" y1="32.5" x2="26.2" y2="27.5"/>
	
		<line fill="none" stroke="#000000" stroke-width="2" stroke-linecap="round" stroke-linejoin="round" stroke-miterlimit="10" x1="32.2" y1="32.5" x2="32.2" y2="27.5"/>
	
		<line fill="none" stroke="#000000" stroke-width="2" stroke-linecap="round" stroke-linejoin="round" stroke-miterlimit="10" x1="38.2" y1="32.5" x2="38.2" y2="27.5"/>
	
		<line fill="none" stroke="#000000" stroke-width="2" stroke-linecap="round" stroke-linejoin="round" stroke-miterlimit="10" x1="56.2" y1="32.5" x2="56.2" y2="27.5"/>
	
		<line fill="none" stroke="#000000" stroke-width="2" stroke-linecap="round" stroke-linejoin="round" stroke-miterlimit="10" x1="50.2" y1="32.5" x2="50.2" y2="27.5"/>
	
		<line fill="none" stroke="#000000" stroke-width="2" stroke-linecap="round" stroke-linejoin="round" stroke-miterlimit="10" x1="44.2" y1="32.5" x2="44.2" y2="27.5"/>
	<path fill="#CECCCC" d="M9.9,45.5h2c0.3,0.3-0.5,0.6-0.5,1.3v1.4c0,0.7-0.6,1.3-1.3,1.3h0c-0.7,0-1.2-0.5-1.3-1.2l-0.1-1.4
		C8.6,46.1,9.2,45.5,9.9,45.5z"/>
	<path fill="none" stroke="#000000" stroke-width="2" stroke-linecap="round" stroke-linejoin="round" stroke-miterlimit="10" d="
		M11.7,46.4v1.1c0,0.6-1.4,1-2,1h0"/>
</g>
</svg>
