<svg id="emoji" xmlns="http://www.w3.org/2000/svg" viewBox="0 0 72 72">
  <g id="color">
    <polygon points="22.647 27.358 27.455 24.854 44.988 24.812 50.21 28.861 52.822 38.045 54.853 39.798 54.397 52.154 17.384 52.531 17.384 39.051 18.414 38.511 22.647 27.358" fill="#f4aa41"/>
    <polygon points="23.192 37.462 48.756 37.443 45.846 28.155 26.314 28.155 23.192 37.462" fill="#92d3f5"/>
    <rect x="19.9781" y="41.3302" width="5" height="3.51" fill="#fcea2b"/>
    <rect x="45.9781" y="41.3302" width="5" height="3.51" fill="#fcea2b"/>
    <polygon points="32.518 20.533 27.217 20.533 27.217 24.839 44.887 24.839 44.887 20.533 32.518 20.533" fill="#fcea2b"/>
    <rect x="17.6414" y="47.8436" width="37.242" height="4.2363" rx="2.1181" ry="2.1181" fill="#3f3f3f"/>
  </g>
  <g id="line">
    <polyline points="24.095 37.443 48.756 37.443 45.878 28.852" fill="none" stroke="#000" stroke-linecap="round" stroke-linejoin="round" stroke-width="2"/>
    <line x1="32" y1="42.1606" x2="41" y2="42.1606" fill="none" stroke="#000" stroke-linecap="round" stroke-miterlimit="10" stroke-width="2"/>
    <line x1="32" y1="44.7931" x2="41" y2="44.7931" fill="none" stroke="#000" stroke-linecap="round" stroke-miterlimit="10" stroke-width="2"/>
    <polyline points="21 44.793 25 44.793 25 42.161" fill="none" stroke="#000" stroke-linecap="round" stroke-linejoin="round" stroke-width="2"/>
    <polyline points="47 44.793 51 44.793 51 42.161" fill="none" stroke="#000" stroke-linecap="round" stroke-linejoin="round" stroke-width="2"/>
    <rect x="18" y="52.49" width="6" height="3.51" rx="1.755" ry="1.755"/>
    <rect x="48" y="52.49" width="6" height="3.51" rx="1.755" ry="1.755"/>
    <rect x="52.4782" y="35.5017" width="4.9651" height="3.2736" rx="1.6368" ry="1.6368"/>
    <rect x="14.5041" y="35.6858" width="4.9651" height="3.2736" rx="1.6368" ry="1.6368"/>
    <path d="M26.3876,24.3126h0c0-2.3685,1.18-4.3064,2.6216-4.3064H42.9908c1.4419,0,2.6216,1.9379,2.6216,4.3064h0" fill="none" stroke="#000" stroke-linecap="round" stroke-linejoin="round" stroke-width="2"/>
    <path d="M19.598,38.3373l2.0507-6.9637c1.1278-3.83,4.8183-6.9636,8.201-6.9636H36" fill="none" stroke="#000" stroke-linecap="round" stroke-linejoin="round" stroke-width="2"/>
    <path d="M52.4019,38.3371l-2.0506-6.9635c-1.1279-3.83-4.8183-6.9636-8.201-6.9636H36" fill="none" stroke="#000" stroke-linecap="round" stroke-linejoin="round" stroke-width="2"/>
    <path d="M36.2624,52.49H19.9134a2.9458,2.9458,0,0,1-2.9267-2.9474V42.5053c0-1.5965.89-4.0754,2.4927-4.0754" fill="none" stroke="#000" stroke-linecap="round" stroke-linejoin="round" stroke-width="2"/>
    <path d="M35.6851,52.49h16.349a2.9458,2.9458,0,0,0,2.9267-2.9474V42.5053c0-1.5965-.89-4.0754-2.4927-4.0754" fill="none" stroke="#000" stroke-linecap="round" stroke-linejoin="round" stroke-width="2"/>
  </g>
</svg>
