<?xml version="1.0" encoding="utf-8"?>
<!-- Generator: Adobe Illustrator 19.1.0, SVG Export Plug-In . SVG Version: 6.00 Build 0)  -->
<svg version="1.1" id="emoji" xmlns="http://www.w3.org/2000/svg" xmlns:xlink="http://www.w3.org/1999/xlink" x="0px" y="0px"
	 viewBox="0 0 72 72" enable-background="new 0 0 72 72" xml:space="preserve">
<g id="_xD83D__xDE90__1_">
	<path fill="#CECCCC" d="M61.1,53.1l3.5-1H67l-0.1-4.6h-0.7c0,0,0.6-17.6-1.8-18.5c-2.4-0.9-27.7-0.6-30.8,0S27,28.6,15.8,39.9
		L8,42.5c0,0-1.5,0.8-1.6,5.2c0,0-0.9,0.2-0.8,1.5c0.1,1.2-0.3,4.3,5,4.5"/>
	<path fill="none" stroke="#000000" stroke-width="2" stroke-linecap="round" stroke-linejoin="round" stroke-miterlimit="10" d="
		M61,52.1l3.6-0.1H67l-0.1-4.6h-0.7c0,0,0.6-17.6-1.8-18.5c-2.4-0.9-27.7-0.6-30.8,0S27,28.6,15.8,39.9L8,42.5c0,0-1.5,0.8-1.6,5.2
		c0,0-0.9,0.2-0.8,1.5c0.1,1.2-0.5,3.4,4.8,3.7"/>
	
		<line fill="none" stroke="#000000" stroke-width="2" stroke-linecap="round" stroke-linejoin="round" stroke-miterlimit="10" x1="23.1" y1="52.8" x2="48.4" y2="52.3"/>
	
		<circle fill="#CECCCC" stroke="#000000" stroke-width="2" stroke-linecap="round" stroke-linejoin="round" stroke-miterlimit="10" cx="16.5" cy="52.3" r="3"/>
	
		<circle fill="#CECCCC" stroke="#000000" stroke-width="2" stroke-linecap="round" stroke-linejoin="round" stroke-miterlimit="10" cx="55" cy="52.3" r="3"/>
	<g>
		<path fill="#F9E936" d="M14.2,44.6c0,0,0.1-1.1-1.3-1.2s-3.9,1.2-4,1.6c-0.1,0.4-0.3,1.4,0.3,1.6C9.8,46.7,14.2,44.6,14.2,44.6z"
			/>
		<path fill="none" stroke="#000100" stroke-width="2" stroke-linecap="round" stroke-linejoin="round" stroke-miterlimit="10" d="
			M13.3,44.5c0,0-2,1.7-3.6,1.9"/>
	</g>
	<path fill="#3F4040" d="M19,41.6c0.4,0,10.2-0.2,10.8-1.8s0.6-7.4,0.6-7.4s-5.2,1.8-7.4,4C19,40.4,19,41.6,19,41.6z"/>
	<path fill="none" stroke="#000000" stroke-width="2" stroke-linecap="round" stroke-linejoin="round" stroke-miterlimit="10" d="
		M19.9,41.5c0.4,0,9.3-0.1,9.9-1.6s0.6-6.5,0.6-6.5"/>
	<path fill="#3F4040" d="M34.1,32.9v7.6c0,0.6,0.4,1,1,1l21.8-0.8c0.2,0,0.5-0.1,0.6-0.2l2.2-1.8c0.2-0.2,0.4-0.5,0.4-0.8l0.7-5
		c0-0.6-0.4-1-1-1H35.1C34.5,31.9,34.1,32.4,34.1,32.9z"/>
	<path fill="none" stroke="#000000" stroke-width="2" stroke-linecap="round" stroke-linejoin="round" stroke-miterlimit="10" d="
		M35.1,40.7h21.8c0.2,0,0.5-0.1,0.6-0.2l2.2-1.8c0.2-0.2,0.4-0.5,0.4-0.8v-5"/>
	<path fill="#E85949" d="M64.1,48h-2.4v-6.1h1.4c0.6,0,1,0.4,1,1V48z"/>
	
		<polyline fill="none" stroke="#000000" stroke-width="2" stroke-linecap="round" stroke-linejoin="round" stroke-miterlimit="10" points="
		61.7,42.8 61.7,47.6 63.1,48 	"/>
</g>
</svg>
