<?xml version="1.0" encoding="utf-8"?>
<!-- Generator: Adobe Illustrator 19.1.0, SVG Export Plug-In . SVG Version: 6.00 Build 0)  -->
<svg version="1.1" id="emoji" xmlns="http://www.w3.org/2000/svg" xmlns:xlink="http://www.w3.org/1999/xlink" x="0px" y="0px"
	 viewBox="0 0 72 72" enable-background="new 0 0 72 72" xml:space="preserve">
<g id="_xD83D__xDEAE__1_">
	
		<path fill="#62AFE1" stroke="#000000" stroke-width="2" stroke-linecap="round" stroke-linejoin="round" stroke-miterlimit="10" d="
		M60,61H12c-0.6,0-1-0.4-1-1V12c0-0.6,0.4-1,1-1h48c0.6,0,1,0.4,1,1v48C61,60.6,60.6,61,60,61z"/>
	<polyline fill="#FFFFFF" points="34,43.5 32.9,58.4 24.9,58.4 23.8,43.5 	"/>
	
		<polyline fill="none" stroke="#000000" stroke-width="2" stroke-linecap="round" stroke-linejoin="round" stroke-miterlimit="10" points="
		33.9,44.4 32.9,58.4 24.9,58.4 23.9,44.4 	"/>
	
		<path fill="#FFFFFF" stroke="#000000" stroke-width="1.8266" stroke-linecap="round" stroke-linejoin="round" stroke-miterlimit="10" d="
		M31.2,41.2c0,0-5.6,0.3-5.7,0.4c-0.1,0.1,1.2-1.6,1-3.5c0,0,3,1,5.9-0.5L31.2,41.2z"/>
	<path fill="#FFFFFF" d="M40.3,29.6"/>
	<path fill="#FFFFFF" d="M42.6,25.6c0,0-0.5,4-3,6.9c-0.6,0.7-2.8,2.1-3.4,2.3c-2.2,0.9-4.5-0.1-4.5-0.1l5.9-3.6l1.8-5.3L42.6,25.6z
		"/>
	<path fill="#FFFFFF" d="M52.7,41.3l-0.7-16c-0.1-1.9-1.6-3.4-3.5-3.4h-5c-1.9,0-3.4,1.5-3.5,3.4l1.1,2c0,0.1,0.2,0.6,0.1,0.7
		l0.5,11.9L41,58.2c0,0.3,0.2,0.5,0.4,0.7c0,0,0.1,0.1,0.1,0.1c0.2,0,0.5-0.4,0.6-0.9l2.1-18.6c0-0.4,0.1-0.8,0.3-1.1l0.8-0.5h1.3
		l0.6,0.7c0.1,0.3,0.3,0.6,0.3,1L50,58.1c0.1,0.6,0.4,0.9,0.6,0.9c0,0,0.1,0,0.1-0.1c0.2-0.2,0.2-0.5,0.2-0.7l-0.6-18.3l2.4,1.7
		C52.7,41.5,52.7,41.4,52.7,41.3z"/>
	<circle fill="#FFFFFF" cx="46" cy="16.5" r="2.4"/>
	<circle fill="none" stroke="#000000" stroke-width="2" stroke-miterlimit="10" cx="46" cy="16.5" r="2.4"/>
	<path fill="none" stroke="#000000" stroke-width="2" stroke-linecap="round" stroke-linejoin="round" d="M50,26.9l1.5,30.4
		c0,0.9-0.5,1.6-1.1,1.6c-0.8-0.1-1.4-0.8-1.4-1.6l-2-17.6c-0.1-0.9-0.5-1.6-1-1.6c-0.4,0-0.9,0.7-1,1.6l-2,17.6
		c0,0.8-0.6,1.5-1.4,1.6c-0.7,0-1.2-0.7-1.1-1.6L42,26.9"/>
	<path fill="none" stroke="#000000" stroke-width="2" stroke-linecap="round" stroke-linejoin="round" d="M32.1,33.8
		c0,0,3.9-1.4,5-3c1-1.5,4.2-9,6.5-9h4.8c2.2,0,4.1,1.8,4.2,4L53.2,41"/>
</g>
</svg>
