<?xml version="1.0" encoding="utf-8"?>
<!-- Generator: Adobe Illustrator 19.1.0, SVG Export Plug-In . SVG Version: 6.00 Build 0)  -->
<svg version="1.1" id="Ebene_3" xmlns="http://www.w3.org/2000/svg" xmlns:xlink="http://www.w3.org/1999/xlink" x="0px" y="0px"
	 viewBox="0 0 72 72" enable-background="new 0 0 72 72" xml:space="preserve">
<g id="_xD83D__xDEA2__1_">
	<path fill="#E85949" d="M68,26.1H33c-0.5,0-1,0.4-1,0.9v2.4h36V26.1z"/>
	<path fill="#FFFFFF" d="M68,25.1H46.7l6.2-13c0.1-0.3,0.4-0.5,0.7-0.5H68"/>
	<path fill="#3F4040" d="M32,29.4c0,0,13.4,6.8,15.7,22.2c0.1,0.4,0.5,0.8,1,0.8H68v-23"/>
	
		<path fill="#3F4040" stroke="#000000" stroke-width="2" stroke-linecap="round" stroke-linejoin="round" stroke-miterlimit="10" d="
		M63.1,11.6V5.9c0-0.5,0.3-0.9,0.7-0.9h2.3c0.4,0,0.7,0.4,0.7,0.9v5.7H63.1z"/>
	
		<line fill="none" stroke="#000100" stroke-width="2" stroke-linecap="round" stroke-linejoin="round" stroke-miterlimit="10" x1="53.7" y1="16.4" x2="64.4" y2="16.4"/>
	
		<line fill="none" stroke="#000100" stroke-width="2" stroke-linecap="round" stroke-linejoin="round" stroke-miterlimit="10" x1="51.5" y1="20.4" x2="64.4" y2="20.4"/>
	
		<path fill="#3F4040" stroke="#000000" stroke-width="2" stroke-linecap="round" stroke-linejoin="round" stroke-miterlimit="10" d="
		M32,29.4c0,0,10.4,6.8,12.7,22.2c0.1,0.4,0.5,0.8,1,0.8H67"/>
	
		<line fill="none" stroke="#000100" stroke-width="2" stroke-linecap="round" stroke-linejoin="round" stroke-miterlimit="10" x1="53.7" y1="16.4" x2="64.4" y2="16.4"/>
	
		<line fill="none" stroke="#000100" stroke-width="2" stroke-linecap="round" stroke-linejoin="round" stroke-miterlimit="10" x1="51.5" y1="20.4" x2="64.4" y2="20.4"/>
	
		<path fill="#E85949" stroke="#000000" stroke-width="2" stroke-linecap="round" stroke-linejoin="round" stroke-miterlimit="10" d="
		M67,25.6H33c-0.5,0-1,0.4-1,0.9v2.4h35"/>
	<path fill="none" d="M67,26.1H45.7l7.2-14c0.1-0.3,0.4-0.5,0.7-0.5H68"/>
	<path fill="none" stroke="#000000" stroke-width="2" stroke-linecap="round" stroke-linejoin="round" stroke-miterlimit="10" d="
		M66,25.6H45.7l7.2-13.6c0.1-0.3,0.4-0.5,0.7-0.5H67"/>
	
		<line fill="none" stroke="#000100" stroke-width="2" stroke-linecap="round" stroke-linejoin="round" stroke-miterlimit="10" x1="53.7" y1="16.4" x2="64.4" y2="16.4"/>
	
		<line fill="none" stroke="#000100" stroke-width="2" stroke-linecap="round" stroke-linejoin="round" stroke-miterlimit="10" x1="51.5" y1="20.4" x2="64.4" y2="20.4"/>
	
		<line fill="none" stroke="#000000" stroke-width="2" stroke-linecap="round" stroke-linejoin="round" stroke-miterlimit="10" x1="53.7" y1="16.4" x2="64.4" y2="16.4"/>
	
		<line fill="none" stroke="#000000" stroke-width="2" stroke-linecap="round" stroke-linejoin="round" stroke-miterlimit="10" x1="51.5" y1="20.4" x2="64.4" y2="20.4"/>
	
		<path fill="#FFFFFF" stroke="#000100" stroke-width="2" stroke-linecap="round" stroke-linejoin="round" stroke-miterlimit="10" d="
		M34,63.5V64c0,0-0.2-0.1-0.5-0.2C33.6,63.7,33.8,63.6,34,63.5z"/>
	
		<path fill="#FFFFFF" stroke="#000100" stroke-width="2" stroke-linecap="round" stroke-linejoin="round" stroke-miterlimit="10" d="
		M33.5,63.8C33.2,63.9,33,64,33,64v-0.5C33.2,63.6,33.4,63.7,33.5,63.8z"/>
	<polyline fill="none" points="69,48.2 68,68 4,68 4,48.2 	"/>
	<path fill="#93D1F2" d="M68,47v21H4V47h1c3,0,9,3,15,3s10-3,16-3s11,3,16,3s7-3,15-3H68z"/>
	<path fill="none" stroke="#000000" stroke-width="2" stroke-linecap="round" stroke-linejoin="round" stroke-miterlimit="10" d="
		M5,47c3,0,9,3,15,3s10-3,16-3s11,3,16,3s7-3,15-3"/>
</g>
</svg>
