<svg id="emoji" xmlns="http://www.w3.org/2000/svg" viewBox="0 0 72 72">
  <g id="color">
    <rect x="17" y="33.13" fill="#FFFFFF" width="34.001" height="8.7" stroke="none"/>
    <rect x="50.9993" y="33.06" fill="#9B9B9A" width="4.0017" height="8.8" stroke="none"/>
    <rect x="17" y="34" fill="#f1b31c" width="7" height="7" stroke="none"/>
    <rect x="32.4645" y="4.1802" transform="matrix(0.7071 -0.7071 0.7071 0.7071 -14.9117 36)" fill="#ea5a47" stroke="none" stroke-width="2" stroke-linecap="round" stroke-linejoin="round" stroke-miterlimit="10" width="7.0711" height="63.6396"/>
  </g>
  <g id="hair"/>
  <g id="skin"/>
  <g id="skin-shadow"/>
  <g id="line">
    <polyline fill="none" stroke="#000000" stroke-width="1.99" stroke-linecap="round" stroke-linejoin="round" stroke-miterlimit="10" points="51.001,40.9648 51.001,33.9648 44,33.9648"/>
    <polyline fill="none" stroke="#000000" stroke-width="1.99" stroke-linecap="round" stroke-linejoin="round" stroke-miterlimit="10" points="22.9583,33.9648 17,33.9648 17.001,40.9648 30,40.9648"/>
    <line fill="none" stroke="#000000" stroke-width="1.99" stroke-linecap="round" stroke-linejoin="round" stroke-miterlimit="10" x1="55.001" y1="34" x2="55.001" y2="41"/>
    <path fill="none" stroke="#000000" stroke-width="1.99" stroke-linecap="round" stroke-linejoin="round" stroke-miterlimit="10" d="M49.001,24c0,1.6572,1.3428,3,3,3c1.6572,0,3,1.3428,3,3"/>
    <rect x="32.4645" y="4.1802" transform="matrix(0.7071 -0.7071 0.7071 0.7071 -14.9117 36)" fill="none" stroke="#000000" stroke-width="2" stroke-linecap="round" stroke-linejoin="round" stroke-miterlimit="10" width="7.0711" height="63.6396"/>
  </g>
</svg>
