<?xml version="1.0" encoding="utf-8"?>
<!-- Generator: Adobe Illustrator 21.1.0, SVG Export Plug-In . SVG Version: 6.00 Build 0)  -->
<svg version="1.1" id="emoji" xmlns="http://www.w3.org/2000/svg" xmlns:xlink="http://www.w3.org/1999/xlink" x="0px" y="0px"
	 viewBox="0 0 72 72" enable-background="new 0 0 72 72" xml:space="preserve">
<g id="_xD83D__xDEA7__1_">
	
		<path fill="#FFFFFF" stroke="#000000" stroke-width="2" stroke-linecap="round" stroke-linejoin="round" stroke-miterlimit="10" d="
		M15.7,56h-1.6c-0.6,0-1.1-0.5-1.1-1.1V24.1c0-0.6,0.5-1.1,1.1-1.1h1.6c0.6,0,1.1,0.5,1.1,1.1v30.7C16.9,55.5,16.4,56,15.7,56z"/>
	
		<path fill="#FFFFFF" stroke="#000000" stroke-width="2" stroke-linecap="round" stroke-linejoin="round" stroke-miterlimit="10" d="
		M59.3,56h-1.6c-0.6,0-1.1-0.5-1.1-1.1V24.1c0-0.6,0.5-1.1,1.1-1.1h1.6c0.6,0,1.1,0.5,1.1,1.1v30.7C60.4,55.5,59.9,56,59.3,56z"/>
	
		<rect x="8.1" y="27.7" fill="#FFFFFF" stroke="#000000" stroke-width="2" stroke-linecap="round" stroke-linejoin="round" stroke-miterlimit="10" width="56.8" height="7.1"/>
	
		<rect x="8.1" y="27.7" fill="#E85949" stroke="#000000" stroke-width="2" stroke-linecap="round" stroke-linejoin="round" stroke-miterlimit="10" width="11.4" height="7.1"/>
	
		<rect x="19.5" y="27.7" fill="#FFFFFF" stroke="#000000" stroke-width="2" stroke-linecap="round" stroke-linejoin="round" stroke-miterlimit="10" width="11.4" height="7.1"/>
	
		<rect x="30.8" y="27.7" fill="#E85949" stroke="#000000" stroke-width="2" stroke-linecap="round" stroke-linejoin="round" stroke-miterlimit="10" width="11.4" height="7.1"/>
	
		<rect x="42.1" y="27.7" fill="#FFFFFF" stroke="#000000" stroke-width="2" stroke-linecap="round" stroke-linejoin="round" stroke-miterlimit="10" width="11.4" height="7.1"/>
	
		<rect x="53.5" y="27.7" fill="#E85949" stroke="#000000" stroke-width="2" stroke-linecap="round" stroke-linejoin="round" stroke-miterlimit="10" width="11.4" height="7.1"/>
	
		<rect x="8.1" y="41.7" fill="#FFFFFF" stroke="#000000" stroke-width="2" stroke-linecap="round" stroke-linejoin="round" stroke-miterlimit="10" width="56.8" height="7.1"/>
	
		<rect x="8.1" y="41.7" fill="#E85949" stroke="#000000" stroke-width="2" stroke-linecap="round" stroke-linejoin="round" stroke-miterlimit="10" width="11.4" height="7.1"/>
	
		<rect x="19.5" y="41.7" fill="#FFFFFF" stroke="#000000" stroke-width="2" stroke-linecap="round" stroke-linejoin="round" stroke-miterlimit="10" width="11.4" height="7.1"/>
	
		<rect x="30.8" y="41.7" fill="#E85949" stroke="#000000" stroke-width="2" stroke-linecap="round" stroke-linejoin="round" stroke-miterlimit="10" width="11.4" height="7.1"/>
	
		<rect x="42.1" y="41.7" fill="#FFFFFF" stroke="#000000" stroke-width="2" stroke-linecap="round" stroke-linejoin="round" stroke-miterlimit="10" width="11.4" height="7.1"/>
	
		<rect x="53.5" y="41.7" fill="#E85949" stroke="#000000" stroke-width="2" stroke-linecap="round" stroke-linejoin="round" stroke-miterlimit="10" width="11.4" height="7.1"/>
</g>
</svg>
