<svg id="emoji" xmlns="http://www.w3.org/2000/svg" viewBox="0 0 72 72">
  
  <g id="color">
    <path fill="#FFFFFF" stroke="none" stroke-width="1.8603" stroke-linecap="round" stroke-linejoin="round" stroke-miterlimit="10" d="
			M25.7191,37.219c0,0-18.6574,0.1092-18.8835,3.2051c-0.226,3.0959,12.1477,8.6395,12.1477,8.6395s0.7809,0.7927,11.6472,1.303
			c10.8662,0.5103,28.1411,1.0924,28.1411,1.0924l4.6809-4.3851c0.088-0.0825,0.1418-0.2035,0.1476-0.3325l0.0661-1.4563
			c0.0099-0.2177-0.1173-0.4093-0.3023-0.4554l-1.9028-0.4743l-5.017-3.2687c-0.0459-0.0299-0.0968-0.0487-0.1496-0.0553
			L25.7191,37.219z"></path>
    <path fill="#92d3f5" stroke="none" stroke-width="1.8603" stroke-linecap="round" stroke-linejoin="round" stroke-miterlimit="10" d="
			M45.7345,39.7147c0,0-6.8479-5.3894-15.0213-6.2024c-0.0867-0.0086-0.1747,0.0159-0.2494,0.0692l-5.1414,3.6651L45.7345,39.7147z"></path>
    <path fill="none" stroke="#ea5a47" stroke-width="1.8603" stroke-linecap="round" stroke-linejoin="round" stroke-miterlimit="10" d="
			M13.8717,41.0478c0,0,24.9872,2.43,42.3914,5.4447"></path>
    <path fill="#92d3f5" d="M68,47v22H4V47h1c3,0,9,3,15,3s10-3,16-3s11,3,16,3s7-3,15-3H68z" stroke="none"></path>
    <polyline fill="none" points="68,39.0208 68,55.0208 4,55.0208 4,39.0208 	" stroke="none"></polyline>
  </g>
  <g id="hair">
  </g>
  <g id="skin">
  </g>
  <g id="skin-shadow">
  </g>
  <g id="line">
    <path fill="none" stroke="#000000" stroke-width="1.8603" stroke-linecap="round" stroke-linejoin="round" stroke-miterlimit="10" d="
			M25.7191,37.219c0,0-18.6574,0.1092-18.8835,3.2051c-0.226,3.0959,12.1477,8.6395,12.1477,8.6395s0.7809,0.7927,11.6472,1.303
			c10.8662,0.5103,28.1411,1.0924,28.1411,1.0924l4.6809-4.3851c0.088-0.0825,0.1418-0.2035,0.1476-0.3325l0.0661-1.4563
			c0.0099-0.2177-0.1173-0.4093-0.3023-0.4554l-1.9028-0.4743l-5.017-3.2687c-0.0459-0.0299-0.0968-0.0487-0.1496-0.0553
			L25.7191,37.219z"></path>
    <path fill="none" stroke="#000000" stroke-width="1.8603" stroke-linecap="round" stroke-linejoin="round" stroke-miterlimit="10" d="
			M45.7345,39.7147c0,0-6.8479-5.3894-15.0213-6.2024c-0.0867-0.0086-0.1747,0.0159-0.2494,0.0692l-5.1414,3.6651L45.7345,39.7147z"></path>
    <path fill="none" stroke="#000000" stroke-width="2" stroke-linecap="round" stroke-linejoin="round" stroke-miterlimit="10" d="
		M5,47c3,0,9,3,15,3s10-3,16-3s11,3,16,3s7-3,15-3"></path>
  </g>
</svg>