<?xml version="1.0" encoding="utf-8"?>
<!-- Generator: Adobe Illustrator 19.1.0, SVG Export Plug-In . SVG Version: 6.00 Build 0)  -->
<svg version="1.1" id="emoji" xmlns="http://www.w3.org/2000/svg" xmlns:xlink="http://www.w3.org/1999/xlink" x="0px" y="0px"
	 viewBox="0 0 72 72" enable-background="new 0 0 72 72" xml:space="preserve">
<g id="_xD83D__xDEB9__xFE0F__1_">
	
		<path fill="#62AFE1" stroke="#000000" stroke-width="2" stroke-linecap="round" stroke-linejoin="round" stroke-miterlimit="10" d="
		M60,61H12c-0.6,0-1-0.4-1-1V12c0-0.6,0.4-1,1-1h48c0.6,0,1,0.4,1,1v48C61,60.6,60.6,61,60,61z"/>
	<path fill="#FFFFFF" d="M42.3,40.5L41.7,25c-0.1-1.8-1.6-3.3-3.4-3.3h-4.8c-1.8,0-3.3,1.5-3.4,3.3l-1.8,15.6c0,0.1,0.1,0.6,0.1,0.7
		l3.4-2L31,56.9c0,0.3,0.2,0.5,0.4,0.7c0,0,0.1,0.1,0.1,0.1c0.2,0,0.5-0.3,0.6-0.9l2-18c0-0.4,0.1-0.7,0.3-1.1l0.8-0.5h1.3l0.6,0.6
		c0.1,0.3,0.3,0.6,0.3,1l2.3,18c0.1,0.6,0.4,0.9,0.6,0.9c0,0,0.1,0,0.1-0.1c0.2-0.2,0.2-0.5,0.2-0.7l-0.6-17.7l2.3,1.7
		C42.4,40.8,42.3,40.7,42.3,40.5z"/>
	<circle fill="#FFFFFF" cx="35.8" cy="15.7" r="2.4"/>
	<circle fill="none" stroke="#000000" stroke-width="2" stroke-miterlimit="10" cx="35.8" cy="15.7" r="2.4"/>
	<path fill="none" stroke="#000000" stroke-width="2" stroke-linecap="round" stroke-linejoin="round" d="M39.9,26l1.5,30.4
		c0,0.9-0.5,1.6-1.1,1.6c-0.8-0.1-1.4-0.8-1.4-1.6l-2-17.6c-0.1-0.9-0.5-1.6-1-1.6c-0.4,0-0.9,0.7-1,1.6l-2,17.6
		c0,0.8-0.6,1.5-1.4,1.6c-0.7,0-1.2-0.7-1.1-1.6L31.9,26"/>
	<path fill="none" stroke="#000000" stroke-width="2" stroke-linecap="round" stroke-linejoin="round" d="M27.9,40.7
		c0,0,1-6.1,1.2-8.1c0.2-1.8,0.2-7.4,0.2-7.4c0.1-2.2,1.9-4,4.2-4h4.8c2.2,0,4.1,1.8,4.2,4l0.6,15.2"/>
</g>
</svg>
