<?xml version="1.0" encoding="utf-8"?>
<!-- Generator: Adobe Illustrator 21.1.0, SVG Export Plug-In . SVG Version: 6.00 Build 0)  -->
<svg version="1.1" id="emoji" xmlns="http://www.w3.org/2000/svg" xmlns:xlink="http://www.w3.org/1999/xlink" x="0px" y="0px"
	 viewBox="0 0 72 72" enable-background="new 0 0 72 72" xml:space="preserve">
<g id="_xD83D__xDEB6__x200D__x2642__xFE0F__1_">
	<g>
		<g>
			<polyline fill="#FCEA2B" points="40,29 41,37 37,42 30.2,67 27,66 31,30 			"/>
		</g>
		<g>
			<polyline fill="#FCEA2B" points="39,39 41,50 48.2,64 46,65 37,53 35,47 			"/>
		</g>
		<g>
			<path fill="#FCEA2B" d="M32,30c0,0,0-1.4,0-3s0.2-4.8,0.5-7c0.3-2.2,2.3-4,4.5-4l0,0c2.2,0,4,1.8,4,4V29"/>
		</g>
		<g>
			<path fill="#F8EB2B" d="M41,30"/>
		</g>
		<circle fill="#FCEA2B" cx="35.9" cy="8.1" r="2.9"/>
	</g>
	<g>
		<path fill="none" stroke="#000000" stroke-width="2" stroke-linecap="round" stroke-linejoin="round" stroke-miterlimit="10" d="
			M40,29l0.8,6c0.1,1.1-0.3,2.7-1,3.5l-1.5,1.9c-0.7,0.9-1.5,2.4-1.8,3.5l-5.8,21.1c-0.3,1.1-1.3,1.9-2.2,1.9s-1.6-0.9-1.5-2l4-35"
			/>
	</g>
	<g>
		<path fill="none" stroke="#000000" stroke-width="2" stroke-linecap="round" stroke-linejoin="round" stroke-miterlimit="10" d="
			M40,39l1.6,9c0.2,1.1,0.8,2.8,1.3,3.7l5.3,10.4c0.5,1,0.2,2.2-0.6,2.8c-0.8,0.5-2,0.2-2.6-0.7l-6-9.6c-0.6-0.9-1.3-2.5-1.7-3.6
			L36,47"/>
	</g>
	<g>
		<path fill="none" stroke="#000000" stroke-width="2" stroke-linecap="round" stroke-linejoin="round" stroke-miterlimit="10" d="
			M31,30c0,0,0-1.4,0-3s0.2-4.8,0.5-7c0.3-2.2,2.3-4,4.5-4l0,0c2.2,0,4,1.8,4,4V29"/>
	</g>
	<g>
		<path fill="none" stroke="#000000" stroke-width="2" stroke-linecap="round" stroke-linejoin="round" stroke-miterlimit="10" d="
			M40,30"/>
	</g>
	<g>
		<path fill="none" stroke="#000000" stroke-width="2" stroke-linecap="round" stroke-linejoin="round" stroke-miterlimit="10" d="
			M36,20l0.2,7.3c0,1.1-0.2,2.9-0.4,3.9L33,43"/>
	</g>
	<circle fill="none" stroke="#000000" stroke-width="2" stroke-miterlimit="10" cx="35.9" cy="8.1" r="2.9"/>
</g>
</svg>
