<?xml version="1.0" encoding="utf-8"?>
<!-- Generator: Adobe Illustrator 19.1.0, SVG Export Plug-In . SVG Version: 6.00 Build 0)  -->
<svg version="1.1" id="emoji" xmlns="http://www.w3.org/2000/svg" xmlns:xlink="http://www.w3.org/1999/xlink" x="0px" y="0px"
	 viewBox="0 0 72 72" enable-background="new 0 0 72 72" xml:space="preserve">
<g id="_xD83D__xDEBB__1_">
	
		<path fill="#62AFE1" stroke="#000000" stroke-width="2" stroke-linecap="round" stroke-linejoin="round" stroke-miterlimit="10" d="
		M59.9,61h-48c-0.6,0-1-0.4-1-1V12c0-0.6,0.4-1,1-1h48c0.6,0,1,0.4,1,1v48C60.9,60.6,60.5,61,59.9,61z"/>
	<path fill="#FFFFFF" d="M52.2,40.9l-0.6-15.6C51.5,23.5,50,22,48.2,22h-4.8c-1.8,0-3.3,1.5-3.4,3.3l-1.8,15.6
		c0,0.1,0.1,0.6,0.1,0.7l3.4-2L41,57.2c0,0.3,0.2,0.5,0.4,0.7c0,0,0.1,0.1,0.1,0.1c0.2,0,0.5-0.3,0.6-0.9l2-18
		c0-0.4,0.1-0.7,0.3-1.1l0.8-0.5h1.3l0.6,0.6c0.1,0.3,0.3,0.6,0.3,1l2.3,18c0.1,0.6,0.4,0.9,0.6,0.9c0,0,0.1,0,0.1-0.1
		c0.2-0.2,0.2-0.5,0.2-0.7L50,39.5l2.3,1.7C52.3,41.1,52.2,41,52.2,40.9z"/>
	<circle fill="#FFFFFF" cx="45.8" cy="16" r="2.4"/>
	<circle fill="none" stroke="#000000" stroke-width="2" stroke-miterlimit="10" cx="45.8" cy="16" r="2.4"/>
	<path fill="none" stroke="#000000" stroke-width="2" stroke-linecap="round" stroke-linejoin="round" d="M49.8,26.4l1.5,30.4
		c0,0.9-0.5,1.6-1.1,1.6c-0.8-0.1-1.4-0.8-1.4-1.6l-2-17.6c-0.1-0.9-0.5-1.6-1-1.6c-0.4,0-0.9,0.7-1,1.6l-2,17.6
		c0,0.8-0.6,1.5-1.4,1.6c-0.7,0-1.2-0.7-1.1-1.6l1.5-30.4"/>
	<path fill="none" stroke="#000000" stroke-width="2" stroke-linecap="round" stroke-linejoin="round" d="M37.8,41.1
		c0,0,1-6.1,1.2-8.1c0.2-1.8,0.2-7.4,0.2-7.4c0.1-2.2,1.9-4,4.2-4h4.8c2.2,0,4.1,1.8,4.2,4L53,40.8"/>
	<path fill="#FFFFFF" d="M34.2,40.6l-1.6-15.2c-0.1-1.8-2-3.3-3.8-3.4H24c-1.8,0-3.8,1.5-3.9,3.3l-1.3,15.6c0,0.1,0.7,0.6,0.7,0.7
		l2-0.8l-0.2,16.5c0,0.3,0.5,0.5,0.6,0.7c0,0,0.1,0.1,0.1,0.1c0.2,0,0.5-0.3,0.6-0.9l2-18c0-0.4,0.1-0.7,0.3-1.1l0.8-0.5H27l0.9,0.6
		c0.1,0.3,0.2,0.6,0.2,1l1.6,18.1c0.1,0.6,0.8,0.8,1,0.8c0,0,0.1,0,0.1-0.1c0.2-0.2,0.8-0.5,0.8-0.7l-0.2-16.5l2.9,0.7
		C34.4,41.3,34.2,40.7,34.2,40.6z"/>
	<circle fill="#FFFFFF" cx="26.5" cy="16" r="2.4"/>
	<circle fill="none" stroke="#000000" stroke-width="2" stroke-miterlimit="10" cx="26.5" cy="16" r="2.4"/>
	<path fill="none" stroke="#000000" stroke-width="2" stroke-linecap="round" stroke-linejoin="round" d="M30.4,26.7
		c-1.9,2.8-0.5,4.9,0,6.4c0.4,1.1,0.6,3.4,0.7,4.5c0.5,4.8,0.8,19.2,0.8,19.2c0,0.9-0.5,1.6-1.1,1.6c-0.8-0.1-1.4-0.8-1.4-1.6
		l-2-17.6c-0.1-0.9-0.5-1.6-1-1.6c-0.4,0-0.9,0.7-1,1.6l-2,17.6c0,0.8-0.6,1.5-1.4,1.6c-0.7,0-1.2-0.7-1.1-1.6c0,0,0.4-14.3,0.9-19
		c0.1-1.2,0.3-3.6,0.7-4.7c0.5-1.5,1.9-3.8,0-6.4"/>
	<path fill="none" stroke="#000000" stroke-width="2" stroke-linecap="round" stroke-linejoin="round" d="M19.2,41.1l0.6-15.2
		c0.1-2.2,1.9-4,4.2-4h4.8c2.2,0,4.1,1.8,4.2,4c0,0-0.2,5.6,0,7.4c0.2,2,1.7,7.8,1.7,7.8"/>
</g>
</svg>
