<svg id="emoji" viewBox="0 0 72 72" version="1.1" xmlns="http://www.w3.org/2000/svg">
  <g id="color">
    <rect x="12" y="12" width="48" height="47.83" fill="#92d3f5"/>
    <path fill="#fff" stroke-width="0.9389" d="m42.76 40.64-0.5949-14.27c-0.0861-1.727-2.221-3.739-3.911-3.756h-4.507c-1.69 0.01643-3.826 2.029-3.911 3.756l-0.5949 14.27c-0.0044 0.09774 0.5781 0.6289 0.5388 0.7181l2.37-1.859-0.7002 16.61c-0.02441 0.2366 0.1988 0.4894 0.3432 0.676 0.02845 0.03634 0.0692 0.06047 0.1142 0.06769 0.1607 0 0.4935-0.3213 0.5528-0.8454l1.91-16.93c0.04028-0.3471 0.1294-0.6864 0.2644-1.007l0.7391-0.4679h1.221l0.5442 0.6047c0.1155 0.2958 0.2655 0.5792 0.3026 0.8955l2.177 16.9c0.05934 0.5249 0.3913 0.8454 0.5521 0.8454 0.04497-0.0072 0.08563-0.03126 0.1142-0.0676 0.1445-0.1866 0.2119-0.4234 0.1878-0.6601l-0.536-16.63 2.254 1.826c-0.05446-0.1008 0.5775-0.5702 0.5722-0.6853z"/>
    <circle cx="36" cy="17.39" r="2.23" fill="#fff" stroke-width="0.9389"/>
  </g>
  <g id="line" fill="none" stroke="#000" stroke-width="2">
    <circle cx="36" cy="17.33" r="2.23" stroke-miterlimit="10"/>
    <path stroke-linecap="round" stroke-linejoin="round" d="m39.76 27.06 1.427 28.54c0.04131 0.8262-0.4319 1.502-1.052 1.502-0.7335-0.124-1.277-0.7489-1.298-1.493l-1.907-16.54c-0.09464-0.821-0.51-1.493-0.9231-1.493s-0.8262 0.6715-0.9231 1.493l-1.91 16.54c-0.0215 0.7436-0.5652 1.369-1.298 1.493-0.6197 0-1.093-0.676-1.052-1.502l1.427-28.54"/>
    <path stroke-linecap="round" stroke-linejoin="round" d="m42.76 40.58-0.5949-14.27c-0.1085-2.088-1.821-3.732-3.911-3.756h-4.507c-2.091 0.02338-3.803 1.667-3.911 3.756l-0.5949 14.27"/>
    <rect x="12" y="12" width="48" height="48" fill="none" stroke="#000" stroke-linecap="round" stroke-linejoin="round"/>
  </g>
</svg>
