<?xml version="1.0" encoding="utf-8"?>
<!-- Generator: Adobe Illustrator 19.1.0, SVG Export Plug-In . SVG Version: 6.00 Build 0)  -->
<svg version="1.1" id="emoji" xmlns="http://www.w3.org/2000/svg" xmlns:xlink="http://www.w3.org/1999/xlink" x="0px" y="0px"
	 viewBox="0 0 72 72" enable-background="new 0 0 72 72" xml:space="preserve">
<g id="_xD83D__xDEBC__xFE0F__1_">
	
		<path fill="#62AFE1" stroke="#000000" stroke-width="2" stroke-linecap="round" stroke-linejoin="round" stroke-miterlimit="10" d="
		M60,61H12c-0.6,0-1-0.4-1-1V12c0-0.6,0.4-1,1-1h48c0.6,0,1,0.4,1,1v48C61,60.6,60.6,61,60,61z"/>
	<path fill="#FFFFFF" d="M40.4,37.7c0,0-1.1-0.3-0.7,0.9l-3.6-2l1-1.2L40.4,37.7z"/>
	<path fill="#FFFFFF" d="M30.5,37.7c0,0,1.1-0.3,0.7,0.9l3.6-2l-1-1.2L30.5,37.7z"/>
	<path fill="none" stroke="#FFFFFF" stroke-width="3" stroke-linecap="round" stroke-linejoin="round" stroke-miterlimit="10" d="
		M46.2,39.6c-5.3-4.6-10.7-4.2-10.7-4.2s-5.6-0.4-10.9,4.2"/>
	<polyline fill="#FFFFFF" points="31,39 33,35 38.9,35 40,39 31,39 	"/>
	<path fill="none" stroke="#000000" stroke-width="2" stroke-linecap="round" stroke-linejoin="round" stroke-miterlimit="10" d="
		M47.4,40c-4.5-5.7-11.9-5.7-11.9-5.7s-7.4,0-11.9,5.7"/>
	
		<path fill="#FFFFFF" stroke="#000000" stroke-width="2" stroke-linecap="round" stroke-linejoin="round" stroke-miterlimit="10" d="
		M39,38.6l5.6,11.2c0,0,0,1.4-1.4,1.4c-1.4,0-5.6-4.2-5.6-4.2h-2.8h1.4h-2.8c0,0-4.2,4.2-5.6,4.2c-1.4,0-1.4-1.4-1.4-1.4L32,38.6"/>
	
		<polygon fill="#FFFFFF" stroke="#000000" stroke-width="2" stroke-linecap="round" stroke-linejoin="round" stroke-miterlimit="10" points="
		33.4,47 30.6,44.2 30.6,41.4 40.4,41.4 40.4,44.2 37.6,47 	"/>
	
		<circle fill="#FFFFFF" stroke="#000000" stroke-width="2" stroke-linecap="round" stroke-linejoin="round" stroke-miterlimit="10" cx="36.2" cy="27" r="4.2"/>
</g>
</svg>
