<svg version="1.1" id="Ebene_1" xmlns="http://www.w3.org/2000/svg" xmlns:xlink="http://www.w3.org/1999/xlink" x="0px" y="0px" viewBox="0 0 72 72" style="enable-background:new 0 0 72 72;" xml:space="preserve">
<style type="text/css">
	.st0{fill:#B2B2B2;}
	.st1{fill:none;stroke:#00A4FF;stroke-width:0.1;stroke-miterlimit:10;}
	.st2{fill:#F1B31C;stroke:#F1B31C;stroke-miterlimit:10;}
	.st3{fill:#F1B31C;}
	.st4{fill:#FFFFFF;}
	.st5{fill:none;stroke:#6A462F;stroke-width:3;stroke-miterlimit:10;}
	.st6{fill:none;stroke:#6A462F;stroke-width:2.3562;stroke-miterlimit:10;}
	.st7{fill:none;stroke:#F1B31C;stroke-width:2.3562;stroke-miterlimit:10;}
	.st8{fill:none;stroke:#000000;stroke-width:2.3562;stroke-linecap:round;stroke-linejoin:round;}
	.st9{fill:none;stroke:#000000;stroke-width:2;stroke-linejoin:round;}
	.st10{fill:none;stroke:#000000;stroke-width:2;stroke-linecap:square;stroke-miterlimit:10;}
	.st11{fill:none;stroke:#000000;stroke-width:2;stroke-linecap:square;stroke-linejoin:round;}
	.st12{fill:none;stroke:#000000;stroke-width:2;stroke-linecap:round;stroke-linejoin:round;}
</style>
<title>1F6CE</title>

<g id="emoji">
	<g id="color">
		<path class="st2" d="M36.4,16.8c-9.8,0-17.7,7.9-17.7,17.7c0,0,0,0,0,0h35.3C54.1,24.7,46.1,16.8,36.4,16.8L36.4,16.8z"></path>
		<path class="st3" d="M37.5,15.6c1,0,1.7-0.9,1.7-1.8c0-0.9-0.8-1.7-1.7-1.7c-1,0-1.7,0.9-1.7,1.8C35.8,14.8,36.5,15.6,37.5,15.6z"></path>
		<path class="st3" d="M36.7,41.6c1,0,1.7-0.9,1.7-1.8c0-0.9-0.8-1.7-1.7-1.7c-1,0-1.7,0.9-1.7,1.8C35,40.9,35.7,41.6,36.7,41.6z"></path>
		<path class="st4" d="M40.8,23c0.7-0.1,1.3,0.5,1.9,0.8c0.6,0.3,1.2,0.7,1.6,1.3c1,1.6,3.6,0.1,2.6-1.5c-0.7-1-1.6-1.8-2.7-2.4
			c-1-0.7-2.2-1.2-3.4-1.2c-0.8,0-1.5,0.7-1.5,1.5C39.3,22.3,40,23,40.8,23L40.8,23z"></path>
		<line class="st5" x1="14.5" y1="47.5" x2="56.5" y2="47.5"></line>
		<line class="st6" x1="17.9" y1="43.7" x2="54.5" y2="43.7"></line>
		<line class="st7" x1="16.2" y1="36" x2="57.4" y2="36"></line>
	</g>
	<g id="line">
		<path class="st8" d="M19.1,33.3c0-9.8,7.9-17.7,17.6-17.7c9.8,0,17.7,7.9,17.7,17.6c0,0,0,0.1,0,0.1"></path>
		<path class="st9" d="M17.3,34.3h39c0.9,0,1.7,0.8,1.7,1.7v0.1c0,0.9-0.8,1.7-1.7,1.7h-39c-0.9,0-1.7-0.8-1.7-1.7V36
			C15.6,35,16.3,34.3,17.3,34.3z"></path>
		<rect x="35" y="38.4" class="st10" width="3.5" height="2.4"></rect>
		<rect x="17.4" y="41.9" class="st11" width="37.7" height="3.5"></rect>
		<rect x="15" y="45.5" class="st11" width="42.4" height="3.5"></rect>
		<path class="st12" d="M35,15c0-1.3,1-2.4,2.3-2.4c1.3,0,2.4,1,2.4,2.3c0,0,0,0,0,0"></path>
	</g>
</g>
</svg>