<?xml version="1.0" encoding="utf-8"?>
<!-- Generator: Adobe Illustrator 21.1.0, SVG Export Plug-In . SVG Version: 6.00 Build 0)  -->
<svg version="1.1" id="emoji" xmlns="http://www.w3.org/2000/svg" xmlns:xlink="http://www.w3.org/1999/xlink" x="0px" y="0px"
	 viewBox="0 0 72 72" enable-background="new 0 0 72 72" xml:space="preserve">
<g id="_xD83D__xDED1__1_">
	
		<path fill="#D12F28" stroke="#000000" stroke-width="2" stroke-linecap="round" stroke-linejoin="round" stroke-miterlimit="10" d="
		M45.9,11H26.1c-0.3,0-0.5,0.1-0.7,0.3L11.3,25.3C11.1,25.5,11,25.8,11,26v19.9c0,0.3,0.1,0.5,0.3,0.7l14.1,14.1
		c0.2,0.2,0.4,0.3,0.7,0.3h19.9c0.3,0,0.5-0.1,0.7-0.3l14.1-14.1c0.2-0.2,0.3-0.4,0.3-0.7V26c0-0.3-0.1-0.5-0.3-0.7L46.6,11.3
		C46.5,11.1,46.2,11,45.9,11z"/>
	<path fill="none" stroke="#FFFFFF" stroke-width="2" stroke-linecap="round" stroke-linejoin="round" stroke-miterlimit="10" d="
		M44.4,14.7H27.6c-0.3,0-0.5,0.1-0.7,0.3L15,26.9c-0.2,0.2-0.3,0.4-0.3,0.7v16.8c0,0.3,0.1,0.5,0.3,0.7l11.9,11.9
		c0.2,0.2,0.4,0.3,0.7,0.3h16.8c0.3,0,0.5-0.1,0.7-0.3L57,45.1c0.2-0.2,0.3-0.4,0.3-0.7V27.6c0-0.3-0.1-0.5-0.3-0.7L45.1,15
		C44.9,14.8,44.7,14.7,44.4,14.7z"/>
	<path fill="none" stroke="#FFFFFF" stroke-width="2" stroke-linecap="round" stroke-linejoin="round" stroke-miterlimit="10" d="
		M39.3,39.5L39.3,39.5c-1.4,0-2.5-1.1-2.5-2.5v-2c0-1.4,1.1-2.5,2.5-2.5l0,0c1.4,0,2.5,1.1,2.5,2.5v2C41.8,38.4,40.7,39.5,39.3,39.5
		z"/>
	<path fill="none" stroke="#FFFFFF" stroke-width="2" stroke-linecap="round" stroke-linejoin="round" stroke-miterlimit="10" d="
		M26.1,33.9c-0.2-0.8-1.1-1.4-2.2-1.4l0,0c-1.2,0-2.2,0.8-2.2,1.8c0,1,1,1.8,2.2,1.8l0,0c1.2,0,2.2,0.8,2.2,1.8s-1,1.8-2.2,1.8l0,0
		c-1.1,0-1.9-0.6-2.2-1.4"/>
	<g>
		
			<line fill="none" stroke="#FFFFFF" stroke-width="2" stroke-linecap="round" stroke-linejoin="round" stroke-miterlimit="10" x1="29.6" y1="32.5" x2="33.6" y2="32.5"/>
		
			<line fill="none" stroke="#FFFFFF" stroke-width="2" stroke-linecap="round" stroke-linejoin="round" stroke-miterlimit="10" x1="31.6" y1="32.5" x2="31.6" y2="39.5"/>
	</g>
	<path fill="none" stroke="#FFFFFF" stroke-width="2" stroke-linecap="round" stroke-linejoin="round" stroke-miterlimit="10" d="
		M45.8,39.5v-7h2.7c1,0,1.7,0.8,1.7,1.7l0,0c0,1-0.8,1.7-1.7,1.7h-2.7"/>
</g>
</svg>
