<svg id="emoji" viewBox="0 0 72 72" xmlns="http://www.w3.org/2000/svg">
  <g id="color">
    <polygon fill="#fff" points="17.4191 28.499 9.9308 52.6028 19.8146 52.539 25.1865 34.3586 21.7457 27.0308 17.4191 28.499"/>
    <path fill="#d22f27" d="m29.2434,22.9412l1.7632-6.88.0151-.07c.2801-1.3514,1.154-2.5048,2.3793-3.14,1.9853-.88,4.13.52,4.8041,3.14l1.8186,7.09,13.8743,22.58c1.3552,2.4993,3.919,4.1076,6.759,4.24h2.3641c1.018.1605,1.7273,1.0966,1.6065,2.12l-.0753,4.7872c0,1.1046-.6589,2.4829-1.7635,2.4829h-2.8241l-.0793-4.7948h-.5164c-3.7218,0-7.1777-1.9292-9.1309-5.0973l-13.791-22.3684h-9.2884l1.1244-4.373.9603.2834Z"/>
    <path fill="#d0cfce" d="m42.0947,48.9733l-3.1581-3.7356-9.9992-16.2734v-1.9335h7.51s9.4916,13.5437,12.46,18.3579c1.9184,3.1115,2.9723,5.03,4.7426,6.25,1.0031.8894,1.9461,1.8442,2.823,2.8582h3.4129v4.7908h-12.4068l2.4471-2.9847v-4.402c0-1.1046-.8954-2-2-2l-5.8315-.9277Z"/>
    <path fill="#ea5a47" d="m21.7457,27.0308h-8.2518l2.8112-10.97.0152-.07c.2801-1.3514,1.154-2.5048,2.3793-3.14,1.9853-.88,4.13.52,4.8041,3.14l1.8186,7.09,13.8743,22.58c1.3552,2.4993,3.919,4.1076,6.759,4.24h3.0448c.5113,0,.9258.4145.9258.9258v6.5502c0,.5113-.4145.9258-.9258.9258l-.9839.9329h-6.5551L21.7457,27.0308Z"/>
  </g>
  <g id="line">
    <line x1="24.8609" x2="18.5199" y1="37.751" y2="58.3026" fill="none" stroke="#000" stroke-linecap="round" stroke-linejoin="round" stroke-width="2"/>
    <line x1="16.03" x2="7.3724" y1="30.2428" y2="58.3026" fill="none" stroke="#000" stroke-linecap="round" stroke-linejoin="round" stroke-width="2"/>
    <line x1="22.1376" x2="15.4257" y1="33.8403" y2="33.8403" fill="none" stroke="#000" stroke-linecap="round" stroke-linejoin="round" stroke-width="2"/>
    <line x1="23.5954" x2="13.4405" y1="40.2758" y2="40.2758" fill="none" stroke="#000" stroke-linecap="round" stroke-linejoin="round" stroke-width="2"/>
    <line x1="21.6102" x2="11.4553" y1="46.7114" y2="46.7114" fill="none" stroke="#000" stroke-linecap="round" stroke-linejoin="round" stroke-width="2"/>
    <line x1="19.625" x2="9.4701" y1="53.1469" y2="53.1469" fill="none" stroke="#000" stroke-linecap="round" stroke-linejoin="round" stroke-width="2"/>
    <polyline fill="none" stroke="#000" stroke-linecap="round" stroke-linejoin="round" stroke-width="2" points="48.119 45.962 36.447 27.031 28.115 27.031"/>
    <path fill="none" stroke="#000" stroke-linecap="round" stroke-linejoin="round" stroke-width="2" d="m53.2028,58.3026h6.6826v-3.8061h-.5164c-1.9375.0002-3.8388-.5245-5.5019-1.5185"/>
    <path fill="none" stroke="#000" stroke-linecap="round" stroke-linejoin="round" stroke-width="2" d="m29.2434,22.9412l1.7632-6.88.0151-.07c.2801-1.3514,1.154-2.5048,2.3793-3.14,1.9853-.88,4.13.52,4.8041,3.14l1.8186,7.09,13.8743,22.58c1.3552,2.4993,3.919,4.1076,6.759,4.24h1.9706c1.1046,0,2,.8954,2,2v4.4018c0,1.1046-.8954,2-2,2h-2.7422"/>
    <path fill="none" stroke="#000" stroke-linecap="round" stroke-linejoin="round" stroke-width="2" d="m21.7457,27.0308h-8.2518l2.8112-10.97.0152-.07c.2801-1.3514,1.154-2.5048,2.3793-3.14,1.9853-.88,4.13.52,4.8041,3.14l1.8186,7.09,13.8743,22.58c1.3552,2.4993,3.919,4.1076,6.759,4.24h1.9706c1.1046,0,2,.8954,2,2v4.4018c0,1.1046-.8954,2-2,2h-6.9044l-19.2761-31.2718Z"/>
  </g>
</svg>
