<svg id="emoji" xmlns="http://www.w3.org/2000/svg" viewBox="0 0 72 72">
  <g id="color">
    <rect x="11" y="17.17" width="50" height="38.83" fill="#b1cc33"/>
    <polygon points="26.564 17.552 16 43.649 11 56 15.989 56 55.978 56 61 56 56 43.649 45.436 17.552 26.564 17.552" fill="#6a462f"/>
    <polygon points="16 54.941 18.075 49.653 53.925 49.653 56 54.941 16 54.941" fill="#a57939"/>
    <polygon points="19.174 46.852 52.826 46.852 50.829 41.761 21.171 41.761 19.174 46.852" fill="#a57939"/>
    <polygon points="22.199 38.939 49.801 38.939 47.836 33.93 24.164 33.93 22.199 38.939" fill="#a57939"/>
    <polygon points="25.351 31.108 46.649 31.108 44.586 25.848 27.414 25.848 25.351 31.108" fill="#a57939"/>
    <polygon points="28.509 23.059 43.491 23.059 41.512 18.682 30.046 18.682 28.509 23.059" fill="#a57939"/>
  </g>
  <g id="line">
    <line x1="12.2327" y1="17.17" x2="59.9349" y2="17.17" fill="none" stroke="#000" stroke-linecap="round" stroke-linejoin="round" stroke-width="2"/>
    <polygon points="16 54.941 18.075 49.653 53.925 49.653 56 54.941 16 54.941" fill="none" stroke="#000" stroke-linecap="round" stroke-linejoin="round" stroke-width="2"/>
    <polygon points="19.174 46.852 52.826 46.852 50.829 41.761 21.171 41.761 19.174 46.852" fill="none" stroke="#000" stroke-linecap="round" stroke-linejoin="round" stroke-width="2"/>
    <polygon points="22.199 38.939 49.801 38.939 47.836 33.93 24.164 33.93 22.199 38.939" fill="none" stroke="#000" stroke-linecap="round" stroke-linejoin="round" stroke-width="2"/>
    <polygon points="25.351 31.108 46.649 31.108 44.586 25.848 27.414 25.848 25.351 31.108" fill="none" stroke="#000" stroke-linecap="round" stroke-linejoin="round" stroke-width="2"/>
    <polygon points="28.509 23.059 43.491 23.059 41.512 18.682 30.046 18.682 28.509 23.059" fill="none" stroke="#000" stroke-linecap="round" stroke-linejoin="round" stroke-width="2"/>
    <line x1="23.1988" y1="54.5256" x2="32.8913" y2="18.7251" fill="none" stroke="#000" stroke-linecap="round" stroke-linejoin="round" stroke-width="2"/>
    <line x1="48.8012" y1="54.5256" x2="39.1087" y2="18.7251" fill="none" stroke="#000" stroke-linecap="round" stroke-linejoin="round" stroke-width="2"/>
  </g>
</svg>
