<?xml version="1.0" encoding="utf-8"?>
<!-- Generator: Adobe Illustrator 19.1.0, SVG Export Plug-In . SVG Version: 6.00 Build 0)  -->
<svg version="1.1" id="emoji" xmlns="http://www.w3.org/2000/svg" xmlns:xlink="http://www.w3.org/1999/xlink" x="0px" y="0px"
	 viewBox="0 0 72 72" enable-background="new 0 0 72 72" xml:space="preserve">
<g id="_xD83D__xDEE0__xFE0F_">
	<path fill="#D0CFCE" d="M9.5,22.9l4.8,6.4l0,0c-0.4,1.3-1.6,2.2-3,2.2h0l-4.8-6.4l0,0C6.8,23.7,8.1,22.7,9.5,22.9L9.5,22.9z"/>
	<line fill="#010101" x1="41.7" y1="38.5" x2="46.8" y2="32"/>
	<polygon fill="#9B9B9A" points="42.9,27.8 18.4,58.1 24,62 45.8,34.7 48.1,31.9 	"/>
	<line fill="#010101" x1="43.4" y1="29.3" x2="38.7" y2="35.1"/>
	<path fill="#9B9B9A" d="M46.8,32c3.2,2.6,8.7,1.2,12.1-3.2s3.6-9.9,0.3-12.5l-5.1,6.5l-2.8-0.1L50.6,20l5.1-6.5
		c-3.2-2.6-8.7-1.2-12.1,3.2s-3.6,9.9-0.3,12.5"/>
	<polygon fill="#A57939" points="27.3,26 39.1,41.7 42.5,44.1 51.6,58.5 51.6,58.5 48.4,60.8 47.4,61.5 37.2,47.9 35.9,44 
		24.1,28.3 	"/>
	<path fill="#9B9B9A" d="M12,19.9l5.9,7.9l10.2-7.6l-3.4-4.5c0,0,6.8-5.1,10.7-4.5c0,0-6.6-3-13.3,1.1S12,19.9,12,19.9z"/>
	<g>
		<g>
			
				<polygon fill="none" stroke="#000000" stroke-width="2" stroke-linecap="round" stroke-linejoin="round" stroke-miterlimit="10" points="
				52,58.9 40.9,43.2 37.8,40.9 27.2,26.2 24.3,28.4 34.9,43.1 36,46.7 47.5,62.2 			"/>
			<path fill="none" stroke="#000000" stroke-width="2" stroke-linecap="round" stroke-linejoin="round" stroke-miterlimit="10" d="
				M12.5,19.8l5.8,8l10.3-7.4l-3.3-4.6c0,0,6.9-5,10.8-4.3c0,0-6.6-3.1-13.3,0.9S12.5,19.8,12.5,19.8z"/>
			<path fill="none" stroke="#000000" stroke-width="2" stroke-linecap="round" stroke-linejoin="round" stroke-miterlimit="10" d="
				M9.9,22.7l4.7,6.5l0,0c-0.5,1.3-1.7,2.1-3,2.2h0l-4.7-6.5l0,0C7.2,23.5,8.5,22.5,9.9,22.7L9.9,22.7z"/>
		</g>
		<g>
			
				<line fill="none" stroke="#000000" stroke-width="2" stroke-linecap="round" stroke-linejoin="round" stroke-miterlimit="10" x1="41.3" y1="38.5" x2="46.4" y2="32"/>
			
				<line fill="none" stroke="#000000" stroke-width="2" stroke-linecap="round" stroke-linejoin="round" stroke-miterlimit="10" x1="42.9" y1="29.3" x2="38.3" y2="35.1"/>
			<path fill="none" stroke="#000000" stroke-width="2" stroke-linecap="round" stroke-linejoin="round" stroke-miterlimit="10" d="
				M46.4,32c3.2,2.6,8.7,1.2,12.1-3.2s3.6-9.9,0.3-12.5l-5.1,6.5l-2.8-0.1L50.1,20l5.1-6.5c-3.2-2.6-8.7-1.2-12.1,3.2
				c-3.4,4.3-3.6,9.9-0.3,12.5"/>
		</g>
	</g>
	<path fill="none" stroke="#000000" stroke-miterlimit="10" d="M65.7,28.4"/>
	<path fill="none" stroke="#010101" stroke-width="2" stroke-linecap="round" stroke-linejoin="round" stroke-miterlimit="10" d="
		M50,25.9"/>
	
		<polyline fill="none" stroke="#000000" stroke-width="2" stroke-linecap="round" stroke-linejoin="round" stroke-miterlimit="10" points="
		30.8,44.4 19,58.9 23,61.9 33,49.2 	"/>
</g>
</svg>
