<svg id="emoji" viewBox="0 0 72 72" xmlns="http://www.w3.org/2000/svg">
  <g id="color">
    <path fill="#d0cfce" stroke="none" d="M43.1374,33.3 l11.8622,4.1237c1.2058,0.4192,2.3293,1.0434,3.315,1.8546 c2.8064,2.3099,8.0677,7.0692,4.5695,7.67c-4.6427,0.7974-27.5488-6.0191-34.2446-8.128 c-6.6959-2.1089-13.9071-6.0905-18.4098-9.464c-3.941-2.9528,2.243-1.9173,2.243-1.9173s7.116,1.0479,10.0418,1.7994l3.2761,0.0835"/>
    <polyline fill="#9b9b9a" stroke="none" points="23.5,29.4234 14.6898,16.1089 10.3451,14.4641 11.4,27.9556"/>
    <polyline fill="#9b9b9a" stroke="none" points="44,40.2 26.1047,22.6204 23.5352,22.5103 33.4,38.4"/>
  </g>
  <g id="hair"/>
  <g id="skin"/>
  <g id="skin-shadow"/>
  <g id="line">
    <polyline fill="none" stroke="#000000" stroke-linecap="round" stroke-linejoin="round" stroke-miterlimit="10" stroke-width="2" points="20.382,26.3985 14.0939,15.9336 11.0157,14.8931 12.1468,25.0383"/>
    <polyline fill="none" stroke="#000000" stroke-linecap="round" stroke-linejoin="round" stroke-miterlimit="10" stroke-width="2" points="44.2447,39.3708 26.1047,22.6204 23.5352,22.5103 33.0704,37.5285"/>
    <ellipse cx="32.4526" cy="44.1922" rx="2" ry="2" fill="#000000" stroke="none"/>
    <ellipse cx="37.7723" cy="45.7704" rx="2" ry="2" fill="#000000" stroke="none"/>
    <path fill="none" stroke="#000000" stroke-linecap="round" stroke-linejoin="round" stroke-miterlimit="10" stroke-width="2" d="M43.2603,34.3292l11.4341,3.2856c1.4513,0.417,2.7953,1.1264,3.9549,2.0935c2.86,2.3851,7.6527,6.8448,4.2739,7.425 c-4.6427,0.7974-27.5488-6.0191-34.2447-8.128c-6.6958-2.109-13.907-6.0905-18.4097-9.4641 c-3.941-2.9527,2.243-1.9172,2.243-1.9172s7.116,1.0479,10.0418,1.7994l2.9414,0.7554"/>
  </g>
</svg>
