<?xml version="1.0" encoding="utf-8"?>
<!-- Generator: Adobe Illustrator 19.1.0, SVG Export Plug-In . SVG Version: 6.00 Build 0)  -->
<svg version="1.1" id="emoji" xmlns="http://www.w3.org/2000/svg" xmlns:xlink="http://www.w3.org/1999/xlink" x="0px" y="0px"
	 viewBox="0 0 72 72" enable-background="new 0 0 72 72" xml:space="preserve">
<g id="_xD83D__xDEE9__xFE0F__1_">
	
		<line fill="none" stroke="#020203" stroke-width="2" stroke-linecap="round" stroke-linejoin="round" stroke-miterlimit="10" x1="39.4" y1="22.6" x2="49.4" y2="32.6"/>
	
		<line fill="none" stroke="#020203" stroke-width="2" stroke-linecap="round" stroke-linejoin="round" stroke-miterlimit="10" x1="40" y1="20.2" x2="37" y2="23.2"/>
	
		<line fill="none" stroke="#020203" stroke-width="2" stroke-linecap="round" stroke-linejoin="round" stroke-miterlimit="10" x1="51.7" y1="31.9" x2="48.7" y2="34.9"/>
	
		<path fill="#D0CECE" stroke="#020203" stroke-width="2" stroke-linecap="round" stroke-linejoin="round" stroke-miterlimit="10" d="
		M49,30c0,0-24,23-27,20s20-27,20-27s4-5,8-1S49,30,49,30z"/>
	
		<path fill="#9D9C9A" stroke="#020203" stroke-width="2" stroke-linecap="round" stroke-linejoin="round" stroke-miterlimit="10" d="
		M32,54.8l-2.2,3.2c-0.3,0.4-0.8,0.4-1.2,0.1L21.2,50l-8.3-7.6c-0.3-0.3-0.3-0.9,0.1-1.2l3.3-2.2c0.3-0.2,0.6-0.2,0.9,0l8.5,6.4
		L32,54C32.1,54.2,32.2,54.6,32,54.8z"/>
	
		<path fill="#9D9C9A" stroke="#020203" stroke-width="2" stroke-linecap="round" stroke-linejoin="round" stroke-miterlimit="10" d="
		M59.1,51.1l-5.6,3c-0.5,0.2-1.1,0.1-1.7-0.4L33.8,38.9l-0.6-0.5l-0.5-0.6L17.8,19.7c-0.5-0.6-0.6-1.3-0.4-1.7l3-5.6
		c0.4-0.7,1.5-0.6,2.3,0.3l17.6,18.6l18.6,17.5C59.7,49.6,59.8,50.8,59.1,51.1z"/>
	
		<line fill="none" stroke="#020203" stroke-width="2" stroke-linecap="round" stroke-linejoin="round" stroke-miterlimit="10" x1="33.8" y1="38.9" x2="33.2" y2="38.4"/>
	
		<line fill="none" stroke="#020203" stroke-width="2" stroke-linecap="round" stroke-linejoin="round" stroke-miterlimit="10" x1="33.2" y1="38.4" x2="32.7" y2="37.8"/>
	
		<line fill="none" stroke="#020203" stroke-width="1.7979" stroke-linecap="round" stroke-linejoin="round" stroke-miterlimit="10" x1="45.2" y1="13.2" x2="59" y2="27"/>
	
		<line fill="none" stroke="#020203" stroke-width="1.7979" stroke-linecap="round" stroke-linejoin="round" stroke-miterlimit="10" x1="53.3" y1="18.8" x2="50.7" y2="21.5"/>
</g>
</svg>
