<?xml version="1.0" encoding="utf-8"?>
<!-- Generator: Adobe Illustrator 19.1.0, SVG Export Plug-In . SVG Version: 6.00 Build 0)  -->
<svg version="1.1" id="emoji" xmlns="http://www.w3.org/2000/svg" xmlns:xlink="http://www.w3.org/1999/xlink" x="0px" y="0px"
	 viewBox="0 0 72 72" enable-background="new 0 0 72 72" xml:space="preserve">
<g id="_xD83D__xDEF5__1_">
	<path fill="#EA5949" d="M39.2,37c0,0-6,17.9-15.7-4.1c-1.3-2.9-1.6-7.5-1.6-7L16.1,38c-0.4,0.8-1.2,1.5-0.4,1.7
		c9.8,3.1,10.6,9.6,10.5,11.8c0,0.4,15.7,0.3,15.8,0c0.5-3.2,3.5-17.6,19.9-6.2c1,0.7-2.5-11.2-4-11.2c0,0-17.6,0.5-17.6,1.1
		L39.2,37"/>
	<circle fill="#CFCDCD" stroke="#000000" stroke-width="2" stroke-miterlimit="10" cx="16.2" cy="50.9" r="5.5"/>
	<circle fill="#CFCDCD" stroke="#000000" stroke-width="2" stroke-miterlimit="10" cx="51.4" cy="50.9" r="5.5"/>
	<path fill="none" stroke="#000000" stroke-width="2" stroke-linecap="round" stroke-linejoin="round" stroke-miterlimit="10" d="
		M26.3,50.8c0-0.5,0-0.9-0.1-1.4c-0.3-2-1.2-4-2.8-5.6c-3.9-3.9-10.2-3.9-14.1,0"/>
	<path fill="none" stroke="#000000" stroke-width="2" stroke-linecap="round" stroke-linejoin="round" stroke-miterlimit="10" d="
		M61.7,50.8c0-5.5-4.4-9.9-9.9-9.9c-5.5,0-9.9,4.4-9.9,9.9"/>
	
		<rect x="40.4" y="29.5" fill="#A37938" stroke="#000000" stroke-width="2" stroke-linecap="round" stroke-linejoin="round" stroke-miterlimit="10" width="18.4" height="5.7"/>
	
		<polyline fill="none" stroke="#000000" stroke-width="2" stroke-linecap="round" stroke-linejoin="round" stroke-miterlimit="10" points="
		14.9,40.9 23.4,23.8 29.1,23.8 	"/>
	
		<line fill="none" stroke="#000000" stroke-width="2" stroke-linecap="round" stroke-linejoin="round" stroke-miterlimit="10" x1="26.3" y1="50.9" x2="41.9" y2="50.9"/>
	<path fill="none" stroke="#000000" stroke-width="2" stroke-linecap="round" stroke-linejoin="round" stroke-miterlimit="10" d="
		M40.4,35.2c0,0-5.7,21.3-17,0"/>
	<path fill="none" stroke="#000000" stroke-width="2" stroke-linecap="round" stroke-linejoin="round" stroke-miterlimit="10" d="
		M59.9,43.3"/>
	<path fill="none" stroke="#000000" stroke-width="2" stroke-linecap="round" stroke-linejoin="round" stroke-miterlimit="10" d="
		M58.9,35.2"/>
	<path fill="none" stroke="#000000" stroke-width="2" stroke-linecap="round" stroke-linejoin="round" stroke-miterlimit="10" d="
		M58.9,35.2c0,0,4.3,7.1,2.8,15.6"/>
</g>
</svg>
