<?xml version="1.0" encoding="utf-8"?>
<!-- Generator: Adobe Illustrator 21.1.0, SVG Export Plug-In . SVG Version: 6.00 Build 0)  -->
<svg version="1.1" id="Ebene_3" xmlns="http://www.w3.org/2000/svg" xmlns:xlink="http://www.w3.org/1999/xlink" x="0px" y="0px"
	 viewBox="0 0 72 72" enable-background="new 0 0 72 72" xml:space="preserve">
<g id="_xD83D__xDEF8__1_">
	<path fill="#CECCCC" d="M60.8,45.2c-0.1,0-0.1,0-0.2,0c-0.1,0-0.1,0-0.2,0c0.1,0,0.2,0,0.2,0C60.7,45.3,60.8,45.3,60.8,45.2z"/>
	<path fill="#CECCCC" d="M60.7,45.3C60.6,45.3,60.6,45.3,60.7,45.3c-0.1,0-0.2,0-0.2,0C60.5,45.3,60.6,45.3,60.7,45.3z"/>
	<path fill="#CECCCC" d="M60.8,45.2c-0.1,0-0.1,0-0.2,0c-0.1,0-0.1,0-0.2,0c0.1,0,0.2,0,0.2,0C60.7,45.3,60.8,45.3,60.8,45.2z"/>
	<path fill="#CECCCC" d="M61.7,46.1c-0.3,0.3-4.7,0.5-10.7,0.7c-1.6,0-3.4,0.1-5.2,0.1c-1.2,0-2.4,0-3.6,0.1c-0.4,0-0.8,0-1.2,0
		c-0.1,0-0.2,0-0.3,0c-0.7,0-1.3,0-2,0c-1,0-2,0-3,0c-3,0-6.1,0-8.9,0c-1.1,0-2.3,0-3.3,0c-0.2,0-0.3,0-0.5,0c-0.5,0-1,0-1.5,0
		c-6-0.2-10.3-0.4-10.8-0.9c-0.7-0.7-0.8-1.4-0.6-2c0.2-0.7,0.6-1.1,0.6-1.1l10.2-7.2h30.6L61.7,43c0,0,0.3,0.6,0.4,1.3
		C62.2,44.9,62.1,45.6,61.7,46.1z"/>
	<polygon fill="#9B9A98" points="40.8,36.5 48.8,46.6 61.3,46 62.1,45 61.3,42.7 51.4,35.8 40.6,36 	"/>
	<path fill="#CECCCC" d="M41,46c-0.2,0-0.4,0-0.6,0h-0.5c0.2,0,0.4,0,0.6,0H41z"/>
	<path fill="#CECCCC" d="M46.2,45.9c-0.1,0-0.2,0-0.3,0c-0.2,0-0.4,0-0.6,0h-0.2c0.1,0,0.2,0,0.3,0c0.2,0,0.4,0,0.6,0H46.2z"/>
	<path fill="#CECCCC" d="M51.4,45.8C51.4,45.8,51.4,45.8,51.4,45.8c-0.2,0-0.5,0-0.7,0C50.9,45.8,51.1,45.8,51.4,45.8z"/>
	<path fill="#9B9A98" d="M51,46.8c-1.6,3-7.4,5.3-14.4,5.4c0.1-0.1,0.2-0.2,0.3-0.3c1.3-1.3,2.4-2.6,3.4-4c0.2-0.3,0.5-0.6,0.7-1
		c1.7,0,3.3,0,4.9-0.1C47.6,46.9,49.3,46.8,51,46.8z"/>
	<path fill="#CECCCC" d="M40.9,47c-0.2,0.3-0.4,0.7-0.7,1c-1,1.3-2.1,2.7-3.4,4c-0.1,0.1-0.2,0.2-0.3,0.3c-0.2,0-0.3,0-0.5,0
		c-0.9,0-1.7,0-2.6-0.1c-0.9-0.1-1.7-0.2-2.6-0.3c-4.6-0.8-8.2-2.5-9.6-4.8c0,0,0-0.1-0.1-0.1c2,0,4.1,0.1,6.3,0.1
		c0.1,0,0.2,0,0.4,0c4,0,8.4,0,12.5,0C40.7,47,40.8,47,40.9,47z"/>
	<path fill="#CECCCC" d="M41,46c-0.2,0-0.4,0-0.6,0h-0.5c0.2,0,0.4,0,0.6,0H41z"/>
	<path fill="#CECCCC" d="M46.2,45.9c-0.1,0-0.2,0-0.3,0c-0.2,0-0.4,0-0.6,0h-0.2c0.1,0,0.2,0,0.3,0c0.2,0,0.4,0,0.6,0H46.2z"/>
	<path fill="#9B9A98" d="M41,46c-0.2,0-0.4,0-0.6,0c0.1,0,0.1,0,0.2,0H41z"/>
	<path fill="#9B9A98" d="M45.9,45.9c-0.2,0-0.4,0-0.6,0c0,0,0.1,0,0.1,0H45.9z"/>
	<path fill="#9B9A98" d="M46.2,45.9c-0.1,0-0.2,0-0.3,0c0,0,0.1,0,0.1,0H46.2z"/>
	<path fill="#9B9A98" d="M51.9,45.8c-0.1,0-0.2,0-0.3,0c0,0,0,0,0.1,0H51.9z"/>
	<path fill="#9B9A98" d="M53.5,45.7c-0.1,0-0.2,0-0.3,0c0,0,0.1,0,0.1,0H53.5z"/>
	<path fill="#9B9A98" d="M55.4,45.6c-0.1,0-0.3,0-0.4,0c0,0,0.1,0,0.1,0C55.2,45.6,55.3,45.6,55.4,45.6z"/>
	<path fill="#9B9A98" d="M60.8,45.2c-0.1,0-0.1,0-0.2,0c-0.1,0-0.1,0-0.2,0c0.1,0,0.2,0,0.2,0C60.7,45.3,60.8,45.3,60.8,45.2z"/>
	<path fill="#CECCCC" d="M15.6,45.7L15.6,45.7c-0.2,0-0.3,0-0.4,0c0.1,0,0.2,0,0.3,0C15.6,45.7,15.6,45.7,15.6,45.7z"/>
	<path fill="#CECCCC" d="M16.2,45.7c-0.2,0-0.4,0-0.6,0C15.8,45.7,16,45.7,16.2,45.7C16.2,45.7,16.2,45.7,16.2,45.7z"/>
	<path fill="#CECCCC" d="M20.9,45.9c-0.1,0-0.1,0-0.2,0L20.9,45.9L20.9,45.9z"/>
	<path fill="#CECCCC" d="M41,46c-0.2,0-0.4,0-0.6,0h-0.5c0.2,0,0.4,0,0.6,0H41z"/>
	<path fill="#CECCCC" d="M46.2,45.9c-0.1,0-0.2,0-0.3,0c-0.2,0-0.4,0-0.6,0h-0.2c0.1,0,0.2,0,0.3,0c0.2,0,0.4,0,0.6,0H46.2z"/>
	<path fill="#CECCCC" d="M51.4,45.8C51.4,45.8,51.4,45.8,51.4,45.8c-0.3,0-0.5,0-0.8,0C50.9,45.8,51.1,45.8,51.4,45.8L51.4,45.8z"/>
	<path fill="#CECCCC" d="M60.7,45.3C60.6,45.3,60.6,45.3,60.7,45.3c-0.1,0-0.2,0-0.2,0C60.5,45.3,60.6,45.3,60.7,45.3z"/>
	<path fill="#9B9A98" d="M52,45.7c0,0-0.1,0-0.1,0c-0.1,0-0.2,0-0.3,0c0,0,0,0,0.1,0C51.8,45.8,51.9,45.8,52,45.7z"/>
	<path fill="#9B9A98" d="M53.5,45.7C53.5,45.7,53.5,45.7,53.5,45.7c-0.2,0-0.3,0-0.4,0c0,0,0.1,0,0.1,0
		C53.3,45.7,53.4,45.7,53.5,45.7z"/>
	<path fill="#9B9A98" d="M55.4,45.6c-0.1,0-0.3,0-0.4,0c0,0,0.1,0,0.1,0C55.2,45.6,55.3,45.6,55.4,45.6z"/>
	<path fill="#9B9A98" d="M60.8,45.2c-0.1,0-0.1,0-0.2,0c-0.1,0-0.1,0-0.2,0c0.1,0,0.2,0,0.2,0C60.7,45.3,60.8,45.3,60.8,45.2z"/>
	<path fill="#CECCCC" d="M11,45.2C11,45.2,11,45.2,11,45.2c-0.1,0-0.1,0-0.1,0C10.9,45.2,11,45.2,11,45.2C11,45.2,11,45.2,11,45.2z"
		/>
	<path fill="#CECCCC" d="M15.6,45.7L15.6,45.7c-0.1,0-0.1,0-0.1,0C15.6,45.7,15.6,45.7,15.6,45.7z"/>
	<path fill="#CECCCC" d="M11,45.2C11,45.2,11,45.2,11,45.2c-0.1,0-0.1,0-0.1,0C10.9,45.2,11,45.2,11,45.2C11,45.2,11,45.2,11,45.2z"
		/>
	<path fill="#CECCCC" d="M15.6,45.7L15.6,45.7c-0.1,0-0.1,0-0.1,0C15.6,45.7,15.6,45.7,15.6,45.7z"/>
	<path fill="#62AFE1" d="M51.4,35.8L51.4,35.8L41,35.8c1-4.9-0.3-10.2-4.2-14c-0.1-0.1-0.2-0.2-0.3-0.3C44.5,21.8,50.8,28,51.4,35.8
		z"/>
	<path fill="#93D1F2" d="M41,35.8H20.8v-0.1c0.2-2.7,1.1-5.2,2.5-7.3c2.3-3.5,6-6,10.3-6.7c0.8-0.1,1.7-0.2,2.6-0.2
		c0.2,0,0.3,0,0.5,0c0.1,0.1,0.2,0.2,0.3,0.3C40.7,25.6,42.1,31,41,35.8z"/>
	<g>
		<path fill="#93D1F2" stroke="#000100" stroke-width="2" stroke-miterlimit="10" d="M52,41.4c0,0.3-0.1,0.6-0.2,0.9
			c0,0,0,0.1-0.1,0.1c-0.4,0.6-1,1-1.8,1c-0.2,0-0.3,0-0.5-0.1c-0.5-0.1-1-0.5-1.2-0.9c-0.2-0.3-0.3-0.7-0.3-1
			c0-0.5,0.2-1.1,0.6-1.4c0.2-0.3,0.6-0.5,0.9-0.5c0.2,0,0.3-0.1,0.5-0.1C51.1,39.4,52,40.3,52,41.4z"/>
	</g>
	<g>
		<path fill="#93D1F2" stroke="#000100" stroke-width="2" stroke-miterlimit="10" d="M38.2,41.4c0,0.3-0.1,0.6-0.2,0.9
			c0,0,0,0.1-0.1,0.1c-0.3,0.6-1,1-1.8,1c-0.2,0-0.3,0-0.5-0.1c-0.5-0.1-1-0.5-1.2-0.9c-0.2-0.3-0.3-0.7-0.3-1
			c0-0.5,0.2-1.1,0.6-1.4c0.2-0.3,0.6-0.5,0.9-0.5c0.2,0,0.3-0.1,0.5-0.1C37.3,39.4,38.2,40.3,38.2,41.4z"/>
	</g>
	<g>
		<path fill="#93D1F2" stroke="#000100" stroke-width="2" stroke-miterlimit="10" d="M24.4,41.4c0,0.3-0.1,0.6-0.2,0.9
			c0,0,0,0.1-0.1,0.1c-0.3,0.6-1,1-1.8,1c-0.2,0-0.4,0-0.5-0.1c-0.5-0.1-1-0.5-1.2-0.9c-0.2-0.3-0.3-0.7-0.3-1
			c0-0.5,0.2-1.1,0.6-1.4c0.2-0.3,0.6-0.5,0.9-0.5c0.2,0,0.3-0.1,0.5-0.1C23.5,39.4,24.4,40.3,24.4,41.4z"/>
	</g>
	<path fill="none" stroke="#000000" stroke-width="2" stroke-linecap="round" stroke-linejoin="round" stroke-miterlimit="10" d="
		M61.7,46.1c-0.3,0.3-4.7,0.5-10.7,0.7c-1.6,0-3.4,0.1-5.2,0.1c-1.2,0-2.4,0-3.6,0.1c-0.4,0-0.8,0-1.2,0c-0.1,0-0.2,0-0.3,0
		c-0.7,0-1.3,0-2,0c-1,0-2,0-3,0c-3,0-6.1,0-8.9,0c-1.1,0-2.3,0-3.3,0c-0.2,0-0.3,0-0.5,0c-0.5,0-1,0-1.5,0
		c-6-0.2-10.3-0.4-10.8-0.9c-0.7-0.7-0.8-1.4-0.6-2c0.2-0.7,0.6-1.1,0.6-1.1l10.2-7.2h30.6L61.7,43c0,0,0.3,0.6,0.4,1.3
		C62.2,44.9,62.1,45.6,61.7,46.1z"/>
	<path fill="none" stroke="#000100" stroke-width="2" stroke-linecap="round" stroke-linejoin="round" stroke-miterlimit="10" d="
		M42.2,47c-0.4,0-0.8,0-1.3,0c0,0,0,0,0,0C41.3,47,41.7,47,42.2,47z"/>
	<path fill="none" stroke="#000100" stroke-width="2" stroke-linecap="round" stroke-linejoin="round" stroke-miterlimit="10" d="
		M51,46.8c-1.6,3-7.4,5.3-14.4,5.4c-0.2,0-0.3,0-0.5,0c-0.9,0-1.7,0-2.6-0.1c-0.9-0.1-1.7-0.2-2.6-0.3c-4.6-0.8-8.2-2.5-9.6-4.8
		c0,0,0-0.1-0.1-0.1c0.5,0,1,0,1.5,0c0.2,0,0.3,0,0.5,0c1.1,0,2.2,0,3.3,0c2.8,0,5.9,0,8.9,0c1,0,2,0,3,0c0.7,0,1.3,0,2,0h0.3
		c0.4,0,0.8,0,1.3,0c1.2,0,2.5,0,3.6-0.1C47.6,46.9,49.3,46.8,51,46.8z"/>
	<path fill="none" stroke="#000100" stroke-width="2" stroke-linecap="round" stroke-linejoin="round" stroke-miterlimit="10" d="
		M40.9,47C40.9,47,40.9,47,40.9,47l-0.3,0C40.7,47,40.8,47,40.9,47z"/>
	<path fill="none" stroke="#000100" stroke-width="2" stroke-linecap="round" stroke-linejoin="round" stroke-miterlimit="10" d="
		M42.2,47c-0.4,0-0.8,0-1.3,0h-0.3c0.1,0,0.2,0,0.3,0C41.3,47,41.7,47,42.2,47z"/>
	<path fill="none" stroke="#000000" stroke-width="2" stroke-linecap="round" stroke-linejoin="round" stroke-miterlimit="10" d="
		M51.4,35.8L51.4,35.8l-30.6,0.1v-0.1c0.2-2.7,1.1-5.2,2.5-7.3c2.3-3.5,6-6,10.3-6.7c0.8-0.1,1.7-0.2,2.6-0.2c0.2,0,0.3,0,0.5,0
		C44.5,21.8,50.8,28,51.4,35.8z"/>
</g>
</svg>
