<svg id="emoji" viewBox="0 0 72 72" xmlns="http://www.w3.org/2000/svg">
  <g id="color"/>
  <g id="skin">
    <path fill="#debb90" d="M58.0473,37.3569,55.892,17.8921a3.25,3.25,0,0,0-1.4268-2.3486,3.1816,3.1816,0,0,0-2.665-.417,5.1412,5.1412,0,0,0-1.9934,1.0919,2.6586,2.6586,0,0,0-.3328,0,5.2528,5.2528,0,0,0-4.33,2.9328,4.18,4.18,0,0,0-3.48-.0832c-2.5957,1.1074-3.9454,4.6015-4.1895,5.291C35.7465,28.3608,31.3334,35.93,26.9984,35.93a13.4336,13.4336,0,0,0-7.3056,2.2177c-3.4746,1.9522-5.8047,6.3194-5.8047,10.8887a13.1256,13.1256,0,0,0,13.1143,13.11c.53-.002,13.0634-.0655,19.2861-1.79,4.32-1.1982,8.4785-10.5781,11.206-18.2363A10.6553,10.6553,0,0,0,58.0473,37.3569Z"/>
  </g>
  <g id="line">
    <path fill="none" stroke="#000" stroke-linecap="round" stroke-linejoin="round" stroke-width="2" d="M44.2809,43.9275l3.9746-8.4261a1.5937,1.5937,0,0,0,.15-.7672l-.629-11.4366a1.8032,1.8032,0,0,0-2.0552-1.6982c-1.7265.2671-3.9661,1.4784-3.9661,5.9663v4.98a1.5938,1.5938,0,0,1-.1559.6874l-3.7839,7.9114a1.5812,1.5812,0,0,1-1.0854.8666c-1.9.4183-6.9555,1.3069-10.3228-.181"/>
    <path fill="none" stroke="#000" stroke-linecap="round" stroke-linejoin="round" stroke-width="2" d="M45.43,21.6532c.4887-3.4242,2.6038-4.2829,4.1451-4.44a1.6589,1.6589,0,0,1,1.81,1.51L52.8879,35.45a2.616,2.616,0,0,1-.25,1.3725L49.201,43.9275"/>
    <path fill="none" stroke="#000" stroke-linecap="round" stroke-linejoin="round" stroke-width="2" d="M31.0544,35.3131c4.1148-3.195,7.1215-10.0539,7.3385-10.5576.0092-.0213.0163-.04.0241-.0623.1758-.4961,2.3675-6.4132,6.327-4.6275"/>
    <path fill="none" stroke="#000" stroke-linecap="round" stroke-linejoin="round" stroke-width="2" d="M50.16,17.2593a4.114,4.114,0,0,1,1.92-1.1726,2.2321,2.2321,0,0,1,2.8183,1.9156l2.155,19.4649a9.705,9.705,0,0,1-.5014,4.3182c-1.7368,4.8784-6.2583,16.4236-10.531,17.6079-6.1645,1.7086-19.0223,1.7539-19.0223,1.7539a12.11,12.11,0,0,1-12.11-12.11c0-4.18,2.118-8.26,5.3394-10.0422a12.41,12.41,0,0,1,6.771-2.0645"/>
  </g>
</svg>
