<svg id="emoji" xmlns="http://www.w3.org/2000/svg" viewBox="0 0 72 72">
  <g id="color">
    <g id="color-2" data-name="color">
      <path d="M36.6963,22.831a1,1,0,0,1-1.8007,0A11.5185,11.5185,0,1,0,15.2134,34.619L35.7959,61.0106l20.4624-26.23.66-.9737A11.5184,11.5184,0,1,0,36.6963,22.831Z" fill="#fff"/>
      <path d="M47.0674,16.3032A11.5259,11.5259,0,0,1,56.9185,33.807l-.66.9737-20.4624,26.23-1.5667-2.0088C56.6176,28.4063,47.0674,16.3032,47.0674,16.3032Z" fill="#d0cfce"/>
    </g>
  </g>
  <g id="line">
    <path id="Heart" d="M35.0074,63.2514,13.6187,35.8256A13.52,13.52,0,1,1,35.7959,20.3711a13.4015,13.4015,0,0,1,11.2715-6.0679A13.5246,13.5246,0,0,1,58.6011,34.8876l-.7261,1.0688-21.29,27.2955a1,1,0,0,1-1.5771-.0005Zm1.6889-40.42a1,1,0,0,1-1.8007,0A11.5185,11.5185,0,1,0,15.2134,34.619L35.7959,61.0106l20.4624-26.23.66-.9737A11.5184,11.5184,0,1,0,36.6963,22.831Z"/>
  </g>
</svg>
