<?xml version="1.0" encoding="utf-8"?>
<!-- Generator: Adobe Illustrator 21.1.0, SVG Export Plug-In . SVG Version: 6.00 Build 0)  -->
<svg version="1.1" id="emoji" xmlns="http://www.w3.org/2000/svg" xmlns:xlink="http://www.w3.org/1999/xlink" x="0px" y="0px"
	 viewBox="0 0 72 72" enable-background="new 0 0 72 72" xml:space="preserve">
<g>
	<g>
		<defs>
			<polygon id="SVGID_1_" points="36,12.9 27.4,14.5 22.1,17.6 17.2,22.6 13.8,30 13.8,42.3 19.3,51.7 27.4,57.2 36,58.9 43.2,57.7 
				50.9,53.4 56,47.2 59,38 58.2,30 54.4,22.1 50.2,17.8 43,13.9 			"/>
		</defs>
		<use xlink:href="#SVGID_1_"  overflow="visible" fill="#FCEA2B"/>
		<clipPath id="SVGID_2_">
			<use xlink:href="#SVGID_1_"  overflow="visible"/>
		</clipPath>
	</g>
	<g>
		<path fill="#FFFFFF" d="M47.6,44L36,46l-11.2-2L24,49c0,0,3,5,12,5s12-6,12-6L47.6,44z"/>
	</g>
	<circle fill="none" stroke="#FCEA2B" stroke-width="1.8" stroke-miterlimit="10" cx="36" cy="35.9" r="23"/>
	<path fill="none" stroke="#000000" stroke-width="2" stroke-linecap="round" stroke-linejoin="round" stroke-miterlimit="10" d="
		M48,44.6c0,5.3-4,9.5-11.9,9.5c-8,0-12-4.2-12-9.5"/>
	<path fill="none" stroke="#1F201F" stroke-width="2" stroke-linecap="round" stroke-linejoin="round" stroke-miterlimit="10" d="
		M48,45.6"/>
	<path fill="none" stroke="#1F201F" stroke-width="2" stroke-linecap="round" stroke-linejoin="round" stroke-miterlimit="10" d="
		M24.1,45.6"/>
	<path fill="none" stroke="#1F201F" stroke-width="2" stroke-linecap="round" stroke-linejoin="round" stroke-miterlimit="10" d="
		M20.3,27.1c0.7-1.4,1.9-2.5,3.4-3c1.4-0.7,3-0.8,4.5-0.4"/>
	<path fill="none" stroke="#1F201F" stroke-width="2" stroke-linecap="round" stroke-linejoin="round" stroke-miterlimit="10" d="
		M50.9,27.1c-1.6-2.8-4.8-4.2-7.9-3.4"/>
	<path fill="none" stroke="#000000" stroke-width="2" stroke-linecap="round" stroke-linejoin="round" stroke-miterlimit="10" d="
		M44.3,57.3C52.9,54,59,45.6,59,35.9c0-12.7-10.3-23-23-23c-12.7,0-23,10.3-23,23c0,9.8,6.1,18.2,14.7,21.5"/>
	<path fill="none" stroke="#000000" stroke-width="2" stroke-linecap="round" stroke-linejoin="round" stroke-miterlimit="10" d="
		M20.3,27.1c0.7-1.4,1.9-2.5,3.4-3c1.4-0.7,3-0.8,4.5-0.4"/>
	<path fill="none" stroke="#000000" stroke-width="2" stroke-linecap="round" stroke-linejoin="round" stroke-miterlimit="10" d="
		M50.9,27.1c-1.6-2.8-4.8-4.2-7.9-3.4"/>
	
		<path fill="#B1CC33" stroke="#000000" stroke-width="2" stroke-linecap="round" stroke-linejoin="round" stroke-miterlimit="10" d="
		M40.5,49.2c0,0,1.5,8.8-1.1,10.9l0,0c-3.8,3.4-7.1-0.1-7,0c-2.6-2.1-1.1-10.9-1.1-10.9"/>
	<path fill="none" stroke="#000000" stroke-width="2" stroke-linecap="round" stroke-linejoin="round" stroke-miterlimit="10" d="
		M24.1,44.6c0,0,12.1,3.1,23.7,0.1"/>
	<g>
		<path fill="none" stroke="#000000" stroke-width="2" stroke-linecap="round" stroke-linejoin="round" stroke-miterlimit="10" d="
			M29.2,31.4c-0.2-0.7-1-1.3-2-1.3h0c-1.1,0-2,0.7-2,1.6c0,0.9,0.9,1.6,2,1.6l0,0c1.1,0,2,0.7,2,1.6s-0.9,1.6-2,1.6l0,0
			c-1,0-1.8-0.5-2-1.3"/>
		
			<line fill="none" stroke="#000000" stroke-width="2" stroke-linecap="round" stroke-linejoin="round" stroke-miterlimit="10" x1="27.3" y1="30.2" x2="27.3" y2="28.6"/>
		
			<line fill="none" stroke="#000000" stroke-width="2" stroke-linecap="round" stroke-linejoin="round" stroke-miterlimit="10" x1="27.3" y1="38" x2="27.3" y2="36.5"/>
	</g>
	<g>
		<path fill="none" stroke="#000000" stroke-width="2" stroke-linecap="round" stroke-linejoin="round" stroke-miterlimit="10" d="
			M46.3,31.4c-0.2-0.7-1-1.3-2-1.3h0c-1.1,0-2,0.7-2,1.6c0,0.9,0.9,1.6,2,1.6l0,0c1.1,0,2,0.7,2,1.6s-0.9,1.6-2,1.6l0,0
			c-1,0-1.8-0.5-2-1.3"/>
		
			<line fill="none" stroke="#000000" stroke-width="2" stroke-linecap="round" stroke-linejoin="round" stroke-miterlimit="10" x1="44.3" y1="30.2" x2="44.3" y2="28.6"/>
		
			<line fill="none" stroke="#000000" stroke-width="2" stroke-linecap="round" stroke-linejoin="round" stroke-miterlimit="10" x1="44.3" y1="38" x2="44.3" y2="36.5"/>
	</g>
	<g>
		<path fill="none" stroke="#000000" stroke-width="2" stroke-linecap="round" stroke-linejoin="round" stroke-miterlimit="10" d="
			M37.9,53c-0.2-0.7-1-1.3-2-1.3h0c-1.1,0-2,0.7-2,1.6s0.9,1.6,2,1.6l0,0c1.1,0,2,0.7,2,1.6s-0.9,1.6-2,1.6l0,0c-1,0-1.8-0.5-2-1.3"
			/>
		
			<line fill="none" stroke="#000000" stroke-width="2" stroke-linecap="round" stroke-linejoin="round" stroke-miterlimit="10" x1="35.9" y1="51.7" x2="35.9" y2="50.2"/>
		
			<line fill="none" stroke="#000000" stroke-width="2" stroke-linecap="round" stroke-linejoin="round" stroke-miterlimit="10" x1="35.9" y1="59.6" x2="35.9" y2="58.1"/>
	</g>
</g>
</svg>
