<svg id="emoji" viewBox="0 0 72 72" version="1.1" xmlns="http://www.w3.org/2000/svg">
  <g id="color"/>
  <g id="hair"/>
  <g id="skin" transform="matrix(.9824 0 0 .9824 .2671 1.012)" stroke-width="1.018">
    <path fill="#fadcbc" stroke-width="1.036" d="m64.73 33.52-9.04 1.92c-1.07 0.25-2.07 0.56-3.35 2.15l-8.46 9.82c-0.79 0.95-1.27 1.51-2.54 1.91l-20.9 7.74c-4.44 1.13-8.44 0-7.44-8.43-4.34 1.65-8.47 0.31-8.17-3.46l-0.01-20.46c0.58-4.26 4.39-6.29 7.68-6.63l51.33-2.08c5.09 4.59 5.49 12.43 0.9 17.52z"/>
  </g>
  <g id="line" transform="matrix(.9826 0 0 .9823 .2663 1.018)" stroke-miterlimit="10" stroke-width="1.018">
    <path fill="none" stroke="#000" stroke-linecap="round" stroke-linejoin="round" stroke-miterlimit="10" stroke-width="2.036" d="m43.88 47.41 8.469-9.812c1.281-1.594 2.281-1.906 3.344-2.156l9.04-1.92c4.59-5.084 4.19-12.93-0.8941-17.52l-51.33 2.083c-3.292 0.3333-7.099 2.364-7.682 6.622l0.0156 20.46c-0.3021 3.771 3.823 5.115 8.167 3.458-1 8.438 3 9.562 7.438 8.438l20.91-7.739"/>
    <path fill="none" stroke="#000" stroke-linecap="round" stroke-linejoin="round" stroke-miterlimit="10" stroke-width="2.036" d="m15.31 29.17c0 4.062 4.892 4.344 10.94 4.344-0.5 4.031-2.594 8.625-10.03 13"/>
    <path fill="none" stroke="#000" stroke-linecap="round" stroke-linejoin="round" stroke-miterlimit="10" stroke-width="2.036" d="m43.88 47.41 8.469-9.812c1.281-1.594 2.281-1.906 3.344-2.156l9.04-1.92c4.59-5.084 4.19-12.93-0.8941-17.52l-51.33 2.083c-3.292 0.3333-7.099 2.364-7.682 6.622l0.0156 20.46c-0.3021 3.771 3.823 5.115 8.167 3.458-1 8.438 3 9.562 7.438 8.438l20.91-7.739c1.296-0.6802 1.853-1.293 2.531-1.917z"/>
    <path fill="none" stroke="#000" stroke-linecap="round" stroke-linejoin="round" stroke-miterlimit="10" stroke-width="2.036" d="m15.31 29.17c0 4.062 4.892 4.344 10.94 4.344-0.5 4.031-2.594 8.625-10.03 13"/>
  </g>
</svg>
