<svg id="emoji" xmlns="http://www.w3.org/2000/svg" viewBox="0 0 72 72">
  
  <g id="color">
    <rect x="9.75" y="1.4201" clip-path="url(#SVGID_2_)" fill="#FCEA2B" width="55.25" height="56" stroke="none"></rect>
    <circle fill="none" stroke="#FCEA2B" stroke-width="1.8" stroke-miterlimit="10" cx="37" cy="29.4201" r="23"></circle>
    <polygon fill="#FCEA2B" points="38.1077,47.7386 43.2043,46.0679 44.7846,46.9033 44.7846,47.7386 44.7846,49.726 42.5238,50.8338 
		40.1168,51.6228 37.0908,52.1573 36.293,51.8658 36.6332,48.6589 	" stroke="none"></polygon>
    <path fill="#FCEA2B" d="M17.5504,60.0381c0,0-0.7001-3.559-0.4126-4.9449c0.2875-1.386,3.2154-8.9803,3.7058-10.2387
		c0.4905-1.2584,1.9884-6.276,3.3321-6.6078c1.3437-0.3319,1.6494,0.1675,1.5908,0.9544
		c-0.0587,0.7869-0.8061,10.7526-0.8061,10.7526l12.9169-3.9249c0,0,6.0147-1.6332,6.2521-0.4403
		c0.0794,0.3986,0.1788,1.3206-0.6519,1.8762c-1.6552,1.1071-5.8398,2.7239-5.8398,2.7239s1.5801,0.8783,1.3342,1.8305
		c-0.246,0.9521-0.3972,2.2106-0.7208,2.2622c-0.3236,0.0516,1.3674,0.6568,1.393,1.865c0.0256,1.2082-0.5322,1.7665-1.3755,2.0227
		s1.4478,1.361,1.5205,1.8736c0.0728,0.5126,0.8148,1.5031-0.517,1.9078c-1.3318,0.4047-10.4322,3.1699-10.4322,3.1699
		s-4.5775,1.5426-7.2801-0.0955C18.8571,63.3865,17.5504,60.0381,17.5504,60.0381z" stroke="none"></path>
  </g>
  <g id="hair">
  </g>
  <g id="skin">
  </g>
  <g id="skin-shadow">
  </g>
  <g id="line">
    <polygon id="SVGID_1_" points="37,6.4201 28.3702,8.0998 23.0704,11.1203 18.1797,16.1994 14.75,23.55 14.75,35.8898 
				20.3496,45.2902 28.3702,50.7404 37,52.4201 44.1797,51.2697 51.8897,46.9397 57,40.7805 60,31.5705 59.25,23.59 
				55.4405,15.6799 51.2305,11.3596 43.9805,7.5002 			" fill="#000000" stroke="none"></polygon>
    <path fill="none" stroke="#000000" stroke-width="2" stroke-linecap="round" stroke-linejoin="round" stroke-miterlimit="10" d="
		M29.8884,37.7481c2.3711-0.667,11.8767,0.5356,14.0593,2.0654"></path>
    <path fill="none" stroke="#000000" stroke-width="2" stroke-linecap="round" stroke-linejoin="round" stroke-miterlimit="10" d="
		M23.3595,15.7775c1.2836-0.8899,2.8496-1.2724,4.3983-1.0733c1.5696,0.0357,3.0678,0.6574,4.204,1.7396"></path>
    <path fill="none" stroke="#000000" stroke-width="2" stroke-linecap="round" stroke-linejoin="round" stroke-miterlimit="10" d="
		M52.1306,19.7918c-2.7613-0.6555-5.3671-0.7511-8.242-0.2607"></path>
    <path fill="none" stroke="#000000" stroke-width="2" stroke-linecap="round" stroke-linejoin="round" stroke-miterlimit="10" d="
		M43.0164,51.6252C52.8008,48.9804,60,40.0407,60,29.4201c0-12.7031-10.2978-23-23-23c-12.7031,0-23,10.2969-23,23
		c0,4.8349,1.4919,9.3215,4.0404,13.0244"></path>
    <ellipse transform="matrix(0.1892 -0.9819 0.9819 0.1892 10.7961 67.2163)" cx="46.1011" cy="27.0705" rx="2.8745" ry="2.8745" fill="#000000" stroke="none"></ellipse>
    <ellipse transform="matrix(0.1892 -0.9819 0.9819 0.1892 0.2681 47.9375)" cx="29.1628" cy="23.8064" rx="2.8745" ry="2.8745" fill="#000000" stroke="none"></ellipse>
    <path fill="none" stroke="#000000" stroke-width="2" stroke-linecap="round" stroke-linejoin="round" stroke-miterlimit="10" d="
		M36.4853,62.797l-9.0851,2.7606c-4.4471,1.3513-8.5667-1.2969-9.9177-5.7429c-1.2991-4.2753,0.5611-7.7594,0.5611-7.7594"></path>
    <path fill="none" stroke="#000000" stroke-width="2" stroke-linecap="round" stroke-linejoin="round" stroke-miterlimit="10" d="
			M31.9385,47.8333l-6.9474,2.111c0,0,0,0,0.818-10.7562c0.0947-1.2453-2.1081-1.5776-2.8345,0.2775
			c-4.9309,12.5898-4.9309,12.5898-4.9309,12.5898"></path>
    <path fill="none" stroke="#000000" stroke-width="2" stroke-linecap="round" stroke-linejoin="round" stroke-miterlimit="10" d="
			M36.0824,50.1807l4.9606-1.5073c2.105-0.6396,3.6015-1.9058,3.3256-2.8138c-0.2759-0.908-2.2239-1.1275-4.3288-0.4879
			l-13.6938,4.161"></path>
    <path fill="none" stroke="#000000" stroke-width="2" stroke-linecap="round" stroke-linejoin="round" stroke-miterlimit="10" d="
			M34.7789,63.3155c0,0,1.2343-0.3751,2.743-0.8335c1.5086-0.4584,2.4739-1.719,2.1451-2.8013
			c-0.3289-1.0823-1.4686-1.7033-2.5327-1.38c-1.0641,0.3233-1.9347,0.5879-1.9347,0.5879"></path>
    <path fill="none" stroke="#000000" stroke-width="2" stroke-linecap="round" stroke-linejoin="round" stroke-miterlimit="10" d="
			M35.6494,54.5854c0,0,0.8607-0.2615,1.9126-0.5812s1.6452-1.461,1.3185-2.5365c-0.3268-1.0754-1.4819-1.6855-2.567-1.3558
			c-1.0851,0.3297-1.9729,0.5995-1.9729,0.5995"></path>
    <path fill="none" stroke="#000000" stroke-width="2" stroke-linecap="round" stroke-linejoin="round" stroke-miterlimit="10" d="
			M35.5143,58.793c0,0,1.0316-0.3135,2.2925-0.6966c1.2609-0.3831,2.0315-1.5555,1.7125-2.6053
			c-0.319-1.0498-1.4451-1.6458-2.5024-1.3246s-1.9225,0.5842-1.9225,0.5842"></path>
  </g>
</svg>