<?xml version="1.0" encoding="utf-8"?>
<!-- Generator: Adobe Illustrator 21.1.0, SVG Export Plug-In . SVG Version: 6.00 Build 0)  -->
<svg version="1.1" id="emoji" xmlns="http://www.w3.org/2000/svg" xmlns:xlink="http://www.w3.org/1999/xlink" x="0px" y="0px"
	 viewBox="0 0 72 72" enable-background="new 0 0 72 72" xml:space="preserve">
<g id="_xD83E__xDD10__1_">
	<g>
		<defs>
			<polygon id="SVGID_1_" points="35.4,13.5 27,15 21.9,18 17.1,22.9 13.7,30 13.7,41.9 19.1,51.1 26.9,56.4 35.2,58.1 42.2,57 
				49.7,52.8 54.6,46.8 57.6,37.9 56.9,30.2 53.2,22.5 49.2,18.3 42.1,14.5 			"/>
		</defs>
		<use xlink:href="#SVGID_1_"  overflow="visible" fill="#FCEA2B"/>
		<clipPath id="SVGID_2_">
			<use xlink:href="#SVGID_1_"  overflow="visible"/>
		</clipPath>
	</g>
	
		<ellipse transform="matrix(3.749220e-03 -1 1 3.749220e-03 -0.5877 70.9126)" fill="none" stroke="#FCEA2B" stroke-width="1.8" stroke-miterlimit="10" cx="35.3" cy="35.8" rx="22.3" ry="22.3"/>
	<ellipse transform="matrix(3.749220e-03 -1 1 3.749220e-03 11.1934 75.0064)" cx="43.2" cy="31.9" rx="2.5" ry="2.5"/>
	<ellipse transform="matrix(3.749220e-03 -1 1 3.749220e-03 -5.406 58.2193)" cx="26.5" cy="31.8" rx="2.5" ry="2.5"/>
	
		<line fill="none" stroke="#000000" stroke-width="2" stroke-linecap="round" stroke-linejoin="round" stroke-miterlimit="10" x1="47.7" y1="46.1" x2="24" y2="46"/>
	
		<line fill="none" stroke="#000000" stroke-width="2" stroke-linecap="round" stroke-linejoin="round" stroke-miterlimit="10" x1="24.6" y1="46.3" x2="24.6" y2="49.6"/>
	
		<line fill="none" stroke="#000000" stroke-width="2" stroke-linecap="round" stroke-linejoin="round" stroke-miterlimit="10" x1="26.5" y1="42.4" x2="26.5" y2="45.7"/>
	
		<line fill="none" stroke="#000000" stroke-width="2" stroke-linecap="round" stroke-linejoin="round" stroke-miterlimit="10" x1="28.4" y1="46.3" x2="28.4" y2="49.6"/>
	
		<line fill="none" stroke="#000000" stroke-width="2" stroke-linecap="round" stroke-linejoin="round" stroke-miterlimit="10" x1="30.3" y1="42.4" x2="30.3" y2="45.7"/>
	
		<line fill="none" stroke="#000000" stroke-width="2" stroke-linecap="round" stroke-linejoin="round" stroke-miterlimit="10" x1="32.3" y1="46.3" x2="32.3" y2="49.6"/>
	
		<line fill="none" stroke="#000000" stroke-width="2" stroke-linecap="round" stroke-linejoin="round" stroke-miterlimit="10" x1="34.2" y1="42.4" x2="34.2" y2="45.7"/>
	
		<line fill="none" stroke="#000000" stroke-width="2" stroke-linecap="round" stroke-linejoin="round" stroke-miterlimit="10" x1="36.1" y1="46.3" x2="36.1" y2="49.6"/>
	
		<line fill="none" stroke="#000000" stroke-width="2" stroke-linecap="round" stroke-linejoin="round" stroke-miterlimit="10" x1="38" y1="42.4" x2="38" y2="45.7"/>
	
		<line fill="none" stroke="#000000" stroke-width="2" stroke-linecap="round" stroke-linejoin="round" stroke-miterlimit="10" x1="39.9" y1="46.3" x2="39.9" y2="49.6"/>
	
		<line fill="none" stroke="#000000" stroke-width="2" stroke-linecap="round" stroke-linejoin="round" stroke-miterlimit="10" x1="41.8" y1="42.4" x2="41.8" y2="45.7"/>
	
		<line fill="none" stroke="#000000" stroke-width="2" stroke-linecap="round" stroke-linejoin="round" stroke-miterlimit="10" x1="43.8" y1="46.3" x2="43.8" y2="49.6"/>
	
		<line fill="none" stroke="#000000" stroke-width="2" stroke-linecap="round" stroke-linejoin="round" stroke-miterlimit="10" x1="45.7" y1="42.4" x2="45.7" y2="45.7"/>
	<path fill="#9B9B9A" stroke="#000000" stroke-width="2" stroke-miterlimit="10" d="M58.3,54.6l-1.9,1.9c-0.9,0.9-2.5,0.9-3.4,0
		l-4.9-4.9c-0.9-0.9-0.9-2.5,0-3.4l1.9-1.9c0.9-0.9,2.5-0.9,3.4,0l4.9,4.9C59.2,52.1,59.2,53.6,58.3,54.6z"/>
	<path fill="#CFCECD" d="M50.4,48.1l-0.5,0.5c-0.3,0.3-0.8,0.3-1,0L47.2,47c-0.3-0.3-0.3-0.8,0-1l0.5-0.5c0.3-0.3,0.8-0.3,1,0
		l1.6,1.6C50.6,47.4,50.6,47.9,50.4,48.1z"/>
	<path fill="none" stroke="#000000" stroke-width="2" stroke-linecap="round" stroke-linejoin="round" stroke-miterlimit="10" d="
		M55.7,44.7c1.2-2.8,1.9-5.8,1.9-9c0-12.3-10-22.3-22.3-22.3C23,13.4,13,23.4,13,35.7C13,48,23,58,35.3,58c4.4,0,8.4-1.2,11.8-3.4"
		/>
</g>
</svg>
