<?xml version="1.0" encoding="utf-8"?>
<!-- Generator: Adobe Illustrator 21.1.0, SVG Export Plug-In . SVG Version: 6.00 Build 0)  -->
<svg version="1.1" id="emoji" xmlns="http://www.w3.org/2000/svg" xmlns:xlink="http://www.w3.org/1999/xlink" x="0px" y="0px"
	 viewBox="0 0 72 72" enable-background="new 0 0 72 72" xml:space="preserve">
<g>
	<g>
		<defs>
			<polygon id="SVGID_1_" points="37,6.4 28.4,8.1 23.1,11.1 18.2,16.2 14.8,23.5 14.8,35.9 20.3,45.3 28.4,50.7 37,52.4 44.2,51.3 
				51.9,46.9 57,40.8 60,31.6 59.2,23.6 55.4,15.7 51.2,11.4 44,7.5 			"/>
		</defs>
		<use xlink:href="#SVGID_1_"  overflow="visible" fill="#FCEA2B"/>
		<clipPath id="SVGID_2_">
			<use xlink:href="#SVGID_1_"  overflow="visible"/>
		</clipPath>
		<rect x="9.8" y="1.4" clip-path="url(#SVGID_2_)" fill="#FCEA2B" width="55.2" height="56"/>
	</g>
	<circle fill="none" stroke="#FCEA2B" stroke-width="1.8" stroke-miterlimit="10" cx="37" cy="29.4" r="23"/>
	<path fill="none" stroke="#000000" stroke-width="2" stroke-linecap="round" stroke-linejoin="round" stroke-miterlimit="10" d="
		M29.9,37.7c2.4-0.7,11.9,0.5,14.1,2.1"/>
	<path fill="none" stroke="#000000" stroke-width="2" stroke-linecap="round" stroke-linejoin="round" stroke-miterlimit="10" d="
		M23.4,15.8c1.3-0.9,2.8-1.3,4.4-1.1c1.6,0,3.1,0.7,4.2,1.7"/>
	<path fill="none" stroke="#000000" stroke-width="2" stroke-linecap="round" stroke-linejoin="round" stroke-miterlimit="10" d="
		M52.1,19.8c-2.8-0.7-5.4-0.8-8.2-0.3"/>
	<path fill="none" stroke="#000000" stroke-width="2" stroke-linecap="round" stroke-linejoin="round" stroke-miterlimit="10" d="
		M43,51.6C52.8,49,60,40,60,29.4c0-12.7-10.3-23-23-23c-12.7,0-23,10.3-23,23c0,4.8,1.5,9.3,4,13"/>
	<ellipse transform="matrix(0.1892 -0.9819 0.9819 0.1892 10.7961 67.2163)" cx="46.1" cy="27.1" rx="2.9" ry="2.9"/>
	<ellipse transform="matrix(0.1892 -0.9819 0.9819 0.1892 0.2681 47.9375)" cx="29.2" cy="23.8" rx="2.9" ry="2.9"/>
	<polygon fill="#FCEA2B" points="38.1,47.7 43.2,46.1 44.8,46.9 44.8,47.7 44.8,49.7 42.5,50.8 40.1,51.6 37.1,52.2 36.3,51.9 
		36.6,48.7 	"/>
	<path fill="#FCEA2B" d="M17.6,60c0,0-0.7-3.6-0.4-4.9c0.3-1.4,3.2-9,3.7-10.2c0.5-1.3,2-6.3,3.3-6.6c1.3-0.3,1.6,0.2,1.6,1
		C25.7,40,25,50,25,50L37.9,46c0,0,6-1.6,6.3-0.4c0.1,0.4,0.2,1.3-0.7,1.9c-1.7,1.1-5.8,2.7-5.8,2.7s1.6,0.9,1.3,1.8
		c-0.2,1-0.4,2.2-0.7,2.3c-0.3,0.1,1.4,0.7,1.4,1.9c0,1.2-0.5,1.8-1.4,2s1.4,1.4,1.5,1.9c0.1,0.5,0.8,1.5-0.5,1.9
		c-1.3,0.4-10.4,3.2-10.4,3.2s-4.6,1.5-7.3-0.1C18.9,63.4,17.6,60,17.6,60z"/>
	<path fill="none" stroke="#000000" stroke-width="2" stroke-linecap="round" stroke-linejoin="round" stroke-miterlimit="10" d="
		M36.5,62.8l-9.1,2.8c-4.4,1.4-8.6-1.3-9.9-5.7c-1.3-4.3,0.6-7.8,0.6-7.8"/>
	<g>
		<path fill="none" stroke="#000000" stroke-width="2" stroke-linecap="round" stroke-linejoin="round" stroke-miterlimit="10" d="
			M31.9,47.8L25,49.9c0,0,0,0,0.8-10.8c0.1-1.2-2.1-1.6-2.8,0.3C18,52.1,18,52.1,18,52.1"/>
	</g>
	<g>
		<path fill="none" stroke="#000000" stroke-width="2" stroke-linecap="round" stroke-linejoin="round" stroke-miterlimit="10" d="
			M36.1,50.2l5-1.5c2.1-0.6,3.6-1.9,3.3-2.8c-0.3-0.9-2.2-1.1-4.3-0.5l-13.7,4.2"/>
	</g>
	<g>
		<path fill="none" stroke="#000000" stroke-width="2" stroke-linecap="round" stroke-linejoin="round" stroke-miterlimit="10" d="
			M34.8,63.3c0,0,1.2-0.4,2.7-0.8c1.5-0.5,2.5-1.7,2.1-2.8c-0.3-1.1-1.5-1.7-2.5-1.4c-1.1,0.3-1.9,0.6-1.9,0.6"/>
	</g>
	<g>
		<path fill="none" stroke="#000000" stroke-width="2" stroke-linecap="round" stroke-linejoin="round" stroke-miterlimit="10" d="
			M35.6,54.6c0,0,0.9-0.3,1.9-0.6s1.6-1.5,1.3-2.5c-0.3-1.1-1.5-1.7-2.6-1.4c-1.1,0.3-2,0.6-2,0.6"/>
	</g>
	<g>
		<path fill="none" stroke="#000000" stroke-width="2" stroke-linecap="round" stroke-linejoin="round" stroke-miterlimit="10" d="
			M35.5,58.8c0,0,1-0.3,2.3-0.7c1.3-0.4,2-1.6,1.7-2.6c-0.3-1-1.4-1.6-2.5-1.3s-1.9,0.6-1.9,0.6"/>
	</g>
</g>
</svg>
