<svg id="emoji" xmlns="http://www.w3.org/2000/svg" viewBox="0 0 72 72">
  <g id="color">
    <circle cx="36" cy="36" r="24" fill="#fcea2b"/>
    <path d="M30.498,53.374c-4.296-1.49-6.4614-4.8011-6.4614-8.6835h.0939s12.1375,3.0627,23.683.066l.1606-.066a8.881,8.881,0,0,1-6.4152,8.6842" fill="#fff"/>
    <path d="M40.5383,49.2888s1.518,8.819-1.0644,10.9394l.0255-.0218a4.8842,4.8842,0,0,1-7.0087,0c-2.5824-2.12-1.0644-10.9394-1.0644-10.9394" fill="#b1cc33"/>
  </g>
  <g id="hair"/>
  <g id="skin"/>
  <g id="skin-shadow"/>
  <g id="line">
    <path d="M30.498,53.374c-4.296-1.49-6.4614-4.8011-6.4614-8.6835h.0939s12.1375,3.0627,23.683.066l.1606-.066a8.881,8.881,0,0,1-6.4152,8.6842" fill="none" stroke="#000" stroke-linecap="round" stroke-linejoin="round" stroke-width="2"/>
    <path d="M20.2793,27.2a6.3062,6.3062,0,0,1,3.3907-3,6.3038,6.3038,0,0,1,4.53-.4209" fill="none" stroke="#000" stroke-linecap="round" stroke-linejoin="round" stroke-width="2"/>
    <path d="M50.89,27.2A7.19,7.19,0,0,0,42.9805,23.77" fill="none" stroke="#000" stroke-linecap="round" stroke-linejoin="round" stroke-width="2"/>
    <path d="M44.324,57.4474a23,23,0,1,0-16.5891.0229" fill="none" stroke="#000" stroke-linecap="round" stroke-linejoin="round" stroke-width="2"/>
    <path d="M20.2793,27.2a6.3062,6.3062,0,0,1,3.3907-3,6.3038,6.3038,0,0,1,4.53-.4209" fill="none" stroke="#000" stroke-linecap="round" stroke-linejoin="round" stroke-width="2"/>
    <path d="M50.89,27.2A7.19,7.19,0,0,0,42.9805,23.77" fill="none" stroke="#000" stroke-linecap="round" stroke-linejoin="round" stroke-width="2"/>
    <path d="M40.5383,49.2888s1.518,8.819-1.0644,10.9394l.0255-.0218a4.8842,4.8842,0,0,1-7.0087,0c-2.5824-2.12-1.0644-10.9394-1.0644-10.9394" fill="none" stroke="#000" stroke-linecap="round" stroke-linejoin="round" stroke-width="2"/>
    <path d="M29.23,31.5494a1.9352,1.9352,0,0,0-1.9506-1.2659h0a1.8234,1.8234,0,0,0-1.9911,1.5854,1.8233,1.8233,0,0,0,1.9911,1.5854l-.04.0059A1.8234,1.8234,0,0,1,29.23,35.0456a1.8233,1.8233,0,0,1-1.9911,1.5854h0a1.9353,1.9353,0,0,1-1.9507-1.2659" fill="none" stroke="#000" stroke-linecap="round" stroke-linejoin="round" stroke-width="2"/>
    <line x1="27.2589" y1="30.2835" x2="27.2589" y2="28.7721" fill="none" stroke="#000" stroke-linecap="round" stroke-linejoin="round" stroke-width="2"/>
    <line x1="27.2589" y1="38.1424" x2="27.2589" y2="36.631" fill="none" stroke="#000" stroke-linecap="round" stroke-linejoin="round" stroke-width="2"/>
    <path d="M46.2668,31.5494a1.9352,1.9352,0,0,0-1.9506-1.2659h0a1.8234,1.8234,0,0,0-1.9911,1.5854,1.8233,1.8233,0,0,0,1.9911,1.5854l-.04.0059a1.8234,1.8234,0,0,1,1.9911,1.5854,1.8233,1.8233,0,0,1-1.9911,1.5854h0a1.9353,1.9353,0,0,1-1.9507-1.2659" fill="none" stroke="#000" stroke-linecap="round" stroke-linejoin="round" stroke-width="2"/>
    <line x1="44.2959" y1="30.2835" x2="44.2959" y2="28.7721" fill="none" stroke="#000" stroke-linecap="round" stroke-linejoin="round" stroke-width="2"/>
    <line x1="44.2959" y1="38.1424" x2="44.2959" y2="36.631" fill="none" stroke="#000" stroke-linecap="round" stroke-linejoin="round" stroke-width="2"/>
    <path d="M37.8973,53.146A1.9352,1.9352,0,0,0,35.9467,51.88h0a1.6267,1.6267,0,1,0,0,3.1708l-.04.0059a1.6267,1.6267,0,1,1,0,3.1708h0a1.9353,1.9353,0,0,1-1.9507-1.2659" fill="none" stroke="#000" stroke-linecap="round" stroke-linejoin="round" stroke-width="2"/>
    <line x1="35.9264" y1="51.8801" x2="35.9264" y2="50.3686" fill="none" stroke="#000" stroke-linecap="round" stroke-linejoin="round" stroke-width="2"/>
    <line x1="35.9264" y1="59.739" x2="35.9264" y2="58.2276" fill="none" stroke="#000" stroke-linecap="round" stroke-linejoin="round" stroke-width="2"/>
  </g>
</svg>
