<?xml version="1.0" encoding="utf-8"?>
<!-- Generator: Adobe Illustrator 21.1.0, SVG Export Plug-In . SVG Version: 6.00 Build 0)  -->
<svg version="1.1" id="emoji" xmlns="http://www.w3.org/2000/svg" xmlns:xlink="http://www.w3.org/1999/xlink" x="0px" y="0px"
	 viewBox="0 0 72 72" enable-background="new 0 0 72 72" xml:space="preserve">
<g id="_xD83E__xDD13__1_">
	<g>
		<defs>
			<polygon id="SVGID_1_" points="33.9,13.1 25.3,14.7 20,17.8 15.1,22.8 11.6,30.2 11.6,42.5 17.2,51.9 25.3,57.4 33.9,59.1 
				41.1,57.9 48.8,53.6 53.9,47.4 56.9,38.2 56.1,30.2 52.3,22.3 48.1,18 40.9,14.1 			"/>
		</defs>
		<use xlink:href="#SVGID_1_"  overflow="visible" fill="#FCEA2B"/>
		<clipPath id="SVGID_2_">
			<use xlink:href="#SVGID_1_"  overflow="visible"/>
		</clipPath>
		<rect x="6.6" y="8.1" clip-path="url(#SVGID_2_)" fill="#FCEA2B" width="55.2" height="56"/>
	</g>
	<circle fill="none" stroke="#FDE034" stroke-miterlimit="10" cx="33.9" cy="36.1" r="23"/>
	
		<circle fill="none" stroke="#000000" stroke-width="2" stroke-linecap="round" stroke-linejoin="round" stroke-miterlimit="10" cx="33.9" cy="36.1" r="23"/>
	<g>
		<path fill="none" stroke="#000000" stroke-width="2" stroke-linecap="round" stroke-linejoin="round" stroke-miterlimit="10" d="
			M16.9,30.5c0,0-1,8.6,6.9,7.9c2.6-0.2,7.8-0.7,7.9-8.3c0-0.7,0-1.6-0.8-2.6c-1.1-1.4-3.6-2-9.9-1.4C20.9,26,17.4,25.9,16.9,30.5z"
			/>
		
			<polyline fill="none" stroke="#000000" stroke-width="2" stroke-linecap="round" stroke-linejoin="round" stroke-miterlimit="10" points="
			17,29.9 16.5,26.6 20.4,26 		"/>
		<path fill="none" stroke="#000000" stroke-width="2" stroke-linecap="round" stroke-linejoin="round" stroke-miterlimit="10" d="
			M50.7,30.5c0,0,1,8.6-6.9,7.9c-2.6-0.2-7.8-0.7-7.9-8.3c0-0.7,0-1.6,0.8-2.6c1.1-1.4,3.6-2,9.9-1.4C46.8,26,50.2,25.9,50.7,30.5z"
			/>
		<path fill="none" stroke="#000000" stroke-width="2" stroke-linecap="round" stroke-linejoin="round" stroke-miterlimit="10" d="
			M29.5,26.4c0,0,4.1,2.5,8.7,0"/>
		<path fill="none" stroke="#000000" stroke-width="2" stroke-linecap="round" stroke-linejoin="round" stroke-miterlimit="10" d="
			M36,30"/>
		<path fill="none" stroke="#000000" stroke-width="2" stroke-linecap="round" stroke-linejoin="round" stroke-miterlimit="10" d="
			M31.6,30"/>
		<path fill="none" stroke="#000000" stroke-width="2" stroke-linecap="round" stroke-linejoin="round" stroke-miterlimit="10" d="
			M31.5,31.3c0,0,2.2-3.8,4.5,0"/>
		
			<polyline fill="none" stroke="#000000" stroke-width="2" stroke-linecap="round" stroke-linejoin="round" stroke-miterlimit="10" points="
			50.7,29.9 51.1,26.6 47.3,26 		"/>
		<path fill="none" stroke="#000000" stroke-width="2" stroke-linecap="round" stroke-linejoin="round" stroke-miterlimit="10" d="
			M32,30c0,0,1.8-3.8,3.7,0"/>
		<path fill="#9B9B9A" stroke="#9B9B9A" stroke-width="2" stroke-miterlimit="10" d="M31.8,35.6"/>
	</g>
	<path fill="#FFFFFF" stroke="#000000" stroke-width="2" stroke-miterlimit="10" d="M29.8,47.4c-0.3,1.7-0.4,5.5,3.9,4.6v-4.4
		c0,0-0.3,0-0.7-0.1"/>
	<circle cx="42.5" cy="32" r="2.6"/>
	<circle cx="25.2" cy="32" r="2.6"/>
	<path fill="#FFFFFF" stroke="#000000" stroke-width="2" stroke-miterlimit="10" d="M37.8,47.4c0.3,1.7,0.4,5.5-3.9,4.6v-4.4
		c0,0,0.3,0,0.7-0.1"/>
	<path fill="none" stroke="#000000" stroke-width="2" stroke-linecap="round" stroke-linejoin="round" stroke-miterlimit="10" d="
		M43.7,44.9c-6.6,3.5-14,3.7-19.6,0"/>
</g>
</svg>
