<?xml version="1.0" encoding="utf-8"?>
<!-- Generator: Adobe Illustrator 21.1.0, SVG Export Plug-In . SVG Version: 6.00 Build 0)  -->
<svg version="1.1" id="emoji" xmlns="http://www.w3.org/2000/svg" xmlns:xlink="http://www.w3.org/1999/xlink" x="0px" y="0px"
	 viewBox="0 0 72 72" enable-background="new 0 0 72 72" xml:space="preserve">
<g>
	<g>
		<defs>
			<polygon id="SVGID_1_" points="34.4,12.7 25.8,14.4 20.5,17.4 15.6,22.4 12.2,29.8 12.2,42.1 17.8,51.5 25.8,57 34.4,58.7 
				41.6,57.5 49.3,53.2 54.4,47 57.4,37.8 56.7,29.8 52.9,21.9 48.6,17.6 41.4,13.8 			"/>
		</defs>
		<use xlink:href="#SVGID_1_"  overflow="visible" fill="#FCEA2B"/>
		<clipPath id="SVGID_2_">
			<use xlink:href="#SVGID_1_"  overflow="visible"/>
		</clipPath>
		<rect x="7.2" y="7.7" clip-path="url(#SVGID_2_)" fill="#FCEA2B" width="55.2" height="56"/>
	</g>
	<circle fill="none" stroke="#FCEA2B" stroke-width="1.8" stroke-miterlimit="10" cx="34.4" cy="35.7" r="23"/>
	<path fill="none" stroke="#000000" stroke-width="2" stroke-linecap="round" stroke-linejoin="round" stroke-miterlimit="10" d="
		M42.8,25.7c0.5,1.5,1.6,2.7,2.9,3.5c1.3,0.9,2.9,1.3,4.4,1.1"/>
	<circle cx="25.4" cy="34.7" r="2.6"/>
	<circle cx="42.6" cy="34.7" r="2.6"/>
	<path fill="none" stroke="#000000" stroke-width="2" stroke-linecap="round" stroke-linejoin="round" stroke-miterlimit="10" d="
		M31.5,46.6c0,0,5.7-1.1,11.7,2.1"/>
	<polygon fill="#FFFFFF" points="11.8,40.7 11.9,29.9 15,24.7 17.2,20.4 22.8,16.8 27.5,14.5 32.8,12.9 35.8,12.7 42.4,13.7 
		49.1,17 50.1,19.6 43.1,22.8 35.4,26.6 28.2,30.8 22.2,35 15.5,41 13,43.5 	"/>
	<path fill="none" stroke="#000000" stroke-width="2" stroke-linecap="round" stroke-linejoin="round" stroke-miterlimit="10" d="
		M51.3,20.1c-20.9,6.1-38.4,23.8-38.4,23.8"/>
	<polygon fill="#FFFFFF" points="14.6,24.7 15.6,22.4 17.2,20.4 18.8,19.9 21.1,19.8 24.7,19.6 27.5,19.9 30.7,20 35.5,19.6 
		38.5,19.9 41.6,20.1 46,20.8 50.2,20.9 52.1,21.9 53.2,22.8 54.7,24.9 55.8,27.4 55.8,28.1 52.7,27.9 47.9,27.3 41.5,26.5 
		37.1,26.5 30,25.9 23.6,26.3 16.4,26.3 14.6,25.7 	"/>
	<path fill="none" stroke="#000000" stroke-width="2" stroke-linecap="round" stroke-linejoin="round" stroke-miterlimit="10" d="
		M56.1,28.5c-15.9-3.5-41.9-1.9-41.9-1.9"/>
	<path fill="none" stroke="#000000" stroke-width="2" stroke-linecap="round" stroke-linejoin="round" stroke-miterlimit="10" d="
		M17.8,20c0,0,21.6-1.6,35,2"/>
	<path fill="none" stroke="#000000" stroke-width="2" stroke-linecap="round" stroke-linejoin="round" stroke-miterlimit="10" d="
		M56.3,28.6c-3-9.2-11.7-15.9-21.9-15.9c-12.7,0-23,10.3-23,23c0,2.9,0.5,5.6,1.5,8.2"/>
	<path fill="none" stroke="#000000" stroke-width="2" stroke-linecap="round" stroke-linejoin="round" stroke-miterlimit="10" d="
		M14.5,47.2c4,6.9,11.4,11.5,19.9,11.5c12.7,0,23-10.3,23-23c0-1.2-0.1-2.5-0.3-3.7"/>
</g>
</svg>
