<?xml version="1.0" encoding="utf-8"?>
<!-- Generator: Adobe Illustrator 21.1.0, SVG Export Plug-In . SVG Version: 6.00 Build 0)  -->
<svg version="1.1" id="color" xmlns="http://www.w3.org/2000/svg" xmlns:xlink="http://www.w3.org/1999/xlink" x="0px" y="0px"
	 viewBox="0 0 72 72" enable-background="new 0 0 72 72" xml:space="preserve">
<g id="_xD83E__xDD1B_">
	
		<path fill="#FCEA2F" stroke="#1D1D1B" stroke-width="2" stroke-linecap="round" stroke-linejoin="round" stroke-miterlimit="10" d="
		M43.9,47.4c-0.8,1-1.3,1.5-2.5,1.9"/>
	
		<path fill="#FCEA2F" stroke="#1D1D1B" stroke-width="2" stroke-linecap="round" stroke-linejoin="round" stroke-miterlimit="10" d="
		M43.9,47.4l8.5-9.8c1.3-1.6,2.3-1.9,3.3-2.2l9-1.9c4.6-5.1,4.2-12.9-0.9-17.5l-51.3,2.1c-3.3,0.3-7.1,2.4-7.7,6.6l0,20.5
		c-0.3,3.8,3.8,5.1,8.2,3.5c-1,8.4,3,9.6,7.4,8.4l20.9-7.7"/>
	
		<path fill="#FCEA2F" stroke="#1D1D1B" stroke-width="2" stroke-linecap="round" stroke-linejoin="round" stroke-miterlimit="10" d="
		M15.3,29.2c0,4.1,4.9,4.3,10.9,4.3c-0.5,4-2.6,8.6-10,13"/>
	<path fill="none" stroke="#1D1D1B" stroke-width="2" stroke-linecap="round" stroke-linejoin="round" stroke-miterlimit="10" d="
		M43.9,47.4c-0.8,1-1.3,1.5-2.5,1.9"/>
	<path fill="none" stroke="#1D1D1B" stroke-width="2" stroke-linecap="round" stroke-linejoin="round" stroke-miterlimit="10" d="
		M43.9,47.4l8.5-9.8c1.3-1.6,2.3-1.9,3.3-2.2l9-1.9c4.6-5.1,4.2-12.9-0.9-17.5l-51.3,2.1c-3.3,0.3-7.1,2.4-7.7,6.6l0,20.5
		c-0.3,3.8,3.8,5.1,8.2,3.5c-1,8.4,3,9.6,7.4,8.4l20.9-7.7"/>
	<path fill="none" stroke="#1D1D1B" stroke-width="2" stroke-linecap="round" stroke-linejoin="round" stroke-miterlimit="10" d="
		M15.3,29.2c0,4.1,4.9,4.3,10.9,4.3c-0.5,4-2.6,8.6-10,13"/>
</g>
</svg>
