<svg version="1.1" id="emoji" xmlns="http://www.w3.org/2000/svg" x="0" y="0" viewBox="0 0 72 72" enable-background="new 0 0 72 72" xml:space="preserve">
  <g id="color">
    <circle fill="none" stroke="#FCEA2B" stroke-width="1.8" stroke-miterlimit="10" cx="34.4137" cy="35.6707" r="23"/>
    <circle fill="#FCEA2B" cx="34.4137" cy="35.6707" r="23"/>
    <polygon fill="#FFFFFF" points="11.8409,40.6943 11.9226,29.881 14.9632,24.7085 17.1733,20.4476 22.8094,16.7845 27.503,14.4582 32.7846,12.874 35.7891,12.6707 42.3973,13.6697 49.0979,17.0188 50.1356,19.5564 43.1455,22.7738 35.3576,26.5541 28.1637,30.8432 22.2143,34.9939 15.5411,40.9516 12.9999,43.488"/>
    <polygon fill="#FFFFFF" points="14.579,24.6572 15.5934,22.45 17.1733,20.4476 18.7907,19.8871 21.0766,19.7745 24.6797,19.6102 27.4858,19.9125 30.7128,19.9593 35.4832,19.6102 38.5272,19.8949 41.5525,20.1243 46.042,20.7718 50.2153,20.9414 52.1328,21.9335 53.2085,22.7654 54.729,24.8792 55.8063,27.4177 55.8063,28.0604 52.7333,27.9491 47.9236,27.2552 41.4696,26.5069 37.1162,26.4565 29.9645,25.9456 23.604,26.2561 16.3549,26.2561 14.579,25.6549"/>
  </g>
  <g id="hair"/>
  <g id="skin"/>
  <g id="skin-shadow"/>
  <g id="line">
    <path fill="none" stroke="#000000" stroke-width="2" stroke-linecap="round" stroke-linejoin="round" stroke-miterlimit="10" d="M43.33,26.7798c0.56,0.97,1.38,1.78,2.38,2.34c1.29,0.89,2.87,1.27,4.43,1.07"/>
    <path d="M27.99,34.6498c0,1.44-1.16,2.61-2.6,2.61c-1.21,0-2.24-0.83-2.53-1.96c1.21-0.93,2.52-1.89,3.91-2.86 C27.5,32.8998,27.99,33.7198,27.99,34.6498z"/>
    <circle cx="42.6376" cy="34.6512" r="2.6038"/>
    <path fill="none" stroke="#000000" stroke-width="2" stroke-linecap="round" stroke-linejoin="round" stroke-miterlimit="10" d="M31.5218,46.5585c0,0,5.7328-1.0685,11.6633,2.0944"/>
    <path fill="none" stroke="#000000" stroke-width="2" stroke-linecap="round" stroke-linejoin="round" stroke-miterlimit="10" d="M12.91,43.8498c0,0,3.79-3.84,9.95-8.55c1.21-0.93,2.52-1.89,3.91-2.86c2.89-2.04,6.13-4.12,9.62-6.05"/>
    <path fill="none" stroke="#000000" stroke-width="2" stroke-linecap="round" stroke-linejoin="round" stroke-miterlimit="10" d="M56.0835,28.5333c-15.9396-3.5376-41.9481-1.9371-41.9481-1.9371"/>
    <path fill="none" stroke="#000000" stroke-width="2" stroke-linecap="round" stroke-linejoin="round" stroke-miterlimit="10" d="M17.7793,19.9503c0,0,21.5837-1.5544,34.954,1.9832"/>
    <path fill="none" stroke="#000000" stroke-width="2" stroke-linecap="round" stroke-linejoin="round" stroke-miterlimit="10" d="M56.2994,28.5784c-2.9896-9.2322-11.6583-15.9077-21.8858-15.9077c-12.7031,0-23,10.2969-23,23 c0,2.8816,0.5299,5.6395,1.4977,8.1814"/>
    <path fill="none" stroke="#000000" stroke-width="2" stroke-linecap="round" stroke-linejoin="round" stroke-miterlimit="10" d="M14.4984,47.1842c3.9786,6.8672,11.4072,11.4865,19.9152,11.4865c12.7022,0,23-10.2978,23-23c0-1.243-0.0986-2.4629-0.2884-3.6525"/>
  </g>
</svg>
