<?xml version="1.0" encoding="utf-8"?>
<!-- Generator: Adobe Illustrator 21.1.0, SVG Export Plug-In . SVG Version: 6.00 Build 0)  -->
<svg version="1.1" id="emoji" xmlns="http://www.w3.org/2000/svg" xmlns:xlink="http://www.w3.org/1999/xlink" x="0px" y="0px"
	 viewBox="0 0 72 72" enable-background="new 0 0 72 72" xml:space="preserve">
<g id="_xD83E__xDD14__1_">
	<g>
		<defs>
			<polygon id="SVGID_1_" points="37,5.4 28,7.2 22.5,10.3 17.4,15.6 13.8,23.3 13.8,36.2 19.6,46 28,51.7 37,53.4 44.5,52.2 
				52.5,47.7 57.9,41.3 61,31.7 60.2,23.3 56.2,15.1 51.8,10.6 44.3,6.5 			"/>
		</defs>
		<use xlink:href="#SVGID_1_"  overflow="visible" fill="#FCEA2B"/>
		<clipPath id="SVGID_2_">
			<use xlink:href="#SVGID_1_"  overflow="visible"/>
		</clipPath>
		<rect x="8.6" y="0.2" clip-path="url(#SVGID_2_)" fill="#FCEA2B" width="57.7" height="58.4"/>
	</g>
	<circle fill="none" stroke="#FCEA2B" stroke-width="2" stroke-miterlimit="10" cx="37" cy="29.4" r="24"/>
	<path fill="none" stroke="#000000" stroke-width="2" stroke-linecap="round" stroke-linejoin="round" stroke-miterlimit="10" d="
		M29.6,38.1c2.5-0.7,12.4,0.6,14.7,2.2"/>
	<path fill="none" stroke="#000000" stroke-width="2" stroke-linecap="round" stroke-linejoin="round" stroke-miterlimit="10" d="
		M22.8,15.2c1.3-0.9,3-1.3,4.6-1.1c1.6,0,3.2,0.7,4.4,1.8"/>
	<path fill="none" stroke="#000000" stroke-width="2" stroke-linecap="round" stroke-linejoin="round" stroke-miterlimit="10" d="
		M52.8,19.4c-2.9-0.7-5.6-0.8-8.6-0.3"/>
	<path fill="none" stroke="#000000" stroke-width="2" stroke-linecap="round" stroke-linejoin="round" stroke-miterlimit="10" d="
		M43.3,52.6C53.5,49.8,61,40.5,61,29.4c0-13.3-10.7-24-24-24c-13.3,0-24,10.7-24,24c0,5,1.6,9.7,4.2,13.6"/>
	<ellipse transform="matrix(0.1892 -0.9819 0.9819 0.1892 11.2172 67.5221)" cx="46.5" cy="27" rx="3" ry="3"/>
	<ellipse transform="matrix(0.1892 -0.9819 0.9819 0.1892 0.2315 47.405)" cx="28.8" cy="23.6" rx="3" ry="3"/>
	<polygon fill="#FCEA2B" points="38.1,47.7 43.2,46.1 44.8,46.9 44.8,47.7 44.8,49.7 42.5,50.8 40.1,51.6 37.1,52.2 36.3,51.9 
		36.6,48.7 	"/>
	<path fill="none" stroke="#1D1E1C" stroke-width="2" stroke-linecap="round" stroke-linejoin="round" stroke-miterlimit="10" d="
		M31.1,72.8"/>
	<path fill="#FCEA2B" d="M17.6,60c0,0-0.7-3.6-0.4-4.9c0.3-1.4,3.2-9,3.7-10.2c0.5-1.3,2-6.3,3.3-6.6c1.3-0.3,1.6,0.2,1.6,1
		C25.7,40,25,50,25,50L37.9,46c0,0,6-1.6,6.3-0.4c0.1,0.4,0.2,1.3-0.7,1.9c-1.7,1.1-5.8,2.7-5.8,2.7s1.6,0.9,1.3,1.8
		c-0.2,1-0.4,2.2-0.7,2.3c-0.3,0.1,1.4,0.7,1.4,1.9c0,1.2-0.5,1.8-1.4,2s1.4,1.4,1.5,1.9c0.1,0.5,0.8,1.5-0.5,1.9
		c-1.3,0.4-10.4,3.2-10.4,3.2s-4.6,1.5-7.3-0.1C18.9,63.4,17.6,60,17.6,60z"/>
	<path fill="none" stroke="#000000" stroke-width="2" stroke-linecap="round" stroke-linejoin="round" stroke-miterlimit="10" d="
		M36.5,62.8l-9.1,2.8c-4.4,1.4-8.6-1.3-9.9-5.7c-1.3-4.3,0.6-7.8,0.6-7.8"/>
	<g>
		<path fill="none" stroke="#000000" stroke-width="2" stroke-linecap="round" stroke-linejoin="round" stroke-miterlimit="10" d="
			M31.9,47.8L25,49.9c0,0,0,0,0.8-10.8c0.1-1.2-2.1-1.6-2.8,0.3C18,52.1,18,52.1,18,52.1"/>
	</g>
	<g>
		<path fill="none" stroke="#000000" stroke-width="2" stroke-linecap="round" stroke-linejoin="round" stroke-miterlimit="10" d="
			M36.1,50.2l5-1.5c2.1-0.6,3.6-1.9,3.3-2.8c-0.3-0.9-2.2-1.1-4.3-0.5l-13.7,4.2"/>
	</g>
	<g>
		<path fill="none" stroke="#000000" stroke-width="2" stroke-linecap="round" stroke-linejoin="round" stroke-miterlimit="10" d="
			M34.8,63.3c0,0,1.2-0.4,2.7-0.8c1.5-0.5,2.5-1.7,2.1-2.8c-0.3-1.1-1.5-1.7-2.5-1.4c-1.1,0.3-1.9,0.6-1.9,0.6"/>
	</g>
	<g>
		<path fill="none" stroke="#000000" stroke-width="2" stroke-linecap="round" stroke-linejoin="round" stroke-miterlimit="10" d="
			M35.6,54.6c0,0,0.9-0.3,1.9-0.6s1.6-1.5,1.3-2.5c-0.3-1.1-1.5-1.7-2.6-1.4c-1.1,0.3-2,0.6-2,0.6"/>
	</g>
	<g>
		<path fill="none" stroke="#000000" stroke-width="2" stroke-linecap="round" stroke-linejoin="round" stroke-miterlimit="10" d="
			M35.5,58.8c0,0,1-0.3,2.3-0.7c1.3-0.4,2-1.6,1.7-2.6c-0.3-1-1.4-1.6-2.5-1.3s-1.9,0.6-1.9,0.6"/>
	</g>
</g>
</svg>
