<?xml version="1.0" encoding="utf-8"?>
<!-- Generator: Adobe Illustrator 21.1.0, SVG Export Plug-In . SVG Version: 6.00 Build 0)  -->
<svg version="1.1" id="emoji" xmlns="http://www.w3.org/2000/svg" xmlns:xlink="http://www.w3.org/1999/xlink" x="0px" y="0px"
	 viewBox="0 0 72 72" enable-background="new 0 0 72 72" xml:space="preserve">
<g id="_xD83E__xDD18__1_">
	<path fill="#FCEA2F" d="M33.4,29.6v-0.9C33.5,29,33.5,29.3,33.4,29.6z"/>
	<path fill="#FCEA2F" d="M53.9,50.9L53.9,50.9c0,10-8.2,16.9-17.9,16.9c-8.7,0.1-16.1-6.2-17.2-14.9c-0.4-2.9-1.1-7.9-1.1-14.9
		l-2-18.4c-1.6-7.8,5.2-8.1,6.8-2l1.1,9l0.2,0.3c0,0,1.3,7,2.2,7.2c0.4,0.1,0.1-3.2,0.4-0.6v-3.9c-0.2-1.9,1.1-3.7,3-4
		c1.9-0.3,3.7,1.1,4,3v0.9c0-0.3,0-0.6,0-0.9c-0.2-1.9,1.2-3.7,3.1-4c1.4-0.2,3.1,2.8,4.1,3.9c1.2-1.2,1.7-5.2,1.7-5.2l0.5-14.9
		c0-5.9,9.3-5.5,9.3-0.1l1.1,31.3l0,0.5L53.9,50.9z"/>
	<path fill="#FCEA2F" d="M33.4,29.6v-0.9C33.5,29,33.5,29.3,33.4,29.6z"/>
	<path fill="none" stroke="#000000" stroke-width="2" stroke-linecap="round" stroke-miterlimit="10" d="M18.8,53
		c1.1,8.6,8.5,15,17.2,14.9c9.7,0,17.9-6.8,17.9-16.9l0,0l-0.7-11.1c-0.2-2.2-2-4-4.2-4H39c-2.1-0.1-3.8,1.4-4,3.5
		c0.2,2.1,1.9,3.8,4,3.9l1,0.1c2.2,0.2,4,1.3,4,2.4v2v0.4c-2.2,0.5-4.1,1.5-5.8,3"/>
	<path fill="none" stroke="#1D1E1C" stroke-width="2" stroke-linecap="round" stroke-miterlimit="10" d="M18.8,53
		c-0.4-2.9-1.1-7.9-1.1-14.9"/>
	
		<line fill="none" stroke="#1D1E1C" stroke-width="2" stroke-linecap="round" stroke-miterlimit="10" x1="17.7" y1="38.1" x2="15.8" y2="19.6"/>
	
		<line fill="none" stroke="#1D1E1C" stroke-width="2" stroke-linecap="round" stroke-miterlimit="10" x1="22" y1="17.9" x2="22.9" y2="26.6"/>
	
		<line fill="none" stroke="#1D1E1C" stroke-width="2" stroke-linecap="round" stroke-miterlimit="10" x1="43.5" y1="8.2" x2="43" y2="23.2"/>
	
		<line fill="none" stroke="#1D1E1C" stroke-width="2" stroke-linecap="round" stroke-miterlimit="10" x1="51.9" y1="8.5" x2="52.4" y2="33.3"/>
	<path fill="none" stroke="#1D1E1C" stroke-width="2" stroke-linecap="round" stroke-miterlimit="10" d="M15.8,19.6
		C15,11.8,21.3,12,22,17.9"/>
	<path fill="none" stroke="#1D1E1C" stroke-width="2" stroke-linecap="round" stroke-miterlimit="10" d="M43.5,8.2
		c0-5.9,8.4-5.2,8.4,0.2"/>
	<path fill="none" stroke="#010101" stroke-width="2" stroke-linecap="round" stroke-linejoin="round" d="M31.3,40.6
		c-3.3,1.2-5-1.9-4.9-4v-7c-0.3-1.9,1.1-3.7,3-4c1.9-0.3,3.7,1.1,4,3c0,0.3,0,0.6,0,0.9"/>
	<path fill="none" stroke="#010101" stroke-width="2" stroke-linecap="round" stroke-linejoin="round" d="M33.5,34v-5.3
		c-0.3-1.9,1.1-3.7,3-4c1.9-0.3,3.7,1.1,4,3c0,0.3,0,0.6,0,0.9l0,3.5"/>
</g>
</svg>
