<?xml version="1.0" encoding="utf-8"?>
<!-- Generator: Adobe Illustrator 21.1.0, SVG Export Plug-In . SVG Version: 6.00 Build 0)  -->
<svg version="1.1" id="emoji" xmlns="http://www.w3.org/2000/svg" xmlns:xlink="http://www.w3.org/1999/xlink" x="0px" y="0px"
	 viewBox="0 0 72 72" enable-background="new 0 0 72 72" xml:space="preserve">
<g id="_xD83E__xDD1A__1_">
	<path fill="#FBEA2C" d="M41.8,13.7c-0.3-1.9,1-3.7,3-4c1.9-0.3,3.7,1,4,3c0,0.3,0,0.6,0,0.9l0.3,19l0,4.3l-0.2-13
		c-0.3-1.9,1-3.7,3-4s3.7,1,4,3c0,0.3,0,0.6,0,0.9l0.2,13L55.9,47c-0.4,8.3-7.8,13.6-16.1,13.2c-4.8-0.3-9.3-2.3-12.7-5.7
		C24.2,51.4,17.1,43,17.1,43c-1.5-2.2-0.3-5.5,0.8-4.7l9.9,4.7l0-5.4l0,5.4l0-5.4l0-21.9c-0.3-1.9,1-3.7,3-4s3.7,1,4,3
		c0,0.3,0,0.6,0,0.9l0.1,7L35,33.2L34.7,11c-0.3-1.9,1-3.7,3-4c1.9-0.3,3.7,1,4,3c0,0.3,0,0.6,0,0.9l0.2,24"/>
	<path fill="none" stroke="#010101" stroke-width="2" stroke-linecap="round" stroke-linejoin="round" d="M41.8,13.7
		c-0.3-1.9,1-3.7,3-4c1.9-0.3,3.7,1,4,3c0,0.3,0,0.6,0,0.9l0.3,19l0,1L48.8,24c-0.3-1.9,1-3.7,3-4s3.7,1,4,3c0,0.3,0,0.6,0,0.9
		l0.2,13L55.9,47c-0.4,8.3-7.8,13.6-16.1,13.2c-4.8-0.3-9.3-2.3-12.7-5.7C24.2,51.4,17.1,43,17.1,43c-1.5-2.2-0.3-5.5,0.8-4.7
		l9.9,4.7l0-5.4l0,5.4l0-5.4l0-21.9c-0.3-1.9,1-3.7,3-4s3.7,1,4,3c0,0.3,0,0.6,0,0.9l0.1,7L35,33.2L34.7,11c-0.3-1.9,1-3.7,3-4
		c1.9-0.3,3.7,1,4,3c0,0.3,0,0.6,0,0.9l0.2,20.5"/>
</g>
</svg>
