<?xml version="1.0" encoding="utf-8"?>
<!-- Generator: Adobe Illustrator 21.1.0, SVG Export Plug-In . SVG Version: 6.00 Build 0)  -->
<svg version="1.1" id="emoji" xmlns="http://www.w3.org/2000/svg" xmlns:xlink="http://www.w3.org/1999/xlink" x="0px" y="0px"
	 viewBox="0 0 72 72" enable-background="new 0 0 72 72" xml:space="preserve">
<g id="_xD83E__xDD1F__1_">
	<path fill="#FCEA2F" d="M40.3,24.5C39.7-2,49.3,1.3,48.7,8l-2.1,27.9c-0.1,2.1,0.6,4.4,2.4,4.4c4.2-0.9,3.6-1.5,5.7-2
		c5-1.4,7.5-5.9,8.8-2.4c0.3,2.2-2.2,6.7-3.5,7.5c-4.5,3.8-2.6,2.8-4.9,4.8c-2,4.4-4.9,4.4-10,10.2c-8.1,4.4-17,5.5-24.7-0.1
		c-2.9-3.1-7-7.7-7-11.7L8.8,15.3C8.3,9.9,15.1,9,16,13.5l2.2,12.8"/>
	<line fill="#FCEA2F" x1="41.5" y1="7.8" x2="40.3" y2="23.5"/>
	<path fill="#FCEA2F" d="M29.6,37.5c1.3,1,7.6,0.8,7.4-2.5l-0.5-9.4c-1.9-2.4-5.8-2.2-7.7,0.8c0.7,1.7,0.9,8.3,0.9,11.1
		c-1.5,1.1-5.6,1.7-7.2-0.2l-0.8-10c1.6-3,5.4-3.2,7.1-0.8"/>
	<g>
		<path fill="none" stroke="#1D1D1B" stroke-width="2" stroke-linecap="round" stroke-linejoin="round" stroke-miterlimit="10" d="
			M13.3,45.3C12.7,37.9,8.8,16,8.8,16c-0.5-5.4,6.3-6.2,7.2-1.8l2,11.2"/>
		<path fill="none" stroke="#1D1D1B" stroke-width="2" stroke-linecap="round" stroke-linejoin="round" stroke-miterlimit="10" d="
			M41.5,7.8c0-5.6,7.8-5.8,7.3,1l-2.1,27.9"/>
		
			<line fill="none" stroke="#1D1D1B" stroke-width="2" stroke-linecap="round" stroke-linejoin="round" stroke-miterlimit="10" x1="41.5" y1="7.8" x2="40.3" y2="23.5"/>
		<path fill="none" stroke="#010101" stroke-width="2" stroke-linecap="round" stroke-linejoin="round" d="M46.6,36.6
			c-0.2,1.7,0.4,4.1,2.8,3.2"/>
		<path fill="none" stroke="#010101" stroke-width="2" stroke-linecap="round" stroke-linejoin="round" d="M13.3,45.1
			c0.5,10.6,9.9,17.3,20.4,16.8c6.1-0.3,11.9-2.9,16.2-7.2C53.6,50.8,62.7,40,62.7,40c1.9-2.7,0.4-7-1-5.9L49.1,40"/>
		<path fill="none" stroke="#010101" stroke-width="2" stroke-linecap="round" stroke-linejoin="round" d="M22.7,34.5
			c0,0-0.2-6.7-0.2-6.7c0.2-2.2,1.2-3.6,3.3-3.7c1.9-0.1,4.2,0.7,4.2,3c0,0,0.1,6.3,0.2,7.1"/>
		<path fill="none" stroke="#010101" stroke-width="2" stroke-linecap="round" stroke-linejoin="round" d="M37.9,33.7
			c0,0.3,0.1,0.7,0,1c-0.2,2.2-2.2,3.7-4.3,3.5c-2.2-0.2-3.4-2.2-3.5-4.3"/>
		<path fill="none" stroke="#010101" stroke-width="2" stroke-linecap="round" stroke-linejoin="round" d="M30.3,34.3
			c-0.2,3.3-2.2,4.8-4.3,4.6c-2.2-0.2-3.1-2.2-3.2-4.3"/>
		<path fill="none" stroke="#010101" stroke-width="2" stroke-linecap="round" stroke-linejoin="round" d="M33.7,30.4"/>
		<path fill="none" stroke="#010101" stroke-width="2" stroke-linecap="round" stroke-linejoin="round" d="M30,27.6
			c0.2-2.2,1.8-3.4,3.8-3.5c1.9,0,3.9,1,4,3.3c0,0,0.1,5.7,0.2,6.5"/>
	</g>
</g>
</svg>
