<svg id="emoji" xmlns="http://www.w3.org/2000/svg" viewBox="0 0 72 72">
  <g id="color">
    <path fill="#FCEA2B" d="M35.3767,15.2209c-11.6254,0-21.0833,9.4579-21.0833,21.0833c0,11.6254,9.4579,21.0833,21.0833,21.0833 c11.6254,0,21.0833-9.458,21.0833-21.0833C56.4601,24.6788,47.0021,15.2209,35.3767,15.2209z" stroke="none"/>
  </g>
  <g id="hair"/>
  <g id="skin"/>
  <g id="skin-shadow"/>
  <g id="line">
    <path fill="none" stroke="#000000" stroke-width="0.5" stroke-linecap="round" stroke-linejoin="round" stroke-miterlimit="10" d="M28.8826,61.5229"/>
    <path d="M35.3767,59.3042c-12.682,0-23-10.317-23-23c0-12.6811,10.318-23,23-23s23,10.3189,23,23 C58.3767,48.9872,48.0587,59.3042,35.3767,59.3042z M35.3767,15.2209c-11.6254,0-21.0833,9.4579-21.0833,21.0833 c0,11.6254,9.4579,21.0833,21.0833,21.0833c11.6254,0,21.0833-9.458,21.0833-21.0833 C56.4601,24.6788,47.0021,15.2209,35.3767,15.2209z" fill="#000000" stroke="none"/>
    <path d="M31.2439,28.0386c-0.2453,0-0.4904-0.0936-0.6777-0.2808c-0.0401-0.0375-1.1736-1.0968-3.4552-1.0968 c-2.2817,0-3.416,1.0593-3.4627,1.1043c-0.379,0.3613-0.9845,0.3576-1.3514-0.0187c-0.3669-0.3743-0.3677-0.9715,0.0037-1.344 c0.0675-0.0674,1.694-1.6583,4.8104-1.6583c3.1164,0,4.742,1.5909,4.8104,1.6583c0.3743,0.3744,0.3743,0.9809,0,1.3552 C31.7343,27.945,31.489,28.0386,31.2439,28.0386z" fill="#000000" stroke="none"/>
    <path d="M43.6423,29.4162c-3.1165,0-4.743-1.591-4.8104-1.6584c-0.3743-0.3743-0.3743-0.9808,0-1.3552 c0.3744-0.3743,0.9809-0.3743,1.3552,0c0.0393,0.0375,1.1736,1.0969,3.4553,1.0969c2.2816,0,3.415-1.0594,3.4627-1.1044 c0.3781-0.3612,0.9835-0.3575,1.3513,0.0188c0.3669,0.3761,0.3678,0.9733-0.0037,1.3439 C48.3844,27.8252,46.7588,29.4162,43.6423,29.4162z" fill="#000000" stroke="none"/>
    <circle cx="26.9114" cy="34.8068" r="2.5556" fill="#000000" stroke="none"/>
    <circle cx="43.4427" cy="34.8068" r="2.5556" fill="#000000" stroke="none"/>
    <path d="M41.6387,47.3662c-0.1227,0-0.2472-0.0224-0.3669-0.0729c-1.6883-0.7001-9.9736-0.7001-11.6646,0 c-0.4886,0.2021-1.0501-0.03-1.2523-0.5185c-0.2021-0.4886,0.03-1.05,0.5194-1.2523c2.1488-0.889,10.9853-0.889,13.1313,0 c0.4894,0.204,0.7215,0.7637,0.5185,1.2523C42.3714,47.1435,42.0148,47.3662,41.6387,47.3662z" fill="#000000" stroke="none"/>
  </g>
</svg>
