<svg id="emoji" viewBox="0 0 72 72" xmlns="http://www.w3.org/2000/svg">
  <g id="color" transform="translate(0 .1)">
    <circle cx="36" cy="35.8" r="23" fill="none" stroke="#fcea2b" stroke-miterlimit="10" stroke-width="1.8"/>
    <path fill="#fcea2b" d="m59 35.8c0-12.7-10.3-23-23-23s-23 10.3-23 23c0 9 5.2 16.8 12.8 20.6 0 1.6 0.6 3 1.8 4.4 1.4 1.6 4 2.4 5.8 2.8 1.8 0.5 2.6-0.3 6.4-3 1.2-0.9 3.8-0.9 5.7-2.1 0.3-0.2 2 0.4 2.1 0 0.1-0.2 0.3-1.7 0-2.1-0.1-0.1-0.3-0.2-0.6-0.3 7.2-4 12-11.6 12-20.3z"/>
  </g>
  <g id="hair"/>
  <g id="skin"/>
  <g id="skin-shadow"/>
  <g id="line">
    <path fill="none" stroke="#000000" stroke-linecap="round" stroke-linejoin="round" stroke-miterlimit="10" stroke-width="2" d="m51.5 53c4.6-4.2 7.5-10.3 7.5-17 0-12.7-10.3-23-23-23s-23 10.3-23 23c0 7.3 3.4 13.8 8.8 18.1"/>
    <path fill="none" stroke="#000000" stroke-linecap="round" stroke-linejoin="round" stroke-miterlimit="10" stroke-width="2" d="m34 41.7c-1.4-0.2-2.8-0.7-4-1.5"/>
    <path fill="none" stroke="#000000" stroke-linecap="round" stroke-linejoin="round" stroke-miterlimit="10" stroke-width="2" d="m42.1 40.2c-1.4 0.7-2.8 1.2-4.2 1.5"/>
    <path fill="none" stroke="#000000" stroke-linecap="round" stroke-linejoin="round" stroke-miterlimit="10" stroke-width="2" d="m21.4 23.8c0.7-1.3 1.8-2.4 3.3-2.9 1.3-0.7 2.9-0.8 4.3-0.4"/>
    <path fill="none" stroke="#000000" stroke-linecap="round" stroke-linejoin="round" stroke-miterlimit="10" stroke-width="2" d="m50.7 23.8c-1.5-2.7-4.6-4-7.6-3.3"/>
    <path fill="none" stroke="#000000" stroke-linecap="round" stroke-linejoin="round" stroke-miterlimit="10" stroke-width="2" d="m39.6 61.2c-3.8 3.3-10.4 3.4-12.8-1 0 0-1.8-2.5-0.2-7.2 1.1-3.1 5.4-6.9 13.7-4.6 1.4 0.7 4.1 1.5 3.3 5 0 0-0.2 2.3-2.4 1.6"/>
    <path fill="none" stroke="#000000" stroke-linecap="round" stroke-linejoin="round" stroke-miterlimit="10" stroke-width="2" d="m38.5 48.5"/>
    <path fill="none" stroke="#000000" stroke-linecap="round" stroke-linejoin="round" stroke-miterlimit="10" stroke-width="2" d="m46.3 59.2c1.1 0.1 2-0.7 2-1.8 0.1-1.1-0.7-2-1.8-2"/>
    <line x1="41.2" x2="46.5" y1="55.3" y2="55.3" fill="none" stroke="#000000" stroke-linecap="round" stroke-linejoin="round" stroke-miterlimit="10" stroke-width="2"/>
    <path fill="none" stroke="#000000" stroke-linecap="round" stroke-linejoin="round" stroke-miterlimit="10" stroke-width="2" d="m44.7 59.3c-1.6 0-3.4 0.4-5.2 2"/>
    <line x1="46.3" x2="44.6" y1="59.2" y2="59.3" fill="none" stroke="#000000" stroke-linecap="round" stroke-linejoin="round" stroke-miterlimit="10" stroke-width="2"/>
    <path fill="none" stroke="#000000" stroke-linecap="round" stroke-linejoin="round" stroke-miterlimit="10" stroke-width="2" d="m38 56.3c0.6 0.6 1.6 0.7 2.3 0.2 0.8-0.5 1-1.4 0.8-2.3-0.3-1.1-0.6-2.7-2.7-3.4"/>
    <path fill="none" stroke="#000000" stroke-linecap="round" stroke-linejoin="round" stroke-miterlimit="10" stroke-width="2" d="m34.7 51.5c2.1 0 2.9 4.5 2.9 4.5 0.5 1.8-0.2 3.5-1.4 3.8s-2.6-0.9-3.1-2.7c0 0-0.6-2.1-1.3-2.8"/>
    <path fill="none" stroke="#000000" stroke-linecap="round" stroke-linejoin="round" stroke-miterlimit="10" stroke-width="2" d="m40.9 53.7"/>
    <path fill="none" stroke="#000000" stroke-linecap="round" stroke-linejoin="round" stroke-miterlimit="10" stroke-width="2" d="m38.7 51.8"/>
    <path fill="none" stroke="#000000" stroke-linecap="round" stroke-linejoin="round" stroke-miterlimit="10" stroke-width="2" d="m37.8 38.8c0-1.1-0.9-1.9-1.9-1.9s-1.9 0.8-1.9 1.9"/>
    <line x1="34" x2="34" y1="47.5" y2="38.8" fill="none" stroke="#000000" stroke-linecap="round" stroke-linejoin="round" stroke-miterlimit="10" stroke-width="2"/>
    <line x1="37.8" x2="37.8" y1="38.8" y2="47.7" fill="none" stroke="#000000" stroke-linecap="round" stroke-linejoin="round" stroke-miterlimit="10" stroke-width="2"/>
    <path d="m30 28c0 1.7-1.3 3-3 3s-3-1.3-3-3 1.3-3 3-3 3 1.3 3 3"/>
    <path d="m48 28c0 1.7-1.3 3-3 3s-3-1.3-3-3 1.3-3 3-3 3 1.3 3 3"/>
  </g>
</svg>
