<?xml version="1.0" encoding="utf-8"?>
<!-- Generator: Adobe Illustrator 21.1.0, SVG Export Plug-In . SVG Version: 6.00 Build 0)  -->
<svg version="1.1" id="emoji" xmlns="http://www.w3.org/2000/svg" xmlns:xlink="http://www.w3.org/1999/xlink" x="0px" y="0px"
	 viewBox="0 0 72 72" enable-background="new 0 0 72 72" xml:space="preserve">
<g id="_xD83E__xDD24__1_">
	<path fill="none" stroke="#1F201F" stroke-width="0.5" stroke-linecap="round" stroke-linejoin="round" stroke-miterlimit="10" d="
		M27.8,65.7"/>
	<g>
		<defs>
			<polygon id="SVGID_1_" points="35.6,8.8 25.5,10.7 19.3,14.3 13.6,20.2 9.5,28.9 9.5,43.4 16.1,54.4 25.5,60.8 35.6,62.8 
				44.1,61.4 53.1,56.3 59.1,49.1 62.6,38.3 61.8,28.9 57.3,19.6 52.3,14.6 43.8,10 			"/>
		</defs>
		<use xlink:href="#SVGID_1_"  overflow="visible" fill="#FCEA2B"/>
		<clipPath id="SVGID_2_">
			<use xlink:href="#SVGID_1_"  overflow="visible"/>
		</clipPath>
		<rect x="3.7" y="2.9" clip-path="url(#SVGID_2_)" fill="#FCEA2B" width="64.9" height="65.7"/>
	</g>
	<circle fill="none" stroke="#FCEA2B" stroke-width="2" stroke-miterlimit="10" cx="35.6" cy="35.8" r="27"/>
	<path fill="none" stroke="#1F201F" stroke-width="2" stroke-linecap="round" stroke-linejoin="round" stroke-miterlimit="10" d="
		M49.7,47.1"/>
	<path fill="none" stroke="#000000" stroke-width="2" stroke-linecap="round" stroke-linejoin="round" stroke-miterlimit="10" d="
		M18.4,25.4c0.8-1.6,2.3-2.9,4-3.5c1.6-0.8,3.5-1,5.3-0.5"/>
	<path fill="none" stroke="#000000" stroke-width="2" stroke-linecap="round" stroke-linejoin="round" stroke-miterlimit="10" d="
		M53.1,25.4c-1.9-3.3-5.6-4.9-9.3-4"/>
	<path fill="none" stroke="#1D1E1C" stroke-width="2" stroke-linecap="round" stroke-linejoin="round" stroke-miterlimit="10" d="
		M52.4,57c6.3-4.9,10.3-12.6,10.3-21.2c0-14.9-12.1-27-27-27c-14.9,0-27,12.1-27,27c0,14.9,12.1,27,27,27c1.1,0,2.2-0.1,3.3-0.2"/>
	<path fill="none" stroke="#000000" stroke-width="2" stroke-linecap="round" stroke-linejoin="round" stroke-miterlimit="10" d="
		M22.9,34.4c0.7-0.8,1.7-1.7,2.9-2.1c1.2-0.4,2.5-0.4,3.8-0.3"/>
	<path fill="none" stroke="#000000" stroke-width="2" stroke-linecap="round" stroke-linejoin="round" stroke-miterlimit="10" d="
		M48.6,34.4c-0.7-0.8-1.7-1.7-2.9-2.1c-1.2-0.4-2.5-0.4-3.8-0.3"/>
	<g>
		<defs>
			<polygon id="SVGID_3_" points="40.5,53.5 46.7,51.6 49,49.5 49.7,47.2 42.2,47.3 22,47.3 24.7,51.6 31.1,53.5 			"/>
		</defs>
		<use xlink:href="#SVGID_3_"  overflow="visible" fill="#EA5A47"/>
		<clipPath id="SVGID_4_">
			<use xlink:href="#SVGID_3_"  overflow="visible"/>
		</clipPath>
		<rect x="12.3" y="42.6" clip-path="url(#SVGID_4_)" fill="#EA5A47" width="47.2" height="15.5"/>
	</g>
	<path fill="none" stroke="#000000" stroke-width="2" stroke-linecap="round" stroke-linejoin="round" stroke-miterlimit="10" d="
		M49.7,46c0,4.2-4.7,7.5-14,7.5c-9.4,0-14.1-3.3-14.1-7.5"/>
	<path fill="none" stroke="#000000" stroke-width="2" stroke-linecap="round" stroke-linejoin="round" stroke-miterlimit="10" d="
		M21.7,46c0,0,14.2,3.6,27.8,0.1"/>
	
		<path fill="#92D3F5" stroke="#000000" stroke-width="2" stroke-linecap="round" stroke-linejoin="round" stroke-miterlimit="10" d="
		M44.1,58.9c0,0.9-0.7,1.6-1.5,1.6h0c-0.8,0-1.5-0.7-1.5-1.6v-2.2v-3.2l4-1.5l3.4-2v8.3v5.8c0,1.1-1,1.9-2.1,1.9h0
		c-1.2,0-2.1-0.9-2.1-1.9v-5.8"/>
</g>
</svg>
