<?xml version="1.0" encoding="utf-8"?>
<!-- Generator: Adobe Illustrator 21.1.0, SVG Export Plug-In . SVG Version: 6.00 Build 0)  -->
<svg version="1.1" id="emoji" xmlns="http://www.w3.org/2000/svg" xmlns:xlink="http://www.w3.org/1999/xlink" x="0px" y="0px"
	 viewBox="0 0 72 72" enable-background="new 0 0 72 72" xml:space="preserve">
<g id="_xD83E__xDD20_">
	<path fill="none" stroke="#1F201F" stroke-width="2" stroke-linecap="round" stroke-linejoin="round" stroke-miterlimit="10" d="
		M30.8,27.7"/>
	<g>
		<defs>
			<polygon id="SVGID_1_" points="36.8,15.7 27.3,17.5 21.4,20.8 16.1,26.4 12.3,34.5 12.3,48.1 18.4,58.4 27.3,64.4 36.8,66.2 
				44.6,65 53.1,60.2 58.7,53.4 62,43.3 61.2,34.5 57,25.8 52.4,21.1 44.4,16.8 			"/>
		</defs>
		<use xlink:href="#SVGID_1_"  overflow="visible" fill="#FCEA2B"/>
		<clipPath id="SVGID_2_">
			<use xlink:href="#SVGID_1_"  overflow="visible"/>
		</clipPath>
		<rect x="6.8" y="10.2" clip-path="url(#SVGID_2_)" fill="#FCEA2B" width="60.7" height="61.6"/>
	</g>
	<circle fill="none" stroke="#FCEA2B" stroke-width="2" stroke-miterlimit="10" cx="36.8" cy="40.9" r="25.3"/>
	<path fill="none" stroke="#1F201F" stroke-width="2" stroke-linecap="round" stroke-linejoin="round" stroke-miterlimit="10" d="
		M52.2,49.8"/>
	<g>
		<defs>
			<polygon id="SVGID_3_" points="41.9,60.2 48.9,56.8 51.6,53.2 52.4,49.1 43.8,49.2 20.8,49.2 23.8,56.8 31.1,60.2 			"/>
		</defs>
		<use xlink:href="#SVGID_3_"  overflow="visible" fill="#EA5A47"/>
		<clipPath id="SVGID_4_">
			<use xlink:href="#SVGID_3_"  overflow="visible"/>
		</clipPath>
		<rect x="9.6" y="41" clip-path="url(#SVGID_4_)" fill="#EA5A47" width="53.9" height="27.3"/>
	</g>
	<path fill="none" stroke="#FFFFFF" stroke-width="4" stroke-linejoin="round" stroke-miterlimit="10" d="M21.3,50.1
		c0,0,15.9,4,31.1,0.1"/>
	<path fill="none" stroke="#000000" stroke-width="2" stroke-linecap="round" stroke-linejoin="round" stroke-miterlimit="10" d="
		M20.8,47.4c0,0,16.3,4,31.8,0.1"/>
	<path fill="none" stroke="#000000" stroke-width="2" stroke-linecap="round" stroke-linejoin="round" stroke-miterlimit="10" d="
		M52.8,47.4c0,7.2-5.3,12.9-16,12.9c-10.7,0-16.1-5.7-16.1-12.9"/>
	<path fill="none" stroke="#000000" stroke-width="2" stroke-linejoin="round" stroke-miterlimit="10" d="M21.3,52.1
		c0,0,15.9,4,31.1,0.1"/>
	<ellipse cx="29" cy="35.2" rx="3.3" ry="5.9"/>
	<ellipse cx="45.3" cy="35.2" rx="3.3" ry="5.9"/>
	<path fill="none" stroke="#000000" stroke-linecap="round" stroke-linejoin="round" stroke-miterlimit="10" d="M62.1,15.7
		c0,0-4.4-4.2-11,1.8c0,0-4.2,4-14.8,4.1"/>
	<path fill="none" stroke="#000000" stroke-linecap="round" stroke-linejoin="round" stroke-miterlimit="10" d="M10.3,15.7
		c0,0,4.4-4.2,11,1.8c0,0,4.2,4,14.8,4.1"/>
	<path fill="none" stroke="#000000" stroke-linecap="round" stroke-linejoin="round" stroke-miterlimit="10" d="M51.1,17.5
		c0,0-4.2,4-14.8,4.1"/>
	<polygon fill="#6A462F" stroke="#000000" stroke-width="0.25" stroke-miterlimit="10" points="12.3,32.3 9.3,29.3 7.1,24.8 
		6.8,20.8 8.9,17 11.9,14.7 16,14.2 20.1,16.4 23.3,19.2 19.5,22.6 16.3,25.2 14.4,28.5 	"/>
	<polygon fill="#6A462F" stroke="#000000" stroke-width="0.25" stroke-miterlimit="10" points="60.5,32.1 63.4,29.1 65.7,24.6 
		66,20.6 63.9,16.8 60.8,14.5 56.8,14 52.7,16.2 49.4,18.9 53.3,22.4 56.5,25 58.3,28.3 	"/>
	<path fill="none" stroke="#000000" stroke-width="2" stroke-linecap="round" stroke-linejoin="round" stroke-miterlimit="10" d="
		M11.9,36.2c-0.3,1.5-0.5,3.2-0.5,4.8c0,14,11.3,25.3,25.3,25.3c14,0,25.3-11.3,25.3-25.3c0-1.6-0.2-3.2-0.5-4.8"/>
	<path fill="none" stroke="#000000" stroke-width="2" stroke-linecap="round" stroke-linejoin="round" stroke-miterlimit="10" d="
		M60.5,31.6c-3.7-9.4-13-16-23.7-16c-5.1,0-9.8,1.5-13.8,4.1c-4.5,2.9-8.4,6.9-10.3,12"/>
	<polygon fill="#6A462F" stroke="#000000" stroke-width="0.25" stroke-miterlimit="10" points="24.3,18.6 24.9,16.5 24.4,13.9 
		23.9,11.4 24.4,9.9 26.4,8.5 29.7,6.7 32.6,5.7 34.5,5.7 35.7,6 36.4,6.5 39.1,5.9 41.4,6.3 45.3,7.8 48.7,10.6 48.2,17.9 
		48.6,18.8 47.9,19.4 41.2,21.3 32.1,21.3 26.8,20.2 	"/>
	<path fill="none" stroke="#000000" stroke-width="2" stroke-linecap="round" stroke-linejoin="round" stroke-miterlimit="10" d="
		M23.3,18.6c0,0,1.8-0.5,1.6-2.9c-0.1-0.7-0.4-1.8-0.8-2.8c-0.7-1.8-0.2-3.3,4.5-5.7c0,0,2.3-1.1,3.1-1.4c1.2-0.4,3.6-0.7,4.9,0.9
		 M49.4,18.6c0,0-1.8-0.5-1.5-2.9c0.1-0.7,0.4-1.8,0.7-2.8c0.7-1.8,0.2-3.3-4.3-5.7c0,0-2.2-1.1-3-1.4c-1.1-0.4-3.4-0.7-4.7,0.9"/>
	<path fill="#6A462F" d="M18,22.3c0,0,7.9,3.2,19,3.3c5.7,0,12.1-1.5,18.9-3.3l-3.2-2.9l-1.7-0.9L46.8,20l-2.4,0.6L42,21.2l-4.4,0.5
		l-5.6-0.2l-3.6-0.6L25.9,20l-3.6-1.1l-2,1.1L18,22.3z"/>
	<path fill="none" stroke="#000000" stroke-width="2" stroke-linecap="round" stroke-linejoin="round" stroke-miterlimit="10" d="
		M12.4,32.3c0,0-11.2-9.2-2.1-16.6c0,0,4.4-4.2,11,1.8c0,0,4.2,4,14.8,4.1 M60.8,32.1c0,0,10.4-9,1.3-16.4c0,0-4.4-4.2-11,1.8
		c0,0-4.2,4-14.8,4.1"/>
	<path fill="none" stroke="#1D1D1B" stroke-width="2" stroke-linecap="round" stroke-linejoin="round" stroke-miterlimit="10" d="
		M18.8,22.9c0,0,17.4,6.1,35.9,0"/>
</g>
</svg>
