<?xml version="1.0" encoding="utf-8"?>
<!-- Generator: Adobe Illustrator 21.1.0, SVG Export Plug-In . SVG Version: 6.00 Build 0)  -->
<svg version="1.1" id="emoji" xmlns="http://www.w3.org/2000/svg" xmlns:xlink="http://www.w3.org/1999/xlink" x="0px" y="0px"
	 viewBox="0 0 72 72" enable-background="new 0 0 72 72" xml:space="preserve">
<g id="_xD83E__xDD21__1_">
	<path fill="none" stroke="#D9408F" stroke-width="2" stroke-linecap="round" stroke-linejoin="round" stroke-miterlimit="10" d="
		M16.6,26.7"/>
	<path fill="none" stroke="#D9408F" stroke-width="2" stroke-linecap="round" stroke-linejoin="round" stroke-miterlimit="10" d="
		M13.1,24.6"/>
	<g>
		<defs>
			<polygon id="SVGID_1_" points="36.1,13.5 26.7,15.3 20.9,18.7 15.5,24.2 11.7,32.3 11.7,45.8 17.9,56.1 26.7,62.1 36.1,64 
				44,62.7 52.5,58 58.1,51.2 61.4,41.1 60.5,32.3 56.4,23.7 51.7,18.9 43.8,14.7 			"/>
		</defs>
		<use xlink:href="#SVGID_1_"  overflow="visible" fill="#FFFFFF"/>
		<clipPath id="SVGID_2_">
			<use xlink:href="#SVGID_1_"  overflow="visible"/>
		</clipPath>
		<rect x="6.2" y="8" clip-path="url(#SVGID_2_)" fill="#FFFFFF" width="60.6" height="61.4"/>
	</g>
	<circle fill="none" stroke="#FBE930" stroke-width="2" stroke-miterlimit="10" cx="36.1" cy="38.7" r="25.2"/>
	<path fill="none" stroke="#FFFFFF" stroke-width="3" stroke-linejoin="round" stroke-miterlimit="10" d="M20.7,47.9
		c0,0,15.9,3.9,31,0.1"/>
	<ellipse stroke="#92D3F5" stroke-width="2" stroke-miterlimit="10" cx="27.1" cy="33" rx="3.8" ry="6.9"/>
	<ellipse stroke="#92D3F5" stroke-width="2" stroke-miterlimit="10" cx="45.2" cy="33.1" rx="3.8" ry="6.9"/>
	<circle fill="#D22F27" cx="36" cy="42" r="3"/>
	<path fill="none" stroke="#000000" stroke-width="2" stroke-linecap="round" stroke-linejoin="round" stroke-miterlimit="10" d="
		M22.4,22.5c3.2-1.7,6.8-1.8,9.5,0"/>
	<path fill="none" stroke="#000000" stroke-width="2" stroke-linecap="round" stroke-linejoin="round" stroke-miterlimit="10" d="
		M40.5,22.5c3.2-1.7,6.8-1.8,9.5,0"/>
	<g>
		
			<path fill="#D22F27" stroke="#000000" stroke-width="2" stroke-linecap="round" stroke-linejoin="round" stroke-miterlimit="10" d="
			M36.1,59.9C22.8,59.4,21,50.3,21,50.3c-0.5-1.9-1.4-6.3,2.5-4.2c3,1.6,5.9,4.8,12.6,5"/>
		
			<path fill="#D22F27" stroke="#000000" stroke-width="2" stroke-linecap="round" stroke-linejoin="round" stroke-miterlimit="10" d="
			M36.1,59.9c13.4-0.4,15.1-9.6,15.1-9.6c0.5-1.9,1.4-6.3-2.5-4.2c-3,1.6-5.9,4.8-12.6,5"/>
	</g>
	<path fill="#FFFFFF" d="M36.1,57.1c-6.6,0-10.9-3.6-12-5.4c-1.1-1.8,0.6-1.3,0.9-1.1c2.5,1.2,4.4,3,11,3.2 M36.1,57.1
		c6.6,0,10.9-3.6,12-5.4c1.1-1.8-0.6-1.3-0.9-1.1c-2.5,1.2-4.4,3-11,3.2"/>
	<polygon fill="#D22F27" points="10.5,30.6 9.6,28.3 9.4,26 9.3,23.3 10,20 12.1,17.1 14.4,14 19,13 22.5,13.6 25.5,13.9 26,16 
		21,18 18.7,20.4 17,22.5 14,25 12,30 	"/>
	<path fill="none" stroke="#000000" stroke-width="2" stroke-linecap="round" stroke-linejoin="round" stroke-miterlimit="10" d="
		M10.8,30.7c0,0-2.3-1.7-0.7-3.5c0,0-2.6-2.3-0.5-4.4c0,0-1.4-4.6,2.4-4.9c0,0-0.4-4.6,4.6-4.1c0,0,2.8-2,4.9,0.3
		c0,0,2.9-1.8,4.3,0.5"/>
	<polygon fill="#D22F27" points="46.5,13.9 48.9,13.2 51.2,13.2 53.8,13.3 57.1,14.3 59.8,16.7 62.7,19.2 63.3,23.9 62.4,27.3 
		61.8,30.3 59.7,30.6 58.2,25.4 56,23 54,21.1 51.8,17.9 47,15.4 	"/>
	
		<circle fill="none" stroke="#000000" stroke-width="2" stroke-linecap="round" stroke-linejoin="round" stroke-miterlimit="10" cx="36.1" cy="38.7" r="25.2"/>
	<path fill="none" stroke="#000000" stroke-width="2" stroke-linecap="round" stroke-linejoin="round" stroke-miterlimit="10" d="
		M60.8,30.7c0,0,2.3-1.7,0.7-3.5c0,0,2.6-2.3,0.5-4.4c0,0,1.4-4.6-2.4-4.9c0,0,0.4-4.6-4.6-4.1c0,0-2.8-2-4.9,0.3
		c0,0-2.9-1.8-4.3,0.5"/>
</g>
</svg>
