<?xml version="1.0" encoding="utf-8"?>
<!-- Generator: Adobe Illustrator 21.1.0, SVG Export Plug-In . SVG Version: 6.00 Build 0)  -->
<svg version="1.1" id="emoji" xmlns="http://www.w3.org/2000/svg" xmlns:xlink="http://www.w3.org/1999/xlink" x="0px" y="0px"
	 viewBox="0 0 72 72" enable-background="new 0 0 72 72" xml:space="preserve">
<g id="_xD83E__xDD2F__1_">
	<path fill="#FBEA2E" d="M17.3,26.3c-2.5,3.7-3.9,10.1-3.9,14.8c0,12.6,10.2,22.8,22.8,22.8C48.8,63.9,59,53.7,59,41.1
		c0-4.7-1.6-10.5-4-14.1"/>
	<path fill="none" stroke="#010101" stroke-width="2" stroke-miterlimit="10" d="M21.7,23"/>
	<path fill="none" stroke="#010101" stroke-width="2" stroke-miterlimit="10" d="M16,29.6"/>
	<path fill="none" stroke="#1D1E1C" stroke-width="2" stroke-linecap="round" stroke-linejoin="round" stroke-miterlimit="10" d="
		M56,29.6c1.9,3.4,3,7.3,3,11.4c0,12.7-10.3,23-23,23S13,53.7,13,41c0-4.1,1.1-8,3-11.4"/>
	<path fill="#010101" d="M30.3,35.9c0,1.7-1.3,3-3,3c-1.7,0-3-1.3-3-3c0-1.7,1.3-3,3-3C29,32.9,30.3,34.3,30.3,35.9"/>
	<path fill="#010101" d="M48.3,35.9c0,1.7-1.3,3-3,3s-3-1.3-3-3c0-1.7,1.3-3,3-3S48.3,34.3,48.3,35.9"/>
	<path fill="#FFFFFF" d="M28,55c0.3-0.4,3.3-8.2,8.4-8c4.6,0.2,7.2,7.5,7.6,8C38.7,55,33.3,55,28,55z"/>
	<path fill="none" stroke="#010101" stroke-width="2" stroke-linecap="round" stroke-linejoin="round" stroke-miterlimit="10" d="
		M28,55c0.3-0.4,1-8,8.4-8c6.6,0,7.2,7.5,7.6,8C38.7,55,33.3,55,28,55z"/>
	<path fill="#E16F22" d="M17,27c-1.3-2.3-3.7-6.7-5-9c4.3,0.2,4-0.5,7.6,0c0.7-2,2.7-5,3.4-7c2.7,2,5.3,4,8,6c2-3.3,4-1.7,6-5
		c2.3,3.3,4.6,2.7,6.9,6c2-2,4.1,0,6.1-2c0.3,1.7,0.7,3.3,1,5c3.3-1.7,6.7-3.3,10-5c-1.7,3-4.3,8-6,11"/>
	<path fill="none" stroke="#1D1E1C" stroke-width="2" stroke-linecap="round" stroke-linejoin="round" stroke-miterlimit="10" d="
		M16,25c-1.3-2.3-4-7-4-7l7.6,0l2.8-7l7.8,5.6L37,12l6.9,6l6.1-2c0,0,0.7,3.3,1,5c3.3-1.7,6.7-3.3,10-5c-1.7,3-3.3,6-5,9"/>
	<polygon fill="#E16F22" stroke="#E16F22" stroke-linecap="round" stroke-linejoin="round" stroke-miterlimit="10" points="
		23.9,31.4 20,30.2 23.1,27.5 	"/>
	<polygon fill="#FBEA2E" stroke="#FBEA33" stroke-linecap="round" stroke-linejoin="round" stroke-miterlimit="10" points="
		26.7,25.6 24,21.7 27.9,21 	"/>
	<polygon fill="#FBEA2E" stroke="#FBEA33" stroke-linecap="round" stroke-linejoin="round" stroke-miterlimit="10" points="
		35.3,20.7 35.8,17.1 38.9,20.7 	"/>
	<polygon fill="#FBEA2E" stroke="#FBEA33" stroke-linecap="round" stroke-linejoin="round" stroke-miterlimit="10" points="
		45.4,25.6 45,21.2 49.1,23.1 	"/>
	<polygon fill="#E16F22" stroke="#E16F22" stroke-linecap="round" stroke-linejoin="round" stroke-miterlimit="10" points="
		53.1,30.3 49.2,31.3 50.4,27.4 	"/>
	<polygon fill="#E16F22" stroke="#E16F22" stroke-linecap="round" stroke-linejoin="round" stroke-miterlimit="10" points="
		35.7,35.4 31,29.4 38.7,28.5 	"/>
</g>
</svg>
