<?xml version="1.0" encoding="utf-8"?>
<!-- Generator: Adobe Illustrator 21.1.0, SVG Export Plug-In . SVG Version: 6.00 Build 0)  -->
<svg version="1.1" id="emoji" xmlns="http://www.w3.org/2000/svg" xmlns:xlink="http://www.w3.org/1999/xlink" x="0px" y="0px"
	 viewBox="0 0 72 72" enable-background="new 0 0 72 72" xml:space="preserve">
<g>
	<path fill="none" stroke="#D9408F" stroke-width="2" stroke-linecap="round" stroke-linejoin="round" stroke-miterlimit="10" d="
		M19.1,27.7"/>
	<path fill="none" stroke="#D9408F" stroke-width="2" stroke-linecap="round" stroke-linejoin="round" stroke-miterlimit="10" d="
		M15.9,25.9"/>
	<g>
		<defs>
			<polygon id="SVGID_1_" points="36.9,15.7 28.3,17.4 23,20.4 18.1,25.5 14.7,32.9 14.7,45.2 20.3,54.6 28.3,60.1 36.9,61.7 
				44.1,60.6 51.8,56.3 56.9,50.1 59.9,40.9 59.2,32.9 55.3,25 51.1,20.7 43.9,16.8 			"/>
		</defs>
		<use xlink:href="#SVGID_1_"  overflow="visible" fill="#FFFFFF"/>
		<clipPath id="SVGID_2_">
			<use xlink:href="#SVGID_1_"  overflow="visible"/>
		</clipPath>
		<rect x="9.7" y="10.7" clip-path="url(#SVGID_2_)" fill="#FFFFFF" width="55.2" height="56"/>
	</g>
	<path fill="none" stroke="#FFFFFF" stroke-width="3" stroke-linejoin="round" stroke-miterlimit="10" d="M22.9,47.1
		c0,0,14.5,3.6,28.3,0.1"/>
	<ellipse stroke="#92D3F5" stroke-width="2" stroke-miterlimit="10" cx="28.7" cy="33.6" rx="3.5" ry="6.3"/>
	<ellipse stroke="#92D3F5" stroke-width="2" stroke-miterlimit="10" cx="45.2" cy="33.6" rx="3.5" ry="6.3"/>
	<circle fill="#D22F27" cx="36.8" cy="41.7" r="2.7"/>
	<path fill="none" stroke="#000000" stroke-width="2" stroke-linecap="round" stroke-linejoin="round" stroke-miterlimit="10" d="
		M24.4,23.9c2.9-1.6,6.2-1.6,8.7,0"/>
	<path fill="none" stroke="#000000" stroke-width="2" stroke-linecap="round" stroke-linejoin="round" stroke-miterlimit="10" d="
		M40.8,23.9c2.9-1.6,6.2-1.6,8.7,0"/>
	<g>
		
			<path fill="#D22F27" stroke="#000000" stroke-width="2" stroke-linecap="round" stroke-linejoin="round" stroke-miterlimit="10" d="
			M50.7,49.3c0,0-1.6,8.4-13.8,8.8c-12.2-0.4-13.8-8.8-13.8-8.8c-0.5-1.7-1.2-5.8,2.3-3.8c2.7,1.5,5.4,4.4,11.5,4.5
			c6.2-0.2,8.8-3,11.5-4.5C52,43.5,51.2,47.5,50.7,49.3z"/>
	</g>
	<path fill="#FFFFFF" d="M36.9,55.5c-6.1,0-9.9-3.3-10.9-4.9s0.6-1.2,0.9-1c2.3,1.1,4,2.7,10,2.9 M36.9,55.5c6.1,0,9.9-3.3,10.9-4.9
		s-0.6-1.2-0.9-1c-2.3,1.1-4,2.7-10,2.9"/>
	<polygon fill="#D22F27" points="14.3,30.6 13.5,28.5 13.3,26.5 13.3,24.2 13.9,21.2 15.8,18.6 17.8,15.9 21.8,15 24.9,15.6 
		27.6,15.8 28,17.7 23.6,19.4 21.6,21.5 20.1,23.4 17.4,25.6 15.6,30.1 	"/>
	<path fill="none" stroke="#000000" stroke-width="2" stroke-linecap="round" stroke-linejoin="round" stroke-miterlimit="10" d="
		M14.5,30.7c0,0-2-1.5-0.6-3.1c0,0-2.3-2-0.4-3.9c0,0-1.2-4.1,2.1-4.3c0,0-0.4-4.1,4.1-3.6c0,0,2.5-1.8,4.4,0.2c0,0,2.5-1.6,3.8,0.4
		"/>
	<polygon fill="#D22F27" points="46.2,15.9 48.3,15.2 50.3,15.2 52.7,15.3 55.6,16.2 58,18.3 60.5,20.5 61.1,24.6 60.3,27.6 
		59.8,30.3 57.9,30.6 56.5,26 54.6,23.9 52.9,22.2 50.8,19.3 46.6,17.2 	"/>
	
		<circle fill="none" stroke="#000000" stroke-width="2" stroke-linecap="round" stroke-linejoin="round" stroke-miterlimit="10" cx="36.9" cy="38.7" r="23"/>
	<path fill="none" stroke="#000000" stroke-width="2" stroke-linecap="round" stroke-linejoin="round" stroke-miterlimit="10" d="
		M58.8,30.7c0,0,2-1.5,0.6-3.1c0,0,2.3-2,0.4-3.9c0,0,1.2-4.1-2.1-4.3c0,0,0.4-4.1-4.1-3.6c0,0-2.5-1.8-4.4,0.2c0,0-2.5-1.6-3.8,0.4
		"/>
</g>
</svg>
