<?xml version="1.0" encoding="utf-8"?>
<!-- Generator: Adobe Illustrator 21.1.0, SVG Export Plug-In . SVG Version: 6.00 Build 0)  -->
<svg version="1.1" id="emoji" xmlns="http://www.w3.org/2000/svg" xmlns:xlink="http://www.w3.org/1999/xlink" x="0px" y="0px"
	 viewBox="0 0 72 72" enable-background="new 0 0 72 72" xml:space="preserve">
<g>
	<path fill="none" stroke="#1F201F" stroke-width="0.5" stroke-linecap="round" stroke-linejoin="round" stroke-miterlimit="10" d="
		M26.8,66.7"/>
	<g>
		<defs>
			<polygon id="SVGID_1_" points="37.7,13.7 29.1,15.4 23.8,18.4 18.9,23.5 15.4,30.9 15.4,43.2 21,52.6 29.1,58 37.7,59.7 
				44.9,58.6 52.6,54.2 57.7,48.1 60.7,38.9 59.9,30.9 56.1,23 51.9,18.7 44.7,14.8 			"/>
		</defs>
		<use xlink:href="#SVGID_1_"  overflow="visible" fill="#FCEA2B"/>
		<clipPath id="SVGID_2_">
			<use xlink:href="#SVGID_1_"  overflow="visible"/>
		</clipPath>
		<rect x="10.4" y="8.7" clip-path="url(#SVGID_2_)" fill="#FCEA2B" width="55.2" height="56"/>
	</g>
	<circle fill="none" stroke="#FCEA2B" stroke-width="2" stroke-miterlimit="10" cx="37.7" cy="36.7" r="23"/>
	<path fill="none" stroke="#1F201F" stroke-width="2" stroke-linecap="round" stroke-linejoin="round" stroke-miterlimit="10" d="
		M48.7,48.1"/>
	<path fill="none" stroke="#000000" stroke-width="2" stroke-linecap="round" stroke-linejoin="round" stroke-miterlimit="10" d="
		M23,27.9c0.7-1.4,1.9-2.5,3.4-3c1.4-0.7,3-0.8,4.5-0.4"/>
	<path fill="none" stroke="#000000" stroke-width="2" stroke-linecap="round" stroke-linejoin="round" stroke-miterlimit="10" d="
		M52.6,27.9c-1.6-2.8-4.8-4.2-7.9-3.4"/>
	<path fill="none" stroke="#000000" stroke-width="2" stroke-linecap="round" stroke-linejoin="round" stroke-miterlimit="10" d="
		M51.9,54.8c5.3-4.2,8.8-10.7,8.8-18.1c0-12.7-10.3-23-23-23c-12.7,0-23,10.3-23,23c0,12.7,10.3,23,23,23c0.4,0,0.7,0,1.1,0"/>
	<path fill="none" stroke="#000000" stroke-width="2" stroke-linecap="round" stroke-linejoin="round" stroke-miterlimit="10" d="
		M26.8,35.5c0.6-0.7,1.4-1.4,2.5-1.8c1.1-0.4,2.1-0.4,3.3-0.2"/>
	<path fill="none" stroke="#000000" stroke-width="2" stroke-linecap="round" stroke-linejoin="round" stroke-miterlimit="10" d="
		M48.7,35.5c-0.6-0.7-1.4-1.4-2.5-1.8c-1.1-0.4-2.1-0.4-3.3-0.2"/>
	<g>
		<defs>
			<polygon id="SVGID_3_" points="41.9,51.8 47.1,50.2 49.1,48.4 49.6,46.5 43.3,46.5 26.1,46.5 28.4,50.2 33.8,51.8 			"/>
		</defs>
		<use xlink:href="#SVGID_3_"  overflow="visible" fill="#EA5A47"/>
		<clipPath id="SVGID_4_">
			<use xlink:href="#SVGID_3_"  overflow="visible"/>
		</clipPath>
		<rect x="17.8" y="42.6" clip-path="url(#SVGID_4_)" fill="#EA5A47" width="40.2" height="13.2"/>
	</g>
	<path fill="none" stroke="#000000" stroke-width="2" stroke-linecap="round" stroke-linejoin="round" stroke-miterlimit="10" d="
		M49.7,45.4c0,3.6-4,6.4-11.9,6.4c-8,0-12-2.8-12-6.4"/>
	<path fill="none" stroke="#000000" stroke-width="2" stroke-linecap="round" stroke-linejoin="round" stroke-miterlimit="10" d="
		M25.8,45.4c0,0,12.1,3.1,23.7,0.1"/>
	
		<path fill="#92D3F5" stroke="#000000" stroke-width="2" stroke-linecap="round" stroke-linejoin="round" stroke-miterlimit="10" d="
		M44.5,56.8c0,0.7-0.6,1.3-1.2,1.3l0,0c-0.7,0-1.2-0.6-1.2-1.3V55v-2.6l3.3-1.2l2.7-1.6v6.8V61c0,0.9-0.8,1.6-1.7,1.6h0
		c-1,0-1.7-0.7-1.7-1.6v-4.7"/>
</g>
</svg>
