<?xml version="1.0" encoding="utf-8"?>
<!-- Generator: Adobe Illustrator 21.1.0, SVG Export Plug-In . SVG Version: 6.00 Build 0)  -->
<svg version="1.1" id="emoji" xmlns="http://www.w3.org/2000/svg" xmlns:xlink="http://www.w3.org/1999/xlink" x="0px" y="0px"
	 viewBox="0 0 72 72" enable-background="new 0 0 72 72" xml:space="preserve">
<g id="_xD83E__xDD2D__1_">
	<g>
		<defs>
			<polygon id="SVGID_1_" points="36.6,5.3 26.7,7.2 20.6,10.7 14.9,16.6 11,25 11,39.2 17.4,50.1 26.7,56.3 36.6,58.3 44.9,57 
				53.8,52 59.7,44.9 63.1,34.3 62.2,25.1 57.9,16 53,11 44.7,6.5 			"/>
		</defs>
		<use xlink:href="#SVGID_1_"  overflow="visible" fill="#FCEA2B"/>
		<clipPath id="SVGID_2_">
			<use xlink:href="#SVGID_1_"  overflow="visible"/>
		</clipPath>
	</g>
	<path fill="none" stroke="#1F201E" stroke-width="2" stroke-linecap="round" stroke-linejoin="round" stroke-miterlimit="10" d="
		M50.4,43"/>
	<circle fill="none" stroke="#FCEA2B" stroke-width="2" stroke-miterlimit="10" cx="36.8" cy="31.8" r="26.5"/>
	<circle cx="26.7" cy="25.5" r="3"/>
	<circle cx="46.5" cy="25.5" r="3"/>
	<path fill="#FCEA2B" d="M36,68c0-0.6-0.6-2.2,0.2-7.4c0.3-2,2.2-2.2,3.4-4.5c3.4-6.7,2.1-9.4,4.5-15.7c1.3-3.3-1.8-4.2-3.5-0.7
		l2.4-4.9c1.1-2.2-2-5.1-4.5,0l-1.1,2.2c1.8-2.6-1.1-5.1-3.4-2.2c-1.6,2-3.9,6.2-5.6,11.2c0,0-0.8-1.5-1.4-3.2
		c-0.6-1.5-0.8-2.5-1.9-2.5s-1.6,0.9-1.2,4c0.4,3.4,0.9,8.1,1.6,9.5c1.6,3.2,1.9,3.3,1.9,3.3s0.1-1.4-2.2,8.7"/>
	<path fill="none" stroke="#000000" stroke-width="2" stroke-linecap="round" stroke-linejoin="round" stroke-miterlimit="10" d="
		M25.3,65.1c1.1-4.7,1.9-7.8,1.9-7.8s-0.3-0.1-1.9-3.3c-0.7-1.4-1.2-6.2-1.6-9.5c-0.4-3.2,0.1-4,1.2-4s1.4,0.9,1.9,2.5
		c0.6,1.6,1.4,3.2,1.4,3.2c1.7-5,4-9.2,5.6-11.2c2.2-2.8,5.1-0.4,3.4,2.2c-2.2,3.4-3.4,6.7-3.4,6.7"/>
	<path fill="none" stroke="#000000" stroke-width="2" stroke-linecap="round" stroke-linejoin="round" stroke-miterlimit="10" d="
		M37.3,37.1l1.1-2.2c2.5-5.1,5.6-2.2,4.5,0c-1.2,2.3-3.4,6.7-4.5,10.1"/>
	<path fill="none" stroke="#000000" stroke-width="2" stroke-linecap="round" stroke-linejoin="round" stroke-miterlimit="10" d="
		M35.8,67.1c0-2.3,0.1-4.7,0.3-6.4c0.3-2,2.2-2.2,3.4-4.5c3.4-6.7,2.1-9.4,4.5-15.7c1.3-3.3-1.8-4.2-3.5-0.7"/>
	<path fill="none" stroke="#1D1D1B" stroke-width="2" stroke-linecap="round" stroke-linejoin="round" stroke-miterlimit="10" d="
		M44.6,57.1c10.8-3.3,18.7-13.4,18.7-25.3c0-14.6-11.8-26.5-26.4-26.6c-14.6,0-26.5,11.8-26.6,26.4c0,8.1,3.6,15.4,9.4,20.3"/>
</g>
</svg>
