<?xml version="1.0" encoding="utf-8"?>
<!-- Generator: Adobe Illustrator 21.1.0, SVG Export Plug-In . SVG Version: 6.00 Build 0)  -->
<svg version="1.1" id="emoji" xmlns="http://www.w3.org/2000/svg" xmlns:xlink="http://www.w3.org/1999/xlink" x="0px" y="0px"
	 viewBox="0 0 72 72" enable-background="new 0 0 72 72" xml:space="preserve">
<g>
	<g>
		<defs>
			<polygon id="SVGID_1_" points="40.5,9.7 31.9,11.4 26.7,14.4 21.8,19.4 18.4,26.7 18.4,38.9 24,48.3 31.9,53.7 40.5,55.4 
				47.6,54.2 55.3,49.9 60.3,43.8 63.3,34.7 62.6,26.7 58.8,18.9 54.6,14.6 47.4,10.8 			"/>
		</defs>
		<use xlink:href="#SVGID_1_"  overflow="visible" fill="#FCEA2B"/>
		<clipPath id="SVGID_2_">
			<use xlink:href="#SVGID_1_"  overflow="visible"/>
		</clipPath>
		<rect x="13.4" y="4.7" clip-path="url(#SVGID_2_)" fill="#FCEA2B" width="54.8" height="55.6"/>
	</g>
	<circle fill="none" stroke="#FCEA2B" stroke-width="2" stroke-miterlimit="10" cx="40.5" cy="32.5" r="22.8"/>
	<path fill="none" stroke="#1F201F" stroke-width="2" stroke-linecap="round" stroke-linejoin="round" stroke-miterlimit="10" d="
		M54.4,40.5"/>
	<path fill="none" stroke="#1F201F" stroke-width="2" stroke-linecap="round" stroke-linejoin="round" stroke-miterlimit="10" d="
		M26.6,40.5"/>
	
		<polyline fill="none" stroke="#000000" stroke-width="2" stroke-linecap="round" stroke-linejoin="round" stroke-miterlimit="10" points="
		30.1,23.9 36.7,28 30.1,31.7 	"/>
	
		<polyline fill="none" stroke="#000000" stroke-width="2" stroke-linecap="round" stroke-linejoin="round" stroke-miterlimit="10" points="
		51.8,23.9 45.2,28 51.8,31.7 	"/>
	<path fill="none" stroke="#000000" stroke-width="2" stroke-linecap="round" stroke-linejoin="round" stroke-miterlimit="10" d="
		M39.7,55.5c0.3,0,0.6,0,0.9,0c12.7,0,23-10.3,23-23c0-12.7-10.3-23-23-23c-12.7,0-23,10.3-23,23c0,1.9,0.2,3.8,0.7,5.6"/>
	
		<polyline fill="none" stroke="#000000" stroke-width="2" stroke-linecap="round" stroke-linejoin="round" stroke-miterlimit="10" points="
		37.1,45.7 42.8,47.6 45.7,42.8 49.4,45.7 51.4,43.3 	"/>
	
		<path fill="#FFFFFF" stroke="#000000" stroke-width="2" stroke-linecap="round" stroke-linejoin="round" stroke-miterlimit="10" d="
		M10.6,43.5c0,0,16.2,1.2,25-9.9c0.7-0.8,2-2.3,3.9-1c0,0,9.3,7.9-11,28.7c0,0,0-4.8-2.4-4.3C21.7,58,14,61.2,8.3,58.7
		C8.3,58.7,22.4,52.3,10.6,43.5z"/>
</g>
</svg>
