<?xml version="1.0" encoding="utf-8"?>
<!-- Generator: Adobe Illustrator 21.1.0, SVG Export Plug-In . SVG Version: 6.00 Build 0)  -->
<svg version="1.1" id="emoji" xmlns="http://www.w3.org/2000/svg" xmlns:xlink="http://www.w3.org/1999/xlink" x="0px" y="0px"
	 viewBox="0 0 72 72" enable-background="new 0 0 72 72" xml:space="preserve">
<g>
	<path fill="none" stroke="#1F201F" stroke-width="2" stroke-linecap="round" stroke-linejoin="round" stroke-miterlimit="10" d="
		M32.8,27.7"/>
	<g>
		<defs>
			<polygon id="SVGID_1_" points="36.5,17.9 27.8,19.6 22.5,22.6 17.6,27.7 14.2,35.1 14.2,47.4 19.8,56.8 27.8,62.3 36.5,63.9 
				43.6,62.8 51.4,58.5 56.5,52.3 59.5,43.1 58.7,35.1 54.9,27.2 50.7,22.9 43.4,19 			"/>
		</defs>
		<use xlink:href="#SVGID_1_"  overflow="visible" fill="#FCEA2B"/>
		<clipPath id="SVGID_2_">
			<use xlink:href="#SVGID_1_"  overflow="visible"/>
		</clipPath>
		<rect x="9.2" y="12.9" clip-path="url(#SVGID_2_)" fill="#FCEA2B" width="55.2" height="56"/>
	</g>
	<circle fill="none" stroke="#FCEA2B" stroke-width="1.8" stroke-miterlimit="10" cx="36.5" cy="40.9" r="23"/>
	<path fill="none" stroke="#1F201F" stroke-width="2" stroke-linecap="round" stroke-linejoin="round" stroke-miterlimit="10" d="
		M50.5,49"/>
	<g>
		<defs>
			<polygon id="SVGID_3_" points="41.2,58.5 47.5,55.4 50,52.1 50.7,48.4 42.9,48.5 22,48.5 24.7,55.4 31.3,58.5 			"/>
		</defs>
		<use xlink:href="#SVGID_3_"  overflow="visible" fill="#EA5A47"/>
		<clipPath id="SVGID_4_">
			<use xlink:href="#SVGID_3_"  overflow="visible"/>
		</clipPath>
		<rect x="11.8" y="41" clip-path="url(#SVGID_4_)" fill="#EA5A47" width="49" height="24.8"/>
	</g>
	<path fill="none" stroke="#FFFFFF" stroke-width="4" stroke-linejoin="round" stroke-miterlimit="10" d="M22.4,49.3
		c0,0,14.5,3.6,28.3,0.1"/>
	<path fill="none" stroke="#000000" stroke-width="2" stroke-linecap="round" stroke-linejoin="round" stroke-miterlimit="10" d="
		M22,46.8c0,0,14.8,3.6,28.9,0.1"/>
	<path fill="none" stroke="#000000" stroke-width="2" stroke-linecap="round" stroke-linejoin="round" stroke-miterlimit="10" d="
		M51.1,46.8c0,6.5-4.8,11.7-14.6,11.7c-9.7,0-14.6-5.2-14.6-11.7"/>
	<path fill="none" stroke="#000000" stroke-width="2" stroke-linejoin="round" stroke-miterlimit="10" d="M22.4,51.1
		c0,0,14.5,3.6,28.3,0.1"/>
	<ellipse cx="29.4" cy="35.8" rx="3" ry="5.4"/>
	<ellipse cx="44.2" cy="35.8" rx="3" ry="5.4"/>
	<path fill="none" stroke="#000000" stroke-linecap="round" stroke-linejoin="round" stroke-miterlimit="10" d="M59,17.2
		c0,0-4-3.9-10,1.6c0,0-3.8,3.7-13.5,3.7"/>
	<path fill="none" stroke="#000000" stroke-linecap="round" stroke-linejoin="round" stroke-miterlimit="10" d="M12,17.2
		c0,0,4-3.9,10,1.6c0,0,3.8,3.7,13.5,3.7"/>
	<path fill="none" stroke="#000000" stroke-linecap="round" stroke-linejoin="round" stroke-miterlimit="10" d="M49,18.8
		c0,0-3.8,3.7-13.5,3.7"/>
	<polygon fill="#6A462F" stroke="#000000" stroke-width="0.25" stroke-miterlimit="10" points="13.8,32.3 11.1,29.6 9.1,25.5 
		8.7,21.9 10.7,18.4 13.5,16.3 17.1,15.9 20.8,17.8 23.8,20.4 20.3,23.5 17.4,25.8 15.7,28.8 	"/>
	<polygon fill="#6A462F" stroke="#000000" stroke-width="0.25" stroke-miterlimit="10" points="57.6,32.1 60.3,29.4 62.3,25.3 
		62.6,21.7 60.6,18.2 57.9,16.1 54.2,15.7 50.5,17.6 47.5,20.2 51,23.3 53.9,25.6 55.6,28.6 	"/>
	<path fill="none" stroke="#000000" stroke-width="2" stroke-linecap="round" stroke-linejoin="round" stroke-miterlimit="10" d="
		M13.9,36.6c-0.3,1.4-0.4,2.9-0.4,4.3c0,12.7,10.3,23,23,23c12.7,0,23-10.3,23-23c0-1.5-0.1-2.9-0.4-4.3"/>
	<path fill="none" stroke="#000000" stroke-width="2" stroke-linecap="round" stroke-linejoin="round" stroke-miterlimit="10" d="
		M57.6,31.7C54.2,23.1,45.8,17.2,36,17.2c-4.6,0-8.9,1.4-12.5,3.7c-4.1,2.7-7.6,6.3-9.3,10.9"/>
	<polygon fill="#6A462F" stroke="#000000" stroke-width="0.25" stroke-miterlimit="10" points="24.7,19.9 25.2,17.9 24.8,15.6 
		24.3,13.3 24.8,12 26.6,10.7 29.6,9.1 32.2,8.1 34,8.1 35,8.4 35.7,8.8 38.2,8.3 40.3,8.6 43.8,10 46.8,12.6 46.4,19.2 46.8,20 
		46.1,20.6 40.1,22.3 31.7,22.3 27,21.3 	"/>
	<path fill="none" stroke="#000000" stroke-width="2" stroke-linecap="round" stroke-linejoin="round" stroke-miterlimit="10" d="
		M23.8,19.9c0,0,1.7-0.4,1.4-2.6c-0.1-0.7-0.4-1.6-0.7-2.5c-0.6-1.7-0.2-3,4.1-5.1c0,0,2.1-1,2.8-1.3c1.1-0.3,3.3-0.6,4.5,0.8
		 M47.5,19.9c0,0-1.6-0.4-1.4-2.6c0.1-0.7,0.3-1.6,0.7-2.5c0.6-1.7,0.2-3-3.9-5.1c0,0-2-1-2.7-1.3c-1-0.3-3.1-0.6-4.3,0.8"/>
	<path fill="#6A462F" d="M19,23.2c0,0,7.2,2.9,17.3,3c5.1,0,11-1.4,17.1-3l-2.9-2.7l-1.6-0.9l-3.7,1.5L43,21.7l-2.2,0.5l-4,0.4
		l-5.1-0.2l-3.2-0.6l-2.4-0.7l-3.2-1l-1.8,1L19,23.2z"/>
	<path fill="none" stroke="#000000" stroke-width="2" stroke-linecap="round" stroke-linejoin="round" stroke-miterlimit="10" d="
		M13.9,32.3c0,0-10.2-8.4-1.9-15.1c0,0,4-3.9,10,1.6c0,0,3.8,3.7,13.5,3.7 M57.9,32.1c0,0,9.4-8.2,1.1-14.9c0,0-4-3.9-10,1.6
		c0,0-3.8,3.7-13.5,3.7"/>
	<path fill="none" stroke="#000000" stroke-width="2" stroke-linecap="round" stroke-linejoin="round" stroke-miterlimit="10" d="
		M19.7,23.8c0,0,15.8,5.6,32.7,0"/>
</g>
</svg>
