<?xml version="1.0" encoding="utf-8"?>
<!-- Generator: Adobe Illustrator 21.1.0, SVG Export Plug-In . SVG Version: 6.00 Build 0)  -->
<svg version="1.1" id="emoji" xmlns="http://www.w3.org/2000/svg" xmlns:xlink="http://www.w3.org/1999/xlink" x="0px" y="0px"
	 viewBox="0 0 72 72" enable-background="new 0 0 72 72" xml:space="preserve">
<g>
	<g>
		<defs>
			<polygon id="SVGID_1_" points="36.1,10.8 27.5,12.5 22.2,15.5 17.3,20.6 13.9,27.9 13.9,40.3 19.5,49.6 27.5,55.1 36.1,56.8 
				43.3,55.6 51,51.3 56.1,45.1 59.1,35.9 58.4,28 54.6,20.1 50.3,15.8 43.1,11.9 			"/>
		</defs>
		<use xlink:href="#SVGID_1_"  overflow="visible" fill="#FCEA2B"/>
		<clipPath id="SVGID_2_">
			<use xlink:href="#SVGID_1_"  overflow="visible"/>
		</clipPath>
	</g>
	<path fill="none" stroke="#1F201E" stroke-width="2" stroke-linecap="round" stroke-linejoin="round" stroke-miterlimit="10" d="
		M48.4,43.7"/>
	<circle fill="none" stroke="#FCEA2B" stroke-width="1.8" stroke-miterlimit="10" cx="36.3" cy="33.8" r="23"/>
	<circle cx="27.5" cy="28.4" r="2.6"/>
	<circle cx="44.7" cy="28.4" r="2.6"/>
	<path fill="#FCEA2B" d="M35.6,66c0-0.6-0.5-2,0.1-6.5c0.3-1.7,2-2,3-4c3-6,1.8-8.3,4-14c1.1-2.9-1.6-3.7-3.1-0.6l2.1-4.4
		c1-2-1.7-4.5-4,0l-1,2c1.6-2.3-1-4.5-3-2c-1.4,1.8-3.5,5.5-5,10c0,0-0.8-1.4-1.3-2.8c-0.5-1.4-0.7-2.2-1.7-2.2
		c-1,0-1.4,0.8-1.1,3.6c0.3,3,0.8,7.2,1.4,8.5c1.4,2.8,1.7,2.9,1.7,2.9s0.1-1.2-1.9,7.8"/>
	<path fill="none" stroke="#000000" stroke-width="2" stroke-linecap="round" stroke-linejoin="round" stroke-miterlimit="10" d="
		M26.1,63.4c1-4.2,1.7-7,1.7-7s-0.3-0.1-1.7-2.9c-0.6-1.3-1.1-5.5-1.4-8.5c-0.3-2.8,0.1-3.6,1.1-3.6c1,0,1.2,0.8,1.7,2.2
		c0.5,1.5,1.3,2.8,1.3,2.8c1.5-4.4,3.6-8.2,5-10c2-2.5,4.6-0.4,3,2c-2,3-3,6-3,6"/>
	<path fill="none" stroke="#000000" stroke-width="2" stroke-linecap="round" stroke-linejoin="round" stroke-miterlimit="10" d="
		M36.8,38.5l1-2c2.2-4.5,5-2,4,0c-1,2-3,6-4,9"/>
	<path fill="none" stroke="#000000" stroke-width="2" stroke-linecap="round" stroke-linejoin="round" stroke-miterlimit="10" d="
		M35.5,65.2c0-2.1,0.1-4.2,0.3-5.7c0.3-1.7,2-2,3-4c3-6,1.8-8.3,4-14c1.1-2.9-1.6-3.7-3.1-0.6"/>
	<path fill="none" stroke="#000000" stroke-width="2" stroke-linecap="round" stroke-linejoin="round" stroke-miterlimit="10" d="
		M43,55.8c9.4-2.9,16.2-11.6,16.2-21.9c0-12.7-10.2-23-22.9-23c-12.7,0-23,10.2-23,22.9c0,7,3.1,13.4,8.1,17.6"/>
</g>
</svg>
