<?xml version="1.0" encoding="utf-8"?>
<!-- Generator: Adobe Illustrator 21.1.0, SVG Export Plug-In . SVG Version: 6.00 Build 0)  -->
<svg version="1.1" id="lines" xmlns="http://www.w3.org/2000/svg" xmlns:xlink="http://www.w3.org/1999/xlink" x="0px" y="0px"
	 viewBox="0 0 72 72" enable-background="new 0 0 72 72" xml:space="preserve">
<g id="farbe">
	<path fill="#F1B31C" d="M52.5,47.6c-0.4,0.4,3.6-7.6,0.8-12.4c-0.4-0.9-1-2.3-1.3-3.2c-1.5-3.3-1.9-4-2.2-10.1c0-3.7-3.2-7-6.8-7.3
		c-0.3,0-0.5-0.1-0.7-0.3c-0.1-0.1-2.8-3-7.7-3c-6.2,0-11.3,4-12.6,8.9c-0.5,2-2.7,2.1-2.5,4.2c0.2,2,0,7-0.7,8.9
		c-0.2,0.8-0.6,1.5-1.1,2.1C14,39.7,18.2,47.7,18,47.4C28.1,56.6,39.7,56.1,52.5,47.6z"/>
	<path fill="#92D3F5" d="M17,61l-1.1-4c0-5.9,6.1-10,11.1-10c6,5,12,5,18,0c5,0,10,5,10,10v4"/>
	<path fill="#FCEA2B" d="M28.9,61c0-0.6-0.7-10.4,0-15c0.3-1.7,2-2,3-4c3-6,1.8-8.3,4-14c1.1-3-1.6-3.7-3.1-0.6l3-3.8
		c1.2-3.3-2.6-4.4-4.3-2.6l-1.8,3.6c1.6-2.4-1-4.1-2.7-2.4c-1.6,1.7-3.6,6.3-5.1,10.7c0,0-0.1-2.2,0.8-4.2c0.6-1.2,0.2-2.9-1.7-2.8
		c-1,0.1-1.8,2.8-2.5,5.7c-0.8,2.9,0.1,7.2,0.7,8.4c1.4,2.8,1.7,2.9,1.7,2.9s-2,9-4,18"/>
	<path fill="#FCEA2B" d="M24.1,31c-0.2,8.7,4.4,15,11.8,15C43,46,47,39,47,31c0-5-8.9-13.5-8.9-13.5c-3.8,3.6-6.9,12.8-12.8,10.3
		C25.3,27.8,24.2,26,24.1,31z"/>
	<path fill="none" stroke="#040404" stroke-width="2" stroke-linecap="round" stroke-linejoin="round" d="M20.5,24
		c0-1.2,0.2-2.5,0.6-4.2c1.5-5.5,7.3-9,13.7-9c5.4,0,8,3,8,3c4.2,0.4,7.4,3.9,7.4,8c0.4,7.2,1,7.2,3.4,12.8c1.7,4,1.1,8.6-1.6,11.9"
		/>
	<path fill="#040404" d="M41.9,30c0,1.1-0.9,2-2,2c-1.1,0-2-0.9-2-2s0.9-2,2-2C41,28,41.9,28.9,41.9,30"/>
	<path fill="none" stroke="#040404" stroke-width="2" stroke-linecap="round" stroke-linejoin="round" d="M37.4,38
		c1.8,0-0.9,0,1.6,0"/>
	<path fill="none" stroke="#040404" stroke-width="2" stroke-linecap="round" stroke-linejoin="round" d="M55,60v-3c0-5-5-9-10-9
		c-3.4,2.8-6.8,3.7-10.1,3.7c-0.7,0-1.4-0.1-2.1-0.1"/>
	<path fill="none" stroke="#000000" stroke-width="2" stroke-linecap="round" stroke-linejoin="round" stroke-miterlimit="10" d="
		M32.3,21.5c-2.2,3.3-1.9,2.8-5.3,9.5"/>
	<path fill="none" stroke="#000000" stroke-width="2" stroke-linecap="round" stroke-linejoin="round" stroke-miterlimit="10" d="
		M22,32.6c2.2-4.3,4.1-7.8,5.5-9.6"/>
	<path fill="none" stroke="#000000" stroke-width="2" stroke-linecap="round" stroke-linejoin="round" stroke-miterlimit="10" d="
		M17,60c2-9,4-17.4,4-17.4s-0.6-0.8-2-3.6c-2-4,0-9,2-12"/>
	<path fill="none" stroke="#000000" stroke-width="2" stroke-linecap="round" stroke-linejoin="round" stroke-miterlimit="10" d="
		M35,23c-1.3,2.6-2.8,5.5-4,9"/>
	<path fill="none" stroke="#000000" stroke-width="2" stroke-linecap="round" stroke-linejoin="round" stroke-miterlimit="10" d="
		M29,60c0-0.6-0.7-9.5,0-14c0.3-1.7,2.2-2.3,3-4c1.9-4,2.3-7.8,3.9-14"/>
	<path fill="none" stroke="#040404" stroke-width="2" stroke-linecap="round" stroke-linejoin="round" d="M37.3,19.7
		c0.5-0.6,0.9-1.1,1.7-1.7c0,0,4,5,7,8c0,0,1,2,1,5c0,9-5.1,14-11.1,14c-0.2,0-0.6,0-0.9-0.1"/>
</g>
</svg>
