<?xml version="1.0" encoding="utf-8"?>
<!-- Generator: Adobe Illustrator 21.1.0, SVG Export Plug-In . SVG Version: 6.00 Build 0)  -->
<svg version="1.1" id="emoji" xmlns="http://www.w3.org/2000/svg" xmlns:xlink="http://www.w3.org/1999/xlink" x="0px" y="0px"
	 viewBox="0 0 72 72" enable-background="new 0 0 72 72" xml:space="preserve">
<g id="_xD83E__xDD28__1_">
	<path fill="none" stroke="#1F201F" stroke-width="0.5" stroke-linecap="round" stroke-linejoin="round" stroke-miterlimit="10" d="
		M28.9,61.5"/>
	<path fill="#FCEA2B" d="M35.4,15.2c-11.6,0-21.1,9.5-21.1,21.1c0,11.6,9.5,21.1,21.1,21.1c11.6,0,21.1-9.5,21.1-21.1
		C56.5,24.7,47,15.2,35.4,15.2z"/>
	<path d="M35.4,59.3c-12.7,0-23-10.3-23-23c0-12.7,10.3-23,23-23s23,10.3,23,23C58.4,49,48.1,59.3,35.4,59.3z M35.4,15.2
		c-11.6,0-21.1,9.5-21.1,21.1c0,11.6,9.5,21.1,21.1,21.1c11.6,0,21.1-9.5,21.1-21.1C56.5,24.7,47,15.2,35.4,15.2z"/>
	<path d="M31.2,28c-0.2,0-0.5-0.1-0.7-0.3c0,0-1.2-1.1-3.5-1.1c-2.3,0-3.4,1.1-3.5,1.1c-0.4,0.4-1,0.4-1.4,0c-0.4-0.4-0.4-1,0-1.3
		c0.1-0.1,1.7-1.7,4.8-1.7c3.1,0,4.7,1.6,4.8,1.7c0.4,0.4,0.4,1,0,1.4C31.7,27.9,31.5,28,31.2,28z"/>
	<path d="M43.6,29.4c-3.1,0-4.7-1.6-4.8-1.7c-0.4-0.4-0.4-1,0-1.4c0.4-0.4,1-0.4,1.4,0c0,0,1.2,1.1,3.5,1.1c2.3,0,3.4-1.1,3.5-1.1
		c0.4-0.4,1-0.4,1.4,0c0.4,0.4,0.4,1,0,1.3C48.4,27.8,46.8,29.4,43.6,29.4z"/>
	<circle cx="26.9" cy="34.8" r="2.6"/>
	<circle cx="43.4" cy="34.8" r="2.6"/>
	<path d="M41.6,47.4c-0.1,0-0.2,0-0.4-0.1c-1.7-0.7-10-0.7-11.7,0c-0.5,0.2-1.1,0-1.3-0.5c-0.2-0.5,0-1.1,0.5-1.3
		c2.1-0.9,11-0.9,13.1,0c0.5,0.2,0.7,0.8,0.5,1.3C42.4,47.1,42,47.4,41.6,47.4z"/>
</g>
</svg>
