<svg version="1.1" id="emoji" xmlns="http://www.w3.org/2000/svg" x="0" y="0" viewBox="0 0 72 72" enable-background="new 0 0 72 72" xml:space="preserve">
  <g id="color">
    <circle fill="#FCEA2B" cx="35.3673" cy="35.4995" r="23"/>
    <circle fill="none" stroke="#FCEA2B" stroke-width="1.8" stroke-miterlimit="10" cx="35.3673" cy="35.4995" r="23"/>
    <polygon fill="#B1CC33" points="20.4439,57.9699 21.1749,60.4776 23.5076,62.0629 25.8008,63.5299 28.8267,63 30.855,63.5299 34.6268,62.5165 37.3761,63 39.8759,63 42.9758,63 45.0755,61.4197 48.6981,61.1257 50.1751,59.6198 51.0493,56.4334 51.1773,52.7547 47.6753,50.4205 46.7712,48.3206 46.3578,43.6798 42.5824,39.62 39.5259,38.5214 35.5316,37.6522 32.1764,38.4714 29.012,39.3055 26.5022,41.1972 24.879,43.35 23.9771,46.3708 24.6815,49.2206 23.8019,51.1816 22.4272,52.8703"/>
  </g>
  <g id="hair"/>
  <g id="skin"/>
  <g id="skin-shadow"/>
  <g id="line">
    <polyline fill="none" stroke="#000000" stroke-width="2" stroke-linecap="round" stroke-linejoin="round" stroke-miterlimit="10" points="24.8551,25.9121 31.4421,29.926 24.8551,33.6639"/>
    <polyline fill="none" stroke="#000000" stroke-width="2" stroke-linecap="round" stroke-linejoin="round" stroke-miterlimit="10" points="46.5195,25.9121 39.9325,29.926 46.5195,33.6639"/>
    <path fill="none" stroke="#000000" stroke-width="2" stroke-linecap="round" stroke-linejoin="round" stroke-miterlimit="10" d="M53.587,49.5382c2.9973-3.8841,4.7803-8.7533,4.7803-14.0387c0-12.7031-10.2978-23-23-23c-12.7031,0-23,10.2969-23,23 c0,5.9897,2.2896,11.4448,6.0414,15.5376"/>
    <path fill="none" stroke="#000000" stroke-width="2" stroke-linecap="round" stroke-linejoin="round" stroke-miterlimit="10" d="M42.7517,18.5701c0.5464,1.4632,1.6142,2.6709,2.9996,3.3911c1.3093,0.8663,2.8945,1.2106,4.4451,0.9702"/>
    <path fill="none" stroke="#000000" stroke-width="2" stroke-linecap="round" stroke-linejoin="round" stroke-miterlimit="10" d="M28.1906,18.5701c-0.5464,1.4632-1.6142,2.6709-2.9996,3.3911c-1.3093,0.8663-2.8945,1.2106-4.4451,0.9702"/>
    <path fill="none" stroke="#000000" stroke-width="2" stroke-linecap="round" stroke-linejoin="round" stroke-miterlimit="10" d="M24.6815,51.1816c-0.1313-0.2663-0.2489-0.5384-0.3522-0.8158c-0.3427-0.9206-0.5273-1.8993-0.5273-2.9141 c0-5.4121,5.2516-9.7995,11.7297-9.7995s11.7297,4.3874,11.7297,9.7995c0,1.169-0.245,2.2903-0.6945,3.3298"/>
    <path fill="none" stroke="#000000" stroke-width="2" stroke-linecap="round" stroke-linejoin="round" stroke-miterlimit="10" d="M28.6475,61.3189c-0.1766,1.2269-1.5709,2.211-2.8466,2.211c-1.3994,0-2.5339-1.1345-2.5339-2.5339"/>
    <path fill="none" stroke="#000000" stroke-width="2" stroke-linecap="round" stroke-linejoin="round" stroke-miterlimit="10" d="M22.9865,60.996c-1.3994,0-2.8699-0.8857-2.8699-2.2852c0-1.3994,1.1345-2.5339,2.5339-2.5339"/>
    <path fill="none" stroke="#000000" stroke-width="2" stroke-linecap="round" stroke-linejoin="round" stroke-miterlimit="10" d="M24.6815,51.1816c-1.3994,0-3.1362,1.3668-3.1362,2.7662c0,0.875,0.4435,1.6464,1.118,2.1017"/>
    <path fill="none" stroke="#000000" stroke-width="2" stroke-linecap="round" stroke-linejoin="round" stroke-miterlimit="10" d="M33.3457,61.4832c-0.2374,1.1437-1.4848,1.8519-2.7862,1.5818c-1.0769-0.2235-1.8532-1.0469-1.9545-1.9724"/>
    <path fill="none" stroke="#000000" stroke-width="2" stroke-linecap="round" stroke-linejoin="round" stroke-miterlimit="10" d="M38.5147,61.1935C38.2021,62.2384,37.2334,63,36.0867,63c-1.0988,0-2.2616-0.8964-2.6128-1.8743"/>
    <path fill="none" stroke="#000000" stroke-width="2" stroke-linecap="round" stroke-linejoin="round" stroke-miterlimit="10" d="M43.963,60.996c0,1.3994-1.1345,2.5339-2.5339,2.5339s-2.9144-0.937-2.9144-2.3364"/>
    <path fill="none" stroke="#000000" stroke-width="2" stroke-linecap="round" stroke-linejoin="round" stroke-miterlimit="10" d="M46.73,50.8182c2.4604,0,5.27,1.9103,5.27,3.6455c0,1.1754-0.9151,2.2-2.2701,2.7388"/>
    <path fill="none" stroke="#000000" stroke-width="2" stroke-linecap="round" stroke-linejoin="round" stroke-miterlimit="10" d="M49.811,57.5138c0.9617,2.8238-1.324,4.3492-3.0617,4.5752c-1.0209,0.1328-1.9915-0.2354-2.6644-0.9142"/>
  </g>
</svg>
