<svg version="1.1" id="emoji" xmlns="http://www.w3.org/2000/svg" x="0" y="0" viewBox="0 0 72 72" enable-background="new 0 0 72 72" xml:space="preserve">
  <g id="color">
    <circle fill="#FCEA2B" cx="40.4748" cy="32.5265" r="22.8242"/>
    <circle fill="none" stroke="#FCEA2B" stroke-width="1.8" stroke-miterlimit="10" cx="40.4748" cy="32.5265" r="22.8242"/>
    <path fill="#FFFFFF" d="M10.6492,43.5081c0,0,16.1561,1.2359,24.9516-9.8598c0.6645-0.8383,1.9857-2.2668,3.8806-0.9725 c0,0,9.3223,7.9456-10.9712,28.6664c0,0,0.0158-4.8296-2.3762-4.3161c-4.3887,0.9421-12.0961,4.156-17.8809,1.6287 C8.2531,58.6548,22.3798,52.318,10.6492,43.5081z"/>
  </g>
  <g id="hair"/>
  <g id="skin"/>
  <g id="skin-shadow"/>
  <g id="line">
    <path fill="none" stroke="#000000" stroke-width="2" stroke-linecap="round" stroke-linejoin="round" stroke-miterlimit="10" d="M54.4206,40.5019"/>
    <path fill="none" stroke="#000000" stroke-width="2" stroke-linecap="round" stroke-linejoin="round" stroke-miterlimit="10" d="M26.5795,40.5019"/>
    <polyline fill="none" stroke="#000000" stroke-width="2" stroke-linecap="round" stroke-linejoin="round" stroke-miterlimit="10" points="30.1384,23.9391 36.7254,27.9531 30.1384,31.691"/>
    <polyline fill="none" stroke="#000000" stroke-width="2" stroke-linecap="round" stroke-linejoin="round" stroke-miterlimit="10" points="51.8028,23.9391 45.2158,27.9531 51.8028,31.691"/>
    <path fill="none" stroke="#000000" stroke-width="2" stroke-linecap="round" stroke-linejoin="round" stroke-miterlimit="10" d="M39.7338,55.5086c0.3041,0.0119,0.6098,0.0179,0.9169,0.0179c12.7022,0,23-10.2978,23-23c0-12.7031-10.2978-23-23-23 c-12.7031,0-23,10.2969-23,23c0,1.914,0.2338,3.7733,0.6744,5.5511"/>
    <polyline fill="none" stroke="#000000" stroke-width="2" stroke-linecap="round" stroke-linejoin="round" stroke-miterlimit="10" points="39.58,46.5298 42.78,47.6198 45.73,42.7998 49.36,45.6498 51.42,43.2898"/>
    <path fill="none" stroke="#000000" stroke-width="2" stroke-linecap="round" stroke-linejoin="round" stroke-miterlimit="10" d="M10.6492,43.5081c0,0,16.1561,1.2359,24.9516-9.8598c0.6645-0.8383,1.9857-2.2668,3.8806-0.9725c0,0,9.3223,7.9456-10.9712,28.6664 c0,0,0.0158-4.8296-2.3762-4.3161c-4.3887,0.9421-12.0961,4.156-17.8809,1.6287C8.2531,58.6548,22.3798,52.318,10.6492,43.5081z"/>
  </g>
</svg>
