<?xml version="1.0" encoding="utf-8"?>
<!-- Generator: Adobe Illustrator 21.1.0, SVG Export Plug-In . SVG Version: 6.00 Build 0)  -->
<svg version="1.1" id="emoji" xmlns="http://www.w3.org/2000/svg" xmlns:xlink="http://www.w3.org/1999/xlink" x="0px" y="0px"
	 viewBox="0 0 72 72" enable-background="new 0 0 72 72" xml:space="preserve">
<g id="_xD83E__xDD2A__1_">
	<path fill="#FBEA2E" d="M36.2,13.3c-12.6,0-22.8,10.2-22.8,22.8c0,12.6,10.2,22.8,22.8,22.8C48.8,58.9,59,48.7,59,36.1
		C59,23.5,48.8,13.3,36.2,13.3z"/>
	<circle fill="none" stroke="#010101" stroke-width="2" stroke-miterlimit="10" cx="36" cy="36" r="23"/>
	<path fill="#FFFFFF" d="M31.8,31.5c0,2.5-2,4.5-4.5,4.5s-4.5-2-4.5-4.5c0-2.5,2-4.5,4.5-4.5S31.8,29,31.8,31.5"/>
	<path fill="none" stroke="#010101" stroke-width="2" stroke-miterlimit="10" d="M31.8,31.5c0,2.5-2,4.5-4.5,4.5s-4.5-2-4.5-4.5
		c0-2.5,2-4.5,4.5-4.5S31.8,29,31.8,31.5"/>
	<path fill="#010101" d="M28.3,32.5c0,1.1-0.9,2-2,2c-1.1,0-2-0.9-2-2c0-1.1,0.9-2,2-2C27.4,30.5,28.3,31.4,28.3,32.5"/>
	<path fill="#FFFFFF" d="M51,30.8c0,3.4-2.7,6.1-6.1,6.1c-3.4,0-6.1-2.7-6.1-6.1c0-3.4,2.7-6.1,6.1-6.1C48.3,24.7,51,27.5,51,30.8"
		/>
	<path fill="none" stroke="#010101" stroke-width="2" stroke-miterlimit="10" d="M51,30.8c0,3.4-2.7,6.1-6.1,6.1
		c-3.4,0-6.1-2.7-6.1-6.1c0-3.4,2.7-6.1,6.1-6.1C48.3,24.7,51,27.5,51,30.8"/>
	<path fill="#010101" d="M49,30.1c0,1.5-1.2,2.7-2.7,2.7c-1.5,0-2.7-1.2-2.7-2.7c0-1.5,1.2-2.7,2.7-2.7C47.8,27.4,49,28.6,49,30.1"
		/>
	<path fill="none" stroke="#010101" stroke-width="2" stroke-linecap="round" stroke-linejoin="round" stroke-miterlimit="10" d="
		M39.1,21.9c0.4-0.3,2.2-1.8,4.9-1.6c2.2,0.1,3.6,1.2,4.1,1.6"/>
	<path fill="none" stroke="#010101" stroke-width="2" stroke-linecap="round" stroke-linejoin="round" stroke-miterlimit="10" d="
		M22.8,23.7c0.4-0.3,2.2-1.8,4.9-1.6c2.2,0.1,3.6,1.2,4.1,1.6"/>
	<path fill="#FFFFFF" d="M44.5,44.3c-0.3,0.3-5,7.3-9.9,6.1c-4.5-1.2-5.5-8.9-5.7-9.4C34,42.1,39.2,43.2,44.5,44.3z"/>
	<path fill="none" stroke="#010101" stroke-width="2" stroke-linecap="round" stroke-linejoin="round" stroke-miterlimit="10" d="
		M44.5,44.3c-0.3,0.3-2.7,7.6-9.9,6.1c-6.4-1.4-5.5-8.9-5.7-9.4"/>
	<path fill="#E95946" d="M43.3,44.4c-1.3,5.9-4.6,10.3-7.4,9.6c-2.8-0.6-4-5.9-2.7-11.9"/>
	<path fill="none" stroke="#010101" stroke-width="2" stroke-linecap="round" stroke-linejoin="round" stroke-miterlimit="10" d="
		M28.8,41c5.2,1.1,10.4,2.2,15.6,3.3"/>
	<path fill="none" stroke="#1D1D1B" stroke-width="2" stroke-linecap="round" stroke-linejoin="round" stroke-miterlimit="10" d="
		M43.3,44.4c-1.3,5.9-4.6,10.3-7.4,9.6c-2.8-0.6-4-5.9-2.7-11.9"/>
</g>
</svg>
