<?xml version="1.0" encoding="utf-8"?>
<!-- Generator: Adobe Illustrator 21.1.0, SVG Export Plug-In . SVG Version: 6.00 Build 0)  -->
<svg version="1.1" id="emoji" xmlns="http://www.w3.org/2000/svg" xmlns:xlink="http://www.w3.org/1999/xlink" x="0px" y="0px"
	 viewBox="0 0 72 72" enable-background="new 0 0 72 72" xml:space="preserve">
<g>
	<g>
		<defs>
			<polygon id="SVGID_1_" points="35.4,12.5 26.7,14.2 21.4,17.2 16.5,22.3 13.1,29.6 13.1,42 18.7,51.4 26.7,56.8 35.4,58.5 
				42.5,57.3 50.3,53 55.4,46.9 58.4,37.6 57.6,29.7 53.8,21.8 49.6,17.4 42.3,13.6 			"/>
		</defs>
		<use xlink:href="#SVGID_1_"  overflow="visible" fill="#FCEA2B"/>
		<clipPath id="SVGID_2_">
			<use xlink:href="#SVGID_1_"  overflow="visible"/>
		</clipPath>
		<rect x="8.1" y="7.5" clip-path="url(#SVGID_2_)" fill="#FCEA2B" width="55.2" height="56"/>
	</g>
	<circle fill="none" stroke="#FCEA2B" stroke-width="2" stroke-miterlimit="10" cx="35.4" cy="35.5" r="23"/>
	<path fill="none" stroke="#20201F" stroke-width="2" stroke-linecap="round" stroke-linejoin="round" stroke-miterlimit="10" d="
		M49.4,43.5"/>
	<path fill="none" stroke="#20201F" stroke-width="2" stroke-linecap="round" stroke-linejoin="round" stroke-miterlimit="10" d="
		M21.4,43.5"/>
	
		<polyline fill="none" stroke="#000000" stroke-width="2" stroke-linecap="round" stroke-linejoin="round" stroke-miterlimit="10" points="
		24.9,25.9 31.4,29.9 24.9,33.7 	"/>
	
		<polyline fill="none" stroke="#000000" stroke-width="2" stroke-linecap="round" stroke-linejoin="round" stroke-miterlimit="10" points="
		46.5,25.9 39.9,29.9 46.5,33.7 	"/>
	<path fill="none" stroke="#000000" stroke-width="2" stroke-linecap="round" stroke-linejoin="round" stroke-miterlimit="10" d="
		M53.6,49.5c3-3.9,4.8-8.8,4.8-14c0-12.7-10.3-23-23-23c-12.7,0-23,10.3-23,23c0,6,2.3,11.4,6,15.5"/>
	<path fill="none" stroke="#000000" stroke-width="2" stroke-linecap="round" stroke-linejoin="round" stroke-miterlimit="10" d="
		M42.8,18.6c0.5,1.5,1.6,2.7,3,3.4c1.3,0.9,2.9,1.2,4.4,1"/>
	<path fill="none" stroke="#000000" stroke-width="2" stroke-linecap="round" stroke-linejoin="round" stroke-miterlimit="10" d="
		M28.2,18.6c-0.5,1.5-1.6,2.7-3,3.4c-1.3,0.9-2.9,1.2-4.4,1"/>
	<polygon fill="#B1CC33" points="20.4,58 21.2,60.5 23.5,62.1 25.8,63.5 28.8,63 30.9,63.5 34.6,62.5 37.4,63 39.9,63 43,63 
		45.1,61.4 48.7,61.1 50.2,59.6 51,56.4 51.2,52.8 47.7,50.4 46.8,48.3 46.4,43.7 42.6,39.6 39.5,38.5 35.5,37.7 32.2,38.5 29,39.3 
		26.5,41.2 24.9,43.4 24,46.4 24.7,49.2 23.8,51.2 22.4,52.9 	"/>
	<path fill="none" stroke="#000000" stroke-width="2" stroke-linecap="round" stroke-linejoin="round" stroke-miterlimit="10" d="
		M24.7,51.2c-0.1-0.3-0.2-0.5-0.4-0.8c-0.3-0.9-0.5-1.9-0.5-2.9c0-5.4,5.3-9.8,11.7-9.8s11.7,4.4,11.7,9.8c0,1.2-0.2,2.3-0.7,3.3"/>
	<path fill="none" stroke="#000000" stroke-width="2" stroke-linecap="round" stroke-linejoin="round" stroke-miterlimit="10" d="
		M28.6,61.3c-0.2,1.2-1.6,2.2-2.8,2.2c-1.4,0-2.5-1.1-2.5-2.5"/>
	<path fill="none" stroke="#000000" stroke-width="2" stroke-linecap="round" stroke-linejoin="round" stroke-miterlimit="10" d="
		M23,61c-1.4,0-2.9-0.9-2.9-2.3c0-1.4,1.1-2.5,2.5-2.5"/>
	<path fill="none" stroke="#000000" stroke-width="2" stroke-linecap="round" stroke-linejoin="round" stroke-miterlimit="10" d="
		M24.7,51.2c-1.4,0-3.1,1.4-3.1,2.8c0,0.9,0.4,1.6,1.1,2.1"/>
	<path fill="none" stroke="#000000" stroke-width="2" stroke-linecap="round" stroke-linejoin="round" stroke-miterlimit="10" d="
		M33.3,61.5c-0.2,1.1-1.5,1.9-2.8,1.6c-1.1-0.2-1.9-1-2-2"/>
	<path fill="none" stroke="#000000" stroke-width="2" stroke-linecap="round" stroke-linejoin="round" stroke-miterlimit="10" d="
		M38.5,61.2c-0.3,1-1.3,1.8-2.4,1.8c-1.1,0-2.3-0.9-2.6-1.9"/>
	<path fill="none" stroke="#000000" stroke-width="2" stroke-linecap="round" stroke-linejoin="round" stroke-miterlimit="10" d="
		M44,61c0,1.4-1.1,2.5-2.5,2.5s-2.9-0.9-2.9-2.3"/>
	<path fill="none" stroke="#000000" stroke-width="2" stroke-linecap="round" stroke-linejoin="round" stroke-miterlimit="10" d="
		M46.7,50.8c2.5,0,5.3,1.9,5.3,3.6c0,1.2-0.9,2.2-2.3,2.7"/>
	<path fill="none" stroke="#000000" stroke-width="2" stroke-linecap="round" stroke-linejoin="round" stroke-miterlimit="10" d="
		M49.8,57.5c1,2.8-1.3,4.3-3.1,4.6c-1,0.1-2-0.2-2.7-0.9"/>
</g>
</svg>
