<?xml version="1.0" encoding="utf-8"?>
<!-- Generator: Adobe Illustrator 21.1.0, SVG Export Plug-In . SVG Version: 6.00 Build 0)  -->
<svg version="1.1" id="emoji" xmlns="http://www.w3.org/2000/svg" xmlns:xlink="http://www.w3.org/1999/xlink" x="0px" y="0px"
	 viewBox="0 0 72 72" enable-background="new 0 0 72 72" xml:space="preserve">
<g id="_xD83E__xDD33__1_">
	<path fill="#B298C8" d="M4,70.7V53.2l22.8-0.9l16.7-17.9c1.1,2.3,7.7,6.2,10.1,6.5l-15,24.9C37.5,67.6,23.1,70.7,4,70.7z"/>
	<polyline fill="#92D2F3" points="64.2,27.9 64.2,5 49.7,5 49.6,26.4 	"/>
	<line fill="#FCEA2F" x1="60.5" y1="23.1" x2="64.2" y2="23.1"/>
	<path fill="#FCEA2F" d="M51.3,26.3c-0.2-0.9-0.7-1.8-1.4-2.4l0,0l0.6-0.8c0.3-0.4,1.2-0.4,2,0.1l0.4,0.2c0.8,0.4,1.9,0.3,2.3-0.4
		c0.5-0.7,0.1-1.6-0.7-2.1L51,18.3c-0.8-0.5-1.8-0.4-2.4,0.4l-2.9,3.9c-2,3.1,1,12.3-1,13.1c1.7,1.6,3.2,2.7,7.1,4.7
		c1.7-4.7,9.7-6.6,11.5-12.7"/>
	
		<line fill="none" stroke="#1D1D1B" stroke-width="2" stroke-linecap="round" stroke-linejoin="round" stroke-miterlimit="10" x1="4" y1="53.2" x2="4" y2="70.7"/>
	
		<line fill="none" stroke="#1D1D1B" stroke-width="2" stroke-linecap="round" stroke-linejoin="round" stroke-miterlimit="10" x1="26.8" y1="52.2" x2="4" y2="53.2"/>
	
		<line fill="none" stroke="#1D1D1B" stroke-width="2" stroke-linecap="round" stroke-linejoin="round" stroke-miterlimit="10" x1="53.5" y1="40.8" x2="38.5" y2="65.8"/>
	
		<line fill="none" stroke="#1D1D1B" stroke-width="2" stroke-linecap="round" stroke-linejoin="round" stroke-miterlimit="10" x1="43.4" y1="34.3" x2="26.8" y2="52.2"/>
	<path fill="none" stroke="#1D1D1B" stroke-width="2" stroke-linecap="round" stroke-linejoin="round" stroke-miterlimit="10" d="
		M38.5,65.8c-1,1.9-15.4,4.9-34.5,4.9"/>
	<path fill="none" stroke="#1D1D1B" stroke-width="2" stroke-linecap="round" stroke-linejoin="round" stroke-miterlimit="10" d="
		M43.4,34.3c1.1,2.3,7.7,6.2,10.1,6.5"/>
	<path fill="none" stroke="#010101" stroke-width="2" stroke-linecap="round" stroke-linejoin="round" d="M49.9,23.8l0.6-0.8
		c0.3-0.4,1.2-0.4,2,0.1l0.4,0.2c0.8,0.4,1.9,0.3,2.3-0.4c0.5-0.7,0.1-1.6-0.7-2.1L51,18.3c-0.8-0.5-1.8-0.4-2.4,0.4l-2.9,3.9"/>
	<path fill="none" stroke="#010101" stroke-width="2" stroke-linecap="round" stroke-linejoin="round" d="M51.3,26.3
		c-0.2-0.9-0.7-1.8-1.4-2.4"/>
	<path fill="none" stroke="#010101" stroke-width="2" stroke-linecap="round" stroke-linejoin="round" d="M45.6,22.5
		c-2,3.1,1,12.3-1,13.1"/>
	<path fill="none" stroke="#010101" stroke-width="2" stroke-linecap="round" stroke-linejoin="round" d="M63.3,27.7
		c-1.8,6.1-9.8,8-11.5,12.7"/>
	<path fill="#FCEA35" stroke="#010101" stroke-width="2" stroke-linecap="round" stroke-linejoin="round" d="M64.8,20.1
		c1.1,0.2,1.7,0.9,1.6,1.9c0,0.9-0.5,1.9-1.7,1.9c0,0-1.2,0-1.6,0c-0.2,0-0.3,0-0.5,0c-1.1-0.2-1.8-1.1-1.6-2.2
		c0.2-1.1,1.1-1.8,2.2-1.6C63.2,20,64.8,20.1,64.8,20.1z"/>
	<path fill="#FCEA35" stroke="#010101" stroke-width="2" stroke-linecap="round" stroke-linejoin="round" d="M64.9,16.2
		c1.1,0.2,1.7,0.9,1.6,1.9c0,0.9-0.5,1.9-1.7,1.9c0,0-1.2,0-1.6,0c-0.2,0-0.3,0-0.5,0c-1.1-0.2-1.8-1.1-1.6-2.2
		c0.2-1.1,1.1-1.8,2.2-1.6C63.3,16.2,64.9,16.2,64.9,16.2z"/>
	
		<line fill="none" stroke="#010101" stroke-width="2" stroke-linecap="round" stroke-linejoin="round" x1="63.3" y1="12.6" x2="63.3" y2="4"/>
	
		<line fill="none" stroke="#010101" stroke-width="2" stroke-linecap="round" stroke-linejoin="round" x1="50.6" y1="4" x2="63.3" y2="4"/>
	
		<line fill="none" stroke="#010101" stroke-width="2" stroke-linecap="round" stroke-linejoin="round" x1="50.6" y1="4" x2="50.6" y2="14.6"/>
</g>
</svg>
