<svg id="emoji" xmlns="http://www.w3.org/2000/svg" viewBox="0 0 72 72">
  
  <g id="color">
    <path fill="#92d3f5" d="M35.0359,50.9573c-3.3514,0.6469-6.5323,2.0356-9.4541,4.5483c-5.5187-1.7246-5.1931-8.9098-0.9663-19.6805
		l4.5164-1.1455C28.7706,42.8019,30.3749,48.6487,35.0359,50.9573z" stroke="none"></path>
    <path fill="#92d3f5" d="M54.7363,47.1351c0,0-1.4193-4.8441-1.8906-6.4043c-0.4712-1.5602-1.641-3.9508-4.1093-5.8043h0.1166
		c-1.0415,2.842-2.2128,5.288-3.5408,7.2562" stroke="none"></path>
    <path fill="#e27022" d="M40.6536,50.4989c-2.3394-0.2048-5.0554,0.0429-7.8517,0.8091
		c-7.2305,1.9814-12.2576,6.6797-11.2281,10.494c1.029,3.8141,7.7252,5.7661,14.9563,3.7847
		c5.1971-1.4242,9.2563-4.4929,10.7457-7.5227C42.1073,57.0539,40.1605,54.3988,40.6536,50.4989z" stroke="none"></path>
    <path fill="#a57939" d="M37.0112,5.5444H36.403c-10.662,0.072-13.8137,9.1852-13.2013,17.5008
		c0.6118,8.3156,5.0449,8.6202,5.0449,8.6202c7.1856,1.5858,10.6109,2.4438,19.3463-1.3634
		c1.1555-1.1618,2.3231-3.2142,2.6202-7.2568C50.8255,14.7296,47.6737,5.6164,37.0112,5.5444z" stroke="none"></path>
    <path fill="#fcea2b" stroke="none" stroke-width="2" stroke-linecap="round" stroke-linejoin="round" stroke-miterlimit="10" d="
		M45.7841,18.9705c-7.3556-0.2979-13.7002-8.0627-13.7002-8.0627l-0.001-0.0013c-2.3749,1.8821-3.9396,5.0951-3.9396,8.7426
		c0,5.799,3.9552,10.5001,8.834,10.5001c4.879,0,8.8341-4.7011,8.8341-10.5001c0-0.2281-0.0062-0.4546-0.0182-0.6791"></path>
    <path fill="none" stroke="#fcea2b" stroke-width="4" stroke-linecap="round" stroke-linejoin="round" stroke-miterlimit="10" d="
		M19.9134,59.5894c0.4496,0.2901,0.6421,3.5438,9.12,3.1549"></path>
  </g>
  <g id="hair">
  </g>
  <g id="skin">
    <path fill="#fcea2b" d="M54.3104,48.255l0.0006-0.0003c0,0-3.9331-11.2821-5.534-13.4018
		c-2.857-3.7827-7.2266,0.3118-7.2266,0.3118c-6.3461,4.5039-12.5558-0.3118-12.5558-0.3118s-4.0389,0.019-4.7087,2.0019
		c-1.3033,3.8596-7.2631,20.0109-7.2631,20.0109s-4.1339,8.8033,11.1717,6.7863l13.7594-8.1122
		c1.3312,1.6315,3.3555,2.6745,5.625,2.6745c4.0083,0,7.2574-3.249,7.2574-7.2571C54.8363,50.0013,54.6468,49.0908,54.3104,48.255z" stroke="none"></path>
    <path fill="#fcea2b" d="M41.5754,65.0199c-0.2884,0.0285-1.2082-0.1543-2.044-0.4062c0,0,0,0-0.3232-0.7627
			c-0.4307-1.0176,0.0449-2.1914,1.0615-2.6221c2.2149-0.9375,0.5252-0.3051,2.3885-0.9818c3.3086-1.2032,5.22-2.1762,5.22-2.1762
			c1.4705-0.7485,2.9947-2.6722,3.3871-4.2748c0,0,0.0218-0.0891-0.2301-1.3479c-0.2168-1.083,0.4853-2.1367,1.5683-2.3535
			c1.0889-0.2168,2.1367,0.4864,2.3535,1.5684c0.5124,2.5592,0.6346,6.8012,0.452,7.8839
			c-0.0231,0.1369-0.1635,0.3128-0.2044,0.3443c-2.4975,1.9276-7.4647,3.5946-11.1802,4.9446
			c-1.9053,0.6923-0.076-0.8209-2.1941,0.0766C41.5754,65.0199,41.5754,65.0199,41.5754,65.0199z" stroke="none"></path>
  </g>
  <g id="skin-shadow">
  </g>
  <g id="line">
    <path fill="none" stroke="#000000" stroke-width="2" stroke-linecap="round" stroke-linejoin="round" stroke-miterlimit="10" d="
		M39.2503,50.2592c0,0-12.5801,0.5886-16.5557,9.17"></path>
    <path fill="none" stroke="#000000" stroke-width="2" stroke-linecap="round" stroke-linejoin="round" stroke-miterlimit="10" d="
		M29.236,34.9309c0,0-0.9656,13.6674,6.1998,15.8365"></path>
    <line fill="none" stroke="#000000" stroke-width="2" stroke-linecap="round" stroke-linejoin="round" stroke-miterlimit="10" x1="24.6157" y1="56.4971" x2="23.0442" y2="52.5891"></line>
    <line fill="none" stroke="#000000" stroke-width="2" stroke-linecap="round" stroke-linejoin="round" stroke-miterlimit="10" x1="46.1611" y1="42.7398" x2="45.8114" y2="40.2032"></line>
    <path fill="none" stroke="#000000" stroke-width="2" stroke-linecap="round" stroke-linejoin="round" stroke-miterlimit="10" d="
		M45.7841,18.9705c-7.3556-0.2979-13.7002-8.0627-13.7002-8.0627l-0.001-0.0013c-2.3749,1.8821-3.9396,5.0951-3.9396,8.7426
		c0,5.799,3.9552,10.5001,8.834,10.5001c4.879,0,8.8341-4.7011,8.8341-10.5001c0-0.2281-0.0062-0.4546-0.0182-0.6791"></path>
    <path fill="none" stroke="#000000" stroke-width="2" stroke-linecap="round" stroke-linejoin="round" stroke-miterlimit="10" d="
		M46.9541,29.5361c1.0908-1.0969,2.2245-3.1449,2.5054-6.9619C50.0374,14.7226,47.0619,6.118,36.9944,6.05h-0.5742
		c-10.0674,0.068-13.043,8.6726-12.4651,16.5242c0.5779,7.8516,4.7639,8.218,4.7639,8.218"></path>
    <path fill="none" stroke="#000000" stroke-width="2" stroke-linecap="round" stroke-linejoin="round" stroke-miterlimit="10" d="
		M29.9357,63.652c-16.6632,2.7202-12.6715-6.7863-12.6715-6.7863s5.9595-16.1513,7.2632-20.0109
		c0.6696-1.9827,4.7086-2.0019,4.7086-2.0019s6.2092,4.8158,12.5558,0.3118c0,0,4.3693-4.0945,7.2262-0.3118
		c0.6918,0.916,1.8192,3.5429,2.8765,6.231"></path>
    <circle fill="none" stroke="#000000" stroke-width="2" stroke-linecap="round" stroke-linejoin="round" stroke-miterlimit="10" cx="47.8204" cy="50.9573" r="7.257"></circle>
    <path fill="none" stroke="#000000" stroke-width="2" stroke-linecap="round" stroke-linejoin="round" stroke-miterlimit="10" d="
		M40.4658,64.9149c8.909-2.032,13.9866-5.5255,13.9866-5.5255"></path>
    <circle cx="22.7132" cy="59.3311" r="1" fill="#000000" stroke="none"></circle>
  </g>
</svg>