<svg id="emoji" viewBox="0 0 72 72" xmlns="http://www.w3.org/2000/svg">
  <g id="color">
    <path fill="#3f3f3f" d="M55.8691,60.9583H16.1309a1.0006,1.0006,0,0,1-.9883-.8477C15.1,59.8294,14.126,53.1741,17.84,48.845c2.0079-2.3388,4.9629-3.5254,8.7832-3.5254a1.0006,1.0006,0,0,1,.5547.168c3.3164,2.2109,5.9541,3.5869,8.8223,3.6006,2.8682-.0137,5.5049-1.39,8.8223-3.6006a1.0006,1.0006,0,0,1,.5547-.168c3.8212,0,6.7763,1.1866,8.7832,3.5264,3.7138,4.3291,2.74,10.9834,2.6972,11.2646A1.0006,1.0006,0,0,1,55.8691,60.9583Z"/>
    <path fill="#fff" d="M46.3577,46.5128l.0025-.0138a.9189.9189,0,0,0-.0019-.1076.7117.7117,0,0,0-.1-.5066.9543.9543,0,0,0-.0493-.12l-.0059-.0059a1.0011,1.0011,0,0,0-.2189-.2184c-.0213-.0166-.036-.0423-.0583-.0569-.0088-.0057-.0206-.0067-.03-.0121a.9941.9941,0,0,0-.3324-.1325l-.0073-.0029a.9346.9346,0,0,0-.136.0022.7009.7009,0,0,0-.498.1082.9354.9354,0,0,0-.1.041C41.5048,47.6982,38.868,49.0742,36,49.0879c-2.8621-.0137-5.4951-1.3844-8.8014-3.587l-.0129-.0085-.008-.0051c-.0173-.0115-.0377-.0123-.0555-.0226a.7658.7658,0,0,0-.5419-.1266.9484.9484,0,0,0-.136-.0022l-.0072.0029a.9841.9841,0,0,0-.47.25,1.0019,1.0019,0,0,0-.1682.1681l-.0076.0075a.9631.9631,0,0,0-.062.1512.7244.7244,0,0,0-.0872.5172c.0025.0222-.0053.0428-.0012.065l.0015.0084.0031.0164c.2471,1.3512,2.46,12.3042,6.5851,14.2965a.9968.9968,0,0,0,.4346.1h6.64a.9968.9968,0,0,0,.4346-.1c4.1308-1.9949,6.3751-12.9741,6.6178-14.3017Z"/>
    <path fill="#000000" d="M40.2587,59.4671l-2.0665-3.1528a4.6535,4.6535,0,0,0,.3741-.3768c1.6455-2.0078.9228-5.9111.8349-6.35-.0012-.0063-.0057-.0108-.007-.017s.0008-.0127-.0008-.0191a.936.936,0,0,0-.0672-.1445,1.0025,1.0025,0,0,0-.0939-.2017.9654.9654,0,0,0-.1005-.1,1.21,1.21,0,0,0-.5311-.3,901.051,901.051,0,0,0-.3752-.0026c-.01.002-.0171.009-.0269.0112-.0041.001-.008-.0005-.0122,0a8.9047,8.9047,0,0,1-4.3721,0c-.0045-.0011-.0088.0005-.0133,0-.01-.0023-.0168-.0092-.0267-.0112a.982.982,0,0,0-.2222.0014,1.0029,1.0029,0,0,0-.15.0008,4.706,4.706,0,0,0-.3533.1366.9917.9917,0,0,0-.1933.176.943.943,0,0,0-.0856.0852.9859.9859,0,0,0-.1039.2226.9252.9252,0,0,0-.0585.1255c-.0013.0056.0007.0109-.0006.0165-.0016.0072-.0067.0123-.0082.02-.0879.4385-.8105,4.3418.835,6.35a4.69,4.69,0,0,0,.38.3733L31.7407,59.45a.9187.9187,0,0,0-.0479.9809.9985.9985,0,0,0,.8809.5273h6.852a.9983.9983,0,0,0,.8808-.5273A.89.89,0,0,0,40.2587,59.4671Z"/>
  </g>
  <g id="skin">
    <path fill="#fadcbc" d="M36.3219,44.2844c-.0683,0-.1377-.0009-.206-.0019C29.1559,44.137,23.651,36.5188,23.8424,27.3a23.6216,23.6216,0,0,1,1.2461-7.6026,1.0008,1.0008,0,0,1,.586-.5517.9908.9908,0,0,1,.8037.0585,25.3563,25.3563,0,0,0,20.4756-.0361,1,1,0,0,1,1.3769.7363,43.874,43.874,0,0,1,.7549,7.9336A19.7642,19.7642,0,0,1,45.2418,39.46,11.3165,11.3165,0,0,1,36.3219,44.2844Z"/>
  </g>
  <g id="hair">
    <path fill="#a57939" d="M53.3249,15.3362a5.9711,5.9711,0,0,0-5.045-3.5645,7.4488,7.4488,0,0,0-4.333,1.0547c-1.3886-1.5527-5.0312-5.0439-9.91-5.3-3.6953-.1963-7.2725,1.5147-10.6446,5.1358A7.2939,7.2939,0,0,1,16.75,15.0745a1,1,0,0,0-1.16,1.1562c.0693.3985.6377,3.3291,2.5078,4.6973a5.8245,5.8245,0,0,0-1.1963,3.0478,5.5141,5.5141,0,0,0,1.5869,4.1035c.6377,1.5121,4.087,9.2226,8.4045,10.0739.0282.0088.056.0161.0848.0223.0181.0032.0356.0113.0537.0142a.9953.9953,0,0,0,.1375.0108c.0073,0,.0144.0029.0217.0029a.9944.9944,0,0,0,.31-.0564c.03-.01.058-.0227.087-.0354a.9481.9481,0,0,0,.094-.0381c.0237-.0134.0369-.0361.0591-.0511a.9767.9767,0,0,0,.1784-.1547.9616.9616,0,0,0,.0881-.1051.9818.9818,0,0,0,.1027-.2058.9621.9621,0,0,0,.0466-.1316c.0051-.0221.0185-.04.0222-.0626a131.6715,131.6715,0,0,1-.0127-.3262,215.6587,215.6587,0,0,0-.1065-.3252A18.5416,18.5416,0,0,1,25.8424,27.32a25.05,25.05,0,0,1,.7451-5.8662,27.24,27.24,0,0,0,19.98.0273,36.13,36.13,0,0,1,.52,6.2774c0,.0045.0022.0085.0019.0131l-.0029.0132a19.2923,19.2923,0,0,1-1.4746,7.084c-.0059.0139-.0034.0285-.0088.0424a.9934.9934,0,0,0-.0452.219.5841.5841,0,0,0,.0171.3531.98.98,0,0,0,.0537.1887c.007.0155.0056.0321.0135.0474a.9412.9412,0,0,0,.09.1127,1.9119,1.9119,0,0,0,.4076.3482c.0144.0061.0294.0036.044.009a.9822.9822,0,0,0,.2089.0428,1.06,1.06,0,0,0,.1387.0283c.0156,0,.03-.006.046-.0067.03-.0013.0575-.0087.0871-.0127a.9871.9871,0,0,0,.2683-.0759c.0184-.0081.0384-.0067.0566-.016C58.49,30.2092,53.3844,15.5032,53.3249,15.3362Z"/>
  </g>
  <g id="line">
    <path fill="none" stroke="#000" stroke-linecap="round" stroke-linejoin="round" stroke-width="2" d="M48.0857,27.8051a43.3764,43.3764,0,0,0-.7382-7.7178h0a26.0907,26.0907,0,0,1-21.338,0A22.9285,22.9285,0,0,0,24.8424,27.32c-.1811,8.6818,4.8753,15.8284,11.2939,15.9622s11.7683-6.7957,11.9494-15.4775"/>
    <path fill="none" stroke="#000" stroke-linecap="round" stroke-linejoin="round" stroke-width="2" d="M46.53,35.26C57.3864,29.6537,52.39,15.6924,52.39,15.6924a4.9809,4.9809,0,0,0-4.1981-2.9241,6.7193,6.7193,0,0,0-4.4341,1.3884S34.6456,2.055,24.171,13.29a8.3451,8.3451,0,0,1-7.5966,2.7683s.7136,4.0878,3.1862,4.5277c0,0-3.9156,3.2042-.4165,6.9468,0,0,3.6874,8.9966,7.8474,9.6691"/>
    <path d="M42.1685,29.773a2,2,0,1,1-2-2,2.0007,2.0007,0,0,1,2,2"/>
    <path d="M34.1685,29.773a2,2,0,1,1-2-2,2.0007,2.0007,0,0,1,2,2"/>
    <path d="M36.1683,39.7754a7.6524,7.6524,0,0,1-3.4472-.8579,1,1,0,0,1,.8945-1.7891,5.3774,5.3774,0,0,0,5.1055,0,1,1,0,1,1,.8945,1.7891A7.6528,7.6528,0,0,1,36.1683,39.7754Z"/>
    <path fill="none" stroke="#000" stroke-linecap="round" stroke-linejoin="round" stroke-width="2" d="M33.5793,49.7846S32.3137,56.1022,36,56.1022s2.4207-6.3176,2.4207-6.3176"/>
    <path fill="none" stroke="#000" stroke-linecap="round" stroke-linejoin="round" stroke-width="2" d="M35.1083,56.1526l-2.534,3.8363c-3.8085-1.8495-5.9508-13.67-5.9508-13.67l-5.3557,7.3132,3.12,1.9425-1.0476,3.2834,9.3051,1.1306"/>
    <path fill="none" stroke="#000" stroke-linecap="round" stroke-linejoin="round" stroke-width="2" d="M36.8919,56.1526l2.5339,3.8363c3.8085-1.8495,5.9509-13.67,5.9509-13.67l5.3556,7.3132-3.12,1.9425L48.66,58.8583l-9.305,1.1306"/>
    <path fill="none" stroke="#000" stroke-linecap="round" stroke-linejoin="round" stroke-width="2" d="M16.1313,59.9586S14.0329,46.3192,26.6231,46.3192c3.3487,2.2326,6.2178,3.7754,9.4426,3.7688h-.1312c3.2248.0066,6.0938-1.5362,9.4427-3.7688,12.59,0,10.4918,13.6394,10.4918,13.6394"/>
  </g>
</svg>
