<?xml version="1.0" encoding="utf-8"?>
<!-- Generator: Adobe Illustrator 21.1.0, SVG Export Plug-In . SVG Version: 6.00 Build 0)  -->
<svg version="1.1" id="emoji" xmlns="http://www.w3.org/2000/svg" xmlns:xlink="http://www.w3.org/1999/xlink" x="0px" y="0px"
	 viewBox="0 0 72 72" enable-background="new 0 0 72 72" xml:space="preserve">
<g id="_xD83E__xDD38__1_">
	<circle fill="#FCEA2B" cx="34.3" cy="52" r="3"/>
	<g>
		<path fill="#FCEA2B" d="M23.7,47.1c-1.3,2-1,5.4-1,11.1c0,1.9,0.1,2.8,2.4,2.8c0,0-0.5-3.3,0-9.2c0.5-6,3.8-5.6,7.8-6.7
			s8,1.9,9.2,3.5c1.2,1.6,1,12.4,1,12.4c3.2,0,2.3-2.6,2.3-2.6c0,2.6,1.3-10.2-0.8-12.8C43.1,43.8,41,42,41,42l-2-2l1-7l6-9l5-14h-3
			l-7,12l-6,5l-2,1l-11-3l-11-5l-1,3l10,6l9,6l-2,7C26.7,43.4,25.3,44.5,23.7,47.1z"/>
	</g>
	<circle fill="none" stroke="#000000" stroke-width="2" stroke-miterlimit="10" cx="34.3" cy="52" r="3"/>
	<g>
		<path fill="none" stroke="#000000" stroke-width="2" stroke-linecap="round" stroke-linejoin="round" stroke-miterlimit="10" d="
			M26.3,48.1"/>
	</g>
	<g>
		<path fill="none" stroke="#000000" stroke-width="2" stroke-linecap="round" stroke-linejoin="round" stroke-miterlimit="10" d="
			M28,42l0.7-5c0.2-1.1-0.5-2.5-1.4-3.1l-5.7-3.8c-0.9-0.6-2.4-1.6-3.4-2.1L11.7,24c-0.9-0.6-1.5-1.7-1.2-2.5
			c0.3-0.8,1.3-1.1,2.3-0.7l7.4,3.3c1,0.5,2.7,1.1,3.8,1.4l7.1,1.9c1.1,0.3,2.4,0.3,2.9,0c0.5-0.3,1.7-1.1,2.5-1.8l2.9-2.4
			c0.8-0.7,2-2.1,2.5-3l5-8.5c0.6-1,1.7-1.7,2.5-1.7c0.8,0,1.2,0.8,0.8,1.9l-3.7,10.2c-0.4,1-1.2,2.6-1.8,3.5l-3.8,5.7
			c-0.6,0.9-1.2,2.6-1.4,3.6l-0.4,3c-0.2,1.1-0.1,2.4,0.2,3c0.3,0.5,0.5,1,0.5,1"/>
	</g>
	<path fill="none" stroke="#000000" stroke-width="2" stroke-linecap="round" stroke-linejoin="round" stroke-miterlimit="10" d="
		M25,60c0-4,0-6,0-8c0-3.4,1.8-5.5,4-6c4-1,6-1,10,0c2.2,0.5,4,2.7,4,6c0,2,0,5.1,0,8"/>
	<g>
		<path fill="none" stroke="#000000" stroke-width="2" stroke-linecap="round" stroke-linejoin="round" stroke-miterlimit="10" d="
			M46.2,48.1"/>
	</g>
</g>
</svg>
