<svg id="emoji" viewBox="0 0 72 72" xmlns="http://www.w3.org/2000/svg">
  <g id="color">
    <path fill="#3f3f3f" d="M55.8691,60.9583H16.1309a1.0006,1.0006,0,0,1-.9883-.8477C15.1,59.8294,14.126,53.1741,17.84,48.845c2.0079-2.3388,4.9629-3.5254,8.7832-3.5254a1.0006,1.0006,0,0,1,.5547.168c3.3164,2.2109,5.9541,3.5869,8.8223,3.6006,2.8682-.0137,5.5049-1.39,8.8223-3.6006a1.0006,1.0006,0,0,1,.5547-.168c3.8212,0,6.7763,1.1866,8.7832,3.5264,3.7138,4.3291,2.74,10.9834,2.6972,11.2646A1.0006,1.0006,0,0,1,55.8691,60.9583Z"/>
    <path fill="#fff" d="M46.3577,46.5128l.0025-.0138a.9189.9189,0,0,0-.0019-.1076.7117.7117,0,0,0-.1-.5066.9543.9543,0,0,0-.0493-.12l-.0059-.0059a1.0011,1.0011,0,0,0-.2189-.2184c-.0213-.0166-.036-.0423-.0583-.0569-.0088-.0057-.0206-.0067-.03-.0121a.9941.9941,0,0,0-.3324-.1325l-.0073-.0029a.9346.9346,0,0,0-.136.0022.7009.7009,0,0,0-.498.1082.9354.9354,0,0,0-.1.041C41.5048,47.6982,38.868,49.0742,36,49.0879c-2.8621-.0137-5.4951-1.3844-8.8014-3.587l-.0129-.0085-.008-.0051c-.0173-.0115-.0377-.0123-.0555-.0226a.7658.7658,0,0,0-.5419-.1266.9484.9484,0,0,0-.136-.0022l-.0072.0029a.9841.9841,0,0,0-.47.25,1.0019,1.0019,0,0,0-.1682.1681l-.0076.0075a.9631.9631,0,0,0-.062.1512.7244.7244,0,0,0-.0872.5172c.0025.0222-.0053.0428-.0012.065l.0015.0084.0031.0164c.2471,1.3512,2.46,12.3042,6.5851,14.2965a.9968.9968,0,0,0,.4346.1h6.64a.9968.9968,0,0,0,.4346-.1c4.1308-1.9949,6.3751-12.9741,6.6178-14.3017Z"/>
    <path d="M40.2587,59.4671l-2.0665-3.1528a4.6535,4.6535,0,0,0,.3741-.3768c1.6455-2.0078.9228-5.9111.8349-6.35-.0012-.0063-.0057-.0108-.007-.017s.0008-.0127-.0008-.0191a.936.936,0,0,0-.0672-.1445,1.0025,1.0025,0,0,0-.0939-.2017.9654.9654,0,0,0-.1005-.1,1.21,1.21,0,0,0-.5311-.3,901.051,901.051,0,0,0-.3752-.0026c-.01.002-.0171.009-.0269.0112-.0041.001-.008-.0005-.0122,0a8.9047,8.9047,0,0,1-4.3721,0c-.0045-.0011-.0088.0005-.0133,0-.01-.0023-.0168-.0092-.0267-.0112a.982.982,0,0,0-.2222.0014,1.0029,1.0029,0,0,0-.15.0008,4.706,4.706,0,0,0-.3533.1366.9917.9917,0,0,0-.1933.176.943.943,0,0,0-.0856.0852.9859.9859,0,0,0-.1039.2226.9252.9252,0,0,0-.0585.1255c-.0013.0056.0007.0109-.0006.0165-.0016.0072-.0067.0123-.0082.02-.0879.4385-.8105,4.3418.835,6.35a4.69,4.69,0,0,0,.38.3733L31.7407,59.45a.9187.9187,0,0,0-.0479.9809.9985.9985,0,0,0,.8809.5273h6.852a.9983.9983,0,0,0,.8808-.5273A.89.89,0,0,0,40.2587,59.4671Z"/>
  </g>
  <g id="skin">
    <path fill="#a57939" d="M36.0852,45.95c-6.7285,0-12-6.5889-12-15v-1c0-1.5537,2.2715-2.916,7.4082-5.85,3.3076-1.8887,7.0557-4.0293,8.8848-5.8574a1,1,0,0,1,1.414,0c4.0811,4.081,6.293,7.3154,6.293,12.707C48.0852,39.3608,42.8137,45.95,36.0852,45.95ZM26.0647,30.08Z"/>
  </g>
  <g id="hair">
    <path fill="#000000" d="M18.5333,48.1291a11.3479,11.3479,0,0,1,8.09-2.8095,1.0006,1.0006,0,0,1,.5547.168c3.3164,2.2109,5.9541,3.5869,8.8223,3.6006,2.8682-.0137,5.5049-1.39,8.8223-3.6006a1.0006,1.0006,0,0,1,.5547-.168,11.672,11.672,0,0,1,7.5209,2.3272l.3934-.6043A12.676,12.676,0,0,0,54.804,34.356c-.4209-.9825-.7862-1.793-1.1055-2.501-1.4932-3.3106-1.8945-4.2-2.2129-9.9053a9.1727,9.1727,0,0,0-7.9346-8.9521A12.17,12.17,0,0,0,35.0852,9.95c-7.0713,0-13.1016,4.0039-14.665,9.7373a20.4224,20.4224,0,0,0-.6485,6.7422,11.8684,11.8684,0,0,1-.6181,5.1562c-.2891.7393-.6123,1.4668-.9346,2.1944C16.551,37.5366,14.6614,41.7954,18,47.1157ZM24.0852,29.95c0-1.5537,2.2715-2.916,7.4082-5.85,3.3076-1.8887,7.0557-4.0293,8.8848-5.8574a1,1,0,0,1,1.414,0c4.0811,4.081,6.293,7.3154,6.293,12.707,0,8.4111-5.2715,15-12,15s-12-6.5889-12-15Z"/>
  </g>
  <g id="line">
    <path fill="none" stroke="#000" stroke-linecap="round" stroke-linejoin="round" stroke-width="2" d="M33.5793,49.7846S32.3137,56.1022,36,56.1022s2.4207-6.3176,2.4207-6.3176"/>
    <path fill="none" stroke="#000" stroke-linecap="round" stroke-linejoin="round" stroke-width="2" d="M35.1083,56.1526l-2.534,3.8363c-3.8085-1.8495-5.9508-13.67-5.9508-13.67l-5.3557,7.3132,3.12,1.9425-1.0476,3.2834,9.3051,1.1306"/>
    <path fill="none" stroke="#000" stroke-linecap="round" stroke-linejoin="round" stroke-width="2" d="M36.8919,56.1526l2.5339,3.8363c3.8085-1.8495,5.9509-13.67,5.9509-13.67l5.3556,7.3132-3.12,1.9425L48.66,58.8583l-9.305,1.1306"/>
    <path fill="none" stroke="#000" stroke-linecap="round" stroke-linejoin="round" stroke-width="2" d="M16.1313,59.9586S14.0329,46.3192,26.6231,46.3192c3.3487,2.2326,6.2178,3.7754,9.4426,3.7688h-.1312c3.2248.0066,6.0938-1.5362,9.4427-3.7688,12.59,0,10.4918,13.6394,10.4918,13.6394"/>
    <path fill="none" stroke="#000" stroke-linecap="round" stroke-linejoin="round" stroke-width="2" d="M17.9716,44.93c-2.1795-5.0232.4937-8.8394,2.1138-12.98,1.6-4.2-.2-6.5,1.3-12s7.3-9,13.7-9c5.4,0,8,3,8,3a8.1232,8.1232,0,0,1,7.4,8c.4,7.2,1,7.2,3.4,12.8a11.6408,11.6408,0,0,1-.41,10.1186"/>
    <path d="M42.0854,29.95a2,2,0,1,1-2-2,2.0059,2.0059,0,0,1,2,2"/>
    <path d="M34.0854,29.95a2,2,0,1,1-2-2,2.0059,2.0059,0,0,1,2,2"/>
    <path fill="none" stroke="#000" stroke-linejoin="round" stroke-width="2" d="M25.0854,30.95c0,8,5,14,11,14s11-6,11-14c0-5-2-8-6-12-4,4-16,9-16,11Z"/>
    <path fill="none" stroke="#000" stroke-linecap="round" stroke-linejoin="round" stroke-width="2" d="M33.0854,38.15a6.375,6.375,0,0,0,6,0"/>
  </g>
</svg>
