<?xml version="1.0" encoding="utf-8"?>
<!-- Generator: Adobe Illustrator 21.1.0, SVG Export Plug-In . SVG Version: 6.00 Build 0)  -->
<svg version="1.1" id="emoji" xmlns="http://www.w3.org/2000/svg" xmlns:xlink="http://www.w3.org/1999/xlink" x="0px" y="0px"
	 viewBox="0 0 72 72" enable-background="new 0 0 72 72" xml:space="preserve">
<g id="_xD83E__xDD30__1_">
	<g>
		<path fill="#9B9B9A" d="M47.3,49.5c-5-1.2-11.6,6.1-15.9,6.1l0.5,7.5l1.1,4.9h9l1-4.2l4.6-9.3C48.1,52.8,48.1,51,47.3,49.5z"/>
	</g>
	<path fill="#3F3F3F" d="M41.3,51.7c0.7,2.7-2.7,9.9-2.8,16.3h3.4c0,0,0.3-3.2,1-4.2c0.7-1.1,4.1-9.3,4.1-9.3s1.7-4,0.1-4.9
		C46.5,49.4,42.6,50.7,41.3,51.7z"/>
	<path fill="#92D2F4" d="M44.3,43.5c-0.5-1.1-0.6-2.4-0.3-3.6c0.9-3.1,2.4-9.1,2.5-10.6c0.1-2.1-3.2-4.4-3.2-4.4s-5.7-5.8-13.1,12.6
		l-3.4,3.1c-1.2,1.5-2.2,3.3-2.6,5.2c-0.3,1.5-0.3,2.8,0,4c0.5,2,1.9,3.3,3.3,4.3c2.4,1.5,5.1,2.7,5.1,2.7c7.4-1.2,6.3-6.1,14.5-7.3
		L44.3,43.5z"/>
	<path fill="#61B2E4" d="M42.2,24.4l-2.8,17.1l2,10.1c0,0,3.3-1.9,5.8-2.2l-3.4-8.3l2.3-12.4L42.2,24.4z"/>
	
		<ellipse transform="matrix(0.8973 -0.4414 0.4414 0.8973 -2.7157 17.7229)" fill="#FCEA2C" cx="36.7" cy="14.7" rx="5.9" ry="7.4"/>
	<path fill="none" stroke="#000000" stroke-width="2" stroke-linecap="round" stroke-linejoin="round" stroke-miterlimit="10" d="
		M32.3,56c0,0-2.7-0.4-5.1-1.9c-1.5-0.9-2.8-2.3-3.3-4.3c-0.3-1.1-0.4-2.4,0-4c0.2-0.8,0.5-1.6,0.8-2.4c0.7-1.5,1.7-2.8,2.9-3.9
		l2.3-2.1c7.4-18.5,13.1-12.6,13.1-12.6s3.3,2.3,3.2,4.4c-0.1,1.5-1.6,7.6-2.5,10.6c-0.3,1.2-0.2,2.4,0.3,3.6l2.9,6
		c0.7,1.6,0.8,3.3,0.2,4.9l-4.6,9.3L42,67"/>
	
		<line fill="none" stroke="#000000" stroke-width="2" stroke-linecap="round" stroke-linejoin="round" stroke-miterlimit="10" x1="32.9" y1="67" x2="32.6" y2="59.2"/>
	<path fill="none" stroke="#FCEA2C" stroke-width="4" stroke-linecap="round" stroke-linejoin="round" stroke-miterlimit="10" d="
		M39.3,30.5c0,0-0.2,5.3-1.6,10.7c-0.3,1.2-0.5,2.5-1.2,3.7c-1,1.5-3.3,3.2-6.9,3.6"/>
	<g id="XMLID_75_">
		<g>
			<path fill="#A37838" d="M41.9,13.4L41.9,13.4c-9.4,1.8-10-4.7-10-5c0.7-0.8,1.5-1.5,2.5-1.8c0,0,8.1-3.6,11.3,4
				c2.7,6.4,2.4,11.1,2.2,12.5c0,0.2-0.2,0.3-0.4,0.2c-1.2-0.4-5.3-2-5.8-3.6L41.9,13.4z"/>
		</g>
		<g>
			<path fill="none" stroke="#000000" stroke-width="2" stroke-linecap="round" stroke-linejoin="round" stroke-miterlimit="10" d="
				M38.6,20.8c-3.1,0.6-6.4-1.6-7.6-5.2c-0.9-2.7-0.5-5.4,1-7.2c0.7-0.8,1.5-1.5,2.5-1.8"/>
			<path fill="none" stroke="#000000" stroke-width="2" stroke-linecap="round" stroke-linejoin="round" stroke-miterlimit="10" d="
				M31.9,8.4C31.9,8.4,31.9,8.4,31.9,8.4c0,0.4,0.6,6.9,10,5.1"/>
			<path fill="none" stroke="#000000" stroke-width="2" stroke-linecap="round" stroke-linejoin="round" stroke-miterlimit="10" d="
				M34.5,6.5c0,0,8.1-3.6,11.3,4c2.7,6.4,2.4,11.1,2.2,12.5c0,0.2-0.2,0.3-0.4,0.2c-1.2-0.4-5.3-2-5.8-3.6l0.1-6.2v0"/>
		</g>
	</g>
	<path fill="none" stroke="#1D1D1B" stroke-width="2" stroke-linecap="round" stroke-linejoin="round" stroke-miterlimit="10" d="
		M32.3,56"/>
	
		<polyline fill="none" stroke="#E95947" stroke-width="2" stroke-linecap="round" stroke-linejoin="round" stroke-miterlimit="10" points="
		21.5,33.6 23.1,35.8 24.8,33.6 	"/>
	<path fill="none" stroke="#000000" stroke-width="2" stroke-linecap="round" stroke-linejoin="round" stroke-miterlimit="10" d="
		M40.5,30.3c0,0,0.4,7.9-2,14c-1.5,3.3-3.3,6.2-9.7,5.3"/>
</g>
</svg>
