<?xml version="1.0" encoding="utf-8"?>
<!-- Generator: Adobe Illustrator 21.1.0, SVG Export Plug-In . SVG Version: 6.00 Build 0)  -->
<svg version="1.1" id="emoji" xmlns="http://www.w3.org/2000/svg" xmlns:xlink="http://www.w3.org/1999/xlink" x="0px" y="0px"
	 viewBox="0 0 72 72" enable-background="new 0 0 72 72" xml:space="preserve">
<g id="_xD83E__xDD34__1_">
	<path fill="#F2ADC1" d="M54.6,58.9c0,0,2-13.8-10-13.8c-3.2,2.1-5.9,3.6-9,3.6h0.1c-3.1,0-5.8-1.5-9-3.6c-12,0-10,13.8-10,13.8"/>
	<polygon fill="#FFFFFF" points="35.8,57.7 32.9,52.6 30,47.6 35.8,47.6 41.6,47.6 38.7,52.6 	"/>
	<ellipse fill="#FCEA2C" cx="36" cy="28.6" rx="11.3" ry="14.2"/>
	<path fill="none" d="M47.6,27.8c0-1.2-0.1-2.3-0.3-3.4c-0.8-4-2.9-7.4-5.8-9.2c-1.6-1-3.3-1.6-5.2-1.6c-6.3,0-11.3,6.3-11.3,14.2
		C24.9,35.6,30,42,36.3,42C42.5,42,47.6,35.6,47.6,27.8z"/>
	<path fill="#F4AA42" d="M42.1,15.2c4.2,0.2,5.5,3.9,5.2,9.2l0,0c-2.7,2-7.3-6-7.3-6L42.1,15.2z"/>
	<path fill="#A37838" d="M24.9,21"/>
	<path fill="#F4AA42" d="M40.7,19.1c0,0,1.8-0.3,3.6-3.5c1.8-3.2-4.6-9.3-13.4-5.6c-2.1,0.9-4,2.7-5.6,4.3c0,0-2.2,3.3-3.3,4.9
		c0,0-1.7-0.3-3.3-1.8c0,0-0.4,6.6,7.6,7.6c0,0,2.9,0,6.2-2.8"/>
	<ellipse fill="#F4AA42" cx="34.1" cy="19.2" rx="6.5" ry="2.4"/>
	<path fill="none" d="M39.4,18.4c0-0.5-3.3,6.2-13.9,2.8"/>
	<path fill="#000100" d="M41.9,27c0,1.1-0.9,2-2,2s-2-0.9-2-2c0-1.1,0.9-2,2-2S41.9,25.9,41.9,27"/>
	<path fill="#000100" d="M33.9,27c0,1.1-0.9,2-2,2s-2-0.9-2-2c0-1.1,0.9-2,2-2S33.9,25.9,33.9,27"/>
	<path fill="#000100" d="M35.9,37c-1.2,0-2.3-0.3-3.4-0.9c-0.5-0.2-0.7-0.8-0.4-1.3c0.2-0.5,0.8-0.7,1.3-0.4c1.7,0.9,3.4,0.9,5.1,0
		c0.5-0.2,1.1,0,1.3,0.4c0.2,0.5,0,1.1-0.4,1.3C38.2,36.7,37,37,35.9,37z"/>
	<path fill="none" stroke="#000000" stroke-width="2" stroke-miterlimit="10" d="M24.9,24.7c-0.2,1.2-0.4,2.4-0.4,3.6
		c0,7.8,5.1,14.2,11.3,14.2c6.3,0,11.3-6.3,11.3-14.2c0-1.2-0.1-2.3-0.3-3.4"/>
	<path fill="none" stroke="#000000" stroke-width="2" stroke-linecap="round" stroke-linejoin="round" stroke-miterlimit="10" d="
		M16.8,57.9c0,0-2-13,10-13c3.2,2.1,5.9,3.6,9,3.6h-0.1c3.1,0,5.8-1.5,9-3.6c12,0,10,13,10,13"/>
	
		<polygon fill="#FCEA2C" stroke="#000000" stroke-width="2" stroke-linecap="round" stroke-linejoin="round" stroke-miterlimit="10" points="
		31.5,16.6 31.5,6.9 34.6,9.5 36,6 37.5,9.4 40.3,6.9 40.3,16.6 	"/>
	
		<path fill="#D98195" stroke="#000000" stroke-width="2" stroke-linecap="round" stroke-linejoin="round" stroke-miterlimit="10" d="
		M26.7,45.5c0,0,8.4,8.1,9.2,12.7l0,0l-1.2,0c-8,0-5.1-4.7-5.1-4.7c-8.8,0-2.8-8.3-2.8-8.3"/>
	
		<path fill="#D98195" stroke="#000000" stroke-width="2" stroke-linecap="round" stroke-linejoin="round" stroke-miterlimit="10" d="
		M44.9,45.5c0,0-8.4,8.1-9.2,12.7l0,0l1.2,0c8,0,5.1-4.7,5.1-4.7c8.8,0,2.8-8.3,2.8-8.3"/>
	<path fill="none" stroke="#000000" stroke-width="2" stroke-linecap="round" stroke-linejoin="round" stroke-miterlimit="10" d="
		M44.2,15.8c2.6,2,4.1,5.5,4.1,8.4l0,0c-2.7,2-6.7-4.9-6.7-4.9L44.2,15.8z"/>
	<path fill="none" stroke="#000000" stroke-width="2" stroke-linecap="round" stroke-linejoin="round" stroke-miterlimit="10" d="
		M48,24.2"/>
	
		<path fill="#A37838" stroke="#1D1D1B" stroke-width="2" stroke-linecap="round" stroke-linejoin="round" stroke-miterlimit="10" d="
		M25.9,20.7"/>
	<path fill="none" stroke="#000000" stroke-width="2" stroke-linecap="round" stroke-linejoin="round" stroke-miterlimit="10" d="
		M28.7,12.3c-1.1,0.7-2.2,1.6-3.2,2.5c0,0-2.8,2.4-3.9,4c0,0-1.7-0.3-3.3-1.8c0,0-0.4,6.6,7.6,7.6c0,0,2.9,0.3,6.2-2.5"/>
	<path fill="none" stroke="#000000" stroke-width="2" stroke-linecap="round" stroke-linejoin="round" stroke-miterlimit="10" d="
		M41.8,19c0-0.5-4.7,5.3-15.3,2"/>
	<path fill="none" stroke="#000000" stroke-width="2" stroke-linecap="round" stroke-linejoin="round" stroke-miterlimit="10" d="
		M44.2,15.8c0,0,0.8-1.7-1.1-3.5"/>
</g>
</svg>
