<?xml version="1.0" encoding="utf-8"?>
<!-- Generator: Adobe Illustrator 19.1.0, SVG Export Plug-In . SVG Version: 6.00 Build 0)  -->
<svg version="1.1" id="emoji" xmlns="http://www.w3.org/2000/svg" xmlns:xlink="http://www.w3.org/1999/xlink" x="0px" y="0px"
	 viewBox="0 0 72 72" enable-background="new 0 0 72 72" xml:space="preserve">
<g id="_xD83E__xDD40_">
	<path fill="none" stroke="#9B971E" stroke-width="2" stroke-linecap="round" stroke-linejoin="round" stroke-miterlimit="10" d="
		M38.9,38"/>
	<path fill="none" stroke="#9B971E" stroke-width="2" stroke-linecap="round" stroke-linejoin="round" stroke-miterlimit="10" d="
		M39.6,34.9"/>
	<path fill="none" stroke="#1E1E1D" stroke-width="2" stroke-linecap="round" stroke-linejoin="round" stroke-miterlimit="10" d="
		M50.3,30.4"/>
	<path fill="#D22F27" d="M35.9,25.7c-2-0.8-4-1.3-5.7-0.8c-1.8,0.6-3.1,2.1-3.5,3.7c-0.5,1.7-0.1,3.7,1.3,5.2
		c1.2,1.3,3.3,1.7,5.3,2.3l1.8-5.3L35.9,25.7z"/>
	<g>
		<path fill="#EA5A47" d="M55.8,37.2c2.2-1,3.3-5.1,2-7.2c-1.3-2.1-5-3.8-7.2-2.8"/>
		<path fill="#EA5A47" d="M43.5,42.9c-4.3,3.4-9.1,0-10.3-2.1c-1.8-3.1,0-7.6,2.4-9.1"/>
		<path fill="#EA5A47" d="M35.6,31.7c-1.2-4.1,1.1-8.5,5.2-9.7s8.5,1.1,9.7,5.2l5.2,10c1.6,3.4,0.1,7.4-3.3,9
			c-3.4,1.6-7.4,0.1-9-3.3"/>
	</g>
	<path fill="#EA5A47" d="M44.1,39.5c-1.2-1.2-0.6-3.6,1.2-5.4c1.8-1.8,4.2-2.4,5.4-1.2"/>
	<path fill="#D22F27" d="M36.5,35.1c-0.1-0.8,0.2-1.8,0.7-2.6c0.6-1,1.4-2,2.3-2.7c1.7-1.3,3.7-1.9,5.7-2c1.9,0,3.7,0.5,5.3,1.5
		c0,0,0,0,0.1,0.1c0.3,0.2,1.6,1.4,1.4,3.4c-0.1,0.9-0.5,1.7-1,2.5c-0.7,1-1.6,1.8-2.7,2.3c-1.9,1-4,1.4-5.9,1.1
		c-1.9-0.2-3.6-1-5-2.3"/>
	<g>
		<path fill="#EA5A47" d="M50.2,32.8C49,31.7,46.9,32.3,45,34s-2.6,4.2-1.5,5.4l0.2,0.2c1.2,1.1,3.6,0.6,5.5-1.2
			C51.1,36.6,51.3,34,50.2,32.8"/>
	</g>
	<g>
		<path fill="#D22F27" d="M45.6,34.3c1.4,0.6,2,2.5,1.3,4.3c-0.4,0.9-1.1,1.6-2,2.1c-1.4,0.7-3,0.4-4.1-0.7
			c-0.2-0.2-0.3-0.3-0.4-0.5"/>
		<path fill="#D22F27" d="M46.3,35c-0.6-1.4-2.5-2-4.3-1.3c-0.9,0.4-1.6,1.1-2.1,2c-0.7,1.4-0.4,3,0.7,4.1c0.2,0.2,0.3,0.3,0.5,0.4"
			/>
	</g>
	<path fill="#B1CC33" d="M10.4,37.4c1.5-3.2,5.7-4.4,5.7-4.4s1.6,4,0.1,7.2c-1.5,3.2-5.7,4.4-5.7,4.4S8.8,40.6,10.4,37.4z"/>
	<path fill="#EA5A47" d="M43.6,54.9c-0.2,1-1.5,1.6-2.9,1.3c-1.4-0.3-2.4-1.3-2.2-2.3l1.4-2.6c0.9-1.5,0.9-1.5,1.9-1.3L42,50
		c1,0.2,1,0.2,1.3,1.9L43.6,54.9"/>
	<path fill="none" stroke="#BAB63E" stroke-width="2" stroke-linecap="round" stroke-linejoin="round" d="M23.1,31.6"/>
	<path fill="none" stroke="#000000" stroke-width="2" stroke-linecap="round" stroke-linejoin="round" stroke-miterlimit="10" d="
		M55.2,36.8c2.2-1,3.1-4.6,1.8-6.7c-1.3-2.1-4.8-4.2-7-3.2"/>
	<path fill="none" stroke="#000000" stroke-width="2" stroke-linecap="round" stroke-linejoin="round" stroke-miterlimit="10" d="
		M38.5,31.2c1.7-1.7,3.9-2.6,6.2-2.6c2.2,0,4.5,0.9,6.2,2.6"/>
	<path fill="none" stroke="#000000" stroke-width="2" stroke-linecap="round" stroke-linejoin="round" stroke-miterlimit="10" d="
		M43,42.5c-4.3,3.4-9.1,0.1-9.9-1.9c-1.3-3.3-0.4-7.8,2.1-9.2"/>
	<path fill="none" stroke="#000000" stroke-width="2" stroke-linecap="round" stroke-linejoin="round" stroke-miterlimit="10" d="
		M49.3,33.4c1.2,1.2,0.9,3.3-0.5,4.7c-1.4,1.4-3.5,1.7-4.7,0.5"/>
	<path fill="none" stroke="#000000" stroke-width="2" stroke-linecap="round" stroke-linejoin="round" stroke-miterlimit="10" d="
		M41.1,38.5c-0.8-0.8-0.7-2.3,0.4-3.3c0.5-0.5,1.3-0.8,2-0.8c1.1,0,2.2,0.6,2.6,1.7c0.1,0.2,0.1,0.3,0.1,0.5"/>
	<path fill="none" stroke="#000000" stroke-width="2" stroke-linecap="round" stroke-linejoin="round" stroke-miterlimit="10" d="
		M43.6,54.9c-0.2,1-1.5,1.6-2.9,1.3c-1.4-0.3-2.4-1.3-2.2-2.3l1.4-2.6c0.9-1.5,0.9-1.5,1.9-1.3L42,50c1,0.2,1,0.2,1.3,1.9L43.6,54.9
		"/>
	<path fill="none" stroke="#000000" stroke-width="2" stroke-linecap="round" stroke-linejoin="round" stroke-miterlimit="10" d="
		M30,34.2c-2.3-0.7-3.7-3.1-3-5.4c0.7-2.3,3.1-3.7,5.4-3"/>
	<path fill="none" stroke="#000000" stroke-width="2" stroke-linecap="round" stroke-linejoin="round" stroke-miterlimit="10" d="
		M55.2,36.8c1.6,3.4,0.1,7.4-3.3,9c-3.4,1.6-7.4,0.1-9-3.3"/>
	<path fill="none" stroke="#000000" stroke-width="2" stroke-linecap="round" stroke-linejoin="round" stroke-miterlimit="10" d="
		M50,26.8c-1.2-4.1-5.6-6.5-9.7-5.2c-4.1,1.2-6.5,5.6-5.2,9.7"/>
	<path fill="none" stroke="#000000" stroke-width="2" stroke-linecap="round" stroke-linejoin="round" d="M10.4,37.4
		c1.5-3.2,5.7-4.4,5.7-4.4s1.6,4,0.1,7.2c-1.5,3.2-5.7,4.4-5.7,4.4S8.8,40.6,10.4,37.4z"/>
	<path fill="none" stroke="#000000" stroke-width="2" stroke-linecap="round" stroke-linejoin="round" d="M40.4,17.1
		c-2.6-6.4-10-9.4-16.3-6.8s-9.4,10-6.8,16.3c0,0,10.7,22.2,9.7,32.2"/>
</g>
</svg>
