<?xml version="1.0" encoding="utf-8"?>
<!-- Generator: Adobe Illustrator 19.1.0, SVG Export Plug-In . SVG Version: 6.00 Build 0)  -->
<svg version="1.1" id="emoji" xmlns="http://www.w3.org/2000/svg" xmlns:xlink="http://www.w3.org/1999/xlink" x="0px" y="0px"
	 viewBox="0 0 72 72" enable-background="new 0 0 72 72" xml:space="preserve">
<g id="_xD83E__xDD4B_">
	<g>
		<g>
			<path fill="#D0CFCE" d="M43.9,13c0,0,6.1,1,8,2.8s3.4,7.2,3.4,7.2l7.1,23l0,0c-4.9-1-8.7,1.9-8.7,1.9l-6.1-19.7l-0.5,19.2l4.7,16
				c0,0-2.2,0.8-3.9,1.2"/>
			<path fill="#D0CFCE" d="M41.8,7.7"/>
			<g>
				<path fill="#D0CFCE" d="M43.9,13l-2.1-5.4c-0.1-0.3-0.5-0.5-1.2-0.5h-4.5h0h-4.5c-0.8,0-1.1,0.2-1.2,0.5L28.3,13
					c0,0-6.3,0.7-8.2,2.5s-3.4,7.2-3.4,7.2l-7.1,23l0,0l0,0l0,0c4.9-1,8.7,1.9,8.7,1.9v0l6.1-19.7l0.5,19.2l-4,13.7
					c1.8,2,4.5,1.1,4.5,1.1V65C36,66.7,43.7,65.7,48,64.6"/>
			</g>
		</g>
		<polygon fill="#9B9B9A" points="30.9,7.9 41.6,7.9 36,17 		"/>
		<rect x="25.2" y="42.2" fill="#3F3F3F" width="22" height="3.7"/>
		<path fill="#3F3F3F" d="M33.8,22l-5-8.8l1.9-4.4l5.6,8.6l5.3-8.6l1.5,3.6v1.4c-7.1,9.2-12,28.6-12,28.6l-4.3-0.3
			C26.9,42.2,29.9,29.9,33.8,22z"/>
	</g>
	<g>
		<path fill="none" stroke="#000000" stroke-width="2" stroke-linecap="round" stroke-linejoin="round" stroke-miterlimit="10" d="
			M28.3,12.9c0,0-6.3,0.7-8.2,2.4s-3.4,7.1-3.4,7.1L9.5,45l0,0l0,0l0,0c4.9-1,8.7,1.8,8.7,1.8v0l6.1-19.3l0.5,18.9l-4.2,14
			c1.8,2,4.7,1.4,4.7,1.4V64C36,65.7,43.7,64.6,48,63.6"/>
		<path fill="none" stroke="#000000" stroke-width="2" stroke-linecap="round" stroke-linejoin="round" stroke-miterlimit="10" d="
			M43.9,12.9c0,0,6.1,1,8,2.7s3.4,7.1,3.4,7.1l7.1,22.6l0,0c-4.9-1-8.7,1.8-8.7,1.8l-6.1-19.3l-0.5,18.9l4.7,15.7"/>
		<path fill="none" stroke="#000000" stroke-width="2" stroke-linecap="round" stroke-linejoin="round" stroke-miterlimit="10" d="
			M36.1,17.5c-2.7-4.9-4.9-7.8-5.5-8.6c0,0-1.1-1.8,1-1.8h4.5h0h4.5c2.1,0,1,1.8,1,1.8c-1.1,1.7-10.4,13.6-14.7,33.5"/>
		<path fill="none" stroke="#000000" stroke-width="2" stroke-linecap="round" stroke-linejoin="round" stroke-miterlimit="10" d="
			M30.9,42.7c4.1-17.8,12-28.1,13-29.8l-2.1-5.3"/>
		<path fill="none" stroke="#000000" stroke-width="2" stroke-linecap="round" stroke-linejoin="round" stroke-miterlimit="10" d="
			M33.8,22c-2.7-5.2-5-8.3-5.5-9.1"/>
		<g>
			
				<line fill="none" stroke="#000000" stroke-width="2" stroke-linecap="round" stroke-linejoin="round" stroke-miterlimit="10" x1="28.3" y1="12.9" x2="30.4" y2="7.7"/>
		</g>
		<g>
			<path fill="none" stroke="#000000" stroke-width="2" stroke-linecap="round" stroke-linejoin="round" stroke-miterlimit="10" d="
				M47.3,42.2c-9.9,0.9-17.8,0.7-22.6,0"/>
		</g>
		<g>
			<path fill="none" stroke="#000000" stroke-width="2" stroke-linecap="round" stroke-linejoin="round" stroke-miterlimit="10" d="
				M47.2,46.3c-9.8,0.9-17.6,0.7-22.4,0"/>
		</g>
	</g>
</g>
</svg>
