<?xml version="1.0" encoding="utf-8"?>
<!-- Generator: Adobe Illustrator 21.1.0, SVG Export Plug-In . SVG Version: 6.00 Build 0)  -->
<svg version="1.1" id="emoji" xmlns="http://www.w3.org/2000/svg" xmlns:xlink="http://www.w3.org/1999/xlink" x="0px" y="0px"
	 viewBox="0 0 72 72" enable-background="new 0 0 72 72" xml:space="preserve">
<g id="_xD83E__xDD41_">
	<path fill="none" stroke="#000000" stroke-width="2" stroke-linecap="round" stroke-linejoin="round" stroke-miterlimit="10" d="
		M45.9,24.7"/>
	<path fill="#EA5A47" d="M58.8,59.1V37.2H13v21.8H58.8z"/>
	<path fill="#A47938" d="M23.9,30.3c0.3,0.4,0.7,0.6,1.2,0.7c0.5,0.1,1-0.1,1.3-0.3c0,0,0,0,0,0c0.8-0.6,1-1.7,0.4-2.5
		c-0.4-0.5-0.9-0.7-1.4-0.7c-0.4,0-0.8,0.1-1.1,0.4C23.5,28.3,23.3,29.5,23.9,30.3z"/>
	<path fill="#A47938" d="M46.5,30.5c0.7-0.9,0.5-2.1-0.3-2.8c-0.4-0.3-0.8-0.4-1.2-0.4c-0.6,0-1.2,0.3-1.6,0.8
		c-0.7,0.9-0.5,2.1,0.3,2.8c0.4,0.3,1,0.5,1.5,0.4C45.7,31.2,46.2,31,46.5,30.5z"/>
	<path fill="none" stroke="#000000" stroke-width="2" stroke-linecap="round" stroke-linejoin="round" stroke-miterlimit="10" d="
		M45.9,24.7"/>
	<path fill="#D22F27" d="M47.7,54.4l-0.1,4.6h11.1V37.2H47.9l-0.1,6.5l0.1,0c0.6,0,1,0.4,1,1v8.7c0,0.6-0.4,1-1,1L47.7,54.4z"/>
	<path fill="none" stroke="#000000" stroke-width="2" stroke-linecap="round" stroke-linejoin="round" stroke-miterlimit="10" d="
		M44.2,24.7"/>
	<g>
		<path fill="none" stroke="#000000" stroke-width="2" stroke-linecap="round" stroke-linejoin="round" stroke-miterlimit="10" d="
			M44.2,24.7"/>
		
			<line fill="none" stroke="#000000" stroke-width="2" stroke-linecap="round" stroke-linejoin="round" stroke-miterlimit="10" x1="35.8" y1="44.7" x2="35.8" y2="53.5"/>
		
			<line fill="none" stroke="#000000" stroke-width="2" stroke-linecap="round" stroke-linejoin="round" stroke-miterlimit="10" x1="23.7" y1="44.7" x2="23.7" y2="53.5"/>
		
			<line fill="none" stroke="#000000" stroke-width="2" stroke-linecap="round" stroke-linejoin="round" stroke-miterlimit="10" x1="47.9" y1="44.7" x2="47.9" y2="53.5"/>
		
			<ellipse transform="matrix(0.7984 -0.6021 0.6021 0.7984 -12.4611 21.141)" fill="none" stroke="#000000" stroke-width="2" stroke-linecap="round" stroke-linejoin="round" stroke-miterlimit="10" cx="25.3" cy="29.2" rx="2" ry="2"/>
		
			<line fill="none" stroke="#000000" stroke-width="2" stroke-linecap="round" stroke-linejoin="round" stroke-miterlimit="10" x1="38.8" y1="19" x2="50.3" y2="10.4"/>
		
			<line fill="none" stroke="#000000" stroke-width="2" stroke-linecap="round" stroke-linejoin="round" stroke-miterlimit="10" x1="26.9" y1="28" x2="32" y2="24.2"/>
		
			<ellipse transform="matrix(0.6204 -0.7843 0.7843 0.6204 -5.8665 46.3483)" fill="none" stroke="#000000" stroke-width="2" stroke-linecap="round" stroke-linejoin="round" stroke-miterlimit="10" cx="44.9" cy="29.2" rx="2" ry="2"/>
		
			<line fill="none" stroke="#000000" stroke-width="2" stroke-linecap="round" stroke-linejoin="round" stroke-miterlimit="10" x1="21.3" y1="10.6" x2="43.4" y2="28"/>
		
			<rect x="12" y="36.2" fill="none" stroke="#000000" stroke-width="2" stroke-linecap="round" stroke-linejoin="round" stroke-miterlimit="10" width="47.7" height="23.8"/>
	</g>
</g>
</svg>
