<?xml version="1.0" encoding="utf-8"?>
<!-- Generator: Adobe Illustrator 21.1.0, SVG Export Plug-In . SVG Version: 6.00 Build 0)  -->
<svg version="1.1" id="emoji" xmlns="http://www.w3.org/2000/svg" xmlns:xlink="http://www.w3.org/1999/xlink" x="0px" y="0px"
	 viewBox="0 0 72 72" enable-background="new 0 0 72 72" xml:space="preserve">
<g id="_xD83E__xDD54_">
	
		<path fill="#A57939" stroke="#1D1D1B" stroke-width="2" stroke-linecap="round" stroke-linejoin="round" stroke-miterlimit="10" d="
		M59,27.9c0,18.3-7.6,27.2-14.7,31.5c-6.2,3.8-12,4.1-12,4.1c-10.8,0-19.6-8.8-19.6-19.6c0-6.7,3.7-11.4,8.4-16.1
		C33.2,15.8,31.9,9.5,42.8,9.5c9,0,16.2,7.3,16.2,16.2C59,26.5,59,27.9,59,27.9z"/>
	<path fill="#925F36" d="M59,25.7c0,0.8,0,2.1,0,2.1c0,18.3-7.6,27.2-14.7,31.5c-6.2,3.8-12,4.1-12,4.1c-1.7,0-3.3-0.2-4.8-0.6
		C59.1,54.3,52.9,13,52.9,13C56.6,16,59,20.6,59,25.7z"/>
	<circle fill="#1D1D1B" cx="39.5" cy="16.2" r="1.3"/>
	
		<circle fill="#A57939" stroke="#1D1D1B" stroke-width="2" stroke-linecap="round" stroke-linejoin="round" stroke-miterlimit="10" cx="38.3" cy="51.6" r="3.2"/>
	<path fill="none" stroke="#1D1D1B" stroke-width="2" stroke-linecap="round" stroke-linejoin="round" stroke-miterlimit="10" d="
		M59,27.9c0,18.3-7.6,27.2-14.7,31.5c-6.2,3.8-12,4.1-12,4.1c-10.8,0-19.6-8.8-19.6-19.6c0-6.7,3.7-11.4,8.4-16.1
		C33.2,15.8,31.9,9.5,42.8,9.5c9,0,16.2,7.3,16.2,16.2C59,26.5,59,27.9,59,27.9z"/>
</g>
</svg>
