<?xml version="1.0" encoding="utf-8"?>
<!-- Generator: Adobe Illustrator 21.1.0, SVG Export Plug-In . SVG Version: 6.00 Build 0)  -->
<svg version="1.1" id="emoji" xmlns="http://www.w3.org/2000/svg" xmlns:xlink="http://www.w3.org/1999/xlink" x="0px" y="0px"
	 viewBox="0 0 72 72" enable-background="new 0 0 72 72" xml:space="preserve">
<g id="_xD83E__xDD55_">
	<path fill="#B1CC33" stroke="#B1CC33" stroke-width="2" stroke-linejoin="round" stroke-miterlimit="10" d="M48.4,13.6
		c0.9-1.6,2-2.6,2-2.6s1.9,1,1.8,3.6c2.4-2.3,4.9-2.6,4.9-2.6s0,2.5-1.9,5.2c0.6-0.1,1.1-0.1,1.6,0c1.5,0.3,2.3,1.3,2.3,1.3
		s-2.3,3.1-5.4,4.1c-0.6,0.2-1.2,0.3-1.7,0.2c-2-0.1-5.3-2.6-4.8-5.9C47.3,15.7,47.8,14.6,48.4,13.6"/>
	
		<path fill="#F4AA41" stroke="#F8B133" stroke-width="2" stroke-linecap="round" stroke-linejoin="round" stroke-miterlimit="10" d="
		M43.9,19.1c-2.3,0.9-5.2,3.2-7.3,6.3l-18,25.5c-6.5,9.3-0.8,14,7,5.7L47.1,34c4.2-4.5,6.1-10.1,3.9-11.9l-3.5-2.9
		C46.6,18.6,45.3,18.6,43.9,19.1"/>
	<path fill="#A03A32" stroke="#A03A32" stroke-width="2" stroke-linejoin="round" stroke-miterlimit="10" d="M51.7,23.4
		c-0.1-0.5-0.3-0.9-0.7-1.1"/>
	<path fill="#E27022" stroke="#E27022" stroke-width="2" stroke-linecap="round" stroke-linejoin="round" d="M51.7,26
		c-0.1,0.5-0.2,0.9-0.4,1.4c-0.1,0.1-0.1,0.3-0.2,0.5c-0.1,0.2-0.1,0.3-0.2,0.5c-0.1,0.2-0.2,0.4-0.3,0.6c-0.4,0.9-1,1.8-1.6,2.6
		c-0.1,0.2-0.2,0.3-0.4,0.5c-0.1,0.2-0.3,0.4-0.4,0.5c-0.4,0.4-0.7,0.9-1.1,1.3L25.5,56.7c-3.7,3.9-6.9,4.9-8.6,3.9
		c6.4,0.1,35.8-37.4,34.1-40.2C51.1,20.4,52.4,24.3,51.7,26z"/>
	<path fill="none" stroke="#1D1D1B" stroke-width="2" stroke-linecap="round" stroke-linejoin="round" stroke-miterlimit="10" d="
		M42.3,19.9c-1.9,1.2-4,3.1-5.7,5.5l-18,25.5c-6.5,9.3-0.8,14,7,5.7L47.1,34c2-2.1,3.5-4.5,4.2-6.6"/>
	<path fill="#5C9E31" d="M59,18.5c0,0-2.2,3.1-5.4,4.1c-0.6,0.2-1.2,0.2-1.7,0.2c-0.9,0-2.1-0.6-3.1-1.6l8.3-9.2c0,0,0,2.5-1.9,5.2
		c0.6-0.1,1.1-0.1,1.6,0C58.3,17.5,59,18.5,59,18.5z"/>
	<path fill="none" stroke="#1D1D1B" stroke-width="2" stroke-linejoin="round" stroke-miterlimit="10" d="M48.4,13.6
		c0.9-1.6,2-2.6,2-2.6s1.9,1,1.8,3.6c2.4-2.3,4.9-2.6,4.9-2.6s0,2.5-1.9,5.2c0.6-0.1,1.1-0.1,1.6,0c1.5,0.3,2.3,1.3,2.3,1.3
		s-2.3,3.1-5.4,4.1c-0.6,0.2-1.2,0.3-1.7,0.2c-2-0.1-5.3-2.6-4.8-5.9C47.3,15.7,47.8,14.6,48.4,13.6"/>
</g>
</svg>
