<?xml version="1.0" encoding="utf-8"?>
<!-- Generator: Adobe Illustrator 21.1.0, SVG Export Plug-In . SVG Version: 6.00 Build 0)  -->
<svg version="1.1" id="Ebene_3" xmlns="http://www.w3.org/2000/svg" xmlns:xlink="http://www.w3.org/1999/xlink" x="0px" y="0px"
	 viewBox="0 0 72 72" enable-background="new 0 0 72 72" xml:space="preserve">
<g>
	<path fill="#F4A941" d="M67.1,29.5c0-10.5-8.3-19-18.4-19c-4.9,0-8.7,1.6-12,4.8c-1.2-1.1-2.7-2-4.1-2.8c-0.2-0.1-0.7,0.1-0.9,0
		c-2.5-1.3-5.2-2-8.2-2c-10.1,0-18.4,8.5-18.4,19c0,0,0,0,0,0c0,0,0,0,0,0c0,0,0,0,0,0c0,0,0,0,0,0c0,0,0,0,0,0c0,0,0,0,0,0
		c0,0.7,0,1.5,0.1,2.2c0,0.1,0,0.2,0,0.2c0.1,0.7,0.1,1.4,0.2,2.2c0,0,0,0,0,0c0.2,1.5,0.5,3,0.9,4.4c0,0,0,0,0,0
		c0.9,3.1,2,5.5,3.7,8.2c0.1,0.2-1,0.1-1,0.1s2.4,3.5,2.9,4.1c0.4,0.6,0,0.8,0,1.6c0,2.2,1.7,4,3.9,4c1.1,0,2.2-0.1,3.3-0.2
		c5.1,3.7,7.6,3.8,11,4.7c1.1,0.3,4.1,0.5,4.4,0.5c0.5,0,6.5-0.4,7.6-0.6c3.5-0.7,6.5-1.8,9.5-3.6c0.5-0.3,1-0.6,1.5-1
		c1.1,0.1,2.2,0.2,3.3,0.2c2.1,0,3.9-1.8,3.9-4c0-0.8,0.2-1.1-0.2-1.7c0.7-0.8,2.2-3.4,2.8-4.3c0.1-0.2-1.2,0.2-1.1,0
		c1.7-2.7,3.1-5,3.9-8.1c0,0,0,0,0,0c0.4-1.4,0.7-2.9,0.9-4.4c0,0,0,0,0,0c0.1-0.7,0.2-1.4,0.2-2.2c0-0.1,0-0.2,0-0.2
		C67.1,31,67.1,30.3,67.1,29.5C67.1,29.5,67.1,29.6,67.1,29.5C67.1,29.6,67.1,29.6,67.1,29.5C67.1,29.6,67.1,29.5,67.1,29.5
		C67.1,29.5,67.1,29.5,67.1,29.5C67.1,29.5,67.1,29.5,67.1,29.5C67.1,29.5,67.1,29.5,67.1,29.5z M37.7,51.7c-0.6,0-1.3,0.1-1.8,0.1
		c-1.3,0.1-3.2-0.3-3.9-0.7c1.8-1.4,2.8-2.3,3.9-4c1.9,2.4,2.6,2.3,5.1,3.9C39.4,51.6,39.4,51.6,37.7,51.7z M18.5,43.3
		c-0.2-0.2-0.6,1-0.9,0.6c-2.2-3-3.7-6.5-4.3-10.3c0,0,0-0.1,0-0.1c-0.1-0.6-0.2-1.3-0.2-1.9c0-0.1,0-0.1,0-0.2
		c-0.1-0.6-0.1-1.3-0.1-2c0-6.1,4.8-11,10.7-11c1.6,0,3.1,0.4,4.5,1c0.1,0.1-0.6,1.2-0.4,1.3c1.3,0.7,2.7,1.5,3.6,2.7
		c-0.9,2.2-0.9,3.5-0.9,6c0,3.2,0.6,6.3,1.6,9.2c-0.3,0.6-0.4-0.9-0.8-0.3c-0.1,0.1-2.2,2.5-2.6,2.8c-0.1,0,0,0.9,0,1
		c-2.3,3.2-6.9,4.2-6.9,4.2S20,45.4,18.5,43.3z M59.3,31.5c0,0.1,0,0.1,0,0.2c-0.1,0.6-0.1,1.3-0.2,1.9c0,0,0,0.1,0,0.1
		c-0.7,4-2.4,7.4-4.9,10.6l-0.8-0.8c-0.5,0.6-1.4,1.8-2.7,2.9c-0.1,0,1.1,1,0.7,1.4c-4.7-1.4-8.5-4.3-10.8-8.7
		c1-2.9,2.2-5.4,2.2-9.6c0.1-4.5-0.8-5.4-1.7-7.6c2-2.4,4.4-3.4,7.6-3.4c5.9,0,10.6,4.9,10.7,11C59.3,30.2,59.3,30.8,59.3,31.5z"/>
	<g>
		<path fill="none" stroke="#000000" stroke-width="2" stroke-linecap="round" stroke-linejoin="round" stroke-miterlimit="10" d="
			M29.3,52"/>
		<path fill="none" stroke="#000000" stroke-width="2" stroke-linecap="round" stroke-linejoin="round" stroke-miterlimit="10" d="
			M32.1,13.5c-2.6-1.4-5.6-2.2-8.8-2.2c-10.1,0-18.4,8.2-18.4,18.4c0,0,0,0,0,0c0,0,0,0,0,0c0,0,0,0,0,0c0,0,0,0,0,0
			c0,6,1.7,11.7,4.9,16.6"/>
		<path fill="none" stroke="#000000" stroke-width="2" stroke-linecap="round" stroke-linejoin="round" stroke-miterlimit="10" d="
			M41.6,31.6c0-0.6,0.1-1.3,0.1-1.9c0-0.6,0-1.3-0.1-1.9"/>
		<path fill="none" stroke="#000000" stroke-width="2" stroke-linecap="round" stroke-linejoin="round" stroke-miterlimit="10" d="
			M29.2,42.1c-3.4,3.7-8.2,6-13.6,6c-2.1,0-3.9,1.7-3.9,3.9c0,2.1,1.7,3.9,3.9,3.9c6.7,0,12.8-2.5,17.4-6.7"/>
		<path fill="none" stroke="#000000" stroke-width="2" stroke-linecap="round" stroke-linejoin="round" stroke-miterlimit="10" d="
			M17.8,44.3c-3.3-4.1-5.1-9.2-5.1-14.6c0-5.9,4.8-10.6,10.7-10.6c1.8,0,3.4,0.4,4.9,1.2"/>
		<path fill="none" stroke="#000000" stroke-width="2" stroke-linecap="round" stroke-linejoin="round" stroke-miterlimit="10" d="
			M42.5,52"/>
		<path fill="none" stroke="#000000" stroke-width="2" stroke-linecap="round" stroke-linejoin="round" stroke-miterlimit="10" d="
			M37.7,52.9c-0.6,0.1-1.2,0.1-1.8,0.1c-0.6,0-1.2,0-1.8-0.1"/>
		<path fill="none" stroke="#000000" stroke-width="2" stroke-linecap="round" stroke-linejoin="round" stroke-miterlimit="10" d="
			M47.6,58.4c-0.5,0.2-1.1,0.4-1.6,0.6c-3.2,1.1-6.6,1.6-10,1.6c-3.4,0-6.8-0.6-10-1.6c-0.6-0.2-1.1-0.4-1.6-0.6"/>
		<path fill="none" stroke="#000000" stroke-width="2" stroke-linecap="round" stroke-linejoin="round" stroke-miterlimit="10" d="
			M54,44.3c3.3-4.1,5.1-9.2,5.1-14.6c0-5.9-4.8-10.6-10.7-10.6c-5.9,0-10.7,4.8-10.7,10.7c0,10.1,8.3,18.4,18.4,18.4
			c2.1,0,3.9,1.7,3.9,3.9c0,2.1-1.7,3.9-3.9,3.9c-14.4,0-26.2-11.7-26.2-26.2c0-10.1,8.3-18.4,18.4-18.4c10.1,0,18.4,8.2,18.4,18.4
			c0,0,0,0,0,0c0,0,0,0,0,0c0,0,0,0,0,0c0,0,0,0,0,0c0,6-1.7,11.7-4.9,16.6"/>
	</g>
</g>
</svg>
