<?xml version="1.0" encoding="utf-8"?>
<!-- Generator: Adobe Illustrator 21.1.0, SVG Export Plug-In . SVG Version: 6.00 Build 0)  -->
<svg version="1.1" id="Ebene_3" xmlns="http://www.w3.org/2000/svg" xmlns:xlink="http://www.w3.org/1999/xlink" x="0px" y="0px"
	 viewBox="0 0 72 72" enable-background="new 0 0 72 72" xml:space="preserve">
<g>
	<path fill="#FFFFFF" d="M7,36c0,16,13,29,29,29s29-13,29-29H7z"/>
	<path fill="#9A9B99" d="M50,23c0,0,3,1,6,1c0.2,0,2.8,0,3,0c3,0,6-1,6-1c0,2.8-2.2,5-5,5c-0.9,0-4.1,0-5,0C52.2,28,50,25.8,50,23"
		/>
	<g>
		<path fill="#D0CECD" d="M49,36c0,16-4,29-13,29c16,0,29-13,29-29H49z"/>
	</g>
	<path fill="none" stroke="#000000" stroke-width="2" stroke-linecap="round" stroke-linejoin="round" stroke-miterlimit="10" d="
		M7,36c0,16,13,29,29,29s29-13,29-29H7z"/>
	<path fill="none" stroke="#000000" stroke-width="2" stroke-linecap="round" stroke-linejoin="round" stroke-miterlimit="10" d="
		M8,23h42c0,0,3,1,6,1c0.2,0,2.8,0,3,0c3,0,6-1,6-1c0,2.8-2.2,5-5,5c-0.9,0-4.1,0-5,0c-2.8,0-5-2.2-5-5"/>
</g>
</svg>
