<?xml version="1.0" encoding="utf-8"?>
<!-- Generator: Adobe Illustrator 21.1.0, SVG Export Plug-In . SVG Version: 6.00 Build 0)  -->
<svg version="1.1" id="Ebene_3" xmlns="http://www.w3.org/2000/svg" xmlns:xlink="http://www.w3.org/1999/xlink" x="0px" y="0px"
	 viewBox="0 0 72 72" enable-background="new 0 0 72 72" xml:space="preserve">
<g>
	<path fill="#FFFFFF" d="M26,27h-7c-7.7,0-14,6.3-14,14s6.3,14,14,14h29c10.5,0,19-8.5,19-19s-8.5-19-19-19
		c-5.7,0-10.8,2.5-14.3,6.5C31.9,25.7,29.1,27,26,27z"/>
	<g>
		<g>
			<path fill="#E95947" d="M29,31c2.5,0,4.5-1.4,6.8-3.7C39.3,23.8,43,21,48,21c8.3,0,15,6.7,15,15s-6.7,15-15,15H19
				c-5.5,0-10-4.5-10-10s4.5-10,10-10l0-1l10,0L29,31z"/>
		</g>
		<path fill="none" stroke="#000000" stroke-width="2" stroke-linecap="round" stroke-linejoin="round" stroke-miterlimit="10" d="
			M29,31c2.5,0,4.5-1.4,6.8-3.7C39.3,23.8,43,21,48,21c8.3,0,15,6.7,15,15s-6.7,15-15,15H19c-5.5,0-10-4.5-10-10s4.5-10,10-10"/>
	</g>
	<circle fill="#FFFFFF" cx="48" cy="36" r="5"/>
	<path fill="none" stroke="#000000" stroke-width="2" stroke-linecap="round" stroke-linejoin="round" stroke-miterlimit="10" d="
		M26,27h-7c-7.7,0-14,6.3-14,14s6.3,14,14,14h29c10.5,0,19-8.5,19-19s-8.5-19-19-19c-5.7,0-10.8,2.5-14.3,6.5
		C31.9,25.7,29.1,27,26,27z"/>
	
		<circle fill="none" stroke="#000000" stroke-width="2" stroke-linecap="round" stroke-linejoin="round" stroke-miterlimit="10" cx="48" cy="36" r="5"/>
</g>
</svg>
