<svg id="emoji" xmlns="http://www.w3.org/2000/svg" viewBox="0 0 72 72">
  <g id="color"/>
  <g id="skin">
    <path d="M59.3,34.7919A22.974,22.974,0,1,0,26.6365,55.6228a8.2866,8.2866,0,0,0,1.11,1.8066c-.103.1788-.486,1.41-1.9045,7.7929L35.62,67a18.9715,18.9715,0,0,1,.1463-6.55c.1984-1.2991,1.21-1.764,2.1262-2.7433A22.9711,22.9711,0,0,0,59.3,34.7919Z" fill="#fcea2b"/>
    <circle cx="36.326" cy="34.7919" r="22.974" fill="none" stroke="#fcea2b" stroke-miterlimit="10" stroke-width="1.8"/>
  </g>
  <g id="line">
    <g id="Yawning_Face" data-name="Yawning Face">
      <path d="M26.098,64.42c.986-4.1556,1.6866-6.9627,1.6866-6.9627s-.2806-.07-1.6914-2.8918c-.63-1.2618-1.0776-5.4826-1.4109-8.467-.3128-2.8037.1092-3.5934,1.1069-3.5934s1.2238.816,1.7149,2.1825a21.7078,21.7078,0,0,0,1.2783,2.8061,36.3836,36.3836,0,0,1,4.9886-9.9772C35.7664,35,38.33,37.1634,36.7642,39.5115a28.23,28.23,0,0,0-2.9932,5.9863" fill="none" stroke="#000" stroke-linecap="round" stroke-linejoin="round" stroke-width="2"/>
      <path d="M36.7641,39.5116l.9977-1.9954c2.2449-4.49,4.9886-1.9954,3.9909,0a78.59,78.59,0,0,0-3.9909,8.98" fill="none" stroke="#000" stroke-linecap="round" stroke-linejoin="round" stroke-width="2"/>
      <path d="M35.4586,66.1666a40.0609,40.0609,0,0,1,.3078-5.7165c.266-1.7421,1.9954-1.9818,2.9932-3.9772,2.9932-5.9863,1.8288-8.314,3.9909-13.9681,1.1273-2.9474-1.5609-3.7151-3.12-.5987" fill="none" stroke="#000" stroke-linecap="round" stroke-linejoin="round" stroke-width="2"/>
      <path d="M43.0474,56.7729A22.9915,22.9915,0,1,0,21.42,52.33" fill="none" stroke="#000" stroke-linecap="round" stroke-linejoin="round" stroke-width="2"/>
      <g>
        <path d="M48.0806,29.775a1.0034,1.0034,0,0,1-.8965-.5528c-.01-.02-1.2129-2.3222-3.418-2.3222-2.23,0-3.4062,2.2988-3.418,2.3222a1,1,0,1,1-1.789-.8945c.07-.1406,1.7539-3.4277,5.207-3.4277s5.1367,3.2871,5.207,3.4277a.9994.9994,0,0,1-.4472,1.3418A1.0137,1.0137,0,0,1,48.0806,29.775Z"/>
        <path d="M32.3306,29.775a1.0034,1.0034,0,0,1-.8965-.5528c-.01-.02-1.2129-2.3222-3.418-2.3222-2.2305,0-3.4062,2.2988-3.418,2.3222a1,1,0,1,1-1.789-.8945c.07-.1406,1.7539-3.4277,5.207-3.4277s5.1367,3.2871,5.207,3.4277a.9994.9994,0,0,1-.4472,1.3418A1.0137,1.0137,0,0,1,32.3306,29.775Z"/>
      </g>
      <path d="M23,22c4.393-.1383,7.8927-1.3925,8.7779-3.125" fill="none" stroke="#000" stroke-linecap="round" stroke-linejoin="round" stroke-width="2"/>
      <path d="M48.7779,22c-4.393-.1383-7.8927-1.3925-8.7779-3.125" fill="none" stroke="#000" stroke-linecap="round" stroke-linejoin="round" stroke-width="2"/>
    </g>
  </g>
</svg>
