<svg id="emoji" x="0" y="0" viewBox="0 0 72 72" version="1.1" xmlns="http://www.w3.org/2000/svg">
  <g id="color">
    <path fill="#D22F27" d="M41.66,23.8c1.409-1.16,0.7182-0.6431,2.763-2.566c1.39,1.62,4.202,1.021,4.921-0.0239 c-0.1127-2.8355-0.8577-5.7362-1.698-8.4343c-0.2712-0.8707-0.5454-1.7446-1.0364-2.5165 c-0.9366-1.4722-3.0822-1.3427-4.6231-1.0494c-1.4791,0.2815-2.8918,0.8404-4.3606,1.1715 c-2.7671,0.6239-5.8784-0.3292-8.3958-1.5303c-4.526-0.2557-9.513,12.96-6.151,13.4c1.202,0.4097,2.032,0.7567,2.67-0.1896 c0.3605-0.5337,0.555-2.613,1.333-1.314c0.1038,1.847,1.448,2.066,4.824,3.744C34.541,25.1077,38.971,24.2051,41.66,23.8z"/>
    <path fill="#8967AA" d="M35.84,25.04c2.662-0.5361,6.487-1.091,8.891-3.534c0.1686,2.211,0.3758,9.217,2.775,11.06 c0.8771,1.244,1.525,0.9071,2.678,1.157c0.237,0.6279-0.382,2.86-0.4244,3.264c-0.1424,1.365-1.054,2.488-2.671,1.993 c-3.44,1.048-11.71-12.39-11.25-13.94L35.84,25.04z"/>
    <path fill="#B399C8" d="M25.23,62.35c6.669,2.472,11.87,1.887,17.48-2.074l-0.206-4.793l1.664-13.34l-0.3176-3.285l-0.4541-4.693 c-0.9648-1.203-0.2966-7.352-1.623-6.615c-1.326,0.7363-3.331,0.5102-4.961,0.699c-3.02,0.5782-3.656,0.3205-5.81-0.0767 c-0.8283,4.34-3.763,7.429-4.583,7.709c-0.6648,0.5457-2.696,2.531-1.74,5.249c-0.3796,1.634,0.4597,19.1466,0.5459,21.213 L25.23,62.35z"/>
    <path fill="#B399C8" d="M37.13,8.302c-3.877,2.968-5.78,6.255-7.644,13.09c-0.5624,2.043-1.678,7.468-2.193,9.686 c-0.5178,2.226-1.871,2.957-2.154,5.455l4.493-2.738c0.7454-4.725,3.936-8.339,9.712-12.15c1.139-0.752,2.072-1.623,2.407-2.767 c0.2047-0.6997,0.6513-0.9916,0.6334-1.813c-0.0154-0.7382,0.5268-1.013,0.6824-1.568c0.7482-2.687,1.223-5.22,0.1594-7.075 L37.13,8.302z"/>
  </g>
  <g id="line">
    <path fill="none" stroke="#000000" stroke-linecap="round" stroke-linejoin="round" stroke-miterlimit="1.5" stroke-width="1.5" d="M34.1023,29.0914l8.2417-1.7334c4.33,14.15-0.2163,23.9,0.4643,33.11c-4.335,4.138-12.88,4.159-17.59,2.081 c0,0-1.058-15.04-0.7826-22.34"/>
    <path fill="none" stroke="#000000" stroke-linecap="round" stroke-linejoin="round" stroke-miterlimit="1.5" stroke-width="1.5" d="M28.96,33.72c2.203-2.863,1.372-5.685,4.753-7.972c3.468-2.139,6.452-3.434,8.167-6.485s2.217-7.791,1.669-10.49 c-1.697-1.278-6.236-0.434-7.289,0.2865c-6.288,5.038-7.375,13.62-8.754,21.32c-0.8624,4.583-2.807,6.56-3.062,9.794 c-0.003-3.071,3.005-4.301,4.517-6.446L28.96,33.72z"/>
    <path fill="none" stroke="#000000" stroke-linecap="round" stroke-linejoin="round" stroke-miterlimit="1.5" stroke-width="1.5" d="M38.1948,24.6777c2.573-0.2116,4.9214-1.0722,5.8816-3.31 M35.59,24.7c0.8645,0.0467,1.7471,0.0483,2.6048-0.0223 M46.4669,22.0929 c0,0,1.4696-0.2352,3.1305-0.7329c-0.7254-3.8228-0.9256-8.9329-3.612-11.2405"/>
    <path fill="none" stroke="#000000" stroke-linecap="round" stroke-linejoin="round" stroke-miterlimit="1.5" stroke-width="1.5" d="M28.44,22.83c-0.886-0.4793-1.3105-1.318-1.4906-2.3048 M21.7761,21.308c-0.0134-0.8405,0.2941-1.747,0.2941-1.747 c1.528-6.414,4.374-11.77,8.651-10.36l1.4614,0.6106 M24.3828,22.3068c0,0-0.5646-0.0748-2.6067-0.9988"/>
    <path fill="none" stroke="#000000" stroke-linecap="round" stroke-linejoin="round" stroke-miterlimit="1.5" stroke-width="1.5" d="M46.5906,38.5597c4.6199,1.0208,3.7684-4.9077,3.7684-4.9077c-3.7209,0.846-5.3336-5.1124-5.8847-9.1597"/>
    <path fill="none" stroke="#000000" stroke-linecap="round" stroke-linejoin="round" stroke-miterlimit="1.5" stroke-width="1.5" d="M38.4,39.62c0,0,0,0,0.4046,1.181c0.465,1.556,0.8427,3.068,0.9542,4.708c0.2444,3.618-0.8277,7.166-0.183,10.77 c0.2045,1.146,1.6548,3.767,2.1575,4.792c0.3304,0.6753-0.3778-0.6454,0,0"/>
  </g>
</svg>
