<svg id="emoji" xmlns="http://www.w3.org/2000/svg" viewBox="0 0 72 72">
  <g id="color">
    <g>
      <g id="color-2" data-name="color">
        <polygon id="SVGID" points="35.936 12.582 27.04 14.313 21.577 17.427 16.535 22.662 13 30.24 13 42.96 18.772 52.65 27.04 58.269 35.936 60 43.337 58.814 51.285 54.351 56.553 48.001 59.645 38.507 58.872 30.281 54.945 22.127 50.605 17.673 43.132 13.695 35.936 12.582" fill="#fcea2b"/>
      </g>
      <path d="M11.3186,34.66a.3513.3513,0,0,1-.6328,0,4.0479,4.0479,0,1,0-6.9169,4.1426l7.2333,9.2748,7.1911-9.218.232-.3422A4.0479,4.0479,0,1,0,11.3186,34.66Z" fill="#ffa7c0"/>
      <path d="M48.3186,7.66a.3513.3513,0,0,1-.6328,0,4.0479,4.0479,0,1,0-6.9169,4.1426l7.2333,9.2748,7.1911-9.218.232-.3422A4.0479,4.0479,0,1,0,48.3186,7.66Z" fill="#ffa7c0"/>
      <path d="M56.3186,52.66a.3513.3513,0,0,1-.6328,0,4.0479,4.0479,0,1,0-6.9169,4.1426l7.2333,9.2748,7.1911-9.218.232-.3422A4.0479,4.0479,0,1,0,56.3186,52.66Z" fill="#ffa7c0"/>
      <path d="M14.9634,32.3656a4.05,4.05,0,0,1,3.462,6.1513l-.232.3422-7.1911,9.218-.5506-.706C18.32,36.619,14.9634,32.3656,14.9634,32.3656Z" fill="#e67a94"/>
      <path d="M59.9634,51.3656a4.05,4.05,0,0,1,3.462,6.1513l-.232.3422-7.1911,9.218-.5506-.706C63.32,55.619,59.9634,51.3656,59.9634,51.3656Z" fill="#e67a94"/>
      <path d="M51.9634,5.3656a4.05,4.05,0,0,1,3.462,6.1513l-.232.3422-7.1911,9.218-.5506-.706C55.32,9.619,51.9634,5.3656,51.9634,5.3656Z" fill="#e67a94"/>
    </g>
  </g>
  <g id="line">
    <g>
      <g id="line-2" data-name="line">
        <path d="M52.1994,20.3063a23.01,23.01,0,0,1,3.4994,28.0674" fill="none" stroke="#000" stroke-linecap="round" stroke-linejoin="round" stroke-width="2"/>
        <path d="M13.9333,29.9A23.0338,23.0338,0,0,1,39.4549,13.8472" fill="none" stroke="#000" stroke-linecap="round" stroke-linejoin="round" stroke-width="2"/>
        <path d="M45.7653,57.3869A23.0218,23.0218,0,0,1,15.5144,47.15" fill="none" stroke="#000" stroke-linecap="round" stroke-linejoin="round" stroke-width="2"/>
        <path d="M45.7625,45.387a15.43,15.43,0,0,1-19.63,0" fill="none" stroke="#000" stroke-linecap="round" stroke-linejoin="round" stroke-width="2"/>
        <path d="M31.8318,34.775a1.0034,1.0034,0,0,1-.8965-.5528c-.01-.02-1.2129-2.3222-3.418-2.3222-2.23,0-3.4062,2.2988-3.418,2.3222a1,1,0,1,1-1.789-.8945c.07-.1406,1.7539-3.4277,5.207-3.4277s5.1367,3.2871,5.207,3.4277a.9994.9994,0,0,1-.4472,1.3418A1.0137,1.0137,0,0,1,31.8318,34.775Z"/>
        <path d="M49.0818,34.775a1.0034,1.0034,0,0,1-.8965-.5528c-.01-.02-1.2129-2.3222-3.418-2.3222-2.23,0-3.4062,2.2988-3.418,2.3222a1,1,0,1,1-1.789-.8945c.07-.1406,1.7539-3.4277,5.207-3.4277s5.1367,3.2871,5.207,3.4277a.9994.9994,0,0,1-.4472,1.3418A1.0137,1.0137,0,0,1,49.0818,34.775Z"/>
      </g>
      <path d="M52.04,50.3656a4.05,4.05,0,0,0-3.462,6.1513l.232.3422,7.1911,9.218,7.2333-9.2748A4.0482,4.0482,0,1,0,56.3179,52.66a.3513.3513,0,0,1-.6328,0A4.021,4.021,0,0,0,52.04,50.3656Z" fill="none" stroke="#000" stroke-linecap="round" stroke-linejoin="round" stroke-width="2"/>
      <path d="M7.04,32.3656a4.05,4.05,0,0,0-3.462,6.1513l.232.3422,7.1911,9.218,7.2333-9.2748A4.0482,4.0482,0,1,0,11.3179,34.66a.3513.3513,0,0,1-.6328,0A4.021,4.021,0,0,0,7.04,32.3656Z" fill="none" stroke="#000" stroke-linecap="round" stroke-linejoin="round" stroke-width="2"/>
      <path d="M44.04,5.3656a4.05,4.05,0,0,0-3.462,6.1513l.232.3422,7.1911,9.218,7.2333-9.2748A4.0482,4.0482,0,1,0,48.3179,7.66a.3513.3513,0,0,1-.6328,0A4.021,4.021,0,0,0,44.04,5.3656Z" fill="none" stroke="#000" stroke-linecap="round" stroke-linejoin="round" stroke-width="2"/>
    </g>
  </g>
</svg>
