<?xml version="1.0" encoding="utf-8"?>
<!-- Generator: Adobe Illustrator 19.1.0, SVG Export Plug-In . SVG Version: 6.00 Build 0)  -->
<svg version="1.1" id="emoji" xmlns="http://www.w3.org/2000/svg" xmlns:xlink="http://www.w3.org/1999/xlink" x="0px" y="0px"
	 viewBox="0 0 72 72" enable-background="new 0 0 72 72" xml:space="preserve">
<g id="_xD83E__xDD82_">
	<path fill="#EA5A47" d="M39.8,26.9c0,0,9.8,0.2,9.9-3.8c0.1-4,1.7-6.7-0.8-8C45,13,44.9,21,45.8,23S38,25,38,25L39.8,26.9z"/>
	<path fill="#EA5A47" d="M32,27c0,0-10,0-10-4s-1-6,1-8s4,6,3,8s7,2,7,2L32,27z"/>
	<path fill="none" stroke="#000000" stroke-width="2" stroke-linecap="round" stroke-linejoin="round" stroke-miterlimit="10" d="
		M23.9,11.9c-6.9,10.3,0.9,14.7,0.9,14.7l6.9,0.9"/>
	<path fill="none" stroke="#000000" stroke-width="2" stroke-linecap="round" stroke-linejoin="round" stroke-miterlimit="10" d="
		M23.2,14.6c5.4,1.8,2.4,8.5,2.4,8.5l0.9,0.9l6.9,0.9"/>
	<path fill="none" stroke="#000000" stroke-width="2" stroke-linecap="round" stroke-linejoin="round" stroke-miterlimit="10" d="
		M47.1,11.9c0,0,6.9,9.5-0.9,14.7L39.6,27"/>
	<path fill="none" stroke="#000000" stroke-width="2" stroke-linecap="round" stroke-linejoin="round" stroke-miterlimit="10" d="
		M37.7,24.8l7.8-0.9l0.9-1.7c0,0-4.7-3.3,1.5-7.7"/>
	<path fill="#D22F27" d="M42,55.9c0,0-2.2-6.9,2.8-3s-3,9.9-6.8,6.9c-3.8-3-9.8-18.5-5.5-33.2c0,0,3.4-5.2,6,0
		c2.6,5.2,1.2,20.7,0.2,24.1c-1,3.4-1,6,2.4,7.3"/>
	
		<polyline fill="none" stroke="#000000" stroke-width="2" stroke-linecap="round" stroke-linejoin="round" stroke-miterlimit="10" points="
		40.2,30.9 45.2,32.6 47.1,30.9 46.2,29.1 	"/>
	
		<polyline fill="none" stroke="#000000" stroke-width="2" stroke-linecap="round" stroke-linejoin="round" stroke-miterlimit="10" points="
		30.8,30.9 25.6,32.6 23.9,30.9 25.6,29.1 	"/>
	
		<polyline fill="none" stroke="#000000" stroke-width="2" stroke-linecap="round" stroke-linejoin="round" stroke-miterlimit="10" points="
		30.8,34.3 27.3,40.3 25.6,41.2 23.1,40 	"/>
	
		<polyline fill="none" stroke="#000000" stroke-width="2" stroke-linecap="round" stroke-linejoin="round" stroke-miterlimit="10" points="
		40.2,34.3 43.7,40.3 45.4,41.2 48,40.1 	"/>
	
		<line fill="none" stroke="#000000" stroke-width="2" stroke-linecap="round" stroke-linejoin="round" stroke-miterlimit="10" x1="34.2" y1="22.2" x2="34.8" y2="24.2"/>
	
		<line fill="none" stroke="#000000" stroke-width="2" stroke-linecap="round" stroke-linejoin="round" stroke-miterlimit="10" x1="36.1" y1="24.2" x2="36.8" y2="22.2"/>
	<rect x="31" y="34" fill="#EA5A47" width="9" height="4"/>
	<rect x="31" y="43" fill="#EA5A47" width="9" height="4"/>
	<path fill="none" stroke="#000000" stroke-width="2" stroke-linecap="round" stroke-linejoin="round" stroke-miterlimit="10" d="
		M39.4,33.4c-5.2,1.7-8.3-0.1-8.3-0.1"/>
	<path fill="none" stroke="#000000" stroke-width="2" stroke-linecap="round" stroke-linejoin="round" stroke-miterlimit="10" d="
		M30.8,37.3c0,0,4.8,2.2,8.8,0"/>
	<path fill="none" stroke="#000000" stroke-width="2" stroke-linecap="round" stroke-linejoin="round" stroke-miterlimit="10" d="
		M42,55.9c0,0-2.2-6.9,2.8-3s-3,9.9-6.8,6.9c-3.8-3-9.8-18.5-5.5-33.2c0,0,3.4-5.2,6,0c2.6,5.2,1.2,20.7,0.2,24.1
		c-1,3.4-1,6,2.4,7.3"/>
	<path fill="none" stroke="#000000" stroke-width="2" stroke-linecap="round" stroke-linejoin="round" stroke-miterlimit="10" d="
		M25.6,48.2h3.2l1.6-1.7l0.8-4.3c0,0,5.6,1.7,8.7,0l0.8,4.3l1.6,1.7h3.2"/>
	<path fill="none" stroke="#000000" stroke-width="2" stroke-linecap="round" stroke-linejoin="round" stroke-miterlimit="10" d="
		M31.9,46.3c0,0,4,1.8,7.4,0.1"/>
</g>
</svg>
