<?xml version="1.0" encoding="utf-8"?>
<!-- Generator: Adobe Illustrator 21.1.0, SVG Export Plug-In . SVG Version: 6.00 Build 0)  -->
<svg version="1.1" id="emoji" xmlns="http://www.w3.org/2000/svg" xmlns:xlink="http://www.w3.org/1999/xlink" x="0px" y="0px"
	 viewBox="0 0 72 72" enable-background="new 0 0 72 72" xml:space="preserve">
<g id="_xD83E__xDD8A__xFE0F__1_">
	<path fill="#E27022" d="M17.1,5.3l-3.3,4l-2.1,12.9l2.5,11.9l-2.5,5l0.5,11.4l2.2,4.5c0,0,6.9-3.3,8.8,3.9l12.9,3.8l13.2-4.2
		l0.7-2.4l3.6-2.3l3.5,0.5l2.6-6.1l0.6-6.3l-1.7-6.6l-0.8-1.3l1.4-4.8l0.2-8.9l-1-9.8l-1.7-3.9l-2.6-2.1L49,11.2L43.5,18h-1.3
		L37,16.5l-9.2,0.6l-4.8-5l-3.3-5.2L17.1,5.3"/>
	<path fill="#FFFFFF" d="M11.3,45.1c6-0.7,12,4.5,16,10h0l6,2.2l2.7,0.8l3.1-0.8l5.7-2.1c0,0,5.1-11.2,15.9-10.1l-2.1,8.3L56.9,55
		l-3.2-0.8l-3.1,1.4l-1.5,3.1c0,0-3.5,4.5-12.9,4.4c-5.8,0-12.3-1.4-13.5-4.5c-0.9-2.2-3.8-5-3.8-5l-4.5,0.4L11.3,45.1z"/>
	<path fill="#CFCECD" d="M28.8,61c0,0-0.4,3.5,1.4,5c1.7,1.5,6.4,1.7,6.4,1.7l6-1.8c0,0,1.7-1.7,0.9-5l-2.8,0.8l-6.5,0.2L28.8,61z"
		/>
	<path fill="#FFFFFF" d="M57.7,7.4l-3,2l-4.5,6l-1.5,7.1l0.2,2c0,0,5,8.4,11.2,0.3l-0.6-8.6l-0.9-7.2L57.7,7.4z"/>
	<path fill="#FFFFFF" d="M14.3,7.4l3,2l4.5,6l1.5,7.1l-0.2,2c0,0-5,8.4-11.3,0.3l0.6-8.6l0.9-7.2L14.3,7.4z"/>
	<path d="M29,41.7c0,0-3,1.6-4.5,1c-1.5-0.6-2.2-2.1-1.7-3.5c0.5-1.3,2.2-2,3.6-1.4C27.9,38.4,29,41.7,29,41.7z"/>
	<path fill="none" stroke="#000000" stroke-width="2" stroke-linecap="round" stroke-linejoin="round" stroke-miterlimit="10" d="
		M36,56.9c-1.5-0.2-2.7-0.9-3.6-2.1v-0.7"/>
	<path fill="none" stroke="#000000" stroke-width="2" stroke-linecap="round" stroke-linejoin="round" stroke-miterlimit="10" d="
		M16.9,10.3c0,0,7.8,5.9,5.3,13.7"/>
	<path fill="none" stroke="#000000" stroke-width="2" stroke-linecap="round" stroke-linejoin="round" stroke-miterlimit="10" d="
		M23.6,58.1c-1.5-3.3-4.5-4.4-5.2-4.2l-3.5,0.5c-2.7-2.7-3.1-10.2-3.1-10.2c-0.4-4.8,1-8.1,2.4-10.1l-0.4-0.7
		c-2.5-6.2-1-15.7-0.5-21.7c0.4-4.4,2.6-5.9,3.8-6.4c0.4-0.2,0.9-0.1,1.2,0.3c1.3,1.6,5.3,6.6,9.1,10.4c1.7,1.7,2.5,3.2,2.7,4.5"/>
	<path d="M43,41.7c0,0,3,1.6,4.5,1c1.5-0.6,2.2-2.1,1.7-3.5s-2.2-2-3.6-1.4C44.1,38.4,43,41.7,43,41.7z"/>
	<path fill="none" stroke="#000000" stroke-width="2" stroke-linecap="round" stroke-linejoin="round" stroke-miterlimit="10" d="
		M36.1,61.7v-4.8c1.5-0.2,2.7-0.9,3.6-2.1v-0.7"/>
	<path fill="none" stroke="#000000" stroke-width="2" stroke-linecap="round" stroke-linejoin="round" stroke-miterlimit="10" d="
		M43.7,50.2l1.2,5.8c0,0,0,6.7-7.4,6.1h-2.9c-7.4,0.5-7.4-6.1-7.4-6.1l1.2-5.8"/>
	<path fill="none" stroke="#000000" stroke-width="2" stroke-linecap="round" stroke-linejoin="round" stroke-miterlimit="10" d="
		M55.1,10.3c0,0-7.8,5.9-5.3,13.7"/>
	<path fill="none" stroke="#000000" stroke-width="2" stroke-linecap="round" stroke-linejoin="round" stroke-miterlimit="10" d="
		M48.4,58.1c1.5-3.3,4.5-4.4,5.2-4.2l3.5,0.5c2.7-2.7,3.1-10.2,3.1-10.2c0.4-4.8-1-8.1-2.4-10.1l0.4-0.7c2.5-6.2,1-15.7,0.5-21.7
		c-0.4-4.4-2.6-5.9-3.8-6.4c-0.4-0.2-0.9-0.1-1.2,0.3c-1.3,1.6-5.3,6.6-9.1,10.4c-1.7,1.8-2.5,3.3-2.8,4.6"/>
	<path fill="none" stroke="#000000" stroke-width="2" stroke-linecap="round" stroke-linejoin="round" stroke-miterlimit="10" d="
		M41.7,65.4c-3.8,2.1-7.4,2.1-10.8,0"/>
	<path fill="none" stroke="#000000" stroke-width="2" stroke-linecap="round" stroke-linejoin="round" stroke-miterlimit="10" d="
		M29,18c0,0,6.1-3.2,13.8-0.1"/>
</g>
</svg>
