<?xml version="1.0" encoding="utf-8"?>
<!-- Generator: Adobe Illustrator 19.1.0, SVG Export Plug-In . SVG Version: 6.00 Build 0)  -->
<svg version="1.1" id="emoji" xmlns="http://www.w3.org/2000/svg" xmlns:xlink="http://www.w3.org/1999/xlink" x="0px" y="0px"
	 viewBox="0 0 72 72" enable-background="new 0 0 72 72" xml:space="preserve">
<g id="_xD83E__xDD8C__1_">
	<path fill="#FFFFFF" d="M55,31.1l1.2,9.9c0,0-1,6.8,4.7,3.8l-1.7-3.2l1.1-4.6l-0.9-4.2L55,31.1z"/>
	<path fill="#A57939" d="M17.7,20.4L7.3,26L8,28.2c0,0,6.6,0.3,7.2,1.7s-2.4,13.8,10.9,18.4l3.4,15.2c0,0-1.8,4.6-1.6,4.4
		s2.9-0.1,2.9-0.1l1.9-5.6l-0.2-7.8l-0.5-5l4.3,0.3l7.2-1.1l4.3-0.2l2.8,4.4l-2.9,10.8L44.9,68h3.9l5.5-10.1l1.2-3.8L53.8,47
		l3.3-9.8c0,0,0.3-3.6-2.1-6.1s-13.2,0.5-13.2,0.5l-11.6-1.4l-4.3,0.3L24.5,28l-0.7-2.8c0,0,3-0.1,3.2-3.2c0,0-3.4-2.8-6.5-0.2
		C20.5,21.8,18,19.7,17.7,20.4z"/>
	<polygon fill="#6A462F" points="20.9,45.6 22.1,51.3 23.8,62.4 21.9,67.8 24.8,67.8 27.4,62.2 27.3,53.5 26.1,48.3 	"/>
	<path fill="none" stroke="#000000" stroke-width="2" stroke-linecap="round" stroke-linejoin="round" stroke-miterlimit="10" d="
		M28.2,67l1.2-3.5l-3.4-15.5c-12.3-3.9-10.4-17.7-10.4-17.7c-0.2-1.8-3.3-1.8-3.3-1.8l-2.6,0.2c-0.8,0.1-1.5-0.4-1.8-1.2L7.5,27
		c-0.3-0.8,0.1-1.6,0.8-2l9-4.5c0,0,2.2-0.9,3.2,1.5c0,0,1.1-2.7,6.5-0.6c0,0-0.4,4.1-5.1,4.1"/>
	<path fill="none" stroke="#000000" stroke-width="2" stroke-linecap="round" stroke-linejoin="round" stroke-miterlimit="10" d="
		M33,39.7l0.5,5.7c0,0-3,3-2.1,9.1"/>
	
		<polyline fill="none" stroke="#000000" stroke-width="2" stroke-linecap="round" stroke-linejoin="round" stroke-miterlimit="10" points="
		23.1,51.2 24.1,62.7 22.2,66.8 	"/>
	<path fill="none" stroke="#000000" stroke-width="2" stroke-linecap="round" stroke-linejoin="round" stroke-miterlimit="10" d="
		M23.8,28.7c0,0,0.7,3.2,4.9,1.9c1-0.3,2-0.3,3-0.1c2.5,0.6,10.1,1.4,13.9,0.8c0.6-0.1,1.1-0.3,1.6-0.5c1.6-0.6,6.7-2.1,11.7,2.3
		c2,1.8,1.8,4.8,1,7.2c0,0-0.9,2.7,0.5,3.8"/>
	
		<polyline fill="none" stroke="#000000" stroke-width="2" stroke-linecap="round" stroke-linejoin="round" stroke-miterlimit="10" points="
		47.6,37.4 46.8,46.6 50.9,53.3 47.5,63.9 45.1,67 	"/>
	<path fill="none" stroke="#000000" stroke-width="2" stroke-linecap="round" stroke-linejoin="round" stroke-miterlimit="10" d="
		M56.1,37.4c0,0,1,5-2.1,9.7c0,0,0.1,3.9,1.4,6.2l-2,4.2"/>
	<path fill="none" stroke="#000000" stroke-width="2" stroke-linecap="round" stroke-linejoin="round" stroke-miterlimit="10" d="
		M18.2,20.2c0,0,0.9-4.1,7.6-2.5c0,0,6,0.5,8-5.1s-2.2-7.7-2.2-7.7"/>
	<path fill="none" stroke="#000000" stroke-width="2" stroke-linecap="round" stroke-linejoin="round" stroke-miterlimit="10" d="
		M37.8,8.2c0,0,2.9,1.9,0.3,4.9c-2.5,2.9-4.8,2-4.8,2"/>
	<path fill="none" stroke="#000000" stroke-width="2" stroke-linecap="round" stroke-linejoin="round" stroke-miterlimit="10" d="
		M14.5,11c0,0-1.2,5,1.3,7s2.4,2.6,2.4,2.6"/>
	<path fill="none" stroke="#000000" stroke-width="2" stroke-linecap="round" stroke-linejoin="round" stroke-miterlimit="10" d="
		M27.8,10.7c0,0-1.3,1.7,0.1,4.2c0,0,0.6,1.6-0.7,2.9"/>
	<path fill="none" stroke="#000000" stroke-width="2" stroke-linecap="round" stroke-linejoin="round" stroke-miterlimit="10" d="
		M20.5,17.7c0,0-1.9-2.4,0.7-5"/>
	<path fill="none" stroke="#000000" stroke-width="2" stroke-linecap="round" stroke-linejoin="round" stroke-miterlimit="10" d="
		M36.2,48.9c4.8,0.5,8.9,0.5,11.6-0.6"/>
</g>
</svg>
