<?xml version="1.0" encoding="utf-8"?>
<!-- Generator: Adobe Illustrator 19.1.0, SVG Export Plug-In . SVG Version: 6.00 Build 0)  -->
<svg version="1.1" id="emoji" xmlns="http://www.w3.org/2000/svg" xmlns:xlink="http://www.w3.org/1999/xlink" x="0px" y="0px"
	 viewBox="0 0 72 72" enable-background="new 0 0 72 72" xml:space="preserve">
<g id="_xD83E__xDD85__1_">
	<path fill="#A57939" d="M16.8,49.5c0,0-5.6-13.5,14.6-12.3c0,0,4.5-20.2,32.5-26.9c0,0,5.6,26.9-23.6,38.1c0,0,0,9,9,11.2
		c1.2,0.3,3-0.3,3.4,0c2.2,2.2-12.3,4.5-15.7,3.4v-6.7c0,0-7.9,0-11.2-9C25.7,47.3,23.5,42.8,16.8,49.5z"/>
	<path fill="#6A462F" d="M33.6,29.3c0,0,0-19.1,6.7-22.4c0,0,5.6,4.5,4.5,11.2L33.6,29.3z"/>
	<path fill="#FFFFFF" d="M26.2,46.3c0,0-4.2-2.4-9.4,3.2c0,0-6.5-13.2,15.6-12.7L26.2,46.3z"/>
	<polygon fill="#FCEA2B" points="16.2,43.3 20.1,45.7 16.8,48.4 	"/>
	<g>
		<path fill="none" stroke="#000000" stroke-width="2" stroke-linecap="round" stroke-linejoin="round" stroke-miterlimit="10" d="
			M43.7,14.8c0-4.5-3.4-6.7-3.4-6.7c-6.7,4.5-6.7,17.9-7.9,24.7c-0.4,2.5-0.7,3.6-1.3,4.1c-1.1,0.8-3.2-0.1-8.8,1.1
			c-9,1.9-5.6,11.6-5.6,11.6c6.7-6.7,9-2.2,9-2.2c3.4,10.1,10.1,9,10.1,9c1.1,4.5,0,6.7,0,6.7c3.4,3.4,26.9-3.4,15.2-4.1
			c-11.7-0.7-10.7-10.5-10.7-10.5c4.1-2.3,7.6-4.7,10.5-7.1c0,0,0.7-1.9-1.5-7.5"/>
		<path fill="none" stroke="#000000" stroke-width="2" stroke-linecap="round" stroke-linejoin="round" stroke-miterlimit="10" d="
			M31.4,37.2c1.1-7.9,13.5-17.9,13.5-17.9s12.3-9,20.2-9c0,0,0,16.8-10.1,28c0,0,0-6.7-2.2-9"/>
		<path fill="none" stroke="#000000" stroke-width="2" stroke-linecap="round" stroke-linejoin="round" stroke-miterlimit="10" d="
			M30,54.2l-0.9,5.4c0,0-3.4-1.1-4.5,0"/>
		<path fill="none" stroke="#000000" stroke-width="2" stroke-linecap="round" stroke-linejoin="round" stroke-miterlimit="10" d="
			M29.1,59.6c0,0,2.2,0,2.2,1.1"/>
	</g>
	<path fill="none" stroke="#A57939" stroke-width="2" stroke-linecap="round" stroke-linejoin="round" stroke-miterlimit="10" d="
		M16.8,49.5"/>
</g>
</svg>
