<?xml version="1.0" encoding="utf-8"?>
<!-- Generator: Adobe Illustrator 19.1.0, SVG Export Plug-In . SVG Version: 6.00 Build 0)  -->
<svg version="1.1" id="emoji" xmlns="http://www.w3.org/2000/svg" xmlns:xlink="http://www.w3.org/1999/xlink" x="0px" y="0px"
	 viewBox="0 0 72 72" enable-background="new 0 0 72 72" xml:space="preserve">
<g id="_xD83E__xDD88__1_">
	<path fill="#9B9B9A" d="M18.2,41c0,0-3.2,5.9-7.2,9c0,0,2-4.1,1-8.3s-8-9.3-8-9.3s10,0,14,5.2c0,0,17,1,21-6.2c0,0,1-5.2-3-9.3
		c0,0,5,0,10,4.1c4.8,4,3.1,4.1,9.4,7.9c0.4,0.2,0.8,0.4,1.3,0.6c3.1,1,12.3,3.9,12.3,3.9s0,4.1-14,6.2c0,0-1,5.2-5,7.2
		c0,0,2-6.2-1-6.2c0,0-2,0-9-1"/>
	<path fill="#D0CFCE" d="M37.5,42.3c0,0-3.1,1.9-3.7,4.5c0,0-2.9-3-5-2.6l4.8-3.5"/>
	<path fill="#D0CFCE" d="M44.6,37c0,0,4.2,2,0,5"/>
	<path fill="#D0CFCE" d="M46.6,37c0,0,4.2,2,0,5"/>
	<path fill="#D0CFCE" d="M48.6,37c0,0,4.2,2,0,5"/>
	<path fill="none" stroke="#000000" stroke-width="2" stroke-linecap="round" stroke-linejoin="round" stroke-miterlimit="10" d="
		M40,44c7,1,9,1,9,1c3,0,1,6,1,6c4-2,5-7,5-7c14-2,14-6,14-6s-9.2-2.8-12.3-3.8c-0.5-0.1-0.9-0.3-1.3-0.6C49.1,30,50.8,29.9,46,26
		c-5-4-10-4-10-4c4,4,3,9,3,9c-4,7-21,6-21,6c-4-5-14-5-14-5s7,5,8,9s-1,8-1,8c4-3,7.2-8.7,7.2-8.7L27,42"/>
	<path fill="none" stroke="#000000" stroke-width="2" stroke-linecap="round" stroke-linejoin="round" stroke-miterlimit="10" d="
		M37,43c0,0-2.9,1.7-3.5,3.8c0,0-2.6-2.5-4.5-2.1l4.5-3"/>
	<path fill="none" stroke="#000000" stroke-linecap="round" stroke-linejoin="round" stroke-miterlimit="10" d="M45,37c0,0,2,2,0,5"
		/>
	<path fill="none" stroke="#000000" stroke-linecap="round" stroke-linejoin="round" stroke-miterlimit="10" d="M47,37c0,0,2,2,0,5"
		/>
	<path fill="none" stroke="#000000" stroke-linecap="round" stroke-linejoin="round" stroke-miterlimit="10" d="M49,37c0,0,2,2,0,5"
		/>
</g>
</svg>
