<?xml version="1.0" encoding="utf-8"?>
<!-- Generator: Adobe Illustrator 19.1.0, SVG Export Plug-In . SVG Version: 6.00 Build 0)  -->
<svg version="1.1" id="emoji" xmlns="http://www.w3.org/2000/svg" xmlns:xlink="http://www.w3.org/1999/xlink" x="0px" y="0px"
	 viewBox="0 0 72 72" enable-background="new 0 0 72 72" xml:space="preserve">
<g id="_xD83E__xDD84__1_">
	<path fill="#FFFFFF" d="M23.8,12.4l1.7,7.2l-5.3,5.3l-8.3,14.3l1,4.7l2.2,1.3l4-0.2l3.5-3.3l6.8-1.8c0,0,1.3,1.5,2.2,3
		s3.7,4.2,3.7,4.2l0.5,6l-1.8,6.2l-2,2.8c0,0,22,9.5,33.2-7l-0.5-6l-1.8-5l-3.3-5.2l-1-1.5l-0.2-5.2l-2.8-5.3l-5-3l-2.7-4.5
		l-5.2-4.2l-6.5-1.5l-5.7,1l-4.2-2.2L23.8,12.4z"/>
	<path fill="#EA5A47" d="M50.7,23.2l5.2,4.1c0,0,5.6,8.2-0.3,17.8c-7,11.5,0,0,0,0c-1.6,3.5-2.3,6.7-1.7,9.7l-5.3-4.4V34.3
		L50.7,23.2z"/>
	<polyline fill="#EA5A47" points="25.9,19.3 10.8,12 16,18.1 21.2,24 25.9,19.3 	"/>
	<path fill="#92D3F5" d="M29.7,13.6l10.8,0.1c0,0,9.2,4.1,10.5,11.8l0.7,9c-2.6,6.5-3.1,14.1,2.1,20.8l0,0c0,0-7.1,1.3-9.9-7.1
		l-1.6-4.8l0.3-6l1.4-5.6l-0.3-4.9l-2.3-4.3L38,19.8l-5.8-2.1L29.7,13.6"/>
	<path fill="#61B2E4" d="M58.5,36.8c0,0,5.5,6.4,7,15.1c0.2,1.1,0.1,2.2-0.1,3.3c-0.4,1.8-0.8,5,0.1,7.4c0.5,1.2-0.6,2.4-1.8,2.1
		c-3.7-0.8-9.2-3.6-10.3-8.1c0-0.1,0-0.2,0-0.3l-0.3-5.7c0-0.3,0.1-0.6,0.2-0.8l3.7-6.8c0.1-0.1,0.1-0.3,0.1-0.4L58.5,36.8"/>
	<path fill="none" stroke="#000000" stroke-width="2" stroke-linecap="round" stroke-linejoin="round" stroke-miterlimit="10" d="
		M58.5,37.8c1.8,2.4,6.5,6.7,6,16.2"/>
	<path fill="none" stroke="#000000" stroke-width="2" stroke-linecap="round" stroke-linejoin="round" stroke-miterlimit="10" d="
		M32.5,41.9c0,0,8.5,6.8,0,18.8"/>
	
		<polyline fill="none" stroke="#000000" stroke-width="2" stroke-linecap="round" stroke-linejoin="round" stroke-miterlimit="10" points="
		24.8,19.1 10.2,11.8 21.2,24 	"/>
	<path fill="none" stroke="#000000" stroke-width="2" stroke-linecap="round" stroke-linejoin="round" stroke-miterlimit="10" d="
		M35.2,30.9c0.5,8.4-9.3,9.7-12,10.3c-0.3,0.1-0.6,0.3-0.9,0.5l-2.2,2.2c-0.3,0.3-0.8,0.5-1.3,0.5h-3.5c-1.2,0-2.3-0.8-2.7-1.9
		L12.1,41c-0.3-0.8-0.2-1.6,0.3-2.3L21.2,24l4.7-4.7l-2.1-6.9c0,0,7.8-0.7,8.4,5.3c0,0,16.9,2.4,10.6,19.4c0,0-1.6,5.9,2.4,11.2"/>
	<path fill="none" stroke="#000000" stroke-width="2" stroke-linecap="round" stroke-linejoin="round" stroke-miterlimit="10" d="
		M30.9,14c0,0,22.2-4,20,20"/>
	<path fill="none" stroke="#000000" stroke-width="2" stroke-linecap="round" stroke-linejoin="round" stroke-miterlimit="10" d="
		M49.9,23.2c0,0,14.8,6.6,5.5,22.2c0,0-5.4,6.6,0.6,13.6"/>
	<circle cx="24.4" cy="28.9" r="2"/>
</g>
</svg>
