<?xml version="1.0" encoding="utf-8"?>
<!-- Generator: Adobe Illustrator 19.1.0, SVG Export Plug-In . SVG Version: 6.00 Build 0)  -->
<svg version="1.1" id="emoji" xmlns="http://www.w3.org/2000/svg" xmlns:xlink="http://www.w3.org/1999/xlink" x="0px" y="0px"
	 viewBox="0 0 72 72" enable-background="new 0 0 72 72" xml:space="preserve">
<g id="_xD83E__xDD90__1_">
	<path fill="#F4AA41" stroke="#F4AA41" stroke-width="2" stroke-miterlimit="10" d="M24.2,24.4c0,0,2.2,10.6,6.7,10.3
		c4.5-0.3,8.3,2.6,8.3,2.6s8.1,0.4,9.6-8.4c0,0,1,0-7.8-3.8c-9.9-4.2-15.6-1.5-15.6-1.5L24.2,24.4z"/>
	<path fill="#E27022" d="M36,34.6c0,0,7-4.6,6-8.6l7,3c0,0-2,7-9,8L36,34.6z"/>
	<path fill="#F4AA41" d="M34,55c0,0-5-1-5-4c0-2.8,7.9,0.5,8.9,2.6C38,53.7,38,53.9,38,54c0,2-1,6-7,7S34,55,34,55z"/>
	<path fill="#E27022" d="M41,53c0,0,9.8,0.7,12.4-7.7c0,0-1.4,2.7-10.4,2.7L41,53z"/>
	<path fill="#F4AA41" d="M41.7,41.5c0,0,10.3-3.8,9.9-10.6c0,0,4.8,4.4,0.7,10.8c0,0-4.9,4.3-9.8,1.9L41.7,41.5z"/>
	<path fill="none" stroke="#000000" stroke-width="2" stroke-linecap="round" stroke-linejoin="round" stroke-miterlimit="10" d="
		M35,35c0,0,5.9-1.6,7.1-8.4"/>
	<path fill="none" stroke="#000000" stroke-width="2" stroke-linecap="round" stroke-linejoin="round" stroke-miterlimit="10" d="
		M24.7,16.3c-4,5.4,0.7,7.2,0.7,7.2S31.1,20.8,41,25c8.8,3.8,7.8,3.8,7.8,3.8c-1.6,8.9-9.6,8.4-9.6,8.4s-3.7-2.9-8.3-2.6
		c-4.5,0.3-6.7-10.3-6.7-10.3s-7.2-5.4-4.3-9.9"/>
	<path fill="none" stroke="#000000" stroke-width="2" stroke-linecap="round" stroke-linejoin="round" stroke-miterlimit="10" d="
		M41.7,41.5c0,0,10.3-3.8,9.9-10.6c0,0,4.8,4.4,0.7,10.8c0,0-4.9,4.3-9.8,1.9L41.7,41.5z"/>
	<path fill="none" stroke="#000000" stroke-width="2" stroke-linecap="round" stroke-linejoin="round" stroke-miterlimit="10" d="
		M41,53c0,0,9.8,0.7,12.4-7.7c0,0-1.4,2.7-10.4,2.7L41,53z"/>
	<path fill="none" stroke="#000000" stroke-width="2" stroke-linecap="round" stroke-linejoin="round" stroke-miterlimit="10" d="
		M34,55c0,0-5-1-5-4c0-2.8,7.9,0.5,8.9,2.6C38,53.7,38,53.9,38,54c0,2-1,6-7,7S34,55,34,55z"/>
</g>
</svg>
