<?xml version="1.0" encoding="utf-8"?>
<!-- Generator: Adobe Illustrator 21.1.0, SVG Export Plug-In . SVG Version: 6.00 Build 0)  -->
<svg version="1.1" id="emoji" xmlns="http://www.w3.org/2000/svg" xmlns:xlink="http://www.w3.org/1999/xlink" x="0px" y="0px"
	 viewBox="0 0 72 72" enable-background="new 0 0 72 72" xml:space="preserve">
<g id="_xD83E__xDD93__1_">
	<path fill="#FFFFFF" d="M10.3,20.7l1.8,1.4c0,0-7.7,8-5.3,13.5l4.2-0.2c0,0,1.8-3.8,6.3-4.8l1,3.3c0,0,4.2,3.7,4.3,3.9
		c0.2,0.2,2.7,4.2,2.7,4.2l3.4,1.7l0.8,7.2l-1.2,10l2.5,0.8l1.2-0.7L34,44.6l3.8,0.3l9.2-1.8l2.6-3.4l3.4,4.8l1.9,4.7l-0.3,6.2
		l-1.2,3.2l-0.8,2l1.5,0.8l1.7-0.2l1.7-3.6l2.2-9.2L57.4,44l2.7-4c0,0,2.3-7.5-1.6-11.7s-8-3.5-8-3.5l-7.8,1.8c0,0-6.6-0.1-6.8-0.1
		s-4.9-0.9-4.9-0.9s0.6-2.3-1.8-4.1s-13.3-4.9-13.3-4.9S11.7,17.2,10.3,20.7z"/>
	<path fill="#CFCECD" d="M49.6,39.8L47,43.2l1.2,6.2l-4.5,10.7c0,0,2.8,1.1,3.1,1.1s5.2-8.2,5.2-8.2s2.4-4.8,0.9-8.5
		C51.5,40.8,49.6,39.8,49.6,39.8z"/>
	<path fill="#CFCECD" d="M13.3,22.6c0,0,3.4-4.4,17.1,4.2l0.6-1.2l-1.8-4.1l-12.5-4.8c0,0-7.1,0.8-5.8,4.2
		C11,21,13.3,22.6,13.3,22.6z"/>
	<path fill="none" stroke="#000000" stroke-width="2" stroke-linecap="round" stroke-linejoin="round" stroke-miterlimit="10" d="
		M18.2,25.4c0,0,1.4,5-2.5,6.1s-4.9,3.7-4.9,3.7s-3.9,1.9-4.7-1.9S9.8,25,9.8,25l2.6-2.6l-2-1.7c0,0,2.9-5.4,8.3-3.2
		s10.7,4.4,10.7,4.4s2.1,1.7,1.7,4.2c0,0,8.1,2.1,17.9-0.8c1.3-0.4,2.8-0.4,4.1-0.1c2.4,0.6,5.6,2.1,7.1,6.1C62.4,38,57,44,57,44
		l2,4.6l-1.5,9l-1.8,3.1c-0.2,0.4-0.6,0.6-1,0.6h-1c-0.9,0-1.4-0.9-1-1.7l1.4-2.4c1.3-3,1.3-6.3,0.3-9.3c-1.5-4.2-4.3-8.6-4.3-8.6
		s-3.1,7.3-12.7,4.4"/>
	<path fill="none" stroke="#000000" stroke-width="2" stroke-linecap="round" stroke-linejoin="round" stroke-miterlimit="10" d="
		M19.1,33.6c0,0,0.8,1.5,2.1,2.5c1.2,1,2.1,2.3,2.8,3.7c0.8,1.6,2.2,3.5,4.6,3.8l0.6,7.2c0,0,0,6.3-0.9,9.2
		c-0.2,0.6,0.2,1.2,0.8,1.2l1.9,0c0.5,0,0.9-0.4,0.9-0.9l0.4-9.2l0.7-6.6c0,0-0.4-4.4,0.8-6.1"/>
	<path fill="none" stroke="#000000" stroke-width="2" stroke-linecap="round" stroke-linejoin="round" stroke-miterlimit="10" d="
		M47.1,43c0,0-0.9,1.5,1.2,6.7c-0.8,3.4-1.9,7-4.5,9.9C43.5,60.2,44,61,44.7,61H46c0.8,0,1.5-0.4,1.9-1.1l0.8-1.5l2.4-5.4"/>
	<path fill="none" stroke="#000000" stroke-width="2" stroke-linecap="round" stroke-linejoin="round" stroke-miterlimit="10" d="
		M62.4,27.3c0,0,5-1.5,3.2,14.6"/>
	<path fill="none" stroke="#000000" stroke-width="2" stroke-linecap="round" stroke-linejoin="round" stroke-miterlimit="10" d="
		M40.5,26.7c0,0,5.7,4.3,2,14.3"/>
	<path fill="none" stroke="#000000" stroke-width="2" stroke-linecap="round" stroke-linejoin="round" stroke-miterlimit="10" d="
		M37.1,43.8c0,0,2.5-6.7,0.5-12.6"/>
	<path fill="none" stroke="#000000" stroke-width="2" stroke-linecap="round" stroke-linejoin="round" stroke-miterlimit="10" d="
		M47.4,25.7c0,0,3.7,5.6,1,10.5"/>
	<path fill="none" stroke="#000000" stroke-width="2" stroke-linecap="round" stroke-linejoin="round" stroke-miterlimit="10" d="
		M25,40.8c0,0,2.9-8.4,0-13.9"/>
</g>
</svg>
