<svg id="emoji" viewBox="0 0 72 72" xmlns="http://www.w3.org/2000/svg">
  <g id="color">
    <path fill="#d22f27" d="m39,53l-3,1.375-3-1.375-4,11c1.1921-.7964,2.5702-1.2701,4-1.375,1.1563-.0181,2.2589.4873,3,1.375.7411-.8877,1.8437-1.3931,3-1.375,1.4298.1049,2.8079.5786,4,1.375l-4-11Z"/>
    <path fill="#d22f27" d="m42.5136,32.4562c-.0811-.4646-.1721-.9271-.2728-1.3875-.4667-2.4375-1.2697-4.7985-2.386-7.0151-.03-.0558-.0686-.1051-.0995-.16-.0862-1.5833-1.3668-2.8388-2.9515-2.8936h-1.8485c-1.5845.0548-2.8651,1.3102-2.9515,2.8933-.031.0552-.0692.1045-.1.16-1.1162,2.2166-1.9192,4.5776-2.3859,7.0151-.1007.46-.1917.9225-.2728,1.3875-.6792,3.8858-.647,7.8626.0951,11.7368.1213.6283.2613,1.2521.42,1.8713.8919,3.4863,2.3088,6.8167,4.2021,9.8769.1394.1992.3066.3775.4964.5295.4126.3103.9063.4943,1.4213.5296.5146-.0354,1.0078-.2193,1.42-.5293.1899-.152.357-.3303.4965-.5295,1.8933-3.0602,3.3102-6.3906,4.2021-9.8769.1583-.6188.2983-1.2426.42-1.8713.7421-3.8742.7743-7.8511.095-11.7368Z"/>
    <path fill="#ea5a47" d="m29.76,46.0643c.2593,1.0132.5759,2.0088.9226,2.9929,3.3335-1.3772,7.0708-1.41,10.428-.0916.3333-.9543.6366-1.92.8877-2.9013.1583-.6188.2983-1.2426.42-1.8713.7421-3.8742.7743-7.8511.095-11.7368-.081-.4646-.1719-.9271-.2727-1.3875-.4667-2.4375-1.2697-4.7985-2.386-7.0151-.03-.0558-.0685-.1051-.0995-.16-.0862-1.5832-1.3667-2.8387-2.9513-2.8936h-1.8485c-1.5845.0548-2.8651,1.3101-2.9515,2.8932-.031.0553-.0692.1046-.1.16-1.1162,2.2167-1.9192,4.5776-2.386,7.0151-.1006.46-.1915.9225-.2727,1.3875-.6792,3.8858-.647,7.8626.0951,11.7368.1216.6285.2615,1.2524.4198,1.8717Z"/>
    <path fill="#d22f27" d="m29.4432,44.65c4.0191-2.1572,8.8415-2.2021,12.9-.12.0231-.1129.0538-.2241.0757-.3373.7421-3.8742.7743-7.8511.095-11.7368-.081-.4646-.1719-.9271-.2727-1.3875-.4667-2.4375-1.2697-4.7985-2.386-7.0151-.03-.0558-.0685-.1051-.0995-.16-.0864-1.5833-1.3672-2.8387-2.9519-2.8933h-1.8485c-1.5845.0548-2.8651,1.3101-2.9515,2.8932-.031.0553-.0692.1046-.1.16-1.1162,2.2167-1.9192,4.5776-2.386,7.0151-.1006.46-.1915.9225-.2727,1.3875-.6792,3.8858-.647,7.8626.0951,11.7368.0298.1539.0711.3047.103.4574Z"/>
    <path fill="#ea5a47" d="m36,38c2.4416-.0062,4.8406.6394,6.9494,1.87.1364-2.48-.0098-4.9674-.4359-7.4143-.081-.4646-.1719-.9271-.2727-1.3875-.4667-2.4375-1.2697-4.7985-2.386-7.0151-.03-.0558-.0685-.1051-.0995-.16-.0865-1.5831-1.367-2.8383-2.9515-2.8931h-1.8485c-1.5845.0548-2.8651,1.3101-2.9515,2.8932-.031.0553-.0692.1046-.1.16-1.1162,2.2167-1.9192,4.5776-2.386,7.0151-.1006.46-.1915.9225-.2727,1.3875-.4324,2.4899-.575,5.0215-.4251,7.5442,2.1628-1.3168,4.6479-2.0091,7.18-2Z"/>
    <path fill="#d22f27" d="m36,33c2.3941-.005,4.7479.6163,6.8276,1.8022-.0789-.7855-.1784-1.5688-.3141-2.346-.081-.4646-.1719-.9271-.2727-1.3875-.4667-2.4375-1.2697-4.7985-2.386-7.0151-.03-.0558-.0685-.1051-.0995-.16-.0862-1.5833-1.3668-2.8388-2.9515-2.8936h-1.8485c-1.5845.0548-2.8651,1.3101-2.9515,2.8932-.031.0553-.0692.1046-.1.16-1.1162,2.2167-1.9192,4.5776-2.386,7.0151-.1006.46-.1915.9225-.2727,1.3875-.1439.8246-.249,1.6559-.3292,2.49,2.1405-1.2808,4.5897-1.9535,7.0841-1.9458Z"/>
    <path fill="#ea5a47" d="m29.538,30c-.5253.94-5.4979.1019-9-3-1.0848-.9608-4.2232-3.7406-4-8,.2014-3.6335,2.5683-6.7893,6-8,1.6296-.4974,3.3704-.4974,5,0-1.1435,2.2418-2.4664,4.59-4,7-.6637,1.0429-1.3303,2.0429-2,3,.7247.7036,1.7686,1.7319,3,3,3.5345,3.64,5.302,5.46,5,6Z"/>
    <path fill="#ea5a47" d="m41,30c.5252.94,5.4979.1019,9-3,1.0848-.9608,4.2232-3.7406,4-8-.2014-3.6335-2.5683-6.7893-6-8-1.6296-.4974-3.3704-.4974-5,0,1.1434,2.2418,2.4664,4.59,4,7,.6637,1.0429,1.3303,2.0429,2,3-.7248.7036-1.7686,1.7319-3,3-3.5345,3.64-5.3017,5.46-5,6Z"/>
  </g>
  <g id="line">
    <polyline fill="none" stroke="#000" stroke-linecap="round" stroke-linejoin="round" stroke-width="2" points="43 33 50 33 55 31"/>
    <polyline fill="none" stroke="#000" stroke-linecap="round" stroke-linejoin="round" stroke-width="2" points="42.827 34.277 51.747 36.423 56.059 35.433"/>
    <polyline fill="none" stroke="#000" stroke-linecap="round" stroke-linejoin="round" stroke-width="2" points="44.219 35.901 52.227 39.961 55 43"/>
    <polyline fill="none" stroke="#000" stroke-linecap="round" stroke-linejoin="round" stroke-width="2" points="44.1 36.744 48.042 42.529 47.576 46.476"/>
    <polyline fill="none" stroke="#000" stroke-linecap="round" stroke-linejoin="round" stroke-width="2" points="29 33 22 33 17 31"/>
    <polyline fill="none" stroke="#000" stroke-linecap="round" stroke-linejoin="round" stroke-width="2" points="29.173 34.277 20.253 36.423 15.941 35.433"/>
    <polyline fill="none" stroke="#000" stroke-linecap="round" stroke-linejoin="round" stroke-width="2" points="27.781 35.901 19.773 39.961 17 43"/>
    <polyline fill="none" stroke="#000" stroke-linecap="round" stroke-linejoin="round" stroke-width="2" points="27.9 36.744 23.958 42.529 24.424 46.476"/>
    <path fill="none" stroke="#000" stroke-linecap="round" stroke-linejoin="round" stroke-width="2" d="m37.0909,21c-.1566-2.6628-.1566-5.3324,0-7.9952.1422-3.0924.353-4.0369.9849-4.5687,1.58-1.33,2.6166.7838,2.9242,1.0159"/>
    <path fill="none" stroke="#000" stroke-linecap="round" stroke-linejoin="round" stroke-width="2" d="m34.8931,21c.1568-2.6628.1568-5.3324,0-7.9952-.1422-3.0924-.3529-4.0369-.9848-4.5687-1.58-1.33-2.6166.7838-2.9242,1.0159"/>
    <line x1="28.3644" x2="24.7115" y1="15.1851" y2="16.8149" fill="none" stroke="#000" stroke-linecap="round" stroke-linejoin="round" stroke-width="2"/>
    <path fill="none" stroke="#000" stroke-linecap="round" stroke-linejoin="round" stroke-width="2" d="m32.645,53.9761l-3.645,10.0239c1.1921-.7964,2.5702-1.2701,4-1.375,1.1563-.0181,2.2589.4873,3,1.375v-6.6944"/>
    <path fill="none" stroke="#000" stroke-linecap="round" stroke-linejoin="round" stroke-width="2" d="m39.35,53.9629l3.65,10.0371c-1.1921-.7964-2.5702-1.2701-4-1.375-1.1563-.0181-2.2589.4873-3,1.375v-6.6944"/>
    <path fill="none" stroke="#000" stroke-linecap="round" stroke-linejoin="round" stroke-width="2" d="m29.538,30c-.5253.94-5.4979.1019-9-3-1.0848-.9608-4.2232-3.7406-4-8,.2014-3.6335,2.5683-6.7893,6-8,1.6296-.4974,3.3704-.4974,5,0-1.1435,2.2418-2.4664,4.59-4,7-.6637,1.0429-1.3303,2.0429-2,3,.7247.7036,1.7686,1.7319,3,3,3.5345,3.64,5.302,5.46,5,6Z"/>
    <path fill="none" stroke="#000" stroke-linejoin="round" stroke-width="2" d="m42.5136,32.4562c-.0811-.4646-.1721-.9271-.2728-1.3875-.4667-2.4375-1.2697-4.7985-2.386-7.0151-.03-.0558-.0686-.1051-.0995-.16-.0862-1.5833-1.3668-2.8388-2.9515-2.8936h-1.8485c-1.5845.0548-2.8651,1.3102-2.9515,2.8933-.031.0552-.0692.1045-.1.16-1.1162,2.2166-1.9192,4.5776-2.3859,7.0151-.1007.46-.1917.9225-.2728,1.3875-.6792,3.8858-.647,7.8626.0951,11.7368.1213.6283.2613,1.2521.42,1.8713.8919,3.4863,2.3088,6.8167,4.2021,9.8769.1394.1992.3066.3775.4964.5295.4126.3103.9063.4943,1.4213.5296.5146-.0354,1.0078-.2193,1.42-.5293.1899-.152.357-.3303.4965-.5295,1.8933-3.0602,3.3102-6.3906,4.2021-9.8769.1583-.6188.2983-1.2426.42-1.8713.7421-3.8742.7743-7.8511.095-11.7368Z"/>
    <path fill="none" stroke="#000" stroke-linecap="round" stroke-linejoin="round" stroke-width="2" d="m36,33c2.3941-.005,4.7479.6163,6.8276,1.8022-.0789-.7855-.1784-1.5688-.3141-2.346-.081-.4646-.1719-.9271-.2727-1.3875-.4667-2.4375-1.2697-4.7985-2.386-7.0151-.03-.0558-.0685-.1051-.0995-.16-.0862-1.5833-1.3668-2.8388-2.9515-2.8936h-1.8485c-1.5845.0548-2.8651,1.3101-2.9515,2.8932-.031.0553-.0692.1046-.1.16-1.1162,2.2167-1.9192,4.5776-2.386,7.0151-.1006.46-.1915.9225-.2727,1.3875-.1439.8246-.249,1.6559-.3292,2.49,2.1405-1.2808,4.5897-1.9535,7.0841-1.9458Z"/>
    <path fill="none" stroke="#000" stroke-linecap="round" stroke-linejoin="round" stroke-width="2" d="m42,30c.5252.94,5.4979.1019,9-3,1.0848-.9608,4.2232-3.7406,4-8-.2014-3.6335-2.5683-6.7893-6-8-1.6296-.4974-3.3704-.4974-5,0,1.1434,2.2418,2.4664,4.59,4,7,.6637,1.0429,1.3303,2.0429,2,3-.7248.7036-1.7686,1.7319-3,3-3.5345,3.64-5.3017,5.46-5,6Z"/>
    <line x1="43.1736" x2="46.8264" y1="15.1851" y2="16.8149" fill="none" stroke="#000" stroke-linecap="round" stroke-linejoin="round" stroke-width="2"/>
    <path fill="none" stroke="#000" stroke-linecap="round" stroke-linejoin="round" stroke-width="2" d="m29.4432,44.65c4.0191-2.1572,8.8415-2.2021,12.9-.12.0231-.1129.0538-.2241.0757-.3373.7421-3.8742.7743-7.8511.095-11.7368-.081-.4646-.1719-.9271-.2727-1.3875-.4667-2.4375-1.2697-4.7985-2.386-7.0151-.03-.0558-.0685-.1051-.0995-.16-.0864-1.5833-1.3672-2.8387-2.9519-2.8933h-1.8485c-1.5845.0548-2.8651,1.3101-2.9515,2.8932-.031.0553-.0692.1046-.1.16-1.1162,2.2167-1.9192,4.5776-2.386,7.0151-.1006.46-.1915.9225-.2727,1.3875-.6792,3.8858-.647,7.8626.0951,11.7368.0298.1539.0711.3047.103.4574Z"/>
    <path fill="none" stroke="#000" stroke-linecap="round" stroke-linejoin="round" stroke-width="2" d="m29.76,46.0643c.2593,1.0132.5759,2.0088.9226,2.9929,3.3335-1.3772,7.0708-1.41,10.428-.0916.3333-.9543.6366-1.92.8877-2.9013.1583-.6188.2983-1.2426.42-1.8713.7421-3.8742.7743-7.8511.095-11.7368-.081-.4646-.1719-.9271-.2727-1.3875-.4667-2.4375-1.2697-4.7985-2.386-7.0151-.03-.0558-.0685-.1051-.0995-.16-.0862-1.5832-1.3667-2.8387-2.9513-2.8936h-1.8485c-1.5845.0548-2.8651,1.3101-2.9515,2.8932-.031.0553-.0692.1046-.1.16-1.1162,2.2167-1.9192,4.5776-2.386,7.0151-.1006.46-.1915.9225-.2727,1.3875-.6792,3.8858-.647,7.8626.0951,11.7368.1216.6285.2615,1.2524.4198,1.8717Z"/>
    <path fill="none" stroke="#000" stroke-linecap="round" stroke-linejoin="round" stroke-width="2" d="m36,38c2.4416-.0062,4.8406.6394,6.9494,1.87.1364-2.48-.0098-4.9674-.4359-7.4143-.081-.4646-.1719-.9271-.2727-1.3875-.4667-2.4375-1.2697-4.7985-2.386-7.0151-.03-.0558-.0685-.1051-.0995-.16-.0865-1.5831-1.367-2.8383-2.9515-2.8931h-1.8485c-1.5845.0548-2.8651,1.3101-2.9515,2.8932-.031.0553-.0692.1046-.1.16-1.1162,2.2167-1.9192,4.5776-2.386,7.0151-.1006.46-.1915.9225-.2727,1.3875-.4324,2.4899-.575,5.0215-.4251,7.5442,2.1628-1.3168,4.6479-2.0091,7.18-2Z"/>
  </g>
</svg>
