<?xml version="1.0" encoding="utf-8"?>
<!-- Generator: Adobe Illustrator 22.0.1, SVG Export Plug-In . SVG Version: 6.00 Build 0)  -->
<svg version="1.1" id="emoji" xmlns="http://www.w3.org/2000/svg" xmlns:xlink="http://www.w3.org/1999/xlink" x="0px" y="0px"
	 viewBox="0 0 72 72" enable-background="new 0 0 72 72" xml:space="preserve">
<g id="_xD83E__xDD95_">
	<path fill="#A57939" d="M5,52c0,0,15-3,17-10s14.7-11.2,20.8-8.6c0,0,6.3,0.6,8.2-7.4C53,18,55,9,62,10s6.2,6.3,4.1,7.2
		C64,18,61,18,60,19.5s-2.2,16.2-6.6,19.8c0,0-4.9,6.5-4.7,9.6C49,52,50.6,61.2,47,61c-3.6-0.3-3-7-3-8s-8-3-11-1s-2.2,8-4.6,8.5
		s-4.9,0.3-5.7-0.6c-0.8-0.9,0.6-6.7-0.5-8.7"/>
	<path fill="none" stroke="#000000" stroke-width="2" stroke-linecap="round" stroke-linejoin="round" d="M5,52c0,0,15-3,17-10
		s14.7-11.2,20.8-8.6c0,0,6.3,0.6,8.2-7.4C53,18,55,9,62,10s6.2,6.3,4.1,7.2C64,18,61,18,60,19.5s-2.2,16.2-6.6,19.8
		c0,0-4.9,6.5-4.7,9.6C49,52,50.6,61.2,47,61c-3.6-0.3-3-7-3-8s-8-3-11-1s-2.2,8-4.6,8.5s-4.9,0.3-5.7-0.6c-0.8-0.9,0.6-6.7-0.5-8.7
		"/>
</g>
</svg>
