<svg id="emoji" xmlns="http://www.w3.org/2000/svg" viewBox="0 0 72 72">
  <g id="color">
    <path fill="#FFA7C0" d="M61.6,39.5c-0.6562-0.2051-1.4178-0.4828-2.2552-0.8501c-4.7458-2.5281-7.86-7.1142-10.7448-8.9499 c-4.4-2.9-11.6-3.8-16.1-0.3c-2.1,1.6-3,3.8-3.5,5.2c-0.5,0.2-1.2,0.3-1.8-0.1c-0.5-0.3-1.1-1.2-0.8-4.2c0.5-5.1,2.3-5.9,2-9.2 c-0.3-2.4-1.4-4-2-4.8c-1-1.3-2.5-3.5-4.7-3.3c-1.7,0.1-2.8,1.5-3.1,2c-1.8,0-3.2,1.1-3.7,2.5c-0.7,2.1,1.2,4.3,1.7,4.2 c0.3-0.1,0.1-1,0.6-2.3c0.4-0.9,1.1-0.8,1.6-1.2c1,0,1.8,0.8,2.8,0.8c0.6,0,1.9-0.7,1.9-0.7c0.8,0.5,1,1.1,1.3,2.4 c0.3,1.6,0.1,2.5-0.6,3.9c-0.5,1.2-3,6.5-1.8,9.8c0.3,1,1.4,2.9,5.6,4.1c0.5,0.7,1.5,1.9,3.1,2.7c2.4,1.3,4.6,1.1,5.5,1 c1.2,1.2,1.6,1,2.8,2.2c15.1045,2.4362,13.9746-1.9641,21.5876-4.6888C60.9876,39.7112,61.5348,39.5212,61.6,39.5z"/>
  </g>
  <g id="line">
    <path fill="none" stroke="#000000" stroke-width="2" stroke-linecap="round" stroke-linejoin="round" stroke-miterlimit="10" d="M42.5,45.7c1.3,3.2,2.6,6.4,3.9,9.5c-0.3,3.2-0.4,4.1-0.8,7.2"/>
    <path fill="none" stroke="#000000" stroke-width="2" stroke-linecap="round" stroke-linejoin="round" stroke-miterlimit="10" d="M42.7,45.7c2.3,2.7,8.8,8,8.8,8s-11.6-0.3-16.4-0.5c-0.7,0.7-1.4,1.4-2.1,2.1"/>
    <path fill="none" stroke="#000000" stroke-width="2" stroke-linecap="round" stroke-linejoin="round" stroke-miterlimit="10" d="M23.5,19.2c0,0-0.6,0.8-1.9,0.7c-1-0.1-1.5-1.4-2.5-1.4c-0.8-0.1-2.2,3.1-2.5,3.1c-0.5,0.1-2.4-2.1-1.7-4.2 c0.5-1.4,1.9-2.5,3.7-2.5c0.3-0.5,1.4-1.9,3.1-2c2.2-0.2,3.7,2,4.7,3.3c0.6,0.8,1.7,2.4,2,4.8c0.3,3.3-1.5,4.1-2,9.2 c-0.3,3,0.3,3.9,0.8,4.2c0.6,0.4,1.3,0.3,1.8,0.1c0.5-1.4,1.4-3.6,3.5-5.2c4.5-3.5,11.7-2.6,16.1,0.3c3.3,2.1,3.2,4.1,7.8,7.2 c2.5,1.7,4.7,2.6,6.3,3.1c-8.3,2.7-12.3,5.5-16.8,5.7c-2.5,0.1-8.1-2.2-9.2-3.4"/>
    <path fill="none" stroke="#000000" stroke-width="2" stroke-linecap="round" stroke-linejoin="round" stroke-miterlimit="10" d="M28,38.5c0.5,0.7,1.5,1.9,3.1,2.7c2.4,1.3,4.6,1.1,5.5,1"/>
    <path fill="none" stroke="#000000" stroke-width="2" stroke-linecap="round" stroke-linejoin="round" stroke-miterlimit="10" d="M24.2,24.6c-0.5,1.2-3,6.5-1.8,9.8c0.3,1,1.4,2.9,5.6,4.1"/>
  </g>
</svg>
