<svg id="emoji" xmlns="http://www.w3.org/2000/svg" viewBox="0 0 72 72">
  <g id="color"/>
  <g id="skin">
    <path fill="#a57939" d="M61.86,16.8c-0.024,5.42-0.445,11.98-0.848,18.68c-0.267,4.434,5.676,15.82-1.454,19.47 c-2.972,1.52-12.55-4.339-30.6-1.208c-3.834,0.665-4.688-0.362-8.458-0.215c-2.567,0.101-4.994,1.558-7.474,1.244 c-2.096-0.172-4.182-1.655-4.099-3.756c0.06-1.516,1.524-2.803,2.96-3.292c5.168-1.761,16.614-7.019,20.854-9.841 c6.053-4.028,5.586-1.749,7.846-5.855c0.258-0.48,0.416-1.008,0.464-1.551c0.489-4.179,0.557-8.396,0.205-12.59"/>
  </g>
  <g id="line">
    <path fill="none" stroke="#000000" stroke-width="2" stroke-linecap="round" stroke-linejoin="round" d="M61.6377,17.3246 c-0.0908,5.42-0.3316,11.5454-0.817,18.2428c-0.0795,1.0999-0.0982,2.8023,0.8858,4.7978 c2.7477,5.5694,2.1558,13.5209-4.6209,14.3116c-7.6607,0.1867-10.2145-2.6959-18.0686-2.412 c-2.8331,0.1024-6.3566,0.617-11.0586,1.8371c-2.7468,0.7133-5.0841-0.8199-8.6465-0.6936 c-3.0975,0.11-4.5518,1.6566-7.4682,1.1474c-1.8093-0.3162-3.142-1.4704-3.0797-3.3063c0.0461-1.3602,0.8563-3.0287,2.0763-3.6317 c1.6608-0.8211,4.6194-1.112,6.5725-1.8782c3.9599-1.5526,11.0438-4.6432,15.164-8.1185c3.0653-1.609,5.1749-1.3853,7.5296-5.1977 c0.4675-0.7446,0.7583-1.5872,0.8499-2.4616c0.3239-3.7952,0.3402-7.6108,0.0497-11.4049"/>
    <path fill="none" stroke="#000000" stroke-width="2" stroke-linecap="round" stroke-linejoin="round" d="M52.4494,38.3552 c0.8211-0.2443,2.8341-1.0155,2.1313-5.605"/>
  </g>
</svg>
