<svg id="emoji" xmlns="http://www.w3.org/2000/svg" viewBox="0 0 72 72">
  <g id="hair">
    <g id="hair-2" data-name="hair">
      <path d="M25.26,38.0959c-3,0-4-7-4-14,0-6,5-12,14-12s14,6,14,12c0,7-1,14-4,14" fill="#fcea2b"/>
    </g>
  </g>
  <g id="skin">
    <g id="skin-2" data-name="skin">
      <path d="M24.1968,31.0959c-.1015,7.999,4.0635,14,11,14,7.0635,0,11.0635-6,11.0635-14,0-5-3-10-3-10-8,0-10,3-16,1A17.0768,17.0768,0,0,0,24.1968,31.0959Z" fill="#debb90"/>
    </g>
  </g>
  <g id="color">
    <path d="M16.2192,60.9583V57.1252c0-4.9941,5.0078-9,10-9q9,7.5,18,0c4.9941,0,10,4.0059,10,9v3.8331Z" fill="#b1cc33"/>
    <path d="M46.2679,60.9583c-1.1319-3.474-2.9781-7.8938-5.4474-9.6662H29.9474a18.0756,18.0756,0,0,0-5.4666,9.6662Z" fill="#3f3f3f"/>
    <path d="M35.1968,45.0959c-7.19,0-7.1576-3.49-7.1576-3.49l-15.42-.0232a51.946,51.946,0,0,1,4.3183,8.4458c1.4877,3.7189,9.07-4.7309,9.5661-1.9036.7971.3379,2.8026,3.6042,7.9547,3.6042s5.7586-2.3464,10.1676-3.7157c5.0483-1.0154,7.4046,5.734,8.8924,2.0151a51.9542,51.9542,0,0,1,4.3182-8.4458l-15.5127.0234S42.3972,45.0959,35.1968,45.0959Z" fill="#3f3f3f"/>
    <path d="M34.9054,32.7059s-4.93,5.9547-11.8029,0c-.2966-.32-.5988-.6715-.8992-1.0569,0,0-.4764-.6114-.8891-1.26-.85-1.3364-2.8267-7.9406-2.4223-8.0678.2789-.0877.66,3.2242,2.9046,4.1451a2.0481,2.0481,0,0,0,.4557.1338,5.4246,5.4246,0,0,0,2.3579-.1475,14.6618,14.6618,0,0,1,7.0125-.2452,6.4363,6.4363,0,0,1,3.2828,2.49H34.91a5.8036,5.8036,0,0,1,2.922-2.5138c2.4286-.8772,6.2354-.0768,7.3733.2687a5.4125,5.4125,0,0,0,2.3579.1474,2.0422,2.0422,0,0,0,.4557-.1337c2.2444-.9209,2.6256-4.2328,2.9046-4.1451.4044.1272-1.5719,6.7314-2.4223,8.0678-.4128.6486-.8891,1.26-.8891,1.26-.3.3854-.6026.7371-.8992,1.0569a8.2594,8.2594,0,0,1-6.5022,2.6357A7.9421,7.9421,0,0,1,34.9054,32.7059Z" fill="#5c9e31"/>
  </g>
  <g id="line">
    <g>
      <g>
        <path d="M27.4689,41.6054l-14.85-.0224a51.946,51.946,0,0,1,4.3183,8.4458q.3773.9431.7012,1.8574" fill="none" stroke="#000" stroke-linejoin="round" stroke-width="2"/>
        <path d="M52.8247,51.8645q.3213-.9033.6935-1.8357a51.9542,51.9542,0,0,1,4.3182-8.4458l-14.8674.0224" fill="none" stroke="#000" stroke-linejoin="round" stroke-width="2"/>
        <path d="M41.1333,30.0959a2,2,0,1,1-2-2,2,2,0,0,1,2,2"/>
        <path d="M33.1333,30.0959a2,2,0,1,1-2-2,2,2,0,0,1,2,2"/>
        <path d="M38.1333,38.9084a8.2737,8.2737,0,0,0-6,0" fill="none" stroke="#000" stroke-linecap="round" stroke-linejoin="round" stroke-width="2"/>
        <path d="M49.0261,29.4473c-.0161.2553-.0307.4545-.0431.5732-.4718,4.55-1.5935,8.0754-3.7227,8.0754" fill="none" stroke="#000" stroke-linecap="round" stroke-linejoin="round" stroke-width="2"/>
        <path d="M21.2874,26.0546c-.0184-.6491-.0271-1.3039-.0271-1.9587,0-6,5-12,14-12s14,6,14,12c0,.1622-.0155.642-.04,1.2651" fill="none" stroke="#000" stroke-linecap="round" stroke-linejoin="round" stroke-width="2"/>
        <path d="M25.26,38.0959c-1.9463,0-3.0509-2.9464-3.5866-6.9276" fill="none" stroke="#000" stroke-linecap="round" stroke-linejoin="round" stroke-width="2"/>
        <path d="M45.57,26.35a35.9409,35.9409,0,0,0-2.31-6.2545c-8,0-10,3-16,1a25.9534,25.9534,0,0,0-2.2073,5.076" fill="none" stroke="#000" stroke-linejoin="round" stroke-width="2"/>
        <path d="M24.3232,33.4888c.8159,6.7735,5.4317,11.6071,10.8736,11.6071,5.4561,0,10.2285-5.0683,10.9651-12.0994" fill="none" stroke="#000" stroke-linejoin="round" stroke-width="2"/>
        <path d="M41.1333,30.0959a2,2,0,1,1-2-2,2,2,0,0,1,2,2"/>
        <path d="M33.1333,30.0959a2,2,0,1,1-2-2,2,2,0,0,1,2,2"/>
        <path d="M19.7772,53.6671a11.8957,11.8957,0,0,1,4.048-3.3589,11.7524,11.7524,0,0,1,3.3071-1.088" fill="none" stroke="#000" stroke-linecap="round" stroke-miterlimit="10" stroke-width="2"/>
        <path d="M28.4362,49.7066a10.3575,10.3575,0,0,0-6.7708,7.5255" fill="none" stroke="#000" stroke-linecap="round" stroke-miterlimit="10" stroke-width="2"/>
        <path d="M50.8668,53.91a11.8957,11.8957,0,0,0-4.048-3.3589,11.7524,11.7524,0,0,0-3.3071-1.088" fill="none" stroke="#000" stroke-linecap="round" stroke-miterlimit="10" stroke-width="2"/>
        <path d="M42.2078,49.95a10.3571,10.3571,0,0,1,6.7707,7.5256" fill="none" stroke="#000" stroke-linecap="round" stroke-miterlimit="10" stroke-width="2"/>
        <path d="M41.5817,50.6486a26.4349,26.4349,0,0,1,4.19,6.3125A26.1221,26.1221,0,0,1,46.9668,59.96" fill="none" stroke="#000" stroke-linecap="round" stroke-miterlimit="10" stroke-width="2"/>
        <path d="M16.1606,60.0022v-3c0-4.9941,5.0078-9,10-9q9,7.5,18,0c4.9941,0,10,4.0059,10,9v3" fill="none" stroke="#000" stroke-linecap="round" stroke-linejoin="round" stroke-width="2"/>
        <path d="M29.1712,50.6006a21.0149,21.0149,0,0,0-4.2926,6.2814,20.56,20.56,0,0,0-1.0429,2.9617" fill="none" stroke="#000" stroke-linecap="round" stroke-miterlimit="10" stroke-width="2"/>
      </g>
      <path d="M34.9054,32.7059s-4.93,5.9547-11.8029,0c-.2966-.32-.5988-.6715-.8992-1.0569,0,0-.4764-.6114-.8891-1.26-.85-1.3364-2.8267-7.9406-2.4223-8.0678.2789-.0877.66,3.2242,2.9046,4.1451a2.0481,2.0481,0,0,0,.4557.1338,5.4246,5.4246,0,0,0,2.3579-.1475,14.6618,14.6618,0,0,1,7.0125-.2452,6.4363,6.4363,0,0,1,3.2828,2.49H34.91a5.8036,5.8036,0,0,1,2.922-2.5138c2.4286-.8772,6.2354-.0768,7.3733.2687a5.4125,5.4125,0,0,0,2.3579.1474,2.0422,2.0422,0,0,0,.4557-.1337c2.2444-.9209,2.6256-4.2328,2.9046-4.1451.4044.1272-1.5719,6.7314-2.4223,8.0678-.4128.6486-.8891,1.26-.8891,1.26-.3.3854-.6026.7371-.8992,1.0569a8.2594,8.2594,0,0,1-6.5022,2.6357A7.9421,7.9421,0,0,1,34.9054,32.7059Z" fill="none" stroke="#000" stroke-linecap="round" stroke-linejoin="round" stroke-width="2"/>
    </g>
  </g>
</svg>
