<svg id="emoji" xmlns="http://www.w3.org/2000/svg" viewBox="0 0 72 72">
  <g id="color">
    <g>
      <path d="M24.5425,20.0334a12.94,12.94,0,0,0,2.4795-2.0022c1.7657-1.9537,4.0605-3.2571,9.999-2.865a10.9281,10.9281,0,0,1,6.9381,3.4616s1.5312,1.9029,6.3239,3.25a14.8476,14.8476,0,0,1,7.3614,5.51s3.0882,3.9156-.23,10.6921c0,0-1.2158,2.2945-.8506,7.91,0,0,.6744,7.8305-4.22,8.0366a45.2555,45.2555,0,0,0-11.76.8412c-.2144.051-.42.11-.63.1765-1.5421.4861-8.7456,2.6682-12.2206,2.1493,0,0-2.0791-.2013-3.2147-3.38,0,0-.4178-2.4748-7.2869-6.483,0,0-6.4656-3.2052-3.7794-9.35a10.3016,10.3016,0,0,0,.58-1.5966,12.58,12.58,0,0,0,.2433-5.5582s-1.9488-6.0491,4.5539-7.87a7.77,7.77,0,0,0,1.6144-.6856Z" fill="#a57939"/>
      <path d="M45.3314,54.1329c-.4937,1.6987,5.19-.3511,5.5908-.1662a3.0636,3.0636,0,0,0,3.9259-.8006,8.33,8.33,0,0,0,1.6761-3.064c.7582-2.9963-.14-6.221.5835-9.226.8019-3.3307,2.3764-6.5477,2.0358-9.9544A9.3582,9.3582,0,0,0,56.2181,25.59,17.9667,17.9667,0,0,0,51.0966,21.87c-2.4545-1.1038-5.077-1.5114-7.1375-3.2426a16.02,16.02,0,0,0-2.8351-2.3187c-1.2462-.6306-3.66-1.7787-5.0545-1.7048C36.07,14.6043,52.4218,29.7359,45.3314,54.1329Z" fill="#6a462f"/>
    </g>
  </g>
  <g id="line">
    <g>
      <path d="M24.5425,20.0334a12.94,12.94,0,0,0,2.4795-2.0022c1.7657-1.9537,4.0605-3.2571,9.999-2.865a10.9281,10.9281,0,0,1,6.9381,3.4616s1.5312,1.9029,6.3239,3.25a14.8476,14.8476,0,0,1,7.3614,5.51s3.0882,3.9156-.23,10.6921c0,0-1.2158,2.2945-.8506,7.91,0,0,.6744,7.8305-4.22,8.0366a45.2555,45.2555,0,0,0-11.76.8412c-.2144.051-.42.11-.63.1765-1.5421.4861-8.7456,2.6682-12.2206,2.1493,0,0-2.0791-.2013-3.2147-3.38,0,0-.4178-2.4748-7.2869-6.483,0,0-6.4656-3.2052-3.7794-9.35a10.3016,10.3016,0,0,0,.58-1.5966,12.58,12.58,0,0,0,.2433-5.5582s-1.9488-6.0491,4.5539-7.87a7.77,7.77,0,0,0,1.6144-.6856Z" fill="none" stroke="#000" stroke-miterlimit="10" stroke-width="1.6783"/>
      <circle cx="29.7951" cy="51.9196" r="2"/>
      <circle cx="53.1344" cy="32.5514" r="2"/>
      <circle cx="33.8746" cy="31.8745" r="2"/>
      <circle cx="22.4841" cy="40.7061" r="2"/>
      <circle cx="39.26" cy="43.1535" r="2"/>
      <circle cx="31.4569" cy="40.185" r="1"/>
      <circle cx="52.1344" cy="41.7061" r="1"/>
      <circle cx="43.425" cy="36.185" r="1"/>
      <circle cx="40.7206" cy="50.7527" r="1"/>
      <circle cx="40.26" cy="27.3651" r="1"/>
      <circle cx="28.7951" cy="25.3651" r="1"/>
      <circle cx="18.3548" cy="34.7061" r="1"/>
      <circle cx="49.113" cy="27.3651" r="1"/>
      <circle cx="49.1344" cy="48.7527" r="2"/>
      <circle cx="35.8746" cy="20.318" r="2"/>
      <circle cx="20.4841" cy="27.7661" r="2"/>
    </g>
  </g>
</svg>
