<svg id="emoji" xmlns="http://www.w3.org/2000/svg" viewBox="0 0 72 72">
  <g id="color">
    <path d="M49.1452,65.8506c7.5237-4.3092,12.5339-10.6876,12.5339-19.9794,0-2.5213-2.0331-4.4758-2.7273-6.77l-5.3364-8.3055-32.2.51-5.61,5.5867c-.6942,2.2947-2.597,8.88-2.597,11.4011,0,9.2918,3.5987,13.2487,11.1224,17.558Z" fill="#f4aa41"/>
    <path d="M58.9042,39.0266l-5.066-7.8846a.7549.7549,0,0,0-.6351-.3468H48.7789a.7549.7549,0,0,0-.6717,1.0994l1.5141,2.9516a16.0145,16.0145,0,0,1,1.3514,3.6913c.2916,1.2568.64,2.7665.7695,3.3493A22.9121,22.9121,0,0,1,52.2558,48c-.4674,5.59-2.7933,13.411-10.1707,17.7431a.7889.7889,0,0,1-.397.1074H52.9433a.7958.7958,0,0,0,.4-.1086C60.691,61.4183,61.3508,54.1,61.3508,44.8858c0-2.4893-1.6618-3.4656-2.3721-5.6984A.6811.6811,0,0,0,58.9042,39.0266Z" fill="#e27022"/>
    <rect x="21.8109" y="24.0366" width="31.3604" height="6.1143" fill="#e27022"/>
  </g>
  <g id="line">
    <path d="M37.1962,30.7952H53.6154s8.005,10.277,8.2107,16.9707c.1908,6.2082-2.7862,14.3446-9.3164,18.0848H22.5211c-6.53-3.74-9.5071-11.8766-9.3163-18.0848.2057-6.6937,8.2107-16.9707,8.2107-16.9707H37.8347" fill="none" stroke="#000" stroke-linecap="round" stroke-linejoin="round" stroke-width="2"/>
    <path d="M37.5432,19.5l2.7656-7.63c1.3791-3.805,3.9957-6.1648,6.8356-6.1648H57.5432" fill="none" stroke="#000" stroke-linecap="round" stroke-linejoin="round" stroke-width="2"/>
    <polyline points="21.415 30.795 21.415 23.5 53.615 23.5 53.615 30.795" fill="none" stroke="#000" stroke-linecap="round" stroke-linejoin="round" stroke-width="2"/>
  </g>
</svg>
