<svg id="emoji" xmlns="http://www.w3.org/2000/svg" viewBox="0 0 68.6355 68.6355">
  <g id="hair">
    <path d="M24.3654,36.7c-3,0-4-7-4-14,0-6,5-12,14-12s14,6,14,12c0,7-1,14-4,14" fill="#000000"/>
  </g>
  <g id="skin">
    <path d="M52.9539,58.1836a.9006.9006,0,0,1-.9533-.9533v-2.86c0-4.29-4.29-8.3888-8.2935-8.5794-5.91,4.7663-11.9159,4.7663-17.8261,0-4.0038.1906-9.2468,4.29-9.2468,8.5794v2.86a.9006.9006,0,0,1-.9532.9533" fill="#a57939"/>
    <path d="M23.2654,29.2922c-.1,7.6738,4.1,13.4291,11,13.4291,7.1,0,11.1-5.7553,11.1-13.4291,0-4.7961-3-9.5922-3-9.5922-8,0-10,2.8777-16,.9592A16.206,16.206,0,0,0,23.2654,29.2922Z" fill="#a57939"/>
  </g>
  <g id="color">
    <path d="M28.9991,58.1836s-.9094-3.6072-.9094-4.1791l-.0162-6.263c0-4.29-3.4442-4.7216-3.4442-4.7216l-3.38,2.8713-.734,8.3554.13,3.937Z" fill="#92d3f5"/>
    <path d="M39.65,58.1836s.91-3.6072.91-4.1791l.0162-6.263c0-4.29,3.4441-4.7216,3.4441-4.7216l3.38,2.8713.734,8.3554-.13,3.937Z" fill="#92d3f5"/>
  </g>
  <g id="line">
    <path d="M20.6342,57.2294l-.08-8.2906c0-.9552.0782-2.6339.713-3.1639a5.2776,5.2776,0,0,1,1.5729-.5015c.9009-.3145,1.3842-2.7635,2.0982-2.8683.5786-.0849,2.9208,2.7635,3.0638,2.9a6.0292,6.0292,0,0,1,.1153,2.1678,28.13,28.13,0,0,0-.2259,6.0561c.1.8789.837,3.7006.837,3.7006" fill="none" stroke="#000" stroke-linecap="round" stroke-linejoin="round" stroke-width="2"/>
    <path d="M48.0143,57.2294l.08-8.2906c0-.9552-.0782-2.6339-.7131-3.1639a5.2766,5.2766,0,0,0-1.5729-.5015c-.9008-.3145-1.3841-2.7635-2.0981-2.8683-.5787-.0849-2.9209,2.7635-3.0638,2.9a6.0285,6.0285,0,0,0-.1154,2.1678,28.1171,28.1171,0,0,1,.2259,6.0561c-.1.8789-.8369,3.7006-.8369,3.7006" fill="none" stroke="#000" stroke-linecap="round" stroke-linejoin="round" stroke-width="2"/>
    <path d="M31.5054,36.5a7.7957,7.7957,0,0,0,6,0" fill="none" stroke="#000000" stroke-linecap="round" stroke-linejoin="round" stroke-width="2"/>
    <path d="M32.4585,28.9065A1.9066,1.9066,0,1,1,30.552,27a1.9122,1.9122,0,0,1,1.9065,1.9065" fill="#000000"/>
    <path d="M40.0845,28.9065A1.9066,1.9066,0,1,1,38.178,27a1.9122,1.9122,0,0,1,1.9065,1.9065" fill="#000000"/>
    <path d="M23.3752,28.2157c0,7.6262,5.3656,14.7156,11.0852,14.7156s10.486-5.72,10.486-13.3458c0-4.7664-.756-6.2954-2.581-10.8855,0,0-5.4469.4865-6.5084.7341-1.6962.3916-4.0486,1.1286-6.0674.9418A20.1961,20.1961,0,0,1,26.3654,19.7C24.5148,23.7,23.3752,27.299,23.3752,28.2157Z" fill="none" stroke="#000000" stroke-linejoin="round" stroke-width="2"/>
    <path d="M28.22,47.5319A11.3883,11.3883,0,0,0,36,49.2361h0a12.3365,12.3365,0,0,0,3.9668-1.3941" fill="none" stroke="#000000" stroke-linecap="round" stroke-linejoin="round" stroke-width="2"/>
    <path d="M16.26,57.23v-2.86a8.9186,8.9186,0,0,1,.5753-2.7366c.4469-1.3278,1.1067-2.2681,3.1717-3.6339" fill="none" stroke="#000000" stroke-linecap="round" stroke-linejoin="round" stroke-width="2"/>
    <path d="M24.3654,36.7c-3,0-4-7-4-14,0-6,5-12,14-12s14,6,14,12c0,7-1,14-4,14" fill="none" stroke="#000000" stroke-linecap="round" stroke-linejoin="round" stroke-width="2"/>
    <path d="M52.452,57.23v-2.86a8.918,8.918,0,0,0-.5752-2.7366C51.43,50.3061,50.77,49.3658,48.7051,48" fill="none" stroke="#000000" stroke-linecap="round" stroke-linejoin="round" stroke-width="2"/>
  </g>
</svg>
