<svg id="emoji" viewBox="0 0 72 72" version="1.1" xmlns="http://www.w3.org/2000/svg">
  <g id="color">
    <path fill="#92D3F5" d="M17,61v-4c0-5,5-9,10-9c6,5,12,5,18,0c5,0,10,4,10,9v4"/>
  </g>
  <g id="skin">
    <path fill="#6a462f" d="M25.4,29.4v1C25.4,38,30,44,35.9,44s10.5-6,10.5-13.6c0-4.7-1.8-7.5-5.3-11.1 c-2.8215,2.1972-5.8334,4.1382-9,5.8C29.5,26.5,25.8,28.6,25.4,29.4z"/>
  </g>
  <g id="hair">
    <path fill="#000000" d="M53.3,34.1c-0.4-0.9-0.8-1.7-1.2-2.6c-1.5-3.3-2-4.5-2.3-10.5c0-3.7-3.8-6.8-7.5-7.1 c-0.266,0.0074-0.5219-0.1022-0.7-0.3c-1.916-1.8685-4.5278-2.848-7.2-2.7c-6.2,0-11.4,3.4-12.7,8.2 c-0.5009,2.0264-0.7031,4.1151-0.6,6.2c0.1854,2.0347-0.088,4.085-0.8,6c-0.2031,0.7742-0.5792,1.4922-1.1,2.1 c-3.7,4.2-1.1,13.9-1.2,13.9c1.1134,1.01,2.3186,1.914,3.6,2.7c1.5698-1.1883,3.4398-1.9155,5.4-2.1c6.2,5,12.5,5,18.7,0 c1.5148,0.0874,2.9726,0.6081,4.2,1.5c1.0596-0.6856,2.0628-1.4547,3-2.3C54.1,46.4,56,38.8,53.3,34.1z M40,39c0,0.7-1.6,2-4,2 s-4-1.3-4-2v-1.9c0.0012-0.5518,0.4482-0.9988,1-1l3,1.5l3.1-1.5c0.5209-0.0314,0.9686,0.3653,1,0.8862 c0.0023,0.0379,0.0023,0.0759,0,0.1138V39H40z M47,29c-0.4891,2.0033-1.1932,3.9479-2.1,5.8c0,0-1.9,3-2.7-1.2 c-4.2842-1.2-8.8158-1.2-13.1,0c-0.7,4.2-2.7,1.2-2.7,1.2c-0.6789-1.3053-1.2153-2.6799-1.6-4.1v-1.1C24.7,28.3,37.2,23,41,18.5 c3.0604,2.6697,5.196,6.2407,6.1,10.2L47,29z"/>
  </g>
  <g id="line">
    <path fill="none" stroke="#000000" stroke-linecap="round" stroke-linejoin="round" stroke-width="2" d="M18.8,46.6 c-3.7-5.9-0.6-10.1,1.2-14.7c1.6-4.2-0.2-6.5,1.3-12s7.3-9,13.7-9c5.4,0,8,3,8,3c4.1708,0.3386,7.387,3.8155,7.4,8 c0.4,7.2,1,7.2,3.4,12.8c1.667,3.8686,1.1327,8.3339-1.4,11.7"/>
    <path fill="none" stroke="#000000" stroke-linecap="round" stroke-linejoin="round" stroke-width="2" d="M17,59.9v-3c0-5,5-9,10-9 c6,5,12,5,18,0c5,0,10,4,10,9v3"/>
    <path d="M42,29.3c0,1.1046-0.8954,2-2,2s-2-0.8954-2-2s0.8954-2,2-2C41.1032,27.3032,41.9968,28.1968,42,29.3"/>
    <path d="M34,29.3c0,1.1046-0.8954,2-2,2c-1.1046,0-2-0.8954-2-2s0.8954-2,2-2C33.1032,27.3032,33.9968,28.1968,34,29.3"/>
    <path fill="none" stroke="#000000" stroke-linejoin="round" stroke-width="2" d="M47,30.9c0-5-2-8-6-12c-4,4-16,9-16,11v1"/>
    <path d="M39.9,36.5c0.2165,0.4972-0.0061,1.0761-0.5,1.3c-1.0802,0.5583-2.2845,0.8336-3.5,0.8 c-1.1781-0.0154-2.3386-0.2885-3.4-0.8c-0.4939-0.2239-0.7165-0.8028-0.5-1.3c0.1662-0.4582,0.6724-0.6948,1.1306-0.5286 C33.1541,35.98,33.1773,35.9895,33.2,36c0.1,0,0.1,0,0.1,0.1c1.5809,0.9,3.5191,0.9,5.1,0 C38.9269,35.8138,39.5856,35.9895,39.9,36.5z"/>
    <path fill="none" stroke="#000000" stroke-linecap="round" stroke-linejoin="round" stroke-width="2" d="M24.9,31 c-0.2,3.1-0.3,6.6,1.2,9.3c0.5866,0.9827,1.2919,1.8896,2.1,2.7c2.0576,1.7465,4.7048,2.6408,7.4,2.5"/>
    <path fill="none" stroke="#000000" stroke-linecap="round" stroke-linejoin="round" stroke-width="2" d="M47,31 c-0.2804,1.4441-0.9357,2.7891-1.9,3.9c0,0-1.9,3-2.7-1.2c-4.2842-1.2-8.8158-1.2-13.1,0c-0.8,4.2-2.7,1.2-2.7,1.2 c-0.7775-1.1859-1.3207-2.5097-1.6-3.9"/>
    <path fill="none" stroke="#000000" stroke-linecap="round" stroke-linejoin="round" stroke-width="2" d="M47,31.4 c0.3271,3.0586-0.2281,6.1469-1.6,8.9c-0.5204,1.0263-1.2333,1.943-2.1,2.7c-2.0255,1.8025-4.6964,2.7048-7.4,2.5h-0.3"/>
  </g>
</svg>
