<svg version="1.1" id="emoji" xmlns="http://www.w3.org/2000/svg" x="0" y="0" viewBox="0 0 72 72" enable-background="new 0 0 72 72" xml:space="preserve">
  <g id="color">
    <path fill="#92D3F5" d="M55.0619,58.9668c0,0,2-15.0756-10-15.0756c-5.5707-0.1379-12.3926-0.0283-17.875,0 c-12,0-10,14.9622-10,14.9622"/>
    <path fill="#61B2E4" d="M43.9619,43.8629c-3.1699,2.1133-3.775,4.0488-7.8375,4.6373 c13.0625,0.4115,13.0625,6.4517,13.8247,10.4517c4.2378,0,5.1128,0,5.1128,0S57.5955,43.4566,43.9619,43.8629z"/>
    <path fill="#92D3F5" d="M46.116,18.8786c-0.2181-4.2512-1.8894-11.3493-10.5705-11.5669c-11.9534,0-14.5784,11-14.5784,11 l-0.9966,1.993l-0.6211,1.2425l-5.3823,2.1818h4.4612l-1.5918,5.6786c-0.2922,0.5844-0.3717,1.2523-0.2248,1.889L19.5421,42.05 c0.0791,0.3431,0.562,0.3587,0.6632,0.0214l0.1966-7.6658c-0.0383-0.9034,0.2105-1.5183,0.6148-2.3271l0.9504,0.367l8.0205-8.7165 h0.3733h15.465h12.1412L46.116,18.8786z"/>
    <path fill="#61B2E4" d="M18.4283,23.729l-1.5918,5.6786c-0.2922,0.5844-0.3717,1.2523-0.2248,1.889L19.5421,42.05 c0.0791,0.3431,0.562,0.3587,0.6632,0.0214l0.1966-7.6658c-0.0383-0.9034,0.2105,0.2392,0.6148-0.5696l0.9504-1.2771l8.0205-8.8299 h0.3733h15.465"/>
    <path fill="#D0CFCE" d="M36.1244,30.9739"/>
    <path fill="#61B2E4" d="M53.2407,38.5028c-1.7945-0.7591-3.0538-2.536-3.0538-4.6071c0-2.7614,2.2386-5,5-5c2.7615,0,5,2.2386,5,5 c0,1.9156-1.0772,3.5797-2.6591,4.4193"/>
    <polyline fill="#A57939" points="57.1869,58.964 57.1869,38.2581 53.1869,38.2581 53.1869,58.964"/>
    <path fill="#92D3F5" d="M55.1869,30.566c-1.1045,0-2.3401,1.1496-2.3401,1.1496c1.3817-0.3343,3.5487-0.358,4.6803,0 C57.5271,31.7156,56.2914,30.566,55.1869,30.566z"/>
  </g>
  <g id="hair">
    <path fill="#a57939" d="M35.8821,51.3116c13.4215-9.6934,13.0943-22.1473,11.7-27.5827h-1.7c0,0,1.5809,7.897-9.7577,7.897 s-9.496-7.897-9.496-7.897h-1.7463C23.2802,28.4741,22.4852,39.4033,35.8821,51.3116z"/>
  </g>
  <g id="skin">
    <path fill="#fadcbc" d="M25.5323,24.1748l2.1576,4.7209c2.159,1.9037,4.8445,2.8689,8.2772,2.5023 c3.3707,0.1732,6.095-0.2045,7.7601-1.4849l2.607-5.9329"/>
  </g>
  <g id="skin-shadow"/>
  <g id="line">
    <path fill="none" stroke="#000000" stroke-width="2" stroke-linecap="round" stroke-linejoin="round" stroke-miterlimit="10" d="M25.3048,45.0092c-10.0769,1.1915-8.2752,12.9025-8.2752,12.9025"/>
    <path fill="none" stroke="#000000" stroke-width="2" stroke-linecap="round" stroke-linejoin="round" stroke-miterlimit="10" d="M53.19,48.7898c-1.14-1.74-2.97-3.18-5.88-3.68"/>
    <path fill="none" stroke="#000000" stroke-width="2" stroke-linecap="round" stroke-linejoin="round" stroke-miterlimit="10" d="M18.9671,22.3117l-2.1306,7.0959c-0.2922,0.5844-0.3717,1.2523-0.2248,1.889L19.5421,42.05 c0.0792,0.3431,0.562,0.3587,0.6632,0.0214l0.1967-7.6658c-0.0224-0.5277,0.0531-0.957,0.2005-1.384"/>
    <path fill="none" stroke="#000000" stroke-width="2" stroke-linecap="round" stroke-linejoin="round" stroke-miterlimit="10" d="M19.9706,20.3047"/>
    <path fill="none" stroke="#000000" stroke-width="2" stroke-linecap="round" stroke-linejoin="round" stroke-miterlimit="10" d="M20.9671,18.3117"/>
    <path fill="none" stroke="#000000" stroke-width="2" stroke-linecap="round" stroke-linejoin="round" stroke-miterlimit="10" d="M35.8821,51.3116c13.4215-9.6934,13.0943-22.1473,11.7-27.5827h-1.7c0,0,1.5809,7.897-9.7577,7.897s-9.496-7.897-9.496-7.897 h-1.7463C23.2802,28.4741,22.4852,39.4033,35.8821,51.3116z"/>
    <path fill="none" stroke="#000000" stroke-width="2" stroke-linecap="round" stroke-linejoin="round" stroke-miterlimit="10" d="M36.1244,30.9739"/>
    <path d="M41.9672,26.9509c0,1.1045-0.8965,2-2,2s-2-0.8955-2-2c0-1.1035,0.8965-2,2-2S41.9672,25.8474,41.9672,26.9509"/>
    <path d="M33.9672,26.9509c0,1.1045-0.8965,2-2,2s-2-0.8955-2-2c0-1.1035,0.8965-2,2-2S33.9672,25.8474,33.9672,26.9509"/>
    <path d="M35.9671,36.9533c-1.1518,0-2.3037-0.2861-3.4473-0.8579c-0.4941-0.2471-0.6943-0.8477-0.4472-1.3418 c0.2466-0.4937,0.8462-0.6944,1.3418-0.4473c1.7177,0.8594,3.3877,0.8594,5.1054,0c0.4947-0.2471,1.0948-0.0464,1.3418,0.4473 c0.2471,0.4941,0.0469,1.0947-0.4472,1.3418C38.2708,36.6672,37.119,36.9533,35.9671,36.9533z"/>
    <path fill="none" stroke="#000000" stroke-width="2" stroke-linecap="round" stroke-linejoin="round" stroke-miterlimit="10" d="M53.2407,38.5028c-1.7945-0.7591-3.0538-2.536-3.0538-4.6071c0-2.7614,2.2386-5,5-5c2.7615,0,5,2.2386,5,5 c0,1.9156-1.0772,3.5797-2.6591,4.4193"/>
    <path fill="none" stroke="#000000" stroke-width="2" stroke-linecap="round" stroke-linejoin="round" stroke-miterlimit="10" d="M26.8644,15.5036c-0.7082,1.8081-0.8973,3.375-0.8973,3.375h-0.0346L13.9671,23.729h12.1418h19.717h12.1412l-11.851-4.8504 c-0.2182-4.2512-2.2296-11.3493-10.9108-11.5669c-12.9703,0-15.2347,13.4698-15.2347,13.4698"/>
    <polyline fill="none" stroke="#000000" stroke-width="2" stroke-linecap="round" stroke-linejoin="round" stroke-miterlimit="10" points="57.1869,57.964 57.1869,38.5181 53.1869,38.5181 53.1869,57.964"/>
  </g>
</svg>
