<?xml version="1.0" encoding="utf-8"?>
<!-- Generator: Adobe Illustrator 21.1.0, SVG Export Plug-In . SVG Version: 6.00 Build 0)  -->
<svg version="1.1" id="emoji" xmlns="http://www.w3.org/2000/svg" xmlns:xlink="http://www.w3.org/1999/xlink" x="0px" y="0px"
	 viewBox="0 0 72 72" enable-background="new 0 0 72 72" xml:space="preserve">
<g id="_xD83E__xDDDF__1_">
	<circle fill="#E67A93" cx="37.3" cy="24.9" r="10"/>
	
		<path fill="#B1CC33" stroke="#000000" stroke-width="2" stroke-linecap="round" stroke-linejoin="round" stroke-miterlimit="10" d="
		M35.5,14C29.7,14.6,25,20.7,25,28.2c0,7.8,5.1,14.2,11.3,14.2S47.7,36,47.7,28.2c0-1.8-0.3-3.5-0.8-5.1c-0.5,0.1-0.9,0.1-1.4,0.1
		C40.3,23.2,36,19.2,35.5,14z"/>
	<path fill="#B0CB34" d="M55.3,57.8c0,0,2-12.6-10-12.6c-3.2,2.1-5.9,3.6-9,3.6h0.1c-3.1,0-5.8-1.5-9-3.6c-12,0-10,12.6-10,12.6"/>
	<path fill="none" stroke="#000000" stroke-width="2" stroke-linecap="round" stroke-linejoin="round" stroke-miterlimit="10" d="
		M45.7,22.2c0.1-1-0.4-1.9-1.3-2.2c0.2-0.3,0.3-0.6,0.4-0.9c0.2-1.1-0.6-2.1-1.7-2.3c-0.4-0.1-0.8,0-1.1,0.2
		c-0.1-0.9-0.8-1.7-1.7-1.9c-0.6-0.1-1.3,0.1-1.7,0.6c-0.3-0.4-0.8-0.7-1.3-0.8c-0.5-0.1-1,0.1-1.4,0.3"/>
	<path fill="#5C9E32" d="M42.4,29"/>
	<path fill="#5C9E32" d="M34.4,29"/>
	<path fill="none" stroke="#000000" stroke-width="2" stroke-linecap="round" stroke-linejoin="round" stroke-miterlimit="10" d="
		M35.5,14c0,0.3,0.1,0.6,0.1,0.9c0.8,4.5,4.7,8,9.4,8.2c0.1,0,0.3,0,0.4,0c0.5,0,1,0,1.4-0.1"/>
	<path fill="#CFCFCE" d="M46.7,45.2l-0.9,0.9c-1.6,2.7-3.4,4.7-5.3,5.8l-2,5.7l-2-4.6c-3.3,0-6.7-2.3-9.3-7l-0.6-0.9
		c-10.9,0.7-9,12.7-9,12.7l3.2,0l2.1-4.8l1.5,4.8l31.2,0"/>
	
		<path fill="#FCEA2C" stroke="#000000" stroke-width="2" stroke-linecap="round" stroke-linejoin="round" stroke-miterlimit="10" d="
		M32.4,35.2c0,0,8-3.1,8,0C40.4,41.4,32.4,35.2,32.4,35.2z"/>
	
		<line fill="none" stroke="#000000" stroke-width="2" stroke-linecap="round" stroke-linejoin="round" stroke-miterlimit="10" x1="39.8" y1="36.9" x2="35.5" y2="36.9"/>
	
		<line fill="none" stroke="#000000" stroke-width="1.5" stroke-linecap="round" stroke-linejoin="round" stroke-miterlimit="10" x1="37.3" y1="36.9" x2="37.3" y2="34"/>
	<path fill="none" stroke="#000100" stroke-width="2" stroke-linecap="round" stroke-linejoin="round" stroke-miterlimit="10" d="
		M34.5,35"/>
	<path fill="none" stroke="#000100" stroke-width="2" stroke-linecap="round" stroke-linejoin="round" stroke-miterlimit="10" d="
		M34.5,36.2"/>
	<path fill="#9A9B99" d="M42.9,49.6c6.4,1.7,6.5,5,7.1,8.2c4.2,0,5.1,0,5.1,0s1.9-11.9-9-12.6c-0.3,0-0.6,0-1,0"/>
	<path fill="none" stroke="#000000" stroke-width="2" stroke-linecap="round" stroke-linejoin="round" stroke-miterlimit="10" d="
		M27,45.8c2.7,4.7,6,7,9.3,7l2,4l2-5.2c1.9-1.1,3.8-3.1,5.3-5.8"/>
	
		<line fill="none" stroke="#000000" stroke-width="2" stroke-linecap="round" stroke-linejoin="round" stroke-miterlimit="10" x1="43.9" y1="54.1" x2="43.2" y2="56.8"/>
	
		<polyline fill="none" stroke="#000000" stroke-width="2" stroke-linecap="round" stroke-linejoin="round" stroke-miterlimit="10" points="
		20.6,56.8 22.7,53.2 24.2,56.8 	"/>
	<path d="M55.4,57.8c-0.6,0-1-0.4-1-1v-3c0-4.5-4.5-7.8-8.7-8c-6.2,5-12.5,5-18.7,0c-4.2,0.2-8.7,3.5-8.7,8v3c0,0.6-0.4,1-1,1
		c-0.6,0-1-0.4-1-1v-3c0-5.3,5.1-10,11-10h0c0.2,0,0.5,0.1,0.6,0.2c5.6,4.7,11.1,4.7,16.7,0c0.2-0.1,0.4-0.2,0.6-0.2h0
		c5.9,0,11,4.7,11,10v3C56.4,57.4,55.9,57.8,55.4,57.8z"/>
	<path fill="#5C9E32" d="M30.4,26.8v2c0,1,0.7,2,1.7,2.1c1.2,0.2,2.3-0.8,2.3-2v-2.2c0,0,0-0.1-0.1-0.1L30.4,26.8
		C30.4,26.8,30.4,26.8,30.4,26.8z"/>
	<path fill="#5C9E32" d="M38.4,26.8V29c0,1.1,0.9,2,2,2c1.1,0,2-0.9,2-2v-2.3H38.4z"/>
	<path fill="#FFFFFF" stroke="#000000" stroke-width="1.5" stroke-miterlimit="10" d="M42.4,26.8c0,1.1-0.9,2-2,2s-2-0.9-2-2
		c0-1.1,0.9-2,2-2S42.4,25.7,42.4,26.8"/>
	<path fill="#FFFFFF" stroke="#000000" stroke-width="1.5" stroke-miterlimit="10" d="M34.4,26.8c0,1.1-0.9,2-2,2c-1.1,0-2-0.9-2-2
		c0-1.1,0.9-2,2-2C33.5,24.8,34.4,25.7,34.4,26.8"/>
</g>
</svg>
