<?xml version="1.0" encoding="utf-8"?>
<!-- Generator: Adobe Illustrator 21.1.0, SVG Export Plug-In . SVG Version: 6.00 Build 0)  -->
<svg version="1.1" id="emoji" xmlns="http://www.w3.org/2000/svg" xmlns:xlink="http://www.w3.org/1999/xlink" x="0px" y="0px"
	 viewBox="0 0 72 72" enable-background="new 0 0 72 72" xml:space="preserve">
<g>
	<g>
		<defs>
			<polygon id="SVGID_1_" points="35.3,12.6 26.7,14.3 21.4,17.3 16.5,22.4 13.1,29.7 13.1,42.1 18.7,51.4 26.7,56.9 35.3,58.6 
				42.5,57.4 50.2,53.1 55.3,46.9 58.3,37.7 57.6,29.8 53.7,21.9 49.5,17.6 42.3,13.7 			"/>
		</defs>
		<use xlink:href="#SVGID_1_"  overflow="visible" fill="#FCEA2B"/>
		<clipPath id="SVGID_2_">
			<use xlink:href="#SVGID_1_"  overflow="visible"/>
		</clipPath>
		<rect x="8.1" y="7.6" clip-path="url(#SVGID_2_)" fill="#FCEA2B" width="55.2" height="55.9"/>
	</g>
	<circle fill="none" stroke="#FCEA2B" stroke-width="2" stroke-miterlimit="10" cx="35.3" cy="35.6" r="23"/>
	<path fill="none" stroke="#000000" stroke-width="2" stroke-linecap="round" stroke-linejoin="round" stroke-miterlimit="10" d="
		M28.2,43.9c2.4-0.7,11.9,0.5,14,2.1"/>
	<path fill="none" stroke="#000000" stroke-width="2" stroke-linecap="round" stroke-linejoin="round" stroke-miterlimit="10" d="
		M21.7,23c1.3-0.9,2.8-1.3,4.4-1.1c1.6,0,3.1,0.7,4.2,1.7"/>
	<path fill="none" stroke="#000000" stroke-width="2" stroke-linecap="round" stroke-linejoin="round" stroke-miterlimit="10" d="
		M48.4,26.9c-2.4-1.7-5.4,0-8.2-0.3"/>
	<g>
		<defs>
			
				<ellipse id="SVGID_3_" transform="matrix(0.1892 -0.9819 0.9819 0.1892 2.3414 69.3267)" cx="43.2" cy="33.2" rx="2.6" ry="2.6"/>
		</defs>
		<use xlink:href="#SVGID_3_"  overflow="visible"/>
		<clipPath id="SVGID_4_">
			<use xlink:href="#SVGID_3_"  overflow="visible"/>
		</clipPath>
		
			<rect x="36.2" y="26.3" transform="matrix(0.1892 -0.9819 0.9819 0.1892 2.3414 69.3267)" clip-path="url(#SVGID_4_)" width="13.9" height="13.9"/>
	</g>
	<ellipse transform="matrix(0.1892 -0.9819 0.9819 0.1892 -8.1755 50.0682)" cx="26.2" cy="30" rx="2.6" ry="2.6"/>
	<path fill="none" stroke="#000000" stroke-width="2" stroke-linecap="round" stroke-linejoin="round" stroke-miterlimit="10" d="
		M55,47.6c2.1-3.5,3.3-7.5,3.4-11.9c0-12.7-10.2-23-22.9-23c-12.7,0-23,10.2-23,22.9c0,12.7,10.2,23,22.9,23c5.2,0,10-1.7,13.9-4.6"
		/>
	
		<circle fill="none" stroke="#000000" stroke-width="2" stroke-linecap="round" stroke-linejoin="round" stroke-miterlimit="10" cx="43.3" cy="30.4" r="9.4"/>
	<path fill="none" stroke="#000000" stroke-width="2" stroke-linecap="round" stroke-linejoin="round" stroke-miterlimit="10" d="
		M53.1,30.6c0,0,2.2,0.6,1.9,4s-3.6,8-3.6,8s-2,2.4-1.5,4.3c0.7,2.5,4.3,6.4,4.2,8.6"/>
</g>
</svg>
