<?xml version="1.0" encoding="utf-8"?>
<!-- Generator: Adobe Illustrator 21.1.0, SVG Export Plug-In . SVG Version: 6.00 Build 0)  -->
<svg version="1.1" id="emoji" xmlns="http://www.w3.org/2000/svg" xmlns:xlink="http://www.w3.org/1999/xlink" x="0px" y="0px"
	 viewBox="0 0 72 72" enable-background="new 0 0 72 72" xml:space="preserve">
<g id="_xD83E__xDDDE__1_">
	
		<path fill="#90D2F4" stroke="#1D1D1B" stroke-width="2" stroke-linecap="round" stroke-linejoin="round" stroke-miterlimit="10" d="
		M45.5,48.9l0.8,2.5l-1.1,5L40,62.1c8.7,0.6,14.9-4.1,14.9-4.1s2-13-10-13c-3.2,2.1-5.9,3.6-9,3.6h0.1c-3.1,0-5.8-1.5-9-3.6
		c-12,0-10,13-10,13c10,6,14.4,3.7,28.1-1.6l0.6-3.5l-24.1,1.4l5.3-0.9"/>
	
		<path fill="#90D2F4" stroke="#000000" stroke-width="2" stroke-linecap="round" stroke-linejoin="round" stroke-miterlimit="10" d="
		M54.9,57.9c0,0,2-13-10-13c-3.2,2.1-5.9,3.6-9,3.6h0.1c-3.1,0-5.8-1.5-9-3.6c-12,0-10,13-10,13"/>
	<path fill="#61B2E4" d="M45.2,44.9c-3.2,2.1-4.9,3-8.9,3.6c13.1,0.4,13.1,5.4,13.8,9.4c4.2,0,5.1,0,5.1,0S57.2,44.9,45.2,44.9z"/>
	<path fill="#61B2E4" d="M55.2,57.9c0,0-11.8,9-20.7,3l10.7-4.5l1.1-5C46.3,51.4,55.3,48.9,55.2,57.9z"/>
	
		<ellipse fill="#90D2F4" stroke="#000000" stroke-width="2" stroke-linecap="round" stroke-linejoin="round" stroke-miterlimit="10" cx="36" cy="28.4" rx="11.3" ry="14.2"/>
	<path d="M42,27.1c0,1.1-0.9,2-2,2s-2-0.9-2-2c0-1.1,0.9-2,2-2S42,26,42,27.1"/>
	<path d="M34,27.1c0,1.1-0.9,2-2,2c-1.1,0-2-0.9-2-2c0-1.1,0.9-2,2-2C33.1,25.1,34,26,34,27.1"/>
	<path d="M36,37.1c-1.2,0-2.3-0.3-3.4-0.9c-0.5-0.2-0.7-0.8-0.4-1.3c0.2-0.5,0.8-0.7,1.3-0.4c1.7,0.9,3.4,0.9,5.1,0
		c0.5-0.2,1.1,0,1.3,0.4c0.2,0.5,0,1.1-0.4,1.3C38.3,36.8,37.2,37.1,36,37.1z"/>
	<path fill="none" stroke="#000000" stroke-width="2" stroke-linecap="round" stroke-linejoin="round" stroke-miterlimit="10" d="
		M55,57.9c0,0,2-13-10-13c-3.2,2.1-5.9,3.6-9,3.6h0.1c-3.1,0-5.8-1.5-9-3.6c-12,0-10,13-10,13"/>
	<path fill="#FFFFFF" d="M49.2,13C36,17.1,24.7,26.5,24.7,26.5s-4-5.3-2.2-10.7c0,0,2.2-8.1,13-8.1C43.2,7.7,47.1,10.9,49.2,13
		c6.1,8.7-2.1,13.6-2.1,13.6s-4.8-3.7-9.7-8.3"/>
	<path fill="none" stroke="#1D1D1B" stroke-width="2" stroke-linecap="round" stroke-linejoin="round" stroke-miterlimit="10" d="
		M49.2,13C36,17.1,24.7,26.5,24.7,26.5s-4-5.3-2.2-10.7c0,0,2.2-8.1,13-8.1C43.2,7.7,47.1,10.9,49.2,13c6.1,8.7-2.1,13.6-2.1,13.6
		s-4.8-3.7-9.7-8.3"/>
	
		<path fill="#3F3F3F" stroke="#000000" stroke-width="2" stroke-linecap="round" stroke-linejoin="round" stroke-miterlimit="10" d="
		M36.1,45.2c5-0.1,9.5-6,10.3-10.9c-3.2,5.7-8.6,4.6-8.6,4.6L36,36.3l-1.7,2.6c0,0-5.4,1.1-8.6-4.6C26.5,39.2,31,45.1,36.1,45.2"/>
	<path fill="none" stroke="#000000" stroke-width="2" stroke-linecap="round" stroke-linejoin="round" stroke-miterlimit="10" d="
		M55,57.9c0,0-6.3,4.7-14.9,4.1"/>
	<path fill="none" stroke="#000000" stroke-width="2" stroke-linecap="round" stroke-linejoin="round" stroke-miterlimit="10" d="
		M27.1,53.3"/>
	<path fill="none" stroke="#000000" stroke-width="2" stroke-linecap="round" stroke-linejoin="round" stroke-miterlimit="10" d="
		M45.5,49.4"/>
	<path fill="#D0CFCE" d="M49.2,13c6.1,8.7-2.1,13.6-2.1,13.6s-4.8-3.7-9.7-8.3"/>
	<path fill="none" stroke="#1D1D1B" stroke-width="2" stroke-linecap="round" stroke-linejoin="round" stroke-miterlimit="10" d="
		M49.2,13"/>
	<path fill="none" stroke="#000000" stroke-width="2" stroke-linecap="round" stroke-linejoin="round" stroke-miterlimit="10" d="
		M49.2,13c-7.4,2.3-14.1,6.2-18.7,9.3c-3.6,2.4-5.8,4.2-5.8,4.2s-4-5.3-2.2-10.7c0,0,2.2-8.1,13-8.1C43.2,7.7,47.1,10.9,49.2,13
		c6.1,8.7-2.1,13.6-2.1,13.6s-4.8-3.7-9.7-8.3"/>
	
		<path fill="#FCEA2B" stroke="#000000" stroke-width="2" stroke-linecap="round" stroke-linejoin="round" stroke-miterlimit="10" d="
		M36,24.1L36,24.1c-1.1,0-2-0.9-2-2v-4c0-1.1,0.9-2,2-2l0,0c1.1,0,2,0.9,2,2v4C38,23.2,37.1,24.1,36,24.1z"/>
	<polygon fill="#FCEA2B" points="45.2,56.4 40.8,58.2 40.8,53 45.8,53 	"/>
	<path fill="none" stroke="#000000" stroke-width="2" stroke-linecap="round" stroke-linejoin="round" stroke-miterlimit="10" d="
		M21.8,54.2l24.1-1.4l-0.6,3.5c-13.8,5.3-18.1,7.6-28.1,1.6"/>
	
		<line fill="none" stroke="#000000" stroke-width="2" stroke-linecap="round" stroke-linejoin="round" stroke-miterlimit="10" x1="46.3" y1="51.4" x2="45.2" y2="56.4"/>
	
		<line fill="#90D2F4" stroke="#000000" stroke-width="2" stroke-linecap="round" stroke-linejoin="round" stroke-miterlimit="10" x1="40.8" y1="53.3" x2="40.8" y2="58"/>
</g>
</svg>
