<?xml version="1.0" encoding="utf-8"?>
<!-- Generator: Adobe Illustrator 21.1.0, SVG Export Plug-In . SVG Version: 6.00 Build 0)  -->
<svg version="1.1" id="emoji" xmlns="http://www.w3.org/2000/svg" xmlns:xlink="http://www.w3.org/1999/xlink" x="0px" y="0px"
	 viewBox="0 0 72 72" enable-background="new 0 0 72 72" xml:space="preserve">
<g id="_xD83E__xDDD8__1_">
	<circle fill="#FCEA2B" cx="36" cy="19.1" r="3"/>
	<path fill="#FCEA2B" d="M30,32c0,0,0,10-1,13l-0.5,0.1c0,0-0.7,1.3-6.2,4c-1.8,0.9-5.2,4.7-5.2,6S28.5,57,28.5,57l0.5,0.4L39.4,56
		l8.1,1l4.5,0.4l1.9-0.4l1.1-2.8l-1.7-2.2l-7.8-4.2l-3.2-3.8l-0.4-12.5c0,0,1.1,1.3,1.7,7.9c0.3,3.4,2.9,6.1,3.8,7
		c1.6,1.6,6.3,4.8,6.8,5c1.6,0.8,3.1-1,2.7-1.4s-5.5-3.3-5.5-3.3l-2.2-2.2L46,41.2L45.6,36l-0.8-5.4L40.5,27H36l-5,0.1l-2,1.4
		l-1.7,2.8l-2.3,10.2l-2.4,3.8l-7.5,5.3c0,0,1,2,3,0.7c2.3-1.5,6.9-5,7.5-5.7c1-1.1,2.6-4.1,3-6.5C29.3,33.7,30,32,30,32z"/>
	<circle fill="none" stroke="#000000" stroke-width="2" stroke-miterlimit="10" cx="36" cy="19.1" r="3"/>
	<g>
		<path fill="none" stroke="#000000" stroke-width="2" stroke-linecap="round" stroke-linejoin="round" stroke-miterlimit="10" d="
			M16,50l5.8-4.1c2.2-1.6,4.2-5.1,4.5-7.9l0.4-5c0.2-2.7,2.4-5.4,4.9-6c2.5-0.5,6.5-0.5,9,0c2.5,0.5,4.7,3.2,4.9,6l0.4,5
			c0.2,2.7,2.2,6.3,4.5,7.9L56,50"/>
	</g>
	<g>
		<path fill="none" stroke="#000000" stroke-width="2" stroke-linecap="round" stroke-linejoin="round" stroke-miterlimit="10" d="
			M29,46c0,0,0.2-0.4,0.5-1c0.3-0.5,0.6-1.9,0.7-3L31,32"/>
	</g>
	<g>
		<path fill="none" stroke="#000000" stroke-width="2" stroke-linecap="round" stroke-linejoin="round" stroke-miterlimit="10" d="
			M29,56.5c0,0-0.7,0.1-1.5,0.3C26.7,56.9,25.1,57,24,57h-5c-1.1,0-2-0.9-2-2l0,0c0-1.1,0.8-2.4,1.8-3l3.7-2"/>
	</g>
	<g>
		<path fill="none" stroke="#000000" stroke-width="2" stroke-linecap="round" stroke-linejoin="round" stroke-miterlimit="10" d="
			M41,32l0.8,11c0.1,1.1,0.6,2.4,1.2,3c0.5,0.5,1.8,1.4,2.8,2l7.5,4.1c1,0.5,1.8,1.9,1.8,3l0,0c0,1.1-0.9,2-2,2h-5
			c-1.1,0-2.9-0.2-4-0.4L39,55.4c-1.1-0.2-2.8-0.7-3.9-1l-7.1-1.9c-1.1-0.3-1.8-1.2-1.6-2c0.2-0.8,1.2-1.5,2.3-1.4l20,0.9"/>
	</g>
</g>
</svg>
