<svg id="emoji" xmlns="http://www.w3.org/2000/svg" viewBox="0 0 72 72">
  <g id="skin">
    <path d="M24.1,30.4c-.1,8,4.1,14,11,14,7.1,0,11.1-6,11.1-14,0-5-7.7-12.5-7.7-12.5-3.9,2.8-7,5.3-13.3,7.2C23.3,27.8,24.2,27.2,24.1,30.4Z" fill="#debb90"/>
    <path d="M16.2,60.9s-1.8-11,6.7-12.3c3.7-.6,1.6,12.3,1.6,12.3Z" fill="#debb90"/>
    <path d="M54.2,60.9c0-1.2.4-4.5-.9-7.5-.5-1.2-4-4.4-5.6-4.7C43.4,47.8,45.9,61,45.9,61Z" fill="#debb90"/>
  </g>
  <g id="color">
    <path d="M63.4,31.2c-.3,1.3-.7,3.3-1.2,5.8s-.9,5.2-1.3,8.5c-.7,6-1.1,9-1,10a9.9283,9.9283,0,0,1-.5,3,.7638.7638,0,0,1-.2.5c-.1.1-.1.2-.2.2a17.6836,17.6836,0,0,1-2.2,1.6H54.2V57c0-5-5-9-10-9a15.188,15.188,0,0,1-7.5,3.7,20.8275,20.8275,0,0,1,4.5-7.2c1.3-1.3,6.5-4.3,16.9-10.2C60.3,33,62.1,31.9,63.4,31.2Z" fill="#b1cc33"/>
    <path d="M33.8,51.7A14.3976,14.3976,0,0,1,26.3,48c-5,0-10,4-10,9v3.8H13.7a8.88,8.88,0,0,1-2.2-1.6c-.1-.1-.1-.2-.2-.2-.1-.2-.2-.3-.2-.5a15.6653,15.6653,0,0,1-.5-3c0-1-.4-4-1.1-10-.4-3.3-.9-6-1.3-8.5-.5-2.5-.9-4.5-1.2-5.8,1.2.7,3.1,1.8,5.3,3,10.3,5.9,15.5,8.9,16.9,10.2a21.4786,21.4786,0,0,1,4.4,6.8Z" fill="#b1cc33"/>
    <path d="M46.8,48.1l-1.9-.4a11.7249,11.7249,0,0,1-4.8,3.4,10.555,10.555,0,0,1-4.6.7h0a11.8639,11.8639,0,0,1-4.6-1,13.8365,13.8365,0,0,1-4.8-3.5l-1.9.4c2.2,5.2,1.4,10.9,1,13.1H45.9C45.4,58.7,44.5,53.2,46.8,48.1Z" fill="#a57939"/>
    <polygon points="61.3 50.1 59.2 46.4 55 46.1 57.8 42.9 56.7 38.8 60.6 40.5 64.2 38.3 63.8 42.5 67.1 45.2 62.9 46.1 61.3 50.1" fill="#fcea2b"/>
    <path d="M46.2,48.1l-1.9-.4a11.7249,11.7249,0,0,1-4.8,3.4,10.555,10.555,0,0,1-4.6.7h0a11.8639,11.8639,0,0,1-4.6-1,13.8365,13.8365,0,0,1-4.8-3.5l-1.9.4c2.2,5.2,1.4,10.9,1,13.1H45.3C44.8,58.7,43.9,53.2,46.2,48.1Z" fill="#a57939"/>
    <path d="M33.8,51.7A14.3976,14.3976,0,0,1,26.3,48c-5,0-10,4-10,9v3.8H13.7a8.88,8.88,0,0,1-2.2-1.6c-.1-.1-.1-.2-.2-.2-.1-.2-.2-.3-.2-.5a15.6653,15.6653,0,0,1-.5-3c0-1-.4-4-1.1-10-.4-3.3-.9-6-1.3-8.5-.5-2.5-.9-4.5-1.2-5.8,1.2.7,3.1,1.8,5.3,3,10.3,5.9,15.5,8.9,16.9,10.2a21.4786,21.4786,0,0,1,4.4,6.8Z" fill="#b1cc33"/>
    <polygon points="61.3 50.1 59.2 46.4 55 46.1 57.8 42.9 56.7 38.8 60.6 40.5 64.2 38.3 63.8 42.5 67.1 45.2 62.9 46.1 61.3 50.1" fill="#fcea2b"/>
  </g>
  <g id="hair">
    <path d="M45.6,27c-3.2-.9-6.4-10.1-7.6-9-2.5,2.1-10.7,6.1-13,7.5s.2,13.5.2,13.5c-3,0-3.7-7.5-3.7-14.5,0-6,5-12,14-12s14,6,14,12c0,7-1,14-4,14C45.5,38.4,49.3,28,45.6,27Z" fill="#fcea2b"/>
  </g>
  <g id="line">
    <g>
      <path d="M12.2,58.7a17.153,17.153,0,0,1-.9-1.9c-1.6-4-.6-6.9-3-19.8-.5-2.5-.9-4.5-1.2-5.8,1.2.7,3.1,1.8,5.3,3,14,8,14.9,8,16.9,10.2A28.4312,28.4312,0,0,1,33.5,51" fill="none" stroke="#000" stroke-linecap="round" stroke-linejoin="round" stroke-width="2"/>
      <path d="M37.4,50.9a24.0662,24.0662,0,0,1,4.1-6.4c2-2.2,2.9-2.2,16.9-10.2,2.2-1.3,4.1-2.3,5.3-3-.3,1.2-.6,3-1.1,5.2" fill="none" stroke="#000" stroke-linecap="round" stroke-linejoin="round" stroke-width="2"/>
      <path d="M58.5,58.7a17.153,17.153,0,0,0,.9-1.9,13.4265,13.4265,0,0,0,1-4.3" fill="none" stroke="#000" stroke-linecap="round" stroke-linejoin="round" stroke-width="2"/>
      <line x1="58.8" y1="47.6001" x2="50.4" y2="61.8001" fill="none" stroke="#000" stroke-linecap="round" stroke-linejoin="round" stroke-width="2"/>
      <polygon points="61.3 50.1 59.2 46.4 55 46.1 57.8 42.9 56.7 38.8 60.6 40.5 64.2 38.3 63.8 42.5 67.1 45.2 62.9 46.1 61.3 50.1" fill="none" stroke="#000" stroke-linecap="round" stroke-linejoin="round" stroke-width="2"/>
      <path d="M12.2,58.7a17.153,17.153,0,0,1-.9-1.9c-1.6-4-.6-6.9-3-19.8-.5-2.5-.9-4.5-1.2-5.8,1.2.7,3.1,1.8,5.3,3,14,8,14.9,8,16.9,10.2A28.4312,28.4312,0,0,1,33.5,51" fill="none" stroke="#000" stroke-linecap="round" stroke-linejoin="round" stroke-width="2"/>
      <path d="M37.4,50.9a24.0662,24.0662,0,0,1,4.1-6.4c2-2.2,2.9-2.2,16.9-10.2,2.2-1.3,4.1-2.3,5.3-3-.3,1.2-.6,3-1.1,5.2" fill="none" stroke="#000" stroke-linecap="round" stroke-linejoin="round" stroke-width="2"/>
      <path d="M58.5,58.7a17.153,17.153,0,0,0,.9-1.9,13.4265,13.4265,0,0,0,1-4.3" fill="none" stroke="#000" stroke-linecap="round" stroke-linejoin="round" stroke-width="2"/>
      <line x1="58.8" y1="47.6001" x2="50.4" y2="61.8001" fill="none" stroke="#000" stroke-linecap="round" stroke-linejoin="round" stroke-width="2"/>
      <polygon points="61.3 50.1 59.2 46.4 55 46.1 57.8 42.9 56.7 38.8 60.6 40.5 64.2 38.3 63.8 42.5 67.1 45.2 62.9 46.1 61.3 50.1" fill="none" stroke="#000" stroke-linecap="round" stroke-linejoin="round" stroke-width="2"/>
      <path d="M16.2,60.1v-3c0-5,5-9,10-9q9,7.5,18,0a10.5963,10.5963,0,0,1,8.7,4.7" fill="none" stroke="#000" stroke-linecap="round" stroke-linejoin="round" stroke-width="2"/>
      <path d="M23.6,48.4s.7,1.5.7,5.9c0,1.4-.2,3.4-.4,5.3" fill="none" stroke="#000" stroke-linecap="round" stroke-linejoin="round" stroke-width="2"/>
      <path d="M46.7,48.4s-.7,1.5-.7,5.9c0,1.4.2,3.4.4,5.3" fill="none" stroke="#000" stroke-linecap="round" stroke-linejoin="round" stroke-width="2"/>
    </g>
    <g>
      <path d="M25.2,38.9c-4,0-4-6-4-13s4-14,14-14,14,7,14,14,0,13-4,13" fill="none" stroke="#000" stroke-linecap="round" stroke-linejoin="round" stroke-width="2"/>
      <path d="M41.1,29.9a2,2,0,1,1-2-2,2.0059,2.0059,0,0,1,2,2"/>
      <path d="M33.1,29.9a2,2,0,1,1-2-2,2.0059,2.0059,0,0,1,2,2"/>
      <path d="M24.2,30.9c0,9,4.9,14,11,14,5.9,0,11.1-5,11.1-14a12.1332,12.1332,0,0,0-1-5c-3-3-7-8-7-8-4,3-7,6-13,7C25.2,24.9,24.2,25.9,24.2,30.9Z" fill="none" stroke="#000" stroke-linejoin="round" stroke-width="2"/>
      <path d="M32.2,37.9a6.6712,6.6712,0,0,0,6,0" fill="none" stroke="#000" stroke-linecap="round" stroke-linejoin="round" stroke-width="2"/>
    </g>
  </g>
</svg>
