<svg id="emoji" viewBox="0 0 72 72" xmlns="http://www.w3.org/2000/svg">
  <g id="color">
    <path fill="#fcea2b" stroke="#fcea2b" stroke-linecap="round" stroke-linejoin="round" stroke-width="2" d="M38,53v-16c0-4.4183,3.5817-8,8-8h8c4.4183,0,8,3.5817,8,8v16h-24Z"/>
    <path fill="#fcea2b" stroke="#fcea2b" stroke-linecap="round" stroke-linejoin="round" stroke-width="2" d="M10,53v-16c0-4.4183,3.5817-8,8-8h8c4.4183,0,8,3.5817,8,8v16H10Z"/>
    <rect x="34" y="37" width="4" height="23" fill="#fcea2b" stroke="#fcea2b" stroke-linecap="round" stroke-linejoin="round" stroke-width="2"/>
    <circle cx="22" cy="18" r="6" fill="#fcea2b" stroke="#fcea2b" stroke-linecap="round" stroke-linejoin="round" stroke-width="2"/>
    <circle cx="50" cy="18" r="6" fill="#fcea2b" stroke="#fcea2b" stroke-linecap="round" stroke-linejoin="round" stroke-width="2"/>
    <g>
      <circle cx="36" cy="42" r="5" fill="#fcea2b" stroke="#fcea2b" stroke-linecap="round" stroke-linejoin="round" stroke-width="2"/>
      <path fill="#fcea2b" stroke="#fcea2b" stroke-linecap="round" stroke-linejoin="round" stroke-width="2" d="M27,60v-3c0-3.3137,2.6863-6,6-6h6c3.3137,0,6,2.6863,6,6v3h-18Z"/>
    </g>
  </g>
  <g id="line">
    <circle cx="36" cy="42" r="5" fill="none" stroke="#000" stroke-linecap="round" stroke-linejoin="round" stroke-width="2"/>
    <circle cx="22" cy="18" r="6" fill="none" stroke="#000" stroke-linecap="round" stroke-linejoin="round" stroke-width="2"/>
    <path fill="none" stroke="#000" stroke-linecap="round" stroke-linejoin="round" stroke-width="2" d="M10,53v-16c0-4.4183,3.5817-8,8-8h8c3.1446,0,5.8654,1.8143,7.1728,4.4533"/>
    <circle cx="50" cy="18" r="6" fill="none" stroke="#000" stroke-linecap="round" stroke-linejoin="round" stroke-width="2"/>
    <path fill="none" stroke="#000" stroke-linecap="round" stroke-linejoin="round" stroke-width="2" d="M27,60v-3c0-3.3137,2.6863-6,6-6h6c3.3137,0,6,2.6863,6,6v3"/>
    <path fill="none" stroke="#000" stroke-linecap="round" stroke-linejoin="round" stroke-width="2" d="M38.8271,33.4534c1.3074-2.639,4.0282-4.4534,7.1729-4.4534h8c4.4183,0,8,3.5817,8,8v16"/>
  </g>
</svg>
