<svg id="emoji" xmlns="http://www.w3.org/2000/svg" viewBox="0 0 72 72">
  <g id="color">
    <path fill="#92D3F5" d="M17,61v-4c0-4.9941,5.0078-9,10-9c6,5,12,5,18,0c4.9941,0,10,4.0059,10,9v4" stroke="none"/>
  </g>
  <g id="hair">
    <path fill="#fcea2b" d="M26,39c-4,0-4-6-4-13s4-14,14-14s14,7,14,14s0,13-4,13" stroke="none"/>
  </g>
  <g id="skin">
    <path fill="#debb90" d="M24.9365,31c0,9,4.9365,14,11,14C41.873,45,47,40,47,31c0-3-1-5.0005-1-5.0005c-3-2.9995-7-8-7-8 c-4,3-7,6-13,7.0005C26,25,24.9365,25.9995,24.9365,31z" stroke="#debb90"/>
  </g>
  <g id="skin-shadow"/>
  <g id="line">
    <path fill="none" stroke="#000000" stroke-width="2" stroke-linecap="round" stroke-linejoin="round" d="M26,39c-4,0-4-6-4-13 s4-14,14-14s14,7,14,14s0,13-4,13"/>
    <path fill="none" stroke="#000000" stroke-width="2" stroke-linecap="round" stroke-linejoin="round" d="M17,60v-3 c0-4.9941,5.0078-9,10-9c6,5,12,5,18,0c4.9941,0,10,4.0059,10,9v3"/>
    <path fill="#000000" d="M41.873,30c0,1.1045-0.8955,2-2,2c-1.1044,0-2-0.8955-2-2s0.8956-2,2-2 C40.9775,28,41.873,28.8955,41.873,30" stroke="none"/>
    <path fill="#000000" d="M33.873,30c0,1.1045-0.8955,2-2,2c-1.1044,0-2-0.8955-2-2s0.8956-2,2-2 C32.9775,28,33.873,28.8955,33.873,30" stroke="none"/>
    <path fill="none" stroke="#000000" stroke-width="2" stroke-linejoin="round" d="M24.9365,31c0,9,4.9365,14,11,14 C41.873,45,47,40,47,31c0-3-1-5.0005-1-5.0005c-3-2.9995-7-8-7-8c-4,3-7,6-13,7.0005C26,25,24.9365,25.9995,24.9365,31z"/>
    <path fill="none" stroke="#000000" stroke-width="2" stroke-linecap="round" stroke-linejoin="round" d="M33,38 c1.9385,0.9385,4,1,6,0"/>
  </g>
</svg>
