<svg id="emoji" viewBox="0 0 72 72" xmlns="http://www.w3.org/2000/svg">
  <g id="hair">
    <path fill="#6a462f" d="M26.1,39.2c-4,0-4-6-4-13s4-14,14-14,14,7,14,14,0,13-4,13"/>
  </g>
  <g id="skin">
    <path fill="#c19a65" d="M24.6,31.1c0,9,4.9,14,11,14,5.9,0,11.1-5,11.1-14a12.1332,12.1332,0,0,0-1-5c-3-3-7-8-7-8-4,3-7,6-13,7C25.7,25.1,24.6,26.1,24.6,31.1Z"/>
  </g>
  <g id="color">
    <path fill="#d22f27" d="M35.6,45.1C32.2,45,27,39.4,27,39.4H13.4a82.9392,82.9392,0,0,1,4.3,8.4,48.6021,48.6021,0,0,1,2.8,9.9H51.4a48.6021,48.6021,0,0,1,2.8-9.9,82.9392,82.9392,0,0,1,4.3-8.4H44.6C44.7,39.4,39.1,45.1,35.6,45.1Z"/>
    <g id="color-2">
      <path fill="#3f3f3f" d="M17.2,61V57.2c0-5,5-9,10-9q9,7.5,18,0c5,0,10,4,10,9V61Z"/>
    </g>
    <path d="M31.6,61h9c3.6-2.9,5.6-13.5,5.6-13.5a15.342,15.342,0,0,1-20.1,0C26.1,47.4,28.1,58,31.6,61Z"/>
  </g>
  <g id="line">
    <g>
      <path fill="none" stroke="#000" stroke-linejoin="round" stroke-width="2" d="M26.5,39.4H13.4a55.4575,55.4575,0,0,1,4.3,8.4A34.2751,34.2751,0,0,1,19,51.6"/>
      <path fill="none" stroke="#000" stroke-linejoin="round" stroke-width="2" d="M53,51.4c.4-1.2.8-2.4,1.3-3.6a51.1306,51.1306,0,0,1,4.3-8.4H44.7"/>
      <path d="M41.6,30.1a2,2,0,1,1-2-2,2.0059,2.0059,0,0,1,2,2"/>
      <path d="M33.6,30.1a2,2,0,1,1-2-2,2.0059,2.0059,0,0,1,2,2"/>
      <path fill="none" stroke="#000" stroke-linecap="round" stroke-linejoin="round" stroke-width="2" d="M32.6,39a6.375,6.375,0,0,1,6,0"/>
      <path fill="none" stroke="#000" stroke-linecap="round" stroke-linejoin="round" d="M38,38.5a4.8752,4.8752,0,0,1,.7.3"/>
      <path fill="none" stroke="#000" stroke-linecap="round" stroke-linejoin="round" stroke-width="2" d="M17.1,60.1v-3c0-5,5-9,10-9q9,7.5,18,0c5,0,10,4,10,9v3"/>
      <g>
        <polygon stroke="#000" stroke-linecap="round" stroke-linejoin="round" points="33.6 38.7 33.9 41.1 34.7 38.8 34.6 38.7 33.6 38.7"/>
        <polygon stroke="#000" stroke-linecap="round" stroke-linejoin="round" points="37.5 38.7 37.3 41.1 36.5 38.8 36.4 38.7 37.5 38.7"/>
      </g>
    </g>
    <path fill="none" stroke="#000" stroke-linejoin="round" stroke-width="2" d="M24.6,31.1c0,9,4.9,14,11,14,5.9,0,11.1-5,11.1-14a12.1332,12.1332,0,0,0-1-5c-3-3-7-8-7-8-4,3-7,6-13,7C25.7,25.1,24.6,26.1,24.6,31.1Z"/>
    <path d="M33.6,30.1a2,2,0,1,1-2-2,2.0059,2.0059,0,0,1,2,2"/>
    <path d="M41.6,30.1a2,2,0,1,1-2-2,2.0059,2.0059,0,0,1,2,2"/>
    <path fill="none" stroke="#000" stroke-linecap="round" stroke-linejoin="round" stroke-width="2" d="M25.7,39.1c-4,0-4-6-4-13s4-14,14-14,14,7,14,14,0,13-4,13"/>
  </g>
</svg>
