<svg id="emoji" xmlns="http://www.w3.org/2000/svg" viewBox="0 0 72 72">
  <g id="hair">
    <g id="hair-2" data-name="hair">
      <path d="M17.6583,47.37a24.0468,24.0468,0,0,0,3.6331,2.7193,10.4646,10.4646,0,0,1,5.361-2.09c6.209,5.0127,12.4951,5.0127,18.7,0a8.343,8.343,0,0,1,4.2087,1.5136,22.7842,22.7842,0,0,0,2.972-2.33c1.1884-.7148,3.125-8.2822.3916-13.0254a23.7322,23.7322,0,0,1-1.1573-2.6328C50.295,28.2544,49.7442,27.0312,49.419,21c.0273-3.6929-3.794-6.7842-7.4746-7.0928a1.0016,1.0016,0,0,1-.6885-.3433c-.0928-.1-2.4082-2.6547-7.2432-2.6547-6.2,0-11.4413,3.3818-12.743,8.226a18.518,18.518,0,0,0-.5645,6.1758,13.3173,13.3173,0,0,1-.7607,5.9609A6.8034,6.8034,0,0,1,18.8253,33.36C15.0528,37.78,17.8506,47.6626,17.6583,47.37Z" fill="#3f3f3f"/>
    </g>
  </g>
  <g id="skin">
    <g id="skin-2" data-name="skin">
      <path d="M25.1674,29.4751v.957c0,7.6494,4.6093,13.6426,10.4941,13.6426s10.4942-5.9932,10.4942-13.6426c0-4.6533-1.7784-7.5151-5.2842-11.1343a64.1459,64.1459,0,0,1-8.9883,5.772C29.2367,26.584,25.6283,28.6391,25.1674,29.4751Z" fill="#fcea2b"/>
    </g>
  </g>
  <g id="color">
    <path d="M35.2876,45.0571c-3.4314-.0664-8.6069-5.6579-8.6069-5.6579l-13.6278-.0206a82.1292,82.1292,0,0,1,4.3183,8.4458,50.0668,50.0668,0,0,1,2.834,9.9442H51.118a50.059,50.059,0,0,1,2.8339-9.9442A83.7925,83.7925,0,0,1,58.27,39.3786L44.3228,39.4S38.7906,45.1248,35.2876,45.0571Z" fill="#d22f27"/>
    <g id="color-2" data-name="color">
      <path d="M16.8372,61.0132V57.18c0-4.9941,5.0078-9,10-9q9,7.5,18,0c4.9941,0,10,4.0059,10,9v3.8331Z" fill="#3f3f3f"/>
    </g>
    <path d="M31.3047,60.9583H40.28C43.8681,58.0577,45.8713,47.42,45.8713,47.42a15.4949,15.4949,0,0,1-20.1372.0186S27.73,58.0329,31.3047,60.9583Z"/>
  </g>
  <g id="line">
    <g>
      <path d="M41.504,29.9341a2,2,0,1,1-2-2,2,2,0,0,1,2,2"/>
      <path d="M33.504,29.9341a2,2,0,1,1-2-2,2,2,0,0,1,2,2"/>
      <path d="M24.504,30.9341c0,8,5,14,11,14s11-6,11-14c0-5-2-8-6-12-4,4-16,9-16,11Z" fill="none" stroke="#000" stroke-linejoin="round" stroke-width="2"/>
      <path d="M32.504,38.9341a6.3739,6.3739,0,0,1,6,0" fill="none" stroke="#000" stroke-linecap="round" stroke-linejoin="round" stroke-width="2"/>
      <path d="M32.4312,38.7327a6.5452,6.5452,0,0,1,6.162,0" fill="none" stroke="#000" stroke-linecap="round" stroke-linejoin="round"/>
      <path d="M26.1189,39.3983l-13.066-.02a51.95,51.95,0,0,1,4.3183,8.4458c.5209,1.3022.9636,2.565,1.34,3.7777" fill="none" stroke="#000" stroke-linejoin="round" stroke-width="2"/>
      <path d="M52.6648,51.432c.365-1.1606.7905-2.3662,1.2871-3.6076A51.9661,51.9661,0,0,1,58.27,39.3786l-13.884.021" fill="none" stroke="#000" stroke-linejoin="round" stroke-width="2"/>
      <path d="M16.7786,60.0571v-3c0-4.9941,5.0078-9,10-9q9,7.5,18,0c4.9941,0,10,4.0059,10,9v3" fill="none" stroke="#000" stroke-linecap="round" stroke-linejoin="round" stroke-width="2"/>
      <g>
        <polygon points="33.563 38.733 33.877 41.126 34.704 38.763 34.613 38.733 33.563 38.733" stroke="#000" stroke-linecap="round" stroke-linejoin="round"/>
        <polygon points="37.457 38.733 37.3 41.126 36.473 38.763 36.406 38.733 37.457 38.733" stroke="#000" stroke-linecap="round" stroke-linejoin="round"/>
      </g>
      <path d="M16.7772,39.1383c.4948-2.4807,1.7853-4.7854,2.7268-7.2042,1.6357-4.2-.209-6.4512,1.291-12.0342,1.4795-5.5,7.2773-8.9658,13.709-8.9658,5.4,0,8,3,8,3a8.1321,8.1321,0,0,1,7.4052,8.0371c.3867,7.18,1.0244,7.1523,3.4287,12.8222a11.5817,11.5817,0,0,1,.9427,4.14" fill="none" stroke="#000" stroke-linecap="round" stroke-linejoin="round" stroke-width="2"/>
    </g>
  </g>
</svg>
