<svg id="emoji" viewBox="0 0 72 72" version="1.1" xmlns="http://www.w3.org/2000/svg">
  <g id="color"/>
  <g id="skin" transform="matrix(-1 0 0 1 68.04 0)">
    <circle cx="34.06" cy="9.7262" r="3" fill="#fadcbc"/>
    <path fill="#fadcbc" d="m14.697 16.453c0.04299 0.7956 0.02636 1.7867 1.1562 1.8996 4.471 0.66236 9.4766 1.7746 17.834 1.3381l2.5992-0.27158 0.49199 1.7909 1.6209 4.3853-2.7949 0.87369-8.8353-0.12379-3.979-1.9656c-1.5321-0.55374-4.118-0.95577-5.7302-1.5257-1.6941-0.59889-1.4816-0.30607-3.3375-0.84435l-3.5453 0.85696-0.46254 2.0264c-0.43629 3.2618 0.75597-1.9056 1.0327 1.3935-0.60719 0.38014 2.8645 1.3689 4.2488 2.0643 1.5712 0.61639 6.9803 3.1744 9.0418 2.461l4.1751 2.0323 10.473 2.6654 2.5741 12.011-0.80294 4.1203c0.14764 2.1561 0.32218 4.0029 0.5114 5.6809l1.3401 4.8788h2.86l1.221-4.3668c0.24-2.3031 0.40935-4.7438 0.56547-7.2208l-0.64258-4.6184v-14.299l-0.9533-13.346-1.9072-1.9066 5.815-2.7645 6.7682-4.29s1.1439-0.8579 0.286-2.9551l-4.9571 2.9557-9.342 4.957-4.5757 1.144-4.1478 0.93692-2.5316 1.4343-7.7025-1.9048z"/>
  </g>
  <g id="line" transform="matrix(-1 0 0 1 68.04 0)" fill="none" stroke="#000" stroke-width="2">
    <circle cx="33.919" cy="9.8664" r="2.8598" stroke-miterlimit="10"/>
    <path stroke-linecap="round" stroke-linejoin="round" d="m55.558 6.9112-5.72 3.7178c-1.0614 0.66568-2.1776 1.2397-3.3364 1.7159l-3.5271 1.3345c-0.9533 0.3813-2.5739 0.9533-3.6225 1.2393-5.2482 1.555-3.5975 1.1868-5.7679 1.6488l-3.3879 0.46938c-1.246 0.13105-4.2134 0.02394-5.4636-0.05814l-9.0822-0.89397"/>
    <path stroke-linecap="round" stroke-linejoin="round" d="m15.379 27.433 1.4695-3.5921m-4.3766 2.4375-1.7589-0.68021c-0.91984-0.26297-1.4748-1.1979-1.2651-2.1313 0.22626-0.78241 1.2545-1.2051 2.3801-0.96084l2.0022 0.56789m6.1867 1.5778 3.0689 0.77344c1.2351 0.28543 2.4921 0.4664 3.7577 0.54096l7.7416 0.29938c1.0296 0.05394 2.726 0.01081 3.6034-0.04949 1.0487-0.22995-0.86994-5.4256-1.838-6.9681m9.3379 35.146-3.9944 1.47e-4m-0.24583-2.8462-0.09257-2.0258c-0.0953-1.0486-0.3813-2.7645-0.572-3.8131-0.72399-3.4279-1.3788-6.8762-2.1346-10.295l-10.603-3.0838c-0.99219-0.26372-2.5103-0.71814-3.5221-1.1153l-6.1295-2.5363m23.557 28.5 0.16654 3.1149c0.0953 1.0486 0.7626 1.9065 1.5253 1.9065 0.925-0.14533 1.5865-0.97216 1.5252-1.9065l0.25041-3.1005m0.50318-5.8562 0.19971-3.4358c0.0953-1.0486 0.0953-2.7645 0.0953-3.8131v-10.486c0-1.0486-0.0953-2.7645-0.0953-3.8131l-0.6673-9.5327c-0.17576-1.1895-0.66986-2.3094-1.43-3.2411l-2.4785-2.5738"/>
  </g>
</svg>
