<svg id="emoji" xmlns="http://www.w3.org/2000/svg" viewBox="0 0 72 72">
  <g id="color">
    <path fill="#92D3F5" d="M18,61v-4.0615c0-4.9942,3.8223-9,8.8145-9c6,5,12,5,18,0c4.9941,0,9.1855,4.0058,9.1855,9V61" stroke="none"/>
  </g>
  <g id="hair">
    <path fill="#F1B31C" d="M26,40c-6,0-5-16-2-20c6-8,18-8,24,0c3,4,4,20-2,20" stroke="none"/>
  </g>
  <g id="skin">
    <path fill="#FCEA2B" d="M25,34c0,8,4.8145,11.877,10.8145,11.877S47,42,47,34c0-5.9165-2.2246-9.1851-2.2246-9.1851 c-2,0-5.7754-3.5327-5.7754-3.5327s-8.25,5.4966-12.8477,5.4966C26.1523,26.7788,25,27.9927,25,34z" stroke="none"/>
  </g>
  <g id="skin-shadow"/>
  <g id="line">
    <path fill="none" stroke="#000000" stroke-width="2" stroke-linecap="round" stroke-linejoin="round" d="M26,40c-6,0-5-16-2-20 c6-8,18-8,24,0c3,4,4,20-2,20"/>
    <path fill="none" stroke="#000000" stroke-width="2" stroke-linecap="round" stroke-linejoin="round" d="M18,60v-3.123 c0-4.9942,3.8223-9,8.8145-9c6,5,12,5,18,0c4.9941,0,9.1855,4.0058,9.1855,9V60"/>
    <path fill="#000000" d="M42,33c0,1.1045-0.8955,2-2,2c-1.1045,0-2-0.8955-2-2s0.8955-2,2-2C41.1045,31,42,31.8955,42,33" stroke="none"/>
    <path fill="#000000" d="M34,33c0,1.1045-0.8955,2-2,2c-1.1045,0-2-0.8955-2-2s0.8955-2,2-2C33.1045,31,34,31.8955,34,33" stroke="none"/>
    <path fill="none" stroke="#000000" stroke-width="2" stroke-linejoin="round" d="M25,34c0,8,4.8145,11.877,10.8145,11.877 S47,42,47,34c0-5.9165-2.2246-9.1851-2.2246-9.1851c-2,0-5.7754-3.5327-5.7754-3.5327s-8.25,5.4966-12.8477,5.4966 C26.1523,26.7788,25,27.9927,25,34z"/>
    <path fill="none" stroke="#000000" stroke-width="2" stroke-linecap="round" stroke-linejoin="round" d="M32.8145,39.25 c1.875,1,4.125,1,6,0"/>
  </g>
</svg>
