<svg id="emoji" xmlns="http://www.w3.org/2000/svg" viewBox="0 0 72 72">
  <g id="hair">
    <g id="hair-2" data-name="hair">
      <path d="M35.7426,53.2683c13.4215-9.6934,13.0943-22.1473,11.7-27.5827h-1.7s1.5809,7.897-9.7577,7.897-9.496-7.897-9.496-7.897H24.7426C23.1407,30.4308,22.3457,41.36,35.7426,53.2683Z" fill="#fcea2b"/>
    </g>
  </g>
  <g id="skin">
    <g id="skin-2" data-name="skin">
      <path d="M25.3928,26.1315,27.55,30.8524a10.2615,10.2615,0,0,0,8.2772,2.5023c3.3707.1732,6.095-.2045,7.76-1.4849l2.607-5.9329" fill="#debb90"/>
    </g>
  </g>
  <g id="color">
    <path d="M45.9765,20.8353C45.7584,16.5841,44.0871,9.486,35.406,9.2684c-11.9534,0-14.5784,11-14.5784,11l-.9966,1.993L19.21,23.5039l-5.3823,2.1818h4.4612L16.697,31.3643a2.8108,2.8108,0,0,0-.2248,1.889l2.93,10.7534a.3432.3432,0,0,0,.6632.0214l.1966-7.6658a4.3562,4.3562,0,0,1,.6148-2.3271l.95.367,2.3952-2.603.52-6.1136h33.085Z" fill="#92d3f5"/>
    <path d="M53.1012,40.46a5,5,0,1,1,4.2871-.1878" fill="#61b2e4"/>
    <path d="M55.0474,32.5227a4.3814,4.3814,0,0,0-2.34,1.15,10.66,10.66,0,0,1,4.68,0A4.3819,4.3819,0,0,0,55.0474,32.5227Z" fill="#92d3f5"/>
    <path d="M54.9224,60.9235s1.2609-9.5043-4.2266-13.42a8.1229,8.1229,0,0,0-5.6974-1.4115c-4.9539.7474-9.2514,6.7335-9.2514,6.7335s-4.5777-5.9593-9.3223-6.7621a6.3953,6.3953,0,0,0-5.2011,1.4636C15.7942,51.435,17.0474,60.81,17.0474,60.81" fill="#92d3f5"/>
    <path d="M44.47,45.9074c-3.17,2.1133-2.7856,4.5685-6.8481,5.157,13.0625.4115,12.0731,5.932,12.8353,9.932H55.57S58.104,45.5011,44.47,45.9074Z" fill="#61b2e4"/>
    <polyline points="57.047 60.921 57.047 40.215 53.047 40.215 53.047 60.921" fill="#a57939"/>
    <path d="M18.2888,25.6857,16.697,31.3643a2.8108,2.8108,0,0,0-.2248,1.889l2.93,10.7534a.3432.3432,0,0,0,.6632.0214l.1966-7.6658c-.0383-.9034.21.2392.6148-.57l.95-1.2771,1.944-2.14.971-6.69H45.6864" fill="#61b2e4"/>
  </g>
  <g id="line">
    <g>
      <path d="M25.1653,46.9659C15.0884,48.1574,16.89,59.8684,16.89,59.8684" fill="none" stroke="#000" stroke-linecap="round" stroke-linejoin="round" stroke-width="2"/>
      <path d="M53.0505,50.7465a8.3715,8.3715,0,0,0-5.88-3.68" fill="none" stroke="#000" stroke-linecap="round" stroke-linejoin="round" stroke-width="2"/>
      <path d="M18.8276,24.2684,16.697,31.3643a2.8108,2.8108,0,0,0-.2248,1.889l2.93,10.7534a.3432.3432,0,0,0,.6632.0214l.1967-7.6658a3.6008,3.6008,0,0,1,.2005-1.384" fill="none" stroke="#000" stroke-linecap="round" stroke-linejoin="round" stroke-width="2"/>
      <path d="M35.7426,53.2683c13.4215-9.6934,13.0943-22.1473,11.7-27.5827h-1.7s1.5809,7.897-9.7577,7.897-9.496-7.897-9.496-7.897H24.7426C23.1407,30.4308,22.3457,41.36,35.7426,53.2683Z" fill="none" stroke="#000" stroke-linecap="round" stroke-linejoin="round" stroke-width="2"/>
      <path d="M41.8277,28.9076a2,2,0,1,1-2-2,2.0007,2.0007,0,0,1,2,2"/>
      <path d="M33.8277,28.9076a2,2,0,1,1-2-2,2.0007,2.0007,0,0,1,2,2"/>
      <path d="M35.8276,38.91a7.6531,7.6531,0,0,1-3.4473-.8579,1,1,0,0,1,.8946-1.7891,5.3772,5.3772,0,0,0,5.1054,0,1,1,0,0,1,.8946,1.7891A7.6528,7.6528,0,0,1,35.8276,38.91Z"/>
      <path d="M53.1012,40.46a5,5,0,1,1,4.2871-.1878" fill="none" stroke="#000" stroke-linecap="round" stroke-linejoin="round" stroke-width="2"/>
      <path d="M26.7249,17.46a15.3747,15.3747,0,0,0-.8973,3.375H25.793l-11.9654,4.85h44l-11.851-4.85c-.2182-4.2512-2.23-11.3493-10.9108-11.5669-12.97,0-15.2347,13.47-15.2347,13.47" fill="none" stroke="#000" stroke-linecap="round" stroke-linejoin="round" stroke-width="2"/>
      <polyline points="57.047 59.921 57.047 40.475 53.047 40.475 53.047 59.921" fill="none" stroke="#000" stroke-linecap="round" stroke-linejoin="round" stroke-width="2"/>
    </g>
  </g>
</svg>
