<?xml version="1.0" encoding="utf-8"?>
<!-- Generator: Adobe Illustrator 21.1.0, SVG Export Plug-In . SVG Version: 6.00 Build 0)  -->
<svg version="1.1" id="emoji" xmlns="http://www.w3.org/2000/svg" xmlns:xlink="http://www.w3.org/1999/xlink" x="0px" y="0px"
	 viewBox="0 0 72 72" enable-background="new 0 0 72 72" xml:space="preserve">
<g id="_xD83E__xDDDD__1_">
	<path fill="#F4AA42" d="M35.8,9.4c-8.9,0-14.3,7.4-16.8,16v18c0,17.5,33.2,18.2,33.2,0c0-16.7-0.3-18-0.3-18
		C51.8,16.6,44.6,9.4,35.8,9.4z"/>
	<ellipse fill="#FCEA2C" cx="35.8" cy="28.4" rx="11.3" ry="14.2"/>
	<path fill="#F4AA42" d="M35.8,10.4c-7.6,0-13.9,5.6-15.1,12.8c8.8,3.1,13.2-3.9,13.2-3.9c2-2.4,2-5.1,2-5.1h0.1
		c0,0,0.1,2.6,2.2,5.1c0,0,3.4,6.5,12.9,3.9C49.7,16,43.4,10.4,35.8,10.4z"/>
	<path fill="#B0CB34" d="M54.9,59.5c0,0,2-14-10-14c-3.2,2.1-5.9,3.6-9,3.6H36c-3.1,0-5.8-1.5-9-3.6c-12,0-10,14-10,14"/>
	<path fill="#5C9E32" d="M45.2,45.4c-3.2,2.1-4.9,3-8.9,3.6c13.1,0.4,13,6.4,13.7,10.4c4.2,0,5.1,0,5.1,0S57.2,45.4,45.2,45.4z"/>
	<path d="M41.9,27.1c0,1.1-0.9,2-2,2c-1.1,0-2-0.9-2-2c0-1.1,0.9-2,2-2C41,25.1,41.9,26,41.9,27.1"/>
	<path d="M33.9,27.1c0,1.1-0.9,2-2,2c-1.1,0-2-0.9-2-2c0-1.1,0.9-2,2-2C33,25.1,33.9,26,33.9,27.1"/>
	<path d="M35.9,37.1c-1.2,0-2.3-0.3-3.4-0.9C32,36,31.8,35.4,32,34.9c0.2-0.5,0.8-0.7,1.3-0.4c1.7,0.9,3.4,0.9,5.1,0
		c0.5-0.2,1.1,0,1.3,0.4c0.2,0.5,0,1.1-0.4,1.3C38.2,36.8,37.1,37.1,35.9,37.1z"/>
	<path fill="none" stroke="#000000" stroke-width="2" stroke-linecap="round" stroke-linejoin="round" stroke-miterlimit="10" d="
		M50.9,22.6C46.4,9,35.9,10.4,35.9,10.4S25.6,9,21,22.4"/>
	<path fill="none" stroke="#1D1D1B" stroke-width="2" stroke-linecap="round" stroke-linejoin="round" stroke-miterlimit="10" d="
		M28.6,21.3"/>
	<path fill="none" stroke="#000000" stroke-width="2" stroke-linecap="round" stroke-linejoin="round" stroke-miterlimit="10" d="
		M26.7,20.1c1.2,1.1,3.2,2.2,6.1,1.5"/>
	<path fill="none" stroke="#000000" stroke-width="2" stroke-linecap="round" stroke-linejoin="round" stroke-miterlimit="10" d="
		M45.1,20.1c-1.2,1.1-3.2,2.2-6.1,1.5"/>
	<circle cx="35.9" cy="20.6" r="1.5"/>
	
		<path fill="#FCEA2C" stroke="#000000" stroke-width="2" stroke-linecap="round" stroke-linejoin="round" stroke-miterlimit="10" d="
		M25.4,23.2L14,21.6c0,0,6.2,9.7,10.4,8.7"/>
	
		<path fill="#F0B41A" stroke="#000000" stroke-width="2" stroke-linecap="round" stroke-linejoin="round" stroke-miterlimit="10" d="
		M35.9,14.3c0,0-1,2.6-3.1,5.1"/>
	
		<path fill="#FCEA2C" stroke="#1D1D1B" stroke-width="2" stroke-linecap="round" stroke-linejoin="round" stroke-miterlimit="10" d="
		M46.5,23.2l11.4-1.6c0,0-6.3,9.8-10.5,8.8"/>
	<path fill="none" stroke="#000000" stroke-width="2" stroke-linecap="round" stroke-linejoin="round" stroke-miterlimit="10" d="
		M35.9,14.3c0,0,1,2.6,3.1,5.1"/>
	
		<line fill="none" stroke="#000000" stroke-width="2" stroke-linecap="round" stroke-linejoin="round" stroke-miterlimit="10" x1="51.1" y1="29.5" x2="51.1" y2="43"/>
	<g>
		
			<polyline fill="#69462E" stroke="#000000" stroke-width="2" stroke-linecap="round" stroke-linejoin="round" stroke-miterlimit="10" points="
			18,50.6 18,41 25.1,41 25.1,44.6 		"/>
		
			<line fill="#69462E" stroke="#000000" stroke-width="2" stroke-linecap="round" stroke-linejoin="round" stroke-miterlimit="10" x1="19.9" y1="41" x2="19.9" y2="36.2"/>
		
			<line fill="#69462E" stroke="#000000" stroke-width="2" stroke-linecap="round" stroke-linejoin="round" stroke-miterlimit="10" x1="23.3" y1="41" x2="23.3" y2="37.6"/>
	</g>
	<path fill="#A37838" d="M47.9,59.5C29.4,54.4,27,45.4,27,45.4s-4.2,0.2-5.7,1.4c3.1,6.4,5.9,9.6,14.1,12.7"/>
	
		<path fill="#F0B41A" stroke="#1D1D1B" stroke-width="2" stroke-linecap="round" stroke-linejoin="round" stroke-miterlimit="10" d="
		M28.2,23.3"/>
	<path fill="none" stroke="#000000" stroke-width="2" stroke-linecap="round" stroke-linejoin="round" stroke-miterlimit="10" d="
		M54.9,58.4c0,0,2-13-10-13c-3.2,2.1-5.9,3.6-9,3.6H36c-3.1,0-5.8-1.5-9-3.6c-12,0-10,13-10,13"/>
	<path fill="#F0B41A" d="M51,29.4c-1.2,0.8-2.5,1.3-3.6,1"/>
	<line fill="#F0B41A" x1="46.5" y1="23.2" x2="48.6" y2="22.9"/>
	<path fill="none" stroke="#000000" stroke-width="2" stroke-linecap="round" stroke-linejoin="round" stroke-miterlimit="10" d="
		M26.3,23l-1,0.2c-0.5,1.6-0.8,3.3-0.8,5.2c0,7.8,5.1,14.2,11.3,14.2s11.3-6.3,11.3-14.2c0-1.8-0.3-3.6-0.8-5.2l-0.8-0.3"/>
	<path fill="none" stroke="#000000" stroke-width="2" stroke-linecap="round" stroke-linejoin="round" stroke-miterlimit="10" d="
		M46.5,23.2l11.4-1.6c0,0-6.3,9.8-10.5,8.8"/>
	
		<line fill="none" stroke="#000000" stroke-width="2" stroke-linecap="round" stroke-linejoin="round" stroke-miterlimit="10" x1="19.8" y1="28.8" x2="19.8" y2="32"/>
	<path fill="none" stroke="#000000" stroke-width="2" stroke-linecap="round" stroke-linejoin="round" stroke-miterlimit="10" d="
		M47.8,58.5C29.3,53.4,27,45.4,27,45.4s-4.2,0.2-5.7,1.4c3.1,6.4,5.7,8.6,13.9,11.8"/>
</g>
</svg>
