<svg id="emoji" xmlns="http://www.w3.org/2000/svg" viewBox="0 0 72 72">
  <g id="color">
    <path d="M55.1,59s2-15.1-10-15.1c-5.6-.1-12.4,0-17.9,0-12,0-10,15-10,15" fill="#92d3f5"/>
    <path d="M44,43.9c-3.2,2.1-3.8,4-7.8,4.6,13,.4,13,6.5,13.7,10.5H55S57.6,43.5,44,43.9Z" fill="#61b2e4"/>
    <path d="M46.1,18.9c-.2-4.3-1.9-11.3-10.6-11.6-12,0-14.6,11-14.6,11l-1,2-.6,1.2L14,23.7h4.5l-1.6,5.7a2.5391,2.5391,0,0,0-.2,1.9L19.5,42a.3646.3646,0,0,0,.7,0l.2-7.7A4.6453,4.6453,0,0,1,21,32l1,.4,8-8.7H58Z" fill="#92d3f5"/>
    <path d="M18.4,23.7l-1.6,5.7a2.5391,2.5391,0,0,0-.2,1.9L19.5,42a.3646.3646,0,0,0,.7,0l.2-7.7c0-.9.2.2.6-.6l1-1.3,8-8.8H45.9" fill="#61b2e4"/>
    <path d="M53.2,38.5a5.0375,5.0375,0,0,1-3.1-4.6,5,5,0,1,1,7.3,4.4" fill="#61b2e4"/>
    <polyline points="57.2 59 57.2 38.3 53.2 38.3 53.2 59" fill="#a57939"/>
    <path d="M55.2,30.6a4.2814,4.2814,0,0,0-2.3,1.1,10.64,10.64,0,0,1,4.7,0A5.2934,5.2934,0,0,0,55.2,30.6Z" fill="#92d3f5"/>
  </g>
  <g id="skin">
    <path d="M25.5,24.2v4.4c-2.1,8,7,13.8,10.4,13.4,3.4.2,9.7-3.4,10.4-8.7V24" fill="#debb90"/>
  </g>
  <g id="line">
    <path d="M25.3,45C15.2,46.2,17,57.9,17,57.9" fill="none" stroke="#000" stroke-linecap="round" stroke-linejoin="round" stroke-width="2"/>
    <path d="M53.2,48.8a8.4958,8.4958,0,0,0-5.9-3.7" fill="none" stroke="#000" stroke-linecap="round" stroke-linejoin="round" stroke-width="2"/>
    <path d="M19,22.3l-2.1,7.1a2.5391,2.5391,0,0,0-.2,1.9L19.5,42a.3646.3646,0,0,0,.7,0l.2-7.7a5.9019,5.9019,0,0,1,.2-1.4" fill="none" stroke="#000" stroke-linecap="round" stroke-linejoin="round" stroke-width="2"/>
    <path d="M42,27a2,2,0,1,1-2-2,1.9442,1.9442,0,0,1,2,2"/>
    <path d="M34,27a2,2,0,1,1-2-2,1.9442,1.9442,0,0,1,2,2"/>
    <path d="M36,37a6.9211,6.9211,0,0,1-3.4-.9.9618.9618,0,0,1,.9-1.7,5.1542,5.1542,0,0,0,5.1,0,.9618.9618,0,1,1,.9,1.7A7.9114,7.9114,0,0,1,36,37Z"/>
    <path d="M53.2,38.5a5.0375,5.0375,0,0,1-3.1-4.6,5,5,0,1,1,7.3,4.4" fill="none" stroke="#000" stroke-linecap="round" stroke-linejoin="round" stroke-width="2"/>
    <path d="M26.9,15.5a15.9426,15.9426,0,0,0-.9,3.4h0L14,23.8H58L46.1,18.9c-.2-4.3-2.2-11.3-10.9-11.6C22.2,7.3,20,20.8,20,20.8" fill="none" stroke="#000" stroke-linecap="round" stroke-linejoin="round" stroke-width="2"/>
    <polyline points="57.2 58 57.2 38.5 53.2 38.5 53.2 58" fill="none" stroke="#000" stroke-linecap="round" stroke-linejoin="round" stroke-width="2"/>
    <path d="M25.3,24a19.6115,19.6115,0,0,0-.3,4c0,9,4.9,14,11,14,5.9,0,11-5,11-14a13.7668,13.7668,0,0,0-.7-4.4" fill="none" stroke="#000" stroke-linejoin="round" stroke-width="2"/>
  </g>
</svg>
