<svg id="emoji" viewBox="0 0 72 72" xmlns="http://www.w3.org/2000/svg">
  <g id="color">
    <path fill="#92d3f5" d="M17,61V57c0-5,5-9,10-9q9,7.5,18,0c5,0,10,4,10,9v4"/>
  </g>
  <g id="skin">
    <path fill="#fcea2b" d="M25.4,29.4v1C25.4,38,30,44,35.9,44s10.5-6,10.5-13.6c0-4.7-1.8-7.5-5.3-11.1a60.1106,60.1106,0,0,1-9,5.8C29.5,26.5,25.8,28.6,25.4,29.4Z"/>
  </g>
  <g id="hair">
    <path fill="#f1b31c" d="M53.3,34.1c-.4-.9-.8-1.7-1.2-2.6-1.5-3.3-2-4.5-2.3-10.5,0-3.7-3.8-6.8-7.5-7.1a.9079.9079,0,0,1-.7-.3,9.7191,9.7191,0,0,0-7.2-2.7c-6.2,0-11.4,3.4-12.7,8.2a21.4234,21.4234,0,0,0-.6,6.2,13.66,13.66,0,0,1-.8,6,5.2907,5.2907,0,0,1-1.1,2.1c-3.74,4.24-1.08,13.91-1.19,13.91A30.53,30.53,0,0,0,21.6,50,10.7253,10.7253,0,0,1,27,47.9c6.2,5,12.5,5,18.7,0a8.5648,8.5648,0,0,1,4.2,1.5,23.7111,23.7111,0,0,0,3-2.3C54.1,46.4,56,38.8,53.3,34.1ZM35.9,45.5C22.75,45.63,24.94,31,24.8,29.64,24.65,28.28,37.24,23,40.95,18.53,46.4,23,47.34,29.97,47.34,29.97S49.05,45.37,35.9,45.5Z"/>
    <path fill="#f1b31c" d="M24.3,29a27.5264,27.5264,0,0,0,2.1,5.8s2,3,2.7-1.2a24.2789,24.2789,0,0,1,13.1,0c.8,4.2,2.7,1.2,2.7,1.2A27.5264,27.5264,0,0,0,47,29h0a10.8977,10.8977,0,0,1,.3,2.4,16.1381,16.1381,0,0,1-1.9,8.9A9.3425,9.3425,0,0,1,43.3,43a10.3838,10.3838,0,0,1-7.4,2.5h-.3A10.3838,10.3838,0,0,1,28.2,43a11.4612,11.4612,0,0,1-2.1-2.7,16.1381,16.1381,0,0,1-1.9-8.9c.1-1,.1-2,.1-2.4"/>
  </g>
  <g id="line">
    <path fill="none" stroke="#000" stroke-linecap="round" stroke-linejoin="round" stroke-width="2" d="M18.8,46.6c-3.7-5.9-.6-10.1,1.2-14.7,1.6-4.2-.2-6.5,1.3-12s7.3-9,13.7-9c5.4,0,8,3,8,3a8.1232,8.1232,0,0,1,7.4,8c.4,7.2,1,7.2,3.4,12.8a11.7356,11.7356,0,0,1-1.4,11.7"/>
    <path fill="none" stroke="#000" stroke-linecap="round" stroke-linejoin="round" stroke-width="2" d="M17,59.9v-3c0-5,5-9,10-9q9,7.5,18,0c5,0,10,4,10,9v3"/>
    <path d="M42,29.275a2,2,0,1,1-2-2,2,2,0,0,1,2,2"/>
    <path d="M34,29.275a2,2,0,1,1-2-2,2,2,0,0,1,2,2"/>
    <path fill="none" stroke="#000" stroke-linejoin="round" stroke-width="2" d="M47,30.9c0-5-2-8-6-12-4,4-16,9-16,11v1"/>
    <path d="M39.9,36.5a.9923.9923,0,0,1-.5,1.3,7.19,7.19,0,0,1-3.5.8,8.075,8.075,0,0,1-3.4-.8.9923.9923,0,0,1-.5-1.3.8825.8825,0,0,1,1.3-.4,5.1542,5.1542,0,0,0,5.1,0A1.1031,1.1031,0,0,1,39.9,36.5Z"/>
    <path fill="none" stroke="#000" stroke-linecap="round" stroke-linejoin="round" stroke-width="2" d="M24.9365,31c-.2,3.1-.3365,6.6,1.1635,9.3A11.4612,11.4612,0,0,0,28.2,43a10.5129,10.5129,0,0,0,7.4,2.5"/>
    <path fill="none" stroke="#000" stroke-linecap="round" stroke-linejoin="round" stroke-width="2" d="M47,31a8.6294,8.6294,0,0,1-1.9,3.9s-1.9,3-2.7-1.2a24.2789,24.2789,0,0,0-13.1,0c-.8,4.2-2.7,1.2-2.7,1.2A10.0025,10.0025,0,0,1,25,31"/>
    <path fill="none" stroke="#000" stroke-linecap="round" stroke-linejoin="round" stroke-width="2" d="M47,31.4a15.9556,15.9556,0,0,1-1.6,8.9A9.3425,9.3425,0,0,1,43.3,43a10.3838,10.3838,0,0,1-7.4,2.5h-.3"/>
  </g>
</svg>
