<?xml version="1.0" encoding="utf-8"?>
<!-- Generator: Adobe Illustrator 21.1.0, SVG Export Plug-In . SVG Version: 6.00 Build 0)  -->
<svg version="1.1" id="emoji" xmlns="http://www.w3.org/2000/svg" xmlns:xlink="http://www.w3.org/1999/xlink" x="0px" y="0px"
	 viewBox="0 0 72 72" enable-background="new 0 0 72 72" xml:space="preserve">
<g id="_xD83E__xDDD3__1_">
	<path fill="#D0CFCE" d="M25,39c-2,0-4-10-4-13c0-4,5-14,15-14s15,8,15,14c0,5-3,14-5,14"/>
	<path fill="#92D3F5" d="M55,61v-4c0-5-5-9-10-9c-6,5-12,5-18,0c-5,0-10,4-10,9v4H55z"/>
	<path fill="#FCEA2B" d="M25,31.5C25,39.8,29,46,35.9,46C43,46,47,39.8,47,31.5c0-6.2-3-11.4-4-12.4C41,17,40,17,40,17
		c-2,1-9,0-11,2.1C28,20.1,25,25.3,25,31.5z"/>
	<path fill="none" stroke="#040404" stroke-width="2" stroke-linecap="round" stroke-linejoin="round" d="M27.1,41c-4-2-5.4-8-6-13
		c-1-9,6-16,15-16c10,0,16,7,15,16.2c-0.7,6.8-3,11.8-6,12.8"/>
	<path fill="none" stroke="#040404" stroke-width="2" stroke-linejoin="round" d="M25.1,31.5c0,8.3,4,14.5,10.9,14.5
		c7.1,0,11.1-6.2,11.1-14.5c0-6.2-1.2-8.1-2-9.3c-2-3.1-4-5.2-4-5.2c-2,1-10,0-12,2.1C28.1,20.1,25.1,25.3,25.1,31.5z"/>
	<path fill="none" stroke="#040404" stroke-width="2" stroke-linecap="round" stroke-linejoin="round" d="M17,60v-3c0-5,5-9,10-9
		c6,5,12,5,18,0c5,0,10,4,10,9v3"/>
	<path fill="none" stroke="#040404" stroke-width="2" stroke-linecap="round" stroke-linejoin="round" d="M38.1,38.4
		c-1.2,0.8-2.6,0.8-4,0"/>
	<path fill="none" stroke="#040404" stroke-width="2" stroke-linecap="round" stroke-linejoin="round" d="M31.1,36.4c0,1-1,2-1,2"/>
	<path fill="none" stroke="#040404" stroke-width="2" stroke-linecap="round" stroke-linejoin="round" d="M41.1,36.4c0,1,1,2,1,2"/>
	<path fill="#040404" d="M42,29.4c0,1.1-0.9,2-2,2c-1.1,0-2-0.9-2-2s0.9-2,2-2C41.1,27.4,42,28.3,42,29.4"/>
	<path fill="#040404" d="M34,29.4c0,1.1-0.9,2-2,2c-1.1,0-2-0.9-2-2s0.9-2,2-2C33.1,27.4,34,28.3,34,29.4"/>
</g>
</svg>
