<svg version="1.1" id="emoji" xmlns="http://www.w3.org/2000/svg" x="0" y="0" viewBox="0 0 72 72" enable-background="new 0 0 72 72" xml:space="preserve">
  <g id="color">
    <circle fill="none" stroke="#FCEA2B" stroke-width="1.8" stroke-miterlimit="10" cx="35.3273" cy="35.5926" r="22.9758"/>
    <circle fill="#FCEA2B" cx="35.3273" cy="35.5926" r="22.9758"/>
  </g>
  <g id="hair"/>
  <g id="skin"/>
  <g id="skin-shadow"/>
  <g id="line">
    <path fill="none" stroke="#000000" stroke-width="2" stroke-linecap="round" stroke-linejoin="round" stroke-miterlimit="10" d="M28.2232,43.9118c2.3686-0.6663,11.8642,0.535,14.0445,2.0632"/>
    <path fill="none" stroke="#000000" stroke-width="2" stroke-linecap="round" stroke-linejoin="round" stroke-miterlimit="10" d="M21.7011,22.9633c1.2822-0.889,2.8466-1.271,4.3937-1.0722c1.5679,0.0356,3.0646,0.6567,4.1996,1.7378"/>
    <path fill="none" stroke="#000000" stroke-width="2" stroke-linecap="round" stroke-linejoin="round" stroke-miterlimit="10" d="M48.4442,26.9424c-2.4149-1.7243-5.3513,0-8.2333-0.2604"/>
    <ellipse id="SVGID_3_" cx="43.1495" cy="33.246" rx="2.6032" ry="2.6032"/>
    <ellipse cx="26.2295" cy="29.9849" rx="2.6032" ry="2.6032"/>
    <path fill="none" stroke="#000000" stroke-width="2" stroke-linecap="round" stroke-linejoin="round" stroke-miterlimit="10" d="M54.9988,47.5571c2.118-3.4684,3.3425-7.5426,3.3527-11.9034c0.0296-12.6897-10.2333-22.9998-22.9221-23.0294 C22.7397,12.5946,12.4297,22.8566,12.4,35.5463c-0.0296,12.6888,10.2324,22.9998,22.9221,23.0294 c5.2035,0.0122,10.0071-1.7066,13.8658-4.6137"/>
    <circle fill="none" stroke="#000000" stroke-width="2" stroke-linecap="round" stroke-linejoin="round" stroke-miterlimit="10" cx="43.3285" cy="30.434" r="9.4209"/>
    <path fill="none" stroke="#000000" stroke-width="2" stroke-linecap="round" stroke-linejoin="round" stroke-miterlimit="10" d="M53.0875,30.5809c0,0,2.2127,0.5511,1.9237,4.0128s-3.5691,7.9621-3.5691,7.9621s-2.0208,2.3624-1.4607,4.3219 c0.7165,2.5065,4.3147,6.4367,4.1809,8.6099"/>
  </g>
</svg>
