<svg id="emoji" xmlns="http://www.w3.org/2000/svg" viewBox="0 0 72 72">
  <g id="hair">
    <path d="M25.1584,37.9453c-3,0-4-7-4-14,0-6,5-12,14-12s14,6,14,12c0,7-1,14-4,14" fill="#000000"/>
    <path d="M25.1584,37.9453c-3,0-4-7-4-14,0-6,5-12,14-12s14,6,14,12c0,7-1,14-4,14" fill="#000000"/>
  </g>
  <g id="skin">
    <path d="M16.217,60.9014V57.0683c0-4.9941,5.0078-9,10-9q9,7.5,18,0c4.9941,0,10,4.0059,10,9v3.8331Z" fill="#6a462f"/>
    <path d="M24.0949,30.4453c-.1015,7.999,4.0635,14,11,14,7.0635,0,11.0635-6,11.0635-14,0-5-3-10-3-10-8,0-10,3-16,1A17.0768,17.0768,0,0,0,24.0949,30.4453Z" fill="#6a462f"/>
    <path d="M24.0949,30.4453c-.1015,7.999,4.0635,14,11,14,7.0635,0,11.0635-6,11.0635-14,0-5-3-10-3-10-8,0-10,3-16,1A17.0768,17.0768,0,0,0,24.0949,30.4453Z" fill="#6a462f"/>
  </g>
  <g id="color">
    <path d="M63.3652,31.245c-.28,1.27-.71,3.29-1.17,5.77-.46,2.52-.94,5.17-1.32,8.5-.67,6.01-1.06,9.01-1.05,10.01a14.6067,14.6067,0,0,1-.45,3.05,2.703,2.703,0,0,1-.2.52,1.9929,1.9929,0,0,1-.17.24,11.9609,11.9609,0,0,1-2.23,1.57h-2.56v-3.84c0-4.99-5-9-10-9a15.0784,15.0784,0,0,1-7.54,3.65,20.5905,20.5905,0,0,1,4.51-7.2c1.35-1.35,6.54-4.33,16.87-10.25C60.2751,32.995,62.1152,31.945,63.3652,31.245Z" fill="#b1cc33"/>
    <path d="M33.7652,51.715a15.0246,15.0246,0,0,1-7.55-3.65c-4.99,0-10,4.01-10,9v3.84h-2.55a11.8139,11.8139,0,0,1-2.24-1.57,2.8425,2.8425,0,0,1-.16-.24,1.7669,1.7669,0,0,1-.2-.52,14.3431,14.3431,0,0,1-.46-3.05c.02-1-.38-4-1.05-10.01-.37-3.33-.85-5.98-1.32-8.5-.46-2.48-.88-4.5-1.16-5.77,1.24.7,3.08,1.75,5.3,3.02,10.33,5.92,15.52,8.9,16.87,10.25a20.6743,20.6743,0,0,1,4.37,6.81Z" fill="#b1cc33"/>
    <path d="M46.7776,48.115l-1.8939-.3589a13.0687,13.0687,0,0,1-4.7755,3.4376,10.5941,10.5941,0,0,1-4.6344.748h0a13.3355,13.3355,0,0,1-4.6345-.9874,13.1,13.1,0,0,1-4.7755-3.5224L24.17,47.8c2.2413,5.2435,1.3921,10.8732.9508,13.102H45.8268C45.3854,58.7265,44.5363,53.2324,46.7776,48.115Z" fill="#a57939"/>
    <polygon points="61.343 50.065 59.192 46.417 54.967 46.121 57.772 42.947 56.748 38.837 60.633 40.524 64.225 38.28 63.821 42.496 67.065 45.22 62.931 46.138 61.343 50.065" fill="#fcea2b"/>
    <path d="M46.1584,48.115l-1.894-.3589a13.0672,13.0672,0,0,1-4.7754,3.4376,10.5943,10.5943,0,0,1-4.6345.748h0a13.3351,13.3351,0,0,1-4.6344-.9874,13.0979,13.0979,0,0,1-4.7755-3.5224l-1.894.3678c2.2414,5.2435,1.3922,10.8732.9509,13.102H45.2076C44.7662,58.7265,43.9171,53.2324,46.1584,48.115Z" fill="#a57939"/>
    <path d="M33.7652,51.715a15.0246,15.0246,0,0,1-7.55-3.65c-4.99,0-10,4.01-10,9v3.84h-2.55a11.8139,11.8139,0,0,1-2.24-1.57,2.8425,2.8425,0,0,1-.16-.24,1.7669,1.7669,0,0,1-.2-.52,14.3431,14.3431,0,0,1-.46-3.05c.02-1-.38-4-1.05-10.01-.37-3.33-.85-5.98-1.32-8.5-.46-2.48-.88-4.5-1.16-5.77,1.24.7,3.08,1.75,5.3,3.02,10.33,5.92,15.52,8.9,16.87,10.25a20.6743,20.6743,0,0,1,4.37,6.81Z" fill="#b1cc33"/>
    <polygon points="61.343 50.065 59.192 46.417 54.967 46.121 57.772 42.947 56.748 38.837 60.633 40.524 64.225 38.28 63.821 42.496 67.065 45.22 62.931 46.138 61.343 50.065" fill="#fcea2b"/>
  </g>
  <g id="line">
    <g>
      <path d="M41.0314,29.9453a2,2,0,1,1-2-2,2,2,0,0,1,2,2"/>
      <path d="M33.0314,29.9453a2,2,0,1,1-2-2,2,2,0,0,1,2,2"/>
      <path d="M32.0314,38.1953a8.2737,8.2737,0,0,0,6,0" fill="none" stroke="#000" stroke-linecap="round" stroke-linejoin="round" stroke-width="2"/>
      <path d="M12.16,58.6572c-.0973-.1879-.762-1.5116-.9072-1.88-1.5872-4.0251-.647-6.9374-3.015-19.7595-.4586-2.4837-.8865-4.5-1.1661-5.7736,1.2428.7048,3.0837,1.7511,5.3083,3.0253,13.9634,7.9981,14.8839,8.0191,16.8668,10.2481a24.4547,24.4547,0,0,1,4.15,6.5979" fill="none" stroke="#000" stroke-linecap="round" stroke-linejoin="round" stroke-width="2"/>
      <path d="M25.1584,37.9453c-3,0-4-7-4-14,0-6,5-12,14-12s14,6,14,12c0,7-1,14-4,14" fill="none" stroke="#000" stroke-linecap="round" stroke-linejoin="round" stroke-width="2"/>
      <path d="M41.0314,29.9453a2,2,0,1,1-2-2,2,2,0,0,1,2,2"/>
      <path d="M33.0314,29.9453a2,2,0,1,1-2-2,2,2,0,0,1,2,2"/>
      <path d="M24.0949,30.9453c-.1015,7.999,4.9365,14,11,14,5.9365,0,11.0635-6,11.0635-14,0-5-3-11-3-11-8,0-10,3-16,1C27.1584,20.9453,24.1584,25.9453,24.0949,30.9453Z" fill="none" stroke="#000" stroke-linejoin="round" stroke-width="2"/>
      <path d="M32.0314,38.1953a8.2737,8.2737,0,0,0,6,0" fill="none" stroke="#000" stroke-linecap="round" stroke-linejoin="round" stroke-width="2"/>
      <path d="M37.3805,50.8967a24.3768,24.3768,0,0,1,4.0541-6.3787c1.983-2.229,2.9034-2.25,16.8669-10.2481,2.2246-1.2742,4.0654-2.3206,5.3082-3.0253-.2569,1.17-.639,2.9676-1.0551,5.1785" fill="none" stroke="#000" stroke-linecap="round" stroke-linejoin="round" stroke-width="2"/>
      <path d="M58.5215,58.6575c.0972-.1878.7619-1.5115.9072-1.88a14.5959,14.5959,0,0,0,1.03-4.348" fill="none" stroke="#000" stroke-linecap="round" stroke-linejoin="round" stroke-width="2"/>
      <line x1="58.8263" y1="47.6443" x2="50.3974" y2="61.7848" fill="none" stroke="#000" stroke-linecap="round" stroke-linejoin="round" stroke-width="2"/>
      <polygon points="61.343 50.065 59.192 46.417 54.967 46.121 57.772 42.947 56.748 38.837 60.633 40.524 64.225 38.28 63.821 42.496 67.065 45.22 62.931 46.138 61.343 50.065" fill="none" stroke="#000" stroke-linecap="round" stroke-linejoin="round" stroke-width="2"/>
      <path d="M41.0314,29.9453a2,2,0,1,1-2-2,2,2,0,0,1,2,2"/>
      <path d="M33.0314,29.9453a2,2,0,1,1-2-2,2,2,0,0,1,2,2"/>
      <path d="M32.0314,38.1953a8.2737,8.2737,0,0,0,6,0" fill="none" stroke="#000" stroke-linecap="round" stroke-linejoin="round" stroke-width="2"/>
      <path d="M12.16,58.6572c-.0973-.1879-.762-1.5116-.9072-1.88-1.5872-4.0251-.647-6.9374-3.015-19.7595-.4586-2.4837-.8865-4.5-1.1661-5.7736,1.2428.7048,3.0837,1.7511,5.3083,3.0253,13.9634,7.9981,14.8839,8.0191,16.8668,10.2481a24.4547,24.4547,0,0,1,4.15,6.5979" fill="none" stroke="#000" stroke-linecap="round" stroke-linejoin="round" stroke-width="2"/>
      <path d="M25.1584,37.9453c-3,0-4-7-4-14,0-6,5-12,14-12s14,6,14,12c0,7-1,14-4,14" fill="none" stroke="#000" stroke-linecap="round" stroke-linejoin="round" stroke-width="2"/>
      <path d="M41.0314,29.9453a2,2,0,1,1-2-2,2,2,0,0,1,2,2"/>
      <path d="M33.0314,29.9453a2,2,0,1,1-2-2,2,2,0,0,1,2,2"/>
      <path d="M24.0949,30.9453c-.1015,7.999,4.9365,14,11,14,5.9365,0,11.0635-6,11.0635-14,0-5-3-11-3-11-8,0-10,3-16,1C27.1584,20.9453,24.1584,25.9453,24.0949,30.9453Z" fill="none" stroke="#000" stroke-linejoin="round" stroke-width="2"/>
      <path d="M32.0314,38.1953a8.2737,8.2737,0,0,0,6,0" fill="none" stroke="#000" stroke-linecap="round" stroke-linejoin="round" stroke-width="2"/>
      <path d="M37.3805,50.8967a24.3768,24.3768,0,0,1,4.0541-6.3787c1.983-2.229,2.9034-2.25,16.8669-10.2481,2.2246-1.2742,4.0654-2.3206,5.3082-3.0253-.2569,1.17-.639,2.9676-1.0551,5.1785" fill="none" stroke="#000" stroke-linecap="round" stroke-linejoin="round" stroke-width="2"/>
      <path d="M58.5215,58.6575c.0972-.1878.7619-1.5115.9072-1.88a14.5959,14.5959,0,0,0,1.03-4.348" fill="none" stroke="#000" stroke-linecap="round" stroke-linejoin="round" stroke-width="2"/>
      <line x1="58.8263" y1="47.6443" x2="50.3974" y2="61.7848" fill="none" stroke="#000" stroke-linecap="round" stroke-linejoin="round" stroke-width="2"/>
      <polygon points="61.343 50.065 59.192 46.417 54.967 46.121 57.772 42.947 56.748 38.837 60.633 40.524 64.225 38.28 63.821 42.496 67.065 45.22 62.931 46.138 61.343 50.065" fill="none" stroke="#000" stroke-linecap="round" stroke-linejoin="round" stroke-width="2"/>
      <path d="M16.217,60.0683v-3c0-4.9941,5.0078-9,10-9q9,7.5,18,0a10.6493,10.6493,0,0,1,8.6657,4.6676" fill="none" stroke="#000" stroke-linecap="round" stroke-linejoin="round" stroke-width="2"/>
      <path d="M23.5506,48.43s.7356,1.4515.6871,5.9484c-.0145,1.3528-.1992,3.38-.397,5.3279" fill="none" stroke="#000" stroke-linecap="round" stroke-linejoin="round" stroke-width="2"/>
      <path d="M46.7248,48.43s-.7356,1.4515-.6871,5.9484c.0146,1.3528.1992,3.38.397,5.3279" fill="none" stroke="#000" stroke-linecap="round" stroke-linejoin="round" stroke-width="2"/>
    </g>
  </g>
</svg>
