<?xml version="1.0" encoding="utf-8"?>
<!-- Generator: Adobe Illustrator 21.1.0, SVG Export Plug-In . SVG Version: 6.00 Build 0)  -->
<svg version="1.1" id="emoji" xmlns="http://www.w3.org/2000/svg" xmlns:xlink="http://www.w3.org/1999/xlink" x="0px" y="0px"
	 viewBox="0 0 72 72" enable-background="new 0 0 72 72" xml:space="preserve">
<g id="_xD83E__xDDD0__1_">
	<g>
		<defs>
			<polygon id="SVGID_1_" points="36.8,9.1 26.9,11.1 20.8,14.5 15.2,20.4 11.2,28.8 11.2,43 17.7,53.9 26.9,60.1 36.8,62.1 
				45.1,60.7 54,55.8 59.8,48.7 63.3,38.1 62.4,28.9 58,19.8 53.2,14.8 44.9,10.4 			"/>
		</defs>
		<use xlink:href="#SVGID_1_"  overflow="visible" fill="#FCEA2B"/>
		<clipPath id="SVGID_2_">
			<use xlink:href="#SVGID_1_"  overflow="visible"/>
		</clipPath>
		<rect x="5.5" y="3.4" clip-path="url(#SVGID_2_)" fill="#FCEA2B" width="63.6" height="64.5"/>
	</g>
	<circle fill="none" stroke="#FCEA2B" stroke-width="2" stroke-miterlimit="10" cx="36.8" cy="35.6" r="26.5"/>
	<path fill="none" stroke="#000000" stroke-width="2" stroke-linecap="round" stroke-linejoin="round" stroke-miterlimit="10" d="
		M28.6,45.2c2.7-0.8,13.7,0.6,16.2,2.4"/>
	<path fill="none" stroke="#000000" stroke-width="2" stroke-linecap="round" stroke-linejoin="round" stroke-miterlimit="10" d="
		M21.1,21c1.5-1,3.3-1.5,5.1-1.2c1.8,0,3.5,0.8,4.8,2"/>
	<path fill="none" stroke="#000000" stroke-width="2" stroke-linecap="round" stroke-linejoin="round" stroke-miterlimit="10" d="
		M51.9,25.6c-2.8-2-6.2,0-9.5-0.3"/>
	<g>
		<defs>
			<ellipse id="SVGID_3_" transform="matrix(0.1892 -0.9819 0.9819 0.1892 4.8712 71.6751)" cx="45.8" cy="32.9" rx="3" ry="3"/>
		</defs>
		<use xlink:href="#SVGID_3_"  overflow="visible"/>
		<clipPath id="SVGID_4_">
			<use xlink:href="#SVGID_3_"  overflow="visible"/>
		</clipPath>
		
			<rect x="37.8" y="24.9" transform="matrix(0.1892 -0.9819 0.9819 0.1892 4.8712 71.6751)" clip-path="url(#SVGID_4_)" width="16" height="16"/>
	</g>
	<ellipse transform="matrix(0.1892 -0.9819 0.9819 0.1892 -7.2461 49.4859)" cx="26.3" cy="29.1" rx="3" ry="3"/>
	<path fill="none" stroke="#000000" stroke-width="2" stroke-linecap="round" stroke-linejoin="round" stroke-miterlimit="10" d="
		M59.5,49.4c2.4-4,3.9-8.7,3.9-13.7C63.4,21,51.6,9.2,36.9,9.1c-14.6,0-26.5,11.8-26.5,26.4c0,14.6,11.8,26.5,26.4,26.5
		c6,0,11.5-2,16-5.3"/>
	
		<circle fill="none" stroke="#000000" stroke-width="2" stroke-linecap="round" stroke-linejoin="round" stroke-miterlimit="10" cx="46" cy="29.6" r="10.9"/>
	<path fill="none" stroke="#000000" stroke-width="2" stroke-linecap="round" stroke-linejoin="round" stroke-miterlimit="10" d="
		M57.3,29.8c0,0,2.5,0.6,2.2,4.6s-4.1,9.2-4.1,9.2s-2.3,2.7-1.7,5c0.8,2.9,5,7.4,4.8,9.9"/>
</g>
</svg>
