<svg id="emoji" viewBox="0 0 72 72" xmlns="http://www.w3.org/2000/svg">
  <g id="color">
    <path fill="#fff" d="m30.059,30.0289l.0486-11.8572s4.0334,2.1868,10.6424.2916l.1944,11.7601s-7.5809,2.1868-10.8853-.1944Z"/>
    <ellipse cx="35.7203" cy="15.2074" rx="6.5302" ry="2.5828" fill="#fff"/>
    <path fill="#5c9e31" d="m41.3878,31.7207l.1139,21.128c.0022,3.5932-2.8759,5.581-5.8104,5.9105-.0026.0003-.1552-.043-.5963-.0321-.6004.015-.5719-.0503-1.1488-.2173-2.2112-.8206-3.7488-2.5575-4.2381-5.4223l-.0588-22.2278h0l.0545.0545c1.962.9154,3.6819,1.3441,5.8463,1.2931.9923.0058,1.9829-.0812,2.9589-.26.071-.0119.1539-.0236.2249-.0355,1.0725-.1919,1.1364.0926,2.113-.3906l.541.1993Z"/>
    <path fill="#b1cc33" d="m29.6697,30.8537c1.9619.9152,2.7326,1.4049,4.8968,1.3538.9923.0058,1.9829-.0812,2.9589-.26v20.9725c.0024,2.9118-2.3328,5.6523-4.7343,4.9044-1.9613-1.4335-2.7683-1.5835-3.2078-4.5498l.0864-22.421Z"/>
  </g>
  <g id="line">
    <path fill="none" stroke="#000" stroke-linecap="round" stroke-linejoin="round" stroke-width="2" d="m42.06,16.9372v35.43c.1486,3.7465-2.7638,6.9062-6.51,7.0628-3.7462-.1565-6.6586-3.3163-6.51-7.0628V17.2855"/>
    <ellipse cx="35.5433" cy="15.2238" rx="7.3933" ry="3.137" fill="none" stroke="#000" stroke-miterlimit="10" stroke-width="2"/>
    <path fill="none" stroke="#000" stroke-linecap="round" stroke-linejoin="round" stroke-width="2" d="m42.06,29.84v23.08c.0022,3.5932-2.9088,6.5078-6.502,6.51h-.008c-.6006.0021-1.1985-.0816-1.7754-.2486-2.8026-.7909-4.7372-3.3493-4.7346-6.2614v-23.08"/>
    <path fill="none" stroke="#000" stroke-linecap="round" stroke-linejoin="round" stroke-width="2" d="m29.277,30.8938c1.9619.9152,4.1087,1.3648,6.273,1.3137.9923.0058,1.9829-.0812,2.9589-.26.071-.0119.1539-.0236.2249-.0355,1.0725-.1919,2.1126-.5345,3.0891-1.0178"/>
  </g>
</svg>
