<svg id="emoji" xmlns="http://www.w3.org/2000/svg" viewBox="0 0 72 72">
  <g id="color">
    <g>
      <rect x="15" y="45" width="17" height="9" stroke-width="2" stroke="#d22f27" stroke-linecap="round" stroke-linejoin="round" fill="#d22f27"/>
      <rect x="33" y="46" width="16" height="8" stroke-width="2" stroke="#d22f27" stroke-linecap="round" stroke-linejoin="round" fill="#d22f27"/>
      <rect x="40" y="36" width="17" height="9" stroke-width="2" stroke="#d22f27" stroke-linecap="round" stroke-linejoin="round" fill="#d22f27"/>
      <rect x="23" y="37" width="16" height="7" stroke-width="2" stroke="#d22f27" stroke-linecap="round" stroke-linejoin="round" fill="#d22f27"/>
      <rect x="15" y="27" width="17" height="9" stroke-width="2" stroke="#d22f27" stroke-linecap="round" stroke-linejoin="round" fill="#d22f27"/>
      <rect x="32" y="27" width="17" height="9" stroke-width="2" stroke="#d22f27" stroke-linecap="round" stroke-linejoin="round" fill="#d22f27"/>
      <rect x="40" y="18" width="17" height="9" stroke-width="2" stroke="#d22f27" stroke-linecap="round" stroke-linejoin="round" fill="#d22f27"/>
      <rect x="23" y="18" width="17" height="9" stroke-width="2" stroke="#d22f27" stroke-linecap="round" stroke-linejoin="round" fill="#d22f27"/>
    </g>
  </g>
  <g id="line">
    <g>
      <line x1="32" y1="36" x2="32" y2="27" fill="none" stroke="#000" stroke-linecap="round" stroke-linejoin="round" stroke-width="2"/>
      <line x1="54" y1="27" x2="15" y2="27" fill="none" stroke="#000" stroke-linecap="round" stroke-linejoin="round" stroke-width="2"/>
      <line x1="40" y1="19" x2="40" y2="27" fill="none" stroke="#000" stroke-linecap="round" stroke-linejoin="round" stroke-width="2"/>
      <line x1="58" y1="36" x2="19" y2="36" fill="none" stroke="#000" stroke-linecap="round" stroke-linejoin="round" stroke-width="2"/>
      <line x1="40" y1="45" x2="40" y2="36" fill="none" stroke="#000" stroke-linecap="round" stroke-linejoin="round" stroke-width="2"/>
      <line x1="52" y1="45" x2="19" y2="45" fill="none" stroke="#000" stroke-linecap="round" stroke-linejoin="round" stroke-width="2"/>
      <line x1="32" y1="53" x2="32" y2="45" fill="none" stroke="#000" stroke-linecap="round" stroke-linejoin="round" stroke-width="2"/>
      <line x1="47" y1="18" x2="20" y2="18" fill="none" stroke="#000" stroke-linecap="round" stroke-linejoin="round" stroke-width="2"/>
      <line x1="23" y1="18" x2="23" y2="27" fill="none" stroke="#000" stroke-linecap="round" stroke-linejoin="round" stroke-width="2"/>
      <line x1="23" y1="45" x2="23" y2="41" fill="none" stroke="#000" stroke-linecap="round" stroke-linejoin="round" stroke-width="2"/>
      <line x1="32" y1="36" x2="32" y2="27" fill="none" stroke="#000" stroke-linecap="round" stroke-linejoin="round" stroke-width="2"/>
      <line x1="49" y1="46" x2="49" y2="51" fill="none" stroke="#000" stroke-linecap="round" stroke-linejoin="round" stroke-width="2"/>
      <line x1="44" y1="54" x2="26" y2="54" fill="none" stroke="#000" stroke-linecap="round" stroke-linejoin="round" stroke-width="2"/>
      <line x1="57" y1="40" x2="57" y2="36" fill="none" stroke="#000" stroke-linecap="round" stroke-linejoin="round" stroke-width="2"/>
    </g>
  </g>
</svg>
