<svg id="emoji" xmlns="http://www.w3.org/2000/svg" viewBox="0 0 72 72">
  <g id="color">
    <path d="M36.6214,42.6711c-2.56,0-3.9347.7605-3.9347,1.8289s-2,6.4131-2,6.4131H16.625V18.9583h40V50.9131H42.5633s-2-5.3446-2-6.4131-1.3743-1.8289-3.9347-1.8289" fill="#d0cfce"/>
    <rect x="17" y="18" width="39" height="6" fill="#3f3f3f"/>
    <path d="M34,29c2.0039-1.2821-.0281-3.2706,2-4" fill="#d0cfce" stroke="none" stroke-linecap="round" stroke-linejoin="round" stroke-width="1.6"/>
    <path d="M40,30c-1.6822-1.6822-.9719-4.2706-3-5" fill="#d0cfce" stroke="none" stroke-linecap="round" stroke-linejoin="round" stroke-width="1.6"/>
    <circle cx="36.5" cy="25.5" r="0.5" fill="#d0cfce" stroke="none" stroke-linecap="round" stroke-linejoin="round" stroke-width="1.6"/>
  </g>
  <g id="line">
    <path d="M36.6214,42.6711c-2.56,0-3.9347.7605-3.9347,1.8289s-2,6.4131-2,6.4131H16.625V17.9583h40V50.9131H42.5633s-2-5.3445-2-6.413-1.3743-1.8289-3.9347-1.8289Z" fill="none" stroke="#000" stroke-linecap="round" stroke-linejoin="round" stroke-width="2"/>
    <path d="M27.0438,26.328S26.6591,34,18.9562,39.7946" fill="none" stroke="#000" stroke-linecap="round" stroke-linejoin="round" stroke-width="2"/>
    <path d="M45.9562,26.328S46.3409,34,54.0438,39.7946" fill="none" stroke="#000" stroke-linecap="round" stroke-linejoin="round" stroke-width="2"/>
    <line x1="17" y1="24" x2="56" y2="24" fill="none" stroke="#000" stroke-linecap="round" stroke-linejoin="round" stroke-width="2"/>
    <path d="M34,29c2.0039-1.2821-.0281-3.2706,2-4" fill="none" stroke="#000" stroke-linecap="round" stroke-linejoin="round" stroke-width="1.6"/>
    <path d="M40,30c-1.6822-1.6822-.9719-4.2706-3-5" fill="none" stroke="#000" stroke-linecap="round" stroke-linejoin="round" stroke-width="1.6"/>
    <circle cx="36.5" cy="25.5" r="0.5" fill="none" stroke="#000" stroke-linecap="round" stroke-linejoin="round" stroke-width="1.6"/>
  </g>
</svg>
