<svg id="emoji" viewBox="0 0 72 72" xmlns="http://www.w3.org/2000/svg">
  <g id="color">
    <polygon fill="#fff" points="38.6069 58.9361 59.6924 32.9366 39.8577 29.9882 13.5009 33.294 32.7995 59.2041 38.6069 58.9361"/>
    <path fill="#b1cc33" d="m60.709,28.9912c-1.9879-11.9821-12.4224-20.7206-24.5674-20.5742-13.7193,0-24.841,10.88-24.841,24.3005,0,0,3.0573-1.8827,5.1108-.2893.2137.1642.5015.1942.7445.0778,3.2218-1.543,6.9739-1.5198,10.1763.0629.167.0925.3642.1141.5473.06,1.5773-.4857,9.6051-2.708,16.679-.0346.2018.0755.4263.0605.6163-.0411,3.196-1.5665,6.9329-1.5849,10.1442-.05.2478.1179.5409.0858.7574-.0829,2.0348-1.5919,4.906.1853,4.906.1853"/>
    <path fill="#5c9e31" d="m55.72,32.5682c-4.4638-25.4955-19.5784-24.1512-19.5784-24.1512,0,0,7.76.7192,8.73,24.2229,3.2933-2.1354,7.5271-2.1634,10.8484-.0717Z"/>
    <path fill="#5c9e31" d="m56.3414,31.952c1.6572-.05,3.4387-.54,5.5345.6879,0-20.2924-21.8072-23.19-21.8072-23.19,0,0,4.8854,1.1285,9.3779,6.7089l6.8948,15.7932Z"/>
    <rect x="32.0805" y="58.353" rx="1.4199" ry="1.4199" width="6.5859" height="6.5859"/>
  </g>
  <g id="line">
    <path fill="none" stroke="#000" stroke-linecap="round" stroke-linejoin="round" stroke-width="2" d="m60.9824,32.6058l-22.316,27.1671"/>
    <path fill="none" stroke="#000" stroke-linecap="round" stroke-linejoin="round" stroke-width="2" d="m60.709,28.9912c-1.9879-11.9821-12.4224-20.7206-24.5674-20.5742-13.7193,0-24.841,10.88-24.841,24.3005,0,0,3.0573-1.8827,5.1108-.2893.2137.1642.5015.1942.7445.0778,3.2218-1.543,6.9739-1.5198,10.1763.0629.167.0925.3642.1141.5473.06,1.5773-.4857,9.6051-2.708,16.679-.0346.2018.0755.4263.0605.6163-.0411,3.196-1.5665,6.9329-1.5849,10.1442-.05.2478.1179.5409.0858.7574-.0829,2.0348-1.5919,4.906.1853,4.906.1853"/>
    <path fill="none" stroke="#000" stroke-linecap="round" stroke-linejoin="round" stroke-width="2" d="m16.7606,32.57c4.4636-25.4954,19.381-24.153,19.381-24.153,0,0-7.5643.7338-8.5346,24.2376l6.78,25.0408"/>
    <path fill="none" stroke="#000" stroke-linecap="round" stroke-linejoin="round" stroke-width="2" d="m44.8716,32.64l-7.6251,25.713"/>
    <path fill="none" stroke="#000" stroke-linecap="round" stroke-linejoin="round" stroke-width="2" d="m55.72,32.5682c-4.4638-25.4955-19.5784-24.1512-19.5784-24.1512,0,0,7.76.7192,8.73,24.2229"/>
    <line x1="16.7606" x2="33.5004" y1="32.6598" y2="58.353" fill="none" stroke="#000" stroke-linecap="round" stroke-linejoin="round" stroke-width="2"/>
    <line x1="55.7199" x2="37.2465" y1="32.6898" y2="58.353" fill="none" stroke="#000" stroke-linecap="round" stroke-linejoin="round" stroke-width="2"/>
    <polyline fill="none" stroke="#000" stroke-linecap="round" stroke-linejoin="round" stroke-width="2" points="32.0805 59.7729 11.3006 32.7175 32.0805 59.7729"/>
    <rect x="32.0805" y="58.353" rx="1.4199" ry="1.4199" width="6.5859" height="6.5859" fill="none" stroke="#000" stroke-linecap="round" stroke-linejoin="round" stroke-width="2"/>
  </g>
</svg>
