<svg id="emoji" viewBox="0 0 72 72" xmlns="http://www.w3.org/2000/svg">
  <g id="color">
    <path fill="#fff" d="m27.0792,43.51s7.3446-2.4657,9.1781-4.6881c0,0,1.7168-1.8488,2.4431-2.245s-2.5091,6.9991-3.8297,7.0651-7.8575,1.0565-7.7914-.1321Z"/>
    <path fill="#186648" d="m59.8031,26.1187c1.8674.9625,2.9654,2.9605,2.7769,5.0529-.0175.5447-.4548.9822-.9994,1h-13.9843c-3.6878,0-7.2609,1.2824-10.1071,3.6275l-3.7269,3.0709c-3.2043,2.6402-7.2271,4.084-11.379,4.084l-10.0433-.0062c-1.6363.0081-2.9842-1.2827-3.0469-2.9178l-.0044-12.757c.0039-.2314.6748-21.2246,24.3252-21.2246,18.662,0,21.848,12.0567,22.5365,17.5664.0581.4979.3876.9225.8556,1.1022.9765.3733,1.9135.8429,2.7971,1.4017Zm-48.5144,15.8354h0Z"/>
    <path fill="#a57939" d="m34.5382,52.4209c-.083,0-.166-.0029-.249-.0107l-1.6484-.1514h0c-1.4725-.1379-2.5557-1.4413-2.4219-2.9141l.1514-1.6484c.1438-1.469,1.4425-2.5491,2.9131-2.4229l1.6494.1524c1.4725.1377,2.5558,1.4411,2.4219,2.914l-.1514,1.6475c-.1295,1.3763-1.2827,2.4294-2.6651,2.4336Z"/>
    <path fill="#5c9e31" d="m35.0461,19.8613c-.8034-.0194-1.5692-.3445-2.1411-.9092-.7293-.8926-1.2304-1.9492-1.46-3.0788-.0368-.128-.0906-.2504-.16-.3641-.2943-.46-.8679-.6221-1.7208-1.0181-.9321-.3592-1.7686-.929-2.4442-1.6649-.9364-1.7955-.9851-3.9243-.1319-5.7608.1457-.2824.4168-.4788.7305-.5293,3.2171-.5239,6.4888-.6257,9.7322-.3027l1.7825.2363c.1492.0184.2928.0686.4211.147,1.6409.988,2.6472,2.7609,2.6541,4.6763-.0472.7541-.4156,1.4518-1.0118,1.916-.3291.2617-.6855.5019-1.042.7412-.7285.3819-1.341.9525-1.7734,1.6523-.1554.3493-.2806.7113-.374,1.0821-.3174,1.1054-.752,2.6191-2.36,3.1-.0402.0124-.0814.0219-.123.0283-.1911.0319-.3845.0481-.5782.0484Z"/>
    <path fill="#a57939" d="m18.047,32.0527c-.5278.0029-1.0526-.0802-1.5537-.2461-.5756-.2746-1.0756-.6851-1.457-1.1962-.1441-.1814-.3021-.3512-.4727-.5079-.6014-.3906-1.2924-.6218-2.0078-.6718-.5872-.0851-1.1656-.2223-1.7285-.41-.734-.1905-1.3075-.7633-1.499-1.4971-.0176-.0798-.0255-.1614-.0235-.2431.2262-4.7734,1.9646-9.3512,4.9639-13.0715h0c.9669-.9398,2.3538-1.3074,3.6592-.97,1.3776.307,2.5011,1.2997,2.9756,2.6289.1009.3003.1831.6065.2461.917.0424.3752.1747.7347.3857,1.0478.1892.153.4006.2761.627.3652.1054.05.2119.1.3154.1524,1.7398.9022,2.9483,2.5763,3.2568,4.5117.4336,2.4922-1.207,3.2188-2.2929,3.7-.5106.1711-.9719.464-1.3438.8535-.2009.4071-.3332.8447-.3916,1.2949-.078,1.1921-.7045,2.2806-1.6962,2.9468-.0381.0214-.0775.0404-.1181.0567-.5885.2269-1.2142.3418-1.8449.3388Zm-3.0713-17.1367h0Z"/>
    <path fill="#a57939" d="m49.5275,29.168c-1.9785,0-3.7051-.5176-4.5508-1.5772-.6767-.8476-1.3711-2.6914,1.58-5.5088.996-.9465,1.7128-2.1485,2.0723-3.4746.5146-1.915,1.1523-3.8613,2.77-4.7793.4019-.2267.9066-.1497,1.2226.1865.1338.1426,3.0552,4.1023,3.6836,11.58l.41.3981c.1688.438.0109.9344-.38,1.1943-2.0376,1.2877-4.3973,1.9744-6.8077,1.981Z"/>
    <path fill="#b1cc33" d="m31.3439,34.84c-1.1698.014-2.3116-.3577-3.249-1.0576-1.0302-.7782-1.5566-2.0542-1.3749-3.3324.1007-.5171.2761-1.0168.5205-1.4834.1374-.2625.2486-.5379.332-.8223.0688-.4096.0839-.8265.0449-1.24-.0673-.6707-.0123-1.348.1622-1.999.1137-.3372.2888-.6505.5166-.9239,2.1838-2.7177,6.785-3.6787,10.2528-2.1414,1.1241.5134,1.8812,1.5962,1.9775,2.8282v.0018l.001.0088c.0147.169.0293.34.0537.5078.0353.1779.1039.3475.2022.5.55.9209,1.2226,2.291.71,3.5293-.5713,1.3789-2.1758,1.7842-4.0342,2.253-.2979.065-.5706.2149-.7851.4316-.1729.1777-.3389.3652-.5059.5527-.7516,1.0441-1.8481,1.7888-3.0957,2.1026-.5563.1906-1.1406.2866-1.7286.2842Z"/>
    <path fill="#5c9e31" d="m12.34,42.9478c-1.6292-.0094-2.9671-1.2905-3.0469-2.9178h0c-.0248-.6881.1862-1.364.5982-1.9157.9098-1.1305,1.965-2.1359,3.1382-2.99.4765-.3704,1.0119-.6579,1.5839-.8506,1.4212-.3323,2.9166-.0113,4.0762.875.45.3008.8623.6318,1.26.9512.4547.3864.9378.7379,1.4453,1.0517.1533.09.3115.1719.47.2549.527.2472,1.015.5703,1.4483.959,1.0413,1.0311,1.3544,2.5902.792,3.9434-.1581.3657-.5177.603-.9161.6045l-10.8491.0344Zm10.8462-1.0337h0Z"/>
  </g>
  <g id="line">
    <path fill="none" stroke="#000" stroke-linecap="round" stroke-linejoin="round" stroke-width="2" d="m10.2884,34.9887v-7.7148s.3826-20.225,23.3254-20.225c17.9306,0,21.0732,11.6225,21.5906,16.7008.0722.7709.5551,1.4426,1.2628,1.7566,1.1892.5224,3.4722,1.5061,4.4474,2.9856"/>
    <path fill="none" stroke="#000" stroke-linecap="round" stroke-linejoin="round" stroke-width="2" d="m41.2792,10.6242c.0298.205.0398.4123.03.6192-.0331.4673-.2644.8981-.6356,1.1838-1.09.8681-2.5035,1.4612-3.1,2.7568-.6021,1.2174-.5677,3.1808-2.1123,3.6421-1.8331.3038-2.68-1.4424-3.0156-3.0674-.4465-2.16-3.4168-1.92-4.501-3.4988-.7386-1.4873-.7633-3.2291-.0672-4.7367"/>
    <path fill="none" stroke="#000" stroke-linecap="round" stroke-linejoin="round" stroke-width="2" d="m19.1615,14.9782c.3644.3273.6379.7433.7939,1.2076.2871.7931.2751,1.7432.865,2.3461.3605.3004.7672.5404,1.2045.7106,1.4524.755,2.4618,2.1528,2.7217,3.769.4835,2.7822-2.2428,2.208-3.4466,3.8024-.8071,1.1837-.3777,3.1892-1.7771,3.97-.868.3294-1.8217.3562-2.7068.076-.6758-.3069-1.04-1.04-1.6059-1.52-1.0877-.922-2.7021-.7735-4.0425-1.26-.3982-.0963-.722-.3849-.8633-.7694"/>
    <path fill="none" stroke="#000" stroke-linecap="round" stroke-linejoin="round" stroke-width="2" d="m51.8925,14.6983c-1.2812.7267-1.8385,2.4606-2.2976,4.1693-.4076,1.5026-1.2197,2.8646-2.3477,3.9377-4.7234,4.5087.489,6.2689,5.352,4.9541"/>
    <path fill="none" stroke="#000" stroke-linecap="round" stroke-linejoin="round" stroke-width="2" d="m39.53,24.7564c.017.1912.0333.3836.0611.5722.0533.309.1666.6045.3333.87,1.8952,3.1736-.076,3.6362-2.7874,4.3207-.4495.1144-.8583.3517-1.1806.6853-.9283.9572-1.6846,2.1508-3.1407,2.3806-2.1614.8111-5.4346-.3425-5.1039-3.0114.13-.773.6482-1.4308.832-2.1931.2488-1.0318-.1283-2.185.1881-3.169.0773-.2208.194-.4258.3446-.6049,1.9845-2.4709,6.2012-3.1215,9.0686-1.8523.7899.3675,1.3195,1.1332,1.3849,2.0019Z"/>
    <path fill="none" stroke="#000" stroke-linecap="round" stroke-linejoin="round" stroke-width="2" d="m22.7661,39.2424c-.0467-.0547-.0961-.1072-.1483-.1575-.53-.424-1.1093-.7824-1.7252-1.0674-.9887-.5743-1.8066-1.4009-2.7577-2.0356-.9159-.7111-2.0974-.9852-3.2328-.75-.4643.1603-.8982.3978-1.2835.7023-1.0815.7871-2.0565,1.7109-2.9007,2.7485-.2828.3562-.4346.7989-.43,1.2537h0c.0001,1.1144.9036,2.0178,2.018,2.0179h9.353c4.3878,0,8.6391-1.5258,12.0256-4.316l2.61-2.1506c3.3864-2.7902,7.6377-4.316,12.0256-4.316h13.26"/>
    <path fill="none" stroke="#000" stroke-linecap="round" stroke-linejoin="round" stroke-width="2" d="m42.1156,32.089s.3991,10.8651-5.8172,15.5623"/>
    <path fill="none" stroke="#000" stroke-linecap="round" stroke-linejoin="round" stroke-width="2" d="m31.2564,48.9821c-.3454-.0054-.707-.0011-1.0847.0129-5.6436.213-10.7778-6.4626-11.2116-7.0408"/>
    <path fill="none" stroke="#000" stroke-linecap="round" stroke-linejoin="round" stroke-width="2" d="m36.2984,47.6513c3.4467.1251,6.6276,1.885,8.5647,4.7387,0,0,2.2657,3.1164,5.7239,2.1147s3.013,2.0587,3.013,2.0587c0,0-.7791,4.4825-5.7319,2.09,0,0-5.4314-3.01-7.739-5.3173-1.1249-1.3048-2.4574-2.4152-3.9437-3.2863"/>
    <rect x="31.2805" y="46.335" rx="1.6793" ry="1.6793" width="5.0137" height="5.0137" transform="translate(-17.9465 78.0091) rotate(-84.7397)" fill="none" stroke="#000" stroke-linecap="round" stroke-linejoin="round" stroke-width="2"/>
  </g>
</svg>
