<svg id="emoji" viewBox="0 0 72 72" xmlns="http://www.w3.org/2000/svg">
  <g id="line-supplement">
    <circle cx="56.8815" cy="44.306" r="1"/>
    <circle cx="60.7016" cy="38.7196" r="1"/>
    <circle cx="59.7716" cy="42.9274" r="1"/>
    <circle cx="57.8728" cy="40.0561" r="1"/>
    <circle cx="61.6612" cy="34.3952" r="1"/>
    <circle cx="58.8552" cy="35.607" r="1"/>
    <circle cx="59.8269" cy="31.3216" r="1"/>
    <circle cx="19.9122" cy="45.5619" r="1"/>
    <circle cx="18.0621" cy="41.6095" r="1"/>
    <circle cx="16.0818" cy="37.5061" r="1"/>
    <circle cx="14.1943" cy="33.538" r="1"/>
  </g>
  <g id="color">
    <path fill="#fff" d="m14.1154,27.117l4.1208-3.9246c.0428-.0408.0913-.0752.1439-.1023l9.2312-4.7475c.067-.0344.1396-.0564.2145-.0647l9.896-1.1054c.0674-.0075.1356-.0039.2018.0106l10.4682,2.303c.1225.0269.2339.0904.3195.1821l4.2694,4.5708c.1094.1171.26.1873.4201.1957l4.4217.2319c.3823.0201.655.3788.5721.7525l-5.1154,23.0557c-.1005.4527-.6446.6385-1.0009.3416l-4.2501-3.5409c-.4-.3333-1.0078-.0541-1.0155.4665h0c-.007.4695-.5136.7607-.9228.5305l-5.0072-2.817c-.4425-.2489-.98.1111-.9183.615l.0362.2957c.0566.4622-.398.8192-.8336.6545l-5.1605-1.951c-.4748-.1795-.9521.2572-.8153.746l.2991,1.0694c.1286.4599-.2898.8862-.752.7661l-4.8403-1.2573c-.5017-.1303-.9319.3767-.7217.8505l.5879,1.3251c.1817.4095-.1181.8704-.566.8704h-3.179c-.2341,0-.4482-.132-.5533-.3412l-9.6764-19.2553c-.1224-.2435-.0711-.5385.1262-.7265Z"/>
    <path fill="#781e32" d="m19.7985,54.9706c-.3873,0-.7398-.2232-.9053-.5733L6.8219,28.8163c-.2358-.499-.0224-1.0947.4767-1.3304.0005-.0002.001-.0005.0014-.0007l5.7744-2.7246c.4985-.236,1.094-.0233,1.33.4752.0004.0008.0007.0015.0011.0023l12.0707,25.5811c.2359.4988.0228,1.0944-.4761,1.3303-.0005.0002-.001.0005-.0014.0007l-5.7744,2.7247c-.133.0632-.2785.0959-.4258.0957Z"/>
    <path fill="#781e32" d="m60.4611,53.3613c-.1325.0254-.2688.0235-.4006-.0055l-7.4116-1.6283c-.5394-.1185-.8808-.6518-.7626-1.1913l6.0691-27.6269c.1188-.5393.6518-.8805,1.1913-.7626l7.4116,1.6283c.5395.1185.8808.6518.7626,1.1913l-6.0691,27.6269c-.0861.3912-.3972.6934-.7907.7681Z"/>
    <path fill="#fff" d="m15.9245,53.0282c-1.4059-.0028-2.6849-.8137-3.2871-2.084l-6.8721-14.5615c-.8559-1.8144-.0789-3.979,1.7354-4.835l2.1015-.9922c.499-.2359,1.0947-.0226,1.3305.4764.0002.0004.0004.0008.0006.0012l9.1181,19.3232c.2359.499.0225,1.0948-.4765,1.3306-.0003.0002-.0007.0003-.001.0005l-2.1016.9912c-.4837.2296-1.0124.3491-1.5478.3496Z"/>
    <polygon fill="#d0cfce" points="28.962 46.828 17.965 22.982 20.891 21.255 28.962 46.828"/>
    <polygon fill="#d0cfce" points="34.792 44.759 27.705 17.933 31.046 17.885 34.792 44.759"/>
    <polygon fill="#d0cfce" points="41.294 45.068 38.336 16.946 41.209 17.791 41.294 45.068"/>
    <polygon fill="#d0cfce" points="48.025 46.637 49.192 19.545 51.119 21.979 48.025 46.637"/>
    <circle cx="56.8815" cy="44.306" r="1" fill="#fff"/>
    <circle cx="60.7016" cy="38.7196" r="1" fill="#fff"/>
    <circle cx="59.7716" cy="42.9274" r="1" fill="#fff"/>
    <circle cx="57.8728" cy="40.0561" r="1" fill="#fff"/>
    <circle cx="61.6612" cy="34.3952" r="1" fill="#fff"/>
    <circle cx="58.8552" cy="35.607" r="1" fill="#fff"/>
    <circle cx="59.8269" cy="31.3216" r="1" fill="#fff"/>
    <circle cx="19.9122" cy="45.5619" r="1" fill="#fff"/>
    <circle cx="18.0621" cy="41.6095" r="1" fill="#fff"/>
    <circle cx="16.0818" cy="37.5061" r="1" fill="#fff"/>
    <circle cx="14.1943" cy="33.538" r="1" fill="#fff"/>
  </g>
  <g id="line">
    <polyline fill="none" stroke="#000" stroke-linecap="round" stroke-linejoin="round" stroke-width="2" points="43.915 21.386 48.418 20.173 46.997 46.783 43.115 44.371"/>
    <polyline fill="none" stroke="#000" stroke-linecap="round" stroke-linejoin="round" stroke-width="2" points="53.664 25.174 58.553 24.705 53.059 49.467 50.177 46.223"/>
    <polyline fill="none" stroke="#000" stroke-linecap="round" stroke-linejoin="round" stroke-width="2" points="33.866 19.708 38.112 17.924 40.325 45.383 36.373 43.696"/>
    <polyline fill="none" stroke="#000" stroke-linecap="round" stroke-linejoin="round" stroke-width="2" points="23.952 21.272 27.834 18.935 33.98 45.922 29.973 44.889"/>
    <polyline fill="none" stroke="#000" stroke-linecap="round" stroke-linejoin="round" stroke-width="2" points="14.73 27.043 18.464 23.839 28.35 47.44 23.837 47.44"/>
    <polyline fill="none" stroke="#000" stroke-linecap="round" stroke-linejoin="round" stroke-width="2" points="9.331 31.789 7.727 28.39 13.5 25.665 25.572 51.246 19.798 53.97 18.449 51.112"/>
    <path fill="none" stroke="#000" stroke-linecap="round" stroke-linejoin="round" stroke-width="2" d="m19.1469,50.7828l-3.6775,1.7354c-.4443.2094-.9743.0192-1.1841-.4249l-8.359-17.7133c-.2097-.4442-.0196-.9743.4246-1.184h.0003s3.6774-1.736,3.6774-1.736"/>
    <rect x="45.4607" y="33.9573" width="28.2857" height="7.5882" transform="translate(9.9421 87.8661) rotate(-77.6094)" fill="none" stroke="#000" stroke-linecap="round" stroke-linejoin="round" stroke-width="2"/>
    <line x1="9.886" x2="7.1123" y1="35.6425" y2="36.9359" fill="none" stroke="#000" stroke-linecap="round" stroke-linejoin="round" stroke-width="2"/>
    <line x1="11.4609" x2="8.6872" y1="38.7342" y2="40.0276" fill="none" stroke="#000" stroke-linecap="round" stroke-linejoin="round" stroke-width="2"/>
    <line x1="13.0537" x2="10.28" y1="41.861" y2="43.1544" fill="none" stroke="#000" stroke-linecap="round" stroke-linejoin="round" stroke-width="2"/>
    <line x1="14.5573" x2="11.7836" y1="45.0317" y2="46.3251" fill="none" stroke="#000" stroke-linecap="round" stroke-linejoin="round" stroke-width="2"/>
    <line x1="16.1167" x2="13.3431" y1="48.1973" y2="49.4908" fill="none" stroke="#000" stroke-linecap="round" stroke-linejoin="round" stroke-width="2"/>
  </g>
</svg>
