<svg id="emoji" viewBox="0 0 72 72" xmlns="http://www.w3.org/2000/svg">
  <g id="line-supplement">
    <path d="m40.3879,15.0054v-2.9262c0-.1172-.095-.2121-.2121-.2121h-8.8847c-.1172,0-.2121.095-.2121.2121v2.9262c0,.1517.153.2486.2923.1887,2.7846-1.1972,5.9398-1.1972,8.7244,0,.1394.0599.2923-.037.2923-.1887Z"/>
    <ellipse cx="36" cy="40.0972" rx="7.7594" ry="24.9637" fill="none" stroke="#000" stroke-linecap="round" stroke-linejoin="round" stroke-width="2"/>
    <path d="m60.9174,39.4543c-.2877-5.892-3.4855-11.0882-9.814-14.3179-.0376-.0192-.0685-.0502-.0875-.0879-3.3416-6.6203-8.825-10.9517-15.0161-10.9517-5.4089,0-10.2745,3.3098-13.6466,8.56-.0775.1207-.0119.277.1248.3202,1.0969.3473,1.9001,1.2969,2.0594,2.4379.0187.1338.1448.2184.2719.1729,3.5841-1.2824,7.3651-1.9299,11.173-1.9129,4.6591-.0401,9.2702.9397,13.5101,2.8702.049.0223.089.0621.1114.1111.8906,1.9403,1.5694,3.9708,2.0248,6.0561.033.1513-.1037.2857-.2549.2522-5.0408-1.1165-10.1916-1.6625-15.3553-1.6274-5.1736-.0355-10.3344.5126-15.3845,1.6338-.1516.0337-.2887-.1013-.2551-.253.2728-1.2314.6203-2.4451,1.0406-3.6343.0456-.1291-.0416-.2554-.1775-.2711-.4894-.0563-.9571-.2335-1.3608-.5153-.1178-.0822-.2806-.0401-.3289.0952-.5944,1.6666-1.0539,3.3784-1.374,5.1187-.014.0761-.0689.1364-.1432.1578-1.6417.4724-3.2173,1.148-4.6902,2.0104-.1789.1048-.3913-.0787-.3041-.2668,1.3716-2.9587,3.5837-5.4525,6.3644-7.1675.1165-.0718.1289-.2243.0328-.3218-.3389-.3438-.5892-.7647-.7295-1.2262-.0423-.1391-.2009-.2056-.3225-.126-5.14,3.367-7.1172,8.1825-7.1172,13.5261,0,6.1873,3.0755,11.6679,9.6889,15.0098.0376.019.0685.0498.0876.0873,3.347,6.5523,8.8013,9.5806,14.9549,9.5806,6.1611,0,11.6207-3.0388,14.9671-9.6047.0191-.0375.05-.0683.0875-.0873,6.3555-3.2275,9.5741-8.4352,9.8625-14.3428.0867-.4243.0867-.8618,0-1.2861l.0003.0004h0Zm-24.9351-17.779c-3.8884-.0173-7.7502.6218-11.4232,1.8887-.1917.0661-.3594-.1478-.2458-.3159,2.98-4.4104,7.1175-7.151,11.6867-7.151,4.5749,0,8.7171,2.7471,11.6976,7.1671.1134.1682-.0545.382-.2462.3156-3.6866-1.2777-7.5644-1.9222-11.4691-1.9046Zm22.6132,13.9433c-1.4588-.8379-3.0141-1.4968-4.6322-1.962-.0744-.0214-.1294-.0818-.1434-.1579-.3008-1.632-.7241-3.2388-1.2662-4.8067-.0657-.1899.1443-.3608.313-.2516,2.6167,1.6944,4.7061,4.0884,6.0311,6.9093.088.1873-.1228.372-.3023.2689Zm-40.7619.1938c-.3299,2.7359-.3402,5.5003-.0311,8.2378.0175.1551-.1379.2742-.2851.2222-3.4714-1.2279-5.4626-2.7382-5.4626-4.1752,0-1.4812,2.1121-3.0378,5.7786-4.2848,0,0,.0002,0,.0002,0Zm-4.4885,8.7028c1.477.8647,3.0569,1.5417,4.7032,2.0146.0742.0213.1291.0815.1432.1574.3076,1.6544.7417,3.2826,1.2982,4.8702.0664.1895-.1427.3614-.3119.2531-2.6728-1.7113-4.8019-4.1499-6.137-7.0283-.0873-.1881.1252-.3717.3042-.2669Zm22.6549,19.5097c-4.5369,0-8.6477-2.7027-11.6226-7.0589-.1143-.1674.0525-.3821.2445-.3171,7.3839,2.4988,15.3866,2.4932,22.7669-.0159.192-.0653.359.1493.2448.3169-2.9758,4.3655-7.091,7.075-11.6336,7.075Zm23.93-23.5449c-.2732,1.1371-1.7515,2.2985-4.1788,3.3146-.1182.0495-.1622.1878-.0984.2989.2425.4224.3625.9035.3475,1.389-.0049.1581.1418.278.2888.2196.7915-.3147,1.5587-.6869,2.2953-1.1138.1804-.1045.3952.0823.3064.2709-1.3321,2.828-3.432,5.2262-6.0606,6.9201-.1686.1087-.3789-.0622-.3141-.252.3114-.9109.5818-1.8354.8105-2.7706.035-.143-.0838-.2679-.2308-.2589-.4839.0299-.9674-.0721-1.3983-.2952-.1225-.0634-.2659-.0072-.2992.1266-.4467,1.7978-1.0628,3.5494-1.8404,5.2311-.0226.049-.0628.0888-.1119.111-4.2275,1.9154-8.8218,2.8873-13.4635,2.8476-4.6245.0396-9.2022-.9242-13.4177-2.8245-.049-.0221-.0891-.0617-.1118-.1104-.9088-1.9544-1.6015-4.0019-2.066-6.1061-.0334-.1515.1035-.2863.2549-.2527,5.0474,1.12,10.2055,1.6675,15.3763,1.6321,4.8151.0226,9.6195-.4489,14.3378-1.4067.1516-.0308.2126-.2042.128-.3337-.2675-.4096-.43-.8795-.4724-1.3678-.0109-.1258-.1193-.2151-.2432-.1905-4.5271.8998-9.1344,1.3349-13.7502,1.2987-5.3656.0691-10.7184-.5374-15.9321-1.8048-.0865-.021-.1528-.0939-.1655-.182-.4536-3.1642-.4572-6.3767-.0107-9.5419.0125-.0883.0788-.1614.1655-.1825,5.2171-1.2697,10.5736-1.8771,15.9428-1.808,5.3557-.0685,10.6988.5356,15.9037,1.7977.087.0211.1537.0946.1662.1832.2201,1.5713.3314,3.1559.3335,4.7426,0,.7626-.0255,1.5156-.0764,2.2589-.0093.1361.108.2332.2429.2131.4859-.0721.9821-.018,1.4407.1569.1363.052.2849-.0299.2953-.1754.0582-.808.0979-1.6238.0979-2.4537-.0016-1.3128-.0744-2.6245-.2183-3.9292-.0171-.1547.137-.2734.2838-.2217,3.1837,1.1216,5.125,2.4802,5.443,3.8041.0044.1278.0149.2545.0149.383s-.0108.2548-.0155.3823Z"/>
  </g>
  <g id="color">
    <path d="m40.3879,15.3248v-3.4577h-9.309v3.4577c2.9515-1.3715,6.3575-1.3715,9.309,0Z"/>
    <polygon fill="#92d3f5" points="28.588 32.687 28.588 47.507 19.039 45.785 18.578 34.547 28.588 32.687"/>
    <polygon fill="#92d3f5" points="30.31 23.129 28.588 32.687 43.412 32.687 41.655 23.129 30.31 23.129"/>
    <polygon fill="#ffa7c0" points="30.31 23.129 21.695 25.811 18.578 34.547 28.588 32.687 30.31 23.129"/>
    <path fill="#ffa7c0" d="m12.2479,43.6095l6.7911,2.1755,2.193,8.368-5.5988-4.7852c-1.7401-1.4873-2.932-3.5145-3.3853-5.7583h0Z"/>
    <polygon fill="#b399c8" points="28.588 47.507 30.31 57.065 41.177 57.519 43.376 47.857 28.588 47.507"/>
    <path fill="#d0cfce" d="m21.578,25.838l5.396-8.161-1.4245.3721c-1.6925.4421-3.2387,1.3221-4.4833,2.5513l-4.5142,4.4588c-.1614.1594-.2933.3461-.3897.5515l-2.1848,4.6545,7.6005-4.4272"/>
    <path fill="#9b9b9a" d="m21.579,25.838l-4.647,3-3.3253,4.5058c-.5053.6846-.8485,1.4751-1.0037,2.3117l-.6,3.2343c-.1504.8109-.0556,1.6483.2725,2.405l1.0505,2.4231,5.713,2.066-.46-11.237,3-8.709h0Z"/>
    <path fill="#92d3f5" d="m45.2141,17.9614l1.6669,2.6066,3.437,5.27,5.682,3.849s1.5247,1.0122,1.9599.562c.6369-.6589-1.1151-2.9831-1.1151-2.9831-.7545-1.7102-1.8652-3.2399-3.2579-4.4867l-2.1473-1.9225c-1.5357-1.3749-3.3451-2.409-5.3091-3.0344l-.4644.0569-.4521.0822h0Z"/>
    <path fill="#b399c8" d="m39.7417,63.3729l2.2553-6.3649,8.003-2.494-4.8082,6.2428c-.8389,1.0891-1.9864,1.9003-3.293,2.3276l-2.0275.5141-.1296-.2256Z"/>
    <polyline fill="#d0cfce" points="28.588 32.687 28.588 47.507 43.376 47.857 43.412 32.687 28.588 32.687"/>
    <path fill="#9b9b9a" d="m36.4076,16.0258l-2.8849.0759c-.2602.0068-.5188.0427-.7711.1068l-2.9642,1.0299c-1.3579.4718-2.5486,1.3295-3.4262,2.468l-4.2702,5.5396,8.219-2.117h11.345l-3.1713-5.899c-.4092-.7612-1.2122-1.227-2.0761-1.2042Z"/>
    <polygon fill="#9b9b9a" points="52.762 34.364 50.318 25.838 41.655 23.129 43.394 33.313 43.41 33.316 43.376 47.857 52.958 45.796 52.97 34.401 52.762 34.364"/>
    <path fill="#fff" d="m39.773,17.147l1.8036,5.7328c.0491.1561.1715.2783.3277.3272l6.8712,2.1487c.4692.1467.8463-.4007.5419-.7868l-3.723-4.7225c-.9726-1.2337-2.2576-2.1848-3.7216-2.7545l-1.4415-.5609c-.391-.1521-.7842.2158-.6583.616Z"/>
    <path fill="#fff" d="m50.318,25.838l2.6436,8.5359c.0056.018.0084.0366.0084.0554l-.0118,11.216c0,.0879-.0615.1639-.1474.1823l-9.3086,2.0022c-.0759.0163-.1338.0779-.1454.1547l-1.3154,8.7287c-.0205.1363.1086.2471.2402.2061l7.2661-2.2644c.1618-.0504.3017.1234.2178.2707l-3.9353,6.9074c-.0854.1499.0607.3254.2236.2688l1.4906-.5185c1.771-.6161,3.3941-1.5946,4.7659-2.8729l1.8032-1.6804c1.7774-1.6564,3.1644-3.6871,4.0608-5.9452l.6158-1.5513c1.0572-2.6633,1.6001-5.5027,1.6001-8.3682h0c0-1.7904-.1923-3.5755-.5736-5.3247-.0148-.0678-.0382-.1336-.0692-.1956l-.7815-1.5636c-.7473-1.4951-1.8124-2.8088-3.1208-3.849l-5.5269-4.3943h-.0001Z"/>
    <path fill="#fff" d="m13.857,49.6609l1.7866,3.7309c1.2887,2.6911,3.3452,4.9405,5.9103,6.4647l4.8387,2.8752c1.2218.726,2.5668,1.2211,3.9677,1.4606l5.4706.1881c1.365.0469,2.6369-.6902,3.2748-1.8979l2.8914-5.4746-11.687.057-1.722-9.558-9.549-1.722,2.193,8.368-7.375-4.4921h0Z"/>
    <ellipse cx="36" cy="40.0972" rx="7.7594" ry="24.9637" fill="none" stroke="#000" stroke-linecap="round" stroke-linejoin="round" stroke-width="2"/>
    <ellipse cx="36" cy="40.0609" rx="17.4215" ry="24.9637" fill="none" stroke="#000" stroke-linecap="round" stroke-linejoin="round" stroke-width="2"/>
    <ellipse cx="36.0181" cy="40.0972" rx="24.9637" ry="7.7594" fill="none" stroke="#000" stroke-linecap="round" stroke-linejoin="round" stroke-width="2"/>
    <ellipse cx="35.9819" cy="40.0972" rx="24.9637" ry="17.4215" fill="none" stroke="#000" stroke-linecap="round" stroke-linejoin="round" stroke-width="2"/>
    <circle cx="21.5785" cy="25.838" r="3" fill="#fff"/>
    <circle cx="53" cy="45.502" r="3" fill="#fff"/>
  </g>
  <g id="line">
    <circle cx="36" cy="40.0609" r="25" fill="none" stroke="#000" stroke-linecap="round" stroke-linejoin="round" stroke-width="2"/>
    <polyline fill="none" stroke="#000" stroke-linecap="round" stroke-linejoin="round" stroke-width="2" points="31.079 15.061 31.079 11.867 40.168 11.867 40.168 15.061"/>
    <line x1="35.8737" x2="35.8737" y1="11.8671" y2="5.0771" fill="none" stroke="#000" stroke-linecap="square" stroke-linejoin="round" stroke-width="2"/>
  </g>
</svg>
