<svg id="emoji" viewBox="0 0 72 72" xmlns="http://www.w3.org/2000/svg">
  <g id="line">
    <path fill="none" stroke="#000" stroke-linecap="round" stroke-linejoin="round" stroke-width="2" d="m39.1786,35.6423l15.0183-17.26c1.3106-1.7706.9376-4.2684-.833-5.579-1.7539-1.2982-4.2255-.9461-5.547.7903l-29.2378,45.5991,16.39-18.7271"/>
    <path fill="none" stroke="#000" stroke-linecap="round" stroke-linejoin="round" stroke-width="2" d="m49.9081,19.6608c-.7433.515-1.4725.6747-1.9149.3426-.7033-.5278-.416-2.0979.6416-3.507s2.485-2.1234,3.1882-1.5956c.1476.1146.2563.2719.3111.4506"/>
    <path fill="none" stroke="#000" stroke-linecap="round" stroke-linejoin="round" stroke-width="2" d="m49.005,16.0479c.5413.2799,1.0573.6062,1.5422.9753,4.1633,3.0078,6.1973,8.1622,5.21,13.2026,0,0-1.613,8.9339-10.8977,9.209-8.5048.252-21.4085-8.633-33.8595,2.7982"/>
    <path fill="none" stroke="#000" stroke-linecap="round" stroke-linejoin="round" stroke-width="2" d="m34.5894,18.5635s6.0295-4.8028,12.1836-3.3422"/>
  </g>
  <g id="color">
    <path fill="#fff" d="m43.9624,34.3795l6.4465-7.1434s4.1234,9.3503-6.4465,7.1434Z"/>
    <path fill="#d0cfce" d="m54.0019,11.998c-2.2197-1.6508-5.3573-1.1895-7.0081,1.0302-.0064.0087-.0129.0173-.0192.026l-29.2373,45.5981c-.2976.4652-.1618,1.0836.3034,1.3813.4166.2665.9655.1885,1.2913-.1836L54.95,19.04c.0166-.0185.0322-.0376.0469-.0576,1.6502-2.2044,1.2052-5.3285-.995-6.9844Zm-3.62,5.81c-.4111.6493-1.0369,1.1339-1.7685,1.3692.0218-.7681.3124-1.5042.8213-2.08.4111-.6493,1.0369-1.1339,1.7685-1.3692-.0225.7679-.3131,1.5036-.8214,2.0796v.0004Z"/>
    <path fill="none" stroke="#000" stroke-linecap="round" stroke-linejoin="round" stroke-width="2" d="m39.1786,35.6423l15.0183-17.26c1.3106-1.7706.9376-4.2684-.833-5.579-1.7539-1.2982-4.2255-.9461-5.547.7903l-29.2378,45.5991,16.39-18.7271"/>
    <path fill="none" stroke="#000" stroke-linecap="round" stroke-linejoin="round" stroke-width="2" d="m49.9081,19.6608c-.7433.515-1.4725.6747-1.9149.3426-.7033-.5278-.416-2.0979.6416-3.507s2.485-2.1234,3.1882-1.5956c.1476.1146.2563.2719.3111.4506"/>
    <path fill="#92d3f5" d="m46.3,14.1057c-6.2857-1.0746-12.087,3.4745-12.3394,3.6755-.4283.3487-.4929.9785-.1442,1.4068.3432.4215.9602.4918,1.3893.1582.0518-.0411,4.8049-3.75,9.8964-3.3722l1.1979-1.8683Z"/>
    <path fill="#92d3f5" d="m49.2587,17.345c.2328.1473.4607.3058.6837.4753,3.878,2.7678,5.7695,7.5546,4.831,12.2256-.0615.332-1.6054,8.1416-9.9433,8.3887-2.7053-.0989-5.3874-.5372-7.9834-1.3046-7.68-1.8545-17.2334-4.16-26.5235,4.3672-.4067.3738-.4334,1.0064-.0596,1.4132.3738.4067,1.0064.4334,1.4132.0597,8.503-7.8056,17.1075-5.73,24.7-3.8965,2.771.7998,5.6296,1.257,8.5118,1.3614,9.98-.2969,11.8349-9.9341,11.8369-9.9624,1.1148-5.4319-1.0683-11.0115-5.5733-14.2447-.1427-.1083-.2874-.2131-.4341-.3145-.5749.3208-1.0582.7832-1.4042,1.3433l-.0551.0884Z"/>
  </g>
</svg>
