<svg id="emoji" viewBox="0 0 72 72" xmlns="http://www.w3.org/2000/svg">
  <g id="color">
    <g id="color-2">
      <path fill="#9b9b9a" d="m44.8558,41.7055l1.8786,3.808c.6568,1.1378.7836,2.5059.347,3.7451l-.5114,1.8044-2.0759,2.672-.1644.8016.7399.4522,2.8651-.7223c3.101-5.0856,3.6135-7.7164,3.6135-7.7164l-.6095.0923s-1.838-5.0974-2.791-6.6006l-3.2918,1.664v-.0002h0Z"/>
      <path fill="#9b9b9a" d="m26.3104,44.8565c.2066.9312.5895,1.8143,1.1281,2.6015l.3661,1.8989-1.521,4.604.3289.7605.9044.0617,2.308-1.3851,1.1164-2.6048-1.0929-7.2182-1.3366-2.1303-2.2675-1.0804c-.3199-.1524-.6788.1189-.6193.4683l.6855,4.024Z"/>
      <path fill="#d0cfce" d="m16.3106,16.1175c.9122,2.7165.8009,4.0043-1.6017,7.2077-1.4375,1.5953-4.0042,7.8419-.8009,8.0085,1.5753-1.5224,6.4131-4.2214,6.5845-3.8169l1.1252,1.866s3.5408,5.419,3.5961,7.1849c.5579,4.0751,3.6627,4.2449,4.3661,5.4334.9818,3.6078,1.8931,7.9973,2.0573,11.7581-1.7411,2.0734,2.0133,4.8428,2.6164,1.6818.9274-2.9327-.5833-5.091-.5432-8.0566.2073-1.8195-1.3827-5.6395.219-4.8387s11.2119,0,11.2119,0l2.6263-2.2494s3.0376,3.7816,4.2605,6.2787c.6858,2.855.3896,5.3039-.48,7.9835-.9306,2.0758,1.464,2.3946,2.4026,0,1.1372-3.4549,1.5676-5.2582,1.7302-8.9221-.6032-2.0222-.6152-2.1156.4507-4.3196,1.1664-.5832,1.5104-4.3346,2.3113-5.9363-.3085-2.3657-2.6165-6.7119-6.0293-7.129-6.5602-1.6685-10.504,3.0336-21.0079-.3413-1.8964-2.8262-4.8797-7.0751-8.1961-8.1146-2.1062-.5507-3.8521-5.087-6.1578-4.4864l-.7411.8085h0Z"/>
      <polygon fill="#3f3f3f" points="30.33 24.9847 30.9192 23.9422 25.6162 19.3191 23.2139 18.2766 22.8967 19.1604 26.772 21.2227 30.33 24.9847"/>
    </g>
  </g>
  <g id="line">
    <g id="line-2">
      <path fill="none" stroke="#000" stroke-linecap="round" stroke-linejoin="round" stroke-width="1.6017" d="m21.1157,25.7278c0,1.619-2.4554,3.095-4.057,3.8856-.6723.3319-1.28.7727-1.8244,1.2882-.8505.8053-2.1252.3942-2.8394-.4097-.4605-.5183-.5325-1.2832-.2398-1.9117,1.1074-2.378,2.1582-3.9569,2.1582-3.9569-.4052-3.7007,3.4533-4.5048,3.4533-4.5048l-1.8243-3.8217c-.3495-.4553-.0575-1.1116.5139-1.1652,1.0035-.095,3.6959,2.2857,4.464,3.9858,0,0,6.2987.7471,10.379,8.3529.1906.3557,8.7109,1.8484,13.6705.3541,3.4309-1.0331,13.6545-1.6514,13.8387,8.4089.0936,5.1303-.1496,3.1393,1.2113,7.2219"/>
      <path fill="none" stroke="#000" stroke-linecap="round" stroke-linejoin="round" stroke-width="1.6017" d="m56.3259,39.7615c-.5832,1.3609-.5832,1.1664-.7776,1.7497,0,0-.3888,2.9161.4301,4.4613l-1.0999,6.9794c-.0766.4863-.2262.9548-.4448,1.3959-.4347.8774-1.013,2.113-1.8942,2.0326-1.072.019-1.7077-1.1798-1.2363-2.0318.7676-1.7292.8919-3.1506,1.0721-7.3566,0,0-5.3833-5.2728-4.8884-9.9946"/>
      <path fill="none" stroke="#000" stroke-linecap="round" stroke-linejoin="round" stroke-width="1.6017" d="m22.3482,29.1737l2.1367,4.5112s-.9234,5.0798,2.6324,7.3422l1.9397,1.2469,2.0125,7.3951.7341,3.8705-.3875.9714c-.3561.8921.3012,1.862,1.2621,1.862h0c.5707,0,1.0803-.3567,1.2766-.893l.5978-1.6377c.1923-.5266.2391-1.0956.1357-1.6466l-1.0659-4.0755-.1279-5.3529s5.799,1.7146,11.4682-.482"/>
      <path fill="none" stroke="#000" stroke-linecap="round" stroke-linejoin="round" stroke-width="1.6017" d="m26.9371,44.9666l.4833,3.5398-1.3935,4.2341-.2941.7361c-.386.9666.3258,2.0173,1.3663,2.0173h0c.5874,0,1.1188-.3493,1.351-.8889l.6326-1.4664"/>
      <path fill="none" stroke="#000" stroke-linecap="round" stroke-linejoin="round" stroke-width="1.6017" d="m47.2707,53.816l-1.1628,1.323c-.3347.3808-.8497.5495-1.3454.4401h0c-.9794-.2163-1.4183-1.3598-.8273-2.1703,1.1388-1.5625,2.7181-2.6829,3.8209-6.8233l-1.0131-2.4381"/>
      <path fill="none" stroke="#000" stroke-linecap="round" stroke-linejoin="round" stroke-width="1.6017" d="m30.7259,25.7278l.8009-1.6017s-4.0043-5.606-8.8094-6.4068l-.7135,1.6444"/>
    </g>
  </g>
</svg>
