<svg id="emoji" viewBox="0 0 72 72" xmlns="http://www.w3.org/2000/svg">
  <g id="color">
    <path fill="#9b9b9a" d="M45.9548,49.59c-5-1.15-11.5,6.08-15.87,6.08l.45,7.49,1.09,4.84h9l1-4.2,4.58-9.29c.6058-1.6032,.5152-3.3865-.25-4.92Z"/>
    <path fill="#3f3f3f" d="M39.9748,51.76c.68,2.72-2.72,9.85-2.72,16.24h3.37s.3-3.14,1-4.2,4.09-9.29,4.09-9.29c0,0,1.73-4,.12-4.92-2.0828,.3085-4.0786,1.0476-5.86,2.17Z"/>
    <path fill="#92d3f5" d="M42.9148,43.62c-.5333-1.1022-.6436-2.3619-.31-3.54,1.0285-3.481,1.8466-7.0207,2.45-10.6,.07-2.07-3.22-4.34-3.22-4.34,0,0-5.65-5.81-13,12.56l-3.43,3.13c-1.2554,1.4959-2.1395,3.2674-2.58,5.17-.3182,1.2907-.3182,2.6393,0,3.93,.5251,1.7907,1.717,3.3117,3.33,4.25,1.6334,1.0148,3.3378,1.9104,5.1,2.68,7.39-1.2,6.26-6.11,14.48-7.27l-2.82-5.97Z"/>
    <path fill="#61b2e4" d="M40.8148,24.65l-2.81,17,2,10.09c1.7862-1.0607,3.7467-1.7955,5.79-2.17l-3.37-8.26,2.3-12.39-3.91-4.27Z"/>
    <path fill="#ea5a47" d="M21.8048,37h0c-.3201-.007-.6176-.1669-.8-.43l-1.57-2.25c-.314-.453-.2022-1.0748,.25-1.39,.4556-.312,1.0779-.1956,1.39,.26l.77,1.13,.89-1.17c.3535-.4243,.9841-.4817,1.4084-.1281,.398,.3317,.4768,.9124,.1816,1.3381l-1.72,2.25c-.1909,.248-.487,.3924-.8,.39Z"/>
  </g>
  <g id="skin">
    <ellipse cx="35.398" cy="14.9731" rx="5.86" ry="7.36" transform="translate(-2.9742 17.1601) rotate(-26.19)" fill="#debb90"/>
    <path fill="#debb90" d="M28.3048,50.61c-1.1046,.0663-2.0537-.7754-2.12-1.88-.0663-1.1046,.7754-2.0537,1.88-2.12,3-.37,4.78-1.68,5.44-2.7,.3689-.6944,.6222-1.4442,.75-2.22,.07-.28,.13-.55,.2-.82,.8517-3.3436,1.3676-6.7639,1.54-10.21,.0387-1.1046,.9654-1.9687,2.07-1.93s1.9687,.9654,1.93,2.07h0c-.1842,3.7432-.7436,7.4585-1.67,11.09-.06,.23-.12,.48-.17,.72-.2311,1.2336-.6744,2.4178-1.31,3.5-1.53,2.35-4.63,4-8.29,4.48l-.25,.02Z"/>
  </g>
  <g id="hair">
    <path fill="#fcea2b" d="M40.8348,13.69l-.09,5c-.0178,.8526,.575,1.5967,1.41,1.77,1.1237,.2546,2.2867-.2209,2.91-1.19,.66-1.12,1.35-4-.39-8.46-3.21-7.53-11.27-4-11.27-4-.9878,.3704-1.8605,.9947-2.53,1.81h0c0,.35,.63,6.84,10,5h0"/>
  </g>
  <g id="line">
    <path d="M40.5948,68h-.14c-.5427-.0823-.9176-.5866-.84-1.13l.46-3.2c.0086-.1052,.0392-.2074,.09-.3l4.59-9.29c.4732-1.3052,.4048-2.7455-.19-4l-2.85-6c-.6293-1.3228-.7606-2.8282-.37-4.24,1.0113-3.4152,1.8161-6.8881,2.41-10.4,0-1-1.61-2.66-2.79-3.48l-.14-.12c-.6196-.5155-1.4479-.7049-2.23-.51-1.65,.35-5,2.48-9.16,12.74-.0557,.137-.1411,.26-.25,.36l-2.25,2.07c-1.1155,.998-2.0258,2.2038-2.68,3.55-.3204,.6881-.5652,1.409-.73,2.15-.2761,1.1368-.2761,2.3232,0,3.46,.4599,1.5502,1.4982,2.8641,2.9,3.67,1.446,.8742,3.0439,1.4679,4.71,1.75,.5463,.0726,.9309,.5735,.86,1.12-.0775,.5423-.5769,.9212-1.12,.85-1.9526-.3013-3.8276-.9807-5.52-2-1.8198-1.0686-3.1616-2.7933-3.75-4.82-.3616-1.4511-.3616-2.9689,0-4.42,.1889-.8844,.4809-1.7436,.87-2.56,.7478-1.607,1.8046-3.0511,3.11-4.25l2.08-1.91c3.41-8.41,7-13,10.6-13.75,1.3848-.2913,2.8262,.0783,3.9,1,.59,.42,3.67,2.72,3.58,5.16-.06,1.72-1.7,8-2.48,10.82-.2643,.949-.1755,1.9616,.25,2.85l2.85,6c.8522,1.7935,.9282,3.8588,.21,5.71l-4.55,9.22-.44,3.06c-.0787,.4853-.4984,.8414-.99,.84h0Z"/>
    <path d="M31.6248,68c-.5523,0-1-.4477-1-1l-.31-7.69c-.0007-.5333,.4173-.9733,.95-1,.5523,0,1,.4477,1,1l.36,7.69c0,.5523-.4477,1-1,1Z"/>
    <path fill="none" stroke="#000" stroke-linecap="round" stroke-linejoin="round" stroke-width="2" d="M37.2548,21c-3.06,.59-6.34-1.59-7.56-5.17-.8919-2.4129-.5165-5.1121,1-7.19,.6396-.8445,1.5173-1.4783,2.52-1.82"/>
    <path fill="none" stroke="#000" stroke-linecap="round" stroke-linejoin="round" stroke-width="2" d="M30.6448,8.65h0c0,.35,.62,6.84,9.94,5"/>
    <path fill="none" stroke="#000" stroke-linecap="round" stroke-linejoin="round" stroke-width="2" d="M33.1648,6.84s8.07-3.56,11.27,4c1.75,4.46,1.06,7.34,.39,8.46-.6233,.9691-1.7863,1.4446-2.91,1.19-.8306-.1804-1.4199-.9201-1.41-1.77l.09-5h0"/>
    <path d="M29.6148,50.81c-.7893-.0012-1.5777-.0546-2.36-.16-.5523-.0746-.9396-.5827-.865-1.135s.5827-.9396,1.135-.865c5.73,.79,7.18-1.45,8.73-4.65,2.31-5.72,1.92-13.35,1.91-13.43-.001-.5297,.4113-.9682,.94-1,.5488-.0284,1.0178,.3914,1.05,.94,0,.32,.42,8.15-2.07,14.32-1.54,3.17-3.34,5.98-8.47,5.98Z"/>
  </g>
</svg>
