<svg id="emoji" viewBox="0 0 72 72" xmlns="http://www.w3.org/2000/svg">
  <g id="color">
    <path fill="#9b9b9a" d="M46.0353,49.5c-5-1.2-11.6,6.1-15.9,6.1l.5,7.5,1.1,4.9h9l1-4.2,4.6-9.3c.5577-1.6418,.45-3.4367-.3-5Z"/>
    <path fill="#3f3f3f" d="M40.0353,51.7c.4899,3.5368-2.7,9.9-2.8,16.3h3.4s.3-3.2,1-4.2c.7-1.1,4.1-9.3,4.1-9.3,0,0,1.7-4,.1-4.9-.6-.2-4.5,1.1-5.8,2.1Z"/>
    <path fill="#92d3f5" d="M43.0353,43.5c-.4986-1.133-.6042-2.4001-.3-3.6,1.0357-3.4825,1.8705-7.0217,2.5-10.6,.1-2.1-3.2-4.4-3.2-4.4,0,0-5.7-5.8-13.1,12.6l-3.4,3.1c-1.2551,1.5103-2.1449,3.2897-2.6,5.2-.3009,1.3164-.3009,2.6836,0,4,.5378,1.7883,1.7117,3.3179,3.3,4.3,1.6436,1.0027,3.3468,1.9044,5.1,2.7,7.4-1.2,6.3-6.1,14.5-7.3l-2.8-6Z"/>
    <path fill="#61b2e4" d="M40.9353,24.4c1.0907,2.25,1.7036,4.7015,1.8,7.2,.2,4.1-1,6.3-1.9,12.2-.4454,2.6122-.7127,5.2516-.8,7.9,1.8032-1.0389,3.7614-1.7817,5.8-2.2-.3-2.8-.6-5.7-.9-8.5,.3-4,.7-8,1-12.1-.2208-2.583-2.4081-4.5516-5-4.5Z"/>
    <path fill="#ea5a47" d="M21.8353,36.8h0c-.3073-.0286-.5927-.1714-.8-.4l-1.6-2.3c-.3038-.4694-.1694-1.0962,.3-1.4,.4694-.3038,1.0962-.1694,1.4,.3l.8,1.1,.8-1.1c.3314-.4418,.9582-.5314,1.4-.2,.4418,.3314,.5314,.9582,.2,1.4l-1.7,2.3c-.2174,.2003-.5044,.308-.8,.3Z"/>
  </g>
  <g id="skin">
    <path fill="#c19a65" d="M32.2353,8.1c3.6-2.6,9.4-.9,11.1,3.3,1.6,3.8-.6,8.8-4.6,9.9-3.4266,.8846-6.9975-.7959-8.5-4-1.6-3.2-.8-7.3,2-9.2Z"/>
    <path fill="#c19a65" d="M28.3353,50.5c-1.0372,.0218-1.9128-.7662-2-1.8-.1491-1.0627,.5916-2.0451,1.6544-2.1942l.0456-.0058c3-.4,4.8-1.7,5.5-2.7,.4009-.7132,.6718-1.492,.8-2.3,.1-.3,.1-.6,.2-.8,.8798-3.3672,1.3828-6.8217,1.5-10.3-.0092-1.0463,.8315-1.9019,1.8777-1.9111,.0742-.0007,.1485,.0031,.2223,.0111,1.0753,.0229,1.9285,.9132,1.9056,1.9885-.0008,.0372-.0027,.0744-.0056,.1115-.1773,3.7492-.7471,7.4696-1.7,11.1-.1,.2-.1,.5-.2,.7-.2715,1.2205-.7089,2.3982-1.3,3.5-1.5,2.4-4.6,4.1-8.3,4.5,0,.1-.1,.1-.2,.1Z"/>
  </g>
  <g id="hair">
    <path fill="#6a462f" d="M40.6353,13.4c-2.4196-.0264-4.7587-.8724-6.6353-2.4-.21-.1831-2.6-2.3013-2.0647-3.4,.2-.4115,.74-.5279,1.0647-.6,4.3771-.97,6.5657-1.4556,8.5353-.3,1.4394,.8727,2.5342,2.2147,3.1,3.8,.666,2.05,.3721,4.2911-.8,6.1-.5201,.6944-1.2084,1.245-2,1.6-.5-1.6-.8-3.2-1.2-4.8Z"/>
  </g>
  <g id="line">
    <path fill="none" stroke="#000" stroke-linecap="round" stroke-linejoin="round" stroke-width="2" d="M40.6353,67c.2-1.1,.3-2.1,.5-3.2,1.4-2.8,2.8-5.6,4.1-8.4,.5781-.9315,.8894-2.0038,.9-3.1,.0018-.8907-.1679-1.7735-.5-2.6-.5638-1.746-.8671-3.5655-.9-5.4,0-1.3,.2-2.8,.5-5.7,.3-2.4,.5-4.1,.5-4.1,.2708-1.2135,.3717-2.4587,.3-3.7,.0293-.9904-.1407-1.9766-.5-2.9-.7124-1.9229-2.3169-3.3781-4.3-3.9-1.8535-.2929-3.7441,.2161-5.2,1.4-1.4385,1.1737-1.6496,2.4069-3.0353,5.6-.8923,2.0521-1.8937,4.0549-3,6-1.4642,.713-2.8031,1.6586-3.9647,2.8-1.3444,1.2601-2.4017,2.7949-3.1,4.5-.9317,2.0594-.9679,4.4129-.1,6.5,.5091,1.0896,1.2618,2.0476,2.2,2.8,1.0868,.8853,2.3473,1.5325,3.7,1.9,.7209,.243,1.4555,.4434,2.2,.6"/>
    <path d="M31.6353,68c-.5518-.0012-.9988-.4482-1-1l-.3-7.7c0-.5523,.4477-1,1-1s1,.4477,1,1l.3,7.7c.0332,.5191-.3607,.9668-.8798,1-.04,.0026-.0802,.0026-.1202,0Z"/>
    <path fill="none" stroke="#000" stroke-linecap="round" stroke-linejoin="round" stroke-width="2" d="M37.3353,20.8c-3.1,.6-6.4-1.6-7.6-5.2-.0075-.0228-.0227-.0665-.043-.1291-.7684-2.3911-.3831-5.0035,1.043-7.0709,.3615-.5176,.7864-.9879,1.2647-1.4"/>
    <path fill="none" stroke="#000" stroke-linecap="round" stroke-linejoin="round" stroke-width="2" d="M32.0353,7.9c1.682,3.2201,4.9689,5.284,8.6,5.4"/>
    <path fill="none" stroke="#000" stroke-linecap="round" stroke-linejoin="round" stroke-width="2" d="M32,7c.264-.1469,5.3761-2.8916,9.5353-.3,1.4139,.9017,2.5006,2.2338,3.1,3.8,.6974,1.8451,.5133,3.9077-.5,5.6-.5412,.8023-1.2755,1.4557-2.1353,1.9l-1.2647-4.5"/>
    <path d="M29.6353,50.7c-.7699-.0212-1.5379-.088-2.3-.2-.5135-.1221-.882-.5725-.9-1.1,0-.5,.6-.9,1.1-.9,5.7,.8,7.2-1.5,8.7-4.7,2.3-5.7,1.9-13.4,1.9-13.5-.0141-.539,.3688-1.0071,.9-1.1,.5-.1,1,.4,1.1,.9,0,.3,.4,8.2-2.1,14.4-1.4,3.4-3.2,6.2-8.4,6.2Z"/>
  </g>
</svg>
