<svg id="emoji" viewBox="0 0 72 72" xmlns="http://www.w3.org/2000/svg">
  <g id="line-supplement">
    <path fill="none" stroke="#000" stroke-linecap="round" stroke-linejoin="round" stroke-width="2" d="m43.8729,12.1456l-15.5715,3.7549c-1.1638-.367-2.3957-.4649-3.6028-.2864"/>
    <path fill="none" stroke="#000" stroke-linecap="round" stroke-linejoin="round" stroke-width="2" d="m25.4278,18.8249s2.4881-1.0812,2.8736-2.9244"/>
    <path fill="none" stroke="#000" stroke-linecap="round" stroke-linejoin="round" stroke-width="1.8827" d="m19.9477,15.4187l2.7744-.6674c.8685-.2088,1.7418.3258,1.9508,1.1943l.6936,2.8833"/>
    <path fill="none" stroke="#000" stroke-linecap="round" stroke-linejoin="round" stroke-width="1.8827" d="m19.9477,15.4187l2.7744-.6674c.8685-.2088,1.7418.3258,1.9508,1.1943l.6936,2.8833"/>
    <path fill="none" stroke="#000" stroke-linecap="round" stroke-linejoin="round" stroke-width="2" d="m19.2691,30.2917c2.2176-5.2121-.224-11.71-.224-11.71l-.2916-1.2117c-.2089-.8685.3257-1.7419,1.1942-1.9508,0,0,3.8734-1.0686,5.4188,3.41.327.8582-.0698,1.8228-.9061,2.2024l-.26.2452c-1.0331,1.2294-3.5613,4.6335.1713,9.2105"/>
  </g>
  <g id="color">
    <polygon fill="#fff" points="20.8595 58.7419 22.2854 49.3504 37.4789 49.3504 39.0524 59.1353 20.8595 58.7419"/>
    <path fill="#d22f27" d="m64.9936,33.8619c-1.2038-.8192-2.7354-.9882-4.0888-.4512l-3.4268,1.3555c-.2807.1112-.5799.1682-.8818.168h-.7217c-.3085-.0003-.6141-.06-.9-.1758l-1.7582-.712c.1925-1.886-1.1804-3.571-3.0664-3.7635-.1202-.0123-.241-.0182-.3619-.0177H10.3813c-1.9109-.0005-3.4604,1.5481-3.461,3.459,0,.1987.017.397.051.5928l.458,2.6455c.8547,4.9842,5.1803,8.6249,10.2373,8.6162h24.8515c3.1777.0056,6.182-1.4487,8.1488-3.9446l4.3082-.613c.1119-.016.2248-.0241.3379-.0244h1.557c.3052-.0003.6075.058.8907.1718l3.1269,1.253c2.2553.9024,4.8151-.1944,5.7175-2.4497.2077-.5192.3146-1.0732.3147-1.6324v-.8408c.0007-1.4567-.7208-2.8189-1.9262-3.6367Z"/>
    <path fill="#781e32" d="m44.8563,31.265s-1.7052,12.7618-10.5463,13.3302h8.3079s6.0706-.5684,7.5019-4.2946c0,0,4.7578-8.0359,0-9.0356h-5.2635Z"/>
    <path fill="#a57939" d="m43.7539,13.624c-.5286-.3399-.9002-.8762-1.0326-1.4906h-.0007c-.2565-1.2164.4664-2.4254,1.6594-2.775l7.7628-2.2441c.7819-.2243,1.6218-.1153,2.3205.3013.6922.4229,1.1832,1.1085,1.3609,1.9.3407,1.5835-.6669,3.1434-2.2504,3.484-.0665.0143-.1336.0263-.2009.036l-7.9994,1.1444c-.5652.0812-1.1406-.0453-1.6196-.356Z"/>
    <path fill="#fcea2b" d="m30.0718,61.9039c-1.774-.0112-3.4848-.6601-4.82-1.8282-1.0605-1.0774-1.6272-2.5461-1.5655-4.0566-.0001-.2696.1087-.5277.3018-.7158.1986-.1789.4553-.2798.7226-.2842.9755.0297,1.9448.1659,2.8907.4063.541-1.3164,1.2646-2.65,2.07-3.0157.3349-.1515.7259-.1072,1.0185.1153.8129.7251,1.3787,1.6863,1.6182,2.749,1.1074-.4,2.3059-.4763,3.4551-.22.5054.1377.8189.642.7187,1.1562-.3838,1.9688-2.2148,5.69-6.3925,5.6934l-.0176.0003Z"/>
    <path fill="#6a462f" d="m26.352,18.4737l-.6909-2.7619c-.3517-1.4093-1.7792-2.2667-3.1885-1.915-.0005.0001-.001.0002-.0015.0004l-2.7625.6909c-1.4087.3537-2.2653,1.7811-1.9146,3.1906l.6908,2.763c.3523,1.4091,1.7802,2.2659,3.1893,1.9137.0002,0,.0005-.0001.0007-.0002l2.7624-.6908c1.4088-.3538,2.2653-1.7811,1.9148-3.1907Z"/>
    <path fill="#fcea2b" d="m47.5545,29.2651h-22.699c-2.7145-4.08-.4833-6.2713-.4833-6.2713,7.8487-6.8949-7.5854-12.749-6.77-5.1631,2.5134,6.8143,1.3876,9.9759.962,11.4344h-5.7392c-.5523,0-1,.4477-1,1s.4477,1,1,1h34.73c.5523,0,1-.4477,1-1s-.4477-1-1-1h-.0005Z"/>
  </g>
  <g id="line">
    <path fill="none" stroke="#000" stroke-linecap="round" stroke-linejoin="round" stroke-width="2" d="m10.3814,31.265h39.4064c1.3592,0,2.4611,1.1019,2.4611,2.4611,0,.1362-.0113.2722-.0338.4065l-.4369,2.6079c-.758,4.5237-4.6732,7.8378-9.26,7.8382h-24.8518c-4.5673-.0002-8.4721-3.2867-9.2518-7.787l-.4582-2.6457c-.232-1.3392.6657-2.6129,2.0049-2.8449.1387-.024.2793-.0361.4201-.0361Z"/>
    <path fill="none" stroke="#000" stroke-linecap="round" stroke-linejoin="round" stroke-width="2" d="m52.123,34.6824l2.4762,1.003c.4052.1641.8382.2485,1.2753.2485h.722c.428,0,.8521-.0808,1.25-.2382l3.4264-1.3557c1.7445-.6904,3.7183.1641,4.4087,1.9085.1575.398.2384.8222.2384,1.2502v.84c0,1.8761-1.5207,3.397-3.3967,3.3971-.4328,0-.8615-.0827-1.2633-.2436l-3.1277-1.2522c-.4017-.1608-.8303-.2435-1.263-.2435h-1.5561c-.1602,0-.3202.0113-.4788.0339l-4.7151.6713"/>
    <path fill="none" stroke="#000" stroke-linecap="round" stroke-linejoin="round" stroke-width="2" d="m43.5227,11.9607h0c-.1711-.7959.3027-1.5885,1.0848-1.8147l7.7625-2.2437c1.121-.3242,2.2927.3217,2.6169,1.4427.0137.0472.0257.0949.036.143h0c.2452,1.141-.4809,2.2647-1.6219,2.51-.0478.0103-.096.0189-.1444.0258l-7.999,1.1454c-.8059.1153-1.5637-.4125-1.7349-1.2085Z"/>
    <polyline fill="none" stroke="#000" stroke-linecap="round" stroke-linejoin="round" stroke-width="2" points="19.585 58.005 20.991 47.567 39.178 47.567 40.585 58.005"/>
    <path fill="none" stroke="#000" stroke-linecap="round" stroke-linejoin="round" stroke-width="2" d="m15.67,58.9909h0c0,1.0566.8566,1.9132,1.9132,1.9132h25.003c1.0566,0,1.9132-.8566,1.9132-1.9132h0"/>
    <path fill="none" stroke="#000" stroke-linecap="round" stroke-linejoin="round" stroke-width="2" d="m30.0846,60.9041s-5.3988.0728-5.3988-4.8855c1.1961.0261,2.3788.2571,3.4967.6831,0,0,1.077-3.0067,1.9021-3.381.8976.8855,1.4261,2.0784,1.4789,3.3382,1.2098-.6303,2.5903-.8547,3.9374-.64,0,0-.9539,4.8852-5.4163,4.8852Z"/>
  </g>
</svg>
