<svg id="emoji" viewBox="0 0 72 72" xmlns="http://www.w3.org/2000/svg">
  <g id="color"/>
  <g id="skin">
    <g id="skin-a">
      <path fill="#a57939" d="M62.622,40.338c.96,3.25-1.109,5.983-4.435,5.392.443,3.249-2.735,6.13-6.579,4.283,1.478,3.766-1.997,5.908-4.731,4.283,1.403,1.6985-.813,7.46-9.387,1.994l-1.6426-.9033L16.5088,44.7522,15.05,43.95s-7.133-5.822-8.537-8.259c-4.392-7.595.9489-19.79,10.44-21.82l7.9426-1.4243,5.2391,7.9469,13.0738,6.0043L56,33.58l3.6854,3.7675Z"/>
    </g>
    <g id="skin-b">
      <path fill="#6a462f" d="M62.622,40.338c6.721-4.585,5.041-19.03-.0988-25.36-9.287-1.459-11-2.362-20.98-3.943l-13.53-.6185a3.9934,3.9934,0,0,0-4.779,2.533,32.8568,32.8568,0,0,1-3.599,8.378,3.5387,3.5387,0,0,0,1.872,4.588c1.908.4767,2.78-.386,4.46-1.686a25.9541,25.9541,0,0,0,3.805-4.575l13.64,6.204,12.72,7.164c2.514,1.698,5.012,5.844,6.51,7.321"/>
      <path fill="#6a462f" d="M31.51,54.15a3.0218,3.0218,0,0,1,4.144-.9c1.405.8125,2.439,2.362,1.478,4.063l-1.774,3.101A3.27,3.27,0,0,1,29.7,57.2424l1.81-3.094Z"/>
      <path fill="#6a462f" d="M25.84,50.98a3.0218,3.0218,0,0,1,4.144-.9c1.405.8125,2.439,2.362,1.478,4.063l-1.774,3.101a3.27,3.27,0,0,1-5.658-3.1713l1.81-3.094Z"/>
      <path fill="#6a462f" d="M20.18,47.82a3.0218,3.0218,0,0,1,4.144-.9c1.405.8125,2.439,2.362,1.478,4.063l-1.774,3.101a3.27,3.27,0,0,1-5.658-3.1713l1.81-3.094Z"/>
      <path fill="#6a462f" d="M14.53,44.65a3.0218,3.0218,0,0,1,4.144-.9c1.405.8125,2.439,2.362,1.478,4.063l-1.774,3.101a3.27,3.27,0,0,1-5.658-3.1713l1.81-3.094Z"/>
    </g>
  </g>
  <g id="line">
    <path fill="none" stroke="#000" stroke-linecap="round" stroke-linejoin="round" stroke-width="2" d="M15.05,43.95s-7.133-5.822-8.537-8.259c-4.392-7.595.9489-19.79,10.44-21.82"/>
    <path fill="none" stroke="#000" stroke-linecap="round" stroke-linejoin="round" stroke-width="2" d="M38.71,42.99,51.6,50.011"/>
    <path fill="none" stroke="#000" stroke-linecap="round" stroke-linejoin="round" stroke-width="2" d="M33.87,47.79l13,6.498"/>
    <path fill="none" stroke="#000" stroke-linecap="round" stroke-linejoin="round" stroke-width="2" d="M58.18,45.72l-5.1-4.358-8.279-4.335"/>
    <path fill="none" stroke="#000" stroke-linecap="round" stroke-linejoin="round" stroke-width="2" d="M37.49,56.29c8.574,5.466,10.79-.2955,9.387-1.994,2.734,1.625,6.209-.517,4.731-4.283,3.844,1.847,7.022-1.034,6.579-4.283,3.326.591,5.395-2.142,4.435-5.392,6.721-4.585,5.041-19.03-.0988-25.36-9.287-1.459-11-2.362-20.98-3.943l-13.53-.6185a3.9934,3.9934,0,0,0-4.779,2.533,32.8568,32.8568,0,0,1-3.599,8.378,3.5387,3.5387,0,0,0,1.872,4.588c1.908.4767,2.78-.386,4.46-1.686a25.9541,25.9541,0,0,0,3.805-4.575l13.64,6.204,12.72,7.164c2.514,1.698,5.012,5.844,6.51,7.321"/>
    <path fill="none" stroke="#000" stroke-linecap="round" stroke-linejoin="round" stroke-width="2" d="M31.51,54.15a3.0218,3.0218,0,0,1,4.144-.9c1.405.8125,2.439,2.362,1.478,4.063l-1.774,3.101A3.27,3.27,0,0,1,29.7,57.2424l1.81-3.094Z"/>
    <path fill="none" stroke="#000" stroke-linecap="round" stroke-linejoin="round" stroke-width="2" d="M25.84,50.98a3.0218,3.0218,0,0,1,4.144-.9c1.405.8125,2.439,2.362,1.478,4.063l-1.774,3.101a3.27,3.27,0,0,1-5.658-3.1713l1.81-3.094Z"/>
    <path fill="none" stroke="#000" stroke-linecap="round" stroke-linejoin="round" stroke-width="2" d="M20.18,47.82a3.0218,3.0218,0,0,1,4.144-.9c1.405.8125,2.439,2.362,1.478,4.063l-1.774,3.101a3.27,3.27,0,0,1-5.658-3.1713l1.81-3.094Z"/>
    <path fill="none" stroke="#000" stroke-linecap="round" stroke-linejoin="round" stroke-width="2" d="M14.53,44.65a3.0218,3.0218,0,0,1,4.144-.9c1.405.8125,2.439,2.362,1.478,4.063l-1.774,3.101a3.27,3.27,0,0,1-5.658-3.1713l1.81-3.094Z"/>
  </g>
</svg>
