<svg id="emoji" viewBox="0 0 72 72" xmlns="http://www.w3.org/2000/svg">
  <g id="color"/>
  <g id="skin">
    <path fill="#a57939" d="M55.8548,42.6458c1.9293-.284,3.7235,1.0497,4.0075,2.979,.284,1.9293-1.0497,3.7235-2.979,4.0075-.3092,.0455-.623,.0498-.9333,.0127l-18.9983,.2571-4.3253-.0221,12.9989-.1759c1.9293-.2841,3.7236,1.0496,4.0077,2.9789s-1.0496,3.7236-2.9789,4.0077c-.3094,.0456-.6235,.0498-.9341,.0126l-12.9988,.176-10.0853-.0526c-8.31-.4248-13.6293-7.7519-13.2046-16.06,.2654-4.7918,2.2781-9.32,5.6572-12.7278,3.09-2.9178,14.128-12.2869,14.128-12.2869,1.271-.8724,2.9761-.751,4.1107,.2926,1.2945,1.2114,1.4189,3.2224,.2835,4.5841l-6.9657,8.0012,5.4,.0389-5.4-.0389,5.4,.0389,21.85-.04c1.9293-.2839,3.7235,1.05,4.0074,2.9794s-1.05,3.7235-2.9794,4.0074c-.3092,.0455-.623,.0497-.9333,.0126l-6.9994,.0946-10.6364,.1871,22.1928-.367c1.9293-.2841,3.7236,1.0496,4.0077,2.9789s-1.0496,3.7236-2.9789,4.0077c-.3094,.0456-.6235,.0498-.9341,.0126l-24.016,.2063"/>
  </g>
  <g id="line">
    <path fill="none" stroke="#000" stroke-linecap="round" stroke-linejoin="round" stroke-width="2" d="M55.8548,42.6962c1.9293-.2841,3.7236,1.0496,4.0077,2.9789s-1.0496,3.7236-2.9789,4.0077c-.3094,.0456-.6235,.0498-.9341,.0126l-18.9983,.2571-.9512-.0048,9.6253-.1928c1.9293-.2841,3.7236,1.0496,4.0077,2.9789s-1.0496,3.7236-2.9789,4.0077c-.3094,.0456-.6235,.0498-.9341,.0126l-12.9987,.176-10.0853-.0526c-8.31-.4248-13.6293-7.7519-13.2046-16.06,.2654-4.7917,2.278-9.3199,5.6571-12.7277,3.09-2.9178,13.8165-12.2811,13.8165-12.2811,1.4091-1.0107,3.3356-.8867,4.6036,.2962,1.1904,1.177,1.3134,3.0579,.2865,4.38l-7.15,8.1952,5.4,.0389-5.4-.0389,5.4,.0389,21.85-.04c1.9293-.2841,3.7236,1.0496,4.0077,2.9789s-1.0496,3.7236-2.9789,4.0077c-.3094,.0456-.6235,.0498-.9341,.0126l-6.9998,.0955-10.6361,.186,22.1928-.3671c1.9293-.2841,3.7236,1.0496,4.0077,2.9789s-1.0496,3.7236-2.9789,4.0077c-.3094,.0456-.6235,.0498-.9341,.0126l-20.4538,.1758"/>
  </g>
</svg>
