<svg id="emoji" viewBox="0 0 72 72" xmlns="http://www.w3.org/2000/svg">
  <g id="color"/>
  <g id="skin">
    <g id="hearth-hands">
      <path fill="#c19a65" d="M67.78,41.1742l-4.3796,8.5757-.7829-.6583-3.7984-2.7816c-1.8538-1.3017-4.2648-1.5045-6.31-.5307-1.9675,.6874-4.0878,.8116-6.1221,.3585-2.1081-.3243-7.41,1.8141-8.7174,2.3879-.4024,.1767-1.6482-1.0665-1.673-1.5052-.0786-1.3937,1.9451-3.7005,6.9023-6.1505,6.0509-2.99,6.3355-6.6919,5.1255-11.0343-1.21-4.3424-6.5492-2.1357-6.5492-2.1357l-4.5066,3.4628c-.2002,.1099-.4443,.1019-.6368-.0209-.2911-.1856-.3766-.572-.1911-.8631,.8969-1.389,2.1828-4.1342,3.4128-4.9279,1.2625-.7766,2.5778-1.4638,3.9364-2.0565,1.0489-.4723,2.2416-.5126,3.32-.1121l6.0945,2.2677c.9389,.3479,1.729,1.0091,2.237,1.8719,1.021,1.7335,2.8641,4.85,4.431,7.43,1.411,2.3236,7.1542,5.9107,7.3163,5.9648l.8913,.4575Z"/>
    </g>
    <g id="hearth-hands-2">
      <path fill="#c19a65" d="M5.1057,40.7167c.1621-.0541,5.9053-3.6412,7.3163-5.9648,1.5669-2.58,3.41-5.6965,4.431-7.43,.508-.8628,1.2981-1.524,2.237-1.8719l6.0945-2.2677c1.0784-.4005,2.2711-.3602,3.32,.1121,1.3586,.5927,2.6739,1.2799,3.9364,2.0565,1.23,.7937,2.5159,3.5389,3.4128,4.9279,.1856,.2911,.1,.6775-.1911,.8631-.1925,.1227-.4367,.1307-.6368,.0209l-4.5066-3.4628s-5.3392-2.2067-6.5492,2.1357c-1.21,4.3424-.9254,8.0443,5.1255,11.0343,4.9572,2.45,6.9809,4.7568,6.9023,6.1505-.0248,.4387-1.2706,1.6819-1.673,1.5052-1.3074-.5738-6.6093-2.7122-8.7174-2.3879-2.0343,.4531-4.1546,.3289-6.1221-.3585-2.0452-.9738-4.4562-.771-6.31,.5307l-3.7984,2.7816-.7829,.6583-4.3796-8.5757,.8913-.4575Z"/>
    </g>
  </g>
  <g id="line">
    <g id="line-2">
      <path fill="none" stroke="#000" stroke-linecap="round" stroke-linejoin="round" stroke-width="2" d="M66.8943,40.7167c-.1621-.0541-5.9053-3.6412-7.3163-5.9648-1.5669-2.58-3.41-5.6965-4.431-7.43-.508-.8628-1.2981-1.524-2.237-1.8719l-6.0945-2.2677c-1.0784-.4005-2.2711-.3602-3.32,.1121-1.3586,.5927-2.6739,1.2799-3.9364,2.0565-1.23,.7937-2.5159,3.5389-3.4128,4.9279-.1856,.2911-.1,.6775,.1911,.8631,.1925,.1227,.4367,.1307,.6368,.0209l4.5066-3.4628s4.4922-1.8756,6.5491,2.1356c2.2451,4.3781,.9255,8.044-5.1254,11.0338-4.9572,2.45-6.3787,4.4689-6.3,5.8626,.0248,.4387,1.2707,1.6818,1.673,1.5052,1.3074-.5739,6.0071-2.4243,8.1152-2.1,2.0343,.4531,4.1546,.3289,6.1221-.3585,2.0452-.9738,4.4562-.771,6.31,.5307l3.7986,2.7821"/>
      <path fill="none" stroke="#000" stroke-linecap="round" stroke-linejoin="round" stroke-width="2" d="M5.1057,40.7167c.1621-.0541,5.9053-3.6412,7.3163-5.9648,1.5669-2.58,3.41-5.6965,4.431-7.43,.508-.8628,1.2981-1.524,2.237-1.8719l6.0945-2.2677c1.0784-.4005,2.2711-.3602,3.32,.1121,1.3586,.5927,2.6739,1.2799,3.9364,2.0565,1.23,.7937,2.5159,3.5389,3.4128,4.9279,.1856,.2911,.1,.6775-.1911,.8631-.1925,.1227-.4367,.1307-.6368,.0209l-4.5066-3.4628s-4.4922-1.8755-6.5492,2.1357c-2.2451,4.3781-.9255,8.044,5.1254,11.0338,4.9572,2.45,6.3787,4.4689,6.3,5.8626-.0248,.4387-1.2707,1.6818-1.673,1.5052-1.3074-.5739-6.0071-2.4243-8.1152-2.1-2.0343,.4531-4.1546,.3289-6.1221-.3585-2.0452-.9738-4.4562-.771-6.31,.5307l-3.7982,2.7821"/>
    </g>
  </g>
</svg>
