<svg id="emoji" viewBox="0 0 72 72" xmlns="http://www.w3.org/2000/svg">
  <g id="color"/>
  <g id="skin">
    <path fill="#6a462f" d="M16.1452,42.671c-1.9293-.2841-3.7236,1.0496-4.0077,2.9789-.2841,1.9293,1.0496,3.7236,2.9789,4.0077,.3094,.0456,.6235,.0498,.9341,.0126l18.9983,.2571,4.3248-.0217-12.9989-.1757c-1.9293-.2841-3.7236,1.0496-4.0077,2.9789-.2841,1.9293,1.0496,3.7236,2.9789,4.0077,.3094,.0456,.6235,.0498,.9341,.0126l12.9988,.176,10.0853-.0526c8.31-.4248,13.6293-7.7519,13.2046-16.06-.2654-4.7918-2.2781-9.32-5.6572-12.7278-3.09-2.9178-14.128-12.287-14.128-12.287-1.271-.8724-2.9761-.751-4.1107,.2926-1.2945,1.2114-1.4189,3.2225-.2835,4.5842l6.9657,8.0009-5.4,.0389,5.4-.0389-5.4,.0389-21.85-.0395c-1.9293-.2841-3.7236,1.0496-4.0077,2.9789-.2841,1.9293,1.0496,3.7236,2.9789,4.0077,.3094,.0456,.6235,.0498,.9341,.0126l6.9994,.0947,10.6365,.1861-22.1928-.3671c-1.9293-.2841-3.7236,1.0496-4.0077,2.9789-.2841,1.9293,1.0496,3.7236,2.9789,4.0077,.3094,.0456,.6235,.0498,.9341,.0126l24.016,.2064"/>
  </g>
  <g id="line">
    <path fill="none" stroke="#000" stroke-linecap="round" stroke-linejoin="round" stroke-width="2" d="M16.1452,42.671c-1.9293-.2841-3.7236,1.0496-4.0077,2.9789-.2841,1.9293,1.0496,3.7236,2.9789,4.0077,.3094,.0456,.6235,.0498,.9341,.0126l18.9983,.2571,.9512-.0048-9.6252-.1926c-1.9293-.2841-3.7236,1.0496-4.0077,2.9789-.2841,1.9293,1.0496,3.7236,2.9789,4.0077,.3094,.0456,.6235,.0498,.9341,.0126l12.9987,.176,10.0853-.0526c8.31-.4248,13.6293-7.7519,13.2046-16.06-.2654-4.7918-2.2781-9.32-5.6572-12.7278-3.09-2.9178-13.8165-12.2811-13.8165-12.2811-1.4091-1.0107-3.3356-.8867-4.6036,.2962-1.1904,1.177-1.3134,3.0579-.2865,4.38l7.15,8.1952-5.4,.0389,5.4-.0389-5.4,.0389-21.85-.0395c-1.9293-.2841-3.7236,1.0496-4.0077,2.9789-.2841,1.9293,1.0496,3.7236,2.9789,4.0077,.3094,.0456,.6235,.0498,.9341,.0126l6.9994,.0947,10.6365,.1861-22.1928-.3671c-1.9293-.2841-3.7236,1.0496-4.0077,2.9789s1.0496,3.7236,2.9789,4.0077c.3094,.0456,.6235,.0498,.9341,.0126l20.4538,.1758"/>
  </g>
</svg>
