<svg id="emoji" viewBox="0 0 72 72" xmlns="http://www.w3.org/2000/svg">
  <g id="color"/>
  <g id="skin">
    <path fill="#fadcbc" d="M40.5494,20.95c.3877-.8208,2.4331-.9526,2.4416-.9534,1.93-.1781,3.6684,2.09,5.0185,3.4741,5.5152,5.6527,11.159,10.235,12.8518,10.7454,2.0834,.6282,2.1482,.8672,2.1482,.8672v16.3877s-.7155,.4867-5,0c-4.6991-.5338-7.9991-1.2681-12-2-1.9587-.3584-3.7418-.6846-6-1-4.3097-.5904-8.6507-.9243-13-1-8.0014-.2083-13,0-13,0h-3s-2.2218-1.8593-2-3c.3157-1.6233,3-3,3-3,0,0-.4877,.2291-1.0286-1.062-.2712-.6525-.3447-1.3703-.2113-2.0642,.2713-.807,.2676-1.0208,1.0734-1.5138,1.0777-.6592,3.3578,.2478,3.3578,.2478-.0939-.5564-.1218-1.1219-.0832-1.6848,.1072-.7313,.3544-1.4351,.728-2.0729,.3907-.866,2.015-.84,2.1639-.85,1.0771,.0281,2.1215,.3762,3,1,.648,.3694,1.3157,.7032,2,1,0,0-1.1459-1.309-.9-2.3464,.2276-.9616,.8433-2.16,1.7615-2.244,.4057-.0372,3.3531,.6431,3.3531,.6431l3.8493,1.475,3.8212,1.4643,2.3822,.9128,1.3663,.3229,6.2-2.9319-3.2849-5.0489-1.7795-3.6759s.5913-1.7114,.7707-2.0921Z"/>
  </g>
  <g id="line">
    <path fill="none" stroke="#000" stroke-linecap="round" stroke-linejoin="round" stroke-width="2" d="M63.01,35.0836s-2.9-.2151-6.2787-3.6229c-3.09-2.9178-11.2329-10.2266-11.2329-10.2266-1.0579-.7171-3.132-2.0775-4.7284-.7754-1.1982,.9492-1.5253,2.6302-.7706,3.9595l5.1754,7.6332-5.1648,2.0322,5.1648-2.0322-5.1648,2.0322-12,6.3874-11,2h-5.0294s-3.1789,0-3.1789,2.5619c0,2.477,2.3028,2.766,3.3028,2.766s12.6528,.0372,12.9632,0l13.9954,.867,23.9469,3.4177c0-3,.4247-8.6919,0-17"/>
    <path fill="none" stroke="#000" stroke-linecap="round" stroke-linejoin="round" stroke-width="2" d="M38.4083,34.81l-11.6754-4.474s-3.7287-1.191-4.5138,.8808c-.5025,1.2219,.0807,2.6199,1.3026,3.1224,.0738,.0303,.149,.057,.2254,.0798l8.9582,3.2106-12.3853-4.349s-3.7981-1.5138-4.7064,1.0734c-.9989,2.8454,2.347,3.5526,2.347,3.5526l10.305,2.428-14.2249-3.3516s-2.32-.6416-2.9424,1.4994c-.61,2.101,1.3126,2.8085,2.2142,3.0519,1.3654,.3686,3.697,.9367,3.697,.9367"/>
  </g>
</svg>
