<svg id="emoji" viewBox="0 0 72 72" xmlns="http://www.w3.org/2000/svg">
  <g id="color"/>
  <g id="skin">
    <path fill="#c19a65" d="M13.1,25.7s.1,6.3,.4,10.7c.3,3.2,0,5.2,0,5.2,0,0,.1,3.2,1,5.2,1,2.1,8.3,7.2,8.3,7.2,0,0,9.5,2.4,12.4,2.1,9.3-1,14.4-4.2,16.5-5.7s5.1-2.8,6.2-8.9-1.7-12-5-15.2l.6-4.4s-.4-7.1-1.1-7.1-6.9-.8-6.9-.8l-3,3.5-3.1-2.2h-4.8l-2.3,3.7-4.2-1h-3.1l-2.4,3.1-.8,2.5-4.2-1.8-2.1,.5-2.4,3.4Z"/>
  </g>
  <g id="line">
    <g>
      <path fill="none" stroke="#000" stroke-linecap="round" stroke-linejoin="round" stroke-width="2" d="M13.6,42.9c2.4,5.6,7,10.2,13.2,12.4,6.4,2.3,13.2,1.5,18.7-1.5"/>
      <path fill="none" stroke="#000" stroke-linecap="round" stroke-linejoin="round" stroke-width="2" d="M31.8,37.3c0,1.3-.9,2.4-2.3,3.1-1.4,.6-3.2,.6-4.6,0s-2.3-1.8-2.3-3.1l.1-16.1c0-1.3,.9-2.4,2.3-3.1s3.2-.6,4.6,0,2.4,1.9,2.4,3.1l-.2,16.1Z"/>
      <path fill="none" stroke="#000" stroke-linecap="round" stroke-linejoin="round" stroke-width="2" d="M22.6,35.7c0,1.4-.9,2.6-2.3,3.3s-3.2,.6-4.6,0-2.3-1.9-2.3-3.3l.1-10c0-1.4,.9-2.6,2.3-3.3,1.4-.7,3.2-.6,4.6,0,1.4,.7,2.3,1.9,2.3,3.3l-.1,10Z"/>
      <path fill="none" stroke="#000" stroke-linecap="round" stroke-linejoin="round" stroke-width="2" d="M32,38l.1-18.8c0-1.5,.9-2.9,2.3-3.7s3.2-.7,4.6,0c1.4,.8,2.3,2.2,2.3,3.7v16.8"/>
      <path fill="none" stroke="#000" stroke-linecap="round" stroke-linejoin="round" stroke-width="2" d="M47.1,37.1c-1.1,3.9-5.1,2.8-7.2,2.9-2.8,.1-4,.5-5.6,1.8-.7,.6-1.2,1.4-1.3,2.1-.5,2.4,1.6,3.7,4.4,4.2,0,0,4.5,1.2,11.1,1.6,3.2,.2,6.4-1.7,7.4-5.7,0,0,3-7-1-14"/>
      <g>
        <path fill="none" stroke="#000" stroke-linecap="round" stroke-linejoin="round" stroke-width="2" d="M52.4,24.7c-.1,1.5-1.2,2.8-2.9,3.4s-3.7,.5-5.3-.4-2.5-2.3-2.4-3.8l.2-6.4c.1-1.5,1.2-2.8,2.9-3.4,1.7-.6,3.7-.5,5.3,.4s2.5,2.3,2.4,3.8l-.2,6.4Z"/>
        <path fill="none" stroke="#000" stroke-linecap="round" stroke-linejoin="round" stroke-width="2" d="M45.2,22.8s1.6-.7,3.8,.2"/>
      </g>
    </g>
  </g>
</svg>
