<svg id="emoji" viewBox="0 0 72 72" xmlns="http://www.w3.org/2000/svg">
  <g id="color">
    <ellipse cx="21.4959" cy="30.4182" rx="3.0549" ry="4.0199" transform="translate(-10.082 50.1712) rotate(-86.7792)" fill="#fff"/>
    <ellipse cx="21.3262" cy="41.7422" rx="3.0549" ry="4.0199" transform="translate(-21.5482 60.6896) rotate(-86.7792)" fill="#fff"/>
    <rect x="30.7634" y="31.9203" rx="0.5853" ry="0.5853" width="3.9812" height="5.6272" fill="#fff"/>
  </g>
  <g id="line">
    <path fill="none" stroke="#000" stroke-linecap="round" stroke-linejoin="round" stroke-width="6.581" d="m57.76,47.52v-23.03l-9.871,19.74-9.871-19.74v23.03"/>
    <path fill="none" stroke="#000" stroke-linecap="round" stroke-linejoin="round" stroke-width="6.574" d="m28.54,29.08c-.6739-2.623-3.586-4.592-7.077-4.592-3.991,0-7.225,2.574-7.225,5.753,0,3.175,3.235,5.753,7.225,5.753l-.1479.0197c3.991,0,7.225,2.577,7.225,5.753,0,3.179-3.235,5.753-7.225,5.753-3.491,0-6.403-1.972-7.077-4.596"/>
  </g>
</svg>
