<svg id="emoji" viewBox="0 0 72 72" version="1.1" xmlns="http://www.w3.org/2000/svg">
  <g id="line-supplement" transform="matrix(.3013 0 0 .3013 -523.2 -12.34)">
    <path fill="none" stroke="#000" stroke-linecap="round" stroke-width="31.93" d="m1856 210.1v-49.77"/>
    <path stroke-width="15.96" d="m1871 117.5c0-8.812-7.136-15.96-15.96-15.96-8.812 0-15.96 7.152-15.96 15.96 0 8.812 7.152 15.96 15.96 15.96 8.828 0 15.96-7.152 15.96-15.96"/>
  </g>
  <g id="color" transform="matrix(.3013 0 0 .3013 -523.2 -12.34)">
    <circle cx="36" cy="36" r="28" transform="matrix(3.319 0 0 3.319 1736 40.96)" fill="#3f3f3f"/>
    <path fill="none" stroke="#fff" stroke-linecap="round" stroke-width="31.93" d="m1856 210.1v-49.77"/>
    <path fill="#fff" stroke-width="15.96" d="m1871 117.5c0-8.812-7.136-15.96-15.96-15.96-8.812 0-15.96 7.152-15.96 15.96 0 8.812 7.152 15.96 15.96 15.96 8.828 0 15.96-7.152 15.96-15.96"/>
  </g>
  <g id="line" transform="matrix(1.09,0,0,1.09,-3.216,-3.216)">
    <circle cx="36" cy="36" r="28" transform="matrix(.9174 0 0 .9174 2.95 2.95)" fill="none" stroke="#000" stroke-linejoin="round" stroke-width="2"/>
  </g>
</svg>
