<?xml version="1.0" encoding="utf-8"?>
<!-- Generator: Adobe Illustrator 21.1.0, SVG Export Plug-In . SVG Version: 6.00 Build 0)  -->
<svg version="1.1" id="emoji" xmlns="http://www.w3.org/2000/svg" xmlns:xlink="http://www.w3.org/1999/xlink" x="0px" y="0px"
	 viewBox="0 0 72 72" enable-background="new 0 0 72 72" xml:space="preserve">
<g id="_x21A9__xFE0F_">
	<path d="M38.7,10.8H22.7c-1.1,0-2,0.9-2,2v3.4c0,1.1,0.9,2,2,2h15.9c9.4,0,14.1,5.6,14.1,16.5c0,10.6-4.4,15.5-13.9,15.5H26.2
		l1.8-1.6c0.8-0.7,0.9-2,0.1-2.8l-2-2.2c-0.4-0.4-0.9-0.6-1.4-0.6c-0.5,0-1,0.2-1.4,0.5l-9.8,9c-0.4,0.4-0.6,0.9-0.6,1.5
		s0.2,1.1,0.6,1.5l9.8,9c0.4,0.4,0.9,0.5,1.4,0.5c0.5,0,1.1-0.2,1.5-0.6l2-2.2c0.4-0.4,0.5-0.9,0.5-1.4s-0.3-1-0.6-1.4l-1.7-1.6
		h12.7c13.5,0,21.3-8.4,21.3-22.9C60.2,19.8,52.2,10.8,38.7,10.8z M38.9,55.7H21.1l5.5,5.1l-2,2.2l-9.8-9l9.8-9l2,2.2l-5.5,5.1h17.8
		c10.5,0,15.9-5.9,15.9-17.5c0-15.3-8.8-18.5-16.1-18.5H22.7v-3.4h15.9c12.4,0,19.6,8,19.6,21.9C58.2,48.3,51.4,55.7,38.9,55.7z"/>
	<path fill="#3F3F3F" d="M38.7,12.8H22.7v3.4h15.9c7.4,0,16.1,3.2,16.1,18.5c0,11.6-5.3,17.5-15.9,17.5H21.1l5.5-5.1l-2-2.2l-9.8,9
		l9.8,9l2-2.2l-5.5-5.1h17.8c12.5,0,19.3-7.4,19.3-20.9C58.2,20.8,51.1,12.8,38.7,12.8z"/>
</g>
</svg>
