<?xml version="1.0" encoding="utf-8"?>
<!-- Generator: Adobe Illustrator 19.1.0, SVG Export Plug-In . SVG Version: 6.00 Build 0)  -->
<svg version="1.1" id="emoji" xmlns="http://www.w3.org/2000/svg" xmlns:xlink="http://www.w3.org/1999/xlink" x="0px" y="0px"
	 viewBox="0 0 72 72" enable-background="new 0 0 72 72" xml:space="preserve">
<g id="_x21AA__xFE0F__1_">
	<path d="M12.8,34.8c0,14.6,7.8,22.9,21.3,22.9h12.7L45,59.3c-0.4,0.4-0.6,0.9-0.6,1.4s0.2,1,0.5,1.4l2,2.2c0.4,0.4,0.9,0.6,1.5,0.6
		c0.5,0,1-0.2,1.4-0.5l9.8-9c0.4-0.4,0.6-0.9,0.6-1.5s-0.2-1.1-0.6-1.5l-9.8-9c-0.4-0.4-0.9-0.5-1.4-0.5c-0.5,0-1,0.3-1.4,0.6
		l-2,2.2c-0.7,0.8-0.7,2.1,0.1,2.8l1.8,1.6H34.1c-9.5,0-13.9-4.9-13.9-15.5c0-11,4.8-16.5,14.1-16.5h15.9c1.1,0,2-0.9,2-2v-3.4
		c0-1.1-0.9-2-2-2H34.3C20.8,10.8,12.8,19.8,12.8,34.8z M14.8,34.8c0-13.9,7.1-21.9,19.6-21.9h15.9v3.4H34.3
		c-7.4,0-16.1,3.2-16.1,18.5c0,11.6,5.3,17.5,15.9,17.5h17.8l-5.5-5.1l2-2.2l9.8,9l-9.8,9l-2-2.2l5.5-5.1H34.1
		C21.6,55.7,14.8,48.3,14.8,34.8z"/>
	<path fill="#3F3F3F" d="M34.3,12.8h15.9v3.4H34.3c-7.4,0-16.1,3.2-16.1,18.5c0,11.6,5.3,17.5,15.9,17.5h17.8l-5.5-5.1l2-2.2l9.8,9
		l-9.8,9l-2-2.2l5.5-5.1H34.1c-12.5,0-19.3-7.4-19.3-20.9C14.8,20.8,21.9,12.8,34.3,12.8z"/>
</g>
</svg>
