<?xml version="1.0" encoding="utf-8"?>
<!-- Generator: Adobe Illustrator 21.1.0, SVG Export Plug-In . SVG Version: 6.00 Build 0)  -->
<svg version="1.1" id="emoji" xmlns="http://www.w3.org/2000/svg" xmlns:xlink="http://www.w3.org/1999/xlink" x="0px" y="0px"
	 viewBox="0 0 72 72" enable-background="new 0 0 72 72" xml:space="preserve">
<g id="_x23F0__1_">
	<path fill="none" stroke="#1D1D1B" stroke-width="2" stroke-linecap="round" stroke-linejoin="round" stroke-miterlimit="10" d="
		M36,12.6"/>
	<path fill="none" stroke="#1D1D1B" stroke-width="2" stroke-linecap="round" stroke-linejoin="round" stroke-miterlimit="10" d="
		M36,19.1"/>
	<path fill="none" stroke="#1D1D1B" stroke-width="2" stroke-linecap="round" stroke-linejoin="round" stroke-miterlimit="10" d="
		M36,19.2"/>
	<path fill="none" stroke="#1D1D1B" stroke-width="2" stroke-linecap="round" stroke-linejoin="round" stroke-miterlimit="10" d="
		M36,12.8"/>
	<g>
		
			<line fill="#FFFFFF" stroke="#000000" stroke-width="2" stroke-linecap="round" stroke-linejoin="round" stroke-miterlimit="10" x1="50.3" y1="55" x2="53.1" y2="59.9"/>
		
			<line fill="#FFFFFF" stroke="#000000" stroke-width="2" stroke-linecap="round" stroke-linejoin="round" stroke-miterlimit="10" x1="21.7" y1="55" x2="18.9" y2="59.9"/>
	</g>
	<path fill="#CFCFCE" stroke="#CFCFCE" stroke-width="2" stroke-miterlimit="10" d="M36,19"/>
	<path fill="#CFCFCE" stroke="#CFCFCE" stroke-width="2" stroke-miterlimit="10" d="M36,19"/>
	<g>
		<path fill="#CFCFCE" d="M46.2,14.8c2.3-4.6,4.3-4.1,6.2-4.3c1.3-0.2,6.5,3.2,6.5,6.6s-2.2,4.7-3.6,5.5"/>
		<path fill="none" stroke="#000000" stroke-width="2" stroke-linecap="round" stroke-linejoin="round" stroke-miterlimit="10" d="
			M48.8,12.6c1-0.9,2.2-1.4,3.6-1.4c3,0,5.5,2.5,5.5,5.5c0,1.1-0.3,2.1-0.9,3"/>
		<path fill="#CFCFCE" d="M25.8,14.8c-2.3-4.6-4.3-4.1-6.2-4.3c-1.3-0.2-6.5,3.2-6.5,6.6s2.2,4.7,3.6,5.5"/>
		<path fill="none" stroke="#000000" stroke-width="2" stroke-linecap="round" stroke-linejoin="round" stroke-miterlimit="10" d="
			M23.2,12.6c-1-0.9-2.2-1.4-3.6-1.4c-3,0-5.5,2.5-5.5,5.5c0,1.1,0.3,2.1,0.9,3"/>
	</g>
	
		<circle fill="#FFFFFF" stroke="#000000" stroke-width="2" stroke-linecap="round" stroke-linejoin="round" stroke-miterlimit="10" cx="36" cy="36.3" r="23"/>
	<g>
		
			<line fill="#FFFFFF" stroke="#000000" stroke-width="2" stroke-linecap="round" stroke-linejoin="round" stroke-miterlimit="10" x1="36" y1="19" x2="36" y2="36"/>
		
			<line fill="#FFFFFF" stroke="#000000" stroke-width="2.0785" stroke-linecap="round" stroke-linejoin="round" stroke-miterlimit="10" x1="36" y1="35.9" x2="30" y2="46.3"/>
	</g>
</g>
</svg>
