<?xml version="1.0" encoding="utf-8"?>
<!-- Generator: Adobe Illustrator 21.1.0, SVG Export Plug-In . SVG Version: 6.00 Build 0)  -->
<svg version="1.1" id="emoji" xmlns="http://www.w3.org/2000/svg" xmlns:xlink="http://www.w3.org/1999/xlink" x="0px" y="0px"
	 viewBox="0 0 72 72" enable-background="new 0 0 72 72" xml:space="preserve">
<g id="_x23F1__xFE0F_">
	
		<polyline fill="#CFCFCE" stroke="#CFCFCE" stroke-width="2" stroke-linecap="round" stroke-linejoin="round" stroke-miterlimit="10" points="
		53.8,19.7 58.3,16.2 61.4,20.1 57.1,23.4 	"/>
	<rect x="31.3" y="7" fill="#CFCFCE" width="11" height="6.3"/>
	
		<circle fill="#FFFFFF" stroke="#000000" stroke-width="2" stroke-linecap="round" stroke-linejoin="round" stroke-miterlimit="10" cx="36.8" cy="36.3" r="23"/>
	<path fill="none" stroke="#1D1D1B" stroke-width="2" stroke-linecap="round" stroke-linejoin="round" stroke-miterlimit="10" d="
		M57.4,22.4"/>
	<path fill="none" stroke="#1D1D1B" stroke-width="2" stroke-linecap="round" stroke-linejoin="round" stroke-miterlimit="10" d="
		M58,22"/>
	<path fill="none" stroke="#1D1D1B" stroke-width="2" stroke-linecap="round" stroke-linejoin="round" stroke-miterlimit="10" d="
		M58.6,21.6"/>
	
		<polyline fill="none" stroke="#000000" stroke-width="2" stroke-linecap="round" stroke-linejoin="round" stroke-miterlimit="10" points="
		56.4,17.7 58.3,16.2 61.4,20.1 59.6,21.6 	"/>
	<path fill="none" stroke="#1D1D1B" stroke-width="2" stroke-linecap="round" stroke-linejoin="round" stroke-miterlimit="10" d="
		M54.7,18.3"/>
	
		<polyline fill="none" stroke="#000000" stroke-width="2" stroke-linecap="round" stroke-linejoin="round" stroke-miterlimit="10" points="
		32.3,9.7 32.3,7 41.3,7 41.3,9.9 	"/>
	<circle cx="36.3" cy="17" r="1"/>
	<circle cx="36.3" cy="55" r="1"/>
	<ellipse transform="matrix(0.7071 -0.7071 0.7071 0.7071 -1.3619 41.8177)" cx="49.8" cy="22.6" rx="1" ry="1"/>
	<ellipse transform="matrix(0.7071 -0.7071 0.7071 0.7071 -28.2619 30.6754)" cx="22.9" cy="49.5" rx="1" ry="1"/>
	<circle cx="55.4" cy="36" r="1"/>
	<circle cx="17.3" cy="36" r="1"/>
	
		<line stroke="#1D1D1B" stroke-width="2" stroke-linecap="round" stroke-linejoin="round" stroke-miterlimit="10" x1="36.8" y1="35.9" x2="21.4" y2="35.9"/>
	
		<line stroke="#1D1D1B" stroke-width="2" stroke-linecap="round" stroke-linejoin="round" stroke-miterlimit="10" x1="36.9" y1="35.9" x2="26" y2="46.8"/>
	
		<path fill="#FFFFFF" stroke="#1D1D1B" stroke-width="2" stroke-linecap="round" stroke-linejoin="round" stroke-miterlimit="10" d="
		M25.3,46.5"/>
	<ellipse transform="matrix(0.7071 -0.7071 0.7071 0.7071 -20.3831 49.6965)" cx="49.8" cy="49.5" rx="1" ry="1"/>
	<ellipse transform="matrix(0.7071 -0.7071 0.7071 0.7071 -9.2407 22.7965)" cx="22.9" cy="22.6" rx="1" ry="1"/>
	<path fill="none" stroke="#1D1D1B" stroke-width="2" stroke-linecap="round" stroke-linejoin="round" stroke-miterlimit="10" d="
		M57.4,22.4"/>
	<path fill="none" stroke="#1D1D1B" stroke-width="2" stroke-linecap="round" stroke-linejoin="round" stroke-miterlimit="10" d="
		M58,22"/>
	<path fill="none" stroke="#1D1D1B" stroke-width="2" stroke-linecap="round" stroke-linejoin="round" stroke-miterlimit="10" d="
		M58.6,21.6"/>
	<path fill="none" stroke="#1D1D1B" stroke-width="2" stroke-linecap="round" stroke-linejoin="round" stroke-miterlimit="10" d="
		M54.7,18.3"/>
	<path fill="none" stroke="#1D1D1B" stroke-width="2" stroke-linecap="round" stroke-linejoin="round" stroke-miterlimit="10" d="
		M57.4,22.4"/>
	<path fill="none" stroke="#1D1D1B" stroke-width="2" stroke-linecap="round" stroke-linejoin="round" stroke-miterlimit="10" d="
		M58.6,21.6"/>
	<path fill="none" stroke="#1D1D1B" stroke-width="2" stroke-linecap="round" stroke-linejoin="round" stroke-miterlimit="10" d="
		M54.7,18.3"/>
</g>
</svg>
