<?xml version="1.0" encoding="utf-8"?>
<!-- Generator: Adobe Illustrator 19.1.0, SVG Export Plug-In . SVG Version: 6.00 Build 0)  -->
<svg version="1.1" id="emoji" xmlns="http://www.w3.org/2000/svg" xmlns:xlink="http://www.w3.org/1999/xlink" x="0px" y="0px"
	 viewBox="0 0 72 72" enable-background="new 0 0 72 72" xml:space="preserve">
<g id="_x23F9__xFE0F__1_">
	<g>
		<path fill="#1D1D1B" d="M49.3,18c2.6,0,4.7,2.1,4.7,4.7v26.5c0,2.6-2.1,4.7-4.7,4.7H22.7c-2.6,0-4.7-2.1-4.7-4.7V22.7
			c0-2.6,2.1-4.7,4.7-4.7H49.3 M49.3,16H22.7C19,16,16,19,16,22.7v26.5c0,3.7,3,6.7,6.7,6.7h26.5c3.7,0,6.7-3,6.7-6.7V22.7
			C56,19,53,16,49.3,16L49.3,16z"/>
	</g>
</g>
</svg>
