<svg id="emoji" viewBox="0 0 72 72" xmlns="http://www.w3.org/2000/svg">
  <g id="color">
    <rect x="17.8848" y="17.7841" rx="5.0389" ry="5.0389" width="36.4415" height="36.4415" fill="#fff"/>
  </g>
  <g id="line">
    <path d="m49.2614,18c2.6129,0,4.7386,2.1257,4.7386,4.7386v26.5229c0,2.6128-2.1257,4.7385-4.7386,4.7385h-26.5228c-2.6129,0-4.7386-2.1257-4.7386-4.7386v-26.5228c0-2.6129,2.1257-4.7386,4.7386-4.7386h26.5228m0-2h-26.5228c-3.7216,0-6.7386,3.017-6.7386,6.7386v26.5229c0,3.7215,3.017,6.7385,6.7386,6.7385h26.5229c3.7215,0,6.7385-3.017,6.7385-6.7386v-26.5228c0-3.7216-3.017-6.7386-6.7386-6.7386h0Z"/>
  </g>
</svg>
