<svg id="emoji" viewBox="0 0 72 72" xmlns="http://www.w3.org/2000/svg">
  <g id="color">
    <path fill="#fff" d="m20.0838,54.8805c.4669.1716.9922.286,1.5175.286.8171,0,1.6342-.286,2.3345-.7436l28.8896-15.3878.2918-.286c.7587-.7436,1.1672-1.6589,1.1672-2.6886s-.4085-2.0021-1.1672-2.6886l-.2918-.286-28.8896-15.5023c-1.0505-.8008-2.568-.9724-3.8519-.4576-1.4591.572-2.3928,2.0021-2.3928,3.5467v30.6612c0,1.5445.9337,2.9746,2.3928,3.5466Z"/>
  </g>
  <g id="line">
    <path fill="none" stroke="#000" stroke-linejoin="round" stroke-width="2" d="m19.5816,55.6062c.4848.1782,1.0303.297,1.5758.297.8485,0,1.697-.297,2.4242-.7722l30-15.9793.303-.297c.7879-.7722,1.2121-1.7227,1.2121-2.7919s-.4242-2.0791-1.2121-2.7919l-.303-.297-30-16.0981c-1.0909-.8316-2.6667-1.0098-4-.4752-1.5152.594-2.4848,2.0791-2.4848,3.683v31.8397c0,1.6039.9696,3.0889,2.4848,3.6829Z"/>
  </g>
</svg>
