<svg id="emoji" viewBox="0 0 72 72" xmlns="http://www.w3.org/2000/svg">
  <g id="color">
    <path fill="#fff" d="m36.7946,44.5356V8.9226c7.4261,0,13.7534,3.0274,19.0044,8.2784,5.251,5.251,7.6176,11.6901,7.6176,19.1162s-2.6864,13.5741-7.9374,18.8251-10.9775,8.0077-18.4036,8.0077l-.281-18.6143Z"/>
    <path fill="#3f3f3f" d="m37,44.2857l-1.8532-35.3021c-7.9565,0-13.6584,3.1402-19.2845,8.5788s-8.3703,14.6227-6.8135,22.5479c1.5453,7.8672,3.9269,11.6304,9.553,17.069,6.6731,4.8468,10.4418,6.0409,18.3983,6.0409v-18.9345Z"/>
  </g>
  <g id="line">
    <path fill="none" stroke="#000" stroke-linejoin="round" stroke-width="2" d="m36,64c15.464,0,28-12.536,28-28s-12.536-28-28-28-28,12.536-28,28,12.536,28,28,28Z"/>
    <path fill="none" stroke="#000" stroke-linecap="round" stroke-width="2" d="m36,8v53"/>
  </g>
</svg>
