<?xml version="1.0" encoding="utf-8"?>
<!-- Generator: Adobe Illustrator 21.1.0, SVG Export Plug-In . SVG Version: 6.00 Build 0)  -->
<svg version="1.1" id="emoji" xmlns="http://www.w3.org/2000/svg" xmlns:xlink="http://www.w3.org/1999/xlink" x="0px" y="0px"
	 viewBox="0 0 72 72" enable-background="new 0 0 72 72" xml:space="preserve">
<g id="_x2602__xFE0F__1_">
	<g>
		<path fill="#B399C8" d="M47,37c5.6-3,11.1-0.9,12.9-0.1c0.3,0.1,0.7,0.1,1-0.1c2.1-1.6,5.5,0,6.7,0.6c0.2,0.1,0.5-0.1,0.5-0.3
			C68,18.9,52.7,6.4,35.5,6.4C18.1,6.4,4,20.2,4,37.2c0,0,3.9-2.4,6.5-0.4c0.3,0.2,0.6,0.2,0.9,0.1c1.7-0.8,7.3-2.9,12.9,0.1
			c0.2,0.1,0.5,0.1,0.7,0.1c2-0.6,12.2-3.4,21.2,0C46.4,37.1,46.7,37.1,47,37z"/>
	</g>
	<g>
		<path fill="#8967AA" d="M60.3,37c0,0-4-30.5-24.8-30.6c0,0,7.5,3,11.5,30.6c0,0,11.1-0.9,12.3-0.3C60.1,37.1,60.3,37,60.3,37z"/>
	</g>
	<g>
		<path fill="#8967AA" d="M68,37c0,0,1.7-27.2-32.5-30.6c0,0,21.1,1,25.3,30.4c0,0,5.2-0.3,6.4,0.4C68,37.7,68,37,68,37z"/>
	</g>
	<g>
		<g>
			<path fill="none" stroke="#000000" stroke-width="2" stroke-linecap="round" stroke-linejoin="round" stroke-miterlimit="10" d="
				M66.7,32.5C64.4,17.6,51.3,6.4,35.5,6.4C18.1,6.4,4,20.2,4,37.2c0,0,3.9-2.4,6.5-0.4c0.3,0.2,0.6,0.2,0.9,0.1
				c1.7-0.8,7.3-2.9,12.9,0.1c0.2,0.1,0.5,0.1,0.7,0.1c2-0.6,12.2-3.4,21.2,0c0.3,0.1,0.5,0.1,0.8-0.1c5.6-3,11.2-0.9,12.9-0.1
				c0.3,0.1,0.7,0.1,1-0.1c2.6-2,6.2,0.2,6.2,0.2"/>
		</g>
		<path fill="none" stroke="#000000" stroke-width="2" stroke-linecap="round" stroke-linejoin="round" stroke-miterlimit="10" d="
			M45.4,62.5c0,3-2.2,5.5-4.9,5.5c-2.7,0-4.9-2.4-4.9-5.5V35.4"/>
		
			<line fill="none" stroke="#000000" stroke-width="2" stroke-linecap="round" stroke-linejoin="round" stroke-miterlimit="10" x1="35.5" y1="6.4" x2="35.5" y2="4"/>
		<path fill="none" stroke="#000000" stroke-width="2" stroke-linecap="round" stroke-linejoin="round" stroke-miterlimit="10" d="
			M10.9,37C16.6,4.7,35.5,6.4,35.5,6.4s-9.6,0.9-10.8,30.7"/>
		<path fill="none" stroke="#000000" stroke-width="2" stroke-linecap="round" stroke-linejoin="round" stroke-miterlimit="10" d="
			M60.3,37C54.7,4.7,35.5,6.4,35.5,6.4s9.8,0.9,11.1,30.7"/>
	</g>
</g>
</svg>
