<?xml version="1.0" encoding="utf-8"?>
<!-- Generator: Adobe Illustrator 22.0.1, SVG Export Plug-In . SVG Version: 6.00 Build 0)  -->
<svg version="1.1" id="emoji" xmlns="http://www.w3.org/2000/svg" xmlns:xlink="http://www.w3.org/1999/xlink" x="0px" y="0px"
	 viewBox="0 0 72 72" enable-background="new 0 0 72 72" xml:space="preserve">
<g id="_x260E__xFE0F__3_">
	<g id="_x260E__xFE0F__1_">
		<g>
			<path fill="#E95A47" d="M62.3,16.5c-8-6-44-6-52,0c0,0-4,4-2,10h13v-5c6-4,24-4,30,0v5h13C66.3,20.5,62.3,16.5,62.3,16.5z"/>
		</g>
		<polygon fill="#D22F29" points="51,21.1 64.8,21.1 64.4,26.1 51.9,26 		"/>
		<polygon fill="#D22F29" points="7.1,21.1 21,21.1 20.6,26.1 8.1,26 		"/>
	</g>
	<polygon fill="#E95A47" points="24.9,29.3 19,33 15.2,41.3 14.9,52.3 15,56 57,56 56.7,40.6 53,33 46.9,29 46,27.6 25.7,28.6 	"/>
	<polygon fill="#D22F29" points="26.8,25 26,29 26,30 46.1,30 45.3,24.5 43.2,24.2 41.7,26.4 30.1,26.5 28.8,24.4 26.7,24.6 	"/>
	<path fill="#D22F29" d="M39.3,29.8c0,0,12.9,4.4,12.7,25.9c6.4,2.1,5.5-6.5,5.5-6.5l-2.6-13.4l-5.8-6.2L39.3,29.8z"/>
	<circle cx="30" cy="35" r="2"/>
	<circle cx="30" cy="41" r="2"/>
	<circle cx="30" cy="47" r="2"/>
	<circle cx="36" cy="35" r="2"/>
	<circle cx="36" cy="41" r="2"/>
	<circle cx="36" cy="47" r="2"/>
	<circle cx="42" cy="35" r="2"/>
	<circle cx="42" cy="41" r="2"/>
	<circle cx="42" cy="47" r="2"/>
	<path fill="none" stroke="#000000" stroke-width="2" stroke-linecap="round" stroke-linejoin="round" stroke-miterlimit="10" d="
		M26,24v5c0,0-3.5,0.5-7,4s-4,10-4,10v13l3,0h36l3,0V43.1c0,0-0.5-6.6-4-10.1s-7-4-7-4v-5h-3l-1,3H29.8L29,24H26z"/>
	<g id="_x260E__xFE0F__2_">
		<g>
			<path fill="none" stroke="#010103" stroke-width="2" stroke-linecap="round" stroke-linejoin="round" stroke-miterlimit="10" d="
				M62,16.5c-8-6-44-6-52,0c0,0-4,4-2,10h13v-5c6-4,24-4,30,0v5h13C66,20.5,62,16.5,62,16.5z"/>
		</g>
	</g>
</g>
</svg>
