<?xml version="1.0" encoding="utf-8"?>
<!-- Generator: Adobe Illustrator 21.1.0, SVG Export Plug-In . SVG Version: 6.00 Build 0)  -->
<svg version="1.1" id="emoji" xmlns="http://www.w3.org/2000/svg" xmlns:xlink="http://www.w3.org/1999/xlink" x="0px" y="0px"
	 viewBox="0 0 72 72" enable-background="new 0 0 72 72" xml:space="preserve">
<g id="_x2614__xFE0F_">
	<g>
		<g>
			<path fill="#B399C8" d="M64.1,50.6c-1.9-12.3-12.8-21.7-25.9-21.7c-14.5,0-26.2,11.5-26.2,25.7c0,0,3.2-2,5.4-0.3
				c0.2,0.2,0.5,0.2,0.8,0.1c1.4-0.7,6.1-2.4,10.7,0.1c0.2,0.1,0.4,0.1,0.6,0.1c1.7-0.5,10.1-2.9,17.6,0c0.2,0.1,0.4,0.1,0.7,0
				c4.7-2.5,9.3-0.7,10.7-0.1c0.3,0.1,0.6,0.1,0.8-0.1c2.1-1.7,5.2,0.2,5.2,0.2"/>
		</g>
		<path fill="#8967AA" d="M38.2,28.9c0,0,17.9,0.2,20.2,25.4c0,0-5.7-2.9-11,0.1C47.4,54.5,47.6,33.4,38.2,28.9z"/>
		<path fill="#8967AA" d="M44.5,30.2c7.9,2.3,20.9,8.8,20.9,24.2c0,0.3-0.2,0.5-0.5,0.4c-1.1-0.3-3.9-1.4-6.1-0.9
			c-2.4,0.6-0.3-16.1-14.6-23C43.8,30.7,44,30.1,44.5,30.2z"/>
	</g>
	<g>
		<g>
			<g>
				<g>
					<path fill="#92D3F5" d="M64.1,25.5c0,2.9-2.2,5.3-5,5.3s-5-2.4-5-5.3c0,0-0.1-3.6,4.2-10c0,0,0.8-1.3,1.6-0.1
						C64.1,21.9,64.1,25.5,64.1,25.5"/>
				</g>
				<g>
					<path fill="#61B2E4" d="M58.8,15.3c3.1,2.3,5,10,5,10c0,3.8-2,5.5-4.7,5.5C59.1,30.9,62.8,25.6,58.8,15.3"/>
				</g>
				<path fill="#8FCFF1" d="M59.1,25.5"/>
			</g>
			<path fill="none" stroke="#000000" stroke-width="2" stroke-linecap="round" stroke-linejoin="round" stroke-miterlimit="10" d="
				M64.1,25.5c0,2.9-2.2,5.3-5,5.3s-5-2.4-5-5.3c0,0-0.1-3.6,4.2-10c0,0,0.8-1.3,1.6-0.1C64.1,21.9,64.1,25.5,64.1,25.5"/>
			<path fill="none" stroke="#0B0B0B" stroke-width="0.1" stroke-miterlimit="10" d="M59.1,25.5"/>
		</g>
		<g>
			<g>
				<g>
					<path fill="#92D3F5" d="M33.2,13.2c0,2.9-2.2,5.3-5,5.3s-5-2.4-5-5.3c0,0-0.1-3.6,4.2-10c0,0,0.8-1.3,1.6-0.1
						C33.1,9.6,33.2,13.2,33.2,13.2"/>
				</g>
				<g>
					<path fill="#61B2E4" d="M27.9,3c3.1,2.3,5,10,5,10c0,3.8-2,5.5-4.7,5.5C28.2,18.6,31.9,13.3,27.9,3"/>
				</g>
				<path fill="#8FCFF1" d="M28.2,13.2"/>
			</g>
			<path fill="none" stroke="#000000" stroke-width="2" stroke-linecap="round" stroke-linejoin="round" stroke-miterlimit="10" d="
				M33.2,13.2c0,2.9-2.2,5.3-5,5.3s-5-2.4-5-5.3c0,0-0.1-3.6,4.2-10c0,0,0.8-1.3,1.6-0.1C33.1,9.6,33.2,13.2,33.2,13.2"/>
			<path fill="none" stroke="#0B0B0B" stroke-width="0.1" stroke-miterlimit="10" d="M28.2,13.2"/>
		</g>
		<g>
			<g>
				<g>
					<path fill="#92D3F5" d="M16.6,25.2c0,2.9-2.2,5.3-5,5.3s-5-2.4-5-5.3c0,0-0.1-3.6,4.2-10c0,0,0.8-1.3,1.6-0.1
						C16.6,21.6,16.6,25.2,16.6,25.2"/>
				</g>
				<g>
					<path fill="#61B2E4" d="M11.3,15c3.1,2.3,5,10,5,10c0,3.8-2,5.5-4.7,5.5C11.6,30.6,15.4,25.3,11.3,15"/>
				</g>
				<path fill="#8FCFF1" d="M11.6,25.2"/>
			</g>
			<path fill="none" stroke="#000000" stroke-width="2" stroke-linecap="round" stroke-linejoin="round" stroke-miterlimit="10" d="
				M16.6,25.2c0,2.9-2.2,5.3-5,5.3s-5-2.4-5-5.3c0,0-0.1-3.6,4.2-10c0,0,0.8-1.3,1.6-0.1C16.6,21.6,16.6,25.2,16.6,25.2"/>
			<path fill="none" stroke="#0B0B0B" stroke-width="0.1" stroke-miterlimit="10" d="M11.6,25.2"/>
		</g>
	</g>
	
		<line fill="none" stroke="#000000" stroke-width="2" stroke-linecap="round" stroke-linejoin="round" stroke-miterlimit="10" x1="38.2" y1="69.4" x2="38.2" y2="53.1"/>
	<path fill="none" stroke="#000000" stroke-width="2" stroke-linecap="round" stroke-linejoin="round" stroke-miterlimit="10" d="
		M17.7,54.4c4.7-26.9,20.5-25.5,20.5-25.5s-8,0.8-9,25.6"/>
	<path fill="none" stroke="#000000" stroke-width="2" stroke-linecap="round" stroke-linejoin="round" stroke-miterlimit="10" d="
		M58.8,54.4c-4.7-26.9-20.7-25.5-20.7-25.5s8.2,0.8,9.2,25.6"/>
	<g>
		<path fill="none" stroke="#000000" stroke-width="2" stroke-linecap="round" stroke-linejoin="round" stroke-miterlimit="10" d="
			M64,49.9c-2.2-12-12.9-21-25.8-21c-14.5,0-26.2,11.5-26.2,25.7c0,0,3.2-2,5.4-0.3c0.2,0.2,0.5,0.2,0.8,0.1
			c1.4-0.7,6.1-2.4,10.7,0.1c0.2,0.1,0.4,0.1,0.6,0.1c1.7-0.5,10.1-2.9,17.6,0c0.2,0.1,0.4,0.1,0.7,0c4.7-2.5,9.3-0.7,10.7-0.1
			c0.3,0.1,0.6,0.1,0.8-0.1c2.1-1.7,5.2,0.2,5.2,0.2"/>
	</g>
	
		<line fill="none" stroke="#000000" stroke-width="2" stroke-linecap="round" stroke-linejoin="round" stroke-miterlimit="10" x1="38.2" y1="28.9" x2="38.2" y2="26.9"/>
</g>
</svg>
