<?xml version="1.0" encoding="utf-8"?>
<!-- Generator: Adobe Illustrator 21.1.0, SVG Export Plug-In . SVG Version: 6.00 Build 0)  -->
<svg version="1.1" id="Ebene_3" xmlns="http://www.w3.org/2000/svg" xmlns:xlink="http://www.w3.org/1999/xlink" x="0px" y="0px"
	 viewBox="0 0 72 72" enable-background="new 0 0 72 72" xml:space="preserve">
<g id="_x2615__xFE0F__2_">
	<polygon fill="#FFFFFF" points="60.5,32.5 4.5,32.5 3.5,24.5 61.5,24.5 	"/>
	<g id="_x2615__xFE0F__1_">
		
			<path fill="none" stroke="#000000" stroke-width="2.051" stroke-linecap="round" stroke-linejoin="round" stroke-miterlimit="10" d="
			M61.2,30.9"/>
		<path fill="none" stroke="#000000" stroke-width="2" stroke-linecap="round" stroke-linejoin="round" stroke-miterlimit="10" d="
			M61.4,28.6c4,1.7,6.8,5.6,6.8,10.3c0,6.1-5,11.1-11.1,11.1c-1.1,0-2.1-0.1-3.1-0.4"/>
		<path fill="#6A462F" d="M4.3,32.2c1.5,10.3,6,18.8,13.8,23.4h29.1C55,51,59.5,42.6,61,32.2H4.3z"/>
		<path fill="#A57939" d="M49.2,32.2H4.3c1.5,10.3,6,18.8,13.8,23.4h13.1C40.8,50.7,46.8,38.2,49.2,32.2z"/>
		<path fill="none" stroke="#000000" stroke-width="2" stroke-linecap="round" stroke-linejoin="round" stroke-miterlimit="10" d="
			M28.6,24h33c0,14-4.6,25.8-14.4,31.7H18.1C8.4,49.8,3.7,38,3.7,24h14H28.6z"/>
	</g>
</g>
</svg>
