<?xml version="1.0" encoding="utf-8"?>
<!-- Generator: Adobe Illustrator 19.1.0, SVG Export Plug-In . SVG Version: 6.00 Build 0)  -->
<svg version="1.1" id="emoji" xmlns="http://www.w3.org/2000/svg" xmlns:xlink="http://www.w3.org/1999/xlink" x="0px" y="0px"
	 viewBox="0 0 72 72" enable-background="new 0 0 72 72" xml:space="preserve">
<g id="_x2618__xFE0F_">
	<g>
		<path fill="#5C9E31" d="M35.8,38.9c0.8-0.9,2.1-0.9,2.9,0l5.1,5.5c2,2.2,4.5,3.2,6.9,1.8c2.3-1.4,3-4.5,1.7-6.9l-0.8-1.3l-0.4-0.7
			l2-1.1c2.4-1.4,3.4-4.6,2-7c-1.4-2.3-4.1-2.4-6.8-1.8l-1.5,0.4c-1.6,0.5-3-1.1-2.4-2.6l0.8-2.1c0.4-1.1,0.9-2.1,1.3-3.1
			c0.9-2.1,1.1-4.2-0.5-5.8c-2-2-5.3-1.9-7.3,0.1l-1.6,1.6l-0.6-0.6l-1-1c-2-2-5.4-2.1-7.3-0.1c-1.6,1.6-1.4,3.7-0.5,5.8
			c0.5,1,0.9,2.1,1.3,3.2l0.8,2c0.6,1.6-0.8,3.1-2.4,2.6l-1.3-0.4c-2.7-0.7-5.4-0.6-6.8,1.8c-1.4,2.4-0.4,5.6,2,7l2,1.1l-0.4,0.7
			l-0.8,1.3c-1.4,2.4-0.7,5.5,1.7,6.9c2.4,1.5,4.9,0.5,6.9-1.8L35.8,38.9z"/>
	</g>
	<g>
		<path fill="none" stroke="#000000" stroke-width="2" stroke-linecap="round" stroke-linejoin="round" stroke-miterlimit="10" d="
			M35.8,38.9c0.8-0.9,2.1-0.9,2.9,0l5.1,5.5c2,2.2,4.5,3.2,6.9,1.8c2.3-1.4,3-4.5,1.7-6.9L51.6,38l-0.4-0.7l2-1.1
			c2.4-1.4,3.4-4.6,2-7c-1.4-2.3-4.1-2.4-6.8-1.8l-1.5,0.4c-1.6,0.5-3-1.1-2.4-2.6l0.8-2.1C45.6,22,46,21,46.5,20
			c0.9-2.1,1.1-4.2-0.5-5.8c-2-2-5.3-1.9-7.3,0.1l-1.6,1.6l-0.6-0.6l-1-1c-2-2-5.4-2.1-7.3-0.1c-1.6,1.6-1.4,3.7-0.5,5.8
			c0.5,1,0.9,2.1,1.3,3.2l0.8,2c0.6,1.6-0.8,3.1-2.4,2.6l-1.3-0.4c-2.7-0.7-5.4-0.6-6.8,1.8c-1.4,2.4-0.4,5.6,2,7l2,1.1L22.9,38
			l-0.8,1.3c-1.4,2.4-0.7,5.5,1.7,6.9c2.4,1.5,4.9,0.5,6.9-1.8L35.8,38.9z"/>
	</g>
	<path fill="none" stroke="#000000" stroke-width="2" stroke-linecap="round" stroke-linejoin="round" d="M37.1,44.1
		c-3.4,3.5-7.7,10.2-5.8,20.7"/>
</g>
</svg>
