<svg id="emoji" xmlns="http://www.w3.org/2000/svg" viewBox="0 0 72 72">
  <g id="color">
    <circle cx="35.6649" cy="38.623" r="5.2495" fill="#f4aa41"/>
    <path d="M15.2068,50.4344a23.5562,23.5562,0,0,0,5.5781,6.5366l9.24-11.1a9.1461,9.1461,0,0,1-3.457-5.9876l-14.2329,2.452A23.5538,23.5538,0,0,0,15.2068,50.4344Z" fill="#f4aa41"/>
    <path d="M56.1229,50.4344a23.5561,23.5561,0,0,0,2.8718-8.0991l-14.2329-2.452a9.1472,9.1472,0,0,1-3.457,5.9876l9.24,11.1A23.5562,23.5562,0,0,0,56.1229,50.4344Z" fill="#f4aa41"/>
    <path d="M35.6649,15a23.5552,23.5552,0,0,0-8.45,1.5626l4.9929,13.5521a9.1471,9.1471,0,0,1,6.9139,0l4.9929-13.5521A23.5546,23.5546,0,0,0,35.6649,15Z" fill="#f4aa41"/>
  </g>
  <g id="line">
    <circle cx="35.6649" cy="38.623" r="5.2495" fill="none" stroke="#000" stroke-miterlimit="10" stroke-width="2"/>
    <path d="M15.2068,50.4344a23.5562,23.5562,0,0,0,5.5781,6.5366l9.24-11.1a9.1461,9.1461,0,0,1-3.457-5.9876l-14.2329,2.452A23.5538,23.5538,0,0,0,15.2068,50.4344Z" fill="none" stroke="#000" stroke-miterlimit="10" stroke-width="2"/>
    <path d="M56.1229,50.4344a23.5561,23.5561,0,0,0,2.8718-8.0991l-14.2329-2.452a9.1472,9.1472,0,0,1-3.457,5.9876l9.24,11.1A23.5562,23.5562,0,0,0,56.1229,50.4344Z" fill="none" stroke="#000" stroke-miterlimit="10" stroke-width="2"/>
    <path d="M35.6649,15a23.5552,23.5552,0,0,0-8.45,1.5626l4.9929,13.5521a9.1471,9.1471,0,0,1,6.9139,0l4.9929-13.5521A23.5546,23.5546,0,0,0,35.6649,15Z" fill="none" stroke="#000" stroke-miterlimit="10" stroke-width="2"/>
  </g>
</svg>
