<?xml version="1.0" encoding="utf-8"?>
<!-- Generator: Adobe Illustrator 21.1.0, SVG Export Plug-In . SVG Version: 6.00 Build 0)  -->
<svg version="1.1" id="emoji" xmlns="http://www.w3.org/2000/svg" xmlns:xlink="http://www.w3.org/1999/xlink" x="0px" y="0px"
	 viewBox="0 0 72 72" enable-background="new 0 0 72 72" xml:space="preserve">
<g id="_x262A__xFE0F_">
	
		<path fill="#B399C8" stroke="#1D1D1B" stroke-width="2" stroke-linecap="round" stroke-linejoin="round" stroke-miterlimit="10" d="
		M45,57c2,0,3.9-0.3,5.7-0.8c-4.1,3-9.2,4.8-14.7,4.8c-13.8,0-25-11.2-25-25s11.2-25,25-25c5.5,0,10.6,1.8,14.7,4.8
		C48.9,15.3,47,15,45,15c-11.6,0-21,9.4-21,21C24,47.6,33.4,57,45,57z"/>
	
		<polygon fill="#B399C8" stroke="#1D1D1B" stroke-width="2" stroke-linecap="round" stroke-linejoin="round" stroke-miterlimit="10" points="
		50.7,27.9 53,32.7 58.3,33.5 54.5,37.2 55.4,42.5 50.7,40 45.9,42.5 46.8,37.2 43,33.5 48.3,32.7 	"/>
</g>
</svg>
