<?xml version="1.0" encoding="utf-8"?>
<!-- Generator: Adobe Illustrator 21.1.0, SVG Export Plug-In . SVG Version: 6.00 Build 0)  -->
<svg version="1.1" id="emoji" xmlns="http://www.w3.org/2000/svg" xmlns:xlink="http://www.w3.org/1999/xlink" x="0px" y="0px"
	 viewBox="0 0 72 72" enable-background="new 0 0 72 72" xml:space="preserve">
<g id="_x263A_">
	<g>
		<defs>
			<polygon id="SVGID_1_" points="35.7,9.1 25.8,11 19.7,14.5 14,20.3 10.1,28.8 10.1,43 16.5,53.8 25.8,60.1 35.7,62.1 44,60.7 
				52.9,55.7 58.8,48.6 62.2,38 61.4,28.8 57,19.7 52.1,14.7 43.8,10.3 			"/>
		</defs>
		<use xlink:href="#SVGID_1_"  overflow="visible" fill="#FBEA2C"/>
		<clipPath id="SVGID_2_">
			<use xlink:href="#SVGID_1_"  overflow="visible"/>
		</clipPath>
	</g>
	<path fill="none" stroke="#1F201E" stroke-width="2" stroke-linecap="round" stroke-linejoin="round" stroke-miterlimit="10" d="
		M49.5,46.7"/>
	<path fill="none" stroke="#000000" stroke-width="2" stroke-linecap="round" stroke-linejoin="round" stroke-miterlimit="10" d="
		M42.4,49.4c-1.3,1.5-3.5,2.4-6.7,2.4c-3.1,0-5.3-0.9-6.7-2.4"/>
	<path fill="none" stroke="#000000" stroke-width="2" stroke-linecap="round" stroke-linejoin="round" stroke-miterlimit="10" d="
		M18.8,25.4c0.8-1.6,2.2-2.8,3.9-3.5c1.6-0.8,3.5-1,5.2-0.5"/>
	<path fill="none" stroke="#000000" stroke-width="2" stroke-linecap="round" stroke-linejoin="round" stroke-miterlimit="10" d="
		M52.9,25.4c-1.8-3.2-5.5-4.8-9.1-4"/>
	<path fill="none" stroke="#000000" stroke-width="2" stroke-linecap="round" stroke-linejoin="round" stroke-miterlimit="10" d="
		M21.5,33.5c0,0,4.5-2.5,9.2,0"/>
	<path fill="none" stroke="#000000" stroke-width="2" stroke-linecap="round" stroke-linejoin="round" stroke-miterlimit="10" d="
		M41.4,33.5c0,0,4.5-2.5,9.2,0"/>
	
		<ellipse transform="matrix(2.335999e-03 -1 1 2.335999e-03 0.2874 71.3891)" fill="none" stroke="#000000" stroke-width="2" stroke-linecap="round" stroke-linejoin="round" stroke-miterlimit="10" cx="35.9" cy="35.6" rx="26.5" ry="26.5"/>
</g>
</svg>
