<svg id="emoji" viewBox="0 0 72 72" xmlns="http://www.w3.org/2000/svg">
  <g id="color">
    <ellipse cx="36.1284" cy="25.9796" rx="10.4786" ry="10.2291" fill="#fff"/>
    <path fill="#9b9b9a" d="m51,25.9684c0-8.2843-6.7158-15-15-15s-15,6.7157-15,15c0,7.429,5.4133,13.5966,12.5027,14.7909v7.1515l-1.5027-.0003h-6v5h6l1.5027.0002v8.9998l4.9974.0444v-9.0445h1.4999s6,0,6,0v-5h-6l-1.4999-.0002v-7.1493h-.0007c.0506-.0085.1011-.0172.1515-.0262,7.0199-1.2518,12.3491-7.3867,12.3491-14.7664Zm-15,10c-5.5229,0-10-4.4772-10-10s4.4771-10,10-10,10,4.4771,10,10-4.4772,10-10,10Z"/>
  </g>
  <g id="line">
    <path fill="none" stroke="#000" stroke-linecap="round" stroke-linejoin="round" stroke-width="2" d="m38.5001,40.7611v7.1492l1.4999.0002h6v5h-6l-1.4999-.0002v9.0445l-4.9974-.0443v-8.9998l-1.5027-.0002h-6v-5h6l1.5027.0003v-7.1515c-7.0893-1.1943-12.5027-7.362-12.5027-14.7909,0-8.2843,6.7157-15,15-15s15,6.7157,15,15c0,7.3797-5.3292,13.5147-12.3491,14.7665-.0504.009-.1009.0177-.1515.0262"/>
    <circle cx="36" cy="25.9684" r="10" fill="none" stroke="#000" stroke-linecap="round" stroke-linejoin="round" stroke-width="2"/>
  </g>
</svg>
