<?xml version="1.0" encoding="utf-8"?>
<!-- Generator: Adobe Illustrator 19.1.0, SVG Export Plug-In . SVG Version: 6.00 Build 0)  -->
<svg version="1.1" id="emoji" xmlns="http://www.w3.org/2000/svg" xmlns:xlink="http://www.w3.org/1999/xlink" x="0px" y="0px"
	 viewBox="0 0 72 72" enable-background="new 0 0 72 72" xml:space="preserve">
<g id="_x2640_">
	<path fill="#9B9B9A" d="M51,26c0-8.3-6.7-15-15-15c-8.3,0-15,6.7-15,15c0,7.4,5.4,13.6,12.5,14.8v0.3v6.8l-1.5,0h-6v5h6l1.5,0v9
		l5,0v-9l1.5,0h6v-5h-6l-1.5,0v-7.1h0c0.1,0,0.1,0,0.2,0C45.7,39.5,51,33.3,51,26z M36,36c-5.5,0-10-4.5-10-10c0-5.5,4.5-10,10-10
		c5.5,0,10,4.5,10,10C46,31.5,41.5,36,36,36z"/>
	<g>
		<path fill="none" stroke="#000000" stroke-width="2" stroke-linecap="round" stroke-linejoin="round" stroke-miterlimit="10" d="
			M33.5,52.8"/>
		<path fill="none" stroke="#000000" stroke-width="2" stroke-linecap="round" stroke-linejoin="round" stroke-miterlimit="10" d="
			M33.5,31.8"/>
		<path fill="none" stroke="#000000" stroke-width="2" stroke-linecap="round" stroke-linejoin="round" stroke-miterlimit="10" d="
			M38.5,52.8"/>
		<path fill="none" stroke="#000000" stroke-width="2" stroke-linecap="round" stroke-linejoin="round" stroke-miterlimit="10" d="
			M38.5,31.8"/>
	</g>
	<path fill="none" stroke="#000000" stroke-width="2" stroke-linecap="round" stroke-linejoin="round" stroke-miterlimit="10" d="
		M38.5,40.8v7.1l1.5,0h6v5h-6l-1.5,0v9l-5,0v-9l-1.5,0h-6v-5h6l1.5,0v-6.8v-0.3C26.4,39.6,21,33.4,21,26c0-8.3,6.7-15,15-15
		s15,6.7,15,15c0,7.4-5.3,13.5-12.3,14.8C38.6,40.7,38.6,40.8,38.5,40.8"/>
	<path fill="none" stroke="#000000" stroke-width="2" stroke-linecap="round" stroke-linejoin="round" stroke-miterlimit="10" d="
		M33.5,40.8"/>
	
		<circle fill="none" stroke="#000000" stroke-width="2" stroke-linecap="round" stroke-linejoin="round" stroke-miterlimit="10" cx="36" cy="26" r="10"/>
</g>
</svg>
