<?xml version="1.0" encoding="utf-8"?>
<!-- Generator: Adobe Illustrator 19.1.0, SVG Export Plug-In . SVG Version: 6.00 Build 0)  -->
<svg version="1.1" id="emoji" xmlns="http://www.w3.org/2000/svg" xmlns:xlink="http://www.w3.org/1999/xlink" x="0px" y="0px"
	 viewBox="0 0 72 72" enable-background="new 0 0 72 72" xml:space="preserve">
<g id="_x2642__xFE0F_">
	<path fill="#9B9B9A" d="M40.1,33.1l0.9-0.9l7.5-7.5l1.4-1.3V36l4.9-4.9V14.8H38.6l-4.9,4.9h12.7l-0.1,0.1l-0.5,0.5l-8.4,8.4
		l-0.8,0.8c-5.9-4.2-14-3.6-19.3,1.6c-5.9,5.9-5.9,15.4,0,21.2c5.9,5.9,15.4,5.9,21.2,0C43.7,47.1,44.3,39,40.1,33.1z M20.8,48.9
		c-3.9-3.9-3.9-10.2,0-14.1s10.2-3.9,14.1,0s3.9,10.2,0,14.1S24.7,52.8,20.8,48.9z"/>
	<g>
		<g>
			<g>
				
					<path fill="none" stroke="#000000" stroke-width="2" stroke-linecap="round" stroke-linejoin="round" stroke-miterlimit="10" d="
					M50.1,23.1"/>
				
					<path fill="none" stroke="#000000" stroke-width="2" stroke-linecap="round" stroke-linejoin="round" stroke-miterlimit="10" d="
					M35.2,38"/>
				
					<path fill="none" stroke="#000000" stroke-width="2" stroke-linecap="round" stroke-linejoin="round" stroke-miterlimit="10" d="
					M31.7,34.5"/>
			</g>
			<path fill="none" stroke="#000000" stroke-width="2" stroke-linecap="round" stroke-linejoin="round" stroke-miterlimit="10" d="
				M42.6,17.1"/>
			<path fill="none" stroke="#000000" stroke-width="2" stroke-linecap="round" stroke-linejoin="round" stroke-miterlimit="10" d="
				M47.9,18.2"/>
			<g>
				
					<path fill="none" stroke="#000000" stroke-width="2" stroke-linecap="round" stroke-linejoin="round" stroke-miterlimit="10" d="
					M54.7,14.9H38.5l-4.9,4.9h12.7L46.2,20l-0.5,0.5l-8.4,8.4l-0.8,0.8c-5.9-4.2-14-3.6-19.3,1.6c-5.9,5.9-5.9,15.4,0,21.2
					s15.4,5.9,21.2,0c5.3-5.3,5.8-13.4,1.6-19.3l0.9-0.9l7.5-7.5l1.4-1.3v12.7l4.9-4.9V14.9"/>
			</g>
		</g>
		
			<circle fill="none" stroke="#000000" stroke-width="2" stroke-linecap="round" stroke-linejoin="round" stroke-miterlimit="10" cx="27.8" cy="41.9" r="10"/>
	</g>
</g>
</svg>
