<svg id="emoji" viewBox="0 0 72 72" xmlns="http://www.w3.org/2000/svg">
  <g id="color">
    <circle cx="27.839" cy="42.0348" r="11.8699" fill="#fff"/>
    <path fill="#9b9b9a" d="m40.0944,33.0963l.9439-.9438,7.5124-7.5121,1.3506-1.3432v12.7245l4.9497-4.9497V14.8084h-16.2633l-4.9497,4.9497h12.7278l-.0836.0835-.4706.4706-8.4264,8.4268-.8243.8243c-5.858-4.1749-14.0433-3.6346-19.2989,1.621-5.8579,5.8579-5.8579,15.3553,0,21.2132,5.8578,5.8578,15.3553,5.8579,21.2132,0,5.2562-5.2562,5.796-13.443,1.6192-19.3012Zm-19.3281,15.7969c-3.9052-3.9052-3.9052-10.2369,0-14.1421s10.2369-3.9052,14.1421,0,3.9052,10.2369,0,14.1421-10.2369,3.9052-14.1421,0Z"/>
  </g>
  <g id="line">
    <path fill="none" stroke="#000" stroke-linecap="round" stroke-linejoin="round" stroke-width="2" d="m54.7381,14.9214h-16.2635l-4.9497,4.9497h12.7279l-.0835.0835-.4707.4707-8.4264,8.4267-.8243.8243c-5.858-4.1749-14.0433-3.6346-19.2989,1.621-5.8579,5.8579-5.8579,15.3553,0,21.2132s15.3553,5.8579,21.2132,0c5.2563-5.2563,5.7961-13.4431,1.6193-19.3013l.9439-.9439,7.5124-7.5121,1.3505-1.3433v12.7245l4.9497-4.9497V14.9214h0Z"/>
    <circle cx="27.755" cy="41.9039" r="9.9999" fill="none" stroke="#000" stroke-linecap="round" stroke-linejoin="round" stroke-width="2"/>
  </g>
</svg>
