<svg id="emoji" viewBox="0 0 72 72" version="1.1" xmlns="http://www.w3.org/2000/svg">
  <g id="color" transform="matrix(.8974 0 0 .8974 3.693 6.164)">
    <polygon fill="#fff" stroke="#fff" points="30.8 35.36 41.15 37.08 44.99 48.08 53.53 60.1 16.93 60.1 27.58 48.16"/>
    <polyline fill="#d0cfce" points="43.53 45.45 53.53 60.1 40.59 60.1"/>
    <rect x="20.66" y="29.34" width="32.26" height="3.726" fill="#fff" stroke="#fff"/>
    <circle cx="36" cy="17" r="10" fill="#fff" stroke="#fff"/>
    <path fill="#d0cfce" d="m41.38 8.58a9.989 9.989 0 0 1-13.8 13.8 9.994 9.994 0 1 0 13.8-13.8z"/>
    <path fill="#fff" stroke="#fff" stroke-linecap="round" stroke-linejoin="round" stroke-width="2" d="m30.8 35.65v-2.434l10.49 0.1249-0.04286 3.56 0.0517 8.549-9.288-4.328z"/>
    <ellipse cx="36" cy="4.5" rx="2.5" ry="2.5" fill="#fff"/>
  </g>
  <g id="line" transform="matrix(.8974 0 0 .8974 3.693 6.164)" fill="none" stroke="#000" stroke-linecap="round" stroke-linejoin="round">
    <circle cx="36" cy="17" r="10" stroke-width="2.229"/>
    <path stroke-width="2.229" d="m21.53 29.34a2.019 2.019 0 0 0 0 4"/>
    <path stroke-width="2.229" d="m30.8 35.65c0 10.97-11.86 23.57-13.87 24.45h19.07"/>
    <path stroke-width="2.229" d="m41.25 36.9c0.8326 10.65 11.88 22.36 13.82 23.2h-19.07"/>
    <path stroke-width="2.229" d="m52.05 33.34a2.019 2.019 0 0 0 0-4"/>
    <line x1="21.53" x2="52.05" y1="29.34" y2="29.34" stroke-width="2.229"/>
    <line x1="21.53" x2="52.05" y1="33.34" y2="33.34" stroke-width="2.229"/>
    <path transform="matrix(1.114 0 0 1.114 -4.115 -6.869)" fill="none" stroke="#000" stroke-linecap="round" stroke-linejoin="round" stroke-width="2" d="m36 16v10.66"/>
    <path transform="matrix(1.114 0 0 1.114 -4.115 -6.869)" fill="none" stroke="#000" stroke-linecap="round" stroke-linejoin="round" stroke-width="2" d="m41.32 21.33h-10.66"/>
    <ellipse cx="36" cy="4.5" rx="2.5" ry="2.5" stroke-width="2.229"/>
  </g>
</svg>
