<svg id="emoji" viewBox="0 0 72 72" version="1.1" xmlns="http://www.w3.org/2000/svg">
  <g id="line-supplement" stroke="#000">
    <polygon points="41.15 37.08 44.99 48.08 53.53 60.1 16.93 60.1 27.58 48.16 30.8 35.36"/>
    <rect x="20.66" y="29.34" width="32.26" height="3.726"/>
    <circle cx="36" cy="17" r="10"/>
    <path stroke-linecap="round" stroke-linejoin="round" stroke-width="2" d="m30.8 35.65v-2.434l10.49 0.1249-0.04286 3.56 2.281 8.552-12.76-8.853z"/>
  </g>
  <g id="color">
    <polygon fill="#3f3f3f" points="53.53 60.1 16.93 60.1 27.58 48.16 30.8 35.36 41.15 37.08 44.99 48.08"/>
    <polyline points="43.53 45.45 53.53 60.1 40.59 60.1"/>
    <rect x="20.66" y="29.34" width="32.26" height="3.726" fill="#3f3f3f"/>
    <circle cx="36" cy="17" r="10" fill="#3f3f3f"/>
    <path d="m41.38 8.58a9.989 9.989 0 0 1-13.8 13.8 9.994 9.994 0 1 0 13.8-13.8z"/>
    <path fill="#3f3f3f" stroke="#3f3f3f" stroke-linecap="round" stroke-linejoin="round" stroke-width="2" d="m30.8 35.65v-2.434l10.49 0.1249-0.04286 3.56 2.281 8.552-12.76-8.853z"/>
  </g>
  <g id="line" fill="none" stroke="#000" stroke-linecap="round" stroke-linejoin="round" stroke-width="2">
    <circle cx="36" cy="17" r="10"/>
    <path d="m21.53 29.34a2.019 2.019 0 0 0 0 4"/>
    <path d="m30.8 35.65c0 10.97-11.86 23.57-13.87 24.45h19.07"/>
    <path d="m41.25 36.9c0.8326 10.65 11.88 22.36 13.82 23.2h-19.07"/>
    <path d="m52.05 33.34a2.019 2.019 0 0 0 0-4"/>
    <line x1="21.53" x2="52.05" y1="29.34" y2="29.34"/>
    <line x1="21.53" x2="52.05" y1="33.34" y2="33.34"/>
  </g>
</svg>
