<svg id="emoji" xmlns="http://www.w3.org/2000/svg" viewBox="0 0 72 72">
  <g id="color">
    <path d="M36.4472,62.081H26.5708l5.2884-6.5638.8717-1.7675s1.1585-3.9414,3.1923-4.1262" fill="#3f3f3f"/>
    <path d="M36.22,62.081h9.0558l-5.2884-6.5638L39.1154,53.75s-1.1585-3.9414-3.1922-4.1262" fill="#3f3f3f"/>
    <path d="M40.0055,53.4015a36.77,36.77,0,0,0,2.6282,4.1935,22.7663,22.7663,0,0,0,4.04,4.3867l-10.1359.525Z"/>
    <path d="M47.2459,54.3131c6.3492,0,11.5148-5.7016,11.5148-12.0509a11.4874,11.4874,0,0,0-1.67-5.9774l-.66-.973L35.982,8.0274,14.4394,34.9838c-1.4409,1.964-1.7741,4.8089-1.7741,7.2784,0,6.3493,5.7026,12.3189,12.0528,12.3189,4.45,0,8.9711-2.0248,10.3642-4.9153a.9991.9991,0,0,1,1.7994,0C38.8469,53.037,42.7963,54.3131,47.2459,54.3131Z" fill="#3f3f3f"/>
    <path d="M34.16,9.9923l1.858-1.8437L57.1549,34.4935l.6734,1.524a11.6188,11.6188,0,0,1,1.7045,6.0687A12.2317,12.2317,0,0,1,47.5316,54.1018S56.9932,41.0347,34.16,9.9923Z"/>
  </g>
  <g id="line">
    <path d="M32.814,52.5342c-.7883,3.5789-5.4354,8.8653-7.341,9.6969H36.2049" fill="none" stroke="#000" stroke-linecap="round" stroke-linejoin="round" stroke-width="2"/>
    <path d="M39.6361,53.8994c1.4294,3.4293,5.2216,7.6009,6.8963,8.3317H35.8" fill="none" stroke="#000" stroke-linecap="round" stroke-linejoin="round" stroke-width="2"/>
    <path d="M39.1914,52.5342a8.1474,8.1474,0,0,0,.4447,1.3652" fill="none" stroke="#000" stroke-linecap="round" stroke-linejoin="round" stroke-width="2"/>
    <path d="M36.0027,7.8005c.3513.2848,20.4292,24.8088,21.5632,27.1833s2.0772,4.4586,1.88,6.6775-.64,12.786-12.786,12.786c-5.2284,0-10.6577-4.4038-10.6577-5.7374" fill="none" stroke="#000" stroke-linecap="round" stroke-linejoin="round" stroke-width="2"/>
    <path d="M36.0027,7.8005c-.3513.2848-20.4292,24.8088-21.5633,27.1833s-2.0771,4.4586-1.88,6.6775.64,12.786,12.7861,12.786c5.2283,0,10.6577-4.4038,10.6577-5.7374" fill="none" stroke="#000" stroke-linecap="round" stroke-linejoin="round" stroke-width="2"/>
  </g>
</svg>
