<svg id="emoji" viewBox="0 0 72 72" xmlns="http://www.w3.org/2000/svg">
  <g id="color">
    <path fill="#fff" d="m33.289,36.9738l-3.4617-6.7458s5.3256,4.083,12.7815,0c0,0-1.7752,6.1245-1.5089,6.9233s-7.8109-.1775-7.8109-.1775Z"/>
    <circle cx="19" cy="36.7" r="11.5" fill="#3f3f3f"/>
    <circle cx="36.2" cy="19.6" r="11.5" fill="#3f3f3f"/>
    <circle cx="53.4" cy="36.7" r="11.5" fill="#3f3f3f"/>
    <path fill="#3f3f3f" d="m38.7,38.8c1.2,7.9,7,20.5,8.9,21.3h-22.7c2-.9,8.4-15.1,9-22.8l.3-.9,4.8,1.5-.3.9Z"/>
  </g>
  <g id="line">
    <path fill="none" stroke="#000" stroke-linecap="round" stroke-linejoin="round" stroke-width="2" d="m38.7,38.8c1.2,7.9,7,20.5,8.9,21.3h-22.7c2-.9,8.4-15.1,9-22.8"/>
    <circle cx="36.2" cy="19.6" r="11.5" fill="none" stroke="#000" stroke-linecap="round" stroke-linejoin="round" stroke-width="2"/>
    <circle cx="53.4" cy="36.7" r="11.5" fill="none" stroke="#000" stroke-linecap="round" stroke-linejoin="round" stroke-width="2"/>
    <circle cx="19" cy="36.7" r="11.5" fill="none" stroke="#000" stroke-linecap="round" stroke-linejoin="round" stroke-width="2"/>
  </g>
</svg>
