<svg id="emoji" xmlns="http://www.w3.org/2000/svg" viewBox="0 0 72 72">
  <g id="color">
    <path d="M24.4136,12.259c-6.58,0-11.9328,5.9086-11.9328,12.4884,0,2.192.32,5.445,1.4532,7.3054l.9614,1.0084,21.1911,27.164L58.4112,32.29c1.4932-2.0353,1.8385-4.9834,1.8385-7.5426,0-6.58-5.91-12.7661-12.49-12.7661-4.6111,0-9.2968,2.0983-10.74,5.0937a1.0355,1.0355,0,0,1-1.8648,0C33.1176,13.5814,29.0248,12.259,24.4136,12.259Z" fill="#ea5a47"/>
    <path d="M34.1234,58.1889,36.0489,60.1l21.904-27.3014.6978-1.5793A12.0405,12.0405,0,0,0,60.4171,24.93,12.6758,12.6758,0,0,0,47.98,12.4779S57.7852,26.0194,34.1234,58.1889Z" fill="#d22f27"/>
  </g>
  <g id="line">
    <path d="M36.0651,60.46c-.3641-.2952-21.1709-25.71-22.3462-28.17s-2.1526-4.62-1.9487-6.92.6636-13.25,13.25-13.25c5.4182,0,11.0447,4.5637,11.0447,5.9457" fill="none" stroke="#000" stroke-linecap="round" stroke-linejoin="round" stroke-width="2"/>
    <path d="M36.0651,60.46c.364-.2952,21.1708-25.71,22.3461-28.17s2.1526-4.62,1.9487-6.92-.6636-13.25-13.25-13.25c-5.4182,0-11.0446,4.5637-11.0446,5.9457" fill="none" stroke="#000" stroke-linecap="round" stroke-linejoin="round" stroke-width="2"/>
  </g>
</svg>
