<?xml version="1.0" encoding="utf-8"?>
<!-- Generator: Adobe Illustrator 19.1.0, SVG Export Plug-In . SVG Version: 6.00 Build 0)  -->
<svg version="1.1" id="emoji" xmlns="http://www.w3.org/2000/svg" xmlns:xlink="http://www.w3.org/1999/xlink" x="0px" y="0px"
	 viewBox="0 0 72 72" enable-background="new 0 0 72 72" xml:space="preserve">
<g id="_x267F__xFE0F__1_">
	
		<path fill="#62B0E2" stroke="#000000" stroke-width="2" stroke-linecap="round" stroke-linejoin="round" stroke-miterlimit="10" d="
		M60,61H12c-0.6,0-1-0.4-1-1V12c0-0.6,0.4-1,1-1h48c0.6,0,1,0.4,1,1v48C61,60.6,60.6,61,60,61z"/>
	<g>
		
			<path fill="#FFFFFF" stroke="#000000" stroke-width="2" stroke-linecap="round" stroke-linejoin="round" stroke-miterlimit="10" d="
			M35.8,36.3l5.9,1c0.9,0.2,2.1,0.5,2.8,1.1c0.6,0.5,1.1,1.1,1.1,1.8c0,1.6-0.7,11.4-1.1,12c-1.1,1.7-2.6,0.7-2.8-0.2
			c-0.3-1.2,0.1-10.3,0.1-10.3l-10.3,0.6c0,0-1.7,0-1.7-1.7S29.5,30.3,32.1,26c2.6-4.3,6-0.9,4.3,2.6C34.7,32,35.8,36.3,35.8,36.3z"
			/>
		
			<circle fill="#FFFFFF" stroke="#000000" stroke-width="2" stroke-linecap="round" stroke-linejoin="round" stroke-miterlimit="10" cx="38.5" cy="19" r="3"/>
	</g>
	<path fill="#FFFFFF" stroke="#020203" stroke-width="2" stroke-miterlimit="10" d="M37,45"/>
	<g>
		<path fill="none" stroke="#000000" stroke-width="2" stroke-linecap="round" stroke-linejoin="round" stroke-miterlimit="10" d="
			M37,45c0,5.6-4.6,10.2-10.3,10c-5.2-0.1-9.6-4.5-9.7-9.7c-0.1-4.2,2.4-7.9,6-9.5"/>
	</g>
	<path fill="none" stroke="#FFFFFF" stroke-width="2" stroke-linecap="round" stroke-linejoin="round" stroke-miterlimit="10" d="
		M34.5,26.3l-7.3,4.3c-0.4,0.2-0.6,0.7-0.5,1.1l0.2,6"/>
	<path fill="none" stroke="#000000" stroke-width="2" stroke-linecap="round" stroke-linejoin="round" stroke-miterlimit="10" d="
		M33.1,24.8l-7.9,5.1c-0.4,0.2-0.5,0.7-0.4,1.1l1.8,7.2"/>
	<path fill="#FFFFFF" d="M31,29.5c0,0,1-0.5,0.7,0.7l1.3-1l-0.4-1.2L31,29.5z"/>
</g>
</svg>
