<svg id="emoji" viewBox="0 0 72 72" xmlns="http://www.w3.org/2000/svg">
  <g id="color" stroke-miterlimit="10">
    <path fill="#61b2e4" stroke-linecap="round" stroke-linejoin="round" stroke-width="2" d="m60 61h-48c-0.5523 0-1-0.4477-1-1v-48c0-0.5523 0.4477-1 1-1h48c0.5523 0 1 0.4477 1 1v48c0 0.5523-0.4477 1-1 1z"/>
    <path fill="#fff" d="m39.01 36.8 5.888 0.9834c0.9375 0.1566 2.057 0.5144 2.8 1.107 0.589 0.4701 1.112 1.099 1.112 1.848 0 1.567-0.7362 11.44-1.112 12-1.116 1.661-2.582 0.6676-2.839-0.2416-0.3292-1.165 0.144-10.27 0.144-10.27l-10.27 0.5681s-1.633-0.0018-1.712-1.712c-0.07931-1.707-2.534-10.12 2.28-14.55 2.568-4.28 5.992-0.856 4.28 2.568s-0.5682 7.704-0.5682 7.704z"/>
    <circle cx="41.69" cy="19.51" r="3" fill="#fff"/>
    <path fill="#fff" stroke-width="2" d="m36.5 45"/>
    <path fill="none" stroke="#fff" stroke-linecap="round" stroke-linejoin="round" stroke-miterlimit="10" stroke-width="2" d="m35.62 27.41c-8.597 1.765-5.715-0.8486-7.291 8.242"/>
  </g>
  <g id="line" stroke-miterlimit="10">
    <path fill="none" stroke="#000" stroke-linecap="round" stroke-linejoin="round" stroke-width="2" d="m60 61h-48c-0.5523 0-1-0.4477-1-1v-48c0-0.5523 0.4477-1 1-1h48c0.5523 0 1 0.4477 1 1v48c0 0.5523-0.4477 1-1 1z"/>
    <circle cx="41.69" cy="19.51" r="3" fill="none" stroke="#000" stroke-linecap="round" stroke-linejoin="round" stroke-miterlimit="10" stroke-width="2"/>
    <path fill="none" stroke="#000" stroke-miterlimit="10" stroke-width="2" d="m40.19 45.49"/>
    <path fill="none" stroke="#000" stroke-linecap="round" stroke-linejoin="round" stroke-miterlimit="10" stroke-width="2" d="m42.19 45.49c0 5.617-4.631 10.15-10.28 9.996-5.218-0.1446-9.568-4.495-9.712-9.713-0.09441-3.416 1.525-6.46 4.063-8.333"/>
    <path fill="none" stroke="#000" stroke-linecap="round" stroke-linejoin="round" stroke-miterlimit="10" stroke-width="2" d="m28.33 35.65-0.8567-7.322c-0.1012-0.4138 0.0709-0.8463 0.4288-1.078l8.204-1.978c3.123-1.161 4.688 0.9946 3.47 3.821-1.712 3.424-0.5682 7.704-0.5682 7.704l5.888 0.9834c0.9375 0.1566 2.057 0.5144 2.8 1.107 0.589 0.4701 1.112 1.099 1.112 1.848 0 1.567-0.7362 11.44-1.112 12-1.116 1.661-2.582 0.6676-2.839-0.2416-0.3292-1.165 0.144-10.27 0.144-10.27-3.056 0.3001-11.3 3.138-11.98-2.011-0.01906-1.266-0.554-6.648 1.117-10.78"/>
  </g>
</svg>
