<?xml version="1.0" encoding="utf-8"?>
<!-- Generator: Adobe Illustrator 21.1.0, SVG Export Plug-In . SVG Version: 6.00 Build 0)  -->
<svg version="1.1" id="emoji" xmlns="http://www.w3.org/2000/svg" xmlns:xlink="http://www.w3.org/1999/xlink" x="0px" y="0px"
	 viewBox="0 0 72 72" enable-background="new 0 0 72 72" xml:space="preserve">
<g id="_x2693__xFE0F__1_">
	
		<path fill="#CECCCC" stroke="#000000" stroke-width="2" stroke-linecap="round" stroke-linejoin="round" stroke-miterlimit="10" d="
		M54.2,34.1l-5.3,9.1h3.2c-2.4,5.5-7.6,9.4-13.6,10.1V29.4h4c1.2,0,2.2-1.1,2-2.3c-0.2-1-1.1-1.7-2.1-1.7h-3.9V23
		c2-0.9,3.3-3.1,2.9-5.5c-0.3-2-1.9-3.6-3.9-4c-3.2-0.7-6.1,1.8-6.1,4.9c0,2,1.2,3.8,3,4.6v2.4h-3.9c-1,0-1.9,0.7-2.1,1.7
		c-0.2,1.3,0.8,2.3,2,2.3h4v23.9c-5.9-0.7-11.2-4.6-13.6-10.1h3.1l-5.3-9.1l-5.3,9.1h3.3c0,0.2,0.1,0.5,0.1,0.7
		c2.7,8.6,16.6,15.2,19.1,16.3c0.3,0.1,0.5,0.1,0.8,0c2.6-1.1,16.9-7.8,19.6-17h3.1L54.2,34.1z M36.5,17.4c0.6,0,1,0.4,1,1
		c0,0.5-0.4,1-1,1c-0.5,0-1-0.5-1-1C35.5,17.9,36,17.4,36.5,17.4z"/>
</g>
</svg>
