<svg id="emoji" viewBox="0 0 72 72" xmlns="http://www.w3.org/2000/svg">
  <g id="color">
    <circle cx="36.052" cy="34.9064" r="5.6136" fill="#fff"/>
    <path fill="#d0cfce" d="m51.2579,29.8111s-1.8149-.4504-1.0786-2.0742l4.5037-7.4841-3.6502-3.417-.73-.6833-7.1357,4.6903c-.9431.4213-2.037-.1166-2.2794-1.1205l-1.887-7.8158h-6l-1.8809,7.7858c-.2389.9894-1.3101,1.5798-2.2425,1.1716-.0148-.0063-.0296-.0131-.0445-.0198l-7.1357-4.6904-.73.6833-3.6502,3.417,4.5037,7.4841c.7364,1.6238-1.0785,2.0743-1.0785,2.0743l-8.4766,2.1074.1649,4.9972.033.9995,8.3622,1.7291c.952.3641,1.3501,1.4954.8358,2.3755l-.0328.0562-4.5037,7.484,3.6502,3.417.73.6833,7.1357-4.6902c.0149-.0068.03-.0129.0445-.02,0,0,.0115-.0042.0332-.0111,1.1606-.3768,2.393.3463,2.6794,1.5325l1.7947,7.4336h6l1.887-7.8158c.2424-1.0039,1.3364-1.5417,2.2794-1.1205l7.1357,4.6903.73-.6833,3.6502-3.417-4.5037-7.4841-.0328-.0562c-.5143-.88-.1162-2.0112.8358-2.3755l8.3622-1.729.033-.9995.1649-4.9973-8.4764-2.1074Zm-15.2579,15.0953c-5.5228,0-10-4.4772-10-10s4.4772-10,10-10,10,4.4772,10,10-4.4772,10-10,10Z"/>
    <path fill="#9b9b9a" d="m36,24.9064c-5.5228,0-10,4.4772-10,10s4.4772,10,10,10,10-4.4772,10-10-4.4772-10-10-10Zm0,15c-2.7614,0-5-2.2386-5-5s2.2386-5,5-5,5,2.2385,5,5-2.2386,5-5,5Z"/>
  </g>
  <g id="line">
    <circle cx="36" cy="34.9064" r="5" fill="none" stroke="#000" stroke-linecap="round" stroke-linejoin="round" stroke-width="2"/>
    <circle cx="36" cy="34.9064" r="10" fill="none" stroke="#000" stroke-linecap="round" stroke-linejoin="round" stroke-width="2"/>
    <path fill="none" stroke="#000" stroke-linecap="round" stroke-linejoin="round" stroke-width="2" d="m31.1191,19.6921c-.2389.9895-1.31,1.5799-2.2425,1.1717-.0147-.0065-.0296-.0131-.0445-.0199l-7.1357-4.6903-.73.6834-3.6502,3.417,4.5037,7.484c.7363,1.6239-1.0785,2.0744-1.0785,2.0744l-8.4766,2.1074.1649,4.9973.033.9995,8.3622,1.7291h0c.9521.3641,1.3501,1.4954.8359,2.3754l-.0328.0562-4.5037,7.484,3.6502,3.417.73.6834,7.1357-4.6903c.0149-.0068.03-.0129.0445-.0199,0,0,.0116-.0042.0332-.0112,1.1606-.3768,2.393.3463,2.6794,1.5324l1.7947,7.4336h6l1.8869-7.8157c.2424-1.004,1.3364-1.5418,2.2794-1.1205h0l7.1357,4.6903.73-.6834,3.6502-3.417-4.5037-7.484-.0328-.0562c-.5143-.8801-.1162-2.0113.8359-2.3755h0l8.3622-1.7291.033-.9995.1649-4.9973-8.4766-2.1074s-1.8149-.4505-1.0785-2.0744l4.5037-7.484-3.6502-3.417-.73-.6834-7.1357,4.6903h0c-.943.4212-2.037-.1166-2.2794-1.1206l-1.887-7.8155h-6l-1.8809,7.7857Z"/>
  </g>
</svg>
