<?xml version="1.0" encoding="utf-8"?>
<!-- Generator: Adobe Illustrator 21.1.0, SVG Export Plug-In . SVG Version: 6.00 Build 0)  -->
<svg version="1.1" id="emoji" xmlns="http://www.w3.org/2000/svg" xmlns:xlink="http://www.w3.org/1999/xlink" x="0px" y="0px"
	 viewBox="0 0 72 72" enable-background="new 0 0 72 72" xml:space="preserve">
<g id="_x26A0__xFE0F_">
	<g>
		
			<path fill="#FBEA2E" stroke="#1D1D1B" stroke-width="2" stroke-linecap="round" stroke-linejoin="round" stroke-miterlimit="10" d="
			M32.5,13c0.7-1.2,2-2,3.5-2c1.5,0,2.8,0.8,3.5,2l21,41.9c0.3,0.6,0.6,1.3,0.6,2c0,2.2-1.8,4-4,4L15,61c-2.2,0-4-1.8-4-4
			c0-0.7,0.2-1.4,0.6-2L32.5,13"/>
	</g>
	
		<path fill="#FFFFFF" stroke="#1D1D1B" stroke-width="2" stroke-linecap="round" stroke-linejoin="round" stroke-miterlimit="10" d="
		M37.6,47.3c0,0.9-0.7,1.6-1.6,1.6c-0.9,0-1.6-0.7-1.6-1.6V23.9c0-0.9,0.7-1.6,1.6-1.6c0.9,0,1.6,0.7,1.6,1.6V47.3z"/>
	
		<circle fill="#FFFFFF" stroke="#1D1D1B" stroke-width="2" stroke-linecap="round" stroke-linejoin="round" stroke-miterlimit="10" cx="36" cy="54.5" r="1.6"/>
</g>
</svg>
