<?xml version="1.0" encoding="utf-8"?>
<!-- Generator: Adobe Illustrator 21.1.0, SVG Export Plug-In . SVG Version: 6.00 Build 0)  -->
<svg version="1.1" id="emoji" xmlns="http://www.w3.org/2000/svg" xmlns:xlink="http://www.w3.org/1999/xlink" x="0px" y="0px"
	 viewBox="0 0 72 72" enable-background="new 0 0 72 72" xml:space="preserve">
<g id="_x26B0_">
	<path fill="#A57939" stroke="#A57939" stroke-width="2" stroke-miterlimit="10" d="M31.6,67.6h9.1c1.3,0,2.5-0.8,2.9-2.1l12.4-38.7
		c0.3-0.8,0.2-1.8-0.3-2.5L43.8,5.8c-0.6-0.9-1.5-1.4-2.5-1.4H31.1c-1,0-2,0.5-2.5,1.4L16.8,24.3c-0.5,0.8-0.6,1.7-0.3,2.5
		l12.4,38.7C29.2,66.8,30.3,67.6,31.6,67.6z"/>
	<g>
		
			<line fill="#C99D66" stroke="#000000" stroke-width="2" stroke-linecap="round" stroke-miterlimit="10" x1="36.3" y1="22" x2="36.3" y2="38"/>
		
			<line fill="#C99D66" stroke="#000000" stroke-width="2" stroke-linecap="round" stroke-miterlimit="10" x1="31.5" y1="26.6" x2="41.1" y2="26.6"/>
	</g>
	<polygon fill="#6A462F" stroke="#6A462F" stroke-linejoin="round" stroke-miterlimit="10" points="39.2,4.4 47.5,26.5 39.2,67.6 
		41.5,67.5 56,25.4 41.5,4.5 	"/>
	<path fill="none" stroke="#000000" stroke-width="2" stroke-miterlimit="10" d="M31.6,67.6h9.1c1.3,0,2.5-0.8,2.9-2.1l12.4-38.7
		c0.3-0.8,0.2-1.8-0.3-2.5L43.8,5.8c-0.6-0.9-1.5-1.4-2.5-1.4H31.1c-1,0-2,0.5-2.5,1.4L16.8,24.3c-0.5,0.8-0.6,1.7-0.3,2.5
		l12.4,38.7C29.2,66.8,30.3,67.6,31.6,67.6z"/>
</g>
</svg>
