<?xml version="1.0" encoding="utf-8"?>
<!-- Generator: Adobe Illustrator 21.1.0, SVG Export Plug-In . SVG Version: 6.00 Build 0)  -->
<svg version="1.1" id="emoji" xmlns="http://www.w3.org/2000/svg" xmlns:xlink="http://www.w3.org/1999/xlink" x="0px" y="0px"
	 viewBox="0 0 72 72" enable-background="new 0 0 72 72" xml:space="preserve">
<g id="_x26BD__xFE0F_">
	<g>
		<g>
			<circle fill="#FFFFFF" cx="36" cy="36" r="29"/>
			<path fill="#D0CFCE" d="M50.7,11c4.8,5.2,7.8,12.1,7.8,19.8c0,16-13,29-29,29c-5.4,0-10.4-1.5-14.7-4C20.1,61.5,27.7,65,36,65
				c16,0,29-13,29-29C65,25.4,59.3,16.1,50.7,11z"/>
		</g>
	</g>
	<g>
		
			<circle fill="none" stroke="#000000" stroke-width="2" stroke-linecap="round" stroke-linejoin="round" stroke-miterlimit="10" cx="36" cy="36" r="29"/>
		<g>
			<path d="M34.2,28.1l-6.2,4.5c-1.1,0.8-1.5,2.1-1.1,3.4l2.4,7.2c0.4,1.2,1.6,2.1,2.9,2.1h7.6c1.3,0,2.5-0.8,2.9-2.1l2.4-7.2
				c0.4-1.2,0-2.6-1.1-3.4l-6.2-4.5C36.7,27.3,35.3,27.3,34.2,28.1z"/>
			<g>
				<defs>
					<circle id="SVGID_1_" cx="36" cy="36" r="29"/>
				</defs>
				<clipPath id="SVGID_2_">
					<use xlink:href="#SVGID_1_"  overflow="visible"/>
				</clipPath>
				<g clip-path="url(#SVGID_2_)">
					<path d="M37.9,14.3l8.4-4.1c0.5-0.2,0.7-0.9,0.5-1.4L42.8,1H29l-3.7,7.9c-0.2,0.5,0,1.1,0.5,1.4l8.6,4.1
						C35.4,14.9,36.8,14.8,37.9,14.3z"/>
					<path d="M22.6,53.3l-9.3-1.1c-0.6-0.1-1.1,0.3-1.1,0.9l-1,8.7l11.7,7.6l7.4-4.6c0.5-0.3,0.6-0.9,0.3-1.4l-5-8.2
						C24.9,54.1,23.8,53.4,22.6,53.3z"/>
					<path d="M14.4,33l-5.9,7.3c-0.4,0.4-1,0.5-1.4,0.1l-6.7-5.6l3.1-13.5l8.5-1.9c0.5-0.1,1.1,0.2,1.2,0.8l2.1,9.3
						C15.5,30.7,15.2,32,14.4,33z"/>
					<path d="M49.4,53.3l9.3-1.1c0.6-0.1,1.1,0.3,1.1,0.9l1,8.7l-11.6,7.6l-7.4-4.6c-0.5-0.3-0.6-0.9-0.3-1.4l5-8.1
						C47.1,54.1,48.2,53.4,49.4,53.3z"/>
					<path d="M57.6,33l6,7.4c0.4,0.4,1,0.5,1.4,0.1l6.8-5.7l-3.1-13.7l-8.6-1.9c-0.5-0.1-1.1,0.2-1.2,0.8l-2.1,9.5
						C56.6,30.7,56.9,32,57.6,33z"/>
				</g>
			</g>
		</g>
		<g>
			
				<line fill="none" stroke="#000000" stroke-width="2" stroke-linecap="round" stroke-linejoin="round" stroke-miterlimit="10" x1="36" y1="14.7" x2="36" y2="27.5"/>
			
				<line fill="none" stroke="#000000" stroke-width="2" stroke-linecap="round" stroke-linejoin="round" stroke-miterlimit="10" x1="45" y1="34" x2="56.8" y2="31.3"/>
			
				<line fill="none" stroke="#000000" stroke-width="2" stroke-linecap="round" stroke-linejoin="round" stroke-miterlimit="10" x1="41.6" y1="44.6" x2="47.6" y2="53.9"/>
			
				<line fill="none" stroke="#000000" stroke-width="2" stroke-linecap="round" stroke-linejoin="round" stroke-miterlimit="10" x1="30.4" y1="44.6" x2="24.3" y2="53.9"/>
			
				<line fill="none" stroke="#000000" stroke-width="2" stroke-linecap="round" stroke-linejoin="round" stroke-miterlimit="10" x1="27" y1="34" x2="15.2" y2="31.4"/>
		</g>
	</g>
</g>
</svg>
