<?xml version="1.0" encoding="utf-8"?>
<!-- Generator: Adobe Illustrator 19.1.0, SVG Export Plug-In . SVG Version: 6.00 Build 0)  -->
<svg version="1.1" id="emoji" xmlns="http://www.w3.org/2000/svg" xmlns:xlink="http://www.w3.org/1999/xlink" x="0px" y="0px"
	 viewBox="0 0 72 72" enable-background="new 0 0 72 72" xml:space="preserve">
<g id="_x26C4__xFE0F__1_">
	<circle fill="#D0CFCE" cx="36" cy="26.6" r="12"/>
	<circle fill="#D0CFCE" cx="36" cy="53" r="16"/>
	<g>
		
			<line fill="none" stroke="#000000" stroke-width="2" stroke-linecap="round" stroke-linejoin="round" stroke-miterlimit="10" x1="43.5" y1="40" x2="68" y2="31.9"/>
		
			<line fill="none" stroke="#000000" stroke-width="2" stroke-linecap="round" stroke-linejoin="round" stroke-miterlimit="10" x1="61" y1="34.2" x2="64.1" y2="25.9"/>
	</g>
	<g>
		<circle cx="36" cy="49" r="2"/>
		<circle cx="36" cy="56" r="2"/>
		<circle cx="36" cy="63" r="2"/>
	</g>
	<g>
		<circle cx="31.9" cy="23.3" r="1.8"/>
		<circle cx="40.1" cy="23.3" r="1.8"/>
		
			<path fill="none" stroke="#000000" stroke-width="1.8" stroke-linecap="round" stroke-linejoin="round" stroke-miterlimit="10" d="
			M41.3,30.7c-1.4,1.1-3.2,1.7-5.1,1.7c-1.9,0-3.7-0.6-5.1-1.7"/>
	</g>
	<g>
		<g>
			<rect x="28.5" y="3" fill="#3F3F3F" width="14.9" height="12.2"/>
			
				<line fill="none" stroke="#000000" stroke-width="2" stroke-linecap="round" stroke-linejoin="round" x1="25.7" y1="15.2" x2="46.3" y2="15.2"/>
		</g>
		
			<rect x="28.5" y="3" fill="none" stroke="#000000" stroke-width="2" stroke-linecap="round" stroke-linejoin="round" width="14.9" height="12.2"/>
	</g>
	<path fill="none" stroke="#000000" stroke-width="2" stroke-linecap="round" stroke-linejoin="round" stroke-miterlimit="10" d="
		M44.4,18.8c1.9,2.1,3.1,4.8,3.1,7.8c0,6.4-5.1,11.5-11.5,11.5s-11.5-5.1-11.5-11.5c0-3,1.2-5.8,3.1-7.8"/>
	<g>
		
			<line fill="none" stroke="#000000" stroke-width="2" stroke-linecap="round" stroke-linejoin="round" stroke-miterlimit="10" x1="28.5" y1="40" x2="4" y2="31.9"/>
		
			<line fill="none" stroke="#000000" stroke-width="2" stroke-linecap="round" stroke-linejoin="round" stroke-miterlimit="10" x1="11" y1="34.2" x2="7.9" y2="25.9"/>
	</g>
	<path fill="none" stroke="#000000" stroke-width="2" stroke-linecap="round" stroke-linejoin="round" stroke-miterlimit="10" d="
		M47.2,43c2.4,2.7,3.8,6.2,3.8,10c0,8.3-6.7,15-15,15s-15-6.7-15-15c0-3.8,1.4-7.3,3.8-10"/>
</g>
</svg>
