<?xml version="1.0" encoding="utf-8"?>
<!-- Generator: Adobe Illustrator 21.1.0, SVG Export Plug-In . SVG Version: 6.00 Build 0)  -->
<svg version="1.1" id="emoji" xmlns="http://www.w3.org/2000/svg" xmlns:xlink="http://www.w3.org/1999/xlink" x="0px" y="0px"
	 viewBox="0 0 72 72" enable-background="new 0 0 72 72" xml:space="preserve">
<g id="_x26C5__xFE0F_">
	<g>
		<polygon fill="#FCEA2B" points="17.9,41.5 11.7,44.9 12.5,36.4 4.4,35.2 10.4,29.8 4.6,24.1 12.7,23.2 11.3,15.2 18.4,19.2 
			22,11.9 25.3,19.3 32.5,15.5 30.8,23.5 39.7,25.3 33.1,30.7 39,36.5 30.9,37.2 32.1,45.3 25.1,41 20.4,48.6 		"/>
		<g>
			
				<polyline fill="none" stroke="#000000" stroke-width="1.9" stroke-linecap="round" stroke-linejoin="round" stroke-miterlimit="10" points="
				14.3,42.4 11.1,44.2 12.8,36.2 4.7,35.1 10.7,29.6 4.9,23.9 13,23 11.6,15 18.7,19.1 22.3,11.7 25.6,19.2 32.8,15.4 31.1,23.4 
				39.2,24.5 36.3,26.9 			"/>
			
				<path fill="none" stroke="#000000" stroke-width="1.9" stroke-linecap="round" stroke-linejoin="round" stroke-miterlimit="10" d="
				M17.3,39.5c-3.6-1.7-6.1-5.4-6.1-9.7C11.2,23.8,16,19,22,19c5.6,0,10.2,4.3,10.7,9.7"/>
		</g>
	</g>
	
		<path fill="#FFFFFF" stroke="#000000" stroke-width="2" stroke-linecap="round" stroke-linejoin="round" stroke-miterlimit="10" d="
		M25.3,39.5c0,0.4-0.3,0.6-0.7,0.7c-4.4,0.5-7.7,4.8-7.7,10c0,5.5,3.8,10,8.6,10h32.7c5.2,0,9.4-4.7,9.4-10.6
		c0-5.6-3.9-10.2-8.8-10.6c-0.4,0-0.7-0.3-0.8-0.7c-1.1-5.6-6.2-9.9-12.1-9.9c-3.9,0-7.3,1.8-9.6,4.6c-0.2,0.3-0.6,0.4-0.9,0.3
		c-0.9-0.4-1.8-0.5-2.8-0.5C28.8,32.8,25.6,35.8,25.3,39.5z"/>
</g>
</svg>
