<svg id="emoji" viewBox="0 0 72 72" xmlns="http://www.w3.org/2000/svg">
  <g id="color">
    <rect x="11" y="29.6317" rx="9" ry="9" width="50" height="18" transform="translate(-16.7726 36.7708) rotate(-45)" fill="#fff" stroke="#fff" stroke-linecap="round" stroke-linejoin="round" stroke-width="2"/>
    <path fill="#9b9b9a" stroke="#9b9b9a" stroke-linecap="round" stroke-linejoin="round" stroke-width="2" d="M18.3223,56.3094c-3.5147-3.5147-3.5147-9.2132,0-12.7279l11.3137-11.3137c3.5147-3.5147,9.2132-3.5147,12.7279,0l-3.5355,3.5355c-1.5621-1.5621-4.0948-1.5621-5.6568,0l-11.3137,11.3137c-1.5621,1.5621-1.5621,4.0948,0,5.6568l-3.5355,3.5355Z"/>
    <path fill="#d0cfce" stroke="#d0cfce" stroke-linecap="round" stroke-linejoin="round" stroke-width="2" d="M40.9497,20.9541l3.5355,3.5355c1.5621-1.5621,4.0947-1.5621,5.6569,0s1.5621,4.0947,0,5.6569l-11.3137,11.3137c-1.5621,1.5621-4.0948,1.5621-5.6569,0s-1.5621-4.0947,0-5.6569l7.0711-7.0711-3.5355-3.5355-7.0711,7.0711c-3.5147,3.5147-3.5147,9.2132,0,12.7279s9.2132,3.5147,12.7279,0l11.3137-11.3137c3.5147-3.5147,3.5147-9.2132,0-12.7279-3.5147-3.5147-9.2132-3.5147-12.7279,0Z"/>
    <path fill="#9b9b9a" stroke="#9b9b9a" stroke-linecap="round" stroke-linejoin="round" stroke-width="2" d="M21.8579,52.7739c1.5621,1.5621,4.0948,1.5621,5.6568,0l11.3137-11.3137c1.5621-1.5621,1.5621-4.0948,0-5.6568l3.5355-3.5355c3.5147,3.5147,3.5147,9.2132,0,12.7279l-11.3137,11.3137c-3.5147,3.5147-9.2132,3.5147-12.7279,0l3.5355-3.5355Z"/>
    <circle cx="37" cy="21" r="2" fill="#fff" stroke="#fff" stroke-linecap="round" stroke-linejoin="round" stroke-width="2"/>
  </g>
  <g id="line">
    <path fill="none" stroke="#000" stroke-linecap="round" stroke-miterlimit="10" stroke-width="2" d="M42.364,32.2678h0c3.5147,3.5147,3.5147,9.2132,0,12.7279l-11.3137,11.3137c-3.5147,3.5147-9.2132,3.5147-12.7279,0h0"/>
    <path fill="none" stroke="#000" stroke-linecap="round" stroke-miterlimit="10" stroke-width="2" d="M18.3223,56.3094c-3.5147-3.5147-3.5147-9.2132,0-12.7279l4.6891-4.6891"/>
    <path fill="none" stroke="#000" stroke-linecap="round" stroke-miterlimit="10" stroke-width="2" d="M24.4233,44.5516l-2.5654,2.5654c-1.5621,1.5621-1.5621,4.0948,0,5.6568"/>
    <path fill="none" stroke="#000" stroke-linecap="round" stroke-miterlimit="10" stroke-width="2" d="M21.8579,52.7739h0c1.5621,1.5621,4.0948,1.5621,5.6568,0l11.3137-11.3137c1.5621-1.5621,1.5621-4.0948,0-5.6568h0"/>
    <path fill="none" stroke="#000" stroke-linecap="round" stroke-miterlimit="10" stroke-width="2" d="M40.9498,20.9541c3.5147-3.5147,9.2132-3.5147,12.7279,0h0"/>
    <path fill="none" stroke="#000" stroke-linecap="round" stroke-miterlimit="10" stroke-width="2" d="M29.636,44.9957h0c-3.5147-3.5147-3.5147-9.2132,0-12.7279l7.0711-7.0711"/>
    <path fill="none" stroke="#000" stroke-linecap="round" stroke-miterlimit="10" stroke-width="2" d="M53.6777,20.9541c3.5147,3.5147,3.5147,9.2132,0,12.7279l-4.6891,4.6891"/>
    <path fill="none" stroke="#000" stroke-linecap="round" stroke-miterlimit="10" stroke-width="2" d="M47.5767,32.7119l2.5654-2.5654c1.5621-1.5621,1.5621-4.0948,0-5.6568"/>
    <path fill="none" stroke="#000" stroke-linecap="round" stroke-miterlimit="10" stroke-width="2" d="M40.2426,28.7322l-7.0711,7.0711c-1.5621,1.5621-1.5621,4.0948,0,5.6568h0"/>
    <path fill="none" stroke="#000" stroke-linecap="round" stroke-miterlimit="10" stroke-width="2" d="M50.1421,24.4896h0c-1.5621-1.5621-4.0948-1.5621-5.6568,0"/>
    <line x1="33.8787" x2="29.636" y1="18.1256" y2="13.883" fill="none" stroke="#000" stroke-linecap="round" stroke-linejoin="round" stroke-width="2"/>
    <line x1="38.1213" x2="38.1213" y1="16.7114" y2="11.0546" fill="none" stroke="#000" stroke-linecap="round" stroke-linejoin="round" stroke-width="2"/>
    <line x1="26.8076" x2="32.4645" y1="22.3683" y2="22.3683" fill="none" stroke="#000" stroke-linecap="round" stroke-linejoin="round" stroke-width="2"/>
  </g>
</svg>
