<svg id="emoji" xmlns="http://www.w3.org/2000/svg" viewBox="0 0 72 72">
  <g id="color">
    <rect x="16" y="33" fill="#D22F27" stroke="none" stroke-width="2" stroke-linecap="round" stroke-linejoin="round" stroke-miterlimit="10" width="40" height="4"></rect>
    <rect x="22" y="27" fill="#EA5A47" stroke="none" stroke-width="2" stroke-linecap="round" stroke-linejoin="round" stroke-miterlimit="10" width="4" height="28"></rect>
    <rect x="46" y="27" fill="#EA5A47" stroke="none" stroke-width="2" stroke-linecap="round" stroke-linejoin="round" stroke-miterlimit="10" width="4" height="28"></rect>
    <rect x="20.5" y="55" fill="#3F3F3F" stroke="none" stroke-width="2" stroke-linecap="round" stroke-linejoin="round" stroke-miterlimit="10" width="7" height="5"></rect>
    <rect x="44.5" y="55" fill="#3F3F3F" stroke="none" stroke-width="2" stroke-linecap="round" stroke-linejoin="round" stroke-miterlimit="10" width="7" height="5"></rect>
    <rect x="34" y="27" fill="#3F3F3F" stroke="none" stroke-width="2" stroke-linecap="round" stroke-linejoin="round" stroke-miterlimit="10" width="4" height="6"></rect>
    <path fill="#EA5A47" stroke="none" stroke-width="2" stroke-linecap="round" stroke-linejoin="round" stroke-miterlimit="10" d="
		M12.5,21c0,0,11.2502,2,15.0003,2c4.625,0,13.875,0,18.5,0C49.3752,23,59.5,21,59.5,21l-4,3l-2,3h-35l-2-3L12.5,21z"></path>
  </g>
  <g id="hair"> </g>
  <g id="skin"> </g>
  <g id="skin-shadow"> </g>
  <g id="line">
    <rect x="16" y="33" fill="none" stroke="#000000" stroke-width="2" stroke-linecap="round" stroke-linejoin="round" stroke-miterlimit="10" width="40" height="4"></rect>
    <rect x="22" y="27" fill="none" stroke="#000000" stroke-width="2" stroke-linecap="round" stroke-linejoin="round" stroke-miterlimit="10" width="4" height="28"></rect>
    <rect x="46" y="27" fill="none" stroke="#000000" stroke-width="2" stroke-linecap="round" stroke-linejoin="round" stroke-miterlimit="10" width="4" height="28"></rect>
    <rect x="20.5" y="55" fill="none" stroke="#000000" stroke-width="2" stroke-linecap="round" stroke-linejoin="round" stroke-miterlimit="10" width="7" height="5"></rect>
    <rect x="44.5" y="55" fill="none" stroke="#000000" stroke-width="2" stroke-linecap="round" stroke-linejoin="round" stroke-miterlimit="10" width="7" height="5"></rect>
    <rect x="34" y="27" fill="none" stroke="#000000" stroke-width="2" stroke-linecap="round" stroke-linejoin="round" stroke-miterlimit="10" width="4" height="6"></rect>
    <path fill="none" stroke="#000000" stroke-width="2" stroke-linecap="round" stroke-linejoin="round" stroke-miterlimit="10" d="
		M12.5,21c0,0,11.2502,2,15.0003,2c4.625,0,13.875,0,18.5,0C49.3752,23,59.5,21,59.5,21l-4,3l-2,3h-35l-2-3L12.5,21z"></path>
  </g>
</svg>