<?xml version="1.0" encoding="utf-8"?>
<!-- Generator: Adobe Illustrator 21.1.0, SVG Export Plug-In . SVG Version: 6.00 Build 0)  -->
<svg version="1.1" id="emoji" xmlns="http://www.w3.org/2000/svg" xmlns:xlink="http://www.w3.org/1999/xlink" x="0px" y="0px"
	 viewBox="0 0 72 72" enable-background="new 0 0 72 72" xml:space="preserve">
<g id="_x26EA__xFE0F__1_">
	<path fill="#D0CFCE" d="M44,36V20.9v-0.4l-7.3-5.3c-0.4-0.3-1-0.3-1.4,0L28,20.5v0.4V36"/>
	<g>
		<polygon fill="#FFFFFF" points="18.9,66 19,42.1 36,27 53,42.1 53,66 		"/>
		<path d="M36,28.4l16,14.2V65H20V42.6L36,28.4 M36,26c-0.2,0-0.4,0.1-0.6,0.2L18.3,41.4c-0.2,0.2-0.3,0.5-0.3,0.7V66
			c0,0.5,0.4,1,0.9,1h34.1c0.5,0,0.9-0.4,0.9-1V42.1c0-0.3-0.1-0.6-0.3-0.7L36.6,26.2C36.4,26.1,36.2,26,36,26L36,26z"/>
	</g>
	<path fill="none" stroke="#000000" stroke-width="2" stroke-linecap="round" stroke-linejoin="round" stroke-miterlimit="10" d="
		M43,29v-8.1v-0.4l-6.4-5.3c-0.4-0.3-0.9-0.3-1.2,0L29,20.5v0.4V29"/>
	
		<line fill="none" stroke="#000000" stroke-width="2" stroke-linecap="round" stroke-miterlimit="10" x1="36" y1="14" x2="36" y2="6"/>
	
		<line fill="none" stroke="#000000" stroke-width="2" stroke-linecap="round" stroke-miterlimit="10" x1="32.5" y1="10" x2="39.5" y2="10"/>
	<path fill="#A57939" stroke="#000000" stroke-width="2" stroke-linecap="round" stroke-miterlimit="10" d="M41,57.9
		c0-3.9-3.3-6.1-4.6-6.8c-0.3-0.2-0.6-0.2-0.9,0c-1.2,0.7-4.6,3-4.6,6.8V65c0,0.5,0.4,1,0.9,1h8.2c0.5,0,0.9-0.4,0.9-1V57.9z"/>
	<circle fill="#92D3F5" stroke="#000000" stroke-width="2" stroke-miterlimit="10" cx="36" cy="42" r="5"/>
</g>
</svg>
