<svg id="emoji" xmlns="http://www.w3.org/2000/svg" viewBox="0 0 72 72">
  <g id="color">
    <path fill="#D0CFCE" d="M44,36V20.9009v-0.4092l-7.2941-5.2706c-0.4081-0.2948-1.0039-0.2948-1.412,0L28,20.4917v0.4092V36" stroke="none"/>
    <polygon fill="#FFFFFF" points="18.9473,66 19,42.1016 36.0449,26.9849 53.0078,42.1133 53,66" stroke="none"/>
    <path fill="#A57939" stroke="none" stroke-width="2" stroke-linecap="round" stroke-miterlimit="10" d="M41,57.943 c0-3.8509-3.3484-6.1256-4.5649-6.8249c-0.274-0.1575-0.5962-0.1575-0.8702,0C34.3483,51.8174,31,54.0921,31,57.943v7.0894 C31,65.5668,31.4092,66,31.914,66h8.172C40.5908,66,41,65.5668,41,65.0324V57.943z"/>
    <circle fill="#92D3F5" stroke="none" stroke-width="2" stroke-miterlimit="10" cx="36" cy="42" r="5"/>
  </g>
  <g id="hair"/>
  <g id="skin"/>
  <g id="skin-shadow"/>
  <g id="line">
    <path d="M36,28.3609l16,14.1949V65H20V42.5558L36,28.3609 M35.9999,26c-0.2207,0-0.4415,0.0789-0.6193,0.2367L18.3281,41.3654 C18.1197,41.5502,18,41.819,18,42.1017V66.027C18,66.5644,18.4241,67,18.9474,67h34.1052C53.5759,67,54,66.5644,54,66.027V42.1017 c0-0.2827-0.1197-0.5515-0.3281-0.7363L36.6193,26.2367C36.4414,26.0789,36.2207,26,35.9999,26L35.9999,26z" fill="#000000" stroke="none"/>
    <path fill="none" stroke="#000000" stroke-width="2" stroke-linecap="round" stroke-linejoin="round" stroke-miterlimit="10" d="M43,29v-8.0991v-0.4092l-6.3823-5.2706c-0.3571-0.2948-0.8784-0.2948-1.2355,0L29,20.4917v0.4092V29"/>
    <line fill="none" stroke="#000000" stroke-width="2" stroke-linecap="round" stroke-miterlimit="10" x1="36" y1="14" x2="36" y2="6"/>
    <line fill="none" stroke="#000000" stroke-width="2" stroke-linecap="round" stroke-miterlimit="10" x1="32.5" y1="10" x2="39.5" y2="10"/>
    <path fill="none" stroke="#000000" stroke-width="2" stroke-linecap="round" stroke-miterlimit="10" d="M41,57.943 c0-3.8509-3.3484-6.1256-4.5649-6.8249c-0.274-0.1575-0.5962-0.1575-0.8702,0C34.3483,51.8174,31,54.0921,31,57.943v7.0894 C31,65.5668,31.4092,66,31.914,66h8.172C40.5908,66,41,65.5668,41,65.0324V57.943z"/>
    <circle fill="none" stroke="#000000" stroke-width="2" stroke-miterlimit="10" cx="36" cy="42" r="5"/>
  </g>
</svg>
