<?xml version="1.0" encoding="utf-8"?>
<!-- Generator: Adobe Illustrator 21.1.0, SVG Export Plug-In . SVG Version: 6.00 Build 0)  -->
<svg version="1.1" id="emoji" xmlns="http://www.w3.org/2000/svg" xmlns:xlink="http://www.w3.org/1999/xlink" x="0px" y="0px"
	 viewBox="0 0 72 72" enable-background="new 0 0 72 72" xml:space="preserve">
<g id="_x26F0__xFE0F__1_">
	<path fill="#3F3F3F" d="M52,42.2c0,0-0.2-6.2-0.3-6.8c-0.1-0.6-0.7-1.6-1-2.1L48.2,29L42,24.5l-7.2,5.4l2.6,2.5l4.9,0.6"/>
	<polyline fill="#9B9B9A" points="50,39 53.4,48.1 60,56 12,56 16,49 18,37 25,18 29,22 33,25 37,33 42,33 50,39 	"/>
	
		<polyline fill="none" stroke="#000000" stroke-width="2" stroke-linecap="round" stroke-linejoin="round" stroke-miterlimit="10" points="
		60,55 53.4,48.1 50,39 	"/>
	
		<polyline fill="none" stroke="#000000" stroke-width="2" stroke-linecap="round" stroke-linejoin="round" stroke-miterlimit="10" points="
		37,33 33,25 29,22 25,18 18,37 16,49 12,55 	"/>
	
		<polyline fill="none" stroke="#000000" stroke-width="2" stroke-linecap="round" stroke-linejoin="round" stroke-miterlimit="10" points="
		31,24 32,33 42,33 50,39 49,45 50,50 48,52 45,55 	"/>
	
		<polyline fill="none" stroke="#000000" stroke-width="2" stroke-linecap="round" stroke-linejoin="round" stroke-miterlimit="10" points="
		39,28 43,25 47,29 50,34 	"/>
	<path fill="none" stroke="#9B9B9A" stroke-width="2" stroke-linecap="round" stroke-linejoin="round" stroke-miterlimit="10" d="
		M50,39"/>
</g>
</svg>
