<svg version="1.1" id="emoji" xmlns="http://www.w3.org/2000/svg" x="0" y="0" viewBox="0 0 72 72" enable-background="new 0 0 72 72" xml:space="preserve">
  <g id="color">
    <polygon fill="#D0CFCE" points="39,5.762 39,37 57.6865,37"/>
    <path fill="#A57939" d="M54,50c3-3,5-8,5-8H16c0,0-1,5,3,8H54z"/>
    <polygon fill="#D0CFCE" points="35.2622,13 35.2622,37 23.7378,37"/>
    <polyline fill="none" points="69,48.2353 68,68 4,68 4,48.2353"/>
    <path fill="#92D3F5" d="M68,47v21H4V47h1c3,0,9,3,15,3s10-3,16-3s11,3,16,3s7-3,15-3H68z"/>
  </g>
  <g id="hair"/>
  <g id="skin"/>
  <g id="skin-shadow"/>
  <g id="line">
    <polygon fill="none" stroke="#000000" stroke-width="2.0358" stroke-linecap="round" stroke-linejoin="round" stroke-miterlimit="10" points="39,5.762 39,37 57.6865,37"/>
    <path fill="none" stroke="#000000" stroke-width="2" stroke-linecap="round" stroke-linejoin="round" stroke-miterlimit="10" d="M54.1187,49.81C57.1187,46.81,59,42,59,42H16c0,0-1.2082,4.8375,2.7918,7.8375"/>
    <polygon fill="none" stroke="#000000" stroke-width="2" stroke-linecap="round" stroke-linejoin="round" stroke-miterlimit="10" points="35.2622,13 35.2622,37 23.7378,37"/>
    <line fill="none" stroke="#000000" stroke-width="2.0358" stroke-linecap="round" stroke-linejoin="round" stroke-miterlimit="10" x1="39" y1="6" x2="39" y2="42"/>
    <path fill="none" stroke="#000000" stroke-width="2" stroke-linecap="round" stroke-linejoin="round" stroke-miterlimit="10" d="M5,47c3,0,9,3,15,3s10-3,16-3s11,3,16,3s7-3,15-3"/>
  </g>
</svg>
