<svg id="emoji" viewBox="0 0 72 72" xmlns="http://www.w3.org/2000/svg">
  <g id="color">
    <g>
      <path fill="#fff" d="m45.5635,53.4091s.1371,1.3707,1.5992,1.4164,6.4881-.0914,6.4881-.0914c0,0,1.188-.3655.594-1.4621s-8.6813.1371-8.6813.1371Z"/>
      <path fill="#fff" d="m24.6826,50.759s-2.3759,2.6958.8224,3.4268,10.8288.3198,10.8288.3198c0,0,.7767-1.3707.2741-1.4164s-6.9451-2.5587-11.9254-2.3302Z"/>
      <path fill="#d0cfce" stroke="#d0cfce" stroke-linecap="round" stroke-linejoin="round" stroke-width="2" d="m58.439,49.9792c-.5974.6251-1.3702,1.0545-2.2165,1.2315.016,1.5921-.2583,5.0364-2.95,5.0364h-5.8325c-3.8651,0-4.127-3.195-4.1035-4.2935-1.2174.0228-2.4108.0176-3.494-.0344-.1707,4.3151-3.4828,4.3279-3.4828,4.3279h-10.4969c-5.2485,0-4.6654-5.8318-4.6654-5.8318.1019.1018-6.4149,0-6.4149,0,1.2749.604,1.8189,2.1271,1.2149,3.402-.0155.0327-.0317.0651-.0485.0971-1.5648,3.1296-6.9981,2.9156-6.9981,2.9156,0,0-1.1664.5832-1.1664,2.9159h44.3212c5.8318,0,6.7521-1.5811,7.29-2.2575,1.9085-2.3997.0172-5.9837-.9566-7.5092Z"/>
      <path fill="#9b9b9a" stroke="#9b9b9a" stroke-linecap="round" stroke-linejoin="round" stroke-width="2" d="m12.45,41.0845l1.1664,9.3308h9.3306v-3.499c4.5827,1.793,9.2542,3.3501,13.9961,4.6654,3.6893.8709,12.83,0,15.1625,0s6.9981,0,6.9981-3.4991c0,0-15.1625,1.1664-19.8279,1.1664-2.3327,0-16.3288-5.8318-16.3288-5.8318l-10.497-2.3327Z"/>
      <path fill="#92d3f5" d="m48.6066,38.7518c-2.8193-.5755-5.3679-2.0706-7.2457-4.2509l-1.3452,1.6154,1.3452-1.6154c-1.1756-1.2815-2.2083-2.687-3.08-4.1918l-2.3216,1.7178,2.3216-1.7178c-.9021-1.5342-1.6581-3.1498-2.2581-4.8254l-2.787,1.1973,2.787-1.1973c-.088-.2495-.1734-.4966-.2458-.7281-.9735-3.1112-2.3327-12.83-2.3327-12.83l-18.6618,3.4993s1.1664,8.1644,0,12.83c-1.1664,4.6656-3.499,8.1644-2.3327,12.83l10.4971,2.3327s13.9962,5.8317,16.3289,5.8317c4.6654,0,19.8279-1.1663,19.8279-1.1663,0-6.9985-3.499-8.1649-10.4971-9.3312Z"/>
    </g>
  </g>
  <g id="line">
    <g>
      <path fill="none" stroke="#000" stroke-linecap="round" stroke-linejoin="round" stroke-width="2.1846" d="m15.9489,53.9144c-.7488,1.2651-1.9924,2.1595-3.43,2.4669"/>
      <path fill="none" stroke="#000" stroke-linecap="round" stroke-linejoin="round" stroke-width="2.1846" d="m38.8657,54.9569c-.6168.763-1.5263,1.2312-2.5057,1.29h-10.4972c-1.7509.141-3.3997-.8397-4.1116-2.4455"/>
      <path fill="none" stroke="#000" stroke-linecap="round" stroke-linejoin="round" stroke-width="2.1846" d="m48.6066,38.7518c-2.8193-.5755-5.3679-2.0706-7.2457-4.2509l-2.79,2.2189,2.79-2.2189c-1.1756-1.2815-2.2083-2.687-3.08-4.1918l-3.6509,1.6818,3.6506-1.6818c-.9021-1.5342-1.6581-3.1498-2.2581-4.8254l-4.4137.99,4.4137-.99c-.088-.2495-.1734-.4966-.2458-.7281-.9735-3.1112-2.3327-12.83-2.3327-12.83l-18.6615,3.4993s1.1664,8.1644,0,12.83c-1.1664,4.6656-3.499,8.1644-2.3327,12.83l10.4971,2.3327s13.9962,5.8317,16.3289,5.8317c4.6654,0,19.8279-1.1663,19.8279-1.1663,0-6.9985-3.499-8.1649-10.4971-9.3312Z"/>
      <path fill="none" stroke="#000" stroke-linecap="round" stroke-linejoin="round" stroke-width="2.1846" d="m55.757,54.3411c-.3069,1.1209-1.3229,1.9001-2.485,1.906h-5.832c-1.2206.0967-2.4149-.3902-3.22-1.3127"/>
      <path fill="none" stroke="#000" stroke-linecap="round" stroke-linejoin="round" stroke-width="2.1846" d="m7.7844,59.7461h44.3212c5.8318,0,6.7521-1.5811,7.29-2.2575.8235-1.1464,1.0581-2.614.6329-3.96-.05-.2081-.1083-.414-.1731-.6163"/>
      <polyline fill="none" stroke="#000" stroke-linecap="round" stroke-linejoin="round" stroke-width="2.1846" points="13.043 45.576 13.634 50.306 22.965 50.306 22.965 47.754"/>
    </g>
  </g>
</svg>
