<?xml version="1.0" encoding="utf-8"?>
<!-- Generator: Adobe Illustrator 21.1.0, SVG Export Plug-In . SVG Version: 6.00 Build 0)  -->
<svg version="1.1" xmlns="http://www.w3.org/2000/svg" xmlns:xlink="http://www.w3.org/1999/xlink" x="0px" y="0px"
	 viewBox="0 0 72 72" enable-background="new 0 0 72 72" xml:space="preserve">
<g id="color">
</g>
<g id="emoji">
	<g id="farbe">
		<g>
			<circle fill="#FCEA2B" cx="30" cy="14.1" r="3"/>
			<g>
				<path fill="#FCEA2B" d="M29.7,23.6c0,0,0.3,3.7,3.3,9c0.2,0.4,1,1.7,1,1.7L31,46l-0.2,15h3.4L36,49l3-6l6-5v-4l-6-11"/>
			</g>
			<g>
				<polyline fill="#FCEA2B" points="45,37 50,47 60.2,53 59.2,56 47,51 40,43 				"/>
			</g>
			<path fill="#FCEA2B" d="M39,23c-2-4-4.4-4.2-6-3.6c-2.3,0.9-2.9,3.6-2,5.6"/>
			<circle fill="#EA5A47" cx="17" cy="41.1" r="5"/>
		</g>
		<g>
			<path fill="none" stroke="#000000" stroke-width="2" stroke-linecap="round" stroke-linejoin="round" stroke-miterlimit="10" d="
				M24,25"/>
		</g>
		<circle fill="none" stroke="#000000" stroke-width="2" stroke-miterlimit="10" cx="30" cy="14.1" r="3"/>
		<circle fill="none" stroke="#000000" stroke-width="2" stroke-miterlimit="10" cx="17" cy="41.1" r="5"/>
		<g>
			<path fill="none" stroke="#000000" stroke-width="2" stroke-linecap="round" stroke-linejoin="round" stroke-miterlimit="10" d="
				M33.3,31.4c0,0,0.4,0.8,0.9,1.8c0.5,1,0.6,2.6,0.2,3.7l-2.6,7.2c-0.4,1-0.7,2.8-0.7,3.9l-0.2,11c0,1.1,0.7,2,1.7,2
				c0.9,0,1.8-0.9,2-2l1.2-8c0.2-1.1,0.7-2.8,1.2-3.8l1.2-2.4c0.5-1,1.6-2.4,2.4-3.1l2.9-2.4c0.8-0.7,1.5-2.2,1.5-3.3l0,0
				c0-1.1-0.4-2.8-1-3.8L39,23"/>
		</g>
		<g>
			<path fill="none" stroke="#000000" stroke-width="2" stroke-linecap="round" stroke-linejoin="round" stroke-miterlimit="10" d="
				M31,25"/>
		</g>
		<g>
			<path fill="none" stroke="#000000" stroke-width="2" stroke-linecap="round" stroke-linejoin="round" stroke-miterlimit="10" d="
				M45,37l4.1,8.2c0.5,1,1.7,2.2,2.6,2.8l6.7,4c0.9,0.6,1.5,1.7,1.2,2.5c-0.3,0.8-1.3,1.2-2.3,0.7l-8.5-3.5c-1-0.4-2.4-1.4-3.2-2.3
				L40,43"/>
		</g>
		<path fill="none" stroke="#000000" stroke-width="2" stroke-linecap="round" stroke-linejoin="round" stroke-miterlimit="10" d="
			M39,23c-2-4-4.4-4.2-6-3.6c-1.2,0.5-1.9,1.4-2.2,2.5"/>
		<g>
			<path fill="none" stroke="#000000" stroke-width="2" stroke-linecap="round" stroke-linejoin="round" stroke-miterlimit="10" d="
				M34,23l-3,5.3c-0.5,1-1.9,1.9-2.9,2.2L21.1,32"/>
		</g>
	</g>
</g>
</svg>
