<?xml version="1.0" encoding="utf-8"?>
<!-- Generator: Adobe Illustrator 19.1.0, SVG Export Plug-In . SVG Version: 6.00 Build 0)  -->
<svg version="1.1" id="emoji" xmlns="http://www.w3.org/2000/svg" xmlns:xlink="http://www.w3.org/1999/xlink" x="0px" y="0px"
	 viewBox="0 0 72 72" enable-background="new 0 0 72 72" xml:space="preserve">
<g id="_x2702_">
	<path fill="#EA5A47" d="M25.5,52.1c-0.5,2.4-0.4,4.4,0.3,5.9c1.8,4.1,6.6,5.9,10.7,4.1c2-0.9,3.5-2.5,4.3-4.5
		c0.8-2,0.7-4.2-0.2-6.2c-1-2.2-2.9-3.8-5.2-4.5c-0.3-0.1-0.5-0.3-0.6-0.5c-0.1-0.3-0.1-0.6,0-0.8l1.2-2.8l-5.8-1.9
		C27.1,47.7,25.6,51.4,25.5,52.1z M34.7,49.3c1.4,0.3,2.7,1.2,3.5,2.5c0.8,1.3,1,2.7,0.7,4.2s-1.2,2.7-2.5,3.5
		c-0.9,0.6-1.9,0.9-2.9,0.9c-0.4,0-0.8,0-1.2-0.1c-1.4-0.3-2.7-1.2-3.5-2.5c-0.8-1.3-1-2.7-0.7-4.2c0.3-1.4,1.2-2.7,2.5-3.5
		C31.8,49.2,33.3,49,34.7,49.3z"/>
	<path fill="#D0CFCE" d="M36.7,40.9L48.3,13c-4.9,1.6-7.9,6.2-10,10.2c-0.1,0.1-0.2,0.3-0.2,0.5c0,0.1-0.1,0.2-0.2,0.3
		c0,0.1-0.1,0.2-0.1,0.3c-0.1,0.1-0.1,0.2-0.2,0.4c-0.1,0.1-0.1,0.2-0.2,0.4c-0.1,0.2-0.2,0.4-0.3,0.7c0,0,0,0.1-0.1,0.1
		c-0.1,0.2-0.2,0.4-0.3,0.6c-0.1,0.1-0.1,0.2-0.2,0.3c-0.1,0.2-0.2,0.4-0.3,0.6c-0.1,0.1-0.1,0.2-0.2,0.4c-0.8,1.7-1.7,3.6-2.6,5.7
		c0,0,0,0.1-0.1,0.1c-0.4,0.8-0.7,1.6-1.1,2.5c0,0,0,0.1,0,0.1c-0.4,0.8-0.7,1.7-1.1,2.5c0,0,0,0.1,0,0.1C31.1,38.8,31,38.9,31,39
		L36.7,40.9z"/>
	<path fill="#9C9C9A" d="M59.5,26L47,31.3c-0.5,0.2-1.1,0-1.3-0.5c-0.2-0.5,0-1.1,0.5-1.3c0,0,0,0,0,0l-3.1,1.3l-4.9,11.7
		c0,0,0,0,0,0l0,0.1l-0.5,1.2l5.2-2.5l0,0c-0.1,0-0.2,0.1-0.3,0.1c-0.4,0-0.7-0.2-0.9-0.6c-0.2-0.5,0-1.1,0.5-1.3
		c0.3-0.2,0.7-0.3,1-0.5l0,0c0.4-0.2,0.7-0.3,1-0.5c0,0,0,0,0,0c0.3-0.1,0.6-0.3,0.9-0.4c0,0,0.1,0,0.1,0c0.3-0.1,0.5-0.3,0.8-0.4
		c0,0,0.1,0,0.1-0.1c0.2-0.1,0.5-0.2,0.7-0.3c0,0,0.1,0,0.1-0.1c0.2-0.1,0.4-0.2,0.6-0.3c0.1,0,0.1-0.1,0.2-0.1
		c0.2-0.1,0.3-0.2,0.5-0.2c0.1,0,0.2-0.1,0.3-0.1c0.1-0.1,0.2-0.1,0.3-0.2c0.2-0.1,0.4-0.2,0.5-0.3C53.2,33.9,57.9,31,59.5,26z"/>
	<path fill="#D22F27" d="M27,39L27,39L27,39c-0.2,0.1-0.2,0.1-0.3,0.2c-0.4,0.1-0.8,0-1-0.2c0,0,0,0,0,0c-0.1-0.1-0.2-0.2-0.2-0.4
		c-0.7-2.1-2.3-3.9-4.4-4.8c-4.1-1.8-8.9,0-10.7,4.1c-1.8,4.1,0,8.9,4.1,10.7c1.5,0.7,3.5,0.8,5.9,0.3c0.1,0,0.5-0.1,1.6-0.5
		c0.1,0,0.2-0.1,0.4-0.1c0.1,0,0.2,0,0.3,0.1l0,0l0,0c0.3,0.1,0.5,0.3,0.6,0.6c0.2,0.4,0,0.9-0.4,1.2l1.5-0.8
		c1.2-3,3.3-7.7,4.3-10.1c0.3-0.6,0.6-1.3,0.9-1.9l-2.2,1l0,0C27.4,38.6,27.2,38.8,27,39z M22.4,43.8c-0.8,1.3-2,2.1-3.5,2.5
		c-0.4,0.1-0.8,0.1-1.2,0.1c-2.5,0-4.8-1.7-5.4-4.3c-0.3-1.4-0.1-2.9,0.7-4.2c0.8-1.3,2-2.1,3.5-2.5c1.4-0.3,2.9-0.1,4.2,0.7
		c1.3,0.8,2.1,2,2.5,3.5C23.5,41,23.2,42.5,22.4,43.8z"/>
	<g>
		<g>
			<g>
				
					<path fill="none" stroke="#000000" stroke-width="2" stroke-linecap="round" stroke-linejoin="round" stroke-miterlimit="10" d="
					M29.6,39.6c3.1-6.9,6.7-14.6,7.8-16.9c2.1-4,5.7-10.2,12.5-11.2L37.3,42.1"/>
			</g>
		</g>
		<path fill="none" stroke="#000000" stroke-width="2" stroke-linecap="round" stroke-linejoin="round" stroke-miterlimit="10" d="
			M41.5,51c-1.1-2.5-3.3-4.3-5.8-5l1.6-3.8l-7.7-2.5c-2.5,5.6-4.9,11.2-5.1,12.3c-0.4,1.8-0.6,4.4,0.3,6.5c2,4.6,7.4,6.7,12,4.6
			C41.5,61,43.5,55.6,41.5,51z M37.9,55.7c-0.6,2.5-3,4-5.5,3.4c-2.5-0.6-4-3-3.4-5.5c0.6-2.5,3-4,5.5-3.4
			C36.9,50.8,38.5,53.3,37.9,55.7z"/>
		<g>
			<path fill="none" stroke="#000000" stroke-width="2" stroke-linecap="round" stroke-linejoin="round" stroke-miterlimit="10" d="
				M26.4,38.2c-0.8-2.3-2.5-4.3-4.9-5.4c-4.6-2-10,0-12,4.6c-2,4.6,0,10,4.6,12c2.1,1,4.7,0.7,6.5,0.3c0.3-0.1,0.9-0.3,1.7-0.6
				 M18.7,45.3c-2.5,0.6-4.9-1-5.5-3.4c-0.6-2.5,1-4.9,3.4-5.5c2.5-0.6,4.9,1,5.5,3.4C22.7,42.3,21.2,44.7,18.7,45.3z"/>
		</g>
		<g>
			<path fill="none" stroke="#000000" stroke-width="2" stroke-linecap="round" stroke-linejoin="round" stroke-miterlimit="10" d="
				M46.6,30.3l14.2-6c-1,6.8-7.2,10.5-11.2,12.5c-1.3,0.7-3.3,1.7-7.2,3.5"/>
		</g>
	</g>
</g>
</svg>
