<?xml version="1.0" encoding="utf-8"?>
<!-- Generator: Adobe Illustrator 21.1.0, SVG Export Plug-In . SVG Version: 6.00 Build 0)  -->
<svg version="1.1" id="emoji" xmlns="http://www.w3.org/2000/svg" xmlns:xlink="http://www.w3.org/1999/xlink" x="0px" y="0px"
	 viewBox="0 0 72 72" enable-background="new 0 0 72 72" xml:space="preserve">
<g id="_x2702_">
	<path fill="#EA5A47" d="M24.5,52.1c-0.5,2.7-0.4,5,0.3,6.7c2.1,4.6,7.5,6.7,12.1,4.6c2.2-1,3.9-2.8,4.8-5.1c0.9-2.3,0.8-4.8-0.2-7
		c-1.1-2.5-2.5-4.4-5.1-5.1c-0.3-0.1,0-1.1,0.1-1.4l0.8-2.8l-7.6-2.5C26.3,47.2,24.6,51.4,24.5,52.1z M34.5,50.1
		c1.2,0.3,2.3,1,2.9,2.1c0.7,1.1,0.9,2.3,0.6,3.6C37.8,57,37,58,36,58.7c-0.8,0.5-1.6,0.7-2.5,0.7c-0.4,0-0.7,0-1.1-0.1
		c-1.2-0.3-2.3-1-2.9-2.1c-0.7-1.1-0.9-2.3-0.6-3.6c0.3-1.2,1-2.3,2.1-2.9C32,50,33.3,49.8,34.5,50.1z"/>
	<path fill="#D0CFCE" d="M37,42.1l12.1-30c-2.2,0.7-4.6,1.2-6.5,3.2c-2.4,2.5-4.2,6.4-4.2,6.4s-7.6,16.5-8,17.3
		C30.5,39,37,42.1,37,42.1z"/>
	<path fill="#9C9C9A" d="M61,24.5c0,0-15.3,5.2-14.8,5c0,0,0,0,0,0l-3.9,1.6l-5.1,13l5.7-2.7l0,0c-0.1,0,9.4-5.6,9.6-5.7
		C56.4,33.5,59.4,29.4,61,24.5z"/>
	<path fill="#D22F27" d="M21.8,32.9c-4.1-1.8-10.4,0.2-12.2,4.3c-1.8,4.1-0.2,10.4,3.9,12.3c1.5,0.7,3.9,1.1,6.3,0.6
		c0.1,0,3.4-0.2,3,0l2.3-1.1c1.2-3,4.7-11.3,5-12l-2.7,1.3l0,0C27.4,38.6,23.9,33.8,21.8,32.9z M21.6,43.2c-0.6,1-1.7,1.7-2.8,2
		c-0.3,0.1-0.7,0.1-1,0.1c-2.1,0-4-1.4-4.4-3.5c-0.3-1.2-0.1-2.4,0.6-3.4c0.6-1,1.7-1.7,2.8-2c1.2-0.3,2.4-0.1,3.4,0.6
		c1,0.6,1.7,1.7,2,2.8C22.4,41,22.2,42.2,21.6,43.2z"/>
	<g>
		<g>
			<g>
				
					<path fill="none" stroke="#000000" stroke-width="2" stroke-linecap="round" stroke-linejoin="round" stroke-miterlimit="10" d="
					M29.6,39.6c3.1-6.9,6.7-14.6,7.8-16.9c2.1-4,5.7-10.2,12.5-11.2L37.3,42.1"/>
			</g>
		</g>
		<path fill="none" stroke="#000000" stroke-width="2" stroke-linecap="round" stroke-linejoin="round" stroke-miterlimit="10" d="
			M41.5,51c-1.1-2.5-3.3-4.3-5.8-5l1.6-3.8l-7.7-2.5c-2.5,5.6-4.9,11.2-5.1,12.3c-0.4,1.8-0.6,4.4,0.3,6.5c2,4.6,7.4,6.7,12,4.6
			C41.5,61,43.5,55.6,41.5,51z M37.9,55.7c-0.6,2.5-3,4-5.5,3.4c-2.5-0.6-4-3-3.4-5.5c0.6-2.5,3-4,5.5-3.4
			C36.9,50.8,38.5,53.3,37.9,55.7z"/>
		<g>
			<path fill="none" stroke="#000000" stroke-width="2" stroke-linecap="round" stroke-linejoin="round" stroke-miterlimit="10" d="
				M26.4,38.2c-0.8-2.3-2.5-4.3-4.9-5.4c-4.6-2-10,0-12,4.6c-2,4.6,0,10,4.6,12c2.1,1,4.7,0.7,6.5,0.3c0.3-0.1,0.9-0.3,1.7-0.6
				 M18.7,45.3c-2.5,0.6-4.9-1-5.5-3.4c-0.6-2.5,1-4.9,3.4-5.5c2.5-0.6,4.9,1,5.5,3.4C22.7,42.3,21.2,44.7,18.7,45.3z"/>
		</g>
		<g>
			<path fill="none" stroke="#000000" stroke-width="2" stroke-linecap="round" stroke-linejoin="round" stroke-miterlimit="10" d="
				M46.6,30.3l14.2-6c-1,6.8-7.2,10.5-11.2,12.5c-1.3,0.7-3.3,1.7-7.2,3.5"/>
		</g>
	</g>
</g>
</svg>
