<?xml version="1.0" encoding="utf-8"?>
<!-- Generator: Adobe Illustrator 21.1.0, SVG Export Plug-In . SVG Version: 6.00 Build 0)  -->
<svg version="1.1" id="Ebene_3" xmlns="http://www.w3.org/2000/svg" xmlns:xlink="http://www.w3.org/1999/xlink" x="0px" y="0px"
	 viewBox="0 0 72 72" enable-background="new 0 0 72 72" xml:space="preserve">
<g id="_x2708__xFE0F__1_">
	<path fill="#9C9B99" d="M41.4,23.3l-3.7-0.5l-21.3-3.5c-2.5-0.4-5.1,0.4-7,2.2L5.9,25c-0.4,0.4-0.4,1,0,1.4
		c0.1,0.1,0.3,0.2,0.4,0.2l20.9,6.6l3.4,1.1"/>
	<path fill="#9C9B99" d="M36.2,37.9l2.4,6.7l6.6,21c0.2,0.5,0.7,0.8,1.3,0.7c0.2,0,0.3-0.1,0.4-0.2l3.6-3.6c1.8-1.8,2.7-4.4,2.2-7
		L49,34.1l-0.9-5.9L36.2,37.9z"/>
	<path fill="#CFCFCE" d="M9.3,49.6l8.6,3.7c0.2,0.1,0.4,0.3,0.5,0.5l3.5,8.8l4-4l-0.7-6c0-0.3,0.1-0.6,0.3-0.8l28.8-28.8
		c1-1.2,1.3-2.9,0.8-4.4l0,0L55,18.1c-0.2-0.7-0.7-1.2-1.4-1.4L53,16.5c-1.5-0.5-3.1-0.2-4.3,0.8L19.9,46.2
		c-0.2,0.2-0.5,0.3-0.8,0.3l-5.8-0.8L9.3,49.6z"/>
	<path fill="none" stroke="#000000" stroke-width="2" stroke-linecap="round" stroke-linejoin="round" d="M48.4,36.1l3.2,19.5
		c0.4,2.2-0.4,4.5-2,6.1l-3.6,3.6l-6.5-20.8"/>
	<path fill="none" stroke="#000000" stroke-width="2" stroke-linecap="round" stroke-linejoin="round" d="M27.2,32.2L6.6,25.7
		l3.6-3.6c1.6-1.6,3.9-2.3,6.1-2l19.5,3.2"/>
	<path fill="none" stroke="#000000" stroke-width="2" stroke-linejoin="round" d="M56.1,18.5L56,17.9c-0.3-1-1.1-1.9-2.1-2.1
		l-0.6-0.2c-1.8-0.7-3.8-0.2-5.2,1.1L19.2,45.5l-6.3-0.8l-5.3,5.3l10,4.3l0,0l4.1,10.2l5.4-5.4l-0.7-6.4l28.8-28.8
		C56.4,22.3,56.8,20.3,56.1,18.5z"/>
</g>
</svg>
