<?xml version="1.0" encoding="utf-8"?>
<!-- Generator: Adobe Illustrator 21.1.0, SVG Export Plug-In . SVG Version: 6.00 Build 0)  -->
<svg version="1.1" id="emoji" xmlns="http://www.w3.org/2000/svg" xmlns:xlink="http://www.w3.org/1999/xlink" x="0px" y="0px"
	 viewBox="0 0 72 72" enable-background="new 0 0 72 72" xml:space="preserve">
<g id="_x270A__1_">
	<path fill="#FCEA2F" d="M21.2,36.2c-2.1-0.2-3.6-1.9-3.5-4v-7c-0.3-1.9,1.1-3.7,3-4c1.9-0.3,3.7,1.1,4,3c0,0.3,0,0.6,0,0.9v7
		C24.9,34.2,23.3,36,21.2,36.2z"/>
	<path fill="#FCEA2F" d="M41.8,38.9c-2.1-0.2-3.6-1.9-3.5-4v-15c-0.3-1.9,1.1-3.7,3-4c1.9-0.3,3.7,1.1,4,3c0,0.3,0,0.6,0,0.9v15
		C45.4,37,43.8,38.8,41.8,38.9z"/>
	<path fill="#FCEA2F" d="M35.2,38.9c-2.1-0.2-3.6-1.9-3.5-4v-15c-0.3-1.9,1.1-3.7,3-4c1.9-0.3,3.7,1.1,4,3c0,0.3,0,0.6,0,0.9v15
		C38.8,37,37.3,38.8,35.2,38.9z"/>
	<path fill="#FCEA2F" d="M27.6,40.2c-2.1-0.2-3.6-1.9-3.5-4v-15c-0.3-1.9,1.1-3.7,3-4c1.9-0.3,3.7,1.1,4,3c0,0.3,0,0.6,0,0.9v15
		C31.2,38.2,29.6,40,27.6,40.2z"/>
	<path fill="#FCEA2F" d="M20,41.2c-2.1-0.2-3.6-1.9-3.5-4v-15c-0.3-1.9,1.1-3.7,3-4c1.9-0.3,3.7,1.1,4,3c0,0.3,0,0.6,0,0.9v15
		C23.7,39.2,22.1,41,20,41.2z"/>
	<path fill="#FCEA2F" d="M32,16.3c-0.3-1.9,2.8-0.2,6.2,0.5c2.3,0.4,4.6-3,4.8-1.1c-0.2,0.9,3.7-2.5,3.2,7.8"/>
	<g>
		<line fill="#FCEA2F" x1="44.2" y1="20.1" x2="44.2" y2="20.7"/>
		<line fill="#FCEA2F" x1="52.6" y1="20.3" x2="52.6" y2="21.6"/>
	</g>
	<path fill="#FCEA2F" d="M15.8,36.2c1.1,8.9,10.8,19.6,19.5,19.5c9.7,0,19.4-8.7,19.4-19.1l0,0L53.6,26c0-5.2-14.1-4.1-16.3-4.1
		L16,29.4"/>
	<path fill="none" stroke="#010101" stroke-width="2" stroke-linecap="round" stroke-linejoin="round" d="M43.7,35v-2.3
		c0-1.1-1.8-2.2-4-2.4l-1-0.1c-2.2-0.2-4-1.9-4-3.8s1.8-3.3,4-3.3h10c2.2,0,4.1,1.6,4.2,3.8L53.6,38"/>
	<path fill="none" stroke="#010101" stroke-width="2" stroke-linecap="round" stroke-linejoin="round" d="M38,38.1
		c1.6-1.5,3.6-2.5,5.8-3"/>
	<path fill="none" stroke="#000000" stroke-width="2" stroke-linecap="round" stroke-miterlimit="10" d="M16.8,39.5
		c1.2,9,9,15.7,18.1,15.6c10.1,0,18.8-7.2,18.8-17.7"/>
	
		<line fill="none" stroke="#010101" stroke-width="2" stroke-linecap="round" stroke-linejoin="round" x1="16.8" y1="39.5" x2="16.8" y2="36"/>
	<path fill="none" stroke="#010101" stroke-width="2" stroke-linecap="round" stroke-linejoin="round" d="M20.3,33
		c-2.1-0.2-3.6-1.9-3.5-4v-7c-0.3-1.9,1.1-3.7,3-4c1.9-0.3,3.7,1.1,4,3c0,0.3,0,0.6,0,0.9v7C23.9,31,22.4,32.8,20.3,33z"/>
	<path fill="none" stroke="#010101" stroke-width="2" stroke-linecap="round" stroke-linejoin="round" d="M28.7,31.8
		c-3.3,1.2-5-1.9-4.9-4v-7c-0.3-1.9,1.1-3.7,3-4c1.9-0.3,3.7,1.1,4,3c0,0.3,0,0.6,0,0.9"/>
	<path fill="none" stroke="#010101" stroke-width="2" stroke-linecap="round" stroke-linejoin="round" d="M30.9,24.5v-5.3
		c-0.3-1.9,1.1-3.7,3-4c1.9-0.3,3.7,1.1,4,3c0,0.3,0,0.6,0,0.9"/>
	<path fill="none" stroke="#010101" stroke-width="2" stroke-linecap="round" stroke-linejoin="round" d="M38,19.1
		c-0.3-1.9,1.1-3.7,3-4c1.9-0.3,3.7,1.1,4,3c0,0.3,0,0.6,0,0.9"/>
</g>
</svg>
