<?xml version="1.0" encoding="utf-8"?>
<!-- Generator: Adobe Illustrator 21.1.0, SVG Export Plug-In . SVG Version: 6.00 Build 0)  -->
<svg version="1.1" id="emoji" xmlns="http://www.w3.org/2000/svg" xmlns:xlink="http://www.w3.org/1999/xlink" x="0px" y="0px"
	 viewBox="0 0 72 72" enable-background="new 0 0 72 72" xml:space="preserve">
<g id="_x270D__xFE0F__1_">
	<path fill="#FCEA2F" d="M12.5,54.7c-1.2-1.3-2.3-3-2.2-4L13,32.2c0-0.8,0.2-1.6,1.1-2.1l16.3-8.3c0.5-0.3-1.2-2.8,4.2-0.5"/>
	<path fill="#FCEA2F" d="M20.5,40.5l0.7-4c0.1-0.5,0.6-1.4,1-1.5l2.1-0.8"/>
	<polyline fill="#3F3F3F" points="26.1,35.8 45.9,6.2 50.2,9.1 32.1,33.6 	"/>
	<polyline fill="#3F3F3F" points="18.9,53.7 15.6,58.5 9.7,62.9 11.7,55.8 15.6,50.3 	"/>
	<g>
		<path fill="#FCEA2F" d="M21.9,53.1c2.4,7,10.9,6.7,5-2.2"/>
		<path fill="#FCEA2F" d="M23.4,52c4.9,8.6,15.6,8.7,6.3-4.3"/>
		<path fill="#FCEA2F" d="M28.1,49.3C41.4,67,42.2,53.7,33.2,48"/>
		<line fill="#FCEA2F" x1="32.1" y1="55.5" x2="29.2" y2="51.9"/>
		<line fill="#FCEA2F" x1="39.2" y1="55" x2="35.4" y2="51.1"/>
	</g>
	<path fill="#FCEA2F" d="M56.8,52.2c-13,2.8-15-3.4-21.2-4.4c-5.1-1.1-10.8,2.3-12.7,3.9c-4.4,4.3-10.3-1.6-4.8-5.7l7.3-6.7l8.3-3.9
		L41.4,25l18.6,10c5.7,5.7,5.7,14.8,0,20.5c-4.5,0.5-12.5,4.2-23.6,2.7"/>
	<polygon fill="#FCEA2F" points="38.1,42.9 16.5,42.9 39.1,22.7 44.3,25.4 	"/>
	<rect x="32.1" y="45.9" fill="#FCEA2F" width="21.5" height="11.3"/>
	<path fill="#3F3F3F" d="M34,35.2c-2.5,0.1-5.8,1.4-8.3,1.5c-0.5,0-0.1-1.2-0.6-1.2c2.9-4.3,5.8-8.5,8.7-12.8l7,0.1L34,35.2z"/>
	<path fill="none" stroke="#1D1D1B" stroke-width="2" stroke-linecap="round" stroke-linejoin="round" stroke-miterlimit="10" d="
		M10.6,52.6L13,32.2c0-0.8,0.2-1.6,1.1-2.1l17.2-8.7"/>
	<path fill="none" stroke="#1D1D1B" stroke-width="2" stroke-linecap="round" stroke-linejoin="round" stroke-miterlimit="10" d="
		M19.5,39.5l0.7-4c0.1-0.5,0.6-1.4,1-1.5l2.1-0.8"/>
	
		<polyline fill="none" stroke="#1D1D1B" stroke-width="2" stroke-linecap="round" stroke-linejoin="round" stroke-miterlimit="10" points="
		26.1,35.8 45.9,6.2 50.2,9.1 33.7,34.2 	"/>
	
		<polyline fill="none" stroke="#000000" stroke-width="2" stroke-linecap="round" stroke-linejoin="round" stroke-miterlimit="10" points="
		15.6,56.8 13.5,59.5 8.7,64.9 11.5,58 13.5,55 	"/>
	<path fill="none" stroke="#000000" stroke-width="2" stroke-linecap="round" stroke-linejoin="round" stroke-miterlimit="10" d="
		M43.7,26.3c0,0,12.6,6,16.3,8.8c6.4,4.8,5.7,14.8,0,20.5c-4.5,0.5-8.1,2-18.2,2"/>
	<path fill="none" stroke="#010101" stroke-width="2" stroke-linecap="round" stroke-linejoin="round" d="M29.1,55.9
		c0.6,3.2-4.4,4.8-5.1,0.1"/>
	<path fill="none" stroke="#010101" stroke-width="2" stroke-linecap="round" stroke-linejoin="round" d="M34,55.8
		c0.6,3.2-4.3,4.1-4.9,0.1"/>
	<path fill="none" stroke="#010101" stroke-width="2" stroke-linecap="round" stroke-linejoin="round" d="M39,55.4
		c0.7,3.2-4.4,3.7-5,0.4"/>
	
		<line fill="none" stroke="#010101" stroke-width="2" stroke-linecap="round" stroke-linejoin="round" stroke-miterlimit="10" x1="39" y1="55.4" x2="38.5" y2="52.6"/>
	
		<line fill="none" stroke="#010101" stroke-width="2" stroke-linecap="round" stroke-linejoin="round" stroke-miterlimit="10" x1="34" y1="55.8" x2="33" y2="51.2"/>
	
		<line fill="none" stroke="#010101" stroke-width="2" stroke-linecap="round" stroke-linejoin="round" stroke-miterlimit="10" x1="29.1" y1="55.9" x2="28.5" y2="52.9"/>
	
		<line fill="none" stroke="#010101" stroke-width="2" stroke-linecap="round" stroke-linejoin="round" stroke-miterlimit="10" x1="24" y1="56.1" x2="23.9" y2="55.4"/>
	<path fill="none" stroke="#000000" stroke-width="2" stroke-linecap="round" stroke-linejoin="round" stroke-miterlimit="10" d="
		M56.8,52.2c-13,2.8-15-3.4-21.2-4.4c-5.1-1.1-10.8,2.3-12.7,3.9c-4.4,4.3-10.3-1.6-4.8-5.7c0,0,5-4.7,7.3-5.7
		c2.2-1,9.6-2.1,9.6-2.1"/>
</g>
</svg>
