<?xml version="1.0" encoding="utf-8"?>
<!-- Generator: Adobe Illustrator 19.1.0, SVG Export Plug-In . SVG Version: 6.00 Build 0)  -->
<svg version="1.1" id="emoji" xmlns="http://www.w3.org/2000/svg" xmlns:xlink="http://www.w3.org/1999/xlink" x="0px" y="0px"
	 viewBox="0 0 72 72" enable-background="new 0 0 72 72" xml:space="preserve">
<g id="_x271D__xFE0F_">
	
		<path fill="#B399C8" stroke="#1D1D1B" stroke-width="2" stroke-linecap="round" stroke-linejoin="round" stroke-miterlimit="10" d="
		M53.1,28.4v2.9c0,1.7-1.3,3-3,3h-6.7c-1.7,0-3,1.3-3,3V58c0,1.7-1.3,3-3,3h-2.9c-1.7,0-3-1.3-3-3V37.3c0-1.7-1.3-3-3-3h-6.7
		c-1.7,0-3-1.3-3-3v-2.9c0-1.7,1.3-3,3-3h6.7c1.7,0,3-1.3,3-3V14c0-1.7,1.3-3,3-3h2.9c1.7,0,3,1.3,3,3v8.4c0,1.7,1.3,3,3,3h6.7
		C51.8,25.4,53.1,26.7,53.1,28.4z"/>
</g>
</svg>
