<?xml version="1.0" encoding="utf-8"?>
<!-- Generator: Adobe Illustrator 19.1.0, SVG Export Plug-In . SVG Version: 6.00 Build 0)  -->
<svg version="1.1" id="emoji" xmlns="http://www.w3.org/2000/svg" xmlns:xlink="http://www.w3.org/1999/xlink" x="0px" y="0px"
	 viewBox="0 0 72 72" enable-background="new 0 0 72 72" xml:space="preserve">
<g id="_x2728__1_">
	<path fill="#FCEA2B" d="M25.7,40.1c0.1,0.8,0.9,1.5,2,1.7L39.6,44c0.6,0.1,0.6,0.7,0,0.8c-3.2,0.6-9,1.7-11.9,2.3
		c-1,0.2-1.8,0.9-2,1.7l-3.2,17.5c-0.1,0.5-1,0.5-1.1,0l-3.2-17.5c-0.1-0.8-0.9-1.5-2-1.7c-2.9-0.5-8.8-1.7-11.9-2.3
		c-0.6-0.1-0.6-0.7,0-0.8c3.2-0.6,9-1.7,11.9-2.3c1-0.2,1.2-1.1,1.3-1.9l2.5-14.1c0.1-0.5,2.3-3.6,2.4-3.1
		C23.5,28.1,25.5,39,25.7,40.1z"/>
	<path fill="#F1B31C" d="M21.6,66.2l2.6-15.4c-2.8-4.6-4.9-9.4-6.2-12.8l-0.4,2.1c-0.1,0.8-0.9,1.5-1.8,1.7
		c-2.7,0.5-8.1,1.7-11.1,2.3c-0.5,0.1-0.5,0.7,0,0.8c2.9,0.6,8.4,1.7,11.1,2.3c1,0.2,1.7,0.9,1.8,1.7l2.9,17.5
		C20.7,66.7,21.6,66.7,21.6,66.2z"/>
	
		<path fill="none" stroke="#000000" stroke-width="0.2549" stroke-linecap="round" stroke-linejoin="round" stroke-miterlimit="10" d="
		M20.7,29.5"/>
	<path fill="none" stroke="#000000" stroke-width="2" stroke-linecap="round" stroke-linejoin="round" stroke-miterlimit="10" d="
		M20,32l2.1-11.2l0.7,4.2c0.1,0.7,2.3,13.9,2.3,13.9c0.3,1.6,1.6,2.8,3.5,3.2L40,44.4l-11.3,2.3c-1.9,0.4-3.3,1.6-3.5,3.2l-3,18.1
		l-3-18.1c-0.3-1.6-1.6-2.8-3.5-3.2L4.3,44.4l11.3-2.3c1.9-0.4,3.1-2.6,3.4-4.1"/>
	<path fill="#FCEA2B" d="M46.7,19.3c0.1,0.6,0.7,1.1,1.4,1.2l8.6,1.6c0.4,0.1,0.4,0.5,0,0.6c-2.3,0.4-6.5,1.2-8.6,1.6
		c-0.8,0.1-1.3,0.6-1.4,1.2l-2.3,12.6c-0.1,0.3-0.7,0.3-0.8,0l-2.3-12.6c-0.1-0.6-0.7-1.1-1.4-1.2c-2.1-0.4-6.3-1.2-8.6-1.6
		c-0.4-0.1-0.4-0.5,0-0.6c2.3-0.4,6.5-1.2,8.6-1.6c0.8-0.1,0.8-0.8,1-1.4l1.8-10.2c0.1-0.3,1.7-2.6,1.7-2.2
		C45.1,10.6,46.5,18.5,46.7,19.3z"/>
	<path fill="#F1B31C" d="M43.7,38.2L45.6,27c-2-3.3-3.5-6.8-4.5-9.3l-0.3,1.5c-0.1,0.6-0.6,1.1-1.3,1.2c-1.9,0.4-5.9,1.2-8,1.6
		c-0.4,0.1-0.4,0.5,0,0.6c2.1,0.4,6,1.2,8,1.6c0.7,0.1,1.2,0.6,1.3,1.2L43,38.2C43.1,38.5,43.7,38.5,43.7,38.2z"/>
	
		<path fill="none" stroke="#000000" stroke-width="0.1841" stroke-linecap="round" stroke-linejoin="round" stroke-miterlimit="10" d="
		M43.1,11.6"/>
	<path fill="none" stroke="#000000" stroke-width="2" stroke-linecap="round" stroke-linejoin="round" stroke-miterlimit="10" d="
		M42.6,13.4l1.5-8.1l0.5,3c0.1,0.5,1.7,10,1.7,10c0.2,1.1,1.2,2,2.5,2.3l8.2,1.7l-8.2,1.7c-1.4,0.3-2.3,1.2-2.5,2.3l-2.2,13.1
		l-2.2-13.1c-0.2-1.1-1.2-2-2.5-2.3l-8.2-1.7l8.2-1.7c1.4-0.3,2.3-1.8,2.5-3"/>
	<path fill="#FCEA2B" d="M56.9,48.9c0.1,0.5,0.5,0.8,1.2,1l7.1,1.3c0.3,0.1,0.3,0.4,0,0.5c-1.9,0.3-5.4,1-7.1,1.3
		c-0.6,0.1-1.1,0.5-1.2,1L55,64c-0.1,0.3-0.6,0.3-0.6,0l-1.9-10.1c-0.1-0.5-0.5-0.8-1.2-1c-1.7-0.3-5.2-1-7.1-1.3
		c-0.3-0.1-0.3-0.4,0-0.5c1.9-0.3,5.4-1,7.1-1.3c0.6-0.1,0.7-0.7,0.8-1.1l1.5-8.1c0.1-0.3,1.4-2.1,1.4-1.8
		C55.6,42,56.8,48.3,56.9,48.9z"/>
	<path fill="#F1B31C" d="M54.8,64l1.5-8.9c-1.6-2.7-2.8-5.4-3.6-7.4l-0.2,1.2c-0.1,0.5-0.5,0.8-1,1c-1.6,0.3-4.7,1-6.4,1.3
		c-0.3,0.1-0.3,0.4,0,0.5c1.7,0.3,4.8,1,6.4,1.3c0.6,0.1,1,0.5,1,1L54.2,64C54.3,64.3,54.8,64.3,54.8,64z"/>
	<path fill="none" stroke="#000000" stroke-width="2" stroke-linecap="round" stroke-linejoin="round" stroke-miterlimit="10" d="
		M53.8,44.3l1.2-6.4l0.4,2.4c0.1,0.4,1.3,8,1.3,8c0.2,0.9,0.9,1.6,2,1.8l6.5,1.3l-6.5,1.3c-1.1,0.2-1.9,0.9-2,1.8L55.1,65l-1.7-10.4
		c-0.2-0.9-0.9-1.6-2-1.8l-6.5-1.3l6.5-1.3c1.1-0.2,1.8-1.5,2-2.4"/>
</g>
</svg>
