<?xml version="1.0" encoding="utf-8"?>
<!-- Generator: Adobe Illustrator 21.1.0, SVG Export Plug-In . SVG Version: 6.00 Build 0)  -->
<svg version="1.1" id="emoji" xmlns="http://www.w3.org/2000/svg" xmlns:xlink="http://www.w3.org/1999/xlink" x="0px" y="0px"
	 viewBox="0 0 72 72" enable-background="new 0 0 72 72" xml:space="preserve">
<g>
	<path fill="#F7A6C0" d="M28,11.6c-4.5,0-8.2,3.7-8.2,8.2c0,1.5,0.4,3,1.2,4.3l0.5,0.7L36,43.5l14.7-18.8c1-1.4,1.6-3.1,1.6-4.9
		c0-4.5-3.7-8.2-8.2-8.2c-3.2,0-6,1.8-7.4,4.7c-0.1,0.2-0.4,0.4-0.6,0.4c-0.3,0-0.5-0.2-0.6-0.4C34,13.3,31.1,11.6,28,11.6z"/>
	<path fill="#E67A94" d="M43.8,11.6c4.5,0,8.2,3.7,8.2,8.2c0,1.5-0.4,3-1.2,4.3l-0.5,0.7L35.7,43.5l-1.1-1.4
		C50.6,20.2,43.8,11.6,43.8,11.6z"/>
	<path fill="none" stroke="#010103" stroke-width="2" stroke-linecap="round" stroke-linejoin="round" stroke-miterlimit="10" d="
		M20.3,25.6 M28,11.6c-4.5,0-8.2,3.7-8.2,8.2c0,1.5,0.4,3,1.2,4.3l0.5,0.7L36,43.5l14.7-18.8c1-1.4,1.6-3.1,1.6-4.9
		c0-4.5-3.7-8.2-8.2-8.2c-3.2,0-6,1.8-7.4,4.7c-0.1,0.2-0.4,0.4-0.6,0.4c-0.3,0-0.5-0.2-0.6-0.4C34,13.3,31.1,11.6,28,11.6z"/>
	<ellipse transform="matrix(0.9731 -0.2305 0.2305 0.9731 -11.7077 9.782)" fill="#F7A6C0" cx="36" cy="55" rx="5" ry="5"/>
	<path fill="#E67A94" d="M36.7,55.2c0.5-2-0.3-4-1.9-5.1c0.7-0.1,1.4-0.1,2,0.1c2.7,0.6,4.3,3.3,3.7,6c-0.6,2.7-3.3,4.3-6,3.7
		c-0.7-0.2-1.3-0.5-1.8-0.9C34.6,58.7,36.2,57.2,36.7,55.2z"/>
	
		<ellipse transform="matrix(0.9731 -0.2305 0.2305 0.9731 -11.7077 9.782)" fill="none" stroke="#000000" stroke-width="2" stroke-miterlimit="10" cx="36" cy="55" rx="5" ry="5"/>
</g>
</svg>
