<?xml version="1.0" encoding="utf-8"?>
<!-- Generator: Adobe Illustrator 21.1.0, SVG Export Plug-In . SVG Version: 6.00 Build 0)  -->
<svg version="1.1" id="emoji" xmlns="http://www.w3.org/2000/svg" xmlns:xlink="http://www.w3.org/1999/xlink" x="0px" y="0px"
	 viewBox="0 0 72 72" enable-background="new 0 0 72 72" xml:space="preserve">
<g id="_x2795_">
	<g>
		<path fill="none" stroke="#000000" stroke-miterlimit="10" d="M67,28.4"/>
		<path fill="none" stroke="#FFFFFF" stroke-width="2" stroke-miterlimit="10" d="M29.8,45.4"/>
		<path fill="none" stroke="#FFFFFF" stroke-width="2" stroke-miterlimit="10" d="M27.2,21.1"/>
		<path fill="none" stroke="#FFFFFF" stroke-width="2" stroke-miterlimit="10" d="M48.1,45.3"/>
		<path fill="none" stroke="#FFFFFF" stroke-width="2" stroke-miterlimit="10" d="M45.5,21"/>
		<polygon fill="#D0CFCE" points="31.9,29.9 31.9,12.5 42.1,12.5 42.1,29.9 42.2,29.9 46.2,29.9 59.6,29.9 59.6,40.2 46.3,40.2 
			42.1,40.2 42.1,40.2 42.1,58.9 31.9,58.9 31.9,40.2 31.8,40.2 27.9,40.2 14,40.2 14,29.9 27.9,29.9 31.8,29.9 		"/>
	</g>
	<g>
		<path fill="none" stroke="#000000" stroke-miterlimit="10" d="M67,28.4"/>
		<path fill="none" stroke="#FFFFFF" stroke-width="2" stroke-miterlimit="10" d="M29.8,45.4"/>
		<path fill="none" stroke="#FFFFFF" stroke-width="2" stroke-miterlimit="10" d="M27.2,21.1"/>
		<path fill="none" stroke="#FFFFFF" stroke-width="2" stroke-miterlimit="10" d="M48.1,45.3"/>
		<path fill="none" stroke="#FFFFFF" stroke-width="2" stroke-miterlimit="10" d="M45.5,21"/>
		
			<polygon fill="none" stroke="#010101" stroke-width="2" stroke-linecap="round" stroke-linejoin="round" stroke-miterlimit="10" points="
			31.9,29.9 31.9,12.5 42.1,12.5 42.1,29.9 42.2,29.9 46.2,29.9 59.6,29.9 59.6,40.2 46.3,40.2 42.1,40.2 42.1,40.2 42.1,58.9 
			31.9,58.9 31.9,40.2 31.8,40.2 27.9,40.2 14,40.2 14,29.9 27.9,29.9 31.8,29.9 		"/>
	</g>
</g>
</svg>
