<svg id="emoji" viewBox="0 0 72 72" xmlns="http://www.w3.org/2000/svg">
  <g id="line-supplement">
    <path fill="#000" d="M35.0344 8.2613C35.6385 7.9129 36.3822 7.9129 36.9863 8.2613L59.5448 21.286C60.1489 21.6344 60.5207 22.2785 60.5207 22.9763V49.0237C60.5207 49.7215 60.1489 50.3656 59.5448 50.714L36.9863 63.7387C36.3822 64.0871 35.6385 64.0871 35.0344 63.7387L12.4759 50.714C11.8718 50.3656 11.5 49.7215 11.5 49.0237V22.9763C11.5 22.2785 11.8718 21.6344 12.4759 21.286L35.0344 8.2613Z"/>
  </g>
  <g id="color">
    <path fill="#3F3F3F" d="M35.0344 8.2613C35.6385 7.9129 36.3822 7.9129 36.9863 8.2613L59.5448 21.286C60.1489 21.6344 60.5207 22.2785 60.5207 22.9763V49.0237C60.5207 49.7215 60.1489 50.3656 59.5448 50.714L36.9863 63.7387C36.3822 64.0871 35.6385 64.0871 35.0344 63.7387L12.4759 50.714C11.8718 50.3656 11.5 49.7215 11.5 49.0237V22.9763C11.5 22.2785 11.8718 21.6344 12.4759 21.286L35.0344 8.2613Z"/>
  </g>
  <g id="line">
    <path fill="none" stroke="#000" stroke-width="2" d="M35.0344 8.2613C35.6385 7.9129 36.3822 7.9129 36.9863 8.2613L59.5448 21.286C60.1489 21.6344 60.5207 22.2785 60.5207 22.9763V49.0237C60.5207 49.7215 60.1489 50.3656 59.5448 50.714L36.9863 63.7387C36.3822 64.0871 35.6385 64.0871 35.0344 63.7387L12.4759 50.714C11.8718 50.3656 11.5 49.7215 11.5 49.0237V22.9763C11.5 22.2785 11.8718 21.6344 12.4759 21.286L35.0344 8.2613Z"/>
  </g>
</svg>
