<svg id="emoji" viewBox="0 0 72 72" xmlns="http://www.w3.org/2000/svg">
  <g id="line-supplement">
    <path fill="#000" d="M55.9999 35.9585C56.0349 51.4217 47.1089 63.9768 36.063 64C25.0171 64.0231 16.0341 51.5057 16.0001 36.0415C15.9651 20.5783 24.8911 8.0232 35.937 8.00003C46.9829 7.97686 55.9659 20.4943 55.9999 35.9585Z"/>
  </g>
  <g id="color">
    <path fill="#3F3F3F" d="M55.9999 35.9585C56.0349 51.4217 47.1089 63.9768 36.063 64C25.0171 64.0231 16.0341 51.5057 16.0001 36.0415C15.9651 20.5783 24.8911 8.0232 35.937 8.00003C46.9829 7.97686 55.9659 20.4943 55.9999 35.9585Z"/>
  </g>
  <g id="line">
    <path fill="none" stroke="#000" stroke-width="2" d="M56 36C56 51.4637 47.046 64 36 64C24.954 64 16 51.4637 16 36C16 20.5363 24.954 8 36 8C47.046 8 56 20.5363 56 36Z"/>
  </g>
</svg>
