<?xml version="1.0" encoding="utf-8"?>
<!-- Generator: Adobe Illustrator 21.1.0, SVG Export Plug-In . SVG Version: 6.00 Build 0)  -->
<svg version="1.1" id="emoji" xmlns="http://www.w3.org/2000/svg" xmlns:xlink="http://www.w3.org/1999/xlink" x="0px" y="0px"
	 viewBox="0 0 72 72" enable-background="new 0 0 72 72" xml:space="preserve">
<g id="_x3299__xFE0F_">
	
		<circle fill="#D0CECE" stroke="#1D1D1B" stroke-width="2" stroke-linejoin="round" stroke-miterlimit="10" cx="36" cy="36" r="28"/>
	<g>
		<path fill="#1D1D1B" d="M35.3,33.4l-0.7,0v0l0,0l-0.7,0c-0.3,0-0.6,0.2-0.6,0.5c-0.1,1.1-0.2,2.4-0.5,3.5c-0.9-1.3-2-2.6-2.7-3.3
			h2.3c0.2,0,0.3-0.1,0.3-0.3V32c0-0.2-0.1-0.3-0.3-0.3h-2.5l0-3.8c0.9-0.2,1.7-0.5,2.5-0.9c0.2-0.1,0.2-0.3,0.1-0.4l-0.8-1.7
			c-0.1-0.2-0.3-0.2-0.4-0.2c-2.2,1-6,1.5-7,1.7c-0.2,0-0.3,0.2-0.3,0.3l0.2,1.6c0,0.3,0.3,0.6,0.7,0.5c0.6-0.1,1.5-0.2,2.5-0.4
			l0,3.2h-3.4c-0.2,0-0.3,0.1-0.3,0.3v1.9c0,0.2,0.1,0.3,0.3,0.3H27c-0.7,1.9-1.9,5-3.4,6.9c-0.2,0.3-0.2,0.6,0.1,0.8l0.5,0.5l0,0
			l0,0l0.5,0.4c0.3,0.2,0.6,0.2,0.8-0.1c0.8-1,1.4-2.2,2-3.4l0.1,8.3c0,0.2,0.1,0.3,0.3,0.3l1.9,0c0.2,0,0.3-0.1,0.3-0.3l-0.1-9.8
			c0.3,0.3,0.5,0.7,0.8,1c0.2,0.3,0.5,0.3,0.8,0.2l0.6-0.3l0,0c0,0,0,0,0,0l0.5-0.3c-0.2,0.7-0.4,1.3-0.6,1.8
			c-0.1,0.2-0.1,0.5,0.1,0.7l0.6,0.5v0l0,0l0.5,0.4c0.3,0.2,0.7,0.2,0.9-0.2c1.2-2,1.6-5.9,1.7-7.6C35.9,33.7,35.7,33.5,35.3,33.4z"
			/>
		<path fill="#1D1D1B" d="M38.9,26.5c1,0.7,3.1,2.1,4,3.3c0.1,0.1,0.3,0.2,0.4,0.1c0.4-0.3,1.2-0.8,1.6-1c0.1-0.1,0.2-0.3,0.1-0.4
			c-1.2-1.7-3.9-3.4-4.7-4c-0.1-0.1-0.3,0-0.4,0.1c-0.3,0.4-0.7,1.2-1,1.6C38.7,26.2,38.7,26.4,38.9,26.5z"/>
		<path fill="#1D1D1B" d="M47.6,32.1c0-0.1-0.1-0.2-0.2-0.2c1-2.7,1.4-4.9,1.6-5.7c0-0.2-0.1-0.3-0.3-0.4l-1.9-0.3
			c-0.2,0-0.3,0.1-0.4,0.3c-0.2,1.3-1.4,6.7-4.8,11.9v-7.7c0-0.2-0.1-0.3-0.3-0.3h-1.9c-0.2,0-0.3,0.1-0.3,0.3v11
			c-1.2,1.4-2.6,2.6-4.2,3.8c-0.1,0.1-0.2,0.3-0.1,0.4l1.1,1.6c0.1,0.1,0.3,0.2,0.4,0.1c1-0.7,1.9-1.5,2.8-2.3c0.2,1.7,1.5,3,3.2,3
			h2.6c1.5,0,2.8-1.1,3-2.6l0.3-2.5c0-0.2-0.1-0.3-0.3-0.3L46.3,42c-0.2,0-0.3,0.1-0.3,0.3l-0.3,2.5c0,0.2-0.2,0.4-0.5,0.4h-2.9
			c-0.3,0-0.5-0.2-0.5-0.5V42c1.9-2.3,3.3-4.7,4.4-7c0.4,1.2,0.8,2.6,0.8,4.1c0,0.2,0.1,0.3,0.3,0.3l1.9,0c0.2,0,0.3-0.1,0.3-0.3
			C49.5,36.2,48.2,33.3,47.6,32.1z"/>
	</g>
</g>
</svg>
