<svg id="emoji" xmlns="http://www.w3.org/2000/svg" viewBox="0 0 72 72">
  <g id="color">
    <path fill="#9b9b9a" d="M57.6295,26.1688v6.052l-1.0301,9.4374L60,49c0,0-0.5833,3.2542,7,1l-2-1l-1-2 c0,0-0.7087-7.7097-0.7014-8.1073c0.0073-0.3975-0.6129-6.672-0.6129-6.672l-2.1384-4.5426L57.6295,26.1688z" stroke="none"/>
    <path fill="#d0cfce" d="M10,11l1.3103,4.1448l-1.1723,2.5324l-1.3791,2.7724l-3.0714,6.1129l1.4289,2.2054h3.3463l1.5998-2.7054 l2.459-0.569l0.9495-0.7396l1.4292,3.1211l2.8432,3.7684l0.5926,4.103l0.9657,3.8363l2.4298,2.7098l2.4218,1.5569l2.3385,8.5917 l0.9579,3.4798l-0.4623,2.951l0.7252,1.5829l2.2189-0.5635l1.2449-3.1814l-0.6396-1.9231l-0.7176-5.5375l0.331-6.6478L40,47l6-2 l3-2l2-1l0.8376,1.9266l2.7418,4.1984l0.6416,2.5591l-1.0603,6.6433l-1.2769,0.7042l0.6367,2.136l2.4786-0.6117l1.7551-5.0398 l1.418-3.3658l0.3192-2.9888l-2.892-6.5033l3.5339-4.5212c0,0,2.2044-3.7619-1.6082-10.6994l-5-1.5l-5.6321,0.4577l-5.8145,1.1229 l-8.6952-0.3403l-3.4267-0.8074l-5.3075-6.4792l-5.2713-3.0433l-3.5918-1.3116l-2.511-1.619L11,11" stroke="none"/>
    <path fill="#9b9b9a" d="M21.8749,41l0.6502,6.2142l1.508,3.0358l-1.133,6.472l-1.0252,0.903l1.0791,1.5712l2.2575-0.6175 c0,0,1.8762-1.6412,1.8762-2.0162s2-4.1875,2-4.1875l-1.9375-6.9022l-1.6689-2.6603L21.8749,41z" stroke="none"/>
  </g>
  <g id="hair"/>
  <g id="skin"/>
  <g id="skin-shadow"/>
  <g id="line">
    <path fill="none" stroke="#000000" stroke-width="2" stroke-linecap="round" stroke-linejoin="round" stroke-miterlimit="10" d="M16.3125,22.625C16.0485,26.2311,12,27,12,27l-1,1c-1.304,2.8261-5.3125,0.625-5.3125-1.4375c1.5076-3.415,3.0625-5.75,3.0625-5.75 c-0.125-2.7917,3.3125-4.625,3.3125-4.625l-1.2779-1.7715C10.3482,13.8475,8.2865,10.0675,9,10 c1.2532-0.1186,6.0415,2.815,7,4.9375c0,0,8.8648,0.9329,13.9566,10.4329c0.238,0.4441,9.8767,2.3078,16.0746,0.4421 c4.2838-1.2895,17.0521-2.0625,17.2812,10.5C63.4294,42.7185,62.75,45.5804,67,50"/>
    <path fill="none" stroke="#000000" stroke-width="2" stroke-linecap="round" stroke-linejoin="round" stroke-miterlimit="10" d="M59.1884,37.0158c-0.4424,1.6306-1.2206,3.426-2.589,4.6423c0,0,1.0956,4.786,3.1715,6.8042l-2.7102,9.1669l-1.0616,1.9266 c-0.3055,0.5545-0.8885,0.8989-1.5216,0.8989h0c-1.252,0-2.0956-1.2762-1.5937-2.4232c0.968-2.2123,2.1598-2.9562,2.3893-8.3006 c0,0-5.8877-8.1953-4.2732-13.731"/>
    <path fill="none" stroke="#000000" stroke-width="2" stroke-linecap="round" stroke-linejoin="round" stroke-miterlimit="10" d="M17.7764,27.4908l2.6684,5.6332c0,0-1.1533,6.3429,3.2868,9.1684l2.4218,1.5569l2.5133,9.234l0.9167,3.8333l-0.4839,1.2127 c-0.4446,1.1143,0.3761,2.3254,1.5758,2.3254h0c0.7126,0,1.3493-0.4454,1.5937-1.1148l0.7465-2.0449 c0.2401-0.6576,0.2986-1.3678,0.1694-2.0559l-1.3308-4.089l-0.1597-8.6838C31.6945,42.4664,41,50,49,43"/>
    <path fill="none" stroke="#000000" stroke-width="2" stroke-linecap="round" stroke-linejoin="round" stroke-miterlimit="10" d="M23.512,47.2142l0.6035,4.4196l-1.7405,4.287l-0.3672,0.9192c-0.482,1.2068,0.4068,2.5191,1.7064,2.5191h0 c0.7335,0,1.3967-0.4362,1.6872-1.1097l0.7899-1.8311"/>
  </g>
</svg>
