<svg id="emoji" viewBox="0 0 72 72" version="1.1" xmlns="http://www.w3.org/2000/svg">
  <g id="color" transform="matrix(.7071 -.7071 .7071 .7071 -9.056 41.86)">
    <polygon fill="#d22f27" points="36 64.08 68 23.35 56.38 11.98 16.38 11.98 4 23.35"/>
    <polyline fill="#ea5a47" points="37.37 62.34 55.75 23.35 36 11.98 56.38 11.98 68 23.35 37.37 62.34"/>
  </g>
  <g id="line" transform="matrix(.7071 -.7071 .7071 .7071 -9.046 41.86)" fill="none" stroke="#000" stroke-linecap="round" stroke-linejoin="round" stroke-miterlimit="10" stroke-width="2">
    <polygon points="36 64.08 68 23.35 56.38 11.98 16.38 11.98 4 23.35"/>
    <polyline points="55.75 23.86 36 64.08 36 24.35 36 11.98 16.26 23.35"/>
    <line x1="16.26" x2="36" y1="23.86" y2="64.08"/>
    <line x1="4" x2="68" y1="23.35" y2="23.35"/>
    <line x1="36" x2="55.75" y1="11.98" y2="23.35"/>
    <polygon points="36 64.08 68 23.35 56.38 11.98 16.38 11.98 4 23.35"/>
  </g>
</svg>
