<svg id="emoji" viewBox="0 0 72 72" xmlns="http://www.w3.org/2000/svg">
  <g id="color">
    <circle cx="36" cy="36" r="28" fill="#b1cc33"/>
    <path fill="#fff" fill-rule="evenodd" d="M30.698 20.513c0-1.171.95-2.12 2.124-2.12 7.95 0 14.395 6.432 14.395 14.366 0 1.17-.95 2.12-2.124 2.12a2.122 2.122 0 0 1-2.123-2.12c0-5.593-4.544-10.127-10.148-10.127a2.122 2.122 0 0 1-2.124-2.12z" clip-rule="evenodd"/>
    <path fill="#fff" fill-rule="evenodd" d="M51.483 30.639c1.173 0 2.124.949 2.124 2.12 0 7.933-6.445 14.365-14.395 14.365a2.122 2.122 0 0 1-2.124-2.12c0-1.17.95-2.119 2.124-2.119 5.604 0 10.147-4.534 10.147-10.126 0-1.171.95-2.12 2.124-2.12z" clip-rule="evenodd"/>
    <path fill="#fff" fill-rule="evenodd" d="M41.335 51.487c0 1.171-.95 2.12-2.124 2.12-7.95 0-14.395-6.432-14.395-14.366 0-1.17.951-2.119 2.124-2.119s2.124.949 2.124 2.12c0 5.592 4.543 10.126 10.147 10.126 1.173 0 2.124.949 2.124 2.12z" clip-rule="evenodd"/>
    <path fill="#fff" fill-rule="evenodd" d="M20.517 41.36a2.122 2.122 0 0 1-2.124-2.118c0-7.934 6.445-14.366 14.395-14.366 1.173 0 2.124.949 2.124 2.12 0 1.17-.95 2.119-2.124 2.119-5.604 0-10.147 4.534-10.147 10.127 0 1.17-.951 2.119-2.124 2.119z" clip-rule="evenodd"/>
  </g>
  <g id="line">
    <circle cx="36" cy="36" r="28" fill="none" stroke="#000" stroke-width="2"/>
    <path fill="none" stroke="#000" stroke-linecap="round" stroke-width="2" d="M30.698 20.513c0-1.171.95-2.12 2.124-2.12 7.95 0 14.395 6.432 14.395 14.366 0 1.17-.95 2.12-2.124 2.12a2.122 2.122 0 0 1-2.123-2.12c0-5.593-4.544-10.127-10.148-10.127a2.122 2.122 0 0 1-2.124-2.12z"/>
    <path fill="none" stroke="#000" stroke-linecap="round" stroke-width="2" d="M51.483 30.639c1.173 0 2.124.949 2.124 2.12 0 7.933-6.445 14.365-14.395 14.365a2.122 2.122 0 0 1-2.124-2.12c0-1.17.95-2.119 2.124-2.119 5.604 0 10.147-4.534 10.147-10.126 0-1.171.95-2.12 2.124-2.12z"/>
    <path fill="none" stroke="#000" stroke-linecap="round" stroke-width="2" d="M41.335 51.487c0 1.171-.95 2.12-2.124 2.12-7.95 0-14.395-6.432-14.395-14.366 0-1.17.951-2.119 2.124-2.119s2.124.949 2.124 2.12c0 5.592 4.543 10.126 10.147 10.126 1.173 0 2.124.949 2.124 2.12z"/>
    <path fill="none" stroke="#000" stroke-linecap="round" stroke-width="2" d="M20.517 41.36a2.122 2.122 0 0 1-2.124-2.118c0-7.934 6.445-14.366 14.395-14.366 1.173 0 2.124.949 2.124 2.12 0 1.17-.95 2.119-2.124 2.119-5.604 0-10.147 4.534-10.147 10.127 0 1.17-.951 2.119-2.124 2.119z"/>
  </g>
</svg>
