<svg id="emoji" viewBox="0 0 72 72" xmlns="http://www.w3.org/2000/svg">
  <g id="color">
    <path fill="#fff" fill-rule="evenodd" d="M28.7611 32.9949C30.3085 33.3901 31.4401 34.5165 32.0276 36.2466C32.3486 37.1914 32.3486 38.516 32.0276 39.4607C31.4723 41.096 30.488 42.1658 29.0639 42.682C28.0109 43.0636 27.0294 42.9922 25.9173 42.4527C22.8212 40.951 22.2641 36.3427 24.8917 33.9671C25.9735 32.9889 27.3668 32.6389 28.7611 32.9949ZM45.4372 32.9905C46.1628 33.1759 46.5338 33.3653 47.1488 33.8647C48.7079 35.1307 49.2885 37.4289 48.7586 39.3433C48.4289 40.5345 47.5542 41.7339 46.6136 42.2843C45.5218 42.9231 44.19 43.1373 42.9939 42.6483C41.0414 41.8499 39.9193 39.9442 39.9183 37.891C39.9177 36.7946 40.0356 36.2932 40.5267 35.3028C40.8963 34.5575 41.8128 33.6386 42.5253 33.2991C43.4781 32.845 44.4601 32.741 45.4372 32.9905Z" clip-rule="evenodd"/>
    <path fill="#B399C8" fill-rule="evenodd" d="M28.1258 17.154C24.7618 17.8573 21.4057 18.9047 19.1428 19.9577C18.9958 20.0261 18.8872 20.0736 18.7886 20.1367C18.4699 20.3405 18.2549 20.7065 17.1824 22.4637C15.7426 24.8227 14.2126 27.986 13.4527 30.1748C13.336 30.5107 13.1699 30.9705 13.0833 31.1966C12.8429 31.825 12.0573 34.71 11.851 35.7223C11.6931 36.4971 11.5347 37.4837 11.2099 39.7178C11.0374 40.9039 10.9654 42.9573 11.0157 45.2491C11.0785 48.1029 11.1194 48.5672 11.3217 48.7217C11.6374 48.9628 13.227 50.0291 13.9311 50.4719C16.6983 52.2123 19.6688 53.5931 23.129 54.7476C23.4893 54.8678 23.814 54.9662 23.8507 54.9662C24.0721 54.9662 25.8268 52.3445 25.9141 52.2138L25.9217 52.2024L27.7856 49.3769C28.3937 49.5469 28.9965 49.7051 29.5481 49.8388C33.0094 50.6778 37.5445 50.7789 41.3757 50.1026C42.23 49.9518 43.3591 49.6883 44.5037 49.3769L46.6139 52.2088L48.7588 54.9662C48.7588 54.9662 48.7588 55.0397 49.59 54.7476C51.3246 53.9998 56.7965 51.3779 58.0316 50.5953C58.8544 50.0738 60.574 48.9163 60.7808 48.7447C60.9782 48.5808 60.9878 48.5375 61.075 47.4167C61.2484 45.1887 61.1667 41.2363 60.9128 39.5683C60.8721 39.3011 60.7707 38.6115 60.6875 38.036C60.6041 37.4604 60.4531 36.5523 60.3517 36.0178C60.1576 34.9942 59.3065 31.821 59.0385 31.1219C58.9518 30.8958 58.7873 30.4417 58.6728 30.1128C57.7395 27.4303 55.9239 23.8619 53.9887 20.9065C53.814 20.6397 53.7053 20.4678 53.5648 20.3277C53.2916 20.0552 52.8986 19.9028 51.6686 19.407C49.4505 18.5128 47.1725 17.8335 44.37 17.2304C43.9789 17.1462 43.5409 17.0589 43.3968 17.0364C43.2406 17.012 43.0864 17.0909 43.0148 17.2319L42.6703 17.9107C42.4148 18.4141 42.1209 19.0216 42.0172 19.2607L41.9572 19.399C41.8812 19.5743 41.698 19.6778 41.5086 19.6525C38.2347 19.2142 34.3225 19.1863 31.2423 19.5795C30.7536 19.6418 30.3481 19.6828 30.3411 19.6705C30.334 19.6582 30.0297 19.0511 29.6649 18.3215C29.3 17.5918 28.9644 16.9971 28.9192 17C28.8739 17.0029 28.5169 17.0722 28.1258 17.154ZM32.0279 36.2421C31.4403 34.512 30.3087 33.3855 28.7613 32.9903C27.367 32.6343 25.9737 32.9844 24.8919 33.9625C22.2643 36.3382 22.8214 40.9465 25.9175 42.4481C27.0296 42.9876 28.0111 43.059 29.0641 42.6774C30.4882 42.1613 31.4725 41.0914 32.0279 39.4562C32.3488 38.5114 32.3488 37.1868 32.0279 36.2421ZM47.149 33.8602C46.534 33.3607 46.163 33.1713 45.4374 32.9859C44.4603 32.7364 43.4783 32.8405 42.5255 33.2946C41.813 33.6341 40.8965 34.5529 40.5269 35.2982C40.0358 36.2886 39.918 36.79 39.9186 37.8865C39.9195 39.9396 41.0416 41.8453 42.9941 42.6438C44.1902 43.1327 45.522 42.9185 46.6139 42.2797C47.5544 41.7293 48.4292 40.5299 48.7588 39.3387C49.2887 37.4244 48.7081 35.1262 47.149 33.8602Z" clip-rule="evenodd"/>
    <path fill="#8967AA" d="M26.4998 49C27.1079 49.17 28.9978 49.7085 29.5495 49.8422C33.0107 50.6812 37.5459 50.7824 41.377 50.1061C42.2313 49.9552 43.3605 49.6918 44.5051 49.3803L46.6152 52.2122L48.7602 54.9696C48.7602 54.9696 48.7602 55.0432 49.5913 54.7511C51.3259 54.0032 56.7978 51.3814 58.0329 50.5987C58.8558 50.0773 60.5753 48.9198 60.7822 48.7481C60.9796 48.5843 60.9891 48.5409 61.0763 47.4202C61.2497 45.1921 61.168 41.2397 60.9141 39.5717C60.8735 39.3045 60.7721 38.615 60.6888 38.0394C60.6055 37.4639 60.4544 36.5557 60.3531 36.0213C60.159 34.9977 59.3078 31.8244 59.0398 31.1253C58.9531 30.8992 58.7886 30.4451 58.6741 30.1163C57.8531 27.7563 56.3491 24.7107 54.6816 22C54.0527 20.9778 54.0294 20.7539 53.8065 22C52.749 27.9129 50.9036 32.5071 48.6521 36.0807C49.0074 37.1277 49.0507 38.2926 48.7602 39.3422C48.4305 40.5334 47.5558 41.7328 46.6152 42.2832C45.5233 42.922 44.1916 43.1362 42.9954 42.6472C42.9775 42.6399 42.9596 42.6324 42.9417 42.6249C37.0606 47.4787 29.3303 48.0493 26.4998 48.3596C25.1461 48.508 24.3667 48.4962 26.4998 49Z"/>
  </g>
  <g id="line">
    <path fill="none" stroke="#000" stroke-linecap="round" stroke-width="2" d="M25.9175 52.2133C25.9175 52.2133 24.0777 54.9707 23.8507 54.9707C23.814 54.9707 23.4893 54.8724 23.129 54.7522C19.6688 53.5977 16.6983 52.2168 13.9311 50.4764C13.227 50.0336 11.6374 48.9673 11.3217 48.7262C11.1194 48.5717 11.0785 48.1075 11.0157 45.2536C10.9654 42.9619 11.0374 40.9084 11.2099 39.7223C11.5347 37.4882 11.6931 36.5016 11.851 35.7268C12.0573 34.7146 12.8429 31.8295 13.0833 31.2012C13.1699 30.9751 13.336 30.5152 13.4527 30.1793C14.2126 27.9905 15.7426 24.8272 17.1824 22.4683C18.5869 20.1672 18.5208 20.2517 19.1428 19.9622C21.4057 18.9093 24.7618 17.8618 28.1258 17.1585C28.5169 17.0768 28.8739 17.0075 28.9192 17.0046C28.9644 17.0016 29.3 17.5963 29.6649 18.326C30.0297 19.0557 30.334 19.6628 30.3411 19.675C30.3481 19.6874 30.7536 19.6463 31.2423 19.584C34.3225 19.1908 38.2347 19.2187 41.5086 19.657V19.657C41.698 19.6824 41.8812 19.5789 41.9572 19.4036L42.0172 19.2652C42.1209 19.0262 42.4148 18.4187 42.6703 17.9153L43.0148 17.2365C43.0864 17.0955 43.2406 17.0165 43.3968 17.041V17.041C43.5409 17.0635 43.9789 17.1508 44.37 17.2349C47.1725 17.8381 49.4505 18.5174 51.6686 19.4116C53.5313 20.1623 53.4744 20.1256 53.9887 20.9111C55.9239 23.8665 57.7395 27.4348 58.6728 30.1173C58.7873 30.4462 58.9518 30.9003 59.0385 31.1264C59.3065 31.8255 60.1576 34.9988 60.3517 36.0224C60.4531 36.5568 60.6041 37.465 60.6875 38.0405C60.7707 38.6161 60.8721 39.3056 60.9128 39.5728C61.1667 41.2408 61.2484 45.1932 61.075 47.4213C60.9878 48.542 60.9782 48.5854 60.7808 48.7492C60.574 48.9208 58.8544 50.0784 58.0316 50.5998C56.7965 51.3825 51.3246 54.0043 49.59 54.7522C49.3091 54.8733 49.1231 54.9381 48.9999 54.9707V54.9707C48.841 55.0128 48.7023 54.898 48.6013 54.7682L46.6139 52.2133M23.5417 47.9359C24.5836 48.4645 27.4396 49.3323 29.5481 49.8433C33.0094 50.6823 37.5445 50.7835 41.3757 50.1072C43.4556 49.7399 47.1649 48.7051 48.7588 47.9359M28.7613 32.9949C30.3087 33.3901 31.4403 34.5165 32.0279 36.2466C32.3488 37.1914 32.3488 38.516 32.0279 39.4607C31.4725 41.096 30.4882 42.1658 29.0642 42.6819C28.0111 43.0636 27.0296 42.9921 25.9175 42.4527C22.8214 40.951 22.2643 36.3427 24.8919 33.967C25.9737 32.9889 27.367 32.6389 28.7613 32.9949ZM45.4374 32.9905C46.163 33.1758 46.534 33.3653 47.149 33.8647C48.7081 35.1307 49.2887 37.4289 48.7588 39.3433C48.4292 40.5345 47.5544 41.7338 46.6139 42.2843C45.522 42.9231 44.1902 43.1373 42.9941 42.6483C41.0416 41.8499 39.9195 39.9442 39.9186 37.891C39.918 36.7946 40.0358 36.2932 40.5269 35.3028C40.8965 34.5575 41.813 33.6386 42.5255 33.2991C43.4783 32.845 44.4603 32.741 45.4374 32.9905Z"/>
  </g>
</svg>
