<svg id="emoji" viewBox="0 0 72 72" version="1.1" xmlns="http://www.w3.org/2000/svg">
  <g id="color">
    <path fill="#b399c8" d="m28.5 19c-2.4 0-5.333 3.333-6.5 5l6 2c-0.5-1.833-1.1-5.8 0.5-7z"/>
    <path fill="#b1cc33" fill-rule="evenodd" d="m48.78 47.41c5.596-4.195 9.217-10.88 9.217-18.41 0-1.626-0.1688-3.213-0.4899-4.744-6.245-3.03-11.17-8.355-13.68-14.88-5.359 4.012-8.827 10.41-8.827 17.62 0 9.246 5.703 17.16 13.78 20.41z" clip-rule="evenodd"/>
    <circle cx="36" cy="36" r="13" fill="#8967aa" stroke="#8967AA" stroke-width="2"/>
    <g>
      <path fill="#92d3f5" fill-rule="evenodd" d="m39 48.05c0.8012 0.1956 1.638 0.2994 2.5 0.2994 5.799 0 10.5-4.701 10.5-10.5s-4.701-10.5-10.5-10.5c-0.8615 0-1.699 0.1038-2.5 0.2994 4.592 1.122 8 5.263 8 10.2s-3.408 9.079-8 10.2z" clip-rule="evenodd"/>
      <path fill="#92d3f5" d="m39 48.05-0.2373-0.9715v1.943zm13-10.2h1zm-13-10.2-0.2373-0.9714v1.943zm2.5 19.7c-0.7809 0-1.539-0.094-2.263-0.2709l-0.4746 1.943c0.8783 0.2145 1.795 0.328 2.737 0.328zm9.5-9.5c0 5.247-4.253 9.5-9.5 9.5v2c6.351 0 11.5-5.149 11.5-11.5zm-9.5-9.5c5.247 0 9.5 4.253 9.5 9.5h2c0-6.351-5.149-11.5-11.5-11.5zm-2.263 0.2709c0.7241-0.1769 1.482-0.2709 2.263-0.2709v-2c-0.9421 0-1.859 0.1135-2.737 0.328zm-0.4746 0c4.155 1.015 7.237 4.763 7.237 9.229h2c0-5.409-3.733-9.944-8.763-11.17zm7.237 9.229c0 4.466-3.082 8.214-7.237 9.229l0.4746 1.943c5.029-1.228 8.763-5.763 8.763-11.17z"/>
    </g>
    <path fill="#b399c8" d="m27.5 25c-2-2-5.167-2.167-6.5-2h-1v10.5h11l5-2c-3.5 0-6-4-8.5-6.5z"/>
    <path fill="#b399c8" fill-rule="evenodd" d="m11 36.5c0-7.466 3.209-14.18 8.322-18.85 0.2612-0.2382 0.6783-0.0327 0.6776 0.3209v0.0255c0 1.711 0.3068 3.35 0.8684 4.865 0.0313 0.0846 0.0341 0.1771 0.0076 0.2634-0.5687 1.849-0.876 3.822-0.876 5.872 0 0.2959 0.0064 0.5903 0.0191 0.8829 3e-4 0.0065-2e-4 0.013-0.0013 0.0195l-0.0153 0.0841c-0.0013 0.0072 0.0039 0.0139 0.0112 0.0143 0.0062 3e-4 0.0111 0.0053 0.0114 0.0115 0.0011 0.0228 0.0023 0.0456 0.0035 0.0684 0.0028 0.0517 0.0494 0.0897 0.1007 0.0825 0.199-0.0279 0.4055-0.0531 0.6188-0.0748 0.0125-0.0013 0.0231-0.0098 0.0269-0.0218 0.0045-0.0136 0.0175-0.0225 0.0318-0.0217l0.2574 0.0143c0.4514-0.0375 0.9311-0.0592 1.436-0.0592 1.817 0 3.365 0.5393 4.853 1.058 1.378 0.48 2.704 0.9422 4.147 0.9422 1.545 0 2.759-0.1382 3.561-0.2811 0.3508-0.0625 0.6419 0.3134 0.434 0.6028-0.4744 0.6604-1.181 1.407-1.995 1.678-0.3236 0.1079-0.8566 0.1692-1.509 0.2443-2.371 0.2727-6.315 0.7265-7.491 4.256l-0.0367 0.1592c-0.0139 0.0603-0.0137 0.1231 0.0011 0.1833 0.4219 1.712 1.119 3.315 2.043 4.76 0.0202 0.0316 0.0449 0.0602 0.0733 0.0848 3.107 2.695 7.084 4.313 11.42 4.313 9.941 0 18-8.507 18-19 0-4.124-1.245-7.942-3.36-11.06-0.271-0.3991 0.2609-0.9761 0.6243-0.6588 5.353 4.674 8.735 11.55 8.735 19.22 0 14.08-11.42 25.5-25.5 25.5s-25.5-11.42-25.5-25.5z" clip-rule="evenodd"/>
    <path fill="#92d3f5" d="m22.5 30c-2.8 0-4.833 0.6667-5.5 1 0 0 2 4 6 4 0 0 1 2 2 6 0.5-6.5 7-6.5 8.5-7 1.2-0.4 2.167-1.833 2.5-2.5-0.5 0.1667-2.1 0.5-4.5 0.5-3 0-5.5-2-9-2z"/>
    <path fill="#8967aa" fill-rule="evenodd" d="m61.88 34.39c-1.234 12.93-12.13 23.05-25.38 23.05s-24.15-10.12-25.38-23.05c-0.077 0.8069-0.1164 1.625-0.1164 2.452 0 14.08 11.42 25.5 25.5 25.5s25.5-11.42 25.5-25.5c0-0.8271-0.0394-1.645-0.1164-2.452z" clip-rule="evenodd"/>
  </g>
  <g id="line" fill="none" stroke="#000" stroke-linecap="round" stroke-width="2">
    <path stroke-linejoin="round" d="m52 37.85c0-5.799-4.701-10.5-10.5-10.5-0.8615 0-1.699 0.1038-2.5 0.2995 4.592 1.122 8 5.263 8 10.2s-3.408 9.028-8 10.15c-4 0.977-11.5-0.5-14.5-7"/>
    <path stroke-linejoin="round" d="m55.05 22.9c-5.076-3.14-9.054-7.885-11.23-13.53-3.698 2.769-6.495 6.674-7.874 11.2m-0.9529 10.81c-2.24-0.4938-4.068-2.57-5.793-4.528-0.4611-0.5237-0.9148-1.039-1.367-1.513-0.4426-1.994-0.7696-5.276 0.6602-6.348-1.978 0-4.318 2.264-5.733 3.994-0.6255-0.0584-1.267-0.0436-1.851 0.0064l0.0015-0.0047c-0.5927-1.552-0.9174-3.236-0.9174-4.995 0-0.3264 0.0112-0.6502 0.0331-0.971-5.525 4.678-9.033 11.66-9.033 19.47 0 0.0566 2e-4 0.113 6e-4 0.1695-4e-4 0.0564-6e-4 0.1129-6e-4 0.1694 0 14.08 11.42 25.5 25.5 25.5s25.5-11.42 25.5-25.5c0-0.0565-2e-4 -0.113-5e-4 -0.1694 3e-4 -0.0565 5e-4 -0.1129 5e-4 -0.1695 0-7.552-3.283-14.34-8.5-19.01"/>
    <path d="m30 24.46c1.795-0.9355 3.836-1.464 6-1.464 2.368 0 4.588 0.6331 6.5 1.739"/>
  </g>
</svg>
