<svg id="emoji" viewBox="0 0 72 72" xmlns="http://www.w3.org/2000/svg">
  <g id="color">
    <circle cx="36.0101" cy="21.1858" r="3.4779" fill="#fff"/>
    <path fill="#d22f27" d="m46.289,21.3899c0-6.0159-4.6073-10.9096-10.271-10.9096s-10.271,4.8937-10.271,10.9123c.0018.3005.1445,7.4974,8.3708,20.1793.53.8288,1.1424,1.2493,1.8196,1.2493,1.1879,0,1.9983-1.3088,2.0771-1.442,8.2789-12.689,8.2789-19.7028,8.2745-19.9893Zm-10.2709,4.3941c-2.5222,0-4.5742-2.052-4.5742-4.5742s2.052-4.5742,4.5742-4.5742,4.5742,2.052,4.5742,4.5742-2.052,4.5742-4.5742,4.5742Z"/>
    <path fill="#ea5a47" d="m46.289,21.3899c0-6.0159-4.6073-10.9096-10.271-10.9096-.8622,0-1.6952.1258-2.4958.3393,5.4217.2902,9.7514,5.0521,9.7514,10.8817.0044.2865.0044,7.3003-8.2745,19.9892-.0296.0499-.1621.2652-.3788.5149.4037.406.8442.6157,1.3171.6157,1.1879,0,1.9983-1.3088,2.0771-1.442,8.2789-12.6889,8.2789-19.7027,8.2745-19.9892Z"/>
    <path fill="#92d3f5" d="m11.3402,60.6539v-2.285c0-3.23,1.9102-5.45,5.1402-5.45,1.9123,1.6148,4.1757,2.4223,6.1092,2.4225,1.934.0002,4.1979-.8073,6.1107-2.4225,3.23,0,5.1402,2.22,5.1402,5.45v2.285H11.3402Z"/>
    <path fill="#92d3f5" d="m38.142,60.6539v-2.285c0-3.23,1.9102-5.45,5.1402-5.45,1.9123,1.6148,4.1757,2.4223,6.1092,2.4225,1.934.0002,4.1979-.8073,6.1107-2.4225,3.23,0,5.1402,2.22,5.1402,5.45v2.285h-22.5003Z"/>
  </g>
  <g id="skin">
    <circle cx="22.5904" cy="45.397" r="5" fill="#fcea2b"/>
    <circle cx="49.3921" cy="45.397" r="5" fill="#fcea2b"/>
  </g>
  <g id="line">
    <path fill="none" stroke="#000" stroke-linecap="round" stroke-linejoin="round" stroke-width="2" d="m11.3402,60.3239v-1.955c0-3.23,1.9102-5.45,5.1402-5.45,1.9123,1.6148,4.1757,2.4223,6.1092,2.4225,1.934.0002,4.1979-.8073,6.1107-2.4225,3.23,0,5.1402,2.22,5.1402,5.45v1.955"/>
    <path fill="none" stroke="#000" stroke-linecap="round" stroke-linejoin="round" stroke-width="2" d="m38.142,60.3239v-1.955c0-3.23,1.9102-5.45,5.1402-5.45,1.9123,1.6148,4.1757,2.4223,6.1092,2.4225,1.934.0002,4.1979-.8073,6.1107-2.4225,3.23,0,5.1402,2.22,5.1402,5.45v1.955"/>
    <path fill="none" stroke="#000" stroke-miterlimit="10" stroke-width="2" d="m35.9374,42.8211c-.6772,0-1.2896-.4205-1.8196-1.2493-8.2263-12.6819-8.3691-19.8788-8.3708-20.1793,0-6.0186,4.6072-10.9123,10.271-10.9123s10.271,4.8937,10.271,10.9096c.0044.2865.0044,7.3003-8.2744,19.9892-.0789.1333-.8893,1.4421-2.0772,1.4421Z"/>
    <path fill="none" stroke="#000" stroke-miterlimit="10" stroke-width="2" d="m36.0181,25.784c-2.5222,0-4.5742-2.052-4.5742-4.5742s2.052-4.5742,4.5742-4.5742,4.5742,2.052,4.5742,4.5742-2.052,4.5742-4.5742,4.5742Z"/>
    <circle cx="22.5904" cy="45.397" r="5" fill="none" stroke="#000" stroke-linecap="round" stroke-linejoin="round" stroke-width="2"/>
    <circle cx="49.3921" cy="45.397" r="5" fill="none" stroke="#000" stroke-linecap="round" stroke-linejoin="round" stroke-width="2"/>
  </g>
</svg>
