<svg id="emoji" viewBox="0 0 72 72" xmlns="http://www.w3.org/2000/svg">
  <g id="color">
    <rect x="15.6244" y="23.8694" width="40.9752" height="30.4703" fill="#fff"/>
    <polygon fill="#a57939" points="64.166 18.937 7.657 18.937 7.657 23.222 11.158 23.222 11.158 54.339 15.443 54.339 15.443 23.222 56.684 23.222 56.684 54.339 60.969 54.339 60.969 23.222 64.166 23.222 64.166 18.937"/>
  </g>
  <g id="skin">
    <path fill="#fcea2b" d="m58.56,44.1988h-11.1651l-3.1586-6.8046c-1.2092-2.8441-3.0349-4.0155-6.479-3.7377l-1.443.0713-9.2526.9907c-4.8164.535-6.7033,3.5406-6.7033,5.8348-.1647,2.3417,1.2228,4.5152,3.4163,5.3514l6.2691,1.9153v.9658l-4.9071.66h-3.1687c-2.1412,0-3.1872.8168-3.1872,2.6516v2.2415h11.263c3.2113-.153,5.8349-2.2533,5.8349-5.2349,0-2.37-.693-3.875-3.3648-5.2113l-2.1639-.9936c3.1026-.0708,7.3357-1.8228,9.3922-2.2867l2.3013,4.4276c1.2225,2.8287,2.0634,4.0522,4.4337,4.0522l12.2842-.4649c1.6779-.0825,2.7092-.6548,2.7092-2.3371,0-1.3763-1.1523-2.0914-2.9106-2.0914Z"/>
    <circle cx="49.1408" cy="33.018" r="3.5434" fill="#fcea2b"/>
  </g>
  <g id="skin-shadow">
    <path fill="#f1b31c" d="m20.3584,40.5533c-.1647,2.3417,1.2228,4.5152,3.4163,5.3514l6.2691,1.9153v-.889c-4.6551-1.2207-8.1041-4.5416-8.5979-7.4989l-1.0875,1.1212Z"/>
    <path fill="#f1b31c" d="m30.35,42.8991c3.1026-.0708,7.5464-1.8741,9.603-2.338l-1.5268-3.2694c-1.6907,2.1622-8.0762,4.0626-8.0762,5.1526v.4548Z"/>
  </g>
  <g id="line">
    <path fill="none" stroke="#000" stroke-linecap="round" stroke-linejoin="round" stroke-width="2" d="m30.0438,47.82v.9658l-4.9071.66h-3.1687c-2.1412,0-3.1872.8168-3.1872,2.6516v2.2415h11.263c3.2113-.153,5.8349-2.2533,5.8349-5.2349"/>
    <path fill="none" stroke="#000" stroke-linecap="round" stroke-linejoin="round" stroke-width="2" d="m38.6048,37.6739l3.4387,7.3661c1.2225,2.8287,2.0634,4.0522,4.4337,4.0522l12.2842-.4649c1.6779-.0825,2.7092-.6548,2.7092-2.3371,0-1.376-1.1523-2.0911-2.9109-2.0911h-11.1648l-3.1586-6.8046c-1.2092-2.8441-3.0349-4.0155-6.479-3.7377l-1.443.0713-9.2526.9907c-4.8164.535-6.7033,3.5406-6.7033,5.8348-.1647,2.3417,1.2228,4.5152,3.4163,5.3514"/>
    <polyline fill="none" stroke="#000" stroke-linecap="round" stroke-linejoin="round" stroke-width="2" points="11.158 23.222 11.158 54.339 15.443 54.339 15.443 23.222 56.684 23.222 56.684 40.678"/>
    <polyline fill="none" stroke="#000" stroke-linecap="round" stroke-linejoin="round" stroke-width="2" points="64.166 23.222 64.166 18.937 7.657 18.937 7.657 23.222"/>
    <line x1="60.9686" x2="60.9686" y1="40.811" y2="23.2221" fill="none" stroke="#000" stroke-linecap="round" stroke-linejoin="round" stroke-width="2"/>
    <polyline fill="none" stroke="#000" stroke-linecap="round" stroke-linejoin="round" stroke-width="2" points="56.684 48.706 56.684 54.339 60.969 54.339 60.969 51.198"/>
    <path fill="none" stroke="#000" stroke-linecap="round" stroke-linejoin="round" stroke-width="2" d="m28.04,42.8991c4.57,0,9.856-1.8741,11.9126-2.338"/>
    <path fill="none" stroke="#000" stroke-linecap="round" stroke-linejoin="round" stroke-width="2" d="m45.5974,33.018c0-1.957,1.5864-3.5435,3.5434-3.5436s3.5435,1.5864,3.5436,3.5434c0,1.957-1.5864,3.5435-3.5434,3.5436h-.0002"/>
  </g>
</svg>
