<svg id="emoji" xmlns="http://www.w3.org/2000/svg" viewBox="0 0 72 72">
  <g id="color">
    <polygon points="64.166 18.937 7.657 18.937 7.657 23.222 11.158 23.222 11.158 54.339 15.443 54.339 15.443 23.222 56.684 23.222 56.684 54.339 60.969 54.339 60.969 23.222 64.166 23.222 64.166 18.937" fill="#a57939"/>
  </g>
  <g id="skin">
    <path d="M58.56,44.1988H47.3949l-3.1586-6.8046c-1.2092-2.8441-3.0349-4.0155-6.479-3.7377l-1.443.0713-9.2526.9907c-4.8164.535-6.7033,3.5406-6.7033,5.8348a5.3271,5.3271,0,0,0,3.4163,5.3514L30.0438,47.82v.9658l-4.9071.66H21.968c-2.1412,0-3.1872.8168-3.1872,2.6516v2.2415h11.263c3.2113-.153,5.8349-2.2533,5.8349-5.2349,0-2.37-.693-3.875-3.3648-5.2113L30.35,42.8991c3.1026-.0708,7.3357-1.8228,9.3922-2.2867L42.0435,45.04c1.2225,2.8287,2.0634,4.0522,4.4337,4.0522l12.2842-.4649c1.6779-.0825,2.7092-.6548,2.7092-2.3371C61.4706,44.9139,60.3183,44.1988,58.56,44.1988Z" fill="#fcea2b"/>
    <circle cx="49.1408" cy="33.018" r="3.5434" fill="#fcea2b"/>
  </g>
  <g id="skin-shadow">
    <path d="M20.3584,40.5533a5.3271,5.3271,0,0,0,3.4163,5.3514L30.0438,47.82v-.889c-4.6551-1.2207-8.1041-4.5416-8.5979-7.4989Z" fill="#f1b31c"/>
    <path d="M30.35,42.8991c3.1026-.0708,7.5464-1.8741,9.603-2.338l-1.5268-3.2694c-1.6907,2.1622-8.0762,4.0626-8.0762,5.1526Z" fill="#f1b31c"/>
  </g>
  <g id="line">
    <path d="M30.0438,47.82v.9658l-4.9071.66H21.968c-2.1412,0-3.1872.8168-3.1872,2.6516v2.2415h11.263c3.2113-.153,5.8349-2.2533,5.8349-5.2349" fill="none" stroke="#000" stroke-linecap="round" stroke-linejoin="round" stroke-width="2"/>
    <path d="M38.6048,37.6739,42.0435,45.04c1.2225,2.8287,2.0634,4.0522,4.4337,4.0522l12.2842-.4649c1.6779-.0825,2.7092-.6548,2.7092-2.3371,0-1.376-1.1523-2.0911-2.9109-2.0911H47.3949l-3.1586-6.8046c-1.2092-2.8441-3.0349-4.0155-6.479-3.7377l-1.443.0713-9.2526.9907c-4.8164.535-6.7033,3.5406-6.7033,5.8348a5.3271,5.3271,0,0,0,3.4163,5.3514" fill="none" stroke="#000" stroke-linecap="round" stroke-linejoin="round" stroke-width="2"/>
    <polyline points="11.158 23.222 11.158 54.339 15.443 54.339 15.443 23.222 56.684 23.222 56.684 40.678" fill="none" stroke="#000" stroke-linecap="round" stroke-linejoin="round" stroke-width="2"/>
    <polyline points="64.166 23.222 64.166 18.937 7.657 18.937 7.657 23.222" fill="none" stroke="#000" stroke-linecap="round" stroke-linejoin="round" stroke-width="2"/>
    <line x1="60.9686" y1="40.811" x2="60.9686" y2="23.2221" fill="none" stroke="#000" stroke-linecap="round" stroke-linejoin="round" stroke-width="2"/>
    <polyline points="56.684 48.706 56.684 54.339 60.969 54.339 60.969 51.198" fill="none" stroke="#000" stroke-linecap="round" stroke-linejoin="round" stroke-width="2"/>
    <path d="M28.04,42.8991c4.57,0,9.856-1.8741,11.9126-2.338" fill="none" stroke="#000" stroke-linecap="round" stroke-linejoin="round" stroke-width="2"/>
    <path d="M45.5974,33.018a3.5435,3.5435,0,1,1,3.5434,3.5434" fill="none" stroke="#000" stroke-linecap="round" stroke-linejoin="round" stroke-width="2"/>
  </g>
</svg>
