<svg id="emoji" viewBox="0 0 72 72" xmlns="http://www.w3.org/2000/svg">
  <g id="color">
    <polygon fill="#fff" points="25.7094 51.2551 27.3436 48.6404 28.7326 44.8819 28.7326 43.0026 30.6119 42.7574 32.3278 47.9868 29.2229 48.5587 27.9972 52.8076 27.9972 54.2783 24.7289 53.8698 25.7094 51.2551"/>
    <polygon fill="#9b9b9a" points="53.118 45.107 41.915 45.107 41.915 50.728 30.481 50.728 30.481 56.349 19.242 56.349 19.242 61.853 53.118 61.853 53.118 45.107"/>
  </g>
  <g id="skin">
    <path fill="#fcea2b" d="m28.5423,33.5552l5.5574.96c.9509.1778,1.6948.9217,1.8726,1.8726l1.87,8.96c.3534.8844-.0771,1.8878-.9615,2.2411-.0229.0091-.046.0178-.0692.026-1.0245.1318-1.9908-.5075-2.27-1.502l-2.3905-7.82-5.1687-.5111c-4.4727-.402-6.063-1.6708-5.1868-6.1563.1544-.7906,2.5621-11.0379,2.5621-11.0379,1.1586-.4963,2.3796-.832,3.629-.9979,1.4705,0,3.1637,1.1238,2.7171,3.7685-.1726,1.0225-1.1756,6.4169-1.1756,6.4169l-.9859,3.7801Z"/>
    <path fill="#fcea2b" d="m27.0565,40.9394l-.5483,3.7867c-.1966,1.0892-.6015,2.1302-1.1925,3.066l-2.6818,5.6879c-.5095.8232-1.5293,1.1722-2.4363.8335-.7188-.3625-.8282-1.4934-.3865-2.417l2.6143-6.9494.5052-4.4275,4.1259.4198Z"/>
    <circle cx="31.6652" cy="13.4056" r="3.4017" fill="#fcea2b"/>
  </g>
  <g id="line">
    <line x1="38.6775" x2="34.0269" y1="29.0791" y2="28.0675" fill="none" stroke="#000" stroke-linecap="round" stroke-linejoin="round" stroke-width="2"/>
    <path fill="none" stroke="#000" stroke-linecap="round" stroke-linejoin="round" stroke-width="2" d="m27.7411,38.49l-1.2329,6.2363c-.1966,1.0892-.6015,2.1302-1.1925,3.066l-2.6818,5.6877c-.5095.8232-1.5293,1.1722-2.4363.8335-.7188-.3625-.8282-1.4934-.3865-2.417l2.6143-6.9494.5052-4.0976"/>
    <path fill="none" stroke="#000" stroke-linecap="round" stroke-linejoin="round" stroke-width="2" d="m28.5423,33.5552l5.5574.96c.9509.1778,1.6948.9217,1.8726,1.8726l1.87,8.96c.3534.8844-.0771,1.8878-.9615,2.2411-.0229.0091-.046.0178-.0692.026-1.0245.1318-1.9908-.5075-2.27-1.502l-2.3905-7.82-5.1687-.5111c-4.4727-.402-6.063-1.6708-5.1868-6.1563.1544-.7906,2.5621-11.0379,2.5621-11.0379,1.1586-.4963,2.3796-.832,3.629-.9979,1.4705,0,3.1637,1.1238,2.7171,3.7685-.1726,1.0225-1.1756,6.4169-1.1756,6.4169"/>
    <polyline fill="none" stroke="#000" stroke-linecap="round" stroke-linejoin="round" stroke-width="2" points="52.788 45.107 41.915 45.107 41.915 50.728 30.481 50.728 30.481 56.349 19.242 56.349 19.242 61.193"/>
    <path fill="none" stroke="#000" stroke-linecap="round" stroke-linejoin="round" stroke-width="2" d="m16.796,31.303s1.4482-6.0251,1.8065-7.3793c.1647-.7605.7013-1.3869,1.4275-1.6664l4.3275-1.6693"/>
    <path fill="none" stroke="#000" stroke-linecap="round" stroke-linejoin="round" stroke-width="2" d="m28.2635,13.4056c0-1.8787,1.5229-3.4017,3.4016-3.4018s3.4017,1.5229,3.4018,3.4016c0,1.8787-1.5229,3.4017-3.4016,3.4018h-.0001"/>
  </g>
</svg>
