<svg id="emoji" viewBox="0 0 72 72" xmlns="http://www.w3.org/2000/svg">
  <g id="color">
    <path fill="#fff" d="m24.99,44.8007l.0872,14.4512,8.4355-.0796s6.446-.2387,8.6742-7.1622-.4775-7.6397-.4775-7.6397c0,0-13.7029-.7312-16.7194.4302Z"/>
    <path fill="#fff" d="m53.6682,17.2111v-4.7024c.0206-.3401-.2385-.6325-.5787-.6531-.0248-.0015-.0497-.0015-.0744,0H18.2045c-.3401-.0206-.6325.2385-.6531.5787-.0015.0248-.0015.0497,0,.0744v16.3277c-.0206.3401.2385.6325.5787.6531.0248.0015.0497.0015.0744,0h34.8106c.3401.0206.6325-.2385.6531-.5787.0015-.0248.0015-.0497,0-.0744v-4.3758h3.3309v-7.25l-3.3309.0005Z"/>
    <path fill="#9b9b9a" d="m43.2851,52.7306l3.7149-.7306v-7l-3.7149-1.1419v8.8725Z"/>
    <path fill="#fcea2b" d="m24.9258,51.1876c.0202.3348-.2348.6227-.5697.6429-.0244.0015-.0488.0015-.0732,0h-7.58c-.8167.0067-1.4733.6742-1.4666,1.4909.0066.8072.6594,1.46,1.4666,1.4666h7.58c.3348-.0202.6227.2348.6429.5697.0015.0244.0015.0489,0,.0733"/>
    <path fill="#fcea2b" d="m24.9258,40.5791c.0203.3348-.2347.6226-.5695.6429-.0245.0015-.049.0015-.0734,0h-7.58c-.8167.0005-1.4784.6629-1.478,1.4796.0005.8161.6619,1.4775,1.478,1.478h7.58c.3348-.0203.6226.2347.6429.5695.0015.0245.0015.049,0,.0734"/>
    <path fill="#9b9b9a" d="m24.99,44.8007c5.9994-.3324,12.0131-.3109,18.01.0643-2-4.865-5-7.6935-11.3233-7.6935h-6.6867v7.6292Z"/>
    <path fill="#d0cfce" d="m56.5721,45.594c.0203.3348-.2347.6227-.5696.643-.0244.0015-.0489.0015-.0733,0h-8.5649v3.9219h8.5649c.3348-.0203.6226.2347.6429.5695.0015.0244.0015.049,0,.0734v-5.2078Z"/>
    <path fill="#b1cc33" d="m21.7673,25.9267h4.931v-10.4429h-4.931v10.4429Z"/>
  </g>
  <g id="line">
    <path fill="none" stroke="#000" stroke-linecap="round" stroke-miterlimit="10" stroke-width="2" d="m24.2829,51.1876h-7.58c-1.1675.0103-2.1114.9542-2.1216,2.1217h0c.0103,1.1675.9541,2.1114,2.1216,2.1217h7.58"/>
    <path fill="none" stroke="#000" stroke-linecap="round" stroke-miterlimit="10" stroke-width="2" d="m24.2829,40.5791h-7.58c-1.1675.0103-2.1114.9542-2.1216,2.1217h0c.0102,1.1675.9541,2.1114,2.1216,2.1217h7.58"/>
    <path fill="none" stroke="#000" stroke-linecap="round" stroke-linejoin="round" stroke-width="2" d="m24.3472,59.9315h7.3938c6.4625-.0188,11.6862-5.2729,11.6675-11.7354-.0187-6.436-5.2315-11.6488-11.6675-11.6675h-7.3938v23.4029Z"/>
    <polyline fill="none" stroke="#000" stroke-linecap="round" stroke-linejoin="round" stroke-width="2" points="42.735 52.473 46.721 51.38 46.721 45.015 42.735 43.987"/>
    <polyline fill="none" stroke="#000" stroke-linecap="round" stroke-linejoin="round" stroke-width="2" points="55.929 50.802 46.721 50.802 46.721 45.594 55.929 45.594"/>
    <path fill="none" stroke="#000" stroke-linecap="round" stroke-linejoin="round" stroke-width="2" d="m53.6682,17.2111v-4.7024c.0206-.3401-.2385-.6325-.5787-.6531-.0248-.0015-.0497-.0015-.0744,0H18.2045c-.3401-.0206-.6325.2385-.6531.5787-.0015.0248-.0015.0497,0,.0744v16.3277c-.0206.3401.2385.6325.5787.6531.0248.0015.0497.0015.0744,0h34.8106c.3401.0206.6325-.2385.6531-.5787.0015-.0248.0015-.0497,0-.0744v-4.3758h3.3309v-7.25l-3.3309.0005Z"/>
    <rect x="21.4408" y="15.1572" width="5.5841" height="11.096" fill="none" stroke="#000" stroke-linecap="round" stroke-linejoin="round" stroke-width="2"/>
  </g>
</svg>
