<svg id="emoji" viewBox="0 0 72 72" xmlns="http://www.w3.org/2000/svg">
  <g id="color">
    <polygon fill="#fff" points="18.152 61.6159 18.152 33.096 35.6872 21.4058 53.5248 33.1968 53.424 61.4143 18.152 61.6159"/>
    <polygon fill="#92d3f5" points="11.462 25.611 35.795 9.177 60.063 25.541 60.063 62.014 54.196 62.014 54.196 32.787 35.788 20.368 17.329 32.857 17.329 62.014 11.462 62.014 11.462 25.611"/>
  </g>
  <g id="skin">
    <path fill="#fcea2b" d="m44.6937,51.12l2.8236.1976c-.4544-1.6085-.8207-3.2407-1.0973-4.8891-.1-1.1475.05-4.64.05-4.64-.2003-1.4477-1.4497-2.5183-2.911-2.4944h-5.1312c-1.3969,0-1.62-.0212-3.4587-.0212h-7.48c-1.3385.01-2.4155,1.1031-2.4055,2.4416,0,.0113.0002.0227.0005.034,0,0-.05,3.4659-.1486,4.6046-.099,1.2379-.7426,5.0008-.7426,5.0008l2.7486.3095-.6064,9.2323c-.0037.6123.6984,1.47,1.0944,1.47.5817,0,1.3436-.48,1.3913-.99l1.2378-11.2094c.05-.5447.8233-.8206,1.3628-.8206.711.1227,1.196.7881,1.095,1.5025l-.4864,5.5318,2.0557.9474.3168,5.8958c.001.5394.2026.6726.7756.6726h1.0869c.4447,0,.7-.0973.7313-.8605l.4963-5.7079,2.0557-.9474-.5027-5.44c-.051-.663.4235-1.5671,1.1514-1.5671.6683,0,1.2927.1793,1.3963.9147l1.1645,10.3907c.0976.6856.5812,1.6825,1.3922,1.6825.6328-.0346,1.1408-.5351,1.1848-1.1674,0,0-.3418-7.0801-.6411-10.0734Z"/>
    <circle cx="31.2056" cy="33.8729" r="2.7168" fill="#fcea2b"/>
    <circle cx="40.7019" cy="33.8729" r="2.7168" fill="#fcea2b"/>
  </g>
  <g id="line">
    <line x1="60.0633" x2="60.0633" y1="61.4636" y2="20.1288" fill="none" stroke="#000" stroke-linecap="round" stroke-linejoin="round" stroke-width="2"/>
    <line x1="35.7945" x2="63.8" y1="9.2474" y2="28.0984" fill="none" stroke="#000" stroke-linecap="round" stroke-linejoin="round" stroke-width="2"/>
    <line x1="11.4616" x2="11.4616" y1="61.4636" y2="20.1288" fill="none" stroke="#000" stroke-linecap="round" stroke-linejoin="round" stroke-width="2"/>
    <polyline fill="none" stroke="#000" stroke-linecap="round" stroke-linejoin="round" stroke-width="2" points="17.329 61.464 17.329 32.857 35.737 20.438 35.788 20.438 54.196 32.857 54.196 61.464"/>
    <line x1="35.7304" x2="7.7249" y1="9.2474" y2="28.0984" fill="none" stroke="#000" stroke-linecap="round" stroke-linejoin="round" stroke-width="2"/>
    <path fill="none" stroke="#000" stroke-linecap="round" stroke-linejoin="round" stroke-width="2" d="m30.0582,50.1659l-1.2382,11.2094c-.0477.51-.81.99-1.3913.99-.5803-.063-1.0427-.514-1.12-1.0926l1.2612-18.86"/>
    <path fill="none" stroke="#000" stroke-linecap="round" stroke-linejoin="round" stroke-width="2" d="m23.8757,51.3542s.6437-3.7629.7427-5.0008c.099-1.1387.1485-4.6046.1485-4.6046-.0287-1.3383,1.0329-2.4464,2.3712-2.4751.0113-.0002.0226-.0004.0339-.0005h7.2243"/>
    <path fill="none" stroke="#000" stroke-linecap="round" stroke-linejoin="round" stroke-width="2" d="m44.07,42.2877c-.5975.9681-.9067,2.0865-.8914,3.224,0,1.5625,1.34,3.4821,1.34,4.5112.2993,2.9933.8156,11.17.8156,11.17-.0441.6319-.5517,1.1322-1.1842,1.1671-.6708-.0095-1.2359-.5038-1.3345-1.1674l-1.2473-11.1226"/>
    <path fill="none" stroke="#000" stroke-linecap="round" stroke-linejoin="round" stroke-width="2" d="m36.6367,41.4589c.0813-1.2829,1.1871-2.257,2.47-2.1757.0415.0026.0829.0064.1242.0112h4.6445c1.4613-.0239,2.7107,1.0467,2.911,2.4944,0,0-.15,3.4923-.05,4.64.2768,1.6484.6432,3.2806,1.0976,4.8891"/>
    <path fill="none" stroke="#000" stroke-linecap="round" stroke-linejoin="round" stroke-width="2" d="m34.2682,62.9868l.24-6.293"/>
    <path fill="none" stroke="#000" stroke-linecap="round" stroke-linejoin="round" stroke-width="2" d="m36.9646,56.6938l.2388,6.3645"/>
    <g>
      <path fill="none" stroke="#000" stroke-linecap="round" stroke-linejoin="round" stroke-width="2" d="m37.0315,49.5446h.3109c.8241-.0955,1.5695.4952,1.665,1.3193.012.1035.0132.208.0035.3118l.4845,5.2043"/>
      <path fill="none" stroke="#000" stroke-linecap="round" stroke-linejoin="round" stroke-width="2" d="m34.366,49.5446h-.236c-.8241-.0955-1.5695.4952-1.665,1.3193-.012.1035-.0132.208-.0035.3118l-.4844,5.2043"/>
    </g>
    <path fill="none" stroke="#000" stroke-linecap="round" stroke-linejoin="round" stroke-width="2" d="m34.0081,47.1064c-.2754-.3267-.4152-.7465-.3906-1.1731.0002-1.1185.9071-2.0252,2.0256-2.025s2.0252.9071,2.025,2.0256c0,.4202-.1308.8299-.3741,1.1724"/>
    <circle cx="31.2056" cy="33.8729" r="2.7168" fill="none" stroke="#000" stroke-linecap="round" stroke-linejoin="round" stroke-width="2"/>
    <circle cx="40.7019" cy="33.8729" r="2.7168" fill="none" stroke="#000" stroke-linecap="round" stroke-linejoin="round" stroke-width="2"/>
  </g>
</svg>
