<svg id="emoji" xmlns="http://www.w3.org/2000/svg" viewBox="0 0 72 72">
  <g id="color">
    <polygon points="36.641 23.012 40.117 26.752 37.922 30.756 37.936 36.303 22.978 36.303 22.592 32.459 21.554 30.277 22.063 27.49 21.298 20.899 33.33 11.134 40.153 14.303 36.641 23.012" fill="#9b9b9a"/>
    <polygon points="36.641 23.012 40.117 26.752 37.922 30.756 37.936 36.303 47.788 36.303 47.633 32.761 46.005 28.481 46.823 24.602 46.104 16.936 40.153 14.303 36.641 23.012" fill="#3f3f3f"/>
    <path d="M19.2578,58.568c0-9.1562,6.9838-16.4253,16.6672-16.5788,9.112-.1445,16.6422,6.2323,16.6671,16.5788Z" fill="#ea5a47"/>
    <polygon points="32.584 30.153 27.436 30.153 26.919 24.245 32.067 24.245 32.584 30.153" fill="#fff"/>
  </g>
  <g id="line">
    <path d="M29.7387,57.9618a6.1863,6.1863,0,0,1,12.3726,0" fill="none" stroke="#000" stroke-linecap="round" stroke-linejoin="round" stroke-width="2"/>
    <path d="M54.5875,43.7779c3.219,3.0927,5.3153,8.6178,5.3153,13.6429" fill="none" stroke="#000" stroke-linecap="round" stroke-linejoin="round" stroke-width="2"/>
    <path d="M11.9472,57.4208a21.1963,21.1963,0,0,1,5.64-13.6346" fill="none" stroke="#000" stroke-linecap="round" stroke-linejoin="round" stroke-width="2"/>
    <polyline points="46.104 16.936 46.823 24.602 46.005 28.481 47.633 32.761 47.788 36.303" fill="none" stroke="#000" stroke-linecap="round" stroke-linejoin="round" stroke-width="2"/>
    <polyline points="22.9 35.531 22.592 32.459 21.554 30.277 22.063 27.49 21.298 20.899" fill="none" stroke="#000" stroke-linecap="round" stroke-linejoin="round" stroke-width="2"/>
    <polyline points="18.743 22.984 33.33 11.134 49.646 18.544" fill="none" stroke="#000" stroke-linecap="round" stroke-linejoin="round" stroke-width="2"/>
    <line x1="25.7178" y1="17.1835" x2="25.0792" y2="12.3992" fill="none" stroke="#000" stroke-linecap="round" stroke-miterlimit="10" stroke-width="2"/>
    <polyline points="26.919 24.245 32.067 24.245 32.584 30.153" fill="none" stroke="#000" stroke-linecap="round" stroke-linejoin="round" stroke-width="2"/>
    <polyline points="38.164 19.237 36.641 23.012 40.117 26.724 37.93 30.758 37.937 36.214" fill="none" stroke="#000" stroke-linecap="round" stroke-linejoin="round" stroke-width="2"/>
    <line x1="12.3198" y1="36.3028" x2="32.675" y2="36.3028" fill="none" stroke="#000" stroke-linecap="round" stroke-linejoin="round" stroke-width="2"/>
    <line x1="42.8398" y1="36.3028" x2="59.6802" y2="36.3028" fill="none" stroke="#000" stroke-linecap="round" stroke-linejoin="round" stroke-width="2"/>
    <path d="M40.9783,42.615A15.8563,15.8563,0,0,1,52.5921,57.9081" fill="none" stroke="#000" stroke-linecap="round" stroke-linejoin="round" stroke-width="2"/>
    <path d="M19.2578,57.9081c0-7.3088,5.61-14.2373,13.7462-15.6474" fill="none" stroke="#000" stroke-linecap="round" stroke-linejoin="round" stroke-width="2"/>
  </g>
</svg>
