<svg id="emoji" viewBox="0 0 72 72" version="1.1" xmlns="http://www.w3.org/2000/svg">
  <g id="color">
    <path fill="#B1CC33" d="M58.9991,59.9991h-46c-0.5518-0.0012-0.9988-0.4482-1-1v-46c0.0012-0.5518,0.4482-0.9988,1-1h46 c0.5518,0.0012,0.9988,0.4482,1,1v46c0.0314,0.5209-0.3653,0.9686-0.8862,1C59.0751,60.0014,59.037,60.0014,58.9991,59.9991z"/>
  </g>
  <g id="line">
    <path fill="none" stroke="#000000" stroke-miterlimit="10" stroke-width="2" d="M58.9991,59.9991h-46 c-0.5518-0.0012-0.9988-0.4482-1-1v-46c0.0012-0.5518,0.4482-0.9988,1-1h46c0.5518,0.0012,0.9988,0.4482,1,1v46 c0.0314,0.5209-0.3653,0.9686-0.8862,1C59.0751,60.0014,59.037,60.0014,58.9991,59.9991z"/>
    <g>
      <path d="M39.0988,41.5991c-0.5519,0.0004-0.9996-0.4467-1-0.9986c0-0.0005,0-0.0009,0-0.0014v-9.4c0-0.5523,0.4477-1,1-1 s1,0.4477,1,1v9.4c0.0003,0.552-0.4468,0.9997-0.9988,1C39.0996,41.5991,39.0992,41.5991,39.0988,41.5991z"/>
      <path d="M46.3234,39.955l-3.7143-4.4109l3.2045-3.6887c0.3624-0.4168,0.3184-1.0485-0.0984-1.4109s-1.0485-0.3184-1.4109,0.0984 l-2.9125,3.3526v3.3075l3.4025,4.0411c0.356,0.4223,0.9869,0.4761,1.4092,0.1201c0.4223-0.356,0.4761-0.9869,0.1201-1.4092 H46.3234z"/>
      <g>
        <path d="M29.863,39.504c-1.042-0.2781-1.7635-1.2265-1.7535-2.3049v-2.7c-0.01-1.0782,0.7116-2.0263,1.7535-2.3039v-2.0324 c-2.1656,0.2922-3.7748,2.1512-3.7535,4.3363v2.7c-0.0216,2.1854,1.5876,4.0448,3.7535,4.3371V39.504z"/>
        <path d="M31.1555,30.1628v2.0324c1.042,0.2776,1.7637,1.2256,1.7538,2.3039v2.7c0.0097,1.0784-0.7118,2.0266-1.7538,2.3047 v2.0324c2.166-0.2921,3.7754-2.1516,3.7538-4.3371v-2.7C34.9306,32.3139,33.3213,30.4549,31.1555,30.1628z"/>
      </g>
    </g>
  </g>
</svg>
