<svg id="emoji" viewBox="0 0 72 72" xmlns="http://www.w3.org/2000/svg">
  <g id="color">
    <rect x="24.0872" y="21.5686" width="23.2403" height="33.98" fill="#fff"/>
    <polyline fill="#9b9b9a" points="24.454 54.9058 4.026 56.153 4.026 16 68 16 68 55.991 48.304 56 48.3202 21.2122 24.4661 21.3055 24.4568 53.2491"/>
    <path fill="#fcea2b" d="m27,43.2891l-1.822,2.7563-5.1772,2.5087c-.5657.2224-.8639.8437-.6836,1.4242.1565.5359.7178.8434,1.2537.6869.019-.0055.0377-.0116.0563-.0183l4.9342-1.5127c.6802-.2276,1.2943-.6184,1.7886-1.1381l4.18-4.2311-4.53-.4759Z"/>
  </g>
  <g id="skin-shadow">
    <path fill="#fcea2b" d="m34.483,37.9341v1.81l3.4021,4.19c.3618.6846.5725,1.4388.618,2.2117l.3316,7.4825c.07,1.4557-.6738,2.2238-1.4194,2.2238-.7931,0-1.4067-.746-1.54-2.1518l-.861-7.08-5.6549-4.8191c-.5635-.4869-.8942-1.1898-.91-1.9343.0275-.745.2426-1.4709.6254-2.1106l2.6929-4.8621c.9328-1.8657,1.8444-2.5281,3.0759-2.5281,1.2257.0148,2.2072,1.0205,2.1924,2.2461,0,.0056-.0002.0111-.0003.0167l-2.5527,5.3052Z"/>
    <circle cx="39.1091" cy="27.2117" r="2.6701" fill="#fcea2b"/>
    <path fill="#f1b31c" d="m19.3172,49.9783c.1565.5359.7178.8434,1.2537.6869.019-.0055.0377-.0116.0563-.0183l4.9342-1.5127c.6802-.2276,1.2943-.6184,1.7886-1.1381l4.18-4.2311-4.1685-.4759-1.3723,2.679c-.464.485-1.0473.8393-1.6915,1.0276l-3.0317,1.3979-1.9488,1.5847Z"/>
    <path fill="#f1b31c" d="m41.4043,25.4468s-3.52,1.2239-3.9621,3.8354c0,0-2.2915-1.9976.2927-4.3527s3.6694.5173,3.6694.5173Z"/>
    <path fill="#f1b31c" d="m36.439,45.4894c-1.8323-1.8843-3.7638-3.6695-5.7863-5.3479.9951-3.4333,5.2275-9.2054,5.2275-9.2054l-2.236-.57-2.0188,2.7839-3.0813,7.7433.9524.4688-.1374.4389,5.9175,4.8324.7366,8.9092h1.5613c0-.1596-.4199-9.032-1.1355-10.0532Z"/>
    <path fill="#9b9b9a" d="m36.0638,56l-10.8416,8.7719c-.1807.1463-.2086.4114-.0623.5921.082.1013.2062.1589.3365.156l1.5828-.0352c.4692-.0106.921-.1798,1.2817-.48l10.8434-9.0225-3.1405.0177Z"/>
  </g>
  <g id="line">
    <polyline fill="none" stroke="#000" stroke-linecap="round" stroke-linejoin="round" stroke-width="2" points="48.304 56 48.304 21.078 23.456 21.078 23.456 29.168"/>
    <polyline fill="none" stroke="#000" stroke-linecap="round" stroke-linejoin="round" stroke-width="2" points="4.951 55.814 19.554 55.814 23.456 55.852 23.456 53.271"/>
    <line x1="67.049" x2="4.951" y1="16.1862" y2="16.1862" fill="none" stroke="#000" stroke-linecap="round" stroke-linejoin="round" stroke-width="2"/>
    <line x1="45.4527" x2="67.049" y1="56.6138" y2="56.6138" fill="none" stroke="#000" stroke-linecap="round" stroke-linejoin="round" stroke-width="2"/>
    <polyline fill="none" stroke="#000" stroke-linecap="round" stroke-linejoin="round" stroke-width="1.6353" points="42.728 38.041 38.396 38.041 34.597 33.681"/>
    <path fill="none" stroke="#000" stroke-linecap="round" stroke-linejoin="round" stroke-width="1.6353" d="m34.3954,30.4144s-4.73,1.1064-5.7956,1.8694c-1.3608.9745-4.6392,5.8563-4.6392,5.8563"/>
    <g>
      <path fill="none" stroke="#000" stroke-linecap="round" stroke-linejoin="round" stroke-width="1.6353" d="m19.4124,49.9783c.1565.5359.7178.8434,1.2537.6869.019-.0055.0377-.0116.0563-.0183l4.9341-1.5127c.6802-.2276,1.2942-.6184,1.7885-1.1381l4.18-4.2311"/>
      <path fill="none" stroke="#000" stroke-linecap="round" stroke-linejoin="round" stroke-width="1.6353" d="m27.0954,43.2891l-1.8222,2.7563-5.1772,2.5087c-.5657.2224-.8639.8437-.6836,1.4242"/>
    </g>
    <path fill="none" stroke="#000" stroke-linecap="round" stroke-linejoin="round" stroke-width="1.6353" d="m34.5782,37.9341v1.81l3.4021,4.19c.3617.6846.5725,1.4388.618,2.2117l.3316,7.4825c.07,1.4557-.6739,2.2238-1.4194,2.2238-.7932,0-1.4068-.746-1.54-2.1518l-.861-7.08-5.6548-4.8191c-.5635-.4869-.8942-1.1898-.91-1.9343.0275-.745.2426-1.4709.6254-2.1106l2.6929-4.8621c.9328-1.8657,1.8444-2.5281,3.0759-2.5281,1.2256.0154,2.2067,1.0215,2.1914,2.2471,0,.0053-.0002.0105-.0003.0158"/>
    <path fill="none" stroke="#000" stroke-linecap="round" stroke-linejoin="round" stroke-width="1.6353" d="m36.5342,27.2117c0-1.4746,1.1954-2.67,2.67-2.67s2.67,1.1954,2.67,2.67-1.1954,2.67-2.67,2.67"/>
  </g>
</svg>
