<svg id="emoji" viewBox="0 0 72 72" xmlns="http://www.w3.org/2000/svg">
  <g id="color">
    <polyline fill="#9b9b9a" points="23.456 55.852 4.026 56.153 4.026 16 68 16 68 55.991 48.304 56 48.304 19.958 23.223 19.958 23.456 42.635"/>
    <path fill="#fcea2b" d="M27,43.2891,25.178,46.0454l-5.1772,2.5087a1.1605,1.1605,0,0,0-.6836,1.4242,1.0108,1.0108,0,0,0,1.31.6686l4.9342-1.5127A4.3917,4.3917,0,0,0,27.35,47.9961l4.18-4.2311Z"/>
  </g>
  <g id="skin-shadow">
    <path fill="#fcea2b" d="M34.483,37.9341v1.81l3.4021,4.19a5.414,5.414,0,0,1,.618,2.2117l.3316,7.4825c.07,1.4557-.6738,2.2238-1.4194,2.2238-.7931,0-1.4067-.746-1.54-2.1518l-.861-7.08-5.6549-4.8191a2.63,2.63,0,0,1-.91-1.9343,4.4293,4.4293,0,0,1,.6254-2.1106l2.6929-4.8621c.9328-1.8657,1.8444-2.5281,3.0759-2.5281a2.2194,2.2194,0,0,1,2.1921,2.2628Z"/>
    <circle cx="39.1091" cy="27.2117" r="2.6701" fill="#fcea2b"/>
    <path fill="#f1b31c" d="M19.3172,49.9783a1.0108,1.0108,0,0,0,1.31.6686l4.9342-1.5127A4.3927,4.3927,0,0,0,27.35,47.9961l4.18-4.2311-4.1685-.4759-1.3723,2.679a3.8262,3.8262,0,0,1-1.6915,1.0276L21.266,48.3936Z"/>
    <path fill="#f1b31c" d="M41.4043,25.4468s-3.52,1.2239-3.9621,3.8354c0,0-2.2915-1.9976.2927-4.3527S41.4043,25.4468,41.4043,25.4468Z"/>
    <path fill="#f1b31c" d="M36.439,45.4894a73.8812,73.8812,0,0,0-5.7863-5.3479c.9951-3.4333,5.2275-9.2054,5.2275-9.2054l-2.236-.57L31.6254,33.15l-3.0813,7.7433.9524.4688-.1374.4389,5.9175,4.8324.7366,8.9092h1.5613C37.5745,55.383,37.1546,46.5106,36.439,45.4894Z"/>
    <path fill="#9b9b9a" d="M36.0638,56,25.2222,64.7719a.421.421,0,0,0,.2742.7481l1.5828-.0352a2.0767,2.0767,0,0,0,1.2817-.48l10.8434-9.0225Z"/>
  </g>
  <g id="line">
    <polyline fill="none" stroke="#000" stroke-linecap="round" stroke-linejoin="round" stroke-width="2" points="48.304 56 48.304 21.078 23.456 21.078 23.456 29.168"/>
    <polyline fill="none" stroke="#000" stroke-linecap="round" stroke-linejoin="round" stroke-width="2" points="4.951 55.814 19.554 55.814 23.456 55.852 23.456 53.271"/>
    <line x1="67.049" x2="4.951" y1="16.1862" y2="16.1862" fill="none" stroke="#000" stroke-linecap="round" stroke-linejoin="round" stroke-width="2"/>
    <line x1="45.4527" x2="67.049" y1="56.6138" y2="56.6138" fill="none" stroke="#000" stroke-linecap="round" stroke-linejoin="round" stroke-width="2"/>
    <polyline fill="none" stroke="#000" stroke-linecap="round" stroke-linejoin="round" stroke-width="1.6353" points="42.728 38.041 38.396 38.041 34.597 33.681"/>
    <path fill="none" stroke="#000" stroke-linecap="round" stroke-linejoin="round" stroke-width="1.6353" d="M34.3954,30.4144s-4.73,1.1064-5.7956,1.8694c-1.3608.9745-4.6392,5.8563-4.6392,5.8563"/>
    <g>
      <path fill="none" stroke="#000" stroke-linecap="round" stroke-linejoin="round" stroke-width="1.6353" d="M19.4124,49.9783a1.0108,1.0108,0,0,0,1.31.6686l4.9341-1.5127a4.3914,4.3914,0,0,0,1.7885-1.1381l4.18-4.2311"/>
      <path fill="none" stroke="#000" stroke-linecap="round" stroke-linejoin="round" stroke-width="1.6353" d="M27.0954,43.2891l-1.8222,2.7563L20.096,48.5541a1.1605,1.1605,0,0,0-.6836,1.4242"/>
    </g>
    <path fill="none" stroke="#000" stroke-linecap="round" stroke-linejoin="round" stroke-width="1.6353" d="M34.5782,37.9341v1.81l3.4021,4.19a5.4155,5.4155,0,0,1,.618,2.2117l.3316,7.4825c.07,1.4557-.6739,2.2238-1.4194,2.2238-.7932,0-1.4068-.746-1.54-2.1518l-.861-7.08-5.6548-4.8191a2.63,2.63,0,0,1-.91-1.9343,4.4293,4.4293,0,0,1,.6254-2.1106l2.6929-4.8621c.9328-1.8657,1.8444-2.5281,3.0759-2.5281A2.2194,2.2194,0,0,1,37.13,32.629"/>
    <path fill="none" stroke="#000" stroke-linecap="round" stroke-linejoin="round" stroke-width="1.6353" d="M36.5342,27.2117a2.67,2.67,0,1,1,2.67,2.67"/>
  </g>
</svg>
