<svg id="emoji" viewBox="0 0 72 72" xmlns="http://www.w3.org/2000/svg">
  <g id="hair">
    <path fill="#f1b31c" d="M54.1935,32.719a23.7232,23.7232,0,0,1-1.1573-2.6329c-1.4726-3.2695-2.0234-4.4927-2.3486-10.5239.0273-3.6929-3.794-6.7842-7.4746-7.0928a1.001,1.001,0,0,1-.6885-.3433c-.0928-.0995-2.4082-2.6546-7.2432-2.6546-6.2,0-11.4412,3.3817-12.743,8.2259a18.5164,18.5164,0,0,0-.5645,6.1759,13.3167,13.3167,0,0,1-.7607,5.9608,38.8747,38.8747,0,0,1-3.12,4.7343l.1908,4.452a11.0715,11.0715,0,0,0,8.78,10.4461,3.8539,3.8539,0,0,0,.8576.0944c4.953,1.2891,10.8956,2.9162,18.7,0a8.3412,8.3412,0,0,1,4.209,1.5135c1.0534-.6931,2.0475-4.4725,2.972-5.33C54.99,45.03,56.9269,37.4621,54.1935,32.719ZM36,45.0186C25.0442,44.9686,25.8956,28.65,25.8956,28.65,28.2091,26.1108,41.39,17.86,41.39,17.86c6.0806,2.0743,6.3829,11.64,6.3829,11.64S45.5957,44.5685,36,45.0186Z"/>
  </g>
  <g id="color">
    <path fill="#fcea2b" d="M24.51,29.1228v1.042c0,8.3286,4.8508,14.8539,11.044,14.8539s11.0442-6.5253,11.0442-14.8539c0-5.0665-1.8716-8.1824-5.5611-12.1229a67.2665,67.2665,0,0,1-9.4594,6.2845C28.7922,25.975,24.9947,28.2126,24.51,29.1228Z"/>
    <g id="color-2">
      <path fill="#92d3f5" d="M16.9584,60.9583V56.95c0-5.0109,5.011-9.02,10.0219-9.02q9.02,7.5165,18.0394,0c5.0109,0,10.0219,4.0088,10.0219,9.02v4.0088"/>
    </g>
    <polygon fill="#fff" points="26.447 34.486 35.43 32.919 45.541 34.413 45.924 36.139 40.511 44.514 30.681 44.514 25.184 34.85 26.447 34.486"/>
  </g>
  <g id="line">
    <path d="M42.0354,28.8323a2,2,0,1,1-2-2,2,2,0,0,1,2,2"/>
    <path d="M34.0354,28.8323a2,2,0,1,1-2-2,2,2,0,0,1,2,2"/>
    <path fill="none" stroke="#000" stroke-linecap="round" stroke-linejoin="round" stroke-width="2" d="M18.5813,35.7722c.6148-1.774,1.4978-3.4939,2.1913-5.2759,1.6357-4.2-.209-6.4512,1.291-12.0342,1.48-5.5,7.2773-8.9658,13.709-8.9658,5.4,0,8,3,8,3a8.1323,8.1323,0,0,1,7.4052,8.0371c.3867,7.18,1.0244,7.1523,3.4287,12.8222A11.5987,11.5987,0,0,1,53.16,45.0187"/>
    <path fill="none" stroke="#000" stroke-linejoin="round" stroke-width="2" d="M46.2908,34.8314a17.717,17.717,0,0,0,.7446-5.1532c0-5-2-8-6-12-4,4-16,9-16,11v1a17.8993,17.8993,0,0,0,.5738,4.55"/>
    <path fill="none" stroke="#000" stroke-linecap="round" stroke-linejoin="round" stroke-width="2" d="M16.9584,59.9561V56.95c0-5.0109,5.011-9.02,10.0219-9.02q9.02,7.5165,18.0394,0c5.0109,0,10.0219,4.0088,10.0219,9.02v3.0066"/>
    <line x1="46.1692" x2="49.4774" y1="35.1649" y2="32.5319" fill="none" stroke="#000" stroke-linecap="round" stroke-linejoin="round" stroke-width="2"/>
    <line x1="25.6297" x2="22.3298" y1="35.1649" y2="32.117" fill="none" stroke="#000" stroke-linecap="round" stroke-linejoin="round" stroke-width="2"/>
    <path fill="none" stroke="#000" stroke-linecap="round" stroke-linejoin="round" stroke-width="2" d="M32.576,44.2883c-1.333.0108-3.6243-1.8519-4.4967-3.071A14.7835,14.7835,0,0,1,25.6459,35.4l-.1394-.45,8.9093-2.2974a5.6024,5.6024,0,0,1,2.8793.0181L45.7032,34.95h.5438a14.4865,14.4865,0,0,1-1.8409,5.7961c-.8769,1.416-3.2795,3.4563-4.7421,3.4681Z"/>
  </g>
</svg>
