<svg id="emoji" viewBox="0 0 72 72" xmlns="http://www.w3.org/2000/svg">
  <g id="hair">
    <g id="hair-2">
      <path fill="#f1b31c" d="M26,38.042c-3,0-4-7-4-14,0-6,5-12,14-12s14,6,14,12c0,7-1,14-4,14"/>
    </g>
  </g>
  <g id="color">
    <g id="skin">
      <path fill="#fcea2b" d="M24.8471,28.6632c-.1,8,4.1,14,11,14,7.1,0,11.1-6,11.1-14,0-5-3-10-3-10-8,0-10,3-16,1A17.3021,17.3021,0,0,0,24.8471,28.6632Z"/>
    </g>
    <path fill="#92d3f5" d="M48.083,46.1812c-4.9472,7.4285-9.7691,5.8349-14.06,3.5477L27.31,38.9146l-8.41,4.992-.5249,2.19-.4338-.0808L17.73,48.7869l-.5792,2.4164.3994-.0565-.2467,3.2389a12.7765,12.7765,0,0,0-.1527,2.0052v4.28h38v-4.28C55.1505,51.0474,51.4014,47.7443,48.083,46.1812Z"/>
  </g>
  <g id="skin-shadow">
    <polygon fill="#fcea2b" points="27.31 38.915 32.982 49.081 55.15 36.803 59.31 33.237 62.791 35.097 65.044 33.77 65.854 30.842 59.457 26.748 57.062 26.748 54.55 27.382 52.465 29.748 51.046 32.236 27.31 38.915"/>
  </g>
  <g id="line">
    <path fill="none" stroke="#000" stroke-linecap="round" stroke-linejoin="round" stroke-width="2" d="M48.083,46.6973c3.85,1.1778,7.0674,4.5469,7.0674,8.5508l0,5.4227"/>
    <path fill="none" stroke="#000" stroke-linecap="round" stroke-miterlimit="10" stroke-width="2" d="M55.0623,36.7481,40.6292,45.76a58.4644,58.4644,0,0,1-11.937,5.69c-2.4384.8392-4.6463,1.5968-4.6463,1.5968"/>
    <path fill="none" stroke="#000" stroke-linecap="round" stroke-miterlimit="10" stroke-width="2" d="M59.632,33.3347l1.8149,1.1066a2.7369,2.7369,0,0,0,3.2107-.2627h0a2.7321,2.7321,0,0,0,.3381-3.8072,12.1524,12.1524,0,0,0-5.3649-3.5349,6.1467,6.1467,0,0,0-4.9343.3771h0a3.3808,3.3808,0,0,0-.6987.4976l-.5025.4644a3.3858,3.3858,0,0,0-.73.972l-.5834,1.1668a4.6985,4.6985,0,0,1-1.97,2.0334h0a80.9259,80.9259,0,0,0-13.9331,4.055L22.7661,41.4569a8.1237,8.1237,0,0,0-5.2372,6.6187,91.6645,91.6645,0,0,0-.4666,11.6725"/>
    <path fill="none" stroke="#000" stroke-linecap="round" stroke-miterlimit="10" stroke-width="2" d="M29.982,29.209s2.53,1.5112,4.0414,0"/>
    <path fill="none" stroke="#000" stroke-linecap="round" stroke-miterlimit="10" stroke-width="2" d="M38.3139,28.9816s2.53,1.5112,4.0414,0"/>
    <path fill="none" stroke="#000" stroke-linecap="round" stroke-linejoin="round" stroke-width="2" d="M24.0459,35.0192A18.7362,18.7362,0,0,1,22.2871,28.94a16.51,16.51,0,0,1-.1338-1.6918c-.0014-.6543-.0029-1.3223-.0029-2,0-7,5-14,14-14a13.75,13.75,0,0,1,14,13.4954q.0047.2523,0,.5046c0,.6.0039,1.1318.0049,1.666"/>
    <path fill="none" stroke="#000" stroke-linecap="round" stroke-miterlimit="10" stroke-width="2" d="M29.982,42.2232s-.006,2.5532,2.0207,3.4468"/>
    <path fill="none" stroke="#000" stroke-linecap="round" stroke-linejoin="round" stroke-width="2" d="M37.09,50.7953q5.2653.735,10.5305-3.6527"/>
    <path fill="none" stroke="#000" stroke-linecap="round" stroke-linejoin="round" stroke-width="2" d="M47.05,29.6632c0-5-3-11-3-11-8,0-10,3-16,1a30.6019,30.6019,0,0,0-2.2629,10"/>
  </g>
</svg>
