<svg id="emoji" viewBox="0 0 72 72" xmlns="http://www.w3.org/2000/svg">
  <g id="color">
    <rect x="10.0521" y="21.0521" rx="2.0316" ry="2.0316" width="15.1693" height="5.8857" fill="#fff"/>
    <polygon fill="#a57939" points="12.902 14.702 35.007 17.003 35.362 61.053 39.106 61.053 39.106 13.552 12.902 11 12.902 14.702"/>
  </g>
  <g id="skin-shadow">
    <g id="skin">
      <g id="color-2">
        <path fill="#fcea2b" d="m59.8917,30.9781c-.062-1.5893-1.3516-2.855-2.9417-2.8874h-4.1931c-1.5901.0324-2.8796,1.2982-2.9416,2.8874l-.5535,13.5857c-.0049.1068-.0338.2112-.0845.3054l2.05-1.4637-.4985,15.4685c-.0226.2196.0399.4395.1747.6143.0262.0336.0641.0561.1062.0629.15,0,.4585-.2982.5137-.7865l2.0258-15.7272c.0578-.2886.1524-.5686.2815-.8332l.5064-.5627h1.1356l.6877.4355c.1258.2993.2086.6149.246.9374l1.7766,15.7488c.0552.4876.3648.7865.5143.7865.0421-.0069.08-.0293.1063-.0629.1343-.1736.342-.4089.3192-.629l-.6515-15.4523,2.4457,1.6982"/>
        <circle cx="54.9093" cy="22.8452" r="2.075" fill="#fcea2b"/>
      </g>
    </g>
    <g id="skin-2">
      <g id="color-2-2">
        <path fill="#fcea2b" d="m21.4537,30.9782c-.062-1.5892-1.3515-2.8549-2.9416-2.8874h-4.1933c-1.5901.0325-2.8795,1.2982-2.9416,2.8874l-.5535,13.5857c-.0048.1068-.0337.2112-.0845.3053l2.05-1.4636-.4988,15.4685c-.0226.2196.0399.4395.1748.6142.0261.0337.0641.0562.1062.0629.1495,0,.4585-.2981.5137-.7865l2.0257-15.7271c.0579-.2886.1525-.5686.2815-.8332l.5065-.5627h1.1356l.6877.4354c.1258.2993.2086.615.246.9375l1.7765,15.7487c.0552.4877.3648.7865.5144.7865.0421-.0068.08-.0292.1062-.0629.1344-.1735.3421-.4088.3193-.6289l-.6515-15.4523,2.4456,1.6982"/>
        <circle cx="16.4713" cy="22.8453" r="2.075" fill="#fcea2b"/>
      </g>
    </g>
    <polygon fill="#6a462f" points="39.106 13.552 34.617 18 12.902 14.851 12.902 10.766 39.106 13.552"/>
  </g>
  <g id="line">
    <polyline fill="none" stroke="#000" stroke-linecap="round" stroke-linejoin="round" stroke-width="2.2237" points="13.902 14.702 35.007 17.003 35.362 61.053 39.106 61.053 38.873 13.552 13.902 11"/>
    <g id="line-2">
      <g id="Standing_Man">
        <g id="line-2-2">
          <circle cx="55.0471" cy="23.0974" r="2.075" fill="none" stroke="#000" stroke-miterlimit="10" stroke-width="2"/>
          <path fill="none" stroke="#000" stroke-linecap="round" stroke-linejoin="round" stroke-width="2" d="m58.5178,32.14l1.3279,26.5574c.0385.7688-.4018,1.3978-.9784,1.3978-.6825-.1154-1.1884-.6968-1.2084-1.3887l-1.7765-15.3975c-.09-.7639-.4746-1.3887-.859-1.3887s-.7708.6248-.8589,1.3887l-1.7745,15.397c-.02.6919-.5259,1.2733-1.2084,1.3887-.5766,0-1.0169-.629-.9784-1.3978l1.3279-26.5569"/>
          <path fill="none" stroke="#000" stroke-linecap="round" stroke-linejoin="round" stroke-width="2" d="m48.7355,44.7193l.5536-13.2787c.1009-1.9429,1.6946-3.4728,3.64-3.4944h4.1933"/>
        </g>
        <path fill="none" stroke="#000" stroke-linecap="round" stroke-linejoin="round" stroke-width="2" d="m57.0712,27.9461c1.9454.0216,3.539,1.5515,3.64,3.4944l.5535,13.2787"/>
      </g>
    </g>
    <g id="line-3">
      <g id="Standing_Man-2">
        <g id="line-2-3">
          <circle cx="16.6091" cy="23.1635" r="2.075" fill="none" stroke="#000" stroke-miterlimit="10" stroke-width="2"/>
          <path fill="none" stroke="#000" stroke-linecap="round" stroke-linejoin="round" stroke-width="2" d="m20.08,32.2056l1.3277,26.5574c.0384.7688-.4019,1.3978-.9785,1.3978-.6824-.1154-1.1883-.6968-1.2083-1.3887l-1.7766-15.397c-.09-.7639-.4745-1.3887-.8589-1.3887s-.7709.6248-.8589,1.3887l-1.7745,15.397c-.02.6919-.5259,1.2733-1.2084,1.3887-.5765,0-1.0168-.629-.9784-1.3978l1.3279-26.5574"/>
          <path fill="none" stroke="#000" stroke-linecap="round" stroke-linejoin="round" stroke-width="2" d="m10.2975,44.7854l.5535-13.2787c.101-1.9429,1.6946-3.4727,3.64-3.4944h4.1933"/>
        </g>
        <path fill="none" stroke="#000" stroke-linecap="round" stroke-linejoin="round" stroke-width="2" d="m18.6331,28.0122c1.9454.0217,3.539,1.5515,3.64,3.4944l.5535,13.2788"/>
      </g>
    </g>
    <circle cx="26.1125" cy="29.3378" r="2"/>
    <circle cx="9.297" cy="19.0027" r="2"/>
    <circle cx="7" cy="26.0228" r="2"/>
    <circle cx="22.8264" cy="20" r="2"/>
    <circle cx="28.1125" cy="23.7843" r="2"/>
  </g>
</svg>
