<svg id="emoji" viewBox="0 0 72 72" xmlns="http://www.w3.org/2000/svg">
  <g id="color">
    <path fill="#fcea2b" d="m18.3219,26.6717c-.062-1.5893-1.3517-2.8551-2.9419-2.8874h-4.193c-1.5901.0325-2.8795,1.2982-2.9416,2.8874l-.5535,13.5857c-.0048.1069-.0337.2113-.0845.3054l2.05-1.4637-.4985,15.4685c-.0226.2196.0399.4395.1748.6143.0262.0336.0641.0561.1062.0629.1495,0,.4585-.2982.5137-.7865l2.0257-15.7271c.0579-.2886.1525-.5687.2815-.8333l.5065-.5627h1.1356l.6877.4355c.1258.2993.2086.6149.246.9374l1.7765,15.7488c.0552.4876.3648.7865.5144.7865.0421-.0068.08-.0293.1062-.0629.1344-.1735.3421-.4089.3193-.629l-.6515-15.4522,2.4456,1.6981"/>
    <circle cx="13.3395" cy="18.5388" r="2.075" fill="#fcea2b"/>
    <path fill="#fcea2b" d="m63.7651,27.1356c-.062-1.5892-1.3515-2.8549-2.9416-2.8874h-4.1935c-1.5901.0324-2.8796,1.2982-2.9416,2.8874l-.5535,13.5857c-.0048.1068-.0337.2112-.0845.3053l2.05-1.4636-.4988,15.4685c-.0226.2196.0399.4395.1748.6142.0261.0337.0641.0562.1062.0629.15,0,.4584-.2981.5137-.7865l2.0262-15.7271c.0579-.2886.1525-.5686.2815-.8332l.5065-.5627h1.1356l.6877.4354c.1258.2993.2086.6149.246.9374l1.7765,15.7488c.0552.4877.3648.7865.5144.7865.0421-.0068.08-.0293.1062-.0629.1343-.1735.3421-.4088.3193-.629l-.6515-15.4522,2.4453,1.6981"/>
    <circle cx="58.7827" cy="19.0027" r="2.075" fill="#fcea2b"/>
  </g>
  <g id="line">
    <g id="line-2">
      <g id="Standing_Man">
        <g id="line-2-2">
          <circle cx="13.3395" cy="18.5388" r="2.075" fill="none" stroke="#000" stroke-miterlimit="10" stroke-width="2"/>
          <path fill="none" stroke="#000" stroke-linecap="round" stroke-linejoin="round" stroke-width="2" d="m16.81,27.5809l1.3279,26.5575c.0384.7688-.4019,1.3977-.9785,1.3977-.6824-.1154-1.1883-.6968-1.2083-1.3886l-1.7764-15.3975c-.09-.7638-.4745-1.3886-.8589-1.3886s-.7709.6248-.8589,1.3886l-1.7745,15.3975c-.02.6918-.5259,1.2732-1.2083,1.3886-.5766,0-1.0169-.629-.9785-1.3977l1.3279-26.5575"/>
          <path fill="none" stroke="#000" stroke-linecap="round" stroke-linejoin="round" stroke-width="2" d="m7.0279,40.1608l.5535-13.2787c.101-1.9429,1.6946-3.4728,3.64-3.4944h4.1933"/>
        </g>
        <path fill="none" stroke="#000" stroke-linecap="round" stroke-linejoin="round" stroke-width="2" d="m15.3635,23.3876c1.9454.0217,3.539,1.5515,3.64,3.4944l.5535,13.2787"/>
      </g>
    </g>
    <g id="line-3">
      <g id="Standing_Man-2">
        <g id="line-2-3">
          <circle cx="58.7827" cy="19.0027" r="2.075" fill="none" stroke="#000" stroke-miterlimit="10" stroke-width="2"/>
          <path fill="none" stroke="#000" stroke-linecap="round" stroke-linejoin="round" stroke-width="2" d="m62.2534,28.0448l1.3279,26.5574c.0387.7688-.4019,1.3978-.9785,1.3978-.6824-.1154-1.1883-.6968-1.2083-1.3887l-1.7766-15.397c-.09-.7639-.4745-1.3887-.8589-1.3887s-.7709.6248-.8589,1.3887l-1.7745,15.397c-.02.6918-.5259,1.2733-1.2083,1.3887-.5766,0-1.0169-.629-.9785-1.3978l1.3279-26.5574"/>
          <path fill="none" stroke="#000" stroke-linecap="round" stroke-linejoin="round" stroke-width="2" d="m52.4711,40.6246l.5535-13.2787c.101-1.9429,1.6946-3.4727,3.64-3.4944h4.1933"/>
        </g>
        <path fill="none" stroke="#000" stroke-linecap="round" stroke-linejoin="round" stroke-width="2" d="m60.8067,23.8514c1.9454.0217,3.539,1.5515,3.64,3.4944l.5533,13.2788"/>
      </g>
    </g>
    <polyline fill="none" stroke="#000" stroke-linecap="round" stroke-linejoin="round" stroke-width="2" points="40.5327 30.204 45.9135 35.5848 27.0632 35.5848 32.4441 30.1508"/>
    <line x1="45.9663" x2="40.6911" y1="35.628" y2="40.9032" fill="none" stroke="#000" stroke-linecap="round" stroke-linejoin="round" stroke-width="2"/>
    <line x1="27.116" x2="32.3561" y1="35.628" y2="40.8681" fill="none" stroke="#000" stroke-linecap="round" stroke-linejoin="round" stroke-width="2"/>
  </g>
</svg>
