<svg id="emoji" viewBox="0 0 72 72" xmlns="http://www.w3.org/2000/svg">
  <g id="color">
    <ellipse cx="32.2442" cy="29.3592" rx="4.2321" ry="4.0631" fill="#fff"/>
    <path fill="#92d3f5" d="m35.2742,43.5463l-15.1657-.1792,4.2215-10.6842-.8418-1.6218s2.691-2.5672,5.8842-1.6706,5.07,2.8526,5.1005,5.681c.0567,1.614-.6189,3.1673-1.8382,4.2263,1.8592.3753,3.0621,2.1868,2.6868,4.046-.0137.068-.0295.1355-.0473.2025Z"/>
    <circle cx="38.7404" cy="26.4445" r="1.5788" fill="#92d3f5"/>
    <path fill="#d0cfce" d="m53.0251,16.0509h-3.0736c-6.32,0-6.8361,5.03-6.8361,6.8361-.0203.3359.2356.6246.5715.6449.0244.0015.049.0015.0734,0h3.2246c.3255-.0156.595-.258.6449-.58.0214-1.3197,1.0675-2.3941,2.3862-2.4507h10.3391l.085-.6449.56-3.16-.15-.645h-7.825v-.0004Z"/>
    <circle cx="29.7967" cy="22.2945" r="2.6809" fill="#92d3f5"/>
  </g>
  <g id="skin-shadow">
    <path fill="#fcea2b" d="m21.631,31.7458l-10.8654,13.7133s-3.6843,9.4143,1.1337,12.0724c4.818,2.6581,8.2092,2.25,8.2092,2.25h8.8757s4.9868.962,4.734-3.2595l1.6224-.305c1.2655-.7428,1.6892-2.3708.9464-3.6363-.1739-.2963-.4036-.556-.6764-.7648,0,0,4.7615-1.6526.72-4.1828.5279-1.3223.2477-2.8303-.72-3.8747l-15.5022-.3165,4.2216-10.6845c.3069-.504.1472-1.1613-.3567-1.4682-.147-.0895-.3134-.1422-.4851-.1536-1.5112-.2895-1.8572.6102-1.8572.6102Z"/>
    <path fill="#fcea2b" d="m34.8217,33.5449l9.7166-4.47s3.1648.2048,1.9371,2.3351l-8.7885,7.3548,12.7931,7.0122s1.7953,1.49.7548,2.5888c-.4589.5875-1.1132.9909-1.8442,1.137,0,0,1.8908,1.5454.9069,2.8953s-1.991,1.123-1.991,1.123c0,0-.9585,2.3751-1.1472,2.621-1.0198.1913-2.0579.2676-3.0947.2276h-1.2355l-.48,2.2173-1.22.4809-6.0583-2.6426,1.58-2.9045-.32-1.9776,1.3564-3.1243-1.3567-1.7129-.1784-2.6347-.8375-.8494-.7917-2.7659-1.8881-1.1582,1.6336-2.9151.5533-2.8378Z"/>
    <path fill="#61b2e4" d="m33.7182,32.449s-1.36,6.7243-10.2878,6.8488h9.8965"/>
    <path fill="#61b2e4" d="m38.2052,24.3732s2.0631,2.2854.8174,4.0108l1.8153-1.107-.4556-2.2435-2.1771-.6603Z"/>
    <path fill="#61b2e4" d="m29.7967,19.6136s2.3457,2.9762,0,5.3617-.3833.2952-.3833.2952l3.4032-1.4647-.0994-2.2658-1.088-1.6343-1.8325-.2921Z"/>
    <path fill="#9b9b9a" d="m50.26,16.8731c-1.8348-.1563-3.6487.4807-4.9829,1.75-1.3349,1.439-1.3349,4.2-1.3349,4.2.5493-1.492,1.418-2.8459,2.5454-3.9669.9636-1.1115,2.3104-1.8195,3.7724-1.9831Z"/>
  </g>
  <g id="line">
    <path fill="none" stroke="#000" stroke-linecap="round" stroke-linejoin="round" stroke-width="1.6969" d="m51.282,11.2537h8.4751"/>
    <path fill="none" stroke="#000" stroke-linecap="round" stroke-linejoin="round" stroke-width="1.6969" d="m55.52,16.0509v-4.7972"/>
    <path fill="none" stroke="#000" stroke-linecap="round" stroke-linejoin="round" stroke-width="1.6969" d="m60.5705,16.0509h-10.619c-6.32,0-6.8361,5.03-6.8361,6.8361-.0203.3359.2356.6246.5715.6449.0244.0015.049.0015.0734,0h3.2246c.3255-.0156.595-.258.6449-.58.0214-1.3197,1.0675-2.3941,2.3862-2.4507h9.7792"/>
    <path fill="none" stroke="#000" stroke-linecap="round" stroke-linejoin="round" stroke-width="2" d="m22.3057,43.46l-2.1972-.0179,4.2215-10.6847s.2165-2.3313-2.3853-1.3887l-10.0868,12.8513c-1.446,1.7962-2.3465,3.9694-2.595,6.2619-.1743,1.6202.0553,3.2584.6683,4.7683,1.969,4.7126,9.05,4.7192,10.9623,4.6249"/>
    <path fill="none" stroke="#000" stroke-linecap="round" stroke-linejoin="round" stroke-width="2" d="m22.0851,43.4667h13.2555s2.3684.7844.99,3.2393"/>
    <path fill="none" stroke="#000" stroke-linecap="round" stroke-linejoin="round" stroke-width="2" d="m24.5867,47.5478h11.5411s1.5118.5235,1.5118,1.8715-1.5118,1.9124-1.5118,1.9124"/>
    <path fill="none" stroke="#000" stroke-linecap="round" stroke-linejoin="round" stroke-width="2" d="m24.555,51.8335h10.7856s1.6246-.3709,1.6246,1.6247c.1265,1.0355-.541,2.0022-1.5542,2.2506h-10.5377"/>
    <path fill="none" stroke="#000" stroke-linecap="round" stroke-linejoin="round" stroke-width="2" d="m32.8166,56.0638c.5441.5827.7785,1.3896.6313,2.1731-.0173.8255-.6279,1.518-1.4447,1.6386h-6.635"/>
    <path fill="none" stroke="#000" stroke-linecap="round" stroke-linejoin="round" stroke-width="2" d="m25.7505,29.8135c1.8281-.9278,4.0043-.8531,5.7644.1979,1.6539.827,3.4629,3.4935,2.9111,5.862-.4233,1.2561-1.0849,2.4188-1.9485,3.4244.8535.2903,1.5426.9312,1.8938,1.7615"/>
    <path fill="none" stroke="#000" stroke-linecap="round" stroke-linejoin="round" stroke-width="2" d="m30.49,33.2178c-1.2149-.4363-2.5585-.3312-3.6907.2887"/>
    <path fill="none" stroke="#000" stroke-linecap="round" stroke-linejoin="round" stroke-width="2" d="m37.1616,32.5014l7.2316-3.136s1.9978-.3741,1.9809,1.1825c-.029.6479-.3357,1.252-.8417,1.6578l-7.8924,6.7043,4.2228,2.3918"/>
    <path fill="none" stroke="#000" stroke-linecap="round" stroke-linejoin="round" stroke-width="2" d="m41.4471,41.0756l8.9029,4.8488c.6263.3188,1.0331.9493,1.0656,1.6513.0033.2739-.0584.5446-.18.79-.5359,1.088-2.2139,1.0566-2.2139,1.0566"/>
    <path fill="none" stroke="#000" stroke-linecap="round" stroke-linejoin="round" stroke-width="2" d="m39.6555,44.503l9.3653,4.9194c.6896.3434,1.2035.9604,1.4164,1.7007.1499.5175.0645,1.0748-.2335,1.5236-.9176,1.39-2.8989,1.0031-2.8989,1.0031"/>
    <path fill="none" stroke="#000" stroke-linecap="round" stroke-linejoin="round" stroke-width="2" d="m39.75,49.8512l7.3481,3.6688c.9327.4014,1.3635,1.4829.9622,2.4156-.0675.1568-.1565.3035-.2645.4358-.4482.7731-1.4382,1.0365-2.2113.5884-.0249-.0145-.0495-.0296-.0736-.0454l-6.7306-2.98"/>
    <path fill="none" stroke="#000" stroke-linecap="round" stroke-linejoin="round" stroke-width="2" d="m43.0189,55.8106s.5473,1.9473-.3485,2.74c-.2034.1803-.4387.3211-.6937.4152-.5915.2004-1.2382.1597-1.8-.1132l-3.4154-1.5581"/>
    <circle cx="38.7404" cy="26.4445" r="2.1972" fill="none" stroke="#000" stroke-linecap="round" stroke-linejoin="round" stroke-width="2"/>
    <circle cx="29.7967" cy="22.2945" r="2.8655" fill="none" stroke="#000" stroke-linecap="round" stroke-linejoin="round" stroke-width="2"/>
  </g>
</svg>
