<svg id="emoji" viewBox="0 0 72 72" xmlns="http://www.w3.org/2000/svg">
  <g id="color">
    <ellipse cx="37.9639" cy="34.629" rx="18.4037" ry="11.3994" fill="#fff"/>
    <path fill="#a57939" d="m14.991,38.1914c.6452,2.027,1.6995,3.9,3.0977,5.5031,4.2629,5.0737,10.427,8.1681,17.0425,8.5555.7829.0454,1.2822.0341,1.5772.0227.295.0114.7943.0227,1.5772-.0227,6.6155-.3874,12.7796-3.4817,17.0426-8.5553,1.3982-1.6031,2.4525-3.4761,3.0977-5.5031,1.2253-3.8579,2.2012-10.4049-2.9615-14.9322,0,0-8.4079-8.51-18.756-.261-10.3481-8.249-18.756.261-18.756.261-5.1624,4.5271-4.1868,11.0741-2.9614,14.932Zm32.6556,4.3686c-.8196.5814-1.7507.9871-2.7346,1.1914-3.5288.7148-12.6741,1.8722-19.675-3.3132,4.4048-1.2207,8.6742-2.8859,12.7422-4.97,3.179,2.5672,6.7,4.679,10.4617,6.2747.0665.0241.1348.043.2042.0567-.3178.261-.6468.5104-.9985.7604Zm-4.9466-16.033c1.702-.8283,5.5938-2.1331,8.76,1.2481,2.6185,2.8988,2.8778,7.2255.6241,10.4163-.2043.2949-.4312.6013-.6694.9077-.2707-.5954-.729-1.0857-1.3049-1.3957,0,0-5.1978-1.6793-7.7398-4.6748-1.3319-1.3296-1.7386-3.3274-1.0325-5.0719.1088-.2661.2623-.5117.4538-.7262.2501-.2957.5598-.5354.9087-.7035Zm-9.8149,1.3389l.9191.1248c-.063,1.2324.2285,2.4571.84,3.5289-7.67,3.9713-12.9011,4.7428-12.9011,4.7428-.1034.0213-.2057.048-.3063.08-.5906-1.0927-.8841-2.3213-.851-3.5629.1012-2.996,2.2117-6.5021,12.2988-4.9136h.0005Z"/>
    <path fill="#fff" d="m48.05,45.5158c.3054-.102.4987.3591.2327.5563-3.5305,2.6471-7.9119,3.9022-12.3085,3.5257-4.3548-.4378-8.5132-2.0324-12.0442-4.6186-.2725-.2-.0736-.6713.2381-.5636,4.0119,1.3868,14.3751,4.2758,23.8819,1.1002Z"/>
  </g>
  <g id="line">
    <path fill="none" stroke="#000" stroke-miterlimit="10" stroke-width="2" d="m14.991,38.1914c.6452,2.027,1.6995,3.9,3.0977,5.5031,4.2629,5.0737,10.427,8.1681,17.0425,8.5555.7829.0454,1.2822.0341,1.5772.0227.295.0114.7943.0227,1.5772-.0227,6.6155-.3874,12.7796-3.4817,17.0426-8.5553,1.3982-1.6031,2.4525-3.4761,3.0977-5.5031,1.2253-3.8579,2.2012-10.4049-2.9615-14.9322,0,0-8.4079-8.51-18.756-.261-10.3481-8.249-18.756.261-18.756.261-5.1624,4.5271-4.1868,11.0741-2.9614,14.932Zm32.6556,4.3686c-.8196.5814-1.7507.9871-2.7346,1.1914-3.5288.7148-12.6741,1.8722-19.675-3.3132,4.4048-1.2207,8.6742-2.8859,12.7422-4.97,3.179,2.5672,6.7,4.679,10.4617,6.2747.0665.0241.1348.043.2042.0567-.3178.261-.6468.5104-.9985.7604Zm-4.9466-16.033c1.702-.8283,5.5938-2.1331,8.76,1.2481,2.6185,2.8988,2.8778,7.2255.6241,10.4163-.2043.2949-.4312.6013-.6694.9077-.2707-.5954-.729-1.0857-1.3049-1.3957,0,0-5.1978-1.6793-7.7398-4.6748-1.3319-1.3296-1.7386-3.3274-1.0325-5.0719.1088-.2661.2623-.5117.4538-.7262.2501-.2957.5598-.5354.9087-.7035Zm-9.8149,1.3389l.9191.1248c-.063,1.2324.2285,2.4571.84,3.5289-7.67,3.9713-12.9011,4.7428-12.9011,4.7428-.1034.0213-.2057.048-.3063.08-.5906-1.0927-.8841-2.3213-.851-3.5629.1012-2.996,2.2117-6.5021,12.2988-4.9136h.0005Z"/>
    <path fill="none" stroke="#000" stroke-miterlimit="10" stroke-width="2" d="m36.7084,22.9982c-.9297.6932-1.6933,1.5848-2.2353,2.61-.3872.7388-.6153,1.5505-.6694,2.3828"/>
    <path fill="none" stroke="#000" stroke-miterlimit="10" stroke-width="2" d="m21.4359,36.3418c-.5906-1.0926-.8841-2.3212-.851-3.5628.1021-2.9955,2.2126-6.5016,12.3-4.9131l.9191.1248c-.063,1.2324.2285,2.457.84,3.5288"/>
    <path fill="none" stroke="#000" stroke-miterlimit="10" stroke-width="2" d="m37.9792,35.4682c3.1789,2.5671,6.7,4.679,10.4616,6.2746.0665.0242.1348.0431.2043.0568,2.2579.6921,3.4493-1.112,2.7685-2.7"/>
    <path fill="none" stroke="#000" stroke-miterlimit="10" stroke-width="2" d="m25.237,40.438c7.0009,5.1854,16.1462,4.028,19.675,3.3132.9839-.2043,1.9149-.6099,2.7346-1.1912.3517-.25.6808-.4993.9985-.76"/>
    <path fill="none" stroke="#000" stroke-miterlimit="10" stroke-width="2" d="m42.37,33.0286c2.5416,2.9955,7.7384,4.6748,7.7384,4.6748,1.18.4666,1.0779.8737,1.3048,1.3957.2383-.3064.4652-.6127.6695-.9078,2.2536-3.1907,1.9944-7.5174-.6241-10.4162-3.1657-3.3812-7.0576-2.0764-8.76-1.2481-.3486.1682-.6579.4079-.9077.7035-.1915.2145-.345.4601-.4539.7262-.7059,1.7446-.299,3.7423,1.033,5.0719"/>
    <path fill="none" stroke="#000" stroke-linecap="round" stroke-linejoin="round" stroke-width="2" d="m42.4443,26.6673c-2.5416,1.736-6.2468,4.3494-8.448,5.4954-7.67,3.9713-12.2541,4.1-12.2541,4.1-.1034.0212-.2056.0477-.3063.0794-4.221,1.0666-1.8722,6.0818,3.3132,4.221.17-.0454.329-.0908.4879-.1248,4.4048-1.2207,8.6742-2.8859,12.7422-4.97,1.3548-.6451,2.6024-1.4947,3.699-2.519l-.068-.9985"/>
  </g>
</svg>
