<svg id="emoji" viewBox="0 0 72 72" xmlns="http://www.w3.org/2000/svg">
  <g id="color">
    <ellipse cx="36" cy="36" rx="19" ry="28" fill="#a57939"/>
    <path fill="#6a462f" fill-rule="evenodd" d="m36.3126,64c-.0151,0-.0187-.0215-.0043-.0264,8.3256-2.8339,14.553-14.2593,14.553-27.9228,0-13.6712-6.2343-25.1017-14.567-27.9276-.0669-.0227-.0522-.1232.0183-.1232,10.3208,0,18.6874,12.536,18.6874,28s-8.3667,28-18.6874,28Z"/>
    <g>
      <path fill="#6a462f" fill-rule="evenodd" d="m36,60.9996s-6-11.1929-6-25c0-13.7599,5.9591-24.9235,5.9998-24.9996-.0287.0538-2.9998,5.6294-2.9998,12.4996,0,6.9036,3,12.5,3,12.5,0,0,3,5.5964,3,12.5s-3,12.5-3,12.5Z"/>
      <path fill="#6a462f" d="m36,60.9996l-.8814.4725c.1742.3248.5128.5275.8814.5275s.7072-.2027.8814-.5275l-.8814-.4725Zm-.0002-49.9996l.8819.4713c.2603-.487.0766-1.0928-.4104-1.3532-.487-.2603-1.0928-.0767-1.3533.4102l.8818.4717Zm.0002,24.9996l.8814-.4725-.8814.4725Zm-7,0c0,7.0426,1.529,13.4025,3.0508,17.9924.7618,2.2976,1.5242,4.1589,2.098,5.4493.2869.6453.5269,1.1484.6963,1.4923.0848.172.1519.3043.1984.3947.0233.0452.0415.08.0541.104.0063.012.0113.0214.0148.028.0018.0033.0032.006.0042.0079.0005.001.001.0018.0013.0025.0002.0003.0004.0006.0004.0008t.8817-.4719q.8814-.4725.8815-.4721h0s-.0002-.0002-.0004-.0006c-.0004-.0008-.0012-.0022-.0023-.0043-.0022-.0043-.0059-.0112-.0109-.0208-.0101-.0191-.0256-.0489-.0463-.089-.0413-.0803-.1031-.202-.1825-.363-.1586-.3221-.3874-.8014-.663-1.4211-.5512-1.2398-1.2888-3.0397-2.027-5.2661-1.4782-4.4584-2.9492-10.5985-2.9492-17.363h-2Zm6.118-25.4713c-.0635.1188-6.118,11.4604-6.118,25.4713h2c0-13.509,5.8636-24.4944,5.8816-24.5279l-1.7636-.9434Zm-1.118,12.9713c0-3.2967.714-6.2986,1.4387-8.4923.7236-2.1906,1.4474-3.5442,1.443-3.536l-1.7639-.9427c-.0515.0965-3.1178,5.8501-3.1178,12.971h2Zm2,12.5q.8814-.4725.8816-.4721s0,.0002,0,.0003h.0001s-.0003-.0004-.0007-.0012c-.0008-.0015-.0023-.0043-.0045-.0085-.0044-.0084-.0115-.022-.0212-.0408-.0194-.0376-.0489-.0958-.0873-.1736-.0766-.1556-.1882-.3892-.3231-.6927-.27-.6073-.6326-1.4918-.9958-2.5873-.7282-2.1963-1.4492-5.2113-1.4492-8.5241h-2c0,3.5908.779,6.8257,1.5508,9.1535.3868,1.1667.7742,2.1127,1.0667,2.7705.1463.3291.2691.5865.3565.764.0438.0887.0787.1575.1032.2052.0123.0239.0221.0425.029.0558.0035.0066.0063.0119.0084.0158.001.002.0019.0036.0026.0049.0003.0006.0006.0011.0008.0016.0002.0002.0003.0005.0004.0007t.8816-.472Zm0,0q-.8814.4725-.8816.4721s0-.0002,0-.0003h-.0001s.0003.0004.0007.0012c.0008.0015.0023.0043.0045.0085.0044.0084.0115.022.0212.0408.0194.0376.0489.0958.0873.1736.0766.1556.1882.3892.3231.6927.27.6073.6326,1.4918.9958,2.5873.7282,2.1963,1.4492,5.2113,1.4492,8.5241h2c0-3.5908-.779-6.8257-1.5508-9.1535-.3868-1.1666-.7742-2.1127-1.0667-2.7705-.1463-.3291-.2691-.5865-.3565-.764-.0438-.0887-.0786-.1575-.1032-.2052-.0123-.0239-.022-.0425-.029-.0558-.0035-.0066-.0063-.0119-.0084-.0158-.001-.002-.0019-.0036-.0025-.0049-.0004-.0006-.0007-.0011-.0009-.0016-.0002-.0002-.0003-.0005-.0004-.0006t-.8816.4719Zm2,12.5c0,3.3128-.721,6.3278-1.4492,8.5241-.3632,1.0955-.7258,1.98-.9958,2.5873-.1349.3035-.2465.5371-.3231.6927-.0384.0778-.0679.136-.0873.1736-.0097.0188-.0168.0324-.0212.0408-.0022.0042-.0037.007-.0045.0085-.0004.0008-.0006.0012-.0007.0013h.0001s0-.0003,0-.0004t.8816.4721q.8814.4725.8816.472s.0002-.0005.0004-.0007c.0002-.0005.0005-.001.0009-.0016.0006-.0013.0015-.0029.0025-.0049.0021-.0039.0049-.0092.0084-.0158.0069-.0133.0167-.0319.029-.0558.0245-.0477.0594-.1165.1032-.2052.0874-.1775.2102-.4349.3565-.764.2925-.6578.6799-1.6038,1.0667-2.7705.7718-2.3278,1.5508-5.5627,1.5508-9.1535h-2Z"/>
    </g>
  </g>
  <g id="line">
    <ellipse cx="36" cy="36" rx="19" ry="28" fill="none" stroke="#000" stroke-width="2"/>
    <path fill="none" stroke="#000" stroke-linecap="round" stroke-linejoin="round" stroke-width="2" d="m36,36s-3-5.5964-3-12.5,3-12.5,3-12.5"/>
    <path fill="none" stroke="#000" stroke-linecap="round" stroke-linejoin="round" stroke-width="2" d="m36,36s3,5.5964,3,12.5-3,12.5-3,12.5"/>
  </g>
</svg>
