<svg id="emoji" viewBox="0 0 72 72" xmlns="http://www.w3.org/2000/svg">
  <g id="color">
    <path fill="#fff" d="M62.0429,37.7874c0-9.4775-11.6474-24-26-24s-26,14.5225-26,24c0,7.76,7.6324,9.3875,16.13,9.8276l.003,10.899a1.9886,1.9886,0,0,0,.5449,1.457,3.8985,3.8985,0,0,0,2.9775.9873h11.51a3.8985,3.8985,0,0,0,2.9775-.9873A1.9562,1.9562,0,0,0,44.7344,58.6l-.0008-10.9294C53.2834,47.3463,62.0429,46.1051,62.0429,37.7874ZM28.1719,58.6V58.596l.0009.0049Z"/>
    <g>
      <polygon fill="#a57939" points="28.171 54.888 28.17 54.883 28.17 54.887 28.171 54.888"/>
      <path fill="#a57939" d="M44.1838,56.2578a3.899,3.899,0,0,1-2.9775.9873h-11.51a3.8989,3.8989,0,0,1-2.9775-.9873,1.9889,1.9889,0,0,1-.545-1.4571V58.514a1.9888,1.9888,0,0,0,.545,1.457,3.8985,3.8985,0,0,0,2.9775.9873h11.51a3.8986,3.8986,0,0,0,2.9775-.9873A1.956,1.956,0,0,0,44.7326,58.6l0-3.7046A1.9579,1.9579,0,0,1,44.1838,56.2578ZM28.17,58.6V58.596l.001.0049Z"/>
    </g>
    <g>
      <path fill="#6a462f" d="M51.51,41.0729a3.9926,3.9926,0,0,0-2.58-2.9317,4.0859,4.0859,0,0,0-4.1387.0254c-2.1855,1.4893-2.0752,5.292-2.0566,5.6748v2.8731l.0029.0142c0,.006-.0032.011-.0029.017a.9524.9524,0,0,0,.0493.2125,1.007,1.007,0,0,0,.0359.1554.9739.9739,0,0,0,.1242.1844.5518.5518,0,0,0,.292.2643.9658.9658,0,0,0,.1133.0745.9934.9934,0,0,0,.3843.0777h.0322c1.6543-.0518,3.0986-.13,4.4141-.2413a.9915.9915,0,0,0,.8347-.628C49.78,46.0374,51.9426,43.5032,51.51,41.0729Z"/>
      <path fill="#6a462f" d="M26.1142,38.1666a4.086,4.086,0,0,0-4.1386-.0254,3.9891,3.9891,0,0,0-2.5791,2.9307c-.4942,2.7754,2.3935,5.6855,2.7246,6.0078a.9987.9987,0,0,0,.4712.2412.9338.9338,0,0,0,.1206.0381c1.3076.1406,2.7519.2422,4.416.3125.0142.001.0276.001.042.001h.001a.9894.9894,0,0,0,.382-.0773.9761.9761,0,0,0,.1275-.0829.9945.9945,0,0,0,.1865-.1257,7.2319,7.2319,0,0,0,.2151-.3106,1.0475,1.0475,0,0,0,.041-.17.9677.9677,0,0,0,.0459-.1912c0-.0074-.0034-.0136-.0034-.0209s.0044-.0136.0044-.0211l-.001-2.7852C28.1894,43.4586,28.3,39.6559,26.1142,38.1666Z"/>
    </g>
  </g>
  <g id="line">
    <path fill="none" stroke="#000" stroke-linecap="round" stroke-linejoin="round" stroke-width="2" d="M22.82,46.3643s-5.2779-5.1456-.4356-7.31c5.1124-2.2848,4.7872,4.7872,4.7872,4.7872V58.6084s-.1171,1.358,2.5264,1.358h11.51c2.6435,0,2.5264-1.358,2.5264-1.358V43.8418s-.3251-7.072,4.7872-4.7872c4.8424,2.1641-.4355,7.31-.4355,7.31"/>
    <path fill="none" stroke="#000" stroke-linecap="round" stroke-linejoin="round" stroke-width="2" d="M27.1714,46.672c-9.4278-.3943-16.1285-2.0392-16.1285-8.8763,0-8.8366,11.1929-23,25-23s25,14.1634,25,23c0,7.1191-7.2648,8.6088-17.3086,8.919"/>
  </g>
</svg>
