<svg id="emoji" viewBox="0 0 72 72" version="1.1" xmlns="http://www.w3.org/2000/svg">
  <g id="color">
    <path fill="#92d3f5" d="m33 5.5v12l-4.406 13.5 0.6289 4 0.2773 2-1.5 5v25h16v-25l-1.5-5 0.2773-2 0.6289-4-4.406-13.5v-12z"/>
    <rect x="32.5" y="4" rx="1" width="7" height="4.5" fill="#9b9b9a"/>
    <path fill="#61b2e4" d="m39 7.5v9.5l4.5 14-1 6 1.5 5v25h-4v-24c0-1.5-1-3-1-5.5s2-3.5 2-5.5c0-3.5-5-12.5-5-19.5v-5z"/>
    <path fill="#3f3f3f" stroke-linecap="round" stroke-linejoin="round" stroke-width="2.268" d="m36 4v4.5h2.5c0.554 0 1-0.446 1-1v-2.5c0-0.554-0.446-1-1-1z"/>
  </g>
  <g id="line">
    <circle cx="36" cy="31" r="1"/>
    <circle cx="36" cy="35" r="1"/>
    <ellipse cx="38.5" cy="33" rx="0.9" ry="1"/>
    <ellipse cx="33.5" cy="33" rx="0.9" ry="1"/>
    <ellipse cx="40.5" cy="31" rx="0.75" ry="1"/>
    <ellipse cx="40.5" cy="35" rx="0.75" ry="1"/>
    <ellipse cx="31.5" cy="31" rx="0.75" ry="1"/>
    <ellipse cx="31.5" cy="35" rx="0.75" ry="1"/>
    <path fill="none" stroke="#000" stroke-linecap="round" stroke-linejoin="round" stroke-width="2" d="m33.5 7.5h5"/>
    <path fill="none" stroke="#000" stroke-linecap="round" stroke-linejoin="round" stroke-width="2" d="m31.5 43.5h9"/>
    <path fill="none" stroke="#000" stroke-linecap="round" stroke-linejoin="round" stroke-width="2" d="m38 11v1.5c0 4.5 5.5 16 5.5 19.5 0 2-1 3-1 5s1.5 3 1.5 6v24h-16v-24c0-3 1.5-4 1.5-6s-1-3-1-5c0-3.5 5.5-15 5.5-19.5v-1.5"/>
  </g>
</svg>
