<svg id="emoji" viewBox="0 0 72 72" xmlns="http://www.w3.org/2000/svg">
  <g id="color">
    <circle cx="39.8821" cy="38.8945" r="2.1405" fill="#fcea2b"/>
    <circle cx="46.0827" cy="38.8945" r="2.1405" fill="#fcea2b"/>
    <circle cx="52.0422" cy="39.4505" r="2.1405" fill="#fcea2b"/>
    <circle cx="33" cy="12" r="4" fill="#92d3f5"/>
    <circle cx="34" cy="19" r="3" fill="#fcea2b"/>
    <path fill="#fcea2b" d="m33.7797,19.0447h0c1.3229,0,2.3953,1.4015,2.3953,3.1303v16.6947c0,1.7288-1.0724,3.1303-2.3953,3.1303h0c-1.3229,0-2.3953-1.4015-2.3953-3.1303v-16.6947c0-1.7288,1.0724-3.1303,2.3953-3.1303Z"/>
    <path fill="#fcea2b" d="m28.7913,56.6712l2.5261,3.4366c.1487.2023.3312.3765.5392.5147l3.971,2.6383c.2896.1924.6212.3101.9658.3429l5.6192.5341c.3288.0312.6602-.0157.968-.1371l5.2341-2.0645c.3736-.1474.6985-.3989.9372-.7257l3.5647-4.8799c.2028-.2776.3369-.6007.3909-.9419l.2547-1.609c.21-1.3272-.815-2.5236-2.1395-2.4973l-21.5335.4284c-1.3157.0262-2.2918,1.2472-2.0456,2.5588h0s.3856,1.6191.3856,1.6191c.0674.283.1906.5491.3621.7825Z"/>
    <path fill="#fcea2b" d="m28.8784,49.1209c-.5573-.0767-1.0529-.394-1.3559-.868l-4.4754-7.0029-1.2197-1.9365c-.4826-.7661-.3642-1.7653.284-2.3974l.3018-.2943c.4273-.4167,1.0241-.611,1.6148-.5257l3.6312.5245c.4342.0627.8338.2722,1.1323.5937l1.6337,1.7593c.2332.2511.3949.56.4683.8947l.5459,2.4868c.0428.1948.0549.3951.036.5936l-.4241,4.4524c-.1035,1.0868-1.0913,1.8686-2.1728,1.7198h0Z"/>
    <path fill="#fcea2b" d="m31.323,40.3402v.1061c0,1.0093-.8647,1.8276-1.9314,1.8276h0c-1.0667,0-1.9314.8182-1.9314,1.8276v9.071c0,1.0093.8647,1.8276,1.9314,1.8276h22.7909c1.0667,0,1.9314-.8182,1.9314-1.8276v-12.8322c0-1.0093-.8647-1.8276-1.9314-1.8276h-18.9281c-1.0667,0-1.9314.8182-1.9314,1.8276Z"/>
  </g>
  <g id="line">
    <path stroke="#000" stroke-linecap="round" stroke-linejoin="round" stroke-width="2" d="m40.5684,11.5949s7.2102,0,14.4203,4.8068"/>
    <path stroke="#000" stroke-linecap="round" stroke-linejoin="round" stroke-width="2" d="m26.1481,11.5949s-7.2102,0-14.4203,4.8068"/>
    <line x1="54.6243" x2="55.931" y1="10" y2="17.2389" fill="none" stroke="#000" stroke-linecap="round" stroke-linejoin="round" stroke-width="2"/>
    <line x1="48.6921" x2="55.931" y1="18.5457" y2="17.2389" fill="none" stroke="#000" stroke-linecap="round" stroke-linejoin="round" stroke-width="2"/>
    <line x1="12.343" x2="11.0363" y1="10" y2="17.2389" fill="none" stroke="#000" stroke-linecap="round" stroke-linejoin="round" stroke-width="2"/>
    <line x1="18.2752" x2="11.0363" y1="18.5457" y2="17.2389" fill="none" stroke="#000" stroke-linecap="round" stroke-linejoin="round" stroke-width="2"/>
    <path fill="none" stroke="#000" stroke-linecap="round" stroke-linejoin="round" stroke-width="2" d="m55.0207,50.5465c0,7.8067-6.3285,14.1352-14.1352,14.1352s-14.1352-6.3285-14.1352-14.1352"/>
    <line x1="55.0207" x2="55.0207" y1="49.7962" y2="39.4884" fill="none" stroke="#000" stroke-linecap="round" stroke-linejoin="round" stroke-width="2"/>
    <path fill="none" stroke="#000" stroke-linecap="round" stroke-linejoin="round" stroke-width="2" d="m49.0145,39.2364c.0696-1.659,1.4708-2.9474,3.1298-2.8778,1.6589.0696,2.9474,1.4708,2.8778,3.1298"/>
    <path fill="none" stroke="#000" stroke-linecap="round" stroke-linejoin="round" stroke-width="2" d="m43.0043,39.0363c.0696-1.6589,1.4708-2.9474,3.1298-2.8778,1.6589.0696,2.9474,1.4708,2.8778,3.1298"/>
    <path fill="none" stroke="#000" stroke-linecap="round" stroke-linejoin="round" stroke-width="2" d="m43.0077,38.9213c.1331-1.6551,1.5828-2.8888,3.2378-2.7557,1.6551.1331,2.8888,1.5828,2.7557,3.2378"/>
    <path fill="none" stroke="#000" stroke-linecap="round" stroke-linejoin="round" stroke-width="2" d="m36.9591,38.6255c.1063-1.657,1.5357-2.9141,3.1927-2.8079,1.657.1063,2.9141,1.5357,2.8079,3.1927"/>
    <path fill="none" stroke="#000" stroke-linecap="round" stroke-linejoin="round" stroke-width="2" d="m22.3961,40.5355c-1.1535-1.1943-1.1205-3.0976.0738-4.2511s3.0976-1.1205,4.2511.0738"/>
    <path fill="none" stroke="#000" stroke-linecap="round" stroke-linejoin="round" stroke-width="2" d="m30.9463,19.4081c0-1.6604,1.346-3.0064,3.0064-3.0064s3.0064,1.346,3.0064,3.0064"/>
    <line x1="36.9591" x2="36.9591" y1="38.5936" y2="19.4081" fill="none" stroke="#000" stroke-linecap="round" stroke-linejoin="round" stroke-width="2"/>
    <line x1="30.9463" x2="30.9463" y1="19.4081" y2="43.2797" fill="none" stroke="#000" stroke-linecap="round" stroke-linejoin="round" stroke-width="2"/>
    <line x1="28.403" x2="26.7211" y1="38.2598" y2="36.3582" fill="none" stroke="#000" stroke-linecap="round" stroke-linejoin="round" stroke-width="2"/>
    <path fill="none" stroke="#000" stroke-linecap="round" stroke-linejoin="round" stroke-width="2" d="m23.9146,42.5281c1.6773,1.8416,2.8977,4.4389,2.8358,8.1791"/>
    <line x1="22.3961" x2="23.9607" y1="40.5355" y2="42.58" fill="none" stroke="#000" stroke-linecap="round" stroke-linejoin="round" stroke-width="2"/>
    <path fill="none" stroke="#000" stroke-linecap="round" stroke-linejoin="round" stroke-width="2" d="m35.5266,13.6182c.2996-.4668.4734-1.0222.4734-1.6182,0-1.6569-1.3431-3-3-3s-3,1.3431-3,3c0,.8284.3358,1.5784.8787,2.1213"/>
  </g>
</svg>
