<svg id="emoji" viewBox="0 0 72 72" version="1.1" xmlns="http://www.w3.org/2000/svg">
  <g id="color" transform="matrix(1.579 .4213 -.4231 1.572 4.013 -9.525)">
    <path transform="matrix(.5908 -.1583 .159 .5934 -.8562 6.288)" fill="#d0cfce" d="m20.79 13.75c4.486-1.907 9.794-2.444 15.54-2.258 6.094-0.08112 11.72 0.4806 16.13 2.738 4.116 1.533 3.637 7.559 3.604 13.56 0.0665 5.123 0.3569 9.4-1.457 13.54-2.018 6.04-5.354 10.53-8.93 14.75-1.267 1.212-2.747 2.396-4.686 3.522-1.539 0.5021-3.132 0.9175-4.989 0.9047l-3.452-0.3979c-2.798-0.9362-4.443-2.413-6.064-3.901-3.49-3.68-6.748-8.312-9.237-16.11-1.045-3.183-1.92-6.823-1.307-14.46-0.035-6.012 0.5461-10.53 4.848-11.88z"/>
    <path transform="matrix(.5908 -.1583 .159 .5934 -.8562 6.288)" fill="none" stroke="#3f3f3f" stroke-linecap="round" d="m32.02 36.1 1.35-10.91"/>
    <path transform="matrix(.5908 -.1583 .159 .5934 -.8562 6.288)" fill="none" stroke="#3f3f3f" stroke-linecap="round" d="m39.85 36.1-1.01-10.98"/>
    <path transform="matrix(.5908 -.1583 .159 .5934 -.8562 6.288)" fill="none" stroke="#9b9b9a" d="m16 36.25c4.697 2.945 9.711 4.327 15.89 0"/>
    <path transform="matrix(.5908 -.1583 .159 .5934 -.8562 6.288)" fill="none" stroke="#9b9b9a" d="m55.88 36.22c-4.697 2.945-9.711 4.327-15.89 0"/>
  </g>
  <g id="line" transform="matrix(1.579 .4213 -.4231 1.572 4.013 -9.525)">
    <path transform="matrix(.5908 -.1583 .159 .5934 -.8562 6.288)" fill="none" stroke="#000" stroke-linecap="round" stroke-linejoin="round" stroke-width="2" d="m32.02 36.1c-2.187 2.411-1.531 2.89-1.409 3.732 1.997-0.3199 3.52 1.314 5.322 1.664"/>
    <path transform="matrix(.5908 -.1583 .159 .5934 -.8562 6.288)" fill="none" stroke="#000" stroke-linecap="round" stroke-linejoin="round" stroke-width="2" d="m39.85 36.1c2.187 2.411 1.531 2.89 1.409 3.732-1.997-0.3199-3.52 1.314-5.322 1.664"/>
    <path transform="matrix(.5908 -.1583 .159 .5934 -.8556 6.288)" stroke-width="0.4295" d="m36.07 60.5 2.482-0.237 0.1543-3.484s0.0814-1.791 0.4668-3.713c1.055-5.259 1.291-4.883-3.076-4.883-0.0091 0-0.01817 3e-6 -0.02724 1e-5z" class="UnoptimicedTransforms"/>
    <path transform="matrix(-.5908 .1583 .159 .5934 41.8 -5.143)" stroke-width="0.4295" d="m36.07 60.5 2.482-0.237 0.1543-3.484s0.0814-1.791 0.4668-3.713c1.055-5.259 1.291-4.883-3.076-4.883-0.0091 0-0.01817 3e-6 -0.02724 1e-5z" class="UnoptimicedTransforms"/>
    <path transform="matrix(.5908 -.1583 .159 .5934 -.8562 6.288)" stroke-width="0.4295" d="m30.78 46.53c-0.6605-0.9987 0.4962-1.258 5.604-1.258 4.844 0 5.324 0.06719 5.189 0.7266-0.1301 0.6342-0.8072 0.7414-5.329 0.8432-3.214 0.0724-5.288-0.04579-5.463-0.3114z"/>
    <path transform="matrix(.5908 -.1583 .159 .5934 -.8562 6.288)" d="m50.91 23.98c0.3774 0.2199 0.4675-0.651 0.4675-1.902 0-1.6-0.0152-1.714-3.209-2.043-2.207-0.1426-3.003 0.02065-5.336 1.094-1.508 0.6936-3.307 1.813-3.999 2.488-1.065 1.039-1.181 1.36-0.7576 2.099 0.6767 1.182 2.054 1.097 3.736-0.2283 3.047-2.401 6.522-3.144 9.097-1.506z"/>
    <path transform="matrix(.5908 -.1583 .159 .5934 -.8562 6.288)" d="m21.29 23.98c-0.3774 0.2199-0.4675-0.651-0.4675-1.902 0-1.6 0.0152-1.714 3.209-2.043 2.207-0.1426 3.003 0.02065 5.336 1.094 1.508 0.6936 3.307 1.813 3.999 2.488 1.065 1.039 1.181 1.36 0.7576 2.099-0.6767 1.182-2.054 1.097-3.736-0.2283-3.047-2.401-6.522-3.144-9.097-1.506z"/>
    <path transform="matrix(.5908 -.1583 .159 .5934 -.8562 6.288)" stroke-width="0.4295" d="m24 31.11c-2.437-0.6575-1.589-2.353 1.261-2.521 2.377-0.1407 5.607 0.4718 6.239 1.183 0.4804 0.5409 0.4359 0.7423-0.2707 1.225-0.9578 0.6545-4.989 0.7177-7.229 0.1133zm17.43-0.1133c-1.239-0.8469-0.207-1.795 2.378-2.185 3.848-0.5801 6.295-0.05888 6.295 1.341 0 1.265-7.053 1.951-8.673 0.844z"/>
    <path transform="matrix(.5908 -.1583 .159 .5934 -.8562 6.288)" fill="none" stroke="#000" stroke-linecap="round" stroke-linejoin="round" stroke-width="2.5" d="m22.57 38.8 2.911 5.042h7.669l1.512-2.44"/>
    <path transform="matrix(.5908 -.1583 .159 .5934 -.8562 6.288)" fill="none" stroke="#000" stroke-linecap="round" stroke-linejoin="round" stroke-width="2.5" d="m49.27 38.78-2.911 5.042h-7.669l-1.512-2.427"/>
    <path transform="matrix(.5908 -.1583 .159 .5934 -.8562 6.288)" fill="none" stroke="#000" stroke-linecap="round" stroke-linejoin="round" stroke-width="3" d="m20.79 13.75c4.486-1.907 9.794-2.444 15.54-2.258 6.094-0.08112 11.72 0.4806 16.13 2.738 4.116 1.533 3.637 7.559 3.604 13.56 0.0665 5.123 0.3569 9.4-1.457 13.54-2.018 6.04-5.354 10.53-8.93 14.75-1.267 1.212-2.747 2.396-4.686 3.522-1.539 0.5021-3.132 0.9175-4.989 0.9047l-3.452-0.3979c-2.798-0.9362-4.443-2.413-6.064-3.901-3.49-3.68-6.748-8.312-9.237-16.11-1.045-3.183-1.92-6.823-1.307-14.46-0.035-6.012 0.5461-10.53 4.848-11.88z"/>
    <path transform="matrix(.5909 -.1584 .159 .5935 -.8564 6.289)" fill="none" stroke="#000" stroke-linecap="round" stroke-width="0.9998" d="m32.02 36.09 1.35-10.91"/>
    <path transform="matrix(.5909 -.1584 .159 .5935 -.8564 6.289)" fill="none" stroke="#000" stroke-linecap="round" stroke-width="0.9998" d="m39.84 36.09-1.01-10.98"/>
  </g>
</svg>
