<svg id="emoji" viewBox="0 0 72 72" xmlns="http://www.w3.org/2000/svg">
  <g id="color">
    <rect x="25" y="10" rx="1" width="21" height="5" fill="#1e50a0"/>
    <rect x="23" y="14" rx="1" width="26" height="48" fill="#1e50a0"/>
    <path fill="#ffffff" fill-rule="evenodd" d="M38 7.6C38 6.71634 37.1046 6 36 6C34.8954 6 34 6.71634 34 7.6V10H38V7.6Z" clip-rule="evenodd"/>
    <rect x="25" y="16" width="22" height="3" fill="#000000"/>
    <rect x="38" y="51" width="8" height="7" fill="#184081"/>
    <rect x="27" y="51" width="8" height="7" fill="#184081"/>
    <rect x="38" y="41" width="8" height="7" fill="#184081"/>
    <rect x="27" y="41" width="8" height="7" fill="#184081"/>
    <rect x="38" y="31" width="8" height="7" fill="#184081"/>
    <rect x="27" y="31" width="8" height="7" fill="#184081"/>
    <rect x="38" y="21" width="8" height="7" fill="#ffffff"/>
    <rect x="27" y="21" width="8" height="7" fill="#ffffff"/>
  </g>
  <g id="line">
    <path fill="none" stroke="#000000" stroke-linecap="round" stroke-width="2" d="M38 52L38 58H45"/>
    <path fill="none" stroke="#000000" stroke-linecap="round" stroke-width="2" d="M27 52L27 58H34"/>
    <path fill="none" stroke="#000000" stroke-linecap="round" stroke-width="2" d="M38 42L38 48H45"/>
    <path fill="none" stroke="#000000" stroke-linecap="round" stroke-width="2" d="M27 42L27 48H34"/>
    <path fill="none" stroke="#000000" stroke-linecap="round" stroke-width="2" d="M38 32L38 38H45"/>
    <path fill="none" stroke="#000000" stroke-linecap="round" stroke-width="2" d="M27 32L27 38H34"/>
    <path fill="none" stroke="#000000" stroke-linecap="round" stroke-width="2" d="M38 22L38 28H45"/>
    <path fill="none" stroke="#000000" stroke-linecap="round" stroke-width="2" d="M27 22L27 28H34"/>
    <rect x="23" y="14" rx="1" width="26" height="48" fill="none" stroke="#000000" stroke-width="2"/>
    <path fill="none" stroke="#000000" stroke-width="2" d="M34 9V7.6C34 6.71634 34.8954 6 36 6C37.1046 6 38 6.71634 38 7.6V9"/>
    <path fill="none" stroke="#000000" stroke-width="2" d="M25 13V11C25 10.4477 25.4477 10 26 10H45C45.5523 10 46 10.4477 46 11V13"/>
  </g>
</svg>
