<svg id="emoji" viewBox="0 0 72 72" xmlns="http://www.w3.org/2000/svg">
  <g id="line-supplement">
    <path fill="none" stroke="#000" stroke-linecap="round" stroke-linejoin="round" stroke-width="2" d="m29.7565,17.5555l1.38,14.5"/>
    <path fill="none" stroke="#000" stroke-linecap="round" stroke-linejoin="round" stroke-width="2" d="m31.4666,41.0555l-.4314,1-1.1613,17.5"/>
  </g>
  <g id="color">
    <polygon fill="#fff" points="46.635 27.1127 48.5469 19.6717 53.4559 19.8268 55.0061 21.4286 49.6837 31.6599 45.7566 30.7298 46.635 27.1127"/>
    <path fill="#3f3f3f" stroke="#3f3f3f" stroke-linecap="round" stroke-linejoin="round" stroke-width="2" d="m55.2566,15.5555l-12.7975-.0046,5.7975,3.5046h5.5l2,2.5-6.2326,10.6414.0915,3.78,9.6411-15.4214-4-5Z"/>
    <path fill="#d0cfce" d="m24.7566,42.0555l-3,19.5.5,1h24l1-1-3-19.5-1-1h-17.5l-1,1Z"/>
    <path fill="#3f3f3f" fill-rule="evenodd" d="m36.078,61.6183v-21.5h6.5l1,1,3,19.5-1,1h-9.5Z"/>
    <path fill="#9b9b9a" d="m30.0507,41.5555l-1.2941,19.5.2157,1h10.3529l.4314-1-1.2941-19.5-.4314-1h-7.549s-.4314,1-.4314,1Z"/>
    <path fill="none" stroke="#3f3f3f" stroke-linejoin="round" stroke-width="2" d="m39.7566,61.0555l-1.2941-19.5-.4314-1"/>
    <path fill="#d0cfce" fill-rule="evenodd" d="m44.4343,32.4201l3.0373-11.8117c.4465-1.7365-.4877-3.5303-2.1665-4.1598l-8.4526-3.1697c-.394-.1478-.8114-.2234-1.2322-.2234h-1.9797c-.5803,0-1.1515.1439-1.6625.4188l-5.5523,2.9867c-.2947.1586-.6107.2741-.9381.3432l-3.1881.6725c-2.3809.5022-3.5405,3.2161-2.2577,5.2838l3.4985,5.6391c.2043.3293.3527.6902.439,1.0681l.6539,2.8605c.3647,1.5957,1.7842,2.7273,3.4211,2.7273h12.9812c1.6015,0,2.9999-1.0843,3.3987-2.6354Z"/>
    <path fill="#3f3f3f" fill-rule="evenodd" d="m33.7566,35.0555V13.0555h3l12,4.5-4.5,17.5h-10.5Z"/>
    <path fill="#9b9b9a" d="m39.7566,17.5555l-1.8333,17.5h-7.5371l-1.6296-17.5,4.6852-4.5h1.4259l4.8889,4.5Z"/>
    <path fill="none" stroke="#3f3f3f" stroke-linecap="round" stroke-linejoin="round" stroke-width="2" d="m38.1238,34.9912l1.6328-17.4357"/>
    <path fill="#9b9b9a" d="m24.6417,18.239l-1.5178,8.257-5.5103-7.4847c-.3213-.4543.0297-1.0779.5848-1.0388l6.4433.2665Z"/>
    <rect x="25.7566" y="36.0555" width="18" height="4" fill="#d0cfce"/>
    <g>
      <rect x="35.7566" y="36.0555" width="8" height="4" fill="#3f3f3f"/>
      <rect x="35.7566" y="36.0555" width="8" height="4" fill="#3f3f3f"/>
    </g>
    <rect x="31.7566" y="36.0555" width="5" height="4" fill="#9b9b9a"/>
    <path fill="#3f3f3f" d="m31.7566,7.0555h5l-1,6h-3l-1-6Z"/>
  </g>
  <g id="line">
    <path fill="none" stroke="#000" stroke-linejoin="round" stroke-width="2" d="m24.7566,41.5555l-3,19.5.5,1h24l1-1-3-19.5-1-1h-17.5l-1,1Z"/>
    <path fill="none" stroke="#000" stroke-linecap="round" stroke-linejoin="round" stroke-width="2" d="m51.2566,15.5555h4l4,5-10.25,17.75v-6l6.4445-11.3188-1.6945-1.9312h-5.5"/>
    <path fill="none" stroke="#000" stroke-linecap="round" stroke-linejoin="round" stroke-width="2" d="m39.7566,17.5555l-1.3503,14.5"/>
    <path fill="none" stroke="#000" stroke-linecap="round" stroke-linejoin="round" stroke-width="2" d="m38.0311,40.5555l.4314,1,1.1614,17.5"/>
    <path fill="none" stroke="#000" stroke-linejoin="round" stroke-width="2" d="m31.7566,7.0555h5l-1,6h-3l-1-6Z"/>
    <path fill="none" stroke="#000" stroke-linecap="round" stroke-linejoin="round" stroke-width="2" d="m21.3441,17.5555h18.4125"/>
    <path fill="none" stroke="#000" stroke-linecap="round" stroke-width="2" d="m25.7454,17.63l-1.2951,7.3566"/>
    <path fill="none" stroke="#000" stroke-linecap="round" stroke-width="2" d="m26.7566,35.3055v2.75"/>
    <path fill="none" stroke="#000" stroke-linecap="round" stroke-width="2" d="m42.7566,35.3055v4.75"/>
    <path fill="none" stroke="#000" stroke-miterlimit="10" stroke-width="2" d="m16.8806,17.5083h4.2763l11.5-4.5h3.5l11.8569,4.2685c.3629.1307.5642.5186.462.8906l-4.4519,16.9471h-18.8303l-1.2987-6.2864-7.5179-10.3303c-.2996-.4117-.0055-.9895.5037-.9895Z"/>
  </g>
</svg>
