<svg id="emoji" viewBox="0 0 72 72" xmlns="http://www.w3.org/2000/svg">
  <g id="color">
    <path fill="#fff" d="m38.8772,53.9048v-13h15.3302v9l-15.3302,4Z"/>
    <path fill="#a57939" d="m40.1565,19.9078h12.8551c.6623,0,1.1992.5324,1.1992,1.1891v20.8487h-15.4498v-20.6542c0-.7642.6248-1.3837,1.3954-1.3837Z"/>
    <path fill="#6a462f" fill-rule="evenodd" d="m38.9818,54.1131l-.0739,3.3387c0,1.1046.2372,1.613,1.3418,1.613h11.866c1.1046,0,1.9452-.007,1.9452-1.1116l-.0278-3.4181.0278-4.0572-15.0792,3.6352Z"/>
    <path fill="#a57939" d="m22,13.5283c0,3.0274-2.2386,8.4717-5,8.4717s-5-5.4443-5-8.4717,2.2386-2.4917,5-2.4917,5-.5358,5,2.4917Z"/>
    <rect x="44" y="14" width="5" height="5" fill="#d0cfce"/>
  </g>
  <g id="line">
    <path fill="none" stroke="#000" stroke-linecap="round" stroke-linejoin="round" stroke-width="2" d="m41,53.7941l11-2.5882"/>
    <path fill="none" stroke="#000" stroke-width="2" d="m38,21c0-1.1046.8954-2,2-2h13c1.1046,0,2,.8954,2,2v37c0,1.1046-.8954,2-2,2h-13c-1.1046,0-2-.8954-2-2V21Z"/>
    <rect x="44" y="14" width="5" height="5" fill="none" stroke="#000" stroke-linejoin="round" stroke-width="2"/>
    <path fill="none" stroke="#000" stroke-linejoin="round" stroke-width="2" d="m44,16h-6l-15,9h-6v-3"/>
    <path fill="none" stroke="#000" stroke-width="2" d="m22,13.5283c0,3.0274-2.2386,8.4717-5,8.4717s-5-5.4443-5-8.4717,2.2386-2.4917,5-2.4917,5-.5358,5,2.4917Z"/>
    <line x1="39" x2="52" y1="41" y2="41" fill="none" stroke="#000" stroke-linecap="round" stroke-width="2"/>
  </g>
</svg>
