<svg id="emoji" viewBox="0 0 72 72" xmlns="http://www.w3.org/2000/svg">
  <g id="color">
    <path fill="#fff" d="m20.6896,53.3396s21.6005-13.0596,23.4378-17.5287,5.4622-.5462,5.4622-.5462l-2.4332,18.5715-26.4668-.4966Z"/>
    <path fill="#a57939" d="m14.375,47.125s.2295.0762.4395.248c1.5,1.2295,1.333,2.9405,1.333,2.9405l1.3281,1.4678,4.5244.5937,4.75.1875,6.375-.4375,3.5625,1.125,2.75-1.375s.0625-5.8437.7188-5.8437c.75,0,1.7812,1.1044,1.7812,3.9687,0,3.125-1.7939,6.2754-7.9375,6-.457-.0205.25,1.8125.25,1.8125l-.9375,2.75-2,2.625-.3125,3.0625-.3125.375s-.2637.4063-.8437.4063c-2.7813,0-3.2188-1.4688-1.5938-2.0938.1309-.0508.375-1.75.375-1.75l-2-2.0205-3.917.708-4.125.208.417,1.334-1.708,3.166s1.124.459-.459.459c-.374,0-2.04-.334-2.207-2.459l.624-3.209-1.208-2.041-.833-2-1.917-.5-4.124.624-1.375-1,1.75-1.75,1.6758-2.207,3.2412-2.168,1.915-3.207Z"/>
    <path fill="#6a462f" d="m13.583,59.71l1.667,1.664c-.125,1-2.0713.8213-2.1455,1.6465-.1045,1.166.5225.835.4844,1.6904-.0821,1.8418-2.4346,1.7686-3.0293,1.1866-.3848-.376-.3096-.792.1484-2.1465.8428-2.4932,2.3545-4.25,2.3545-4.25l.5205.209Z"/>
  </g>
  <g id="skin">
    <circle cx="54.9688" cy="8.0938" r="3" fill="#fcea2b"/>
    <path fill="#fcea2b" d="m61.1386,52.5969c-.0868-.1429-.6643-1.4187-.6904-1.5838l-1.9302-12.6741.0549-.467.3571-.4121c.2158-.259.495-1.2573.467-1.5934l-.0083-6.201-.0239.0058-.7956-10.663c-.2841-2.1816-2.3173-4.0083-4.5175-4.0083h-.0518c-2.2002,0-4.2002,1.8306-4.4463,4.0171l-.5537,4.9619.0469.0257-.0469-.0047-.5806,6.0951c-.0433.4543-.3244.8514-.7384,1.0432l-4.4912,2.0807c-.2055.0952-.3822.2431-.5121.4286l-.0112.016c-.3581.5115-.2981,1.2042.1418,1.6473.5258.5297,1.4033,1.0191,2.7356.6472l2.4663-1.5679-.061.6402-1.187,29.953c-.033.5284.1287.8741.6092,1.0965l.0406.0406c.7159.3314,1.2868-.3783,1.5026-1.1371l4.1906-15.3211c.3366-1.1835,2.2665-2.3136,2.7134-1.1671l2.2742,5.4419c.0411.1055.0952.518.1624.6092l5.5638,7.6756c.4069.5513,1.6229,1.7609,2.193,1.3808l.3655-.1624c.5725-.3817.3979-1.28.0406-1.8681l-5.2795-8.9751Z"/>
  </g>
  <g id="line">
    <circle cx="54.9688" cy="8.0938" r="3" fill="none" stroke="#000" stroke-miterlimit="10" stroke-width="2"/>
    <path fill="none" stroke="#000" stroke-linecap="round" stroke-linejoin="round" stroke-width="2" d="m49,35l-3.0479,30.0098c-.1113,1.0947.5684,1.9902,1.5098,1.9902s1.9492-.8682,2.2383-1.9297l5.4863-20.1152c.2891-1.0615,1.043-2.667,1.6739-3.5674l2.1992-3.1397c.6308-.9003,1.1035-2.5371,1.0508-3.6357l-.4922-10.1191"/>
    <path fill="none" stroke="#000" stroke-linecap="round" stroke-linejoin="round" stroke-width="2" d="m59.1348,38.1406l1.8203,11.5254c.1709,1.0869.7793,2.7451,1.3496,3.6846l4.8242,7.9404c.5703.9395.3633,2.1592-.4619,2.709-.8252.5498-2.0342.2764-2.6875-.6094l-5.2686-7.1357c-.6533-.8858-1.5146-2.4483-1.914-3.4727l-2.2031-5.6533"/>
    <path fill="none" stroke="#000" stroke-linecap="round" stroke-linejoin="round" stroke-width="2" d="m59.6584,25.5257l-.36-6.7711c-.2066-1.8809-2.0464-3.7546-4.2466-3.7546h-.0518c-2.2002,0-4.2002,1.8306-4.4463,4.0171l-.4697,4.2129"/>
    <path fill="none" stroke="#000" stroke-linecap="round" stroke-linejoin="round" stroke-width="2" d="m55.167,20l-3.0684,6.4443c-.4726.9932-1.6269,2.2754-2.5654,2.8487l-7.5957,4.6445"/>
    <path fill="none" stroke="#000" stroke-linecap="round" stroke-linejoin="round" stroke-width="2" d="m13,57l5-5s17-6,23.9375-18.0625"/>
    <path fill="none" stroke="#000" stroke-linecap="round" stroke-linejoin="round" stroke-width="2" d="m40,47c2,5-4,8-7,6-.7715-.5137-3.8535-1.3145-7-1l-8.3281.3281-1.6719-1.0156"/>
    <path fill="none" stroke="#000" stroke-linecap="round" stroke-linejoin="round" stroke-width="2" d="m27,58c0,2,1.25,4.501,1.25,4.501,0,0,.3828,1.2344-.25,2.499-1,2,2,3,3,1s.832-3.6641,1-4c.4033-.8066,1.999-1.917,2-4v-1"/>
    <path fill="none" stroke="#000" stroke-linecap="round" stroke-linejoin="round" stroke-width="2" d="m27,60c-2.041,2.001-4.625,2-8,2"/>
    <path fill="none" stroke="#000" stroke-linecap="round" stroke-linejoin="round" stroke-width="2" d="m14,59c-1.0156.9287-2,1-3,2s-1,3,0,4"/>
    <path fill="none" stroke="#000" stroke-linecap="round" stroke-linejoin="round" stroke-width="2" d="m14,48l-1,2s-2.2441.2998-3,1c-.5801.5371-1,3-1,3,0,0-2.8779,1.5928-3,2-.0937.3125,1.293,2,2,2,1,0,4-1,4-1,2,0,2,3,3,4,.4102.4102,0,3-.334,3.959-.6797,1.9541,2.334,3.041,3.168.875.3047-.794,1.166-2.834,1.166-4.834"/>
  </g>
</svg>
