<svg id="emoji" xmlns="http://www.w3.org/2000/svg" viewBox="0 0 72 72">
  <g id="color">
    <path fill="#92d3f5" d="M31.3882,26.7177c0,0,9.2367-1.8188,8.4221-9.1964c-1.3538-12.261-1.4678-10.4237-1.4678-10.4237 l-5.5293,1.0104C32.8133,8.1081,35.9998,21.7018,31.3882,26.7177z" stroke="none"/>
    <path fill="#92d3f5" stroke="none" stroke-width="2" stroke-linecap="round" stroke-linejoin="round" stroke-miterlimit="10" d="M34.5417,7.0359c-8.1462,0-14.75,7.496-14.75,16.7427v16.388h29.5"/>
    <rect x="26.8333" y="44.5" fill="#d0cfce" stroke="none" stroke-width="2" stroke-linecap="round" stroke-linejoin="round" stroke-miterlimit="10" width="4" height="22.095"/>
    <rect x="41.3333" y="44.5" fill="#d0cfce" stroke="none" stroke-width="2" stroke-linecap="round" stroke-linejoin="round" stroke-miterlimit="10" width="4" height="16.4792"/>
    <path fill="#61b2e4" d="M34.5417,7.5625c0,0,15.3232,0.5495,15.9047,13.875c0.9664,22.1458,0.0665,18.9191,0.0665,18.9191 l-9.3254-0.19C41.1875,40.1667,42.6247,15.125,34.5417,7.5625z" stroke="none"/>
    <rect x="43.3333" y="40.7917" fill="#61b2e4" width="11.8333" height="3.0833" stroke="none"/>
    <rect x="16.3353" y="40.7917" fill="#92d3f5" width="26.998" height="3.0833" stroke="none"/>
  </g>
  <g id="hair"/>
  <g id="skin"/>
  <g id="skin-shadow"/>
  <g id="line">
    <path fill="none" stroke="#000000" stroke-width="2" stroke-linecap="round" stroke-linejoin="round" stroke-miterlimit="10" d="M34.5417,7.0359c-8.1462,0-14.75,7.496-14.75,16.7427v16.388h29.5"/>
    <rect x="26.8333" y="44.5" fill="none" stroke="#000000" stroke-width="2" stroke-linecap="round" stroke-linejoin="round" stroke-miterlimit="10" width="4" height="22.095"/>
    <rect x="41.3333" y="44.5" fill="none" stroke="#000000" stroke-width="2" stroke-linecap="round" stroke-linejoin="round" stroke-miterlimit="10" width="4" height="16.4792"/>
    <path fill="none" stroke="#000000" stroke-width="2" stroke-linecap="round" stroke-linejoin="round" stroke-miterlimit="10" d="M25.8125,19.0625"/>
    <path fill="none" stroke="#000000" stroke-width="2" stroke-linecap="round" stroke-linejoin="round" stroke-miterlimit="10" d="M35.2497,7.0359c8.1462,0,14.75,7.496,14.75,16.7427v7.388"/>
    <polygon fill="none" stroke="#000000" stroke-width="2" stroke-linecap="round" stroke-linejoin="round" stroke-miterlimit="10" points="16,44.5 45.5309,44.5 45.9063,44.5 56,44.5 56,40.1667 45.9063,40.1667 45.4999,40.1667 16,40.1667"/>
  </g>
</svg>
