<svg id="emoji" xmlns="http://www.w3.org/2000/svg" viewBox="0 0 72 72">
  <g id="color">
    <rect x="29" y="4" fill="#9B9B9A" width="14" height="18" stroke="none"/>
    <rect x="29" y="50" fill="#9B9B9A" width="14" height="18" stroke="none"/>
    <circle fill="#3F3F3F" cx="36" cy="36" r="15" stroke="none"/>
    <rect x="28" y="28" fill="#92D3F5" width="6" height="6" stroke="none"/>
    <rect x="38" y="28" fill="#EA5A47" width="6" height="6" stroke="none"/>
    <rect x="38" y="38" fill="#92D3F5" width="6" height="6" stroke="none"/>
    <rect x="28" y="38" fill="#B399C8" width="6" height="6" stroke="none"/>
  </g>
  <g id="hair"/>
  <g id="skin"/>
  <g id="skin-shadow"/>
  <g id="line">
    <circle fill="none" stroke="#000000" stroke-width="2" stroke-linecap="round" stroke-linejoin="round" stroke-miterlimit="10" cx="36" cy="36" r="15"/>
    <line fill="none" stroke="#000000" stroke-width="2" stroke-linecap="round" stroke-linejoin="round" stroke-miterlimit="10" x1="29" y1="22" x2="29" y2="5"/>
    <line fill="none" stroke="#000000" stroke-width="2" stroke-linecap="round" stroke-linejoin="round" stroke-miterlimit="10" x1="43" y1="22" x2="43" y2="5"/>
    <line fill="none" stroke="#000000" stroke-width="2" stroke-linecap="round" stroke-linejoin="round" stroke-miterlimit="10" x1="29" y1="67" x2="29" y2="50"/>
    <line fill="none" stroke="#000000" stroke-width="2" stroke-linecap="round" stroke-linejoin="round" stroke-miterlimit="10" x1="43" y1="67" x2="43" y2="50"/>
    <path fill="none" stroke="#000000" stroke-width="2" stroke-linecap="round" stroke-linejoin="round" stroke-miterlimit="10" d="M33,34h-4c-0.5523,0-1-0.4477-1-1v-4c0-0.5523,0.4477-1,1-1h4c0.5523,0,1,0.4477,1,1v4C34,33.5523,33.5523,34,33,34z"/>
    <path fill="none" stroke="#000000" stroke-width="2" stroke-linecap="round" stroke-linejoin="round" stroke-miterlimit="10" d="M43,34h-4c-0.5523,0-1-0.4477-1-1v-4c0-0.5523,0.4477-1,1-1h4c0.5523,0,1,0.4477,1,1v4C44,33.5523,43.5523,34,43,34z"/>
    <path fill="none" stroke="#000000" stroke-width="2" stroke-linecap="round" stroke-linejoin="round" stroke-miterlimit="10" d="M43,44h-4c-0.5523,0-1-0.4477-1-1v-4c0-0.5523,0.4477-1,1-1h4c0.5523,0,1,0.4477,1,1v4C44,43.5523,43.5523,44,43,44z"/>
    <path fill="none" stroke="#000000" stroke-width="2" stroke-linecap="round" stroke-linejoin="round" stroke-miterlimit="10" d="M33,44h-4c-0.5523,0-1-0.4477-1-1v-4c0-0.5523,0.4477-1,1-1h4c0.5523,0,1,0.4477,1,1v4C34,43.5523,33.5523,44,33,44z"/>
    <circle cx="36" cy="66" r="2" fill="#000000" stroke="none"/>
  </g>
</svg>
