<svg id="emoji" xmlns="http://www.w3.org/2000/svg" viewBox="0 0 72 72">
  <g id="color">
    <polygon fill="#5C9E31" points="8,56 63,56 63,51 67,46.9042 67,28.0005 63,24 63,16 8,16" stroke="none"/>
    <polyline fill="#5C9E31" points="63,56 63,51 67,46.9042 67,28.0005 63,24 63,16 56.1671,16" stroke="none"/>
    <polygon fill="#B1CC33" points="31.333,56 8,56 8,16 56.1671,16" stroke="none"/>
    <rect x="6" y="22" fill="#B1CC33" width="2" height="9" stroke="none"/>
    <rect x="29" y="46" fill="#B1CC33" stroke="none" stroke-width="2" stroke-linecap="round" stroke-linejoin="round" stroke-miterlimit="10" width="28" height="4"/>
    <rect x="24" y="22" fill="#B1CC33" stroke="none" stroke-width="2" stroke-linecap="round" stroke-linejoin="round" stroke-miterlimit="10" width="33" height="4"/>
  </g>
  <g id="hair"/>
  <g id="skin"/>
  <g id="skin-shadow"/>
  <g id="line">
    <polyline fill="none" stroke="#000000" stroke-width="2" stroke-linecap="round" stroke-linejoin="round" stroke-miterlimit="10" points="8,22 8,16 63,16 63,24 67,28.0005 67,46.9042 63,51 63,56 8,56 8,31"/>
    <rect x="29" y="46" fill="none" stroke="#000000" stroke-width="2" stroke-linecap="round" stroke-linejoin="round" stroke-miterlimit="10" width="28" height="4"/>
    <rect x="24" y="22" fill="none" stroke="#000000" stroke-width="2" stroke-linecap="round" stroke-linejoin="round" stroke-miterlimit="10" width="33" height="4"/>
    <polyline fill="none" stroke="#000000" stroke-width="2" stroke-linecap="round" stroke-linejoin="round" stroke-miterlimit="10" points="18,30 18,22 5,22 5,31 11.1252,31"/>
    <polyline fill="none" stroke="#000000" stroke-width="2" stroke-linecap="round" stroke-linejoin="round" stroke-miterlimit="10" points="14,50 18,50 18,46 14,46"/>
    <path fill="none" stroke="#000000" stroke-width="2" stroke-linecap="round" stroke-linejoin="round" stroke-miterlimit="10" d="M8,22"/>
  </g>
</svg>
