<svg version="1.1" id="emoji" xmlns="http://www.w3.org/2000/svg" x="0" y="0" viewBox="0 0 72 72" enable-background="new 0 0 72 72" xml:space="preserve">
  <g id="color">
    <rect x="21" y="30" fill="#FFFFFF" width="6" height="12"/>
    <circle fill="#FFFFFF" cx="41" cy="36" r="15"/>
    <path fill="#D0CFCE" d="M30.4,46.6C33.1,49.3,36.9,51,41,51c8.3,0,15-6.7,15-15c0-3.6-1.3-6.9-3.4-9.5c-0.3-0.4-0.7-0.8-1.1-1.2"/>
  </g>
  <g id="hair"/>
  <g id="skin"/>
  <g id="skin-shadow"/>
  <g id="line">
    <line fill="none" stroke="#000000" stroke-width="2" stroke-linecap="round" stroke-linejoin="round" stroke-miterlimit="10" x1="21" y1="32" x2="16" y2="32"/>
    <line fill="none" stroke="#000000" stroke-width="2" stroke-linecap="round" stroke-linejoin="round" stroke-miterlimit="10" x1="21" y1="36" x2="16" y2="36"/>
    <line fill="none" stroke="#000000" stroke-width="2" stroke-linecap="round" stroke-linejoin="round" stroke-miterlimit="10" x1="21" y1="40" x2="16" y2="40"/>
    <polyline fill="none" stroke="#000000" stroke-width="2" stroke-linecap="round" stroke-linejoin="round" stroke-miterlimit="10" points="27,41.4 27,42 21,42 21,30 27,30 27,30.6"/>
    <circle fill="none" stroke="#000000" stroke-width="2" stroke-linecap="round" stroke-linejoin="round" stroke-miterlimit="10" cx="41" cy="36" r="15"/>
    <circle cx="41" cy="36" r="4"/>
  </g>
  <g id="color-foreground">
    <path fill="#E27022" d="M20.005,30.99v2.02h-4.04c-0.606,0-1.01-0.505-1.01-1.01c0-0.505,0.404-1.01,1.01-1.01H20.005z"/>
    <path fill="#E27022" d="M20.005,34.99v2.02h-4.04c-0.606,0-1.01-0.505-1.01-1.01s0.404-1.01,1.01-1.01H20.005z"/>
    <path fill="#E27022" d="M20.005,38.99v2.02h-4.04c-0.606,0-1.01-0.505-1.01-1.01s0.404-1.01,1.01-1.01H20.005z"/>
  </g>
</svg>
