<svg version="1.1" id="emoji" xmlns="http://www.w3.org/2000/svg" x="0" y="0" viewBox="0 0 72 72" enable-background="new 0 0 72 72" xml:space="preserve">
  <g id="color">
    <path fill="#D0CFCE" d="M22.4,29.1c0,0-0.7-0.4-1.2-5h7c0,0-0.3,3.9-1.4,5"/>
    <rect x="16" y="29.1" fill="#A57939" width="40" height="3.8"/>
    <rect x="64" y="16" fill="#A57939" width="4" height="40"/>
    <rect x="34" y="33" fill="#A57939" width="4" height="23"/>
    <rect x="44" y="37.5" fill="#A57939" width="4" height="18.5"/>
    <rect x="44" y="37.1" fill="#A57939" width="20" height="4"/>
    <rect x="4" y="16" fill="#A57939" width="4" height="40"/>
    <rect x="24" y="37.5" fill="#A57939" width="4" height="18.5"/>
    <rect x="8" y="37.1" fill="#A57939" width="20" height="4"/>
  </g>
  <g id="hair"/>
  <g id="skin"/>
  <g id="skin-shadow"/>
  <g id="line">
    <path fill="none" stroke="#000000" stroke-width="2" stroke-linecap="round" stroke-linejoin="round" stroke-miterlimit="10" d="M22.4,29.1c0,0-0.7-0.4-1.2-5h7c0,0-0.3,3.9-1.4,5"/>
    <rect x="16" y="29.1" fill="none" stroke="#000000" stroke-width="2" stroke-linecap="round" stroke-linejoin="round" stroke-miterlimit="10" width="40" height="3.8"/>
    <rect x="64" y="16" fill="none" stroke="#000000" stroke-width="2" stroke-linecap="round" stroke-linejoin="round" stroke-miterlimit="10" width="4" height="40"/>
    <rect x="34" y="33" fill="none" stroke="#000000" stroke-width="2" stroke-linecap="round" stroke-linejoin="round" stroke-miterlimit="10" width="4" height="23"/>
    <polyline fill="none" stroke="#000000" stroke-width="2" stroke-linecap="round" stroke-linejoin="round" stroke-miterlimit="10" points="44,37.5 44,41.1 44,56 48,56 48,41.1"/>
    <rect x="44" y="37.1" fill="none" stroke="#000000" stroke-width="2" stroke-linecap="round" stroke-linejoin="round" stroke-miterlimit="10" width="20" height="4"/>
    <path fill="none" stroke="#000000" stroke-width="2" stroke-linecap="round" stroke-linejoin="round" stroke-miterlimit="10" d="M23,19.4c0,0,0.6-2,0-4"/>
    <path fill="none" stroke="#000000" stroke-width="2" stroke-linecap="round" stroke-linejoin="round" stroke-miterlimit="10" d="M25.8,19.4c0,0,0.6-1.8,0-3.5"/>
    <rect x="4" y="16" fill="none" stroke="#000000" stroke-width="2" stroke-linecap="round" stroke-linejoin="round" stroke-miterlimit="10" width="4" height="40"/>
    <polyline fill="none" stroke="#000000" stroke-width="2" stroke-linecap="round" stroke-linejoin="round" stroke-miterlimit="10" points="28,37.5 28,41.1 28,56 24,56 24,41.1"/>
    <rect x="8" y="37.1" fill="none" stroke="#000000" stroke-width="2" stroke-linecap="round" stroke-linejoin="round" stroke-miterlimit="10" width="20" height="4"/>
  </g>
</svg>
