<svg id="emoji" xmlns="http://www.w3.org/2000/svg" viewBox="0 0 72 72">
  <g id="color">
    <rect x="20" y="40" width="35" height="11" fill="#9b9b9a"/>
    <path d="M46,18l13,4L56,42l-5,5-3-5Q47,30,46,18Z" fill="#fcea2b"/>
    <path d="M15,17l4,14L18,47l30-5q-1-12-2-24Z" fill="#fcea2b"/>
  </g>
  <g id="line">
    <path d="M15,17l4,14L18,47l30-5q-1-12-2-24Z" fill="none" stroke="#000" stroke-linecap="round" stroke-linejoin="round" stroke-width="2"/>
    <line x1="19" y1="31" x2="46" y2="18" fill="none" stroke="#000" stroke-linecap="round" stroke-linejoin="round" stroke-width="2"/>
    <line x1="48" y1="42" x2="19" y2="31" fill="none" stroke="#000" stroke-linecap="round" stroke-linejoin="round" stroke-width="2"/>
    <line x1="46" y1="18" x2="56" y2="42" fill="none" stroke="#000" stroke-linecap="round" stroke-linejoin="round" stroke-width="2"/>
    <polyline points="54 51 20 51 20 47" fill="none" stroke="#000" stroke-linecap="round" stroke-linejoin="round" stroke-width="2"/>
    <path d="M46,18l13,4L56,42l-5,5-3-5Q47,30,46,18Z" fill="none" stroke="#000" stroke-linecap="round" stroke-linejoin="round" stroke-width="2"/>
    <line x1="46" y1="18" x2="56" y2="42" fill="none" stroke="#000" stroke-linecap="round" stroke-linejoin="round" stroke-width="2"/>
  </g>
</svg>
