<svg id="emoji" viewBox="0 0 72 72" xmlns="http://www.w3.org/2000/svg">
  <g id="line-supplement">
    <path fill="#000" fill-rule="evenodd" d="M20.3995 32.4312C20.1381 33.5788 20 34.7733 20 36C20 44.8366 27.1634 52 36 52C37.2268 52 38.4213 51.8619 39.5688 51.6005C36.2332 49.1646 32.7253 46.1628 29.2812 42.7187C25.8372 39.2747 22.8354 35.7668 20.3995 32.4312ZM46.6172 47.97C43.291 47.2808 38.0773 43.8898 33.0938 38.9063C28.1102 33.9227 24.7192 28.709 24.03 25.3828C26.961 22.0808 31.2375 20 36 20C44.8366 20 52 27.1634 52 36C52 40.7625 49.9192 45.039 46.6172 47.97Z" clip-rule="evenodd"/>
  </g>
  <g id="color">
    <circle cx="36" cy="36" r="20" fill="#D22F27" stroke="#D22F27" stroke-width="2"/>
    <path fill="#D22F27" fill-rule="evenodd" d="M58.8803 58.8804C54.9314 62.8293 41.4863 55.7866 28.8498 43.1501C16.2133 30.5136 9.17066 17.0685 13.1196 13.1196C14.9676 11.2716 18.8953 11.8308 23.8466 14.244C27.2521 15.9038 31.1594 16.2245 34.9427 16.0275C35.2928 16.0092 35.6453 16 36 16C47.0457 16 56 24.9543 56 36C56 36.3547 55.9907 36.7071 55.9725 37.0573C55.7755 40.8406 56.0962 44.7479 57.756 48.1534C60.1692 53.1047 60.7284 57.0324 58.8803 58.8804Z" clip-rule="evenodd"/>
    <path fill="#000" d="M36 51C44.2843 51 51 44.2843 51 36C51 27.7157 44.2843 21 36 21C27.7157 21 21 27.7157 21 36C21 44.2843 27.7157 51 36 51Z"/>
    <path fill="#D22F27" fill-rule="evenodd" d="M18.2033 14.039C17.8383 13.674 17.3446 13.4482 16.831 13.5002C15.8638 13.5982 15.0748 13.9251 14.4999 14.5C10.7893 18.2107 17.4071 30.8446 29.2812 42.7187C41.1553 54.5929 53.7893 61.2106 57.4999 57.5C58.0748 56.9251 58.4017 56.1361 58.4997 55.1689C58.5517 54.6554 58.3259 54.1616 57.9609 53.7966L51.311 47.1467C50.8469 46.6826 49.9641 47.0359 49.5 47.5C47.3426 49.6574 39.9973 45.8098 33.0937 38.9063C26.1902 32.0027 22.3426 24.6574 24.5 22.5C24.9641 22.0359 25.3174 21.1531 24.8533 20.689L18.2033 14.039Z" clip-rule="evenodd"/>
    <path fill="#E27022" stroke="#D22F27" stroke-width="0.5" d="M14.7106 14.7106C14.9403 14.4809 15.5521 14.1456 17.0625 14.3192C18.5424 14.4892 20.5038 15.1178 22.8608 16.2666C26.7596 18.1668 31.1082 18.4802 35.0598 18.2744C35.3709 18.2582 35.6844 18.25 36 18.25C45.803 18.25 53.75 26.197 53.75 36C53.75 36.3156 53.7418 36.6291 53.7256 36.9402C53.5197 40.8918 53.8332 45.2404 55.7334 49.1392C56.8822 51.4962 57.5108 53.4575 57.6808 54.9374C57.8543 56.4478 57.5191 57.0597 57.2894 57.2894C57.0431 57.5357 56.3535 57.8988 54.6333 57.6405C52.9655 57.3899 50.7707 56.6055 48.167 55.2417C42.9844 52.527 36.6439 47.7622 30.4408 41.5591C24.2377 35.356 19.473 29.0155 16.7583 23.833C15.3944 21.2293 14.61 19.0345 14.3595 17.3666C14.1012 15.6465 14.4643 14.9569 14.7106 14.7106Z"/>
    <path fill="#000" fill-rule="evenodd" d="M33.0937 38.9063C37.2046 43.0171 41.4721 46.0444 44.7075 47.3654C45.877 47.8428 47.1985 47.4969 48.0316 46.5473C50.5022 43.7313 52 40.0406 52 36C52 27.1634 44.8365 20 36 20C31.9594 20 28.2687 21.4978 25.4526 23.9684C24.5031 24.8015 24.1571 26.123 24.6346 27.2925C25.9556 30.5279 28.9829 34.7954 33.0937 38.9063Z" clip-rule="evenodd"/>
  </g>
  <g id="line">
    <path fill="#000" d="M28.8498 43.1501L28.1427 43.8572H28.1427L28.8498 43.1501ZM58.8803 58.8804L58.1732 58.1733L58.8803 58.8804ZM57.756 48.1534L58.6549 47.7153L57.756 48.1534ZM28.1427 43.8572C34.5121 50.2267 41.1125 55.2153 46.6589 58.1206C49.4266 59.5704 51.9839 60.529 54.1506 60.8544C56.2933 61.1762 58.2705 60.9044 59.5875 59.5875L58.1732 58.1733C57.5157 58.8308 56.3315 59.1595 54.4477 58.8766C52.5879 58.5973 50.2537 57.7458 47.5869 56.349C42.2645 53.561 35.824 48.7101 29.5569 42.443L28.1427 43.8572ZM12.4125 12.4125C11.0955 13.7294 10.8237 15.7067 11.1456 17.8493C11.471 20.0161 12.4296 22.5733 13.8793 25.341C16.7846 30.8874 21.7733 37.4878 28.1427 43.8572L29.5569 42.443C23.2899 36.1759 18.439 29.7355 15.651 24.413C14.2541 21.7462 13.4027 19.412 13.1234 17.5523C12.8404 15.6685 13.1691 14.4843 13.8267 13.8267L12.4125 12.4125ZM24.2847 13.3451C21.7563 12.1128 19.4217 11.3188 17.4335 11.0904C15.4595 10.8636 13.6454 11.1796 12.4125 12.4125L13.8267 13.8267C14.4418 13.2116 15.5155 12.8832 17.2052 13.0773C18.8806 13.2698 20.9855 13.962 23.4085 15.1429L24.2847 13.3451ZM36 15C35.628 15 35.2581 15.0097 34.8907 15.0288L34.9947 17.0261C35.3275 17.0088 35.6627 17 36 17V15ZM57 36C57 24.402 47.598 15 36 15V17C46.4934 17 55 25.5066 55 36H57ZM56.9712 37.1093C56.9903 36.7418 57 36.372 57 36H55C55 36.3373 54.9912 36.6724 54.9739 37.0052L56.9712 37.1093ZM59.5875 59.5875C60.8204 58.3546 61.1363 56.5405 60.9096 54.5665C60.6812 52.5782 59.8872 50.2436 58.6549 47.7153L56.8571 48.5915C58.038 51.0145 58.7302 53.1193 58.9226 54.7948C59.1168 56.4845 58.7883 57.5582 58.1732 58.1733L59.5875 59.5875ZM54.9739 37.0052C54.7729 40.8634 55.0904 44.9668 56.8571 48.5915L58.6549 47.7153C57.1019 44.529 56.778 40.8178 56.9712 37.1093L54.9739 37.0052ZM23.4085 15.1429C27.0332 16.9096 31.1366 17.2271 34.9947 17.0261L34.8907 15.0288C31.1821 15.222 27.471 14.898 24.2847 13.3451L23.4085 15.1429Z"/>
    <path fill="none" stroke="#000" stroke-linecap="round" stroke-width="2" d="M16.2235 33C16.0763 33.9786 16 34.9804 16 36C16 47.0457 24.9543 56 36 56C37.194 56 38.3635 55.8954 39.5 55.6948"/>
  </g>
  <g id="color-foreground">
    <path fill="none" stroke="#E27022" stroke-linecap="round" stroke-miterlimit="10" stroke-width="2" d="M36 52C27.1634 52 20 44.8366 20 36"/>
  </g>
</svg>
