<svg id="emoji" viewBox="0 0 72 72" xmlns="http://www.w3.org/2000/svg">
  <g id="line-supplement">
    <polyline fill="none" stroke="#000" stroke-linecap="round" stroke-linejoin="round" stroke-width="2" points="27 31 30 30 32 32 35 30 37 31 39 30 41 32 42 31"/>
  </g>
  <g id="color">
    <path fill="#fff" d="m21.38,27.63c1.636.3771,3.012.9482,4.016,1.579-2.246.6314-3.65,13.32-10.57,17.69-4.659-2.517-7.075-9.495-4.782-13.8,2.43-8.036,10.83-5.355,11.33-5.47l.006.001Z"/>
    <path fill="#fff" d="m58.01,33.3c.6023.1205,3.002-.2426,4.54.4514,3.639,1.302,4.828,4.206,4.63,8.066.0116,1.955-1.1776,3.2586-2.7239,4.0061-1.3367.6462-2.9024.7483-4.2997.2462-2.1293-.7652-2.1029-2.0711-2.7485-1.7103-5.214,2.913-14.63-7.577-13.72-12.99,4.296-10.07,15.93-1.788,14.32,1.933l.002-.0024Z"/>
    <polyline fill="#3f3f3f" points="16.76 45.06 19.66 34.43 21.59 39.26 27.39 23.8 29.88 26.8 35.31 12.45 38.02 18.01 40.92 27.67 42.85 23.8 45.75 36.36 48.64 29.6 51.54 45.06"/>
    <polygon fill="#fff" points="44.05 29 40.92 30.57 38.02 29.6 36.08 28.63 32.22 30.57 30.29 28.63 27.39 29.6 26.15 27.12 27.39 23.8 29.88 26.8 35.31 12.45 38.02 18.01 40.92 27.67 42.85 23.8 44.05 29"/>
    <path fill="#fff" d="m38.56,40.49l3.219-1.266s3.964-.9326,6.863.0335c3.639,1.302,5.994,4.835,5.797,8.695.0168,2.845-.5285,6.481-2.412,8.613-2.843,2.528-5.311,2.812-8.038,2.936-1.547.1219-3.918-.1353-4.749-1.446l-1.522-2.154c-1.403,1.932-4.082,3.492-6.465,3.644-2.281,0-4.895-.4741-6.263-2.299l-2.016-2.255c-.7258,1.109-1.992,1.741-3.314,1.655-1.932,0-5.797-.9661-5.797-5.797-.1959-3.445,2.529-7.396,5.963-7.729l3.057.1666c-.6255-2.6,2.355-6.929,7.403-6.929,2.325.0004,6.707.8947,8.274,4.131v.0009Z"/>
  </g>
  <g id="line">
    <path fill="none" stroke="#000" stroke-linecap="round" stroke-linejoin="round" stroke-width="2" d="m61.2,34.43c3.4343.3331,5.9929,3.3182,5.797,6.763,0,4.83-3.864,5.797-5.797,5.797-1.9454.1886-3.6754-1.2356-3.864-3.181-.022-.2271-.022-.4559,0-.683"/>
    <path fill="none" stroke="#000" stroke-linecap="round" stroke-linejoin="round" stroke-width="2" d="m21.59,28.63s-3.864-.9661-6.763,0-4.83,2.898-4.83,7.729c-.0171,2.845,1.0146,5.5966,2.898,7.729"/>
    <polyline fill="none" stroke="#000" stroke-linecap="round" stroke-linejoin="round" stroke-width="2" points="16.76 45.06 19.66 34.43 21.59 39.26 27.39 23.8 29.88 26.8 35.31 12.45 38.02 18.01 40.92 27.67 42.85 23.8 45.75 36.36 48.64 29.6 51 40"/>
    <path fill="none" stroke="#000" stroke-linecap="round" stroke-linejoin="round" stroke-width="2" d="m19.66,44.09c-3.4343.3331-5.9929,3.3182-5.797,6.763,0,4.83,3.864,5.797,5.797,5.797,1.9454.1886,3.6754-1.2356,3.864-3.181.022-.2271.022-.4559,0-.683"/>
    <path fill="none" stroke="#000" stroke-linecap="round" stroke-linejoin="round" stroke-width="2" d="m25.46,56.65c1.3686,1.8245,3.5163,2.8982,5.797,2.898,3.864,0,6.763-3.864,6.763-4.83"/>
    <path fill="none" stroke="#000" stroke-linecap="round" stroke-linejoin="round" stroke-width="2" d="m39.95,57.62c.8305,1.3102,2.3175,2.0537,3.864,1.932,2.5948-.1679,4.6621-2.2352,4.83-4.83"/>
    <path fill="none" stroke="#000" stroke-linecap="round" stroke-linejoin="round" stroke-width="2" d="m23.53,45.06c-1.932-1.932.9661-8.695,6.763-8.695,2.898,0,8.695.9661,8.695,6.763"/>
    <path fill="none" stroke="#000" stroke-linecap="round" stroke-linejoin="round" stroke-width="2" d="m41.88,40.23s3.864-1.932,6.763-.9661c3.6388,1.3022,5.9943,4.8352,5.797,8.695.0171,2.845-1.0146,5.5966-2.898,7.729"/>
    <path fill="none" stroke="#000" stroke-linecap="round" stroke-miterlimit="10" stroke-width="2" d="m57.34,35.4c1.932-1.932-.9661-8.695-6.763-8.695-2.3589-.0768-4.6778.6234-6.6,1.993"/>
  </g>
</svg>
