<svg id="emoji" viewBox="0 0 72 72" xmlns="http://www.w3.org/2000/svg">
  <g id="color">
    <circle cx="35.9867" cy="25.4947" r="10.3805" fill="#fff"/>
    <path fill="#d0cfce" d="m36,65.0208s-3.091-5.9737-13.8722-26.8922c-2.1278-4.1286-4.8172-7.7062-4.8172-12.5241,0-10.3214,8.3671-18.6885,18.6885-18.6885v8.0285s-10.4583.5199-10.4583,10.3971,10.4587,10.7561,10.4587,10.7561l.0005,28.9231Z"/>
    <path fill="#d0cfce" d="m35.9736,65.0172s2.998-6.0172,13.8722-26.8922c2.0634-3.9611,4.8173-7.7062,4.8173-12.5242,0-10.3214-8.3671-18.6885-18.6885-18.6885l-.2836,8.0321s11.1773.2666,11.0085,10.7347c-.1688,10.4681-11.0088,10.4184-11.0088,10.4184l.2829,28.9197Z"/>
    <path fill="#9b9b9a" d="m36.8281,7.5469s9.7494,4.0365,11.8385,15.2865c2.0391,10.9801-9.1666,30.1666-12.1666,39.8333-2.498,8.0491,11.7767-21.3418,16.6239-31.4034,1.1796-2.4485,1.6107-5.1986,1.1483-7.8768-1.0513-6.0888-4.7163-16.0241-17.4441-15.8396Z"/>
  </g>
  <g id="line">
    <circle cx="36.001" cy="25.5211" r="10.5766" fill="none" stroke="#000" stroke-linecap="round" stroke-linejoin="round" stroke-width="2"/>
    <path fill="none" stroke="#000" stroke-linecap="round" stroke-linejoin="round" stroke-width="2" d="m36,65.0208s-3.091-5.9737-13.8722-26.8922c-2.1278-4.1286-4.8172-7.7062-4.8172-12.5241,0-10.3214,8.3671-18.6885,18.6885-18.6885"/>
    <path fill="none" stroke="#000" stroke-linecap="round" stroke-linejoin="round" stroke-width="2" d="m36.002,65.0172s2.998-6.0172,13.8722-26.8922c2.0634-3.9611,4.8173-7.7062,4.8173-12.5242,0-10.3214-8.3671-18.6885-18.6885-18.6885"/>
  </g>
</svg>
