<svg id="emoji" xmlns="http://www.w3.org/2000/svg" viewBox="0 0 72 72">
  <g id="color">
    <path fill="#61B2E4" stroke="none" stroke-width="2" stroke-linecap="round" stroke-linejoin="round" stroke-miterlimit="10" d="M12.0133,16.0194c0,7.5,5,13.75,5,13.75s5-6.25,5-13.75"/>
    <circle fill="#92D3F5" stroke="none" stroke-width="2" stroke-miterlimit="10" cx="17.0133" cy="16.0194" r="5"/>
    <path fill="#D22F27" stroke="none" stroke-width="2" stroke-linecap="round" stroke-linejoin="round" stroke-miterlimit="10" d="M50.0133,44.0194c0,7.5,5,13.75,5,13.75s5-6.25,5-13.75"/>
    <circle fill="#EA5A47" stroke="none" stroke-width="2" stroke-miterlimit="10" cx="55.0133" cy="44.0194" r="5"/>
  </g>
  <g id="hair"/>
  <g id="skin"/>
  <g id="skin-shadow"/>
  <g id="line">
    <path fill="none" stroke="#000000" stroke-width="2" stroke-linecap="round" stroke-linejoin="round" stroke-miterlimit="10" d="M12.0133,16.0194c0,7.5,5,13.75,5,13.75s5-6.25,5-13.75"/>
    <circle fill="none" stroke="#000000" stroke-width="2" stroke-miterlimit="10" cx="17.0133" cy="16.0194" r="5"/>
    <path fill="none" stroke="#000000" stroke-width="2" stroke-linecap="round" stroke-linejoin="round" stroke-miterlimit="10" d="M50.0133,44.0194c0,7.5,5,13.75,5,13.75s5-6.25,5-13.75"/>
    <circle fill="none" stroke="#000000" stroke-width="2" stroke-miterlimit="10" cx="55.0133" cy="44.0194" r="5"/>
    <path fill="none" stroke="#000000" stroke-width="2" stroke-linecap="round" stroke-linejoin="round" stroke-miterlimit="10" d="M17,33c0,0,16,0,17,14s16,14,21,14"/>
    <line fill="none" stroke="#000000" stroke-width="2" stroke-linecap="round" stroke-linejoin="round" stroke-miterlimit="10" x1="31.9713" y1="21.7413" x2="44.0287" y2="32.2587"/>
    <line fill="none" stroke="#000000" stroke-width="2" stroke-linecap="round" stroke-linejoin="round" stroke-miterlimit="10" x1="43.5475" y1="25.2041" x2="44.0287" y2="32.2587"/>
    <line fill="none" stroke="#000000" stroke-width="2" stroke-linecap="round" stroke-linejoin="round" stroke-miterlimit="10" x1="36.9741" y1="32.74" x2="44.0287" y2="32.2587"/>
  </g>
</svg>
