<svg id="emoji" viewBox="0 0 72 72" xmlns="http://www.w3.org/2000/svg">
  <g id="color">
    <path fill="#fcea2b" d="m55.6239,48.0593c0,11.975-7.1616,18.3072-16.2494,18.3906-5.7703.0529-18.4055-.8495-16.6172-31.1527"/>
    <path fill="#fcea2b" d="m48.8393,37.5921c.081-1.9313,1.7123-3.4313,3.6436-3.3502s3.4313,1.7123,3.3502,3.6436"/>
    <path fill="#fcea2b" d="m41.8423,37.3592c.081-1.9313,1.7123-3.4313,3.6436-3.3502s3.4313,1.7123,3.3502,3.6436"/>
    <path fill="#fcea2b" d="m41.8463,37.2253c.155-1.9268,1.8426-3.3631,3.7694-3.2081,1.9268.155,3.3631,1.8426,3.2081,3.7694"/>
    <path fill="#fcea2b" d="m34.8047,36.8809c.1237-1.929,1.7878-3.3925,3.7168-3.2688s3.3925,1.7878,3.2688,3.7168"/>
    <path fill="#fcea2b" d="m23.2915,46.1851c-2.001-4.5612-3.367-5.3685-4.7912-7.1091-1.9507-2.3841-1.4098-4.1029-.5634-4.9205,1.3903-1.3429,5.6942.7837,7.0371,2.1741"/>
    <path fill="#fcea2b" d="m27.8047,14.5086c0-1.933,1.567-3.5,3.5-3.5s3.5,1.567,3.5,3.5"/>
    <line x1="24.8439" x2="22.8859" y1="36.4553" y2="34.2415" fill="none"/>
    <line x1="17.8509" x2="19.6723" y1="39.1045" y2="41.4847" fill="none"/>
    <polygon fill="#fcea2b" points="34.9148 41.9242 27.8523 39.9566 27.8523 14.1742 34.8047 14.1742 34.9148 41.9242"/>
    <rect x="34.9148" y="36.8438" width="20.9214" height="12.2262" fill="#fcea2b"/>
    <polygon fill="#fcea2b" points="27.8047 40.0649 25.1492 39.0701 25.6582 35.8843 27.8224 38.814 27.8047 40.0649"/>
  </g>
  <g id="line">
    <path d="m23.6487,13.4223c0-4.2718,3.463-7.7349,7.7349-7.7349s7.7349,3.463,7.7349,7.7349c0,2.6699-1.3527,5.0239-3.4102,6.4139-.78.527-.412-4.9898-1.8246-7.6565-.8231-1.5539-3.4931-.8244-4.0828-.8244-1.5102,0-1.3365,9.3691-2.5272,8.6208-2.1776-1.3684-3.625-3.7921-3.625-6.5538Z"/>
    <path fill="none" stroke="#000" stroke-linecap="round" stroke-linejoin="round" stroke-width="2" d="m55.8163,50.7743c0,9.0883-7.3675,16.4558-16.4558,16.4558s-16.4558-7.3675-16.4558-16.4558"/>
    <line x1="55.816" x2="55.8163" y1="50.9508" y2="37.9008" fill="none" stroke="#000" stroke-linecap="round" stroke-linejoin="round" stroke-width="2"/>
    <path fill="none" stroke="#000" stroke-linecap="round" stroke-linejoin="round" stroke-width="2" d="m48.824,37.6074c.081-1.9313,1.7123-3.4313,3.6436-3.3502s3.4313,1.7123,3.3502,3.6436"/>
    <path fill="none" stroke="#000" stroke-linecap="round" stroke-linejoin="round" stroke-width="2" d="m41.827,37.3745c.081-1.9313,1.7123-3.4313,3.6436-3.3502s3.4313,1.7123,3.3502,3.6436"/>
    <path fill="none" stroke="#000" stroke-linecap="round" stroke-linejoin="round" stroke-width="2" d="m41.8311,37.2406c.155-1.9268,1.8426-3.3631,3.7694-3.2081s3.3631,1.8426,3.2081,3.7694"/>
    <path fill="none" stroke="#000" stroke-linecap="round" stroke-linejoin="round" stroke-width="2" d="m34.7895,36.8962c.1237-1.929,1.7878-3.3925,3.7168-3.2688s3.3925,1.7878,3.2688,3.7168"/>
    <path fill="none" stroke="#000" stroke-linecap="round" stroke-linejoin="round" stroke-width="2" d="m17.8357,39.1198c-1.3429-1.3904-1.3044-3.6061.086-4.949s3.6061-1.3044,4.949.086"/>
    <path fill="none" stroke="#000" stroke-linecap="round" stroke-linejoin="round" stroke-width="2" d="m27.7895,14.5239c0-1.933,1.567-3.5,3.5-3.5s3.5,1.567,3.5,3.5"/>
    <line x1="34.7895" x2="34.7895" y1="36.8591" y2="14.5239" fill="none" stroke="#000" stroke-linecap="round" stroke-linejoin="round" stroke-width="2"/>
    <line x1="27.7895" x2="27.7895" y1="14.5239" y2="42.3145" fill="none" stroke="#000" stroke-linecap="round" stroke-linejoin="round" stroke-width="2"/>
    <line x1="24.8286" x2="22.8706" y1="36.4705" y2="34.2568" fill="none" stroke="#000" stroke-linecap="round" stroke-linejoin="round" stroke-width="2"/>
    <path fill="none" stroke="#000" stroke-linecap="round" stroke-linejoin="round" stroke-width="2" d="m19.6034,41.4395c1.9526,2.1439,3.3734,5.1677,3.3013,9.5218"/>
    <line x1="17.8357" x2="19.6571" y1="39.1198" y2="41.5" fill="none" stroke="#000" stroke-linecap="round" stroke-linejoin="round" stroke-width="2"/>
  </g>
</svg>
