<svg id="emoji" viewBox="0 0 72 72" xmlns="http://www.w3.org/2000/svg">
  <g id="color">
    <path fill="#d0cfce" d="m27,36v2.2921c0,1.7338.6888,3.3966,1.9147,4.6226h0c1.3352,1.3352,3.146,2.0853,5.0342,2.0853h26.3443c1.1274,0,2.2445-.2151,3.2913-.6339h0c2.1449-.8579,3.7472-2.6937,4.3075-4.9348h0c.0716-.2865.1078-.5807.1078-.876v-4.923c0-1.0735-.2499-2.1322-.73-3.0924h0c-.8061-1.6122-2.2764-2.7916-4.025-3.2287h0c-.8269-.2067-1.676-.3113-2.5283-.3113h-12.7167v6h11.201c.5255,0,1.0437.1223,1.5137.3573l.3936.1968c.5465.2732.8917.8318.8917,1.4428v2.8924c0,.6807-.3846,1.3029-.9934,1.6073h0c-.662.331-1.3919.5033-2.132.5033h-22.0591c-1.1624,0-2.2772-.4618-3.0992-1.2837l-.4278-.4278c-.1847-.1847-.2885-.4353-.2885-.6965v-1.592h-6Z"/>
    <path fill="#d0cfce" d="m45,36v-2.399c0-1.6654-.6616-3.2626-1.8392-4.4402h0c-1.3832-1.3832-3.2605-2.1584-5.2166-2.154l-26.1185.0581c-.9452,0-2.2765.1155-3.1542.4665l-.8027.3211c-1.8016.7206-3.1476,2.2626-3.6182,4.145h0c-.1664.6658-.2506,1.3495-.2506,2.0358v4.1208c0,1.2139.2826,2.4111.8255,3.4968h0c.7455,1.4909,2.1052,2.5817,3.7224,2.986l.4866.1217c.6413.1603,1.2998.2414,1.9608.2414h13.0048v-6h-10.9844c-.6679,0-1.3266-.1555-1.924-.4542h0c-.669-.3345-1.0916-1.0183-1.0916-1.7663v-2.4324c0-.8256.4665-1.5803,1.2049-1.9496h0c.5229-.2614,1.0994-.3976,1.684-.3976h22.5894c.9743,0,1.9087.387,2.5977,1.076l.3192.3192c.3872.3872.6048.9124.6048,1.46v1.1447h6Z"/>
  </g>
  <g id="line">
    <path fill="none" stroke="#000" stroke-linecap="round" stroke-linejoin="round" stroke-width="2" d="m49.0417,27h12.9583c3.3,0,6,2.7,6,6v6c0,3.3-2.7,6-6,6h-29c-3.3,0-6-2.7-6-6v-2"/>
    <path fill="none" stroke="#000" stroke-linecap="round" stroke-linejoin="round" stroke-width="2" d="m49,33h11.0001c1.1046,0,2,.7374,2,1.647v2.7058c0,.9096-.8954,1.647-2,1.647h-25c-1.1046,0-2-.7374-2-1.647v-.3737"/>
    <path fill="none" stroke="#000" stroke-linecap="round" stroke-linejoin="round" stroke-width="2" d="m22.9882,45h-12.9882c-3.3,0-6-2.7-6-6v-6c0-3.3,2.7-6,6-6h29c3.3,0,6,2.7,6,6v2"/>
    <path fill="none" stroke="#000" stroke-linecap="round" stroke-linejoin="round" stroke-width="2" d="m23,39h-11.0001c-1.1046,0-2-.7374-2-1.647v-2.7059c0-.9096.8954-1.647,2-1.647h25c1.1046,0,2,.7374,2,1.647v.3454"/>
  </g>
</svg>
