<svg id="emoji" viewBox="0 0 72 72" xmlns="http://www.w3.org/2000/svg">
  <g id="color">
    <path fill="#fff" d="m22.87,30.1262c-.01,0-.02-.02-.02-.02-.1817-.1074-.3555-.2277-.52-.36-.01-.01-.02-.01-.03-.02-.8292-.6896-1.4607-1.5868-1.83-2.6-1.0696-2.9444.3071-6.216,3.16-7.51.3625-2.1663,2.4124-3.6285,4.5787-3.266.8289.1387,1.5925.5364,2.1813,1.136.5735-1.1151,1.5439-1.975,2.72-2.41,1.0589-.3814,2.2165-.3884,3.28-.02-.4703-2.707,1.343-5.2827,4.05-5.753,1.1136-.1934,2.2598-.0019,3.25.543.8073-.7838,1.7719-1.3871,2.83-1.77.8554-.3138,1.7589-.4762,2.67-.48.586-.5437,1.2768-.9623,2.03-1.23,3.112-1.1322,6.553.4698,7.69,3.58.06.17.11.34.16.52.1902.0313.3775.0781.56.14,1.1745.3682,2.11,1.263,2.53,2.42.7501,2.0737-.3187,4.3634-2.39,5.12-.9447.3456-1.9857.3169-2.91-.08-1.3271,4.0903-5.656,6.3941-9.79,5.21-.4464,2.7027-2.9992,4.5319-5.7019,4.0855-1.1776-.1945-2.2457-.8071-3.0081-1.7255-1.2719,2.4148-4.2605,3.3412-6.6752,2.0694-.0487-.0257-.097-.0521-.1448-.0794-.4545.9759-1.1668,1.8091-2.06,2.41"/>
    <path fill="#fff" d="m22.87,30.1262c-.01,0-.02-.02-.02-.02-.1817-.1074-.3555-.2277-.52-.36-.01-.01-.02-.01-.03-.02-.8292-.6896-1.4607-1.5868-1.83-2.6-1.0696-2.9444.3071-6.216,3.16-7.51.3625-2.1663,2.4124-3.6285,4.5787-3.266.8289.1387,1.5925.5364,2.1813,1.136.5735-1.1151,1.5439-1.975,2.72-2.41,1.0589-.3814,2.2165-.3884,3.28-.02-.4703-2.707,1.343-5.2827,4.05-5.753,1.1136-.1934,2.2598-.0019,3.25.543.8073-.7838,1.7719-1.3871,2.83-1.77.8554-.3138,1.7589-.4762,2.67-.48.586-.5437,1.2768-.9623,2.03-1.23,3.112-1.1322,6.553.4698,7.69,3.58.06.17.11.34.16.52.1902.0313.3775.0781.56.14,1.1745.3682,2.11,1.263,2.53,2.42.7501,2.0737-.3187,4.3634-2.39,5.12-.9447.3456-1.9857.3169-2.91-.08-1.3271,4.0903-5.656,6.3941-9.79,5.21-.4464,2.7027-2.9992,4.5319-5.7019,4.0855-1.1776-.1945-2.2457-.8071-3.0081-1.7255-1.2719,2.4148-4.2605,3.3412-6.6752,2.0694-.0487-.0257-.097-.0521-.1448-.0794-.4545.9759-1.1668,1.8091-2.06,2.41"/>
    <rect x="51" y="27" width="6" height="39" fill="#fff"/>
    <path fill="#9b9b9a" d="m47,47.2622c-3.0158-.7946-6.2176.2485-8.1866,2.667-1.1117-7.2961-1.1712-15.1315.3836-19.9292h-6.197v36h14v-18.7378Z"/>
    <path fill="#d0cfce" d="m33,66V30h-17c3,9.2571,0,29.8286-5,36h22Z"/>
    <path fill="#3f3f3f" d="m47,47.2622v18.7378h6v-11c-.0023-3.6454-2.47-6.8278-6-7.7378Z"/>
    <rect x="51" y="31" width="6" height="4" fill="#ea5a47"/>
  </g>
  <g id="line">
    <path fill="none" stroke="#000" stroke-linecap="round" stroke-linejoin="round" stroke-width="2" d="m22.87,30c-.01,0-.02-.02-.02-.02-.1817-.1074-.3555-.2277-.52-.36-.01-.01-.02-.01-.03-.02-.8292-.6896-1.4607-1.5868-1.83-2.6-1.0696-2.9444.3071-6.216,3.16-7.51.3625-2.1663,2.4124-3.6285,4.5787-3.266.8289.1387,1.5925.5364,2.1813,1.136.5735-1.1151,1.5439-1.975,2.72-2.41,1.0589-.3814,2.2165-.3884,3.28-.02-.4703-2.707,1.343-5.2827,4.05-5.753,1.1136-.1934,2.2598-.0019,3.25.543.8073-.7838,1.7719-1.3871,2.83-1.77.8554-.3138,1.7589-.4762,2.67-.48.586-.5437,1.2768-.9623,2.03-1.23,3.112-1.1322,6.553.4698,7.69,3.58.06.17.11.34.16.52.1902.0313.3775.0781.56.14,1.1745.3682,2.11,1.263,2.53,2.42.7501,2.0737-.3187,4.3634-2.39,5.12-.9447.3456-1.9857.3169-2.91-.08-1.3271,4.0903-5.656,6.3941-9.79,5.21-.4464,2.7027-2.9992,4.5319-5.7019,4.0855-1.1776-.1945-2.2457-.8071-3.0081-1.7255-1.2719,2.4148-4.2605,3.3412-6.6752,2.0694-.0487-.0257-.097-.0521-.1448-.0794-.4545.9759-1.1668,1.8091-2.06,2.41"/>
    <path fill="none" stroke="#000" stroke-linecap="round" stroke-linejoin="round" stroke-width="2" d="m44.1969,66c-5-6.1714-8-26.7429-5-36h-23.1969c3,9.2571,0,29.8286-5,36h33.1969Z"/>
    <polyline fill="none" stroke="#000" stroke-linecap="round" stroke-linejoin="round" stroke-width="2" points="53 66 57 66 57 27 51 27 51 49.721"/>
    <path fill="none" stroke="#000" stroke-linecap="round" stroke-linejoin="round" stroke-width="2" d="m44.197,66h8.803v-11c.0004-4.4179-3.5807-7.9996-7.9986-8-2.3974-.0002-4.6685,1.0749-6.188,2.9292"/>
  </g>
</svg>
