<svg id="emoji" viewBox="0 0 72 72" version="1.1" xmlns="http://www.w3.org/2000/svg">
  <g id="color">
    <path fill="#92d3f5" stroke-width="1.553" d="m53.87 20.06h-35.74l-2.692 4.478c-0.8037 1.337-1.228 2.867-1.228 4.427v25.94c1.55e-4 2.84 2.302 5.142 5.143 5.142h33.3c2.84 0 5.142-2.302 5.143-5.142v-25.94c0-1.56-0.4247-3.09-1.228-4.427z"/>
    <rect x="18.16" y="11.95" width="35.64" height="7.917" fill="#d0cfce" stroke-width="1.553"/>
    <polygon transform="translate(-19.92 -19.92) scale(1.553)" fill="#D22F27" points="37.97 45.01 37.97 40.28 42.7 40.28 42.7 36.95 37.97 36.95 37.97 32.22 34.64 32.22 34.64 36.95 29.91 36.95 29.91 40.28 34.64 40.28 34.64 45.01"/>
    <polygon transform="translate(-19.92 -19.92) scale(1.553)" fill="none" stroke="#000" stroke-linecap="round" stroke-linejoin="round" stroke-width="0.9998" points="34.64 32.22 34.64 36.95 29.91 36.95 29.91 40.28 34.64 40.28 34.64 45.01 37.97 45.01 37.97 40.28 42.7 40.28 42.7 36.95 37.97 36.95 37.97 32.22"/>
  </g>
  <g id="line">
    <path fill="none" stroke="#000" stroke-linecap="round" stroke-linejoin="round" stroke-width="1.766" d="m53.9 20.04h-35.8l-2.696 4.485c-0.805 1.339-1.23 2.872-1.23 4.434v25.98c1.55e-4 2.845 2.306 5.151 5.151 5.151h33.35c2.845 0 5.151-2.306 5.151-5.151v-25.98c0-1.562-0.4254-3.095-1.23-4.434z"/>
    <rect x="18.14" y="11.91" width="35.7" height="7.929" fill="none" stroke="#000" stroke-linecap="round" stroke-linejoin="round" stroke-width="1.766"/>
    <line x1="24.06" x2="24.06" y1="11.91" y2="19.84" fill="none" stroke="#000" stroke-linecap="round" stroke-linejoin="round" stroke-width="1.766"/>
    <line x1="30.03" x2="30.03" y1="11.91" y2="19.84" fill="none" stroke="#000" stroke-linecap="round" stroke-linejoin="round" stroke-width="1.766"/>
    <line x1="36" x2="36" y1="11.91" y2="19.84" fill="none" stroke="#000" stroke-linecap="round" stroke-linejoin="round" stroke-width="1.766"/>
    <line x1="41.97" x2="41.97" y1="11.91" y2="19.84" fill="none" stroke="#000" stroke-linecap="round" stroke-linejoin="round" stroke-width="1.766"/>
    <line x1="47.94" x2="47.94" y1="11.91" y2="19.84" fill="none" stroke="#000" stroke-linecap="round" stroke-linejoin="round" stroke-width="1.766"/>
  </g>
</svg>
