<?xml version="1.0" encoding="utf-8"?>
<!-- Generator: Adobe Illustrator 21.1.0, SVG Export Plug-In . SVG Version: 6.00 Build 0)  -->
<svg version="1.1" id="emoji" xmlns="http://www.w3.org/2000/svg" xmlns:xlink="http://www.w3.org/1999/xlink" x="0px" y="0px"
	 viewBox="0 0 72 72" enable-background="new 0 0 72 72" xml:space="preserve">
<g id="_xDB80__xDC0A__1_">
	<rect x="12.9" y="16.6" fill="#FFFFFF" width="42.5" height="42.2"/>
	<polygon fill="#F4AA41" points="32.8,39.4 37.5,37.6 34.6,34.7 	"/>
	
		<rect x="44.8" y="9" transform="matrix(0.7071 0.7071 -0.7071 0.7071 31.291 -26.3861)" fill="#A57939" width="5.4" height="31.1"/>
	<g>
		<path fill="none" stroke="#010103" stroke-width="2" stroke-linecap="round" stroke-linejoin="round" stroke-miterlimit="10" d="
			M54.6,28.1v30.7c0,0.5-0.5,1-1,1H13.2c-0.6,0-1-0.5-1-1V18.4c0-0.6,0.4-1,1-1h31"/>
	</g>
	<path fill="none" stroke="#010103" stroke-width="2" stroke-linecap="round" stroke-linejoin="round" stroke-miterlimit="10" d="
		M38.1,37.7l21.5-21.5c0.4-0.4,0.4-1,0-1.4l-2.3-2.3c-0.4-0.4-1-0.4-1.4,0L34.3,34l-2.6,6.4L38.1,37.7L34.3,34"/>
</g>
</svg>
