<?xml version="1.0" encoding="utf-8"?>
<!-- Generator: Adobe Illustrator 21.1.0, SVG Export Plug-In . SVG Version: 6.00 Build 0)  -->
<svg version="1.1" id="emoji" xmlns="http://www.w3.org/2000/svg" xmlns:xlink="http://www.w3.org/1999/xlink" x="0px" y="0px"
	 viewBox="0 0 72 72" enable-background="new 0 0 72 72" xml:space="preserve">
<g id="_xDB80__xDC02_">
	<rect x="12.8" y="24" fill="#D0CFCE" width="35" height="35"/>
	<rect x="24.9" y="12.1" fill="#FFFFFF" width="34.9" height="34.8"/>
	<g>
		<path fill="none" stroke="#010103" stroke-width="2" stroke-linecap="round" stroke-linejoin="round" stroke-miterlimit="10" d="
			M46.8,52v7c0,0.5-0.5,1-1,1h-33c-0.6,0-1-0.5-1-1V26c0-0.6,0.4-1,1-1h7.1"/>
		<path fill="none" stroke="#010103" stroke-width="2" stroke-linecap="round" stroke-linejoin="round" stroke-miterlimit="10" d="
			M58.8,47h-33c-0.5,0-1-0.5-1-1V13c0-0.6,0.4-1,1-1h33c0.5,0,1,0.4,1,1v33C59.8,46.5,59.4,47,58.8,47z"/>
	</g>
</g>
</svg>
