<?xml version="1.0" encoding="utf-8"?>
<!-- Generator: Adobe Illustrator 21.1.0, SVG Export Plug-In . SVG Version: 6.00 Build 0)  -->
<svg version="1.1" id="Ebene_3" xmlns="http://www.w3.org/2000/svg" xmlns:xlink="http://www.w3.org/1999/xlink" x="0px" y="0px"
	 viewBox="0 0 72 72" enable-background="new 0 0 72 72" xml:space="preserve">
<g id="_xDB80__xDC08__2_">
	<path fill="#FFFFFF" d="M51.8,17H20.2v37.6c0,4.1,3.3,5.6,7.4,5.6h16.9c4.1,0,7.4-1.6,7.4-5.6V17z"/>
	<g id="_xDB80__xDC08__1_">
		
			<polyline fill="#FFFFFF" stroke="#000000" stroke-width="2" stroke-linecap="round" stroke-linejoin="round" stroke-miterlimit="10" points="
			31,16 31,12 41,12 41,16 		"/>
		<polygon fill="#9A9B99" points="51,37 51,46.5 51,57.6 48.3,60 33,60 		"/>
		<path fill="none" stroke="#000000" stroke-width="2" stroke-linecap="round" stroke-linejoin="round" stroke-miterlimit="10" d="
			M51,25v31c0,2.2-1.8,4-4,4H25c-2.2,0-4-1.8-4-4V25"/>
		
			<rect x="17" y="16" fill="#FFFFFF" stroke="#000000" stroke-width="2" stroke-linecap="round" stroke-linejoin="round" stroke-miterlimit="10" width="38" height="4"/>
		
			<line fill="none" stroke="#000000" stroke-width="2" stroke-linecap="round" stroke-linejoin="round" stroke-miterlimit="10" x1="41" y1="28.2" x2="41" y2="55"/>
		
			<line fill="none" stroke="#000000" stroke-width="2" stroke-linecap="round" stroke-linejoin="round" stroke-miterlimit="10" x1="31" y1="28.2" x2="31" y2="55"/>
	</g>
</g>
</svg>
