<?xml version="1.0" encoding="utf-8"?>
<!-- Generator: Adobe Illustrator 21.1.0, SVG Export Plug-In . SVG Version: 6.00 Build 0)  -->
<svg version="1.1" id="emoji" xmlns="http://www.w3.org/2000/svg" xmlns:xlink="http://www.w3.org/1999/xlink" x="0px" y="0px"
	 viewBox="0 0 72 72" enable-background="new 0 0 72 72" xml:space="preserve">
<g id="_xDB80__xDC05_">
	
		<path fill="#AAADB4" stroke="#1D1D1B" stroke-width="2" stroke-linecap="round" stroke-linejoin="round" stroke-miterlimit="10" d="
		M58.4,30.5c-5.7-5.7-13.5-9.1-22.1-9.1c-8.6,0-16.5,3.5-22.1,9.2l-3.8-3.8C17,20.1,26.2,16,36.3,16c10.1,0,19.2,4.1,25.9,10.7
		L58.4,30.5z"/>
	
		<path fill="#AAADB4" stroke="#1D1D1B" stroke-width="2" stroke-linecap="round" stroke-linejoin="round" stroke-miterlimit="10" d="
		M21.9,38.3c3.7-3.8,8.9-6.1,14.6-6.1c5.6,0,10.7,2.2,14.4,5.9l3.8-3.8c-4.7-4.6-11.1-7.4-18.2-7.4c-7.2,0-13.7,3-18.4,7.7
		L21.9,38.3z"/>
	
		<path fill="#AAADB4" stroke="#1D1D1B" stroke-width="2" stroke-linecap="round" stroke-linejoin="round" stroke-miterlimit="10" d="
		M43.4,45.6c-1.8-1.7-4.2-2.7-6.8-2.7c-2.8,0-5.3,1.2-7.1,3L25.7,42c2.8-2.8,6.6-4.6,10.9-4.6c4.1,0,7.9,1.7,10.6,4.3L43.4,45.6z"/>
	
		<circle fill="#AAADB4" stroke="#1D1D1B" stroke-width="2" stroke-linecap="round" stroke-linejoin="round" stroke-miterlimit="10" cx="36.3" cy="52.6" r="2.7"/>
</g>
</svg>
