<svg id="emoji" xmlns="http://www.w3.org/2000/svg" viewBox="0 0 72 72">
  
  <g id="color">
    <ellipse fill="#FFFFFF" cx="36" cy="36" rx="6" ry="17" stroke="none"></ellipse>
    <path fill="#9b9b9a" d="M32.6453,50.0967C33.6029,51.9297,34.7574,53,36,53c3.3137,0,6-7.6112,6-17
		c0-4.5959-0.6437-8.7658-1.6895-11.8255" stroke="none"></path>
    <path fill="#D0CFCE" d="M40.3105,24.1745C39.2198,20.9835,37.6916,19,36,19c-3.3137,0-6,7.6112-6,17
		c0,5.868,1.0493,11.0416,2.6453,14.0967" stroke="none"></path>
    <circle fill="#FFFFFF" stroke="none" stroke-width="2" stroke-linecap="round" stroke-linejoin="round" stroke-miterlimit="10" cx="56" cy="56" r="10"></circle>
    <line fill="none" stroke="#9b9b9a" stroke-width="2" stroke-linecap="round" stroke-linejoin="round" stroke-miterlimit="10" x1="60.375" y1="51.625" x2="51.625" y2="60.375"></line>
    <circle fill="#FFFFFF" stroke="none" stroke-width="2" stroke-linecap="round" stroke-linejoin="round" stroke-miterlimit="10" cx="16" cy="56" r="10"></circle>
    <line fill="none" stroke="#9b9b9a" stroke-width="2" stroke-linecap="round" stroke-linejoin="round" stroke-miterlimit="10" x1="11.625" y1="51.625" x2="20.375" y2="60.375"></line>
    <circle fill="#FFFFFF" stroke="none" stroke-width="2" stroke-linecap="round" stroke-linejoin="round" stroke-miterlimit="10" cx="16" cy="16" r="10"></circle>
    <line fill="none" stroke="#9b9b9a" stroke-width="2" stroke-linecap="round" stroke-linejoin="round" stroke-miterlimit="10" x1="11.625" y1="20.375" x2="20.375" y2="11.625"></line>
    <circle fill="#FFFFFF" stroke="none" stroke-width="2" stroke-linecap="round" stroke-linejoin="round" stroke-miterlimit="10" cx="56" cy="16" r="10"></circle>
    <line fill="none" stroke="#9b9b9a" stroke-width="2" stroke-linecap="round" stroke-linejoin="round" stroke-miterlimit="10" x1="60.375" y1="20.375" x2="51.625" y2="11.625"></line>
  </g>
  <g id="hair">
  </g>
  <g id="skin">
  </g>
  <g id="skin-shadow">
  </g>
  <g id="line">
    <ellipse fill="none" stroke="#000000" stroke-width="2" stroke-linecap="round" stroke-linejoin="round" stroke-miterlimit="10" cx="36" cy="36" rx="6" ry="17"></ellipse>
    <circle fill="none" stroke="#000000" stroke-width="2" stroke-linecap="round" stroke-linejoin="round" stroke-miterlimit="10" cx="56" cy="56" r="10"></circle>
    <line fill="none" stroke="#000000" stroke-width="2" stroke-linecap="round" stroke-linejoin="round" stroke-miterlimit="10" x1="42" y1="42" x2="48.9291" y2="48.9291"></line>
    <circle fill="none" stroke="#000000" stroke-width="2" stroke-linecap="round" stroke-linejoin="round" stroke-miterlimit="10" cx="16" cy="56" r="10"></circle>
    <line fill="none" stroke="#000000" stroke-width="2" stroke-linecap="round" stroke-linejoin="round" stroke-miterlimit="10" x1="30" y1="42" x2="23.0709" y2="48.9291"></line>
    <circle fill="none" stroke="#000000" stroke-width="2" stroke-linecap="round" stroke-linejoin="round" stroke-miterlimit="10" cx="16" cy="16" r="10"></circle>
    <line fill="none" stroke="#000000" stroke-width="2" stroke-linecap="round" stroke-linejoin="round" stroke-miterlimit="10" x1="30" y1="30" x2="23.0703" y2="23.0703"></line>
    <circle fill="none" stroke="#000000" stroke-width="2" stroke-linecap="round" stroke-linejoin="round" stroke-miterlimit="10" cx="56" cy="16" r="10"></circle>
    <line fill="none" stroke="#000000" stroke-width="2" stroke-linecap="round" stroke-linejoin="round" stroke-miterlimit="10" x1="42" y1="30" x2="48.929" y2="23.071"></line>
  </g>
</svg>