<svg id="emoji" xmlns="http://www.w3.org/2000/svg" viewBox="0 0 72 72">
  
  <g id="color">
    <rect x="4" y="24" fill="#FFFFFF" width="64" height="24" stroke="none"></rect>
    <polygon fill="#D0CFCE" points="59,24 68,24 68,48 32,48 		" stroke="none"></polygon>
    <path fill="#3F3F3F" d="M41,44H9c-0.5523,0-1-0.4477-1-1V29c0-0.5523,0.4477-1,1-1h32c0.5523,0,1,0.4477,1,1v14
			C42,43.5523,41.5523,44,41,44z" stroke="none"></path>
    <path fill="#3F3F3F" d="M63,44h-8c-0.5523,0-1-0.4477-1-1V29c0-0.5523,0.4477-1,1-1h8c0.5523,0,1,0.4477,1,1v14
			C64,43.5523,63.5523,44,63,44z" stroke="none"></path>
    <path fill="#3F3F3F" d="M49.3333,40.3329v-0.666c0-0.5525-0.4479-1.0004-1.0004-1.0004h-0.6659
			c-0.5525,0-1.0004,0.4479-1.0004,1.0004v0.666c0,0.5525-0.4479,1.0004-1.0004,1.0004h-0.666
			c-0.5525,0-1.0004,0.4479-1.0004,1.0004v0.666C44,43.5521,44.4479,44,45.0004,44h1.6663h2.6666h1.6663
			C51.5521,44,52,43.5521,52,42.9996v-0.666c0-0.5525-0.4479-1.0004-1.0004-1.0004h-0.666
			C49.7812,41.3333,49.3333,40.8854,49.3333,40.3329z" stroke="none"></path>
    <path fill="#3F3F3F" d="M51,34h-6c-0.5523,0-1-0.4477-1-1v-4c0-0.5523,0.4477-1,1-1h6c0.5523,0,1,0.4477,1,1v4
			C52,33.5523,51.5523,34,51,34z" stroke="none"></path>
  </g>
  <g id="hair">
  </g>
  <g id="skin">
  </g>
  <g id="skin-shadow">
  </g>
  <g id="line">
    <rect x="4" y="24" fill="none" stroke="#000000" stroke-width="2" stroke-linecap="round" stroke-linejoin="round" stroke-miterlimit="10" width="64" height="24"></rect>
  </g>
</svg>