<?xml version="1.0" encoding="utf-8"?>
<!-- Generator: Adobe Illustrator 21.1.0, SVG Export Plug-In . SVG Version: 6.00 Build 0)  -->
<svg version="1.1" id="emoji" xmlns="http://www.w3.org/2000/svg" xmlns:xlink="http://www.w3.org/1999/xlink" x="0px" y="0px"
	 viewBox="0 0 72 72" enable-background="new 0 0 72 72" xml:space="preserve">
<g id="_xDB80__xDC13_">
	
		<path fill="#AAADB4" stroke="#1D1D1B" stroke-width="2" stroke-linecap="round" stroke-linejoin="round" stroke-miterlimit="10" d="
		M38.5,12.8c0,0-4.4,2.9-12.3,12.2c0,0-4.4,4.2-9.4,8.4c-5.1,4.2-5.1,10.8-3.1,15.8c2.1,4.9,8.1,10.6,15.9,10.9s10.1-6.4,17.4-12.5
		s19.2-14.3,14.1-23.6S46.9,7.3,38.5,12.8z"/>
	<path fill="none" stroke="#1D1D1B" stroke-width="2" stroke-linecap="round" stroke-linejoin="round" stroke-miterlimit="10" d="
		M15.5,52.5c0,0,1.7,4.2-1,6.5s-5-1.5-7,2.5"/>
	
		<path fill="#AAADB4" stroke="#1D1D1B" stroke-width="2" stroke-linecap="round" stroke-linejoin="round" stroke-miterlimit="10" d="
		M25.9,25.1"/>
	
		<line fill="none" stroke="#1D1D1B" stroke-width="2" stroke-linecap="round" stroke-linejoin="round" stroke-miterlimit="10" x1="52.8" y1="20.3" x2="55.6" y2="17.6"/>
	
		<path fill="#D5D7DD" stroke="#1D1D1B" stroke-width="2" stroke-linecap="round" stroke-linejoin="round" stroke-miterlimit="10" d="
		M33.3,39.7c0,0,0.8,1.4,2,0.6c1.2-0.8,13.7-9.8,18.1-16.5c0.8-1.3-2.6-3.7-2.6-3.7s-0.9-1-2.9,0.8C45.8,22.8,35.3,33.5,33.2,37
		C31.8,38.5,33.3,39.7,33.3,39.7z"/>
	
		<line fill="none" stroke="#1D1D1B" stroke-width="2" stroke-linecap="round" stroke-linejoin="round" stroke-miterlimit="10" x1="50.1" y1="23.1" x2="47.3" y2="25.8"/>
</g>
</svg>
