<?xml version="1.0" encoding="utf-8"?>
<!-- Generator: Adobe Illustrator 21.1.0, SVG Export Plug-In . SVG Version: 6.00 Build 0)  -->
<svg version="1.1" id="emoji" xmlns="http://www.w3.org/2000/svg" xmlns:xlink="http://www.w3.org/1999/xlink" x="0px" y="0px"
	 viewBox="0 0 72 72" enable-background="new 0 0 72 72" xml:space="preserve">
<g id="_xDB80__xDC1B_">
	<g>
		<path fill="#9B9B9A" d="M36,12.9c-12.7,0-23,10.3-23,23s10.3,23,23,23s23-10.3,23-23S48.7,12.9,36,12.9z M36,50.9
			c-8.3,0-15-6.7-15-15s6.7-15,15-15s15,6.7,15,15S44.3,50.9,36,50.9z"/>
		<rect x="31.5" y="7.7" fill="#9B9B9A" width="9" height="11.2"/>
		<rect x="31.5" y="53.1" fill="#9B9B9A" width="9" height="11.2"/>
		
			<rect x="8.8" y="30.3" transform="matrix(-1.836970e-16 1 -1 -1.836970e-16 49.1756 22.6276)" fill="#9B9B9A" width="9" height="11.2"/>
		
			<rect x="54.2" y="30.3" transform="matrix(-1.836970e-16 1 -1 -1.836970e-16 94.6159 -22.8127)" fill="#9B9B9A" width="9" height="11.2"/>
	</g>
	<g>
		<g>
			<path fill="none" stroke="#000000" stroke-width="2" stroke-linecap="round" stroke-linejoin="round" stroke-miterlimit="10" d="
				M58.9,31.4c-1.8-9.1-9.3-16.5-18.4-18.3"/>
			<path fill="none" stroke="#000000" stroke-width="2" stroke-linecap="round" stroke-linejoin="round" stroke-miterlimit="10" d="
				M40.5,58.8c9.1-1.8,16.6-9.3,18.4-18.4"/>
			<path fill="none" stroke="#000000" stroke-width="2" stroke-linecap="round" stroke-linejoin="round" stroke-miterlimit="10" d="
				M13.1,40.4c1.8,9.1,9.3,16.6,18.4,18.4"/>
			<path fill="none" stroke="#000000" stroke-width="2" stroke-linecap="round" stroke-linejoin="round" stroke-miterlimit="10" d="
				M31.5,13.1c-9.1,1.8-16.6,9.3-18.4,18.3"/>
			
				<circle fill="none" stroke="#000000" stroke-width="2" stroke-linecap="round" stroke-linejoin="round" stroke-miterlimit="10" cx="36" cy="35.9" r="15"/>
		</g>
		<g>
			
				<line fill="none" stroke="#000000" stroke-width="2" stroke-linecap="round" stroke-linejoin="round" stroke-miterlimit="10" x1="31.5" y1="13.1" x2="31.5" y2="8.7"/>
			
				<line fill="none" stroke="#000000" stroke-width="2" stroke-linecap="round" stroke-linejoin="round" stroke-miterlimit="10" x1="40.5" y1="13.1" x2="40.5" y2="8.7"/>
		</g>
		<g>
			
				<line fill="none" stroke="#000000" stroke-width="2" stroke-linecap="round" stroke-linejoin="round" stroke-miterlimit="10" x1="31.5" y1="63.3" x2="31.5" y2="58.8"/>
			
				<line fill="none" stroke="#000000" stroke-width="2" stroke-linecap="round" stroke-linejoin="round" stroke-miterlimit="10" x1="40.5" y1="63.3" x2="40.5" y2="58.8"/>
		</g>
		<g>
			
				<line fill="none" stroke="#000000" stroke-width="2" stroke-linecap="round" stroke-linejoin="round" stroke-miterlimit="10" x1="58.9" y1="31.4" x2="63.3" y2="31.4"/>
			
				<line fill="none" stroke="#000000" stroke-width="2" stroke-linecap="round" stroke-linejoin="round" stroke-miterlimit="10" x1="58.9" y1="40.4" x2="63.3" y2="40.4"/>
		</g>
		<g>
			
				<line fill="none" stroke="#000000" stroke-width="2" stroke-linecap="round" stroke-linejoin="round" stroke-miterlimit="10" x1="8.7" y1="31.4" x2="13.1" y2="31.4"/>
			
				<line fill="none" stroke="#000000" stroke-width="2" stroke-linecap="round" stroke-linejoin="round" stroke-miterlimit="10" x1="8.7" y1="40.4" x2="13.1" y2="40.4"/>
		</g>
	</g>
</g>
</svg>
