<?xml version="1.0" encoding="utf-8"?>
<!-- Generator: Adobe Illustrator 21.1.0, SVG Export Plug-In . SVG Version: 6.00 Build 0)  -->
<svg version="1.1" id="emoji" xmlns="http://www.w3.org/2000/svg" xmlns:xlink="http://www.w3.org/1999/xlink" x="0px" y="0px"
	 viewBox="0 0 72 72" enable-background="new 0 0 72 72" xml:space="preserve">
<g id="_xDB80__xDC24_">
	<circle fill="#FCEA2B" cx="51.9" cy="16.9" r="4"/>
	<path fill="#FCEA2B" d="M52.3,26.2l-3.3,9.4l-1.3,1.8l3.7,6.2l0.9,0.9l1.9,4.3l0.4,16.9c0,0-0.5,3.1-4.3,2.1l-1.5-15.4l-6.5-6.7
		l-6.9,6.3l-13.7,6.8l-1.8-2l6.1-4.5l5.3-3.7l4.1-6.4l4.6-10l4.7-9l3.7-1l2.8,2.1L52.3,26.2z"/>
	<g>
		<path fill="none" stroke="#000000" stroke-width="2" stroke-linecap="round" stroke-linejoin="round" stroke-miterlimit="10" d="
			M51.6,13.9c-1.5,0.2-2.7,1.4-2.7,3c0,1.5,1.1,2.8,2.6,3"/>
		<g>
			<path fill="none" stroke="#000000" stroke-width="2" stroke-linecap="round" stroke-linejoin="round" stroke-miterlimit="10" d="
				M50.7,66.8l-1.6-13c-0.1-1.1-0.9-2.6-1.7-3.4l-3.2-3.2c-0.8-0.8-2.1-2-3-2.7l-2.9-2.4c-0.8-0.7-1.5-2.2-1.5-3.3l0,0
				c0-1.1,0.4-2.8,1-3.8l5-9.2"/>
		</g>
		<g>
			<path fill="none" stroke="#000000" stroke-width="2" stroke-linecap="round" stroke-linejoin="round" stroke-miterlimit="10" d="
				M48,35.2c0,0-0.3,0.6-0.6,1.3c-0.3,0.7-0.1,2.1,0.5,3l3.4,5.4"/>
		</g>
		<g>
			<path fill="none" stroke="#000000" stroke-width="2" stroke-linecap="round" stroke-linejoin="round" stroke-miterlimit="10" d="
				M50.9,27.8"/>
		</g>
		<g>
			<path fill="none" stroke="#000000" stroke-width="2" stroke-linecap="round" stroke-linejoin="round" stroke-miterlimit="10" d="
				M36.9,39.8L31,48.2c-0.6,0.9-1.9,2.1-2.9,2.7l-6.7,4c-0.9,0.6-1.5,1.7-1.2,2.5c0.3,0.8,1.3,1.2,2.3,0.7l8.5-3.5
				c1-0.4,2.5-1.4,3.3-2.1l7.5-6.7"/>
		</g>
		<path fill="none" stroke="#000000" stroke-width="2" stroke-linecap="round" stroke-linejoin="round" stroke-miterlimit="10" d="
			M42.9,25.8c2-4,4.4-4.2,6-3.6c1.6,0.6,2.4,2.2,2.4,3.8"/>
		<g>
			
				<line fill="none" stroke="#000000" stroke-width="2" stroke-linecap="round" stroke-linejoin="round" stroke-miterlimit="10" x1="47.8" y1="26.9" x2="51.4" y2="32.4"/>
		</g>
	</g>
	<path fill="#FFFFFF" d="M52,32.5"/>
	
		<line fill="none" stroke="#000000" stroke-width="2" stroke-linecap="round" stroke-linejoin="round" stroke-miterlimit="10" x1="55" y1="4.9" x2="55" y2="66.8"/>
	<g>
		
			<line fill="none" stroke="#000000" stroke-width="2" stroke-linecap="round" stroke-linejoin="round" stroke-miterlimit="10" x1="14.2" y1="20.9" x2="33.6" y2="20.9"/>
		
			<line fill="none" stroke="#000000" stroke-width="2" stroke-linecap="round" stroke-linejoin="round" stroke-miterlimit="10" x1="29.1" y1="16.1" x2="33.9" y2="20.9"/>
		
			<line fill="none" stroke="#000000" stroke-width="2" stroke-linecap="round" stroke-linejoin="round" stroke-miterlimit="10" x1="29.1" y1="25.7" x2="33.9" y2="20.9"/>
	</g>
</g>
</svg>
