<?xml version="1.0" encoding="utf-8"?>
<!-- Generator: Adobe Illustrator 21.1.0, SVG Export Plug-In . SVG Version: 6.00 Build 0)  -->
<svg version="1.1" xmlns="http://www.w3.org/2000/svg" xmlns:xlink="http://www.w3.org/1999/xlink" x="0px" y="0px"
	 viewBox="0 0 72 72" enable-background="new 0 0 72 72" xml:space="preserve">
<g id="color">
</g>
<g id="emoji">
	<g id="_xDB80__xDC29__1_">
		<circle fill="#FCEA2B" cx="37" cy="8.1" r="3"/>
		<g>
			<path fill="#FCEA2B" d="M33.2,25.2L28.3,67h3.3l6.3-27h2.2l-0.3,12.8L37.4,67h3.3L45,53l1.3-13.1l-0.5-12.8
				c0,0,3.4,15.2,4.7,16.4s2.9,0.5,2.9,0.5L48,21.4l-2.6-5.2l-3.9-1.4l-10.7,2.3l-7,11.8l-6.6,7.7c0,0,0.2,0.8,2.6,0.8
				c1.8-0.1,4.8-4.1,5.4-4.9c1.6-2.1,6.4-11.2,8.1-11.3C33.6,21.1,33.3,24.6,33.2,25.2z"/>
		</g>
		<path fill="#A57939" d="M19.1,39.1c0,0,0.6,1,1,2v3l4.1,6l2.9-2l-2.8-5.9c0,0-0.9-1-1.5-1.3c-1.2-0.5-2-0.5-2-0.5
			c-0.7-0.7-0.8-0.9-1.1-1.3s-0.3-1.1-1-0.5"/>
		<circle fill="none" stroke="#000000" stroke-width="2" stroke-miterlimit="10" cx="37" cy="8.1" r="3"/>
		<g>
			<path fill="none" stroke="#000000" stroke-width="2" stroke-linecap="round" stroke-linejoin="round" stroke-miterlimit="10" d="
				M44,21l2,16.9c0.1,1.1,0.2,2.9,0,4L45.2,51c-0.1,1.1-0.5,2.9-0.8,3.9l-3.1,10.2C41,66.1,40,67,39.1,67c-0.9,0-1.5-0.9-1.3-2
				L39.4,55c0.2-1.1,0.4-2.9,0.4-4l0.2-8.6c0-1.1-0.4-2-1-2c-0.6,0-1.3,0.9-1.6,1.9l-5.4,22.7c-0.3,1.1-1.2,1.9-2.1,1.9
				c-0.9,0-1.5-0.9-1.4-2l5-43"/>
		</g>
		<g>
			<path fill="none" stroke="#000000" stroke-width="2" stroke-linecap="round" stroke-linejoin="round" stroke-miterlimit="10" d="
				M18,36c0,0,0.7-0.5,1.5-1c0.8-0.5,2.6-2.9,4-5.3l4.9-8.4c1.4-2.4,4.3-4.8,6.5-5.3c2.2-0.5,5.8-1,8-1c2.2,0,4.3,2.2,4.7,4.9
				l0.6,4.1c0.4,2.7,1.3,7.1,2.1,9.8L53,43"/>
		</g>
		<path fill="none" stroke="#000000" stroke-width="2" stroke-linecap="round" stroke-linejoin="round" stroke-miterlimit="10" d="
			M19,39c0,0,0.6,1,1,2v3l4.1,6l2.9-2l-3.3-5"/>
	</g>
</g>
</svg>
