<?xml version="1.0" encoding="utf-8"?>
<!-- Generator: Adobe Illustrator 19.1.0, SVG Export Plug-In . SVG Version: 6.00 Build 0)  -->
<svg version="1.1" id="Emoji" xmlns="http://www.w3.org/2000/svg" xmlns:xlink="http://www.w3.org/1999/xlink" x="0px" y="0px"
	 viewBox="0 0 72 72" enable-background="new 0 0 72 72" xml:space="preserve">
<g id="_xDB80__xDC2C__1_">
	<path fill="#61B2E4" d="M64,4H8C5.8,4,4,5.8,4,8v56c0,2.2,1.8,4,4,4h56c2.2,0,4-1.8,4-4V8C68,5.8,66.2,4,64,4z"/>
	<path fill="#FFFFFF" d="M52,23c1,0,6,0,6,0v-9c-4,0-20-4-20,13v6h-8v10h8v25h10V43h9l1-10H48v-6C48,23,51,23,52,23z"/>
</g>
</svg>
