<?xml version="1.0" encoding="utf-8"?>
<!-- Generator: Adobe Illustrator 21.1.0, SVG Export Plug-In . SVG Version: 6.00 Build 0)  -->
<svg version="1.1" id="Emoji" xmlns="http://www.w3.org/2000/svg" xmlns:xlink="http://www.w3.org/1999/xlink" x="0px" y="0px"
	 viewBox="0 0 72 72" enable-background="new 0 0 72 72" xml:space="preserve">
<g id="_xDB80__xDC2C__2_">
	<g id="_xDB80__xDC2C__1_">
		<path fill="#61B2E4" d="M57,12H15c-2.2,0-4,1.8-4,4v42c0,2.2,1.8,4,4,4h42c2.2,0,4-1.8,4-4V16C61,13.8,59.2,12,57,12z"/>
		<path fill="#FFFFFF" d="M48.5,26.8c0.8,0,4.7,0,4.7,0v-7c-3.1,0-15.6-3.1-15.6,10.2v4.7h-6.2v7.8h6.2V63h7.8V42.5h7l0.8-7.8h-7.8
			V30C45.4,26.8,47.7,26.8,48.5,26.8z"/>
	</g>
	<g id="_xDB80__xDC2C_">
		<path fill="none" stroke="#000000" stroke-width="2" stroke-miterlimit="10" d="M45.6,62h12.2c1.8,0,3.2-1.4,3.2-3.2V15.2
			c0-1.8-1.4-3.2-3.2-3.2H14.2c-1.8,0-3.2,1.4-3.2,3.2v43.5c0,1.8,1.4,3.2,3.2,3.2h23.5"/>
		<path fill="none" stroke="#000000" stroke-width="2" stroke-linecap="round" stroke-linejoin="round" stroke-miterlimit="10" d="
			M45.6,62V42.2h7.1l0.8-7.9h-7.9v-4.8c0-3.2,2.4-3.2,3.2-3.2s4.8,0,4.8,0v-7.1c-3.2-0.3-15.8-3.2-15.8,10.3v4.8h-6.3v7.9h6.3V62"/>
	</g>
</g>
</svg>
