<?xml version="1.0" encoding="utf-8"?>
<!-- Generator: Adobe Illustrator 19.1.0, SVG Export Plug-In . SVG Version: 6.00 Build 0)  -->
<svg version="1.1" id="emoji" xmlns="http://www.w3.org/2000/svg" xmlns:xlink="http://www.w3.org/1999/xlink" x="0px" y="0px"
	 viewBox="0 0 72 72" enable-background="new 0 0 72 72" xml:space="preserve">
<g id="_xDB80__xDC33_">
	<g>
		<path fill="#D5D7DD" d="M36,65c0,0-3.1-6-13.9-26.9c-2.1-4.1-4.8-7.7-4.8-12.5c0-10.3,8.4-18.7,18.7-18.7"/>
		<path fill="#D5D7DD" d="M36,65c0,0,3-6,13.9-26.9c2.1-4,4.8-7.7,4.8-12.5c0-10.3-8.4-18.7-18.7-18.7"/>
	</g>
	
		<circle fill="#FFFFFF" stroke="#1D1D1B" stroke-width="2" stroke-linecap="round" stroke-linejoin="round" stroke-miterlimit="10" cx="36" cy="25.5" r="10.6"/>
	<path fill="#AAADB4" d="M36.8,7.5c0,0,9.7,4,11.8,15.3c2,11-9.2,30.2-12.2,39.8S54.7,28,54.7,28S55.2,7.3,36.8,7.5z"/>
	<g>
		<path fill="none" stroke="#1D1D1B" stroke-width="2" stroke-linecap="round" stroke-linejoin="round" stroke-miterlimit="10" d="
			M36,65c0,0-3.1-6-13.9-26.9c-2.1-4.1-4.8-7.7-4.8-12.5c0-10.3,8.4-18.7,18.7-18.7"/>
		<path fill="none" stroke="#1D1D1B" stroke-width="2" stroke-linecap="round" stroke-linejoin="round" stroke-miterlimit="10" d="
			M36,65c0,0,3-6,13.9-26.9c2.1-4,4.8-7.7,4.8-12.5c0-10.3-8.4-18.7-18.7-18.7"/>
	</g>
</g>
</svg>
