<?xml version="1.0" encoding="utf-8"?>
<!-- Generator: Adobe Illustrator 19.1.0, SVG Export Plug-In . SVG Version: 6.00 Build 0)  -->
<svg version="1.1" id="Ebene_3" xmlns="http://www.w3.org/2000/svg" xmlns:xlink="http://www.w3.org/1999/xlink" x="0px" y="0px"
	 viewBox="0 0 72 72" enable-background="new 0 0 72 72" xml:space="preserve">
<g id="_xDB80__xDC4A__1_">
	<path fill="#000100" d="M36,20.8c-0.6,0-1-0.5-1-1v-9.4c0-0.6,0.5-1,1-1c0.6,0,1,0.5,1,1v9.4C37,20.3,36.6,20.8,36,20.8z"/>
	<path fill="#000100" d="M39.8,15.2h-7.6c-0.6,0-1-0.5-1-1c0-0.6,0.5-1,1-1h7.6c0.6,0,1,0.5,1,1C40.9,14.7,40.4,15.2,39.8,15.2z"/>
	<polyline fill="#D0CFCE" points="49,61 49,42 32,61 	"/>
	<polyline fill="#D0CFCE" points="23,48 23,40.3 15.3,48 	"/>
	<polyline fill="#D0CFCE" points="66,59 66,47 56,59 	"/>
	
		<polygon fill="none" stroke="#000000" stroke-width="2" stroke-linecap="round" stroke-linejoin="round" stroke-miterlimit="10" points="
		49,41.7 36,30 23,41.7 23,61 49,61 	"/>
	
		<polyline fill="none" stroke="#000000" stroke-width="2" stroke-linecap="round" stroke-linejoin="round" stroke-miterlimit="10" points="
		23,36.1 15,28.9 7,36.1 7,48 23,48 	"/>
	
		<polyline fill="none" stroke="#000000" stroke-width="2" stroke-linecap="round" stroke-linejoin="round" stroke-miterlimit="10" points="
		49,59 66,59 66,46.4 57.5,38.7 52.9,42.9 	"/>
	
		<polyline fill="none" stroke="#000000" stroke-width="2" stroke-linecap="round" stroke-linejoin="round" stroke-miterlimit="10" points="
		41.6,35 41.6,25.4 36,20 30.4,25.4 30.4,35 	"/>
</g>
</svg>
