<?xml version="1.0" encoding="utf-8"?>
<!-- Generator: Adobe Illustrator 19.1.0, SVG Export Plug-In . SVG Version: 6.00 Build 0)  -->
<svg version="1.1" id="Ebene_3" xmlns="http://www.w3.org/2000/svg" xmlns:xlink="http://www.w3.org/1999/xlink" x="0px" y="0px"
	 viewBox="0 0 72 72" enable-background="new 0 0 72 72" xml:space="preserve">
<g id="_xDB80__xDC41__1_">
	<circle fill="#FCEA2B" cx="46.5" cy="39.5" r="17.5"/>
	<path fill="#F1B31C" d="M47.6,54.7c-0.8,0.8-1.6,1.5-2.4,2.2c4.9,0.4,10-1.3,13.8-5.1c6.8-6.8,6.8-17.9,0-24.7
		c-0.1-0.1-0.2-0.2-0.4-0.3C58.9,36.9,55.2,47,47.6,54.7z"/>
	<circle fill="#FCEA2B" cx="19" cy="54" r="8"/>
	<path fill="#F1B31C" d="M19.5,60.9c-0.4,0.4-0.7,0.7-1.1,1c2.3,0.2,4.6-0.6,6.3-2.3c3.1-3.1,3.1-8.2,0-11.3
		c-0.1-0.1-0.1-0.1-0.2-0.2C24.7,52.8,23,57.4,19.5,60.9z"/>
	<circle fill="#FCEA2B" cx="18" cy="21" r="11"/>
	<path fill="#F1B31C" d="M18.7,30.6c-0.5,0.5-1,1-1.5,1.4c3.1,0.2,6.3-0.8,8.7-3.2c4.3-4.3,4.3-11.3,0-15.6
		c-0.1-0.1-0.2-0.1-0.2-0.2C25.8,19.3,23.5,25.7,18.7,30.6z"/>
	
		<circle fill="none" stroke="#000000" stroke-width="2" stroke-linecap="round" stroke-linejoin="round" stroke-miterlimit="10" cx="19" cy="54" r="8"/>
	
		<circle fill="none" stroke="#000000" stroke-width="2" stroke-linecap="round" stroke-linejoin="round" stroke-miterlimit="10" cx="46.5" cy="39.5" r="17.5"/>
	
		<circle fill="none" stroke="#000000" stroke-width="2" stroke-linecap="round" stroke-linejoin="round" stroke-miterlimit="10" cx="18" cy="21" r="11"/>
</g>
</svg>
