<svg id="emoji" xmlns="http://www.w3.org/2000/svg" viewBox="0 0 72 72">
  
  <g id="color">
    <path fill="#D0CFCE" d="M33.0567,58h-3c-0.5523,0-1-0.4477-1-1V37c0-0.5523,0.4477-1,1-1h3c0.5523,0,1,0.4477,1,1v20
		C34.0567,57.5523,33.609,58,33.0567,58z" stroke="none"></path>
    <path fill="#9b9b9a" d="M38.3936,35.4146c1.6566-2.8693,0.6735-6.5382-2.1958-8.1948c-2.8693-1.6566-6.5382-0.6735-8.1948,2.1958
		c-1.6566,2.8693-0.6735,6.5382,2.1958,8.1948S36.737,38.2838,38.3936,35.4146" stroke="none"></path>
    <ellipse transform="matrix(0.5 -0.866 0.866 0.5 -6.5298 62.8599)" fill="#D22F27" cx="51.1734" cy="37.0849" rx="3" ry="3" stroke="none"></ellipse>
    <rect x="17.5849" y="23.0849" transform="matrix(0.866 0.5 -0.5 0.866 18.8099 -14.0298)" fill="#FFFFFF" stroke="none" stroke-width="2" stroke-linecap="round" stroke-linejoin="round" stroke-miterlimit="10" width="36" height="10"></rect>
    <rect x="30.5849" y="10.0849" transform="matrix(0.5 -0.866 0.866 0.5 -6.5298 44.8599)" fill="#D0CFCE" width="10" height="36" stroke="none"></rect>
    <polygon fill="#9b9b9a" points="42.1174,37.63 42.1174,37.63 22.4965,14.7548 17.4965,23.4151 	" stroke="none"></polygon>
  </g>
  <g id="hair">
  </g>
  <g id="skin">
  </g>
  <g id="skin-shadow">
  </g>
  <g id="line">
    <line fill="none" stroke="#000000" stroke-width="2" stroke-linecap="round" stroke-linejoin="round" stroke-miterlimit="10" x1="30" y1="36.354" x2="30" y2="57"></line>
    <path fill="none" stroke="#000000" stroke-width="2" stroke-linecap="round" stroke-linejoin="round" stroke-miterlimit="10" d="
		M37.4151,34.9151c1.3807-2.3915,0.5613-5.4494-1.8301-6.8301c-2.3915-1.3807-5.4494-0.5613-6.8301,1.8301
		c-1.2621,2.1859-0.6859,4.9288,1.2488,6.4385"></path>
    <rect x="17.5849" y="23.0849" transform="matrix(0.866 0.5 -0.5 0.866 18.8099 -14.0298)" fill="none" stroke="#000000" stroke-width="2" stroke-linecap="round" stroke-linejoin="round" stroke-miterlimit="10" width="36" height="10"></rect>
    <rect x="17.5849" y="23.0849" transform="matrix(0.866 0.5 -0.5 0.866 18.8099 -14.0298)" fill="none" stroke="#000000" stroke-width="2" stroke-linecap="round" stroke-linejoin="round" stroke-miterlimit="10" width="36" height="10"></rect>
  </g>
</svg>