<?xml version="1.0" encoding="utf-8"?>
<!-- Generator: Adobe Illustrator 21.1.0, SVG Export Plug-In . SVG Version: 6.00 Build 0)  -->
<svg version="1.1" id="emoji" xmlns="http://www.w3.org/2000/svg" xmlns:xlink="http://www.w3.org/1999/xlink" x="0px" y="0px"
	 viewBox="0 0 72 72" enable-background="new 0 0 72 72" xml:space="preserve">
<g id="_xDB80__xDC54_">
	
		<path fill="#FFEB40" stroke="#1D1D1B" stroke-width="2" stroke-linecap="round" stroke-linejoin="round" stroke-miterlimit="10" d="
		M45.1,52.5C45,56.6,44,63.3,44,63.3l-17.2,0.1l0.1-5.8c0,0-0.2-11.2-5.3-15.5c-10.3-8.6-7.6-26.7,3.7-31.2
		C36.5,6.4,47.6,9.7,51,14.7s0.6,9.2,0.6,9.2s-0.8,1.5,1.1,4.6S57.6,39,57.6,39l-4.1,1.4c0,0,2,9.5-0.8,10.9s-8.7,0.8-13.2-0.6"/>
	
		<path fill="#AAADB4" stroke="#1D1D1B" stroke-width="2" stroke-linecap="round" stroke-linejoin="round" stroke-miterlimit="10" d="
		M59.2,18v15.7H44.7c0,0-8.7-7.5,0-16.2h14.5L59.2,18z"/>
	
		<path fill="#AAADB4" stroke="#1D1D1B" stroke-width="2" stroke-linecap="round" stroke-linejoin="round" stroke-miterlimit="10" d="
		M44.8,22H14.5c0,0-2,6.1,0,8.1h30.1"/>
	
		<line fill="#AAADB4" stroke="#1D1D1B" stroke-width="2" stroke-linecap="round" stroke-linejoin="round" stroke-miterlimit="10" x1="54.5" y1="17.6" x2="54.5" y2="33.8"/>
	
		<line fill="#AAADB4" stroke="#1D1D1B" stroke-width="2" stroke-linecap="round" stroke-linejoin="round" stroke-miterlimit="10" x1="55.9" y1="17.6" x2="55.9" y2="33.8"/>
	
		<line fill="#AAADB4" stroke="#1D1D1B" stroke-width="2" stroke-linecap="round" stroke-linejoin="round" stroke-miterlimit="10" x1="57.4" y1="17.6" x2="57.4" y2="33.8"/>
</g>
</svg>
