<?xml version="1.0" encoding="utf-8"?>
<!-- Generator: Adobe Illustrator 21.1.0, SVG Export Plug-In . SVG Version: 6.00 Build 0)  -->
<svg version="1.1" id="emoji" xmlns="http://www.w3.org/2000/svg" xmlns:xlink="http://www.w3.org/1999/xlink" x="0px" y="0px"
	 viewBox="0 0 72 72" enable-background="new 0 0 72 72" xml:space="preserve">
<g id="_xDB80__xDC5D_">
	
		<path fill="#D5D7DD" stroke="#1D1D1B" stroke-width="2" stroke-linecap="round" stroke-linejoin="round" stroke-miterlimit="10" d="
		M22.4,29.1c0,0-0.7-0.4-1.2-5h7c0,0-0.3,3.9-1.4,5"/>
	
		<rect x="16" y="29.1" fill="#83674C" stroke="#1D1D1B" stroke-width="2" stroke-linecap="round" stroke-linejoin="round" stroke-miterlimit="10" width="40" height="3.8"/>
	
		<rect x="46" y="34" transform="matrix(6.123234e-17 -1 1 6.123234e-17 30 102)" fill="#B59154" stroke="#1D1D1B" stroke-width="2" stroke-linecap="round" stroke-linejoin="round" stroke-miterlimit="10" width="40" height="4"/>
	
		<rect x="24.5" y="42.5" transform="matrix(6.123234e-17 -1 1 6.123234e-17 -8.5 80.5)" fill="#B59154" stroke="#1D1D1B" stroke-width="2" stroke-linecap="round" stroke-linejoin="round" stroke-miterlimit="10" width="23" height="4"/>
	
		<rect x="36.8" y="44.7" transform="matrix(6.123234e-17 -1 1 6.123234e-17 -0.7292 92.7292)" fill="#B59154" stroke="#1D1D1B" stroke-width="2" stroke-linecap="round" stroke-linejoin="round" stroke-miterlimit="10" width="18.5" height="4"/>
	
		<rect x="44" y="37.1" transform="matrix(-1 -1.224647e-16 1.224647e-16 -1 108 78.1459)" fill="#84674C" stroke="#1D1D1B" stroke-width="2" stroke-linecap="round" stroke-linejoin="round" stroke-miterlimit="10" width="20" height="4"/>
	<path fill="none" stroke="#1D1D1B" stroke-width="2" stroke-linecap="round" stroke-linejoin="round" stroke-miterlimit="10" d="
		M23,19.4c0,0,0.6-2,0-4"/>
	<path fill="none" stroke="#1D1D1B" stroke-width="2" stroke-linecap="round" stroke-linejoin="round" stroke-miterlimit="10" d="
		M25.8,19.4c0,0,0.6-1.8,0-3.5"/>
	
		<rect x="-14" y="34" transform="matrix(4.488327e-11 -1 1 4.488327e-11 -30 42)" fill="#B59154" stroke="#1D1D1B" stroke-width="2" stroke-linecap="round" stroke-linejoin="round" stroke-miterlimit="10" width="40" height="4"/>
	
		<rect x="16.8" y="44.7" transform="matrix(4.493390e-11 -1 1 4.493390e-11 -20.7292 72.7292)" fill="#B59154" stroke="#1D1D1B" stroke-width="2" stroke-linecap="round" stroke-linejoin="round" stroke-miterlimit="10" width="18.5" height="4"/>
	
		<rect x="8" y="37.1" fill="#84674C" stroke="#1D1D1B" stroke-width="2" stroke-linecap="round" stroke-linejoin="round" stroke-miterlimit="10" width="20" height="4"/>
</g>
</svg>
