<?xml version="1.0" encoding="utf-8"?>
<!-- Generator: Adobe Illustrator 19.1.0, SVG Export Plug-In . SVG Version: 6.00 Build 0)  -->
<svg version="1.1" id="emoji" xmlns="http://www.w3.org/2000/svg" xmlns:xlink="http://www.w3.org/1999/xlink" x="0px" y="0px"
	 viewBox="0 0 72 72" enable-background="new 0 0 72 72" xml:space="preserve">
<g id="_xDB80__xDC55_">
	<path fill="#D0CFCE" d="M53.9,63H18c-0.6,0-1-0.4-1-1v-49c0-0.6,0.4-1,1-1h35.9c0.6,0,1,0.4,1,1v49C54.9,62.6,54.5,63,53.9,63z"/>
	<circle fill="#FFFFFF" cx="36" cy="45" r="12"/>
	<path fill="#92D3F5" d="M24,45c0,6.6,5.4,12,12,12s12-5.4,12-12"/>
	<rect x="17" y="17" fill="#9B9B9A" width="16" height="10"/>
	<circle fill="#D0CFCE" cx="36" cy="45" r="7"/>
	<path fill="#61B2E4" d="M29,45c0,3.9,3.1,7,7,7s7-3.1,7-7"/>
	<circle fill="none" stroke="#000000" stroke-width="2" stroke-miterlimit="10" cx="36" cy="45" r="12"/>
	<circle fill="none" stroke="#000000" stroke-width="2" stroke-miterlimit="10" cx="36" cy="45" r="7"/>
	<path fill="none" stroke="#000000" stroke-width="2" stroke-linecap="round" stroke-linejoin="round" stroke-miterlimit="10" d="
		M53.9,63H18c-0.6,0-1-0.4-1-1v-49c0-0.6,0.4-1,1-1h35.9c0.6,0,1,0.4,1,1v49C54.9,62.6,54.5,63,53.9,63z"/>
	
		<rect x="17" y="17" fill="none" stroke="#000000" stroke-width="2" stroke-linecap="round" stroke-linejoin="round" stroke-miterlimit="10" width="16" height="10"/>
	
		<line fill="none" stroke="#000000" stroke-width="2" stroke-linecap="round" stroke-linejoin="round" stroke-miterlimit="10" x1="37" y1="19" x2="44" y2="19"/>
	
		<line fill="none" stroke="#000000" stroke-width="2" stroke-linecap="round" stroke-linejoin="round" stroke-miterlimit="10" x1="37" y1="23" x2="44" y2="23"/>
	
		<line fill="none" stroke="#000000" stroke-width="2" stroke-linecap="round" stroke-linejoin="round" stroke-miterlimit="10" x1="23" y1="21" x2="27" y2="21"/>
	<circle cx="49" cy="21" r="2"/>
</g>
</svg>
