<?xml version="1.0" encoding="utf-8"?>
<!-- Generator: Adobe Illustrator 19.1.0, SVG Export Plug-In . SVG Version: 6.00 Build 0)  -->
<svg version="1.1" id="Ebene_3" xmlns="http://www.w3.org/2000/svg" xmlns:xlink="http://www.w3.org/1999/xlink" x="0px" y="0px"
	 viewBox="0 0 72 72" enable-background="new 0 0 72 72" xml:space="preserve">
<g id="_xDB80__xDC5F_">
	<path fill="#D0CFCE" d="M33,58h-3c-0.6,0-1-0.4-1-1V37c0-0.6,0.4-1,1-1h3c0.6,0,1,0.4,1,1v20C34,57.6,33.6,58,33,58z"/>
	<path fill="#9A9B99" d="M38.3,35.4c1.7-2.9,0.7-6.5-2.2-8.2c-2.9-1.7-6.5-0.7-8.2,2.2c-1.7,2.9-0.7,6.5,2.2,8.2
		S36.6,38.3,38.3,35.4"/>
	<circle fill="#D22F27" cx="51.2" cy="37.1" r="3"/>
	
		<line fill="none" stroke="#000000" stroke-width="2" stroke-linecap="round" stroke-linejoin="round" stroke-miterlimit="10" x1="30" y1="36.4" x2="30" y2="57"/>
	<path fill="none" stroke="#000000" stroke-width="2" stroke-linecap="round" stroke-linejoin="round" stroke-miterlimit="10" d="
		M37.4,34.9c1.4-2.4,0.6-5.4-1.8-6.8c-2.4-1.4-5.4-0.6-6.8,1.8c-1.3,2.2-0.7,4.9,1.2,6.4"/>
	
		<rect x="17.6" y="23.1" transform="matrix(0.866 0.5 -0.5 0.866 18.8099 -14.0298)" fill="#FFFFFF" stroke="#000000" stroke-width="2" stroke-linecap="round" stroke-linejoin="round" stroke-miterlimit="10" width="36" height="10"/>
	<rect x="17.6" y="23.1" transform="matrix(0.866 0.5 -0.5 0.866 18.8099 -14.0298)" fill="#D0CFCE" width="36" height="10"/>
	<polygon fill="#9A9B99" points="42.1,37.6 42.1,37.6 22.5,14.8 17.5,23.4 	"/>
	
		<rect x="17.6" y="23.1" transform="matrix(0.866 0.5 -0.5 0.866 18.8099 -14.0298)" fill="none" stroke="#000000" stroke-width="2" stroke-linecap="round" stroke-linejoin="round" stroke-miterlimit="10" width="36" height="10"/>
</g>
</svg>
