<?xml version="1.0" encoding="utf-8"?>
<!-- Generator: Adobe Illustrator 21.1.0, SVG Export Plug-In . SVG Version: 6.00 Build 0)  -->
<svg version="1.1" id="emoji" xmlns="http://www.w3.org/2000/svg" xmlns:xlink="http://www.w3.org/1999/xlink" x="0px" y="0px"
	 viewBox="0 0 72 72" enable-background="new 0 0 72 72" xml:space="preserve">
<g id="_xDB80__xDC6D_">
	<path fill="#999999" d="M57.6,26.2v6.1l-1,9.4L60,49c0,0-0.6,3.3,7,1l-2-1l-1-2c0,0-0.7-7.7-0.7-8.1c0-0.4-0.6-6.7-0.6-6.7
		l-2.1-4.5L57.6,26.2z"/>
	<path fill="#CCCCCC" d="M10,11l1.3,4.1l-1.2,2.5l-1.4,2.8l-3.1,6.1l1.4,2.2h3.3l1.6-2.7l2.5-0.6l0.9-0.7l1.4,3.1l2.8,3.8l0.6,4.1
		l1,3.8l2.4,2.7l2.4,1.6l2.3,8.6l1,3.5l-0.5,3l0.7,1.6l2.2-0.6l1.2-3.2l-0.6-1.9l-0.7-5.5l0.3-6.6L40,47l6-2l3-2l2-1l0.8,1.9
		l2.7,4.2l0.6,2.6l-1.1,6.6L52.9,58l0.6,2.1l2.5-0.6l1.8-5l1.4-3.4l0.3-3l-2.9-6.5l3.5-4.5c0,0,2.2-3.8-1.6-10.7l-5-1.5l-5.6,0.5
		l-5.8,1.1l-8.7-0.3L30,25.4l-5.3-6.5l-5.3-3l-3.6-1.3l-2.5-1.6L11,11"/>
	<path fill="#999999" d="M21.9,41l0.7,6.2l1.5,3l-1.1,6.5l-1,0.9l1.1,1.6l2.3-0.6c0,0,1.9-1.6,1.9-2s2-4.2,2-4.2l-1.9-6.9l-1.7-2.7
		L21.9,41z"/>
	<path fill="none" stroke="#000000" stroke-width="2" stroke-linecap="round" stroke-linejoin="round" stroke-miterlimit="10" d="
		M16.3,22.6C16,26.2,12,27,12,27l-1,1c-1.3,2.8-5.3,0.6-5.3-1.4c1.5-3.4,3.1-5.8,3.1-5.8c-0.1-2.8,3.3-4.6,3.3-4.6l-1.3-1.8
		C10.3,13.8,8.3,10.1,9,10c1.3-0.1,6,2.8,7,4.9c0,0,8.9,0.9,14,10.4c0.2,0.4,9.9,2.3,16.1,0.4c4.3-1.3,17.1-2.1,17.3,10.5
		c0.1,6.4-0.6,9.3,3.7,13.7"/>
	<path fill="none" stroke="#000000" stroke-width="2" stroke-linecap="round" stroke-linejoin="round" stroke-miterlimit="10" d="
		M59.2,37c-0.4,1.6-1.2,3.4-2.6,4.6c0,0,1.1,4.8,3.2,6.8l-2.7,9.2L56,59.6c-0.3,0.6-0.9,0.9-1.5,0.9h0c-1.3,0-2.1-1.3-1.6-2.4
		c1-2.2,2.2-3,2.4-8.3c0,0-5.9-8.2-4.3-13.7"/>
	<path fill="none" stroke="#000000" stroke-width="2" stroke-linecap="round" stroke-linejoin="round" stroke-miterlimit="10" d="
		M17.8,27.5l2.7,5.6c0,0-1.2,6.3,3.3,9.2l2.4,1.6l2.5,9.2l0.9,3.8l-0.5,1.2c-0.4,1.1,0.4,2.3,1.6,2.3h0c0.7,0,1.3-0.4,1.6-1.1l0.7-2
		c0.2-0.7,0.3-1.4,0.2-2.1l-1.3-4.1l-0.2-8.7c0,0,9.3,7.5,17.3,0.5"/>
	<path fill="none" stroke="#000000" stroke-width="2" stroke-linecap="round" stroke-linejoin="round" stroke-miterlimit="10" d="
		M23.5,47.2l0.6,4.4l-1.7,4.3L22,56.8c-0.5,1.2,0.4,2.5,1.7,2.5h0c0.7,0,1.4-0.4,1.7-1.1l0.8-1.8"/>
</g>
</svg>
