<svg id="emoji" xmlns="http://www.w3.org/2000/svg" viewBox="0 0 72 72">
  <g id="color">
    <rect x="16" y="52" fill="#9b9b9a" stroke="#9b9b9a" stroke-width="2" stroke-miterlimit="10" width="40" height="4"></rect>
    <rect x="52" y="38" fill="#9b9b9a" stroke="#9b9b9a" stroke-width="2" stroke-miterlimit="10" width="4" height="14"></rect>
    <rect x="16" y="44" fill="#9b9b9a" stroke="#9b9b9a" stroke-width="2" stroke-miterlimit="10" width="4" height="8"></rect>
    <rect x="16" y="16" fill="#EA5A47" stroke="#EA5A47" stroke-width="2" stroke-miterlimit="10" width="40" height="4"></rect>
    <rect x="16" y="20" fill="#EA5A47" stroke="#EA5A47" stroke-width="2" stroke-miterlimit="10" width="4" height="8"></rect>
    <rect x="52" y="20" fill="#EA5A47" stroke="#EA5A47" stroke-width="2" stroke-miterlimit="10" width="4" height="14"></rect>
    <circle fill="#FFFFFF" stroke="none" stroke-width="2" stroke-linecap="round" stroke-linejoin="round" stroke-miterlimit="10" cx="18" cy="36" r="8"></circle>
  </g>
  <g id="hair"> </g>
  <g id="skin"> </g>
  <g id="skin-shadow"> </g>
  <g id="line">
    <polyline fill="none" stroke="#000000" stroke-width="2" stroke-linecap="round" stroke-linejoin="round" stroke-miterlimit="10" points="
		56,38 56,56 16,56 16,16 56,16 56,30.5 	"></polyline>
    <polyline fill="none" stroke="#000000" stroke-width="2" stroke-linecap="round" stroke-linejoin="round" stroke-miterlimit="10" points="
		52,41.5 52,52 20,52 20,20 52,20 52,34 	"></polyline>
    <circle fill="none" stroke="#000000" stroke-width="2" stroke-linecap="round" stroke-linejoin="round" stroke-miterlimit="10" cx="18" cy="36" r="8"></circle>
    <line fill="none" stroke="#000000" stroke-width="2" stroke-linecap="round" stroke-linejoin="round" stroke-miterlimit="10" x1="23.6569" y1="30.3431" x2="12.3431" y2="41.6569"></line>
    <line fill="none" stroke="#000000" stroke-width="2" stroke-linecap="round" stroke-linejoin="round" stroke-miterlimit="10" x1="12.3431" y1="30.3431" x2="23.6569" y2="41.6569"></line>
    <line fill="none" stroke="#000000" stroke-width="2" stroke-linecap="round" stroke-linejoin="round" stroke-miterlimit="10" x1="49" y1="34" x2="59" y2="34"></line>
    <line fill="none" stroke="#000000" stroke-width="2" stroke-linecap="round" stroke-linejoin="round" stroke-miterlimit="10" x1="44" y1="38" x2="64" y2="38"></line>
  </g>
</svg>