<?xml version="1.0" encoding="utf-8"?>
<!-- Generator: Adobe Illustrator 21.1.0, SVG Export Plug-In . SVG Version: 6.00 Build 0)  -->
<svg version="1.1" id="emoji" xmlns="http://www.w3.org/2000/svg" xmlns:xlink="http://www.w3.org/1999/xlink" x="0px" y="0px"
	 viewBox="0 0 72 72" enable-background="new 0 0 72 72" xml:space="preserve">
<g id="_xDB80__xDC6E__1_">
	<circle fill="#FCEA2B" cx="35.3" cy="8" r="3"/>
	
		<ellipse transform="matrix(0.9954 -9.619455e-02 9.619455e-02 0.9954 -0.7894 2.8891)" fill="#FCEA2B" cx="29.6" cy="9.6" rx="4" ry="4"/>
	<path fill="#FCEA2B" d="M32.7,16.1c0,0-0.2,0-0.4,6.8c-0.2,6-2.2,19.6-2.2,19.6L27,52.2l-3.6,8.4l-3.4,6l-2.4-1.2L20,54l1.3-6.1
		l0.8-11L21.5,34l-0.2-0.9l0-7.6l1.7-6.1l2.6-2.8L32.7,16.1z"/>
	<path fill="#FCEA2B" d="M32,18.8c0,0-0.2-2.2,2.1-3c2.2-0.8,3.7-0.4,5.8-0.2c2.4,0.1,2.6,3.1,2.6,3.1L42.6,34l-1.2,4.8l3.1,16.6
		l2,9l-1.7,2.4l-2.6-4.8l-4.2-12.1l-2-0.1L32,65.6l-2.4,1.2L28.2,65l2.3-19.6L32,18.8z"/>
	<circle fill="none" stroke="#000000" stroke-width="2" stroke-miterlimit="10" cx="35.3" cy="8" r="3"/>
	<path fill="none" stroke="#000000" stroke-width="2" stroke-linecap="round" stroke-linejoin="round" stroke-miterlimit="10" d="
		M30.2,12.6c-1.6,0.4-3.2-0.7-3.6-2.3c-0.4-1.6,0.7-3.2,2.3-3.6"/>
	<g>
		<path fill="none" stroke="#000000" stroke-width="2" stroke-linecap="round" stroke-linejoin="round" stroke-miterlimit="10" d="
			M32.5,30.6l-4.2,34.2c-0.1,1.1,0.5,2,1.5,2c0.9,0,1.9-0.9,2.2-1.9l5.5-20.1c0.3-1.1,1-2.7,1.7-3.6l2.2-3.1
			c0.6-0.9,1.1-2.5,1.1-3.6l-0.5-10.1"/>
	</g>
	<g>
		<path fill="none" stroke="#000000" stroke-width="2" stroke-linecap="round" stroke-linejoin="round" stroke-miterlimit="10" d="
			M41.5,38l1.8,11.5c0.2,1.1,0.5,2.9,0.8,3.9l2.4,10c0.3,1.1-0.2,2.4-1,2.9c-0.8,0.5-1.8,0.1-2.1-0.9l-2.9-9.1
			c-0.3-1-0.9-2.7-1.3-3.8L36.9,47"/>
	</g>
	<g>
		
			<line fill="none" stroke="#000000" stroke-width="2" stroke-linecap="round" stroke-linejoin="round" stroke-miterlimit="10" x1="41.9" y1="24.4" x2="41.5" y2="19"/>
	</g>
	<g>
		<path fill="none" stroke="#000000" stroke-width="2" stroke-linecap="round" stroke-linejoin="round" stroke-miterlimit="10" d="
			M37.1,20l-4,4.8c-0.7,0.9-2.1,1.8-3.2,2.1l-10.7,3"/>
	</g>
	<g>
		<g>
			<path fill="none" stroke="#000000" stroke-width="2" stroke-linecap="round" stroke-linejoin="round" stroke-miterlimit="10" d="
				M22.4,25.6l0.9-5.4c0.4-2.2,1.9-3.8,3.3-3.5c1.5,0.2,4.5,0.1,6.6-0.2l9.1-1.5"/>
		</g>
		<g>
			
				<line fill="none" stroke="#000000" stroke-width="2" stroke-linecap="round" stroke-linejoin="round" stroke-miterlimit="10" x1="22.2" y1="39.7" x2="22.4" y2="32.8"/>
		</g>
		<g>
			<path fill="none" stroke="#000000" stroke-width="2" stroke-linecap="round" stroke-linejoin="round" stroke-miterlimit="10" d="
				M22.2,39.7"/>
		</g>
	</g>
	<path fill="none" stroke="#000000" stroke-width="2" stroke-linecap="round" stroke-linejoin="round" stroke-miterlimit="10" d="
		M22.2,39.7l-1.1,9.8c-0.1,1.7-0.6,3.4-1,5l-2.4,9.9c-0.3,1.1,0.5,2.2,1.7,2.3h0c0.8,0.1,1.5-0.4,1.8-1.1l4.9-13.8"/>
</g>
</svg>
