<?xml version="1.0" encoding="utf-8"?>
<!-- Generator: Adobe Illustrator 19.1.0, SVG Export Plug-In . SVG Version: 6.00 Build 0)  -->
<svg version="1.1" id="emoji" xmlns="http://www.w3.org/2000/svg" xmlns:xlink="http://www.w3.org/1999/xlink" x="0px" y="0px"
	 viewBox="0 0 72 72" enable-background="new 0 0 72 72" xml:space="preserve">
<g id="_xDB80__xDC78_">
	<circle fill="#3F3F3F" cx="36" cy="32" r="5"/>
	<polygon fill="#D0CFCE" points="34,62 38,62 36,37 	"/>
	<polyline fill="#9B9B9A" points="36,37 38,62 36,62 36,37 	"/>
	
		<circle fill="none" stroke="#000000" stroke-width="2" stroke-linecap="round" stroke-linejoin="round" stroke-miterlimit="10" cx="36" cy="32" r="5"/>
	
		<polyline fill="none" stroke="#000000" stroke-width="2" stroke-linecap="round" stroke-linejoin="round" stroke-miterlimit="10" points="
		35,38 33,63 39,63 37,38 	"/>
	<path fill="none" stroke="#000000" stroke-width="2" stroke-linecap="round" stroke-linejoin="round" stroke-miterlimit="10" d="
		M42.3,51c8-2.6,13.7-10.1,13.7-19c0-11-9-20-20-20s-20,9-20,20c0,8.9,5.8,16.4,13.7,19"/>
	<path fill="none" stroke="#000000" stroke-width="2" stroke-linecap="round" stroke-linejoin="round" stroke-miterlimit="10" d="
		M41.6,45.9C47.1,43.7,51,38.3,51,32c0-8.3-6.7-15-15-15s-15,6.7-15,15c0,6.3,3.9,11.7,9.4,13.9"/>
	<path fill="none" stroke="#000000" stroke-width="2" stroke-linecap="round" stroke-linejoin="round" stroke-miterlimit="10" d="
		M40.9,40.7c3-1.7,5.1-5,5.1-8.7c0-5.5-4.5-10-10-10s-10,4.5-10,10c0,3.7,2.1,7,5.1,8.7"/>
</g>
</svg>
