<svg id="emoji" viewBox="0 0 72 72" xmlns="http://www.w3.org/2000/svg">
  <g id="color">
    <g>
      <g>
        <path fill="#5c9e31" fill-rule="evenodd" d="m42.1469,10.948h3.7013c0,.0254.0002.0507.0002.0761,0,2.5601-.9327,4.9505-2.7919,7.163-2.2436,2.6302-4.9573,4.1501-7.9001,3.9102-.0375-.3071-.0592-.6303-.0592-.97,0-2.4577,1.0669-5.0879,2.9617-7.2385.9459-1.0889,2.149-1.9943,3.608-2.7165.161-.0787.321-.1535.48-.2243Zm-25.9183,19.9074c.1901-.3972.413-.7834.637-1.1587,1.1637-1.9916,3.2156-3.5627,5.1532-4.716,1.9376-1.1533,2.3299-1.2277,4.5845-1.2653,1.2337,0,2.8016.6472,4.812,1.3992,2.0047.7546,3.4937,1.0807,4.0581,1.0807.4219,0,1.8519-.3025,4.276-1.1945,2.2925-.8272,4.2273-1.2043,5.8123-1.0693,4.2949.3475,6.1665,1.015,8.3124,4.0737-1.2833.7797-2.086,1.8039-2.9361,2.7919l-34.7093.0582Z"/>
        <path fill="#5c9e31" fill-rule="evenodd" d="m40.7856,21.5333s-1.3699.8902-5.4221,1.5403c-.1434.023.3708-1.3663.3708-1.3663l4.0062-.9993"/>
      </g>
      <path fill="#fcea2b" fill-rule="evenodd" d="m52.6643,28.9359c-2.2919,1.9394-3.4617,4.1534-3.9416,6.9864l-34.1663-.2396c.2949-2.2984,1.0311-3.7198,2.1045-5.5173.1718-.294.4712-.8898.6598-1.1655l35.3436-.0641Z"/>
      <path fill="#f4aa41" fill-rule="evenodd" d="m49.1968,34.1426c-.2376.9408-.6439,2.0396-.6343,3.0985.0195,1.8418.0861,3.5081.8338,4.9991l-34.5609.0262c-.2584-1.5016-.3358-2.8765-.3358-4.3312,0-1.2515.0535-2.5944.2503-3.7199l34.447-.0727Z"/>
      <path fill="#ea5a47" fill-rule="evenodd" d="m49.3791,42.2278c.5638,1.7489,1.5864,2.9417,3.0152,4.2694,1.0524,1.0017,1.6614,1.8998,2.9691,2.4496-.0067.0194-.0063.0538-.0129.0732l-38.6973-.0153c-.082-.2237-.6918-1.9654-.7706-2.1934-.7372-2.1531-.8066-2.5025-1.0473-4.5646l34.5438-.0189Z"/>
      <path fill="#8967aa" fill-rule="evenodd" d="m52.0635,55.9718c.9372-1.3965,1.7551-2.9032,2.4561-4.5271.3182-.7584.7828-1.5483,1.0664-2.3731.8947.3762.7273.3228-.2195-.0998l-38.7201.0269c.9503,2.6266,2.5067,4.9726,3.9153,7.0142l31.5019-.0411Z"/>
      <path fill="#61b2e4" fill-rule="evenodd" d="m26.5595,61.1945c-1.0981-.264-1.7879-.6457-2.8823-1.6661-.9284-.812-1.8014-1.6615-3.1656-3.5654l31.6389-.05c-1.3762,1.9501-1.7364,2.5664-2.6157,3.3322-1.1599,1.0696-2.3159,1.6671-3.6154,1.8827l-1.5328.1c-.9296-.1354-2.0298-.3843-3.1989-.8664-1.6377-.6698-3.6221-1.0496-4.9982-1.0496-1.4432,0-2.9428.1133-4.5984.7831-1.1195.4545-2.8207,1.0704-3.6487,1.2329l-1.3828-.1333Z"/>
    </g>
  </g>
  <g id="line">
    <path id="path4" fill="none" stroke="#000" stroke-linecap="round" stroke-linejoin="round" stroke-width="2" d="m35.1564,22.0973c-.0375-.3071-.0592-.6303-.0592-.97,0-2.4577,1.0669-5.0879,2.9617-7.2385.946-1.0889,2.1491-1.9943,3.608-2.7165,1.4558-.7115,2.8329-1.1049,4.128-1.1723.0378.3422.0535.6845.0535,1.0241,0,2.5601-.9327,4.9505-2.7918,7.163-.8303.9733-1.725,1.7946-2.6718,2.4309m15.314,30.2229c-.772,1.7884-1.6858,3.4347-2.7446,4.9483-1.4432,2.0633-2.6249,3.4915-3.5356,4.2847-1.4117,1.3018-2.9242,1.9685-4.5439,2.0064-1.1627,0-2.565-.3317-4.1972-1.0048-1.6377-.6699-3.1426-1.0016-4.5187-1.0016-1.4432,0-2.9911.3317-4.6466,1.0016-1.6582.6731-2.9939,1.0238-4.0152,1.0586-1.5532.0663-3.1013-.6194-4.6466-2.0602-.9863-.8627-2.22-2.3415-3.6978-4.4364-1.5857-2.2372-2.8893-4.8314-3.9106-7.7889-1.0937-3.1946-1.642-6.2881-1.642-9.2829,0-3.4306.7393-6.3895,2.22-8.869,1.1637-1.9916,2.7118-3.5627,4.6494-4.716,1.9376-1.1533,4.0312-1.7411,6.2858-1.7787,1.2337,0,2.8515.3827,4.8619,1.1347,2.0047.7546,3.292,1.1372,3.8563,1.1372.4219,0,1.8519-.4474,4.2761-1.3394,2.2924-.8272,4.2272-1.1698,5.8122-1.0348,4.2949.3475,7.5217,2.0453,9.6676,5.104-3.8412,2.3338-5.7413,5.6027-5.7035,9.796.0346,3.2663,1.2163,5.9844,3.5387,8.1426,1.0524,1.0016,2.2278,1.7758,3.5355,2.3256-.2836.8247-.5829,1.6146-.9012,2.373Z"/>
  </g>
</svg>
