<?xml version="1.0" encoding="utf-8"?>
<!-- Generator: Adobe Illustrator 22.1.0, SVG Export Plug-In . SVG Version: 6.00 Build 0)  -->
<svg version="1.1" id="emoji" xmlns="http://www.w3.org/2000/svg" xmlns:xlink="http://www.w3.org/1999/xlink" x="0px" y="0px"
	 viewBox="0 0 72 72" enable-background="new 0 0 72 72" xml:space="preserve">
<g id="wrapper_1_">
	<rect x="17.8" y="20.5" fill="#D7D0C5" width="31.3" height="35.4"/>
	<path fill="none" stroke="#000000" stroke-width="2" stroke-linecap="round" stroke-linejoin="round" stroke-miterlimit="10" d="
		M22.3,16"/>
	<polyline fill="#D7D0C5" points="49.2,55.9 53.6,51.4 53.6,16 49.2,20.5 53.6,16 22.3,16 17.8,20.5 	"/>
	<rect x="17.8" y="52.3" fill="#859E38" width="31.3" height="3.6"/>
	<polygon fill="#859E38" points="53.6,47.8 49.2,52.3 49.2,55.9 53.6,51.4 	"/>
	<rect x="17.8" y="20.5" fill="#3D3E4A" width="31.3" height="3.6"/>
	<polygon fill="#3D3E4A" points="53.6,16 49.2,20.7 49.2,24.4 53.6,19.8 	"/>
	<polygon fill="#3D3E4A" points="49.2,20.5 17.8,20.5 22.2,16 53.6,16 	"/>
	<path fill="none" stroke="#000000" stroke-width="2" stroke-linecap="round" stroke-linejoin="round" stroke-miterlimit="10" d="
		M22.3,16"/>
	<path d="M54.6,15.8c0-0.1,0-0.2-0.1-0.3c0,0,0,0,0,0c0-0.1-0.1-0.2-0.2-0.3c-0.1-0.1-0.2-0.1-0.3-0.2c0,0,0,0,0,0s0,0,0,0
		c-0.1,0-0.2-0.1-0.2-0.1h0c0,0,0,0,0,0c-0.1,0-0.1,0-0.2,0H22.3c-0.3,0-0.5,0.1-0.7,0.3l-4.5,4.5c-0.1,0.1-0.2,0.2-0.2,0.3
		c-0.1,0.1-0.1,0.3-0.1,0.4v35.4c0,0.6,0.4,1,1,1h31.3c0.1,0,0.3,0,0.4-0.1c0.1-0.1,0.2-0.1,0.3-0.2l4.5-4.5
		c0.2-0.2,0.3-0.4,0.3-0.7V16C54.6,15.9,54.6,15.9,54.6,15.8z M22.7,17h28.5l-2.5,2.5H20.2L22.7,17z M18.8,21.5h29.3v33.4H18.8V21.5
		z M52.6,51l-2.5,2.5V20.9l2.5-2.5V51z"/>
	
		<polyline fill="none" stroke="#000000" stroke-width="2" stroke-linecap="round" stroke-linejoin="round" stroke-miterlimit="10" points="
		27.8,44.8 29.7,43.3 29.7,50.3 	"/>
	<g>
		
			<line fill="none" stroke="#000000" stroke-width="2" stroke-linecap="round" stroke-linejoin="round" stroke-miterlimit="10" x1="34.2" y1="43.3" x2="34.2" y2="50.3"/>
		
			<line fill="none" stroke="#000000" stroke-width="2" stroke-linecap="round" stroke-linejoin="round" stroke-miterlimit="10" x1="34.2" y1="47.9" x2="38.2" y2="43.3"/>
		
			<line fill="none" stroke="#000000" stroke-width="2" stroke-linecap="round" stroke-linejoin="round" stroke-miterlimit="10" x1="36.1" y1="45.7" x2="38.5" y2="50.3"/>
	</g>
	<path fill="none" stroke="#000000" stroke-width="2" stroke-linecap="round" stroke-linejoin="round" stroke-miterlimit="10" d="
		M45.2,44c-0.4-0.4-1-0.6-1.7-0.6l0,0c-1.4,0-2.5,1.1-2.5,2.5v2c0,1.4,1.1,2.5,2.5,2.5l0,0c1.4,0,2.5-1.1,2.5-2.5v-1h-2"/>
</g>
</svg>
