<svg id="emoji" viewBox="0 0 72 72" xmlns="http://www.w3.org/2000/svg">
  <g id="grid">
    <path fill="#b3b3b3" d="M68,4V68H4V4H68m4-4H0V72H72V0Z"/>
    <path fill="none" stroke="#00a5ff" stroke-miterlimit="10" stroke-width="0.1" d="M12.923,10.9583H59.0769A1.9231,1.9231,0,0,1,61,12.8814V59.0352a1.9231,1.9231,0,0,1-1.9231,1.9231H12.9231A1.9231,1.9231,0,0,1,11,59.0352V12.8813A1.923,1.923,0,0,1,12.923,10.9583Z"/>
    <rect x="16" y="4" rx="2.2537" width="40" height="64" fill="none" stroke="#00a5ff" stroke-miterlimit="10" stroke-width="0.1"/>
    <rect x="16" y="4" rx="2.2537" width="40" height="64" transform="translate(72) rotate(90)" fill="none" stroke="#00a5ff" stroke-miterlimit="10" stroke-width="0.1"/>
    <circle cx="36" cy="36" r="29" fill="none" stroke="#00a5ff" stroke-miterlimit="10" stroke-width="0.1"/>
  </g>
  <g id="color">
    <path fill="#9B9B9A" stroke="none" d="M40.0944,33.0963l0.9439-0.9438l7.5124-7.5121l1.3506-1.3432v12.7245l4.9497-4.9497V14.8084H38.5877 l-4.9497,4.9497h12.7278l-0.0836,0.0835l-0.4706,0.4706l-8.4264,8.4268l-0.8243,0.8243c-5.858-4.1749-14.0433-3.6346-19.2989,1.621 c-5.8579,5.8579-5.8579,15.3553,0,21.2132c5.8578,5.8578,15.3553,5.8579,21.2132,0 C43.7314,47.1413,44.2712,38.9545,40.0944,33.0963z M20.7663,48.8932c-3.9052-3.9052-3.9052-10.2369,0-14.1421 s10.2369-3.9052,14.1421,0s3.9052,10.2369,0,14.1421S24.6715,52.7984,20.7663,48.8932z"/>
  </g>
  <g id="hair"/>
  <g id="skin"/>
  <g id="skin-shadow"/>
  <g id="line">
    <path fill="none" stroke="#000000" stroke-linecap="round" stroke-linejoin="round" stroke-miterlimit="10" stroke-width="2" d="M54.7381,14.9214H38.4746l-4.9497,4.9497h12.7279l-0.0835,0.0835l-0.4707,0.4707l-8.4264,8.4267l-0.8243,0.8243 c-5.858-4.1749-14.0433-3.6346-19.2989,1.621c-5.8579,5.8579-5.8579,15.3553,0,21.2132s15.3553,5.8579,21.2132,0 c5.2563-5.2563,5.7961-13.4431,1.6193-19.3013l0.9439-0.9439l7.5124-7.5121l1.3505-1.3433v12.7245l4.9497-4.9497V14.9214"/>
    <ellipse cx="27.7555" cy="41.904" rx="10" ry="10" transform="matrix(0.7071 -0.7071 0.7071 0.7071 -21.5012 31.8995)" fill="none" stroke="#000000" stroke-linecap="round" stroke-linejoin="round" stroke-miterlimit="10" stroke-width="2"/>
  </g>
</svg>
