<svg id="emoji" viewBox="0 0 72 72" xmlns="http://www.w3.org/2000/svg">
  <g id="grid">
    <path fill="#b3b3b3" d="M68,4V68H4V4H68m4-4H0V72H72V0Z"/>
    <path fill="none" stroke="#00a5ff" stroke-miterlimit="10" stroke-width="0.1" d="M12.9231,10.9583H59.077A1.923,1.923,0,0,1,61,12.8813V59.0352a1.9231,1.9231,0,0,1-1.9231,1.9231H12.9231A1.9231,1.9231,0,0,1,11,59.0352V12.8814A1.9231,1.9231,0,0,1,12.9231,10.9583Z"/>
    <rect x="16" y="4" rx="2.2537" width="40" height="64" fill="none" stroke="#00a5ff" stroke-miterlimit="10" stroke-width="0.1"/>
    <rect x="16" y="4" rx="2.2537" width="40" height="64" transform="rotate(90 36 36)" fill="none" stroke="#00a5ff" stroke-miterlimit="10" stroke-width="0.1"/>
    <circle cx="36" cy="36" r="29" fill="none" stroke="#00a5ff" stroke-miterlimit="10" stroke-width="0.1"/>
  </g>
  <g id="color">
    <path fill="#fff" d="M61.2167,21.6411,37.911,15.0386a1.0068,1.0068,0,0,0-.5537.0019l-22.5947,6.627a.9484.9484,0,0,0-.1365.0719,5.3829,5.3829,0,0,0-1.8343,9.5426,5.3642,5.3642,0,0,0,.0663,8.6968,5.3776,5.3776,0,0,0,1.4856,9.5022l23.0146,6.7128a1.0034,1.0034,0,0,0,.5547.002l23.3057-6.6514a1.0008,1.0008,0,0,0,.7255-.9619V22.603A1,1,0,0,0,61.2167,21.6411Z"/>
    <polygon fill="#92d3f5" points="37.638 15.976 60.944 22.579 37.638 29.231 15.044 22.603 37.638 15.976"/>
    <path fill="#61b2e4" d="M15.0823,24.7275,37.0756,31.174a2,2,0,0,0,1.1113.0039l23.2947-6.7653a.613.613,0,0,0,.442-.5794l.0189-1.2508L37.6381,29.2547,15.08,22.6425a4.4,4.4,0,0,0-.4554,8.4813l23.014,6.713,24.2115-6.91.04-1.2423a.6255.6255,0,0,0-.7968-.6215L37.6442,35.7552l-22.4226-6.54a2.4,2.4,0,0,1-.1393-4.4873"/>
    <path fill="#d22f27" d="M15.0823,33.4092l21.9933,6.4465a1.9988,1.9988,0,0,0,1.1113.004l23.2947-6.7653a.6131.6131,0,0,0,.442-.5794l.0189-1.2508L37.6381,37.9365,15.08,31.3243a4.4,4.4,0,0,0-.4554,8.4813l23.014,6.713,24.2115-6.91.04-1.2424a.6254.6254,0,0,0-.7968-.6214L37.6442,44.437l-22.4226-6.54a2.4,2.4,0,0,1-.1393-4.4873"/>
    <path fill="#5c9e31" d="M15.0823,42.1549l21.9933,6.4465a2,2,0,0,0,1.1113.0039L61.4816,41.84a.613.613,0,0,0,.442-.5794l.0189-1.2507L37.6381,46.6821,15.08,40.07a4.4,4.4,0,0,0-.4554,8.4813l23.014,6.713,24.2115-6.91.04-1.2424a.6254.6254,0,0,0-.7968-.6214L37.6442,53.1827l-22.4226-6.54a2.4,2.4,0,0,1-.1393-4.4873"/>
    <polygon fill="#61b2e4" points="44.32 17.794 38.594 16.172 16 22.799 21.81 24.504 44.32 17.794"/>
  </g>
  <g id="line">
    <polygon fill="none" stroke="#000" stroke-linecap="round" stroke-linejoin="round" stroke-width="2" points="37.638 16 60.944 22.603 37.638 29.255 15.044 22.627 37.638 16"/>
    <path fill="none" stroke="#000" stroke-linecap="round" stroke-linejoin="round" stroke-width="2" d="M15.08,22.6425a4.4,4.4,0,0,0-.4554,8.4813l23.0141,6.713,23.3057-6.6516"/>
    <path fill="none" stroke="#000" stroke-linecap="round" stroke-linejoin="round" stroke-width="2" d="M15.08,31.2942a4.4,4.4,0,0,0-.4554,8.4813l23.0141,6.713,23.3057-6.6516"/>
    <path fill="none" stroke="#000" stroke-linecap="round" stroke-linejoin="round" stroke-width="2" d="M15.08,40.04a4.4,4.4,0,0,0-.4554,8.4813l23.0141,6.713,23.3057-6.6516"/>
  </g>
</svg>
