<svg id="emoji" viewBox="0 0 72 72" xmlns="http://www.w3.org/2000/svg">
  <g id="grid">
    <path fill="#b3b3b3" d="M68,4V68H4V4H68m4-4H0V72H72V0Z"/>
    <path fill="none" stroke="#00a5ff" stroke-miterlimit="10" stroke-width="0.1" d="M12.923,10.9583H59.0769A1.9231,1.9231,0,0,1,61,12.8814V59.0352a1.9231,1.9231,0,0,1-1.9231,1.9231H12.9231A1.9231,1.9231,0,0,1,11,59.0352V12.8813A1.923,1.923,0,0,1,12.923,10.9583Z"/>
    <rect x="16" y="4" rx="2.2537" width="40" height="64" fill="none" stroke="#00a5ff" stroke-miterlimit="10" stroke-width="0.1"/>
    <rect x="16" y="4" rx="2.2537" width="40" height="64" transform="translate(72) rotate(90)" fill="none" stroke="#00a5ff" stroke-miterlimit="10" stroke-width="0.1"/>
    <circle cx="36" cy="36" r="29" fill="none" stroke="#00a5ff" stroke-miterlimit="10" stroke-width="0.1"/>
  </g>
  <g id="color">
    <path fill="#fff" stroke="#fff" stroke-linejoin="round" stroke-width="2" d="m14.85 64.04 0.05537-5.257-5.343-0.03324v-50.79h28.89l5.287 5.291h11.3v50.79z"/>
    <polyline transform="matrix(1.057 0 0 1.058 -8.414 -4.737)" fill="#d0cfce" stroke-width="0.9454" points="54.92 23 44 11.65 44 23"/>
    <polygon transform="matrix(1.057 0 0 1.058 -8.414 -4.737)" fill="#92d3f5" stroke-width="0.9454" points="59.55 29.04 67 29.04 67 34 59.55 34 57.71 31.52"/>
    <polygon transform="matrix(1.057 0 0 1.058 -8.414 -4.737)" fill="#ea5a47" stroke-width="0.9454" points="54.55 48 62 48 62 52.96 54.55 52.96 52.71 50.48"/>
  </g>
  <g id="line">
    <polyline transform="matrix(1.059 0 0 1.058 -8.462 -4.752)" fill="none" stroke="#000" stroke-linecap="round" stroke-linejoin="round" stroke-width="1.889" points="60 28.75 60 17 49.32 17"/>
    <line x1="55.06" x2="55.06" y1="45.53" y2="31.68" fill="none" stroke="#000" stroke-linecap="round" stroke-linejoin="round" stroke-width="2"/>
    <polyline transform="matrix(1.059 0 0 1.058 -8.462 -4.752)" fill="none" stroke="#000" stroke-linecap="round" stroke-linejoin="round" stroke-width="1.889" points="22 63.09 22 65 60 65 60 53.33"/>
    <polyline transform="matrix(1.059 0 0 1.058 -8.462 -4.752)" fill="none" stroke="#000" stroke-linecap="round" stroke-linejoin="round" stroke-width="1.889" points="55 48 55 22.68 44.32 12 17 12 17 60 55 60 55 53"/>
    <polyline transform="matrix(1.059 0 0 1.058 -8.462 -4.752)" fill="none" stroke="#000" stroke-linecap="round" stroke-linejoin="round" stroke-width="1.889" points="55 23 44.3 23 44.32 12"/>
    <polygon transform="matrix(1.059 0 0 1.058 -8.462 -4.752)" fill="none" stroke="#000" stroke-linecap="round" stroke-linejoin="round" stroke-width="1.889" points="59.55 34 57.71 31.52 59.55 29.04 67 29.04 67 34"/>
    <polygon transform="matrix(1.059 0 0 1.058 -8.462 -4.752)" fill="none" stroke="#000" stroke-linecap="round" stroke-linejoin="round" stroke-width="1.889" points="54.55 52.96 52.71 50.48 54.55 48 62 48 62 52.96"/>
    <line x1="15.89" x2="30.71" y1="17.48" y2="17.48" fill="none" stroke="#000" stroke-linecap="round" stroke-linejoin="round" stroke-width="2"/>
    <line x1="15.89" x2="43.41" y1="25.94" y2="25.94" fill="none" stroke="#000" stroke-linecap="round" stroke-linejoin="round" stroke-width="2"/>
    <line x1="15.89" x2="43.41" y1="33.35" y2="33.35" fill="none" stroke="#000" stroke-linecap="round" stroke-linejoin="round" stroke-width="2"/>
    <line x1="15.89" x2="43.41" y1="41.82" y2="41.82" fill="none" stroke="#000" stroke-linecap="round" stroke-linejoin="round" stroke-width="2"/>
    <line x1="15.89" x2="43.41" y1="50.29" y2="50.29" fill="none" stroke="#000" stroke-linecap="round" stroke-linejoin="round" stroke-width="2"/>
  </g>
</svg>
