<?xml version="1.0" encoding="UTF-8"?>
<svg id="emoji" xmlns="http://www.w3.org/2000/svg" viewBox="0 0 72 72">
  <g id="grid">
    <path d="m68,4v64H4V4h64M72,0H0v72h72V0Z" fill="#b3b3b3"/>
    <path d="m12.923,10.9583h46.1539c1.0621,0,1.9231.861,1.9231,1.9231h0v46.1538c0,1.0621-.861,1.9231-1.9231,1.9231H12.9231c-1.0621,0-1.9231-.861-1.9231-1.9231h0V12.8813c0-1.062.861-1.923,1.923-1.923h0Z" fill="none" stroke="#00a5ff" stroke-miterlimit="10" stroke-width=".1"/>
    <rect x="16" y="4" width="40" height="64" rx="2.2537" ry="2.2537" fill="none" stroke="#00a5ff" stroke-miterlimit="10" stroke-width=".1"/>
    <rect x="4" y="16" width="64" height="40" rx="2.2537" ry="2.2537" fill="none" stroke="#00a5ff" stroke-miterlimit="10" stroke-width=".1"/>
    <circle cx="36" cy="36" r="29" fill="none" stroke="#00a5ff" stroke-miterlimit="10" stroke-width=".1"/>
  </g>
  <g id="color">
    <path d="m15.0085,57.9906l41.8485-.3812c1.6527-.0052,2.9897-1.0964,2.9897-2.7491V15.1491c0-1.6564-1.3427-2.9991-2.9991-2.9991H16.9535c-.8205,0-1.6052.3362-2.1712.9302l-1.9544,2.051c-.5314.5577-.8279,1.2985-.8279,2.0689v37.7914c0,1.66,1.3485,3.0043,3.0085,2.9991Z" fill="#fff"/>
    <path d="m55.0015,61H11.9985c-.5515,0-.9985-.447-.9985-.9985V16.9985c0-.5515.447-.9985.9985-.9985h43.003c.5515,0,.9985.447.9985.9985v43.003c0,.5515-.447.9985-.9985.9985Z" fill="#d22f27"/>
  </g>
  <g id="line">
    <path d="m11.164,16.4512l4.8345-4.4512h43.003c.5515,0,.9985.447.9985.9985v43.003c0,.5515-.447.9985-.9985.9985" fill="none" stroke="#000" stroke-linecap="round" stroke-linejoin="round" stroke-width="2"/>
    <path d="m55.0015,61H11.9985c-.5515,0-.9985-.447-.9985-.9985V16.9985c0-.5515.447-.9985.9985-.9985h43.003c.5515,0,.9985.447.9985.9985v43.003c0,.5515-.447.9985-.9985.9985Z" fill="none" stroke="#000" stroke-linecap="round" stroke-linejoin="round" stroke-width="2"/>
  </g>
</svg>