<svg id="emoji" xmlns="http://www.w3.org/2000/svg" viewBox="0 0 72 72">
  <g id="grid">
    <path d="M68,4V68H4V4H68m4-4H0V72H72V0Z" fill="#b3b3b3"></path>
    <path d="M12.923,10.9583H59.0769A1.9231,1.9231,0,0,1,61,12.8814V59.0352a1.9231,1.9231,0,0,1-1.9231,1.9231H12.9231A1.9231,1.9231,0,0,1,11,59.0352V12.8813A1.923,1.923,0,0,1,12.923,10.9583Z" fill="none" stroke="#00a5ff" stroke-miterlimit="10" stroke-width="0.1"></path>
    <rect x="16" y="4" width="40" height="64" rx="2.2537" fill="none" stroke="#00a5ff" stroke-miterlimit="10" stroke-width="0.1"></rect>
    <rect x="16" y="4" width="40" height="64" rx="2.2537" transform="translate(72) rotate(90)" fill="none" stroke="#00a5ff" stroke-miterlimit="10" stroke-width="0.1"></rect>
    <circle cx="36" cy="36" r="29" fill="none" stroke="#00a5ff" stroke-miterlimit="10" stroke-width="0.1"></circle>
  </g>
  <g id="color">
    <path fill="#D0CFCE" stroke="#D0CFCE" stroke-width="2" stroke-linecap="round" stroke-linejoin="round" stroke-miterlimit="10" d="
		M21.3751,31.1747c-0.3501-8.7708,6.4491-18.5395,14.387-18.7794c8.0047-0.2419,16.5412,10.9698,14.333,19.052h-4.0394
		c0,0,1.5619-7.922-2.2164-11.2535c-1.8494-1.6307-5.2556-4.771-8.6396-4.2922c-2.2829,0.323-6.8677,3.4518-7.9271,5.4209
		c-2.0643,3.8367-1.7248,9.8169-1.7248,9.8169L21.3751,31.1747z"></path>
    <polygon fill="#FCEA2B" points="53,32.2969 54.875,32.2969 54.875,59.1719 16.875,59.1719 16.875,32.2969 18.75,32.2969 	" stroke="none"></polygon>
    <polygon fill="#F1B31C" points="54.4302,32.493 35.66,58.9944 54.9675,58.9944 	" stroke="none"></polygon>
  </g>
  <g id="hair">
  </g>
  <g id="skin">
  </g>
  <g id="skin-shadow">
  </g>
  <g id="line">
    <polygon fill="none" stroke="#000000" stroke-width="2" stroke-linecap="round" stroke-linejoin="round" stroke-miterlimit="10" points="
		53,32.25 54.875,32.25 54.875,59.125 16.875,59.125 16.875,32.25 18.75,32.25 	"></polygon>
    <path fill="none" stroke="#000000" stroke-width="2" stroke-linecap="round" stroke-linejoin="round" stroke-miterlimit="10" d="
		M21.3751,28.9146c0-8.3786,6.4151-16.2744,14.3184-16.523c7.9697-0.2507,15.4098,7.2847,14.7416,16.523"></path>
    <path fill="none" stroke="#000000" stroke-width="2" stroke-linecap="round" stroke-linejoin="round" stroke-miterlimit="10" d="
		M25.5478,28.9146c0-6.3352,4.5755-12.3054,10.2123-12.4934c5.6843-0.1896,10.9908,5.5081,10.5142,12.4934"></path>
    <path fill="none" stroke="#000000" stroke-width="2" stroke-linecap="round" stroke-linejoin="round" stroke-miterlimit="10" d="
		M46.3042,29.9146"></path>
  </g>
</svg>