<svg id="emoji" xmlns="http://www.w3.org/2000/svg" viewBox="0 0 72 72">
  <g id="grid">
    <path d="M68,4V68H4V4H68m4-4H0V72H72V0Z" fill="#b3b3b3"></path>
    <path d="M12.923,10.9583H59.0769A1.9231,1.9231,0,0,1,61,12.8814V59.0352a1.9231,1.9231,0,0,1-1.9231,1.9231H12.9231A1.9231,1.9231,0,0,1,11,59.0352V12.8813A1.923,1.923,0,0,1,12.923,10.9583Z" fill="none" stroke="#00a5ff" stroke-miterlimit="10" stroke-width="0.1"></path>
    <rect x="16" y="4" width="40" height="64" rx="2.2537" fill="none" stroke="#00a5ff" stroke-miterlimit="10" stroke-width="0.1"></rect>
    <rect x="16" y="4" width="40" height="64" rx="2.2537" transform="translate(72) rotate(90)" fill="none" stroke="#00a5ff" stroke-miterlimit="10" stroke-width="0.1"></rect>
    <circle cx="36" cy="36" r="29" fill="none" stroke="#00a5ff" stroke-miterlimit="10" stroke-width="0.1"></circle>
  </g>
  <g id="color">
    <ellipse fill="#FFFFFF" stroke="none" stroke-width="2" stroke-linecap="round" stroke-linejoin="round" stroke-miterlimit="10" cx="19.5477" cy="35.9583" rx="14.4692" ry="24.6554"></ellipse>
    <ellipse fill="#FFFFFF" stroke="none" stroke-width="2" stroke-linecap="round" stroke-linejoin="round" stroke-miterlimit="10" cx="52.4523" cy="35.9583" rx="14.4692" ry="24.6554"></ellipse>
    <ellipse fill="none" cx="52.4523" cy="35.9583" rx="14.4692" ry="24.6554" stroke="none"></ellipse>
    <circle fill="#a57939" cx="46.0104" cy="37.8173" r="8.0273" stroke="none"></circle>
    <ellipse fill="none" cx="19.5477" cy="35.9583" rx="14.4692" ry="24.6554" stroke="none"></ellipse>
    <circle fill="#a57939" cx="13.1058" cy="37.8173" r="8.0273" stroke="none"></circle>
  </g>
  <g id="hair">
  </g>
  <g id="skin">
  </g>
  <g id="skin-shadow">
  </g>
  <g id="line">
    <ellipse fill="none" stroke="#000000" stroke-width="2" stroke-linecap="round" stroke-linejoin="round" stroke-miterlimit="10" cx="19.5477" cy="35.9583" rx="14.4692" ry="24.6554"></ellipse>
    <ellipse fill="none" stroke="#000000" stroke-width="2" stroke-linecap="round" stroke-linejoin="round" stroke-miterlimit="10" cx="52.4523" cy="35.9583" rx="14.4692" ry="24.6554"></ellipse>
    <circle cx="13.1058" cy="37.8173" r="3.6229" fill="#000000" stroke="none"></circle>
    <circle cx="46.0104" cy="37.8173" r="3.6229" fill="#000000" stroke="none"></circle>
    <circle fill="none" stroke="#000000" stroke-width="2" stroke-linecap="round" stroke-linejoin="round" stroke-miterlimit="10" cx="13.1058" cy="37.8173" r="3.6229"></circle>
    <circle fill="none" stroke="#000000" stroke-width="2" stroke-linecap="round" stroke-linejoin="round" stroke-miterlimit="10" cx="13.1058" cy="37.8173" r="8.0273"></circle>
    <circle fill="none" stroke="#000000" stroke-width="2" stroke-linecap="round" stroke-linejoin="round" stroke-miterlimit="10" cx="46.0104" cy="37.8173" r="3.6229"></circle>
    <circle fill="none" stroke="#000000" stroke-width="2" stroke-linecap="round" stroke-linejoin="round" stroke-miterlimit="10" cx="46.0104" cy="37.8173" r="8.0273"></circle>
  </g>
</svg>