<svg id="emoji" xmlns="http://www.w3.org/2000/svg" viewBox="0 0 72 72">
  <g id="grid">
    <path d="M68,4V68H4V4H68m4-4H0V72H72V0Z" fill="#b3b3b3"></path>
    <path d="M12.923,10.9583H59.0769A1.9231,1.9231,0,0,1,61,12.8814V59.0352a1.9231,1.9231,0,0,1-1.9231,1.9231H12.9231A1.9231,1.9231,0,0,1,11,59.0352V12.8813A1.923,1.923,0,0,1,12.923,10.9583Z" fill="none" stroke="#00a5ff" stroke-miterlimit="10" stroke-width="0.1"></path>
    <rect x="16" y="4" width="40" height="64" rx="2.2537" fill="none" stroke="#00a5ff" stroke-miterlimit="10" stroke-width="0.1"></rect>
    <rect x="16" y="4" width="40" height="64" rx="2.2537" transform="translate(72) rotate(90)" fill="none" stroke="#00a5ff" stroke-miterlimit="10" stroke-width="0.1"></rect>
    <circle cx="36" cy="36" r="29" fill="none" stroke="#00a5ff" stroke-miterlimit="10" stroke-width="0.1"></circle>
  </g>
  <g id="color">
    <path fill="#FFFFFF" d="M7.6875,31.4375c7.1875,11.9375,20.4718,18.9653,29.5625,21.5c4.5378,1.2652,16.125,9.75,16.125,9.75
		S50.4832,54.1918,50,51.25c-1.8349-11.1713,13.0625-12.5,14.5311-20.4657C56,10.9583,26-6.6875,7.6875,31.4375z" stroke="none"></path>
    <path fill="#FFFFFF" stroke="none" stroke-width="2" stroke-linecap="round" stroke-linejoin="round" stroke-miterlimit="10" d="
		M7.6875,31.4375c7.1875,11.9375,20.4718,18.9653,29.5625,21.5c4.5378,1.2652,16.125,9.75,16.125,9.75S50.4832,54.1918,50,51.25
		c-1.8349-11.1713,13.0625-12.5,14.5311-20.4657C56,10.9583,26-6.6875,7.6875,31.4375z"></path>
    <circle fill="#a57939" cx="36" cy="30.5" r="14.2224" stroke="none"></circle>
  </g>
  <g id="hair">
  </g>
  <g id="skin">
  </g>
  <g id="skin-shadow">
  </g>
  <g id="line">
    <path fill="none" stroke="#000000" stroke-width="2" stroke-linecap="round" stroke-linejoin="round" stroke-miterlimit="10" d="
		M7.6875,31.4375c7.1875,11.9375,20.4718,18.9653,29.5625,21.5c4.5378,1.2652,16.125,9.75,16.125,9.75S50.4832,54.1918,50,51.25
		c-1.8349-11.1713,13.0625-12.5,14.5311-20.4657C56,10.9583,26-6.6875,7.6875,31.4375z"></path>
    <circle cx="36" cy="30.5" r="7.7815" fill="#000000" stroke="none"></circle>
    <circle fill="none" stroke="#000000" stroke-width="2" stroke-linecap="round" stroke-linejoin="round" stroke-miterlimit="10" cx="36" cy="30.5" r="14.2224"></circle>
    <circle fill="none" stroke="#000000" stroke-width="2" stroke-linecap="round" stroke-linejoin="round" stroke-miterlimit="10" cx="36" cy="30.5" r="7.7815"></circle>
  </g>
</svg>