<svg id="emoji" xmlns="http://www.w3.org/2000/svg" viewBox="0 0 72 72">
  <g id="grid">
    <path d="M68,4V68H4V4H68m4-4H0V72H72V0Z" fill="#b3b3b3"></path>
    <path d="M12.923,10.9583H59.0769A1.9231,1.9231,0,0,1,61,12.8814V59.0352a1.9231,1.9231,0,0,1-1.9231,1.9231H12.9231A1.9231,1.9231,0,0,1,11,59.0352V12.8813A1.923,1.923,0,0,1,12.923,10.9583Z" fill="none" stroke="#00a5ff" stroke-miterlimit="10" stroke-width="0.1"></path>
    <rect x="16" y="4" width="40" height="64" rx="2.2537" fill="none" stroke="#00a5ff" stroke-miterlimit="10" stroke-width="0.1"></rect>
    <rect x="16" y="4" width="40" height="64" rx="2.2537" transform="translate(72) rotate(90)" fill="none" stroke="#00a5ff" stroke-miterlimit="10" stroke-width="0.1"></rect>
    <circle cx="36" cy="36" r="29" fill="none" stroke="#00a5ff" stroke-miterlimit="10" stroke-width="0.1"></circle>
  </g>
  <g id="color">
    <path fill="#fcea2b" stroke="none" stroke-width="2" stroke-linecap="round" stroke-linejoin="round" d="M39.8217,32.5222
		l4.0087-21.643c1.8086-7.7501-5.693-10.0141-7.6152-1.7771l-3.6586,19.2358c-0.7941,3.5808-1.8856,5.1414-3.2721,5.7653l0,0
		c-2.3799,1.0711-4.5703-2.4069-5.5939-4.8077l-5.2927-12.413c-3.2362-7.0282-9.7419-3.7315-7.1376,2.7429l7.2784,16.5182
		l-1.2882-2.9677l-3.1633-7.2934c-2.7812-5.8647-8.75-3.521-6.8125,2.2915c0,0,4.3337,10.6624,5.6042,14.2813
		c1.6565,4.7184,3.351,14.8214,5.9365,19.1019c5.6263,9.3151,20.6085,8.1089,27.8661,0c2.0403-2.2795,5.6369-7.247,7.6442-9.5556
		c2.7887-3.2074,10.0855-11.5349,10.0855-11.5349c1.4629-2.1582,0.3282-5.4939-0.8007-4.6726l-14.6899,5.3904
		c-1.0085,0.339-1.6661-0.4599-2.0902-1.096c-0.3091-0.4636,0.0883-2.0531,0.2066-2.7705c1.3997-7.8137,2.7993-15.6273,4.199-23.441
		c1.195-5.9529-6.1175-8.1404-7.5747-2.0134"></path>
  </g>
  <g id="hair">
  </g>
  <g id="skin">
  </g>
  <g id="skin-shadow">
  </g>
  <g id="line">
    <path fill="none" stroke="#000000" stroke-width="2" stroke-linecap="round" stroke-linejoin="round" d="M39.8217,32.5222
		l4.0087-21.643c1.8086-7.7501-5.693-10.0141-7.6152-1.7771l-3.6586,19.2358c-0.7941,3.5808-1.8856,5.1414-3.2721,5.7653l0,0
		c-2.3799,1.0711-4.5703-2.4069-5.5939-4.8077l-5.2927-12.413c-3.2362-7.0282-9.7419-3.7315-7.1376,2.7429l7.2784,16.5182
		l-1.2882-2.9677l-3.1633-7.2934c-2.7812-5.8647-8.75-3.521-6.8125,2.2915c0,0,4.3337,10.6624,5.6042,14.2813
		c1.6565,4.7184,3.351,14.8214,5.9365,19.1019c5.6263,9.3151,20.6085,8.1089,27.8661,0c2.0403-2.2795,5.6369-7.247,7.6442-9.5556
		c2.7887-3.2074,10.0855-11.5349,10.0855-11.5349c1.4629-2.1582,0.3282-5.4939-0.8007-4.6726l-14.6899,5.3904
		c-1.0085,0.339-1.6661-0.4599-2.0902-1.096c-0.3091-0.4636,0.0883-2.0531,0.2066-2.7705c1.3997-7.8137,2.7993-15.6273,4.199-23.441
		c1.195-5.9529-6.1175-8.1404-7.5747-2.0134"></path>
    <path fill="none" stroke="#000000" stroke-width="2" stroke-linecap="round" stroke-linejoin="round" d="M39.8217,32.5222
		l4.0087-21.643c1.8086-7.7501-5.693-10.0141-7.6152-1.7771l-3.6586,19.2358c-0.7941,3.5808-1.8856,5.1414-3.2721,5.7653l0,0
		c-2.3799,1.0711-4.5703-2.4069-5.5939-4.8077l-5.2927-12.413c-3.2362-7.0282-9.7419-3.7315-7.1376,2.7429l7.2784,16.5182
		l-1.2882-2.9677l-3.1633-7.2934c-2.7812-5.8647-8.75-3.521-6.8125,2.2915c0,0,4.3337,10.6624,5.6042,14.2813
		c1.6565,4.7184,3.351,14.8214,5.9365,19.1019c5.6263,9.3151,20.6085,8.1089,27.8661,0c2.0403-2.2795,5.6369-7.247,7.6442-9.5556
		c2.7887-3.2074,10.0855-11.5349,10.0855-11.5349c1.4629-2.1582,0.3282-5.4939-0.8007-4.6726l-14.6899,5.3904
		c-1.0085,0.339-1.6661-0.4599-2.0902-1.096c-0.3091-0.4636,0.0883-2.0531,0.2066-2.7705c1.3997-7.8137,2.7993-15.6273,4.199-23.441
		c1.195-5.9529-6.1175-8.1404-7.5747-2.0134"></path>
  </g>
</svg>