<svg id="emoji" xmlns="http://www.w3.org/2000/svg" viewBox="0 0 72 72">
  <g id="grid">
    <path d="M68,4V68H4V4H68m4-4H0V72H72V0Z" fill="#b3b3b3"></path>
    <path d="M12.923,10.9583H59.0769A1.9231,1.9231,0,0,1,61,12.8814V59.0352a1.9231,1.9231,0,0,1-1.9231,1.9231H12.9231A1.9231,1.9231,0,0,1,11,59.0352V12.8813A1.923,1.923,0,0,1,12.923,10.9583Z" fill="none" stroke="#00a5ff" stroke-miterlimit="10" stroke-width="0.1"></path>
    <rect x="16" y="4" width="40" height="64" rx="2.2537" fill="none" stroke="#00a5ff" stroke-miterlimit="10" stroke-width="0.1"></rect>
    <rect x="16" y="4" width="40" height="64" rx="2.2537" transform="translate(72) rotate(90)" fill="none" stroke="#00a5ff" stroke-miterlimit="10" stroke-width="0.1"></rect>
    <circle cx="36" cy="36" r="29" fill="none" stroke="#00a5ff" stroke-miterlimit="10" stroke-width="0.1"></circle>
  </g>
  <g id="color">
    <path fill="#fcea2b" stroke="none" stroke-width="2" stroke-linecap="round" stroke-linejoin="round" stroke-miterlimit="10" d="
		M43.875,47.4062c-0.7812,0.9585-1.2656,1.5173-2.5312,1.9171"></path>
    <path fill="#fcea2b" stroke="none" stroke-width="2" stroke-linecap="round" stroke-linejoin="round" stroke-miterlimit="10" d="
		M43.875,47.4062l8.4688-9.8125C53.625,36,54.625,35.6875,55.6875,35.4375l9.0401-1.9202c4.5904-5.0842,4.19-12.927-0.8941-17.5173
		L12.5,18.0833c-3.2917,0.3333-7.099,2.3638-7.6823,6.6224l0.0156,20.4609C4.5312,48.9375,8.6562,50.2812,13,48.625
		c-1,8.4375,3,9.5625,7.4375,8.4375l20.9063-7.7392"></path>
    <path fill="#fcea2b" stroke="none" stroke-width="2" stroke-linecap="round" stroke-linejoin="round" stroke-miterlimit="10" d="
		M15.3139,29.1676c0,4.0625,4.892,4.3437,10.9375,4.3437c-0.5,4.0312-2.5938,8.625-10.0312,12.995"></path>
  </g>
  <g id="hair">
  </g>
  <g id="skin">
  </g>
  <g id="skin-shadow">
  </g>
  <g id="line">
    <path fill="none" stroke="#000000" stroke-width="2" stroke-linecap="round" stroke-linejoin="round" stroke-miterlimit="10" d="
		M43.875,47.4062c-0.7812,0.9585-1.2656,1.5173-2.5312,1.9171"></path>
    <path fill="none" stroke="#000000" stroke-width="2" stroke-linecap="round" stroke-linejoin="round" stroke-miterlimit="10" d="
		M43.875,47.4062l8.4688-9.8125C53.625,36,54.625,35.6875,55.6875,35.4375l9.0401-1.9202c4.5904-5.0842,4.19-12.927-0.8941-17.5173
		L12.5,18.0833c-3.2917,0.3333-7.099,2.3638-7.6823,6.6224l0.0156,20.4609C4.5312,48.9375,8.6562,50.2812,13,48.625
		c-1,8.4375,3,9.5625,7.4375,8.4375l20.9063-7.7392"></path>
    <path fill="none" stroke="#000000" stroke-width="2" stroke-linecap="round" stroke-linejoin="round" stroke-miterlimit="10" d="
		M15.3139,29.1676c0,4.0625,4.892,4.3437,10.9375,4.3437c-0.5,4.0312-2.5938,8.625-10.0312,12.995"></path>
    <path fill="none" stroke="#000000" stroke-width="2" stroke-linecap="round" stroke-linejoin="round" stroke-miterlimit="10" d="
		M43.875,47.4062c-0.7812,0.9585-1.2656,1.5173-2.5312,1.9171"></path>
    <path fill="none" stroke="#000000" stroke-width="2" stroke-linecap="round" stroke-linejoin="round" stroke-miterlimit="10" d="
		M43.875,47.4062l8.4688-9.8125C53.625,36,54.625,35.6875,55.6875,35.4375l9.0401-1.9202c4.5904-5.0842,4.19-12.927-0.8941-17.5173
		L12.5,18.0833c-3.2917,0.3333-7.099,2.3638-7.6823,6.6224l0.0156,20.4609C4.5312,48.9375,8.6562,50.2812,13,48.625
		c-1,8.4375,3,9.5625,7.4375,8.4375l20.9063-7.7392"></path>
    <path fill="none" stroke="#000000" stroke-width="2" stroke-linecap="round" stroke-linejoin="round" stroke-miterlimit="10" d="
		M15.3139,29.1676c0,4.0625,4.892,4.3437,10.9375,4.3437c-0.5,4.0312-2.5938,8.625-10.0312,12.995"></path>
  </g>
</svg>