<svg id="emoji" xmlns="http://www.w3.org/2000/svg" viewBox="0 0 72 72">
  <g id="grid">
    <path d="M68,4V68H4V4H68m4-4H0V72H72V0Z" fill="#b3b3b3"></path>
    <path d="M12.923,10.9583H59.0769A1.9231,1.9231,0,0,1,61,12.8814V59.0352a1.9231,1.9231,0,0,1-1.9231,1.9231H12.9231A1.9231,1.9231,0,0,1,11,59.0352V12.8813A1.923,1.923,0,0,1,12.923,10.9583Z" fill="none" stroke="#00a5ff" stroke-miterlimit="10" stroke-width="0.1"></path>
    <rect x="16" y="4" width="40" height="64" rx="2.2537" fill="none" stroke="#00a5ff" stroke-miterlimit="10" stroke-width="0.1"></rect>
    <rect x="16" y="4" width="40" height="64" rx="2.2537" transform="translate(72) rotate(90)" fill="none" stroke="#00a5ff" stroke-miterlimit="10" stroke-width="0.1"></rect>
    <circle cx="36" cy="36" r="29" fill="none" stroke="#00a5ff" stroke-miterlimit="10" stroke-width="0.1"></circle>
  </g>
  <g id="color">
    <path fill="#fcea2b" d="M12.2395,44.1114l-8.9632-9.589C0.1081,24.2872,7.4792,8.1667,20.5059,8.7529" stroke="none"></path>
    <path fill="#fcea2b" d="M11.9606,42.3702c2.789,0,32.6466,18.096,32.6466,16.2032c5.8689-5.8733,9.7679-5.1984,8.1637-9.2575
		c4.1042,1.9966,7.6042-1.1284,7.0625-4.644c3.6328,0.6562,5.8542-2.3047,4.8333-5.8359c8.3333-5.6693,8.5523-22.5884,0-27.8777
		C61.4375,8.5,60.25,17.1875,55,15.2936L37.0847,9.7358L26.3426,6.7535c-2.1607-0.5672-4.3965,0.6115-5.1496,2.7147l-3.2383,9.4612
		c-0.785,1.9148,0.1129,4.1051,2.0161,4.9179c2.0552,0.511,4.1783-0.5407,5.0171-2.4852l1.318-2.1737
		c0.9372-1.9908,2.6353-4.4471,5.2353-3.3647L57.625,30.9167c2.7083,1.7917,6.4583,6.2792,7.0417,7.9193" stroke="none"></path>
    <polygon fill="#fcea2b" points="64.8713,39.8682 11.9606,42.7594 18.3152,12.875 56.6875,16.9375 	" stroke="none"></polygon>
    <path fill="#fcea2b" stroke="none" stroke-width="2" stroke-linecap="round" stroke-linejoin="round" d="M30.9284,53.7564
		c1.1766-1.5552,2.9348-1.825,4.5402-0.9155c1.5003,0.85,2.6066,2.5597,1.55,4.3626c0,0-1.131,1.9032-1.4506,2.5675
		c-0.1355,0.2817-0.2713,0.5633-0.4599,0.8126c-1.1766,1.5552-3.3911,1.8622-4.9463,0.6856s-1.8622-3.3911-0.6856-4.9463
		C29.4761,56.3229,30.9287,53.7566,30.9284,53.7564z"></path>
    <path fill="#fcea2b" stroke="none" stroke-width="2" stroke-linecap="round" stroke-linejoin="round" d="M24.8154,50.2963
		c1.1766-1.5552,2.9348-1.825,4.5402-0.9155c1.5003,0.85,2.6066,2.5597,1.55,4.3626c0,0-1.131,1.9032-1.4506,2.5675
		c-0.1355,0.2817-0.2713,0.5633-0.4599,0.8126c-1.1766,1.5552-3.3911,1.8622-4.9463,0.6856
		c-1.5552-1.1766-1.8622-3.3911-0.6856-4.9463C23.3631,52.8629,24.8157,50.2965,24.8154,50.2963z"></path>
    <path fill="#fcea2b" stroke="none" stroke-width="2" stroke-linecap="round" stroke-linejoin="round" d="M18.7024,46.8362
		c1.1766-1.5552,2.9348-1.825,4.5402-0.9155c1.5003,0.85,2.6066,2.5597,1.55,4.3626c0,0-1.131,1.9032-1.4506,2.5675
		c-0.1355,0.2817-0.2713,0.5633-0.4599,0.8126c-1.1766,1.5552-3.3911,1.8622-4.9463,0.6856s-1.8622-3.3911-0.6856-4.9463
		C17.2501,49.4028,18.7027,46.8364,18.7024,46.8362z"></path>
    <path fill="#fcea2b" stroke="none" stroke-width="2" stroke-linecap="round" stroke-linejoin="round" d="M12.5893,43.3761
		c1.1766-1.5552,2.9348-1.825,4.5402-0.9155c1.5003,0.85,2.6066,2.5597,1.55,4.3626c0,0-1.131,1.9032-1.4506,2.5675
		c-0.1355,0.2817-0.2713,0.5633-0.4599,0.8126c-1.1766,1.5552-3.3911,1.8622-4.9463,0.6856s-1.8622-3.3911-0.6856-4.9463
		C11.1371,45.9427,12.5897,43.3763,12.5893,43.3761z"></path>
  </g>
  <g id="hair">
  </g>
  <g id="skin">
  </g>
  <g id="skin-shadow">
  </g>
  <g id="line">
    <line opacity="0.56" fill="none" stroke="#000000" stroke-width="2" stroke-linecap="round" stroke-linejoin="round" x1="37.6479" y1="41.0625" x2="52.7708" y2="49.3159"></line>
    <line opacity="0.56" fill="none" stroke="#000000" stroke-width="2" stroke-linecap="round" stroke-linejoin="round" x1="31" y1="45.625" x2="47.5875" y2="53.9506"></line>
    <polyline opacity="0.56" fill="none" stroke="#000000" stroke-width="2" stroke-linecap="round" stroke-linejoin="round" points="
		59.8333,44.6719 55.5833,40.5417 42.5417,33.75 	"></polyline>
    <path fill="none" stroke="#000000" stroke-width="2" stroke-linecap="round" stroke-linejoin="round" stroke-miterlimit="10" d="
		M12.3244,42.7594c0,0-6.8662-6.3361-8.4123-8.9996C-1.1361,25.0631,5.69,10.7494,17.099,9.8133"></path>
    <line fill="none" stroke="#000000" stroke-width="2" stroke-linecap="round" stroke-linejoin="round" x1="37.6479" y1="41.0625" x2="52.7708" y2="49.3159"></line>
    <line fill="none" stroke="#000000" stroke-width="2" stroke-linecap="round" stroke-linejoin="round" x1="31" y1="45.625" x2="47.5875" y2="53.9506"></line>
    <polyline fill="none" stroke="#000000" stroke-width="2" stroke-linecap="round" stroke-linejoin="round" points="59.8333,44.6719 
		54.3645,39.907 42.5417,33.75 	"></polyline>
    <path fill="none" stroke="#000000" stroke-width="2" stroke-linecap="round" stroke-linejoin="round" d="M37.4363,56.0882
		c9.2889,5.8963,11.6711-0.3111,10.1512-2.1376c2.975,1.7122,6.7875-0.5756,5.1833-4.6347c4.1042,1.9966,7.6042-1.1284,7.0625-4.644
		c3.6328,0.6562,5.8542-2.3047,4.8333-5.8359c8.3333-5.6693,8.5523-22.5884,0-27.8777C61.4375,8.5,60.25,17.1875,55,15.2936
		L37.0847,9.7358L26.3426,6.7535c-2.1607-0.5672-4.3965,0.6115-5.1496,2.7147l-3.2383,9.4612
		c-0.785,1.9148,0.1129,4.1051,2.0161,4.9179c2.0552,0.511,4.1783-0.5407,5.0171-2.4852l1.318-2.1737
		c0.9372-1.9908,2.6353-4.4471,5.2353-3.3647L57.625,30.9167c2.7083,1.7917,6.4583,6.2792,7.0417,7.9193"></path>
    <path fill="none" stroke="#000000" stroke-width="2" stroke-linecap="round" stroke-linejoin="round" d="M30.9284,53.7564
		c1.1766-1.5552,2.9348-1.825,4.5402-0.9155c1.5003,0.85,2.6066,2.5597,1.55,4.3626c0,0-1.131,1.9032-1.4506,2.5675
		c-0.1355,0.2817-0.2713,0.5633-0.4599,0.8126c-1.1766,1.5552-3.3911,1.8622-4.9463,0.6856s-1.8622-3.3911-0.6856-4.9463
		C29.4761,56.3229,30.9287,53.7566,30.9284,53.7564z"></path>
    <path fill="none" stroke="#000000" stroke-width="2" stroke-linecap="round" stroke-linejoin="round" d="M24.8154,50.2963
		c1.1766-1.5552,2.9348-1.825,4.5402-0.9155c1.5003,0.85,2.6066,2.5597,1.55,4.3626c0,0-1.131,1.9032-1.4506,2.5675
		c-0.1355,0.2817-0.2713,0.5633-0.4599,0.8126c-1.1766,1.5552-3.3911,1.8622-4.9463,0.6856
		c-1.5552-1.1766-1.8622-3.3911-0.6856-4.9463C23.3631,52.8629,24.8157,50.2965,24.8154,50.2963z"></path>
    <path fill="none" stroke="#000000" stroke-width="2" stroke-linecap="round" stroke-linejoin="round" d="M18.7024,46.8362
		c1.1766-1.5552,2.9348-1.825,4.5402-0.9155c1.5003,0.85,2.6066,2.5597,1.55,4.3626c0,0-1.131,1.9032-1.4506,2.5675
		c-0.1355,0.2817-0.2713,0.5633-0.4599,0.8126c-1.1766,1.5552-3.3911,1.8622-4.9463,0.6856s-1.8622-3.3911-0.6856-4.9463
		C17.2501,49.4028,18.7027,46.8364,18.7024,46.8362z"></path>
    <path fill="none" stroke="#000000" stroke-width="2" stroke-linecap="round" stroke-linejoin="round" d="M12.5893,43.3761
		c1.1766-1.5552,2.9348-1.825,4.5402-0.9155c1.5003,0.85,2.6066,2.5597,1.55,4.3626c0,0-1.131,1.9032-1.4506,2.5675
		c-0.1355,0.2817-0.2713,0.5633-0.4599,0.8126c-1.1766,1.5552-3.3911,1.8622-4.9463,0.6856s-1.8622-3.3911-0.6856-4.9463
		C11.1371,45.9427,12.5897,43.3763,12.5893,43.3761z"></path>
  </g>
</svg>