<svg id="emoji" xmlns="http://www.w3.org/2000/svg" viewBox="0 0 72 72">
  <g id="grid">
    <path d="M68,4V68H4V4H68m4-4H0V72H72V0Z" fill="#b3b3b3"></path>
    <path d="M12.923,10.9583H59.0769A1.9231,1.9231,0,0,1,61,12.8814V59.0352a1.9231,1.9231,0,0,1-1.9231,1.9231H12.9231A1.9231,1.9231,0,0,1,11,59.0352V12.8813A1.923,1.923,0,0,1,12.923,10.9583Z" fill="none" stroke="#00a5ff" stroke-miterlimit="10" stroke-width="0.1"></path>
    <rect x="16" y="4" width="40" height="64" rx="2.2537" fill="none" stroke="#00a5ff" stroke-miterlimit="10" stroke-width="0.1"></rect>
    <rect x="16" y="4" width="40" height="64" rx="2.2537" transform="translate(72) rotate(90)" fill="none" stroke="#00a5ff" stroke-miterlimit="10" stroke-width="0.1"></rect>
    <circle cx="36" cy="36" r="29" fill="none" stroke="#00a5ff" stroke-miterlimit="10" stroke-width="0.1"></circle>
  </g>
  <g id="color">
    <line fill="#ea5a47" x1="16" y1="35" x2="25.875" y2="35" stroke="none"></line>
    <path fill="#ea5a47" d="M25.875,35c3.4167,0,4.75-2.9167,4.75-6.1667" stroke="none"></path>
    <line fill="#ea5a47" x1="16" y1="45.5" x2="19.75" y2="45.5" stroke="none"></line>
    <line fill="#ea5a47" x1="35.2997" y1="45.5" x2="35.2997" y2="39.4375" stroke="none"></line>
    <path fill="#ea5a47" d="M35.2997,39.4375c0-2.2455,1.2003-5.25,5.0756-5.25" stroke="none"></path>
    <line fill="#ea5a47" x1="58.4583" y1="34.5417" x2="49.875" y2="34.5417" stroke="none"></line>
    <path fill="#FFA7C0" d="M40.375,45.5c0,0,0.1642,10.5-7.9583,10.5H16c-7.2083,0-7.6667-10.5,0-10.5C8.7917,45.5,8.3333,35,16,35
			c-8.1667-7.25,1.875-13.5625,6.5-8.6875c-4.799-6.625,5.375-10.3125,8.875-5C30.9627,16,36.2222,15.0417,41.1003,19.024
			l-0.4336,0.351c2.375-2.375,10.1776-1.0833,10.1776,5.3141l-2.2192,1.6234c6.8646-6.8646,14.2083,4.1875,8.5,8.2292h1.3333
			c4.75,0,5.2917,10.9583-1.3333,10.9583H29.2917" stroke="none"></path>
    <path fill="#ea5a47" d="M40.6667,19.375c-2.4167,2.4167-0.2822,3.1782-4.2707,7.1667" stroke="none"></path>
  </g>
  <g id="hair">
  </g>
  <g id="skin">
  </g>
  <g id="skin-shadow">
  </g>
  <g id="line">
    <line fill="none" stroke="#000000" stroke-width="2" stroke-linecap="round" stroke-linejoin="round" stroke-miterlimit="10" x1="16" y1="35" x2="25.875" y2="35"></line>
    <path fill="none" stroke="#000000" stroke-width="2" stroke-linecap="round" stroke-linejoin="round" stroke-miterlimit="10" d="
			M25.875,35c3.4167,0,4.75-2.9167,4.75-6.1667"></path>
    <line fill="none" stroke="#000000" stroke-width="2" stroke-linecap="round" stroke-linejoin="round" stroke-miterlimit="10" x1="16" y1="45.5" x2="19.75" y2="45.5"></line>
    <line fill="none" stroke="#000000" stroke-width="2" stroke-linecap="round" stroke-linejoin="round" stroke-miterlimit="10" x1="35.2997" y1="45.5" x2="35.2997" y2="39.4375"></line>
    <path fill="none" stroke="#000000" stroke-width="2" stroke-linecap="round" stroke-linejoin="round" stroke-miterlimit="10" d="
			M35.2997,39.4375c0-2.2455,1.2003-5.25,5.0756-5.25"></path>
    <line fill="none" stroke="#000000" stroke-width="2" stroke-linecap="round" stroke-linejoin="round" stroke-miterlimit="10" x1="58.4583" y1="34.5417" x2="49.875" y2="34.5417"></line>
    <path fill="none" stroke="#000000" stroke-width="2" stroke-linecap="round" stroke-linejoin="round" stroke-miterlimit="10" d="
			M40.375,45.5c0,0,0.1642,10.5-7.9583,10.5H16c-7.2083,0-7.6667-10.5,0-10.5C8.7917,45.5,8.3333,35,16,35
			c-8.1667-7.25,1.875-13.5625,6.5-8.6875c-4.799-6.625,5.375-10.3125,8.875-5C30.9627,16,36.2222,15.0417,41.1003,19.024
			l-0.4336,0.351c2.375-2.375,10.1776-1.0833,10.1776,5.3141l-2.2192,1.6234c6.8646-6.8646,14.2083,4.1875,8.5,8.2292h1.3333
			c4.75,0,5.2917,10.9583-1.3333,10.9583H29.2917"></path>
    <path fill="none" stroke="#000000" stroke-width="2" stroke-linecap="round" stroke-linejoin="round" stroke-miterlimit="10" d="
			M40.6667,19.375c-2.4167,2.4167-0.2822,3.1782-4.2707,7.1667"></path>
  </g>
</svg>