<svg id="emoji" xmlns="http://www.w3.org/2000/svg" viewBox="0 0 72 72">
  <g id="grid">
    <path d="M68,4V68H4V4H68m4-4H0V72H72V0Z" fill="#b3b3b3"/>
    <path d="M12.923,10.9583H59.0769A1.9231,1.9231,0,0,1,61,12.8814V59.0352a1.9231,1.9231,0,0,1-1.9231,1.9231H12.9231A1.9231,1.9231,0,0,1,11,59.0352V12.8813A1.923,1.923,0,0,1,12.923,10.9583Z" fill="none" stroke="#00a5ff" stroke-miterlimit="10" stroke-width=".1"/>
    <rect x="16" y="4" width="40" height="64" rx="2.2537" fill="none" stroke="#00a5ff" stroke-miterlimit="10" stroke-width=".1"/>
    <rect x="16" y="4" width="40" height="64" rx="2.2537" transform="translate(72) rotate(90)" fill="none" stroke="#00a5ff" stroke-miterlimit="10" stroke-width=".1"/>
    <circle cx="36" cy="36" r="29" fill="none" stroke="#00a5ff" stroke-miterlimit="10" stroke-width=".1"/>
  </g>
  <g id="color">
    <path fill="#d0cfce" stroke="#d0cfce" stroke-width="2" stroke-linecap="round" stroke-linejoin="round" stroke-miterlimit="10" d="M33.7701,47.4133l16.436,13.128l-0.001-49.166l-16.435,13.346"/>
    <line fill="#d0cfce" stroke="#d0cfce" stroke-width="2" stroke-linecap="round" stroke-linejoin="round" stroke-miterlimit="10" x1="33.7149" y1="24.8011" x2="33.7149" y2="46.0511"/>
    <path fill="#9b9b9a" stroke="#9b9b9a" stroke-width="1.9381" stroke-miterlimit="10" d="M32.7926,24.7213H20.8553 c-1.554,0.005-2.8125,1.3452-2.8172,3v16.692c0.0047,1.6548,1.2632,2.995,2.8172,3h11.9373"/>
  </g>
  <g id="hair"/>
  <g id="skin"/>
  <g id="skin-shadow"/>
  <g id="line">
    <path fill="none" stroke="#000000" stroke-width="2" stroke-linecap="round" stroke-linejoin="round" d="M50.2195,45.4881 l-0.0007-34.1129l-16.435,13.346h-4.1277"/>
    <path fill="none" stroke="#000000" stroke-width="2" stroke-linecap="round" stroke-linejoin="round" d="M20.2294,24.8434 c-1.2445,0.3664-2.1535,1.5155-2.1576,2.8778v16.692c0.005,1.6548,1.3452,2.995,3,3h12.712l16.436,13.128l-0.0001-5.659"/>
    <line fill="none" stroke="#000000" stroke-width="2" stroke-linecap="round" stroke-linejoin="round" x1="33.7838" y1="25.3332" x2="33.7838" y2="29"/>
    <line fill="none" stroke="#000000" stroke-width="2" stroke-linecap="round" stroke-linejoin="round" x1="33.7838" y1="39" x2="33.7838" y2="47.051"/>
    <path fill="none" stroke="#000000" stroke-width="2" stroke-linecap="round" stroke-linejoin="round" d="M30.1632,28"/>
    <path fill="none" stroke="#000000" stroke-width="2" stroke-linecap="round" stroke-linejoin="round" d="M30.1632,28"/>
    <line fill="none" stroke="#000000" stroke-width="2" stroke-linecap="round" stroke-linejoin="round" x1="11.6048" y1="11.7825" x2="60.1048" y2="60.2825"/>
  </g>
</svg>
