<svg id="emoji" xmlns="http://www.w3.org/2000/svg" viewBox="0 0 72 72">
  <g id="grid">
    <path d="M68,4V68H4V4H68m4-4H0V72H72V0Z" fill="#b3b3b3"/>
    <path d="M12.923,10.9583H59.0769A1.9231,1.9231,0,0,1,61,12.8814V59.0352a1.9231,1.9231,0,0,1-1.9231,1.9231H12.9231A1.9231,1.9231,0,0,1,11,59.0352V12.8813A1.923,1.923,0,0,1,12.923,10.9583Z" fill="none" stroke="#00a5ff" stroke-miterlimit="10" stroke-width=".1"/>
    <rect x="16" y="4" width="40" height="64" rx="2.2537" fill="none" stroke="#00a5ff" stroke-miterlimit="10" stroke-width=".1"/>
    <rect x="16" y="4" width="40" height="64" rx="2.2537" transform="translate(72) rotate(90)" fill="none" stroke="#00a5ff" stroke-miterlimit="10" stroke-width=".1"/>
    <circle cx="36" cy="36" r="29" fill="none" stroke="#00a5ff" stroke-miterlimit="10" stroke-width=".1"/>
  </g>
  <g id="color">
    <circle fill="#f1b31c" stroke="#f1b31c" stroke-width="2" stroke-miterlimit="10" cx="35.6102" cy="57.7716" r="5"/>
    <path fill="#fcea2b" d="M56.1048,56.7825c0,0-2.0587-3.7664-3.254-9.5855c-1.3523-6.5836-1.8795-15.5146-2.246-19.4145 c-0.7752-8.2479-6.7157-15-15-15h-0.5c-8.2843,0-14.2248,6.7521-15,15c-0.3665,3.8999-0.8937,12.8309-2.246,19.4145 c-1.1953,5.8191-3.254,9.5855-3.254,9.5855H56.1048z" stroke="none"/>
  </g>
  <g id="hair"/>
  <g id="skin"/>
  <g id="skin-shadow"/>
  <g id="line">
    <path fill="none" stroke="#000000" stroke-width="2" stroke-linecap="round" stroke-linejoin="round" d="M30.1048,13.2825 c0-2.7614,2.2386-5,5-5c2.7614,0,5,2.2386,5,5"/>
    <path fill="none" stroke="#000000" stroke-width="2" stroke-linecap="round" stroke-linejoin="round" d="M40.0872,60.0005 c-0.8174,1.6487-2.5176,2.782-4.4824,2.782c-1.9659,0-3.6667-1.1345-4.4836-2.7845"/>
    <path fill="none" stroke="#000000" stroke-width="1.8182" stroke-linecap="round" stroke-linejoin="round" stroke-miterlimit="10" d="M56.1048,56.7825c0,0-2.0587-3.7664-3.254-9.5855c-1.3523-6.5836-1.8795-15.5146-2.246-19.4145c-0.7752-8.2479-6.7157-15-15-15 h-0.5c-8.2843,0-14.2248,6.7521-15,15c-0.3665,3.8999-0.8937,12.8309-2.246,19.4145c-1.1953,5.8191-3.254,9.5855-3.254,9.5855 H56.1048z"/>
  </g>
</svg>
