<svg id="emoji" xmlns="http://www.w3.org/2000/svg" viewBox="0 0 72 72">
  <g id="grid">
    <path d="M68,4V68H4V4H68m4-4H0V72H72V0Z" fill="#b3b3b3"></path>
    <path d="M12.923,10.9583H59.0769A1.9231,1.9231,0,0,1,61,12.8814V59.0352a1.9231,1.9231,0,0,1-1.9231,1.9231H12.9231A1.9231,1.9231,0,0,1,11,59.0352V12.8813A1.923,1.923,0,0,1,12.923,10.9583Z" fill="none" stroke="#00a5ff" stroke-miterlimit="10" stroke-width="0.1"></path>
    <rect x="16" y="4" width="40" height="64" rx="2.2537" fill="none" stroke="#00a5ff" stroke-miterlimit="10" stroke-width="0.1"></rect>
    <rect x="16" y="4" width="40" height="64" rx="2.2537" transform="translate(72) rotate(90)" fill="none" stroke="#00a5ff" stroke-miterlimit="10" stroke-width="0.1"></rect>
    <circle cx="36" cy="36" r="29" fill="none" stroke="#00a5ff" stroke-miterlimit="10" stroke-width="0.1"></circle>
  </g>
  <g id="color">
    <path fill="#D22F27" d="M49,21c3-2,4-5,3-9c7,2,6,10,3,15" stroke="none"></path>
    <path fill="#D22F27" d="M23.2883,21c-3-2-4-5-3-9c-7,2-6,10-3,15" stroke="none"></path>
    <path fill="#EA5A47" d="M36.2002,18.3164c-12.5719,0-22.7998,10.2279-22.7998,22.7997c0,12.5718,10.2279,22.7998,22.7998,22.7998
		C48.772,63.9159,59,53.6879,59,41.1161C59,28.5442,48.772,18.3164,36.2002,18.3164z" stroke="none"></path>
  </g>
  <g id="hair">
  </g>
  <g id="skin">
  </g>
  <g id="skin-shadow">
  </g>
  <g id="line">
    <circle fill="none" stroke="#000000" stroke-width="2" stroke-miterlimit="10" cx="36" cy="41" r="23"></circle>
    <path fill="#000000" d="M30.3173,37.9252c0,1.6567-1.3448,3-3,3c-1.6553,0-3-1.3433-3-3c0-1.6553,1.3447-3,3-3
		C28.9725,34.9252,30.3173,36.27,30.3173,37.9252" stroke="none"></path>
    <path fill="#000000" d="M48.3173,37.9252c0,1.6567-1.3447,3-3,3s-3-1.3433-3-3c0-1.6553,1.3447-3,3-3
		S48.3173,36.27,48.3173,37.9252" stroke="none"></path>
    <line fill="none" stroke="#000000" stroke-width="2" stroke-linecap="round" stroke-linejoin="round" stroke-miterlimit="10" x1="23" y1="30" x2="30" y2="34"></line>
    <line fill="none" stroke="#000000" stroke-width="2" stroke-linecap="round" stroke-linejoin="round" stroke-miterlimit="10" x1="49" y1="30" x2="42" y2="34"></line>
    <path fill="none" stroke="#000000" stroke-width="2" stroke-linecap="round" stroke-linejoin="round" stroke-miterlimit="10" d="
		M49,21c3-2,4-5,3-9c7,2,6,10,3,15"></path>
    <path fill="none" stroke="#000000" stroke-width="2" stroke-linecap="round" stroke-linejoin="round" stroke-miterlimit="10" d="
		M23.2883,21c-3-2-4-5-3-9c-7,2-6,10-3,15"></path>
    <path fill="none" stroke="#000000" stroke-width="2" stroke-linecap="round" stroke-linejoin="round" stroke-miterlimit="10" d="
		M43,48c-1.2841,0.6376-3.9847,1.0308-6.8421,0.9981C33.5344,48.9681,31.1682,48.5835,30,48"></path>
  </g>
</svg>