<svg version="1.1" id="emoji" xmlns="http://www.w3.org/2000/svg" x="0" y="0" viewBox="0 0 72 72" enable-background="new 0 0 72 72" xml:space="preserve">
  <g id="grid">
    <path fill="#B3B3B3" d="M68,4v64H4V4H68 M72,0H0v72h72V0z"/>
    <path fill="none" stroke="#00A5FF" stroke-width=".1" stroke-miterlimit="10" d="M12.923,10.9583h46.1539 c1.0621,0,1.9231,0.861,1.9231,1.9231v0v46.1538c0,1.0621-0.861,1.9231-1.9231,1.9231H12.9231 c-1.0621,0-1.9231-0.861-1.9231-1.9231l0,0V12.8813C11,11.8193,11.861,10.9583,12.923,10.9583L12.923,10.9583z"/>
    <path fill="none" stroke="#00A5FF" stroke-width=".1" stroke-miterlimit="10" d="M18.2537,4h35.4926C54.991,4,56,5.009,56,6.2537 v59.4926C56,66.991,54.991,68,53.7463,68H18.2537C17.009,68,16,66.991,16,65.7463V6.2537C16,5.009,17.009,4,18.2537,4z"/>
    <path fill="none" stroke="#00A5FF" stroke-width=".1" stroke-miterlimit="10" d="M68,18.2537v35.4926 C68,54.991,66.991,56,65.7463,56H6.2537C5.009,56,4,54.991,4,53.7463V18.2537C4,17.009,5.009,16,6.2537,16h59.4926 C66.991,16,68,17.009,68,18.2537z"/>
    <circle fill="none" stroke="#00A5FF" stroke-width=".1" stroke-miterlimit="10" cx="36" cy="36" r="29"/>
  </g>
  <g id="color">
    <path fill="#D22F27" d="M34,17.7817v-2.5109c0-1.3807,1.1193-2.5,2.5-2.5l0,0c1.3807,0,2.5,1.1193,2.5,2.5v2.5"/>
    <path fill="#D0CFCE" d="M13.5,42.7708L13.5,42.7708c-1.3807,0-2.5-1.1193-2.5-2.5v-8c0-1.3807,1.1193-2.5,2.5-2.5l0,0 c1.3807,0,2.5,1.1193,2.5,2.5v8C16,41.6515,14.8807,42.7708,13.5,42.7708z"/>
    <path fill="#D0CFCE" d="M58.5,42.7708L58.5,42.7708c1.3807,0,2.5-1.1193,2.5-2.5v-8c0-1.3807-1.1193-2.5-2.5-2.5l0,0 c-1.3807,0-2.5,1.1193-2.5,2.5v8C56,41.6515,57.1193,42.7708,58.5,42.7708z"/>
    <path fill="#D0CFCE" d="M47.4505,57.7817h-22.901c-4.7022,0-8.5495-3.8473-8.5495-8.5495v-22.901 c0-4.7022,3.8473-8.5495,8.5495-8.5495h22.901c4.7022,0,8.5495,3.8473,8.5495,8.5495v22.901 C56,53.9344,52.1527,57.7817,47.4505,57.7817z"/>
    <path fill="#9B9B9A" d="M34.9977,57.781h13.2865c3.9687,0,7.2158-3.8473,7.2158-8.5495v-22.901 c0-4.7022-3.2471-8.5495-7.2158-8.5495h-2.3526"/>
    <ellipse fill="#FFFFFF" cx="44.8346" cy="30.773" rx="2.8338" ry="2.8338"/>
    <ellipse fill="#FFFFFF" cx="27.3342" cy="30.7725" rx="2.8338" ry="2.8338"/>
    <path fill="#FFFFFF" d="M44.5,49.2708h-17c-2.2,0-4-1.8-4-4l0,0c0-2.2,1.8-4,4-4h17c2.2,0,4,1.8,4,4l0,0 C48.5,47.4708,46.7,49.2708,44.5,49.2708z"/>
  </g>
  <g id="hair"/>
  <g id="skin"/>
  <g id="skin-shadow"/>
  <g id="line">
    <path fill="none" stroke="#000000" stroke-width="2" stroke-linecap="round" stroke-linejoin="round" stroke-miterlimit="2" d="M36.5,23.2249"/>
    <path fill="none" stroke="#000000" stroke-width="2" stroke-linecap="round" stroke-linejoin="round" stroke-miterlimit="2" d="M34,17.7817v-2.5109c0-1.3807,1.1193-2.5,2.5-2.5l0,0c1.3807,0,2.5,1.1193,2.5,2.5v2.5"/>
    <path fill="none" stroke="#000000" stroke-width="2" stroke-linecap="round" stroke-linejoin="round" stroke-miterlimit="2" d="M47.4505,57.7708h-22.901c-4.7022,0-8.5495-3.8473-8.5495-8.5495v-22.901c0-4.7022,3.8473-8.5495,8.5495-8.5495h22.901 c4.7022,0,8.5495,3.8473,8.5495,8.5495v22.901C56,53.9235,52.1527,57.7708,47.4505,57.7708z"/>
    <ellipse fill="none" stroke="#000000" stroke-width="2" stroke-linecap="round" stroke-linejoin="round" stroke-miterlimit="2" cx="44.8346" cy="30.773" rx="2.8338" ry="2.8338"/>
    <ellipse fill="none" stroke="#000000" stroke-width="2" stroke-linecap="round" stroke-linejoin="round" stroke-miterlimit="2" cx="27.3342" cy="30.7725" rx="2.8338" ry="2.8338"/>
    <path fill="none" stroke="#000000" stroke-width="2" stroke-miterlimit="2" d="M44.5,49.2708h-17c-2.2,0-4-1.8-4-4l0,0 c0-2.2,1.8-4,4-4h17c2.2,0,4,1.8,4,4l0,0C48.5,47.4708,46.7,49.2708,44.5,49.2708z"/>
    <path fill="none" stroke="#000000" stroke-width="2" stroke-linecap="round" stroke-linejoin="round" stroke-miterlimit="2" d="M13.5,42.7708L13.5,42.7708c-1.3807,0-2.5-1.1193-2.5-2.5v-8c0-1.3807,1.1193-2.5,2.5-2.5l0,0c1.3807,0,2.5,1.1193,2.5,2.5v8 C16,41.6515,14.8807,42.7708,13.5,42.7708z"/>
    <path fill="none" stroke="#000000" stroke-width="2" stroke-linecap="round" stroke-linejoin="round" stroke-miterlimit="2" d="M58.5,42.7708L58.5,42.7708c1.3807,0,2.5-1.1193,2.5-2.5v-8c0-1.3807-1.1193-2.5-2.5-2.5l0,0c-1.3807,0-2.5,1.1193-2.5,2.5v8 C56,41.6515,57.1193,42.7708,58.5,42.7708z"/>
    <path fill="none" stroke="#000000" stroke-miterlimit="10" d="M36.5,39.2708"/>
    <path fill="none" stroke="#000000" stroke-miterlimit="10" d="M36.5,59.2708"/>
    <line fill="none" stroke="#000000" stroke-width="2" stroke-linecap="round" stroke-linejoin="round" stroke-miterlimit="2" x1="28" y1="41.7708" x2="28" y2="48.7708"/>
    <line fill="none" stroke="#000000" stroke-width="2" stroke-linecap="round" stroke-linejoin="round" stroke-miterlimit="2" x1="33" y1="41.7708" x2="33" y2="48.7708"/>
    <line fill="none" stroke="#000000" stroke-width="2" stroke-linecap="round" stroke-linejoin="round" stroke-miterlimit="2" x1="38" y1="41.7708" x2="38" y2="48.7708"/>
    <line fill="none" stroke="#000000" stroke-width="2" stroke-linecap="round" stroke-linejoin="round" stroke-miterlimit="2" x1="43" y1="41.7708" x2="43" y2="48.7708"/>
  </g>
</svg>
