<svg id="emoji" xmlns="http://www.w3.org/2000/svg" viewBox="0 0 72 72">
  <g id="grid">
    <path d="M68,4V68H4V4H68m4-4H0V72H72V0Z" fill="#b3b3b3"/>
    <path d="M12.923,10.9583H59.0769A1.9231,1.9231,0,0,1,61,12.8814V59.0352a1.9231,1.9231,0,0,1-1.9231,1.9231H12.9231A1.9231,1.9231,0,0,1,11,59.0352V12.8813A1.923,1.923,0,0,1,12.923,10.9583Z" fill="none" stroke="#00a5ff" stroke-miterlimit="10" stroke-width="0.1"/>
    <rect x="16" y="4" width="40" height="64" rx="2.2537" fill="none" stroke="#00a5ff" stroke-miterlimit="10" stroke-width="0.1"/>
    <rect x="16" y="4" width="40" height="64" rx="2.2537" transform="rotate(90 36 36)" fill="none" stroke="#00a5ff" stroke-miterlimit="10" stroke-width="0.1"/>
    <circle cx="36" cy="36" r="29" fill="none" stroke="#00a5ff" stroke-miterlimit="10" stroke-width="0.1"/>
  </g>
  <g id="color">
    <path fill="#3F3F3F" d="M12,60c0,0-0.6667-7.6667,3.6667-10.8333C15.6667,49.1667,15,33,27,25c0,0,1-5-2-8 s6.3333-0.8333,8.6667,6.0833C33.6667,23.0833,53,21,60,34c0,0,2,4-16,4c0,0-2,5-9,5c0,0-2,0,1-5c0,0-10-0.5-15.5,9.75 c0,0,6.5,6.25,2.5,6.25s-5-1-5-1S17,58,12,60z" stroke="none"/>
    <path fill="#FFFFFF" d="M59,35.3179c0,0-3.5-0.2046-5.75-0.716c-2.25-0.5114-3.8787-1.6732-8.0644-0.4786S42,35.3179,42,35.3179 L45,39" stroke="none"/>
  </g>
  <g id="hair"/>
  <g id="skin"/>
  <g id="skin-shadow"/>
  <g id="line">
    <path fill="none" stroke="#000000" stroke-width="2" stroke-linecap="round" stroke-linejoin="round" stroke-miterlimit="10" d="M12,60c0,0-0.6667-7.6667,3.6667-10.8333C15.6667,49.1667,15,33,27,25c0,0,1-5-2-8s6.3333-0.8333,8.6667,6.0833 C33.6667,23.0833,53,21,60,34c0,0,2,4-16,4c0,0-2,5-9,5c0,0-2,0,1-5c0,0-10-0.5-15.5,9.75c0,0,6.5,6.25,2.5,6.25s-5-1-5-1 S17,58,12,60z"/>
    <path fill="none" stroke="#000000" stroke-width="2" stroke-linecap="round" stroke-linejoin="round" stroke-miterlimit="10" d="M59,35c0,0-3.5-0.1667-5.75-0.5833C51,34,49.3713,33.0534,45.1856,34.0267S42,35,42,35l3,3"/>
  </g>
</svg>
