<svg id="emoji" xmlns="http://www.w3.org/2000/svg" viewBox="0 0 72 72">
  <g id="grid">
    <path d="M68,4V68H4V4H68m4-4H0V72H72V0Z" fill="#b3b3b3"/>
    <path d="M12.923,10.9583H59.0769A1.9231,1.9231,0,0,1,61,12.8814V59.0352a1.9231,1.9231,0,0,1-1.9231,1.9231H12.9231A1.9231,1.9231,0,0,1,11,59.0352V12.8813A1.923,1.923,0,0,1,12.923,10.9583Z" fill="none" stroke="#00a5ff" stroke-miterlimit="10" stroke-width="0.1"/>
    <rect x="16" y="4" width="40" height="64" rx="2.2537" fill="none" stroke="#00a5ff" stroke-miterlimit="10" stroke-width="0.1"/>
    <rect x="16" y="4" width="40" height="64" rx="2.2537" transform="rotate(90 36 36)" fill="none" stroke="#00a5ff" stroke-miterlimit="10" stroke-width="0.1"/>
    <circle cx="36" cy="36" r="29" fill="none" stroke="#00a5ff" stroke-miterlimit="10" stroke-width="0.1"/>
  </g>
  <g id="color">
    <path fill="#92D3F5" d="M16.1101,37.4612c0,0-5.1101-4.8074-4.0659-11.0726s13.5746,1.0442,14.6188,6.2652 c0,0,3.1326-5.221,8.3536-6.2652c0,0-1.0442-5.221,0-8.3536c0,0,11.4862-4.1768,15.663,6.2652c0,0,11.4862,2.0884,12.5304,11.4862 l-3.1326,2.0884l2.741,2.3495c0,0-0.126,6.9813-11.8755,10.1474c0,0-2.3517,7.3429-10.7053,5.2545l1.0442-5.221 c0,0-6.2652,1.0442-14.6188-8.3536c0,0-3.1326,9.3978-15.663,7.3094C11.0001,49.361,10.7782,41.2244,16.1101,37.4612z" stroke="none"/>
    <path fill="#61B2E4" d="M41.7805,30.9182c0,0-7.8664,4.3435-0.8652,11.0476" stroke="none"/>
  </g>
  <g id="hair"/>
  <g id="skin"/>
  <g id="skin-shadow"/>
  <g id="line">
    <path fill="none" stroke="#000000" stroke-width="2" stroke-linecap="round" stroke-linejoin="round" stroke-miterlimit="10" d="M16.1101,37.4612c0,0-5.1101-4.8074-4.0659-11.0726s13.5746,1.0442,14.6188,6.2652c0,0,3.1326-5.221,8.3536-6.2652 c0,0-1.0442-5.221,0-8.3536c0,0,11.4862-4.1768,15.663,6.2652c0,0,11.4862,2.0884,12.5304,11.4862l-3.1326,2.0884l2.741,2.3495 c0,0-0.126,6.9813-11.8755,10.1474c0,0-2.3517,7.3429-10.7053,5.2545l1.0442-5.221c0,0-6.2652,1.0442-14.6188-8.3536 c0,0-3.1326,9.3978-15.663,7.3094C11.0001,49.361,10.7782,41.2244,16.1101,37.4612z"/>
    <path fill="none" stroke="#000000" stroke-width="2" stroke-linecap="round" stroke-linejoin="round" stroke-miterlimit="10" d="M41,31c0,0-6,4-1,11"/>
  </g>
</svg>
