<?xml version="1.0" encoding="UTF-8"?>
<svg id="emoji" xmlns="http://www.w3.org/2000/svg" viewBox="0 0 72 72">
  <g id="grid">
    <path d="m68,4v64H4V4h64M72,0H0v72h72V0Z" fill="#b3b3b3"/>
    <path d="m12.923,10.9583h46.1539c1.0621,0,1.9231.861,1.9231,1.9231h0v46.1538c0,1.0621-.861,1.9231-1.9231,1.9231H12.9231c-1.0621,0-1.9231-.861-1.9231-1.9231h0V12.8813c0-1.062.861-1.923,1.923-1.923h0Z" fill="none" stroke="#00a5ff" stroke-miterlimit="10" stroke-width=".1"/>
    <rect x="16" y="4" width="40" height="64" rx="2.2537" ry="2.2537" fill="none" stroke="#00a5ff" stroke-miterlimit="10" stroke-width=".1"/>
    <rect x="4" y="16" width="64" height="40" rx="2.2537" ry="2.2537" fill="none" stroke="#00a5ff" stroke-miterlimit="10" stroke-width=".1"/>
    <circle cx="36" cy="36" r="29" fill="none" stroke="#00a5ff" stroke-miterlimit="10" stroke-width=".1"/>
  </g>
  <g id="color">
    <path d="m16.1101,35.2112s-5.1101-4.8074-4.0659-11.0726,13.5746,1.0442,14.6188,6.2652c0,0,3.1326-5.221,8.3536-6.2652,0,0-1.0442-5.221,0-8.3536,0,0,11.4862-4.1768,15.663,6.2652,0,0,11.4862,2.0884,12.5304,11.4862l-3.1326,2.0884,2.741,2.3495s-.126,6.9813-11.8755,10.1474c0,0-2.3517,7.3429-10.7053,5.2545l1.0442-5.221s-6.2652,1.0442-14.6188-8.3536c0,0-3.1326,9.3978-15.663,7.3094,0,0-.2218-8.1366,5.1101-11.8998Z" fill="#92d3f5"/>
    <path d="m41.7805,28.6682s-7.8664,4.3435-.8652,11.0476" fill="#61b2e4"/>
  </g>
  <g id="line">
    <path d="m16.1101,35.2112s-5.1101-4.8074-4.0659-11.0726,13.5746,1.0442,14.6188,6.2652c0,0,3.1326-5.221,8.3536-6.2652,0,0-1.0442-5.221,0-8.3536,0,0,11.4862-4.1768,15.663,6.2652,0,0,11.4862,2.0884,12.5304,11.4862l-3.1326,2.0884,2.741,2.3495s-.126,6.9813-11.8755,10.1474c0,0-2.3517,7.3429-10.7053,5.2545l1.0442-5.221s-6.2652,1.0442-14.6188-8.3536c0,0-3.1326,9.3978-15.663,7.3094,0,0-.2218-8.1366,5.1101-11.8998Z" fill="none" stroke="#000" stroke-linecap="round" stroke-linejoin="round" stroke-width="2"/>
    <path d="m41,28.75s-6,4-1,11" fill="none" stroke="#000" stroke-linecap="round" stroke-linejoin="round" stroke-width="2"/>
  </g>
</svg>