<svg id="emoji" xmlns="http://www.w3.org/2000/svg" viewBox="0 0 72 72">
  <g id="grid">
    <path d="M68,4V68H4V4H68m4-4H0V72H72V0Z" fill="#b3b3b3"></path>
    <path d="M12.923,10.9583H59.0769A1.9231,1.9231,0,0,1,61,12.8814V59.0352a1.9231,1.9231,0,0,1-1.9231,1.9231H12.9231A1.9231,1.9231,0,0,1,11,59.0352V12.8813A1.923,1.923,0,0,1,12.923,10.9583Z" fill="none" stroke="#00a5ff" stroke-miterlimit="10" stroke-width="0.1"></path>
    <rect x="16" y="4" width="40" height="64" rx="2.2537" fill="none" stroke="#00a5ff" stroke-miterlimit="10" stroke-width="0.1"></rect>
    <rect x="16" y="4" width="40" height="64" rx="2.2537" transform="translate(72) rotate(90)" fill="none" stroke="#00a5ff" stroke-miterlimit="10" stroke-width="0.1"></rect>
    <circle cx="36" cy="36" r="29" fill="none" stroke="#00a5ff" stroke-miterlimit="10" stroke-width="0.1"></circle>
  </g>
  <g id="color">
    <path fill="#FFA7C0" d="M30,31c0,0-2,23,7,26s14-34,6-34c-6.2075,0-7-1-11.7099-0.3422C29.9197,22.8491,27.9837,22.7602,26,24
		c-8,5,5,29,8,31" stroke="none"></path>
    <path fill="#E67A94" d="M42,22c0,0,1-3-2-3s-7,0-7,0s-2.1402-0.4205-1,3" stroke="none"></path>
    <path fill="#FFA7C0" d="M34,18c3.2-5.3333,5.1333,0.3333,5,0" stroke="none"></path>
  </g>
  <g id="hair">
  </g>
  <g id="skin">
  </g>
  <g id="skin-shadow">
  </g>
  <g id="line">
    <path fill="none" stroke="#000000" stroke-width="2" stroke-linecap="round" stroke-linejoin="round" stroke-miterlimit="10" d="
		M30,31c0,0-2,23,7,26s14-34,6-34c-6.2075,0-7-1-11.7099-0.3422C29.9197,22.8491,27.9837,22.7602,26,24c-8,5,5,29,8,31"></path>
    <path fill="none" stroke="#000000" stroke-width="2" stroke-linecap="round" stroke-linejoin="round" stroke-miterlimit="10" d="
		M42,22c0,0,1-3-2-3s-7,0-7,0s-2.1402-0.4205-1,3"></path>
    <path fill="none" stroke="#000000" stroke-width="2" stroke-linecap="round" stroke-linejoin="round" stroke-miterlimit="10" d="
		M34,18c3.2-5.3333,5.1333,0.3333,5,0"></path>
  </g>
</svg>