<svg version="1.1" id="emoji" xmlns="http://www.w3.org/2000/svg" x="0" y="0" viewBox="0 0 72 72" enable-background="new 0 0 72 72" xml:space="preserve">
  <g id="grid">
    <path fill="#B3B3B3" d="M68,4v64H4V4H68 M72,0H0v72h72V0z"/>
    <path fill="none" stroke="#00A5FF" stroke-width=".1" stroke-miterlimit="10" d="M12.923,10.9583h46.1539 c1.0621,0,1.9231,0.861,1.9231,1.9231v0v46.1538c0,1.0621-0.861,1.9231-1.9231,1.9231H12.9231 c-1.0621,0-1.9231-0.861-1.9231-1.9231l0,0V12.8813C11,11.8193,11.861,10.9583,12.923,10.9583L12.923,10.9583z"/>
    <path fill="none" stroke="#00A5FF" stroke-width=".1" stroke-miterlimit="10" d="M18.2537,4h35.4926C54.991,4,56,5.009,56,6.2537 v59.4926C56,66.991,54.991,68,53.7463,68H18.2537C17.009,68,16,66.991,16,65.7463V6.2537C16,5.009,17.009,4,18.2537,4z"/>
    <path fill="none" stroke="#00A5FF" stroke-width=".1" stroke-miterlimit="10" d="M68,18.2537v35.4926 C68,54.991,66.991,56,65.7463,56H6.2537C5.009,56,4,54.991,4,53.7463V18.2537C4,17.009,5.009,16,6.2537,16h59.4926 C66.991,16,68,17.009,68,18.2537z"/>
    <circle fill="none" stroke="#00A5FF" stroke-width=".1" stroke-miterlimit="10" cx="36" cy="36" r="29"/>
  </g>
  <g id="color">
    <path fill="#92D3F5" d="M55,60.998V57c0-4.9941-5.0059-9-10-9c-6,5-12,5-18,0c-4.9922,0-10,4.0059-10,9v3.998H55z"/>
  </g>
  <g id="hair">
    <path fill="#D0CFCE" d="M42,42.25c8-6,8.9824-7.1641,8.9824-14.1646C50.9824,21.0142,48.5176,16,45.5176,15 c0,0-1.0469-1.0474-3.1416-1.9043C40.9258,12.502,43.1006,5.522,36.5176,6c-8.1846,0.5942-4.6553,6.1997-6.4473,6.6304 c-3.8799,0.9321-6.1846,2.9487-7.5527,6.3696c-1.1738,2.936-1.2149,7.0708-2,11c-1,5,4.3554,7.417,11.3554,13.417L42,42.25z"/>
  </g>
  <g id="skin">
    <path fill="#FCEA2B" d="M25,31c0,8,4,14,10.9365,14C43,45,47,39,47,31c0-5-1.3672-7.7349-2-9c-1-2-2-3-2-3c-5,3-14,0-15,1 S25,25,25,31z"/>
  </g>
  <g id="skin-shadow"/>
  <g id="line">
    <path fill="none" stroke="#000000" stroke-width="2" stroke-linecap="round" stroke-linejoin="round" d="M17,60v-3 c0-4.9941,5.0078-9,10-9c6,5,12,5,18,0c4.9941,0,10,4.0059,10,9v3"/>
    <path fill="none" stroke="#000000" stroke-width="2" stroke-linecap="round" stroke-linejoin="round" d="M38,38 c-1.248,0.75-2.582,0.75-4,0"/>
    <path fill="none" stroke="#000000" stroke-width="2" stroke-linecap="round" stroke-linejoin="round" d="M31,36c0,1-1,2-1,2"/>
    <path fill="none" stroke="#000000" stroke-width="2" stroke-linecap="round" stroke-linejoin="round" d="M41,36c0,1,1,2,1,2"/>
    <path d="M41.873,29c0,1.1045-0.8955,2-2,2c-1.1044,0-2-0.8955-2-2s0.8956-2,2-2C40.9775,27,41.873,27.8955,41.873,29"/>
    <path d="M33.873,29c0,1.1045-0.8955,2-2,2c-1.1044,0-2-0.8955-2-2s0.8956-2,2-2C32.9775,27,33.873,27.8955,33.873,29"/>
    <path fill="none" stroke="#000000" stroke-width="2" stroke-linejoin="round" d="M25,31c0,8,4,14,10.9365,14C43,45,47,39,47,31 c0-5-1.3672-7.7349-2-9c-1-2-2-3-2-3c-5,3-14,0-15,1S25,25,25,31z"/>
    <path fill="none" stroke="#000000" stroke-width="2" stroke-linecap="round" stroke-linejoin="round" d="M26,38c-2,0-5-3-5-8 c0-4.0068,0-6,1-9c1.8438-5.5317,6-9,14-9c6,0,9,3,9,3c3,1,6,4.9287,6,12c0,7-2,12-5,12"/>
    <path fill="none" stroke="#000000" stroke-width="2" stroke-linecap="round" stroke-linejoin="round" d="M42,13c1-2,0-4-1-5 c-2.0283-2.0283-8.3027-2-10.3027,1c-0.8301,1.2456-0.6973,2.2935-0.3868,3.0039"/>
  </g>
</svg>
