<svg version="1.1" id="emoji" xmlns="http://www.w3.org/2000/svg" x="0" y="0" viewBox="0 0 72 72" enable-background="new 0 0 72 72" xml:space="preserve">
  <g id="grid">
    <path fill="#B3B3B3" d="M68,4v64H4V4H68 M72,0H0v72h72V0z"/>
    <path fill="none" stroke="#00A5FF" stroke-width="0.1" stroke-miterlimit="10" d="M12.923,10.9583h46.1539 c1.0621,0,1.9231,0.861,1.9231,1.9231v0v46.1538c0,1.0621-0.861,1.9231-1.9231,1.9231H12.9231 c-1.0621,0-1.9231-0.861-1.9231-1.9231l0,0V12.8813C11,11.8193,11.861,10.9583,12.923,10.9583L12.923,10.9583z"/>
    <path fill="none" stroke="#00A5FF" stroke-width="0.1" stroke-miterlimit="10" d="M18.2537,4h35.4926C54.991,4,56,5.009,56,6.2537 v59.4926C56,66.991,54.991,68,53.7463,68H18.2537C17.009,68,16,66.991,16,65.7463V6.2537C16,5.009,17.009,4,18.2537,4z"/>
    <path fill="none" stroke="#00A5FF" stroke-width="0.1" stroke-miterlimit="10" d="M68,18.2537v35.4926 C68,54.991,66.991,56,65.7463,56H6.2537C5.009,56,4,54.991,4,53.7463V18.2537C4,17.009,5.009,16,6.2537,16h59.4926 C66.991,16,68,17.009,68,18.2537z"/>
    <circle fill="none" stroke="#00A5FF" stroke-width="0.1" stroke-miterlimit="10" cx="36" cy="36" r="29"/>
  </g>
  <g id="color">
    <path fill="#92D3F5" d="M17,62.542v-1.9429c0-8.4194,1.125-25.7426,4.125-32.0571h30c3,6.3145,3.875,23.6377,3.875,32.0571v1.9429 H17z"/>
    <path fill="#61B2E4" d="M55,62.542H43c0,0,0-11.541,0-16.541c0-3-1-4-1-4l5.3672-2.8819l4.4141-8.0166l1.4023,3.6495L55,62.542z"/>
    <circle fill="#EA5A47" cx="36" cy="35.541" r="3"/>
  </g>
  <g id="hair"/>
  <g id="skin">
    <path fill="#FCEA2B" d="M51.125,25.6621c0-9.1284-6.1631-15.6621-15-15.6621c-8.8359,0-15,6.5337-15,15.6621 c0,6.2769-0.7832,12.2041,7.0898,16.3374c0,0,3.5352,1.0127,7.9102,1.0127c5,0,7.9697-1.0532,7.9697-1.0532 C52.125,37.8662,51.125,31.9107,51.125,25.6621z M36,38.541c-1.6569,0-3-1.3431-3-3s1.3431-3,3-3s3,1.3431,3,3 S37.6569,38.541,36,38.541z"/>
  </g>
  <g id="skin-shadow"/>
  <g id="line">
    <path fill="none" stroke="#000000" stroke-width="2" stroke-miterlimit="10" d="M34.125,13.1621"/>
    <path fill="none" stroke="#000000" stroke-width="2" stroke-miterlimit="10" d="M34.125,13.1621"/>
    <path fill="none" stroke="#000000" stroke-width="2" stroke-miterlimit="10" d="M34,13.1621"/>
    <path fill="none" stroke="#000000" stroke-width="2" stroke-linecap="round" stroke-miterlimit="10" d="M27,28.001 c0,0,1-1.001,2-1.001s2,1.001,2,1.001"/>
    <path fill="none" stroke="#000000" stroke-width="2" stroke-linecap="round" stroke-miterlimit="10" d="M41,28.001 c0,0,1-1.001,2-1.001s2,1.001,2,1.001"/>
    <path fill="none" stroke="#000000" stroke-width="2" stroke-linecap="round" stroke-linejoin="round" d="M56,53"/>
    <path fill="none" stroke="#000000" stroke-width="2" stroke-miterlimit="10" d="M34,15.1621"/>
    <path fill="none" stroke="#000000" stroke-width="2" stroke-linecap="round" stroke-linejoin="round" d="M43,37"/>
    <path fill="none" stroke="#000000" stroke-width="2" stroke-linecap="round" stroke-linejoin="round" d="M52,30"/>
    <path fill="none" stroke="#000000" stroke-width="2" stroke-linecap="round" stroke-linejoin="round" d="M22,26"/>
    <path fill="none" stroke="#000000" stroke-width="2" stroke-linecap="round" stroke-linejoin="round" d="M51,29.27 c3,3,4,21.73,4,29.73v2.542"/>
    <path fill="none" stroke="#000000" stroke-width="2" stroke-linecap="round" stroke-linejoin="round" d="M17,61.542V59 c0-8,1-26.73,4-29.73"/>
    <line fill="none" stroke="#000000" stroke-width="2" stroke-linecap="round" stroke-miterlimit="10" x1="32" y1="16" x2="31" y2="17"/>
    <line fill="none" stroke="#000000" stroke-width="2" stroke-linecap="round" stroke-miterlimit="10" x1="36" y1="15" x2="35" y2="17"/>
    <line fill="none" stroke="#000000" stroke-width="2" stroke-linecap="round" stroke-miterlimit="10" x1="40" y1="16" x2="41" y2="17"/>
    <circle fill="none" stroke="#000000" stroke-width="2" stroke-miterlimit="10" cx="36" cy="35.541" r="3"/>
    <path fill="none" stroke="#000000" stroke-width="2" stroke-linecap="round" stroke-linejoin="round" stroke-miterlimit="10" d="M32.7051,35.625C31.5684,35.3408,31,35,31,35"/>
    <path fill="none" stroke="#000000" stroke-width="2" stroke-linecap="round" stroke-linejoin="round" stroke-miterlimit="10" d="M41,35c0,0-0.5137,0.3081-1.541,0.582"/>
    <path fill="none" stroke="#000000" stroke-width="2" stroke-linecap="round" stroke-linejoin="round" d="M43.9697,41.9619 C52,39,51,30,51,26.1621C51,17.3262,44.8369,11,36,11c-8.8359,0-15,6.3262-15,15.1621C21,30,20,39,28.0898,42.001 C31.8125,43.3799,40.2451,43.335,43.9697,41.9619z"/>
  </g>
</svg>
