<svg id="emoji" viewBox="0 0 72 72" xmlns="http://www.w3.org/2000/svg">
  <g id="grid">
    <path fill="#b3b3b3" d="M68,4V68H4V4H68m4-4H0V72H72V0Z"/>
    <path fill="none" stroke="#00a5ff" stroke-miterlimit="10" stroke-width="0.1" d="M12.923,10.9583H59.0769A1.9231,1.9231,0,0,1,61,12.8814V59.0352a1.9231,1.9231,0,0,1-1.9231,1.9231H12.9231A1.9231,1.9231,0,0,1,11,59.0352V12.8813A1.923,1.923,0,0,1,12.923,10.9583Z"/>
    <rect x="16" y="4" rx="2.2537" width="40" height="64" fill="none" stroke="#00a5ff" stroke-miterlimit="10" stroke-width="0.1"/>
    <rect x="16" y="4" rx="2.2537" width="40" height="64" transform="translate(72) rotate(90)" fill="none" stroke="#00a5ff" stroke-miterlimit="10" stroke-width="0.1"/>
    <circle cx="36" cy="36" r="29" fill="none" stroke="#00a5ff" stroke-miterlimit="10" stroke-width="0.1"/>
  </g>
  <g id="color">
    <path fill="#FFFFFF" stroke="none" d="M65,66.64c-1.3,0-22,0.36-32,0C34,52,36,37,41,24l1-0.82c-4.32-3.03-6.37-8.6-6.37-16.18h28.74 c0,7.58-2.05,13.15-6.37,16.18V24C64,37,64,52,65,66.64z"/>
    <path fill="#FFFFFF" stroke="none" stroke-linecap="round" stroke-linejoin="round" stroke-miterlimit="10" stroke-width="2" d="M34.0002,66.6361C44,67,63.7002,66.6361,65,66.6361C64,52,64,37,58,24"/>
    <path fill="#FFFFFF" stroke="none" stroke-linecap="round" stroke-linejoin="round" stroke-miterlimit="10" stroke-width="2" d="M37.5475,38.2484c1.1488-5.8127,2.6403-10.8064,4.3783-14.6625l0.2072-0.3738"/>
    <path fill="#FFFFFF" stroke="none" stroke-linecap="round" stroke-linejoin="round" stroke-miterlimit="10" stroke-width="2" d="M37.5475,38.2484c-0.4857,2.4575-0.9102,5.0613-1.2661,7.7875"/>
    <path fill="#FFFFFF" stroke="none" stroke-linecap="round" stroke-linejoin="round" stroke-miterlimit="10" stroke-width="2" d="M18.0405,51h16.3297c0,6.9523-2.2865,12.7757-7.1166,15.6799H12.8533C8.0239,63.7757,5.7374,57.9523,5.7374,51h6.9345H18.0405z"/>
    <path fill="#FFFFFF" stroke="none" stroke-linecap="round" stroke-linejoin="round" stroke-miterlimit="10" stroke-width="2" d="M64.3702,8c0,6.7783-2.1735,12.4834-6.7586,15.4563"/>
    <path fill="#FFFFFF" stroke="none" stroke-linecap="round" stroke-linejoin="round" stroke-miterlimit="10" stroke-width="2" d="M41.9775,23.1016C37.747,20.0434,35.7374,14.5178,35.7374,8"/>
  </g>
  <g id="hair"/>
  <g id="skin"/>
  <g id="skin-shadow"/>
  <g id="line">
    <path fill="none" stroke="#000000" stroke-linecap="round" stroke-linejoin="round" stroke-miterlimit="10" stroke-width="2" d="M34.0002,66.6361C44,67,63.7002,66.6361,65,66.6361C64,52,64,37,58,24"/>
    <path fill="none" stroke="#000000" stroke-linecap="round" stroke-linejoin="round" stroke-miterlimit="10" stroke-width="2" d="M37.5475,38.2484c1.1488-5.8127,2.6403-10.8064,4.3783-14.6625l0.2072-0.3738"/>
    <path fill="none" stroke="#000000" stroke-linecap="round" stroke-linejoin="round" stroke-miterlimit="10" stroke-width="2" d="M37.5475,38.2484c-0.4857,2.4575-0.9102,5.0613-1.2661,7.7875"/>
    <path fill="none" stroke="#000000" stroke-linecap="round" stroke-linejoin="round" stroke-miterlimit="10" stroke-width="2" d="M18.0405,51h16.3297c0,6.9523-2.2865,12.7757-7.1166,15.6799H12.8533C8.0239,63.7757,5.7374,57.9523,5.7374,51h6.9345H18.0405z"/>
    <path fill="none" stroke="#000000" stroke-linecap="round" stroke-linejoin="round" stroke-miterlimit="10" stroke-width="2" d="M64.3702,8c0,6.7783-2.1735,12.4834-6.7586,15.4563"/>
    <path fill="none" stroke="#000000" stroke-linecap="round" stroke-linejoin="round" stroke-miterlimit="10" stroke-width="2" d="M41.9775,23.1016C37.747,20.0434,35.7374,14.5178,35.7374,8"/>
  </g>
</svg>
