<svg id="emoji" xmlns="http://www.w3.org/2000/svg" viewBox="0 0 72 72">
  <g id="grid">
    <path d="M68,4V68H4V4H68m4-4H0V72H72V0Z" fill="#b3b3b3"></path>
    <path d="M12.923,10.9583H59.0769A1.9231,1.9231,0,0,1,61,12.8814V59.0352a1.9231,1.9231,0,0,1-1.9231,1.9231H12.9231A1.9231,1.9231,0,0,1,11,59.0352V12.8813A1.923,1.923,0,0,1,12.923,10.9583Z" fill="none" stroke="#00a5ff" stroke-miterlimit="10" stroke-width="0.1"></path>
    <rect x="16" y="4" width="40" height="64" rx="2.2537" fill="none" stroke="#00a5ff" stroke-miterlimit="10" stroke-width="0.1"></rect>
    <rect x="16" y="4" width="40" height="64" rx="2.2537" transform="translate(72) rotate(90)" fill="none" stroke="#00a5ff" stroke-miterlimit="10" stroke-width="0.1"></rect>
    <circle cx="36" cy="36" r="29" fill="none" stroke="#00a5ff" stroke-miterlimit="10" stroke-width="0.1"></circle>
  </g>
  <g id="color">
    <rect x="38.8315" y="26.0947" transform="matrix(0.9907 -0.1362 0.1362 0.9907 -4.857 7.1072)" fill="#FCEA2B" width="21.3614" height="25.9085" stroke="none"></rect>
    <polygon fill="#F1B31C" points="52.3518,25.5824 50.5712,51.9794 61.8577,50.4277 58.329,24.7607 	" stroke="none"></polygon>
    <path fill="#FFFFFF" d="M54.1792,19.7033c-0.92,0.1257-1.7192,0.5748-2.3177,1.2226c-0.8493-1.2758-2.3157-2.0295-3.8622-1.8181
		c-0.5648,0.0772-1.0837,0.2763-1.5399,0.5676c-0.9375-0.9642-2.26-1.4884-3.6423-1.2995c-2.0787,0.2841-3.5999,2.0797-3.731,4.2139
		c-0.2539-0.0279-0.5121-0.0337-0.7749,0.0022c-1.8366,0.251-3.1097,2.0372-2.8429,3.9888l0.7729,5.6548
		c0.1063,0.7775,0.7919,1.3319,1.5236,1.2319l0.6652-0.0909c0.7317-0.1,1.2434-0.818,1.1372-1.5955l-0.1542-1.1281
		c0.439,0.2071,0.9283,0.3023,1.4332,0.2333l1.3084-0.1788c0.8481-0.1159,1.5384-0.6531,1.9362-1.3814
		c0.8731,0.9888,2.1616,1.5414,3.5039,1.358c2.1952-0.3,3.7303-2.454,3.4115-4.7866l7.705-1.0531
		c0.0872-0.4627,0.1068-0.9492,0.0389-1.4454C58.4298,21.0564,56.3836,19.402,54.1792,19.7033z" stroke="none"></path>
    <path fill="#FFFFFF" d="M37.8887,28.7045c-0.2592-1.8965,1.02-3.6381,2.8567-3.8891c0.2627-0.0359,0.5209-0.0313,0.7745-0.0051
		c0.1393-2.0755,1.6664-3.8272,3.7452-4.1113c1.3822-0.1889,2.7021,0.3157,3.6354,1.2496c0.4571-0.285,0.9765-0.4805,1.5413-0.5578
		c1.5466-0.2114,3.0093,0.5158,3.8533,1.753c0.6007-0.6321,1.4012-1.0718,2.3211-1.1975c0.3737-0.0511,0.7416-0.0434,1.0981,0.0088
		c-0.7635-1.5343-2.3996-2.4881-4.143-2.2498c-0.9199,0.1257-1.7204,0.5655-2.3211,1.1975c-0.844-1.2372-2.3067-1.9644-3.8533-1.753
		c-0.5648,0.0772-1.0842,0.2728-1.5413,0.5578c-0.9333-0.9339-2.2531-1.4385-3.6354-1.2496
		c-2.0788,0.2842-3.6059,2.0358-3.7452,4.1113c-0.2536-0.0262-0.5118-0.0308-0.7745,0.0051
		c-1.8367,0.2511-3.1159,1.9926-2.8567,3.8891l0.7509,5.4952c0.1032,0.7556,0.7864,1.2919,1.5181,1.1919l0.6652-0.0909
		c0.2543-0.0347,0.4796-0.1454,0.6646-0.3022L37.8887,28.7045z" stroke="none"></path>
    <rect x="11.9315" y="27.0947" transform="matrix(-0.9907 -0.1362 0.1362 -0.9907 39.5591 82.8043)" fill="#FCEA2B" width="21.3614" height="25.9085" stroke="none"></rect>
    <polygon fill="#F1B31C" points="19.7725,26.5824 21.5532,52.9794 10.2667,51.4277 13.7953,25.7607 	" stroke="none"></polygon>
    <path fill="#FFFFFF" d="M17.9452,20.7033c0.92,0.1257,1.7192,0.5748,2.3177,1.2226c0.8493-1.2758,2.3157-2.0295,3.8622-1.8181
		c0.5648,0.0772,1.0837,0.2763,1.5399,0.5676c0.9375-0.9642,2.26-1.4884,3.6423-1.2995c2.0787,0.2841,3.5999,2.0797,3.731,4.2139
		c0.2539-0.0279,0.5121-0.0337,0.7749,0.0022c1.8366,0.251,3.1097,2.0372,2.8429,3.9888l-0.7729,5.6548
		c-0.1063,0.7775-0.7919,1.3319-1.5236,1.2319l-0.6652-0.0909c-0.7317-0.1-1.2434-0.818-1.1372-1.5955l0.1542-1.1281
		c-0.439,0.2071-0.9283,0.3023-1.4332,0.2333l-1.3084-0.1788c-0.8481-0.1159-1.5384-0.6531-1.9362-1.3814
		c-0.8731,0.9888-2.1616,1.5414-3.5039,1.358c-2.1952-0.3-3.7303-2.454-3.4115-4.7866l-7.705-1.0531
		c-0.0872-0.4627-0.1068-0.9492-0.0389-1.4454C13.6945,22.0564,15.7407,20.402,17.9452,20.7033z" stroke="none"></path>
    <path fill="#FFFFFF" d="M34.2357,29.7045c0.2592-1.8965-1.02-3.6381-2.8567-3.8891c-0.2627-0.0359-0.5209-0.0313-0.7745-0.0051
		c-0.1393-2.0755-1.6664-3.8272-3.7452-4.1113c-1.3822-0.1889-2.7021,0.3157-3.6354,1.2496
		c-0.4571-0.285-0.9765-0.4805-1.5413-0.5578c-1.5466-0.2114-3.0093,0.5158-3.8533,1.753
		c-0.6007-0.6321-1.4012-1.0718-2.3211-1.1975c-0.3737-0.0511-0.7416-0.0434-1.0981,0.0088
		c0.7635-1.5343,2.3996-2.4881,4.143-2.2498c0.9199,0.1257,1.7204,0.5655,2.3211,1.1975c0.844-1.2372,2.3067-1.9644,3.8533-1.753
		c0.5648,0.0772,1.0842,0.2728,1.5413,0.5578c0.9333-0.9339,2.2531-1.4385,3.6354-1.2496c2.0788,0.2842,3.6059,2.0358,3.7452,4.1113
		c0.2536-0.0262,0.5117-0.0308,0.7745,0.0051c1.8367,0.2511,3.1159,1.9926,2.8567,3.8891l-0.7509,5.4952
		c-0.1032,0.7556-0.7864,1.2919-1.5181,1.1919l-0.6652-0.0909c-0.2543-0.0347-0.4796-0.1454-0.6646-0.3022L34.2357,29.7045z" stroke="none"></path>
  </g>
  <g id="hair">
  </g>
  <g id="skin">
  </g>
  <g id="skin-shadow">
  </g>
  <g id="line">
    <path fill="none" stroke="#000000" stroke-width="2" stroke-linecap="round" stroke-linejoin="round" stroke-miterlimit="10" d="
		M61.6211,44.0459l4.2325-0.5819c1.5519-0.2134,2.6471-1.6577,2.4338-3.2096l-1.3577-9.8759
		c-0.2134-1.5519-1.6577-2.6471-3.2096-2.4338l-4.2325,0.5819"></path>
    <polyline fill="none" stroke="#000000" stroke-width="2" stroke-linecap="round" stroke-linejoin="round" stroke-miterlimit="10" points="
		38.55,32.5042 37.8721,27.5731 58.329,24.7607 61.8949,50.6989 41.438,53.5112 39.463,39.1453 	"></polyline>
    <path fill="none" stroke="#000000" stroke-width="1.1343" stroke-linecap="round" stroke-linejoin="round" stroke-miterlimit="10" d="
		M38.705,32.4304"></path>
    <path fill="none" stroke="#000000" stroke-width="2" stroke-linecap="round" stroke-linejoin="round" stroke-miterlimit="10" d="
		M38.8333,33.25c0.5057-0.2584,0.8189-0.8444,0.7336-1.4689l-0.1542-1.1281c0.439,0.2071,0.9283,0.3023,1.4332,0.2333l1.3084-0.1788
		c0.8481-0.1159,1.5384-0.6531,1.9362-1.3814c0.8731,0.9888,2.1616,1.5414,3.5039,1.358c2.1952-0.3,3.7303-2.454,3.4115-4.7866
		l7.705-1.0531c0.0872-0.4627,0.1068-0.9492,0.0389-1.4454c-0.3202-2.3425-2.3664-3.9969-4.5708-3.6956
		c-0.92,0.1257-1.7192,0.5748-2.3177,1.2226c-0.8493-1.2758-2.3157-2.0295-3.8622-1.8181
		c-0.5648,0.0772-1.0837,0.2763-1.5399,0.5676c-0.9375-0.9642-2.26-1.4884-3.6423-1.2995c-2.0787,0.2841-3.5999,2.0797-3.731,4.2139
		c-0.2539-0.0279-0.5121-0.0337-0.7749,0.0022c-1.8366,0.251-3.1097,2.0372-2.8429,3.9888l0.7729,5.6548
		c0.1063,0.7775,0.7919,1.3319,1.5236,1.2319l0.6652-0.0909C38.5738,33.357,38.7094,33.3134,38.8333,33.25"></path>
    <path fill="none" stroke="#000000" stroke-width="2" stroke-linecap="round" stroke-linejoin="round" stroke-miterlimit="10" d="
		M10.5032,45.0459L6.2707,44.464c-1.5519-0.2134-2.6471-1.6577-2.4338-3.2096l1.3577-9.8759
		c0.2134-1.5519,1.6577-2.6471,3.2096-2.4338l4.2325,0.5819"></path>
    <polyline fill="none" stroke="#000000" stroke-width="2" stroke-linecap="round" stroke-linejoin="round" stroke-miterlimit="10" points="
		33.5743,33.5042 34.2522,28.5731 13.7953,25.7607 10.2294,51.6989 30.6863,54.5112 32.6613,40.1453 	"></polyline>
    <path fill="none" stroke="#000000" stroke-width="1.1343" stroke-linecap="round" stroke-linejoin="round" stroke-miterlimit="10" d="
		M33.4193,33.4304"></path>
    <path fill="none" stroke="#000000" stroke-width="2" stroke-linecap="round" stroke-linejoin="round" stroke-miterlimit="10" d="
		M33.291,34.25c-0.5057-0.2584-0.8189-0.8444-0.7336-1.4688l0.1542-1.1281c-0.439,0.2071-0.9283,0.3023-1.4332,0.2333
		l-1.3084-0.1788c-0.8481-0.1159-1.5384-0.6531-1.9362-1.3814c-0.8731,0.9888-2.1616,1.5414-3.5039,1.358
		c-2.1952-0.3-3.7303-2.454-3.4115-4.7866l-7.705-1.0531c-0.0872-0.4627-0.1068-0.9492-0.0389-1.4454
		c0.3202-2.3425,2.3664-3.9969,4.5708-3.6956c0.92,0.1257,1.7192,0.5748,2.3177,1.2226c0.8493-1.2758,2.3157-2.0295,3.8622-1.8181
		c0.5648,0.0772,1.0837,0.2763,1.5399,0.5676c0.9375-0.9642,2.26-1.4884,3.6423-1.2995c2.0787,0.2841,3.5999,2.0797,3.731,4.2139
		c0.2539-0.0279,0.5121-0.0337,0.7749,0.0022c1.8366,0.251,3.1097,2.0372,2.8429,3.9888l-0.7729,5.6548
		c-0.1063,0.7775-0.7919,1.3319-1.5236,1.2319l-0.6652-0.0909C33.5505,34.357,33.415,34.3134,33.291,34.25"></path>
  </g>
</svg>