<svg version="1.1" id="emoji" xmlns="http://www.w3.org/2000/svg" x="0" y="0" viewBox="0 0 72 72" enable-background="new 0 0 72 72" xml:space="preserve">
  <g id="grid">
    <path fill="#B3B3B3" d="M68,4v64H4V4H68 M72,0H0v72h72V0z"/>
    <path fill="none" stroke="#00A5FF" stroke-width=".1" stroke-miterlimit="10" d="M12.9,11h46.2c1.1,0,1.9,0.9,1.9,1.9l0,0V59 c0,1.1-0.9,1.9-1.9,1.9H12.9C11.9,61,11,60.1,11,59l0,0V12.9C11,11.8,11.9,11,12.9,11L12.9,11z"/>
    <path fill="none" stroke="#00A5FF" stroke-width=".1" stroke-miterlimit="10" d="M18.3,4h35.5C55,4,56,5,56,6.3v59.5 c0,1.2-1,2.3-2.3,2.3H18.3C17,68,16,67,16,65.7V6.3C16,5,17,4,18.3,4z"/>
    <path fill="none" stroke="#00A5FF" stroke-width=".1" stroke-miterlimit="10" d="M68,18.3v35.5c0,1.2-1,2.3-2.3,2.3H6.3 C5,56,4,55,4,53.7V18.3C4,17,5,16,6.3,16h59.5C67,16,68,17,68,18.3z"/>
    <circle fill="none" stroke="#00A5FF" stroke-width=".1" stroke-miterlimit="10" cx="36" cy="36" r="29"/>
  </g>
  <g id="line-supplement">
    <line id="xx" fill="none" stroke="#000000" stroke-width="2" stroke-linecap="round" stroke-linejoin="round" stroke-miterlimit="10" x1="16.9" y1="28" x2="55.2" y2="28"/>
  </g>
  <g id="color">
    <path fill="#FCEA2B" d="M56,33c-0.1-2.1-0.3-4.1-0.7-6H16.8c-0.4,1.9-0.7,3.9-0.7,6l0,0c0,0.2,0,0.4,0,0.6c0,0.1,0,0.2,0,0.4l0,0 c0.5,12.2,9.2,22,20,22s19.5-9.8,20-22l0,0c0-0.1,0-0.2,0-0.4C56,33.4,56,33.2,56,33L56,33z"/>
    <path fill="#F1B31C" d="M56,33L56,33c-0.1-2.1-0.4-4.1-0.8-6h-13c0.4,1.9,0.7,3.9,0.7,6l0,0c0,0.2,0,0.4,0,0.6c0,0.1,0,0.2,0,0.4 l0,0c-0.4,9.6-5.9,17.8-13.5,20.8c2,0.8,4.2,1.2,6.5,1.2c10.8,0,19.5-9.8,20-22l0,0c0-0.1,0-0.2,0-0.4C56,33.4,56,33.2,56,33z"/>
  </g>
  <g id="hair"/>
  <g id="skin"/>
  <g id="skin-shadow"/>
  <g id="line">
    <line fill="none" stroke="#000000" stroke-width="2" stroke-linecap="round" stroke-linejoin="round" stroke-miterlimit="10" x1="36" y1="56" x2="36" y2="67"/>
    <line fill="none" stroke="#000000" stroke-width="2" stroke-linecap="round" stroke-linejoin="round" stroke-miterlimit="10" x1="20" y1="67" x2="52" y2="67"/>
    <path fill="none" stroke="#000000" stroke-width="2" stroke-miterlimit="10" d="M56,33c0,12.7-9,23-20,23S16,45.7,16,33"/>
    <path fill="none" stroke="#000000" stroke-width="2" stroke-linecap="round" stroke-linejoin="round" stroke-miterlimit="10" d="M50.1,15.6C53.8,20.3,56,26.8,56,34"/>
    <path fill="none" stroke="#000000" stroke-width="2" stroke-linecap="round" stroke-linejoin="round" stroke-miterlimit="10" d="M16,34c0-7,2.1-13.3,5.6-18"/>
    <polyline fill="none" stroke="#000000" stroke-width="2" stroke-linecap="round" stroke-linejoin="round" stroke-miterlimit="10" points="43,24 43,11 50,4"/>
  </g>
</svg>
