<svg id="emoji" xmlns="http://www.w3.org/2000/svg" viewBox="0 0 72 72">
  <g id="grid">
    <path d="M68,4V68H4V4H68m4-4H0V72H72V0Z" fill="#b3b3b3"/>
    <path d="M12.923,10.9583H59.0769A1.9231,1.9231,0,0,1,61,12.8814V59.0352a1.9231,1.9231,0,0,1-1.9231,1.9231H12.9231A1.9231,1.9231,0,0,1,11,59.0352V12.8813A1.923,1.923,0,0,1,12.923,10.9583Z" fill="none" stroke="#00a5ff" stroke-miterlimit="10" stroke-width=".1"/>
    <rect x="16" y="4" width="40" height="64" rx="2.2537" fill="none" stroke="#00a5ff" stroke-miterlimit="10" stroke-width=".1"/>
    <rect x="16" y="4" width="40" height="64" rx="2.2537" transform="translate(72) rotate(90)" fill="none" stroke="#00a5ff" stroke-miterlimit="10" stroke-width=".1"/>
    <circle cx="36" cy="36" r="29" fill="none" stroke="#00a5ff" stroke-miterlimit="10" stroke-width=".1"/>
  </g>
  <g id="color">
    <path fill="#FFFFFF" d="M19.9055,55.7995h32.1874C62.8891,49.3081,68,36.2917,68,20.7519H4 C4,36.2917,9.1109,49.3081,19.9055,55.7995z" stroke="none"/>
    <rect x="18.3238" y="29.4186" fill="#b1cc33" width="14.019" height="17.5238" stroke="none"/>
    <polygon fill="#5c9e31" points="31,30 21,47 23,46.9424 32.3429,46.9424 32,30" stroke="none"/>
  </g>
  <g id="hair"/>
  <g id="skin"/>
  <g id="skin-shadow"/>
  <g id="line">
    <path fill="none" stroke="#000000" stroke-width="2" stroke-linecap="round" stroke-linejoin="round" stroke-miterlimit="10" d="M19.5,20.3161H4c0,15.5398,5.1109,28.5562,15.9055,35.0476h32.1874C62.8891,48.8723,68,35.8559,68,20.3161H31.5"/>
    <line fill="none" stroke="#000000" stroke-width="2" stroke-linecap="round" stroke-miterlimit="10" x1="25.5" y1="20.5" x2="25.3334" y2="31.4186"/>
    <rect x="18.3238" y="29.4186" fill="none" stroke="#000000" stroke-width="2" stroke-linejoin="round" stroke-miterlimit="10" width="14.019" height="17.5238"/>
  </g>
</svg>
