<svg id="emoji" xmlns="http://www.w3.org/2000/svg" viewBox="0 0 72 72">
  <g id="grid">
    <path d="M68,4V68H4V4H68m4-4H0V72H72V0Z" fill="#b3b3b3"></path>
    <path d="M12.923,10.9583H59.0769A1.9231,1.9231,0,0,1,61,12.8814V59.0352a1.9231,1.9231,0,0,1-1.9231,1.9231H12.9231A1.9231,1.9231,0,0,1,11,59.0352V12.8813A1.923,1.923,0,0,1,12.923,10.9583Z" fill="none" stroke="#00a5ff" stroke-miterlimit="10" stroke-width="0.1"></path>
    <rect x="16" y="4" width="40" height="64" rx="2.2537" fill="none" stroke="#00a5ff" stroke-miterlimit="10" stroke-width="0.1"></rect>
    <rect x="16" y="4" width="40" height="64" rx="2.2537" transform="translate(72) rotate(90)" fill="none" stroke="#00a5ff" stroke-miterlimit="10" stroke-width="0.1"></rect>
    <circle cx="36" cy="36" r="29" fill="none" stroke="#00a5ff" stroke-miterlimit="10" stroke-width="0.1"></circle>
  </g>
  <g id="color">
    <polygon fill="#EA5A47" points="55,26 17,26 17,14 43.0198,14 55,14 	" stroke="none"></polygon>
    <path fill="#EA5A47" d="M56,24c0,11.0457-8.9543,20-20,20s-20-8.9543-20-20" stroke="none"></path>
    <path fill="#d22f27" d="M55,24V14h-7.5698c0.5966,6.3347,0.293,21.2038-13.788,29.849C34.4169,43.9401,35.2009,44,36,44
		c11.0457,0,20-8.9543,20-20H55z" stroke="none"></path>
    <path fill="#ea5a47" stroke="none" stroke-miterlimit="10" d="M13,14"></path>
    <path fill="#ea5a47" stroke="none" stroke-miterlimit="10" d="M28,16"></path>
  </g>
  <g id="hair">
  </g>
  <g id="skin">
  </g>
  <g id="skin-shadow">
  </g>
  <g id="line">
    <path fill="none" stroke="#000000" stroke-width="2" stroke-linecap="round" stroke-linejoin="round" stroke-miterlimit="10" d="
		M15.3129,5"></path>
    <line fill="none" stroke="#000000" stroke-width="2" stroke-linecap="round" stroke-linejoin="round" stroke-miterlimit="10" x1="20" y1="67" x2="52" y2="67"></line>
    <path fill="none" stroke="#000000" stroke-width="2" stroke-linecap="round" stroke-linejoin="round" stroke-miterlimit="10" d="
		M16.3129,5"></path>
    <line fill="none" stroke="#000000" stroke-width="2" stroke-linecap="round" stroke-linejoin="round" stroke-miterlimit="10" x1="36" y1="44" x2="36" y2="67"></line>
    <path fill="none" stroke="#000000" stroke-width="2" stroke-linecap="round" stroke-linejoin="round" stroke-miterlimit="10" d="
			M56,24c0,3.265-0.7824,6.3473-2.1699,9.0696C50.5236,39.557,43.7807,44,36,44c-11.0457,0-20-8.9543-20-20"></path>
    <line fill="none" stroke="#000000" stroke-width="2" stroke-linecap="round" stroke-linejoin="round" stroke-miterlimit="10" x1="16" y1="5" x2="16" y2="24"></line>
    <line fill="none" stroke="#000000" stroke-width="2" stroke-linecap="round" stroke-linejoin="round" stroke-miterlimit="10" x1="56" y1="5" x2="56" y2="24"></line>
    <path fill="none" stroke="#000000" stroke-miterlimit="10" d="M13,14"></path>
    <path fill="none" stroke="#000000" stroke-miterlimit="10" d="M28,16"></path>
    <line fill="none" stroke="#000000" stroke-width="2" stroke-miterlimit="10" x1="15.5" y1="14.5" x2="55.5" y2="14.5"></line>
  </g>
</svg>