<?xml version="1.0" encoding="UTF-8"?>
<svg id="emoji" xmlns="http://www.w3.org/2000/svg" viewBox="0 0 72 72">
  <g id="grid">
    <path d="m68,4v64H4V4h64M72,0H0v72h72V0Z" fill="#b3b3b3"/>
    <path d="m12.923,10.9583h46.1539c1.0621,0,1.9231.861,1.9231,1.9231h0v46.1538c0,1.0621-.861,1.9231-1.9231,1.9231H12.9231c-1.0621,0-1.9231-.861-1.9231-1.9231h0V12.8813c0-1.062.861-1.923,1.923-1.923h0Z" fill="none" stroke="#00a5ff" stroke-miterlimit="10" stroke-width=".1"/>
    <rect x="16" y="4" width="40" height="64" rx="2.2537" ry="2.2537" fill="none" stroke="#00a5ff" stroke-miterlimit="10" stroke-width=".1"/>
    <rect x="4" y="16" width="64" height="40" rx="2.2537" ry="2.2537" fill="none" stroke="#00a5ff" stroke-miterlimit="10" stroke-width=".1"/>
    <circle cx="36" cy="36" r="29" fill="none" stroke="#00a5ff" stroke-miterlimit="10" stroke-width=".1"/>
  </g>
  <g id="color">
    <path d="m19.9055,55.7995h32.1874c10.7962-6.4914,15.9071-19.5078,15.9071-35.0476l-39.3658-.4358h-6.9242l-17.71.4358c0,15.5398,5.1109,28.5562,15.9055,35.0476Z" fill="#fff"/>
    <rect x="18.3238" y="29.4186" width="14.019" height="17.5238" fill="#b1cc33"/>
    <polygon points="31 30 21 47 23 46.9424 32.3429 46.9424 32 30 31 30" fill="#5c9e31"/>
  </g>
  <g id="line">
    <path d="m19.5,20.3161H4c0,15.5398,5.1109,28.5562,15.9055,35.0476h32.1874c10.7962-6.4914,15.9071-19.5078,15.9071-35.0476H31.5" fill="none" stroke="#000" stroke-linecap="round" stroke-linejoin="round" stroke-width="2"/>
    <line x1="25.5" y1="20.5" x2="25.3334" y2="31.4186" fill="none" stroke="#000" stroke-linecap="round" stroke-miterlimit="10" stroke-width="2"/>
    <rect x="18.3238" y="29.4186" width="14.019" height="17.5238" fill="none" stroke="#000" stroke-linejoin="round" stroke-width="2"/>
  </g>
</svg>