<svg version="1.1" id="emoji" xmlns="http://www.w3.org/2000/svg" x="0" y="0" viewBox="0 0 72 72" enable-background="new 0 0 72 72" xml:space="preserve">
  <g id="grid">
    <path fill="#B3B3B3" d="M68,4v64H4V4H68 M72,0H0v72h72V0z"/>
    <path fill="none" stroke="#00A5FF" stroke-width=".1" stroke-miterlimit="10" d="M12.9,11h46.2c1.1,0,1.9,0.9,1.9,1.9l0,0V59 c0,1.1-0.9,1.9-1.9,1.9H12.9C11.9,61,11,60.1,11,59l0,0V12.9C11,11.8,11.9,11,12.9,11L12.9,11z"/>
    <path fill="none" stroke="#00A5FF" stroke-width=".1" stroke-miterlimit="10" d="M18.3,4h35.5C55,4,56,5,56,6.3v59.5 c0,1.2-1,2.3-2.3,2.3H18.3C17,68,16,67,16,65.7V6.3C16,5,17,4,18.3,4z"/>
    <path fill="none" stroke="#00A5FF" stroke-width=".1" stroke-miterlimit="10" d="M68,18.3v35.5c0,1.2-1,2.3-2.3,2.3H6.3 C5,56,4,55,4,53.7V18.3C4,17,5,16,6.3,16h59.5C67,16,68,17,68,18.3z"/>
    <circle fill="none" stroke="#00A5FF" stroke-width=".1" stroke-miterlimit="10" cx="36" cy="36" r="29"/>
  </g>
  <g id="line-supplement_1_">
    <line id="xx" fill="none" stroke="#000000" stroke-width="2" stroke-linecap="round" stroke-linejoin="round" stroke-miterlimit="10" x1="36.8" y1="37" x2="58.4" y2="37"/>
  </g>
  <g id="color">
    <polygon fill="#F4AA41" points="12.9,36 16.5,67 55.5,67 59.1,36"/>
    <polygon fill="#E27022" points="45.1,36 41.5,67 55.5,67 59.1,36"/>
    <rect x="38.214" y="48.5136" transform="matrix(0.157 -0.9876 0.9876 0.157 -16.8073 90.937)" fill="#FFFFFF" width="13.3" height="13.6"/>
    <rect x="18.808" y="35.8905" transform="matrix(0.9535 -0.3015 0.3015 0.9535 -11.5227 9.8218)" fill="#FFFFFF" width="14.5005" height="12.7004"/>
  </g>
  <g id="hair"/>
  <g id="skin"/>
  <g id="skin-shadow"/>
  <g id="line">
    <polyline fill="none" stroke="#000000" stroke-width="2" stroke-linecap="round" stroke-linejoin="round" stroke-miterlimit="10" points="60,28 55.5,67 16.5,67 12,28"/>
    <rect x="38.214" y="48.5136" transform="matrix(0.157 -0.9876 0.9876 0.157 -16.8073 90.937)" fill="none" stroke="#000000" stroke-width="1.7923" stroke-linecap="round" stroke-linejoin="round" stroke-miterlimit="10" width="13.3" height="13.6"/>
    <rect x="18.808" y="35.8905" transform="matrix(0.9535 -0.3015 0.3015 0.9535 -11.5227 9.8218)" fill="none" stroke="#000000" stroke-width="1.8081" stroke-linecap="round" stroke-linejoin="round" stroke-miterlimit="10" width="14.5005" height="12.7004"/>
  </g>
</svg>
