<svg id="emoji" xmlns="http://www.w3.org/2000/svg" viewBox="0 0 72 72">
  <g id="grid">
    <path d="M68,4V68H4V4H68m4-4H0V72H72V0Z" fill="#b3b3b3"></path>
    <path d="M12.923,10.9583H59.0769A1.9231,1.9231,0,0,1,61,12.8814V59.0352a1.9231,1.9231,0,0,1-1.9231,1.9231H12.9231A1.9231,1.9231,0,0,1,11,59.0352V12.8813A1.923,1.923,0,0,1,12.923,10.9583Z" fill="none" stroke="#00a5ff" stroke-miterlimit="10" stroke-width="0.1"></path>
    <rect x="16" y="4" width="40" height="64" rx="2.2537" fill="none" stroke="#00a5ff" stroke-miterlimit="10" stroke-width="0.1"></rect>
    <rect x="16" y="4" width="40" height="64" rx="2.2537" transform="translate(72) rotate(90)" fill="none" stroke="#00a5ff" stroke-miterlimit="10" stroke-width="0.1"></rect>
    <circle cx="36" cy="36" r="29" fill="none" stroke="#00a5ff" stroke-miterlimit="10" stroke-width="0.1"></circle>
  </g>
  <g id="color">
    <polygon fill="#F4AA41" points="12.9231,36 16.5,67 55.5,67 59.0769,36 	" stroke="none"></polygon>
    <polygon fill="#E27022" points="45.0769,36 41.5,67 55.5,67 59.0769,36 	" stroke="none"></polygon>
    <rect x="38.0299" y="48.7132" transform="matrix(0.9876 0.157 -0.157 0.9876 9.2423 -6.347)" fill="#FFFFFF" stroke="none" stroke-width="1.7923" stroke-linecap="round" stroke-linejoin="round" stroke-miterlimit="10" width="13.5585" height="13.2677"></rect>
    <rect x="18.7842" y="35.8926" transform="matrix(0.9535 -0.3015 0.3015 0.9535 -11.5177 9.8072)" fill="#FFFFFF" stroke="none" stroke-width="1.8081" stroke-linecap="round" stroke-linejoin="round" stroke-miterlimit="10" width="14.4651" height="12.657"></rect>
  </g>
  <g id="hair">
  </g>
  <g id="skin">
  </g>
  <g id="skin-shadow">
  </g>
  <g id="line">
    <polyline fill="none" stroke="#000000" stroke-width="2" stroke-linecap="round" stroke-linejoin="round" stroke-miterlimit="10" points="
		60,28 55.5,67 16.5,67 12,28 	"></polyline>
    <rect x="38.0299" y="48.7132" transform="matrix(0.9876 0.157 -0.157 0.9876 9.2423 -6.347)" fill="none" stroke="#000000" stroke-width="1.7923" stroke-linecap="round" stroke-linejoin="round" stroke-miterlimit="10" width="13.5585" height="13.2677"></rect>
    <rect x="18.7842" y="35.8926" transform="matrix(0.9535 -0.3015 0.3015 0.9535 -11.5177 9.8072)" fill="none" stroke="#000000" stroke-width="1.8081" stroke-linecap="round" stroke-linejoin="round" stroke-miterlimit="10" width="14.4651" height="12.657"></rect>
  </g>
</svg>