<svg id="emoji" version="1.1" viewBox="0 0 72 72" xmlns="http://www.w3.org/2000/svg">
    <g id="grid">
        <path d="M68,4V68H4V4H68m4-4H0V72H72V0Z" fill="#b3b3b3"/>
        <path d="m12.923 10.958h46.154a1.9231 1.9231 0 011.9231 1.9231v46.154a1.9231 1.9231 0 01-1.9231 1.9231h-46.154a1.9231 1.9231 0 01-1.9231-1.9231v-46.154a1.923 1.923 0 011.923-1.923z" fill="none" stroke="#00a5ff" stroke-miterlimit="10" stroke-width=".1"/>
        <rect x="16" y="4" width="40" height="64" rx="2.2537" fill="none" stroke="#00a5ff" stroke-miterlimit="10" stroke-width=".1"/>
        <rect transform="translate(72) rotate(90)" x="16" y="4" width="40" height="64" rx="2.2537" fill="none" stroke="#00a5ff" stroke-miterlimit="10" stroke-width=".1"/>
        <circle cx="36" cy="36" r="29" fill="none" stroke="#00a5ff" stroke-miterlimit="10" stroke-width=".1"/>
    </g>
    <g id="color">
        <path id="color_fill" d="m18.273 38c-1.41-.60931-4.279-4.2418-5.055-5.3813l-4.7256-1.6187c-.10467 5.4196 7.2272 11.308 9.7639 12.939 1.4424 3.4789 3.1394 8.0545 10.465 11.076h14.557c9.8158-1.9951 13.468-11.723 9.0037-21.151l5.0324-.03843c2.8145-1.105 3.4014 5.3433.80722 9.292-.10454 3.1149 2.479 3.3155 3.5719 2.1226 1.1365-1.6516 4.1237-13.588-1.125-15.251h-9.8858l-1.0248-1.9884c-2.3831-2.6294-6.9124-5.8892-10.571-6.25-.2155-1.9868-.34607-4.7443-3.0875-4.75-3.9817.0072-2.7102 2.8187-3.0875 4.75-4.8988.93751-8.2176 2.9875-10.571 5.8968z" fill="#d0cfce" stroke-width="0"/>
    </g>
    <g id="line">
        <path id="top" d="m22.341 28c1.9346-2.9518 4.598-6.25 10.571-6.25l.0875-2.75c.40077-1.6654 1.6087-1.9855 3-2 1.3913.01446 2.5992.33461 3 2l.0875 2.75c5.9732 0 8.6367 3.2982 10.571 6.25" fill="none" stroke-linecap="round" stroke-linejoin="round" stroke-width="2" stroke="#000000"/>
        <path id="spout" d="m18.273 38c-1.6774-.50081-3.9642-3.3214-5.055-5.3813l-4.7256-1.6187c-.03625 7.2702 8.4702 12.736 9.7639 12.939" fill="none" stroke-linecap="round" stroke-linejoin="round" stroke-width="2" stroke="#000000"/>
        <path id="body_lhs" d="m22.342 28c-10.115 19.308 1.7766 27.301 7.3792 27.016h12.556c5.6026.34797 17.497-7.7078 7.3812-27.016z" fill="none" stroke-linejoin="round" stroke-width="2" stroke="#000000"/>
        <path id="handle_in" d="m52.282 33.863 4.7565-.0625c4.3904-.19398 2.059 7.2093 1.1784 9.0661-.94319 2.3026 1.6621 4.2152 3.4766 2.3726 3.4084-4.9319 2.8179-14.73-1.125-15.251h-9.8858" fill="none" stroke-linecap="round" stroke-linejoin="round" stroke-width="2" stroke="#000000"/>
    </g>
</svg>
