<svg id="emoji" xmlns="http://www.w3.org/2000/svg" viewBox="0 0 72 72">
  <g id="grid">
    <path d="M68,4V68H4V4H68m4-4H0V72H72V0Z" fill="#b3b3b3"/>
    <path d="M12.923,10.9583H59.0769A1.9231,1.9231,0,0,1,61,12.8814V59.0352a1.9231,1.9231,0,0,1-1.9231,1.9231H12.9231A1.9231,1.9231,0,0,1,11,59.0352V12.8813A1.923,1.923,0,0,1,12.923,10.9583Z" fill="none" stroke="#00a5ff" stroke-miterlimit="10" stroke-width=".1"/>
    <rect x="16" y="4" width="40" height="64" rx="2.2537" fill="none" stroke="#00a5ff" stroke-miterlimit="10" stroke-width=".1"/>
    <rect x="16" y="4" width="40" height="64" rx="2.2537" transform="translate(72) rotate(90)" fill="none" stroke="#00a5ff" stroke-miterlimit="10" stroke-width=".1"/>
    <circle cx="36" cy="36" r="29" fill="none" stroke="#00a5ff" stroke-miterlimit="10" stroke-width=".1"/>
  </g>
  <g id="color">
    <polygon fill="#D0CFCE" points="58,48 66,39.7002 44,39 33,39 6,40.2998 12,48 18,50.167 26.833,48.75 36,47 43.167,48.167 52,50" stroke="none"/>
    <path fill="#92D3F5" d="M67.958,46.958C59.958,46.958,57,50,52,50s-10-3-16-3s-10,3-16,3S7,47,4,47c0,0,0,10.916,0,12.666 C4,61.082,5.4189,68,11,68c5.6689,0,19.0635,0,24.9795,0c3.083,0,20.1035,0,26.1035,0c5.832,0,5.876-5.834,5.876-10.5215 C67.959,54.8125,67.958,46.958,67.958,46.958z" stroke="none"/>
    <path fill="#A57939" d="M25,49c0,0,3.0557-2.1807,4-3c2.1367-1.8535,5-2,5-2l13-11l0.75-0.666c0,0,0.916,1.582,0.582,2.249 S42.25,39.75,42.25,39.75l-6.334,5.583l0.251,2.084l-9.334,1.333L25,49z" stroke="none"/>
  </g>
  <g id="hair"/>
  <g id="skin">
    <circle fill="#FCEA2B" cx="35" cy="23" r="3" stroke="none"/>
    <path fill="#FCEA2B" d="M47,33c-4-1-11.0996-3.2002-15-4c-5-1-10,11-10,11h8l4.5039-7.791l10.166,2.166" stroke="none"/>
  </g>
  <g id="skin-shadow"/>
  <g id="line">
    <polyline fill="none" stroke="#000000" stroke-width="2" stroke-linecap="round" stroke-linejoin="round" stroke-miterlimit="10" points="12,48 6,40.2998 33,40"/>
    <circle fill="none" stroke="#000000" stroke-width="2" stroke-linecap="round" stroke-linejoin="round" stroke-miterlimit="10" cx="35" cy="23" r="3"/>
    <path fill="none" stroke="#000000" stroke-width="2" stroke-linecap="round" stroke-linejoin="round" stroke-miterlimit="10" d="M47,33c-4-1-11.0996-3.2002-15-4c-5-1-10,11-10,11"/>
    <line fill="none" stroke="#000000" stroke-width="2" stroke-linecap="round" stroke-linejoin="round" stroke-miterlimit="10" x1="30" y1="40" x2="34" y2="33"/>
    <path fill="none" stroke="#000000" stroke-width="2" stroke-linecap="round" stroke-linejoin="round" stroke-miterlimit="10" d="M5,47c3,0,9,3,15,3s10-3,16-3s11,3,16,3s7-3,15-3"/>
    <path fill="none" stroke="#000000" stroke-width="2" stroke-linecap="round" stroke-linejoin="round" stroke-miterlimit="10" d="M25,49c0,0,3.0557-2.1807,4-3c2.1367-1.8535,5-2,5-2l13-11"/>
    <polyline fill="none" stroke="#000000" stroke-width="2" stroke-linecap="round" stroke-linejoin="round" stroke-miterlimit="10" points="56.9775,49 66,39.7002 44,40"/>
  </g>
</svg>
