<svg id="emoji" xmlns="http://www.w3.org/2000/svg" viewBox="0 0 72 72">
  <g id="grid">
    <path d="M68,4V68H4V4H68m4-4H0V72H72V0Z" fill="#b3b3b3"></path>
    <path d="M12.923,10.9583H59.0769A1.9231,1.9231,0,0,1,61,12.8814V59.0352a1.9231,1.9231,0,0,1-1.9231,1.9231H12.9231A1.9231,1.9231,0,0,1,11,59.0352V12.8813A1.923,1.923,0,0,1,12.923,10.9583Z" fill="none" stroke="#00a5ff" stroke-miterlimit="10" stroke-width="0.1"></path>
    <rect x="16" y="4" width="40" height="64" rx="2.2537" fill="none" stroke="#00a5ff" stroke-miterlimit="10" stroke-width="0.1"></rect>
    <rect x="16" y="4" width="40" height="64" rx="2.2537" transform="translate(72) rotate(90)" fill="none" stroke="#00a5ff" stroke-miterlimit="10" stroke-width="0.1"></rect>
    <circle cx="36" cy="36" r="29" fill="none" stroke="#00a5ff" stroke-miterlimit="10" stroke-width="0.1"></circle>
  </g>
  <g id="color">
    <circle fill="#EA5A47" cx="19.9688" cy="18.0938" r="2" stroke="none"></circle>
    <circle fill="#92D3F5" cx="40.9688" cy="6.0938" r="2" stroke="none"></circle>
    <circle fill="#B1CC33" cx="55.9688" cy="27.0938" r="2" stroke="none"></circle>
  </g>
  <g id="hair">
  </g>
  <g id="skin">
    <circle fill="#fcea2b" cx="35.9688" cy="13.0938" r="3" stroke="none"></circle>
    <path fill="#FCEA2B" d="M30,26l-1.7002,41h3.2998L35,42h2l3.4004,25h3.2998L42,26c0,0,0.2139,4.1162,1.417,6
			c0.8574,1.3428,2.666,3.375,6.125,2.875c0,0,4.5205-0.5625,5.333-2.25c0.4648-0.9658,0.125-1.584,0.042-1.875
			s-2.667,0.709-2.667,0.709L49.167,32l-2.083-1.125l-1.334-1.458l-1.958-7.292l-3.458-1.333l-9.709-0.2085l-3.416,4.458
			l-0.542,4.2915L25,30.5l-6.666-6.1665c0,0-1.459,1.729-0.459,3.104s3.7881,5.3242,5.916,5.7285
			c2.417,0.459,3.793-0.6152,4.375-1.416C28.833,30.833,29.667,28.667,30,26z" stroke="none"></path>
  </g>
  <g id="skin-shadow">
  </g>
  <g id="line">
    <circle fill="none" stroke="#000000" stroke-width="2" stroke-miterlimit="10" cx="35.9688" cy="13.0938" r="3"></circle>
    <path fill="none" stroke="#000000" stroke-width="2" stroke-linecap="round" stroke-linejoin="round" stroke-miterlimit="10" d="
			M41,26l2.5684,39.0039C43.6406,66.1016,42.958,67,42.0508,67c-0.9082,0-1.7715-0.8916-1.9199-1.9814l-2.8614-21.0372
			C37.1211,42.8916,36.5498,42,36,42c-0.5498,0-1.1211,0.8916-1.2695,1.9814l-2.8614,21.0372C31.7207,66.1084,30.8574,67,29.9492,67
			c-0.9072,0-1.5898-0.8984-1.5176-1.9961L31,26"></path>
    <path fill="none" stroke="#000000" stroke-width="2" stroke-linecap="round" stroke-linejoin="round" stroke-miterlimit="10" d="
			M19,25l3.707,4.2373c1.8116,2.0693,3.6631,1.543,4.1153-1.1694l0.3554-2.1358C27.6299,23.2192,29.7998,20.7749,32,20.5
			c2.2002-0.2749,5.7998-0.2749,8,0c2.2002,0.2749,4.3701,2.7192,4.8223,5.4321l0.3554,2.1358
			C45.6299,30.7803,47.7998,32.5498,50,32c2.2002-0.5498,4-1,4-1"></path>
  </g>
</svg>