<svg id="emoji" xmlns="http://www.w3.org/2000/svg" viewBox="0 0 72 72">
  <g id="grid">
    <path d="M68,4V68H4V4H68m4-4H0V72H72V0Z" fill="#b3b3b3"/>
    <path d="M12.923,10.9583H59.0769A1.9231,1.9231,0,0,1,61,12.8814V59.0352a1.9231,1.9231,0,0,1-1.9231,1.9231H12.9231A1.9231,1.9231,0,0,1,11,59.0352V12.8813A1.923,1.923,0,0,1,12.923,10.9583Z" fill="none" stroke="#00a5ff" stroke-miterlimit="10" stroke-width="0.1"/>
    <rect x="16" y="4" width="40" height="64" rx="2.2537" fill="none" stroke="#00a5ff" stroke-miterlimit="10" stroke-width="0.1"/>
    <rect x="16" y="4" width="40" height="64" rx="2.2537" transform="rotate(90 36 36)" fill="none" stroke="#00a5ff" stroke-miterlimit="10" stroke-width="0.1"/>
    <circle cx="36" cy="36" r="29" fill="none" stroke="#00a5ff" stroke-miterlimit="10" stroke-width="0.1"/>
  </g>
  <g id="color">
    <path fill="#D0CFCE" stroke="none" stroke-width="2" stroke-miterlimit="10" d="M47,59.423V11.6683 c0-0.4795-0.3887-0.8683-0.8683-0.8683H33.4409c-0.2145,0-0.4214,0.0794-0.5808,0.2229l-6.1083,5.4975 c-0.3341,0.3007-0.3835,0.8067-0.1138,1.1663l1.2855,1.714c0.1973,0.2631,0.2291,0.6151,0.082,0.9093l-8.1617,16.3234 c-0.2887,0.5773,0.1311,1.2566,0.7766,1.2566h4.1364c0.6455,0,1.0653,0.6793,0.7766,1.2566l-2.7531,5.5062 c-0.0603,0.1206-0.0917,0.2535-0.0917,0.3883v5.8729c0,0.4795,0.3887,0.8683,0.8683,0.8683h8.6827 c0.4795,0,0.8683,0.3887,0.8683,0.8683v6.5988c0,0.4795,0.3887,0.8683,0.8683,0.8683h12.1558C46.6113,60.1176,47,59.9025,47,59.423 z"/>
    <polyline fill="#d0cfce" stroke="none" stroke-width="2" stroke-linecap="round" stroke-linejoin="round" stroke-miterlimit="10" points="41.1377,31.6384 41.1377,44.8361 42.75,44.8361"/>
  </g>
  <g id="hair"/>
  <g id="skin"/>
  <g id="skin-shadow"/>
  <g id="line">
    <path stroke="#000000" stroke-miterlimit="10" d="M45.2635,60.483" fill="#000000"/>
    <path fill="none" stroke="#000000" stroke-width="2" stroke-miterlimit="10" d="M47,59.423V11.6683 c0-0.4795-0.3887-0.8683-0.8683-0.8683H33.4409c-0.2145,0-0.4214,0.0794-0.5808,0.2229l-6.1083,5.4975 c-0.3341,0.3007-0.3835,0.8067-0.1138,1.1663l1.2855,1.714c0.1973,0.2631,0.2291,0.6151,0.082,0.9093l-8.1617,16.3234 c-0.2887,0.5773,0.1311,1.2566,0.7766,1.2566h4.1364c0.6455,0,1.0653,0.6793,0.7766,1.2566l-2.7531,5.5062 c-0.0603,0.1206-0.0917,0.2535-0.0917,0.3883v5.8729c0,0.4795,0.3887,0.8683,0.8683,0.8683h8.6827 c0.4795,0,0.8683,0.3887,0.8683,0.8683v6.5988c0,0.4795,0.3887,0.8683,0.8683,0.8683h12.1558C46.6113,60.1176,47,59.9025,47,59.423 z"/>
    <line fill="#000000" stroke="#000000" stroke-width="2" stroke-linecap="round" stroke-linejoin="round" stroke-miterlimit="10" x1="22.6885" y1="44.8361" x2="28.2454" y2="44.8361"/>
    <polyline fill="none" stroke="#000000" stroke-width="2" stroke-linecap="round" stroke-linejoin="round" stroke-miterlimit="10" points="41.1377,31.6384 41.1377,44.8361 42.75,44.8361"/>
    <polyline fill="none" stroke="#000000" stroke-width="2" stroke-linecap="round" stroke-linejoin="round" stroke-miterlimit="10" points="29.3465,26.5 36.9872,19.9862 34.9038,19.9862 32.7812,19.9862"/>
  </g>
</svg>
