<svg id="emoji" xmlns="http://www.w3.org/2000/svg" viewBox="0 0 72 72">
  <g id="grid">
    <path d="M68,4V68H4V4H68m4-4H0V72H72V0Z" fill="#b3b3b3"/>
    <path d="M12.923,10.9583H59.0769A1.9231,1.9231,0,0,1,61,12.8814V59.0352a1.9231,1.9231,0,0,1-1.9231,1.9231H12.9231A1.9231,1.9231,0,0,1,11,59.0352V12.8813A1.923,1.923,0,0,1,12.923,10.9583Z" fill="none" stroke="#00a5ff" stroke-miterlimit="10" stroke-width="0.1"/>
    <rect x="16" y="4" width="40" height="64" rx="2.2537" ry="2.2537" fill="none" stroke="#00a5ff" stroke-miterlimit="10" stroke-width="0.1"/>
    <rect x="16" y="4" width="40" height="64" rx="2.2537" ry="2.2537" transform="translate(72) rotate(90)" fill="none" stroke="#00a5ff" stroke-miterlimit="10" stroke-width="0.1"/>
    <circle cx="36" cy="36" r="29" fill="none" stroke="#00a5ff" stroke-miterlimit="10" stroke-width="0.1"/>
  </g>
  <g id="color">
    <rect x="5" y="17" width="62" height="38" fill="#f1b31c"/>
    <rect x="5" y="17" width="21" height="38" fill="#1e50a0"/>
    <rect x="46" y="17" width="21" height="38" fill="#1e50a0"/>
    <g>
      <polygon id="_" points="33.415 29.501 36 26.712 38.585 29.501 37.943 30.096 36.439 28.467 36.439 45.288 35.561 45.288 35.561 28.467 34.057 30.096 33.415 29.501" stroke="#000" stroke-linecap="round" stroke-linejoin="round"/>
      <polygon id="_2" points="41.5 39.212 40.703 39.212 40.703 31.9 39.685 33.003 39.25 32.6 41.5 30.212 41.5 39.212" stroke="#000" stroke-linecap="round" stroke-linejoin="round"/>
      <polygon id="_3" points="30.5 30.212 32.75 32.6 32.315 33.003 31.297 31.9 31.297 39.212 30.5 39.212 30.5 30.212" stroke="#000" stroke-linecap="round" stroke-linejoin="round"/>
      <polygon id="_4" points="41.5 39.297 30.5 39.297 30.5 38.703 41.5 38.703 41.5 39.297" stroke="#000" stroke-linecap="round" stroke-linejoin="round"/>
    </g>
  </g>
  <g id="line">
    <rect x="5" y="17" width="62" height="38" fill="none" stroke="#000" stroke-linecap="round" stroke-linejoin="round" stroke-width="2"/>
  </g>
</svg>
