<svg id="emoji" xmlns="http://www.w3.org/2000/svg" viewBox="0 0 72 72">
  <g id="color">
    <rect x="5" y="17" width="62" height="38" fill="#f1b31c"/>
    <path d="M23,33v7a2.0059,2.0059,0,0,1-2,2H17a2.0059,2.0059,0,0,1-2-2V33" fill="#d22f27"/>
    <rect x="5" y="17" width="62" height="9" fill="#d22f27"/>
    <rect x="5" y="46" width="62" height="9" fill="#d22f27"/>
    <rect x="19" y="33" width="4" height="4" fill="#f1b31c"/>
    <circle cx="19" cy="37" r="1.5" fill="#6a462f"/>
    <g>
      <line x1="27" y1="33" x2="27" y2="42" fill="none" stroke="#6a462f" stroke-linecap="round" stroke-linejoin="round" stroke-width="2"/>
      <line x1="11" y1="33" x2="11" y2="42" fill="none" stroke="#6a462f" stroke-linecap="round" stroke-linejoin="round" stroke-width="2"/>
      <path d="M15,30a8.5678,8.5678,0,0,1,4-1" fill="none" stroke="#6a462f" stroke-linecap="round" stroke-linejoin="round" stroke-width="2"/>
      <path d="M23,30a8.5678,8.5678,0,0,0-4-1" fill="none" stroke="#6a462f" stroke-linecap="round" stroke-linejoin="round" stroke-width="2"/>
      <line x1="15" y1="33" x2="23" y2="33" fill="none" stroke="#6a462f" stroke-linecap="round" stroke-linejoin="round" stroke-width="2"/>
      <path d="M23,33v7a2.0059,2.0059,0,0,1-2,2H17a2.0059,2.0059,0,0,1-2-2V33" fill="none" stroke="#6a462f" stroke-linecap="round" stroke-linejoin="round" stroke-width="2"/>
      <line x1="10" y1="42" x2="12" y2="42" fill="none" stroke="#6a462f" stroke-linecap="round" stroke-linejoin="round" stroke-width="2"/>
      <line x1="26" y1="42" x2="28" y2="42" fill="none" stroke="#6a462f" stroke-linecap="round" stroke-linejoin="round" stroke-width="2"/>
    </g>
  </g>
  <g id="line">
    <rect x="5" y="17" width="62" height="38" fill="none" stroke="#000" stroke-linecap="round" stroke-linejoin="round" stroke-width="2"/>
  </g>
</svg>
