<svg id="emoji" xmlns="http://www.w3.org/2000/svg" viewBox="0 0 72 72">
  <g id="grid">
    <path d="M68,4V68H4V4H68m4-4H0V72H72V0Z" fill="#b3b3b3"/>
    <path d="M12.923,10.9583H59.0769A1.9231,1.9231,0,0,1,61,12.8814V59.0352a1.9231,1.9231,0,0,1-1.9231,1.9231H12.9231A1.9231,1.9231,0,0,1,11,59.0352V12.8813A1.923,1.923,0,0,1,12.923,10.9583Z" fill="none" stroke="#00a5ff" stroke-miterlimit="10" stroke-width="0.1"/>
    <rect x="16" y="4" width="40" height="64" rx="2.2537" ry="2.2537" fill="none" stroke="#00a5ff" stroke-miterlimit="10" stroke-width="0.1"/>
    <rect x="16" y="4" width="40" height="64" rx="2.2537" ry="2.2537" transform="translate(72) rotate(90)" fill="none" stroke="#00a5ff" stroke-miterlimit="10" stroke-width="0.1"/>
    <circle cx="36" cy="36" r="29" fill="none" stroke="#00a5ff" stroke-miterlimit="10" stroke-width="0.1"/>
  </g>
  <g id="color">
    <rect x="5" y="17" width="62" height="38" fill="#d22f27"/>
    <polygon points="53.5 30.5 46.547 39 39 37 41 31 45.87 36.74 53.37 29.389 57.207 29.518 53.5 30.5" fill="#fff" stroke="#fff" stroke-linecap="round" stroke-linejoin="round"/>
    <polygon points="26.858 22.347 37.77 23.574 40.187 30.998 34.062 32.575 36.24 25.369 25.995 23.06 24.021 19.766 26.858 22.347" fill="#fff" stroke="#fff" stroke-linecap="round" stroke-linejoin="round"/>
    <polygon points="31.511 48.414 28.113 37.971 33.873 32.7 37.842 37.624 30.38 38.622 32.516 48.905 30.335 52.064 31.511 48.414" fill="#fff" stroke="#fff" stroke-linecap="round" stroke-linejoin="round"/>
    <polygon points="38.165 36.915 40.719 31.1 34.65 31.728 38.165 36.915" fill="#fff" stroke="#fff" stroke-linecap="round" stroke-linejoin="round" stroke-width="2"/>
    <line x1="38" y1="34" x2="39" y2="38" fill="none" stroke="#fcea2b" stroke-linecap="round" stroke-linejoin="round" stroke-width="2"/>
    <polyline points="41 31 38 34 34 32" fill="none" stroke="#fcea2b" stroke-linecap="round" stroke-linejoin="round" stroke-width="2"/>
    <polygon points="24.209 28.342 25.165 25.342 26.063 28.323 23.654 26.5 26.654 26.469 24.209 28.342" fill="#fcea2b" stroke="#fcea2b" stroke-linecap="round" stroke-linejoin="round"/>
    <polygon points="49.209 29.342 50.165 26.342 51.063 29.323 48.654 27.5 51.654 27.469 49.209 29.342" fill="#fcea2b" stroke="#fcea2b" stroke-linecap="round" stroke-linejoin="round"/>
    <polygon points="35.209 49.342 36.165 46.342 37.063 49.323 34.654 47.5 37.654 47.469 35.209 49.342" fill="#fcea2b" stroke="#fcea2b" stroke-linecap="round" stroke-linejoin="round"/>
  </g>
  <g id="line">
    <rect x="5" y="17" width="62" height="38" fill="none" stroke="#000" stroke-linecap="round" stroke-linejoin="round" stroke-width="2"/>
  </g>
</svg>
