<svg id="emoji" viewBox="0 0 72 72" xmlns="http://www.w3.org/2000/svg">
  <g id="grid">
    <path fill="#b3b3b3" d="M68,4V68H4V4H68m4-4H0V72H72V0Z"/>
    <path fill="none" stroke="#00a5ff" stroke-miterlimit="10" stroke-width="0.1" d="M12.923,10.9583H59.0769A1.9231,1.9231,0,0,1,61,12.8814V59.0352a1.9231,1.9231,0,0,1-1.9231,1.9231H12.9231A1.9231,1.9231,0,0,1,11,59.0352V12.8813A1.923,1.923,0,0,1,12.923,10.9583Z"/>
    <rect x="16" y="4" rx="2.2537" ry="2.2537" width="40" height="64" fill="none" stroke="#00a5ff" stroke-miterlimit="10" stroke-width="0.1"/>
    <rect x="16" y="4" rx="2.2537" ry="2.2537" width="40" height="64" transform="translate(72) rotate(90)" fill="none" stroke="#00a5ff" stroke-miterlimit="10" stroke-width="0.1"/>
    <circle cx="36" cy="36" r="29" fill="none" stroke="#00a5ff" stroke-miterlimit="10" stroke-width="0.1"/>
  </g>
  <g id="line-supplement">
    <path transform="scale(2.7, 2.7) translate(-5.3, -8) translate(15 24.97)" d="m0-7h-4v7h4" stroke-width="2px" stroke="#000" stroke-miterlimit="10" fill="none" stroke-linecap="round" stroke-linejoin="round"/>
    <path transform="scale(2.7, 2.7) translate(-5.3, -8) translate(11 21.47)" d="m0 0h3" stroke-width="2px" stroke="#000" stroke-miterlimit="10" fill="none" stroke-linecap="round" stroke-linejoin="round"/>
    <path transform="scale(2.7, 2.7) translate(+5.3, -8) matrix(0 1 1 0 17 23.97)" d="m-6-1h4.5c1.381 0 2.5-1.119 2.5-2.5 0-1.38-1.119-2.5-2.5-2.5h-4.5" stroke-width="2px" stroke="#000" stroke-miterlimit="10" fill="none" stroke-linecap="round" stroke-linejoin="round"/>
  </g>
  <g id="color">
    <rect x="5" y="17" width="62" height="38" fill="#1e50a0"/>
    <g>
      <polygon fill="#f1b31c" stroke="#f1b31c" stroke-linecap="round" stroke-linejoin="round" points="35.105 26.794 36.024 24.099 36.816 26.753 34.616 25.154 37.384 25.087 35.105 26.794"/>
      <polygon fill="#f1b31c" stroke="#f1b31c" stroke-linecap="round" stroke-linejoin="round" points="35.105 47.901 36.024 45.206 36.816 47.859 34.616 46.261 37.384 46.194 35.105 47.901"/>
      <polygon fill="#f1b31c" stroke="#f1b31c" stroke-linecap="round" stroke-linejoin="round" points="26.093 31.922 27.011 29.227 27.804 31.88 25.603 30.282 28.371 30.215 26.093 31.922"/>
      <polygon fill="#f1b31c" stroke="#f1b31c" stroke-linecap="round" stroke-linejoin="round" points="44.371 42.475 45.29 39.78 46.082 42.434 43.882 40.835 46.65 40.768 44.371 42.475"/>
      <polygon fill="#f1b31c" stroke="#f1b31c" stroke-linecap="round" stroke-linejoin="round" points="29.838 28.242 30.757 25.547 31.549 28.2 29.348 26.602 32.116 26.535 29.838 28.242"/>
      <polygon fill="#f1b31c" stroke="#f1b31c" stroke-linecap="round" stroke-linejoin="round" points="40.391 46.52 41.31 43.826 42.102 46.479 39.901 44.88 42.67 44.814 40.391 46.52"/>
      <polygon fill="#f1b31c" stroke="#f1b31c" stroke-linecap="round" stroke-linejoin="round" points="45.659 37.347 46.578 34.653 47.37 37.306 45.169 35.707 47.937 35.641 45.659 37.347"/>
      <polygon fill="#f1b31c" stroke="#f1b31c" stroke-linecap="round" stroke-linejoin="round" points="24.552 37.347 25.471 34.653 26.263 37.306 24.063 35.707 26.831 35.641 24.552 37.347"/>
      <polygon fill="#f1b31c" stroke="#f1b31c" stroke-linecap="round" stroke-linejoin="round" points="40.281 28.216 41.2 25.522 41.992 28.175 39.792 26.576 42.56 26.51 40.281 28.216"/>
      <polygon fill="#f1b31c" stroke="#f1b31c" stroke-linecap="round" stroke-linejoin="round" points="29.728 46.495 30.647 43.8 31.439 46.454 29.238 44.855 32.007 44.788 29.728 46.495"/>
      <polygon fill="#f1b31c" stroke="#f1b31c" stroke-linecap="round" stroke-linejoin="round" points="44.13 31.886 45.048 29.191 45.841 31.845 43.64 30.246 46.408 30.179 44.13 31.886"/>
      <polygon fill="#f1b31c" stroke="#f1b31c" stroke-linecap="round" stroke-linejoin="round" points="25.851 42.439 26.77 39.745 27.562 42.398 25.361 40.799 28.129 40.733 25.851 42.439"/>
    </g>
  </g>
  <g id="line">
    <rect x="5" y="17" width="62" height="38" fill="none" stroke="#000" stroke-linecap="round" stroke-linejoin="round" stroke-width="2"/>
  </g>
</svg>
