<svg id="emoji" viewBox="0 0 72 72" xmlns="http://www.w3.org/2000/svg">
  <g id="grid">
    <path fill="#b3b3b3" d="M68,4V68H4V4H68m4-4H0V72H72V0Z"/>
    <path fill="none" stroke="#00a5ff" stroke-miterlimit="10" stroke-width="0.1" d="M12.923,10.9583H59.0769A1.9231,1.9231,0,0,1,61,12.8814V59.0352a1.9231,1.9231,0,0,1-1.9231,1.9231H12.9231A1.9231,1.9231,0,0,1,11,59.0352V12.8813A1.923,1.923,0,0,1,12.923,10.9583Z"/>
    <rect x="16" y="4" rx="2.2537" ry="2.2537" width="40" height="64" fill="none" stroke="#00a5ff" stroke-miterlimit="10" stroke-width="0.1"/>
    <rect x="16" y="4" rx="2.2537" ry="2.2537" width="40" height="64" transform="translate(72) rotate(90)" fill="none" stroke="#00a5ff" stroke-miterlimit="10" stroke-width="0.1"/>
    <circle cx="36" cy="36" r="29" fill="none" stroke="#00a5ff" stroke-miterlimit="10" stroke-width="0.1"/>
  </g>
  <g id="line-supplement">
    <path transform="scale(2.7, 2.7) translate(-5.3, -8) translate(13.5 17.97)" d="m0 6.974h-2.427v-6.974h2.427c1.148 0 2.08 0.931 2.08 2.079v2.815c0 1.149-0.932 2.08-2.08 2.08z" stroke-width="2px" stroke="#000" stroke-miterlimit="10" fill="none" stroke-linecap="round" stroke-linejoin="round"/>
    <path transform="scale(2.7, 2.7) translate(+5.3, -8) translate(15 24.34)" d="m0-5.742c-0.441-0.392-1.022-0.629-1.659-0.629-1.38 0-2.5 1.119-2.5 2.5v2c0 1.38 1.12 2.5 2.5 2.5 1.381 0 2.5-1.12 2.5-2.5v-1.014h-2" stroke-width="2px" stroke="#000" stroke-miterlimit="10" fill="none" stroke-linecap="round" stroke-linejoin="round"/>
  </g>
  <g id="color">
    <rect x="5" y="17" width="62" height="38" fill="#fff"/>
    <path fill="#fff" d="M67,44a42.5886,42.5886,0,0,1-6.2,1c-1.5693-.0494-4.6308-1.0494-6.2-1s-4.6308,1.0494-6.2,1-4.6307-1.0494-6.2-1-4.6307,1.0494-6.2,1-4.6308-1.0492-6.2-1-4.6308,1.0481-6.2,1-4.6306-1.0415-6.2-1-4.63,1-6.2,1A50.8361,50.8361,0,0,1,5,44V42a50.8361,50.8361,0,0,0,6.2,1c1.57,0,4.6305-.9586,6.2-1s4.6308.9519,6.2,1,4.6308-.9508,6.2-1,4.6307.9506,6.2,1,4.6307-.9506,6.2-1,4.6307.9506,6.2,1,4.6307-.9506,6.2-1,4.6307.9506,6.2,1A42.5886,42.5886,0,0,0,67,42Z"/>
    <path fill="#1e50a0" d="M67,46a42.5886,42.5886,0,0,1-6.2,1c-1.5693-.0494-4.6308-1.0494-6.2-1s-4.6308,1.0494-6.2,1-4.6307-1.0494-6.2-1-4.6307,1.0494-6.2,1-4.6308-1.0492-6.2-1-4.6308,1.0481-6.2,1-4.6306-1.0415-6.2-1-4.63,1-6.2,1A50.8361,50.8361,0,0,1,5,46V44a50.8361,50.8361,0,0,0,6.2,1c1.57,0,4.6305-.9586,6.2-1s4.6308.9519,6.2,1,4.6308-.9508,6.2-1,4.6307.9506,6.2,1,4.6307-.9506,6.2-1,4.6307.9506,6.2,1,4.6307-.9506,6.2-1,4.6307.9506,6.2,1A42.5886,42.5886,0,0,0,67,44Z"/>
    <path fill="#fff" d="M67,48a42.5886,42.5886,0,0,1-6.2,1c-1.5693-.0494-4.6308-1.0494-6.2-1s-4.6308,1.0494-6.2,1-4.6307-1.0494-6.2-1-4.6307,1.0494-6.2,1-4.6308-1.0492-6.2-1-4.6308,1.0481-6.2,1-4.6306-1.0415-6.2-1-4.63,1-6.2,1A50.8361,50.8361,0,0,1,5,48V46a50.8361,50.8361,0,0,0,6.2,1c1.57,0,4.6305-.9586,6.2-1s4.6308.9519,6.2,1,4.6308-.9508,6.2-1,4.6307.9506,6.2,1,4.6307-.9506,6.2-1,4.6307.9506,6.2,1,4.6307-.9506,6.2-1,4.6307.9506,6.2,1A42.5886,42.5886,0,0,0,67,46Z"/>
    <path fill="#1e50a0" d="M67,50a42.5886,42.5886,0,0,1-6.2,1c-1.5693-.0494-4.6308-1.0494-6.2-1s-4.6308,1.0494-6.2,1-4.6307-1.0494-6.2-1-4.6307,1.0494-6.2,1-4.6308-1.0492-6.2-1-4.6308,1.0481-6.2,1-4.6306-1.0415-6.2-1-4.63,1-6.2,1A50.8361,50.8361,0,0,1,5,50V48a50.8361,50.8361,0,0,0,6.2,1c1.57,0,4.6305-.9586,6.2-1s4.6308.9519,6.2,1,4.6308-.9508,6.2-1,4.6307.9506,6.2,1,4.6307-.9506,6.2-1,4.6307.9506,6.2,1,4.6307-.9506,6.2-1,4.6307.9506,6.2,1A42.5886,42.5886,0,0,0,67,48Z"/>
    <path fill="#1e50a0" d="M67,55s-4.6307-.9506-6.2-1-4.6308.9506-6.2,1-4.6308-.9506-6.2-1-4.6307.9506-6.2,1-4.6307-.9506-6.2-1-4.6308.9508-6.2,1-4.6308-.9519-6.2-1-4.6306.9585-6.2,1-4.63-1-6.2-1A50.8361,50.8361,0,0,0,5,55V51a50.8361,50.8361,0,0,0,6.2,1c1.57,0,4.6305-.9586,6.2-1s4.6308.9519,6.2,1,4.6308-.9508,6.2-1,4.6307.9506,6.2,1,4.6307-.9506,6.2-1,4.6307.9506,6.2,1,4.6307-.9506,6.2-1,4.6307.9506,6.2,1A42.5886,42.5886,0,0,0,67,51Z"/>
    <path fill="#fff" d="M67,52a42.5886,42.5886,0,0,1-6.2,1c-1.5693-.0494-4.6308-1.0494-6.2-1s-4.6308,1.0494-6.2,1-4.6307-1.0494-6.2-1-4.6307,1.0494-6.2,1-4.6308-1.0492-6.2-1-4.6308,1.0481-6.2,1-4.6306-1.0415-6.2-1-4.63,1-6.2,1A50.8361,50.8361,0,0,1,5,52V50a50.8361,50.8361,0,0,0,6.2,1c1.57,0,4.6305-.9586,6.2-1s4.6308.9519,6.2,1,4.6308-.9508,6.2-1,4.6307.9506,6.2,1,4.6307-.9506,6.2-1,4.6307.9506,6.2,1,4.6307-.9506,6.2-1,4.6307.9506,6.2,1A42.5886,42.5886,0,0,0,67,50Z"/>
    <path fill="#1e50a0" d="M67,38a42.5886,42.5886,0,0,1-6.2,1c-1.5693-.0494-4.6308-1.0494-6.2-1s-4.6308,1.0494-6.2,1-4.6307-1.0494-6.2-1-4.6307,1.0494-6.2,1-4.6308-1.0492-6.2-1-4.6308,1.0481-6.2,1-4.6306-1.0415-6.2-1-4.63,1-6.2,1A50.8361,50.8361,0,0,1,5,38V36a50.8361,50.8361,0,0,0,6.2,1c1.57,0,4.6305-.9586,6.2-1s4.6308.9519,6.2,1,4.6308-.9508,6.2-1,4.6307.9506,6.2,1,4.6307-.9506,6.2-1,4.6307.9506,6.2,1,4.6307-.9506,6.2-1,4.6307.9506,6.2,1A42.5886,42.5886,0,0,0,67,36Z"/>
    <path fill="#fff" d="M67,40a42.5886,42.5886,0,0,1-6.2,1c-1.5693-.0494-4.6308-1.0494-6.2-1s-4.6308,1.0494-6.2,1-4.6307-1.0494-6.2-1-4.6307,1.0494-6.2,1-4.6308-1.0492-6.2-1-4.6308,1.0481-6.2,1-4.6306-1.0415-6.2-1-4.63,1-6.2,1A50.8361,50.8361,0,0,1,5,40V38a50.8361,50.8361,0,0,0,6.2,1c1.57,0,4.6305-.9586,6.2-1s4.6308.9519,6.2,1,4.6308-.9508,6.2-1,4.6307.9506,6.2,1,4.6307-.9506,6.2-1,4.6307.9506,6.2,1,4.6307-.9506,6.2-1,4.6307.9506,6.2,1A42.5886,42.5886,0,0,0,67,38Z"/>
    <path fill="#1e50a0" d="M67,42a42.5886,42.5886,0,0,1-6.2,1c-1.5693-.0494-4.6308-1.0494-6.2-1s-4.6308,1.0494-6.2,1-4.6307-1.0494-6.2-1-4.6307,1.0494-6.2,1-4.6308-1.0492-6.2-1-4.6308,1.0481-6.2,1-4.6306-1.0415-6.2-1-4.63,1-6.2,1A50.8361,50.8361,0,0,1,5,42V40a50.8361,50.8361,0,0,0,6.2,1c1.57,0,4.6305-.9586,6.2-1s4.6308.9519,6.2,1,4.6308-.9508,6.2-1,4.6307.9506,6.2,1,4.6307-.9506,6.2-1,4.6307.9506,6.2,1,4.6307-.9506,6.2-1,4.6307.9506,6.2,1A42.5886,42.5886,0,0,0,67,40Z"/>
    <path fill="#fff" d="M67,44a42.5886,42.5886,0,0,1-6.2,1c-1.5693-.0494-4.6308-1.0494-6.2-1s-4.6308,1.0494-6.2,1-4.6307-1.0494-6.2-1-4.6307,1.0494-6.2,1-4.6308-1.0492-6.2-1-4.6308,1.0481-6.2,1-4.6306-1.0415-6.2-1-4.63,1-6.2,1A50.8361,50.8361,0,0,1,5,44V42a50.8361,50.8361,0,0,0,6.2,1c1.57,0,4.6305-.9586,6.2-1s4.6308.9519,6.2,1,4.6308-.9508,6.2-1,4.6307.9506,6.2,1,4.6307-.9506,6.2-1,4.6307.9506,6.2,1,4.6307-.9506,6.2-1,4.6307.9506,6.2,1A42.5886,42.5886,0,0,0,67,42Z"/>
    <path fill="#1e50a0" d="M67,30a42.5886,42.5886,0,0,1-6.2,1c-1.5693-.0494-4.6308-1.0494-6.2-1s-4.6308,1.0494-6.2,1-4.6307-1.0494-6.2-1-4.6307,1.0494-6.2,1-4.6308-1.0492-6.2-1-4.6308,1.0481-6.2,1-4.6306-1.0415-6.2-1-4.63,1-6.2,1A50.8361,50.8361,0,0,1,5,30V28a50.8361,50.8361,0,0,0,6.2,1c1.57,0,4.6305-.9586,6.2-1s4.6308.9519,6.2,1,4.6308-.9508,6.2-1,4.6307.9506,6.2,1,4.6307-.9506,6.2-1,4.6307.9506,6.2,1,4.6307-.9506,6.2-1,4.6307.9506,6.2,1A42.5886,42.5886,0,0,0,67,28Z"/>
    <path fill="#fff" d="M67,32a42.5886,42.5886,0,0,1-6.2,1c-1.5693-.0494-4.6308-1.0494-6.2-1s-4.6308,1.0494-6.2,1-4.6307-1.0494-6.2-1-4.6307,1.0494-6.2,1-4.6308-1.0492-6.2-1-4.6308,1.0481-6.2,1-4.6306-1.0415-6.2-1-4.63,1-6.2,1A50.8361,50.8361,0,0,1,5,32V30a50.8361,50.8361,0,0,0,6.2,1c1.57,0,4.6305-.9586,6.2-1s4.6308.9519,6.2,1,4.6308-.9508,6.2-1,4.6307.9506,6.2,1,4.6307-.9506,6.2-1,4.6307.9506,6.2,1,4.6307-.9506,6.2-1,4.6307.9506,6.2,1A42.5886,42.5886,0,0,0,67,30Z"/>
    <path fill="#1e50a0" d="M67,34a42.5886,42.5886,0,0,1-6.2,1c-1.5693-.0494-4.6308-1.0494-6.2-1s-4.6308,1.0494-6.2,1-4.6307-1.0494-6.2-1-4.6307,1.0494-6.2,1-4.6308-1.0492-6.2-1-4.6308,1.0481-6.2,1-4.6306-1.0415-6.2-1-4.63,1-6.2,1A50.8361,50.8361,0,0,1,5,34V32a50.8361,50.8361,0,0,0,6.2,1c1.57,0,4.6305-.9586,6.2-1s4.6308.9519,6.2,1,4.6308-.9508,6.2-1,4.6307.9506,6.2,1,4.6307-.9506,6.2-1,4.6307.9506,6.2,1,4.6307-.9506,6.2-1,4.6307.9506,6.2,1A42.5886,42.5886,0,0,0,67,32Z"/>
    <path fill="#fff" d="M67,36a42.5886,42.5886,0,0,1-6.2,1c-1.5693-.0494-4.6308-1.0494-6.2-1s-4.6308,1.0494-6.2,1-4.6307-1.0494-6.2-1-4.6307,1.0494-6.2,1-4.6308-1.0492-6.2-1-4.6308,1.0481-6.2,1-4.6306-1.0415-6.2-1-4.63,1-6.2,1A50.8361,50.8361,0,0,1,5,36V34a50.8361,50.8361,0,0,0,6.2,1c1.57,0,4.6305-.9586,6.2-1s4.6308.9519,6.2,1,4.6308-.9508,6.2-1,4.6307.9506,6.2,1,4.6307-.9506,6.2-1,4.6307.9506,6.2,1,4.6307-.9506,6.2-1,4.6307.9506,6.2,1A42.5886,42.5886,0,0,0,67,34Z"/>
    <path fill="#1e50a0" d="M67,22a42.5886,42.5886,0,0,1-6.2,1c-1.5693-.0494-4.6308-1.0494-6.2-1s-4.6308,1.0494-6.2,1-4.6307-1.0494-6.2-1-4.6307,1.0494-6.2,1-4.6308-1.0492-6.2-1-4.6308,1.0481-6.2,1-4.6306-1.0415-6.2-1-4.63,1-6.2,1A50.8361,50.8361,0,0,1,5,22V20a50.8361,50.8361,0,0,0,6.2,1c1.57,0,4.6305-.9586,6.2-1s4.6308.9519,6.2,1,4.6308-.9508,6.2-1,4.6307.9506,6.2,1,4.6307-.9506,6.2-1,4.6307.9506,6.2,1,4.6307-.9506,6.2-1,4.6307.9506,6.2,1A42.5886,42.5886,0,0,0,67,20Z"/>
    <path fill="#fff" d="M67,24a42.5886,42.5886,0,0,1-6.2,1c-1.5693-.0494-4.6308-1.0494-6.2-1s-4.6308,1.0494-6.2,1-4.6307-1.0494-6.2-1-4.6307,1.0494-6.2,1-4.6308-1.0492-6.2-1-4.6308,1.0481-6.2,1-4.6306-1.0415-6.2-1-4.63,1-6.2,1A50.8361,50.8361,0,0,1,5,24V22a50.8361,50.8361,0,0,0,6.2,1c1.57,0,4.6305-.9586,6.2-1s4.6308.9519,6.2,1,4.6308-.9508,6.2-1,4.6307.9506,6.2,1,4.6307-.9506,6.2-1,4.6307.9506,6.2,1,4.6307-.9506,6.2-1,4.6307.9506,6.2,1A42.5886,42.5886,0,0,0,67,22Z"/>
    <path fill="#1e50a0" d="M67,18a42.5886,42.5886,0,0,1-6.2,1c-1.5693-.0494-4.6308-1.0494-6.2-1s-4.6308,1.0494-6.2,1-4.6307-1.0494-6.2-1-4.6307,1.0494-6.2,1-4.6308-1.0492-6.2-1-4.6308,1.0481-6.2,1-4.6306-1.0415-6.2-1-4.63,1-6.2,1A50.8361,50.8361,0,0,1,5,18V16a50.8361,50.8361,0,0,0,6.2,1c1.57,0,4.6305-.9586,6.2-1s4.6308.9519,6.2,1,4.6308-.9508,6.2-1,4.6307.9506,6.2,1,4.6307-.9506,6.2-1,4.6307.9506,6.2,1,4.6307-.9506,6.2-1,4.6307.9506,6.2,1A42.5886,42.5886,0,0,0,67,16Z"/>
    <path fill="#fff" d="M67,20a42.5886,42.5886,0,0,1-6.2,1c-1.5693-.0494-4.6308-1.0494-6.2-1s-4.6308,1.0494-6.2,1-4.6307-1.0494-6.2-1-4.6307,1.0494-6.2,1-4.6308-1.0492-6.2-1-4.6308,1.0481-6.2,1-4.6306-1.0415-6.2-1-4.63,1-6.2,1A50.8361,50.8361,0,0,1,5,20V18a50.8361,50.8361,0,0,0,6.2,1c1.57,0,4.6305-.9586,6.2-1s4.6308.9519,6.2,1,4.6308-.9508,6.2-1,4.6307.9506,6.2,1,4.6307-.9506,6.2-1,4.6307.9506,6.2,1,4.6307-.9506,6.2-1,4.6307.9506,6.2,1A42.5886,42.5886,0,0,0,67,18Z"/>
    <path fill="#1e50a0" d="M67,26a42.5886,42.5886,0,0,1-6.2,1c-1.5693-.0494-4.6308-1.0494-6.2-1s-4.6308,1.0494-6.2,1-4.6307-1.0494-6.2-1-4.6307,1.0494-6.2,1-4.6308-1.0492-6.2-1-4.6308,1.0481-6.2,1-4.6306-1.0415-6.2-1-4.63,1-6.2,1A50.8361,50.8361,0,0,1,5,26V24a50.8361,50.8361,0,0,0,6.2,1c1.57,0,4.6305-.9586,6.2-1s4.6308.9519,6.2,1,4.6308-.9508,6.2-1,4.6307.9506,6.2,1,4.6307-.9506,6.2-1,4.6307.9506,6.2,1,4.6307-.9506,6.2-1,4.6307.9506,6.2,1A42.5886,42.5886,0,0,0,67,24Z"/>
    <path fill="#fff" d="M67,28a42.5886,42.5886,0,0,1-6.2,1c-1.5693-.0494-4.6308-1.0494-6.2-1s-4.6308,1.0494-6.2,1-4.6307-1.0494-6.2-1-4.6307,1.0494-6.2,1-4.6308-1.0492-6.2-1-4.6308,1.0481-6.2,1-4.6306-1.0415-6.2-1-4.63,1-6.2,1A50.8361,50.8361,0,0,1,5,28V26a50.8361,50.8361,0,0,0,6.2,1c1.57,0,4.6305-.9586,6.2-1s4.6308.9519,6.2,1,4.6308-.9508,6.2-1,4.6307.9506,6.2,1,4.6307-.9506,6.2-1,4.6307.9506,6.2,1,4.6307-.9506,6.2-1,4.6307.9506,6.2,1A42.5886,42.5886,0,0,0,67,26Z"/>
    <rect x="5" y="17" width="31" height="19" fill="#1e50a0"/>
    <g>
      <polygon fill="#fff" points="9.887 18 6 18 6 20.332 32.113 36 36 36 36 33.668 9.887 18"/>
      <polygon fill="#fff" points="36 20.332 36 18 32.113 18 6 33.668 6 36 9.887 36 36 20.332"/>
      <rect x="6" y="24" width="30" height="6" fill="#fff"/>
      <rect x="18" y="18" width="6" height="18" fill="#fff"/>
      <rect x="20" y="18" width="2" height="18" fill="#d22f27"/>
      <rect x="6" y="26" width="30" height="2" fill="#d22f27"/>
      <polygon fill="#d22f27" points="36 33.668 29.887 30 26 30 36 36 36 35.999 36 33.668"/>
      <polygon fill="#d22f27" points="36 18 32.113 18 24 22.868 24 24 26.001 24 36 18.001 36 18"/>
      <polygon fill="#d22f27" points="6 20.332 12.113 24 16.001 24 6.001 18 6 18.001 6 20.332"/>
      <polygon fill="#d22f27" points="6 36 9.887 36 18 31.132 18 30 16 30 6 35.999 6 36"/>
    </g>
  </g>
  <g id="line">
    <rect x="5" y="17" width="62" height="38" fill="none" stroke="#000" stroke-linecap="round" stroke-linejoin="round" stroke-width="2"/>
  </g>
</svg>
