<svg id="emoji" viewBox="0 0 72 72" xmlns="http://www.w3.org/2000/svg">
  <g id="grid">
    <path fill="#b3b3b3" d="M68,4V68H4V4H68m4-4H0V72H72V0Z"/>
    <path fill="none" stroke="#00a5ff" stroke-miterlimit="10" stroke-width="0.1" d="M12.923,10.9583H59.0769A1.9231,1.9231,0,0,1,61,12.8814V59.0352a1.9231,1.9231,0,0,1-1.9231,1.9231H12.9231A1.9231,1.9231,0,0,1,11,59.0352V12.8813A1.923,1.923,0,0,1,12.923,10.9583Z"/>
    <rect x="16" y="4" rx="2.2537" ry="2.2537" width="40" height="64" fill="none" stroke="#00a5ff" stroke-miterlimit="10" stroke-width="0.1"/>
    <rect x="16" y="4" rx="2.2537" ry="2.2537" width="40" height="64" transform="translate(72) rotate(90)" fill="none" stroke="#00a5ff" stroke-miterlimit="10" stroke-width="0.1"/>
    <circle cx="36" cy="36" r="29" fill="none" stroke="#00a5ff" stroke-miterlimit="10" stroke-width="0.1"/>
  </g>
  <g id="line-supplement">
    <path transform="scale(2.7, 2.7) translate(-5.3, -8) translate(15 24.34)" d="m0-5.742c-0.441-0.392-1.022-0.629-1.659-0.629-1.38 0-2.5 1.119-2.5 2.5v2c0 1.38 1.12 2.5 2.5 2.5 1.381 0 2.5-1.12 2.5-2.5v-1.014h-2" stroke-width="2px" stroke="#000" stroke-miterlimit="10" fill="none" stroke-linecap="round" stroke-linejoin="round"/>
    <path transform="scale(2.7, 2.7) translate(+5.3, -8) translate(15 24.97)" d="m0-7h-4v7h4" stroke-width="2px" stroke="#000" stroke-miterlimit="10" fill="none" stroke-linecap="round" stroke-linejoin="round"/>
    <path transform="scale(2.7, 2.7) translate(+5.3, -8) translate(11 21.47)" d="m0 0h3" stroke-width="2px" stroke="#000" stroke-miterlimit="10" fill="none" stroke-linecap="round" stroke-linejoin="round"/>
  </g>
  <g id="color">
    <rect x="5" y="17" width="62" height="38" fill="#fff"/>
    <polygon fill="#d22f27" stroke="#d22f27" stroke-miterlimit="10" stroke-width="2" points="67 33 39 33 39 17 33 17 33 33 5 33 5 39 33 39 33 55 39 55 39 39 67 39 67 33"/>
    <polygon fill="#d22f27" stroke="#d22f27" stroke-linecap="round" stroke-linejoin="round" points="54.958 24.684 53.316 24.684 53.316 23 52.684 23 52.684 24.684 51.042 24.684 51.042 25.316 52.684 25.316 52.684 27 53.316 27 53.316 25.316 54.958 25.316 54.958 24.684"/>
    <polygon fill="#d22f27" stroke="#d22f27" stroke-linecap="round" stroke-linejoin="round" points="54.958 46.684 53.316 46.684 53.316 45 52.684 45 52.684 46.684 51.042 46.684 51.042 47.316 52.684 47.316 52.684 49 53.316 49 53.316 47.316 54.958 47.316 54.958 46.684"/>
    <polygon fill="#d22f27" stroke="#d22f27" stroke-linecap="round" stroke-linejoin="round" points="20.958 46.684 19.316 46.684 19.316 45 18.684 45 18.684 46.684 17.042 46.684 17.042 47.316 18.684 47.316 18.684 49 19.316 49 19.316 47.316 20.958 47.316 20.958 46.684"/>
    <polygon fill="#d22f27" stroke="#d22f27" stroke-linecap="round" stroke-linejoin="round" points="20.958 24.684 19.316 24.684 19.316 23 18.684 23 18.684 24.684 17.042 24.684 17.042 25.316 18.684 25.316 18.684 27 19.316 27 19.316 25.316 20.958 25.316 20.958 24.684"/>
  </g>
  <g id="line">
    <rect x="5" y="17" width="62" height="38" fill="none" stroke="#000" stroke-linecap="round" stroke-linejoin="round" stroke-width="2"/>
  </g>
</svg>
