<svg id="emoji" viewBox="0 0 72 72" xmlns="http://www.w3.org/2000/svg">
  <g id="grid">
    <path fill="#b3b3b3" d="M68,4V68H4V4H68m4-4H0V72H72V0Z"/>
    <path fill="none" stroke="#00a5ff" stroke-miterlimit="10" stroke-width="0.1" d="M12.923,10.9583H59.0769A1.9231,1.9231,0,0,1,61,12.8814V59.0352a1.9231,1.9231,0,0,1-1.9231,1.9231H12.9231A1.9231,1.9231,0,0,1,11,59.0352V12.8813A1.923,1.923,0,0,1,12.923,10.9583Z"/>
    <rect x="16" y="4" rx="2.2537" ry="2.2537" width="40" height="64" fill="none" stroke="#00a5ff" stroke-miterlimit="10" stroke-width="0.1"/>
    <rect x="16" y="4" rx="2.2537" ry="2.2537" width="40" height="64" transform="rotate(90 36 36)" fill="none" stroke="#00a5ff" stroke-miterlimit="10" stroke-width="0.1"/>
    <circle cx="36" cy="36" r="29" fill="none" stroke="#00a5ff" stroke-miterlimit="10" stroke-width="0.1"/>
  </g>
  <g id="color">
    <rect x="5" y="17" width="62" height="38" fill="#fff"/>
    <g>
      <polygon fill="#fcea2b" stroke="#fcea2b" stroke-linecap="round" stroke-linejoin="round" points="43.5 25.91 44.5 22.91 27.5 22.91 28.5 25.91 43.5 25.91"/>
      <path fill="#1e50a0" stroke="#1e50a0" stroke-linecap="round" stroke-linejoin="round" d="M36,45.91s7.5-2.5,7.5-10v-10h-15v10C28.5,43.41,36,45.91,36,45.91Z"/>
      <path fill="#d22f27" stroke="#d22f27" stroke-miterlimit="10" d="M28.5,32.41v3.5a10.1844,10.1844,0,0,0,.3063,2.5H43.1938a10.1845,10.1845,0,0,0,.3062-2.5v-3.5Z"/>
      <g>
        <g>
          <line x1="36" x2="36" y1="30.1603" y2="27.6603" fill="#fcea2b" stroke="#fcea2b" stroke-linecap="round" stroke-linejoin="round"/>
          <line x1="35.375" x2="36.625" y1="28.4936" y2="28.4936" fill="#fcea2b" stroke="#fcea2b" stroke-linecap="round" stroke-linejoin="round"/>
        </g>
        <g>
          <line x1="40.5" x2="40.5" y1="30.1603" y2="27.6603" fill="#fcea2b" stroke="#fcea2b" stroke-linecap="round" stroke-linejoin="round"/>
          <line x1="39.875" x2="41.125" y1="28.4936" y2="28.4936" fill="#fcea2b" stroke="#fcea2b" stroke-linecap="round" stroke-linejoin="round"/>
        </g>
        <g>
          <line x1="31.5" x2="31.5" y1="30.1603" y2="27.6603" fill="#fcea2b" stroke="#fcea2b" stroke-linecap="round" stroke-linejoin="round"/>
          <line x1="30.875" x2="32.125" y1="28.4936" y2="28.4936" fill="#fcea2b" stroke="#fcea2b" stroke-linecap="round" stroke-linejoin="round"/>
        </g>
      </g>
      <g>
        <line x1="36" x2="36" y1="36.6603" y2="34.1603" fill="#fff" stroke="#fff" stroke-linecap="round" stroke-linejoin="round"/>
        <line x1="37.25" x2="34.75" y1="35.4103" y2="35.4103" fill="#fff" stroke="#fff" stroke-linecap="round" stroke-linejoin="round"/>
      </g>
      <circle cx="36" cy="43.9103" r="1" fill="#fcea2b"/>
      <circle cx="33" cy="40.9103" r="1" fill="#fcea2b"/>
      <circle cx="39" cy="40.9103" r="1" fill="#fcea2b"/>
      <path fill="none" stroke="#a57939" stroke-linecap="round" stroke-linejoin="round" stroke-width="2" d="M47,46.2692A23.0924,23.0924,0,0,1,36,49.09"/>
      <path fill="none" stroke="#a57939" stroke-linecap="round" stroke-linejoin="round" stroke-width="2" d="M25,46.2692A23.093,23.093,0,0,0,36,49.09"/>
    </g>
  </g>
  <g id="line">
    <rect x="5" y="17" width="62" height="38" fill="none" stroke="#000" stroke-linecap="round" stroke-linejoin="round" stroke-width="2"/>
  </g>
</svg>
