<svg id="emoji" viewBox="0 0 72 72" xmlns="http://www.w3.org/2000/svg">
  <g id="grid">
    <path fill="#b3b3b3" d="M68,4V68H4V4H68m4-4H0V72H72V0Z"/>
    <path fill="none" stroke="#00a5ff" stroke-miterlimit="10" stroke-width="0.1" d="M12.923,10.9583H59.0769A1.9231,1.9231,0,0,1,61,12.8814V59.0352a1.9231,1.9231,0,0,1-1.9231,1.9231H12.9231A1.9231,1.9231,0,0,1,11,59.0352V12.8813A1.923,1.923,0,0,1,12.923,10.9583Z"/>
    <rect x="16" y="4" rx="2.2537" ry="2.2537" width="40" height="64" fill="none" stroke="#00a5ff" stroke-miterlimit="10" stroke-width="0.1"/>
    <rect x="16" y="4" rx="2.2537" ry="2.2537" width="40" height="64" transform="translate(72) rotate(90)" fill="none" stroke="#00a5ff" stroke-miterlimit="10" stroke-width="0.1"/>
    <circle cx="36" cy="36" r="29" fill="none" stroke="#00a5ff" stroke-miterlimit="10" stroke-width="0.1"/>
  </g>
  <g id="line-supplement">
    <path transform="scale(2.7, 2.7) translate(-5.3, -8) translate(14 17.97)" d="m0 3.487h-2.669v-3.487h2.669c0.963 0 1.744 0.781 1.744 1.744s-0.781 1.743-1.744 1.743z" stroke-width="2px" stroke="#000" stroke-miterlimit="10" fill="none" stroke-linecap="round" stroke-linejoin="round"/>
    <path transform="scale(2.7, 2.7) translate(-5.3, -8) translate(14 21.46)" d="m0 3.487h-2.669v-3.487h2.669c0.963 0 1.744 0.78 1.744 1.743s-0.781 1.744-1.744 1.744z" stroke-width="2px" stroke="#000" stroke-miterlimit="10" fill="none" stroke-linecap="round" stroke-linejoin="round"/>
    <path transform="scale(2.7, 2.7) translate(+5.3, -8) translate(15 24.97)" d="m0-7-2 7-2-7" stroke-width="2px" stroke="#000" stroke-miterlimit="10" fill="none" stroke-linecap="round" stroke-linejoin="round"/>
  </g>
  <g id="color">
    <rect x="5" y="17" width="62" height="38" fill="#d22f27" stroke="#f1b31c" stroke-linecap="round" stroke-linejoin="round" stroke-width="2"/>
    <polygon fill="#1e50a0" stroke="#fff" stroke-miterlimit="10" stroke-width="2" points="67 33 30 33 30 17 24 17 24 33 5 33 5 39 24 39 24 55 30 55 30 39 67 39 67 33"/>
  </g>
  <g id="line">
    <rect x="5" y="17" width="62" height="38" fill="none" stroke="#000" stroke-linecap="round" stroke-linejoin="round" stroke-width="2"/>
  </g>
</svg>
