<svg id="emoji" viewBox="0 0 72 72" xmlns="http://www.w3.org/2000/svg">
  <g id="grid">
    <path fill="#b3b3b3" d="M68,4V68H4V4H68m4-4H0V72H72V0Z"/>
    <path fill="none" stroke="#00a5ff" stroke-miterlimit="10" stroke-width="0.1" d="M12.923,10.9583H59.0769A1.9231,1.9231,0,0,1,61,12.8814V59.0352a1.9231,1.9231,0,0,1-1.9231,1.9231H12.9231A1.9231,1.9231,0,0,1,11,59.0352V12.8813A1.923,1.923,0,0,1,12.923,10.9583Z"/>
    <rect x="16" y="4" rx="2.2537" ry="2.2537" width="40" height="64" fill="none" stroke="#00a5ff" stroke-miterlimit="10" stroke-width="0.1"/>
    <rect x="16" y="4" rx="2.2537" ry="2.2537" width="40" height="64" transform="translate(72) rotate(90)" fill="none" stroke="#00a5ff" stroke-miterlimit="10" stroke-width="0.1"/>
    <circle cx="36" cy="36" r="29" fill="none" stroke="#00a5ff" stroke-miterlimit="10" stroke-width="0.1"/>
  </g>
  <g id="color">
    <rect x="5" y="17" width="62" height="38" fill="#fff"/>
    <rect x="5" y="32" width="62" height="8" fill="#1e50a0"/>
    <rect x="5" y="47" width="62" height="8" fill="#1e50a0"/>
    <rect x="5" y="17" width="62" height="8" fill="#1e50a0"/>
    <path fill="#d22f27" d="m5 55-1e-6 -19 1e-6 -19 32.91 19-16.45 9.5z"/>
    <path transform="rotate(-120 15.368 32.9) scale(.8682)" fill="#fff" stroke="#fff" stroke-linecap="round" stroke-linejoin="round" d="m19.5 39.74-4.253-0.8137-2.241 3.705-0.5402-4.296-4.216-0.9863 3.919-1.841-0.3648-4.314 2.962 3.158 3.991-1.68-2.088 3.793z"/>
  </g>
  <g id="line">
    <rect x="5" y="17" width="62" height="38" fill="none" stroke="#000" stroke-linecap="round" stroke-linejoin="round" stroke-width="2"/>
  </g>
</svg>
