<svg id="emoji" xmlns="http://www.w3.org/2000/svg" viewBox="0 0 72 72">
  <g id="grid">
    <path d="M68,4V68H4V4H68m4-4H0V72H72V0Z" fill="#b3b3b3"/>
    <path d="M12.923,10.9583H59.0769A1.9231,1.9231,0,0,1,61,12.8814V59.0352a1.9231,1.9231,0,0,1-1.9231,1.9231H12.9231A1.9231,1.9231,0,0,1,11,59.0352V12.8813A1.923,1.923,0,0,1,12.923,10.9583Z" fill="none" stroke="#00a5ff" stroke-miterlimit="10" stroke-width="0.1"/>
    <rect x="16" y="4" width="40" height="64" rx="2.2537" ry="2.2537" fill="none" stroke="#00a5ff" stroke-miterlimit="10" stroke-width="0.1"/>
    <rect x="16" y="4" width="40" height="64" rx="2.2537" ry="2.2537" transform="rotate(90 36 36)" fill="none" stroke="#00a5ff" stroke-miterlimit="10" stroke-width="0.1"/>
    <circle cx="36" cy="36" r="29" fill="none" stroke="#00a5ff" stroke-miterlimit="10" stroke-width="0.1"/>
  </g>
  <g id="color">
    <rect x="5" y="17" width="62" height="38" fill="#fff"/>
    <polygon points="67 33 39 33 39 17 33 17 33 33 5 33 5 39 33 39 33 55 39 55 39 39 67 39 67 33" fill="#d22f27" stroke="#d22f27" stroke-miterlimit="10" stroke-width="2"/>
    <polygon points="54.958 24.684 53.316 24.684 53.316 23 52.684 23 52.684 24.684 51.042 24.684 51.042 25.316 52.684 25.316 52.684 27 53.316 27 53.316 25.316 54.958 25.316 54.958 24.684" fill="#d22f27" stroke="#d22f27" stroke-linecap="round" stroke-linejoin="round"/>
    <polygon points="54.958 46.684 53.316 46.684 53.316 45 52.684 45 52.684 46.684 51.042 46.684 51.042 47.316 52.684 47.316 52.684 49 53.316 49 53.316 47.316 54.958 47.316 54.958 46.684" fill="#d22f27" stroke="#d22f27" stroke-linecap="round" stroke-linejoin="round"/>
    <polygon points="20.958 46.684 19.316 46.684 19.316 45 18.684 45 18.684 46.684 17.042 46.684 17.042 47.316 18.684 47.316 18.684 49 19.316 49 19.316 47.316 20.958 47.316 20.958 46.684" fill="#d22f27" stroke="#d22f27" stroke-linecap="round" stroke-linejoin="round"/>
    <polygon points="20.958 24.684 19.316 24.684 19.316 23 18.684 23 18.684 24.684 17.042 24.684 17.042 25.316 18.684 25.316 18.684 27 19.316 27 19.316 25.316 20.958 25.316 20.958 24.684" fill="#d22f27" stroke="#d22f27" stroke-linecap="round" stroke-linejoin="round"/>
  </g>
  <g id="line">
    <rect x="5" y="17" width="62" height="38" fill="none" stroke="#000" stroke-linecap="round" stroke-linejoin="round" stroke-width="2"/>
  </g>
</svg>
