<svg id="emoji" viewBox="0 0 72 72" xmlns="http://www.w3.org/2000/svg">
  <g id="grid">
    <path fill="#b3b3b3" d="M68,4V68H4V4H68m4-4H0V72H72Z"/>
    <path fill="none" stroke="#00a5ff" stroke-miterlimit="10" stroke-width="0.1" d="M12.923,10.9583H59.0769A1.9231,1.9231,0,0,1,61,12.8814h0V59.0352a1.9231,1.9231,0,0,1-1.9231,1.9231H12.9231A1.9231,1.9231,0,0,1,11,59.0352h0V12.8813a1.9231,1.9231,0,0,1,1.923-1.923Z"/>
    <rect x="16" y="4" rx="2.2537" width="40" height="64" fill="none" stroke="#00a5ff" stroke-miterlimit="10" stroke-width="0.1"/>
    <rect x="4" y="16" rx="2.2537" width="64" height="40" fill="none" stroke="#00a5ff" stroke-miterlimit="10" stroke-width="0.1"/>
    <circle cx="36" cy="36" r="29" fill="none" stroke="#00a5ff" stroke-miterlimit="10" stroke-width="0.1"/>
  </g>
  <g id="color">
    <rect x="5" y="17" width="62" height="38" fill="#fff"/>
    <rect x="5" y="17" width="62" height="13"/>
    <polygon fill="#f1b31c" stroke="#f1b31c" stroke-linecap="round" stroke-linejoin="round" stroke-width="2" points="35.025 25.096 36 20 36.975 25.096 39.827 20.761 38.778 25.843 43.071 22.929 40.157 27.222 45.239 26.173 40.904 29.025 46 30 40.904 30.975 45.239 33.827 40.157 32.778 43.071 37.071 38.778 34.157 39.827 39.239 36.975 34.904 36 40 35.025 34.904 32.173 39.239 33.222 34.157 28.929 37.071 31.843 32.778 26.761 33.827 31.096 30.975 26 30 31.096 29.025 26.761 26.173 31.843 27.222 28.929 22.929 33.222 25.843 32.173 20.761 35.025 25.096"/>
    <rect x="5" y="30" width="62" height="12" fill="#1e50a0"/>
    <g>
      <polygon fill="#d22f27" points="5 55 36 55 5 17 5 55"/>
      <polygon fill="#d22f27" points="36 55 67 55 67 17 36 55"/>
    </g>
  </g>
  <g id="line">
    <rect x="5" y="17" width="62" height="38" fill="none" stroke="#000" stroke-linecap="round" stroke-linejoin="round" stroke-width="2"/>
  </g>
</svg>
