<svg id="emoji" viewBox="0 0 72 72" xmlns="http://www.w3.org/2000/svg">
  <g id="grid">
    <path fill="#b3b3b3" d="M68,4V68H4V4H68m4-4H0V72H72V0Z"/>
    <path fill="none" stroke="#00a5ff" stroke-miterlimit="10" stroke-width="0.1" d="M12.923,10.9583H59.0769A1.9231,1.9231,0,0,1,61,12.8814V59.0352a1.9231,1.9231,0,0,1-1.9231,1.9231H12.9231A1.9231,1.9231,0,0,1,11,59.0352V12.8813A1.923,1.923,0,0,1,12.923,10.9583Z"/>
    <rect x="16" y="4" rx="2.2537" ry="2.2537" width="40" height="64" fill="none" stroke="#00a5ff" stroke-miterlimit="10" stroke-width="0.1"/>
    <rect x="16" y="4" rx="2.2537" ry="2.2537" width="40" height="64" transform="translate(72) rotate(90)" fill="none" stroke="#00a5ff" stroke-miterlimit="10" stroke-width="0.1"/>
    <circle cx="36" cy="36" r="29" fill="none" stroke="#00a5ff" stroke-miterlimit="10" stroke-width="0.1"/>
  </g>
  <g id="color">
    <rect x="5" y="17" width="62" height="38" fill="#d22f27"/>
    <rect x="5" y="17" width="21" height="38"/>
    <rect x="46" y="17" width="21" height="38" fill="#5c9e31"/>
    <path fill="#fff" stroke-width="0.845" d="m36 48.88a12.89 12.89 0 0 1-9.111-22 0.845 0.845 0 0 1 1.195 1.195 11.2 11.2 0 1 0 15.83 0 0.845 0.845 0 1 1 1.195-1.195 12.89 12.89 0 0 1-9.111 22z"/>
    <path fill="#fff" stroke-width="0.8598" d="m39.38 34.52h-6.76a0.845 0.875 0 0 1 0-1.75h6.76a0.845 0.875 0 0 1 0 1.75z"/>
    <circle cx="36" cy="30.3" r="1.69" fill="#fff" stroke-width="0.845"/>
    <path fill="#fff" stroke-width="0.8598" d="m41.07 44.76h-10.14a0.845 0.875 0 0 1 0-1.75h10.14a0.845 0.875 0 0 1 0 1.75z"/>
    <path fill="#01f1e6" fill-opacity="0.1216" stroke="#fff" stroke-linecap="round" stroke-linejoin="round" stroke-width="1.775" d="m32.58 28.68v15.07"/>
    <path fill="#01f1e6" fill-opacity="0.1216" stroke="#fff" stroke-linecap="round" stroke-linejoin="round" stroke-width="1.766" d="m39.4 28.67v14.91"/>
    <rect x="-18.88" y="42.61" width="4.161" height="1.607" transform="rotate(-60)" fill="#fff" fill-rule="evenodd" stroke="#fff" stroke-linecap="round" stroke-linejoin="round" stroke-width="0.771" paint-order="normal"/>
    <rect x="50.72" y="-19.75" width="4.161" height="1.607" transform="rotate(60)" fill="#fff" fill-rule="evenodd" stroke="#fff" stroke-linecap="round" stroke-linejoin="round" stroke-width="0.771" paint-order="normal"/>
  </g>
  <g id="line">
    <rect x="5" y="17" width="62" height="38" fill="none" stroke="#000" stroke-linecap="round" stroke-linejoin="round" stroke-width="2"/>
  </g>
</svg>
