<svg id="emoji" xmlns="http://www.w3.org/2000/svg" viewBox="0 0 72 72">
  <g id="grid">
    <path d="M68,4V68H4V4H68m4-4H0V72H72V0Z" fill="#b3b3b3"/>
    <path d="M12.923,10.9583H59.0769A1.9231,1.9231,0,0,1,61,12.8814V59.0352a1.9231,1.9231,0,0,1-1.9231,1.9231H12.9231A1.9231,1.9231,0,0,1,11,59.0352V12.8813A1.923,1.923,0,0,1,12.923,10.9583Z" fill="none" stroke="#00a5ff" stroke-miterlimit="10" stroke-width="0.1"/>
    <rect x="16" y="4" width="40" height="64" rx="2.2537" ry="2.2537" fill="none" stroke="#00a5ff" stroke-miterlimit="10" stroke-width="0.1"/>
    <rect x="16" y="4" width="40" height="64" rx="2.2537" ry="2.2537" transform="translate(72) rotate(90)" fill="none" stroke="#00a5ff" stroke-miterlimit="10" stroke-width="0.1"/>
    <circle cx="36" cy="36" r="29" fill="none" stroke="#00a5ff" stroke-miterlimit="10" stroke-width="0.1"/>
  </g>
  <g id="color">
    <rect x="5" y="17" width="62" height="38" fill="#1e50a0"/>
    <rect x="5" y="17" width="62" height="13" fill="#d22f27"/>
    <rect x="5" y="30" width="62" height="12" fill="#fff"/>
    <g>
      <rect x="32" y="33" width="3" height="3" fill="#fff"/>
      <rect x="37" y="33" width="3" height="3" fill="#fff"/>
      <rect x="35" y="33" width="2" height="3" fill="#d22f27"/>
      <rect x="32" y="42" width="3" height="3" fill="#fff"/>
      <rect x="37" y="42" width="3" height="3" fill="#fff"/>
      <rect x="35" y="42" width="2" height="3" fill="#d22f27"/>
      <rect x="32" y="40" width="3" height="2" fill="#d22f27"/>
      <rect x="37" y="40" width="3" height="2" fill="#d22f27"/>
      <rect x="35" y="40" width="2" height="2" fill="#fff"/>
      <rect x="32" y="38" width="3" height="2" fill="#fff"/>
      <rect x="37" y="38" width="3" height="2" fill="#fff"/>
      <rect x="35" y="38" width="2" height="2" fill="#d22f27"/>
      <rect x="32" y="36" width="3" height="2" fill="#d22f27"/>
      <rect x="37" y="36" width="3" height="2" fill="#d22f27"/>
      <rect x="35" y="36" width="2" height="2" fill="#fff"/>
      <g>
        <line x1="32" y1="33" x2="40" y2="33" fill="none" stroke="#d22f27" stroke-linecap="round" stroke-linejoin="round" stroke-width="2"/>
        <path d="M40,33V43a2.0059,2.0059,0,0,1-2,2H34a2.0059,2.0059,0,0,1-2-2V33" fill="none" stroke="#d22f27" stroke-linecap="round" stroke-linejoin="round" stroke-width="2"/>
      </g>
      <path d="M32,30a8.5678,8.5678,0,0,1,4-1" fill="none" stroke="#1e50a0" stroke-linecap="round" stroke-linejoin="round" stroke-width="2"/>
      <path d="M40,30a8.5678,8.5678,0,0,0-4-1" fill="none" stroke="#1e50a0" stroke-linecap="round" stroke-linejoin="round" stroke-width="2"/>
    </g>
  </g>
  <g id="line">
    <rect x="5" y="17" width="62" height="38" fill="none" stroke="#000" stroke-linecap="round" stroke-linejoin="round" stroke-width="2"/>
  </g>
</svg>
