<svg id="emoji" xmlns="http://www.w3.org/2000/svg" viewBox="0 0 72 72">
  <g id="grid">
    <path d="M68,4V68H4V4H68m4-4H0V72H72V0Z" fill="#b3b3b3"/>
    <path d="M12.923,10.9583H59.0769A1.9231,1.9231,0,0,1,61,12.8814V59.0352a1.9231,1.9231,0,0,1-1.9231,1.9231H12.9231A1.9231,1.9231,0,0,1,11,59.0352V12.8813A1.923,1.923,0,0,1,12.923,10.9583Z" fill="none" stroke="#00a5ff" stroke-miterlimit="10" stroke-width="0.1"/>
    <rect x="16" y="4" width="40" height="64" rx="2.2537" ry="2.2537" fill="none" stroke="#00a5ff" stroke-miterlimit="10" stroke-width="0.1"/>
    <rect x="16" y="4" width="40" height="64" rx="2.2537" ry="2.2537" transform="rotate(90 36 36)" fill="none" stroke="#00a5ff" stroke-miterlimit="10" stroke-width="0.1"/>
    <circle cx="36" cy="36" r="29" fill="none" stroke="#00a5ff" stroke-miterlimit="10" stroke-width="0.1"/>
  </g>
  <g id="color">
    <rect x="5" y="17" width="62" height="38" fill="#1e50a0"/>
    <g>
      <polygon points="40 28.856 40 32 50.181 32 67 21.691 67 17 59.346 17 40 28.856" fill="#fff"/>
      <polygon points="67 17 67 17 63.173 17 40 31.203 40 32 43.482 32 67 17.586 67 17" fill="#d22f27"/>
      <polygon points="59.347 55 67 55 67 55 67 50.308 50.182 40 40 40 40 43.143 59.347 55" fill="#fff"/>
      <polygon points="67 55 67 52.653 46.355 40 41.568 40 66.042 55 67 55 67 55" fill="#d22f27"/>
      <polygon points="32 43.144 32 40 21.819 40 5 50.309 5 55 12.654 55 32 43.144" fill="#fff"/>
      <polygon points="5 55 5 55 8.827 55 32 40.797 32 40 28.518 40 5 54.414 5 55" fill="#d22f27"/>
      <polygon points="12.653 17 5 17 5 17 5 21.692 21.818 32 32 32 32 28.857 12.653 17" fill="#fff"/>
      <polygon points="5 17 5 19.347 25.646 32 30.432 32 5.958 17 5 17 5 17" fill="#d22f27"/>
      <rect x="5" y="31" width="62" height="10" fill="#fff"/>
      <rect x="31" y="17" width="10" height="38" fill="#fff"/>
      <rect x="5" y="33" width="62" height="6" fill="#d22f27"/>
      <rect x="33" y="17" width="6" height="38" fill="#d22f27"/>
    </g>
  </g>
  <g id="line">
    <rect x="5" y="17" width="62" height="38" fill="none" stroke="#000" stroke-linecap="round" stroke-linejoin="round" stroke-width="2"/>
  </g>
</svg>
