<svg id="emoji" viewBox="0 0 72 72" xmlns="http://www.w3.org/2000/svg">
  <g id="grid">
    <path fill="#b3b3b3" d="M68,4V68H4V4H68m4-4H0V72H72V0Z"/>
    <path fill="none" stroke="#00a5ff" stroke-miterlimit="10" stroke-width="0.1" d="M12.923,10.9583H59.0769A1.9231,1.9231,0,0,1,61,12.8814V59.0352a1.9231,1.9231,0,0,1-1.9231,1.9231H12.9231A1.9231,1.9231,0,0,1,11,59.0352V12.8813A1.923,1.923,0,0,1,12.923,10.9583Z"/>
    <rect x="16" y="4" rx="2.2537" ry="2.2537" width="40" height="64" fill="none" stroke="#00a5ff" stroke-miterlimit="10" stroke-width="0.1"/>
    <rect x="16" y="4" rx="2.2537" ry="2.2537" width="40" height="64" transform="translate(72) rotate(90)" fill="none" stroke="#00a5ff" stroke-miterlimit="10" stroke-width="0.1"/>
    <circle cx="36" cy="36" r="29" fill="none" stroke="#00a5ff" stroke-miterlimit="10" stroke-width="0.1"/>
  </g>
 <g id="color">
    <rect x="5" y="17" width="62" height="38" fill="#6ba745"/>
    <rect x="5" y="30" width="62" height="12" fill="#d22f27"/>
    <rect x="5" y="17" width="62" height="13" fill="#1e50a0"/>
    <circle cx="25" cy="36.5" r="13" fill="#fcea2b" stroke="#000" stroke-miterlimit="10"/>
    <line x1="25" x2="25" y1="23.5" y2="48.5" fill="none" stroke="#000" stroke-linecap="round" stroke-linejoin="round"/>
    <ellipse cx="25" cy="36" rx="1.5" ry="0.5" stroke="#000" stroke-linecap="round" stroke-linejoin="round"/>
    <ellipse cx="25" cy="42.5" rx="1.5" ry="2" stroke="#000" stroke-linecap="round" stroke-linejoin="round"/>
    <circle cx="25" cy="30" r="1.5" stroke="#000" stroke-linecap="round" stroke-linejoin="round"/>
    <line x1="22.84" x2="27.17" y1="27.75" y2="25.25" fill="none" stroke="#000" stroke-linecap="round" stroke-linejoin="round"/>
    <polyline fill="none" stroke="#000" stroke-linecap="round" stroke-linejoin="round" points="28.5 30.5 28.5 33.5 21.5 33.5 21.5 30.5"/>
    <polyline fill="none" stroke="#000" stroke-linecap="round" stroke-linejoin="round" points="21.5 41.5 21.5 38.5 28.5 38.5 28.5 41.5"/>
    <path stroke="#000" stroke-miterlimit="10" d="m25 49.5a12.94 12.94 0 0 0 4.446-0.7969c-0.2671-1.239-2.144-2.203-4.446-2.203s-4.179 0.9641-4.446 2.203a12.94 12.94 0 0 0 4.446 0.7969z"/>
  </g>
  <g id="line">
    <rect x="5" y="17" width="62" height="38" fill="none" stroke="#000" stroke-linecap="round" stroke-linejoin="round" stroke-width="2"/>
  </g>
</svg>
