<svg id="emoji" xmlns="http://www.w3.org/2000/svg" viewBox="0 0 72 72">
  <g id="grid">
    <path d="M68,4V68H4V4H68m4-4H0V72H72V0Z" fill="#b3b3b3"/>
    <path d="M12.923,10.9583H59.0769A1.9231,1.9231,0,0,1,61,12.8814V59.0352a1.9231,1.9231,0,0,1-1.9231,1.9231H12.9231A1.9231,1.9231,0,0,1,11,59.0352V12.8813A1.923,1.923,0,0,1,12.923,10.9583Z" fill="none" stroke="#00a5ff" stroke-miterlimit="10" stroke-width="0.1"/>
    <rect x="16" y="4" width="40" height="64" rx="2.2537" ry="2.2537" fill="none" stroke="#00a5ff" stroke-miterlimit="10" stroke-width="0.1"/>
    <rect x="16" y="4" width="40" height="64" rx="2.2537" ry="2.2537" transform="rotate(90 36 36)" fill="none" stroke="#00a5ff" stroke-miterlimit="10" stroke-width="0.1"/>
    <circle cx="36" cy="36" r="29" fill="none" stroke="#00a5ff" stroke-miterlimit="10" stroke-width="0.1"/>
  </g>
  <g id="color">
    <rect x="5" y="17" width="62" height="38" fill="#d22f27"/>
    <rect x="5" y="17" width="62" height="13" fill="#fff"/>
    <rect x="5" y="30" width="62" height="12" fill="#1e50a0"/>
    <path d="M22.5833,22v9c0,6.75-6.75,9-6.75,9s-6.75-2.25-6.75-9V22S15.9792,18.5937,22.5833,22Z" fill="#1e50a0" stroke="#000" stroke-linecap="round" stroke-linejoin="round"/>
    <path d="M11.9626,33.3515l7.9755.3394A6.8155,6.8155,0,0,1,16,38c-3,1-4.0374-4.6485-4.0374-4.6485" fill="#fff" stroke="#fff" stroke-miterlimit="10"/>
    <polyline points="14.5 33.5 15.5 31.5 17.765 34.084 14.5 33.5" fill="#fff" stroke="#fff" stroke-miterlimit="10"/>
    <circle cx="13" cy="24" r="1" fill="#fcea2b"/>
    <path d="M21,35l-1-3-2,3-2-5-2,5-2-3-1,3S15,44,21,35Z" fill="none" stroke="#fff" stroke-linecap="round" stroke-linejoin="round" stroke-width="2"/>
    <circle cx="16" cy="26" r="1" fill="#fcea2b"/>
    <circle cx="19" cy="24" r="1" fill="#fcea2b"/>
    <path d="M22.5833,22v9c0,6.75-6.75,9-6.75,9s-6.75-2.25-6.75-9V22S15.9792,18.5937,22.5833,22Z" fill="none" stroke="#d22f27" stroke-linecap="round" stroke-linejoin="round"/>
  </g>
  <g id="line">
    <rect x="5" y="17" width="62" height="38" fill="none" stroke="#000" stroke-linecap="round" stroke-linejoin="round" stroke-width="2"/>
  </g>
</svg>
