<svg id="emoji" viewBox="0 0 72 72" xmlns="http://www.w3.org/2000/svg">
  <g id="grid">
    <path fill="#b3b3b3" d="M68,4V68H4V4H68m4-4H0V72H72V0Z"/>
    <path fill="none" stroke="#00a5ff" stroke-miterlimit="10" stroke-width="0.1" d="M12.923,10.9583H59.0769A1.9231,1.9231,0,0,1,61,12.8814V59.0352a1.9231,1.9231,0,0,1-1.9231,1.9231H12.9231A1.9231,1.9231,0,0,1,11,59.0352V12.8813A1.923,1.923,0,0,1,12.923,10.9583Z"/>
    <rect x="16" y="4" rx="2.2537" ry="2.2537" width="40" height="64" fill="none" stroke="#00a5ff" stroke-miterlimit="10" stroke-width="0.1"/>
    <rect x="16" y="4" rx="2.2537" ry="2.2537" width="40" height="64" transform="rotate(90 36 36)" fill="none" stroke="#00a5ff" stroke-miterlimit="10" stroke-width="0.1"/>
    <circle cx="36" cy="36" r="29" fill="none" stroke="#00a5ff" stroke-miterlimit="10" stroke-width="0.1"/>
  </g>
  <g id="color">
    <rect x="5" y="17" width="62" height="38" fill="#5c9e31"/>
    <rect x="5" y="17" width="62" height="13" fill="#d22f27"/>
    <rect x="5" y="30" width="62" height="12" fill="#fff"/>
    <g>
      <circle cx="36.3118" cy="35.1554" r="0.4969" fill="#fcea2b" stroke="#fcea2b" stroke-miterlimit="10" stroke-width="0.9939"/>
      <rect x="35.8479" y="35.1553" rx="0.306" ry="0.306" width="0.9278" height="3.9755" fill="#fcea2b"/>
      <path fill="none" stroke="#fcea2b" stroke-linecap="round" stroke-linejoin="round" stroke-width="1.9877" d="M39.2934,40.1247a4.2141,4.2141,0,0,0-5.9632,0"/>
    </g>
    <g>
      <circle cx="41.3007" cy="36.9635" r="0.4969" fill="#fcea2b" stroke="#fcea2b" stroke-miterlimit="10" stroke-width="0.9939"/>
      <circle cx="40.7676" cy="34.8685" r="0.4969" fill="#fcea2b" stroke="#fcea2b" stroke-miterlimit="10" stroke-width="0.9939"/>
      <circle cx="39.399" cy="33.195" r="0.4969" fill="#fcea2b" stroke="#fcea2b" stroke-miterlimit="10" stroke-width="0.9939"/>
      <circle cx="37.4515" cy="32.2567" r="0.4969" fill="#fcea2b" stroke="#fcea2b" stroke-miterlimit="10" stroke-width="0.9939"/>
      <circle cx="35.2898" cy="32.2294" r="0.4969" fill="#fcea2b" stroke="#fcea2b" stroke-miterlimit="10" stroke-width="0.9939"/>
      <circle cx="33.3191" cy="33.1182" r="0.4969" fill="#fcea2b" stroke="#fcea2b" stroke-miterlimit="10" stroke-width="0.9939"/>
      <circle cx="31.9087" cy="34.7566" r="0.4969" fill="#fcea2b" stroke="#fcea2b" stroke-miterlimit="10" stroke-width="0.9939"/>
      <circle cx="31.3229" cy="36.8375" r="0.4969" fill="#fcea2b" stroke="#fcea2b" stroke-miterlimit="10" stroke-width="0.9939"/>
    </g>
  </g>
  <g id="line">
    <rect x="5" y="17" width="62" height="38" fill="none" stroke="#000" stroke-linecap="round" stroke-linejoin="round" stroke-width="2"/>
  </g>
</svg>
