<svg id="emoji" viewBox="0 0 72 72" xmlns="http://www.w3.org/2000/svg">
  <g id="grid">
    <path fill="#b3b3b3" d="M68,4V68H4V4H68m4-4H0V72H72V0Z"/>
    <path fill="none" stroke="#00a5ff" stroke-miterlimit="10" stroke-width="0.1" d="M12.923,10.9583H59.0769A1.9231,1.9231,0,0,1,61,12.8814V59.0352a1.9231,1.9231,0,0,1-1.9231,1.9231H12.9231A1.9231,1.9231,0,0,1,11,59.0352V12.8813A1.923,1.923,0,0,1,12.923,10.9583Z"/>
    <rect x="16" y="4" rx="2.2537" ry="2.2537" width="40" height="64" fill="none" stroke="#00a5ff" stroke-miterlimit="10" stroke-width="0.1"/>
    <rect x="16" y="4" rx="2.2537" ry="2.2537" width="40" height="64" transform="translate(72) rotate(90)" fill="none" stroke="#00a5ff" stroke-miterlimit="10" stroke-width="0.1"/>
    <circle cx="36" cy="36" r="29" fill="none" stroke="#00a5ff" stroke-miterlimit="10" stroke-width="0.1"/>
  </g>
  <g id="line-supplement">
    <path transform="scale(2.7, 2.7) translate(-5.3, -8) translate(11.8 24.97)" d="m0-7v7h3" stroke-width="2px" stroke="#000" stroke-miterlimit="10" fill="none" stroke-linecap="round" stroke-linejoin="round"/>
    <path transform="scale(2.7, 2.7) translate(+5.3, -8) translate(15 23.57)" d="m0-4.212c-0.205-0.798-1.091-1.397-2.153-1.397-1.214 0-2.198 0.783-2.198 1.75 0 0.966 0.984 1.75 2.198 1.75l-0.045 6e-3c1.214 0 2.198 0.784 2.198 1.75 0 0.967-0.984 1.75-2.198 1.75-1.062 0-1.948-0.6-2.153-1.398" stroke-width="2px" stroke="#000" stroke-miterlimit="10" fill="none" stroke-linecap="round" stroke-linejoin="round"/>
  </g>
  <g id="color">
    <rect x="5" y="17" width="62" height="38" fill="#5c9e31"/>
    <rect x="5" y="30" width="62" height="12" fill="#fff"/>
    <rect x="5" y="17" width="62" height="13" fill="#1e50a0"/>
    <g>
      <polygon stroke="#000" stroke-linecap="round" stroke-linejoin="round" points="36 34.75 32.536 40.75 39.464 40.75 36 34.75"/>
      <ellipse cx="36" cy="34.25" rx="2" ry="3" fill="none" stroke="#000" stroke-linecap="round" stroke-linejoin="round"/>
      <line x1="36" x2="36" y1="31.25" y2="37.25" fill="none" stroke="#000" stroke-linecap="round" stroke-linejoin="round"/>
      <line x1="34.5" x2="37.5" y1="33.75" y2="33.75" fill="none" stroke="#000" stroke-linecap="round" stroke-linejoin="round"/>
    </g>
  </g>
  <g id="line">
    <rect x="5" y="17" width="62" height="38" fill="none" stroke="#000" stroke-linecap="round" stroke-linejoin="round" stroke-width="2"/>
  </g>
</svg>
