<svg id="emoji" xmlns="http://www.w3.org/2000/svg" viewBox="0 0 72 72">
  <g id="grid">
    <path d="M68,4V68H4V4H68m4-4H0V72H72V0Z" fill="#b3b3b3"/>
    <path d="M12.923,10.9583H59.0769A1.9231,1.9231,0,0,1,61,12.8814V59.0352a1.9231,1.9231,0,0,1-1.9231,1.9231H12.9231A1.9231,1.9231,0,0,1,11,59.0352V12.8813A1.923,1.923,0,0,1,12.923,10.9583Z" fill="none" stroke="#00a5ff" stroke-miterlimit="10" stroke-width="0.1"/>
    <rect x="16" y="4" width="40" height="64" rx="2.2537" ry="2.2537" fill="none" stroke="#00a5ff" stroke-miterlimit="10" stroke-width="0.1"/>
    <rect x="16" y="4" width="40" height="64" rx="2.2537" ry="2.2537" transform="rotate(90 36 36)" fill="none" stroke="#00a5ff" stroke-miterlimit="10" stroke-width="0.1"/>
    <circle cx="36" cy="36" r="29" fill="none" stroke="#00a5ff" stroke-miterlimit="10" stroke-width="0.1"/>
  </g>
  <g id="color">
    <rect x="5" y="17" width="62" height="38" fill="#1e50a0"/>
    <polygon points="67 24 67 18 6 53 6 54 67 24" fill="#f1b31c"/>
    <polygon points="67 30 67 24 6 54 6 55 67 30" fill="#fff"/>
    <polygon points="16.725 26.966 17.852 23.78 17.081 27.059 19.043 24.257 17.4 27.236 20.062 25.01 17.659 27.485 20.84 25.985 17.841 27.789 21.324 27.118 17.933 28.127 23.119 28.315 17.93 28.476 21.302 29.541 17.831 28.813 20.797 30.665 17.644 29.113 20.001 31.628 17.38 29.358 18.968 32.364 17.059 29.53 17.769 32.821 16.701 29.617 16.511 35.29 16.331 29.614 15.204 32.8 15.975 29.521 14.014 32.323 15.657 29.344 12.995 31.57 15.398 29.095 12.217 30.595 15.216 28.791 11.732 29.462 15.123 28.453 9.119 28.273 15.127 28.104 11.755 27.039 15.225 27.768 12.26 25.915 15.413 27.467 13.056 24.952 15.677 27.222 14.089 24.217 15.998 27.05 15.288 23.759 16.356 26.963 16.546 21.29 16.725 26.966" fill="#fff" stroke="#fff" stroke-linecap="round" stroke-linejoin="round"/>
  </g>
  <g id="line">
    <rect x="5" y="17" width="62" height="38" fill="none" stroke="#000" stroke-linecap="round" stroke-linejoin="round" stroke-width="2"/>
  </g>
</svg>
