<svg id="emoji" xmlns="http://www.w3.org/2000/svg" viewBox="0 0 72 72">
  <g id="grid">
    <path d="M68,4V68H4V4H68m4-4H0V72H72V0Z" fill="#b3b3b3"/>
    <path d="M12.923,10.9583H59.0769A1.9231,1.9231,0,0,1,61,12.8814V59.0352a1.9231,1.9231,0,0,1-1.9231,1.9231H12.9231A1.9231,1.9231,0,0,1,11,59.0352V12.8813A1.923,1.923,0,0,1,12.923,10.9583Z" fill="none" stroke="#00a5ff" stroke-miterlimit="10" stroke-width="0.1"/>
    <rect x="16" y="4" width="40" height="64" rx="2.2537" ry="2.2537" fill="none" stroke="#00a5ff" stroke-miterlimit="10" stroke-width="0.1"/>
    <rect x="16" y="4" width="40" height="64" rx="2.2537" ry="2.2537" transform="translate(72) rotate(90)" fill="none" stroke="#00a5ff" stroke-miterlimit="10" stroke-width="0.1"/>
    <circle cx="36" cy="36" r="29" fill="none" stroke="#00a5ff" stroke-miterlimit="10" stroke-width="0.1"/>
  </g>
  <g id="color">
    <rect x="5" y="17" width="62" height="38" fill="#d22f27"/>
    <polygon points="15 17 5 17 36 36 36 34 15 17" fill="#f1b31c"/>
    <polygon points="15 55 5 55 36 36 36 38 15 55" fill="#f1b31c"/>
    <polygon points="57 17 67 17 36 36 36 34 57 17" fill="#f1b31c"/>
    <polygon points="57 55 67 55 36 36 36 38 57 55" fill="#f1b31c"/>
    <polygon points="33 55 39 55 37 36 35 36 33 55" fill="#f1b31c"/>
    <polygon points="67 39 67 33 36 35 36 37 67 39" fill="#f1b31c"/>
    <polygon points="5 39 5 33 36 35 36 37 5 39" fill="#f1b31c"/>
    <polygon points="33 17 39 17 37 36 35 36 33 17" fill="#f1b31c"/>
    <circle cx="36" cy="36" r="7" fill="#f1b31c" stroke="#d22f27" stroke-miterlimit="10"/>
  </g>
  <g id="line">
    <rect x="5" y="17" width="62" height="38" fill="none" stroke="#000" stroke-linecap="round" stroke-linejoin="round" stroke-width="2"/>
  </g>
</svg>
