<svg id="emoji" viewBox="0 0 72 72" xmlns="http://www.w3.org/2000/svg">
  <g id="grid">
    <path fill="#b3b3b3" d="M68,4V68H4V4H68m4-4H0V72H72V0Z"/>
    <path fill="none" stroke="#00a5ff" stroke-miterlimit="10" stroke-width="0.1" d="M12.923,10.9583H59.0769A1.9231,1.9231,0,0,1,61,12.8814V59.0352a1.9231,1.9231,0,0,1-1.9231,1.9231H12.9231A1.9231,1.9231,0,0,1,11,59.0352V12.8813A1.923,1.923,0,0,1,12.923,10.9583Z"/>
    <rect x="16" y="4" rx="2.2537" ry="2.2537" width="40" height="64" fill="none" stroke="#00a5ff" stroke-miterlimit="10" stroke-width="0.1"/>
    <rect x="16" y="4" rx="2.2537" ry="2.2537" width="40" height="64" transform="translate(72) rotate(90)" fill="none" stroke="#00a5ff" stroke-miterlimit="10" stroke-width="0.1"/>
    <circle cx="36" cy="36" r="29" fill="none" stroke="#00a5ff" stroke-miterlimit="10" stroke-width="0.1"/>
  </g>
  <g id="color">
    <rect x="5" y="17" width="62" height="38" fill="#d22f27"/>
    <polygon fill="#f1b31c" stroke="#f1b31c" stroke-linecap="round" stroke-linejoin="round" points="36 30 37.326 25.08 37.436 30.174 39.901 25.715 38.788 30.687 42.249 26.947 39.979 31.509 44.234 28.706 40.938 32.592 45.74 30.888 41.61 33.872 46.68 33.368 41.956 35.277 47 36 41.956 36.723 46.68 38.632 41.61 38.128 45.74 41.112 40.938 39.408 44.234 43.294 39.979 40.491 42.249 45.053 38.788 41.313 39.901 46.285 37.436 41.826 37.326 46.92 36 42 34.674 46.92 34.564 41.826 32.099 46.285 33.212 41.313 29.751 45.053 32.021 40.491 27.766 43.294 31.062 39.408 26.26 41.112 30.39 38.128 25.32 38.632 30.044 36.723 25 36 30.044 35.277 25.32 33.368 30.39 33.872 26.26 30.888 31.062 32.592 27.766 28.706 32.021 31.509 29.751 26.947 33.212 30.687 32.099 25.715 34.564 30.174 34.674 25.08 36 30"/>
    <circle cx="36" cy="36" r="6" fill="none" stroke="#d22f27" stroke-linecap="round" stroke-linejoin="round"/>
    <path fill="none" stroke="#d22f27" stroke-linecap="round" stroke-linejoin="round" d="M30.55,33.5024a5.9922,5.9922,0,0,0,9.4709,6.9422A10,10,0,0,0,30.55,33.5024Z"/>
    <path fill="none" stroke="#d22f27" stroke-linecap="round" stroke-linejoin="round" d="M41.4505,33.5024a5.9923,5.9923,0,0,1-9.471,6.9422A10,10,0,0,1,41.4505,33.5024Z"/>
  </g>
  <g id="line">
    <rect x="5" y="17" width="62" height="38" fill="none" stroke="#000" stroke-linecap="round" stroke-linejoin="round" stroke-width="2"/>
  </g>
</svg>
