<svg id="emoji" viewBox="0 0 72 72" xmlns="http://www.w3.org/2000/svg">
  <g id="grid">
    <path fill="#b3b3b3" d="M68,4V68H4V4H68m4-4H0V72H72V0Z"/>
    <path fill="none" stroke="#00a5ff" stroke-miterlimit="10" stroke-width="0.1" d="M12.923,10.9583H59.0769A1.9231,1.9231,0,0,1,61,12.8814V59.0352a1.9231,1.9231,0,0,1-1.9231,1.9231H12.9231A1.9231,1.9231,0,0,1,11,59.0352V12.8813A1.923,1.923,0,0,1,12.923,10.9583Z"/>
    <rect x="16" y="4" rx="2.2537" ry="2.2537" width="40" height="64" fill="none" stroke="#00a5ff" stroke-miterlimit="10" stroke-width="0.1"/>
    <rect x="16" y="4" rx="2.2537" ry="2.2537" width="40" height="64" transform="translate(72) rotate(90)" fill="none" stroke="#00a5ff" stroke-miterlimit="10" stroke-width="0.1"/>
    <circle cx="36" cy="36" r="29" fill="none" stroke="#00a5ff" stroke-miterlimit="10" stroke-width="0.1"/>
  </g>
  <g id="line-supplement">
    <path transform="scale(2.7, 2.7) translate(-5.3, -8) matrix(0 1 1 0 17 23.97)" d="m-6-1h4.5c1.381 0 2.5-1.119 2.5-2.5 0-1.38-1.119-2.5-2.5-2.5h-4.5" stroke-width="2px" stroke="#000" stroke-miterlimit="10" fill="none" stroke-linecap="round" stroke-linejoin="round"/>
    <path transform="scale(2.7, 2.7) translate(+5.3, -8) translate(11 24.97)" d="m0-7h4l-4 7h4" stroke-width="2px" stroke="#000" stroke-miterlimit="10" fill="none" stroke-linecap="round" stroke-linejoin="round"/>
  </g>
  <g id="color">
    <rect x="5" y="17" width="62" height="38" fill="#b1cc33"/>
    <rect x="5" y="17" width="62" height="13" fill="#61b2e4"/>
    <rect x="5" y="30.25" width="62" height="11.5" fill="#fff" stroke="#d22f27" stroke-miterlimit="10" stroke-width="1.5"/>
    <circle cx="29.25" cy="21" r="1" fill="#fff"/>
    <circle cx="29.25" cy="24" r="1" fill="#fff"/>
    <circle cx="29.25" cy="27" r="1" fill="#fff"/>
    <circle cx="26.25" cy="21" r="1" fill="#fff"/>
    <circle cx="26.25" cy="24" r="1" fill="#fff"/>
    <circle cx="26.25" cy="27" r="1" fill="#fff"/>
    <circle cx="23.25" cy="21" r="1" fill="#fff"/>
    <circle cx="23.25" cy="24" r="1" fill="#fff"/>
    <circle cx="23.25" cy="27" r="1" fill="#fff"/>
    <circle cx="20.25" cy="24" r="1" fill="#fff"/>
    <circle cx="20.25" cy="27" r="1" fill="#fff"/>
    <circle cx="17.25" cy="27" r="1" fill="#fff"/>
    <path fill="#fff" stroke="#fff" stroke-linecap="round" stroke-linejoin="round" d="M11.2973,24A3.4648,3.4648,0,0,1,14,20.5668a3.2286,3.2286,0,0,0-.6486-.0668,3.5033,3.5033,0,0,0,0,7A3.2286,3.2286,0,0,0,14,27.4332,3.4648,3.4648,0,0,1,11.2973,24Z"/>
  </g>
  <g id="line">
    <rect x="5" y="17" width="62" height="38" fill="none" stroke="#000" stroke-linecap="round" stroke-linejoin="round" stroke-width="2"/>
  </g>
</svg>
