<svg id="emoji" viewBox="0 0 72 72" xmlns="http://www.w3.org/2000/svg">
  <g id="grid">
    <path fill="#b3b3b3" d="M68,4V68H4V4H68m4-4H0V72H72V0Z"/>
    <path fill="none" stroke="#00a5ff" stroke-miterlimit="10" stroke-width="0.1" d="M12.923,10.9583H59.0769A1.9231,1.9231,0,0,1,61,12.8814V59.0352a1.9231,1.9231,0,0,1-1.9231,1.9231H12.9231A1.9231,1.9231,0,0,1,11,59.0352V12.8813A1.923,1.923,0,0,1,12.923,10.9583Z"/>
    <rect x="16" y="4" rx="2.2537" ry="2.2537" width="40" height="64" fill="none" stroke="#00a5ff" stroke-miterlimit="10" stroke-width="0.1"/>
    <rect x="16" y="4" rx="2.2537" ry="2.2537" width="40" height="64" transform="rotate(90 36 36)" fill="none" stroke="#00a5ff" stroke-miterlimit="10" stroke-width="0.1"/>
    <circle cx="36" cy="36" r="29" fill="none" stroke="#00a5ff" stroke-miterlimit="10" stroke-width="0.1"/>
  </g>
  <g id="color">
    <rect x="5" y="17" width="62" height="38" fill="#fff"/>
    <rect x="5" y="17" width="21" height="38" fill="#186648"/>
    <rect x="46" y="17" width="21" height="38" fill="#186648"/>
    <g>
      <polygon fill="#186648" stroke="#186648" stroke-linecap="round" stroke-linejoin="round" stroke-width="2" points="36 26 32 30 36 29.2 40 30 36 26"/>
      <polygon fill="#186648" stroke="#186648" stroke-linecap="round" stroke-linejoin="round" stroke-width="2" points="36 30 31 34 36 33.2 41 34 36 30"/>
      <polygon fill="#186648" stroke="#186648" stroke-linecap="round" stroke-linejoin="round" stroke-width="2" points="36 34 30 38 36 37.2 42 38 36 34"/>
      <polygon fill="#186648" stroke="#186648" stroke-linecap="round" stroke-linejoin="round" stroke-width="2" points="36 38 29 42 36 41.2 43 42 36 38"/>
      <line x1="36" x2="36" y1="40" y2="46" fill="none" stroke="#186648" stroke-linecap="round" stroke-linejoin="round" stroke-width="2"/>
    </g>
  </g>
  <g id="line">
    <rect x="5" y="17" width="62" height="38" fill="none" stroke="#000" stroke-linecap="round" stroke-linejoin="round" stroke-width="2"/>
  </g>
</svg>
