<svg id="emoji" viewBox="0 0 72 72" xmlns="http://www.w3.org/2000/svg">
  <g id="grid">
    <path fill="#b3b3b3" d="M68,4V68H4V4H68m4-4H0V72H72V0Z"/>
    <path fill="none" stroke="#00a5ff" stroke-miterlimit="10" stroke-width="0.1" d="M12.923,10.9583H59.0769A1.9231,1.9231,0,0,1,61,12.8814V59.0352a1.9231,1.9231,0,0,1-1.9231,1.9231H12.9231A1.9231,1.9231,0,0,1,11,59.0352V12.8813A1.923,1.923,0,0,1,12.923,10.9583Z"/>
    <rect x="16" y="4" rx="2.2537" ry="2.2537" width="40" height="64" fill="none" stroke="#00a5ff" stroke-miterlimit="10" stroke-width="0.1"/>
    <rect x="16" y="4" rx="2.2537" ry="2.2537" width="40" height="64" transform="translate(72) rotate(90)" fill="none" stroke="#00a5ff" stroke-miterlimit="10" stroke-width="0.1"/>
    <circle cx="36" cy="36" r="29" fill="none" stroke="#00a5ff" stroke-miterlimit="10" stroke-width="0.1"/>
  </g>
  <g id="color">
    <rect x="5" y="17" width="62" height="38" fill="#fff"/>
    <rect x="5" y="36" width="62" height="19" fill="#61b2e4"/>
    <path fill="#61b2e4" d="M41,31a7.191,7.191,0,0,1,2,5,10.0442,10.0442,0,0,1-7,10,10.0442,10.0442,0,0,1-7-10,7.191,7.191,0,0,1,2-5"/>
    <path fill="#61b2e4" d="M41,31a7.191,7.191,0,0,1,2,5,10.0442,10.0442,0,0,1-7,10,10.0442,10.0442,0,0,1-7-10,7.191,7.191,0,0,1,2-5"/>
    <line x1="36" x2="36" y1="22" y2="30" fill="#fcea2b" stroke="#f1b31c" stroke-linecap="round" stroke-linejoin="round" stroke-width="2"/>
    <path fill="none" stroke="#f1b31c" stroke-linecap="round" stroke-linejoin="round" stroke-width="2" d="M36,28a3,3,0,0,1,3-3c1.6569,0,4.1391,1.4725,2,6H31c-2.1391-4.5275.3431-6,2-6a3,3,0,0,1,3,3"/>
    <line x1="36" x2="36" y1="35" y2="41" fill="none" stroke="#6a462f" stroke-linecap="round" stroke-linejoin="round" stroke-width="2"/>
    <path fill="#5c9e31" d="M29.6694,40A10.0342,10.0342,0,0,0,36,46a10.0342,10.0342,0,0,0,6.3306-6Z"/>
    <path fill="none" stroke="#f1b31c" stroke-linecap="round" stroke-linejoin="round" stroke-width="2" d="M41,31a7.191,7.191,0,0,1,2,5,10.0442,10.0442,0,0,1-7,10,10.0442,10.0442,0,0,1-7-10,7.191,7.191,0,0,1,2-5"/>
    <path fill="none" stroke="#186648" stroke-linecap="round" stroke-linejoin="round" stroke-width="2" d="M41,47c3.3484-1.7381,6-6.2282,6-11a12.9874,12.9874,0,0,0-1.066-5"/>
    <path fill="none" stroke="#186648" stroke-linecap="round" stroke-linejoin="round" stroke-width="2" d="M31,47c-3.3484-1.7381-6-6.2282-6-11a12.9874,12.9874,0,0,1,1.066-5"/>
    <polyline fill="none" stroke="#fff" stroke-linecap="round" stroke-linejoin="round" stroke-width="2" points="43 49 41 47 31 47 29 49"/>
  </g>
  <g id="line">
    <rect x="5" y="17" width="62" height="38" fill="none" stroke="#000" stroke-linecap="round" stroke-linejoin="round" stroke-width="2"/>
  </g>
</svg>
