<svg id="emoji" viewBox="0 0 72 72" xmlns="http://www.w3.org/2000/svg">
  <g id="grid">
    <path fill="#b3b3b3" d="M68,4V68H4V4H68m4-4H0V72H72V0Z"/>
    <path fill="none" stroke="#00a5ff" stroke-miterlimit="10" stroke-width="0.1" d="M12.923,10.9583H59.0769A1.9231,1.9231,0,0,1,61,12.8814V59.0352a1.9231,1.9231,0,0,1-1.9231,1.9231H12.9231A1.9231,1.9231,0,0,1,11,59.0352V12.8813A1.923,1.923,0,0,1,12.923,10.9583Z"/>
    <rect x="16" y="4" rx="2.2537" ry="2.2537" width="40" height="64" fill="none" stroke="#00a5ff" stroke-miterlimit="10" stroke-width="0.1"/>
    <rect x="16" y="4" rx="2.2537" ry="2.2537" width="40" height="64" transform="rotate(90 36 36)" fill="none" stroke="#00a5ff" stroke-miterlimit="10" stroke-width="0.1"/>
    <circle cx="36" cy="36" r="29" fill="none" stroke="#00a5ff" stroke-miterlimit="10" stroke-width="0.1"/>
  </g>
  <g id="color">
    <rect x="5" y="17" width="62" height="38" fill="#186648"/>
    <rect x="5" y="17" width="21" height="38" fill="#fff"/>
    <path fill="#fff" stroke="#fff" stroke-linecap="round" stroke-linejoin="round" d="M50,44a11.9921,11.9921,0,0,1-9.8474-18.8474A11.9953,11.9953,0,1,0,56.8474,41.8474,11.9362,11.9362,0,0,1,50,44Z"/>
    <polygon fill="#fff" stroke="#fff" stroke-linecap="round" stroke-linejoin="round" points="53.453 29.52 54.8 27.666 52.621 28.374 51.273 26.52 51.273 28.812 49.094 29.52 51.273 30.228 51.273 32.52 52.621 30.666 54.8 31.374 53.453 29.52"/>
  </g>
  <g id="line">
    <rect x="5" y="17" width="62" height="38" fill="none" stroke="#000" stroke-linecap="round" stroke-linejoin="round" stroke-width="2"/>
  </g>
</svg>
