<svg id="emoji" viewBox="0 0 72 72" xmlns="http://www.w3.org/2000/svg">
  <g id="grid">
    <path fill="#b3b3b3" d="M68,4V68H4V4H68m4-4H0V72H72Z"/>
    <path fill="none" stroke="#00a5ff" stroke-miterlimit="10" stroke-width="0.1" d="M12.923,10.9583H59.0769A1.9231,1.9231,0,0,1,61,12.8814h0V59.0352a1.9231,1.9231,0,0,1-1.9231,1.9231H12.9231A1.9231,1.9231,0,0,1,11,59.0352h0V12.8813a1.9231,1.9231,0,0,1,1.923-1.923Z"/>
    <rect x="16" y="4" rx="2.2537" ry="2.2537" width="40" height="64" fill="none" stroke="#00a5ff" stroke-miterlimit="10" stroke-width="0.1"/>
    <rect x="4" y="16" rx="2.2537" ry="2.2537" width="64" height="40" fill="none" stroke="#00a5ff" stroke-miterlimit="10" stroke-width="0.1"/>
    <circle cx="36" cy="36" r="29" fill="none" stroke="#00a5ff" stroke-miterlimit="10" stroke-width="0.1"/>
  </g>
  <g id="line-supplement">
    <path transform="scale(2.7, 2.7) translate(-5.3, -8) translate(11 17.97)" d="m0 0h4" stroke-width="2px" stroke="#000" stroke-miterlimit="10" fill="none" stroke-linecap="round" stroke-linejoin="round"/>
    <path transform="scale(2.7, 2.7) translate(-5.3, -8) matrix(0 1 1 0 16.5 21.47)" d="m-3.5-3.5h7" stroke-width="2px" stroke="#000" stroke-miterlimit="10" fill="none" stroke-linecap="round" stroke-linejoin="round"/>
    <path transform="scale(2.7, 2.7) translate(+5.3, -8) matrix(0 -1 -1 0 17 18.47)" d="m-6.5 0.5h7l-6 3 6 3h-7" stroke-width="2px" stroke="#000" stroke-miterlimit="10" fill="none" stroke-linecap="round" stroke-linejoin="round"/>
  </g>
  <g id="color">
    <rect x="5" y="17" width="62" height="38" fill="#186648"/>
    <rect x="8.1715" y="17" width="14.9278" height="38" fill="#d22f27"/>
    <polygon fill="#781e32" points="18.624 17 12.658 17 8.171 21.216 15.641 28.234 23.11 21.216 18.624 17"/>
    <polygon fill="#f1b31c" points="17.114 19.628 14.167 19.628 12.693 21.216 14.167 22.804 17.114 22.804 18.588 21.216 17.114 19.628"/>
    <polygon fill="#781e32" points="15.641 38.16 8.171 31.142 15.641 24.123 23.11 31.142 15.641 38.16"/>
    <polygon fill="#f1b31c" points="17.114 29.554 14.167 29.554 12.693 31.142 14.167 32.73 17.114 32.73 18.588 31.142 17.114 29.554"/>
    <polygon fill="#781e32" points="15.641 48.086 8.171 41.067 15.641 34.049 23.11 41.067 15.641 48.086"/>
    <polygon fill="#f1b31c" points="17.114 39.479 14.167 39.479 12.693 41.067 14.167 42.655 17.114 42.655 18.588 41.067 17.114 39.479"/>
    <polygon fill="#781e32" points="18.846 55 23.11 50.993 15.641 43.975 8.171 50.993 12.435 55 18.846 55"/>
    <polygon fill="#f1b31c" points="17.114 49.405 14.167 49.405 12.693 50.993 14.167 52.581 17.114 52.581 18.588 50.993 17.114 49.405"/>
    <g>
      <path fill="#fff" stroke="#fff" stroke-linecap="round" stroke-linejoin="round" stroke-width="0.9952" d="M37.4927,21.8329a7.7649,7.7649,0,0,1-6.8143,13.66,7.77,7.77,0,1,0,6.8143-13.66Z"/>
      <circle cx="32.7629" cy="23.0551" r="0.7385" fill="#fff"/>
      <circle cx="32.7629" cy="26.0091" r="0.7385" fill="#fff"/>
      <circle cx="29.8089" cy="26.0091" r="0.7385" fill="#fff"/>
      <circle cx="35.717" cy="26.0091" r="0.7385" fill="#fff"/>
      <circle cx="32.7629" cy="28.9631" r="0.7385" fill="#fff"/>
    </g>
  </g>
  <g id="line">
    <rect x="5" y="17" width="62" height="38" fill="none" stroke="#000" stroke-linecap="round" stroke-linejoin="round" stroke-width="2"/>
  </g>
</svg>
