<svg id="emoji" viewBox="0 0 72 72" xmlns="http://www.w3.org/2000/svg">
  <g id="grid">
    <path fill="#b3b3b3" d="M68,4V68H4V4H68m4-4H0V72H72V0Z"/>
    <path fill="none" stroke="#00a5ff" stroke-miterlimit="10" stroke-width="0.1" d="M12.923,10.9583H59.0769A1.9231,1.9231,0,0,1,61,12.8814V59.0352a1.9231,1.9231,0,0,1-1.9231,1.9231H12.9231A1.9231,1.9231,0,0,1,11,59.0352V12.8813A1.923,1.923,0,0,1,12.923,10.9583Z"/>
    <rect x="16" y="4" rx="2.2537" ry="2.2537" width="40" height="64" fill="none" stroke="#00a5ff" stroke-miterlimit="10" stroke-width="0.1"/>
    <rect x="16" y="4" rx="2.2537" ry="2.2537" width="40" height="64" transform="translate(72) rotate(90)" fill="none" stroke="#00a5ff" stroke-miterlimit="10" stroke-width="0.1"/>
    <circle cx="36" cy="36" r="29" fill="none" stroke="#00a5ff" stroke-miterlimit="10" stroke-width="0.1"/>
  </g>
  <g id="line-supplement">
    <path transform="scale(2.7, 2.7) translate(-5.3, -8) translate(15 23.57)" d="m0-4.212c-0.205-0.798-1.091-1.397-2.153-1.397-1.214 0-2.198 0.783-2.198 1.75 0 0.966 0.984 1.75 2.198 1.75l-0.045 6e-3c1.214 0 2.198 0.784 2.198 1.75 0 0.967-0.984 1.75-2.198 1.75-1.062 0-1.948-0.6-2.153-1.398" stroke-width="2px" stroke="#000" stroke-miterlimit="10" fill="none" stroke-linecap="round" stroke-linejoin="round"/>
    <path transform="scale(2.7, 2.7) translate(+5.3, -8) translate(15 24.34)" d="m0-5.742c-0.441-0.392-1.022-0.629-1.659-0.629-1.38 0-2.5 1.119-2.5 2.5v2c0 1.38 1.12 2.5 2.5 2.5 1.381 0 2.5-1.12 2.5-2.5v-1.014h-2" stroke-width="2px" stroke="#000" stroke-miterlimit="10" fill="none" stroke-linecap="round" stroke-linejoin="round"/>
  </g>
  <g id="color">
    <rect x="5" y="17" width="62" height="38" fill="#d22f27"/>
    <rect x="5" y="36" width="62" height="19" fill="#fff"/>
    <circle cx="20" cy="22" r="1" fill="#fff"/>
    <circle cx="18" cy="27" r="1" fill="#fff"/>
    <circle cx="22" cy="27" r="1" fill="#fff"/>
    <circle cx="17" cy="24" r="1" fill="#fff"/>
    <circle cx="23" cy="24" r="1" fill="#fff"/>
    <path fill="#fff" stroke="#fff" stroke-linecap="round" stroke-linejoin="round" d="M11.1987,24.9227A4.873,4.873,0,0,1,15,20.094,4.539,4.539,0,0,0,14.0877,20a4.9273,4.9273,0,0,0,0,9.8454A4.539,4.539,0,0,0,15,29.7514,4.873,4.873,0,0,1,11.1987,24.9227Z"/>
  </g>
  <g id="line">
    <rect x="5" y="17" width="62" height="38" fill="none" stroke="#000" stroke-linecap="round" stroke-linejoin="round" stroke-width="2"/>
  </g>
</svg>
