<svg id="emoji" viewBox="0 0 72 72" xmlns="http://www.w3.org/2000/svg">
  <g id="grid">
    <path fill="#b3b3b3" d="M68,4V68H4V4H68m4-4H0V72H72V0Z"/>
    <path fill="none" stroke="#00a5ff" stroke-miterlimit="10" stroke-width="0.1" d="M12.923,10.9583H59.0769A1.9231,1.9231,0,0,1,61,12.8814V59.0352a1.9231,1.9231,0,0,1-1.9231,1.9231H12.9231A1.9231,1.9231,0,0,1,11,59.0352V12.8813A1.923,1.923,0,0,1,12.923,10.9583Z"/>
    <rect x="16" y="4" rx="2.2537" ry="2.2537" width="40" height="64" fill="none" stroke="#00a5ff" stroke-miterlimit="10" stroke-width="0.1"/>
    <rect x="16" y="4" rx="2.2537" ry="2.2537" width="40" height="64" transform="rotate(90 36 36)" fill="none" stroke="#00a5ff" stroke-miterlimit="10" stroke-width="0.1"/>
    <circle cx="36" cy="36" r="29" fill="none" stroke="#00a5ff" stroke-miterlimit="10" stroke-width="0.1"/>
  </g>
  <g id="color">
    <rect x="5" y="17" width="62" height="38" fill="#5c9e31"/>
    <rect x="5" y="17" width="62" height="13"/>
    <rect x="5" y="30.5" width="62" height="11" fill="#d22f27" stroke="#fff" stroke-miterlimit="10" stroke-width="2"/>
    <path fill="#fff" stroke="#fff" stroke-linecap="round" stroke-linejoin="round" d="M29.25,47.6913l13.5-23.3826"/>
    <path fill="#fff" stroke="#fff" stroke-linecap="round" stroke-linejoin="round" d="M29.25,24.3087l13.5,23.3826"/>
    <path fill="#d22f27" d="M36.231,25.0566a.4958.4958,0,0,0-.4619,0A12.2986,12.2986,0,0,0,29.5,36a12.2988,12.2988,0,0,0,6.2671,10.9434.5.5,0,0,0,.231.0566h.0039a.5.5,0,0,0,.2309-.0566A12.2986,12.2986,0,0,0,42.5,36,12.2985,12.2985,0,0,0,36.231,25.0566Z"/>
    <path d="M41.7033,31.501A6.2884,6.2884,0,0,0,40,36a6.2883,6.2883,0,0,0,1.7037,4.4991,13.1042,13.1042,0,0,0,0-8.9979Z"/>
    <path d="M30.2964,40.4989A6.2883,6.2883,0,0,0,32,36a6.2884,6.2884,0,0,0-1.7033-4.4988,13.1034,13.1034,0,0,0,0,8.9979Z"/>
    <line x1="36" x2="36" y1="27" y2="45" fill="#fff" stroke="#fff" stroke-linecap="round" stroke-linejoin="round"/>
  </g>
  <g id="line">
    <rect x="5" y="17" width="62" height="38" fill="none" stroke="#000" stroke-linecap="round" stroke-linejoin="round" stroke-width="2"/>
  </g>
</svg>
