<svg id="emoji" viewBox="0 0 72 72" xmlns="http://www.w3.org/2000/svg">
  <g id="grid">
    <path fill="#b3b3b3" d="M68,4V68H4V4H68m4-4H0V72H72V0Z"/>
    <path fill="none" stroke="#00a5ff" stroke-miterlimit="10" stroke-width="0.1" d="M12.923,10.9583H59.0769A1.9231,1.9231,0,0,1,61,12.8814V59.0352a1.9231,1.9231,0,0,1-1.9231,1.9231H12.9231A1.9231,1.9231,0,0,1,11,59.0352V12.8813A1.923,1.923,0,0,1,12.923,10.9583Z"/>
    <rect x="16" y="4" rx="2.2537" ry="2.2537" width="40" height="64" fill="none" stroke="#00a5ff" stroke-miterlimit="10" stroke-width="0.1"/>
    <rect x="16" y="4" rx="2.2537" ry="2.2537" width="40" height="64" transform="translate(72) rotate(90)" fill="none" stroke="#00a5ff" stroke-miterlimit="10" stroke-width="0.1"/>
    <circle cx="36" cy="36" r="29" fill="none" stroke="#00a5ff" stroke-miterlimit="10" stroke-width="0.1"/>
  </g>
  <g id="color">
    <rect x="5" y="17" width="62" height="38" fill="#5c9e31"/>
    <rect x="5" y="17" width="62" height="13" fill="#d22f27"/>
    <rect x="5" y="30" width="62" height="12"/>
    <path fill="#fff" stroke="#fff" stroke-linecap="round" stroke-linejoin="round" d="M32.1358,36.125a4.0528,4.0528,0,0,1,3.3783-3.9236,4.3947,4.3947,0,0,0-.8108-.0764,4.0043,4.0043,0,1,0,0,8,4.3947,4.3947,0,0,0,.8108-.0764A4.0527,4.0527,0,0,1,32.1358,36.125Z"/>
    <polygon fill="#fff" stroke="#fff" stroke-linecap="round" stroke-linejoin="round" points="38.193 37.166 39.521 33.166 40.666 37.105 37.486 34.732 41.486 34.633 38.193 37.166"/>
  </g>
  <g id="line">
    <rect x="5" y="17" width="62" height="38" fill="none" stroke="#000" stroke-linecap="round" stroke-linejoin="round" stroke-width="2"/>
  </g>
</svg>
