<svg id="emoji" viewBox="0 0 72 72" xmlns="http://www.w3.org/2000/svg">
  <g id="grid">
    <path fill="#b3b3b3" d="M68,4V68H4V4H68m4-4H0V72H72V0Z"/>
    <path fill="none" stroke="#00a5ff" stroke-miterlimit="10" stroke-width="0.1" d="M12.923,10.9583H59.0769A1.9231,1.9231,0,0,1,61,12.8814V59.0352a1.9231,1.9231,0,0,1-1.9231,1.9231H12.9231A1.9231,1.9231,0,0,1,11,59.0352V12.8813A1.923,1.923,0,0,1,12.923,10.9583Z"/>
    <rect x="16" y="4" rx="2.2537" ry="2.2537" width="40" height="64" fill="none" stroke="#00a5ff" stroke-miterlimit="10" stroke-width="0.1"/>
    <rect x="16" y="4" rx="2.2537" ry="2.2537" width="40" height="64" transform="translate(72) rotate(90)" fill="none" stroke="#00a5ff" stroke-miterlimit="10" stroke-width="0.1"/>
    <circle cx="36" cy="36" r="29" fill="none" stroke="#00a5ff" stroke-miterlimit="10" stroke-width="0.1"/>
  </g>
  <g id="color">
    <rect x="5" y="17" width="62" height="38" fill="#1e50a0"/>
    <polygon fill="#fff" stroke="#fff" stroke-linecap="round" stroke-linejoin="round" points="19.75 21.972 20.986 25.972 17.75 23.5 21.75 23.5 18.514 25.972 19.75 21.972"/>
    <polygon fill="#fff" stroke="#fff" stroke-linecap="round" stroke-linejoin="round" points="19.75 35.972 20.986 39.972 17.75 37.5 21.75 37.5 18.514 39.972 19.75 35.972"/>
    <polygon fill="#fff" stroke="#fff" stroke-linecap="round" stroke-linejoin="round" points="12.5 27.972 13.736 31.972 10.5 29.5 14.5 29.5 11.264 31.972 12.5 27.972"/>
    <polygon fill="#fff" stroke="#fff" stroke-linecap="round" stroke-linejoin="round" points="26.5 26.972 27.427 29.972 25 28.118 28 28.118 25.573 29.972 26.5 26.972"/>
    <path fill="#f1b31c" stroke="#f1b31c" stroke-linecap="round" stroke-linejoin="round" stroke-width="2" d="M56.4964,22.0042,22.5,47h32l2-.0008c-2.1713-3.7-5.4086-7.9629-5.4086-12.5009C51.0914,29.9634,54.3273,25.7026,56.4964,22.0042Z"/>
    <line x1="22.5" x2="58.5" y1="50" y2="50" fill="none" stroke="#f1b31c" stroke-linecap="round" stroke-linejoin="round" stroke-width="2"/>
  </g>
  <g id="line">
    <rect x="5" y="17" width="62" height="38" fill="none" stroke="#000" stroke-linecap="round" stroke-linejoin="round" stroke-width="2"/>
  </g>
</svg>
