<svg id="emoji" viewBox="0 0 72 72" xmlns="http://www.w3.org/2000/svg">
  <g id="grid">
    <path fill="#b3b3b3" d="M68,4V68H4V4H68m4-4H0V72H72V0Z"/>
    <path fill="none" stroke="#00a5ff" stroke-miterlimit="10" stroke-width="0.1" d="M12.923,10.9583H59.0769A1.9231,1.9231,0,0,1,61,12.8814V59.0352a1.9231,1.9231,0,0,1-1.9231,1.9231H12.9231A1.9231,1.9231,0,0,1,11,59.0352V12.8813A1.923,1.923,0,0,1,12.923,10.9583Z"/>
    <rect x="16" y="4" rx="2.2537" ry="2.2537" width="40" height="64" fill="none" stroke="#00a5ff" stroke-miterlimit="10" stroke-width="0.1"/>
    <rect x="16" y="4" rx="2.2537" ry="2.2537" width="40" height="64" transform="translate(72) rotate(90)" fill="none" stroke="#00a5ff" stroke-miterlimit="10" stroke-width="0.1"/>
    <circle cx="36" cy="36" r="29" fill="none" stroke="#00a5ff" stroke-miterlimit="10" stroke-width="0.1"/>
  </g>
  <g id="color">
    <rect x="5" y="17" width="62" height="38" fill="#fff"/>
    <rect x="5" y="17" width="62" height="13" fill="#d22f27"/>
    <rect x="5" y="30" width="62" height="12" fill="#1e50a0"/>
    <circle cx="27" cy="40" r="7" fill="#fff" stroke="#d22f27" stroke-miterlimit="10" stroke-width="2"/>
    <polyline fill="#fff" stroke="#d22f27" stroke-miterlimit="10" stroke-width="2" points="34 40 34 29 20 29 20 40"/>
    <line x1="22" x2="34" y1="44" y2="30" fill="none" stroke="#d22f27" stroke-linecap="round" stroke-miterlimit="10" stroke-width="2"/>
    <line x1="32" x2="20" y1="44" y2="30" fill="none" stroke="#d22f27" stroke-linecap="round" stroke-miterlimit="10" stroke-width="2"/>
    <line x1="27" x2="27" y1="33" y2="43" fill="none" stroke="#fff" stroke-miterlimit="10" stroke-width="2"/>
    <line x1="22" x2="32" y1="38" y2="38" fill="none" stroke="#fff" stroke-miterlimit="10" stroke-width="2"/>
    <path fill="none" stroke="#fcea2b" stroke-linecap="round" stroke-linejoin="round" stroke-width="2" d="M27,23c-3.1257.623-5,1.6-4,4h8C32,24.6,30.1257,23.623,27,23Z"/>
    <line x1="27" x2="27" y1="21.0488" y2="23" fill="none" stroke="#fcea2b" stroke-linecap="round" stroke-linejoin="round" stroke-width="2"/>
  </g>
  <g id="line">
    <rect x="5" y="17" width="62" height="38" fill="none" stroke="#000" stroke-linecap="round" stroke-linejoin="round" stroke-width="2"/>
  </g>
</svg>
