<svg id="emoji" viewBox="0 0 72 72" xmlns="http://www.w3.org/2000/svg">
  <g id="grid">
    <path fill="#b3b3b3" d="M68,4V68H4V4H68m4-4H0V72H72V0Z"/>
    <path fill="none" stroke="#00a5ff" stroke-miterlimit="10" stroke-width="0.1" d="M12.923,10.9583H59.0769A1.9231,1.9231,0,0,1,61,12.8814V59.0352a1.9231,1.9231,0,0,1-1.9231,1.9231H12.9231A1.9231,1.9231,0,0,1,11,59.0352V12.8813A1.923,1.923,0,0,1,12.923,10.9583Z"/>
    <rect x="16" y="4" rx="2.2537" ry="2.2537" width="40" height="64" fill="none" stroke="#00a5ff" stroke-miterlimit="10" stroke-width="0.1"/>
    <rect x="16" y="4" rx="2.2537" ry="2.2537" width="40" height="64" transform="translate(72) rotate(90)" fill="none" stroke="#00a5ff" stroke-miterlimit="10" stroke-width="0.1"/>
    <circle cx="36" cy="36" r="29" fill="none" stroke="#00a5ff" stroke-miterlimit="10" stroke-width="0.1"/>
  </g>
  <g id="line-supplement">
    <path transform="scale(2.7, 2.7) translate(-5.3, -8) translate(11 17.97)" d="m0 7v-7l5 7v-7" stroke-width="2px" stroke="#000" stroke-miterlimit="10" fill="none" stroke-linecap="round" stroke-linejoin="round"/>
    <path transform="scale(2.7, 2.7) translate(+5.3, -8) translate(11 17.97)" d="m0 7v-7h2.669c0.963 0 1.744 0.781 1.744 1.744s-0.781 1.743-1.744 1.743h-2.669" stroke-width="2px" stroke="#000" stroke-miterlimit="10" fill="none" stroke-linecap="round" stroke-linejoin="round"/>
    <path transform="scale(2.7, 2.7) translate(+5.3, -8) matrix(.3964 .9181 .9181 -.3964 15.8 21.82)" d="m-1.155-1.757 3.827 1e-3" stroke-width="2px" stroke="#000" stroke-miterlimit="10" fill="none" stroke-linecap="round" stroke-linejoin="round"/>
  </g>
  <g id="color">
    <rect x="5" y="17" width="62" height="38" fill="#1e50a0"/>
    <rect x="5" y="35" width="62" height="2" fill="#f1b31c"/>
    <polygon fill="#fff" stroke="#fff" stroke-linecap="round" stroke-linejoin="round" points="16.296 44.896 18 42.536 16.808 45.192 19.464 44 17.104 45.704 20 46 17.104 46.296 19.464 48 16.808 46.808 18 49.464 16.296 47.104 16 50 15.704 47.104 14 49.464 15.192 46.808 12.536 48 14.896 46.296 12 46 14.896 45.704 12.536 44 15.192 45.192 14 42.536 15.704 44.896 16 42 16.296 44.896"/>
  </g>
  <g id="line">
    <rect x="5" y="17" width="62" height="38" fill="none" stroke="#000" stroke-linecap="round" stroke-linejoin="round" stroke-width="2"/>
  </g>
</svg>
