<svg id="emoji" viewBox="0 0 72 72" xmlns="http://www.w3.org/2000/svg">
  <g id="grid">
    <path fill="#b3b3b3" d="M68,4V68H4V4H68m4-4H0V72H72V0Z"/>
    <path fill="none" stroke="#00a5ff" stroke-miterlimit="10" stroke-width="0.1" d="M12.923,10.9583H59.0769A1.9231,1.9231,0,0,1,61,12.8814V59.0352a1.9231,1.9231,0,0,1-1.9231,1.9231H12.9231A1.9231,1.9231,0,0,1,11,59.0352V12.8813A1.923,1.923,0,0,1,12.923,10.9583Z"/>
    <rect x="16" y="4" rx="2.2537" ry="2.2537" width="40" height="64" fill="none" stroke="#00a5ff" stroke-miterlimit="10" stroke-width="0.1"/>
    <rect x="16" y="4" rx="2.2537" ry="2.2537" width="40" height="64" transform="translate(72) rotate(90)" fill="none" stroke="#00a5ff" stroke-miterlimit="10" stroke-width="0.1"/>
    <circle cx="36" cy="36" r="29" fill="none" stroke="#00a5ff" stroke-miterlimit="10" stroke-width="0.1"/>
  </g>
  <g id="line-supplement">
    <path transform="scale(2.7, 2.7) translate(-5.3, -8) translate(11 17.97)" d="m0 0h4" stroke-width="2px" stroke="#000" stroke-miterlimit="10" fill="none" stroke-linecap="round" stroke-linejoin="round"/>
    <path transform="scale(2.7, 2.7) translate(-5.3, -8) matrix(0 1 1 0 16.5 21.47)" d="m-3.5-3.5h7" stroke-width="2px" stroke="#000" stroke-miterlimit="10" fill="none" stroke-linecap="round" stroke-linejoin="round"/>
    <path transform="scale(2.7, 2.7) translate(+5.3, -8) translate(16.33 17.97)" d="m0 7-3-7-3 7" stroke-width="2px" stroke="#000" stroke-miterlimit="10" fill="none" stroke-linecap="round" stroke-linejoin="round"/>
    <path transform="scale(2.7, 2.7) translate(+5.3, -8) translate(11.33 23.29)" d="m0 0h4" stroke-width="2px" stroke="#000" stroke-miterlimit="10" fill="none" stroke-linecap="round" stroke-linejoin="round"/>
  </g>
  <g id="color">
    <rect x="5" y="17" width="62" height="38" fill="#1e50a0"/>
    <g>
      <polygon fill="#fff" points="9.887 18 6 18 6 20.332 32.113 36 36 36 36 33.668 9.887 18"/>
      <polygon fill="#fff" points="36 20.332 36 18 32.113 18 6 33.668 6 36 9.887 36 36 20.332"/>
      <rect x="6" y="24" width="30" height="6" fill="#fff"/>
      <rect x="18" y="18" width="6" height="18" fill="#fff"/>
      <rect x="20" y="18" width="2" height="18" fill="#d22f27"/>
      <rect x="6" y="26" width="30" height="2" fill="#d22f27"/>
      <polygon fill="#d22f27" points="36 33.668 29.887 30 26 30 36 36 36 35.999 36 33.668"/>
      <polygon fill="#d22f27" points="36 18 32.113 18 24 22.868 24 24 26.001 24 36 18.001 36 18"/>
      <polygon fill="#d22f27" points="6 20.332 12.113 24 16.001 24 6.001 18 6 18.001 6 20.332"/>
      <polygon fill="#d22f27" points="6 36 9.887 36 18 31.132 18 30 16 30 6 35.999 6 36"/>
    </g>
    <g>
      <path fill="#3f3f3f" d="M59.5,30h-.2771c.0939.0307.1839.0693.2771.1014Z"/>
      <path fill="#3f3f3f" d="M46.5,30v.1014c.0932-.0321.1832-.0707.2771-.1014Z"/>
      <path fill="#fcea2b" d="M53,29a19.9562,19.9562,0,0,0-6.2229,1H59.2229A19.9562,19.9562,0,0,0,53,29Z"/>
      <path fill="#fcea2b" d="M59.5,35.5V30.1014c-.0932-.0321-.1832-.0707-.2771-.1014H46.7771c-.0939.0307-.1839.0693-.2771.1014V35.5Z"/>
    </g>
    <path fill="#92d3f5" d="M45.9556,35.81,59.5,35.8635S61,45,53,48"/>
    <path fill="#92d3f5" d="M45.9556,35.81S45,46,53,48"/>
    <path fill="#1e50a0" stroke="#1e50a0" stroke-linecap="round" stroke-linejoin="round" stroke-width="2" d="M57,43.9188c-2.4-1.5567-8,0-8,0L53,48Z"/>
    <polyline fill="none" stroke="#a57939" stroke-linecap="round" stroke-linejoin="round" stroke-width="2" points="47 38 50 42 50 45"/>
    <ellipse cx="47.8576" cy="41.5894" rx="0.5" ry="2.6466" transform="translate(-10.5827 16.9976) rotate(-18.1699)" fill="none" stroke="#a57939" stroke-linecap="round" stroke-linejoin="round" stroke-width="2"/>
    <polygon fill="#f4aa41" stroke="#a57939" stroke-linecap="round" stroke-linejoin="round" stroke-width="2" points="54 33 52 33 51 31 54 33"/>
    <path fill="none" stroke="#f4aa41" stroke-linecap="round" stroke-linejoin="round" stroke-width="2" d="M56,42H53A2.8222,2.8222,0,0,0,56,42Z"/>
    <path fill="none" stroke="#000" stroke-linecap="round" stroke-linejoin="round" d="M59.5833,30v9c0,6.75-6.75,9-6.75,9s-6.75-2.25-6.75-9V30S52.9792,26.5937,59.5833,30Z"/>
    <line x1="59.5" x2="46.5" y1="35.5" y2="35.5" fill="none" stroke="#000" stroke-linecap="round" stroke-linejoin="round"/>
  </g>
  <g id="line">
    <rect x="5" y="17" width="62" height="38" fill="none" stroke="#000" stroke-linecap="round" stroke-linejoin="round" stroke-width="2"/>
  </g>
</svg>
