<svg id="emoji" xmlns="http://www.w3.org/2000/svg" viewBox="0 0 72 72">
  <g id="grid">
    <path d="M68,4V68H4V4H68m4-4H0V72H72V0Z" fill="#b3b3b3"/>
    <path d="M12.923,10.9583H59.0769A1.9231,1.9231,0,0,1,61,12.8814V59.0352a1.9231,1.9231,0,0,1-1.9231,1.9231H12.9231A1.9231,1.9231,0,0,1,11,59.0352V12.8813A1.923,1.923,0,0,1,12.923,10.9583Z" fill="none" stroke="#00a5ff" stroke-miterlimit="10" stroke-width="0.1"/>
    <rect x="16" y="4" width="40" height="64" rx="2.2537" ry="2.2537" fill="none" stroke="#00a5ff" stroke-miterlimit="10" stroke-width="0.1"/>
    <rect x="16" y="4" width="40" height="64" rx="2.2537" ry="2.2537" transform="rotate(90 36 36)" fill="none" stroke="#00a5ff" stroke-miterlimit="10" stroke-width="0.1"/>
    <circle cx="36" cy="36" r="29" fill="none" stroke="#00a5ff" stroke-miterlimit="10" stroke-width="0.1"/>
  </g>
  <g id="color">
    <rect x="5" y="17" width="62" height="38" fill="#fcea2b"/>
    <rect x="5" y="17" width="21" height="38" fill="#1e50a0"/>
    <rect x="46" y="17" width="21" height="38" fill="#d22f27"/>
    <path d="M34.6566,30.5657,34.1579,32.27h-2.21A2.0412,2.0412,0,0,0,29,32.27v8.1052l2.9474-2.9473h2.21L31.8283,44h8.4848l-2.471-6.572H40.79L43,40.3753V32.27a2.0412,2.0412,0,0,0-2.9474,0h-2.21l-.3573-1.7044V29.1515a2.5259,2.5259,0,0,0-1.8481-2.6862,1.8866,1.8866,0,0,0-1.5806.2582l-1.5207,1.0139,2.1212,1.4141Z" fill="#a57939" stroke="#a57939" stroke-linecap="round" stroke-linejoin="round" stroke-width="2"/>
    <g>
      <rect x="32.2194" y="31.5" width="7.7641" height="4.529" fill="#d22f27"/>
      <path d="M32.2194,35.382h7.7641c.3235,4.5291-4.2056,6.47-4.2056,6.47S30.9254,38.6171,32.2194,35.382Z" fill="#1e50a0"/>
      <polygon points="35.454 35.25 36.748 35.25 36.101 37.2 35.454 35.25" fill="#fcea2b" stroke="#fcea2b" stroke-linecap="round" stroke-linejoin="round" stroke-width="2"/>
      <path d="M35.9936,41.8521s3.882-1.294,3.882-5.1761V31.5h-7.764v5.176C32.1116,40.5581,35.9936,41.8521,35.9936,41.8521Z" fill="none" stroke="#000" stroke-linecap="round" stroke-linejoin="round"/>
    </g>
  </g>
  <g id="line">
    <rect x="5" y="17" width="62" height="38" fill="none" stroke="#000" stroke-linecap="round" stroke-linejoin="round" stroke-width="2"/>
  </g>
</svg>
