<svg id="emoji" viewBox="0 0 72 72" xmlns="http://www.w3.org/2000/svg">
  <g id="grid">
    <path fill="#b3b3b3" d="M68,4V68H4V4H68m4-4H0V72H72V0Z"/>
    <path fill="none" stroke="#00a5ff" stroke-miterlimit="10" stroke-width="0.1" d="M12.923,10.9583H59.0769A1.9231,1.9231,0,0,1,61,12.8814V59.0352a1.9231,1.9231,0,0,1-1.9231,1.9231H12.9231A1.9231,1.9231,0,0,1,11,59.0352V12.8813A1.923,1.923,0,0,1,12.923,10.9583Z"/>
    <rect x="16" y="4" rx="2.2537" ry="2.2537" width="40" height="64" fill="none" stroke="#00a5ff" stroke-miterlimit="10" stroke-width="0.1"/>
    <rect x="16" y="4" rx="2.2537" ry="2.2537" width="40" height="64" transform="translate(72) rotate(90)" fill="none" stroke="#00a5ff" stroke-miterlimit="10" stroke-width="0.1"/>
    <circle cx="36" cy="36" r="29" fill="none" stroke="#00a5ff" stroke-miterlimit="10" stroke-width="0.1"/>
  </g>
  <g id="line-supplement">
    <path transform="scale(2.7, 2.7) translate(-5.3, -8) translate(15 23.57)" d="m0-4.212c-0.205-0.798-1.091-1.397-2.153-1.397-1.214 0-2.198 0.783-2.198 1.75 0 0.966 0.984 1.75 2.198 1.75l-0.045 6e-3c1.214 0 2.198 0.784 2.198 1.75 0 0.967-0.984 1.75-2.198 1.75-1.062 0-1.948-0.6-2.153-1.398" stroke-width="2px" stroke="#000" stroke-miterlimit="10" fill="none" stroke-linecap="round" stroke-linejoin="round"/>
    <path transform="scale(2.7, 2.7) translate(+5.3, -8) matrix(0 1 1 0 14.8 21.47)" d="m-3.5-3.5h7" stroke-width="2px" stroke="#000" stroke-miterlimit="10" fill="none" stroke-linecap="round" stroke-linejoin="round"/>
    <path transform="scale(2.7, 2.7) translate(+5.3, -8) matrix(.6612 -.7502 -.7502 -.6612 13.7 23.24)" d="m-1.025 2.27h6.05" stroke-width="2px" stroke="#000" stroke-miterlimit="10" fill="none" stroke-linecap="round" stroke-linejoin="round"/>
    <path transform="scale(2.7, 2.7) translate(+5.3, -8) matrix(.4584 .8888 .8888 -.4584 16 20.52)" d="m-1.416-2.323h5.228" stroke-width="2px" stroke="#000" stroke-miterlimit="10" fill="none" stroke-linecap="round" stroke-linejoin="round"/>
  </g>
  <g id="color">
    <rect x="5" y="17" width="62" height="38" fill="#d22f27"/>
    <rect x="5" y="17" width="62" height="13" fill="#d0cfce"/>
    <rect x="5" y="30" width="62" height="12" fill="#1e50a0"/>
    <path fill="#d22f27" stroke="#fff" stroke-linecap="round" stroke-linejoin="round" d="M23.8334,45s6.75-2.25,6.75-9V27h-13.5v9C17.0834,42.75,23.8334,45,23.8334,45Z"/>
    <line x1="23.8334" x2="23.8334" y1="29.5" y2="41.5" fill="none" stroke="#fff" stroke-linecap="round" stroke-linejoin="round" stroke-width="2"/>
    <line x1="21.8334" x2="25.8334" y1="31.5" y2="31.5" fill="none" stroke="#fff" stroke-linecap="round" stroke-linejoin="round" stroke-width="2"/>
    <line x1="20.3334" x2="27.3334" y1="34.5" y2="34.5" fill="none" stroke="#fff" stroke-linecap="round" stroke-linejoin="round" stroke-width="2"/>
    <circle cx="23.8334" cy="41.5" r="3.1667" fill="#1e50a0"/>
    <path fill="#1e50a0" d="M19.25,39.3333a2.1457,2.1457,0,0,0-1.3265.465,9.5792,9.5792,0,0,0,2.7022,3.3628A2.158,2.158,0,0,0,19.25,39.3333Z"/>
    <path fill="#1e50a0" d="M28.4167,39.3333a2.158,2.158,0,0,0-1.3757,3.8278,9.5792,9.5792,0,0,0,2.7022-3.3628A2.1455,2.1455,0,0,0,28.4167,39.3333Z"/>
    <path fill="none" stroke="#fff" stroke-linecap="round" stroke-linejoin="round" d="M23.8334,45s6.75-2.25,6.75-9V27h-13.5v9C17.0834,42.75,23.8334,45,23.8334,45Z"/>
  </g>
  <g id="line">
    <rect x="5" y="17" width="62" height="38" fill="none" stroke="#000" stroke-linecap="round" stroke-linejoin="round" stroke-width="2"/>
  </g>
</svg>
