<svg id="emoji" viewBox="0 0 72 72" xmlns="http://www.w3.org/2000/svg">
  <g id="grid">
    <path fill="#b3b3b3" d="M68,4V68H4V4H68m4-4H0V72H72V0Z"/>
    <path fill="none" stroke="#00a5ff" stroke-miterlimit="10" stroke-width="0.1" d="M12.923,10.9583H59.0769A1.9231,1.9231,0,0,1,61,12.8814V59.0352a1.9231,1.9231,0,0,1-1.9231,1.9231H12.9231A1.9231,1.9231,0,0,1,11,59.0352V12.8813A1.923,1.923,0,0,1,12.923,10.9583Z"/>
    <rect x="16" y="4" rx="2.2537" ry="2.2537" width="40" height="64" fill="none" stroke="#00a5ff" stroke-miterlimit="10" stroke-width="0.1"/>
    <rect x="16" y="4" rx="2.2537" ry="2.2537" width="40" height="64" transform="rotate(90 36 36)" fill="none" stroke="#00a5ff" stroke-miterlimit="10" stroke-width="0.1"/>
    <circle cx="36" cy="36" r="29" fill="none" stroke="#00a5ff" stroke-miterlimit="10" stroke-width="0.1"/>
  </g>
  <g id="color">
    <rect x="5" y="17" width="62" height="38" fill="#1e50a0"/>
    <rect x="5" y="27" width="62" height="9" fill="#fff"/>
    <rect x="5" y="36" width="62" height="9" fill="#d22f27"/>
    <rect x="5" y="17" width="62" height="10" fill="#f1b31c"/>
    <polygon fill="#5c9e31" points="37 36 5 55 5 17 37 36"/>
    <g>
      <circle cx="19" cy="31" r="1.0435" fill="#fff"/>
      <circle cx="19" cy="34.3333" r="1.0435" fill="#fff"/>
      <circle cx="19" cy="37.6667" r="1.0435" fill="#fff"/>
      <circle cx="19" cy="41" r="1.0435" fill="#fff"/>
    </g>
    <path fill="#fff" stroke="#fff" stroke-linecap="round" stroke-linejoin="round" d="M11.6929,36.125a7.4815,7.4815,0,0,1,5.9889-7.3567,7.3762,7.3762,0,0,0-1.4373-.1433,7.5,7.5,0,0,0,0,15,7.3839,7.3839,0,0,0,1.4373-.1432A7.4817,7.4817,0,0,1,11.6929,36.125Z"/>
  </g>
  <g id="line">
    <rect x="5" y="17" width="62" height="38" fill="none" stroke="#000" stroke-linecap="round" stroke-linejoin="round" stroke-width="2"/>
  </g>
</svg>
