<svg id="emoji" xmlns="http://www.w3.org/2000/svg" viewBox="0 0 72 72">
  <g id="grid">
    <path d="M68,4V68H4V4H68m4-4H0V72H72V0Z" fill="#b3b3b3"/>
    <path d="M12.923,10.9583H59.0769A1.9231,1.9231,0,0,1,61,12.8814V59.0352a1.9231,1.9231,0,0,1-1.9231,1.9231H12.9231A1.9231,1.9231,0,0,1,11,59.0352V12.8813A1.923,1.923,0,0,1,12.923,10.9583Z" fill="none" stroke="#00a5ff" stroke-miterlimit="10" stroke-width="0.1"/>
    <rect x="16" y="4" width="40" height="64" rx="2.2537" ry="2.2537" fill="none" stroke="#00a5ff" stroke-miterlimit="10" stroke-width="0.1"/>
    <rect x="16" y="4" width="40" height="64" rx="2.2537" ry="2.2537" transform="translate(72) rotate(90)" fill="none" stroke="#00a5ff" stroke-miterlimit="10" stroke-width="0.1"/>
    <circle cx="36" cy="36" r="29" fill="none" stroke="#00a5ff" stroke-miterlimit="10" stroke-width="0.1"/>
  </g>
  <defs>
    <clipPath id="clip-path">
      <rect x="8.1715" y="17.1829" width="14.9278" height="37.8171" fill="none"/>
    </clipPath>
  </defs>
  <g id="color">
    <rect x="5" y="17" width="62" height="38" fill="#186648"/>
    <rect x="8.1715" y="17.1829" width="14.9278" height="37.8171" fill="#d22f27"/>
    <g>
      <path d="M37.4927,21.8329a7.7649,7.7649,0,0,1-6.8143,13.66,7.77,7.77,0,1,0,6.8143-13.66Z" fill="#fff" stroke="#fff" stroke-linecap="round" stroke-linejoin="round" stroke-width="0.9952"/>
      <circle cx="32.7629" cy="23.0551" r="0.7385" fill="#fff"/>
      <circle cx="32.7629" cy="26.0091" r="0.7385" fill="#fff"/>
      <circle cx="29.8089" cy="26.0091" r="0.7385" fill="#fff"/>
      <circle cx="35.717" cy="26.0091" r="0.7385" fill="#fff"/>
      <circle cx="32.7629" cy="28.9631" r="0.7385" fill="#fff"/>
    </g>
    <g clip-path="url(#clip-path)">
      <g>
        <polygon points="15.641 28.234 8.171 21.216 15.641 14.197 23.11 21.216 15.641 28.234" fill="#781e32"/>
        <g>
          <polygon points="17.114 19.628 14.167 19.628 12.693 21.216 14.167 22.804 17.114 22.804 18.588 21.216 17.114 19.628" fill="#f1b31c"/>
          <ellipse cx="15.6406" cy="21.2159" rx="0.8361" ry="0.7856" fill="#f1b31c"/>
        </g>
        <polygon points="15.641 38.16 8.171 31.142 15.641 24.123 23.11 31.142 15.641 38.16" fill="#781e32"/>
        <g>
          <polygon points="17.114 29.554 14.167 29.554 12.693 31.142 14.167 32.73 17.114 32.73 18.588 31.142 17.114 29.554" fill="#f1b31c"/>
          <ellipse cx="15.6406" cy="31.1416" rx="0.8361" ry="0.7856" fill="#f1b31c"/>
        </g>
        <polygon points="15.641 48.086 8.171 41.067 15.641 34.049 23.11 41.067 15.641 48.086" fill="#781e32"/>
        <g>
          <polygon points="17.114 39.479 14.167 39.479 12.693 41.067 14.167 42.655 17.114 42.655 18.588 41.067 17.114 39.479" fill="#f1b31c"/>
          <ellipse cx="15.6406" cy="41.0674" rx="0.8361" ry="0.7856" fill="#f1b31c"/>
        </g>
        <polygon points="15.641 58.012 8.171 50.993 15.641 43.975 23.11 50.993 15.641 58.012" fill="#781e32"/>
        <g>
          <polygon points="17.114 49.405 14.167 49.405 12.693 50.993 14.167 52.581 17.114 52.581 18.588 50.993 17.114 49.405" fill="#f1b31c"/>
          <ellipse cx="15.6406" cy="50.9931" rx="0.8361" ry="0.7856" fill="#f1b31c"/>
        </g>
        <polygon points="15.641 67.937 8.171 60.919 15.641 53.9 23.11 60.919 15.641 67.937" fill="#781e32"/>
        <g>
          <polygon points="17.114 59.331 14.167 59.331 12.693 60.919 14.167 62.507 17.114 62.507 18.588 60.919 17.114 59.331" fill="#f1b31c"/>
          <ellipse cx="15.6406" cy="60.9189" rx="0.8361" ry="0.7856" fill="#f1b31c"/>
        </g>
      </g>
    </g>
  </g>
  <g id="line">
    <rect x="5" y="17" width="62" height="38" fill="none" stroke="#000" stroke-linecap="round" stroke-linejoin="round" stroke-width="2"/>
  </g>
</svg>
