<svg id="emoji" viewBox="0 0 72 72" xmlns="http://www.w3.org/2000/svg">
  <g id="grid">
    <path fill="#b3b3b3" d="M68,4V68H4V4H68m4-4H0V72H72V0Z"/>
    <path fill="none" stroke="#00a5ff" stroke-miterlimit="10" stroke-width="0.1" d="M12.923,10.9583H59.0769A1.9231,1.9231,0,0,1,61,12.8814V59.0352a1.9231,1.9231,0,0,1-1.9231,1.9231H12.9231A1.9231,1.9231,0,0,1,11,59.0352V12.8813A1.923,1.923,0,0,1,12.923,10.9583Z"/>
    <rect x="16" y="4" rx="2.2537" ry="2.2537" width="40" height="64" fill="none" stroke="#00a5ff" stroke-miterlimit="10" stroke-width="0.1"/>
    <rect x="16" y="4" rx="2.2537" ry="2.2537" width="40" height="64" transform="translate(72) rotate(90)" fill="none" stroke="#00a5ff" stroke-miterlimit="10" stroke-width="0.1"/>
    <circle cx="36" cy="36" r="29" fill="none" stroke="#00a5ff" stroke-miterlimit="10" stroke-width="0.1"/>
  </g>
  <g id="color">
    <rect x="5" y="17" width="62" height="38" fill="#fff"/>
    <rect x="5" y="17" width="62" height="5" fill="#d22f27"/>
    <rect x="5" y="26" width="62" height="4" fill="#d22f27"/>
    <rect x="5" y="34" width="62" height="4" fill="#d22f27"/>
    <rect x="5" y="42" width="62" height="4" fill="#d22f27"/>
    <rect x="5" y="50" width="62" height="5" fill="#d22f27"/>
    <rect x="5" y="17" width="29" height="21" fill="#1e50a0"/>
    <g>
      <path fill="#f1b31c" stroke="#f1b31c" stroke-linecap="round" stroke-linejoin="round" d="M13.8446,27.5A6.2149,6.2149,0,0,1,19.25,21.6146,7.4868,7.4868,0,0,0,17.9527,21.5c-3.7018,0-6.7027,2.6863-6.7027,6s3.0009,6,6.7027,6a7.4868,7.4868,0,0,0,1.2973-.1146A6.2149,6.2149,0,0,1,13.8446,27.5Z"/>
      <polygon fill="#f1b31c" stroke="#f1b31c" stroke-linecap="round" stroke-linejoin="round" points="24.612 25.969 26.709 22.551 25.258 26.274 28.667 24.082 25.703 26.822 29.75 26.29 25.861 27.504 29.744 28.737 25.7 28.185 28.649 30.94 25.251 28.731 26.684 32.461 24.605 29.033 24.236 33 23.888 29.031 21.791 32.449 23.242 28.726 19.833 30.918 22.797 28.178 18.75 28.71 22.639 27.496 18.756 26.263 22.8 26.815 19.851 24.06 23.249 26.269 21.816 22.539 23.895 25.967 24.264 22 24.612 25.969"/>
    </g>
  </g>
  <g id="line">
    <rect x="5" y="17" width="62" height="38" fill="none" stroke="#000" stroke-linecap="round" stroke-linejoin="round" stroke-width="2"/>
  </g>
</svg>
