<svg id="emoji" viewBox="0 0 72 72" xmlns="http://www.w3.org/2000/svg">
  <g id="grid">
    <path fill="#b3b3b3" d="M68,4V68H4V4H68m4-4H0V72H72V0Z"/>
    <path fill="none" stroke="#00a5ff" stroke-miterlimit="10" stroke-width="0.1" d="M12.923,10.9583H59.0769A1.9231,1.9231,0,0,1,61,12.8814V59.0352a1.9231,1.9231,0,0,1-1.9231,1.9231H12.9231A1.9231,1.9231,0,0,1,11,59.0352V12.8813A1.923,1.923,0,0,1,12.923,10.9583Z"/>
    <rect x="16" y="4" rx="2.2537" ry="2.2537" width="40" height="64" fill="none" stroke="#00a5ff" stroke-miterlimit="10" stroke-width="0.1"/>
    <rect x="16" y="4" rx="2.2537" ry="2.2537" width="40" height="64" transform="translate(72) rotate(90)" fill="none" stroke="#00a5ff" stroke-miterlimit="10" stroke-width="0.1"/>
    <circle cx="36" cy="36" r="29" fill="none" stroke="#00a5ff" stroke-miterlimit="10" stroke-width="0.1"/>
  </g>
  <g id="color">
    <rect x="5" y="17" width="62" height="38" fill="#fff"/>
    <rect x="5" y="17" width="62" height="9" fill="#d22f27"/>
    <rect x="5" y="46" width="62" height="9" fill="#d22f27"/>
    <path fill="#92d3f5" stroke="#92d3f5" stroke-linejoin="round" stroke-width="0.9333" d="M42,36a7,7,0,0,1-14,0"/>
    <path fill="#f4aa41" stroke="#f4aa41" stroke-linejoin="round" stroke-width="0.9333" d="M28,36a7,7,0,0,1,14,0"/>
    <path fill="#d22f27" stroke="#d22f27" stroke-linejoin="round" d="M36.5417,31s-3.1667,0-3.1667,2.1111v3.1667l3.1667,1.5833V33.6389S34.4306,33.1111,36.5417,31Z"/>
    <path fill="none" stroke="#d22f27" stroke-linecap="round" stroke-linejoin="round" d="M33,39.5794s-1.0445.6963-1.7408,0l.05-4.8191"/>
    <path fill="none" stroke="#d22f27" stroke-linecap="round" stroke-linejoin="round" d="M37.2592,39.5794s1.0445.6963,1.7408,0L38.95,34.76"/>
  </g>
  <g id="line">
    <rect x="5" y="17" width="62" height="38" fill="none" stroke="#000" stroke-linecap="round" stroke-linejoin="round" stroke-width="2"/>
  </g>
</svg>
