<svg id="emoji" viewBox="0 0 72 72" xmlns="http://www.w3.org/2000/svg">
  <g id="grid">
    <path fill="#b3b3b3" d="M68,4V68H4V4H68m4-4H0V72H72V0Z"/>
    <path fill="none" stroke="#00a5ff" stroke-miterlimit="10" stroke-width="0.1" d="M12.923,10.9583H59.0769A1.9231,1.9231,0,0,1,61,12.8814V59.0352a1.9231,1.9231,0,0,1-1.9231,1.9231H12.9231A1.9231,1.9231,0,0,1,11,59.0352V12.8813A1.923,1.923,0,0,1,12.923,10.9583Z"/>
    <rect x="16" y="4" rx="2.2537" ry="2.2537" width="40" height="64" fill="none" stroke="#00a5ff" stroke-miterlimit="10" stroke-width="0.1"/>
    <rect x="16" y="4" rx="2.2537" ry="2.2537" width="40" height="64" transform="translate(72) rotate(90)" fill="none" stroke="#00a5ff" stroke-miterlimit="10" stroke-width="0.1"/>
    <circle cx="36" cy="36" r="29" fill="none" stroke="#00a5ff" stroke-miterlimit="10" stroke-width="0.1"/>
  </g>
  <g id="line-supplement">
    <path transform="scale(2.7, 2.7) translate(-5.3, -8) matrix(0 -1 -1 0 17 18.47)" d="m-6.5 0.5h7l-6 3 6 3h-7" stroke-width="2px" stroke="#000" stroke-miterlimit="10" fill="none" stroke-linecap="round" stroke-linejoin="round"/>
    <path transform="scale(2.7, 2.7) translate(+5.3, -8) matrix(0 1 1 0 14.8 21.47)" d="m-3.5-3.5h7" stroke-width="2px" stroke="#000" stroke-miterlimit="10" fill="none" stroke-linecap="round" stroke-linejoin="round"/>
    <path transform="scale(2.7, 2.7) translate(+5.3, -8) matrix(.6612 -.7502 -.7502 -.6612 13.7 23.24)" d="m-1.025 2.27h6.05" stroke-width="2px" stroke="#000" stroke-miterlimit="10" fill="none" stroke-linecap="round" stroke-linejoin="round"/>
    <path transform="scale(2.7, 2.7) translate(+5.3, -8) matrix(.4584 .8888 .8888 -.4584 16 20.52)" d="m-1.416-2.323h5.228" stroke-width="2px" stroke="#000" stroke-miterlimit="10" fill="none" stroke-linecap="round" stroke-linejoin="round"/>
  </g>
  <g id="color">
    <rect x="5" y="17" width="62" height="38" fill="#d22f27"/>
    <polygon fill="#f1b31c" points="15 17 5 17 36 36 36 34 15 17"/>
    <polygon fill="#f1b31c" points="15 55 5 55 36 36 36 38 15 55"/>
    <polygon fill="#f1b31c" points="57 17 67 17 36 36 36 34 57 17"/>
    <polygon fill="#f1b31c" points="57 55 67 55 36 36 36 38 57 55"/>
    <polygon fill="#f1b31c" points="33 55 39 55 37 36 35 36 33 55"/>
    <polygon fill="#f1b31c" points="67 39 67 33 36 35 36 37 67 39"/>
    <polygon fill="#f1b31c" points="5 39 5 33 36 35 36 37 5 39"/>
    <polygon fill="#f1b31c" points="33 17 39 17 37 36 35 36 33 17"/>
    <circle cx="36" cy="36" r="7" fill="#f1b31c" stroke="#d22f27" stroke-miterlimit="10"/>
  </g>
  <g id="line">
    <rect x="5" y="17" width="62" height="38" fill="none" stroke="#000" stroke-linecap="round" stroke-linejoin="round" stroke-width="2"/>
  </g>
</svg>
