<svg version="1.1" id="emoji" xmlns="http://www.w3.org/2000/svg" x="0" y="0" viewBox="0 0 72 72" enable-background="new 0 0 72 72" xml:space="preserve">
  <g id="grid">
    <path fill="#B3B3B3" d="M68,4v64H4V4H68 M72,0H0v72h72V0z"/>
    <path fill="none" stroke="#00A5FF" stroke-width="0.1" stroke-miterlimit="10" d="M12.923,10.9583h46.1539 c1.0621,0,1.9231,0.861,1.9231,1.9231l0,0v46.1538c0,1.0621-0.861,1.9231-1.9231,1.9231H12.9231 c-1.0621,0-1.9231-0.861-1.9231-1.9231l0,0V12.8813C11,11.8193,11.861,10.9583,12.923,10.9583L12.923,10.9583z"/>
    <path fill="none" stroke="#00A5FF" stroke-width="0.1" stroke-miterlimit="10" d="M18.2537,4h35.4926C54.991,4,56,5.009,56,6.2537 v59.4926C56,66.991,54.991,68,53.7463,68H18.2537C17.009,68,16,66.991,16,65.7463V6.2537C16,5.009,17.009,4,18.2537,4z"/>
    <path fill="none" stroke="#00A5FF" stroke-width="0.1" stroke-miterlimit="10" d="M68,18.2537v35.4926 C68,54.991,66.991,56,65.7463,56H6.2537C5.009,56,4,54.991,4,53.7463V18.2537C4,17.009,5.009,16,6.2537,16h59.4926 C66.991,16,68,17.009,68,18.2537z"/>
    <circle fill="none" stroke="#00A5FF" stroke-width="0.1" stroke-miterlimit="10" cx="36" cy="36" r="29"/>
  </g>
  <g id="color">
    <circle fill="#FCEA2B" cx="36.5" cy="36.5815" r="23"/>
  </g>
  <g id="hair"/>
  <g id="skin"/>
  <g id="skin-shadow"/>
  <g id="line">
    <circle fill="none" stroke="#000000" stroke-width="2" stroke-linecap="round" stroke-linejoin="round" stroke-miterlimit="10" cx="36.5" cy="36.5815" r="23"/>
    <path fill="none" stroke="#000000" stroke-width="2" stroke-linecap="round" stroke-linejoin="round" stroke-miterlimit="10" d="M46.3147,45.387c-5.8513,4.7083-14.1004,4.6878-19.6295,0"/>
    <path d="M41.006,29.9c0.3672,0,0.7207,0.2032,0.8965,0.5528c0.0098,0.0195,1.2129,2.3222,3.418,2.3222 c2.2305,0,3.4062-2.2988,3.418-2.3222c0.2461-0.4942,0.8457-0.6934,1.3418-0.4473c0.4941,0.2481,0.6933,0.8477,0.4472,1.3418 c-0.0703,0.1406-1.7539,3.4277-5.207,3.4277s-5.1367-3.2871-5.207-3.4277c-0.2481-0.4941-0.0469-1.0937,0.4472-1.3418 C40.7033,29.9352,40.8576,29.9,41.006,29.9z"/>
    <path d="M23.756,29.9c0.3672,0,0.7207,0.2032,0.8965,0.5528c0.0098,0.0195,1.2129,2.3222,3.418,2.3222 c2.2305,0,3.4062-2.2988,3.418-2.3222c0.2461-0.4942,0.8457-0.6934,1.3418-0.4473c0.4941,0.2481,0.6933,0.8477,0.4472,1.3418 c-0.0703,0.1406-1.7539,3.4277-5.207,3.4277s-5.1367-3.2871-5.207-3.4277c-0.2481-0.4941-0.0469-1.0937,0.4472-1.3418 C23.4533,29.9352,23.6076,29.9,23.756,29.9z"/>
    <path fill="none" stroke="#000000" stroke-width="2" stroke-linecap="round" stroke-linejoin="round" stroke-miterlimit="10" d="M22.3487,27.7263c0.846-1.6267,2.2631-2.8809,3.9804-3.5217c1.6496-0.822,3.5458-0.9962,5.3181-0.4941"/>
    <path fill="none" stroke="#000000" stroke-width="2" stroke-linecap="round" stroke-linejoin="round" stroke-miterlimit="10" d="M52.2827,27.7263c-1.8571-3.2546-5.6391-4.8951-9.2847-4.0272"/>
  </g>
</svg>
