<svg id="emoji" xmlns="http://www.w3.org/2000/svg" viewBox="0 0 72 72">
  <g id="grid">
    <path fill="#B3B3B3" d="M68,4v64H4V4H68 M72,0H0v72h72V0z"/>
    <path fill="none" stroke="#00A5FF" stroke-width="0.1" stroke-miterlimit="10" d="M12.923,10.9583h46.1539 c1.0621,0,1.9231,0.861,1.9231,1.9231v0v46.1538c0,1.0621-0.861,1.9231-1.9231,1.9231H12.9231 c-1.0621,0-1.9231-0.861-1.9231-1.9231l0,0V12.8813C11,11.8193,11.861,10.9583,12.923,10.9583L12.923,10.9583z"/>
    <path fill="none" stroke="#00A5FF" stroke-width="0.1" stroke-miterlimit="10" d="M18.2537,4h35.4926C54.991,4,56,5.009,56,6.2537 v59.4926C56,66.991,54.991,68,53.7463,68H18.2537C17.009,68,16,66.991,16,65.7463V6.2537C16,5.009,17.009,4,18.2537,4z"/>
    <path fill="none" stroke="#00A5FF" stroke-width="0.1" stroke-miterlimit="10" d="M68,18.2537v35.4926 C68,54.991,66.991,56,65.7463,56H6.2537C5.009,56,4,54.991,4,53.7463V18.2537C4,17.009,5.009,16,6.2537,16h59.4926 C66.991,16,68,17.009,68,18.2537z"/>
    <circle fill="none" stroke="#00A5FF" stroke-width="0.1" stroke-miterlimit="10" cx="36" cy="36" r="29"/>
  </g>
  <g id="color">
    <circle fill="#FCEA2B" cx="36" cy="36" r="24"/>
    <path fill="#92D3F5" d="M53.0243,55.0045c-1.3489-0.0915-2.5814-0.7028-3.4702-1.7214c-2.9266-3.3525-2.5576-9.3267-2.5405-9.5792 c0.0356-0.5252,0.4899-0.9214,1.0148-0.8858c0.2529,0.0172,6.2222,0.4585,9.1501,3.811h0.0005 c1.833,2.1017,1.6153,5.3044-0.486,7.1383C55.6765,54.6568,54.3732,55.096,53.0243,55.0045z"/>
  </g>
  <g id="hair"/>
  <g id="skin"/>
  <g id="skin-shadow"/>
  <g id="line">
    <path fill="none" stroke="#000000" stroke-width="2" stroke-linecap="round" stroke-linejoin="round" stroke-miterlimit="10" d="M46.8344,56.2934C43.606,58.0206,39.9174,59,36,59c-12.7025,0-23-10.2975-23-23s10.2975-23,23-23s23,10.2975,23,23 c0,2.0737-0.2744,4.0832-0.7889,5.9944"/>
    <path fill="none" stroke="#000000" stroke-width="2" stroke-linecap="round" stroke-linejoin="round" stroke-miterlimit="10" d="M40.5,32.7253c0.4132-0.344,2.2456-1.7915,4.9091-1.6364c2.1608,0.1259,3.61,1.2333,4.0909,1.6364"/>
    <path fill="none" stroke="#000000" stroke-width="2" stroke-linecap="round" stroke-linejoin="round" stroke-miterlimit="10" d="M22.5,32.7253c0.4132-0.344,2.2456-1.7915,4.9091-1.6364c2.1608,0.1259,3.61,1.2333,4.0909,1.6364"/>
    <path fill="none" stroke="#000000" stroke-width="2" stroke-miterlimit="10" d="M53.0243,55.0045 c-1.3489-0.0915-2.5814-0.7028-3.4702-1.7214c-2.9266-3.3525-2.5576-9.3267-2.5405-9.5792 c0.0356-0.5252,0.4899-0.9214,1.0148-0.8858c0.2529,0.0172,6.2222,0.4585,9.1501,3.811h0.0005 c1.833,2.1017,1.6153,5.3044-0.486,7.1383C55.6765,54.6568,54.3732,55.096,53.0243,55.0045z"/>
    <path fill="none" stroke="#000000" stroke-width="2" stroke-linecap="round" stroke-linejoin="round" stroke-miterlimit="10" d="M29.5,45.5c1.2841-0.6376,3.9847-1.0308,6.8421-0.9981c2.6235,0.03,4.9897,0.4146,6.1579,0.9981"/>
  </g>
</svg>
