<svg id="emoji" x="0" y="0" viewBox="0 0 72 72" version="1.1" xmlns="http://www.w3.org/2000/svg">
  <g id="grid">
    <path fill="#B3B3B3" d="M68,4v64H4V4H68 M72,0H0v72h72V0z"/>
    <path fill="none" stroke="#00A5FF" stroke-miterlimit="10" stroke-width="0.1" d="M12.923,10.9583h46.1539 c1.0621,0,1.9231,0.861,1.9231,1.9231v0v46.1538c0,1.0621-0.861,1.9231-1.9231,1.9231H12.9231 c-1.0621,0-1.9231-0.861-1.9231-1.9231l0,0V12.8813C11,11.8193,11.861,10.9583,12.923,10.9583L12.923,10.9583z"/>
    <path fill="none" stroke="#00A5FF" stroke-miterlimit="10" stroke-width="0.1" d="M18.2537,4h35.4926C54.991,4,56,5.009,56,6.2537 v59.4926C56,66.991,54.991,68,53.7463,68H18.2537C17.009,68,16,66.991,16,65.7463V6.2537C16,5.009,17.009,4,18.2537,4z"/>
    <path fill="none" stroke="#00A5FF" stroke-miterlimit="10" stroke-width="0.1" d="M68,18.2537v35.4926 C68,54.991,66.991,56,65.7463,56H6.2537C5.009,56,4,54.991,4,53.7463V18.2537C4,17.009,5.009,16,6.2537,16h59.4926 C66.991,16,68,17.009,68,18.2537z"/>
    <circle cx="36" cy="36" r="29" fill="none" stroke="#00A5FF" stroke-miterlimit="10" stroke-width="0.1"/>
  </g>
  <g id="color">
    <ellipse cx="17.1788" cy="41.0647" rx="8.6999" ry="11.3478" fill="#FCEA2B"/>
    <path fill="#A57939" d="M64.2455,54.5368c-0.2958,0.2958,2.2234-5.8365,0.1558-9.4254c-0.332-0.6454-0.6245-1.3103-0.876-1.9912 c-1.1136-2.4738-1.5304-3.399-1.7763-7.9616c0.0205-2.794-2.1142-5.1324-4.8984-5.366c-0.2011-0.0137-0.3885-0.1071-0.5205-0.2595 c-0.0703-0.0757-1.8224-2.0086-5.4802-2.0086c-4.6904,0-8.6553,2.5585-9.6403,6.2231c-0.4039,1.5223-0.5482,3.1019-0.4267,4.6722 c0.1541,1.5274-0.0429,3.0699-0.5757,4.5096c-0.1877,0.572-0.4742,1.1066-0.8465,1.5796 c-2.8543,3.3431-1.0985,10.132-1.2445,9.9104"/>
    <path fill="#FCEA2B" d="M43.2787,41.9173c0,6.0521,3.7826,10.5912,8.3217,10.5912s8.3217-4.5391,8.3217-10.5912 c0-3.7826-1.513-6.0521-4.5391-9.0782c-3.0261,3.0261-12.1043,6.8087-12.1043,8.3217V41.9173z"/>
    <path fill="#A57939" d="M6.2093,35.7691c0.6446-8.7616,7.2633-8.8549,10.5912-8.3217c0.3231,0.0518,1.2284,0.0356,1.513,0 c6.0521-0.7565,9.0782,6.0521,9.0782,9.0782c0,1.0705,0,3.7826-1.513,5.2956c0,0-3.4648-4.1939-3.6237-6.6361 c0,0-11.5066,4.3665-12.2632,0.5839c0,0-0.7565,3.0261-1.513,3.7826c0,0,0,2.2696,0,3.0261 C8.4789,42.5778,5.9318,39.5415,6.2093,35.7691z"/>
    <path fill="#EA5A47" d="m38.64 18.06c-3.217 0.2636-4.425 1.835-4.864 2.754-0.0899 0.1856-0.3133 0.2632-0.4989 0.1733-0.0756-0.0366-0.1367-0.0977-0.1733-0.1733-1.03-2.141-3.601-3.04-5.742-2.01s-3.04 3.601-2.01 5.742c0.0605 0.1257 0.1271 0.2484 0.1996 0.3677l0.2465 0.3637 7.643 10.41c2.423-2.945 6.573-7.325 8.528-11.47 0.7807-1.654 0.0015-4.569-3.33-6.163z"/>
  </g>
  <g id="hair"/>
  <g id="skin"/>
  <g id="skin-shadow"/>
  <g id="line">
    <path fill="none" stroke="#000000" stroke-miterlimit="10" stroke-width="2" d="M25.8523,40.1741 c0.0175,0.2939,0.0264,0.5909,0.0264,0.8906c0,6.2672-3.8951,11.3478-8.6999,11.3478s-8.6999-5.0806-8.6999-11.3478 c0-0.2217,0.0049-0.4419,0.0145-0.6604"/>
    <path fill="none" stroke="#000000" stroke-linecap="round" stroke-linejoin="round" stroke-width="2" d="M38.7396,54.0216 c-3.0261-4.5391-0.6324-7.7793,0.7565-11.3478c1.2369-3.1774-0.1581-4.8803,0.9767-9.1039 c1.1189-4.1608,5.5052-6.7829,10.3711-6.7829c4.0852,0,6.0521,2.2696,6.0521,2.2696c3.1538,0.283,5.5777,2.9137,5.602,6.0801 c0.2928,5.4318,0.7747,5.4106,2.5941,9.7001c1.3287,3.0755,0.7903,6.6391-1.3875,9.1849"/>
    <path fill="none" stroke="#000000" stroke-miterlimit="10" stroke-width="2" d="M43.2787,41.9173 c0,6.0521,3.7826,10.5912,8.3217,10.5912s8.3217-4.5391,8.3217-10.5912c0-3.7826-1.513-6.0521-4.5391-9.0782 c-3.0261,3.0261-12.1043,6.8087-12.1043,8.3217V41.9173z"/>
    <path fill="none" stroke="#000000" stroke-linecap="round" stroke-linejoin="round" stroke-width="2" d="M16.9073,47.4287 c0.6425,0.6853,1.4135,0.6853,2.0561,0"/>
    <path fill="none" stroke="#000000" stroke-linecap="round" stroke-linejoin="round" stroke-width="2" d="M49.3308,47.4021 c0.6425,0.7565,1.4135,0.7565,2.0559,0"/>
    <path fill="none" stroke="#000000" stroke-linecap="round" stroke-miterlimit="10" stroke-width="2" d="M54.0104,41.0647 c0,0,1.513,1.513,3.0261,0"/>
    <path fill="none" stroke="#000000" stroke-linecap="round" stroke-miterlimit="10" stroke-width="2" d="M46.4452,41.8212 c0,0,1.513,1.513,3.0261,0"/>
    <path fill="none" stroke="#000000" stroke-linecap="round" stroke-miterlimit="10" stroke-width="2" d="M19.2106,41.8212 c0,0,1.513,1.513,3.0261,0"/>
    <path fill="none" stroke="#000000" stroke-linecap="round" stroke-miterlimit="10" stroke-width="2" d="M11.6454,41.0647 c0,0,1.513,1.513,3.0261,0"/>
    <path fill="none" stroke="#000000" stroke-linecap="round" stroke-linejoin="round" stroke-width="2" d="M6.2093,35.7691 c0.6446-8.7616,7.2633-8.8549,10.5912-8.3217c0.3231,0.0518,1.2284,0.0356,1.513,0c6.0521-0.7565,9.0782,6.0521,9.0782,9.0782 c0,1.0705,0,3.7826-1.513,5.2956c0,0-3.4648-4.1939-3.6237-6.6361c0,0-11.5066,4.3665-12.2632,0.5839 c0,0-0.7565,3.0261-1.513,3.7826c0,0,0,2.2696,0,3.0261C8.4789,42.5778,5.9318,39.5415,6.2093,35.7691z"/>
    <path fill="none" stroke="#000000" stroke-linecap="round" stroke-linejoin="round" stroke-width="2" d="M33.4418,35.6846 l-7.9509-10.1954l-0.2562-0.3787c-1.3447-2.2041-0.6481-5.0809,1.5559-6.4257c2.2041-1.3448,5.0809-0.6481,6.4257,1.5559 c0.0821,0.1346,0.1574,0.2733,0.2255,0.4155c1.1211-2.3258,3.9153-3.3025,6.2411-2.1814s3.3025,3.9153,2.1814,6.2411 c-0.1243,0.2579-0.272,0.5039-0.4414,0.7347L33.4418,35.6846z"/>
    <path fill="none" stroke="#000000" stroke-linecap="round" stroke-linejoin="round" stroke-width="2" d="M57.6525,29.1741"/>
  </g>
</svg>
