<svg id="emoji" xmlns="http://www.w3.org/2000/svg" viewBox="0 0 72 72">
  <g id="grid">
    <path d="M68,4V68H4V4H68m4-4H0V72H72V0Z" fill="#b3b3b3"/>
    <path d="M12.923,10.9583H59.0769A1.9231,1.9231,0,0,1,61,12.8814V59.0352a1.9231,1.9231,0,0,1-1.9231,1.9231H12.9231A1.9231,1.9231,0,0,1,11,59.0352V12.8813A1.923,1.923,0,0,1,12.923,10.9583Z" fill="none" stroke="#00a5ff" stroke-miterlimit="10" stroke-width="0.1"/>
    <rect x="16" y="4" width="40" height="64" rx="2.2537" fill="none" stroke="#00a5ff" stroke-miterlimit="10" stroke-width="0.1"/>
    <rect x="16" y="4" width="40" height="64" rx="2.2537" transform="rotate(90 36 36)" fill="none" stroke="#00a5ff" stroke-miterlimit="10" stroke-width="0.1"/>
    <circle cx="36" cy="36" r="29" fill="none" stroke="#00a5ff" stroke-miterlimit="10" stroke-width="0.1"/>
  </g>
  <g id="color">
    <circle cx="36" cy="36" r="28" fill="#d0cfce"/>
    <path d="M56.9944,35.361c.1706-4.1391-3.6059-7.6409-8.4351-7.8214a10.0471,10.0471,0,0,0-2.1748.1782,6.3414,6.3414,0,0,0,.11-.69c.1706-4.1391-3.6059-7.6409-8.4351-7.8215s-8.8824,3.0286-9.053,7.1676a7.413,7.413,0,0,0,4.5029,6.8219,15.84,15.84,0,0,0-2.5482,8.1892c-.2842,6.8948,3.4,12.63,8.2294,12.811,4.7186.1764,8.774-5.02,9.2229-11.69C53.0282,42.4641,56.83,39.3621,56.9944,35.361Z" fill="#f4aa41" stroke="#f4aa41" stroke-miterlimit="10" stroke-width="2"/>
    <path d="M41.6,43.3294a3.0615,3.0615,0,0,0-3.15-2.9647,3.2754,3.2754,0,0,0-1.3822.3127A2.7944,2.7944,0,0,0,37.4,39.3765,2.85,2.85,0,0,0,36.5825,37.4,2.85,2.85,0,0,0,37.4,35.4235a2.799,2.799,0,0,0-.23-1.1023A2.9941,2.9941,0,0,0,39.5,31.4706a3.0615,3.0615,0,0,0-3.15-2.9647,3.2754,3.2754,0,0,0-1.3822.3127,2.7948,2.7948,0,0,0,.3322-1.301,3.0616,3.0616,0,0,0-3.15-2.9647,3.2754,3.2754,0,0,0-1.3822.3127A2.7944,2.7944,0,0,0,31.1,23.5647a3.1558,3.1558,0,0,0-6.3,0,2.7944,2.7944,0,0,0,.3322,1.3009,3.2754,3.2754,0,0,0-1.3822-.3127,3.1149,3.1149,0,0,0-3.0287,2.1934,3.3064,3.3064,0,0,0-1.1713-.2169,3.0615,3.0615,0,0,0-3.15,2.9647,2.994,2.994,0,0,0,2.3305,2.8506,2.8,2.8,0,0,0-.23,1.1024,2.85,2.85,0,0,0,.8175,1.9764,2.7981,2.7981,0,0,0,0,3.953A2.85,2.85,0,0,0,18.5,41.3529a2.9939,2.9939,0,0,0,2.3305,2.8506,2.8,2.8,0,0,0-.23,1.1024,2.85,2.85,0,0,0,.8175,1.9765A2.85,2.85,0,0,0,20.6,49.2588a3.0615,3.0615,0,0,0,3.15,2.9647,3.2367,3.2367,0,0,0,2.1-.7694,3.2367,3.2367,0,0,0,2.1.7694,3.3042,3.3042,0,0,0,1.1713-.2169A3.1149,3.1149,0,0,0,32.15,54.2a3.0615,3.0615,0,0,0,3.15-2.9647,2.7944,2.7944,0,0,0-.3322-1.3009,3.2754,3.2754,0,0,0,1.3822.3127,3.0616,3.0616,0,0,0,3.15-2.9647,2.8,2.8,0,0,0-.23-1.1024A2.9941,2.9941,0,0,0,41.6,43.3294Z" fill="#fff"/>
    <rect x="38.8" y="23.4" width="4.2" height="2.8" rx="1" fill="#fcea2b"/>
    <rect x="44.4" y="33.2" width="4.2" height="2.8" rx="1" transform="rotate(27.642 46.5 34.6)" fill="#fcea2b"/>
    <rect x="41.6" y="45.8" width="4.2" height="2.8" rx="1" transform="rotate(-23.451 43.7 47.2)" fill="#fcea2b"/>
    <rect x="50" y="34.6" width="4.2" height="2.8" rx="1" fill="#fcea2b"/>
  </g>
  <g id="line">
    <circle cx="36" cy="36" r="28" fill="none" stroke="#000" stroke-miterlimit="10" stroke-width="2"/>
    <path d="M41.6,43.3294a3.0615,3.0615,0,0,0-3.15-2.9647,3.2754,3.2754,0,0,0-1.3822.3127A2.7944,2.7944,0,0,0,37.4,39.3765,2.85,2.85,0,0,0,36.5825,37.4,2.85,2.85,0,0,0,37.4,35.4235a2.799,2.799,0,0,0-.23-1.1023A2.9941,2.9941,0,0,0,39.5,31.4706a3.0615,3.0615,0,0,0-3.15-2.9647,3.2754,3.2754,0,0,0-1.3822.3127,2.7948,2.7948,0,0,0,.3322-1.301,3.0616,3.0616,0,0,0-3.15-2.9647,3.2754,3.2754,0,0,0-1.3822.3127A2.7944,2.7944,0,0,0,31.1,23.5647a3.1558,3.1558,0,0,0-6.3,0,2.7944,2.7944,0,0,0,.3322,1.3009,3.2754,3.2754,0,0,0-1.3822-.3127,3.1149,3.1149,0,0,0-3.0287,2.1934,3.3064,3.3064,0,0,0-1.1713-.2169,3.0615,3.0615,0,0,0-3.15,2.9647,2.994,2.994,0,0,0,2.3305,2.8506,2.8,2.8,0,0,0-.23,1.1024,2.85,2.85,0,0,0,.8175,1.9764,2.7981,2.7981,0,0,0,0,3.953A2.85,2.85,0,0,0,18.5,41.3529a2.9939,2.9939,0,0,0,2.3305,2.8506,2.8,2.8,0,0,0-.23,1.1024,2.85,2.85,0,0,0,.8175,1.9765A2.85,2.85,0,0,0,20.6,49.2588a3.0615,3.0615,0,0,0,3.15,2.9647,3.2367,3.2367,0,0,0,2.1-.7694,3.2367,3.2367,0,0,0,2.1.7694,3.3042,3.3042,0,0,0,1.1713-.2169A3.1149,3.1149,0,0,0,32.15,54.2a3.0615,3.0615,0,0,0,3.15-2.9647,2.7944,2.7944,0,0,0-.3322-1.3009,3.2754,3.2754,0,0,0,1.3822.3127,3.0616,3.0616,0,0,0,3.15-2.9647,2.8,2.8,0,0,0-.23-1.1024A2.9941,2.9941,0,0,0,41.6,43.3294Z" fill="none" stroke="#000" stroke-linecap="round" stroke-linejoin="round" stroke-width="2"/>
    <path d="M39.1906,54.1956c4.7186.1764,8.774-5.02,9.2229-11.69,4.6147-.0414,8.416-3.1434,8.5809-7.1445.1706-4.1391-3.6059-7.6409-8.4351-7.8214a10.0471,10.0471,0,0,0-2.1748.1782,6.3414,6.3414,0,0,0,.11-.69c.1706-4.1391-3.6059-7.6409-8.4351-7.8215a10.0118,10.0118,0,0,0-3.4279.4618" fill="none" stroke="#000" stroke-linecap="round" stroke-linejoin="round" stroke-width="2"/>
  </g>
</svg>
