<svg id="emoji" xmlns="http://www.w3.org/2000/svg" viewBox="0 0 72 72">
  <g id="grid">
    <path d="M68,4V68H4V4H68m4-4H0V72H72V0Z" fill="#b3b3b3"/>
    <path d="M12.9231,10.9583H59.077A1.923,1.923,0,0,1,61,12.8813V59.0352a1.9231,1.9231,0,0,1-1.9231,1.9231H12.9231A1.9231,1.9231,0,0,1,11,59.0352V12.8814A1.9231,1.9231,0,0,1,12.9231,10.9583Z" fill="none" stroke="#00a5ff" stroke-miterlimit="10" stroke-width="0.1"/>
    <rect x="16" y="4" width="40" height="64" rx="2.2537" ry="2.2537" fill="none" stroke="#00a5ff" stroke-miterlimit="10" stroke-width="0.1"/>
    <rect x="16" y="4" width="40" height="64" rx="2.2537" ry="2.2537" transform="translate(72) rotate(90)" fill="none" stroke="#00a5ff" stroke-miterlimit="10" stroke-width="0.1"/>
    <circle cx="36" cy="36" r="29" fill="none" stroke="#00a5ff" stroke-miterlimit="10" stroke-width="0.1"/>
  </g>
  <g id="color">
    <path d="M62.92,35.0029A1.8786,1.8786,0,0,0,61.0458,33H11.0529a1.9727,1.9727,0,0,0-1.97,2.1313c.857,9.7287,7.53,17.9843,16.7945,21.7238v5.4866A1.72,1.72,0,0,0,27.6446,64H44.3554a1.72,1.72,0,0,0,1.767-1.6583V57.4993C55.8344,54.121,62.1937,45.39,62.92,35.0029Z" fill="#d22f27"/>
  </g>
  <g id="line">
    <line x1="61.4336" y1="21" x2="17.4336" y2="21" fill="none" stroke="#000000" stroke-linecap="round" stroke-linejoin="round" stroke-width="2"/>
    <line x1="61.4336" y1="13" x2="17.4336" y2="13" fill="none" stroke="#000000" stroke-linecap="round" stroke-linejoin="round" stroke-width="2"/>
    <line x1="34.2773" y1="10.8125" x2="34.4336" y2="33" fill="none" stroke="#000000" stroke-linecap="round" stroke-linejoin="round" stroke-width="1.8409"/>
    <line x1="28.2773" y1="10.8125" x2="28.4336" y2="33" fill="none" stroke="#000000" stroke-linecap="round" stroke-linejoin="round" stroke-width="1.8409"/>
    <line x1="21.2773" y1="10.8125" x2="21.4336" y2="33" fill="none" stroke="#000000" stroke-linecap="round" stroke-linejoin="round" stroke-width="1.8409"/>
    <path d="M62.92,35.0029A1.8786,1.8786,0,0,0,61.0458,33H11.0529a1.9727,1.9727,0,0,0-1.97,2.1313c.857,9.7287,7.53,17.9843,16.7945,21.7238v5.4866A1.72,1.72,0,0,0,27.6446,64H44.3554a1.72,1.72,0,0,0,1.767-1.6583V57.4993C55.8344,54.121,62.1937,45.39,62.92,35.0029Z" fill="none" stroke="#000000" stroke-linecap="round" stroke-linejoin="round" stroke-width="2"/>
  </g>
  <g id="color-foreground">
    <line x1="34.2773" y1="10.8125" x2="34.4336" y2="33" fill="none" stroke="#f1b31c" stroke-linecap="round" stroke-linejoin="round" stroke-width="1.8409"/>
    <line x1="28.2773" y1="10.8125" x2="28.4336" y2="33" fill="none" stroke="#f1b31c" stroke-linecap="round" stroke-linejoin="round" stroke-width="1.8409"/>
    <line x1="21.2773" y1="10.8125" x2="21.4336" y2="33" fill="none" stroke="#f1b31c" stroke-linecap="round" stroke-linejoin="round" stroke-width="1.8409"/>
  </g>
</svg>
