<svg id="emoji" viewBox="0 0 72 72" xmlns="http://www.w3.org/2000/svg">
  <g id="grid">
    <path fill="#b3b3b3" d="M68,4V68H4V4H68m4-4H0V72H72V0Z"/>
    <path fill="none" stroke="#00a5ff" stroke-miterlimit="10" stroke-width="0.1" d="M12.923,10.9583H59.0769A1.9231,1.9231,0,0,1,61,12.8814V59.0352a1.9231,1.9231,0,0,1-1.9231,1.9231H12.9231A1.9231,1.9231,0,0,1,11,59.0352V12.8813A1.923,1.923,0,0,1,12.923,10.9583Z"/>
    <rect x="16" y="4" rx="2.2537" width="40" height="64" fill="none" stroke="#00a5ff" stroke-miterlimit="10" stroke-width="0.1"/>
    <rect x="16" y="4" rx="2.2537" width="40" height="64" transform="rotate(90 36 36)" fill="none" stroke="#00a5ff" stroke-miterlimit="10" stroke-width="0.1"/>
    <circle cx="36" cy="36" r="29" fill="none" stroke="#00a5ff" stroke-miterlimit="10" stroke-width="0.1"/>
  </g>
  <g id="color">
    <path fill="#f4aa41" stroke="none" d="M32.667,22.0835C29.2109,23.5303,21,29,17,38c-2.291,5.1543-5,22-5,22s6.4395-3.0947,13-4.333 c4.417-0.834,7.4277-1.7178,9.417-2.5c7-2.751,16.25-10.667,18.833-16.334C56.0664,30.6543,60,12,60,12s-3.5,2.1665-11.75,5.1665 C42.9678,19.0874,36.25,20.5835,32.667,22.0835z"/>
    <path fill="#e27022" stroke="none" d="M59.1748,12.4658c-0.5635,0.8672-1.3867,1.5752-2.4307,1.9639c-2.5898,0.9629-3.9062,3.8428-2.9414,6.4297 c0.9639,2.5859-0.3535,5.4658-2.9423,6.4277c-2.5889,0.9639-3.9053,3.8418-2.9424,6.4297 c0.9648,2.5879-0.3535,5.4668-2.9395,6.4297c-2.5898,0.9619-3.9072,3.8408-2.9424,6.4297c0.2481,0.667,0.3399,1.3535,0.3018,2.0215 c4.8144-3.5352,9.248-8.1133,10.9121-11.7647C56.0664,30.6543,60,12,60,12S59.7266,12.168,59.1748,12.4658z"/>
  </g>
  <g id="hair"/>
  <g id="skin"/>
  <g id="skin-shadow"/>
  <g id="line">
    <path fill="none" stroke="#000000" stroke-linecap="round" stroke-linejoin="round" stroke-miterlimit="10" stroke-width="2" d="M32.667,22.0835C29.2109,23.5303,21,29,17,38c-2.291,5.1543-5,22-5,22s6.4395-3.0947,13-4.333c4.417-0.834,7.4277-1.7178,9.417-2.5 c7-2.751,16.25-10.667,18.833-16.334C56.0664,30.6543,60,12,60,12s-3.5,2.1665-11.75,5.1665 C42.9678,19.0874,36.25,20.5835,32.667,22.0835z"/>
    <path fill="none" stroke="#000000" stroke-linecap="round" stroke-linejoin="round" stroke-miterlimit="10" stroke-width="2" d="M50,22c1.1045,0,2,0.8955,2,2"/>
    <path fill="none" stroke="#000000" stroke-linecap="round" stroke-linejoin="round" stroke-miterlimit="10" stroke-width="2" d="M41,24c1.1045,0,2,0.8955,2,2"/>
    <path fill="none" stroke="#000000" stroke-linecap="round" stroke-linejoin="round" stroke-miterlimit="10" stroke-width="2" d="M43,33c1.1045,0,2,0.8955,2,2"/>
    <path fill="none" stroke="#000000" stroke-linecap="round" stroke-linejoin="round" stroke-miterlimit="10" stroke-width="2" d="M32,29c1.1045,0,2,0.8955,2,2"/>
    <path fill="none" stroke="#000000" stroke-linecap="round" stroke-linejoin="round" stroke-miterlimit="10" stroke-width="2" d="M35,41c1.1045,0,2,0.8955,2,2"/>
    <path fill="none" stroke="#000000" stroke-linecap="round" stroke-linejoin="round" stroke-miterlimit="10" stroke-width="2" d="M25,37c1.1045,0,2,0.8955,2,2"/>
  </g>
</svg>
