<svg id="emoji" xmlns="http://www.w3.org/2000/svg" viewBox="0 0 72 72">
  <g id="grid">
    <path d="M68,4V68H4V4H68m4-4H0V72H72V0Z" fill="#b3b3b3"/>
    <path d="M12.923,10.9583H59.0769A1.9231,1.9231,0,0,1,61,12.8814V59.0352a1.9231,1.9231,0,0,1-1.9231,1.9231H12.9231A1.9231,1.9231,0,0,1,11,59.0352V12.8813A1.923,1.923,0,0,1,12.923,10.9583Z" fill="none" stroke="#00a5ff" stroke-miterlimit="10" stroke-width="0.1"/>
    <rect x="16" y="4" width="40" height="64" rx="2.2537" fill="none" stroke="#00a5ff" stroke-miterlimit="10" stroke-width="0.1"/>
    <rect x="16" y="4" width="40" height="64" rx="2.2537" transform="rotate(90 36 36)" fill="none" stroke="#00a5ff" stroke-miterlimit="10" stroke-width="0.1"/>
    <circle cx="36" cy="36" r="29" fill="none" stroke="#00a5ff" stroke-miterlimit="10" stroke-width="0.1"/>
  </g>
  <g id="color">
    <path fill="#EA5A47" d="M38.4549,57.1464l22.2257-38.4961c1.0911-1.8898-0.2728-4.252-2.4549-4.252l-44.4514,0 c-2.1821,0-3.5459,2.3622-2.4549,4.252l22.2257,38.4961C34.6362,59.0362,37.3638,59.0362,38.4549,57.1464z" stroke="none"/>
  </g>
  <g id="hair"/>
  <g id="skin"/>
  <g id="skin-shadow"/>
  <g id="line">
    <path fill="none" stroke="#000000" stroke-width="2" stroke-miterlimit="10" d="M38.4549,57.1464l22.2257-38.4961 c1.0911-1.8898-0.2728-4.252-2.4549-4.252l-44.4514,0c-2.1821,0-3.5459,2.3622-2.4549,4.252l22.2257,38.4961 C34.6362,59.0362,37.3638,59.0362,38.4549,57.1464z"/>
  </g>
</svg>
