<svg version="1.1" id="emoji" xmlns="http://www.w3.org/2000/svg" x="0" y="0" viewBox="0 0 72 72" enable-background="new 0 0 72 72" xml:space="preserve">
  <g id="grid">
    <path fill="#B3B3B3" d="M68,4v64H4V4H68 M72,0H0v72h72V0z"/>
    <path fill="none" stroke="#00A5FF" stroke-width="0.1" stroke-miterlimit="10" d="M12.923,10.9583h46.1539 c1.0621,0,1.9231,0.861,1.9231,1.9231l0,0v46.1538c0,1.0621-0.861,1.9231-1.9231,1.9231H12.9231 c-1.0621,0-1.9231-0.861-1.9231-1.9231l0,0V12.8813C11,11.8193,11.861,10.9583,12.923,10.9583L12.923,10.9583z"/>
    <path fill="none" stroke="#00A5FF" stroke-width="0.1" stroke-miterlimit="10" d="M18.2537,4h35.4926C54.991,4,56,5.009,56,6.2537 v59.4926C56,66.991,54.991,68,53.7463,68H18.2537C17.009,68,16,66.991,16,65.7463V6.2537C16,5.009,17.009,4,18.2537,4z"/>
    <path fill="none" stroke="#00A5FF" stroke-width="0.1" stroke-miterlimit="10" d="M68,18.2537v35.4926 C68,54.991,66.991,56,65.7463,56H6.2537C5.009,56,4,54.991,4,53.7463V18.2537C4,17.009,5.009,16,6.2537,16h59.4926 C66.991,16,68,17.009,68,18.2537z"/>
    <circle fill="none" stroke="#00A5FF" stroke-width="0.1" stroke-miterlimit="10" cx="36" cy="36" r="29"/>
  </g>
  <g id="color">
    <circle fill="#FCEA2B" cx="36" cy="36" r="24"/>
    <path fill="#EA5A47" d="M50.5707,44.471c0,0,6.3864,4.2101,6.3864,7.6241c0,2.4671-1.5752,4.5107-4.2717,4.5107 c-3.7214,0-7.6844-6.2448-7.6844-6.2448"/>
  </g>
  <g id="hair"/>
  <g id="skin"/>
  <g id="skin-shadow"/>
  <g id="line">
    <path fill="none" stroke="#000000" stroke-width="2" stroke-linecap="round" stroke-linejoin="round" stroke-miterlimit="10" d="M57.2506,44.8137C58.3778,42.0992,59,39.1222,59,36c0-12.7031-10.2978-23-23-23c-12.7031,0-23,10.2969-23,23 c0,12.7022,10.2969,23,23,23c3.3707,0,6.5721-0.7251,9.4566-2.0279"/>
    <path fill="none" stroke="#000000" stroke-width="2" stroke-linecap="round" stroke-miterlimit="10" d="M31.6941,33.4036 c-1.0598-2.3854-3.8527-3.46-6.238-2.4002c-1.0697,0.4752-1.9249,1.3305-2.4002,2.4002"/>
    <path fill="none" stroke="#000000" stroke-width="2" stroke-linecap="round" stroke-miterlimit="10" d="M48.9441,33.4036 c-1.0598-2.3854-3.8527-3.46-6.238-2.4002c-1.0697,0.4752-1.9249,1.3305-2.4002,2.4002"/>
    <path fill="none" stroke="#000000" stroke-width="2" stroke-miterlimit="10" d="M50.5707,44.471c0,0,6.3864,4.2101,6.3864,7.6241 c0,2.4671-1.5752,4.5107-4.2717,4.5107c-3.7214,0-7.6844-6.2448-7.6844-6.2448"/>
    <path fill="none" stroke="#000000" stroke-width="2" stroke-linecap="round" stroke-linejoin="round" stroke-miterlimit="10" d="M20.1657,41.3575C22.3985,47.9591,28.644,52.7116,36,52.7116c7.3561,0,13.6024-4.7533,15.8349-11.3559"/>
  </g>
</svg>
