<svg version="1.1" id="emoji" xmlns="http://www.w3.org/2000/svg" x="0" y="0" viewBox="0 0 72 72" enable-background="new 0 0 72 72" xml:space="preserve">
  <g id="grid">
    <path fill="#B3B3B3" d="M68,4v64H4V4H68 M72,0H0v72h72V0z"/>
    <path fill="none" stroke="#00A5FF" stroke-width="0.1" stroke-miterlimit="10" d="M12.923,10.9583h46.1539 c1.0621,0,1.9231,0.861,1.9231,1.9231v0v46.1538c0,1.0621-0.861,1.9231-1.9231,1.9231H12.9231 c-1.0621,0-1.9231-0.861-1.9231-1.9231l0,0V12.8813C11,11.8193,11.861,10.9583,12.923,10.9583L12.923,10.9583z"/>
    <path fill="none" stroke="#00A5FF" stroke-width="0.1" stroke-miterlimit="10" d="M18.2537,4h35.4926C54.991,4,56,5.009,56,6.2537 v59.4926C56,66.991,54.991,68,53.7463,68H18.2537C17.009,68,16,66.991,16,65.7463V6.2537C16,5.009,17.009,4,18.2537,4z"/>
    <path fill="none" stroke="#00A5FF" stroke-width="0.1" stroke-miterlimit="10" d="M68,18.2537v35.4926 C68,54.991,66.991,56,65.7463,56H6.2537C5.009,56,4,54.991,4,53.7463V18.2537C4,17.009,5.009,16,6.2537,16h59.4926 C66.991,16,68,17.009,68,18.2537z"/>
    <circle fill="none" stroke="#00A5FF" stroke-width="0.1" stroke-miterlimit="10" cx="36" cy="36" r="29"/>
  </g>
  <g id="color">
    <path fill="#FCEA2B" d="M36,13c-12.6823,0-23,10.3177-23,23c0,12.6822,10.3177,23,23,23c12.6822,0,23-10.3178,23-23 C59,23.3177,48.6822,13,36,13z"/>
    <path fill="#FFFFFF" d="M41.6682,46.5925c2.018-1.0892,3.6277-2.7511,4.4969-4.7746c-1.9847,0.9853-6.1585,1.5931-10.5745,1.5426 c-4.0546-0.0464-7.7116-0.6408-9.5171-1.5426h-0.2385c0.939,2.1647,2.7178,3.8986,4.9168,4.9729"/>
    <path fill="#EA5A47" d="M41.5772,42.818c0,6.0751-2.5324,11-5.6562,11c-3.1239,0-5.6563-4.9249-5.6563-11"/>
  </g>
  <g id="hair"/>
  <g id="skin"/>
  <g id="skin-shadow"/>
  <g id="line">
    <circle fill="none" stroke="#000000" stroke-width="2" stroke-miterlimit="10" cx="36" cy="36" r="23"/>
    <path fill="none" stroke="#000000" stroke-width="2" stroke-linecap="round" stroke-linejoin="round" stroke-miterlimit="10" d="M24,27c2.3334,1.3333,4.6666,2.6667,7,4c-2.3334,1.3333-4.6666,2.6667-7,4"/>
    <path fill="none" stroke="#000000" stroke-width="2" stroke-linecap="round" stroke-linejoin="round" stroke-miterlimit="10" d="M48,27c-2.3334,1.3333-4.6666,2.6667-7,4c2.3334,1.3333,4.6666,2.6667,7,4"/>
    <path fill="none" stroke="#000000" stroke-width="2" stroke-linecap="round" stroke-linejoin="round" stroke-miterlimit="10" d="M30.7517,46.7908c-2.199-1.0742-3.9778-2.8081-4.9168-4.9729 M46.165,41.818c-0.8692,2.0234-2.4789,3.6854-4.4969,4.7746 M26.0734,41.818c1.8055,0.9018,5.4625,1.4962,9.5171,1.5426c4.4161,0.0505,8.5899-0.5572,10.5745-1.5426"/>
    <path fill="none" stroke="#000000" stroke-width="2" stroke-linejoin="round" stroke-miterlimit="10" d="M41.6597,42.818 c0,6.0751-2.5324,11-5.6562,11s-5.6563-4.9249-5.6563-11"/>
  </g>
</svg>
