<svg id="emoji" viewBox="0 0 72 72" xmlns="http://www.w3.org/2000/svg">
  <g id="line">
    <rect x="16.5" y="4.8" width="39" height="62.4" fill="none" stroke="#000" stroke-linecap="round" stroke-linejoin="round" stroke-width="2"/>
    <path fill="none" stroke="#000" stroke-linecap="round" stroke-linejoin="round" stroke-width="2" d="M21.0209,23.286c-.6734.15,3.9411-6.4248,11.4258-2.5271,0,0,4.5-10.7789,14.4109-6.7508,0,0-8.1695,6.2635-6.0268,5.9931,8.2578-1.042,9.3575,4.3845,9.3575,4.3845C40.1169,21.5471,45.81,29.9874,45.81,29.9874c-6.8537-6.8408-14.4739-5.7178-19.9542-.7242C25.856,29.2632,28.82,21.5471,21.0209,23.286Z"/>
    <path fill="none" stroke="#000" stroke-linecap="round" stroke-linejoin="round" stroke-width="2" d="M25.9961,42.78c-1.211.0039-6.32,3.4383-6.32,5.0027,0,0,6.5691-1.77,8.2538-1.1678,0,0-1.939,3.8151-1.8187,5.8608,0,0,6.3717-3.1424,9.8822-3.1424"/>
    <path fill="none" stroke="#000" stroke-linecap="round" stroke-linejoin="round" stroke-width="2" d="M45.99,42.78c1.211.0039,6.32,3.4383,6.32,5.0027,0,0-6.5692-1.77-8.2539-1.1678,0,0,1.9391,3.8151,1.8187,5.8608,0,0-6.3717-3.1424-9.8822-3.1424"/>
    <path fill="none" stroke="#000" stroke-linecap="round" stroke-linejoin="round" stroke-width="2" d="M23.37,7.35v4.5a2.5,2.5,0,0,1-2.5,2.5h0a2.4908,2.4908,0,0,1-1.6728-.642"/>
    <path fill="none" stroke="#000" stroke-linecap="round" stroke-linejoin="round" stroke-width="2" d="M48.63,64.2165v-4.5a2.5,2.5,0,0,1,2.5-2.5h0a2.4908,2.4908,0,0,1,1.6728.642"/>
    <circle cx="50.782" cy="27.4753" r="1.9488"/>
    <circle cx="48.8332" cy="16.4818" r="1.9488"/>
    <circle cx="20.6797" cy="26.4668" r="1.9488"/>
    <path d="M41.7716,31.0968a1.9489,1.9489,0,1,1-1.9488-1.9489,1.95,1.95,0,0,1,1.9488,1.9489"/>
    <path d="M33.9763,31.0968a1.9489,1.9489,0,1,1-1.9489-1.9489,1.95,1.95,0,0,1,1.9489,1.9489"/>
    <path d="M35.925,40.8433a7.4566,7.4566,0,0,1-3.3591-.836.9745.9745,0,1,1,.8717-1.7432,5.24,5.24,0,0,0,4.9748,0,.9745.9745,0,1,1,.8717,1.7432A7.4566,7.4566,0,0,1,35.925,40.8433Z"/>
  </g>
</svg>
