<svg id="emoji" viewBox="0 0 72 72" version="1.1" xmlns="http://www.w3.org/2000/svg">
  <g id="line">
    <circle cx="36" cy="36" r="26.68" fill="none" stroke="#000" stroke-linecap="round" stroke-linejoin="round" stroke-width="4.74" paint-order="normal"/>
    <path fill="none" stroke="#000" stroke-linejoin="round" stroke-width="4.74" d="m54.49 54.46-36.46-36.46 0.4581-0.4581"/>
    <g transform="matrix(3.164 0 0 3.164 42.88 42.66)" fill-rule="evenodd" stroke-linecap="round" stroke-linejoin="round" stroke-miterlimit="10" clip-rule="evenodd">
      <path fill="none" stroke="#000" stroke-width="2" d="m0-4.844c-0.205-0.798-1.091-1.397-2.153-1.397-1.214 0-2.198 0.783-2.198 1.75 0 0.966 0.956 1.963 2.176 2.385 1.22 0.4217 2.201 1.33 2.176 2.385-0.02336 0.9667-0.984 1.75-2.198 1.75-1.062 0-1.948-0.6-2.153-1.398"/>
    </g>
    <g transform="matrix(0 -3.164 -3.164 0 38.64 20.28)" fill-rule="evenodd" stroke-linecap="round" stroke-linejoin="round" stroke-miterlimit="10" clip-rule="evenodd">
      <path fill="none" stroke="#000" stroke-width="2" d="m-0.834 0.834h1.668"/>
    </g>
    <g transform="matrix(0 -3.164 -3.164 0 38.64 51.72)" fill-rule="evenodd" stroke-linecap="round" stroke-linejoin="round" stroke-miterlimit="10" clip-rule="evenodd">
      <path fill="none" stroke="#000" stroke-width="2" d="m-0.834 0.834h1.668"/>
    </g>
  </g>
</svg>
