<svg id="emoji" viewBox="0 0 72 72" version="1.1" xmlns="http://www.w3.org/2000/svg">
  <g id="line-supplement" transform="translate(-.005724 -.00219)" fill="none" stroke="#000" stroke-linecap="round" stroke-linejoin="round" stroke-miterlimit="10" stroke-width="2" clip-rule="evenodd">
    <path transform="matrix(0 2.392 2.392 0 48.74 36.12)" d="m-3.5-3.5h7"/>
    <path transform="matrix(1.582 -1.795 -1.795 -1.582 46.1 40.35)" d="m-1.025 2.27h6.05"/>
    <path transform="matrix(1.097 2.126 2.126 -1.097 51.61 33.85)" d="m-1.416-2.323h5.228"/>
    <path transform="matrix(2.392 0 0 2.392 27.2 27.75)" d="m0 7c-1.38 0-2.5-1.119-2.5-2.5v-2c0-1.381 1.12-2.5 2.5-2.5 1.381 0 2.5 1.119 2.5 2.5v2c0 1.381-1.119 2.5-2.5 2.5z"/>
  </g>
  <g id="line">
    <rect x="12" y="12" width="48" height="48" fill="none" stroke="#000" stroke-linecap="round" stroke-linejoin="round" stroke-width="2"/>
  </g>
</svg>
