<?xml version="1.0" encoding="utf-8"?>
<!-- Generator: Adobe Illustrator 21.1.0, SVG Export Plug-In . SVG Version: 6.00 Build 0)  -->
<svg version="1.1" id="emoji" xmlns="http://www.w3.org/2000/svg" xmlns:xlink="http://www.w3.org/1999/xlink" x="0px" y="0px"
	 viewBox="0 0 72 72" enable-background="new 0 0 72 72" xml:space="preserve">
<g id="_xD83C__xDD98__1_">
	<path fill="none" stroke="#1D1D1B" stroke-width="2" stroke-linejoin="round" stroke-miterlimit="10" d="M59,60H13
		c-0.5,0-1-0.4-1-1V13c0-0.5,0.4-1,1-1H59c0.5,0,1,0.4,1,1V59C60,59.6,59.6,60,59,60z"/>
	<g>
		<path fill="none" stroke="#000000" stroke-width="2" stroke-linecap="round" stroke-linejoin="round" stroke-miterlimit="10" d="
			M36.5,39.5L36.5,39.5c-1.6,0-2.9-1.3-2.9-2.9v-2.3c0-1.6,1.3-2.9,2.9-2.9l0,0c1.6,0,2.9,1.3,2.9,2.9v2.3
			C39.4,38.2,38.1,39.5,36.5,39.5z"/>
		<path fill="none" stroke="#000000" stroke-width="2" stroke-linecap="round" stroke-linejoin="round" stroke-miterlimit="10" d="
			M30,33.1c-0.2-0.9-1.2-1.6-2.5-1.6l0,0c-1.4,0-2.5,0.9-2.5,2c0,1.1,1.1,2,2.5,2l-0.1,0c1.4,0,2.5,0.9,2.5,2c0,1.1-1.1,2-2.5,2l0,0
			c-1.2,0-2.2-0.7-2.5-1.6"/>
		<path fill="none" stroke="#000000" stroke-width="2" stroke-linecap="round" stroke-linejoin="round" stroke-miterlimit="10" d="
			M48,33.1c-0.2-0.9-1.2-1.6-2.5-1.6l0,0c-1.4,0-2.5,0.9-2.5,2s1.1,2,2.5,2l-0.1,0c1.4,0,2.5,0.9,2.5,2c0,1.1-1.1,2-2.5,2l0,0
			c-1.2,0-2.2-0.7-2.5-1.6"/>
	</g>
</g>
</svg>
