<?xml version="1.0" encoding="utf-8"?>
<!-- Generator: Adobe Illustrator 21.1.0, SVG Export Plug-In . SVG Version: 6.00 Build 0)  -->
<svg version="1.1" id="emoji" xmlns="http://www.w3.org/2000/svg" xmlns:xlink="http://www.w3.org/1999/xlink" x="0px" y="0px"
	 viewBox="0 0 72 72" enable-background="new 0 0 72 72" xml:space="preserve">
<g id="_xD83C__xDD97__1_">
	<path fill="none" stroke="#1D1D1B" stroke-width="2" stroke-linejoin="round" stroke-miterlimit="10" d="M59,60H13
		c-0.5,0-1-0.4-1-1V13c0-0.5,0.4-1,1-1H59c0.5,0,1,0.4,1,1V59C60,59.6,59.6,60,59,60z"/>
	<g>
		<g>
			
				<line fill="none" stroke="#000000" stroke-width="2" stroke-linecap="round" stroke-linejoin="round" stroke-miterlimit="10" x1="39.1" y1="31.2" x2="39.1" y2="40.6"/>
			
				<line fill="none" stroke="#000000" stroke-width="2" stroke-linecap="round" stroke-linejoin="round" stroke-miterlimit="10" x1="39.1" y1="37.3" x2="44.4" y2="31.2"/>
			
				<line fill="none" stroke="#000000" stroke-width="2" stroke-linecap="round" stroke-linejoin="round" stroke-miterlimit="10" x1="41.6" y1="34.3" x2="44.9" y2="40.6"/>
		</g>
		<path fill="none" stroke="#000000" stroke-width="2" stroke-linecap="round" stroke-linejoin="round" stroke-miterlimit="10" d="
			M31.5,40.6L31.5,40.6c-1.9,0-3.4-1.5-3.4-3.4v-2.7c0-1.9,1.5-3.4,3.4-3.4l0,0c1.9,0,3.4,1.5,3.4,3.4v2.7
			C34.9,39.1,33.4,40.6,31.5,40.6z"/>
	</g>
</g>
</svg>
