<svg id="emoji" viewBox="0 0 72 72" version="1.1" xmlns="http://www.w3.org/2000/svg">
  <g id="line-supplement" transform="translate(-.005724 -.00219)" fill="none" stroke="#000" stroke-linecap="round" stroke-linejoin="round" stroke-miterlimit="10" stroke-width="3.227" clip-rule="evenodd">
    <path transform="translate(1.958 -.1451)" d="m34.12 41.92c-2.226 0-4.033-1.805-4.033-4.033v-3.227c0-2.228 1.807-4.033 4.033-4.033 2.228 0 4.033 1.805 4.033 4.033v3.227c0 2.228-1.805 4.033-4.033 4.033z"/>
    <path transform="translate(1.958 -.1451)" d="m50.25 32.87c-0.3307-1.287-1.76-2.254-3.474-2.254-1.959 0-3.546 1.263-3.546 2.823 0 1.559 1.588 2.823 3.546 2.823l-0.0726 0.0097c1.959 0 3.546 1.265 3.546 2.823 0 1.56-1.588 2.823-3.546 2.823-1.713 0-3.143-0.968-3.474-2.256"/>
    <path transform="translate(1.958 -.1451)" d="m24.92 32.87c-0.3307-1.287-1.76-2.254-3.474-2.254-1.959 0-3.546 1.263-3.546 2.823 0 1.559 1.588 2.823 3.546 2.823l-0.0726 0.0097c1.959 0 3.546 1.265 3.546 2.823 0 1.56-1.588 2.823-3.546 2.823-1.713 0-3.143-0.968-3.474-2.256"/>
  </g>
  <g id="line">
    <rect x="12" y="12" width="48" height="48" fill="none" stroke="#000" stroke-linecap="round" stroke-linejoin="round" stroke-width="2"/>
  </g>
</svg>
