<svg id="emoji" viewBox="0 0 72 72" version="1.1" xmlns="http://www.w3.org/2000/svg">
  <g id="line-supplement" fill="none" stroke="#000">
    <rect x="12" y="12" width="48" height="48" stroke-linecap="round" stroke-linejoin="round" stroke-width="2"/>
    <path fill-rule="evenodd" stroke-width="1.963" d="m11.92 30.64 48.1-10.98v21.7l-48.1 11.34z" clip-rule="evenodd"/>
  </g>
  <g id="line" fill="none" stroke="#000" stroke-linecap="round" stroke-linejoin="round" stroke-width="3.456">
    <path transform="matrix(.8993 0 0 .8993 3.396 3.24)" d="m52.51 26.57v12.52l4.924-1.108"/>
    <path transform="matrix(.8993 0 0 .8993 3.396 3.24)" d="m30.49 44.04c-2.304 0.5184-4.176-1.079-4.176-3.57v-3.608c0-2.491 1.872-4.924 4.176-5.432 2.302-0.5084 4.164 1.093 4.164 3.578v3.598c0 2.485-1.863 4.917-4.164 5.435z"/>
    <path transform="matrix(.8993 0 0 .8993 3.396 3.24)" d="m21.94 44.83c-0.7399 0.8728-1.715 1.522-2.785 1.763-2.321 0.5222-4.207-1.08-4.207-3.58v-3.621 3.621-3.621c0-2.501 1.886-4.943 4.207-5.456 1.07-0.2364 2.045-0.02173 2.785 0.5211"/>
    <path transform="matrix(.8993 0 0 .8993 3.396 3.24)" d="m43.28 41.17c-2.284 0.514-4.141-1.078-4.141-3.559v-3.593c0-2.481 1.856-4.901 4.141-5.406 2.283-0.5042 4.129 1.093 4.129 3.567v3.583c0 2.474-1.847 4.894-4.129 5.408z"/>
  </g>
</svg>
