<svg id="emoji" viewBox="0 0 72 72" xmlns="http://www.w3.org/2000/svg">
  <g id="line" fill="none" stroke="#000" stroke-width="2">
    <path stroke-miterlimit="10" d="M59.0349,60h-46.07A.9679.9679,0,0,1,12,59.0349v-46.07A.9679.9679,0,0,1,12.9651,12h46.07A.9679.9679,0,0,1,60,12.9651v46.07A.9679.9679,0,0,1,59.0349,60Z"/>
    <line x1="20.95" x2="23.95" y1="21.5" y2="24.5" stroke-linecap="round" stroke-linejoin="round"/>
    <line x1="19.95" x2="22.95" y1="29.5" y2="32.5" stroke-linecap="round" stroke-linejoin="round"/>
    <line x1="27.05" x2="50.05" y1="24" y2="24" stroke-linecap="round" stroke-linejoin="round"/>
    <line x1="34.05" x2="34.05" y1="21" y2="29" stroke-linecap="round" stroke-linejoin="round"/>
    <line x1="44.05" x2="44.05" y1="21" y2="29" stroke-linecap="round" stroke-linejoin="round"/>
    <line x1="26.05" x2="52.05" y1="30" y2="30" stroke-linecap="round" stroke-linejoin="round"/>
    <polyline transform="translate(-.4469 .5)" stroke-linecap="round" stroke-linejoin="round" points="39.5 30.5 39.5 44.5 44.5 44.5 44.5 39.5"/>
    <polyline transform="translate(-.4469 .5)" stroke-linecap="round" stroke-linejoin="round" points="34.5 39.5 34.5 44.5 34.5 46.5"/>
    <line x1="39.05" x2="35.05" y1="45" y2="45" stroke-linecap="round" stroke-linejoin="round"/>
    <path stroke-linecap="round" stroke-linejoin="round" d="m24.05 40s-1 7-4 9"/>
    <polyline transform="translate(-.4469 .5)" stroke-linecap="round" stroke-linejoin="round" points="28.5 50.5 28.5 34.5 49.5 34.5 49.5 49.5 44.5 49.5"/>
  </g>
</svg>
