<svg id="emoji" viewBox="0 0 72 72" version="1.1" xmlns="http://www.w3.org/2000/svg">
  <g id="line-supplement" transform="matrix(.2612 0 0 .2621 -91.39 -3.483)" fill="none" stroke="#000" stroke-linecap="round" stroke-linejoin="round" stroke-miterlimit="1.5" stroke-width="9.71" clip-rule="evenodd">
    <path d="m487.5 176.7v33.61c0 4.949-4.015 8.967-8.982 8.99-6.666 0.0295-14.61 0.0639-14.61 0.0639"/>
    <path d="m424.2 215.3c13.04-6.905 28.22-24.68 28.22-24.68"/>
    <path d="m520.1 190.4s29.44 23.26 28.73 25.89"/>
    <path d="m441.6 156.5 94.25-0.0187"/>
    <path d="m422.8 176.7 129.7-0.0187"/>
    <path d="m452.4 103.6 26.7 23.2"/>
    <path d="m419.2 139.4c17.45-11.28 33.58-39.14 33.58-39.14"/>
    <path d="m453.4 81.71 0.0858 59.84"/>
    <path d="m421.8 99.88h58.47"/>
    <path d="m453.4 81.42 0.1843 60.7"/>
    <path d="m523.3 101.2s19.08 27.66 31.93 35.71"/>
    <path d="m485 138.3c20.78-14.74 36.55-38.47 36.55-38.47"/>
    <path d="m522.6 81.71 0.0867 59.84"/>
    <path d="m491.6 99.88h64.39"/>
  </g>
  <g id="line" transform="matrix(1.001 0 0 1.001 -2.087 -2.3)">
    <rect x="395.8" y="59.07" width="183.8" height="183.1" transform="matrix(.2609 0 0 .2618 -89.21 -1.182)" fill="none" stroke="#000" stroke-linecap="round" stroke-linejoin="round" stroke-width="7.644"/>
  </g>
</svg>
