<?xml version="1.0" encoding="utf-8"?>
<!-- Generator: Adobe Illustrator 19.1.0, SVG Export Plug-In . SVG Version: 6.00 Build 0)  -->
<svg version="1.1" id="emoji" xmlns="http://www.w3.org/2000/svg" xmlns:xlink="http://www.w3.org/1999/xlink" x="0px" y="0px"
	 viewBox="0 0 72 72" enable-background="new 0 0 72 72" xml:space="preserve">
<g id="_xD83C__xDF08_">
	<path fill="none" stroke="#000000" stroke-width="2" stroke-linecap="round" stroke-linejoin="round" stroke-miterlimit="10" d="
		M68,17.6v21.5c-16,0-28.9,13-28.9,28.9 M34.2,68c0-18.6,15.1-33.6,33.8-33.6 M68,29.2c-21.5,0-39,17.4-39,38.8 M68,11.1v6.5
		c-27.8,0-50.4,22.6-50.4,50.4 M11.1,68c0-31.4,25.5-56.9,56.9-56.9V4C32.7,4,4,32.7,4,68 M39.1,68h-4.8H29h-4.7h-5.9h-7.4H4
		 M68,23.6c-24.5,0-44.5,19.9-44.5,44.4"/>
</g>
</svg>
