<?xml version="1.0" encoding="utf-8"?>
<!-- Generator: Adobe Illustrator 21.1.0, SVG Export Plug-In . SVG Version: 6.00 Build 0)  -->
<svg version="1.1" id="emoji" xmlns="http://www.w3.org/2000/svg" xmlns:xlink="http://www.w3.org/1999/xlink" x="0px" y="0px"
	 viewBox="0 0 72 72" enable-background="new 0 0 72 72" xml:space="preserve">
<path id="_xD83C__xDF00__1_" fill="none" stroke="#000000" stroke-width="2" stroke-linecap="round" stroke-linejoin="round" d="
	M36,7c14.6,0,29,11.6,29,29c0,16-12.8,29-29,29C22.2,65,9.9,55.6,9.9,41.1c0-10.4,8.4-18.8,18.8-18.8c8.3,0,15.1,6.7,15.1,15.1
	c0,6.7-5.4,12.1-12.1,12.1c-5.3,0-9.6-4.3-9.6-9.6c0-4.3,3.5-7.7,7.7-7.7c3.4,0,6.2,2.8,6.2,6.2c0,2.7-2.2,4.9-4.9,4.9
	c-2.2,0-4-1.8-4-4c0-1.8,1.2-2.9,2.8-2.4c0.3,0.1,0.7,0.3,0.9,0.6c0.4,0.4,0.4,0.9,0.5,1.3"/>
</svg>
