<?xml version="1.0" encoding="utf-8"?>
<!-- Generator: Adobe Illustrator 21.1.0, SVG Export Plug-In . SVG Version: 6.00 Build 0)  -->
<svg version="1.1" id="emoji" xmlns="http://www.w3.org/2000/svg" xmlns:xlink="http://www.w3.org/1999/xlink" x="0px" y="0px"
	 viewBox="0 0 72 72" enable-background="new 0 0 72 72" xml:space="preserve">
<g id="_xD83C__xDF0D__xFE0F_">
	
		<circle fill="none" stroke="#000000" stroke-width="2" stroke-linecap="round" stroke-linejoin="round" stroke-miterlimit="10" cx="36" cy="36" r="28"/>
	<path fill="none" stroke="#000000" stroke-width="2" stroke-linecap="round" stroke-linejoin="round" stroke-miterlimit="10" d="
		M63,42c-0.6-0.2-1.3-0.4-2-1c-1.3-1-1.4-2-2-2c-0.9,0-1.7,2.1-2,3c-0.7,1.9-0.6,2.9-1,3c-0.2,0-0.6-0.2-2-3c-1.5-3-1.4-3.3-2-4
		c-1.9-2-5.7-1.8-6-1c-0.2,0.7,2.3,1.7,2,3c-0.2,0.9-1.7,0.9-2,2c-0.4,1.1,1.1,1.7,1,3c-0.1,1.9-3.3,1.9-5,5c-0.4,0.7-0.6,1.5-1,3
		c-0.8,3-0.3,3.6-1,5c-1.1,2.2-3.8,3.7-5,3c-0.4-0.2-0.4-0.6-1-3c-0.7-2.9-0.6-2.1-1-4c-0.8-3.8-0.5-3.7-1-5c-0.5-1.3-1.3-3.1-3-4
		c-1.7-0.8-2.9,1-4,0c-1.1-1-2-3.6-2-4c0.1-1.7,0.2-2.4,1.2-3.4c1.5-1.5,4-0.7,5.6-0.9c1-0.2,3.6-0.7,3.9-2s1-2.7,0.4-3.2
		c-0.5-0.4-1.8-0.7-2.3-0.7c-0.9,0-1.9,0.8-2.7,1.2c-1.9,1.2-2.1,2-3,2c-1,0-3.2-0.6-3-1.4c0.2-0.9,2.6-1.3,3.7-2.7
		c0.8-1.1,0.4-2.4,1.3-3.3c0.7-0.7,0.3-1.3,2.1-1.6c3.1-0.5,5.3-1.3,6-2c1.1-1.1,2-1.8,2-3c0.1-1.7-1.4-3.2-2-3
		c-0.6,0.2-1.7,2.5-3,4c-0.6,0.7-0.8,1.3-2,1c-1-0.3-0.8-1.1-1-2c-0.2-0.9,0.3-1.5,2-4c2.2-3.3,2.3-3.6,3-4c1.8-1.1,3.9-0.7,5,0
		c0.8,0.5,0.5,0.5,1,2c0.3,1,0.2,3.1,1,3c0.8-0.1,0.7-1.2,2-2c1.1-0.7,1.8-0.3,3-1c0.8-0.4,1.5-1.1,2-2"/>
</g>
</svg>
