<svg id="emoji" xmlns="http://www.w3.org/2000/svg" viewBox="0 0 72 72">
  <g id="line">
    <path fill="none" stroke="#000000" stroke-width="2" stroke-linecap="round" stroke-linejoin="round" stroke-miterlimit="10" d="
		M68,17.5958v21.4569c-15.9872,0-28.9473,12.9602-28.9473,28.9473 M34.2441,68c0-18.5669,15.113-33.6183,33.7559-33.6183
		 M68,29.1932c-21.544,0-39.0088,17.3744-39.0088,38.8068 M68,11.0655v6.5303c-27.8375,0-50.4042,22.5667-50.4042,50.4042
		 M11.0655,68c0-31.4441,25.4904-56.9345,56.9345-56.9345V4C32.6538,4,4,32.6538,4,68 M39.0527,68h-4.8086h-5.2529h-4.6517H18.453
		h-7.3875H4 M68,23.6124c-24.5432,0-44.5177,19.873-44.5177,44.3876"></path>
  </g>
</svg>