<svg id="emoji" viewBox="0 0 72 72" xmlns="http://www.w3.org/2000/svg">
  <g id="line">
    <path transform="translate(0 0)" fill="none" stroke="#000" stroke-linecap="round" stroke-linejoin="round" stroke-width="2" d="M66.4,13.9a10.8892,10.8892,0,0,0-3.1-.8h0a7.3951,7.3951,0,0,0-14.2-2.9A8.6841,8.6841,0,0,0,44.4,9"/>
    <path transform="translate(0 0)" fill="none" stroke="#000" stroke-linecap="round" stroke-linejoin="round" stroke-width="2" d="M6.2,4.9a8.1876,8.1876,0,0,1,7.5,5,10.4574,10.4574,0,0,1,13.2,2.4"/>
    <path transform="translate(0 0)" fill="none" stroke="#000" stroke-linecap="round" stroke-linejoin="round" stroke-width="2" d="M53.3,22.7a7.0982,7.0982,0,0,1,10-.4,6.8219,6.8219,0,0,1,2.3,5.2h0"/>
    <polyline fill="none" stroke="#000" stroke-linecap="round" stroke-linejoin="round" stroke-width="2" points="33.4 38 33.4 9.3 38.7 9.3 38.7 39.4"/>
    <line x1="45.8" x2="45.8" y1="24.7" y2="43.2" fill="none" stroke="#000" stroke-linecap="round" stroke-linejoin="round" stroke-width="2"/>
    <path transform="translate(0 0)" fill="none" stroke="#000" stroke-linecap="round" stroke-linejoin="round" stroke-width="2" d="M60.2,38.6c-3.3-2.7-6.9-5.8-8.8-7.7-2.8-2.8-8.9-10.1-12.5-14.4"/>
    <path transform="translate(0 0)" fill="none" stroke="#000" stroke-linecap="round" stroke-linejoin="round" stroke-width="2" d="M38.7,10.9S49.5,24.1,53.5,28.1c4.1,4.1,13.3,11.5,13.3,11.5"/>
    <line x1="24.1" x2="24.1" y1="36" y2="27" fill="none" stroke="#000" stroke-linecap="round" stroke-linejoin="round" stroke-width="2"/>
    <line x1="56" x2="56" y1="41.4" y2="35.2" fill="none" stroke="#000" stroke-linecap="round" stroke-linejoin="round" stroke-width="2"/>
    <line x1="14.2" x2="14.2" y1="44.7" y2="37.1" fill="none" stroke="#000" stroke-linecap="round" stroke-linejoin="round" stroke-width="2"/>
    <path transform="translate(0 0)" fill="none" stroke="#000" stroke-linecap="round" stroke-linejoin="round" stroke-width="2" d="M9.7,40.5c3.1-2.6,8.2-7,10.9-9.7,2.8-2.8,9-10.1,12.6-14.4"/>
    <path transform="translate(0 0)" fill="none" stroke="#000" stroke-linecap="round" stroke-linejoin="round" stroke-width="2" d="M33.3,11S22.5,24.1,18.5,28.2c-4.1,4-13.2,11.7-13.2,11.7"/>
    <path transform="translate(0 0)" fill="none" stroke="#000" stroke-linecap="round" stroke-linejoin="round" stroke-width="2" d="M18.3,45.3a4.1956,4.1956,0,0,1,2.4-.7h0a5.1215,5.1215,0,0,1,5.1-5.1,5.022,5.022,0,0,1,4.7,3.1,6.5748,6.5748,0,0,1,9,2.5,7.5019,7.5019,0,0,1,.9,3"/>
    <path transform="translate(0 0)" fill="none" stroke="#000" stroke-linecap="round" stroke-linejoin="round" stroke-width="2" d="M33.1,66.4a6.4522,6.4522,0,0,0-.2-8.7,1.7556,1.7556,0,0,0-.5-.4,6.2582,6.2582,0,0,0-6.8-.9,8.7923,8.7923,0,0,0-1-3.6,8.16,8.16,0,0,0-7.2-4.2,8.6862,8.6862,0,0,0-4.1,1.1,6.3213,6.3213,0,0,0-5.9-3.9,5.867,5.867,0,0,0-2.3.4"/>
    <path transform="translate(0 0)" fill="none" stroke="#000" stroke-linecap="round" stroke-linejoin="round" stroke-width="2" d="M36.3,54.7h.2c.1,0,.3-.1.4-.1a.6012.6012,0,0,0,.4-.1h.9a7.1732,7.1732,0,0,1,2.9.6,10.0387,10.0387,0,0,1,.4-2.4,4.1792,4.1792,0,0,1,.4-1,9.2017,9.2017,0,0,1,5.5-4.9,9.54,9.54,0,0,1,7.4.7,7.134,7.134,0,0,1,9.3-3.8,6.3419,6.3419,0,0,1,2.3,1.6"/>
    <path transform="translate(0 0)" fill="none" stroke="#000" stroke-linecap="round" stroke-linejoin="round" stroke-width="2" d="M21.6,19.9a7.36,7.36,0,0,0-6.5-4.4,6.9629,6.9629,0,0,0-2.5.5h0A7.1086,7.1086,0,0,0,8,22.6H8a4.5292,4.5292,0,0,0-1.6.3,4.15,4.15,0,0,0-1.3.7"/>
  </g>
</svg>
