<svg id="emoji" viewBox="0 0 72 72" xmlns="http://www.w3.org/2000/svg">
  <g id="line">
    <polygon fill="#fff" points="67.964 24.049 68 47.292 49.932 47.292 55.019 37.008 58.641 33.433 59.643 27.783 60.927 24.904 67.964 24.049"/>
    <polygon fill="#fff" points="4.037 24.049 4 47.292 21.48 47.292 18.327 36.079 14.848 32.091 14.967 28.846 11.073 24.904 4.037 24.049"/>
    <path fill="none" stroke="#000" stroke-linecap="round" stroke-miterlimit="10" stroke-width="2" d="M8.48,32.188a7.7528,7.7528,0,0,1,9.8478,4.82"/>
    <path fill="none" stroke="#000" stroke-linecap="round" stroke-miterlimit="10" stroke-width="2" d="M5,24.0262a7.7528,7.7528,0,0,1,9.8478,4.82"/>
    <path fill="none" stroke="#000" stroke-linecap="round" stroke-miterlimit="10" stroke-width="2" d="M54.4754,40.5834a7.7527,7.7527,0,0,1,8.3317-7.127"/>
    <path fill="none" stroke="#000" stroke-linecap="round" stroke-miterlimit="10" stroke-width="2" d="M58.6412,30.7561a7.7529,7.7529,0,0,1,8.3317-7.1271"/>
    <line x1="5.1239" x2="66.8767" y1="47.2929" y2="47.2929" fill="none" stroke="#000" stroke-linecap="round" stroke-miterlimit="10" stroke-width="2"/>
    <path fill="none" stroke="#000" stroke-linecap="round" stroke-miterlimit="10" stroke-width="2" d="M20.49,43.9627a15.6793,15.6793,0,1,1,30.7746.2534"/>
  </g>
</svg>
