<svg id="emoji" xmlns="http://www.w3.org/2000/svg" viewBox="0 0 72 72">
  
  
  
  
  
  <g id="line">
    <circle cx="36" cy="27.25" r="3" fill="#000000" stroke="none"></circle>
    <path fill="none" stroke="#000000" stroke-width="2" stroke-linecap="round" stroke-linejoin="round" stroke-miterlimit="10" d="
		M35.6964,46c-1.7512,1.9458-4.0751,2.277-5.7064,2.2156c-1.3131-0.0494-2.6027-0.445-3.646-1.244
		c-0.9642-0.7385-1.8491-1.9067-0.6881-3.1591c2.6458-2.8542-0.5-3.4375-0.5-3.4375S17.2184,39.8125,21.5934,35
		c2.5981-2.8579,4.0883-6.126,4.9203-8.6047c0.8098-2.4127,0.6517-5.0381-0.405-7.3533c-2.1099-4.6228-5.0514-8.645-8.7365-12.192
		C16.4493,5.9616,16.956,4.419,18.227,4.2595C19.5833,4.0893,20.9654,4,22.3692,4C40.4459,4,55.1,18.3269,55.1,36
		c0,17.6731-14.6541,32-32.7309,32c-1.2874,0-2.5566-0.0751-3.8043-0.2188c-1.3842-0.1595-1.8611-1.9482-0.7056-2.7269
		c7-4.717,9.3849-9.4177,9.7967-13.5995 M25.829,46.515c-3.2644,2.8612,1.8269,4.9398,1.8269,4.9398"></path>
    <path fill="none" stroke="#000000" stroke-width="2" stroke-linecap="round" stroke-linejoin="round" stroke-miterlimit="10" d="
		M31.2188,19.875c0,0,4.7812-3,9.5625,1.9062"></path>
  </g>
</svg>