<?xml version="1.0" encoding="utf-8"?>
<!-- Generator: Adobe Illustrator 19.1.0, SVG Export Plug-In . SVG Version: 6.00 Build 0)  -->
<svg version="1.1" id="emoji" xmlns="http://www.w3.org/2000/svg" xmlns:xlink="http://www.w3.org/1999/xlink" x="0px" y="0px"
	 viewBox="0 0 72 72" enable-background="new 0 0 72 72" xml:space="preserve">
<g id="_xD83C__xDF1E__1_">
	<g>
		
			<polygon fill="none" stroke="#000000" stroke-width="2" stroke-linecap="round" stroke-linejoin="round" stroke-miterlimit="10" points="
			36,10 31.4,4.3 28.7,11 22.7,6.9 21.9,14.1 15,11.8 16.3,19 9.1,18.7 12.3,25.2 5.3,27 10.3,32.3 4,36 10.3,39.7 5.3,45 
			12.3,46.8 9.1,53.3 16.3,53 15,60.2 21.9,57.9 22.7,65.1 28.7,61 31.4,67.7 36,62 40.6,67.7 43.3,61 49.3,65.1 50.1,57.9 57,60.2 
			55.7,53 62.9,53.3 59.7,46.8 66.7,45 61.7,39.7 68,36 61.7,32.3 66.7,27 59.7,25.2 62.9,18.7 55.7,19 57,11.8 50.1,14.1 49.3,6.9 
			43.3,11 40.6,4.3 		"/>
	</g>
	<g>
		<circle cx="27.8" cy="33.8" r="3"/>
		<circle cx="44.2" cy="33.8" r="3"/>
	</g>
	<path fill="none" stroke="#000000" stroke-width="2" stroke-linecap="round" stroke-linejoin="round" stroke-miterlimit="10" d="
		M43.7,46.4c-2.1,1.6-4.8,2.6-7.7,2.6c-2.9,0-5.5-0.9-7.7-2.6"/>
	<g>
		<path fill="none" stroke="#000000" stroke-width="2" stroke-linecap="round" stroke-linejoin="round" stroke-miterlimit="10" d="
			M31.8,23c0,0-4.8-2.6-9.5,1.7"/>
		<path fill="none" stroke="#000000" stroke-width="2" stroke-linecap="round" stroke-linejoin="round" stroke-miterlimit="10" d="
			M40.2,23c0,0,4.8-2.6,9.5,1.7"/>
	</g>
</g>
</svg>
