<?xml version="1.0" encoding="utf-8"?>
<!-- Generator: Adobe Illustrator 19.1.0, SVG Export Plug-In . SVG Version: 6.00 Build 0)  -->
<svg version="1.1" id="emoji" xmlns="http://www.w3.org/2000/svg" xmlns:xlink="http://www.w3.org/1999/xlink" x="0px" y="0px"
	 viewBox="0 0 72 72" enable-background="new 0 0 72 72" xml:space="preserve">
<g id="_xD83C__xDF1B__1_">
	<circle cx="36" cy="27.2" r="3"/>
	<path fill="none" stroke="#000000" stroke-width="2" stroke-linecap="round" stroke-linejoin="round" stroke-miterlimit="10" d="
		M35.7,46c-1.8,1.9-4.1,2.3-5.7,2.2c-1.3,0-2.6-0.4-3.6-1.2c-1-0.7-1.8-1.9-0.7-3.2c2.6-2.9-0.5-3.4-0.5-3.4s-7.9-0.6-3.6-5.4
		c2.6-2.9,4.1-6.1,4.9-8.6c0.8-2.4,0.7-5-0.4-7.4c-2.1-4.6-5.1-8.6-8.7-12.2C16.4,6,17,4.4,18.2,4.3C19.6,4.1,21,4,22.4,4
		c18.1,0,32.7,14.3,32.7,32c0,17.7-14.7,32-32.7,32c-1.3,0-2.6-0.1-3.8-0.2c-1.4-0.2-1.9-1.9-0.7-2.7c7-4.7,9.4-9.4,9.8-13.6
		 M25.8,46.5c-3.3,2.9,1.8,4.9,1.8,4.9"/>
	<path fill="none" stroke="#000000" stroke-width="2" stroke-linecap="round" stroke-linejoin="round" stroke-miterlimit="10" d="
		M31.2,19.9c0,0,4.8-3,9.6,1.9"/>
</g>
</svg>
