<svg id="emoji" viewBox="0 0 72 72" xmlns="http://www.w3.org/2000/svg">
  <g id="line">
    <path fill="none" stroke="#000" stroke-linecap="round" stroke-linejoin="round" stroke-width="2" d="m38.3874,35.9133c-.7217.1599-1.9748.2657-3.3999.2657-2.2364,0-4.0494-.2606-4.0494-.582"/>
    <path fill="none" stroke="#000" stroke-linecap="round" stroke-linejoin="round" stroke-width="2" d="m38.3874,43.6108c-.7217.1599-1.9748.2657-3.3999.2657-2.2364,0-4.0494-.2606-4.0494-.582"/>
    <path fill="none" stroke="#000" stroke-linecap="round" stroke-linejoin="round" stroke-width="2" d="m38.3874,28.2158c-.7217.1599-1.9748.2657-3.3999.2657-2.2364,0-4.0494-.2606-4.0494-.582"/>
    <path fill="none" stroke="#000" stroke-linecap="round" stroke-linejoin="round" stroke-width="2" d="m38.3874,20.5183c-.7217.1599-1.9748.2657-3.3999.2657-2.2364,0-4.0494-.2606-4.0494-.582"/>
    <path fill="none" stroke="#000" stroke-linecap="round" stroke-linejoin="round" stroke-width="2" d="m29.6634,49.4624c1.2934-.9629,1.2755-2.2365,1.2755-2.2365V8.6385c0-2.807,2.2755-5.0825,5.0825-5.0825s5.0825,2.2755,5.0825,5.0825v38.5874s.0052,1.2859,1.2986,2.2488c2.3101,1.8633,3.7879,4.7172,3.7879,7.9162,0,5.614-4.5511,10.1651-10.1651,10.1651s-10.1651-4.5511-10.1651-10.1651c0-1.5355.3405-2.9915.95-4.2966"/>
    <path fill="none" stroke="#000" stroke-linecap="round" stroke-linejoin="round" stroke-width="2" d="m38.3874,12.8208c-.7217.1599-1.9748.2657-3.3999.2657-2.2364,0-4.0494-.2606-4.0494-.582"/>
  </g>
</svg>
