<?xml version="1.0" encoding="utf-8"?>
<!-- Generator: Adobe Illustrator 21.1.0, SVG Export Plug-In . SVG Version: 6.00 Build 0)  -->
<svg version="1.1" id="emoji" xmlns="http://www.w3.org/2000/svg" xmlns:xlink="http://www.w3.org/1999/xlink" x="0px" y="0px"
	 viewBox="0 0 72 72" enable-background="new 0 0 72 72" xml:space="preserve">
<g id="_xD83C__xDF26__xFE0F__1_">
	<g>
		<g>
			<g>
				
					<path fill="none" stroke="#000000" stroke-width="1.8" stroke-linecap="round" stroke-linejoin="round" stroke-miterlimit="10" d="
					M28.6,60.2c-0.8,1.2-2.1,1.6-3.1,1s-1.1-2.1-0.4-3.2c0,0,0.9-1.5,4-3c0,0,0.6-0.4,0.6,0.3C29.5,58.7,28.6,60.2,28.6,60.2"/>
			</g>
		</g>
		<g>
			<g>
				
					<path fill="none" stroke="#000000" stroke-width="1.8" stroke-linecap="round" stroke-linejoin="round" stroke-miterlimit="10" d="
					M58.7,60.2c-0.8,1.2-2.1,1.6-3.1,1s-1.1-2.1-0.4-3.2c0,0,0.9-1.5,4-3c0,0,0.6-0.4,0.6,0.3C59.6,58.7,58.7,60.2,58.7,60.2"/>
			</g>
		</g>
		<g>
			<g>
				
					<path fill="none" stroke="#000000" stroke-width="1.8" stroke-linecap="round" stroke-linejoin="round" stroke-miterlimit="10" d="
					M43.6,60.2c-0.8,1.2-2.1,1.6-3.1,1c-1-0.6-1.1-2.1-0.4-3.2c0,0,0.9-1.5,4-3c0,0,0.6-0.4,0.6,0.3C44.5,58.7,43.6,60.2,43.6,60.2"
					/>
			</g>
		</g>
		<g>
			<g>
				
					<path fill="none" stroke="#000000" stroke-width="1.8" stroke-linecap="round" stroke-linejoin="round" stroke-miterlimit="10" d="
					M35.6,67.7c-0.8,1.2-2.1,1.6-3.1,1c-1-0.6-1.1-2.1-0.4-3.2c0,0,0.9-1.5,4-3c0,0,0.6-0.4,0.6,0.3C36.5,66.3,35.6,67.7,35.6,67.7"
					/>
			</g>
		</g>
		<g>
			<g>
				
					<path fill="none" stroke="#000000" stroke-width="1.8" stroke-linecap="round" stroke-linejoin="round" stroke-miterlimit="10" d="
					M50.6,67.7c-0.8,1.2-2.1,1.6-3.1,1c-1-0.6-1.1-2.1-0.4-3.2c0,0,0.9-1.5,4-3c0,0,0.6-0.4,0.6,0.3C51.6,66.3,50.6,67.7,50.6,67.7"
					/>
			</g>
		</g>
	</g>
	<path fill="none" stroke="#000000" stroke-width="2" stroke-linecap="round" stroke-linejoin="round" stroke-miterlimit="10" d="
		M25.5,30.6c0,0.4-0.3,0.6-0.7,0.7c-4.3,0.5-7.6,4.7-7.6,9.8c0,5.5,3.8,9.9,8.5,9.9l32.2,0c5.1,0,9.3-4.7,9.3-10.4
		c0-5.5-3.8-10.1-8.7-10.4c-0.4,0-0.7-0.3-0.7-0.6c-1.1-5.5-6.1-9.7-12-9.7c-3.8,0-7.2,1.7-9.5,4.5c-0.2,0.3-0.6,0.4-0.9,0.3
		c-0.9-0.4-1.8-0.5-2.8-0.5C28.9,24,25.8,26.9,25.5,30.6z"/>
	<g>
		
			<polyline fill="none" stroke="#000000" stroke-width="1.9" stroke-linecap="round" stroke-linejoin="round" stroke-miterlimit="10" points="
			14.4,33.7 11.2,35.5 12.9,27.5 4.8,26.3 10.8,20.9 5,15.2 13.1,14.3 11.7,6.3 18.8,10.3 22.4,3 25.7,10.4 32.9,6.6 31.2,14.6 
			39.3,15.8 36.4,18.2 		"/>
		
			<path fill="none" stroke="#000000" stroke-width="1.9" stroke-linecap="round" stroke-linejoin="round" stroke-miterlimit="10" d="
			M17.4,30.8c-3.6-1.7-6.1-5.4-6.1-9.7c0-6,4.8-10.8,10.8-10.8c5.6,0,10.2,4.3,10.7,9.7"/>
	</g>
</g>
</svg>
