<svg id="emoji" viewBox="0 0 72 72" xmlns="http://www.w3.org/2000/svg">
  <g id="line">
    <path fill="none" stroke="#000" stroke-linecap="round" stroke-linejoin="round" stroke-width="2" d="m5.3,11.8c1.3-1.5,3.2-1.9,5.2-1.9,1.917-.0342,3.7629.7259,5.1,2.1.6753.597,1.1909,1.3532,1.5,2.2,2.2706-1.2242,4.9401-1.4767,7.4-.7.1,0,.2.1.3.1.5183.1919,1.02.426,1.5.7.2803.1438.5479.3111.8.5"/>
    <path fill="none" stroke="#000" stroke-linecap="round" stroke-linejoin="round" stroke-width="2" d="m24.5,24c.3678-4.0162,3.9218-6.9738,7.938-6.6059.0207.0019.0414.0039.062.0059.8208.1052,1.6263.3066,2.4.6.2539-5.2313,4.6658-9.2868,9.9-9.1,1.5021.0913,2.9677.5003,4.3,1.2,1.5646-3.7406,5.8653-5.5047,9.6059-3.9401.0315.0132.0628.0265.0941.0401,2.7194,1.1694,4.4867,3.8399,4.5,6.8h0c.3,0,3.4.9,3.5,1"/>
    <path fill="none" stroke="#000" stroke-linecap="round" stroke-linejoin="round" stroke-width="2" d="m38.2,30.3c0-2.5,1.3-4.4,4.2-6.3,1.5192-.9008,3.2359-1.4158,5-1.5,1.5798-.0054,3.1327.4087,4.5,1.2,1.5313-3.6048,5.6825-5.3009,9.3-3.8,2.596,1.1385,4.3075,3.6668,4.4,6.5h0"/>
    <path fill="none" stroke="#000" stroke-linecap="round" stroke-linejoin="round" stroke-width="2" d="m42.4,38.4c-1.4715-1.5992-3.8853-1.8956-5.7-.7-1.4-6.8-5.6-7.6-6.6-8.1-.5249-.3029-1.1012-.5063-1.7-.6h0c-.7494-.2043-1.5232-.3053-2.3-.3-1.3069.0146-2.5981.2864-3.8.8h0c-.2534.0947-.4898.2298-.7.4-1.1385-2.596-3.6668-4.3075-6.5-4.4-.857.0114-1.7045.1809-2.5.5h0c-2.7505,1.0373-4.5788,3.6605-4.6,6.6h0c-.5471.0025-1.0892.1042-1.6.3-.4717.1538-.912.3908-1.3.7"/>
    <path fill="none" stroke="#000" stroke-linecap="round" stroke-linejoin="round" stroke-width="2" d="m47.9,41.1c.1632-4.032,3.5641-7.1682,7.5961-7.0049.0346.0014.0693.0031.1039.0049,1.1628.072,2.2928.4145,3.3,1,1.2199-2.8671,4.5008-4.2416,7.4-3.1"/>
    <path fill="none" stroke="#000" stroke-linecap="round" stroke-linejoin="round" stroke-width="2" d="m18.3,44.3c.7103-.4718,1.5475-.716,2.4-.7h0c.0118-2.8118,2.2882-5.0882,5.1-5.1,2.0531-.0246,3.9143,1.203,4.7,3.1,3.1529-1.8012,7.1691-.7055,8.9703,2.4474.01.0175.0199.035.0297.0526.5077.9255.8144,1.9478.9,3"/>
    <path fill="none" stroke="#000" stroke-linecap="round" stroke-linejoin="round" stroke-width="2" d="m33.1,66.4c2.1933-2.5153,2.1066-6.2881-.2-8.7-.1407-.1629-.3102-.2984-.5-.4-1.8858-1.6261-4.5561-1.9795-6.8-.9-.0716-1.2578-.4126-2.4855-1-3.6-1.45-2.6127-4.212-4.2239-7.2-4.2-1.4366.0219-2.8453.3999-4.1,1.1-.9874-2.3815-3.3221-3.9248-5.9-3.9-.7857-.0221-1.5679.1139-2.3.4"/>
    <path fill="none" stroke="#000" stroke-linecap="round" stroke-linejoin="round" stroke-width="2" d="m36.4,54.7c.6272-.116,1.2624-.1829,1.9-.2,1.0022-.053,2.0011.1537,2.9.6.0355-.8133.1699-1.6192.4-2.4.0896-.3492.2241-.6853.4-1-.0012-.0541.0417-.0988.0958-.1.0014,0,.0028,0,.0042,0l.3-.6c.6392-1.09,1.4891-2.0418,2.5-2.8.2521-.1889.5197-.3562.8-.5.48-.274.9817-.5081,1.5-.7.1,0,.2-.1.3-.1,2.4599-.7767,5.1294-.5242,7.4.7.3091-.8468.8247-1.603,1.5-2.2,1.3371-1.3741,3.183-2.1342,5.1-2.1,2,0,3.9.4,5.2,1.9"/>
  </g>
</svg>
