<?xml version="1.0" encoding="utf-8"?>
<!-- Generator: Adobe Illustrator 19.1.0, SVG Export Plug-In . SVG Version: 6.00 Build 0)  -->
<svg version="1.1" id="emoji" xmlns="http://www.w3.org/2000/svg" xmlns:xlink="http://www.w3.org/1999/xlink" x="0px" y="0px"
	 viewBox="0 0 72 72" enable-background="new 0 0 72 72" xml:space="preserve">
<g id="_xD83C__xDF29__xFE0F__1_">
	<path fill="none" stroke="#000000" stroke-width="1.8" stroke-linecap="round" stroke-linejoin="round" stroke-miterlimit="10" d="
		M31.1,42.9l-3.8,6.8c-0.3,0.3-0.1,0.7,0.4,0.7h8.4l-5.8,9.2c-0.3,0.5,0.3,1,0.8,0.6L44.7,47c0.3-0.3,0.1-0.7-0.3-0.7h-8.2l1.5-3.4
		L31.1,42.9z"/>
	<path fill="none" stroke="#000000" stroke-width="2" stroke-linecap="round" stroke-linejoin="round" stroke-miterlimit="10" d="
		M19.3,22.5c0,0.4-0.3,0.6-0.7,0.7C14.3,23.6,11,27.8,11,33c0,5.5,3.8,9.9,8.5,9.9h32.2c5.1,0,9.3-4.7,9.3-10.4
		c0-5.5-3.8-10.1-8.7-10.4c-0.4,0-0.7-0.3-0.7-0.6c-1.1-5.5-6.1-9.7-12-9.7c-3.8,0-7.2,1.7-9.5,4.5c-0.2,0.3-0.6,0.4-0.9,0.3
		c-0.9-0.4-1.8-0.5-2.8-0.5C22.7,15.9,19.6,18.8,19.3,22.5z"/>
</g>
</svg>
