<svg id="emoji" viewBox="0 0 72 72" xmlns="http://www.w3.org/2000/svg">
  <g id="line">
    <polyline fill="none" stroke="#000000" stroke-linecap="round" stroke-linejoin="round" stroke-miterlimit="10" stroke-width="1.9" points="11.2649,40.762 8.0651,42.558 9.731,34.5816 1.6667,33.4196 7.7025,27.9466 1.8613,22.2652 9.9649,21.3884 8.5716,13.3574 15.644,17.4142 19.239,10.0962 22.5746,17.5334 29.7833,13.7289 28.1174,21.7053 36.1818,22.8673 33.2577,25.2498"/>
    <path fill="none" stroke="#000000" stroke-linecap="round" stroke-linejoin="round" stroke-miterlimit="10" stroke-width="1.9" d="M14.2551,37.865c-3.6168-1.7402-6.1131-5.4394-6.1131-9.7216c0-5.9549,4.8274-10.7822,10.7822-10.7822 c5.59,0,10.1864,4.2539,10.7287,9.7012"/>
    <path fill="none" stroke="#000000" stroke-linecap="round" stroke-linejoin="round" stroke-miterlimit="10" stroke-width="2" d="M20.9631,37.7488c-0.0366,0.4183-0.3756,0.7568-0.7953,0.8018c-5.0879,0.545-9.0012,5.5548-9.0012,11.6528 c0,6.462,4.4814,11.7005,10.0096,11.7005l38.1602,0c6.0734,0,10.997-5.536,10.997-12.3649c0-6.5444-4.5218-11.9014-10.2441-12.3364 c-0.4378-0.0333-0.7928-0.3397-0.8763-0.7685c-1.2783-6.5642-7.1753-11.4971-14.1471-11.4971 c-4.531,0-8.5673,2.0513-11.1884,5.3146c-0.2561,0.3189-0.686,0.465-1.0641,0.3064c-1.0086-0.423-2.0738-0.6277-3.2657-0.6277 C25.0438,29.9303,21.3469,33.3675,20.9631,37.7488z"/>
  </g>
</svg>
