<svg id="emoji" viewBox="0 0 72 72" xmlns="http://www.w3.org/2000/svg">
  <g id="line">
    <path transform="translate(0 0)" fill="none" stroke="#000" stroke-linecap="round" stroke-linejoin="round" stroke-width="2" d="M5.3,11.8c1.3-1.5,3.2-1.9,5.2-1.9A6.9434,6.9434,0,0,1,15.6,12a5.4145,5.4145,0,0,1,1.5,2.2,9.54,9.54,0,0,1,7.4-.7c.1,0,.2.1.3.1a10.0922,10.0922,0,0,1,1.5.7,5.5821,5.5821,0,0,1,.8.5"/>
    <path transform="translate(0 0)" fill="none" stroke="#000" stroke-linecap="round" stroke-linejoin="round" stroke-width="2" d="M24.5,24a7.3024,7.3024,0,0,1,8-6.6,10.548,10.548,0,0,1,2.4.6,9.57,9.57,0,0,1,9.9-9.1,10.6351,10.6351,0,0,1,4.3,1.2,7.3416,7.3416,0,0,1,9.7-3.9A7.4385,7.4385,0,0,1,63.3,13h0c.3,0,.5.1.8.1a4.3311,4.3311,0,0,1,.5.1h.1a.3674.3674,0,0,1,.3.1,6.3729,6.3729,0,0,0,.7.2c.2.1.5.2.7.3.1.1.3.1.4.2"/>
    <path transform="translate(0 0)" fill="none" stroke="#000" stroke-linecap="round" stroke-linejoin="round" stroke-width="2" d="M38.2,30.3c0-2.5,1.3-4.4,4.2-6.3a10.8145,10.8145,0,0,1,5-1.5,8.9233,8.9233,0,0,1,4.5,1.2,7.134,7.134,0,0,1,9.3-3.8,7.36,7.36,0,0,1,4.4,6.5h0"/>
    <path transform="translate(0 0)" fill="none" stroke="#000" stroke-linecap="round" stroke-linejoin="round" stroke-width="2" d="M42.4,38.4a4.4322,4.4322,0,0,0-5.7-.7c-1.4-6.8-5.6-7.6-6.6-8.1a4.9235,4.9235,0,0,0-1.7-.6h0a8.5239,8.5239,0,0,0-2.3-.3,9.9542,9.9542,0,0,0-3.8.8h0a2.5065,2.5065,0,0,0-.7.4,7.36,7.36,0,0,0-6.5-4.4,6.9629,6.9629,0,0,0-2.5.5h0A7.1086,7.1086,0,0,0,8,32.6H8a4.5292,4.5292,0,0,0-1.6.3,4.15,4.15,0,0,0-1.3.7"/>
    <path transform="translate(0 0)" fill="none" stroke="#000" stroke-linecap="round" stroke-linejoin="round" stroke-width="2" d="M47.9,41.1a7.3065,7.3065,0,0,1,7.7-7,7.4871,7.4871,0,0,1,3.3,1A5.7518,5.7518,0,0,1,66.3,32"/>
    <path transform="translate(0 0)" fill="none" stroke="#000" stroke-linecap="round" stroke-linejoin="round" stroke-width="2" d="M18.3,44.3a4.1956,4.1956,0,0,1,2.4-.7h0a5.1215,5.1215,0,0,1,5.1-5.1,5.022,5.022,0,0,1,4.7,3.1,6.5748,6.5748,0,0,1,9,2.5,7.5019,7.5019,0,0,1,.9,3"/>
    <path transform="translate(0 0)" fill="none" stroke="#000" stroke-linecap="round" stroke-linejoin="round" stroke-width="2" d="M33.1,66.4a6.4522,6.4522,0,0,0-.2-8.7,1.7556,1.7556,0,0,0-.5-.4,6.2582,6.2582,0,0,0-6.8-.9,8.7923,8.7923,0,0,0-1-3.6,8.16,8.16,0,0,0-7.2-4.2,8.6862,8.6862,0,0,0-4.1,1.1,6.3213,6.3213,0,0,0-5.9-3.9,5.867,5.867,0,0,0-2.3.4"/>
    <path transform="translate(0 0)" fill="none" stroke="#000" stroke-linecap="round" stroke-linejoin="round" stroke-width="2" d="M36.4,54.7a12.2523,12.2523,0,0,1,1.9-.2,5.8289,5.8289,0,0,1,2.9.6,10.0387,10.0387,0,0,1,.4-2.4,4.1792,4.1792,0,0,1,.4-1,.0979.0979,0,0,1,.1-.1l.3-.6a9.52,9.52,0,0,1,2.5-2.8,5.5821,5.5821,0,0,1,.8-.5,10.0922,10.0922,0,0,1,1.5-.7c.1,0,.2-.1.3-.1a9.54,9.54,0,0,1,7.4.7,5.4145,5.4145,0,0,1,1.5-2.2,6.9434,6.9434,0,0,1,5.1-2.1c2,0,3.9.4,5.2,1.9"/>
  </g>
</svg>
