<?xml version="1.0" encoding="utf-8"?>
<!-- Generator: Adobe Illustrator 21.1.0, SVG Export Plug-In . SVG Version: 6.00 Build 0)  -->
<svg version="1.1" id="emoji" xmlns="http://www.w3.org/2000/svg" xmlns:xlink="http://www.w3.org/1999/xlink" x="0px" y="0px"
	 viewBox="0 0 72 72" enable-background="new 0 0 72 72" xml:space="preserve">
<g id="_xD83C__xDF21__xFE0F__1_">
	<path fill="none" stroke="#000000" stroke-width="2" stroke-linecap="round" stroke-linejoin="round" stroke-miterlimit="10" d="
		M38.4,36.4c-0.7,0.2-2,0.3-3.4,0.3c-2.2,0-4-0.3-4-0.6"/>
	<path fill="none" stroke="#000000" stroke-width="2" stroke-linecap="round" stroke-linejoin="round" stroke-miterlimit="10" d="
		M38.4,44.1c-0.7,0.2-2,0.3-3.4,0.3c-2.2,0-4-0.3-4-0.6"/>
	<path fill="none" stroke="#000000" stroke-width="2" stroke-linecap="round" stroke-linejoin="round" stroke-miterlimit="10" d="
		M38.4,28.7c-0.7,0.2-2,0.3-3.4,0.3c-2.2,0-4-0.3-4-0.6"/>
	<path fill="none" stroke="#000000" stroke-width="2" stroke-linecap="round" stroke-linejoin="round" stroke-miterlimit="10" d="
		M38.4,21c-0.7,0.2-2,0.3-3.4,0.3c-2.2,0-4-0.3-4-0.6"/>
	<g>
		<path fill="none" stroke="#000000" stroke-width="2" stroke-linecap="round" stroke-linejoin="round" stroke-miterlimit="10" d="
			M29.6,49.9c1.3-1,1.3-2.2,1.3-2.2V9.1C30.9,6.3,33.2,4,36,4s5.1,2.3,5.1,5.1v38.6c0,0,0,1.3,1.3,2.2c2.3,1.9,3.8,4.7,3.8,7.9
			C46.2,63.4,41.6,68,36,68s-10.2-4.6-10.2-10.2c0-1.5,0.3-3,1-4.3"/>
		<path fill="none" stroke="#000000" stroke-width="2" stroke-linecap="round" stroke-linejoin="round" stroke-miterlimit="10" d="
			M38.4,13.3c-0.7,0.2-2,0.3-3.4,0.3c-2.2,0-4-0.3-4-0.6"/>
	</g>
</g>
</svg>
