<svg id="emoji" viewBox="0 0 72 72" xmlns="http://www.w3.org/2000/svg">
  <g id="line">
    <polyline fill="none" stroke="#000" stroke-linecap="round" stroke-linejoin="round" stroke-width="1.9" points="14.5238 33.667 11.324 35.463 12.9899 27.4866 4.9255 26.3246 10.9614 20.8516 5.1201 15.1703 13.2238 14.2934 11.8304 6.2625 18.9028 10.3193 22.4979 3.0012 25.8335 10.4384 33.0422 6.634 31.3763 14.6103 39.4406 15.7723 36.5166 18.1549"/>
    <path fill="none" stroke="#000" stroke-linecap="round" stroke-linejoin="round" stroke-width="1.9" d="m32.9118,19.9675c-.5423-5.4473-5.1387-9.7012-10.7287-9.7012-5.9549,0-10.7822,4.8274-10.7822,10.7822,0,4.2822,2.4963,7.9814,6.1131,9.7216"/>
    <path fill="none" stroke="#000" stroke-linecap="round" stroke-linejoin="round" stroke-width="2" d="m25.6193,30.5602c-.031.3535-.3174.6396-.6721.6775-4.2996.4606-7.6067,4.6942-7.6067,9.8474,0,5.4608,3.7871,9.8877,8.4588,9.8877h32.248c5.1325,0,9.2932-4.6783,9.2932-10.4492,0-5.5305-3.8212-10.0575-8.6569-10.4251-.37-.0281-.67-.2871-.7406-.6494-1.0803-5.5472-6.0636-9.7159-11.9553-9.7159-3.829,0-7.2399,1.7335-9.4549,4.4912-.2164.2695-.5797.3929-.8992.2589-.8523-.3575-1.7525-.5304-2.7597-.5304-3.806.0001-6.9302,2.9047-7.2546,6.6073Z"/>
    <path fill="none" stroke="#000" stroke-linecap="round" stroke-linejoin="round" stroke-width="1.8" d="m28.6934,59.2233c-.7516,1.1632-2.1343,1.6031-3.0902.9854s-1.1216-2.0613-.37-3.2245c0,0,.8761-1.5078,4.0066-3.0386,0,0,.6168-.3534.5724.3205-.1914,3.5001-1.1188,4.9572-1.1188,4.9572"/>
    <path fill="none" stroke="#000" stroke-linecap="round" stroke-linejoin="round" stroke-width="1.8" d="m58.798,59.2233c-.7516,1.1632-2.1343,1.6031-3.0902.9854s-1.1216-2.0613-.37-3.2245c0,0,.8761-1.5078,4.0066-3.0386,0,0,.6168-.3534.5724.3205-.1914,3.5001-1.1188,4.9572-1.1188,4.9572"/>
    <path fill="none" stroke="#000" stroke-linecap="round" stroke-linejoin="round" stroke-width="1.8" d="m43.7457,59.2233c-.7516,1.1632-2.1343,1.6031-3.0902.9854s-1.1216-2.0613-.37-3.2245c0,0,.8761-1.5078,4.0066-3.0386,0,0,.6168-.3534.5724.3205-.1914,3.5001-1.1188,4.9572-1.1188,4.9572"/>
    <path fill="none" stroke="#000" stroke-linecap="round" stroke-linejoin="round" stroke-width="1.8" d="m35.7196,66.7944c-.7516,1.1632-2.1343,1.603-3.0902.9854-.9559-.6177-1.1216-2.0613-.37-3.2245,0,0,.8761-1.5078,4.0066-3.0385,0,0,.6168-.3534.5724.3205-.1915,3.5001-1.1188,4.9571-1.1188,4.9571"/>
    <path fill="none" stroke="#000" stroke-linecap="round" stroke-linejoin="round" stroke-width="1.8" d="m50.7719,66.7944c-.7516,1.1632-2.1343,1.603-3.0902.9854-.9559-.6177-1.1216-2.0613-.37-3.2245,0,0,.8761-1.5078,4.0066-3.0385,0,0,.6168-.3534.5724.3205-.1915,3.5001-1.1188,4.9571-1.1188,4.9571"/>
  </g>
</svg>
