<svg id="emoji" viewBox="0 0 72 72" xmlns="http://www.w3.org/2000/svg">
  <g id="line">
    <path fill="none" stroke="#000000" stroke-miterlimit="10" stroke-width="2" d="M16.9266,23.4983l.0839.1938C34.5076,34.1845,57,23.6136,57,23.6136A23.8426,23.8426,0,0,0,37.6436,13.506"/>
    <path fill="none" stroke="#000000" stroke-miterlimit="10" stroke-width="2" d="M16,23.6136c17.4971,10.4924,41,0,41,0"/>
    <path fill="none" stroke="#000000" stroke-miterlimit="10" stroke-width="2" d="M46.4732,27.5435s4.6059,13.5332-1.1843,25.3016"/>
    <path fill="none" stroke="#000000" stroke-miterlimit="10" stroke-width="2" d="M46.4732,27.5435s4.6059,13.5332-1.1843,25.3016"/>
    <path fill="none" stroke="#000000" stroke-linecap="round" stroke-linejoin="round" stroke-width="2" d="M21.9774,17.807C15.82,21.79,11.7326,28.1967,12.1108,35.5487c.3892,7.5649,6.78,14.6806,13.5472,16.3619,4.101,1.0189,8.7043,4.8382,10.0172,5.9834a.625.625,0,0,0,.7731.0409A69.4328,69.4328,0,0,1,44.9966,52.95c8.5745-4.2024,13.5034-9.836,14.977-17.4009,2.291-11.7612-10.0847-22.0421-23.3016-22.0421a27.39,27.39,0,0,0-11.3832,2.4845"/>
    <path fill="none" stroke="#000000" stroke-miterlimit="10" stroke-width="2" d="M27.0255,27.5435A113.7564,113.7564,0,0,0,28.21,52.8451"/>
  </g>
</svg>
