<svg id="emoji" viewBox="0 0 72 72" xmlns="http://www.w3.org/2000/svg">
  <g id="line">
    <polyline fill="none" stroke="#000" stroke-linecap="round" stroke-linejoin="round" stroke-width="2" points="35.7895 63.9434 35.7895 52.7764 28.1585 45.2604"/>
    <line x1="35.7895" x2="40.1575" y1="52.7764" y2="48.2304" fill="none" stroke="#000" stroke-linecap="round" stroke-linejoin="round" stroke-width="2"/>
    <path fill="none" stroke="#000" stroke-linecap="round" stroke-miterlimit="10" stroke-width="2" d="m63.3745,25.7734c0-5-5.289-9.061-11.813-9.061-.5451.0044-1.0895.0378-1.631.1-2.763-5.216-8.762-8.839-15.738-8.839-9.593,0-17.369,6.836-17.369,15.268.0017.5574.0378,1.1141.108,1.667-4.288,1.359-7.306,4.595-7.306,8.374,0,5,5.289,9.061,11.813,9.061,2.4798.021,4.922-.6072,7.084-1.822,2.791,2.229,7.257,3.681,12.307,3.681,8.461,0,15.32-4.057,15.32-9.061-.0014-.3308-.0329-.6609-.094-.986,4.293-1.36,7.319-4.598,7.319-8.382Z"/>
  </g>
</svg>
