<svg id="emoji" viewBox="0 0 72 72" version="1.1" xmlns="http://www.w3.org/2000/svg">
  <g id="line">
    <path fill="none" stroke="#000000" stroke-miterlimit="10" stroke-width="2" d="M55.4439,43.1392 c3.9189,3.9189,3.7265,10.4004-0.5773,14.0676c-3.821,3.2558-9.5884,2.7869-13.1692-0.7314 c-9.1932-9.0327-20.4663-9.4964-21.8012-9.5195c-0.0506-0.0009-0.0777-0.0591-0.043-0.096 c1.404-1.4949,19.344-19.9446,35.1903-4.0983C55.1807,42.8875,55.3123,43.0076,55.4439,43.1392z"/>
    <path fill="none" stroke="#000000" stroke-linecap="round" stroke-miterlimit="10" stroke-width="2" d="M37.4872,32.4593 c0.6253-1.3559,1.3429-2.6301,2.0763-3.8017c2.6065-4.148,5.5172-6.9573,6.075-7.4847c0.0305-0.0304,0.0913-0.0101,0.0913,0.0406 c0.0198,0.8707,0.2197,5.9457,2.8433,11.9158l0.2619,0.5604"/>
    <path fill="none" stroke="#000000" stroke-linecap="round" stroke-miterlimit="10" stroke-width="2" d="M36.1052,25.1992 c-5.649-5.649-11.3082-8.9958-15.5678-9.7768c-0.6389-0.1115-1.2373-0.1724-1.8052-0.1724c-1.572,0-2.8702,0.4564-3.7931,1.3691 c-3.4584,3.4686-0.2535,12.3326,8.58,21.1661"/>
  </g>
</svg>
