<svg id="emoji" viewBox="0 0 72 72" xmlns="http://www.w3.org/2000/svg">
  <g id="line">
    <path fill="none" stroke="#000000" stroke-linecap="round" stroke-linejoin="round" stroke-miterlimit="10" stroke-width="2" d="M41.5164,63.7969V14.8472c0-3.9562-2.9398-7.1634-6.5664-7.1634s-6.5664,3.2072-6.5664,7.1634v48.9497"/>
    <path fill="none" stroke="#000000" stroke-linecap="round" stroke-linejoin="round" stroke-miterlimit="10" stroke-width="2" d="M24.5244,44.6946h-6.3643c-3.7382,0-6.7685-3.0303-6.7685-6.7686V26.7862c0-2.7923,2.3964-5.0247,5.2447-4.7531 c2.4829,0.2367,4.3065,2.4642,4.3065,4.9584v4.7678c0,1.869,1.5152,3.3842,3.3842,3.3842h0.1975"/>
    <path fill="none" stroke="#000000" stroke-linecap="round" stroke-linejoin="round" stroke-miterlimit="10" stroke-width="2" d="M45.2885,53.0519h8.3573c2.6374,0,4.7756-2.1381,4.7756-4.7756V30.5731c0-2.4942-1.8236-4.7216-4.3065-4.9584 c-2.8483-0.2716-5.2447,1.9609-5.2447,4.7531v6.3643c0,3.7382,0.1565,6.7685-3.5817,6.7685"/>
    <circle cx="37.3378" cy="20.2197" r="1" fill="#000000" stroke="none"/>
    <circle cx="15" cy="26.9065" r="1" fill="#000000" stroke="none"/>
    <circle cx="54.8584" cy="39.3221" r="1" fill="#000000" stroke="none"/>
  </g>
</svg>
