<svg id="emoji" viewBox="0 0 72 72" xmlns="http://www.w3.org/2000/svg">
  <g id="line">
    <path fill="none" stroke="#000000" stroke-linecap="round" stroke-miterlimit="10" stroke-width="2" d="M55.2323,24.3359 c0,0,2.1769-13.0859-9.9082-13.0859"/>
    <path fill="none" stroke="#000000" stroke-linejoin="round" stroke-miterlimit="10" stroke-width="2" d="M31.02,57.7 c-0.05,0.01-0.09,0.01-0.14,0.02"/>
    <path fill="none" stroke="#000000" stroke-linecap="round" stroke-linejoin="round" stroke-miterlimit="10" stroke-width="2" d="M60.1362,35.7529C56.9018,48.383,45.4488,57.7213,31.8078,57.7213c-6.5624,0-12.6151-2.1556-17.4997-5.8085 c-0.9807-0.6664-3.6104-2.0547-2.7698-3.6962c0.8407-1.6414,4.0758-0.3283,4.2563-0.2859 c0.0956,0.0319,0.1911,0.0637,0.2867,0.1062c5.543,1.8795,11.5426,1.9538,15.7264,1.9538c3.8212,0,15.1805-2.7194,17.1531-15.7467"/>
    <path fill="none" stroke="#000000" stroke-linejoin="round" stroke-miterlimit="10" stroke-width="2" d="M48.6055,28.4323 c-0.4282,0.8332,0.3404,1.7472,1.2376,1.4778c1.5002-0.4505,3.4108-0.6393,4.297,0.8565c1.2368,2.0876,5.3387,0.5293,7.0383-0.2337 c0.4606-0.2067,0.7127-0.708,0.5864-1.1968c-0.4177-1.6163-1.8591-5.0003-6.6064-5.0003 C51.464,24.3359,49.5511,26.5926,48.6055,28.4323z"/>
    <path fill="none" stroke="#000000" stroke-linejoin="round" stroke-miterlimit="10" stroke-width="2" d="M61.18,30.53 c-0.07,0.03-0.14,0.06-0.21,0.1c-1.36,0.59-3.8799,1.51-5.54,1.06c-0.54-0.14-1-0.43-1.29-0.92c-0.89-1.5-2.8-1.31-4.3-0.86 c-0.2,0.06-0.4,0.06-0.57,0.02c-0.61-0.16-0.99-0.85-0.66-1.5c0.89-1.74,2.64-3.84,5.95-4.06c0.19-0.02,0.39-0.03,0.6-0.03 c0.19,0,0.38,0.01,0.56,0.03c4.3,0.24,5.65,3.42,6.04,4.97C61.89,29.82,61.64,30.33,61.18,30.53z"/>
  </g>
</svg>
