<?xml version="1.0" encoding="utf-8"?>
<!-- Generator: Adobe Illustrator 21.1.0, SVG Export Plug-In . SVG Version: 6.00 Build 0)  -->
<svg version="1.1" id="emoji" xmlns="http://www.w3.org/2000/svg" xmlns:xlink="http://www.w3.org/1999/xlink" x="0px" y="0px"
	 viewBox="0 0 72 72" enable-background="new 0 0 72 72" xml:space="preserve">
<g id="_xD83C__xDF38_">
	<g>
		<path fill="#FDEB31" d="M48.2,15.4"/>
		<path fill="#FDEB31" d="M60.4,23.9"/>
		<path fill="#FDEB31" d="M46.5,35.7"/>
		<path fill="#FDEB31" d="M48.2,15.9"/>
		<path fill="#FDEB31" d="M47.2,36.2"/>
		<path fill="#FDEB31" d="M45.3,19.2"/>
		<path fill="#FDEB31" d="M34.8,19.4"/>
		<path fill="#FDEB31" d="M34.8,19.4"/>
	</g>
	<path fill="none" stroke="#000000" stroke-width="2" stroke-linecap="round" stroke-linejoin="round" stroke-miterlimit="10" d="
		M37.9,33c-1.9,0-3.4-1.6-3.4-3.5c0-1.9,1.6-3.5,3.5-3.5c0.3,0,0.7,0,1,0.1"/>
	<g>
		
			<line fill="none" stroke="#000000" stroke-width="2" stroke-linecap="round" stroke-linejoin="round" stroke-miterlimit="10" x1="38.3" y1="29.5" x2="40.7" y2="28.5"/>
		<ellipse transform="matrix(0.9127 -0.4087 0.4087 0.9127 -7.2279 20.3218)" cx="43.9" cy="27.1" rx="1.4" ry="1.4"/>
	</g>
	<g>
		
			<line fill="none" stroke="#000000" stroke-width="2" stroke-linecap="round" stroke-linejoin="round" stroke-miterlimit="10" x1="38.3" y1="29.5" x2="40.7" y2="32"/>
	</g>
	<path fill="none" stroke="#1D1D1C" stroke-width="2" stroke-linecap="round" stroke-linejoin="round" stroke-miterlimit="10" d="
		M37.9,33"/>
	<path fill="none" stroke="#000000" stroke-width="2" stroke-linecap="round" stroke-linejoin="round" d="M37.2,43.9
		c-3.4,3.5-7.7,10.2-5.8,20.7"/>
	<path fill="none" stroke="#BAB63E" stroke-width="2" stroke-linecap="round" stroke-linejoin="round" d="M23.8,33.3"/>
	<g>
		<path fill="none" stroke="#1D1D1C" stroke-width="2" stroke-linecap="round" stroke-linejoin="round" stroke-miterlimit="10" d="
			M34.1,24.6c-1.8-3.3-3-8.3,2.2-14l1.6,1.6h0"/>
		<path fill="none" stroke="#1D1D1C" stroke-width="2" stroke-linecap="round" stroke-linejoin="round" stroke-miterlimit="10" d="
			M37.8,12.2L37.8,12.2l1.6-1.6c5.2,5.7,4,10.7,2.2,14h0.2c2.3-2.7,6.3-5.2,13.3-2.6l-0.9,2l0,0l2,0.9c-3.1,6.2-8.7,7.4-12.2,7.2"/>
		<path fill="none" stroke="#1D1D1C" stroke-width="2" stroke-linecap="round" stroke-linejoin="round" stroke-miterlimit="10" d="
			M34.1,24.6c-2.3-2.7-6.2-5.2-13.2-2.6l0.9,2l0,0l-2,0.9c3.1,6.2,8.7,7.4,12.2,7.2"/>
		<path fill="none" stroke="#000000" stroke-width="2" stroke-linecap="round" stroke-linejoin="round" stroke-miterlimit="10" d="
			M31.9,32.1c-3.3,1-8,4-8.8,10.7l2.2,0.2l0,0l-0.2,2.2c11.6,0.4,12.4-9.4,12.4-9.4h0.7c0,0,1,9.7,12.5,9.4L50.6,43l0,0l2.2-0.2
			c-0.9-6.7-5.5-9.7-8.8-10.7"/>
	</g>
	<g>
		<path fill="none" stroke="#000000" stroke-miterlimit="10" d="M48.2,15.4"/>
		<path fill="none" stroke="#000000" stroke-miterlimit="10" d="M60.4,23.9"/>
		<path fill="none" stroke="#FFFFFF" stroke-width="2" stroke-miterlimit="10" d="M46.5,35.7"/>
		<path fill="none" stroke="#000000" stroke-miterlimit="10" d="M48.2,15.9"/>
		<path fill="none" stroke="#FFFFFF" stroke-width="2" stroke-miterlimit="10" d="M47.2,36.2"/>
		<path fill="none" stroke="#FFFFFF" stroke-width="2" stroke-miterlimit="10" d="M45.3,19.2"/>
		<path fill="none" stroke="#010202" stroke-width="2" stroke-linecap="round" stroke-linejoin="round" d="M34.8,19.4"/>
		<path fill="none" stroke="#010202" stroke-width="2" stroke-linecap="round" stroke-linejoin="round" d="M34.8,19.4"/>
	</g>
	<path fill="none" stroke="#000000" stroke-width="2" stroke-linecap="round" stroke-linejoin="round" d="M20.6,46.5
		c-1.3-0.7-2.6-1.7-3.7-3c-4-4.9-2.8-12.5-2.8-12.5s5,0.2,9,2.9"/>
</g>
</svg>
