<?xml version="1.0" encoding="utf-8"?>
<!-- Generator: Adobe Illustrator 19.1.0, SVG Export Plug-In . SVG Version: 6.00 Build 0)  -->
<svg version="1.1" id="emoji" xmlns="http://www.w3.org/2000/svg" xmlns:xlink="http://www.w3.org/1999/xlink" x="0px" y="0px"
	 viewBox="0 0 72 72" enable-background="new 0 0 72 72" xml:space="preserve">
<g id="_xD83C__xDF33__1_">
	<polyline fill="none" stroke="#010202" stroke-width="2" stroke-linecap="round" stroke-linejoin="round" points="33.9,64 
		33.9,52.8 26.3,45.3 	"/>
	
		<line fill="none" stroke="#010202" stroke-width="2" stroke-linecap="round" stroke-linejoin="round" x1="33.9" y1="52.8" x2="38.3" y2="48.3"/>
	<path fill="none" stroke="#010202" stroke-width="2" stroke-miterlimit="10" d="M48,28.4"/>
	<path fill="none" stroke="#010202" stroke-width="2" stroke-linecap="round" stroke-miterlimit="10" d="M61.5,25.8
		c0-5-5.3-9.1-11.8-9.1c-0.5,0-1.1,0-1.6,0.1C45.3,11.6,39.3,8,32.3,8C22.7,8,15,14.9,15,23.3c0,0.6,0,1.1,0.1,1.7
		c-4.3,1.4-7.3,4.6-7.3,8.4c0,5,5.3,9.1,11.8,9.1c2.5,0,4.9-0.6,7.1-1.8c2.8,2.2,7.3,3.7,12.3,3.7c8.5,0,15.3-4.1,15.3-9.1
		c0-0.3,0-0.7-0.1-1C58.5,32.8,61.5,29.6,61.5,25.8z"/>
</g>
</svg>
