<?xml version="1.0" encoding="utf-8"?>
<!-- Generator: Adobe Illustrator 19.1.0, SVG Export Plug-In . SVG Version: 6.00 Build 0)  -->
<svg version="1.1" id="emoji" xmlns="http://www.w3.org/2000/svg" xmlns:xlink="http://www.w3.org/1999/xlink" x="0px" y="0px"
	 viewBox="0 0 72 72" enable-background="new 0 0 72 72" xml:space="preserve">
<g id="_xD83C__xDF3D_">
	<path fill="none" d="M57.6,55.1c-3.7,4.3-10.2,4.5-14.1,0.6c-0.1-0.1-0.3-0.3-0.4-0.4c-1.1-1.1-2.1-2.3-2.9-3.4
		c-4.9-7-3.9-14.2-1.4-19.9c0.7-1.6,1.5-3,2.3-4.4c2.6-4.1,5.5-7,6.1-7.5c0,0,0.1,0,0.1,0c0,1.3,0.5,12.6,9.5,21.8
		C60.4,45.5,60.9,51.3,57.6,55.1z"/>
	<path fill="none" stroke="#000000" stroke-width="2" stroke-miterlimit="10" d="M57.1,42.1c3.9,3.9,3.7,10.4-0.6,14.1
		c-3.8,3.3-9.6,2.8-13.2-0.7c-9.2-9-20.5-9.5-21.8-9.5c-0.1,0-0.1-0.1,0-0.1c1.4-1.5,19.3-19.9,35.2-4.1
		C56.8,41.8,56.9,41.9,57.1,42.1z"/>
	<path fill="none" stroke="#1D1D1B" stroke-width="2" stroke-linecap="round" stroke-miterlimit="10" d="M39.1,31.4
		c0.6-1.4,1.3-2.6,2.1-3.8c2.6-4.1,5.5-7,6.1-7.5c0,0,0.1,0,0.1,0c0,0.9,0.2,5.9,2.8,11.9l0.3,0.6"/>
	<path fill="none" stroke="#1D1D1B" stroke-width="2" stroke-linecap="round" stroke-miterlimit="10" d="M37.7,24.1
		c-5.6-5.6-11.3-9-15.6-9.8c-0.6-0.1-1.2-0.2-1.8-0.2c-1.6,0-2.9,0.5-3.8,1.4c-3.5,3.5-0.3,12.3,8.6,21.2"/>
</g>
</svg>
