<?xml version="1.0" encoding="utf-8"?>
<!-- Generator: Adobe Illustrator 19.1.0, SVG Export Plug-In . SVG Version: 6.00 Build 0)  -->
<svg version="1.1" id="emoji" xmlns="http://www.w3.org/2000/svg" xmlns:xlink="http://www.w3.org/1999/xlink" x="0px" y="0px"
	 viewBox="0 0 72 72" enable-background="new 0 0 72 72" xml:space="preserve">
<g id="_xD83C__xDF4C__1_">
	
		<line fill="none" stroke="#000000" stroke-width="2" stroke-linecap="round" stroke-linejoin="round" stroke-miterlimit="10" x1="41.2" y1="13.8" x2="38.5" y2="10.5"/>
	<path fill="none" stroke="#000000" stroke-width="2" stroke-linecap="round" stroke-linejoin="round" stroke-miterlimit="10" d="
		M20.4,49.5c18.7,10.3,36-7.1,30.2-23.9"/>
	<path fill="none" stroke="#000000" stroke-width="2" stroke-linecap="round" stroke-linejoin="round" stroke-miterlimit="10" d="
		M52,52.3c-8.3,9.9-23.1,11.2-33,2.8c-4.1-3.5-6.8-8.1-7.8-13l1.6-1.3c0.7,0.9,1.6,1.8,2.6,2.6c7.9,6.7,19.7,5.7,26.4-2.3
		c5.8-6.9,5.8-16.6,0.6-23.5c-0.1-0.1,2.2-1.5,2.2-1.5l0,0c1.6,0.8,3.2,1.8,4.7,3.1C59,27.6,60.3,42.4,52,52.3z"/>
</g>
</svg>
