<svg id="emoji" viewBox="0 0 72 72" xmlns="http://www.w3.org/2000/svg">
  <g id="line">
    <path fill="none" stroke="#000000" stroke-linecap="round" stroke-linejoin="round" stroke-miterlimit="10" stroke-width="2" d="M45.3047,32.3685c2.7068,2.205,4.443,5.5616,4.443,9.3041v11.6667c0,6.6-5.4,12-12,12h-1.8343c-6.6,0-12-5.4-12-12V41.6725 c0-4.0844,2.0681-7.7093,5.2089-9.8792"/>
    <path fill="none" stroke="#000000" stroke-linejoin="round" stroke-miterlimit="10" stroke-width="2" d="M44.374,14.6787 c2.1344,0.044,3.8706,0.5836,3.8706,0.5836s-2.2161,2.2134-4.6058,5.5611c1.9403,0.0441,3.5029,0.5396,3.5029,0.5396 s-3.1148,3.1274-5.8109,7.4661c-1.8893,3.0393-4.5956,2.8191-4.5956,2.8191s-2.7063,0.2313-4.6058-2.8191 c-2.6961-4.3388-5.8109-7.4661-5.8109-7.4661s1.5625-0.4956,3.5029-0.5396c-2.3897-3.3476-4.6058-5.5611-4.6058-5.5611 s1.7361-0.5396,3.8706-0.5836c-2.2978-3.1275-4.3301-5.1536-4.3301-5.1536s7.9146-2.4337,10.9375,2.4336 c0.4391,0.7048,0.7762,1.3875,1.0417,2.0483c0.2553-0.6608,0.5923-1.3435,1.0315-2.0483 c3.0228-4.8673,10.9375-2.4336,10.9375-2.4336S46.6718,11.5513,44.374,14.6787z"/>
    <path fill="none" stroke="#000000" stroke-linecap="round" stroke-linejoin="round" stroke-miterlimit="10" stroke-width="2" d="M43.6387,20.8234c-3.0513,1.236-3.5224,3.1594-4.3209,4.0898"/>
    <path fill="none" stroke="#000000" stroke-linecap="round" stroke-linejoin="round" stroke-miterlimit="10" stroke-width="2" d="M44.374,14.6787c0,0-4.4382,1.5439-4.6699,4.3635"/>
    <path fill="none" stroke="#000000" stroke-linecap="round" stroke-linejoin="round" stroke-miterlimit="10" stroke-width="2" d="M29.8562,20.8234c3.0513,1.236,3.5224,3.1594,4.3209,4.0898"/>
    <path fill="none" stroke="#000000" stroke-linecap="round" stroke-linejoin="round" stroke-miterlimit="10" stroke-width="2" d="M29.1209,14.6787c0,0,4.4382,1.5439,4.6699,4.3635"/>
  </g>
</svg>
