<?xml version="1.0" encoding="utf-8"?>
<!-- Generator: Adobe Illustrator 21.1.0, SVG Export Plug-In . SVG Version: 6.00 Build 0)  -->
<svg version="1.1" id="emoji" xmlns="http://www.w3.org/2000/svg" xmlns:xlink="http://www.w3.org/1999/xlink" x="0px" y="0px"
	 viewBox="0 0 72 72" enable-background="new 0 0 72 72" xml:space="preserve">
<g id="_xD83C__xDF41_">
	<path fill="none" stroke="#000000" stroke-width="2" stroke-linecap="round" stroke-linejoin="round" stroke-miterlimit="10" d="
		M36,10.9c3.7,4.6,5.5,8.3,6.5,15.7c0.4,3.3,0,5.5-0.3,7.9c0,0,11.3-9.8,18.7-7c0,0-6.5,6.5-7.4,9.2c-0.9,2.8-2.8,6.5-6.5,6.5
		c0,0,0,4.6,10.2,2.8c0,0-6.5,10.2-17.5,5.5c0,0-1.8,0.9-1.8,7.4h-0.9h-1.8h-0.9c0-6.5-1.8-7.4-1.8-7.4C21.3,56.1,14.9,46,14.9,46
		C25,47.8,25,43.2,25,43.2c-3.7,0-5.5-3.7-6.5-6.5c-0.9-2.8-7.4-9.2-7.4-9.2c7.4-2.8,18.7,7,18.7,7c-0.3-2.4-0.7-4.6-0.3-7.9
		C30.5,19.2,32.4,15.5,36,10.9L36,10.9z"/>
</g>
</svg>
