<?xml version="1.0" encoding="utf-8"?>
<!-- Generator: Adobe Illustrator 21.1.0, SVG Export Plug-In . SVG Version: 6.00 Build 0)  -->
<svg version="1.1" id="emoji" xmlns="http://www.w3.org/2000/svg" xmlns:xlink="http://www.w3.org/1999/xlink" x="0px" y="0px"
	 viewBox="0 0 72 72" enable-background="new 0 0 72 72" xml:space="preserve">
<g id="_xD83C__xDF4F__1_">
	
		<polyline fill="none" stroke="#000000" stroke-width="2" stroke-linecap="round" stroke-linejoin="round" stroke-miterlimit="10" points="
		35.5,20.6 35.5,15.1 31.1,10.8 	"/>
	<path fill="none" stroke="#000000" stroke-width="2" stroke-linecap="round" stroke-linejoin="round" stroke-miterlimit="10" d="
		M39.9,24.2"/>
	<path fill="none" stroke="#000000" stroke-width="2" stroke-linecap="round" stroke-linejoin="round" stroke-miterlimit="10" d="
		M38.1,24.6"/>
	<path fill="none" stroke="#000000" stroke-width="2" stroke-linecap="round" stroke-linejoin="round" stroke-miterlimit="10" d="
		M57.7,25.6c3.6,4.9,4.4,13.3,1.4,21.1c-3.9,10.1-12.5,15.6-19.3,12.2c-0.5-0.2-1-0.5-1.4-0.8c-1.3-0.9-3-0.9-4.3,0
		c-0.4,0.3-0.9,0.6-1.4,0.8c-6.8,3.4-15.4-2-19.3-12.2C9.6,36.6,12,25.6,18.8,22.2c3.1-1.6,6.6-1.3,9.8,0.5c0,0,0.1,0,0.2,0.1
		c0.7,0.4,3.9,2,7.1,2c0.7,0,1.5-0.1,2.2-0.2c0,0,1.2-0.2,2.1-0.5"/>
	<path fill="none" stroke="#000000" stroke-width="2" stroke-linecap="round" stroke-linejoin="round" stroke-miterlimit="10" d="
		M48.5,17.2c4,1.3,6.8,5.8,6.8,5.8s-5,1.8-9,0.5c-4-1.3-6.8-5.8-6.8-5.8S44.5,15.9,48.5,17.2z"/>
</g>
</svg>
