<?xml version="1.0" encoding="utf-8"?>
<!-- Generator: Adobe Illustrator 19.1.0, SVG Export Plug-In . SVG Version: 6.00 Build 0)  -->
<svg version="1.1" id="emoji" xmlns="http://www.w3.org/2000/svg" xmlns:xlink="http://www.w3.org/1999/xlink" x="0px" y="0px"
	 viewBox="0 0 72 72" enable-background="new 0 0 72 72" xml:space="preserve">
<g id="_xD83C__xDF45_">
	<path fill="#FFFFFF" stroke="#1D1D1B" stroke-width="2" stroke-linejoin="round" stroke-miterlimit="10" d="M46.3,17.8
		c-0.4,1.4-1,3-2.4,4.2c-5.9,4.9-13.6,3.2-17.1,0c-1.4-1.3-2-2.9-2.4-4.2c-0.6-2.3-0.4-4.2-0.4-4.2s2.3-0.3,4.8,0.6
		c0.9,0.3,1.8,0.8,2.6,1.4C32,12.3,34.2,10,35,9.3l0.3-0.3l0.3,0.3c0.8,0.7,3.1,3,3.6,6.3c0.9-0.6,1.8-1.1,2.6-1.4
		c2.6-0.9,4.8-0.6,4.8-0.6S47,15.6,46.3,17.8z"/>
	<path fill="none" stroke="#1D1D1B" stroke-width="2" stroke-linecap="round" stroke-linejoin="round" stroke-miterlimit="10" d="
		M50.3,19.3c6.4,4.1,10.5,10.7,10.5,18.3C60.8,50,49.6,60,35.8,60s-25-10-25-22.4c0-7.4,4-13.9,10.1-18"/>
</g>
</svg>
