<svg id="emoji" viewBox="0 0 72 72" xmlns="http://www.w3.org/2000/svg">
  <g id="line">
    <path fill="none" stroke="#000000" stroke-miterlimit="10" stroke-width="1.798" d="M23.0578,18.5809c-5.5473,1.4382-11.4463,7.3962-11.4463,17.2575,0,6.83,4.4417,16.27,9.8122,21.4266C23.8054,59.555,26.3707,61,28.8128,61a15.5438,15.5438,0,0,0,4.4076-.6478,9.5833,9.5833,0,0,1,5.5593,0A15.542,15.542,0,0,0,43.1872,61c2.5584,0,5.2539-1.5874,7.7316-4.0706,5.2156-5.2224,9.47-14.4073,9.47-21.0911,0-9.8613-5.8991-15.8193-11.4461-17.2574a17.099,17.099,0,0,0-8.23.4027,18.6582,18.6582,0,0,1-7.8589.3369q-.0812-.0139-.1622-.0286"/>
    <path fill="none" stroke="#000" stroke-miterlimit="10" stroke-width="1.798" d="M23.0578,18.5809c-5.5473,1.4382-11.4463,7.3962-11.4463,17.2575,0,6.83,4.4417,16.27,9.8122,21.4266C23.8054,59.555,26.3707,61,28.8128,61a15.5438,15.5438,0,0,0,4.4076-.6478,9.5833,9.5833,0,0,1,5.5593,0A15.542,15.542,0,0,0,43.1872,61c2.5584,0,5.2539-1.5874,7.7316-4.0706,5.2156-5.2224,9.47-14.4073,9.47-21.0911,0-9.8613-5.8991-15.8193-11.4461-17.2574a17.099,17.099,0,0,0-8.23.4027,18.6582,18.6582,0,0,1-7.8589.3369"/>
    <path d="M34.95,18.9056a31.2788,31.2788,0,0,0-.6807,3.7816c-.0863.7328-.1479,1.49-.1767,2.2681.3259.03.6629.0452,1.008.0452.36,0,.7108-.0164,1.0492-.0479.03-.7779.0972-1.534.189-2.2654a29.9339,29.9339,0,0,1,2.7475-9.2793,1.0275,1.0275,0,0,0-1.8147-.9641,27.1067,27.1067,0,0,0-1.5765,3.8583"/>
    <path fill="none" stroke="#000" stroke-miterlimit="10" stroke-width="1.5536" d="M19,12.4159a8.2358,8.2358,0,0,0,4.65-.7172c4.0437-2.003,10.5641.3772,12.1166,6.1578A4.5612,4.5612,0,0,0,33.04,19.1786C30.1778,22.2089,21.6493,22.0872,19,12.4159Z"/>
  </g>
</svg>
