<svg id="emoji" viewBox="0 0 72 72" xmlns="http://www.w3.org/2000/svg">
  <g id="line">
    <path fill="none" stroke="#000" stroke-linecap="round" stroke-miterlimit="10" stroke-width="2" d="m16.0302,55.9368c-1.5967-1.6729-1.9362-4.0928-1.0184-6.0812-4.2565-8.3473-1.6753-20.2596,6.9544-28.8894,8.6297-8.6298,20.542-11.211,28.8894-6.9545,2.026-.9351,4.4999-.5649,6.1752,1.1104,1.6753,1.6753,2.0455,4.1493,1.1104,6.1752,4.2661,8.3571,1.6753,20.2596-6.9545,28.8894s-20.5323,11.2207-28.8894,6.9544c-2.026.9351-4.5.5649-6.1753-1.1103-.031-.031-.0616-.0624-.0918-.094"/>
    <path fill="none" stroke="#000" stroke-linecap="round" stroke-miterlimit="10" stroke-width="2" d="m16.0302,55.9368c-1.5967-1.6729-1.9362-4.0928-1.0184-6.0812-4.2565-8.3473-1.6753-20.2596,6.9544-28.8894,8.6297-8.6298,20.542-11.211,28.8894-6.9545,2.026-.9351,4.4999-.5649,6.1752,1.1104,1.6753,1.6753,2.0455,4.1493,1.1104,6.1752,4.2661,8.3571,1.6753,20.2596-6.9545,28.8894s-20.5323,11.2207-28.8894,6.9544c-2.026.9351-4.5.5649-6.1753-1.1103-.031-.031-.0616-.0624-.0918-.094"/>
  </g>
</svg>
