<svg id="emoji" viewBox="0 0 72 72" version="1.1" xmlns="http://www.w3.org/2000/svg">
  <g id="line">
    <path fill="none" stroke="#000" stroke-linecap="round" stroke-linejoin="round" stroke-width="2" d="m37.01 21.82c-1.343-7.331-6.229-22.43-22.85-7.574"/>
    <path fill="none" stroke="#000" stroke-miterlimit="10" d="m54.34 32.9a6.679 6.672 0 1 0-8.112-10.32"/>
    <path fill="none" stroke="#000" stroke-miterlimit="10" stroke-width="2" d="m30.48 40.42a6.625 6.619 0 0 1-0.949-3.418 6.706 6.699 0 0 1 5.462-6.562"/>
    <ellipse cx="36.57" cy="57.34" rx="6.721" ry="6.715" fill="none" stroke="#000" stroke-miterlimit="10" stroke-width="2"/>
    <path fill="none" stroke="#000" stroke-miterlimit="10" stroke-width="2" d="m36.57 50.62a6.721 6.715 0 0 0 0 13.43"/>
    <path fill="none" stroke="#000" stroke-miterlimit="10" stroke-width="2" d="m42.17 53.98q0.2552 0 0.5059-0.01869"/>
    <path fill="none" stroke="#000" stroke-miterlimit="10" stroke-width="2" d="m42.67 53.96a6.718 6.711 0 1 0-6.551-3.756"/>
    <path fill="none" stroke="#000" stroke-miterlimit="10" stroke-width="2" d="m36.37 43.28a6.721 6.715 0 1 0-6.042 10.67"/>
    <path fill="none" stroke="#000" stroke-miterlimit="10" stroke-width="2" d="m43.13 33.73a6.732 6.725 0 0 0-0.2801 6.416"/>
    <path fill="none" stroke="#000" stroke-miterlimit="10" stroke-width="2" d="m47.91 43.84a6.721 6.715 0 1 0-4.783-10.11"/>
    <path fill="none" stroke="#000" stroke-miterlimit="10" stroke-width="2" d="m30.41 32.75a6.721 6.715 0 1 0-6.157 11.06"/>
    <path fill="none" stroke="#000" stroke-miterlimit="10" stroke-width="2" d="m24.25 43.81a6.775 6.768 0 0 0 1.112 0.09143"/>
    <path fill="none" stroke="#000" stroke-miterlimit="10" stroke-width="2" d="m54.5 32.93a6.721 6.715 0 1 0-8.322-10.35"/>
    <path fill="none" stroke="#000" stroke-miterlimit="10" stroke-width="2" d="m46.68 30.78a6.708 6.701 0 1 0-3.669 2.765"/>
    <path fill="none" stroke="#000" stroke-miterlimit="10" stroke-width="2" d="m35.83 22.48a6.723 6.716 0 0 0-10.9 7.582"/>
    <path fill="none" stroke="#000" stroke-miterlimit="10" stroke-width="2" d="m25.64 22.37a6.721 6.715 0 1 0-6.216 11.3"/>
    <path fill="none" stroke="#000" stroke-linecap="round" stroke-linejoin="round" stroke-width="2" d="m50.57 9.212s-3.357 7.635-15.68 5.496"/>
  </g>
</svg>
