<?xml version="1.0" encoding="utf-8"?>
<!-- Generator: Adobe Illustrator 19.1.0, SVG Export Plug-In . SVG Version: 6.00 Build 0)  -->
<svg version="1.1" id="emoji" xmlns="http://www.w3.org/2000/svg" xmlns:xlink="http://www.w3.org/1999/xlink" x="0px" y="0px"
	 viewBox="0 0 72 72" enable-background="new 0 0 72 72" xml:space="preserve">
<g id="_xD83C__xDF4D__1_">
	<path fill="none" stroke="#1D1D1B" stroke-width="2" stroke-linecap="round" stroke-linejoin="round" stroke-miterlimit="10" d="
		M44.3,32.4c2.7,2.2,4.4,5.6,4.4,9.3v11.7c0,6.6-5.4,12-12,12h-1.8c-6.6,0-12-5.4-12-12V41.7c0-4.1,2.1-7.7,5.2-9.9"/>
	<g>
		<g>
			<path fill="none" stroke="#1D1D1B" stroke-width="2" stroke-linejoin="round" stroke-miterlimit="10" d="M43.4,14.7
				c2.1,0,3.9,0.6,3.9,0.6s-2.2,2.2-4.6,5.6c1.9,0,3.5,0.5,3.5,0.5s-3.1,3.1-5.8,7.5c-1.9,3-4.6,2.8-4.6,2.8s-2.7,0.2-4.6-2.8
				c-2.7-4.3-5.8-7.5-5.8-7.5s1.6-0.5,3.5-0.5c-2.4-3.3-4.6-5.6-4.6-5.6s1.7-0.5,3.9-0.6c-2.3-3.1-4.3-5.2-4.3-5.2s7.9-2.4,10.9,2.4
				c0.4,0.7,0.8,1.4,1,2c0.3-0.7,0.6-1.3,1-2c3-4.9,10.9-2.4,10.9-2.4S45.7,11.6,43.4,14.7z"/>
		</g>
	</g>
	
		<path fill="#B1CC33" stroke="#1D1D1B" stroke-width="2" stroke-linecap="round" stroke-linejoin="round" stroke-miterlimit="10" d="
		M42.6,20.8c-3.1,1.2-3.5,3.2-4.3,4.1"/>
	
		<path fill="#B1CC33" stroke="#1D1D1B" stroke-width="2" stroke-linecap="round" stroke-linejoin="round" stroke-miterlimit="10" d="
		M43.4,14.7c0,0-4.4,1.5-4.7,4.4"/>
	
		<path fill="#B1CC33" stroke="#1D1D1B" stroke-width="2" stroke-linecap="round" stroke-linejoin="round" stroke-miterlimit="10" d="
		M28.9,20.8c3.1,1.2,3.5,3.2,4.3,4.1"/>
	
		<path fill="#B1CC33" stroke="#1D1D1B" stroke-width="2" stroke-linecap="round" stroke-linejoin="round" stroke-miterlimit="10" d="
		M28.1,14.7c0,0,4.4,1.5,4.7,4.4"/>
</g>
</svg>
