<?xml version="1.0" encoding="utf-8"?>
<!-- Generator: Adobe Illustrator 19.1.0, SVG Export Plug-In . SVG Version: 6.00 Build 0)  -->
<svg version="1.1" id="emoji" xmlns="http://www.w3.org/2000/svg" xmlns:xlink="http://www.w3.org/1999/xlink" x="0px" y="0px"
	 viewBox="0 0 72 72" enable-background="new 0 0 72 72" xml:space="preserve">
<g id="_xD83C__xDF40__1_">
	<g>
		<path fill="none" stroke="#000000" stroke-width="2" stroke-linecap="round" stroke-linejoin="round" stroke-miterlimit="10" d="
			M49.1,30.3l4.6,1.4c2.4,0.5,4.7,0.4,5.8-1.6c1.2-2.1,0.4-4.7-1.6-5.8L56,23.3l0.4-0.6l0.7-1.2c1.2-2.1,0.4-4.7-1.6-5.8
			s-4-0.1-5.8,1.6l-3.2,3.6"/>
		<path fill="none" stroke="#000000" stroke-width="2" stroke-linecap="round" stroke-linejoin="round" stroke-miterlimit="10" d="
			M39.6,33l-1.4,4.6c-0.5,2-0.4,4.7,1.6,5.8s4.7,0.4,5.8-1.6l1.1-1.9l0.6,0.4l1.2,0.7c2.1,1.2,4.7,0.4,5.8-1.6s0.3-4.1-1.6-5.8
			l-3.6-3.2"/>
		<path fill="none" stroke="#000000" stroke-width="2" stroke-linecap="round" stroke-linejoin="round" stroke-miterlimit="10" d="
			M37.8,24l-4.5-1.6c-0.9-0.3-1.8-0.5-2.7-0.6c-1.7-0.1-3.1,0.3-4,1.7c-1.3,2.1-0.5,4.9,1.7,6.1l1.7,0.9l-0.4,0.6L29,32.3
			c-1.2,2.1-0.5,4.9,1.7,6.1c2,1,4,0.1,5.7-1.7l3.2-3.6"/>
		<path fill="none" stroke="#000000" stroke-width="2" stroke-linecap="round" stroke-linejoin="round" stroke-miterlimit="10" d="
			M46.4,20.8l1.4-4.6c0.5-2.4,0.4-4.7-1.6-5.8s-4.7-0.4-5.8,1.6l-1.1,1.9l-0.6-0.4l-1.2-0.7c-2.1-1.2-4.7-0.4-5.8,1.6
			s-0.3,4.2,1.6,5.8l4.5,3.7"/>
	</g>
	<path fill="none" stroke="#000000" stroke-width="2" stroke-linecap="round" stroke-linejoin="round" d="M34.4,42
		c-3.4,3.5-7.7,10.2-5.8,20.7"/>
</g>
</svg>
