<?xml version="1.0" encoding="utf-8"?>
<!-- Generator: Adobe Illustrator 21.1.0, SVG Export Plug-In . SVG Version: 6.00 Build 0)  -->
<svg version="1.1" id="Ebene_3" xmlns="http://www.w3.org/2000/svg" xmlns:xlink="http://www.w3.org/1999/xlink" x="0px" y="0px"
	 viewBox="0 0 72 72" enable-background="new 0 0 72 72" xml:space="preserve">
<g>
	<path fill="none" stroke="#000000" stroke-width="2" stroke-linecap="round" stroke-linejoin="round" stroke-miterlimit="10" d="
		M33,17c2.8,0,5,2.2,5,5c0,1.6-0.8,3.1-2,4c-0.1,0.1-0.2,0.1-0.3,0.2c-0.4,0.4-0.7,0.9-0.7,1.5V53c0,1.1-0.9,2-2,2"/>
	<path fill="none" stroke="#000000" stroke-width="2" stroke-linecap="round" stroke-linejoin="round" stroke-miterlimit="10" d="
		M10,17h52c2.8,0,5,2.2,5,5c0,1.6-0.8,3.1-2,4c-0.1,0.1-0.2,0.1-0.3,0.2c-0.4,0.4-0.7,0.9-0.7,1.5V53c0,1.1-0.9,2-2,2H10
		c-1.1,0-2-0.9-2-2V27.7c0-0.6-0.3-1.1-0.7-1.5C7.2,26.1,7.1,26,7,26c-1.2-0.9-2-2.4-2-4C5,19.2,7.2,17,10,17z"/>
</g>
</svg>
