<svg id="emoji" viewBox="0 0 72 72" version="1.1" xmlns="http://www.w3.org/2000/svg">
  <g id="line">
    <path fill="none" stroke="#000000" stroke-linecap="round" stroke-linejoin="round" stroke-miterlimit="10" stroke-width="2" d="M39.1,42.3c1.2-0.5,2.5-0.8,3.9-0.8c5.5,0,9.9,4.4,9.9,9.9s-4.4,9.9-9.9,9.9"/>
    <path fill="none" stroke="#000000" stroke-linecap="round" stroke-linejoin="round" stroke-miterlimit="10" stroke-width="2" d="M19.5,10.7c0,0.3,0,0.7,0,1c0.1,17.1,3.2,27.7,4.3,31"/>
    <path fill="none" stroke="#000000" stroke-linecap="round" stroke-linejoin="round" stroke-miterlimit="10" stroke-width="2" d="M43,61.2c-1.5,0-2.9-0.3-4.2-0.9"/>
    <circle cx="28.5" cy="51.4" r="9.9" fill="none" stroke="#000000" stroke-linecap="round" stroke-linejoin="round" stroke-miterlimit="10" stroke-width="2"/>
    <path fill="none" stroke="#000000" stroke-linecap="round" stroke-linejoin="round" stroke-miterlimit="10" stroke-width="2" d="M35.2,15.7c4.5,4,5.7,11.6,5.7,11.6s-7.7-0.4-12.1-4.4c-4.5-4-5.7-11.6-5.7-11.6S30.8,11.7,35.2,15.7z"/>
    <circle cx="28.5" cy="51.4" r="9.9" fill="none" stroke="#000000" stroke-linecap="round" stroke-linejoin="round" stroke-miterlimit="10" stroke-width="2"/>
    <path fill="none" stroke="#000000" stroke-linecap="round" stroke-linejoin="round" stroke-miterlimit="10" stroke-width="2" d="M39,42.3c0,0-19.5-10.1-19.5-31.6"/>
  </g>
</svg>
