<?xml version="1.0" encoding="utf-8"?>
<!-- Generator: Adobe Illustrator 21.1.0, SVG Export Plug-In . SVG Version: 6.00 Build 0)  -->
<svg version="1.1" id="Ebene_3" xmlns="http://www.w3.org/2000/svg" xmlns:xlink="http://www.w3.org/1999/xlink" x="0px" y="0px"
	 viewBox="0 0 72 72" enable-background="new 0 0 72 72" xml:space="preserve">
<g>
	<path fill="none" stroke="#1D1D1B" stroke-width="2" stroke-linecap="round" stroke-linejoin="round" stroke-miterlimit="10" d="
		M54.1,58.1c0.5,0,0.9-0.2,1.3-0.5c0.7-0.6,0.8-1.5,0.5-2.3c0.3,0,0.5-0.1,0.8-0.3c0.7-0.5,1.1-1.3,0.9-2.1c0.9,0.4,1.9,0.1,2.5-0.7
		c0.5-0.7,0.4-1.6-0.1-2.3c0.3-0.1,0.5-0.3,0.7-0.5c0.6-0.6,0.7-1.5,0.4-2.2c0.9,0.2,1.9-0.4,2.2-1.3c0.3-0.8,0-1.7-0.6-2.2
		c0.2-0.2,0.4-0.4,0.6-0.6c0.4-0.7,0.3-1.6-0.2-2.3c0.9-0.1,1.7-0.8,1.8-1.8c0.1-0.9-0.4-1.7-1.1-2c0.2-0.2,0.3-0.5,0.4-0.7
		c0.2-0.8-0.1-1.7-0.7-2.1c0.9-0.3,1.5-1.2,1.4-2.2c-0.1-0.9-0.8-1.5-1.6-1.7c0.1-0.2,0.2-0.5,0.2-0.8c0-0.9-0.5-1.6-1.2-1.9
		c0.8-0.5,1.2-1.5,0.8-2.4c-0.3-0.8-1.1-1.3-2-1.2c0.1-0.3,0.1-0.5,0-0.8c-0.2-0.8-0.9-1.4-1.7-1.6c0.7-0.7,0.8-1.8,0.2-2.6
		c-0.5-0.7-1.4-1-2.2-0.7c0-0.3-0.1-0.5-0.2-0.8c-0.4-0.8-1.2-1.2-2-1.1c0.5-0.8,0.3-1.9-0.4-2.5c-0.7-0.6-1.6-0.6-2.3-0.2
		c-0.1-0.3-0.2-0.5-0.4-0.7c-0.5-0.7-1.4-0.9-2.2-0.6c0.3-0.9-0.2-1.9-1-2.3c-0.8-0.4-1.7-0.2-2.3,0.4c-0.1-0.2-0.3-0.5-0.6-0.6
		c-0.7-0.5-1.6-0.5-2.3,0c0-0.9-0.6-1.8-1.6-2c-0.9-0.2-1.7,0.2-2.1,0.9c-0.2-0.2-0.4-0.4-0.7-0.5c-0.8-0.3-1.7-0.1-2.2,0.5
		c-0.2-0.9-1-1.6-2-1.6c-0.9,0-1.6,0.6-1.8,1.4c-0.2-0.1-0.5-0.2-0.8-0.3c-0.8-0.1-1.6,0.3-2,1c-0.4-0.9-1.4-1.3-2.3-1
		c-0.8,0.2-1.4,1-1.4,1.8c-0.3-0.1-0.5-0.1-0.8-0.1c-0.8,0.1-1.5,0.7-1.7,1.5c-0.6-0.7-1.7-0.9-2.5-0.4c-0.8,0.4-1.1,1.3-1,2.1
		c-0.3,0-0.6,0-0.8,0.1c-0.8,0.3-1.3,1-1.3,1.9c-0.8-0.6-1.8-0.5-2.6,0.2c-0.6,0.6-0.8,1.5-0.4,2.3c-0.3,0-0.5,0.1-0.8,0.3
		c-0.7,0.5-1,1.3-0.8,2.1c-0.9-0.4-1.9,0-2.4,0.8c-0.5,0.7-0.4,1.7,0.1,2.3c-0.2,0.1-0.5,0.3-0.7,0.5c-0.6,0.6-0.7,1.5-0.3,2.3
		c-0.9-0.1-1.9,0.4-2.2,1.4c-0.3,0.8,0,1.7,0.7,2.2c-0.2,0.2-0.4,0.4-0.5,0.6c-0.4,0.8-0.3,1.6,0.3,2.3C7.8,32.2,7.1,33,7,34
		c-0.1,0.9,0.5,1.6,1.2,2c-0.2,0.2-0.3,0.5-0.4,0.7c-0.2,0.8,0.1,1.7,0.8,2.1c-0.9,0.3-1.4,1.3-1.3,2.2c0.2,0.9,0.8,1.5,1.7,1.6
		c-0.1,0.2-0.2,0.5-0.2,0.8c0,0.9,0.5,1.6,1.3,1.9c-0.8,0.5-1.1,1.6-0.7,2.5c0.4,0.8,1.2,1.2,2,1.2c0,0.3,0,0.6,0,0.8
		c0.2,0.8,0.9,1.4,1.7,1.5c-0.6,0.7-0.7,1.8-0.1,2.6c0.5,0.7,1.4,0.9,2.2,0.7c0,0.3,0.1,0.5,0.2,0.8c0.4,0.8,1.2,1.1,2,1
		c-0.4,0.8-0.2,1.9,0.5,2.5 M24.1,62.5c0.8,0.4,1.7,0.1,2.3-0.5c0.1,0.2,0.3,0.4,0.6,0.6c0.7,0.5,1.6,0.4,2.3,0c0,1,0.7,1.8,1.6,2
		c0.9,0.2,1.7-0.3,2.1-1c0.2,0.2,0.4,0.3,0.7,0.4c0.2,0.1,0.4,0.1,0.6,0.1c0.4,0.5,1,0.9,1.7,0.9c0.9,0,1.6-0.6,1.9-1.3
		c0.2,0.2,0.5,0.3,0.8,0.3c0.8,0.1,1.6-0.3,2.1-1c0.4,0.9,1.4,1.4,2.3,1.1c0.8-0.2,1.4-0.9,1.5-1.8c0.3,0.1,0.5,0.1,0.8,0.1
		c0.9-0.1,1.5-0.6,1.8-1.4"/>
	<path fill="none" stroke="#1D1D1B" stroke-width="2" stroke-linecap="round" stroke-linejoin="round" stroke-miterlimit="10" d="
		M49.9,62.6"/>
	<path fill="none" stroke="#1D1D1B" stroke-width="2" stroke-linecap="round" stroke-linejoin="round" stroke-miterlimit="10" d="
		M21.9,62.5"/>
	
		<path fill="#FFFFFF" stroke="#1D1D1B" stroke-width="2" stroke-linecap="round" stroke-linejoin="round" stroke-miterlimit="10" d="
		M49.9,62.6c-4.2,2.2-9,3.4-14,3.4c-5.1,0-9.8-1.3-14-3.5V44h28V62.6z"/>
</g>
</svg>
