<svg id="emoji" viewBox="0 0 72 72" xmlns="http://www.w3.org/2000/svg">
  <g id="line">
    <path fill="none" stroke="#000" stroke-linecap="round" stroke-linejoin="round" stroke-miterlimit="10" stroke-width="2" d="m32.88 49.3h-16.88c-1.104 0-2-0.8955-2-2v-6.75c0-1.104 0.8955-2 2-2h40c1.104 0 2 0.8955 2 2v6.75c0 1.104-0.8955 2-2 2h-16.79z"/>
    <path fill="none" stroke="#000" stroke-linecap="round" stroke-linejoin="round" stroke-miterlimit="10" stroke-width="2" d="m32.88 49.47h-17.88c-1.104 0-2 0.7013-2 1.566v4.699c0 0.865 0.8955 1.566 2 1.566h42c1.104 0 2-0.7013 2-1.566v-4.699c0-0.865-0.8955-1.566-2-1.566h-17.79z"/>
    <path fill="none" stroke="#000" stroke-linecap="round" stroke-linejoin="round" stroke-miterlimit="10" stroke-width="2" d="m59 27.93c0 0.7243-0.8955 1.312-2 1.312h-42c-1.104 0-2-0.5872-2-1.312 1.484-7.465 11.21-13.23 23-13.23s21.52 5.765 23 13.23z"/>
    <path fill="none" stroke="#000" stroke-linecap="round" stroke-linejoin="round" stroke-miterlimit="10" stroke-width="2" d="m43.24 38.93h-14.48l7.242 7.164z"/>
    <path fill="none" stroke="#000" stroke-linecap="round" stroke-linejoin="round" stroke-miterlimit="10" stroke-width="2" d="m59.19 34.1c-0.7619 0.3964-1.358 0.8199-2.487 1.002-1.368 0.3587-3.178 0.2195-4.602 0-1.928-0.3112-2.302-1.326-4.602-1.708-1.424-0.2195-3.178-0.2195-4.602 0-2.299 0.3815-2.673 1.396-4.602 1.708-1.424 0.2195-3.178 0.2195-4.602 0-1.928-0.3112-2.302-1.326-4.602-1.708-1.424-0.2195-3.178-0.2195-4.602 0-2.299 0.3815-2.673 1.396-4.602 1.708-1.424 0.2195-3.178 0.2195-4.602 0-1.129-0.1823-1.725-0.6058-2.487-1.002" paint-order="stroke fill markers"/>
  </g>
</svg>
