<?xml version="1.0" encoding="utf-8"?>
<!-- Generator: Adobe Illustrator 19.1.0, SVG Export Plug-In . SVG Version: 6.00 Build 0)  -->
<svg version="1.1" id="emoji" xmlns="http://www.w3.org/2000/svg" xmlns:xlink="http://www.w3.org/1999/xlink" x="0px" y="0px"
	 viewBox="0 0 72 72" enable-background="new 0 0 72 72" xml:space="preserve">
<g id="_xD83C__xDF50__1_">
	<path fill="none" stroke="#1D1D1B" stroke-width="2" stroke-linecap="round" stroke-linejoin="round" stroke-miterlimit="10" d="
		M21.9,21.6c0,0-5.3-5.2-10.5,0.1"/>
	<path fill="none" stroke="#1D1D1B" stroke-width="2" stroke-linecap="round" stroke-linejoin="round" stroke-miterlimit="10" d="
		M25.1,18.9c2.9-1,6.3-0.3,8.6,2c3,3,7.6,4.6,12,6.2c1.7,0.6,3.3,1.2,4.8,1.8c2.1,0.9,4.1,2,5.6,3.4c0.2,0.2,0.4,0.3,0.5,0.5
		c6.3,6.3,6.3,16.6,0,23c-6.3,6.3-16.6,6.3-23,0c-0.2-0.2-0.3-0.4-0.5-0.5c-1.5-1.7-2.7-3.6-3.4-5.6c-0.7-1.5-1.3-3.2-1.8-4.8
		c-1.6-4.5-3.2-9-6.2-12c-2.2-2.2-2.9-5.2-2.2-8"/>
</g>
</svg>
