<svg id="emoji" xmlns="http://www.w3.org/2000/svg" viewBox="0 0 72 72">
  
  
  
  
  
  <g id="line">
    <path fill="none" stroke="#000000" stroke-width="2" stroke-linecap="round" stroke-linejoin="round" stroke-miterlimit="10" d="
		M39.1497,42.2528c1.1834-0.5009,2.4846-0.7779,3.8505-0.7779c5.4602,0,9.8866,4.4264,9.8866,9.8866s-4.4264,9.8866-9.8866,9.8866"></path>
    <path fill="none" stroke="#000000" stroke-width="2" stroke-linecap="round" stroke-linejoin="round" stroke-miterlimit="10" d="
		M24.1863,43.7688c0,0-4.6913-11.5369-4.6913-33.0585"></path>
    <path fill="none" stroke="#000000" stroke-width="2" stroke-linecap="round" stroke-linejoin="round" stroke-miterlimit="10" d="
		M43.0002,61.2481c-1.4945,0-2.9115-0.3316-4.1815-0.9252"></path>
    <circle fill="none" stroke="#000000" stroke-width="2" stroke-linecap="round" stroke-linejoin="round" stroke-miterlimit="10" cx="28.4998" cy="51.3615" r="9.8866"></circle>
    <path fill="none" stroke="#000000" stroke-width="2" stroke-linecap="round" stroke-linejoin="round" stroke-miterlimit="10" d="
		M35.2191,15.6686c4.4601,4.0054,5.712,11.5709,5.712,11.5709s-7.6561-0.4343-12.1162-4.4397
		c-4.454-3.9999-5.712-11.5709-5.712-11.5709S30.765,11.6687,35.2191,15.6686z"></path>
    <circle fill="none" stroke="#000000" stroke-width="2" stroke-linecap="round" stroke-linejoin="round" stroke-miterlimit="10" cx="28.4998" cy="51.3615" r="9.8866"></circle>
    <path fill="none" stroke="#000000" stroke-width="2" stroke-linecap="round" stroke-linejoin="round" stroke-miterlimit="10" d="
		M38.9766,42.3323c0,0-19.4815-10.1004-19.4815-31.622"></path>
  </g>
</svg>