<svg id="emoji" xmlns="http://www.w3.org/2000/svg" viewBox="0 0 72 72">
  
  
  
  
  
  <g id="line">
    <path fill="none" stroke="#000000" stroke-width="2" stroke-linecap="round" stroke-linejoin="round" stroke-miterlimit="10" d="
		M54.25,58.4688c0.3613-0.2813,0.7881-0.586,1.1543-0.9161c0.6494-0.5859,0.8184-1.4961,0.498-2.2597
		c0.2706-0.0371,0.5381-0.127,0.7852-0.2813c0.7236-0.4531,1.0518-1.2929,0.8936-2.084c0.8691,0.3809,1.9121,0.1036,2.4609-0.7089
		c0.4883-0.7266,0.4316-1.6504-0.0645-2.3125c0.2539-0.1016,0.4922-0.254,0.6954-0.4629c0.5917-0.6153,0.707-1.5098,0.3613-2.2403
		c0.9355,0.1621,1.8808-0.3593,2.2168-1.2832c0.2988-0.8222,0.0195-1.7051-0.6211-2.2285c0.2217-0.1601,0.416-0.3652,0.5615-0.6172
		c0.4258-0.7383,0.3213-1.6347-0.1904-2.2597c0.9472-0.0704,1.7373-0.8047,1.8408-1.7813c0.0908-0.8691-0.3936-1.6582-1.1426-2.0117
		c0.1768-0.209,0.3154-0.4551,0.3955-0.7344c0.2344-0.8203-0.084-1.666-0.7324-2.1484c0.9023-0.2949,1.4922-1.1992,1.3565-2.1719
		c-0.1221-0.8672-0.7833-1.5156-1.5948-1.6758c0.1192-0.2461,0.1953-0.5176,0.2051-0.8086c0.0293-0.853-0.4844-1.5952-1.2305-1.9067
		c0.8047-0.5059,1.1582-1.5264,0.791-2.4365c-0.3281-0.8106-1.1259-1.2813-1.9531-1.2403c0.0576-0.2676,0.0645-0.5488,0.0039-0.834
		c-0.1787-0.8349-0.8554-1.4316-1.6543-1.5527c0.6563-0.6855,0.7539-1.7617,0.1768-2.5557
		c-0.5147-0.707-1.4024-0.9697-2.1943-0.7304c-0.0098-0.2735-0.0704-0.5489-0.1983-0.8106
		c-0.375-0.7666-1.1767-1.1811-1.9814-1.1064c0.4716-0.8233,0.3047-1.8906-0.4463-2.5225c-0.6699-0.562-1.5957-0.6015-2.3067-0.1777
		c-0.0752-0.2627-0.2002-0.5151-0.3877-0.7383c-0.5488-0.6533-1.4277-0.8613-2.1894-0.5947
		c0.2578-0.9126-0.1621-1.9077-1.044-2.3389c-0.7861-0.3833-1.6943-0.1977-2.2812,0.3853
		c-0.1357-0.2369-0.3193-0.4512-0.5547-0.6226c-0.6904-0.5005-1.5937-0.4907-2.2685-0.0478
		c0.0292-0.9478-0.6192-1.8116-1.5782-2.0166c-0.8554-0.1817-1.6914,0.2177-2.1211,0.9257
		c-0.1894-0.1967-0.4189-0.3603-0.6884-0.4697c-0.792-0.3184-1.6651-0.0903-2.2129,0.5025
		c-0.2012-0.9268-1.0391-1.608-2.0196-1.5748c-0.874,0.0308-1.5888,0.6211-1.833,1.4112c-0.2314-0.1455-0.4941-0.2481-0.7822-0.2891
		c-0.8447-0.1172-1.6377,0.315-2.0264,1.0225c-0.4189-0.8506-1.3965-1.3086-2.3398-1.0391
		c-0.8399,0.2412-1.3906,0.9868-1.4375,1.813c-0.2598-0.085-0.5391-0.1216-0.8281-0.0913
		c-0.8496,0.0908-1.5127,0.7012-1.7188,1.4824c-0.6123-0.7241-1.6719-0.9326-2.5224-0.4424
		c-0.7569,0.4375-1.1104,1.294-0.9561,2.1065c-0.2715-0.02-0.5527,0.0122-0.8262,0.1113c-0.8008,0.2939-1.2978,1.0469-1.3086,1.855
		c-0.7695-0.5542-1.8476-0.5-2.5547,0.1811c-0.6279,0.6075-0.7646,1.524-0.4179,2.2749c-0.2696,0.0469-0.5332,0.146-0.7744,0.3081
		c-0.7071,0.4795-1.0059,1.3301-0.8203,2.1163c-0.8819-0.3516-1.9151-0.0381-2.4356,0.7939
		c-0.4629,0.7412-0.374,1.6641,0.1445,2.3086c-0.249,0.1103-0.4814,0.2705-0.6767,0.4863c-0.5703,0.6367-0.6543,1.5342-0.2832,2.252
		c-0.9414-0.1289-1.8672,0.4258-2.1719,1.3594c-0.2695,0.83,0.04,1.7041,0.6982,2.2045c-0.2158,0.168-0.4013,0.3789-0.538,0.6348
		c-0.3995,0.7559-0.2637,1.6484,0.2695,2.2559c-0.9443,0.1015-1.709,0.8632-1.7783,1.8437
		c-0.0606,0.8711,0.4511,1.6445,1.2109,1.9688c-0.1689,0.2148-0.2978,0.4648-0.3682,0.748
		c-0.205,0.8301,0.1426,1.6621,0.8067,2.1231c-0.8916,0.3261-1.4492,1.25-1.2793,2.2187c0.1523,0.8594,0.8359,1.4863,1.6523,1.6172
		c-0.1123,0.25-0.1777,0.5234-0.1777,0.8145c0.0019,0.8554,0.54,1.58,1.2959,1.8652c-0.7861,0.5332-1.1035,1.5644-0.7041,2.4629
		c0.3555,0.7969,1.1699,1.2383,1.9941,1.1699c-0.0478,0.2676-0.0449,0.5508,0.0254,0.832c0.209,0.8301,0.9063,1.4024,1.709,1.4961
		c-0.6348,0.7071-0.6934,1.7852-0.0879,2.5606c0.5371,0.6875,1.4356,0.9199,2.2178,0.6523
		c0.0185,0.2715,0.0898,0.5449,0.2256,0.8027c0.4033,0.754,1.2187,1.1407,2.0195,1.0372c-0.4434,0.8398-0.2393,1.9003,0.5352,2.5058
		 M24.2061,62.4941c0.7968,0.3536,1.6992,0.1387,2.2646-0.4668c0.1436,0.2325,0.335,0.4415,0.5772,0.6036
		c0.7089,0.4765,1.6103,0.4355,2.2695-0.0313c0.0029,0.9492,0.6806,1.7891,1.6484,1.9609c0.8594,0.1504,1.6817-0.2773,2.084-1
		c0.1963,0.1895,0.4316,0.3458,0.7061,0.4454c0.1923,0.0703,0.3886,0.0996,0.583,0.1093C34.6982,64.6484,35.3076,65,36,65
		c0.874,0,1.6084-0.5645,1.8818-1.3457c0.2256,0.1543,0.4844,0.2656,0.7715,0.3164c0.8399,0.1484,1.6465-0.2578,2.0586-0.9512
		c0.3897,0.8653,1.3496,1.3575,2.3037,1.1192c0.8487-0.211,1.4248-0.9375,1.5-1.7598c0.2569,0.0938,0.5342,0.1387,0.8252,0.1191
		c0.8516-0.0585,1.5362-0.6484,1.7676-1.4218"></path>
    <path fill="none" stroke="#000000" stroke-width="2" stroke-linecap="round" stroke-linejoin="round" stroke-miterlimit="10" d="
		M49.96,62.5527"></path>
    <path fill="none" stroke="#000000" stroke-width="2" stroke-linecap="round" stroke-linejoin="round" stroke-miterlimit="10" d="
		M21.96,62.5117"></path>
    <path fill="none" stroke="#000000" stroke-width="2" stroke-linecap="round" stroke-linejoin="round" stroke-miterlimit="10" d="
		M50,62.5527C45.8291,64.75,41.042,66,36,66c-5.0732,0-9.8096-1.2637-14-3.4883V44h28V62.5527z"></path>
  </g>
</svg>