<?xml version="1.0" encoding="utf-8"?>
<!-- Generator: Adobe Illustrator 21.1.0, SVG Export Plug-In . SVG Version: 6.00 Build 0)  -->
<svg version="1.1" id="Ebene_3" xmlns="http://www.w3.org/2000/svg" xmlns:xlink="http://www.w3.org/1999/xlink" x="0px" y="0px"
	 viewBox="0 0 72 72" enable-background="new 0 0 72 72" xml:space="preserve">
<g>
	<path fill="none" stroke="#000000" stroke-width="2" stroke-linecap="round" stroke-linejoin="round" stroke-miterlimit="10" d="
		M20.3,48.1l-3.8,3.8c-1.2-1.2-3.1-1.2-4.2,0c-1.2,1.2-1.2,3.1,0,4.2c0.7,0.7,1.8,1,2.7,0.8c-0.2,1,0.1,2,0.8,2.7
		c1.2,1.2,3.1,1.2,4.2,0c1.2-1.2,1.2-3.1,0-4.2l3.8-3.8"/>
	<path fill="none" stroke="#000000" stroke-width="2" stroke-linecap="round" stroke-linejoin="round" stroke-miterlimit="10" d="
		M20.3,48.1c0.8,0.5,1.6,0.8,2.5,1c0.2,0.9,0.6,1.7,1,2.5"/>
	<g>
		<path fill="none" stroke="#000000" stroke-width="2" stroke-linecap="round" stroke-linejoin="round" stroke-miterlimit="10" d="
			M51.7,23.9l3.8-3.8c1.2,1.2,3.1,1.2,4.2,0c1.2-1.2,1.2-3.1,0-4.2c-0.7-0.7-1.8-1-2.7-0.8c0.2-1-0.1-2-0.8-2.7
			c-1.2-1.2-3.1-1.2-4.2,0c-1.2,1.2-1.2,3.1,0,4.2l-3.8,3.8"/>
		<path fill="none" stroke="#000000" stroke-width="2" stroke-linecap="round" stroke-linejoin="round" stroke-miterlimit="10" d="
			M48.1,20.3c-0.4-0.7-0.9-1.4-1.5-2c-3.9-3.9-10.2-3.9-14.1,0c-0.9,0.9-1.6,2-2.1,3.1c-0.4,1-0.5,2-0.8,3c-0.6,2.4-2.6,4.5-5,5.1
			c-1.1,0.3-2.3,0.4-3.3,0.9c-1.1,0.5-2,1.1-2.9,2c-3.9,3.9-3.9,10.2,0,14.1c0.6,0.6,1.3,1.1,2,1.5"/>
		<path fill="none" stroke="#000000" stroke-width="2" stroke-linecap="round" stroke-linejoin="round" stroke-miterlimit="10" d="
			M51.7,23.9c-0.8-0.5-1.6-0.8-2.5-1c-0.2-0.9-0.6-1.7-1-2.5"/>
		<path fill="none" stroke="#000000" stroke-width="2" stroke-linecap="round" stroke-linejoin="round" stroke-miterlimit="10" d="
			M51.7,23.9c0.7,0.4,1.4,0.9,2,1.5c3.9,3.9,3.9,10.2,0,14.1c-0.9,0.9-2,1.6-3.1,2.1c-1,0.4-2,0.5-3,0.8c-2.4,0.6-4.5,2.6-5.1,5
			c-0.3,1.1-0.4,2.3-0.9,3.3c-0.5,1.1-1.1,2-2,2.9c-3.9,3.9-10.2,3.9-14.1,0c-0.6-0.6-1.1-1.3-1.5-2"/>
	</g>
</g>
</svg>
