<?xml version="1.0" encoding="utf-8"?>
<!-- Generator: Adobe Illustrator 21.1.0, SVG Export Plug-In . SVG Version: 6.00 Build 0)  -->
<svg version="1.1" id="emoji" xmlns="http://www.w3.org/2000/svg" xmlns:xlink="http://www.w3.org/1999/xlink" x="0px" y="0px"
	 viewBox="0 0 72 72" enable-background="new 0 0 72 72" xml:space="preserve">
<g id="_xD83C__xDF67__1_">
	<path fill="none" stroke="#1D1D1B" stroke-width="2" stroke-linecap="round" stroke-linejoin="round" stroke-miterlimit="10" d="
		M41,30.7C41,30.7,40.9,30.7,41,30.7"/>
	<path fill="none" stroke="#1D1D1B" stroke-width="2" stroke-linecap="round" stroke-linejoin="round" stroke-miterlimit="10" d="
		M26,22C26,22,26,22,26,22c0-5.6,4.5-10,10-10s10,4.5,10,10c0,0,0,0,0,0"/>
	<path fill="none" stroke="#1D1D1B" stroke-width="2" stroke-linecap="round" stroke-linejoin="round" stroke-miterlimit="10" d="
		M46,22c0.2,0,0.3,0,0.5,0.1c0.1,0,0.2,0,0.3,0h0c0.2,0,0.4,0.1,0.5,0.1c0.2,0,0.4,0.1,0.7,0.2c0.2,0.1,0.4,0.1,0.6,0.2
		c0.4,0.1,0.7,0.3,1.1,0.5c0.1,0,0.2,0.1,0.3,0.2c0.1,0.1,0.3,0.2,0.4,0.2c0.2,0.1,0.4,0.2,0.5,0.4v0c2.4,1.8,4,4.7,4,8
		c0,2.7-1.1,5.2-2.9,7"/>
	<path fill="none" stroke="#1D1D1B" stroke-width="2" stroke-linecap="round" stroke-linejoin="round" stroke-miterlimit="10" d="
		M37,32.8c-0.2,2.4-1.2,4.6-2.8,6.2"/>
	<path fill="none" stroke="#1D1D1B" stroke-width="2" stroke-linecap="round" stroke-linejoin="round" stroke-miterlimit="10" d="
		M19.9,39c-1.8-1.8-2.9-4.3-2.9-7c0-5.2,4-9.5,9-10"/>
	<path fill="none" stroke="#1D1D1B" stroke-width="2" stroke-linecap="round" stroke-linejoin="round" stroke-miterlimit="10" d="
		M31,27c1.6,0,3.1-0.8,4-2v5c0,1.7,1.3,3,3,3c1.7,0,3-1.3,3-3v2c0,1.7,1.3,3,3,3c1.7,0,3-1.3,3-3v-2.2c0.3,0.1,0.6,0.2,1,0.2
		c1.7,0,3-1.3,3-3v-3c-1.4-1.1-3.1-1.8-5-2c0,0,0,0,0-0.1c0-5.5-4.5-10-10-10s-10,4.5-10,10C26,24.8,28.2,27,31,27z"/>
	
		<path fill="none" stroke="#1D1D1B" stroke-width="1.9467" stroke-linecap="round" stroke-linejoin="round" stroke-miterlimit="10" d="
		M33,60v-6c0-2.8-2.2-5-5-5h-4h-3c-2.8,0-5-2.2-5-5v-3c0-1.1,0.9-2,2-2h36c1.1,0,2,0.9,2,2v3c0,2.8-2.2,5-5,5h-3h-4
		c-2.8,0-5,2.2-5,5v6"/>
	
		<line fill="none" stroke="#1D1D1B" stroke-width="1.9467" stroke-linecap="round" stroke-linejoin="round" stroke-miterlimit="10" x1="29" y1="60" x2="43" y2="60"/>
</g>
</svg>
