<svg id="emoji" viewBox="0 0 72 72" xmlns="http://www.w3.org/2000/svg">
  <g id="line">
    <ellipse cx="35.9997" cy="36" rx="15.0001" ry="15.0004" transform="matrix(0.7071 -0.7071 0.7071 0.7071 -14.9118 35.9986)" fill="none" stroke="#000000" stroke-linecap="round" stroke-linejoin="round" stroke-miterlimit="10" stroke-width="2"/>
    <path fill="none" stroke="#000000" stroke-linecap="round" stroke-linejoin="round" stroke-miterlimit="10" stroke-width="2" d="M51.9287,25.3564L63,23.1421l1.4141-1.4141c0.7812-0.7812,0.7812-2.0478,0.0009-2.8286c-0.7812-0.7812-2.0488-0.7812-2.83,0 c-0.7803,0.7808-2.0469,0.7813-2.8282,0c-0.7802-0.7807-0.7802-2.0473,0-2.8281c0.7813-0.7813,0.7813-2.0479,0-2.8291 c-0.7802-0.7808-2.0468-0.7808-2.8281,0.0005c-0.7812,0.7807-2.0469,0.7807-2.8281,0c-0.7813-0.7813-0.7813-2.0474,0-2.8281 c0.7812-0.7813,0.7812-2.0479,0-2.8292c-0.7813-0.7807-2.0469-0.7807-2.8281,0.0005L48.8584,9l-2.2148,11.0708"/>
    <path fill="none" stroke="#000000" stroke-linecap="round" stroke-linejoin="round" stroke-miterlimit="10" stroke-width="2" d="M20.0713,46.6426L9,48.8574l-1.415,1.4141c-0.7803,0.7812-0.7803,2.0478,0,2.8281c0.7812,0.7813,2.0478,0.7813,2.8291,0.001 c0.7812-0.7813,2.0468-0.7822,2.8281-0.001c0.7812,0.7813,0.7812,2.0469,0,2.8281c-0.7813,0.7813-0.7813,2.0489,0,2.8282 c0.7812,0.7812,2.0469,0.7812,2.8281,0.0019c0.7813-0.7812,2.0479-0.7812,2.8281-0.0019c0.7813,0.7812,0.7813,2.0488,0,2.83 c-0.7812,0.7793-0.7812,2.0469,0,2.8282c0.7813,0.7812,2.0479,0.7812,2.8282,0L23.1416,63l2.2158-11.0723"/>
    <ellipse cx="36.0012" cy="35.958" rx="14.9998" ry="15.0001" transform="matrix(0.7071 -0.7071 0.7071 0.7071 -14.8817 35.9886)" fill="none" stroke="#000000" stroke-linecap="round" stroke-linejoin="round" stroke-miterlimit="10" stroke-width="2"/>
  </g>
</svg>
