<svg id="emoji" viewBox="0 0 72 72" version="1.1" xmlns="http://www.w3.org/2000/svg">
  <g id="line">
    <path fill="none" stroke="#000000" stroke-linecap="round" stroke-linejoin="round" stroke-miterlimit="10" stroke-width="2" d="M26,21c0-5.5228,4.4772-10,10-10s10,4.4772,10,10"/>
    <path fill="none" stroke="#000000" stroke-linecap="round" stroke-linejoin="round" stroke-miterlimit="10" stroke-width="2" d="M36.0657,26.5031C37.7119,23.2387,41.0947,21,45,21c5.5225,0,10,4.4766,10,10c0,3.1787-1.4829,6.0107-3.7946,7.8423"/>
    <path fill="none" stroke="#000000" stroke-linecap="round" stroke-linejoin="round" stroke-miterlimit="10" stroke-width="2" d="M20.6391,38.7165C18.4166,36.8823,17,34.1066,17,31c0-5.5228,4.4772-10,10-10s10,4.4772,10,10 c0,3.1784-1.4828,6.0105-3.7945,7.8421"/>
    <path fill="none" stroke="#000000" stroke-linecap="round" stroke-linejoin="round" stroke-miterlimit="10" stroke-width="1.9467" d="M33,60v-6c0-2.7617-2.2393-5-5-5h-4h-3c-2.7607,0-5-2.2383-5-5v-3c0-1.1045,0.8955-2,2-2h36c1.1045,0,2,0.8955,2,2v3 c0,2.7617-2.2393,5-5,5h-3h-4c-2.7607,0-5,2.2383-5,5v6"/>
    <line x1="29" x2="43" y1="60" y2="60" fill="none" stroke="#000000" stroke-linecap="round" stroke-linejoin="round" stroke-miterlimit="10" stroke-width="1.9467"/>
  </g>
</svg>
