<?xml version="1.0" encoding="utf-8"?>
<!-- Generator: Adobe Illustrator 21.1.0, SVG Export Plug-In . SVG Version: 6.00 Build 0)  -->
<svg version="1.1" id="Ebene_3" xmlns="http://www.w3.org/2000/svg" xmlns:xlink="http://www.w3.org/1999/xlink" x="0px" y="0px"
	 viewBox="0 0 72 72" enable-background="new 0 0 72 72" xml:space="preserve">
<g>
	<path fill="none" stroke="#1D1D1B" stroke-width="2" stroke-linecap="round" stroke-linejoin="round" stroke-miterlimit="10" d="
		M24,19"/>
	<path fill="none" stroke="#1D1D1B" stroke-width="2" stroke-linecap="round" stroke-linejoin="round" stroke-miterlimit="10" d="
		M25,41.3c-3.1-2.4-5-6.1-5-10.3V12c0-2.8-2.2-5-5-5s-5,2.2-5,5l1,28c0,5.5,1.7,10.5,4.7,14.6"/>
	<path fill="none" stroke="#1D1D1B" stroke-width="2" stroke-linecap="round" stroke-linejoin="round" stroke-miterlimit="10" d="
		M63.7,35.1c0.2-0.3,0.3-0.7,0.3-1.1s-0.1-0.8-0.3-1.1c0.8-0.3,1.3-1,1.3-1.9s-0.6-1.6-1.3-1.9c0.2-0.3,0.3-0.7,0.3-1.1
		c0-0.9-0.6-1.6-1.3-1.9c0.2-0.3,0.3-0.7,0.3-1.1c0-0.9-0.6-1.6-1.3-1.9c0.2-0.3,0.3-0.7,0.3-1.1c0-1.1-0.9-2-2-2
		c-0.1,0-0.2,0-0.3,0c0.2-0.3,0.3-0.7,0.3-1c0-1.1-0.9-2-2-2c-0.1,0-0.2,0-0.3,0c0.2-0.3,0.3-0.7,0.3-1c0-1.1-0.9-2-2-2
		c-0.4,0-0.7,0.1-1,0.3c0-0.1,0-0.2,0-0.3c0-1.1-0.9-2-2-2c-0.4,0-0.8,0.1-1.1,0.3c-0.3-0.8-1-1.3-1.9-1.3c-0.4,0-0.7,0.1-1,0.3
		c0-0.1,0-0.2,0-0.3c0-1.1-0.9-2-2-2c-0.4,0-0.8,0.1-1.1,0.3C45.6,8.6,44.9,8,44,8c-0.4,0-0.8,0.1-1.1,0.3C42.6,7.6,41.9,7,41,7
		c-0.4,0-0.8,0.1-1.1,0.3C39.6,6.6,38.9,6,38,6s-1.6,0.6-1.9,1.3C35.8,7.1,35.4,7,35,7c-0.7,0-1.3,0.3-1.7,0.9c-0.2,0-0.4,0-0.6,0.1
		c-0.3-0.6-1-1-1.7-1c-1.1,0-2,0.9-2,2c-1.1,0-2,0.9-2,2c-1.1,0-2,0.9-2,2c0,0.4,0.1,0.8,0.3,1.1c-0.8,0.3-1.3,1-1.3,1.9
		c0,0.6,0.3,1.1,0.7,1.5C24.3,17.9,24,18.4,24,19c0,0.9,0.6,1.6,1.4,1.9c0,0.1,0,0.1,0,0.2c-0.8,0.3-1.4,1-1.4,1.9c0,1.1,0.9,2,2,2
		c0.1,0,0.2,0,0.3,0c-0.2,0.3-0.3,0.7-0.3,1c0,1.1,0.9,2,2,2c0.4,0,0.7-0.1,1-0.3c0,0.1,0,0.2,0,0.3c0,1.1,0.9,2,2,2
		c0.4,0,0.8-0.1,1.1-0.3c0.3,0.8,1,1.3,1.9,1.3c0.6,0,1.1-0.3,1.5-0.7c0.4,0.4,0.9,0.7,1.5,0.7c0.4,0,0.7-0.1,1-0.3
		c0,0.1,0,0.2,0,0.3c0,1.1,0.9,2,2,2c0.2,0,0.4,0,0.7-0.1c0.1,0.2,0.2,0.3,0.3,0.4c-0.6,0.3-1,1-1,1.7c0,1.1,0.9,2,2,2
		c-1.1,0-2,0.9-2,2c0,0.4,0.1,0.7,0.3,1c-0.1,0-0.2,0-0.3,0c-1.1,0-2,0.9-2,2c0,0.1,0,0.2,0,0.3c-0.3-0.2-0.7-0.3-1-0.3
		c-1.1,0-2,0.9-2,2c-0.4,0-0.8,0.1-1.1,0.3c-0.3-0.8-1-1.3-1.9-1.3c-0.6,0-1.1,0.3-1.5,0.7C30.1,43.3,29.6,43,29,43
		c-1.1,0-2,0.9-2,2c-1.1,0-2,0.9-2,2c0,0.4,0.1,0.7,0.3,1c-0.1,0-0.2,0-0.3,0c-1.1,0-2,0.9-2,2c-1.1,0-2,0.9-2,2
		c0,0.4,0.1,0.7,0.3,1c-0.1,0-0.2,0-0.3,0c-1.1,0-2,0.9-2,2c0,0.9,0.6,1.6,1.4,1.9c0,0.1,0,0.1,0,0.2c-0.8,0.3-1.4,1-1.4,1.9
		c0,1.1,0.9,2,2,2c0.4,0,0.8-0.1,1.1-0.3c0.3,0.8,1,1.3,1.9,1.3c0.4,0,0.7-0.1,1-0.3c0,0.1,0,0.2,0,0.3c0,1.1,0.9,2,2,2
		c0.6,0,1.1-0.3,1.5-0.7c0.4,0.4,0.9,0.7,1.5,0.7c0.4,0,0.8-0.1,1.1-0.3c0.3,0.8,1,1.3,1.9,1.3c0.8,0,1.5-0.5,1.8-1.2
		c0.1,0,0.2,0.1,0.4,0.1c0.3,0.7,1,1.1,1.8,1.1c0.6,0,1.1-0.3,1.5-0.7c0.4,0.4,0.9,0.7,1.5,0.7c0.9,0,1.6-0.6,1.9-1.3
		c0.3,0.2,0.7,0.3,1.1,0.3c0.9,0,1.6-0.6,1.9-1.3c0.3,0.2,0.7,0.3,1.1,0.3c0.9,0,1.6-0.6,1.9-1.3c0.3,0.2,0.7,0.3,1.1,0.3
		c1.1,0,2-0.9,2-2c0-0.1,0-0.2,0-0.3c0.3,0.2,0.7,0.3,1,0.3c1.1,0,2-0.9,2-2c1.1,0,2-0.9,2-2c1.1,0,2-0.9,2-2c1.1,0,2-0.9,2-2
		c0-0.4-0.1-0.7-0.3-1c0.1,0,0.2,0,0.3,0c1.1,0,2-0.9,2-2c0-0.4-0.1-0.7-0.3-1c0.1,0,0.2,0,0.3,0c1.1,0,2-0.9,2-2
		c0-0.6-0.3-1.1-0.7-1.5c0.4-0.4,0.7-0.9,0.7-1.5c0-0.4-0.1-0.8-0.3-1.1c0.8-0.3,1.3-1,1.3-1.9c0-0.6-0.3-1.1-0.7-1.5
		c0.4-0.4,0.7-0.9,0.7-1.5C65,36.1,64.4,35.4,63.7,35.1z"/>
</g>
</svg>
