<?xml version="1.0" encoding="utf-8"?>
<!-- Generator: Adobe Illustrator 21.1.0, SVG Export Plug-In . SVG Version: 6.00 Build 0)  -->
<svg version="1.1" id="emoji" xmlns="http://www.w3.org/2000/svg" xmlns:xlink="http://www.w3.org/1999/xlink" x="0px" y="0px"
	 viewBox="0 0 72 72" enable-background="new 0 0 72 72" xml:space="preserve">
<g id="_xD83C__xDF6E__1_">
	
		<path fill="#FFFFFF" stroke="#1D1D1B" stroke-width="2" stroke-linecap="round" stroke-linejoin="round" stroke-miterlimit="10" d="
		M60,57c0,1.7-1.3,3-3,3H15c-1.7,0-3-1.3-3-3v-1h48V57z"/>
	<g>
		
			<circle fill="#FFFFFF" stroke="#1D1D1B" stroke-width="2" stroke-linecap="round" stroke-linejoin="round" stroke-miterlimit="10" cx="38.5" cy="15" r="2"/>
		
			<circle fill="#FFFFFF" stroke="#1D1D1B" stroke-width="2" stroke-linecap="round" stroke-linejoin="round" stroke-miterlimit="10" cx="33.5" cy="15" r="2"/>
	</g>
	
		<circle fill="#FFFFFF" stroke="#1D1D1B" stroke-width="2" stroke-linecap="round" stroke-linejoin="round" stroke-miterlimit="10" cx="36" cy="11" r="2"/>
	
		<path fill="#FFFFFF" stroke="#1D1D1B" stroke-width="2" stroke-linecap="round" stroke-linejoin="round" stroke-miterlimit="10" d="
		M16.2,34.4L17,27c0-5.5,4.5-10,10-10h18c5.5,0,10,4.5,10,10l0.8,7.4"/>
	
		<polyline fill="#FFFFFF" stroke="#1D1D1B" stroke-width="2" stroke-linecap="round" stroke-linejoin="round" stroke-miterlimit="10" points="
		16.2,34.4 14,56 58,56 55.8,34.4 	"/>
	
		<path fill="#FFFFFF" stroke="#1D1D1B" stroke-width="2" stroke-linecap="round" stroke-linejoin="round" stroke-miterlimit="10" d="
		M16.2,34.4c0.5,0.4,1.1,0.6,1.8,0.6c1.7,0,3-1.3,3-3v-2c0-1.7,1.3-3,3-3c1.7,0,3,1.3,3,3v2c0,1.7,1.3,3,3,3c1.7,0,3-1.3,3-3v-2
		c0-1.7,1.3-3,3-3c1.7,0,3,1.3,3,3v2c0,1.7,1.3,3,3,3c1.7,0,3-1.3,3-3v-2c0-1.7,1.3-3,3-3c1.7,0,3,1.3,3,3v2c0,1.7,1.3,3,3,3
		c0.7,0,1.3-0.2,1.8-0.6"/>
</g>
</svg>
