<svg id="emoji" viewBox="0 0 72 72" xmlns="http://www.w3.org/2000/svg">
  <g id="line">
    <path fill="none" stroke="#000000" stroke-linejoin="round" stroke-miterlimit="10" stroke-width="2" d="M51.5334,37.3844 L35.2339,21.0847c6.2853-6.2853,8.5839,1.4216,15.9401-5.9347l1.5737-1.5734c1.738-1.7383,4.5563-1.7383,6.2938,0 c1.7383,1.7377,1.7383,4.5561,0.0005,6.2938l-1.5739,1.574C50.112,28.8005,57.8188,31.0989,51.5334,37.3844z"/>
    <path fill="none" stroke="#000000" stroke-miterlimit="10" stroke-width="2" d="M57.5208,12.5842 c0.0079,0.0032,0.0162,0.0042,0.024,0.0072c0.2369,0.0945,0.4637,0.218,0.6847,0.3549c0.034,0.021,0.0715,0.0332,0.105,0.0552 c0.2499,0.1643,0.4872,0.3553,0.7069,0.5752c0.4346,0.4343,0.7605,0.9363,0.9778,1.472c0.3259,0.8036,0.4075,1.6832,0.2446,2.5248 c-0.1629,0.8417-0.5703,1.6453-1.2219,2.2969l-1.5739,1.5741c-2.2988,2.2987-3.1266,4.1036-3.3701,5.6906 c-0.0487,0.3174-0.074,0.6261-0.0831,0.9282c-0.0181,0.6044,0.0289,1.1826,0.0843,1.7527c0.0692,0.7124,0.1515,1.4117,0.136,2.1326 c-0.0062,0.2883-0.028,0.5801-0.0726,0.8774c-0.1337,0.8921-0.472,1.8351-1.2065,2.8884c-0.2402,0.3442-0.524,0.7008-0.8555,1.0708 c-0.0368,1.3615-0.5595,2.7123-1.5927,3.7454L32.02,59.0186c-2.1425,2.1426-5.6482,2.1426-7.7905,0L13.9584,48.7478l0,0 l-0.1794-0.1794c-2.1425-2.1426-2.1425-5.6484,0-7.7908l4.6223-4.6221l4.6221-4.6221l4.6221-4.6219l4.6217-4.6217 c0.9285-0.9285,2.115-1.4297,3.3335-1.5535c6.0092-5.6279,8.3631,1.624,15.5734-5.5863l1.5737-1.5734 C54.0384,12.2857,55.9237,11.958,57.5208,12.5842z"/>
    <line x1="34.0213" x2="27.0213" y1="35.0213" y2="28.0213" fill="none" stroke="#000000" stroke-linecap="round" stroke-linejoin="round" stroke-miterlimit="10" stroke-width="2"/>
    <line x1="29.5213" x2="22.5213" y1="39.5213" y2="32.5213" fill="none" stroke="#000000" stroke-linecap="round" stroke-linejoin="round" stroke-miterlimit="10" stroke-width="2"/>
    <line x1="24.5213" x2="17.5213" y1="44.5213" y2="37.5213" fill="none" stroke="#000000" stroke-linecap="round" stroke-linejoin="round" stroke-miterlimit="10" stroke-width="2"/>
  </g>
</svg>
