<svg id="emoji" viewBox="0 0 72 72" xmlns="http://www.w3.org/2000/svg">
  <g id="line">
    <path fill="none" stroke="#000" stroke-miterlimit="10" stroke-width="2" d="m62.3344,5.3344l1.8375,1.8375v-.0002l2.345,2.3452c.8451.8451.0342,3.0388-1.8019,4.875-1.8361,1.8362-4.0299,2.647-4.875,1.802l-.1383-.1384h0l-4.0442-4.0442c-.8245-.8245.0032-3.0015,1.8393-4.8376,1.8361-1.8361,4.0131-2.6639,4.8376-1.8393Z"/>
    <path fill="none" stroke="#000" stroke-linecap="round" stroke-miterlimit="10" stroke-width="2" d="m56.0211,20.5021c.3033.9062-.1427,2.2344-1.1827,3.2744-.897.8971-2.0029,1.3395-2.8731,1.2531l-8.6799,8.6799c-.1448.1448-.2825.2952-.4126.4504-.2602.3103-.4902.6399-.6874.983-.2957.5146-.5176,1.0596-.6566,1.6151-.0927.3704-.1484.7455-.1647,1.1196l-.1272,2.9233c-.1036,2.382-1.2137,4.7905-3.0583,6.6351l-.1934.1935-17.0146,17.0147-.0002.0002c-1.5429,1.5429-3.839,1.7482-5.1284.4587l-9.1968-9.1968c-.806-.806-1.0279-2.0051-.7043-3.1678.1941-.6976.5846-1.3822,1.1632-1.9608l17.2078-17.2079c1.8446-1.8446,4.2531-2.9548,6.6352-3.0583l2.9232-.1273v-.0002c.5612-.0243,1.1246-.1376,1.6709-.3309.9105-.322,1.7731-.866,2.4973-1.5903l8.5557-8.5557c-.2427-.9022.1978-2.1692,1.2017-3.1731,1.1668-1.1668,2.6965-1.5859,3.5859-1.0379"/>
    <line x1="22" x2="35" y1="37" y2="50" fill="none" stroke="#000" stroke-linecap="round" stroke-linejoin="round" stroke-width="2"/>
    <line x1="8.5" x2="21.5" y1="50.5" y2="63.5" fill="none" stroke="#000" stroke-linecap="round" stroke-linejoin="round" stroke-width="2"/>
  </g>
</svg>
