<?xml version="1.0" encoding="utf-8"?>
<!-- Generator: Adobe Illustrator 19.1.0, SVG Export Plug-In . SVG Version: 6.00 Build 0)  -->
<svg version="1.1" id="emoji" xmlns="http://www.w3.org/2000/svg" xmlns:xlink="http://www.w3.org/1999/xlink" x="0px" y="0px"
	 viewBox="0 0 72 72" enable-background="new 0 0 72 72" xml:space="preserve">
<g id="_xD83C__xDF7D__xFE0F__1_">
	<path fill="none" stroke="#1D1D1B" stroke-width="2" stroke-miterlimit="10" d="M66.1,26.3c0-5.9-5.1-12.2-5.1-10.3
		s0.9,26.6,0.9,26.6L61,58.8c0,1.1,0.9,2,2,2s2-0.9,2-2l-0.5-16.3C64.5,42.5,66.1,32.2,66.1,26.3z"/>
	<g>
		<path fill="none" stroke="#1D1D1B" stroke-width="2" stroke-linecap="round" stroke-linejoin="round" stroke-miterlimit="10" d="
			M11.4,16.7c0,0,0.1,4.2,0.1,8.1c0,3-0.9,4.8-2.2,5.6l0,0l0,28.4c0,1.1-0.9,2-2,2s-2-0.9-2-2l0.8-28.4l0,0C4.9,29.7,4,27.8,4,24.8
			c0-3.9,0.1-8.1,0.1-8.1"/>
		
			<line fill="none" stroke="#1D1D1B" stroke-width="2" stroke-linecap="round" stroke-linejoin="round" stroke-miterlimit="10" x1="7.8" y1="16.7" x2="7.8" y2="26.3"/>
	</g>
	
		<circle fill="none" stroke="#1D1D1B" stroke-width="2" stroke-linecap="round" stroke-linejoin="round" stroke-miterlimit="10" cx="36" cy="36" r="20"/>
	
		<circle fill="none" stroke="#1D1D1B" stroke-width="2" stroke-linecap="round" stroke-linejoin="round" stroke-miterlimit="10" cx="36" cy="36" r="12.1"/>
</g>
</svg>
