<?xml version="1.0" encoding="utf-8"?>
<!-- Generator: Adobe Illustrator 21.1.0, SVG Export Plug-In . SVG Version: 6.00 Build 0)  -->
<svg version="1.1" id="emoji" xmlns="http://www.w3.org/2000/svg" xmlns:xlink="http://www.w3.org/1999/xlink" x="0px" y="0px"
	 viewBox="0 0 72 72" enable-background="new 0 0 72 72" xml:space="preserve">
<g id="_xD83C__xDF7A_">
	<path fill="none" stroke="#000000" stroke-width="2" stroke-linecap="round" stroke-linejoin="round" stroke-miterlimit="10" d="
		M49.5,50.5h6c2.2,0,4-1.8,4-4v-14c0-2.2-1.8-4-4-4h-6"/>
	
		<polyline fill="none" stroke="#000000" stroke-width="2.0185" stroke-linecap="round" stroke-linejoin="round" stroke-miterlimit="10" points="
		49,23.4 49,60 20,60 20,39.6 	"/>
	
		<path fill="none" stroke="#000000" stroke-width="1.593" stroke-linecap="round" stroke-linejoin="round" stroke-miterlimit="10" d="
		M20.2,30.1"/>
	<path fill="none" stroke="#000000" stroke-width="2" stroke-linecap="round" stroke-linejoin="round" stroke-miterlimit="10" d="
		M20.3,31.3c0.8-0.3,1.3-1,1.3-1.9l0-1.6c0.6,0.4,1.2,0.6,1.9,0.6l1.9,0c1.2,0,2.3-0.6,3-1.6c1,1.5,2.7,2.6,4.6,2.6
		c3.1,0,5.7-2.7,5.7-6l10.9,0c0.2-0.6,0.3-1.3,0.3-2c0-3.3-2.5-6-5.7-6c-1.3,0-2.5,0.5-3.5,1.3c-0.9-1.9-2.8-3.3-5-3.3
		c-0.8,0-1.6,0.2-2.3,0.5c-1.1-1.5-2.9-2.5-4.8-2.5c-2.9,0-5.4,2.2-6,5.1c-0.3-0.1-0.7-0.1-1.1-0.1c-2.6,0-4.7,2.2-4.7,5l0,8
		c0,1.1,0.8,2,1.9,2l0.9,0C19.9,31.4,20.1,31.4,20.3,31.3"/>
</g>
</svg>
