<svg id="emoji" viewBox="0 0 72 72" xmlns="http://www.w3.org/2000/svg">
  <g id="line">
    <path fill="none" stroke="#000000" stroke-linecap="round" stroke-linejoin="round" stroke-miterlimit="10" stroke-width="2" d="M67,28v31c0,1.1055-0.8955,2-2,2H7c-1.1045,0-2-0.8945-2-2V28c0-1.1035,0.8955-2,2-2l33.9961-5.4385"/>
    <path fill="none" stroke="#000000" stroke-linecap="round" stroke-linejoin="round" stroke-miterlimit="10" stroke-width="2" d="M58.0186,18.0513C63.0625,18.5615,67,22.8223,67,28"/>
    <path fill="none" stroke="#000000" stroke-linecap="round" stroke-linejoin="round" stroke-miterlimit="10" stroke-width="2" d="M5,40h1c2.7617,0,5-2.2383,5-4.999C11,32.2393,13.2383,30,16,30c2.7617,0,5,2.2393,5,5.001C21,37.7617,23.2383,40,26,40 c2.7617,0,5-2.2383,5-4.999C31,32.2393,33.2383,30,36,30c2.7617,0,5,2.2393,5,5.001C41,37.7617,43.2383,40,46,40 c2.7617,0,5-2.2383,5-4.999C51,32.2393,53.2383,30,56,30c2.7617,0,5,2.2393,5,5.001C61,37.7617,63.2383,40,66,40h1"/>
    <line x1="5" x2="67" y1="48" y2="48" fill="none" stroke="#000000" stroke-linecap="round" stroke-linejoin="round" stroke-miterlimit="10" stroke-width="2"/>
    <line x1="5" x2="67" y1="52" y2="52" fill="none" stroke="#000000" stroke-linecap="round" stroke-linejoin="round" stroke-miterlimit="10" stroke-width="2"/>
    <circle cx="49.5" cy="18.0005" r="5" fill="none" stroke="#000000" stroke-linecap="round" stroke-linejoin="round" stroke-miterlimit="10" stroke-width="2"/>
    <path fill="none" stroke="#000000" stroke-linecap="round" stroke-linejoin="round" stroke-miterlimit="10" stroke-width="2" d="M49.5,16c0-5.5229,4.4766-10,10-10"/>
  </g>
</svg>
