<?xml version="1.0" encoding="utf-8"?>
<!-- Generator: Adobe Illustrator 19.1.0, SVG Export Plug-In . SVG Version: 6.00 Build 0)  -->
<svg version="1.1" id="emoji" xmlns="http://www.w3.org/2000/svg" xmlns:xlink="http://www.w3.org/1999/xlink" x="0px" y="0px"
	 viewBox="0 0 72 72" enable-background="new 0 0 72 72" xml:space="preserve">
<g id="_xD83C__xDF8A__1_">
	<path fill="none" stroke="#000000" stroke-width="2" stroke-linecap="round" stroke-linejoin="round" stroke-miterlimit="10" d="
		M31.8,18.8c-3.5-6.9-11.9-9.9-19-6.6S2.6,23.9,5.6,31L31.8,18.8z"/>
	<path fill="none" stroke="#000000" stroke-width="2" stroke-linecap="round" stroke-linejoin="round" stroke-miterlimit="10" d="
		M66.7,31c3-7.2-0.1-15.5-7.2-18.8s-15.5-0.4-19,6.6L66.7,31z"/>
	<ellipse cx="19.3" cy="31.5" rx="2" ry="2"/>
	<ellipse cx="44.3" cy="33.5" rx="2" ry="2"/>
	<ellipse cx="40.3" cy="55.5" rx="2" ry="2"/>
	<g>
		<path fill="none" stroke="#000000" stroke-width="2" stroke-linecap="round" stroke-linejoin="round" stroke-miterlimit="10" d="
			M36.4,30.3c-0.4,0.3-0.8,0.6-1.2,1c-1.8,2.1-1.6,5.4,0.5,7.3"/>
		<path fill="none" stroke="#000000" stroke-width="2" stroke-linecap="round" stroke-linejoin="round" stroke-miterlimit="10" d="
			M35.5,38.5c0.4,0.3,0.8,0.7,1.1,1.1c1.6,2.3,1.1,5.5-1.2,7.2"/>
	</g>
	<g>
		<path fill="none" stroke="#000000" stroke-width="2" stroke-linecap="round" stroke-linejoin="round" stroke-miterlimit="10" d="
			M21,43c-0.5,0.1-1,0.3-1.4,0.6c-2.4,1.4-3.3,4.6-1.9,7.1"/>
		<path fill="none" stroke="#000000" stroke-width="2" stroke-linecap="round" stroke-linejoin="round" stroke-miterlimit="10" d="
			M17.5,50.4c0.3,0.4,0.5,0.9,0.7,1.4c0.8,2.7-0.7,5.6-3.4,6.5"/>
	</g>
	<g>
		<path fill="none" stroke="#000000" stroke-width="2" stroke-linecap="round" stroke-linejoin="round" stroke-miterlimit="10" d="
			M53.5,38.6c0.5,0.2,0.9,0.4,1.4,0.7c2.2,1.7,2.6,5,1,7.2"/>
		<path fill="none" stroke="#000000" stroke-width="2" stroke-linecap="round" stroke-linejoin="round" stroke-miterlimit="10" d="
			M55.9,46.5c-0.3,0.4-0.6,0.8-0.9,1.3c-1.2,2.5,0,5.6,2.5,6.9"/>
	</g>
</g>
</svg>
