<?xml version="1.0" encoding="utf-8"?>
<!-- Generator: Adobe Illustrator 19.1.0, SVG Export Plug-In . SVG Version: 6.00 Build 0)  -->
<svg version="1.1" id="emoji" xmlns="http://www.w3.org/2000/svg" xmlns:xlink="http://www.w3.org/1999/xlink" x="0px" y="0px"
	 viewBox="0 0 72 72" enable-background="new 0 0 72 72" xml:space="preserve">
<g id="_xD83C__xDF8B_">
	<path fill="none" stroke="#000000" stroke-width="2" stroke-linecap="round" stroke-miterlimit="10" d="M24.5,55.8
		c0.4-2.8,1.2-5.4,2.2-6.9l0-2c-1.5-2-2.4-6.3-2.4-10.1c0-3.8,1-8.1,2.5-10.1l0-2c-0.6-0.8-1.1-2-1.5-3.3"/>
	<path fill="none" stroke="#000000" stroke-width="2" stroke-linecap="round" stroke-linejoin="round" stroke-miterlimit="10" d="
		M24.5,14c0.1-2.8,0.7-5.3,1.7-7.2c0.3-0.6-0.8-1.2-2.4-1.2L10.7,5.5C9.1,5.5,8,6.1,8.3,6.7c1,2,1.7,4.8,1.6,7.9
		c0,3.8-1,8.1-2.5,10.1l0,2c1.5,2,2.4,6.3,2.4,10.1c0,3.8-1,8.1-2.5,10.1l0,2c1.5,2,2.4,6.3,2.4,10.1c0,3.1-0.7,5.9-1.7,7.9
		C7.7,67.4,8.9,68,10.4,68L23.6,68c1.5,0,2.7-0.6,2.4-1.2c-1-2-1.7-4.8-1.6-7.9c0-1,0.1-2.1,0.2-3.2"/>
	<path fill="none" stroke="#000000" stroke-width="2" stroke-linecap="round" stroke-linejoin="round" stroke-miterlimit="10" d="
		M34,19c7.7,10.2,18.9,14.7,19.4,14.9c0.1,0,0.2,0.1,0.3,0.1c0.2,0,0.4-0.1,0.6-0.2c0.2-0.2,0.4-0.6,0.4-1c0-0.5-0.3-12.4-8.2-17.7
		c-3.8-2.5-7.2-2.6-10.5-2.1c0,0-14,3-18,13"/>
	<path fill="none" stroke="#000000" stroke-width="2" stroke-linecap="round" stroke-linejoin="round" stroke-miterlimit="10" d="
		M35.4,29L30,31.7c-0.6,0.3-1,1.1-0.8,1.8c1.2,4.4,5.9,19.2,15.1,28.9c0.5,0.5,1.3,0.6,1.9,0.1l9.2-8.1c0.7-0.6,0.7-1.8,0-2.3
		c-3.1-2.6-10.9-9.6-18.3-22.5C36.9,28.9,36.1,28.7,35.4,29z"/>
</g>
</svg>
