<svg id="emoji" viewBox="0 0 72 72" xmlns="http://www.w3.org/2000/svg">
  <g id="line">
    <line x1="54.0913" x2="17.3557" y1="21.3571" y2="21.3571" fill="none" stroke="#000000" stroke-linecap="round" stroke-linejoin="round" stroke-miterlimit="10" stroke-width="2"/>
    <polyline fill="none" stroke="#000000" stroke-linecap="round" stroke-linejoin="round" stroke-miterlimit="10" stroke-width="2" points="17.3557,21.3571 14,21.3571 14,35.5 16.3571,35.5 16.3571,60.6429 55.6429,60.6429 55.6429,35.5 58,35.5 58,21.3571 54.0913,21.3571"/>
    <line x1="16.3571" x2="56.4286" y1="35.5" y2="35.5" fill="none" stroke="#000000" stroke-linecap="round" stroke-linejoin="round" stroke-miterlimit="10" stroke-width="2"/>
    <path fill="none" stroke="#000000" stroke-linecap="round" stroke-linejoin="round" stroke-miterlimit="10" stroke-width="2" d="M50.9612,18.2506c0.3839-0.9798,0.4917-2.3937-0.4893-4.2293c-1.6091-3.0089-3.5365-4.5339-5.7293-4.5339 c-2.5241,0-5.1454,2.0624-7.794,6.133c-0.3388,0.521-0.6562,1.042-0.9488,1.5449c-0.2926-0.5029-0.61-1.0238-0.9495-1.5449 c-2.647-4.0705-5.2692-6.133-7.7933-6.133c-2.1926,0-4.1209,1.5249-5.7292,4.5339c-0.9019,1.689-0.8835,3.0211-0.5752,3.9863"/>
    <line x1="42.2857" x2="42.2857" y1="60" y2="44.2729" fill="none" stroke="#000000" stroke-miterlimit="10" stroke-width="2"/>
    <line x1="29.7143" x2="29.7143" y1="41.7857" y2="60" fill="none" stroke="#000000" stroke-miterlimit="10" stroke-width="2"/>
    <line x1="42.2857" x2="42.2857" y1="35" y2="22" fill="none" stroke="#000000" stroke-miterlimit="10" stroke-width="2"/>
    <line x1="29.7143" x2="29.7143" y1="22" y2="35" fill="none" stroke="#000000" stroke-miterlimit="10" stroke-width="2"/>
    <polyline fill="none" stroke="#000000" stroke-miterlimit="10" stroke-width="2" points="42.2857,44.7071 42.2857,35.5 29.7143,35.5202 29.7143,42.8737"/>
  </g>
</svg>
