<svg id="emoji" xmlns="http://www.w3.org/2000/svg" viewBox="0 0 72 72">
  
  
  
  
  
  <g id="line">
    <path fill="none" stroke="#000000" stroke-width="2" stroke-linecap="round" stroke-linejoin="round" stroke-miterlimit="10" d="
		M47.8995,9.1325c0.0036-0.0902-0.0177-0.1854-0.02-0.277c-0.0012-0.1675-0.0161-0.3359-0.0366-0.5069
		c-0.0126-0.0909-0.0187-0.1795-0.0366-0.2709c-0.0589-0.33-0.1401-0.6613-0.267-0.9896c-1.4448-3.7362-5.9587-4.9144-9.2682-2.8591
		c-2.5414,1.5789-3.9725,4.4725-4.8703,7.2267c-0.8674,2.6562-1.3688,5.4905-1.5359,8.3c0.0057-0.0012,0.0123-0.002,0.0179-0.0032
		c-0.0017,0.0278-0.0058,0.0557-0.0074,0.0834c0.8161-0.1688,1.7649-0.2942,2.8594-0.3484c0.0019-0.0265,0.006-0.053,0.0079-0.0795
		c0.3639-0.0173,0.7436-0.0267,1.1403-0.0267c1.7114,0,3.1121,0.1713,4.2474,0.4241c-1.1245-2.8896-1.9282-6.282-1.0305-9.1633
		c0.3867-1.2377,1.0952-2.5057,2.3122-3.1451c1.3619-0.7169,3.4476-0.1575,2.9586,1.75c-0.0953,0.373-0.4211,0.5609-0.616,0.8633
		c-0.8978,1.3881,0.3412,2.3164,1.652,1.9849c1.6414-0.4139,2.4005-1.6262,2.4636-3.0253
		C47.8793,9.0915,47.8909,9.1107,47.8995,9.1325z"></path>
    <path fill="none" stroke="#000000" stroke-width="2" stroke-linecap="round" stroke-linejoin="round" stroke-miterlimit="10" d="
		M7.1349,33.9318c-0.0522,0.2349-0.097,0.4709-0.1418,0.7069c-0.0153,0.0805-0.0338,0.1605-0.0482,0.2411
		c-0.0505,0.2827-0.0938,0.5662-0.1334,0.8497c-0.0048,0.0343-0.0115,0.0685-0.0161,0.1028
		c-0.2982,2.2099-0.2669,4.4514,0.0752,6.6451c0.1711,1.0981,0.4145,2.1852,0.7446,3.2487
		c0.4537,1.4606,1.0535,2.8831,1.7787,4.2331c0.6437,1.1984,1.3849,2.3402,2.2296,3.3903c0.0826,0.1027,0.172,0.1989,0.2564,0.2999
		c0.1779,0.2126,0.354,0.4269,0.54,0.6316c0.0008,0.0009,0.0015,0.0016,0.0023,0.0024c0.2498,0.2747,0.4976,0.5352,0.7441,0.787
		c0.0821,0.0839,0.1634,0.1624,0.2451,0.2438c0.1662,0.1655,0.332,0.3282,0.4965,0.4839c0.0928,0.0877,0.1849,0.1724,0.2772,0.257
		c0.1531,0.1404,0.3054,0.2768,0.457,0.4089c0.0933,0.0813,0.1864,0.1623,0.2791,0.2404c0.1564,0.1319,0.3114,0.2576,0.4661,0.3809
		c0.0822,0.0656,0.1649,0.1335,0.2466,0.1966c0.2064,0.1595,0.4111,0.3112,0.6141,0.4559c0.027,0.0192,0.0544,0.0409,0.0814,0.0599
		c0.228,0.1606,0.4532,0.3104,0.6767,0.4533c0.0776,0.0496,0.1539,0.0947,0.2309,0.1422c0.1476,0.0911,0.2947,0.1804,0.4402,0.264
		c0.088,0.0506,0.175,0.0985,0.2622,0.1464c0.134,0.0737,0.267,0.1446,0.399,0.2122c0.0873,0.0447,0.1744,0.0889,0.2608,0.131
		c0.1346,0.0656,0.2678,0.127,0.4003,0.1865c0.0782,0.0352,0.1569,0.0719,0.2343,0.105c0.1667,0.0712,0.3314,0.1367,0.4946,0.1988
		c0.0399,0.0152,0.0807,0.0329,0.1204,0.0475c0.1994,0.0737,0.3956,0.1396,0.5893,0.2003c0.0682,0.0214,0.1348,0.0394,0.2023,0.0592
		c0.1281,0.0377,0.2554,0.0742,0.3807,0.1066c0.0764,0.0197,0.1516,0.0375,0.2271,0.0553c0.1152,0.0272,0.2293,0.0527,0.3422,0.0757
		c0.0745,0.0152,0.1486,0.03,0.222,0.0433c0.1151,0.021,0.2283,0.0392,0.3408,0.0561c0.0652,0.0098,0.1309,0.0206,0.1952,0.0291
		c0.1386,0.0182,0.2744,0.0324,0.4088,0.0447c0.035,0.0032,0.0712,0.0081,0.1058,0.0109c0.1666,0.0135,0.3292,0.0222,0.4889,0.0273
		c0.0511,0.0016,0.1004,0.0013,0.1509,0.0021c0.1099,0.0019,0.2186,0.0028,0.3249,0.0012c0.0574-0.0009,0.1133-0.0029,0.1696-0.0048
		c0.0979-0.0033,0.1943-0.0076,0.289-0.0136c0.0543-0.0034,0.1082-0.0071,0.1614-0.0114c0.0968-0.0078,0.1912-0.0172,0.2844-0.0275
		c0.0449-0.0049,0.0905-0.0094,0.1345-0.015c0.1152-0.0145,0.2272-0.0309,0.3365-0.0487c0.0187-0.0031,0.0386-0.0054,0.0571-0.0086
		c0.1292-0.0219,0.2535-0.046,0.374-0.0716c0.0272-0.0058,0.0524-0.0122,0.0792-0.0181c0.0919-0.0204,0.1817-0.0415,0.2682-0.0636
		c0.0338-0.0087,0.0663-0.0175,0.0993-0.0264c0.0779-0.0209,0.1536-0.0421,0.2269-0.064c0.0297-0.0089,0.0588-0.0175,0.0876-0.0265
		c0.0767-0.0237,0.1502-0.0477,0.2213-0.0719c0.0204-0.007,0.0414-0.0137,0.0614-0.0208c0.1843-0.0645,0.3488-0.129,0.4916-0.1904
		c0.0011-0.0005,0.002-0.0009,0.0031-0.0014c0.053-0.0228,0.1045-0.0453,0.1515-0.0669c-0.0003-0.0002-0.0007-0.0005-0.001-0.0007
		c0.3434-0.1577,0.5293-0.278,0.5293-0.278c1.4545,1.4635,7.593,1.7152,8.0081,1.7307c0.0152,0.0005,0.0291,0.0005,0.0443,0
		c0.415-0.0154,6.5535-0.2672,8.0081-1.7307c0,0,6.7755,4.4366,15.4329-5.0859c6.9675-7.0443,7.8211-20.5231,1.9964-28.6674
		c-0.5488-0.7675-1.1569-1.4874-1.8248-2.1503c-1.051-1.0431-2.222-1.9655-3.4933-2.7019
		c-3.5964-2.0837-7.7466-2.3765-11.6092-0.8917c0,0-2.0076-2.4888-8.532-2.4888c-6.5244,0-8.532,2.4888-8.532,2.4888
		c-0.1086-0.0417-0.2155-0.0732-0.3237-0.1121"></path>
    <path fill="none" stroke="#000000" stroke-width="2" stroke-linecap="round" stroke-linejoin="round" stroke-miterlimit="10" d="
		M27.0273,19.7574c0.0035-0.0016,0.0067-0.0037,0.0102-0.0053c-0.1246-0.0449-0.2475-0.0787-0.3715-0.1198
		c-0.1494-0.0496-0.2989-0.1002-0.4474-0.1443c-0.1768-0.0525-0.3522-0.0975-0.5277-0.1425
		c-0.1491-0.0382-0.2983-0.0776-0.4464-0.1104c-0.1727-0.0383-0.344-0.0692-0.5154-0.1003
		c-0.1483-0.0269-0.2969-0.0552-0.4442-0.0767c-0.1689-0.0247-0.3361-0.0422-0.5035-0.0601
		c-0.1472-0.0157-0.2947-0.0329-0.4409-0.0434c-0.1648-0.0119-0.3279-0.0167-0.4912-0.022
		c-0.1456-0.0048-0.2914-0.011-0.4358-0.0107c-0.1622,0.0004-0.3224,0.0078-0.483,0.0145c-0.1425,0.006-0.2852,0.0103-0.4263,0.0211
		c-0.1594,0.0123-0.317,0.0314-0.4747,0.0498c-0.1393,0.0162-0.2791,0.0308-0.4171,0.0517
		c-0.1565,0.0237-0.3108,0.0543-0.4655,0.0839c-0.136,0.0261-0.2724,0.0503-0.4069,0.0808
		c-0.1541,0.035-0.3059,0.0767-0.4581,0.1175c-0.1318,0.0353-0.2641,0.0686-0.3945,0.1082
		c-0.1519,0.0461-0.3011,0.0988-0.451,0.1504c-0.1271,0.0438-0.2549,0.0856-0.3805,0.1334
		c-0.1497,0.0569-0.2968,0.1205-0.4443,0.183c-0.1223,0.0518-0.2452,0.1014-0.3659,0.1569
		c-0.1479,0.0679-0.2928,0.1423-0.4384,0.2157c-0.1165,0.0587-0.2339,0.1152-0.3488,0.1773
		c-0.1458,0.0788-0.2886,0.1639-0.4318,0.248c-0.1111,0.0652-0.2231,0.1281-0.3327,0.1964
		c-0.1434,0.0894-0.2835,0.1851-0.4242,0.2797c-0.1055,0.0709-0.2121,0.1396-0.316,0.2134
		c-0.1414,0.1003-0.2792,0.2067-0.4177,0.3123c-0.0989,0.0754-0.1992,0.1484-0.2966,0.2263
		c-0.1387,0.1109-0.2736,0.2277-0.4092,0.3436c-0.0936,0.08-0.1886,0.1577-0.2807,0.24c-0.135,0.1207-0.2662,0.2471-0.3979,0.3727
		c-0.088,0.0839-0.1776,0.1655-0.2642,0.2515c-0.1327,0.1318-0.2612,0.269-0.3904,0.4057c-0.0812,0.0858-0.1639,0.1693-0.2437,0.257
		c-0.1293,0.1422-0.2543,0.2896-0.3798,0.4365c-0.0754,0.0881-0.1525,0.1739-0.2264,0.2637"></path>
    <path fill="none" stroke="#000000" stroke-width="2" stroke-linecap="round" stroke-linejoin="round" stroke-miterlimit="10" d="
		M20,48c0,0,15,10,32,0C52,48,36,68,20,48z"></path>
    <polygon fill="none" stroke="#000000" stroke-width="2" stroke-linecap="round" stroke-linejoin="round" stroke-miterlimit="10" points="
		35.896,47.9282 34.1847,44.9641 32.4734,42 35.896,42 39.3187,42 37.6073,44.9641 	"></polygon>
    <path fill="none" stroke="#000000" stroke-width="2" stroke-linecap="round" stroke-linejoin="round" stroke-miterlimit="10" d="
			M48.974,37.8449c2.5901-0.9575,3.9136-3.8335,2.956-6.4235l-9.3796,3.4675C43.508,37.479,46.3839,38.8024,48.974,37.8449z"></path>
    <path fill="none" stroke="#000000" stroke-width="2" stroke-linecap="round" stroke-linejoin="round" stroke-miterlimit="10" d="
			M22.818,37.8449c-2.5901-0.9575-3.9136-3.8335-2.956-6.4235l9.3796,3.4675C28.2841,37.479,25.4081,38.8024,22.818,37.8449z"></path>
  </g>
</svg>