<svg id="emoji" viewBox="0 0 72 72" version="1.1" xmlns="http://www.w3.org/2000/svg">
  <g id="line">
    <path fill="none" stroke="#000000" stroke-linecap="round" stroke-linejoin="round" stroke-miterlimit="10" stroke-width="2" d="M46.9415,35.7854c0.5998,0.5178,0.9795,1.2837,0.9795,2.1382c0,1.5594-1.2643,2.8236-2.8235,2.8236 c0,1.5593-1.2643,2.8235-2.8236,2.8235c-0.533,0-1.026-0.1564-1.4514-0.4131c0.1258,0.8535-0.1304,1.7527-0.7874,2.4096 c-1.1026,1.1027-2.8904,1.1027-3.9929,0c-0.0461-0.046-0.0785-0.0994-0.1205-0.1475c-0.5177,0.5924-1.2698,0.9745-2.1183,0.9745 c-1.5593,0-2.8236-1.2642-2.8236-2.8235c0-0.1419,0.0216-0.278,0.0417-0.4143c-0.4256,0.2575-0.9195,0.4143-1.4534,0.4143 c-1.5593,0-2.8236-1.2642-2.8236-2.8235c-0.7225,0-1.4451-0.2758-1.9964-0.8271c-1.1028-1.1026-1.1028-2.8904,0-3.993"/>
    <path fill="none" stroke="#000000" stroke-linecap="round" stroke-linejoin="round" stroke-miterlimit="10" stroke-width="2" d="M16.0537,58.5598C13.9381,56.7262,12.6,54.0194,12.6,51.0001c0-4.503,3.9885-7.646,7.6297-8.6534 c1.3738-0.38,2.8394,0.0319,3.7804,1.1026C26.2083,45.9505,30.0567,51.4447,28.6,58"/>
    <path fill="none" stroke="#000000" stroke-linecap="round" stroke-linejoin="round" stroke-miterlimit="10" stroke-width="2" d="M46.5401,25.3207c0.4651,1.5491,0.7195,3.2271,0.7195,4.9793c0,1.7891-0.3386,5-0.7492,5.077 c-5.5894-3.077-12.7152-4.7519-21.1523,0.0855C24.921,34.3,24.5824,32.1215,24.5824,30.3c0-1.4757,0.1804-2.8987,0.5152-4.2364"/>
    <path d="M29.9208,28.9392c0,1.1045,0.8965,2,2,2s2-0.8955,2-2c0-1.1035-0.8965-2-2-2 C30.8173,26.9392,29.9208,27.8357,29.9208,28.9392"/>
    <path d="M37.9208,28.9392c0,1.1045,0.8965,2,2,2s2-0.8955,2-2c0-1.1035-0.8965-2-2-2S37.9208,27.8357,37.9208,28.9392"/>
    <path d="M35.921,38.9416c1.1518,0,2.3037-0.2861,3.4472-0.8579c0.4942-0.2471,0.6944-0.8477,0.4473-1.3418 c-0.2466-0.4937-0.8462-0.6943-1.3418-0.4473c-1.7178,0.8594-3.3877,0.8594-5.1055,0c-0.4946-0.247-1.0947-0.0464-1.3417,0.4473 c-0.2471,0.4941-0.0469,1.0947,0.4472,1.3418C33.6173,38.6555,34.7691,38.9416,35.921,38.9416z"/>
    <path fill="none" stroke="#000000" stroke-linecap="round" stroke-linejoin="round" stroke-miterlimit="10" stroke-width="2" d="M46.8175,20.3199c-0.0737-0.9671-0.1899-1.8861-0.359-2.7506"/>
    <path fill="none" stroke="#000000" stroke-linecap="round" stroke-linejoin="round" stroke-miterlimit="10" stroke-width="2" d="M46.7431,20.3H25.0989c-0.6506,0-1.1779,0.4175-1.1779,0.9325v3.135c0,0.515,0.5273,0.9325,1.1779,0.9325h0.2961h21.3481 c0.6505,0,1.1779-0.4175,1.1779-0.9325v-3.135C47.921,20.7175,47.3936,20.3,46.7431,20.3z"/>
    <path fill="none" stroke="#000000" stroke-linecap="round" stroke-linejoin="round" stroke-miterlimit="10" stroke-width="2" d="M42.921,11.3"/>
    <path fill="none" stroke="#000000" stroke-linecap="round" stroke-linejoin="round" stroke-miterlimit="10" stroke-width="2" d="M25.0245,20.3199C25.5304,13.6761,30.921,9.3,35.921,9.3c6,0,9.0025,1.39,10.8816,2.3793 c10.4928,5.524,8.7806,17.3451,7.9726,22.6407c0.0496-0.0038,0.0952-0.02,0.1458-0.02c0.7418,0,1.3818,0.4086,1.7272,1.0084 c0.6921-0.0009,1.366,0.3491,1.7369,0.9916c0.3708,0.6424,0.3372,1.4011-0.0098,2c0.347,0.5989,0.3806,1.3575,0.0098,2 c-0.3709,0.6424-1.0447,0.9924-1.7368,0.9915C56.3029,41.8914,55.6628,42.3,54.921,42.3s-1.382-0.4086-1.7273-1.0085 c-0.6922,0.0009-1.366-0.3491-1.7368-0.9915c-0.3709-0.6425-0.3372-1.4011,0.0097-2c-0.3469-0.5989-0.3806-1.3576-0.0097-2 c0.0542-0.094,0.127-0.1681,0.1933-0.2494l-1.0313-0.4833"/>
    <path fill="none" stroke="#000000" stroke-linecap="round" stroke-linejoin="round" stroke-miterlimit="10" stroke-width="2" d="M16.0537,58.5598C13.9381,56.7262,12.6,54.0194,12.6,51.0001c0-4.503,3.9885-7.646,7.6297-8.6534 c1.3738-0.38,2.8394,0.0319,3.7804,1.1026C26.2083,45.9505,30.0567,51.4447,28.6,58c0,0-9-9-11-9"/>
    <path fill="none" stroke="#000000" stroke-linecap="round" stroke-linejoin="round" stroke-miterlimit="10" stroke-width="2" d="M25.0245,20.3199C25.5304,13.6761,30.921,9.3,35.921,9.3c6,0,9.0025,1.39,10.8816,2.3793 c10.4928,5.524,8.7806,17.3451,7.9726,22.6407c0.0496-0.0038,0.0952-0.02,0.1458-0.02c0.7418,0,1.3818,0.4086,1.7272,1.0084 c0.6921-0.0009,1.366,0.3491,1.7369,0.9916c0.3708,0.6424,0.3372,1.4011-0.0098,2c0.347,0.5989,0.3806,1.3575,0.0098,2 c-0.3709,0.6424-1.0447,0.9924-1.7368,0.9915C56.3029,41.8914,55.6628,42.3,54.921,42.3s-1.382-0.4086-1.7273-1.0085 c-0.6922,0.0009-1.366-0.3491-1.7368-0.9915c-0.3709-0.6425-0.3372-1.4011,0.0097-2c-0.3469-0.5989-0.3806-1.3576-0.0097-2 c0.0542-0.094,0.127-0.1681,0.1933-0.2494l-1.0313-0.4833"/>
    <path fill="none" stroke="#000000" stroke-linecap="round" stroke-linejoin="round" stroke-miterlimit="10" stroke-width="2" d="M16.92,59.9981c0,0-0.97-6.3,2.49-10.13"/>
    <path fill="none" stroke="#000000" stroke-linecap="round" stroke-linejoin="round" stroke-miterlimit="10" stroke-width="2" d="M54.8,59.9981c0,0,1.36-8.85-4.9-11.93c-0.17-0.08-0.34-0.16-0.51-0.24c-0.18-0.07-0.36-0.14-0.55-0.21 c-0.19-0.06-0.38-0.12-0.58-0.18c-0.4-0.11-0.82-0.2-1.26-0.28c-0.68-0.1-1.41-0.16-2.2-0.16c-0.6,0.4-1.18,0.78-1.75,1.12 c-0.2,0.12-0.39,0.24-0.59,0.35c-0.18,0.1-0.36,0.2-0.54,0.3c-0.18,0.11-0.36,0.21-0.54,0.3c-0.37,0.19-0.74,0.36-1.11,0.52 s-0.73,0.3-1.1,0.42c-0.18,0.06-0.36,0.12-0.55,0.17c-0.14,0.04-0.28,0.08-0.42,0.11c-0.2,0.05-0.39,0.09-0.58,0.13 c-0.06,0.01-0.13,0.02-0.19,0.03c-0.32,0.06-0.65,0.1-0.98,0.12c-0.19,0.01-0.39,0.02-0.59,0.02c-0.05,0-0.09,0-0.14,0 c-0.18,0-0.35-0.01-0.53-0.03c-0.12,0-0.24-0.02-0.36-0.03c-0.18-0.02-0.36-0.04-0.54-0.08c-0.09-0.01-0.19-0.03-0.28-0.05 c-0.18-0.03-0.35-0.07-0.53-0.11c-0.03-0.01-0.07-0.02-0.1-0.03c-0.1-0.02-0.2-0.05-0.3-0.08c-0.18-0.05-0.36-0.11-0.53-0.17 c-0.37-0.12-0.73-0.26-1.1-0.42c-1.47-0.63-2.94-1.53-4.53-2.59c-0.12,0-0.24,0-0.35,0.01"/>
    <path fill="none" stroke="#000000" stroke-linecap="round" stroke-linejoin="round" stroke-miterlimit="10" stroke-width="2" d="M28.88,53.9881c1.24,0.48,2.59,0.81,4.04,0.98v5.03"/>
    <path fill="none" stroke="#000000" stroke-linecap="round" stroke-linejoin="round" stroke-miterlimit="10" stroke-width="2" d="M38.92,59.9981v-4.91c5.51-0.34,9.52-2.79,10.98-7.02c-0.17-0.08-0.34-0.16-0.51-0.24c-0.18-0.07-0.36-0.14-0.55-0.21 c-0.19-0.06-0.38-0.12-0.58-0.18c-0.4-0.11-0.82-0.2-1.26-0.28c-0.68-0.1-1.41-0.16-2.2-0.16c-0.6,0.4-1.18,0.78-1.75,1.12 c-0.2,0.12-0.39,0.24-0.59,0.35c-0.18,0.11-0.36,0.22-0.54,0.3c-0.18,0.11-0.36,0.21-0.54,0.3c-0.37,0.19-0.74,0.36-1.11,0.52 s-0.73,0.3-1.1,0.42c-0.18,0.07-0.36,0.13-0.55,0.17c-0.14,0.04-0.28,0.08-0.42,0.11c-0.2,0.05-0.39,0.09-0.58,0.13 c-0.06,0.01-0.13,0.02-0.19,0.03c-0.32,0.06-0.65,0.1-0.98,0.12c-0.19,0.01-0.39,0.02-0.59,0.02c-0.05,0-0.09,0-0.14,0 c-0.18,0-0.35-0.01-0.53-0.03c-0.12,0-0.24-0.02-0.36-0.03c-0.18-0.02-0.36-0.04-0.54-0.08c-0.09-0.01-0.19-0.03-0.28-0.05 c-0.21-0.04-0.42-0.09-0.63-0.14c-0.1-0.02-0.2-0.05-0.3-0.08c-0.18-0.05-0.36-0.11-0.53-0.17c-0.37-0.12-0.73-0.26-1.1-0.42 c-1.47-0.63-2.94-1.53-4.53-2.59c-0.12,0-0.24,0-0.35,0.01"/>
    <path fill="none" stroke="#000000" stroke-linecap="round" stroke-linejoin="round" stroke-miterlimit="10" stroke-width="2" d="M12.6,51.0001c0-4.503,3.9885-7.646,7.6297-8.6534c1.3738-0.38,2.8394,0.0319,3.7804,1.1026 C26.2083,45.9505,30.0567,51.4447,28.6,58c0,0-9-9-11-9"/>
  </g>
</svg>
