<svg id="emoji" xmlns="http://www.w3.org/2000/svg" viewBox="0 0 72 72">
  <g id="line">
    <path fill="none" stroke="#000000" stroke-width="2" stroke-linecap="round" stroke-linejoin="round" stroke-miterlimit="10" d="
		M29.7936,17.5924c-0.2024-1.3083-0.3097-2.6666-0.304-3.9578c0.0138-3.0777,0.6706-5.8554,1.7175-7.8542
		c0.3259-0.6219-0.8336-1.2099-2.3668-1.2168L15.6806,4.5048c-1.5335-0.0069-2.6979,0.5708-2.3779,1.1955
		c1.0289,2.0081,1.6609,4.7915,1.6471,7.8692c-0.0168,3.7561-0.9957,8.0724-2.4683,10.0645l-0.009,2.0151
		c1.4547,2.0051,2.395,6.33,2.3782,10.0862c-0.0168,3.756-0.9957,8.0724-2.4683,10.0645l-0.009,2.015
		c1.4547,2.0051,2.395,6.33,2.3782,10.0862c-0.0138,3.0778-0.6706,5.8554-1.7175,7.8542c-0.3259,0.6219,0.8336,1.2099,2.3671,1.2168
		l13.1594,0.0589c1.5335,0.0069,2.6979-0.5708,2.3779-1.1955c-1.0289-2.0081-1.6609-4.7914-1.6471-7.8692
		c0.0046-1.0392,0.0829-2.1213,0.225-3.1852"></path>
    <path fill="none" stroke="#000000" stroke-width="2" stroke-linecap="round" stroke-linejoin="round" stroke-miterlimit="10" d="
		M41,12c3.3439-0.5011,6.7458-0.4799,10.4994,2.0511c7.8693,5.3059,8.1448,17.1677,8.1532,17.6704
		c0.0056,0.3848-0.1372,0.7497-0.3839,0.9795c-0.167,0.1563-0.3688,0.2379-0.5724,0.2379c-0.0972,0-0.1942-0.0187-0.2886-0.056
		C57.8743,32.6727,46.6569,28.2104,39,18"></path>
    <path fill="none" stroke="#000000" stroke-width="2" stroke-linecap="round" stroke-linejoin="round" stroke-miterlimit="10" d="
		M40.445,27.9895l-5.4208,2.6931c-0.6447,0.3203-0.978,1.0867-0.7746,1.8045c1.2382,4.368,5.9416,19.1975,15.1459,28.9456
		c0.5127,0.5431,1.346,0.5627,1.9107,0.0672l9.2458-8.1146c0.7049-0.6187,0.7032-1.763-0.0138-2.3489
		c-3.1252-2.5532-10.8734-9.6479-18.2871-22.4672C41.8759,27.9204,41.1009,27.6636,40.445,27.9895z"></path>
    <path fill="none" stroke="#000000" stroke-width="2" stroke-miterlimit="10" d="M29.5163,54.7811
		c0.3713-2.7814,1.1782-5.4385,2.2433-6.8793l0.009-2.0151c-1.4548-2.0052-2.395-6.3301-2.3782-10.0862
		c0.0168-3.7561,0.9957-8.0725,2.4683-10.0645l0.009-2.0151c-0.9547-1.3159-1.6878-3.6309-2.0742-6.1285"></path>
  </g>
</svg>