<svg id="emoji" viewBox="0 0 72 72" xmlns="http://www.w3.org/2000/svg">
  <g id="line">
    <path fill="#000000" stroke="none" d="M36.2952,64.8485c-0.5522,0-1-0.4478-1-1v-9.3081c0-0.5523,0.4478-1,1-1c0.5523,0,1,0.4477,1,1v9.3081 C37.2952,64.4007,36.8475,64.8485,36.2952,64.8485z"/>
    <path fill="#000000" stroke="none" d="M55.4857,54.099c-0.0249,0-0.0498-0.001-0.0747-0.003l-13.7456-1.0327 c-0.5508-0.041-0.9639-0.5215-0.9224-1.0718c0.041-0.5507,0.5127-0.9687,1.0718-0.9223l11.9316,0.8965l-8.2329-15.4151 c-0.1792-0.3354-0.1528-0.7431,0.0679-1.0522c0.2207-0.3091,0.5986-0.4624,0.9731-0.4063l3.2363,0.522l-7.2705-12.2627 c-0.1894-0.3198-0.186-0.7183,0.0093-1.0347c0.1953-0.3169,0.541-0.5029,0.9209-0.4726l2.9024,0.2036L36.3221,7.6131 l-9.5103,14.604l2.2373-0.3628c0.3907-0.062,0.7745,0.107,0.9917,0.4322c0.2178,0.3252,0.2251,0.748,0.0191,1.081l-7.583,12.2622 l3.5683-0.539c0.3741-0.0533,0.7481,0.103,0.9663,0.4116c0.2183,0.3091,0.2432,0.7148,0.065,1.0483l-8.2407,15.4297l11.7124-0.7866 c0.5371-0.0459,1.0273,0.3794,1.0644,0.9307c0.0371,0.5507-0.3794,1.0278-0.9306,1.0644l-13.5103,0.9077 c-0.3667,0.0235-0.71-0.1499-0.9067-0.4551c-0.1973-0.3051-0.2134-0.6928-0.0425-1.0136l8.1513-15.2617L20.6395,37.93 c-0.3867,0.0542-0.77-0.1133-0.9839-0.438c-0.2149-0.3252-0.2212-0.7451-0.0161-1.0766l7.5669-12.2359l-2.3062,0.3741 c-0.3955,0.0605-0.7827-0.1104-0.998-0.4419c-0.2163-0.3316-0.2163-0.7593,0-1.0913L35.4573,5.2762 c0.1817-0.2788,0.4903-0.4492,0.8228-0.4541c0.3364,0.0049,0.647,0.1563,0.8364,0.4292l12.0698,17.3691 c0.2198,0.3165,0.2383,0.7305,0.0484,1.065c-0.19,0.3345-0.5454,0.5268-0.9395,0.5034l-3.0815-0.2163l7.3867,12.459 c0.1978,0.3335,0.1846,0.7519-0.0337,1.0727c-0.2187,0.3199-0.604,0.4829-0.9858,0.4244l-3.353-0.5406l8.1396,15.2398 c0.1719,0.3217,0.1553,0.7114-0.0439,1.0171C56.138,53.9295,55.8221,54.099,55.4857,54.099z"/>
  </g>
</svg>
