<svg id="emoji" viewBox="0 0 72 72" version="1.1" xmlns="http://www.w3.org/2000/svg">
  <g id="line">
    <path fill="none" stroke="#000000" stroke-linecap="round" stroke-linejoin="round" stroke-miterlimit="10" stroke-width="2" d="M41,12c3.3439-0.5011,6.7458-0.4799,10.4994,2.0511c7.8693,5.3059,8.1448,17.1677,8.1532,17.6704 c0.0056,0.3848-0.1372,0.7497-0.3839,0.9795c-0.167,0.1563-0.3688,0.2379-0.5724,0.2379c-0.0972,0-0.1942-0.0187-0.2886-0.056 C57.8743,32.6727,46.6569,28.2104,39,18"/>
    <path fill="none" stroke="#000000" stroke-linecap="round" stroke-linejoin="round" stroke-miterlimit="10" stroke-width="2" d="M40.445,27.9895l-5.4208,2.6931c-0.6447,0.3203-0.978,1.0867-0.7746,1.8045c1.2382,4.368,5.9416,19.1975,15.1459,28.9456 c0.5127,0.5431,1.346,0.5627,1.9107,0.0672l9.2458-8.1146c0.7049-0.6187,0.7032-1.763-0.0138-2.3489 c-3.1252-2.5532-10.8734-9.6479-18.2871-22.4672C41.8759,27.9204,41.1009,27.6636,40.445,27.9895z"/>
    <path d="M15.9497,13.5739c0.0132-2.9297-0.5317-5.7065-1.5405-7.8848c0.2617-0.0942,0.6865-0.1973,1.2671-0.1841l13.1597,0.0586 c0.5742,0.0024,1.0034,0.0991,1.2646,0.1953c-1.0283,2.1694-1.5977,4.9414-1.6108,7.8711 c-0.0059,1.3179,0.103,2.7412,0.3154,4.1152c0.1804,1.1668,0.4319,2.2573,0.733,3.2396H31.64 c-0.3561-1.0208-0.6553-2.2333-0.8583-3.5453c-0.1968-1.2715-0.2974-2.5859-0.292-3.8008c0.0127-2.8184,0.582-5.4443,1.603-7.394 c0.2412-0.4604,0.2256-0.9814-0.0439-1.4292c-0.5508-0.915-2.0161-1.2466-3.2041-1.252L15.6855,3.505 c-1.21,0.0195-2.6558,0.3125-3.2153,1.2227c-0.2734,0.4453-0.2944,0.9658-0.0576,1.4287c1.0039,1.959,1.5498,4.5903,1.5371,7.4087 c-0.0114,2.6023-0.5109,5.3911-1.2535,7.4198h2.1182C15.5073,18.8297,15.9383,16.1669,15.9497,13.5739z"/>
    <path d="M15.8506,35.7399c0.0116-2.53-0.4008-5.3115-1.1029-7.5328H12.637c0.0374,0.1025,0.0764,0.1989,0.1125,0.3057 c0.7007,2.0723,1.1123,4.7705,1.1011,7.2183c-0.0111,2.5326-0.4857,5.2396-1.1954,7.2538h2.1177 C15.4335,40.8607,15.8395,38.2642,15.8506,35.7399z"/>
    <path d="M30.3906,35.8048c0.0118-2.6768,0.5377-5.5574,1.316-7.5977h-2.119c-0.728,2.1857-1.1853,4.9222-1.197,7.5889 c-0.0113,2.4971,0.362,5.0714,0.9913,7.1888h2.1103C30.8171,40.9731,30.3793,38.3023,30.3906,35.8048z"/>
    <path d="M28.5249,54.6486l0.0005,0.0001c-0.1509,1.1279-0.2295,2.2431-0.2339,3.3124c-0.0132,2.9307,0.5317,5.708,1.5405,7.8857 c-0.2617,0.0938-0.6904,0.1797-1.2671,0.1846l-13.1592-0.0596c-0.5742-0.0029-1.0039-0.0996-1.2651-0.1953 c1.0283-2.1699,1.5977-4.9414,1.6108-7.8711c0.0122-2.7077-0.4344-5.4905-1.1622-7.6984h-2.1128 c0.7759,2.0511,1.2873,4.9786,1.275,7.6886c-0.0127,2.8193-0.582,5.4453-1.603,7.3945c-0.2412,0.4609-0.2256,0.9814,0.0439,1.4297 c0.5508,0.915,2.0166,1.2471,3.2046,1.252l13.1592,0.0596c0.0098,0,0.019,0,0.0288,0c1.1821,0,2.6309-0.3203,3.186-1.2236 c0.2734-0.4443,0.2944-0.9658,0.0576-1.4287c-1.0039-1.959-1.5498-4.5898-1.5371-7.4092c0.0044-0.9844,0.0771-2.0127,0.2163-3.0557 c0.0001-0.0008-0.0002-0.0014-0.0001-0.0022c0.2372-1.7746,0.6535-3.4259,1.1619-4.705H29.537 C29.0951,51.4969,28.7445,53.0043,28.5249,54.6486z"/>
  </g>
</svg>
