<?xml version="1.0" encoding="utf-8"?>
<!-- Generator: Adobe Illustrator 21.1.0, SVG Export Plug-In . SVG Version: 6.00 Build 0)  -->
<svg version="1.1" id="emoji" xmlns="http://www.w3.org/2000/svg" xmlns:xlink="http://www.w3.org/1999/xlink" x="0px" y="0px"
	 viewBox="0 0 72 72" enable-background="new 0 0 72 72" xml:space="preserve">
<g id="_xD83C__xDF80_">
	<path fill="none" stroke="#000000" stroke-width="1.992" stroke-miterlimit="10" d="M59.1,16.1c-0.6-0.3-1.1-0.5-1.8-0.5
		c-2.2,0-5.2,1-8.2,2.5"/>
	<path fill="none" stroke="#000000" stroke-width="1.992" stroke-miterlimit="10" d="M40.4,36.2c11.6,3.6,14.5,12.5,20.2,4.9
		c5.9-7.8,3.5-22.3-1.5-25.1"/>
	<path fill="none" stroke="#000000" stroke-width="1.992" stroke-miterlimit="10" d="M49.1,18.1c-3.7,1.8-7.5,4.5-9.9,7.1"/>
	<path fill="none" stroke="#000000" stroke-width="1.992" stroke-miterlimit="10" d="M31.5,25c-4.4-4.7-13.2-9.5-18.1-9.5
		c-6.1,0-9.8,16.9-3.3,25.6c5.7,7.6,8.6-1.3,20.2-4.9"/>
	<path fill="none" stroke="#000000" stroke-width="2" stroke-linecap="round" stroke-linejoin="round" stroke-miterlimit="10" d="
		M30.3,36.8c-1.2,0.4-2.4,1-3.4,1.6c-2.2,2.9-6.1,8.8-10.3,18.2c-0.3,0.7,0.2,1.6,0.9,1.5l4.8-1.1c0.7-0.2,1.4,0.3,1.7,1l2.2,4.9
		c0.4,0.9,1.4,0.7,1.6-0.3c0.9-4.8,3.1-15.2,5.7-22.3C31.9,40.1,30.7,38.7,30.3,36.8z"/>
	<path fill="none" stroke="#000000" stroke-width="2" stroke-linecap="round" stroke-linejoin="round" stroke-miterlimit="10" d="
		M44.1,38.4c-1.1-0.6-2.2-1.2-3.4-1.6c-0.4,1.9-1.6,3.3-3.2,3.6c2.6,7,4.8,17.4,5.7,22.3c0.2,1,1.2,1.1,1.6,0.3l2.2-4.9
		c0.3-0.8,1-1.2,1.7-1l4.8,1.1c0.7,0.1,1.2-0.7,0.9-1.5C50.3,47.3,46.4,41.4,44.1,38.4z"/>
	<path fill="none" stroke="#000000" stroke-width="2" stroke-miterlimit="10" d="M35.8,22.7h-1.7c-2.2,0-4.1,2.4-4.1,5.3v6.6
		c0,2.9,1.8,5.3,4.1,5.3h1.7c2.2,0,4.1-2.4,4.1-5.3V28C39.9,25.1,38.1,22.7,35.8,22.7z"/>
</g>
</svg>
