<svg id="emoji" viewBox="0 0 72 72" version="1.1" xmlns="http://www.w3.org/2000/svg">
  <g id="line">
    <path fill="none" stroke="#000000" stroke-miterlimit="10" stroke-width="1.992" d="M59.056,16.1044 c-0.5572-0.3152-1.1471-0.4855-1.762-0.4855c-2.2168,0-5.2008,0.9656-8.2145,2.4537"/>
    <path fill="none" stroke="#000000" stroke-miterlimit="10" stroke-width="1.992" d="M40.357,36.2449 c11.5893,3.5957,14.4851,12.5149,20.1946,4.9369c5.8616-7.7802,3.4998-22.2515-1.4956-25.0774"/>
    <path fill="none" stroke="#000000" stroke-miterlimit="10" stroke-width="1.992" d="M49.0795,18.0727 c-3.7261,1.8399-7.4976,4.4786-9.9199,7.0785"/>
    <path fill="none" stroke="#000000" stroke-miterlimit="10" stroke-width="1.992" d="M30.11,28.4898v0.46c0.01,1.54,0.01,2.7,0,3.58 c0,1.02-0.01,1.67,0,2.14c0,0.57,0.03,0.88,0.11,1.24c0,0.02,0.01,0.03,0.01,0.05c0.02,0.04,0.03,0.09,0.04,0.14h-0.01 c-7.18,2.23-11.02,6.5-14.26,7.62c-1.7,0.59-3.24,0.32-5-1.56c-0.3-0.32-0.61-0.7-0.93-1.12c-1.51-2.01-2.48-4.46-2.99-7.04 c-0.14-0.72-0.25-1.44-0.32-2.17c-0.05-0.44-0.09-0.88-0.1-1.32c-0.03-0.43-0.04-0.87-0.04-1.3c0-5.56,1.77-10.85,4.38-12.87 c0.16-0.13,0.32-0.24,0.49-0.34c0.58-0.34,1.2-0.53,1.84-0.53c0.61,0,1.27,0.07,1.98,0.21c0.23,0.04,0.46,0.09,0.69,0.15 c0.21,0.05,0.43,0.11,0.65,0.17c4.76,1.32,10.85,4.96,14.43,8.61"/>
    <path fill="none" stroke="#000000" stroke-linecap="round" stroke-linejoin="round" stroke-miterlimit="10" stroke-width="2" d="M30.2974,36.8198c-1.2433,0.4498-2.3699,0.9827-3.4001,1.5558c-2.2091,2.9385-6.1227,8.8343-10.3118,18.2197 c-0.3339,0.7478,0.1772,1.6439,0.8543,1.496l4.8211-1.054c0.6993-0.1529,1.3995,0.2638,1.7428,1.0375l2.1714,4.8934 c0.38,0.8563,1.4067,0.6854,1.5923-0.2651c0.9416-4.8245,3.1008-15.2418,5.7176-22.2669 C31.9419,40.1079,30.698,38.6771,30.2974,36.8198z"/>
    <path fill="none" stroke="#000000" stroke-linecap="round" stroke-linejoin="round" stroke-miterlimit="10" stroke-width="2" d="M44.1456,38.4326c-1.0626-0.6085-2.206-1.1647-3.4429-1.6129c-0.4006,1.8573-1.6446,3.2882-3.1877,3.6164 c2.6169,7.0251,4.7762,17.4424,5.7177,22.2669c0.1855,0.9505,1.2123,1.1214,1.5923,0.2651l2.1715-4.8934 c0.3433-0.7734,1.0435-1.1903,1.7428-1.0375l4.8211,1.054c0.6771,0.1479,1.1882-0.7481,0.8543-1.496 C50.2524,47.2699,46.3622,41.3901,44.1456,38.4326z"/>
    <path fill="none" stroke="#000000" stroke-miterlimit="10" stroke-width="2" d="M35.8394,22.7182h-1.6787 c-2.2335,0-4.0505,2.3813-4.0505,5.3087v6.6448c0,2.9274,1.817,5.3088,4.0505,5.3088h1.6787c2.2335,0,4.0505-2.3815,4.0505-5.3088 v-6.6448C39.89,25.0995,38.0729,22.7182,35.8394,22.7182z"/>
  </g>
</svg>
