<svg id="emoji" xmlns="http://www.w3.org/2000/svg" viewBox="0 0 72 72">
  <g id="line">
    <path fill="none" stroke="#000000" stroke-width="2" stroke-linecap="round" stroke-linejoin="round" stroke-miterlimit="10" d="M32.7332,23.0969v-9.1386c0-1.6568,1.3433-3,3-3h0.3395c1.6567,0,3,1.3432,3,3v9.1386"/>
    <path fill="none" stroke="#000000" stroke-width="2" stroke-linecap="round" stroke-linejoin="round" stroke-miterlimit="10" d="M39.0727,33.4116v24.5467c0,1.6569-1.3433,3-3,3h-0.3395c-1.6567,0-3-1.3431-3-3V33.4116"/>
    <rect x="29.1015" y="23.4473" fill="none" stroke="#000000" stroke-width="2" stroke-linecap="round" stroke-linejoin="round" stroke-miterlimit="10" width="13.797" height="9.699"/>
    <line fill="none" stroke="#000000" stroke-width="2" stroke-linecap="round" stroke-linejoin="round" stroke-miterlimit="10" x1="33.0212" y1="28.3328" x2="38.9099" y2="28.3328"/>
    <path fill="none" stroke="#000000" stroke-width="2" stroke-linecap="round" stroke-linejoin="round" stroke-miterlimit="10" d="M51.8846,67.092H19.9504c-1.6568,0-3-1.3432-3-3V7.9496c0-1.6568,1.3432-3,3-3h31.9342c1.6569,0,3,1.3432,3,3V64.092 C54.8846,65.7488,53.5415,67.092,51.8846,67.092z"/>
    <line fill="none" stroke="#000000" stroke-width="2" stroke-linecap="round" stroke-linejoin="round" stroke-miterlimit="10" x1="47.911" y1="18.2599" x2="50.5593" y2="18.2599"/>
    <line fill="none" stroke="#000000" stroke-width="2" stroke-linecap="round" stroke-linejoin="round" stroke-miterlimit="10" x1="47.911" y1="12.6306" x2="50.5593" y2="12.6306"/>
    <line fill="none" stroke="#000000" stroke-width="2" stroke-linecap="round" stroke-linejoin="round" stroke-miterlimit="10" x1="47.9221" y1="23.4683" x2="50.5593" y2="23.4683"/>
    <line fill="none" stroke="#000000" stroke-width="2" stroke-linecap="round" stroke-linejoin="round" stroke-miterlimit="10" x1="47.911" y1="28.2032" x2="50.5593" y2="28.2032"/>
    <line fill="none" stroke="#000000" stroke-width="2" stroke-linecap="round" stroke-linejoin="round" stroke-miterlimit="10" x1="47.9221" y1="33.4116" x2="50.5593" y2="33.4116"/>
    <line fill="none" stroke="#000000" stroke-width="2" stroke-linecap="round" stroke-linejoin="round" stroke-miterlimit="10" x1="47.911" y1="39.0409" x2="50.5593" y2="39.0409"/>
    <line fill="none" stroke="#000000" stroke-width="2" stroke-linecap="round" stroke-linejoin="round" stroke-miterlimit="10" x1="47.9121" y1="44.2493" x2="50.5593" y2="44.2493"/>
    <line fill="none" stroke="#000000" stroke-width="2" stroke-linecap="round" stroke-linejoin="round" stroke-miterlimit="10" x1="47.901" y1="48.9842" x2="50.5593" y2="48.9842"/>
    <line fill="none" stroke="#000000" stroke-width="2" stroke-linecap="round" stroke-linejoin="round" stroke-miterlimit="10" x1="47.8921" y1="54.1927" x2="50.5593" y2="54.1927"/>
    <line fill="none" stroke="#000000" stroke-width="2" stroke-linecap="round" stroke-linejoin="round" stroke-miterlimit="10" x1="47.9065" y1="58.9086" x2="50.5593" y2="58.9086"/>
    <line fill="none" stroke="#000000" stroke-width="2" stroke-linecap="round" stroke-linejoin="round" stroke-miterlimit="10" x1="21.2817" y1="18.2599" x2="23.9301" y2="18.2599"/>
    <line fill="none" stroke="#000000" stroke-width="2" stroke-linecap="round" stroke-linejoin="round" stroke-miterlimit="10" x1="21.2817" y1="12.6306" x2="23.9301" y2="12.6306"/>
    <line fill="none" stroke="#000000" stroke-width="2" stroke-linecap="round" stroke-linejoin="round" stroke-miterlimit="10" x1="21.2929" y1="23.4683" x2="23.9301" y2="23.4683"/>
    <line fill="none" stroke="#000000" stroke-width="2" stroke-linecap="round" stroke-linejoin="round" stroke-miterlimit="10" x1="21.2817" y1="28.2032" x2="23.9301" y2="28.2032"/>
    <line fill="none" stroke="#000000" stroke-width="2" stroke-linecap="round" stroke-linejoin="round" stroke-miterlimit="10" x1="21.2929" y1="33.4116" x2="23.9301" y2="33.4116"/>
    <line fill="none" stroke="#000000" stroke-width="2" stroke-linecap="round" stroke-linejoin="round" stroke-miterlimit="10" x1="21.2817" y1="39.0409" x2="23.9301" y2="39.0409"/>
    <line fill="none" stroke="#000000" stroke-width="2" stroke-linecap="round" stroke-linejoin="round" stroke-miterlimit="10" x1="21.2829" y1="44.2493" x2="23.9301" y2="44.2493"/>
    <line fill="none" stroke="#000000" stroke-width="2" stroke-linecap="round" stroke-linejoin="round" stroke-miterlimit="10" x1="21.2717" y1="48.9842" x2="23.9301" y2="48.9842"/>
    <line fill="none" stroke="#000000" stroke-width="2" stroke-linecap="round" stroke-linejoin="round" stroke-miterlimit="10" x1="21.2629" y1="54.1927" x2="23.9301" y2="54.1927"/>
    <line fill="none" stroke="#000000" stroke-width="2" stroke-linecap="round" stroke-linejoin="round" stroke-miterlimit="10" x1="21.2773" y1="58.9086" x2="23.9301" y2="58.9086"/>
  </g>
</svg>
