<?xml version="1.0" encoding="utf-8"?>
<!-- Generator: Adobe Illustrator 19.1.0, SVG Export Plug-In . SVG Version: 6.00 Build 0)  -->
<svg version="1.1" id="emoji" xmlns="http://www.w3.org/2000/svg" xmlns:xlink="http://www.w3.org/1999/xlink" x="0px" y="0px"
	 viewBox="0 0 72 72" enable-background="new 0 0 72 72" xml:space="preserve">
<g id="_xD83C__xDFA7__xFE0F__1_">
	<g>
		<path fill="none" stroke="#000000" stroke-width="2" stroke-linecap="round" stroke-linejoin="round" stroke-miterlimit="10" d="
			M31.2,40.6c1,0.5,1.6,1.5,1.6,2.7l0,15.5c0,1.2-0.7,2.3-1.8,2.7"/>
		<path fill="none" stroke="#000000" stroke-width="2" stroke-linecap="round" stroke-linejoin="round" stroke-miterlimit="10" d="
			M27.5,39.6c0,0-6.4,1.8-7.1,11.5s7,11.4,7,11.4L27.5,39.6z"/>
		<path fill="none" stroke="#000000" stroke-width="2" stroke-linecap="round" stroke-linejoin="round" stroke-miterlimit="10" d="
			M40.9,40.6c-0.9,0.5-1.4,1.5-1.4,2.5l-0.2,15.5c0,1.2,0.7,2.3,1.8,2.8"/>
		<path fill="none" stroke="#000000" stroke-width="2" stroke-linecap="round" stroke-linejoin="round" stroke-miterlimit="10" d="
			M44.7,39.5c0,0,6.3,1.9,6.9,11.6c0.6,9.7-7.1,11.3-7.1,11.3L44.7,39.5z"/>
		<path fill="none" stroke="#000000" stroke-width="2" stroke-linecap="round" stroke-linejoin="round" stroke-miterlimit="10" d="
			M58,53.8c3.2-5.1,5.1-11.2,5.1-18.2C63.1,19.9,51.8,7.1,36,7.1v0c0,0,0,0,0,0c0,0,0,0,0,0v0C20.2,7.1,8.9,19.9,8.9,35.6
			c0,7,1.9,13.1,5.1,18.2"/>
	</g>
	<path fill="none" stroke="#000000" stroke-width="2" stroke-linecap="round" stroke-linejoin="round" stroke-miterlimit="10" d="
		M50.2,20.2c-3.1-4.4-8.2-7.3-14.2-7.3v0c0,0,0,0,0,0c0,0,0,0,0,0v0c-6,0-11,2.9-14.1,7.3"/>
</g>
</svg>
