<svg id="emoji" viewBox="0 0 72 72" xmlns="http://www.w3.org/2000/svg">
  <g id="line">
    <circle cx="53.9106" cy="41.8563" r="1.7664"/>
    <path fill="none" stroke="#000" stroke-linecap="round" stroke-linejoin="round" stroke-width="2" d="m62.3565,56.721c.766.2372,1.487.6866,2.0105,1.4781l2.4829-10.0557s-1.4978-4.969-6.7234-5.113"/>
    <path fill="none" stroke="#000" stroke-linecap="round" stroke-linejoin="round" stroke-width="2" d="m46.8612,66.0371l-1.6868.8404c-.7318.3646-1.579-.3197-1.2981-1.065,1.1586-3.0731,5.3156-4.8418,5.3156-4.8418-6.0185-6.5137-5.6827-12.4594-5.6827-12.4594-.3442-12.4753,7.5746-15.5113,7.5746-15.5113,0,0,10.0419,3.2568,9.6976,15.7322,0,0,.0474,4.2897-7.5845,12.2386,0,0,4.139,1.7874,5.1468,4.8905.2414.7433-.5889,1.3958-1.3077,1.0377l-1.7297-.8618c-2.648-1.3195-5.7971-1.3195-8.4451,0Z"/>
    <path fill="none" stroke="#000" stroke-linecap="round" stroke-linejoin="round" stroke-width="2" d="m40.1126,51.6063c-.5328.0283-1.138.0835-1.8251.1733v-3.5718s.8311-3.533,5.5082-4.3333"/>
    <path fill="none" stroke="#000" stroke-linecap="round" stroke-linejoin="round" stroke-width="2" d="m51.0838,33l.1114-22.6456s-3.7092-8.8284-16.5482-3.8128c-11.88,4.641-18.2171,25.3384-21.2206,38.0033"/>
    <path fill="none" stroke="#000" stroke-linecap="round" stroke-linejoin="round" stroke-width="2" d="m15.1732,49.142l-4.2894,17.4836c-3.5506-.0794-5.7337-1.4067-5.7337-1.4067l4.2894-17.4836s2.6145,1.4067,5.7337,1.4067Z"/>
    <path fill="none" stroke="#000" stroke-linecap="round" stroke-linejoin="round" stroke-width="2" d="m6.0532,61.5291s2.6145,1.4067,5.7337,1.4067"/>
  </g>
</svg>
