<svg id="emoji" viewBox="0 0 72 72" xmlns="http://www.w3.org/2000/svg">
  <g id="line">
    <line x1="31.7028" x2="33.1762" y1="55.4635" y2="37.3246" fill="none" stroke="#000000" stroke-linecap="round" stroke-linejoin="round" stroke-width="2"/>
    <polyline fill="none" stroke="#000000" stroke-linecap="round" stroke-linejoin="round" stroke-width="2" points="30.692 62.634 30.098 66.846 17.31 66.846 22.578 57.044"/>
    <line x1="33.1762" x2="24.4967" y1="37.3246" y2="53.4734" fill="none" stroke="#000000" stroke-linecap="round" stroke-linejoin="round" stroke-width="2"/>
    <line x1="38.2538" x2="36.0921" y1="55.4635" y2="37.0927" fill="none" stroke="#000000" stroke-linecap="round" stroke-linejoin="round" stroke-width="2"/>
    <polyline fill="none" stroke="#000000" stroke-linecap="round" stroke-linejoin="round" stroke-width="2" points="39.289 62.804 39.859 66.846 52.647 66.846 48.929 60"/>
    <line x1="36.0921" x2="44.2765" y1="37.0927" y2="51.3867" fill="none" stroke="#000000" stroke-linecap="round" stroke-linejoin="round" stroke-width="2"/>
    <path fill="none" stroke="#000000" stroke-linecap="round" stroke-linejoin="round" stroke-width="2" d="M60.6462,36.8379a26.1323,26.1323,0,0,1-8.4087,15.7"/>
    <path fill="none" stroke="#000000" stroke-linecap="round" stroke-linejoin="round" stroke-width="2" d="M47.2811,10.0812A26.2255,26.2255,0,0,1,60.303,27.4083"/>
    <path fill="none" stroke="#000000" stroke-linecap="round" stroke-linejoin="round" stroke-width="2" d="M14.4392,16.5242a26.13,26.13,0,0,1,20.295-9.64,26.4837,26.4837,0,0,1,2.6769.1352"/>
    <path fill="none" stroke="#000000" stroke-linecap="round" stroke-linejoin="round" stroke-width="2" d="M10.4568,42.8873a26.3047,26.3047,0,0,1-.7559-17.5139"/>
    <path fill="none" stroke="#000000" stroke-linecap="round" stroke-linejoin="round" stroke-width="2" d="M43.7629,57.65A26.2154,26.2154,0,0,1,15.64,50.98"/>
    <path fill="none" stroke="#000000" stroke-linecap="round" stroke-miterlimit="10" stroke-width="2" d="M37.1632,36.16a3.8764,3.8764,0,1,1,1.7381-3.2336"/>
    <line x1="37.9689" x2="50.2403" y1="29.6025" y2="17.3312" fill="none" stroke="#000000" stroke-linecap="round" stroke-linejoin="round" stroke-width="2"/>
    <line x1="18.9089" x2="32.0015" y1="48.6902" y2="35.5976" fill="none" stroke="#000000" stroke-linecap="round" stroke-linejoin="round" stroke-width="2"/>
    <line x1="31.8491" x2="18.895" y1="30.6574" y2="17.7033" fill="none" stroke="#000000" stroke-linecap="round" stroke-linejoin="round" stroke-width="2"/>
    <line x1="50.2541" x2="37.2714" y1="49.0347" y2="36.0521" fill="none" stroke="#000000" stroke-linecap="round" stroke-linejoin="round" stroke-width="2"/>
    <line x1="31.1489" x2="12.589" y1="33.453" y2="33.453" fill="none" stroke="#000000" stroke-linecap="round" stroke-linejoin="round" stroke-width="2"/>
    <line x1="56.2762" x2="38.9008" y1="33.4334" y2="33.4334" fill="none" stroke="#000000" stroke-linecap="round" stroke-linejoin="round" stroke-width="2"/>
    <line x1="35.0253" x2="35.0253" y1="29.0506" y2="10.4918" fill="none" stroke="#000000" stroke-linecap="round" stroke-linejoin="round" stroke-width="2"/>
    <circle cx="11.6821" cy="20.7851" r="4.5885" fill="none" stroke="#000000" stroke-miterlimit="10" stroke-width="2"/>
    <circle cx="42.1211" cy="9.4185" r="4.5885" fill="none" stroke="#000000" stroke-miterlimit="10" stroke-width="2"/>
    <path fill="none" stroke="#000000" stroke-miterlimit="10" stroke-width="2" d="M65.5556,32.2058a4.64,4.64,0,0,1-4.64,4.64q-.1362,0-.27-.0077a4.64,4.64,0,1,1,4.91-4.632Z"/>
    <path fill="none" stroke="#000000" stroke-miterlimit="10" stroke-width="2" d="M52.5492,55.4635a4.64,4.64,0,1,1-4.64-4.64A4.6414,4.6414,0,0,1,52.5492,55.4635Z"/>
    <circle cx="13.141" cy="47.1319" r="4.5885" fill="none" stroke="#000000" stroke-miterlimit="10" stroke-width="2"/>
  </g>
</svg>
