<?xml version="1.0" encoding="utf-8"?>
<!-- Generator: Adobe Illustrator 21.1.0, SVG Export Plug-In . SVG Version: 6.00 Build 0)  -->
<svg version="1.1" id="emoji" xmlns="http://www.w3.org/2000/svg" xmlns:xlink="http://www.w3.org/1999/xlink" x="0px" y="0px"
	 viewBox="0 0 72 72" enable-background="new 0 0 72 72" xml:space="preserve">
<g id="_xD83C__xDFAB_">
	<path fill="none" stroke="#000000" stroke-width="2" stroke-miterlimit="10" d="M48.2,23.5c-3.4-3.6-4-8.8-1.9-12.9l-3.6-3.7
		L6.3,41.9l3.8,3.9c4.1-1.6,8.9-0.7,12.1,2.7s4,8.2,2.2,12.2l3.8,3.9l36.4-35.1L61,25.8C56.8,27.8,51.6,27.1,48.2,23.5z"/>
	<ellipse transform="matrix(0.7098 -0.7044 0.7044 0.7098 -4.8096 32.5704)" fill="#010103" cx="37.1" cy="22.1" rx="2" ry="2"/>
	<ellipse transform="matrix(0.7098 -0.7044 0.7044 0.7098 -7.5322 39.0393)" fill="#010103" cx="43.6" cy="28.7" rx="2" ry="2"/>
	<ellipse transform="matrix(0.7098 -0.7044 0.7044 0.7098 -10.2548 45.5083)" fill="#010103" cx="50.1" cy="35.2" rx="2" ry="2"/>
</g>
</svg>
