<?xml version="1.0" encoding="utf-8"?>
<!-- Generator: Adobe Illustrator 21.1.0, SVG Export Plug-In . SVG Version: 6.00 Build 0)  -->
<svg version="1.1" id="emoji" xmlns="http://www.w3.org/2000/svg" xmlns:xlink="http://www.w3.org/1999/xlink" x="0px" y="0px"
	 viewBox="0 0 72 72" enable-background="new 0 0 72 72" xml:space="preserve">
<g id="_xD83C__xDFBC__1_">
	<path fill="none" stroke="#000000" stroke-width="2" stroke-linecap="round" stroke-linejoin="round" stroke-miterlimit="10" d="
		M31.3,42.2c-0.4-4,3.3-7.3,7.3-7.3s7.3,3.3,7.3,7.3c0,1.9-0.6,9.5-10.8,9.1c-4.6-0.4-8.4-3.7-9.1-8.8c-0.5-3.9,0-7.3,4.1-11.4
		c4.1-4.1,5.2-4.3,9.3-9.9s2.6-9.3,2.4-10c-0.2-0.7-1.6-3-4.2-3c-2.6,0-3.8,2.8-4.2,3.9c-0.3,1.1-0.7,3.4-0.1,7.9
		c0.5,3.3,8.1,32.3,9,36.6c0.1,0.4,0.2,0.8,0.2,1.2c0,0,0,0.8,0,0.8c0,2.8-2.2,5-5,5c-2.8,0-5-2.2-5-5c0-0.4,0-0.7,0.1-1.1
		c0,0,0.3-1.1,0.9-1.3"/>
	<circle cx="33.9" cy="57.1" r="2"/>
</g>
</svg>
