<?xml version="1.0" encoding="utf-8"?>
<!-- Generator: Adobe Illustrator 19.1.0, SVG Export Plug-In . SVG Version: 6.00 Build 0)  -->
<svg version="1.1" id="emoji" xmlns="http://www.w3.org/2000/svg" xmlns:xlink="http://www.w3.org/1999/xlink" x="0px" y="0px"
	 viewBox="0 0 72 72" enable-background="new 0 0 72 72" xml:space="preserve">
<g id="_xD83C__xDFB7__1_">
	<path fill="none" stroke="#000000" stroke-width="2" stroke-linecap="round" stroke-linejoin="round" stroke-miterlimit="10" d="
		M45.5,56.2"/>
	<path fill="none" stroke="#000000" stroke-width="2" stroke-linecap="round" stroke-linejoin="round" stroke-miterlimit="10" d="
		M47.2,43"/>
	<g>
		
			<line fill="none" stroke="#000000" stroke-width="2" stroke-linecap="round" stroke-linejoin="round" stroke-miterlimit="10" x1="39.7" y1="30.3" x2="41.2" y2="29.3"/>
		
			<line fill="none" stroke="#000000" stroke-width="2" stroke-linecap="round" stroke-linejoin="round" stroke-miterlimit="10" x1="40.3" y1="34.8" x2="42.1" y2="33.7"/>
		
			<line fill="none" stroke="#000000" stroke-width="2" stroke-linecap="round" stroke-linejoin="round" stroke-miterlimit="10" x1="40.9" y1="39.3" x2="42.7" y2="38"/>
		
			<line fill="none" stroke="#000000" stroke-width="2" stroke-linecap="round" stroke-linejoin="round" stroke-miterlimit="10" x1="41.7" y1="44.3" x2="43.4" y2="42.5"/>
	</g>
	<path fill="none" stroke="#000000" stroke-width="2" stroke-linecap="round" stroke-linejoin="round" stroke-miterlimit="10" d="
		M48,67.2l-0.2,0c-1.9,0.1-4.5-0.6-6.1-3.9c-1.4-2.9-1.9-6.8-2.7-13.2c-1.8-14.6-3.6-35.5-6.1-37.2c-3.7-2.4-16.4-2.7-15.9-3.2
		c0.1-0.1,0.4-0.2,1.6-0.3c0.5,0,0-1.5,0.6-1.5c1.2,0,3.8,0.2,5.2,0.3c0.2,0,0.5,1.1,0.8,1.1c4.4,0.2,9,0.9,11,1.7
		c0.6,0.2,1.3,0.6,1.8,2.5c2.1,7.7,8.2,43.2,9.8,43.2c1.7,0,1.3-18.9,0.1-21c-1.2-2.1,10.4,6.9,10.4,6.9s-2.1,1.3-2.9,4
		c-0.8,2.8-0.4,12.9-0.4,12.9c0,4.1-3.3,7.4-7.3,7.5"/>
	<path fill="none" stroke="#000000" stroke-width="2" stroke-linecap="round" stroke-linejoin="round" stroke-miterlimit="10" d="
		M47.8,67.2"/>
	<path fill="none" stroke="#000000" stroke-width="2" stroke-linecap="round" stroke-linejoin="round" stroke-miterlimit="10" d="
		M54.7,59.7"/>
</g>
</svg>
