<?xml version="1.0" encoding="utf-8"?>
<!-- Generator: Adobe Illustrator 21.1.0, SVG Export Plug-In . SVG Version: 6.00 Build 0)  -->
<svg version="1.1" id="emoji" xmlns="http://www.w3.org/2000/svg" xmlns:xlink="http://www.w3.org/1999/xlink" x="0px" y="0px"
	 viewBox="0 0 72 72" enable-background="new 0 0 72 72" xml:space="preserve">
<g id="_xD83C__xDFBA__1_">
	
		<line fill="none" stroke="#000000" stroke-width="2" stroke-linecap="round" stroke-linejoin="round" stroke-miterlimit="10" x1="57.8" y1="30.2" x2="54.3" y2="30.2"/>
	
		<polyline fill="none" stroke="#000000" stroke-width="2" stroke-linecap="round" stroke-linejoin="round" stroke-miterlimit="10" points="
		63.8,35.4 65.3,35.4 65.3,26.6 63.8,26.6 	"/>
	
		<line fill="none" stroke="#000000" stroke-width="2" stroke-linecap="round" stroke-linejoin="round" stroke-miterlimit="10" x1="30.2" y1="37.5" x2="30.3" y2="44.2"/>
	
		<line fill="none" stroke="#000000" stroke-width="2" stroke-linecap="round" stroke-linejoin="round" stroke-miterlimit="10" x1="36.6" y1="44.2" x2="36.5" y2="37.5"/>
	
		<line fill="none" stroke="#000000" stroke-width="2" stroke-linecap="round" stroke-linejoin="round" stroke-miterlimit="10" x1="42.4" y1="44.2" x2="42.3" y2="37.5"/>
	
		<line fill="none" stroke="#000000" stroke-width="2" stroke-linecap="round" stroke-linejoin="round" stroke-miterlimit="10" x1="41.7" y1="22.7" x2="43.1" y2="22.7"/>
	
		<line fill="none" stroke="#000000" stroke-width="2" stroke-linecap="round" stroke-linejoin="round" stroke-miterlimit="10" x1="35.9" y1="22.7" x2="37.2" y2="22.7"/>
	
		<line fill="none" stroke="#000000" stroke-width="2" stroke-linecap="round" stroke-linejoin="round" stroke-miterlimit="10" x1="29.6" y1="22.7" x2="31" y2="22.7"/>
	<path fill="none" stroke="#000000" stroke-width="2" stroke-linecap="round" stroke-linejoin="round" stroke-miterlimit="10" d="
		M26.1,37.6c0,0-2,2.7-2,4.7c0,2.6,1.4,4.1,3.2,4.6c2,0.6,18.1,0.2,19.4-0.2c1.4-0.4,3.3-1.1,3.5-6c0.1-4.9-1.8-6.3-2.6-6.7
		C46.3,33.4,28.1,34,28.1,34s-5.2,0.4-7.7,1c-9.1,2.5-8,11.5-8,11.5H9.3V17.1h3.1c0,0-1.6,9.7,8.5,12.2c2.2,0.5,7,0.8,7,0.8
		s19-0.1,20.3,0.2c1.3,0.2,2.8,0.9,4.2,2.7c2.2,2.8,2.4,7.8,1.2,12.3c-1.1,4.1-4.7,5.1-6.6,5.5c-1.8,0.5-19,0.5-20.9,0
		c-1.3-0.3-3.3-0.5-5.2-3.8c-2.2-3.8-0.5-8,0.6-9"/>
	<path fill="none" stroke="#000000" stroke-width="2" stroke-linecap="round" stroke-linejoin="round" stroke-miterlimit="10" d="
		M59.8,27.9c-1.2,0.5-2.1,1.7-2.1,3.1c0,1.4,0.9,2.6,2.1,3.1"/>
	
		<line fill="none" stroke="#000000" stroke-width="2" stroke-linecap="round" stroke-linejoin="round" stroke-miterlimit="10" x1="30.3" y1="26.3" x2="30.3" y2="26.8"/>
	
		<line fill="none" stroke="#000000" stroke-width="2" stroke-linecap="round" stroke-linejoin="round" stroke-miterlimit="10" x1="36.6" y1="26.8" x2="36.6" y2="26.3"/>
	
		<line fill="none" stroke="#000000" stroke-width="2" stroke-linecap="round" stroke-linejoin="round" stroke-miterlimit="10" x1="42.4" y1="26.8" x2="42.4" y2="26.3"/>
	
		<line fill="none" stroke="#000000" stroke-width="2" stroke-linecap="round" stroke-linejoin="round" stroke-miterlimit="10" x1="30.3" y1="54.5" x2="30.3" y2="55.1"/>
	
		<line fill="none" stroke="#000000" stroke-width="2" stroke-linecap="round" stroke-linejoin="round" stroke-miterlimit="10" x1="36.6" y1="55.1" x2="36.6" y2="54.5"/>
	
		<line fill="none" stroke="#000000" stroke-width="2" stroke-linecap="round" stroke-linejoin="round" stroke-miterlimit="10" x1="42.4" y1="55.1" x2="42.4" y2="54.5"/>
</g>
</svg>
