<?xml version="1.0" encoding="utf-8"?>
<!-- Generator: Adobe Illustrator 21.1.0, SVG Export Plug-In . SVG Version: 6.00 Build 0)  -->
<svg version="1.1" id="emoji" xmlns="http://www.w3.org/2000/svg" xmlns:xlink="http://www.w3.org/1999/xlink" x="0px" y="0px"
	 viewBox="0 0 72 72" enable-background="new 0 0 72 72" xml:space="preserve">
<g id="_xD83C__xDFC1_">
	<rect x="22.4" y="23.3" width="6" height="6"/>
	<rect x="28.4" y="17.3" width="6" height="6"/>
	<rect x="28.4" y="29.3" width="6" height="5.1"/>
	<polygon points="28.4,17.3 22.4,17.3 23.1,16.6 28.4,16 	"/>
	<polygon points="40.4,17.3 34.4,17.3 34.4,15.6 40.4,16.6 	"/>
	<rect x="34.4" y="23.3" width="6" height="6"/>
	<polygon points="46.4,23.3 40.4,23.3 40.4,18.6 46.4,20 	"/>
	<rect x="40.4" y="29.3" width="6" height="6"/>
	<rect x="46.4" y="23.3" width="6" height="6"/>
	<rect x="52.4" y="20.3" width="1.7" height="3"/>
	<rect x="52.4" y="29.3" width="1.9" height="6"/>
	<rect x="46.4" y="35.3" width="6" height="3.5"/>
	<path fill="none" stroke="#000000" stroke-width="2" stroke-linecap="round" stroke-linejoin="round" stroke-miterlimit="10" d="
		M23.1,17.5c2.9-1.8,8.4-4.2,14.4-1.5c3.7,1.7,5.6,4.7,15,4.1c0.8,0,1.5,0.6,1.5,1.4c0,3.3,0,11.1,0,15.1c0,0.6-0.4,1.1-1,1.4
		c-1.9,1-7.3,0.9-15.5-3c-3.4-1.6-8.6-2.6-14.5,1.4"/>
	
		<line fill="none" stroke="#000000" stroke-width="2" stroke-linecap="round" stroke-miterlimit="10" x1="19.3" y1="12.9" x2="19.3" y2="59.8"/>
</g>
</svg>
