<svg id="emoji" viewBox="0 0 72 72" xmlns="http://www.w3.org/2000/svg">
  <g id="line">
    <path fill="none" stroke="#000" stroke-linecap="round" stroke-linejoin="round" stroke-width="2.04" d="M15.9966,29.5514a1.0058,1.0058,0,0,1-.916.9533H13.2485a1.0058,1.0058,0,0,1-.9161-.9533V14.2991a1.0057,1.0057,0,0,1,.9161-.9533h1.8321a1.0057,1.0057,0,0,1,.916.9533Z"/>
    <path fill="none" stroke="#000" stroke-linecap="round" stroke-linejoin="round" stroke-width="2.04" d="M56.303,29.5514a1.0058,1.0058,0,0,1-.916.9533H53.5549a1.0058,1.0058,0,0,1-.9161-.9533V14.2991a1.0057,1.0057,0,0,1,.9161-.9533H55.387a1.0057,1.0057,0,0,1,.916.9533Z"/>
    <path fill="none" stroke="#000" stroke-linecap="round" stroke-linejoin="round" stroke-width="2.05" d="M39.8139,20.9714c3.6644,0,12.8251.9533,12.8251.9533"/>
    <path fill="none" stroke="#000" stroke-linecap="round" stroke-linejoin="round" stroke-width="2.03" d="M15.9965,21.9248a99.9314,99.9314,0,0,1,12.825-.9533"/>
    <path fill="none" stroke="#000" stroke-linecap="round" stroke-linejoin="round" stroke-width="2.04" d="M19.6609,21.9252l1.9237,5.91c.4581,1.5252,1.5573,1.6206,2.4734.3813l1.3741-2.0019a5.2021,5.2021,0,0,1,4.3054-2.0018l1.8321.286a26.4843,26.4843,0,0,0,5.4964,0l1.8321-.286a4.8546,4.8546,0,0,1,4.3054,2.0018l1.3741,2.0019c.9161,1.2393,2.0153,1.1439,2.4734-.3813l1.9237-5.91"/>
    <path fill="none" stroke="#000" stroke-linecap="round" stroke-linejoin="round" stroke-width="2" d="M28.8212,28.5981s.183,1.0486.4585,2.3832a26.3181,26.3181,0,0,1,.4576,4.29,2.198,2.198,0,0,1-.5157,1.68,14.9356,14.9356,0,0,1-2.4757,1.5948A2.7092,2.7092,0,0,0,25.65,41.0774l1.4309,12.1818A1.9846,1.9846,0,0,0,28.8212,55.29c1.0076,0,1.55-.69,1.55-1.7387,0,0,.0048-7.8359.0915-8.8245a3.8072,3.8072,0,0,1,.6072-1.8293,2.1848,2.1848,0,0,1,1.0868-.7464,7.34,7.34,0,0,1,1.97-.2622,7.7251,7.7251,0,0,1,2.02.2622,2.1927,2.1927,0,0,1,1.0867.7464,3.8158,3.8158,0,0,1,.6063,1.8293c.0877.9886.0915,8.8245.0915,8.8245,0,1.0486.5424,1.7387,1.55,1.7387a1.9861,1.9861,0,0,0,1.7416-2.0305l1.43-12.1818a2.7082,2.7082,0,0,0-1.0953-2.5319,14.9842,14.9842,0,0,1-2.4766-1.5948,2.198,2.198,0,0,1-.5157-1.68,26.2166,26.2166,0,0,1,.4585-4.29c.2746-1.3346.4576-2.3832.4576-2.3832"/>
    <circle cx="34.318" cy="17.114" r="3" fill="none" stroke="#000" stroke-miterlimit="10" stroke-width="2.04"/>
    <path fill="none" stroke="#000" stroke-linecap="round" stroke-linejoin="round" stroke-width="2" d="M38.0181,14.9792s.58-.3107.9537-.0348c.4395.3238.7976,1.6073,1.3256,2.1417a3.3633,3.3633,0,0,0,1.9281,1"/>
  </g>
</svg>
