<svg id="emoji" viewBox="0 0 72 72" xmlns="http://www.w3.org/2000/svg">
  <g id="line">
    <rect x="22.3576" y="23.2696" width="6.0019" height="6.0019"/>
    <rect x="28.3595" y="17.2677" width="6.0019" height="6.0019"/>
    <path d="m28.3595,29.2715h6.0019v3.7038c0,.3524-.2856.638-.638.638h-4.8203c-.3002,0-.5436-.2434-.5436-.5436v-3.7982Z"/>
    <path d="m28.3595,17.2677h-3.1253s1.3734-.5252,1.5837-.6208c1.2185-.5537,1.5417-.6208,1.5417-.6208v1.2415Z"/>
    <path d="m37.9977,17.2677h-3.6362v-1.3946s.313-.1055,2.7394.8967c.1494.0617.8967.4978.8967.4978Z"/>
    <rect x="34.3615" y="23.2696" width="6.0019" height="6.0019"/>
    <path d="m46.3653,23.2696h-6.0019v-4.6237l5.2898,1.1647c.4159.0916.7121.4601.7121.8859v2.5731Z"/>
    <rect x="40.3634" y="29.2715" width="6.0019" height="6.0019"/>
    <rect x="46.3653" y="23.2696" width="6.0019" height="6.0019"/>
    <path d="m52.3672,20.3094h0c.9634,0,.7629.7409.7629,1.7043l-.0285.3562c0,.5429.1903.8845.027.8996h-.7614v-2.9602Z"/>
    <path d="m52.3672,29.2715h.7762c.0589,0,.1066.1032.1066.2305v5.5584c0,.1177-.0441.213-.0985.213h-.7843v-6.0019Z"/>
    <path d="m46.3653,35.2734h6.0019v1.9158c0,.7382-.6391,1.3365-1.4274,1.3365l-3.0775-.1935c-.8391,0-1.497-.4434-1.497-1.2291v-1.8298Z"/>
    <path fill="none" stroke="#000" stroke-linecap="round" stroke-linejoin="round" stroke-width="2" d="m23.0844,17.488c2.885-1.7983,8.4218-4.2326,14.4156-1.488,3.689,1.6892,5.6344,4.6976,15.0405,4.1142.7886-.0489,1.4595.5967,1.4595,1.4106v15.1253c0,.6226-.4235,1.0771-.9648,1.354-1.947.9959-7.2715.9349-15.5352-3.0041-3.3653-1.6041-8.5703-2.5683-14.4582,1.4425"/>
    <line x1="19.3271" x2="19.3271" y1="12.875" y2="59.8348" fill="none" stroke="#000" stroke-linecap="round" stroke-miterlimit="10" stroke-width="2"/>
  </g>
</svg>
