<?xml version="1.0" encoding="utf-8"?>
<!-- Generator: Adobe Illustrator 19.1.0, SVG Export Plug-In . SVG Version: 6.00 Build 0)  -->
<svg version="1.1" id="emoji" xmlns="http://www.w3.org/2000/svg" xmlns:xlink="http://www.w3.org/1999/xlink" x="0px" y="0px"
	 viewBox="0 0 72 72" enable-background="new 0 0 72 72" xml:space="preserve">
<g id="_xD83C__xDFC6__xFE0F_">
	<path fill="none" stroke="#010101" stroke-width="2" stroke-linecap="round" stroke-linejoin="round" d="M52.5,12.8
		c0,0,0-0.5-3.7,17.8c-1.6,7.9-5.5,12.6-12.8,12.6s-11.2-4.5-12.8-12.4c-3.7-18.3-3.7-17.9-3.7-17.9L52.5,12.8z"/>
	<path fill="none" stroke="#010101" stroke-width="2" stroke-linecap="round" stroke-linejoin="round" d="M23,32.5
		c0,0,0.1-0.3-5.4-3.9c-2.5-1.7-5.5-3.9-5.5-6.9s2.5-5.1,5.5-5.1h1.5"/>
	<path fill="none" stroke="#010101" stroke-width="2" stroke-linecap="round" stroke-linejoin="round" d="M48.7,32.8
		c0,0,0.1-0.3,5.6-3.9c2.5-1.7,5.5-3.9,5.5-6.9c0-2.8-2.3-5.1-5.2-5.1c-0.1,0-0.2,0-0.3,0h-2.2"/>
	
		<rect x="26.6" y="51.3" fill="none" stroke="#010101" stroke-width="2" stroke-linecap="round" stroke-linejoin="round" width="18.3" height="9.2"/>
	<circle fill="none" stroke="#010101" stroke-width="2" stroke-linecap="round" stroke-linejoin="round" cx="36" cy="25.6" r="5"/>
	
		<line fill="none" stroke="#010101" stroke-width="2" stroke-linecap="round" stroke-linejoin="round" x1="36" y1="51.3" x2="36" y2="43.2"/>
</g>
</svg>
