<svg id="emoji" viewBox="0 0 72 72" xmlns="http://www.w3.org/2000/svg">
  <g id="line">
    <path fill="none" stroke="#000" stroke-linecap="round" stroke-linejoin="round" stroke-width="2" d="M44.56,12.5289l6.344,1.2459.9533,2.86c.9532,1.9065-1.9066,2.86-2.86,0"/>
    <path fill="none" stroke="#000" stroke-linecap="round" stroke-linejoin="round" stroke-width="2" d="M16.5862,7.1019l10.486,2.0019"/>
    <path fill="none" stroke="#000" stroke-linecap="round" stroke-linejoin="round" stroke-width="2" d="M28.0256,18.5411,26.691,22.45c-.286.9533-.7626,2.6692-1.0486,3.6225l-1.0486,4.8617c-.1907,1.0486-.4766,2.6691-.572,3.7177l-.6673,8.5795c-.0953,1.0486-.1906,2.7644-.1906,3.813V60.39c0,1.0486.6673,1.9066,1.43,1.9066A1.9638,1.9638,0,0,0,26.2144,60.39l1.43-12.3925c.0953-1.0486.2859-2.7645.3813-3.8131l.5719-5.72c.0954-1.0486.3813-1.9065.6673-1.9065s.6673.8579.858,1.9065l1.2392,6.7682a22.6577,22.6577,0,0,0,1.0486,3.6225L36.7957,60.58a2.8,2.8,0,0,0,2.0972,1.8112c.7626,0,1.2392-.8579.9532-1.8112l-2.86-11.5346a25.0573,25.0573,0,0,1-.5719-3.7178l-.6673-9.5327c-.0954-1.0486-.3813-2.7644-.572-3.7177v-.0953a12.2615,12.2615,0,0,1-.286-3.7178l.572-6.6729a9.2911,9.2911,0,0,0-.286-3.3364,4.0016,4.0016,0,0,0-2.2879-2.0019l-5.91-1.8112a4.6636,4.6636,0,0,1-2.5739-2.2879L23.2592,9.0084"/>
    <circle cx="33.7452" cy="9.1038" r="3" fill="none" stroke="#000" stroke-miterlimit="10" stroke-width="2"/>
    <path fill="none" stroke="#000" stroke-linecap="round" stroke-linejoin="round" stroke-width="2" d="M27.0723,20.4477l-4.7664-.572a3.3717,3.3717,0,0,1-2.86-3.2411V8.0552"/>
    <path fill="none" stroke="#000" stroke-linecap="round" stroke-linejoin="round" stroke-width="2" d="M37.698,8.3167s.6372-.165.935.1912c.3507.4184.3957,1.75.7827,2.3941a3.3634,3.3634,0,0,0,1.6377,1.4264"/>
  </g>
</svg>
