<svg id="emoji" viewBox="0 0 72 72" xmlns="http://www.w3.org/2000/svg">
  <g id="line">
    <path fill="none" stroke="#000" stroke-linecap="round" stroke-linejoin="round" stroke-width="2" d="M40.2274,11.6776,50.904,13.7748l.9533,2.86c.9533,1.9065-1.9065,2.86-2.86,0"/>
    <path fill="none" stroke="#000" stroke-linecap="round" stroke-linejoin="round" stroke-width="2" d="M16.5863,7.1019l10.486,2.0019"/>
    <path fill="none" stroke="#000" stroke-linecap="round" stroke-linejoin="round" stroke-width="2" d="M28.0256,18.5411,26.691,22.45c-.286.9533-.7626,2.6692-1.0486,3.6225l-1.0486,4.8617c-.1906,1.0486-.4766,2.6691-.5719,3.7177l-.6673,8.5795c-.0954,1.0486-.1907,2.7644-.1907,3.813V60.39c0,1.0486.6673,1.9066,1.43,1.9066A1.9638,1.9638,0,0,0,26.2144,60.39l1.43-12.3925c.0953-1.0486.286-2.7645.3813-3.8131l.572-5.72c.0953-1.0486.3813-1.9065.6672-1.9065s.6673.8579.858,1.9065l1.2392,6.7682a22.6577,22.6577,0,0,0,1.0486,3.6225L36.7957,60.58a2.8,2.8,0,0,0,2.0972,1.8112c.7626,0,1.2392-.8579.9533-1.8112l-2.86-11.5346a25.07,25.07,0,0,1-.5719-3.7178l-.6673-9.5327c-.0953-1.0486-.3813-2.7644-.572-3.7177v-.0953a12.2615,12.2615,0,0,1-.286-3.7178l.572-6.6729a9.2911,9.2911,0,0,0-.286-3.3364,4.0017,4.0017,0,0,0-2.2878-2.0019l-5.91-1.8112a4.6631,4.6631,0,0,1-2.5738-2.2879l-1.144-3.1458"/>
    <circle cx="33.7452" cy="9.1038" r="3" fill="none" stroke="#000" stroke-miterlimit="10" stroke-width="2"/>
    <path fill="none" stroke="#000" stroke-linecap="round" stroke-linejoin="round" stroke-width="2" d="M27.0723,20.4477l-4.7663-.572a3.3716,3.3716,0,0,1-2.86-3.2411V8.0552"/>
  </g>
</svg>
