<svg id="emoji" viewBox="0 0 72 72" version="1.1" xmlns="http://www.w3.org/2000/svg">
  <g id="line">
    <circle cx="26.9688" cy="15.0938" r="3" fill="none" stroke="#000000" stroke-miterlimit="10" stroke-width="2"/>
    <path fill="none" stroke="#000000" stroke-linecap="round" stroke-linejoin="round" stroke-miterlimit="10" stroke-width="2" d="M15,41l6.5195-11.4092c1.3643-2.3872,3.8301-5.2969,5.4805-6.4658c1.6504-1.1689,4.3496-2.5752,6-3.125c1.6504-0.5498,5.25-1,8-1h3 c2.75,0,6.3496,0,8,0s3,0,3,0"/>
    <path fill="none" stroke="#000000" stroke-linecap="round" stroke-linejoin="round" stroke-miterlimit="10" stroke-width="2" d="M38.5,23c0,0,0,0,3.625,8.0625c1.4648,3.2578,1.6533,4.9502,1.6533,4.9502c0.1221,1.0928-0.3437,2.6875-1.0351,3.543 l-1.2129,1.5039c-0.6914,0.8554-1.4043,2.4433-1.584,3.5283l-1.5869,9.5654c-0.1797,1.085-1.1944,1.7305-2.2539,1.4346 l-0.1787-0.0498c-1.0596-0.2959-1.8965-1.4375-1.8604-2.5371l0.3789-11.3662c0.0361-1.0996-0.0713-2.0518-0.2392-2.1172 c-0.168-0.0645-1.2061-0.1035-2.3057-0.0879l-1.3945,0.0215c-1.0996,0.0156-2.4883,0.7851-3.086,1.709l-3.334,5.1601 c-0.5976,0.9238-1.9589,1.461-3.0263,1.1943l-0.1192-0.0292c-1.0674-0.2666-1.6396-1.334-1.2715-2.3702l2.7735-7.8213 c0.3681-1.0361,1.5283-2.1533,2.5781-2.4814l3.8858-1.2158c1.0498-0.3281,1.6279-1.4512,1.2841-2.4971l-0.0654-0.1992 c-0.3437-1.0459-0.9629-2.1255-1.375-2.4004C28.3379,28.2251,28,28,28,28"/>
    <path fill="none" stroke="#000000" stroke-linecap="round" stroke-linejoin="round" stroke-miterlimit="10" stroke-width="2" d="M45,64c0,0-0.4502,0-1,0s-2.1699-0.6738-3.5996-1.4971L12.5996,46.4971C11.1699,45.6738,9.7754,44.5498,9.5,44S9,43,9,43"/>
  </g>
</svg>
