<svg id="emoji" viewBox="0 0 72 72" xmlns="http://www.w3.org/2000/svg">
  <g id="line">
    <path fill="none" stroke="#000000" stroke-linecap="round" stroke-linejoin="round" stroke-miterlimit="10" stroke-width="2" d="M58.6194,13.2261c-12.3292-3.2325-25.9985-0.0171-35.6616,9.646c-9.6832,9.6832-12.8918,23.3893-9.6257,35.7385l0.0486,0.0486 c12.3292,3.2325,25.9985,0.0171,35.6616-9.646C58.7255,39.33,61.934,25.6239,58.668,13.2747"/>
    <line x1="58.6692" x2="13.3333" y1="13.276" y2="58.6119" fill="none" stroke="#000000" stroke-linecap="round" stroke-linejoin="round" stroke-miterlimit="10" stroke-width="2"/>
    <line x1="41.5751" x2="37.4959" y1="34.4467" y2="30.3675" fill="none" stroke="#000000" stroke-linecap="round" stroke-linejoin="round" stroke-miterlimit="10" stroke-width="2"/>
    <line x1="45.1107" x2="41.0314" y1="30.9112" y2="26.832" fill="none" stroke="#000000" stroke-linecap="round" stroke-linejoin="round" stroke-miterlimit="10" stroke-width="2"/>
    <line x1="38.0396" x2="33.9604" y1="37.9823" y2="33.903" fill="none" stroke="#000000" stroke-linecap="round" stroke-linejoin="round" stroke-miterlimit="10" stroke-width="2"/>
    <line x1="34.5041" x2="30.4248" y1="41.5178" y2="37.4386" fill="none" stroke="#000000" stroke-linecap="round" stroke-linejoin="round" stroke-miterlimit="10" stroke-width="2"/>
    <line x1="30.9685" x2="26.8893" y1="45.0533" y2="40.9741" fill="none" stroke="#000000" stroke-linecap="round" stroke-linejoin="round" stroke-miterlimit="10" stroke-width="2"/>
    <path fill="none" stroke="#000000" stroke-linecap="round" stroke-linejoin="round" stroke-miterlimit="10" stroke-width="2" d="M26.0156,36.0794c0-1.7991,0.4751-3.4872,1.3066-4.9457"/>
    <path fill="none" stroke="#000000" stroke-linecap="round" stroke-linejoin="round" stroke-miterlimit="10" stroke-width="2" d="M41.0078,44.7461c-1.4691,0.8481-3.174,1.3333-4.9922,1.3333"/>
    <path fill="none" stroke="#000000" stroke-linecap="round" stroke-linejoin="round" stroke-miterlimit="10" stroke-width="2" d="M46.0156,36.0794c0,1.8198-0.4861,3.5261-1.3355,4.996"/>
    <path fill="none" stroke="#000000" stroke-linecap="round" stroke-linejoin="round" stroke-miterlimit="10" stroke-width="2" d="M30.9861,27.4344c1.4575-0.8498,3.1494-1.3415,4.9551-1.3547"/>
  </g>
</svg>
