<?xml version="1.0" encoding="utf-8"?>
<!-- Generator: Adobe Illustrator 21.1.0, SVG Export Plug-In . SVG Version: 6.00 Build 0)  -->
<svg version="1.1" id="emoji" xmlns="http://www.w3.org/2000/svg" xmlns:xlink="http://www.w3.org/1999/xlink" x="0px" y="0px"
	 viewBox="0 0 72 72" enable-background="new 0 0 72 72" xml:space="preserve">
<g id="_xD83C__xDFC5_">
	<circle fill="none" stroke="#1D1D1B" stroke-width="2" stroke-miterlimit="10" cx="36" cy="45" r="23"/>
	
		<line fill="none" stroke="#1D1D1B" stroke-width="2" stroke-linecap="round" stroke-linejoin="round" stroke-miterlimit="10" x1="29" y1="19" x2="29" y2="16"/>
	
		<line fill="none" stroke="#1D1D1B" stroke-width="2" stroke-linecap="round" stroke-linejoin="round" stroke-miterlimit="10" x1="43" y1="19" x2="43" y2="16"/>
	
		<line fill="none" stroke="#1D1D1B" stroke-width="2" stroke-linecap="round" stroke-linejoin="round" stroke-miterlimit="10" x1="29" y1="16" x2="43" y2="16"/>
	
		<line fill="none" stroke="#1D1D1B" stroke-width="2" stroke-linecap="round" stroke-linejoin="round" stroke-miterlimit="10" x1="26" y1="13" x2="17" y2="4"/>
	
		<line fill="none" stroke="#1D1D1B" stroke-width="2" stroke-linecap="round" stroke-linejoin="round" stroke-miterlimit="10" x1="32" y1="12" x2="24" y2="4"/>
	
		<line fill="none" stroke="#1D1D1B" stroke-width="2" stroke-linecap="round" stroke-linejoin="round" stroke-miterlimit="10" x1="34" y1="8" x2="37.9" y2="4"/>
	
		<line fill="none" stroke="#1D1D1B" stroke-width="2" stroke-linecap="round" stroke-linejoin="round" stroke-miterlimit="10" x1="46" y1="13" x2="55" y2="4"/>
	
		<line fill="none" stroke="#1D1D1B" stroke-width="2" stroke-linecap="round" stroke-linejoin="round" stroke-miterlimit="10" x1="17" y1="4" x2="24" y2="4"/>
	
		<line fill="none" stroke="#1D1D1B" stroke-width="2" stroke-linecap="round" stroke-linejoin="round" stroke-miterlimit="10" x1="37.9" y1="4" x2="55" y2="4"/>
	<circle fill="none" stroke="#1D1D1B" stroke-width="2" stroke-miterlimit="10" cx="36" cy="45" r="23"/>
	
		<polygon fill="none" stroke="#030303" stroke-width="2" stroke-linecap="round" stroke-linejoin="round" stroke-miterlimit="10" points="
		36,28 30.9,38.4 19.4,40.1 27.7,48.2 25.7,59.6 36,54.2 46.3,59.6 44.3,48.2 52.6,40.1 41.1,38.4 	"/>
</g>
</svg>
