<?xml version="1.0" encoding="utf-8"?>
<!-- Generator: Adobe Illustrator 21.1.0, SVG Export Plug-In . SVG Version: 6.00 Build 0)  -->
<svg version="1.1" id="emoji" xmlns="http://www.w3.org/2000/svg" xmlns:xlink="http://www.w3.org/1999/xlink" x="0px" y="0px"
	 viewBox="0 0 72 72" enable-background="new 0 0 72 72" xml:space="preserve">
<g id="_xD83C__xDFCA__xFE0F_">
	<circle fill="none" stroke="#000000" stroke-width="2" stroke-miterlimit="10" cx="19.4" cy="33.1" r="3"/>
	<path fill="none" stroke="#000000" stroke-width="2" stroke-linecap="round" stroke-linejoin="round" stroke-miterlimit="10" d="
		M5,36c3,0,9,3,15,3s10-3,16-3c6,0,11,3,16,3s7-3,15-3"/>
	<path fill="none" stroke="#000000" stroke-width="2" stroke-linecap="round" stroke-linejoin="round" stroke-miterlimit="10" d="
		M46,44c2,0.6,4,1,6,1c2.7,0,4.6-0.9,7-1.7"/>
	<path fill="none" stroke="#000000" stroke-width="2" stroke-linecap="round" stroke-linejoin="round" stroke-miterlimit="10" d="
		M12.8,43.9C15,44.5,17.5,45,20,45c6,0,10-3,16-3"/>
	<path fill="none" stroke="#000000" stroke-width="2" stroke-linecap="round" stroke-linejoin="round" stroke-miterlimit="10" d="
		M26,51c3.2-0.9,6.2-2.1,10-2.1c4.4,0,8.3,1.6,12,2.5"/>
	<path fill="none" stroke="#000000" stroke-width="2" stroke-linecap="round" stroke-linejoin="round" stroke-miterlimit="10" d="
		M26,38c1-3,1-6,4-9c2-2,5-6,7-6s7,3,7,3"/>
	<path fill="none" stroke="#000000" stroke-width="2" stroke-linecap="round" stroke-linejoin="round" stroke-miterlimit="10" d="
		M43,37c0,0-5.2-3.9-7-5c-1.9-1.2-2-2-2-2"/>
</g>
</svg>
