<svg id="emoji" viewBox="0 0 72 72" xmlns="http://www.w3.org/2000/svg">
  <g id="line">
    <path fill="none" stroke="#000" stroke-linecap="round" stroke-linejoin="round" stroke-width="2" d="M5.7237,52.6959s2.2879,1.2392,8.77,2.6691a210.2877,210.2877,0,0,0,21.7346,3.05"/>
    <path fill="none" stroke="#000" stroke-linecap="round" stroke-linejoin="round" stroke-width="2" d="M51.6708,47.7389s.9536-3.6755,2.86-3.6755a2.1691,2.1691,0,0,1,1.2741.49,2.516,2.516,0,0,1,.5977,2.6681"/>
    <path fill="none" stroke="#000" stroke-linecap="round" stroke-linejoin="round" stroke-width="2" d="M50.501,57.49a4.6978,4.6978,0,0,1,5.044-.7656"/>
    <path fill="none" stroke="#000" stroke-linecap="round" stroke-linejoin="round" stroke-width="2" d="M58.433,58.6594s3.1458,2.1926,4.1944.6673c.572-.8579.858-2.86-2.0018-3.7177"/>
    <path fill="none" stroke="#000" stroke-linecap="round" stroke-linejoin="round" stroke-width="2" d="M32.693,61.1256a13.6292,13.6292,0,0,0,9.1922-1.0837c3.5271-2.3832,5.9728-8.49,14.5522-9.4432"/>
    <circle cx="33.5589" cy="8.7501" r="3" fill="none" stroke="#000" stroke-miterlimit="10" stroke-width="2"/>
    <path fill="none" stroke="#000" stroke-linecap="round" stroke-linejoin="round" stroke-width="2" d="M10.5851,21.0473h4.8617a18.6309,18.6309,0,0,0,8.5794-2.3832,22.68,22.68,0,0,1,7.6262-2.86,77.4464,77.4464,0,0,1,8.5794-.4766,13.6688,13.6688,0,0,1,7.6262,2.3831,30.1609,30.1609,0,0,0,6.1963,3.8131c1.8112.7626,3.3364,1.43,3.3364,1.43"/>
    <path fill="none" stroke="#000" stroke-linecap="round" stroke-linejoin="round" stroke-width="2" d="M40.7661,20.0435s-1.052,7.93-.9934,10.03a21.2083,21.2083,0,0,0,.5105,3.8426A92.3713,92.3713,0,0,1,40.82,44.8791l-1.0976,8.5794c-.1722,1.0486-.8609,1.9065-1.55,1.9065s-1.2914-.8579-1.2914-1.9065V44.8791a17.5053,17.5053,0,0,0-.43-3.7178L35.59,37.2529c-.2583-1.0486-.6027-1.8112-.8609-1.8112s-5.7956,5.4126-6.3508,7.3163c-.4,1.3737-1.8725,7.8655-1.8725,7.8655-.2574.9637-.9452,1.6186-1.6916,1.469-.7637-.1526-1.0038-1.1935-.96-2.1354a77.0643,77.0643,0,0,1,.9909-8.3344c.65-1.9294,4.6359-8.0838,4.6359-8.0838A15.2485,15.2485,0,0,0,31.1551,29.75a21.3952,21.3952,0,0,0,.6465-5.652,5.3294,5.3294,0,0,0-.8609-2.86,5.107,5.107,0,0,0-.8609-.9532"/>
  </g>
</svg>
