<?xml version="1.0" encoding="utf-8"?>
<!-- Generator: Adobe Illustrator 21.1.0, SVG Export Plug-In . SVG Version: 6.00 Build 0)  -->
<svg version="1.1" id="emoji" xmlns="http://www.w3.org/2000/svg" xmlns:xlink="http://www.w3.org/1999/xlink" x="0px" y="0px"
	 viewBox="0 0 72 72" enable-background="new 0 0 72 72" xml:space="preserve">
<g id="_xD83C__xDFCC__xFE0F_">
	<circle fill="none" stroke="#000000" stroke-width="2" stroke-miterlimit="10" cx="39" cy="11.1" r="3"/>
	<g>
		<path fill="none" stroke="#000000" stroke-width="2" stroke-linecap="round" stroke-linejoin="round" stroke-miterlimit="10" d="
			M30,55.5"/>
	</g>
	<g>
		<path fill="none" stroke="#000000" stroke-width="2" stroke-linecap="round" stroke-linejoin="round" stroke-miterlimit="10" d="
			M33,21l-1.4,4.1c-0.3,1-0.8,2.8-1.1,3.8L29.4,34c-0.2,1.1-0.5,2.8-0.6,3.9l-0.7,9c-0.1,1.1-0.2,2.9-0.2,4l0,14c0,1.1,0.7,2,1.5,2
			s1.6-0.9,1.7-2l1.5-13c0.1-1.1,0.3-2.9,0.4-4l0.6-6c0.1-1.1,0.4-2,0.7-2s0.7,0.9,0.9,2l1.3,7.1c0.2,1.1,0.7,2.8,1.1,3.8l4.6,12.3
			c0.4,1,1.4,1.9,2.2,1.9s1.3-0.9,1-1.9l-3-12.1c-0.3-1.1-0.5-2.8-0.6-3.9l-0.7-10c-0.1-1.1-0.4-2.9-0.6-3.9l0-0.1
			c-0.3-1.1-0.4-2.8-0.3-3.9l0.6-7c0.1-1.1,0-2.7-0.3-3.5s-1.4-1.8-2.4-2.1l-6.2-1.9c-1.1-0.3-2.2-1.4-2.7-2.4L28,11"/>
	</g>
	<g>
		<path fill="none" stroke="#000000" stroke-width="2" stroke-linecap="round" stroke-linejoin="round" stroke-miterlimit="10" d="
			M32,23l-5-0.6c-1.6-0.2-3-1.7-3-3.4v-9"/>
	</g>
	<path fill="none" stroke="#000000" stroke-width="2" stroke-linecap="round" stroke-linejoin="round" stroke-miterlimit="10" d="
		M45.8,13.8L57,16l1,3c1,2-2,3-3,0"/>
	
		<line fill="none" stroke="#000000" stroke-width="2" stroke-linecap="round" stroke-linejoin="round" stroke-miterlimit="10" x1="21" y1="9" x2="32" y2="11.1"/>
</g>
</svg>
