<?xml version="1.0" encoding="utf-8"?>
<!-- Generator: Adobe Illustrator 21.1.0, SVG Export Plug-In . SVG Version: 6.00 Build 0)  -->
<svg version="1.1" id="emoji" xmlns="http://www.w3.org/2000/svg" xmlns:xlink="http://www.w3.org/1999/xlink" x="0px" y="0px"
	 viewBox="0 0 72 72" enable-background="new 0 0 72 72" xml:space="preserve">
<g id="_xD83C__xDFD5__xFE0F__1_">
	<polyline fill="none" points="26.4,35 11.9,60 40.9,60 26.4,35 	"/>
	<path fill="none" stroke="#000000" stroke-width="2" stroke-linecap="round" stroke-linejoin="round" stroke-miterlimit="10" d="
		M26.4,60"/>
	<polyline fill="#FFFFFF" stroke="#000000" stroke-width="2" stroke-linecap="round" stroke-linejoin="round" points="46.4,60 
		46.4,52.3 41.1,47.2 	"/>
	
		<line fill="#FFFFFF" stroke="#000000" stroke-width="2" stroke-linecap="round" stroke-linejoin="round" x1="47" y1="52.2" x2="50" y2="49.1"/>
	<polyline fill="none" points="26.4,44.2 26.4,60 11.9,60 26.4,35 	"/>
	
		<polyline fill="none" stroke="#000000" stroke-width="2" stroke-linecap="round" stroke-linejoin="round" stroke-miterlimit="10" points="
		26.4,35 11.9,60 40.9,60 34,48 	"/>
	
		<line fill="#F1B31C" stroke="#000000" stroke-width="2" stroke-linecap="round" stroke-linejoin="round" stroke-miterlimit="10" x1="26.4" y1="60" x2="26.4" y2="44.2"/>
	
		<line fill="none" stroke="#000000" stroke-width="2" stroke-linecap="round" stroke-linejoin="round" stroke-miterlimit="10" x1="26.4" y1="44.2" x2="26.4" y2="60"/>
	<path fill="none" stroke="#000000" stroke-width="2" stroke-linecap="round" stroke-miterlimit="10" d="M65.9,32.6
		c0-3.5-3.6-6.4-8.1-6.4c-0.4,0-0.8,0-1.1,0.1c-1.9-3.7-6-6.3-10.8-6.3c-6.6,0-12,4.8-12,10.8c0,0.4,0,0.8,0.1,1.2c-3,1-5,3.3-5,5.9
		c0,3.5,3.6,6.4,8.1,6.4c1.7,0,3.4-0.4,4.9-1.3c1.9,1.6,5,2.6,8.5,2.6c5.8,0,10.5-2.9,10.5-6.4c0-0.2,0-0.5-0.1-0.7
		C63.9,37.6,65.9,35.3,65.9,32.6z"/>
	<path fill="none" stroke="#000000" stroke-width="2" stroke-linecap="round" stroke-linejoin="round" stroke-miterlimit="10" d="
		M26.4,54c-1,0-3,1-5,1c-2.8,0-5,2.2-5,5h10V54z"/>
</g>
</svg>
