<svg id="emoji" xmlns="http://www.w3.org/2000/svg" viewBox="0 0 72 72">
  
  
  
  
  
  <g id="line">
    <polygon fill="none" stroke="#000000" stroke-width="2" stroke-linecap="round" stroke-linejoin="round" stroke-miterlimit="10" points="
			28.5,22.0588 23.5,26.7647 23.5,17 28.5,17 		"></polygon>
    <rect x="25.5" y="40" fill="none" stroke="#000000" stroke-width="2" stroke-linecap="round" stroke-linejoin="round" stroke-miterlimit="10" width="9" height="16"></rect>
    <polygon fill="none" stroke="#000000" stroke-width="2" stroke-linecap="round" stroke-linejoin="round" stroke-miterlimit="10" points="
			48,47 42.7924,47 40,47 40,40 42,40 48,40 		"></polygon>
    <rect x="20.0682" y="43.4574" transform="matrix(0.7071 -0.7071 0.7071 0.7071 -23.5764 34.1183)" fill="none" stroke="#000000" stroke-width="2" stroke-linecap="round" stroke-linejoin="round" stroke-miterlimit="10" width="18.656" height="4.122"></rect>
    <polygon fill="none" stroke="#000000" stroke-width="2" stroke-linecap="round" stroke-linejoin="round" stroke-miterlimit="10" points="
			42.7917,47 46,43 43,42 42,40 48,40 48,47 		"></polygon>
    <line fill="none" stroke="#000000" stroke-width="2" stroke-linecap="round" stroke-linejoin="round" stroke-miterlimit="10" x1="42" y1="22" x2="42" y2="26"></line>
    <line fill="none" stroke="#000000" stroke-width="2" stroke-linecap="round" stroke-linejoin="round" stroke-miterlimit="10" x1="45" y1="25" x2="45" y2="26"></line>
    <line fill="none" stroke="#000000" stroke-width="2" stroke-linecap="round" stroke-linejoin="round" stroke-miterlimit="10" x1="39" y1="19" x2="39" y2="26"></line>
    <polyline fill="none" stroke="#000000" stroke-width="2" stroke-linecap="round" stroke-linejoin="round" stroke-miterlimit="10" points="
			40,19 36,15 19,31 19,32.0003 53,32.0003 53,31 47,26 40,27 32,28 34,24 32,22 38.6,17.6 		"></polyline>
    <line fill="none" stroke="#000000" stroke-width="2" stroke-linecap="round" stroke-linejoin="round" stroke-miterlimit="10" x1="36" y1="20" x2="36" y2="27"></line>
    <rect x="19" y="32" fill="none" stroke="#000000" stroke-width="2" stroke-linecap="round" stroke-linejoin="round" stroke-miterlimit="10" width="34" height="24"></rect>
  </g>
</svg>