<?xml version="1.0" encoding="utf-8"?>
<!-- Generator: Adobe Illustrator 21.1.0, SVG Export Plug-In . SVG Version: 6.00 Build 0)  -->
<svg version="1.1" id="emoji" xmlns="http://www.w3.org/2000/svg" xmlns:xlink="http://www.w3.org/1999/xlink" x="0px" y="0px"
	 viewBox="0 0 72 72" enable-background="new 0 0 72 72" xml:space="preserve">
<g id="_xD83C__xDFDC__xFE0F_">
	<path fill="none" stroke="#000000" stroke-width="2" stroke-linecap="round" stroke-linejoin="round" stroke-miterlimit="10" d="
		M42,49V26c0-1.7,1.3-3,3-3l0,0c1.7,0,3,1.3,3,3v23"/>
	<path fill="none" stroke="#000000" stroke-width="2" stroke-linecap="round" stroke-linejoin="round" stroke-miterlimit="10" d="
		M35,33v-2c0-1.1,0.9-2,2-2l0,0c1.1,0,2,0.9,2,2v2"/>
	<path fill="none" stroke="#000000" stroke-width="2" stroke-linecap="round" stroke-linejoin="round" stroke-miterlimit="10" d="
		M51,37v-5c0-1.1,0.9-2,2-2l0,0c1.1,0,2,0.9,2,2v5"/>
	<path fill="none" stroke="#000000" stroke-width="2" stroke-linecap="round" stroke-linejoin="round" stroke-miterlimit="10" d="
		M35,33c0,3.3,2.7,6,6,6"/>
	<path fill="none" stroke="#000000" stroke-width="2" stroke-linecap="round" stroke-linejoin="round" stroke-miterlimit="10" d="
		M39,33c0,1.1,0.9,2,2,2"/>
	<path fill="none" stroke="#000000" stroke-width="2" stroke-linecap="round" stroke-linejoin="round" stroke-miterlimit="10" d="
		M55,37c0,3.3-2.7,6-6,6"/>
	<path fill="none" stroke="#000000" stroke-width="2" stroke-linecap="round" stroke-linejoin="round" stroke-miterlimit="10" d="
		M51,37c0,1.1-0.9,2-2,2"/>
	<path fill="none" stroke="#000000" stroke-width="2" stroke-linecap="round" stroke-linejoin="round" stroke-miterlimit="10" d="
		M7,52c3.9-2.5,7.2-2.9,9-3c2.9-0.1,4.3-0.4,9,1c3.8,1.1,6.8,4.5,9,5c1.1,0.3,2,1,10-2c5.8-2.2,10-2,15-1c0.8,0.2,5,1,6,1"/>
	<path fill="none" stroke="#000000" stroke-width="2" stroke-linecap="round" stroke-linejoin="round" stroke-miterlimit="10" d="
		M7,40c0.5-1,1.7-3,4-4c2.6-1.2,3-2,6-4c4.7-3.2,6.8-9,11-9c1.7,0,4,3,5,6"/>
	<path fill="none" stroke="#000000" stroke-width="2" stroke-linecap="round" stroke-linejoin="round" stroke-miterlimit="10" d="
		M65,39c0,0-3,0-6,1c-0.9,0.3-2,0-2,0"/>
</g>
</svg>
