<svg id="emoji" viewBox="0 0 72 72" xmlns="http://www.w3.org/2000/svg">
  <g id="line">
    <path fill="none" stroke="#000000" stroke-linecap="round" stroke-linejoin="round" stroke-miterlimit="10" stroke-width="2" d="M29.3861,51.208c0.4854-1.0846,1.6246-0.8975,1.6246-0.8975l0.0783,0.0091c6.7209,1.5643,13.0483,1.2476,18.0324-2.4671"/>
    <path fill="none" stroke="#000000" stroke-linecap="round" stroke-linejoin="round" stroke-miterlimit="10" stroke-width="2" d="M22.4252,47.5037c0.6236-1.0115-0.113-1.7932-0.113-1.7932l-0.0365-0.0382c-7.2736-6.6788-10.9673-14.9122-5.7359-24.7998 C22.6383,9.3458,34.4924-0.9163,48.5632,6.5283c11.3007,5.9789,12.4779,16.3166,9.6649,26.0092"/>
    <line x1="45.5451" x2="14.4533" y1="49.8688" y2="33.4189" fill="none" stroke="#000000" stroke-linecap="round" stroke-linejoin="round" stroke-miterlimit="10" stroke-width="2"/>
    <path fill="none" stroke="#000000" stroke-linecap="round" stroke-linejoin="round" stroke-miterlimit="10" stroke-width="2" d="M21.3523,69.3163l3.9927-9.0477l7.6176-17.0568l-5.9312-3.138l-9.8345,15.8839l-4.4591,7.1491 c-0.2774,0.4689-0.2854,0.7197-0.2294,1.1028v0c0.0579,0.396,0.3755,0.8007,0.7988,1.1777c0,0,1.6564,1.5208,4.1689,2.6128"/>
    <circle cx="54.8215" cy="40.8811" r="5" fill="none" stroke="#000000" stroke-linecap="round" stroke-linejoin="round" stroke-miterlimit="10" stroke-width="2"/>
  </g>
</svg>
