<svg id="emoji" viewBox="0 0 72 72" xmlns="http://www.w3.org/2000/svg">
  <g id="line">
    <circle cx="52.2459" cy="60.8687" r="5" fill="none" stroke="#000000" stroke-linecap="round" stroke-linejoin="round" stroke-miterlimit="10" stroke-width="2"/>
    <path fill="none" stroke="#000000" stroke-linecap="round" stroke-linejoin="round" stroke-miterlimit="10" stroke-width="2" d="M58.208,12.5205L28.0173,62.7147l0,0c-2.6148,4.3359-8.2494,5.7311-12.5853,3.1163s-5.7311-8.2494-3.1163-12.5853l-0.0479,0.0795 c1.3431-2.2271,4.2373-2.9438,6.4644-1.6007s2.9438,4.2373,1.6007,6.4644c-0.5394,0.8945-0.2516,2.057,0.6429,2.5964 s2.057,0.2516,2.5964-0.6429l0.0104-0.0168L56.3124,5.842c0.5834-0.9674,1.8521-1.2815,2.8195-0.6981l0.4397,0.2652l0.4397,0.2652 c0.9674,0.5834,1.2815,1.8521,0.6981,2.8195l-0.385,0.6385"/>
  </g>
</svg>
