<svg id="emoji" viewBox="0 0 72 72" version="1.1" xmlns="http://www.w3.org/2000/svg">
  <g id="line">
    <path fill="none" stroke="#000000" stroke-linecap="round" stroke-linejoin="round" stroke-miterlimit="10" stroke-width="2" d="M66,33.9998l-4,15H41c0-10.49-2.9-12-5-12s-5,1.51-5,12H10l-4-15c0-4.88,4.23-6.95,9.81-7.78c2.31-2.16,6.51-2.36,10.68-2.08 c2.55-4.75,7.65,0.26,9.51,0.26c1.85,0,7.47-4.98,10.32-0.31c3.9-0.19,7.71,0.11,9.87,2.13C61.77,27.0497,66,29.1198,66,33.9998z"/>
    <line x1="41" x2="31" y1="48.9998" y2="48.9998" fill="none" stroke="#000000" stroke-linecap="round" stroke-linejoin="round" stroke-miterlimit="10" stroke-width="2"/>
    <path fill="none" stroke="#000000" stroke-linecap="round" stroke-linejoin="round" stroke-miterlimit="10" stroke-width="2" d="M58,30.9998c0-2.18-0.68-3.71-1.81-4.78"/>
    <path fill="none" stroke="#000000" stroke-linecap="round" stroke-linejoin="round" stroke-miterlimit="10" stroke-width="2" d="M15.81,26.2198c-1.13,1.07-1.81,2.6-1.81,4.78"/>
    <path fill="none" stroke="#000000" stroke-linecap="round" stroke-linejoin="round" stroke-miterlimit="10" stroke-width="2" d="M48,33.5698c0-3.54-0.35-6.06-0.94-7.82l-0.74-1.66"/>
    <path fill="none" stroke="#000000" stroke-linecap="round" stroke-linejoin="round" stroke-miterlimit="10" stroke-width="2" d="M26.49,24.1398l-0.64,1.61c-0.53,1.76-0.85,4.28-0.85,7.82"/>
    <path fill="none" stroke="#000000" stroke-linecap="round" stroke-linejoin="round" stroke-miterlimit="10" stroke-width="2" d="M13,48.9998v-6c0-0.55,0.45-1,1-1"/>
    <path fill="none" stroke="#000000" stroke-linecap="round" stroke-linejoin="round" stroke-miterlimit="10" stroke-width="2" d="M19,48.9998v-6c0-0.55,0.45-1,1-1"/>
    <path fill="none" stroke="#000000" stroke-linecap="round" stroke-linejoin="round" stroke-miterlimit="10" stroke-width="2" d="M25,48.9998v-6c0-0.55,0.45-1,1-1"/>
    <path fill="none" stroke="#000000" stroke-linecap="round" stroke-linejoin="round" stroke-miterlimit="10" stroke-width="2" d="M57,48.9998v-6c0-0.55,0.45-1,1-1"/>
    <path fill="none" stroke="#000000" stroke-linecap="round" stroke-linejoin="round" stroke-miterlimit="10" stroke-width="2" d="M51,48.9998v-6c0-0.55,0.45-1,1-1"/>
    <path fill="none" stroke="#000000" stroke-linecap="round" stroke-linejoin="round" stroke-miterlimit="10" stroke-width="2" d="M45,48.9998v-6c0-0.55,0.45-1,1-1"/>
    <path fill="none" stroke="#000000" stroke-linecap="round" stroke-linejoin="round" stroke-miterlimit="10" stroke-width="2" d="M41,48.9998H31c0-10.49,2.9-12,5-12S41,38.5098,41,48.9998z"/>
  </g>
</svg>
