<?xml version="1.0" encoding="utf-8"?>
<!-- Generator: Adobe Illustrator 21.1.0, SVG Export Plug-In . SVG Version: 6.00 Build 0)  -->
<svg version="1.1" id="emoji" xmlns="http://www.w3.org/2000/svg" xmlns:xlink="http://www.w3.org/1999/xlink" x="0px" y="0px"
	 viewBox="0 0 72 72" enable-background="new 0 0 72 72" xml:space="preserve">
<g id="_xD83C__xDFDD__xFE0F__1_">
	
		<polyline fill="none" stroke="#000000" stroke-width="2" stroke-linecap="round" stroke-linejoin="round" stroke-miterlimit="10" points="
		33.5,31.7 31.7,27.5 35.6,26.5 36.2,31.2 	"/>
	
		<polyline fill="none" stroke="#000000" stroke-width="2" stroke-linecap="round" stroke-linejoin="round" stroke-miterlimit="10" points="
		34.1,36.4 32.5,31.9 37.4,31 37.5,36.1 	"/>
	<path fill="none" stroke="#000000" stroke-width="2" stroke-linecap="round" stroke-linejoin="round" stroke-miterlimit="10" d="
		M5.5,55c1.7-2,4.3-4.4,7-4c2.9,0.5,3.3,3.5,6,4c3.1,0.6,4.9-3.5,9-4c3.6-0.4,4.1,2.4,6.7,3.5c1,0.4,1.9,0.5,2.3,0.5
		c3.7,0,5-3.6,8-4c2.4-0.3,2.9,2.3,6,3c2.9,0.6,5-2.6,8.5-3c1.8-0.2,5,1,7,4"/>
	<path fill="none" stroke="#000000" stroke-width="2" stroke-linecap="round" stroke-linejoin="round" stroke-miterlimit="10" d="
		M41.5,44.3C42.4,44.1,43,44,44,44c5,0,9.5,3.7,11,6"/>
	<path fill="none" stroke="#000000" stroke-width="2" stroke-linecap="round" stroke-linejoin="round" stroke-miterlimit="10" d="
		M18,51c1.5-3,4.9-6,9-6c0.8,0,2.2,0,3.7,0"/>
	<path fill="none" stroke="#000000" stroke-width="2" stroke-linecap="round" stroke-linejoin="round" stroke-miterlimit="10" d="
		M14,33c-0.1-1.4,0-4.3,2-7c3-4.1,8.4-4.7,12-4c1.3,0.2,2.3,0.7,3,1"/>
	
		<polyline fill="none" stroke="#000000" stroke-width="2" stroke-linecap="round" stroke-linejoin="round" stroke-miterlimit="10" points="
		34.4,41.2 33,36.5 39,36 38.4,41.1 	"/>
	<path fill="none" stroke="#000000" stroke-width="2" stroke-linecap="round" stroke-linejoin="round" stroke-miterlimit="10" d="
		M35,20c0.4-1,1.5-3.3,4-5c3.1-2.2,6.4-2.1,8-2c3.4,0.1,5.9,1.4,7,2c1.3,0.7,2.3,1.4,3,2"/>
	<path fill="none" stroke="#000000" stroke-width="2" stroke-linecap="round" stroke-linejoin="round" stroke-miterlimit="10" d="
		M32.1,20.1c-1.3-0.9-3.4-2-6.3-2.4c-1.3-0.2-5.6-0.7-9.9,1.9c-1.3,0.8-2.2,1.6-2.8,2.3"/>
	<path fill="none" stroke="#000000" stroke-width="2" stroke-linecap="round" stroke-linejoin="round" stroke-miterlimit="10" d="
		M33,17c0-0.7-0.1-2.4,1-4c1.8-2.8,5.3-3,6-3c1.9,0,3.3,0.6,4,1"/>
	<path fill="none" stroke="#000000" stroke-width="2" stroke-linecap="round" stroke-linejoin="round" stroke-miterlimit="10" d="
		M35,23c0.9-0.4,2.7-1.1,5-1c3.9,0.2,6.4,2.4,7,3c1.9,1.8,2.7,3.9,3,5"/>
	<path fill="none" stroke="#000000" stroke-width="2" stroke-linecap="round" stroke-linejoin="round" stroke-miterlimit="10" d="
		M29,28c-0.1-0.5-0.4-1.3-0.9-2c-0.3-0.4-0.7-0.8-1-1"/>
	<path fill="none" stroke="#000000" stroke-width="2" stroke-linecap="round" stroke-linejoin="round" stroke-miterlimit="10" d="
		M25.1,28.9c-0.2-0.5-0.5-1.2-1.2-1.9c-0.4-0.4-0.8-0.7-1.1-0.9"/>
	<path fill="none" stroke="#000000" stroke-width="2" stroke-linecap="round" stroke-linejoin="round" stroke-miterlimit="10" d="
		M22.2,30.8c-0.2-0.5-0.6-1.2-1.3-1.8c-0.4-0.4-0.8-0.6-1.1-0.8"/>
	<path fill="none" stroke="#000000" stroke-width="2" stroke-linecap="round" stroke-linejoin="round" stroke-miterlimit="10" d="
		M20.2,33.9c-0.2-0.5-0.6-1.2-1.2-1.9c-0.4-0.4-0.8-0.7-1.1-0.9"/>
	<path fill="none" stroke="#000000" stroke-width="2" stroke-linecap="round" stroke-linejoin="round" stroke-miterlimit="10" d="
		M42.8,19.4c0-0.5,0.1-1.3,0.4-2.2c0.2-0.5,0.5-0.9,0.7-1.2"/>
	<path fill="none" stroke="#000000" stroke-width="2" stroke-linecap="round" stroke-linejoin="round" stroke-miterlimit="10" d="
		M46.7,19.4c0.1-0.5,0.2-1.3,0.7-2.1c0.3-0.5,0.6-0.9,0.9-1.1"/>
	<path fill="none" stroke="#000000" stroke-width="2" stroke-linecap="round" stroke-linejoin="round" stroke-miterlimit="10" d="
		M50,20.6c0.1-0.5,0.3-1.3,0.8-2.1c0.3-0.5,0.6-0.8,0.9-1.1"/>
	<path fill="none" stroke="#000000" stroke-width="2" stroke-linecap="round" stroke-linejoin="round" stroke-miterlimit="10" d="
		M52.7,23c0.1-0.5,0.3-1.3,0.8-2.1c0.3-0.5,0.6-0.8,0.9-1.1"/>
	
		<polygon fill="none" stroke="#000000" stroke-width="2" stroke-linecap="round" stroke-linejoin="round" stroke-miterlimit="10" points="
		38,46.2 34,46.2 33,41.2 39,41.2 	"/>
	<path fill="none" stroke="#000000" stroke-width="2" stroke-linecap="round" stroke-linejoin="round" stroke-miterlimit="10" d="
		M39,27.1c0.3-0.4,0.8-1,1.6-1.5c0.5-0.3,0.9-0.5,1.3-0.6"/>
	<path fill="none" stroke="#000000" stroke-width="2" stroke-linecap="round" stroke-linejoin="round" stroke-miterlimit="10" d="
		M42.2,29.3c0.4-0.4,1-0.9,1.8-1.3c0.5-0.2,1-0.3,1.4-0.4"/>
	<path fill="none" stroke="#000000" stroke-width="2" stroke-linecap="round" stroke-linejoin="round" stroke-miterlimit="10" d="
		M44.2,32.2c0.4-0.4,1-0.8,1.9-1.2c0.5-0.2,1-0.3,1.4-0.3"/>
</g>
</svg>
