<?xml version="1.0" encoding="utf-8"?>
<!-- Generator: Adobe Illustrator 19.1.0, SVG Export Plug-In . SVG Version: 6.00 Build 0)  -->
<svg version="1.1" id="emoji" xmlns="http://www.w3.org/2000/svg" xmlns:xlink="http://www.w3.org/1999/xlink" x="0px" y="0px"
	 viewBox="0 0 72 72" enable-background="new 0 0 72 72" xml:space="preserve">
<g id="_xD83C__xDFD2__1_">
	<path fill="none" stroke="#000000" stroke-width="2" stroke-linecap="round" stroke-linejoin="round" stroke-miterlimit="10" d="
		M67.3,8.8l0.5-0.9C68.3,7,68,5.7,67.1,5.2l-0.4-0.3l-0.4-0.3c-0.9-0.6-2.2-0.2-2.7,0.7L33.2,56.8c-0.5,0.7-1.3,1.2-2.3,1.2h0H7
		C5.3,58,4,59.4,4,61.1v2.6c0,1.7,1.4,3.1,3.1,3.1h24.3c1.1,0,2.1-0.6,2.6-1.5l0,0l31.3-53"/>
	<g>
		
			<path fill="none" stroke="#000000" stroke-width="1.9" stroke-linecap="round" stroke-linejoin="round" stroke-miterlimit="10" d="
			M65.5,61.6v4c0,1.1-4.2,2-9.5,2s-9.5-0.9-9.5-2v-4"/>
		
			<ellipse fill="none" stroke="#000000" stroke-width="1.9" stroke-linecap="round" stroke-linejoin="round" stroke-miterlimit="10" cx="56" cy="61.6" rx="9.5" ry="1.9"/>
	</g>
</g>
</svg>
