<?xml version="1.0" encoding="utf-8"?>
<!-- Generator: Adobe Illustrator 21.1.0, SVG Export Plug-In . SVG Version: 6.00 Build 0)  -->
<svg version="1.1" id="emoji" xmlns="http://www.w3.org/2000/svg" xmlns:xlink="http://www.w3.org/1999/xlink" x="0px" y="0px"
	 viewBox="0 0 72 72" enable-background="new 0 0 72 72" xml:space="preserve">
<g id="_xD83C__xDFEA__3_">
	<g id="_xD83C__xDFEA_">
		<ellipse fill="none" stroke="#000000" stroke-width="2" stroke-miterlimit="10" cx="19" cy="37" rx="7" ry="5"/>
		
			<polyline fill="none" stroke="#000000" stroke-width="2" stroke-linecap="round" stroke-linejoin="round" stroke-miterlimit="10" points="
			26,38 62,38 62,55 9,55 9,38 12,38 		"/>
		
			<rect x="14" y="45" fill="none" stroke="#000000" stroke-width="2" stroke-linecap="round" stroke-linejoin="round" stroke-miterlimit="10" width="10" height="10"/>
		
			<line fill="none" stroke="#000000" stroke-width="2" stroke-linecap="round" stroke-linejoin="round" stroke-miterlimit="10" x1="19" y1="55" x2="19" y2="45"/>
		
			<rect x="28" y="45" fill="none" stroke="#000000" stroke-width="2" stroke-linecap="round" stroke-linejoin="round" stroke-miterlimit="10" width="10" height="10"/>
		
			<rect x="38" y="45" fill="none" stroke="#000000" stroke-width="2" stroke-linecap="round" stroke-linejoin="round" stroke-miterlimit="10" width="10" height="10"/>
		
			<rect x="48" y="45" fill="none" stroke="#000000" stroke-width="2" stroke-linecap="round" stroke-linejoin="round" stroke-miterlimit="10" width="10" height="10"/>
	</g>
	
		<path fill="none" stroke="#000000" stroke-width="0.8571" stroke-linecap="round" stroke-linejoin="round" stroke-miterlimit="10" d="
		M16.6,36c0.1-0.4,0.5-0.7,0.9-0.7l0,0c0.3,0,0.5,0.1,0.7,0.3c0.3,0.3,0.2,0.7,0,1l-1.6,1.8h1.8"/>
	<g>
		
			<polyline fill="none" stroke="#000000" stroke-width="0.8571" stroke-linecap="round" stroke-linejoin="round" stroke-miterlimit="10" points="
			20.8,35.3 19.7,37.8 21.4,37.8 		"/>
		
			<line fill="none" stroke="#000000" stroke-width="0.8571" stroke-linecap="round" stroke-linejoin="round" stroke-miterlimit="10" x1="21.1" y1="36.8" x2="21.1" y2="38.3"/>
	</g>
</g>
</svg>
