<svg id="emoji" viewBox="0 0 72 72" version="1.1" xmlns="http://www.w3.org/2000/svg">
  <g id="line">
    <rect x="16" y="26" width="40" height="34" fill="none" stroke="#000000" stroke-linecap="round" stroke-linejoin="round" stroke-miterlimit="10" stroke-width="2"/>
    <rect x="14" y="22" width="44" height="4" fill="none" stroke="#000000" stroke-linecap="round" stroke-linejoin="round" stroke-miterlimit="10" stroke-width="2"/>
    <polyline fill="none" stroke="#000000" stroke-linecap="round" stroke-linejoin="round" stroke-miterlimit="10" stroke-width="2" points="19.5,26 22.5,26 22.5,60 19.5,60"/>
    <polyline fill="none" stroke="#000000" stroke-linecap="round" stroke-linejoin="round" stroke-miterlimit="10" stroke-width="2" points="24.9331,26 27.9331,26 27.9331,60 24.9331,60"/>
    <polyline fill="none" stroke="#000000" stroke-linecap="round" stroke-linejoin="round" stroke-miterlimit="10" stroke-width="2" points="47.0669,60 44.0669,60 44.0669,26 47.0669,26"/>
    <polyline fill="none" stroke="#000000" stroke-linecap="round" stroke-linejoin="round" stroke-miterlimit="10" stroke-width="2" points="52.5,60 49.5,60 49.5,26 52.5,26"/>
    <polygon fill="none" stroke="#000000" stroke-linecap="round" stroke-linejoin="round" stroke-miterlimit="10" stroke-width="2" points="36,12 19,21.7491 53,21.7491"/>
    <rect x="31.5" y="50" width="9" height="10" fill="none" stroke="#000000" stroke-linecap="round" stroke-linejoin="round" stroke-miterlimit="10" stroke-width="2"/>
    <line x1="36" x2="36" y1="60" y2="50" fill="none" stroke="#000000" stroke-linecap="round" stroke-linejoin="round" stroke-miterlimit="10" stroke-width="2"/>
    <circle cx="36" cy="35" r="5" fill="none" stroke="#000000" stroke-miterlimit="10" stroke-width="2"/>
    <path fill="none" stroke="#000000" stroke-linecap="round" stroke-linejoin="round" stroke-miterlimit="10" d="M36.9482,34.2622 c-0.0977-0.3803-0.5204-0.6665-1.0269-0.6665l0,0c-0.5789,0-1.0483,0.3737-1.0483,0.8347c0,0.461,0.4693,0.8347,1.0483,0.8347 L35.9,35.2682c0.5789,0,1.0483,0.3737,1.0483,0.8347c0,0.461-0.4693,0.8347-1.0483,0.8347l0,0 c-0.5066,0-0.9293-0.2861-1.027-0.6665"/>
    <line x1="35.9106" x2="35.9106" y1="33.5958" y2="32.8" fill="none" stroke="#000000" stroke-linecap="round" stroke-linejoin="round" stroke-miterlimit="10"/>
    <line x1="35.9106" x2="35.9106" y1="37.7333" y2="36.9375" fill="none" stroke="#000000" stroke-linecap="round" stroke-linejoin="round" stroke-miterlimit="10"/>
  </g>
</svg>
