<svg id="emoji" viewBox="0 0 72 72" xmlns="http://www.w3.org/2000/svg">
  <g id="line-supplement">
    <g>
      <polyline fill="none" stroke="#000" stroke-linecap="round" stroke-linejoin="round" stroke-width="2" points="20.071 27.98 24.541 18.066 29.01 27.98"/>
      <line x1="21.1945" x2="27.7593" y1="25.5309" y2="25.5309" fill="none" stroke="#000" stroke-linecap="round" stroke-linejoin="round" stroke-width="2"/>
    </g>
    <line x1="34.5559" x2="34.5559" y1="18.0657" y2="27.9796" fill="none" stroke="#000" stroke-linecap="round" stroke-linejoin="round" stroke-width="2"/>
    <line x1="31.1833" x2="37.9285" y1="18.0657" y2="18.0657" fill="none" stroke="#000" stroke-linecap="round" stroke-linejoin="round" stroke-width="2"/>
    <polyline fill="none" stroke="#000" stroke-linecap="round" stroke-linejoin="round" stroke-width="2" points="42.575 28.002 42.575 18.044 46.809 26.937 51.278 18.044 51.278 28.002"/>
  </g>
  <g id="line">
    <rect x="16" y="13.4375" width="40" height="45.0417" fill="none" stroke="#000" stroke-linecap="round" stroke-linejoin="round" stroke-width="2.1223"/>
    <rect x="19.4258" y="33.6381" width="15.1255" height="13.8874" fill="none" stroke="#000" stroke-linecap="round" stroke-linejoin="round" stroke-width="2"/>
    <polyline fill="none" stroke="#000" stroke-linecap="round" stroke-linejoin="round" stroke-width="2" points="19.426 53.723 19.426 51.147 51.923 51.147 51.923 53.723"/>
    <polyline fill="none" stroke="#000" stroke-linecap="round" stroke-linejoin="round" stroke-width="2" points="38.104 38.771 38.104 33.638 43.237 33.638"/>
    <polyline fill="none" stroke="#000" stroke-linecap="round" stroke-linejoin="round" stroke-width="2" points="46.79 38.771 46.79 33.638 51.923 33.638"/>
    <polyline fill="none" stroke="#000" stroke-linecap="round" stroke-linejoin="round" stroke-width="2" points="38.104 47.529 38.104 42.396 43.237 42.396"/>
    <polyline fill="none" stroke="#000" stroke-linecap="round" stroke-linejoin="round" stroke-width="2" points="46.79 47.529 46.79 42.396 51.923 42.396"/>
  </g>
</svg>
