<svg id="emoji" viewBox="0 0 72 72" xmlns="http://www.w3.org/2000/svg">
  <g id="line">
    <path fill="none" stroke="#000" stroke-linecap="round" stroke-linejoin="round" stroke-width="2" d="M53.1969,18.1743c-3.76-3.7595-11.5866-2.0371-17.6269,3.8114-5.9377-5.34-13.335-6.8044-16.9568-3.1826-3.626,3.626-2.1537,11.0363,3.202,16.9775-5.3557,5.9412-6.828,13.3514-3.202,16.9774C22.235,56.38,29.6323,54.9158,35.57,49.5754c6.04,5.8486,13.8673,7.571,17.6269,3.8114,3.7553-3.7553,2.0405-11.5688-3.7921-17.6062C55.2374,29.7432,56.9522,21.93,53.1969,18.1743Z"/>
    <path fill="none" stroke="#000" stroke-linecap="round" stroke-linejoin="round" stroke-width="2" d="M58.5472,42.8971A8.3115,8.3115,0,0,0,62,36.5345c0-2.5743-1.4854-4.9284-3.9467-6.7446"/>
    <path fill="none" stroke="#000" stroke-linecap="round" stroke-linejoin="round" stroke-width="2" d="M28.3914,57.7105c1.8569,2.7374,4.3417,4.4108,7.0741,4.4108a8.3057,8.3057,0,0,0,6.3507-3.4368"/>
    <path fill="none" stroke="#000" stroke-linecap="round" stroke-linejoin="round" stroke-width="2" d="M13.1246,30.3426a8.2069,8.2069,0,0,0-3.2459,6.1919,7.8549,7.8549,0,0,0,2.5668,5.57"/>
    <path fill="none" stroke="#000" stroke-linecap="round" stroke-linejoin="round" stroke-width="2" d="M42.0774,13.77C40.28,11.4144,37.9775,10,35.4655,10a8.3022,8.3022,0,0,0-6.3482,3.4352"/>
    <circle cx="35.5906" cy="35.7806" r="8.0032" fill="none" stroke="#000" stroke-linejoin="round" stroke-width="2"/>
    <circle cx="35.5906" cy="35.7806" r="4.4462" fill="none" stroke="#000" stroke-linejoin="round" stroke-width="2"/>
  </g>
</svg>
