<svg version="1.1" id="emoji" xmlns="http://www.w3.org/2000/svg" x="0" y="0" viewBox="0 0 72 72" enable-background="new 0 0 72 72" xml:space="preserve">
  <g id="line">
    <path fill="none" stroke="#000000" stroke-width="2" stroke-linecap="round" stroke-linejoin="round" stroke-miterlimit="10" d="M23.1,17.5c2.9-1.8,8.4-4.2,14.4-1.5c3.7,1.7,5.6,4.7,15,4.1c0.8,0,1.5,0.6,1.5,1.4c0,3.3,0,11.1,0,15.1c0,0.6-0.4,1.1-1,1.4 c-1.9,1-7.3,0.9-15.5-3c-3.4-1.6-8.6-2.6-14.5,1.4"/>
    <line fill="none" stroke="#000000" stroke-width="2" stroke-linecap="round" stroke-miterlimit="10" x1="19.3" y1="12.9" x2="19.3" y2="59.8"/>
    <path d="M54.5,23.6c0,0.5-0.4,1-0.9,1.1c-0.1,0-0.8,0.1-1.9,0.1c-2.5,0-7-0.3-10.6-2.3l-0.4-0.2c-4.7-2.6-8.8-4.9-17-0.5 c-0.5,0.3-1.3,0.1-1.5-0.4v-3.8c9.2-4.9,14.7-1.5,19.5,1.1l0.4,0.2c4.5,2.5,11.2,2,11.3,2c0.5-0.1,1,0.4,1.1,0.9 c0,0.4-0.2,0.8-0.5,1C54.3,22.9,54.5,23.2,54.5,23.6z"/>
    <path d="M51.7,29.5c-2.5,0-7.1-0.3-10.6-2.3L40.7,27c-4.7-2.6-8.7-4.9-17-0.5c-0.5,0.3-1.1,0.1-1.4-0.4s-0.1-1.1,0.4-1.4 c9.2-4.9,14.1-2.2,18.9,0.5l0.4,0.2c4.5,2.5,11.2,2,11.3,2c0.5-0.1,1,0.4,1.1,0.9c0,0.5-0.4,1-0.9,1.1 C53.5,29.5,52.8,29.5,51.7,29.5z"/>
    <path d="M51.7,34.3c-2.5,0-7.1-0.3-10.6-2.3l-0.4-0.2c-4.7-2.6-8.7-4.9-17-0.5c-0.5,0.3-1.1,0.1-1.4-0.4s-0.1-1.1,0.4-1.4 c9.2-4.9,14.1-2.2,18.9,0.5l0.4,0.2c4.5,2.5,11.2,2,11.3,2c0.5-0.1,1,0.4,1.1,0.9c0,0.5-0.4,1-0.9,1.1 C53.5,34.2,52.8,34.3,51.7,34.3z"/>
  </g>
</svg>
