<?xml version="1.0" encoding="utf-8"?>
<!-- Generator: Adobe Illustrator 21.1.0, SVG Export Plug-In . SVG Version: 6.00 Build 0)  -->
<svg version="1.1" id="emoji" xmlns="http://www.w3.org/2000/svg" xmlns:xlink="http://www.w3.org/1999/xlink" x="0px" y="0px"
	 viewBox="0 0 72 72" enable-background="new 0 0 72 72" xml:space="preserve">
<g id="_xD83D__xDC0F__1_">
	<path fill="none" stroke="#000000" stroke-width="2" stroke-linecap="round" stroke-linejoin="round" stroke-miterlimit="10" d="
		M30.6,25.2l0.5,0.3c0,0,8.4,3.6,17,0.8c0,0,8.1-2.5,12.3,5.5C63,36.9,61,40.2,59.2,42c-1.1,1.1-1.7,2.5-1.5,4l0.5,3.6l-0.4,11
		c0,1.1-0.9,1.9-2,1.9h-0.6c-1.2,0-2.1-1-2-2.2l0.2-5.4c0.1-1.7-0.4-3.4-1.3-4.8l-3.5-5.3c0,0-2.8-5.2-0.5-8.8"/>
	<path fill="none" stroke="#000000" stroke-width="2" stroke-linecap="round" stroke-linejoin="round" stroke-miterlimit="10" d="
		M36.1,46.1c3.5,0.5,9.2,0.9,11.7-0.5"/>
	<path fill="none" stroke="#000000" stroke-width="2" stroke-linecap="round" stroke-linejoin="round" stroke-miterlimit="10" d="
		M63,29c0,0,3.2,0.1,3.3,4.8"/>
	<path fill="none" stroke="#000000" stroke-width="2" stroke-linecap="round" stroke-linejoin="round" stroke-miterlimit="10" d="
		M19.6,18.2c0,0,2.8-1.4,3,1.4c0.1,1.4-0.7,2-1.3,2.5c-1,0.8-3.4,0-4.8-0.5c-0.5-0.2-1,0.2-0.9,0.8c0.4,1.6,1.6,3.7,4.2,4.1
		c6.4,1,11-7.8,4.9-11.9c-6.7-4.5-9.7,2.7-9.7,2.7l-2.7,1.4l-1.1,1.5c0,0-6.1,1.6-4.1,4.9l1.8,2.2l4.2,0.4c1.1,0.1,2,1,2,2.2l1,4.5
		l3.6,7.8c0.5,1.1,1.4,1.9,2.5,2.3l2.8,1c0.5,1.2,0.7,2.1,0.7,2.1l-1.2,11.1c-0.1,1.2,0.8,2.2,2,2.2h0.7c1,0,1.8-0.7,2-1.6L32,45
		c0.1-0.4,0.1-0.7,0.1-1.1l-0.5-5.5"/>
</g>
</svg>
