<?xml version="1.0" encoding="utf-8"?>
<!-- Generator: Adobe Illustrator 21.1.0, SVG Export Plug-In . SVG Version: 6.00 Build 0)  -->
<svg version="1.1" id="emoji" xmlns="http://www.w3.org/2000/svg" xmlns:xlink="http://www.w3.org/1999/xlink" x="0px" y="0px"
	 viewBox="0 0 72 72" enable-background="new 0 0 72 72" xml:space="preserve">
<g id="_xD83D__xDC0D__1_">
	<path fill="none" stroke="#010101" stroke-width="2" stroke-linecap="round" stroke-linejoin="round" d="M45,59
		c2.2,0,9.4-0.1,12.5-0.2c0.7,0,1.2-0.6,1.1-1.2c0-0.4-0.3-0.8-0.6-1l-9.5-3.6"/>
	<path fill="none" stroke="#010101" stroke-width="2" stroke-linecap="round" stroke-linejoin="round" d="M19.5,50.7
		c0.4,0,0.7,0,1.1,0c3.8,0.1,7.7-0.6,11.2-2.1c7.8-3.3,3.5-27.9,3.5-27.9v-0.2c0-3.6,2.9-6.6,6.6-6.6h0c3.6,0,9,3,9,6.6
		c0,4.3-7.5,4.5-7.5,4.5c2.9,13.6,1.7,30.4-2.8,32.4c-5.8,2.6-16.3,3-23.9,2.2c-5.2-0.5-5.8-3.6-5.3-7.1"/>
	<path fill="none" stroke="#010101" stroke-width="2" stroke-linecap="round" stroke-linejoin="round" d="M29.7,44.6
		c-13.3-6-18.3,6.1-18.3,8"/>
	<path fill="none" stroke="#010101" stroke-width="2" stroke-linecap="round" stroke-miterlimit="10" d="M48.7,24.5
		c0,0,3.8,4.1,7.6,4.6"/>
	<polyline fill="none" stroke="#010101" stroke-width="2" stroke-linecap="round" stroke-miterlimit="10" points="56.9,33.6 
		55.8,29 60.7,26.8 	"/>
</g>
</svg>
