<?xml version="1.0" encoding="utf-8"?>
<!-- Generator: Adobe Illustrator 19.1.0, SVG Export Plug-In . SVG Version: 6.00 Build 0)  -->
<svg version="1.1" id="emoji" xmlns="http://www.w3.org/2000/svg" xmlns:xlink="http://www.w3.org/1999/xlink" x="0px" y="0px"
	 viewBox="0 0 72 72" enable-background="new 0 0 72 72" xml:space="preserve">
<g id="_xD83D__xDC0E_">
	<path fill="none" stroke="#000000" stroke-width="2" stroke-linecap="round" stroke-linejoin="round" stroke-miterlimit="10" d="
		M16.3,22.6c-0.3,3.6-4.2,3.4-4.2,3.4l-1.6,1.7c-1.3,2.8-4.8,0.8-4.8-1.2c1.5-3.4,3.1-5.8,3.1-5.8c-0.1-2.8,3.3-4.6,3.3-4.6
		l-1.3-1.8c-0.4-0.6-0.1-1.4,0.6-1.5c1.3-0.1,3.6-0.1,4.6,2c0,0,8.9,0.9,14,10.4c0.2,0.4,9.9,2.3,16.1,0.4
		c4.3-1.3,17.1-2.1,17.3,10.5c0.1,6.4-1.3,15.1,3,19.5"/>
	<path fill="none" stroke="#000000" stroke-width="2" stroke-linecap="round" stroke-linejoin="round" stroke-miterlimit="10" d="
		M59.2,37c-0.4,1.6-1.2,3.4-2.6,4.6c0,0,1.1,4.8,3.2,6.8l-2.7,12.2L56,62.6c-0.3,0.6-0.9,0.9-1.5,0.9h0c-1.3,0-2.1-1.3-1.6-2.4
		c1-2.2,2.2-6,2.4-11.3c0,0-7.3-10.2-5.7-15.7"/>
	<path fill="none" stroke="#000000" stroke-width="2" stroke-linecap="round" stroke-linejoin="round" stroke-miterlimit="10" d="
		M17.8,27.5l2.7,5.6c0,0-1.2,6.3,3.3,9.2l2.4,1.6l2.5,9.2l0.9,6.8l-0.5,1.2c-0.4,1.1,0.4,2.3,1.6,2.3h0c0.7,0,1.3-0.4,1.6-1.1l0.7-2
		c0.2-0.7,0.3-1.4,0.2-2.1l-1.3-7.1l-0.2-8.7c0,0,8.1,2.8,14.8-2.4"/>
	<path fill="none" stroke="#000000" stroke-width="2" stroke-linecap="round" stroke-linejoin="round" stroke-miterlimit="10" d="
		M23.5,47.2l0.6,4.4l-1.7,7.3L22,59.8c-0.5,1.2,0.4,2.5,1.7,2.5h0c0.7,0,1.4-0.4,1.7-1.1l0.8-1.8"/>
</g>
</svg>
