<svg id="emoji" viewBox="0 0 72 72" xmlns="http://www.w3.org/2000/svg">
  <g id="line">
    <path fill="none" stroke="#000" stroke-linecap="round" stroke-linejoin="round" stroke-width="2" d="M12.1118,37.5052,9.6868,39.097a2.5683,2.5683,0,0,1-1.41.4213H7.4217A2.5686,2.5686,0,0,1,5.56,38.7189h0a2.5688,2.5688,0,0,1-.6633-2.2384l.8909-4.7966,3.2578-2.51s1.363-5.2538,4.7676-2.6374c3.8838,2.9846-1.7758,5.2236-1.7758,5.2236"/>
    <path fill="none" stroke="#000" stroke-linecap="round" stroke-linejoin="round" stroke-width="2" d="M14.8519,27.6188S20.42,24.9037,23.94,25.4a13.1662,13.1662,0,0,0,4.28-.1869c5.3712-1.018,16.7957-2.6465,22.5624.5368,0,0,8.7736,2.5188,9.787,17.6594a5.0808,5.0808,0,0,0,1.7123,3.5375c1.2438,1.058,4.3018,1.8859,5.0518-2.1974"/>
    <path fill="none" stroke="#000" stroke-linecap="round" stroke-linejoin="round" stroke-width="2" d="M24.2555,37.3332s.9081,5.3808-1.5889,6.9168c-2.7974,1.7208-8.7769,5.4861-8.7769,5.4861s.6949,5.7817-3.7587,3.5413"/>
    <path fill="none" stroke="#000" stroke-linecap="round" stroke-linejoin="round" stroke-width="2" d="M16.7957,33.277s-2.0215,2.6553-.6317,8.7261l-4.414,4.33"/>
    <path fill="none" stroke="#000" stroke-linecap="round" stroke-linejoin="round" stroke-width="2" d="M24.629,42.0031S37.2,41.0824,39.5376,39.9889s3.0907-.9552,3.0907-.9552"/>
    <path fill="none" stroke="#000" stroke-linecap="round" stroke-linejoin="round" stroke-width="2" d="M42.7736,34.5s-1.784,5.1542,3.4593,14.2605l-1.2,5.202a1.86,1.86,0,0,0,1.8124,2.2781h.0024a1.86,1.86,0,0,0,1.7558-1.2463l2.1789-6.2338s-2.6532-4.9632.0632-9.7268,1.9879-7.45,1.9879-7.45"/>
    <path fill="none" stroke="#000" stroke-linecap="round" stroke-linejoin="round" stroke-width="2" d="M49.8724,41.5141s4.0648,5.2765,7.1008,6.7766c2.11,1.0426,1.9436,4.4593,1.9436,4.4593v.173a2,2,0,0,0,2.087,1.9981l.75-.0326a2,2,0,0,0,1.913-1.9981v-.1088"/>
    <path fill="none" stroke="#000" stroke-linecap="round" stroke-linejoin="round" stroke-width="2" d="M24.629,46.7007a18.4946,18.4946,0,0,1,0,6.36h0a1.6658,1.6658,0,0,0,1.4659,2.4572h.41a1.6659,1.6659,0,0,0,1.6107-1.2408l1.0516-4.61-.3853-8.0173"/>
    <path fill="none" stroke="#000" stroke-linecap="round" stroke-linejoin="round" stroke-width="2" d="M26.7967,25.4963s4.0366,3.3371,2.37,12.67"/>
    <path fill="none" stroke="#000" stroke-linecap="round" stroke-linejoin="round" stroke-width="2" d="M33.3883,41.1571s2.2784-6.5738.6227-11.74"/>
    <path fill="none" stroke="#000" stroke-linecap="round" stroke-linejoin="round" stroke-width="2" d="M37.1262,24.0725s2.091,2.5109,2.1744,8.0942"/>
    <path fill="none" stroke="#000" stroke-linecap="round" stroke-linejoin="round" stroke-width="2" d="M43.1546,23.9437S45.5,25.6667,45.3333,30"/>
    <path fill="none" stroke="#000" stroke-linecap="round" stroke-linejoin="round" stroke-width="2" d="M21.5,32.6622a11.9274,11.9274,0,0,0-1.68-6.8562"/>
  </g>
</svg>
