<svg id="emoji" viewBox="0 0 72 72" xmlns="http://www.w3.org/2000/svg">
  <g id="line">
    <path fill="none" stroke="#000" stroke-linecap="round" stroke-linejoin="round" stroke-width="2" d="m30.5646,25.1929l.5192.26s8.4026,3.5753,16.954.7563c0,0,8.1052-2.4752,12.2693,5.5005,2.7067,5.1842.6735,8.54-1.0813,10.2539-1.0828,1.0576-1.6594,2.5275-1.4654,4.0286l.4646,3.5942-.3795,10.9952c-.0372,1.0771-.9211,1.931-1.9988,1.931h-.5794c-1.1966,0-2.1254-1.0437-1.9865-2.2323l.2318-5.4098c.073-1.7043-.3885-3.3889-1.32-4.818l-3.4857-5.3479s-2.8257-5.1567-.5205-8.8008"/>
    <path fill="none" stroke="#000" stroke-linecap="round" stroke-linejoin="round" stroke-width="2" d="m36.0861,46.1265c3.5312.4581,9.2266.9151,11.6542-.4592"/>
    <path fill="none" stroke="#000" stroke-linecap="round" stroke-linejoin="round" stroke-width="2" d="m63.0383,28.9594s3.1975.1375,3.3462,4.813"/>
    <path fill="none" stroke="#000" stroke-linecap="round" stroke-linejoin="round" stroke-width="2" d="m19.5581,18.2215s2.7513-1.3862,3.0487,1.3862c.1487,1.3862-.6784,1.9951-1.3481,2.5483-.9896.8174-3.3808.0229-4.7505-.5393-.4961-.2036-1.0303.234-.912.757.352,1.5559,1.5637,3.7142,4.2163,4.1262,6.4375,1,11.0482-7.7853,4.8764-11.9107-6.7203-4.492-9.7411,2.6815-9.7411,2.6815l-2.7362,1.4439-1.1154,1.5126s-6.0962,1.6336-4.0962,4.9394l1.75,2.25,4.1958.3953c1.136.107,2.0137,1.0444,2.0459,2.185l1.028,4.5431,3.6444,7.767c.504,1.0741,1.4088,1.9079,2.5204,2.3226l2.7982,1.044c.4563,1.1771.7472,2.1251.7472,2.1251l-1.1773,11.0583c-.1258,1.1817.8004,2.2117,1.9888,2.2117h.7429c.9595,0,1.7838-.6814,1.9643-1.6237l2.7706-14.4637c.0701-.3659.0872-.7399.0507-1.1106l-.5399-5.4916"/>
  </g>
</svg>
