<svg id="emoji" viewBox="0 0 72 72" xmlns="http://www.w3.org/2000/svg">
  <g id="line">
    <path fill="none" stroke="#000000" stroke-linecap="round" stroke-linejoin="round" stroke-miterlimit="10" stroke-width="2" d="M30.5646,25.1929l0.5192,0.26c0,0,8.4026,3.5753,16.954,0.7563c0,0,8.1052-2.4752,12.2693,5.5005 c2.7067,5.1842,0.6735,8.54-1.0813,10.2539c-1.0828,1.0576-1.6594,2.5275-1.4654,4.0286l0.4646,3.5942l-0.3795,10.9952 c-0.0372,1.0771-0.9211,1.931-1.9988,1.931h-0.5794c-1.1966,0-2.1254-1.0437-1.9865-2.2323l0.2318-5.4098 c0.073-1.7043-0.3885-3.3889-1.32-4.818l-3.4857-5.3479c0,0-2.8257-5.1567-0.5205-8.8008"/>
    <path fill="none" stroke="#000000" stroke-linecap="round" stroke-linejoin="round" stroke-miterlimit="10" stroke-width="2" d="M36.0861,46.1265c3.5312,0.4581,9.2266,0.9151,11.6542-0.4592"/>
    <path fill="none" stroke="#000000" stroke-linecap="round" stroke-linejoin="round" stroke-miterlimit="10" stroke-width="2" d="M63.0383,28.9594c0,0,3.1975,0.1375,3.3462,4.813"/>
    <path fill="none" stroke="#000000" stroke-linecap="round" stroke-linejoin="round" stroke-miterlimit="10" stroke-width="2" d="M19.5581,18.2215c0,0,2.7513-1.3862,3.0487,1.3862c0.1487,1.3862-0.6784,1.9951-1.3481,2.5483 c-0.9896,0.8174-3.3808,0.0229-4.7505-0.5393c-0.4961-0.2036-1.0303,0.234-0.912,0.757c0.352,1.5559,1.5637,3.7142,4.2163,4.1262 c6.4375,1,11.0482-7.7853,4.8764-11.9107c-6.7203-4.492-9.7411,2.6815-9.7411,2.6815l-2.7362,1.4439l-1.1154,1.5126 c0,0-6.0962,1.6336-4.0962,4.9394l1.75,2.25l4.1958,0.3953c1.136,0.107,2.0137,1.0444,2.0459,2.185l1.028,4.5431l3.6444,7.767 c0.504,1.0741,1.4088,1.9079,2.5204,2.3226l2.7982,1.044c0.4563,1.1771,0.7472,2.1251,0.7472,2.1251L24.5526,58.857 c-0.1258,1.1817,0.8004,2.2117,1.9888,2.2117h0.7429c0.9595,0,1.7838-0.6814,1.9643-1.6237l2.7706-14.4637 c0.0701-0.3659,0.0872-0.7399,0.0507-1.1106L31.53,38.3791"/>
  </g>
</svg>
