<?xml version="1.0" encoding="utf-8"?>
<!-- Generator: Adobe Illustrator 21.1.0, SVG Export Plug-In . SVG Version: 6.00 Build 0)  -->
<svg version="1.1" id="emoji" xmlns="http://www.w3.org/2000/svg" xmlns:xlink="http://www.w3.org/1999/xlink" x="0px" y="0px"
	 viewBox="0 0 72 72" enable-background="new 0 0 72 72" xml:space="preserve">
<g id="_xD83D__xDC05_">
	<path fill="none" stroke="#000000" stroke-width="2" stroke-linecap="round" stroke-linejoin="round" stroke-miterlimit="10" d="
		M12.1,37.5l-2.4,1.6c-0.4,0.3-0.9,0.4-1.4,0.4H7.4c-0.7,0-1.4-0.3-1.9-0.8l0,0c-0.6-0.6-0.8-1.4-0.7-2.2l0.9-4.8L9,29.2
		c0,0,1.4-5.3,4.8-2.6c3.9,3-1.8,5.2-1.8,5.2"/>
	<path fill="none" stroke="#000000" stroke-width="2" stroke-linecap="round" stroke-linejoin="round" stroke-miterlimit="10" d="
		M14.9,27.6c0,0,5.6-2.7,9.1-2.2c1.4,0.2,2.9,0.1,4.3-0.2c5.4-1,16.8-2.6,22.6,0.5c0,0,8.8,2.5,9.8,17.7c0.1,1.4,0.7,2.7,1.7,3.5
		c1.2,1.1,4.3,1.9,5.1-2.2"/>
	<path fill="none" stroke="#000000" stroke-width="2" stroke-linecap="round" stroke-linejoin="round" stroke-miterlimit="10" d="
		M24.3,37.3c0,0,0.9,5.4-1.6,6.9c-2.8,1.7-8.8,5.5-8.8,5.5s0.7,5.8-3.8,3.5"/>
	<path fill="none" stroke="#000000" stroke-width="2" stroke-linecap="round" stroke-linejoin="round" stroke-miterlimit="10" d="
		M16.8,33.3c0,0-2,2.7-0.6,8.7l-4.4,4.3"/>
	<path fill="none" stroke="#000000" stroke-width="2" stroke-linecap="round" stroke-linejoin="round" stroke-miterlimit="10" d="
		M24.6,42c0,0,12.6-0.9,14.9-2c2.3-1.1,2.8-0.9,2.8-0.9"/>
	<path fill="none" stroke="#000000" stroke-width="2" stroke-linecap="round" stroke-linejoin="round" stroke-miterlimit="10" d="
		M42.8,34.5c0,0-1.8,5.2,3.5,14.3L45,54c-0.3,1.2,0.6,2.3,1.8,2.3h0c0.8,0,1.5-0.5,1.8-1.2l2.2-6.2c0,0-2.7-5,0.1-9.7
		c2.7-4.8,2-7.5,2-7.5"/>
	<path fill="none" stroke="#000000" stroke-width="2" stroke-linecap="round" stroke-linejoin="round" stroke-miterlimit="10" d="
		M50.8,42.7c0,0,3.2,4.1,6.2,5.6c2.1,1,1.9,4.5,1.9,4.5v0.2c0,1.1,0.9,2,2.1,2l0.8,0c1.1,0,1.9-0.9,1.9-2v-0.1"/>
	<path fill="none" stroke="#000000" stroke-width="2" stroke-linecap="round" stroke-linejoin="round" stroke-miterlimit="10" d="
		M24.6,46.7c0,0,0.6,2.6,0,6.4l0,0c-0.6,1.1,0.2,2.5,1.5,2.5h0.4c0.8,0,1.4-0.5,1.6-1.2l1.1-4.6L28.8,42"/>
	<path fill="none" stroke="#000000" stroke-width="2" stroke-linecap="round" stroke-linejoin="round" stroke-miterlimit="10" d="
		M26.8,25.5c0,0,4,3.3,2.4,12.7"/>
	<path fill="none" stroke="#000000" stroke-width="2" stroke-linecap="round" stroke-linejoin="round" stroke-miterlimit="10" d="
		M33.4,41.2c0,0,2.3-6.6,0.7-11.8"/>
	<path fill="none" stroke="#000000" stroke-width="2" stroke-linecap="round" stroke-linejoin="round" stroke-miterlimit="10" d="
		M37.1,24.1c0,0,2.1,2.5,2.2,8.1"/>
	<path fill="none" stroke="#000000" stroke-width="2" stroke-linecap="round" stroke-linejoin="round" stroke-miterlimit="10" d="
		M43.1,23.9c0,0,2.4,1.8,2.2,6.1"/>
	<path fill="none" stroke="#000000" stroke-width="2" stroke-linecap="round" stroke-linejoin="round" stroke-miterlimit="10" d="
		M21.5,32.7c0,0,0.4-3.4-1.7-6.9"/>
</g>
</svg>
