<svg id="emoji" viewBox="0 0 72 72" xmlns="http://www.w3.org/2000/svg">
  <g id="line">
    <path fill="none" stroke="#000" stroke-linecap="round" stroke-linejoin="round" stroke-width="2" d="m16.31,22.62c-.264,3.606-4.25,3.438-4.25,3.438l-1.571,1.736c-1.304,2.826-4.804.8261-4.804-1.236,1.508-3.415,3.062-5.75,3.062-5.75-.125-2.792,3.312-4.625,3.312-4.625l-1.278-1.772c-.4364-.5685-.0718-1.388.6417-1.455,1.253-.1186,3.615-.1459,4.574,1.977,0,0,8.865.9329,13.96,10.43.238.4441,9.877,2.308,16.07.4421,4.284-1.29,17.05-2.062,17.28,10.5.1169,6.406-1.252,15.1,2.998,19.52"/>
    <path fill="none" stroke="#000" stroke-linecap="round" stroke-linejoin="round" stroke-width="2" d="m59.19,37.02c-.4424,1.631-1.221,3.426-2.589,4.642,0,0,1.096,4.786,3.172,6.804l-2.71,12.17-1.062,1.927c-.3055.5545-.8885.8989-1.522.8989h0c-1.252,0-2.096-1.276-1.594-2.423.968-2.212,2.16-5.956,2.389-11.3,0,0-6.722-6.584-6.104-12.48"/>
    <path fill="none" stroke="#000" stroke-linecap="round" stroke-linejoin="round" stroke-width="2" d="m17.78,27.49l2.668,5.633s-1.153,6.343,3.287,9.168l2.422,1.557,2.513,9.234.9167,6.833-.4839,1.213c-.4446,1.114.3761,2.325,1.576,2.325h0c.7126,0,1.349-.4454,1.594-1.115l.7465-2.045c.2401-.6576.2986-1.368.1694-2.056l-1.331-7.089-.1597-8.684s7.241,2.141,14.32-.6019"/>
    <path fill="none" stroke="#000" stroke-linecap="round" stroke-linejoin="round" stroke-width="2" d="m23.51,47.21l.6035,4.42-1.74,7.287-.3672.9192c-.482,1.207.4068,2.519,1.706,2.519h0c.7335,0,1.397-.4362,1.687-1.11l.7899-1.831"/>
    <path fill="none" stroke="#000" stroke-linecap="round" stroke-linejoin="round" stroke-width="2" d="m48.9,60.26l-1.452,1.652c-.4179.4755-1.061.6861-1.68.5495h0c-1.223-.2701-1.771-1.698-1.033-2.71,1.422-1.951,3.394-5.35,4.771-10.52,0,0-.9047-2.133-1.716-4.966"/>
  </g>
</svg>
