<?xml version="1.0" encoding="utf-8"?>
<!-- Generator: Adobe Illustrator 19.1.0, SVG Export Plug-In . SVG Version: 6.00 Build 0)  -->
<svg version="1.1" id="emoji" xmlns="http://www.w3.org/2000/svg" xmlns:xlink="http://www.w3.org/1999/xlink" x="0px" y="0px"
	 viewBox="0 0 72 72" enable-background="new 0 0 72 72" xml:space="preserve">
<g id="_xD83D__xDC00__1_">
	<path fill="none" stroke="#000000" stroke-width="2" stroke-linecap="round" stroke-linejoin="round" stroke-miterlimit="10" d="
		M19.9,35.5c-6.8,2.4-9.6-1.2-9.6-1.2c-3.1,0-4.3-2.5-4.7-3.8c-0.2-0.5,0.1-1,0.5-1.2l6.3-2.9c0.9-0.4,1.9-0.7,2.9-0.9l4.2-0.6
		c0,0,5.2-6.5,5.6,0c0,0,0.3,5.7-2.8,4.5"/>
	<path fill="none" stroke="#000000" stroke-width="2" stroke-linecap="round" stroke-linejoin="round" stroke-miterlimit="10" d="
		M32.5,35.1c2.5,3.5,0,11,0,11l-8,7.1c-0.5,0.5-1.2,0.7-1.9,0.5l-0.1,0c-1.3-0.3-1.9-1.7-1.4-2.8c1.5-3,2.8-6.6,2.8-6.6
		c-1.4-0.7-2.2-2.7-2.9-4.8"/>
	<path fill="none" stroke="#000000" stroke-width="2" stroke-linecap="round" stroke-linejoin="round" stroke-miterlimit="10" d="
		M25,24.9c0,0,8,2.9,10.8,1.8c2.8-1,20.3-7.2,29,12.6c6.2,13.9-4,21.4-12.2,20.3c-12.2-1.7-28.8-5.2-42.3,2.2"/>
	<path fill="none" stroke="#000000" stroke-width="2" stroke-linecap="round" stroke-linejoin="round" stroke-miterlimit="10" d="
		M47.4,33.3c0,0-11.9,4.4-6.2,12.9L38.8,51c-0.7,1.3,0.2,3,1.7,3h0.2c0.6,0,5.4-2.4,5.4-2.4s9.2,4.7,14.5-1.7"/>
</g>
</svg>
