<?xml version="1.0" encoding="utf-8"?>
<!-- Generator: Adobe Illustrator 21.1.0, SVG Export Plug-In . SVG Version: 6.00 Build 0)  -->
<svg version="1.1" id="emoji" xmlns="http://www.w3.org/2000/svg" xmlns:xlink="http://www.w3.org/1999/xlink" x="0px" y="0px"
	 viewBox="0 0 72 72" enable-background="new 0 0 72 72" xml:space="preserve">
<g id="_xD83D__xDC01_">
	<path fill="none" stroke="#000000" stroke-width="2" stroke-linecap="round" stroke-linejoin="round" stroke-miterlimit="10" d="
		M53.5,44.9c-0.9,0.8-2,1.5-3.3,2.1c-2.2,0.9-4.7,1.1-7,0.8l-8.9-1.2"/>
	<path fill="none" stroke="#000000" stroke-width="2" stroke-linecap="round" stroke-linejoin="round" stroke-miterlimit="10" d="
		M40,23c2-1,5-2,10,0c3.8,1.5,10,8,7,16c-0.2,0.6-0.4,1.1-0.7,1.6"/>
	<path fill="none" stroke="#000000" stroke-width="2" stroke-linecap="round" stroke-linejoin="round" stroke-miterlimit="10" d="
		M36.6,41.1c-0.5,1.9-4.4,6.6-5.8,8.3c-1.6,2-6.7,0.6-4.9-3.1c0.7-1.5,1.9-2.7,2.2-4.3c0.1-0.4,0.1-0.7,0.1-1"/>
	<path fill="none" stroke="#000000" stroke-width="2" stroke-linecap="round" stroke-linejoin="round" stroke-miterlimit="10" d="
		M22.3,48.7c-0.7-0.7-0.8-2,0.4-3.7c0.6-0.9,2.2-2.7,2.3-4.7c0,0-2.9-0.2-4.2-0.2c-13.8,0-12-5.2-11.9-5.7c0.3-0.9,4-6.6,6.9-8
		c4.4-2.2,9.7-1.6,9.7-1.6C27,19,36,15.1,39.7,23.6C43,31.3,35,34,32,34"/>
	<path fill="none" stroke="#000000" stroke-width="2" stroke-linecap="round" stroke-linejoin="round" stroke-miterlimit="10" d="
		M56.4,40.6c2,0,3.6,3.4,2.6,6.4s-1.8,4-6.2,6.1c-8.7,4.4-19.7,2.2-29.6,0.4c-6.3-1.2-9.2,0.6-10.2,2.5c-1.1,2.2,1.7,5.9,7,4.8"/>
	<path fill="none" stroke="#000000" stroke-width="2" stroke-linecap="round" stroke-linejoin="round" stroke-miterlimit="10" d="
		M22.6,21.2c0.2-0.9,0.5-1.6,0.8-2.2c2.2-3.3,6.8-1.8,7.6,0"/>
</g>
</svg>
