<svg id="emoji" viewBox="0 0 72 72" xmlns="http://www.w3.org/2000/svg">
  <g id="line">
    <path fill="none" stroke="#000" stroke-linecap="round" stroke-linejoin="round" stroke-width="2" d="m12.1118,37.5052l-2.4246,1.5916c-.419.275-.9092.4215-1.4104.4215h-.8551c-.7039-.0001-1.3769-.2891-1.8617-.7994h0c-.567-.5968-.8136-1.4291-.6633-2.2384l.7202-3.8778c.1099-.5916.4343-1.1219.911-1.4892l2.5175-1.9396s1.363-5.2538,4.7676-2.6374c3.8838,2.9846-1.7758,5.2236-1.7758,5.2236"/>
    <path fill="none" stroke="#000" stroke-linecap="round" stroke-linejoin="round" stroke-width="2" d="m14.8519,27.6188s5.5681-2.7151,9.0881-2.2188c1.4273.1718,2.8731.1086,4.28-.1869,5.3712-1.018,16.7957-2.6465,22.5624.5368,0,0,8.7736,2.5188,9.787,17.6594.0731,1.3611.6901,2.6358,1.7123,3.5375,1.2438,1.058,4.3018,1.8859,5.0518-2.1974"/>
    <path fill="none" stroke="#000" stroke-linecap="round" stroke-linejoin="round" stroke-width="2" d="m24.2555,37.3332s.9081,5.3808-1.5889,6.9168c-2.7974,1.7208-8.7769,5.4861-8.7769,5.4861,0,0,.6949,5.7817-3.7587,3.5413"/>
    <path fill="none" stroke="#000" stroke-linecap="round" stroke-linejoin="round" stroke-width="2" d="m16.7957,33.277s-2.0215,2.6553-.6317,8.7261l-4.414,4.33"/>
    <path fill="none" stroke="#000" stroke-linecap="round" stroke-linejoin="round" stroke-width="2" d="m24.629,42.0031s12.571-.9207,14.9086-2.0142,3.0907-.9552,3.0907-.9552"/>
    <path fill="none" stroke="#000" stroke-linecap="round" stroke-linejoin="round" stroke-width="2" d="m42.7736,34.5s-1.784,5.1542,3.4593,14.2605l-1.2,5.202c-.2309,1.001.3933,1.9996,1.3943,2.2305.1371.0316.2774.0476.4181.0476h.0024c.7907,0,1.4949-.4999,1.7558-1.2463l2.1789-6.2338s-2.6532-4.9632.0632-9.7268,1.9879-7.45,1.9879-7.45"/>
    <path fill="none" stroke="#000" stroke-linecap="round" stroke-linejoin="round" stroke-width="2" d="m49.8724,41.5141s4.0648,5.2765,7.1008,6.7766c2.11,1.0426,1.9436,4.4593,1.9436,4.4593v.173c0,1.1046.8954,2,2,2,.029,0,.058-.0006.087-.0019l.75-.0326c1.0697-.0466,1.913-.9274,1.913-1.9981v-.1088"/>
    <path fill="none" stroke="#000" stroke-linecap="round" stroke-linejoin="round" stroke-width="2" d="m24.629,46.7007c.3673,2.1041.3673,4.2559,0,6.36h0c-.4371.8095-.1351,1.8201.6744,2.2572.2432.1313.5152.2.7915.2h.41c.7563,0,1.4177-.5095,1.6107-1.2408l1.0516-4.61-.3853-8.0173"/>
    <path fill="none" stroke="#000" stroke-linecap="round" stroke-linejoin="round" stroke-width="2" d="m26.7967,25.4963s4.0366,3.3371,2.37,12.67"/>
    <path fill="none" stroke="#000" stroke-linecap="round" stroke-linejoin="round" stroke-width="2" d="m33.3883,41.1571s2.2784-6.5738.6227-11.74"/>
    <path fill="none" stroke="#000" stroke-linecap="round" stroke-linejoin="round" stroke-width="2" d="m37.1262,24.0725s2.091,2.5109,2.1744,8.0942"/>
    <path fill="none" stroke="#000" stroke-linecap="round" stroke-linejoin="round" stroke-width="2" d="m43.1546,23.9437s2.3454,1.723,2.1787,6.0563"/>
    <path fill="none" stroke="#000" stroke-linecap="round" stroke-linejoin="round" stroke-width="2" d="m21.5,32.6622c.1446-2.4026-.441-4.7927-1.68-6.8562"/>
  </g>
</svg>
