<svg id="emoji" viewBox="0 0 72 72" xmlns="http://www.w3.org/2000/svg">
  <g id="line">
    <path fill="none" stroke="#000000" stroke-linecap="round" stroke-linejoin="round" stroke-miterlimit="10" stroke-width="2" d="M14.3304,24.5107h6.2586c0.7536,0,1.4984,0.1615,2.1843,0.4735l0.9154,0.4165c1.3718,0.6241,2.8873,0.8609,4.3831,0.6759 c5.4788-0.6773,18.8505-0.9925,23.8963,1.3062c6.9315,3.1578,6.4836,7.3762,7.3482,9.6455 c0.8646,2.2692,2.9583,9.0061,9.6667,8.5999"/>
    <path fill="none" stroke="#000000" stroke-linecap="round" stroke-linejoin="round" stroke-miterlimit="10" stroke-width="2" d="M18.1805,35.1274c0.4163,2.1503,1.4556,4.6774,3.6201,7.4476v11.1514c0,1.1046,0.8954,2,2,2h0.1891 c1.0865,0,1.9746-0.8635,1.9993-1.9497c0.0903-3.9687,1.4782-15.2085,2.4732-16.836c0,0-0.6371-2.5625-1.25-4.25"/>
    <path fill="none" stroke="#000000" stroke-linecap="round" stroke-linejoin="round" stroke-miterlimit="10" stroke-width="2" d="M12.2006,35.0056c0.415,0.6388,1.6554,1.4664,2.4862,1.8528c0.4386,0.204,0.753,0.6061,0.8782,1.0733l1.2429,4.6375 c0,0-7.3532,3.9727-4.451,10.976c0.2972,0.7173,1.0845,1.4253,2.1262,1.5869c1.0894,0.169,3.0014-0.6707,2.3248-2.6707"/>
    <path fill="none" stroke="#000000" stroke-linecap="round" stroke-linejoin="round" stroke-miterlimit="10" stroke-width="2" d="M27.9975,40.6854c0,0,7.5589,2.9477,14.0283-2.9477c0,0,0.1031,1.7447,6.2829,6.0852c0,0,3.7501,2.8987,7.6317,4.7127 l0.5507,5.6552c0.0906,0.9305,1.1792,1.5357,2.1141,1.5357h0c1.0579,0,1.892-0.9006,1.8109-1.9555l-0.615-7.9988 c-0.0424-0.5518-0.4406-0.9553-0.9528-1.1649c-1.3235-0.5416-3.4173-4.1666-4.7819-7.2291l-0.4167-3.316"/>
    <path fill="none" stroke="#000000" stroke-linecap="round" stroke-linejoin="round" stroke-miterlimit="10" stroke-width="2" d="M38.567,40.0831c0,0,1.352,4.1254,6.2702,8.5451l-0.8725,4.0737c-0.2501,1.1677,0.6401,2.2688,1.8343,2.2688h0 c0.7351,0,1.4005-0.426,1.7053-1.0949c0.6068-1.3321,1.3466-3.5208,2.0204-4.5392"/>
    <path fill="none" stroke="#000000" stroke-linecap="round" stroke-linejoin="round" stroke-miterlimit="10" stroke-width="2" d="M13.8249,26.0657c1.7351-2.7653-1.6752-4.625-3.754-2.9065c-1.5286,1.2637-2.3807,1.2238-2.3807,1.2238 c-3.8209,1.0685-3.5524,3.9198-3.5524,3.9198l-1.6985,4.6446c-0.0943,0.3356,0.0237,0.6948,0.2985,0.9092l1.6702,1.3022 c0.5103,0.3978,1.188,0.4859,1.7866,0.2402c1.6796-0.6895,5.3397-2.6848,5.3397-5.6474"/>
    <path fill="none" stroke="#000000" stroke-linecap="round" stroke-linejoin="round" stroke-miterlimit="10" stroke-width="2" d="M21.8006,44.2085c0,0-2.9432,1.5902-4.3161,3.7385"/>
    <path fill="none" stroke="#000000" stroke-linecap="round" stroke-linejoin="round" stroke-miterlimit="10" stroke-width="2" d="M49.1796,35.6907c-0.8284,0-1.5-0.6716-1.5-1.5c0-0.8284,0.6716-1.5,1.5-1.5c0.3365,0,0.6472,0.1108,0.8975,0.298"/>
    <path fill="none" stroke="#000000" stroke-linecap="round" stroke-linejoin="round" stroke-miterlimit="10" stroke-width="2" d="M32.1366,32.2635c-0.8284,0-1.5-0.6716-1.5-1.5s0.6716-1.5,1.5-1.5c0.3365,0,0.6472,0.1108,0.8975,0.298"/>
    <path fill="none" stroke="#000000" stroke-linecap="round" stroke-linejoin="round" stroke-miterlimit="10" stroke-width="2" d="M40.4841,32.8772c-0.6478-0.5164-0.7544-1.4601-0.238-2.1079c0.5164-0.6478,1.4601-0.7544,2.1079-0.238 c0.2632,0.2098,0.437,0.4901,0.5161,0.7924"/>
    <path fill="none" stroke="#000000" stroke-linecap="round" stroke-linejoin="round" stroke-miterlimit="10" stroke-width="2" d="M17.5144,32.1c-0.6478-0.5164-0.7544-1.4601-0.238-2.1079c0.5164-0.6478,1.4601-0.7544,2.1079-0.238 c0.2632,0.2098,0.437,0.4901,0.5161,0.7924"/>
    <path fill="none" stroke="#000000" stroke-linecap="round" stroke-linejoin="round" stroke-miterlimit="10" stroke-width="2" d="M34.3948,35.5775c0.5438-0.6249,1.4913-0.6907,2.1162-0.1468c0.6249,0.5438,0.6907,1.4913,0.1468,2.1162 c-0.2209,0.2539-0.5085,0.4155-0.814,0.4814"/>
    <path fill="none" stroke="#000000" stroke-linecap="round" stroke-linejoin="round" stroke-miterlimit="10" stroke-width="2" d="M22.0056,34.7229c0.5438-0.6249,1.4913-0.6907,2.1162-0.1468c0.6249,0.5438,0.6907,1.4913,0.1468,2.1162 c-0.2209,0.2539-0.5085,0.4155-0.814,0.4814"/>
  </g>
</svg>
