<?xml version="1.0" encoding="utf-8"?>
<!-- Generator: Adobe Illustrator 21.1.0, SVG Export Plug-In . SVG Version: 6.00 Build 0)  -->
<svg version="1.1" id="emoji" xmlns="http://www.w3.org/2000/svg" xmlns:xlink="http://www.w3.org/1999/xlink" x="0px" y="0px"
	 viewBox="0 0 72 72" enable-background="new 0 0 72 72" xml:space="preserve">
<g id="_xD83D__xDC08__xFE0F_">
	<path fill="none" stroke="#000000" stroke-width="2" stroke-linecap="round" stroke-linejoin="round" stroke-miterlimit="10" d="
		M12.5,35.7c-2.3,1-4.9,0.8-4.9,0.8c-1.7,0.1-3.1-4-2.5-4.7l3.3-5.1l-1.8-3.4c0,0,5-1.4,7.9,2.1c0.3,0.4,0.8,0.7,1.3,1
		c0,0,0.1,0,0.1,0c2.6,1.3,5.5,1.6,8.4,1c7.2-1.5,14.1-1.4,21.7,2.2c7.6,3.6,14.8-2.2,13.9-7.5c-0.8-4.6,3.6-7.6,6.8-5"/>
	<path fill="none" stroke="#000000" stroke-width="2" stroke-linecap="round" stroke-linejoin="round" stroke-miterlimit="10" d="
		M16,48.8c0.6-2.2,8.5-3.6,8.5-3.6s3.2-1.2,1.4-4.5"/>
	<path fill="none" stroke="#000000" stroke-width="2" stroke-linecap="round" stroke-linejoin="round" stroke-miterlimit="10" d="
		M18.3,33.2c-1.5,1.8-3.9,4.8-0.4,9.2c0,0-6.8,2.9-6,8c0,0,0.4,2.5,2.4,2.4"/>
	<path fill="none" stroke="#000000" stroke-width="2" stroke-linecap="round" stroke-linejoin="round" stroke-miterlimit="10" d="
		M23.5,50c-1.2,7.3,2.4,6.1,3,5.7c1.1-0.7,1.8-9.9,4-11.3c1.6-1.1,8.2-0.3,8.2-0.3"/>
	<path fill="none" stroke="#000000" stroke-width="2" stroke-linecap="round" stroke-linejoin="round" stroke-miterlimit="10" d="
		M38.4,41.3c0.1,1.7,0.8,3.4,1.7,4.8c0.7,1,1.8,2.3,1.5,3c-4.5,8.5,0.6,7,1.1,6.2c3.2-5.9,6.1-4.1,4.6-10.5c0,0,5.3-1.8,5.5-8"/>
	<path fill="none" stroke="#000000" stroke-width="2" stroke-linecap="round" stroke-linejoin="round" stroke-miterlimit="10" d="
		M48.2,45.6c0,0,2.4,3.2,7.8,2.7c0,0-3.3,6.8,0,7.6c1.9,0.5,4.7-11.2,4.7-11.2S58,42.3,57,40.4"/>
</g>
</svg>
