<svg id="emoji" viewBox="0 0 72 72" xmlns="http://www.w3.org/2000/svg">
  <g id="line">
    <path fill="none" stroke="#000000" stroke-linecap="round" stroke-linejoin="round" stroke-miterlimit="10" stroke-width="2" d="M23.886,35.5323c-2.3651,5.1127-13.2378,1.0229-13.2378,1.0229c-0.5968-0.2704-1.0232-0.816-1.1416-1.4603l-0.3697-2.0127 c-0.0882-0.4801,0.0022-0.976,0.2543-1.394l1.9397-3.2171c0.9308-1.5438,2.2842-2.7888,3.9002-3.5877l3.7161-1.8372 c0,0,3.5476-10.8515,9.3212-11.7558c0,0,4.591,4.6606-3.478,15.0252c0,0,2.0247,1.3871,3.6172,4.0345 c0,0,15.2559-8.8797,24.9028,10.3646c8.946,17.8462-8.3356,16.735-14.2114,15.8977c-1.4891-0.2122-2.836-1.1028-3.4651-2.4691 c-0.6568-1.4264-0.5172-3.1231,3.347-3.6205"/>
    <path fill="none" stroke="#000000" stroke-linecap="round" stroke-linejoin="round" stroke-miterlimit="10" stroke-width="2" d="M15,41.1641c0.3333,2.9167,2.0746,6.1553,6.6667,6.8193c0,0,1.4608,1.8086,0,3.3389c0,0-1.351,1.1679-2.4473,2.2562 C17.9523,54.8362,18.8443,57,20.6295,57h3.8928c0.6864,0,1.3249-0.352,1.6913-0.9325l3.7193-5.8926l1.2571-3.965"/>
    <path fill="none" stroke="#000000" stroke-linecap="round" stroke-linejoin="round" stroke-miterlimit="10" stroke-width="2" d="M59,47.9834c0,0,4.9053-0.1041,3.375,3.8609s-5.0417,3.6322-5.0417,3.6322"/>
    <path fill="none" stroke="#000000" stroke-linecap="round" stroke-linejoin="round" stroke-miterlimit="10" stroke-width="2" d="M16.3125,20.2041c-0.1542-3.0543,0.75-7.2275,4.0259-8.9138c0,0,1.9372-0.233,3.1598,3.1876"/>
  </g>
</svg>
