<svg id="emoji" viewBox="0 0 72 72" xmlns="http://www.w3.org/2000/svg">
  <g id="line">
    <path fill="none" stroke="#000000" stroke-linecap="round" stroke-linejoin="round" stroke-miterlimit="10" stroke-width="2" d="M19.927,36.0341c-6.75,2.4057-9.6365-1.2167-9.6365-1.2167c-3.0683,0-4.2715-2.4868-4.6998-3.8443 c-0.1516-0.4805,0.0785-0.9949,0.5357-1.2065l6.2553-2.895c0.9073-0.4199,1.8704-0.7067,2.8596-0.8514l4.1816-0.6119 c0,0,5.1722-6.4608,5.5874,0.0426c0,0,0.3333,5.6667-2.8199,4.4545"/>
    <path fill="none" stroke="#000000" stroke-linecap="round" stroke-linejoin="round" stroke-miterlimit="10" stroke-width="2" d="M32.499,35.6476c2.4907,3.5284,0,11.0005,0,11.0005l-7.9635,7.0895c-0.4845,0.4893-1.1866,0.6949-1.8585,0.5443l-0.0865-0.0194 c-1.2654-0.2836-1.9277-1.6753-1.3501-2.8363c1.4782-2.9711,2.818-6.6461,2.818-6.6461c-1.4108-0.7054-2.209-2.6946-2.9129-4.8293"/>
    <path fill="none" stroke="#000000" stroke-linecap="round" stroke-linejoin="round" stroke-miterlimit="10" stroke-width="2" d="M10.3333,62.3382c13.5-7.3948,30.1667-3.9632,42.3436-2.2208c8.2188,1.176,18.3582-6.3433,12.1776-20.2726 c-8.7723-19.7705-26.2673-13.6064-29.0347-12.5686c-2.7674,1.0378-10.8095-1.8254-10.8095-1.8254"/>
    <path fill="none" stroke="#000000" stroke-linecap="round" stroke-linejoin="round" stroke-miterlimit="10" stroke-width="2" d="M60.677,50.375c-5.302,6.375-14.5356,1.7219-14.5356,1.7219s-4.7982,2.4447-5.4176,2.4447h-0.1645 c-1.5297,0-2.4931-1.6473-1.7431-2.9805l2.3608-4.777c-5.6878-8.5793,6.2429-12.9353,6.2429-12.9353"/>
  </g>
</svg>
