<svg id="emoji" viewBox="0 0 72 72" xmlns="http://www.w3.org/2000/svg">
  <g id="line">
    <g>
      <path fill="none" stroke="#000" stroke-linecap="round" stroke-miterlimit="10" stroke-width="2" d="M40.82,41.5656c.2106.6231,1.7517,4.7609,1.8826,5.1156a2.2912,2.2912,0,0,1,.1394.8982c-.2637,5.4983-1.66,6.9861-2.0154,7.2784-.0225.0166.0218-.0174,0,0"/>
      <path fill="none" stroke="#000" stroke-linecap="round" stroke-miterlimit="10" stroke-width="2" d="M43.0515,57.6769c3.8735-3.4539,3.5432-13.1761,3.5432-13.1761"/>
      <path fill="none" stroke="#000" stroke-miterlimit="10" stroke-width="2" d="M40.8261,54.8578a2.2214,2.2214,0,0,0-.7423,1.2974,1.8749,1.8749,0,0,0,1.681,1.9961,1.7155,1.7155,0,0,0,1.4565-.6287l.0022.0022"/>
      <path fill="none" stroke="#000" stroke-miterlimit="10" stroke-width="2" d="M29.0794,46.4765l.8961,2.64c1.1916,3.3885.69,4.9745.1641,5.6834l-.6091.529a1.8273,1.8273,0,0,0-.3085,1.8852,1.9989,1.9989,0,0,0,2.6854.8465,2.22,2.22,0,0,0,1.1967-1.2528h0c.0019-.009.0079-.0189.01-.028a1.8022,1.8022,0,0,0,.1024-.6733,69.3265,69.3265,0,0,0,.1615-7.3127,10.11,10.11,0,0,0-.112-2.3047,9.876,9.876,0,0,0-.96-2.9863"/>
      <g>
        <path fill="none" stroke="#000" stroke-linecap="round" stroke-miterlimit="10" stroke-width="2" d="M18.4664,47.75a3.5053,3.5053,0,0,0,.204,2.5082,1.8926,1.8926,0,0,0,2.4356,1.084c.8852-.4056.8639-1.798.56-2.8258"/>
        <path fill="none" stroke="#000" stroke-linecap="round" stroke-miterlimit="10" stroke-width="2" d="M21.6208,48.366A4.5851,4.5851,0,0,1,25.33,46.7541a1.9908,1.9908,0,0,1,.548.083,3.0274,3.0274,0,0,0,3.67-1.3743"/>
        <g>
          <path fill="none" stroke="#000" stroke-linecap="round" stroke-miterlimit="10" stroke-width="2" d="M53.42,33.0552l-.2959,5.6328s-.2094,3.6923.8078,4.5412a7.0925,7.0925,0,0,1,1.2718,4.7532s.5363,5.7576.6973,7.9908"/>
          <path fill="none" stroke="#000" stroke-linecap="round" stroke-miterlimit="10" stroke-width="2" d="M48.4465,23.8236c2.5433-6.4561,5.1809-3.19,5.1809-3.19,3.1773,3.94-.9929,6.3629-2.8305,7.1889a1.7628,1.7628,0,0,1-1.39-.02c-2.5616-1.0291-8.8257.179-8.8257.179-7.8521.7332-9.4782-2.556-9.4782-2.556a48.8236,48.8236,0,0,1-3.0644-7.2278,1.8421,1.8421,0,0,0-1.0479-1.1625,20.7191,20.7191,0,0,0-5.1529-1.0346c-3.1365-.36-3.5144,1.6507-3.5144,1.6507-.532,1.369-1.4378,1.3242-1.4378,1.3242l-1.8637.0069c-2.3112.1289-1.3312,2.5027-1.3312,2.5027-.5857,3.0885,3.0884,3.7274,3.0884,3.7274a4.7691,4.7691,0,0,1,3.1949,1.3313,18.1364,18.1364,0,0,1,2.9287,7.8275c.213,3.6741,1.7347,4.9614,1.7347,4.9614,2.8549,2.7708,0,3.82,0,3.82-4.2084,1.5247-5.75,3.2313-6.1435,4.6061"/>
        </g>
        <path fill="none" stroke="#000" stroke-linecap="round" stroke-miterlimit="10" stroke-width="2" d="M55.9007,55.9732c.1855,1.6659-.9823,2.0907-2.0845,2.0184a1.8925,1.8925,0,0,1-1.88-1.89,9.1155,9.1155,0,0,1,.3381-1.4584"/>
        <path fill="none" stroke="#000" stroke-linecap="round" stroke-miterlimit="10" stroke-width="2" d="M55.9007,55.9732c.0105.1456.02.2772.0266.39"/>
        <path fill="none" stroke="#000" stroke-linecap="round" stroke-miterlimit="10" stroke-width="2" d="M52.125,55.2574c.3731-1.245,1.0885-4.4929-.6282-7.0156a1.726,1.726,0,0,0-.4809-.4666c-1.1305-.742-5.4176-3.6535-7.3255-6.34a1.524,1.524,0,0,0-1.1195-.6229c-2.4893-.2181-10.3347-.4413-13.209,4.982"/>
      </g>
    </g>
  </g>
</svg>
