<svg id="emoji" viewBox="0 0 72 72" xmlns="http://www.w3.org/2000/svg">
  <g id="line">
    <path fill="none" stroke="#000" stroke-linecap="round" stroke-linejoin="round" stroke-width="2" d="m58.4167,34.6667c.6667,1.6979.8506,2.9638.5159,4.5011l-1.1322,5.2009,1.9496,6.1068s.1206,4.7698.0014,8.2786c-.0369,1.087-.9494,1.9752-2.0371,1.9751h-.3531c-1.3464,0-1.9256-1.3248-1.9256-2.6712l-.8522-8.3913s-7.4907-5.4667-6.4583-13.6042"/>
    <path fill="none" stroke="#000" stroke-linecap="round" stroke-linejoin="round" stroke-width="2" d="m33.2655,45.25c3.8333-.2052,11.2345,0,14.9845-2.6875"/>
    <path fill="none" stroke="#000" stroke-linecap="round" stroke-linejoin="round" stroke-width="2" d="m51.3753,12c5.7603,1.5458,8.0746,4.2902,8.6494,7.2047,1.0392,5.269-4.012,9.798-9.2239,8.5024-2.5257-.6278-4.6488-.4429-4.6488-.4429l-18.402-.1392c-1.6875-8.125-6.4473-9.565-6.4473-9.565-.726-4.6648-3.2625-5.4159-4.0605-5.5368-.1336-.0202-.2558.0704-.2751.2041l-.5352,3.7024c-.0784.5421-.4973.9719-1.0372,1.0641l-.59.1008c-.7639.1305-1.4727.4822-2.0386,1.0117l-.894.8364c-.3126.2925-.7119.4754-1.1376.5212l-3.4582.372c-.7613.0819-.9791,2.1238-.6832,2.8301l.6306.8521c.2896.6913.9063,1.1916,1.6425,1.3325l6.4671.7328s-1,13.1667,2.7292,15.1667c8.1309,4.3607,4.4071,16.5216,4.4071,16.5216-.8217,1.4362-.1868,3.4576,1.4679,3.4576h.0015c.7939,0,1.5235-.4367,1.8987-1.1364l2.0998-5.4678,1.3773-9.1448c.1081-.7178-.0364-1.4427-.3653-2.0898-.576-1.1333-1.2539-3.3607-.137-6.5258"/>
    <path fill="none" stroke="#000" stroke-linecap="round" stroke-linejoin="round" stroke-width="2" d="m15.9846,39.0505l-4.3515,6.655c-.3212.4697-.5044,1.03-.5192,1.6187-.044,1.7553-.2547,5.5414,2.9991,7.69.8545.5642,2.4644.6389,3.3141.1114.7175-.4455,1.3028-1.2911.7739-2.8914"/>
    <line x1="20.284" x2="15.875" y1="44.1866" y2="47.2664" fill="none" stroke="#000" stroke-linecap="round" stroke-linejoin="round" stroke-width="2"/>
    <path fill="none" stroke="#000" stroke-linecap="round" stroke-linejoin="round" stroke-width="2" d="m46.1667,47.2664c.4329,1.5669,3.0772,3.003,4.25,3.7336,0,0-.9357,5.3422-1.0698,7.1428-.0484.6505.1869,1.281.5906,1.7322,1.0625,1.1875,2.4301.6653,2.4301.6653"/>
  </g>
</svg>
