<svg id="emoji" viewBox="0 0 72 72" xmlns="http://www.w3.org/2000/svg">
  <g id="line">
    <path fill="none" stroke="#000" stroke-linecap="round" stroke-linejoin="round" stroke-width="2" d="m8.9874,37.6522s2.0168,1.435,4.2662-.1551l3.1083.2228c1.2161.0872,2.411-.3521,3.2811-1.2061l3.2672-3.2067"/>
    <path fill="none" stroke="#000" stroke-linecap="round" stroke-linejoin="round" stroke-width="2" d="m13.5926,33.272c-.862-.6593-1.3426-2.5845-.4667-4.2095"/>
    <path fill="none" stroke="#000" stroke-linecap="round" stroke-linejoin="round" stroke-width="2" d="m15.2316,32.2225c-2.6899,2.3456-8.1684,2.5269-8.1684,2.5269l-.9175-2.4814c1.2128-4.971,10.6373-9.1597,10.6373-9.1597l.8422-2.227c4.6223-3.7209,9.9561-5.1271,16.0675-4.0947,0,0,22.6884,2.9476,27.5312,12.1651,0,0,1.5911,2.3191-2.9684,12.8941l.8349,3.2467-.6967,9.7954c-.0693.9744-.88,1.7295-1.8569,1.7295h-.8575c-1.0976,0-1.957-.9448-1.8533-2.0375l.7712-8.1238-3.6699-4.2393s-2.0681,3.983-9.5452,1.5783"/>
    <path fill="none" stroke="#000" stroke-linecap="round" stroke-linejoin="round" stroke-width="2" d="m23.8161,22.5654l3.7744-1.6828c.4668-.1173.9199.2224.9441.7031.1034,2.0556.2325,7.379-3.8398,7.7668"/>
    <path fill="none" stroke="#000" stroke-linecap="round" stroke-linejoin="round" stroke-width="2" d="m22.2409,38.4064c5.7778,1.9598,6.5262,2.4823,8.5566,4.3669l1.6928,7.755-.4077,4.7893c-.0925,1.0865.7645,2.0195,1.8549,2.0195h.4326c1.0539,0,1.903-.8717,1.8602-1.9248-.1416-3.4875.0316-10.8589,3.5901-14.8514"/>
    <path fill="none" stroke="#000" stroke-linecap="round" stroke-linejoin="round" stroke-width="2" d="m27.6225,45.5745c.4154,1.9173.6969,4.7358-.4188,8.2036-.344,1.0692.4357,2.1677,1.5588,2.1677h.0046"/>
    <path fill="none" stroke="#000" stroke-linecap="round" stroke-linejoin="round" stroke-width="2" d="m64.5713,31.0769c.5566,1.0204,1.515,6.2151-.4484,7.4211-1.9634,1.2059.5892,3.3395.5892,3.3395"/>
  </g>
</svg>
