<svg id="emoji" viewBox="0 0 72 72" version="1.1" xmlns="http://www.w3.org/2000/svg">
  <g id="line">
    <path fill="none" stroke="#000" stroke-linecap="round" stroke-linejoin="round" stroke-miterlimit="10" stroke-width="2" d="m44.46 26.25s4.375-7.25 2.375-8.25-5 1-5 1 2-7-2-7-5 4-5 4-1.457-8.296-7-6c-3.464 1.435-5 5 0 15"/>
    <circle cx="27" cy="39" r="2"/>
    <circle cx="45" cy="39" r="2"/>
    <path fill="none" stroke="#000" stroke-linecap="round" stroke-linejoin="round" stroke-miterlimit="10" stroke-width="2" d="m36.02 43s18-1 0 18c0 0-18-18 0-18z"/>
    <path fill="none" stroke="#000" stroke-linecap="round" stroke-linejoin="round" stroke-miterlimit="10" stroke-width="2" d="m21 35s4-11 15-11 15 11 15 11c15 28-15 29-15 29s-30-1-15-29z"/>
  </g>
</svg>
