<svg id="emoji" viewBox="0 0 72 72" xmlns="http://www.w3.org/2000/svg">
  <g id="line">
    <g>
      <path fill="none" stroke="#000" stroke-linecap="round" stroke-miterlimit="10" stroke-width="2" d="m40.82,41.5656c.2106.6231,1.7517,4.7609,1.8826,5.1156.106.2871.1534.5925.1394.8982-.2637,5.4983-1.66,6.9861-2.0154,7.2784-.0225.0166.0218-.0174,0,0"/>
      <path fill="none" stroke="#000" stroke-linecap="round" stroke-miterlimit="10" stroke-width="2" d="m43.0515,57.6769c3.8735-3.4539,3.5432-13.1761,3.5432-13.1761"/>
      <path fill="none" stroke="#000" stroke-miterlimit="10" stroke-width="2" d="m40.8261,54.8578c-.3899.3337-.6522.7922-.7423,1.2974-.0706,1.0101.6736,1.8938,1.681,1.9961.5591.041,1.1029-.1938,1.4565-.6287l.0022.0022"/>
      <path fill="none" stroke="#000" stroke-miterlimit="10" stroke-width="2" d="m29.0794,46.4765l.8961,2.64c1.1916,3.3885.69,4.9745.1641,5.6834l-.6091.529c-.4493.5203-.5685,1.2488-.3085,1.8852.5108.9717,1.7097,1.3496,2.6854.8465.5521-.2383.9839-.6904,1.1967-1.2528h0c.0019-.009.0079-.0189.01-.028.0766-.2159.1114-.4444.1024-.6733.1825-2.433.2364-4.874.1615-7.3127.0507-.77.0132-1.5433-.112-2.3047-.1589-1.0402-.4829-2.0484-.96-2.9863"/>
      <g>
        <path fill="none" stroke="#000" stroke-linecap="round" stroke-miterlimit="10" stroke-width="2" d="m18.4664,47.75c-.2448.8325-.1721,1.7262.204,2.5082.3765.9688,1.4638,1.4528,2.4356,1.084.8852-.4056.8639-1.798.56-2.8258"/>
        <path fill="none" stroke="#000" stroke-linecap="round" stroke-miterlimit="10" stroke-width="2" d="m21.6208,48.366c.9198-1.083,2.2898-1.6784,3.7092-1.6119.1856.002.3701.0299.548.083,1.3948.5023,2.9482-.0794,3.67-1.3743"/>
        <g>
          <path fill="none" stroke="#000" stroke-linecap="round" stroke-miterlimit="10" stroke-width="2" d="m53.42,33.0552l-.2959,5.6328s-.2094,3.6923.8078,4.5412c.9775,1.3819,1.4286,3.0678,1.2718,4.7532,0,0,.5363,5.7576.6973,7.9908"/>
          <path fill="none" stroke="#000" stroke-linecap="round" stroke-miterlimit="10" stroke-width="2" d="m48.4465,23.8236c2.5433-6.4561,5.1809-3.19,5.1809-3.19,3.1773,3.94-.9929,6.3629-2.8305,7.1889-.4465.184-.949.1768-1.39-.02-2.5616-1.0291-8.8257.179-8.8257.179-7.8521.7332-9.4782-2.556-9.4782-2.556-1.2138-2.3231-2.2386-4.7402-3.0644-7.2278-.1591-.524-.5432-.95-1.0479-1.1625-1.6668-.5622-3.3983-.9099-5.1529-1.0346-3.1365-.36-3.5144,1.6507-3.5144,1.6507-.532,1.369-1.4378,1.3242-1.4378,1.3242l-1.8637.0069c-2.3112.1289-1.3312,2.5027-1.3312,2.5027-.5857,3.0885,3.0884,3.7274,3.0884,3.7274,1.1941.028,2.3342.5031,3.1949,1.3313,1.5723,2.3456,2.5751,5.0259,2.9287,7.8275.213,3.6741,1.7347,4.9614,1.7347,4.9614,2.8549,2.7708,0,3.82,0,3.82-4.2084,1.5247-5.75,3.2313-6.1435,4.6061"/>
        </g>
        <path fill="none" stroke="#000" stroke-linecap="round" stroke-miterlimit="10" stroke-width="2" d="m55.9007,55.9732c.1855,1.6659-.9823,2.0907-2.0845,2.0184-1.0393-.0069-1.8787-.8506-1.88-1.89.0725-.4946.1856-.9824.3381-1.4584"/>
        <path fill="none" stroke="#000" stroke-linecap="round" stroke-miterlimit="10" stroke-width="2" d="m55.9007,55.9732c.0105.1456.02.2772.0266.39"/>
        <path fill="none" stroke="#000" stroke-linecap="round" stroke-miterlimit="10" stroke-width="2" d="m52.125,55.2574c.3731-1.245,1.0885-4.4929-.6282-7.0156-.1283-.1855-.2917-.344-.4809-.4666-1.1305-.742-5.4176-3.6535-7.3255-6.34-.2635-.362-.6729-.5898-1.1195-.6229-2.4893-.2181-10.3347-.4413-13.209,4.982"/>
      </g>
    </g>
  </g>
</svg>
