<?xml version="1.0" encoding="utf-8"?>
<!-- Generator: Adobe Illustrator 21.1.0, SVG Export Plug-In . SVG Version: 6.00 Build 0)  -->
<svg version="1.1" id="emoji" xmlns="http://www.w3.org/2000/svg" xmlns:xlink="http://www.w3.org/1999/xlink" x="0px" y="0px"
	 viewBox="0 0 72 72" enable-background="new 0 0 72 72" xml:space="preserve">
<g id="_xD83D__xDC11__1_">
	<path fill="none" stroke="#000000" stroke-width="2" stroke-linecap="round" stroke-linejoin="round" stroke-miterlimit="10" d="
		M23.1,22.9c0,0,3.7-3.5,6.2-0.9c0,0,4.3-1.9,6.5,0.4c0,0,3.8-1.8,6.1,0.4c0,0,3.5-2.5,6.4,0.2c0,0,4.2-2.5,7.4,0.4
		c0,0,4.6-1,4.6,3.8c0,0,3.8,2.1,1.8,5.8c0,0,1.8,4-1.3,7.5c0,0-0.1,4.8,1.7,7c0.4,0.6,0.6,1.3,0.5,2l-1.3,10.3
		c-0.1,1-1,1.7-1.9,1.7h0c-1.2,0-2.1-1.1-1.9-2.3l0-10.1c0,0-1.5-3.3-3.1-5c0,0-1.8-0.6-3.4-2.6"/>
	<path fill="none" stroke="#000000" stroke-width="2" stroke-linecap="round" stroke-linejoin="round" stroke-miterlimit="10" d="
		M31.6,40.1c1,1.8,0.8,6.3,0.8,6.3v13.1c0,1-0.8,1.8-1.8,1.8h0c-0.9,0-1.7-0.7-1.8-1.6l-0.9-8l-0.6-4.1c-1.6-3.4-4.6-3.6-4.6-3.6
		c-3.5-0.2-2.9-3.8-2.9-3.8c-2.9-0.8-2-4.6-2-4.6c-3.8-0.7-3.1-5.1-3.1-5.1l-2.4-3.8c-1-0.1-2,0-2.8,0.3c-0.5,0.2-1.2,0.4-2,0.4
		c-1.3,0-2.1-0.4-2.5-0.9c-0.7-0.7-0.7-1.8-0.1-2.7l2.7-3.9l2.5-1.9c1.1-0.9,2.5-1.3,3.9-1.3h0.6c0,0,5.6-2.3,5.6,2.3
		c-0.1,4.7-3.6,3.2-3.6,3.2"/>
	<path fill="none" stroke="#000000" stroke-width="2" stroke-linecap="round" stroke-linejoin="round" stroke-miterlimit="10" d="
		M35.3,45.6c0,0,0.9,0.8,2.9-0.1c0.2,0,4.7,2.2,6.4-0.2c0,0,2.3,1.8,4.7-0.3"/>
	<path fill="none" stroke="#000000" stroke-width="2" stroke-linecap="round" stroke-linejoin="round" stroke-miterlimit="10" d="
		M24.3,45.6c-0.1,0.8,0.5,5-0.7,12.9c-0.2,1.2,0.7,2.3,2,2.3"/>
	<path fill="none" stroke="#000000" stroke-width="2" stroke-linecap="round" stroke-linejoin="round" stroke-miterlimit="10" d="
		M64.7,27.4c0.4,0.3,3.9-2.2,1.3,17.5"/>
</g>
</svg>
