<?xml version="1.0" encoding="utf-8"?>
<!-- Generator: Adobe Illustrator 21.1.0, SVG Export Plug-In . SVG Version: 6.00 Build 0)  -->
<svg version="1.1" id="emoji" xmlns="http://www.w3.org/2000/svg" xmlns:xlink="http://www.w3.org/1999/xlink" x="0px" y="0px"
	 viewBox="0 0 72 72" enable-background="new 0 0 72 72" xml:space="preserve">
<g id="_xD83D__xDC15__xFE0F_">
	<path fill="none" stroke="#000000" stroke-width="2" stroke-linecap="round" stroke-linejoin="round" stroke-miterlimit="10" d="
		M58.8,35.9c0.7,1.7,0.9,3,0.5,4.5l-1.1,5.2l1.9,6.1c0,0,0.1,4.8,0,8.3c0,1.1-0.9,2-2,2l-0.4,0c-1.3,0-1.9-1.3-1.9-2.7l-0.9-8.4
		c0,0-7.5-5.5-6.5-13.6"/>
	<path fill="none" stroke="#000000" stroke-width="2" stroke-linecap="round" stroke-linejoin="round" stroke-miterlimit="10" d="
		M33.6,46.5c3.8-0.2,11.2,0,15-2.7"/>
	<path fill="none" stroke="#000000" stroke-width="2" stroke-linecap="round" stroke-linejoin="round" stroke-miterlimit="10" d="
		M51.7,13.2c5.8,1.5,8.1,4.3,8.6,7.2c1,5.3-4,9.8-9.2,8.5c-2.5-0.6-4.6-0.4-4.6-0.4l-18.4-0.1c-1.7-8.1-6.4-9.6-6.4-9.6
		c-0.9-5.6-4.3-5.6-4.3-5.6l-0.7,4.8l-1.5,0.3c-0.8,0.1-1.5,0.5-2.1,1l-1.4,1.3l-4.1,0.4c-0.8,0.1-1.2,0.9-0.9,1.6l0.9,2.1
		c0.3,0.7,0.9,1.2,1.6,1.3l6.5,0.7c0,0-1,13.2,2.7,15.2c8.1,4.4,4.4,16.5,4.4,16.5C22,60,22.6,62,24.3,62h0c0.8,0,1.5-0.4,1.9-1.1
		l2.1-5.5l1.4-9.1c0.1-0.7,0-1.4-0.4-2.1c-0.6-1.1-1.3-3.4-0.1-6.5"/>
	<path fill="none" stroke="#000000" stroke-width="2" stroke-linecap="round" stroke-linejoin="round" stroke-miterlimit="10" d="
		M16.3,40.3L12,47c-0.3,0.5-0.5,1-0.5,1.6c0,1.8-0.3,5.5,3,7.7c0.9,0.6,2.5,0.6,3.3,0.1c0.7-0.4,1.3-1.3,0.8-2.9"/>
	
		<line fill="none" stroke="#000000" stroke-width="2" stroke-linecap="round" stroke-linejoin="round" stroke-miterlimit="10" x1="20.6" y1="45.4" x2="16.2" y2="48.5"/>
	<path fill="none" stroke="#000000" stroke-width="2" stroke-linecap="round" stroke-linejoin="round" stroke-miterlimit="10" d="
		M46.5,48.5c0.4,1.6,3.1,3,4.2,3.7l-1.1,7.1c0,0.7,0.2,1.3,0.6,1.7c1.1,1.2,2.4,0.7,2.4,0.7"/>
</g>
</svg>
