<?xml version="1.0" encoding="utf-8"?>
<!-- Generator: Adobe Illustrator 21.1.0, SVG Export Plug-In . SVG Version: 6.00 Build 0)  -->
<svg version="1.1" id="emoji" xmlns="http://www.w3.org/2000/svg" xmlns:xlink="http://www.w3.org/1999/xlink" x="0px" y="0px"
	 viewBox="0 0 72 72" enable-background="new 0 0 72 72" xml:space="preserve">
<g id="_xD83D__xDC10_">
	<path fill="none" stroke="#000000" stroke-width="2" stroke-linecap="round" stroke-linejoin="round" stroke-miterlimit="10" d="
		M11,31.1c2.2-4.1-0.8-5-0.8-5c-1.7,0.8-2.8-0.3-2.8-0.3c-1.8-1.7,0-3.5,0-3.5c4.1-2.9,4-4,4-4l-1.7-2.7c0,0,2.4-2.3,4.9,1.1
		c0,0,5.9-8.4,12.5-0.6"/>
	<path fill="none" stroke="#000000" stroke-width="2" stroke-linecap="round" stroke-linejoin="round" stroke-miterlimit="10" d="
		M14,25.5c0,0,3.9,0.4,4-3.8"/>
	<path fill="none" stroke="#000000" stroke-width="2" stroke-linecap="round" stroke-linejoin="round" stroke-miterlimit="10" d="
		M18.3,17.4c0,0,2.3,0.3,3.9,3.9c0.8,1.8,4.4,7.5,4.8,7.7c0,0,25.5-5.6,30.6,2.8c0,0,1.7,0.5,2.8-2.3c1.1-2.9,3.6-3.2,3.6-3.2"/>
	<path fill="none" stroke="#000000" stroke-width="2" stroke-linecap="round" stroke-linejoin="round" stroke-miterlimit="10" d="
		M46.4,45.1c-8.9,4.9-15.6-1.4-15.6-1.4l0.5,8.9l0.5,6l-1.7,3.7C30,62.8,29.6,63,29.2,63h-1.5c-0.7,0-1.2-0.8-0.9-1.4l1.2-3
		c0,0-0.1-1.7-0.5-5.4s-2.3-8.7-2.3-8.7c-4.5-2.6-3.8-7.2-3.8-7.2C15.8,33.1,16.1,25,16.1,25"/>
	<path fill="none" stroke="#000000" stroke-width="2" stroke-linecap="round" stroke-linejoin="round" stroke-miterlimit="10" d="
		M48.7,38.9c0,0-5.1,6.4-0.2,12.7c0,0,0.1,5.4-1.8,8.1l-1.2,1.7c-0.4,0.7,0,1.6,0.8,1.6h1.4c0.3,0,0.6-0.1,0.8-0.4
		c0.9-1.1,3.5-4.6,3.5-9.8c0-5.2,1-9,1-9c5.1-4.4,5.3-7.9,5.3-7.9"/>
	<path fill="none" stroke="#000000" stroke-width="2" stroke-linecap="round" stroke-linejoin="round" stroke-miterlimit="10" d="
		M56,46.3c0,0-1.1,3.2,1.4,5.3l-4.2,11.2"/>
</g>
</svg>
