<?xml version="1.0" encoding="utf-8"?>
<!-- Generator: Adobe Illustrator 19.1.0, SVG Export Plug-In . SVG Version: 6.00 Build 0)  -->
<svg version="1.1" id="emoji" xmlns="http://www.w3.org/2000/svg" xmlns:xlink="http://www.w3.org/1999/xlink" x="0px" y="0px"
	 viewBox="0 0 72 72" enable-background="new 0 0 72 72" xml:space="preserve">
<g id="_xD83D__xDC1F__1_">
	<path fill="none" stroke="#000000" stroke-width="2" stroke-linecap="round" stroke-linejoin="round" stroke-miterlimit="10" d="
		M16.1,37.5c0,0-5.1-4.8-4.1-11.1s13.6,1,14.6,6.3c0,0,3.1-5.2,8.4-6.3c0,0-1-5.2,0-8.4c0,0,11.5-4.2,15.7,6.3
		c0,0,11.5,2.1,12.5,11.5l-3.1,2.1l2.7,2.3c0,0-0.1,7-11.9,10.1c0,0-2.4,7.3-10.7,5.3l1-5.2c0,0-6.3,1-14.6-8.4
		c0,0-3.1,9.4-15.7,7.3C11,49.4,10.8,41.2,16.1,37.5z"/>
	<path fill="none" stroke="#000000" stroke-width="2" stroke-linecap="round" stroke-linejoin="round" stroke-miterlimit="10" d="
		M41,31c0,0-6,4-1,11"/>
</g>
</svg>
