<svg id="emoji" viewBox="0 0 72 72" xmlns="http://www.w3.org/2000/svg">
  <g id="line">
    <path fill="none" stroke="#000000" stroke-linecap="round" stroke-linejoin="round" stroke-miterlimit="10" stroke-width="2" d="M58.6667,35.9167c0.6667,1.6979,0.8506,2.9638,0.5159,4.5011l-1.1322,5.2009L60,51.7255c0,0,0.1206,4.7698,0.0014,8.2786 c-0.0369,1.087-0.9494,1.9752-2.0371,1.9751l-0.3531,0c-1.3464,0-1.9256-1.3248-1.9256-2.6712l-0.8522-8.3913 c0,0-7.4907-5.4667-6.4583-13.6042"/>
    <path fill="none" stroke="#000000" stroke-linecap="round" stroke-linejoin="round" stroke-miterlimit="10" stroke-width="2" d="M33.5155,46.5c3.8333-0.2052,11.2345,0,14.9845-2.6875"/>
    <path fill="none" stroke="#000000" stroke-linecap="round" stroke-linejoin="round" stroke-miterlimit="10" stroke-width="2" d="M51.6253,13.25c5.7603,1.5458,8.0746,4.2902,8.6494,7.2047c1.0392,5.269-4.012,9.798-9.2239,8.5024 c-2.5257-0.6278-4.6488-0.4429-4.6488-0.4429L28,28.375c-1.6875-8.125-6.4473-9.565-6.4473-9.565 c-0.8653-5.56-4.3027-5.56-4.3027-5.56l-0.6995,4.8391l-1.4644,0.2501c-0.7843,0.1339-1.5121,0.4951-2.0931,1.0387l-1.3525,1.2654 l-4.1141,0.4425c-0.7613,0.0819-1.229,0.8738-0.9332,1.5801l0.8806,2.1021c0.2896,0.6913,0.9063,1.1916,1.6425,1.3325 l6.4671,0.7328c0,0-1,13.1667,2.7292,15.1667c8.1309,4.3607,4.4071,16.5216,4.4071,16.5216 c-0.8217,1.4362-0.1868,3.4576,1.4679,3.4576h0.0015c0.7939,0,1.5235-0.4367,1.8987-1.1364l2.0998-5.4678l1.3773-9.1449 c0.1081-0.7178-0.0364-1.4427-0.3653-2.0898c-0.576-1.1333-1.2538-3.3607-0.137-6.5257"/>
    <path fill="none" stroke="#000000" stroke-linecap="round" stroke-linejoin="round" stroke-miterlimit="10" stroke-width="2" d="M16.2346,40.3005l-4.3515,6.655c-0.3212,0.4697-0.5044,1.03-0.5192,1.6187c-0.044,1.7553-0.2547,5.5414,2.9991,7.69 c0.8545,0.5642,2.4644,0.6389,3.3141,0.1114c0.7175-0.4455,1.3028-1.2911,0.7739-2.8914"/>
    <line x1="20.534" x2="16.125" y1="45.4366" y2="48.5164" fill="none" stroke="#000000" stroke-linecap="round" stroke-linejoin="round" stroke-miterlimit="10" stroke-width="2"/>
    <path fill="none" stroke="#000000" stroke-linecap="round" stroke-linejoin="round" stroke-miterlimit="10" stroke-width="2" d="M46.4167,48.5164c0.4329,1.5669,3.0772,3.003,4.25,3.7336l-1.0698,7.1428c0,0.6523,0.1869,1.281,0.5906,1.7322 c1.0625,1.1875,2.4301,0.6653,2.4301,0.6653"/>
  </g>
</svg>
