<svg id="emoji" viewBox="0 0 72 72" xmlns="http://www.w3.org/2000/svg">
  <g id="line">
    <path fill="none" stroke="#000" stroke-linecap="round" stroke-linejoin="round" stroke-width="2" d="M15.0017,22.1684c-.5-2.27-.41-3.76.11-4.66.65-1.06,1.87-1.35,3.52-1.12,5.45.88,15.1,7.92,19.94,11.67"/>
    <path fill="none" stroke="#000" stroke-linecap="round" stroke-linejoin="round" stroke-width="2" d="M57.67,30.66l.89-.14a7.237,7.237,0,0,1,2.93-.08l2.3.32,2.45.39"/>
    <path fill="none" stroke="#000" stroke-linecap="round" stroke-linejoin="round" stroke-width="2" d="M38.3672,42.7944l.95,3.0883a3.9745,3.9745,0,0,1,.1584.95v2.4549a3.4747,3.4747,0,0,1-.7127,2.1381L37.1,53.5641"/>
    <path fill="none" stroke="#000" stroke-linecap="round" stroke-linejoin="round" stroke-width="2" d="M48.1866,40.102l.6335,1.8213a4.355,4.355,0,0,1,.1584,1.7422l-.3959,2.6924"/>
    <path fill="none" stroke="#000" stroke-linecap="round" stroke-linejoin="round" stroke-width="2" d="M35.5164,43.27l.1584,5.1473a1.7433,1.7433,0,0,1-.0792.6335l-.5544,3.3259a3.2562,3.2562,0,0,1-1.3462,2.1382l-1.5838,1.1878"/>
    <path fill="none" stroke="#000" stroke-linecap="round" stroke-linejoin="round" stroke-width="2" d="M44.6231,40.7355l.95,2.0589a3.5229,3.5229,0,0,1,0,3.0883l-.7127,1.5046"/>
    <path fill="none" stroke="#000" stroke-linecap="round" stroke-linejoin="round" stroke-width="2" d="M52.78,29.8074l1.1086-1.1087a9.5883,9.5883,0,0,1,4.91-2.7716l6.3351-1.4254"/>
    <path fill="none" stroke="#000" stroke-linecap="round" stroke-linejoin="round" stroke-width="2" d="M23,36.3a23.4709,23.4709,0,0,0-6.81,11.8v.08a2.6883,2.6883,0,0,0-.08.79,3.9248,3.9248,0,0,0,3.96,3.96,1.9881,1.9881,0,0,0,.64-.08A22.0647,22.0647,0,0,0,23,52.54"/>
    <path fill="none" stroke="#000" stroke-linecap="round" stroke-linejoin="round" stroke-width="2" d="M54.28,38.52a6.2729,6.2729,0,0,0,1.35-1.19l.08-.08.08-.08v-.08a7.6549,7.6549,0,0,0,1.98-5.22,6.8938,6.8938,0,0,0-.1-1.21,7.7344,7.7344,0,0,0-1.6-3.69c-.07-.1-.16-.2-.24-.3a7.8346,7.8346,0,0,0-4.79-2.64,6.0051,6.0051,0,0,0-1.19-.08,7.9258,7.9258,0,0,0-5.86,2.61H42.64a7.8857,7.8857,0,0,0-4.07,1.5"/>
    <path fill="none" stroke="#000" stroke-linecap="round" stroke-linejoin="round" stroke-width="2" d="M40.4217,30.8384s-1.24-.55-3.26-1.49a.1421.1421,0,0,1-.06-.02c-.56-.23-1.11-.55-1.74-.79-5.29-2.31-13.82-5.62-20.37-6.37a19.7,19.7,0,0,0-3.63-.12c-3.01.24-5.15,1.42-5.54,4.12-.79,5.7,6.1,8.39,13.3,9.58,1.27.24,2.62.39,3.88.55a93.7575,93.7575,0,0,0,11.33.48"/>
  </g>
</svg>
