<?xml version="1.0" encoding="utf-8"?>
<!-- Generator: Adobe Illustrator 21.1.0, SVG Export Plug-In . SVG Version: 6.00 Build 0)  -->
<svg version="1.1" id="emoji" xmlns="http://www.w3.org/2000/svg" xmlns:xlink="http://www.w3.org/1999/xlink" x="0px" y="0px"
	 viewBox="0 0 72 72" enable-background="new 0 0 72 72" xml:space="preserve">
<g id="_xD83D__xDC18__1_">
	<path fill="none" stroke="#000000" stroke-width="2" stroke-linecap="round" stroke-linejoin="round" stroke-miterlimit="10" d="
		M21.4,46.8c1.3,2.3,0.7,4.2-0.3,5.1c-1.1,1-3.1,1.5-4.5,1.1c-12.6-3.3-3.9-25.2-3.9-25.2c0.6-9.2,8.1-8.9,8.1-8.9s6.9-4.6,11,0.2
		c1.2,1.4,1.8,3.3,1.7,5.2c-0.1,2.9,2.9,7-1.7,10.4c-1.8,1.3-0.9,5.1-4.5,5.6c0,0-5.1,0.5-5.2-7.5"/>
	<path fill="none" stroke="#000000" stroke-width="2" stroke-linecap="round" stroke-linejoin="round" stroke-miterlimit="10" d="
		M25.5,40.7c0,0-0.3,2.5,1.1,12.5l-1.5,2.6c-0.5,0.9,0.1,2,1.1,2.1c1.2,0.1,3.9,0.2,5.3,0c1-0.1,1.8-1,1.7-2c-0.9-7,0.6-11,0.6-11
		c4.7,3.6,11.2,0.2,14.9-0.2c0.7-0.1,2,0.2,2.7,0.3c2.3,0.7,3.9,2.1,3.8,8.6l-1.6,2.6c-0.5,0.9,0.2,2,1.2,2.3
		c1.1,0.2,4.2-0.1,5.1-0.3c1.7-0.4,1.7-2.2,1.8-4c0.2-3.8-0.1-9-0.3-11.7c-0.1-1,0-2,0.1-3c0.4-2.5,3.2-12.5-8.2-19.2
		c-6.6-3.9-13.2,4.2-20.6-0.5"/>
	<path fill="none" stroke="#000000" stroke-width="2" stroke-linecap="round" stroke-linejoin="round" stroke-miterlimit="10" d="
		M18.3,36c0,0,0.2,10.8-13,11.2"/>
	<path fill="none" stroke="#000000" stroke-width="2" stroke-linecap="round" stroke-linejoin="round" stroke-miterlimit="10" d="
		M64.3,29.9c1.1,2.4,1.8,6.2,1.2,12.3"/>
	<path fill="none" stroke="#000000" stroke-width="2" stroke-linecap="round" stroke-linejoin="round" stroke-miterlimit="10" d="
		M48.1,45.5l0.4,4.9c0.1,0.8-0.1,1.5-0.5,2.2l-0.9,1.4c-0.2,0.3-0.4,0.8-0.5,1.4c-0.2,1.4,0.8,2.7,2.2,2.7H50"/>
</g>
</svg>
