<svg id="emoji" viewBox="0 0 72 72" xmlns="http://www.w3.org/2000/svg">
  <g id="line">
    <path fill="none" stroke="#000000" stroke-linecap="round" stroke-linejoin="round" stroke-miterlimit="10" stroke-width="2" d="M8.9874,37.6522c0,0,2.0168,1.435,4.2662-0.1551l3.1083,0.2228c1.2161,0.0872,2.411-0.3521,3.2811-1.2061l3.2672-3.2067"/>
    <path fill="none" stroke="#000000" stroke-linecap="round" stroke-linejoin="round" stroke-miterlimit="10" stroke-width="2" d="M13.5926,33.272c-0.862-0.6593-1.3426-2.5845-0.4667-4.2095"/>
    <path fill="none" stroke="#000000" stroke-linecap="round" stroke-linejoin="round" stroke-miterlimit="10" stroke-width="2" d="M15.2316,32.2225c-2.6899,2.3456-8.1684,2.5269-8.1684,2.5269L6.1457,32.268c1.2128-4.971,8.4793-7.7055,8.4793-7.7055 l2.158-1.4542l0.8422-2.227c4.6223-3.7209,9.9561-5.1271,16.0675-4.0947c0,0,22.6884,2.9476,27.5312,12.1651 c0,0,1.5911,2.3191-2.9684,12.8941l0.8349,3.2467l-0.6967,9.7954c-0.0693,0.9744-0.88,1.7295-1.8569,1.7295h-0.8575 c-1.0976,0-1.957-0.9448-1.8533-2.0375l0.7712-8.1238l-3.6699-4.2393c0,0-2.0681,3.983-9.5452,1.5783"/>
    <path fill="none" stroke="#000000" stroke-linecap="round" stroke-linejoin="round" stroke-miterlimit="10" stroke-width="2" d="M23.8161,22.5654l3.7744-1.6828c0.4668-0.1173,0.9199,0.2224,0.9441,0.7031c0.1034,2.0556,0.2325,7.379-3.8398,7.7668"/>
    <path fill="none" stroke="#000000" stroke-linecap="round" stroke-linejoin="round" stroke-miterlimit="10" stroke-width="2" d="M22.2409,38.6608c1.9649,1.5919,5.4102,4.0457,8.5566,4.1126l1.6928,7.755l-0.4077,4.7893 c-0.0925,1.0865,0.7645,2.0195,1.8549,2.0195h0.4326c1.0539,0,1.903-0.8717,1.8602-1.9248 c-0.1416-3.4875,0.0316-10.8589,3.5901-14.8514"/>
    <path fill="none" stroke="#000000" stroke-linecap="round" stroke-linejoin="round" stroke-miterlimit="10" stroke-width="2" d="M27.6225,45.5745c0.4154,1.9173,0.6969,4.7358-0.4188,8.2036c-0.344,1.0692,0.4357,2.1677,1.5588,2.1677h0.0046"/>
    <path fill="none" stroke="#000000" stroke-linecap="round" stroke-linejoin="round" stroke-miterlimit="10" stroke-width="2" d="M64.5713,31.0769c0.5566,1.0204,1.515,6.2151-0.4484,7.4211c-1.9634,1.2059,0.5892,3.3395,0.5892,3.3395"/>
  </g>
</svg>
