<svg id="emoji" viewBox="0 0 72 72" xmlns="http://www.w3.org/2000/svg">
  <g id="line">
    <path fill="none" stroke="#000" stroke-linecap="round" stroke-linejoin="round" stroke-width="2" d="m53.9008,29.4362s.3861,10.6497,5.0718,18.508c.7719,1.2945.9857,2.845.5091,4.2748l-1.0089,6.0271c-.4317,1.2951.5323,2.6324,1.8974,2.6324h.6841c.9541,0,1.7737-.6695,1.9599-1.6053.5172-2.5994.677-6.9656,1.2605-9.1155.1849-.6812.191-1.3954-.0076-2.0727-.8261-2.8167-1.8679-12.0493-2.322-16.3353-.1508-1.4235-.8862-2.7156-2.0314-3.5745l-1.0701-.8025c-1.7017-1.2762-3.121-2.8906-4.1688-4.7417l-2.1628-5.5865c-.444-.7844-2.2581-1.2395-3.1595-1.2395h-.3451c-.8998,0-1.6965.5809-1.9634,1.4403-.4516,1.4542-1.2495,3.6068-2.2307,4.483-.9657.8624-2.7481.6466-3.9488.3636-.751-.177-1.3395-.7563-1.5449-1.5l-1.0114-3.6626c-.1938-.7016-.7855-1.2189-1.5072-1.3137-1.2267-.1611-3.0349-.2972-3.6196.1894-.9352.7782-1.1679,2.4989-1.855,4.3406-.4818,1.2915-1.3322,2.4161-2.4036,3.2834-3.2174,2.6046-9.5691,7.1672-8.0093,1.1908,1.9527-7.4822-2.7065-8.3939-2.7065-8.3939l-10.9097,2.4317s-2.9663,1.3675-2.0011,3.9272c.2437.6463.9539.9947,1.6281.8445l1.9895-.4434s2.9721,1.9197,6.4433.5898"/>
    <path fill="none" stroke="#000" stroke-linecap="round" stroke-linejoin="round" stroke-width="2" d="m52.7306,43.9293l.4361,2.032c.7287,3.372-2.6369,10.8199-2.6369,10.8199-.8457,2.5328,2.3321,3.4344,2.3321,3.4344"/>
    <path fill="none" stroke="#000" stroke-linecap="round" stroke-linejoin="round" stroke-width="2" d="m13.3333,27.1667s-1.0833,8.3333,5.6674,10.7822c0,0,2.9065.9491,5.4608.0676,1.8282-.6309,3.8605.1503,4.5926,1.9403l.0336.0822c.1266.3166.9242,5.0557,1.3963,7.9009.2323,1.4001.2718,2.8237.1169,4.2344l-.6907,6.2911c-.1291,1.1763.7857,2.2069,1.969,2.2182l.8697.0083c1.112.0106,2.019-.8879,2.019-1.9999v-10.0201s-.6823-7.2699,1.7713-11.4501"/>
    <path fill="none" stroke="#000" stroke-linecap="round" stroke-linejoin="round" stroke-width="2" d="m38.6925,41.6541c1.9873.5976,8.1435,1.6459,12.0039-.9791,0,0,2.7671-1.8256,4.5016-1.4871"/>
    <path fill="none" stroke="#000" stroke-linecap="round" stroke-linejoin="round" stroke-width="2" d="m64.7709,31.9016c.3553.1099,1.7422,1.9992,1.82,10.5699"/>
  </g>
</svg>
