<svg id="emoji" viewBox="0 0 72 72" xmlns="http://www.w3.org/2000/svg">
  <g id="line">
    <path fill="none" stroke="#000000" stroke-linecap="round" stroke-linejoin="round" stroke-miterlimit="10" stroke-width="2" d="M13,20c0,0,35.5-12.25,44.75,14.375C57.75,34.375,59,39,64,38c0,0-2,2,0,3c0,0-4.5-1-6.75,2.5S56,54,41,60l2-3c0,0-7,3-14,1 c0,0,3.5-5.5,1.25-8.75S30,44,30,44s-4,9-8,8c0,0,2.5-7.5,0.25-11.25S15,30,16,30s8,1,12,5c0,0,2-5.5,2.5-8.25S32,18,13,20z"/>
    <path fill="none" stroke="#000000" stroke-linecap="round" stroke-linejoin="round" stroke-miterlimit="10" stroke-width="2" d="M48,39c0,0-4-12-7-9s-1.625,9-0.8125,9c0.8125,0,0.0784,1.1858,4.9455,2.0929"/>
    <path fill="none" stroke="#000000" stroke-linecap="round" stroke-linejoin="round" stroke-miterlimit="10" stroke-width="2" d="M33.5728,18.0089c0,0,14.5212,21.521-3.1188,39.4397"/>
    <path fill="none" stroke="#000000" stroke-linecap="round" stroke-linejoin="round" stroke-miterlimit="10" stroke-width="2" d="M44.6143,20.008c0,0,14.4982,20.413-3.1602,37.4406"/>
    <path fill="none" stroke="#000000" stroke-linecap="round" stroke-linejoin="round" stroke-miterlimit="10" stroke-width="2" d="M54.0669,50.5597c0,0,3.3113-14.2907-0.8778-24.4252"/>
    <path fill="none" stroke="#000000" stroke-linecap="round" stroke-linejoin="round" stroke-miterlimit="10" stroke-width="2" d="M20.7477,31.0566c0,0,8.1468,5.7402,5.4763,18.8863"/>
  </g>
</svg>
