<?xml version="1.0" encoding="utf-8"?>
<!-- Generator: Adobe Illustrator 21.1.0, SVG Export Plug-In . SVG Version: 6.00 Build 0)  -->
<svg version="1.1" id="emoji" xmlns="http://www.w3.org/2000/svg" xmlns:xlink="http://www.w3.org/1999/xlink" x="0px" y="0px"
	 viewBox="0 0 72 72" enable-background="new 0 0 72 72" xml:space="preserve">
<g id="_xD83D__xDC24__2_">
	<path fill="none" stroke="#000000" stroke-width="2" stroke-linecap="round" stroke-linejoin="round" stroke-miterlimit="10" d="
		M52,51.9c11-8.9,1.8-17.7,1.8-17.7c0-13.1-10-17.5-15.3-18.9c-1.9-0.5-4-0.5-5.9,0.1c-15.5,4.5-14.3,18.8-14.3,18.8
		C10,44,19.4,51.5,19.4,51.5S36,66.1,52,51.9"/>
	
		<line fill="none" stroke="#000000" stroke-width="2" stroke-linecap="round" stroke-linejoin="round" stroke-miterlimit="10" x1="31.4" y1="15.6" x2="27" y2="12.3"/>
	
		<line fill="none" stroke="#000000" stroke-width="2" stroke-linecap="round" stroke-linejoin="round" stroke-miterlimit="10" x1="34.1" y1="14.5" x2="32.3" y2="10.7"/>
	
		<line fill="none" stroke="#000000" stroke-width="2" stroke-linecap="round" stroke-linejoin="round" stroke-miterlimit="10" x1="37.6" y1="15.2" x2="37.8" y2="9.4"/>
	<circle cx="29" cy="32.4" r="3"/>
	<circle cx="44" cy="32" r="3"/>
	<path fill="none" stroke="#000000" stroke-width="2" stroke-linecap="round" stroke-linejoin="round" stroke-miterlimit="10" d="
		M36.7,38.8c0,0,10.5-0.5,0,9.3C36.7,48.1,26.2,38.8,36.7,38.8z"/>
</g>
</svg>
