<?xml version="1.0" encoding="utf-8"?>
<!-- Generator: Adobe Illustrator 21.1.0, SVG Export Plug-In . SVG Version: 6.00 Build 0)  -->
<svg version="1.1" id="emoji" xmlns="http://www.w3.org/2000/svg" xmlns:xlink="http://www.w3.org/1999/xlink" x="0px" y="0px"
	 viewBox="0 0 72 72" enable-background="new 0 0 72 72" xml:space="preserve">
<g id="_xD83D__xDC2D__1_">
	<circle cx="26.8" cy="38.6" r="3"/>
	<path d="M34.4,50.3c1.4-0.3,3.1-0.4,5-0.2c1.8,0.2,2.6,1.9,1.5,3L39,55c-0.9,0.9-2.7,1-3.8,0.1l-2-1.7C32,52.3,32.6,50.6,34.4,50.3
		z"/>
	
		<line fill="none" stroke="#000000" stroke-width="2" stroke-linecap="round" stroke-linejoin="round" stroke-miterlimit="10" x1="37" y1="54.5" x2="37" y2="57.5"/>
	<path fill="none" stroke="#000000" stroke-width="2" stroke-linecap="round" stroke-linejoin="round" stroke-miterlimit="10" d="
		M42.1,59.9l10.4-4.5C63,50,57.8,34.8,57.8,34.8c4.4-1.8,6.8-6.1,6.8-6.1C71,16.3,64.4,11.9,61,10.5c-1.1-0.4-2.3-0.2-3.1,0.6
		l-8.3,7.7c-8.4-4.9-16.7-4.9-25.1,0l-8.3-7.7c-0.8-0.8-2-1.1-3.1-0.6c-3.5,1.4-10,5.8-3.7,18.2c0,0,2.4,4.3,6.8,6.1
		c0,0-5.2,15.2,5.3,20.7l10.4,4.5C34.7,62.5,39.3,62.5,42.1,59.9z"/>
	<path fill="none" stroke="#000000" stroke-width="2" stroke-linecap="round" stroke-linejoin="round" stroke-miterlimit="10" d="
		M13.5,14.7c0,0,8.1,3.9,5.2,16.5"/>
	<circle cx="47.2" cy="38.6" r="3"/>
	<path fill="none" stroke="#000000" stroke-width="2" stroke-linecap="round" stroke-linejoin="round" stroke-miterlimit="10" d="
		M60.5,14.7c0,0-8.1,3.9-5.2,16.5"/>
</g>
</svg>
