<?xml version="1.0" encoding="utf-8"?>
<!-- Generator: Adobe Illustrator 19.1.0, SVG Export Plug-In . SVG Version: 6.00 Build 0)  -->
<svg version="1.1" id="emoji" xmlns="http://www.w3.org/2000/svg" xmlns:xlink="http://www.w3.org/1999/xlink" x="0px" y="0px"
	 viewBox="0 0 72 72" enable-background="new 0 0 72 72" xml:space="preserve">
<g id="_xD83D__xDC23__1_">
	<path fill="none" stroke="#000000" stroke-width="2" stroke-linecap="round" stroke-linejoin="round" stroke-miterlimit="10" d="
		M49.8,33.4c0-2.6-0.8-5.9-3-9.9c0,0-2.8-7.8-10.7-7.8c-2.2,0-4,0.5-5.5,1.3c-3.8,1.9-5.4,5.5-5.9,6.6c-0.3,0.7-3.1,5.3-3.1,10"/>
	<path fill="none" stroke="#000000" stroke-width="2" stroke-linecap="round" stroke-linejoin="round" stroke-miterlimit="10" d="
		M35.4,30.6c0,0,5.9-0.3,0,5.2C35.4,35.8,29.4,30.6,35.4,30.6z"/>
	<circle cx="30.9" cy="26.4" r="2.4"/>
	<circle cx="40.4" cy="26.4" r="2.4"/>
	
		<line fill="none" stroke="#000000" stroke-width="2" stroke-linecap="round" stroke-linejoin="round" stroke-miterlimit="10" x1="34.8" y1="15.9" x2="33.4" y2="9.8"/>
	
		<line fill="none" stroke="#000000" stroke-width="2" stroke-linecap="round" stroke-linejoin="round" stroke-miterlimit="10" x1="36.8" y1="15.7" x2="36.8" y2="12.2"/>
	
		<line fill="none" stroke="#000000" stroke-width="2" stroke-linecap="round" stroke-linejoin="round" stroke-miterlimit="10" x1="39" y1="15.9" x2="40.4" y2="9.8"/>
	<path fill="none" stroke="#000000" stroke-width="2" stroke-linecap="round" stroke-linejoin="round" stroke-miterlimit="10" d="
		M1.3,35.8"/>
	
		<path fill="#FFFFFF" stroke="#000000" stroke-width="2" stroke-linecap="round" stroke-linejoin="round" stroke-miterlimit="10" d="
		M61.7,38c0,14.4-11.7,26-26,26s-26-11.7-26-26l7.4,3.7l6.5-4.7l8.4,5.6l6.2-5.6l8.2,4.7l7-5.7L61.7,38z"/>
</g>
</svg>
