<svg id="emoji" viewBox="0 0 72 72" xmlns="http://www.w3.org/2000/svg">
  <g id="line">
    <ellipse cx="30.3187" cy="22.5734" rx="2.168" ry="3.1245" transform="translate(-3.5323 5.7541) rotate(-10.2479)" fill="none" stroke="#000" stroke-miterlimit="9.9995" stroke-width="1.9999"/>
    <path fill="none" stroke="#000" stroke-linecap="round" stroke-linejoin="round" stroke-width="2" d="m29.718,29.8718c3.0586-.2054,7.1509-1.8162,8.3837-3.5592s.6715-4.8163.6715-4.8163c4.1661-.085,3.8936-3.1148,3.9398-6.6981.0466-3.6123-4.2196-3.3423-4.2196-3.3423-1.8815-.085-4.8601,2.3639-4.8601,2.3639-5.3989-.6802-9.1055,1.5278-9.1905,1.6554,0,0-2.0885-2.0015-4.2053-1.5048,0,0-5.2238,1.059-2.935,6.0958,2.5587,5.631,5.0901,3.718,5.0901,3.718,0,0,.9305,6.5171,7.3254,6.0876Z"/>
    <path fill="none" stroke="#000" stroke-linecap="round" stroke-linejoin="round" stroke-width="2" d="m33.1316,32.1828c-.085.2551-4.1642,2.4082-1.8115,10.179l-2.113,6.1217c-.5557,1.6099-.7898,3.3132-.6889,5.0133l.0818,1.3795c.116,1.9558.952,3.8854,2.5426,5.0294,4.1465,2.9821,6.2598-1.6811,6.7751-2.7554.6364-1.327-.4461-3.0488-2.177-2.6161"/>
    <path fill="none" stroke="#000" stroke-linecap="round" stroke-linejoin="round" stroke-width="2" d="m40.3193,33.2218l.7242,3.5918c.2186,1.0842.0441,2.2108-.4923,3.1781l-2.0778,3.7471"/>
    <path fill="none" stroke="#000" stroke-linecap="round" stroke-linejoin="round" stroke-width="2" d="m46.8791,50.0563s-9.0974-5.739-12.4558-.2551c-.7194,1.1747-1.0896,2.2557-1.2273,3.2293"/>
    <path fill="none" stroke="#000" stroke-linecap="round" stroke-linejoin="round" stroke-width="2" d="m27.0359,29.8718s-5.5566,8.1245-.1749,15.6562"/>
    <path fill="none" stroke="#000" stroke-linecap="round" stroke-linejoin="round" stroke-width="2" d="m40.0383,60.9139c-1.3177.143-2.7591.0637-4.2978-.3655"/>
    <path fill="none" stroke="#000" stroke-linecap="round" stroke-linejoin="round" stroke-width="2" d="m42,24.8333c2.4884.7826,3.621,2.0388,4.8791,5.0588,7.7875,8.5881,7.9542,20.1068,1.3604,26.7534,0,0-3.2138,3.7271-8.2012,4.2684"/>
  </g>
</svg>
