<svg id="emoji" viewBox="0 0 72 72" xmlns="http://www.w3.org/2000/svg">
  <g id="line">
    <path fill="none" stroke="#000000" stroke-linecap="round" stroke-linejoin="round" stroke-miterlimit="10" stroke-width="2" d="M53.8054,29.2249c0,0,0.3861,10.6497,5.0718,18.508c0.7719,1.2945,0.9857,2.845,0.5091,4.2748l-1.0089,6.0271 c-0.4317,1.2951,0.5323,2.6324,1.8974,2.6324l0.6841,0c0.9541,0,1.7737-0.6695,1.9599-1.6053 c0.5172-2.5994,0.677-6.9656,1.2605-9.1155c0.1849-0.6812,0.191-1.3954-0.0076-2.0727c-0.8261-2.8167-1.8679-12.0493-2.322-16.3353 c-0.1508-1.4235-0.8862-2.7156-2.0314-3.5745l-1.0701-0.8025c-1.7017-1.2762-3.121-2.8906-4.1688-4.7417l-2.1628-5.5865 c-0.444-0.7844-2.2581-1.2395-3.1595-1.2395h-0.3451c-0.8998,0-1.6965,0.5809-1.9634,1.4403 c-0.4516,1.4542-1.2495,3.6068-2.2307,4.483c-0.9657,0.8624-2.7481,0.6466-3.9488,0.3636c-0.751-0.177-1.3395-0.7563-1.5449-1.5 l-1.0114-3.6626c-0.1938-0.7016-0.7855-1.2189-1.5072-1.3137c-1.2267-0.1611-3.0349-0.2972-3.6196,0.1894 c-0.9352,0.7782-1.1679,2.4989-1.855,4.3406c-0.4818,1.2915-1.3322,2.4161-2.4036,3.2834 c-3.2174,2.6046-9.5691,7.1672-8.0093,1.1908c1.9527-7.4822-2.7065-8.3939-2.7065-8.3939L7.2019,18.4463 c0,0-2.9663,1.3675-2.0011,3.9272c0.2437,0.6463,0.9539,0.9947,1.6281,0.8445l1.9895-0.4434c0,0,2.9721,1.9197,6.4433,0.5898"/>
    <path fill="none" stroke="#000000" stroke-linecap="round" stroke-linejoin="round" stroke-miterlimit="10" stroke-width="2" d="M52.7306,43.9293l0.4361,2.032c0.7287,3.372-2.6369,10.8199-2.6369,10.8199c-0.8145,1.2694,0.0158,2.9493,1.5189,3.0732 l1.8466,0.1146"/>
    <path fill="none" stroke="#000000" stroke-linecap="round" stroke-linejoin="round" stroke-miterlimit="10" stroke-width="2" d="M13.3333,27.1667c0,0-1.0833,8.3333,5.6674,10.7822c0,0,2.9065,0.9491,5.4608,0.0676c1.8282-0.6309,3.8605,0.1503,4.5926,1.9403 l0.0336,0.0822c0.1266,0.3166,0.9242,5.0557,1.3963,7.9009c0.2323,1.4001,0.2718,2.8237,0.1169,4.2344l-0.6907,6.2911 c-0.1291,1.1763,0.7857,2.2069,1.969,2.2182l0.8697,0.0083c1.112,0.0106,2.019-0.8879,2.019-1.9999V48.6719 c0,0-0.6823-7.2699,1.7713-11.4501"/>
    <path fill="none" stroke="#000000" stroke-linecap="round" stroke-linejoin="round" stroke-miterlimit="10" stroke-width="2" d="M38.6925,41.6541c1.9873,0.5976,8.1435,1.6459,12.0039-0.9791c0,0,2.7671-1.8256,4.5016-1.4871"/>
    <path fill="none" stroke="#000000" stroke-linecap="round" stroke-linejoin="round" stroke-miterlimit="10" stroke-width="2" d="M64.7709,31.9016c0.3553,0.1099,1.7422,1.9992,1.82,10.5699"/>
  </g>
</svg>
