<svg id="emoji" viewBox="0 0 72 72" xmlns="http://www.w3.org/2000/svg">
  <g id="line">
    <path fill="none" stroke="#000" stroke-linecap="round" stroke-linejoin="round" stroke-width="2" d="m23,49s4.7974,5.0246,13.48,5.0122c8.52-.0122,12.52-5.0122,12.52-5.0122"/>
    <line x1="33.625" x2="31.125" y1="13.5" y2="11.625" fill="none" stroke="#000" stroke-linecap="round" stroke-linejoin="round" stroke-width="2"/>
    <line x1="35.125" x2="34.125" y1="12.875" y2="10.75" fill="none" stroke="#000" stroke-linecap="round" stroke-linejoin="round" stroke-width="2"/>
    <line x1="37.125" x2="37.25" y1="13.25" y2="10" fill="none" stroke="#000" stroke-linecap="round" stroke-linejoin="round" stroke-width="2"/>
    <polyline fill="none" stroke="#000" stroke-linecap="round" stroke-linejoin="round" stroke-width="2" points="31.5958 53.7306 30.625 58.25 27.5 60"/>
    <line x1="33.5" x2="30.625" y1="59" y2="58.25" fill="none" stroke="#000" stroke-linecap="round" stroke-linejoin="round" stroke-width="2"/>
    <polyline fill="none" stroke="#000" stroke-linecap="round" stroke-linejoin="round" stroke-width="2" points="39.9042 53.7306 40.875 58.25 44 60"/>
    <line x1="38" x2="40.875" y1="59" y2="58.25" fill="none" stroke="#000" stroke-linecap="round" stroke-linejoin="round" stroke-width="2"/>
    <circle cx="32.25" cy="23" r="2"/>
    <circle cx="40.25" cy="23" r="2"/>
    <path fill="none" stroke="#000" stroke-linecap="round" stroke-linejoin="round" stroke-width="2" d="m36.3719,26.6032s5.9132-.2907,0,5.2324c0,0-5.9132-5.2324,0-5.2324Z"/>
    <path fill="none" stroke="#000" stroke-linecap="round" stroke-linejoin="round" stroke-width="2" d="m42,36c2,9,9,9,9,9,2-6-6-11-6-11,7-6,1-10,1-10,0-10-10.375-11-10.375-11-10.375,2-9.625,11-9.625,11-6,4,.625,9.75.625,9.75,0,0-7.625,4.25-5.625,11.25,0,0,8,0,8-9"/>
  </g>
</svg>
