<svg id="emoji" viewBox="0 0 72 72" xmlns="http://www.w3.org/2000/svg">
  <g id="line">
    <path d="m47.3393,34.6182s.0607,2.3422-1.2037,3.1596c-1.2644.8174-3.3752-.1996-3.3752-.1996,0,0-.0607-2.3422,1.2037-3.1596s3.3752.1996,3.3752.1996Z"/>
    <path d="m25.9305,34.6182s-.0607,2.3422,1.2037,3.1596c1.2644.8174,3.3752-.1996,3.3752-.1996,0,0,.0607-2.3422-1.2037-3.1596s-3.3752.1996-3.3752.1996Z"/>
    <path fill="none" stroke="#000" stroke-linecap="round" stroke-linejoin="round" stroke-width="2" d="m24.1981,47.3666s-1.6667,12.7083,11.9583,7.5833v-3.3438"/>
    <path fill="none" stroke="#000" stroke-linecap="round" stroke-linejoin="round" stroke-width="2" d="m21.2398,28.4916c-.1667.3333-4.6667,9.1667.9167,16.25"/>
    <path fill="none" stroke="#000" stroke-linecap="round" stroke-linejoin="round" stroke-width="2" d="m22.1549,23.2401c-4.6652,2.7745-12.117,9.7821-5.2485,24.1265"/>
    <path fill="none" stroke="#000" stroke-linecap="round" stroke-linejoin="round" stroke-width="2" d="m27.3231,48.9916s-11.1667.75-12.75,6.8333"/>
    <path fill="none" stroke="#000" stroke-linecap="round" stroke-linejoin="round" stroke-width="2" d="m28.9064,52.1582c-.25.1667-10.3333,5.75-8.5833,10.6667"/>
    <path fill="none" stroke="#000" stroke-linecap="round" stroke-linejoin="round" stroke-width="2" d="m29.5766,59.1521c1.9799,2.0495,7.4123,6.3778,13.517.1296"/>
    <path fill="none" stroke="#000" stroke-linecap="round" stroke-linejoin="round" stroke-width="2" d="m17.4898,22.3249c-7.9284-9.061-3.0759-11.6581-.2234-12.8765.9417-.4022,2.0253-.2705,2.8642.3168l5.7994,6.0597s9.3237-6.3941,20.14,0l5.7994-6.0597c.8389-.5872,1.9225-.719,2.8642-.3168,2.9293,1.3038,7.705,3.8155-.2234,12.8765"/>
    <path fill="none" stroke="#000" stroke-linecap="round" stroke-linejoin="round" stroke-width="2" d="m40.7186,47.7416s1,2.875-3.4167,3.625h-2.6038c-4.4167-.75-3.4167-3.625-3.4167-3.625"/>
    <path fill="none" stroke="#000" stroke-linecap="round" stroke-linejoin="round" stroke-width="2" d="m47.8019,47.3666s1.6667,12.7083-11.9583,7.5833v-3.5833"/>
    <path fill="none" stroke="#000" stroke-linecap="round" stroke-linejoin="round" stroke-width="2" d="m50.7602,28.4916c.1667.3333,4.6667,9.1667-.9167,16.25"/>
    <path fill="none" stroke="#000" stroke-linecap="round" stroke-linejoin="round" stroke-width="2" d="m49.8832,23.2628c4.6675,2.7899,12.0602,9.7983,5.2104,24.1037"/>
    <path fill="none" stroke="#000" stroke-linecap="round" stroke-linejoin="round" stroke-width="2" d="m44.6769,48.9916s11.1667.75,12.75,6.8333"/>
    <path fill="none" stroke="#000" stroke-linecap="round" stroke-linejoin="round" stroke-width="2" d="m43.0936,52.1582c.25.1667,10.3333,5.75,8.5833,10.6667"/>
    <path fill="none" stroke="#000" stroke-linecap="round" stroke-linejoin="round" stroke-width="2" d="m29.5766,24.1069s7.0776-3.3333,13.1833.4167"/>
    <path fill="none" stroke="#000" stroke-linecap="round" stroke-linejoin="round" stroke-width="2" d="m31.5208,29.2864s4.9901-3.3333,9.2949.4167"/>
  </g>
</svg>
