<svg id="emoji" viewBox="0 0 72 72" xmlns="http://www.w3.org/2000/svg">
  <g id="line">
    <path fill="none" stroke="#000" stroke-linecap="round" stroke-linejoin="round" stroke-width="2" d="m13,20s35.5-12.25,44.75,14.375c0,0,1.25,4.625,6.25,3.625,0,0-2,2,0,3,0,0-4.5-1-6.75,2.5s-1.25,10.5-16.25,16.5h0c.6448-.9672-.219-2.2288-1.3514-1.9661-2.6933.6246-6.671,1.1026-10.6487-.0339,0,0,3.5-5.5,1.25-8.75s-.25-5.25-.25-5.25c0,0-4,9-8,8,0,0,2.5-7.5.25-11.25s-7.25-10.75-6.25-10.75,8,1,12,5c0,0,2-5.5,2.5-8.25s1.5-8.75-17.5-6.75Z"/>
    <path fill="none" stroke="#000" stroke-linecap="round" stroke-linejoin="round" stroke-width="2" d="m48,39s-4-12-7-9-1.8069,7.45-.7042,9.5144c.3465.6487-.0299.6714,4.8372,1.5785"/>
    <path fill="none" stroke="#000" stroke-linecap="round" stroke-linejoin="round" stroke-width="2" d="m33.5728,18.0089s14.5212,21.521-3.1188,39.4397"/>
    <path fill="none" stroke="#000" stroke-linecap="round" stroke-linejoin="round" stroke-width="2" d="m44.6143,20.008s14.0984,20.5735-3.56,37.6011"/>
    <path fill="none" stroke="#000" stroke-linecap="round" stroke-linejoin="round" stroke-width="2" d="m54.0669,50.5597s3.3113-14.2907-.8778-24.4252"/>
    <path fill="none" stroke="#000" stroke-linecap="round" stroke-linejoin="round" stroke-width="2" d="m20.7477,31.0566s8.9354,6.0382,5.4487,18.6186"/>
  </g>
</svg>
