<svg id="emoji" viewBox="0 0 72 72" xmlns="http://www.w3.org/2000/svg">
  <g id="line">
    <path d="m26.1616,31.0595s-3.0474-.219-3.8284-1-.781-2.0474,0-2.8284,2.0474-.781,2.8284,0c.7811.781,1,3.8284,1,3.8284Z"/>
    <path fill="none" stroke="#000" stroke-linecap="round" stroke-linejoin="round" stroke-width="2" d="m19.6191,26.2353l2.0377-9.248s-7.6806-.627-6.505-7.4454c0,0,9.9534,3.2917,12.7748.4702,0,0,6.2375-6.6642,16.1956-.0429,3.3226,2.2093,12.7748-.4702,12.7748-.4702,1.1756,6.8184-6.505,7.4454-6.505,7.4454l2.0377,9.248"/>
    <path fill="none" stroke="#000" stroke-linecap="round" stroke-linejoin="round" stroke-width="2" d="m28.4825,46h15.7265c.272,0,.5324.1138.7082.3213.8467.9992,3.1442,4.3471,2.0943,10.2966-.1836,1.0404-1.1647,1.7418-2.2037,1.5503-3.4759-.6406-11.324-1.7893-16.7592-.3263-1.1058.2976-2.2065-.454-2.3432-1.5909-.302-2.5115-.3157-6.6284,2.0103-9.8682.1751-.2438.4667-.3828.7668-.3828Z"/>
    <path fill="none" stroke="#000" stroke-linecap="round" stroke-linejoin="round" stroke-width="2" d="m29.8671,50.277s-.6865,2.855,3.1538,2.926"/>
    <path fill="none" stroke="#000" stroke-linecap="round" stroke-linejoin="round" stroke-width="2" d="m29.1276,61.4663s6.3482,7.9157,13.7936.3135"/>
    <path fill="none" stroke="#000" stroke-linecap="round" stroke-linejoin="round" stroke-width="2" d="m17.5177,20.1544c-3.0642-1.9576-7.3791-4.5873-12.4353-3.3426,0,0-1.4891,14.0288,15.3611,15.5179l1.2133.881s-2.2906,8.9177,1.2618,16.1018"/>
    <path d="m45.8871,31.0139s3.0474-.219,3.8284-1c.7811-.781.7811-2.0474,0-2.8284-.781-.781-2.0474-.781-2.8284,0-.781.781-1,3.8284-1,3.8284Z"/>
    <path fill="none" stroke="#000" stroke-linecap="round" stroke-linejoin="round" stroke-width="2" d="m43.1817,50.2341s.6865,2.855-3.1538,2.926"/>
    <path fill="none" stroke="#000" stroke-linecap="round" stroke-linejoin="round" stroke-width="2" d="m54.7743,19.9585c3.0474-1.888,7.2683-4.4017,12.1921-3.1896,0,0,1.4891,14.0288-15.3611,15.5179l-1.2133.881s2.5382,7.9772-1.0141,15.1613"/>
  </g>
</svg>
