<?xml version="1.0" encoding="utf-8"?>
<!-- Generator: Adobe Illustrator 19.1.0, SVG Export Plug-In . SVG Version: 6.00 Build 0)  -->
<svg version="1.1" id="emoji" xmlns="http://www.w3.org/2000/svg" xmlns:xlink="http://www.w3.org/1999/xlink" x="0px" y="0px"
	 viewBox="0 0 72 72" enable-background="new 0 0 72 72" xml:space="preserve">
<g id="_xD83D__xDC37_">
	<path fill="none" stroke="#000000" stroke-width="2" stroke-linecap="round" stroke-linejoin="round" stroke-miterlimit="10" d="
		M40.5,55.6l-4-1.5c-0.4-0.1-0.8-0.1-1.1,0l-4,1.5c-2.2,0.8-4.5-0.8-4.5-3.1V50c0-2.1,1.1-4.1,2.9-5.2l2.4-1.5
		c2.3-1.4,5.3-1.4,7.6,0l2.4,1.5c1.8,1.1,2.9,3.1,2.9,5.2v2.5C45.1,54.8,42.7,56.5,40.5,55.6z"/>
	<ellipse transform="matrix(0.943 0.3327 -0.3327 0.943 18.3698 -7.8756)" cx="32.2" cy="49.7" rx="1.6" ry="2.6"/>
	<ellipse transform="matrix(-0.943 0.3327 -0.3327 -0.943 93.8824 83.3436)" cx="39.8" cy="49.7" rx="1.6" ry="2.6"/>
	<circle cx="26.1" cy="36.1" r="2"/>
	<circle cx="46" cy="36.1" r="2"/>
	<path fill="none" stroke="#000000" stroke-width="2" stroke-linecap="round" stroke-linejoin="round" stroke-miterlimit="10" d="
		M25.8,61.4c-10.1-6.5-5.2-23.2-5.2-23.2c-7.8,2.9-9-3.7-10.9-8.2c-0.7-1.8-1.1-3.6-1.2-5.5C8.4,21.1,7,16.4,6.1,13.9
		c-0.5-1.4,0.6-2.8,2.1-2.6c1.2,0.1,2.5,0.5,3.6,1c1.9,0.8,3.9,1.4,5.9,1.6c8.4,1,9.3,7.3,9.3,7.3s10.6-1.8,17.8,0.2
		c0,0,0.8-6.9,9.2-7.9c2-0.2,4-0.8,5.9-1.6c1.1-0.5,2.4-0.9,3.6-1c1.4-0.1,2.5,1.3,2.1,2.6c-0.9,2.6-2.3,7.2-2.5,10.6
		c-0.1,1.9-0.4,3.8-1.2,5.5c-1.9,4.5-3.1,11.1-10.9,8.2c0,0,4.9,16.7-5.2,23.2"/>
	<path fill="none" stroke="#000000" stroke-width="2" stroke-linecap="round" stroke-linejoin="round" stroke-miterlimit="10" d="
		M30.8,59.3c0,0,4.7,4,10.7,0"/>
	<path fill="none" stroke="#000000" stroke-width="2" stroke-linecap="round" stroke-linejoin="round" stroke-miterlimit="10" d="
		M23.1,26c0,0-1.4-6.4-7.2-8s-5.5-2.2-5.5-2.2"/>
	<path fill="none" stroke="#000000" stroke-width="2" stroke-linecap="round" stroke-linejoin="round" stroke-miterlimit="10" d="
		M47.8,26c0,0,1.4-6.4,7.2-8s5.5-2.2,5.5-2.2"/>
</g>
</svg>
