<svg id="emoji" viewBox="0 0 72 72" xmlns="http://www.w3.org/2000/svg">
  <g id="line">
    <path fill="none" stroke="#000" stroke-linecap="round" stroke-linejoin="round" stroke-width="2" d="m34.2042,25.0412c-.0364-.2205-.0784-.4413-.134-.6623-1.0117-4.0167-4.871-6.5074-8.6199-5.5631s-5.9678,4.9659-4.9561,8.9826c.0557.221.1233.4353.1957.6468-1.1533,1.1787-1.6914,2.9682-1.2371,4.7717.6745,2.6778,3.2473,4.3382,5.7466,3.7087,1.6833-.424,3.7084-3.5122,3.9147-3.5641.2063-.052,3.4527,1.7084,5.136,1.2844,2.4993-.6295,3.9785-3.3106,3.3041-5.9884-.4544-1.8035-1.7759-3.1246-3.35-3.6163Z"/>
    <ellipse cx="19.0131" cy="12.9337" rx="2.6883" ry="3.7635" transform="translate(-3.3852 7.7286) rotate(-21.1428)" fill="none" stroke="#000" stroke-linecap="round" stroke-linejoin="round" stroke-width="2"/>
    <ellipse cx="14.1245" cy="21.5483" rx="2.6882" ry="3.7633" transform="translate(-9.6423 11.6) rotate(-34.0429)" fill="none" stroke="#000" stroke-linecap="round" stroke-linejoin="round" stroke-width="2"/>
    <ellipse cx="36.1312" cy="14.8264" rx="3.7634" ry="2.6883" transform="translate(18.6437 49.7474) rotate(-85.7103)" fill="none" stroke="#000" stroke-linecap="round" stroke-linejoin="round" stroke-width="2"/>
    <path fill="none" stroke="#000" stroke-linecap="round" stroke-linejoin="round" stroke-width="2" d="m27.1536,6.7703c1.3727-.2023,3.0014,1.9274,3.2082,3.3312.303,2.0562-.642,4.1486-2.1108,4.3651s-2.9052-1.2749-3.2082-3.3312.642-4.1486,2.1108-4.3651Z"/>
    <path fill="none" stroke="#000" stroke-linecap="round" stroke-linejoin="round" stroke-width="2" d="m52.0157,56.9056c.0775-.2096.1503-.4223.2113-.6418,1.1089-3.991-1.0118-8.0652-4.7367-9.1002s-7.6434,1.3613-8.7523,5.3523c-.061.2196-.1083.4393-.1501.6589-1.5855.4534-2.9387,1.742-3.4366,3.534-.7393,2.6606.6745,5.3768,3.1578,6.0668,1.6725.4647,4.9607-1.2164,5.1656-1.1594s2.1545,3.1934,3.8271,3.6581c2.4832.69,5.0956-.9076,5.8349-3.5682.4978-1.7922.0033-3.5942-1.121-4.8005Z"/>
    <path fill="none" stroke="#000" stroke-linecap="round" stroke-linejoin="round" stroke-width="2.0001" d="m42.4003,38.5324c.3105-2.0552,1.7481-3.5436,3.2165-3.3236s2.409,2.0648,2.101,4.1204-1.7454,3.5249-3.2165,3.3236c-1.481-.2026-2.4122-2.0604-2.101-4.1204Z"/>
    <ellipse cx="36.2975" cy="44.1831" rx="2.6883" ry="3.7635" transform="translate(-3.2653 2.8982) rotate(-4.3759)" fill="none" stroke="#000" stroke-linecap="round" stroke-linejoin="round" stroke-width="2"/>
    <ellipse cx="58.7502" cy="48.9832" rx="3.7636" ry="2.6884" transform="translate(-14.6955 70.3534) rotate(-56.043)" fill="none" stroke="#000" stroke-linecap="round" stroke-linejoin="round" stroke-width="2.0001"/>
    <ellipse cx="53.6913" cy="41.331" rx="3.7634" ry="2.6883" transform="translate(-4.3103 76.3571) rotate(-68.7157)" fill="none" stroke="#000" stroke-linecap="round" stroke-linejoin="round" stroke-width="2"/>
  </g>
</svg>
