<svg id="emoji" viewBox="0 0 72 72" xmlns="http://www.w3.org/2000/svg">
  <g id="line">
    <circle cx="26.2495" cy="40.2751" r="2" fill="#000000" stroke="none"/>
    <circle cx="44.2944" cy="40.5106" r="2" fill="#000000" stroke="none"/>
    <path fill="none" stroke="#000000" stroke-linecap="round" stroke-linejoin="round" stroke-miterlimit="10" stroke-width="2" d="M29.3116,53.9749l2.375,1.3959c0,0,0.4899,2.9667,3.2712,2.748v3.5625c0,0-3.4688,1.7604-6.3438-0.5312 c-2.2371-1.7832-3.5938-4.6875-3.5938-4.6875"/>
    <path fill="none" stroke="#000000" stroke-linecap="round" stroke-linejoin="round" stroke-miterlimit="10" stroke-width="2" d="M21.739,53.3376c-3.8308-1.0774-6.3025-3.0804-7.8464-5.5039L9.871,42.3259c2.7739-7.0508,2.5763-14.1342,2.5763-14.1342 c-4.7083-8.6667-1.625-17.4583-1.625-17.4583c2.5417-8.2917,6.7917-5.0417,6.7917-5.0417c3.0417,5.1667,9.875,8.9167,9.875,8.9167"/>
    <path fill="none" stroke="#000000" stroke-linecap="round" stroke-linejoin="round" stroke-miterlimit="10" stroke-width="2" d="M15.614,9.2126c0,0,0.375,7.5,7.3125,10.375c0,0-6.6983,1.679-7.7816,6.3457"/>
    <path fill="none" stroke="#000000" stroke-linecap="round" stroke-linejoin="round" stroke-miterlimit="10" stroke-width="2" d="M54.8556,9.2126c0,0-0.375,7.5-7.3125,10.375c0,0,6.6983,1.679,7.7816,6.3457"/>
    <path fill="none" stroke="#000000" stroke-linecap="round" stroke-linejoin="round" stroke-miterlimit="10" stroke-width="2" d="M30.9474,40.5106c0,0,2.711-4.3812-1.25-5.6689c-2.7917-0.9075-6.2083,1.0584-6.2083,1.0584"/>
    <path fill="none" stroke="#000000" stroke-linecap="round" stroke-linejoin="round" stroke-miterlimit="10" stroke-width="2" d="M35.3321,61.6813c0,0,3.4688,1.7604,6.3438-0.5312c2.2371-1.7832,3.5938-4.6875,3.5938-4.6875"/>
    <path fill="none" stroke="#000000" stroke-linecap="round" stroke-linejoin="round" stroke-miterlimit="10" stroke-width="2" d="M40.6873,53.9749l-2.7917,1.3959c0,0-0.1566,2.9667-2.9378,2.748"/>
    <path fill="none" stroke="#000000" stroke-linecap="round" stroke-linejoin="round" stroke-miterlimit="10" stroke-width="2" d="M42.8008,14.9502c0,0,6.8333-3.75,9.875-8.9167c0,0,4.25-3.25,6.7917,5.0417c0,0,3.0833,8.7917-1.625,17.4583 c0,0-0.0675,7.3188,2.6299,13.7929l-4.6974,6.7357c-1.5598,2.0223-3.8715,3.6742-7.2242,4.6172"/>
    <path fill="none" stroke="#000000" stroke-linecap="round" stroke-linejoin="round" stroke-miterlimit="10" stroke-width="2" d="M39.3425,40.8524c0,0-2.7109-4.3812,1.25-5.6689c2.7917-0.9075,6.2083,1.0584,6.2083,1.0584"/>
    <path fill="none" stroke="#000000" stroke-linecap="round" stroke-linejoin="round" stroke-miterlimit="10" stroke-width="2" d="M24.6882,11.4515c0,0,7.9524-5.5773,21.3522,0"/>
    <path fill="none" stroke="#000000" stroke-linecap="round" stroke-linejoin="round" stroke-miterlimit="10" stroke-width="2" d="M31.3533,65.8686c2.7191,1.4858,5.2903,1.3535,7.75,0"/>
  </g>
</svg>
