<svg id="emoji" viewBox="0 0 72 72" xmlns="http://www.w3.org/2000/svg">
  <g id="line">
    <circle cx="26.2495" cy="40.2751" r="2"/>
    <circle cx="44.2944" cy="40.5106" r="2"/>
    <path fill="none" stroke="#000" stroke-linecap="round" stroke-linejoin="round" stroke-width="2" d="m29.3116,53.9749l2.375,1.3959s.4899,2.9667,3.2712,2.748v3.5625s-3.4688,1.7604-6.3438-.5312c-2.2371-1.7832-3.5938-4.6875-3.5938-4.6875"/>
    <path fill="none" stroke="#000" stroke-linecap="round" stroke-linejoin="round" stroke-width="2" d="m21.739,53.3376c-3.8308-1.0774-6.3025-3.0804-7.8464-5.5039l-4.0216-5.5078c2.7739-7.0508,2.5763-14.1342,2.5763-14.1342-4.7083-8.6667-1.625-17.4583-1.625-17.4583,2.032-6.629,5.156-5.881,6.3271-5.3145.2848.1378.5128.3608.6814.6285,3.137,4.9822,9.6583,8.5609,9.6583,8.5609"/>
    <path fill="none" stroke="#000" stroke-linecap="round" stroke-linejoin="round" stroke-width="2" d="m15.614,9.2126s.375,7.5,7.3125,10.375c0,0-6.6983,1.679-7.7816,6.3457"/>
    <path fill="none" stroke="#000" stroke-linecap="round" stroke-linejoin="round" stroke-width="2" d="m54.8556,9.2126s-.375,7.5-7.3125,10.375c0,0,6.6983,1.679,7.7816,6.3457"/>
    <path fill="none" stroke="#000" stroke-linecap="round" stroke-linejoin="round" stroke-width="2" d="m30.9474,40.5106s2.711-4.3812-1.25-5.6689c-2.7917-.9075-6.2083,1.0584-6.2083,1.0584"/>
    <path fill="none" stroke="#000" stroke-linecap="round" stroke-linejoin="round" stroke-width="2" d="m35.3321,61.6813s3.4688,1.7604,6.3438-.5312c2.2371-1.7832,3.5938-4.6875,3.5938-4.6875"/>
    <path fill="none" stroke="#000" stroke-linecap="round" stroke-linejoin="round" stroke-width="2" d="m40.6873,53.9749l-2.7917,1.3959s-.1566,2.9667-2.9378,2.748"/>
    <path fill="none" stroke="#000" stroke-linecap="round" stroke-linejoin="round" stroke-width="2" d="m42.8008,14.9502s6.8333-3.75,9.875-8.9167c0,0,4.25-3.25,6.7917,5.0417,0,0,3.0833,8.7917-1.625,17.4583,0,0-.0675,7.3188,2.6299,13.7929l-4.6974,6.7357c-1.5598,2.0223-3.8715,3.6742-7.2242,4.6172"/>
    <path fill="none" stroke="#000" stroke-linecap="round" stroke-linejoin="round" stroke-width="2" d="m39.3425,40.8524s-2.7109-4.3812,1.25-5.6689c2.7917-.9075,6.2083,1.0584,6.2083,1.0584"/>
    <path fill="none" stroke="#000" stroke-linecap="round" stroke-linejoin="round" stroke-width="2" d="m24.6882,11.4515s7.9524-5.5773,21.3522,0"/>
    <path fill="none" stroke="#000" stroke-linecap="round" stroke-linejoin="round" stroke-width="2" d="m31.3533,65.8686c2.7191,1.4858,5.2903,1.3535,7.75,0"/>
  </g>
</svg>
