<svg id="emoji" viewBox="0 0 72 72" xmlns="http://www.w3.org/2000/svg">
  <g id="line">
    <circle cx="28.6339" cy="36.999" r="2" fill="#000000" stroke="none"/>
    <path fill="none" stroke="#000000" stroke-linecap="round" stroke-linejoin="round" stroke-miterlimit="10" stroke-width="2" d="M26.0089,19.8949c0,0-7.6875-11.625-14.9375-6.8125c-6.6011,4.3818-3.9113,13.9584,0.603,16.915"/>
    <path fill="none" stroke="#000000" stroke-linecap="round" stroke-linejoin="round" stroke-miterlimit="10" stroke-width="2" d="M21.0714,58.5824c-15.9375-6.3125-7.8506-24.0133-7.8506-24.0133s3.645-9.3586,9.3416-11.6086"/>
    <path fill="none" stroke="#000000" stroke-linecap="round" stroke-linejoin="round" stroke-miterlimit="10" stroke-width="2" d="M51.0978,58.5824c15.9375-6.3125,7.8506-24.0133,7.8506-24.0133s-3.645-9.3586-9.3416-11.6086"/>
    <circle cx="43.3661" cy="36.999" r="2" fill="#000000" stroke="none"/>
    <path fill="none" stroke="#000000" stroke-linecap="round" stroke-linejoin="round" stroke-miterlimit="10" stroke-width="2" d="M43.495,43.3313l1.5607,4.8039c0.2196,0.8168,0.0853,1.6816-0.3675,2.3961c-1.2194,1.924-4.0542,5.1185-8.2597,2.2386h-0.8572 c-4.2055,2.8798-7.0402-0.3147-8.2597-2.2386c-0.4528-0.7144-0.5871-1.5793-0.3675-2.3961l1.5607-4.8039"/>
    <path fill="none" stroke="#000000" stroke-linecap="round" stroke-linejoin="round" stroke-miterlimit="10" stroke-width="2" d="M40.172,47.9243c-0.1014,3.008-2.8052,1.6561-2.8052,1.6561L36,48.9038l-1.3667,0.6766c0,0-2.7039,1.3519-2.8052-1.6561"/>
    <path fill="none" stroke="#000000" stroke-linecap="round" stroke-linejoin="round" stroke-miterlimit="10" stroke-width="2" d="M45.9911,19.8949c0,0,7.6875-11.625,14.9375-6.8125c6.6011,4.3818,3.9113,13.9584-0.603,16.915"/>
    <path fill="none" stroke="#000000" stroke-linecap="round" stroke-linejoin="round" stroke-miterlimit="10" stroke-width="2" d="M29.9464,57.1478c0,0,5.1875,6.6013,12.1072,0.5625"/>
    <path fill="none" stroke="#000000" stroke-linecap="round" stroke-linejoin="round" stroke-miterlimit="10" stroke-width="2" d="M24.6652,17.9512c0,0,8.7098-4.9304,22.3259,0"/>
    <line x1="36" x2="36" y1="52.7699" y2="49.5804" fill="none" stroke="#000000" stroke-linecap="round" stroke-linejoin="round" stroke-miterlimit="10" stroke-width="2"/>
  </g>
</svg>
