<?xml version="1.0" encoding="utf-8"?>
<!-- Generator: Adobe Illustrator 21.1.0, SVG Export Plug-In . SVG Version: 6.00 Build 0)  -->
<svg version="1.1" id="emoji" xmlns="http://www.w3.org/2000/svg" xmlns:xlink="http://www.w3.org/1999/xlink" x="0px" y="0px"
	 viewBox="0 0 72 72" enable-background="new 0 0 72 72" xml:space="preserve">
<g id="_xD83D__xDC3A_">
	<circle fill="#1D1D1B" cx="27.1" cy="40.4" r="2"/>
	<circle fill="#1D1D1B" cx="45.1" cy="40.7" r="2"/>
	<path fill="none" stroke="#000000" stroke-width="2" stroke-linecap="round" stroke-linejoin="round" stroke-miterlimit="10" d="
		M30.2,54.1l2.4,1.4c0,0,0.5,3,3.3,2.7v3.6c0,0-3.5,1.8-6.3-0.5c-2.2-1.8-3.6-4.7-3.6-4.7"/>
	<path fill="none" stroke="#000000" stroke-width="2" stroke-linecap="round" stroke-linejoin="round" stroke-miterlimit="10" d="
		M22.6,53.5c-3.8-1.1-6.3-3.1-7.8-5.5l-4-5.5c2.8-7.1,2.6-14.1,2.6-14.1c-4.7-8.7-1.6-17.5-1.6-17.5c2.5-8.3,6.8-5,6.8-5
		c3,5.2,9.9,8.9,9.9,8.9"/>
	<path fill="none" stroke="#000000" stroke-width="2" stroke-linecap="round" stroke-linejoin="round" stroke-miterlimit="10" d="
		M16.5,9.4c0,0,0.4,7.5,7.3,10.4c0,0-6.7,1.7-7.8,6.3"/>
	<path fill="none" stroke="#000000" stroke-width="2" stroke-linecap="round" stroke-linejoin="round" stroke-miterlimit="10" d="
		M55.7,9.4c0,0-0.4,7.5-7.3,10.4c0,0,6.7,1.7,7.8,6.3"/>
	<path fill="none" stroke="#000000" stroke-width="2" stroke-linecap="round" stroke-linejoin="round" stroke-miterlimit="10" d="
		M31.8,40.7c0,0,2.7-4.4-1.2-5.7c-2.8-0.9-6.2,1.1-6.2,1.1"/>
	<path fill="none" stroke="#000000" stroke-width="2" stroke-linecap="round" stroke-linejoin="round" stroke-miterlimit="10" d="
		M36.2,61.8c0,0,3.5,1.8,6.3-0.5c2.2-1.8,3.6-4.7,3.6-4.7"/>
	<path fill="none" stroke="#000000" stroke-width="2" stroke-linecap="round" stroke-linejoin="round" stroke-miterlimit="10" d="
		M41.5,54.1l-2.8,1.4c0,0-0.2,3-2.9,2.7"/>
	<path fill="none" stroke="#000000" stroke-width="2" stroke-linecap="round" stroke-linejoin="round" stroke-miterlimit="10" d="
		M43.7,15.1c0,0,6.8-3.8,9.9-8.9c0,0,4.2-3.2,6.8,5c0,0,3.1,8.8-1.6,17.5c0,0-0.1,7.3,2.6,13.8l-4.7,6.7c-1.6,2-3.9,3.7-7.2,4.6"/>
	<path fill="none" stroke="#000000" stroke-width="2" stroke-linecap="round" stroke-linejoin="round" stroke-miterlimit="10" d="
		M40.2,41c0,0-2.7-4.4,1.2-5.7c2.8-0.9,6.2,1.1,6.2,1.1"/>
	<path fill="none" stroke="#1D1D1B" stroke-width="2" stroke-linecap="round" stroke-linejoin="round" stroke-miterlimit="10" d="
		M25.5,11.6c0,0,8-5.6,21.4,0"/>
	<path fill="none" stroke="#000000" stroke-width="2" stroke-linecap="round" stroke-linejoin="round" stroke-miterlimit="10" d="
		M32.2,66c2.7,1.5,5.3,1.4,7.8,0"/>
</g>
</svg>
