<svg id="emoji" viewBox="0 0 72 72" xmlns="http://www.w3.org/2000/svg">
  <g id="line">
    <path fill="none" stroke="#000" stroke-linecap="round" stroke-linejoin="round" stroke-width="2" d="M36.8723,48.3986a6.8472,6.8472,0,0,1-1.0665.0811h.125c-3.0736.0063-5.8081-1.4642-9-3.5921-12,0-10,13-10,13"/>
    <polyline fill="none" stroke="#000" stroke-linecap="round" stroke-linejoin="round" stroke-width="2" points="35.467 52.133 26.929 52.133 26.931 44.888"/>
    <line x1="22.2649" x2="22.2649" y1="45.7569" y2="57.8666" fill="none" stroke="#000" stroke-linecap="round" stroke-linejoin="round" stroke-width="2"/>
    <polygon fill="none" stroke="#000" stroke-linecap="round" stroke-linejoin="round" stroke-width="2" points="35.147 59.772 60.137 59.772 67.087 43.423 42.097 43.423 35.147 59.772"/>
    <line x1="24.1767" x2="35.1467" y1="59.7725" y2="59.7725" fill="none" stroke="#000" stroke-linecap="round" stroke-linejoin="round" stroke-width="2"/>
    <path fill="none" stroke="#000" stroke-linecap="round" stroke-linejoin="round" stroke-width="2" d="M34.0178,18.9722"/>
    <line x1="38.2936" x2="35.8502" y1="35.589" y2="32.5747" fill="none" stroke="#000" stroke-linecap="round" stroke-linejoin="round" stroke-width="1.8"/>
    <line x1="33.4068" x2="35.8502" y1="35.589" y2="32.5747" fill="none" stroke="#000" stroke-linecap="round" stroke-linejoin="round" stroke-width="1.8"/>
    <line x1="33.4068" x2="38.2936" y1="32.5747" y2="32.5747" fill="none" stroke="#000" stroke-linecap="round" stroke-linejoin="round" stroke-width="1.8"/>
    <path fill="none" stroke="#000" stroke-linecap="round" stroke-linejoin="round" stroke-width="2" d="M45.6239,32.5747"/>
    <path fill="none" stroke="#000" stroke-linecap="round" stroke-linejoin="round" stroke-width="2" d="M51.1216,35.589"/>
    <path fill="none" stroke="#000" stroke-linecap="round" stroke-linejoin="round" stroke-width="2" d="M41.9588,37.3975"/>
    <path fill="none" stroke="#000" stroke-linecap="round" stroke-linejoin="round" stroke-width="2" d="M47.4565,40.4117"/>
    <path fill="none" stroke="#000" stroke-linecap="round" stroke-linejoin="round" stroke-width="2" d="M49.7667,23.869l.4387,4.1844a13.664,13.664,0,0,1-1.0171,5.189"/>
    <path fill="none" stroke="#000" stroke-linecap="round" stroke-linejoin="round" stroke-width="2" d="M22.5121,33.2423a13.6635,13.6635,0,0,1-1.0171-5.1889l2.138-18.99,6.4492,6.2109a14.175,14.175,0,0,1,5.4626-1.0868h.6108a14.1825,14.1825,0,0,1,5.4632,1.0868l6.4485-6.2109.6655,6.399"/>
    <path fill="none" stroke="#000" stroke-linecap="round" stroke-linejoin="round" stroke-width="1.8" d="M28.1119,39.7219a14.1207,14.1207,0,0,0,7.4329,2.0969h.6108a14.1191,14.1191,0,0,0,7.4329-2.0969"/>
    <path fill="none" stroke="#000" stroke-linecap="round" stroke-linejoin="round" stroke-width="2" d="M26.0765,32.5747"/>
    <path fill="none" stroke="#000" stroke-linecap="round" stroke-linejoin="round" stroke-width="2" d="M20.5788,35.589"/>
    <path fill="none" stroke="#000" stroke-linecap="round" stroke-linejoin="round" stroke-width="2" d="M29.7416,37.3975"/>
    <path fill="none" stroke="#000" stroke-linecap="round" stroke-linejoin="round" stroke-width="2" d="M24.2439,40.4117"/>
    <ellipse cx="28.5199" cy="27.752" rx="1.2217" ry="1.2057"/>
    <ellipse cx="43.1805" cy="27.752" rx="1.2217" ry="1.2057"/>
    <path fill="none" stroke="#000" stroke-linecap="round" stroke-linejoin="round" stroke-width="1.6" d="M47.0723,24.9474s-8.1678,3.4075-7.7837,3.84C47.104,35.8033,47.7172,25.9247,47.0723,24.9474Z"/>
    <line x1="50.9216" x2="45.4239" y1="37.1947" y2="34.1804" fill="none" stroke="#000" stroke-linecap="round" stroke-linejoin="round" stroke-width="1.6"/>
    <line x1="48.6782" x2="43.1805" y1="39.8089" y2="36.7947" fill="none" stroke="#000" stroke-linecap="round" stroke-linejoin="round" stroke-width="1.6"/>
    <path fill="none" stroke="#000" stroke-linecap="round" stroke-linejoin="round" stroke-width="1.6" d="M24.6281,24.9474s7.5569,4.01,7.7837,3.84C24.8673,36.1712,23.8663,26.5505,24.6281,24.9474Z"/>
    <line x1="20.7788" x2="26.2765" y1="37.1947" y2="34.1804" fill="none" stroke="#000" stroke-linecap="round" stroke-linejoin="round" stroke-width="1.6"/>
    <line x1="23.0222" x2="28.5199" y1="39.8089" y2="36.7947" fill="none" stroke="#000" stroke-linecap="round" stroke-linejoin="round" stroke-width="1.6"/>
    <polyline fill="none" stroke="#000" stroke-linecap="round" stroke-linejoin="round" stroke-width="1.6" points="46.998 18.284 22.652 17.7 22.165 22.428 47.005 20.926"/>
    <path fill="none" stroke="#000" stroke-linecap="round" stroke-linejoin="round" stroke-width="1.6" d="M50.4972,19.6a2,2,0,1,1-2-2,2.0007,2.0007,0,0,1,2,2"/>
  </g>
</svg>
