<svg id="emoji" viewBox="0 0 72 72" xmlns="http://www.w3.org/2000/svg">
  <g id="line">
    <circle cx="28.6339" cy="36.999" r="2"/>
    <path fill="none" stroke="#000" stroke-linecap="round" stroke-linejoin="round" stroke-width="2" d="m26.0089,19.8949s-7.6875-11.625-14.9375-6.8125c-6.6011,4.3818-3.9113,13.9584.603,16.915"/>
    <path fill="none" stroke="#000" stroke-linecap="round" stroke-linejoin="round" stroke-width="2" d="m21.0714,58.5824c-15.9375-6.3125-7.8506-24.0133-7.8506-24.0133,0,0,3.645-9.3586,9.3416-11.6086"/>
    <path fill="none" stroke="#000" stroke-linecap="round" stroke-linejoin="round" stroke-width="2" d="m51.0978,58.5824c15.9375-6.3125,7.8506-24.0133,7.8506-24.0133,0,0-3.645-9.3586-9.3416-11.6086"/>
    <circle cx="43.3661" cy="36.999" r="2"/>
    <path fill="none" stroke="#000" stroke-linecap="round" stroke-linejoin="round" stroke-width="2" d="m43.495,43.3313l1.5607,4.8039c.2196.8168.0853,1.6816-.3675,2.3961-1.2194,1.924-4.0542,5.1185-8.2597,2.2386h-.8572c-4.2055,2.8798-7.0402-.3147-8.2597-2.2386-.4528-.7144-.5871-1.5793-.3675-2.3961l1.5607-4.8039"/>
    <path fill="none" stroke="#000" stroke-linecap="round" stroke-linejoin="round" stroke-width="2" d="m40.172,47.9243c-.1014,3.008-2.8052,1.6561-2.8052,1.6561l-1.3668-.6766-1.3667.6766s-2.7039,1.3519-2.8052-1.6561"/>
    <path fill="none" stroke="#000" stroke-linecap="round" stroke-linejoin="round" stroke-width="2" d="m45.9911,19.8949s7.6875-11.625,14.9375-6.8125c6.6011,4.3818,3.9113,13.9584-.603,16.915"/>
    <path fill="none" stroke="#000" stroke-linecap="round" stroke-linejoin="round" stroke-width="2" d="m29.9464,57.1478s5.1875,6.6013,12.1072.5625"/>
    <path fill="none" stroke="#000" stroke-linecap="round" stroke-linejoin="round" stroke-width="2" d="m24.6652,17.9512s8.7098-4.9304,22.3259,0"/>
    <line x1="36" x2="36" y1="52.7699" y2="49.5804" fill="none" stroke="#000" stroke-linecap="round" stroke-linejoin="round" stroke-width="2"/>
  </g>
</svg>
