<?xml version="1.0" encoding="utf-8"?>
<!-- Generator: Adobe Illustrator 21.1.0, SVG Export Plug-In . SVG Version: 6.00 Build 0)  -->
<svg version="1.1" id="emoji" xmlns="http://www.w3.org/2000/svg" xmlns:xlink="http://www.w3.org/1999/xlink" x="0px" y="0px"
	 viewBox="0 0 72 72" enable-background="new 0 0 72 72" xml:space="preserve">
<g id="_xD83D__xDC36__1_">
	<path d="M29.6,30.1c0,0-1.8,1.2-2.7,0.7s-1.2-1.8-0.7-2.7c0.6-0.9,1.8-1.2,2.7-0.7S29.6,30.1,29.6,30.1z"/>
	<path fill="none" stroke="#000000" stroke-width="2" stroke-linecap="round" stroke-linejoin="round" stroke-miterlimit="10" d="
		M33.2,37h6.1c0.4,0,0.8,0.2,0.9,0.6l1.2,2.7l-2.2,1.1c-0.6,0.3-1.4-0.1-1.5-0.8"/>
	<path fill="none" stroke="#000000" stroke-width="2" stroke-linecap="round" stroke-linejoin="round" stroke-miterlimit="10" d="
		M34.9,40.8c-0.1,0.6-0.8,1-1.4,0.7l-2.3-1l1.1-2.9c0.1-0.4,0.5-0.6,0.9-0.6"/>
	<path fill="none" stroke="#000000" stroke-width="2" stroke-linecap="round" stroke-linejoin="round" stroke-miterlimit="10" d="
		M30.5,50.1c0,0-0.7,8.8,3,9.9c2.6,0.8,5.1,0.5,6.1-0.2c0.9-0.8,2.6-4.5,1.8-9.7"/>
	<path d="M44.4,30.1c0,0,1.8,1.2,2.7,0.7c0.9-0.6,1.2-1.8,0.7-2.7c-0.6-0.9-1.8-1.2-2.7-0.7C44.1,28,44.4,30.1,44.4,30.1z"/>
	<path fill="none" stroke="#000000" stroke-width="2" stroke-linecap="round" stroke-linejoin="round" stroke-miterlimit="10" d="
		M25.7,42.9c-0.5,3.6,2.2,5.8,4.3,6.8c1.2,0.6,2.7,0.5,3.7-0.3l2.6-2l2.6,2c1.1,0.8,2.5,1,3.7,0.3c2.1-1.1,4.8-3.2,4.3-6.8"/>
	<path fill="none" stroke="#000000" stroke-width="2" stroke-linecap="round" stroke-linejoin="round" stroke-miterlimit="10" d="
		M20.1,28.4c-2.3,5.2-0.5,13,0.1,15.4c0.1,0.5,0.1,0.9-0.1,1.4l-2,4.2c-0.6,1.3-2.4,1.6-3.3,0.4C11.5,46,6.2,38.4,8.2,33.1
		c7.1-18.6,15.9-18.1,15.9-18.1C26.9,13,37.2,8,48.9,15.8c0,0,8.6-1.7,14.9,16.9c1.8,5.3-3.4,12.9-6.6,16.6
		c-0.9,1.1-2.7,0.9-3.3-0.4l-2-4.2c-0.2-0.4-0.2-0.9-0.1-1.4c0.6-2.4,2.4-10.2,0.1-15.4"/>
	<path fill="none" stroke="#000000" stroke-width="2" stroke-linecap="round" stroke-linejoin="round" stroke-miterlimit="10" d="
		M52.7,46.5c0,0-3.1,6.7-7.8,8.3"/>
	<path fill="none" stroke="#000000" stroke-width="2" stroke-linecap="round" stroke-linejoin="round" stroke-miterlimit="10" d="
		M19.5,47c0,0,3.1,6.1,7.8,7.6"/>
	
		<line fill="none" stroke="#000000" stroke-width="2" stroke-linecap="round" stroke-linejoin="round" stroke-miterlimit="10" x1="36.3" y1="47.4" x2="36.3" y2="44.3"/>
</g>
</svg>
