<svg id="emoji" viewBox="0 0 72 72" xmlns="http://www.w3.org/2000/svg">
  <g id="line">
    <circle cx="27.8144" cy="32.0855" r="3"/>
    <circle cx="44.4394" cy="32.0855" r="3"/>
    <path fill="none" stroke="#000" stroke-linecap="round" stroke-linejoin="round" stroke-width="2" d="m32.3769,43.7564s.75,2.5833,3.75,2.9167c3,.3333,4-2.9167,4-2.9167"/>
    <path fill="none" stroke="#000" stroke-linecap="round" stroke-linejoin="round" stroke-width="2" d="m36.1269,46.673l.125,4.3334c1.6287,1.0459,2.5723,1.5093,5.0416,1"/>
    <path fill="none" stroke="#000" stroke-linecap="round" stroke-linejoin="round" stroke-width="2" d="m31.3769,52.0064c1.9583.3334,2.9167,0,4.875-1"/>
    <path fill="none" stroke="#000" stroke-linecap="round" stroke-linejoin="round" stroke-width="2" d="m41.8823,56.673c5.397,2.7745,9.6846,1.7224,12.7521-.243"/>
    <path fill="none" stroke="#000" stroke-linecap="round" stroke-linejoin="round" stroke-width="2" d="m11.0307,44.478c-3.7861-13.5237,9.0129-18.7216,9.0129-18.7216-3-1-8.3333-9.5833-3.9167-13.5833s10.5,3.3333,10.5,3.3333c0,0,9.8443-4.1667,20.0055,0,0,0,6.0833-7.3333,10.5-3.3333s-.9167,12.5833-3.9167,13.5833c0,0,12.5816,5.0927,9.1061,18.3773"/>
    <path fill="none" stroke="#000" stroke-linecap="round" stroke-linejoin="round" stroke-width="2" d="m19.2213,56.7912c3.0177,1.722,7.0999,2.4809,12.1556-.1181"/>
    <path fill="none" stroke="#000" stroke-linecap="round" stroke-linejoin="round" stroke-width="2" d="m26.6269,43.5064s-17,2.6667-19.75,11.75"/>
    <path fill="none" stroke="#000" stroke-linecap="round" stroke-linejoin="round" stroke-width="2" d="m27.3769,47.2267s-12.2519,2.2168-14.5,13.2797"/>
    <path fill="none" stroke="#000" stroke-linecap="round" stroke-linejoin="round" stroke-width="2" d="m46.6324,43.5064s17,2.6667,19.75,11.75"/>
    <path fill="none" stroke="#000" stroke-linecap="round" stroke-linejoin="round" stroke-width="2" d="m45.8824,47.2267s11.7426,3.7797,14.5,13.2797"/>
  </g>
</svg>
