<?xml version="1.0" encoding="utf-8"?>
<!-- Generator: Adobe Illustrator 19.1.0, SVG Export Plug-In . SVG Version: 6.00 Build 0)  -->
<svg version="1.1" id="emoji" xmlns="http://www.w3.org/2000/svg" xmlns:xlink="http://www.w3.org/1999/xlink" x="0px" y="0px"
	 viewBox="0 0 72 72" enable-background="new 0 0 72 72" xml:space="preserve">
<g id="_xD83D__xDC34_">
	<path fill="none" stroke="#000000" stroke-width="2" stroke-linecap="round" stroke-linejoin="round" stroke-miterlimit="10" d="
		M56.2,36.9c1.8,2.4,6.5,6.7,6,16.2"/>
	<path fill="none" stroke="#000000" stroke-width="2" stroke-linecap="round" stroke-linejoin="round" stroke-miterlimit="10" d="
		M30.2,41c0,0,8.5,6.8,0,18.8"/>
	<path fill="none" stroke="#000000" stroke-width="2" stroke-linecap="round" stroke-linejoin="round" stroke-miterlimit="10" d="
		M32.9,30c0.5,8.4-9.3,9.7-12,10.3c-0.3,0.1-0.6,0.3-0.9,0.5L17.9,43c-0.3,0.3-0.8,0.5-1.3,0.5h-3.5c-1.2,0-2.3-0.8-2.7-1.9L9.9,40
		c-0.3-0.8-0.2-1.6,0.3-2.3l8.8-14.6l4.7-4.7l-2.1-6.9c0,0,7.8-0.7,8.4,5.3c0,0,16.9,2.4,10.6,19.4c0,0-1.6,5.9,2.4,11.2"/>
	<path fill="none" stroke="#000000" stroke-width="2" stroke-linecap="round" stroke-linejoin="round" stroke-miterlimit="10" d="
		M28.7,13.1c0,0,22.2-4,20,20"/>
	<path fill="none" stroke="#000000" stroke-width="2" stroke-linecap="round" stroke-linejoin="round" stroke-miterlimit="10" d="
		M47.7,22.2c0,0,14.8,6.6,5.5,22.2c0,0-5.4,6.6,0.6,13.6"/>
	<circle cx="22.2" cy="28" r="2"/>
</g>
</svg>
