<svg id="emoji" viewBox="0 0 72 72" xmlns="http://www.w3.org/2000/svg">
  <g id="line">
    <path fill="none" stroke="#000" stroke-linecap="round" stroke-linejoin="round" stroke-width="2" d="m40.5348,55.6239l-3.9761-1.494c-.363-.1364-.7632-.1364-1.1261,0l-3.9761,1.494c-2.2002.8267-4.5486-.7996-4.5486-3.1499v-2.463c0-2.11,1.0916-4.0698,2.8856-5.1806l2.3807-1.4741c2.3414-1.4497,5.3015-1.4497,7.6429,0l2.3807,1.4741c1.794,1.1108,2.8856,3.0706,2.8856,5.1806v2.463c0,2.3504-2.3484,3.9767-4.5486,3.1499Z"/>
    <ellipse cx="32.1834" cy="49.7115" rx="2.6114" ry="1.6068" transform="translate(-25.4037 63.5219) rotate(-70.5666)"/>
    <ellipse cx="39.8062" cy="49.7055" rx="1.6068" ry="2.6114" transform="translate(-14.2697 16.0757) rotate(-19.4334)"/>
    <circle cx="26.0833" cy="36.0855" r="2"/>
    <circle cx="46.0417" cy="36.0855" r="2"/>
    <path fill="none" stroke="#000" stroke-linecap="round" stroke-linejoin="round" stroke-width="2" d="m25.8333,61.4188c-10.0833-6.5-5.1667-23.1667-5.1667-23.1667-7.7762,2.9161-9.0215-3.7404-10.9204-8.2062-.7452-1.7525-1.0738-3.6364-1.1634-5.5386-.1599-3.3973-1.6127-8.0761-2.4938-10.6393-.47-1.3674.6215-2.7649,2.0621-2.6417,1.1647.0996,2.4527.5098,3.5792.9664,1.8985.7695,3.8733,1.3555,5.9082,1.591,8.4189.9743,9.2693,7.3018,9.2693,7.3018,0,0,10.5705-1.75,17.7588.25,0,0,.8287-6.9109,9.2476-7.8852,2.0349-.2355,4.0098-.8215,5.9082-1.591,1.1266-.4566,2.4145-.8668,3.5792-.9664,1.4406-.1231,2.5321,1.2744,2.0621,2.6417-.8811,2.5633-2.3339,7.242-2.4939,10.6394-.0896,1.9022-.4182,3.7862-1.1634,5.5386-1.8989,4.4657-3.1442,11.1222-10.9204,8.2062,0,0,4.9167,16.6667-5.1667,23.1667"/>
    <path fill="none" stroke="#000" stroke-linecap="round" stroke-linejoin="round" stroke-width="2" d="m30.8333,59.3355s4.6667,4,10.6667,0"/>
    <path fill="none" stroke="#000" stroke-linecap="round" stroke-linejoin="round" stroke-width="2" d="m23.0625,26.023s-1.375-6.4375-7.1875-8-5.5-2.1875-5.5-2.1875"/>
    <path fill="none" stroke="#000" stroke-linecap="round" stroke-linejoin="round" stroke-width="2" d="m47.8268,26.023s1.375-6.4375,7.1875-8,5.5-2.1875,5.5-2.1875"/>
  </g>
</svg>
