<svg id="emoji" viewBox="0 0 72 72" xmlns="http://www.w3.org/2000/svg">
  <g id="line">
    <path fill="none" stroke="#000" stroke-linecap="round" stroke-linejoin="round" stroke-width="2" d="M38.7948,49.3248s1.3527.2556,2.8951.4089c.6907,5.1227-4.3352,3.666-5.16,3.01S26.684,40.17,23.6673,37.2281a.0359.0359,0,0,1-.011-.0228c-4.6079-4.4978-6.4753-4.7023-6.7737-4.7023h-.0442c-8.4827,3.328-9.4763.3022-10.5546-1.31-1.0129-1.5145,6.3159-5.7589,10.4-6.9135,1.5767-.4458,2.0188.319,4.3654.3568,0,0,16.5855.6882,17.6021.5973.9171-.0909,4.7625-1.1017,5.4808-1.2835.0663-.0228.1105-.0341.1105-.0341a15.5769,15.5769,0,0,1,4.8841-.7724c7.4588,0,16.4107,7.6182,16.8734,9.3746v.7731a.9674.9674,0,0,1-1.4758.8465l-2.8521-1.809"/>
    <path fill="none" stroke="#000" stroke-linecap="round" stroke-linejoin="round" stroke-width="2" d="M23.6673,37.2281c.1326.5339,3.2727,12.0447-.011,12.5056s-3.79,1.1586-3.7018,3.4757h8.7517L32.872,49.37"/>
    <path fill="none" stroke="#000" stroke-linecap="round" stroke-linejoin="round" stroke-width="2" d="M50.6155,53.9417H43.8079s-.3684-3.534,2.5783-3.818,2.0719-4.1273,2.0719-4.1273a20.0267,20.0267,0,0,1-9.7789,0"/>
    <path fill="none" stroke="#000" stroke-linecap="round" stroke-linejoin="round" stroke-width="2" d="M55.8671,50.631s-7.2364-6.3521-7.8234-10.9665"/>
    <path fill="none" stroke="#000" stroke-linecap="round" stroke-linejoin="round" stroke-width="2" d="M55.8671,50.631s-6.6033.4392-5.0148,4.2254h9.3464S62.51,54.75,61.5981,49c0,0,3.5266-9.125,1.3985-15.8437"/>
    <path fill="none" stroke="#000" stroke-linecap="round" stroke-linejoin="round" stroke-width="2" d="M17.1768,26.1842s2.3021-.38,1.3813,3.0754"/>
  </g>
</svg>
