<?xml version="1.0" encoding="utf-8"?>
<!-- Generator: Adobe Illustrator 21.1.0, SVG Export Plug-In . SVG Version: 6.00 Build 0)  -->
<svg version="1.1" id="emoji" xmlns="http://www.w3.org/2000/svg" xmlns:xlink="http://www.w3.org/1999/xlink" x="0px" y="0px"
	 viewBox="0 0 72 72" enable-background="new 0 0 72 72" xml:space="preserve">
<g id="_xD83D__xDC3E_">
	<g>
		<path fill="none" stroke="#000000" stroke-width="2" stroke-linecap="round" stroke-linejoin="round" stroke-miterlimit="10" d="
			M34.2,25c0-0.2-0.1-0.4-0.1-0.7c-1-4-4.9-6.5-8.6-5.6c-3.7,0.9-6,5-5,9c0.1,0.2,0.1,0.4,0.2,0.6c-1.2,1.2-1.7,3-1.2,4.8
			c0.7,2.7,3.2,4.3,5.7,3.7c1.7-0.4,3.7-3.5,3.9-3.6c0.2-0.1,3.5,1.7,5.1,1.3c2.5-0.6,4-3.3,3.3-6C37.1,26.9,35.8,25.5,34.2,25z"/>
		
			<ellipse transform="matrix(0.9327 -0.3607 0.3607 0.9327 -3.2047 7.6957)" fill="none" stroke="#000000" stroke-width="2" stroke-linecap="round" stroke-linejoin="round" stroke-miterlimit="10" cx="19" cy="12.4" rx="2.7" ry="3.8"/>
		
			<ellipse transform="matrix(0.8286 -0.5598 0.5598 0.8286 -9.6426 11.5991)" fill="none" stroke="#000000" stroke-width="2" stroke-linecap="round" stroke-linejoin="round" stroke-miterlimit="10" cx="14.1" cy="21.5" rx="2.7" ry="3.8"/>
		
			<ellipse transform="matrix(7.483191e-02 -0.9972 0.9972 7.483191e-02 18.6429 49.7486)" fill="none" stroke="#000000" stroke-width="2" stroke-linecap="round" stroke-linejoin="round" stroke-miterlimit="10" cx="36.1" cy="14.8" rx="3.8" ry="2.7"/>
		
			<ellipse transform="matrix(0.9893 -0.1458 0.1458 0.9893 -1.1975 4.1481)" fill="none" stroke="#000000" stroke-width="2" stroke-linecap="round" stroke-linejoin="round" stroke-miterlimit="10" cx="27.7" cy="10.2" rx="2.7" ry="3.8"/>
	</g>
	<g>
		<path fill="none" stroke="#000000" stroke-width="2" stroke-linecap="round" stroke-linejoin="round" stroke-miterlimit="10" d="
			M52,56.9c0.1-0.2,0.2-0.4,0.2-0.6c1.1-4-1-8.1-4.7-9.1c-3.7-1-7.6,1.4-8.8,5.4c-0.1,0.2-0.1,0.4-0.2,0.7c-1.6,0.5-2.9,1.7-3.4,3.5
			c-0.7,2.7,0.7,5.4,3.2,6.1c1.7,0.5,5-1.2,5.2-1.2s2.2,3.2,3.8,3.7c2.5,0.7,5.1-0.9,5.8-3.6C53.6,59.9,53.1,58.1,52,56.9z"/>
		
			<ellipse transform="matrix(0.1482 -0.989 0.989 0.1482 0.3735 77.2956)" fill="none" stroke="#000000" stroke-width="2" stroke-linecap="round" stroke-linejoin="round" stroke-miterlimit="10" cx="45.1" cy="38.4" rx="3.8" ry="2.7"/>
		
			<ellipse transform="matrix(0.9971 -7.627431e-02 7.627431e-02 0.9971 -3.2453 2.8964)" fill="none" stroke="#000000" stroke-width="2" stroke-linecap="round" stroke-linejoin="round" stroke-miterlimit="10" cx="36.3" cy="43.9" rx="2.7" ry="3.8"/>
		
			<ellipse transform="matrix(0.5586 -0.8295 0.8295 0.5586 -14.6983 70.3506)" fill="none" stroke="#000000" stroke-width="2" stroke-linecap="round" stroke-linejoin="round" stroke-miterlimit="10" cx="58.7" cy="49" rx="3.8" ry="2.7"/>
		
			<ellipse transform="matrix(0.363 -0.9318 0.9318 0.363 -3.8434 76.038)" fill="none" stroke="#000000" stroke-width="2" stroke-linecap="round" stroke-linejoin="round" stroke-miterlimit="10" cx="53.7" cy="40.8" rx="3.8" ry="2.7"/>
	</g>
</g>
</svg>
