<?xml version="1.0" encoding="utf-8"?>
<!-- Generator: Adobe Illustrator 21.1.0, SVG Export Plug-In . SVG Version: 6.00 Build 0)  -->
<svg version="1.1" id="emoji" xmlns="http://www.w3.org/2000/svg" xmlns:xlink="http://www.w3.org/1999/xlink" x="0px" y="0px"
	 viewBox="0 0 72 72" enable-background="new 0 0 72 72" xml:space="preserve">
<g id="_xD83D__xDC38__1_">
	<path fill="none" stroke="#000000" stroke-width="2" stroke-linecap="round" stroke-linejoin="round" stroke-miterlimit="10" d="
		M39.4,22.4c0.5,0,0.9-0.3,1-0.8c0.6-2.1,2.6-6.9,7.7-7.6c7.8-1,11,4.2,11,8.4c0,5.1-2.1,5.2-3.4,7.6c-0.3,0.5-0.4,1.1,0,1.4
		C61,37.1,63.7,61,36,61C11,61,9,41,16.5,31.4c0.3-0.4,0.4-1,0-1.4c-1.5-1.6-4.6-5.7-2.9-9.7C15.7,15,19.8,14,23,14
		c3,0,7.9,1.9,9.2,7.6c0.1,0.5,0.5,0.8,1,0.8L39.4,22.4z"/>
	<path fill="none" stroke="#000000" stroke-width="2" stroke-linecap="round" stroke-linejoin="round" stroke-miterlimit="10" d="
		M22.4,48.5c0,0,13.6,12.5,28.2,0"/>
	<circle cx="22.4" cy="23.4" r="3.1"/>
	<circle cx="49.6" cy="23.4" r="3.1"/>
	<circle cx="31.8" cy="43.2" r="2.1"/>
	<circle cx="40.2" cy="43.2" r="2.1"/>
</g>
</svg>
