<?xml version="1.0" encoding="utf-8"?>
<!-- Generator: Adobe Illustrator 21.1.0, SVG Export Plug-In . SVG Version: 6.00 Build 0)  -->
<svg version="1.1" id="emoji_1_" xmlns="http://www.w3.org/2000/svg" xmlns:xlink="http://www.w3.org/1999/xlink" x="0px" y="0px"
	 viewBox="0 0 72 72" enable-background="new 0 0 72 72" xml:space="preserve">
<g id="_xD83D__xDC4C__3_">
	<path fill="none" stroke="#010101" stroke-width="2" stroke-linecap="round" stroke-linejoin="round" d="M15.5,50.2v-8.1
		c-0.3-1.9,1.1-3.7,3-4c1.9-0.3,3.7,1.1,4,3c0,0.3,0,0.6,0,0.9v5.4"/>
	<path fill="none" stroke="#010101" stroke-width="2" stroke-linecap="round" stroke-linejoin="round" d="M56.5,39.2
		c0.7,2,1.1,4.2,1.1,6.5c0,11.1-9,20.1-20.1,20.1C32.4,66,26.4,63.2,22,59.9c-1.9-1.9-3.7-3.7-4.9-5.1c-0.8-0.6-1.4-2.5-1.5-4.4"/>
	<path fill="none" stroke="#010101" stroke-width="2" stroke-linecap="round" stroke-linejoin="round" d="M33.7,42.2
		c-1.3,3.8-1.2,6.1-3.3,7.2c-3.9-1.4-7.9-1.9-7.9-1.9"/>
	<path fill="none" stroke="#010101" stroke-width="2" stroke-linecap="round" stroke-linejoin="round" d="M28,35.1l-8.9,1.3
		c-1.9,0.5-3.8-0.6-4.3-2.5c-0.5-1.9,0.6-3.8,2.5-4.3c0.3-0.1,0.6-0.1,0.9-0.1L28.3,28c0.7-0.1,1.3-0.1,1.9,0.1"/>
	
		<line fill="none" stroke="#010101" stroke-width="2" stroke-linecap="round" stroke-linejoin="round" x1="33.7" y1="42.2" x2="28" y2="35.1"/>
	<path fill="none" stroke="#010101" stroke-width="2" stroke-linecap="round" stroke-linejoin="round" d="M30.2,28.1
		c0.7,0.1,1.4,0.4,1.9,0.9c0.2,0.2,0.4,0.4,0.6,0.7l6.3,7.4"/>
	<path fill="none" stroke="#010101" stroke-width="2" stroke-linecap="round" stroke-linejoin="round" d="M31.4,24.1L26.1,15
		c-1.2-1.6-0.9-3.8,0.7-4.9c1.6-1.2,3.8-0.9,5,0.7c0.2,0.2,8.1,13.6,10.7,17.9v0"/>
	<path fill="none" stroke="#010101" stroke-width="2" stroke-linecap="round" stroke-linejoin="round" d="M42.4,28.7"/>
	<path fill="none" stroke="#010101" stroke-width="2" stroke-linecap="round" stroke-linejoin="round" d="M50.5,31.2
		C49,25.5,44.8,9.6,44.7,9.3C44,7.5,42,6.6,40.2,7.2c-1.8,0.7-2.8,2.7-2.1,4.6l1.7,6.8"/>
	<path fill="none" stroke="#010101" stroke-width="2" stroke-linecap="round" stroke-linejoin="round" d="M49.8,18
		c-0.2-1.9,1.2-3.7,3.2-3.9c1.9-0.2,3.7,1.2,3.9,3.2c0,0.3-0.3,21.3-0.3,21.3c0,0.2,0,0.4,0,0.5"/>
	
		<line fill="none" stroke="#010101" stroke-width="2" stroke-linecap="round" stroke-linejoin="round" x1="41.8" y1="27.8" x2="45.4" y2="33.4"/>
</g>
</svg>
