<?xml version="1.0" encoding="utf-8"?>
<!-- Generator: Adobe Illustrator 21.1.0, SVG Export Plug-In . SVG Version: 6.00 Build 0)  -->
<svg version="1.1" id="emoji" xmlns="http://www.w3.org/2000/svg" xmlns:xlink="http://www.w3.org/1999/xlink" x="0px" y="0px"
	 viewBox="0 0 72 72" enable-background="new 0 0 72 72" xml:space="preserve">
<g id="_xD83D__xDC4C__1_">
	<path fill="none" stroke="#010101" stroke-width="2" stroke-linecap="round" stroke-linejoin="round" d="M53.4,30.3"/>
	<path fill="none" stroke="#010101" stroke-width="2" stroke-linecap="round" stroke-linejoin="round" d="M49,36.7l-7.3-17.6
		c-0.7-2-2.8-3-4.8-2.4c-1.8,0.9-2.6,3.2-1.7,5l1.2,2.8"/>
	<path fill="none" stroke="#010101" stroke-width="2" stroke-linecap="round" stroke-linejoin="round" d="M49.5,29.4L46.4,8.5
		c-0.2-2.1-2-3.6-4-3.5c-2,0.4-3.3,2.4-2.9,4.4l0.5,3.7"/>
	<path fill="none" stroke="#010101" stroke-width="2" stroke-linecap="round" stroke-linejoin="round" d="M20.3,57l-6-4.1
		c-1.8-1.3-2.4-3.8-1.2-5.7l5.2-8.6c1-1.8,3.2-2.6,5.1-1.6c1.7,1.2,2.3,3.5,1.3,5.4l-0.4,1c-0.9,2-1.2,3.8,0,4.7
		c0.8,0.5,3.1,2.1,3.1,2.1c3.2,1.8,7.2,0.4,9.2-2.2c1.9-2.5,4.3-4.8,0.6-8.6c0,0-2.2-2.8-2.8-3.5c-1-1.1-3.3-0.1-3.3-0.1
		c-2,0.5-4.1-0.7-4.6-2.7c-0.2-2.1,1.2-3.9,3.3-4.2l5.1-1c1.1-0.2,2.2,0.2,2.9,1l8.8,10.4c11,11.6,6.1,15,2.4,20.4
		C39.7,73.5,24.4,59.5,20.3,57z"/>
</g>
</svg>
