<?xml version="1.0" encoding="utf-8"?>
<!-- Generator: Adobe Illustrator 21.1.0, SVG Export Plug-In . SVG Version: 6.00 Build 0)  -->
<svg version="1.1" id="emoji" xmlns="http://www.w3.org/2000/svg" xmlns:xlink="http://www.w3.org/1999/xlink" x="0px" y="0px"
	 viewBox="0 0 72 72" enable-background="new 0 0 72 72" xml:space="preserve">
<g id="_xD83D__xDC4A__xFE0F__1_">
	<path fill="none" stroke="#010101" stroke-width="2" stroke-linecap="round" stroke-linejoin="round" d="M39.1,36v5.4
		c-0.3,1.9,1.1,3.7,3,4s3.7-1.1,4-3c0-0.3,0-0.6,0-0.9l0-15.8"/>
	<path fill="none" stroke="#010101" stroke-width="2" stroke-linecap="round" stroke-linejoin="round" d="M18,27.7l0,8.6
		c-0.3,1.9,1.1,3.7,3,4s3.7-1.1,4-3c0-0.3,0-0.6,0-0.9v-1"/>
	<path fill="none" stroke="#010101" stroke-width="2" stroke-linecap="round" stroke-linejoin="round" d="M32,32l0,11.2
		c-0.3,1.9,1.1,3.7,3,4s3.7-1.1,4-3c0-0.3,0-0.6,0-0.9l0.1-12.2"/>
	<path fill="none" stroke="#010101" stroke-width="2" stroke-linecap="round" stroke-linejoin="round" d="M25,32.6l0,8.7
		c-0.3,1.9,1.1,3.7,3,4s3.7-1.1,4-3c0-0.3,0-2.7,0-3v-3.9"/>
	<path fill="none" stroke="#010101" stroke-width="2" stroke-linecap="round" stroke-linejoin="round" d="M25,27.7
		c0.3-1.9-1.1-3.7-3-4s-3.7,1.1-4,3c0,0.3,0,0.6,0,0.9"/>
	<path fill="none" stroke="#010101" stroke-width="2" stroke-linecap="round" stroke-linejoin="round" d="M46.1,25.7
		c0.3-1.9-1.1-3.7-3-4s-3.7,1.1-4,3"/>
	<path fill="none" stroke="#010101" stroke-width="2" stroke-linecap="round" stroke-linejoin="round" d="M32.1,26.7
		c0.3-1.9-1.1-3.7-3-4s-3.7,1.1-4,3c0,0.3,0,0.6,0,0.9"/>
	<path fill="none" stroke="#010101" stroke-width="2" stroke-linecap="round" stroke-linejoin="round" d="M39.1,25.8
		c0.3-1.9-1.1-3.7-3-4s-3.7,1.1-4,3"/>
	<path fill="none" stroke="#010101" stroke-width="2" stroke-linecap="round" stroke-linejoin="round" d="M49.7,37"/>
	<g>
		<path fill="none" stroke="#010101" stroke-width="2" stroke-linecap="round" stroke-linejoin="round" d="M51,47.4
			c-0.2,2.2-2,4-4.2,4h-10"/>
		
			<line fill="none" stroke="#010101" stroke-width="2" stroke-linecap="round" stroke-linejoin="round" x1="51" y1="47.4" x2="51" y2="33.1"/>
		<path fill="none" stroke="#1D1D1B" stroke-width="2" stroke-linecap="round" stroke-linejoin="round" stroke-miterlimit="10" d="
			M36.8,51.4c-2,0-5.7,0.5-5.7-2.4"/>
		<path fill="none" stroke="#1D1D1B" stroke-width="2" stroke-linecap="round" stroke-linejoin="round" stroke-miterlimit="10" d="
			M51,33.1c0-1.5,0-3.2-1.6-3.2"/>
	</g>
</g>
</svg>
