<svg version="1.1" id="emoji" xmlns="http://www.w3.org/2000/svg" x="0" y="0" viewBox="0 0 72 72" enable-background="new 0 0 72 72" xml:space="preserve">
  <g id="line">
    <path fill="none" stroke="#000000" stroke-width="2" stroke-linecap="round" stroke-linejoin="round" stroke-miterlimit="10" d="M55.4792,47.6473c0,9.0883-7.3675,16.4558-16.4558,16.4558s-16.4558-7.3675-16.4558-16.4558"/>
    <line fill="none" stroke="#000000" stroke-width="2" stroke-linecap="round" stroke-linejoin="round" stroke-miterlimit="10" x1="55.4792" y1="46.7738" x2="55.4792" y2="34.7738"/>
    <path fill="none" stroke="#000000" stroke-width="2" stroke-linecap="round" stroke-linejoin="round" stroke-miterlimit="10" d="M48.4869,34.4804c0.081-1.9313,1.7123-3.4313,3.6436-3.3502c1.9313,0.081,3.4312,1.7123,3.3502,3.6436"/>
    <path fill="none" stroke="#000000" stroke-width="2" stroke-linecap="round" stroke-linejoin="round" stroke-miterlimit="10" d="M41.49,34.2475c0.081-1.9313,1.7123-3.4312,3.6436-3.3502s3.4313,1.7123,3.3502,3.6436"/>
    <path fill="none" stroke="#000000" stroke-width="2" stroke-linecap="round" stroke-linejoin="round" stroke-miterlimit="10" d="M41.494,34.1136c0.155-1.9268,1.8426-3.3631,3.7694-3.2081s3.3631,1.8426,3.2081,3.7694"/>
    <path fill="none" stroke="#000000" stroke-width="2" stroke-linecap="round" stroke-linejoin="round" stroke-miterlimit="10" d="M34.4524,33.7692c0.1237-1.929,1.7878-3.3925,3.7168-3.2688s3.3925,1.7878,3.2688,3.7168"/>
    <path fill="none" stroke="#000000" stroke-width="2" stroke-linecap="round" stroke-linejoin="round" stroke-miterlimit="10" d="M17.4986,35.9928c-1.3429-1.3904-1.3044-3.6061,0.086-4.949c1.3904-1.3429,3.6061-1.3044,4.949,0.086"/>
    <path fill="none" stroke="#000000" stroke-width="2" stroke-linecap="round" stroke-linejoin="round" stroke-miterlimit="10" d="M27.4524,11.3969c0-1.933,1.567-3.5,3.5-3.5s3.5,1.567,3.5,3.5"/>
    <line fill="none" stroke="#000000" stroke-width="2" stroke-linecap="round" stroke-linejoin="round" stroke-miterlimit="10" x1="34.4524" y1="33.7321" x2="34.4524" y2="11.3969"/>
    <line fill="none" stroke="#000000" stroke-width="2" stroke-linecap="round" stroke-linejoin="round" stroke-miterlimit="10" x1="27.4524" y1="11.3969" x2="27.4524" y2="39.1875"/>
    <line fill="none" stroke="#000000" stroke-width="2" stroke-linecap="round" stroke-linejoin="round" stroke-miterlimit="10" x1="24.4916" y1="33.3435" x2="22.5336" y2="31.1298"/>
    <path fill="none" stroke="#000000" stroke-width="2" stroke-linecap="round" stroke-linejoin="round" stroke-miterlimit="10" d="M19.2663,38.3125c1.9526,2.1439,3.3734,5.1677,3.3013,9.5218"/>
    <line fill="none" stroke="#000000" stroke-width="2" stroke-linecap="round" stroke-linejoin="round" stroke-miterlimit="10" x1="17.4986" y1="35.9928" x2="19.32" y2="38.373"/>
  </g>
</svg>
