<?xml version="1.0" encoding="utf-8"?>
<!-- Generator: Adobe Illustrator 21.1.0, SVG Export Plug-In . SVG Version: 6.00 Build 0)  -->
<svg version="1.1" id="emoji" xmlns="http://www.w3.org/2000/svg" xmlns:xlink="http://www.w3.org/1999/xlink" x="0px" y="0px"
	 viewBox="0 0 72 72" enable-background="new 0 0 72 72" xml:space="preserve">
<g id="_xD83D__xDC42__xFE0F_">
	<path fill="none" stroke="#1D1D1B" stroke-width="2" stroke-linecap="round" stroke-linejoin="round" stroke-miterlimit="10" d="
		M26.1,19.6C30.8,2.1,61,7.9,49.7,36C35.1,71.8,17.8,61,20.9,49.3"/>
	<path fill="none" stroke="#1D1D1B" stroke-width="2" stroke-linecap="round" stroke-linejoin="round" stroke-miterlimit="10" d="
		M35.1,28c4.4,7,7.4,13.5,1.4,16.2c-1.4,0.6-2.9,0.4-4.4,1.2c-1.5,0.7-1.8,1.3-3.6,3.3c-2.6,2.1-5.8-1.5-4-3.7
		c3.1-3.4,6.4-3.9,4.7-7.2c-1.2-2.2-0.4-5.3,3.5-4.2"/>
	<path fill="none" stroke="#1D1D1B" stroke-width="2" stroke-linecap="round" stroke-linejoin="round" stroke-miterlimit="10" d="
		M29.7,23.9c4-15.9,24.8-10.3,15.2,11.1"/>
</g>
</svg>
