<svg id="emoji" viewBox="0 0 72 72" xmlns="http://www.w3.org/2000/svg">
  <g id="line">
    <path fill="none" stroke="#000000" stroke-linecap="round" stroke-linejoin="round" stroke-miterlimit="10" stroke-width="2" d="M26.125,19.625C30.75,2.0833,61,7.875,49.6875,35.9583c-14.5919,35.7917-31.875,25-28.8125,13.3229"/>
    <path fill="none" stroke="#000000" stroke-linecap="round" stroke-linejoin="round" stroke-miterlimit="10" stroke-width="2" d="M35.1031,28C39.5417,35,42.5,41.5417,36.5,44.25c-1.3969,0.5735-2.8765,0.4132-4.3824,1.1735 c-1.5343,0.7223-1.8192,1.3265-3.6385,3.2848c-2.5625,2.0625-5.7708-1.5465-3.9583-3.6875 c3.0729-3.3958,6.4479-3.9271,4.6667-7.2083c-1.2187-2.2047-0.4062-5.2812,3.5-4.1562"/>
    <path fill="none" stroke="#000000" stroke-linecap="round" stroke-linejoin="round" stroke-miterlimit="10" stroke-width="2" d="M29.6819,23.9375c3.9744-15.875,24.8326-10.2582,15.2399,11.1183"/>
  </g>
</svg>
