<?xml version="1.0" encoding="utf-8"?>
<!-- Generator: Adobe Illustrator 21.1.0, SVG Export Plug-In . SVG Version: 6.00 Build 0)  -->
<svg version="1.1" id="emoji" xmlns="http://www.w3.org/2000/svg" xmlns:xlink="http://www.w3.org/1999/xlink" x="0px" y="0px"
	 viewBox="0 0 72 72" enable-background="new 0 0 72 72" xml:space="preserve">
<g id="_xD83D__xDC5F_">
	<path fill="none" stroke="#1D1D1B" stroke-width="2" stroke-linecap="round" stroke-linejoin="round" stroke-miterlimit="10" d="
		M7,52.1c-2.2-1.9-3-8.3-3-11.4c0-2.8,1.1-10.3,3-12.1c0,0,2.7-1.1,4,0c4.5,3.7,13.7,12.2,25,0c0,0,17.6,8.3,22.3,9.5
		c8.1,2.1,8.4,4.1,8.4,6.8c0,8.7-10.1,7.5-16.8,7.2C46.2,51.9,11.1,52.3,7,52.1"/>
	<path fill="none" stroke="#1D1D1B" stroke-width="2" stroke-linecap="round" stroke-linejoin="round" stroke-miterlimit="10" d="
		M8,46.8c0,0,15.1-2.5,24.5,0.1s28.3,1.2,28.3,1.2"/>
	
		<line fill="none" stroke="#1D1D1B" stroke-width="2" stroke-linecap="round" stroke-linejoin="round" stroke-miterlimit="10" x1="40.4" y1="36" x2="35.4" y2="41.9"/>
	
		<line fill="none" stroke="#1D1D1B" stroke-width="2" stroke-linecap="round" stroke-linejoin="round" stroke-miterlimit="10" x1="45.5" y1="37.8" x2="42" y2="41.9"/>
</g>
</svg>
