<svg id="emoji" viewBox="0 0 72 72" xmlns="http://www.w3.org/2000/svg">
  <g id="line">
    <path fill="none" stroke="#000000" stroke-linecap="round" stroke-linejoin="round" stroke-miterlimit="10" stroke-width="2" d="M30.6989,41.7122c-2.2463,3.325-7.0505,5.5111-11.3652,5.5111c-6.9036,0-12.5-5.5964-12.5-12.5l-0.105-4.9141l-1.895,0.0501 v-4.1273c0,0,18.9318-16.1788,29.4804,5.3212h2.9812h0.4615h2.9812c10.5486-21.5,29.4804-5.3212,29.4804-5.3212v4.1273 l-1.895-0.0501l-0.105,4.9141c0,6.9036-5.5964,12.5-12.5,12.5c-4.3147,0-9.1189-2.1861-11.3652-5.5111"/>
    <path fill="none" stroke="#000000" stroke-linecap="round" stroke-linejoin="round" stroke-miterlimit="10" stroke-width="2" d="M34.761,37.7063c0-1.6569,1.3431-3,3-3c1.6569,0,3,1.3431,3,3"/>
    <circle cx="19.7664" cy="33.5577" r="9.5798" fill="none" stroke="#000000" stroke-linecap="round" stroke-linejoin="round" stroke-miterlimit="10" stroke-width="1.8457"/>
    <circle cx="55.2856" cy="33.5577" r="9.5798" fill="none" stroke="#000000" stroke-linecap="round" stroke-linejoin="round" stroke-miterlimit="10" stroke-width="1.8457"/>
  </g>
</svg>
