<?xml version="1.0" encoding="utf-8"?>
<!-- Generator: Adobe Illustrator 21.1.0, SVG Export Plug-In . SVG Version: 6.00 Build 0)  -->
<svg version="1.1" id="emoji" xmlns="http://www.w3.org/2000/svg" xmlns:xlink="http://www.w3.org/1999/xlink" x="0px" y="0px"
	 viewBox="0 0 72 72" enable-background="new 0 0 72 72" xml:space="preserve">
<g id="_xD83D__xDC50_">
	<path fill="none" stroke="#010101" stroke-width="2" stroke-linecap="round" stroke-linejoin="round" d="M6.5,24.3
		C5.7,23.2,4.1,23,3,23.8s-1.3,2.4-0.5,3.5c0.1,0.2,0.3,0.3,0.5,0.5l9.4,9.7l0.9,0.9L8.1,33c-0.8-1.1-2.4-1.3-3.5-0.5
		c-1.1,0.8-1.3,2.4-0.5,3.5c0.1,0.2,0.3,0.3,0.5,0.5l6.4,6.6l5.1,5c4.4,4,10.7,3,14.7-1.4c2.3-2.5,3.5-5.8,3.6-9.2
		c-0.1-3-0.7-10.9-0.7-10.9c-0.3-1.8-2.6-2.9-2.8-1.9l-2.6,7.3l-2.7-2.7l2.7,2.7l-2.7-2.7l-11-11c-0.8-1.1-2.4-1.3-3.5-0.5
		c-1.1,0.8-1.3,2.4-0.5,3.5c0.1,0.2,0.3,0.3,0.5,0.5l3.5,3.6l4.8,4.9L8.7,19.4c-0.8-1.1-2.4-1.3-3.5-0.5c-1.1,0.8-1.3,2.4-0.5,3.5
		c0.1,0.2,0.3,0.3,0.5,0.5l9.6,9.7"/>
	<path fill="none" stroke="#010101" stroke-width="2" stroke-linecap="round" stroke-linejoin="round" d="M65.8,24.3
		c0.8-1.1,2.4-1.3,3.5-0.5s1.3,2.4,0.5,3.5c-0.1,0.2-0.3,0.3-0.5,0.5L60,37.4l-0.9,0.9l5.2-5.3c0.8-1.1,2.4-1.3,3.5-0.5
		c1.1,0.8,1.3,2.4,0.5,3.5c-0.1,0.2-0.3,0.3-0.5,0.5l-6.4,6.6l-5.1,5c-4.4,4-10.7,3-14.7-1.4c-2.3-2.5-3.5-5.8-3.6-9.2
		c0.1-3,0.7-10.9,0.7-10.9c0.3-1.8,2.6-2.9,2.8-1.9l2.6,7.3l2.7-2.7l-2.7,2.7l2.7-2.7l11-11c0.8-1.1,2.4-1.3,3.5-0.5
		c1.1,0.8,1.3,2.4,0.5,3.5c-0.1,0.2-0.3,0.3-0.5,0.5l-3.5,3.6l-4.8,4.9l10.5-10.8c0.8-1.1,2.4-1.3,3.5-0.5c1.1,0.8,1.3,2.4,0.5,3.5
		c-0.1,0.2-0.3,0.3-0.5,0.5l-9.6,9.7"/>
</g>
</svg>
