<?xml version="1.0" encoding="utf-8"?>
<!-- Generator: Adobe Illustrator 21.1.0, SVG Export Plug-In . SVG Version: 6.00 Build 0)  -->
<svg version="1.1" id="emoji" xmlns="http://www.w3.org/2000/svg" xmlns:xlink="http://www.w3.org/1999/xlink" x="0px" y="0px"
	 viewBox="0 0 72 72" enable-background="new 0 0 72 72" xml:space="preserve">
<g id="_xD83D__xDC59__1_">
	<path fill="none" stroke="#1D1D1B" stroke-width="2" stroke-linecap="round" stroke-linejoin="round" stroke-miterlimit="10" d="
		M40,31.5c0,0,5.4,2.9,11.7,0c0-6.9-5.7-10.6-5.7-10.6S40,24.6,40,31.5z"/>
	<path fill="none" stroke="#1D1D1B" stroke-width="2" stroke-linecap="round" stroke-linejoin="round" stroke-miterlimit="10" d="
		M20.1,31.5c0,0,5.4,2.9,11.7,0C31.7,24.6,26,21,26,21S20.1,24.6,20.1,31.5z"/>
	
		<line fill="none" stroke="#1D1D1B" stroke-width="2" stroke-linecap="round" stroke-linejoin="round" stroke-miterlimit="10" x1="34.9" y1="31.8" x2="36.8" y2="31.8"/>
	
		<line fill="none" stroke="#1D1D1B" stroke-width="2" stroke-linecap="round" stroke-linejoin="round" stroke-miterlimit="10" x1="25.9" y1="11" x2="25.9" y2="17.3"/>
	
		<line fill="none" stroke="#1D1D1B" stroke-width="2" stroke-linecap="round" stroke-linejoin="round" stroke-miterlimit="10" x1="45.8" y1="11" x2="45.8" y2="17.3"/>
	<path fill="none" stroke="#1D1D1B" stroke-width="2" stroke-linecap="round" stroke-linejoin="round" stroke-miterlimit="10" d="
		M35.9,46.6H23.3c0,0,4.6,2.9,7.6,6.5c2.9,3.6,5,7,5,7h0c0,0,2.1-3.4,5-7c2.9-3.6,7.6-6.5,7.6-6.5H35.9"/>
</g>
</svg>
