<?xml version="1.0" encoding="utf-8"?>
<!-- Generator: Adobe Illustrator 21.1.0, SVG Export Plug-In . SVG Version: 6.00 Build 0)  -->
<svg version="1.1" id="emoji" xmlns="http://www.w3.org/2000/svg" xmlns:xlink="http://www.w3.org/1999/xlink" x="0px" y="0px"
	 viewBox="0 0 72 72" enable-background="new 0 0 72 72" xml:space="preserve">
<g id="_xD83D__xDC53__xFE0F__2_">
	<path fill="none" stroke="#000000" stroke-width="2" stroke-linecap="round" stroke-linejoin="round" stroke-miterlimit="10" d="
		M36.6,31.1h-3C23,9.6,4.1,25.7,4.1,25.7v4.1L6,29.8l0.1,4.9c0,6.9,5.6,12.5,12.5,12.5c4.3,0,9.1-2.2,11.4-5.5"/>
	<path fill="none" stroke="#000000" stroke-width="2" stroke-linecap="round" stroke-linejoin="round" stroke-miterlimit="10" d="
		M34,37.7c0-1.7,1.3-3,3-3s3,1.3,3,3"/>
	
		<circle fill="none" stroke="#000000" stroke-width="1.8457" stroke-linecap="round" stroke-linejoin="round" stroke-miterlimit="10" cx="19" cy="33.6" r="9.6"/>
	<path fill="none" stroke="#000000" stroke-width="2" stroke-linecap="round" stroke-linejoin="round" stroke-miterlimit="10" d="
		M37,31.1h3c10.5-21.5,29.5-5.3,29.5-5.3v4.1l-1.9-0.1l-0.1,4.9c0,6.9-5.6,12.5-12.5,12.5c-4.3,0-9.1-2.2-11.4-5.5"/>
	
		<circle fill="none" stroke="#000000" stroke-width="1.8457" stroke-linecap="round" stroke-linejoin="round" stroke-miterlimit="10" cx="54.6" cy="33.6" r="9.6"/>
</g>
</svg>
