<?xml version="1.0" encoding="utf-8"?>
<!-- Generator: Adobe Illustrator 21.1.0, SVG Export Plug-In . SVG Version: 6.00 Build 0)  -->
<svg version="1.1" id="emoji" xmlns="http://www.w3.org/2000/svg" xmlns:xlink="http://www.w3.org/1999/xlink" x="0px" y="0px"
	 viewBox="0 0 72 72" enable-background="new 0 0 72 72" xml:space="preserve">
<g id="_xD83D__xDC54__1_">
	<path fill="none" stroke="#1D1D1B" stroke-width="2" stroke-linecap="round" stroke-linejoin="round" stroke-miterlimit="10" d="
		M56,46"/>
	<path fill="none" stroke="#1D1D1B" stroke-width="2" stroke-linecap="round" stroke-linejoin="round" stroke-miterlimit="10" d="
		M55,13.9c3.3,0,6,2.7,6,6v38.1c0,3.3-2.7,6-6,6H17c-3.3,0-6-2.7-6-6V19.8c0-3.3,2.7-6,6-6"/>
	<path fill="none" stroke="#1D1D1B" stroke-width="2" stroke-linecap="round" stroke-linejoin="round" stroke-miterlimit="10" d="
		M25.2,14l7.8,8.4l-5,8c-11.1-13.8-7.3-17.5-7.3-17.5s14.4-13,30.6,0c0,0,3.8,3.8-7.3,17.5l-5-8l7.9-8.5"/>
	<path fill="none" stroke="#1D1D1B" stroke-width="2" stroke-linecap="round" stroke-linejoin="round" stroke-miterlimit="10" d="
		M20.7,13.9"/>
	
		<polygon fill="none" stroke="#1D1D1B" stroke-width="2" stroke-linecap="round" stroke-linejoin="round" stroke-miterlimit="10" points="
		37.5,31.7 34.5,31.7 30.5,63.9 41.5,63.9 	"/>
	
		<polygon fill="none" stroke="#1D1D1B" stroke-width="2" stroke-linecap="round" stroke-linejoin="round" stroke-miterlimit="10" points="
		37.5,24.7 34.5,24.7 33,28.2 34.5,31.7 37.5,31.7 39,28.2 	"/>
</g>
</svg>
