<svg id="emoji" viewBox="0 0 72 72" xmlns="http://www.w3.org/2000/svg">
  <g id="line">
    <path fill="none" stroke="#000000" stroke-linecap="round" stroke-linejoin="round" stroke-miterlimit="10" stroke-width="2" d="M7,52.0608c-2.2485-1.8528-3-8.2556-3-11.3966c0-2.7896,1.1307-10.3151,2.9588-12.1432c0,0,2.6586-1.1324,4.0412,0 c4.5288,3.7092,13.6575,12.2147,25.0042,0c0,0,17.5773,8.3421,22.3198,9.5458c8.1427,2.0668,8.4167,4.1197,8.4167,6.8223 c0,8.6515-10.0838,7.5391-16.8102,7.1718C46.2237,51.8584,11.1297,52.2863,7,52.0608"/>
    <path fill="none" stroke="#000000" stroke-linecap="round" stroke-linejoin="round" stroke-miterlimit="10" stroke-width="2" d="M8,46.8163c0,0,15.134-2.4608,24.4956,0.1105s28.3456,1.2299,28.3456,1.2299"/>
    <line x1="40.4419" x2="35.3703" y1="35.9583" y2="41.8963" fill="none" stroke="#000000" stroke-linecap="round" stroke-linejoin="round" stroke-miterlimit="10" stroke-width="2"/>
    <line x1="45.5264" x2="41.9942" y1="37.7606" y2="41.8963" fill="none" stroke="#000000" stroke-linecap="round" stroke-linejoin="round" stroke-miterlimit="10" stroke-width="2"/>
    <path fill="none" stroke="#000000" stroke-linecap="round" stroke-linejoin="round" stroke-miterlimit="10" stroke-width="2" d="M7,52.0608c-2.2485-1.8528-3-8.2556-3-11.3966c0-2.7896,1.1307-10.3151,2.9588-12.1432c0,0,2.6586-1.1324,4.0412,0 c4.5288,3.7092,13.6575,12.2147,25.0042,0c0,0,17.5773,8.3421,22.3198,9.5458c8.1427,2.0668,8.4167,4.1197,8.4167,6.8223 c0,8.6515-10.0838,7.5391-16.8102,7.1718C46.2237,51.8584,11.1297,52.2863,7,52.0608"/>
  </g>
</svg>
