<svg id="emoji" viewBox="0 0 72 72" xmlns="http://www.w3.org/2000/svg">
  <g id="line">
    <path fill="none" stroke="#000" stroke-linecap="round" stroke-linejoin="round" stroke-width="2" d="m16.1319,13.7776c-3.292,0-5.9607,2.6687-5.9607,5.9607v38.0785c0,3.292,2.6687,5.9607,5.9607,5.9607h38.0785c3.292,0,5.9607-2.6687,5.9607-5.9607V19.7383c0-3.292-2.6687-5.9607-5.9607-5.9607"/>
    <path fill="none" stroke="#000" stroke-linecap="round" stroke-linejoin="round" stroke-width="2" d="m24.3844,13.8748l7.8234,8.4142-4.9887,8.0302c-11.1293-13.7647-7.3184-17.5417-7.3184-17.5417,0,0,14.3783-13,30.6143,0,0,0,3.8109,3.7769-7.3184,17.5417l-4.9887-8.0302,7.9138-8.5115"/>
    <polygon fill="none" stroke="#000" stroke-linecap="round" stroke-linejoin="round" stroke-width="2" points="36.6791 31.6198 33.6717 31.6198 29.6463 63.7776 40.696 63.7776 36.6791 31.6198"/>
    <polygon fill="none" stroke="#000" stroke-linecap="round" stroke-linejoin="round" stroke-width="2" points="36.6791 24.6625 33.6717 24.6625 32.168 28.1411 33.6717 31.6198 36.6791 31.6198 38.1829 28.1411 36.6791 24.6625"/>
  </g>
</svg>
