<?xml version="1.0" encoding="utf-8"?>
<!-- Generator: Adobe Illustrator 21.1.0, SVG Export Plug-In . SVG Version: 6.00 Build 0)  -->
<svg version="1.1" id="Ebene_3" xmlns="http://www.w3.org/2000/svg" xmlns:xlink="http://www.w3.org/1999/xlink" x="0px" y="0px"
	 viewBox="0 0 72 72" enable-background="new 0 0 72 72" xml:space="preserve">
<g id="_xD83D__xDC55__1_">
	
		<polyline fill="none" stroke="#1D1D1B" stroke-width="1.7899" stroke-linecap="round" stroke-linejoin="round" stroke-miterlimit="10" points="
		48.3,15.2 51.2,16 51.2,56 20.8,56 20.8,16 23.5,15.2 	"/>
	
		<polygon fill="none" stroke="#1D1D1B" stroke-width="1.7899" stroke-linecap="round" stroke-linejoin="round" stroke-miterlimit="10" points="
		61,31.3 51.2,28.3 51.2,16 64,22 	"/>
	
		<polygon fill="none" stroke="#1D1D1B" stroke-width="1.7899" stroke-linecap="round" stroke-linejoin="round" stroke-miterlimit="10" points="
		11,31.3 20.8,28.3 20.8,16 8,22 	"/>
	<path fill="none" stroke="#1D1D1B" stroke-width="2" stroke-linecap="round" stroke-linejoin="round" stroke-miterlimit="10" d="
		M29.4,12.4l4.5,4.9l-3.2,5.2C23.6,13.6,26,11.1,26,11.1s9.2-8.4,19.7,0c0,0,2.5,2.4-4.7,11.3l-3.2-5.2l4.5-4.8"/>
	<circle fill="#1D1D1B" cx="35.9" cy="21.7" r="0.9"/>
	<circle fill="#1D1D1B" cx="35.9" cy="24.9" r="0.9"/>
	<circle fill="#1D1D1B" cx="35.9" cy="28.2" r="0.9"/>
</g>
</svg>
