<?xml version="1.0" encoding="utf-8"?>
<!-- Generator: Adobe Illustrator 21.1.0, SVG Export Plug-In . SVG Version: 6.00 Build 0)  -->
<svg version="1.1" id="emoji" xmlns="http://www.w3.org/2000/svg" xmlns:xlink="http://www.w3.org/1999/xlink" x="0px" y="0px"
	 viewBox="0 0 72 72" enable-background="new 0 0 72 72" xml:space="preserve">
<g id="_xD83D__xDC69__x200D__xD83C__xDFA4_">
	<path fill="#000100" d="M41.9,27.1c0,1.1-0.9,2-2,2s-2-0.9-2-2c0-1.1,0.9-2,2-2S41.9,26,41.9,27.1"/>
	<path fill="#000100" d="M33.9,27.1c0,1.1-0.9,2-2,2s-2-0.9-2-2c0-1.1,0.9-2,2-2S33.9,26,33.9,27.1"/>
	<path fill="#000100" d="M35.9,37.1c-1.2,0-2.3-0.3-3.4-0.9C32,36,31.8,35.4,32,34.9c0.2-0.5,0.8-0.7,1.3-0.4c1.7,0.9,3.4,0.9,5.1,0
		c0.5-0.2,1.1,0,1.3,0.4c0.2,0.5,0,1.1-0.4,1.3C38.2,36.8,37.1,37.1,35.9,37.1z"/>
	<path fill="none" stroke="#000000" stroke-width="2" stroke-linecap="round" stroke-linejoin="round" stroke-miterlimit="10" d="
		M25,32.3c1.3,6,5.7,10.3,10.9,10.3c5,0,9.2-4,10.7-9.6"/>
	<path fill="none" stroke="#000000" stroke-width="2" stroke-linecap="round" stroke-linejoin="round" stroke-miterlimit="10" d="
		M54.7,57.9c0,0,2-13-10-13c-3.2,2.1-5.9,3.6-9,3.6h0.1c-3.1,0-5.8-1.5-9-3.6c-12,0-10,13-10,13"/>
	
		<rect x="58.3" y="37.9" transform="matrix(0.7071 -0.7071 0.7071 0.7071 -12.8156 55.3019)" fill="none" stroke="#000000" stroke-width="2" stroke-linecap="round" stroke-linejoin="round" stroke-miterlimit="10" width="4" height="10.4"/>
	
		<ellipse transform="matrix(0.7071 -0.7071 0.7071 0.7071 -10.1644 48.6326)" fill="none" stroke="#000000" stroke-width="2" stroke-linecap="round" stroke-linejoin="round" stroke-miterlimit="10" cx="53.6" cy="36.6" rx="4" ry="4"/>
	
		<line fill="none" stroke="#000000" stroke-width="2" stroke-linecap="round" stroke-linejoin="round" stroke-miterlimit="10" x1="64.3" y1="47" x2="67.1" y2="49.8"/>
	
		<line fill="none" stroke="#000000" stroke-width="2" stroke-linecap="round" stroke-linejoin="round" stroke-miterlimit="10" x1="58.9" y1="44.8" x2="58.9" y2="58.8"/>
	<path fill="none" stroke="#000000" stroke-width="2" stroke-linecap="round" stroke-linejoin="round" stroke-miterlimit="10" d="
		M38.7,14.7c0,0-3.6-6.2-10.1-0.8s-7.5,10.5-8,12.7c-0.5,2.2-0.3,4.4-2.1,4.6c-1.7,0.2-2.6,3.1-1.7,4.5c0.9,1.4,0.7,4.4-1.2,4.9
		c-1.9,0.5-3.5,3.7-1.4,5.9"/>
	<path fill="none" stroke="#000000" stroke-width="2" stroke-linecap="round" stroke-linejoin="round" stroke-miterlimit="10" d="
		M39,14.4c0,0,2.3-2.2,4.7-0.5c6.8,4.9,7.5,10.5,8,12.7c0.1,0.4,0.2,0.8,0.2,1.2c0.1,0.5,0.1,0.9,0.2,1.3"/>
	<path fill="none" stroke="#000000" stroke-width="2" stroke-linecap="round" stroke-linejoin="round" stroke-miterlimit="10" d="
		M47.2,33.5c-2-1.5,0-6.9,0-6.9c-2.2-0.5-8.2-8.2-8.2-8.2s-0.7,2.2-2.7,3.1l-0.8-4.8c0,0-6.2,9-11,9.9c0,0,3.6,4.3,0.1,6.1
		c-3.5,1.7-2.6,4.9-1,5.2"/>
	<path fill="none" stroke="#000000" stroke-width="2" stroke-linecap="round" stroke-linejoin="round" stroke-miterlimit="10" d="
		M45.1,44.9c0,0-0.3,11.8-8.9,13h-0.9c-8.6-1.1-8.9-13-8.9-13"/>
	
		<line fill="none" stroke="#000000" stroke-width="2" stroke-linecap="round" stroke-linejoin="round" stroke-miterlimit="10" x1="21.5" y1="46.3" x2="21.5" y2="57.9"/>
	
		<line fill="none" stroke="#000000" stroke-width="2" stroke-linecap="round" stroke-linejoin="round" stroke-miterlimit="10" x1="50.5" y1="46.3" x2="50.5" y2="58"/>
</g>
</svg>
