<svg version="1.1" id="emoji" xmlns="http://www.w3.org/2000/svg" x="0" y="0" viewBox="0 0 72 72" enable-background="new 0 0 72 72" xml:space="preserve">
  <g id="line">
    <path fill="none" stroke="#000000" stroke-width="2" stroke-miterlimit="10" d="M25.8523,40.1741 c0.0175,0.2939,0.0264,0.5909,0.0264,0.8906c0,6.2672-3.8951,11.3478-8.6999,11.3478s-8.6999-5.0806-8.6999-11.3478 c0-0.2217,0.0049-0.4419,0.0145-0.6604"/>
    <path fill="none" stroke="#000000" stroke-width="2" stroke-linecap="round" stroke-linejoin="round" d="M38.7396,54.0216 c-3.0261-4.5391-0.6324-7.7793,0.7565-11.3478c1.2369-3.1774-0.1581-4.8803,0.9767-9.1039 c1.1189-4.1608,5.5052-6.7829,10.3711-6.7829c4.0852,0,6.0521,2.2696,6.0521,2.2696c3.1538,0.283,5.5777,2.9137,5.602,6.0801 c0.2928,5.4318,0.7747,5.4106,2.5941,9.7001c1.3287,3.0755,0.7903,6.6391-1.3875,9.1849"/>
    <path fill="none" stroke="#000000" stroke-width="2" stroke-miterlimit="10" d="M43.2787,41.9173 c0,6.0521,3.7826,10.5912,8.3217,10.5912s8.3217-4.5391,8.3217-10.5912c0-3.7826-1.513-6.0521-4.5391-9.0782 c-3.0261,3.0261-12.1043,6.8087-12.1043,8.3217V41.9173z"/>
    <path fill="none" stroke="#000000" stroke-width="2" stroke-linecap="round" stroke-linejoin="round" d="M16.9073,47.4287 c0.6425,0.6853,1.4135,0.6853,2.0561,0"/>
    <path fill="none" stroke="#000000" stroke-width="2" stroke-linecap="round" stroke-linejoin="round" d="M49.3308,47.4021 c0.6425,0.7565,1.4135,0.7565,2.0559,0"/>
    <path fill="none" stroke="#000000" stroke-width="2" stroke-linecap="round" stroke-miterlimit="10" d="M54.0104,41.0647 c0,0,1.513,1.513,3.0261,0"/>
    <path fill="none" stroke="#000000" stroke-width="2" stroke-linecap="round" stroke-miterlimit="10" d="M46.4452,41.8212 c0,0,1.513,1.513,3.0261,0"/>
    <path fill="none" stroke="#000000" stroke-width="2" stroke-linecap="round" stroke-miterlimit="10" d="M19.2106,41.8212 c0,0,1.513,1.513,3.0261,0"/>
    <path fill="none" stroke="#000000" stroke-width="2" stroke-linecap="round" stroke-miterlimit="10" d="M11.6454,41.0647 c0,0,1.513,1.513,3.0261,0"/>
    <path fill="none" stroke="#000000" stroke-width="2" stroke-linecap="round" stroke-linejoin="round" d="M6.2093,35.7691 c0.6446-8.7616,7.2633-8.8549,10.5912-8.3217c0.3231,0.0518,1.2284,0.0356,1.513,0c6.0521-0.7565,9.0782,6.0521,9.0782,9.0782 c0,1.0705,0,3.7826-1.513,5.2956c0,0-3.4648-4.1939-3.6237-6.6361c0,0-11.5066,4.3665-12.2632,0.5839 c0,0-0.7565,3.0261-1.513,3.7826c0,0,0,2.2696,0,3.0261C8.4789,42.5778,5.9318,39.5415,6.2093,35.7691z"/>
    <path fill="none" stroke="#000000" stroke-width="2" stroke-linecap="round" stroke-linejoin="round" d="M33.4418,35.6846 l-7.9509-10.1954l-0.2562-0.3787c-1.3447-2.2041-0.6481-5.0809,1.5559-6.4257c2.2041-1.3448,5.0809-0.6481,6.4257,1.5559 c0.0821,0.1346,0.1574,0.2733,0.2255,0.4155c1.1211-2.3258,3.9153-3.3025,6.2411-2.1814s3.3025,3.9153,2.1814,6.2411 c-0.1243,0.2579-0.272,0.5039-0.4414,0.7347L33.4418,35.6846z"/>
    <path fill="none" stroke="#000000" stroke-width="2" stroke-linecap="round" stroke-linejoin="round" d="M57.6525,29.1741"/>
  </g>
</svg>
