<?xml version="1.0" encoding="utf-8"?>
<!-- Generator: Adobe Illustrator 21.1.0, SVG Export Plug-In . SVG Version: 6.00 Build 0)  -->
<svg version="1.1" id="emoji" xmlns="http://www.w3.org/2000/svg" xmlns:xlink="http://www.w3.org/1999/xlink" x="0px" y="0px"
	 viewBox="0 0 72 72" enable-background="new 0 0 72 72" xml:space="preserve">
<g id="_xD83D__xDC68__x200D__xD83D__xDD2C_">
	<path fill="#000100" d="M36,37c-1.2,0-2.3-0.3-3.4-0.9c-0.5-0.2-0.7-0.8-0.4-1.3c0.2-0.5,0.8-0.7,1.3-0.4c1.7,0.9,3.4,0.9,5.1,0
		c0.5-0.2,1.1,0,1.3,0.4c0.2,0.5,0,1.1-0.4,1.3C38.3,36.7,37.2,37,36,37z"/>
	<g id="XMLID_1_">
		<g>
		</g>
		<g>
			<path fill="none" stroke="#000000" stroke-width="2" stroke-linecap="round" stroke-linejoin="round" stroke-miterlimit="10" d="
				M47.4,28.9c-0.2,7.6-5.2,13.7-11.3,13.7c-6.3,0-11.3-6.3-11.3-14.2v-1"/>
			<path fill="none" stroke="#000000" stroke-width="2" stroke-linecap="round" stroke-linejoin="round" stroke-miterlimit="10" d="
				M49,25.1c0.9-1.8,2.7-6.5-5.9-12.5c-5.5-3.9-13.7-2.8-16,0.1c-0.7,0.9-0.8,2.2-0.4,3.3c0.7,1.9,2,5.1,9.4,6.1
				c2.9,0.4,4.6,0.4,9.6-0.1"/>
			<path fill="none" stroke="#000000" stroke-width="2" stroke-linecap="round" stroke-linejoin="round" stroke-miterlimit="10" d="
				M27.4,23.3c0.7-2.3,0.9-4.4,0.9-4.4"/>
			<path fill="none" stroke="#000000" stroke-width="2" stroke-linecap="round" stroke-linejoin="round" stroke-miterlimit="10" d="
				M26,14.7c-3.6,4.4-2.7,7.9-2.2,9.7"/>
		</g>
	</g>
	<path fill="none" stroke="#000000" stroke-width="2" stroke-linecap="round" stroke-linejoin="round" stroke-miterlimit="10" d="
		M26.5,45c0,0,4.8,7.1,11.1,7.7V58"/>
	<path fill="none" stroke="#000000" stroke-width="2" stroke-linecap="round" stroke-linejoin="round" stroke-miterlimit="10" d="
		M17,58c0,0-2-13,10-13c3.2,2.1,5.9,3.6,9,3.6h-0.1c3.1,0,5.8-1.5,9-3.6c1.9,0,3.4,0.3,4.7,0.9"/>
	<g>
		<path fill="none" stroke="#000000" stroke-width="2" stroke-linecap="round" stroke-linejoin="round" stroke-miterlimit="10" d="
			M58.5,43.1h-1.2v6.5l3.9,8.8c0,0,0.3,1.4-0.8,1.4c-0.5,0-9.8,0-10.4,0c-1.1,0-0.8-1.4-0.8-1.4l3.9-8.8v-6.5H52"/>
		
			<line fill="none" stroke="#000000" stroke-width="2" stroke-linecap="round" stroke-linejoin="round" stroke-miterlimit="10" x1="53.1" y1="43.1" x2="57.3" y2="43.1"/>
	</g>
	<path fill="none" stroke="#000000" stroke-width="2" stroke-linecap="round" stroke-linejoin="round" stroke-miterlimit="10" d="
		M23.1,25c0,0,12.7-7,26.2,0.8l-3.9,6c0,0-6.7,0.9-9.2-1.6c-2.6,2.6-8.5,1.6-8.5,1.6L23.1,25z"/>
	<path fill="#000100" d="M42,27c0,1.1-0.9,2-2,2s-2-0.9-2-2c0-1.1,0.9-2,2-2S42,25.9,42,27"/>
	<path fill="#000100" d="M34,27c0,1.1-0.9,2-2,2c-1.1,0-2-0.9-2-2c0-1.1,0.9-2,2-2C33.1,25,34,25.9,34,27"/>
</g>
</svg>
