<svg id="emoji" viewBox="0 0 72 72" version="1.1" xmlns="http://www.w3.org/2000/svg">
  <g id="line">
    <path d="M28.4736,14.6289c-0.3427,0-0.6757-0.1758-0.8623-0.4922l-0.1367-0.2295c-0.3721-0.6167-0.6924-1.1494-0.6924-2.2485 c0-3.3086,2.6914-6,6-6s6,2.6914,6,6c0,0.5522-0.4472,1-1,1c-0.5527,0-1-0.4478-1-1c0-2.2056-1.7939-4-4-4c-2.206,0-4,1.7944-4,4 c0,0.5434,0.086,0.6865,0.4053,1.2173l0.1465,0.2451c0.2803,0.4756,0.1221,1.0889-0.3535,1.3691 C28.8213,14.5845,28.6465,14.6289,28.4736,14.6289z"/>
    <path d="M41.9815,26.9583c0,1.1045-0.8965,2-2,2s-2-0.8955-2-2c0-1.1035,0.8965-2,2-2S41.9815,25.8548,41.9815,26.9583"/>
    <path d="M33.9815,26.9583c0,1.1045-0.8965,2-2,2s-2-0.8955-2-2c0-1.1035,0.8965-2,2-2S33.9815,25.8548,33.9815,26.9583"/>
    <path d="M35.9814,36.9608c-1.1519,0-2.3037-0.2862-3.4473-0.858c-0.4941-0.247-0.6943-0.8476-0.4473-1.3418 c0.2466-0.4936,0.8462-0.6943,1.3418-0.4472c1.7178,0.8594,3.3877,0.8594,5.1055,0c0.4946-0.2471,1.0947-0.0464,1.3418,0.4472 c0.2471,0.4942,0.0469,1.0948-0.4473,1.3418C38.2851,36.6746,37.1332,36.9608,35.9814,36.9608z"/>
    <path d="M35.9814,43.4922c-3.7861,0-7.3076-2.0869-9.6621-5.7256c-0.2998-0.4639-0.167-1.083,0.2969-1.3828 c0.4639-0.2988,1.083-0.167,1.3828,0.2969c1.9776,3.0576,4.8877,4.8115,7.9824,4.8115c5.7012,0,10.3389-5.9092,10.3389-13.1729 c0-1.1469-0.1162-2.2866-0.3457-3.3877c-0.1133-0.5405,0.2334-1.0703,0.7744-1.1831c0.5381-0.1128,1.0703,0.2344,1.1826,0.7749 c0.2579,1.2349,0.3887,2.5122,0.3887,3.7959C48.3203,36.6855,42.7852,43.4922,35.9814,43.4922z"/>
    <path d="M17.0449,58.8105c-0.4844,0-0.9101-0.3525-0.9863-0.8466c-0.041-0.2696-0.9727-6.6328,2.581-10.7754 c1.8799-2.1905,4.625-3.3252,8.1622-3.375c0.375-0.1026,0.7724,0.0215,1.0214,0.3135c3.0489,2.0156,5.502,3.2626,8.1612,3.2763 c2.7226-0.0137,5.2295-1.3213,8.3828-3.4238c0.3887-0.2588,0.9053-0.2139,1.2441,0.1074c0.3379,0.3223,0.4092,0.836,0.169,1.2373 c-1.6524,2.7705-7.2334,11.8653-9.6407,12.5625c-1.9521,0.5537-5.2001-3.4931-9.6611-12.0644 c-2.7627,0.1064-4.8857,1-6.3144,2.6611c-2.9561,3.4365-2.1377,9.1201-2.1289,9.1777c0.083,0.545-0.292,1.0547-0.8379,1.1387 C17.1465,58.8076,17.0957,58.8105,17.0449,58.8105z M29.7393,47.623c2.3623,4.1709,4.9013,7.9219,5.9248,8.3086 c0.9912-0.4873,3.6464-4.1113,6.2314-8.1347c-1.9502,0.998-3.7969,1.5771-5.8027,1.6054c-0.0215,0.001-0.043,0.002-0.0645,0.001 c-0.0078,0-0.0137,0-0.0215,0h-0.0449c-0.0156-0.001-0.0283-0.001-0.042,0c-0.0146,0-0.0293,0-0.0439-0.001 C33.7549,49.373,31.8135,48.7275,29.7393,47.623z"/>
    <path fill="none" stroke="#000000" stroke-linecap="round" stroke-linejoin="round" stroke-miterlimit="10" stroke-width="2" d="M57.4291,48.0165l-5.5,11.38c-0.44,0.91-1.46,1.45-2.43,1.17c-1.23-0.37-1.8-1.72-1.26-2.83l5.54-11.48"/>
    <path fill="none" stroke="#000000" stroke-linecap="round" stroke-linejoin="round" stroke-miterlimit="10" stroke-width="2" d="M56.5491,38.0965l-1.93-1.59c-1.52-0.74-3.36-0.1-4.09,1.43l-1.64,3.38c-0.73,1.53-0.1,3.36,1.43,4.1l2.52,0.54l0.96,0.21h0.02 l3.65,1.76l0.02,0.02l0.53,0.45l2.05,1.73c1.52,0.73,3.36,0.09,4.1-1.43l1.63-3.39c0.74-1.52,0.1-3.36-1.43-4.09l-2.54-0.51 l-0.8-0.16l-3.64-1.76L56.5491,38.0965z"/>
    <line x1="61.7891" x2="58.3891" y1="40.9065" y2="47.9565" fill="none" stroke="#000000" stroke-linecap="round" stroke-linejoin="round" stroke-miterlimit="10" stroke-width="2"/>
    <line x1="52.9691" x2="56.3791" y1="45.3465" y2="38.2965" fill="none" stroke="#000000" stroke-linecap="round" stroke-linejoin="round" stroke-miterlimit="10" stroke-width="2"/>
    <path fill="none" stroke="#000000" stroke-linecap="round" stroke-linejoin="round" stroke-miterlimit="10" stroke-width="2" d="M27.4442,58.6716"/>
    <path d="M32.1602,54.4463c-0.2081,0-0.417-0.0645-0.5967-0.1983c-0.4434-0.33-0.5342-0.957-0.2041-1.3994l3.7607-5.0429 c0.1924-0.2559,0.5117-0.3916,0.8135-0.4024c0.3203,0.0039,0.6191,0.1602,0.8037,0.4209l3.3779,4.7598 c0.3194,0.4512,0.2139,1.0752-0.2363,1.3945c-0.4512,0.3203-1.0742,0.2129-1.3945-0.2363l-2.583-3.6397l-2.9385,3.9414 C32.7666,54.3076,32.4648,54.4463,32.1602,54.4463z"/>
    <path d="M46.6611,25.8594c-0.1074,0-0.2168-0.0064-0.3281-0.0196c-6.5312-0.7783-10.1699-3.9887-11.5801-5.5444 c-3.3906,2.6802-6.4824,3.8306-8.0879,4.2881c-0.9502,0.2705-1.5214,0.3452-1.583,0.353c-0.5556,0.065-1.0478-0.3227-1.1142-0.8706 c-0.0674-0.5473,0.3203-1.0454,0.8672-1.1142l0,0c0.0048-0.0005,0.4804-0.0635,1.2812-0.2915 c1.5742-0.4488,4.7217-1.6333,8.1279-4.5342c0.2149-0.1841,0.4942-0.2691,0.7823-0.23c0.2812,0.0381,0.5332,0.1938,0.6933,0.4287 c0.0293,0.043,3.2783,4.627,10.8496,5.5288c0.2471,0.0293,0.3057-0.039,0.3741-0.1465c0.4658-0.7343,0.2402-3.2309-1.3848-5.8242 c-1.0908-1.7422-4.2813-5.7139-10.1914-5.0454c-8.3018,0.9453-9.8164,5.8052-10.082,7.272 c-0.0987,0.5439-0.6192,0.9052-1.1631,0.8052c-0.543-0.0987-0.9043-0.6192-0.8057-1.1626 c0.3291-1.8096,2.1533-7.8003,11.8242-8.9019c7.0391-0.8037,10.8203,3.9077,12.1133,5.9707 c1.8496,2.9526,2.4297,6.2993,1.3789,7.957C48.1904,25.4761,47.4834,25.8594,46.6611,25.8594z"/>
    <path d="M25.1064,35.1719c-0.1376,0-0.2744-0.0108-0.4101-0.0332c-0.544-0.0908-0.9121-0.6065-0.8213-1.1514 c0.0918-0.5439,0.6055-0.917,1.1514-0.8213c0.4131,0.0762,1.1338-0.4502,1.3086-1.1435c0.167-0.6582-0.2471-1.1621-1.2305-1.4991 c-1.8125-0.622-2.8057-1.561-2.9512-2.792c-0.2676-2.2695,2.6348-4.2353,3.2188-4.6064l0.4336-0.3149 c0.4482-0.3223,1.0752-0.2212,1.3964,0.227c0.3223,0.4478,0.2208,1.0728-0.2265,1.396l-0.4824,0.3477 c-1.0713,0.685-2.4414,1.9814-2.3536,2.7168c0.0459,0.3789,0.6485,0.8027,1.6133,1.1337c2.377,0.815,2.8604,2.5396,2.5205,3.8824 C27.8877,34.0391,26.4951,35.1719,25.1064,35.1719z"/>
  </g>
</svg>
