<?xml version="1.0" encoding="utf-8"?>
<!-- Generator: Adobe Illustrator 21.1.0, SVG Export Plug-In . SVG Version: 6.00 Build 0)  -->
<svg version="1.1" id="emoji" xmlns="http://www.w3.org/2000/svg" xmlns:xlink="http://www.w3.org/1999/xlink" x="0px" y="0px"
	 viewBox="0 0 72 72" enable-background="new 0 0 72 72" xml:space="preserve">
<g id="_xD83D__xDC69__x200D__xD83C__xDFEB_">
	
		<polyline fill="none" stroke="#000000" stroke-width="2" stroke-linecap="round" stroke-linejoin="round" stroke-miterlimit="10" points="
		48.4,16.9 60.8,16.9 60.8,51.2 58.2,51.2 	"/>
	
		<polyline fill="none" stroke="#000000" stroke-width="2" stroke-linecap="round" stroke-linejoin="round" stroke-miterlimit="10" points="
		13.9,51.2 10.8,51.2 10.8,16.9 22.7,16.9 	"/>
	<path d="M42,27.1c0,1.1-0.9,2-2,2s-2-0.9-2-2c0-1.1,0.9-2,2-2S42,26,42,27.1"/>
	<path d="M34,27.1c0,1.1-0.9,2-2,2c-1.1,0-2-0.9-2-2c0-1.1,0.9-2,2-2C33.1,25.1,34,26,34,27.1"/>
	<path d="M36,37.2c-1.2,0-2.3-0.3-3.4-0.9C32,36,31.8,35.4,32.1,35c0.2-0.5,0.8-0.7,1.3-0.4c1.7,0.9,3.4,0.9,5.1,0
		c0.5-0.2,1.1,0,1.3,0.4c0.2,0.5,0,1.1-0.4,1.3C38.3,36.9,37.1,37.2,36,37.2z"/>
	<path fill="none" stroke="#000000" stroke-width="2" stroke-miterlimit="10" d="M25.3,23.9c-0.4,1.5-0.6,3-0.6,4.7
		c0,7.8,5.1,14.2,11.3,14.2s11.3-6.3,11.3-14.2c0-1.2-0.1-2.3-0.3-3.4c-0.1-0.4-0.2-0.9-0.3-1.3"/>
	<path fill="none" stroke="#000100" stroke-width="2" stroke-linecap="round" stroke-linejoin="round" stroke-miterlimit="10" d="
		M27.5,25.1"/>
	<path fill="none" stroke="#000000" stroke-width="2" stroke-linecap="round" stroke-linejoin="round" stroke-miterlimit="10" d="
		M24.8,26.3h2.8v2.2c0,1.6,1.3,2.8,2.8,2.8h2c1.6,0,2.8-1.3,2.8-2.8v-1.1h1.3v1.1c0,1.6,1.3,2.8,2.8,2.8h2c1.6,0,2.8-1.3,2.8-2.8
		v-2.2h3"/>
	<path fill="none" stroke="#000000" stroke-width="2" stroke-linecap="round" stroke-linejoin="round" stroke-miterlimit="10" d="
		M25.3,23.9c8.5-0.7,13.4-5.5,13.4-5.5s1.6,4.7,8,5.5"/>
	<path fill="none" stroke="#000000" stroke-width="2" stroke-linecap="round" stroke-linejoin="round" stroke-miterlimit="10" d="
		M20.6,42.7C19.3,33.8,20,26.6,20,26.6s0.8-9.7,7.8-14.4S40,13.8,40,13.8s3.3-2,6,0.5c2.2,2,4.1,6.5,4.8,12.3
		c0.5,4.3,0.4,10.5-0.2,16"/>
	<g id="XMLID_1_">
		<g>
		</g>
		<g>
			<path fill="none" stroke="#000000" stroke-width="2" stroke-linecap="round" stroke-linejoin="round" stroke-miterlimit="10" d="
				M16.8,58c0,0-2-13,10-13c0,0,0.1,0.1,0.2,0.1c3.1,2,5.8,3.5,8.7,3.5h0.1c2.9,0,5.6-1.4,8.6-3.4c0.1-0.1,0.2-0.1,0.3-0.2
				c5.2,0,7.7,2.4,9,5.2"/>
			
				<polygon fill="none" stroke="#000000" stroke-width="2" stroke-linecap="round" stroke-linejoin="round" stroke-miterlimit="10" points="
				35.7,57.2 35.8,57.3 35.7,57.3 29.8,58.9 29.9,54.1 24.3,54.4 26.8,45.3 			"/>
			
				<polygon fill="none" stroke="#000000" stroke-width="2" stroke-linecap="round" stroke-linejoin="round" stroke-miterlimit="10" points="
				35.7,57.2 35.6,57.3 35.7,57.3 41.6,58.9 41.5,54.1 47.1,54.4 44.5,45.3 			"/>
		</g>
	</g>
	<path stroke="#000000" stroke-width="1.5" stroke-linecap="round" stroke-linejoin="round" stroke-miterlimit="10" d="M53.1,58.8
		c-0.5,0-0.9-0.4-0.8-1l3.4-26.5L54.3,58C54.2,58.4,53.6,58.8,53.1,58.8L53.1,58.8z"/>
</g>
</svg>
