<?xml version="1.0" encoding="utf-8"?>
<!-- Generator: Adobe Illustrator 21.1.0, SVG Export Plug-In . SVG Version: 6.00 Build 0)  -->
<svg version="1.1" id="emoji" xmlns="http://www.w3.org/2000/svg" xmlns:xlink="http://www.w3.org/1999/xlink" x="0px" y="0px"
	 viewBox="0 0 72 72" enable-background="new 0 0 72 72" xml:space="preserve">
<g id="_xD83D__xDC68__x200D__xD83C__xDFEB_">
	
		<polyline fill="none" stroke="#000000" stroke-width="2" stroke-linecap="round" stroke-linejoin="round" stroke-miterlimit="10" points="
		48.4,16.9 60.8,16.9 60.8,51.2 58.2,51.2 	"/>
	
		<polyline fill="none" stroke="#000000" stroke-width="2" stroke-linecap="round" stroke-linejoin="round" stroke-miterlimit="10" points="
		13.9,51.2 10.8,51.2 10.8,16.9 23.8,16.9 	"/>
	<path d="M42,27.2c0,1.1-0.9,2-2,2s-2-0.9-2-2c0-1.1,0.9-2,2-2S42,26.1,42,27.2"/>
	<path d="M34,27.2c0,1.1-0.9,2-2,2c-1.1,0-2-0.9-2-2c0-1.1,0.9-2,2-2C33.1,25.2,34,26.1,34,27.2"/>
	<path d="M36,37.2c-1.2,0-2.3-0.3-3.4-0.9c-0.5-0.2-0.7-0.8-0.4-1.3c0.2-0.5,0.8-0.7,1.3-0.4c1.7,0.9,3.4,0.9,5.1,0
		c0.5-0.2,1.1,0,1.3,0.4c0.2,0.5,0,1.1-0.4,1.3C38.3,36.9,37.1,37.2,36,37.2z"/>
	<path fill="none" stroke="#000100" stroke-width="2" stroke-linecap="round" stroke-linejoin="round" stroke-miterlimit="10" d="
		M27.4,25.2"/>
	<path fill="none" stroke="#000000" stroke-width="2" stroke-linecap="round" stroke-linejoin="round" stroke-miterlimit="10" d="
		M26.4,26.3h1.2v2.2c0,1.6,1.3,2.8,2.8,2.8h2c1.6,0,2.8-1.3,2.8-2.8v-1.1h1.3v1.1c0,1.6,1.3,2.8,2.8,2.8h2c1.6,0,2.8-1.3,2.8-2.8
		v-2.2h3"/>
	<g id="XMLID_2_">
		<g>
		</g>
		<g>
			<path fill="none" stroke="#000000" stroke-width="2" stroke-linecap="round" stroke-linejoin="round" stroke-miterlimit="10" d="
				M24.6,28.5c0,0,0,0.1,0,0.1c0.1,7.8,5.1,14,11.3,14c6.2,0,11.2-6.2,11.3-14c0-0.1,0-0.1,0-0.2c0-1.2-0.1-2.3-0.3-3.4
				c-0.2-1.1-0.5-2.1-0.9-3"/>
			<path fill="none" stroke="#000000" stroke-width="2" stroke-linecap="round" stroke-linejoin="round" stroke-miterlimit="10" d="
				M47.7,28.8c0,0,3.9-2.9,2.8-7.4c-0.6-2.5-2.6-5.4-7.5-8.6c-5.5-4-13.7-2.8-16,0.1c-0.4,0.6-0.6,1.3-0.6,2c0,0.4,0.1,0.9,0.2,1.3
				c0.3,0.8,0.7,1.9,1.7,2.9c2.1,2.2,6.6,4.1,17.8,3.1c0.5,0,1-0.1,1.5-0.1"/>
			<path fill="none" stroke="#000000" stroke-width="2" stroke-linecap="round" stroke-linejoin="round" stroke-miterlimit="10" d="
				M25.9,14.8c-6.5,6.9-2.1,15.7-1.4,13.9c0,0,0.1-0.1,0.1-0.1c2.9-2.8,3.6-9.6,3.6-9.6"/>
		</g>
	</g>
	<g id="XMLID_1_">
		<g>
		</g>
		<g>
			<path fill="none" stroke="#000000" stroke-width="2" stroke-linecap="round" stroke-linejoin="round" stroke-miterlimit="10" d="
				M16.9,58c0,0-2-13,10-13c0,0,0.1,0.1,0.2,0.1c3.1,2,5.8,3.5,8.7,3.5c0,0,0,0,0,0h0.1c2.9,0,5.6-1.4,8.6-3.4
				c0.1-0.1,0.2-0.1,0.3-0.2c4,0,6.4,1.4,7.9,3.4l0.8,1.3"/>
			
				<polygon fill="none" stroke="#000000" stroke-width="2" stroke-linecap="round" stroke-linejoin="round" stroke-miterlimit="10" points="
				35.7,57.2 35.8,57.3 35.7,57.4 29.9,59 29.9,54.2 24.3,54.4 26.9,45.4 			"/>
			
				<polygon fill="none" stroke="#000000" stroke-width="2" stroke-linecap="round" stroke-linejoin="round" stroke-miterlimit="10" points="
				35.7,57.2 35.6,57.3 35.7,57.4 41.6,59 41.5,54.2 47.2,54.4 44.6,45.4 			"/>
		</g>
	</g>
	<path stroke="#000000" stroke-width="1.5" stroke-linecap="round" stroke-linejoin="round" stroke-miterlimit="10" d="M53,58.8
		c-0.5,0-0.9-0.4-0.8-1l3.4-26.5L54.2,58C54.1,58.4,53.5,58.8,53,58.8L53,58.8z"/>
</g>
</svg>
