<svg id="emoji" viewBox="0 0 72 72" version="1.1" xmlns="http://www.w3.org/2000/svg">
  <g id="line">
    <line x1="33.026" x2="33.026" y1="54.8917" y2="56.661" fill="none" stroke="#000000" stroke-linecap="round" stroke-linejoin="round" stroke-miterlimit="10" stroke-width="2"/>
    <path d="M41.8917,27.0725c0,1.1045-0.8965,2-2,2s-2-0.8955-2-2c0-1.1035,0.8965-2,2-2S41.8917,25.969,41.8917,27.0725"/>
    <path d="M33.8917,27.0725c0,1.1045-0.8965,2-2,2s-2-0.8955-2-2c0-1.1035,0.8965-2,2-2S33.8917,25.969,33.8917,27.0725"/>
    <path d="M35.8915,37.0749c-1.1518,0-2.3037-0.2861-3.4472-0.8579c-0.4942-0.2471-0.6944-0.8477-0.4473-1.3418 c0.2466-0.4937,0.8462-0.6944,1.3418-0.4473c1.7178,0.8594,3.3877,0.8594,5.1055,0c0.4946-0.2471,1.0947-0.0464,1.3418,0.4473 c0.247,0.4941,0.0468,1.0947-0.4473,1.3418C38.1952,36.7888,37.0434,37.0749,35.8915,37.0749z"/>
    <path fill="none" stroke="#000000" stroke-linecap="round" stroke-linejoin="round" stroke-miterlimit="10" stroke-width="2" d="M47.1732,29.8627c-0.5734,7.1564-5.4055,12.7438-11.2817,12.7438c-6.2621,0-11.3386-6.3456-11.3386-14.1732v-1.2531"/>
    <path fill="none" stroke="#000000" stroke-linecap="round" stroke-linejoin="round" stroke-miterlimit="10" stroke-width="2" d="M16.8316,57.9252c0,0-2-13,10-13c3.1919,2.128,5.9264,3.5985,9,3.5922h-0.125c3.0736,0.0063,5.8081-1.4642,9-3.5922 c1.8775,0,3.4123,0.3183,4.6656,0.8551"/>
    <path fill="none" stroke="#000000" stroke-linecap="round" stroke-linejoin="round" stroke-miterlimit="10" stroke-width="2" d="M58.3099,43.0707h-1.1793v6.4784l3.8661,8.8385c0,0,0.3081,1.3805-0.7928,1.3805c-0.5364,0-9.8482,0.0116-10.3846,0.0116 c-1.1009,0-0.7928-1.3804-0.7928-1.3804l3.8661-8.8286v-6.5h-1.0854"/>
    <line x1="52.8926" x2="57.1306" y1="43.0707" y2="43.0707" fill="none" stroke="#000000" stroke-linecap="round" stroke-linejoin="round" stroke-miterlimit="10" stroke-width="2"/>
    <path fill="none" stroke="#000000" stroke-linecap="round" stroke-linejoin="round" stroke-miterlimit="10" stroke-width="2" d="M32.2796,22.3852c4.2811-1.6427,6.6482-3.9688,6.6482-3.9688s3.8316,3.9334,7.8297,6.0854"/>
    <path fill="none" stroke="#000000" stroke-linecap="round" stroke-linejoin="round" stroke-miterlimit="10" stroke-width="2" d="M20.7138,42.7252c-1.3842-8.8622-0.3955-18.0509-0.3955-18.0509s0.7556-9.7405,7.8405-14.3982s12.0875,1.6059,12.0875,1.6059 s3.3103-1.9898,6.05,0.4966c2.2111,2.0066,4.1143,6.5052,4.8177,12.2957c0.4325,3.5614,0.5575,9.7039,0.2505,14.8494"/>
    <path fill="none" stroke="#000000" stroke-linecap="round" stroke-linejoin="round" stroke-miterlimit="10" stroke-width="2" d="M26.3376,44.9252c0,0,4.831,7.1009,11.0601,7.7101v5.2899"/>
    <line x1="33.026" x2="33.026" y1="56.1342" y2="57.9036" fill="none" stroke="#000000" stroke-linecap="round" stroke-linejoin="round" stroke-miterlimit="10" stroke-width="2"/>
    <path fill="none" stroke="#000000" stroke-linecap="round" stroke-linejoin="round" stroke-miterlimit="10" stroke-width="2" d="M23.1223,25.0725c0,0,12.7029-7.0231,26.2497,0.8022l-3.8831,6.0255c0,0-6.7095,0.9322-9.2418-1.6 c-2.5912,2.5912-8.4903,1.6-8.4903,1.6L23.1223,25.0725z"/>
  </g>
</svg>
