<svg id="emoji" xmlns="http://www.w3.org/2000/svg" viewBox="0 0 72 72">
  <g id="line">
    <path fill="none" stroke="#000000" stroke-width="2" stroke-linecap="round" stroke-linejoin="round" d="M36.3446,27.3816 l-7.9098-10.1427L28.18,16.8621c-1.3378-2.1927-0.6448-5.0547,1.5479-6.3925c2.1927-1.3378,5.0547-0.6448,6.3925,1.5479 c0.0817,0.1339,0.1566,0.2719,0.2244,0.4134c1.1153-2.3138,3.8951-3.2854,6.2089-2.1701 c2.3138,1.1153,3.2854,3.8951,2.1701,6.2089c-0.1237,0.2566-0.2706,0.5012-0.4391,0.7309L36.3446,27.3816z"/>
    <path fill="none" stroke="#000000" stroke-width="2" stroke-linecap="round" stroke-linejoin="round" d="M56.8829,26.6449"/>
    <path fill="none" stroke="#000000" stroke-width="2" stroke-miterlimit="10" d="M29.7579,38.4741 c0,6.2348-3.875,11.2891-8.655,11.2891s-8.655-5.0543-8.655-11.2891c0-1.9484,1.0446-4.2063,1.0446-4.2063 s4.3241-1.6572,7.6104-1.6572c3.1742,0,7.4556,1.4573,7.4556,1.4573S29.7579,36.3796,29.7579,38.4741z"/>
    <path fill="none" stroke="#000000" stroke-width="2" stroke-linecap="round" stroke-linejoin="round" d="M12.0194,48.6073 c-8.0768,1.1558-4.2313-4.9824-2.8495-8.5325c1.2305-3.1609-0.1573-4.8551,0.9716-9.0569 c1.1131-4.1393,5.4767-6.7479,10.3175-6.7479c4.0641,0,6.0208,2.2578,6.0208,2.2578c3.1375,0.2815,5.5489,2.8987,5.573,6.0487 c0.2913,5.4037-0.0154,3.1261,1.5948,7.4135c2.5816,6.0678,1.7201,9.0919-3.4993,8.6712"/>
    <path fill="none" stroke="#000000" stroke-width="2" stroke-linejoin="round" stroke-miterlimit="10" d="M29.7579,38.4741 c0,6.2348-3.875,11.2891-8.655,11.2891s-8.655-5.0543-8.655-11.2891c0-1.9484,1.0446-4.2063,1.0446-4.2063 s4.3241-1.6572,7.6104-1.6572c3.1742,0,7.4556,1.4573,7.4556,1.4573S29.7579,36.3796,29.7579,38.4741z"/>
    <path fill="none" stroke="#000000" stroke-width="2" stroke-linecap="round" stroke-linejoin="round" d="M39.4101,51.3639 c-3.0104-4.5156-0.6292-7.739,0.7526-11.2891c1.2305-3.1609-0.1573-4.8551,0.9716-9.0569 c1.1131-4.1393,5.4767-6.7479,10.3175-6.7479c4.0641,0,6.0208,2.2578,6.0208,2.2578c3.1375,0.2815,5.5489,2.8987,5.573,6.0487 c0.2913,5.4037,0.7707,5.3826,2.5807,9.6499c1.3218,3.0596,0.7863,6.6048-1.3803,9.1374"/>
    <path fill="none" stroke="#000000" stroke-width="2" stroke-linejoin="round" stroke-miterlimit="10" d="M43.9257,39.3223 c0,6.0208,3.763,10.5365,8.2787,10.5365s8.2787-4.5156,8.2787-10.5365c0-3.763-1.5052-6.0208-4.5156-9.0313 c-3.0104,3.0104-12.0417,6.7735-12.0417,8.2787V39.3223z"/>
    <path fill="none" stroke="#000000" stroke-width="2" stroke-linecap="round" stroke-linejoin="round" d="M37.6414,61.8952v-2.2659 c0-3.7719,3.7817-6.7976,7.5529-6.7976c4.5317,3.7764,9.0635,3.7764,13.5952,0c3.7719,0,7.5529,3.0257,7.5529,6.7976v2.2659"/>
    <path fill="none" stroke="#000000" stroke-width="2" stroke-linecap="round" stroke-linejoin="round" d="M6.3423,61.8952v-2.2659 c0-3.7719,3.7817-6.7976,7.5529-6.7976c4.5317,3.7764,9.0635,3.7764,13.5952,0c3.7719,0,7.5529,3.0257,7.5529,6.7976v2.2659"/>
    <path d="M56.3423,39.1854c0,0.7706-0.6247,1.3952-1.3952,1.3952c-0.7706,0-1.3952-0.6247-1.3952-1.3952 c0-0.7706,0.6247-1.3952,1.3952-1.3952C55.7177,37.7901,56.3423,38.4148,56.3423,39.1854" fill="#000000" stroke="none"/>
    <path d="M50.7614,39.1854c0,0.7706-0.6247,1.3952-1.3952,1.3952s-1.3952-0.6247-1.3952-1.3952 c0-0.7706,0.6247-1.3952,1.3952-1.3952S50.7614,38.4148,50.7614,39.1854" fill="#000000" stroke="none"/>
    <path fill="none" stroke="#000000" stroke-width="2" stroke-linecap="round" stroke-linejoin="round" d="M50.0638,44.9407 c1.308,0.6976,2.8776,0.6976,4.1857,0"/>
    <path d="M25.3423,39.1854c0,0.7706-0.6247,1.3952-1.3952,1.3952c-0.7706,0-1.3952-0.6247-1.3952-1.3952 c0-0.7706,0.6247-1.3952,1.3952-1.3952C24.7177,37.7901,25.3423,38.4148,25.3423,39.1854" fill="#000000" stroke="none"/>
    <path d="M19.7614,39.1854c0,0.7706-0.6247,1.3952-1.3952,1.3952s-1.3952-0.6247-1.3952-1.3952 c0-0.7706,0.6247-1.3952,1.3952-1.3952S19.7614,38.4148,19.7614,39.1854" fill="#000000" stroke="none"/>
    <path fill="none" stroke="#000000" stroke-width="2" stroke-linecap="round" stroke-linejoin="round" d="M19.0638,44.9407 c1.308,0.6976,2.8776,0.6976,4.1857,0"/>
    <path fill="none" stroke="#000000" stroke-width="2" stroke-linecap="round" stroke-linejoin="round" stroke-miterlimit="10" d="M12.0194,48.6073"/>
  </g>
</svg>
