<svg id="emoji" viewBox="0 0 72 72" version="1.1" xmlns="http://www.w3.org/2000/svg">
  <g id="line">
    <path d="M54.0979,45.7015c0.0333,0.4958-0.3417,0.9247-0.8377,0.958c-0.4959,0.0333-0.9249-0.3417-0.9582-0.8375 s0.3417-0.9247,0.8377-0.958c0.0201-0.0014,0.0402-0.002,0.0604-0.002C53.6797,44.8465,54.0814,45.2221,54.0979,45.7015z"/>
    <path fill="none" stroke="#000000" stroke-linecap="round" stroke-linejoin="round" stroke-width="1.6" d="M50.1639,49.1857 c0.7749,0.6425,1.8974,0.6425,2.6723,0"/>
    <path fill="none" stroke="#000000" stroke-miterlimit="10" stroke-width="1.6" d="M57.0438,48.407 c-0.8139,2.8267-3.0002,4.4219-5.5441,4.4219h0.0006c-2.5439,0-4.7302-1.5952-5.5441-4.4219"/>
    <path d="M49.7999,44.862c0.0201,0,0.0403,0.0007,0.0604,0.002c0.4959,0.0333,0.871,0.4622,0.8377,0.958 s-0.4623,0.8707-0.9582,0.8375c-0.4959-0.0333-0.871-0.4622-0.8377-0.958C48.9186,45.2221,49.3203,44.8465,49.7999,44.862z"/>
    <path fill="none" stroke="#000000" stroke-linecap="round" stroke-linejoin="round" stroke-width="1.6" d="M23,60.2v-1.7333 C23,56,25.5018,54,28.0036,54c2.9751,2.4667,5.9502,2.4667,8.9929,0C39.4982,54,42,56,42,58.4667V60.2"/>
    <path fill="none" stroke="#000000" stroke-linecap="round" stroke-linejoin="round" stroke-width="1.6" d="M42.0003,60.2v-1.7333 C42.0003,56,44.5021,54,47.0039,54c2.9751,2.4667,5.9502,2.4667,8.9929,0c2.5018,0,5.0036,2,5.0036,4.4667V60.2"/>
    <path d="M35.298,45.7015c0.0333,0.4958-0.3417,0.9247-0.8377,0.958c-0.4959,0.0333-0.9249-0.3417-0.9582-0.8375 s0.3417-0.9247,0.8377-0.958c0.0201-0.0014,0.0402-0.002,0.0604-0.002C34.8798,44.8465,35.2815,45.2221,35.298,45.7015z"/>
    <path fill="none" stroke="#000000" stroke-linecap="round" stroke-linejoin="round" stroke-width="1.6" d="M31.1639,49.1857 c0.7749,0.6425,1.8974,0.6425,2.6723,0"/>
    <path d="M30.5998,44.862c0.0201,0,0.0403,0.0007,0.0604,0.002c0.4959,0.0333,0.871,0.4622,0.8377,0.958 s-0.4623,0.8707-0.9582,0.8375c-0.4959-0.0333-0.871-0.4622-0.8377-0.958C29.7185,45.2221,30.1202,44.8465,30.5998,44.862z"/>
    <path fill="none" stroke="#000000" stroke-linecap="round" stroke-linejoin="round" stroke-width="1.6" d="M51.5003,40.7038 c3.864,1.3703,5.567,5.8271,5.6943,9.6307c1.4225,0.308,2.8826-0.3898,3.8057-1.461c-0.9845-0.8337-1.7269-1.9167-2.1494-3.1356 c0.7369-5.7252-2.03-9.5793-7.3506-8.4862c-5.3206-1.0931-8.0875,2.761-7.3506,8.4862c-0.4225,1.2189-1.1649,2.3019-2.1494,3.1356 c0.923,1.0712,2.3833,1.769,3.8057,1.461C45.9333,46.5311,47.6362,42.074,51.5003,40.7038z"/>
    <path fill="none" stroke="#000000" stroke-miterlimit="10" stroke-width="1.6" d="M39.0493,45.2683 c0.0078,0.141,0.0117,0.283,0.0118,0.4261c0.1437,3.7311-2.758,6.8753-6.4886,7.031c-3.7306-0.1557-6.6322-3.2999-6.4885-7.031 c0-0.0952,0.0017-0.1899,0.0052-0.2841"/>
    <path fill="none" stroke="#000000" stroke-linecap="round" stroke-linejoin="round" stroke-width="1.6" d="M30.1355,42.2716 c0.4694,3.3631,4.487-0.8706,4.487-0.8706c0.5491,1.5737,4.4254,3.8674,4.4254,3.8674c1.0324-0.9557,0.5259-2.8525,0.3721-3.5136 c-0.5106-2.7127-3.0794-4.5325-5.8079-4.1144c-0.3436,0.0276-0.6888,0.0276-1.0324,0c-2.2709-0.3369-6.03-0.1483-7.12,4.6433 c-0.5317,2.3382,0.624,2.9844,0.624,2.9844S29.8477,40.2093,30.1355,42.2716z"/>
    <path fill="none" stroke="#000000" stroke-linecap="round" stroke-linejoin="round" stroke-width="2" d="M12.2968,36.7474 c-1.5719-2.1674-1.8612-5.0005-0.7991-7.5333c1.6003-3.734,2.0448-3.734,2.3115-8.5349c0.0889-2.7561,2.2226-5.0676,4.9787-5.3343 c0,0,1.6892-2.0448,5.3343-2.0448c4.2674,0,8.1792,2.3115,9.1572,5.9566c1.0668,3.734-0.1779,5.2453,0.889,8.0903 c0.8191,2.1061,2.0231,4.0582,1.9908,6.287"/>
    <path fill="none" stroke="#000000" stroke-linejoin="round" stroke-miterlimit="10" stroke-width="2" d="M30.8791,26.8135 l-0.0889-0.6223c0-1.3336-8.0015-4.712-10.6686-7.3791c-2.6671,2.6671-4.0007,4.623-4.0007,8.0014 c0,5.3343,3.3784,9.335,7.3791,9.335S30.8791,32.1478,30.8791,26.8135L30.8791,26.8135z"/>
    <path d="M24.75,26.5c0-0.7143,0.5357-1.25,1.25-1.25s1.25,0.5357,1.25,1.25s-0.5357,1.25-1.25,1.25S24.75,27.2143,24.75,26.5"/>
    <path d="M19.75,26.5c0-0.7143,0.5357-1.25,1.25-1.25s1.25,0.5357,1.25,1.25s-0.5357,1.25-1.25,1.25S19.75,27.2143,19.75,26.5"/>
    <path fill="none" stroke="#000000" stroke-linecap="round" stroke-linejoin="round" stroke-width="2" d="M21.633,31.5332 c1.1558,0.6223,2.5782,0.6223,3.734,0"/>
    <path fill="none" stroke="#000000" stroke-linecap="round" stroke-linejoin="round" stroke-miterlimit="10" stroke-width="2" d="M11.0003,60V44.9552c0-3.2895,3.2918-5.9566,6.5836-5.9566c1.4914,1.2532,2.9827,2.029,4.4789,2.3273"/>
  </g>
</svg>
