<?xml version="1.0" encoding="utf-8"?>
<!-- Generator: Adobe Illustrator 21.1.0, SVG Export Plug-In . SVG Version: 6.00 Build 0)  -->
<svg version="1.1" id="emoji" xmlns="http://www.w3.org/2000/svg" xmlns:xlink="http://www.w3.org/1999/xlink" x="0px" y="0px"
	 viewBox="0 0 72 72" enable-background="new 0 0 72 72" xml:space="preserve">
<g id="_xD83D__xDC65_">
	<path fill="none" stroke="#040404" stroke-width="2" stroke-linecap="round" stroke-linejoin="round" d="M35,60v-7c0-7,4-10,8-10
		c7,0,7,0,12,0c4,0,8,3,8,10c0,4,0,7,0,7 M34,45.1 M9,60c0,0,0-6,0-7c0-7,4-10,8-10c7,0,7,0,12,0c1.5,0,3.1,0.5,4.4,1.5"/>
	<path fill="none" stroke="#040404" stroke-width="2" stroke-linejoin="round" d="M15,26c0,4,0.9,6.3,2,8c1.4,2.1,3.7,3,6,3
		c2.4,0,4.6-0.9,6-3c1.1-1.7,2-4,2-8c0-2.1-1.1-9-8-9S15,22.4,15,26z"/>
	<path fill="none" stroke="#040404" stroke-width="2" stroke-linejoin="round" d="M41,26c0,4,0.9,6.3,2,8c1.4,2.1,3.7,3,6,3
		c2.4,0,4.6-0.9,6-3c1.1-1.7,2-4,2-8c0-2.1-1.1-9-8-9S41,22.4,41,26z"/>
</g>
</svg>
