<?xml version="1.0" encoding="utf-8"?>
<!-- Generator: Adobe Illustrator 21.1.0, SVG Export Plug-In . SVG Version: 6.00 Build 0)  -->
<svg version="1.1" id="emoji" xmlns="http://www.w3.org/2000/svg" xmlns:xlink="http://www.w3.org/1999/xlink" x="0px" y="0px"
	 viewBox="0 0 72 72" enable-background="new 0 0 72 72" xml:space="preserve">
<g id="_xD83D__xDC69__x200D__xD83C__xDFA8_">
	<g>
		<path fill="#000100" d="M42,27c0,1.1-0.9,2-2,2s-2-0.9-2-2c0-1.1,0.9-2,2-2S42,25.9,42,27"/>
	</g>
	<g>
		<path fill="#000100" d="M34,27c0,1.1-0.9,2-2,2c-1.1,0-2-0.9-2-2c0-1.1,0.9-2,2-2C33.1,25,34,25.9,34,27"/>
	</g>
	<g>
		<path fill="#000100" d="M36,37c-1.2,0-2.3-0.3-3.4-0.9c-0.5-0.2-0.7-0.8-0.4-1.3c0.2-0.5,0.8-0.7,1.3-0.4c1.7,0.9,3.4,0.9,5.1,0
			c0.5-0.2,1.1,0,1.3,0.4c0.2,0.5,0,1.1-0.4,1.3C38.3,36.7,37.1,37,36,37z"/>
	</g>
	<g>
		<path d="M36,43.5c-6.8,0-12.3-6.8-12.3-15.2c0-1.1,0.1-2.2,0.3-3.3l2,0.4c-0.2,1-0.3,2-0.3,3c0,7.3,4.6,13.2,10.3,13.2
			c5.7,0,10.3-5.9,10.3-13.2c0-0.9-0.1-1.8-0.2-2.7l2-0.3c0.2,1,0.2,2,0.2,3C48.3,36.7,42.8,43.5,36,43.5z"/>
	</g>
	<g>
		<path fill="none" stroke="#000100" stroke-width="2" stroke-linecap="round" stroke-linejoin="round" stroke-miterlimit="10" d="
			M44.8,44.9"/>
	</g>
	<g>
		<path fill="none" stroke="#000100" stroke-width="2" stroke-linecap="round" stroke-linejoin="round" stroke-miterlimit="10" d="
			M49.9,45.9"/>
	</g>
	<g>
		<path d="M48.5,19.7C48.5,19.7,48.5,19.7,48.5,19.7l-25.7,0c-0.2,0-0.5-0.1-0.6-0.2c-0.2-0.1-0.9-0.8-0.9-1.8c0-0.2,0-0.4,0.1-0.6
			c-0.5-0.5-1.1-1.1-1.2-1.9c-0.1-0.6,0.2-1.2,0.6-1.6c1-1,7.9-4.3,14.8-5.1c2.6-0.3,9.2-0.6,13.1,3c0.3,0.3,2.3,1.9,2,3.7
			c-0.1,0.5-0.3,1-0.9,1.6c0.3,0.5,0.5,1.1,0.3,1.8c-0.1,0.4-0.5,1-1.6,1.3C48.6,19.7,48.6,19.7,48.5,19.7z M23.4,17.6l24.9,0
			c-0.1-0.2-0.3-0.5-0.5-0.6c-0.2-0.2-0.3-0.6-0.3-0.9c0.1-0.3,0.3-0.6,0.6-0.7c0.2-0.1,0.7-0.3,0.8-0.6c0.1-0.5-0.7-1.4-1.3-1.9
			c-2.4-2.1-6.7-3-11.6-2.5c-6.8,0.7-13,4-13.6,4.6c0.1,0.2,0.6,0.7,1.1,1c0.3,0.2,0.5,0.5,0.5,0.8C23.9,17,23.7,17.3,23.4,17.6
			C23.4,17.6,23.4,17.6,23.4,17.6z"/>
	</g>
	<g>
		<path d="M35.8,10.4c-0.6,0-1-0.4-1-1V6.3c0-0.6,0.4-1,1-1c0.6,0,1,0.4,1,1v3.1C36.8,9.9,36.4,10.4,35.8,10.4z"/>
	</g>
	<g>
		<path d="M47.2,26.5c-0.1,0-0.2,0-0.2,0c-7.5-1.9-11.5-5-13.1-6.4c-1.4,1.5-4.7,4.6-8.8,6.2c-0.5,0.2-1.1-0.1-1.3-0.6
			c-0.2-0.5,0.1-1.1,0.6-1.3C29.2,22.5,33,18,33,18c0.2-0.2,0.5-0.4,0.8-0.4c0,0,0,0,0,0c0.3,0,0.6,0.1,0.8,0.4
			c0,0,3.7,4.2,12.9,6.6c0.5,0.1,0.9,0.7,0.7,1.2C48,26.2,47.6,26.5,47.2,26.5z"/>
	</g>
	<g id="XMLID_2_">
		<g>
			<path fill="none" stroke="#000000" stroke-width="2" stroke-linecap="round" stroke-linejoin="round" stroke-miterlimit="10" d="
				M42.2,50.7c0.1-0.1,0.2-0.1,0.3-0.2c0.4-0.3,0.7-0.6,0.9-1c0.2-0.4,0.3-0.8,0.4-1.2c0.1-0.5,0-1.1-0.3-1.6l-0.3-0.8"/>
			<path fill="none" stroke="#000000" stroke-width="2" stroke-linecap="round" stroke-linejoin="round" stroke-miterlimit="10" d="
				M42.2,50.7c-0.3,0.1-0.6,0.2-0.9,0.3c-1.3,0.2-2.6-0.4-3.2-1.6l-0.5-1.1"/>
			<path fill="none" stroke="#000000" stroke-width="2" stroke-linecap="round" stroke-linejoin="round" stroke-miterlimit="10" d="
				M50.9,46.5c-1.5-1-3.4-1.6-6-1.6c-0.6,0.4-1.1,0.7-1.6,1c-1.9,1.2-3.7,2-5.5,2.4c-0.6,0.1-1.1,0.2-1.7,0.2h-0.1
				c-2.9,0-5.4-1.3-8.4-3.3"/>
			<path fill="none" stroke="#000000" stroke-width="2" stroke-linecap="round" stroke-linejoin="round" stroke-miterlimit="10" d="
				M42.7,50.7l0.6,0.4c2.9,3.1,0.4,6.4,0.4,6.4s-3.6-1.9-2.5-5.9l0.2-0.6"/>
			<path fill="none" stroke="#000000" stroke-width="2" stroke-linecap="round" stroke-linejoin="round" stroke-miterlimit="10" d="
				M29.3,49.8c1.9,1.9,5.3,3.2,11.5,1.5"/>
			<path fill="none" stroke="#000000" stroke-width="2" stroke-linecap="round" stroke-linejoin="round" stroke-miterlimit="10" d="
				M43.5,49.5L43.5,49.5l0.4,0.6c2.3,3.9,6.2,3.1,6.2,3.1s-0.6-4-5.1-4.7l-1-0.1"/>
		</g>
	</g>
	<g>
		<g>
			<path d="M25.7,63.6c-3.5,0-7.2-1.1-10-3.3c0,0,0,0,0,0c-0.5-0.4-0.9-0.7-1.4-1.1c-0.3-0.3-0.6-0.5-0.8-0.8
				c-3.2-3.5-4.5-8.2-3.3-12.5c0.6-2.2,2.1-4.1,4.1-5.2c2-1.2,4.4-1.4,6.7-0.8l0.3,0.1c2.2,0.6,7.9,2.1,9.2,11.2
				c2.1-0.3,4.1,0.5,5.3,2c1.2,1.6,1.1,3.7-0.3,5.7c-0.5,0.7-1.1,1.4-1.9,2.1C31.6,62.8,28.7,63.6,25.7,63.6z M16.9,58.8
				c4.6,3.5,11.9,3.8,15.5,0.7c0.6-0.6,1.2-1.1,1.5-1.7c0.9-1.3,1-2.5,0.3-3.4c-0.8-1.1-2.6-1.5-4.2-1c-0.3,0.1-0.6,0-0.8-0.1
				c-0.2-0.2-0.4-0.4-0.4-0.7c-0.9-8.8-5.8-10.1-7.9-10.6l-0.3-0.1c-1.8-0.5-3.6-0.3-5.2,0.6c-1.5,0.9-2.7,2.3-3.1,4
				c-1,3.6,0.1,7.6,2.8,10.6c0.2,0.2,0.5,0.5,0.7,0.7C16,58.1,16.4,58.5,16.9,58.8L16.9,58.8z"/>
		</g>
		<g>
			<path fill="#000100" d="M17.9,46.3c-0.3,1.1-1.4,1.7-2.5,1.4c-1.1-0.3-1.7-1.4-1.4-2.5c0.3-1.1,1.4-1.7,2.5-1.4
				C17.5,44.1,18.1,45.2,17.9,46.3"/>
		</g>
		<g>
			<path fill="#000100" d="M18.3,53.1c-0.3,1.1-1.4,1.7-2.5,1.4c-1.1-0.3-1.7-1.4-1.4-2.5c0.3-1.1,1.4-1.7,2.5-1.4
				C18,51,18.6,52.1,18.3,53.1"/>
		</g>
		<g>
			<path fill="#000100" d="M23.6,57.9c-0.3,1.1-1.4,1.7-2.5,1.4c-1.1-0.3-1.7-1.4-1.4-2.5c0.3-1.1,1.4-1.7,2.5-1.4
				C23.3,55.7,23.9,56.8,23.6,57.9"/>
		</g>
	</g>
	<g id="XMLID_1_">
		<g>
			<path fill="none" stroke="#000000" stroke-width="2" stroke-linecap="round" stroke-linejoin="round" stroke-miterlimit="10" d="
				M58.1,39.9L57.6,39c-2-5.5,3.7-7.2,3.7-7.2s4,4.4-0.4,8.1l-0.7,0.6"/>
			<path fill="none" stroke="#000000" stroke-width="2" stroke-linecap="round" stroke-linejoin="round" stroke-miterlimit="10" d="
				M60.3,44.1l-3.9,15c-0.3,1.1-1.5,1.8-2.6,1.5c-0.6-0.1-1-0.5-1.3-1c-0.3-0.5-0.4-1-0.2-1.6l3.9-15"/>
			
				<polygon fill="none" stroke="#000000" stroke-width="2" stroke-linecap="round" stroke-linejoin="round" stroke-miterlimit="10" points="
				60.3,44.1 61.2,40.7 60.1,40.4 58.1,39.9 57,39.6 56.2,43 			"/>
		</g>
	</g>
	<g>
		<path d="M23.1,38h-2.2c-1.3,0-2-0.7-2.3-1.2c-2.2-3.7,4.3-16.1,5.7-18.6c0.2-0.3,0.5-0.5,0.9-0.5l8.7,0c0,0,0,0,0,0
			c0.6,0,1,0.4,1,1c0,0.6-0.4,1-1,1l-8.1,0c-3,5.7-6.6,14.1-5.4,16.1c0.1,0.1,0.2,0.3,0.6,0.3h2.2c0.6,0,1,0.4,1,1
			C24.1,37.5,23.6,38,23.1,38z"/>
	</g>
	<g>
		<path d="M50.4,38h-1.8c-0.6,0-1-0.4-1-1c0-0.6,0.4-1,1-1h1.8c0.4,0,0.6-0.2,0.7-0.3c1.2-2-2-10.4-4.8-16l-8,0c-0.6,0-1-0.5-1-1
			c0-0.6,0.4-1,1-1c0,0,0,0,0,0l8.7,0c0.4,0,0.7,0.2,0.9,0.5C49,20.6,55,33,52.7,36.7C52.4,37.3,51.7,38,50.4,38z"/>
	</g>
</g>
</svg>
