<svg id="emoji" xmlns="http://www.w3.org/2000/svg" viewBox="0 0 72 72">
  <g id="line">
    <g>
      <path d="M32.1112,46.1155q.0117.2115.0117.426a6.7761,6.7761,0,0,1-6.4885,7.0311,6.7761,6.7761,0,0,1-6.4885-7.0311q0-.1427.0052-.284" fill="none" stroke="#000" stroke-miterlimit="10" stroke-width="1.6"/>
      <path d="M28.4866,46.9845a.9414.9414,0,1,1-.9386-.8689.9058.9058,0,0,1,.9386.8689"/>
      <path d="M24.7318,46.9845a.9414.9414,0,1,1-.9386-.8689.9058.9058,0,0,1,.9386.8689"/>
      <path d="M24.2625,50.3673a2.223,2.223,0,0,0,2.8161,0" fill="none" stroke="#000" stroke-linecap="round" stroke-linejoin="round" stroke-width="1.6"/>
      <path d="M23.1974,43.1188c.4694,3.3631,4.487-.8707,4.487-.8707.549,1.5737,4.4254,3.8675,4.4254,3.8675,1.0324-.9558.5259-2.8526.3721-3.5136a5.1206,5.1206,0,0,0-5.8079-4.1141,6.4443,6.4443,0,0,1-1.0324,0c-2.2709-.3369-6.03-.1484-7.12,4.6433-.5317,2.3382.624,2.9844.624,2.9844S22.91,41.0565,23.1974,43.1188Z" fill="none" stroke="#000" stroke-linecap="round" stroke-linejoin="round" stroke-width="1.6"/>
      <path d="M15.8642,60.2532V59.31c0-2.253,2.5843-4.06,5.1612-4.06a7.2233,7.2233,0,0,0,9.29,0c2.5775,0,5.1612,1.8072,5.1612,4.06v.9437" fill="none" stroke="#000" stroke-linecap="round" stroke-linejoin="round" stroke-width="1.6"/>
    </g>
    <path d="M12.1172,39.762a7.7521,7.7521,0,0,1-.688-7.4069c1.6071-3.789,2.0328-3.77,2.2914-8.5683a5.4341,5.4341,0,0,1,4.9483-5.3707,7.236,7.236,0,0,1,5.346-2.0047c4.2982,0,8.1727,2.3162,9.161,5.9915,1.0024,3.7309-.23,5.2352.8627,8.0418.4654,1.1957.3944,2.1019.8054,3.2927" fill="none" stroke="#000" stroke-linecap="round" stroke-linejoin="round" stroke-width="2"/>
    <path d="M20.8585,39.1052l-1.5432-1.3259a11.091,11.091,0,0,1-3.32-8.0029c0-3.3412,1.3365-5.3459,4.0094-8.019,2.673,2.673,10.692,6.0142,10.692,7.3508v.6682h0a10.4016,10.4016,0,0,1-2.68,7.2607l-1.13,1.24" fill="none" stroke="#000" stroke-miterlimit="10" stroke-width="1.6"/>
    <path d="M19.6725,29.6549a1.2388,1.2388,0,1,1,1.2388,1.2388,1.2388,1.2388,0,0,1-1.2388-1.2388"/>
    <path d="M24.6278,29.6549a1.2388,1.2388,0,1,1,1.2388,1.2388,1.2388,1.2388,0,0,1-1.2388-1.2388"/>
    <path d="M21.4828,34.3816a3.9489,3.9489,0,0,0,3.7165,0" fill="none" stroke="#000" stroke-linecap="round" stroke-linejoin="round" stroke-width="1.6"/>
    <path d="M57.1148,38.9409a7.7519,7.7519,0,0,0,.6881-7.4069c-1.6071-3.789-2.0328-3.77-2.2915-8.5683a5.4341,5.4341,0,0,0-4.9483-5.3707A7.2359,7.2359,0,0,0,45.2172,15.59c-4.2982,0-8.1727,2.3162-9.1611,5.9915-1.0023,3.7308-1.0751,2.4115-1.5957,6.5269a15.42,15.42,0,0,0-.39,2.3675" fill="none" stroke="#000" stroke-linecap="round" stroke-linejoin="round" stroke-width="2"/>
    <path d="M49.56,28.8337a1.2388,1.2388,0,1,0-1.2388,1.2388A1.2388,1.2388,0,0,0,49.56,28.8337"/>
    <path d="M44.6043,28.8337a1.2389,1.2389,0,1,0-1.2389,1.2388,1.2387,1.2387,0,0,0,1.2389-1.2388"/>
    <path d="M47.7014,33.9438a3.9491,3.9491,0,0,1-3.7166,0" fill="none" stroke="#000" stroke-linecap="round" stroke-linejoin="round" stroke-width="1.6"/>
    <path d="M60.1907,59.885v-12.76c0-3.3491-3.3966-6.0357-6.785-6.0357l-1.4989-.1973" fill="none" stroke="#000" stroke-linecap="round" stroke-linejoin="round" stroke-width="2"/>
    <path d="M11.5919,60.0556v-12.76c0-3.3491,3.3966-6.0357,6.785-6.0357" fill="none" stroke="#000" stroke-linecap="round" stroke-linejoin="round" stroke-width="2"/>
    <g>
      <path d="M51.2577,51.9492l2.6792.08.3912.008S52.0147,52.657,51.2577,51.9492Z" fill="#fff"/>
      <path d="M51.1131,55.33a7.8071,7.8071,0,0,0,2.8238,1.2965,3.7364,3.7364,0,0,0,.3912.0715Z" fill="#fff"/>
      <path d="M54.3281,58.4633l-.3912-.1273" fill="none"/>
      <path d="M51.0353,50.3291a9.664,9.664,0,0,1-2.05,3.15,5.8538,5.8538,0,0,1-2.1688,1.1692l-.2552.0716a5.9494,5.9494,0,0,1-1.31.1511A5.585,5.585,0,0,1,44.35,54.8c-.136-.0239-.2636-.0477-.3912-.0795A5.8144,5.8144,0,0,1,41.28,53.2727a9.5225,9.5225,0,0,1-1.7591-2.7806" fill="none" stroke="#000" stroke-miterlimit="10" stroke-width="1.6"/>
      <path d="M48.0331,47.6241a.8928.8928,0,1,1-.8907-.833.8633.8633,0,0,1,.8907.833Z"/>
      <path d="M44.47,47.6241a.8928.8928,0,1,1-.8907-.833.8633.8633,0,0,1,.8907.833Z"/>
      <path d="M44.0247,50.8669a2.0934,2.0934,0,0,0,2.6723,0" fill="none" stroke="#000" stroke-linecap="round" stroke-linejoin="round" stroke-width="1.6"/>
      <path d="M54.6647,60.3436v-.9067c0-2.02-2.2109-3.6746-4.5617-3.8655a4.69,4.69,0,0,0-.4719-.0239,2.3151,2.3151,0,0,1-.2534.1671,8.016,8.016,0,0,1-2.945,1.3123.0129.0129,0,0,1-.0175,0,6.0691,6.0691,0,0,1-2.2721.0636,3.9336,3.9336,0,0,1-.402-.0715A8.1271,8.1271,0,0,1,40.84,55.7225c-.0874-.0557-.1748-.1113-.2622-.175a4.69,4.69,0,0,0-.4719.0239c-2.3507.1909-4.5617,1.8452-4.5617,3.8655v.9067" fill="none" stroke="#000" stroke-linecap="round" stroke-linejoin="round" stroke-width="1.6"/>
      <path d="M41.4155,39.2481c-1.7214.6142-3.4149,2.2239-3.7034,6.1507a18.0621,18.0621,0,0,0-.0186,2.2611,7.1977,7.1977,0,0,1-2.15,3.1358A4.1881,4.1881,0,0,0,39.35,52.2566a9.605,9.605,0,0,1,.67-3.6941,10.7778,10.7778,0,0,1,.9305-2.1216,8.4346,8.4346,0,0,1,4.3175-3.815,8.3087,8.3087,0,0,1,4.0105,3.2288,11.0091,11.0091,0,0,1,1.2375,2.7078c.2047.6792.3536,1.2468.4467,1.7121a6.0838,6.0838,0,0,1,.2233,1.982,3.5974,3.5974,0,0,0,1.2562.0279h.0186a3.5148,3.5148,0,0,0,.884-.27,4.6627,4.6627,0,0,0,1.6469-1.2189A7.1981,7.1981,0,0,1,52.8421,47.66a14.1026,14.1026,0,0,0-.0558-3.5359c-.53-3.4057-2.531-4.606-4.3176-4.9689a7.75,7.75,0,0,0-3.1079.0186,7.212,7.212,0,0,0-1.9168-.2512,6.3065,6.3065,0,0,0-2.0285.3256" fill="none" stroke="#000" stroke-linecap="round" stroke-linejoin="round" stroke-width="1.6"/>
    </g>
    <path d="M38.5348,28.9553V28.287c0-1.3365,8.019-4.6777,10.692-7.3507,2.673,2.673,4.01,4.6778,4.01,8.019,0,5.346-3.3413,9.0681-7.3508,9.0681s-7.3507-3.7222-7.3507-9.0681Z" fill="none" stroke="#000" stroke-miterlimit="10" stroke-width="2"/>
  </g>
</svg>
