<?xml version="1.0" encoding="utf-8"?>
<!-- Generator: Adobe Illustrator 21.1.0, SVG Export Plug-In . SVG Version: 6.00 Build 0)  -->
<svg version="1.1" id="emoji" xmlns="http://www.w3.org/2000/svg" xmlns:xlink="http://www.w3.org/1999/xlink" x="0px" y="0px"
	 viewBox="0 0 72 72" enable-background="new 0 0 72 72" xml:space="preserve">
<g id="_xD83D__xDC6E_">
	<path d="M49.4,55c0,1.1-0.9,2-2,2s-2-0.9-2-2c0-1.1,0.9-2,2-2S49.4,53.9,49.4,55"/>
	<path fill="none" stroke="#1D1D1B" stroke-width="2" stroke-linecap="round" stroke-linejoin="round" stroke-miterlimit="10" d="
		M51.3,53.6"/>
	<path fill="none" stroke="#1D1D1B" stroke-width="2" stroke-linecap="round" stroke-linejoin="round" stroke-miterlimit="10" d="
		M45.8,48.2"/>
	<g id="XMLID_2_">
		<g>
		</g>
		<g>
			<path fill="none" stroke="#000000" stroke-width="2" stroke-linecap="round" stroke-linejoin="round" stroke-miterlimit="10" d="
				M17,57.7c0,0-2-13,10-13c3.2,2.1,5.9,3.5,8.9,3.6H36c3,0,5.6-1.4,8.7-3.5c0.1,0,0.1-0.1,0.2-0.1c12,0,10,13,10,13"/>
			
				<polyline fill="none" stroke="#000000" stroke-width="2" stroke-linecap="round" stroke-linejoin="round" stroke-miterlimit="10" points="
				27,44.7 30.7,53.6 33.3,50.9 35.8,48.3 			"/>
			
				<line fill="none" stroke="#000000" stroke-width="2" stroke-linecap="round" stroke-linejoin="round" stroke-miterlimit="10" x1="38.4" y1="50.9" x2="35.8" y2="48.3"/>
			
				<polyline fill="none" stroke="#000000" stroke-width="2" stroke-linecap="round" stroke-linejoin="round" stroke-miterlimit="10" points="
				44.7,44.7 44.7,44.8 41,53.6 38.4,50.9 			"/>
			<path fill="none" stroke="#000000" stroke-width="2" stroke-linecap="round" stroke-linejoin="round" stroke-miterlimit="10" d="
				M33.4,51.1c0.1,1.5,0.7,3,2.5,3c1.8,0,2.4-1.6,2.5-3.2v0"/>
			
				<line fill="none" stroke="#000000" stroke-width="2" stroke-linecap="round" stroke-linejoin="round" stroke-miterlimit="10" x1="35" y1="54.1" x2="32.6" y2="57.7"/>
			
				<line fill="none" stroke="#000000" stroke-width="2" stroke-linecap="round" stroke-linejoin="round" stroke-miterlimit="10" x1="36.7" y1="54.1" x2="39.2" y2="57.7"/>
		</g>
	</g>
	
		<line fill="none" stroke="#000000" stroke-width="2" stroke-linecap="round" stroke-linejoin="round" stroke-miterlimit="10" x1="21.1" y1="56.1" x2="27" y2="56.1"/>
	<g id="XMLID_1_">
		<g>
			<path fill="#000100" d="M40,24.8c1.1,0,2,0.9,2,2c0,1.1-0.9,2-2,2c-1.1,0-2-0.9-2-2C38,25.7,38.9,24.8,40,24.8z"/>
			<path fill="#1D1D1B" d="M38.5,12.7c0,0-0.3,3.9-2.5,3.9c-2.1,0-2.5-3.9-2.5-3.9C35.1,11.4,37.6,11.7,38.5,12.7z"/>
			<path fill="#000100" d="M32,24.8c1.1,0,2,0.9,2,2c0,1.1-0.9,2-2,2c-1.1,0-2-0.9-2-2C30,25.7,30.9,24.8,32,24.8z"/>
		</g>
		<g>
		</g>
	</g>
	<path d="M36,36.8c-1.2,0-2.3-0.3-3.4-0.9c-0.5-0.2-0.7-0.8-0.4-1.3c0.2-0.5,0.8-0.7,1.3-0.4c1.7,0.9,3.4,0.9,5.1,0
		c0.5-0.2,1.1,0,1.3,0.4c0.2,0.5,0,1.1-0.4,1.3C38.3,36.5,37.2,36.8,36,36.8z"/>
	<path d="M42,26.8c0,1.1-0.9,2-2,2c-1.1,0-2-0.9-2-2c0-1.1,0.9-2,2-2C41.1,24.8,42,25.7,42,26.8"/>
	<path d="M34,26.8c0,1.1-0.9,2-2,2c-1.1,0-2-0.9-2-2c0-1.1,0.9-2,2-2C33.1,24.8,34,25.7,34,26.8"/>
	<path fill="none" stroke="#000000" stroke-width="2" stroke-miterlimit="10" d="M24.7,29.5c0.5,7.2,5.4,12.8,11.3,12.8
		c5.8,0,10.6-5.5,11.3-12.6c0-0.5,0.1-1.1,0.1-1.6"/>
	<path fill="none" stroke="#1D1D1B" stroke-width="2" stroke-linecap="round" stroke-linejoin="round" stroke-miterlimit="10" d="
		M42.3,17.1"/>
	<path fill="none" stroke="#1D1D1B" stroke-width="2" stroke-linecap="round" stroke-linejoin="round" stroke-miterlimit="10" d="
		M29.6,17.1"/>
	<path fill="none" stroke="#1D1D1B" stroke-width="2" stroke-linecap="round" stroke-linejoin="round" stroke-miterlimit="10" d="
		M46.4,16.3"/>
	<path d="M36.1,16.6c-2.1,0-2.5-3.9-2.5-3.9c1.6-1.3,4.1-0.9,5,0.1C38.6,12.7,38.2,16.6,36.1,16.6z"/>
	<path fill="none" stroke="#000000" stroke-width="2" stroke-linecap="round" stroke-linejoin="round" stroke-miterlimit="10" d="
		M34.2,22.3c-7.2,1-9.5,7.7-9.5,7.7c-4.4-5.5,1.4-9.5,1.4-9.5l0.8-0.6"/>
	<path fill="none" stroke="#000000" stroke-width="2" stroke-linecap="round" stroke-linejoin="round" stroke-miterlimit="10" d="
		M46.4,18.8C42,24,30,23.4,25.3,18.8H46.4z"/>
	<path fill="none" stroke="#000000" stroke-width="2" stroke-linecap="round" stroke-linejoin="round" stroke-miterlimit="10" d="
		M47.7,22.5l2.2-2.7c0.8-1,1.6-3.2,0.4-3.5c-5.7-1.5-5.9-7.9-14.3-7.9c-8.4,0-8.6,6.3-14.3,7.9c-1.2,0.3-0.4,2.5,0.4,3.5l2,2.4"/>
	<path fill="none" stroke="#000000" stroke-width="2" stroke-linecap="round" stroke-linejoin="round" stroke-miterlimit="10" d="
		M41.4,21.8c3.1,0.3,5.8,8.2,5.8,8.2c4.4-5.5-1.4-9.5-1.4-9.5L45.1,20"/>
</g>
</svg>
