<?xml version="1.0" encoding="utf-8"?>
<!-- Generator: Adobe Illustrator 21.1.0, SVG Export Plug-In . SVG Version: 6.00 Build 0)  -->
<svg version="1.1" id="emoji" xmlns="http://www.w3.org/2000/svg" xmlns:xlink="http://www.w3.org/1999/xlink" x="0px" y="0px"
	 viewBox="0 0 72 72" enable-background="new 0 0 72 72" xml:space="preserve">
<g id="_xD83D__xDC69__x200D__xD83D__xDE92_">
	<path d="M41.9,26.9c0,1.1-0.9,2-2,2s-2-0.9-2-2c0-1.1,0.9-2,2-2S41.9,25.8,41.9,26.9"/>
	<path d="M33.9,26.9c0,1.1-0.9,2-2,2c-1.1,0-2-0.9-2-2c0-1.1,0.9-2,2-2C33,24.9,33.9,25.8,33.9,26.9"/>
	<path d="M35.9,36.9c-1.2,0-2.3-0.3-3.4-0.9c-0.5-0.2-0.7-0.8-0.4-1.3c0.2-0.5,0.8-0.7,1.3-0.4c1.7,0.9,3.4,0.9,5.1,0
		c0.5-0.2,1.1,0,1.3,0.4c0.2,0.5,0,1.1-0.4,1.3C38.2,36.6,37,36.9,35.9,36.9z"/>
	<path fill="none" stroke="#000000" stroke-width="2" stroke-miterlimit="10" d="M24.7,25.6c-0.1,0.8-0.2,1.7-0.2,2.6
		c0,7.8,5.1,14.2,11.3,14.2s11.3-6.3,11.3-14.2c0-1.2-0.1-2.3-0.3-3.4"/>
	<path fill="none" stroke="#1D1D1B" stroke-width="2" stroke-linecap="round" stroke-linejoin="round" stroke-miterlimit="10" d="
		M31.5,17.7v-4.7l4.1-5.2l4.5,5.3v4.6C37.5,19.6,33.7,18.9,31.5,17.7z"/>
	<path fill="none" stroke="#000000" stroke-width="2" stroke-linecap="round" stroke-linejoin="round" stroke-miterlimit="10" d="
		M31.6,17.7v-4.7l4.1-5.2l4.5,5.3v4.6C37.6,19.6,33.8,18.9,31.6,17.7z"/>
	<path fill="none" stroke="#000000" stroke-width="2" stroke-linecap="round" stroke-linejoin="round" stroke-miterlimit="10" d="
		M47.5,19.6c-0.1-10.1-6.5-12-12-12h0.4c-5.5,0-11.9,1.9-12,12"/>
	<path fill="none" stroke="#000000" stroke-width="2" stroke-linecap="round" stroke-linejoin="round" stroke-miterlimit="10" d="
		M46.3,20.7c0.4,0.7,1.4,3.4,1.2,5.3c-1.2,0.9-4.1-1.9-6.6-3.9"/>
	<path fill="none" stroke="#000000" stroke-width="2" stroke-linecap="round" stroke-linejoin="round" stroke-miterlimit="10" d="
		M50.6,28.3c4.9-3.6,0.6-6.8,0.6-6.8c-1.2-0.9-3.1-1.2-4.9-1.1c-1.9,0.1-3.7,0.7-5.3,1.6c-1.6,0.9-3.4,1.4-5.1,1.4
		c-1.7,0-3.5-0.5-5.1-1.4c-1.6-0.9-3.5-1.5-5.3-1.6c-1.8-0.1-3.7,0.1-4.9,1.1c0,0-2.4,1.7-1.6,4.1"/>
	<path fill="none" stroke="#000000" stroke-width="2" stroke-linecap="round" stroke-linejoin="round" stroke-miterlimit="10" d="
		M31.4,22.5c-2.1,1.6-4.6,3-6.6,3.2"/>
	<path fill="none" stroke="#000000" stroke-width="2" stroke-linecap="round" stroke-linejoin="round" stroke-miterlimit="10" d="
		M25.7,20.5c-2.4,3.5-1.1,6.3-1.1,6.3s-9.4,2.5-7,14.1c0,0,4.4-0.1,6.3-2.4"/>
	<g id="XMLID_2_">
		<g>
		</g>
		<g>
		</g>
	</g>
	<path fill="none" stroke="#000000" stroke-width="2" stroke-linecap="round" stroke-linejoin="round" stroke-miterlimit="10" d="
		M16.9,57.9c0,0-2-13,10-13c3.2,2.1,5.9,3.6,9,3.6h-0.1c3.1,0,5.8-1.5,9-3.6c1.2,0,2.3,0.1,3.3,0.4"/>
	
		<line fill="none" stroke="#000000" stroke-width="2" stroke-linecap="round" stroke-linejoin="round" stroke-miterlimit="10" x1="46.5" y1="51.3" x2="46.5" y2="45.1"/>
	
		<polyline fill="none" stroke="#000000" stroke-width="2" stroke-linecap="round" stroke-linejoin="round" stroke-miterlimit="10" points="
		25.1,45 25.1,57.9 26.9,57.9 26.9,44.9 35.8,57.9 44.7,45 44.7,53.9 	"/>
	
		<line fill="none" stroke="#000000" stroke-width="2" stroke-linecap="round" stroke-linejoin="round" stroke-miterlimit="10" x1="32" y1="52.2" x2="39.7" y2="52.2"/>
	<g>
		<path fill="none" stroke="#000000" stroke-width="2" stroke-linecap="round" stroke-linejoin="round" stroke-miterlimit="10" d="
			M58.6,47.6l-2.8,2.3l-3-3.7l2.8-2.3L58.6,47.6c0,0,4.3-5.5,6.6-7.2l-1.4-1.7c-2.3,2.1-8.2,5.3-8.2,5.3l-7.4-3.5"/>
		<path fill="none" stroke="#000000" stroke-width="2" stroke-linecap="round" stroke-linejoin="round" stroke-miterlimit="10" d="
			M52.8,46.2c0,0-9.8,5.5-8.8,11.7"/>
		<path fill="none" stroke="#000000" stroke-width="2" stroke-linecap="round" stroke-linejoin="round" stroke-miterlimit="10" d="
			M55.8,49.9c0,0-7,4.9-6.6,8"/>
		<path fill="none" stroke="#000000" stroke-width="2" stroke-linecap="round" stroke-linejoin="round" stroke-miterlimit="10" d="
			M54.6,47.5"/>
	</g>
	<path fill="none" stroke="#000000" stroke-width="2" stroke-linecap="round" stroke-linejoin="round" stroke-miterlimit="10" d="
		M54.9,57.9c0,0,0.1-0.5,0.1-1.4c0-0.1,0-0.2,0-0.3c0-0.3,0-0.7,0-1l0-0.6"/>
</g>
</svg>
