<svg id="emoji" xmlns="http://www.w3.org/2000/svg" viewBox="0 0 72 72">
  <g id="line">
    <g>
      <path d="M20.5966,39.4205a7.293,7.293,0,0,1-.756-.35C16.88,37.493,14.72,33.8032,14.72,29.53" fill="none" stroke="#000" stroke-miterlimit="10" stroke-width="2"/>
      <path d="M31.089,29.5727a11.1291,11.1291,0,0,1-3.9337,8.8588" fill="none" stroke="#000" stroke-miterlimit="10" stroke-width="2"/>
      <path d="M12.8407,24.7588c.5981-7.9646,6.7385-8.05,9.826-7.5647a8.2942,8.2942,0,0,0,1.4037,0c5.6148-.6877,8.4223,5.5015,8.4223,8.2524,0,.973,0,3.4384-1.4037,4.8138,0,0-3.2145-3.8124-3.3619-6.0324,0,0-10.6752,3.9692-11.3771.5308,0,0-2.4,1.7757-1.43,6.52A14.0688,14.0688,0,0,1,12.8407,24.7588Z" fill="none" stroke="#000" stroke-linecap="round" stroke-linejoin="round" stroke-width="2"/>
      <path d="M26.5767,30.1726a1.3014,1.3014,0,1,1-1.3011-1.2749,1.2882,1.2882,0,0,1,1.3011,1.2749"/>
      <path d="M21.7666,30.2226a1.3014,1.3014,0,1,1-1.3011-1.2748,1.2882,1.2882,0,0,1,1.3011,1.2748"/>
      <path d="M21.116,35.4815a4.2233,4.2233,0,0,0,3.9035,0" fill="none" stroke="#000" stroke-linecap="round" stroke-linejoin="round" stroke-width="1.6"/>
    </g>
    <path d="M11.9443,60.176V48.2524c0-3.1295,3.1377-5.64,6.2667-5.64" fill="none" stroke="#000" stroke-linecap="round" stroke-linejoin="round" stroke-width="2"/>
    <path d="M36.9726,33.4553c.3841-1.1127.9384-2.1911,1.3733-3.3084,1.021-2.6227-.13-4.0284.8061-7.5146.9236-3.4344,4.5441-5.5988,8.5606-5.5988a6.7615,6.7615,0,0,1,4.9955,1.8733,5.078,5.078,0,0,1,4.624,5.0187c.2417,4.4835.6394,4.466,2.1412,8.0066a7.2442,7.2442,0,0,1-.6429,6.9214" fill="none" stroke="#000" stroke-linecap="round" stroke-linejoin="round" stroke-width="2"/>
    <path d="M52.9128,42.5974c5.1483-.9706,7.1547,2.5255,7.1547,5.655V60.176" fill="none" stroke="#000" stroke-linecap="round" stroke-linejoin="round" stroke-width="2"/>
    <path d="M41.4682,29.5224c0,4.9955,3.1222,8.7423,6.8689,8.7423s6.8689-3.7467,6.8689-8.7423c0-3.1222-1.2489-4.9955-3.7466-7.4933-2.4978,2.4977-9.9911,5.62-9.9911,6.8689v.6244Z" fill="none" stroke="#000" stroke-miterlimit="10" stroke-width="1.6"/>
    <path d="M51.77,29.4088a1.1577,1.1577,0,1,1-1.1577-1.1576A1.1577,1.1577,0,0,1,51.77,29.4088"/>
    <path d="M47.14,29.4088a1.1576,1.1576,0,1,1-1.1576-1.1576A1.1577,1.1577,0,0,1,47.14,29.4088"/>
    <path d="M46.561,34.184a3.69,3.69,0,0,0,3.4729,0" fill="none" stroke="#000" stroke-linecap="round" stroke-linejoin="round" stroke-width="1.6"/>
    <g>
      <path d="M32.5031,46.0971q.0117.2114.0118.426a6.7762,6.7762,0,0,1-6.4886,7.0311,6.7762,6.7762,0,0,1-6.4885-7.0311q0-.1427.0052-.2841" fill="none" stroke="#000" stroke-miterlimit="10" stroke-width="1.6"/>
      <path d="M28.8786,46.9661a.9415.9415,0,1,1-.9387-.8689.9059.9059,0,0,1,.9387.8689"/>
      <path d="M25.1238,46.9661a.9415.9415,0,1,1-.9387-.8689.9059.9059,0,0,1,.9387.8689"/>
      <path d="M24.6545,50.3489a2.2231,2.2231,0,0,0,2.816,0" fill="none" stroke="#000" stroke-linecap="round" stroke-linejoin="round" stroke-width="1.6"/>
      <path d="M23.5894,43.1c.4693,3.3631,4.4869-.8707,4.4869-.8707.5491,1.5737,4.4254,3.8675,4.4254,3.8675,1.0324-.9558.526-2.8526.3721-3.5136A5.1206,5.1206,0,0,0,27.0659,38.47a6.4443,6.4443,0,0,1-1.0324,0c-2.2709-.3369-6.03-.1484-7.12,4.6433-.5317,2.3382.624,2.9844.624,2.9844S23.3016,41.0381,23.5894,43.1Z" fill="none" stroke="#000" stroke-linecap="round" stroke-linejoin="round" stroke-width="1.6"/>
      <path d="M16.2562,60.2348v-.9437c0-2.253,2.5842-4.06,5.1612-4.06a7.2229,7.2229,0,0,0,9.29,0c2.5776,0,5.1613,1.8073,5.1613,4.06v.9437" fill="none" stroke="#000" stroke-linecap="round" stroke-linejoin="round" stroke-width="1.6"/>
    </g>
    <g>
      <g>
        <path d="M39.3657,46.2093q-.0117.2115-.0117.426a6.7761,6.7761,0,0,0,6.4885,7.0311,6.7762,6.7762,0,0,0,6.4886-7.0311q0-.1427-.0052-.2841" fill="none" stroke="#000" stroke-miterlimit="10" stroke-width="1.6"/>
        <path d="M42.99,47.0783a.9414.9414,0,1,0,.9387-.8689.9058.9058,0,0,0-.9387.8689Z"/>
        <path d="M46.7451,47.0783a.9414.9414,0,1,0,.9386-.8689.9058.9058,0,0,0-.9386.8689Z"/>
        <path d="M47.2144,50.4611a2.223,2.223,0,0,1-2.8161,0" fill="none" stroke="#000" stroke-linecap="round" stroke-linejoin="round" stroke-width="1.6"/>
        <path d="M48.28,43.2126c-.4694,3.3631-4.487-.8707-4.487-.8707-.549,1.5737-4.4253,3.8675-4.4253,3.8675-1.0325-.9558-.526-2.8526-.3722-3.5136a5.1206,5.1206,0,0,1,5.8079-4.1141,6.4456,6.4456,0,0,0,1.0325,0c2.2709-.3369,6.03-.1484,7.12,4.6433.5317,2.3382-.6239,2.9844-.6239,2.9844S48.5673,41.15,48.28,43.2126Z" fill="none" stroke="#000" stroke-linecap="round" stroke-linejoin="round" stroke-width="1.6"/>
      </g>
      <path d="M55.6127,60.347v-.9437c0-2.253-2.5842-4.06-5.1612-4.06a7.2233,7.2233,0,0,1-9.29,0C38.5837,55.3431,36,57.15,36,59.4033v.9437" fill="none" stroke="#000" stroke-linecap="round" stroke-linejoin="round" stroke-width="1.6"/>
    </g>
  </g>
</svg>
