<?xml version="1.0" encoding="utf-8"?>
<!-- Generator: Adobe Illustrator 21.1.0, SVG Export Plug-In . SVG Version: 6.00 Build 0)  -->
<svg version="1.1" id="emoji" xmlns="http://www.w3.org/2000/svg" xmlns:xlink="http://www.w3.org/1999/xlink" x="0px" y="0px"
	 viewBox="0 0 72 72" enable-background="new 0 0 72 72" xml:space="preserve">
<g id="_xD83D__xDC68__x200D__xD83C__xDFA8_">
	<g>
		<path d="M42,26.9c0,1.1-0.9,2-2,2s-2-0.9-2-2c0-1.1,0.9-2,2-2S42,25.8,42,26.9"/>
	</g>
	<g>
		<path d="M34,26.9c0,1.1-0.9,2-2,2s-2-0.9-2-2c0-1.1,0.9-2,2-2S34,25.8,34,26.9"/>
	</g>
	<g>
		<path d="M36,36.9c-1.2,0-2.3-0.3-3.4-0.9c-0.5-0.2-0.7-0.8-0.4-1.3c0.2-0.5,0.8-0.7,1.3-0.4c1.7,0.9,3.4,0.9,5.1,0
			c0.5-0.2,1.1,0,1.3,0.4c0.2,0.5,0,1.1-0.4,1.3C38.3,36.7,37.1,36.9,36,36.9z"/>
	</g>
	<g>
		<path d="M36,43.5c-6.8,0-12.3-6.8-12.3-15.2c0-0.2,0-0.4,0-0.7l2,0.1c0,0.2,0,0.4,0,0.6c0,7.3,4.6,13.2,10.3,13.2
			c5.7,0,10.3-5.9,10.3-13.2c0-0.2,0-0.4,0-0.6l2-0.1c0,0.2,0,0.4,0,0.7C48.3,36.7,42.8,43.5,36,43.5z"/>
	</g>
	<g>
		<path fill="none" stroke="#000100" stroke-width="2" stroke-linecap="round" stroke-linejoin="round" stroke-miterlimit="10" d="
			M44.8,44.8"/>
	</g>
	<g>
		<path fill="none" stroke="#000100" stroke-width="2" stroke-linecap="round" stroke-linejoin="round" stroke-miterlimit="10" d="
			M49.9,45.9"/>
	</g>
	<g>
		<path d="M48.5,19.6C48.5,19.6,48.5,19.6,48.5,19.6l-25.7,0c-0.2,0-0.5-0.1-0.6-0.2c-0.2-0.1-0.9-0.8-0.9-1.8c0-0.2,0-0.4,0.1-0.6
			c-0.5-0.5-1.1-1.1-1.2-1.9c-0.1-0.6,0.2-1.2,0.6-1.6c1-1,7.9-4.3,14.8-5.1c2.6-0.3,9.2-0.6,13.1,3c0.3,0.3,2.3,1.9,2,3.7
			c-0.1,0.5-0.3,1-0.9,1.6c0.3,0.5,0.5,1.1,0.3,1.8c-0.1,0.4-0.5,1-1.6,1.3C48.6,19.6,48.6,19.6,48.5,19.6z M23.4,17.6l24.9,0
			c-0.1-0.2-0.3-0.5-0.5-0.6c-0.2-0.2-0.3-0.6-0.3-0.9c0.1-0.3,0.3-0.6,0.6-0.7c0.2-0.1,0.7-0.3,0.8-0.6c0.1-0.5-0.7-1.4-1.3-1.9
			c-2.4-2.1-6.7-3-11.6-2.5c-6.8,0.7-13,4-13.6,4.6c0.1,0.2,0.6,0.7,1.1,1c0.3,0.2,0.5,0.5,0.5,0.8C23.9,17,23.7,17.3,23.4,17.6
			C23.4,17.5,23.4,17.5,23.4,17.6z"/>
	</g>
	<g>
		<path d="M35.8,10.3c-0.6,0-1-0.4-1-1V6.2c0-0.6,0.4-1,1-1c0.6,0,1,0.4,1,1v3.1C36.8,9.9,36.4,10.3,35.8,10.3z"/>
	</g>
	<g>
		<path d="M47.2,28.7c-0.4,0-0.9-0.1-1.2-0.4c-0.7-0.5-1.1-1.6-1.5-2.6c-0.1,0.1-0.2,0.1-0.3,0.1c-1.5,0.5-3.2-0.6-4.5-1.7
			c-0.1,0.1-0.1,0.1-0.2,0.1c-1,0.7-2.9,0.1-4.7-0.9c0,0-0.1,0.1-0.1,0.1c-0.4,0.3-1.2,1-4.9-1.3c-1,2.1-3,5.8-4.8,6.5
			c-0.4,0.1-0.7,0.1-1-0.2c-3.9-3.5-0.4-10-0.2-10.3c0.2-0.3,0.5-0.5,0.9-0.5h23.1c0.3,0,0.5,0.1,0.7,0.3c2.4,2.5,1.8,6.7,0.8,8.9
			c-0.5,1.2-1.1,1.8-1.9,1.8C47.3,28.7,47.2,28.7,47.2,28.7z M47.2,26.7C47.2,26.7,47.2,26.7,47.2,26.7c0.1,0,0.1,0,0.1,0
			C47.3,26.7,47.2,26.7,47.2,26.7z M44.9,21.7c0.5,0,0.9,0.4,1,0.9c0.2,1.7,0.8,3.6,1.2,4.1c0.3-0.4,0.8-1.7,1-3.3
			c0.1-0.9,0-2.5-0.8-3.7h-22c-0.6,1.3-1.9,4.7-0.4,6.8c1-1,2.6-3.7,3.6-6.1c0.1-0.3,0.4-0.5,0.6-0.6c0.3-0.1,0.6,0,0.8,0.1
			c1.1,0.7,2.3,1.4,3.1,1.7c0-0.3,0.1-0.5,0.3-0.7c0.3-0.3,0.8-0.3,1.2-0.1c1.3,0.9,2.9,1.6,3.6,1.8c0,0,0-0.1,0-0.1
			c-0.1-0.4,0.1-0.9,0.5-1.1c0.4-0.2,0.9-0.1,1.2,0.2c1.3,1.4,3.1,2.6,3.7,2.4c0.1,0,0.3-0.4,0.4-1.3C43.9,22.1,44.4,21.7,44.9,21.7
			C44.9,21.7,44.9,21.7,44.9,21.7z M33.2,22.4L33.2,22.4L33.2,22.4z"/>
	</g>
	<g>
		<path fill="none" stroke="#010101" stroke-width="2" stroke-linecap="round" stroke-linejoin="round" stroke-miterlimit="10" d="
			M51.5,46.2"/>
	</g>
	<g id="XMLID_2_">
		<g>
			<path fill="none" stroke="#000000" stroke-width="2" stroke-linecap="round" stroke-linejoin="round" stroke-miterlimit="10" d="
				M42.2,50.8c0.1-0.1,0.2-0.1,0.3-0.2c0.4-0.3,0.7-0.6,0.9-1c0.2-0.4,0.3-0.8,0.4-1.2c0.1-0.5,0-1.1-0.3-1.6L43.3,46"/>
			<path fill="none" stroke="#000000" stroke-width="2" stroke-linecap="round" stroke-linejoin="round" stroke-miterlimit="10" d="
				M42.2,50.8c-0.3,0.1-0.6,0.2-0.9,0.3c-1.3,0.2-2.6-0.4-3.2-1.6l-0.5-1.1"/>
			<path fill="none" stroke="#000000" stroke-width="2" stroke-linecap="round" stroke-linejoin="round" stroke-miterlimit="10" d="
				M50.9,46.5c-1.5-1-3.4-1.6-6-1.6c-0.6,0.4-1.1,0.7-1.6,1c-1.9,1.2-3.7,2-5.5,2.4c-0.6,0.1-1.1,0.2-1.7,0.2h-0.1
				c-3,0-5.6-1.4-8.7-3.5"/>
			<path fill="none" stroke="#000000" stroke-width="2" stroke-linecap="round" stroke-linejoin="round" stroke-miterlimit="10" d="
				M42.7,50.8l0.6,0.4c2.9,3.1,0.4,6.4,0.4,6.4s-3.6-1.9-2.5-5.9l0.2-0.6"/>
			<path fill="none" stroke="#000000" stroke-width="2" stroke-linecap="round" stroke-linejoin="round" stroke-miterlimit="10" d="
				M29.5,50.2c1.9,1.7,5.3,2.8,11.2,1.3"/>
			<path fill="none" stroke="#000000" stroke-width="2" stroke-linecap="round" stroke-linejoin="round" stroke-miterlimit="10" d="
				M43.5,49.6L43.5,49.6l0.4,0.6c2.3,3.9,6.2,3.1,6.2,3.1s-0.6-4-5.1-4.7l-1-0.1"/>
		</g>
	</g>
	<g>
		<g>
			<path d="M25.7,63.7c-3.5,0-7.2-1.1-10-3.3c-0.5-0.4-0.9-0.7-1.4-1.1c-0.3-0.3-0.6-0.5-0.8-0.8C10.2,55,9,50.3,10.2,46
				c0.6-2.2,2.1-4.1,4.1-5.2c2-1.2,4.4-1.4,6.7-0.8l0.3,0.1c2.2,0.6,7.9,2.1,9.2,11.2c2.1-0.3,4.1,0.5,5.3,2
				c1.2,1.6,1.1,3.7-0.3,5.7c-0.5,0.7-1.1,1.4-1.9,2.1C31.6,62.9,28.7,63.7,25.7,63.7z M18.6,41.7c-1.2,0-2.3,0.3-3.3,0.9
				c-1.5,0.9-2.7,2.3-3.1,4c-1,3.6,0.1,7.6,2.8,10.6c0.2,0.2,0.5,0.5,0.7,0.7c0.4,0.4,0.8,0.7,1.2,1h0c4.6,3.5,11.9,3.8,15.5,0.7
				c0.6-0.6,1.2-1.1,1.5-1.7c0.9-1.3,1-2.5,0.3-3.4c-0.8-1.1-2.6-1.5-4.2-1c-0.3,0.1-0.6,0-0.8-0.1c-0.2-0.2-0.4-0.4-0.4-0.7
				c-0.9-8.8-5.8-10.1-7.9-10.6l-0.3-0.1C19.8,41.7,19.2,41.7,18.6,41.7z"/>
		</g>
		<g>
			<path d="M17.9,46.3c-0.3,1.1-1.4,1.7-2.5,1.4c-1.1-0.3-1.7-1.4-1.4-2.5c0.3-1.1,1.4-1.7,2.5-1.4C17.5,44.2,18.1,45.3,17.9,46.3"
				/>
		</g>
		<g>
			<path d="M18.3,53.2c-0.3,1.1-1.4,1.7-2.5,1.4c-1.1-0.3-1.7-1.4-1.4-2.5c0.3-1.1,1.4-1.7,2.5-1.4C18,51,18.6,52.1,18.3,53.2"/>
		</g>
		<g>
			<path d="M23.6,57.9c-0.3,1.1-1.4,1.7-2.5,1.4c-1.1-0.3-1.7-1.4-1.4-2.5c0.3-1.1,1.4-1.7,2.5-1.4C23.3,55.8,23.9,56.9,23.6,57.9"
				/>
		</g>
	</g>
	<g id="XMLID_1_">
		<g>
			<path fill="none" stroke="#000000" stroke-width="2" stroke-linecap="round" stroke-linejoin="round" stroke-miterlimit="10" d="
				M58.1,40l-0.5-0.9c-2-5.5,3.7-7.2,3.7-7.2s4,4.4-0.4,8.1l-0.7,0.6"/>
			<path fill="none" stroke="#000000" stroke-width="2" stroke-linecap="round" stroke-linejoin="round" stroke-miterlimit="10" d="
				M60.3,44.2l-3.9,15c-0.3,1.1-1.5,1.8-2.6,1.5c-0.6-0.1-1-0.5-1.3-1c-0.3-0.5-0.4-1-0.2-1.6l3.9-15"/>
			
				<polygon fill="none" stroke="#000000" stroke-width="2" stroke-linecap="round" stroke-linejoin="round" stroke-miterlimit="10" points="
				60.3,44.2 61.2,40.8 60.1,40.5 58.1,40 57,39.7 56.2,43.1 			"/>
		</g>
	</g>
</g>
</svg>
