<?xml version="1.0" encoding="utf-8"?>
<!-- Generator: Adobe Illustrator 21.1.0, SVG Export Plug-In . SVG Version: 6.00 Build 0)  -->
<svg version="1.1" id="emoji" xmlns="http://www.w3.org/2000/svg" xmlns:xlink="http://www.w3.org/1999/xlink" x="0px" y="0px"
	 viewBox="0 0 72 72" enable-background="new 0 0 72 72" xml:space="preserve">
<g id="_xD83D__xDC68__x200D__xD83D__xDD27_">
	<path fill="#000100" d="M42,27c0,1.1-0.9,2-2,2s-2-0.9-2-2c0-1.1,0.9-2,2-2S42,25.9,42,27"/>
	<path fill="#000100" d="M34,27c0,1.1-0.9,2-2,2s-2-0.9-2-2c0-1.1,0.9-2,2-2S34,25.9,34,27"/>
	<path fill="#000100" d="M36,37c-1.2,0-2.3-0.3-3.4-0.9c-0.5-0.2-0.7-0.8-0.4-1.3c0.2-0.5,0.8-0.7,1.3-0.4c1.7,0.9,3.4,0.9,5.1,0
		c0.5-0.2,1.1,0,1.3,0.4c0.2,0.5,0,1.1-0.4,1.3C38.3,36.8,37.1,37,36,37z"/>
	<path fill="none" stroke="#000000" stroke-width="2" stroke-linecap="round" stroke-miterlimit="10" d="M24.8,26.3
		c-0.1,0.7-0.1,1.4-0.1,2.1c0,7.8,5.1,14.2,11.3,14.2c6.3,0,11.3-6.3,11.3-14.2c0-0.4,0-0.8,0-1.2"/>
	<path fill="none" stroke="#000000" stroke-width="2" stroke-linecap="round" stroke-linejoin="round" stroke-miterlimit="10" d="
		M51.7,47.2c-1.5-1.4-3.7-2.3-6.9-2.3c-3.2,2.1-5.9,3.6-9,3.6h0.1c-3.1,0-5.8-1.5-9-3.6c-12,0-10,13-10,13"/>
	<path fill="none" stroke="#000000" stroke-width="2" stroke-linecap="round" stroke-linejoin="round" stroke-miterlimit="10" d="
		M54.7,38.2c0.5-2.2,2.4-3.6,4.4-3.8L58,39c0.1,0,2.7,0.6,2.8,0.7L62,35c1.9,1.1,3,3.3,2.5,5.6c-0.5,2-2.1,3.4-4,3.7l-3.4,14.2
		c-0.3,1.1-1.4,1.8-2.4,1.5c-1.1-0.3-1.8-1.4-1.5-2.4l3.4-14.2C55,42.1,54.2,40.2,54.7,38.2z"/>
	<path fill="none" stroke="#000000" stroke-width="2" stroke-linecap="round" stroke-miterlimit="10" d="M33.1,18.3v-2.3
		c0-1.7,1.3-3,3-3c1.7,0,3,1.3,3,3v2.3"/>
	
		<polyline fill="none" stroke="#000000" stroke-width="2" stroke-linecap="round" stroke-linejoin="round" stroke-miterlimit="10" points="
		44.8,44.9 44.8,52.1 26.9,52.1 26.9,44.9 	"/>
	
		<line fill="none" stroke="#000000" stroke-width="2" stroke-linecap="round" stroke-linejoin="round" stroke-miterlimit="10" x1="49.3" y1="45.7" x2="49.3" y2="57.9"/>
	
		<line fill="none" stroke="#000000" stroke-width="2" stroke-linecap="round" stroke-linejoin="round" stroke-miterlimit="10" x1="22.3" y1="45.8" x2="22.3" y2="57.9"/>
	
		<line fill="none" stroke="#000000" stroke-width="2" stroke-linecap="round" stroke-linejoin="round" stroke-miterlimit="10" x1="32.6" y1="56.8" x2="26.9" y2="56.8"/>
	<path fill="none" stroke="#000000" stroke-width="2" stroke-linecap="round" stroke-linejoin="round" stroke-miterlimit="10" d="
		M47,20.5c0,0,1.3-11.3-10-11.3h-1.8c-11.3,0-10,11.3-10,11.3"/>
	<path fill="none" stroke="#000000" stroke-width="2" stroke-linecap="round" stroke-linejoin="round" stroke-miterlimit="10" d="
		M49.8,22.4c-6.2-5-17-5.5-24-2.1c-1.3,0.6-2.4,1.3-3.4,2.1"/>
	<path fill="none" stroke="#000000" stroke-width="2" stroke-linecap="round" stroke-linejoin="round" stroke-miterlimit="10" d="
		M25.5,20.5c0.5-0.1,10.6-5.4,21.6,0.3l0,0.1c1.5,5.5,0.2,6.3,0.2,6.3l-5.3-6.3c0,0-1.5,2.8-5.7,2.5c0,0,0.6-2.3,0.3-3.6
		c0,0-6.8,4.5-11.6,6.5l0,0l-0.1,0c-0.5,0.1-0.7-4.2,0.9-5.8"/>
</g>
</svg>
