<?xml version="1.0" encoding="utf-8"?>
<!-- Generator: Adobe Illustrator 21.1.0, SVG Export Plug-In . SVG Version: 6.00 Build 0)  -->
<svg version="1.1" id="emoji" xmlns="http://www.w3.org/2000/svg" xmlns:xlink="http://www.w3.org/1999/xlink" x="0px" y="0px"
	 viewBox="0 0 72 72" enable-background="new 0 0 72 72" xml:space="preserve">
<g id="_xD83D__xDC69__x200D__xD83C__xDF73_">
	<path fill="none" stroke="#000000" stroke-width="2" stroke-linecap="round" stroke-linejoin="round" stroke-miterlimit="10" d="
		M47.8,38.6c4.4-1.5,6.8-6.3-2-17.7"/>
	<path fill="none" stroke="#000000" stroke-width="2" stroke-linecap="round" stroke-linejoin="round" stroke-miterlimit="10" d="
		M23.7,38.5c-4.2-1.7-6.3-6.5,2.3-17.6"/>
	<path fill="none" stroke="#000000" stroke-width="2" stroke-linecap="round" stroke-linejoin="round" stroke-miterlimit="10" d="
		M24.7,26.4c-0.1,0.6-0.1,1.2-0.1,1.8c0,7.8,5.1,14.2,11.3,14.2S47.3,36,47.3,28.2c0-2.7-0.6-5.2-1.6-7.3"/>
	<path d="M54.9,57.8c-0.6,0-1-0.4-1-1v-3c0-4.5-4.5-7.8-8.7-8c-6.2,5-12.5,5-18.7,0c-4.2,0.2-8.7,3.5-8.7,8v3c0,0.6-0.4,1-1,1
		s-1-0.4-1-1v-3c0-5.3,5.1-10,11-10h0c0.2,0,0.5,0.1,0.6,0.2c5.6,4.7,11.1,4.7,16.7,0c0.2-0.1,0.4-0.2,0.6-0.2h0c5.9,0,11,4.7,11,10
		v3C55.9,57.4,55.5,57.8,54.9,57.8z"/>
	<path d="M41.9,26.8c0,1.1-0.9,2-2,2s-2-0.9-2-2c0-1.1,0.9-2,2-2S41.9,25.7,41.9,26.8"/>
	<path d="M33.9,26.8c0,1.1-0.9,2-2,2c-1.1,0-2-0.9-2-2c0-1.1,0.9-2,2-2C33,24.8,33.9,25.7,33.9,26.8"/>
	<path d="M35.9,36.9c-1.2,0-2.3-0.3-3.4-0.9c-0.5-0.2-0.7-0.8-0.4-1.3c0.2-0.5,0.8-0.7,1.3-0.4c1.7,0.9,3.4,0.9,5.1,0
		c0.5-0.2,1.1,0,1.3,0.4c0.2,0.5,0,1.1-0.4,1.3C38.2,36.6,37.1,36.9,35.9,36.9z"/>
	<path fill="none" stroke="#000100" stroke-width="2" stroke-linecap="round" stroke-linejoin="round" stroke-miterlimit="10" d="
		M31.7,6.9"/>
	<path fill="none" stroke="#000000" stroke-width="2" stroke-linecap="round" stroke-linejoin="round" stroke-miterlimit="10" d="
		M26.6,45.9c0,0,3.7,10.9,20.2,5.1v5.9"/>
	<circle cx="28.4" cy="55.8" r="1.5"/>
	<circle cx="43.4" cy="55.8" r="1.5"/>
	<path fill="none" stroke="#000000" stroke-width="2" stroke-linecap="round" stroke-linejoin="round" stroke-miterlimit="10" d="
		M26,20.9c-0.7,1.4-3.7,4.7-4.1,6.4c0,0,0.6-0.5,1.4-0.9c0.4-0.2,0.9-0.3,1.4-0.5c2.7-1,7.1-2.7,12.3-4.7"/>
	<path fill="none" stroke="#000000" stroke-width="2" stroke-linecap="round" stroke-linejoin="round" stroke-miterlimit="10" d="
		M26.3,14.9c-2.2,0-4-1.8-4-4c0-2.2,1.8-4,4-4c0.9,0,1.7,0.3,2.3,0.8c-0.3-0.6-0.5-1.2-0.5-1.9c0-2.2,1.8-4,4-4c-2.2,0-4,1.8-4,4
		c0,0.7,0.2,1.4,0.5,1.9c-0.7-0.5-1.5-0.8-2.3-0.8c-2.2,0-4,1.8-4,4C22.3,13.1,24.1,14.9,26.3,14.9v6.1"/>
	<path fill="none" stroke="#000000" stroke-width="2" stroke-linecap="round" stroke-linejoin="round" stroke-miterlimit="10" d="
		M39.7,1.7c-1.8,0-3.3,1.2-3.8,2.9c-0.5-1.7-2-2.9-3.8-2.9"/>
	<path fill="none" stroke="#000000" stroke-width="2" stroke-linecap="round" stroke-linejoin="round" stroke-miterlimit="10" d="
		M26.3,20.9h19.3v-0.6v-5.5c2.2,0,4-1.8,4-4c0-2.2-1.8-4-4-4c-0.9,0-1.7,0.3-2.3,0.8c0.3-0.6,0.5-1.2,0.5-1.9c0-2.2-1.8-4-4-4"/>
</g>
</svg>
