<svg id="emoji" xmlns="http://www.w3.org/2000/svg" viewBox="0 0 72 72">
  <g id="line">
    <path d="M36.9726,33.4553c.3841-1.1127.9384-2.1911,1.3733-3.3084,1.021-2.6227-.13-4.0284.8061-7.5146.9236-3.4344,4.5441-5.5988,8.5606-5.5988a6.7615,6.7615,0,0,1,4.9955,1.8733,5.078,5.078,0,0,1,4.624,5.0187c.2417,4.4835.6394,4.466,2.1412,8.0066a7.2442,7.2442,0,0,1-.6429,6.9214" fill="none" stroke="#000" stroke-linecap="round" stroke-linejoin="round" stroke-width="2"/>
    <path d="M41.4682,29.5224c0,4.9955,3.1222,8.7423,6.8689,8.7423s6.8689-3.7467,6.8689-8.7423c0-3.1222-1.2489-4.9955-3.7466-7.4933-2.4978,2.4977-9.9911,5.62-9.9911,6.8689v.6244Z" fill="none" stroke="#000" stroke-miterlimit="10" stroke-width="1.6"/>
    <path d="M51.77,29.4088a1.1577,1.1577,0,1,1-1.1577-1.1576A1.1577,1.1577,0,0,1,51.77,29.4088"/>
    <path d="M47.14,29.4088a1.1576,1.1576,0,1,1-1.1576-1.1576A1.1577,1.1577,0,0,1,47.14,29.4088"/>
    <path d="M46.561,34.184a3.69,3.69,0,0,0,3.4729,0" fill="none" stroke="#000" stroke-linecap="round" stroke-linejoin="round" stroke-width="1.6"/>
    <g>
      <path d="M14.72,29.53c0,4.9239,2.8684,9.0737,6.525,10.1093q.2152.0611.4341.1074" fill="none" stroke="#000" stroke-miterlimit="10" stroke-width="2"/>
      <path d="M31.089,29.5727a11.7531,11.7531,0,0,1-2.6144,7.6008,13.5248,13.5248,0,0,1-1.7235,1.5149c-.5021.2738-.6019.3464-.6019.3464" fill="none" stroke="#000" stroke-miterlimit="10" stroke-width="2"/>
      <path d="M12.8407,24.7588c.5981-7.9646,6.7385-8.05,9.826-7.5647a8.2942,8.2942,0,0,0,1.4037,0c5.6148-.6877,8.4223,5.5015,8.4223,8.2524,0,.973,0,3.4384-1.4037,4.8138,0,0-3.2145-3.8124-3.3619-6.0324,0,0-10.6752,3.9692-11.3771.5308,0,0-2.4,1.7757-1.43,6.52A14.0688,14.0688,0,0,1,12.8407,24.7588Z" fill="none" stroke="#000" stroke-linecap="round" stroke-linejoin="round" stroke-width="2"/>
      <path d="M26.5767,30.1726a1.3014,1.3014,0,1,1-1.3011-1.2749,1.2882,1.2882,0,0,1,1.3011,1.2749"/>
      <path d="M21.7666,30.2226a1.3014,1.3014,0,1,1-1.3011-1.2748,1.2882,1.2882,0,0,1,1.3011,1.2748"/>
      <path d="M21.116,35.4815a4.2233,4.2233,0,0,0,3.9035,0" fill="none" stroke="#000" stroke-linecap="round" stroke-linejoin="round" stroke-width="1.6"/>
    </g>
    <path d="M11.9371,60.0031V48.08a5.8056,5.8056,0,0,1,5.8518-5.64l1.2316.2418" fill="none" stroke="#000" stroke-linecap="round" stroke-linejoin="round" stroke-width="2"/>
    <path d="M60.2475,59.9719V48.0484c0-3.13-2.4992-6.0455-5.6288-6.0455l-2.049.6753" fill="none" stroke="#000" stroke-linecap="round" stroke-linejoin="round" stroke-width="2"/>
    <g>
      <path d="M20.5557,51.9256l-2.6791.0795-.3913.0079S19.7988,52.6334,20.5557,51.9256Z" fill="#fff"/>
      <path d="M20.7,55.3059a7.8081,7.8081,0,0,1-2.8237,1.2964,3.7392,3.7392,0,0,1-.3913.0716Z" fill="#fff"/>
      <path d="M17.4853,58.44l.3913-.1272" fill="none"/>
      <path d="M20.7781,50.3055a9.6664,9.6664,0,0,0,2.05,3.15,5.853,5.853,0,0,0,2.1688,1.1692l.2551.0715a5.9443,5.9443,0,0,0,1.31.1512,5.5847,5.5847,0,0,0,.9015-.0716c.1361-.0239.2637-.0478.3912-.08a5.8136,5.8136,0,0,0,2.6792-1.4475,9.5259,9.5259,0,0,0,1.7591-2.7806" fill="none" stroke="#000" stroke-miterlimit="10" stroke-width="1.6"/>
      <path d="M23.78,47.6a.8928.8928,0,1,0,.8908-.833.8633.8633,0,0,0-.8908.833Z"/>
      <path d="M27.3434,47.6a.8928.8928,0,1,0,.8908-.833.8633.8633,0,0,0-.8908.833Z"/>
      <path d="M27.7887,50.8432a2.093,2.093,0,0,1-2.6722,0" fill="none" stroke="#000" stroke-linecap="round" stroke-linejoin="round" stroke-width="1.6"/>
      <path d="M17.1487,60.32v-.9067c0-2.02,2.1518-3.6747,4.44-3.8655a4.4158,4.4158,0,0,1,.4593-.0239,2.2481,2.2481,0,0,0,.2467.167,7.7,7.7,0,0,0,2.8662,1.3124.0124.0124,0,0,0,.017,0,5.7544,5.7544,0,0,0,2.2114.0636,3.7327,3.7327,0,0,0,.3912-.0716,7.8085,7.8085,0,0,0,2.8238-1.2964c.085-.0557.17-.1114.2551-.175a4.4158,4.4158,0,0,1,.4593.0239c2.2879.1908,4.44,1.8452,4.44,3.8655V60.32" fill="none" stroke="#000" stroke-linecap="round" stroke-linejoin="round" stroke-width="1.6"/>
      <path d="M35.7765,50.3622a7.9655,7.9655,0,0,1-1.6566-2.726,18.0244,18.0244,0,0,0-.0186-2.2611c-.2884-3.9267-1.9819-5.5365-3.7034-6.1506" fill="none" stroke="#000" stroke-linecap="round" stroke-linejoin="round" stroke-width="1.6"/>
      <path d="M30.3979,39.2245a6.306,6.306,0,0,0-2.0285-.3257,7.2094,7.2094,0,0,0-1.9168.2513,7.7511,7.7511,0,0,0-3.1079-.0187c-1.7865.3629-3.7871,1.5633-4.3175,4.9689a14.0981,14.0981,0,0,0-.0558,3.5359,7.1971,7.1971,0,0,1-2.1495,3.1358,4.662,4.662,0,0,0,1.647,1.219,3.5094,3.5094,0,0,0,.884.27h.0186a3.5926,3.5926,0,0,0,1.2562-.0279,6.0793,6.0793,0,0,1,.2233-1.9819c.093-.4653.2419-1.0329.4466-1.7122a11.0146,11.0146,0,0,1,1.2376-2.7077,8.3079,8.3079,0,0,1,4.0105-3.2289,8.4356,8.4356,0,0,1,4.3175,3.8151,10.7857,10.7857,0,0,1,.9305,2.1215,9.6058,9.6058,0,0,1,.67,3.6941,3.9359,3.9359,0,0,0,3.341-.9957" fill="none" stroke="#000" stroke-linecap="round" stroke-linejoin="round" stroke-width="1.6"/>
    </g>
    <g>
      <path d="M51.2577,51.9492l2.6792.08.3912.008S52.0147,52.657,51.2577,51.9492Z" fill="#fff"/>
      <path d="M51.1131,55.33a7.8071,7.8071,0,0,0,2.8238,1.2965,3.7364,3.7364,0,0,0,.3912.0715Z" fill="#fff"/>
      <path d="M54.3281,58.4633l-.3912-.1273" fill="none"/>
      <path d="M51.0353,50.3291a9.664,9.664,0,0,1-2.05,3.15,5.8538,5.8538,0,0,1-2.1688,1.1692l-.2552.0716a5.9494,5.9494,0,0,1-1.31.1511A5.585,5.585,0,0,1,44.35,54.8c-.136-.0239-.2636-.0477-.3912-.0795A5.8144,5.8144,0,0,1,41.28,53.2727a9.5225,9.5225,0,0,1-1.7591-2.7806" fill="none" stroke="#000" stroke-miterlimit="10" stroke-width="1.6"/>
      <path d="M48.0331,47.6241a.8928.8928,0,1,1-.8907-.833.8633.8633,0,0,1,.8907.833Z"/>
      <path d="M44.47,47.6241a.8928.8928,0,1,1-.8907-.833.8633.8633,0,0,1,.8907.833Z"/>
      <path d="M44.0247,50.8669a2.0934,2.0934,0,0,0,2.6723,0" fill="none" stroke="#000" stroke-linecap="round" stroke-linejoin="round" stroke-width="1.6"/>
      <path d="M54.6647,60.3436v-.9067c0-2.02-2.1518-3.6746-4.44-3.8655a4.4435,4.4435,0,0,0-.4593-.0239,2.2484,2.2484,0,0,1-.2466.1671,7.6994,7.6994,0,0,1-2.8663,1.3123.0123.0123,0,0,1-.017,0,5.7524,5.7524,0,0,1-2.2114.0636,3.7411,3.7411,0,0,1-.3912-.0715A7.806,7.806,0,0,1,41.21,55.7225c-.0851-.0557-.17-.1113-.2552-.175a4.4435,4.4435,0,0,0-.4593.0239c-2.2879.1909-4.44,1.8452-4.44,3.8655v.9067" fill="none" stroke="#000" stroke-linecap="round" stroke-linejoin="round" stroke-width="1.6"/>
      <path d="M36.0856,51.3259a3.9031,3.9031,0,0,0,3.2642.9307,9.605,9.605,0,0,1,.67-3.6941,10.7778,10.7778,0,0,1,.9305-2.1216,8.4346,8.4346,0,0,1,4.3175-3.815,8.3087,8.3087,0,0,1,4.0105,3.2288,11.0091,11.0091,0,0,1,1.2375,2.7078c.2047.6792.3536,1.2468.4467,1.7121a6.0838,6.0838,0,0,1,.2233,1.982,3.5974,3.5974,0,0,0,1.2562.0279h.0186a3.5148,3.5148,0,0,0,.884-.27,4.6627,4.6627,0,0,0,1.6469-1.2189A7.1981,7.1981,0,0,1,52.8421,47.66a14.1026,14.1026,0,0,0-.0558-3.5359c-.53-3.4057-2.531-4.606-4.3176-4.9689a7.75,7.75,0,0,0-3.1079.0186,7.212,7.212,0,0,0-1.9168-.2512,6.3065,6.3065,0,0,0-2.0285.3256" fill="none" stroke="#000" stroke-linecap="round" stroke-linejoin="round" stroke-width="1.6"/>
      <path d="M41.4155,39.2481c-1.7214.6142-3.4149,2.2239-3.7034,6.1507a18.0621,18.0621,0,0,0-.0186,2.2611,8.4244,8.4244,0,0,1-1.3215,2.3625" fill="none" stroke="#000" stroke-linecap="round" stroke-linejoin="round" stroke-width="1.6"/>
    </g>
  </g>
</svg>
