<svg id="emoji" viewBox="0 0 72 72" version="1.1" xmlns="http://www.w3.org/2000/svg">
  <g id="line">
    <path fill="none" stroke="#000000" stroke-linecap="round" stroke-linejoin="round" stroke-width="2" d="M56.9,24.6"/>
    <path fill="none" stroke="#000000" stroke-miterlimit="10" stroke-width="2" d="M60.6,35.6c0,0.4,0,0.8,0,1.2 c0,6.2-3.9,11.3-8.7,11.3s-8.7-5.1-8.7-11.3c0-0.2,0-0.5,0-0.7"/>
    <path fill="none" stroke="#000000" stroke-linejoin="round" stroke-miterlimit="10" stroke-width="2" d="M43.2,25.2 c0,0.3,13.2-6.8,15.7,1.4c0,0,3.5,1.7,2.8,7.5c-0.1,1-0.1,3.3-1.1,4.3l-2.8-7.1c0,0-7.4,2.8-12.4-0.6l-2.3,7.5c0,0-0.9-1.3-1-3 c0,0-0.4-4,0.4-5.4C42.7,29.8,44.2,27.2,43.2,25.2z"/>
    <path fill="none" stroke="#000000" stroke-linecap="round" stroke-linejoin="round" stroke-width="2" d="M36,11.7 c1.1-2.4,4-3.4,6.3-2.2s3.3,4,2.2,6.4c-0.1,0.3-0.3,0.5-0.4,0.7L36,27l-8.1-10.4c-0.2-0.2-0.3-0.5-0.4-0.7 c-1.1-2.4-0.1-5.2,2.2-6.4S34.9,9.3,36,11.7L36,11.7z"/>
    <path fill="none" stroke="#000000" stroke-miterlimit="10" stroke-width="2" d="M28.6,36.1c0,0.2,0,0.4,0,0.7 c0,6.2-3.9,11.3-8.7,11.3s-8.7-5.1-8.7-11.3c0-0.2,0-0.4,0-0.7"/>
    <path fill="none" stroke="#000000" stroke-linecap="round" stroke-linejoin="round" stroke-width="2" d="M9.1,31.4 c0.6-8.7,7.2-8.8,10.5-8.3c0.3,0.1,1.2,0,1.5,0c6-0.8,9,6,9,9c0,1.1,0,3.8-1.5,5.3c0,0-3.4-4.2-3.6-6.6c0,0-11.4,4.3-12.2,0.6 c0,0-0.8,3-1.5,3.8c0,0,0,2.3,0,3C11.3,38.2,8.8,35.2,9.1,31.4z"/>
    <path fill="none" stroke="#000000" stroke-linecap="round" stroke-linejoin="round" stroke-width="2" d="M6,60v-2.3 C6,54,9.7,51,13.4,51c4.4,3.7,8.8,3.7,13.3,0c3.7,0,7.4,3,7.4,6.7V60"/>
    <path d="M24.2,37.4c0,0.8-0.6,1.4-1.4,1.4s-1.4-0.6-1.4-1.4c0-0.8,0.6-1.4,1.4-1.4S24.2,36.7,24.2,37.4"/>
    <path d="M18.6,37.4c0,0.8-0.6,1.4-1.4,1.4s-1.4-0.6-1.4-1.4c0-0.8,0.6-1.4,1.4-1.4S18.6,36.7,18.6,37.4"/>
    <path fill="none" stroke="#000000" stroke-linecap="round" stroke-linejoin="round" stroke-width="2" d="M17.9,43.2 c1.3,0.7,2.9,0.7,4.2,0"/>
    <path d="M56.2,37.7c0,0.8-0.6,1.4-1.4,1.4c-0.8,0-1.4-0.6-1.4-1.4c0-0.8,0.6-1.4,1.4-1.4C55.6,36.3,56.2,36.9,56.2,37.7"/>
    <path d="M50.6,37.7c0,0.8-0.6,1.4-1.4,1.4s-1.4-0.6-1.4-1.4c0-0.8,0.6-1.4,1.4-1.4S50.6,36.9,50.6,37.7"/>
    <path fill="none" stroke="#000000" stroke-linecap="round" stroke-linejoin="round" stroke-width="2" d="M49.9,43.4 c1.3,0.7,2.9,0.7,4.2,0"/>
    <path fill="none" stroke="#000000" stroke-linecap="round" stroke-linejoin="round" stroke-width="2" d="M38,60v-2.3 c0-3.7,3.7-6.7,7.4-6.7c4.4,3.7,8.8,3.7,13.3,0c3.7,0,7.4,3,7.4,6.7V60"/>
  </g>
</svg>
