<?xml version="1.0" encoding="utf-8"?>
<!-- Generator: Adobe Illustrator 21.1.0, SVG Export Plug-In . SVG Version: 6.00 Build 0)  -->
<svg version="1.1" id="emoji" xmlns="http://www.w3.org/2000/svg" xmlns:xlink="http://www.w3.org/1999/xlink" x="0px" y="0px"
	 viewBox="0 0 72 72" enable-background="new 0 0 72 72" xml:space="preserve">
<g id="_xD83D__xDC68__x200D__xD83D__xDE80_">
	<path fill="none" stroke="#1D1D1B" stroke-width="2" stroke-linecap="round" stroke-linejoin="round" stroke-miterlimit="10" d="
		M35.7,11.7"/>
	<path d="M34.8,58.7c0-0.2,0.1-0.3,0.1-0.5c0-1.1-0.9-2-2-2h0c-1.1,0-2,0.9-2,2c0,0.2,0,0.3,0.1,0.5"/>
	<path d="M41.5,58.7c0-0.2,0.1-0.3,0.1-0.5c0-1.1-0.9-2-2-2h0c-1.1,0-2,0.9-2,2c0,0.2,0,0.3,0.1,0.5"/>
	<path fill="none" stroke="#000000" stroke-width="2" stroke-linecap="round" stroke-linejoin="round" stroke-miterlimit="10" d="
		M16.9,57.8c0,0-2-13,10-13c3.2,2.1,5.9,3.6,9,3.6h-0.1c3.1,0,5.8-1.5,9-3.6c12,0,10,13,10,13"/>
	<path fill="none" stroke="#000000" stroke-width="2" stroke-linecap="round" stroke-linejoin="round" stroke-miterlimit="10" d="
		M47.8,28.1c-0.2-0.4-0.4-0.8-0.7-1.1c-1.2-1.6-2.9-2.9-5-3.5c-2.1-0.6-4.1-0.9-6.2-0.8c-2.1-0.1-4.1,0.2-6.2,0.8
		c-2.5,0.7-4.5,2.4-5.7,4.6"/>
	
		<line fill="none" stroke="#000000" stroke-width="2" stroke-linecap="round" stroke-linejoin="round" stroke-miterlimit="10" x1="53.9" y1="25.5" x2="53.9" y2="30.2"/>
	
		<line fill="none" stroke="#000000" stroke-width="2" stroke-linecap="round" stroke-linejoin="round" stroke-miterlimit="10" x1="17.8" y1="25.5" x2="17.8" y2="30.2"/>
	
		<polyline fill="none" stroke="#000000" stroke-width="2" stroke-linecap="round" stroke-linejoin="round" stroke-miterlimit="10" points="
		43.8,57.8 43.8,53 28.6,53 28.6,57.8 	"/>
	<path d="M41.9,27c0,1.1-0.9,2-2,2s-2-0.9-2-2c0-1.1,0.9-2,2-2S41.9,25.9,41.9,27"/>
	<path d="M33.9,27c0,1.1-0.9,2-2,2c-1.1,0-2-0.9-2-2c0-1.1,0.9-2,2-2C33,25,33.9,25.9,33.9,27"/>
	<path d="M35.9,37c-1.2,0-2.3-0.3-3.4-0.9c-0.5-0.2-0.7-0.8-0.4-1.3c0.2-0.5,0.8-0.7,1.3-0.4c1.7,0.9,3.4,0.9,5.1,0
		c0.5-0.2,1.1,0,1.3,0.4c0.2,0.5,0,1.1-0.4,1.3C38.2,36.7,37.1,37,35.9,37z"/>
	<path fill="none" stroke="#000000" stroke-width="2" stroke-miterlimit="10" d="M46.2,34.2c0.7-1.8,1-3.8,1-5.9c0-0.4,0-0.8,0-1.2"
		/>
	<path fill="none" stroke="#000000" stroke-width="2" stroke-miterlimit="10" d="M24.6,27.1c0,0.4,0,0.8,0,1.2
		c0,7.8,5.1,14.2,11.3,14.2"/>
	<path fill="none" stroke="#000000" stroke-width="2" stroke-linecap="round" stroke-miterlimit="10" d="M36.6,39.3c0,0,7,0,9.6-5.1
		"/>
	<path fill="none" stroke="#000000" stroke-width="2" stroke-linecap="round" stroke-linejoin="round" stroke-miterlimit="10" d="
		M50.9,27.5c0,1.2-0.1,2.4-0.4,3.6c-1.6,6.6-7.5,11.4-14.6,11.4c-7.1,0-13-4.9-14.6-11.4c-0.3-1.1-0.4-2.3-0.4-3.6
		c0-8.3,6.7-15,15-15S50.9,19.2,50.9,27.5z"/>
</g>
</svg>
