<?xml version="1.0" encoding="utf-8"?>
<!-- Generator: Adobe Illustrator 21.1.0, SVG Export Plug-In . SVG Version: 6.00 Build 0)  -->
<svg version="1.1" id="emoji" xmlns="http://www.w3.org/2000/svg" xmlns:xlink="http://www.w3.org/1999/xlink" x="0px" y="0px"
	 viewBox="0 0 72 72" enable-background="new 0 0 72 72" xml:space="preserve">
<g id="_xD83D__xDC66_">
	<path fill="none" stroke="#040404" stroke-width="2" stroke-linecap="round" stroke-linejoin="round" d="M24,36c-2,0-3-12,0-16
		c6-8,18-8,24,0c3,4,2,16,0,16"/>
	<path fill="none" stroke="#040404" stroke-width="2" stroke-linecap="round" stroke-linejoin="round" d="M18,60v-3.1
		c0-5,3.8-9,8.8-9c6,5,12,5,18,0c5,0,9.2,4,9.2,9V60"/>
	<path fill="#040404" d="M42,33c0,1.1-0.9,2-2,2s-2-0.9-2-2s0.9-2,2-2S42,31.9,42,33"/>
	<path fill="#040404" d="M34,33c0,1.1-0.9,2-2,2s-2-0.9-2-2s0.9-2,2-2S34,31.9,34,33"/>
	<path fill="none" stroke="#040404" stroke-width="2" stroke-linejoin="round" d="M25,34c0,8,4.8,11.9,10.8,11.9S47,42,47,34
		s-3-10-3-10c-8,4-14,2-16,0C28,24,25,26,25,34z"/>
	<path fill="none" stroke="#040404" stroke-width="2" stroke-linecap="round" stroke-linejoin="round" d="M32.8,39.2
		c1.9,1,4.1,1,6,0"/>
</g>
</svg>
