<?xml version="1.0" encoding="utf-8"?>
<!-- Generator: Adobe Illustrator 21.1.0, SVG Export Plug-In . SVG Version: 6.00 Build 0)  -->
<svg version="1.1" id="emoji" xmlns="http://www.w3.org/2000/svg" xmlns:xlink="http://www.w3.org/1999/xlink" x="0px" y="0px"
	 viewBox="0 0 72 72" enable-background="new 0 0 72 72" xml:space="preserve">
<g id="_xD83D__xDC69__x200D__xD83C__xDFEB_">
	<g>
		<path d="M60.8,52.2h-2.6c-0.6,0-1-0.4-1-1s0.4-1,1-1h1.6V17.9H48.4c-0.6,0-1-0.4-1-1c0-0.6,0.4-1,1-1h12.4c0.6,0,1,0.4,1,1v34.3
			C61.8,51.7,61.3,52.2,60.8,52.2z"/>
	</g>
	<g>
		<path d="M13.9,52.2h-3.1c-0.6,0-1-0.4-1-1V16.9c0-0.6,0.4-1,1-1h11.9c0.6,0,1,0.4,1,1c0,0.6-0.4,1-1,1H11.8v32.3h2.1
			c0.6,0,1,0.4,1,1S14.4,52.2,13.9,52.2z"/>
	</g>
	<g>
		<path d="M42,27.1c0,1.1-0.9,2-2,2s-2-0.9-2-2c0-1.1,0.9-2,2-2S42,26,42,27.1"/>
	</g>
	<g>
		<path d="M34,27.1c0,1.1-0.9,2-2,2c-1.1,0-2-0.9-2-2c0-1.1,0.9-2,2-2C33.1,25.1,34,26,34,27.1"/>
	</g>
	<g>
		<path d="M36,37.2c-1.2,0-2.3-0.3-3.4-0.9C32,36,31.8,35.4,32.1,35c0.2-0.5,0.8-0.7,1.3-0.4c1.7,0.9,3.4,0.9,5.1,0
			c0.5-0.2,1.1,0,1.3,0.4c0.2,0.5,0,1.1-0.4,1.3C38.3,36.9,37.1,37.2,36,37.2z"/>
	</g>
	<g>
		<path d="M36,43.7c-6.8,0-12.3-6.8-12.3-15.2c0-1.7,0.2-3.3,0.7-4.9l1.9,0.5c-0.4,1.4-0.6,2.9-0.6,4.4c0,7.3,4.6,13.2,10.3,13.2
			s10.3-5.9,10.3-13.2c0-1.1-0.1-2.1-0.3-3.2c-0.1-0.4-0.2-0.8-0.3-1.2l1.9-0.5c0.1,0.4,0.2,0.9,0.3,1.4c0.2,1.2,0.3,2.4,0.3,3.6
			C48.3,36.9,42.8,43.7,36,43.7z"/>
	</g>
	<g>
		<path fill="none" stroke="#000100" stroke-width="2" stroke-linecap="round" stroke-linejoin="round" stroke-miterlimit="10" d="
			M27.5,25.1"/>
	</g>
	<g>
		<path d="M41.4,32.3h-2c-1.5,0-2.9-0.9-3.5-2.3c-0.6,1.3-1.9,2.3-3.5,2.3h-2c-2.1,0-3.8-1.7-3.8-3.8v-1.2h-1.8c-0.6,0-1-0.4-1-1
			c0-0.6,0.4-1,1-1h2.8c0.6,0,1,0.4,1,1v2.2c0,1,0.8,1.8,1.8,1.8h2c1,0,1.8-0.8,1.8-1.8v-1.1c0-0.6,0.4-1,1-1h1.3c0.6,0,1,0.4,1,1
			v1.1c0,1,0.8,1.8,1.8,1.8h2c1,0,1.8-0.8,1.8-1.8v-2.2c0-0.6,0.4-1,1-1h3c0.6,0,1,0.4,1,1c0,0.6-0.4,1-1,1h-2v1.2
			C45.2,30.6,43.5,32.3,41.4,32.3z"/>
	</g>
	<g>
		<path d="M46.7,24.9c0,0-0.1,0-0.1,0c-4.9-0.6-7.2-3.3-8.2-4.9c-1.9,1.5-6.4,4.4-13,4.9c-0.6,0-1-0.4-1.1-0.9c0-0.6,0.4-1,0.9-1.1
			c8-0.6,12.7-5.2,12.8-5.2c0.2-0.2,0.6-0.3,0.9-0.3c0.3,0.1,0.6,0.3,0.7,0.7c0.1,0.2,1.5,4.2,7.2,4.8c0.5,0.1,0.9,0.6,0.9,1.1
			C47.6,24.5,47.2,24.9,46.7,24.9z"/>
	</g>
	<g>
		<path d="M20.6,43.7c-0.5,0-0.9-0.4-1-0.8c-1.4-8.9-0.6-16-0.6-16.3c0-0.4,0.9-10.3,8.3-15.1c6.3-4.2,11.3-0.3,12.9,1.2
			c1.6-0.7,4.3-1,6.5,1c2.5,2.3,4.4,7.1,5.1,12.9c0.5,4.2,0.4,10.5-0.2,16.3c-0.1,0.5-0.5,0.9-1.1,0.9c-0.5-0.1-0.9-0.6-0.9-1.1
			c0.6-5.7,0.7-11.7,0.2-15.8c-0.6-5.3-2.4-9.7-4.5-11.7c-2.2-2-4.8-0.4-4.9-0.4c-0.4,0.3-1,0.2-1.3-0.2C39,14.2,34.6,9,28.4,13.1
			C21.9,17.4,21,26.6,21,26.7c0,0.1-0.8,7.2,0.6,15.8c0.1,0.5-0.3,1.1-0.8,1.1C20.7,43.7,20.7,43.7,20.6,43.7z"/>
	</g>
	<g id="XMLID_1_">
		<g>
			<path fill="none" stroke="#000000" stroke-width="2" stroke-linecap="round" stroke-linejoin="round" stroke-miterlimit="10" d="
				M16.8,58c0,0-2-13,10-13c0,0,0.1,0.1,0.2,0.1c3.1,2,5.8,3.5,8.7,3.5h0.1c2.9,0,5.6-1.4,8.6-3.4c0.1-0.1,0.2-0.1,0.3-0.2
				c5.2,0,7.7,2.4,9,5.2"/>
			
				<polygon fill="none" stroke="#000000" stroke-width="2" stroke-linecap="round" stroke-linejoin="round" stroke-miterlimit="10" points="
				35.7,57.2 35.8,57.3 35.7,57.3 29.8,58.9 29.9,54.1 24.3,54.4 26.8,45.3 			"/>
			
				<polygon fill="none" stroke="#000000" stroke-width="2" stroke-linecap="round" stroke-linejoin="round" stroke-miterlimit="10" points="
				35.7,57.2 35.6,57.3 35.7,57.3 41.6,58.9 41.5,54.1 47.1,54.4 44.5,45.3 			"/>
		</g>
	</g>
	<g>
		<path d="M53.1,58.8c-0.5,0-0.9-0.4-0.8-1l3.4-26.5L54.3,58C54.2,58.4,53.6,58.8,53.1,58.8L53.1,58.8z"/>
		<path d="M53.1,59.5c-0.5,0-0.9-0.2-1.2-0.5c-0.3-0.3-0.4-0.8-0.4-1.3l3.4-26.5c0.1-0.4,0.4-0.7,0.8-0.7c0.4,0,0.7,0.4,0.7,0.8
			L55,58C55,59,53.9,59.5,53.1,59.5z M53.9,51.6l-0.8,6.3l0.1,0.1c0.1,0,0.3-0.1,0.4-0.2L53.9,51.6z"/>
	</g>
</g>
</svg>
