<?xml version="1.0" encoding="utf-8"?>
<!-- Generator: Adobe Illustrator 21.1.0, SVG Export Plug-In . SVG Version: 6.00 Build 0)  -->
<svg version="1.1" id="emoji" xmlns="http://www.w3.org/2000/svg" xmlns:xlink="http://www.w3.org/1999/xlink" x="0px" y="0px"
	 viewBox="0 0 72 72" enable-background="new 0 0 72 72" xml:space="preserve">
<g id="_xD83D__xDC68__x200D__xD83C__xDF3E_">
	<path fill="#000100" d="M42,27c0,1.1-0.9,2-2,2s-2-0.9-2-2c0-1.1,0.9-2,2-2S42,25.9,42,27"/>
	<path fill="#000100" d="M34,27c0,1.1-0.9,2-2,2c-1.1,0-2-0.9-2-2c0-1.1,0.9-2,2-2C33.1,25,34,25.9,34,27"/>
	<path fill="#000100" d="M36,37c-1.2,0-2.3-0.3-3.4-0.9c-0.5-0.2-0.7-0.8-0.4-1.3c0.2-0.5,0.8-0.7,1.3-0.4c1.7,0.9,3.4,0.9,5.1,0
		c0.5-0.2,1.1,0,1.3,0.4c0.2,0.5,0,1.1-0.4,1.3C38.3,36.7,37.1,37,36,37z"/>
	
		<polyline fill="none" stroke="#000000" stroke-width="2" stroke-linecap="round" stroke-linejoin="round" stroke-miterlimit="10" points="
		27,45 32.8,53.9 36,48.6 	"/>
	
		<polyline fill="none" stroke="#000000" stroke-width="2" stroke-linecap="round" stroke-linejoin="round" stroke-miterlimit="10" points="
		45,45 39.2,53.9 36,48.6 	"/>
	<path fill="none" stroke="#000000" stroke-width="2" stroke-linecap="round" stroke-linejoin="round" stroke-miterlimit="10" d="
		M53.5,23.8c0,0-2.4,15.4,7.1,15.7V23.8"/>
	<path fill="none" stroke="#000000" stroke-width="2" stroke-linecap="round" stroke-linejoin="round" stroke-miterlimit="10" d="
		M67.6,23.8c0,0,2.4,15.4-7.1,15.7V23.8"/>
	
		<rect x="57.9" y="39.5" fill="none" stroke="#000000" stroke-width="2" stroke-linecap="round" stroke-linejoin="round" stroke-miterlimit="10" width="5.5" height="4.2"/>
	
		<polyline fill="none" stroke="#000000" stroke-width="2" stroke-linecap="round" stroke-linejoin="round" stroke-miterlimit="10" points="
		62.7,58.1 62.7,43.7 58.7,43.7 58.7,58.1 	"/>
	<path fill="none" stroke="#000000" stroke-width="2" stroke-linecap="round" stroke-linejoin="round" stroke-miterlimit="10" d="
		M55,58c0,0,2-13-10-13c-3.2,2.1-5.9,3.6-9,3.6h0.1c-3.1,0-5.8-1.5-9-3.6c-12,0-10,13-10,13"/>
	
		<line fill="none" stroke="#000000" stroke-width="2" stroke-linecap="round" stroke-linejoin="round" stroke-miterlimit="10" x1="22.2" y1="46" x2="22.2" y2="58"/>
	
		<line fill="none" stroke="#000000" stroke-width="2" stroke-linecap="round" stroke-linejoin="round" stroke-miterlimit="10" x1="49.7" y1="46" x2="49.7" y2="58.1"/>
	
		<polyline fill="none" stroke="#000000" stroke-width="2" stroke-linecap="round" stroke-linejoin="round" stroke-miterlimit="10" points="
		27.3,45.3 27.3,58 44.7,58 44.7,45.3 	"/>
	<path fill="none" stroke="#000100" stroke-width="2" stroke-linecap="round" stroke-linejoin="round" stroke-miterlimit="10" d="
		M10.4,24.8"/>
	<path fill="none" stroke="#000000" stroke-miterlimit="10" d="M24.7,25c-0.2,1.1-0.3,2.2-0.3,3.4c0,0.8,0.1,1.6,0.2,2.3l-0.5-0.5
		c0,0-4.7-6.9,2.6-13.9h18.2c7.2,7,2.6,13.9,2.6,13.9l-5.7-12.6c0,0-1.5,3.8-5.7,3.5c0,0,1.1-4.8-0.3-4.8
		C35.8,16.3,30.6,22.5,24.7,25"/>
	<path fill="none" stroke="#000000" stroke-width="2" stroke-miterlimit="10" d="M25,25c-0.2,1.1-0.3,2.2-0.3,3.4
		c0,7.8,5.1,14.2,11.3,14.2c6,0,10.9-5.8,11.3-13.1"/>
	<path fill="none" stroke="#000000" stroke-width="2" stroke-linecap="round" stroke-linejoin="round" stroke-miterlimit="10" d="
		M45.1,16.3c7.2,7,2.6,13.9,2.6,13.9L42,17.5c0,0-1.5,3.8-5.7,3.5c0,0,1.1-4.8-0.3-4.8c0,0-5.2,6.2-11.1,8.7"/>
	<path fill="none" stroke="#000000" stroke-width="2" stroke-linecap="round" stroke-linejoin="round" stroke-miterlimit="10" d="
		M24.3,30.2c0,0-4.7-6.9,2.6-13.9"/>
	
		<polyline fill="none" stroke="#000000" stroke-width="2" stroke-linecap="round" stroke-linejoin="round" stroke-miterlimit="10" points="
		27.2,16.3 27.2,8.1 36,9.5 44.8,8.1 44.8,16.3 	"/>
	
		<line fill="none" stroke="#000000" stroke-width="2" stroke-linecap="round" stroke-linejoin="round" stroke-miterlimit="10" x1="27.2" y1="12.8" x2="44.8" y2="12.8"/>
	
		<line fill="none" stroke="#000000" stroke-width="2" stroke-linecap="round" stroke-linejoin="round" stroke-miterlimit="10" x1="19.5" y1="16.3" x2="52.1" y2="16.3"/>
</g>
</svg>
