<svg id="emoji" viewBox="0 0 72 72" version="1.1" xmlns="http://www.w3.org/2000/svg">
  <g id="line">
    <path d="M49.361,54.9954c0,1.1045-0.8965,2-2,2s-2-0.8955-2-2c0-1.1035,0.8965-2,2-2S49.361,53.8919,49.361,54.9954"/>
    <path fill="none" stroke="#000000" stroke-linecap="round" stroke-linejoin="round" stroke-miterlimit="10" stroke-width="2" d="M51.3353,53.5521"/>
    <path fill="none" stroke="#000000" stroke-linecap="round" stroke-linejoin="round" stroke-miterlimit="10" stroke-width="2" d="M45.8379,48.2369"/>
    <path fill="none" stroke="#000000" stroke-linecap="round" stroke-linejoin="round" stroke-miterlimit="10" stroke-width="2" d="M16.9579,57.675c0,0-2-13,10-13c3.16,2.09,5.86,3.55,8.88,3.59h0.12c2.96-0.04,5.63-1.44,8.7-3.47c0.06-0.04,0.12-0.08,0.18-0.12 c12,0,10,13,10,13"/>
    <polyline fill="none" stroke="#000000" stroke-linecap="round" stroke-linejoin="round" stroke-miterlimit="10" stroke-width="2" points="26.9579,44.675 30.7079,53.555 33.2679,50.915 35.8379,48.265"/>
    <line x1="38.3879" x2="35.8379" y1="50.885" y2="48.265" fill="none" stroke="#000000" stroke-linecap="round" stroke-linejoin="round" stroke-miterlimit="10" stroke-width="2"/>
    <polyline fill="none" stroke="#000000" stroke-linecap="round" stroke-linejoin="round" stroke-miterlimit="10" stroke-width="2" points="44.7079,44.675 44.6579,44.795 40.9679,53.555 38.3879,50.895"/>
    <path fill="none" stroke="#000000" stroke-linecap="round" stroke-linejoin="round" stroke-miterlimit="10" stroke-width="2" d="M33.4279,51.065c0.14,1.5,0.72,3.01,2.47,3.01c1.83,0,2.38-1.62,2.49-3.18v-0.01"/>
    <line x1="35.0479" x2="32.6379" y1="54.075" y2="57.675" fill="none" stroke="#000000" stroke-linecap="round" stroke-linejoin="round" stroke-miterlimit="10" stroke-width="2"/>
    <line x1="36.7479" x2="39.1679" y1="54.075" y2="57.675" fill="none" stroke="#000000" stroke-linecap="round" stroke-linejoin="round" stroke-miterlimit="10" stroke-width="2"/>
    <path d="M26.9629,57.1289h-5.8447c-0.5528,0-1-0.4473-1-1s0.4472-1,1-1h5.8447c0.5527,0,1,0.4473,1,1 S27.5156,57.1289,26.9629,57.1289z"/>
    <path d="M39.9734,24.815c1.11,0,2,0.9,2,2c0,1.11-0.89,2-2,2c-1.1,0-2-0.89-2-2C37.9734,25.715,38.8734,24.815,39.9734,24.815z"/>
    <path d="M31.9734,24.815c1.11,0,2,0.9,2,2c0,1.11-0.89,2-2,2c-1.1,0-2-0.89-2-2C29.9734,25.715,30.8734,24.815,31.9734,24.815z"/>
    <path d="M36.0224,36.8208c-1.1518,0-2.3037-0.2861-3.4472-0.8579c-0.4942-0.2471-0.6944-0.8476-0.4473-1.3418 c0.2466-0.4936,0.8462-0.6943,1.3418-0.4472c1.7178,0.8593,3.3877,0.8593,5.1055,0c0.4946-0.2471,1.0947-0.0464,1.3418,0.4472 c0.247,0.4942,0.0468,1.0947-0.4473,1.3418C38.3261,36.5347,37.1743,36.8208,36.0224,36.8208z"/>
    <path d="M36.0225,43.3525c-6.4161,0-11.6983-5.916-12.2862-13.7607l1.9942-0.1504c0.5009,6.6797,5.0215,11.9111,10.292,11.9111 c5.2578,0,9.6728-5.0136,10.2714-11.663c0.045-0.5,0.0674-1.0083,0.0674-1.5103h2c0,0.561-0.0254,1.1294-0.0752,1.689 C47.5938,37.5557,42.3223,43.3525,36.0225,43.3525z"/>
    <path fill="none" stroke="#000000" stroke-linecap="round" stroke-linejoin="round" stroke-miterlimit="10" stroke-width="2" d="M42.2628,17.0779"/>
    <path fill="none" stroke="#000000" stroke-linecap="round" stroke-linejoin="round" stroke-miterlimit="10" stroke-width="2" d="M29.6391,17.0779"/>
    <path fill="none" stroke="#000000" stroke-linecap="round" stroke-linejoin="round" stroke-miterlimit="10" stroke-width="2" d="M46.4048,16.2639"/>
    <path d="M36.0928,17.5562c-2.9346,0-3.4756-4.3345-3.5274-4.8287c-0.0361-0.3437,0.1075-0.6816,0.3799-0.894 c1.9815-1.5425,4.9697-1.2002,6.3184,0.1362c0.2109,0.2095,0.3183,0.5025,0.292,0.7989c-0.044,0.4897-0.5098,4.7827-3.458,4.7876 C36.0957,17.5562,36.0938,17.5562,36.0928,17.5562z M36.0938,15.5562l0.0019,1L36.0938,15.5562 c0.7539-0.001,1.2119-1.4581,1.3916-2.42c-0.669-0.3369-1.8467-0.499-2.835-0.02c0.2187,1.0708,0.7324,2.44,1.4424,2.44 C36.0938,15.5562,36.0938,15.5562,36.0938,15.5562z"/>
    <path d="M24.6318,31.0176c-0.3017,0-0.5918-0.1367-0.7832-0.3789c-1.4687-1.8565-2.0664-3.772-1.7773-5.6939 c0.4814-3.2016,3.2871-5.1675,3.4062-5.25l0.7246-0.5498c0.4405-0.334,1.0674-0.2461,1.4004,0.1934 c0.334,0.4404,0.2471,1.0679-0.1933,1.4013l-0.7608,0.5762c-0.0556,0.0401-2.2578,1.6011-2.6015,3.9395 c-0.1309,0.8916,0.0263,1.8027,0.4677,2.7231c1.2686-2.1982,4.1358-5.8188,9.5196-6.5762 c0.5586-0.0839,1.0527,0.3042,1.1299,0.8511c0.0771,0.5469-0.3037,1.0528-0.8506,1.1294c-6.46,0.9087-8.6504,6.7285-8.7403,6.9756 c-0.124,0.3408-0.4228,0.5889-0.7802,0.6465C24.7393,31.0137,24.6855,31.0176,24.6318,31.0176z"/>
    <path d="M36.2979,23.459c-4.6973,0-9.2071-1.5288-11.669-3.9951c-0.2851-0.2862-0.3701-0.7163-0.2158-1.0899 c0.1553-0.373,0.5195-0.6167,0.9238-0.6167h21.0684c0.3896,0,0.7441,0.2266,0.9072,0.5801 c0.1641,0.3535,0.1074,0.7705-0.1455,1.0674c-2.0313,2.3921-5.6787,3.8633-10.0059,4.0371 C36.873,23.4531,36.585,23.459,36.2979,23.459z M28.4736,19.7573c2.333,1.1797,5.4317,1.8125,8.6075,1.6861 c2.5634-0.1031,4.8271-0.6978,6.538-1.6861H28.4736z"/>
    <path d="M47.7324,23.4595c-0.2236,0-0.4492-0.0752-0.6357-0.229c-0.4258-0.3521-0.4863-0.9825-0.1338-1.4082l2.248-2.7207 c0.5166-0.6241,0.836-1.5703,0.8086-1.9424c-2.5966-0.7202-4.1435-2.3057-5.6396-3.8399 c-1.9815-2.0317-3.8535-3.9511-8.3125-3.9511c-4.46,0-6.332,1.9194-8.3135,3.9511c-1.4971,1.5347-3.0439,3.1202-5.6396,3.8399 c-0.0264,0.3721,0.2929,1.3183,0.8086,1.9424l2.0117,2.434c0.3525,0.4258,0.292,1.0562-0.1338,1.4082 c-0.4268,0.3531-1.0567,0.292-1.4072-0.1337l-2.0118-2.4341c-0.6718-0.813-1.5791-2.5943-1.1562-3.9151 c0.1973-0.6128,0.6484-1.0415,1.2715-1.207c2.1259-0.564,3.4365-1.9077,4.8252-3.3306c2.082-2.1352,4.4423-4.5551,9.7451-4.5551 c5.3017,0,7.6621,2.4199,9.7441,4.5547c1.3887,1.4233,2.6992,2.767,4.8252,3.3315c0.6231,0.165,1.0752,0.5942,1.2715,1.2075 c0.4238,1.3218-0.4844,3.1026-1.1562,3.9146l-2.2481,2.7202C48.3066,23.3359,48.0205,23.4595,47.7324,23.4595z"/>
    <path d="M47.1748,31.0186c-0.0566,0-0.1133-0.0049-0.1699-0.0147c-0.3613-0.0625-0.6592-0.3174-0.7774-0.6641 c-1.0039-2.9599-3.2607-7.4033-4.913-7.541c-0.5508-0.0459-0.959-0.5293-0.9131-1.0796c0.0449-0.5498,0.5136-0.9658,1.0791-0.9135 c2.6738,0.2231,4.8076,4.3305,5.9082,6.9624c0.3681-0.8482,0.4922-1.689,0.3711-2.5122c-0.3438-2.3389-2.5459-3.8999-2.5684-3.9156 l-0.7246-0.5908c-0.4268-0.3506-0.4883-0.9805-0.1377-1.4077c0.3496-0.4258,0.9785-0.4897,1.4072-0.1382l0.6602,0.542 c0.0517,0.0317,2.8574,1.9976,3.3389,5.1992c0.289,1.9219-0.3086,3.8374-1.7764,5.6939 C47.7676,30.8809,47.4775,31.0186,47.1748,31.0186z"/>
  </g>
</svg>
