<?xml version="1.0" encoding="utf-8"?>
<!-- Generator: Adobe Illustrator 21.1.0, SVG Export Plug-In . SVG Version: 6.00 Build 0)  -->
<svg version="1.1" id="emoji" xmlns="http://www.w3.org/2000/svg" xmlns:xlink="http://www.w3.org/1999/xlink" x="0px" y="0px"
	 viewBox="0 0 72 72" enable-background="new 0 0 72 72" xml:space="preserve">
<g id="_xD83D__xDC68__x200D__x2696__xFE0F_">
	<path fill="#000100" d="M41.9,27.1c0,1.1-0.9,2-2,2c-1.1,0-2-0.9-2-2c0-1.1,0.9-2,2-2C41,25.1,41.9,26,41.9,27.1"/>
	<path fill="#000100" d="M33.9,27.1c0,1.1-0.9,2-2,2c-1.1,0-2-0.9-2-2c0-1.1,0.9-2,2-2C33,25.1,33.9,26,33.9,27.1"/>
	<path fill="#000100" d="M35.9,37.1c-1.2,0-2.3-0.3-3.4-0.9c-0.5-0.2-0.7-0.8-0.4-1.3c0.2-0.5,0.8-0.7,1.3-0.4
		c1.7,0.9,3.4,0.9,5.1,0c0.5-0.2,1.1,0,1.3,0.4c0.2,0.5,0,1.1-0.4,1.3C38.2,36.8,37.1,37.1,35.9,37.1z"/>
	<path fill="none" stroke="#000000" stroke-width="2" stroke-linecap="round" stroke-linejoin="round" stroke-miterlimit="10" d="
		M16.9,58c0,0-2-13,10-13c3.2,2.1,5.9,3.6,9,3.6h-0.1c3.1,0,5.8-1.5,9-3.6c0,0-6.8,11.5-9.1,12.1C33.5,57.7,26.9,45,26.9,45"/>
	<g>
		<g id="XMLID_2_">
			<g>
			</g>
			<g>
				
					<path fill="none" stroke="#000000" stroke-width="2" stroke-linecap="round" stroke-linejoin="round" stroke-miterlimit="10" d="
					M57.3,48.2l-5.5,11.4c-0.4,0.9-1.5,1.4-2.4,1.2c-1.2-0.4-1.8-1.7-1.3-2.8l5.5-11.5"/>
				
					<path fill="none" stroke="#000000" stroke-width="2" stroke-linecap="round" stroke-linejoin="round" stroke-miterlimit="10" d="
					M56.4,38.3l-1.9-1.6c-1.5-0.7-3.4-0.1-4.1,1.4l-1.6,3.4c-0.7,1.5-0.1,3.4,1.4,4.1l2.5,0.5l1,0.2h0l3.7,1.8l0,0l0.5,0.4l2,1.7
					c1.5,0.7,3.4,0.1,4.1-1.4l1.6-3.4c0.7-1.5,0.1-3.4-1.4-4.1l-2.5-0.5l-0.8-0.2L57.3,39L56.4,38.3z"/>
				
					<line fill="none" stroke="#000000" stroke-width="2" stroke-linecap="round" stroke-linejoin="round" stroke-miterlimit="10" x1="61.7" y1="41.1" x2="58.2" y2="48.1"/>
				
					<line fill="none" stroke="#000000" stroke-width="2" stroke-linecap="round" stroke-linejoin="round" stroke-miterlimit="10" x1="52.8" y1="45.5" x2="56.2" y2="38.5"/>
			</g>
		</g>
	</g>
	
		<polyline fill="none" stroke="#000000" stroke-width="2" stroke-linecap="round" stroke-linejoin="round" stroke-miterlimit="10" points="
		32,53.6 35.8,48.6 39.2,53.3 	"/>
	<g id="XMLID_1_">
		<g>
		</g>
		<g>
			<path fill="none" stroke="#000000" stroke-width="2" stroke-linecap="round" stroke-linejoin="round" stroke-miterlimit="10" d="
				M24.5,28.8c0,0,0,0.1,0,0.1c0.1,7.8,5.1,14,11.3,14c6.2,0,11.2-6.2,11.3-14c0-0.1,0-0.1,0-0.2c0-1.2-0.1-2.3-0.3-3.4
				c-0.2-1.1-0.5-2.1-0.9-3"/>
			<path fill="none" stroke="#000000" stroke-width="2" stroke-linecap="round" stroke-linejoin="round" stroke-miterlimit="10" d="
				M47.6,29c0,0,3.9-2.9,2.8-7.4c-0.6-2.5-2.6-5.4-7.5-8.6c-5.5-3.9-13.7-2.8-16,0.1c-0.4,0.6-0.6,1.3-0.6,2c0,0.4,0.1,0.9,0.2,1.3
				c0.3,0.8,0.7,1.9,1.7,2.9c2.1,2.2,6.6,4.1,17.8,3.1c0.5,0,1-0.1,1.5-0.1"/>
			<path fill="none" stroke="#000000" stroke-width="2" stroke-linecap="round" stroke-linejoin="round" stroke-miterlimit="10" d="
				M25.8,15.1C19.3,22,23.7,30.8,24.4,29c0,0,0.1-0.1,0.1-0.1c2.9-2.8,3.6-9.6,3.6-9.6"/>
		</g>
	</g>
</g>
</svg>
