<svg id="emoji" xmlns="http://www.w3.org/2000/svg" viewBox="0 0 72 72">
  <g id="line">
    <g>
      <path d="M37.0588,46.5267q.0117.2115.0117.4261a6.7761,6.7761,0,0,1-6.4885,7.031,6.7761,6.7761,0,0,1-6.4885-7.031q0-.1428.0052-.2841" fill="none" stroke="#000" stroke-miterlimit="10" stroke-width="1.6"/>
      <path d="M33.4342,47.3957a.9414.9414,0,1,1-.9386-.8689.9058.9058,0,0,1,.9386.8689"/>
      <path d="M29.6794,47.3957a.9414.9414,0,1,1-.9386-.8689.9058.9058,0,0,1,.9386.8689"/>
      <path d="M29.21,50.7785a2.223,2.223,0,0,0,2.8161,0" fill="none" stroke="#000" stroke-linecap="round" stroke-linejoin="round" stroke-width="1.6"/>
      <path d="M28.145,43.53c.4694,3.3631,4.487-.8707,4.487-.8707.549,1.5737,4.4254,3.8675,4.4254,3.8675,1.0324-.9558.5259-2.8526.3721-3.5136a5.1207,5.1207,0,0,0-5.8079-4.1141,6.4443,6.4443,0,0,1-1.0324,0c-2.2709-.3369-6.03-.1484-7.12,4.6433-.5317,2.3382.624,2.9844.624,2.9844S27.8572,41.4677,28.145,43.53Z" fill="none" stroke="#000" stroke-linecap="round" stroke-linejoin="round" stroke-width="1.6"/>
      <path d="M20.8118,60.6645v-.9438c0-2.253,2.5843-4.06,5.1612-4.06a7.2233,7.2233,0,0,0,9.29,0c2.5775,0,5.1612,1.8072,5.1612,4.06v.9438" fill="none" stroke="#000" stroke-linecap="round" stroke-linejoin="round" stroke-width="1.6"/>
    </g>
    <path d="M11.3487,60.6535v-12.76c0-3.3491,3.3572-6.0357,6.7064-6.0357a10.142,10.142,0,0,0,4.9813,2.3386" fill="none" stroke="#000" stroke-linecap="round" stroke-linejoin="round" stroke-width="2"/>
    <g>
      <path d="M12.4772,39.4117a7.7523,7.7523,0,0,1-.688-7.407c1.6071-3.789,2.0328-3.77,2.2914-8.5682a5.4342,5.4342,0,0,1,4.9484-5.3708,7.2356,7.2356,0,0,1,5.3459-2.0047c4.2982,0,8.1727,2.3162,9.161,5.9916,1.0024,3.7308-.23,5.2351.8627,8.0417.4654,1.1957,1.0586,2.35,1.47,3.54" fill="none" stroke="#000" stroke-linecap="round" stroke-linejoin="round" stroke-width="2"/>
      <path d="M31.0573,29.426v-.6682c0-1.3366-8.019-4.6778-10.6919-7.3508-2.673,2.6731-4.01,4.6778-4.01,8.019,0,5.3461,3.3412,9.3555,7.3508,9.3555s7.3507-4.01,7.3507-9.3555Z" fill="none" stroke="#000" stroke-miterlimit="10" stroke-width="1.6"/>
      <path d="M20.0325,29.3045a1.2388,1.2388,0,1,1,1.2388,1.2388,1.2388,1.2388,0,0,1-1.2388-1.2388"/>
      <path d="M24.9878,29.3045a1.2389,1.2389,0,1,1,1.2388,1.2388,1.2387,1.2387,0,0,1-1.2388-1.2388"/>
      <path d="M21.8907,34.4146a3.9489,3.9489,0,0,0,3.7165,0" fill="none" stroke="#000" stroke-linecap="round" stroke-linejoin="round" stroke-width="1.6"/>
    </g>
    <g>
      <path d="M55.7888,52.2427l2.6792.08.3912.008S56.5458,52.9505,55.7888,52.2427Z" fill="#fff"/>
      <path d="M55.6442,55.623A7.8071,7.8071,0,0,0,58.468,56.92a3.7589,3.7589,0,0,0,.3912.0716Z" fill="#fff"/>
      <path d="M58.8592,58.7568,58.468,58.63" fill="none"/>
      <path d="M55.5664,50.6226a9.664,9.664,0,0,1-2.05,3.15,5.8534,5.8534,0,0,1-2.1689,1.1692l-.2551.0716a5.9494,5.9494,0,0,1-1.31.1511,5.585,5.585,0,0,1-.9016-.0716c-.1361-.0238-.2636-.0477-.3912-.0795a5.8152,5.8152,0,0,1-2.6792-1.4476,9.5243,9.5243,0,0,1-1.759-2.7806" fill="none" stroke="#000" stroke-miterlimit="10" stroke-width="1.6"/>
      <path d="M52.5642,47.9176a.8928.8928,0,1,1-.8907-.833.8633.8633,0,0,1,.8907.833Z"/>
      <path d="M49.0011,47.9176a.8928.8928,0,1,1-.8907-.833.8633.8633,0,0,1,.8907.833Z"/>
      <path d="M48.5558,51.16a2.0932,2.0932,0,0,0,2.6722,0" fill="none" stroke="#000" stroke-linecap="round" stroke-linejoin="round" stroke-width="1.6"/>
      <path d="M59.1958,60.6371V59.73c0-2.02-2.1518-3.6746-4.44-3.8655a4.4435,4.4435,0,0,0-.4593-.0239,2.2494,2.2494,0,0,1-.2467.1671A7.6983,7.6983,0,0,1,51.1839,57.32a.0123.0123,0,0,1-.017,0,5.7544,5.7544,0,0,1-2.2114.0637,3.7637,3.7637,0,0,1-.3912-.0716,7.806,7.806,0,0,1-2.8237-1.2965c-.0851-.0557-.17-.1113-.2552-.175a4.4435,4.4435,0,0,0-.4593.0239c-2.2879.1909-4.44,1.8453-4.44,3.8655v.9067" fill="none" stroke="#000" stroke-linecap="round" stroke-linejoin="round" stroke-width="1.6"/>
      <path d="M45.9466,39.5416c-1.7214.6142-3.4149,2.2239-3.7034,6.1507a18.0621,18.0621,0,0,0-.0186,2.2611,7.1977,7.1977,0,0,1-2.15,3.1358A4.1881,4.1881,0,0,0,43.8809,52.55a9.6056,9.6056,0,0,1,.67-3.6941,10.7838,10.7838,0,0,1,.93-2.1216,8.4348,8.4348,0,0,1,4.3176-3.815,8.3079,8.3079,0,0,1,4.01,3.2288,11.0061,11.0061,0,0,1,1.2376,2.7078c.2047.6792.3536,1.2468.4467,1.7121a6.0838,6.0838,0,0,1,.2233,1.982,3.5974,3.5974,0,0,0,1.2562.0279h.0186a3.51,3.51,0,0,0,.8839-.27,4.6625,4.6625,0,0,0,1.647-1.2189,7.1981,7.1981,0,0,1-2.1494-3.1358,14.1021,14.1021,0,0,0-.0559-3.5359c-.53-3.4057-2.5309-4.606-4.3175-4.9689a7.75,7.75,0,0,0-3.1079.0186,7.212,7.212,0,0,0-1.9168-.2512,6.3065,6.3065,0,0,0-2.0285.3256" fill="none" stroke="#000" stroke-linecap="round" stroke-linejoin="round" stroke-width="1.6"/>
    </g>
  </g>
</svg>
