<svg id="emoji" xmlns="http://www.w3.org/2000/svg" viewBox="0 0 72 72">
  <g id="line">
    <path d="M12.1172,39.762a7.7521,7.7521,0,0,1-.688-7.4069c1.6071-3.789,2.0328-3.77,2.2914-8.5683a5.4341,5.4341,0,0,1,4.9483-5.3707,7.236,7.236,0,0,1,5.346-2.0047c4.2982,0,8.1727,2.3162,9.161,5.9915,1.0024,3.7309-.23,5.2352.8627,8.0418.4654,1.1957.3944,2.1019.8054,3.2927" fill="none" stroke="#000" stroke-linecap="round" stroke-linejoin="round" stroke-width="2"/>
    <path d="M26.51,38.3807l.3962-.2615,1.1106-1.0821a10.4016,10.4016,0,0,0,2.68-7.2607h0v-.6682c0-1.3366-8.019-4.6778-10.692-7.3508-2.6729,2.6731-4.0094,4.6778-4.0094,8.019a11.091,11.091,0,0,0,3.32,8.0029l.7518.74.6583.5968" fill="none" stroke="#000" stroke-miterlimit="10" stroke-width="1.6"/>
    <path d="M19.6725,29.6549a1.2388,1.2388,0,1,1,1.2388,1.2388,1.2388,1.2388,0,0,1-1.2388-1.2388"/>
    <path d="M24.6278,29.6549a1.2388,1.2388,0,1,1,1.2388,1.2388,1.2388,1.2388,0,0,1-1.2388-1.2388"/>
    <path d="M21.4828,34.3816a3.9489,3.9489,0,0,0,3.7165,0" fill="none" stroke="#000" stroke-linecap="round" stroke-linejoin="round" stroke-width="1.6"/>
    <path d="M57.1148,38.9409a7.7519,7.7519,0,0,0,.6881-7.4069c-1.6071-3.789-2.0328-3.77-2.2915-8.5683a5.4341,5.4341,0,0,0-4.9483-5.3707A7.2359,7.2359,0,0,0,45.2172,15.59c-4.2982,0-8.1727,2.3162-9.1611,5.9915-1.0023,3.7308-1.0751,2.4115-1.5957,6.5269a15.42,15.42,0,0,0-.39,2.3675" fill="none" stroke="#000" stroke-linecap="round" stroke-linejoin="round" stroke-width="2"/>
    <path d="M47.9025,38.4412l1.9117-1.5177a10.5757,10.5757,0,0,0,3.4221-7.9682c0-3.3412-1.3365-5.346-4.01-8.019-2.673,2.673-10.692,6.0142-10.692,7.3507v.6683h0a10.6381,10.6381,0,0,0,3.4478,7.9887l1.8611,1.3537" fill="none" stroke="#000" stroke-miterlimit="10" stroke-width="1.6"/>
    <path d="M49.56,28.8337a1.2388,1.2388,0,1,0-1.2388,1.2388A1.2388,1.2388,0,0,0,49.56,28.8337"/>
    <path d="M44.6043,28.8337a1.2389,1.2389,0,1,0-1.2389,1.2388,1.2387,1.2387,0,0,0,1.2389-1.2388"/>
    <path d="M47.7014,33.9438a3.9491,3.9491,0,0,1-3.7166,0" fill="none" stroke="#000" stroke-linecap="round" stroke-linejoin="round" stroke-width="1.6"/>
    <path d="M53.4253,41.4126c3.3814,0,6.771,2.6866,6.771,6.0357v12.76" fill="none" stroke="#000" stroke-linecap="round" stroke-linejoin="round" stroke-width="2"/>
    <path d="M11.6983,60.3788v-12.76c0-3.3491,3.39-6.0356,6.771-6.0356" fill="none" stroke="#000" stroke-linecap="round" stroke-linejoin="round" stroke-width="2"/>
    <g>
      <g>
        <path d="M39.28,46.0325q-.0117.2114-.0117.426A6.7761,6.7761,0,0,0,45.7572,53.49a6.7762,6.7762,0,0,0,6.4886-7.0311q0-.1427-.0052-.2841" fill="none" stroke="#000" stroke-miterlimit="10" stroke-width="1.6"/>
        <path d="M42.905,46.9015a.9414.9414,0,1,0,.9387-.8689.9058.9058,0,0,0-.9387.8689Z"/>
        <path d="M46.66,46.9015a.9414.9414,0,1,0,.9386-.8689.9058.9058,0,0,0-.9386.8689Z"/>
        <path d="M47.1291,50.2843a2.2232,2.2232,0,0,1-2.8161,0" fill="none" stroke="#000" stroke-linecap="round" stroke-linejoin="round" stroke-width="1.6"/>
        <path d="M48.1942,43.0358c-.4694,3.3631-4.487-.8707-4.487-.8707-.549,1.5737-4.4253,3.8675-4.4253,3.8675-1.0325-.9558-.526-2.8526-.3722-3.5136a5.1206,5.1206,0,0,1,5.8079-4.1141,6.4443,6.4443,0,0,0,1.0324,0c2.271-.3369,6.03-.1484,7.12,4.6433.5317,2.3382-.6239,2.9844-.6239,2.9844S48.482,40.9735,48.1942,43.0358Z" fill="none" stroke="#000" stroke-linecap="round" stroke-linejoin="round" stroke-width="1.6"/>
      </g>
      <path d="M55.5274,60.17v-.9437c0-2.253-2.5842-4.06-5.1612-4.06a7.2233,7.2233,0,0,1-9.29,0c-2.5775,0-5.1612,1.8072-5.1612,4.06V60.17" fill="none" stroke="#000" stroke-linecap="round" stroke-linejoin="round" stroke-width="1.6"/>
    </g>
    <g>
      <path d="M32.1112,46.1155q.0117.2115.0117.426a6.7761,6.7761,0,0,1-6.4885,7.0311,6.7761,6.7761,0,0,1-6.4885-7.0311q0-.1427.0052-.284" fill="none" stroke="#000" stroke-miterlimit="10" stroke-width="1.6"/>
      <path d="M28.4866,46.9845a.9414.9414,0,1,1-.9386-.8689.9058.9058,0,0,1,.9386.8689"/>
      <path d="M24.7318,46.9845a.9414.9414,0,1,1-.9386-.8689.9058.9058,0,0,1,.9386.8689"/>
      <path d="M24.2625,50.3673a2.223,2.223,0,0,0,2.8161,0" fill="none" stroke="#000" stroke-linecap="round" stroke-linejoin="round" stroke-width="1.6"/>
      <path d="M23.1974,43.1188c.4694,3.3631,4.487-.8707,4.487-.8707.549,1.5737,4.4254,3.8675,4.4254,3.8675,1.0324-.9558.5259-2.8526.3721-3.5136a5.1206,5.1206,0,0,0-5.8079-4.1141,6.4443,6.4443,0,0,1-1.0324,0c-2.2709-.3369-6.03-.1484-7.12,4.6433-.5317,2.3382.624,2.9844.624,2.9844S22.91,41.0565,23.1974,43.1188Z" fill="none" stroke="#000" stroke-linecap="round" stroke-linejoin="round" stroke-width="1.6"/>
      <path d="M15.8642,60.2532V59.31c0-2.253,2.5843-4.06,5.1612-4.06a7.2233,7.2233,0,0,0,9.29,0c2.5775,0,5.1612,1.8072,5.1612,4.06v.9437" fill="none" stroke="#000" stroke-linecap="round" stroke-linejoin="round" stroke-width="1.6"/>
    </g>
  </g>
</svg>
