<svg id="emoji" xmlns="http://www.w3.org/2000/svg" viewBox="0 0 72 72">
  <g id="line">
    <path d="M11.3487,60.6535v-12.76c0-3.3491,3.3572-6.0357,6.7064-6.0357a9.1023,9.1023,0,0,0,9.1492,1.9066l.6964-.3287" fill="none" stroke="#000" stroke-linecap="round" stroke-linejoin="round" stroke-width="2"/>
    <g>
      <path d="M12.4772,39.4117a7.7523,7.7523,0,0,1-.688-7.407c1.6071-3.789,2.0328-3.77,2.2914-8.5682a5.4342,5.4342,0,0,1,4.9484-5.3708,7.2356,7.2356,0,0,1,5.3459-2.0047c4.2982,0,8.1727,2.3162,9.161,5.9916,1.0024,3.7308-.23,5.2351.8627,8.0417.4654,1.1957,1.0586,2.35,1.47,3.54" fill="none" stroke="#000" stroke-linecap="round" stroke-linejoin="round" stroke-width="2"/>
      <path d="M31.0573,29.426v-.6682c0-1.3366-8.019-4.6778-10.6919-7.3508-2.673,2.6731-4.01,4.6778-4.01,8.019,0,5.3461,3.3412,9.3555,7.3508,9.3555s7.3507-4.01,7.3507-9.3555Z" fill="none" stroke="#000" stroke-miterlimit="10" stroke-width="1.6"/>
      <path d="M20.0325,29.3045a1.2388,1.2388,0,1,1,1.2388,1.2388,1.2388,1.2388,0,0,1-1.2388-1.2388"/>
      <path d="M24.9878,29.3045a1.2389,1.2389,0,1,1,1.2388,1.2388,1.2387,1.2387,0,0,1-1.2388-1.2388"/>
      <path d="M21.8907,34.4146a3.9489,3.9489,0,0,0,3.7165,0" fill="none" stroke="#000" stroke-linecap="round" stroke-linejoin="round" stroke-width="1.6"/>
    </g>
    <g>
      <path d="M41.5039,51.9179l2.6791.08.3913.0079S42.2609,52.6257,41.5039,51.9179Z" fill="#fff"/>
      <path d="M41.3593,55.2982a7.8075,7.8075,0,0,0,2.8237,1.2965,3.7392,3.7392,0,0,0,.3913.0716Z" fill="#fff"/>
      <path d="M44.5743,58.432l-.3913-.1273" fill="none"/>
      <path d="M41.2815,50.2979a9.6646,9.6646,0,0,1-2.05,3.15,5.8506,5.8506,0,0,1-2.1689,1.1692l-.2551.0716a5.95,5.95,0,0,1-1.31.1511,5.5737,5.5737,0,0,1-.9016-.0716c-.1361-.0238-.2636-.0477-.3912-.08a5.8152,5.8152,0,0,1-2.6792-1.4476,9.5241,9.5241,0,0,1-1.7591-2.78" fill="none" stroke="#000" stroke-miterlimit="10" stroke-width="1.6"/>
      <path d="M38.2793,47.5928a.8928.8928,0,1,1-.8908-.833.8634.8634,0,0,1,.8908.833Z"/>
      <path d="M34.7162,47.5928a.8928.8928,0,1,1-.8907-.833.8633.8633,0,0,1,.8907.833Z"/>
      <path d="M34.2709,50.8356a2.093,2.093,0,0,0,2.6722,0" fill="none" stroke="#000" stroke-linecap="round" stroke-linejoin="round" stroke-width="1.6"/>
      <path d="M44.9109,60.3123v-.9067c0-2.02-2.1518-3.6746-4.44-3.8655a4.4434,4.4434,0,0,0-.4593-.0238,2.2481,2.2481,0,0,1-.2467.167,7.6983,7.6983,0,0,1-2.8662,1.3123.0123.0123,0,0,1-.017,0,5.7524,5.7524,0,0,1-2.2114.0637,3.7375,3.7375,0,0,1-.3912-.0716,7.8071,7.8071,0,0,1-2.8238-1.2965c-.085-.0556-.17-.1113-.2551-.1749a4.4434,4.4434,0,0,0-.4593.0238c-2.2879.1909-4.44,1.8453-4.44,3.8655v.9067" fill="none" stroke="#000" stroke-linecap="round" stroke-linejoin="round" stroke-width="1.6"/>
      <path d="M31.6617,39.2169c-1.7214.6141-3.415,2.2239-3.7034,6.1506a18.0623,18.0623,0,0,0-.0186,2.2611A7.1971,7.1971,0,0,1,25.79,50.7644a4.1879,4.1879,0,0,0,3.8058,1.4609,9.6058,9.6058,0,0,1,.67-3.6941,10.7889,10.7889,0,0,1,.9305-2.1216,8.4348,8.4348,0,0,1,4.3176-3.815,8.3085,8.3085,0,0,1,4.01,3.2288,11.0077,11.0077,0,0,1,1.2376,2.7078c.2047.6793.3536,1.2469.4466,1.7121a6.0828,6.0828,0,0,1,.2234,1.982,3.5968,3.5968,0,0,0,1.2561.0279h.0187a3.514,3.514,0,0,0,.8839-.27,4.6634,4.6634,0,0,0,1.647-1.219,7.1975,7.1975,0,0,1-2.1494-3.1358,14.1022,14.1022,0,0,0-.0559-3.5359c-.53-3.4056-2.5309-4.606-4.3175-4.9689a7.75,7.75,0,0,0-3.1079.0186,7.212,7.212,0,0,0-1.9168-.2512,6.3041,6.3041,0,0,0-2.0285.3257" fill="none" stroke="#000" stroke-linecap="round" stroke-linejoin="round" stroke-width="1.6"/>
    </g>
  </g>
</svg>
