<svg id="emoji" xmlns="http://www.w3.org/2000/svg" viewBox="0 0 72 72">
  <g id="line">
    <g>
      <path d="M16.8145,59.877v-3c0-4.9942,5.0078-9,10-9q9,7.5,18,0c4.9941,0,10,4.0058,10,9v3" fill="none" stroke="#000" stroke-linecap="round" stroke-linejoin="round" stroke-width="2"/>
      <path d="M41.8145,29.877a2,2,0,1,1-2-2,2,2,0,0,1,2,2"/>
      <path d="M33.8145,29.877a2,2,0,1,1-2-2,2,2,0,0,1,2,2"/>
      <path d="M32.8145,38.127a6.375,6.375,0,0,0,6,0" fill="none" stroke="#000" stroke-linecap="round" stroke-linejoin="round" stroke-width="2"/>
      <path d="M28.62,41.5443A15.4291,15.4291,0,0,1,24.969,31a16.4628,16.4628,0,0,1,.7532-4.5833c2.2177.2612,3.385-.2754,4.0468-.8654a12.5726,12.5726,0,0,0,1.9594-2.4431,8.9348,8.9348,0,0,0,3.0629.5554,4.0817,4.0817,0,0,0,2.6109-1.3592,5.4723,5.4723,0,0,0,4.1782.9079A5.2885,5.2885,0,0,0,44.3676,21.6,21.9134,21.9134,0,0,1,47.0325,31c0,8-5.127,14-11.0635,14A9.8876,9.8876,0,0,1,28.62,41.5443Z" fill="none" stroke="#000" stroke-linecap="round" stroke-linejoin="round" stroke-width="2"/>
      <path d="M19.7628,46.8711a8.0967,8.0967,0,0,1,1.1663-4.759c-3.7047-2.921-1.31-7.0942-1.31-7.0942a4.7242,4.7242,0,0,1-.5923-6.9149,6.2779,6.2779,0,0,1-.4154-3.65,6.2318,6.2318,0,0,1,1.6053-2.7882,4.309,4.309,0,0,1,.7983-4.2467A4.42,4.42,0,0,1,24.362,16a3.812,3.812,0,0,1,6.2563-1.8868,5.118,5.118,0,0,1,7.7669-.57,4.6628,4.6628,0,0,1,3.7823-1.25A4.7718,4.7718,0,0,1,45.6463,15.05a3.9211,3.9211,0,0,1,4.7679,4.4765s3.499,2.2641,1.2349,6.5864a5.4432,5.4432,0,0,1,.52,7.5434s2.8661,3.702-.6568,6.3293a4.2245,4.2245,0,0,1-.2985,6.15l.773,1.6276" fill="none" stroke="#000" stroke-linecap="round" stroke-linejoin="round" stroke-width="2"/>
    </g>
  </g>
</svg>
