<svg version="1.1" id="emoji" xmlns="http://www.w3.org/2000/svg" x="0" y="0" viewBox="0 0 72 72" enable-background="new 0 0 72 72" xml:space="preserve">
  <g id="line">
    <path fill="none" stroke="#000000" stroke-width="2" stroke-miterlimit="10" d="M29.4012,37.8169 c0.0096,0.2175,0.0144,0.4366,0.0144,0.6572c0,6.2348-3.875,11.2891-8.655,11.2891s-8.655-5.0543-8.655-11.2891 c0-0.2204,0.0048-0.4393,0.0144-0.6565"/>
    <path fill="none" stroke="#000000" stroke-width="2" stroke-linecap="round" stroke-linejoin="round" d="M39.0677,51.3639 c-3.0104-4.5156-0.6292-7.739,0.7526-11.2891c1.2305-3.1609-0.1573-4.8551,0.9716-9.0569 c1.1131-4.1393,5.4767-6.7479,10.3175-6.7479c4.0641,0,6.0208,2.2578,6.0208,2.2578c3.1375,0.2815,5.5489,2.8987,5.573,6.0487 c0.2913,5.4037,0.7707,5.3826,2.5807,9.6499c1.3218,3.0596,0.7862,6.6048-1.3803,9.1374"/>
    <path fill="none" stroke="#000000" stroke-width="2" stroke-linecap="round" stroke-linejoin="round" stroke-miterlimit="10" d="M43.5834,39.3223c0,6.0208,3.763,10.5365,8.2787,10.5365s8.2787-4.5156,8.2787-10.5365c0-3.763-1.5052-6.0208-4.5156-9.0313 c-3.0104,3.0104-12.0417,6.7735-12.0417,8.2787L43.5834,39.3223L43.5834,39.3223z"/>
    <path fill="none" stroke="#000000" stroke-width="2" stroke-linecap="round" stroke-linejoin="round" d="M9.8478,33.2058 c0.6413-8.7163,7.2257-8.8092,10.5365-8.2787c0.3214,0.0515,1.2221,0.0354,1.5052,0c6.0208-0.7526,9.0313,6.0208,9.0313,9.0313 c0,1.0649,0,3.763-1.5052,5.2682c0,0-3.4469-4.1722-3.605-6.6018c0,0-11.4471,4.3439-12.1998,0.5809 c0,0-0.7526,3.0104-1.5052,3.763c0,0,0,2.2578,0,3.0104C12.1056,39.9793,9.5717,36.9587,9.8478,33.2058z"/>
    <path fill="none" stroke="#000000" stroke-width="2" stroke-linecap="round" stroke-linejoin="round" d="M36.3446,27.3816 l-7.9098-10.1427L28.18,16.8621c-1.3378-2.1927-0.6448-5.0547,1.5479-6.3925s5.0547-0.6448,6.3925,1.5479 c0.0817,0.1339,0.1566,0.2719,0.2244,0.4134c1.1153-2.3138,3.8951-3.2854,6.2089-2.1701s3.2854,3.8951,2.1701,6.2089 c-0.1237,0.2566-0.2706,0.5012-0.4391,0.7309L36.3446,27.3816z"/>
    <path fill="none" stroke="#000000" stroke-width="2" stroke-linecap="round" stroke-linejoin="round" d="M57.8829,26.6449"/>
    <path fill="none" stroke="#000000" stroke-width="2" stroke-linecap="round" stroke-linejoin="round" d="M37.299,61.8952v-2.2659 c0-3.7719,3.7817-6.7976,7.5529-6.7976c4.5317,3.7764,9.0635,3.7764,13.5952,0c3.7719,0,7.5529,3.0257,7.5529,6.7976v2.2659"/>
    <path fill="none" stroke="#000000" stroke-width="2" stroke-linecap="round" stroke-linejoin="round" d="M6,61.8952v-2.2659 c0-3.7719,3.7817-6.7976,7.5529-6.7976c4.5317,3.7764,9.0635,3.7764,13.5952,0c3.7719,0,7.5529,3.0257,7.5529,6.7976v2.2659"/>
    <path d="M56,39.1854c0,0.7706-0.6247,1.3952-1.3952,1.3952c-0.7706,0-1.3952-0.6247-1.3952-1.3952 c0-0.7706,0.6247-1.3952,1.3952-1.3952C55.3753,37.7901,56,38.4148,56,39.1854"/>
    <path d="M50.4191,39.1854c0,0.7706-0.6247,1.3952-1.3952,1.3952c-0.7706,0-1.3952-0.6247-1.3952-1.3952 c0-0.7706,0.6247-1.3952,1.3952-1.3952C49.7945,37.7901,50.4191,38.4148,50.4191,39.1854"/>
    <path fill="none" stroke="#000000" stroke-width="2" stroke-linecap="round" stroke-linejoin="round" d="M49.7215,44.9407 c1.308,0.6976,2.8776,0.6976,4.1857,0"/>
    <path d="M25,39.1854c0,0.7706-0.6247,1.3952-1.3952,1.3952c-0.7706,0-1.3952-0.6247-1.3952-1.3952 c0-0.7706,0.6247-1.3952,1.3952-1.3952C24.3753,37.7901,25,38.4148,25,39.1854"/>
    <path d="M19.4191,39.1854c0,0.7706-0.6247,1.3952-1.3952,1.3952c-0.7706,0-1.3952-0.6247-1.3952-1.3952 c0-0.7706,0.6247-1.3952,1.3952-1.3952C18.7945,37.7901,19.4191,38.4148,19.4191,39.1854"/>
    <path fill="none" stroke="#000000" stroke-width="2" stroke-linecap="round" stroke-linejoin="round" d="M18.7215,44.9407 c1.308,0.6976,2.8776,0.6976,4.1857,0"/>
  </g>
</svg>
