<svg id="emoji" xmlns="http://www.w3.org/2000/svg" viewBox="0 0 72 72">
  <g id="line">
    <g>
      <path d="M21.1023,39.5976q-.2556-.0785-.5057-.1771C17.255,38.104,14.72,34.1592,14.72,29.53" fill="none" stroke="#000" stroke-miterlimit="10" stroke-width="2"/>
      <path d="M31.089,29.5727a11.5975,11.5975,0,0,1-2.9372,7.96q-.2616.2759-.5412.5237l-.6088.4888" fill="none" stroke="#000" stroke-miterlimit="10" stroke-width="2"/>
      <path d="M12.8407,24.7588c.5981-7.9646,6.7385-8.05,9.826-7.5647a8.2942,8.2942,0,0,0,1.4037,0c5.6148-.6877,8.4223,5.5015,8.4223,8.2524,0,.973,0,3.4384-1.4037,4.8138,0,0-3.2145-3.8124-3.3619-6.0324,0,0-10.6752,3.9692-11.3771.5308,0,0-2.4,1.7757-1.43,6.52A14.0688,14.0688,0,0,1,12.8407,24.7588Z" fill="none" stroke="#000" stroke-linecap="round" stroke-linejoin="round" stroke-width="2"/>
      <path d="M26.5767,30.1726a1.3014,1.3014,0,1,1-1.3011-1.2749,1.2882,1.2882,0,0,1,1.3011,1.2749"/>
      <path d="M21.7666,30.2226a1.3014,1.3014,0,1,1-1.3011-1.2748,1.2882,1.2882,0,0,1,1.3011,1.2748"/>
      <path d="M21.116,35.4815a4.2233,4.2233,0,0,0,3.9035,0" fill="none" stroke="#000" stroke-linecap="round" stroke-linejoin="round" stroke-width="1.6"/>
    </g>
    <path d="M57.3268,39.5062a7.7526,7.7526,0,0,0,.6881-7.407c-1.6072-3.789-2.0328-3.77-2.2915-8.5682A5.4341,5.4341,0,0,0,50.7751,18.16a7.236,7.236,0,0,0-5.346-2.0047c-4.2982,0-8.1726,2.3162-9.161,5.9916-1.0023,3.7308.23,5.2351-.8627,8.0417-.4653,1.1957-1.0585,2.35-1.47,3.5405" fill="none" stroke="#000" stroke-linecap="round" stroke-linejoin="round" stroke-width="2"/>
    <path d="M49.7716,29.399a1.2389,1.2389,0,1,0-1.2388,1.2388,1.2388,1.2388,0,0,0,1.2388-1.2388"/>
    <path d="M44.8162,29.399a1.2388,1.2388,0,1,0-1.2388,1.2388,1.2387,1.2387,0,0,0,1.2388-1.2388"/>
    <path d="M47.9133,34.5091a3.9489,3.9489,0,0,1-3.7165,0" fill="none" stroke="#000" stroke-linecap="round" stroke-linejoin="round" stroke-width="1.6"/>
    <path d="M11.67,60.24V48.31c0-3.13,3.5323-5.6964,6.7123-5.6964" fill="none" stroke="#000" stroke-linecap="round" stroke-linejoin="round" stroke-width="2"/>
    <path d="M54.57,42.7c2.92.29,5.67,2.68,5.67,5.61V60.24" fill="none" stroke="#000" stroke-linecap="round" stroke-linejoin="round" stroke-width="2"/>
    <g>
      <g>
        <path d="M32.6716,46.1579q.0117.2115.0118.4261a6.7762,6.7762,0,0,1-6.4886,7.031,6.7761,6.7761,0,0,1-6.4885-7.031q0-.1428.0052-.2841" fill="none" stroke="#000" stroke-miterlimit="10" stroke-width="1.6"/>
        <path d="M29.0471,47.0269a.9415.9415,0,1,1-.9387-.8689.9058.9058,0,0,1,.9387.8689Z"/>
        <path d="M25.2923,47.0269a.9415.9415,0,1,1-.9387-.8689.9058.9058,0,0,1,.9387.8689Z"/>
        <path d="M24.823,50.41a2.2231,2.2231,0,0,0,2.816,0" fill="none" stroke="#000" stroke-linecap="round" stroke-linejoin="round" stroke-width="1.6"/>
        <path d="M23.7578,43.1612c.4694,3.3631,4.487-.8706,4.487-.8706.5491,1.5737,4.4254,3.8674,4.4254,3.8674,1.0324-.9557.5259-2.8525.3721-3.5136A5.1207,5.1207,0,0,0,27.2344,38.53a6.4443,6.4443,0,0,1-1.0324,0c-2.2709-.3369-6.03-.1483-7.12,4.6433-.5317,2.3382.624,2.9844.624,2.9844S23.47,41.0989,23.7578,43.1612Z" fill="none" stroke="#000" stroke-linecap="round" stroke-linejoin="round" stroke-width="1.6"/>
      </g>
      <path d="M16.4246,60.2957V59.352c0-2.253,2.5843-4.06,5.1613-4.06a7.2231,7.2231,0,0,0,9.29,0c2.5775,0,5.1613,1.8073,5.1613,4.06v.9437" fill="none" stroke="#000" stroke-linecap="round" stroke-linejoin="round" stroke-width="1.6"/>
    </g>
    <g>
      <path d="M51.2577,51.9492l2.6792.08.3912.008S52.0147,52.657,51.2577,51.9492Z" fill="#fff"/>
      <path d="M51.1131,55.33a7.8071,7.8071,0,0,0,2.8238,1.2965,3.7364,3.7364,0,0,0,.3912.0715Z" fill="#fff"/>
      <path d="M54.3281,58.4633l-.3912-.1273" fill="none"/>
      <path d="M51.0353,50.3291a9.664,9.664,0,0,1-2.05,3.15,5.8538,5.8538,0,0,1-2.1688,1.1692l-.2552.0716a5.9494,5.9494,0,0,1-1.31.1511A5.585,5.585,0,0,1,44.35,54.8c-.136-.0239-.2636-.0477-.3912-.0795A5.8144,5.8144,0,0,1,41.28,53.2727a9.5225,9.5225,0,0,1-1.7591-2.7806" fill="none" stroke="#000" stroke-miterlimit="10" stroke-width="1.6"/>
      <path d="M48.0331,47.6241a.8928.8928,0,1,1-.8907-.833.8633.8633,0,0,1,.8907.833Z"/>
      <path d="M44.47,47.6241a.8928.8928,0,1,1-.8907-.833.8633.8633,0,0,1,.8907.833Z"/>
      <path d="M44.0247,50.8669a2.0934,2.0934,0,0,0,2.6723,0" fill="none" stroke="#000" stroke-linecap="round" stroke-linejoin="round" stroke-width="1.6"/>
      <path d="M54.6647,60.3436v-.9067c0-2.02-2.1518-3.6746-4.44-3.8655a4.4435,4.4435,0,0,0-.4593-.0239,2.2484,2.2484,0,0,1-.2466.1671,7.6994,7.6994,0,0,1-2.8663,1.3123.0123.0123,0,0,1-.017,0,5.7524,5.7524,0,0,1-2.2114.0636,3.7411,3.7411,0,0,1-.3912-.0715A7.806,7.806,0,0,1,41.21,55.7225c-.0851-.0557-.17-.1113-.2552-.175a4.4435,4.4435,0,0,0-.4593.0239c-2.2879.1909-4.44,1.8452-4.44,3.8655v.9067" fill="none" stroke="#000" stroke-linecap="round" stroke-linejoin="round" stroke-width="1.6"/>
      <path d="M41.4155,39.2481c-1.7214.6142-3.4149,2.2239-3.7034,6.1507a18.0621,18.0621,0,0,0-.0186,2.2611,7.1977,7.1977,0,0,1-2.15,3.1358A4.1881,4.1881,0,0,0,39.35,52.2566a9.605,9.605,0,0,1,.67-3.6941,10.7778,10.7778,0,0,1,.9305-2.1216,8.4346,8.4346,0,0,1,4.3175-3.815,8.3087,8.3087,0,0,1,4.0105,3.2288,11.0091,11.0091,0,0,1,1.2375,2.7078c.2047.6792.3536,1.2468.4467,1.7121a6.0838,6.0838,0,0,1,.2233,1.982,3.5974,3.5974,0,0,0,1.2562.0279h.0186a3.5148,3.5148,0,0,0,.884-.27,4.6627,4.6627,0,0,0,1.6469-1.2189A7.1981,7.1981,0,0,1,52.8421,47.66a14.1026,14.1026,0,0,0-.0558-3.5359c-.53-3.4057-2.531-4.606-4.3176-4.9689a7.75,7.75,0,0,0-3.1079.0186,7.212,7.212,0,0,0-1.9168-.2512,6.3065,6.3065,0,0,0-2.0285.3256" fill="none" stroke="#000" stroke-linecap="round" stroke-linejoin="round" stroke-width="1.6"/>
    </g>
    <path d="M38.9425,29.4267v-.6682c0-1.3366,8.019-4.6778,10.6919-7.3508,2.673,2.6731,4.0095,4.6778,4.0095,8.019,0,5.3461-3.3412,9.3555-7.3508,9.3555s-7.3507-4.01-7.3507-9.3555Z" fill="none" stroke="#000" stroke-miterlimit="10" stroke-width="2"/>
    <line x1="53.1413" y1="43.5729" x2="54.2522" y2="42.771" fill="none" stroke="#000" stroke-linecap="round" stroke-linejoin="round" stroke-width="2"/>
  </g>
</svg>
