<svg id="emoji" xmlns="http://www.w3.org/2000/svg" viewBox="0 0 72 72">
  <g id="line">
    <path d="M37.477,47.2081q.0117.2113.0118.426A6.7762,6.7762,0,0,1,31,54.6652a6.7762,6.7762,0,0,1-6.4885-7.0311q0-.1428.0052-.2841" fill="none" stroke="#000" stroke-miterlimit="10" stroke-width="1.6"/>
    <path d="M33.8525,48.0771a.9415.9415,0,1,1-.9387-.869.9058.9058,0,0,1,.9387.869"/>
    <path d="M30.0977,48.0771a.9415.9415,0,1,1-.9387-.869.9058.9058,0,0,1,.9387.869"/>
    <path d="M29.6284,51.46a2.2231,2.2231,0,0,0,2.816,0" fill="none" stroke="#000" stroke-linecap="round" stroke-linejoin="round" stroke-width="1.6"/>
    <path d="M28.5633,44.2114c.4693,3.3631,4.4869-.8707,4.4869-.8707.5491,1.5737,4.4254,3.8674,4.4254,3.8674,1.0324-.9557.5259-2.8525.3721-3.5135A5.1206,5.1206,0,0,0,32.04,39.58a6.4443,6.4443,0,0,1-1.0324,0c-2.2709-.3368-6.03-.1483-7.12,4.6434-.5317,2.3382.624,2.9843.624,2.9843S28.2755,42.1491,28.5633,44.2114Z" fill="none" stroke="#000" stroke-linecap="round" stroke-linejoin="round" stroke-width="1.6"/>
    <path d="M21.2591,60.7934V59.85c0-2.253,2.5843-4.06,5.1613-4.06a7.2231,7.2231,0,0,0,9.29,0c2.5775,0,5.1612,1.8073,5.1612,4.06v.9437" fill="none" stroke="#000" stroke-linecap="round" stroke-linejoin="round" stroke-width="1.6"/>
    <path d="M11.3487,60.6535v-12.76c0-3.3491,3.3572-6.0357,6.7064-6.0357a9.42,9.42,0,0,0,5.5719,2.4058" fill="none" stroke="#000" stroke-linecap="round" stroke-linejoin="round" stroke-width="2"/>
    <g>
      <path d="M12.4772,39.4117a7.7523,7.7523,0,0,1-.688-7.407c1.6071-3.789,2.0328-3.77,2.2914-8.5682a5.4342,5.4342,0,0,1,4.9484-5.3708,7.2356,7.2356,0,0,1,5.3459-2.0047c4.2982,0,8.1727,2.3162,9.161,5.9916,1.0024,3.7308-.23,5.2351.8627,8.0417.4654,1.1957,1.0586,2.35,1.47,3.54" fill="none" stroke="#000" stroke-linecap="round" stroke-linejoin="round" stroke-width="2"/>
      <path d="M31.0573,29.426v-.6682c0-1.3366-8.019-4.6778-10.6919-7.3508-2.673,2.6731-4.01,4.6778-4.01,8.019,0,5.3461,3.3412,9.3555,7.3508,9.3555s7.3507-4.01,7.3507-9.3555Z" fill="none" stroke="#000" stroke-miterlimit="10" stroke-width="1.6"/>
      <path d="M20.0325,29.3045a1.2388,1.2388,0,1,1,1.2388,1.2388,1.2388,1.2388,0,0,1-1.2388-1.2388"/>
      <path d="M24.9878,29.3045a1.2389,1.2389,0,1,1,1.2388,1.2388,1.2387,1.2387,0,0,1-1.2388-1.2388"/>
      <path d="M21.8907,34.4146a3.9489,3.9489,0,0,0,3.7165,0" fill="none" stroke="#000" stroke-linecap="round" stroke-linejoin="round" stroke-width="1.6"/>
    </g>
    <g>
      <g>
        <path d="M44.1455,46.8205q-.0117.2115-.0117.4261a6.7761,6.7761,0,0,0,6.4885,7.031,6.7762,6.7762,0,0,0,6.4886-7.031q0-.1428-.0052-.2841" fill="none" stroke="#000" stroke-miterlimit="10" stroke-width="1.6"/>
        <path d="M47.77,47.69a.9414.9414,0,1,0,.9386-.869.9057.9057,0,0,0-.9386.869Z"/>
        <path d="M51.5249,47.69a.9414.9414,0,1,0,.9386-.869.9057.9057,0,0,0-.9386.869Z"/>
        <path d="M51.9942,51.0724a2.2232,2.2232,0,0,1-2.8161,0" fill="none" stroke="#000" stroke-linecap="round" stroke-linejoin="round" stroke-width="1.6"/>
        <path d="M53.0593,43.8239c-.4694,3.363-4.487-.8707-4.487-.8707-.549,1.5737-4.4254,3.8674-4.4254,3.8674-1.0324-.9557-.5259-2.8525-.3721-3.5135a5.1207,5.1207,0,0,1,5.8079-4.1142,6.4443,6.4443,0,0,0,1.0324,0c2.271-.3368,6.03-.1483,7.12,4.6433.5317,2.3382-.624,2.9844-.624,2.9844S53.3471,41.7616,53.0593,43.8239Z" fill="none" stroke="#000" stroke-linecap="round" stroke-linejoin="round" stroke-width="1.6"/>
      </g>
      <path d="M60.3925,60.9583v-.9437c0-2.253-2.5842-4.06-5.1612-4.06a7.223,7.223,0,0,1-9.29,0c-2.5775,0-5.1612,1.8073-5.1612,4.06v.9437" fill="none" stroke="#000" stroke-linecap="round" stroke-linejoin="round" stroke-width="1.6"/>
    </g>
  </g>
</svg>
