<?xml version="1.0" encoding="utf-8"?>
<!-- Generator: Adobe Illustrator 21.1.0, SVG Export Plug-In . SVG Version: 6.00 Build 0)  -->
<svg version="1.1" id="emoji" xmlns="http://www.w3.org/2000/svg" xmlns:xlink="http://www.w3.org/1999/xlink" x="0px" y="0px"
	 viewBox="0 0 72 72" enable-background="new 0 0 72 72" xml:space="preserve">
<g id="_xD83D__xDC69_">
	<path fill="none" stroke="#040404" stroke-width="2" stroke-linecap="round" stroke-linejoin="round" d="M18.6,46.6
		c-3.7-5.9-0.6-10.1,1.2-14.7c1.6-4.2-0.2-6.5,1.3-12c1.5-5.5,7.3-9,13.7-9c5.4,0,8,3,8,3c4.2,0.4,7.4,3.9,7.4,8
		c0.4,7.2,1,7.2,3.4,12.8c1.7,3.9,1.1,8.3-1.4,11.7"/>
	<path fill="none" stroke="#040404" stroke-width="2" stroke-linecap="round" stroke-linejoin="round" d="M16.8,59.9v-3
		c0-5,5-9,10-9c6,5,12,5,18,0c5,0,10,4,10,9v3"/>
	<path fill="#040404" d="M41.8,29.9c0,1.1-0.9,2-2,2c-1.1,0-2-0.9-2-2c0-1.1,0.9-2,2-2C40.9,27.9,41.8,28.8,41.8,29.9"/>
	<path fill="#040404" d="M33.8,29.9c0,1.1-0.9,2-2,2c-1.1,0-2-0.9-2-2c0-1.1,0.9-2,2-2C32.9,27.9,33.8,28.8,33.8,29.9"/>
	<path fill="none" stroke="#040404" stroke-width="2" stroke-linejoin="round" d="M24.8,30.9c0,8,5,14,11,14s11-6,11-14
		c0-5-2-8-6-12c-4,4-16,9-16,11V30.9z"/>
	<path fill="none" stroke="#040404" stroke-width="2" stroke-linecap="round" stroke-linejoin="round" d="M32.8,38.1
		c1.9,1,4.1,1,6,0"/>
</g>
</svg>
