<?xml version="1.0" encoding="utf-8"?>
<!-- Generator: Adobe Illustrator 21.1.0, SVG Export Plug-In . SVG Version: 6.00 Build 0)  -->
<svg version="1.1" id="emoji" xmlns="http://www.w3.org/2000/svg" xmlns:xlink="http://www.w3.org/1999/xlink" x="0px" y="0px"
	 viewBox="0 0 72 72" enable-background="new 0 0 72 72" xml:space="preserve">
<g id="_xD83D__xDC68__x200D__xD83D__xDE80_">
	<g>
		<path fill="none" stroke="#1D1D1B" stroke-width="2" stroke-linecap="round" stroke-linejoin="round" stroke-miterlimit="10" d="
			M35.7,11.7"/>
	</g>
	<g>
		<path d="M34.8,58.7c0-0.2,0.1-0.3,0.1-0.5c0-1.1-0.9-2-2-2h0c-1.1,0-2,0.9-2,2c0,0.2,0,0.3,0.1,0.5"/>
	</g>
	<g>
		<path d="M41.5,58.7c0-0.2,0.1-0.3,0.1-0.5c0-1.1-0.9-2-2-2h0c-1.1,0-2,0.9-2,2c0,0.2,0,0.3,0.1,0.5"/>
	</g>
	<g>
		<path d="M54.7,58.8c-0.1,0-0.1,0-0.2,0c-0.5-0.1-0.9-0.6-0.8-1.1c0-0.1,0.8-5.7-2.1-9.2c-1.5-1.7-3.7-2.6-6.6-2.7
			c-3.3,2.2-6,3.5-9.1,3.6c0,0,0,0-0.1,0c0,0,0,0,0,0h0c0,0,0,0,0,0c0,0,0,0,0,0c-3.1,0-5.8-1.4-9.1-3.6c-2.9,0.1-5.1,1-6.6,2.7
			c-3,3.4-2.1,9.1-2.1,9.2c0.1,0.5-0.3,1.1-0.8,1.1c-0.5,0.1-1.1-0.3-1.1-0.8c0-0.3-1-6.6,2.6-10.8c1.9-2.2,4.8-3.4,8.4-3.4
			c0.2,0,0.4,0.1,0.6,0.2c3.2,2.1,5.7,3.4,8.4,3.4c2.7,0,5.2-1.3,8.4-3.4c0.2-0.1,0.4-0.2,0.6-0.2c3.7,0,6.5,1.1,8.4,3.4
			c3.6,4.1,2.6,10.5,2.6,10.8C55.7,58.5,55.2,58.8,54.7,58.8z"/>
	</g>
	<g>
		<path d="M47.8,29.1c-0.4,0-0.7-0.2-0.9-0.5c-0.2-0.3-0.4-0.7-0.6-1c-1.1-1.5-2.7-2.6-4.4-3.1c-2.1-0.6-3.9-0.9-5.9-0.8
			c-2-0.1-3.9,0.2-6,0.8c-2.2,0.6-4,2.1-5.1,4.1C24.6,29,24,29.2,23.5,29c-0.5-0.3-0.7-0.9-0.4-1.4c1.3-2.4,3.6-4.3,6.3-5.1
			c2.2-0.7,4.4-0.9,6.5-0.9c2.1-0.1,4.2,0.2,6.5,0.9c2.2,0.6,4.1,2,5.5,3.8c0.3,0.4,0.6,0.8,0.8,1.2c0.3,0.5,0.1,1.1-0.4,1.4
			C48.1,29,48,29.1,47.8,29.1z"/>
	</g>
	<g>
		<path d="M53.9,31.2c-0.6,0-1-0.4-1-1v-4.8c0-0.6,0.4-1,1-1c0.6,0,1,0.4,1,1v4.8C54.9,30.8,54.4,31.2,53.9,31.2z"/>
	</g>
	<g>
		<path d="M17.8,31.2c-0.6,0-1-0.4-1-1v-4.8c0-0.6,0.4-1,1-1c0.6,0,1,0.4,1,1v4.8C18.8,30.8,18.3,31.2,17.8,31.2z"/>
	</g>
	<g>
		<path d="M43.8,58.8c-0.6,0-1-0.4-1-1V54H29.6v3.8c0,0.6-0.4,1-1,1c-0.6,0-1-0.4-1-1V53c0-0.6,0.4-1,1-1h15.3c0.6,0,1,0.4,1,1v4.8
			C44.8,58.3,44.4,58.8,43.8,58.8z"/>
	</g>
	<g>
		<path d="M41.9,27c0,1.1-0.9,2-2,2s-2-0.9-2-2c0-1.1,0.9-2,2-2S41.9,25.9,41.9,27"/>
	</g>
	<g>
		<path d="M33.9,27c0,1.1-0.9,2-2,2c-1.1,0-2-0.9-2-2c0-1.1,0.9-2,2-2C33,25,33.9,25.9,33.9,27"/>
	</g>
	<g>
		<path d="M35.9,37c-1.2,0-2.3-0.3-3.4-0.9c-0.5-0.2-0.7-0.8-0.4-1.3c0.2-0.5,0.8-0.7,1.3-0.4c1.7,0.9,3.4,0.9,5.1,0
			c0.5-0.2,1.1,0,1.3,0.4c0.2,0.5,0,1.1-0.4,1.3C38.2,36.7,37.1,37,35.9,37z"/>
	</g>
	<g>
		<path d="M47.2,34.6l-1.9-0.7c0.6-1.8,1-3.6,1-5.6c0-0.4,0-0.7,0-1.1l2-0.1c0,0.4,0,0.8,0,1.2C48.3,30.5,47.9,32.6,47.2,34.6z"/>
	</g>
	<g>
		<path d="M35.9,43.5c-6.8,0-12.3-6.8-12.3-15.2c0-0.4,0-0.9,0-1.3l2,0.1c0,0.4,0,0.8,0,1.2c0,7.3,4.6,13.2,10.3,13.2V43.5z"/>
	</g>
	<g>
		<path d="M36.6,40.3c-0.6,0-1-0.4-1-1c0-0.6,0.4-1,1-1c0.1,0,6.5-0.1,8.7-4.6c0.2-0.5,0.8-0.7,1.3-0.5c0.5,0.2,0.7,0.8,0.5,1.3
			C44.2,40.3,36.9,40.3,36.6,40.3L36.6,40.3z"/>
	</g>
	<g>
		<path d="M35.9,43.5c-7.4,0-13.8-5-15.5-12.2c-0.3-1.2-0.5-2.5-0.5-3.8c0-8.8,7.2-16,16-16c8.8,0,16,7.2,16,16
			c0,1.3-0.2,2.6-0.5,3.8C49.7,38.5,43.3,43.5,35.9,43.5z M35.9,13.5c-7.7,0-14,6.3-14,14c0,1.1,0.1,2.2,0.4,3.3
			c1.5,6.3,7.1,10.7,13.6,10.7c6.5,0,12.1-4.4,13.6-10.7c0.3-1.1,0.4-2.2,0.4-3.3C49.9,19.8,43.6,13.5,35.9,13.5z"/>
	</g>
</g>
</svg>
