<svg id="emoji" xmlns="http://www.w3.org/2000/svg" viewBox="0 0 72 72">
  <g id="line">
    <path d="M43.3319,46.3084q.0122.22.0123.4436a7.0544,7.0544,0,0,1-6.755,7.32,7.0544,7.0544,0,0,1-6.7549-7.32q0-.1486.0054-.2958" fill="none" stroke="#000" stroke-miterlimit="10" stroke-width="1.6"/>
    <path d="M39.5586,47.2131a.98.98,0,1,1-.9773-.9046.9431.9431,0,0,1,.9773.9046"/>
    <path d="M35.65,47.2131a.98.98,0,1,1-.9772-.9046.943.943,0,0,1,.9772.9046"/>
    <path d="M35.161,50.7348a2.3143,2.3143,0,0,0,2.9317,0" fill="none" stroke="#000" stroke-linecap="round" stroke-linejoin="round" stroke-width="1.6"/>
    <path d="M34.0522,43.1887c.4886,3.5012,4.6711-.9064,4.6711-.9064.5717,1.6383,4.6071,4.0262,4.6071,4.0262,1.0749-.995.5476-2.97.3874-3.6578a5.3309,5.3309,0,0,0-6.0463-4.2831,6.6936,6.6936,0,0,1-1.0748,0c-2.3642-.3506-6.2779-.1544-7.4121,4.834-.5536,2.4342.65,3.1069.65,3.1069S33.7525,41.0417,34.0522,43.1887Z" fill="none" stroke="#000" stroke-linecap="round" stroke-linejoin="round" stroke-width="1.6"/>
    <path d="M26.38,60.6073v-.9824c0-2.3455,2.69-4.227,5.3731-4.227a7.52,7.52,0,0,0,9.6717,0c2.6833,0,5.3731,1.8815,5.3731,4.227v.9824" fill="none" stroke="#000" stroke-linecap="round" stroke-linejoin="round" stroke-width="1.6"/>
    <path d="M11.3487,60.6535v-12.76c0-3.3491,3.3572-6.0357,6.7064-6.0357a9.1023,9.1023,0,0,0,9.1492,1.9066l1.6934-.7849" fill="none" stroke="#000" stroke-linecap="round" stroke-linejoin="round" stroke-width="2"/>
    <g>
      <path d="M12.4772,39.4117a7.7523,7.7523,0,0,1-.688-7.407c1.6071-3.789,2.0328-3.77,2.2914-8.5682a5.4342,5.4342,0,0,1,4.9484-5.3708,7.2356,7.2356,0,0,1,5.3459-2.0047c4.2982,0,8.1727,2.3162,9.161,5.9916,1.0024,3.7308-.23,5.2351.8627,8.0417.4654,1.1957,1.0586,2.35,1.47,3.54" fill="none" stroke="#000" stroke-linecap="round" stroke-linejoin="round" stroke-width="2"/>
      <path d="M31.0573,29.426v-.6682c0-1.3366-8.019-4.6778-10.6919-7.3508-2.673,2.6731-4.01,4.6778-4.01,8.019,0,5.3461,3.3412,9.3555,7.3508,9.3555s7.3507-4.01,7.3507-9.3555Z" fill="none" stroke="#000" stroke-miterlimit="10" stroke-width="1.6"/>
      <path d="M20.0325,29.3045a1.2388,1.2388,0,1,1,1.2388,1.2388,1.2388,1.2388,0,0,1-1.2388-1.2388"/>
      <path d="M24.9878,29.3045a1.2389,1.2389,0,1,1,1.2388,1.2388,1.2387,1.2387,0,0,1-1.2388-1.2388"/>
      <path d="M21.8907,34.4146a3.9489,3.9489,0,0,0,3.7165,0" fill="none" stroke="#000" stroke-linecap="round" stroke-linejoin="round" stroke-width="1.6"/>
    </g>
  </g>
</svg>
