<?xml version="1.0" encoding="utf-8"?>
<!-- Generator: Adobe Illustrator 21.1.0, SVG Export Plug-In . SVG Version: 6.00 Build 0)  -->
<svg version="1.1" id="emoji" xmlns="http://www.w3.org/2000/svg" xmlns:xlink="http://www.w3.org/1999/xlink" x="0px" y="0px"
	 viewBox="0 0 72 72" enable-background="new 0 0 72 72" xml:space="preserve">
<g id="_xD83D__xDC69__x200D__xD83D__xDE92_">
	<g>
		<path d="M41.9,26.9c0,1.1-0.9,2-2,2s-2-0.9-2-2c0-1.1,0.9-2,2-2S41.9,25.8,41.9,26.9"/>
	</g>
	<g>
		<path d="M33.9,26.9c0,1.1-0.9,2-2,2c-1.1,0-2-0.9-2-2c0-1.1,0.9-2,2-2C33,24.9,33.9,25.8,33.9,26.9"/>
	</g>
	<g>
		<path d="M35.9,36.9c-1.2,0-2.3-0.3-3.4-0.9c-0.5-0.2-0.7-0.8-0.4-1.3c0.2-0.5,0.8-0.7,1.3-0.4c1.7,0.9,3.4,0.9,5.1,0
			c0.5-0.2,1.1,0,1.3,0.4c0.2,0.5,0,1.1-0.4,1.3C38.2,36.6,37,36.9,35.9,36.9z"/>
	</g>
	<g>
		<path d="M35.9,43.4c-6.8,0-12.3-6.8-12.3-15.2c0-0.9,0.1-1.9,0.2-2.8l2,0.3c-0.1,0.8-0.2,1.6-0.2,2.5c0,7.3,4.6,13.2,10.3,13.2
			c5.7,0,10.3-5.9,10.3-13.2c0-1.1-0.1-2.1-0.3-3.2l2-0.4c0.2,1.2,0.3,2.4,0.3,3.6C48.2,36.6,42.7,43.4,35.9,43.4z"/>
	</g>
	<g>
		<path fill="#1D1D1B" d="M36.1,19.9c-1.9,0-3.7-0.5-5.1-1.3c-0.3-0.2-0.5-0.5-0.5-0.9v-4.7c0-0.2,0.1-0.4,0.2-0.6l4.1-5.2
			C35,7,35.3,6.8,35.6,6.8c0.3,0,0.6,0.1,0.8,0.4l4.5,5.3c0.2,0.2,0.2,0.4,0.2,0.6v4.6c0,0.3-0.2,0.6-0.4,0.8
			C39.3,19.5,37.7,19.9,36.1,19.9z M32.5,17.1c2,0.9,4.7,1.1,6.6,0.1v-3.7l-3.5-4.1l-3.1,4V17.1z"/>
	</g>
	<g>
		<path d="M36.2,19.9c-1.9,0-3.7-0.5-5.1-1.3c-0.3-0.2-0.5-0.5-0.5-0.9v-4.7c0-0.2,0.1-0.4,0.2-0.6l4.1-5.2c0.2-0.2,0.5-0.4,0.8-0.4
			c0.3,0,0.6,0.1,0.8,0.4l4.5,5.3c0.2,0.2,0.2,0.4,0.2,0.6v4.6c0,0.3-0.2,0.6-0.4,0.8C39.4,19.5,37.8,19.9,36.2,19.9z M32.6,17.1
			c2,0.9,4.7,1.1,6.6,0.1v-3.7l-3.5-4.1l-3.1,4V17.1z"/>
	</g>
	<g>
		<path d="M23.9,20.6C23.9,20.6,23.9,20.6,23.9,20.6c-0.6,0-1-0.5-1-1C23,11.3,27.3,6.8,35.4,6.7c0,0,0.1,0,0.1,0h0.4
			c0,0,0.1,0,0.1,0c8.1,0.2,12.4,4.6,12.5,12.9c0,0.6-0.4,1-1,1c0,0,0,0,0,0c-0.5,0-1-0.4-1-1c-0.1-7.3-3.6-10.9-10.8-11
			c-7.2,0.1-10.7,3.7-10.8,11C24.9,20.2,24.5,20.6,23.9,20.6z"/>
	</g>
	<g>
		<path d="M47,27.2c-1.5,0-3.5-1.6-5.5-3.3c-0.4-0.3-0.8-0.7-1.2-1c-0.4-0.3-0.5-1-0.1-1.4c0.3-0.4,1-0.5,1.4-0.1
			c0.4,0.3,0.8,0.7,1.2,1c1,0.9,2.8,2.4,3.8,2.7c-0.1-1.5-0.8-3.4-1.1-3.9c-0.3-0.5-0.1-1.1,0.4-1.4c0.5-0.3,1.1-0.1,1.4,0.4
			c0.4,0.8,1.6,3.7,1.4,5.9c0,0.3-0.2,0.5-0.4,0.7C47.8,27,47.4,27.2,47,27.2z M47.6,26L47.6,26L47.6,26z"/>
	</g>
	<g>
		<path d="M50.6,29.3c-0.3,0-0.6-0.1-0.8-0.4c-0.3-0.4-0.2-1.1,0.2-1.4c1.3-1,2-1.9,2-2.8c0-1.3-1.3-2.3-1.3-2.3
			c-0.9-0.7-2.4-1-4.2-0.9c-1.7,0.1-3.4,0.6-4.9,1.5c-1.7,1-3.6,1.5-5.6,1.5c-2,0-3.9-0.6-5.6-1.5c-1.5-0.9-3.2-1.4-4.9-1.5
			c-1.8-0.1-3.3,0.2-4.2,0.8c-0.1,0.1-1.8,1.4-1.3,3c0.2,0.5-0.1,1.1-0.6,1.3c-0.5,0.2-1.1-0.1-1.3-0.6c-1-3,1.9-5.1,2-5.2
			c1.6-1.2,3.9-1.4,5.5-1.2c2,0.1,4,0.7,5.8,1.8c1.4,0.8,3,1.2,4.6,1.3c1.6,0,3.2-0.5,4.6-1.3c1.8-1,3.8-1.6,5.8-1.8
			c1.7-0.1,4,0,5.5,1.3c0.1,0,2.1,1.6,2.1,3.9c0,1.6-0.9,3.1-2.8,4.5C51,29.3,50.8,29.3,50.6,29.3z"/>
	</g>
	<g>
		<path d="M24.8,26.6c-0.5,0-0.9-0.4-1-0.9c-0.1-0.5,0.3-1,0.9-1.1c1.5-0.2,3.7-1.2,6.1-3c0.4-0.3,1.1-0.2,1.4,0.2
			c0.3,0.4,0.2,1.1-0.2,1.4c-2.8,2-5.2,3.2-7.1,3.4C24.9,26.6,24.8,26.6,24.8,26.6z"/>
	</g>
	<g>
		<path d="M17.6,41.9c-0.5,0-0.9-0.3-1-0.8c-2.1-10.1,4.2-13.9,6.7-14.9c-0.3-1.3-0.3-3.6,1.5-6.3c0.3-0.5,0.9-0.6,1.4-0.3
			c0.5,0.3,0.6,0.9,0.3,1.4c-2,3-1.1,5.2-1,5.3c0.1,0.3,0.1,0.6,0,0.8c-0.1,0.3-0.4,0.5-0.6,0.5c-0.3,0.1-8,2.3-6.4,12.1
			c1.4-0.2,3.6-0.7,4.7-2c0.4-0.4,1-0.5,1.4-0.1c0.4,0.4,0.5,1,0.1,1.4C22.5,41.7,17.9,41.9,17.6,41.9
			C17.7,41.9,17.6,41.9,17.6,41.9z"/>
	</g>
	<g>
		<path d="M16.9,58.9c-0.5,0-0.9-0.4-1-0.8c0-0.3-1-6.6,2.6-10.8c1.9-2.2,4.8-3.4,8.4-3.4c0.2,0,0.4,0.1,0.6,0.2
			c3.2,2.1,5.7,3.4,8.4,3.4c2.7,0,5.2-1.3,8.4-3.4c0.2-0.1,0.4-0.2,0.6-0.2c1.3,0,2.5,0.1,3.5,0.4c0.5,0.1,0.9,0.7,0.7,1.2
			c-0.1,0.5-0.7,0.9-1.2,0.7c-0.8-0.2-1.7-0.3-2.7-0.4c-3.3,2.2-6,3.5-9.1,3.6c0,0,0,0-0.1,0c0,0,0,0,0,0h0c0,0,0,0,0,0c0,0,0,0,0,0
			c-3.1,0-5.8-1.4-9.1-3.6c-2.9,0.1-5.1,1-6.6,2.7c-3,3.4-2.1,9.1-2.1,9.2c0.1,0.5-0.3,1.1-0.8,1.1C17,58.9,17,58.9,16.9,58.9z"/>
	</g>
	<g>
		<path d="M46.5,52.3c-0.6,0-1-0.4-1-1v-6.3c0-0.6,0.4-1,1-1c0.6,0,1,0.4,1,1v6.3C47.5,51.9,47,52.3,46.5,52.3z"/>
	</g>
	<g>
		<path d="M26.9,58.9h-1.8c-0.6,0-1-0.4-1-1V45c0-0.6,0.4-1,1-1c0.4,0,0.7,0.2,0.8,0.5c0.1-0.3,0.3-0.5,0.6-0.6
			c0.4-0.1,0.9,0,1.1,0.4l8.1,11.8l8.1-11.6c0.2-0.4,0.7-0.5,1.1-0.4c0.4,0.1,0.7,0.5,0.7,1v8.9c0,0.6-0.4,1-1,1c-0.6,0-1-0.4-1-1
			v-5.7l-7.1,10.2c-0.2,0.3-0.5,0.4-0.8,0.4c-0.3,0-0.6-0.2-0.8-0.4l-7.1-10.3v9.8C27.9,58.5,27.5,58.9,26.9,58.9z"/>
	</g>
	<g>
		<path d="M39.7,53.2H32c-0.6,0-1-0.4-1-1c0-0.6,0.4-1,1-1h7.7c0.6,0,1,0.4,1,1C40.7,52.8,40.3,53.2,39.7,53.2z"/>
	</g>
	<g>
		<g>
			<path d="M55.8,50.9c-0.3,0-0.6-0.1-0.8-0.4l-3-3.7c-0.2-0.2-0.3-0.5-0.2-0.7c0-0.3,0.2-0.5,0.4-0.7l1.6-1.3l-6-2.8
				c-0.5-0.2-0.7-0.8-0.5-1.3c0.2-0.5,0.8-0.7,1.3-0.5l7,3.3c1.4-0.8,5.8-3.3,7.5-4.9c0.2-0.2,0.5-0.3,0.7-0.3
				c0.3,0,0.5,0.1,0.7,0.4l1.4,1.7c0.2,0.2,0.3,0.5,0.2,0.7c0,0.3-0.2,0.5-0.4,0.7c-2.1,1.6-6.1,6.7-6.4,7.1c0,0-0.1,0.1-0.1,0.1
				l0,0l0,0c0,0,0,0,0,0l-2.8,2.3C56.3,50.8,56.1,50.9,55.8,50.9z M54.2,46.4l1.8,2.1l1.3-1.1l-1.8-2.1L54.2,46.4z M57.1,44.2
				l1.5,1.8c1.2-1.4,3.5-4.2,5.2-5.8L63.7,40C61.8,41.5,58.7,43.3,57.1,44.2z"/>
		</g>
		<g>
			<path d="M44,58.9c-0.5,0-0.9-0.4-1-0.8c-1.1-6.7,8.9-12.4,9.3-12.7c0.5-0.3,1.1-0.1,1.4,0.4c0.3,0.5,0.1,1.1-0.4,1.4
				c-0.1,0.1-9.2,5.3-8.3,10.6c0.1,0.5-0.3,1.1-0.8,1.1C44.1,58.9,44,58.9,44,58.9z"/>
		</g>
		<g>
			<path d="M49.2,58.9c-0.5,0-0.9-0.4-1-0.9c-0.4-3.5,5.8-8.1,7.1-9c0.5-0.3,1.1-0.2,1.4,0.2c0.3,0.5,0.2,1.1-0.2,1.4
				c-2.7,1.9-6.4,5.4-6.2,7.1c0.1,0.5-0.3,1-0.9,1.1C49.3,58.9,49.2,58.9,49.2,58.9z"/>
		</g>
		<g>
			<path fill="none" stroke="#000000" stroke-width="2" stroke-linecap="round" stroke-linejoin="round" stroke-miterlimit="10" d="
				M54.6,47.5"/>
		</g>
	</g>
	<g>
		<path d="M54.9,58.9c-0.1,0-0.1,0-0.2,0c-0.5-0.1-0.9-0.6-0.8-1.1c0,0,0.1-0.5,0.1-1.2l0-0.3c0-0.3,0-0.6,0-1l0-0.7
			c0-0.6,0.5-1,1-1c0.6,0,1,0.5,1,1l0,0.6c0,0.3,0,0.7,0,1l0,0.3c0,0.9-0.1,1.4-0.1,1.5C55.8,58.5,55.4,58.9,54.9,58.9z"/>
	</g>
</g>
</svg>
