<?xml version="1.0" encoding="utf-8"?>
<!-- Generator: Adobe Illustrator 21.1.0, SVG Export Plug-In . SVG Version: 6.00 Build 0)  -->
<svg version="1.1" id="Ebene_3" xmlns="http://www.w3.org/2000/svg" xmlns:xlink="http://www.w3.org/1999/xlink" x="0px" y="0px"
	 viewBox="0 0 72 72" enable-background="new 0 0 72 72" xml:space="preserve">
<g id="_xD83D__xDC61__1_">
	
		<polyline fill="none" stroke="#1D1D1B" stroke-width="2" stroke-linecap="round" stroke-linejoin="round" stroke-miterlimit="10" points="
		11.1,34.5 11.1,59 18.9,59 20.9,40.5 	"/>
	<path fill="none" stroke="#1D1D1B" stroke-width="2" stroke-linecap="round" stroke-linejoin="round" stroke-miterlimit="10" d="
		M59.4,53.2c2.8-0.4,5.5-1.1,8-2c0.7,6.5-0.6,8.3-4,9.7c-5.7,2.5-19.6,1.3-23.3-1.5c-4.6-3.4-2.6-4-10.3-14.7
		C23.5,36.2,11,30.8,11,30.8V25c0,0,20.7,6.7,25,17.8c0.8,2.1,2,3.9,3.5,5.3"/>
	
		<polyline fill="none" stroke="#1D1D1B" stroke-width="2" stroke-linecap="round" stroke-linejoin="round" stroke-miterlimit="10" points="
		41.6,56.8 45.2,36.7 58,39.3 55.4,59.3 	"/>
</g>
</svg>
