<svg id="emoji" viewBox="0 0 72 72" xmlns="http://www.w3.org/2000/svg">
  <g id="line">
    <path fill="none" stroke="#000000" stroke-linecap="round" stroke-linejoin="round" stroke-width="2" d="M17,59.9v-3c0-5,5-9,10-9 c6,5,12,5,18,0c5,0,10,4,10,9v3"/>
    <path d="M42,29.9c0,1.1-0.9,2-2,2s-2-0.9-2-2s0.9-2,2-2S42,28.8,42,29.9"/>
    <path d="M34,29.9c0,1.1-0.9,2-2,2c-1.1,0-2-0.9-2-2s0.9-2,2-2C33.1,27.9,34,28.8,34,29.9"/>
    <path fill="none" stroke="#000000" stroke-linecap="round" stroke-linejoin="round" stroke-width="2" d="M33,38.1c1.9,1,4.1,1,6,0"/>
    <path fill="none" stroke="#000000" stroke-linecap="round" stroke-linejoin="round" stroke-width="2" d="M28.8,41.5 c-2.5-2.9-3.8-6.7-3.7-10.5c0-1.6,0.3-3.1,0.8-4.6c2.2,0.3,3.4-0.3,4-0.9c0.8-0.7,1.4-1.6,2-2.4c1,0.4,2,0.6,3.1,0.6 c1-0.1,1.9-0.6,2.6-1.4c1.2,0.9,2.7,1.2,4.2,0.9c1.1-0.2,2-0.8,2.8-1.6c1.6,2.9,2.5,6.1,2.7,9.4c0,8-5.1,14-11.1,14 C33.3,45,30.6,43.7,28.8,41.5z"/>
    <path fill="none" stroke="#000000" stroke-linecap="round" stroke-linejoin="round" stroke-width="2" d="M19.9,46.9 c-0.1-1.7,0.3-3.3,1.2-4.8c-3.7-2.9-1.3-7.1-1.3-7.1c-2.1-1.6-2.4-4.6-0.8-6.6c0.1-0.1,0.2-0.2,0.2-0.3c-0.5-1.1-0.6-2.4-0.4-3.6 c0.3-1.1,0.8-2,1.6-2.8c-0.5-1.5-0.2-3.1,0.8-4.2c0.9-0.9,2.1-1.4,3.3-1.4c0.5-2,2.6-3.3,4.6-2.8c0.6,0.2,1.2,0.5,1.6,0.9 c1.7-2.3,4.9-2.8,7.2-1.1c0.2,0.2,0.4,0.3,0.6,0.5c1-1,2.4-1.4,3.8-1.2c1.5,0.3,2.8,1.3,3.5,2.8c2.1-0.5,4.2,0.8,4.7,2.9 c0.1,0.5,0.1,1,0,1.6c0,0,3.5,2.3,1.2,6.6c2.2,2,2.4,5.3,0.5,7.5c0,0,2.9,3.7-0.7,6.3c1.6,1.7,1.6,4.4-0.1,6 c-0.1,0.1-0.1,0.1-0.2,0.2l0.8,1.6"/>
  </g>
</svg>
