<svg id="emoji" xmlns="http://www.w3.org/2000/svg" viewBox="0 0 72 72">
  <g id="line">
    <polyline fill="none" stroke="#000000" stroke-width="2" stroke-linecap="round" stroke-linejoin="round" points="15.4997,42 15.4997,11 56.4997,11 56.4997,32.201"/>
    <path fill="none" stroke="#000000" stroke-width="2" stroke-linecap="round" stroke-miterlimit="10" d="M56.4178,43.8508 C55.3951,55.1267,45.4251,63.4387,34.1491,62.416C23.5881,61.4581,15.5006,52.6043,15.5002,42"/>
    <path fill="none" stroke="#000000" stroke-width="2" stroke-linecap="round" stroke-miterlimit="10" d="M43.8127,50.5414 c-5.0061-2.0554-10.6204-2.0554-15.6265,0"/>
    <path d="M33.63,28.9252c0,1.6569-1.3431,3-3,3c-1.6569,0-3-1.3431-3-3s1.3431-3,3-3l0,0 C32.2865,25.9259,33.6293,27.2686,33.63,28.9252"/>
    <path d="M45.63,28.9252c0,1.6569-1.3431,3-3,3s-3-1.3431-3-3s1.3431-3,3-3l0,0C44.2866,25.9258,45.6294,27.2686,45.63,28.9252"/>
    <line fill="none" stroke="#000000" stroke-width="2" stroke-linecap="round" stroke-linejoin="round" x1="25.3127" y1="17" x2="32.3127" y2="23"/>
    <line fill="none" stroke="#000000" stroke-width="2" stroke-linecap="round" stroke-linejoin="round" x1="47.3127" y1="17" x2="40.3127" y2="23"/>
    <line fill="none" stroke="#000000" stroke-width="2" stroke-linecap="round" stroke-linejoin="round" x1="55.3715" y1="35" x2="39.2539" y2="35"/>
    <line fill="none" stroke="#000000" stroke-width="2" stroke-linecap="round" stroke-linejoin="round" x1="60.3127" y1="35" x2="55.4303" y2="35"/>
    <path fill="none" stroke="#000000" stroke-width="2" stroke-linecap="round" stroke-linejoin="round" d="M56.5002,41h4.8125 c0,0,4,0,4-3c0.0345-1.6224-1.2527-2.9655-2.8751-3c-0.0416-0.0009-0.0833-0.0009-0.1249,0h-2"/>
    <line fill="none" stroke="#000000" stroke-width="2" stroke-linecap="round" stroke-linejoin="round" x1="36.3127" y1="41" x2="56.5002" y2="41"/>
    <path fill="none" stroke="#000000" stroke-width="2" stroke-linecap="round" stroke-linejoin="round" d="M36.3127,45c0,0,4-3,8,0 c0.7638,0.6155,1.6585,1.0478,2.6154,1.2638"/>
    <path fill="none" stroke="#000000" stroke-width="2" stroke-linecap="round" stroke-linejoin="round" d="M35.9281,45c0,0-4-3-8,0 c-0.7638,0.6155-1.6585,1.0478-2.6154,1.2638"/>
  </g>
</svg>
