<svg id="emoji" viewBox="0 0 72 72" xmlns="http://www.w3.org/2000/svg">
  <g id="line">
    <path d="M40.0984,25.2525a2,2,0,1,1-2,2A2.0059,2.0059,0,0,1,40.0984,25.2525Z"/>
    <path d="M39.9884,35.0625a.9935.9935,0,0,1-.45,1.34,7.33,7.33,0,0,1-6.89,0,1.0108,1.0108,0,0,1-.45-1.34.9935.9935,0,0,1,1.34-.45,5.383,5.383,0,0,0,5.11,0A.9935.9935,0,0,1,39.9884,35.0625Z"/>
    <path d="M32.0984,25.2525a2,2,0,1,1-2,2,2.0261,2.0261,0,0,1,.45-1.27A2.0009,2.0009,0,0,1,32.0984,25.2525Z"/>
    <path fill="none" stroke="#000" stroke-miterlimit="10" d="M26.0184,35.1225a18.5724,18.5724,0,0,1,6.73-3.72c3.8-1.09,8.67-.82,13.08,4.48"/>
    <path d="M40.0984,25.2525a2,2,0,1,1-2,2A2.0059,2.0059,0,0,1,40.0984,25.2525Z"/>
    <path d="M39.9884,35.0625a.9935.9935,0,0,1-.45,1.34,7.33,7.33,0,0,1-6.89,0,1.0108,1.0108,0,0,1-.45-1.34.9935.9935,0,0,1,1.34-.45,5.383,5.383,0,0,0,5.11,0A.9935.9935,0,0,1,39.9884,35.0625Z"/>
    <path d="M32.0984,25.2525a2,2,0,1,1-2,2,2.0261,2.0261,0,0,1,.45-1.27A2.0009,2.0009,0,0,1,32.0984,25.2525Z"/>
    <path fill="none" stroke="#000" stroke-linecap="round" stroke-linejoin="round" stroke-width="2" d="M24.8484,26.7725c-.06.61-.09,1.22-.09,1.84a16.973,16.973,0,0,0,1.26,6.51,17.5972,17.5972,0,0,0,9.52,9.15,1.45,1.45,0,0,0,1.12-.01,17.201,17.201,0,0,0,9.17-8.38,16.804,16.804,0,0,0,1.61-7.27,17.1416,17.1416,0,0,0-.09-1.76"/>
    <path fill="none" stroke="#000" stroke-linecap="round" stroke-linejoin="round" stroke-width="2" d="M44.9084,45.1125c12,0,10,13,10,13"/>
    <path fill="none" stroke="#000" stroke-linecap="round" stroke-linejoin="round" stroke-width="2" d="M41.4684,47.1825a35.3342,35.3342,0,0,0,3.33-2"/>
    <path fill="none" stroke="#000" stroke-linecap="round" stroke-linejoin="round" stroke-width="2" d="M17.0384,58.1125s-2-13,10-13c3.14,2.09,5.84,3.55,8.87,3.59h.13a12.2021,12.2021,0,0,0,5.42-1.51"/>
    <path fill="none" stroke="#000" stroke-linecap="round" stroke-linejoin="round" stroke-width="2" d="M36.1084,8.6925c0-.01-.01-.02-.01-.03a13.1031,13.1031,0,0,0-3.84.54c-15.84,4.84-7.5,17.63-7.5,17.63l.09-.06c.33-.22,1.59-1.07,3.17-2.35a39.4538,39.4538,0,0,0,4.08-3.79,18.72,18.72,0,0,0,4.07-6.24,9.0785,9.0785,0,0,0,.47-1.95A6.8919,6.8919,0,0,0,36.1084,8.6925Z"/>
    <path fill="none" stroke="#000" stroke-linecap="round" stroke-linejoin="round" stroke-width="2" d="M23.4084,22.9625a40.62,40.62,0,0,0,9.66-10.11"/>
    <path fill="none" stroke="#000" stroke-linecap="round" stroke-linejoin="round" stroke-width="2" d="M36.1684,8.6625a13.217,13.217,0,0,1,3.85.54c10.25,3.13,10.37,9.6,9.18,13.76a15.582,15.582,0,0,1-1.69,3.87s-.03-.02-.1-.07a46.092,46.092,0,0,1-6.98-6.13,21.3528,21.3528,0,0,1-4.13-6.19"/>
    <path fill="none" stroke="#000" stroke-linecap="round" stroke-linejoin="round" stroke-width="2" d="M48.8584,22.9625a49.7116,49.7116,0,0,1-9.3-10.11"/>
    <path fill="none" stroke="#000" stroke-linecap="round" stroke-linejoin="round" stroke-width="2" d="M32.0984,20.6325s4.59,3.57,8.33,0h.01"/>
    <path fill="none" stroke="#000" stroke-linecap="round" stroke-linejoin="round" stroke-width="2" d="M26.0184,35.1225a18.5724,18.5724,0,0,1,6.73-3.72c3.8-1.09,8.67-.82,13.08,4.48"/>
    <path fill="none" stroke="#000" stroke-linecap="round" stroke-linejoin="round" stroke-width="2" d="M44.9084,45.1125a.9322.9322,0,0,0-.11.07c-.37.21-1.64.96-3.33,2a.01.01,0,0,1-.01.01c-5.09,3.14-14.05,8.95-14.05,10.92"/>
  </g>
</svg>
