<?xml version="1.0" encoding="utf-8"?>
<!-- Generator: Adobe Illustrator 21.1.0, SVG Export Plug-In . SVG Version: 6.00 Build 0)  -->
<svg version="1.1" id="emoji" xmlns="http://www.w3.org/2000/svg" xmlns:xlink="http://www.w3.org/1999/xlink" x="0px" y="0px"
	 viewBox="0 0 72 72" enable-background="new 0 0 72 72" xml:space="preserve">
<g id="_xD83D__xDC77_">
	<g>
		<path d="M54.8,58.9c-0.1,0-0.1,0-0.2,0c-0.5-0.1-0.9-0.6-0.8-1.1c0-0.1,0.8-5.7-2.1-9.2c-1.5-1.7-3.7-2.6-6.6-2.7
			c-3.3,2.2-6,3.5-9.1,3.6c0,0,0,0-0.1,0c0,0,0,0,0,0h0c0,0,0,0,0,0c0,0,0,0,0,0c-3.1,0-5.8-1.4-9.1-3.6c-2.9,0.1-5.1,1-6.6,2.7
			c-3,3.4-2.1,9.1-2.1,9.2c0.1,0.5-0.3,1.1-0.8,1.1C16.5,59,16,58.6,15.9,58c0-0.3-1-6.6,2.6-10.8c1.9-2.2,4.8-3.4,8.4-3.4
			c0.2,0,0.4,0.1,0.6,0.2c3.2,2.1,5.7,3.4,8.4,3.4c2.7,0,5.2-1.3,8.4-3.4c0.2-0.1,0.4-0.2,0.6-0.2c3.7,0,6.5,1.1,8.4,3.4
			c3.6,4.1,2.6,10.5,2.6,10.8C55.7,58.5,55.3,58.9,54.8,58.9z"/>
	</g>
	<g>
		<path d="M33.8,58.9c-0.3,0-0.7-0.2-0.8-0.5c-1.8-2.9-4.5-7.6-6.9-13.1c-0.2-0.5,0-1.1,0.5-1.3c0.5-0.2,1.1,0,1.3,0.5
			c2.3,5.5,5,10,6.8,12.9c0.3,0.5,0.2,1.1-0.3,1.4C34.1,58.8,33.9,58.9,33.8,58.9z"/>
	</g>
	<g>
		<path d="M38.2,58.9c-0.2,0-0.4,0-0.5-0.2c-0.5-0.3-0.6-0.9-0.3-1.4c1.8-2.9,4.4-7.4,6.8-12.9c0.2-0.5,0.8-0.7,1.3-0.5
			c0.5,0.2,0.7,0.8,0.5,1.3c-2.4,5.6-5.1,10.2-6.9,13.1C38.9,58.7,38.5,58.9,38.2,58.9z"/>
	</g>
	<g>
		<path d="M22.6,58.9c-0.6,0-1-0.4-1-1V45.6c0-0.6,0.4-1,1-1c0.6,0,1,0.4,1,1v12.3C23.6,58.4,23.2,58.9,22.6,58.9z"/>
	</g>
	<g>
		<path d="M49.1,58.9c-0.6,0-1-0.4-1-1V45.6c0-0.6,0.4-1,1-1s1,0.4,1,1v12.3C50.1,58.4,49.7,58.9,49.1,58.9z"/>
	</g>
	<g id="XMLID_1_">
		<g>
			<path d="M40,25c1.1,0,2,0.9,2,2c0,1.1-0.9,2-2,2c-1.1,0-2-0.9-2-2C38,25.9,38.9,25,40,25z"/>
			<path d="M39.9,34.8c0.2,0.5,0,1.1-0.5,1.3C38.3,36.8,37.1,37,36,37s-2.3-0.3-3.4-0.9c-0.5-0.2-0.7-0.8-0.5-1.3
				c0.2-0.5,0.8-0.7,1.3-0.4c1.7,0.9,3.4,0.9,5.1,0C39,34.1,39.6,34.3,39.9,34.8z"/>
			<path d="M32,25c1.1,0,2,0.9,2,2c0,1.1-0.9,2-2,2c-1.1,0-2-0.9-2-2C30,25.9,30.9,25,32,25z"/>
		</g>
		<g>
			<path fill="none" stroke="#000000" stroke-width="2" stroke-linecap="round" stroke-linejoin="round" stroke-miterlimit="10" d="
				M26.3,21c-0.5,1-0.9,2-1.1,3.1c-0.4,1.4-0.5,2.8-0.5,4.3c0,7.8,5.1,14.2,11.3,14.2s11.3-6.4,11.3-14.2c0-1.1-0.1-2.3-0.3-3.4
				c-0.1-0.3-0.1-0.7-0.2-1c-0.3-1.1-0.7-2.1-1.1-3.1"/>
			<path fill="none" stroke="#000000" stroke-width="2" stroke-linecap="round" stroke-linejoin="round" stroke-miterlimit="10" d="
				M49.9,22.7c0,0-1-0.7-3-1.4c-0.4-0.1-0.8-0.3-1.2-0.4c-2.1-0.6-5-1.2-8.6-1.2c-0.3,0-0.7,0-1,0h-0.2c0,0-0.1,0-0.1,0
				c-4-0.1-7.2,0.5-9.5,1.1v0c-0.6,0.2-1.1,0.4-1.6,0.5c-1.7,0.6-2.6,1.2-2.6,1.2"/>
			<path fill="none" stroke="#000000" stroke-width="2" stroke-linecap="round" stroke-linejoin="round" stroke-miterlimit="10" d="
				M40,11.3v-0.1c-0.6-2.1-6.4-2.8-8,0l-0.1,6h5.1H40L40,11.3z"/>
			<path fill="none" stroke="#000000" stroke-width="2" stroke-linecap="round" stroke-linejoin="round" stroke-miterlimit="10" d="
				M24.6,21.3c0,0,0-9.2,7.4-10.1"/>
			<path fill="none" stroke="#000000" stroke-width="2" stroke-linecap="round" stroke-linejoin="round" stroke-miterlimit="10" d="
				M46.9,21.3c0,0,0-8.6-6.6-9.9"/>
			<path fill="none" stroke="#000000" stroke-width="2" stroke-linecap="round" stroke-linejoin="round" stroke-miterlimit="10" d="
				M36.1,19.9c0,0,0,0-0.1,0.1c-0.9,0.8-6.9,5.7-10.2,4.3l-0.5-0.2h0"/>
			<path fill="none" stroke="#000000" stroke-width="2" stroke-linecap="round" stroke-linejoin="round" stroke-miterlimit="10" d="
				M35.8,19.9c0,0,0,0,0.1,0.1c0.9,0.8,6.9,5.7,10.2,4.3l0.6-0.2"/>
		</g>
	</g>
</g>
</svg>
