<svg id="emoji" viewBox="0 0 72 72" xmlns="http://www.w3.org/2000/svg">
  <g id="line">
    <path fill="none" stroke="#000000" stroke-linecap="round" stroke-linejoin="round" stroke-miterlimit="10" stroke-width="2" d="M30.7465,53.6689c0.4295,0.4051,2.3337,2.11,5.1016,1.9273c2.2456-0.1483,3.7515-1.4526,4.2513-1.9273"/>
    <path fill="none" stroke="#000000" stroke-miterlimit="10" stroke-width="2" d="M22.5696,42.348 c1.9926,3.7,5.3442,5.7121,7.4861,4.4943c2.1418-1.2178,2.2628-5.2045,0.2702-8.9045s-5.3442-5.7121-7.4861-4.4943 S20.577,38.6481,22.5696,42.348z"/>
    <path fill="none" stroke="#000000" stroke-linecap="round" stroke-linejoin="round" stroke-miterlimit="10" stroke-width="2" d="M35.9426,63c-10,0-13.5098-11.7778-13.5098-11.7778s-7.2745-5.8889-7.2745-18.8444C15.1583,17.417,25.5504,10,35.9426,10 s20.7843,7.417,20.7843,22.3778c0,12.9556-7.0698,18.3804-7.2745,18.8444C45.2955,60.6444,40.3213,63,35.9426,63z"/>
    <path fill="none" stroke="#000000" stroke-miterlimit="10" stroke-width="2" d="M49.0317,42.348 c-1.9926,3.7-5.3442,5.7121-7.4861,4.4943c-2.1418-1.2178-2.2628-5.2045-0.2702-8.9045s5.3442-5.7121,7.4861-4.4943 C50.9033,34.6614,51.0243,38.6481,49.0317,42.348z"/>
  </g>
</svg>
