<?xml version="1.0" encoding="utf-8"?>
<!-- Generator: Adobe Illustrator 21.1.0, SVG Export Plug-In . SVG Version: 6.00 Build 0)  -->
<svg version="1.1" id="emoji" xmlns="http://www.w3.org/2000/svg" xmlns:xlink="http://www.w3.org/1999/xlink" x="0px" y="0px"
	 viewBox="0 0 72 72" enable-background="new 0 0 72 72" xml:space="preserve">
<g id="_xD83D__xDC75_">
	<path fill="none" stroke="#040404" stroke-width="2" stroke-linecap="round" stroke-linejoin="round" d="M17,60v-3c0-5,5-9,10-9
		c6,5,12,5,18,0c5,0,10,4,10,9v3"/>
	<path fill="none" stroke="#040404" stroke-width="2" stroke-linejoin="round" d="M25,31c0,8,4,14,10.9,14C43,45,47,39,47,31
		c0-5-1.4-7.7-2-9c-1-2-2-3-2-3c-5,3-14,0-15,1S25,25,25,31z"/>
	<path fill="none" stroke="#040404" stroke-width="2" stroke-linecap="round" stroke-linejoin="round" d="M38,38
		c-1.2,0.8-2.6,0.8-4,0"/>
	<path fill="none" stroke="#040404" stroke-width="2" stroke-linecap="round" stroke-linejoin="round" d="M31,36c0,1-1,2-1,2"/>
	<path fill="none" stroke="#040404" stroke-width="2" stroke-linecap="round" stroke-linejoin="round" d="M41,36c0,1,1,2,1,2"/>
	<path fill="#040404" d="M41.9,29c0,1.1-0.9,2-2,2c-1.1,0-2-0.9-2-2s0.9-2,2-2C41,27,41.9,27.9,41.9,29"/>
	<path fill="#040404" d="M33.9,29c0,1.1-0.9,2-2,2c-1.1,0-2-0.9-2-2s0.9-2,2-2C33,27,33.9,27.9,33.9,29"/>
	<path fill="none" stroke="#040404" stroke-width="2" stroke-linecap="round" stroke-linejoin="round" d="M26,38c-2,0-5-3-5-8
		c0-4,0-6,1-9c1.8-5.5,6-9,14-9c6,0,9,3,9,3c3,1,6,4.9,6,12c0,7-2,12-5,12"/>
	<path fill="none" stroke="#040404" stroke-width="2" stroke-linecap="round" stroke-linejoin="round" d="M42,13c1-2,0-4-1-5
		c-2-2-8.3-2-10.3,1c-0.8,1.2-0.7,2.3-0.4,3"/>
</g>
</svg>
