<svg id="emoji" xmlns="http://www.w3.org/2000/svg" viewBox="0 0 72 72">
  <title>1F472</title>
  
  
  
  
  <g id="line">
    <path d="M31.9038,40.8387A2.8387,2.8387,0,1,1,29.0651,38a2.847,2.847,0,0,1,2.8387,2.8387" fill="#000100"></path>
    <path d="M45.5282,40.8387A2.8388,2.8388,0,1,1,42.6894,38a2.8471,2.8471,0,0,1,2.8388,2.8387" fill="#000100"></path>
    <path d="M31.4086,52.7393c-.0466.01,5.0152,2.8314,9.5914,0" fill="none" stroke="#1d1d1b" stroke-linecap="round" stroke-miterlimit="10" stroke-width="2"></path>
    <path d="M26.0113,34.0693a11.6088,11.6088,0,0,1,6.5961,0" fill="none" stroke="#000100" stroke-linecap="round" stroke-miterlimit="10" stroke-width="2"></path>
    <path d="M39.6175,34.0693a11.6084,11.6084,0,0,1,6.596,0" fill="none" stroke="#000100" stroke-linecap="round" stroke-miterlimit="10" stroke-width="2"></path>
    <path d="M56.9888,22S54.0532,7.9484,35.7348,7.9484,14.6556,22,14.6556,22" fill="none" stroke="#000" stroke-linecap="round" stroke-linejoin="round" stroke-width="2"></path>
    <line x1="42.6715" y1="20.9959" x2="42.6715" y2="9.596" fill="none" stroke="#000" stroke-linecap="round" stroke-linejoin="round" stroke-width="2"></line>
    <path d="M60,31.0331c-23.546-4.5925-48.2065-.1832-48.1785,0L12.8253,23.13c29.8553-4.8911,45.6173.1826,46.171,0Z" fill="none" stroke="#000" stroke-linecap="round" stroke-linejoin="round" stroke-width="2"></path>
    <line x1="28.8531" y1="8.9513" x2="28.8531" y2="21.2189" fill="none" stroke="#000" stroke-linecap="round" stroke-linejoin="round" stroke-width="2"></line>
    
    <circle cx="35.9108" cy="25.0108" r="3.0112" fill="none" stroke="#000" stroke-miterlimit="10" stroke-width="2"></circle>
  </g>
</svg>