<svg id="emoji" viewBox="0 0 72 72" xmlns="http://www.w3.org/2000/svg">
  <g id="line">
    <path fill="none" stroke="#000" stroke-linecap="round" stroke-linejoin="round" stroke-width="2" d="M47.9172,27.8051a43.3663,43.3663,0,0,0-.7382-7.7178h0a26.0907,26.0907,0,0,1-21.338,0A22.9285,22.9285,0,0,0,24.6739,27.32c-.1811,8.6818,4.8753,15.8284,11.2939,15.9622s11.7683-6.7957,11.9494-15.4775"/>
    <path fill="none" stroke="#000" stroke-linecap="round" stroke-linejoin="round" stroke-width="2" d="M46.3619,35.26c10.856-5.6062,5.86-19.5675,5.86-19.5675a4.9807,4.9807,0,0,0-4.1981-2.9241,6.7193,6.7193,0,0,0-4.4341,1.3884S34.4771,2.055,24.0025,13.29a8.3451,8.3451,0,0,1-7.5966,2.7683s.7136,4.0878,3.1862,4.5277c0,0-3.9156,3.2042-.4165,6.9468,0,0,3.6875,8.9966,7.8474,9.6691"/>
    <path d="M42,29.773a2,2,0,1,1-2-2,2.0007,2.0007,0,0,1,2,2"/>
    <path d="M34,29.773a2,2,0,1,1-2-2,2.0007,2.0007,0,0,1,2,2"/>
    <path d="M36,39.7754a7.6524,7.6524,0,0,1-3.4472-.8579,1,1,0,0,1,.8945-1.7891,5.3774,5.3774,0,0,0,5.1055,0,1,1,0,1,1,.8945,1.7891A7.6528,7.6528,0,0,1,36,39.7754Z"/>
    <path fill="none" stroke="#000" stroke-linecap="round" stroke-linejoin="round" stroke-width="2" d="M16.1309,59.9584s-2.0938-13.61,10.4689-13.61c3.3416,2.2277,6.2043,3.7671,9.4221,3.7605H35.891c3.2178.0066,6.0806-1.5328,9.4221-3.7605,12.5627,0,10.4689,13.61,10.4689,13.61"/>
    <path fill="none" stroke="#000" stroke-linecap="round" stroke-linejoin="round" stroke-width="2" d="M51.1468,59.9584c-5.7322-8.0208-6.9511-4.5345-15.19-4.5345-7.8374,0-9.31-3.4863-15.0426,4.5345"/>
    <path fill="none" stroke="#000" stroke-linecap="round" stroke-linejoin="round" stroke-width="2" d="M24.6692,16.4756s12.1185,5.7865,23.2631,0"/>
    <path fill="none" stroke="#000" stroke-linecap="round" stroke-linejoin="round" stroke-width="2" d="M19.1756,27.5332S9.2978,49.5547,14.44,51.4577"/>
    <path fill="none" stroke="#000" stroke-linecap="round" stroke-linejoin="round" stroke-width="2" d="M52.745,27.5626c.3992.896,9.7523,22.0251,4.725,23.8941"/>
  </g>
</svg>
