<svg id="emoji" viewBox="0 0 72 72" xmlns="http://www.w3.org/2000/svg">
  <g id="line">
    <path d="M55.8066,58.8877a.9956.9956,0,0,1-.99-1.1494c.0088-.0576.8272-5.7412-2.1289-9.1778-1.4756-1.7148-3.69-2.6123-6.5859-2.6689-3.31,2.1846-6.0274,3.5449-9.126,3.5879-.0215.0019-.044.001-.0645.001h-.0673c-.0137-.001-.0274,0-.0411,0s-.0293,0-.0439-.001c-3.1006-.043-5.8174-1.4033-9.126-3.5879-2.8965.0566-5.11.9541-6.5859,2.6689-2.9561,3.4366-2.1377,9.12-2.1289,9.1778a1,1,0,0,1-1.9766.3027c-.041-.2695-.9726-6.6328,2.5811-10.7754,1.9228-2.2412,4.7509-3.3769,8.4072-3.3769a1.0015,1.0015,0,0,1,.5547.1679c3.1523,2.1016,5.6592,3.4092,8.3828,3.4239,2.7226-.0137,5.23-1.3213,8.3828-3.4239a1.0015,1.0015,0,0,1,.5547-.1679c3.6562,0,6.4844,1.1357,8.4072,3.3769,3.5537,4.1426,2.6221,10.5059,2.5811,10.7754A.9991.9991,0,0,1,55.8066,58.8877Z"/>
    <path d="M34.7656,58.8887a.9975.9975,0,0,1-.8476-.4688,97.5708,97.5708,0,0,1-6.9073-13.1367,1,1,0,0,1,1.8379-.7891,95.7175,95.7175,0,0,0,6.7627,12.8633,1,1,0,0,1-.8457,1.5313Z"/>
    <path d="M39.2129,58.8887a1,1,0,0,1-.8457-1.5313A95.6943,95.6943,0,0,0,45.13,44.4941a1,1,0,1,1,1.8379.7891A97.5708,97.5708,0,0,1,40.0605,58.42.9975.9975,0,0,1,39.2129,58.8887Z"/>
    <path d="M23.6045,58.8887a1,1,0,0,1-1-1V45.6152a1,1,0,0,1,2,0V57.8887A1,1,0,0,1,23.6045,58.8887Z"/>
    <path d="M50.1455,58.8887a1,1,0,0,1-1-1V45.6152a1,1,0,0,1,2,0V57.8887A1,1,0,0,1,50.1455,58.8887Z"/>
    <path d="M40.9869,25.0321a2,2,0,1,1-2,2A1.9994,1.9994,0,0,1,40.9869,25.0321Z"/>
    <path d="M40.8869,34.8421a1.0108,1.0108,0,0,1-.45,1.34,7.33,7.33,0,0,1-6.89,0,1,1,0,0,1,.89-1.79,5.383,5.383,0,0,0,5.11,0A.9935.9935,0,0,1,40.8869,34.8421Z"/>
    <path d="M32.9869,25.0321a2,2,0,1,1-2,2A1.9994,1.9994,0,0,1,32.9869,25.0321Z"/>
    <path fill="none" stroke="#000" stroke-miterlimit="10" stroke-width="2" d="M25.9591,25.1a17.2549,17.2549,0,0,0-.3122,3.292c0,7.83,5.08,14.18,11.34,14.18s11.34-6.35,11.34-14.18a17.6438,17.6438,0,0,0-.32-3.36"/>
    <path fill="none" stroke="#000" stroke-linecap="round" stroke-linejoin="round" stroke-width="2" d="M27.3269,20.9921c-.59.17-1.12.35-1.59.53a15.0574,15.0574,0,0,0-2.65,1.22"/>
    <line x1="27.3269" x2="27.3269" y1="20.9821" y2="20.9921" fill="none" stroke="#000" stroke-miterlimit="10" stroke-width="2"/>
    <path fill="none" stroke="#000" stroke-linecap="round" stroke-linejoin="round" stroke-width="2" d="M50.8869,22.7421a15.9913,15.9913,0,0,0-3-1.36q-.57-.195-1.23-.39a30.4168,30.4168,0,0,0-8.56-1.16c-.34,0-.68.01-1.03.02h-.16c-.03,0-.06-.01-.08,0a31.1621,31.1621,0,0,0-9.5,1.13"/>
    <path fill="none" stroke="#000" stroke-linecap="round" stroke-linejoin="round" stroke-width="2" d="M41.0469,11.3021v-.08c-.63-2.07-6.41-2.81-8,0l-.06,6.04h8Z"/>
    <path fill="none" stroke="#000" stroke-miterlimit="10" stroke-width="2" d="M25.6469,21.2821s.05-9.2,7.4-10.06"/>
    <path fill="none" stroke="#000" stroke-miterlimit="10" stroke-width="2" d="M47.9269,21.2821s-.04-8.77-6.88-9.98c-.16-.03-.34-.06-.51-.08"/>
    <g>
      <path fill="none" stroke="#000" stroke-linecap="round" stroke-linejoin="round" stroke-width="2" d="M24.0575,26.0036c.1166-1.8765.1354-3.2615.1354-3.2615"/>
      <path fill="none" stroke="#000" stroke-linecap="round" stroke-linejoin="round" stroke-width="2" d="M49.6984,22.7421s.0187,1.3833.1351,3.2579"/>
      <path fill="none" stroke="#000" stroke-linecap="round" stroke-miterlimit="10" stroke-width="2" d="M33.8725,19.8954C32.48,23.0338,25,26,25,26"/>
      <path fill="none" stroke="#000" stroke-linecap="round" stroke-miterlimit="10" stroke-width="2" d="M39,19.8954C40.5491,23.0338,48.8725,26,48.8725,26"/>
    </g>
  </g>
</svg>
