<?xml version="1.0" encoding="utf-8"?>
<!-- Generator: Adobe Illustrator 21.1.0, SVG Export Plug-In . SVG Version: 6.00 Build 0)  -->
<svg version="1.1" id="emoji" xmlns="http://www.w3.org/2000/svg" xmlns:xlink="http://www.w3.org/1999/xlink" x="0px" y="0px"
	 viewBox="0 0 72 72" enable-background="new 0 0 72 72" xml:space="preserve">
<g id="_xD83D__xDC7B_">
	<path fill="none" stroke="#1D1E1C" stroke-width="2" stroke-linecap="round" stroke-linejoin="round" stroke-miterlimit="10" d="
		M14,51.4c-1-2.1,3.4-6.2,6-12.1c1.1-2.5,1.2-4.7,0.7-6.4c-1.3-2.6-2.4-3.6-3.4-6.1c-0.8-2,8.2-0.3,8.4-0.4
		c0.9-0.8,3.3-9.6,5.4-12.2c1-1.2,3.4-2.6,5.8-2.5c2,0.1,4.1,1.3,5,2.4c2.2,2.7,4.7,12.2,5.4,12.4c1.9,0.4,8-1.9,8.3,0.4
		c0.1,0.5-1.9,5.8-2.2,6.1c-0.6,1.3-1.2,3.4-0.3,5.5c1.2,3,6.1,8.6,6.1,14c0,0.2-0.9,5.5-7.7,3.6c-0.2,0-5-2-7.9-1.1
		c-3.4,1-2.8,3-7,4.7c-1.1,0.5-3.1,1.3-5.8,1c-0.7-0.1-2.8-0.3-4.8-1.6c-2.9-1.9-2.4-3.9-4.8-5.7C18,51.1,14.7,52.9,14,51.4z"/>
	
		<ellipse fill="none" stroke="#1D1E1C" stroke-width="2" stroke-linecap="round" stroke-linejoin="round" stroke-miterlimit="10" cx="39.9" cy="23.2" rx="1.7" ry="3.2"/>
	
		<ellipse fill="none" stroke="#1D1E1C" stroke-width="2" stroke-linecap="round" stroke-linejoin="round" stroke-miterlimit="10" cx="36.5" cy="30.3" rx="1.8" ry="2.1"/>
	
		<ellipse fill="none" stroke="#1D1E1C" stroke-width="2" stroke-linecap="round" stroke-linejoin="round" stroke-miterlimit="10" cx="33.1" cy="23.2" rx="1.7" ry="3.2"/>
</g>
</svg>
