<svg id="emoji" xmlns="http://www.w3.org/2000/svg" viewBox="0 0 72 72">
  
  
  
  
  
  <g id="line">
    <path fill="none" stroke="#000000" stroke-width="2" stroke-linejoin="round" stroke-miterlimit="10" d="M50.4071,23.7527
		l-3.9024-3.9023c-0.3921-0.3922-1.0358-0.3922-1.4281,0L22.0351,42.892c-0.3924,0.3923-0.3924,1.0259,0,1.4181l3.9022,3.9023"></path>
    <line fill="#000000" stroke="#000000" stroke-width="2" stroke-linecap="round" stroke-linejoin="round" stroke-miterlimit="10" x1="32.4023" y1="39.0286" x2="11.3825" y2="60.0484"></line>
    <path fill="none" stroke="#000000" stroke-width="2" stroke-linecap="round" stroke-linejoin="round" stroke-miterlimit="10" d="
		M50.9842,18.2086l3.1192-3.0447c0.3098-0.3024,0.8776-0.2278,1.2618,0.1658l0.7706,0.7894c0.3842,0.3936,0.445,0.963,0.1352,1.2655
		l-2.9947,2.9232"></path>
    <line fill="none" stroke="#000000" stroke-width="2" stroke-linecap="round" stroke-linejoin="round" stroke-miterlimit="10" x1="52.8709" y1="12.8709" x2="59.1291" y2="19.1291"></line>
    <path fill="none" stroke="#000000" stroke-width="2" stroke-linejoin="round" stroke-miterlimit="10" d="M44.5233,33.408
		l-15.981,15.9811c-0.3924,0.3922-1.0359,0.3922-1.4181,0l-1.1868-1.1768l0.5733-0.5733l1.8203,1.8204l16.082-16.0919"></path>
    <path fill="none" stroke="#000000" stroke-width="2" stroke-linejoin="round" stroke-miterlimit="10" d="M50.4071,23.7527
		l1.1766,1.1768c0.3923,0.3922,0.3923,1.0258,0,1.4181l-7.0605,7.0605"></path>
    <path fill="none" stroke="#000000" stroke-width="2" stroke-linejoin="round" stroke-miterlimit="10" d="M27.1242,49.3962
		l-5.0895-5.0895c-0.3889-0.3889-0.3889-1.0253,0-1.4142l23.05-23.05c0.3889-0.3889,1.0253-0.3889,1.4142,0l5.0895,5.0895
		c0.3889,0.3889,0.3889,1.0253,0,1.4142l-23.05,23.05C28.1495,49.7851,27.5131,49.7851,27.1242,49.3962z"></path>
    <line fill="none" stroke="#000000" stroke-width="2" stroke-linecap="round" stroke-linejoin="round" stroke-miterlimit="10" x1="40.0783" y1="30.6074" x2="40.7355" y2="31.2645"></line>
  </g>
</svg>