<svg id="emoji" viewBox="0 0 72 72" xmlns="http://www.w3.org/2000/svg">
  <g id="line">
    <path fill="none" stroke="#000" stroke-linecap="round" stroke-linejoin="round" stroke-width="2" d="M11.9481,59.982v-3c0-4.9941,5.0078-9,10-9q9,7.5,18,0a10.2713,10.2713,0,0,1,4.0029.84"/>
    <path d="M36.8211,29.982a2,2,0,1,1-2-2,2,2,0,0,1,2,2"/>
    <path d="M28.8211,29.982a2,2,0,1,1-2-2,2,2,0,0,1,2,2"/>
    <path fill="none" stroke="#000" stroke-linecap="round" stroke-linejoin="round" stroke-width="2" d="M27.9481,37.982a6.5535,6.5535,0,0,0,6,0"/>
    <path fill="none" stroke="#000" stroke-linecap="round" stroke-linejoin="round" stroke-width="2" d="M54.9481,59.982,53.0106,46.6763l.9375-1.25,6-2,5-6a1.4142,1.4142,0,0,0-2-2l-3,3c-1,1-4,0-7,1s-5,3.2325-5,5V59.982"/>
    <path fill="none" stroke="#000" stroke-linecap="round" stroke-linejoin="round" stroke-width="2" d="M13.6524,46.7129c-3.7227-5.8565-.628-10.08,1.18-14.7246,1.6357-4.2-.209-6.4512,1.291-12.0342,1.4795-5.5,7.2773-8.9658,13.709-8.9658,5.4,0,8,3,8,3a8.1321,8.1321,0,0,1,7.4052,8.0371c.3867,7.18,1.0244,7.1523,3.4287,12.8222a11.6,11.6,0,0,1,.7356,2.3707"/>
    <path fill="none" stroke="#000" stroke-linejoin="round" stroke-width="2" d="M19.8321,30.9883c0,8,5,14,11,14s11-6,11-14c0-5-2-8-6-12-4,4-16,9-16,11Z"/>
  </g>
</svg>
