<svg id="emoji" viewBox="0 0 72 72" xmlns="http://www.w3.org/2000/svg">
  <g id="line">
    <path fill="none" stroke="#000" stroke-linecap="round" stroke-linejoin="round" stroke-width="2" d="M20.9345,38.9851c-4,0-4-6-4-13s4-14,14-14,14,7,14,14,0,13-4,13"/>
    <path fill="none" stroke="#000" stroke-linecap="round" stroke-linejoin="round" stroke-width="2" d="M11.9345,59.9851v-3c0-4.9941,5.0078-9,10-9q9,7.5,18,0a10.2713,10.2713,0,0,1,4.0029.84"/>
    <path d="M36.8075,29.9851a2,2,0,1,1-2-2,2,2,0,0,1,2,2"/>
    <path d="M28.8075,29.9851a2,2,0,1,1-2-2,2,2,0,0,1,2,2"/>
    <path fill="none" stroke="#000" stroke-linejoin="round" stroke-width="2" d="M19.871,30.9851c0,9,4.9365,14,11,14,5.9365,0,11.0635-5,11.0635-14a12.1371,12.1371,0,0,0-1-5c-3-3-7-8-7-8-4,3-7,6-13,7C20.9345,24.9851,19.871,25.9846,19.871,30.9851Z"/>
    <path fill="none" stroke="#000" stroke-linecap="round" stroke-linejoin="round" stroke-width="2" d="M27.9345,37.9851a6.5535,6.5535,0,0,0,6,0"/>
    <path fill="none" stroke="#000" stroke-linecap="round" stroke-linejoin="round" stroke-width="2" d="M54.9345,59.9851,52.997,46.6794l.9375-1.25,6-2,5-6a1.4142,1.4142,0,0,0-2-2l-3,3c-1,1-4,0-7,1s-5,3.2325-5,5V59.9851"/>
  </g>
</svg>
