<?xml version="1.0" encoding="utf-8"?>
<!-- Generator: Adobe Illustrator 21.1.0, SVG Export Plug-In . SVG Version: 6.00 Build 0)  -->
<svg version="1.1" id="Ebene_3" xmlns="http://www.w3.org/2000/svg" xmlns:xlink="http://www.w3.org/1999/xlink" x="0px" y="0px"
	 viewBox="0 0 72 72" enable-background="new 0 0 72 72" xml:space="preserve">
<g id="_xD83D__xDC80__1_">
	<path fill="none" stroke="#1D1D1B" stroke-width="2" stroke-linecap="round" stroke-linejoin="round" stroke-miterlimit="10" d="
		M24,58c0-2.3,0-4.7,0-7c-1.7-1.5-5.3-5.1-7-11c-0.7-2.7-2.3-10,2-17c0.5-0.8,6.2-9.9,17-10c8.1-0.1,14.9,4.9,18,11
		c3.4,6.7,1.7,13.4,1,16c-1.4,5.4-5.3,9.1-7,11c0,2.3,0,4.7,0,7"/>
	<path fill="none" stroke="#1D1D1B" stroke-width="2" stroke-linecap="round" stroke-linejoin="round" stroke-miterlimit="10" d="
		M28,56c0,1.7,0,3.3,0,5"/>
	<path fill="none" stroke="#1D1D1B" stroke-width="2" stroke-linecap="round" stroke-linejoin="round" stroke-miterlimit="10" d="
		M34,56c0,1.7,0,3.3,0,5"/>
	<path fill="none" stroke="#1D1D1B" stroke-width="2" stroke-linecap="round" stroke-linejoin="round" stroke-miterlimit="10" d="
		M39,56c0,1.7,0,3.3,0,5"/>
	<path fill="none" stroke="#1D1D1B" stroke-width="2" stroke-linecap="round" stroke-linejoin="round" stroke-miterlimit="10" d="
		M44.5,56c0,1.7,0,3.3,0,5"/>
	
		<circle fill="none" stroke="#1D1D1B" stroke-width="2" stroke-linecap="round" stroke-linejoin="round" stroke-miterlimit="10" cx="28.2" cy="41.1" r="4.9"/>
	
		<circle fill="none" stroke="#1D1D1B" stroke-width="2" stroke-linecap="round" stroke-linejoin="round" stroke-miterlimit="10" cx="44.5" cy="41.1" r="4.9"/>
	<path fill="none" stroke="#1D1D1B" stroke-width="2" stroke-linecap="round" stroke-linejoin="round" stroke-miterlimit="10" d="
		M33.1,52.8c1-1.9,2-3.8,3-5.7c1.2,1.9,2.4,3.9,3.6,5.8"/>
</g>
</svg>
