<?xml version="1.0" encoding="utf-8"?>
<!-- Generator: Adobe Illustrator 21.1.0, SVG Export Plug-In . SVG Version: 6.00 Build 0)  -->
<svg version="1.1" id="lines" xmlns="http://www.w3.org/2000/svg" xmlns:xlink="http://www.w3.org/1999/xlink" x="0px" y="0px"
	 viewBox="0 0 72 72" enable-background="new 0 0 72 72" xml:space="preserve">
<g id="_xD83D__xDC87_">
	<path fill="none" stroke="#040404" stroke-width="2" stroke-linecap="round" stroke-linejoin="round" d="M45,37c0,1.1-0.7,4-2,4h-7
		"/>
	<path fill="none" stroke="#040404" stroke-width="2" stroke-linecap="round" stroke-linejoin="round" d="M17,39c-4,0-4-6-4-13
		s4-14,14-14s13.1,7,17,14c0.7,1.3,1,3,1,6"/>
	<path fill="none" stroke="#040404" stroke-width="2" stroke-linecap="round" stroke-linejoin="round" d="M8,60v-3c0-5,5-9,10-9
		c6,5,12,5,18,0c5,0,10,4,10,9v3"/>
	<path fill="#040404" d="M32.9,30c0,1.1-0.9,2-2,2c-1.1,0-2-0.9-2-2s0.9-2,2-2C32,28,32.9,28.9,32.9,30"/>
	<path fill="#040404" d="M24.9,30c0,1.1-0.9,2-2,2c-1.1,0-2-0.9-2-2s0.9-2,2-2C24,28,24.9,28.9,24.9,30"/>
	<path fill="none" stroke="#040404" stroke-width="2" stroke-linejoin="round" d="M15.9,31c0,9,4.9,14,11,14C32.9,45,38,40,38,31
		c0-3-1-5-1-5c-3-3-7-8-7-8c-4,3-7,6-13,7C17,25,15.9,26,15.9,31z"/>
	<path fill="none" stroke="#040404" stroke-width="2" stroke-linecap="round" stroke-linejoin="round" d="M24,38c1.9,0.9,4,1,6,0"/>
	<path fill="none" stroke="#000000" stroke-width="2" stroke-linecap="round" stroke-linejoin="round" stroke-miterlimit="10" d="
		M53.8,31.8c0,0.3,0,0.7,0.1,1L38,33c0,0,0.8,3.8,3.8,3.8h17c2.8,0,5-2.2,5-5c0-2.8-2.2-5-5-5S53.8,29,53.8,31.8z"/>
	<circle cx="58.8" cy="31.8" r="2"/>
	<path fill="none" stroke="#000000" stroke-width="2" stroke-linecap="round" stroke-linejoin="round" stroke-miterlimit="10" d="
		M57.9,40c1.3,1.9,1.1,4.6-0.6,6.3c-2,2-5.1,2-7.1,0c-1.8-1.8-1.9-4.6-0.5-6.5"/>
	<path fill="none" stroke="#000000" stroke-width="2" stroke-linecap="round" stroke-linejoin="round" stroke-miterlimit="10" d="
		M44.5,26.7c0.3,0.1,0.5,0.3,0.7,0.4c0.1,0.1,0.2,0.2,0.3,0.2l2.6,2.6"/>
	<ellipse transform="matrix(0.7072 -0.707 0.707 0.7072 -14.4871 50.5181)" cx="53.8" cy="42.8" rx="2" ry="2"/>
</g>
</svg>
