<svg version="1.1" id="emoji" xmlns="http://www.w3.org/2000/svg" x="0" y="0" viewBox="0 0 72 72" enable-background="new 0 0 72 72" xml:space="preserve">
  <g id="line">
    <path d="M41.873,30c0,1.1045-0.8955,2-2,2c-1.1044,0-2-0.8955-2-2s0.8956-2,2-2C40.9775,28,41.873,28.8955,41.873,30"/>
    <path d="M33.873,30c0,1.1045-0.8955,2-2,2c-1.1044,0-2-0.8955-2-2s0.8956-2,2-2C32.9775,28,33.873,28.8955,33.873,30"/>
    <path fill="none" stroke="#000000" stroke-width="2" stroke-linecap="round" stroke-linejoin="round" d="M50,32 c-0.2852,3.9268-1.3008,7-4,7"/>
    <path fill="none" stroke="#000000" stroke-width="2" stroke-linecap="round" stroke-linejoin="round" d="M29.1592,13.3999 C31.0264,12.5137,33.293,12,36,12c2.5879,0,4.7744,0.4688,6.5928,1.2847"/>
    <path fill="none" stroke="#000000" stroke-width="2" stroke-linecap="round" stroke-linejoin="round" d="M26,39 c-1.6484,0-2.6748-1.2109-3.2881-3.0449C22.335,34.8271,22.1133,33.4629,22,32"/>
    <path fill="none" stroke="#000000" stroke-width="2" stroke-linecap="round" stroke-linejoin="round" d="M17,60v-3 c0-4.9941,5.0078-9,10-9c6,5,12,5,18,0c4.9941,0,10,4.0059,10,9v3"/>
    <path d="M41.873,30c0,1.1045-0.8955,2-2,2c-1.1044,0-2-0.8955-2-2s0.8956-2,2-2C40.9775,28,41.873,28.8955,41.873,30"/>
    <path d="M33.873,30c0,1.1045-0.8955,2-2,2c-1.1044,0-2-0.8955-2-2s0.8956-2,2-2C32.9775,28,33.873,28.8955,33.873,30"/>
    <path fill="none" stroke="#000000" stroke-width="2" stroke-linecap="round" stroke-linejoin="round" d="M36,17.9995 c0-0.0005-1.541,0.3335-2.457,0.8594"/>
    <path fill="none" stroke="#000000" stroke-width="2" stroke-linecap="round" stroke-linejoin="round" d="M26,27.1079 c-0.293,1.146-1.0635,5.0171-1.0635,6.8921c0,5,4.9365,11,11,11C41.873,45,47,39,47,34c0-2-0.707-5.9766-1-6.8921"/>
    <path fill="none" stroke="#000000" stroke-width="2" stroke-linecap="round" stroke-linejoin="round" d="M33,38 c1.9385,0.9385,4,1,6,0"/>
    <path fill="none" stroke="#000000" stroke-width="2" stroke-linecap="round" stroke-linejoin="round" d="M17,6c0,3,1,10,1,10v12 c1,4,4,4,4,4c0-6,3-12,3-12c2,2,2,2,4,4c1,1,3,0,2-2c-0.8379-1.6758-3.0469-4.6196-4-6c-0.9092-1.3174-2.1025-2.3677-4-3V6"/>
    <path fill="none" stroke="#000000" stroke-width="2" stroke-linecap="round" stroke-linejoin="round" d="M55.2734,6c0,3-1,10-1,10 v12c-1,4-4,4-4,4c0-6-3-12-3-12c-2,2-2,2-4,4c-1,1-3,0-2-2c0.8379-1.6758,3.0469-4.6196,4-6c0.9092-1.3174,2.1026-2.3677,4-3V6"/>
    <path fill="none" stroke="#000000" stroke-width="2" stroke-linecap="round" stroke-linejoin="round" d="M36,17.999 c0,0,1.4443,0.1573,2.334,0.6675"/>
  </g>
</svg>
