<?xml version="1.0" encoding="utf-8"?>
<!-- Generator: Adobe Illustrator 21.1.0, SVG Export Plug-In . SVG Version: 6.00 Build 0)  -->
<svg version="1.1" id="emoji" xmlns="http://www.w3.org/2000/svg" xmlns:xlink="http://www.w3.org/1999/xlink" x="0px" y="0px"
	 viewBox="0 0 72 72" enable-background="new 0 0 72 72" xml:space="preserve">
<g id="_xD83D__xDC82_">
	<path fill="#000100" d="M41.9,27.1c0,1.1-0.9,2-2,2s-2-0.9-2-2c0-1.1,0.9-2,2-2S41.9,26,41.9,27.1"/>
	<path fill="#000100" d="M33.9,27.1c0,1.1-0.9,2-2,2s-2-0.9-2-2c0-1.1,0.9-2,2-2S33.9,26,33.9,27.1"/>
	<path fill="#000100" d="M35.9,37.1c-1.2,0-2.3-0.3-3.4-0.9c-0.5-0.2-0.7-0.8-0.4-1.3c0.2-0.5,0.8-0.7,1.3-0.4
		c1.7,0.9,3.4,0.9,5.1,0c0.5-0.2,1.1,0,1.3,0.4c0.2,0.5,0,1.1-0.4,1.3C38.2,36.8,37,37.1,35.9,37.1z"/>
	<g id="XMLID_5_">
		<g>
		</g>
		<g>
			<path fill="none" stroke="#000000" stroke-width="2" stroke-linecap="round" stroke-linejoin="round" stroke-miterlimit="10" d="
				M16.9,57.9c0,0-1.6-10.6,6.8-12.6c0.9-0.2,2-0.4,3.2-0.4c3.2,2.1,5.9,3.6,8.9,3.6h0.1c3,0,5.7-1.5,8.9-3.6c1.2,0,2.2,0.1,3.2,0.4
				c8.5,2.1,6.8,12.6,6.8,12.6"/>
			<path fill="none" stroke="#000000" stroke-width="2" stroke-linecap="round" stroke-linejoin="round" stroke-miterlimit="10" d="
				M23.8,45.3c5.4,7.4,16.7,9.3,24.2,0"/>
		</g>
	</g>
	
		<line fill="none" stroke="#000000" stroke-width="2" stroke-linecap="round" stroke-linejoin="round" stroke-miterlimit="10" x1="34.2" y1="51.6" x2="34.2" y2="58"/>
	
		<line fill="none" stroke="#000000" stroke-width="2" stroke-linecap="round" stroke-linejoin="round" stroke-miterlimit="10" x1="37.8" y1="51.5" x2="37.8" y2="58"/>
	<path fill="none" stroke="#000000" stroke-width="2" stroke-linecap="round" stroke-linejoin="round" stroke-miterlimit="10" d="
		M25.2,23h21.3V9.6c0-4.1-3.3-7.4-7.4-7.4h-6.6c-4.1,0-7.4,3.3-7.4,7.4V23z"/>
	<path opacity="0.5" d="M41.9,27.1c0,1.1-0.9,2-2,2s-2-0.9-2-2c0-1.1,0.9-2,2-2S41.9,26,41.9,27.1"/>
	<path opacity="0.5" d="M33.9,27.1c0,1.1-0.9,2-2,2c-1.1,0-2-0.9-2-2c0-1.1,0.9-2,2-2C33,25.1,33.9,26,33.9,27.1"/>
	<path opacity="0.5" d="M35.9,37.1c-1.2,0-2.3-0.3-3.4-0.9c-0.5-0.2-0.7-0.8-0.4-1.3c0.2-0.5,0.8-0.7,1.3-0.4c1.7,0.9,3.4,0.9,5.1,0
		c0.5-0.2,1.1,0,1.3,0.4c0.2,0.5,0,1.1-0.4,1.3C38.2,36.8,37,37.1,35.9,37.1z"/>
	<path fill="none" stroke="#000000" stroke-width="2" stroke-linecap="round" stroke-linejoin="round" stroke-miterlimit="10" d="
		M25.3,23.3c-0.5,1.6-0.8,3.3-0.8,5.2c0,7.8,5.1,14.2,11.3,14.2s11.3-6.3,11.3-14.2c0-1.2-0.1-2.3-0.3-3.4c-0.1-0.6-0.3-1.2-0.4-1.8
		"/>
	<g id="XMLID_4_">
		<g>
		</g>
		<g>
			<path fill="none" stroke="#000000" stroke-width="2" stroke-linecap="round" stroke-linejoin="round" stroke-miterlimit="10" d="
				M17.7,44.5c1.6-1.1,3.7-2,6.4-2.4"/>
		</g>
	</g>
	<g id="XMLID_3_">
		<g>
		</g>
		<g>
			<path fill="none" stroke="#000000" stroke-width="2" stroke-linecap="round" stroke-linejoin="round" stroke-miterlimit="10" d="
				M54.3,44.5c-1.6-1.1-3.7-2-6.4-2.4"/>
		</g>
	</g>
</g>
</svg>
