<svg id="emoji" viewBox="0 0 72 72" xmlns="http://www.w3.org/2000/svg">
  <g id="line">
    <path d="M41.8655,29.9968a2,2,0,1,1-2-2,2,2,0,0,1,2,2"/>
    <path d="M33.8655,29.9968a2,2,0,1,1-2-2,2,2,0,0,1,2,2"/>
    <path fill="none" stroke="#000" stroke-linecap="round" stroke-linejoin="round" stroke-width="2" d="M29.1517,13.3967a15.8,15.8,0,0,1,6.8408-1.4,15.9714,15.9714,0,0,1,6.5928,1.2847"/>
    <path fill="none" stroke="#000" stroke-linecap="round" stroke-linejoin="round" stroke-width="2" d="M16.9925,59.9968v-3c0-4.9941,5.0078-9,10-9q9,7.5,18,0c4.9941,0,10,4.0059,10,9v3"/>
    <path d="M41.8655,29.9968a2,2,0,1,1-2-2,2,2,0,0,1,2,2"/>
    <path d="M33.8655,29.9968a2,2,0,1,1-2-2,2,2,0,0,1,2,2"/>
    <path fill="none" stroke="#000" stroke-linecap="round" stroke-linejoin="round" stroke-width="2" d="M35.9925,17.9963a10.6183,10.6183,0,0,0-2.457.8594"/>
    <path fill="none" stroke="#000" stroke-linecap="round" stroke-linejoin="round" stroke-width="2" d="M25.9925,27.1047a40.3135,40.3135,0,0,0-1.0635,6.8921c0,5,4.9365,11,11,11,5.9365,0,11.0635-6,11.0635-11a35.9127,35.9127,0,0,0-1-6.8921"/>
    <path fill="none" stroke="#000" stroke-linecap="round" stroke-linejoin="round" stroke-width="2" d="M32.9925,37.9968a6.5535,6.5535,0,0,0,6,0"/>
    <path fill="none" stroke="#000" stroke-linecap="round" stroke-linejoin="round" stroke-width="2" d="M16.9925,5.9968c0,3,1,10,1,10v12c1,4,4,4,4,4,0-6,3-12,3-12l4,4c1,1,3,0,2-2a66.7658,66.7658,0,0,0-4-6,7.4948,7.4948,0,0,0-4-3v-7"/>
    <path fill="none" stroke="#000" stroke-linecap="round" stroke-linejoin="round" stroke-width="2" d="M55.2659,5.9968c0,3-1,10-1,10v12c-1,4-4,4-4,4,0-6-3-12-3-12l-4,4c-1,1-3,0-2-2a66.7658,66.7658,0,0,1,4-6,7.4952,7.4952,0,0,1,4-3v-7"/>
    <path fill="none" stroke="#000" stroke-linecap="round" stroke-linejoin="round" stroke-width="2" d="M35.9925,17.9958a7.2883,7.2883,0,0,1,2.334.6675"/>
    <path fill="none" stroke="#000" stroke-linecap="round" stroke-linejoin="round" stroke-width="2" d="M53.7752,33.9938a11.5986,11.5986,0,0,1-1.4463,11.6631"/>
    <path fill="none" stroke="#000" stroke-linecap="round" stroke-linejoin="round" stroke-width="2" d="M18.7616,45.8591c-3.0013-4.7215-1.5714-8.3817.0427-12.0568"/>
  </g>
</svg>
