<svg id="emoji" viewBox="0 0 72 72" xmlns="http://www.w3.org/2000/svg">
  <g id="line">
    <path fill="#000000" stroke="none" d="M47.5877,12.2742c3.1001,0,6.2001,1.1759,8.5519,3.5276l0,0c4.7035,4.7035,4.7035,12.4002,0,17.1038 L32.52,56.5251c-2.3518,2.3518-5.4518,3.5277-8.5519,3.5277c-3.1001,0-6.2001-1.1759-8.5519-3.5277l0,0 c-4.7035-4.7035-4.7035-12.4002,0-17.1038l23.6195-23.6195C41.3875,13.45,44.4876,12.2742,47.5877,12.2742 M47.5877,10.2742 c-3.7741,0-7.3135,1.4608-9.9661,4.1134L14.002,38.0071c-5.4953,5.4953-5.4953,14.4369,0,19.9322 c2.6526,2.6526,6.192,4.1135,9.9661,4.1135c3.7741,0,7.3135-1.4608,9.9661-4.1134l23.6196-23.6195 c5.4953-5.4953,5.4953-14.4369,0-19.9322C54.9012,11.735,51.3618,10.2742,47.5877,10.2742L47.5877,10.2742z"/>
    <line x1="28.5625" x2="41.4219" y1="30.4062" y2="43.2656" fill="none" stroke="#000000" stroke-linecap="round" stroke-miterlimit="10" stroke-width="2"/>
  </g>
</svg>
