<?xml version="1.0" encoding="utf-8"?>
<!-- Generator: Adobe Illustrator 21.1.0, SVG Export Plug-In . SVG Version: 6.00 Build 0)  -->
<svg version="1.1" id="emoji" xmlns="http://www.w3.org/2000/svg" xmlns:xlink="http://www.w3.org/1999/xlink" x="0px" y="0px"
	 viewBox="0 0 72 72" enable-background="new 0 0 72 72" xml:space="preserve">
<g id="_xD83D__xDC82_">
	<g>
		<path fill="#000100" d="M41.9,27.1c0,1.1-0.9,2-2,2s-2-0.9-2-2c0-1.1,0.9-2,2-2S41.9,26,41.9,27.1"/>
	</g>
	<g>
		<path fill="#000100" d="M33.9,27.1c0,1.1-0.9,2-2,2s-2-0.9-2-2c0-1.1,0.9-2,2-2S33.9,26,33.9,27.1"/>
	</g>
	<g>
		<path fill="#000100" d="M35.9,37.1c-1.2,0-2.3-0.3-3.4-0.9c-0.5-0.2-0.7-0.8-0.4-1.3c0.2-0.5,0.8-0.7,1.3-0.4
			c1.7,0.9,3.4,0.9,5.1,0c0.5-0.2,1.1,0,1.3,0.4c0.2,0.5,0,1.1-0.4,1.3C38.2,36.8,37,37.1,35.9,37.1z"/>
	</g>
	<g id="XMLID_5_">
		<g>
			<path fill="none" stroke="#000000" stroke-width="2" stroke-linecap="round" stroke-linejoin="round" stroke-miterlimit="10" d="
				M16.9,57.9c0,0-1.6-10.6,6.8-12.6c0.9-0.2,2-0.4,3.2-0.4c3.2,2.1,5.9,3.6,8.9,3.6h0.1c3,0,5.7-1.5,8.9-3.6c1.2,0,2.2,0.1,3.2,0.4
				c8.5,2.1,6.8,12.6,6.8,12.6"/>
			<path fill="none" stroke="#000000" stroke-width="2" stroke-linecap="round" stroke-linejoin="round" stroke-miterlimit="10" d="
				M23.8,45.3c5.4,7.4,16.7,9.3,24.2,0"/>
		</g>
	</g>
	<g>
		<path d="M34.2,59c-0.6,0-1-0.4-1-1v-6.4c0-0.6,0.4-1,1-1c0.6,0,1,0.4,1,1V58C35.2,58.5,34.8,59,34.2,59z"/>
	</g>
	<g>
		<path d="M37.8,59c-0.6,0-1-0.4-1-1v-6.4c0-0.6,0.4-1,1-1s1,0.4,1,1V58C38.8,58.5,38.3,59,37.8,59z"/>
	</g>
	<g>
		<path d="M46.4,24H25.2c-0.6,0-1-0.4-1-1V9.6c0-4.6,3.7-8.4,8.4-8.4h6.6c4.6,0,8.4,3.7,8.4,8.4V23C47.4,23.6,47,24,46.4,24z
			 M26.2,22h19.3V9.6c0-3.5-2.8-6.4-6.4-6.4h-6.6c-3.5,0-6.4,2.8-6.4,6.4V22z"/>
	</g>
	<g opacity="0.5">
		<path d="M41.9,27.1c0,1.1-0.9,2-2,2s-2-0.9-2-2c0-1.1,0.9-2,2-2S41.9,26,41.9,27.1"/>
	</g>
	<g opacity="0.5">
		<path d="M33.9,27.1c0,1.1-0.9,2-2,2c-1.1,0-2-0.9-2-2c0-1.1,0.9-2,2-2C33,25.1,33.9,26,33.9,27.1"/>
	</g>
	<g opacity="0.5">
		<path d="M35.9,37.1c-1.2,0-2.3-0.3-3.4-0.9c-0.5-0.2-0.7-0.8-0.4-1.3c0.2-0.5,0.8-0.7,1.3-0.4c1.7,0.9,3.4,0.9,5.1,0
			c0.5-0.2,1.1,0,1.3,0.4c0.2,0.5,0,1.1-0.4,1.3C38.2,36.8,37,37.1,35.9,37.1z"/>
	</g>
	<g>
		<path d="M35.9,43.6c-6.8,0-12.3-6.8-12.3-15.2c0-1.9,0.3-3.7,0.8-5.5c0.2-0.5,0.7-0.8,1.3-0.7c0.5,0.2,0.8,0.7,0.7,1.3
			c-0.5,1.5-0.7,3.2-0.7,4.9c0,7.3,4.6,13.2,10.3,13.2s10.3-5.9,10.3-13.2c0-1.1-0.1-2.1-0.3-3.2c-0.1-0.6-0.3-1.1-0.4-1.7
			c-0.2-0.5,0.1-1.1,0.7-1.3c0.5-0.2,1.1,0.1,1.3,0.7c0.2,0.6,0.4,1.3,0.5,1.9c0.2,1.2,0.3,2.3,0.3,3.6
			C48.2,36.8,42.7,43.6,35.9,43.6z"/>
	</g>
	<g id="XMLID_4_">
		<g>
			<path fill="none" stroke="#000000" stroke-width="2" stroke-linecap="round" stroke-linejoin="round" stroke-miterlimit="10" d="
				M17.7,44.5c1.6-1.1,3.7-2,6.4-2.4"/>
		</g>
	</g>
	<g id="XMLID_3_">
		<g>
			<path fill="none" stroke="#000000" stroke-width="2" stroke-linecap="round" stroke-linejoin="round" stroke-miterlimit="10" d="
				M54.3,44.5c-1.6-1.1-3.7-2-6.4-2.4"/>
		</g>
	</g>
</g>
</svg>
