<?xml version="1.0" encoding="utf-8"?>
<!-- Generator: Adobe Illustrator 21.1.0, SVG Export Plug-In . SVG Version: 6.00 Build 0)  -->
<svg version="1.1" id="emoji" xmlns="http://www.w3.org/2000/svg" xmlns:xlink="http://www.w3.org/1999/xlink" x="0px" y="0px"
	 viewBox="0 0 72 72" enable-background="new 0 0 72 72" xml:space="preserve">
<g id="_xD83D__xDC83_">
	<circle fill="none" stroke="#000000" stroke-width="2" stroke-miterlimit="10" cx="32" cy="10.1" r="3"/>
	<g>
		<path fill="none" stroke="#000000" stroke-width="2" stroke-linecap="round" stroke-linejoin="round" stroke-miterlimit="10" d="
			M41,35.3l-10.3,3.9c-1,0.4-2.7,0.9-3.8,1.2l-15,4c-1.1,0.3-2.2-0.2-2.4-1s0.3-1.8,1.4-2.3l11.3-4.6c1-0.4,2.6-1.3,3.5-1.9l6.7-4.6
			c0.9-0.6,2.3-1.7,3-2.3c0.7-0.7,1-2,0.7-3.1l-0.3-0.9c-0.4-1-1.2-2.2-1.7-2.5c-0.6-0.3-1-0.6-1-0.6"/>
	</g>
	<g>
		<path fill="none" stroke="#000000" stroke-width="2" stroke-linecap="round" stroke-linejoin="round" stroke-miterlimit="10" d="
			M37,37l2.2,10.7c0.2,1.1,0.5,2.9,0.6,4L40.6,63c0.1,1.1,0.8,2,1.6,2s1.6-0.9,1.6-2l1-13c0.1-1.1,0.1-2.9,0.1-4V35
			c0-1.1-0.1-2.9-0.1-4l-0.7-10c-0.1-1.1-0.8-2.6-1.5-3.4L40,14.9"/>
	</g>
	<g>
		<path fill="none" stroke="#000000" stroke-width="2" stroke-linecap="round" stroke-linejoin="round" stroke-miterlimit="10" d="
			M54.7,7l-6,3.9c-0.9,0.6-2.5,1.4-3.5,1.8l-3.7,1.4c-1,0.4-2.7,1-3.8,1.3l-2.6,0.8c-1.1,0.3-2.7,1.1-3.6,1.7l-2.8,2
			c-0.9,0.6-2.5,1.4-3.5,1.8L16,25"/>
	</g>
</g>
</svg>
