<?xml version="1.0" encoding="utf-8"?>
<!-- Generator: Adobe Illustrator 21.1.0, SVG Export Plug-In . SVG Version: 6.00 Build 0)  -->
<svg version="1.1" id="emoji" xmlns="http://www.w3.org/2000/svg" xmlns:xlink="http://www.w3.org/1999/xlink" x="0px" y="0px"
	 viewBox="0 0 72 72" enable-background="new 0 0 72 72" xml:space="preserve">
<g id="_xD83D__xDC89__1_">
	
		<polyline fill="none" stroke="#1D1D1B" stroke-width="2" stroke-linecap="round" stroke-linejoin="round" stroke-miterlimit="10" points="
		11.4,60 24.6,46.9 24.6,46.8 	"/>
	
		<line fill="none" stroke="#1D1D1B" stroke-width="2" stroke-linecap="round" stroke-linejoin="round" stroke-miterlimit="10" x1="52.7" y1="12.4" x2="59" y2="18.7"/>
	<line fill="none" stroke="#1D1D1B" stroke-miterlimit="10" x1="51" y1="23.2" x2="50.4" y2="23.8"/>
	<path fill="none" stroke="#1D1D1B" stroke-width="2" stroke-linejoin="round" stroke-miterlimit="10" d="M50.4,23.8l-3.9-3.9
		c-0.4-0.4-1-0.4-1.4,0l-23,23c-0.4,0.4-0.4,1,0,1.4l3.9,3.9"/>
	<path fill="none" stroke="#1D1D1B" stroke-width="2" stroke-linejoin="round" stroke-miterlimit="10" d="M51.6,25
		C51.6,25,51.6,25,51.6,25L51.6,25C51.6,24.9,51.6,25,51.6,25z"/>
	<path fill="none" stroke="#1D1D1B" stroke-width="2" stroke-linejoin="round" stroke-miterlimit="10" d="M44.5,33.4l7.1-7.1
		c0,0,0,0,0-0.1"/>
	<path fill="none" stroke="#1D1D1B" stroke-width="2" stroke-linejoin="round" stroke-miterlimit="10" d="M51.9,25.5
		c0,0.1,0,0.3,0,0.4c0,0.1,0,0.2-0.1,0.3c0,0.1-0.1,0.1-0.1,0.2c0,0,0,0,0,0l-23.1,23c-0.4,0.4-1,0.4-1.4,0L22,44.3
		c-0.4-0.4-0.4-1,0-1.4l23-23.1c0.4-0.4,1-0.4,1.4,0l3.9,3.9l1.2,1.2c0,0,0,0,0,0c0,0,0.1,0.1,0.1,0.2
		C51.8,25.3,51.8,25.3,51.9,25.5z"/>
	
		<line fill="none" stroke="#1D1D1B" stroke-width="2" stroke-linecap="round" stroke-linejoin="round" stroke-miterlimit="10" x1="40.1" y1="30.6" x2="40.7" y2="31.3"/>
	<path fill="none" stroke="#1D1D1B" stroke-width="2" stroke-linecap="round" stroke-linejoin="round" stroke-miterlimit="10" d="
		M51,18.2l3.1-3c0.3-0.3,0.9-0.2,1.3,0.2l0.8,0.8c0.4,0.4,0.4,1,0.1,1.3l-3,2.9"/>
</g>
</svg>
