<?xml version="1.0" encoding="utf-8"?>
<!-- Generator: Adobe Illustrator 21.1.0, SVG Export Plug-In . SVG Version: 6.00 Build 0)  -->
<svg version="1.1" id="emoji" xmlns="http://www.w3.org/2000/svg" xmlns:xlink="http://www.w3.org/1999/xlink" x="0px" y="0px"
	 viewBox="0 0 72 72" enable-background="new 0 0 72 72" xml:space="preserve">
<g id="_xD83D__xDC81_">
	<path fill="none" stroke="#040404" stroke-width="2" stroke-linecap="round" stroke-linejoin="round" d="M20.6,39c-4,0-4-6-4-13
		s4-14,14-14s14,7,14,14s0,13-4,13"/>
	<path fill="none" stroke="#040404" stroke-width="2" stroke-linecap="round" stroke-linejoin="round" d="M11.6,60v-3c0-5,5-9,10-9
		c6,5,12,5,18,0c1.4,0,2.7,0.3,4,0.8"/>
	<path fill="#040404" d="M36.4,30c0,1.1-0.9,2-2,2s-2-0.9-2-2s0.9-2,2-2S36.4,28.9,36.4,30"/>
	<path fill="#040404" d="M28.4,30c0,1.1-0.9,2-2,2s-2-0.9-2-2s0.9-2,2-2S28.4,28.9,28.4,30"/>
	<path fill="none" stroke="#040404" stroke-width="2" stroke-linejoin="round" d="M19.5,31c0,9,4.9,14,11,14c5.9,0,11.1-5,11.1-14
		c0-3-1-5-1-5c-3-3-7-8-7-8c-4,3-7,6-13,7C20.6,25,19.5,26,19.5,31z"/>
	<path fill="none" stroke="#040404" stroke-width="2" stroke-linecap="round" stroke-linejoin="round" d="M27.6,38c1.9,0.9,4,1,6,0"
		/>
	<path fill="none" stroke="#000000" stroke-width="2" stroke-linecap="round" stroke-linejoin="round" stroke-miterlimit="10" d="
		M54.6,60l-1.9-13.3l0.9-1.2l6-2l5-6c0,0,1-1,0-2c-1-1-2,0-2,0l-3,3c-1,1-4,0-7,1s-5,3.2-5,5c0,5.6,0,15.6,0,15.6"/>
</g>
</svg>
