<svg id="emoji" viewBox="0 0 72 72" xmlns="http://www.w3.org/2000/svg">
  <g id="line">
    <g id="line-2">
      <path fill="none" stroke="#000" stroke-linecap="round" stroke-linejoin="round" stroke-width="2" d="m29.1505,50.0504l6.8495,8.4893,20.7339-25.6975-.0043-.0034c1.7301-2.1446,2.7704-4.8689,2.7704-7.8388"/>
      <path fill="none" stroke="#000" stroke-linecap="round" stroke-linejoin="round" stroke-width="2" d="m45.2493,12.6217c-4.0043.5613-7.3996,3.0202-9.2493,6.4381-2.1139-3.9062-6.2467-6.5598-11-6.5598-6.9036,0-12.5,5.5964-12.5,12.5,0,2.9699,1.0403,5.6942,2.7703,7.8387l-.0043.0034,2.1605,2.6777"/>
    </g>
    <path fill="none" stroke="#000" stroke-linecap="round" stroke-linejoin="round" stroke-width="2" d="m22.5556,32.4499l1.5469-8.0604.5052,3.0162c.081.4824,1.6827,10.0429,1.6827,10.0429.1889,1.1269,1.1869,2.0334,2.5426,2.3092l8.167,1.662-8.1728,1.663c-1.3523.2752-2.3482,1.1812-2.5369,2.3084l-2.1876,13.0587-2.1876-13.0582c-.1889-1.1272-1.1848-2.0333-2.5372-2.3085l-8.173-1.6629,8.1735-1.6634c1.352-.2753,2.2663-1.8467,2.455-2.9736"/>
    <path fill="none" stroke="#000" stroke-linecap="round" stroke-linejoin="round" stroke-width="2" d="m48.8482,14.267l1.2335-6.4275.4029,2.4052c.0646.3847,1.3418,8.0084,1.3418,8.0084.1506.8986.9465,1.6215,2.0275,1.8414l6.2626,1.3253-6.2671,1.3261c-1.0783.2194-1.8725.9419-2.023,1.8408l-1.7445,10.4133-1.7445-10.4129c-.1506-.8988-.9448-1.6214-2.0232-1.8409l-6.5174-1.326,6.5177-1.3264c1.0781-.2195,1.8072-1.4726,1.9577-2.3712"/>
  </g>
</svg>
