<?xml version="1.0" encoding="utf-8"?>
<!-- Generator: Adobe Illustrator 21.1.0, SVG Export Plug-In . SVG Version: 6.00 Build 0)  -->
<svg version="1.1" id="emoji" xmlns="http://www.w3.org/2000/svg" xmlns:xlink="http://www.w3.org/1999/xlink" x="0px" y="0px"
	 viewBox="0 0 72 72" enable-background="new 0 0 72 72" xml:space="preserve">
<g id="_xD83D__xDC9D_">
	
		<path fill="none" stroke="#070707" stroke-width="1.9121" stroke-linecap="round" stroke-linejoin="round" stroke-miterlimit="10" d="
		M59,29.6 M41.2,56.9L36,63.5c-0.2,0.2-0.5,0.4-0.8,0.4c-0.3,0-0.6-0.1-0.8-0.4L14.2,37.4l-0.7-1c-1.3-2.1-1.9-4.4-1.9-6.8
		c0-7.1,5.8-12.9,12.9-12.9c4.4,0,8.4,2.2,10.8,5.8c2.4-3.6,6.4-5.8,10.8-5.8c6.9,0,12.5,5.4,12.9,12.2 M41.2,56.9 M48.9,47
		l-5.3,6.7"/>
	<path fill="none" stroke="#000000" stroke-width="2" stroke-miterlimit="10" d="M60.8,29.4c-0.3-0.2-0.7-0.3-1-0.3
		c-1.3,0-3.1,0.6-4.8,1.4"/>
	<path fill="none" stroke="#000000" stroke-width="2" stroke-miterlimit="10" d="M49.8,41.3c6.8,2.1,8.5,7.4,11.9,2.9
		c3.5-4.6,2.1-13.1-0.9-14.8"/>
	<path fill="none" stroke="#000000" stroke-width="2" stroke-miterlimit="10" d="M54.9,30.6c-2.2,1.1-4.4,2.6-5.9,4.2"/>
	<path fill="none" stroke="#000000" stroke-width="2" stroke-linecap="round" stroke-linejoin="round" stroke-miterlimit="10" d="
		M43.9,42.2c-0.7,0.3-1.4,0.6-2,0.9c-1.3,1.7-3.6,5.2-6.1,10.8c-0.2,0.4,0.1,1,0.5,0.9l2.8-0.6c0.4-0.1,0.8,0.2,1,0.6l1.3,2.9
		c0.2,0.5,0.8,0.4,0.9-0.2c0.6-2.8,1.8-9,3.4-13.1C44.8,44.2,44.1,43.3,43.9,42.2z"/>
	<path fill="none" stroke="#000000" stroke-width="2" stroke-linecap="round" stroke-linejoin="round" stroke-miterlimit="10" d="
		M52,43.2c-0.6-0.4-1.3-0.7-2-1c-0.2,1.1-1,1.9-1.9,2.1c1.5,4.1,2.8,10.3,3.4,13.1c0.1,0.6,0.7,0.7,0.9,0.2l1.3-2.9
		c0.2-0.5,0.6-0.7,1-0.6l2.8,0.6c0.4,0.1,0.7-0.4,0.5-0.9C55.6,48.4,53.3,44.9,52,43.2z"/>
	<path fill="none" stroke="#000000" stroke-width="2" stroke-miterlimit="10" d="M47.1,33.9h-1c-1.3,0-2.4,1.4-2.4,3.1V41
		c0,1.7,1.1,3.1,2.4,3.1h1c1.3,0,2.4-1.4,2.4-3.1v-3.9C49.5,35.3,48.4,33.9,47.1,33.9z"/>
	<path fill="none" stroke="#000000" stroke-width="2" stroke-miterlimit="10" d="M44,35c-2.6-2.8-7.2-5.4-10.2-5.4
		c-3.6,0-5.8,10-1.9,15.1c3.4,4.5,5.1-0.8,11.9-2.9"/>
</g>
</svg>
