<svg id="emoji" xmlns="http://www.w3.org/2000/svg" viewBox="0 0 72 72">
  <g id="line">
    <path fill="none" stroke="#000000" stroke-width=".1841" stroke-linecap="round" stroke-linejoin="round" stroke-miterlimit="10" d="M23.0568,35.6316"/>
    <path fill="none" stroke="#000000" stroke-width="2" stroke-linecap="round" stroke-linejoin="round" stroke-miterlimit="10" d="M22.5556,37.4499l1.5469-8.0604l0.5052,3.0162c0.081,0.4824,1.6827,10.0429,1.6827,10.0429 c0.1889,1.1269,1.1869,2.0334,2.5426,2.3092L37,46.4198l-8.1728,1.663c-1.3523,0.2752-2.3482,1.1812-2.5369,2.3084l-2.1876,13.0587 l-2.1876-13.0582c-0.1889-1.1272-1.1848-2.0333-2.5372-2.3085l-8.173-1.6629l8.1735-1.6634 c1.352-0.2753,2.2663-1.8467,2.455-2.9736"/>
    <path fill="none" stroke="#000000" stroke-width="2" stroke-linecap="round" stroke-linejoin="round" stroke-miterlimit="10" d="M49.8482,20.267l1.2335-6.4275l0.4029,2.4052c0.0646,0.3847,1.3418,8.0084,1.3418,8.0084 c0.1506,0.8986,0.9465,1.6215,2.0275,1.8414l6.5126,1.3253l-6.5171,1.3261c-1.0783,0.2194-1.8725,0.9419-2.023,1.8408L51.0819,41 l-1.7445-10.4129c-0.1506-0.8988-0.9448-1.6214-2.0232-1.8409l-6.5174-1.326l6.5177-1.3264 c1.0781-0.2195,1.8072-1.4726,1.9577-2.3712"/>
    <path fill="none" stroke="#000000" stroke-width="2" stroke-linecap="round" stroke-linejoin="round" stroke-miterlimit="10" d="M46.3203,17.6751c-3.9386,0.4194-7.3646,2.8152-9.1257,6.4619c-0.1669,0.3453-0.5166,0.565-0.9003,0.565 c-0.3838,0-0.7339-0.2197-0.9004-0.565c-1.9444-4.0263-5.9185-6.5278-10.3711-6.5278c-6.3535,0-11.5225,5.169-11.5225,11.5225 c0,2.1167,0.5776,4.185,1.6714,5.9814l0.6602,0.9737l1.6832,2.1576 M29.517,53.6291l6.7773,8.6876l20.5825-26.3916 c0.8796-1.1989,1.5097-2.5434,1.8674-3.9708 M29.2582,53.2974l0.2588,0.3317 M29.2582,53.2974 M21.7132,43.6258 M17.5151,38.2444 l0.6467,0.829"/>
  </g>
</svg>
