<svg id="emoji" viewBox="0 0 72 72" version="1.1" xmlns="http://www.w3.org/2000/svg">
  <g id="line" fill="none" stroke="#000" stroke-linecap="round" stroke-linejoin="round" stroke-width="2">
    <g>
      <path d="m29.15 50.05 6.85 8.489 20.73-25.7-0.0043-0.0034c1.73-2.145 2.77-4.869 2.77-7.839"/>
      <path d="m45.25 12.62c-4.004 0.5613-7.4 3.02-9.249 6.438-2.114-3.906-6.247-6.56-11-6.56-6.904 0-12.5 5.596-12.5 12.5 0 2.97 1.04 5.694 2.77 7.839l-0.0043 0.0034 2.16 2.678"/>
    </g>
    <path d="m22.56 32.45 1.547-8.06 0.5052 3.016c0.081 0.4824 1.683 10.04 1.683 10.04 0.1889 1.127 1.187 2.033 2.543 2.309l8.167 1.662-8.173 1.663c-1.352 0.2752-2.348 1.181-2.537 2.308l-2.188 13.06-2.188-13.06c-0.1889-1.127-1.185-2.033-2.537-2.308l-8.173-1.663 8.174-1.663c1.352-0.2753 2.266-1.847 2.455-2.974"/>
    <path d="m48.85 14.27 1.234-6.428 0.4029 2.405c0.0646 0.3847 1.342 8.008 1.342 8.008 0.1506 0.8986 0.9465 1.622 2.028 1.841l6.263 1.325-6.267 1.326c-1.078 0.2194-1.872 0.9419-2.023 1.841l-1.744 10.41-1.744-10.41c-0.1506-0.8988-0.9448-1.621-2.023-1.841l-6.517-1.326 6.518-1.326c1.078-0.2195 1.807-1.473 1.958-2.371"/>
  </g>
</svg>
