<?xml version="1.0" encoding="utf-8"?>
<!-- Generator: Adobe Illustrator 21.1.0, SVG Export Plug-In . SVG Version: 6.00 Build 0)  -->
<svg version="1.1" id="emoji" xmlns="http://www.w3.org/2000/svg" xmlns:xlink="http://www.w3.org/1999/xlink" x="0px" y="0px"
	 viewBox="0 0 72 72" enable-background="new 0 0 72 72" xml:space="preserve">
<g id="_xD83D__xDC96_">
	
		<path fill="none" stroke="#000000" stroke-width="0.1841" stroke-linecap="round" stroke-linejoin="round" stroke-miterlimit="10" d="
		M23.1,35.6"/>
	<path fill="none" stroke="#000000" stroke-width="2" stroke-linecap="round" stroke-linejoin="round" stroke-miterlimit="10" d="
		M22.6,37.4l1.5-8.1l0.5,3c0.1,0.5,1.7,10,1.7,10c0.2,1.1,1.2,2,2.5,2.3l8.2,1.7l-8.2,1.7c-1.4,0.3-2.3,1.2-2.5,2.3l-2.2,13.1
		l-2.2-13.1c-0.2-1.1-1.2-2-2.5-2.3l-8.2-1.7l8.2-1.7c1.4-0.3,2.3-1.8,2.5-3"/>
	<path fill="none" stroke="#000000" stroke-width="2" stroke-linecap="round" stroke-linejoin="round" stroke-miterlimit="10" d="
		M49.8,20.3l1.2-6.4l0.4,2.4c0.1,0.4,1.3,8,1.3,8c0.2,0.9,0.9,1.6,2,1.8l6.5,1.3l-6.5,1.3c-1.1,0.2-1.9,0.9-2,1.8L51.1,41l-1.7-10.4
		c-0.2-0.9-0.9-1.6-2-1.8l-6.5-1.3l6.5-1.3c1.1-0.2,1.8-1.5,2-2.4"/>
	<path fill="none" stroke="#070707" stroke-width="2" stroke-linecap="round" stroke-linejoin="round" stroke-miterlimit="10" d="
		M46.3,17.7c-3.9,0.4-7.4,2.8-9.1,6.5c-0.2,0.3-0.5,0.6-0.9,0.6c-0.4,0-0.7-0.2-0.9-0.6c-1.9-4-5.9-6.5-10.4-6.5
		c-6.4,0-11.5,5.2-11.5,11.5c0,2.1,0.6,4.2,1.7,6l0.7,1l1.7,2.2 M29.5,53.6l6.8,8.7l20.6-26.4c0.9-1.2,1.5-2.5,1.9-4 M29.3,53.3
		l0.3,0.3 M29.3,53.3 M21.7,43.6 M17.5,38.2l0.6,0.8"/>
</g>
</svg>
