<?xml version="1.0" encoding="utf-8"?>
<!-- Generator: Adobe Illustrator 21.1.0, SVG Export Plug-In . SVG Version: 6.00 Build 0)  -->
<svg version="1.1" id="emoji" xmlns="http://www.w3.org/2000/svg" xmlns:xlink="http://www.w3.org/1999/xlink" x="0px" y="0px"
	 viewBox="0 0 72 72" enable-background="new 0 0 72 72" xml:space="preserve">
<g id="_xD83D__xDC97_">
	<path fill="none" stroke="#000000" stroke-width="2" stroke-linecap="round" stroke-linejoin="round" stroke-miterlimit="10" d="
		M61.7,28.1c0.2-1,0.3-2,0.3-3c0-7.2-5.8-13-13-13c-5,0-9.5,2.8-11.7,7.4c-0.2,0.4-0.6,0.6-1,0.6c-0.4,0-0.8-0.2-1-0.6
		c-2.2-4.5-6.7-7.4-11.7-7.4c-7.2,0-13,5.8-13,13c0,0.6,0,1.2,0.1,1.8 M60.1,31.9c0.7-1.2,1.2-2.4,1.5-3.7 M10.7,26.9
		c0.2,1.8,0.8,3.4,1.8,5"/>
	<path fill="none" stroke="#000000" stroke-width="2" stroke-linecap="round" stroke-linejoin="round" stroke-miterlimit="10" d="
		M54.3,38.2l0.7-1c1.3-1.8,2-4.1,2-6.4c0-6-4.7-10.8-10.5-10.8c-4,0-7.7,2.4-9.4,6.1c-0.2,0.3-0.5,0.5-0.8,0.5
		c-0.3,0-0.7-0.2-0.8-0.5c-1.8-3.8-5.4-6.1-9.4-6.1c-5.8,0-10.5,4.9-10.5,10.8c0,0.5,0,0.9,0.1,1.3 M17.1,36.4l0.6,0.9l0.6,0.8
		 M15.9,33.6c0.3,1,0.6,1.9,1.2,2.8 M15.7,32.2c0.1,0.5,0.2,1,0.3,1.5"/>
	<path fill="none" stroke="#000000" stroke-width="2" stroke-linecap="round" stroke-linejoin="round" stroke-miterlimit="10" d="
		M29,28c-4.1,0-7.4,3.8-7.4,8.5c0,1.6,0.4,3.1,1.1,4.4l0.4,0.7l13.2,19.3l13.3-19.4c0.9-1.4,1.4-3.2,1.4-5c0-4.7-3.3-8.5-7.4-8.5
		c-2.9,0-5.4,1.8-6.7,4.8c-0.1,0.3-0.3,0.4-0.6,0.4c-0.2,0-0.5-0.2-0.6-0.4C34.5,29.8,31.9,28,29,28z"/>
</g>
</svg>
