<svg id="emoji" viewBox="0 0 72 72" xmlns="http://www.w3.org/2000/svg">
  <g id="line">
    <g id="line_1_">
      <path fill="none" stroke="#000000" stroke-linecap="round" stroke-linejoin="round" stroke-miterlimit="10" stroke-width="2" d="M29.1505,50.0504L36,58.5397l20.7339-25.6975l-0.0043-0.0034C58.4597,30.6942,59.5,27.9699,59.5,25"/>
      <path fill="none" stroke="#000000" stroke-linecap="round" stroke-linejoin="round" stroke-miterlimit="10" stroke-width="2" d="M45.2493,12.6217C41.245,13.183,37.8497,15.6419,36,19.0598C33.8861,15.1536,29.7533,12.5,25,12.5 c-6.9036,0-12.5,5.5964-12.5,12.5c0,2.9699,1.0403,5.6942,2.7703,7.8387l-0.0043,0.0034l2.1605,2.6777"/>
    </g>
    <path fill="none" stroke="#000000" stroke-linecap="round" stroke-linejoin="round" stroke-miterlimit="10" stroke-width="0.1841" d="M23.0568,30.6316"/>
    <path fill="none" stroke="#000000" stroke-linecap="round" stroke-linejoin="round" stroke-miterlimit="10" stroke-width="2" d="M22.5556,32.4499l1.5469-8.0604l0.5052,3.0162c0.081,0.4824,1.6827,10.0429,1.6827,10.0429 c0.1889,1.1269,1.1869,2.0334,2.5426,2.3092L37,41.4198l-8.1728,1.663c-1.3523,0.2752-2.3482,1.1812-2.5369,2.3084l-2.1876,13.0587 l-2.1876-13.0582c-0.1889-1.1272-1.1848-2.0333-2.5372-2.3085l-8.173-1.6629l8.1735-1.6634 c1.352-0.2753,2.2663-1.8467,2.455-2.9736"/>
    <path fill="none" stroke="#000000" stroke-linecap="round" stroke-linejoin="round" stroke-miterlimit="10" stroke-width="2" d="M48.8482,14.267l1.2335-6.4275l0.4029,2.4052c0.0646,0.3847,1.3418,8.0084,1.3418,8.0084 c0.1506,0.8986,0.9465,1.6215,2.0275,1.8414l6.5126,1.3253l-6.5171,1.3261c-1.0783,0.2194-1.8725,0.9419-2.023,1.8408L50.0819,35 l-1.7445-10.4129c-0.1506-0.8988-0.9448-1.6214-2.0232-1.8409l-6.5174-1.326l6.5177-1.3264 c1.0781-0.2195,1.8072-1.4726,1.9577-2.3712"/>
  </g>
</svg>
