<?xml version="1.0" encoding="utf-8"?>
<!-- Generator: Adobe Illustrator 21.1.0, SVG Export Plug-In . SVG Version: 6.00 Build 0)  -->
<svg version="1.1" id="emoji" xmlns="http://www.w3.org/2000/svg" xmlns:xlink="http://www.w3.org/1999/xlink" x="0px" y="0px"
	 viewBox="0 0 72 72" enable-background="new 0 0 72 72" xml:space="preserve">
<g id="_xD83D__xDC98_">
	<path fill="#010103" d="M45.6,14.6c-4.6,0-8.8,2.3-11.3,6.1c-2.5-3.8-6.7-6.1-11.3-6.1c-7.5,0-13.5,6.1-13.5,13.5
		c0,2.5,0.7,4.9,2,7.1l0.7,1.1l8.3,10.6c0.5-0.5,1-0.9,1.4-1.4l-8.1-10.4l-0.7-1c-1.1-1.8-1.7-3.9-1.7-6c0-6.4,5.2-11.5,11.5-11.5
		c4.5,0,8.4,2.5,10.4,6.5c0.2,0.3,0.5,0.6,0.9,0.6c0.4,0,0.7-0.2,0.9-0.6c1.9-4,5.9-6.5,10.4-6.5c6.4,0,11.5,5.2,11.5,11.5
		c0,2.5-0.8,4.8-2.2,6.8L34.3,61.3l-8.5-10.9c0,0-1.3,1.4-1.4,1.5l9.1,11.7c0.2,0.2,0.5,0.4,0.8,0.4s0.6-0.1,0.8-0.4l21.4-27.4
		c1.7-2.3,2.6-5.1,2.6-8C59.1,20.7,53,14.6,45.6,14.6z"/>
	
		<line fill="none" stroke="#010103" stroke-width="2" stroke-linecap="round" stroke-linejoin="round" stroke-miterlimit="10" x1="32.5" y1="39.5" x2="19" y2="53"/>
	
		<line fill="none" stroke="#010103" stroke-width="2" stroke-linecap="round" stroke-linejoin="round" stroke-miterlimit="10" x1="59.5" y1="12.5" x2="56" y2="16"/>
	
		<polygon fill="none" stroke="#010103" stroke-width="2" stroke-linecap="round" stroke-linejoin="round" stroke-miterlimit="10" points="
		18.6,53.5 11.6,53.5 5.2,59.9 12.1,59.9 12.1,66.9 18.6,60.4 	"/>
	
		<polygon fill="none" stroke="#010103" stroke-width="2" stroke-linecap="round" stroke-linejoin="round" stroke-miterlimit="10" points="
		66.2,5.6 64.9,10.5 63.7,15.3 60.1,11.7 56.5,8.1 61.3,6.9 	"/>
</g>
</svg>
