<?xml version="1.0" encoding="utf-8"?>
<!-- Generator: Adobe Illustrator 19.1.0, SVG Export Plug-In . SVG Version: 6.00 Build 0)  -->
<svg version="1.1" id="emoji" xmlns="http://www.w3.org/2000/svg" xmlns:xlink="http://www.w3.org/1999/xlink" x="0px" y="0px"
	 viewBox="0 0 72 72" enable-background="new 0 0 72 72" xml:space="preserve">
<g id="_xD83D__xDC90__1_">
	<path fill="none" stroke="#000000" stroke-width="2" stroke-linecap="round" stroke-linejoin="round" d="M36,56.1
		c0,0-15.1-4-19-11.9c-4-8.1-2.8-26.5-2.8-26.5S16.8,46.4,36,56.1z"/>
	<path fill="none" stroke="#000000" stroke-width="2" stroke-linecap="round" stroke-linejoin="round" d="M36,56.1
		c0,0,9.1-2.6,15.6-9.2c9.2-9.3,2.7-32.2,2.7-32.2s-0.8,0.3-2.2,3"/>
	<path fill="none" stroke="#1D1E1C" stroke-width="2" stroke-linecap="round" stroke-linejoin="round" d="M24.7,18.3"/>
	<path fill="none" stroke="#000000" stroke-width="2" stroke-linecap="round" stroke-linejoin="round" d="M27.9,39.1
		c0.1,3.9,0.5,11.5,7.5,16.4"/>
	<path fill="none" stroke="#000000" stroke-width="2" stroke-linecap="round" stroke-linejoin="round" d="M34.4,19.7
		c2.2,0.6,5.9,9.4,2.9,13.9c-1,1.4-2.2,2.2-4.1,2.4c-1,0.1-2,0.1-3-0.2l0,0c-2.2-0.5-3.7-2.7-3.9-5C25.8,25.3,32.2,19.2,34.4,19.7"
		/>
	<g>
		<path fill="none" stroke="#000000" stroke-width="2" stroke-linecap="round" stroke-linejoin="round" d="M28.2,17.4
			c0.9-1.5,2.2-2.6,2.9-2.5"/>
		<path fill="none" stroke="#000000" stroke-width="2" stroke-linecap="round" stroke-linejoin="round" d="M31.1,14.9
			c0.5,0.1,1.4,1.1,1.9,2.4"/>
	</g>
	<path fill="none" stroke="#000000" stroke-width="2" stroke-linecap="round" stroke-linejoin="round" d="M25.1,35.8
		c-2.3,0.2-3.8-1.7-4.6-3.8c-2-5,2.6-12.7,4.8-12.8"/>
	<path fill="none" stroke="#1D1E1C" stroke-width="2" stroke-linecap="round" stroke-linejoin="round" d="M25.1,19.2
		c0.6,0,1.3,0.4,2.2,1.3"/>
	<path fill="none" stroke="#D1CC1A" stroke-width="2" stroke-linecap="round" stroke-linejoin="round" d="M38.6,15.8"/>
	<path fill="none" stroke="#000000" stroke-width="2" stroke-linecap="round" stroke-linejoin="round" d="M44.6,39.1
		c-0.1,3.9-1.6,12.2-8.6,17"/>
	<path fill="none" stroke="#000000" stroke-width="2" stroke-linecap="round" stroke-linejoin="round" d="M30.9,58.7
		c-2.8,0.9-6.2,1.5-9.7,1"/>
	<path fill="none" stroke="#000000" stroke-width="2" stroke-linecap="round" stroke-linejoin="round" d="M40.2,58.5
		c0.3,0.1,0.5,0.2,0.9,0.3c2.7,0.9,5.9,1.4,9.3,0.8"/>
	<path fill="none" stroke="#1D1E1C" stroke-width="2" stroke-linecap="round" stroke-linejoin="round" d="M48.4,20.2"/>
	<path fill="none" stroke="#000000" stroke-width="2" stroke-linecap="round" stroke-linejoin="round" d="M39.8,36
		c0.8,0,1.6,0,2.4-0.2l0,0c2.2-0.5,3.7-2.7,3.9-5c0.5-4.6-4-9.7-6.8-10.9"/>
	<path fill="none" stroke="#1D1E1C" stroke-width="2" stroke-linecap="round" stroke-linejoin="round" d="M38,19.7"/>
	<g>
		<path fill="none" stroke="#000000" stroke-width="2" stroke-linecap="round" stroke-linejoin="round" d="M44.3,17.4
			c-0.9-1.5-2.2-2.6-2.9-2.5"/>
		<path fill="none" stroke="#000000" stroke-width="2" stroke-linecap="round" stroke-linejoin="round" d="M41.4,14.9
			C40.8,15,40,16,39.4,17.3"/>
	</g>
	<path fill="none" stroke="#000000" stroke-width="2" stroke-linecap="round" stroke-linejoin="round" d="M47.3,35.8
		c2.3,0.2,3.8-1.7,4.6-3.8c2-5-2.6-12.7-4.8-12.8"/>
	<path fill="none" stroke="#000000" stroke-width="2" stroke-linecap="round" stroke-linejoin="round" d="M47.3,19.2
		c-0.6,0-1.3,0.4-2.2,1.3"/>
	<path fill="none" stroke="#D1CC1A" stroke-width="2" stroke-linecap="round" stroke-linejoin="round" d="M33.3,19"/>
	<path fill="none" stroke="#D1CC1A" stroke-width="2" stroke-linecap="round" stroke-linejoin="round" d="M23.5,13.2"/>
	<path fill="none" stroke="#000000" stroke-width="2" stroke-linecap="round" stroke-linejoin="round" d="M29.1,58c0,0,4.4,1.9,14,0
		"/>
</g>
</svg>
