<svg id="emoji" viewBox="0 0 72 72" xmlns="http://www.w3.org/2000/svg">
  <g id="line">
    <path fill="none" stroke="#000" stroke-linecap="round" stroke-linejoin="round" stroke-miterlimit="10" stroke-width="2" d="m52.55 23.75c0 3.985-1.785 5.908-3.754 10.5-0.5028 1.172-4.211 13.38-4.211 13.38h-17.17s-2.981-11.67-3.546-12.62c-2.37-3.998-4.419-6.91-4.419-11.26 0-9.141 7.41-16.55 16.55-16.55 9.141 0 16.55 7.41 16.55 16.55z"/>
    <line x1="36" x2="36" y1="47.22" y2="35.28" stroke="#000" stroke-linecap="round" stroke-linejoin="round" stroke-miterlimit="10" stroke-width="2"/>
    <line x1="41.97" x2="30.03" y1="35.28" y2="35.28" stroke="#000" stroke-linecap="round" stroke-linejoin="round" stroke-miterlimit="10" stroke-width="2"/>
    <path fill="none" stroke="#000" stroke-linecap="round" stroke-linejoin="round" stroke-miterlimit="10" stroke-width="1.696" d="m44.16 58.79c0 3.24-3.651 5.867-8.155 5.867-4.504 0-8.155-2.627-8.155-5.867z"/>
    <line x1="27.99" x2="44.01" y1="54.98" y2="51.51" stroke="#000" stroke-linecap="round" stroke-linejoin="round" stroke-miterlimit="10" stroke-width="1.965"/>
    <line x1="38.2" x2="43.98" y1="56.07" y2="54.89" stroke="#000" stroke-linecap="round" stroke-linejoin="round" stroke-miterlimit="10" stroke-width="2"/>
    <line x1="28.02" x2="33.8" y1="51.6" y2="50.42" stroke="#000" stroke-linecap="round" stroke-linejoin="round" stroke-miterlimit="10" stroke-width="2"/>
  </g>
</svg>
