<svg id="emoji" viewBox="0 0 72 72" xmlns="http://www.w3.org/2000/svg">
  <g id="line">
    <path fill="none" stroke="#000000" stroke-linecap="round" stroke-linejoin="round" stroke-miterlimit="10" stroke-width="2" d="M5,42.2734l14.3524,6.1074c-0.0001,0.0239-0.0035,0.047-0.0035,0.071c0.0014,6.6537,5.3965,12.0464,12.0501,12.0449 c4.8176-0.001,8.962-2.8365,10.8885-6.9231c1.2585,0.8182,2.7574,1.2979,4.3704,1.2975c3.9024-0.0009,7.1514-2.7856,7.8764-6.4755 c0.3167,0.0249,0.634,0.0482,0.9571,0.0482c6.6537-0.0015,12.0464-5.3965,12.0449-12.0502s-5.3963-12.0463-12.05-12.0449 c-0.3898,0.0001-0.7744,0.0223-1.1547,0.0586c-1.0062-3.2881-4.0639-5.6796-7.6814-5.6788 c-1.3943,0.0003-2.705,0.3568-3.8475,0.982c-1.6049-4.7693-6.1041-8.2084-11.4143-8.2072 c-6.6537,0.0015-12.0464,5.3965-12.0449,12.0502c0.0001,0.5504,0.05,1.088,0.1216,1.6188L5,31.3276"/>
    <path fill="none" stroke="#000000" stroke-linecap="round" stroke-linejoin="round" stroke-miterlimit="10" stroke-width="2" d="M5,25.4967l9-4c0,0-1-5,4-8"/>
    <path fill="none" stroke="#000000" stroke-linecap="round" stroke-linejoin="round" stroke-miterlimit="10" stroke-width="2" d="M5,47.4967l9,4c0,0-1,5,4,8"/>
  </g>
</svg>
