<svg id="emoji" xmlns="http://www.w3.org/2000/svg" viewBox="0 0 72 72">
  <g id="line">
    <path d="M36.1351,16.23c-8.293,0-16.662-4.3137-16.662-4.3137-.9777-.504-1.3268-.1374-.7757.8146,0,0,5.9136,10.2144,17.4377,10.1261,11.5242.0883,17.4377-10.1261,17.4377-10.1261.5512-.952.2021-1.3186-.7757-.8146C52.7971,11.9163,44.4282,16.23,36.1351,16.23Z" fill="none" stroke="#1d1d1b" stroke-linecap="round" stroke-miterlimit="10" stroke-width="2"/>
    <path d="M36.1351,54.553c8.2931,0,16.662,4.3137,16.662,4.3137.9778.504,1.3269.1374.7757-.8145,0,0-5.9135-10.2145-17.4377-10.1262C24.611,47.8377,18.6974,58.0522,18.6974,58.0522c-.5511.9519-.202,1.3185.7757.8145C19.4731,58.8667,27.8421,54.553,36.1351,54.553Z" fill="none" stroke="#1d1d1b" stroke-linecap="round" stroke-miterlimit="10" stroke-width="2"/>
    <path d="M55.77,34.9181c0-8.293,4.3137-16.662,4.3137-16.662.504-.9777.1374-1.3268-.8146-.7756,0,0-10.2144,5.9135-10.1261,17.4376-.0883,11.5242,10.1261,17.4377,10.1261,17.4377.952.5512,1.3186.2021.8146-.7756C60.0837,51.58,55.77,43.2112,55.77,34.9181Z" fill="none" stroke="#1d1d1b" stroke-linecap="round" stroke-miterlimit="10" stroke-width="2"/>
    <path d="M16.5,34.9181c0,8.2931-4.3137,16.6621-4.3137,16.6621-.504.9777-.1374,1.3268.8145.7756,0,0,10.2145-5.9135,10.1262-17.4377.0883-11.5241-10.1262-17.4376-10.1262-17.4376-.9519-.5512-1.3185-.2021-.8145.7756C12.1866,18.2561,16.5,26.6251,16.5,34.9181Z" fill="none" stroke="#1d1d1b" stroke-linecap="round" stroke-miterlimit="10" stroke-width="2"/>
  </g>
</svg>
