<svg id="emoji" viewBox="0 0 72 72" xmlns="http://www.w3.org/2000/svg">
  <g id="line">
    <path fill="none" stroke="#000" stroke-linecap="round" stroke-miterlimit="10" stroke-width="2" d="m13.9792,56.7778c.3645.3645.8533.5189,1.325.4674,0,0,8.9017.0515,13.9615-4.8025.0643-.0557.1243-.1157.1843-.1758,1.8352-1.8352,1.8309-4.8068,0-6.6377-1.831-1.831-4.8025-1.8352-6.6377,0l-8.8331,8.8331c-.6389.639-.6389,1.6766,0,2.3155Z"/>
    <line x1="17.2365" x2="17.2265" y1="57.1391" y2="57.1291" fill="none" stroke="#000" stroke-linecap="round" stroke-miterlimit="10" stroke-width="2"/>
    <path fill="none" stroke="#000" stroke-linecap="round" stroke-miterlimit="10" stroke-width="2" d="m22.1465,53.0191c.12.81-.36,1.98-1.31,2.98-.29.3-.59.56-.9.76"/>
    <path fill="none" stroke="#000" stroke-linecap="round" stroke-miterlimit="10" stroke-width="2" d="m17.9665,55.6591c-.08.58-.36,1.11-.8,1.49"/>
    <path fill="none" stroke="#000" stroke-linecap="round" stroke-linejoin="round" stroke-width="2" d="m41.0551,53.3579l-18.6127-18.6128c-.3905-.3905-.3905-1.0237,0-1.4142l11.2424-11.2424c.3905-.3905,1.0237-.3905,1.4142,0l18.6127,18.6127c.3905.3905.3905,1.0237,0,1.4142l-11.2424,11.2425c-.3905.3905-1.0237.3905-1.4142,0Z"/>
    <path fill="none" stroke="#000" stroke-linecap="round" stroke-linejoin="round" stroke-width="2" d="m47.425,35.1923l-11.7327,11.7327c-.0422.0422-.0886.0725-.1392.0987-.2062.1007-.4716.0578-.6501-.1206l-6.2227-6.2227c-.1785-.1785-.2214-.4439-.1206-.6501.0262-.0505.0565-.097.0987-.1392l11.7326-11.7328c.0422-.0422.0887-.0725.1392-.0987.2062-.1007.4716-.0578.6501.1206l6.2227,6.2227c.1785.1785.2214.4439.1206.6501-.0262.0506-.0564.0971-.0986.1393Z"/>
    <path fill="none" stroke="#000" stroke-linecap="round" stroke-miterlimit="10" stroke-width="2" d="m57.1856,13.5714c.3645.3645.5189.8533.4674,1.325,0,0,.0515,8.9017-4.8025,13.9615-.0557.0643-.1158.1243-.1758.1844-1.8352,1.8352-4.8068,1.8309-6.6377,0-1.831-1.831-1.8352-4.8025,0-6.6377l8.8331-8.8331c.639-.639,1.6766-.639,2.3155,0Z"/>
    <line x1="57.5468" x2="57.5368" y1="16.8287" y2="16.8187" fill="none" stroke="#000" stroke-linecap="round" stroke-miterlimit="10" stroke-width="2"/>
    <path fill="none" stroke="#000" stroke-linecap="round" stroke-miterlimit="10" stroke-width="2" d="m53.4268,21.7387c.81.12,1.98-.36,2.98-1.31.3-.29.56-.59.76-.9"/>
    <path fill="none" stroke="#000" stroke-linecap="round" stroke-miterlimit="10" stroke-width="2" d="m56.0668,17.5587c.58-.08,1.11-.36,1.49-.8"/>
  </g>
</svg>
