<svg id="emoji" viewBox="0 0 72 72" xmlns="http://www.w3.org/2000/svg">
  <g id="line">
    <path fill="#000000" stroke="none" d="M16.4861,34.8186c0.0913-0.4585,0.1988-0.9108,0.3247-1.3545C16.6826,33.9366,16.5764,34.3889,16.4861,34.8186z"/>
    <path fill="#000000" stroke="none" d="M17.0849,32.53c-0.1051,0.3064-0.1854,0.6218-0.274,0.9341C16.8937,33.1588,16.9835,32.8478,17.0849,32.53z"/>
    <path fill="#000000" stroke="none" d="M16.3149,35.7c0.0483-0.2778,0.107-0.5753,0.1713-0.8814C16.4278,35.1117,16.3585,35.3998,16.3149,35.7z"/>
    <path fill="#000000" stroke="none" d="M16.0158,44.583"/>
    <path fill="#000000" stroke="none" d="M16.0649,37.91c-0.02,0.27-0.03,0.53-0.03,0.8C16.0349,38.56,16.0349,38.29,16.0649,37.91z"/>
    <line x1="42.3576" x2="29.5249" y1="19.8333" y2="19.8333" fill="none" stroke="#000000" stroke-linecap="round" stroke-miterlimit="10" stroke-width="2"/>
    <path fill="none" stroke="#000000" stroke-linecap="round" stroke-linejoin="round" stroke-miterlimit="10" stroke-width="2" d="M56.7197,40.0422c0,11.4368-9.2781,20.7148-20.7148,20.7148c-11.4471,0-20.7252-9.2781-20.7252-20.7148c0,0,0-0.0519,0-0.1349 c0-0.2802,0.0104-0.55,0.0311-0.8302c0-0.1141,0.0104-0.2387,0.0208-0.3736c0.0104-0.1764,0.0312-0.3736,0.0519-0.5812 c0.0312-0.2595,0.0623-0.5501,0.1141-0.8614c0.0208-0.1556,0.0519-0.3113,0.0727-0.4774c0.1661-0.9548,0.4152-2.086,0.7991-3.2899 c0.0623-0.1972,0.1349-0.4047,0.2076-0.6123c0.2179-0.5812,0.4566-1.1831,0.7368-1.7955c0.0312-0.0726,0.0623-0.1452,0.1038-0.2075 c0.6745-1.4322,2.6879-4.1306,2.6879-4.1306c1.152-1.3803,2.4804-2.6049,3.9541-3.6427c0.1142-0.083,0.2387-0.166,0.3529-0.2387 c0.0312-0.0208,0.0727-0.0519,0.1038-0.0727c2.9578-2.1898,2.003-4.1409,0.851-5.3032c-0.5916-0.218-1.1001-0.6123-1.4529-1.1105 c-0.0208-0.0104-0.0312-0.0208-0.0312-0.0208c-0.3944-0.5396-0.6227-1.1934-0.6227-1.8992v-0.0208 c0-1.7747,1.4529-3.238,3.238-3.238h18.9298c1.7851,0,3.238,1.4633,3.238,3.238v0.0208c0,0.7368-0.2595,1.4322-0.6849,1.9822 c-0.3321,0.4359-0.7784,0.7784-1.2869,0.9963c-0.0104,0-0.0104,0-0.0104,0c-1.1727,1.1623-2.2002,3.1342,0.7991,5.3551 c0.0312,0.0208,0.0727,0.0519,0.1038,0.0727c0.1141,0.0727,0.2387,0.1557,0.3528,0.2387c1.4737,1.0378,2.8021,2.2625,3.9541,3.6427 c1.0482,1.2558,1.9615,2.6361,2.688,4.1306c0.0415,0.0623,0.0727,0.1349,0.1038,0.2075c0.1557,0.3321,0.2906,0.6538,0.4255,0.9859 c0.1038,0.2698,0.2076,0.5397,0.3009,0.7991c0.1038,0.2802,0.1868,0.55,0.2698,0.8095c0,0.0104,0.0104,0.0208,0.0104,0.0312 c0.0727,0.2491,0.1453,0.5085,0.2179,0.7576c0.0104,0.0415,0.0312,0.0934,0.0416,0.1349c0.0311,0.1141,0.0623,0.218,0.083,0.3321 c0.0415,0.1557,0.083,0.3113,0.1141,0.4774c0.0311,0.1556,0.0727,0.3009,0.1038,0.4566c0.0312,0.1245,0.0623,0.2595,0.083,0.3944 c0,0.0103,0,0.0311,0.0104,0.0415c0.0519,0.2906,0.1038,0.5604,0.1452,0.8199c0.0519,0.3633,0.0934,0.6954,0.1246,0.9963 c0.0207,0.2076,0.0415,0.4048,0.0519,0.5812C56.7301,39.5441,56.7197,40.0422,56.7197,40.0422z"/>
    <path fill="none" stroke="#000000" stroke-linecap="round" stroke-linejoin="round" stroke-miterlimit="10" stroke-width="2" d="M39.1902,36.3571c-0.2715-1.0566-1.4456-1.8514-2.8529-1.8514h-0.0001c-1.6083,0-2.9121,1.0381-2.9121,2.3188 s1.3038,2.3188,2.9121,2.3188l-0.0591,0.0086c1.6083,0,2.9121,1.0381,2.9121,2.3188s-1.3038,2.3188-2.9121,2.3188l0,0 c-1.4073,0-2.5815-0.7947-2.853-1.8514"/>
    <line x1="36.3076" x2="36.3076" y1="34.5056" y2="32.295" fill="none" stroke="#000000" stroke-linecap="round" stroke-linejoin="round" stroke-miterlimit="10" stroke-width="2"/>
    <line x1="36.3076" x2="36.3076" y1="46" y2="43.7893" fill="none" stroke="#000000" stroke-linecap="round" stroke-linejoin="round" stroke-miterlimit="10" stroke-width="2"/>
    <path fill="none" stroke="#000000" stroke-linecap="round" stroke-linejoin="round" stroke-miterlimit="10" stroke-width="2" d="M22,20c0,0-6,0-6,6"/>
    <path fill="none" stroke="#000000" stroke-linecap="round" stroke-linejoin="round" stroke-miterlimit="10" stroke-width="2" d="M17,18c0,0-2,0-2-2"/>
  </g>
</svg>
