<svg id="emoji" viewBox="0 0 72 72" xmlns="http://www.w3.org/2000/svg">
  <g id="line">
    <rect x="11" y="10.9583" width="50" height="50" fill="none" stroke="#000000" stroke-linecap="round" stroke-linejoin="round" stroke-miterlimit="10" stroke-width="2"/>
    <path fill="none" stroke="#000000" stroke-linecap="round" stroke-linejoin="round" stroke-miterlimit="10" stroke-width="2" d="M52.5498,47.1172c-3.5867,5.309-9.6606,8.7994-16.5498,8.7994c-11.0227,0-19.9583-8.9356-19.9583-19.9583S24.9773,16,36,16 c6.8569,0,12.9061,3.4578,16.4992,8.7249"/>
    <path fill="none" stroke="#000000" stroke-linecap="round" stroke-linejoin="round" stroke-miterlimit="10" stroke-width="2" d="M52.5498,47.0458c-3.5867,5.309-9.6606,8.7994-16.5498,8.7994c-11.0227,0-19.9583-8.9356-19.9583-19.9583 S24.9773,15.9286,36,15.9286c6.8569,0,12.9061,3.4578,16.4992,8.7249"/>
    <circle cx="36" cy="35.9583" r="5" fill="none" stroke="#000000" stroke-linecap="round" stroke-linejoin="round" stroke-miterlimit="10" stroke-width="2"/>
    <polyline fill="none" stroke="#000000" stroke-linecap="round" stroke-linejoin="round" stroke-miterlimit="10" stroke-width="2" points="44,36.5005 44,41.9751 61,44.4334 61,36.5 61,36.4334 61,28.5 44,30.9583 44,36.4329"/>
  </g>
</svg>
