<svg id="emoji" xmlns="http://www.w3.org/2000/svg" viewBox="0 0 72 72">
  <g id="line">
    <path fill="none" stroke="#000000" stroke-width="2" stroke-linecap="round" stroke-linejoin="round" stroke-miterlimit="10" d="
		M49.2446,52.5931H29.9128c-0.5523,0-1,0.4477-1,1V57.5c0,1.3807,1.1193,2.5,2.5,2.5h17.8318c0.5523,0,1-0.4477,1-1v-5.4069
		C50.2446,53.0408,49.7969,52.5931,49.2446,52.5931z"></path>
    <path fill="none" stroke="#000000" stroke-width="2" stroke-linecap="round" stroke-linejoin="round" stroke-miterlimit="10" d="
		M50.5779,46.6676H28.5796c-0.5523,0-1,0.4477-1,1v3.4069c0,1.6569,1.3431,3,3,3h17.9983c1.6568,0,3-1.3431,3-3v-3.4069
		C51.5779,47.1153,51.1301,46.6676,50.5779,46.6676z"></path>
    <path fill="none" stroke="#000000" stroke-width="2" stroke-linecap="round" stroke-linejoin="round" stroke-miterlimit="10" d="
		M33.917,43.1837l-9.2373-29.4265c-0.1654-0.5269-0.7266-0.82-1.2535-0.6546l-5.1587,1.6194
		c-0.527,0.1654-0.82,0.7266-0.6546,1.2536l9.2372,29.4264c0.1654,0.527,0.7267,0.82,1.2536,0.6546l5.1587-1.6193
		C33.7893,44.2718,34.0824,43.7106,33.917,43.1837z"></path>
    <path fill="none" stroke="#000000" stroke-width="2" stroke-linecap="round" stroke-linejoin="round" stroke-miterlimit="10" d="
		M52.91,43.22v3.93c0,0.55-0.45,1-1,1H27.25c-0.56,0-1-0.45-1-1v-3.66l-8.64-27.51c-0.16-0.53,0.13-1.09,0.66-1.26l5.16-1.62
		c0.52-0.16,1.08,0.13,1.25,0.66l8.94,28.46h18.29C52.46,42.22,52.91,42.67,52.91,43.22z"></path>
    <path fill="none" stroke="#000000" stroke-width="2" stroke-linecap="round" stroke-linejoin="round" stroke-miterlimit="10" d="
		M29.4966,24.3829l-3.3355-10.6257c-0.1654-0.5269-0.7266-0.82-1.2536-0.6546l-1.0688,0.3355
		c-0.527,0.1654-0.82,0.7267-0.6546,1.2536l3.3355,10.6257c0.1654,0.5269,0.7266,0.82,1.2536,0.6546l1.0688-0.3355
		C29.369,25.4711,29.662,24.9098,29.4966,24.3829z"></path>
    <path fill="none" stroke="#000000" stroke-width="1.9136" stroke-linecap="round" stroke-linejoin="round" stroke-miterlimit="10" d="
		M46.0288,33.3353h-17.072C28.4284,33.3353,28,33.7636,28,34.292v2.5306c0,0.5284,0.4284,0.9568,0.9568,0.9568h17.072
		c0.5284,0,0.9568-0.4284,0.9568-0.9568V34.292C46.9856,33.7636,46.5572,33.3353,46.0288,33.3353z"></path>
  </g>
</svg>