<?xml version="1.0" encoding="utf-8"?>
<!-- Generator: Adobe Illustrator 19.1.0, SVG Export Plug-In . SVG Version: 6.00 Build 0)  -->
<svg version="1.1" id="emoji" xmlns="http://www.w3.org/2000/svg" xmlns:xlink="http://www.w3.org/1999/xlink" x="0px" y="0px"
	 viewBox="0 0 72 72" enable-background="new 0 0 72 72" xml:space="preserve">
<g id="_xD83D__xDCB5__1_">
	<path fill="none" stroke="#000000" stroke-width="2" stroke-linecap="round" stroke-linejoin="round" stroke-miterlimit="10" d="
		M48.7,24.2h4.9c0.1,2.1,1.9,3.8,4.1,3.8c0.1,0,0.3,0,0.4,0v17.9c-0.1,0-0.3,0-0.4,0c-2.2,0-4,1.7-4.1,3.8h-4.9 M23.8,49.7H22h-3
		c-0.1-2.1-1.9-3.8-4-3.8c-0.1,0-0.3,0-0.4,0V28c0.1,0,0.2,0,0.4,0c2.2,0,3.9-1.7,4-3.8h4.4"/>
	<path fill="none" stroke="#000000" stroke-width="2" stroke-linecap="round" stroke-linejoin="round" stroke-miterlimit="10" d="
		M44.7,22.4v29.3c0,0.1,0,0.2,0,0.3c-0.1,0.4-0.5,0.7-1,0.7H28.3c-0.4,0-0.8-0.3-1-0.7c0-0.1,0-0.2,0-0.3V22.4c0-0.1,0-0.2,0-0.3
		c0.1-0.4,0.5-0.7,1-0.7h15.3c0.4,0,0.8,0.3,1,0.7C44.7,22.2,44.7,22.3,44.7,22.4z"/>
	<path fill="none" stroke="#000000" stroke-width="2" stroke-linecap="round" stroke-linejoin="round" stroke-miterlimit="10" d="
		M23.8,52.6H12.6c-0.6,0-1-0.4-1-1V22.4c0-0.6,0.4-1,1-1h10.8"/>
	<path fill="none" stroke="#1D1D1B" stroke-width="2" stroke-linecap="round" stroke-linejoin="round" stroke-miterlimit="10" d="
		M48.4,21.4H60c0.6,0,1,0.4,1,1v29.2c0,0.6-0.4,1-1,1H48.4"/>
	<g>
		<path fill="none" stroke="#000000" stroke-width="2" stroke-linecap="round" stroke-miterlimit="10" d="M47.4,29.6
			c2.9,1.8,4.8,4.3,4.8,7.1c0,2.8-1.9,5.3-4.8,7.1"/>
		<path fill="none" stroke="#000000" stroke-width="2" stroke-linecap="round" stroke-miterlimit="10" d="M23.4,42.9
			c-2.2-1.7-3.6-3.9-3.6-6.3c0-2.6,1.6-4.9,4.1-6.7"/>
	</g>
	<g>
		<path fill="none" stroke="#000000" stroke-width="2" stroke-linecap="round" stroke-linejoin="round" stroke-miterlimit="10" d="
			M38.3,34.2c-0.2-0.9-1.2-1.5-2.3-1.5h0c-1.3,0-2.3,0.8-2.3,1.9c0,1,1.1,1.9,2.3,1.9l0,0c1.3,0,2.3,0.8,2.3,1.9
			c0,1-1.1,1.9-2.3,1.9l0,0c-1.1,0-2.1-0.6-2.3-1.5"/>
		
			<line fill="none" stroke="#000000" stroke-width="2" stroke-linecap="round" stroke-linejoin="round" stroke-miterlimit="10" x1="36" y1="32.7" x2="36" y2="30.9"/>
		
			<line fill="none" stroke="#000000" stroke-width="2" stroke-linecap="round" stroke-linejoin="round" stroke-miterlimit="10" x1="36" y1="42" x2="36" y2="40.2"/>
	</g>
</g>
</svg>
