<svg id="emoji" viewBox="0 0 72 72" xmlns="http://www.w3.org/2000/svg">
  <g id="line">
    <polyline fill="none" stroke="#000" stroke-linecap="round" stroke-linejoin="round" stroke-width="2" points="53.3494 12.2734 60 12.2734 60 28.2734 12 28.2734 12 12.2734 20.4608 12.2734"/>
    <line x1="25.5657" x2="48.4804" y1="12.2734" y2="12.2734" fill="none" stroke="#000" stroke-linecap="round" stroke-linejoin="round" stroke-width="2"/>
    <path fill="none" stroke="#000" stroke-linecap="round" stroke-linejoin="round" stroke-width="2" d="m53.3494,12.2752l-1.9644,3.1214s.9936,2.767,1.0851,2.8995c.3399.4916.5366,1.0894.5304,1.7326-.0158,1.6567-1.3717,2.987-3.0285,2.9712-1.6568-.0159-2.987-1.3718-2.9712-3.0286.006-.6212.2003-1.1966.5284-1.6723.0816-.1184-.9091-2.9024-.9091-2.9024l1.8603-3.1332"/>
    <path fill="none" stroke="#000" stroke-linecap="round" stroke-linejoin="round" stroke-width="2" d="m25.3298,12.2752l-1.9644,3.1214s.9936,2.767,1.0851,2.8995c.3399.4916.5366,1.0894.5304,1.7326-.0158,1.6567-1.3717,2.987-3.0285,2.9712-1.6568-.0159-2.987-1.3718-2.9712-3.0286.006-.6212.2003-1.1966.5284-1.6723.0816-.1184-.9091-2.9024-.9091-2.9024l1.8603-3.1332"/>
    <path fill="none" stroke="#000" stroke-linecap="round" stroke-linejoin="round" stroke-width="2" d="m34.3355,38.092c.5248-2.5644,2.7937-4.4936,5.5134-4.4936h0c1.5539,0,2.9609.63,3.9793,1.6484,1.5843,1.5842,1.438,4.2167-.0484,5.8928l-9.5586,10.7799h4.7601"/>
    <polyline fill="none" stroke="#000" stroke-linecap="round" stroke-linejoin="round" stroke-width="2" points="23.2764 37.3982 28.3485 33.5984 28.3485 51.9195"/>
    <polyline fill="none" stroke="#000" stroke-linecap="round" stroke-linejoin="round" stroke-width="2" points="11.997 28.0918 11.997 60.0918 43.6564 60.0864 59.997 48.0382 59.997 28.0918"/>
    <polyline fill="none" stroke="#000" stroke-linecap="round" stroke-linejoin="round" stroke-width="2" points="59.7462 48.0382 43.1384 48.0382 43.1384 53.5175"/>
  </g>
</svg>
