<svg id="emoji" viewBox="0 0 72 72" xmlns="http://www.w3.org/2000/svg">
  <g id="line">
    <path fill="none" stroke="#000" stroke-linecap="round" stroke-linejoin="round" stroke-width="2" d="m57.0078,20.3044v-3.3562l-27.3383-.0025c-.198,0-.3586-.165-.3586-.3684l-.0687-1.5169c-.116-1.7878-1.3398-3.0033-2.9967-3.0033h-11.2866c-1.6569,0-3,1.3432-3,3v40.9429"/>
    <path fill="none" stroke="#000" stroke-linecap="round" stroke-linejoin="round" stroke-width="2" d="m17.0271,55.5678c-.5897,1.954-2.9723,4.1389-4.6459,4.394l44.6648.0108c1.6569,0,2.3233-.4388,3-3s7-31.6575,7-31.6575c0-.5523-.4477-1-1-1H24.9649c-.5523,0-1,.4477-1,1,0,0-6.3481,28.2986-6.9378,30.2527Z"/>
  </g>
</svg>
