<?xml version="1.0" encoding="utf-8"?>
<!-- Generator: Adobe Illustrator 19.1.0, SVG Export Plug-In . SVG Version: 6.00 Build 0)  -->
<svg version="1.1" id="emoji" xmlns="http://www.w3.org/2000/svg" xmlns:xlink="http://www.w3.org/1999/xlink" x="0px" y="0px"
	 viewBox="0 0 72 72" enable-background="new 0 0 72 72" xml:space="preserve">
<g id="_xD83D__xDCC1__1_">
	<path fill="none" stroke="#000000" stroke-width="2" stroke-linecap="round" stroke-linejoin="round" stroke-miterlimit="10" d="
		M57,20.3v-3.4l-27.3,0c-0.2,0-0.4-0.2-0.4-0.4l-0.1-1.5c-0.1-1.8-1.3-3-3-3H15c-1.7,0-3,1.3-3,3V56"/>
	<path fill="none" stroke="#000000" stroke-width="2" stroke-linecap="round" stroke-linejoin="round" stroke-miterlimit="10" d="
		M17,55.4C16.8,58,15,59.7,13.1,60L57,60c1.7,0,3-1.3,3-3V25.3c0-0.6-0.4-1-1-1H18c-0.6,0-1,0.4-1,1L17,55.4z"/>
</g>
</svg>
