<svg id="emoji" viewBox="0 0 72 72" xmlns="http://www.w3.org/2000/svg">
  <g id="line">
    <line x1="15.9466" x2="37.6357" y1="24.8179" y2="30.9156" fill="none" stroke="#000000" stroke-linecap="round" stroke-linejoin="round" stroke-miterlimit="10" stroke-width="2"/>
    <line x1="37.6357" x2="12.7413" y1="39.1118" y2="32.5173" fill="none" stroke="#000000" stroke-linecap="round" stroke-linejoin="round" stroke-miterlimit="10" stroke-width="2"/>
    <line x1="37.6357" x2="60.9068" y1="18.221" y2="24.5451" fill="none" stroke="#000000" stroke-linecap="round" stroke-linejoin="round" stroke-miterlimit="10" stroke-width="2"/>
    <line x1="60.9195" x2="37.6357" y1="24.5914" y2="30.9156" fill="none" stroke="#000000" stroke-linecap="round" stroke-linejoin="round" stroke-miterlimit="10" stroke-width="2"/>
    <line x1="37.6357" x2="14.0703" y1="18.221" y2="24.4681" fill="none" stroke="#000000" stroke-linecap="round" stroke-linejoin="round" stroke-miterlimit="10" stroke-width="2"/>
    <line x1="60.9195" x2="37.6357" y1="32.7877" y2="39.1118" fill="none" stroke="#000000" stroke-linecap="round" stroke-linejoin="round" stroke-miterlimit="10" stroke-width="2"/>
    <path fill="none" stroke="#000000" stroke-linecap="round" stroke-linejoin="round" stroke-miterlimit="10" stroke-width="2" d="M13.3847,32.6831c-1.8468-0.5568-2.8025-2.8039-2.1346-5.0192c0.6679-2.2153,2.7064-3.5598,4.5532-3.003"/>
    <line x1="37.6357" x2="12.7413" y1="47.8205" y2="41.226" fill="none" stroke="#000000" stroke-linecap="round" stroke-linejoin="round" stroke-miterlimit="10" stroke-width="2"/>
    <line x1="60.9195" x2="37.6357" y1="41.4964" y2="47.8205" fill="none" stroke="#000000" stroke-linecap="round" stroke-linejoin="round" stroke-miterlimit="10" stroke-width="2"/>
    <path fill="none" stroke="#000000" stroke-linecap="round" stroke-linejoin="round" stroke-miterlimit="10" stroke-width="2" d="M13.3847,41.3918c-1.8468-0.5568-2.8025-2.8039-2.1346-5.0192c0.6679-2.2153,2.7064-3.5598,4.5532-3.003"/>
    <line x1="37.679" x2="12.7846" y1="56.5306" y2="49.9361" fill="none" stroke="#000000" stroke-linecap="round" stroke-linejoin="round" stroke-miterlimit="10" stroke-width="2"/>
    <line x1="60.9628" x2="37.679" y1="50.2065" y2="56.5306" fill="none" stroke="#000000" stroke-linecap="round" stroke-linejoin="round" stroke-miterlimit="10" stroke-width="2"/>
    <path fill="none" stroke="#000000" stroke-linecap="round" stroke-linejoin="round" stroke-miterlimit="10" stroke-width="2" d="M13.4281,50.1019c-1.8468-0.5568-2.8025-2.8039-2.1346-5.0192c0.6679-2.2153,2.7064-3.5598,4.5532-3.003"/>
  </g>
</svg>
