<svg id="emoji" viewBox="0 0 72 72" xmlns="http://www.w3.org/2000/svg">
  <g id="line">
    <polygon fill="#000000" stroke="none" points="38.0702,47.191 40.4564,49.5772 36.9921,50.8566"/>
    <line x1="22.3215" x2="49.3215" y1="19.875" y2="19.875" fill="none" stroke="#000000" stroke-linecap="round" stroke-linejoin="round" stroke-miterlimit="10" stroke-width="2"/>
    <line x1="22.3215" x2="47.9215" y1="27.875" y2="27.875" fill="none" stroke="#000000" stroke-linecap="round" stroke-linejoin="round" stroke-miterlimit="10" stroke-width="2"/>
    <line x1="22.3215" x2="39.4312" y1="35.875" y2="35.875" fill="none" stroke="#000000" stroke-linecap="round" stroke-linejoin="round" stroke-miterlimit="10" stroke-width="2"/>
    <line x1="22.3215" x2="34.5284" y1="43.875" y2="43.875" fill="none" stroke="#000000" stroke-linecap="round" stroke-linejoin="round" stroke-miterlimit="10" stroke-width="2"/>
    <line x1="22.3215" x2="32.4675" y1="51.875" y2="51.875" fill="none" stroke="#000000" stroke-linecap="round" stroke-linejoin="round" stroke-miterlimit="10" stroke-width="2"/>
    <polygon fill="#000000" stroke="none" points="38.0702,47.191 40.4564,49.5772 36.9921,50.8566"/>
    <polygon fill="none" stroke="#000000" stroke-linecap="round" stroke-linejoin="round" stroke-miterlimit="10" stroke-width="2" points="40.6919,49.591 46.3562,47.624 61.9461,32.034 55.492,25.5799 39.902,41.17 37.9282,46.841"/>
    <polyline fill="none" stroke="#000000" stroke-linecap="round" stroke-linejoin="round" stroke-miterlimit="10" stroke-width="2" points="58.0856,22.9863 59.6411,21.4309 66.0952,27.885 64.4634,29.5168"/>
    <line x1="40.2788" x2="46.7329" y1="40.7932" y2="47.2473" fill="none" stroke="#000000" stroke-linecap="round" stroke-linejoin="round" stroke-miterlimit="10" stroke-width="2"/>
    <polyline fill="none" stroke="#000000" stroke-linecap="round" stroke-linejoin="round" stroke-miterlimit="10" stroke-width="2" points="37.9323,46.8277 36.5493,50.9768 40.7075,49.5846"/>
    <line x1="51.3023" x2="57.5042" y1="30.1572" y2="36.3591" fill="none" stroke="#000000" stroke-linecap="round" stroke-linejoin="round" stroke-miterlimit="10" stroke-width="2"/>
    <polyline fill="none" stroke="#000000" stroke-linecap="round" stroke-linejoin="round" stroke-miterlimit="10" stroke-width="2.0206" points="55.3215,44.228 55.3215,59.875 16.3215,59.875 16.3215,11.875 55.3215,11.875 55.3215,20.3309"/>
  </g>
</svg>
