<?xml version="1.0" encoding="utf-8"?>
<!-- Generator: Adobe Illustrator 21.1.0, SVG Export Plug-In . SVG Version: 6.00 Build 0)  -->
<svg version="1.1" id="emoji" xmlns="http://www.w3.org/2000/svg" xmlns:xlink="http://www.w3.org/1999/xlink" x="0px" y="0px"
	 viewBox="0 0 72 72" enable-background="new 0 0 72 72" xml:space="preserve">
<g id="_xD83D__xDCEF__1_">
	<path fill="none" stroke="#1D1E1C" stroke-width="2" stroke-linecap="round" stroke-linejoin="round" d="M34.8,55"/>
	<path fill="none" stroke="#000000" stroke-width="2" stroke-linecap="round" stroke-linejoin="round" d="M8.6,30.7
		c-0.5-1.9-0.8-3.9-0.8-5.7h-5c0,6.1,2.3,13.2,6.2,18.9"/>
	<path fill="none" stroke="#1D1E1C" stroke-width="2" stroke-linecap="round" stroke-linejoin="round" d="M39.8,51"/>
	<path fill="none" stroke="#000000" stroke-width="2" stroke-linecap="round" stroke-linejoin="round" d="M56.9,29.5
		C54.1,19.9,45.2,13,34.8,13c-12.7,0-23,10.3-23,23c0,4.7,1.4,9.1,3.9,12.8"/>
	<path fill="none" stroke="#1D1E1C" stroke-width="2" stroke-linecap="round" stroke-linejoin="round" d="M25.8,54.5"/>
	<path fill="none" stroke="#000000" stroke-width="2" stroke-linecap="round" stroke-linejoin="round" d="M46.2,26.2
		C43.4,23,39.3,21,34.8,21c-8.3,0-15,6.7-15,15c0,2.3,0.5,4.6,1.5,6.5"/>
	<path fill="none" stroke="#000000" stroke-width="2" stroke-linecap="round" stroke-linejoin="round" d="M53.7,50.9
		c4.2-1.7,9.2-0.5,12.1,3.3l3.4-2.6L50.8,27.7l-3.4,2.6c2.8,3.6,2.8,8.9,0.4,12.5l-0.4,0.6"/>
	<path fill="#FFFFFF" stroke="#1D1E1C" stroke-width="2" stroke-linecap="round" stroke-linejoin="round" d="M51.3,52.3"/>
	<path fill="none" stroke="#000000" stroke-width="2.1425" stroke-linecap="round" stroke-linejoin="round" d="M50,52.7l-5.4-6.5
		c-0.4-0.4-1-0.5-1.5-0.2c-2.4,1.4-9.8,4.9-18.5,0c-0.5-0.3-1.1-0.2-1.5,0.2l-5.3,6.3c-0.5,0.5-0.5,1.5,0.2,1.9
		c4,2.6,17.3,9.6,31.8,0.2C50.5,54.2,50.6,53.3,50,52.7z"/>
</g>
</svg>
