<svg id="emoji" viewBox="0 0 72 72" version="1.1" xmlns="http://www.w3.org/2000/svg">
  <g id="line">
    <path fill="none" stroke="#000000" stroke-linecap="round" stroke-linejoin="round" stroke-miterlimit="10" stroke-width="2" d="M20.072,42.7987L11.2883,50.89c-0.35-0.6201-0.57-1.44-0.57-2.32V22.06l15.92,14.69"/>
    <path fill="none" stroke="#000000" stroke-linecap="round" stroke-linejoin="round" stroke-miterlimit="10" stroke-width="2" d="M43.7793,37.5991L60.6582,22.01v26.56c0,0.86-0.2,1.65-0.55,2.27L47.8409,39.6075"/>
    <line x1="11.354" x2="11.2916" y1="21.6493" y2="21.6103" fill="none" stroke="#000000" stroke-linecap="round" stroke-linejoin="round" stroke-miterlimit="10" stroke-width="2"/>
    <path fill="none" stroke="#000000" stroke-linecap="round" stroke-linejoin="round" stroke-miterlimit="10" stroke-width="2" d="M26.6383,36.75l4.47,4.13c0.24,0.22,0.48,0.41,0.72,0.57c2.4301,1.8,5.26,1.8,7.6801-0.01c0.23-0.16,0.47-0.36,0.69-0.56l4.5-4.15"/>
    <path fill="none" stroke="#000000" stroke-linecap="round" stroke-linejoin="round" stroke-miterlimit="10" stroke-width="2" d="M23.3664,39.764"/>
    <path fill="none" stroke="#000000" stroke-linecap="round" stroke-linejoin="round" stroke-miterlimit="10" stroke-width="2" d="M46.8572,38.7068"/>
    <path fill="none" stroke="#000000" stroke-linecap="round" stroke-linejoin="round" stroke-miterlimit="10" stroke-width="2" d="M47.7628,39.536L60.1082,50.84c-0.42,0.77-1.07,1.27-1.79,1.27h-45.26c-0.7,0-1.34-0.47-1.77-1.22l12.0781-11.126"/>
    <path fill="none" stroke="#000000" stroke-linecap="round" stroke-linejoin="round" stroke-miterlimit="10" stroke-width="2" d="M49.4849,20.9h9.46c0.59,0,1.16,0.35,1.57,0.91c0.05,0.06,0.1,0.13,0.14,0.2l-15.96,14.72l-4.5,4.15c-0.22,0.2-0.46,0.4-0.69,0.56 c-2.42,1.81-5.25,1.81-7.68,0.01c-0.24-0.16-0.48-0.35-0.72-0.57l-4.47-4.13l-15.92-14.69c0.04-0.06,0.09-0.13,0.14-0.2 c0.42-0.6,0.99-0.96,1.61-0.96h8.48"/>
    <path fill="none" stroke="#000000" stroke-linecap="round" stroke-linejoin="round" stroke-miterlimit="10" stroke-width="2" d="M13.1875,52.11c0,0-2.7511,0.14-2.4693-4.485"/>
  </g>
</svg>
