<?xml version="1.0" encoding="utf-8"?>
<!-- Generator: Adobe Illustrator 21.1.0, SVG Export Plug-In . SVG Version: 6.00 Build 0)  -->
<svg version="1.1" id="emoji" xmlns="http://www.w3.org/2000/svg" xmlns:xlink="http://www.w3.org/1999/xlink" x="0px" y="0px"
	 viewBox="0 0 72 72" enable-background="new 0 0 72 72" xml:space="preserve">
<g id="_xD83D__xDCEA__xFE0F__1_">
	<path fill="none" stroke="#1D1D1B" stroke-width="2" stroke-linecap="round" stroke-miterlimit="10" d="M39.2,44.9v12.9
		c0,1.9-1.5,3.4-3.4,3.4c-0.9,0-1.8-0.4-2.4-1s-1-1.5-1-2.4V44.8"/>
	<path fill="none" stroke="#1D1D1B" stroke-width="2" stroke-linecap="round" stroke-linejoin="round" stroke-miterlimit="10" d="
		M23.1,14L23.1,14h23.1c0.7,0,1.3,0.1,1.9,0.2h0c4,0.8,7.1,4.3,8.1,8.7"/>
	<path fill="none" stroke="#1D1D1B" stroke-width="2" stroke-linecap="round" stroke-linejoin="round" stroke-miterlimit="10" d="
		M24.5,39.5l28.6,0c0.1,0,0.3,0,0.4,0c0.8-0.1,1.6-0.6,2.1-1.2"/>
	<path fill="none" stroke="#1D1D1B" stroke-width="2" stroke-linejoin="round" stroke-miterlimit="10" d="M40.1,29v0.9
		c0,0.6,0.4,1.1,0.9,1.1h9.7v2c0,0.6,0.4,1.1,0.9,1.1h7.2c0.5,0,0.9-0.5,0.9-1.1V29c0-0.6-0.4-1.1-0.9-1.1H41
		C40.5,27.9,40.1,28.4,40.1,29z"/>
	<path fill="none" stroke="#1D1D1B" stroke-width="2" stroke-miterlimit="10" d="M33.2,25.8v11.4c0,1.2-0.9,2.2-2,2.2H14.5
		c-1.1,0-2-1-2-2.2V24.9c0.2-3.6,1.9-6.8,4.4-8.8c1.7-1.3,3.7-2.1,5.9-2.1c0.7,0,1.3,0.1,1.9,0.2h0C29.6,15.2,33.2,20.1,33.2,25.8z"
		/>
	<path fill="none" stroke="#1D1D1B" stroke-width="2" stroke-linecap="round" stroke-miterlimit="10" d="M20.7,17.5v3
		c0,0.6,0.5,1,1,1h2c0.6,0,1-0.5,1-1v-3.1v0"/>
</g>
</svg>
