<?xml version="1.0" encoding="utf-8"?>
<!-- Generator: Adobe Illustrator 21.1.0, SVG Export Plug-In . SVG Version: 6.00 Build 0)  -->
<svg version="1.1" id="emoji" xmlns="http://www.w3.org/2000/svg" xmlns:xlink="http://www.w3.org/1999/xlink" x="0px" y="0px"
	 viewBox="0 0 72 72" enable-background="new 0 0 72 72" xml:space="preserve">
<g id="_xD83D__xDCEB__xFE0F_">
	<path fill="none" stroke="#1D1D1B" stroke-width="2" stroke-linecap="round" stroke-linejoin="round" stroke-miterlimit="10" d="
		M35.9,13.8H24.3c-0.1,0-0.2,0-0.2,0"/>
	<path fill="none" stroke="#1D1D1B" stroke-width="2" stroke-linecap="round" stroke-linejoin="round" stroke-miterlimit="10" d="
		M51.3,14.4c4.2,1.6,7.2,6.2,7.2,11.5v10.1c0,2-1.3,3.7-3.1,4c-0.1,0-0.3,0-0.4,0l-29.6,0c0.1,0,0.1,0,0.2,0"/>
	<path fill="none" stroke="#1D1D1B" stroke-width="2" stroke-miterlimit="10" d="M34.5,26v11.8c0,1.3-0.9,2.3-2.1,2.3H15.2
		c-1.1,0-2-1-2-2.3V25c0.2-3.8,2-7.1,4.6-9.1c1.7-1.4,3.8-2.2,6.1-2.2c0.7,0,1.3,0.1,2,0.2h0C30.8,15,34.5,20,34.5,26z"/>
	<path fill="none" stroke="#1D1D1B" stroke-width="2" stroke-linecap="round" stroke-miterlimit="10" d="M21.6,17.4v3.1
		c0,0.6,0.5,1.1,1.1,1.1h2.1c0.6,0,1.1-0.5,1.1-1.1v-3.2v0"/>
	<path fill="none" stroke="#1D1D1B" stroke-width="2" stroke-linejoin="round" stroke-miterlimit="10" d="M41.1,31.4H42
		c0.6,0,1.2-0.4,1.2-1v-10h2.1c0.6,0,1.2-0.4,1.2-1V12c0-0.5-0.5-1-1.2-1h-4.2c-0.6,0-1.2,0.4-1.2,1v18.4
		C39.9,30.9,40.4,31.4,41.1,31.4z"/>
	<path fill="none" stroke="#1D1D1B" stroke-width="2" stroke-linecap="round" stroke-miterlimit="10" d="M39.2,44.9v12.9
		c0,1.9-1.5,3.4-3.4,3.4c-0.9,0-1.8-0.4-2.4-1s-1-1.5-1-2.4V44.8"/>
</g>
</svg>
