<svg id="emoji" xmlns="http://www.w3.org/2000/svg" viewBox="0 0 72 72">
  <g id="line">
    <path fill="none" stroke="#000000" stroke-width="2" stroke-miterlimit="10" d="M22.3,17.3946
		c1.0314-0.7157,2.2207-1.2314,3.4942-1.4945h0.0105"></path>
    <path fill="none" stroke="#000000" stroke-width="2" stroke-miterlimit="10" d="M27.815,13.7636
		c-0.6841,0-1.3577,0.0737-2.0103,0.221h-0.0105c-0.642-0.1474-1.3051-0.221-1.9891-0.221H27.815z"></path>
    <path fill="none" stroke="#000000" stroke-width="2" stroke-linecap="round" stroke-linejoin="round" stroke-miterlimit="10" d="
		M51.3473,14.4253c4.2182,1.6361,7.2576,6.1936,7.2576,11.5513v10.1458c0,2.0313-1.3472,3.7152-3.0733,3.9468
		c-0.1368,0.0211-0.2736,0.0315-0.4209,0.0315l-29.5639-0.0315c1.1367,0,2.0523-1.0419,2.0523-2.3154V25.9766
		c0-5.957-4.2099-12.2086-3.5257-12.2086h11.7931"></path>
    <path fill="none" stroke="#000000" stroke-width="2" stroke-miterlimit="10" d="M34.5192,25.9722v11.7771
		c0,1.2735-0.9156,2.3154-2.0523,2.3154H15.1748c-1.1367,0-2.0418-1.0419-2.0418-2.3154V25.0356
		c0.242-3.7679,1.9892-7.0621,4.5782-9.1039c1.7155-1.3577,3.831-2.1681,6.0938-2.1681c0.6841,0,1.3471,0.0737,1.9891,0.221h0.0105
		C30.7619,15.0476,34.5192,20.0153,34.5192,25.9722z"></path>
    <path fill="none" stroke="#000000" stroke-width="2" stroke-linecap="round" stroke-miterlimit="10" d="M21.5528,17.4051v3.1153
		c0,0.5789,0.4736,1.0525,1.0525,1.0525h2.1049c0.5789,0,1.0525-0.4736,1.0525-1.0525V17.363v-0.021"></path>
    <path fill="none" stroke="#000000" stroke-width="2" stroke-linejoin="round" stroke-miterlimit="10" d="M41.0868,31.3539
		h0.9347c0.6427,0,1.1684-0.4404,1.1684-0.9786v-9.9812h2.1031c0.6426,0,1.1684-0.4404,1.1684-0.9786v-7.437
		c0-0.5383-0.5258-0.9786-1.1684-0.9786h-4.2061c-0.6426,0-1.1684,0.4403-1.1684,0.9786v18.3968
		C39.9184,30.9135,40.4442,31.3539,41.0868,31.3539z"></path>
    <path fill="none" stroke="#000000" stroke-width="2" stroke-linecap="round" stroke-miterlimit="10" d="M39.23,44.875V57.78
		c0,1.85-1.51,3.37-3.36,3.37c-0.93,0-1.77-0.38-2.38-0.99s-0.99-1.46-0.99-2.38V44.8438"></path>
  </g>
</svg>