<?xml version="1.0" encoding="utf-8"?>
<!-- Generator: Adobe Illustrator 21.1.0, SVG Export Plug-In . SVG Version: 6.00 Build 0)  -->
<svg version="1.1" id="emoji" xmlns="http://www.w3.org/2000/svg" xmlns:xlink="http://www.w3.org/1999/xlink" x="0px" y="0px"
	 viewBox="0 0 72 72" enable-background="new 0 0 72 72" xml:space="preserve">
<g id="_xD83D__xDCE2__1_">
	<g>
		<line fill="#CFCFCE" x1="18.8" y1="25.3" x2="18.8" y2="46.6"/>
	</g>
	<g>
		<path fill="none" stroke="#000000" stroke-width="2" stroke-linecap="round" stroke-linejoin="round" d="M57.7,11.4L41.3,24.7
			H12.6c-1.7,0-3,1.3-3,3v16.7c0,1.7,1.3,3,3,3h28.7l16.4,13.1L57.7,11.4z"/>
		
			<line fill="none" stroke="#000000" stroke-width="2" stroke-linecap="round" stroke-linejoin="round" x1="18.8" y1="25.3" x2="18.8" y2="46.6"/>
	</g>
	<path fill="none" stroke="#000000" stroke-width="2" stroke-linecap="round" stroke-linejoin="round" d="M26.8,51.4v9
		c0,1.1-0.9,2-2,2h-4c-1.1,0-2-0.9-2-2v-9"/>
	<path fill="none" stroke="#000000" stroke-width="2" stroke-linecap="round" stroke-linejoin="round" d="M61.6,31.9
		c1.6,0.8,2.8,2.5,2.8,4.5c0,2-1.1,3.7-2.8,4.5"/>
</g>
</svg>
