<?xml version="1.0" encoding="utf-8"?>
<!-- Generator: Adobe Illustrator 19.1.0, SVG Export Plug-In . SVG Version: 6.00 Build 0)  -->
<svg version="1.1" id="emoji" xmlns="http://www.w3.org/2000/svg" xmlns:xlink="http://www.w3.org/1999/xlink" x="0px" y="0px"
	 viewBox="0 0 72 72" enable-background="new 0 0 72 72" xml:space="preserve">
<g id="_xD83D__xDCE9_">
	<path fill="none" stroke="#1D1D1B" stroke-width="2" stroke-linecap="round" stroke-linejoin="round" stroke-miterlimit="10" d="
		M26.7,39.4L11.4,53.6c-0.3-0.6-0.6-1.4-0.6-2.3V24.7L26.7,39.4z"/>
	<path fill="none" stroke="#1D1D1B" stroke-width="2" stroke-linecap="round" stroke-linejoin="round" stroke-miterlimit="10" d="
		M60.8,24.7v26.6c0,0.9-0.2,1.6-0.5,2.3L44.8,39.4L60.8,24.7z"/>
	
		<path fill="#FFFFFF" stroke="#FFFFFF" stroke-width="2" stroke-linecap="round" stroke-linejoin="round" stroke-miterlimit="10" d="
		M26.7,39.4l4.5,4.1c0.2,0.2,0.5,0.4,0.7,0.6c2.4,1.8,5.3,1.8,7.7,0c0.2-0.2,0.5-0.4,0.7-0.6l4.5-4.2l15.4,14.1
		c-0.4,0.8-1.1,1.3-1.8,1.3H13.2c-0.7,0-1.3-0.5-1.8-1.2L26.7,39.4"/>
	
		<path fill="#CFCFCF" stroke="#1D1D1B" stroke-width="2" stroke-linecap="round" stroke-linejoin="round" stroke-miterlimit="10" d="
		M23.5,42.4"/>
	<path fill="none" stroke="#1D1D1B" stroke-width="2" stroke-linecap="round" stroke-linejoin="round" stroke-miterlimit="10" d="
		M47.9,42.2l12.3,11.3c-0.4,0.8-1.1,1.3-1.8,1.3H13.2c-0.7,0-1.3-0.5-1.8-1.2l12.1-11.1"/>
	
		<path fill="#CFCFCF" stroke="#1D1D1B" stroke-width="2" stroke-linecap="round" stroke-linejoin="round" stroke-miterlimit="10" d="
		M47,41.4"/>
	<path fill="none" stroke="#1D1D1B" stroke-width="2" stroke-linecap="round" stroke-linejoin="round" stroke-miterlimit="10" d="
		M49.6,23.6h9.5c0.6,0,1.2,0.3,1.6,0.9c0,0.1,0.1,0.1,0.1,0.2l-16,14.7l-4.5,4.1c-0.2,0.2-0.5,0.4-0.7,0.6c-2.4,1.8-5.2,1.8-7.7,0
		c-0.2-0.2-0.5-0.3-0.7-0.6l-4.5-4.1L10.8,24.7c0-0.1,0.1-0.1,0.1-0.2c0.4-0.6,1-1,1.6-1h8.5"/>
	<path fill="#FFFFFF" stroke="#1D1D1B" stroke-width="2" stroke-linecap="round" stroke-miterlimit="10" d="M29.9,22.1h1.6
		c0.6,0,1-0.4,1-1v-4.4c0-0.6,0.4-1,1-1h4.3c0.6,0,1,0.4,1,1v4.4c0,0.6,0.4,1,1,1h1.6c0.8,0,1.3,0.9,0.8,1.6l-5.7,8.1
		c-0.4,0.6-1.2,0.6-1.6,0l-5.7-8.1C28.7,23,29.1,22.1,29.9,22.1z"/>
</g>
</svg>
