<?xml version="1.0" encoding="utf-8"?>
<!-- Generator: Adobe Illustrator 19.1.0, SVG Export Plug-In . SVG Version: 6.00 Build 0)  -->
<svg version="1.1" id="emoji" xmlns="http://www.w3.org/2000/svg" xmlns:xlink="http://www.w3.org/1999/xlink" x="0px" y="0px"
	 viewBox="0 0 72 72" enable-background="new 0 0 72 72" xml:space="preserve">
<g id="_xD83D__xDCEA__xFE0F__1_">
	<path fill="#FFFFFF" stroke="#1D1D1B" stroke-width="2" stroke-miterlimit="10" d="M31.3,57.2V32.4h6.5v24.8c0,2.1-1.5,3.8-3.3,3.8
		c-0.9,0-1.7-0.4-2.3-1.1C31.6,59.2,31.3,58.2,31.3,57.2z"/>
	<path fill="#FFFFFF" stroke="#FFFFFF" stroke-width="2" stroke-linejoin="round" stroke-miterlimit="10" d="M56.5,22.8v9.8
		c0,2-1.3,3.6-3,3.8c-0.1,0-0.3,0-0.4,0l-28.6,0c1.1,0,2-1,2-2.2V22.8c0-5.8-4.1-11.8-3.4-11.8h23.1c0.7,0,1.3,0.1,1.9,0.2h0
		C52.9,12.2,56.5,17.1,56.5,22.8z"/>
	
		<path fill="#FFFFFF" stroke="#1D1D1B" stroke-width="2" stroke-linecap="round" stroke-linejoin="round" stroke-miterlimit="10" d="
		M55.7,35.2c-0.5,0.7-1.3,1.1-2.1,1.3c-0.1,0-0.3,0-0.4,0l-28.6,0c1.1,0,2-1,2-2.2V22.8c0-5.8-4.1-11.8-3.4-11.8h23.1
		c0.7,0,1.3,0.1,1.9,0.2h0c4,0.9,7.1,4.3,8.1,8.7"/>
	<path fill="#FFFFFF" stroke="#1D1D1B" stroke-width="2" stroke-linejoin="round" stroke-miterlimit="10" d="M40.1,26v0.9
		c0,0.6,0.4,1.1,0.9,1.1h9.7v2c0,0.6,0.4,1.1,0.9,1.1h7.2c0.5,0,0.9-0.5,0.9-1.1V26c0-0.6-0.4-1.1-0.9-1.1H41
		C40.5,24.9,40.1,25.4,40.1,26z"/>
	<path fill="#FFFFFF" stroke="#1D1D1B" stroke-width="2" stroke-miterlimit="10" d="M33.2,22.8v11.4c0,1.2-0.9,2.2-2,2.2H14.5
		c-1.1,0-2-1-2-2.2V21.9c0.2-3.6,1.9-6.8,4.4-8.8c1.7-1.3,3.7-2.1,5.9-2.1c0.7,0,1.3,0.1,1.9,0.2h0C29.6,12.2,33.2,17.1,33.2,22.8z"
		/>
	<path fill="none" stroke="#1D1D1B" stroke-width="2" stroke-linecap="round" stroke-miterlimit="10" d="M20.7,14.5v3
		c0,0.6,0.5,1,1,1h2c0.6,0,1-0.5,1-1v-3.1v0"/>
</g>
</svg>
