<?xml version="1.0" encoding="utf-8"?>
<!-- Generator: Adobe Illustrator 19.1.0, SVG Export Plug-In . SVG Version: 6.00 Build 0)  -->
<svg version="1.1" id="emoji" xmlns="http://www.w3.org/2000/svg" xmlns:xlink="http://www.w3.org/1999/xlink" x="0px" y="0px"
	 viewBox="0 0 72 72" enable-background="new 0 0 72 72" xml:space="preserve">
<g id="_xD83D__xDCF8__1_">
	<path fill="none" stroke="#000000" stroke-width="2" stroke-linecap="round" stroke-linejoin="round" stroke-miterlimit="10" d="
		M12.1,33.2v16c0,1.7,1.4,3.1,3.1,3.1h41.7c1.7,0,3.1-1.4,3.1-3.1V26c0-1.7-1.4-3.1-3.1-3.1H29.5"/>
	
		<line fill="none" stroke="#000000" stroke-width="2" stroke-linecap="round" stroke-linejoin="round" stroke-miterlimit="10" x1="47.2" y1="33.2" x2="59.6" y2="33.2"/>
	<path fill="none" stroke="#000000" stroke-width="2" stroke-linecap="round" stroke-linejoin="round" stroke-miterlimit="10" d="
		M30.6,28.1c1-0.3,2.1-0.5,3.2-0.5c5.5,0,10,4.5,10,10c0,5.5-4.5,10-10,10c-5.5,0-10-4.5-10-10c0-1,0.2-2,0.4-3"/>
	
		<circle fill="none" stroke="#000000" stroke-width="2" stroke-linecap="round" stroke-linejoin="round" stroke-miterlimit="10" cx="33.9" cy="37.6" r="5"/>
	
		<polygon fill="none" stroke="#000000" stroke-width="2" stroke-linecap="round" stroke-linejoin="round" stroke-miterlimit="10" points="
		13.9,22.6 5.6,32.2 15.7,26.7 17.1,39 21,27.7 27.9,31.9 22.4,22.9 31.9,17.4 20.3,20.6 19.2,9.9 16.1,20.1 5.6,15.8 	"/>
</g>
</svg>
