<?xml version="1.0" encoding="utf-8"?>
<!-- Generator: Adobe Illustrator 21.1.0, SVG Export Plug-In . SVG Version: 6.00 Build 0)  -->
<svg version="1.1" id="emoji" xmlns="http://www.w3.org/2000/svg" xmlns:xlink="http://www.w3.org/1999/xlink" x="0px" y="0px"
	 viewBox="0 0 72 72" enable-background="new 0 0 72 72" xml:space="preserve">
<g id="_xD83D__xDCFD__xFE0F__1_">
	<path fill="none" stroke="#000000" stroke-width="2" stroke-linecap="round" stroke-linejoin="round" stroke-miterlimit="10" d="
		M45.3,29.1l0.3-0.6c0.6-1.1,0.4-2.3-0.4-2.9c-0.8-0.6-2.3-0.1-2.9,1l-1.2,1.8"/>
	
		<line fill="none" stroke="#000000" stroke-width="2" stroke-linecap="round" stroke-linejoin="round" stroke-miterlimit="10" x1="48.6" y1="21.4" x2="47.6" y2="22.5"/>
	
		<line fill="none" stroke="#000000" stroke-width="2" stroke-linecap="round" stroke-linejoin="round" stroke-miterlimit="10" x1="41.6" y1="20.5" x2="42.5" y2="21.7"/>
	
		<line fill="none" stroke="#000000" stroke-width="2" stroke-linecap="round" stroke-linejoin="round" stroke-miterlimit="10" x1="46.9" y1="32" x2="46.9" y2="32.2"/>
	
		<line fill="none" stroke="#000000" stroke-width="2" stroke-linecap="round" stroke-linejoin="round" stroke-miterlimit="10" x1="37.6" y1="25.5" x2="38.8" y2="25.8"/>
	
		<line fill="none" stroke="#000000" stroke-width="2" stroke-linecap="round" stroke-linejoin="round" stroke-miterlimit="10" x1="50.7" y1="28" x2="49.4" y2="27.5"/>
	<g>
		
			<line fill="#CFCECD" stroke="#000000" stroke-width="2" stroke-linecap="round" stroke-linejoin="round" stroke-miterlimit="10" x1="22" y1="44" x2="34.3" y2="44"/>
		
			<line fill="#CFCECD" stroke="#000000" stroke-width="2" stroke-linecap="round" stroke-linejoin="round" stroke-miterlimit="10" x1="22" y1="48" x2="34.3" y2="48"/>
		
			<line fill="#CFCECD" stroke="#000000" stroke-width="2" stroke-linecap="round" stroke-linejoin="round" stroke-miterlimit="10" x1="22" y1="52" x2="34.3" y2="52"/>
	</g>
	<g>
		
			<line fill="#CFCECD" stroke="#000000" stroke-width="2" stroke-linecap="round" stroke-linejoin="round" stroke-miterlimit="10" x1="22" y1="44" x2="34.3" y2="44"/>
		
			<line fill="#CFCECD" stroke="#000000" stroke-width="2" stroke-linecap="round" stroke-linejoin="round" stroke-miterlimit="10" x1="22" y1="48" x2="34.3" y2="48"/>
		
			<line fill="#CFCECD" stroke="#000000" stroke-width="2" stroke-linecap="round" stroke-linejoin="round" stroke-miterlimit="10" x1="22" y1="52" x2="34.3" y2="52"/>
		<g>
			
				<polygon fill="none" stroke="#000000" stroke-width="2" stroke-linecap="round" stroke-linejoin="round" stroke-miterlimit="10" points="
				42.7,50.3 42.7,44.7 42.7,44.7 42.6,31.9 30.3,31.9 16.8,42.5 16.8,56 41.7,56 42.7,56 49.3,56 49.3,50.3 			"/>
		</g>
	</g>
	<path fill="none" stroke="#000000" stroke-width="2" stroke-linecap="round" stroke-linejoin="round" stroke-miterlimit="10" d="
		M61.8,46.5h-6.9v-6.6h6.9c0,0-0.3,0.8-0.3,3.3C61.5,45.7,61.8,46.5,61.8,46.5z"/>
	
		<polyline fill="none" stroke="#000000" stroke-width="2" stroke-linecap="round" stroke-linejoin="round" stroke-miterlimit="10" points="
		56.1,46.5 48.1,46.5 48.1,39.9 56.1,39.9 	"/>
	<g>
		<path fill="none" stroke="#000000" stroke-width="2" stroke-linecap="round" stroke-linejoin="round" stroke-miterlimit="10" d="
			M14.3,40.6c-4-2.1-6.2-6.8-4.9-11.4c1.4-5.3,6.9-8.5,12.2-7.1c3.6,1,6.2,3.8,7.1,7.2"/>
		<path fill="none" stroke="#000000" stroke-width="2" stroke-linecap="round" stroke-linejoin="round" stroke-miterlimit="10" d="
			M22.8,33.6l-1.6-1.8c-0.8-0.9-2-1.1-2.8-0.6c-0.8,0.6-0.8,2.1,0,3.1l1.3,1.7"/>
		
			<line fill="none" stroke="#000000" stroke-width="2" stroke-linecap="round" stroke-linejoin="round" stroke-miterlimit="10" x1="18.2" y1="25.5" x2="18.4" y2="26.9"/>
		
			<line fill="none" stroke="#000000" stroke-width="2" stroke-linecap="round" stroke-linejoin="round" stroke-miterlimit="10" x1="13" y1="30.2" x2="14.5" y2="30.3"/>
		
			<line fill="none" stroke="#000000" stroke-width="2" stroke-linecap="round" stroke-linejoin="round" stroke-miterlimit="10" x1="14.2" y1="36.5" x2="15.2" y2="35.8"/>
		
			<line fill="none" stroke="#000000" stroke-width="2" stroke-linecap="round" stroke-linejoin="round" stroke-miterlimit="10" x1="24.5" y1="28.2" x2="23.3" y2="28.9"/>
	</g>
	<path fill="none" stroke="#000000" stroke-width="2" stroke-linecap="round" stroke-linejoin="round" stroke-miterlimit="10" d="
		M47.1,35.7c0.6-0.2,1.4-0.5,2.5-1.1c2-1.1,3-2.7,3-2.7c2-2.9,2.5-6.7,0.8-10.1c-2.4-5-8.4-7.1-13.3-4.7c-4.3,2-6.4,6.7-5.5,11.2"/>
</g>
</svg>
