<svg id="emoji" viewBox="0 0 72 72" xmlns="http://www.w3.org/2000/svg">
  <g id="line">
    <path fill="none" stroke="#000000" stroke-linecap="round" stroke-linejoin="round" stroke-miterlimit="10" stroke-width="2" d="M63.843,54.8997H8.2797c-1.6569,0-3-1.3431-3-3v-34.841H66.843v34.841C66.843,53.5566,65.4998,54.8997,63.843,54.8997z"/>
    <path fill="none" stroke="#000000" stroke-linecap="round" stroke-linejoin="round" stroke-miterlimit="10" stroke-width="2" d="M22.6837,30.3475c-4.8083,0-8.7062,3.8979-8.7062,8.7062s3.8979,8.7062,8.7062,8.7062V30.3475z"/>
    <path fill="none" stroke="#000000" stroke-linecap="round" stroke-linejoin="round" stroke-miterlimit="10" stroke-width="2" d="M49.1871,47.7599c4.8083,0,8.7062-3.8979,8.7062-8.7062s-3.8979-8.7062-8.7062-8.7062V47.7599z"/>
    <path fill="none" stroke="#000000" stroke-linecap="round" stroke-linejoin="round" stroke-miterlimit="10" stroke-width="2" d="M22.6837,35.2743c-2.0873,0-3.7793,1.6921-3.7793,3.7794c0,2.0872,1.692,3.7793,3.7793,3.7793V35.2743z"/>
    <rect x="27.0738" y="31.876" width="17.556" height="13.5801" fill="none" stroke="#000000" stroke-linecap="round" stroke-linejoin="round" stroke-miterlimit="10" stroke-width="2"/>
    <polyline fill="none" stroke="#000000" stroke-linecap="round" stroke-linejoin="round" stroke-miterlimit="10" stroke-width="2" points="11,28.1153 11,21.0757 60.9828,21.0757 60.9828,28.1153"/>
    <path fill="none" stroke="#000000" stroke-linecap="round" stroke-linejoin="round" stroke-miterlimit="10" stroke-width="2" d="M49.1871,42.833c2.0872,0,3.7793-1.6921,3.7793-3.7793c0-2.0873-1.6921-3.7794-3.7793-3.7794V42.833z"/>
    <line x1="16.7826" x2="56.1216" y1="25.8121" y2="25.8121" fill="none" stroke="#000000" stroke-linecap="round" stroke-linejoin="round" stroke-miterlimit="10" stroke-width="2"/>
  </g>
</svg>
