<svg id="emoji" xmlns="http://www.w3.org/2000/svg" viewBox="0 0 72 72">
  <g id="line">
    <path fill="none" stroke="#000000" stroke-width="2" stroke-linecap="round" stroke-linejoin="round" stroke-miterlimit="10" d="M45.3461,29.1377l0.3297-0.5876c0.6377-1.0595,0.444-2.2743-0.3788-2.879c-0.8227-0.6047-2.2838-0.09-2.9215,0.9694 l-1.1633,1.7874"/>
    <line fill="none" stroke="#000000" stroke-width="2" stroke-linecap="round" stroke-linejoin="round" stroke-miterlimit="10" x1="48.6081" y1="21.4277" x2="47.6392" y2="22.4536"/>
    <line fill="none" stroke="#000000" stroke-width="2" stroke-linecap="round" stroke-linejoin="round" stroke-miterlimit="10" x1="41.6468" y1="20.4571" x2="42.5284" y2="21.7116"/>
    <line fill="none" stroke="#000000" stroke-width="2" stroke-linecap="round" stroke-linejoin="round" stroke-miterlimit="10" x1="46.8985" y1="32.0248" x2="46.9433" y2="32.1858"/>
    <line fill="none" stroke="#000000" stroke-width="2" stroke-linecap="round" stroke-linejoin="round" stroke-miterlimit="10" x1="37.6465" y1="25.5258" x2="38.8447" y2="25.7893"/>
    <line fill="none" stroke="#000000" stroke-width="2" stroke-linecap="round" stroke-linejoin="round" stroke-miterlimit="10" x1="50.6519" y1="27.9531" x2="49.3642" y2="27.51"/>
    <line fill="none" stroke="#000000" stroke-width="2" stroke-linecap="round" stroke-linejoin="round" stroke-miterlimit="10" x1="21.9565" y1="43.9928" x2="34.2633" y2="43.9928"/>
    <line fill="none" stroke="#000000" stroke-width="2" stroke-linecap="round" stroke-linejoin="round" stroke-miterlimit="10" x1="21.9565" y1="47.9928" x2="34.2633" y2="47.9928"/>
    <line fill="none" stroke="#000000" stroke-width="2" stroke-linecap="round" stroke-linejoin="round" stroke-miterlimit="10" x1="21.9565" y1="51.9928" x2="34.2633" y2="51.9928"/>
    <line fill="none" stroke="#000000" stroke-width="2" stroke-linecap="round" stroke-linejoin="round" stroke-miterlimit="10" x1="21.9565" y1="43.9928" x2="34.2633" y2="43.9928"/>
    <line fill="none" stroke="#000000" stroke-width="2" stroke-linecap="round" stroke-linejoin="round" stroke-miterlimit="10" x1="21.9565" y1="47.9928" x2="34.2633" y2="47.9928"/>
    <line fill="none" stroke="#000000" stroke-width="2" stroke-linecap="round" stroke-linejoin="round" stroke-miterlimit="10" x1="21.9565" y1="51.9928" x2="34.2633" y2="51.9928"/>
    <polygon fill="none" stroke="#000000" stroke-width="2" stroke-linecap="round" stroke-linejoin="round" stroke-miterlimit="10" points="42.6785,50.3426 42.6785,44.733 42.6648,44.733 42.6389,31.8639 30.2679,31.928 16.8385,42.4653 16.8385,55.9523 41.7062,55.9523 42.6785,55.9523 49.323,55.9523 49.323,50.3426"/>
    <path fill="none" stroke="#000000" stroke-width="2" stroke-linecap="round" stroke-linejoin="round" stroke-miterlimit="10" d="M61.7625,46.4939h-6.856v-6.5555h6.856c0,0-0.2947,0.8214-0.2947,3.2778C61.4678,45.6725,61.7625,46.4939,61.7625,46.4939z"/>
    <polyline fill="none" stroke="#000000" stroke-width="2" stroke-linecap="round" stroke-linejoin="round" stroke-miterlimit="10" points="56.0594,46.4939 48.0504,46.4939 48.0504,39.9384 56.0594,39.9384"/>
    <path fill="none" stroke="#000000" stroke-width="2" stroke-linecap="round" stroke-linejoin="round" stroke-miterlimit="10" d="M14.3144,40.5951c-4.003-2.1406-6.1592-6.8223-4.937-11.3972c1.4254-5.3358,6.9064-8.5057,12.2421-7.0803 c3.6206,0.9672,6.244,3.8018,7.1111,7.1913"/>
    <path fill="none" stroke="#000000" stroke-width="2" stroke-linecap="round" stroke-linejoin="round" stroke-miterlimit="10" d="M22.7534,33.62l-1.5938-1.7619c-0.8012-0.9419-2.0144-1.1452-2.8497-0.5579c-0.8352,0.5873-0.8128,2.1362-0.0117,3.0781 l1.3238,1.6721"/>
    <line fill="none" stroke="#000000" stroke-width="2" stroke-linecap="round" stroke-linejoin="round" stroke-miterlimit="10" x1="18.2351" y1="25.5404" x2="18.3847" y2="26.9435"/>
    <line fill="none" stroke="#000000" stroke-width="2" stroke-linecap="round" stroke-linejoin="round" stroke-miterlimit="10" x1="12.9719" y1="30.1988" x2="14.4983" y2="30.3444"/>
    <line fill="none" stroke="#000000" stroke-width="2" stroke-linecap="round" stroke-linejoin="round" stroke-miterlimit="10" x1="14.2226" y1="36.5336" x2="15.2018" y2="35.7944"/>
    <line fill="none" stroke="#000000" stroke-width="2" stroke-linecap="round" stroke-linejoin="round" stroke-miterlimit="10" x1="24.522" y1="28.2297" x2="23.3482" y2="28.9201"/>
    <path fill="none" stroke="#000000" stroke-width="2" stroke-linecap="round" stroke-linejoin="round" stroke-miterlimit="10" d="M47.0768,35.6781c0.6124-0.1736,1.3634-0.466,2.4997-1.1004c1.9943-1.1134,2.9915-2.7252,2.9915-2.7252 c2.0117-2.8624,2.46-6.6986,0.8411-10.0784c-2.3858-4.9809-8.3577-7.0847-13.3387-4.6989 c-4.2707,2.0456-6.4262,6.7276-5.4503,11.1608"/>
  </g>
</svg>
