<?xml version="1.0" encoding="utf-8"?>
<!-- Generator: Adobe Illustrator 21.1.0, SVG Export Plug-In . SVG Version: 6.00 Build 0)  -->
<svg version="1.1" id="emoji" xmlns="http://www.w3.org/2000/svg" xmlns:xlink="http://www.w3.org/1999/xlink" x="0px" y="0px"
	 viewBox="0 0 72 72" enable-background="new 0 0 72 72" xml:space="preserve">
<g id="_xD83D__xDD00_">
	<g>
		<path fill="#1D1D1B" d="M56.7,40.2l9.2,7.8l-9.2,7.8l-1.9-1.9l5.4-4.6H52c-2.9,0-5.5-0.9-7.3-2.6l-4-3.7l2-1.8l4,3.7
			c1.2,1.2,3.2,1.8,5.3,1.8h8.2l-5.4-4.6L56.7,40.2 M56.7,38.2c-0.5,0-1,0.2-1.4,0.6l-1.9,1.9c-0.4,0.4-0.6,0.9-0.6,1.5
			s0.3,1.1,0.7,1.4l1.2,1H52c-1.6,0-3.1-0.5-4-1.3l-4-3.7c-0.4-0.4-0.9-0.5-1.4-0.5s-1,0.2-1.4,0.5l-2,1.8c-0.4,0.4-0.6,0.9-0.6,1.5
			c0,0.6,0.2,1.1,0.6,1.5l4,3.7c2.2,2,5.3,3.1,8.7,3.1h2.7l-1.2,1c-0.4,0.4-0.7,0.9-0.7,1.4s0.2,1.1,0.6,1.5l1.9,1.9
			c0.4,0.4,0.9,0.6,1.4,0.6c0.5,0,0.9-0.2,1.3-0.5l9.2-7.8c0.4-0.4,0.7-0.9,0.7-1.5c0-0.6-0.3-1.1-0.7-1.5L58,38.7
			C57.6,38.4,57.2,38.2,56.7,38.2L56.7,38.2z"/>
	</g>
	<g>
		<path fill="#1D1D1B" d="M18,22.5c2.9,0,5.5,0.9,7.3,2.6l4.3,4l-2,1.8l-4.3-3.9c-1.2-1.2-3.2-1.8-5.3-1.8H6v-2.6H18 M18,20.5H6
			c-1.1,0-2,0.9-2,2v2.6c0,1.1,0.9,2,2,2h12c1.6,0,3.1,0.5,4,1.3l4.3,3.9c0.4,0.4,0.9,0.5,1.4,0.5c0.5,0,1-0.2,1.3-0.5l2-1.8
			c0.4-0.4,0.7-0.9,0.7-1.5c0-0.6-0.2-1.1-0.6-1.5l-4.3-4C24.5,21.6,21.3,20.5,18,20.5L18,20.5z"/>
	</g>
	<g>
		<path fill="#1D1D1B" d="M56.7,16l9.2,7.8l-9.2,7.8l-1.9-1.9l5.4-4.6H52c-2.1,0-4.1,0.7-5.3,1.8L25.3,46.7
			c-1.8,1.7-4.5,2.6-7.3,2.6H6v-2.6h12c2.1,0,4.1-0.7,5.3-1.8l21.4-19.8c1.8-1.7,4.5-2.6,7.3-2.6h8.2l-5.4-4.6L56.7,16 M56.7,14
			c-0.5,0-1,0.2-1.4,0.6l-1.9,1.9c-0.4,0.4-0.6,0.9-0.6,1.5c0,0.6,0.3,1.1,0.7,1.4l1.2,1H52c-3.4,0-6.5,1.1-8.7,3.1L22,43.4
			c-0.9,0.8-2.4,1.3-4,1.3H6c-1.1,0-2,0.9-2,2v2.6c0,1.1,0.9,2,2,2h12c3.4,0,6.5-1.1,8.7-3.1l21.4-19.8c0.9-0.8,2.4-1.3,4-1.3h2.7
			l-1.2,1c-0.4,0.4-0.7,0.9-0.7,1.4c0,0.6,0.2,1.1,0.6,1.5l1.9,1.9c0.4,0.4,0.9,0.6,1.4,0.6c0.5,0,0.9-0.2,1.3-0.5l9.2-7.8
			c0.4-0.4,0.7-0.9,0.7-1.5c0-0.6-0.3-1.1-0.7-1.5L58,14.5C57.6,14.2,57.2,14,56.7,14L56.7,14z"/>
	</g>
</g>
</svg>
