<?xml version="1.0" encoding="utf-8"?>
<!-- Generator: Adobe Illustrator 19.1.0, SVG Export Plug-In . SVG Version: 6.00 Build 0)  -->
<svg version="1.1" id="emoji" xmlns="http://www.w3.org/2000/svg" xmlns:xlink="http://www.w3.org/1999/xlink" x="0px" y="0px"
	 viewBox="0 0 72 72" enable-background="new 0 0 72 72" xml:space="preserve">
<g id="_xD83D__xDD01_">
	<path fill="none" stroke="#1D1D1B" stroke-width="2" stroke-linecap="round" stroke-linejoin="round" stroke-miterlimit="10" d="
		M48.9,7.6l-3.1,3.4l5.8,5.3H25.9C14.4,16.2,5,25.7,5,37.3v1.2c0,3.3,0.7,6.5,2.2,9.5l0.3,0.7l4.1-4.2l-0.1-0.3
		c-0.7-1.8-1.1-3.7-1.1-5.6v-1.2c0-8.6,6.9-15.5,15.4-15.5h25.7L45.8,27l3.1,3.4L61.5,19L48.9,7.6z"/>
	<path fill="none" stroke="#1D1D1B" stroke-width="2" stroke-linecap="round" stroke-linejoin="round" stroke-miterlimit="10" d="
		M48.9,7.6l-3.1,3.4l5.8,5.3H25.9C14.4,16.2,5,25.7,5,37.3v1.2c0,3.3,0.7,6.5,2.2,9.5l0.3,0.7l4.1-4.2l-0.1-0.3
		c-0.7-1.8-1.1-3.7-1.1-5.6v-1.2c0-8.6,6.9-15.5,15.4-15.5h25.7L45.8,27l3.1,3.4L61.5,19L48.9,7.6z"/>
	<path fill="none" stroke="#1D1D1B" stroke-width="2" stroke-linecap="round" stroke-linejoin="round" stroke-miterlimit="10" d="
		M23.1,64.2l3.1-3.4l-5.8-5.3h25.7c11.5,0,20.9-9.5,20.9-21.1v-1.2c0-3.3-0.7-6.5-2.2-9.5l-0.3-0.7l-4.1,4.2l0.1,0.3
		c0.7,1.8,1.1,3.7,1.1,5.6v1.2C61.5,43,54.6,50,46.1,50H20.4l5.8-5.3l-3.1-3.4L10.5,52.8L23.1,64.2z"/>
</g>
</svg>
