<?xml version="1.0" encoding="utf-8"?>
<!-- Generator: Adobe Illustrator 21.1.0, SVG Export Plug-In . SVG Version: 6.00 Build 0)  -->
<svg version="1.1" id="emoji" xmlns="http://www.w3.org/2000/svg" xmlns:xlink="http://www.w3.org/1999/xlink" x="0px" y="0px"
	 viewBox="0 0 72 72" enable-background="new 0 0 72 72" xml:space="preserve">
<g id="_xD83D__xDD10_">
	
		<polygon fill="none" stroke="#000000" stroke-width="2" stroke-linecap="round" stroke-linejoin="round" stroke-miterlimit="10" points="
		41.7,36.3 43.3,36.3 43.3,59.7 10.3,59.7 10.3,36.3 11.9,36.3 	"/>
	<path fill="none" stroke="#000000" stroke-width="2" stroke-linecap="round" stroke-linejoin="round" stroke-miterlimit="10" d="
		M14.2,33.4c0-7.3,5.6-14.2,12.5-14.4c6.9-0.2,13.4,6.3,12.8,14.4"/>
	<path fill="none" stroke="#000000" stroke-width="2" stroke-linecap="round" stroke-linejoin="round" stroke-miterlimit="10" d="
		M17.8,33.4c0-5.5,4-10.7,8.9-10.9c4.9-0.2,9.6,4.8,9.1,10.9"/>
	<path fill="none" stroke="#1D1D1B" stroke-width="2" stroke-linecap="round" stroke-linejoin="round" stroke-miterlimit="10" d="
		M35.9,34.3"/>
	
		<polyline fill="none" stroke="#000000" stroke-width="2" stroke-linecap="round" stroke-linejoin="round" stroke-miterlimit="10" points="
		56,36 56.3,56.5 51.7,61 47,56.3 49.9,53.3 46.6,50.1 50.3,46.4 47.1,43.2 47.1,40.2 49.9,37.4 48.6,36.2 	"/>
	
		<ellipse transform="matrix(0.7071 -0.7071 0.7071 0.7071 2.2893 41.7451)" fill="none" stroke="#000000" stroke-width="2" stroke-linecap="round" stroke-linejoin="round" stroke-miterlimit="10" cx="51.5" cy="18.1" rx="3.5" ry="3.5"/>
	<path fill="none" stroke="#000000" stroke-width="2" stroke-linecap="round" stroke-linejoin="round" stroke-miterlimit="10" d="
		M56,31.6c3.6-1.8,6-5.6,6-10c0-6.1-4.8-10.9-10.6-10.9c-5.8,0-10.4,5-10.4,11c0,4.9,3.1,9,7.4,10.4"/>
</g>
</svg>
