<?xml version="1.0" encoding="utf-8"?>
<!-- Generator: Adobe Illustrator 19.1.0, SVG Export Plug-In . SVG Version: 6.00 Build 0)  -->
<svg version="1.1" id="emoji" xmlns="http://www.w3.org/2000/svg" xmlns:xlink="http://www.w3.org/1999/xlink" x="0px" y="0px"
	 viewBox="0 0 72 72" enable-background="new 0 0 72 72" xml:space="preserve">
<g id="_xD83D__xDD24__1_">
	<path fill="none" stroke="#1D1D1B" stroke-width="2" stroke-linejoin="round" stroke-miterlimit="10" d="M59,60H13
		c-0.5,0-1-0.4-1-1V13c0-0.5,0.4-1,1-1H59c0.5,0,1,0.4,1,1V59C60,59.6,59.6,60,59,60z"/>
	<g>
		<path fill="none" stroke="#000000" stroke-width="2" stroke-linecap="round" stroke-linejoin="round" stroke-miterlimit="10" d="
			M47.6,40.9c-0.4,0.4-1,0.6-1.7,0.6l0,0c-1.4,0-2.5-1.1-2.5-2.5v-2v2v-2c0-1.4,1.1-2.5,2.5-2.5l0,0c0.6,0,1.2,0.2,1.7,0.6"/>
		<g>
			<path fill="none" stroke="#000000" stroke-width="2" stroke-linecap="round" stroke-linejoin="round" stroke-miterlimit="10" d="
				M36.4,41.8L36.4,41.8c1.4,0,2.5-1.1,2.5-2.5v-2c0-1.4-1.1-2.5-2.5-2.5l0,0c-1.4,0-2.5,1.1-2.5,2.5v2C33.9,40.6,35,41.8,36.4,41.8
				z"/>
			
				<line fill="none" stroke="#000000" stroke-width="2" stroke-linecap="round" stroke-linejoin="round" stroke-miterlimit="10" x1="33.9" y1="38.8" x2="33.9" y2="29.8"/>
		</g>
		<g>
			<path fill="none" stroke="#000000" stroke-width="2" stroke-linecap="round" stroke-linejoin="round" stroke-miterlimit="10" d="
				M23.4,40L23.4,40c0,1,0.9,1.8,1.9,1.8h1.5c1.1,0,1.9-0.8,1.9-1.8l0,0c0-1-0.9-1.8-1.9-1.8h-1.5C24.3,38.2,23.4,39,23.4,40z"/>
			<path fill="none" stroke="#000000" stroke-width="2" stroke-linecap="round" stroke-linejoin="round" stroke-miterlimit="10" d="
				M23.8,35.5c0.4-0.6,1.2-0.9,2-0.9h0.8c1.3,0,2.4,0.9,2.4,2l0,0v5.2"/>
		</g>
	</g>
</g>
</svg>
