<svg id="emoji" viewBox="0 0 72 72" version="1.1" xmlns="http://www.w3.org/2000/svg">
  <g id="line-supplement" stroke="#000" stroke-linecap="round" stroke-linejoin="round" stroke-miterlimit="10" stroke-width="3.859" clip-rule="evenodd">
    <path fill="none" d="m28.27 53.3c-0.8264 0.7327-1.915 1.179-3.109 1.179-2.586 0-4.685-2.097-4.685-4.685v-0.5479 0.5479l4.19e-4 -0.5479c2e-3 -2.588 2.098-4.685 4.684-4.685 1.194 0 2.282 0.446 3.109 1.179"/>
    <path fill="none" fill-rule="evenodd" d="m44.72 17.96c-0.06997 1.994 2.63e-4 13.41 2.63e-4 13.41"/>
    <path fill="none" d="m47.81 31.36h-3.094v-8.089h2.995c2.22 0 4.023 1.801 4.023 4.021v0.04472c0 1.342-0.657 2.53-1.666 3.26-0.6625 0.4797-1.463 0.7625-2.257 0.7625z"/>
    <path fill="none" fill-rule="evenodd" d="m51.37 41.07c0.06997 1.994-2.63e-4 13.41-2.63e-4 13.41"/>
    <path fill="none" d="m48.27 54.48h3.094v-8.089h-2.995c-2.22 0-4.023 1.801-4.023 4.021v0.04472c0 1.342 0.657 2.53 1.666 3.26 0.6625 0.4797 1.463 0.7625 2.257 0.7625z"/>
    <path fill="#000" fill-rule="evenodd" d="m28.38 27.09v2.314l-0.06498 1.845"/>
    <path fill="none" d="m24.22 31.24c-2.298 0-4.162-1.863-4.162-4.162v-0.031c0-2.299 1.865-4.162 4.162-4.162 2.299 0 4.162 1.863 4.162 4.162v0.031c0 2.299-1.863 4.162-4.162 4.162z"/>
  </g>
  <g id="line" transform="matrix(1.245 0 0 1.245 -3.58 -9.363)" fill="none">
    <rect x="12.51" y="17.16" width="38.55" height="38.55" fill="none" stroke="#000" stroke-linecap="round" stroke-linejoin="round" stroke-width="1.606"/>
  </g>
</svg>
