<svg id="emoji" viewBox="0 0 72 72" version="1.1" xmlns="http://www.w3.org/2000/svg">
  <g id="line-supplement" transform="translate(-.005724 -.00219)" stroke-linecap="round">
    <path fill="none" stroke="#000" stroke-width="2" d="m53.63 42.31-11.75 11.48"/>
    <circle cx="52.32" cy="52.66" r="2.491" stroke="#000" stroke-width="0"/>
    <circle cx="43.19" cy="43.54" r="2.491" stroke="#000" stroke-width="0"/>
    <path fill="none" stroke="#000" stroke-width="2" d="m53.2 32.09s-4.406-5.186-6.604-7.783c-0.9918-1.172-2.388-2.1-2.971-3.521-0.3062-0.7461-0.4898-1.664-0.1886-2.412 0.2715-0.6743 0.9418-1.213 1.629-1.45 0.8655-0.2988 1.971-0.3229 2.742 0.1715 0.8047 0.5163 1.493 1.581 1.356 2.527-0.2425 1.681-2.37 2.433-3.579 3.625-1.036 1.021-2.632 1.66-3.15 3.019-0.5647 1.481-0.6438 3.521 0.3696 4.739 0.8955 1.076 2.68 1.33 4.059 1.084 1.976-0.3536 3.764-1.832 4.918-3.474 0.8823-1.256 1.224-4.439 1.224-4.439"/>
    <path fill="none" stroke="#000" stroke-width="2" d="m17.53 21.25h13.53"/>
    <path fill="none" stroke="#000" stroke-width="2" d="m17.46 17.35h13.53"/>
    <path fill="none" stroke="#000" stroke-width="2" d="m24.3 21.25v10.97"/>
    <path fill="none" stroke="#000" stroke-width="2" d="m27.04 44.98s0.02028 1.111-0.4223 2.671c-0.3036 1.07-0.9029 2.609-1.565 3.108-0.8732 0.6583-2.403 0.8298-3.276 0.1716-0.7667-0.5779-0.7079-1.848-0.6472-2.807 0.07065-1.115 0.4719-2.263 1.159-3.144 0.4794-0.6142 1.154-1.254 1.931-1.317 1.034-0.08379 2.113 0.5577 2.82 1.317 0.5363 0.5758 0.6239 1.449 0.8443 2.204 0.3864 1.324-0.1679 3.102 0.8306 4.054 0.4367 0.4163 1.235 0.5189 1.789 0.2781 0.632-0.275 0.9024-1.072 1.16-1.712 0.4424-1.097 0.686-2.318 0.6031-3.498-0.1105-1.573-0.3992-3.325-1.447-4.503-1.185-1.332-3.093-2.049-4.868-2.216-2.032-0.1913-4.249 0.3214-5.948 1.452-1.359 0.9045-2.343 2.408-2.907 3.94-0.65 1.767-0.7435 3.784-0.3922 5.634 0.2224 1.171 0.7522 2.332 1.539 3.228 0.7561 0.8606 1.8 1.501 2.886 1.866 1.243 0.418 2.634 0.5365 3.923 0.2942 0.6398-0.1203 1.761-0.8435 1.761-0.8435"/>
  </g>
  <g id="line">
    <rect x="12" y="12" width="48" height="48" fill="none" stroke="#000" stroke-linecap="round" stroke-linejoin="round" stroke-width="2"/>
  </g>
</svg>
