<?xml version="1.0" encoding="utf-8"?>
<!-- Generator: Adobe Illustrator 19.1.0, SVG Export Plug-In . SVG Version: 6.00 Build 0)  -->
<svg version="1.1" id="emoji" xmlns="http://www.w3.org/2000/svg" xmlns:xlink="http://www.w3.org/1999/xlink" x="0px" y="0px"
	 viewBox="0 0 72 72" enable-background="new 0 0 72 72" xml:space="preserve">
<g id="_xD83D__xDD22_">
	<path fill="none" stroke="#1D1D1B" stroke-width="2" stroke-linejoin="round" stroke-miterlimit="10" d="M59,60H13
		c-0.5,0-1-0.4-1-1V13c0-0.5,0.4-1,1-1H59c0.5,0,1,0.4,1,1V59C60,59.6,59.6,60,59,60z"/>
	<path fill="none" stroke="#000000" stroke-width="2" stroke-linecap="round" stroke-linejoin="round" stroke-miterlimit="10" d="
		M39.5,24.9c0.3-1.4,1.5-2.5,3-2.5l0,0c0.8,0,1.6,0.3,2.2,0.9c0.9,0.9,0.8,2.3,0,3.2l-5.2,5.9h6.1"/>
	<path fill="none" stroke="#000000" stroke-width="2" stroke-linecap="round" stroke-linejoin="round" stroke-miterlimit="10" d="
		M27.7,46.5c0.3,1.1,1.4,2,2.8,2l0,0c1.6,0,2.8-1.1,2.8-2.5s-1.3-2.5-2.8-2.5c1.6,0,2.8-1.1,2.8-2.5s-1.3-2.5-2.8-2.5l0,0
		c-1.4,0-2.5,0.9-2.8,2"/>
	
		<polyline fill="none" stroke="#000000" stroke-width="2" stroke-linecap="round" stroke-linejoin="round" stroke-miterlimit="10" points="
		28.1,24.5 30.9,22.5 30.9,32.5 	"/>
	<g>
		
			<polyline fill="none" stroke="#000000" stroke-width="2" stroke-linecap="round" stroke-linejoin="round" stroke-miterlimit="10" points="
			43.3,38.5 39.6,46.9 45.4,46.9 		"/>
		
			<line fill="none" stroke="#000000" stroke-width="2" stroke-linecap="round" stroke-linejoin="round" stroke-miterlimit="10" x1="44.5" y1="43.8" x2="44.5" y2="48.5"/>
	</g>
</g>
</svg>
