<?xml version="1.0" encoding="utf-8"?>
<!-- Generator: Adobe Illustrator 19.1.0, SVG Export Plug-In . SVG Version: 6.00 Build 0)  -->
<svg version="1.1" id="emoji" xmlns="http://www.w3.org/2000/svg" xmlns:xlink="http://www.w3.org/1999/xlink" x="0px" y="0px"
	 viewBox="0 0 72 72" enable-background="new 0 0 72 72" xml:space="preserve">
<g id="_xD83D__xDD31__1_">
	<path fill="none" stroke="#000000" stroke-width="2" stroke-linecap="round" stroke-linejoin="round" stroke-miterlimit="10" d="
		M49.8,49.8"/>
	<path fill="none" stroke="#000000" stroke-width="2" stroke-linecap="round" stroke-linejoin="round" stroke-miterlimit="10" d="
		M39.4,66.9v-8.5c1.6,0.9,3.5,1.5,5.5,1.5c4.8,0,9.2-2,10.5-6.9c0.3-1.2,0.3-2.4,0.2-3.6l-0.2-0.8c-1.3-5.8-1.8-11.7-1.6-17.7v0h3
		l-4.5-7.8l-4.5,7.8h3L50.4,40l-0.3,5.1c-0.1,1.4-0.4,2.7-1,4l0,0c-1.7,3.7-6.9,3.7-8.6,0l0,0c-0.6-1.3-0.9-2.6-1.1-4l-1.6-19.2
		l0-0.3h3l-4.5-7.8l-4.5,7.8h3l0,0.2L33.2,45c-0.1,1.4-0.5,2.7-1.1,4l0,0c-1.7,3.7-6.9,3.7-8.6,0l0,0c-0.6-1.3-0.9-2.6-1-4l-0.3-5.1
		l-0.5-9.1h3l-4.5-7.8l-4.5,7.8h3v0c0.3,5.9-0.3,11.9-1.6,17.7l-0.2,0.8c-0.1,1.2-0.1,2.4,0.2,3.6c1.3,4.9,5.7,6.9,10.5,6.9
		c2,0,3.9-0.5,5.5-1.5l0.1,8.6"/>
</g>
</svg>
