<svg id="emoji" xmlns="http://www.w3.org/2000/svg" viewBox="0 0 72 72">
  
  
  
  
  
  <g id="line">
    <rect x="17.5" y="26" fill="none" stroke="#000000" stroke-width="2" stroke-linecap="round" stroke-linejoin="round" stroke-miterlimit="10" width="7" height="34"></rect>
    <ellipse fill="none" stroke="#000000" stroke-width="2" stroke-linecap="round" stroke-linejoin="round" stroke-miterlimit="10" cx="42" cy="36" rx="12.5" ry="10"></ellipse>
    <rect x="29" y="40" fill="none" stroke="#000000" stroke-width="2" stroke-linecap="round" stroke-linejoin="round" stroke-miterlimit="10" width="26" height="20"></rect>
    <polygon fill="none" stroke="#000000" stroke-width="2" stroke-linecap="round" stroke-linejoin="round" stroke-miterlimit="10" points="
		21,17 17.5,26 24.5,26 	"></polygon>
    <polygon fill="none" stroke="#000000" stroke-width="2" stroke-linecap="round" stroke-linejoin="round" stroke-miterlimit="10" points="
		24.5,36 17.5,36 15.5,31 26.5,31 	"></polygon>
    <circle fill="none" stroke="#000000" stroke-width="2" stroke-linecap="round" stroke-linejoin="round" stroke-miterlimit="10" cx="42" cy="24" r="2"></circle>
    <rect x="42" y="19" transform="matrix(-1 -1.224647e-16 1.224647e-16 -1 84 41)" fill="none" stroke="#000000" stroke-width="2" stroke-linecap="round" stroke-linejoin="round" stroke-miterlimit="10" width="0" height="3"></rect>
    <path fill="none" stroke="#000000" stroke-width="2" stroke-linecap="round" stroke-linejoin="round" stroke-miterlimit="10" d="
		M42,45l-3.4962,5.2442C38.1753,50.737,38,51.3161,38,51.9083V60h8v-8.0917c0-0.5922-0.1753-1.1713-0.5038-1.6641L42,45z"></path>
  </g>
</svg>