<?xml version="1.0" encoding="utf-8"?>
<!-- Generator: Adobe Illustrator 21.1.0, SVG Export Plug-In . SVG Version: 6.00 Build 0)  -->
<svg version="1.1" id="emoji" xmlns="http://www.w3.org/2000/svg" xmlns:xlink="http://www.w3.org/1999/xlink" x="0px" y="0px"
	 viewBox="0 0 72 72" enable-background="new 0 0 72 72" xml:space="preserve">
<g id="_xD83D__xDD76__xFE0F_">
	<path fill="none" stroke="#000000" stroke-width="2" stroke-linecap="round" stroke-linejoin="round" stroke-miterlimit="10" d="
		M35.5,28.5h-3C22,7,3.1,23.2,3.1,23.2v4.1L5,27.3l0.1,4.9c0,6.9,5.6,12.5,12.5,12.5c4.3,0,9.1-2.2,11.4-5.5"/>
	<path fill="none" stroke="#000000" stroke-width="2" stroke-linecap="round" stroke-linejoin="round" stroke-miterlimit="10" d="
		M33,35.2c0-1.7,1.3-3,3-3c1.7,0,3,1.3,3,3"/>
	
		<circle fill="none" stroke="#000000" stroke-width="1.8457" stroke-linecap="round" stroke-linejoin="round" stroke-miterlimit="10" cx="18" cy="31" r="9.6"/>
	<path fill="none" stroke="#000000" stroke-width="2" stroke-linecap="round" stroke-linejoin="round" stroke-miterlimit="10" d="
		M36,28.5h3C49.5,7,68.5,23.2,68.5,23.2v4.1l-1.9-0.1l-0.1,4.9c0,6.9-5.6,12.5-12.5,12.5c-4.3,0-9.1-2.2-11.4-5.5"/>
	
		<circle fill="none" stroke="#000000" stroke-width="1.8457" stroke-linecap="round" stroke-linejoin="round" stroke-miterlimit="10" cx="53.5" cy="31" r="9.6"/>
</g>
</svg>
