<?xml version="1.0" encoding="utf-8"?>
<!-- Generator: Adobe Illustrator 19.1.0, SVG Export Plug-In . SVG Version: 6.00 Build 0)  -->
<svg version="1.1" id="emoji" xmlns="http://www.w3.org/2000/svg" xmlns:xlink="http://www.w3.org/1999/xlink" x="0px" y="0px"
	 viewBox="0 0 72 72" enable-background="new 0 0 72 72" xml:space="preserve">
<g id="_xD83D__xDD8B__xFE0F_">
	<g>
		<g>
			
				<path fill="none" stroke="#000000" stroke-width="2.0823" stroke-linecap="round" stroke-linejoin="round" stroke-miterlimit="10" d="
				M18.9,43.6"/>
		</g>
	</g>
	
		<path fill="none" stroke="#000000" stroke-width="2.0823" stroke-linecap="round" stroke-linejoin="round" stroke-miterlimit="10" d="
		M31.7,51"/>
	
		<path fill="none" stroke="#000000" stroke-width="2.0823" stroke-linecap="round" stroke-linejoin="round" stroke-miterlimit="10" d="
		M22.3,41.6"/>
	
		<path fill="none" stroke="#000000" stroke-width="2.0823" stroke-linecap="round" stroke-linejoin="round" stroke-miterlimit="10" d="
		M22.2,41.6"/>
	
		<path fill="none" stroke="#000000" stroke-width="2.0823" stroke-linecap="round" stroke-linejoin="round" stroke-miterlimit="10" d="
		M18.6,56.7"/>
	
		<path fill="none" stroke="#000000" stroke-width="2.0823" stroke-linecap="round" stroke-linejoin="round" stroke-miterlimit="10" d="
		M31.7,51.1"/>
	
		<path fill="none" stroke="#000000" stroke-width="2.0823" stroke-linecap="round" stroke-linejoin="round" stroke-miterlimit="10" d="
		M22,41.4"/>
	
		<path fill="none" stroke="#000000" stroke-width="1.9553" stroke-linecap="round" stroke-linejoin="round" stroke-miterlimit="10" d="
		M16.4,51.2"/>
	
		<path fill="none" stroke="#000000" stroke-width="1.8779" stroke-linecap="round" stroke-linejoin="round" stroke-miterlimit="10" d="
		M12.1,59.2"/>
	
		<polyline fill="none" stroke="#010202" stroke-width="2.0823" stroke-linecap="round" stroke-linejoin="round" stroke-miterlimit="10" points="
		22.8,55.8 19.8,58.9 12,59.6 12.7,51.8 15.8,48.7 	"/>
	
		<line fill="none" stroke="#010202" stroke-width="2.0823" stroke-linecap="round" stroke-linejoin="round" stroke-miterlimit="10" x1="16.2" y1="55.3" x2="13.2" y2="58.4"/>
	
		<path fill="none" stroke="#010202" stroke-width="2.0823" stroke-linecap="round" stroke-linejoin="round" stroke-miterlimit="10" d="
		M44.4,39.8c9.1-8.4,16.1-18.3,16.1-18.3L50.4,11.3c0,0-0.1,0.1-0.3,0.2c-1.6,1.2-10.4,7.7-18,15.9C20.6,40,18,45.1,18,45.1l7.7,7.7
		l1,1C26.8,53.9,31.9,51.3,44.4,39.8"/>
	
		<line fill="none" stroke="#010202" stroke-width="2.0823" stroke-linecap="round" stroke-linejoin="round" stroke-miterlimit="10" x1="41" y1="41.5" x2="29.7" y2="30.2"/>
</g>
</svg>
