<?xml version="1.0" encoding="utf-8"?>
<!-- Generator: Adobe Illustrator 21.1.0, SVG Export Plug-In . SVG Version: 6.00 Build 0)  -->
<svg version="1.1" id="emoji" xmlns="http://www.w3.org/2000/svg" xmlns:xlink="http://www.w3.org/1999/xlink" x="0px" y="0px"
	 viewBox="0 0 72 72" enable-background="new 0 0 72 72" xml:space="preserve">
<g id="_xD83D__xDD8C__xFE0F_">
	<g>
		<g>
			
				<path fill="none" stroke="#000000" stroke-width="2.0863" stroke-linecap="round" stroke-linejoin="round" stroke-miterlimit="10" d="
				M20.9,44.3"/>
		</g>
	</g>
	
		<path fill="none" stroke="#000000" stroke-width="2.0863" stroke-linecap="round" stroke-linejoin="round" stroke-miterlimit="10" d="
		M33.9,48.8"/>
	
		<path fill="none" stroke="#000000" stroke-width="2.0863" stroke-linecap="round" stroke-linejoin="round" stroke-miterlimit="10" d="
		M24.4,39.3"/>
	
		<path fill="none" stroke="#000000" stroke-width="2.0863" stroke-linecap="round" stroke-linejoin="round" stroke-miterlimit="10" d="
		M24.4,39.4"/>
	
		<path fill="none" stroke="#000000" stroke-width="2.0863" stroke-linecap="round" stroke-linejoin="round" stroke-miterlimit="10" d="
		M33.9,48.9"/>
	
		<path fill="none" stroke="#000000" stroke-width="2.0863" stroke-linecap="round" stroke-linejoin="round" stroke-miterlimit="10" d="
		M24.1,39.2"/>
	<path fill="none" stroke="#010202" stroke-width="2" stroke-linecap="round" stroke-linejoin="round" stroke-miterlimit="10" d="
		M45.9,36.9c-7,6.5-12.5,10.4-15.9,12.6l-7.6-7.7c2.2-3.4,6.1-8.8,12.6-15.8c4.8-5.2,9.8-9.9,13.8-12.4c2.9-1.8,6.6-1.6,8.9,0.7l0,0
		c2.3,2.3,2.5,5.9,0.7,8.9C55.8,27.1,51,32.1,45.9,36.9"/>
	<path fill="none" stroke="#010202" stroke-width="2" stroke-linecap="round" stroke-linejoin="round" stroke-miterlimit="10" d="
		M19.6,44.4c0,0-4.8,2.5-4.2,6.1c0.5,2.9-0.9,3.7-3.2,6c-1.7,1.7,6.5,3.4,9.5,1.8s4.6-3.1,5.7-6.2"/>
	
		<line fill="none" stroke="#010202" stroke-width="2.0863" stroke-linecap="round" stroke-linejoin="round" stroke-miterlimit="10" x1="27.4" y1="35.3" x2="36.6" y2="44.4"/>
</g>
</svg>
