<?xml version="1.0" encoding="utf-8"?>
<!-- Generator: Adobe Illustrator 21.1.0, SVG Export Plug-In . SVG Version: 6.00 Build 0)  -->
<svg version="1.1" id="emoji" xmlns="http://www.w3.org/2000/svg" xmlns:xlink="http://www.w3.org/1999/xlink" x="0px" y="0px"
	 viewBox="0 0 72 72" enable-background="new 0 0 72 72" xml:space="preserve">
<g id="_xD83D__xDD95_">
	<path fill="none" stroke="#1D1D1B" stroke-width="2" stroke-linecap="round" stroke-linejoin="round" stroke-miterlimit="10" d="
		M40.3,34.3c0.1-1.9,1.7-3.4,3.6-3.4s3.4,1.7,3.4,3.6"/>
	
		<line fill="none" stroke="#1D1D1B" stroke-width="2" stroke-linecap="round" stroke-linejoin="round" stroke-miterlimit="10" x1="54.3" y1="34.8" x2="54.3" y2="47.7"/>
	<path fill="none" stroke="#1D1D1B" stroke-width="2" stroke-linecap="round" stroke-linejoin="round" stroke-miterlimit="10" d="
		M23,34.8c-1.3-1.4-3.5-1.3-4.9,0c-1.4,1.3-1,3.3,0.4,4.7c1.8,1.9,2.9,4,2.9,8.4v-0.2c0,9.1,7.4,16.5,16.5,16.5s16.5-7.4,16.5-16.5"
		/>
	<path fill="none" stroke="#1D1D1B" stroke-width="2" stroke-linecap="round" stroke-linejoin="round" stroke-miterlimit="10" d="
		M54.3,34.8c0.1-1.9-1.4-3.6-3.4-3.6s-3.6,1.4-3.6,3.4l0,0.2c0.2-1.9-1.3-3.6-3.2-3.8c-1.9-0.2-3.6,1.3-3.8,3.2l0,0.4V11.4l0,0.1
		c0.1-1.9-1.3-3.6-3.3-3.7c-1.9-0.1-3.6,1.3-3.7,3.3v0.3v22.3c0-1.9-1.6-3.5-3.5-3.5s-3.5,1.6-3.5,3.5"/>
</g>
</svg>
