<svg id="emoji" xmlns="http://www.w3.org/2000/svg" viewBox="0 0 72 72">
  <g id="line">
    <path fill="none" stroke="#000000" stroke-width="2" stroke-linecap="round" stroke-linejoin="round" stroke-miterlimit="10" d="M41.1042,55.908h-6.9585c-4.9688,0-9.0342-4.0654-9.0342-9.0342v-21.325c0-4.9688,4.0654-9.0342,9.0342-9.0342h6.9585 c4.9688,0,9.0342,4.0654,9.0342,9.0342v21.325C50.1384,51.8426,46.073,55.908,41.1042,55.908z"/>
    <path fill="none" stroke="#000000" stroke-width="2" stroke-linecap="round" stroke-linejoin="round" stroke-miterlimit="10" d="M37.8361,32.216h-0.4222c-1.1161,0-2.0294-0.9132-2.0294-2.0294v-6.6551c0-1.1161,0.9132-2.0294,2.0294-2.0294h0.4222 c1.1161,0,2.0294,0.9132,2.0294,2.0294v6.6551C39.8655,31.3028,38.9523,32.216,37.8361,32.216z"/>
  </g>
</svg>
