<svg id="emoji" viewBox="0 0 72 72" xmlns="http://www.w3.org/2000/svg">
  <g id="line">
    <path fill="none" stroke="#000" stroke-linecap="round" stroke-linejoin="round" stroke-width="2" d="M48.0744,16.79c1.5539-.9135,3.2775-2.0476,5.1366-1.6845A11.6435,11.6435,0,0,1,62,24.3155c.5589,2.9164-1.3411,5.6107-3.4232,7.2949"/>
    <path fill="none" stroke="#000" stroke-linecap="round" stroke-linejoin="round" stroke-width="2" d="M28.666,44.5825s-2.967-5.306-10.4061-8.9976L48.0744,16.79"/>
    <line x1="26.9184" x2="58.577" y1="56.914" y2="31.6104" fill="none" stroke="#000" stroke-linecap="round" stroke-linejoin="round" stroke-width="2"/>
    <path fill="none" stroke="#000" stroke-linecap="round" stroke-linejoin="round" stroke-width="2" d="M21.9094,48.852c.0858-3.1169-2.2309-2.9971-2.2309-2.9971-1.6223-.103-2.3394,1.3973-2.6559,2.6974a5.2371,5.2371,0,0,0,.3447,3.504c2.09,4.31,6.5755,1.9634,6.5755,1.9634a5.8246,5.8246,0,0,0,2.5659-5.6731,3.9532,3.9532,0,0,0-.3332-1.3079,7.6974,7.6974,0,0,0-5.41-4.7587,6.4607,6.4607,0,0,0-7.1889,3.8446,11.6134,11.6134,0,0,0-.5913,1.6671,4.9354,4.9354,0,0,0-.1586.9214,9.557,9.557,0,0,0,4.0008,8.6531c7.2447,4.4384,11.7463-2.4617,11.7463-2.4617a9.2057,9.2057,0,0,0,.8758-8.6C27.179,39.86,18.26,35.5849,18.26,35.5849"/>
    <path fill="none" stroke="#000" stroke-linecap="round" stroke-linejoin="round" stroke-width="2" d="M16.3468,43.0114c.3429-.1894,6.3062-3.93,6.3062-3.93"/>
    <path fill="none" stroke="#000" stroke-linecap="round" stroke-linejoin="round" stroke-width="2" d="M53.34,35.5849c.1579-9.66-7.0056-12.9869-7.0056-12.9869"/>
    <path fill="none" stroke="#000" stroke-linecap="round" stroke-linejoin="round" stroke-width="2" d="M58.577,31.61A11.3593,11.3593,0,0,0,53.1562,20.86"/>
    <path fill="none" stroke="#000" stroke-linecap="round" stroke-linejoin="round" stroke-width="2" d="M46.6436,40.8149a12.54,12.54,0,0,0-5.1888-14.2023L29.868,33.8018s9.4553,5.7543,6.8227,15.3448Z"/>
  </g>
</svg>
