<svg id="emoji" viewBox="0 0 72 72" xmlns="http://www.w3.org/2000/svg">
  <g id="line">
    <line x1="45.4806" x2="45.4806" y1="13.9548" y2="19.5906" fill="none" stroke="#000000" stroke-linecap="round" stroke-linejoin="round" stroke-miterlimit="10" stroke-width="2"/>
    <line x1="40.7203" x2="40.7203" y1="13.9548" y2="19.5906" fill="none" stroke="#000000" stroke-linecap="round" stroke-linejoin="round" stroke-miterlimit="10" stroke-width="2"/>
    <line x1="35.96" x2="35.96" y1="13.9548" y2="19.5906" fill="none" stroke="#000000" stroke-linecap="round" stroke-linejoin="round" stroke-miterlimit="10" stroke-width="2"/>
    <line x1="50.2408" x2="50.2408" y1="13.9548" y2="19.5906" fill="none" stroke="#000000" stroke-linecap="round" stroke-linejoin="round" stroke-miterlimit="10" stroke-width="2"/>
    <line x1="31.1997" x2="31.1997" y1="13.9548" y2="19.5906" fill="none" stroke="#000000" stroke-linecap="round" stroke-linejoin="round" stroke-miterlimit="10" stroke-width="2"/>
    <line x1="26.4394" x2="26.4394" y1="13.9548" y2="19.5906" fill="none" stroke="#000000" stroke-linecap="round" stroke-linejoin="round" stroke-miterlimit="10" stroke-width="2"/>
    <line x1="21.6792" x2="21.6792" y1="13.9548" y2="19.5906" fill="none" stroke="#000000" stroke-linecap="round" stroke-linejoin="round" stroke-miterlimit="10" stroke-width="2"/>
    <line x1="16.9896" x2="54.7874" y1="29.3515" y2="29.3515" fill="none" stroke="#000000" stroke-linecap="round" stroke-linejoin="round" stroke-miterlimit="10" stroke-width="2"/>
    <line x1="16.9896" x2="54.7874" y1="39.8249" y2="39.8249" fill="none" stroke="#000000" stroke-linecap="round" stroke-linejoin="round" stroke-miterlimit="10" stroke-width="2"/>
    <line x1="16.9896" x2="39.115" y1="50.2984" y2="50.2984" fill="none" stroke="#000000" stroke-linecap="round" stroke-linejoin="round" stroke-miterlimit="10" stroke-width="2"/>
    <line x1="25.9463" x2="25.9463" y1="24.4434" y2="55.5488" fill="none" stroke="#000000" stroke-linecap="round" stroke-linejoin="round" stroke-miterlimit="10" stroke-width="2"/>
    <polyline fill="none" stroke="#000000" stroke-linecap="round" stroke-linejoin="round" stroke-miterlimit="10" stroke-width="2" points="54.3253,16.9734 59.96,16.9734 59.997,48.0382 43.6564,60.0864 11.997,60.0918 11.96,16.9734 17.5992,16.9734"/>
    <polyline fill="none" stroke="#000000" stroke-linecap="round" stroke-linejoin="round" stroke-miterlimit="10" stroke-width="2" points="59.7462,48.0382 43.1384,48.0382 43.1384,53.5175"/>
  </g>
</svg>
