<svg id="emoji" viewBox="0 0 72 72" xmlns="http://www.w3.org/2000/svg">
  <g id="line">
    <ellipse cx="21.997" cy="19.9408" rx="3" ry="3" transform="matrix(0.0096 -1 1 0.0096 1.8467 41.746)" fill="none" fill-rule="evenodd" stroke="#000000" stroke-linecap="round" stroke-linejoin="round" stroke-miterlimit="10" stroke-width="2" clip-rule="evenodd"/>
    <rect x="11.997" y="12.2142" width="48" height="16" fill="none" stroke="#000000" stroke-linecap="round" stroke-linejoin="round" stroke-miterlimit="10" stroke-width="2"/>
    <ellipse cx="49.9976" cy="19.9408" rx="3" ry="3" transform="matrix(0.0096 -1 1 0.0096 29.5794 69.7454)" fill="none" fill-rule="evenodd" stroke="#000000" stroke-linecap="round" stroke-linejoin="round" stroke-miterlimit="10" stroke-width="2" clip-rule="evenodd"/>
    <polyline fill="none" stroke="#000000" stroke-linecap="round" stroke-linejoin="round" stroke-miterlimit="10" stroke-width="2" points="11.997,28.0918 11.997,60.0918 43.6564,60.0864 59.997,48.0382 59.997,28.0918"/>
    <ellipse cx="18.2166" cy="33.6726" rx="2" ry="2" transform="matrix(0.0096 -1 1 0.0096 -15.6284 51.5668)" fill="#000000" stroke="none"/>
    <ellipse cx="24.2166" cy="33.6726" rx="2" ry="2" transform="matrix(0.0096 -1 1 0.0096 -9.6857 57.5665)" fill="#000000" stroke="none"/>
    <ellipse cx="30.2166" cy="33.6726" rx="2" ry="2" transform="matrix(0.0096 -1 1 0.0096 -3.743 63.5662)" fill="#000000" stroke="none"/>
    <ellipse cx="36.2166" cy="33.6726" rx="2" ry="2" transform="matrix(0.0096 -1 1 0.0096 2.1997 69.566)" fill="#000000" stroke="none"/>
    <ellipse cx="18.2166" cy="39.6726" rx="2" ry="2" transform="matrix(0.0096 -1 1 0.0096 -21.6282 57.5095)" fill="#000000" stroke="none"/>
    <ellipse cx="24.2166" cy="39.6726" rx="2" ry="2" transform="matrix(0.0096 -1 1 0.0096 -15.6855 63.5092)" fill="#000000" stroke="none"/>
    <ellipse cx="30.2166" cy="39.6726" rx="2" ry="2" transform="matrix(0.0096 -1 1 0.0096 -9.7428 69.5089)" fill="#000000" stroke="none"/>
    <ellipse cx="36.2166" cy="39.6726" rx="2" ry="2" transform="matrix(0.0096 -1 1 0.0096 -3.8001 75.5087)" fill="#000000" stroke="none"/>
    <ellipse cx="18.2166" cy="45.6726" rx="2" ry="2" transform="matrix(0.0096 -1 1 0.0096 -27.6279 63.4522)" fill="#000000" stroke="none"/>
    <polyline fill="none" stroke="#000000" stroke-linecap="round" stroke-linejoin="round" stroke-miterlimit="10" stroke-width="2" points="59.8694,48.0382 43.1384,48.0382 43.1384,53.5175"/>
  </g>
</svg>
