<svg id="emoji" viewBox="0 0 72 72" xmlns="http://www.w3.org/2000/svg">
  <g id="line">
    <path fill="none" stroke="#000" stroke-linecap="round" stroke-linejoin="round" stroke-miterlimit="10" stroke-width="2.089" d="m22.64 48.72s-4.916 0.9132-8.068 1.512c1.144-1.453 3.571-7.636 3.571-7.636l-6.667-1.413 5.324-5.855-7.653-4.136 6.529-2.717-2.367-7.087 8.895 3.14-2.702-9.007 8.244 3.134 0.013-0.0496 2.209-8.464c2.055 3.016 6.484 8.713 6.484 8.713s3.875-5.801 5.269-8.873c1.048 3.227 3.182 9.498 3.182 9.498l7.881-3.814 0.1639 8.701 8.332 0.8617-4.958 6.652 6.533 5.093-7.678 3.345s2.351 4.196 3.936 6.957l-8.778-0.7098s0.6942 6.256 1.208 9.337c-2.828-2.004-7.071-4.892-7.071-4.892l-3.275 6.861-4.135-6.378-4.363 6.338c-1.141-2.316-3.545-6.32-3.545-6.32l-5.791 5.706z"/>
    <path fill="none" stroke="#000" stroke-linecap="round" stroke-linejoin="round" stroke-width="2" d="m20.38 55.31-9.292 6.75 5.309-9.102"/>
  </g>
</svg>
