<?xml version="1.0" encoding="utf-8"?>
<!-- Generator: Adobe Illustrator 21.1.0, SVG Export Plug-In . SVG Version: 6.00 Build 0)  -->
<svg version="1.1" id="emoji" xmlns="http://www.w3.org/2000/svg" xmlns:xlink="http://www.w3.org/1999/xlink" x="0px" y="0px"
	 viewBox="0 0 72 72" enable-background="new 0 0 72 72" xml:space="preserve">
<g id="_xD83D__xDDE1__xFE0F__1_">
	<path fill="none" stroke="#000000" stroke-width="2" stroke-linecap="round" stroke-linejoin="round" stroke-miterlimit="10" d="
		M35,26.9h2c0,0,4-11,4-16l0-0.1c0-2.7-2.3-4.9-5-4.9c-2.7,0-5,2.2-5,4.9l0,0.1C31,15.9,35,26.9,35,26.9"/>
	<g>
		<path fill="none" stroke="#000000" stroke-width="2" stroke-linecap="round" stroke-linejoin="round" stroke-miterlimit="10" d="
			M28,26.9c-1.7,0-3,1.3-3,3s1.3,3,3,3v0"/>
		<path fill="none" stroke="#000000" stroke-width="2" stroke-linecap="round" stroke-linejoin="round" stroke-miterlimit="10" d="
			M44,32.9L44,32.9c1.7,0,3-1.3,3-3s-1.3-3-3-3"/>
		<path fill="none" stroke="#000000" stroke-width="2" stroke-linecap="round" stroke-linejoin="round" stroke-miterlimit="10" d="
			M28,26.9c5.3,1.3,10.7,1.3,16,0"/>
		<path fill="none" stroke="#000000" stroke-width="2" stroke-linecap="round" stroke-linejoin="round" stroke-miterlimit="10" d="
			M44,32.9c-5.3-1.3-10.7-1.3-16,0"/>
	</g>
	<g>
		<path fill="none" stroke="#000000" stroke-width="2" stroke-linecap="round" stroke-linejoin="round" stroke-miterlimit="10" d="
			M36,65.7c-2-4.6-3.1-9.6-3.2-14.6l-0.5-18.9c0,0,3.7-0.5,7.7,0l-0.5,18.9c-0.1,5-1.2,10-3.2,14.6"/>
	</g>
</g>
</svg>
