<?xml version="1.0" encoding="utf-8"?>
<!-- Generator: Adobe Illustrator 19.1.0, SVG Export Plug-In . SVG Version: 6.00 Build 0)  -->
<svg version="1.1" id="emoji" xmlns="http://www.w3.org/2000/svg" xmlns:xlink="http://www.w3.org/1999/xlink" x="0px" y="0px"
	 viewBox="0 0 72 72" enable-background="new 0 0 72 72" xml:space="preserve">
<g id="_xD83D__xDDFF_">
	<path stroke="#1D1D1B" stroke-miterlimit="10" d="M45.3,60.5"/>
	<path stroke="#1D1D1B" stroke-miterlimit="10" d="M45.3,60.5"/>
	<path fill="none" stroke="#000000" stroke-width="2" stroke-miterlimit="10" d="M47,59.4V11.7c0-0.5-0.4-0.9-0.9-0.9H33.4
		c-0.2,0-0.4,0.1-0.6,0.2l-6.1,5.5c-0.3,0.3-0.4,0.8-0.1,1.2l1.3,1.7c0.2,0.3,0.2,0.6,0.1,0.9l-8.2,16.3c-0.3,0.6,0.1,1.3,0.8,1.3
		h4.1c0.6,0,1.1,0.7,0.8,1.3l-2.8,5.5c-0.1,0.1-0.1,0.3-0.1,0.4v5.9c0,0.5,0.4,0.9,0.9,0.9h8.7c0.5,0,0.9,0.4,0.9,0.9v6.6
		c0,0.5,0.4,0.9,0.9,0.9h12.2C46.6,60.1,47,59.9,47,59.4z"/>
	
		<line fill="#1D1D1B" stroke="#000000" stroke-width="2" stroke-linecap="round" stroke-linejoin="round" stroke-miterlimit="10" x1="22.7" y1="44.8" x2="28.2" y2="44.8"/>
	
		<polyline fill="#D9D9D9" stroke="#000000" stroke-width="2" stroke-linecap="round" stroke-linejoin="round" stroke-miterlimit="10" points="
		41.1,31.6 41.1,44.8 42.8,44.8 	"/>
	
		<polyline fill="none" stroke="#000000" stroke-width="2" stroke-linecap="round" stroke-linejoin="round" stroke-miterlimit="10" points="
		29.3,26.5 37,20 34.9,20 32.8,20 	"/>
</g>
</svg>
