<svg id="emoji" viewBox="0 0 72 72" xmlns="http://www.w3.org/2000/svg">
  <g id="line">
    <polygon fill="none" stroke="#000000" stroke-linecap="round" stroke-linejoin="round" stroke-width="2" points="27.44 43.196 44.56 43.196 43.519 48.696 28.385 48.696 27.44 43.196"/>
    <rect x="5.0191" y="62.5" width="61.9618" height="4.5" fill="none" stroke="#000000" stroke-linecap="round" stroke-linejoin="round" stroke-width="2"/>
    <path fill="none" stroke="#000000" stroke-miterlimit="10" stroke-width="2" d="M29.7858,62c0-5.314,2.8457-9.6218,6.3561-9.6218S42.4979,56.686,42.4979,62"/>
    <path fill="none" stroke="#000000" stroke-linecap="round" stroke-linejoin="round" stroke-width="2" d="M42.8775,49.5a17.0418,17.0418,0,0,0,3.03,5.8265A25.6341,25.6341,0,0,0,54.5692,62"/>
    <path fill="none" stroke="#000000" stroke-linecap="round" stroke-linejoin="round" stroke-width="2" d="M40.2545,34.5912c-.0995-.9287-.2542-2.5213-.3586-4.5274-.1773-3.4091-.1-6.1179-.0849-6.14a104.18,104.18,0,0,0,1.61,19.158"/>
    <path fill="none" stroke="#000000" stroke-linecap="round" stroke-linejoin="round" stroke-width="2" d="M28.832,49.3254a17.8744,17.8744,0,0,1-3.3641,7.0014,18.5363,18.5363,0,0,1-7.6913,5.5376"/>
    <path fill="none" stroke="#000000" stroke-linecap="round" stroke-linejoin="round" stroke-width="2" d="M31.9474,34.5912c.1-.9287.2542-2.5213.3585-4.5274.1774-3.4091.1-6.1179.085-6.14a104.18,104.18,0,0,1-1.61,19.158"/>
    <polyline fill="none" stroke="#000000" stroke-linecap="round" stroke-linejoin="round" stroke-width="2" points="36.182 17.5 30.745 17.5 30.202 23.386 42.162 23.386 41.619 17.5 36.182 17.5"/>
    <polyline fill="none" stroke="#000000" stroke-linecap="round" stroke-linejoin="round" stroke-width="2" points="34.444 17 34.444 6 37.792 6 37.792 17"/>
  </g>
</svg>
