<?xml version="1.0" encoding="utf-8"?>
<!-- Generator: Adobe Illustrator 21.1.0, SVG Export Plug-In . SVG Version: 6.00 Build 0)  -->
<svg version="1.1" id="emoji" xmlns="http://www.w3.org/2000/svg" xmlns:xlink="http://www.w3.org/1999/xlink" x="0px" y="0px"
	 viewBox="0 0 72 72" enable-background="new 0 0 72 72" xml:space="preserve">
<g id="_xD83D__xDDFA__xFE0F_">
	
		<rect x="5" y="17" fill="none" stroke="#000000" stroke-width="2" stroke-linecap="round" stroke-linejoin="round" stroke-miterlimit="10" width="62" height="38"/>
	<path fill="none" stroke="#000000" stroke-width="2" stroke-linecap="round" stroke-linejoin="round" stroke-miterlimit="10" d="
		M28.5,30.5c0,0.6-1.7,2.6-2.1,2.9c-0.9,0.6-1.2,0.3-2,0.9c-0.5,0.4-1.1,0.8-1.8,0.9c-0.4,0.1-0.2-0.3-1.1,0.3c-0.5,0.3-0.1,0.7,0,1
		c0.1,0.4,0.1,0.2,1,1c0.5,0.4,0.5,0.8,1,1c0.3,0.1,0.5,0.1,1,0c0.9-0.1,0.5,0.8,1,1c1.1,0.4,1,1.8,2,2c0.4,0.1,0.6-0.1,1,0
		c0.4,0.1,0.9,0.5,1,1c0.2,0.7-0.4,1.3-1,2c-0.5,0.6-0.6,0.5-1,1c-0.5,0.7-0.4,0.9-1,2c-0.6,1.2-1,1.3-1,2c0,0.3,0,1,0,1
		c0,0.7,0.1,0.8,0,1c-0.1,0.5-1.1,0.9-1.5,0.9c-0.7-0.1-0.7-2.7-0.8-3.1c-0.1-0.8,0.3-1.3,0.3-1.8c0.1-1.8,0.4-2.3,0-3
		c-0.3-0.4-0.4-0.2-1-1c-0.3-0.4-0.9-1.1-1-2c-0.1-0.6,0.1-0.6,0-1c-0.2-0.8-0.8-1-2-2c-0.7-0.6-1.4-1.1-2-2c-0.3-0.4-0.8-1.1-1-2
		c-0.3-1.2,0.1-1.4,0-3c0-0.4-0.2-1.7-1-3c-0.3-0.6-0.6-0.9-1-1c-0.8-0.1-1.2,1.1-2,1c-0.5-0.1-0.9-0.6-1-1c0-0.1-0.2-0.5,0-1
		c0.1-0.3,0.4-0.5,1-1c0.6-0.5,0.9-0.8,1-1c0.1-0.4-0.1-0.6,0-1c0.2-0.7,1.3-1.2,2-1c0.4,0.1,0.3,0.4,1,1c0.3,0.3,1,0.8,2,1
		c0.5,0.1,0.7,0.1,1,0c0.6-0.3,0.3-1.2,1-2c0.6-0.8,1.6-0.9,2-1c1-0.2,1.1,0.2,2,0c0.9-0.2,0.9-0.7,2-1c0.5-0.1,1.3-0.4,2,0
		c0.6,0.3,0.5,0.9,1,1c0.6,0.2,1-0.9,2-1c0.8-0.1,1.7,0.3,2,1c0.1,0.3,0.1,0.6,0,1c-0.2,1.1-0.8,1.1-1,2c-0.2,0.9,0.3,1.2,0,2
		c-0.2,0.5-0.5,0.4-1,0.8c-0.2,0.2-0.3,0.5-1,1.2c-0.3,0.3-0.7,0.7-1,1C28.8,30.3,28.7,30.3,28.5,30.5"/>
	<path fill="none" stroke="#000000" stroke-width="2" stroke-linecap="round" stroke-linejoin="round" stroke-miterlimit="10" d="
		M34.5,35.5c-0.2-0.3-1.2-1.8-1-2c0.3-0.2,0.8,0.2,1,0c0.2-0.2-0.1-0.5,0-1c0.1-0.5,0.6-0.9,1-1c0.5-0.1,0.9,0.1,1,0
		c0.2-0.3-1.2-1.3-1-2c0.1-0.5,0.8-0.4,1-1c0.1-0.4-0.1-0.5,0-1c0.1-0.5,0.5-0.8,1-1c0.1,0,0.6-0.2,1,0c0.5,0.2,0.5,0.8,1,1
		c0.3,0.1,0.7,0.1,1,0c0.5-0.2,0.5-0.8,1-1c0.3-0.2,0.5,0,1,0c1.1,0,1.9-0.9,2-1c0.5-0.6,0.2-0.8,1-2c0.4-0.6,0.7-0.9,1-1
		c0.1,0,0.6-0.2,1,0c0.5,0.2,0.5,0.8,1,1c0.3,0.1,0.4,0.1,1,0c0.1,0,0.7,0,2,0c1.9,0,1.8,0,2,0c1-0.2,1-0.8,2-1c0.7-0.2,0.7,0.1,2,0
		c1.2-0.1,1.8-0.3,2,0c0.1,0.1,0,0.2,0,1c0,0.3,0.3,0.7,0.3,1c0,0.9,0,0.8,0,1c-0.2,0.5-0.4,0.7-0.6,1.2c-0.1,0.2-0.1,0.3-0.1,1
		c0.1,1.1,0.4,0.8,0.4,1.8c0,0.7,0.1,0.9,0,1c-0.3,0.3-2.2-0.3-2.6-1.1c-0.4-0.9-0.1-1.7-0.4-1.9c-0.4-0.3-2.2,1.1-2.5,2
		c-0.1,0.2-0.3,0.5,0.6,1.2c0.9,0.8,1.2,1.1,1.3,1.2c0.5,0.4,1,1,0.6,1.6c-0.6,0.8-1.6,0.3-2,1c-0.3,0.6,0.4,1.2,0,2
		c-0.1,0.2-0.4,0.5-1,1c-0.7,0.6-0.9,0.7-1,1c-0.1,0.5,0.2,0.8,0,1c-0.2,0.3-1,0-1,0c-1.3-0.5-1.3-2-2-2c-0.8,0-1.2,2.1-2,2
		c-0.2,0-0.4-0.3-1-1c-0.5-0.6-0.6-0.9-1-1c-0.5-0.2-0.9,0-1,0c-0.2,0.1-0.5,0.2-1,1c-0.7,1.1-0.4,1.4-1,2c-0.5,0.5-0.9,0.5-1,1
		c0,0.1,0,0.4,0,1c0,0.6,0,0.9,0,1c-0.2,0.5-0.8,0.5-1,1c-0.2,0.4,0,0.6,0,1c-0.1,1-1.2,2.1-2,2c-0.3-0.1-0.5-0.4-1-1
		c-0.4-0.6-0.8-1.2-1-2c-0.2-0.9,0.2-1,0-2c-0.1-0.5-0.3-1.6-1-2c-0.7-0.4-1.2,0.3-2,0c-0.7-0.3-1-1.3-1-2c0-0.8,0.4-1.3,1-2
		C33.9,35.9,34.2,35.7,34.5,35.5"/>
	<path fill="none" stroke="#000000" stroke-width="2" stroke-linecap="round" stroke-linejoin="round" stroke-miterlimit="10" d="
		M54.5,44.5c-1.2,0.6-1.7,0.5-2,1c-0.2,0.4,0,0.9,0,1c0.2,0.7,0.9,1,1,1c0.9,0.3,1.3-0.4,2,0c0.5,0.3,0.4,0.8,1,1
		c0.3,0.1,0.6,0.1,1,0c0.7-0.1,1.6-0.3,2-1c0.3-0.5,0.2-1,0-2c-0.2-0.8-0.4-1.8-1-2c-0.1,0-0.1,0-1,0c-0.7,0-0.8,0-1,0
		C55.7,43.5,55.6,44,54.5,44.5z"/>
</g>
</svg>
