<svg id="emoji" viewBox="0 0 72 72" version="1.1" xmlns="http://www.w3.org/2000/svg">
  <g id="line">
    <polyline fill="none" stroke="#000000" stroke-linecap="round" stroke-linejoin="round" stroke-miterlimit="10" stroke-width="2" points="66.3164,54.5649 60.9463,49.9292 57,45"/>
    <line x1="52" x2="57" y1="41" y2="45" fill="none" stroke="#000000" stroke-linecap="round" stroke-linejoin="round" stroke-miterlimit="10" stroke-width="2"/>
    <polyline fill="none" stroke="#000000" stroke-linecap="round" stroke-linejoin="round" stroke-miterlimit="10" stroke-width="2" points="5.2327,54.5649 12.6029,47.9292 18,41"/>
    <polyline fill="none" stroke="#000000" stroke-linecap="round" stroke-linejoin="round" stroke-miterlimit="10" stroke-width="2" points="18,41 24,36 29,31 32,28 35,28 36,28 37.6828,27.9179 43.9225,33.0109 49.0188,37.4373 52,41"/>
    <path fill="none" stroke="#000000" stroke-linecap="round" stroke-linejoin="round" stroke-miterlimit="10" stroke-width="2" d="M42,47c3-1,1-4,2-4c0.8019,0,1.5452,0.684,3,2c0.9605,0.8689,1.1031,1.3573,2,2c0.8247,0.591,1.6097,1.24,2,1 c0.6221-0.3825,0.3075-3.026-1-5c-0.5197-0.7846-0.5546-1.4454,0-2c1-1,1-0.734,1-1"/>
    <path fill="none" stroke="#000000" stroke-linecap="round" stroke-linejoin="round" stroke-miterlimit="10" stroke-width="2" d="M18,41c0.4301,0.3941,3,1,4,0c0.932-0.932,1.7738-1.1595,2-1c0.2881,0.2032-0.4439,1.5363-1,4c-0.2829,1.2534-0.2761,2.7175,0,3 c0.4433,0.4537,1,0,2-1c0.4564-0.4564,1-1,1-1c1-1,2-3,3-3s1,1.1991,1,2c0,1-0.1171,1.9887,0,3c0.101,0.872,0,2,1,2 c0.9445,0,2-4,3-5s3-1,4,0s3,4,4,3"/>
    <path fill="none" stroke="#000000" stroke-linecap="round" stroke-linejoin="round" stroke-miterlimit="10" stroke-width="2" d="M52,41l-2.9812-3.5627l-5.0963-4.4264l-6.2397-5.093L36,28h-1h-3l-3,3l-5,5l-6,5c0.4301,0.3941,3,1,4,0 c0.932-0.932,1.7738-1.1595,2-1c0.2881,0.2032-0.4439,1.5363-1,4c-0.2829,1.2534-0.2761,2.7175,0,3c0.4433,0.4537,1,0,2-1 c0.4564-0.4564,1-1,1-1c1-1,2-3,3-3s1,1.1991,1,2c0,1-0.1171,1.9887,0,3c0.101,0.872,0,2,1,2c0.9445,0,2-4,3-5s3-1,4,0s3,4,4,3 c3-1,1-4,2-4c0.8019,0,1.5452,0.684,3,2c0.9605,0.8689,1.1031,1.3573,2,2c0.8247,0.591,1.6097,1.24,2,1 c0.6221-0.3825,0.3075-3.026-1-5c-0.5197-0.7846-0.5546-1.4454,0-2c1-1,1-0.734,1-1"/>
  </g>
</svg>
