<?xml version="1.0" encoding="utf-8"?>
<!-- Generator: Adobe Illustrator 21.1.0, SVG Export Plug-In . SVG Version: 6.00 Build 0)  -->
<svg version="1.1" id="emoji" xmlns="http://www.w3.org/2000/svg" xmlns:xlink="http://www.w3.org/1999/xlink" x="0px" y="0px"
	 viewBox="0 0 72 72" enable-background="new 0 0 72 72" xml:space="preserve">
<g id="_xD83D__xDE05_">
	<path fill="none" stroke="#1F201F" stroke-width="2" stroke-linecap="round" stroke-linejoin="round" stroke-miterlimit="10" d="
		M52.7,45.6"/>
	<path fill="none" stroke="#1F201F" stroke-width="2" stroke-linecap="round" stroke-linejoin="round" stroke-miterlimit="10" d="
		M20.1,45.6"/>
	<path fill="none" stroke="#000000" stroke-width="2" stroke-linecap="round" stroke-linejoin="round" stroke-miterlimit="10" d="
		M19.5,43.1c0,0,17.2,4.2,33.6,0.1"/>
	<path fill="none" stroke="#000000" stroke-width="2" stroke-linecap="round" stroke-linejoin="round" stroke-miterlimit="10" d="
		M53.3,43.1c0,7.6-5.6,13.6-16.9,13.6c-11.3,0-17-6.1-17-13.6"/>
	<path fill="none" stroke="#000000" stroke-width="2" stroke-linejoin="round" stroke-miterlimit="10" d="M20,48.1
		c0,0,16.8,4.2,32.9,0.1"/>
	<path d="M61.7,26.8c-1.2,1.2-2.7,1.8-4.4,1.8c-1.7,0-3.2-0.6-4.4-1.8c-1.2-1.2-1.8-2.7-1.8-4.4c0-5.4,5.1-10.6,5.4-10.8
		c0.5-0.5,1.2-0.5,1.6,0c0.2,0.2,5.4,5.4,5.4,10.8l0,0C63.5,24.1,62.8,25.6,61.7,26.8z M57.3,14.1c-1.3,1.6-3.8,5-3.8,8.3
		c0,1,0.4,2,1.1,2.7c0.7,0.7,1.7,1.1,2.7,1.1c2.1,0,3.9-1.8,3.8-3.8l0,0C61.1,19.1,58.6,15.7,57.3,14.1z"/>
	<path fill="none" stroke="#000000" stroke-width="2" stroke-linecap="round" stroke-linejoin="round" stroke-miterlimit="10" d="
		M50.4,13.5c-4.1-2.5-8.9-4-14.1-4c-14.8,0-26.7,12-26.7,26.7C9.6,51,21.6,63,36.3,63c14.8,0,26.7-12,26.7-26.7
		c0-1.9-0.2-3.8-0.6-5.6"/>
	<path d="M31.5,33c-0.4,0-0.8-0.2-1-0.6c0,0-1.4-2.7-4-2.7c-2.6,0-4,2.7-4,2.7c-0.3,0.6-1,0.8-1.6,0.5c-0.6-0.3-0.8-1-0.5-1.6
		c0.1-0.2,2-4,6.1-4s6,3.8,6.1,4c0.3,0.6,0.1,1.3-0.5,1.6C31.9,33,31.7,33,31.5,33z"/>
	<path d="M51.6,33c-0.4,0-0.8-0.2-1-0.6c0,0-1.4-2.7-4-2.7c-2.6,0-4,2.7-4,2.7c-0.3,0.6-1,0.8-1.6,0.5c-0.6-0.3-0.8-1-0.5-1.6
		c0.1-0.2,2-4,6.1-4s6,3.8,6.1,4c0.3,0.6,0.1,1.3-0.5,1.6C52,33,51.8,33,51.6,33z"/>
</g>
</svg>
