<?xml version="1.0" encoding="utf-8"?>
<!-- Generator: Adobe Illustrator 21.1.0, SVG Export Plug-In . SVG Version: 6.00 Build 0)  -->
<svg version="1.1" id="emoji" xmlns="http://www.w3.org/2000/svg" xmlns:xlink="http://www.w3.org/1999/xlink" x="0px" y="0px"
	 viewBox="0 0 72 72" enable-background="new 0 0 72 72" xml:space="preserve">
<g>
	<path fill="none" stroke="#1F201F" stroke-width="2" stroke-linecap="round" stroke-linejoin="round" stroke-miterlimit="10" d="
		M34.7,29.8"/>
	<path fill="none" stroke="#1F201F" stroke-width="2" stroke-linecap="round" stroke-linejoin="round" stroke-miterlimit="10" d="
		M34.7,30.5"/>
	<path fill="none" stroke="#1F201F" stroke-width="2" stroke-linecap="round" stroke-linejoin="round" stroke-miterlimit="10" d="
		M53,46.3"/>
	<path fill="none" stroke="#1F201F" stroke-width="2" stroke-linecap="round" stroke-linejoin="round" stroke-miterlimit="10" d="
		M19.9,46.3"/>
	<path fill="none" stroke="#000000" stroke-width="2" stroke-linecap="round" stroke-linejoin="round" stroke-miterlimit="10" d="
		M58.6,34.1c0-0.1,0-0.1,0-0.2c-1.4-11.4-11.1-20.2-22.8-20.2c-11.6,0-21.2,8.7-22.8,19.9c0,0.1,0,0.3-0.1,0.4"/>
	<path fill="none" stroke="#000000" stroke-width="2" stroke-linecap="round" stroke-linejoin="round" stroke-miterlimit="10" d="
		M17,50c4.2,5.8,11.1,9.8,18.8,9.8c7.7,0,14.6-3.9,18.8-9.7"/>
	<path d="M31.6,37c-0.4,0-0.7-0.2-0.9-0.6c0,0-1.2-2.3-3.4-2.3c-2.2,0-3.4,2.3-3.4,2.3c-0.2,0.5-0.8,0.7-1.3,0.4
		c-0.5-0.2-0.7-0.8-0.4-1.3c0.1-0.1,1.8-3.4,5.2-3.4s5.1,3.3,5.2,3.4c0.2,0.5,0,1.1-0.4,1.3C31.9,37,31.7,37,31.6,37z"/>
	<path d="M48.8,37c-0.4,0-0.7-0.2-0.9-0.6c0,0-1.2-2.3-3.4-2.3c-2.2,0-3.4,2.3-3.4,2.3c-0.2,0.5-0.8,0.7-1.3,0.4
		c-0.5-0.2-0.7-0.8-0.4-1.3c0.1-0.1,1.8-3.4,5.2-3.4c3.5,0,5.1,3.3,5.2,3.4c0.2,0.5,0,1.1-0.4,1.3C49.1,37,49,37,48.8,37z"/>
	<path fill="none" stroke="#1F201F" stroke-width="2" stroke-linecap="round" stroke-linejoin="round" stroke-miterlimit="10" d="
		M53,47"/>
	<path fill="none" stroke="#1F201F" stroke-width="2" stroke-linecap="round" stroke-linejoin="round" stroke-miterlimit="10" d="
		M19.9,47"/>
	<path fill="none" stroke="#1F201F" stroke-width="2" stroke-linecap="round" stroke-linejoin="round" stroke-miterlimit="10" d="
		M53.4,47"/>
	<path fill="none" stroke="#1F201F" stroke-width="2" stroke-linecap="round" stroke-linejoin="round" stroke-miterlimit="10" d="
		M20.4,47"/>
	<path fill="none" stroke="#000000" stroke-width="2" stroke-linecap="round" stroke-linejoin="round" stroke-miterlimit="10" d="
		M21.3,43.3c0,0,14.8,3.6,28.9,0.1"/>
	<path fill="none" stroke="#000000" stroke-width="2" stroke-linecap="round" stroke-linejoin="round" stroke-miterlimit="10" d="
		M50.4,43.3c0,6.5-4.8,11.7-14.6,11.7c-9.7,0-14.6-5.2-14.6-11.7"/>
	<path fill="none" stroke="#000000" stroke-width="2" stroke-linejoin="round" stroke-miterlimit="10" d="M21.7,47.6
		c0,0,14.5,3.6,28.3,0.1"/>
	<path d="M9.2,50.7c-1.5,0-2.9-0.6-3.9-1.6c-1.1-1.1-1.6-2.4-1.6-3.9c0-1.5,0.6-2.9,1.6-3.9c3.5-3.5,10-3.5,10.3-3.5
		c0.6,0,1,0.5,1,1c0,0.3,0,6.9-3.5,10.3l0,0C12,50.2,10.7,50.7,9.2,50.7z M14.4,39.9c-1.9,0.2-5.6,0.7-7.7,2.8c-0.7,0.7-1,1.5-1,2.5
		c0,0.9,0.4,1.8,1,2.5c1.3,1.3,3.6,1.3,4.9,0l0,0C13.7,45.5,14.3,41.8,14.4,39.9z"/>
	<path d="M58.1,49.1L58.1,49.1c-3.5-3.5-3.5-10-3.5-10.3c0-0.6,0.5-1,1-1c0.3,0,6.9,0,10.3,3.5c1.1,1,1.6,2.4,1.6,3.9
		c0,1.5-0.6,2.9-1.6,3.9c-1.1,1.1-2.4,1.6-3.9,1.6C60.5,50.7,59.2,50.2,58.1,49.1z M59.6,47.6L59.6,47.6c1.3,1.3,3.6,1.3,4.9,0
		c0.7-0.7,1-1.5,1-2.5c0-0.9-0.4-1.8-1-2.5c-2.1-2.1-5.9-2.7-7.7-2.8C56.9,41.8,57.5,45.5,59.6,47.6z"/>
	<path fill="none" stroke="#000000" stroke-width="2" stroke-linecap="round" stroke-linejoin="round" stroke-miterlimit="10" d="
		M20.1,29c0.7-1.4,1.9-2.5,3.4-3c1.4-0.7,3-0.8,4.5-0.4"/>
	<path fill="none" stroke="#000000" stroke-width="2" stroke-linecap="round" stroke-linejoin="round" stroke-miterlimit="10" d="
		M50.7,29c-1.6-2.8-4.8-4.2-7.9-3.4"/>
</g>
</svg>
