<?xml version="1.0" encoding="utf-8"?>
<!-- Generator: Adobe Illustrator 21.1.0, SVG Export Plug-In . SVG Version: 6.00 Build 0)  -->
<svg version="1.1" id="emoji" xmlns="http://www.w3.org/2000/svg" xmlns:xlink="http://www.w3.org/1999/xlink" x="0px" y="0px"
	 viewBox="0 0 72 72" enable-background="new 0 0 72 72" xml:space="preserve">
<g id="_xD83D__xDE07_">
	<path fill="none" stroke="#000000" stroke-width="2" stroke-linecap="round" stroke-linejoin="round" stroke-miterlimit="10" d="
		M46.6,48.1c-6.3,5.1-15.3,5.1-21.3,0"/>
	<path d="M31.6,36.6c-0.4,0-0.8-0.2-1-0.6c0,0-1.3-2.5-3.7-2.5c-2.4,0-3.7,2.5-3.7,2.5c-0.3,0.5-0.9,0.8-1.5,0.5
		c-0.5-0.3-0.8-0.9-0.5-1.5c0.1-0.2,1.9-3.7,5.6-3.7s5.6,3.6,5.6,3.7c0.3,0.5,0.1,1.2-0.5,1.5C31.9,36.6,31.7,36.6,31.6,36.6z"/>
	<path d="M50.2,36.6c-0.4,0-0.8-0.2-1-0.6c0,0-1.3-2.5-3.7-2.5c-2.4,0-3.7,2.5-3.7,2.5c-0.3,0.5-0.9,0.8-1.5,0.5
		c-0.5-0.3-0.8-0.9-0.5-1.5c0.1-0.2,1.9-3.7,5.6-3.7s5.6,3.6,5.6,3.7c0.3,0.5,0.1,1.2-0.5,1.5C50.6,36.6,50.4,36.6,50.2,36.6z"/>
	<path fill="none" stroke="#D9408F" stroke-width="2" stroke-linecap="round" stroke-linejoin="round" stroke-miterlimit="10" d="
		M16.6,26.7"/>
	<path fill="none" stroke="#D9408F" stroke-width="2" stroke-linecap="round" stroke-linejoin="round" stroke-miterlimit="10" d="
		M13.1,24.6"/>
	
		<ellipse fill="none" stroke="#000000" stroke-width="2" stroke-linecap="round" stroke-linejoin="round" stroke-miterlimit="10" cx="36" cy="15.5" rx="26" ry="5.5"/>
	<path fill="none" stroke="#000000" stroke-width="2" stroke-linecap="round" stroke-linejoin="round" stroke-miterlimit="10" d="
		M48.8,17c-3.7-2.2-8.1-3.5-12.7-3.5c-4.6,0-8.9,1.2-12.5,3.4"/>
	<path fill="none" stroke="#000000" stroke-width="2" stroke-linecap="round" stroke-linejoin="round" stroke-miterlimit="10" d="
		M16.2,23.4c-3.1,4.2-5,9.3-5,15c0,13.7,11.1,24.9,24.8,24.9c13.7,0,24.9-11.1,24.9-24.8c0-5.7-1.9-10.9-5.1-15.1"/>
</g>
</svg>
