<?xml version="1.0" encoding="utf-8"?>
<!-- Generator: Adobe Illustrator 21.1.0, SVG Export Plug-In . SVG Version: 6.00 Build 0)  -->
<svg version="1.1" id="emoji" xmlns="http://www.w3.org/2000/svg" xmlns:xlink="http://www.w3.org/1999/xlink" x="0px" y="0px"
	 viewBox="0 0 72 72" enable-background="new 0 0 72 72" xml:space="preserve">
<g id="_xD83D__xDE0E_">
	<circle fill="none" stroke="#FDE034" stroke-miterlimit="10" cx="35.9" cy="36.1" r="23"/>
	
		<circle fill="none" stroke="#000000" stroke-width="2" stroke-linecap="round" stroke-linejoin="round" stroke-miterlimit="10" cx="35.9" cy="36.1" r="23"/>
	<path fill="none" stroke="#000000" stroke-width="2" stroke-linecap="round" stroke-linejoin="round" stroke-miterlimit="10" d="
		M45.7,44.9c-6.6,3.5-14,3.7-19.6,0"/>
	<g>
		<path fill="none" stroke="#000000" stroke-width="2" stroke-linecap="round" stroke-linejoin="round" stroke-miterlimit="10" d="
			M18.9,30.5c0,0-1,8.6,6.9,7.9c2.6-0.2,7.8-0.7,7.9-8.3c0-0.7,0-1.6-0.8-2.6c-1.1-1.4-3.6-2-9.9-1.4C22.9,26,19.4,25.9,18.9,30.5z"
			/>
		
			<polyline fill="none" stroke="#000000" stroke-width="2" stroke-linecap="round" stroke-linejoin="round" stroke-miterlimit="10" points="
			19,29.9 18.5,26.6 22.4,26 		"/>
		<path fill="none" stroke="#000000" stroke-width="2" stroke-linecap="round" stroke-linejoin="round" stroke-miterlimit="10" d="
			M52.7,30.5c0,0,1,8.6-6.9,7.9c-2.6-0.2-7.8-0.7-7.9-8.3c0-0.7,0-1.6,0.8-2.6c1.1-1.4,3.6-2,9.9-1.4C48.8,26,52.2,25.9,52.7,30.5z"
			/>
		<path fill="none" stroke="#000000" stroke-width="2" stroke-linecap="round" stroke-linejoin="round" stroke-miterlimit="10" d="
			M31.5,26.4c0,0,4.1,2.5,8.7,0"/>
		<path fill="none" stroke="#000000" stroke-width="2" stroke-linecap="round" stroke-linejoin="round" stroke-miterlimit="10" d="
			M38,30"/>
		<path fill="none" stroke="#000000" stroke-width="2" stroke-linecap="round" stroke-linejoin="round" stroke-miterlimit="10" d="
			M33.6,30"/>
		<path fill="none" stroke="#000000" stroke-width="2" stroke-linecap="round" stroke-linejoin="round" stroke-miterlimit="10" d="
			M33.5,31.3c0,0,2.2-3.8,4.5,0"/>
		
			<polyline fill="none" stroke="#000000" stroke-width="2" stroke-linecap="round" stroke-linejoin="round" stroke-miterlimit="10" points="
			52.7,29.9 53.1,26.6 49.3,26 		"/>
		<path fill="none" stroke="#000000" stroke-width="2" stroke-linecap="round" stroke-linejoin="round" stroke-miterlimit="10" d="
			M34,30c0,0,1.8-3.8,3.7,0"/>
		<path fill="#9B9B9A" stroke="#9B9B9A" stroke-width="2" stroke-miterlimit="10" d="M33.8,35.6"/>
	</g>
</g>
</svg>
