<?xml version="1.0" encoding="utf-8"?>
<!-- Generator: Adobe Illustrator 21.1.0, SVG Export Plug-In . SVG Version: 6.00 Build 0)  -->
<svg version="1.1" id="emoji" xmlns="http://www.w3.org/2000/svg" xmlns:xlink="http://www.w3.org/1999/xlink" x="0px" y="0px"
	 viewBox="0 0 72 72" enable-background="new 0 0 72 72" xml:space="preserve">
<g id="_xD83D__xDE0A_">
	<circle fill="none" stroke="#FDE034" stroke-miterlimit="10" cx="36.6" cy="36.6" r="26.4"/>
	
		<circle fill="none" stroke="#000000" stroke-width="2" stroke-linecap="round" stroke-linejoin="round" stroke-miterlimit="10" cx="36.6" cy="36.6" r="26.4"/>
	<path fill="none" stroke="#000000" stroke-width="2" stroke-linecap="round" stroke-linejoin="round" stroke-miterlimit="10" d="
		M47.9,46.7c-6.7,5.4-16.2,5.4-22.5,0"/>
	<path d="M31.9,34.5c-0.4,0-0.8-0.2-1-0.6c0,0-1.4-2.7-3.9-2.7c-2.6,0-3.9,2.6-3.9,2.7c-0.3,0.6-1,0.8-1.5,0.5
		c-0.6-0.3-0.8-1-0.5-1.5c0.1-0.2,2-3.9,6-3.9s5.9,3.8,6,3.9c0.3,0.6,0.1,1.3-0.5,1.5C32.2,34.5,32,34.5,31.9,34.5z"/>
	<path d="M51.7,34.5c-0.4,0-0.8-0.2-1-0.6c0,0-1.4-2.7-3.9-2.7c-2.6,0-3.9,2.6-3.9,2.7c-0.3,0.6-1,0.8-1.5,0.5
		c-0.6-0.3-0.8-1-0.5-1.5c0.1-0.2,2-3.9,6-3.9s5.9,3.8,6,3.9c0.3,0.6,0.1,1.3-0.5,1.5C52,34.5,51.8,34.5,51.7,34.5z"/>
</g>
</svg>
