<svg id="emoji" xmlns="http://www.w3.org/2000/svg" viewBox="0 0 72 72">
  <g id="line">
    <polygon id="SVGID_1_" points="36.3318,12.9518 27.702,14.6315 22.4022,17.652 17.5115,22.7311 14.0818,30.0817 14.0818,42.4215 
				19.6815,51.8219 27.702,57.2721 36.3318,58.9518 43.5115,57.8014 51.2215,53.4714 56.3318,47.3122 59.3318,38.1022 
				58.5818,30.1217 54.7723,22.2116 50.5623,17.8913 43.3123,14.0319 			" fill="#000000" stroke="none"></polygon>
    <path fill="none" stroke="#000000" stroke-width="2" stroke-linecap="round" stroke-linejoin="round" stroke-miterlimit="10" d="
		M50.385,43.9886"></path>
    <path fill="none" stroke="#000000" stroke-width="2" stroke-linecap="round" stroke-linejoin="round" stroke-miterlimit="10" d="
		M22.3295,43.9886"></path>
    <polygon id="SVGID_3_" points="41.0531,53.4803 47.4036,50.3964 49.8587,47.0919 50.5285,43.4026 42.7571,43.5048 
				21.8167,43.5048 24.5769,50.3964 31.213,53.4803 			" fill="#000000" stroke="none"></polygon>
    <path fill="none" stroke="#000000" stroke-width="2" stroke-linecap="round" stroke-linejoin="round" stroke-miterlimit="10" d="
		M21.8532,41.8149c0,0,14.8044,3.5947,28.8867,0.0775"></path>
    <path fill="none" stroke="#000000" stroke-width="2" stroke-linecap="round" stroke-linejoin="round" stroke-miterlimit="10" d="
		M50.9358,41.8149c0,6.5327-4.8486,11.7255-14.5679,11.7255c-9.7171,0-14.6292-5.2088-14.6292-11.7255"></path>
    <path fill="none" stroke="#000000" stroke-width="2" stroke-linejoin="round" stroke-miterlimit="10" d="M22.2863,46.1094
		c0,0,14.4889,3.5947,28.2711,0.0775"></path>
    <circle fill="none" stroke="#000000" stroke-width="2" stroke-linecap="round" stroke-linejoin="round" stroke-miterlimit="10" cx="36.3318" cy="35.9518" r="23"></circle>
    <ellipse cx="29.2367" cy="30.7698" rx="3" ry="5.4038" fill="#000000" stroke="none"></ellipse>
    <ellipse cx="44.1" cy="30.7734" rx="3" ry="5.4038" fill="#000000" stroke="none"></ellipse>
  </g>
</svg>