<svg id="emoji" xmlns="http://www.w3.org/2000/svg" viewBox="0 0 72 72">
  <g id="line">
    <path fill="none" stroke="#000000" stroke-width="2" stroke-linecap="round" stroke-linejoin="round" stroke-miterlimit="10" d="
		M34.6818,29.8368"></path>
    <path fill="none" stroke="#000000" stroke-width="2" stroke-linecap="round" stroke-linejoin="round" stroke-miterlimit="10" d="
		M34.6818,30.4732"></path>
    <polygon id="SVGID_1_" points="35.7815,13.8 27.1517,15.4797 21.8519,18.5002 16.9612,23.5793 13.5315,30.9299 13.5315,43.2697 
				19.1311,52.6701 27.1517,58.1203 35.7815,59.8 42.9612,58.6496 50.6712,54.3196 55.7815,48.1604 58.7815,38.9504 
				58.0315,30.9699 54.222,23.0598 50.012,18.7395 42.762,14.8801 			" fill="#000000" stroke="none"></polygon>
    <path fill="none" stroke="#000000" stroke-width="2" stroke-linecap="round" stroke-linejoin="round" stroke-miterlimit="10" d="
		M52.9879,46.2672"></path>
    <path fill="none" stroke="#000000" stroke-width="2" stroke-linecap="round" stroke-linejoin="round" stroke-miterlimit="10" d="
		M19.9388,46.2672"></path>
    <path fill="none" stroke="#000000" stroke-width="2" stroke-linecap="round" stroke-linejoin="round" stroke-miterlimit="10" d="
		M58.6294,34.1406c-0.0064-0.0559-0.0131-0.1118-0.0199-0.1675C57.2161,22.6037,47.5267,13.8,35.7815,13.8
		c-11.6219,0-21.2446,8.7256-22.7959,19.9204c-0.0148,0.1069-0.0386,0.3127-0.052,0.4201"></path>
    <path fill="none" stroke="#000000" stroke-width="2" stroke-linecap="round" stroke-linejoin="round" stroke-miterlimit="10" d="
		M16.9647,50.029c4.179,5.7684,11.1488,9.771,18.8168,9.771c7.6676,0,14.5781-3.9186,18.7572-9.6871"></path>
    <path d="M31.5756,36.9935c-0.3672,0-0.7207-0.2032-0.8965-0.5528c-0.0098-0.0195-1.2129-2.3222-3.418-2.3222
		c-2.2305,0-3.4062,2.2988-3.418,2.3222c-0.2461,0.4942-0.8457,0.6934-1.3418,0.4473c-0.4941-0.2481-0.6933-0.8477-0.4472-1.3418
		c0.0703-0.1406,1.7539-3.4277,5.207-3.4277s5.1367,3.2871,5.207,3.4277c0.2481,0.4941,0.0469,1.0937-0.4472,1.3418
		C31.8783,36.9583,31.724,36.9935,31.5756,36.9935z" fill="#000000" stroke="none"></path>
    <path d="M48.8256,36.9935c-0.3672,0-0.7207-0.2032-0.8965-0.5528c-0.0098-0.0195-1.2129-2.3222-3.418-2.3222
		c-2.2305,0-3.4062,2.2988-3.418,2.3222c-0.2461,0.4942-0.8457,0.6934-1.3418,0.4473c-0.4941-0.2481-0.6933-0.8477-0.4472-1.3418
		c0.0703-0.1406,1.7539-3.4277,5.207-3.4277c3.4531,0,5.1367,3.2871,5.207,3.4277c0.2481,0.4941,0.0469,1.0937-0.4472,1.3418
		C49.1283,36.9583,48.974,36.9935,48.8256,36.9935z" fill="#000000" stroke="none"></path>
    <path fill="none" stroke="#000000" stroke-width="2" stroke-linecap="round" stroke-linejoin="round" stroke-miterlimit="10" d="
		M52.9879,47.0169"></path>
    <path fill="none" stroke="#000000" stroke-width="2" stroke-linecap="round" stroke-linejoin="round" stroke-miterlimit="10" d="
		M19.9388,47.0169"></path>
    <path fill="none" stroke="#000000" stroke-width="2" stroke-linecap="round" stroke-linejoin="round" stroke-miterlimit="10" d="
		M53.4233,47.0169"></path>
    <path fill="none" stroke="#000000" stroke-width="2" stroke-linecap="round" stroke-linejoin="round" stroke-miterlimit="10" d="
		M20.3742,47.0169"></path>
    <polygon id="SVGID_3_" points="40.4973,54.965 46.8478,51.8811 49.303,48.5765 49.9728,44.8872 42.2013,44.9895 21.261,44.9895 
				24.0211,51.8811 30.6573,54.965 			" fill="#000000" stroke="none"></polygon>
    <path fill="none" stroke="#000000" stroke-width="2" stroke-linecap="round" stroke-linejoin="round" stroke-miterlimit="10" d="
		M21.2974,43.2995c0,0,14.8044,3.5947,28.8867,0.0775"></path>
    <path fill="none" stroke="#000000" stroke-width="2" stroke-linecap="round" stroke-linejoin="round" stroke-miterlimit="10" d="
		M50.38,43.2995c0,6.5327-4.8486,11.7255-14.5679,11.7255c-9.7171,0-14.6292-5.2088-14.6292-11.7255"></path>
    <path fill="none" stroke="#000000" stroke-width="2" stroke-linejoin="round" stroke-miterlimit="10" d="M21.7305,47.5941
		c0,0,14.4889,3.5947,28.2711,0.0775"></path>
    <path d="M9.165,50.7499c-1.4854,0-2.8827-0.5791-3.9344-1.6307C4.179,48.0676,3.6,46.6702,3.6,45.1828
		c0-1.4854,0.579-2.8827,1.6306-3.9323c3.4618-3.4618,10.0436-3.5006,10.3219-3.5006c0.579,0,1.0475,0.4686,1.0475,1.0475
		c0,0.2782-0.0388,6.86-3.5006,10.3218l0,0C12.0498,50.1709,10.6524,50.7499,9.165,50.7499z M14.4456,39.9043
		c-1.8659,0.1575-5.6386,0.7325-7.7337,2.8276c-0.6567,0.6547-1.0168,1.5262-1.0168,2.451c0,0.9268,0.3601,1.7984,1.0168,2.4552
		c1.3115,1.3114,3.5968,1.3114,4.9062,0l0,0C13.7131,45.543,14.288,41.7702,14.4456,39.9043z" fill="#000000" stroke="none"></path>
    <path d="M58.1006,49.1192L58.1006,49.1192C54.6388,45.6575,54.6,39.0757,54.6,38.7975c0-0.579,0.4686-1.0475,1.0475-1.0475
		c0.2783,0,6.8601,0.0389,10.3219,3.5006C67.021,42.3002,67.6,43.6975,67.6,45.1828c0,1.4874-0.579,2.8848-1.6306,3.9364
		c-1.0517,1.0516-2.449,1.6307-3.9344,1.6307C60.5476,50.7499,59.1502,50.1709,58.1006,49.1192z M59.5819,47.638L59.5819,47.638
		c1.3094,1.3114,3.5947,1.3114,4.9062,0c0.6567-0.6568,1.0168-1.5283,1.0168-2.4552c0-0.9248-0.3601-1.7963-1.0168-2.451
		c-2.095-2.0951-5.8678-2.67-7.7337-2.8276C56.912,41.7702,57.4869,45.543,59.5819,47.638z" fill="#000000" stroke="none"></path>
    <path fill="none" stroke="#000000" stroke-width="2" stroke-linecap="round" stroke-linejoin="round" stroke-miterlimit="10" d="
		M20.1243,29.0002c0.7207-1.3857,1.9278-2.4541,3.3907-3c1.4052-0.7002,3.0205-0.8486,4.5302-0.4209"></path>
    <path fill="none" stroke="#000000" stroke-width="2" stroke-linecap="round" stroke-linejoin="round" stroke-miterlimit="10" d="
		M50.7347,29.0002c-1.582-2.7724-4.8037-4.1699-7.9092-3.4306"></path>
  </g>
</svg>