<svg id="emoji" xmlns="http://www.w3.org/2000/svg" viewBox="0 0 72 72">
  <g id="line">
    <circle fill="none" stroke="#000000" stroke-width="2" stroke-miterlimit="10" cx="36" cy="41" r="23"/>
    <path fill="#000000" d="M30.3173,37.9252c0,1.6567-1.3448,3-3,3c-1.6553,0-3-1.3433-3-3c0-1.6553,1.3447-3,3-3 C28.9725,34.9252,30.3173,36.27,30.3173,37.9252" stroke="none"/>
    <path fill="#000000" d="M48.3173,37.9252c0,1.6567-1.3447,3-3,3s-3-1.3433-3-3c0-1.6553,1.3447-3,3-3 S48.3173,36.27,48.3173,37.9252" stroke="none"/>
    <line fill="none" stroke="#000000" stroke-width="2" stroke-linecap="round" stroke-linejoin="round" stroke-miterlimit="10" x1="23" y1="30" x2="30" y2="34"/>
    <line fill="none" stroke="#000000" stroke-width="2" stroke-linecap="round" stroke-linejoin="round" stroke-miterlimit="10" x1="49" y1="30" x2="42" y2="34"/>
    <path fill="none" stroke="#000000" stroke-width="2" stroke-linecap="round" stroke-linejoin="round" stroke-miterlimit="10" d="M49,21c3-2,4-5,3-9c7,2,6,10,3,15"/>
    <path fill="none" stroke="#000000" stroke-width="2" stroke-linecap="round" stroke-linejoin="round" stroke-miterlimit="10" d="M23.2883,21c-3-2-4-5-3-9c-7,2-6,10-3,15"/>
    <path fill="none" stroke="#000000" stroke-width="2" stroke-linecap="round" stroke-linejoin="round" stroke-miterlimit="10" d="M43,48c-1.2841,0.6376-3.9847,1.0308-6.8421,0.9981C33.5344,48.9681,31.1682,48.5835,30,48"/>
  </g>
</svg>
