<?xml version="1.0" encoding="utf-8"?>
<!-- Generator: Adobe Illustrator 21.1.0, SVG Export Plug-In . SVG Version: 6.00 Build 0)  -->
<svg version="1.1" id="emoji" xmlns="http://www.w3.org/2000/svg" xmlns:xlink="http://www.w3.org/1999/xlink" x="0px" y="0px"
	 viewBox="0 0 72 72" enable-background="new 0 0 72 72" xml:space="preserve">
<g id="_xD83D__xDE0D_">
	<circle fill="none" stroke="#FDE034" stroke-miterlimit="10" cx="36" cy="36.1" r="23"/>
	<path fill="none" stroke="#1F201F" stroke-width="2" stroke-linecap="round" stroke-linejoin="round" stroke-miterlimit="10" d="
		M48.1,44.6"/>
	<path fill="none" stroke="#1F201F" stroke-width="2" stroke-linecap="round" stroke-linejoin="round" stroke-miterlimit="10" d="
		M24,44.6"/>
	
		<circle fill="none" stroke="#000000" stroke-width="2" stroke-linecap="round" stroke-linejoin="round" stroke-miterlimit="10" cx="36" cy="36.1" r="23"/>
	<g>
		<path fill="none" stroke="#000000" stroke-width="2" stroke-linecap="round" stroke-linejoin="round" stroke-miterlimit="10" d="
			M23.6,42.7c0,0,12.8,3.1,24.9,0.1"/>
		<path fill="none" stroke="#000000" stroke-width="2" stroke-linecap="round" stroke-linejoin="round" stroke-miterlimit="10" d="
			M48.6,42.7c0,5.6-4.2,10.1-12.6,10.1c-8.4,0-12.6-4.5-12.6-10.1"/>
	</g>
	<path fill="none" stroke="#000000" stroke-width="2" stroke-linecap="round" stroke-linejoin="round" stroke-miterlimit="10" d="
		M26.5,27.5c-1.3-3.4-6.4-3.6-6.1,1.3c0,0.6,0.3,1.3,0.6,1.8l5.3,6.4l0,0l5.2-6.3c0.6-0.7,0.9-1.6,0.9-2.5c-0.1-4.4-5.1-4-6.1-0.8"
		/>
	<path fill="none" stroke="#000000" stroke-width="2" stroke-linecap="round" stroke-linejoin="round" stroke-miterlimit="10" d="
		M45.8,27.5c-1.3-3.4-6.4-3.6-6.1,1.3c0,0.6,0.3,1.3,0.6,1.8l5.3,6.4l0,0l5.2-6.3c0.6-0.7,0.9-1.6,0.9-2.5c-0.1-4.4-5-4-6.1-0.8"/>
</g>
</svg>
