<?xml version="1.0" encoding="utf-8"?>
<!-- Generator: Adobe Illustrator 21.1.0, SVG Export Plug-In . SVG Version: 6.00 Build 0)  -->
<svg version="1.1" id="emoji" xmlns="http://www.w3.org/2000/svg" xmlns:xlink="http://www.w3.org/1999/xlink" x="0px" y="0px"
	 viewBox="0 0 72 72" enable-background="new 0 0 72 72" xml:space="preserve">
<g id="_xD83D__xDE1B_">
	<circle fill="none" stroke="#010101" stroke-width="2" stroke-miterlimit="10" cx="36" cy="36" r="23"/>
	<path fill="#010101" d="M30.3,30.9c0,1.7-1.3,3-3,3c-1.7,0-3-1.3-3-3c0-1.7,1.3-3,3-3C29,27.9,30.3,29.3,30.3,30.9"/>
	<path fill="#010101" d="M47.3,30.9c0,1.7-1.3,3-3,3s-3-1.3-3-3c0-1.7,1.3-3,3-3S47.3,29.3,47.3,30.9"/>
	<path fill="none" stroke="#010101" stroke-width="2" stroke-linecap="round" stroke-linejoin="round" stroke-miterlimit="10" d="
		M30.8,46.8c-2.2-1.1-4-2.8-4.9-5 M30.8,46.8 M41.2,46.9 M41.7,46.6 M46.2,41.8c-0.9,2-2.5,3.7-4.5,4.8 M26.2,41.8
		c1.8,0.9,5.5,1.5,9.5,1.5c4.4,0.1,8.6-0.6,10.6-1.5"/>
	<path fill="none" stroke="#000000" stroke-width="2" stroke-miterlimit="10" d="M41.7,42.8c0,6.1-2.5,11-5.7,11s-5.7-4.9-5.7-11"/>
</g>
</svg>
