<?xml version="1.0" encoding="utf-8"?>
<!-- Generator: Adobe Illustrator 21.1.0, SVG Export Plug-In . SVG Version: 6.00 Build 0)  -->
<svg version="1.1" id="emoji" xmlns="http://www.w3.org/2000/svg" xmlns:xlink="http://www.w3.org/1999/xlink" x="0px" y="0px"
	 viewBox="0 0 72 72" enable-background="new 0 0 72 72" xml:space="preserve">
<g id="_xD83D__xDE13_">
	<path fill="none" stroke="#010101" stroke-width="2" stroke-miterlimit="10" d="M19.6,25c-1-1-1.5-2.2-1.5-3.6
		c0-4.5,4.2-8.7,4.4-8.9c0.4-0.4,1-0.4,1.3,0c0.2,0.2,4.4,4.4,4.4,8.9l0,0c0,2.8-2.3,5.1-5.1,5.1C21.8,26.5,20.5,26,19.6,25z"/>
	<path fill="none" stroke="#010101" stroke-width="2" stroke-linecap="round" stroke-linejoin="round" stroke-miterlimit="10" d="
		M28,47c1.6-2.6,4.9-4.1,8.4-4c3.2,0.1,6.1,1.7,7.6,4"/>
	<path fill="none" stroke="#010101" stroke-width="2" stroke-linecap="round" stroke-linejoin="round" stroke-miterlimit="10" d="
		M40,33.7c0.4-0.3,2.2-1.8,4.9-1.6c2.2,0.1,3.6,1.2,4.1,1.6"/>
	<path fill="none" stroke="#010101" stroke-width="2" stroke-linecap="round" stroke-linejoin="round" stroke-miterlimit="10" d="
		M22,33.7c0.4-0.3,2.2-1.8,4.9-1.6c2.2,0.1,3.6,1.2,4.1,1.6"/>
	<path fill="none" stroke="#010101" stroke-width="2" stroke-linecap="round" stroke-linejoin="round" stroke-miterlimit="10" d="
		M30.6,14.6c1-0.2,2.4-0.5,3.9-0.6C43,13.7,58,20.7,59,35.5c0.8,12.7-8.8,23.6-21.5,24.4C24.8,60.8,13.9,51.2,13,38.5
		c-0.3-5.3,1.3-9.6,2.4-11.9"/>
</g>
</svg>
