<svg id="emoji" xmlns="http://www.w3.org/2000/svg" viewBox="0 0 72 72">
  <g id="line">
    <circle fill="none" stroke="#000000" stroke-width="2" stroke-miterlimit="10" cx="36" cy="36" r="23"/>
    <path fill="#000000" d="M30.3173,30.9252c0,1.6568-1.3448,3-3,3c-1.6553,0-3-1.3433-3-3c0-1.6552,1.3447-3,3-3 C28.9725,27.9252,30.3173,29.27,30.3173,30.9252" stroke="none"/>
    <path fill="#000000" d="M47.3173,30.9252c0,1.6568-1.3447,3-3,3s-3-1.3433-3-3c0-1.6552,1.3447-3,3-3 S47.3173,29.27,47.3173,30.9252" stroke="none"/>
    <path fill="none" stroke="#000000" stroke-width="2" stroke-linecap="round" stroke-linejoin="round" stroke-miterlimit="10" d="M30.8317,46.7908c-2.199-1.0742-3.9778-2.8081-4.9168-4.9729 M30.8317,46.7908 M41.1803,46.8788 M41.7481,46.5925 M46.245,41.818 c-0.8692,2.0234-2.4789,3.6854-4.4969,4.7746 M26.1534,41.818c1.8055,0.9018,5.4625,1.4962,9.5171,1.5426 c4.4161,0.0505,8.5899-0.5572,10.5745-1.5426"/>
    <path fill="none" stroke="#000000" stroke-width="2" stroke-miterlimit="10" d="M41.7397,42.818c0,6.0751-2.5324,11-5.6562,11 s-5.6563-4.9249-5.6563-11"/>
  </g>
</svg>
