<?xml version="1.0" encoding="utf-8"?>
<!-- Generator: Adobe Illustrator 21.1.0, SVG Export Plug-In . SVG Version: 6.00 Build 0)  -->
<svg version="1.1" id="emoji" xmlns="http://www.w3.org/2000/svg" xmlns:xlink="http://www.w3.org/1999/xlink" x="0px" y="0px"
	 viewBox="0 0 72 72" enable-background="new 0 0 72 72" xml:space="preserve">
<g>
	<path fill="none" stroke="#1F201E" stroke-width="2" stroke-linecap="round" stroke-linejoin="round" stroke-miterlimit="10" d="
		M48.3,47.4"/>
	<path fill="none" stroke="#000000" stroke-width="2" stroke-linecap="round" stroke-linejoin="round" stroke-miterlimit="10" d="
		M20,30.1c0.4-1.5,1.4-2.8,2.7-3.7c1.2-1,2.8-1.5,4.3-1.4"/>
	<path fill="none" stroke="#000000" stroke-width="2" stroke-linecap="round" stroke-linejoin="round" stroke-miterlimit="10" d="
		M50.5,31.1c-2.3-2.2-5.7-2.7-8.5-1.2"/>
	<path fill="none" stroke="#000000" stroke-width="2" stroke-linecap="round" stroke-linejoin="round" stroke-miterlimit="10" d="
		M46.5,35.9c-0.8-0.5-1.8-0.9-2.9-0.9c-1.1,0-2.1,0.3-3.2,0.8"/>
	<path fill="none" stroke="#000000" stroke-width="2" stroke-linecap="round" stroke-linejoin="round" stroke-miterlimit="10" d="
		M57.8,41.4c0.4-1.7,0.6-3.5,0.6-5.4c0-12.7-10.3-23-23-23c-12.7,0-23,10.3-23,23c0,12.7,10.3,23,23,23c3.6,0,7-0.8,10.1-2.3"/>
	<circle cx="27.5" cy="35.4" r="2.6"/>
	<path fill="none" stroke="#000000" stroke-width="2" stroke-linecap="round" stroke-linejoin="round" stroke-miterlimit="10" d="
		M35.8,42.1c0,0,10.5,3.2,0,5.6c0,0,10.5,3,0,4.9"/>
	<path fill="none" stroke="#000000" stroke-miterlimit="10" d="M51.6,59.7c-0.1,0-0.2-0.1-0.2-0.2l-4-10.1L47.3,49
		c-0.2-0.8-0.2-1.6,0-2.3c0.7-2.2,3-3.5,5.3-2.9c1.4,0.4,2.4,1.5,2.8,2.8c1.1-0.9,2.5-1.2,3.9-0.8c2.2,0.7,3.5,3,2.9,5.3
		c-0.3,0.9-0.8,1.6-1.5,2.2l-8.9,6.3C51.8,59.7,51.7,59.7,51.6,59.7z M52.4,44.4c-1.9-0.6-3.9,0.5-4.5,2.4c-0.2,0.6-0.2,1.3,0,1.9
		l0.1,0.4l3.8,9.7l8.6-6.1c0.6-0.5,1.1-1.1,1.3-1.8c0.6-1.9-0.5-3.9-2.4-4.5c-1.3-0.4-2.8,0-3.7,1c-0.1,0.1-0.2,0.1-0.3,0.1
		c-0.1,0-0.2-0.1-0.2-0.3C54.7,45.9,53.8,44.8,52.4,44.4z"/>
</g>
</svg>
