<svg version="1.1" id="emoji" xmlns="http://www.w3.org/2000/svg" x="0" y="0" viewBox="0 0 72 72" enable-background="new 0 0 72 72" xml:space="preserve">
  <g id="line">
    <path fill="none" stroke="#000000" stroke-width="2" stroke-miterlimit="10" d="M20.5608,25.0122 c-0.956-0.956-1.4825-2.227-1.4822-3.5789c-0.0001-4.4502,4.2068-8.7082,4.3857-8.8871c0.3722-0.3722,0.975-0.372,1.347,0 c0.1792,0.1792,4.386,4.4373,4.3869,8.8883l0.0003,0.0003c-0.0013,2.7888-2.2715,5.0583-5.0605,5.0579 C22.7874,26.4944,21.5168,25.9682,20.5608,25.0122z"/>
    <path fill="none" stroke="#000000" stroke-width="2" stroke-linecap="round" stroke-linejoin="round" stroke-miterlimit="10" d="M29,47c1.5805-2.5575,4.9043-4.1349,8.4211-4.0038C40.6499,43.1166,43.5622,44.6595,45,47"/>
    <path fill="none" stroke="#000000" stroke-width="2" stroke-linecap="round" stroke-linejoin="round" stroke-miterlimit="10" d="M41,33.7253c0.4132-0.344,2.2456-1.7915,4.9091-1.6364c2.1608,0.1259,3.61,1.2333,4.0909,1.6364"/>
    <path fill="none" stroke="#000000" stroke-width="2" stroke-linecap="round" stroke-linejoin="round" stroke-miterlimit="10" d="M23,33.7253c0.4132-0.344,2.2456-1.7915,4.9091-1.6364c2.1608,0.1259,3.61,1.2333,4.0909,1.6364"/>
    <path fill="none" stroke="#000000" stroke-width="2" stroke-linecap="round" stroke-linejoin="round" stroke-miterlimit="10" d="M31.6099,14.6188c0.9899-0.237,2.4251-0.5152,3.8985-0.5704c8.5112-0.319,23.4779,6.6056,24.4433,21.4598 c0.8239,12.6758-8.784,23.6194-21.4598,24.4433s-23.6194-8.784-24.4433-21.4598c-0.3424-5.2686,1.3034-9.5859,2.4456-11.8925"/>
  </g>
</svg>
