<?xml version="1.0" encoding="utf-8"?>
<!-- Generator: Adobe Illustrator 21.1.0, SVG Export Plug-In . SVG Version: 6.00 Build 0)  -->
<svg version="1.1" id="emoji" xmlns="http://www.w3.org/2000/svg" xmlns:xlink="http://www.w3.org/1999/xlink" x="0px" y="0px"
	 viewBox="0 0 72 72" enable-background="new 0 0 72 72" xml:space="preserve">
<g id="_xD83D__xDE25__1_">
	<g id="_xD83D__xDE2A_">
		<path fill="none" stroke="#010101" stroke-width="2" stroke-linecap="round" stroke-linejoin="round" stroke-miterlimit="10" d="
			M25.7,56.3C28.9,58,32.6,59,36.5,59c12.7,0,23-10.3,23-23s-10.3-23-23-23s-23,10.3-23,23c0,2.1,0.3,4.1,0.8,6"/>
		<path fill="none" stroke="#010101" stroke-width="2" stroke-linecap="round" stroke-linejoin="round" stroke-miterlimit="10" d="
			M41.5,31.1c0.4,0.3,2.2,1.8,4.9,1.6c2.2-0.1,3.6-1.2,4.1-1.6"/>
		<path fill="none" stroke="#010101" stroke-width="2" stroke-linecap="round" stroke-linejoin="round" stroke-miterlimit="10" d="
			M23.5,31.1c0.4,0.3,2.2,1.8,4.9,1.6c2.2-0.1,3.6-1.2,4.1-1.6"/>
		<path fill="none" stroke="#010101" stroke-width="2" stroke-miterlimit="10" d="M19.5,55c1.3-0.1,2.6-0.7,3.5-1.7
			c2.9-3.4,2.6-9.3,2.5-9.6c0-0.5-0.5-0.9-1-0.9c-0.3,0-6.2,0.5-9.2,3.8l0,0c-1.8,2.1-1.6,5.3,0.5,7.1C16.8,54.7,18.1,55.1,19.5,55z
			"/>
		<path fill="none" stroke="#010101" stroke-width="2" stroke-linecap="round" stroke-linejoin="round" stroke-miterlimit="10" d="
			M42.5,46c-1.3-0.6-4-1-6.8-1c-2.6,0-5,0.4-6.2,1"/>
	</g>
	<path fill="none" stroke="#000000" stroke-width="2" stroke-linecap="round" stroke-linejoin="round" stroke-miterlimit="10" d="
		M51.6,26.3c-1.7,0.6-3.6,0.4-5.3-0.3c-1.7-0.6-3.2-1.8-4.1-3.4"/>
	<path fill="none" stroke="#000000" stroke-width="2" stroke-linecap="round" stroke-linejoin="round" stroke-miterlimit="10" d="
		M21.4,26.3c3.6,1,7.4-0.5,9.4-3.7"/>
</g>
</svg>
