<svg id="emoji" xmlns="http://www.w3.org/2000/svg" viewBox="0 0 72 72">
  <g id="line">
    <circle fill="none" stroke="#000000" stroke-width="2" stroke-miterlimit="10" cx="36" cy="36" r="23"/>
    <path fill="#000000" d="M30.3173,30.9252c0,1.6568-1.3448,3-3,3c-1.6553,0-3-1.3433-3-3c0-1.6552,1.3447-3,3-3 C28.9725,27.9252,30.3173,29.27,30.3173,30.9252" stroke="none"/>
    <path fill="#000000" d="M48.3173,30.9252c0,1.6568-1.3447,3-3,3s-3-1.3433-3-3c0-1.6552,1.3447-3,3-3 S48.3173,29.27,48.3173,30.9252" stroke="none"/>
    <path fill="none" stroke="#000000" stroke-width="2" stroke-linecap="round" stroke-linejoin="round" stroke-miterlimit="10" d="M27,48c1.8768-3.8326,5.8239-6.1965,10-6c3.8343,0.1804,7.2926,2.4926,9,6"/>
    <path fill="none" stroke="#000000" stroke-width="2" stroke-miterlimit="10" d="M20.3869,41.6299 c-0.5326-0.5326-0.8258-1.2405-0.8256-1.9936c0-2.4789,2.3433-4.8508,2.443-4.9505c0.2074-0.2074,0.5431-0.2072,0.7503,0 c0.0998,0.0998,2.4432,2.4718,2.4437,4.9512l0.0002,0.0002c-0.0007,1.5535-1.2653,2.8177-2.8189,2.8175 C21.6273,42.4556,20.9195,42.1624,20.3869,41.6299z"/>
  </g>
</svg>
