<svg id="emoji" xmlns="http://www.w3.org/2000/svg" viewBox="0 0 72 72">
  <g id="line">
    <path fill="none" stroke="#000000" stroke-width="2" stroke-miterlimit="10" d="M32.7799,33.4626 c0,2.4645-2.0004,4.4626-4.4626,4.4626s-4.4626-1.9981-4.4626-4.4626c0-2.4622,2.0004-4.4626,4.4626-4.4626 S32.7799,31.0004,32.7799,33.4626"/>
    <path fill="#000000" d="M30.3173,33.9252c0,1.1045-0.8965,2-2,2c-1.1035,0-2-0.8955-2-2c0-1.1035,0.8965-2,2-2 C29.4208,31.9252,30.3173,32.8217,30.3173,33.9252" stroke="none"/>
    <path fill="none" stroke="#000000" stroke-width="2" stroke-miterlimit="10" d="M50.7799,33.4626 c0,2.4645-2.0004,4.4626-4.4626,4.4626c-2.4622,0-4.4626-1.9981-4.4626-4.4626c0-2.4622,2.0004-4.4626,4.4626-4.4626 C48.7795,29,50.7799,31.0004,50.7799,33.4626"/>
    <path fill="#000000" d="M48.3173,33.9252c0,1.1045-0.8965,2-2,2c-1.1035,0-2-0.8955-2-2c0-1.1035,0.8965-2,2-2 C47.4208,31.9252,48.3173,32.8217,48.3173,33.9252" stroke="none"/>
    <path fill="#000000" d="M23.8547,33c0-2.4622,2.0004-4.4626,4.4626-4.4626S32.7799,30.5378,32.7799,33" stroke="none"/>
    <path fill="#000000" d="M32.7799,33" stroke="none"/>
    <path fill="#000000" d="M41.8547,33c0-2.4622,2.0004-4.4626,4.4626-4.4626c2.4622,0,4.4626,2.0004,4.4626,4.4626" stroke="none"/>
    <path fill="#000000" d="M50.7799,33" stroke="none"/>
    <path fill="none" stroke="#000000" stroke-width="2" stroke-linecap="round" stroke-linejoin="round" stroke-miterlimit="10" d="M29,48c1.5805-2.5575,4.9043-4.1349,8.4211-4.0038C40.6499,44.1166,43.5622,45.6595,45,48"/>
    <path fill="none" stroke="#000000" stroke-width="2" stroke-miterlimit="10" d="M21.5608,24.0527 c-0.956-0.956-1.4825-2.227-1.4822-3.5789c-0.0001-4.4502,4.2068-8.7082,4.3857-8.8871c0.3722-0.3722,0.975-0.372,1.347,0 c0.1792,0.1792,4.386,4.4373,4.3869,8.8883l0.0003,0.0003c-0.0013,2.7888-2.2715,5.0583-5.0605,5.0579 C23.7874,25.5348,22.5168,25.0086,21.5608,24.0527z"/>
    <path fill="none" stroke="#000000" stroke-width="2" stroke-linecap="round" stroke-linejoin="round" stroke-miterlimit="10" d="M33.0727,14.3163C34.0758,14.144,35.5261,13.9595,37,14c8.514,0.2337,23,8.1145,23,23c0,12.7026-10.2975,23-23,23S14,49.7026,14,37 c0-5.2797,1.9224-9.4812,3.2118-11.7088"/>
  </g>
</svg>
