<?xml version="1.0" encoding="utf-8"?>
<!-- Generator: Adobe Illustrator 21.1.0, SVG Export Plug-In . SVG Version: 6.00 Build 0)  -->
<svg version="1.1" id="emoji" xmlns="http://www.w3.org/2000/svg" xmlns:xlink="http://www.w3.org/1999/xlink" x="0px" y="0px"
	 viewBox="0 0 72 72" enable-background="new 0 0 72 72" xml:space="preserve">
<g id="_xD83D__xDE28__1_">
	<circle fill="none" stroke="#010101" stroke-width="2" stroke-miterlimit="10" cx="34" cy="36" r="23"/>
	<path fill="none" stroke="#010101" stroke-width="2" stroke-linecap="round" stroke-linejoin="round" stroke-miterlimit="10" d="
		M20,25c1-1,4-7,10-2"/>
	<path fill="none" stroke="#010101" stroke-width="2" stroke-linecap="round" stroke-linejoin="round" stroke-miterlimit="10" d="
		M49,25c-1-1-4-7-10-2"/>
	<path fill="none" stroke="#010101" stroke-width="2" stroke-miterlimit="10" d="M29.8,31.5c0,2.5-2,4.5-4.5,4.5s-4.5-2-4.5-4.5
		c0-2.5,2-4.5,4.5-4.5S29.8,29,29.8,31.5"/>
	<path fill="#010101" d="M27.3,31.9c0,1.1-0.9,2-2,2c-1.1,0-2-0.9-2-2c0-1.1,0.9-2,2-2C26.4,29.9,27.3,30.8,27.3,31.9"/>
	<path fill="none" stroke="#010101" stroke-width="2" stroke-miterlimit="10" d="M47.8,31.5c0,2.5-2,4.5-4.5,4.5
		c-2.5,0-4.5-2-4.5-4.5c0-2.5,2-4.5,4.5-4.5C45.8,27,47.8,29,47.8,31.5"/>
	<path fill="#010101" d="M45.3,31.9c0,1.1-0.9,2-2,2c-1.1,0-2-0.9-2-2c0-1.1,0.9-2,2-2C44.4,29.9,45.3,30.8,45.3,31.9"/>
	<path fill="none" stroke="#010101" stroke-width="2" stroke-linecap="round" stroke-linejoin="round" stroke-miterlimit="10" d="
		M26,46c0.3-0.4,3.3-4.2,8.4-4c4.6,0.2,7.2,3.5,7.6,4C36.7,46,31.3,46,26,46z"/>
</g>
</svg>
