<svg id="emoji" xmlns="http://www.w3.org/2000/svg" viewBox="0 0 72 72">
  <g id="line">
    <circle fill="none" stroke="#000000" stroke-width="2" stroke-miterlimit="10" cx="36" cy="36" r="23"/>
    <path fill="none" stroke="#000000" stroke-width="2" stroke-linecap="round" stroke-linejoin="round" stroke-miterlimit="10" d="M28,46c1.5805-2.5575,4.9043-4.1349,8.4211-4.0038C39.6499,42.1166,42.5622,43.6595,44,46"/>
    <path fill="#000000" d="M30.3173,32.9252c0,1.6567-1.3448,3-3,3c-1.6553,0-3-1.3433-3-3c0-1.6553,1.3447-3,3-3 C28.9725,29.9252,30.3173,31.27,30.3173,32.9252" stroke="none"/>
    <path fill="#000000" d="M48.3173,32.9252c0,1.6567-1.3447,3-3,3s-3-1.3433-3-3c0-1.6553,1.3447-3,3-3 S48.3173,31.27,48.3173,32.9252" stroke="none"/>
    <line fill="none" stroke="#000000" stroke-width="2" stroke-linecap="round" stroke-linejoin="round" stroke-miterlimit="10" x1="23" y1="24" x2="30" y2="28"/>
    <line fill="none" stroke="#000000" stroke-width="2" stroke-linecap="round" stroke-linejoin="round" stroke-miterlimit="10" x1="49" y1="24" x2="42" y2="28"/>
  </g>
</svg>
