<svg id="emoji" xmlns="http://www.w3.org/2000/svg" viewBox="0 0 72 72">
  <g id="line">
    <line fill="none" stroke="#000000" stroke-width="2" stroke-linecap="round" stroke-linejoin="round" x1="28" y1="41.7708" x2="28" y2="48.7708"/>
    <line fill="none" stroke="#000000" stroke-width="2" stroke-linecap="round" stroke-linejoin="round" x1="33" y1="41.7708" x2="33" y2="48.7708"/>
    <line fill="none" stroke="#000000" stroke-width="2" stroke-linecap="round" stroke-linejoin="round" x1="38" y1="41.7708" x2="38" y2="48.7708"/>
    <line fill="none" stroke="#000000" stroke-width="2" stroke-linecap="round" stroke-linejoin="round" x1="43" y1="41.7708" x2="43" y2="48.7708"/>
    <circle fill="none" stroke="#000000" stroke-width="2" stroke-miterlimit="10" cx="36" cy="36" r="23"/>
    <path fill="none" stroke="#000000" stroke-width="2" stroke-miterlimit="2" d="M44.5,49.2708h-17c-2.2064-0.0065-3.9935-1.7936-4-4 l0,0c0.0065-2.2064,1.7936-3.9935,4-4h17c2.2064,0.0065,3.9935,1.7936,4,4l0,0C48.4935,47.4772,46.7064,49.2643,44.5,49.2708z"/>
    <path d="M30,31c0,1.6568-1.3448,3-3,3c-1.6553,0-3-1.3433-3-3c0-1.6552,1.3447-3,3-3C28.6552,28,30,29.3448,30,31"/>
    <path d="M48,31c0,1.6568-1.3447,3-3,3s-3-1.3433-3-3c0-1.6552,1.3447-3,3-3S48,29.3448,48,31"/>
  </g>
</svg>
