<?xml version="1.0" encoding="utf-8"?>
<!-- Generator: Adobe Illustrator 21.1.0, SVG Export Plug-In . SVG Version: 6.00 Build 0)  -->
<svg version="1.1" id="emoji" xmlns="http://www.w3.org/2000/svg" xmlns:xlink="http://www.w3.org/1999/xlink" x="0px" y="0px"
	 viewBox="0 0 72 72" enable-background="new 0 0 72 72" xml:space="preserve">
<g id="_xD83D__xDE2C_">
	<circle fill="none" stroke="#010101" stroke-width="2" stroke-miterlimit="10" cx="35" cy="36" r="23"/>
	<path fill="none" stroke="#010101" stroke-width="2" stroke-miterlimit="10" d="M30.8,31.5c0,2.5-2,4.5-4.5,4.5s-4.5-2-4.5-4.5
		c0-2.5,2-4.5,4.5-4.5S30.8,29,30.8,31.5"/>
	<path fill="#010101" d="M27.3,32.5c0,1.1-0.9,2-2,2c-1.1,0-2-0.9-2-2c0-1.1,0.9-2,2-2C26.4,30.5,27.3,31.4,27.3,32.5"/>
	<path fill="none" stroke="#010101" stroke-width="2" stroke-miterlimit="10" d="M48.8,31.5c0,2.5-2,4.5-4.5,4.5
		c-2.5,0-4.5-2-4.5-4.5c0-2.5,2-4.5,4.5-4.5C46.8,27,48.8,29,48.8,31.5"/>
	<path fill="#010101" d="M47.3,30.9c0,1.1-0.9,2-2,2c-1.1,0-2-0.9-2-2c0-1.1,0.9-2,2-2C46.4,28.9,47.3,29.8,47.3,30.9"/>
	<path fill="none" stroke="#010101" stroke-width="2" stroke-linecap="round" stroke-linejoin="round" stroke-miterlimit="10" d="
		M40.2,23.7c0.4-0.3,2.2-1.8,4.9-1.6c2.2,0.1,3.6,1.2,4.1,1.6"/>
	<path fill="none" stroke="#010101" stroke-width="2" stroke-linecap="round" stroke-linejoin="round" stroke-miterlimit="10" d="
		M21.8,23.7c0.4-0.3,2.2-1.8,4.9-1.6c2.2,0.1,3.6,1.2,4.1,1.6"/>
	<path fill="none" stroke="#010101" stroke-width="2" stroke-linecap="round" stroke-linejoin="round" stroke-miterlimit="10" d="
		M29.8,46.8c-2.2-1.1-4-2.8-4.9-5 M29.8,46.8 M40.2,46.9 M40.7,46.6 M45.2,41.8c-0.9,2-2.5,3.7-4.5,4.8 M25.2,41.8
		c1.8,0.9,5.5,1.5,9.5,1.5c4.4,0.1,8.6-0.6,10.6-1.5"/>
	<path fill="none" stroke="#1D1D1B" stroke-width="2" stroke-miterlimit="10" d="M40.7,42.8c0,6.1-2.5,11-5.7,11s-5.7-4.9-5.7-11"/>
</g>
</svg>
