<svg id="emoji" xmlns="http://www.w3.org/2000/svg" viewBox="0 0 72 72">
  <g id="line">
    <path fill="#000000" d="M29.3173,31.9252c0,1.1045-0.8965,2-2,2c-1.1035,0-2-0.8955-2-2c0-1.1035,0.8965-2,2-2
		C28.4208,29.9252,29.3173,30.8217,29.3173,31.9252" stroke="none"></path>
    <path fill="#000000" d="M47.3173,31.9252c0,1.1045-0.8965,2-2,2c-1.1035,0-2-0.8955-2-2c0-1.1035,0.8965-2,2-2
		C46.4208,29.9252,47.3173,30.8217,47.3173,31.9252" stroke="none"></path>
    <path fill="none" stroke="#000000" stroke-width="2" stroke-linecap="round" stroke-linejoin="round" stroke-miterlimit="10" d="
		M28,50c0.2704-0.3562,1-8,8.4211-8.0038C43,41.9929,43.6499,49.5372,44,50C38.6667,50,33.3333,50,28,50z"></path>
    <path fill="none" stroke="#000000" stroke-width="2" stroke-linecap="round" stroke-linejoin="round" stroke-miterlimit="10" d="
		M22.9385,22.2501c0.4872,0.2275,2.6277,1.1608,5.1639,0.3327c2.0576-0.6718,3.1771-2.1117,3.5396-2.6239"></path>
    <path fill="none" stroke="#000000" stroke-width="2" stroke-linecap="round" stroke-linejoin="round" stroke-miterlimit="10" d="
		M48.642,22.2501c-0.4872,0.2275-2.6277,1.1608-5.1639,0.3327c-2.0576-0.6718-3.1771-2.1117-3.5396-2.6239"></path>
    <path fill="none" stroke="#000000" stroke-width="2" stroke-miterlimit="10" d="M31.7799,31.4626
		c0,2.4645-2.0004,4.4626-4.4626,4.4626s-4.4626-1.9981-4.4626-4.4626c0-2.4622,2.0004-4.4626,4.4626-4.4626
		S31.7799,29.0004,31.7799,31.4626"></path>
    <path fill="none" stroke="#000000" stroke-width="2" stroke-miterlimit="10" d="M49.7799,31.4626
		c0,2.4645-2.0003,4.4626-4.4626,4.4626c-2.4622,0-4.4626-1.9981-4.4626-4.4626c0-2.4622,2.0004-4.4626,4.4626-4.4626
		C47.7795,27,49.7799,29.0004,49.7799,31.4626"></path>
    <circle fill="none" stroke="#000000" stroke-width="2" stroke-miterlimit="10" cx="36" cy="36" r="23"></circle>
  </g>
</svg>