<svg id="emoji" viewBox="0 0 72 72" xmlns="http://www.w3.org/2000/svg">
  <g id="line">
    <circle cx="36" cy="36" r="23" fill="none" stroke="#000000" stroke-miterlimit="10" stroke-width="2"/>
    <path d="M30,32.9252c0,1.6567-1.3448,3-3,3c-1.6553,0-3-1.3433-3-3c0-1.6553,1.3447-3,3-3C28.6552,29.9252,30,31.27,30,32.9252"/>
    <path d="M48,32.9252c0,1.6567-1.3447,3-3,3s-3-1.3433-3-3c0-1.6553,1.3447-3,3-3S48,31.27,48,32.9252"/>
    <line x1="23" x2="30" y1="24" y2="28" fill="none" stroke="#000000" stroke-linecap="round" stroke-linejoin="round" stroke-miterlimit="10" stroke-width="2"/>
    <line x1="49" x2="42" y1="24" y2="28" fill="none" stroke="#000000" stroke-linecap="round" stroke-linejoin="round" stroke-miterlimit="10" stroke-width="2"/>
    <path fill="none" stroke="#000000" stroke-linecap="round" stroke-linejoin="round" stroke-miterlimit="10" stroke-width="2" d="M29.5,43c1.2841-0.6376,3.9847-1.0308,6.8421-0.9981c2.6235,0.03,4.9897,0.4146,6.1579,0.9981"/>
  </g>
</svg>
