<svg id="emoji" viewBox="0 0 72 72" xmlns="http://www.w3.org/2000/svg">
  <g id="line-supplement">
    <path d="M42.8472,45.6583c0-2.592-3.834-4.694-6.869-4.694s-6.869,2.101-6.869,4.694,3.659.9248,6.694.9248S42.8472,48.25,42.8472,45.6583Z"/>
  </g>
  <g id="line">
    <path fill="none" stroke="#000" stroke-linecap="round" stroke-linejoin="round" stroke-width="2" d="M29.3564,22.669a8.44,8.44,0,0,0-9.0659,4.4981"/>
    <path fill="none" stroke="#000" stroke-linecap="round" stroke-linejoin="round" stroke-width="2" d="M51.664,27.1671a8.44,8.44,0,0,0-9.0659-4.4981"/>
    <circle cx="35.9772" cy="35.9583" r="23" fill="none" stroke="#000" stroke-miterlimit="10" stroke-width="2"/>
    <path fill="none" stroke="#000" stroke-miterlimit="10" stroke-width="2" d="M42.8472,45.6583c0-2.592-3.834-4.694-6.869-4.694s-6.869,2.101-6.869,4.694,3.659.9248,6.694.9248S42.8472,48.25,42.8472,45.6583Z"/>
    <path d="M29.9772,32.9583a3,3,0,1,1-3-3,3.0011,3.0011,0,0,1,3,3"/>
    <path d="M47.9772,32.9583a3,3,0,1,1-3-3,3.0011,3.0011,0,0,1,3,3"/>
  </g>
</svg>
