<?xml version="1.0" encoding="utf-8"?>
<!-- Generator: Adobe Illustrator 21.1.0, SVG Export Plug-In . SVG Version: 6.00 Build 0)  -->
<svg version="1.1" id="Ebene_3" xmlns="http://www.w3.org/2000/svg" xmlns:xlink="http://www.w3.org/1999/xlink" x="0px" y="0px"
	 viewBox="0 0 72 72" enable-background="new 0 0 72 72" xml:space="preserve">
<g id="_xD83D__xDE27__1_">
	<circle fill="none" stroke="#010101" stroke-width="2" stroke-miterlimit="10" cx="36" cy="36" r="23"/>
	<path fill="#010101" d="M30.3,30.9c0,1.7-1.3,3-3,3c-1.7,0-3-1.3-3-3c0-1.7,1.3-3,3-3C29,27.9,30.3,29.3,30.3,30.9"/>
	<path fill="#010101" d="M48.3,30.9c0,1.7-1.3,3-3,3s-3-1.3-3-3c0-1.7,1.3-3,3-3S48.3,29.3,48.3,30.9"/>
	<path fill="none" stroke="#010101" stroke-width="2" stroke-linecap="round" stroke-linejoin="round" stroke-miterlimit="10" d="
		M28,46c0,0-0.1-2.9,0-3c1.4-0.7,4-1,8-1c4,0,6.7,0.3,8,1c0.1,0.1,0,3,0,3H28z"/>
	<path fill="none" stroke="#010101" stroke-width="2" stroke-linecap="round" stroke-linejoin="round" stroke-miterlimit="10" d="
		M23.9,24.3c0.5,0.2,2.6,1.2,5.2,0.3c2.1-0.7,3.2-2.1,3.5-2.6"/>
	<path fill="none" stroke="#010101" stroke-width="2" stroke-linecap="round" stroke-linejoin="round" stroke-miterlimit="10" d="
		M49.6,24.3c-0.5,0.2-2.6,1.2-5.2,0.3c-2.1-0.7-3.2-2.1-3.5-2.6"/>
</g>
</svg>
