<?xml version="1.0" encoding="utf-8"?>
<!-- Generator: Adobe Illustrator 21.1.0, SVG Export Plug-In . SVG Version: 6.00 Build 0)  -->
<svg version="1.1" id="emoji" xmlns="http://www.w3.org/2000/svg" xmlns:xlink="http://www.w3.org/1999/xlink" x="0px" y="0px"
	 viewBox="0 0 72 72" enable-background="new 0 0 72 72" xml:space="preserve">
<g id="_xD83D__xDE39_">
	
		<line fill="none" stroke="#000000" stroke-width="2" stroke-linecap="round" stroke-linejoin="round" stroke-miterlimit="10" x1="61.9" y1="54.8" x2="52.6" y2="49.6"/>
	<path fill="none" stroke="#1D1D1B" stroke-width="2" stroke-linecap="round" stroke-linejoin="round" stroke-miterlimit="10" d="
		M52.6,47.5"/>
	<path fill="none" stroke="#1D1D1B" stroke-width="2" stroke-linecap="round" stroke-linejoin="round" stroke-miterlimit="10" d="
		M61.9,52.7"/>
	
		<line fill="none" stroke="#000000" stroke-width="2" stroke-linecap="round" stroke-linejoin="round" stroke-miterlimit="10" x1="57.8" y1="60" x2="48.5" y2="54.8"/>
	<path fill="none" stroke="#1D1D1B" stroke-width="2" stroke-linecap="round" stroke-linejoin="round" stroke-miterlimit="10" d="
		M46.4,55.8"/>
	<path fill="none" stroke="#1D1D1B" stroke-width="2" stroke-linecap="round" stroke-linejoin="round" stroke-miterlimit="10" d="
		M55.7,61"/>
	<path fill="none" stroke="#000000" stroke-width="2" stroke-linecap="round" stroke-linejoin="round" stroke-miterlimit="10" d="
		M11.7,38.6l3.5-31.5l11,10.7c2.9-1.2,6-1.9,9.3-1.9h1c3.3,0,6.4,0.7,9.3,1.9l11-10.7l3.5,31.7"/>
	<path fill="none" stroke="#000000" stroke-width="2" stroke-linecap="round" stroke-linejoin="round" stroke-miterlimit="10" d="
		M22.9,60c3.7,2.3,8,3.6,12.6,3.6h1c4.6,0,9-1.3,12.6-3.6"/>
	
		<line fill="none" stroke="#000000" stroke-width="2" stroke-linecap="round" stroke-linejoin="round" stroke-miterlimit="10" x1="9" y1="54.8" x2="18.4" y2="49.6"/>
	<path fill="none" stroke="#1D1D1B" stroke-width="2" stroke-linecap="round" stroke-linejoin="round" stroke-miterlimit="10" d="
		M19.4,47.5"/>
	
		<line fill="none" stroke="#000000" stroke-width="2" stroke-linecap="round" stroke-linejoin="round" stroke-miterlimit="10" x1="14.2" y1="60" x2="23.5" y2="54.8"/>
	<path fill="none" stroke="#1D1D1B" stroke-width="2" stroke-linecap="round" stroke-linejoin="round" stroke-miterlimit="10" d="
		M25.6,55.8"/>
	<path fill="none" stroke="#1D1D1B" stroke-width="2" stroke-linecap="round" stroke-linejoin="round" stroke-miterlimit="10" d="
		M16.3,61"/>
	<path fill="none" stroke="#000000" stroke-width="2" stroke-linecap="round" stroke-linejoin="round" stroke-miterlimit="10" d="
		M55.2,38.6c-3.1-4.2-9.3-4.2-11.4,0"/>
	<path fill="none" stroke="#000000" stroke-width="2" stroke-linecap="round" stroke-linejoin="round" stroke-miterlimit="10" d="
		M16.8,38.6c3.1-4.2,9.3-4.2,11.4,0"/>
	<path d="M9,54.2c-1.5,0-2.9-0.6-3.9-1.6c-1-1-1.6-2.4-1.6-3.9c0-1.5,0.6-2.9,1.6-3.9c3.4-3.4,10-3.5,10.2-3.5c0.6,0,1,0.5,1,1
		c0,0.3,0,6.8-3.5,10.2l0,0C11.9,53.6,10.5,54.2,9,54.2z M14.2,43.4c-1.8,0.2-5.6,0.7-7.7,2.8c-0.7,0.6-1,1.5-1,2.4
		c0,0.9,0.4,1.8,1,2.4c1.3,1.3,3.6,1.3,4.9,0l0,0C13.5,49,14.1,45.3,14.2,43.4z"/>
	<path d="M63,54.2c-1.5,0-2.9-0.6-3.9-1.6c-3.4-3.4-3.5-10-3.5-10.2c0-0.6,0.5-1,1-1c0.3,0,6.8,0,10.2,3.5l0,0
		c2.1,2.1,2.1,5.6,0,7.8C65.8,53.6,64.5,54.2,63,54.2z M57.8,43.4c0.2,1.8,0.7,5.6,2.8,7.7c1.3,1.3,3.6,1.3,4.9,0
		c1.3-1.3,1.3-3.5,0-4.9l0,0C63.3,44.2,59.6,43.6,57.8,43.4z"/>
	
		<line fill="none" stroke="#000000" stroke-width="2" stroke-linecap="round" stroke-linejoin="round" stroke-miterlimit="10" x1="31.3" y1="46.5" x2="39.6" y2="46.5"/>
	<path fill="none" stroke="#000000" stroke-width="2" stroke-linecap="round" stroke-linejoin="round" stroke-miterlimit="10" d="
		M25.1,49.6c0,0,7.8,4.2,10.4-3.1c2.6,7.3,10.8,3.1,10.8,3.1s-2.7,4.4-3.5,5.2c-4,4.3-9.4,4-13.6,0.1C28.2,54,25.1,49.6,25.1,49.6z"
		/>
</g>
</svg>
