<?xml version="1.0" encoding="utf-8"?>
<!-- Generator: Adobe Illustrator 21.1.0, SVG Export Plug-In . SVG Version: 6.00 Build 0)  -->
<svg version="1.1" id="emoji" xmlns="http://www.w3.org/2000/svg" xmlns:xlink="http://www.w3.org/1999/xlink" x="0px" y="0px"
	 viewBox="0 0 72 72" enable-background="new 0 0 72 72" xml:space="preserve">
<g id="_xD83D__xDE34__1_">
	
		<circle fill="none" stroke="#000000" stroke-width="2" stroke-linecap="round" stroke-linejoin="round" stroke-miterlimit="10" cx="34.2" cy="50.2" r="4"/>
	<path fill="none" stroke="#000000" stroke-width="2" stroke-linecap="round" stroke-linejoin="round" stroke-miterlimit="10" d="
		M51.2,32.3c-3.7,2.8-8.8,2.4-11.8,0"/>
	<path fill="none" stroke="#000000" stroke-width="2" stroke-linecap="round" stroke-linejoin="round" stroke-miterlimit="10" d="
		M29.6,32.3c-3.7,2.8-8.8,2.4-11.8,0"/>
	<rect x="39" y="10.6" fill="none" width="9" height="14.5"/>
	<text transform="matrix(1 0 0 1 38.9863 20.6196)" font-family="'MyriadPro-Regular'" font-size="14.1004px">z</text>
	<rect x="45.8" y="3" fill="none" width="9" height="14.5"/>
	<text transform="matrix(1 0 0 1 45.8086 16.3491)" font-family="'MyriadPro-Regular'" font-size="18.8006px">z</text>
	<rect x="53.6" y="5.5" fill="none" width="13.1" height="18"/>
	<text transform="matrix(1 0 0 1 53.624 23.0596)" font-family="'MyriadPro-Regular'" font-size="24.6758px">z</text>
	<path fill="none" stroke="#000000" stroke-width="2" stroke-linecap="round" stroke-linejoin="round" stroke-miterlimit="10" d="
		M44.9,11c-0.4-0.2-0.9-0.3-1.3-0.5c-2.8-1-5.8-1.5-9-1.5c-14.9,0-27,12.1-27,27c0,14.9,12.1,27,27,27c14.9,0,27-12.1,27-27
		c0-3.3-0.6-6.5-1.7-9.4"/>
</g>
</svg>
