<?xml version="1.0" encoding="utf-8"?>
<!-- Generator: Adobe Illustrator 21.1.0, SVG Export Plug-In . SVG Version: 6.00 Build 0)  -->
<svg version="1.1" id="Ebene_3" xmlns="http://www.w3.org/2000/svg" xmlns:xlink="http://www.w3.org/1999/xlink" x="0px" y="0px"
	 viewBox="0 0 72 72" enable-background="new 0 0 72 72" xml:space="preserve">
<g id="_xD83D__xDE31__1_">
	<path fill="none" stroke="#010101" stroke-width="2" stroke-linecap="round" stroke-linejoin="round" stroke-miterlimit="10" d="
		M47.3,54c-3.3,1.9-7.2,3-11.3,3c-4,0-7.7-1-11-2.8"/>
	<path fill="none" stroke="#010101" stroke-width="2" stroke-linecap="round" stroke-linejoin="round" stroke-miterlimit="10" d="
		M13.4,38.3C13.1,36.9,13,35.5,13,34c0-12.7,10.3-23,23-23s23,10.3,23,23c0,1.1-0.1,2.1-0.2,3.2"/>
	<path fill="none" stroke="#010101" stroke-width="2" stroke-linecap="round" stroke-linejoin="round" stroke-miterlimit="10" d="
		M22,23c1-1,4-7,10-2"/>
	<path fill="none" stroke="#010101" stroke-width="2" stroke-linecap="round" stroke-linejoin="round" stroke-miterlimit="10" d="
		M51,23c-1-1-4-7-10-2"/>
	<path fill="none" stroke="#010101" stroke-width="2" stroke-miterlimit="10" d="M31.8,29.5c0,2.5-2,4.5-4.5,4.5s-4.5-2-4.5-4.5
		c0-2.5,2-4.5,4.5-4.5S31.8,27,31.8,29.5"/>
	<path fill="#010101" d="M29.3,29.9c0,1.1-0.9,2-2,2c-1.1,0-2-0.9-2-2c0-1.1,0.9-2,2-2C28.4,27.9,29.3,28.8,29.3,29.9"/>
	<path fill="none" stroke="#010101" stroke-width="2" stroke-miterlimit="10" d="M49.8,29.5c0,2.5-2,4.5-4.5,4.5
		c-2.5,0-4.5-2-4.5-4.5c0-2.5,2-4.5,4.5-4.5C47.8,25,49.8,27,49.8,29.5"/>
	<path fill="#010101" d="M47.3,29.9c0,1.1-0.9,2-2,2c-1.1,0-2-0.9-2-2c0-1.1,0.9-2,2-2C46.4,27.9,47.3,28.8,47.3,29.9"/>
	<path fill="none" stroke="#010101" stroke-width="2" stroke-linecap="round" stroke-linejoin="round" stroke-miterlimit="10" d="
		M28,48c0.3-0.4,1-8,8.4-8c6.6,0,7.2,7.5,7.6,8C38.7,48,33.3,48,28,48z"/>
	<path fill="none" stroke="#010101" stroke-width="2" stroke-linecap="round" stroke-linejoin="round" stroke-miterlimit="10" d="
		M52.5,62c0.4-4.1,0.5-2.3,0.4-5.1c-0.6-1.3-1.5-3.2-1.8-5.8c-0.3-2,0-2.7,0.4-7c0.5-5.7,0.2-7,0.9-7.2c1.2-0.3,3.9,3.6,5.2,7.2
		c1.4,3.7,1.1,9.3,1.1,9.3l1.3,4.5"/>
	<path fill="none" stroke="#010101" stroke-width="2" stroke-linecap="round" stroke-linejoin="round" stroke-miterlimit="10" d="
		M19.5,62c-0.4-4.1-0.5-2.3-0.4-5.1c0.6-1.3,1.5-3.2,1.8-5.8c0.3-2,0-2.7-0.4-7c-0.5-5.7-0.2-7-0.9-7.2c-1.2-0.3-3.9,3.6-5.2,7.2
		c-1.4,3.7-1.1,9.3-1.1,9.3L12,57.9"/>
</g>
</svg>
