<svg id="emoji" viewBox="0 0 72 72" xmlns="http://www.w3.org/2000/svg">
  <g id="line">
    <path fill="none" stroke="#000000" stroke-linecap="round" stroke-linejoin="round" stroke-miterlimit="10" stroke-width="2" d="M64,55.1726"/>
    <line x1="62" x2="52.64" y1="54.16" y2="48.96" fill="none" stroke="#000000" stroke-linecap="round" stroke-linejoin="round" stroke-miterlimit="10" stroke-width="2"/>
    <path fill="none" stroke="#000000" stroke-linecap="round" stroke-linejoin="round" stroke-miterlimit="10" stroke-width="2" d="M52.64,46.8801"/>
    <path fill="none" stroke="#000000" stroke-linecap="round" stroke-linejoin="round" stroke-miterlimit="10" stroke-width="2" d="M62,52.08"/>
    <line x1="57.84" x2="48.48" y1="59.36" y2="54.16" fill="none" stroke="#000000" stroke-linecap="round" stroke-linejoin="round" stroke-miterlimit="10" stroke-width="2"/>
    <path fill="none" stroke="#000000" stroke-linecap="round" stroke-linejoin="round" stroke-miterlimit="10" stroke-width="2" d="M46.4,55.2"/>
    <path fill="none" stroke="#000000" stroke-linecap="round" stroke-linejoin="round" stroke-miterlimit="10" stroke-width="2" d="M55.76,60.4"/>
    <path fill="none" stroke="#000000" stroke-linecap="round" stroke-linejoin="round" stroke-miterlimit="10" stroke-width="2" d="M13.2916,48.0317c-1.1172-2.7655-1.7316-5.787-1.7316-8.9517L15.2,6.32l10.9799,10.7149c2.858-1.2066,6.0013-1.8749,9.3001-1.8749 h1.04c3.2988,0,6.4421,0.6683,9.3001,1.8749L56.8,6.3201l3.64,32.76c0,3.1647-0.6144,6.1862-1.7316,8.9517"/>
    <path fill="none" stroke="#000000" stroke-linecap="round" stroke-linejoin="round" stroke-miterlimit="10" stroke-width="2" d="M22.8253,59.3824C26.4968,61.6757,30.8335,63,35.48,63h1.04c4.6465,0,8.9852-1.3243,12.6547-3.6176"/>
    <line x1="10" x2="19.36" y1="54.16" y2="48.96" fill="none" stroke="#000000" stroke-linecap="round" stroke-linejoin="round" stroke-miterlimit="10" stroke-width="2"/>
    <path fill="none" stroke="#000000" stroke-linecap="round" stroke-linejoin="round" stroke-miterlimit="10" stroke-width="2" d="M19.36,46.8801"/>
    <line x1="14.16" x2="23.52" y1="59.36" y2="54.16" fill="none" stroke="#000000" stroke-linecap="round" stroke-linejoin="round" stroke-miterlimit="10" stroke-width="2"/>
    <path fill="none" stroke="#000000" stroke-linecap="round" stroke-linejoin="round" stroke-miterlimit="10" stroke-width="2" d="M25.6,55.2"/>
    <path fill="none" stroke="#000000" stroke-linecap="round" stroke-linejoin="round" stroke-miterlimit="10" stroke-width="2" d="M16.24,60.4"/>
    <path fill="none" stroke="#000000" stroke-linecap="round" stroke-linejoin="round" stroke-miterlimit="10" stroke-width="2" d="M55.24,38.9292c-3.12-4.16-9.36-4.16-11.44,0"/>
    <path fill="none" stroke="#000000" stroke-linecap="round" stroke-linejoin="round" stroke-miterlimit="10" stroke-width="2" d="M16.76,38.9292c3.12-4.16,9.36-4.16,11.44,0"/>
    <path fill="none" stroke="#000000" stroke-linecap="round" stroke-linejoin="round" stroke-miterlimit="10" stroke-width="2" d="M35.6476,47.6836c0,0,10.9458,3.3234,0,5.7862c0,0,10.876,3.1078,0,5.109"/>
  </g>
</svg>
