<svg id="emoji" xmlns="http://www.w3.org/2000/svg" viewBox="0 0 72 72">
  <g id="line">
    <path fill="none" stroke="#000000" stroke-width="2" stroke-linecap="round" stroke-linejoin="round" stroke-miterlimit="10" d="M64,55.3002"/>
    <line fill="none" stroke="#000000" stroke-width="2" stroke-linecap="round" stroke-linejoin="round" stroke-miterlimit="10" x1="34" y1="46.8801" x2="40.16" y2="46.8801"/>
    <path fill="none" stroke="#000000" stroke-width="2" stroke-linecap="round" stroke-linejoin="round" stroke-miterlimit="10" d="M33.4302,53.7609c4.2754,2.8014,9.5698-0.5338,10.3304-3.683l1.0825-0.96c0,0-4.7131,3.6039-7.9674-1.0495 c0.2153,4.0063-1.5621,5.151-3.3756,5.7404"/>
    <path fill="none" stroke="#000000" stroke-width="2" stroke-linecap="round" stroke-linejoin="round" stroke-miterlimit="10" d="M55.1059,33.7217c0,0-13.9059,5.8784-13.2519,6.6249C55.1598,52.4498,56.2039,35.4076,55.1059,33.7217z"/>
    <line fill="none" stroke="#000000" stroke-width="2" stroke-linecap="round" stroke-linejoin="round" stroke-miterlimit="10" x1="62" y1="54.1601" x2="52.64" y2="48.9601"/>
    <path fill="none" stroke="#000000" stroke-width="2" stroke-linecap="round" stroke-linejoin="round" stroke-miterlimit="10" d="M52.64,46.8801"/>
    <path fill="none" stroke="#000000" stroke-width="2" stroke-linecap="round" stroke-linejoin="round" stroke-miterlimit="10" d="M62,52.0801"/>
    <line fill="none" stroke="#000000" stroke-width="2" stroke-linecap="round" stroke-linejoin="round" stroke-miterlimit="10" x1="57.84" y1="59.3601" x2="48.48" y2="54.1601"/>
    <path fill="none" stroke="#000000" stroke-width="2" stroke-linecap="round" stroke-linejoin="round" stroke-miterlimit="10" d="M46.4,55.2001"/>
    <path fill="none" stroke="#000000" stroke-width="2" stroke-linecap="round" stroke-linejoin="round" stroke-miterlimit="10" d="M55.76,60.4001"/>
    <path fill="none" stroke="#000000" stroke-width="2" stroke-linecap="round" stroke-linejoin="round" stroke-miterlimit="10" d="M13.2916,48.0318c-1.1172-2.7655-1.7316-5.787-1.7316-8.9517l3.64-32.76L26.1799,17.035c2.858-1.2066,6.0013-1.8749,9.3001-1.8749 h1.04c3.2988,0,6.4411,0.6683,9.3011,1.8749L56.8,6.3201l3.64,32.76c0,3.1647-0.6144,6.1862-1.7316,8.9517"/>
    <path fill="none" stroke="#000000" stroke-width="2" stroke-linecap="round" stroke-linejoin="round" stroke-miterlimit="10" d="M22.8253,59.3824C26.4968,61.6757,30.8335,63,35.48,63h1.04c4.6465,0,8.9842-1.3243,12.6547-3.6176"/>
    <path fill="none" stroke="#000000" stroke-width="2" stroke-linecap="round" stroke-linejoin="round" stroke-miterlimit="10" d="M16.8941,33.7217c0,0,12.8659,6.9184,13.2519,6.6249C17.3013,53.0845,15.5971,36.4872,16.8941,33.7217z"/>
    <line fill="none" stroke="#000000" stroke-width="2" stroke-linecap="round" stroke-linejoin="round" stroke-miterlimit="10" x1="10" y1="54.1601" x2="19.36" y2="48.9601"/>
    <path fill="none" stroke="#000000" stroke-width="2" stroke-linecap="round" stroke-linejoin="round" stroke-miterlimit="10" d="M19.36,46.8801"/>
    <path fill="none" stroke="#000000" stroke-width="2" stroke-linecap="round" stroke-linejoin="round" stroke-miterlimit="10" d="M10,52.0801"/>
    <line fill="none" stroke="#000000" stroke-width="2" stroke-linecap="round" stroke-linejoin="round" stroke-miterlimit="10" x1="14.16" y1="59.3601" x2="23.52" y2="54.1601"/>
    <path fill="none" stroke="#000000" stroke-width="2" stroke-linecap="round" stroke-linejoin="round" stroke-miterlimit="10" d="M25.6,55.2001"/>
    <path fill="none" stroke="#000000" stroke-width="2" stroke-linecap="round" stroke-linejoin="round" stroke-miterlimit="10" d="M16.24,60.4001"/>
    <circle cx="23.52" cy="38.5601" r="2.08"/>
    <circle cx="48.48" cy="38.5601" r="2.08"/>
  </g>
</svg>
