<?xml version="1.0" encoding="utf-8"?>
<!-- Generator: Adobe Illustrator 21.1.0, SVG Export Plug-In . SVG Version: 6.00 Build 0)  -->
<svg version="1.1" id="emoji" xmlns="http://www.w3.org/2000/svg" xmlns:xlink="http://www.w3.org/1999/xlink" x="0px" y="0px"
	 viewBox="0 0 72 72" enable-background="new 0 0 72 72" xml:space="preserve">
<g id="_xD83D__xDE48__1_">
	<path fill="none" stroke="#010101" stroke-width="2" stroke-linecap="round" stroke-linejoin="round" stroke-miterlimit="10" d="
		M52.6,20.5c0.3,0,7.1-2.2,10.3,3.9c1.7,3.3,1.3,6.2-0.1,8.8"/>
	<path fill="none" stroke="#010101" stroke-width="2" stroke-linecap="round" stroke-linejoin="round" stroke-miterlimit="10" d="
		M20.1,20.5c-0.3,0-7.1-2.2-10.3,3.9c-1.6,3.1-1.3,5.9-0.1,8.4"/>
	<path fill="none" stroke="#010101" stroke-width="2" stroke-linecap="round" stroke-linejoin="round" stroke-miterlimit="10" d="
		M20.1,29.8c0.7-1.2,1.7-2.2,2.9-2.9c4.2-2.6,10.5-1.1,13.5,3.8c3-4.9,9.3-6.3,13.5-3.8c1.4,0.9,2.5,2.1,3.2,3.6"/>
	
		<path fill="#FFFFFF" stroke="#010101" stroke-width="2" stroke-linecap="round" stroke-linejoin="round" stroke-miterlimit="10" d="
		M42.3,49.9c-0.2,0.3-0.8,6-6.3,6c-5,0-5.4-5.7-5.7-6C34.3,49.9,38.3,49.9,42.3,49.9z"/>
	<circle fill="#010101" cx="34.4" cy="45.4" r="1"/>
	<circle fill="#010101" cx="38.1" cy="45.4" r="1"/>
	<path fill="none" stroke="#010101" stroke-width="2" stroke-linecap="round" stroke-linejoin="round" stroke-miterlimit="10" d="
		M49.2,55.9c-3.7,2.5-8.1,4-12.9,4c-4.8,0-9.2-1.4-12.9-3.9"/>
	<path fill="none" stroke="#010101" stroke-width="2" stroke-linecap="round" stroke-linejoin="round" stroke-miterlimit="10" d="
		M15.3,27.3C19,19.4,27,13.9,36.3,13.9c9.2,0,17.2,5.4,20.8,13.3"/>
	<path fill="none" stroke="#010101" stroke-width="2" stroke-linecap="round" stroke-linejoin="round" stroke-miterlimit="10" d="
		M59.6,53.1c-1.9-3.9,0.3,0.6-1.6-3.3c0.6-1.6,1.3-4,1.5-7c0.4-4.6-0.1-10.5-1.5-10.7c-0.6-0.1-1.5,0.7-3,4.7
		c-2.6-3.1-8.4-6.3-9-5.5c-0.6,0.8,0.1,2.5,0,3.5c-2.7-1.2-3.9-1.4-4.3-1.1c-0.3,0.4,0.1,1.7,1.8,4.3c-3.1-0.7-4.1,0.1-3.9,0.8
		c0.6,2.6,2.7,5.9,6.4,9.6c2.1,2.1,4.7,2.6,6.4,2.9c0.6,5,0.3,2.9,1,7.9"/>
	<path fill="none" stroke="#010101" stroke-width="2" stroke-linecap="round" stroke-linejoin="round" stroke-miterlimit="10" d="
		M12.7,52.9c1.9-3.9-0.4,0.9,1.5-3.1c-0.6-1.6-1.3-4-1.5-7c-0.4-4.6,0.1-10.5,1.5-10.7c0.6-0.1,1.5,0.7,3,4.7c2.6-3.1,8.4-6.3,9-5.5
		c0.6,0.8-0.1,2.5,0,3.5c2.7-1.2,3.9-1.4,4.3-1.1c0.3,0.4-0.1,1.7-1.8,4.3c3.1-0.7,4.1,0.1,3.9,0.8c-0.6,2.6-2.7,5.9-6.4,9.6
		c-2.1,2.1-4.7,2.6-6.4,2.9c-0.6,5-0.3,2.9-1,7.9"/>
</g>
</svg>
