<svg version="1.1" id="emoji" xmlns="http://www.w3.org/2000/svg" x="0" y="0" viewBox="0 0 72 72" enable-background="new 0 0 72 72" xml:space="preserve">
  <g id="line">
    <path fill="none" stroke="#000000" stroke-width="2" stroke-linecap="round" stroke-linejoin="round" d="M31,39c-4,0-4-6-4-13 s4-14,14-14s14,7,14,14s0,13-4,13"/>
    <path fill="none" stroke="#000000" stroke-width="2" stroke-linecap="round" stroke-linejoin="round" stroke-miterlimit="10" d="M21,60c0-0.5215-0.2314-1.2256-0.8418-1.6982C17,55.8564,16,55,16,55l5-12"/>
    <path d="M46.873,30c0,1.1045-0.8955,2-2,2c-1.1044,0-2-0.8955-2-2s0.8956-2,2-2C45.9775,28,46.873,28.8955,46.873,30"/>
    <path d="M38.873,30c0,1.1045-0.8955,2-2,2c-1.1044,0-2-0.8955-2-2s0.8956-2,2-2C37.9775,28,38.873,28.8955,38.873,30"/>
    <path fill="none" stroke="#000000" stroke-width="2" stroke-linejoin="round" d="M29.9365,31c0,9,4.9365,14,11,14 C46.873,45,52,40,52,31c0-3-1-5.0005-1-5.0005c-3-2.9995-7-8-7-8c-4,3-7,6-13,7.0005C31,25,29.9365,25.9995,29.9365,31z"/>
    <path fill="none" stroke="#000000" stroke-width="2" stroke-linecap="round" stroke-linejoin="round" d="M38,38 c1.9385,0.9385,4,1,6,0"/>
    <path fill="none" stroke="#000000" stroke-width="2" stroke-linecap="round" stroke-linejoin="round" stroke-miterlimit="10" d="M18.709,3.792C18,7.7168,17.584,10.4238,17,15"/>
    <path fill="none" stroke="#000000" stroke-width="2" stroke-linecap="round" stroke-linejoin="round" stroke-miterlimit="10" d="M20.0684,18.3755C20.3613,16.2129,21.166,11.625,21.625,7"/>
    <path fill="none" stroke="#000000" stroke-width="2" stroke-linecap="round" stroke-linejoin="round" stroke-miterlimit="10" d="M60,61c0,0,0.0908-2.25,0.0908-3C60.0908,51,51,48,51,48c-7,2-11,2-16,1c-3.2754-0.6553-10.0273-4.5898-15-8 c0,0-3.9092-9.5-3.9092-13.5005c0-0.5825,5.5518-1.9936,7-6.4995c0.7813-2.4307,1.8106-5.6738,1.8106-5.6738"/>
    <path fill="none" stroke="#000000" stroke-width="2" stroke-linecap="round" stroke-linejoin="round" stroke-miterlimit="10" d="M16.5,8.625"/>
    <path fill="none" stroke="#000000" stroke-width="2" stroke-linecap="round" stroke-linejoin="round" stroke-miterlimit="10" d="M13,15c0.8604-5.0757,1.5645-8.6211,2-10"/>
    <path fill="none" stroke="#000000" stroke-width="2" stroke-linecap="round" stroke-linejoin="round" stroke-miterlimit="10" d="M17.1543,52.2314c-5-4-6.5879-5.1201-7.1543-8.2314C8,33,9,29.4189,9,26c0-1,0.0156,0,0.0156-6c0.001-0.812,0.5078-4.3931,0.9844-7 c0.3418-1.8672,0.583-2.7476,1-4"/>
  </g>
</svg>
