<svg id="emoji" viewBox="0 0 72 72" xmlns="http://www.w3.org/2000/svg">
  <g id="line">
    <path fill="none" stroke="#000" stroke-linecap="round" stroke-linejoin="round" stroke-width="2" d="M16.9948,59.9383v-3c0-4.9941,5.0078-9,10-9q9,7.5,18,0c4.9941,0,10,4.0059,10,9v3"/>
    <path d="M41.8678,29.9383a2,2,0,0,1-4,0c0-1.1045,2.0225-2,3.127-2a3.2627,3.2627,0,0,1,.873,2"/>
    <path d="M33.9948,29.9383a2,2,0,0,1-4,0,3.1184,3.1184,0,0,1,1-2c1.1045,0,3,.8955,3,2"/>
    <path fill="none" stroke="#000" stroke-linecap="round" stroke-linejoin="round" stroke-width="2" d="M38.9948,37.9383c-1-2-5-2-6,0"/>
    <path fill="none" stroke="#000" stroke-linecap="round" stroke-linejoin="round" stroke-width="2" d="M26.125,37.8626c-3,0-4-7-4-14,0-6,5-12,14-12s14,6,14,12c0,7-1,14-4,14"/>
    <path fill="none" stroke="#000" stroke-linejoin="round" stroke-width="2" d="M25.0615,30.8626c-.1015,7.999,4.9365,14,11,14,5.9365,0,11.0635-6,11.0635-14,0-5-3-11-3-11-8,0-10,3-16,1C28.125,20.8626,25.125,25.8626,25.0615,30.8626Z"/>
  </g>
</svg>
