<?xml version="1.0" encoding="utf-8"?>
<!-- Generator: Adobe Illustrator 21.1.0, SVG Export Plug-In . SVG Version: 6.00 Build 0)  -->
<svg version="1.1" xmlns="http://www.w3.org/2000/svg" xmlns:xlink="http://www.w3.org/1999/xlink" x="0px" y="0px"
	 viewBox="0 0 72 72" enable-background="new 0 0 72 72" xml:space="preserve">
<g id="color">
</g>
<g id="emoji">
	<g id="_xD83D__xDE46_">
		<path fill="none" stroke="#040404" stroke-width="2" stroke-linecap="round" stroke-linejoin="round" d="M48.6,39.6
			C48,40.5,47.2,41,46,41"/>
		<path fill="none" stroke="#040404" stroke-width="2" stroke-linecap="round" stroke-linejoin="round" d="M26,41
			c-1.4,0-2.7-0.7-3.3-1.9"/>
		<path fill="#040404" d="M41.9,32c0,1.1-0.9,2-2,2c-1.1,0-2-0.9-2-2s0.9-2,2-2C41,30,41.9,30.9,41.9,32"/>
		<path fill="#040404" d="M33.9,32c0,1.1-0.9,2-2,2c-1.1,0-2-0.9-2-2s0.9-2,2-2C33,30,33.9,30.9,33.9,32"/>
		<path fill="none" stroke="#040404" stroke-width="2" stroke-linejoin="round" d="M24.9,33c0,9,4.9,14,11,14C41.9,47,47,42,47,33
			c0-3-1-5-1-5c-3-3-7-8-7-8c-4,3-7,6-13,7C26,27,24.9,28,24.9,33z"/>
		<path fill="none" stroke="#040404" stroke-width="2" stroke-linecap="round" stroke-linejoin="round" d="M39,39.5c-1,2-5,2-6,0"/>
		<path fill="none" stroke="#040404" stroke-width="2" stroke-linecap="round" stroke-linejoin="round" d="M48.8,39.5
			c1-3.8,1.7-8,2.2-10.5c0.7-3.3-5-12-5-12s-1-1-2-1c-3,0-4-2-6-3c0,0-4.5-0.9-7.6-1C29,12,29,10.7,29,10.7s0-1.5,2.1-1.4
			c3.2,0,6.1,0,9.9,0.8c1,0.2,6,1.1,8,2c0.6,0.3,2,2,2,2s7,11,7,15c0,3.2,0,14.2,0,14.2"/>
		<path fill="none" stroke="#040404" stroke-width="2" stroke-linecap="round" stroke-linejoin="round" d="M39.9,14.5
			C39.8,15,39.3,15,39,15c-6,0-8,2-11,2c-0.8,0-2,0-2,0s-5.6,9.4-5,12.8c0.3,1.6,0.8,5.4,1.7,9.2"/>
		<path fill="none" stroke="#040404" stroke-width="2" stroke-linecap="round" stroke-linejoin="round" d="M14,42c0,0,0-10,0-13
			c0-4,7-15,7-15s2-1.6,4-2c1.2-0.2,3.2-0.5,4.7-0.2"/>
		<path fill="none" stroke="#040404" stroke-width="2" stroke-linecap="round" stroke-linejoin="round" d="M16,61"/>
		<polyline fill="none" stroke="#040404" stroke-width="2" stroke-linecap="round" stroke-linejoin="round" points="22.7,39.6 
			12,43 16,60 		"/>
		<polyline fill="none" stroke="#040404" stroke-width="2" stroke-linecap="round" stroke-linejoin="round" points="48.6,39.6 
			60,44 56,60 		"/>
	</g>
</g>
</svg>
