<svg version="1.1" id="emoji" xmlns="http://www.w3.org/2000/svg" x="0" y="0" viewBox="0 0 72 72" enable-background="new 0 0 72 72" xml:space="preserve">
  <g id="line">
    <path fill="none" stroke="#000000" stroke-width="2" stroke-linecap="round" stroke-linejoin="round" d="M26,39c-4,0-4-6-4-13 s4-14,14-14s14,7,14,14s0,13-4,13"/>
    <path fill="none" stroke="#000000" stroke-width="2" stroke-linecap="round" stroke-linejoin="round" d="M17,60v-3 c0-4.9941,5.0078-9,10-9c6,5,12,5,18,0c4.9941,0,10,4.0059,10,9v3"/>
    <path d="M42,31c0,1.1045-0.8955,1-2,1s-2,0.1045-2-1s1-2,1-2C40.1045,29,42,29.8955,42,31"/>
    <path d="M34,31c0,1.1045-0.8955,1-2,1s-2,0.1045-2-1c0-1,2.0225-2,3.127-2C33.127,29,34,29.8955,34,31"/>
    <path fill="none" stroke="#000000" stroke-width="2" stroke-linecap="round" stroke-linejoin="round" d="M38,38.75c-1-1-3-1-4,0"/>
    <path fill="none" stroke="#000000" stroke-width="2" stroke-linejoin="round" d="M24.9365,31c0,9,4.9365,14,11,14 C41.873,45,47,40,47,31c0-3-1-4-1-4c-3-3-7-6-7-6c-4,3-9,5-13,5C26,26,24.9365,26,24.9365,31z"/>
  </g>
</svg>
