<svg id="emoji" viewBox="0 0 72 72" xmlns="http://www.w3.org/2000/svg">
  <g id="line-supplement">
    <path fill="none" stroke="#000000" stroke-linecap="round" stroke-linejoin="round" stroke-miterlimit="10" stroke-width="2" d="M50.3838,47.2065c-1.7396,1.4508-3.5449,2.0133-3.8255,2.096c1.2769,3.8998,1.5308,7.3335,0.8554,9.3629"/>
    <path fill="none" stroke="#000000" stroke-linecap="round" stroke-linejoin="round" stroke-miterlimit="10" stroke-width="2" d="M23.7414,31.4072c4.0808-1.403,9.8253,0.1056,12.4177,4.5449c2.5249-4.2094,7.8873-5.739,11.8223-4.7169"/>
    <path fill="none" stroke="#000000" stroke-linecap="round" stroke-linejoin="round" stroke-miterlimit="10" stroke-width="2" d="M25.721,59.5755c-0.7095-2.8184-0.848-5.5181,0.3199-10.8352c-0.2215-0.045-2.2221-0.4854-4.1217-1.928"/>
  </g>
  <g id="line">
    <circle cx="26.8381" cy="38.2509" r="3"/>
    <circle cx="45.3945" cy="38.2509" r="3"/>
    <path fill="none" stroke="#000000" stroke-linecap="round" stroke-linejoin="round" stroke-miterlimit="10" stroke-width="2" d="M41.9792,49.017c-0.2036,0.2681-0.7527,6.0217-6.3387,6.0246c-4.9521,0.0025-5.4413-5.6762-5.7048-6.0246 C33.9503,49.017,37.9648,49.017,41.9792,49.017z"/>
    <circle cx="34.0988" cy="44.5578" r="1"/>
    <circle cx="37.7384" cy="44.5578" r="1"/>
    <path fill="none" stroke="#000000" stroke-linecap="round" stroke-linejoin="round" stroke-miterlimit="10" stroke-width="2" d="M11.6836,20.1837c-1.2053,0.6459-2.3451,1.7036-3.2117,3.3917c-1.708,3.3272-1.274,6.2517,0.0837,8.8217"/>
    <path fill="none" stroke="#000000" stroke-linecap="round" stroke-linejoin="round" stroke-miterlimit="10" stroke-width="2" d="M60.5424,20.2614c1.1529,0.6519,2.2379,1.6919,3.0706,3.3141c1.6027,3.122,1.3194,5.8895,0.1566,8.3422"/>
    <path fill="none" stroke="#000000" stroke-linecap="round" stroke-linejoin="round" stroke-miterlimit="10" stroke-width="2" d="M50.0121,54.2076c-3.8867,3.0046-8.7619,4.7923-14.0546,4.7923c-5.1125,0-9.8354-1.6681-13.6542-4.4897"/>
    <path fill="none" stroke="#000000" stroke-linecap="round" stroke-linejoin="round" stroke-miterlimit="10" stroke-width="2" d="M23.838,16.4485C27.3571,14.2624,31.5099,13,35.9575,13c4.5893,0,8.8647,1.3441,12.4539,3.6602"/>
    <path fill="none" stroke="#000000" stroke-linecap="round" stroke-linejoin="round" stroke-miterlimit="10" stroke-width="2" d="M18.945,56.8993c-0.4804-6.0396,0.0392-6.4239-0.4413-12.4635c0.7336-1.8542,1.6918-4.7683,2.059-8.4418 c0.2878-2.8791-0.0143-3.9562-0.4118-10.2995c-0.5229-8.3456-0.2387-10.2904-1.0295-10.4961 c-1.4192-0.3691-4.4446,5.3461-5.971,10.4961c-1.6205,5.4675-1.2354,13.5938-1.2354,13.5938l-1.2,5.2695"/>
    <path fill="none" stroke="#000000" stroke-linecap="round" stroke-linejoin="round" stroke-miterlimit="10" stroke-width="2" d="M53.4019,57.9872c0.4804-6.0396-0.0392-7.5118,0.4413-13.5514c-0.7336-1.8542-1.6918-4.7683-2.059-8.4418 c-0.2878-2.8791,0.0143-3.9562,0.4118-10.2995c0.5229-8.3456,0.2387-10.2904,1.0295-10.4961 c1.4192-0.3691,4.4446,5.3461,5.971,10.4961c1.6205,5.4675,1.2354,13.5938,1.2354,13.5938l1.4909,6.5466"/>
  </g>
</svg>
