<svg id="emoji" xmlns="http://www.w3.org/2000/svg" viewBox="0 0 72 72">
  <g id="line">
    <path fill="none" stroke="#000000" stroke-width="2" stroke-linecap="round" stroke-linejoin="round" stroke-miterlimit="10" d="
		M52.6201,20.5306c0.3299,0,7.1412-2.2454,10.3066,3.9209c1.7048,3.321,1.2756,6.2407-0.0761,8.8072"></path>
    <path fill="none" stroke="#000000" stroke-width="2" stroke-linecap="round" stroke-linejoin="round" stroke-miterlimit="10" d="
		M20.0923,20.5306c-0.3299,0-7.1412-2.2454-10.3066,3.9209c-1.6112,3.1387-1.3163,5.919-0.1379,8.3815"></path>
    <circle fill="#000000" cx="27.1518" cy="39.127" r="3" stroke="none"></circle>
    <circle fill="#000000" cx="45.7082" cy="39.127" r="3" stroke="none"></circle>
    <path fill="none" stroke="#000000" stroke-width="2" stroke-linecap="round" stroke-linejoin="round" stroke-miterlimit="10" d="
		M42.293,49.8932c-0.2036,0.2681-0.7527,6.0217-6.3387,6.0246c-4.9521,0.0025-5.4413-5.6762-5.7048-6.0246
		C34.264,49.8932,38.2785,49.8932,42.293,49.8932z"></path>
    <circle fill="#000000" cx="34.4125" cy="45.434" r="1" stroke="none"></circle>
    <circle fill="#000000" cx="38.0521" cy="45.434" r="1" stroke="none"></circle>
    <path fill="none" stroke="#000000" stroke-width="2" stroke-linecap="round" stroke-linejoin="round" stroke-miterlimit="10" d="
		M49.2052,55.8976c-3.6854,2.5108-8.1382,3.9785-12.9339,3.9785c-4.7635,0-9.1887-1.4481-12.8595-3.928"></path>
    <path fill="none" stroke="#000000" stroke-width="2" stroke-linecap="round" stroke-linejoin="round" stroke-miterlimit="10" d="
		M15.3487,27.3103c3.6303-7.9273,11.6333-13.4342,20.9225-13.4342c9.2192,0,17.1715,5.4242,20.8396,13.2552"></path>
    <path fill="none" stroke="#000000" stroke-width="2" stroke-linecap="round" stroke-linejoin="round" stroke-miterlimit="10" d="
		M59.64,53.1494c-1.8841-3.9279,0.2803,0.5844-1.6038-3.3435c0.5664-1.6119,1.2604-4.0223,1.5384-7.0087
		c0.425-4.5648-0.1233-10.4598-1.5384-10.6624c-0.555-0.0795-1.4734,0.6838-3.0324,4.7202
		c-2.6006-3.0933-8.3652-6.2699-8.999-5.4998c-0.6228,0.7568,0.0903,2.5375,0.0098,3.503
		c-2.6552-1.2069-3.9497-1.4041-4.2664-1.0505c-0.3186,0.3557,0.0824,1.6942,1.7721,4.3494
		c-3.1158-0.7429-4.1039,0.1181-3.9426,0.8046c0.6076,2.5859,2.7004,5.9308,6.4366,9.6067c2.0968,2.0629,4.741,2.5726,6.3992,2.9133
		c0.6095,5.022,0.347,2.8686,0.9565,7.8906"></path>
    <path fill="none" stroke="#000000" stroke-width="2" stroke-linecap="round" stroke-linejoin="round" stroke-miterlimit="10" d="
		M12.7488,52.859c1.8841-3.9279-0.4196,0.8747,1.4645-3.0531c-0.5664-1.6119-1.2604-4.0223-1.5384-7.0087
		c-0.425-4.5648,0.1233-10.4598,1.5384-10.6624c0.555-0.0795,1.4734,0.6838,3.0324,4.7202c2.6006-3.0933,8.3652-6.2699,8.999-5.4998
		c0.6228,0.7568-0.0903,2.5375-0.0098,3.503c2.6552-1.2069,3.9497-1.4041,4.2664-1.0505c0.3186,0.3557-0.0824,1.6942-1.7721,4.3494
		c3.1158-0.7429,4.1039,0.1181,3.9426,0.8046c-0.6076,2.5859-2.7004,5.9308-6.4366,9.6067
		c-2.0968,2.0629-4.741,2.5726-6.3992,2.9133c-0.6095,5.022-0.3481,2.8686-0.9576,7.8906"></path>
  </g>
</svg>