<svg id="emoji" viewBox="0 0 72 72" xmlns="http://www.w3.org/2000/svg">
  <g id="line">
    <path d="M48.3323,32.9718a2,2,0,1,1-2-2,2,2,0,0,1,2,2"/>
    <path d="M40.3323,32.9718a2,2,0,1,1-2-2,2,2,0,0,1,2,2"/>
    <path fill="none" stroke="#000" stroke-linecap="round" stroke-linejoin="round" stroke-width="2" d="M39.4593,40.9718a6.5535,6.5535,0,0,0,6,0"/>
    <path fill="none" stroke="#000" stroke-linecap="round" stroke-linejoin="round" stroke-width="2" d="M22.4738,63.99a2.9818,2.9818,0,0,0-.8419-2.6982C18.4738,58.846,17.4738,57.99,17.4738,57.99l5-12"/>
    <path fill="none" stroke="#000" stroke-linecap="round" stroke-linejoin="round" stroke-width="2" d="M20.1828,6.7816c-.709,3.9248-1.125,6.6318-1.709,11.208"/>
    <path fill="none" stroke="#000" stroke-linecap="round" stroke-linejoin="round" stroke-width="2" d="M21.5421,21.3651C21.835,19.2025,22.64,14.6146,23.0988,9.99"/>
    <path fill="none" stroke="#000" stroke-linecap="round" stroke-linejoin="round" stroke-width="2" d="M61.4738,63.99s.0908-2.25.0908-3c0-7-9.0908-10-9.0908-10-7,2-11,2-16,1-3.2754-.6553-10.0273-4.59-15-8,0,0-3.9093-9.5-3.9093-13.5005,0-.5825,5.5518-1.9936,7-6.5.7813-2.4307,1.8106-5.6738,1.8106-5.6738"/>
    <path fill="none" stroke="#000" stroke-linecap="round" stroke-linejoin="round" stroke-width="2" d="M14.4738,17.99c.86-5.0757,1.5645-8.6211,2-10"/>
    <path fill="none" stroke="#000" stroke-linecap="round" stroke-linejoin="round" stroke-width="2" d="M18.6281,55.221c-5-4-6.5879-5.12-7.1543-8.2314-2-11-1-14.5811-1-18,0-1,.0156,0,.0156-6,.001-.812.5078-4.3931.9844-7a25.2783,25.2783,0,0,1,1-4"/>
    <path fill="none" stroke="#000" stroke-linecap="round" stroke-linejoin="round" stroke-width="2" d="M24.1413,40.2425c.6148-1.774,1.4978-3.4939,2.1913-5.2759,1.6357-4.2-.209-6.4512,1.291-12.0342,1.48-5.5,7.2773-8.9658,13.709-8.9658,5.4,0,8,3,8,3a8.1321,8.1321,0,0,1,7.4052,8.0371c.3867,7.18,1.0244,7.1523,3.4287,12.8222A11.5986,11.5986,0,0,1,58.72,49.489"/>
    <path fill="none" stroke="#000" stroke-linejoin="round" stroke-width="2" d="M31.3326,33.9666c0,8,5,14,11,14s11-6,11-14c0-5-2-8-6-12-4,4-16,9-16,11Z"/>
  </g>
</svg>
