<svg id="emoji" viewBox="0 0 72 72" xmlns="http://www.w3.org/2000/svg">
  <g id="line">
    <path fill="none" stroke="#000" stroke-linecap="round" stroke-linejoin="round" stroke-width="2" d="M21.99,27.9583c-.0029-.6543-.0029-1.3223-.0029-2,0-7,5-14,14-14a13.75,13.75,0,0,1,14,14c0,.6.0039,1.1318.0049,1.666"/>
    <path d="M41.86,29.9583a2,2,0,1,1-2-2,2,2,0,0,1,2,2"/>
    <path d="M33.86,29.9583a2,2,0,1,1-2-2,2,2,0,0,1,2,2"/>
    <path fill="none" stroke="#000" stroke-linecap="round" stroke-linejoin="round" stroke-width="2" d="M33.9872,37.9583h4"/>
    <path fill="none" stroke="#000" stroke-linecap="round" stroke-linejoin="round" stroke-width="2" d="M47.92,48.4075c3.85,1.1778,7.0674,4.5469,7.0674,8.5508v3"/>
    <path fill="none" stroke="#000" stroke-linecap="round" stroke-linejoin="round" stroke-width="2" d="M16.9872,59.9583v-3c0-3.9756,3.1719-7.3242,6.9844-8.5244"/>
    <path fill="none" stroke="#000" stroke-linecap="round" stroke-linejoin="round" stroke-width="2" d="M42.5429,38.4026l8-7a1.4142,1.4142,0,0,1,2,2l-5,6"/>
    <path fill="none" stroke="#000" stroke-linecap="round" stroke-linejoin="round" stroke-width="2" d="M29.4315,38.4026l-8-7a1.4142,1.4142,0,0,0-2,2l5,6"/>
    <line x1="35.9892" x2="31.9872" y1="54.9056" y2="59.9583" fill="none" stroke="#000" stroke-linecap="round" stroke-linejoin="round" stroke-width="2"/>
    <path fill="none" stroke="#000" stroke-linecap="round" stroke-linejoin="round" stroke-width="2" d="M35.956,45.4935l5.5869-6.0909,1-1,6-4.5556a1.4142,1.4142,0,0,1,2,2l-3,3.5556a39.3264,39.3264,0,0,1-2,6c-.6328,1.2647-3.5557,2-3.5557,2l-2.127,2"/>
    <line x1="21.9872" x2="31.9872" y1="59.9583" y2="49.4026" fill="none" stroke="#000" stroke-linecap="round" stroke-linejoin="round" stroke-width="2"/>
    <path fill="none" stroke="#000" stroke-linecap="round" stroke-linejoin="round" stroke-width="2" d="M49.9872,59.9583l-16-16.5557-3.5557-4-1-1-6-4.5556a1.4142,1.4142,0,0,0-2,2l3,3.5556a39.3264,39.3264,0,0,0,2,6c.6328,1.2647,3.5557,2,3.5557,2l2,2,8,10.5557"/>
    <path fill="none" stroke="#000" stroke-linecap="round" stroke-linejoin="round" stroke-width="2" d="M46.8755,30.1743c-.3017-4.803-2.9724-10.1444-2.9724-10.1444-8,0-10,3-16,1a23.8144,23.8144,0,0,0-3.0418,9.3945"/>
  </g>
</svg>
