<svg version="1.1" id="emoji" xmlns="http://www.w3.org/2000/svg" x="0" y="0" viewBox="0 0 72 72" enable-background="new 0 0 72 72" xml:space="preserve">
  <g id="line">
    <path fill="none" stroke="#000000" stroke-width="2" stroke-linecap="round" stroke-linejoin="round" d="M48.5859,39.5801 C48,40.4844,47.1719,41,46,41"/>
    <path fill="none" stroke="#000000" stroke-width="2" stroke-linecap="round" stroke-linejoin="round" d="M26,41 c-1.4043,0-2.7207-0.6748-3.3125-1.9375"/>
    <path d="M41.873,32c0,1.1045-0.8955,2-2,2c-1.1044,0-2-0.8955-2-2s0.8956-2,2-2C40.9775,30,41.873,30.8955,41.873,32"/>
    <path d="M33.873,32c0,1.1045-0.8955,2-2,2c-1.1044,0-2-0.8955-2-2s0.8956-2,2-2C32.9775,30,33.873,30.8955,33.873,32"/>
    <path fill="none" stroke="#000000" stroke-width="2" stroke-linejoin="round" d="M24.9365,33c0,9,4.9365,14,11,14 C41.873,47,47,42,47,33c0-3-1-5.0005-1-5.0005c-3-2.9995-7-8-7-8c-4,3-7,6-13,7.0005C26,27,24.9365,27.9995,24.9365,33z"/>
    <path fill="none" stroke="#000000" stroke-width="2" stroke-linecap="round" stroke-linejoin="round" d="M39,39.5c-1,2-5,2-6,0"/>
    <path fill="none" stroke="#000000" stroke-width="2" stroke-linecap="round" stroke-linejoin="round" d="M48.7822,39.501 C49.7666,35.6602,50.5059,31.4736,51,29c0.667-3.3345-5-12-5-12s-1-1-2-1c-3,0-4-2-6-3c0,0-4.5156-0.9351-7.5547-0.9932 c-1.414-0.0268-1.4033-1.3242-1.4033-1.3242S29,9.2041,31.1211,9.2373C34.3086,9.2871,37.25,9.25,41,10 c0.9805,0.1963,6.0244,1.0508,8,2c0.6377,0.3062,2,2,2,2s7,11,7,15c0,3.25,0,13.9678,0,13.9678"/>
    <path fill="none" stroke="#000000" stroke-width="2" stroke-linecap="round" stroke-linejoin="round" d="M39.9414,14.4517 C39.7754,15,39.2891,15,39,15c-6,0-8,2-11,2c-0.75,0-2,0-2,0s-5.6426,9.4106-5,12.75c0.3125,1.625,0.8125,5.4375,1.7344,9.2188"/>
    <path fill="none" stroke="#000000" stroke-width="2" stroke-linecap="round" stroke-linejoin="round" d="M14,42c0,0,0-10,0-13 c0-4,7-15,7-15s2.0391-1.6079,4-2c1.1973-0.2397,3.25-0.5,4.7363-0.187"/>
    <path fill="none" stroke="#000000" stroke-width="2" stroke-linecap="round" stroke-linejoin="round" d="M16,61"/>
    <polyline fill="none" stroke="#000000" stroke-width="2" stroke-linecap="round" stroke-linejoin="round" points="22.5,39.9678 12,43 16,60"/>
    <polyline fill="none" stroke="#000000" stroke-width="2" stroke-linecap="round" stroke-linejoin="round" points="48.5859,39.5801 60,44 56,60"/>
  </g>
</svg>
