<svg id="emoji" xmlns="http://www.w3.org/2000/svg" viewBox="0 0 72 72">
  
  
  
  
  
  <g id="line">
    <circle fill="#000000" cx="26.8381" cy="41.2301" r="3" stroke="none"></circle>
    <circle fill="#000000" cx="45.3945" cy="41.2301" r="3" stroke="none"></circle>
    <path fill="none" stroke="#000000" stroke-width="2" stroke-linecap="round" stroke-linejoin="round" stroke-miterlimit="10" d="
		M41.9792,51.9962c-0.2036,0.2681-0.7527,6.0217-6.3387,6.0246c-4.9521,0.0025-5.4413-5.6762-5.7048-6.0246
		C33.9503,51.9962,37.9648,51.9962,41.9792,51.9962z"></path>
    <circle fill="#000000" cx="34.0988" cy="47.537" r="1" stroke="none"></circle>
    <circle fill="#000000" cx="37.7384" cy="47.537" r="1" stroke="none"></circle>
    <path fill="none" stroke="#000000" stroke-width="2" stroke-linecap="round" stroke-linejoin="round" stroke-miterlimit="10" d="
		M11.6836,23.1629c-1.2053,0.6459-2.3451,1.7036-3.2117,3.3917c-1.708,3.3272-1.274,6.2517,0.0837,8.8217"></path>
    <path fill="none" stroke="#000000" stroke-width="2" stroke-linecap="round" stroke-linejoin="round" stroke-miterlimit="10" d="
		M60.5424,23.2406c1.1529,0.6519,2.2379,1.6919,3.0706,3.3141c1.6027,3.122,1.3194,5.8895,0.1566,8.3422"></path>
    <path fill="none" stroke="#000000" stroke-width="2" stroke-linecap="round" stroke-linejoin="round" stroke-miterlimit="10" d="
		M50.0121,57.1868c-3.8867,3.0046-8.7619,4.7923-14.0546,4.7923c-5.1125,0-9.8354-1.6681-13.6542-4.4897"></path>
    <path fill="none" stroke="#000000" stroke-width="2" stroke-linecap="round" stroke-linejoin="round" stroke-miterlimit="10" d="
		M23.838,19.4277c3.5191-2.1861,7.6719-3.4485,12.1195-3.4485c4.5893,0,8.8647,1.3441,12.4539,3.6602"></path>
    <path fill="none" stroke="#000000" stroke-width="2" stroke-linecap="round" stroke-linejoin="round" stroke-miterlimit="10" d="
		M18.945,59.8785c-0.4804-6.0396,0.0392-6.4239-0.4413-12.4635c0.7336-1.8542,1.6918-4.7683,2.059-8.4418
		c0.2878-2.8791-0.0143-3.9562-0.4118-10.2995c-0.5229-8.3456-0.2387-10.2904-1.0295-10.4961
		c-1.4192-0.3691-4.4446,5.3461-5.971,10.4961c-1.6205,5.4675-1.2354,13.5938-1.2354,13.5938L10.715,47.537"></path>
    <path fill="none" stroke="#000000" stroke-width="2" stroke-linecap="round" stroke-linejoin="round" stroke-miterlimit="10" d="
		M53.4019,60.9664c0.4804-6.0396-0.0392-7.5118,0.4413-13.5514c-0.7336-1.8542-1.6918-4.7683-2.059-8.4418
		c-0.2878-2.8791,0.0143-3.9562,0.4118-10.2995c0.5229-8.3456,0.2387-10.2904,1.0295-10.4961
		c1.4192-0.3691,4.4446,5.3461,5.971,10.4961c1.6205,5.4675,1.2354,13.5938,1.2354,13.5938l1.4909,6.5466"></path>
  </g>
</svg>