<svg id="emoji" viewBox="0 0 72 72" xmlns="http://www.w3.org/2000/svg">
  <g id="line">
    <path d="M41.8776,29.9583a2,2,0,1,1-2-2,2,2,0,0,1,2,2"/>
    <path d="M33.8776,29.9583a2,2,0,1,1-2-2,2,2,0,0,1,2,2"/>
    <path fill="none" stroke="#000" stroke-linecap="round" stroke-linejoin="round" stroke-width="2" d="M34.0046,37.9583h4"/>
    <path fill="none" stroke="#000" stroke-linecap="round" stroke-linejoin="round" stroke-width="2" d="M47.9372,48.4075c3.85,1.1778,7.0674,4.5469,7.0674,8.5508v3"/>
    <path fill="none" stroke="#000" stroke-linecap="round" stroke-linejoin="round" stroke-width="2" d="M17.0046,59.9583v-3c0-3.9756,3.1719-7.3242,6.9844-8.5244"/>
    <path fill="none" stroke="#000" stroke-linecap="round" stroke-linejoin="round" stroke-width="2" d="M42.56,38.4026l8-7a1.4142,1.4142,0,0,1,2,2l-5,6"/>
    <path fill="none" stroke="#000" stroke-linecap="round" stroke-linejoin="round" stroke-width="2" d="M29.4489,38.4026l-8-7a1.4142,1.4142,0,0,0-2,2l5,6"/>
    <line x1="36.0066" x2="32.0046" y1="54.9056" y2="59.9583" fill="none" stroke="#000" stroke-linecap="round" stroke-linejoin="round" stroke-width="2"/>
    <path fill="none" stroke="#000" stroke-linecap="round" stroke-linejoin="round" stroke-width="2" d="M35.9734,45.4935,41.56,39.4026l1-1,6-4.5556a1.4142,1.4142,0,0,1,2,2l-3,3.5556a39.3264,39.3264,0,0,1-2,6c-.6328,1.2647-3.5557,2-3.5557,2l-2.127,2"/>
    <line x1="22.0046" x2="32.0046" y1="59.9583" y2="49.4026" fill="none" stroke="#000" stroke-linecap="round" stroke-linejoin="round" stroke-width="2"/>
    <path fill="none" stroke="#000" stroke-linecap="round" stroke-linejoin="round" stroke-width="2" d="M50.0046,59.9583l-16-16.5557-3.5557-4-1-1-6-4.5556a1.4142,1.4142,0,0,0-2,2l3,3.5556a39.3264,39.3264,0,0,0,2,6c.6328,1.2647,3.5557,2,3.5557,2l2,2,8,10.5557"/>
    <path fill="none" stroke="#000" stroke-linecap="round" stroke-linejoin="round" stroke-width="2" d="M54.1623,35.9987a11.6,11.6,0,0,1-1.8842,10.4766"/>
    <path fill="none" stroke="#000" stroke-linecap="round" stroke-linejoin="round" stroke-width="2" d="M20.6218,28.0052c.0193-2.2543-.4114-4.4722.56-8.0865,1.48-5.5,7.2773-8.9658,13.709-8.9658,5.4,0,8,3,8,3A8.1321,8.1321,0,0,1,50.2957,21.99a30.7458,30.7458,0,0,0,.7942,6.4234"/>
    <path fill="none" stroke="#000" stroke-linecap="round" stroke-linejoin="round" stroke-width="2" d="M18.7108,46.6775c-2.6514-4.1711-1.8446-7.514-.5075-10.7705"/>
    <path fill="none" stroke="#000" stroke-linecap="round" stroke-linejoin="round" stroke-width="2" d="M46.8905,30.9529c0-5-2-8-6-12-4,4-16,9-16,11v1"/>
  </g>
</svg>
