<svg id="emoji" viewBox="0 0 72 72" version="1.1" xmlns="http://www.w3.org/2000/svg">
  <g id="line-supplement">
    <path id="xx" fill="none" stroke="#000000" stroke-linecap="round" stroke-linejoin="round" stroke-miterlimit="10" stroke-width="2" d="M15.1,47.5c0,0,14.4-2.1,49.4-1"/>
  </g>
  <g id="line">
    <circle cx="42.2" cy="54" r="2"/>
    <circle cx="55.3" cy="54" r="2"/>
    <line x1="4.4" x2="67.5" y1="56" y2="56" fill="none" stroke="#000000" stroke-linecap="round" stroke-linejoin="round" stroke-miterlimit="10" stroke-width="2"/>
    <path fill="none" stroke="#000000" stroke-linecap="round" stroke-linejoin="round" stroke-miterlimit="10" stroke-width="2" d="M52.6,26.7c0,0-13.7-1-23.8,5.6S12.6,44,12.6,44s-1.8,1.8-1.9,3.9c-0.2,3,6.9,3.9,6.9,3.9L33,52.9c0.3,0,0.7,0,1,0h34.5 c0,0-0.2-26.2,0-26.2C68.6,26.7,52.6,26.7,52.6,26.7z"/>
    <polyline fill="none" stroke="#000000" stroke-linecap="round" stroke-linejoin="round" stroke-miterlimit="10" stroke-width="2" points="27.8,38.1 30.8,41.2 64.5,41.2"/>
  </g>
</svg>
