<?xml version="1.0" encoding="utf-8"?>
<!-- Generator: Adobe Illustrator 21.1.0, SVG Export Plug-In . SVG Version: 6.00 Build 0)  -->
<svg version="1.1" id="emoji" xmlns="http://www.w3.org/2000/svg" xmlns:xlink="http://www.w3.org/1999/xlink" x="0px" y="0px"
	 viewBox="0 0 72 72" enable-background="new 0 0 72 72" xml:space="preserve">
<g id="_xD83D__xDE85_">
	
		<line fill="none" stroke="#000000" stroke-width="2" stroke-linecap="round" stroke-linejoin="round" stroke-miterlimit="10" x1="4.4" y1="56" x2="67.5" y2="56"/>
	<circle cx="42.2" cy="54" r="2"/>
	<circle cx="55.3" cy="54" r="2"/>
	<path fill="none" stroke="#000000" stroke-width="2" stroke-linecap="round" stroke-linejoin="round" stroke-miterlimit="10" d="
		M52.6,26.7c0,0-13.7-1-23.8,5.6S12.6,44,12.6,44s-1.8,1.8-1.9,3.9c-0.2,3,6.9,3.9,6.9,3.9L33,52.9c0.3,0,0.7,0,1,0h34.5
		c0,0-0.2-26.2,0-26.2H52.6z"/>
	<path fill="none" d="M27.8,38.1l3,3h34.7v-7c0-0.6-0.4-1-1-1h-19c0,0-8.6-0.2-18.1,4.1"/>
	
		<polyline fill="none" stroke="#000000" stroke-width="2" stroke-linecap="round" stroke-linejoin="round" stroke-miterlimit="10" points="
		27.8,38.1 30.8,41.2 64.5,41.2 	"/>
	<path fill="none" stroke="#000000" stroke-width="2" stroke-linecap="round" stroke-linejoin="round" stroke-miterlimit="10" d="
		M15.1,47.5c0,0,14.4-2.1,49.4-1"/>
</g>
</svg>
