<?xml version="1.0" encoding="utf-8"?>
<!-- Generator: Adobe Illustrator 21.1.0, SVG Export Plug-In . SVG Version: 6.00 Build 0)  -->
<svg version="1.1" id="emoji" xmlns="http://www.w3.org/2000/svg" xmlns:xlink="http://www.w3.org/1999/xlink" x="0px" y="0px"
	 viewBox="0 0 72 72" enable-background="new 0 0 72 72" xml:space="preserve">
<g id="_xD83D__xDE8C_">
	<path fill="none" stroke="#000000" stroke-width="2" stroke-linecap="round" stroke-linejoin="round" stroke-miterlimit="10" d="
		M16.9,53l-6.6,0c0,0-1.1,0-1.1-1.2s-0.1-3.6-0.1-3.6s0.7-9.5,2.6-10.6c1.6-1,46.5-0.7,53.1-0.6c0.5,0,0.9,0.3,0.9,0.8
		c0.2,1.3,0.7,4.1,0.7,6.3c0.1,3.1-0.1,8-0.1,8l-4.8,0.8"/>
	
		<line fill="none" stroke="#000000" stroke-width="2" stroke-linecap="round" stroke-linejoin="round" stroke-miterlimit="10" x1="49.3" y1="53.1" x2="29.2" y2="53"/>
	
		<polyline fill="none" stroke="#000000" stroke-width="2" stroke-linecap="round" stroke-linejoin="round" stroke-miterlimit="10" points="
		10.3,40.5 5.7,40.8 4.3,44.1 	"/>
	
		<circle fill="none" stroke="#000000" stroke-width="2" stroke-linecap="round" stroke-linejoin="round" stroke-miterlimit="10" cx="55.5" cy="53.3" r="3"/>
	
		<circle fill="none" stroke="#000000" stroke-width="2" stroke-linecap="round" stroke-linejoin="round" stroke-miterlimit="10" cx="23" cy="53.3" r="3"/>
	<path fill="none" stroke="#000000" stroke-width="2" stroke-linecap="round" stroke-linejoin="round" stroke-miterlimit="10" d="
		M44.5,43l18.1,0.2c0,0,0,0,0,0"/>
	<path fill="none" stroke="#000000" stroke-width="2" stroke-linecap="round" stroke-linejoin="round" stroke-miterlimit="10" d="
		M39.5,43L20,42.8c-3.7,2.5-7.7,3.5-7.7,3.5"/>
	<path fill="none" stroke="#000000" stroke-width="2" stroke-linecap="round" stroke-linejoin="round" stroke-miterlimit="10" d="
		M16.9,53l-6.6,0c0,0-1.1,0-1.1-1.2s-0.1-3.6-0.1-3.6s0.7-9.5,2.6-10.6c1.6-1,46.5-0.7,53.1-0.6c0.5,0,0.9,0.3,0.9,0.8
		c0.2,1.3,0.7,4.1,0.7,6.3c0.1,3.1-0.1,8-0.1,8"/>
	
		<rect x="39.5" y="40.3" fill="none" stroke="#000000" stroke-width="2" stroke-linecap="round" stroke-linejoin="round" stroke-miterlimit="10" width="5.1" height="12.7"/>
	
		<polyline fill="none" stroke="#000000" stroke-width="2" stroke-linecap="round" stroke-linejoin="round" stroke-miterlimit="10" points="
		10.2,50.7 12.7,50.7 13.8,49.3 	"/>
</g>
</svg>
