<svg id="emoji" xmlns="http://www.w3.org/2000/svg" viewBox="0 0 72 72">
  <g id="line">
    <path fill="none" stroke="#000000" stroke-width="2" stroke-linecap="round" stroke-linejoin="round" stroke-miterlimit="10" d="
		M7.7037,46.5833"></path>
    <rect x="31.4074" y="25.4404" fill="none" stroke="#000000" stroke-width="2" stroke-linecap="round" stroke-linejoin="round" stroke-miterlimit="10" width="4.1482" height="4.5232"></rect>
    <path fill="none" stroke="#000000" stroke-width="2" stroke-linecap="round" stroke-linejoin="round" stroke-miterlimit="10" d="
		M27.2963,31.732h-6.7407c-0.0205,0-0.0371-0.0165-0.0371-0.037v-6.3704c0-1.3295,1.0779-2.4074,2.4074-2.4074h2.2963
		c1.166,0,2.1111,0.9452,2.1111,2.1111v6.6667C27.3333,31.7155,27.3168,31.732,27.2963,31.732z"></path>
    <rect x="9.5556" y="18.695" fill="none" stroke="#000000" stroke-width="2" stroke-linecap="round" stroke-linejoin="round" stroke-miterlimit="10" width="3.1111" height="11.6296"></rect>
    <path fill="none" stroke="#000000" stroke-width="2" stroke-linecap="round" stroke-linejoin="round" stroke-miterlimit="10" d="
		M7.56,37.73v-6.78c0-0.55,0.45-1,1-1H45.5V18.1h20.72v12.75c0.01,0.03,0.01,0.07,0.01,0.1v6.6125"></path>
    <rect x="53.7037" y="14.9172" fill="none" stroke="#000000" stroke-width="2" stroke-linecap="round" stroke-linejoin="round" stroke-miterlimit="10" width="4.5926" height="3.1852"></rect>
    <line fill="none" stroke="#000000" stroke-width="2" stroke-linecap="round" stroke-linejoin="round" stroke-miterlimit="10" x1="64" y1="41.2135" x2="10.5" y2="41.2135"></line>
    <path fill="none" stroke="#000000" stroke-width="2" stroke-linecap="round" stroke-linejoin="round" stroke-miterlimit="10" d="
		M7.7037,44.5833v3.1087c0,0.5523,0.4477,1,1,1h6.2088"></path>
    <path fill="none" stroke="#000000" stroke-width="2" stroke-linecap="round" stroke-linejoin="round" stroke-miterlimit="10" d="
		M60.4028,48.692H64c0.5523,0,1-0.4477,1-1v-5.4785c0-0.5523-0.4477-1-1-1H8.7037c-0.5523,0-1,0.4477-1,1v0.4948"></path>
    <line fill="none" stroke="#000000" stroke-width="2" stroke-linecap="round" stroke-linejoin="round" stroke-miterlimit="10" x1="29.8241" y1="48.692" x2="32.9907" y2="48.692"></line>
    <path fill="none" stroke="#000000" stroke-width="2" stroke-linecap="round" stroke-linejoin="round" stroke-miterlimit="10" d="
		M66.8148,43.8802H5.1852C4.5306,43.8802,4,43.3496,4,42.695v-0.8148c0-0.6546,0.5306-1.1852,1.1852-1.1852h61.6296
		c0.6546,0,1.1852,0.5306,1.1852,1.1852v0.8148C68,43.3496,67.4694,43.8802,66.8148,43.8802z"></path>
    <circle fill="none" stroke="#000000" stroke-width="2" stroke-linecap="round" stroke-linejoin="round" stroke-miterlimit="10" cx="53.2962" cy="51" r="5.0001"></circle>
    <circle fill="none" stroke="#000000" stroke-width="2" stroke-linecap="round" stroke-linejoin="round" stroke-miterlimit="10" cx="40.273" cy="51" r="5.0001"></circle>
    <circle fill="none" stroke="#000000" stroke-width="2" stroke-linecap="round" stroke-linejoin="round" stroke-miterlimit="10" cx="22.3332" cy="51" r="5.0001"></circle>
    <path fill="#000000" d="M57.3333,29.9636h-8v-8.6342c0-0.5523,0.4477-1,1-1h7V29.9636z" stroke="none"></path>
    <polyline fill="#000000" stroke="#000000" stroke-width="2" stroke-linecap="round" stroke-linejoin="round" stroke-miterlimit="10" points="
		57.162,21.297 57.162,29.9636 50.2454,29.9636 	"></polyline>
  </g>
</svg>