<svg id="emoji" viewBox="0 0 72 72" version="1.1" xmlns="http://www.w3.org/2000/svg">
  <g id="line">
    <path d="M48.405,29.49c-3.2761,0-5.941-2.6641-5.941-5.9392s2.6649-5.9392,5.941-5.9392c3.2761,0,5.941,2.6641,5.941,5.9392 S51.6811,29.49,48.405,29.49z M48.405,19.5913c-2.1839,0-3.9607,1.7757-3.9607,3.9595c0,2.1837,1.7768,3.9595,3.9607,3.9595 c2.1838,0,3.9607-1.7758,3.9607-3.9595C52.3657,21.367,50.5888,19.5913,48.405,19.5913z"/>
    <path fill="none" stroke="#000000" stroke-linecap="round" stroke-linejoin="round" stroke-miterlimit="10" stroke-width="1.949" d="M20.653,45.063c-1.678,0.7083-3.2222,1.7475-4.5331,3.0508c-3.1581,3.1631-4.6517,7.5594-3.9703,11.687 c4.128,0.6762,8.5221-0.8196,11.683-3.9769c1.3043-1.3104,2.3446-2.8541,3.0537-4.5318"/>
    <path fill="none" stroke="#000000" stroke-linecap="round" stroke-linejoin="round" stroke-miterlimit="10" stroke-width="1.949" d="M14.923,35.749c-0.69,0.65-1.3472,1.3303-1.9691,2.0383c3.4682,0.9313,6.7846,2.521,9.7604,4.6784 c0.2264-0.414,0.5104-0.7939,0.8435-1.1281c0.6949-0.6935,1.5791-1.1665,2.5417-1.3598c0.2106-4.0507,1.3364-8.0899,3.293-11.814 c0.0019-0.0037,0.0037-0.0074,0.0056-0.0112c-2.645,0.5687-5.2188,1.4928-7.6405,2.7434 C19.2616,32.199,16.9577,33.8349,14.923,35.749L14.923,35.749z"/>
    <path fill="none" stroke="#000000" stroke-linecap="round" stroke-linejoin="round" stroke-miterlimit="10" stroke-width="1.949" d="M31.973,45.839c-0.1919,0.966-0.6657,1.8536-1.3616,2.5507c-0.3389,0.3373-0.7246,0.6241-1.1452,0.8516 c2.1626,2.9716,3.7579,6.2847,4.6952,9.7506c0.7092-0.6216,1.3906-1.2786,2.0417-1.9685c1.9136-2.0343,3.5491-4.3376,4.8516-6.8326 c1.2507-2.4201,2.1751-4.9922,2.7442-7.6354c-3.7285,1.9544-7.7719,3.0771-11.826,3.2837L31.973,45.839z"/>
    <path fill="none" stroke="#000000" stroke-linecap="round" stroke-linejoin="round" stroke-miterlimit="10" stroke-width="1.949" d="M31.83,43.345c0.2696,0.8863,0.2506,1.6919,0.1371,2.5245c7.0759-0.3611,13.993-3.5031,19.243-8.7412 c6.7106-6.7215,9.8836-16.063,8.4351-24.834c-8.7712-1.4365-18.108,1.742-24.823,8.4508 c-5.2322,5.2509-8.3679,12.164-8.7242,19.234c0.9413-0.1907,1.8984-0.0942,2.7693,0.2387"/>
    <path fill="none" stroke="#000000" stroke-linecap="round" stroke-linejoin="round" stroke-miterlimit="10" stroke-width="1.949" d="M37.072,34.196l-0.0002,0c-2.4156,1.2183-4.6724,2.7626-6.6996,4.5844c-2.0849,1.8911-3.9,4.0556-5.3844,6.4211 c-0.5039,0.8031-0.9684,1.6273-1.3917,2.4694"/>
  </g>
</svg>
