<svg id="emoji" viewBox="0 0 72 72" xmlns="http://www.w3.org/2000/svg">
  <g id="line">
    <path fill="none" stroke="#000000" stroke-linecap="round" stroke-linejoin="round" stroke-miterlimit="10" stroke-width="2" d="M61,52.1363l3.5625-0.0738H67L66.875,47.5h-0.6875c0,0,0.625-17.625-1.75-18.5c-2.375-0.875-27.6875-0.5625-30.8125,0 S27,28.625,15.75,39.9375L8,42.48c0,0-1.5,0.8325-1.5625,5.2075c0,0-0.875,0.25-0.75,1.5 c0.1164,1.1644-0.4721,3.4134,4.7511,3.6655"/>
    <line x1="23.0625" x2="48.4378" y1="52.75" y2="52.3072" fill="none" stroke="#000000" stroke-linecap="round" stroke-linejoin="round" stroke-miterlimit="10" stroke-width="2"/>
    <circle cx="16.4803" cy="52.2917" r="3" fill="none" stroke="#000000" stroke-linecap="round" stroke-linejoin="round" stroke-miterlimit="10" stroke-width="2"/>
    <circle cx="55" cy="52.2917" r="3" fill="none" stroke="#000000" stroke-linecap="round" stroke-linejoin="round" stroke-miterlimit="10" stroke-width="2"/>
    <path fill="none" stroke="#000000" stroke-linecap="round" stroke-linejoin="round" stroke-miterlimit="10" stroke-width="2" d="M13.2904,44.4762c0,0-1.9647,1.6588-3.5765,1.9176"/>
    <path fill="none" stroke="#000000" stroke-linecap="round" stroke-linejoin="round" stroke-miterlimit="10" stroke-width="2" d="M19.875,41.48c0.375,0.02,9.3125-0.105,9.9375-1.605s0.625-6.5,0.625-6.5"/>
    <path fill="none" stroke="#000000" stroke-linecap="round" stroke-linejoin="round" stroke-miterlimit="10" stroke-width="2" d="M35.0625,40.6539h21.7707c0.2292,0,0.4515-0.0788,0.6296-0.2231l2.1667-1.7556C59.8639,38.4853,60,38.1998,60,37.8982v-4.9607"/>
    <polyline fill="none" stroke="#000000" stroke-linecap="round" stroke-linejoin="round" stroke-miterlimit="10" stroke-width="2" points="61.6577,42.849 61.6577,47.5988 63.1161,48.0481"/>
  </g>
</svg>
