<?xml version="1.0" encoding="utf-8"?>
<!-- Generator: Adobe Illustrator 19.1.0, SVG Export Plug-In . SVG Version: 6.00 Build 0)  -->
<svg version="1.1" id="emoji" xmlns="http://www.w3.org/2000/svg" xmlns:xlink="http://www.w3.org/1999/xlink" x="0px" y="0px"
	 viewBox="0 0 72 72" enable-background="new 0 0 72 72" xml:space="preserve">
<g id="_xD83D__xDE9C_">
	
		<polyline fill="none" stroke="#000000" stroke-width="2" stroke-linecap="round" stroke-linejoin="round" stroke-miterlimit="10" points="
		29.9,31.5 29.9,28.4 28.1,28.4 26.7,28.4 26.7,32 	"/>
	<path fill="none" d="M51.1,20.3c0,0-9.8-1.2-16.2,0.6l-0.5,10.6c0,0-18.8,1.6-22.6,5.6l1.2,13.5h40.2c0,0,1.2-10.5,0.5-19.4
		C53.5,26.6,52.1,22.7,51.1,20.3z M39.8,37.6l-2.7,0L37.3,25c5.4-1.9,11.6,0.1,11.6,0.1l0.1,4.9C41.2,32,39.8,37.6,39.8,37.6z"/>
	<path fill="none" d="M11.5,42.5c0,0,16.6-2.6,31-3c0,0,4-4.2,6-4.9c1.9-0.7,4.9-1.2,5.3-0.9c0.4,0.3,0.2,2.7,0.3,5.9l-0.7,12
		l-41.1-0.2L11.5,42.5z"/>
	<path fill="none" stroke="#000000" stroke-width="2" stroke-linecap="round" stroke-linejoin="round" stroke-miterlimit="10" d="
		M52.8,30.5c-0.3-3.7-0.9-8.1-1.7-10.2c0,0-10.8-1.2-17.2,0.6l-0.5,10.6c0,0-16.6,1.5-21.2,5.2c-0.3,0.2-0.4,0.5-0.4,0.9l0.7,6.5"/>
	
		<line fill="none" stroke="#000000" stroke-width="2" stroke-linecap="round" stroke-linejoin="round" stroke-miterlimit="10" x1="22.5" y1="50.5" x2="40.4" y2="50.5"/>
	<path stroke="#000000" stroke-width="2" stroke-linecap="round" stroke-linejoin="round" stroke-miterlimit="10" d="M53,36.6
		c-5.5,0-10,4.5-10,10c0,5.5,4.5,10,10,10c5.5,0,10-4.5,10-10C63,41.1,58.5,36.6,53,36.6z M53,51.6c-2.8,0-5-2.2-5-5s2.2-5,5-5
		c2.8,0,5,2.2,5,5S55.8,51.6,53,51.6z"/>
	<path fill="none" stroke="#000000" stroke-width="2" stroke-linecap="round" stroke-linejoin="round" stroke-miterlimit="10" d="
		M40.4,43.5c1.5-6.9,8.4-11.3,15.4-9.8c2.8,0.6,5.2,2.1,6.9,4.1"/>
	<path stroke="#000000" stroke-width="2" stroke-linecap="round" stroke-linejoin="round" stroke-miterlimit="10" d="M15,46.6
		c-2.8,0-5,2.2-5,5s2.2,5,5,5c2.8,0,5-2.2,5-5S17.8,46.6,15,46.6z M15,54.6c-1.7,0-3-1.3-3-3c0-1.7,1.3-3,3-3c1.6,0,3,1.3,3,3
		C18,53.2,16.7,54.6,15,54.6z"/>
	<path fill="none" stroke="#000000" stroke-width="2" stroke-linecap="round" stroke-linejoin="round" stroke-miterlimit="10" d="
		M49,23.7c0,0-5.9-0.9-11.7,0.3L37,37.4h2.5c0,0,2.9-4.6,9.5-6.8L49,23.7z"/>
	<path fill="none" stroke="#000000" stroke-width="2" stroke-linecap="round" stroke-linejoin="round" stroke-miterlimit="10" d="
		M28.1,28.4c0,0,0.3-3.6-1.3-3.6"/>
	<path fill="none" stroke="#000000" stroke-width="2" stroke-linecap="round" stroke-linejoin="round" stroke-miterlimit="10" d="
		M37,37.3h2.7c0,0,2.7-4.9,9.4-6.7"/>
	<path fill="none" d="M14.1,41.1h1.8c1,0,1.8-0.5,1.8-1V38c-0.1,0.2,0.3-1-0.6-1l-1.5,0.3c-0.4,0.1-0.7,0.4-0.8,0.8L14.1,41.1z"/>
	<path fill="none" stroke="#000000" stroke-width="2" stroke-linecap="round" stroke-linejoin="round" stroke-miterlimit="10" d="
		M17,38v2.1c0,0.5-0.5,1-1,1h-1"/>
</g>
</svg>
