<?xml version="1.0" encoding="utf-8"?>
<!-- Generator: Adobe Illustrator 19.1.0, SVG Export Plug-In . SVG Version: 6.00 Build 0)  -->
<svg version="1.1" id="emoji" xmlns="http://www.w3.org/2000/svg" xmlns:xlink="http://www.w3.org/1999/xlink" x="0px" y="0px"
	 viewBox="0 0 72 72" enable-background="new 0 0 72 72" xml:space="preserve">
<g id="_xD83D__xDE99_">
	<path fill="none" stroke="#000000" stroke-width="2" stroke-linecap="round" stroke-linejoin="round" stroke-miterlimit="10" d="
		M63.1,50h1c0.6,0,1-0.4,1-1v-2c0-0.1-0.1-0.2-0.2-0.2l-1.7-0.2c0-1.7,0.5-13.9-0.9-19.4c-0.1-0.4-0.5-0.7-0.9-0.7l-26.8,0
		c-0.4,0-0.7,0.2-0.9,0.5l-4.4,9.1l-16.7,1.6c-0.3,0-0.6,0.2-0.8,0.5l-3.1,6.4H7.5c-0.6,0-1,0.4-1,1v1.6c0,0.6,0.4,1,1,1h1.1"/>
	<path fill="none" stroke="#000000" stroke-width="2" stroke-linecap="round" stroke-linejoin="round" stroke-miterlimit="10" d="
		M23.7,48.2h0.7l1.6,2.2c0.2,0.3,0.5,0.4,0.8,0.4h19.7"/>
	
		<circle fill="none" stroke="#000000" stroke-width="2" stroke-linecap="round" stroke-linejoin="round" cx="16.4" cy="50.7" r="5"/>
	
		<circle fill="none" stroke="#000000" stroke-width="2" stroke-linecap="round" stroke-linejoin="round" cx="54.5" cy="50.7" r="5"/>
	
		<polyline fill="none" stroke="#000000" stroke-width="2" stroke-linecap="round" stroke-linejoin="round" stroke-miterlimit="10" points="
		34.2,36.5 46,36.5 46,30.2 	"/>
	
		<polyline fill="none" stroke="#000000" stroke-width="2" stroke-linecap="round" stroke-linejoin="round" stroke-miterlimit="10" points="
		47.6,45.7 50.7,42.5 59.5,42.5 	"/>
	
		<polyline fill="none" stroke="#000000" stroke-width="2" stroke-linecap="round" stroke-linejoin="round" stroke-miterlimit="10" points="
		14.4,41.7 21.6,41.7 23.5,44.6 	"/>
	<path fill="none" stroke="#000000" stroke-width="2" stroke-linecap="round" stroke-linejoin="round" stroke-miterlimit="10" d="
		M63.5,32c0.1,0,1.4,0.1,1.4,0.1s1.7,1,1.6,5.8c-0.1,4.8-1.7,5.7-1.7,5.7H64"/>
</g>
</svg>
