<svg id="emoji" viewBox="0 0 72 72" xmlns="http://www.w3.org/2000/svg">
  <g id="line">
    <path fill="none" stroke="#000000" stroke-linecap="round" stroke-linejoin="round" stroke-miterlimit="10" stroke-width="2" d="M61.5,50.75H64c0.5523,0,1-0.4477,1-1V28.6667c0-0.5523-0.4477-1-1-1H28.3333c0,0-5.5833,0.4166-15.6666,11.5416l-4.5,3.125 c0,0-1.1667,0.7292-1.1667,3.25C7,48.5,7,50.25,7,50.25h0.9167"/>
    <line x1="22.75" x2="45.5833" y1="50.75" y2="50.75" fill="none" stroke="#000000" stroke-linecap="round" stroke-linejoin="round" stroke-miterlimit="10" stroke-width="2"/>
    <path fill="#000000" stroke="none" d="M53.33,45.75c-2.76,0-5,2.24-5,5s2.24,5,5,5c2.76,0,5-2.24,5-5S56.09,45.75,53.33,45.75z M53.33,53.75c-1.66,0-3-1.34-3-3 s1.34-3,3-3c1.66,0,3,1.34,3,3S54.99,53.75,53.33,53.75z"/>
    <path fill="#000000" stroke="none" d="M20.39,50.52c-0.12-2.65-2.31-4.77-4.99-4.77c-2.61,0-4.76,2.01-4.97,4.57c-0.02,0.14-0.03,0.28-0.03,0.43 c0,2.76,2.24,5,5,5s5-2.24,5-5C20.4,50.67,20.4,50.59,20.39,50.52z M15.4,53.75c-1.66,0-3-1.34-3-3c0-0.13,0.01-0.26,0.03-0.39 c0.18-1.47,1.44-2.61,2.97-2.61c1.57,0,2.85,1.2,2.98,2.73c0.02,0.09,0.02,0.18,0.02,0.27C18.4,52.41,17.06,53.75,15.4,53.75z"/>
    <path fill="none" stroke="#000000" stroke-linecap="round" stroke-linejoin="round" stroke-miterlimit="10" stroke-width="2" d="M26.75,33.8333v2.1459c0,1.6569-1.3431,3-3,3H18"/>
    <line x1="32.1667" x2="32.1667" y1="27.6667" y2="50.75" fill="none" stroke="#000000" stroke-linecap="round" stroke-linejoin="round" stroke-miterlimit="10" stroke-width="2"/>
  </g>
</svg>
