<?xml version="1.0" encoding="utf-8"?>
<!-- Generator: Adobe Illustrator 19.1.0, SVG Export Plug-In . SVG Version: 6.00 Build 0)  -->
<svg version="1.1" id="emoji" xmlns="http://www.w3.org/2000/svg" xmlns:xlink="http://www.w3.org/1999/xlink" x="0px" y="0px"
	 viewBox="0 0 72 72" enable-background="new 0 0 72 72" xml:space="preserve">
<g id="_xD83D__xDE9A_">
	<path fill="none" stroke="#000000" stroke-width="2" stroke-linecap="round" stroke-linejoin="round" stroke-miterlimit="10" d="
		M21.8,53c8.3-0.1,17.4-0.3,25.3-0.4"/>
	<circle fill="none" stroke="#000000" stroke-width="2" stroke-miterlimit="10" cx="16.1" cy="53" r="3"/>
	<circle fill="none" stroke="#000000" stroke-width="2" stroke-miterlimit="10" cx="54.2" cy="53" r="3"/>
	
		<polyline fill="none" stroke="#000000" stroke-width="2" stroke-linecap="round" stroke-linejoin="round" stroke-miterlimit="10" points="
		32.9,36.4 32.9,42.1 19.5,43 	"/>
	
		<line fill="none" stroke="#000000" stroke-width="2" stroke-linecap="round" stroke-linejoin="round" stroke-miterlimit="10" x1="23.1" y1="49.4" x2="48.1" y2="48.4"/>
	<path fill="none" stroke="#000000" stroke-width="2" stroke-linecap="round" stroke-linejoin="round" stroke-miterlimit="10" d="
		M12.5,46c0,0-2,1.7-3.6,1.9"/>
	<path fill="none" stroke="#000000" stroke-width="2" stroke-linecap="round" stroke-linejoin="round" stroke-miterlimit="10" d="
		M60.3,52.3c0.6,0,0.9,0,0.9,0s2,0.1,2.3-1.2c0-0.2,0.3-13.8-1.5-17.6c-0.1-0.3-0.4-0.5-0.8-0.6c-3-0.4-19.4-1.2-32.3,0.3
		c0,0-4.6,1.2-12.8,6.9c0,0-5.5,2.2-7.9,3.9S6,48.8,6,48.8s0.2,3,0.8,3.9c0.1,0.1,0.4,0.2,2.6,0.3"/>
</g>
</svg>
