<svg id="emoji" viewBox="0 0 72 72" xmlns="http://www.w3.org/2000/svg">
  <g id="line">
    <line x1="4" x2="68" y1="56" y2="56" fill="none" stroke="#000" stroke-linecap="round" stroke-linejoin="round" stroke-width="2"/>
    <polyline fill="none" stroke="#000" stroke-linecap="round" stroke-linejoin="round" stroke-width="2" points="68 22 50 9 29 24 21 16 4 32"/>
    <path fill="none" stroke="#000" stroke-linecap="round" stroke-miterlimit="10" stroke-width="2.0737" d="m23.71,50.6463h-.82c-.49-.0014-.887-.3983-.8884-.8883v-20.9344c.0031-1.0462.8505-1.8936,1.8967-1.8967h41.4847c1.0464.0029,1.8939.8503,1.897,1.8967v20.9347c-.0014.4898-.3982.8866-.888.888h-.8291"/>
    <line x1="52.532" x2="36.4059" y1="50.6463" y2="50.6463" fill="none" stroke="#000" stroke-linecap="round" stroke-miterlimit="10" stroke-width="2.0737"/>
    <path fill="none" stroke="#000" stroke-linecap="round" stroke-miterlimit="10" stroke-width="2.0737" d="m34.31,51.8984c.0114,2.3441-1.8796,4.2537-4.2237,4.2652-2.3441.0114-4.2537-1.8796-4.2652-4.2237,0-.0138,0-.0276,0-.0414"/>
    <path fill="none" stroke="#000" stroke-linecap="round" stroke-miterlimit="10" stroke-width="2.0737" d="m63.2766,51.6463c0,2.3442-1.9003,4.2445-4.2445,4.2445s-4.2445-1.9003-4.2445-4.2445"/>
    <rect x="34.9185" y="32.7804" rx="1.0578" ry="1.0578" width="6.3408" height="10.6464" fill="none" stroke="#000" stroke-linecap="round" stroke-miterlimit="10" stroke-width="2.0737"/>
    <rect x="21.9628" y="32.7804" rx="1.0578" ry="1.0578" width="6.3408" height="10.6464" fill="none" stroke="#000" stroke-linecap="round" stroke-miterlimit="10" stroke-width="2.0737"/>
    <rect x="47.7568" y="32.8587" rx="1.0578" ry="1.0578" width="6.3408" height="10.6464" fill="none" stroke="#000" stroke-linecap="round" stroke-miterlimit="10" stroke-width="2.0737"/>
    <rect x="60.9389" y="32.8587" rx="1.0578" ry="1.0578" width="6.3408" height="10.6464" fill="none" stroke="#000" stroke-linecap="round" stroke-miterlimit="10" stroke-width="2.0737"/>
    <line x1="20.9448" x2="68.3129" y1="47.5655" y2="47.5655" fill="none" stroke="#000" stroke-linecap="round" stroke-miterlimit="10" stroke-width="1.9699"/>
  </g>
</svg>
