<svg id="emoji" viewBox="0 0 72 72" xmlns="http://www.w3.org/2000/svg">
  <g id="line">
    <circle cx="16.3333" cy="53.25" r="3" fill="none" stroke="#000000" stroke-miterlimit="10" stroke-width="2"/>
    <polyline fill="none" stroke="#000000" stroke-linecap="round" stroke-linejoin="round" stroke-miterlimit="10" stroke-width="2" points="10.75,41 15.8333,41 15.8333,35.0833"/>
    <circle cx="57.4167" cy="53.25" r="3" fill="none" stroke="#000000" stroke-miterlimit="10" stroke-width="2"/>
    <circle cx="48.4167" cy="53.25" r="3" fill="none" stroke="#000000" stroke-miterlimit="10" stroke-width="2"/>
    <path fill="none" stroke="#000000" stroke-linecap="round" stroke-linejoin="round" stroke-miterlimit="10" stroke-width="2" d="M10.3401,51.88H5.86c-0.5499,0-0.99-0.44-1-0.99l-0.0859-6.277c-0.0056-0.4754,0.1011-0.944,0.3129-1.3697 c0.2638-0.5303,0.6003-1.2013,0.6404-1.2545c0.0577-0.0765,0.8983-2.4368,2.3327-7.6088c1.4499-5.23,10.53-5.92,13.6098-6 c0.5601-0.01,1.02,0.44,1.02,1v21.5c0,0.32-0.0024,0.745-0.0024,0.745"/>
    <path fill="none" stroke="#000000" stroke-linecap="round" stroke-linejoin="round" stroke-miterlimit="10" stroke-width="2" d="M42.625,51.19H26.1899V28.31c0-0.55,0.4501-1,1-1H66.25c0.55,0,1,0.45,1,1v21.88c0,0.55-0.45,1-1,1h-3.11"/>
  </g>
</svg>
