<?xml version="1.0" encoding="utf-8"?>
<!-- Generator: Adobe Illustrator 21.1.0, SVG Export Plug-In . SVG Version: 6.00 Build 0)  -->
<svg version="1.1" id="emoji" xmlns="http://www.w3.org/2000/svg" xmlns:xlink="http://www.w3.org/1999/xlink" x="0px" y="0px"
	 viewBox="0 0 72 72" enable-background="new 0 0 72 72" xml:space="preserve">
<g id="_xD83D__xDE91__xFE0F__1_">
	<path fill="none" stroke="#000000" stroke-width="2" stroke-linecap="round" stroke-linejoin="round" stroke-miterlimit="10" d="
		M61.5,50.8H64c0.6,0,1-0.4,1-1V28.7c0-0.6-0.4-1-1-1H28.3c0,0-5.6,0.4-15.7,11.5l-4.5,3.1c0,0-1.2,0.7-1.2,3.2c0,2.9,0,4.7,0,4.7
		h0.9"/>
	
		<line fill="none" stroke="#000000" stroke-width="2" stroke-linecap="round" stroke-linejoin="round" stroke-miterlimit="10" x1="22.8" y1="50.8" x2="45.6" y2="50.8"/>
	<path d="M53.3,45.8c-2.8,0-5,2.2-5,5s2.2,5,5,5c2.8,0,5-2.2,5-5S56.1,45.8,53.3,45.8z M53.3,53.8c-1.7,0-3-1.3-3-3s1.3-3,3-3
		c1.7,0,3,1.3,3,3S55,53.8,53.3,53.8z"/>
	<path d="M20.4,50.5c-0.1-2.7-2.3-4.8-5-4.8c-2.6,0-4.8,2-5,4.6c0,0.1,0,0.3,0,0.4c0,2.8,2.2,5,5,5s5-2.2,5-5
		C20.4,50.7,20.4,50.6,20.4,50.5z M15.4,53.8c-1.7,0-3-1.3-3-3c0-0.1,0-0.3,0-0.4c0.2-1.5,1.4-2.6,3-2.6c1.6,0,2.9,1.2,3,2.7
		c0,0.1,0,0.2,0,0.3C18.4,52.4,17.1,53.8,15.4,53.8z"/>
	
		<line fill="none" stroke="#000000" stroke-width="2" stroke-linecap="round" stroke-linejoin="round" stroke-miterlimit="10" x1="57.3" y1="33.2" x2="57.3" y2="40.7"/>
	
		<line fill="none" stroke="#000000" stroke-width="2" stroke-linecap="round" stroke-linejoin="round" stroke-miterlimit="10" x1="61" y1="37" x2="53.6" y2="37"/>
	<path fill="none" stroke="#000000" stroke-width="2" stroke-linecap="round" stroke-linejoin="round" stroke-miterlimit="10" d="
		M26.8,33.8V36c0,1.7-1.3,3-3,3H18"/>
	
		<line fill="none" stroke="#000000" stroke-width="2" stroke-linecap="round" stroke-linejoin="round" stroke-miterlimit="10" x1="32.2" y1="27.7" x2="32.2" y2="50.8"/>
</g>
</svg>
