<?xml version="1.0" encoding="utf-8"?>
<!-- Generator: Adobe Illustrator 19.1.0, SVG Export Plug-In . SVG Version: 6.00 Build 0)  -->
<svg version="1.1" id="emoji" xmlns="http://www.w3.org/2000/svg" xmlns:xlink="http://www.w3.org/1999/xlink" x="0px" y="0px"
	 viewBox="0 0 72 72" enable-background="new 0 0 72 72" xml:space="preserve">
<g id="_xD83D__xDE9B_">
	<path fill="none" stroke="#000000" stroke-miterlimit="10" d="M66.2,27.3c0.6,0,1,0.5,1,1v21.9c0,0.6-0.4,1-1,1"/>
	<path fill="none" stroke="#000000" stroke-width="2" stroke-linecap="round" stroke-linejoin="round" stroke-miterlimit="10" d="
		M66.2,27.3c0.6,0,1,0.5,1,1v21.9c0,0.6-0.4,1-1,1"/>
	<path fill="none" stroke="#000000" stroke-width="2" stroke-miterlimit="10" d="M19.3,53.2c0,1.7-1.3,3-3,3c-1.7,0-3-1.3-3-3
		s1.3-3,3-3C18,50.2,19.3,51.6,19.3,53.2z"/>
	
		<polyline fill="none" stroke="#000000" stroke-width="2" stroke-linecap="round" stroke-linejoin="round" stroke-miterlimit="10" points="
		10.8,41 15.8,41 15.8,35.1 	"/>
	<path fill="none" stroke="#000000" stroke-width="2" stroke-miterlimit="10" d="M60.4,53.2c0,1.7-1.3,3-3,3c-1.7,0-3-1.3-3-3
		s1.3-3,3-3C59.1,50.2,60.4,51.6,60.4,53.2z"/>
	<path fill="none" stroke="#000000" stroke-width="2" stroke-miterlimit="10" d="M51.4,53.2c0,1.7-1.3,3-3,3c-1.7,0-3-1.3-3-3
		s1.3-3,3-3C50.1,50.2,51.4,51.6,51.4,53.2z"/>
	<path fill="none" stroke="#000000" stroke-width="2" stroke-linecap="round" stroke-linejoin="round" stroke-miterlimit="10" d="
		M10.3,51.9H5.9c-0.5,0-1-0.4-1-1l-0.1-6.3c0-0.5,0.1-0.9,0.3-1.4C5.4,42.7,5.7,42,5.7,42c0.1-0.1,0.9-2.4,2.3-7.6
		c1.4-5.2,10.5-5.9,13.6-6c0.6,0,1,0.4,1,1v21.5c0,0.3,0,0.7,0,0.7"/>
	<path fill="none" stroke="#000000" stroke-width="2" stroke-linecap="round" stroke-linejoin="round" stroke-miterlimit="10" d="
		M42.6,51.2H26.2V28.3c0-0.5,0.5-1,1-1h39.1c0.6,0,1,0.5,1,1v21.9c0,0.6-0.4,1-1,1h-3.1"/>
</g>
</svg>
