<svg id="emoji" viewBox="0 0 72 72" version="1.1" xmlns="http://www.w3.org/2000/svg">
  <g id="line">
    <path fill="none" stroke="#000000" stroke-linecap="round" stroke-linejoin="round" stroke-width="2" d="M8.1,51.2"/>
    <path fill="none" stroke="#000000" stroke-linecap="round" stroke-linejoin="round" stroke-miterlimit="10" stroke-width="2" d="M34.9,29.2c0,0-0.1-2.1,2.4-2.2c2.4-0.1,2.4,2.2,2.4,2.2"/>
    <line x1="47.6" x2="27" y1="50.8" y2="51.2" fill="none" stroke="#000000" stroke-linecap="round" stroke-linejoin="round" stroke-width="2"/>
    <path fill="none" stroke="#000000" stroke-linecap="round" stroke-linejoin="round" stroke-width="2" d="M8.1,51.2 c-0.9-0.2-1.7-0.5-1.8-1c-0.1-1-0.3-3.8-0.3-5.1c0-0.5,0.1-1.1,0.4-1.5c1.1-2,4.8-6.8,14.9-6.4l10.3-6.9c0.5-0.3,1.1-0.5,1.6-0.5 l19.6-0.1c0.3,0,0.6,0,0.9,0.1c2.2,0.6,11.7,4,10.4,12.6l1.1,0.6c0.5,0.2,0.9,0.7,1,1.2c0.4,1.4,0.3,2.9-0.2,4.3"/>
    <polyline fill="none" stroke="#000000" stroke-linecap="round" stroke-linejoin="round" stroke-width="2" points="24.9,39.7 55.1,39.5 55.1,35"/>
    <circle cx="17.3" cy="50.2" r="5" fill="none" stroke="#000000" stroke-linecap="round" stroke-linejoin="round" stroke-width="2"/>
    <circle cx="57.1" cy="50.2" r="5" fill="none" stroke="#000000" stroke-linecap="round" stroke-linejoin="round" stroke-width="2"/>
    <polyline fill="none" stroke="#000000" stroke-linecap="round" stroke-linejoin="round" stroke-width="2" points="12.3,42.7 10.5,44.9 6.8,44.8"/>
    <line x1="24.1" x2="50.1" y1="43.2" y2="43.2" fill="none" stroke="#000000" stroke-linecap="round" stroke-linejoin="round" stroke-miterlimit="10" stroke-width="2"/>
  </g>
</svg>
