<?xml version="1.0" encoding="utf-8"?>
<!-- Generator: Adobe Illustrator 21.1.0, SVG Export Plug-In . SVG Version: 6.00 Build 0)  -->
<svg version="1.1" id="Ebene_3" xmlns="http://www.w3.org/2000/svg" xmlns:xlink="http://www.w3.org/1999/xlink" x="0px" y="0px"
	 viewBox="0 0 72 72" enable-background="new 0 0 72 72" xml:space="preserve">
<g id="_xD83D__xDEA4_">
	<g>
		
			<path fill="none" stroke="#000000" stroke-width="1.8603" stroke-linecap="round" stroke-linejoin="round" stroke-miterlimit="10" d="
			M22.7,49.8c-3.4-0.4-3.7-0.7-3.7-0.7S6.6,43.5,6.8,40.4c0.2-2.8,15.9-3.2,18.5-3.2c0.2,0,0.4,0,0.4,0l19.1,2.4l1,0.1L56.3,41
			c0.1,0,0.1,0,0.1,0.1l5,3.3l1.9,0.5c0.2,0,0.3,0.2,0.3,0.5l-0.1,1.5c0,0.1-0.1,0.2-0.1,0.3l-0.2,0.2"/>
		
			<path fill="none" stroke="#000000" stroke-width="1.8603" stroke-linecap="round" stroke-linejoin="round" stroke-miterlimit="10" d="
			M45.7,39.7c0,0-6.8-5.4-15-6.2c-0.1,0-0.2,0-0.2,0.1l-5.1,3.7L45.7,39.7z"/>
		
			<path fill="none" stroke="#000000" stroke-width="1.8603" stroke-linecap="round" stroke-linejoin="round" stroke-miterlimit="10" d="
			M13.9,41c0,0,25,2.4,42.4,5.4"/>
	</g>
	<path fill="none" d="M68,47v22H4V47h1c3,0,9,3,15,3s10-3,16-3s11,3,16,3s7-3,15-3H68z"/>
	<polyline fill="none" points="68,39 68,55 4,55 4,39 	"/>
	<path fill="none" stroke="#000100" stroke-width="2" stroke-linecap="round" stroke-linejoin="round" stroke-miterlimit="10" d="
		M5,47c3,0,9,3,15,3s10-3,16-3s11,3,16,3s7-3,15-3"/>
</g>
</svg>
