<svg id="emoji" viewBox="0 0 72 72" version="1.1" xmlns="http://www.w3.org/2000/svg">
  <g id="line">
    <path fill="none" stroke="#000000" stroke-linecap="round" stroke-linejoin="round" stroke-miterlimit="10" stroke-width="2" d="M63.146,11.5501V5.8734C63.146,5.391,63.4699,5,63.8695,5h2.261c0.3996,0,0.7235,0.391,0.7235,0.8734v5.6767H63.146z"/>
    <line x1="53.7229" x2="64.3773" y1="16.3536" y2="16.3536" fill="none" stroke="#000000" stroke-linecap="round" stroke-linejoin="round" stroke-miterlimit="10" stroke-width="2"/>
    <line x1="51.5349" x2="64.3773" y1="20.4474" y2="20.4474" fill="none" stroke="#000000" stroke-linecap="round" stroke-linejoin="round" stroke-miterlimit="10" stroke-width="2"/>
    <path fill="none" stroke="#000000" stroke-linecap="round" stroke-linejoin="round" stroke-miterlimit="10" stroke-width="2" d="M32,29.3608c0,0,8.8829,5.804,12.0224,18.8735"/>
    <line x1="53.7229" x2="64.3773" y1="16.3536" y2="16.3536" fill="none" stroke="#000000" stroke-linecap="round" stroke-linejoin="round" stroke-miterlimit="10" stroke-width="2"/>
    <line x1="51.5349" x2="64.3773" y1="20.4474" y2="20.4474" fill="none" stroke="#000000" stroke-linecap="round" stroke-linejoin="round" stroke-miterlimit="10" stroke-width="2"/>
    <path fill="none" stroke="#000000" stroke-linecap="round" stroke-linejoin="round" stroke-miterlimit="10" stroke-width="2" d="M67,25.625H32.9622C32.4308,25.625,32,26.016,32,26.4984v2.4004h35"/>
    <path fill="none" stroke="#000000" stroke-linecap="round" stroke-linejoin="round" stroke-miterlimit="10" stroke-width="2" d="M66,25.625H45.7416l7.1518-13.5663c0.1277-0.31,0.4055-0.5086,0.7113-0.5086H67"/>
    <line x1="53.7229" x2="64.3773" y1="16.3536" y2="16.3536" fill="none" stroke="#000000" stroke-linecap="round" stroke-linejoin="round" stroke-miterlimit="10" stroke-width="2"/>
    <line x1="51.5349" x2="64.3773" y1="20.4474" y2="20.4474" fill="none" stroke="#000000" stroke-linecap="round" stroke-linejoin="round" stroke-miterlimit="10" stroke-width="2"/>
    <line x1="53.7229" x2="64.3773" y1="16.3536" y2="16.3536" fill="none" stroke="#000000" stroke-linecap="round" stroke-linejoin="round" stroke-miterlimit="10" stroke-width="2"/>
    <line x1="51.5349" x2="64.3773" y1="20.4474" y2="20.4474" fill="none" stroke="#000000" stroke-linecap="round" stroke-linejoin="round" stroke-miterlimit="10" stroke-width="2"/>
    <path fill="none" stroke="#000000" stroke-linecap="round" stroke-linejoin="round" stroke-miterlimit="10" stroke-width="2" d="M5,47c3,0,9,3,15,3s10-3,16-3s11,3,16,3s7-3,15-3"/>
  </g>
</svg>
