<?xml version="1.0" encoding="utf-8"?>
<!-- Generator: Adobe Illustrator 19.1.0, SVG Export Plug-In . SVG Version: 6.00 Build 0)  -->
<svg version="1.1" id="Ebene_3" xmlns="http://www.w3.org/2000/svg" xmlns:xlink="http://www.w3.org/1999/xlink" x="0px" y="0px"
	 viewBox="0 0 72 72" enable-background="new 0 0 72 72" xml:space="preserve">
<g id="_xD83D__xDEA2_">
	<polyline fill="none" stroke="#000000" stroke-miterlimit="10" points="32,29.4 32,28.9 32,27 	"/>
	<path fill="none" stroke="#000000" stroke-miterlimit="10" d="M68,11.6h-1h-0.2h-3.7h-9.6c-0.3,0-0.6,0.2-0.7,0.5"/>
	<path fill="none" stroke="#000000" stroke-miterlimit="10" d="M32,29.4C32,29.4,32,29.4,32,29.4"/>
	<path fill="none" stroke="#000000" stroke-width="2" stroke-linecap="round" stroke-linejoin="round" stroke-miterlimit="10" d="
		M63.1,11.6V5.9c0-0.5,0.3-0.9,0.7-0.9h2.3c0.4,0,0.7,0.4,0.7,0.9v5.7H63.1z"/>
	
		<line fill="none" stroke="#000000" stroke-width="2" stroke-linecap="round" stroke-linejoin="round" stroke-miterlimit="10" x1="53.7" y1="16.4" x2="64.4" y2="16.4"/>
	
		<line fill="none" stroke="#000000" stroke-width="2" stroke-linecap="round" stroke-linejoin="round" stroke-miterlimit="10" x1="51.5" y1="20.4" x2="64.4" y2="20.4"/>
	<path fill="none" stroke="#000000" stroke-width="2" stroke-linecap="round" stroke-linejoin="round" stroke-miterlimit="10" d="
		M44.1,48.4c-3-12.7-11.4-18.6-12-19c0,0,0,0,0,0"/>
	
		<line fill="none" stroke="#000000" stroke-width="2" stroke-linecap="round" stroke-linejoin="round" stroke-miterlimit="10" x1="53.7" y1="16.4" x2="64.4" y2="16.4"/>
	
		<line fill="none" stroke="#000000" stroke-width="2" stroke-linecap="round" stroke-linejoin="round" stroke-miterlimit="10" x1="51.5" y1="20.4" x2="64.4" y2="20.4"/>
	<path fill="none" stroke="#000000" stroke-width="2" stroke-linecap="round" stroke-linejoin="round" stroke-miterlimit="10" d="
		M67,25.6H33c-0.5,0-1,0.4-1,0.9v2.4h35"/>
	<line fill="none" stroke="#000000" stroke-miterlimit="10" x1="46" y1="25.6" x2="45.7" y2="26.1"/>
	<path fill="none" stroke="#000000" stroke-miterlimit="10" d="M52.9,12.1c0.1-0.3,0.4-0.5,0.7-0.5h9.6h3.7H67h1"/>
	<path fill="none" stroke="#000000" stroke-width="2" stroke-linecap="round" stroke-linejoin="round" stroke-miterlimit="10" d="
		M66,25.6H45.7l7.2-13.6c0.1-0.3,0.4-0.5,0.7-0.5H67"/>
	
		<line fill="none" stroke="#000000" stroke-width="2" stroke-linecap="round" stroke-linejoin="round" stroke-miterlimit="10" x1="53.7" y1="16.4" x2="64.4" y2="16.4"/>
	
		<line fill="none" stroke="#000000" stroke-width="2" stroke-linecap="round" stroke-linejoin="round" stroke-miterlimit="10" x1="51.5" y1="20.4" x2="64.4" y2="20.4"/>
	
		<line fill="none" stroke="#000000" stroke-width="2" stroke-linecap="round" stroke-linejoin="round" stroke-miterlimit="10" x1="53.7" y1="16.4" x2="64.4" y2="16.4"/>
	
		<line fill="none" stroke="#000000" stroke-width="2" stroke-linecap="round" stroke-linejoin="round" stroke-miterlimit="10" x1="51.5" y1="20.4" x2="64.4" y2="20.4"/>
	<polyline fill="none" points="4,48.2 4,68 68,68 69,48.2 	"/>
	<g>
		<path fill="none" stroke="#000000" stroke-width="2" stroke-linecap="round" stroke-linejoin="round" stroke-miterlimit="10" d="
			M67,47c-8,0-10,3-15,3c-1.6,0-3.2-0.3-4.8-0.7c-1-0.3-2.1-0.6-3.2-0.9C41.5,47.7,38.9,47,36,47c-6,0-10,3-16,3S8,47,5,47"/>
	</g>
</g>
</svg>
