<svg id="emoji" viewBox="0 0 72 72" version="1.1" xmlns="http://www.w3.org/2000/svg">
  <g id="line">
    <line x1="36" x2="36" y1="26.4063" y2="12.875" fill="none" stroke="#000000" stroke-linecap="round" stroke-linejoin="round" stroke-miterlimit="10" stroke-width="2"/>
    <path fill="none" stroke="#000000" stroke-linecap="round" stroke-linejoin="round" stroke-miterlimit="10" stroke-width="2" d="M51.62,33.1998c0-1.14,1.06-2.07,2.35-2.07H61v-1.21c0-1.29-1.05-2.34-2.34-2.34H13.34c-1.29,0-2.34,1.05-2.34,2.34v1.21h7.03 c1.29,0,2.35,0.93,2.35,2.07v13.14c0,1.14-1.06,2.08-2.35,2.08H11v3.33h50v-3.33h-7.03c-1.29,0-2.35-0.94-2.35-2.08V33.1998z M33.66,44.4598c0,1.23-1.05,2.23-2.35,2.23h-4.69c-1.29,0-2.34-1-2.34-2.23v-11.11c0-1.23,1.05-2.22,2.34-2.22h4.69 c1.3,0,2.35,0.99,2.35,2.22V44.4598z M47.72,44.4598c0,1.23-1.05,2.23-2.34,2.23h-4.69c-1.3,0-2.35-1-2.35-2.23v-11.11 c0-1.23,1.05-2.22,2.35-2.22h4.69c1.29,0,2.34,0.99,2.34,2.22V44.4598z"/>
    <path fill="none" stroke="#000000" stroke-linecap="round" stroke-linejoin="round" stroke-miterlimit="10" stroke-width="2" d="M40.69,27.0298v0.55h-9.38v-0.55c0-0.34,0.35-0.62,0.78-0.62H39.91C40.34,26.4098,40.69,26.6898,40.69,27.0298z"/>
    <path fill="none" stroke="#000000" stroke-linecap="round" stroke-linejoin="round" stroke-miterlimit="10" stroke-width="2" d="M18.03,48.4197H11v-17.29h7.03c1.29,0,2.35,0.93,2.35,2.07v13.14C20.38,47.4797,19.32,48.4197,18.03,48.4197z"/>
    <path fill="none" stroke="#000000" stroke-linecap="round" stroke-linejoin="round" stroke-miterlimit="10" stroke-width="2" d="M24.28,44.4598v-11.11c0-1.23,1.05-2.22,2.34-2.22h4.69c1.3,0,2.35,0.99,2.35,2.22v11.11c0,1.23-1.05,2.23-2.35,2.23h-4.69 C25.33,46.6898,24.28,45.6898,24.28,44.4598z"/>
    <path fill="none" stroke="#000000" stroke-linecap="round" stroke-linejoin="round" stroke-miterlimit="10" stroke-width="2" d="M38.34,44.4598v-11.11c0-1.23,1.05-2.22,2.35-2.22h4.69c1.29,0,2.34,0.99,2.34,2.22v11.11c0,1.23-1.05,2.23-2.34,2.23h-4.69 C39.39,46.6898,38.34,45.6898,38.34,44.4598z"/>
    <path fill="none" stroke="#000000" stroke-linecap="round" stroke-linejoin="round" stroke-miterlimit="10" stroke-width="2" d="M61,31.1298v17.29h-7.03c-1.29,0-2.35-0.94-2.35-2.08v-13.14c0-1.14,1.06-2.07,2.35-2.07H61z"/>
    <path fill="none" stroke="#000000" stroke-linecap="round" stroke-linejoin="round" stroke-miterlimit="10" stroke-width="2" d="M11,51.7498h50v4.73c0,1.29-1.05,2.35-2.34,2.35H13.34c-1.29,0-2.34-1.06-2.34-2.35V51.7498z"/>
    <path fill="none" stroke="#000000" stroke-linecap="round" stroke-linejoin="round" stroke-miterlimit="10" stroke-width="2" d="M20.38,33.1998v6.57H11v-8.64h7.03C19.32,31.1298,20.38,32.0598,20.38,33.1998z"/>
    <path fill="none" stroke="#000000" stroke-linecap="round" stroke-linejoin="round" stroke-miterlimit="10" stroke-width="2" d="M20.38,39.7698v6.57c0,1.14-1.06,2.08-2.35,2.08H11v-8.65H20.38z"/>
    <path fill="none" stroke="#000000" stroke-linecap="round" stroke-linejoin="round" stroke-miterlimit="10" stroke-width="2" d="M61,39.7698v8.65h-7.03c-1.29,0-2.35-0.94-2.35-2.08v-6.57H61z"/>
    <path fill="none" stroke="#000000" stroke-linecap="round" stroke-linejoin="round" stroke-miterlimit="10" stroke-width="2" d="M61,31.1298v8.64h-9.38v-6.57c0-1.14,1.06-2.07,2.35-2.07H61z"/>
    <rect x="11" y="51.7498" width="50" height="3.87" fill="none" stroke="#000000" stroke-linecap="round" stroke-linejoin="round" stroke-miterlimit="10" stroke-width="2"/>
    <path fill="none" stroke="#000000" stroke-linecap="round" stroke-linejoin="round" stroke-miterlimit="10" stroke-width="2" d="M33.66,38.9098v5.55c0,1.23-1.05,2.23-2.35,2.23h-4.69c-1.29,0-2.34-1-2.34-2.23v-5.55H33.66z"/>
    <path fill="none" stroke="#000000" stroke-linecap="round" stroke-linejoin="round" stroke-miterlimit="10" stroke-width="2" d="M33.66,33.3498v5.56H24.28v-5.56c0-1.23,1.05-2.22,2.34-2.22h4.69C32.61,31.1298,33.66,32.1198,33.66,33.3498z"/>
    <path fill="none" stroke="#000000" stroke-linecap="round" stroke-linejoin="round" stroke-miterlimit="10" stroke-width="2" d="M33.66,33.3498v5.56H24.28v-5.56c0-1.23,1.05-2.22,2.34-2.22h4.69C32.61,31.1298,33.66,32.1198,33.66,33.3498z"/>
    <path fill="none" stroke="#000000" stroke-linecap="round" stroke-linejoin="round" stroke-miterlimit="10" stroke-width="2" d="M47.72,33.3498v5.56H38.34v-5.56c0-1.23,1.05-2.22,2.35-2.22h4.69C46.67,31.1298,47.72,32.1198,47.72,33.3498z"/>
    <path fill="none" stroke="#000000" stroke-linecap="round" stroke-linejoin="round" stroke-miterlimit="10" stroke-width="2" d="M47.72,38.9098v5.55c0,1.23-1.05,2.23-2.34,2.23h-4.69c-1.3,0-2.35-1-2.35-2.23v-5.55H47.72z"/>
    <path fill="none" stroke="#000000" stroke-linecap="round" stroke-linejoin="round" stroke-miterlimit="10" stroke-width="2" d="M40.72,13.6298c0,0.04,0,0.08-0.0099,0.12c-0.06,1.05-0.93,1.88-1.9901,1.88c-1.11,0-2-0.9-2-2c0-0.32,0.07-0.62,0.21-0.88 c0.31-0.66,1-1.12,1.79-1.12C39.82,11.6298,40.72,12.5198,40.72,13.6298z"/>
    <line x1="36.93" x2="35.88" y1="12.7498" y2="12.4698" fill="none" stroke="#000000" stroke-linecap="round" stroke-linejoin="round" stroke-miterlimit="10" stroke-width="2"/>
    <line x1="68" x2="40.71" y1="20.9998" y2="13.7498" fill="none" stroke="#000000" stroke-linecap="round" stroke-linejoin="round" stroke-miterlimit="10" stroke-width="2"/>
    <line x1="32.02" x2="4" y1="11.4398" y2="3.9998" fill="none" stroke="#000000" stroke-linecap="round" stroke-linejoin="round" stroke-miterlimit="10" stroke-width="2"/>
    <path fill="none" stroke="#000000" stroke-miterlimit="10" stroke-width="2" d="M35.95,11.9598c0,0.18-0.02,0.35-0.07,0.51 c-0.22,0.86-1,1.49-1.93,1.49c-1.1,0-2-0.9-2-2c0-0.18,0.02-0.36,0.07-0.52c0.23-0.86,1.01-1.48,1.93-1.48 C35.06,9.9598,35.95,10.8498,35.95,11.9598z"/>
  </g>
</svg>
