<svg id="emoji" viewBox="0 0 72 72" version="1.1" xmlns="http://www.w3.org/2000/svg">
  <g id="line">
    <path fill="none" stroke="#000000" stroke-linecap="round" stroke-linejoin="round" stroke-miterlimit="10" stroke-width="1.8603" d="M63.4525,47.0739c0.088-0.0825,0.1418-0.2035,0.1476-0.3325l0.0661-1.4563c0.0099-0.2177-0.1173-0.4093-0.3023-0.4554 l-1.9028-0.4743l-5.017-3.2687c-0.0459-0.0299-0.0968-0.0487-0.1496-0.0553L25.7191,37.219c0,0-18.6574,0.1092-18.8835,3.2051 c-0.226,3.0959,12.1477,8.6395,12.1477,8.6395s0.3095,0.3142,3.25,0.6743"/>
    <path fill="none" stroke="#000000" stroke-linecap="round" stroke-linejoin="round" stroke-miterlimit="10" stroke-width="1.8603" d="M45.7345,39.7147c0,0-6.8479-5.3894-15.0213-6.2024c-0.0867-0.0086-0.1747,0.0159-0.2494,0.0692l-5.1414,3.6651L45.7345,39.7147z"/>
    <path fill="none" stroke="#000000" stroke-linecap="round" stroke-linejoin="round" stroke-miterlimit="10" stroke-width="2" d="M5,47c3,0,9,3,15,3s10-3,16-3s11,3,16,3s7-3,15-3"/>
  </g>
</svg>
