<svg id="emoji" xmlns="http://www.w3.org/2000/svg" viewBox="0 0 72 72">
  <g id="line">
    <path d="M49.22,32.901V29.2367a3.7532,3.7532,0,0,0,3.2637-1.9731h3.2638v8.9012H52.4836A3.7532,3.7532,0,0,0,49.22,34.1917V30.5274" fill="none" stroke="#000" stroke-miterlimit="10" stroke-width="2"/>
    <g>
      <path d="M40.6924,25.2636h.89V23.78a3.4681,3.4681,0,0,1,2.3736-.5934,10.0939,10.0939,0,0,1,2.9671.2967c1.78.2967,2.67-.5934,2.67-1.78s0-2.9671-2.3736-2.67a46.0259,46.0259,0,0,0-4.7473.89h-1.78" fill="none" stroke="#000" stroke-miterlimit="10" stroke-width="2"/>
      <path d="M40.6924,25.2636h-.89V23.78a3.4683,3.4683,0,0,0-2.3737-.5934,10.0935,10.0935,0,0,0-2.967.2967c-1.78.2967-2.67-.5934-2.67-1.78s0-2.9671,2.3736-2.67a46.0259,46.0259,0,0,1,4.7473.89h1.78" fill="none" stroke="#000" stroke-miterlimit="10" stroke-width="2"/>
    </g>
    <polyline points="25.528 53 21.077 53 19 39.648 31.758 39.648 30.828 45.626 29.681 53 25.231 53" fill="none" stroke="#000" stroke-linecap="round" stroke-linejoin="round" stroke-width="2"/>
    <circle cx="36" cy="36" r="30" fill="none" stroke="#000" stroke-linecap="round" stroke-linejoin="round" stroke-width="2"/>
    <path d="M57.6551,48.4862a24.9938,24.9938,0,0,0-39.701-29.7776Z" fill="none" stroke="#000" stroke-linecap="round" stroke-linejoin="round" stroke-width="2"/>
    <path d="M14.87,22.6455a24.9948,24.9948,0,0,0,39.864,29.9Z" fill="none" stroke="#000" stroke-linecap="round" stroke-linejoin="round" stroke-width="2"/>
    <polyline points="33 28 46 28 46 36 41.864 36.165" fill="none" stroke="#000" stroke-linecap="round" stroke-linejoin="round" stroke-width="2"/>
    <path d="M28.01,33.0008S24,34.6,24,37h4s1.4861-2.3184,2.7431-2.3592" fill="none" stroke="#000" stroke-linecap="round" stroke-linejoin="round" stroke-width="2"/>
  </g>
</svg>
