<svg id="emoji" viewBox="0 0 72 72" xmlns="http://www.w3.org/2000/svg">
  <g id="line">
    <path fill="none" stroke="#000000" stroke-linecap="round" stroke-linejoin="round" stroke-miterlimit="10" stroke-width="2" d="M48.2977,17.3576c0,0,4.0466-4.7508,10.5228-4.4651v5.8571c0,0-3.1429-0.2857-5.7619,3"/>
    <path fill="none" stroke="#000000" stroke-linecap="round" stroke-linejoin="round" stroke-miterlimit="10" stroke-width="2" d="M21.0821,26.6679c0,0-1.6306,1.0684-0.75,2.0833l22.6667,22.6667c0,0,1,1.1667,2.1667-0.75"/>
    <path fill="none" stroke="#000000" stroke-linecap="round" stroke-linejoin="round" stroke-miterlimit="10" stroke-width="2" d="M24,24c0,0,8-6,17-2l3-3l7.1483,6.849l-2.6127,3.0195c0,0,5.1386,9.3265-1.1003,18.7815L24,24z"/>
    <path fill="none" stroke="#000000" stroke-linecap="round" stroke-linejoin="round" stroke-miterlimit="10" stroke-width="2" d="M20.7513,41.9211c-0.9549,0.9549-2.5745,0.8797-3.6198-0.1655s-1.1185-2.6668-0.1636-3.6217c0,0,1.1397-1.1811,4.8354-1.683 c0,0,0.7352-0.1359,0.6299,0.5727C21.9313,40.7193,20.7513,41.9211,20.7513,41.9211"/>
    <path fill="none" stroke="#000000" stroke-miterlimit="10" stroke-width="2" d="M18.8605,40.0265"/>
    <path fill="none" stroke="#000000" stroke-miterlimit="10" stroke-width="2" d="M16.3667,53.4705 c-0.9549,0.9549-2.5745,0.8797-3.6198-0.1655c-1.0453-1.0453-1.1185-2.6668-0.1636-3.6217c0,0,1.1397-1.1812,4.8354-1.683 c0,0,0.7352-0.1359,0.6299,0.5727C17.5468,52.2687,16.3667,53.4705,16.3667,53.4705"/>
    <path fill="none" stroke="#000000" stroke-miterlimit="10" stroke-width="2" d="M14.476,51.5759"/>
    <path fill="none" stroke="#000000" stroke-miterlimit="10" stroke-width="2" d="M23.0674,60.1712 c-0.9549,0.9549-2.5745,0.8797-3.6198-0.1655s-1.1185-2.6668-0.1636-3.6217c0,0,1.1397-1.1811,4.8354-1.683 c0,0,0.7352-0.1359,0.6299,0.5727C24.2475,58.9694,23.0674,60.1712,23.0674,60.1712"/>
    <path fill="none" stroke="#000000" stroke-miterlimit="10" stroke-width="2" d="M21.1767,58.2766"/>
    <path fill="none" stroke="#000000" stroke-miterlimit="10" stroke-width="2" d="M27.2838,48.4537 c-0.9549,0.9549-2.5745,0.8797-3.6198-0.1655c-1.0453-1.0453-1.1185-2.6668-0.1636-3.6217c0,0,1.1397-1.1811,4.8354-1.683 c0,0,0.7352-0.1359,0.6299,0.5727C28.4638,47.2519,27.2838,48.4537,27.2838,48.4537"/>
    <path fill="none" stroke="#000000" stroke-miterlimit="10" stroke-width="2" d="M25.3931,46.5591"/>
    <path fill="none" stroke="#000000" stroke-miterlimit="10" stroke-width="2" d="M33.8206,54.9905 c-0.9549,0.9549-2.5745,0.8797-3.6198-0.1655c-1.0453-1.0453-1.1185-2.6668-0.1636-3.6217c0,0,1.1397-1.1812,4.8354-1.683 c0,0,0.7352-0.1359,0.6299,0.5727C35.0007,53.7887,33.8206,54.9905,33.8206,54.9905"/>
    <path fill="none" stroke="#000000" stroke-miterlimit="10" stroke-width="2" d="M31.9299,53.0959"/>
  </g>
</svg>
