<svg id="emoji" xmlns="http://www.w3.org/2000/svg" viewBox="0 0 72 72">
  <g id="line">
    <path fill="none" stroke="#000000" stroke-width="2" stroke-linecap="round" stroke-linejoin="round" stroke-miterlimit="10" d="M60,61H12c-0.5523,0-1-0.4477-1-1V12c0-0.5523,0.4477-1,1-1h48c0.5523,0,1,0.4477,1,1v48C61,60.5523,60.5523,61,60,61z"/>
    <circle fill="none" stroke="#000000" stroke-width="2" stroke-miterlimit="10" cx="35.2806" cy="15.6769" r="2.3752"/>
    <path fill="none" stroke="#000000" stroke-width="2" stroke-linecap="round" stroke-linejoin="round" d="M39.2481,26.3329 c-1.8818,2.8263-0.5416,4.8856-0.0253,6.4c0.3669,1.0762,0.6043,3.3596,0.718,4.4909c0.4803,4.781,0.802,19.2035,0.802,19.2035 c0.044,0.88-0.46,1.6-1.12,1.6c-0.7812-0.1321-1.3603-0.7976-1.3832-1.5896l-2.0312-17.6248 c-0.1008-0.8744-0.5432-1.5896-0.9832-1.5896s-0.88,0.7152-0.9832,1.5896l-2.0336,17.6248 c-0.0229,0.792-0.602,1.4575-1.3832,1.5896c-0.66,0-1.164-0.72-1.12-1.6c0,0,0.4181-14.2732,0.8585-19.0101 c0.1095-1.1776,0.2965-3.5594,0.6615-4.6843c0.4939-1.5219,1.9328-3.7914,0.0229-6.4"/>
    <path fill="none" stroke="#000000" stroke-width="2" stroke-linecap="round" stroke-linejoin="round" d="M28.0228,40.7329 l0.6336-15.2c0.1155-2.2239,1.9396-3.9751,4.1664-4h4.8c2.2268,0.0249,4.0508,1.7761,4.1664,4c0,0-0.2114,5.5603-0.0409,7.4033 c0.1829,1.9765,1.7407,7.8135,1.7407,7.8135"/>
  </g>
</svg>
