<?xml version="1.0" encoding="utf-8"?>
<!-- Generator: Adobe Illustrator 21.1.0, SVG Export Plug-In . SVG Version: 6.00 Build 0)  -->
<svg version="1.1" id="emoji" xmlns="http://www.w3.org/2000/svg" xmlns:xlink="http://www.w3.org/1999/xlink" x="0px" y="0px"
	 viewBox="0 0 72 72" enable-background="new 0 0 72 72" xml:space="preserve">
<g id="_xD83D__xDEB6_">
	<circle fill="none" stroke="#000000" stroke-width="2" stroke-miterlimit="10" cx="36" cy="8.1" r="3"/>
	<g>
		<path fill="none" stroke="#000000" stroke-width="2" stroke-linecap="round" stroke-linejoin="round" stroke-miterlimit="10" d="
			M31,24l-4.1,41c-0.1,1.1,0.6,2,1.5,2c0.9,0,1.9-0.9,2.2-1.9L36.2,45c0.3-1.1,1-2.7,1.7-3.6l2.2-3.1c0.6-0.9,1.1-2.5,1.1-3.6
			l-0.5-10.1"/>
	</g>
	<g>
		<path fill="none" stroke="#000000" stroke-width="2" stroke-linecap="round" stroke-linejoin="round" stroke-miterlimit="10" d="
			M40.1,38.1L42,49.7c0.2,1.1,0.8,2.7,1.3,3.7l4.8,7.9c0.6,0.9,0.4,2.2-0.5,2.7c-0.8,0.5-2,0.3-2.7-0.6l-5.3-7.1
			c-0.7-0.9-1.5-2.4-1.9-3.5l-2.2-5.7"/>
	</g>
	<g>
		<path fill="none" stroke="#000000" stroke-width="2" stroke-linecap="round" stroke-linejoin="round" stroke-miterlimit="10" d="
			M40.9,29.6L40.3,19c-0.1-2.2-2-4-4.2-4H36c-2.2,0-4.2,1.8-4.4,4L31,24"/>
	</g>
	<g>
		<path fill="none" stroke="#000000" stroke-width="2" stroke-linecap="round" stroke-linejoin="round" stroke-miterlimit="10" d="
			M36.2,20l0.1,6.2c0,1.1-0.2,2.9-0.5,3.9l-2.8,11.6"/>
	</g>
</g>
</svg>
