<svg id="emoji" viewBox="0 0 72 72" xmlns="http://www.w3.org/2000/svg">
  <g id="line">
    <path fill="none" stroke="#000" stroke-linecap="round" stroke-linejoin="round" stroke-miterlimit="10" stroke-width="2" d="m59.92 61h-48c-0.5523 0-1-0.4477-1-1v-48c0-0.5523 0.4477-1 1-1h48c0.5523 0 1 0.4477 1 1v48c0 0.5523-0.4477 1-1 1z"/>
    <circle cx="45.68" cy="16.01" r="2.375" fill="none" stroke="#000" stroke-miterlimit="10" stroke-width="2"/>
    <path fill="none" stroke="#000" stroke-linecap="round" stroke-linejoin="round" stroke-width="2" d="m49.7 26.36 1.52 30.4c0.044 0.88-0.46 1.6-1.12 1.6-0.7812-0.1321-1.36-0.7976-1.383-1.59l-2.031-17.62c-0.1008-0.8744-0.5432-1.59-0.9832-1.59s-0.88 0.7152-0.9832 1.59l-2.034 17.62c-0.0229 0.792-0.602 1.458-1.383 1.59-0.66 0-1.164-0.72-1.12-1.6l1.52-30.4"/>
    <circle cx="26.36" cy="16.01" r="2.375" fill="none" stroke="#000" stroke-miterlimit="10" stroke-width="2"/>
    <path fill="none" stroke="#000" stroke-linecap="round" stroke-linejoin="round" stroke-width="2" d="m30.33 26.67c-1.882 2.826-0.5416 4.886-0.0253 6.4 0.3669 1.076 0.6043 3.36 0.718 4.491 0.4803 4.781 0.802 19.2 0.802 19.2 0.044 0.88-0.46 1.6-1.12 1.6-0.7812-0.1321-1.36-0.7976-1.383-1.59l-2.031-17.62c-0.1008-0.8744-0.5432-1.59-0.9832-1.59s-0.88 0.7152-0.9832 1.59l-2.034 17.62c-0.0229 0.792-0.602 1.458-1.383 1.59-0.66 0-1.164-0.72-1.12-1.6 0 0 0.4181-14.27 0.8585-19.01 0.1095-1.178 0.2965-3.559 0.6615-4.684 0.4939-1.522 1.933-3.791 0.0229-6.4"/>
    <path fill="none" stroke="#000" stroke-linecap="round" stroke-linejoin="round" stroke-width="2" d="m38.5 40.76 0.6336-15.2c0.1155-2.224 1.94-3.975 4.166-4h4.8c2.227 0.0249 4.051 1.776 4.166 4l0.6336 15.2"/>
    <path fill="none" stroke="#000" stroke-linecap="round" stroke-linejoin="round" stroke-width="2" d="m19.1 40.76 0.6336-15.2c0.1155-2.224 1.94-3.975 4.166-4h4.8c2.227 0.0249 4.051 1.776 4.166 4l0.6336 15.2"/>
  </g>
</svg>
