<?xml version="1.0" encoding="utf-8"?>
<!-- Generator: Adobe Illustrator 19.1.0, SVG Export Plug-In . SVG Version: 6.00 Build 0)  -->
<svg version="1.1" id="emoji" xmlns="http://www.w3.org/2000/svg" xmlns:xlink="http://www.w3.org/1999/xlink" x="0px" y="0px"
	 viewBox="0 0 72 72" enable-background="new 0 0 72 72" xml:space="preserve">
<g id="_xD83D__xDEBD_">
	<path fill="none" stroke="#000000" stroke-width="2" stroke-linecap="round" stroke-linejoin="round" stroke-miterlimit="10" d="
		M15.7,35.5c0,0-0.2,5,5,9l2.9,1.7c0,0-1,7.5-1,11.4c0,0.9,0.1,1.6,3.3,1.7h9.6c0,0,2.4,0.1,2.5-1.4c0.1-3,0-11.8,0-11.8
		s2.8-2.3,3.4-3.3c0,0,2.8-4,1.6-7c0,0-0.9-0.1-4.1-0.1l-18.8,0L15.7,35.5z"/>
	<path fill="none" stroke="#000000" stroke-width="2" stroke-linecap="round" stroke-linejoin="round" stroke-miterlimit="10" d="
		M38.1,30.1H16.5c0,0-0.9,0.1-0.8,1.7"/>
	<path fill="none" stroke="#000000" stroke-width="2" stroke-linecap="round" stroke-linejoin="round" stroke-miterlimit="10" d="
		M42.1,59.3H49c-2.7-9.3-1.8-17.4-1.8-17.4s0.2-4.8,3.5-5.8c0,0,3.7-1.1,5-1.8V16.9H42.1V31"/>
	
		<line fill="none" stroke="#000000" stroke-width="2" stroke-linecap="round" stroke-linejoin="round" stroke-miterlimit="10" x1="42" y1="12.9" x2="56" y2="12.9"/>
</g>
</svg>
