<svg id="emoji" viewBox="0 0 72 72" xmlns="http://www.w3.org/2000/svg">
  <g id="line">
    <path fill="none" stroke="#000000" stroke-linecap="round" stroke-linejoin="round" stroke-miterlimit="10" stroke-width="2" d="M60,61H12c-0.5523,0-1-0.4477-1-1V12c0-0.5523,0.4477-1,1-1h48c0.5523,0,1,0.4477,1,1v48C61,60.5523,60.5523,61,60,61z"/>
    <path fill="none" stroke="#000000" stroke-linecap="round" stroke-linejoin="round" stroke-miterlimit="10" stroke-width="2" d="M47.4,40c-4.536-5.67-11.9-5.684-11.9-5.684S28.136,34.33,23.6,40"/>
    <path fill="none" stroke="#000000" stroke-linecap="round" stroke-linejoin="round" stroke-miterlimit="10" stroke-width="2" d="M39,38.6l5.6,11.2c0,0,0,1.4-1.4,1.4c-1.4,0-5.6-4.2-5.6-4.2h-2.8h1.4h-2.8c0,0-4.2,4.2-5.6,4.2c-1.4,0-1.4-1.4-1.4-1.4L32,38.6"/>
    <polygon fill="none" stroke="#000000" stroke-linecap="round" stroke-linejoin="round" stroke-miterlimit="10" stroke-width="2" points="33.4,47 30.6,44.2 30.6,41.4 40.4,41.4 40.4,44.2 37.6,47"/>
    <circle cx="36.2" cy="27" r="4.2" fill="none" stroke="#000000" stroke-linecap="round" stroke-linejoin="round" stroke-miterlimit="10" stroke-width="2"/>
  </g>
</svg>
