<?xml version="1.0" encoding="utf-8"?>
<!-- Generator: Adobe Illustrator 21.1.0, SVG Export Plug-In . SVG Version: 6.00 Build 0)  -->
<svg version="1.1" id="emoji" xmlns="http://www.w3.org/2000/svg" xmlns:xlink="http://www.w3.org/1999/xlink" x="0px" y="0px"
	 viewBox="0 0 72 72" enable-background="new 0 0 72 72" xml:space="preserve">
<g id="_xD83D__xDEB6__x200D__x2640__xFE0F_">
	<circle fill="none" stroke="#000000" stroke-width="2" stroke-miterlimit="10" cx="36" cy="8.1" r="3"/>
	<g>
		<path fill="none" stroke="#000000" stroke-width="2" stroke-linecap="round" stroke-linejoin="round" stroke-miterlimit="10" d="
			M40,39l1.6,8c0.2,1.1,0.8,2.8,1.3,3.8l5.4,11.4c0.5,1,0.2,2.3-0.6,2.8s-2,0.2-2.5-0.7L39,53.7c-0.6-1-1.3-2.6-1.8-3.6L36,47"/>
	</g>
	<path fill="none" stroke="#000000" stroke-width="2" stroke-linecap="round" stroke-linejoin="round" stroke-miterlimit="10" d="
		M31,26c0,0-2-1-2-3c0-1.5,1-2.7,1.9-4c1.4-2,2.2-3.9,4.6-3.9c4.3,0,4.5,4.2,4.5,4.9c0,2.1,0,5.3,0,8"/>
	<g>
		<path fill="none" stroke="#000000" stroke-width="2" stroke-linecap="round" stroke-linejoin="round" stroke-miterlimit="10" d="
			M41,29"/>
	</g>
	<g>
		<path fill="none" stroke="#000000" stroke-width="2" stroke-linecap="round" stroke-linejoin="round" stroke-miterlimit="10" d="
			M36,19l0.2,7.3c0,1.1-0.2,2.9-0.4,3.9L33,42"/>
	</g>
	<g>
		<path fill="none" stroke="#000000" stroke-width="2" stroke-linecap="round" stroke-linejoin="round" stroke-miterlimit="10" d="
			M40,28l0.8,7c0.1,1.1-0.3,2.7-1,3.5l-1.5,1.9c-0.7,0.9-1.5,2.4-1.8,3.5l-5.8,21.1c-0.3,1.1-1.3,1.9-2.2,1.9c-0.9,0-1.6-0.9-1.5-2
			l3.8-34c0.1-1.1,0.2-2.7,0.2-3.5s0-1.5,0-1.5"/>
	</g>
</g>
</svg>
