<?xml version="1.0" encoding="utf-8"?>
<!-- Generator: Adobe Illustrator 21.1.0, SVG Export Plug-In . SVG Version: 6.00 Build 0)  -->
<svg version="1.1" id="emoji" xmlns="http://www.w3.org/2000/svg" xmlns:xlink="http://www.w3.org/1999/xlink" x="0px" y="0px"
	 viewBox="0 0 72 72" enable-background="new 0 0 72 72" xml:space="preserve">
<g id="_xD83D__xDEBB_">
	<path fill="none" stroke="#000000" stroke-width="2" stroke-linecap="round" stroke-linejoin="round" stroke-miterlimit="10" d="
		M60,61H12c-0.6,0-1-0.4-1-1V12c0-0.6,0.4-1,1-1h48c0.6,0,1,0.4,1,1v48C61,60.6,60.6,61,60,61z"/>
	<g>
		<g>
			<circle fill="none" stroke="#000000" stroke-miterlimit="10" cx="45.9" cy="16" r="2.4"/>
			<circle fill="none" stroke="#000000" stroke-width="2" stroke-miterlimit="10" cx="45.9" cy="16" r="2.4"/>
			<path fill="none" stroke="#000000" stroke-width="2" stroke-linecap="round" stroke-linejoin="round" d="M49.9,26.4l1.5,30.4
				c0,0.9-0.5,1.6-1.1,1.6c-0.8-0.1-1.4-0.8-1.4-1.6l-2-17.6c-0.1-0.9-0.5-1.6-1-1.6c-0.4,0-0.9,0.7-1,1.6l-2,17.6
				c0,0.8-0.6,1.5-1.4,1.6c-0.7,0-1.2-0.7-1.1-1.6l1.5-30.4"/>
			<path fill="none" stroke="#000000" stroke-width="2" stroke-linecap="round" stroke-linejoin="round" d="M37.9,41.1
				c0,0,1-6.1,1.2-8.1c0.2-1.8,0.2-7.4,0.2-7.4c0.1-2.2,1.9-4,4.2-4h4.8c2.2,0,4.1,1.8,4.2,4l0.6,15.2"/>
		</g>
		<g>
			<circle fill="none" stroke="#000000" stroke-miterlimit="10" cx="26.5" cy="16" r="2.4"/>
			<circle fill="none" stroke="#000000" stroke-width="2" stroke-miterlimit="10" cx="26.5" cy="16" r="2.4"/>
			<path fill="none" stroke="#000000" stroke-width="2" stroke-linecap="round" stroke-linejoin="round" d="M30.5,26.7
				c-1.9,2.8-0.5,4.9,0,6.4c0.4,1.1,0.6,3.4,0.7,4.5c0.5,4.8,0.8,19.2,0.8,19.2c0,0.9-0.5,1.6-1.1,1.6c-0.8-0.1-1.4-0.8-1.4-1.6
				l-2-17.6c-0.1-0.9-0.5-1.6-1-1.6c-0.4,0-0.9,0.7-1,1.6l-2,17.6c0,0.8-0.6,1.5-1.4,1.6c-0.7,0-1.2-0.7-1.1-1.6
				c0,0,0.4-14.3,0.9-19c0.1-1.2,0.3-3.6,0.7-4.7c0.5-1.5,1.9-3.8,0-6.4"/>
			<path fill="none" stroke="#000000" stroke-width="2" stroke-linecap="round" stroke-linejoin="round" d="M19.3,41.1l0.6-15.2
				c0.1-2.2,1.9-4,4.2-4h4.8c2.2,0,4.1,1.8,4.2,4c0,0-0.2,5.6,0,7.4c0.2,2,1.7,7.8,1.7,7.8"/>
		</g>
	</g>
</g>
</svg>
