<svg id="emoji" viewBox="0 0 72 72" xmlns="http://www.w3.org/2000/svg">
  <g id="line">
    <path fill="none" stroke="#000" stroke-linecap="round" stroke-linejoin="round" stroke-width="2" d="M51.5245,60.693l4.9814-.1215L60.1719,64"/>
    <path fill="none" stroke="#000" stroke-linecap="round" stroke-linejoin="round" stroke-width="2" d="M22.9705,52.3383l6.2039,2.8146,4.7947-1.0571,5.2654,1.0212"/>
    <path fill="none" stroke="#000" stroke-linecap="round" stroke-linejoin="round" stroke-width="2" d="M5.6087,43.9473l1.7866-.7215,2.949,2.1407"/>
    <circle cx="21.5986" cy="36.3338" r="9.7234" fill="none" stroke="#000" stroke-miterlimit="10" stroke-width="2"/>
    <circle cx="52.4847" cy="48.2473" r="9.7234" fill="none" stroke="#000" stroke-miterlimit="10" stroke-width="2"/>
    <path fill="none" stroke="#000" stroke-linecap="round" stroke-linejoin="round" stroke-width="2" d="M21.6874,36.3682,35.9915,19.6768l2.9446,2.11"/>
    <circle cx="45.3922" cy="8.1524" r="3" fill="none" stroke="#000" stroke-miterlimit="10" stroke-width="2"/>
    <path fill="none" stroke="#000" stroke-linecap="round" stroke-linejoin="round" stroke-width="2" d="M38.4583,20.5583,40.97,20.011a13.2985,13.2985,0,0,0,3.7966-1.2442s.4293-2.64.6235-3.5021a.8012.8012,0,0,1,.4229-.679,3.1213,3.1213,0,0,1,3.01-.38c1.3024.5516,1.9216,2.389,2.16,2.9884a63.0047,63.0047,0,0,1,3.1266,9.7039A4.1364,4.1364,0,0,1,52.78,30.0636l-.1578.1433a5.8752,5.8752,0,0,1-3.35,1.2575l-5.7154.2384a1.9349,1.9349,0,0,0-1.8735,1.932l.1061,6.5843a2.2848,2.2848,0,0,1-1.5868,2.2476,1.73,1.73,0,0,1-1.9465-1.5724L37.17,32.09a8.651,8.651,0,0,1,.3714-3.3322,3.6664,3.6664,0,0,1,2.4412-1.8141l5.0878-.9929c1.0067-.2232,2.4916-1.7072,2.316-2.8626"/>
    <path fill="none" stroke="#000" stroke-miterlimit="10" stroke-width="2" d="M40.2026,42.4667l-1.9569,2.4109a2.6607,2.6607,0,0,1-2.7878.8619,1.6224,1.6224,0,0,1-.7331-2.3289l3.1082-5.6451"/>
    <path fill="none" stroke="#000" stroke-miterlimit="10" stroke-width="2" d="M48.9711,31.45l-7.1617,8.9814"/>
    <path fill="none" stroke="#000" stroke-linecap="round" stroke-linejoin="round" stroke-width="2" d="M49.008,5.9936s.5982-.2747.9541.0234c.4189.35.698,1.653,1.1924,2.2187A3.3623,3.3623,0,0,0,53.018,9.351"/>
  </g>
</svg>
