<?xml version="1.0" encoding="utf-8"?>
<!-- Generator: Adobe Illustrator 21.1.0, SVG Export Plug-In . SVG Version: 6.00 Build 0)  -->
<svg version="1.1" id="emoji" xmlns="http://www.w3.org/2000/svg" xmlns:xlink="http://www.w3.org/1999/xlink" x="0px" y="0px"
	 viewBox="0 0 72 72" enable-background="new 0 0 72 72" xml:space="preserve">
<g id="_xD83D__xDEBF_">
	<path fill="none" stroke="#000000" stroke-width="2" stroke-linecap="round" stroke-linejoin="round" stroke-miterlimit="10" d="
		M48.3,17.4c0,0,4-4.8,10.5-4.5v5.9c0,0-3.1-0.3-5.8,3"/>
	<path fill="none" stroke="#000000" stroke-width="2" stroke-linecap="round" stroke-linejoin="round" stroke-miterlimit="10" d="
		M21.1,26.7c0,0-1.6,1.1-0.7,2.1L43,51.4c0,0,1,1.2,2.2-0.7"/>
	<path fill="none" stroke="#000000" stroke-width="2" stroke-linecap="round" stroke-linejoin="round" stroke-miterlimit="10" d="
		M24,24c0,0,8-6,17-2l3-3l7.1,6.8l-2.6,3c0,0,5.1,9.3-1.1,18.8L24,24z"/>
	<g>
		<path fill="none" stroke="#000000" stroke-width="2" stroke-linecap="round" stroke-linejoin="round" stroke-miterlimit="10" d="
			M20.8,41.9c-1,1-2.6,0.9-3.6-0.2S16,39.1,17,38.1c0,0,1.1-1.2,4.8-1.7c0,0,0.7-0.1,0.6,0.6C21.9,40.7,20.8,41.9,20.8,41.9"/>
		<path fill="none" stroke="#000000" stroke-width="2" stroke-miterlimit="10" d="M18.9,40"/>
	</g>
	<g>
		<path fill="none" stroke="#000000" stroke-width="2" stroke-linecap="round" stroke-linejoin="round" stroke-miterlimit="10" d="
			M16.4,53.5c-1,1-2.6,0.9-3.6-0.2c-1-1-1.1-2.7-0.2-3.6c0,0,1.1-1.2,4.8-1.7c0,0,0.7-0.1,0.6,0.6C17.5,52.3,16.4,53.5,16.4,53.5"/>
		<path fill="none" stroke="#000000" stroke-width="2" stroke-miterlimit="10" d="M14.5,51.6"/>
	</g>
	<g>
		<path fill="none" stroke="#000000" stroke-width="2" stroke-linecap="round" stroke-linejoin="round" stroke-miterlimit="10" d="
			M23.1,60.2c-1,1-2.6,0.9-3.6-0.2s-1.1-2.7-0.2-3.6c0,0,1.1-1.2,4.8-1.7c0,0,0.7-0.1,0.6,0.6C24.2,59,23.1,60.2,23.1,60.2"/>
		<path fill="none" stroke="#000000" stroke-width="2" stroke-miterlimit="10" d="M21.2,58.3"/>
	</g>
	<g>
		<path fill="none" stroke="#000000" stroke-width="2" stroke-linecap="round" stroke-linejoin="round" stroke-miterlimit="10" d="
			M27.3,48.5c-1,1-2.6,0.9-3.6-0.2c-1-1-1.1-2.7-0.2-3.6c0,0,1.1-1.2,4.8-1.7c0,0,0.7-0.1,0.6,0.6C28.5,47.3,27.3,48.5,27.3,48.5"/>
		<path fill="none" stroke="#000000" stroke-width="2" stroke-miterlimit="10" d="M25.4,46.6"/>
	</g>
	<g>
		<path fill="none" stroke="#000000" stroke-width="2" stroke-linecap="round" stroke-linejoin="round" stroke-miterlimit="10" d="
			M33.8,55c-1,1-2.6,0.9-3.6-0.2c-1-1-1.1-2.7-0.2-3.6c0,0,1.1-1.2,4.8-1.7c0,0,0.7-0.1,0.6,0.6C35,53.8,33.8,55,33.8,55"/>
		<path fill="none" stroke="#000000" stroke-width="2" stroke-miterlimit="10" d="M31.9,53.1"/>
	</g>
</g>
</svg>
