<?xml version="1.0" encoding="utf-8"?>
<!-- Generator: Adobe Illustrator 21.1.0, SVG Export Plug-In . SVG Version: 6.00 Build 0)  -->
<svg version="1.1" id="emoji" xmlns="http://www.w3.org/2000/svg" xmlns:xlink="http://www.w3.org/1999/xlink" x="0px" y="0px"
	 viewBox="0 0 72 72" enable-background="new 0 0 72 72" xml:space="preserve">
<g id="_xD83D__xDEB4_">
	<circle fill="none" stroke="#000000" stroke-width="2" stroke-miterlimit="10" cx="34.4" cy="11.1" r="3"/>
	<g>
		<path fill="none" stroke="#000000" stroke-width="2" stroke-linecap="round" stroke-linejoin="round" stroke-miterlimit="10" d="
			M26.3,28.1l4.3-2.9c0.9-0.6,2.2-1.9,2.8-2.8l1.9-2.7c0.6-0.9,2-1.6,3.1-1.6c1.1,0,2.3,0.9,2.7,1.9l4.6,10.5c0.4,1,0.4,2.6-0.1,3.6
			l-0.1,0.2c-0.5,1-1.8,2.1-2.8,2.5l-5.5,2.4c-1,0.4-1.5,1.6-1.1,2.6l2.6,6.4c0.4,1,0.1,2.3-0.7,2.8s-1.9,0.2-2.5-0.8l-4.4-8.2
			c-0.5-1-0.9-2.5-0.9-3.4c0-0.9,0.8-2.1,1.7-2.7l4.6-2.9c0.9-0.6,1.5-1.9,1.2-3L36.2,24"/>
	</g>
	<circle fill="none" stroke="#000000" stroke-width="2" stroke-miterlimit="10" cx="20.1" cy="52" r="10.2"/>
	<circle fill="none" stroke="#000000" stroke-width="2" stroke-miterlimit="10" cx="52.1" cy="52" r="10.2"/>
	
		<polyline fill="none" stroke="#000000" stroke-width="2" stroke-linecap="round" stroke-linejoin="round" stroke-miterlimit="10" points="
		20.2,52 22.2,28 26,28 	"/>
	<g>
		<path fill="none" stroke="#000000" stroke-width="2" stroke-miterlimit="10" d="M38,51l-1,3.1c-0.3,1-1.4,1.9-2.4,1.9
			c-1,0-1.7-0.9-1.6-2l0.9-6.7"/>
	</g>
	<g>
		<line fill="none" stroke="#000000" stroke-width="2" stroke-miterlimit="10" x1="42.4" y1="36.9" x2="38.8" y2="48.4"/>
	</g>
</g>
</svg>
