<?xml version="1.0" encoding="utf-8"?>
<!-- Generator: Adobe Illustrator 21.1.0, SVG Export Plug-In . SVG Version: 6.00 Build 0)  -->
<svg version="1.1" id="emoji" xmlns="http://www.w3.org/2000/svg" xmlns:xlink="http://www.w3.org/1999/xlink" x="0px" y="0px"
	 viewBox="0 0 72 72" enable-background="new 0 0 72 72" xml:space="preserve">
<g id="_xD83D__xDEB3__1_">
	
		<path fill="#FFFFFF" stroke="#000000" stroke-width="2" stroke-linecap="round" stroke-linejoin="round" stroke-miterlimit="10" d="
		M36,79.6"/>
	<g>
		
			<polyline fill="none" stroke="#000000" stroke-width="2" stroke-linecap="round" stroke-linejoin="round" stroke-miterlimit="10" points="
			39.3,29.8 39.9,27.4 36.9,27.4 		"/>
		<path fill="none" stroke="#000000" stroke-width="2" stroke-linecap="round" stroke-linejoin="round" stroke-miterlimit="10" d="
			M31,40.4c0,0.2,0,0.5,0,0.7c0,3.5-2.8,6.2-6.2,6.2s-6.2-2.8-6.2-6.2c0-3.5,2.8-6.2,6.2-6.2c0.2,0,0.5,0,0.7,0"/>
		<path fill="none" stroke="#000000" stroke-width="2" stroke-linecap="round" stroke-linejoin="round" stroke-miterlimit="10" d="
			M44.9,35.4c0.2-0.1,0.4-0.2,0.7-0.2l-2.2-7.8h-3.4l-0.7,2.4"/>
		<path fill="none" stroke="#000000" stroke-width="2" stroke-linecap="round" stroke-linejoin="round" stroke-miterlimit="10" d="
			M36.9,27.4h3.1l1.1-3.7l-1.1,3.7h3.4l2.2,7.8c0.5-0.2,1.1-0.2,1.7-0.2c3.5,0,6.2,2.8,6.2,6.2c0,0.8-0.2,1.7-0.5,2.4 M38.5,23.6
			h3.8H38.5z"/>
		<path fill="none" stroke="#000000" stroke-width="2" stroke-linecap="round" stroke-linejoin="round" stroke-miterlimit="10" d="
			M25.5,34.9c-0.2,0-0.5,0-0.7,0c-3.5,0-6.2,2.8-6.2,6.2c0,3.5,2.8,6.2,6.2,6.2s6.2-2.8,6.2-6.2c0-0.2,0-0.5,0-0.7"/>
		
			<polyline fill="none" stroke="#000000" stroke-width="2" stroke-linecap="round" stroke-linejoin="round" stroke-miterlimit="10" points="
			26.3,35.8 24.8,41.1 26.3,35.8 		"/>
		<path fill="none" stroke="#000000" stroke-width="2" stroke-linecap="round" stroke-linejoin="round" stroke-miterlimit="10" d="
			M45.9,36.4l-0.4-1.3c-0.2,0.1-0.5,0.1-0.7,0.2"/>
		<path fill="none" stroke="#000000" stroke-width="2" stroke-linecap="round" stroke-linejoin="round" stroke-miterlimit="10" d="
			M53,43.5c0.3-0.7,0.5-1.5,0.5-2.4c0-3.5-2.8-6.2-6.2-6.2c-0.6,0-1.2,0.1-1.7,0.2l0.4,1.3"/>
		<path fill="none" stroke="#000000" stroke-width="2" stroke-linecap="round" stroke-linejoin="round" stroke-miterlimit="10" d="
			M36,7C20,7,7,20,7,36s13,29,29,29s29-13,29-29S52,7,36,7z M13,36c0-5.1,1.6-9.8,4.4-13.6l32.1,32.1C45.8,57.4,41.1,59,36,59
			C23.3,59,13,48.7,13,36z M54.6,49.6L22.4,17.4C26.2,14.6,30.9,13,36,13c12.7,0,23,10.3,23,23C59,41.1,57.4,45.8,54.6,49.6z"/>
	</g>
</g>
</svg>
