<svg id="emoji" viewBox="0 0 72 72" version="1.1" xmlns="http://www.w3.org/2000/svg">
  <g id="line">
    <circle cx="36" cy="36" r="30" fill="none" stroke="#000" stroke-linecap="round" stroke-linejoin="round" stroke-width="2"/>
    <path fill="none" stroke="#000" stroke-linecap="round" stroke-linejoin="round" stroke-width="2" d="m55.66 51.44a24.99 24.99 0 0 0-35.06-35.13z"/>
    <path fill="none" stroke="#000" stroke-linecap="round" stroke-linejoin="round" stroke-width="2" d="m16.99 19.77a24.99 24.99 0 0 0 35.2 35.27z"/>
    <g transform="matrix(.7371 0 0 .7297 8.857 6.124)" stroke-width="2.727">
      <path fill="none" stroke="#000" stroke-linecap="round" stroke-linejoin="round" stroke-width="2.727" d="m42 25.7 5.189 0.0037"/>
    </g>
    <path fill="none" stroke="#000" stroke-linecap="round" stroke-linejoin="round" stroke-width="2" d="m24.41 39.69 4.018-8.451"/>
    <path fill="none" stroke="#000" stroke-linecap="round" stroke-linejoin="round" stroke-width="2" d="m41.42 28.01 4.703 9.462"/>
    <path fill="none" stroke="#000" stroke-linecap="round" stroke-linejoin="round" stroke-width="2" d="m36.74 28.01h4.683"/>
    <path fill="none" stroke="#000" stroke-linecap="round" stroke-linejoin="round" stroke-width="2" d="m43.64 24.88-3.986 6.085"/>
    <path fill="none" stroke="#000" stroke-linecap="round" stroke-linejoin="round" stroke-width="2" d="m42.47 33.92a7.439 7.439 0 0 1 9.826 0.3072 7.439 7.439 0 0 1 0.9408 9.786" paint-order="normal"/>
    <ellipse cx="24.49" cy="39.69" rx="7.473" ry="7.433" fill="none" stroke="#000" stroke-linecap="round" stroke-width="2"/>
    <path fill="none" stroke="#000" stroke-linecap="round" stroke-width="2" d="m40.75 35.85c1.303-2.177 3.693-3.635 6.425-3.635 4.127 0 7.473 3.328 7.473 7.433 0 2.862-1.627 5.347-4.011 6.589"/>
    <circle cx="39.77" cy="31.07" r="0.0519" stroke="#000"/>
    <path fill="none" stroke="#000" stroke-width="2" d="m39.65 30.96h-4.284"/>
  </g>
</svg>
