<svg id="emoji" viewBox="0 0 72 72" xmlns="http://www.w3.org/2000/svg">
  <g id="line">
    <path fill="none" stroke="#000" stroke-linecap="round" stroke-linejoin="round" stroke-miterlimit="10" stroke-width="2" d="m60 61h-48c-0.5523 0-1-0.4477-1-1v-48c0-0.5523 0.4477-1 1-1h48c0.5523 0 1 0.4477 1 1v48c0 0.5523-0.4477 1-1 1z"/>
    <circle cx="36" cy="16.01" r="2.375" fill="none" stroke="#000" stroke-miterlimit="10" stroke-width="2"/>
    <path fill="none" stroke="#000" stroke-linecap="round" stroke-linejoin="round" stroke-width="2" d="m40 26.36 1.52 30.4c0.044 0.88-0.46 1.6-1.12 1.6-0.7812-0.1321-1.36-0.7976-1.383-1.59l-2.031-17.62c-0.1008-0.8744-0.5432-1.59-0.9832-1.59s-0.88 0.7152-0.9832 1.59l-2.034 17.62c-0.0229 0.792-0.602 1.458-1.383 1.59-0.66 0-1.164-0.72-1.12-1.6l1.52-30.4"/>
    <path fill="none" stroke="#000" stroke-linecap="round" stroke-linejoin="round" stroke-width="2" d="m43.2 40.76-0.6336-15.2c-0.1156-2.224-1.94-3.975-4.166-4h-4.8c-2.227 0.0249-4.051 1.776-4.166 4l-0.6336 15.2"/>
  </g>
</svg>
