<svg id="emoji" viewBox="0 0 72 72" xmlns="http://www.w3.org/2000/svg">
  <g id="line">
    <g>
      <path fill="none" stroke="#000" stroke-linecap="round" stroke-linejoin="round" stroke-width="2" d="M60.3987,33.4964V12.5978s0-7.2829-6.8607-1.5832"/>
      <path fill="none" stroke="#000" stroke-linecap="round" stroke-linejoin="round" stroke-width="2" d="M47.2051,12.4923c1.6888-2.2166,4.5386-2.85,6.3329-1.4777s1.9,4.3275.2111,6.544Z"/>
      <polyline fill="none" stroke="#000" stroke-linecap="round" stroke-linejoin="round" stroke-width="2" points="15.857 60.306 14.696 64 18.39 64 19.129 61.889"/>
      <path fill="none" stroke="#000" stroke-linecap="round" stroke-linejoin="round" stroke-width="2" d="M10.052,33.4964V43.418c0,7.2829,5.7,13.2991,12.6658,13.2991H50.1605c6.9662,0,12.6658-6.0162,12.6658-13.2991V33.4964A350.7089,350.7089,0,0,1,10.052,33.4964Z"/>
    </g>
    <g>
      <g>
        <path fill="none" stroke="#000" stroke-linecap="round" stroke-linejoin="round" stroke-width="2" d="M20.6068,21.675h0"/>
        <path fill="none" stroke="#000" stroke-linecap="round" stroke-linejoin="round" stroke-width="2" d="M21.5211,34.0329l-3.0252-3.914A8.2726,8.2726,0,0,0,21.65,21.8445"/>
      </g>
    </g>
    <path fill="none" stroke="#000" stroke-linecap="round" stroke-linejoin="round" stroke-width="2" d="M17.3458,33.74a6.5034,6.5034,0,0,1-3.9-7.4819,6.6126,6.6126,0,0,1,8.2491-4.3734,6.6126,6.6126,0,0,1,5.0183,7.8734,5.8915,5.8915,0,0,1-.3394.95"/>
    <polyline fill="none" stroke="#000" stroke-linecap="round" stroke-linejoin="round" stroke-width="2" points="51.638 61.783 52.377 63.894 56.071 63.894 54.91 60.2"/>
  </g>
</svg>
