<svg id="emoji" viewBox="0 0 72 72" xmlns="http://www.w3.org/2000/svg">
  <g id="line">
    <path fill="none" stroke="#000000" stroke-linecap="round" stroke-linejoin="round" stroke-miterlimit="10" stroke-width="2" d="M11.0074,34.2178v9.4286c0,6.9143,5.4,12.5714,12,12.5714h26c6.6,0,12-5.6571,12-12.5714v-9.4286 C61.0074,34.2178,38.0074,36.313,11.0074,34.2178z"/>
    <path fill="none" stroke="#000000" stroke-linecap="round" stroke-linejoin="round" stroke-miterlimit="10" stroke-width="2" d="M59.0074,33.7544"/>
    <path fill="none" stroke="#000000" stroke-linecap="round" stroke-linejoin="round" stroke-miterlimit="10" stroke-width="2" d="M58.6681,34.2178V14.3617c0,0,0-6.9454-6.5006-1.4994"/>
    <path fill="none" stroke="#000000" stroke-linecap="round" stroke-linejoin="round" stroke-miterlimit="10" stroke-width="2" d="M46.1661,14.3051c1.6097-2.1022,4.2966-2.7481,6.0014-1.4428s1.7819,4.0678,0.1722,6.17L46.1661,14.3051z"/>
    <polyline fill="none" stroke="#000000" stroke-linecap="round" stroke-linejoin="round" stroke-miterlimit="10" stroke-width="2" points="53.439,59.5982 54.5818,63.128 51.058,63.128 50.3913,61.0744"/>
    <polyline fill="none" stroke="#000000" stroke-linecap="round" stroke-linejoin="round" stroke-miterlimit="10" stroke-width="2" points="16.5342,59.5982 15.3913,63.128 18.9152,63.128 19.5818,61.0744"/>
    <path fill="none" stroke="#000000" stroke-linecap="round" stroke-linejoin="round" stroke-miterlimit="10" stroke-width="2" d="M11.0074,34.2178v9.4286c0,6.9143,5.4,12.5714,12,12.5714h26c6.6,0,12-5.6571,12-12.5714v-9.4286 C61.0074,34.2178,38.0074,36.313,11.0074,34.2178z"/>
  </g>
</svg>
