<svg id="emoji" xmlns="http://www.w3.org/2000/svg" viewBox="0 0 72 72">
  <g id="line">
    <polygon fill="none" stroke="#000000" stroke-width="2" stroke-linejoin="round" stroke-miterlimit="10" points="12.5367,36.8736 12.5367,28.489 32.1254,28.489 51.4754,28.489 51.4754,36.7628 54.2002,33.9387 58.2435,33.9387 58.2435,55.2978 53.3212,55.2978 11.2182,55.2978 5.4559,55.2978 5.4559,33.9387 9.3723,33.9387"/>
    <polyline fill="none" stroke="#000000" stroke-width="2" stroke-linecap="round" stroke-linejoin="round" stroke-miterlimit="10" points="7.4445,58.6083 7.4445,62.46 10.8666,62.46 10.8666,58.6083"/>
    <polyline fill="none" stroke="#000000" stroke-width="2" stroke-linecap="round" stroke-linejoin="round" stroke-miterlimit="10" points="52.7449,58.6083 52.7449,62.46 56.167,62.46 56.167,58.6083"/>
    <path fill="none" stroke="#000000" stroke-width="2" stroke-linecap="round" stroke-linejoin="round" stroke-miterlimit="10" d="M34.4559,9.5489v8.4648c0,0,6.2792,3.422,12.5584,0V9.5489C47.0144,9.5489,40.7351,5.7667,34.4559,9.5489z"/>
    <polyline fill="none" stroke="#000000" stroke-width="2" stroke-linejoin="round" stroke-miterlimit="10" points="31.8497,28.489 12.6228,28.489 12.6228,44.4155 51.4822,44.4155"/>
    <polyline fill="none" stroke="#000000" stroke-width="2" stroke-linejoin="round" stroke-miterlimit="10" points="53.6004,54.6038 53.6004,49.5366 51.4867,49.5366 51.4867,44.4155 51.4754,36.7628"/>
    <polyline fill="none" stroke="#000000" stroke-width="2" stroke-linejoin="round" stroke-miterlimit="10" points="12.6228,44.4156 12.6228,49.5367 9.9188,49.5367 9.9188,54.6038"/>
    <line fill="none" stroke="#000000" stroke-width="2" stroke-linejoin="round" stroke-miterlimit="10" x1="12.6228" y1="49.5366" x2="51.4822" y2="49.5366"/>
    <path fill="none" stroke="#000000" stroke-width="2" stroke-linecap="round" stroke-linejoin="round" stroke-miterlimit="10" d="M47.0144,13.7013c0,0,15.1825-2.8472,15.5626,19.7447c0.0985,5.8561,0,23.4277,0,23.4277"/>
    <line fill="none" stroke="#000000" stroke-width="2" stroke-linecap="round" stroke-linejoin="round" stroke-miterlimit="10" x1="58.8477" y1="59.6083" x2="66.3938" y2="59.6083"/>
  </g>
</svg>
