<svg id="emoji" viewBox="0 0 72 72" xmlns="http://www.w3.org/2000/svg">
  <g id="line">
    <line x1="24.8609" x2="18.5199" y1="37.751" y2="58.3026" fill="none" stroke="#000" stroke-linecap="round" stroke-linejoin="round" stroke-width="2"/>
    <line x1="16.03" x2="7.3724" y1="30.2428" y2="58.3026" fill="none" stroke="#000" stroke-linecap="round" stroke-linejoin="round" stroke-width="2"/>
    <line x1="22.1376" x2="15.4257" y1="33.8403" y2="33.8403" fill="none" stroke="#000" stroke-linecap="round" stroke-linejoin="round" stroke-width="2"/>
    <line x1="23.5954" x2="13.4405" y1="40.2758" y2="40.2758" fill="none" stroke="#000" stroke-linecap="round" stroke-linejoin="round" stroke-width="2"/>
    <line x1="21.6102" x2="11.4553" y1="46.7114" y2="46.7114" fill="none" stroke="#000" stroke-linecap="round" stroke-linejoin="round" stroke-width="2"/>
    <line x1="19.625" x2="9.4701" y1="53.1469" y2="53.1469" fill="none" stroke="#000" stroke-linecap="round" stroke-linejoin="round" stroke-width="2"/>
    <polyline fill="none" stroke="#000" stroke-linecap="round" stroke-linejoin="round" stroke-width="2" points="48.119 45.962 36.447 27.031 28.115 27.031"/>
    <path fill="none" stroke="#000" stroke-linecap="round" stroke-linejoin="round" stroke-width="2" d="m53.2028,58.3026h6.6826v-3.8061h-.5164c-1.9375.0002-3.8388-.5245-5.5019-1.5185"/>
    <path fill="none" stroke="#000" stroke-linecap="round" stroke-linejoin="round" stroke-width="2" d="m29.2434,22.9412l1.7632-6.88.0151-.07c.2801-1.3514,1.154-2.5048,2.3793-3.14,1.9853-.88,4.13.52,4.8041,3.14l1.8186,7.09,13.8743,22.58c1.3552,2.4993,3.919,4.1076,6.759,4.24h1.9706c1.1046,0,2,.8954,2,2v4.4018c0,1.1046-.8954,2-2,2h-2.7422"/>
    <path fill="none" stroke="#000" stroke-linecap="round" stroke-linejoin="round" stroke-width="2" d="m21.7457,27.0308h-8.2518l2.8112-10.97.0152-.07c.2801-1.3514,1.154-2.5048,2.3793-3.14,1.9853-.88,4.13.52,4.8041,3.14l1.8186,7.09,13.8743,22.58c1.3552,2.4993,3.919,4.1076,6.759,4.24h1.9706c1.1046,0,2,.8954,2,2v4.4018c0,1.1046-.8954,2-2,2h-6.9044l-19.2761-31.2718Z"/>
  </g>
</svg>
