<svg id="emoji" viewBox="0 0 72 72" xmlns="http://www.w3.org/2000/svg">
  <g id="line">
    <line x1="50" x2="23.78" y1="16.67" y2="16.67" fill="none" stroke="#000" stroke-linecap="round" stroke-miterlimit="10" stroke-width="2"/>
    <line x1="23.78" x2="50" y1="29.78" y2="29.78" fill="none" stroke="#000" stroke-linecap="round" stroke-miterlimit="10" stroke-width="2"/>
    <line x1="23.78" x2="50" y1="42.89" y2="42.89" fill="none" stroke="#000" stroke-linecap="round" stroke-miterlimit="10" stroke-width="2"/>
    <line x1="23.78" x2="50" y1="56" y2="56" fill="none" stroke="#000" stroke-linecap="round" stroke-miterlimit="10" stroke-width="2"/>
    <line x1="38.445" x2="42.815" y1="15.485" y2="15.485" fill="none" stroke="#000" stroke-linecap="round" stroke-miterlimit="10" stroke-width="2"/>
    <path fill="none" stroke="#000" stroke-linecap="round" stroke-miterlimit="10" stroke-width="2" d="M23.78,16.67c1.4057,1.3429,1.7607,3.6963,1.7607,6.376,0,2.937-.125,5.4819-1.7607,6.734"/>
    <path fill="none" stroke="#000" stroke-linecap="round" stroke-miterlimit="10" stroke-width="2" d="M23.78,29.78c1.4057,1.3429,1.7607,3.6963,1.7607,6.376,0,2.937-.125,5.4819-1.7607,6.734"/>
    <path fill="none" stroke="#000" stroke-linecap="round" stroke-miterlimit="10" stroke-width="2" d="M23.78,42.89c1.4057,1.3429,1.7607,3.6963,1.7607,6.376,0,2.937-.125,5.4819-1.7607,6.734"/>
    <path fill="none" stroke="#000" stroke-linecap="round" stroke-miterlimit="10" stroke-width="2" d="M50,16.67c-1.4057,1.3429-1.7607,3.6963-1.7607,6.376,0,2.937.125,5.4819,1.7607,6.734"/>
    <path fill="none" stroke="#000" stroke-linecap="round" stroke-miterlimit="10" stroke-width="2" d="M50,29.78c-1.4057,1.3429-1.7607,3.6963-1.7607,6.376,0,2.937.125,5.4819,1.7607,6.734"/>
    <path fill="none" stroke="#000" stroke-linecap="round" stroke-miterlimit="10" stroke-width="2" d="M50,42.89c-1.4057,1.3429-1.7607,3.6963-1.7607,6.376,0,2.937.125,5.4819,1.7607,6.734"/>
  </g>
</svg>
