<svg id="emoji" viewBox="0 0 72 72" version="1.1" xmlns="http://www.w3.org/2000/svg">
  <g id="line">
    <path fill="none" stroke="#000000" stroke-linecap="round" stroke-linejoin="round" stroke-miterlimit="10" stroke-width="2" d="M39,36.09v5.55l-15.78-1.03c0.01-0.02,0.02-0.04,0.05-0.07c1.12-1.34,5.87-6.26,14.83-5.45C38.61,35.14,39,35.58,39,36.09z"/>
    <line x1="63" x2="63" y1="44.36" y2="47" fill="none" stroke="#000000" stroke-linecap="round" stroke-linejoin="round" stroke-miterlimit="10" stroke-width="2"/>
    <path fill="none" stroke="#000000" stroke-linecap="round" stroke-linejoin="round" stroke-miterlimit="10" stroke-width="2.1213" d="M65,38.93v4.43c0,0.55-0.5063,1-1.125,1H60.5v-0.43c0-0.52-0.495-0.96-1.125-0.99L56,42.74v-3.81c0-0.55,0.5063-1,1.125-1h6.75 C64.4937,37.93,65,38.38,65,38.93z"/>
    <path fill="none" stroke="#000000" stroke-linecap="round" stroke-linejoin="round" stroke-miterlimit="10" stroke-width="2" d="M21.45,50c0,0-2.2-1.54-4.62-5c-0.61-0.86-1.23-1.84-1.83-2.94c-0.1-0.16-0.18-0.32-0.27-0.49c-0.37-0.7,0.21-1.51,1.03-1.45 l0.62,0.04l6.84,0.45L39,41.64l17,1.1l3,0.2c0.56,0.03,1,0.47,1,0.99v3.0908"/>
    <path fill="none" stroke="#000000" stroke-linecap="round" stroke-linejoin="round" stroke-miterlimit="10" stroke-width="2" d="M19.6215,40.304"/>
    <path fill="none" stroke="#000000" stroke-linecap="round" stroke-linejoin="round" stroke-miterlimit="10" stroke-width="2" d="M30,39.864"/>
    <path fill="none" stroke="#000000" stroke-linecap="round" stroke-linejoin="round" stroke-miterlimit="10" stroke-width="2" d="M5.0417,47.0208c3,0,9,3,15,3s10-3,16-3s11,3,16,3s7-3,15-3"/>
  </g>
</svg>
