<?xml version="1.0" encoding="utf-8"?>
<!-- Generator: Adobe Illustrator 21.1.0, SVG Export Plug-In . SVG Version: 6.00 Build 0)  -->
<svg version="1.1" id="emoji" xmlns="http://www.w3.org/2000/svg" xmlns:xlink="http://www.w3.org/1999/xlink" x="0px" y="0px"
	 viewBox="0 0 72 72" enable-background="new 0 0 72 72" xml:space="preserve">
<g id="_xD83D__xDEE9__xFE0F_">
	
		<line fill="none" stroke="#020203" stroke-width="2" stroke-linecap="round" stroke-linejoin="round" stroke-miterlimit="10" x1="49.4" y1="32.6" x2="47.9" y2="31.1"/>
	
		<line fill="none" stroke="#020203" stroke-width="2" stroke-linecap="round" stroke-linejoin="round" stroke-miterlimit="10" x1="40.9" y1="24.1" x2="39.4" y2="22.6"/>
	
		<line fill="none" stroke="#020203" stroke-width="2" stroke-linecap="round" stroke-linejoin="round" stroke-miterlimit="10" x1="40" y1="20.2" x2="37" y2="23.2"/>
	
		<line fill="none" stroke="#020203" stroke-width="2" stroke-linecap="round" stroke-linejoin="round" stroke-miterlimit="10" x1="51.7" y1="31.9" x2="48.7" y2="34.9"/>
	<path fill="none" stroke="#020203" stroke-width="2" stroke-linecap="round" stroke-linejoin="round" stroke-miterlimit="10" d="
		M36.6,41.2c-3.1,2.7-6.4,5.2-9,6.9l-1.9-2.5L24,44.3c1.7-2.6,4.2-5.8,6.8-8.9l1.9,2.3l0.5,0.6l0.6,0.5L36.6,41.2z"/>
	<path fill="none" stroke="#020203" stroke-width="2" stroke-linecap="round" stroke-linejoin="round" stroke-miterlimit="10" d="
		M49,30c0,0-0.4,0.4-1.1,1.1c-0.9,0.9-2.3,2.2-4,3.7l-3.6-3.4l-3-3.2c1.5-1.7,2.8-3.1,3.7-4C41.6,23.4,42,23,42,23s4-5,8-1
		S49,30,49,30z"/>
	<path fill="none" stroke="#020203" stroke-width="2" stroke-linecap="round" stroke-linejoin="round" stroke-miterlimit="10" d="
		M32,54.8l-2.2,3.2c-0.3,0.4-0.8,0.4-1.2,0.1L21.2,50l-8.3-7.6c-0.3-0.3-0.3-0.9,0.1-1.2l3.3-2.2c0.3-0.2,0.6-0.2,0.9,0l6.8,5.2
		l1.7,1.3l1.9,2.5L32,54C32.1,54.2,32.2,54.6,32,54.8z"/>
	<path fill="none" stroke="#020203" stroke-width="2" stroke-linecap="round" stroke-linejoin="round" stroke-miterlimit="10" d="
		M59.1,51.1l-5.6,3c-0.5,0.2-1.1,0.1-1.7-0.4L36.6,41.2l-2.8-2.3l-0.6-0.5l-0.5-0.6l-1.9-2.3l-13-15.8c-0.5-0.6-0.6-1.3-0.4-1.7
		l3-5.6c0.4-0.7,1.5-0.6,2.3,0.3l14.6,15.4l3,3.2l3.6,3.4l15,14.1C59.7,49.6,59.8,50.8,59.1,51.1z"/>
	
		<line fill="none" stroke="#020203" stroke-width="1.7979" stroke-linecap="round" stroke-linejoin="round" stroke-miterlimit="10" x1="45.2" y1="13.2" x2="59" y2="27"/>
	
		<line fill="none" stroke="#020203" stroke-width="1.7979" stroke-linecap="round" stroke-linejoin="round" stroke-miterlimit="10" x1="53.3" y1="18.8" x2="50.7" y2="21.5"/>
</g>
</svg>
