<svg id="emoji" viewBox="0 0 72 72" xmlns="http://www.w3.org/2000/svg">
  <g id="line">
    <path fill="none" stroke="#000000" stroke-miterlimit="10" stroke-width="2" d="M52.04,41.4402c0,0.31-0.07,0.61-0.2,0.88 c-0.02,0.05-0.04,0.09-0.07,0.14c-0.35,0.61-1.02,1.03-1.77,1.03c-0.18,0-0.35-0.02-0.51-0.08c-0.53-0.13-0.99-0.48-1.25-0.95 c-0.19-0.3-0.29-0.65-0.29-1.02c0-0.55,0.22-1.06,0.6-1.42c0.24-0.27,0.57-0.46,0.94-0.55c0.16-0.05,0.33-0.07,0.51-0.07 C51.12,39.4002,52.04,40.3202,52.04,41.4402z"/>
    <path fill="none" stroke="#000000" stroke-miterlimit="10" stroke-width="2" d="M38.195,41.4402c0,0.31-0.07,0.61-0.2,0.88 c-0.02,0.05-0.04,0.09-0.07,0.14c-0.35,0.61-1.02,1.03-1.77,1.03c-0.18,0-0.35-0.02-0.51-0.08c-0.53-0.13-0.99-0.48-1.25-0.95 c-0.19-0.3-0.29-0.65-0.29-1.02c0-0.55,0.22-1.06,0.6-1.42c0.24-0.27,0.57-0.46,0.94-0.55c0.16-0.05,0.33-0.07,0.51-0.07 C37.275,39.4002,38.195,40.3202,38.195,41.4402z"/>
    <path fill="none" stroke="#000000" stroke-miterlimit="10" stroke-width="2" d="M24.445,41.4402c0,0.31-0.07,0.61-0.2,0.88 c-0.02,0.05-0.04,0.09-0.07,0.14c-0.35,0.61-1.02,1.03-1.77,1.03c-0.18,0-0.35-0.02-0.51-0.08c-0.53-0.13-0.99-0.48-1.25-0.95 c-0.19-0.3-0.29-0.65-0.29-1.02c0-0.55,0.22-1.06,0.6-1.42c0.24-0.27,0.57-0.46,0.94-0.55c0.16-0.05,0.33-0.07,0.51-0.07 C23.525,39.4002,24.445,40.3202,24.445,41.4402z"/>
    <path fill="none" stroke="#000000" stroke-linecap="round" stroke-linejoin="round" stroke-miterlimit="10" stroke-width="2" d="M61.66,46.07c-0.3,0.3-4.65,0.55-10.69,0.73c-1.62,0.04-3.36,0.08-5.17,0.12c-1.18,0.02-2.4,0.04-3.64,0.05 c-0.42,0-0.83,0.01-1.25,0.01c-0.12,0.01-0.23,0.01-0.35,0.01C39.91,47,39.26,47,38.6,47.01c-1.01,0.01-2.02,0.02-3.04,0.02 c-3.04,0.02-6.08,0.01-8.92-0.02c-1.15-0.01-2.27-0.03-3.34-0.04c-0.16-0.01-0.31-0.01-0.47-0.01c-0.51-0.01-1.01-0.02-1.5-0.03 c-5.98-0.15-10.32-0.42-10.76-0.86c-0.71-0.72-0.77-1.43-0.61-1.98c0.17-0.65,0.61-1.09,0.61-1.09l10.22-7.15h30.65L61.66,43 c0,0,0.29,0.59,0.4,1.28C62.17,44.88,62.14,45.59,61.66,46.07z"/>
    <path fill="none" stroke="#000000" stroke-linecap="round" stroke-linejoin="round" stroke-miterlimit="10" stroke-width="2" d="M42.16,46.97c-0.42,0.01-0.84,0.01-1.26,0.02c0.01,0,0.01-0.01,0.01-0.01C41.33,46.98,41.74,46.97,42.16,46.97z"/>
    <path fill="none" stroke="#000000" stroke-linecap="round" stroke-linejoin="round" stroke-miterlimit="10" stroke-width="2" d="M50.97,46.8c-1.63,3.04-7.43,5.3-14.38,5.39c-0.15,0.01-0.31,0.01-0.47,0.01c-0.87,0-1.73-0.03-2.56-0.1 c-0.88-0.07-1.73-0.17-2.55-0.31c-4.63-0.76-8.24-2.53-9.61-4.75c-0.03-0.04-0.05-0.07-0.07-0.11c0.49,0.01,0.99,0.02,1.5,0.03 c0.16,0,0.31,0,0.47,0.01c1.07,0.01,2.19,0.03,3.34,0.04c2.84,0.03,5.88,0.04,8.92,0.02c1.02,0,2.03-0.01,3.04-0.02 c0.66-0.01,1.31-0.01,1.96-0.02h0.34c0.42-0.01,0.84-0.01,1.26-0.02c1.24-0.01,2.46-0.03,3.64-0.05 C47.61,46.88,49.35,46.84,50.97,46.8z"/>
    <path fill="none" stroke="#000000" stroke-linecap="round" stroke-linejoin="round" stroke-miterlimit="10" stroke-width="2" d="M40.91,46.98c0,0,0,0.01-0.01,0.01h-0.34C40.68,46.99,40.79,46.99,40.91,46.98z"/>
    <path fill="none" stroke="#000000" stroke-linecap="round" stroke-linejoin="round" stroke-miterlimit="10" stroke-width="2" d="M42.16,46.97c-0.42,0.01-0.84,0.01-1.26,0.02h-0.34c0.12,0,0.23,0,0.35-0.01C41.33,46.98,41.74,46.97,42.16,46.97z"/>
    <path fill="none" stroke="#000000" stroke-linecap="round" stroke-linejoin="round" stroke-miterlimit="10" stroke-width="2" d="M51.4,35.75v0.1H20.83v-0.09c0.19-2.67,1.07-5.16,2.46-7.28c2.3-3.5,5.98-6,10.27-6.72c0.83-0.14,1.69-0.21,2.56-0.21 c0.15,0,0.31,0,0.46,0.01C44.45,21.79,50.83,27.96,51.4,35.75z"/>
  </g>
</svg>
