<?xml version="1.0" encoding="utf-8"?>
<!-- Generator: Adobe Illustrator 21.1.0, SVG Export Plug-In . SVG Version: 6.00 Build 0)  -->
<svg version="1.1" id="emoji" xmlns="http://www.w3.org/2000/svg" xmlns:xlink="http://www.w3.org/1999/xlink" x="0px" y="0px"
	 viewBox="0 0 72 72" enable-background="new 0 0 72 72" xml:space="preserve">
<g id="_xD83D__xDEF5_">
	
		<ellipse transform="matrix(0.9997 -2.332741e-02 2.332741e-02 0.9997 -1.1828 0.3907)" fill="none" stroke="#000000" stroke-width="2" stroke-miterlimit="10" cx="16.2" cy="50.9" rx="5.5" ry="5.5"/>
	<circle fill="none" stroke="#000000" stroke-width="2" stroke-miterlimit="10" cx="51.4" cy="50.9" r="5.5"/>
	<path fill="none" stroke="#000000" stroke-width="2" stroke-linecap="round" stroke-linejoin="round" stroke-miterlimit="10" d="
		M26.3,50.8c0-0.5,0-0.9-0.1-1.4c-0.3-2-1.2-4-2.8-5.6c-3.9-3.9-10.2-3.9-14.1,0"/>
	<path fill="none" stroke="#000000" stroke-width="2" stroke-linecap="round" stroke-linejoin="round" stroke-miterlimit="10" d="
		M61.7,50.8c0-5.5-4.4-9.9-9.9-9.9c-5.5,0-9.9,4.4-9.9,9.9"/>
	
		<rect x="40.4" y="29.5" fill="none" stroke="#000000" stroke-width="2" stroke-linecap="round" stroke-linejoin="round" stroke-miterlimit="10" width="18.4" height="5.7"/>
	
		<polyline fill="none" stroke="#000000" stroke-width="2" stroke-linecap="round" stroke-linejoin="round" stroke-miterlimit="10" points="
		14.9,40.9 23.4,23.8 29.1,23.8 	"/>
	
		<line fill="none" stroke="#000000" stroke-width="2" stroke-linecap="round" stroke-linejoin="round" stroke-miterlimit="10" x1="26.3" y1="50.9" x2="41.9" y2="50.9"/>
	<path fill="none" stroke="#000000" stroke-width="2" stroke-linecap="round" stroke-linejoin="round" stroke-miterlimit="10" d="
		M40.4,35.2c0,0-5.7,21.3-17,0"/>
	<path fill="none" stroke="#000000" stroke-width="2" stroke-linecap="round" stroke-linejoin="round" stroke-miterlimit="10" d="
		M59.9,43.3"/>
	<path fill="none" stroke="#000000" stroke-width="2" stroke-linecap="round" stroke-linejoin="round" stroke-miterlimit="10" d="
		M58.9,35.2"/>
	<path fill="none" stroke="#000000" stroke-width="2" stroke-linecap="round" stroke-linejoin="round" stroke-miterlimit="10" d="
		M58.9,35.2c0,0,4.3,7.1,2.8,15.6"/>
</g>
</svg>
