<?xml version="1.0" encoding="utf-8"?>
<!-- Generator: Adobe Illustrator 21.1.0, SVG Export Plug-In . SVG Version: 6.00 Build 0)  -->
<svg version="1.1" id="emoji" xmlns="http://www.w3.org/2000/svg" xmlns:xlink="http://www.w3.org/1999/xlink" x="0px" y="0px"
	 viewBox="0 0 72 72" enable-background="new 0 0 72 72" xml:space="preserve">
<g id="_xD83D__xDEF4_">
	<circle fill="none" stroke="#000000" stroke-width="2" stroke-miterlimit="10" cx="18.7" cy="55.1" r="5"/>
	<circle fill="none" stroke="#000000" stroke-width="2" stroke-miterlimit="10" cx="55.3" cy="55.1" r="5"/>
	
		<polyline fill="none" stroke="#000000" stroke-width="2" stroke-linecap="round" stroke-linejoin="round" stroke-miterlimit="10" points="
		27.4,17.3 20.3,48.2 18.7,55.1 	"/>
	
		<path fill="none" stroke="#000000" stroke-width="1.9081" stroke-linecap="round" stroke-linejoin="round" stroke-miterlimit="10" d="
		M27.7,52.1h22.6v0.6c0,1.7-1.2,3-2.7,3H30.4c-1.5,0-2.7-1.3-2.7-3V52.1z"/>
	<path fill="none" stroke="#000000" stroke-width="2" stroke-linecap="round" stroke-linejoin="round" stroke-miterlimit="10" d="
		M28.1,17.4l-1.1-0.2c-0.5-0.1-0.9-0.7-0.8-1.2l0.4-2c0.1-0.5,0.7-0.9,1.2-0.8l1.1,0.2c0.5,0.1,0.9,0.7,0.8,1.2l-0.4,2
		C29.2,17.2,28.7,17.5,28.1,17.4z"/>
	
		<line fill="none" stroke="#000000" stroke-width="2" stroke-linecap="round" stroke-linejoin="round" stroke-miterlimit="10" x1="22.6" y1="39.9" x2="27.7" y2="52.1"/>
	
		<line fill="none" stroke="#000000" stroke-width="2" stroke-linecap="round" stroke-linejoin="round" stroke-miterlimit="10" x1="34.7" y1="15.2" x2="29.8" y2="14.2"/>
	
		<line fill="none" stroke="#000000" stroke-width="2" stroke-linecap="round" stroke-linejoin="round" stroke-miterlimit="10" x1="26.8" y1="13.7" x2="21.8" y2="12.7"/>
	
		<path fill="none" stroke="#000000" stroke-width="1.9081" stroke-linecap="round" stroke-linejoin="round" stroke-miterlimit="10" d="
		M41,15.9l-0.3,1.3c-0.1,0.5-0.6,0.9-1.1,0.8l-4.1-0.8c-0.5-0.1-0.9-0.6-0.8-1.1l0.3-1.3c0.1-0.5,0.6-0.9,1.1-0.8l4.1,0.8
		C40.7,14.8,41.1,15.4,41,15.9z"/>
	
		<path fill="none" stroke="#000000" stroke-width="1.9081" stroke-linecap="round" stroke-linejoin="round" stroke-miterlimit="10" d="
		M21.5,11.9l-0.3,1.3c-0.1,0.5-0.6,0.9-1.1,0.8L16,13.2c-0.5-0.1-0.9-0.6-0.8-1.1l0.3-1.3c0.1-0.5,0.6-0.9,1.1-0.8l4.1,0.8
		C21.2,10.9,21.6,11.4,21.5,11.9z"/>
</g>
</svg>
