<?xml version="1.0" encoding="utf-8"?>
<!-- Generator: Adobe Illustrator 21.1.0, SVG Export Plug-In . SVG Version: 6.00 Build 0)  -->
<svg version="1.1" id="emoji" xmlns="http://www.w3.org/2000/svg" xmlns:xlink="http://www.w3.org/1999/xlink" x="0px" y="0px"
	 viewBox="0 0 72 72" enable-background="new 0 0 72 72" xml:space="preserve">
<g id="_xD83E__xDD16_">
	<path fill="none" stroke="#1D1E1C" stroke-width="2" stroke-linecap="round" stroke-linejoin="round" stroke-miterlimit="2" d="
		M36.5,23.2"/>
	<path fill="none" stroke="#1D1E1C" stroke-width="2" stroke-linecap="round" stroke-linejoin="round" stroke-miterlimit="2" d="
		M34,17.8v-2.5c0-1.4,1.1-2.5,2.5-2.5l0,0c1.4,0,2.5,1.1,2.5,2.5v2.5"/>
	<path fill="none" stroke="#1D1E1C" stroke-width="2" stroke-linecap="round" stroke-linejoin="round" stroke-miterlimit="2" d="
		M47.5,57.8H24.5c-4.7,0-8.5-3.8-8.5-8.5V26.3c0-4.7,3.8-8.5,8.5-8.5h22.9c4.7,0,8.5,3.8,8.5,8.5v22.9C56,53.9,52.2,57.8,47.5,57.8z
		"/>
	
		<ellipse transform="matrix(0.285 -0.9585 0.9585 0.285 2.5629 64.9773)" fill="none" stroke="#1D1E1C" stroke-width="2" stroke-linecap="round" stroke-linejoin="round" stroke-miterlimit="2" cx="44.8" cy="30.8" rx="2.8" ry="2.8"/>
	
		<ellipse transform="matrix(0.285 -0.9585 0.9585 0.285 -9.95 48.203)" fill="none" stroke="#1D1E1C" stroke-width="2" stroke-linecap="round" stroke-linejoin="round" stroke-miterlimit="2" cx="27.3" cy="30.8" rx="2.8" ry="2.8"/>
	<g>
		<path fill="none" stroke="#1D1E1C" stroke-width="2" stroke-miterlimit="2" d="M44.5,49.3h-17c-2.2,0-4-1.8-4-4l0,0
			c0-2.2,1.8-4,4-4h17c2.2,0,4,1.8,4,4l0,0C48.5,47.5,46.7,49.3,44.5,49.3z"/>
	</g>
	<path fill="none" stroke="#1D1E1C" stroke-width="2" stroke-linecap="round" stroke-linejoin="round" stroke-miterlimit="2" d="
		M13.5,42.8L13.5,42.8c-1.4,0-2.5-1.1-2.5-2.5v-8c0-1.4,1.1-2.5,2.5-2.5l0,0c1.4,0,2.5,1.1,2.5,2.5v8C16,41.7,14.9,42.8,13.5,42.8z"
		/>
	<path fill="none" stroke="#1D1E1C" stroke-width="2" stroke-linecap="round" stroke-linejoin="round" stroke-miterlimit="2" d="
		M58.5,42.8L58.5,42.8c1.4,0,2.5-1.1,2.5-2.5v-8c0-1.4-1.1-2.5-2.5-2.5l0,0c-1.4,0-2.5,1.1-2.5,2.5v8C56,41.7,57.1,42.8,58.5,42.8z"
		/>
	<path fill="none" stroke="#1D1E1C" stroke-miterlimit="10" d="M36.5,39.3"/>
	<path fill="none" stroke="#1D1E1C" stroke-miterlimit="10" d="M36.5,59.3"/>
	
		<line fill="none" stroke="#1D1E1C" stroke-width="2" stroke-linecap="round" stroke-linejoin="round" stroke-miterlimit="2" x1="28" y1="41.8" x2="28" y2="48.8"/>
	
		<line fill="none" stroke="#1D1E1C" stroke-width="2" stroke-linecap="round" stroke-linejoin="round" stroke-miterlimit="2" x1="33" y1="41.8" x2="33" y2="48.8"/>
	
		<line fill="none" stroke="#1D1E1C" stroke-width="2" stroke-linecap="round" stroke-linejoin="round" stroke-miterlimit="2" x1="38" y1="41.8" x2="38" y2="48.8"/>
	
		<line fill="none" stroke="#1D1E1C" stroke-width="2" stroke-linecap="round" stroke-linejoin="round" stroke-miterlimit="2" x1="43" y1="41.8" x2="43" y2="48.8"/>
</g>
</svg>
