<?xml version="1.0" encoding="utf-8"?>
<!-- Generator: Adobe Illustrator 21.1.0, SVG Export Plug-In . SVG Version: 6.00 Build 0)  -->
<svg version="1.1" id="emoji" xmlns="http://www.w3.org/2000/svg" xmlns:xlink="http://www.w3.org/1999/xlink" x="0px" y="0px"
	 viewBox="0 0 72 72" enable-background="new 0 0 72 72" xml:space="preserve">
<g>
	<path fill="none" stroke="#1D1E1C" stroke-width="2" stroke-linecap="round" stroke-linejoin="round" stroke-miterlimit="10" d="
		M13.2,32.8"/>
	<path fill="none" stroke="#1F201F" stroke-width="2" stroke-linecap="round" stroke-linejoin="round" stroke-miterlimit="10" d="
		M20.7,26.9c0.7-1.4,1.9-2.4,3.4-3c1.4-0.7,3-0.8,4.5-0.4"/>
	<path fill="none" stroke="#1F201F" stroke-width="2" stroke-linecap="round" stroke-linejoin="round" stroke-miterlimit="10" d="
		M51.2,26.9c-1.6-2.8-4.8-4.1-7.9-3.4"/>
	<path fill="none" stroke="#000000" stroke-width="2" stroke-linecap="round" stroke-linejoin="round" stroke-miterlimit="10" d="
		M57.3,26.3c-3.6-8-11.6-13.6-20.9-13.6c-12.6,0-22.9,10.2-22.9,22.9c0,12.6,10.2,22.9,22.9,22.9c10.6,0,19.5-7.2,22.1-16.9"/>
	<circle cx="44.6" cy="34.1" r="2.7"/>
	<circle cx="27.4" cy="34.1" r="2.7"/>
	<path fill="none" stroke="#000000" stroke-width="2" stroke-linecap="round" stroke-linejoin="round" stroke-miterlimit="10" d="
		M20.7,26.9c0.7-1.4,1.9-2.4,3.4-3c1.4-0.7,3-0.8,4.5-0.4"/>
	<path fill="none" stroke="#000000" stroke-width="2" stroke-linecap="round" stroke-linejoin="round" stroke-miterlimit="10" d="
		M51.2,26.9c-1.6-2.8-4.8-4.1-7.9-3.4"/>
	<path fill="#FFFFFF" stroke="#000000" stroke-miterlimit="10" d="M40.5,49l-0.7-0.8c-0.7-0.9-0.6-2.2,0.2-2.9L57,30.9
		c0.9-0.7,2.2-0.6,2.9,0.2l0.7,0.8c0.7,0.9,0.6,2.2-0.2,2.9L43.4,49.2C42.6,50,41.3,49.9,40.5,49z"/>
	<path fill="none" stroke="#000000" stroke-width="2" stroke-linecap="round" stroke-linejoin="round" stroke-miterlimit="10" d="
		M30,50.4c4.3-2.3,9.1-2.4,12.8,0"/>
	<path fill="none" stroke="#000000" stroke-width="2" stroke-miterlimit="10" d="M40.5,49l-0.7-0.8c-0.7-0.9-0.6-2.2,0.2-2.9
		L57,30.9c0.9-0.7,2.2-0.6,2.9,0.2l0.7,0.8c0.7,0.9,0.6,2.2-0.2,2.9L43.4,49.2C42.6,50,41.3,49.9,40.5,49z"/>
</g>
</svg>
