<?xml version="1.0" encoding="utf-8"?>
<!-- Generator: Adobe Illustrator 21.1.0, SVG Export Plug-In . SVG Version: 6.00 Build 0)  -->
<svg version="1.1" id="emoji" xmlns="http://www.w3.org/2000/svg" xmlns:xlink="http://www.w3.org/1999/xlink" x="0px" y="0px"
	 viewBox="0 0 72 72" enable-background="new 0 0 72 72" xml:space="preserve">
<g id="_xD83E__xDD17_">
	<path fill="none" stroke="#000000" stroke-width="2" stroke-linecap="round" stroke-linejoin="round" stroke-miterlimit="10" d="
		M55.3,43.2c1.9-3.4,3-7.2,3-11.4c0-12.7-10.3-23-23-23c-12.7,0-23,10.3-23,23c0,3.9,1,7.5,2.7,10.7c0.1,0.3,0.3,0.6,0.5,0.8"/>
	<path fill="none" stroke="#000000" stroke-width="2" stroke-linecap="round" stroke-linejoin="round" stroke-miterlimit="10" d="
		M29,54c2,0.6,4.2,0.9,6.4,0.9c2.1,0,4.2-0.3,6.2-0.8"/>
	<path fill="none" stroke="#000000" stroke-width="2" stroke-linecap="round" stroke-linejoin="round" stroke-miterlimit="10" d="
		M45.2,40.7c-5.9,4.7-14.1,4.7-19.6,0"/>
	<path d="M31.2,30.1c-0.4,0-0.7-0.2-0.9-0.6c0,0-1.2-2.3-3.4-2.3c-2.2,0-3.4,2.3-3.4,2.3c-0.2,0.5-0.8,0.7-1.3,0.4
		c-0.5-0.2-0.7-0.8-0.4-1.3c0.1-0.1,1.8-3.4,5.2-3.4s5.1,3.3,5.2,3.4c0.2,0.5,0,1.1-0.4,1.3C31.5,30,31.4,30.1,31.2,30.1z"/>
	<path d="M48.5,30.1c-0.4,0-0.7-0.2-0.9-0.6c0,0-1.2-2.3-3.4-2.3c-2.2,0-3.4,2.3-3.4,2.3c-0.2,0.5-0.8,0.7-1.3,0.4
		c-0.5-0.2-0.7-0.8-0.4-1.3c0.1-0.1,1.8-3.4,5.2-3.4c3.5,0,5.1,3.3,5.2,3.4c0.2,0.5,0,1.1-0.4,1.3C48.8,30,48.6,30.1,48.5,30.1z"/>
	<path fill="none" stroke="#000000" stroke-width="2" stroke-linecap="round" stroke-linejoin="round" stroke-miterlimit="10" d="
		M26.9,59.1l-1.7-0.8c0,0,0.1-3.6-0.3-4.6c-0.5-1.3-2.3-4.5-4.1-7.6c-0.7-1.2-2.7-1.3-2.7,0.9c0,0.9,0.8,3,0.4,3.9
		c0,0-5.2-2.3-8-4.2c-1.7-1.2-4.4,1-1.2,3.4c1.4,1,4.2,2.4,6,3.3"/>
	<path fill="none" stroke="#000000" stroke-width="2" stroke-linecap="round" stroke-linejoin="round" stroke-miterlimit="10" d="
		M13.5,57.1c-3.8-1.8-6.9-3.9-8-5c-2.2-2-0.2-4.6,3.3-2.4"/>
	<path fill="none" stroke="#000000" stroke-width="2" stroke-linecap="round" stroke-linejoin="round" stroke-miterlimit="10" d="
		M23.4,65.6C22.6,65,22,64.5,22,64.5c-0.9-0.4-3.3,0-9.4-3.5c-1.5-0.9-5.1-3.4-5.9-4c-2.8-2.2-0.6-3.9,1.6-2.8"/>
	<path fill="none" stroke="#000000" stroke-width="2" stroke-linecap="round" stroke-linejoin="round" stroke-miterlimit="10" d="
		M43.8,59.1l1.7-0.8c0,0-0.1-3.6,0.3-4.6c0.5-1.3,2.3-4.5,4.1-7.6c0.7-1.2,2.7-1.3,2.7,0.9c0,0.9-0.8,3-0.4,3.9c0,0,5.2-2.3,8-4.2
		c1.7-1.2,4.4,1,1.2,3.4c-1.4,1-4.2,2.4-6,3.3"/>
	<path fill="none" stroke="#000000" stroke-width="2" stroke-linecap="round" stroke-linejoin="round" stroke-miterlimit="10" d="
		M57.3,57.1c3.8-1.8,6.9-3.9,8-5c2.2-2,0.2-4.6-3.3-2.4"/>
	<path fill="none" stroke="#000000" stroke-width="2" stroke-linecap="round" stroke-linejoin="round" stroke-miterlimit="10" d="
		M47.3,65.6c0.8-0.7,1.4-1.1,1.5-1.1c0.9-0.4,3.3,0,9.4-3.5c1.5-0.9,5.1-3.4,5.9-4c2.8-2.2,0.6-3.9-1.6-2.8"/>
	<path fill="none" stroke="#1F201E" stroke-width="2" stroke-linecap="round" stroke-linejoin="round" stroke-miterlimit="10" d="
		M30.5,62.8"/>
</g>
</svg>
