<?xml version="1.0" encoding="utf-8"?>
<!-- Generator: Adobe Illustrator 21.1.0, SVG Export Plug-In . SVG Version: 6.00 Build 0)  -->
<svg version="1.1" id="emoji" xmlns="http://www.w3.org/2000/svg" xmlns:xlink="http://www.w3.org/1999/xlink" x="0px" y="0px"
	 viewBox="0 0 72 72" enable-background="new 0 0 72 72" xml:space="preserve">
<g>
	<path fill="none" stroke="#000000" stroke-width="2" stroke-linecap="round" stroke-linejoin="round" stroke-miterlimit="10" d="
		M28.9,38.7c2.4-0.7,11.9,0.5,14.1,2.1"/>
	<path fill="none" stroke="#000000" stroke-width="2" stroke-linecap="round" stroke-linejoin="round" stroke-miterlimit="10" d="
		M22.4,16.8c1.3-0.9,2.8-1.3,4.4-1.1c1.6,0,3.1,0.7,4.2,1.7"/>
	<path fill="none" stroke="#000000" stroke-width="2" stroke-linecap="round" stroke-linejoin="round" stroke-miterlimit="10" d="
		M51.1,20.8c-2.8-0.7-5.4-0.8-8.2-0.3"/>
	<path fill="none" stroke="#000000" stroke-width="2" stroke-linecap="round" stroke-linejoin="round" stroke-miterlimit="10" d="
		M42,52.6C51.8,50,59,41,59,30.4c0-12.7-10.3-23-23-23c-12.7,0-23,10.3-23,23c0,4.8,1.5,9.3,4,13"/>
	<ellipse transform="matrix(0.1892 -0.9819 0.9819 0.1892 9.0034 67.0452)" cx="45.1" cy="28.1" rx="2.9" ry="2.9"/>
	<ellipse transform="matrix(0.1892 -0.9819 0.9819 0.1892 -1.5246 47.7663)" cx="28.2" cy="24.8" rx="2.9" ry="2.9"/>
	<path fill="none" stroke="#000000" stroke-width="2" stroke-linecap="round" stroke-linejoin="round" stroke-miterlimit="10" d="
		M35.5,63.8l-9.1,2.8c-4.4,1.4-8.6-1.3-9.9-5.7c-1.3-4.3,0.6-7.8,0.6-7.8"/>
	<g>
		<path fill="none" stroke="#000000" stroke-width="2" stroke-linecap="round" stroke-linejoin="round" stroke-miterlimit="10" d="
			M30.9,48.8L24,50.9c0,0,0,0,0.8-10.8c0.1-1.2-2.1-1.6-2.8,0.3C17,53.1,17,53.1,17,53.1"/>
	</g>
	<g>
		<path fill="none" stroke="#000000" stroke-width="2" stroke-linecap="round" stroke-linejoin="round" stroke-miterlimit="10" d="
			M35.1,51.2l5-1.5c2.1-0.6,3.6-1.9,3.3-2.8c-0.3-0.9-2.2-1.1-4.3-0.5l-13.7,4.2"/>
	</g>
	<g>
		<path fill="none" stroke="#000000" stroke-width="2" stroke-linecap="round" stroke-linejoin="round" stroke-miterlimit="10" d="
			M33.8,64.3c0,0,1.2-0.4,2.7-0.8c1.5-0.5,2.5-1.7,2.1-2.8c-0.3-1.1-1.5-1.7-2.5-1.4c-1.1,0.3-1.9,0.6-1.9,0.6"/>
	</g>
	<g>
		<path fill="none" stroke="#000000" stroke-width="2" stroke-linecap="round" stroke-linejoin="round" stroke-miterlimit="10" d="
			M34.6,55.6c0,0,0.9-0.3,1.9-0.6s1.6-1.5,1.3-2.5c-0.3-1.1-1.5-1.7-2.6-1.4c-1.1,0.3-2,0.6-2,0.6"/>
	</g>
	<g>
		<path fill="none" stroke="#000000" stroke-width="2" stroke-linecap="round" stroke-linejoin="round" stroke-miterlimit="10" d="
			M34.5,59.8c0,0,1-0.3,2.3-0.7c1.3-0.4,2-1.6,1.7-2.6c-0.3-1-1.4-1.6-2.5-1.3s-1.9,0.6-1.9,0.6"/>
	</g>
</g>
</svg>
