<svg id="emoji" xmlns="http://www.w3.org/2000/svg" viewBox="0 0 72 72">
  <g id="line">
    <polygon id="SVGID_1_" points="34.4137,12.6707 25.7839,14.3504 20.4841,17.3709 15.5934,22.45 12.1637,29.8006 12.1637,42.1404 
				17.7633,51.5408 25.7839,56.991 34.4137,58.6707 41.5934,57.5203 49.3034,53.1903 54.4137,47.0311 57.4137,37.8211 
				56.6637,29.8406 52.8542,21.9305 48.6442,17.6102 41.3942,13.7508 			" fill="#000000" stroke="none"></polygon>
    <path fill="none" stroke="#000000" stroke-width="2" stroke-linecap="round" stroke-linejoin="round" stroke-miterlimit="10" d="
		M42.7954,25.6549c0.5118,1.4757,1.551,2.708,2.9191,3.4606c1.2886,0.8968,2.8653,1.2782,4.4211,1.0743"></path>
    <circle cx="25.3876" cy="34.6512" r="2.6038" fill="#000000" stroke="none"></circle>
    <circle cx="42.6376" cy="34.6512" r="2.6038" fill="#000000" stroke="none"></circle>
    <path fill="none" stroke="#000000" stroke-width="2" stroke-linecap="round" stroke-linejoin="round" stroke-miterlimit="10" d="
		M31.5218,46.5585c0,0,5.7328-1.0685,11.6633,2.0944"></path>
    <path fill="none" stroke="#000000" stroke-width="2" stroke-linecap="round" stroke-linejoin="round" stroke-miterlimit="10" d="
		M51.2987,20.0533c-20.864,6.0726-38.3873,23.7989-38.3873,23.7989"></path>
    <path fill="none" stroke="#000000" stroke-width="2" stroke-linecap="round" stroke-linejoin="round" stroke-miterlimit="10" d="
		M56.0835,28.5333c-15.9396-3.5376-41.9481-1.9371-41.9481-1.9371"></path>
    <path fill="none" stroke="#000000" stroke-width="2" stroke-linecap="round" stroke-linejoin="round" stroke-miterlimit="10" d="
		M17.7793,19.9503c0,0,21.5837-1.5544,34.954,1.9832"></path>
    <path fill="none" stroke="#000000" stroke-width="2" stroke-linecap="round" stroke-linejoin="round" stroke-miterlimit="10" d="
		M56.2994,28.5784c-2.9896-9.2322-11.6583-15.9077-21.8858-15.9077c-12.7031,0-23,10.2969-23,23
		c0,2.8816,0.5299,5.6395,1.4977,8.1814"></path>
    <path fill="none" stroke="#000000" stroke-width="2" stroke-linecap="round" stroke-linejoin="round" stroke-miterlimit="10" d="
		M14.4984,47.1842c3.9786,6.8672,11.4072,11.4865,19.9152,11.4865c12.7022,0,23-10.2978,23-23c0-1.243-0.0986-2.4629-0.2884-3.6525"></path>
  </g>
</svg>