<?xml version="1.0" encoding="utf-8"?>
<!-- Generator: Adobe Illustrator 21.1.0, SVG Export Plug-In . SVG Version: 6.00 Build 0)  -->
<svg version="1.1" id="emoji" xmlns="http://www.w3.org/2000/svg" xmlns:xlink="http://www.w3.org/1999/xlink" x="0px" y="0px"
	 viewBox="0 0 72 72" enable-background="new 0 0 72 72" xml:space="preserve">
<g id="_xD83E__xDD1D_">
	<path fill="none" stroke="#1D1D1B" stroke-width="2" stroke-linecap="round" stroke-linejoin="round" stroke-miterlimit="10" d="
		M12.3,42.8c0,0-6.9-6.3-8.4-9c-5-8.7,1.8-23,13.2-23.9"/>
	
		<line fill="none" stroke="#010101" stroke-width="2" stroke-linecap="round" stroke-linejoin="round" x1="37.6" y1="41.1" x2="52.8" y2="49.3"/>
	
		<line fill="none" stroke="#010101" stroke-width="2" stroke-linecap="round" stroke-linejoin="round" x1="31" y1="45.6" x2="47.6" y2="54"/>
	<polyline fill="none" stroke="#010101" stroke-width="2" stroke-linecap="round" stroke-linejoin="round" points="59.8,44.7 
		54.4,39.9 42.5,33.8 	"/>
	<path fill="none" stroke="#010101" stroke-width="2" stroke-linecap="round" stroke-linejoin="round" d="M37.4,56.1
		c9.3,5.9,11.7-0.3,10.2-2.1c3,1.7,6.8-0.6,5.2-4.6c4.1,2,7.6-1.1,7.1-4.6c3.6,0.7,5.9-2.3,4.8-5.8c8.3-5.7,8.6-22.6,0-27.9
		c-3.2-2.5-4.4,6.2-9.7,4.3L37.1,9.7l-10.7-3c-2.2-0.6-4.4,0.6-5.1,2.7L18,18.9c-0.8,1.9,0.1,4.1,2,4.9c2.1,0.5,4.2-0.5,5-2.5
		l1.3-2.2c0.9-2,2.6-4.4,5.2-3.4l26.1,15.1c2.7,1.8,6.5,6.3,7,7.9"/>
	<g>
		<path fill="none" stroke="#010101" stroke-width="2" stroke-linecap="round" stroke-linejoin="round" d="M30.9,53.8l-1.5,2.6
			c-1.2,1.6-0.9,3.8,0.7,4.9s3.8,0.9,4.9-0.7c0.2-0.2,0.3-0.5,0.5-0.8c0.3-0.7,1.5-2.6,1.5-2.6"/>
		<path fill="none" stroke="#010101" stroke-width="2" stroke-linecap="round" stroke-linejoin="round" d="M37,57.2
			c1.1-1.8,0-3.5-1.5-4.4c-1.6-0.9-3.4-0.6-4.5,0.9"/>
		<path fill="none" stroke="#010101" stroke-width="2" stroke-linecap="round" stroke-linejoin="round" d="M24.8,50.3l-1.5,2.6
			c-1.2,1.6-0.9,3.8,0.7,4.9c1.6,1.2,3.8,0.9,4.9-0.7c0.2-0.2,0.3-0.5,0.5-0.8c0.3-0.7,1.5-2.6,1.5-2.6"/>
		<path fill="none" stroke="#010101" stroke-width="2" stroke-linecap="round" stroke-linejoin="round" d="M30.9,53.7
			c1.1-1.8,0-3.5-1.5-4.4c-1.6-0.9-3.4-0.6-4.5,0.9"/>
		<path fill="none" stroke="#010101" stroke-width="2" stroke-linecap="round" stroke-linejoin="round" d="M18.7,46.8l-1.5,2.6
			c-1.2,1.6-0.9,3.8,0.7,4.9s3.8,0.9,4.9-0.7c0.2-0.2,0.3-0.5,0.5-0.8c0.3-0.7,1.5-2.6,1.5-2.6"/>
		<path fill="none" stroke="#010101" stroke-width="2" stroke-linecap="round" stroke-linejoin="round" d="M24.8,50.3
			c1.1-1.8,0-3.5-1.5-4.4c-1.6-0.9-3.4-0.6-4.5,0.9"/>
		<path fill="none" stroke="#010101" stroke-width="2" stroke-linecap="round" stroke-linejoin="round" d="M12.6,43.4l-1.5,2.6
			c-1.2,1.6-0.9,3.8,0.7,4.9s3.8,0.9,4.9-0.7c0.2-0.2,0.3-0.5,0.5-0.8c0.3-0.7,1.5-2.6,1.5-2.6"/>
		<path fill="none" stroke="#010101" stroke-width="2" stroke-linecap="round" stroke-linejoin="round" d="M18.7,46.8
			c1.1-1.8,0-3.5-1.5-4.4c-1.6-0.9-3.4-0.6-4.5,0.9"/>
	</g>
</g>
</svg>
