<?xml version="1.0" encoding="utf-8"?>
<!-- Generator: Adobe Illustrator 21.1.0, SVG Export Plug-In . SVG Version: 6.00 Build 0)  -->
<svg version="1.1" id="emoji" xmlns="http://www.w3.org/2000/svg" xmlns:xlink="http://www.w3.org/1999/xlink" x="0px" y="0px"
	 viewBox="0 0 72 72" enable-background="new 0 0 72 72" xml:space="preserve">
<g id="_xD83E__xDD12_">
	<path fill="none" stroke="#1F201F" stroke-width="2" stroke-linecap="round" stroke-linejoin="round" stroke-miterlimit="10" d="
		M18.7,25.7c0.8-1.6,2.2-2.8,3.8-3.4c1.6-0.8,3.4-1,5.1-0.5"/>
	<path fill="none" stroke="#1F201F" stroke-width="2" stroke-linecap="round" stroke-linejoin="round" stroke-miterlimit="10" d="
		M53.1,25.7c-1.8-3.1-5.4-4.7-8.9-3.9"/>
	<path fill="none" stroke="#000000" stroke-width="2" stroke-linecap="round" stroke-linejoin="round" stroke-miterlimit="10" d="
		M60,25.1C56,16.1,46.9,9.8,36.4,9.8c-14.3,0-25.9,11.6-25.9,25.9c0,14.3,11.6,25.9,25.9,25.9c12.6,0,23.1-9,25.4-20.9"/>
	<circle cx="45.7" cy="33.9" r="3"/>
	<circle cx="26.3" cy="33.9" r="3"/>
	<path fill="none" stroke="#000000" stroke-width="2" stroke-linecap="round" stroke-linejoin="round" stroke-miterlimit="10" d="
		M18.7,25.7c0.8-1.6,2.2-2.8,3.8-3.4c1.6-0.8,3.4-1,5.1-0.5"/>
	<path fill="none" stroke="#000000" stroke-width="2" stroke-linecap="round" stroke-linejoin="round" stroke-miterlimit="10" d="
		M53.1,25.7c-1.8-3.1-5.4-4.7-8.9-3.9"/>
	<path fill="none" stroke="#000000" stroke-miterlimit="10" d="M41.2,50.5l-0.8-0.9c-0.9-1-0.7-2.5,0.3-3.4l20-17
		c1-0.9,2.5-0.7,3.4,0.3l0.8,0.9c0.9,1,0.7,2.5-0.3,3.4l-20,17C43.6,51.7,42.1,51.6,41.2,50.5z"/>
	<path fill="none" stroke="#000000" stroke-width="2" stroke-linecap="round" stroke-linejoin="round" stroke-miterlimit="10" d="
		M29.2,52.4c4.8-2.6,10.3-2.7,14.5,0"/>
	<path fill="none" stroke="#000000" stroke-width="2" stroke-miterlimit="10" d="M41.2,50.5l-0.8-0.9c-0.9-1-0.7-2.5,0.3-3.4l20-17
		c1-0.9,2.5-0.7,3.4,0.3l0.8,0.9c0.9,1,0.7,2.5-0.3,3.4l-20,17C43.6,51.7,42.1,51.6,41.2,50.5z"/>
</g>
</svg>
