<svg id="emoji" viewBox="0 0 72 72" xmlns="http://www.w3.org/2000/svg">
  <g id="line">
    <path fill="none" stroke="#000000" stroke-linecap="round" stroke-linejoin="round" stroke-width="2" d="M19.1302,50.1933"/>
    <path fill="none" stroke="#000000" stroke-linecap="round" stroke-linejoin="round" stroke-width="2" d="M21.6616,43.9634 c-2.0638-0.1527-3.6226-1.9342-3.5-4v-7c-0.2578-1.933,1.1001-3.709,3.0331-3.9669c1.933-0.2578,3.709,1.1001,3.9669,3.0331 c0.0413,0.3099,0.0413,0.6239,0,0.9337v7C25.2842,42.0292,23.7254,43.8107,21.6616,43.9634z"/>
    <path fill="none" stroke="#000000" stroke-linecap="round" stroke-linejoin="round" stroke-width="2" d="M28.724,50.1933 c-2.0638-0.1527-3.6226-1.9342-3.5-4v-15c-0.2578-1.933,1.1001-3.709,3.0331-3.9669c1.933-0.2578,3.709,1.1001,3.9669,3.0331 c0.0413,0.3099,0.0413,0.6239,0,0.9337v15C32.3466,48.2591,30.7878,50.0406,28.724,50.1933z"/>
    <line x1="37.9375" x2="34.9665" y1="19.4375" y2="27.195" fill="none" stroke="#000000" stroke-linecap="round" stroke-linejoin="round" stroke-width="2"/>
    <path fill="none" stroke="#000000" stroke-linecap="round" stroke-linejoin="round" stroke-width="2" d="M51.5391,32.0863 L42.2667,7.68c-2.0167-4.6175-9.2042-1.7425-7.5148,2.7128l3.1856,9.0447l4.4316,12.533"/>
    <path fill="none" stroke="#000000" stroke-linecap="round" stroke-linejoin="round" stroke-width="2" d="M46.6991,19.3468 l3.2966-9.6649c0.9549-4.9474-6.5964-6.6514-7.729-2.0232"/>
    <path fill="none" stroke="#000000" stroke-linecap="round" stroke-linejoin="round" stroke-width="2" d="M18.1302,47.0806 c0,0-0.0905,4.1182,0,5.487c0.5722,8.6567,9.6883,15.0894,18.363,14.9617c9.667,0,17.893-6.833,17.893-16.878l-0.001-0.001 l-0.657-11.129c-0.1631-2.228-2.0023-3.9616-4.236-3.993h-10c-2.0658-0.1226-3.8473,1.4362-4,3.5 c0.1821,2.1099,1.8646,3.7781,3.976,3.942l1.049,0.117c2.187,0.242,3.976,1.342,3.976,2.442v2v0.44 c-2.1534,0.4577-4.1469,1.4784-5.777,2.958"/>
  </g>
</svg>
