<svg id="emoji" viewBox="0 0 72 72" version="1.1" xmlns="http://www.w3.org/2000/svg">
  <g id="line">
    <path fill="none" stroke="#000000" stroke-linecap="round" stroke-linejoin="round" stroke-miterlimit="10" stroke-width="2" d="M28.8884,38.7481c2.3711-0.667,11.8767,0.5356,14.0593,2.0654"/>
    <path fill="none" stroke="#000000" stroke-linecap="round" stroke-linejoin="round" stroke-miterlimit="10" stroke-width="2" d="M22.3595,16.7775c1.2836-0.8899,2.8496-1.2724,4.3983-1.0733c1.5696,0.0357,3.0678,0.6574,4.204,1.7396"/>
    <path fill="none" stroke="#000000" stroke-linecap="round" stroke-linejoin="round" stroke-miterlimit="10" stroke-width="2" d="M51.1306,20.7918c-2.7613-0.6555-5.3671-0.7511-8.242-0.2607"/>
    <path fill="none" stroke="#000000" stroke-linecap="round" stroke-linejoin="round" stroke-miterlimit="10" stroke-width="2" d="M42.0164,52.6252C51.8008,49.9804,59,41.0407,59,30.4201c0-12.7031-10.2978-23-23-23c-12.7031,0-23,10.2969-23,23 c0,4.8349,1.4919,9.3215,4.0404,13.0244"/>
    <path d="M31,25c0,1.6568-1.3448,3-3,3c-1.6553,0-3-1.3433-3-3c0-1.6552,1.3447-3,3-3C29.6552,22,31,23.3448,31,25"/>
    <path d="M48,28c0,1.6568-1.3447,3-3,3s-3-1.3433-3-3c0-1.6552,1.3447-3,3-3S48,26.3448,48,28"/>
    <path fill="none" stroke="#000000" stroke-linecap="round" stroke-linejoin="round" stroke-miterlimit="10" stroke-width="2" d="M35.4853,63.797l-9.0851,2.7606c-4.4471,1.3513-8.5667-1.2969-9.9177-5.7429c-1.2991-4.2753,0.5611-7.7594,0.5611-7.7594"/>
    <path fill="none" stroke="#000000" stroke-linecap="round" stroke-linejoin="round" stroke-miterlimit="10" stroke-width="2" d="M30.9385,48.8333l-6.9474,2.111c0,0,0,0,0.818-10.7562c0.0947-1.2453-2.1081-1.5776-2.8345,0.2775 c-4.9309,12.5898-4.9309,12.5898-4.9309,12.5898"/>
    <path fill="none" stroke="#000000" stroke-linecap="round" stroke-linejoin="round" stroke-miterlimit="10" stroke-width="2" d="M35.0824,51.1807l4.9606-1.5073c2.105-0.6396,3.6015-1.9058,3.3256-2.8138s-2.2239-1.1275-4.3288-0.4879l-13.6938,4.161"/>
    <path fill="none" stroke="#000000" stroke-linecap="round" stroke-linejoin="round" stroke-miterlimit="10" stroke-width="2" d="M33.7789,64.3155c0,0,1.2343-0.3751,2.743-0.8335c1.5086-0.4584,2.4739-1.719,2.1451-2.8013 c-0.3289-1.0823-1.4686-1.7033-2.5327-1.38s-1.9347,0.5879-1.9347,0.5879"/>
    <path fill="none" stroke="#000000" stroke-linecap="round" stroke-linejoin="round" stroke-miterlimit="10" stroke-width="2" d="M34.6494,55.5854c0,0,0.8607-0.2615,1.9126-0.5812s1.6452-1.461,1.3185-2.5365c-0.3268-1.0754-1.4819-1.6855-2.567-1.3558 c-1.0851,0.3297-1.9729,0.5995-1.9729,0.5995"/>
    <path fill="none" stroke="#000000" stroke-linecap="round" stroke-linejoin="round" stroke-miterlimit="10" stroke-width="2" d="M34.5143,59.793c0,0,1.0316-0.3135,2.2925-0.6966c1.2609-0.3831,2.0315-1.5555,1.7125-2.6053s-1.4451-1.6458-2.5024-1.3246 s-1.9225,0.5842-1.9225,0.5842"/>
  </g>
</svg>
