<?xml version="1.0" encoding="utf-8"?>
<!-- Generator: Adobe Illustrator 21.1.0, SVG Export Plug-In . SVG Version: 6.00 Build 0)  -->
<svg version="1.1" id="emoji" xmlns="http://www.w3.org/2000/svg" xmlns:xlink="http://www.w3.org/1999/xlink" x="0px" y="0px"
	 viewBox="0 0 72 72" enable-background="new 0 0 72 72" xml:space="preserve">
<g>
	<path fill="none" stroke="#20201F" stroke-width="2" stroke-linecap="round" stroke-linejoin="round" stroke-miterlimit="10" d="
		M50.4,43.5"/>
	<path fill="none" stroke="#20201F" stroke-width="2" stroke-linecap="round" stroke-linejoin="round" stroke-miterlimit="10" d="
		M22.4,43.5"/>
	
		<polyline fill="none" stroke="#000000" stroke-width="2" stroke-linecap="round" stroke-linejoin="round" stroke-miterlimit="10" points="
		25.9,25.9 32.4,29.9 25.9,33.7 	"/>
	
		<polyline fill="none" stroke="#000000" stroke-width="2" stroke-linecap="round" stroke-linejoin="round" stroke-miterlimit="10" points="
		47.5,25.9 40.9,29.9 47.5,33.7 	"/>
	<path fill="none" stroke="#000000" stroke-width="2" stroke-linecap="round" stroke-linejoin="round" stroke-miterlimit="10" d="
		M54.6,49.5c3-3.9,4.8-8.8,4.8-14c0-12.7-10.3-23-23-23c-12.7,0-23,10.3-23,23c0,6,2.3,11.4,6,15.5"/>
	<path fill="none" stroke="#000000" stroke-width="2" stroke-linecap="round" stroke-linejoin="round" stroke-miterlimit="10" d="
		M43.8,18.6c0.5,1.5,1.6,2.7,3,3.4c1.3,0.9,2.9,1.2,4.4,1"/>
	<path fill="none" stroke="#000000" stroke-width="2" stroke-linecap="round" stroke-linejoin="round" stroke-miterlimit="10" d="
		M29.2,18.6c-0.5,1.5-1.6,2.7-3,3.4c-1.3,0.9-2.9,1.2-4.4,1"/>
	<path fill="none" stroke="#000000" stroke-width="2" stroke-linecap="round" stroke-linejoin="round" stroke-miterlimit="10" d="
		M25.7,51.2c-0.1-0.3-0.2-0.5-0.4-0.8c-0.3-0.9-0.5-1.9-0.5-2.9c0-5.4,5.3-9.8,11.7-9.8s11.7,4.4,11.7,9.8c0,1.2-0.2,2.3-0.7,3.3"/>
	<path fill="none" stroke="#000000" stroke-width="2" stroke-linecap="round" stroke-linejoin="round" stroke-miterlimit="10" d="
		M29.6,61.3c-0.2,1.2-1.6,2.2-2.8,2.2c-1.4,0-2.5-1.1-2.5-2.5"/>
	<path fill="none" stroke="#000000" stroke-width="2" stroke-linecap="round" stroke-linejoin="round" stroke-miterlimit="10" d="
		M24,61c-1.4,0-2.9-0.9-2.9-2.3c0-1.4,1.1-2.5,2.5-2.5"/>
	<path fill="none" stroke="#000000" stroke-width="2" stroke-linecap="round" stroke-linejoin="round" stroke-miterlimit="10" d="
		M25.7,51.2c-1.4,0-3.1,1.4-3.1,2.8c0,0.9,0.4,1.6,1.1,2.1"/>
	<path fill="none" stroke="#000000" stroke-width="2" stroke-linecap="round" stroke-linejoin="round" stroke-miterlimit="10" d="
		M34.3,61.5c-0.2,1.1-1.5,1.9-2.8,1.6c-1.1-0.2-1.9-1-2-2"/>
	<path fill="none" stroke="#000000" stroke-width="2" stroke-linecap="round" stroke-linejoin="round" stroke-miterlimit="10" d="
		M39.5,61.2c-0.3,1-1.3,1.8-2.4,1.8c-1.1,0-2.3-0.9-2.6-1.9"/>
	<path fill="none" stroke="#000000" stroke-width="2" stroke-linecap="round" stroke-linejoin="round" stroke-miterlimit="10" d="
		M45,61c0,1.4-1.1,2.5-2.5,2.5s-2.9-0.9-2.9-2.3"/>
	<path fill="none" stroke="#000000" stroke-width="2" stroke-linecap="round" stroke-linejoin="round" stroke-miterlimit="10" d="
		M47.7,50.8c2.5,0,5.3,1.9,5.3,3.6c0,1.2-0.9,2.2-2.3,2.7"/>
	<path fill="none" stroke="#000000" stroke-width="2" stroke-linecap="round" stroke-linejoin="round" stroke-miterlimit="10" d="
		M50.8,57.5c1,2.8-1.3,4.3-3.1,4.6c-1,0.1-2-0.2-2.7-0.9"/>
</g>
</svg>
