<?xml version="1.0" encoding="utf-8"?>
<!-- Generator: Adobe Illustrator 21.1.0, SVG Export Plug-In . SVG Version: 6.00 Build 0)  -->
<svg version="1.1" id="emoji" xmlns="http://www.w3.org/2000/svg" xmlns:xlink="http://www.w3.org/1999/xlink" x="0px" y="0px"
	 viewBox="0 0 72 72" enable-background="new 0 0 72 72" xml:space="preserve">
<g>
	<path fill="none" stroke="#1F201F" stroke-width="2" stroke-linecap="round" stroke-linejoin="round" stroke-miterlimit="10" d="
		M49.2,38.2"/>
	<path fill="none" stroke="#1F201F" stroke-width="2" stroke-linecap="round" stroke-linejoin="round" stroke-miterlimit="10" d="
		M23.4,49"/>
	<path fill="none" stroke="#000000" stroke-width="2" stroke-linecap="round" stroke-linejoin="round" stroke-miterlimit="10" d="
		M22.1,47.2c0,0,15-2.4,26.6-11.1"/>
	<path fill="none" stroke="#000000" stroke-width="2" stroke-linecap="round" stroke-linejoin="round" stroke-miterlimit="10" d="
		M48.8,36c2.5,6,0.1,12.7-8.9,16.4c-8.9,3.8-15.5,0.9-18-5.1"/>
	<path fill="none" stroke="#000000" stroke-width="2" stroke-linejoin="round" stroke-miterlimit="10" d="M24.2,51
		c0,0,14.7-2.3,26-10.9"/>
	
		<polyline fill="none" stroke="#000000" stroke-width="2" stroke-linecap="round" stroke-linejoin="round" stroke-miterlimit="10" points="
		20.2,32.4 27.8,33.5 23.2,39.5 	"/>
	
		<polyline fill="none" stroke="#000000" stroke-width="2" stroke-linecap="round" stroke-linejoin="round" stroke-miterlimit="10" points="
		40.1,24 35.6,30.2 43.1,31.1 	"/>
	<path fill="none" stroke="#000000" stroke-width="2" stroke-linecap="round" stroke-linejoin="round" stroke-miterlimit="10" d="
		M53,24.9c0,0-0.1-0.1-0.1-0.1c-5.7-9.9-18-14.3-28.8-9.7C13.4,19.5,8,31.3,10.9,42.2c0,0.1,0.1,0.3,0.1,0.4"/>
	<path d="M62.1,38.7c-1.4,0.6-2.9,0.6-4.3,0c-4.5-1.9-7.1-7.9-7.2-8.2c-0.2-0.5,0-1.1,0.6-1.4c0.3-0.1,6.3-2.6,10.9-0.8l0,0
		c2.8,1.2,4.2,4.4,3.1,7.3C64.5,37.1,63.4,38.1,62.1,38.7z M53,30.8c0.9,1.7,2.9,4.9,5.6,6c1.7,0.7,3.8-0.2,4.5-1.9
		c0.7-1.8-0.1-3.8-1.9-4.5l0,0C58.5,29.2,54.8,30.2,53,30.8z"/>
	<path fill="none" stroke="#000000" stroke-width="2" stroke-linecap="round" stroke-linejoin="round" stroke-miterlimit="10" d="
		M20.9,55.7c6.1,3.7,14,4.7,21.1,1.7c7.1-3,11.9-9.3,13.5-16.2"/>
	<path d="M6.8,55c-0.5-1.4-0.3-2.9,0.3-4.3c2.2-4.4,8.5-6.5,8.7-6.5c0.6-0.2,1.1,0.1,1.3,0.7c0.1,0.3,2.1,6.5-0.1,10.9l0,0
		c-1.4,2.7-4.8,3.8-7.5,2.5C8.2,57.6,7.2,56.4,6.8,55z M15.5,46.6c-1.7,0.7-5.1,2.5-6.5,5.1c-0.8,1.7-0.1,3.8,1.5,4.7
		c1.7,0.9,3.8,0.2,4.7-1.5l0,0C16.5,52.2,15.9,48.4,15.5,46.6z"/>
</g>
</svg>
