<svg id="emoji" viewBox="0 0 72 72" version="1.1" xmlns="http://www.w3.org/2000/svg">
  <g id="line">
    <path fill="none" stroke="#000000" stroke-linecap="round" stroke-linejoin="round" stroke-width="2" d="M20.4785,24.0044 c0.0371-1.1914,0.1895-2.5352,0.627-4.1616c1.4795-5.5,7.2773-8.9658,13.709-8.9658c5.4003,0,8,3,8,3 c4.1689,0.374,7.373,3.8515,7.4052,8.0371c0.3867,7.1796,1.0244,7.1523,3.4287,12.8222c1.7159,3.9698,1.0762,8.5567-1.6377,11.9038"/>
    <path d="M41.873,30c0,1.1045-0.8955,2-2,2c-1.1044,0-2-0.8955-2-2s0.8956-2,2-2C40.9775,28,41.873,28.8955,41.873,30"/>
    <path fill="none" stroke="#000000" stroke-linecap="round" stroke-linejoin="round" stroke-width="2" d="M37.4375,38 c1.75,0-0.875,0,1.5625,0"/>
    <path fill="none" stroke="#000000" stroke-linecap="round" stroke-linejoin="round" stroke-width="2" d="M55,60v-3 c0-4.9941-5.0059-9-10-9c-3.3652,2.8027-6.8389,3.6934-10.0937,3.6934c-0.7042,0-1.4415-0.0655-2.0538-0.1402"/>
    <path fill="none" stroke="#000000" stroke-linecap="round" stroke-linejoin="round" stroke-miterlimit="10" stroke-width="2" d="M32.3457,21.542C30.1553,24.8276,30.4473,24.3462,27,31"/>
    <path fill="none" stroke="#000000" stroke-linecap="round" stroke-linejoin="round" stroke-miterlimit="10" stroke-width="2" d="M22,32.6025c2.25-4.333,4.1094-7.81,5.5313-9.6025"/>
    <path fill="none" stroke="#000000" stroke-linecap="round" stroke-linejoin="round" stroke-miterlimit="10" stroke-width="2" d="M17,60c2-9,4-17.4111,4-17.4111S20.4141,41.8286,19,39c-2-4,0-9,2-12"/>
    <path fill="none" stroke="#000000" stroke-linecap="round" stroke-linejoin="round" stroke-miterlimit="10" stroke-width="2" d="M35,23c-1.2832,2.5649-2.8262,5.4771-4,9"/>
    <path fill="none" stroke="#000000" stroke-linecap="round" stroke-linejoin="round" stroke-miterlimit="10" stroke-width="2" d="M29,60c0.0049-0.5703-0.6973-9.4512,0-14.0137c0.2666-1.7461,2.1914-2.289,3-3.9863c1.9063-4,2.334-7.8057,3.9365-14"/>
    <path fill="none" stroke="#000000" stroke-linecap="round" stroke-linejoin="round" stroke-width="2" d="M37.3262,19.7109 c0.5107-0.5605,0.9062-1.1352,1.6738-1.7114c0,0,4,5.0005,7,8c0,0,1,2.0005,1,5.0005c0,9-5.127,14-11.0635,14 C35.7178,45,35.377,44.9771,35,44.9438"/>
  </g>
</svg>
