<svg id="emoji" viewBox="0 0 72 72" version="1.1" xmlns="http://www.w3.org/2000/svg">
  <g id="line">
    <path fill="none" stroke="#000000" stroke-linecap="round" stroke-linejoin="round" stroke-miterlimit="10" stroke-width="2" d="M32.3457,21.542C30.1553,24.8276,30.4473,24.3462,27,31"/>
    <path fill="none" stroke="#000000" stroke-linecap="round" stroke-linejoin="round" stroke-miterlimit="10" stroke-width="2" d="M22,32.6025c2.25-4.333,4.1094-7.81,5.5313-9.6025"/>
    <path fill="none" stroke="#000000" stroke-linecap="round" stroke-linejoin="round" stroke-miterlimit="10" stroke-width="2" d="M17,60c2-9,4-17.4111,4-17.4111S20.4141,41.8286,19,39c-2-4,0-9,2-12"/>
    <path fill="none" stroke="#000000" stroke-linecap="round" stroke-linejoin="round" stroke-miterlimit="10" stroke-width="2" d="M35,23c-1.2832,2.5649-2.8262,5.4771-4,9"/>
    <path fill="none" stroke="#000000" stroke-linecap="round" stroke-linejoin="round" stroke-miterlimit="10" stroke-width="2" d="M34,23"/>
    <path fill="none" stroke="#000000" stroke-linecap="round" stroke-linejoin="round" stroke-miterlimit="10" stroke-width="2" d="M29,60c0.0049-0.5703-0.6973-9.4512,0-14.0137c0.2666-1.7461,2.1914-2.289,3-3.9863c1.9063-4,2.334-7.8057,3.9365-14"/>
    <path fill="none" stroke="#000000" stroke-linecap="round" stroke-linejoin="round" stroke-width="2" d="M46,38c3,0,4-7,4-14 c0-6-5-12-14-12c-8.7617,0-13.7324,3.7915-13.9893,11.3735"/>
    <path d="M41.873,30c0,1.1045-0.8955,2-2,2c-1.1044,0-2-0.8955-2-2s0.8956-2,2-2C40.9775,28,41.873,28.8955,41.873,30"/>
    <path fill="none" stroke="#000000" stroke-linecap="round" stroke-linejoin="round" stroke-width="2" d="M37.4375,38 c1.75,0-0.875,0,1.5625,0"/>
    <path fill="none" stroke="#000000" stroke-linecap="round" stroke-linejoin="round" stroke-width="2" d="M37.998,20.6182 c0.712-0.1426,1.4581-0.2745,2.252-0.3789C41.3477,20.0947,42.5791,20,44,20c0,0,3,6,3,11c0,8-5.127,14-11.0635,14 c-0.4795,0-0.9531-0.0381-1.4179-0.1113"/>
    <path fill="none" stroke="#000000" stroke-linecap="round" stroke-linejoin="round" stroke-width="2" d="M55,60v-3 c0-4.9941-5.0059-9-10-9c-3.3652,2.8027-6.8389,3.6934-10.0937,3.6934c-0.7042,0-1.4415-0.0655-2.0538-0.1402"/>
  </g>
</svg>
