<?xml version="1.0" encoding="utf-8"?>
<!-- Generator: Adobe Illustrator 21.1.0, SVG Export Plug-In . SVG Version: 6.00 Build 0)  -->
<svg version="1.1" id="emoji" xmlns="http://www.w3.org/2000/svg" xmlns:xlink="http://www.w3.org/1999/xlink" x="0px" y="0px"
	 viewBox="0 0 72 72" enable-background="new 0 0 72 72" xml:space="preserve">
<g id="_xD83E__xDD2F_">
	<path fill="#1D1D1B" stroke="#1D1D1B" stroke-width="2" stroke-miterlimit="10" d="M20.7,23"/>
	<path fill="none" stroke="#010101" stroke-width="2" stroke-miterlimit="10" d="M15,29.6"/>
	<path fill="none" stroke="#1D1E1C" stroke-width="2" stroke-linecap="round" stroke-linejoin="round" stroke-miterlimit="10" d="
		M55,29.6c1.9,3.4,3,7.3,3,11.4c0,12.7-10.3,23-23,23S12,53.7,12,41c0-4.1,1.1-8,3-11.4"/>
	<path fill="#010101" d="M29.3,35.9c0,1.7-1.3,3-3,3c-1.7,0-3-1.3-3-3c0-1.7,1.3-3,3-3C28,32.9,29.3,34.3,29.3,35.9"/>
	<path fill="#010101" d="M47.3,35.9c0,1.7-1.3,3-3,3s-3-1.3-3-3c0-1.7,1.3-3,3-3S47.3,34.3,47.3,35.9"/>
	<path fill="none" stroke="#010101" stroke-width="2" stroke-linecap="round" stroke-linejoin="round" stroke-miterlimit="10" d="
		M27,55c0.3-0.4,1-8,8.4-8c6.6,0,7.2,7.5,7.6,8C37.7,55,32.3,55,27,55z"/>
	<path fill="none" stroke="#1D1E1C" stroke-width="2" stroke-linecap="round" stroke-linejoin="round" stroke-miterlimit="10" d="
		M15,25c-1.3-2.3-4-7-4-7l7.6,0l2.8-7l7.8,5.6L36,12l6.9,6l6.1-2c0,0,0.7,3.3,1,5c3.3-1.7,6.7-3.3,10-5c-1.7,3-3.3,6-5,9"/>
	<polygon fill="#1D1D1B" stroke="#1D1D1B" stroke-linecap="round" stroke-linejoin="round" stroke-miterlimit="10" points="
		22.9,31.4 19,30.2 22.1,27.5 	"/>
	<polygon fill="#1D1D1B" stroke="#1D1D1B" stroke-linecap="round" stroke-linejoin="round" stroke-miterlimit="10" points="
		25.7,25.6 23,21.7 26.9,21 	"/>
	<polygon fill="#1D1D1B" stroke="#1D1D1B" stroke-linecap="round" stroke-linejoin="round" stroke-miterlimit="10" points="
		34.3,20.7 34.8,17.1 37.9,20.7 	"/>
	<polygon fill="#1D1D1B" stroke="#1D1D1B" stroke-linecap="round" stroke-linejoin="round" stroke-miterlimit="10" points="
		44.4,25.6 44,21.2 48.1,23.1 	"/>
	<polygon fill="#1D1D1B" stroke="#1D1D1B" stroke-linecap="round" stroke-linejoin="round" stroke-miterlimit="10" points="
		52.1,30.3 48.2,31.3 49.4,27.4 	"/>
	<polygon fill="#1D1D1B" stroke="#1D1D1B" stroke-linecap="round" stroke-linejoin="round" stroke-miterlimit="10" points="
		34.7,34.4 30,28.4 37.7,27.5 	"/>
</g>
</svg>
