<?xml version="1.0" encoding="utf-8"?>
<!-- Generator: Adobe Illustrator 21.1.0, SVG Export Plug-In . SVG Version: 6.00 Build 0)  -->
<svg version="1.1" id="lines" xmlns="http://www.w3.org/2000/svg" xmlns:xlink="http://www.w3.org/1999/xlink" x="0px" y="0px"
	 viewBox="0 0 72 72" enable-background="new 0 0 72 72" xml:space="preserve">
<g id="_xD83E__xDD26__x200D__x2642__xFE0F_">
	<path fill="none" stroke="#000000" stroke-width="2" stroke-linecap="round" stroke-linejoin="round" stroke-miterlimit="10" d="
		M32.3,21.5c-2.2,3.3-1.9,2.8-5.3,9.5"/>
	<path fill="none" stroke="#000000" stroke-width="2" stroke-linecap="round" stroke-linejoin="round" stroke-miterlimit="10" d="
		M22,32.6c2.2-4.3,4.1-7.8,5.5-9.6"/>
	<path fill="none" stroke="#000000" stroke-width="2" stroke-linecap="round" stroke-linejoin="round" stroke-miterlimit="10" d="
		M17,60c2-9,4-17.4,4-17.4s-0.6-0.8-2-3.6c-2-4,0-9,2-12"/>
	<path fill="none" stroke="#000000" stroke-width="2" stroke-linecap="round" stroke-linejoin="round" stroke-miterlimit="10" d="
		M35,23c-1.3,2.6-2.8,5.5-4,9"/>
	<path fill="none" stroke="#000000" stroke-width="2" stroke-linecap="round" stroke-linejoin="round" stroke-miterlimit="10" d="
		M34,23"/>
	<path fill="none" stroke="#000000" stroke-width="2" stroke-linecap="round" stroke-linejoin="round" stroke-miterlimit="10" d="
		M29,60c0-0.6-0.7-9.5,0-14c0.3-1.7,2.2-2.3,3-4c1.9-4,2.3-7.8,3.9-14"/>
	<path fill="none" stroke="#040404" stroke-width="2" stroke-linecap="round" stroke-linejoin="round" d="M46,38c3,0,4-7,4-14
		c0-6-5-12-14-12c-8.8,0-13.7,3.8-14,11.4"/>
	<path fill="#040404" d="M41.9,30c0,1.1-0.9,2-2,2c-1.1,0-2-0.9-2-2s0.9-2,2-2C41,28,41.9,28.9,41.9,30"/>
	<path fill="none" stroke="#040404" stroke-width="2" stroke-linecap="round" stroke-linejoin="round" d="M37.4,38
		c1.8,0-0.9,0,1.6,0"/>
	<path fill="none" stroke="#040404" stroke-width="2" stroke-linecap="round" stroke-linejoin="round" d="M38,20.6
		c0.7-0.1,1.5-0.3,2.3-0.4c1.1-0.1,2.3-0.2,3.8-0.2c0,0,3,6,3,11c0,8-5.1,14-11.1,14c-0.5,0-1,0-1.4-0.1"/>
	<path fill="none" stroke="#040404" stroke-width="2" stroke-linecap="round" stroke-linejoin="round" d="M55,60v-3c0-5-5-9-10-9
		c-3.4,2.8-6.8,3.7-10.1,3.7c-0.7,0-1.4-0.1-2.1-0.1"/>
</g>
</svg>
