<?xml version="1.0" encoding="utf-8"?>
<!-- Generator: Adobe Illustrator 21.1.0, SVG Export Plug-In . SVG Version: 6.00 Build 0)  -->
<svg version="1.1" id="emoji" xmlns="http://www.w3.org/2000/svg" xmlns:xlink="http://www.w3.org/1999/xlink" x="0px" y="0px"
	 viewBox="0 0 72 72" enable-background="new 0 0 72 72" xml:space="preserve">
<g id="_xD83E__xDD20__1_">
	<path fill="none" stroke="#1F201F" stroke-width="2" stroke-linecap="round" stroke-linejoin="round" stroke-miterlimit="10" d="
		M30.8,27.7"/>
	<path fill="none" stroke="#1F201F" stroke-width="2" stroke-linecap="round" stroke-linejoin="round" stroke-miterlimit="10" d="
		M52.2,49.8"/>
	<path fill="none" stroke="#000000" stroke-width="2" stroke-linecap="round" stroke-linejoin="round" stroke-miterlimit="10" d="
		M20.8,47.4c0,0,16.3,4,31.8,0.1"/>
	<path fill="none" stroke="#000000" stroke-width="2" stroke-linecap="round" stroke-linejoin="round" stroke-miterlimit="10" d="
		M52.8,47.4c0,7.2-5.3,12.9-16,12.9c-10.7,0-16.1-5.7-16.1-12.9"/>
	<path fill="none" stroke="#000000" stroke-width="2" stroke-linejoin="round" stroke-miterlimit="10" d="M21.3,52.1
		c0,0,15.9,4,31.1,0.1"/>
	<ellipse cx="29" cy="35.2" rx="3.3" ry="5.9"/>
	<ellipse cx="45.3" cy="35.2" rx="3.3" ry="5.9"/>
	<path fill="none" stroke="#000000" stroke-linecap="round" stroke-linejoin="round" stroke-miterlimit="10" d="M62.1,15.7
		c0,0-4.4-4.2-11,1.8c0,0-4.2,4-14.8,4.1"/>
	<path fill="none" stroke="#000000" stroke-linecap="round" stroke-linejoin="round" stroke-miterlimit="10" d="M10.3,15.7
		c0,0,4.4-4.2,11,1.8c0,0,4.2,4,14.8,4.1"/>
	<path fill="none" stroke="#000000" stroke-linecap="round" stroke-linejoin="round" stroke-miterlimit="10" d="M51.1,17.5
		c0,0-4.2,4-14.8,4.1"/>
	<path fill="none" stroke="#000000" stroke-width="2" stroke-linecap="round" stroke-linejoin="round" stroke-miterlimit="10" d="
		M11.9,36.2c-0.3,1.5-0.5,3.2-0.5,4.8c0,14,11.3,25.3,25.3,25.3c14,0,25.3-11.3,25.3-25.3c0-1.6-0.2-3.2-0.5-4.8"/>
	<path fill="none" stroke="#000000" stroke-width="2" stroke-linecap="round" stroke-linejoin="round" stroke-miterlimit="10" d="
		M18.7,23.1c-2.6,2.4-4.7,5.3-6,8.7"/>
	<path fill="none" stroke="#000000" stroke-width="2" stroke-linecap="round" stroke-linejoin="round" stroke-miterlimit="10" d="
		M23.9,19.2"/>
	<path fill="none" stroke="#000000" stroke-width="2" stroke-linecap="round" stroke-linejoin="round" stroke-miterlimit="10" d="
		M60.5,31.6c-1.3-3.3-3.3-6.2-5.7-8.7"/>
	<path fill="none" stroke="#000000" stroke-width="2" stroke-linecap="round" stroke-linejoin="round" stroke-miterlimit="10" d="
		M23.3,18.6c0,0,1.8-0.5,1.6-2.9c-0.1-0.7-0.4-1.8-0.8-2.8c-0.7-1.8-0.2-3.3,4.5-5.7c0,0,2.3-1.1,3.1-1.4c1.2-0.4,3.6-0.7,4.9,0.9
		 M49.4,18.6c0,0-1.8-0.5-1.5-2.9c0.1-0.7,0.4-1.8,0.7-2.8c0.7-1.8,0.2-3.3-4.3-5.7c0,0-2.2-1.1-3-1.4c-1.1-0.4-3.4-0.7-4.7,0.9"/>
	<path fill="none" stroke="#000000" stroke-width="2" stroke-linecap="round" stroke-linejoin="round" stroke-miterlimit="10" d="
		M12.4,32.3c0,0-11.2-9.2-2.1-16.6c0,0,4.4-4.2,11,1.8c0,0,4.2,4,14.8,4.1 M60.8,32.1c0,0,10.4-9,1.3-16.4c0,0-4.4-4.2-11,1.8
		c0,0-4.2,4-14.8,4.1"/>
	<path fill="none" stroke="#000000" stroke-width="2" stroke-linecap="round" stroke-linejoin="round" stroke-miterlimit="10" d="
		M18.9,23c1,0.4,17.9,5.9,35.9,0"/>
</g>
</svg>
