<svg id="emoji" viewBox="0 0 72 72" xmlns="http://www.w3.org/2000/svg">
  <g id="line">
    <path fill="none" stroke="#000000" stroke-linecap="round" stroke-linejoin="round" stroke-width="2" d="M25.9,65.3c0.6-3,1.1-5.2,1.3-6.1c-0.4-0.8-0.8-1.7-1.2-2.5c-0.2-0.4-0.6-1.6-1.2-8.3c-0.2-2-0.1-3.1,0.5-3.8 c0.3-0.4,0.8-0.6,1.2-0.6c1.3,0,1.7,1.2,2,2.4l0.1,0.3l0.2,0.6c0.9-2.6,2.1-5.2,3.5-7.5c1.8-3,3.5-0.6,3.5-0.6c2.2-4.1,5-0.8,4,1.3 c0.2-0.1,0.9-0.4,1.6-0.1c0.6,0.2,0.9,0.8,0.9,1.4c0,0.7-0.2,1.7-0.9,2.8c0.4,0.2,0.8,0.5,1,0.9c0.4,0.9,0.4,1.9-0.1,2.8L41.4,50 c-0.3,0.9-0.5,1.8-0.7,2.6c-0.4,2.2-1.2,4.3-2.3,6.3c-0.4,0.7-0.8,1.3-1.4,1.7c-0.4,0.4-0.7,0.6-0.8,1c-0.2,1.2-0.5,2.8-0.6,4.4"/>
    <path fill="none" stroke="#000000" stroke-linecap="round" stroke-linejoin="round" stroke-width="2" d="M42.8,58.1c12.2-3.7,19-16.5,15.3-28.7s-16.5-19-28.7-15.3s-19,16.5-15.3,28.7c1.3,4.2,3.7,8,7.1,10.8"/>
    <path d="M30,31.1c0,1.7-1.3,3-3,3s-3-1.3-3-3s1.3-3,3-3S30,29.4,30,31.1"/>
    <path d="M48,31.1c0,1.7-1.3,3-3,3s-3-1.3-3-3s1.3-3,3-3S48,29.4,48,31.1"/>
  </g>
</svg>
