<?xml version="1.0" encoding="utf-8"?>
<!-- Generator: Adobe Illustrator 21.1.0, SVG Export Plug-In . SVG Version: 6.00 Build 0)  -->
<svg version="1.1" id="emoji" xmlns="http://www.w3.org/2000/svg" xmlns:xlink="http://www.w3.org/1999/xlink" x="0px" y="0px"
	 viewBox="0 0 72 72" enable-background="new 0 0 72 72" xml:space="preserve">
<path fill="none" stroke="#1F201F" stroke-width="0.5" stroke-linecap="round" stroke-linejoin="round" stroke-miterlimit="10" d="
	M23.8,66.7"/>
<g>
	<path fill="none" stroke="#1F201F" stroke-width="2" stroke-linecap="round" stroke-linejoin="round" stroke-miterlimit="10" d="
		M45.7,48.1"/>
	<path fill="none" stroke="#000000" stroke-width="2" stroke-linecap="round" stroke-linejoin="round" stroke-miterlimit="10" d="
		M20,27.9c0.7-1.4,1.9-2.5,3.4-3c1.4-0.7,3-0.8,4.5-0.4"/>
	<path fill="none" stroke="#000000" stroke-width="2" stroke-linecap="round" stroke-linejoin="round" stroke-miterlimit="10" d="
		M49.6,27.9c-1.6-2.8-4.8-4.2-7.9-3.4"/>
	<path fill="none" stroke="#000000" stroke-width="2" stroke-linecap="round" stroke-linejoin="round" stroke-miterlimit="10" d="
		M48.9,54.8c5.3-4.2,8.8-10.7,8.8-18.1c0-12.7-10.3-23-23-23c-12.7,0-23,10.3-23,23c0,12.7,10.3,23,23,23c0.4,0,0.7,0,1.1,0"/>
	<path fill="none" stroke="#000000" stroke-width="2" stroke-linecap="round" stroke-linejoin="round" stroke-miterlimit="10" d="
		M23.8,35.5c0.6-0.7,1.4-1.4,2.5-1.8c1.1-0.4,2.1-0.4,3.3-0.2"/>
	<path fill="none" stroke="#000000" stroke-width="2" stroke-linecap="round" stroke-linejoin="round" stroke-miterlimit="10" d="
		M45.7,35.5c-0.6-0.7-1.4-1.4-2.5-1.8c-1.1-0.4-2.1-0.4-3.3-0.2"/>
	<path fill="none" stroke="#000000" stroke-width="2" stroke-linecap="round" stroke-linejoin="round" stroke-miterlimit="10" d="
		M46.7,45.4c0,3.6-4,6.4-11.9,6.4c-8,0-12-2.8-12-6.4"/>
	<path fill="none" stroke="#000000" stroke-width="2" stroke-linecap="round" stroke-linejoin="round" stroke-miterlimit="10" d="
		M22.8,45.4c0,0,12.1,3.1,23.7,0.1"/>
	<path fill="none" stroke="#000000" stroke-width="2" stroke-linecap="round" stroke-linejoin="round" stroke-miterlimit="10" d="
		M41.5,56.8c0,0.7-0.6,1.3-1.2,1.3l0,0c-0.7,0-1.2-0.6-1.2-1.3V55v-2.6l3.3-1.2l2.7-1.6v6.8V61c0,0.9-0.8,1.6-1.7,1.6h0
		c-1,0-1.7-0.7-1.7-1.6v-4.7"/>
</g>
</svg>
