<svg version="1.1" id="emoji" xmlns="http://www.w3.org/2000/svg" x="0" y="0" viewBox="0 0 72 72" enable-background="new 0 0 72 72" xml:space="preserve">
  <g id="line">
    <path fill="none" stroke="#000000" stroke-width="2" stroke-linecap="round" stroke-linejoin="round" stroke-miterlimit="10" d="M18.9869,29.9408c0.851-1.3097,2.1554-2.2567,3.6642-2.659c1.4662-0.5614,3.0882-0.5534,4.5496,0.0179"/>
    <path fill="none" stroke="#000000" stroke-width="2" stroke-linecap="round" stroke-linejoin="round" stroke-miterlimit="10" d="M48.5963,28.9362c-1.3537-2.8907-4.4525-4.543-7.6074-4.056"/>
    <path fill="none" stroke="#000000" stroke-width="2" stroke-linecap="round" stroke-linejoin="round" stroke-miterlimit="10" d="M57.001,37.3631C56.3266,25.2653,46.303,15.664,34.0374,15.664c-12.703,0-22.9998,10.2968-22.9998,22.9998 c0,12.7021,10.2968,22.9998,22.9998,22.9998c7.0803,0,13.4135-3.1996,17.6326-8.2316"/>
    <circle cx="25.2868" cy="34.6731" r="2.7493"/>
    <circle cx="42.5366" cy="34.6731" r="2.7493"/>
    <path fill="none" stroke="#000000" stroke-width="2" stroke-linecap="round" stroke-linejoin="round" stroke-miterlimit="10" d="M37.76,53.2994c0,0-5.7186-1.8346-8.8718,1.5503"/>
    <path fill="none" stroke="#000000" stroke-width="2" stroke-linecap="round" stroke-linejoin="round" stroke-miterlimit="10" d="M58.4422,45.7324c-0.2143,1.636-1.9061,2.7858-1.9061,2.7858c-2.3855,1.4362-9.1328-0.7961-9.1328-0.7961 c-4.9712-1.2549-12.0651-0.6709-12.0651-0.6709 M58.4419,45.5718c0.0273-1.8145-1.4933-3.1744-1.4933-3.1744 c-2.2253-1.579-9.1884-0.046-9.1884-0.046c-5.3852,0.6915-12.0826-0.4781-12.0826-0.4781"/>
  </g>
</svg>
