<svg id="emoji" xmlns="http://www.w3.org/2000/svg" viewBox="0 0 72 72">
  
  
  
  
  
  <g id="line">
    <polygon id="SVGID_1_" points="36.132,10.8179 27.512,12.4957 22.2182,15.5128 17.333,20.5862 13.9072,27.9285 13.9072,40.2543 
				19.5004,49.6441 27.512,55.0881 36.132,56.7659 43.3036,55.6168 51.0049,51.2917 56.1094,45.1395 59.106,35.9399 
				58.3569,27.9684 54.5517,20.0673 50.3464,15.7518 43.1046,11.8968 			" fill="#000000" stroke="none"></polygon>
    <path fill="none" stroke="#000000" stroke-width="2" stroke-linecap="round" stroke-linejoin="round" stroke-miterlimit="10" d="
		M48.4317,43.7351"></path>
    <circle cx="27.5036" cy="28.3753" r="2.6021" fill="#000000" stroke="none"></circle>
    <circle cx="44.7341" cy="28.3753" r="2.6021" fill="#000000" stroke="none"></circle>
    <path fill="none" stroke="#000000" stroke-width="2" stroke-linecap="round" stroke-linejoin="round" stroke-miterlimit="10" d="
		M26.098,63.4196c0.986-4.1556,1.6866-6.9627,1.6866-6.9627s-0.2806-0.0701-1.6914-2.8918
		c-0.6304-1.2618-1.0776-5.4826-1.4109-8.467c-0.3128-2.8037,0.1092-3.5934,1.1069-3.5934c0.9977,0,1.2238,0.816,1.7149,2.1825
		c0.5241,1.4537,1.2783,2.8061,1.2783,2.8061c1.4976-4.4435,3.5699-8.1888,4.9886-9.9772c1.9954-2.5163,4.5589-0.3527,2.9932,1.9954
		c-1.9954,2.9932-2.9932,5.9863-2.9932,5.9863"></path>
    <path fill="none" stroke="#000000" stroke-width="2" stroke-linecap="round" stroke-linejoin="round" stroke-miterlimit="10" d="
		M36.7641,38.5116l0.9977-1.9954c2.2449-4.4897,4.9886-1.9954,3.9909,0c-1.0241,2.0475-2.9932,5.9863-3.9909,8.9795"></path>
    <path fill="none" stroke="#000000" stroke-width="2" stroke-linecap="round" stroke-linejoin="round" stroke-miterlimit="10" d="
		M35.4586,65.1666c-0.0056-2.0734,0.0684-4.1501,0.3078-5.7165c0.266-1.7421,1.9954-1.9818,2.9932-3.9772
		c2.9932-5.9863,1.8288-8.314,3.9909-13.9681c1.1273-2.9474-1.5609-3.7151-3.1199-0.5987"></path>
    <path fill="none" stroke="#000000" stroke-width="2" stroke-linecap="round" stroke-linejoin="round" stroke-miterlimit="10" d="
		M43.0474,55.7729c9.3742-2.8817,16.1987-11.5988,16.2228-21.9205c0.0297-12.6949-10.2374-23.0091-22.9314-23.0388
		C23.644,10.7839,13.3297,21.0501,13.3001,33.7449c-0.0165,7.0449,3.1383,13.3572,8.1194,17.5852"></path>
  </g>
</svg>