<svg id="emoji" viewBox="0 0 72 72" xmlns="http://www.w3.org/2000/svg">
  <g id="line">
    <circle cx="39.9688" cy="11.0938" r="3" fill="none" stroke="#000000" stroke-miterlimit="10" stroke-width="2"/>
    <circle cx="14.9688" cy="19.0938" r="3" fill="none" stroke="#000000" stroke-miterlimit="10" stroke-width="2"/>
    <path fill="none" stroke="#000000" stroke-linecap="round" stroke-linejoin="round" stroke-miterlimit="10" stroke-width="2" d="M40.1357,37l-4.8906,7.3359c-0.6103,0.9151-2,1.794-3.0888,1.9522l-9.7911,1.4238c-1.0888,0.1582-2.0752-0.3867-2.1914-1.2119 c-0.1162-0.8252,0.626-1.8291,1.6494-2.2314l6.4512-2.5372c1.0235-0.4023,2.1455-1.5849,2.4942-2.6289l0.7343-2.205 c0.3487-1.044,0.9873-2.7246,1.4209-3.7354l1.4239-3.3242c0.4336-1.0108,0.7509-2.7002,0.705-3.7549 c-0.0468-1.0542-0.3388-2.4038-0.6513-3C34.0889,22.4873,33.834,22,33.834,22"/>
    <path fill="none" stroke="#000000" stroke-linecap="round" stroke-linejoin="round" stroke-miterlimit="10" stroke-width="2" d="M47.1357,28"/>
    <path fill="none" stroke="#000000" stroke-linecap="round" stroke-linejoin="round" stroke-miterlimit="10" stroke-width="2" d="M37,42v5c0,1.0996-0.4414,2.7422-1.0625,3.6494l-3.8721,5.7012c-0.622,0.9072-0.4384,2.0996,0.3867,2.6494 c0.8252,0.5498,2.1124,0.334,2.8516-0.4814l5.4844-6.0372c0.7392-0.8154,1.5478-2.3584,1.7959-3.4306l2.1006-9.1016 c0.248-1.0722,0.4707-2.8486,0.4961-3.9482L45.4316,22"/>
    <path fill="none" stroke="#000000" stroke-linecap="round" stroke-linejoin="round" stroke-miterlimit="10" stroke-width="2" d="M15.875,16l7.293,3.1973c1.0078,0.4414,2.6855,0.518,3.7295,0.1704l2.205-0.7354c1.044-0.3476,2.7959-0.6924,3.8926-0.7651 l11.0098-0.7344c1.0967-0.0727,2.8486,0.1519,3.8926,0.4995L64,23"/>
  </g>
</svg>
