<svg id="emoji" viewBox="0 0 72 72" xmlns="http://www.w3.org/2000/svg">
  <g id="line">
    <circle cx="34.5003" cy="12.3" r="3" fill="none" stroke="#000" stroke-miterlimit="10" stroke-width="2"/>
    <path fill="none" stroke="#000" stroke-linecap="round" stroke-linejoin="round" stroke-width="2" d="M18.1124,23.8318,21.64,27.8355c1.7159,2.0019,3.5271,1.43,3.9085-1.1439l.3813-2.0019c.4766-2.5738,2.4785-4.957,4.5757-5.1476a33.9985,33.9985,0,0,1,7.6261,0c2.0972.2859,4.1944,2.5738,4.5757,5.1476l.3813,2.0019c.4767,2.5738,2.4785,4.29,4.5757,3.7177,2.0972-.4766,3.8131-.9532,3.8131-.9532"/>
    <path fill="none" stroke="#000" stroke-linecap="round" stroke-linejoin="round" stroke-width="2" d="M38.9891,25.4968c-2.2879,3.3915-.6673,5.9109,0,7.752a25.7538,25.7538,0,0,1,.8579,5.4264c.572,5.814.9533,23.256.9533,23.256a1.6382,1.6382,0,0,1-1.3346,1.938,1.9619,1.9619,0,0,1-1.6206-1.938L35.462,40.6132c-.0954-1.0659-.6673-1.938-1.144-1.938s-1.0486.8721-1.1439,1.938l-2.3832,21.318a2.4384,2.4384,0,0,1-1.62,1.938,1.6382,1.6382,0,0,1-1.3346-1.938s.4766-17.2482,1.0486-23.0622a39.1681,39.1681,0,0,1,.7626-5.7171c.572-1.8411,2.2879-4.5543,0-7.752"/>
    <path fill="none" stroke="#000" stroke-linecap="round" stroke-linejoin="round" stroke-width="2" d="M38.4948,10.6994s.6433-.14.9268.228c.3339.4318.3264,1.7643.6877,2.4231a3.3629,3.3629,0,0,0,1.58,1.49"/>
  </g>
</svg>
