<?xml version="1.0" encoding="utf-8"?>
<!-- Generator: Adobe Illustrator 21.1.0, SVG Export Plug-In . SVG Version: 6.00 Build 0)  -->
<svg version="1.1" id="emoji" xmlns="http://www.w3.org/2000/svg" xmlns:xlink="http://www.w3.org/1999/xlink" x="0px" y="0px"
	 viewBox="0 0 72 72" enable-background="new 0 0 72 72" xml:space="preserve">
<g id="_xD83E__xDD39_">
	<circle fill="none" stroke="#000000" stroke-width="2" stroke-miterlimit="10" cx="36" cy="13.1" r="3"/>
	<circle cx="20" cy="18.1" r="2"/>
	<circle cx="41" cy="6.1" r="2"/>
	<circle cx="56" cy="27.1" r="2"/>
	<g>
		<path fill="none" stroke="#000000" stroke-width="2" stroke-linecap="round" stroke-linejoin="round" stroke-miterlimit="10" d="
			M41,26l2.6,39c0.1,1.1-0.6,2-1.5,2c-0.9,0-1.8-0.9-1.9-2l-2.9-21c-0.1-1.1-0.7-2-1.3-2c-0.5,0-1.1,0.9-1.3,2l-2.9,21
			c-0.1,1.1-1,2-1.9,2s-1.6-0.9-1.5-2L31,26"/>
	</g>
	<g>
		<path fill="none" stroke="#000000" stroke-width="2" stroke-linecap="round" stroke-linejoin="round" stroke-miterlimit="10" d="
			M19,25l3.7,4.2c1.8,2.1,3.7,1.5,4.1-1.2l0.4-2.1c0.5-2.7,2.6-5.2,4.8-5.4s5.8-0.3,8,0s4.4,2.7,4.8,5.4l0.4,2.1
			c0.5,2.7,2.6,4.5,4.8,3.9s4-1,4-1"/>
	</g>
</g>
</svg>
