<?xml version="1.0" encoding="utf-8"?>
<!-- Generator: Adobe Illustrator 21.1.0, SVG Export Plug-In . SVG Version: 6.00 Build 0)  -->
<svg version="1.1" id="emoji" xmlns="http://www.w3.org/2000/svg" xmlns:xlink="http://www.w3.org/1999/xlink" x="0px" y="0px"
	 viewBox="0 0 72 72" enable-background="new 0 0 72 72" xml:space="preserve">
<g id="_xD83E__xDD37_">
	<path fill="none" stroke="#040404" stroke-width="2" stroke-linecap="round" stroke-linejoin="round" d="M46,39c4,0,4-6,4-13
		s-4-14-14-14s-14,7-14,14s0,13,4,13"/>
	<path fill="#040404" d="M41.9,30c0,1.1-0.9,2-2,2c-1.1,0-2-0.9-2-2c0-1.1,0.9-2,2-2C41,28,41.9,28.9,41.9,30"/>
	<path fill="#040404" d="M33.9,30c0,1.1-0.9,2-2,2c-1.1,0-2-0.9-2-2c0-1.1,0.9-2,2-2C33,28,33.9,28.9,33.9,30"/>
	<path fill="none" stroke="#040404" stroke-width="2" stroke-linejoin="round" d="M24.9,31c0,9,4.9,14,11,14C41.9,45,47,40,47,31
		c0-3-1-5-1-5c-3-3-7-8-7-8c-4,3-7,6-13,7C26,25,24.9,26,24.9,31z"/>
	<path fill="none" stroke="#040404" stroke-width="2" stroke-linecap="round" stroke-linejoin="round" d="M34.1,38
		c1.9,0.4,3.9,0,3.9,0"/>
	<path fill="none" stroke="#000000" stroke-width="2" stroke-linecap="round" stroke-linejoin="round" stroke-miterlimit="10" d="
		M14,60l2.9-11.3L16,47.4l-4-3l-4-6c0,0-1-1,0-2s2,0,2,0l4,4c1,1,2,1,5,2s3.1,3.2,3,5c-0.7,9-1,12.6-1,12.6"/>
	<path fill="none" stroke="#000000" stroke-width="2" stroke-linecap="round" stroke-linejoin="round" stroke-miterlimit="10" d="
		M20,42.9c0,0-1-2.9-2.1-5.9c-0.4-1.2-1.9-1-1.9-0.2c0,0.6,0,3.7,0,3.7"/>
	<path fill="none" stroke="#000000" stroke-width="2" stroke-linecap="round" stroke-linejoin="round" stroke-miterlimit="10" d="
		M58,60l-2.9-11.3l0.9-1.2l4-3l4-6c0,0,1-1,0-2c-1-1-2,0-2,0l-4,4c-1,1-2,1-5,2s-3.1,3.2-3,5c0.7,9,1,12.6,1,12.6"/>
	<path fill="none" stroke="#000000" stroke-width="2" stroke-linecap="round" stroke-linejoin="round" stroke-miterlimit="10" d="
		M52,42.9c0,0,1-2.9,2.1-5.9c0.4-1.2,1.9-1,1.9-0.2c0,0.6,0,3.7,0,3.7"/>
	
		<line fill="none" stroke="#000000" stroke-width="2" stroke-linecap="round" stroke-linejoin="round" stroke-miterlimit="10" x1="23" y1="40" x2="26" y2="39"/>
	
		<line fill="none" stroke="#040404" stroke-width="2" stroke-linecap="round" stroke-linejoin="round" x1="46" y1="39" x2="49" y2="40"/>
</g>
</svg>
