<svg id="emoji" viewBox="0 0 72 72" xmlns="http://www.w3.org/2000/svg">
  <g id="line">
    <path fill="none" stroke="#000000" stroke-linecap="round" stroke-linejoin="round" stroke-miterlimit="10" stroke-width="2" d="M27.1667,68H4V56.3333l15-7.5c-2.6034,8.5367,7.4551,14.557,12.5,11.6667L27.1667,68z"/>
    <path fill="none" stroke="#000000" stroke-linecap="round" stroke-linejoin="round" stroke-miterlimit="10" stroke-width="2" d="M29.8302,61.109c0-0.6628,2.1906-3.6923,3.0031-3.6923c1,0,3.8958-1.5654,3.8958-3.5V7C36.079,4.3418,32.125,4,31.5,7.3474 l-2.625,17.8088c-0.4583,2.8906-1.75,2.8906-2.25,5.7812c-0.6875,5.625-1.3431,15.4439-7.9681,19.4647"/>
    <path fill="none" stroke="#000000" stroke-linecap="round" stroke-linejoin="round" stroke-miterlimit="10" stroke-width="2" d="M46.2917,68h23.1667V56.3333l-15-7.5c2.6034,8.5367-7.4551,14.557-12.5,11.6667L46.2917,68z"/>
    <path fill="none" stroke="#000000" stroke-linecap="round" stroke-linejoin="round" stroke-miterlimit="10" stroke-width="2" d="M43.6281,61.109c0-0.6628-2.1906-3.6923-3.0031-3.6923c-1,0-3.8958-1.5654-3.8958-3.5V7c0.6502-2.6582,4.6042-3,5.2292,0.3474 l2.625,17.8088c0.4583,2.8906,1.75,2.8906,2.25,5.7812c0.6875,5.625,1.3431,15.4439,7.9681,19.4647"/>
    <line x1="16.3806" x2="9.9565" y1="19.6075" y2="19.8692" fill="none" stroke="#000000" stroke-linecap="round" stroke-linejoin="round" stroke-miterlimit="10" stroke-width="2"/>
    <line x1="21.0759" x2="22.0435" y1="15.4036" y2="9.0474" fill="none" stroke="#000000" stroke-linecap="round" stroke-linejoin="round" stroke-miterlimit="10" stroke-width="2"/>
    <line x1="18.4709" x2="15.1357" y1="17.2572" y2="13.5321" fill="none" stroke="#000000" stroke-linecap="round" stroke-linejoin="round" stroke-miterlimit="10" stroke-width="2"/>
    <line x1="55.6196" x2="62.0437" y1="19.6075" y2="19.8692" fill="none" stroke="#000000" stroke-linecap="round" stroke-linejoin="round" stroke-miterlimit="10" stroke-width="2"/>
    <line x1="50.9243" x2="49.9568" y1="15.4036" y2="9.0474" fill="none" stroke="#000000" stroke-linecap="round" stroke-linejoin="round" stroke-miterlimit="10" stroke-width="2"/>
    <line x1="53.5294" x2="56.8646" y1="17.2572" y2="13.5321" fill="none" stroke="#000000" stroke-linecap="round" stroke-linejoin="round" stroke-miterlimit="10" stroke-width="2"/>
  </g>
</svg>
