<svg id="emoji" viewBox="0 0 72 72" xmlns="http://www.w3.org/2000/svg">
  <g id="line">
    <circle cx="32.6972" cy="49.5701" r="3" fill="none" stroke="#000" stroke-miterlimit="10" stroke-width="2"/>
    <path fill="none" stroke="#000" stroke-linecap="round" stroke-linejoin="round" stroke-width="2" d="M26.9366,39.63l1.469-4.3173c.1906-1.0486-.9018-4.1506-1.76-4.7225l-15.4925-7.712a2.286,2.286,0,0,1-1.144-2.3832,1.5909,1.5909,0,0,1,2.1926-.6673l9.7119,3.96c.8684.4338,7.2782,1.9962,7.2782,1.9962,1.0486.286,4.84-.7131,5.6024-1.38,0,0,4.671-4.29,5.1477-5.1476l4.7663-8.1028a3.2328,3.2328,0,0,1,2.3832-1.6206c.7626,0,1.1439.7626.7626,1.8112,0,0-3.2564,8.39-3.7244,9.4031-.6235,1.35-4.4518,5.711-5.6234,7.6691a14.267,14.267,0,0,0-1.3088,3.5966,26.6978,26.6978,0,0,0-.6006,3.6625,12.1721,12.1721,0,0,0,.5482,3.5977"/>
    <path fill="none" stroke="#000" stroke-linecap="round" stroke-linejoin="round" stroke-width="2" d="M23.8318,57.1963V49.57c0-3.2411,1.7159-5.243,3.8131-5.72a16.2448,16.2448,0,0,1,9.5327,0c2.0972.4766,3.8131,2.5738,3.8131,5.72v7.6262"/>
  </g>
</svg>
