<?xml version="1.0" encoding="utf-8"?>
<!-- Generator: Adobe Illustrator 21.1.0, SVG Export Plug-In . SVG Version: 6.00 Build 0)  -->
<svg version="1.1" id="emoji" xmlns="http://www.w3.org/2000/svg" xmlns:xlink="http://www.w3.org/1999/xlink" x="0px" y="0px"
	 viewBox="0 0 72 72" enable-background="new 0 0 72 72" xml:space="preserve">
<g id="_xD83E__xDD31_">
	<path fill="none" stroke="#000000" stroke-width="2" stroke-linecap="round" stroke-linejoin="round" stroke-miterlimit="10" d="
		M39.3,50.3c0,0-12.6,0.6-16.6,9.2"/>
	<path fill="none" stroke="#000000" stroke-width="2" stroke-linecap="round" stroke-linejoin="round" stroke-miterlimit="10" d="
		M29.2,34.9c0,0-1,13.7,6.2,15.8"/>
	
		<line fill="none" stroke="#000000" stroke-width="2" stroke-linecap="round" stroke-linejoin="round" stroke-miterlimit="10" x1="24.6" y1="56.5" x2="23" y2="52.6"/>
	
		<line fill="none" stroke="#000000" stroke-width="2" stroke-linecap="round" stroke-linejoin="round" stroke-miterlimit="10" x1="46.2" y1="42.7" x2="45.8" y2="40.2"/>
	<path fill="none" stroke="#000000" stroke-width="2" stroke-linecap="round" stroke-linejoin="round" stroke-miterlimit="10" d="
		M45.8,19c-7.4-0.3-13.7-8.1-13.7-8.1l0,0c-2.4,1.9-3.9,5.1-3.9,8.7c0,5.8,4,10.5,8.8,10.5c4.9,0,8.8-4.7,8.8-10.5
		C45.8,19.4,45.8,19.2,45.8,19"/>
	<path fill="none" stroke="#000000" stroke-width="2" stroke-linecap="round" stroke-linejoin="round" stroke-miterlimit="10" d="
		M47,29.5c1.1-1.1,2.2-3.1,2.5-7C50,14.7,47.1,6.1,37,6.1h-0.6c-10.1,0.1-13,8.7-12.5,16.5c0.6,7.9,4.8,8.2,4.8,8.2"/>
	<path fill="none" stroke="#000000" stroke-width="2" stroke-linecap="round" stroke-linejoin="round" stroke-miterlimit="10" d="
		M29.9,63.7c-16.7,2.7-12.7-6.8-12.7-6.8s6-16.2,7.3-20c0.7-2,4.7-2,4.7-2s6.2,4.8,12.6,0.3c0,0,4.4-4.1,7.2-0.3
		c0.7,0.9,1.8,3.5,2.9,6.2"/>
	
		<circle fill="none" stroke="#000000" stroke-width="2" stroke-linecap="round" stroke-linejoin="round" stroke-miterlimit="10" cx="47.8" cy="51" r="7.3"/>
	<path fill="none" stroke="#000000" stroke-width="2" stroke-linecap="round" stroke-linejoin="round" stroke-miterlimit="10" d="
		M40.5,64.9c8.9-2,14-5.5,14-5.5"/>
	<circle cx="22.7" cy="59.3" r="1"/>
</g>
</svg>
