<svg id="emoji" viewBox="0 0 72 72" xmlns="http://www.w3.org/2000/svg">
  <g id="line">
    <circle cx="39.9688" cy="14.0938" r="3" fill="none" stroke="#000000" stroke-miterlimit="10" stroke-width="2"/>
    <path fill="none" stroke="#000000" stroke-linecap="round" stroke-linejoin="round" stroke-miterlimit="10" stroke-width="2" d="M41,25l6.6709,7.5049c0.7314,0.8222,0.8984,2.2851,0.3711,3.251l-4.084,7.4882c-0.5273,0.9659-1.0332,2.6524-1.124,3.7491 l-0.918,11.0136C41.8252,59.1035,42.5205,60,43.4619,60c0.9414,0,1.918-0.876,2.1699-1.9463l1.9102-8.1074 c0.2519-1.0703,0.9814-2.6787,1.6201-3.5742l2.6758-3.7442c0.6387-0.8955,1.8535-2.2041,2.6982-2.9082l2.9278-2.4394 C58.3086,36.5762,59,35.0996,59,34l0,0c0-1.0996-0.6025-2.6689-1.3379-3.4863L50,22"/>
    <path fill="none" stroke="#000000" stroke-linecap="round" stroke-linejoin="round" stroke-miterlimit="10" stroke-width="2" d="M45,23"/>
    <path fill="none" stroke="#000000" stroke-linecap="round" stroke-linejoin="round" stroke-miterlimit="10" stroke-width="2" d="M59,35l0.8193,9.0078c0.0996,1.0957,0.4756,2.8428,0.837,3.8818l2.8544,8.2208C63.8721,57.1494,63.4922,58,62.667,58 c-0.8252,0-1.9404-0.7852-2.4785-1.7441l-4.21-7.5118c-0.5381-0.9589-1.1269-2.6318-1.3076-3.7168L54,41"/>
    <path fill="none" stroke="#000000" stroke-linecap="round" stroke-linejoin="round" stroke-miterlimit="10" stroke-width="2" d="M50,22c-2-2-4.2988-2.5669-6-2c-3,1-8,2-10,2s-5-1-8-3"/>
    <path fill="none" stroke="#000000" stroke-linecap="round" stroke-linejoin="round" stroke-miterlimit="10" stroke-width="2" d="M26.334,28.1523l-3.8692,4.3526c-0.7314,0.8222-1.0449,2.3486-0.6962,3.3926l2.7343,8.205 c0.3487,1.044,0.585,2.7959,0.5254,3.8946l-0.5351,10.0058C24.4336,59.1016,23.6152,60,22.6738,60 c-0.9414,0-1.7685-0.8984-1.8388-1.9961l-0.5723-9.0078c-0.0703-1.0977-0.5293-2.8008-1.0215-3.7852l-1.2109-2.4218 c-0.4922-0.9844-1.586-2.3653-2.4307-3.0694l-2.9277-2.4394c-0.8448-0.7041-1.5362-2.1807-1.5362-3.2803l0,0 c0-1.0996,0.6026-2.6689,1.3379-3.4863L20.1357,22"/>
    <path fill="none" stroke="#000000" stroke-linecap="round" stroke-linejoin="round" stroke-miterlimit="10" stroke-width="2" d="M25.1357,23"/>
    <path fill="none" stroke="#000000" stroke-linecap="round" stroke-linejoin="round" stroke-miterlimit="10" stroke-width="2" d="M12,37v8c0,1.0996-0.1631,2.8848-0.3633,3.9668l-1.3047,7.0664C10.1318,57.1152,10.6436,58,11.4688,58 c0.8251,0,1.7607-0.8613,2.08-1.9141l1.8711-6.1718c0.3194-1.0528,0.7285-2.8018,0.9092-3.8868L17,42"/>
    <path fill="none" stroke="#000000" stroke-linecap="round" stroke-linejoin="round" stroke-miterlimit="10" stroke-width="2" d="M23.0674,19.8145c-0.8418,0.3173-1.7901,0.9892-2.9317,2.1855"/>
    <path fill="none" stroke="#000000" stroke-linecap="round" stroke-miterlimit="10" stroke-width="2" d="M25.1357,23 c0,0,4.8643,4,6.8643,4c1,0,3,0,4-5"/>
    <path fill="none" stroke="#000000" stroke-linecap="round" stroke-miterlimit="10" stroke-width="2" d="M32.0703,18.1875 c0.5674-0.5459,0.9199-1.313,0.9199-2.1616c0-1.6563-1.3437-3-3-3c-1.6543,0-3,1.3437-3,3"/>
    <path fill="none" stroke="#000000" stroke-linecap="round" stroke-linejoin="round" stroke-miterlimit="10" stroke-width="2" d="M20.542,25.25"/>
  </g>
</svg>
