<?xml version="1.0" encoding="utf-8"?>
<!-- Generator: Adobe Illustrator 21.1.0, SVG Export Plug-In . SVG Version: 6.00 Build 0)  -->
<svg version="1.1" id="emoji" xmlns="http://www.w3.org/2000/svg" xmlns:xlink="http://www.w3.org/1999/xlink" x="0px" y="0px"
	 viewBox="0 0 72 72" enable-background="new 0 0 72 72" xml:space="preserve">
<g id="_xD83E__xDD3A_">
	<circle fill="none" stroke="#000000" stroke-width="2" stroke-miterlimit="10" cx="45" cy="12.1" r="3"/>
	<g>
		<path fill="none" stroke="#000000" stroke-width="2" stroke-linecap="round" stroke-linejoin="round" stroke-miterlimit="10" d="
			M60,19l-0.6,7c-0.1,1.6-0.9,1.8-1.7,0.4l-2.2-3.8c-0.8-1.4-2.8-2.8-4.5-2.9l-3-0.3c-1.6-0.2-4.3,0-5.9,0.5l-1.2,0.4
			c-1.6,0.5-3.3,2.1-3.8,3.7l-1.3,4.3c-0.5,1.6-2,2.4-3.3,1.9c-1.3-0.5-2.4-1-2.4-1"/>
	</g>
	<g>
		<path fill="none" stroke="#000000" stroke-width="2" stroke-linecap="round" stroke-linejoin="round" stroke-miterlimit="10" d="
			M52.5,25l1.3,10c0.1,1.1,0.3,2.9,0.4,4L55,51.1c0.1,1.1,0.3,2.9,0.4,4l1.1,8c0.1,1.1-0.5,2-1.4,2c-0.9,0-1.9-0.9-2.2-1.9l-2.5-8.2
			c-0.3-1.1-0.7-2.8-0.9-3.9L48.3,44c-0.2-1.1-0.8-2-1.3-2s-1.6,0.7-2.3,1.5l-4.3,5.3c-0.7,0.9-1.2,2.4-1.1,3.5l1,10.7
			c0.1,1.1-0.5,2-1.5,2c-0.9,0-1.8-0.9-2.1-2l-2.5-11.3c-0.2-1.1,0-2.7,0.6-3.6l6-9.4c0.6-0.9,1-2.6,0.8-3.7l-1.3-10"/>
	</g>
	
		<line fill="none" stroke="#000000" stroke-width="2" stroke-linecap="round" stroke-linejoin="round" stroke-miterlimit="10" x1="28" y1="25" x2="26" y2="29"/>
	
		<line fill="none" stroke="#000000" stroke-width="2" stroke-linecap="round" stroke-linejoin="round" stroke-miterlimit="10" x1="5" y1="15" x2="27" y2="27"/>
</g>
</svg>
