<svg id="emoji" xmlns="http://www.w3.org/2000/svg" viewBox="0 0 72 72">
  <g id="line">
    <path fill="none" stroke="#000000" stroke-width="2" stroke-linecap="round" stroke-linejoin="round" stroke-miterlimit="10" d="
		M25.4342,17.9935c0-5.8242,4.7215-10.5457,10.5457-10.5457s10.5457,4.7215,10.5457,10.5457"></path>
    <path fill="none" stroke="#000000" stroke-width="2" stroke-linecap="round" stroke-linejoin="round" stroke-miterlimit="10" d="
		M54.8549,58.0051c0,0,2-13-10-13c-3.1919,2.128-5.9264,3.5985-9,3.5922h0.125c-3.0736,0.0063-5.8081-1.4642-9-3.5922
		c-12,0-10,13-10,13"></path>
    <path fill="none" stroke="#000000" stroke-width="2" stroke-linecap="round" stroke-linejoin="round" stroke-miterlimit="10" d="
		M39.6005,53.0472c5.1878-0.4859,8.9539-2.9065,10.3535-6.9774c-1.3294-0.6591-2.9951-1.0647-5.0991-1.0647
		c-3.1699,2.1133-5.8895,3.5747-8.9375,3.5886c-3.048-0.0139-5.7676-1.4753-8.9375-3.5886c-2.0474,0-3.6792,0.3847-4.991,1.0124
		c2.3627,3.939,5.8207,6.1638,10.3565,6.8708c0.4155,0.0648,0.8336,0.09,1.254,0.0954c0.9342,0.012,2.8034,0.0403,4.7616,0.0941
		C38.7729,53.0892,39.1902,53.0856,39.6005,53.0472z"></path>
    <path fill="none" stroke="#000000" stroke-width="2" stroke-linecap="round" stroke-linejoin="round" stroke-miterlimit="10" d="
		M23.9407,21.0308c-3.1231,5.0885-11.4641,20.3743,1.0392,20.3743"></path>
    <path fill="none" stroke="#000000" stroke-width="2" stroke-linecap="round" stroke-linejoin="round" stroke-miterlimit="10" d="
		M46.9799,41.4051c12.4833,0,4.1889-15.237,1.0542-20.3499"></path>
    <path fill="none" stroke="#000000" stroke-width="2" stroke-linecap="round" stroke-linejoin="round" stroke-miterlimit="10" d="
		M46.9799,25.0443c-5,0.6392-13-4.6392-13-4.6392s-4,5.2784-9,4.6392l-0.0173-0.0033c-0.21,1.0783-0.3213,2.205-0.3213,3.3641
		c0,7.8277,5.0765,14.1733,11.3386,14.1733s11.3386-6.3456,11.3386-14.1733c0-1.1591-0.1113-2.2858-0.3214-3.3641"></path>
    <path d="M41.98,27.0443c0,1.1045-0.8965,2-2,2c-1.1035,0-2-0.8955-2-2c0-1.1035,0.8965-2,2-2
		C41.0835,25.0443,41.98,25.9408,41.98,27.0443" fill="#000000" stroke="none"></path>
    <path d="M33.98,27.0443c0,1.1045-0.8965,2-2,2c-1.1035,0-2-0.8955-2-2c0-1.1035,0.8965-2,2-2
		C33.0835,25.0443,33.98,25.9408,33.98,27.0443" fill="#000000" stroke="none"></path>
    <path d="M35.9799,37.0468c-1.1519,0-2.3037-0.2862-3.4473-0.858c-0.4941-0.247-0.6943-0.8476-0.4472-1.3417
		c0.2465-0.4937,0.8462-0.6944,1.3418-0.4473c1.7177,0.8594,3.3877,0.8594,5.1054,0c0.4947-0.2471,1.0948-0.0464,1.3418,0.4473
		c0.2471,0.4941,0.0469,1.0947-0.4472,1.3417C38.2836,36.7606,37.1318,37.0468,35.9799,37.0468z" fill="#000000" stroke="none"></path>
    <path fill="none" stroke="#000000" stroke-width="2" stroke-linecap="round" stroke-linejoin="round" stroke-miterlimit="10" d="
		M28.9799,29.4051c0,1.6569,1.3431,3,3,3c1.6569,0,3-1.3431,3-3h2c0,1.6569,1.3431,3,3,3c1.6569,0,3-1.3431,3-3"></path>
    <path fill="none" stroke="#000000" stroke-width="1.5" stroke-linecap="round" stroke-linejoin="round" stroke-miterlimit="10" d="
		M36.4799,29.9051"></path>
    <path fill="none" stroke="#000000" stroke-width="1.5" stroke-linecap="round" stroke-linejoin="round" stroke-miterlimit="10" d="
		M35.4799,29.9051"></path>
    <path fill="none" stroke="#000000" stroke-width="2" stroke-linecap="round" stroke-linejoin="round" stroke-miterlimit="10" d="
		M45.099,15.545c-0.8798,0-1.6738,0.3416-2.2798,0.8875c-0.606-0.5459-1.3999-0.8875-2.2798-0.8875
		c-0.8798,0-1.6737,0.3416-2.2797,0.8875c-0.606-0.5459-1.4-0.8875-2.2798-0.8875s-1.6738,0.3416-2.2798,0.8875
		c-0.606-0.5459-1.3999-0.8875-2.2797-0.8875c-0.8799,0-1.6738,0.3416-2.2798,0.8875c-0.606-0.5459-1.4-0.8875-2.2798-0.8875
		c-1.8886,0-3.4196,1.5311-3.4196,3.4197c0,1.8886,1.531,3.4196,3.4196,3.4196c0.8798,0,1.6738-0.3416,2.2798-0.8874
		c0.606,0.5458,1.3999,0.8874,2.2798,0.8874c0.8798,0,1.6737-0.3416,2.2797-0.8874c0.606,0.5458,1.4,0.8874,2.2798,0.8874
		s1.6738-0.3416,2.2798-0.8874c0.606,0.5458,1.3999,0.8874,2.2797,0.8874c0.8799,0,1.6738-0.3416,2.2798-0.8874
		c0.606,0.5458,1.4,0.8874,2.2798,0.8874c1.8886,0,3.4196-1.531,3.4196-3.4196C48.5186,17.0761,46.9876,15.545,45.099,15.545z"></path>
  </g>
</svg>