<svg id="emoji" viewBox="0 0 72 72" version="1.1" xmlns="http://www.w3.org/2000/svg">
  <g id="line">
    <path d="M41.9521,67.9756c-0.0468,0-0.0947-0.0029-0.1425-0.0098c-0.5469-0.0791-0.9268-0.5849-0.8487-1.1318l0.462-3.2227 c0.0156-0.1045,0.0468-0.206,0.0937-0.3008l4.6064-9.3291c0.4874-1.2597,0.4327-2.7724-0.1865-4.0693l-2.8633-5.998 c-0.6347-1.3321-0.7656-2.8448-0.3681-4.2618c0.956-3.415,2.3681-9.0878,2.4179-10.4121c0.0391-1.0483-1.6132-2.6753-2.7998-3.4951 c-0.0527-0.0371-0.1035-0.0796-0.1484-0.126c-0.0244-0.0234-0.8535-0.7978-2.2314-0.5073 c-1.6631,0.3545-5.0713,2.4873-9.209,12.7945c-0.0557,0.1386-0.1416,0.2636-0.251,0.3642l-2.2627,2.0791 c-1.2207,1.1221-2.1348,2.3233-2.7168,3.5703c-0.3301,0.709-0.5762,1.4336-0.7314,2.1514 c-0.2784,1.2803-0.2764,2.4521,0.0039,3.4834c0.3994,1.4687,1.3799,2.709,2.914,3.6865c2.1817,1.3906,4.7119,1.749,4.7373,1.752 c0.5469,0.0752,0.9307,0.5781,0.8565,1.125c-0.0733,0.5468-0.5733,0.9297-1.1231,0.8574 c-0.1201-0.0166-2.9804-0.4131-5.5449-2.0469c-1.9668-1.2539-3.2353-2.8848-3.7695-4.8486 c-0.3653-1.3447-0.375-2.835-0.0293-4.4317c0.1865-0.8623,0.4805-1.7285,0.874-2.5732c0.6924-1.4863,1.7607-2.8984,3.1758-4.1982 l2.0967-1.9258c3.4179-8.4458,6.997-13.0918,10.6396-13.8111c2.1485-0.4233,3.5576,0.6787,3.917,1.001 c0.5928,0.4185,3.6914,2.7246,3.6006,5.1743c-0.0645,1.7325-1.7061,8.0762-2.4902,10.877 c-0.2666,0.9512-0.1788,1.9668,0.247,2.8603l2.8633,5.9981c0.8565,1.7939,0.9326,3.8847,0.21,5.7363l-4.5713,9.2656l-0.4385,3.0645 C42.8691,67.6162,42.4414,67.9756,41.9521,67.9756z"/>
    <path d="M32.9375,67.9756c-0.5332,0-0.9766-0.4219-0.998-0.96l-0.3125-7.7324c-0.0225-0.5518,0.4072-1.0166,0.9589-1.0391 c0.5469-0.0527,1.0166,0.4073,1.0391,0.959l0.3125,7.7324c0.0225,0.5518-0.4072,1.0166-0.959,1.0391 C32.9648,67.9756,32.9512,67.9756,32.9375,67.9756z"/>
    <path fill="none" stroke="#000000" stroke-linecap="round" stroke-linejoin="round" stroke-miterlimit="10" stroke-width="2" d="M38.5577,20.7847c-3.07,0.59-6.36-1.6-7.59-5.2c-0.9-2.66-0.45-5.4,0.98-7.22c0.65-0.84,1.51-1.48,2.54-1.83"/>
    <path fill="none" stroke="#000000" stroke-linecap="round" stroke-linejoin="round" stroke-miterlimit="10" stroke-width="2" d="M31.9477,8.3547c0,0,0,0,0,0.01c0.03,0.35,0.63,6.87,9.99,5.05"/>
    <path fill="none" stroke="#000000" stroke-linecap="round" stroke-linejoin="round" stroke-miterlimit="10" stroke-width="2" d="M34.4877,6.5347c0,0,8.1-3.57,11.32,3.99c2.71,6.38,2.41,11.13,2.25,12.46c-0.03,0.19-0.23,0.32-0.41,0.25 c-1.24-0.45-5.29-2.03-5.81-3.57l0.11-6.25v-0.01"/>
    <path fill="none" stroke="#000000" stroke-linecap="round" stroke-linejoin="round" stroke-miterlimit="10" stroke-width="2" d="M32.2936,55.9848"/>
    <path d="M30.918,50.71c-0.71,0-1.4825-0.0537-2.3262-0.168c-0.5479-0.0742-0.9316-0.5781-0.8574-1.125s0.5781-0.9326,1.125-0.8574 c5.6728,0.7705,7.1758-1.4756,8.6924-4.7285c2.3144-5.7413,1.9228-13.4053,1.9189-13.4825 c-0.0312-0.5507,0.3916-1.0224,0.9434-1.0527c0.5371-0.0557,1.0224,0.3906,1.0527,0.9434 c0.0186,0.331,0.4199,8.1894-2.0811,14.3886C37.8789,47.8613,36.0752,50.71,30.918,50.71z"/>
  </g>
</svg>
