<?xml version="1.0" encoding="utf-8"?>
<!-- Generator: Adobe Illustrator 21.1.0, SVG Export Plug-In . SVG Version: 6.00 Build 0)  -->
<svg version="1.1" id="emoji" xmlns="http://www.w3.org/2000/svg" xmlns:xlink="http://www.w3.org/1999/xlink" x="0px" y="0px"
	 viewBox="0 0 72 72" enable-background="new 0 0 72 72" xml:space="preserve">
<g id="_xD83E__xDD30_">
	<path fill="none" stroke="#000000" stroke-width="2" stroke-linecap="round" stroke-linejoin="round" stroke-miterlimit="10" d="
		M32.3,56c0,0-2.7-0.4-5.1-1.9c-1.5-0.9-2.8-2.3-3.3-4.3c-0.3-1.1-0.3-2.4,0-4c0.2-0.8,0.5-1.6,0.8-2.4c0.7-1.5,1.7-2.8,2.9-3.9
		l2.3-2.1c7.4-18.5,13.1-12.6,13.1-12.6s3.3,2.3,3.2,4.4c-0.1,1.5-1.6,7.6-2.5,10.6c-0.3,1.2-0.2,2.4,0.3,3.6l2.9,6
		c0.7,1.6,0.8,3.3,0.2,4.9l-4.6,9.3L42,67"/>
	
		<line fill="none" stroke="#000000" stroke-width="2" stroke-linecap="round" stroke-linejoin="round" stroke-miterlimit="10" x1="32.9" y1="67" x2="32.6" y2="59.2"/>
	<g id="XMLID_1_">
		<g>
		</g>
		<g>
			<path fill="none" stroke="#000000" stroke-width="2" stroke-linecap="round" stroke-linejoin="round" stroke-miterlimit="10" d="
				M38.6,20.8c-3.1,0.6-6.4-1.6-7.6-5.2c-0.9-2.7-0.4-5.4,1-7.2c0.6-0.8,1.5-1.5,2.5-1.8"/>
			<path fill="none" stroke="#000000" stroke-width="2" stroke-linecap="round" stroke-linejoin="round" stroke-miterlimit="10" d="
				M31.9,8.4C31.9,8.4,31.9,8.4,31.9,8.4c0,0.4,0.6,6.9,10,5.1"/>
			<path fill="none" stroke="#000000" stroke-width="2" stroke-linecap="round" stroke-linejoin="round" stroke-miterlimit="10" d="
				M34.5,6.5c0,0,8.1-3.6,11.3,4c2.7,6.4,2.4,11.1,2.2,12.5c0,0.2-0.2,0.3-0.4,0.2c-1.2-0.4-5.3-2-5.8-3.6l0.1-6.2v0"/>
		</g>
	</g>
	<path fill="none" stroke="#1D1D1B" stroke-width="2" stroke-linecap="round" stroke-linejoin="round" stroke-miterlimit="10" d="
		M32.3,56"/>
	
		<polyline fill="none" stroke="#000000" stroke-width="2" stroke-linecap="round" stroke-linejoin="round" stroke-miterlimit="10" points="
		21.5,33.6 23.1,35.8 24.8,33.6 	"/>
	<path fill="none" stroke="#000000" stroke-width="2" stroke-linecap="round" stroke-linejoin="round" stroke-miterlimit="10" d="
		M40.5,30.3c0,0,0.4,7.9-2,14c-1.5,3.3-3.3,6.2-9.7,5.3"/>
</g>
</svg>
