<?xml version="1.0" encoding="utf-8"?>
<!-- Generator: Adobe Illustrator 21.1.0, SVG Export Plug-In . SVG Version: 6.00 Build 0)  -->
<svg version="1.1" id="emoji" xmlns="http://www.w3.org/2000/svg" xmlns:xlink="http://www.w3.org/1999/xlink" x="0px" y="0px"
	 viewBox="0 0 72 72" enable-background="new 0 0 72 72" xml:space="preserve">
<g id="_xD83E__xDD3E_">
	<circle fill="none" stroke="#000000" stroke-width="2" stroke-miterlimit="10" cx="40" cy="11.1" r="3"/>
	<circle fill="none" stroke="#000000" stroke-width="2" stroke-miterlimit="10" cx="15" cy="19.1" r="3"/>
	<g>
		<path fill="none" stroke="#000000" stroke-width="2" stroke-linecap="round" stroke-linejoin="round" stroke-miterlimit="10" d="
			M40.1,37l-4.9,7.3c-0.6,0.9-2,1.8-3.1,2l-9.8,1.4c-1.1,0.2-2.1-0.4-2.2-1.2c-0.1-0.8,0.6-1.8,1.6-2.2l6.5-2.5
			c1-0.4,2.1-1.6,2.5-2.6l0.7-2.2c0.3-1,1-2.7,1.4-3.7l1.4-3.3c0.4-1,0.8-2.7,0.7-3.8c0-1.1-0.3-2.4-0.7-3c-0.3-0.6-0.6-1.1-0.6-1.1
			"/>
	</g>
	<g>
		<path fill="none" stroke="#000000" stroke-width="2" stroke-linecap="round" stroke-linejoin="round" stroke-miterlimit="10" d="
			M47.1,28"/>
	</g>
	<g>
		<path fill="none" stroke="#000000" stroke-width="2" stroke-linecap="round" stroke-linejoin="round" stroke-miterlimit="10" d="
			M37,42v5c0,1.1-0.4,2.7-1.1,3.6l-3.9,5.7c-0.6,0.9-0.4,2.1,0.4,2.6c0.8,0.5,2.1,0.3,2.9-0.5l5.5-6c0.7-0.8,1.5-2.4,1.8-3.4
			l2.1-9.1c0.2-1.1,0.5-2.8,0.5-3.9l0.3-14"/>
	</g>
	<g>
		<path fill="none" stroke="#000000" stroke-width="2" stroke-linecap="round" stroke-linejoin="round" stroke-miterlimit="10" d="
			M15.9,16l7.3,3.2c1,0.4,2.7,0.5,3.7,0.2l2.2-0.7c1-0.3,2.8-0.7,3.9-0.8l11-0.7c1.1-0.1,2.8,0.2,3.9,0.5L64,23"/>
	</g>
</g>
</svg>
