<svg id="emoji" viewBox="0 0 72 72" xmlns="http://www.w3.org/2000/svg">
  <g id="line">
    <path fill="none" stroke="#000" stroke-linecap="round" stroke-linejoin="round" stroke-width="2" d="M4.7665,40.9908c2.86,0,8.5794,2.86,14.2991,2.86s9.5327-2.86,15.2523-2.86,10.486,2.86,15.2523,2.86,6.6729-2.86,14.2991-2.86"/>
    <path fill="none" stroke="#000" stroke-linecap="round" stroke-linejoin="round" stroke-width="2" d="M43.8506,48.617a19.97,19.97,0,0,0,5.72.9533c2.5739,0,4.3851-.858,6.6729-1.6206"/>
    <path fill="none" stroke="#000" stroke-linecap="round" stroke-linejoin="round" stroke-width="2" d="M12.202,48.5217A26.5093,26.5093,0,0,0,19.0656,49.57c5.72,0,9.5327-2.86,15.2523-2.86"/>
    <path fill="none" stroke="#000" stroke-linecap="round" stroke-linejoin="round" stroke-width="2" d="M24.7852,55.29c3.05-.858,5.91-2.0019,9.5327-2.0019,4.1944,0,7.9121,1.5252,11.4392,2.3832"/>
    <circle cx="14.2992" cy="14.3946" r="2.8598" fill="none" stroke="#000" stroke-miterlimit="10" stroke-width="2"/>
    <circle cx="33.3643" cy="19.1609" r="3" fill="none" stroke="#000" stroke-miterlimit="10" stroke-width="2"/>
    <path fill="none" stroke="#000" stroke-linecap="round" stroke-linejoin="round" stroke-width="2" d="M28.598,40.9908V34.3179a11.7319,11.7319,0,0,0-.4766-3.3364c-.286-.7627-.4767-1.43-.4767-1.43"/>
    <path fill="none" stroke="#000" stroke-linecap="round" stroke-linejoin="round" stroke-width="2" d="M40.0372,33.3646l-.9532,7.6262"/>
    <path fill="none" stroke="#000" stroke-linecap="round" stroke-linejoin="round" stroke-width="2" d="M17.0634,15.2525l2.3832,6.7682a4.1985,4.1985,0,0,0,2.4785,2.2879l3.9084.9532a16.7367,16.7367,0,0,0,3.7178.572l8.5794.6673a6.0306,6.0306,0,0,1,3.2411,1.5252l.1907.1907a11.0071,11.0071,0,0,1,2.0018,3.1458L44.327,33.46c.3813.9532.9532,2.5738,1.3345,3.5271L48.426,43.374"/>
    <path fill="none" stroke="#000" stroke-linecap="round" stroke-linejoin="round" stroke-width="2" d="M37.395,18.4363s.6362-.1686.936.186c.3531.4163.4056,1.7478.7962,2.39a3.3624,3.3624,0,0,0,1.6458,1.417"/>
  </g>
</svg>
