<?xml version="1.0" encoding="utf-8"?>
<!-- Generator: Adobe Illustrator 21.1.0, SVG Export Plug-In . SVG Version: 6.00 Build 0)  -->
<svg version="1.1" id="emoji" xmlns="http://www.w3.org/2000/svg" xmlns:xlink="http://www.w3.org/1999/xlink" x="0px" y="0px"
	 viewBox="0 0 72 72" enable-background="new 0 0 72 72" xml:space="preserve">
<g id="_xD83E__xDD4B__1_">
	<path fill="none" stroke="#000000" stroke-width="2" stroke-linecap="round" stroke-linejoin="round" stroke-miterlimit="10" d="
		M28.3,12.9c0,0-6.3,0.7-8.2,2.4s-3.4,7.1-3.4,7.1L9.5,45l0,0l0,0l0,0c4.9-1,8.7,1.8,8.7,1.8v0l6.1-19.3l0.5,18.9l-4.2,14
		c1.8,2,4.7,1.4,4.7,1.4V64C36,65.7,43.7,64.6,48,63.6"/>
	<path fill="none" stroke="#000000" stroke-width="2" stroke-linecap="round" stroke-linejoin="round" stroke-miterlimit="10" d="
		M43.9,12.9c0,0,6.1,1,8,2.7s3.4,7.1,3.4,7.1l7.1,22.6l0,0c-4.9-1-8.7,1.8-8.7,1.8l-6.1-19.3l-0.5,18.9l4.7,15.7"/>
	<path fill="none" stroke="#000000" stroke-width="2" stroke-linecap="round" stroke-linejoin="round" stroke-miterlimit="10" d="
		M36.1,17.5c-2.7-4.9-4.9-7.8-5.5-8.6c0,0-1.1-1.8,1-1.8h4.5h0h4.5c2.1,0,1,1.8,1,1.8c-1.1,1.7-10.4,13.6-14.7,33.5"/>
	<path fill="none" stroke="#000000" stroke-width="2" stroke-linecap="round" stroke-linejoin="round" stroke-miterlimit="10" d="
		M30.9,42.7c4.1-17.8,12-28.1,13-29.8l-2.1-5.3"/>
	<path fill="none" stroke="#000000" stroke-width="2" stroke-linecap="round" stroke-linejoin="round" stroke-miterlimit="10" d="
		M33.8,22c-2.7-5.2-5-8.3-5.5-9.1"/>
	<g>
		
			<line fill="none" stroke="#000000" stroke-width="2" stroke-linecap="round" stroke-linejoin="round" stroke-miterlimit="10" x1="28.3" y1="12.9" x2="30.4" y2="7.7"/>
	</g>
	<g>
		<path fill="none" stroke="#000000" stroke-width="2" stroke-linecap="round" stroke-linejoin="round" stroke-miterlimit="10" d="
			M47.3,42.2c-9.9,0.9-17.8,0.7-22.6,0"/>
	</g>
	<g>
		<path fill="none" stroke="#000000" stroke-width="2" stroke-linecap="round" stroke-linejoin="round" stroke-miterlimit="10" d="
			M47.2,46.3c-9.8,0.9-17.6,0.7-22.4,0"/>
	</g>
</g>
</svg>
