<?xml version="1.0" encoding="utf-8"?>
<!-- Generator: Adobe Illustrator 19.1.0, SVG Export Plug-In . SVG Version: 6.00 Build 0)  -->
<svg version="1.1" id="emoji" xmlns="http://www.w3.org/2000/svg" xmlns:xlink="http://www.w3.org/1999/xlink" x="0px" y="0px"
	 viewBox="0 0 72 72" enable-background="new 0 0 72 72" xml:space="preserve">
<g id="_xD83E__xDD4A__1_">
	<path fill="none" stroke="#000000" stroke-width="2" stroke-linecap="round" stroke-linejoin="round" stroke-miterlimit="10" d="
		M45.6,50.9c0,1.9-5.3,3.3-11.8,3.3s-11.8-1.5-11.8-3.4"/>
	<path fill="none" stroke="#000000" stroke-width="2" stroke-linecap="round" stroke-linejoin="round" stroke-miterlimit="10" d="
		M45.6,60.1V46.4c0,0,1.3-1.2,2.4-2.3c3.8-3.9,5.6-9.9,5.6-9.9c5-13.4,0.7-17.7,0.7-17.7c-1-1.3-3.1-0.6-3.1-0.6
		c-0.3-3.1-1.2-5-1.2-5c-2.3-7.1-21.9-5.1-21.9-5.1c-13,1.8-12.1,15.8-12.1,15.8c0,18.6,6.1,24.8,6.1,24.8v16.8l0,0
		c0,1.9,5.4,3.4,12,3.4"/>
	<path fill="none" stroke="#000000" stroke-width="2" stroke-linecap="round" stroke-linejoin="round" stroke-miterlimit="10" d="
		M33.6,66.5c5.4,0,10-1,11.5-2.4c0,0,0,0,0.1-0.1"/>
	<path fill="none" stroke="#000000" stroke-width="2" stroke-linecap="round" stroke-linejoin="round" stroke-miterlimit="10" d="
		M41.3,13.6c4.9-4.4,9.9,2.3,9.9,2.3s-6,1.9-5,10.9"/>
</g>
</svg>
