<?xml version="1.0" encoding="utf-8"?>
<!-- Generator: Adobe Illustrator 19.1.0, SVG Export Plug-In . SVG Version: 6.00 Build 0)  -->
<svg version="1.1" id="emoji" xmlns="http://www.w3.org/2000/svg" xmlns:xlink="http://www.w3.org/1999/xlink" x="0px" y="0px"
	 viewBox="0 0 72 72" enable-background="new 0 0 72 72" xml:space="preserve">
<g id="_xD83E__xDD51__1_">
	<path fill="none" stroke="#1D1D1B" stroke-width="2" stroke-miterlimit="10" d="M52.5,44.6c0,9-7.3,16.4-16.4,16.4
		c-9,0-16.4-7.3-16.4-16.4c0-0.3,0-0.5,0-0.7c0.1-2.3,0.7-4.5,1.6-6.4c0.6-1.6,1.4-3.2,2.1-4.8c2-4.3,4.1-8.7,4.1-13
		c0-4.7,3.8-8.4,8.4-8.4c4.7,0,8.4,3.8,8.4,8.4c0,4.3,2.1,8.7,4.1,13c0.8,1.6,1.5,3.2,2.1,4.8c0.9,2.2,1.5,4.3,1.6,6.4
		C52.5,44.1,52.5,44.4,52.5,44.6z"/>
	
		<circle fill="none" stroke="#1D1D1B" stroke-width="2" stroke-linecap="round" stroke-linejoin="round" stroke-miterlimit="10" cx="36.1" cy="44.5" r="8.4"/>
	
		<circle fill="none" stroke="#1D1D1B" stroke-width="2" stroke-linecap="round" stroke-linejoin="round" stroke-miterlimit="10" cx="36.1" cy="44.5" r="8.4"/>
</g>
</svg>
