<svg id="emoji" viewBox="0 0 72 72" xmlns="http://www.w3.org/2000/svg">
  <g id="line">
    <path fill="none" stroke="#000000" stroke-linecap="round" stroke-linejoin="round" stroke-miterlimit="10" stroke-width="2" d="M59.0417,27.8733c0,18.2898-7.5955,27.2079-14.6746,31.5411c-6.1848,3.8041-11.9917,4.1064-11.9917,4.1064 c-10.8076,0-19.5746-8.767-19.5746-19.5746c0-6.6509,3.7337-11.4301,8.3765-16.0729C33.2467,15.804,31.9388,9.5079,42.8303,9.5079 c8.956,0,16.2114,7.2681,16.2114,16.224C59.0417,26.5381,59.0417,27.8733,59.0417,27.8733z"/>
    <circle cx="39.534" cy="16.2145" r="1.2603" fill="#000000" stroke="none"/>
    <circle cx="38.2737" cy="51.6496" r="3.2408" fill="none" stroke="#000000" stroke-linecap="round" stroke-linejoin="round" stroke-miterlimit="10" stroke-width="2"/>
    <path fill="none" stroke="#000000" stroke-linecap="round" stroke-linejoin="round" stroke-miterlimit="10" stroke-width="2" d="M59.0417,27.8733c0,18.2898-7.5955,27.2079-14.6746,31.5411c-6.1848,3.8041-11.9917,4.1064-11.9917,4.1064 c-10.8076,0-19.5746-8.767-19.5746-19.5746c0-6.6509,3.7337-11.4301,8.3765-16.0729C33.2467,15.804,31.9388,9.5079,42.8303,9.5079 c8.956,0,16.2114,7.2681,16.2114,16.224C59.0417,26.5381,59.0417,27.8733,59.0417,27.8733z"/>
  </g>
</svg>
