<svg id="emoji" viewBox="0 0 72 72" xmlns="http://www.w3.org/2000/svg">
  <g id="line">
    <path fill="none" stroke="#000" stroke-linecap="round" stroke-linejoin="round" stroke-width="2" d="M50.2693,28.2022a5.1615,5.1615,0,0,1,2.9807.0393,5.83,5.83,0,0,1,2.56,1.689"/>
    <path fill="none" stroke="#000" stroke-linecap="round" stroke-linejoin="round" stroke-width="2" d="M33.2771,29.2289a5.8288,5.8288,0,0,1,2.8281-1.1871,5.16,5.16,0,0,1,2.9367.5118"/>
    <path fill="none" stroke="#000" stroke-linecap="round" stroke-linejoin="round" stroke-width="2" d="M17.5841,30.9305a5.8307,5.8307,0,0,1,2.56-1.689,5.1611,5.1611,0,0,1,2.9806-.0393"/>
    <path fill="none" stroke="#000" stroke-linecap="round" stroke-linejoin="round" stroke-width="2" d="M63.6508,30.9359A4.9051,4.9051,0,0,0,63.1,27.4a5.0971,5.0971,0,0,0-5.7-2.3,2.9614,2.9614,0,0,0-3.3-3.7A4.9778,4.9778,0,0,0,45.6,17a3.1021,3.1021,0,0,0-2.1-2.2,3.4405,3.4405,0,0,0-2.6.5,4.9559,4.9559,0,0,0-4.7-3.4,4.8455,4.8455,0,0,0-4.8,3.8,2.8031,2.8031,0,0,0-2.9-.8,3.0871,3.0871,0,0,0-2,1.7,4.9736,4.9736,0,0,0-5.8-.6,5.0971,5.0971,0,0,0-2.3,5.7A2.9614,2.9614,0,0,0,14.7,25a5.0362,5.0362,0,0,0-5.3,2.4,4.7548,4.7548,0,0,0-.6441,2.8857"/>
    <path fill="none" stroke="#000000" stroke-linecap="round" stroke-linejoin="round" stroke-width="2" d="M65,35A29,29,0,0,1,7,35Z"/>
  </g>
</svg>
