<?xml version="1.0" encoding="utf-8"?>
<!-- Generator: Adobe Illustrator 21.1.0, SVG Export Plug-In . SVG Version: 6.00 Build 0)  -->
<svg version="1.1" id="Ebene_3" xmlns="http://www.w3.org/2000/svg" xmlns:xlink="http://www.w3.org/1999/xlink" x="0px" y="0px"
	 viewBox="0 0 72 72" enable-background="new 0 0 72 72" xml:space="preserve">
<g>
	<path fill="none" stroke="#000000" stroke-width="2" stroke-linecap="round" stroke-linejoin="round" stroke-miterlimit="10" d="
		M59.7,55.7l-1.4-1.4L17.7,13.7l-1.4-1.4C15.9,12.1,15.5,12,15,12c-1.7,0-3,1.3-3,3v43c0,1.1,0.9,2,2,2h43c1.7,0,3-1.3,3-3
		C60,56.5,59.9,56.1,59.7,55.7z"/>
	
		<line fill="none" stroke="#000000" stroke-width="2" stroke-linecap="round" stroke-linejoin="round" stroke-miterlimit="10" x1="23" y1="53" x2="33" y2="43"/>
	
		<line fill="none" stroke="#000000" stroke-width="2" stroke-linecap="round" stroke-linejoin="round" stroke-miterlimit="10" x1="18" y1="48" x2="28" y2="38"/>
	
		<line fill="none" stroke="#000000" stroke-width="2" stroke-linecap="round" stroke-linejoin="round" stroke-miterlimit="10" x1="17" y1="39" x2="24" y2="32"/>
	
		<line fill="none" stroke="#000000" stroke-width="2" stroke-linecap="round" stroke-linejoin="round" stroke-miterlimit="10" x1="32" y1="55" x2="39" y2="48"/>
	<g>
		<path fill="none" stroke="#000000" stroke-width="2" stroke-linecap="round" stroke-linejoin="round" stroke-miterlimit="10" d="
			M34.5,19.8c-0.2-0.4-0.5-0.8-0.9-1.2c-1.3-1.3-3.2-1.7-4.9-1.2c0.3-1,0.1-2.2-0.7-3s-2-1-3-0.7c0.5-1.7,0.1-3.6-1.2-4.9
			c-2-2-5.1-2-7.1,0c-0.2,0.2-0.3,0.4-0.5,0.6C16,9,15.8,8.7,15.5,8.5c-2-2-5.1-2-7.1,0C6.7,10.3,6.5,13,8,15c-1.2,0.9-2,2.4-2,4
			c0,1.9,1.1,3.5,2.6,4.4C7.7,23.9,7,24.9,7,26s0.7,2.1,1.6,2.6c-0.9,0.5-1.7,1.3-2.1,2.3"/>
		<path fill="none" stroke="#000000" stroke-width="2" stroke-linecap="round" stroke-linejoin="round" stroke-miterlimit="10" d="
			M48.6,36.9c0.2-1,0-2-0.8-2.7c-0.1-0.1-0.3-0.2-0.4-0.3"/>
		<path fill="none" stroke="#000000" stroke-width="2" stroke-linecap="round" stroke-linejoin="round" stroke-miterlimit="10" d="
			M7.8,43.2C6.7,44.1,6,45.5,6,47c0,1.9,1.1,3.5,2.6,4.4C7.7,51.9,7,52.9,7,54s0.7,2.1,1.6,2.6C7.1,57.5,6,59.1,6,61
			c0,2.8,2.2,5,5,5c1.9,0,3.5-1.1,4.4-2.6c0.2,0.4,0.5,0.7,0.8,0.9"/>
		<path fill="none" stroke="#000000" stroke-width="2" stroke-linecap="round" stroke-linejoin="round" stroke-miterlimit="10" d="
			M30.6,64.7C31,64.9,31.5,65,32,65c1.1,0,2.1-0.7,2.6-1.6c0.9,1.5,2.5,2.6,4.4,2.6s3.5-1.1,4.4-2.6c0.5,0.9,1.5,1.6,2.6,1.6
			s2.1-0.7,2.6-1.6c0.9,1.5,2.5,2.6,4.4,2.6c1.6,0,3.1-0.8,4-2c2,1.5,4.8,1.3,6.5-0.4c2-2,2-5.1,0-7.1c-0.2-0.2-0.5-0.5-0.8-0.6
			c0.2-0.1,0.4-0.3,0.6-0.5c2-2,2-5.1,0-7.1c-1.3-1.3-3.2-1.7-4.9-1.2c0.3-1,0.1-2.2-0.7-3c-0.8-0.8-2-1-3-0.7
			c0.5-1.7,0.1-3.6-1.2-4.9c-1.3-1.3-3.1-1.7-4.8-1.3"/>
	</g>
	<g>
		<path fill="none" stroke="#000000" stroke-width="2" stroke-linecap="round" stroke-linejoin="round" stroke-miterlimit="10" d="
			M39.4,23.6l4.8,12l0,0L39.4,23.6c-0.3-0.7-0.9-1.1-1.6-1.1C38.5,22.4,39.2,22.9,39.4,23.6z"/>
		<path fill="none" stroke="#000000" stroke-width="2" stroke-linecap="round" stroke-linejoin="round" stroke-miterlimit="10" d="
			M44.2,35.5l-4.8-12c-0.3-0.7-0.9-1.1-1.6-1.1c-0.2,0-0.5,0-0.7,0.1l-4.2,1.7"/>
		<path fill="none" stroke="#000000" stroke-width="2" stroke-linecap="round" stroke-linejoin="round" stroke-miterlimit="10" d="
			M18.7,63.2l0.5,1.3c0.4,0.9,1.4,1.4,2.3,1l5.8-2.3"/>
		<path fill="none" stroke="#000000" stroke-width="2" stroke-linecap="round" stroke-linejoin="round" stroke-miterlimit="10" d="
			M9.2,33.6l-0.4,0.1c-0.9,0.4-1.4,1.4-1,2.3l1.4,3.5"/>
	</g>
</g>
</svg>
