<svg id="emoji" viewBox="0 0 72 72" xmlns="http://www.w3.org/2000/svg">
  <g id="line">
    <path fill="none" stroke="#000000" stroke-linecap="round" stroke-linejoin="round" stroke-miterlimit="10" stroke-width="2" d="M33.5798,37.6939"/>
    <path fill="none" stroke="#000000" stroke-miterlimit="10" stroke-width="2" d="M26.7232,45.3139 c-0.4196,0.0478-0.8461,0.0723-1.278,0.0723c-6.125,0-11.0961-4.9423-11.0961-11.0385c0-3.6552,1.7871-6.8941,4.5366-8.9045 c0.8801-0.6435,1.4456-1.6121,1.7114-2.6694c1.7341-6.898,8.0083-12.003,15.4732-12.003c7.5784,0,13.9358,5.2744,15.5442,12.3414 c0.2335,1.0259,0.8381,1.9071,1.6744,2.5454c2.634,2.0103,4.3295,5.1681,4.3295,8.7285c0,6.0769-4.9519,11-11.0577,11 c-0.161,0-0.3212-0.0034-0.4805-0.0101"/>
    <path fill="none" stroke="#000000" stroke-miterlimit="10" stroke-width="2" d="M26.7232,45.3139 c-0.4196,0.0478-0.8461,0.0723-1.278,0.0723c-6.125,0-11.0961-4.9423-11.0961-11.0385c0-3.6552,1.7871-6.8941,4.5366-8.9045 c0.8801-0.6435,1.4456-1.6121,1.7114-2.6694c1.7341-6.898,8.0083-12.003,15.4732-12.003c7.5784,0,13.9358,5.2744,15.5442,12.3414 c0.2335,1.0259,0.8381,1.9071,1.6744,2.5454c2.634,2.0103,4.3295,5.1681,4.3295,8.7285c0,6.0769-4.9519,11-11.0577,11 c-0.161,0-0.3212-0.0034-0.4805-0.0101"/>
    <path fill="none" stroke="#000000" stroke-linecap="round" stroke-linejoin="round" stroke-miterlimit="10" stroke-width="2" d="M46.0798,45.3862c0,0-0.2019,0-0.5481-0.0288c-0.0096,0-0.0288,0-0.0385,0"/>
    <path fill="none" stroke="#000000" stroke-linecap="round" stroke-linejoin="round" stroke-miterlimit="10" stroke-width="2" d="M27.176,45.2804c-0.7692,0.1058-1.2885,0.1058-1.2885,0.1058"/>
    <path fill="none" stroke="#000000" stroke-linecap="round" stroke-linejoin="round" stroke-miterlimit="10" stroke-width="2" d="M25.8875,45.3862c0,0,5.7692,0,7.6923-3.8462"/>
    <path fill="none" stroke="#000000" stroke-linecap="round" stroke-miterlimit="10" stroke-width="2" d="M43.1952,48.2708 c0,0-0.9615,1.9231-0.9615,4.8077v2.0979v3.6313c0,1.0842-0.8789,1.9631-1.9631,1.9631h-1.883h-3.8462h-1.883 c-1.0842,0-1.9631-0.8789-1.9631-1.9631v-3.6313v-2.0979c0-2.8846-0.9615-4.8077-0.9615-4.8077"/>
    <path fill="none" stroke="#000000" stroke-linecap="round" stroke-linejoin="round" stroke-miterlimit="10" stroke-width="2" d="M46.0798,45.3862c0,0-5.7692,0-7.6923-3.8462"/>
    <path fill="none" stroke="#000000" stroke-miterlimit="10" stroke-width="2" d="M26.7232,45.3139 c-0.4196,0.0478-0.8461,0.0723-1.278,0.0723c-6.125,0-11.0961-4.9423-11.0961-11.0385c0-3.6552,1.7871-6.8941,4.5366-8.9045 c0.8801-0.6435,1.4456-1.6121,1.7114-2.6694c1.7341-6.898,8.0083-12.003,15.4732-12.003c7.5784,0,13.9358,5.2744,15.5442,12.3414 c0.2335,1.0259,0.8381,1.9071,1.6744,2.5454c2.634,2.0103,4.3295,5.1681,4.3295,8.7285c0,6.0769-4.9519,11-11.0577,11 c-0.161,0-0.3212-0.0034-0.4805-0.0101"/>
    <path fill="none" stroke="#000000" stroke-linecap="round" stroke-linejoin="round" stroke-miterlimit="10" stroke-width="2" d="M46.0798,45.3862c0,0-0.2019,0-0.5481-0.0288c-0.0096,0-0.0288,0-0.0385,0"/>
    <path fill="none" stroke="#000000" stroke-linecap="round" stroke-linejoin="round" stroke-miterlimit="10" stroke-width="2" d="M27.176,45.2804c-0.7692,0.1058-1.2885,0.1058-1.2885,0.1058"/>
  </g>
</svg>
