<?xml version="1.0" encoding="utf-8"?>
<!-- Generator: Adobe Illustrator 21.1.0, SVG Export Plug-In . SVG Version: 6.00 Build 0)  -->
<svg version="1.1" id="emoji" xmlns="http://www.w3.org/2000/svg" xmlns:xlink="http://www.w3.org/1999/xlink" x="0px" y="0px"
	 viewBox="0 0 72 72" enable-background="new 0 0 72 72" xml:space="preserve">
<g id="_xD83E__xDD66__1_">
	
		<path fill="#FFFFFF" stroke="#1D1D1B" stroke-width="2" stroke-linecap="round" stroke-linejoin="round" stroke-miterlimit="10" d="
		M33.3,37.7"/>
	<path fill="none" stroke="#1D1D1B" stroke-width="2" stroke-miterlimit="10" d="M26.5,45.3c-0.4,0-0.8,0.1-1.3,0.1
		c-6.1,0-11.1-4.9-11.1-11c0-3.7,1.8-6.9,4.5-8.9c0.9-0.6,1.4-1.6,1.7-2.7c1.7-6.9,8-12,15.5-12c7.6,0,13.9,5.3,15.5,12.3
		c0.2,1,0.8,1.9,1.7,2.5c2.6,2,4.3,5.2,4.3,8.7c0,6.1-5,11-11.1,11c-0.2,0-0.3,0-0.5,0"/>
	<g>
		<path fill="none" stroke="#1D1D1B" stroke-width="2" stroke-miterlimit="10" d="M26.5,45.3c-0.4,0-0.8,0.1-1.3,0.1
			c-6.1,0-11.1-4.9-11.1-11c0-3.7,1.8-6.9,4.5-8.9c0.9-0.6,1.4-1.6,1.7-2.7c1.7-6.9,8-12,15.5-12c7.6,0,13.9,5.3,15.5,12.3
			c0.2,1,0.8,1.9,1.7,2.5c2.6,2,4.3,5.2,4.3,8.7c0,6.1-5,11-11.1,11c-0.2,0-0.3,0-0.5,0"/>
		<path fill="none" stroke="#1D1D1B" stroke-width="2" stroke-linecap="round" stroke-linejoin="round" stroke-miterlimit="10" d="
			M45.8,45.4c0,0-0.2,0-0.5,0c0,0,0,0,0,0"/>
		<path fill="none" stroke="#1D1D1B" stroke-width="2" stroke-linecap="round" stroke-linejoin="round" stroke-miterlimit="10" d="
			M26.9,45.3c-0.8,0.1-1.3,0.1-1.3,0.1"/>
	</g>
	<path fill="none" stroke="#1D1D1B" stroke-width="2" stroke-linecap="round" stroke-linejoin="round" stroke-miterlimit="10" d="
		M25.6,45.4c0,0,5.8,0,7.7-3.8"/>
	<path fill="none" stroke="#1D1D1B" stroke-width="2" stroke-linecap="round" stroke-miterlimit="10" d="M42.9,48.3c0,0-1,1.9-1,4.8
		v2.1v3.6c0,1.1-0.9,2-2,2h-1.9h-3.8h-1.9c-1.1,0-2-0.9-2-2v-3.6v-2.1c0-2.9-1-4.8-1-4.8"/>
	<path fill="none" stroke="#1D1D1B" stroke-width="2" stroke-linecap="round" stroke-linejoin="round" stroke-miterlimit="10" d="
		M45.8,45.4c0,0-5.8,0-7.7-3.8"/>
	<g>
		<path fill="none" stroke="#1D1D1B" stroke-width="2" stroke-miterlimit="10" d="M26.5,45.3c-0.4,0-0.8,0.1-1.3,0.1
			c-6.1,0-11.1-4.9-11.1-11c0-3.7,1.8-6.9,4.5-8.9c0.9-0.6,1.4-1.6,1.7-2.7c1.7-6.9,8-12,15.5-12c7.6,0,13.9,5.3,15.5,12.3
			c0.2,1,0.8,1.9,1.7,2.5c2.6,2,4.3,5.2,4.3,8.7c0,6.1-5,11-11.1,11c-0.2,0-0.3,0-0.5,0"/>
		<path fill="none" stroke="#1D1D1B" stroke-width="2" stroke-linecap="round" stroke-linejoin="round" stroke-miterlimit="10" d="
			M45.8,45.4c0,0-0.2,0-0.5,0c0,0,0,0,0,0"/>
		<path fill="none" stroke="#1D1D1B" stroke-width="2" stroke-linecap="round" stroke-linejoin="round" stroke-miterlimit="10" d="
			M26.9,45.3c-0.8,0.1-1.3,0.1-1.3,0.1"/>
	</g>
</g>
</svg>
