<?xml version="1.0" encoding="utf-8"?>
<!-- Generator: Adobe Illustrator 21.1.0, SVG Export Plug-In . SVG Version: 6.00 Build 0)  -->
<svg version="1.1" id="emoji" xmlns="http://www.w3.org/2000/svg" xmlns:xlink="http://www.w3.org/1999/xlink" x="0px" y="0px"
	 viewBox="0 0 72 72" enable-background="new 0 0 72 72" xml:space="preserve">
<g id="_xD83E__xDD67__1_">
	<path fill="none" stroke="#1D1D1B" stroke-width="2" stroke-linecap="round" stroke-linejoin="round" stroke-miterlimit="10" d="
		M66,49c0,0-0.9,3-1,4c-0.2,1.6-1.3,3-3,3H10c-1.7,0-2.8-1.4-3-3c-0.1-1-1-4-1-4"/>
	<path fill="none" stroke="#1D1D1B" stroke-width="2" stroke-linecap="round" stroke-linejoin="round" stroke-miterlimit="10" d="
		M63.7,36.3c-0.4-1.5-0.9-3.3-0.9-3.3c-2.8-6.9-8.3-12.6-15.7-15.7c-14.5-6-31,0.6-37.5,14.7c0,0-0.8,1.9-1.2,4.2
		C6.5,36.9,5,38.8,5,41c0,2.8,2.2,5,5,5c1.9,0,3.5-1,4.3-2.5c0.9,1.5,2.5,2.5,4.3,2.5c1.9,0,3.5-1,4.3-2.5c0.9,1.5,2.5,2.5,4.3,2.5
		c1.9,0,3.5-1,4.3-2.5C32.5,45,34.1,46,36,46c1.9,0,3.5-1,4.3-2.5c0.9,1.5,2.5,2.5,4.3,2.5c1.9,0,3.5-1,4.3-2.5
		c0.9,1.5,2.5,2.5,4.3,2.5c1.9,0,3.5-1,4.3-2.5C58.5,45,60.1,46,62,46c2.8,0,5-2.2,5-5C67,38.8,65.6,37,63.7,36.3z"/>
	
		<line fill="none" stroke="#1D1D1B" stroke-width="2" stroke-linecap="round" stroke-linejoin="round" stroke-miterlimit="10" x1="36" y1="32" x2="36" y2="26"/>
	
		<line fill="none" stroke="#1D1D1B" stroke-width="2" stroke-linecap="round" stroke-linejoin="round" stroke-miterlimit="10" x1="22.4" y1="29.6" x2="27.2" y2="24.8"/>
	
		<line fill="none" stroke="#1D1D1B" stroke-width="2" stroke-linecap="round" stroke-linejoin="round" stroke-miterlimit="10" x1="49.6" y1="29.6" x2="44.8" y2="24.8"/>
</g>
</svg>
