<svg id="emoji" viewBox="0 0 72 72" xmlns="http://www.w3.org/2000/svg">
  <g id="line">
    <path fill="none" stroke="#000" stroke-linecap="round" stroke-linejoin="round" stroke-width="2" d="M18.313,38.4649q-.1426.112-.2795.2309a3.0469,3.0469,0,0,0-1.0761,3.4635q.0411.14.0926.2839c1.486,4.1605,5.3652,6.7606,9.3642,8.2A27.9756,27.9756,0,0,0,35.8694,52.22,25.53,25.53,0,0,0,49.31,48.7362a12.5575,12.5575,0,0,0,5.3707-6.2491,3.0869,3.0869,0,0,0-.5978-3.4214"/>
    <ellipse cx="35.865" cy="26.6802" rx="7.7191" ry="1.5438" fill="none" stroke="#000" stroke-miterlimit="10" stroke-width="2"/>
    <path fill="none" stroke="#000" stroke-miterlimit="10" stroke-width="2" d="M54.777,32.0607q-.0413-.14-.0927-.2839c-1.486-4.1605-5.3651-6.7606-9.3642-8.2A27.9752,27.9752,0,0,0,35.8649,22a25.53,25.53,0,0,0-13.4406,3.4838,12.557,12.557,0,0,0-5.3707,6.2491,3.2193,3.2193,0,0,0,1.2393,4.0081,14.09,14.09,0,0,0,4.43,2.1379A43.3056,43.3056,0,0,0,35.865,39.6483a41.1283,41.1283,0,0,0,14.06-2.0835,11.9787,11.9787,0,0,0,3.7763-2.0406A3.0469,3.0469,0,0,0,54.777,32.0607Z"/>
    <circle cx="27.0076" cy="31.8048" r="0.5714"/>
    <circle cx="32.722" cy="31.8048" r="0.5714"/>
    <circle cx="24.7218" cy="28.3761" r="0.5714"/>
    <circle cx="31.5791" cy="35.2334" r="0.5714"/>
    <circle cx="21.2932" cy="31.8048" r="0.5714"/>
    <circle cx="38.4364" cy="34.0906" r="0.5714"/>
    <circle cx="38.4364" cy="30.6619" r="0.5714"/>
    <circle cx="41.8651" cy="36.3763" r="0.5714"/>
    <circle cx="44.1509" cy="30.6619" r="0.5714"/>
    <circle cx="46.4366" cy="32.9477" r="0.5714"/>
    <circle cx="47.5795" cy="27.2332" r="0.5714"/>
    <circle cx="49.8653" cy="30.6619" r="0.5714"/>
    <path fill="none" stroke="#000" stroke-linecap="round" stroke-linejoin="round" stroke-width="2" d="M22.0477,42.9323a4.3084,4.3084,0,0,0,5.2925-.5734,2.6782,2.6782,0,0,0,1.7385,1.9678,2.97,2.97,0,0,0,2.26-.3448,4.279,4.279,0,0,0,3.9417,3.09,4.1836,4.1836,0,0,0,4.2675-3.1187,2.42,2.42,0,0,0,2.4753.7867,2.6652,2.6652,0,0,0,1.782-1.4,4.294,4.294,0,0,0,4.9838.7107"/>
    <circle cx="26.5791" cy="35.2334" r="0.5714"/>
  </g>
</svg>
