<?xml version="1.0" encoding="utf-8"?>
<!-- Generator: Adobe Illustrator 21.1.0, SVG Export Plug-In . SVG Version: 6.00 Build 0)  -->
<svg version="1.1" id="Ebene_3" xmlns="http://www.w3.org/2000/svg" xmlns:xlink="http://www.w3.org/1999/xlink" x="0px" y="0px"
	 viewBox="0 0 72 72" enable-background="new 0 0 72 72" xml:space="preserve">
<g>
	<path fill="none" stroke="#000000" stroke-width="2" stroke-linecap="round" stroke-linejoin="round" stroke-miterlimit="10" d="
		M29.4,52"/>
	<path fill="none" stroke="#000000" stroke-width="2" stroke-linecap="round" stroke-linejoin="round" stroke-miterlimit="10" d="
		M32.2,13.5c-2.6-1.4-5.6-2.2-8.8-2.2C13.3,11.3,5,19.6,5,29.7c0,0,0,0,0,0c0,0,0,0,0,0c0,0,0,0,0,0c0,0,0,0,0,0
		c0,6,1.7,11.7,4.9,16.6"/>
	<path fill="none" stroke="#000000" stroke-width="2" stroke-linecap="round" stroke-linejoin="round" stroke-miterlimit="10" d="
		M41.7,31.6c0-0.6,0.1-1.3,0.1-1.9c0-0.6,0-1.3-0.1-1.9"/>
	<path fill="none" stroke="#000000" stroke-width="2" stroke-linecap="round" stroke-linejoin="round" stroke-miterlimit="10" d="
		M29.3,42.1c-3.4,3.7-8.2,6-13.6,6c-2.1,0-3.9,1.7-3.9,3.9c0,2.1,1.7,3.9,3.9,3.9c6.7,0,12.8-2.5,17.4-6.7"/>
	<path fill="none" stroke="#000000" stroke-width="2" stroke-linecap="round" stroke-linejoin="round" stroke-miterlimit="10" d="
		M17.9,44.3c-3.3-4.1-5.1-9.2-5.1-14.6c0-5.9,4.8-10.6,10.7-10.6c1.8,0,3.4,0.4,4.9,1.2"/>
	<path fill="none" stroke="#000000" stroke-width="2" stroke-linecap="round" stroke-linejoin="round" stroke-miterlimit="10" d="
		M42.6,52"/>
	<path fill="none" stroke="#000000" stroke-width="2" stroke-linecap="round" stroke-linejoin="round" stroke-miterlimit="10" d="
		M37.8,52.9c-0.6,0.1-1.2,0.1-1.8,0.1s-1.2,0-1.8-0.1"/>
	<path fill="none" stroke="#000000" stroke-width="2" stroke-linecap="round" stroke-linejoin="round" stroke-miterlimit="10" d="
		M47.6,58.4c-0.5,0.2-1.1,0.4-1.6,0.6c-3.2,1.1-6.6,1.6-10,1.6s-6.8-0.6-10-1.6c-0.6-0.2-1.1-0.4-1.6-0.6"/>
	<path fill="none" stroke="#000000" stroke-width="2" stroke-linecap="round" stroke-linejoin="round" stroke-miterlimit="10" d="
		M54.1,44.3c3.3-4.1,5.1-9.2,5.1-14.6c0-5.9-4.8-10.6-10.7-10.6c-5.9,0-10.7,4.8-10.7,10.7c0,10.1,8.3,18.4,18.4,18.4
		c2.1,0,3.9,1.7,3.9,3.9c0,2.1-1.7,3.9-3.9,3.9c-14.4,0-26.2-11.7-26.2-26.2c0-10.1,8.3-18.4,18.4-18.4c10.1,0,18.4,8.2,18.4,18.4
		c0,0,0,0,0,0c0,0,0,0,0,0c0,0,0,0,0,0c0,0,0,0,0,0c0,6-1.7,11.7-4.9,16.6"/>
</g>
</svg>
