<svg id="emoji" viewBox="0 0 72 72" xmlns="http://www.w3.org/2000/svg">
  <g id="line">
    <path fill="none" stroke="#000000" stroke-linecap="round" stroke-linejoin="round" stroke-miterlimit="10" stroke-width="2" d="M29.29,51.9668"/>
    <path fill="none" stroke="#000000" stroke-linecap="round" stroke-linejoin="round" stroke-miterlimit="10" stroke-width="2" d="M32.0957,13.5435c-2.6123-1.4239-5.6045-2.2344-8.7832-2.2344c-10.1445,0-18.3965,8.249-18.4053,18.3901 c0-0.0039-0.0009-0.0058-0.0009-0.0078c0,0.0039,0,0.0098,0,0.0137c0,0.0039,0,0.0058,0,0.0097 c0,0.0059,0.0019,0.0098,0.0019,0.0137c0.0068,5.9746,1.7031,11.7031,4.8574,16.6289"/>
    <path fill="none" stroke="#000000" stroke-linecap="round" stroke-linejoin="round" stroke-miterlimit="10" stroke-width="2" d="M41.6484,31.6309c0.0469-0.6309,0.0704-1.2715,0.0704-1.9161c0-0.6347-0.0323-1.2592-0.0958-1.8774"/>
    <path fill="none" stroke="#000000" stroke-linecap="round" stroke-linejoin="round" stroke-miterlimit="10" stroke-width="2" d="M29.168,42.0996c-3.3682,3.6973-8.2207,6.0215-13.6055,6.0215c-2.1396,0-3.875,1.7344-3.875,3.875 c0,2.1406,1.7354,3.875,3.875,3.875c6.6924,0,12.8066-2.5254,17.4375-6.6777"/>
    <path fill="none" stroke="#000000" stroke-linecap="round" stroke-linejoin="round" stroke-miterlimit="10" stroke-width="2" d="M17.7998,44.2793c-3.3291-4.1172-5.1396-9.2148-5.1435-14.5742c0.0068-5.8716,4.7841-10.646,10.6562-10.646 c1.7676,0,3.4355,0.4326,4.9043,1.1972"/>
    <path fill="none" stroke="#000000" stroke-linecap="round" stroke-linejoin="round" stroke-miterlimit="10" stroke-width="2" d="M42.5225,51.9668"/>
    <path fill="none" stroke="#000000" stroke-linecap="round" stroke-linejoin="round" stroke-miterlimit="10" stroke-width="2" d="M37.7422,52.8672c-0.6084,0.0508-1.2207,0.0742-1.8359,0.0742c-0.6153,0-1.2276-0.0234-1.836-0.0742"/>
    <path fill="none" stroke="#000000" stroke-linecap="round" stroke-linejoin="round" stroke-miterlimit="10" stroke-width="2" d="M47.5547,58.4258c-0.543,0.2187-1.0938,0.4258-1.6484,0.6172c-3.2149,1.0937-6.5801,1.6484-10,1.6484 c-3.42,0-6.7852-0.5547-10-1.6484c-0.5547-0.1914-1.1055-0.3985-1.6485-0.6172"/>
    <path fill="none" stroke="#000000" stroke-linecap="round" stroke-linejoin="round" stroke-miterlimit="10" stroke-width="2" d="M54.0127,44.2793c3.3291-4.1172,5.1396-9.2148,5.1436-14.5742c-0.0069-5.8716-4.7842-10.646-10.6563-10.646 c-5.876,0-10.6562,4.7803-10.6562,10.6557c0,10.1485,8.2568,18.4063,18.4062,18.4063c2.1396,0,3.875,1.7344,3.875,3.875 c0,2.1406-1.7354,3.875-3.875,3.875c-14.4229,0-26.1562-11.7324-26.1562-26.1563c0-10.1479,8.2568-18.4057,18.4062-18.4057 c10.1445,0,18.3965,8.249,18.4053,18.3901c0-0.0039,0.001-0.0058,0.001-0.0078c0,0.0039,0,0.0098,0,0.0137 c0,0.0039,0,0.0058,0,0.0097c0,0.0059-0.002,0.0098-0.002,0.0137c-0.0068,5.9746-1.7031,11.7031-4.8574,16.6289"/>
  </g>
</svg>
