<svg id="emoji" viewBox="0 0 72 72" xmlns="http://www.w3.org/2000/svg">
  <g id="line-supplement">
    <path d="M39.664,37.59a14.4676,14.4676,0,0,1,1.797.554l.043.0166a6,6,0,1,0-.2266-8.2832c-4.4892,2.0332-9.6.3379-10.5742-.0215a6,6,0,1,0-.208,8.3047.8521.8521,0,0,0,.0879-.0361,10.28,10.28,0,0,1,1.4286-.5464s.4265-5.741,3.9163-5.741S39.664,37.59,39.664,37.59Zm-13.3621.31a4,4,0,1,1,4-4A4,4,0,0,1,26.3019,37.9Zm19.3964,0a4,4,0,1,1,4-4A4,4,0,0,1,45.6983,37.9Z"/>
  </g>
  <g id="line">
    <circle cx="36" cy="36" r="23" fill="none" stroke="#000" stroke-linecap="round" stroke-linejoin="round" stroke-width="2"/>
    <path fill="none" stroke="#000" stroke-linecap="round" stroke-linejoin="round" stroke-width="2" d="M31.874,31.1923s0-7.4294-8.1916-7.4294a2.9223,2.9223,0,0,0,.4909,1.0227s-4.3364-.4909-5.1137,1.3091l.7773,1.0228a2.1161,2.1161,0,0,0-1.5546,2.2909A1.7819,1.7819,0,0,0,20.0005,31.29h2.0749"/>
    <path fill="none" stroke="#000" stroke-linecap="round" stroke-linejoin="round" stroke-width="2" d="M40.7341,31.1923s0-7.4294,8.1917-7.4294a2.9223,2.9223,0,0,1-.4909,1.0227s4.3363-.4909,5.1136,1.3091l-.7773,1.0228a2.1161,2.1161,0,0,1,1.5546,2.2909A1.7819,1.7819,0,0,1,52.6076,31.29H50.5327"/>
    <path fill="none" stroke="#000" stroke-linecap="round" stroke-linejoin="round" stroke-width="2" d="M31.9209,45.6612a2.5633,2.5633,0,0,0-1.8361-.8893,1.5136,1.5136,0,0,1-1.5491-1.7212,3.6531,3.6531,0,0,1,1.7786-2.9262,6.2855,6.2855,0,0,0,2.21-3.89c.4166-4.4579,3.14-4.6992,3.3858-4.7119l.0391,0c.2678.0149,2.9675.2752,3.3821,4.7117a6.2855,6.2855,0,0,0,2.21,3.89A3.6531,3.6531,0,0,1,43.32,43.0507a1.5136,1.5136,0,0,1-1.5491,1.7212,2.5633,2.5633,0,0,0-1.8361.8893"/>
    <path fill="none" stroke="#000" stroke-linecap="round" stroke-linejoin="round" stroke-width="2" d="M31.6627,43.3662s-.7642,4.7622,4.2653,4.7622,4.2263-4.7622,4.2263-4.7622"/>
    <path fill="none" stroke="#000" stroke-linecap="round" stroke-linejoin="round" stroke-width="2" d="M42.817,44.4015s5.0827.07,2.5335,4.3472a4.4929,4.4929,0,0,0-1.8128-.8214s.2266,2.9174-3.5122,3.229V49.74s-.6041,2.096-4.0975,2.096h-.0168c-3.4933,0-4.0975-2.096-4.0975-2.096v1.4162c-3.7388-.3116-3.5122-3.229-3.5122-3.229a4.493,4.493,0,0,0-1.8127.8214c-2.5492-4.2769,2.5335-4.3472,2.5335-4.3472"/>
  </g>
</svg>
