<svg id="emoji" viewBox="0 0 72 72" xmlns="http://www.w3.org/2000/svg">
  <g id="line">
    <path id="Hiking_Boot_Line_1" fill="none" stroke="#000" stroke-linecap="round" stroke-linejoin="round" stroke-width="2" d="M11.8858,52.2778c-.3688-6.2626,1.5818-16.9916,2.1224-18.043l.0374-13.5109s10.6921-.1226,13.854-1.591c1.3724-.6373,3.6348-1.9031,5.1773-2.7855a1.0709,1.0709,0,0,1,1.6044.95c-.0684,3.6668-.0626,11.5241,1.1608,13.682,1.1185,1.9729,4.3469,4.1119,6.3355,5.6121,5.3352,4.0248,13.0351,4.5045,16.4858,5.0048,7.7281,1.12,6.928,9.9315,4.5453,11.5757-3.7407,2.5814-16.5893,1.15-16.5893,1.15-3.1247-.1707-9.9086-1.571-13.39-1.7611"/>
    <rect id="Hiking_Boot_Line_2" x="11.8397" y="52.2778" width="17.2206" height="3.4353" fill="none" stroke="#000" stroke-linecap="round" stroke-linejoin="round" stroke-width="2"/>
    <line id="Hiking_Boot_Line_3" x1="32.2176" x2="29.3806" y1="25.885" y2="25.8709" fill="none" stroke="#000" stroke-linecap="round" stroke-linejoin="round" stroke-width="2"/>
    <line id="Hiking_Boot_Line_4" x1="32.7405" x2="29.9818" y1="30.9936" y2="31.6556" fill="none" stroke="#000" stroke-linecap="round" stroke-linejoin="round" stroke-width="2"/>
    <line id="Hiking_Boot_Line_5" x1="35.09" x2="32.7405" y1="34.7536" y2="36.3438" fill="none" stroke="#000" stroke-linecap="round" stroke-linejoin="round" stroke-width="2"/>
    <path id="Hiking_Boot_Line_6" fill="none" stroke="#000" stroke-linecap="round" stroke-linejoin="round" stroke-width="2" d="M16.5226,48.3745s30.323,2.903,34.496,2.0077"/>
  </g>
</svg>
