<svg id="emoji" viewBox="0 0 72 72" xmlns="http://www.w3.org/2000/svg">
  <g id="line">
    <path fill="none" stroke="#000000" stroke-linecap="round" stroke-linejoin="round" stroke-width="2" d="M45.815,44.8043 c-5.6998,4.6988-13.9302,4.6988-19.63,0"/>
    <path fill="none" stroke="#000000" stroke-linecap="round" stroke-linejoin="round" stroke-width="2" d="M52.04,50.3656 c-2.2368,0.0001-4.0499,1.8135-4.0498,4.0502c0,0.7409,0.2033,1.4677,0.5878,2.1011l0.232,0.3422l7.1911,9.218l7.2333-9.2748 c1.3204-1.8042,0.9281-4.3372-0.8761-5.6576c-1.8042-1.3204-4.3372-0.9281-5.6576,0.8761 c-0.147,0.2008-0.2751,0.4148-0.3828,0.6392c-0.0843,0.1747-0.2943,0.2481-0.4691,0.1637 c-0.0715-0.0345-0.1292-0.0922-0.1637-0.1637C55.0167,51.2541,53.5967,50.3603,52.04,50.3656z"/>
    <path fill="none" stroke="#000000" stroke-linecap="round" stroke-linejoin="round" stroke-width="2" d="M7.04,32.3656 c-2.2368,0.0001-4.0499,1.8135-4.0498,4.0502c0,0.7409,0.2033,1.4677,0.5878,2.1011l0.232,0.3422l7.1911,9.218l7.2333-9.2748 c1.3204-1.8042,0.9281-4.3372-0.8761-5.6576s-4.3372-0.9281-5.6576,0.8761c-0.147,0.2008-0.2751,0.4148-0.3828,0.6391 c-0.0843,0.1747-0.2943,0.2481-0.4691,0.1637c-0.0715-0.0345-0.1292-0.0922-0.1637-0.1637 C10.0167,33.2541,8.5967,32.3603,7.04,32.3656z"/>
    <path fill="none" stroke="#000000" stroke-linecap="round" stroke-linejoin="round" stroke-width="2" d="M44.04,5.3656 c-2.2368,0.0001-4.0499,1.8135-4.0498,4.0502c0,0.7409,0.2033,1.4677,0.5878,2.1011l0.232,0.3422l7.1911,9.218l7.2333-9.2748 c1.3204-1.8042,0.9281-4.3372-0.8761-5.6576c-1.8042-1.3204-4.3372-0.9281-5.6576,0.8761 c-0.147,0.2008-0.2751,0.4148-0.3828,0.6392c-0.0843,0.1747-0.2943,0.2481-0.4691,0.1637 c-0.0715-0.0345-0.1292-0.0922-0.1637-0.1637C47.0167,6.2541,45.5967,5.3603,44.04,5.3656z"/>
    <path fill="none" stroke="#000000" stroke-linecap="round" stroke-linejoin="round" stroke-width="2" d="M42.8076,57.9758 C40.6563,58.6415,38.37,59,36,59c-7.9391,0-14.9387-4.0224-19.072-10.1405"/>
    <path fill="none" stroke="#000000" stroke-linecap="round" stroke-linejoin="round" stroke-width="2" d="M53.7479,21.3699 C57.029,25.3456,59,30.4426,59,36c0,3.6035-0.8287,7.0135-2.3059,10.0497"/>
    <path fill="none" stroke="#000000" stroke-linecap="round" stroke-linejoin="round" stroke-width="2" d="M14.7323,27.2273 C18.1806,18.8766,26.404,13,36,13"/>
    <path fill="none" stroke="#000000" stroke-linecap="round" stroke-miterlimit="10" stroke-width="2" d="M31.6941,32.4036 c-1.0598-2.3854-3.8527-3.46-6.238-2.4002c-1.0697,0.4752-1.9249,1.3305-2.4002,2.4002"/>
    <path fill="none" stroke="#000000" stroke-linecap="round" stroke-miterlimit="10" stroke-width="2" d="M48.9441,32.4036 c-1.0598-2.3854-3.8527-3.46-6.238-2.4002c-1.0697,0.4752-1.9249,1.3305-2.4002,2.4002"/>
  </g>
</svg>
