<?xml version="1.0" encoding="utf-8"?>
<!-- Generator: Adobe Illustrator 21.1.0, SVG Export Plug-In . SVG Version: 6.00 Build 0)  -->
<svg version="1.1" id="emoji" xmlns="http://www.w3.org/2000/svg" xmlns:xlink="http://www.w3.org/1999/xlink" x="0px" y="0px"
	 viewBox="0 0 72 72" enable-background="new 0 0 72 72" xml:space="preserve">
<g id="_xD83E__xDD86__1_">
	<path fill="none" stroke="#000000" stroke-width="2" stroke-linecap="round" stroke-linejoin="round" stroke-miterlimit="10" d="
		M33.8,54c9.4,4.7,29.5,3.8,25.6-0.1c-4.4-4.4-5.1-6.3-5.7-10.1s-5.7-11.4-14.6-13.3c-8.9-1.9,0-14-6.3-19.7s-14-0.6-14,2.5
		s-3.2,5.1-3.2,5.1c-1.3,0.6-9.5,3.8,1.3,3.8s10.1,2.5,7,4.4c0,0-10.8,4.6-7.8,14.4c3,10,18,13.5,18,13.5s-0.6,1.3,0,2.5
		s-0.4,1.6-1.6,3.5c-1.3,1.9-4.1,0.3-6.6,0.9c-1.9,0.5-3.2,2.5,0.6,2.5s10.8,0,10.8,0s3.8,0.6-0.6-3.8c0,0,0.6-1.3,0.6-1.9
		s1.4-1.3,1-2.5"/>
	<path fill="none" stroke="#000000" stroke-width="2" stroke-linecap="round" stroke-linejoin="round" stroke-miterlimit="10" d="
		M47.9,46.2c7,5.7,0,6.3,0,6.3c-17.1,1.9-21.6-16.5-21.6-16.5"/>
	<path fill="none" stroke="#000000" stroke-width="2" stroke-linecap="round" stroke-linejoin="round" stroke-miterlimit="10" d="
		M34.6,63.9c1.2,0,2.7,0,4.1,0c2.3,0,4.4,0,4.4,0s3,0.5-0.5-3c0,0,0.5-1,0.5-1.5s1.1-1,0.8-2"/>
	<path fill="none" stroke="#000000" stroke-width="2" stroke-linecap="round" stroke-linejoin="round" stroke-miterlimit="10" d="
		M40.7,56.4c0,0-0.5,1,0,2c0.5,1,0.5,0.5-0.5,2c-0.4,0.6-1.2,0.9-2.4,1"/>
</g>
</svg>
