<svg id="emoji" viewBox="0 0 72 72" xmlns="http://www.w3.org/2000/svg">
  <g id="line">
    <path fill="#000000" stroke="none" d="M29.0454,41.681c0,0-3.0393,1.5997-4.5092,1.0171c-1.4698-0.5826-2.2313-2.14-1.7007-3.4785 c0.5306-1.3386,2.1522-1.9514,3.622-1.3688C27.9274,38.4334,29.0454,41.681,29.0454,41.681z"/>
    <path fill="none" stroke="#000000" stroke-linecap="round" stroke-linejoin="round" stroke-miterlimit="10" stroke-width="2" d="M35.9943,56.9292c-1.513-0.2346-2.7355-0.9125-3.641-2.075v-0.698"/>
    <path fill="none" stroke="#000000" stroke-linecap="round" stroke-linejoin="round" stroke-miterlimit="10" stroke-width="2" d="M16.9156,10.2884c0,0,7.7517,5.915,5.3244,13.6668"/>
    <path fill="none" stroke="#000000" stroke-linecap="round" stroke-linejoin="round" stroke-miterlimit="10" stroke-width="2" d="M23.6069,58.0941c-1.4877-3.2886-4.481-4.3848-5.1857-4.2282l-3.5235,0.5481c-2.6622-2.6622-3.132-10.1791-3.132-10.1791 c-0.4337-4.7705,1.0302-8.0757,2.4227-10.0754l-0.3869-0.7301c-2.5056-6.1857-1.0179-15.6601-0.4698-21.6892 c0.3975-4.3723,2.6068-5.9162,3.7911-6.4345c0.4153-0.1818,0.8959-0.0599,1.1789,0.2943 c1.2956,1.6213,5.3162,6.5744,9.1241,10.4468c1.6822,1.7107,2.4508,3.2218,2.748,4.4518"/>
    <path fill="#000000" stroke="none" d="M42.9546,41.681c0,0,3.0393,1.5997,4.5092,1.0171c1.4698-0.5826,2.2313-2.14,1.7007-3.4785s-2.1522-1.9514-3.622-1.3688 C44.0726,38.4334,42.9546,41.681,42.9546,41.681z"/>
    <path fill="none" stroke="#000000" stroke-linecap="round" stroke-linejoin="round" stroke-miterlimit="10" stroke-width="2" d="M36.0733,61.7083v-4.7791c1.513-0.2346,2.7355-0.9125,3.641-2.075v-0.698"/>
    <path fill="none" stroke="#000000" stroke-linecap="round" stroke-linejoin="round" stroke-miterlimit="10" stroke-width="2" d="M43.7468,50.1562l1.1745,5.8367c0,0,0,6.6555-7.4385,6.1074h-2.8978c-7.4385,0.5481-7.4385-6.1074-7.4385-6.1074l1.1745-5.8367"/>
    <path fill="none" stroke="#000000" stroke-linecap="round" stroke-linejoin="round" stroke-miterlimit="10" stroke-width="2" d="M55.0844,10.2884c0,0-7.7517,5.915-5.3244,13.6668"/>
    <path fill="none" stroke="#000000" stroke-linecap="round" stroke-linejoin="round" stroke-miterlimit="10" stroke-width="2" d="M48.3931,58.0941c1.4877-3.2886,4.481-4.3848,5.1857-4.2282l3.5235,0.5481c2.6622-2.6622,3.132-10.1791,3.132-10.1791 c0.4336-4.7691-1.0294-8.0739-2.4216-10.0737l0.3858-0.7317c2.5056-6.1857,1.0179-15.6601,0.4698-21.6892 c-0.3975-4.3723-2.6068-5.9162-3.7911-6.4345C54.4619,5.1239,53.9814,5.2458,53.6983,5.6 c-1.2956,1.6213-5.3162,6.5744-9.1241,10.4468c-1.7324,1.7618-2.4958,3.3118-2.7734,4.5611"/>
    <path fill="none" stroke="#000000" stroke-linecap="round" stroke-linejoin="round" stroke-miterlimit="10" stroke-width="2" d="M41.6672,65.4494c-3.804,2.0509-7.418,2.0886-10.8055,0"/>
    <path fill="none" stroke="#000000" stroke-linecap="round" stroke-linejoin="round" stroke-miterlimit="10" stroke-width="2" d="M29.0178,17.9521c0,0,6.0552-3.1842,13.7809-0.1044"/>
  </g>
</svg>
