<svg id="emoji" viewBox="0 0 72 72" xmlns="http://www.w3.org/2000/svg">
  <g id="line">
    <path fill="none" stroke="#000000" stroke-linecap="round" stroke-linejoin="round" stroke-miterlimit="10" stroke-width="2" d="M31.1681,30.7313c-0.6667,6.9167-6.75,12.6667-6.75,12.6667c2.209,4.8259-1.5972,14.1425-3.0756,17.4135 c-0.3234,0.7155-1.0347,1.1698-1.8199,1.1698l-3.3263,0c-0.8043,0-1.5271-0.4876-1.8479-1.2252 c-4.9797-11.4476,1.903-17.9415,1.903-17.9415c-2.4167-8.8333,2.4375-11.875,2.4375-11.875l2.8958-6.3333 c2.25-7.1667,10.0417-2.75,10.0417-2.75s2.625,0.8333,5.1875,3.7708c0,0,3.4361,4.2083,13.4972-0.6286 c1.4052-0.6755,3.1173,0.0775,4.4333,0.9135l1.6141,1.0253c3.0781,1.9552,5.2543,5.1534,5.6318,8.7804 c0.2435,2.3401-0.1842,5.0032-2.1764,7.5344l-0.4375,5c0,0,1.6601,6.8547-0.522,11.9388 c-0.3128,0.7288-1.0548,1.1812-1.8479,1.1724l-2.8239-0.0314c-0.9253-0.0103-1.7248-0.6509-1.9276-1.5538 c-0.7834-3.4892-2.3444-11.9995,0.0588-15.776l-2.5-1c0,0-4.125,6.875-13.125,5.375c0,0-6.2708-0.9375-7.2292-5.0625"/>
    <path fill="none" stroke="#000000" stroke-linecap="round" stroke-linejoin="round" stroke-miterlimit="10" stroke-width="2" d="M28.7351,17.6895l-1.5253-1.6666c-6.9167-7.5417-11.2917-0.7083-11.2917-0.7083l-0.5,2.3333c-3.2083,3-0.8333,5.75-0.8333,5.75 s-4.4167,4.1667,0.8333,8.1667h2.0833"/>
    <path fill="none" stroke="#000000" stroke-linecap="round" stroke-linejoin="round" stroke-miterlimit="10" stroke-width="2" d="M27.8139,48.5435c0,0,2.25,3.375,0,7.375l1.5088,3.0176c0.5453,1.0906,0.0936,2.4164-1.0041,2.9472l-3.3276,0.5397"/>
  </g>
</svg>
