<svg id="emoji" viewBox="0 0 72 72" xmlns="http://www.w3.org/2000/svg">
  <g id="line">
    <ellipse cx="28.7782" cy="31.5656" rx="2" ry="2" transform="matrix(0.5156 -0.8568 0.8568 0.5156 -13.1061 39.9485)" fill="#000000" stroke="none"/>
    <ellipse cx="43.4629" cy="31.5656" rx="2" ry="2" transform="matrix(0.8568 -0.5156 0.5156 0.8568 -10.0526 26.9285)" fill="#000000" stroke="none"/>
    <path fill="none" stroke="#000000" stroke-linecap="round" stroke-linejoin="round" stroke-miterlimit="10" stroke-width="2" d="M40.3928,43.0656c0,0-1.8705-1.3333-2.9394,2.0833l-1.4252,1.0833l-1.4252-1.0833c-1.0689-3.4167-2.9394-2.0833-2.9394-2.0833"/>
    <path fill="none" stroke="#000000" stroke-linecap="round" stroke-linejoin="round" stroke-miterlimit="10" stroke-width="2" d="M42.9467,39.9822l2.1482,3.519c0.1941,0.3179,0.3227,0.6662,0.3793,1.0272l0.326,2.0779c0.0856,0.5453,0.0042,1.1018-0.235,1.6067 l-1.1399,2.407c-0.4169,0.8804-1.2717,1.5195-2.2925,1.7141l0,0c-0.6475,0.1234-1.3206,0.0597-1.9273-0.1826l-1.3016-0.5197 c-0.3174-0.1267-0.6105-0.2999-0.868-0.5128l-1.3748-1.1369h-1.2661l-1.3748,1.1369c-0.2575,0.2129-0.5505,0.3861-0.868,0.5128 l-1.3016,0.5197c-0.6067,0.2423-1.2798,0.306-1.9273,0.1826h0c-1.0208-0.1946-1.8756-0.8337-2.2925-1.7141l-1.1399-2.407 c-0.2391-0.505-0.3205-1.0614-0.235-1.6067l0.326-2.0779c0.0566-0.361,0.1853-0.7093,0.3793-1.0272l2.1482-3.519"/>
    <line x1="36.0282" x2="36.0282" y1="46.2322" y2="48.9822" fill="none" stroke="#000000" stroke-linecap="round" stroke-linejoin="round" stroke-miterlimit="10" stroke-width="2"/>
    <path fill="none" stroke="#000000" stroke-linecap="round" stroke-linejoin="round" stroke-miterlimit="10" stroke-width="2" d="M30.5366,55.5239l0.7708,0.7941c0.8297,0.8549,1.9545,1.3607,3.1446,1.4142l3.0167,0.1356 c1.1576,0.052,2.2933-0.3278,3.1868-1.0657l0.8644-0.714"/>
    <path fill="none" stroke="#000000" stroke-linecap="round" stroke-linejoin="round" stroke-miterlimit="10" stroke-width="2" d="M17.7391,26.8288c-9.9983-4.0396-4.7942-14.1799-4.7942-14.1799c7.5833-4.5833,13.833,4.75,13.833,4.75 s4.8857-4.6468,12.3055-1.3781"/>
    <path fill="none" stroke="#000000" stroke-linecap="round" stroke-linejoin="round" stroke-miterlimit="10" stroke-width="2" d="M24.0282,23.1489c0,0-17.3333,6.0833-13.75,25"/>
    <path fill="none" stroke="#000000" stroke-linecap="round" stroke-linejoin="round" stroke-miterlimit="10" stroke-width="2" d="M19.456,45.1873c-2.6014,3.7405-3.5847,9.9899,4.4889,19.4616"/>
    <path fill="none" stroke="#000000" stroke-linecap="round" stroke-linejoin="round" stroke-miterlimit="10" stroke-width="2" d="M24.0282,27.7322c0,0-5.6115,8.4105,2.1526,17.7886"/>
    <path fill="none" stroke="#000000" stroke-linecap="round" stroke-linejoin="round" stroke-miterlimit="10" stroke-width="2" d="M25.3605,10.9187c0,0,12.7053-9.5,19.8616,5.3333"/>
    <path fill="none" stroke="#000000" stroke-linecap="round" stroke-linejoin="round" stroke-miterlimit="10" stroke-width="2" d="M45.2221,16.4903c0,0,6.2497-9.3333,13.833-4.75c0,0,5.2041,10.1403-4.7942,14.1799"/>
    <path fill="none" stroke="#000000" stroke-linecap="round" stroke-linejoin="round" stroke-miterlimit="10" stroke-width="2" d="M47.9718,22.2403c0,0,17.3333,6.0833,13.75,25"/>
    <path fill="none" stroke="#000000" stroke-linecap="round" stroke-linejoin="round" stroke-miterlimit="10" stroke-width="2" d="M53.6231,46.2342c1.6075,3.8321,1.2349,9.5252-5.5679,17.5062"/>
    <path fill="none" stroke="#000000" stroke-linecap="round" stroke-linejoin="round" stroke-miterlimit="10" stroke-width="2" d="M47.9718,26.8237c0,0,5.6115,8.4105-2.1526,17.7886"/>
  </g>
</svg>
