<svg id="emoji" xmlns="http://www.w3.org/2000/svg" viewBox="0 0 72 72">
  <g id="line">
    <polyline fill="none" stroke="#000000" stroke-width="2" stroke-linecap="round" stroke-linejoin="round" stroke-miterlimit="10" points="28,53.875 28,59 25,60"/>
    <line fill="none" stroke="#000000" stroke-width="2" stroke-linecap="round" stroke-linejoin="round" stroke-miterlimit="10" x1="31" y1="59" x2="28" y2="59"/>
    <polyline fill="none" stroke="#000000" stroke-width="2" stroke-linecap="round" stroke-linejoin="round" stroke-miterlimit="10" points="36,53.875 36,59 33,60"/>
    <line fill="none" stroke="#000000" stroke-width="2" stroke-linecap="round" stroke-linejoin="round" stroke-miterlimit="10" x1="39" y1="59" x2="36" y2="59"/>
    <path fill="none" stroke="#000000" stroke-width="2" stroke-linecap="round" stroke-linejoin="round" stroke-miterlimit="10" d="M43,49c-2,3-8.9355,5.6585-16.4047,4.6317C22,53,15.125,49,17,42c4.2595-15.902,22-10,22-10s0.5-15.75,9.75-16.375 s-2,10.75-2,10.75S51,21,55,23s-1.75,6-4.875,6.5S57,28,59,30s0.375,3-6,4s7-1,7,2s-7,4-7,4s3.5-0.75,5.25,2.125s-6,2.875-6,2.875 S60,48,58,51s-11-1-11-3"/>
    <path fill="none" stroke="#000000" stroke-width="2" stroke-linecap="round" stroke-linejoin="round" stroke-miterlimit="10" d="M25,17c0,0-5-2-7,2c0,0,5-14,13.75-6c0,0,3.75,2,1,8S29,24.5,29.5,28.25"/>
    <path fill="none" stroke="#000000" stroke-width="2" stroke-linecap="round" stroke-linejoin="round" stroke-miterlimit="10" d="M24,20c0,0,2,2-1.375,4.25C17,28,18.25,32.875,18.25,32.875"/>
  </g>
</svg>
