<?xml version="1.0" encoding="utf-8"?>
<!-- Generator: Adobe Illustrator 19.1.0, SVG Export Plug-In . SVG Version: 6.00 Build 0)  -->
<svg version="1.1" id="emoji" xmlns="http://www.w3.org/2000/svg" xmlns:xlink="http://www.w3.org/1999/xlink" x="0px" y="0px"
	 viewBox="0 0 72 72" enable-background="new 0 0 72 72" xml:space="preserve">
<g id="_xD83E__xDD8F__1_">
	<path fill="none" stroke="#000000" stroke-width="2" stroke-linecap="round" stroke-linejoin="round" stroke-miterlimit="10" d="
		M29.8,43.1l4.2,7.1l1.1,4.6l-0.6,2c-0.3,1,0.4,2,1.4,2h2.9c0.9,0,1.6-0.8,1.5-1.8L39.2,47c0,0,8.4,5.8,15.8-5.2"/>
	<path fill="none" stroke="#000000" stroke-width="2" stroke-linecap="round" stroke-linejoin="round" stroke-miterlimit="10" d="
		M19,31.8c5.1-1.9,1.8-7.7,1.8-7.7c-3.3-0.4-4.8,4.6-4.8,4.6l-3.2,1.9l-0.1,2.8c0,0-0.6,2.6-2.9,1.8"/>
	<path fill="none" stroke="#000000" stroke-width="2" stroke-linecap="round" stroke-linejoin="round" stroke-miterlimit="10" d="
		M20.1,36.1c0,0,1.8,2.7-0.5,6.3c-2.7,4.3-7.8,2.5-7.8,2.5c-2.6,1-6.2-1.3-6.2-1.3c-2-2.4,0.9-5.7,0.9-5.7s-2.2-6.3,2.2-10.1"/>
	<path fill="none" stroke="#000000" stroke-width="2" stroke-linecap="round" stroke-linejoin="round" stroke-miterlimit="10" d="
		M21.6,26.1c0,0,5.6-8.2,13.7-6.2l0,0c0.7,0.5,1.5,0.7,2.3,0.7c2.5,0.1,8.2,0.1,11.4-1.2c1.4-0.6,2.9-1,4.4-1c1.5,0,3.4,0.3,5.3,1.2
		c3.7,1.7,6.4,4.9,7.7,8.8c1.3,3.8,2.2,9.5-1.5,14L63.2,45c0,0-6.5,5-8.3-3.2c0,0-0.7-5.5,1.3-11.6"/>
	<path fill="none" stroke="#000000" stroke-width="2" stroke-linecap="round" stroke-linejoin="round" stroke-miterlimit="10" d="
		M37.9,29.6c2.9,4.7,3,9,0.5,13.5c-2-2.6-5.5-1.3-5.5-1.3l-3.3,1.4c-4.3,0.2-5.3-3.2-5.3-3.2l2.8-12.8l3.9-2.4"/>
	<path fill="none" stroke="#000000" stroke-width="2" stroke-linecap="round" stroke-linejoin="round" stroke-miterlimit="10" d="
		M57.7,49.4l0.2,3L56,55.2c-0.8,1.1,0,2.7,1.3,2.7h3.5c0.7,0,1.3-0.5,1.6-1.2l1.9-6.5L63.2,45"/>
	<path fill="none" stroke="#000000" stroke-width="2" stroke-linecap="round" stroke-linejoin="round" stroke-miterlimit="10" d="
		M27.2,46.9l2.7,4.1l-0.2,3.7l-1,2.7c-0.2,0.6,0.2,1.2,0.8,1.2h1.4"/>
</g>
</svg>
