<?xml version="1.0" encoding="utf-8"?>
<!-- Generator: Adobe Illustrator 21.1.0, SVG Export Plug-In . SVG Version: 6.00 Build 0)  -->
<svg version="1.1" id="emoji" xmlns="http://www.w3.org/2000/svg" xmlns:xlink="http://www.w3.org/1999/xlink" x="0px" y="0px"
	 viewBox="0 0 72 72" enable-background="new 0 0 72 72" xml:space="preserve">
<g id="_xD83E__xDD81__1_">
	<ellipse transform="matrix(0.5156 -0.8568 0.8568 0.5156 -13.1061 39.9485)" cx="28.8" cy="31.6" rx="2" ry="2"/>
	<ellipse transform="matrix(0.8568 -0.5156 0.5156 0.8568 -10.0526 26.9285)" cx="43.5" cy="31.6" rx="2" ry="2"/>
	<path fill="none" stroke="#000000" stroke-width="2" stroke-linecap="round" stroke-linejoin="round" stroke-miterlimit="10" d="
		M40.4,43.1c0,0-1.9-1.3-2.9,2.1L36,46.2l-1.4-1.1c-1.1-3.4-2.9-2.1-2.9-2.1"/>
	<path fill="none" stroke="#000000" stroke-width="2" stroke-linecap="round" stroke-linejoin="round" stroke-miterlimit="10" d="
		M42.9,40l2.1,3.5c0.2,0.3,0.3,0.7,0.4,1l0.3,2.1c0.1,0.5,0,1.1-0.2,1.6l-1.1,2.4c-0.4,0.9-1.3,1.5-2.3,1.7l0,0
		c-0.6,0.1-1.3,0.1-1.9-0.2l-1.3-0.5c-0.3-0.1-0.6-0.3-0.9-0.5L36.7,50h-1.3L34,51.1c-0.3,0.2-0.6,0.4-0.9,0.5l-1.3,0.5
		c-0.6,0.2-1.3,0.3-1.9,0.2h0c-1-0.2-1.9-0.8-2.3-1.7l-1.1-2.4c-0.2-0.5-0.3-1.1-0.2-1.6l0.3-2.1c0.1-0.4,0.2-0.7,0.4-1l2.1-3.5"/>
	
		<line fill="none" stroke="#000000" stroke-width="2" stroke-linecap="round" stroke-linejoin="round" stroke-miterlimit="10" x1="36" y1="46.2" x2="36" y2="49"/>
	<path fill="none" stroke="#000000" stroke-width="2" stroke-linecap="round" stroke-linejoin="round" stroke-miterlimit="10" d="
		M30.5,55.5l0.8,0.8c0.8,0.9,2,1.4,3.1,1.4l3,0.1c1.2,0.1,2.3-0.3,3.2-1.1l0.9-0.7"/>
	<path fill="none" stroke="#000000" stroke-width="2" stroke-linecap="round" stroke-linejoin="round" stroke-miterlimit="10" d="
		M17.7,26.8c-10-4-4.8-14.2-4.8-14.2c7.6-4.6,13.8,4.8,13.8,4.8s4.9-4.6,12.3-1.4"/>
	<path fill="none" stroke="#000000" stroke-width="2" stroke-linecap="round" stroke-linejoin="round" stroke-miterlimit="10" d="
		M24,23.1c0,0-17.3,6.1-13.8,25"/>
	<path fill="none" stroke="#000000" stroke-width="2" stroke-linecap="round" stroke-linejoin="round" stroke-miterlimit="10" d="
		M19.5,45.2c-2.6,3.7-3.6,10,4.5,19.5"/>
	<path fill="none" stroke="#000000" stroke-width="2" stroke-linecap="round" stroke-linejoin="round" stroke-miterlimit="10" d="
		M24,27.7c0,0-5.6,8.4,2.2,17.8"/>
	<path fill="none" stroke="#000000" stroke-width="2" stroke-linecap="round" stroke-linejoin="round" stroke-miterlimit="10" d="
		M25.4,10.9c0,0,12.7-9.5,19.9,5.3"/>
	<path fill="none" stroke="#000000" stroke-width="2" stroke-linecap="round" stroke-linejoin="round" stroke-miterlimit="10" d="
		M45.2,16.5c0,0,6.2-9.3,13.8-4.7c0,0,5.2,10.1-4.8,14.2"/>
	<path fill="none" stroke="#000000" stroke-width="2" stroke-linecap="round" stroke-linejoin="round" stroke-miterlimit="10" d="
		M48,22.2c0,0,17.3,6.1,13.8,25"/>
	<path fill="none" stroke="#000000" stroke-width="2" stroke-linecap="round" stroke-linejoin="round" stroke-miterlimit="10" d="
		M53.6,46.2c1.6,3.8,1.2,9.5-5.6,17.5"/>
	<path fill="none" stroke="#000000" stroke-width="2" stroke-linecap="round" stroke-linejoin="round" stroke-miterlimit="10" d="
		M48,26.8c0,0,5.6,8.4-2.2,17.8"/>
</g>
</svg>
