<?xml version="1.0" encoding="utf-8"?>
<!-- Generator: Adobe Illustrator 19.1.0, SVG Export Plug-In . SVG Version: 6.00 Build 0)  -->
<svg version="1.1" id="emoji" xmlns="http://www.w3.org/2000/svg" xmlns:xlink="http://www.w3.org/1999/xlink" x="0px" y="0px"
	 viewBox="0 0 72 72" enable-background="new 0 0 72 72" xml:space="preserve">
<g id="_xD83E__xDD94_">
	<path fill="none" stroke="#000000" stroke-width="2" stroke-linecap="round" stroke-linejoin="round" stroke-miterlimit="10" d="
		M23.9,26.8c-0.9,2.2-1.8,3.3-2.6,4.1c-0.6,0.6-1.4,0.6-2.1,0.1L18,30.1l-3.4,5.1c-0.5,0.7-1.2,1.1-2,1.1h0c0,0-2.7,3.3-3.6,6.8
		c-0.3,1-0.9,1.8-1.7,2.5l-0.4,0.3c0,0-2.4,2,0.5,2.8c0,0,9.6,3,15-1.2"/>
	<path fill="none" stroke="#000000" stroke-width="2" stroke-linecap="round" stroke-linejoin="round" stroke-miterlimit="10" d="
		M40.8,22.4c0,0-1.8,1.2-3.2,1.5c-0.6,0.1-1.2,0.2-1.7,0.4l-3.2-0.7c-1.6,1.8-3.8,2.6-5.3,3.3"/>
	<path fill="none" stroke="#000000" stroke-width="2" stroke-linecap="round" stroke-linejoin="round" stroke-miterlimit="10" d="
		M59.4,28.9c-2,0-2.5-0.2-3.7-1.1c-0.9-0.7-1.6-1.5-2.2-2.5l-0.4-0.7c-2.6,0-5.5-0.3-8-0.7"/>
	<path fill="none" stroke="#000000" stroke-width="2" stroke-linecap="round" stroke-linejoin="round" stroke-miterlimit="10" d="
		M65.7,38.6c-3.1-1.2-3.5-4.4-4.6-5.7"/>
	<path fill="none" stroke="#000000" stroke-width="2" stroke-linecap="round" stroke-linejoin="round" stroke-miterlimit="10" d="
		M20.3,51.9L20,52.3c-0.6,1.3,0.3,2.9,1.8,2.9h1.6c0.7,0,1.4-0.4,1.8-1l2.8-5.3c0,0,3.5,1.5,4.8,5c0.3,0.8,1,1.3,1.9,1.3l2,0
		c1.2,0,2.1-1,2-2.2c-0.1-0.9-0.3-1.9-0.6-2.3c0,0,15.2,0.4,20-0.6c1-0.2,2,0.4,2.3,1.4c0.1,0.5,0.2,1.1,0.1,1.6
		c-0.1,1.1,0.9,2.1,2,2.1h0.4c1.1,0,2-0.8,2.1-1.8c0.1-1.7,0-4.4-1.5-6.4c0,0,1.1-1,1.1-4.1"/>
	<path fill="none" stroke="#000000" stroke-width="2" stroke-linecap="round" stroke-linejoin="round" stroke-miterlimit="10" d="
		M18.7,37.3c0,0,2.1-3.3,4-0.3c1.3,2-0.3,5-1.5,6.8c-0.6,0.8-1.6,1.2-2.5,0.8l0,0"/>
	
		<line fill="none" stroke="#000000" stroke-width="2" stroke-linecap="round" stroke-linejoin="round" stroke-miterlimit="10" x1="26.9" y1="34.7" x2="31.9" y2="30.6"/>
	
		<line fill="none" stroke="#000000" stroke-width="2" stroke-linecap="round" stroke-linejoin="round" stroke-miterlimit="10" x1="31" y1="40.2" x2="37" y2="38.2"/>
	
		<line fill="none" stroke="#000000" stroke-width="2" stroke-linecap="round" stroke-linejoin="round" stroke-miterlimit="10" x1="36.4" y1="32.9" x2="42.4" y2="30.1"/>
	
		<line fill="none" stroke="#000000" stroke-width="2" stroke-linecap="round" stroke-linejoin="round" stroke-miterlimit="10" x1="39.4" y1="43.6" x2="46.2" y2="42.8"/>
	
		<line fill="none" stroke="#000000" stroke-width="2" stroke-linecap="round" stroke-linejoin="round" stroke-miterlimit="10" x1="48.2" y1="36.7" x2="55.1" y2="38"/>
	
		<line fill="none" stroke="#000000" stroke-width="2" stroke-linecap="round" stroke-linejoin="round" stroke-miterlimit="10" x1="46.4" y1="32.6" x2="51.9" y2="30.1"/>
	
		<line fill="none" stroke="#000000" stroke-width="2" stroke-linecap="round" stroke-linejoin="round" stroke-miterlimit="10" x1="52.5" y1="43.9" x2="58.8" y2="45.6"/>
</g>
</svg>
