<svg id="emoji" viewBox="0 0 72 72" xmlns="http://www.w3.org/2000/svg">
  <g id="line">
    <path fill="none" stroke="#000" stroke-linecap="round" stroke-linejoin="round" stroke-width="2" d="M32.9333,29l-5.62-1.7039a2.3058,2.3058,0,0,1-1.6492-1.8186c-.3233-2.2111,1.3384-4.8413-.6468-6.4775a5.2711,5.2711,0,0,0-2.6387-1"/>
    <path fill="none" stroke="#000" stroke-linecap="round" stroke-linejoin="round" stroke-width="2" d="M47.4332,18a5.2711,5.2711,0,0,0-2.6387,1c-1.9851,1.6362-.3234,4.2664-.6468,6.4775a2.3057,2.3057,0,0,1-1.6491,1.8186L36.8784,29"/>
    <ellipse cx="34.9332" cy="26" rx="4" ry="3" fill="none" stroke="#000" stroke-linecap="round" stroke-linejoin="round" stroke-width="2"/>
    <line x1="34.9332" x2="34.9332" y1="22" y2="16" fill="none" stroke="#000" stroke-linecap="round" stroke-linejoin="round" stroke-width="2"/>
    <path fill="none" stroke="#000" stroke-linecap="round" stroke-linejoin="round" stroke-width="2" d="M31.2938,38.6511,26.098,44.107a3.9354,3.9354,0,0,0-1.0441,1.9566c-.81,4.203,1.0276,9.7935-.6755,13.1061a3.3882,3.3882,0,0,1-2,1.7886"/>
    <path fill="none" stroke="#000" stroke-linecap="round" stroke-linejoin="round" stroke-width="2" d="M47.4332,60.9583a3.3887,3.3887,0,0,1-2-1.7886c-1.703-3.3126.1351-8.9031-.6755-13.1061a3.9346,3.9346,0,0,0-1.0441-1.9566L38.6927,38.95"/>
    <path fill="none" stroke="#000" stroke-linecap="round" stroke-linejoin="round" stroke-width="2" d="M32.9333,32.1866s-20.1915,3.326-18.5939,9.5345c1.0775,4.1874,9.16-1.6108,14.3078-5.83"/>
    <path fill="none" stroke="#000" stroke-linecap="round" stroke-linejoin="round" stroke-width="2" d="M36.768,32.1866s20.1914,3.326,18.5938,9.5345c-1.0775,4.1874-9.16-1.6108-14.3077-5.83"/>
    <path fill="none" stroke="#000" stroke-linecap="round" stroke-linejoin="round" stroke-width="2" d="M38.6927,32.5485A4.2121,4.2121,0,0,0,34.8421,29a4.2131,4.2131,0,0,0-3.8516,3.5526"/>
    <path fill="none" stroke="#000" stroke-linecap="round" stroke-linejoin="round" stroke-width="2" d="M32.464,37.77c-5.1074,2.36-.5168,14.4,1.4882,19.0441a.9024.9024,0,0,0,1.701.031c2.1418-4.6021,7.0783-16.6129,1.5535-19.0616"/>
  </g>
</svg>
