<svg id="emoji" viewBox="0 0 72 72" xmlns="http://www.w3.org/2000/svg">
  <g id="line">
    <path id="Kangaroo_Line_1" fill="none" stroke="#000" stroke-linecap="round" stroke-linejoin="round" stroke-width="2" d="M62.7842,53.1875s-14.51,8.171-18.9734,5.1164c-7.9322-5.4285,1.9295-20.5431-7.7533-27.0981-6.0509-4.0963-8.8343.1392-12.3761-2.845-3.533-2.9768-1.936-8.4556-3.33-13.11-.3675-1.2275-.3969-4.3793-2.6627-4.3793-1.7361,0-.8217,3.1745-1.3314,4.133-1.1857,2.23-8.8036,2.3677-7.9881,6.185.5032,2.3559,3.5513.5146,6.6568.6657,2.7081.1318,3.81,13.2721-.1916,14.1811-.856.1945-3.6121-1.9111-4.4709-.48"/>
    <path id="Kangaroo_Line_2" fill="none" stroke="#000" stroke-linecap="round" stroke-linejoin="round" stroke-width="2" d="M37.8976,46.24s-8.1773-2.9434-8.2363-1.1609c-.0393,1.1864,1.2586,11.7435.1878,15.05h-4.08"/>
    <path id="Kangaroo_Line_3" fill="none" stroke="#000" stroke-linecap="round" stroke-linejoin="round" stroke-width="2" d="M18.98,38.4327a40.9849,40.9849,0,0,0,5.6269,4.917c2.9279,2.2048-2.378,10.9929-4.4695,16.7788H15.765"/>
  </g>
</svg>
