<svg id="emoji" viewBox="0 0 72 72" xmlns="http://www.w3.org/2000/svg">
  <g id="line">
    <path fill="none" stroke="#000" stroke-linecap="round" stroke-linejoin="round" stroke-width="2" d="M47.6314,23.55c-.38-.14-.77-.28-1.16-.4"/>
    <path fill="none" stroke="#000" stroke-linecap="round" stroke-linejoin="round" stroke-width="2" d="M19.4914,41.83a9.9887,9.9887,0,0,0,2.41,6.2h.01c2.55-.11,2.77,1.57,2.75,2.24a1.52,1.52,0,0,1-.02.27"/>
    <path fill="none" stroke="#000" stroke-linecap="round" stroke-linejoin="round" stroke-width="2" d="M46.5014,50.54c-1.93-1.51-3.11-4.2-3.39-8.32a2.08,2.08,0,0,0-.95-1.25,2.4488,2.4488,0,0,0-1.13-.35"/>
    <path fill="none" stroke="#000" stroke-linecap="round" stroke-linejoin="round" stroke-width="2" d="M42.6014,50.54h8.86a.7.7,0,0,0,.32-1.32c-.18-.09-.35-.19-.53-.3-1.44-.84-2.76-2.02-2.86-3.49-.21-3.3.99-4.08.99-4.08l1.39,1.43,1.95,2.01a1.4087,1.4087,0,0,0,.63.38l.92.27a1.376,1.376,0,0,1,.67.41l2.81,3.11a7.1909,7.1909,0,0,0,4.96,2.47,3.9408,3.9408,0,0,0,2.95-.9,3.5629,3.5629,0,0,0,.83-3.9l-2.23-6.04c2.28-1.11,1.44-1.76,1.44-1.76-2.88-2.04-.84-3.74-.84-3.74a4.2989,4.2989,0,0,1-.47.09,2.8423,2.8423,0,0,1-1.92-.45l-2.57-1.67a4.9849,4.9849,0,0,1-1.3-1.25,23.0578,23.0578,0,0,0-7.04-6.33,28.0479,28.0479,0,0,0-3.93-1.93c-.38-.14-.77-.28-1.16-.4a19.4188,19.4188,0,0,0-5.87-1,2.62,2.62,0,0,0-.28-.01c-.22-.01-.43-.01-.65-.01a23.1723,23.1723,0,0,0-2.51.14c-8.64.69-12.81-1.44-17.2-1.73-6.66-.44-12.02,3.74-14.27,10.36a4.0791,4.0791,0,0,0-.43,1.65s.16,1.54,1.61.41a8.25,8.25,0,0,0-.04.86,9.1671,9.1671,0,0,0,2.74,6.54,10.021,10.021,0,0,0-.9,4.14,9.8288,9.8288,0,0,0,2.05,6.04h5.02s0-1.84-1.48-2.1a1.6458,1.6458,0,0,1-1.42-1.57v-.63a4.1077,4.1077,0,0,1,1.2-2.79,5.11,5.11,0,0,1,.62-.61c.01,0,.01-.01.02-.02a5.4359,5.4359,0,0,1,4.81-.99,5.098,5.098,0,0,1,.63.2,22.5034,22.5034,0,0,0,7.72,1.63c.12,0,.24.01.36.01.16.01.31.01.47.01a22.7593,22.7593,0,0,0,7.46-1.24,1.458,1.458,0,0,0,.19-.07,21.9656,21.9656,0,0,0,3.22-1.41,2.7937,2.7937,0,0,1,1.49-.34,2.48,2.48,0,0,1,1.13.35"/>
  </g>
</svg>
