<svg id="emoji" viewBox="0 0 72 72" xmlns="http://www.w3.org/2000/svg">
  <g id="line">
    <path fill="none" stroke="#000000" stroke-linecap="round" stroke-linejoin="round" stroke-miterlimit="10" stroke-width="2" d="M43,41c0,0,2-3.8333,4.5-1.4167C50,42,47,43,46,42s-2,2-2,2"/>
    <path fill="none" stroke="#000000" stroke-linecap="round" stroke-linejoin="round" stroke-miterlimit="10" stroke-width="2" d="M39,48c0,0,6.125-2.6797,6.6514,0.8374c0.1505,1.0055-0.2436,2.0174-0.9153,2.7807L40,57c0,0,6.4305,1.9098,5.1667,3.4167 C43,63,34,61,34,61l1-5c-16,4-20-11-20-11s14.1667,11.6667,20.0833,1.8333s3.0833-29.6667,15.5-29.25 c8.358,0.2805,9.844,4.7143,9.9224,7.583c0.0381,1.393-0.2557,2.417-0.2557,2.417c-0.0778,0.5793-0.1852,1.086-0.3188,1.53 c-1.1539,3.8354-4.2597,2.9991-7.0978,3.97C49.6667,34.1667,50.75,37.5,50.75,37.5C56.5,36,56,43,54,41 s-3.1667,1.3333-3.1667,1.3333S51,49,49,51"/>
    <path fill="none" stroke="#000000" stroke-linecap="round" stroke-linejoin="round" stroke-miterlimit="10" stroke-width="2" d="M54.5,44.8333c3.5,2.8333-3.9167,9.5-3.9167,9.5S62,57,52.6667,57.3333C43.3333,57.6667,46,55,46,55"/>
  </g>
</svg>
