<?xml version="1.0" encoding="utf-8"?>
<!-- Generator: Adobe Illustrator 21.1.0, SVG Export Plug-In . SVG Version: 6.00 Build 0)  -->
<svg version="1.1" id="emoji" xmlns="http://www.w3.org/2000/svg" xmlns:xlink="http://www.w3.org/1999/xlink" x="0px" y="0px"
	 viewBox="0 0 72 72" enable-background="new 0 0 72 72" xml:space="preserve">
<g id="_xD83E__xDD96__1_">
	<path fill="none" stroke="#000000" stroke-width="2" stroke-linecap="round" stroke-linejoin="round" stroke-miterlimit="10" d="
		M39,48c0,0,6.1-2.7,6.7,0.8c0.2,1-0.2,2-0.9,2.8L40,57c0,0,6.4,1.9,5.2,3.4C43,63,34,61,34,61l1-5c-16,4-20-11-20-11
		s14.2,11.7,20.1,1.8s3.1-29.7,15.5-29.2c8.4,0.3,9.8,4.7,9.9,7.6c0,1.4-0.3,2.4-0.3,2.4c-0.1,0.6-0.2,1.1-0.3,1.5
		c-1.2,3.8-4.3,3-7.1,4c-3.2,1.1-2.1,4.4-2.1,4.4C56.5,36,56,43,54,41s-3.2,1.3-3.2,1.3S51,49,49,51"/>
	<path fill="none" stroke="#000000" stroke-width="2" stroke-linecap="round" stroke-linejoin="round" stroke-miterlimit="10" d="
		M46,55c0,0-2.7,2.7,6.7,2.3c9.3-0.3-2.1-3-2.1-3s7.4-6.7,3.9-9.5"/>
	<path fill="none" stroke="#000000" stroke-width="2" stroke-linecap="round" stroke-linejoin="round" stroke-miterlimit="10" d="
		M43,41c0,0,2-3.8,4.5-1.4C50,42,47,43,46,42s-2,2-2,2"/>
</g>
</svg>
