<svg id="emoji" viewBox="0 0 72 72" xmlns="http://www.w3.org/2000/svg">
  <g id="line">
    <g>
      <path fill="none" stroke="#000" stroke-linecap="round" stroke-miterlimit="10" stroke-width="2" d="M40.9145,41.4186c.2106.6232,1.7517,4.7609,1.8826,5.1157a2.291,2.291,0,0,1,.1394.8982c-.2637,5.4982-1.66,6.9861-2.0154,7.2784-.0225.0166.0218-.0175,0,0"/>
      <path fill="none" stroke="#000" stroke-linecap="round" stroke-miterlimit="10" stroke-width="2" d="M43.1465,57.53C47.02,54.076,46.69,44.3538,46.69,44.3538"/>
      <path fill="none" stroke="#000" stroke-miterlimit="10" stroke-width="2" d="M40.9211,54.7109a2.2219,2.2219,0,0,0-.7423,1.2974,1.875,1.875,0,0,0,1.6811,1.996,1.7151,1.7151,0,0,0,1.4564-.6287l.0022.0022"/>
      <path fill="none" stroke="#000" stroke-miterlimit="10" stroke-width="2" d="M29.1744,46.33l.8961,2.64c1.1916,3.3886.69,4.9746.1641,5.6835l-.6091.529a1.8273,1.8273,0,0,0-.3085,1.8852,1.999,1.999,0,0,0,2.6855.8465,2.22,2.22,0,0,0,1.1966-1.2529h0c.0019-.0089.0079-.0189.01-.028a1.8017,1.8017,0,0,0,.1025-.6732,69.3455,69.3455,0,0,0,.1614-7.3127,10.1111,10.1111,0,0,0-.112-2.3048,9.876,9.876,0,0,0-.96-2.9863"/>
      <g>
        <path fill="none" stroke="#000" stroke-linecap="round" stroke-miterlimit="10" stroke-width="2" d="M18.5614,47.6026a3.5056,3.5056,0,0,0,.204,2.5083,1.8926,1.8926,0,0,0,2.4356,1.0839c.8852-.4055.8639-1.798.56-2.8257"/>
        <path fill="none" stroke="#000" stroke-linecap="round" stroke-miterlimit="10" stroke-width="2" d="M21.7158,48.219a4.5851,4.5851,0,0,1,3.7093-1.6119,1.9942,1.9942,0,0,1,.548.0831,3.0274,3.0274,0,0,0,3.67-1.3744"/>
        <g>
          <path fill="none" stroke="#000" stroke-linecap="round" stroke-miterlimit="10" stroke-width="2" d="M53.5147,32.9083l-.2959,5.6328s-.2094,3.6923.8078,4.5411a7.0926,7.0926,0,0,1,1.2718,4.7533s.5363,5.7575.6973,7.9907"/>
          <path fill="none" stroke="#000" stroke-linecap="round" stroke-miterlimit="10" stroke-width="2" d="M48.5415,23.6767c2.5433-6.4561,5.1809-3.19,5.1809-3.19,3.1773,3.94-.9928,6.3629-2.8305,7.1889a1.7628,1.7628,0,0,1-1.39-.02c-2.5616-1.029-8.8257.179-8.8257.179a16.0761,16.0761,0,0,1-6.3963-.4692q-.1317-.0423-.2566-.0866a7.0346,7.0346,0,0,1-1.7047-.8568,3.5332,3.5332,0,0,1-1.1206-1.1433,48.8236,48.8236,0,0,1-3.0644-7.2278,1.842,1.842,0,0,0-1.0479-1.1626,20.7191,20.7191,0,0,0-5.1529-1.0346c-3.1365-.3594-3.5144,1.6507-3.5144,1.6507-.532,1.369-1.4378,1.3243-1.4378,1.3243l-1.8637.0069c-2.3111.1288-1.3312,2.5027-1.3312,2.5027-.5857,3.0884,3.0884,3.7274,3.0884,3.7274a4.77,4.77,0,0,1,3.195,1.3312,18.1376,18.1376,0,0,1,2.9286,7.8276c.213,3.6741,1.7347,4.9613,1.7347,4.9613,2.8549,2.7709,0,3.8205,0,3.8205-4.2084,1.5247-5.75,3.2313-6.1435,4.606"/>
        </g>
        <path fill="none" stroke="#000" stroke-linecap="round" stroke-miterlimit="10" stroke-width="2" d="M55.9957,55.8263c.1855,1.6659-.9823,2.0907-2.0845,2.0184a1.8927,1.8927,0,0,1-1.88-1.89,9.1145,9.1145,0,0,1,.3382-1.4583"/>
        <path fill="none" stroke="#000" stroke-linecap="round" stroke-miterlimit="10" stroke-width="2" d="M55.9957,55.8263c.0105.1455.02.2771.0266.39"/>
        <path fill="none" stroke="#000" stroke-linecap="round" stroke-miterlimit="10" stroke-width="2" d="M52.22,55.11c.3731-1.2449,1.0885-4.4928-.6281-7.0155a1.7263,1.7263,0,0,0-.481-.4666c-1.13-.7421-5.4176-3.6535-7.3255-6.34a1.5244,1.5244,0,0,0-1.12-.623c-2.4893-.218-10.3347-.4413-13.209,4.9821"/>
      </g>
    </g>
  </g>
</svg>
