<svg id="emoji" viewBox="0 0 72 72" xmlns="http://www.w3.org/2000/svg">
  <g id="line">
    <g>
      <path fill="none" stroke="#000" stroke-linecap="round" stroke-miterlimit="10" stroke-width="2" d="m40.9145,41.4186c.2106.6232,1.7517,4.7609,1.8826,5.1157.106.2871.1534.5925.1394.8982-.2637,5.4982-1.66,6.9861-2.0154,7.2784-.0225.0166.0218-.0175,0,0"/>
      <path fill="none" stroke="#000" stroke-linecap="round" stroke-miterlimit="10" stroke-width="2" d="m43.1465,57.53c3.8735-3.454,3.5435-13.1762,3.5435-13.1762"/>
      <path fill="none" stroke="#000" stroke-miterlimit="10" stroke-width="2" d="m40.9211,54.7109c-.3898.3338-.6521.7922-.7423,1.2974-.0705,1.0101.6737,1.8937,1.6811,1.996.559.041,1.1028-.1937,1.4564-.6287l.0022.0022"/>
      <path fill="none" stroke="#000" stroke-miterlimit="10" stroke-width="2" d="m29.1744,46.33l.8961,2.64c1.1916,3.3886.69,4.9746.1641,5.6835l-.6091.529c-.4493.5203-.5685,1.2488-.3085,1.8852.5109.9717,1.7098,1.3496,2.6855.8465.5521-.2383.9839-.6904,1.1966-1.2529h0c.0019-.0089.0079-.0189.01-.028.0766-.2158.1114-.4443.1025-.6732.1824-2.433.2363-4.874.1614-7.3127.0507-.77.0132-1.5433-.112-2.3048-.1589-1.0402-.4829-2.0484-.96-2.9863"/>
      <g>
        <path fill="none" stroke="#000" stroke-linecap="round" stroke-miterlimit="10" stroke-width="2" d="m18.5614,47.6026c-.2448.8325-.1721,1.7263.204,2.5083.3765.9688,1.4638,1.4527,2.4356,1.0839.8852-.4055.8639-1.798.56-2.8257"/>
        <path fill="none" stroke="#000" stroke-linecap="round" stroke-miterlimit="10" stroke-width="2" d="m21.7158,48.219c.9199-1.083,2.2899-1.6784,3.7093-1.6119.1856.0021.3701.03.548.0831,1.3948.5023,2.9482-.0795,3.67-1.3744"/>
        <g>
          <path fill="none" stroke="#000" stroke-linecap="round" stroke-miterlimit="10" stroke-width="2" d="m53.5147,32.9083l-.2959,5.6328s-.2094,3.6923.8078,4.5411c.9776,1.3819,1.4287,3.0679,1.2718,4.7533,0,0,.5363,5.7575.6973,7.9907"/>
          <path fill="none" stroke="#000" stroke-linecap="round" stroke-miterlimit="10" stroke-width="2" d="m48.5415,23.6767c2.5433-6.4561,5.1809-3.19,5.1809-3.19,3.1773,3.94-.9928,6.3629-2.8305,7.1889-.4465.184-.949.1768-1.39-.02-2.5616-1.029-8.8257.179-8.8257.179-2.142.2748-4.3174.1152-6.3963-.4692-.0878-.0282-.1733-.0571-.2566-.0866-.6045-.2069-1.178-.4951-1.7047-.8568-.4561-.2903-.8395-.6815-1.1206-1.1433-1.2138-2.3231-2.2386-4.7402-3.0644-7.2278-.1591-.524-.5431-.9501-1.0479-1.1626-1.6668-.5622-3.3983-.9099-5.1529-1.0346-3.1365-.3594-3.5144,1.6507-3.5144,1.6507-.532,1.369-1.4378,1.3243-1.4378,1.3243l-1.8637.0069c-2.3111.1288-1.3312,2.5027-1.3312,2.5027-.5857,3.0884,3.0884,3.7274,3.0884,3.7274,1.1941.0281,2.3342.5031,3.195,1.3312,1.5722,2.3456,2.575,5.026,2.9286,7.8276.213,3.6741,1.7347,4.9613,1.7347,4.9613,2.8549,2.7709,0,3.8205,0,3.8205-4.2084,1.5247-5.75,3.2313-6.1435,4.606"/>
        </g>
        <path fill="none" stroke="#000" stroke-linecap="round" stroke-miterlimit="10" stroke-width="2" d="m55.9957,55.8263c.1855,1.6659-.9823,2.0907-2.0845,2.0184-1.0393-.007-1.8785-.8507-1.88-1.89.0726-.4946.1857-.9823.3382-1.4583"/>
        <path fill="none" stroke="#000" stroke-linecap="round" stroke-miterlimit="10" stroke-width="2" d="m55.9957,55.8263c.0105.1455.02.2771.0266.39"/>
        <path fill="none" stroke="#000" stroke-linecap="round" stroke-miterlimit="10" stroke-width="2" d="m52.22,55.11c.3731-1.2449,1.0885-4.4928-.6281-7.0155-.1283-.1855-.2917-.344-.481-.4666-1.13-.7421-5.4176-3.6535-7.3255-6.34-.2637-.3621-.6733-.59-1.12-.623-2.4893-.218-10.3347-.4413-13.209,4.9821"/>
      </g>
    </g>
  </g>
</svg>
