<svg id="emoji" viewBox="0 0 72 72" xmlns="http://www.w3.org/2000/svg">
  <g id="line">
    <path fill="none" stroke="#000" stroke-linecap="round" stroke-linejoin="round" stroke-width="2" d="M12.7288,33.3849a8.5288,8.5288,0,0,0,.634,1.4,8.9671,8.9671,0,0,1,.4782,7.6845,4.5549,4.5549,0,0,0,0,4.485V54.5A1.5005,1.5005,0,0,0,15.3415,56h3.116s.1438-3.7251-2.0851-3.7251V47.3138s5.1768-3.3074,5.1768-7.4057a10.6935,10.6935,0,0,0,6.9744,2.8041A8.92,8.92,0,0,0,32.79,41.4837"/>
    <path fill="none" stroke="#000" stroke-linecap="round" stroke-linejoin="round" stroke-width="2" d="M19.4154,48.73a4.78,4.78,0,0,0,.8825,1.36C21.57,51.3621,22.2166,56,22.2166,56h4.2128s.4348-3.7412-2.3784-3.7412l-1.9585-4.63S25.234,44.88,25.234,42.1253"/>
    <path fill="none" stroke="#000" stroke-linecap="round" stroke-linejoin="round" stroke-width="2" d="M27.5971,22.0525S4.5159,27.1421,8.6193,41.03"/>
    <path fill="none" stroke="#000" stroke-linecap="round" stroke-linejoin="round" stroke-width="2" d="M49.4575,36.1544v9.2331c3.4941-3.4942,6.3579-4.4669,8.2011-4.6467a3.8288,3.8288,0,0,0,3.2526-2.4574L63.57,31.1109a4.8041,4.8041,0,0,0-.6324-4.5133l-2.4844-3.383a3.1777,3.1777,0,0,0-2.5612-1.2967l-5.4661-.0027c-3.436-4.529-11.4876-10.5947-26.7-2.7541"/>
    <path fill="none" stroke="#000" stroke-linecap="round" stroke-linejoin="round" stroke-width="2" d="M38.1329,33.9789a15.277,15.277,0,0,0-.9928,1.9787c-1.02,2.4154-2.1653,6.6.1209,10.0169S39.56,56.0923,39.56,56.0923h5.4665c.0041-3.7518-2.3121-3.8816-2.3121-3.8816l-1.8707-6.8232c0-3.2753,3.3023-6.0344,5.8175-7.6608"/>
    <path fill="none" stroke="#000" stroke-linecap="round" stroke-linejoin="round" stroke-width="2" d="M51.8065,25.5027a4.6449,4.6449,0,0,1-4.3549-2.731s-1.1809,5.5021,2.51,7.2536"/>
    <path fill="none" stroke="#000" stroke-linecap="round" stroke-linejoin="round" stroke-width="2" d="M44.9647,56.0923h3.1778c0-5.6393-3.1159-5.3716-3.1159-5.3716l-1.2792-5.6851"/>
  </g>
</svg>
