<svg id="emoji" xmlns="http://www.w3.org/2000/svg" viewBox="0 0 72 72">
  <g id="line">
    <path fill="none" stroke="#000000" stroke-width="2" stroke-linecap="round" stroke-linejoin="round" stroke-miterlimit="10" d="M42.5,45.7c1.3,3.2,2.6,6.4,3.9,9.5c-0.3,3.2-0.4,4.1-0.8,7.2"/>
    <path fill="none" stroke="#000000" stroke-width="2" stroke-linecap="round" stroke-linejoin="round" stroke-miterlimit="10" d="M42.7,45.7c2.3,2.7,8.8,8,8.8,8s-11.6-0.3-16.4-0.5c-0.7,0.7-1.4,1.4-2.1,2.1"/>
    <path fill="none" stroke="#000000" stroke-width="2" stroke-linecap="round" stroke-linejoin="round" stroke-miterlimit="10" d="M23.5,19.2c0,0-0.6,0.8-1.9,0.7c-1-0.1-1.5-1.4-2.5-1.4c-0.8-0.1-2.2,3.1-2.5,3.1c-0.5,0.1-2.4-2.1-1.7-4.2 c0.5-1.4,1.9-2.5,3.7-2.5c0.3-0.5,1.4-1.9,3.1-2c2.2-0.2,3.7,2,4.7,3.3c0.6,0.8,1.7,2.4,2,4.8c0.3,3.3-1.5,4.1-2,9.2 c-0.3,3,0.3,3.9,0.8,4.2c0.6,0.4,1.3,0.3,1.8,0.1c0.5-1.4,1.4-3.6,3.5-5.2c4.5-3.5,11.7-2.6,16.1,0.3c3.3,2.1,3.2,4.1,7.8,7.2 c2.5,1.7,4.7,2.6,6.3,3.1c-8.3,2.7-12.3,5.5-16.8,5.7c-2.5,0.1-8.1-2.2-9.2-3.4"/>
    <path fill="none" stroke="#000000" stroke-width="2" stroke-linecap="round" stroke-linejoin="round" stroke-miterlimit="10" d="M28,38.5c0.5,0.7,1.5,1.9,3.1,2.7c2.4,1.3,4.6,1.1,5.5,1"/>
    <path fill="none" stroke="#000000" stroke-width="2" stroke-linecap="round" stroke-linejoin="round" stroke-miterlimit="10" d="M24.2,24.6c-0.5,1.2-3,6.5-1.8,9.8c0.3,1,1.4,2.9,5.6,4.1"/>
  </g>
</svg>
