<svg id="emoji" viewBox="0 0 72 72" xmlns="http://www.w3.org/2000/svg">
  <g id="line" fill="none" stroke="#000" stroke-linecap="round" stroke-linejoin="round" stroke-miterlimit="10" stroke-width="2">
    <path d="m36.34 54.67 2.1-2.1 14.41-4.391-10.89-3.743m-2.445 0.1811c1.2 3.2 2.894 10.59 2.894 10.59s-0.4 4.1-0.8 7.2"/>
    <path d="m21.63 24.69c-0.5 1.2-2.366 6.681-1.166 9.981 0.3 1 1.219 4.228 5.419 5.428 2.472 2.046 5.248 2.796 8.65 2.4 1.15 1.2 6.75 2.1 9.25 2 4.5-0.2 7.296-2.768 15.6-2.104-6.324-6.558-8.521-8.792-12.62-11.53-4.4-2.9-11.87-5.068-16.37-1.568-2.1 1.6-1.818 4.41-3.5 5.2-0.5 0.2-1.2 0.3-1.8-0.1-0.5-0.3-1.1-1.2-0.8-4.2 0.5-5.1 2.3-5.9 2-9.2-0.3-2.4-1.4-4-2-4.8-1-1.3-2.5-3.5-4.7-3.3-1.7 0.1-2.8 1.5-3.1 2-1.8 0-3.2 1.1-3.7 2.5-0.7 2.1 1.2 4.3 1.7 4.2 0.3 0 1.7-3.2 2.5-3.1 1 0 1.5 1.3 2.5 1.4 1.3 0.1 1.9-0.7 1.9-0.7"/>
  </g>
</svg>
