<svg id="emoji" viewBox="0 0 72 72" xmlns="http://www.w3.org/2000/svg">
  <g id="line">
    <path fill="none" stroke="#000" stroke-linecap="round" stroke-miterlimit="10" stroke-width="1.64" d="M43.3689,47.0966a4.2988,4.2988,0,0,0-2.3,5.6,5.5091,5.5091,0,0,0,1.7,2l-.1,3s-6.3,4.2,1.1,3.3l4-3.8v-2.7"/>
    <path fill="none" stroke="#000" stroke-linecap="round" stroke-miterlimit="10" stroke-width="1.64" d="M49.7713,39.4992a.5716.5716,0,0,0-.07-.08c-.01-.02-.03-.03-.04-.05-6.3516-6.9244-16.5251-2.5368-17.39-.87a2.62,2.62,0,0,0-.28-.01,1.9269,1.9269,0,0,0-.24.01,4.512,4.512,0,0,0-1.27.22.3536.3536,0,0,0-.06.01c-.15.05-.29.11-.43.17a3.5482,3.5482,0,0,0-.44.21,5.081,5.081,0,0,0-1,.72c-.06.05-.12.11-.18.17,0,0-.04-.04-.12-.11-.08-.06-.19-.14-.33-.25a9.9668,9.9668,0,0,0-1.57-.95c-.28-.13-.58-.26-.9-.38-.17-.06-.33-.11-.51-.17a7.5208,7.5208,0,0,0-2.78-.32,1.8413,1.8413,0,0,0-.33.03,6.7463,6.7463,0,0,0-.86.15l-.9.31-1.8.63-.87.31-.43.15s-2.6,4-5.2,4.9a1.1791,1.1791,0,0,0-.43.24.802.802,0,0,0-.23.86c.23.93,1.63,2.15,3.7,2.87.21.07.42.14.64.19.22.06.45.12.68.16q.33.075.69.12a11.0949,11.0949,0,0,0,3.95-.14s.13.05.37.15a2.7837,2.7837,0,0,1,.26.12c1.62.71,5.9,2.81,7.92,5.9.08.12.16.24.23.36.08.14.16.28.23.43a5.5213,5.5213,0,0,1,.59,3.24s-2.51,1.62-1.52,2.21c.38.23,1.27.31,3.02.09l2-3.9"/>
    <path fill="none" stroke="#000" stroke-linecap="round" stroke-miterlimit="10" stroke-width="1.64" d="M42.7689,27.8966a9.9156,9.9156,0,0,1,13.2-14.8,11.6021,11.6021,0,0,1,2,2.4"/>
    <path fill="none" stroke="#000" stroke-linecap="round" stroke-miterlimit="10" stroke-width="1.64" d="M35.0689,53.3966s3.3-1.3,5.9-.7"/>
    <path fill="none" stroke="#000" stroke-linecap="round" stroke-miterlimit="10" stroke-width="1.64" d="M50.1689,56.0966l.5,2.3s-5.3,2.9,1,2.2l2.6-4.5.7-6.9a9.9631,9.9631,0,0,0,4.5-13.3,10.24,10.24,0,0,0-4.6-4.6"/>
    <path fill="none" stroke="#000" stroke-linecap="round" stroke-miterlimit="10" stroke-width="1.64" d="M24.6689,53.3966v3.6s-5,2.5-3.4,3.7h4l3-3.1"/>
  </g>
</svg>
