<svg id="emoji" viewBox="0 0 72 72" xmlns="http://www.w3.org/2000/svg">
  <g id="line-supplement">
    <g id="_790Luc">
      <path fill="none" stroke="#000" stroke-miterlimit="10" stroke-width="2" d="M48.1275,18.3578a13.2415,13.2415,0,0,1,1.7215.3209c1.5622.4786,2.2719,1.8225,2.6327,3.4557a11.7982,11.7982,0,0,1-.1157,5.1717c-.4984,2.207-1.1045,4.3854-1.7123,6.5593a14.1,14.1,0,0,0-.3114,4.3735,22.593,22.593,0,0,1-.0251,4.5267,3.4324,3.4324,0,0,1-.87,1.7845,11.8577,11.8577,0,0,1-1.006.9937,5.0531,5.0531,0,0,0-1.6331,2.8834,16.5128,16.5128,0,0,1-.57,2.0025,5.6829,5.6829,0,0,1-2.4343,3.0074,2.7874,2.7874,0,0,1-1.9869.2424,1.8119,1.8119,0,0,0-1.7622.5345,10.7525,10.7525,0,0,1-2.7711,2.2015,3.0127,3.0127,0,0,1-2.28.391,2.2219,2.2219,0,0,1-.8038-.4436,3.8683,3.8683,0,0,0-2.9082-.8751c-.93.0511-1.8621.1048-2.7932.1039a5.5664,5.5664,0,0,1-5.235-3.48,25.2946,25.2946,0,0,1-1.3066-3.5511,5.0183,5.0183,0,0,0-1.6912-2.604,8.3293,8.3293,0,0,1-1.126-1.0833,4.9929,4.9929,0,0,1-1.1286-2.9983,6.6485,6.6485,0,0,1,2.44-5.8956,5.0969,5.0969,0,0,1,.4949-.4116A3.3926,3.3926,0,0,0,22.39,33.4269a3.0426,3.0426,0,0,1,1.4754-1.9592c.5545-.33,1.1348-.6111,1.6706-.9744a4.1935,4.1935,0,0,0,1.1892-1.0262,13.3484,13.3484,0,0,1,4.202-3.9194A66.1844,66.1844,0,0,1,41.39,19.9663a23.35,23.35,0,0,1,5.1875-1.4722C47.02,18.43,47.4684,18.4141,48.1275,18.3578Z"/>
    </g>
  </g>
  <g id="line">
    <g id="_790Luc-5">
      <path fill="none" stroke="#000" stroke-miterlimit="10" stroke-width="2" d="M51.9434,13.3926a20.5288,20.5288,0,0,1,2.4178.4036c2.1939.6019,3.1906,2.292,3.6972,4.3461a13.3281,13.3281,0,0,1-.1625,6.5042c-.7,2.7757-1.5511,5.5154-2.4047,8.25a15.9333,15.9333,0,0,0-.4372,5.5,25.4664,25.4664,0,0,1-.0354,5.6931,4.1557,4.1557,0,0,1-1.2218,2.2442,15.9048,15.9048,0,0,1-1.4128,1.25A6.2312,6.2312,0,0,0,50.0905,51.21a19.1265,19.1265,0,0,1-.8,2.5185,7.3713,7.3713,0,0,1-3.4187,3.7822,4.3231,4.3231,0,0,1-2.79.3049,2.7389,2.7389,0,0,0-2.4748.6722,14.9577,14.9577,0,0,1-3.8917,2.7688,4.6516,4.6516,0,0,1-3.2022.4917,3.2429,3.2429,0,0,1-1.1288-.5579A5.878,5.878,0,0,0,28.2993,60.09c-1.3066.0643-2.6151.1319-3.9227.1307a7.8881,7.8881,0,0,1-7.3519-4.376,29.7614,29.7614,0,0,1-1.835-4.4661,6.2988,6.2988,0,0,0-2.3752-3.275,11.2476,11.2476,0,0,1-1.5813-1.3624A5.9124,5.9124,0,0,1,9.6482,42.97a7.9788,7.9788,0,0,1,3.426-7.4147,7.08,7.08,0,0,1,.695-.5177,4.2858,4.2858,0,0,0,2.0293-2.6931,3.9057,3.9057,0,0,1,2.0721-2.464c.7786-.4155,1.5935-.7686,2.346-1.2256a5.7566,5.7566,0,0,0,1.67-1.2905,18.1066,18.1066,0,0,1,5.9013-4.9293,97.0057,97.0057,0,0,1,14.693-7.02,35.7891,35.7891,0,0,1,7.2852-1.8515C50.3881,13.4831,51.0179,13.4633,51.9434,13.3926Z"/>
    </g>
    <path fill="none" stroke="#000" stroke-linecap="round" stroke-linejoin="round" stroke-width="2.1266" d="M44.1,24.5157A92.9134,92.9134,0,0,0,33.298,32.5812"/>
    <path fill="none" stroke="#000" stroke-linecap="round" stroke-linejoin="round" stroke-width="2.1266" d="M26.8551,39.8181c-1.5775,2.67-1.9478,5.212.0034,7.1632C38.4506,58.5734,48.2793,26.8667,48.2793,26.8667"/>
    <circle cx="31.0008" cy="37.0229" r="5" fill="none" stroke="#000" stroke-linecap="round" stroke-linejoin="round" stroke-width="2.435"/>
  </g>
</svg>
