<svg id="emoji" viewBox="0 0 72 72" xmlns="http://www.w3.org/2000/svg">
  <g id="line">
    <path id="Badger_Line_1" fill="none" stroke="#000" stroke-linecap="round" stroke-linejoin="round" stroke-width="2" d="M66.6878,44.68c.9551-4.1388.7825-24.4613-15.856-24.5126C45.4029,20.15,34.7472,22.99,29.32,23.1375c-1.3974.038-4.4352.048-5.5315-.8195-.6186-.49-.2131-2.0038-1.8438-2.5609-1.1324-.3868-2.5413.9451-3.38,1.2805a23.3153,23.3153,0,0,0-8.2973,4.9681S5.4492,28.09,5.4527,29.4885c.0065,2.5891,7.2729,3.5853,7.2729,3.5853s7.0964,1.9422,9.1168,3.2779c3.1615,2.09,10.39,10.7109,10.1412,11.268-.1254.28-4.8936.3328-4.8145,2.8682.0543,1.7409,2.7658,1.7414,2.7658,1.7414h5.0193c.9442-.6272,1.3347-3.1729,1.4305-4.3023.0854-1.0068-1.5759-3.6953-.611-3.995,2.4779-.77,4.77.3993,10.6533.6146.8446.0309,0,3.38,0,3.38s-4.6731,1.5124-4.61,2.8682c.0672,1.4341,2.356,1.4341,2.356,1.4341h5.634s4.0166-7.5875,4.712-8.1949c2.6539-2.3175,4.9935-1.83,9.1168-4.5072"/>
    <path id="Badger_Line_2" fill="none" stroke="#000" stroke-linecap="round" stroke-linejoin="round" stroke-width="2" d="M55.8961,43.0439l3.2286,3.9687c-.6286.92-7.115.4826-6.0023,4.7231.1348.5136,1.5354.49,2.0664.492,1.0578.0036,4.2311,0,4.2311,0"/>
    <path id="Badger_Line_3" fill="none" stroke="#000" stroke-linecap="round" stroke-linejoin="round" stroke-width="2" d="M22.55,36.88s2.1119,7.22.8225,9.1084c-.6286.92-7.115.4826-6.0023,4.7231.1348.5136,1.5354.49,2.0664.492,1.0578.0036,4.2311,0,4.2311,0"/>
    <path id="Badger_Line_4" d="M7.9183,27.2494l.2742,4.7876c-.9434.379-3.314-2.3569-3.314-2.3569S7.03,26.853,7.9183,27.2494Z"/>
  </g>
</svg>
