<svg id="emoji" viewBox="0 0 72 72" xmlns="http://www.w3.org/2000/svg">
  <g id="line">
    <path fill="none" stroke="#000" stroke-linecap="round" stroke-linejoin="round" stroke-width="2" d="M24.4257,43.4114C12.2162,40.3751,14.36,26.1412,14.36,26.1412c2.18-12.0947,10.4521-14.5363,10.4521-14.5363A7.7849,7.7849,0,0,1,31.8912,12.87h0A5.8408,5.8408,0,0,0,36,14.0607h0L36.7427,14a1.4609,1.4609,0,0,1,1.5352,1.0947h0a3.7674,3.7674,0,0,1-1.5918,4.0873l-1.0747.7011a6.11,6.11,0,0,0-1.7405,8.5144h0a3.5238,3.5238,0,0,0,2.2666,1.5019S51,31.4359,56,37.77a11.1522,11.1522,0,0,1,.9113,12.6673s1.1019,8.2819-5.83,10.5215a5.348,5.348,0,0,0-.4483-3.7531,2.0476,2.0476,0,0,1,.235-2.5383,4.4309,4.4309,0,0,0,1.493-2.4527,28.0687,28.0687,0,0,0-2.9733.9315,3.708,3.708,0,0,1-3.7451-.7226,6.7174,6.7174,0,0,0-5.1541-1.9863s1.7062-2.9147,7.4647-2.1327,4.4078-2.63,4.4078-2.63-.3665-2.1033-4.733-1.8956"/>
    <path fill="none" stroke="#000" stroke-linecap="round" stroke-linejoin="round" stroke-width="2" d="M23.9048,38.8321s7.5419,13.2884,19.8829,6.5353c0,0,2.5506-1.4714-1.4755-2.6759a11.048,11.048,0,0,1-5.5226-4.516s-1.4144-3.4348-4.7145-3.7042"/>
    <path fill="none" stroke="#000" stroke-linecap="round" stroke-linejoin="round" stroke-width="2" d="M16.8894,38.3665a7.1455,7.1455,0,0,1-4.5766,7.2521.529.529,0,0,0,.0094.9978c1.5113.5365,4.9456.6609,12.1037-3.2055"/>
  </g>
</svg>
