<svg id="emoji" viewBox="0 0 72 72" xmlns="http://www.w3.org/2000/svg">
  <g id="line">
    <g>
      <path fill="none" stroke="#000" stroke-linecap="round" stroke-miterlimit="10" stroke-width="2" d="M22.1491,44.0267c-1.5827,3.18-3.8821,2.9641-5.3227,4.3841l.16-.1556s-.1945.1848-.2439.2387q-.261.2616-.5029.53A15.5849,15.5849,0,0,1,12.4476,52.04a2.2467,2.2467,0,0,0-1.0325,1.463,2.0842,2.0842,0,0,0,.4,1.8959l.0738.086a14.6555,14.6555,0,0,0,4.6091,3.1611c.033.014.0695.0241.1029.0376.1475.0563.2955.1107.4458.1585.1082.0344.2192.0647.3314.0941.0623.0167.1235.0377.1861.0527.0285.0069.0523.0055.08.01a11.3628,11.3628,0,0,0,6.4327-.7254,31.7931,31.7931,0,0,0,5.6007-3.3308"/>
      <path fill="none" stroke="#000" stroke-miterlimit="10" stroke-width="2" d="M25.3741,57.6279A17.0118,17.0118,0,0,0,24.1318,60.47a5.0635,5.0635,0,0,0,.2807,2.6894c-.0243-.0007-.0471-.0055-.0717-.0055-1.1525,0-2.3674.3457-2.3674,1.6157,0,1.1133,1.2149,1.5363,2.3674,1.5363a15.6606,15.6606,0,0,0,2.2478-.3536"/>
      <path fill="none" stroke="#000" stroke-linecap="round" stroke-linejoin="round" stroke-width="2" d="M27.7715,56.2575a9.14,9.14,0,0,0-.5324,2.7776,7.4725,7.4725,0,0,0,.0844,2.4874l-.551.7464a1.6961,1.6961,0,0,0-1.3984,1.8148,1.9783,1.9783,0,0,0,2.0726,1.8679s2.4016.1535,4.1873-3.6494c.0365-.071.0671-.1505.1015-.225.0486-.1094.0192-.03.0668-.1453l.0155-.0338a8.7284,8.7284,0,0,0,.5146-1.9311,7.5559,7.5559,0,0,0-.09-2.5509"/>
      <path fill="none" stroke="#000" stroke-linecap="round" stroke-miterlimit="10" stroke-width="2" d="M45.3707,41.5759a14.3657,14.3657,0,0,0-10.4233-3.9741,15.8916,15.8916,0,0,0-9.9743,3.5767h0a21.66,21.66,0,0,0-2.824,2.8482c-.2722.3041-1.1355,1.622-1.4077,1.9319"/>
      <path fill="none" stroke="#000" stroke-linecap="round" stroke-miterlimit="10" stroke-width="2" d="M49.0409,59.2638c.393-1.3756.8429-3.2616.915-3.5792.4407-2.19-.05-5.0111-1.1644-8.2392"/>
      <path fill="none" stroke="#000" stroke-linecap="round" stroke-miterlimit="10" stroke-width="2" d="M33.4485,59.525a73.8949,73.8949,0,0,0,8.307-.1375c.0273-.0028.054-.0062.081-.0106.4447-.0727,1.0153-.1712,1.56-.2565"/>
      <path fill="none" stroke="#000" stroke-linecap="round" stroke-miterlimit="10" stroke-width="2" d="M43.7467,60.7691c-.1684.0025-.1684.0025-.3461.0159-.8617.0394-1.3749-.2769-2.2713.32A2.6551,2.6551,0,0,0,40.262,62.8a1.5761,1.5761,0,0,0,1.5761,1.576,6.8107,6.8107,0,0,0,2.5611-.5327l.0224-.0047s.0214-.0065.0955-.0308a6.9155,6.9155,0,0,0,1.2486-.4727l.0177-.0105.0265-.0125a6.1138,6.1138,0,0,0,.6936-.4167,5.7077,5.7077,0,0,0,2.5572-3.8782L49.6,57.0135"/>
      <path fill="none" stroke="#000" stroke-linecap="round" stroke-miterlimit="10" stroke-width="2" d="M41.4331,55.7334s-.1639,2.5178,2.9138,3.5043c0,0,1.3031.5058-.6,1.5314"/>
      <path fill="none" stroke="#000" stroke-linecap="round" stroke-linejoin="round" stroke-width="2" d="M45.3707,41.5759c.7081-.7636,4.91-5.1715-7.808-9.2915,0,0-24.5792-6.3315-5.2142-22.6372a23.69,23.69,0,0,1,2.4243-1.5864c1.553-.9147,7.55-3.3239,15.8445-.9288,0,0-12.7779,6.1422-4.817,11.4893a47.9168,47.9168,0,0,0,10.4686,5.5874S64.3415,27.34,60.1173,35.75"/>
    </g>
  </g>
</svg>
