<svg id="emoji" viewBox="0 0 72 72" xmlns="http://www.w3.org/2000/svg">
  <g id="line">
    <path fill="none" stroke="#000" stroke-linecap="round" stroke-linejoin="round" stroke-width="2" d="M14.95,22.16S9.7623,20.559,9.7623,26.1787c0,0,0,3.01,1.9078,3.4435,0,0,.7179-2.498,3.0543-2.498"/>
    <path fill="none" stroke="#000" stroke-linecap="round" stroke-linejoin="round" stroke-width="2" d="M27.8292,45.0409c1.5491,2.5935,4.7957,5.3184,8.1812,5.1076h0s1.704,3.7123,5.066,3.95S47.8,49.2918,47.8,49.2918s7.9213-.3808,7.9213-7.8531c0,0-.945-11.5778-11.52-11.9052,0,0-4.5725-.1-7.6533,1.8641s-5.7419-1.06-5.7419-1.06a5.3768,5.3768,0,0,1-1.154-3.4131,5.1883,5.1883,0,0,1,1.2335-3.413,4.6329,4.6329,0,0,0,1.2335-2.7552s.2786-6.9906-7.202-6.5383a5.34,5.34,0,0,0-4.7934,2.7541"/>
    <path fill="none" stroke="#000" stroke-linecap="round" stroke-linejoin="round" stroke-width="2" d="M26.8925,21.306c.16-5.1415-7.1895-6.6156-8.9648-1.9174l-.0016-.0023A3.9806,3.9806,0,0,1,14.95,22.16l.0035.0057a1.8071,1.8071,0,0,0,.0536,3.4006c-1.5533,2.1642,2.1226,3.9812,3.6,2.2714a10.3857,10.3857,0,0,0,.7574-.8153s5.066-1.2395,4.0851,7.13,3.4457,8.3694,3.4457,8.3694"/>
    <path fill="none" stroke="#000" stroke-linecap="round" stroke-linejoin="round" stroke-width="2" d="M54.1143,35.9694c1.0884-.0093,8.551-.5206,7.0032,6.1239"/>
    <path fill="none" stroke="#000" stroke-linecap="round" stroke-linejoin="round" stroke-width="2" d="M39.4622,53.6914a24.4771,24.4771,0,0,0,.524,2.8648,1.0148,1.0148,0,0,1-.7273,1.26,31.6692,31.6692,0,0,1-5.5333.65c-2.6063,0-2.8959,1.6026-2.8959,2.4663H48.8025s.213-2.4061-1.9392-2.4061a8.601,8.601,0,0,1-3.6219-.5026,1.4,1.4,0,0,1-.705-1.2257"/>
    <path fill="none" stroke="#000" stroke-linecap="round" stroke-linejoin="round" stroke-width="2" d="M38.06,36.7031c2.418,1.9988.1612,4.7715.1612,4.7715,2.8,2.155,1.4943,4.4257,1.4943,4.4257-2.9392,1.7195-4.9587-1.88-4.9587-1.88a7.6461,7.6461,0,0,0-1.58-1.98,3.1488,3.1488,0,0,1-.72-3.0192"/>
    <path fill="none" stroke="#000" stroke-linecap="round" stroke-linejoin="round" stroke-width="2" d="M59.5316,40.7388s4.4782,2.9654,2.5417,5.656c-2.0167,2.802-4.4987-.0152-4.4987-.0152s.2109,2.28-1.7359,2.4538c-1.3735.1222-1.9687-1.52-2.1872-2.0221"/>
  </g>
</svg>
