<svg id="emoji" xmlns="http://www.w3.org/2000/svg" viewBox="0 0 72 72">
  <g id="line">
    <path d="M46.091,43.7463a3.9045,3.9045,0,0,0-.0306-.8114,4.2113,4.2113,0,0,0-1.646-2.72,4.1147,4.1147,0,0,0,.695-4.2694,3.9155,3.9155,0,0,0-2.3562-2.0736,3.5927,3.5927,0,0,0-1.4689-3.3222,3.3754,3.3754,0,0,0-4.0753.2575,3.6761,3.6761,0,0,0-2.9626-2.418,3.81,3.81,0,0,0-3.2818,1.405,4.7853,4.7853,0,0,0-5.0021-1.2584" fill="none" stroke="#000" stroke-linecap="round" stroke-linejoin="round" stroke-width="2"/>
    <path d="M40.5182,43.7463A25.0763,25.0763,0,0,0,38.2014,37.47a4.1911,4.1911,0,0,1-6.9654.704,3.16,3.16,0,0,1-5.1149.1075l-.0036.0089" fill="none" stroke="#000" stroke-linecap="round" stroke-linejoin="round" stroke-width="2"/>
  </g>
</svg>
