<svg id="emoji" viewBox="0 0 72 72" xmlns="http://www.w3.org/2000/svg">
  <g id="line">
    <path id="Bone_Line_1" fill="none" stroke="#000" stroke-linecap="round" stroke-linejoin="round" stroke-width="2" d="M47.39,16.6351c1.0969,1.92,8.1674-1.9826,10.2408-.1156a5.3776,5.3776,0,0,1,1.9662,3.9577c-.0856,2.48-2.3583,3.9745-3.5252,4.7419a10.3166,10.3166,0,0,1-6.099,1.6015c-7.2788,6.2013-13.999,17.304-16.541,21.9142a5.9007,5.9007,0,0,0-.38,4.37,8.9807,8.9807,0,0,1-.0161,5.23c-.1764.5528-1.5045,4.7173-4.8626,5.22a5.5986,5.5986,0,0,1-4.7941-1.8044c-1.5768-1.7777-2.2836-6.7706-5.3218-6.3873"/>
    <path id="Bone_Line_1-2" fill="none" stroke="#000" stroke-linecap="round" stroke-linejoin="round" stroke-width="2" d="M24.61,54.9369c-1.097-1.92-8.1675,1.9826-10.2409.1156a5.3776,5.3776,0,0,1-1.9662-3.9577c.0856-2.48,2.3583-3.9745,3.5252-4.7419a10.2279,10.2279,0,0,1,6.0247-1.645A57.3482,57.3482,0,0,0,38.6611,23.3417a7.26,7.26,0,0,0,.2871-4.8744,8.98,8.98,0,0,1,.0162-5.23c.1763-.5528,1.5044-4.7173,4.8625-5.22a5.5988,5.5988,0,0,1,4.7942,1.8044c1.5767,1.7777,2.2835,6.7706,5.3218,6.3873"/>
  </g>
</svg>
