<svg id="emoji" viewBox="0 0 72 72" xmlns="http://www.w3.org/2000/svg">
  <g id="line">
    <g id="Mechanical_Arm">
      <path fill="none" stroke="#000" stroke-linecap="round" stroke-linejoin="round" stroke-width="2" d="M41.2561,43.458l.5364-.3576a2,2,0,0,1,2.5237.25l1.2944,1.2944a2,2,0,0,1,.1454,2.6662l-.6532.8138a2,2,0,0,1-1.6676.7451l-1.1776-.0637a2,2,0,0,1-1.8921-1.9971V45.1221A2,2,0,0,1,41.2561,43.458Z"/>
      <path fill="none" stroke="#000" stroke-miterlimit="10" stroke-width="2" d="M25.2193,43.4416l.6215-.5526a2,2,0,0,1,1.329-.5055H37.744a2,2,0,0,1,1.3291.5055l.6214.5526a2,2,0,0,1,.671,1.4945v2.3412a2,2,0,0,1-.671,1.4945l-.6214.5526a2,2,0,0,1-1.3291.5055H27.17a2,2,0,0,1-1.329-.5055l-.6215-.5526a2,2,0,0,1-.6709-1.4945V44.9361A2,2,0,0,1,25.2193,43.4416Z"/>
      <path fill="none" stroke="#000" stroke-miterlimit="10" stroke-width="2" d="M45.678,45.0386,43.8192,43.18a2,2,0,0,1-.5776-1.5953l.7559-8.3152q.0081-.0888.0241-.1767l1.53-8.4138a2,2,0,0,1,.8584-1.3063l3.485-2.3233a2,2,0,0,1,1.8972-.1742l3.7338,1.6a2,2,0,0,1,1.2122,1.8382v3.3449a2,2,0,0,1-.1762.8207L49.4582,44.2644a2,2,0,0,1-1.1913,1.0766l-.5422.1807A2,2,0,0,1,45.678,45.0386Z"/>
      <g id="line-2">
        <g>
          <path fill="none" stroke="#000" stroke-linecap="round" stroke-linejoin="round" stroke-width="2" d="M14.396,44.4169c-1.7206.6565-1.4954,2.4173-.075,2.6977"/>
          <path fill="none" stroke="#000" stroke-linecap="round" stroke-linejoin="round" stroke-width="2" d="M14.321,47.1145a1.4067,1.4067,0,0,0,.0571,2.7629"/>
          <line x1="16.1155" x2="14.3781" y1="50.1461" y2="49.8774" fill="none" stroke="#000" stroke-linecap="round" stroke-linejoin="round" stroke-width="2"/>
          <line x1="15.8566" x2="14.321" y1="47.1145" y2="47.1146" fill="none" stroke="#000" stroke-linecap="round" stroke-linejoin="round" stroke-width="2"/>
          <line x1="15.6468" x2="14.396" y1="44.3249" y2="44.4169" fill="none" stroke="#000" stroke-linecap="round" stroke-linejoin="round" stroke-width="2"/>
          <path fill="none" stroke="#000" stroke-linecap="round" stroke-linejoin="round" stroke-width="2" d="M14.396,44.4169a1.3989,1.3989,0,0,1,.0882-2.7848l2.45-.1825a2.0392,2.0392,0,0,0,1.848-2.102,13.4626,13.4626,0,0,1,.3429-3.5231c.528-.8839,2.2338-.8015,2.5018.092l.7261,4.9979a2.0015,2.0015,0,0,0,.2007.6273l1.6289,3.1666v3.53l-2.4469,1.5859a1.9989,1.9989,0,0,1-1.0871.3215H16.1155"/>
        </g>
      </g>
    </g>
  </g>
</svg>
