<svg id="emoji" viewBox="0 0 72 72" xmlns="http://www.w3.org/2000/svg">
  <g id="line">
    <g id="Mechanical_Leg">
      <g>
        <path fill="none" stroke="#000" stroke-miterlimit="10" stroke-width="2" d="M31.12,27.7436a.7963.7963,0,0,1-.3849-1.2139L40.8356,10.8918a2.5216,2.5216,0,0,1,1.5319-.9859l3.9474-.5824a2.4467,2.4467,0,0,1,1.7377.5173l2.7462,2.4341a2.5412,2.5412,0,0,1,.7484,1.6632v3.7727a2.0917,2.0917,0,0,1-.8325,1.554L36.2224,28.9109a2.1294,2.1294,0,0,1-1.76.18Z"/>
        <path fill="none" stroke="#000" stroke-miterlimit="10" stroke-width="2" d="M33.9628,51.4223H32.2266a2.1975,2.1975,0,0,1-1.9875-1.9842L28.4267,35.1265a1.73,1.73,0,0,1,1.7487-1.9915l2.5714-.0093a3.5952,3.5952,0,0,1,2.917,1.77l.1591.3083a9.1977,9.1977,0,0,1,.8591,3.7766l-.0234.8055a20.1577,20.1577,0,0,1-.5859,3.9282l-2.11,7.7079"/>
        <path fill="none" stroke="#000" stroke-linejoin="round" stroke-width="2" d="M35.5423,56.9767A1.8737,1.8737,0,0,0,36.62,55.6329l.0481-.3345a2.4657,2.4657,0,0,0-.52-1.7392l-1.226-1.3875a2.5355,2.5355,0,0,0-1.6621-.7494H32.2092a2.7355,2.7355,0,0,0-1.6992.7149l-4.82,4.9289c-.3845.3932-1.02,1.03-1.4128,1.4154l-.7287.7153a1.4954,1.4954,0,0,0-.3658,1.513,1,1,0,0,0,1.2831.4586Z"/>
        <path fill="none" stroke="#000" stroke-miterlimit="10" stroke-width="2" d="M28.1585,30.256a2.6181,2.6181,0,0,1,.7264-1.6494l.581-.55a1.7015,1.7015,0,0,1,1.6539-.3133l3.3426,1.3475a1.3811,1.3811,0,0,1,.8076,1.3667l-.2015,1.6678a1.1659,1.1659,0,0,1-1.12.997l-3.7732.0156a1.82,1.82,0,0,1-1.4673-.88l-.0824-.156A4.7039,4.7039,0,0,1,28.1585,30.256Z"/>
      </g>
    </g>
  </g>
</svg>
