<svg id="emoji" viewBox="0 0 72 72" xmlns="http://www.w3.org/2000/svg">
  <g id="line">
    <path fill="none" stroke="#000" stroke-linecap="round" stroke-linejoin="round" stroke-width="2.55" d="m44.04 46.24 0.6839-0.4559a2.55 2.55 0 0 1 3.218 0.3187l1.65 1.65a2.55 2.55 0 0 1 0.1854 3.399l-0.8328 1.038a2.55 2.55 0 0 1-2.126 0.95l-1.501-0.08121a2.55 2.55 0 0 1-2.412-2.546v-2.151a2.55 2.55 0 0 1 1.135-2.122z"/>
    <path fill="none" stroke="#000" stroke-miterlimit="10" stroke-width="2.55" d="m23.59 46.21 0.7924-0.7046a2.55 2.55 0 0 1 1.694-0.6445h13.48a2.55 2.55 0 0 1 1.695 0.6445l0.7923 0.7046a2.55 2.55 0 0 1 0.8555 1.905v2.985a2.55 2.55 0 0 1-0.8555 1.905l-0.7923 0.7046a2.55 2.55 0 0 1-1.695 0.6445h-13.48a2.55 2.55 0 0 1-1.694-0.6445l-0.7924-0.7046a2.55 2.55 0 0 1-0.8554-1.905v-2.985a2.55 2.55 0 0 1 0.8551-1.905z"/>
    <path fill="none" stroke="#000" stroke-miterlimit="10" stroke-width="2.55" d="m49.67 48.25-2.37-2.37a2.55 2.55 0 0 1-0.7364-2.034l0.9638-10.6q0.01032-0.1132 0.03073-0.2253l1.951-10.73a2.55 2.55 0 0 1 1.094-1.665l4.443-2.962a2.55 2.55 0 0 1 2.419-0.2221l4.76 2.04a2.55 2.55 0 0 1 1.546 2.344v4.265a2.55 2.55 0 0 1-0.2246 1.046l-9.057 20.13a2.55 2.55 0 0 1-1.519 1.373l-0.6913 0.2304a2.55 2.55 0 0 1-2.609-0.6159z"/>
    <path transform="translate(-8.565 -9.172) scale(1.275)" fill="none" stroke="#000" stroke-linecap="round" stroke-linejoin="round" stroke-width="2" d="m14.4 44.42c-1.721 0.6565-1.495 2.417-0.075 2.698"/>
    <path transform="translate(-8.565 -9.172) scale(1.275)" fill="none" stroke="#000" stroke-linecap="round" stroke-linejoin="round" stroke-width="2" d="m14.32 47.11a1.407 1.407 0 0 0 0.0571 2.763"/>
    <line x1="16.12" x2="14.38" y1="50.15" y2="49.88" transform="translate(-8.565 -9.172) scale(1.275)" fill="none" stroke="#000" stroke-linecap="round" stroke-linejoin="round" stroke-width="2"/>
    <line x1="15.86" x2="14.32" y1="47.11" y2="47.11" transform="translate(-8.565 -9.172) scale(1.275)" fill="none" stroke="#000" stroke-linecap="round" stroke-linejoin="round" stroke-width="2"/>
    <line x1="15.65" x2="14.4" y1="44.32" y2="44.42" transform="translate(-8.565 -9.172) scale(1.275)" fill="none" stroke="#000" stroke-linecap="round" stroke-linejoin="round" stroke-width="2"/>
    <path transform="translate(-8.565 -9.172) scale(1.275)" fill="none" stroke="#000" stroke-linecap="round" stroke-linejoin="round" stroke-width="2" d="m14.4 44.42a1.399 1.399 0 0 1 0.0882-2.785l2.45-0.1825a2.039 2.039 0 0 0 1.848-2.102 13.46 13.46 0 0 1 0.3429-3.523c0.528-0.8839 2.234-0.8015 2.502 0.092l0.7261 4.998a2.002 2.002 0 0 0 0.2007 0.6273l1.629 3.167v3.53l-2.447 1.586a1.999 1.999 0 0 1-1.087 0.3215h-4.533"/>
  </g>
</svg>
