<svg id="emoji" viewBox="0 0 72 72" xmlns="http://www.w3.org/2000/svg">
  <g id="line">
    <g>
      <path fill="none" stroke="#000" stroke-linecap="round" stroke-linejoin="round" stroke-width="2" d="M34.4166,14.6311l4.3043-6.1339a20.0263,20.0263,0,0,0-1.22,2.2393c-2.7869,6.1037,2.1232,6.3747,2.1232,6.3747C51.1091,18.61,59.9359,27.59,59.9359,38.4438c0,11.9029-10.615,21.5522-23.7093,21.5522S12.5173,50.3467,12.5173,38.4438c0-8.2317,5.0767-15.3855,12.5394-19.0154a24.8313,24.8313,0,0,1,3.0884-1.2525q.1238-.0406.2481-.08.1619-.0515.3249-.1009a25.4857,25.4857,0,0,1,3.2831-.7619"/>
      <path fill="none" stroke="#000" stroke-linecap="round" stroke-linejoin="round" stroke-width="2" d="M35.9929,60.2041l-5.797,2.59Z"/>
      <polyline fill="none" stroke="#000" stroke-linecap="round" stroke-linejoin="round" stroke-width="2" points="40.931 62.794 35.993 60.204 35.993 62.794"/>
      <path fill="none" stroke="#000" stroke-linecap="round" stroke-linejoin="round" stroke-width="2" d="M32.3755,53.4552c-2.33-2.343-3.9821-8.237-3.9821-15.1375,0-5.8044,1.1693-10.8967,2.9272-13.7624"/>
      <path fill="none" stroke="#000" stroke-linecap="round" stroke-linejoin="round" stroke-width="2" d="M23.7259,49.8921c-1.7551-1.7652-3-6.2059-3-11.4048,0-4.3732.881-8.21,2.2054-10.3689"/>
      <path fill="none" stroke="#000" stroke-linecap="round" stroke-linejoin="round" stroke-width="2" d="M49.28,49.8921c1.7551-1.7652,3-6.2059,3-11.4048,0-4.3732-.8811-8.21-2.2055-10.3689"/>
      <path fill="none" stroke="#000" stroke-linecap="round" stroke-linejoin="round" stroke-width="2" d="M39.2155,53.4552c2.33-2.343,3.9822-8.237,3.9822-15.1375,0-5.8044-1.1693-10.8967-2.9273-13.7624"/>
    </g>
  </g>
</svg>
