<svg id="emoji" viewBox="0 0 72 72" version="1.1" xmlns="http://www.w3.org/2000/svg">
  <g id="line">
    <path fill="none" stroke="#000000" stroke-linecap="round" stroke-linejoin="round" stroke-width="2" d="M58.0985,60v-3 c0-4.9941-5.0059-9-10-9c-6,5-12,5-18,0"/>
    <g>
      <path fill="none" stroke="#000000" stroke-linecap="round" stroke-miterlimit="10" stroke-width="2" d="M18.5655,29.3344 c1.1934,1.6038,1.1699,3.8068-0.0575,5.3848"/>
      <path fill="none" stroke="#000000" stroke-linecap="round" stroke-miterlimit="10" stroke-width="2" d="M14.9838,27.0754 c0,0,2.5694,4.9485-0.6794,9.3944"/>
    </g>
    <g>
      <path fill="none" stroke="#000000" stroke-linecap="round" stroke-linejoin="round" stroke-width="2" d="M26.1041,45.1212 c2.9607-3.0021-2.9-5.0627-2.9-5.0627l3.226-3.271c0.637-0.5814,0.978-1.419,0.9284-2.28c-0.1838-1.4763-2.15-0.483-2.15-0.483 l-5.6295,5.7083c-0.192,0.1954-0.3282,0.4387-0.3944,0.7046L17.92,45.48c-0.2775,1.1067-0.253,2.2677,0.071,3.3617l0.22,0.7427 L13.5636,60.029"/>
      <path fill="none" stroke="#000000" stroke-linecap="round" stroke-linejoin="round" stroke-width="2" d="M27.0713,46.0363 l-0.0062,0.8187c-0.0018,0.9603-0.4487,1.8654-1.21,2.4507c-0.9974,0.8119-2.1746,1.3735-3.4333,1.6379"/>
      <line x1="22.4219" x2="19.1568" y1="50.9436" y2="60.0006" fill="none" stroke="#000000" stroke-linecap="round" stroke-linejoin="round" stroke-width="2"/>
    </g>
    <g>
      <path fill="none" stroke="#000000" stroke-linecap="round" stroke-linejoin="round" stroke-width="2" d="M20.8292,37.926 c-0.204-3.01,2.0835-6.8738,2.0835-6.8738c1.6357-4.2-0.209-6.4512,1.291-12.0342c1.4795-5.5,7.2773-8.9658,13.709-8.9658 c5.4,0,8,3,8,3c4.169,0.374,7.373,3.8515,7.4052,8.0371c0.3867,7.18,1.0244,7.1523,3.4287,12.8222 c1.6689,3.8623,1.1153,8.3256-1.4466,11.6631"/>
      <path d="M44.9127,29.0522c0,1.1046-0.8954,2-2,2s-2-0.8954-2-2s0.8954-2,2-2S44.9127,27.9476,44.9127,29.0522"/>
      <path d="M36.9127,29.0522c0,1.1046-0.8954,2-2,2s-2-0.8954-2-2s0.8954-2,2-2S36.9127,27.9476,36.9127,29.0522"/>
      <path fill="none" stroke="#000000" stroke-linejoin="round" stroke-width="2" d="M27.9127,30.0522c0,8,5,14,11,14s11-6,11-14 c0-5-2-8-6-12c-4,4-16,9-16,11V30.0522z"/>
      <path fill="none" stroke="#000000" stroke-linecap="round" stroke-linejoin="round" stroke-width="2" d="M35.895,37.1205 c1.8826-0.9693,4.1174-0.9693,6,0v0.2729c-1.8826,0.9693-4.1174,0.9693-6,0V37.1205z"/>
    </g>
  </g>
</svg>
