<svg id="emoji" viewBox="0 0 72 72" xmlns="http://www.w3.org/2000/svg">
  <g id="line">
    <g id="Kneeing_Woman">
      <circle cx="37.8086" cy="18.0531" r="3" fill="none" stroke="#000" stroke-miterlimit="10" stroke-width="2"/>
      <path fill="none" stroke="#000" stroke-linecap="round" stroke-linejoin="round" stroke-width="2" d="M28.84,51.0011c4.0423,0,6.95-.1135,9.0285-.264a5.4916,5.4916,0,0,0,5.099-5.855l-.2027-5.3-.6323-10.5385A4.3671,4.3671,0,0,0,37.84,25.0011h0a4.6314,4.6314,0,0,0-4.4463,4.0171L32.84,33.98l-.7,7.021"/>
      <path fill="none" stroke="#000" stroke-linecap="round" stroke-linejoin="round" stroke-width="2" d="M31.438,44.8535,22.98,47.1643a4.4945,4.4945,0,0,0-1.75.9614l-.075.067a3.9881,3.9881,0,0,0,.3105,6.3276,8.1207,8.1207,0,0,0,4.4127,1.23,145.2047,145.2047,0,0,0,15.94-.7448"/>
      <polyline fill="none" stroke="#000" stroke-linecap="round" stroke-linejoin="round" stroke-width="2" points="37.955 29.952 37.209 40.265 26.685 43.207"/>
    </g>
  </g>
</svg>
