<svg id="emoji" viewBox="0 0 72 72" xmlns="http://www.w3.org/2000/svg">
  <g id="line">
    <path fill="none" stroke="#000" stroke-linecap="round" stroke-linejoin="round" stroke-width="2" d="M58.1,60V57c0-5-5-9-10-9q-9,7.5-18,0"/>
    <path fill="none" stroke="#000" stroke-linecap="round" stroke-miterlimit="10" stroke-width="2" d="M19.9,29.3a4.3585,4.3585,0,0,1-.1,5.4"/>
    <path fill="none" stroke="#000" stroke-linecap="round" stroke-miterlimit="10" stroke-width="2" d="M15.7,27.5s2.6,4.9-.7,9.4"/>
    <g>
      <path fill="none" stroke="#000" stroke-linecap="round" stroke-linejoin="round" stroke-width="2" d="M26.1,45.1c3-3-2.9-5.1-2.9-5.1l3.2-3.3a2.8138,2.8138,0,0,0,.9-2.3c-.1-1.4-2.1-.4-2.1-.4l-5.6,5.7a1.6118,1.6118,0,0,0-.4.7l-1.3,5a5.643,5.643,0,0,0,.1,3.4l.2.7L13.6,60"/>
      <path fill="none" stroke="#000" stroke-linecap="round" stroke-linejoin="round" stroke-width="2" d="M27.1,46v.8a3.0339,3.0339,0,0,1-1.2,2.5,7.61,7.61,0,0,1-3.4,1.6"/>
      <line x1="22.4" x2="19.2" y1="50.9001" y2="60.0001" fill="none" stroke="#000" stroke-linecap="round" stroke-linejoin="round" stroke-width="2"/>
    </g>
    <path fill="none" stroke="#000" stroke-linecap="round" stroke-linejoin="round" stroke-width="2" d="M25.8,33.1A49.69,49.69,0,0,1,25,24c0-6,5-12,14-12s14,6,14,12c0,7-1,14-4,14"/>
    <path fill="none" stroke="#000" stroke-linecap="round" stroke-linejoin="round" stroke-width="2" d="M29.1,38c-.9,0-1.5-.4-2.1-1.5"/>
    <path fill="none" stroke="#000" stroke-linejoin="round" stroke-width="2" d="M28,31c-.1,8,4.9,14,11,14,5.9,0,11.1-6,11.1-14,0-5-3-11-3-11-8,0-10,3-16,1C31.1,21,28.1,26,28,31Z"/>
    <path fill="none" stroke="#000" stroke-linecap="round" stroke-linejoin="round" stroke-width="2" d="M36.1,37.7a6.375,6.375,0,0,1,6,0V38a6.375,6.375,0,0,1-6,0Z"/>
    <path d="M37,30a2,2,0,1,1-2-2,2.0059,2.0059,0,0,1,2,2"/>
    <path d="M45,30a2,2,0,1,1-2-2,2.0059,2.0059,0,0,1,2,2"/>
  </g>
</svg>
