<svg id="emoji" viewBox="0 0 72 72" xmlns="http://www.w3.org/2000/svg">
  <g id="line">
    <path fill="none" stroke="#000" stroke-linecap="round" stroke-linejoin="round" stroke-width="2" d="M25.5206,24.3478a27.7526,27.7526,0,0,0-.2988,3.747c-.1723,8.2606,4.6388,15.06,10.7461,15.1878s11.1974-6.4661,11.37-14.7267"/>
    <path fill="none" stroke="#000" stroke-linecap="round" stroke-linejoin="round" stroke-width="2" d="M47.3376,28.5559a27.4609,27.4609,0,0,0-.2348-4.2081"/>
    <path d="M42,29.773a2,2,0,1,1-2-2,2.0007,2.0007,0,0,1,2,2"/>
    <path d="M34,29.773a2,2,0,1,1-2-2,2.0007,2.0007,0,0,1,2,2"/>
    <path d="M36,39.7754a7.6524,7.6524,0,0,1-3.4472-.8579,1,1,0,0,1,.8945-1.7891,5.3774,5.3774,0,0,0,5.1055,0,1,1,0,1,1,.8945,1.7891A7.6528,7.6528,0,0,1,36,39.7754Z"/>
    <path fill="none" stroke="#000" stroke-linecap="round" stroke-linejoin="round" stroke-width="2" d="M47.2692,19.3722a23.7827,23.7827,0,0,0-.359-2.7506"/>
    <path fill="none" stroke="#000" stroke-linecap="round" stroke-linejoin="round" stroke-width="2" d="M47.1948,19.3523H25.5506a1.0769,1.0769,0,0,0-1.1779.9325V23.42a1.0769,1.0769,0,0,0,1.1779.9325H47.1948a1.077,1.077,0,0,0,1.1779-.9325v-3.135A1.077,1.077,0,0,0,47.1948,19.3523Z"/>
    <path fill="none" stroke="#000" stroke-linecap="round" stroke-linejoin="round" stroke-width="2" d="M25.4762,19.3722c.5059-6.6438,5.8965-11.02,10.8965-11.02,6,0,9.0025,1.39,10.8816,2.3793,10.4928,5.524,8.7806,17.3451,7.9726,22.6407.05-.0038.0952-.02.1458-.02A1.9917,1.9917,0,0,1,57.1,34.3607a1.9833,1.9833,0,0,1,1.7271,2.9916A1.9832,1.9832,0,0,1,57.1,40.3438a1.9835,1.9835,0,0,1-3.4546,0,1.9833,1.9833,0,0,1-1.7271-2.9915,1.9913,1.9913,0,0,1-.01-2,1.9167,1.9167,0,0,1,.1933-.2494L51.0706,34.62"/>
    <path fill="none" stroke="#000" stroke-linecap="round" stroke-linejoin="round" stroke-width="2" d="M25.4762,19.3722c.5059-6.6438,5.8965-11.02,10.8965-11.02,6,0,9.0025,1.39,10.8816,2.3793,10.4928,5.524,8.7806,17.3451,7.9726,22.6407.05-.0038.0952-.02.1458-.02A1.9917,1.9917,0,0,1,57.1,34.3607a1.9833,1.9833,0,0,1,1.7271,2.9916A1.9832,1.9832,0,0,1,57.1,40.3438a1.9835,1.9835,0,0,1-3.4546,0,1.9833,1.9833,0,0,1-1.7271-2.9915,1.9913,1.9913,0,0,1-.01-2,1.9167,1.9167,0,0,1,.1933-.2494L51.0706,34.62"/>
    <path fill="none" stroke="#000" stroke-linecap="round" stroke-linejoin="round" stroke-width="2" d="M38.5818,59.9581v-5.225c5.8635-.3618,10.1308-2.969,11.6845-7.47"/>
    <path fill="none" stroke="#000" stroke-linecap="round" stroke-linejoin="round" stroke-width="2" d="M55.4807,59.9581c.9919-2.6744-.7759-14.7577-10.6416-13.8341a15.1321,15.1321,0,0,1-8.5644,3.5915l-1.004.0058a15.1117,15.1117,0,0,1-8.65-3.5973C16.7553,45.2,14.9876,57.2837,15.98,59.9581"/>
    <path fill="none" stroke="#000" stroke-linecap="round" stroke-linejoin="round" stroke-width="2" d="M21.1939,47.2627c1.5537,4.5014,5.8209,7.1086,11.6845,7.47v5.225"/>
    <path fill="none" stroke="#000" stroke-linecap="round" stroke-linejoin="round" stroke-width="2" d="M24.3727,23.42a14.2578,14.2578,0,0,1-5.2976,1.4325s.8181,3.2885,2.6488,4.2367c0,0,.3859,10.6864,7.3309,10.6864"/>
    <path fill="none" stroke="#000" stroke-linecap="round" stroke-linejoin="round" stroke-width="2" d="M48.381,23.42a14.258,14.258,0,0,0,5.2977,1.4325s-.8181,3.2885-2.6488,4.2367c0,0-.3859,10.6864-7.3309,10.6864"/>
  </g>
</svg>
