<svg id="emoji" viewBox="0 0 72 72" version="1.1" xmlns="http://www.w3.org/2000/svg">
  <g id="line">
    <path fill="none" stroke="#000000" stroke-linecap="round" stroke-linejoin="round" stroke-miterlimit="10" stroke-width="2" d="M26.1996,20.8672c-1.0332,2.1368-1.6278,4.6421-1.6278,7.321c0,7.8276,5.0765,14.1732,11.3386,14.1732 S47.249,36.0158,47.249,28.1882c0-2.6789-0.5946-5.1842-1.6278-7.321"/>
    <path d="M54.9104,57.8273c-0.5523,0-1-0.4477-1-1v-3c0-4.4516-4.4961-7.8105-8.6519-7.9921c-6.205,5.0117-12.4912,5.0117-18.6963,0 c-4.1557,0.1816-8.6518,3.5405-8.6518,7.9921v3c0,0.5523-0.4478,1-1,1c-0.5523,0-1-0.4477-1-1v-3 c0-5.3247,5.1401-9.9975,10.9995-10h0.0005c0.2339,0,0.4604,0.0821,0.6401,0.232c5.625,4.6875,11.0947,4.6875,16.7197,0 c0.1797-0.1499,0.4063-0.232,0.6402-0.232h0.0005c5.8593,0.0025,10.9995,4.6753,10.9995,10v3 C55.9104,57.3796,55.4626,57.8273,54.9104,57.8273z"/>
    <path d="M41.9105,26.8274c0,1.1045-0.8965,2-2,2s-2-0.8955-2-2c0-1.1035,0.8965-2,2-2S41.9105,25.7239,41.9105,26.8274"/>
    <path d="M33.9105,26.8274c0,1.1045-0.8965,2-2,2s-2-0.8955-2-2c0-1.1035,0.8965-2,2-2S33.9105,25.7239,33.9105,26.8274"/>
    <path d="M35.9104,36.8298c-1.1519,0-2.3037-0.2862-3.4473-0.8579c-0.4941-0.2471-0.6943-0.8477-0.4472-1.3418 c0.2465-0.4937,0.8461-0.6944,1.3418-0.4473c1.7177,0.8594,3.3876,0.8594,5.1054,0c0.4946-0.2471,1.0947-0.0464,1.3418,0.4473 c0.2471,0.4941,0.0469,1.0947-0.4472,1.3418C38.2141,36.5436,37.0622,36.8298,35.9104,36.8298z"/>
    <path fill="none" stroke="#000000" stroke-linecap="round" stroke-linejoin="round" stroke-miterlimit="10" stroke-width="2" d="M31.7225,6.9255"/>
    <path fill="none" stroke="#000000" stroke-linecap="round" stroke-linejoin="round" stroke-miterlimit="10" stroke-width="2" d="M26.5622,45.8352c0,0,3.6651,10.8583,20.1668,5.0964v5.8753"/>
    <circle cx="28.4105" cy="55.8273" r="1.5"/>
    <circle cx="43.4105" cy="55.8273" r="1.5"/>
    <path fill="none" stroke="#000000" stroke-linecap="round" stroke-linejoin="round" stroke-miterlimit="10" stroke-width="2" d="M26.1925,20.8672c-0.6529,1.3503-1.1307,2.8478-1.3939,4.4432l0.0644-0.361c0,0,3.2903,0.6195,8.457-3.7624"/>
    <path fill="none" stroke="#000000" stroke-linecap="round" stroke-linejoin="round" stroke-miterlimit="10" stroke-width="2" d="M45.4255,20.8672c0.6529,1.3503,1.1307,2.8478,1.3939,4.4432l-0.0644-0.361c0,0-3.2903,0.6195-8.4569-3.7624"/>
    <line x1="26.2746" x2="26.2746" y1="14.8468" y2="20.9035" fill="none" stroke="#000000" stroke-linecap="round" stroke-linejoin="round" stroke-miterlimit="10" stroke-width="2"/>
    <path fill="none" stroke="#000000" stroke-linecap="round" stroke-linejoin="round" stroke-miterlimit="10" stroke-width="2" d="M26.2746,20.9035h19.2715v-0.5621v-5.4946c2.209,0,4-1.7908,4-4c0-2.2091-1.791-4-4-4c-0.8757,0-1.6789,0.2894-2.3376,0.7666 c0.3247-0.5782,0.5254-1.2355,0.5254-1.9459c0-2.2091-1.7908-4-4-4c-1.8202,0-3.339,1.2234-3.8235,2.8873 c-0.4845-1.6639-2.0034-2.8873-3.8236-2.8873c-2.2091,0-4,1.7909-4,4c0,0.7103,0.2007,1.3677,0.5254,1.9459 c-0.6587-0.4773-1.4619-0.7666-2.3376-0.7666c-2.2092,0-4,1.7909-4,4c0,2.2092,1.7908,4,4,4"/>
  </g>
</svg>
