<?xml version="1.0" encoding="utf-8"?>
<!-- Generator: Adobe Illustrator 21.1.0, SVG Export Plug-In . SVG Version: 6.00 Build 0)  -->
<svg version="1.1" id="emoji" xmlns="http://www.w3.org/2000/svg" xmlns:xlink="http://www.w3.org/1999/xlink" x="0px" y="0px"
	 viewBox="0 0 72 72" enable-background="new 0 0 72 72" xml:space="preserve">
<g id="_xD83E__xDDD0_">
	<path fill="none" stroke="#000000" stroke-width="2" stroke-linecap="round" stroke-linejoin="round" stroke-miterlimit="10" d="
		M27.6,45.2c2.7-0.8,13.7,0.6,16.2,2.4"/>
	<path fill="none" stroke="#000000" stroke-width="2" stroke-linecap="round" stroke-linejoin="round" stroke-miterlimit="10" d="
		M20.1,21c1.5-1,3.3-1.5,5.1-1.2c1.8,0,3.5,0.8,4.8,2"/>
	<path fill="none" stroke="#000000" stroke-width="2" stroke-linecap="round" stroke-linejoin="round" stroke-miterlimit="10" d="
		M50.9,25.6c-2.8-2-6.2,0-9.5-0.3"/>
	<ellipse transform="matrix(0.1892 -0.9819 0.9819 0.1892 4.0604 70.6932)" cx="44.8" cy="32.9" rx="3" ry="3"/>
	<ellipse transform="matrix(0.1892 -0.9819 0.9819 0.1892 -8.0569 48.504)" cx="25.3" cy="29.1" rx="3" ry="3"/>
	<path fill="none" stroke="#000000" stroke-width="2" stroke-linecap="round" stroke-linejoin="round" stroke-miterlimit="10" d="
		M58.5,49.4c2.4-4,3.9-8.7,3.9-13.7C62.4,21,50.6,9.2,35.9,9.1C21.3,9.1,9.4,20.9,9.4,35.5c0,14.6,11.8,26.5,26.4,26.5
		c6,0,11.5-2,16-5.3"/>
	
		<circle fill="none" stroke="#000000" stroke-width="2" stroke-linecap="round" stroke-linejoin="round" stroke-miterlimit="10" cx="45" cy="29.6" r="10.9"/>
	<path fill="none" stroke="#000000" stroke-width="2" stroke-linecap="round" stroke-linejoin="round" stroke-miterlimit="10" d="
		M56.3,29.8c0,0,2.5,0.6,2.2,4.6s-4.1,9.2-4.1,9.2s-2.3,2.7-1.7,5c0.8,2.9,5,7.4,4.8,9.9"/>
</g>
</svg>
