<svg id="emoji" viewBox="0 0 72 72" xmlns="http://www.w3.org/2000/svg">
  <g id="line">
    <path d="M42.0105,28.5516a2,2,0,1,1-2-2,2.0007,2.0007,0,0,1,2,2"/>
    <path d="M34.0105,28.5516a2,2,0,1,1-2-2,2.0007,2.0007,0,0,1,2,2"/>
    <path d="M36.01,38.554a7.6528,7.6528,0,0,1-3.4473-.8579,1,1,0,0,1,.8945-1.7891,5.3774,5.3774,0,0,0,5.1055,0,1,1,0,1,1,.8945,1.7891A7.6524,7.6524,0,0,1,36.01,38.554Z"/>
    <path fill="none" stroke="#000" stroke-linecap="round" stroke-linejoin="round" stroke-width="2" d="M50.9578,24.1129C46.4844,10.4921,36.01,11.8916,36.01,11.8916S25.6572,10.5082,21.1412,23.878"/>
    <path fill="none" stroke="#000" stroke-linecap="round" stroke-linejoin="round" stroke-width="2" d="M25.4555,24.6987,14.138,23.0816s6.1889,9.7351,10.3663,8.6973"/>
    <path fill="none" stroke="#000" stroke-linecap="round" stroke-linejoin="round" stroke-width="2" d="M46.5652,24.7175l11.45-1.6359s-6.2678,9.8488-10.494,8.7989"/>
    <circle cx="36.0104" cy="22.1129" r="1.5"/>
    <path fill="none" stroke="#000" stroke-linecap="round" stroke-linejoin="round" stroke-width="2" d="M36.01,15.7392a20.4581,20.4581,0,0,1-3.08,5.0592"/>
    <path fill="none" stroke="#000" stroke-linecap="round" stroke-linejoin="round" stroke-width="2" d="M36.01,15.7392a20.4558,20.4558,0,0,0,3.08,5.0592"/>
    <polyline fill="none" stroke="#000" stroke-linecap="round" stroke-linejoin="round" stroke-width="2" points="18.082 52.072 18.082 42.506 25.167 42.506 25.167 46.071"/>
    <line x1="20.0159" x2="20.0159" y1="42.4677" y2="37.7245" fill="none" stroke="#000" stroke-linecap="round" stroke-linejoin="round" stroke-width="2"/>
    <line x1="23.3874" x2="23.3874" y1="42.5065" y2="39.0652" fill="none" stroke="#000" stroke-linecap="round" stroke-linejoin="round" stroke-width="2"/>
    <path fill="none" stroke="#000" stroke-linecap="round" stroke-linejoin="round" stroke-width="2" d="M54.9479,59.9124s2-13-10-13c-3.1919,2.1279-5.9264,3.5984-9,3.5921h.125c-3.0736.0063-5.8082-1.4642-9-3.5921-12,0-10,13-10,13"/>
    <path fill="none" stroke="#000" stroke-linecap="round" stroke-linejoin="round" stroke-width="2" d="M26.4333,24.51l-.9825.2293a17.29,17.29,0,0,0-.779,5.1733c0,7.8276,5.0765,14.1732,11.3386,14.1732S47.349,37.74,47.349,29.9124a17.29,17.29,0,0,0-.7791-5.1733l-.8123-.3239"/>
    <path fill="none" stroke="#000" stroke-linecap="round" stroke-linejoin="round" stroke-width="2" d="M46.5652,24.7175l11.45-1.6359s-6.2678,9.8488-10.494,8.7989"/>
    <path fill="none" stroke="#000" stroke-linecap="round" stroke-linejoin="round" stroke-width="2" d="M47.89,59.9691C29.3908,54.8333,27.0729,46.9124,27.0729,46.9124s-4.2.2046-5.6776,1.3537c3.1163,6.4287,5.69,8.6387,13.86,11.7689"/>
    <path fill="none" stroke="#000" stroke-linecap="round" stroke-linejoin="round" stroke-width="2" d="M19.6347,30.2912s-.06,3.717-2.7115,5.1447c-2.5417,1.4408-2.7524,4.5177-2.2435,7.0705.7479,3.5353.4079,5.7108-2.2435,8.0223-3.12,2.72-2.1923,7.7515-.9,9.3831"/>
    <path fill="none" stroke="#000" stroke-linecap="round" stroke-linejoin="round" stroke-width="2" d="M26.8294,21.54a6.5528,6.5528,0,0,0,6.0977,1.5354"/>
    <path fill="none" stroke="#000" stroke-linecap="round" stroke-linejoin="round" stroke-width="2" d="M45.19,21.54a6.5525,6.5525,0,0,1-6.0976,1.5354"/>
    <path fill="none" stroke="#000" stroke-linecap="round" stroke-linejoin="round" stroke-width="2" d="M52.2,30.2912s.06,3.717,2.7115,5.1447c2.5417,1.4408,2.7524,4.5177,2.2435,7.0705-.7478,3.5353-.4079,5.7108,2.2435,8.0223,3.12,2.72,2.1923,7.7515.9006,9.3831"/>
  </g>
</svg>
