<svg id="emoji" viewBox="0 0 72 72" version="1.1" xmlns="http://www.w3.org/2000/svg">
  <g id="line">
    <path d="M16.9082,58.9834c-0.4844,0-0.9102-0.3525-0.9863-0.8467c-0.041-0.2695-0.9727-6.6328,2.581-10.7754 c1.8809-2.1914,4.627-3.3261,8.166-3.375c0.3672-0.1035,0.7666,0.0235,1.0157,0.3116c3.0508,2.0175,5.5049,3.2656,8.1631,3.2783 c2.7226-0.0127,5.2294-1.3213,8.3828-3.4239c0.3886-0.2587,0.9052-0.2138,1.2441,0.1075c0.3379,0.3222,0.4092,0.8359,0.169,1.2373 c-1.6524,2.7705-7.2334,11.8652-9.6397,12.5625c-1.9541,0.5713-5.2012-3.4942-9.6621-12.0645 c-2.7637,0.1065-4.8857,1-6.3145,2.6612c-2.956,3.4365-2.1377,9.1201-2.1289,9.1777c0.083,0.5449-0.292,1.0547-0.8379,1.1387 C17.0098,58.9805,16.959,58.9834,16.9082,58.9834z M29.6025,47.7959c2.3633,4.1709,4.9024,7.9229,5.9258,8.3096 c0.9912-0.4873,3.6455-4.1123,6.2305-8.1358c-1.9512,0.9991-3.7979,1.5782-5.8047,1.6055c-0.0215,0.001-0.0449,0-0.0664,0.001 c-0.0078,0-0.0156,0-0.0234,0h-0.0332c-0.0157,0.0009-0.0323,0.0009-0.0479,0c-0.0146,0-0.0283,0-0.042-0.001 C33.6201,49.5469,31.6777,48.9004,29.6025,47.7959z"/>
    <path fill="none" stroke="#000000" stroke-linecap="round" stroke-linejoin="round" stroke-miterlimit="10" stroke-width="2" d="M57.2934,48.1898l-5.5,11.38c-0.44,0.91-1.47,1.45-2.43,1.17c-1.24-0.37-1.8-1.72-1.26-2.83l5.54-11.48"/>
    <path fill="none" stroke="#000000" stroke-linecap="round" stroke-linejoin="round" stroke-miterlimit="10" stroke-width="2" d="M56.4134,38.2698l-1.93-1.59c-1.52-0.74-3.36-0.1-4.09,1.43l-1.64,3.38c-0.74,1.53-0.1,3.36,1.43,4.1l2.52,0.54l0.96,0.21h0.02 l3.65,1.76l0.02,0.02l0.53,0.44l2.05,1.74c1.52,0.73,3.36,0.09,4.1-1.43l1.63-3.39c0.74-1.52,0.1-3.36-1.43-4.09l-2.54-0.51 l-0.8-0.16l-3.64-1.76L56.4134,38.2698z"/>
    <line x1="61.6534" x2="58.2434" y1="41.0798" y2="48.1298" fill="none" stroke="#000000" stroke-linecap="round" stroke-linejoin="round" stroke-miterlimit="10" stroke-width="2"/>
    <line x1="52.8334" x2="56.2434" y1="45.5198" y2="38.4698" fill="none" stroke="#000000" stroke-linecap="round" stroke-linejoin="round" stroke-miterlimit="10" stroke-width="2"/>
    <path fill="none" stroke="#000000" stroke-linecap="round" stroke-linejoin="round" stroke-miterlimit="10" stroke-width="2" d="M27.3079,58.845"/>
    <path d="M32.0244,54.6201c-0.208,0-0.417-0.0644-0.5967-0.1982c-0.4423-0.3301-0.5341-0.9571-0.2041-1.3994l3.7598-5.044 c0.1904-0.2558,0.4883-0.4053,0.8135-0.4023c0.3203,0.0039,0.6181,0.1601,0.8037,0.4209l3.3779,4.7597 c0.3194,0.4512,0.2139,1.0752-0.2363,1.3946c-0.4512,0.3203-1.0742,0.2129-1.3945-0.2364l-2.5821-3.6386l-2.9385,3.9414 C32.6309,54.4814,32.3301,54.6201,32.0244,54.6201z"/>
    <path fill="none" stroke="#000000" stroke-linecap="round" stroke-linejoin="round" stroke-miterlimit="10" stroke-width="2" d="M27.4414,25.171"/>
    <path d="M41.9529,27.0468c0,1.1046-0.8954,2-2,2s-2-0.8954-2-2s0.8954-2,2-2C41.0573,25.0472,41.9525,25.9424,41.9529,27.0468"/>
    <path d="M33.9529,27.0468c0,1.1046-0.8954,2-2,2s-2-0.8954-2-2s0.8954-2,2-2C33.0573,25.0472,33.9525,25.9424,33.9529,27.0468"/>
    <path d="M35.9527,37.0492c-1.2005-0.0116-2.3813-0.3055-3.4472-0.8579c-0.494-0.247-0.6943-0.8477-0.4473-1.3418 c0.247-0.4941,0.8477-0.6943,1.3418-0.4473c1.5934,0.8593,3.5121,0.8593,5.1055,0c0.494-0.247,1.0947-0.0468,1.3418,0.4473 s0.0468,1.0947-0.4473,1.3418C38.3341,36.7437,37.1532,37.0376,35.9527,37.0492z"/>
    <path fill="none" stroke="#000000" stroke-linecap="round" stroke-linejoin="round" stroke-width="2" d="M26,36.5808c-4,0-4-6-4-13 s4-14,14-14s14,7,14,14s0,13-4,13"/>
    <path fill="none" stroke="#000000" stroke-linejoin="round" stroke-width="2" d="M24.9365,28.5808c0,9,4.9365,14,11,14 c5.9365,0,11.0635-5,11.0635-14c0.0245-1.7187-0.3164-3.4229-1-5c-3-3-7-8-7-8c-4,3-7,6-13,7.0005 C26,22.5808,24.9365,23.58,24.9365,28.5808z"/>
  </g>
</svg>
