<svg version="1.1" id="emoji" xmlns="http://www.w3.org/2000/svg" x="0" y="0" viewBox="0 0 72 72" enable-background="new 0 0 72 72" xml:space="preserve">
  <g id="line">
    <path d="M41.9175,27.0771c0,1.1045-0.8965,2-2,2s-2-0.8955-2-2c0-1.1035,0.8965-2,2-2S41.9175,25.9736,41.9175,27.0771"/>
    <path d="M33.9175,27.0771c0,1.1045-0.8965,2-2,2s-2-0.8955-2-2c0-1.1035,0.8965-2,2-2S33.9175,25.9736,33.9175,27.0771"/>
    <path d="M35.9174,37.0795c-1.1519,0-2.3037-0.2861-3.4473-0.8579c-0.4941-0.2471-0.6943-0.8477-0.4472-1.3418 c0.2465-0.4937,0.8461-0.6943,1.3417-0.4473c1.7178,0.8594,3.3877,0.8594,5.1055,0c0.4946-0.247,1.0947-0.0464,1.3418,0.4473 c0.2471,0.4941,0.0469,1.0947-0.4473,1.3418C38.2211,36.7934,37.0692,37.0795,35.9174,37.0795z"/>
    <path fill="none" stroke="#000000" stroke-width="2" stroke-linecap="round" stroke-linejoin="round" stroke-miterlimit="10" d="M50.8648,22.6384C46.3914,9.0176,35.9174,10.4171,35.9174,10.4171S25.5642,9.0337,21.0482,22.4035"/>
    <path fill="none" stroke="#000000" stroke-width="2" stroke-linecap="round" stroke-linejoin="round" stroke-miterlimit="10" d="M28.6087,21.3236"/>
    <path fill="none" stroke="#000000" stroke-width="2" stroke-linecap="round" stroke-linejoin="round" stroke-miterlimit="10" d="M26.7371,20.0717c1.1968,1.0863,3.1987,2.1856,6.0977,1.5354"/>
    <path fill="none" stroke="#000000" stroke-width="2" stroke-linecap="round" stroke-linejoin="round" stroke-miterlimit="10" d="M45.0976,20.0717C43.9009,21.158,41.899,22.2573,39,21.6071"/>
    <circle cx="35.9174" cy="20.6384" r="1.5"/>
    <path fill="none" stroke="#000000" stroke-width="2" stroke-linecap="round" stroke-linejoin="round" stroke-miterlimit="10" d="M25.3625,23.2242L14.045,21.6071c0,0,6.1889,9.7351,10.3663,8.6973"/>
    <path fill="none" stroke="#000000" stroke-width="2" stroke-linecap="round" stroke-linejoin="round" stroke-miterlimit="10" d="M35.9174,14.2647c0,0-1.0389,2.6388-3.0801,5.0592"/>
    <path fill="none" stroke="#000000" stroke-width="2" stroke-linecap="round" stroke-linejoin="round" stroke-miterlimit="10" d="M46.4722,23.243l11.4497-1.6359c0,0-6.2678,9.8488-10.494,8.7989"/>
    <path fill="none" stroke="#000000" stroke-width="2" stroke-linecap="round" stroke-linejoin="round" stroke-miterlimit="10" d="M35.9174,14.2647c0,0,1.0388,2.6388,3.08,5.0592"/>
    <line fill="none" stroke="#000000" stroke-width="2" stroke-linecap="round" stroke-linejoin="round" stroke-miterlimit="10" x1="51.1171" y1="29.5217" x2="51.1171" y2="43.0244"/>
    <polyline fill="none" stroke="#000000" stroke-width="2" stroke-linecap="round" stroke-linejoin="round" stroke-miterlimit="10" points="17.9887,50.5971 17.9887,41.032 25.0737,41.032 25.0737,44.5966"/>
    <line fill="none" stroke="#000000" stroke-width="2" stroke-linecap="round" stroke-linejoin="round" stroke-miterlimit="10" x1="19.9229" y1="40.9932" x2="19.9229" y2="36.25"/>
    <line fill="none" stroke="#000000" stroke-width="2" stroke-linecap="round" stroke-linejoin="round" stroke-miterlimit="10" x1="23.2944" y1="41.032" x2="23.2944" y2="37.5907"/>
    <path fill="none" stroke="#000000" stroke-width="2" stroke-linecap="round" stroke-linejoin="round" stroke-miterlimit="10" d="M28.232,23.2646"/>
    <path fill="none" stroke="#000000" stroke-width="2" stroke-linecap="round" stroke-linejoin="round" stroke-miterlimit="10" d="M54.8549,58.4379c0,0,2-13-10-13c-3.1919,2.1279-5.9264,3.5984-9,3.5921h0.125c-3.0736,0.0063-5.8082-1.4642-9-3.5921 c-12,0-10,13-10,13"/>
    <path fill="none" stroke="#000000" stroke-width="2" stroke-linecap="round" stroke-linejoin="round" stroke-miterlimit="10" d="M26.3403,23.0353l-0.9825,0.2293c-0.5029,1.6027-0.779,3.3477-0.779,5.1733c0,7.8276,5.0765,14.1732,11.3386,14.1732 S47.256,36.2655,47.256,28.4379c0-1.8256-0.2762-3.5706-0.7791-5.1733l-0.8123-0.3239"/>
    <path fill="none" stroke="#000000" stroke-width="2" stroke-linecap="round" stroke-linejoin="round" stroke-miterlimit="10" d="M46.4722,23.243l11.4497-1.6359c0,0-6.2678,9.8488-10.494,8.7989"/>
    <line fill="none" stroke="#000000" stroke-width="2" stroke-linecap="round" stroke-linejoin="round" stroke-miterlimit="10" x1="19.848" y1="28.8217" x2="19.848" y2="31.9898"/>
    <path fill="none" stroke="#000000" stroke-width="2" stroke-linecap="round" stroke-linejoin="round" stroke-miterlimit="10" d="M47.7967,58.4946c-18.4989-5.1358-20.8168-13.0567-20.8168-13.0567s-4.2004,0.2046-5.6776,1.3537 c3.1163,6.4287,5.6897,8.6387,13.8595,11.7689"/>
  </g>
</svg>
