<svg id="emoji" viewBox="0 0 72 72" version="1.1" xmlns="http://www.w3.org/2000/svg">
  <g id="line">
    <path fill="none" stroke="#000000" stroke-linejoin="round" stroke-width="2" d="M25,30.9341c0,8,5,14,11,14s11-6,11-14 c0-5-2-8-6-12c-4,4-16,9-16,11L25,30.9341z"/>
    <path fill="none" stroke="#000000" stroke-linecap="round" stroke-linejoin="round" stroke-width="2" d="M17.2483,39.1383 c0.4948-2.4807,1.7853-4.7854,2.7268-7.2042c1.6357-4.2-0.209-6.4512,1.291-12.0342c1.4795-5.5,7.2773-8.9658,13.709-8.9658 c5.4,0,8,3,8,3c4.169,0.374,7.373,3.8515,7.4052,8.0371c0.3867,7.18,1.0244,7.1523,3.4287,12.8222 c0.5667,1.3101,0.8863,2.7137,0.9427,4.14"/>
    <path fill="none" stroke="#000000" stroke-linejoin="round" stroke-width="2" d="M26.5,39.4H13.4 c1.6694,2.6727,3.1079,5.4829,4.3,8.4c0.5072,1.2402,0.9413,2.509,1.3,3.8"/>
    <path fill="none" stroke="#000000" stroke-linejoin="round" stroke-width="2" d="M53,51.4c0.4-1.2,0.8-2.4,1.3-3.6 c1.1713-2.9266,2.6108-5.7385,4.3-8.4H44.7"/>
    <path d="M42,30.1c0,1.1046-0.8954,2-2,2s-2-0.8954-2-2s0.8954-2,2-2C41.1032,28.1032,41.9968,28.9968,42,30.1"/>
    <path d="M34,30.1c0,1.1046-0.8954,2-2,2c-1.1046,0-2-0.8954-2-2s0.8954-2,2-2C33.1032,28.1032,33.9968,28.9968,34,30.1"/>
    <path fill="none" stroke="#000000" stroke-linecap="round" stroke-linejoin="round" stroke-width="2" d="M33,39 c1.875-1,4.125-1,6,0"/>
    <path fill="none" stroke="#000000" stroke-linecap="round" stroke-linejoin="round" d="M38,38.5 c0.2408,0.0816,0.4748,0.1819,0.7,0.3"/>
    <path fill="none" stroke="#000000" stroke-linecap="round" stroke-linejoin="round" stroke-width="2" d="M17,60v-3c0-5,5-9,10-9 c6,5,12,5,18,0c5,0,10,4,10,9v3"/>
    <polygon stroke="#000000" stroke-linecap="round" stroke-linejoin="round" points="34,38.7 34.3,41.1 35.1,38.8 35,38.7"/>
    <polygon stroke="#000000" stroke-linecap="round" stroke-linejoin="round" points="37.9,38.7 37.7,41.1 36.9,38.8 36.8,38.7"/>
  </g>
</svg>
