<svg id="emoji" viewBox="0 0 72 72" version="1.1" xmlns="http://www.w3.org/2000/svg">
  <g id="line">
    <path fill="none" stroke="#000000" stroke-linecap="round" stroke-linejoin="round" stroke-width="2" d="M18.8,46.6 c-3.7-5.9-0.6-10.1,1.2-14.7c1.6-4.2-0.2-6.5,1.3-12s7.3-9,13.7-9c5.4,0,8,3,8,3c4.1708,0.3386,7.387,3.8155,7.4,8 c0.4,7.2,1,7.2,3.4,12.8c1.667,3.8686,1.1327,8.3339-1.4,11.7"/>
    <path fill="none" stroke="#000000" stroke-linecap="round" stroke-linejoin="round" stroke-width="2" d="M17,59.9v-3c0-5,5-9,10-9 c6,5,12,5,18,0c5,0,10,4,10,9v3"/>
    <path d="M42,29.3c0,1.1046-0.8954,2-2,2s-2-0.8954-2-2s0.8954-2,2-2C41.1032,27.3032,41.9968,28.1968,42,29.3"/>
    <path d="M34,29.3c0,1.1046-0.8954,2-2,2c-1.1046,0-2-0.8954-2-2s0.8954-2,2-2C33.1032,27.3032,33.9968,28.1968,34,29.3"/>
    <path fill="none" stroke="#000000" stroke-linejoin="round" stroke-width="2" d="M47,30.9c0-5-2-8-6-12c-4,4-16,9-16,11v1"/>
    <path d="M39.9,36.5c0.2165,0.4972-0.0061,1.0761-0.5,1.3c-1.0802,0.5583-2.2845,0.8336-3.5,0.8 c-1.1781-0.0154-2.3386-0.2885-3.4-0.8c-0.4939-0.2239-0.7165-0.8028-0.5-1.3c0.1662-0.4582,0.6724-0.6948,1.1306-0.5286 C33.1541,35.98,33.1773,35.9895,33.2,36c0.1,0,0.1,0,0.1,0.1c1.5809,0.9,3.5191,0.9,5.1,0 C38.9269,35.8138,39.5856,35.9895,39.9,36.5z"/>
    <path fill="none" stroke="#000000" stroke-linecap="round" stroke-linejoin="round" stroke-width="2" d="M24.9,31 c-0.2,3.1-0.3,6.6,1.2,9.3c0.5866,0.9827,1.2919,1.8896,2.1,2.7c2.0576,1.7465,4.7048,2.6408,7.4,2.5"/>
    <path fill="none" stroke="#000000" stroke-linecap="round" stroke-linejoin="round" stroke-width="2" d="M47,31 c-0.2804,1.4441-0.9357,2.7891-1.9,3.9c0,0-1.9,3-2.7-1.2c-4.2842-1.2-8.8158-1.2-13.1,0c-0.8,4.2-2.7,1.2-2.7,1.2 c-0.7775-1.1859-1.3207-2.5097-1.6-3.9"/>
    <path fill="none" stroke="#000000" stroke-linecap="round" stroke-linejoin="round" stroke-width="2" d="M47,31.4 c0.3271,3.0586-0.2281,6.1469-1.6,8.9c-0.5204,1.0263-1.2333,1.943-2.1,2.7c-2.0255,1.8025-4.6964,2.7048-7.4,2.5h-0.3"/>
  </g>
</svg>
