<svg id="emoji" viewBox="0 0 72 72" version="1.1" xmlns="http://www.w3.org/2000/svg">
  <g id="line">
    <path fill="none" stroke="#000000" stroke-linecap="round" stroke-linejoin="round" stroke-width="2" d="M19.0858,25.8L16.9,31.4 c-0.3115,0.5831-0.3832,1.2648-0.2,1.9L19.5,44c0.0564,0.1933,0.2588,0.3043,0.4521,0.2479C20.0717,44.213,20.1651,44.1195,20.2,44 l0.2-7.7c0.0103-0.473,0.0775-0.943,0.2-1.4"/>
    <path fill="none" stroke="#000000" stroke-linecap="round" stroke-linejoin="round" stroke-width="2" d="M26.9,17.5 c-0.4245,1.0967-0.7263,2.2369-0.9,3.4l0,0l-12,4.9h44l-11.9-4.9c-0.2-4.3-2.2-11.3-10.9-11.6C22.2,9.3,20,22.8,20,22.8"/>
    <path fill="none" stroke="#000000" stroke-linecap="round" stroke-linejoin="round" stroke-width="2" d="M53.3683,40.59 c-2.5437-1.0747-3.7346-4.008-2.6599-6.5517s4.008-3.7346,6.5517-2.6599s3.7346,4.008,2.6599,6.5517 c-0.4479,1.0601-1.2477,1.9332-2.2646,2.4721"/>
    <polyline fill="none" stroke="#000000" stroke-linecap="round" stroke-linejoin="round" stroke-width="2" points="57.314,60.051 57.314,40.605 53.314,40.605 53.314,60.051"/>
    <path fill="none" stroke="#000000" stroke-linecap="round" stroke-linejoin="round" stroke-width="2" d="M46.4401,48.109 c2.7065,0.407,5.2719,1.9246,6.8759,4.0597"/>
    <path fill="none" stroke="#000000" stroke-linecap="round" stroke-linejoin="round" stroke-width="2" d="M17,60v-3 c0-4.5823,4.2159-8.3326,8.7675-8.92"/>
    <path d="M42,29.9c0,1.1-0.9,2-2,2s-2-0.9-2-2s0.9-2,2-2S42,28.8,42,29.9"/>
    <path d="M34,29.9c0,1.1-0.9,2-2,2c-1.1,0-2-0.9-2-2s0.9-2,2-2C33.1,27.9,34,28.8,34,29.9"/>
    <path fill="none" stroke="#000000" stroke-linecap="round" stroke-linejoin="round" stroke-width="2" d="M33,38.1c1.9,1,4.1,1,6,0"/>
    <path fill="none" stroke="#000000" stroke-linecap="round" stroke-linejoin="round" stroke-width="2" d="M35.7577,54.3964 c13.4215-9.6934,13.0943-22.1473,11.7-27.5827h-1.7c0,0,1.5809,7.897-9.7577,7.897s-9.496-7.897-9.496-7.897h-1.7463 C23.1558,31.5588,22.3608,42.4881,35.7577,54.3964z"/>
  </g>
</svg>
