<svg id="emoji" viewBox="0 0 72 72" xmlns="http://www.w3.org/2000/svg">
  <g id="line">
    <path fill="none" stroke="#000" stroke-linecap="round" stroke-linejoin="round" stroke-width="2.0071" d="M48.5088,53.7865c.244,1.6308,1.0284,2.3372,2.1734,2.3372"/>
    <g>
      <path fill="none" stroke="#000" stroke-linecap="round" stroke-linejoin="round" stroke-width="2.0071" d="M50.6822,56.1237c1.2071,0,2.01-1.1816,2.01-2.957,0,0-.5541-10.2185-.744-12.6678s-2.3424-3.947-5.7334-3.947"/>
      <path fill="none" stroke="#000" stroke-linecap="round" stroke-linejoin="round" stroke-width="2.0071" d="M26.5745,47.0927a5.5436,5.5436,0,1,0,5.6149-5.4715h0"/>
      <path fill="none" stroke="#000" stroke-linecap="round" stroke-linejoin="round" stroke-width="2.0071" d="M30.283,31.7h1.6041a14.0754,14.0754,0,0,1,7.4462,2.0607l-.5987-4.255-.5986-3.922a2.965,2.965,0,0,0-2.46-2.6594L31.45,22.3922c-1.6617-.1993-2.7878.05-3.2576.9971l-3.2958,7.4548a1.2455,1.2455,0,0,0-.1064.5034v7.3081c0,1.5228.7282,2.1783,1.69,2.1783"/>
      <circle cx="34.2541" cy="15.736" r="3.5559" fill="none" stroke="#000" stroke-linecap="round" stroke-linejoin="round" stroke-width="2.0071"/>
      <path fill="none" stroke="#000" stroke-linecap="round" stroke-linejoin="round" stroke-width="2.0071" d="M22.4973,39.5367a12.2851,12.2851,0,1,0,7.4935-4.382"/>
    </g>
  </g>
</svg>
