<svg id="emoji" viewBox="0 0 72 72" version="1.1" xmlns="http://www.w3.org/2000/svg">
  <g id="line" transform="matrix(-1 0 0 1 68.04 0)" fill="none" stroke="#000" stroke-width="2">
    <circle cx="33.919" cy="9.8664" r="2.8598" stroke-miterlimit="10"/>
    <path stroke-linecap="round" stroke-linejoin="round" d="m55.558 6.9112-5.72 3.7178c-1.0614 0.66568-2.1776 1.2397-3.3364 1.7159l-3.5271 1.3345c-0.9533 0.3813-2.5739 0.9533-3.6225 1.2393-5.2482 1.555-3.5975 1.1868-5.7679 1.6488l-3.3879 0.46938c-1.246 0.13105-4.2134 0.02394-5.4636-0.05814l-9.0822-0.89397"/>
    <path stroke-linecap="round" stroke-linejoin="round" d="m15.379 27.433 1.4695-3.5921m-4.3766 2.4375-1.7589-0.68021c-0.91984-0.26297-1.4748-1.1979-1.2651-2.1313 0.22626-0.78241 1.2545-1.2051 2.3801-0.96084l2.0022 0.56789m6.1867 1.5778 3.0689 0.77344c1.2351 0.28543 2.4921 0.4664 3.7577 0.54096l7.7416 0.29938c1.0296 0.05394 2.726 0.01081 3.6034-0.04949 1.0487-0.22995-0.86994-5.4256-1.838-6.9681m9.3379 35.146-3.9944 1.47e-4m-0.24583-2.8462-0.09257-2.0258c-0.0953-1.0486-0.3813-2.7645-0.572-3.8131-0.72399-3.4279-1.3788-6.8762-2.1346-10.295l-10.603-3.0838c-0.99219-0.26372-2.5103-0.71814-3.5221-1.1153l-6.1295-2.5363m23.557 28.5 0.16654 3.1149c0.0953 1.0486 0.7626 1.9065 1.5253 1.9065 0.925-0.14533 1.5865-0.97216 1.5252-1.9065l0.25041-3.1005m0.50318-5.8562 0.19971-3.4358c0.0953-1.0486 0.0953-2.7645 0.0953-3.8131v-10.486c0-1.0486-0.0953-2.7645-0.0953-3.8131l-0.6673-9.5327c-0.17576-1.1895-0.66986-2.3094-1.43-3.2411l-2.4785-2.5738"/>
  </g>
</svg>
