<svg id="emoji" viewBox="0 0 72 72" xmlns="http://www.w3.org/2000/svg">
  <g id="line">
    <g>
      <path fill="none" stroke="#000" stroke-linejoin="round" stroke-width="2" d="M26.5,39.4H13.4a55.4575,55.4575,0,0,1,4.3,8.4A34.2751,34.2751,0,0,1,19,51.6"/>
      <path fill="none" stroke="#000" stroke-linejoin="round" stroke-width="2" d="M53,51.4c.4-1.2.8-2.4,1.3-3.6a51.1306,51.1306,0,0,1,4.3-8.4H44.7"/>
      <path d="M41.6,30.1a2,2,0,1,1-2-2,2.0059,2.0059,0,0,1,2,2"/>
      <path d="M33.6,30.1a2,2,0,1,1-2-2,2.0059,2.0059,0,0,1,2,2"/>
      <path fill="none" stroke="#000" stroke-linecap="round" stroke-linejoin="round" stroke-width="2" d="M32.6,39a6.375,6.375,0,0,1,6,0"/>
      <path fill="none" stroke="#000" stroke-linecap="round" stroke-linejoin="round" d="M38,38.5a4.8752,4.8752,0,0,1,.7.3"/>
      <path fill="none" stroke="#000" stroke-linecap="round" stroke-linejoin="round" stroke-width="2" d="M17.1,60.1v-3c0-5,5-9,10-9q9,7.5,18,0c5,0,10,4,10,9v3"/>
      <g>
        <polygon stroke="#000" stroke-linecap="round" stroke-linejoin="round" points="33.6 38.7 33.9 41.1 34.7 38.8 34.6 38.7 33.6 38.7"/>
        <polygon stroke="#000" stroke-linecap="round" stroke-linejoin="round" points="37.5 38.7 37.3 41.1 36.5 38.8 36.4 38.7 37.5 38.7"/>
      </g>
    </g>
    <path fill="none" stroke="#000" stroke-linejoin="round" stroke-width="2" d="M24.6,31.1c0,9,4.9,14,11,14,5.9,0,11.1-5,11.1-14a12.1332,12.1332,0,0,0-1-5c-3-3-7-8-7-8-4,3-7,6-13,7C25.7,25.1,24.6,26.1,24.6,31.1Z"/>
    <path d="M33.6,30.1a2,2,0,1,1-2-2,2.0059,2.0059,0,0,1,2,2"/>
    <path d="M41.6,30.1a2,2,0,1,1-2-2,2.0059,2.0059,0,0,1,2,2"/>
    <path fill="none" stroke="#000" stroke-linecap="round" stroke-linejoin="round" stroke-width="2" d="M25.7,39.1c-4,0-4-6-4-13s4-14,14-14,14,7,14,14,0,13-4,13"/>
  </g>
</svg>
