<svg id="emoji" viewBox="0 0 72 72" version="1.1" xmlns="http://www.w3.org/2000/svg">
  <g id="line">
    <path fill="none" stroke="#000000" stroke-linecap="round" stroke-linejoin="round" stroke-width="2" d="M54.3448,36.2334 c-0.1387-0.4879-0.3092-0.9661-0.5105-1.4316c-2.4043-5.67-3.042-5.6426-3.4287-12.8223 c-0.0322-4.1856-3.2362-7.6631-7.4052-8.0371c0,0-2.6-3-8-3c-6.4317,0-12.23,3.4658-13.709,8.9658 c-1.5,5.583,0.3447,7.834-1.291,12.0342c-0.622,1.5982-1.3964,3.1465-1.993,4.7286"/>
    <path d="M42.0003,29.9424c0,1.1046-0.8954,2-2,2s-2-0.8954-2-2s0.8954-2,2-2S42.0003,28.8378,42.0003,29.9424"/>
    <path d="M34.0003,29.9424c0,1.1046-0.8954,2-2,2c-1.1046,0-2-0.8954-2-2s0.8954-2,2-2 C33.1049,27.9424,34.0003,28.8378,34.0003,29.9424"/>
    <path fill="none" stroke="#000000" stroke-linejoin="round" stroke-width="2" d="M25.0003,30.9424c0,8,5,14,11,14s11-6,11-14 c0-5-2-8-6-12c-4,4-16,9-16,11V30.9424z"/>
    <path fill="none" stroke="#000000" stroke-linecap="round" stroke-linejoin="round" stroke-width="2" d="M33.0003,38.1924 c1.875,1,4.125,1,6,0"/>
    <path fill="none" stroke="#000000" stroke-linecap="round" stroke-linejoin="round" stroke-width="2" d="M37.7929,51.4488 c1.0309-2.496,2.4667-4.8047,4.2495-6.8331c1.983-2.2291,2.9034-2.25,16.8669-10.2481c2.2246-1.2743,4.0655-2.3206,5.3082-3.0253 c-0.2364,1.0767-0.5789,2.685-0.9563,4.6577"/>
    <path fill="none" stroke="#000000" stroke-linecap="round" stroke-linejoin="round" stroke-width="2" d="M59.1293,58.7552 c0.0972-0.1878,0.7619-1.5115,0.9072-1.88c0.4825-1.1863,0.8064-2.4301,0.9641-3.6992"/>
    <path fill="none" stroke="#000000" stroke-linecap="round" stroke-linejoin="round" stroke-width="2" d="M13.0155,58.7552 c-0.0973-0.1878-0.7619-1.5115-0.9072-1.88c-1.5871-4.025-0.647-6.9374-3.0149-19.7594c-0.4587-2.4838-0.8866-4.5-1.1662-5.7736 c1.2428,0.7047,3.0837,1.751,5.3083,3.0253c13.9634,7.998,14.8839,8.019,16.8668,10.2481c1.7273,1.9632,3.1284,4.1908,4.15,6.5979"/>
    <line x1="59.4341" x2="51.0052" y1="47.742" y2="61.8825" fill="none" stroke="#000000" stroke-linecap="round" stroke-linejoin="round" stroke-width="2"/>
    <polygon fill="none" stroke="#000000" stroke-linecap="round" stroke-linejoin="round" stroke-width="2" points="61.9508,50.163 59.7998,46.514 55.5748,46.218 58.3798,43.045 57.3558,38.935 61.2408,40.622 64.8328,38.378 64.4288,42.594 67.6728,45.317 63.5388,46.236"/>
    <path fill="none" stroke="#000000" stroke-linecap="round" stroke-linejoin="round" stroke-width="2" d="M17.0763,60.0683v-3 c0-4.9941,5.0078-9,10-9c6,5,12,5,18,0c3.1629,0.0432,6.1254,1.4887,8.1051,3.915"/>
    <path fill="none" stroke="#000000" stroke-linecap="round" stroke-linejoin="round" stroke-width="2" d="M24.41,48.6432 c0,0,0.7355,1.17,0.6871,5.6669C25.0825,55.6629,24.8979,58.0521,24.7,60"/>
    <path fill="none" stroke="#000000" stroke-linecap="round" stroke-linejoin="round" stroke-width="2" d="M47.5908,48.4047 c0,0-0.7422,1.4085-0.6938,5.9054c0.0146,1.3528,0.1992,3.742,0.3971,5.6899"/>
  </g>
</svg>
