<svg id="emoji" viewBox="0 0 72 72" version="1.1" xmlns="http://www.w3.org/2000/svg">
  <g id="line">
    <path d="M16.917,58.9189c-0.4844,0.001-0.9102-0.3525-0.9863-0.8466c-0.0411-0.2696-0.9727-6.6328,2.581-10.7754 c1.9229-2.2412,4.751-3.377,8.4072-3.377c0.1973,0,0.3907,0.0586,0.5547,0.168c3.1631,2.1084,5.6758,3.418,8.4053,3.4238h0.04 c0.5518,0,0.9991,0.4473,1,0.999c0.001,0.5518-0.4462,1-0.998,1.001c-0.001,0-0.001,0-0.002,0H35.916 c-0.0107-0.001-0.0254-0.001-0.0381,0h-0.084c-0.0146,0-0.0302,0-0.0449-0.001c-3.0986-0.0419-5.8164-1.4023-9.1269-3.5878 c-2.8965,0.0566-5.1104,0.9541-6.586,2.6689c-2.956,3.4365-2.1377,9.1201-2.1289,9.1777c0.083,0.545-0.292,1.0547-0.8379,1.1387 C17.0186,58.916,16.9678,58.9189,16.917,58.9189z"/>
    <path d="M33.9961,55.2832c-0.294,0-0.584-0.1279-0.7813-0.375l-7.2646-9.0713c-0.3457-0.4306-0.2764-1.0605,0.1553-1.4053 c0.4326-0.3486,1.0615-0.2753,1.4052,0.1553l7.2647,9.0713c0.3457,0.4307,0.2764,1.0606-0.1553,1.4053 C34.4355,55.2119,34.2148,55.2832,33.9961,55.2832z"/>
    <path d="M33.0068,57.3555c-0.0742,0-0.1494-0.0078-0.2255-0.0254l-4.8975-1.127c-0.2686-0.0615-0.499-0.2314-0.6387-0.4697 c-0.1387-0.2373-0.1738-0.5225-0.0967-0.7861l0.458-1.5606h-3.2373c-0.2509,0-0.4921-0.0947-0.6767-0.2637 c-1.4043-1.2919-1.6201-2.6455-1.5537-3.5546c0.2129-2.9268,3.459-5.2227,3.8281-5.4746c0.4551-0.3116,1.0762-0.1934,1.3877,0.2617 c0.3115,0.455,0.1953,1.0771-0.2598,1.3896c-0.7832,0.5381-2.8427,2.3008-2.9619,3.9717c-0.042,0.5918,0.1709,1.1406,0.6504,1.6699 h4.1592c0.3154,0,0.6113,0.1485,0.8008,0.4004c0.1884,0.2529,0.247,0.5791,0.1591,0.8809l-0.5351,1.8242l3.8633,0.8887 c0.5381,0.124,0.874,0.6601,0.75,1.1992C33.874,57.042,33.4619,57.3555,33.0068,57.3555z"/>
    <polygon fill="none" stroke="#000000" stroke-linecap="round" stroke-linejoin="round" stroke-miterlimit="10" stroke-width="2" points="35.1467,59.7725 60.1367,59.7725 67.0867,43.4225 42.0967,43.4225"/>
    <line x1="24.1767" x2="35.1467" y1="59.7725" y2="59.7725" fill="none" stroke="#000000" stroke-linecap="round" stroke-linejoin="round" stroke-miterlimit="10" stroke-width="2"/>
    <path fill="none" stroke="#000000" stroke-linecap="round" stroke-linejoin="round" stroke-miterlimit="10" stroke-width="2" d="M27.4414,25.171"/>
    <path d="M41.9529,27.0468c0,1.1046-0.8954,2-2,2s-2-0.8954-2-2s0.8954-2,2-2C41.0573,25.0472,41.9525,25.9424,41.9529,27.0468"/>
    <path d="M33.9529,27.0468c0,1.1046-0.8954,2-2,2s-2-0.8954-2-2s0.8954-2,2-2C33.0573,25.0472,33.9525,25.9424,33.9529,27.0468"/>
    <path d="M35.9527,37.0492c-1.2005-0.0116-2.3813-0.3055-3.4472-0.8579c-0.494-0.247-0.6943-0.8477-0.4473-1.3418 c0.247-0.4941,0.8477-0.6943,1.3418-0.4473c1.5934,0.8593,3.5121,0.8593,5.1055,0c0.494-0.247,1.0947-0.0468,1.3418,0.4473 s0.0468,1.0947-0.4473,1.3418C38.3341,36.7437,37.1532,37.0376,35.9527,37.0492z"/>
    <path fill="none" stroke="#000000" stroke-linecap="round" stroke-linejoin="round" stroke-width="2" d="M26,36.5808c-4,0-4-6-4-13 s4-14,14-14s14,7,14,14s0,13-4,13"/>
    <path fill="none" stroke="#000000" stroke-linejoin="round" stroke-width="2" d="M24.9365,28.5808c0,9,4.9365,14,11,14 c5.9365,0,11.0635-5,11.0635-14c0.0245-1.7187-0.3164-3.4229-1-5c-3-3-7-8-7-8c-4,3-7,6-13,7.0005 C26,22.5808,24.9365,23.58,24.9365,28.5808z"/>
    <path d="M41.4707,32.668h-2.0078c-1.5479,0-2.8828-0.9258-3.4815-2.253c-0.5976,1.3272-1.9335,2.253-3.4804,2.253h-2.0078 c-2.1045,0-3.8164-1.7119-3.8164-3.8164v-1.2378h-0.6924c-0.5528,0-1-0.4478-1-1c0-0.5523,0.4472-1,1-1h1.6924 c0.5527,0,1,0.4477,1,1v2.2378c0,1.0019,0.8144,1.8164,1.8164,1.8164h2.0078c1.001,0,1.8154-0.8145,1.8154-1.8164v-1.104 c0-0.5523,0.4473-1,1-1h1.3301c0.5527,0,1,0.4477,1,1v1.104c0,1.0019,0.8144,1.8164,1.8164,1.8164h2.0078 c1.001,0,1.8154-0.8145,1.8154-1.8164v-2.2378c0-0.5523,0.4473-1,1-1h1.1573c0.5527,0,1,0.4477,1,1c0,0.5522-0.4473,1-1,1h-0.1573 v1.2378C45.2861,30.9561,43.5742,32.668,41.4707,32.668z"/>
    <path fill="none" stroke="#000000" stroke-linecap="round" stroke-linejoin="round" stroke-miterlimit="10" stroke-width="2" d="M34.0178,18.9722"/>
  </g>
</svg>
