<?xml version="1.0" encoding="utf-8"?>
<!-- Generator: Adobe Illustrator 21.1.0, SVG Export Plug-In . SVG Version: 6.00 Build 0)  -->
<svg version="1.1" id="emoji" xmlns="http://www.w3.org/2000/svg" xmlns:xlink="http://www.w3.org/1999/xlink" x="0px" y="0px"
	 viewBox="0 0 72 72" enable-background="new 0 0 72 72" xml:space="preserve">
<g id="_xD83E__xDDD4_">
	<path fill="none" stroke="#000000" stroke-width="2" stroke-linecap="round" stroke-linejoin="round" stroke-miterlimit="10" d="
		M16.9,57.9c0,0-2-13,10-13c3.2,2.1,5.9,3.6,9,3.6h-0.1c3.1,0,5.8-1.5,9-3.6c12,0,10,13,10,13"/>
	<g id="XMLID_1_">
		<g>
			<path fill="#000100" d="M40,25.1c1.1,0,2,0.9,2,2c0,1.1-0.9,2-2,2c-1.1,0-2-0.9-2-2C38,26,38.9,25.1,40,25.1z"/>
			<path fill="#000100" d="M39.9,34.9c0.2,0.5,0,1.1-0.5,1.3c-1.1,0.6-2.3,0.9-3.4,0.9c-1.2,0-2.3-0.3-3.4-0.9
				c-0.5-0.2-0.7-0.8-0.4-1.3c0.2-0.5,0.8-0.7,1.3-0.4c1.7,0.9,3.4,0.9,5.1,0C39,34.2,39.6,34.4,39.9,34.9z"/>
			<path fill="#000100" d="M34,27.1c0,1.1-0.9,2-2,2c-1.1,0-2-0.9-2-2c0-1.1,0.9-2,2-2C33.1,25.1,34,26,34,27.1z"/>
		</g>
		<g>
			<path fill="none" stroke="#000000" stroke-width="2" stroke-linecap="round" stroke-linejoin="round" stroke-miterlimit="10" d="
				M24.3,27.4c0,0.4-0.1,1.4-0.1,2.4c-0.2,3.1,0.4,6.2,1.9,8.9c0.6,1,1.3,2,2.1,2.7c2.8,2.4,5.6,2.5,7.4,2.5"/>
			<path fill="none" stroke="#000000" stroke-width="2" stroke-linecap="round" stroke-linejoin="round" stroke-miterlimit="10" d="
				M47.2,27.1c0,0.1,0,0.2,0,0.4c-0.3,2.1-2.1,5.8-2.1,5.8s-1.9,3-2.7-1.2c-4.2-1.2-8.6-1.2-13.1,0c-0.8,4.2-2.7,1.2-2.7,1.2
				s-1.8-3.7-2.1-5.8c0-0.1,0-0.2,0-0.4"/>
			<path fill="none" stroke="#000000" stroke-width="2" stroke-linecap="round" stroke-linejoin="round" stroke-miterlimit="10" d="
				M47.2,27.4c0,0.4,0.1,1.4,0.1,2.4c0.2,3.1-0.4,6.2-1.9,8.9c-0.6,1-1.2,2-2.1,2.7c-2.8,2.4-5.5,2.5-7.4,2.5c-0.1,0-0.2,0-0.3,0"/>
			<path fill="none" stroke="#000000" stroke-width="2" stroke-linecap="round" stroke-linejoin="round" stroke-miterlimit="10" d="
				M24.3,27.4c0,0-2.2-6.8,2-13.2c3.2-4.9,12.9-2.4,12.9-2.4l3.1-2.4l1.1,3.1l3.4-2.5c0.8,2.2,0.1,3.9-1.2,5.3
				c-1.1,1.2-2.5,2-3.5,2.5c-0.7,0.4-1.2,0.5-1.2,0.5c-5.8,2.2-6.1,1.9-10.6,0c0,0-3.4-2.5-6.2,8.6"/>
			<path fill="none" stroke="#000000" stroke-width="2" stroke-linecap="round" stroke-linejoin="round" stroke-miterlimit="10" d="
				M42,18.3c0.1,0,0.1,0,0.2,0c1.2,0.1,3.2,1.5,5,8.7"/>
			<path fill="none" stroke="#000000" stroke-width="2" stroke-linecap="round" stroke-linejoin="round" stroke-miterlimit="10" d="
				M45.8,15.5c3,5.8,1.3,11.9,1.3,11.9"/>
		</g>
	</g>
</g>
</svg>
