<svg id="emoji" viewBox="0 0 72 72" version="1.1" xmlns="http://www.w3.org/2000/svg">
  <g id="line">
    <path fill="none" stroke="#000000" stroke-linecap="round" stroke-linejoin="round" stroke-width="2" d="M26,38.0571c-3,0-4-7-4-14 c0-6,5-12,14-12s14,6,14,12c0,7-1,14-4,14"/>
    <path fill="none" stroke="#000000" stroke-linejoin="round" stroke-width="2" d="M24.969,31.0571c-0.1015,7.999,4.9365,14,11,14 c5.9365,0,11.0635-6,11.0635-14c0-5-3-11-3-11c-8,0-10,3-16,1C28.033,21.0571,25.033,26.0571,24.969,31.0571z"/>
    <path fill="none" stroke="#000000" stroke-linejoin="round" stroke-width="2" d="M26.5,39.4H13.4 c1.6694,2.6727,3.1079,5.4829,4.3,8.4c0.5072,1.2402,0.9413,2.509,1.3,3.8"/>
    <path fill="none" stroke="#000000" stroke-linejoin="round" stroke-width="2" d="M53,51.4c0.4-1.2,0.8-2.4,1.3-3.6 c1.1713-2.9266,2.6108-5.7385,4.3-8.4H44.7"/>
    <path d="M42,30.1c0,1.1046-0.8954,2-2,2s-2-0.8954-2-2s0.8954-2,2-2C41.1032,28.1032,41.9968,28.9968,42,30.1"/>
    <path d="M34,30.1c0,1.1046-0.8954,2-2,2c-1.1046,0-2-0.8954-2-2s0.8954-2,2-2C33.1032,28.1032,33.9968,28.9968,34,30.1"/>
    <path fill="none" stroke="#000000" stroke-linecap="round" stroke-linejoin="round" stroke-width="2" d="M33,39 c1.875-1,4.125-1,6,0"/>
    <path fill="none" stroke="#000000" stroke-linecap="round" stroke-linejoin="round" d="M38,38.5 c0.2408,0.0816,0.4748,0.1819,0.7,0.3"/>
    <path fill="none" stroke="#000000" stroke-linecap="round" stroke-linejoin="round" stroke-width="2" d="M17,60v-3c0-5,5-9,10-9 c6,5,12,5,18,0c5,0,10,4,10,9v3"/>
    <polygon stroke="#000000" stroke-linecap="round" stroke-linejoin="round" points="34,38.7 34.3,41.1 35.1,38.8 35,38.7"/>
    <polygon stroke="#000000" stroke-linecap="round" stroke-linejoin="round" points="37.9,38.7 37.7,41.1 36.9,38.8 36.8,38.7"/>
  </g>
</svg>
