<svg id="emoji" xmlns="http://www.w3.org/2000/svg" viewBox="0 0 72 72">
  <g id="line">
    <ellipse cx="44.7828" cy="14.2258" rx="2.5998" ry="2.6039" fill="none" stroke="#000" stroke-miterlimit="10" stroke-width="2"/>
    <path d="M49.1159,25.4226l-.1512,4.0414A7.2955,7.2955,0,0,0,49.01,30.59l.6325,5.3742,1.12,22.441a1.47,1.47,0,0,1-1.2132,1.7359,1.7648,1.7648,0,0,1-1.4733-1.7359L45.9094,39.31c-.0866-.9548-.6066-1.736-1.04-1.736s-.9533.7812-1.04,1.736L41.6631,58.4056A1.8509,1.8509,0,0,1,40.19,60.1415a1.47,1.47,0,0,1-1.2132-1.7359s1.18-13.9332,1.6436-23.882c.0739-1.5875.3609-2.689.3605-4.0827,0-.2756.02-.81.011-1.0611-.06-1.7542-.3361-3.2836-.3686-3.9572" fill="none" stroke="#000" stroke-linecap="round" stroke-linejoin="round" stroke-width="2"/>
    <path d="M36.1168,41.3933s1.1266-6.5966,1.3-8.7665c.1733-1.9964.26-8.0722.26-8.0722a4.5,4.5,0,0,1,4.5063-4.34h5.2a4.5,4.5,0,0,1,4.5063,4.34l.6933,16.4915" fill="none" stroke="#000" stroke-linecap="round" stroke-linejoin="round" stroke-width="2"/>
    <ellipse cx="25.6704" cy="14.3294" rx="2.5998" ry="2.6039" fill="none" stroke="#000" stroke-miterlimit="10" stroke-width="2"/>
    <path d="M29.83,25.5262c-.0324.6737-.3084,2.203-.3685,3.9572-.0086.2513.011.7855.0109,1.0611,0,1.3937.2866,2.4952.3606,4.0827.4633,9.9488,1.6435,23.882,1.6435,23.882a1.47,1.47,0,0,1-1.2132,1.7359A1.8508,1.8508,0,0,1,28.79,58.5092L26.6237,39.4138c-.0867-.9548-.6067-1.736-1.04-1.736s-.9532.7812-1.04,1.736L22.3773,58.5092a1.7647,1.7647,0,0,1-1.4732,1.7359,1.47,1.47,0,0,1-1.2133-1.7359l1.12-22.4409.6325-5.3743a7.3073,7.3073,0,0,0,.045-1.1263l-.1512-4.0415" fill="none" stroke="#000" stroke-linecap="round" stroke-linejoin="round" stroke-width="2"/>
    <path d="M17.8709,41.15l.6933-16.4914a4.5,4.5,0,0,1,4.5064-4.34h5.2a4.5,4.5,0,0,1,4.5063,4.34s.0867,6.0758.26,8.0721c.1733,2.17,1.3,8.7665,1.3,8.7665" fill="none" stroke="#000" stroke-linecap="round" stroke-linejoin="round" stroke-width="2"/>
  </g>
</svg>
