<svg id="emoji" viewBox="0 0 72 72" xmlns="http://www.w3.org/2000/svg">
  <g id="line">
    <path fill="none" stroke="#000" stroke-linecap="round" stroke-linejoin="round" stroke-width="2" d="M35.1853,17.2058c-5.8765.5287-10.5159,6.6407-10.5159,14.1212,0,7.8277,5.0764,14.1733,11.3386,14.1733S47.3467,39.1547,47.3467,31.327a17.2594,17.2594,0,0,0-.7674-5.0941,9.9175,9.9175,0,0,1-11.394-9.0271Z"/>
    <path fill="none" stroke="#000" stroke-linecap="round" stroke-linejoin="round" stroke-width="2" d="M45.3916,25.3133a2,2,0,0,0-1.3286-2.18,1.9753,1.9753,0,0,0,.3775-.8915,1.9931,1.9931,0,0,0-2.79-2.1141,1.9923,1.9923,0,0,0-3.3909-1.3058,1.9922,1.9922,0,0,0-2.7713-.4814"/>
    <path fill="none" stroke="#000" stroke-linecap="round" stroke-linejoin="round" stroke-width="2" d="M35.1853,17.2058q.0408.48.1262.9464A9.9978,9.9978,0,0,0,44.7328,26.34q.2037.0082.4093.0082a10.0162,10.0162,0,0,0,1.4372-.1149"/>
    <path fill="none" stroke="#000" stroke-linecap="round" stroke-linejoin="round" stroke-width="2" d="M32.0082,38.3478s8-3.11,8,0C40.0082,44.59,32.0082,38.3478,32.0082,38.3478Z"/>
    <line x1="39.4412" x2="35.142" y1="40.0644" y2="40.0644" fill="none" stroke="#000" stroke-linecap="round" stroke-linejoin="round" stroke-width="2"/>
    <line x1="36.9515" x2="36.9515" y1="40.0644" y2="37.1387" fill="none" stroke="#000" stroke-linecap="round" stroke-linejoin="round" stroke-width="1.5"/>
    <path fill="none" stroke="#000" stroke-linecap="round" stroke-linejoin="round" stroke-width="2" d="M26.66,48.974c2.6741,4.6869,6.0111,6.99,9.3481,6.9693l2,4.0183,2.0029-5.1777a15.6376,15.6376,0,0,0,5.3451-5.81"/>
    <line x1="43.5576" x2="42.8019" y1="57.2892" y2="59.952" fill="none" stroke="#000" stroke-linecap="round" stroke-linejoin="round" stroke-width="2"/>
    <polyline fill="none" stroke="#000" stroke-linecap="round" stroke-linejoin="round" stroke-width="2" points="20.224 59.92 22.308 56.357 23.836 59.92"/>
    <path d="M55.008,60.9662a1,1,0,0,1-1-1v-3c0-4.4517-4.4961-7.81-8.6518-7.9922-6.2051,5.0117-12.4912,5.0117-18.6963,0-4.1558.1817-8.6519,3.5405-8.6519,7.9922v3a1,1,0,0,1-2,0v-3c0-5.3247,5.14-9.9976,11-10h0a.9994.9994,0,0,1,.64.2319c5.625,4.6875,11.0947,4.6875,16.72,0a.9994.9994,0,0,1,.64-.2319h0c5.8594.0024,11,4.6753,11,10v3A1,1,0,0,1,55.008,60.9662Z"/>
    <path fill="none" stroke="#000" stroke-miterlimit="10" stroke-width="1.5" d="M42.0082,29.9662a2,2,0,1,1-2-2,2.0007,2.0007,0,0,1,2,2"/>
    <path fill="none" stroke="#000" stroke-miterlimit="10" stroke-width="1.5" d="M34.0082,29.9662a2,2,0,1,1-2-2,2.0007,2.0007,0,0,1,2,2"/>
    <path fill="none" stroke="#000" stroke-linecap="round" stroke-linejoin="round" stroke-width="2" d="M48.5353,22.8288c5.0381.18,3.4578,6.7348,3.03,7.2054a4.4742,4.4742,0,0,0,4.6831,2.5273c-.3149,3.5538-3.68,3.2945-4.7574,3.2707a9.3964,9.3964,0,0,0,2.899,4.6831,5.02,5.02,0,0,1,.5947,7.7308"/>
    <path fill="none" stroke="#000" stroke-linecap="round" stroke-linejoin="round" stroke-width="2" d="M18.1522,47.2228c-3.1087-2.9376-3.6951-8.0927-.2186-11.1464a7.2646,7.2646,0,0,0,2.1143-5.2045c-2.6565,1.2469-5.1757-.6366-5.9093-1.6807,1.5855-.3927,4.1821-3.7919,4.6165-5.89,1.48-5.5,5.1875-9.769,11.5628-10.6191,4.2819-.5709,6.484.4078,7.6666,2.1614"/>
  </g>
</svg>
