<svg id="emoji" viewBox="0 0 72 72" xmlns="http://www.w3.org/2000/svg">
  <g id="line">
    <path fill="none" stroke="#000" stroke-linecap="round" stroke-linejoin="round" stroke-width="2" d="M35.611,19.0521h0a9.14,9.14,0,0,1,9.14,9.14V63.1053a.8909.8909,0,0,1-.8909.8909H27.3624a.8909.8909,0,0,1-.8909-.8909V28.1916A9.14,9.14,0,0,1,35.611,19.0521Z"/>
    <rect x="33.518" y="9.9768" width="4.186" height="8.704" fill="none" stroke="#000" stroke-linecap="round" stroke-linejoin="round" stroke-width="2"/>
    <rect x="39.6339" y="10.7868" width="3.1867" height="7.0465" transform="translate(55.5374 -26.9172) rotate(90)" fill="none" stroke="#000" stroke-linecap="round" stroke-linejoin="round" stroke-width="2"/>
    <path fill="none" stroke="#000" stroke-linecap="round" stroke-linejoin="round" stroke-width="2" d="M33.52,12.7167H28.8791a4.5108,4.5108,0,0,0-3.7455,1.9973L19.63,22.9146a1.5943,1.5943,0,0,0,.6751,2.34,1.6527,1.6527,0,0,0,2.0226-.6418l4.475-6.7034a4.5109,4.5109,0,0,1,3.7516-2.0062H33.52Z"/>
    <polygon fill="none" stroke="#000" stroke-linecap="round" stroke-linejoin="round" stroke-width="2" points="44.751 12.412 44.751 14.243 44.751 14.415 44.751 16.245 56.844 18.864 56.844 14.415 56.844 14.243 56.844 9.793 44.751 12.412"/>
    <rect x="30.9133" y="29.2839" width="9.3953" height="5.6744" fill="none" stroke="#000" stroke-linecap="round" stroke-linejoin="round" stroke-width="2"/>
  </g>
</svg>
