<svg id="emoji" viewBox="0 0 72 72" xmlns="http://www.w3.org/2000/svg">
  <g id="line">
    <path d="M30,22.0343a2,2,0,1,0,2-2,2.0007,2.0007,0,0,0-2,2"/>
    <path d="M38,22.0343a2,2,0,1,0,2-2,2.0007,2.0007,0,0,0-2,2"/>
    <path fill="none" stroke="#000" stroke-linecap="round" stroke-linejoin="round" stroke-width="2" d="M32.7621,34.1416a4.9971,4.9971,0,0,0,6.4747.0009"/>
    <path fill="none" stroke="#000" stroke-miterlimit="10" stroke-width="2" d="M21,24.0448a15,15,0,1,0,15-15,15.0055,15.0055,0,0,0-15,15"/>
    <path fill="none" stroke="#000" stroke-miterlimit="10" stroke-width="2" d="M30.5611,10.066a7.5009,7.5009,0,1,0-8.9647,9.7881"/>
    <path fill="none" stroke="#000" stroke-miterlimit="10" stroke-width="2" d="M11,52.142c0,4.7856,3.3619,8.6656,7.5,8.6656s7.5-3.88,7.5-8.6656c0-4.7813-3.3619-8.6656-7.5-8.6656S11,47.3607,11,52.142"/>
    <path fill="none" stroke="#000" stroke-miterlimit="10" stroke-width="2" d="M46,52.142c0,4.7856,3.3619,8.6656,7.5,8.6656s7.5-3.88,7.5-8.6656c0-4.7813-3.3619-8.6656-7.5-8.6656S46,47.3607,46,52.142"/>
    <path fill="none" stroke="#000" stroke-linecap="round" stroke-miterlimit="10" stroke-width="2" d="M14.4143,53.4248a4.0015,4.0015,0,0,0,4,4"/>
    <path fill="none" stroke="#000" stroke-linecap="round" stroke-miterlimit="10" stroke-width="2" d="M54,57.4248a4.0015,4.0015,0,0,0,4-4"/>
    <path fill="none" stroke="#000" stroke-miterlimit="10" stroke-width="2" d="M28.5,32.931c0,3.3763,3.3619,6.1138,7.5,6.1138s7.5-2.7375,7.5-6.1138c0-3.3732-3.3618-6.1137-7.5-6.1137s-7.5,2.7405-7.5,6.1137"/>
    <path fill="none" stroke="#000" stroke-miterlimit="10" stroke-width="2" d="M50.4041,19.8542A7.5008,7.5008,0,1,0,41.44,10.0649"/>
    <line x1="36" x2="36" y1="32.3325" y2="35.3325" fill="none" stroke="#000" stroke-linecap="round" stroke-linejoin="round" stroke-width="2"/>
    <path fill="none" stroke="#000" stroke-linecap="round" stroke-linejoin="round" stroke-width="2" d="M36,31.9131s-3.2374-.881-3.2374-3.1277c0-1.5446,1.53-1.8607,2.4865-1.9074l1.2638-.0068c.9127.0072,2.7249.2332,2.7249,1.9142,0,2.2467-3.2373,3.1277-3.2373,3.1277"/>
    <path fill="none" stroke="#000" stroke-linecap="round" stroke-linejoin="round" stroke-width="2" d="M20.2823,43.7251c1.1282-5.2329,5.8479-8.3926,5.8479-8.3926"/>
    <path fill="none" stroke="#000" stroke-linecap="round" stroke-linejoin="round" stroke-width="2" d="M46,35.3325s4.6611,3.1205,5.8264,8.2952"/>
    <path fill="none" stroke="#000" stroke-linecap="round" stroke-linejoin="round" stroke-width="2" d="M24.9516,41.9494,28.5,48.01a3.22,3.22,0,0,0,4.2578,1.3235h0a3.22,3.22,0,0,0,1.4263-4.3471l-1.0163-1.9848"/>
    <path fill="none" stroke="#000" stroke-linecap="round" stroke-linejoin="round" stroke-width="2" d="M47.4348,41.9494,43.6438,48.01a3.22,3.22,0,0,1-4.2578,1.3235h0A3.22,3.22,0,0,1,37.96,44.9867l1.0163-1.9848"/>
    <path fill="none" stroke="#000" stroke-linecap="round" stroke-linejoin="round" stroke-width="2" d="M24.2861,58.0782s9.4536,6.5808,23.4278,0"/>
  </g>
</svg>
