<svg id="emoji" viewBox="0 0 72 72" xmlns="http://www.w3.org/2000/svg">
  <g id="line">
    <path fill="none" stroke="#000" stroke-linecap="round" stroke-linejoin="round" stroke-width="2" d="M33.0447,28.718a50.9486,50.9486,0,0,0-2.6571-7.7831.7613.7613,0,0,1-.065-.2757c-.058-1.3759-.6253-12.2818-4.0433-12.1226-3.23.15-2.8123,9.65-2.6741,11.8245a.758.758,0,0,1-.3477.6864l-9.3459,6.0771A2.9579,2.9579,0,0,0,12.48,29.6584V32.652a3.7251,3.7251,0,0,0,3.217,3.69l5.7258.7884c2.1713.21,2.3663,3.5306,2.3676,6.1408,0,.0184.0007.0363.0022.0546l1.255,15.78A1.8525,1.8525,0,0,0,26.9,60.9583h4.0044a1.8524,1.8524,0,0,0,1.8524-1.8525l.4347-8.3377a.7672.7672,0,0,1,.76-.6641h5.6861a.7672.7672,0,0,1,.7584.6513l.6069,8.3505a1.8525,1.8525,0,0,0,1.8525,1.8525h3.2322A1.8525,1.8525,0,0,0,47.94,59.1058l2.1836-19.9222a4.97,4.97,0,0,0-4.9117-5.1686l-9.63-.1064A1.9555,1.9555,0,0,1,33.68,32.1519a28.4052,28.4052,0,0,0-.6348-3.4339"/>
    <polyline fill="none" stroke="#000" stroke-linecap="round" stroke-linejoin="round" stroke-width="2" points="30.469 21.121 29.335 21.121 27.827 19.09 26.046 21.121"/>
    <polyline fill="none" stroke="#000" stroke-linecap="round" stroke-linejoin="round" stroke-width="2" points="27.8 27.269 25.382 27.269 23.875 25.237 22.094 27.269 20.179 27.269"/>
    <polyline fill="none" stroke="#000" stroke-linecap="round" stroke-linejoin="round" stroke-width="2" points="15.7 33.416 17.263 31.385 19.008 33.416 20.923 33.416 22.704 31.385 24.211 33.416 26.63 33.416 28.193 31.385 29.938 33.416"/>
    <polyline fill="none" stroke="#000" stroke-linecap="round" stroke-linejoin="round" stroke-width="2" points="31.331 39.836 33.112 37.805 34.62 39.836 37.038 39.836 38.601 37.805 40.346 39.836 42.708 39.836 44.272 37.805 46.017 39.836"/>
    <polyline fill="none" stroke="#000" stroke-linecap="round" stroke-linejoin="round" stroke-width="2" points="26.886 45.688 28.45 43.656 30.195 45.688 32.11 45.688 33.891 43.656 35.398 45.688 37.817 45.688 39.38 43.656 41.125 45.688"/>
    <path fill="none" stroke="#000" stroke-linecap="round" stroke-linejoin="round" stroke-width="2" d="M59.5244,44.5659a10.0043,10.0043,0,0,1-6.75-9.46"/>
    <path fill="none" stroke="#000" stroke-linecap="round" stroke-linejoin="round" stroke-width="2" d="M59.5245,50.4176a10.0171,10.0171,0,0,1-6.5469-7.4447"/>
  </g>
</svg>
