<svg id="emoji" viewBox="0 0 72 72" xmlns="http://www.w3.org/2000/svg">
  <g id="line">
    <path fill="none" stroke="#000" stroke-linecap="round" stroke-miterlimit="10" stroke-width="2" d="M48.4022,40.8228c-1.7382-4.9513-3.41-9.6347-3.8074-10.4437a8.6038,8.6038,0,0,0-8.2664-4.94c-1.7794-.0078-4.6533-.0018-7.78.0107"/>
    <path fill="none" stroke="#000" stroke-miterlimit="10" stroke-width="2" d="M25.6211,25.4632c-5.4429.0268-10.8706.0656-12.1543.08-2.1544.0241-3.5618-1.5206-3.1534-3.5158a6.14,6.14,0,0,1,.4354-1.0723,3.2263,3.2263,0,0,1,2.322-1.2948c8.4613-1.4536,28.8507-5.0473,30.5994-5.1652a9.0219,9.0219,0,0,1,9.6663,7.654c1.4457,8.2642,4.8648,28.0768,5.1394,29.7168a2.986,2.986,0,0,1-1.301,3.2,2.85,2.85,0,0,1-4.3429-1.5744c-.2771-.7445-1.8107-5.18-3.4878-9.9791"/>
    <line x1="19.203" x2="17.5922" y1="25.4998" y2="22.0557" fill="none" stroke="#000" stroke-linecap="round" stroke-linejoin="round" stroke-width="2"/>
    <line x1="25.6211" x2="24.0103" y1="25.4744" y2="22.0303" fill="none" stroke="#000" stroke-linecap="round" stroke-linejoin="round" stroke-width="2"/>
    <line x1="51.5331" x2="55.2764" y1="49.83" y2="50.4963" fill="none" stroke="#000" stroke-linecap="round" stroke-linejoin="round" stroke-width="2"/>
    <line x1="49.3472" x2="53.0906" y1="43.5116" y2="44.1779" fill="none" stroke="#000" stroke-linecap="round" stroke-linejoin="round" stroke-width="2"/>
  </g>
</svg>
