<svg id="emoji" viewBox="0 0 72 72" version="1.1" xmlns="http://www.w3.org/2000/svg">
  <g id="line" fill="none" stroke="#000" stroke-linecap="round" stroke-linejoin="round" stroke-width="2">
    <path d="m57.602 9.6113c-0.15103-0.00877-0.3033-0.00863-0.45703 0.00195-1.2298 0.084699-2.5448 0.80679-3.9297 2.4277l3.1172 3.4453 2.8105 2.9141c4.6632-3.2221 3.5073-5.5501 1.4199-7.3965-0.91322-0.80781-1.9037-1.3312-2.9609-1.3926zm-18.453 27.403c1.3044-1.1273 0.35819-0.28688 1.0767-0.93477m7.4049-6.7938c4.6734-4.226 8.5623-7.831 8.3794-8.029-0.98053-1.0616-5.4976-6.8743-5.8675-6.5376-1.824 1.6608-6.8809 6.2308-8.1598 7.7998-1.3203 1.6199-2.3784 3.3842-2.5054 3.5901-0.89159 1.4454-2.167 3.8758-2.7198 6.7896-0.87352 4.6038 0.13652 10.47 0.13072 10.536-0.12648 1.435-0.59824 2.2644-0.65211 2.3371-0.26025 0.35118-0.74687 0.94082-1.3565 1.1661-0.81065 0.29954-1.8961-0.19918-2.0274-0.25803-0.75529-0.3386-2.2714-0.95114-4.0021-2.1174-1.5859-1.0687-3.2546-2.8095-5.0454-4.4606-4.2186-3.8893-7.6931-10.099-7.8908-10.423-5.6504-9.2515 0.77164-8.2462 0.97734-8.1802 11.055 3.5446 19.516 0.46443 25.704-4.6985l10.124-9.1158s3.954-4.1007 9.7188 0.35604c2.8459 2.2002 3.7184 4.7657 3.3692 7.1169-0.13923 0.93726-0.27813 1.84-0.85805 2.6611-2.033 2.8784-3.7898 4.0776-6.5822 6.5426l-8.3273 7.5865m-7.6973 6.6486-2.6927 2.5977"/>
    <path d="m16.626 25.521c6.6743 4.2514 11.893 11.037 16.719 18.862"/>
    <path d="m44.625 31.244c1.4207 0.48427 2.8607 1.9556 3.2812 3.5-0.95612 1.2445-2.3187 2.2384-3.1406 2.375-0.68915-1.4763-1.6645-2.2332-2.7656-3.375 0.53592-0.85032 1.6727-1.8995 2.625-2.5z"/>
    <path d="m22.942 43.606-15.223 13.863c-1.4349 1.9445-2.7231 3.8296 0.09375 7.3125 2.0512 2.3682 5.1723 0.57537 7.5625-1.375l15.406-14.094m-2.9028-2.2023-14.866 13.771s-1.9127 2.1952-2.8844 1.4577c-1.6425-1.2466-0.39107-1.9353 0.46614-2.7967l14.976-13.603"/>
    <path d="m39.351 32.647 7.5312-6.8125m-2.1446-1.3676-2.2476 1.9823"/>
    <path fill="#000" stroke="none" d="m46.789 18.695c-0.30203 0.02505-0.68085 0.14093-0.97266 0.44141-0.41778 0.43018-0.44153 0.91324-0.44531 1.2539-0.0038 0.34066 0.03368 0.63286 0.05078 0.89844 0.0342 0.53115-0.01199 0.78476-0.13672 0.90625-0.26102 0.25423-0.34551 0.32005-0.45508 0.4082s-0.27065 0.22275-0.48047 0.44531c-0.36462 0.38748-0.36203 0.99261 0.0059 1.377l2.0664 2.1621c0.37429 0.39201 0.99272 0.41453 1.3945 0.05078l1.2656-1.1504c0.2595 0.03373 0.41933 0.07381 0.86719 0.07031 0.35856-0.0028 0.72643-0.01293 1.1582-0.18359 0.21589-0.08533 0.47367-0.22351 0.68164-0.51172 0.20798-0.28821 0.28473-0.72066 0.21875-1.0469-0.37-1.8294-1.342-3.3574-3.0234-4.3965-0.01299-0.0077-0.04123-0.03299-0.05664-0.04297-0.05351-0.03466-0.11086-0.06907-0.17773-0.10742-0.13374-0.0767-0.30079-0.16411-0.49219-0.25-0.3828-0.17177-0.82531-0.37758-1.4688-0.32422z" stop-color="#000000"/>
  </g>
</svg>
