<svg id="emoji" viewBox="0 0 72 72" xmlns="http://www.w3.org/2000/svg">
  <g id="line">
    <path fill="none" stroke="#000" stroke-linecap="round" stroke-linejoin="round" stroke-width="2" d="m10.2884,34.9887v-7.7148s.3826-20.225,23.3254-20.225c17.9306,0,21.0732,11.6225,21.5906,16.7008.0722.7709.5551,1.4426,1.2628,1.7566,1.1892.5224,3.4722,1.5061,4.4474,2.9856"/>
    <path fill="none" stroke="#000" stroke-linecap="round" stroke-linejoin="round" stroke-width="2" d="m41.2792,10.6242c.0298.205.0398.4123.03.6192-.0331.4673-.2644.8981-.6356,1.1838-1.09.8681-2.5035,1.4612-3.1,2.7568-.6021,1.2174-.5677,3.1808-2.1123,3.6421-1.8331.3038-2.68-1.4424-3.0156-3.0674-.4465-2.16-3.4168-1.92-4.501-3.4988-.7386-1.4873-.7633-3.2291-.0672-4.7367"/>
    <path fill="none" stroke="#000" stroke-linecap="round" stroke-linejoin="round" stroke-width="2" d="m19.1615,14.9782c.3644.3273.6379.7433.7939,1.2076.2871.7931.2751,1.7432.865,2.3461.3605.3004.7672.5404,1.2045.7106,1.4524.755,2.4618,2.1528,2.7217,3.769.4835,2.7822-2.2428,2.208-3.4466,3.8024-.8071,1.1837-.3777,3.1892-1.7771,3.97-.868.3294-1.8217.3562-2.7068.076-.6758-.3069-1.04-1.04-1.6059-1.52-1.0877-.922-2.7021-.7735-4.0425-1.26-.3982-.0963-.722-.3849-.8633-.7694"/>
    <path fill="none" stroke="#000" stroke-linecap="round" stroke-linejoin="round" stroke-width="2" d="m51.8925,14.6983c-1.2812.7267-1.8385,2.4606-2.2976,4.1693-.4076,1.5026-1.2197,2.8646-2.3477,3.9377-4.7234,4.5087.489,6.2689,5.352,4.9541"/>
    <path fill="none" stroke="#000" stroke-linecap="round" stroke-linejoin="round" stroke-width="2" d="m39.53,24.7564c.017.1912.0333.3836.0611.5722.0533.309.1666.6045.3333.87,1.8952,3.1736-.076,3.6362-2.7874,4.3207-.4495.1144-.8583.3517-1.1806.6853-.9283.9572-1.6846,2.1508-3.1407,2.3806-2.1614.8111-5.4346-.3425-5.1039-3.0114.13-.773.6482-1.4308.832-2.1931.2488-1.0318-.1283-2.185.1881-3.169.0773-.2208.194-.4258.3446-.6049,1.9845-2.4709,6.2012-3.1215,9.0686-1.8523.7899.3675,1.3195,1.1332,1.3849,2.0019Z"/>
    <path fill="none" stroke="#000" stroke-linecap="round" stroke-linejoin="round" stroke-width="2" d="m22.7661,39.2424c-.0467-.0547-.0961-.1072-.1483-.1575-.53-.424-1.1093-.7824-1.7252-1.0674-.9887-.5743-1.8066-1.4009-2.7577-2.0356-.9159-.7111-2.0974-.9852-3.2328-.75-.4643.1603-.8982.3978-1.2835.7023-1.0815.7871-2.0565,1.7109-2.9007,2.7485-.2828.3562-.4346.7989-.43,1.2537h0c.0001,1.1144.9036,2.0178,2.018,2.0179h9.353c4.3878,0,8.6391-1.5258,12.0256-4.316l2.61-2.1506c3.3864-2.7902,7.6377-4.316,12.0256-4.316h13.26"/>
    <path fill="none" stroke="#000" stroke-linecap="round" stroke-linejoin="round" stroke-width="2" d="m42.1156,32.089s.3991,10.8651-5.8172,15.5623"/>
    <path fill="none" stroke="#000" stroke-linecap="round" stroke-linejoin="round" stroke-width="2" d="m31.2564,48.9821c-.3454-.0054-.707-.0011-1.0847.0129-5.6436.213-10.7778-6.4626-11.2116-7.0408"/>
    <path fill="none" stroke="#000" stroke-linecap="round" stroke-linejoin="round" stroke-width="2" d="m36.2984,47.6513c3.4467.1251,6.6276,1.885,8.5647,4.7387,0,0,2.2657,3.1164,5.7239,2.1147s3.013,2.0587,3.013,2.0587c0,0-.7791,4.4825-5.7319,2.09,0,0-5.4314-3.01-7.739-5.3173-1.1249-1.3048-2.4574-2.4152-3.9437-3.2863"/>
    <rect x="31.2805" y="46.335" rx="1.6793" ry="1.6793" width="5.0137" height="5.0137" transform="translate(-17.9465 78.0091) rotate(-84.7397)" fill="none" stroke="#000" stroke-linecap="round" stroke-linejoin="round" stroke-width="2"/>
  </g>
</svg>
