<svg id="emoji" viewBox="0 0 72 72" xmlns="http://www.w3.org/2000/svg">
  <g id="line-supplement">
    <line x1="41.6352" x2="53.2902" y1="43.3021" y2="54.9571" fill="none" stroke="#000" stroke-linecap="round" stroke-linejoin="round" stroke-width="2"/>
    <line x1="43.6767" x2="55.3316" y1="41.2607" y2="52.9156" fill="none" stroke="#000" stroke-linecap="round" stroke-linejoin="round" stroke-width="2"/>
  </g>
  <g id="line">
    <path fill="none" stroke="#000" stroke-linecap="round" stroke-linejoin="round" stroke-width="2" d="M44.3357,36.9691l13.64,13.64a3.3,3.3,0,0,1-.1177,4.6619l-2.09,2.09a3.3,3.3,0,0,1-4.662.1176l-13.64-13.64.922-.9219-2.1194-2.1194-.9219.922-2.64-2.64,6.87-6.87,2.64,2.64-.9919.992,2.1194,2.1193Z"/>
    <polyline fill="none" stroke="#000" stroke-linecap="round" stroke-linejoin="round" stroke-width="2" points="34.778 32.313 22.813 20.397 22.03 16.647 16.763 14.347 14.721 16.388 17.074 21.603 20.772 22.439 32.736 34.355"/>
  </g>
</svg>
