<svg id="emoji" viewBox="0 0 72 72" xmlns="http://www.w3.org/2000/svg">
  <g id="line-supplement">
    <path fill="none" stroke="#000" stroke-linecap="round" stroke-linejoin="round" stroke-width="2" d="m18.2987,47.0371s.17,2.1674,4.5371,2.8755"/>
    <path fill="none" stroke="#000" stroke-linecap="round" stroke-linejoin="round" stroke-width="2" d="m25.0343,35.4841c1.5108-.494,3.1619-.3057,4.5226.5159"/>
    <path fill="none" stroke="#000" stroke-linecap="round" stroke-linejoin="round" stroke-width="2" d="m26.8582,28.2336c1.6015-.8547,3.4582-1.1009,5.2271-.6931"/>
    <path fill="none" stroke="#000" stroke-linecap="round" stroke-linejoin="round" stroke-width="2" d="m32.27,19.1212s3.0736.3742,2.6079,4.286"/>
    <path fill="none" stroke="#000" stroke-linecap="round" stroke-linejoin="round" stroke-width="2" d="m48.1464,34.9927s4.7358,1.001,5.6255-3.3181"/>
    <path fill="none" stroke="#000" stroke-linecap="round" stroke-linejoin="round" stroke-width="2" d="m41.3957,40.6445c1.7015,1.8357,4.3638,2.4223,6.6792,1.4717"/>
    <path fill="none" stroke="#000" stroke-linecap="round" stroke-linejoin="round" stroke-width="2" d="m33.5978,45.2113s4.3436-.38,5.458,1.5936"/>
    <path fill="none" stroke="#000" stroke-linecap="round" stroke-linejoin="round" stroke-width="2" d="m23.7889,56.9573s2.5774-2.8107,6.0761-1.884"/>
    <path fill="none" stroke="#000" stroke-linecap="round" stroke-linejoin="round" stroke-width="2" d="m44.0919,14.609s2.3364,2.296,1.1682,7.1425"/>
    <path fill="none" stroke="#000" stroke-linecap="round" stroke-linejoin="round" stroke-width="2" d="m39.0558,20.6344s.7182,2.9572-1.898,6.6866"/>
    <path fill="none" stroke="#000" stroke-linecap="round" stroke-linejoin="round" stroke-width="2" d="m21.3668,32.03s-.4284,5.567,3.1854,6.1831"/>
    <path fill="none" stroke="#000" stroke-linecap="round" stroke-linejoin="round" stroke-width="2" d="m21.9289,45.1819s3.7608,1.0774,4.49-2.3129"/>
    <path fill="none" stroke="#000" stroke-linecap="round" stroke-linejoin="round" stroke-width="2" d="m31.0005,52.5446s6.3137-.9121,5.5583-4.2323"/>
    <path fill="none" stroke="#000" stroke-linecap="round" stroke-linejoin="round" stroke-width="2" d="m44.4663,30.3446s.7807,4.9488,3.0684,5.6554"/>
    <path fill="none" stroke="#000" stroke-linecap="round" stroke-linejoin="round" stroke-width="2" d="m48.4925,22.9816s-.5088,3.9862,1.6566,6.1516"/>
  </g>
  <g id="line">
    <path fill="none" stroke="#000" stroke-linecap="round" stroke-miterlimit="10" stroke-width="2" d="m41.9641,17.9355c1.4821-1.6009,2.4632-3.6005,2.8223-5.7523m-9.2964,10.7984c2.4234-1.3109,4.6115-3.0162,6.4745-5.0461m4.4721,25.1245c-.6774,2.396-1.8518,4.6225-3.4466,6.5347-2.4709,2.8661-6.277,4.2061-9.9985,3.52-2.5371-.5704-4.9023-1.7358-6.9005-3.4-2.0518-1.6651-3.7737-3.6996-5.0766-5.9984-2.6069-4.5695-1.688-10.3369,2.21-13.87,1.205-1.0531,2.53-1.9602,3.9477-2.7025m27.9321-2.447c-3.7722,1.1558-5.47,4.594-6.4885,8.8732m-6.5633,6.6843c.36-1.325.6684-2.7358.9833-4.1753,1.42-6.488,3.0295-13.8417,10.6029-16.1625m-28.9462,16.9046c-.333,1.5093-.0935,3.0885.6721,4.4312.9981,1.7545,2.3156,3.3068,3.8847,4.5766,1.3702,1.1583,2.9949,1.9761,4.7415,2.3868,1.2634.237,2.5699.0065,3.6759-.6485m12.0456-34.5259c-1.5262,8.7724-8.587,12.3075-14.8169,15.4264-1.3269.6645-2.6225,1.3133-3.8432,1.9941"/>
    <path fill="none" stroke="#000" stroke-linecap="round" stroke-linejoin="round" stroke-width="2" d="m46.5789,20.2442c.2158.16.4297.3252.6416.4957m-22.5637,16.0733c.2582-.8744.5111-1.7968.7587-2.7671,1.2146-4.7269,2.0418-9.96,4.9058-13.1862,2.4707-2.8666,6.2771-4.2066,9.9987-3.5199.5921.1216,1.1755.2823,1.7463.4812m-25.1663,29.7888c1.8163-.5665,3.3895-1.7271,4.4667-3.2954m3.0795,3.9176c-1.5527,1.977-3.6759,3.4286-6.0816,4.1578m17.4873-29.616c-.6778.3552-1.2848.8315-1.7912,1.4052-2.06,2.32-3.1641,6.6137-4.2316,10.7662-.687,2.9894-1.6034,5.9214-2.7411,8.77m18.9162-17.231c-.594-.6732-1.2436-1.2951-1.942-1.8592-.3733-.3007-.7513-.5765-1.1339-.8276m-11.9278,23.24c2.4556-1.803,5.0368-3.4283,7.7239-4.8637,2.8451-1.4566,5.5233-3.2184,7.9874-5.2542.9749-.8864,1.6465-2.0567,1.92-3.3456m-25.29,25.3051c.5187-3.0505,1.8528-5.9039,3.861-8.258m4.2586,2.0785c-1.6646,2.0244-2.7662,4.4517-3.1937,7.0375m23.8477-33.314c.0617.1044.1224.2093.1821.3147,2.6072,4.5699,1.6879,10.3378-2.2108,13.8707-2.5466,2.3289-6.4051,3.6411-9.5366,5.41-1.0044.5089-1.963,1.03-2.87,1.5721m9.5408-26.85h0c.6513.5257,1.2697,1.0909,1.8517,1.6924"/>
  </g>
</svg>
