<svg id="emoji" viewBox="0 0 72 72" xmlns="http://www.w3.org/2000/svg">
  <g id="line">
    <path fill="none" stroke="#000" stroke-linecap="round" stroke-linejoin="round" stroke-width="2" d="m39.1786,35.6423l15.0183-17.26c1.3106-1.7706.9376-4.2684-.833-5.579-1.7539-1.2982-4.2255-.9461-5.547.7903l-29.2378,45.5991,16.39-18.7271"/>
    <path fill="none" stroke="#000" stroke-linecap="round" stroke-linejoin="round" stroke-width="2" d="m49.9081,19.6608c-.7433.515-1.4725.6747-1.9149.3426-.7033-.5278-.416-2.0979.6416-3.507s2.485-2.1234,3.1882-1.5956c.1476.1146.2563.2719.3111.4506"/>
    <path fill="none" stroke="#000" stroke-linecap="round" stroke-linejoin="round" stroke-width="2" d="m49.005,16.0479c.5413.2799,1.0573.6062,1.5422.9753,4.1633,3.0078,6.1973,8.1622,5.21,13.2026,0,0-1.613,8.9339-10.8977,9.209-8.5048.252-21.4085-8.633-33.8595,2.7982"/>
    <path fill="none" stroke="#000" stroke-linecap="round" stroke-linejoin="round" stroke-width="2" d="m34.5894,18.5635s6.0295-4.8028,12.1836-3.3422"/>
  </g>
</svg>
