<svg id="emoji" viewBox="0 0 72 72" xmlns="http://www.w3.org/2000/svg">
  <g id="line">
    <path fill="none" stroke="#000" stroke-linecap="round" stroke-linejoin="round" stroke-width="2" d="M49.1845,38.23,46.81,57.4243a2.8359,2.8359,0,0,1-2.8016,2.5036H27.4405a2.8363,2.8363,0,0,1-2.8049-2.5319L22.4567,38.23"/>
    <path fill="none" stroke="#000" stroke-linecap="round" stroke-linejoin="round" stroke-width="2" d="M50.9654,34.8426A1.1453,1.1453,0,0,0,52.1035,33.69v-.7926a4.4281,4.4281,0,0,0-4.4-4.4555H24.208a4.4282,4.4282,0,0,0-4.4,4.4555V33.69a1.1454,1.1454,0,0,0,1.1382,1.1524Z"/>
    <rect x="31.1783" y="8.888" width="9.5525" height="5.1553" transform="translate(71.9092 22.9313) rotate(180)" fill="none" stroke="#000" stroke-linecap="round" stroke-linejoin="round" stroke-width="2"/>
    <path fill="none" stroke="#000" stroke-linecap="round" stroke-linejoin="round" stroke-width="2" d="M40.7128,11.5374A20.6967,20.6967,0,0,1,56,31.7971h-1.01"/>
    <path fill="none" stroke="#000" stroke-linecap="round" stroke-linejoin="round" stroke-width="2" d="M31.178,11.5652A20.7032,20.7032,0,0,0,16,31.7971h1.1563"/>
  </g>
</svg>
