<svg id="emoji" viewBox="0 0 72 72" version="1.1" xmlns="http://www.w3.org/2000/svg">
  <g id="line" fill="none" stroke="#000" stroke-linecap="round" stroke-linejoin="round" stroke-width="2">
    <path d="m49.18 38.23-2.374 19.19a2.836 2.836 0 0 1-2.802 2.504h-16.57a2.836 2.836 0 0 1-2.805-2.532l-2.179-19.17"/>
    <path d="m50.97 34.84a1.145 1.145 0 0 0 1.138-1.153v-0.7926a4.428 4.428 0 0 0-4.4-4.456h-23.5a4.428 4.428 0 0 0-4.4 4.456v0.7926a1.145 1.145 0 0 0 1.138 1.152z"/>
    <rect x="31.18" y="8.888" width="9.552" height="5.155" transform="translate(71.91 22.93) rotate(180)"/>
    <path d="m40.71 11.54a20.7 20.7 0 0 1 15.29 20.26h-1.01"/>
    <path d="m31.18 11.57a20.7 20.7 0 0 0-15.18 20.23h1.156"/>
  </g>
</svg>
