<svg id="emoji" viewBox="0 0 72 72" xmlns="http://www.w3.org/2000/svg">
  <g id="line">
    <path fill="none" stroke="#000" stroke-linecap="round" stroke-linejoin="round" stroke-width="2" d="M50.934,42.6522s2.91-7.66,5.9244-9.921c0,0-.5023-5.2745-2.6372-5.7768a4.1563,4.1563,0,0,1-3.2872,1.5249V18.3852"/>
    <path fill="none" stroke="#000" stroke-linecap="round" stroke-linejoin="round" stroke-width="2" d="M50.934,46.034v7.3576c0,2.9685-4.7887,5.4666-11.2944,6.2023l-.0175-.0474a11.4324,11.4324,0,0,1-.6936-3.6526,6.2742,6.2742,0,0,1,.3015-2.2668c.2165-.6044.566-1.155.7737-1.7625a8.1179,8.1179,0,0,0,.2887-2.6551l-.0215-10.0733"/>
    <path fill="none" stroke="#000" stroke-linecap="round" stroke-linejoin="round" stroke-width="2" d="M20.3956,18.3852V53.3916c0,1.38,1.0348,2.6583,2.7959,3.7052a11.088,11.088,0,0,1,.3037-5.2173s.7152-2.3759,1.5671,1.5671a6.6658,6.6658,0,0,1,1.0752,4.5725v.3914a30.5618,30.5618,0,0,0,9.5273,1.4032q.2328,0,.464-.0029"/>
    <path fill="none" stroke="#000" stroke-linecap="round" stroke-linejoin="round" stroke-width="2" d="M38.0678,19.6992c7.1175-2.4351-9.8937-4.0178-8.7109.2467C31.7357,22.66,44.57,22.5016,45.7706,18.5044c1.1582-5.4256-22.2033-4.7544-19.9212.91"/>
    <path fill="none" stroke="#000" stroke-linecap="round" stroke-linejoin="round" stroke-width="2" d="M31.3506,48.3638a75.095,75.095,0,0,1-.5041-9.564,4.6685,4.6685,0,0,0-.2721-2.0361,8.1822,8.1822,0,0,0-.993-1.3624,8.1053,8.1053,0,0,1-1.164-5.5933,53.8785,53.8785,0,0,0,.5412-5.44l-.0053-.2127a33.5233,33.5233,0,0,0,6.7115.652c8.433,0,15.2692-2.8752,15.2692-6.422s-6.8362-6.4221-15.2692-6.4221-15.2692,2.8753-15.2692,6.4221c0,1.9436,2.0528,3.6855,5.2964,4.8632"/>
  </g>
</svg>
