<svg id="emoji" viewBox="0 0 72 72" xmlns="http://www.w3.org/2000/svg">
  <g id="line">
    <path fill="none" stroke="#000" stroke-linecap="round" stroke-linejoin="round" stroke-width="2" d="M52.3244,33.688c0,3.8911-7.3087,7.0454-16.3244,7.0454s-16.3244-3.1543-16.3244-7.0454"/>
    <path fill="none" stroke="#000" stroke-linecap="round" stroke-linejoin="round" stroke-width="2" d="M53.3015,42.5287c-1.5841,2.241-5.687,4.008-10.885,4.6863"/>
    <path fill="none" stroke="#000" stroke-linecap="round" stroke-linejoin="round" stroke-width="2" d="M11.5905,31.688c0-6.7958,10.9285-12.3048,24.41-12.3048s24.41,5.509,24.41,12.3048v1.0556c0,5.6918-2.0093,12.49-5.0625,16.3445-3.0887,3.8978-9.5935,6.1539-19.348,6.1539s-15.8538-1.8262-19.347-6.1539c-3.0884-3.8263-5.0625-9.6808-5.0625-16.3445v-1.0556Z"/>
    <g id="line-2-4">
      <path fill="none" stroke="#000" stroke-linecap="round" stroke-linejoin="round" stroke-width="2" d="M30.1896,39.9811c-.5807-1.2291-.8903-2.6807-.8903-4.2194,0-3.2033,1.3258-6.5034,3.4936-8.1002,.842-.629,1.8194-.9968,2.8936-.9968,1.5291,0,2.8646,.7452,3.9098,1.9258,1.5581,1.7613,2.4871,4.5001,2.4871,7.1711,0,1.5775-.329,3.0678-.9484,4.3259"/>
    </g>
    <g id="line-2-5">
      <path fill="none" stroke="#000" stroke-linecap="round" stroke-linejoin="round" stroke-width="2" d="M22.2547,37.3126c-.3774-1.0452-.7556-2.6638-.7556-3.8832,0-4.4614,2.5646-9.097,6.3969-9.097,2.071,0,3.7743,1.3645,4.8969,3.3291"/>
    </g>
    <g id="line-2-6">
      <path fill="none" stroke="#000" stroke-linecap="round" stroke-linejoin="round" stroke-width="2" d="M47.859,38.4898c2.7968-3.1646,4.144-8.2831,1.5891-10.8477-2.4097-2.4097-6.7066-1.5097-9.8518,.9484"/>
    </g>
  </g>
</svg>
