<svg id="emoji" viewBox="0 0 72 72" xmlns="http://www.w3.org/2000/svg">
  <g id="line">
    <path id="body_back" fill="none" stroke="#000" stroke-linecap="round" stroke-linejoin="round" stroke-width="1.9218" d="m24.8725,14.518c.0961-2.3062-1.4414-3.6515-3.3632-1.7297-2.8828,2.8828-6.0538,2.8828-4.9968,3.9398.9609.9609,6.7265.1922,7.9757,1.5375,2.4023,2.5945-1.3453,15.3748-1.9218,20.2755-.8648,6.3421-.0961,9.0327,6.0538,12.3959,3.4593,1.9218,11.0506,2.8828,11.0506,2.8828v6.5343"/>
    <path id="body_front" fill="none" stroke="#000" stroke-linecap="round" stroke-linejoin="round" stroke-width="1.9218" d="m26.1217,9.9055c3.2671-2.4023,9.2249-.7687,6.5343,7.9757-1.7297,5.3812-1.1531,13.6451-.0961,14.5099,1.5375,1.2492,7.6874,1.057,13.8373,5.189,7.8796,5.2851,10.1858,17.1044,10.1858,17.1044,0,0-5.0929.7687-12.1076-.0961"/>
    <path id="wing" fill="none" stroke="#000" stroke-linecap="round" stroke-miterlimit="10" stroke-width="1.9218" d="m30.7341,40.4629c2.3062,7.8796,12.5881,9.321,12.5881,9.321"/>
    <polyline id="foot_outline_back" fill="none" stroke="#000" stroke-linecap="round" stroke-linejoin="round" stroke-width="1.9218" points="33.2325 60.354 28.8123 60.354 26.6022 57.4712 35.2505 57.4712 35.2505 53.051"/>
    <polyline id="foot_outline_front" fill="none" stroke="#000" stroke-linecap="round" stroke-linejoin="round" stroke-width="1.9218" points="39.6707 60.354 30.9263 60.354 33.1364 63.2367 37.5567 63.2367"/>
  </g>
</svg>
