<svg id="emoji" viewBox="0 0 72 72" xmlns="http://www.w3.org/2000/svg">
  <g id="line">
    <path d="M40.5948,68h-.14c-.5427-.0823-.9176-.5866-.84-1.13l.46-3.2c.0086-.1052,.0392-.2074,.09-.3l4.59-9.29c.4732-1.3052,.4048-2.7455-.19-4l-2.85-6c-.6293-1.3228-.7606-2.8282-.37-4.24,1.0113-3.4152,1.8161-6.8881,2.41-10.4,0-1-1.61-2.66-2.79-3.48l-.14-.12c-.6196-.5155-1.4479-.7049-2.23-.51-1.65,.35-5,2.48-9.16,12.74-.0557,.137-.1411,.26-.25,.36l-2.25,2.07c-1.1155,.998-2.0258,2.2038-2.68,3.55-.3204,.6881-.5652,1.409-.73,2.15-.2761,1.1368-.2761,2.3232,0,3.46,.4599,1.5502,1.4982,2.8641,2.9,3.67,1.446,.8742,3.0439,1.4679,4.71,1.75,.5463,.0726,.9309,.5735,.86,1.12-.0775,.5423-.5769,.9212-1.12,.85-1.9526-.3013-3.8276-.9807-5.52-2-1.8198-1.0686-3.1616-2.7933-3.75-4.82-.3616-1.4511-.3616-2.9689,0-4.42,.1889-.8844,.4809-1.7436,.87-2.56,.7478-1.607,1.8046-3.0511,3.11-4.25l2.08-1.91c3.41-8.41,7-13,10.6-13.75,1.3848-.2913,2.8262,.0783,3.9,1,.59,.42,3.67,2.72,3.58,5.16-.06,1.72-1.7,8-2.48,10.82-.2643,.949-.1755,1.9616,.25,2.85l2.85,6c.8522,1.7935,.9282,3.8588,.21,5.71l-4.55,9.22-.44,3.06c-.0787,.4853-.4984,.8414-.99,.84h0Z"/>
    <path d="M31.6248,68c-.5523,0-1-.4477-1-1l-.31-7.69c-.0007-.5333,.4173-.9733,.95-1,.5523,0,1,.4477,1,1l.36,7.69c0,.5523-.4477,1-1,1Z"/>
    <path fill="none" stroke="#000" stroke-linecap="round" stroke-linejoin="round" stroke-width="2" d="M37.2548,21c-3.06,.59-6.34-1.59-7.56-5.17-.8919-2.4129-.5165-5.1121,1-7.19,.6396-.8445,1.5173-1.4783,2.52-1.82"/>
    <path fill="none" stroke="#000" stroke-linecap="round" stroke-linejoin="round" stroke-width="2" d="M30.6448,8.65h0c0,.35,.62,6.84,9.94,5"/>
    <path fill="none" stroke="#000" stroke-linecap="round" stroke-linejoin="round" stroke-width="2" d="M33.1648,6.84s8.07-3.56,11.27,4c1.75,4.46,1.06,7.34,.39,8.46-.6233,.9691-1.7863,1.4446-2.91,1.19-.8306-.1804-1.4199-.9201-1.41-1.77l.09-5h0"/>
    <path d="M29.6148,50.81c-.7893-.0012-1.5777-.0546-2.36-.16-.5523-.0746-.9396-.5827-.865-1.135s.5827-.9396,1.135-.865c5.73,.79,7.18-1.45,8.73-4.65,2.31-5.72,1.92-13.35,1.91-13.43-.001-.5297,.4113-.9682,.94-1,.5488-.0284,1.0178,.3914,1.05,.94,0,.32,.42,8.15-2.07,14.32-1.54,3.17-3.34,5.98-8.47,5.98Z"/>
  </g>
</svg>
