<svg id="emoji" viewBox="0 0 72 72" xmlns="http://www.w3.org/2000/svg">
  <g id="line">
    <path fill="none" stroke="#000" stroke-linecap="round" stroke-linejoin="round" stroke-width="2" d="M40.6353,67c.2-1.1,.3-2.1,.5-3.2,1.4-2.8,2.8-5.6,4.1-8.4,.5781-.9315,.8894-2.0038,.9-3.1,.0018-.8907-.1679-1.7735-.5-2.6-.5638-1.746-.8671-3.5655-.9-5.4,0-1.3,.2-2.8,.5-5.7,.3-2.4,.5-4.1,.5-4.1,.2708-1.2135,.3717-2.4587,.3-3.7,.0293-.9904-.1407-1.9766-.5-2.9-.7124-1.9229-2.3169-3.3781-4.3-3.9-1.8535-.2929-3.7441,.2161-5.2,1.4-1.4385,1.1737-1.6496,2.4069-3.0353,5.6-.8923,2.0521-1.8937,4.0549-3,6-1.4642,.713-2.8031,1.6586-3.9647,2.8-1.3444,1.2601-2.4017,2.7949-3.1,4.5-.9317,2.0594-.9679,4.4129-.1,6.5,.5091,1.0896,1.2618,2.0476,2.2,2.8,1.0868,.8853,2.3473,1.5325,3.7,1.9,.7209,.243,1.4555,.4434,2.2,.6"/>
    <path d="M31.6353,68c-.5518-.0012-.9988-.4482-1-1l-.3-7.7c0-.5523,.4477-1,1-1s1,.4477,1,1l.3,7.7c.0332,.5191-.3607,.9668-.8798,1-.04,.0026-.0802,.0026-.1202,0Z"/>
    <path fill="none" stroke="#000" stroke-linecap="round" stroke-linejoin="round" stroke-width="2" d="M37.3353,20.8c-3.1,.6-6.4-1.6-7.6-5.2-.0075-.0228-.0227-.0665-.043-.1291-.7684-2.3911-.3831-5.0035,1.043-7.0709,.3615-.5176,.7864-.9879,1.2647-1.4"/>
    <path fill="none" stroke="#000" stroke-linecap="round" stroke-linejoin="round" stroke-width="2" d="M32.0353,7.9c1.682,3.2201,4.9689,5.284,8.6,5.4"/>
    <path fill="none" stroke="#000" stroke-linecap="round" stroke-linejoin="round" stroke-width="2" d="M32,7c.264-.1469,5.3761-2.8916,9.5353-.3,1.4139,.9017,2.5006,2.2338,3.1,3.8,.6974,1.8451,.5133,3.9077-.5,5.6-.5412,.8023-1.2755,1.4557-2.1353,1.9l-1.2647-4.5"/>
    <path d="M29.6353,50.7c-.7699-.0212-1.5379-.088-2.3-.2-.5135-.1221-.882-.5725-.9-1.1,0-.5,.6-.9,1.1-.9,5.7,.8,7.2-1.5,8.7-4.7,2.3-5.7,1.9-13.4,1.9-13.5-.0141-.539,.3688-1.0071,.9-1.1,.5-.1,1,.4,1.1,.9,0,.3,.4,8.2-2.1,14.4-1.4,3.4-3.2,6.2-8.4,6.2Z"/>
  </g>
</svg>
