<svg id="emoji" viewBox="0 0 72 72" xmlns="http://www.w3.org/2000/svg">
  <g id="line">
    <path fill="none" stroke="#000" stroke-linecap="round" stroke-linejoin="round" stroke-width="2" d="m37.1504,38.1907c.8984-2.1313,3.0071-3.6273,5.4652-3.6273,2.7134,0,5.0011,1.823,5.705,4.311"/>
    <path fill="none" stroke="#000" stroke-linecap="round" stroke-linejoin="round" stroke-width="2" d="m24.2429,42.0272c1.2789-1.9261,3.4677-3.1957,5.953-3.1957,3.9437,0,7.1407,3.197,7.1407,7.1407"/>
    <path fill="none" stroke="#000" stroke-linecap="round" stroke-linejoin="round" stroke-width="2" d="m9.0706,53.4535c-.3924-.9276-.6093-1.9475-.6093-3.0181,0-4.2822,3.4714-7.7536,7.7536-7.7536s7.7536,3.4714,7.7536,7.7536c0,.407-.0314.8068-.0918,1.1969"/>
    <path fill="none" stroke="#000" stroke-linecap="round" stroke-linejoin="round" stroke-width="2" d="m58.7291,27.1412c-1.9915,2.7356-6.9894,9.3146-11.3023,12.6357-4.6094,3.5494-14.917,9.2124-20.3572,11.2739-3.1883,1.2082-9.9243,2.5865-13.3135,2.9586-1.4704.1614-4.6588-.7777-5.9171,0-.7034.4348-1.4793,2.9586-1.4793,2.9586,0,0,2.2877.9958,2.9586,1.4793,1.2729.9174,3.7353,3.0801,5.1775,3.6982,5.1775,2.2189,11.72.7268,15.5325-.7396,9.6153-3.6984,18.2146-10.8182,22.9289-15.5325,2.9586-2.9586,5.2379-6.2644,8.1361-11.0946.6787-1.1312,1.0806-2.4007,1.3116-3.6182"/>
    <path fill="none" stroke="#000" stroke-linecap="round" stroke-linejoin="round" stroke-width="2" d="m65.6625,20.3392s.4503-.5609.8991-1.4835c.503-1.034.4496-3.1469.4496-3.1469"/>
    <path fill="none" stroke="#000" stroke-linecap="round" stroke-linejoin="round" stroke-width="2" d="m60.3106,22.8323c-1.1689.4355-2.1943,1.1038-3.0264,1.7787-1.4606,1.1846-2.3254,2.3891-2.3254,2.3891h5.0412v7.0596l2.7474-3.5961,2.2037,2.5903s.7114-4.3569.7114-5.4664c0-2.9586-.8741-4.0806-1.61-4.5678-.7114-.471-2.1554-.7782-3.7418-.1872v-.0002Z"/>
    <path fill="none" stroke="#000" stroke-linecap="round" stroke-linejoin="round" stroke-width="2" d="m48.2845,33.4631c.3761-1.8936,2.0468-3.321,4.0509-3.321,1.2114,0,2.301.5216,3.0565,1.3524"/>
    <path fill="none" stroke="#000" stroke-linecap="round" stroke-linejoin="round" stroke-width="2" d="m8.3827,53.7962s-.9854-.2463-1.1052-.3196c-.7325-.4489-1.136-.3697-2.1883-.8999-.799-.4025.9286-2.9166,1.8498-3.5009.4641-.2944,1.0704-.5863,1.7756-.8733"/>
  </g>
</svg>
