<svg id="emoji" viewBox="0 0 72 72" xmlns="http://www.w3.org/2000/svg">
  <g id="line">
    <path fill="none" stroke="#000" stroke-linecap="round" stroke-linejoin="round" stroke-width="2" d="M26.9116,31.3341a56.8265,56.8265,0,0,0,11.38,1.0548c2.1613,0,4.2361-.1,6.1646-.2836l2.2987,19.2876"/>
    <path fill="none" stroke="#000" stroke-linecap="round" stroke-linejoin="round" stroke-width="2" d="M32.2867,22.65c-7.2853.6737-12.5228,2.5392-12.5228,4.7351L17.2185,50.3636a2.4265,2.4265,0,0,0,1.1065,2.3191c2.1481,1.368,7.5709,3.5753,19.9734,3.2515,11.9421-.3118,17.4131-2.1334,19.72-3.2983a2.4422,2.4422,0,0,0,1.3389-2.4507l-2.5379-22.8c0-2.1548-5.0434-3.9915-12.1163-4.696"/>
    <path fill="none" stroke="#000" stroke-linecap="round" stroke-linejoin="round" stroke-width="2" d="M44.7163,22.7405c4.0012.5136,6.723,1.5254,6.723,2.69,0,1.6838-5.6927,3.0487-12.715,3.0487S26.0094,27.1139,26.0094,25.43c0-1.1229,2.532-2.104,6.3017-2.633"/>
    <path fill="none" stroke="#000" stroke-linecap="round" stroke-linejoin="round" stroke-width="2" d="M32.6165,25.1236V23.648a3.6143,3.6143,0,0,1,3.6143-3.6142h4.9871a3.6143,3.6143,0,0,1,3.6143,3.6142V25.43"/>
    <path fill="none" stroke="#000" stroke-linecap="round" stroke-linejoin="round" stroke-width="2" d="M17.8631,44.5445,11.4,32.9526a14.7662,14.7662,0,0,0-1.0619-1.7869L7.1976,28.4788a.1893.1893,0,0,1,.0475-.3287l4.1916-.5607L19.114,33.252"/>
  </g>
</svg>
