<svg id="emoji" viewBox="0 0 72 72" xmlns="http://www.w3.org/2000/svg">
  <g id="line-supplement">
    <path fill="none" stroke="#000" stroke-linecap="round" stroke-linejoin="round" stroke-width="2" d="m43.8729,12.1456l-15.5715,3.7549c-1.1638-.367-2.3957-.4649-3.6028-.2864"/>
    <path fill="none" stroke="#000" stroke-linecap="round" stroke-linejoin="round" stroke-width="2" d="m25.4278,18.8249s2.4881-1.0812,2.8736-2.9244"/>
    <path fill="none" stroke="#000" stroke-linecap="round" stroke-linejoin="round" stroke-width="1.8827" d="m19.9477,15.4187l2.7744-.6674c.8685-.2088,1.7418.3258,1.9508,1.1943l.6936,2.8833"/>
    <path fill="none" stroke="#000" stroke-linecap="round" stroke-linejoin="round" stroke-width="1.8827" d="m19.9477,15.4187l2.7744-.6674c.8685-.2088,1.7418.3258,1.9508,1.1943l.6936,2.8833"/>
    <path fill="none" stroke="#000" stroke-linecap="round" stroke-linejoin="round" stroke-width="2" d="m19.2691,30.2917c2.2176-5.2121-.224-11.71-.224-11.71l-.2916-1.2117c-.2089-.8685.3257-1.7419,1.1942-1.9508,0,0,3.8734-1.0686,5.4188,3.41.327.8582-.0698,1.8228-.9061,2.2024l-.26.2452c-1.0331,1.2294-3.5613,4.6335.1713,9.2105"/>
  </g>
  <g id="line">
    <path fill="none" stroke="#000" stroke-linecap="round" stroke-linejoin="round" stroke-width="2" d="m10.3814,31.265h39.4064c1.3592,0,2.4611,1.1019,2.4611,2.4611,0,.1362-.0113.2722-.0338.4065l-.4369,2.6079c-.758,4.5237-4.6732,7.8378-9.26,7.8382h-24.8518c-4.5673-.0002-8.4721-3.2867-9.2518-7.787l-.4582-2.6457c-.232-1.3392.6657-2.6129,2.0049-2.8449.1387-.024.2793-.0361.4201-.0361Z"/>
    <path fill="none" stroke="#000" stroke-linecap="round" stroke-linejoin="round" stroke-width="2" d="m52.123,34.6824l2.4762,1.003c.4052.1641.8382.2485,1.2753.2485h.722c.428,0,.8521-.0808,1.25-.2382l3.4264-1.3557c1.7445-.6904,3.7183.1641,4.4087,1.9085.1575.398.2384.8222.2384,1.2502v.84c0,1.8761-1.5207,3.397-3.3967,3.3971-.4328,0-.8615-.0827-1.2633-.2436l-3.1277-1.2522c-.4017-.1608-.8303-.2435-1.263-.2435h-1.5561c-.1602,0-.3202.0113-.4788.0339l-4.7151.6713"/>
    <path fill="none" stroke="#000" stroke-linecap="round" stroke-linejoin="round" stroke-width="2" d="m43.5227,11.9607h0c-.1711-.7959.3027-1.5885,1.0848-1.8147l7.7625-2.2437c1.121-.3242,2.2927.3217,2.6169,1.4427.0137.0472.0257.0949.036.143h0c.2452,1.141-.4809,2.2647-1.6219,2.51-.0478.0103-.096.0189-.1444.0258l-7.999,1.1454c-.8059.1153-1.5637-.4125-1.7349-1.2085Z"/>
    <polyline fill="none" stroke="#000" stroke-linecap="round" stroke-linejoin="round" stroke-width="2" points="19.585 58.005 20.991 47.567 39.178 47.567 40.585 58.005"/>
    <path fill="none" stroke="#000" stroke-linecap="round" stroke-linejoin="round" stroke-width="2" d="m15.67,58.9909h0c0,1.0566.8566,1.9132,1.9132,1.9132h25.003c1.0566,0,1.9132-.8566,1.9132-1.9132h0"/>
    <path fill="none" stroke="#000" stroke-linecap="round" stroke-linejoin="round" stroke-width="2" d="m30.0846,60.9041s-5.3988.0728-5.3988-4.8855c1.1961.0261,2.3788.2571,3.4967.6831,0,0,1.077-3.0067,1.9021-3.381.8976.8855,1.4261,2.0784,1.4789,3.3382,1.2098-.6303,2.5903-.8547,3.9374-.64,0,0-.9539,4.8852-5.4163,4.8852Z"/>
  </g>
</svg>
