<svg id="emoji" viewBox="0 0 72 72" version="1.1" xmlns="http://www.w3.org/2000/svg">
  <g id="line">
    <path id="top" fill="none" stroke="#000000" stroke-linecap="round" stroke-linejoin="round" stroke-width="2" d="m22.341 28c1.9346-2.9518 4.598-6.25 10.571-6.25l.0875-2.75c.40077-1.6654 1.6087-1.9855 3-2 1.3913.01446 2.5992.33461 3 2l.0875 2.75c5.9732 0 8.6367 3.2982 10.571 6.25"/>
    <path id="spout" fill="none" stroke="#000000" stroke-linecap="round" stroke-linejoin="round" stroke-width="2" d="m18.273 38c-1.6774-.50081-3.9642-3.3214-5.055-5.3813l-4.7256-1.6187c-.03625 7.2702 8.4702 12.736 9.7639 12.939"/>
    <path id="body_lhs" fill="none" stroke="#000000" stroke-linejoin="round" stroke-width="2" d="m22.342 28c-10.115 19.308 1.7766 27.301 7.3792 27.016h12.556c5.6026.34797 17.497-7.7078 7.3812-27.016z"/>
    <path id="handle_in" fill="none" stroke="#000000" stroke-linecap="round" stroke-linejoin="round" stroke-width="2" d="m52.282 33.863 4.7565-.0625c4.3904-.19398 2.059 7.2093 1.1784 9.0661-.94319 2.3026 1.6621 4.2152 3.4766 2.3726 3.4084-4.9319 2.8179-14.73-1.125-15.251h-9.8858"/>
  </g>
</svg>
