<svg id="emoji" viewBox="0 0 72 72" xmlns="http://www.w3.org/2000/svg">
  <g id="line">
    <path fill="none" stroke="#000" stroke-linecap="round" stroke-linejoin="round" stroke-width="2" d="M30.6019,30.0979c-.7559-1.026-3.0468-3.6815-6.5091-3.6815-4.2913,0-5.1713,4.9052-5.1713,4.9052s-1.9612,16.43,4.4506,25.573c4.5587,6.5009,7.4164,3.7576,8.6874,1.6289"/>
    <path fill="none" stroke="#000" stroke-linecap="round" stroke-linejoin="round" stroke-width="2" d="M41.0119,30.4958s2.4917-4.0794,6.783-4.0794,5.1713,4.9052,5.1713,4.9052,1.9612,16.43-4.4506,25.573c-4.1538,5.9235-6.8953,4.172-8.3111,2.2038"/>
    <path fill="none" stroke="#000" stroke-linecap="round" stroke-linejoin="round" stroke-width="2" d="M41.635,29.2141a7.6351,7.6351,0,0,0-5.7767-2.7977c-4.1168.1745-5.8558,4.9052-5.8558,4.9052a37.9215,37.9215,0,0,0-1.8073,12.3659"/>
    <path fill="none" stroke="#000" stroke-linecap="round" stroke-linejoin="round" stroke-width="2" d="M30.3566,57.31c.8186,0,1.7025,1.2132,1.7025,1.2132,3.6354,4.1062,6.4076,2.3556,8.148.5733,0,0,1.2724-1.7865,2.38-1.7865"/>
    <path fill="none" stroke="#000" stroke-linecap="round" stroke-linejoin="round" stroke-width="2" d="M30.4581,25.9a7.7934,7.7934,0,0,1,4.3656-2.226S33.921,14.9711,40.8224,16a11.3515,11.3515,0,0,1,4.2183,1.6255,1.991,1.991,0,0,1,.2244,3.0754h0a2.0116,2.0116,0,0,1-2.4077.2618c-1.695-.984-4.5364-2.0851-4.6067,2.9516a18.9983,18.9983,0,0,1,3.5351,1.8505"/>
  </g>
</svg>
