<svg id="emoji" viewBox="0 0 72 72" xmlns="http://www.w3.org/2000/svg">
  <g id="line">
    <path fill="none" stroke="#000" stroke-linecap="round" stroke-width="2.0715" d="M34.4185,62.0375c-.3044-1.1874-.8051-2.782-1.6549-4.5621-.248-.5196-1.9914-3.9647-4.7289-6.7613-5.5137-5.6328-14.1275-5.4056-15.2306-9.0947-.2293-.7668-.2058-1.6502,.1436-2.6886,2.557-7.5986,10.8739,.5712,13.0677-3.6912,2.1938-4.2625-11.9304-17.2592-2.7292-22.1503,0,0,1.9276-1.0906,4.3887-.937,3.4658,.2162,7.3156,4.5237,9.0098,10.9051"/>
    <path fill="none" stroke="#000" stroke-linecap="round" stroke-width="2.0715" d="M37.5258,15.4282c2.0715-3.1073,3.6306-5.7691,6.4036-5.8484,2.4715-.0706,4.41,1.6913,4.8134,2.049,.102,.0904,1.4851,1.411,2.0097,3.1201,1.4059,4.5804-4.6028,7.9578-7.0121,17.2515-1.308,5.0458-.2039,6.0403,.1034,6.2565,1.1708,.8238,2.8069-.8426,5.0754-.0419,1.7794,.628,3.2764,2.5368,3.1073,4.143-.1748,1.6599-2.0282,2.0398-3.1107,3.4991-1.2216,1.6468-1.641,4.9099,2.0749,12.0373"/>
    <path fill="none" stroke="#000" stroke-linecap="round" stroke-width="2.0715" d="M50.9907,57.8945c.3278,1.8473-3.8676,4.2765-7.2503,5.1788-3.6598,.9762-8.7281,.7945-9.3219-1.0358-.5881-1.8129,3.2259-5.2065,7.2503-6.2146,4.0375-1.0113,8.9902,.2022,9.3219,2.0715Z"/>
    <path fill="none" stroke="#000" stroke-linecap="round" stroke-width="2.0715" d="M43.7761,49.7495c2.1139,.2165,3.6663,.9626,4.2239,1.2505"/>
    <path fill="none" stroke="#000" stroke-linecap="round" stroke-width="2.0715" d="M28.4185,50.0375c.3295-.641,4.5721-4.83,9.5815-6.0375,.7552-.1821,1.6276-.2744,2.5509-.3015"/>
    <path fill="none" stroke="#000" stroke-linecap="round" stroke-width="2.0715" d="M33.5,33.5168c1.4896-.7481,2.693-1.3873,4.5-1.5168,2.107-.1511,3.8717,.4741,5,1"/>
    <path fill="none" stroke="#000" stroke-linecap="round" stroke-width="2.0715" d="M32.6923,20.0707c.8769-.074,1.6554-.0857,2.3077-.0707"/>
    <path fill="none" stroke="#000" stroke-linecap="round" stroke-width="2.0715" d="M22,24c1.3145-.9385,3.3268-2.1524,6-3,.106-.0336,.2115-.0661,.3164-.0977"/>
  </g>
</svg>
