<svg id="emoji" viewBox="0 0 72 72" version="1.1" xmlns="http://www.w3.org/2000/svg">
  <g id="line">
    <path stroke-width="1.322" d="m23.96 28.74c-0.2363 2.06-1.8 3.731-3.488 3.731s-2.868-1.67-2.632-3.731c0.2362-2.058 1.8-3.731 3.488-3.731s2.868 1.673 2.632 3.731"/>
    <path stroke-width="1.322" d="m48.04 28.74c0.2363 2.06 1.8 3.731 3.488 3.731s2.868-1.67 2.632-3.731c-0.2362-2.058-1.8-3.731-3.488-3.731s-2.868 1.673-2.632 3.731"/>
    <circle cx="36" cy="36" r="23" fill="none" stroke="#000" stroke-miterlimit="10" stroke-width="2"/>
    <path fill="none" stroke="#000" stroke-miterlimit="10" stroke-width="2" d="m30.4 29.24c-0.6985 5.002-4.822 9.057-9.199 9.057s-7.368-4.055-6.67-9.057c0.6977-4.996 4.822-9.057 9.199-9.057s7.368 4.06 6.67 9.057"/>
    <path fill="none" stroke="#000" stroke-linecap="round" stroke-linejoin="round" stroke-miterlimit="10" stroke-width="2" d="m41.63 29.24c0.6985 5.002 4.822 9.057 9.199 9.057s7.368-4.055 6.67-9.057c-0.6977-4.996-4.822-9.057-9.199-9.057s-7.368 4.06-6.67 9.057"/>
    <path fill="none" stroke="#000" stroke-linecap="round" stroke-linejoin="round" stroke-miterlimit="10" stroke-width="2" d="m42.5 52.1c-1.284 0.6376-11.83 0.5835-13 0"/>
  </g>
</svg>
