<svg id="emoji" viewBox="0 0 72 72" xmlns="http://www.w3.org/2000/svg">
  <g id="line">
    <path fill="none" stroke="#000" stroke-linecap="round" stroke-linejoin="round" stroke-width="2" d="M21.4,54.1812a22.9961,22.9961,0,1,1,23.5781,3.5336"/>
    <path d="M29.9772,33.491a3,3,0,1,1-3-3,3.0011,3.0011,0,0,1,3,3"/>
    <path d="M47.9772,33.491a3,3,0,1,1-3-3,3.0011,3.0011,0,0,1,3,3"/>
    <g id="Group_170521">
      <path id="Path_95789-2" fill="none" stroke="#000" stroke-linecap="round" stroke-linejoin="round" stroke-width="2" d="M33.4011,63.7719c3.9536.6107,5.2606-1.7531,6.4189-4.2689l3.9711-8.8146a1.6655,1.6655,0,0,0-.565-2.1538q-.0675-.042-.139-.0773a1.6192,1.6192,0,0,0-2.1688.7352L39.19,52.6933"/>
      <path id="Path_95789-2-2" fill="none" stroke="#000" stroke-linecap="round" stroke-linejoin="round" stroke-width="2" d="M27.6994,61.5368a5.83,5.83,0,0,0,.8987.5889h0a17.6684,17.6684,0,0,0,4.803,1.6462"/>
      <path id="Path_95789-2-3" fill="none" stroke="#000" stroke-linecap="round" stroke-linejoin="round" stroke-width="2" d="M29.8521,49.5252s.5275-4.1239-1.318-4.4739a1.5178,1.5178,0,0,0-1.2256.2956c-.6974.514-1.1115,2.4661-1.3514,4.34a58.6825,58.6825,0,0,0-.4557,7.3331"/>
      <path id="Path_95788-2" fill="none" stroke="#000" stroke-linecap="round" stroke-linejoin="round" stroke-width="2" d="M37.1044,49.6023l2.0194-4.0908a1.6656,1.6656,0,0,1,2.0534-.8612,1.62,1.62,0,0,1,.9443,2.0866q-.0279.0742-.0631.1456L40.735,49.5634"/>
      <path id="Path_95786-2" fill="none" stroke="#000" stroke-linecap="round" stroke-linejoin="round" stroke-width="2" d="M33.6621,49.2593l2.3281-4.716q.0352-.0712.0633-.1459a1.6193,1.6193,0,0,0-.9445-2.0862,1.6655,1.6655,0,0,0-2.0534.8612l-3.2035,6.3528"/>
      <path id="Path_95787-2" fill="none" stroke="#000" stroke-linecap="round" stroke-linejoin="round" stroke-width="2" d="M35.5538,45.4278l1.3179-2.67a1.6656,1.6656,0,0,1,2.0534-.8612,1.6194,1.6194,0,0,1,.9445,2.0863q-.028.0744-.0633.1459l-1.1539,2.3376"/>
    </g>
  </g>
</svg>
