<svg id="emoji" viewBox="0 0 72 72" xmlns="http://www.w3.org/2000/svg">
  <g id="line">
    <g id="line-2">
      <g id="line-3">
        <path fill="none" stroke="#000" stroke-miterlimit="10" stroke-width="2" d="M35.6,13.9c.7302-.0832,1.4652-.1166,2.2-.1,12.7025,0,23,10.2975,23,23s-10.2975,23-23,23-23-10.2975-23-23h0c.0076-2.3758,.3785-4.7364,1.1-7"/>
        <path fill="none" stroke="#000" stroke-linecap="round" stroke-linejoin="round" stroke-width="2" d="M28.9,43.8l5.9,.5c2.0618,.2,4.1382,.2,6.2,0l6-.5"/>
        <path d="M31.9,31.8c0,1.6569-1.3431,3-3,3s-3-1.3431-3-3,1.3431-3,3-3h0c1.6549,.0047,2.9953,1.3451,3,3"/>
        <path d="M49.9,31.8c0,1.6569-1.3431,3-3,3s-3-1.3431-3-3,1.3431-3,3-3h0c1.627-.0298,2.9702,1.265,3,2.892,.0007,.036,.0007,.072,0,.108"/>
      </g>
      <path fill="none" stroke="#000" stroke-linecap="round" stroke-linejoin="round" stroke-width="2" d="M10.3,34l7.3-5.9c1.7,1.3,1.8,1.1,3.9,1,2.5,0,4.2-2.7,7.1-3,2.7-.5,2.1-3.2,.4-3.4l-7.3,.9s8.6-5.5,14.4-9.9c0,0-1.0156-.9766-2.9004-1.2451-1.1309-.1611-2.5746-.0674-4.2996,.6451l-10.3,5.6c-1.9183,1.0122-3.7278,2.2185-5.4,3.6-2.3,1.8-4.2,3.3-6,4.7"/>
    </g>
  </g>
</svg>
