<svg id="emoji" viewBox="0 0 72 72" xmlns="http://www.w3.org/2000/svg">
  <g id="line">
    <path fill="none" stroke="#000" stroke-linecap="round" stroke-linejoin="round" stroke-width="1.879" d="m5.2026,66.6568v-15.0323l36.0775-3.3729c-2.4334,8.0705,1.5032,15.5866,8.0799,18.4052H5.2026Z"/>
    <g id="line-2">
      <path fill="none" stroke="#000" stroke-linecap="round" stroke-linejoin="round" stroke-width="1.879" d="m47.481,64.7778c0-.6201,3.7581-5.6371,5.6371-5.6371,2.8186,0,6.4639-5.1674,6.5766-7.5161,0,0,.1221-4.0024.9395-5.6371,1.879-3.7581,2.8186-12.2137,0-13.1533s-4.6976.9395-4.6976,5.6371c0,2.8186-3.7581,4.6976-3.7581,8.4557"/>
    </g>
    <path fill="none" stroke="#000" stroke-linecap="round" stroke-linejoin="round" stroke-width="1.879" d="m57.9566,29.123V8.961c-.2923-1.3436-1.6185-2.1959-2.9621-1.9035-1.0679.2323-1.8595,1.134-1.9516,2.223l-2.4709,16.7328c-.4322,2.7152-1.6442,2.7152-2.1139,5.4304-.6483,5.2895-1.259,14.5437-7.488,18.3018"/>
  </g>
</svg>
