<svg id="emoji" viewBox="0 0 72 72" version="1.1" xmlns="http://www.w3.org/2000/svg">
  <g id="line">
    <path fill="none" stroke="#000" stroke-linecap="round" stroke-linejoin="round" stroke-width="2" d="m15.05 43.95s-7.133-5.822-8.537-8.259c-4.392-7.595 0.9489-19.79 10.44-21.82"/>
    <path fill="none" stroke="#000" stroke-linecap="round" stroke-linejoin="round" stroke-width="2" d="m38.71 42.99 12.89 7.021"/>
    <path fill="none" stroke="#000" stroke-linecap="round" stroke-linejoin="round" stroke-width="2" d="m33.87 47.79 13 6.498"/>
    <path fill="none" stroke="#000" stroke-linecap="round" stroke-linejoin="round" stroke-width="2" d="m58.18 45.72-5.1-4.358-8.279-4.335"/>
    <path fill="none" stroke="#000" stroke-linecap="round" stroke-linejoin="round" stroke-width="2" d="m37.49 56.29c8.574 5.466 10.79-0.2955 9.387-1.994 2.734 1.625 6.209-0.517 4.731-4.283 3.844 1.847 7.022-1.034 6.579-4.283 3.326 0.591 5.395-2.142 4.435-5.392 6.721-4.585 5.041-19.03-0.09878-25.36-9.287-1.459-11-2.362-20.98-3.943l-13.53-0.6185c-2.005-0.529-4.081 0.5703-4.779 2.533-0.7519 2.816-1.677 4.971-3.599 8.378-0.7286 1.786 0.1048 3.829 1.872 4.588 1.908 0.4767 2.78-0.386 4.46-1.686 2.195-2.102 2.628-2.996 3.805-4.575l13.64 6.204 12.72 7.164c2.514 1.698 5.012 5.844 6.51 7.321"/>
    <path fill="none" stroke="#000" stroke-linecap="round" stroke-linejoin="round" stroke-width="2" d="m31.51 54.15c1.109-1.477 2.666-1.713 4.144-0.9003 1.405 0.8125 2.439 2.362 1.478 4.063l-1.774 3.101c-1.109 1.477-3.178 1.698-4.582 0.6647-1.234-0.9245-1.592-2.518-1.076-3.836 1.81-3.094 0 0 1.81-3.094z"/>
    <path fill="none" stroke="#000" stroke-linecap="round" stroke-linejoin="round" stroke-width="2" d="m25.84 50.98c1.109-1.477 2.666-1.713 4.144-0.9003 1.405 0.8125 2.439 2.362 1.478 4.063l-1.774 3.101c-1.109 1.477-3.178 1.698-4.582 0.6647-1.234-0.9245-1.592-2.518-1.076-3.836 1.81-3.094 0 0 1.81-3.094z"/>
    <path fill="none" stroke="#000" stroke-linecap="round" stroke-linejoin="round" stroke-width="2" d="m20.18 47.82c1.109-1.477 2.666-1.713 4.144-0.9003 1.405 0.8125 2.439 2.362 1.478 4.063l-1.774 3.101c-1.109 1.477-3.178 1.698-4.582 0.6647-1.234-0.9245-1.592-2.518-1.076-3.836 1.81-3.094 0 0 1.81-3.094z"/>
    <path fill="none" stroke="#000" stroke-linecap="round" stroke-linejoin="round" stroke-width="2" d="m14.53 44.65c1.109-1.477 2.666-1.713 4.144-0.9003 1.405 0.8125 2.439 2.362 1.478 4.063l-1.774 3.101c-1.109 1.477-3.178 1.698-4.582 0.6647-1.234-0.9245-1.592-2.518-1.076-3.836 1.81-3.094 0 0 1.81-3.094z"/>
  </g>
</svg>
