<?xml version="1.0" encoding="utf-8"?>
<!-- Generator: Adobe Illustrator 21.1.0, SVG Export Plug-In . SVG Version: 6.00 Build 0)  -->
<svg version="1.1" id="emoji" xmlns="http://www.w3.org/2000/svg" xmlns:xlink="http://www.w3.org/1999/xlink" x="0px" y="0px"
	 viewBox="0 0 72 72" enable-background="new 0 0 72 72" xml:space="preserve">
<g id="_x23EC__1_">
	<g>
		<path fill="none" stroke="#1D1D1B" stroke-width="2" stroke-linecap="round" stroke-linejoin="round" stroke-miterlimit="10" d="
			M45.3,29.4l9-16.4c0.8-1,1-2.5,0.5-3.7c-0.6-1.4-2-2.3-3.5-2.3H20.8c-1.5,0-2.9,0.9-3.5,2.3c-0.2,0.5-0.3,1-0.3,1.5
			c0,0.8,0.3,1.6,0.7,2.3l8.9,16.4"/>
	</g>
	<g>
		<path fill="none" stroke="#1D1D1B" stroke-width="2" stroke-linecap="round" stroke-linejoin="round" stroke-miterlimit="10" d="
			M26.6,29.4h-5.8c-1.5,0-2.9,0.9-3.5,2.3c-0.2,0.5-0.3,1-0.3,1.5c0,0.8,0.3,1.6,0.7,2.3L33,63.6l0.3,0.3c0.7,0.7,1.6,1.1,2.7,1.1
			s2-0.4,2.7-1.1l0.3-0.3l15.4-28.1c0.8-1,1-2.5,0.5-3.7c-0.6-1.4-2-2.3-3.5-2.3h-5.9 M45.3,29.4H26.6"/>
	</g>
</g>
</svg>
