<?xml version="1.0" encoding="utf-8"?>
<!-- Generator: Adobe Illustrator 19.1.0, SVG Export Plug-In . SVG Version: 6.00 Build 0)  -->
<svg version="1.1" id="emoji" xmlns="http://www.w3.org/2000/svg" xmlns:xlink="http://www.w3.org/1999/xlink" x="0px" y="0px"
	 viewBox="0 0 72 72" enable-background="new 0 0 72 72" xml:space="preserve">
<g id="_x23EE__xFE0F__1_">
	<g>
		<g>
			<path fill="none" stroke="#1D1D1B" stroke-width="2" stroke-linejoin="round" stroke-miterlimit="10" d="M45.1,45.4l16,8.9
				c1,0.8,2.5,1,3.7,0.5c1.4-0.6,2.3-2,2.3-3.5V20.8c0-1.5-0.9-2.9-2.3-3.5c-0.4-0.2-0.9-0.3-1.4-0.3c-0.8,0-1.6,0.3-2.2,0.7
				l-16.1,8.9"/>
		</g>
		<g>
			<path fill="none" stroke="#1D1D1B" stroke-width="2" stroke-linejoin="round" stroke-miterlimit="10" d="M44.9,45.3V26.6
				 M44.9,26.6v-5.8c0-1.5-0.9-2.9-2.3-3.5c-0.4-0.2-0.9-0.3-1.4-0.3c-0.8,0-1.6,0.3-2.2,0.7L11.4,33l-0.3,0.3
				C10.4,34,10,34.9,10,35.9s0.4,2,1.1,2.7l0.3,0.3L39,54.3c1,0.8,2.5,1,3.7,0.5c1.4-0.6,2.3-2,2.3-3.5v-5.9"/>
		</g>
	</g>
	<g>
		
			<rect x="5" y="17" fill="none" stroke="#1D1D1B" stroke-width="2" stroke-linejoin="round" stroke-miterlimit="10" width="5" height="38"/>
	</g>
</g>
</svg>
