<?xml version="1.0" encoding="utf-8"?>
<!-- Generator: Adobe Illustrator 19.1.0, SVG Export Plug-In . SVG Version: 6.00 Build 0)  -->
<svg version="1.1" id="emoji" xmlns="http://www.w3.org/2000/svg" xmlns:xlink="http://www.w3.org/1999/xlink" x="0px" y="0px"
	 viewBox="0 0 72 72" enable-background="new 0 0 72 72" xml:space="preserve">
<g id="_x23EF__xFE0F__2_">
	<g>
		<g>
			<g>
				<path fill="#1D1D1B" d="M7.8,18c0.4,0,0.7,0.1,0.9,0.3c0.1,0.1,0.2,0.1,0.3,0.2l27.4,16l0.1,0.1c0,0,0,0,0.1,0.1
					c0.3,0.3,0.5,0.8,0.5,1.4c0,0.6-0.2,1-0.6,1.4l-0.1,0.1L9,53.5c-0.1,0-0.1,0.1-0.2,0.1C8.5,53.9,8.1,54,7.7,54
					c-0.2,0-0.5-0.1-0.7-0.1C6.4,53.6,6,52.8,6,52V20c0-0.8,0.4-1.6,1.1-1.9C7.3,18,7.5,18,7.8,18 M7.8,16c-0.5,0-1,0.1-1.5,0.3
					C4.9,16.9,4,18.4,4,20v32c0,1.6,0.9,3.1,2.3,3.7C6.7,55.9,7.2,56,7.7,56c0.8,0,1.6-0.3,2.2-0.8l27.6-16.1l0.3-0.3
					c0.7-0.8,1.1-1.7,1.1-2.8s-0.4-2.1-1.1-2.8L37.6,33L10,16.8C9.4,16.3,8.6,16,7.8,16L7.8,16z"/>
			</g>
		</g>
	</g>
	<g>
		
			<rect x="49" y="17" fill="none" stroke="#1D1D1B" stroke-width="2" stroke-linejoin="round" stroke-miterlimit="10" width="5" height="38"/>
	</g>
	<g>
		
			<rect x="62" y="17" fill="none" stroke="#1D1D1B" stroke-width="2" stroke-linejoin="round" stroke-miterlimit="10" width="5" height="38"/>
	</g>
</g>
</svg>
