<?xml version="1.0" encoding="utf-8"?>
<!-- Generator: Adobe Illustrator 19.1.0, SVG Export Plug-In . SVG Version: 6.00 Build 0)  -->
<svg version="1.1" id="emoji" xmlns="http://www.w3.org/2000/svg" xmlns:xlink="http://www.w3.org/1999/xlink" x="0px" y="0px"
	 viewBox="0 0 72 72" enable-background="new 0 0 72 72" xml:space="preserve">
<g id="_x23F0_">
	<path fill="none" stroke="#1D1D1B" stroke-width="2" stroke-linecap="round" stroke-linejoin="round" stroke-miterlimit="10" d="
		M36.1,12.6"/>
	<path fill="none" stroke="#1D1D1B" stroke-width="2" stroke-linecap="round" stroke-linejoin="round" stroke-miterlimit="10" d="
		M36.1,19.1"/>
	<path fill="none" stroke="#1D1D1B" stroke-width="2" stroke-linecap="round" stroke-linejoin="round" stroke-miterlimit="10" d="
		M36.1,19.2"/>
	<path fill="none" stroke="#1D1D1B" stroke-width="2" stroke-linecap="round" stroke-linejoin="round" stroke-miterlimit="10" d="
		M36.1,12.8"/>
	<g>
		
			<line fill="#FFFFFF" stroke="#000000" stroke-width="2" stroke-linecap="round" stroke-linejoin="round" stroke-miterlimit="10" x1="50.4" y1="55" x2="53.2" y2="59.9"/>
		
			<line fill="#FFFFFF" stroke="#000000" stroke-width="2" stroke-linecap="round" stroke-linejoin="round" stroke-miterlimit="10" x1="21.8" y1="55" x2="19" y2="59.9"/>
	</g>
	<path fill="#CFCFCE" stroke="#CFCFCE" stroke-width="2" stroke-miterlimit="10" d="M36.1,19"/>
	<path fill="#CFCFCE" stroke="#CFCFCE" stroke-width="2" stroke-miterlimit="10" d="M36.1,19"/>
	<path fill="none" stroke="#000000" stroke-width="2" stroke-linecap="round" stroke-linejoin="round" stroke-miterlimit="10" d="
		M49,12.6c1-0.9,2.2-1.4,3.6-1.4c3,0,5.5,2.5,5.5,5.5c0,1.1-0.3,2.1-0.9,3"/>
	<path fill="none" stroke="#000000" stroke-width="2" stroke-linecap="round" stroke-linejoin="round" stroke-miterlimit="10" d="
		M23.3,12.6c-1-0.9-2.2-1.4-3.6-1.4c-3,0-5.5,2.5-5.5,5.5c0,1.1,0.3,2.1,0.9,3"/>
	
		<circle fill="none" stroke="#000000" stroke-width="2" stroke-linecap="round" stroke-linejoin="round" stroke-miterlimit="10" cx="36.1" cy="36.3" r="23"/>
	<g>
		
			<line fill="#FFFFFF" stroke="#000000" stroke-width="2" stroke-linecap="round" stroke-linejoin="round" stroke-miterlimit="10" x1="36.1" y1="19" x2="36.1" y2="36"/>
		
			<line fill="#FFFFFF" stroke="#000000" stroke-width="2.0785" stroke-linecap="round" stroke-linejoin="round" stroke-miterlimit="10" x1="36.1" y1="35.9" x2="30.1" y2="46.3"/>
	</g>
</g>
</svg>
