<?xml version="1.0" encoding="utf-8"?>
<!-- Generator: Adobe Illustrator 19.1.0, SVG Export Plug-In . SVG Version: 6.00 Build 0)  -->
<svg version="1.1" id="emoji" xmlns="http://www.w3.org/2000/svg" xmlns:xlink="http://www.w3.org/1999/xlink" x="0px" y="0px"
	 viewBox="0 0 72 72" enable-background="new 0 0 72 72" xml:space="preserve">
<path fill="none" stroke="#1D1D1B" stroke-width="2" stroke-linecap="round" stroke-linejoin="round" stroke-miterlimit="10" d="
	M31,34c-7.3-1.9-10-9.5-10-14.3c0-4.8,0-6.7,0-6.7"/>
<path fill="none" stroke="#1D1D1B" stroke-width="2" stroke-linecap="round" stroke-linejoin="round" stroke-miterlimit="10" d="
	M21,59c0,0,0-1.9,0-6.7c0-4.8,2.7-12.4,10-14.3"/>
<path fill="none" stroke="#1D1D1B" stroke-width="2" stroke-linecap="round" stroke-linejoin="round" stroke-miterlimit="10" d="
	M31,38c1-0.3,2-0.9,2-2c0-1.1-1-1.7-2-2"/>
<path fill="none" stroke="#1D1D1B" stroke-width="2" stroke-linecap="round" stroke-linejoin="round" stroke-miterlimit="10" d="
	M41,34c7.3-1.9,10-9.5,10-14.3c0-4.8,0-6.7,0-6.7"/>
<path fill="none" stroke="#1D1D1B" stroke-width="2" stroke-linecap="round" stroke-linejoin="round" stroke-miterlimit="10" d="
	M51,59c0,0,0-1.9,0-6.7c0-4.8-2.7-12.4-10-14.3"/>
<path fill="none" stroke="#1D1D1B" stroke-width="2" stroke-linecap="round" stroke-linejoin="round" stroke-miterlimit="10" d="
	M41,38c-1-0.3-2-0.9-2-2c0-1.1,1-1.7,2-2"/>
<path fill="none" stroke="#000000" stroke-width="2" stroke-linecap="round" stroke-linejoin="round" stroke-miterlimit="10" d="
	M25,55c6.1,0,11-4.9,11-11c0,6.1,4.9,11,11,11"/>
<path fill="none" stroke="#000000" stroke-width="2" stroke-linecap="round" stroke-linejoin="round" stroke-miterlimit="10" d="
	M55,11c0,1.1-0.9,2-2,2H19c-1.1,0-2-0.9-2-2v-1c0-1.1,0.9-2,2-2h34c1.1,0,2,0.9,2,2V11z"/>
<line fill="none" stroke="#000000" stroke-width="2" stroke-linecap="round" stroke-linejoin="round" stroke-miterlimit="10" x1="47" y1="18" x2="25" y2="18"/>
<path fill="none" stroke="#000000" stroke-width="2" stroke-linecap="round" stroke-linejoin="round" stroke-miterlimit="10" d="
	M55,62c0,1.1-0.9,2-2,2H19c-1.1,0-2-0.9-2-2v-1c0-1.1,0.9-2,2-2h34c1.1,0,2,0.9,2,2V62z"/>
<line fill="#FFFFFF" stroke="#000000" stroke-width="2" stroke-linecap="round" stroke-linejoin="round" stroke-miterlimit="10" x1="36" y1="39" x2="36" y2="44"/>
</svg>
