<svg id="emoji" viewBox="0 0 72 72" xmlns="http://www.w3.org/2000/svg">
  <g id="line">
    <path fill="none" stroke="#000" stroke-linecap="round" stroke-linejoin="round" stroke-width="2" d="m31,34c-7.2725-1.9092-10-9.5454-10-14.3184v-6.6816"/>
    <path fill="none" stroke="#000" stroke-linecap="round" stroke-linejoin="round" stroke-width="2" d="m21,59v-6.6816c0-4.7725,2.7275-12.4092,10-14.3184"/>
    <path fill="none" stroke="#000" stroke-linecap="round" stroke-linejoin="round" stroke-width="2" d="m31,38c1-.2715,2-.8945,2-2,0-1.1045-1-1.7285-2-2"/>
    <path fill="none" stroke="#000" stroke-linecap="round" stroke-linejoin="round" stroke-width="2" d="m41,34c7.2725-1.9092,10-9.5454,10-14.3184v-6.6816"/>
    <path fill="none" stroke="#000" stroke-linecap="round" stroke-linejoin="round" stroke-width="2" d="m51,59v-6.6816c0-4.7725-2.7275-12.4092-10-14.3184"/>
    <path fill="none" stroke="#000" stroke-linecap="round" stroke-linejoin="round" stroke-width="2" d="m41,38c-1-.2715-2-.8945-2-2,0-1.1045,1-1.7285,2-2"/>
    <path fill="none" stroke="#000" stroke-linecap="round" stroke-linejoin="round" stroke-width="2" d="m25,55c6.0742,0,11-4.9258,11-11,0,6.0742,4.9258,11,11,11"/>
    <path fill="none" stroke="#000" stroke-linecap="round" stroke-linejoin="round" stroke-width="2" d="m55,11c0,1.1001-.9004,2-2,2H19c-1.0996,0-2-.8999-2-2v-1c0-1.1001.9004-2,2-2h34c1.0996,0,2,.8999,2,2v1Z"/>
    <line x1="47" x2="25" y1="18" y2="18" fill="none" stroke="#000" stroke-linecap="round" stroke-linejoin="round" stroke-width="2"/>
    <path fill="none" stroke="#000" stroke-linecap="round" stroke-linejoin="round" stroke-width="2" d="m55,62c0,1.0996-.9004,2-2,2H19c-1.0996,0-2-.9004-2-2v-1c0-1.0996.9004-2,2-2h34c1.0996,0,2,.9004,2,2v1Z"/>
    <line x1="36" x2="36" y1="39" y2="44" fill="none" stroke="#000" stroke-linecap="round" stroke-linejoin="round" stroke-width="2"/>
  </g>
</svg>
