<?xml version="1.0" encoding="utf-8"?>
<!-- Generator: Adobe Illustrator 21.1.0, SVG Export Plug-In . SVG Version: 6.00 Build 0)  -->
<svg version="1.1" id="emoji" xmlns="http://www.w3.org/2000/svg" xmlns:xlink="http://www.w3.org/1999/xlink" x="0px" y="0px"
	 viewBox="0 0 72 72" enable-background="new 0 0 72 72" xml:space="preserve">
<g id="_x2601__xFE0F__1_">
	<path fill="none" stroke="#000000" stroke-width="2" stroke-linecap="round" stroke-linejoin="round" stroke-miterlimit="10" d="
		M14.6,29.9c0,0.5-0.4,0.8-0.9,0.9C8.2,31.3,4,36.7,4,43.3C4,50.3,8.8,56,14.8,56h41.3C62.7,56,68,50,68,42.6
		c0-7.1-4.9-12.9-11.1-13.3c-0.5,0-0.9-0.4-0.9-0.8C54.6,21.3,48.2,16,40.7,16c-4.9,0-9.3,2.2-12.1,5.7c-0.3,0.3-0.7,0.5-1.2,0.3
		c-1.1-0.5-2.2-0.7-3.5-0.7C19,21.4,15,25.1,14.6,29.9z"/>
</g>
</svg>
