<svg id="emoji" viewBox="0 0 72 72" version="1.1" xmlns="http://www.w3.org/2000/svg">
  <g id="line">
    <path fill="none" stroke="#000000" stroke-linecap="round" stroke-linejoin="round" stroke-miterlimit="10" stroke-width="2" d="M66.6662,32.4528C64.4014,17.6281,51.3136,6.3579,35.5066,6.3579C18.106,6.3579,4,20.1569,4,37.1789 c0,0,3.8776-2.3879,6.4822-0.3669c0.2721,0.2111,0.6336,0.2434,0.9442,0.0987c1.7106-0.7967,7.2706-2.9137,12.907,0.0798 c0.2158,0.1146,0.4613,0.1477,0.6941,0.076c2.0005-0.616,12.1825-3.4346,21.1545-0.0438c0.2561,0.0968,0.539,0.0757,0.7817-0.0522 c5.6159-2.96,11.1503-0.8605,12.8662-0.0631c0.3165,0.1471,0.6843,0.1111,0.9606-0.1051c2.5808-2.0191,6.2224,0.2349,6.2224,0.2349"/>
    <path fill="none" stroke="#000000" stroke-linecap="round" stroke-linejoin="round" stroke-miterlimit="10" stroke-width="2" d="M45.3523,62.5394c0,3.0158-2.2041,5.4606-4.9229,5.4606s-4.9229-2.4448-4.9229-5.4606V35.3941"/>
    <line x1="35.5066" x2="35.5066" y1="6.3579" y2="4" fill="none" stroke="#000000" stroke-linecap="round" stroke-linejoin="round" stroke-miterlimit="10" stroke-width="2"/>
    <path fill="none" stroke="#000000" stroke-linecap="round" stroke-linejoin="round" stroke-miterlimit="10" stroke-width="2" d="M10.925,36.992C16.5864,4.6552,35.5066,6.3579,35.5066,6.3579s-9.594,0.9306-10.8247,30.7412"/>
    <path fill="none" stroke="#000000" stroke-linecap="round" stroke-linejoin="round" stroke-miterlimit="10" stroke-width="2" d="M60.3383,36.9896C54.6769,4.6528,35.5066,6.3579,35.5066,6.3579S45.3483,7.27,46.5791,37.0805"/>
  </g>
</svg>
