<?xml version="1.0" encoding="utf-8"?>
<!-- Generator: Adobe Illustrator 22.0.1, SVG Export Plug-In . SVG Version: 6.00 Build 0)  -->
<svg version="1.1" id="emoji" xmlns="http://www.w3.org/2000/svg" xmlns:xlink="http://www.w3.org/1999/xlink" x="0px" y="0px"
	 viewBox="0 0 72 72" enable-background="new 0 0 72 72" xml:space="preserve">
<g id="_x260E__xFE0F__4_">
	<circle cx="30" cy="35" r="2"/>
	<circle cx="30" cy="41" r="2"/>
	<circle cx="30" cy="47" r="2"/>
	<circle cx="36" cy="35" r="2"/>
	<circle cx="36" cy="41" r="2"/>
	<circle cx="36" cy="47" r="2"/>
	<circle cx="42" cy="35" r="2"/>
	<circle cx="42" cy="41" r="2"/>
	<circle cx="42" cy="47" r="2"/>
	<path fill="none" stroke="#000000" stroke-width="2" stroke-linecap="round" stroke-linejoin="round" stroke-miterlimit="10" d="
		M26,24v5c0,0-3.5,0.5-7,4s-4,10-4,10v13l3,0h36l3,0V43.1c0,0-0.5-6.6-4-10.1s-7-4-7-4v-5h-3l-1,3H29.8L29,24H26z"/>
	<g id="_x260E__xFE0F_">
		<g>
			<path fill="none" stroke="#010103" stroke-width="2" stroke-linecap="round" stroke-linejoin="round" stroke-miterlimit="10" d="
				M62,16.5c-8-6-44-6-52,0c0,0-4,4-2,10h13v-5c6-4,24-4,30,0v5h13C66,20.5,62,16.5,62,16.5z"/>
		</g>
	</g>
</g>
</svg>
