<svg id="emoji" viewBox="0 0 72 72" xmlns="http://www.w3.org/2000/svg">
  <g id="line">
    <path fill="none" stroke="#000" stroke-linecap="round" stroke-linejoin="round" stroke-width="2" d="m24,47.4166c-3.6825-3.2959-6-8.0856-6-13.4166h36c0,5.331-2.3175,10.1207-6,13.4166"/>
    <path fill="none" stroke="#000" stroke-linecap="round" stroke-width="2" d="m51,45h4.5c3.0376,0,5.5-2.4624,5.5-5.5s-2.4624-5.5-5.5-5.5h-2.5"/>
    <path fill="none" stroke="#000" stroke-miterlimit="10" stroke-width="2" d="m16.5086,49.9385h41.8588c.69,0,1.0356.8343.5477,1.3222l-3.4059,3.1559c-.3985.3985-.9389.6223-1.5025.6223H20.73c-.661,0-1.2877-.2941-1.7102-.8025l-2.9687-3.3231c-.322-.3875-.0464-.9748.4574-.9748Z"/>
  </g>
</svg>
