<?xml version="1.0" encoding="utf-8"?>
<!-- Generator: Adobe Illustrator 21.1.0, SVG Export Plug-In . SVG Version: 6.00 Build 0)  -->
<svg version="1.1" id="emoji" xmlns="http://www.w3.org/2000/svg" xmlns:xlink="http://www.w3.org/1999/xlink" x="0px" y="0px"
	 viewBox="0 0 72 72" enable-background="new 0 0 72 72" xml:space="preserve">
<g id="_x262E__xFE0F__1_">
	<g>
		<g>
			<path fill="#1D1D1B" d="M57.1,26.4c-1.2-2.6-2.8-5-4.8-7.1c-2.1-2.1-4.4-3.7-7.1-4.8c0,0,0,0,0,0c0,0-0.1,0-0.1,0
				c-2-0.9-4.1-1.5-6.3-1.7c-0.6-0.1-1.3-0.1-1.9-0.2c-0.3,0-0.5,0-0.8,0c-0.1,0-0.1,0-0.2,0c-0.2,0-0.5,0-0.7,0c0,0-0.1,0-0.1,0
				c0,0-0.1,0-0.1,0c-0.7,0-1.3,0.1-1.9,0.2c-11.1,1.4-19.9,10.7-20.3,22.1v0c0,0,0,0,0,0c0,0,0,0,0,0.1c0,0.3,0,0.6,0,0.8
				c0,3.2,0.6,6.3,1.9,9.2c0,0,0,0.1,0,0.1c0,0,0,0,0,0c0.5,1.1,1.1,2.2,1.7,3.2c0.3,0.5,0.7,1.1,1.1,1.6c0.4,0.5,0.8,1,1.2,1.5
				c0.2,0.3,0.5,0.5,0.7,0.8c0.2,0.2,0.4,0.4,0.6,0.6c0.2,0.2,0.4,0.4,0.7,0.6c1.8,1.5,3.7,2.7,5.8,3.6c2.2,1,4.6,1.6,7,1.9
				c0.7,0.1,1.4,0.1,2.2,0.1c0.1,0,0.1,0,0.2,0c0.2,0,0.4,0,0.5,0c0.6,0,1.2-0.1,1.8-0.1c4.7-0.5,9.2-2.4,12.8-5.5
				c0.2-0.2,0.4-0.4,0.6-0.6c0.5-0.4,0.9-0.9,1.4-1.4c0.4-0.5,0.9-1,1.2-1.5c0.4-0.5,0.8-1,1.1-1.6c2.3-3.5,3.6-7.7,3.7-12
				c0-0.2,0-0.4,0-0.6C59.1,32.5,58.4,29.3,57.1,26.4z M34.9,57c-0.6,0-1.3-0.1-1.9-0.2c-2-0.3-3.9-0.8-5.7-1.6
				c-1.9-0.8-3.7-1.9-5.3-3.3c-0.1-0.1-0.3-0.2-0.4-0.3c-0.3-0.2-0.5-0.5-0.8-0.8c-0.2-0.2-0.4-0.4-0.6-0.6l1.5-1.2L33,39.7l1.4-1.1
				l0.6-0.5V57z M34.9,35.6L33,37.2L20.5,47.4L19,48.6c-0.4-0.5-0.8-1-1.1-1.6c-0.6-0.9-1-1.8-1.5-2.8c0,0,0-0.1-0.1-0.1
				c-1.2-2.7-1.7-5.5-1.7-8.4c0-0.2,0-0.5,0-0.6c0-0.1,0-0.1,0-0.2C15,24.6,22.9,16.1,33,14.7c0.6-0.1,1.3-0.1,1.9-0.2V35.6z
				 M50.1,51.5c-0.1,0.1-0.3,0.2-0.4,0.3c-3.1,2.7-6.9,4.4-11,4.9c-0.6,0.1-1.3,0.2-1.9,0.2V38.2l0.5,0.4l1.4,1.1L50,48.9l1.5,1.2
				C51.1,50.6,50.6,51.1,50.1,51.5z M57.1,36.2L57.1,36.2c-0.1,3.9-1.2,7.7-3.3,10.9c-0.3,0.6-0.7,1.1-1.1,1.6l-1.5-1.2L38.8,37.3
				l-1.9-1.6V14.5c0.6,0,1.3,0.1,1.9,0.2c1.9,0.3,3.7,0.8,5.5,1.5c0,0,0.1,0,0.1,0.1c2.4,1.1,4.6,2.5,6.5,4.4
				c1.9,1.9,3.4,4.1,4.4,6.5c1.2,2.7,1.8,5.6,1.8,8.6C57.1,35.9,57.1,36,57.1,36.2z"/>
		</g>
	</g>
</g>
</svg>
