<?xml version="1.0" encoding="utf-8"?>
<!-- Generator: Adobe Illustrator 21.1.0, SVG Export Plug-In . SVG Version: 6.00 Build 0)  -->
<svg version="1.1" id="emoji" xmlns="http://www.w3.org/2000/svg" xmlns:xlink="http://www.w3.org/1999/xlink" x="0px" y="0px"
	 viewBox="0 0 72 72" enable-background="new 0 0 72 72" xml:space="preserve">
<g id="_x262F__xFE0F__1_">
	<path fill="none" stroke="#1D1D1B" stroke-miterlimit="10" d="M45.3,60.5"/>
	<path fill="none" stroke="#1D1D1B" stroke-miterlimit="10" d="M45.3,60.5"/>
	<path fill="none" stroke="#1D1D1B" stroke-width="2" stroke-linecap="round" stroke-linejoin="round" stroke-miterlimit="10" d="
		M23.4,49.4c0,6.7,5.2,12.1,11.8,12.5c0.3,0,0.5,0,0.8,0s0.5,0,0.8,0c13.5-0.4,24.4-11.5,24.4-25.1c0-13.6-10.8-24.7-24.4-25.1
		c6.6,0.4,11.8,5.9,11.8,12.5c0,6.9-5.6,12.6-12.6,12.6C29.1,36.9,23.4,42.5,23.4,49.4z"/>
	<path fill="none" stroke="#1D1D1B" stroke-width="2" stroke-linecap="round" stroke-linejoin="round" stroke-miterlimit="10" d="
		M10.9,36.9c0,13.6,10.8,24.7,24.3,25.1c-6.6-0.4-11.8-5.9-11.8-12.5c0-6.9,5.6-12.6,12.6-12.6c6.9,0,12.6-5.6,12.6-12.6
		c0-6.7-5.2-12.1-11.8-12.5c-0.3,0-0.5,0-0.8,0s-0.5,0-0.8,0C21.7,12.2,10.9,23.3,10.9,36.9z"/>
	<circle fill="none" stroke="#1D1D1B" stroke-width="2" stroke-miterlimit="10" cx="37.3" cy="48.9" r="4"/>
	<circle fill="none" stroke="#1D1D1B" stroke-width="2" stroke-miterlimit="10" cx="37.3" cy="23.8" r="4"/>
</g>
</svg>
