<?xml version="1.0" encoding="utf-8"?>
<!-- Generator: Adobe Illustrator 21.1.0, SVG Export Plug-In . SVG Version: 6.00 Build 0)  -->
<svg version="1.1" id="emoji" xmlns="http://www.w3.org/2000/svg" xmlns:xlink="http://www.w3.org/1999/xlink" x="0px" y="0px"
	 viewBox="0 0 72 72" enable-background="new 0 0 72 72" xml:space="preserve">
<g id="_x263A__1_">
	<path fill="none" stroke="#000000" stroke-width="2" stroke-linecap="round" stroke-linejoin="round" stroke-miterlimit="10" d="
		M42.4,49.4c-1.3,1.5-3.5,2.4-6.7,2.4c-3.1,0-5.3-0.9-6.7-2.4"/>
	<path fill="none" stroke="#000000" stroke-width="2" stroke-linecap="round" stroke-linejoin="round" stroke-miterlimit="10" d="
		M18.8,25.4c0.8-1.6,2.2-2.8,3.9-3.5c1.6-0.8,3.5-1,5.2-0.5"/>
	<path fill="none" stroke="#000000" stroke-width="2" stroke-linecap="round" stroke-linejoin="round" stroke-miterlimit="10" d="
		M52.9,25.4c-1.8-3.2-5.5-4.8-9.1-4"/>
	<path fill="none" stroke="#000000" stroke-width="2" stroke-linecap="round" stroke-linejoin="round" stroke-miterlimit="10" d="
		M21.5,33.5c0,0,4.5-2.5,9.2,0"/>
	<path fill="none" stroke="#000000" stroke-width="2" stroke-linecap="round" stroke-linejoin="round" stroke-miterlimit="10" d="
		M41.4,33.5c0,0,4.5-2.5,9.2,0"/>
	
		<ellipse transform="matrix(2.335999e-03 -1 1 2.335999e-03 0.2874 71.3891)" fill="none" stroke="#000000" stroke-width="2" stroke-linecap="round" stroke-linejoin="round" stroke-miterlimit="10" cx="35.9" cy="35.6" rx="26.5" ry="26.5"/>
</g>
</svg>
