<svg id="emoji" xmlns="http://www.w3.org/2000/svg" viewBox="0 0 72 72">
  
  
  
  
  
  <g id="line">
    <polygon id="SVGID_1_" points="35.2501,12.5506 26.6203,14.2303 21.3205,17.2507 16.4298,22.3298 13.0001,29.6804 
				13.0001,42.0202 18.5997,51.4206 26.6203,56.8708 35.2501,58.5505 42.4298,57.4001 50.1398,53.0701 55.2501,46.9109 
				58.2501,37.7009 57.5001,29.7204 53.6906,21.8104 49.4806,17.49 42.2306,13.6306 			" fill="#000000" stroke="none"></polygon>
    <path fill="none" stroke="#000000" stroke-width="2" stroke-linecap="round" stroke-linejoin="round" stroke-miterlimit="10" d="
		M47.2242,45.241"></path>
    <path fill="none" stroke="#000000" stroke-width="2" stroke-linecap="round" stroke-linejoin="round" stroke-miterlimit="10" d="
		M41.0516,47.5684c-1.1233,1.2679-3.0497,2.0788-5.7815,2.0788c-2.7113,0-4.6397-0.8017-5.7749-2.0544"></path>
    <path fill="none" stroke="#000000" stroke-width="2" stroke-linecap="round" stroke-linejoin="round" stroke-miterlimit="10" d="
		M20.5294,26.7507c0.7207-1.3857,1.9278-2.4541,3.3907-3c1.4052-0.7002,3.0205-0.8486,4.5302-0.4209"></path>
    <path fill="none" stroke="#000000" stroke-width="2" stroke-linecap="round" stroke-linejoin="round" stroke-miterlimit="10" d="
		M50.1398,26.7507c-1.582-2.7724-4.8037-4.1699-7.9092-3.4306"></path>
    <path fill="none" stroke="#000000" stroke-width="2" stroke-linecap="round" stroke-linejoin="round" stroke-miterlimit="10" d="
		M22.9051,33.7944c0,0,3.9322-2.1695,8,0"></path>
    <path fill="none" stroke="#000000" stroke-width="2" stroke-linecap="round" stroke-linejoin="round" stroke-miterlimit="10" d="
		M40.1551,33.7944c0,0,3.9322-2.1695,8,0"></path>
    <ellipse transform="matrix(0.0023 -1 1 0.0023 -0.2112 70.8894)" fill="none" stroke="#000000" stroke-width="2" stroke-linecap="round" stroke-linejoin="round" stroke-miterlimit="10" cx="35.422" cy="35.5505" rx="23" ry="23"></ellipse>
  </g>
</svg>