<?xml version="1.0" encoding="utf-8"?>
<!-- Generator: Adobe Illustrator 21.1.0, SVG Export Plug-In . SVG Version: 6.00 Build 0)  -->
<svg version="1.1" id="emoji" xmlns="http://www.w3.org/2000/svg" xmlns:xlink="http://www.w3.org/1999/xlink" x="0px" y="0px"
	 viewBox="0 0 72 72" enable-background="new 0 0 72 72" xml:space="preserve">
<g id="_x2640__1_">
	
		<polyline fill="none" stroke="#000000" stroke-width="2" stroke-linecap="round" stroke-linejoin="round" stroke-miterlimit="10" points="
		33.5,40.8 33.5,47.9 32,47.9 26,47.9 26,52.9 32,52.9 33.5,52.9 33.5,61.9 38.5,62 38.5,52.9 40,52.9 46,52.9 46,47.9 40,47.9 
		38.5,47.9 38.5,40.8 	"/>
	<path fill="none" stroke="#000000" stroke-width="2" stroke-linecap="round" stroke-linejoin="round" stroke-miterlimit="10" d="
		M33.5,40.8C26.4,39.6,21,33.4,21,26c0-8.3,6.7-15,15-15s15,6.7,15,15c0,7.4-5.3,13.5-12.3,14.8c-0.1,0-0.1,0-0.2,0"/>
	
		<circle fill="none" stroke="#000000" stroke-width="2" stroke-linecap="round" stroke-linejoin="round" stroke-miterlimit="10" cx="36" cy="26" r="10"/>
</g>
</svg>
