<svg id="emoji" viewBox="0 0 72 72" version="1.1" xmlns="http://www.w3.org/2000/svg">
  <g id="line">
    <path fill="none" stroke="#000" stroke-linecap="round" stroke-linejoin="round" stroke-width="2" d="m31.25 40.97s8.478 6.782 0 18.76"/>
    <path fill="none" stroke="#000" stroke-linecap="round" stroke-linejoin="round" stroke-width="2" d="m33.95 29.96c0.5489 8.356-9.322 9.703-11.95 10.33-0.3325 0.0798-0.6318 0.25-0.8736 0.4919l-2.223 2.223c-0.3494 0.3494-0.8234 0.5458-1.318 0.5458h-3.512c-1.203 0-2.271-0.7698-2.652-1.911l-0.531-1.593c-0.258-0.774-0.1649-1.622 0.2549-2.322l8.786-14.64 4.724-4.724-2.115-6.905s7.803-0.6987 8.414 5.331c0 0 16.93 2.442 10.55 19.38 0 0-1.625 5.949 2.375 11.18"/>
    <path fill="none" stroke="#000" stroke-linecap="round" stroke-linejoin="round" stroke-width="2" d="m29.67 13.11s6.185-1.118 11.7 1.341"/>
    <circle cx="23.17" cy="28.02" r="2"/>
    <path fill="none" stroke="#000" stroke-linecap="round" stroke-linejoin="round" stroke-width="2" d="m31.25 59.74c8.003 3.953 16.52 6.773 29.75-0.7003"/>
    <path fill="none" stroke="#000" stroke-width="2" d="m41.36 14.45c19.83 11.84 21.89 38.66 19.64 44.59"/>
  </g>
</svg>
