<svg id="emoji" viewBox="0 0 72 72" xmlns="http://www.w3.org/2000/svg">
  <g id="line">
    <path fill="none" stroke="#000" stroke-linecap="round" stroke-linejoin="round" stroke-width="2" d="m32.2615,26.8361l-1.2615,2.0703-10-6,2.9936-5.047c1.4882-1.9298,4.1084-2.4725,6.2065-1.4143.4895.2469.8889.6454,1.1717,1.1151l5.6282,9.3462-1.9038,1.2519,8.9038.7481,5-8-2,1-3-5-.0966-.1637c-.4877-.8169-1.1217-.8302-1.8606-.8302l-7.0917-.0054"/>
    <path fill="none" stroke="#000" stroke-linecap="round" stroke-linejoin="round" stroke-width="2" d="m14.7341,35.7661c-1.0145,2.2288-.2617,4.7593,1.8762,5.7145,0,0,.7482-.0046.7566-.0009l.0915.001,9.9074.0291,3.6013-.0292.1741,11.6605-5.9275.0201h-1.7755c-.7727,0-1.3384.0331-1.7954-.8014l-.0905-.1672-3.6618-6.7839"/>
    <polyline fill="none" stroke="#000" stroke-linecap="round" stroke-linejoin="round" stroke-width="2" points="14.7341 35.7661 17.76 30.7817 15.9432 29.4782 25.3515 30.1741 28 37.9064 26 36.9064 25.5367 37.5666"/>
    <path fill="none" stroke="#000" stroke-linecap="round" stroke-linejoin="round" stroke-width="2" d="m42.3269,37.7505l-1.2117-2.1088,10.0715-5.8791,2.9838,5.0528c.9756,2.2332.1905,4.7912-1.7467,6.1213-.4519.3103-.9935.4687-1.5413.4906l-11.2687.0641v-2.2145l-4.754,7.761,4.6071,8.2326.0478-2.1256,5.7482.008.2891-.0004c.9508-.0344,1.2847-.9301,1.6403-1.5779l3.3361-6.0667"/>
  </g>
</svg>
