<?xml version="1.0" encoding="utf-8"?>
<!-- Generator: Adobe Illustrator 21.1.0, SVG Export Plug-In . SVG Version: 6.00 Build 0)  -->
<svg version="1.1" id="emoji" xmlns="http://www.w3.org/2000/svg" xmlns:xlink="http://www.w3.org/1999/xlink" x="0px" y="0px"
	 viewBox="0 0 72 72" enable-background="new 0 0 72 72" xml:space="preserve">
<g id="_x267F__xFE0F_">
	<path fill="#020203" d="M60,10H12c-1.1,0-2,0.9-2,2v48c0,1.1,0.9,2,2,2h48c1.1,0,2-0.9,2-2V12C62,10.9,61.1,10,60,10z M60,60H12V12
		h48V60z"/>
	<g>
		<path fill="#020203" d="M46.6,40.2c0,0.5-0.6,11.5-1.3,12.6c-0.6,0.9-1.4,1.3-2.2,1.3c-0.1,0-0.2,0-0.4,0c-1-0.2-1.8-0.9-2.1-1.8
			c-0.3-1.1-0.1-6.6,0-9.5l-9.2,0.5h0c-1.1,0-2.8-0.7-2.8-2.7v-0.5c0-1.8-0.1-6,0.7-9.8l1.4-0.8l0,0c0,0,0,0,0,0c0,0,0,0,0.1,0
			c0.2-0.1,0.6-0.2,0.7,0.2v0c-0.6,2.6-0.9,6-0.9,10.3v0.5c0,0.6,0.5,0.7,0.7,0.7l10.2-0.6h0c0.3,0,0.5,0.1,0.7,0.3
			c0.2,0.2,0.3,0.5,0.3,0.8c-0.2,4.3-0.3,9.2-0.2,10c0,0.1,0.2,0.4,0.5,0.4c0.2,0,0.4-0.2,0.5-0.4c0.3-1.2,1-9.9,1-11.5
			c0-0.4-0.5-0.9-0.7-1.1c-0.5-0.4-1.4-0.7-2.3-0.9l-5.9-1c-0.4-0.1-0.7-0.3-0.8-0.7c0-0.2-1.2-4.7,0.6-8.4c0.7-1.4,0.2-2.7-0.4-3
			c-0.4-0.2-0.8-0.1-1.3,0.3c0,0-0.1,0.1-0.1,0.1c0,0-0.1,0.1-0.1,0.1l0,0l-0.3,0.2l-0.1,0l-3.1,2c0-0.1,0-0.2,0.1-0.3
			c0.3-0.8,0.6-1.5,1-2.1c0.4-0.7,0.8-1.2,1.2-1.5l0.1,0c1.3-1.1,2.6-1,3.5-0.5c1.5,0.8,2.4,3.2,1.2,5.7c-1.2,2.3-0.8,5.2-0.6,6.4
			l5.2,0.9c0.6,0.1,2.2,0.4,3.2,1.3C46.3,38.6,46.6,39.6,46.6,40.2z"/>
		<path fill="#020203" d="M38.5,15c-2.2,0-4,1.8-4,4c0,2.2,1.8,4,4,4s4-1.8,4-4C42.5,16.8,40.7,15,38.5,15z M38.5,21
			c-1.1,0-2-0.9-2-2c0-1.1,0.9-2,2-2s2,0.9,2,2C40.5,20.1,39.6,21,38.5,21z"/>
	</g>
	<path fill="none" stroke="#020203" stroke-width="2" stroke-miterlimit="10" d="M37,45"/>
	<g>
		<path fill="#020203" d="M27,56c-0.1,0-0.2,0-0.3,0C21,55.8,16.2,51,16,45.3c-0.1-4.5,2.5-8.6,6.6-10.4c0.5-0.2,1.1,0,1.3,0.5
			c0.2,0.5,0,1.1-0.5,1.3c-3.4,1.5-5.5,4.8-5.4,8.5c0.1,4.7,4.1,8.6,8.7,8.7c2.5,0.1,4.8-0.8,6.5-2.5c1.8-1.7,2.7-4,2.7-6.5
			c0-0.6,0.4-1,1-1c0.6,0,1,0.4,1,1c0,3-1.2,5.8-3.3,7.9C32.6,54.9,29.9,56,27,56z"/>
	</g>
	<path fill="#020203" d="M33.8,25.5C33.8,25.5,33.8,25.5,33.8,25.5c-0.1,0.1-0.2,0.1-0.2,0.2l-0.3,0.2l-0.1,0l-3.1,2l-4.4,2.9
		l1.8,7.2c0.1,0.3,0,0.6-0.2,0.9c-0.1,0.2-0.3,0.3-0.6,0.4c-0.1,0-0.2,0-0.2,0c-0.5,0-0.9-0.3-1-0.8l-1.8-7.2
		c-0.2-0.8,0.1-1.7,0.9-2.2l7.8-5.1l0.1,0c0.5-0.3,1.1-0.2,1.4,0.3C34.2,24.6,34.1,25.1,33.8,25.5z"/>
</g>
</svg>
