<?xml version="1.0" encoding="utf-8"?>
<!-- Generator: Adobe Illustrator 19.1.0, SVG Export Plug-In . SVG Version: 6.00 Build 0)  -->
<svg version="1.1" id="emoji" xmlns="http://www.w3.org/2000/svg" xmlns:xlink="http://www.w3.org/1999/xlink" x="0px" y="0px"
	 viewBox="0 0 72 72" enable-background="new 0 0 72 72" xml:space="preserve">
<g id="_x2695__xFE0F_">
	<path fill="none" stroke="#000000" stroke-miterlimit="10" d="M49.5,16.2"/>
	<path fill="none" stroke="#000000" stroke-miterlimit="10" d="M49.5,17.1"/>
	<path fill="none" stroke="#1D1D1B" stroke-width="2" stroke-linecap="round" stroke-linejoin="round" stroke-miterlimit="10" d="
		M52.9,35.2"/>
	<path fill="none" stroke="#000000" stroke-width="2" stroke-linecap="round" stroke-linejoin="round" stroke-miterlimit="10" d="
		M32,45.1h0.3c3.4,0,6.3,2.7,6.4,6.1c0.1,3.6-2.7,6.5-6.3,6.5h-11h0c0.4-1.8,1.5-3.3,3.1-4.2h0c0.4-0.2,0.8-0.3,1.2-0.3h6.3
		c1.1,0,2-0.8,2-1.9c0-1.1-0.9-2-2-2"/>
	<path fill="none" stroke="#000000" stroke-width="2" stroke-linecap="round" stroke-linejoin="round" stroke-miterlimit="10" d="
		M31.8,32.5h3.1c1.1,0,2,0.9,2,2s-0.9,2-2,2H22.1c-3.5,0-6.3,2.8-6.3,6.3s2.8,6.3,6.3,6.3h2.1"/>
	<path fill="none" stroke="#000000" stroke-width="2" stroke-linecap="round" stroke-linejoin="round" stroke-miterlimit="10" d="
		M24.1,44.8h-1.8c-1.1,0-2-0.9-2-2s0.9-2,2-2h12h0.4c3.5,0,6.3-2.8,6.3-6.3s-2.8-6.3-6.3-6.3h-2.9"/>
	<g>
		<path fill="none" stroke="#000000" stroke-width="2" stroke-linecap="round" stroke-linejoin="round" d="M24.1,32.5l-4.8,0
			c-3.4,0-6.4-2.7-6.6-6.1C12.6,22.9,15.5,20,19,20h16.8l0.1,0h0c0.9-0.1,1.7-0.7,1.9-1.6c0.7-2.9,3.3-5.1,6.4-5.1"/>
		<path fill="none" stroke="#000000" stroke-width="2" stroke-linecap="round" stroke-linejoin="round" d="M53.1,19.9
			c0,4.3-7.5,4.5-7.5,4.5l-9,0l-0.2,0h-17c-1,0-1.9,0.7-2,1.6c-0.2,1.2,0.7,2.3,1.9,2.3h4.8"/>
		<path fill="none" stroke="#000000" stroke-width="2" stroke-linecap="round" stroke-linejoin="round" d="M44.2,13.3
			c3.6,0,9,3,9,6.6"/>
		<path fill="none" stroke="#000000" stroke-width="2" stroke-linecap="round" stroke-miterlimit="10" d="M51,23.8
			c0,0,3.8,4.1,7.6,4.6"/>
		
			<line fill="none" stroke="#000000" stroke-width="2" stroke-linecap="round" stroke-miterlimit="10" x1="58.1" y1="28.4" x2="62.9" y2="26.2"/>
		
			<line fill="none" stroke="#000000" stroke-width="2" stroke-linecap="round" stroke-miterlimit="10" x1="59.1" y1="33" x2="58.1" y2="28.4"/>
	</g>
	
		<line fill="none" stroke="#000000" stroke-width="2" stroke-linecap="round" stroke-linejoin="round" x1="28.1" y1="58.2" x2="28.1" y2="63"/>
	
		<line fill="none" stroke="#000000" stroke-width="2" stroke-linecap="round" stroke-linejoin="round" x1="28.1" y1="41.9" x2="28.1" y2="51.9"/>
	<polyline fill="none" stroke="#000000" stroke-width="2" stroke-linecap="round" stroke-linejoin="round" points="28.1,25.4 
		28.1,27.3 28.1,33.5 28.1,35.6 	"/>
	
		<line fill="none" stroke="#000000" stroke-width="2" stroke-linecap="round" stroke-linejoin="round" x1="28.1" y1="15" x2="28.1" y2="18.9"/>
	<circle fill="#010101" cx="28.1" cy="12" r="3"/>
</g>
</svg>
