<?xml version="1.0" encoding="utf-8"?>
<!-- Generator: Adobe Illustrator 21.1.0, SVG Export Plug-In . SVG Version: 6.00 Build 0)  -->
<svg version="1.1" id="emoji" xmlns="http://www.w3.org/2000/svg" xmlns:xlink="http://www.w3.org/1999/xlink" x="0px" y="0px"
	 viewBox="0 0 72 72" enable-background="new 0 0 72 72" xml:space="preserve">
<g id="_x2699__xFE0F__1_">
	
		<circle fill="none" stroke="#000000" stroke-width="2" stroke-linecap="round" stroke-linejoin="round" stroke-miterlimit="10" cx="36" cy="34.9" r="5"/>
	
		<circle fill="none" stroke="#000000" stroke-width="2" stroke-linecap="round" stroke-linejoin="round" stroke-miterlimit="10" cx="36" cy="34.9" r="10"/>
	<path fill="none" stroke="#000000" stroke-width="2" stroke-linecap="round" stroke-linejoin="round" stroke-miterlimit="10" d="
		M31.1,19.7c-0.2,1-1.3,1.6-2.2,1.2c0,0,0,0,0,0l-7.1-4.7L21,16.8l-3.7,3.4l4.5,7.5c0.7,1.6-1.1,2.1-1.1,2.1l-8.5,2.1l0.2,5l0,1
		l8.4,1.7h0c1,0.4,1.4,1.5,0.8,2.4l0,0.1l-4.5,7.5l3.7,3.4l0.7,0.7l7.1-4.7c0,0,0,0,0,0c0,0,0,0,0,0c1.2-0.4,2.4,0.3,2.7,1.5
		l1.8,7.4h1h5l1.9-7.8c0.2-1,1.3-1.5,2.3-1.1h0l7.1,4.7l0.7-0.7l3.7-3.4l-4.5-7.5l0-0.1c-0.5-0.9-0.1-2,0.8-2.4l0,0l8.4-1.7l0-1
		l0.2-5l-8.5-2.1c0,0-1.8-0.5-1.1-2.1l4.5-7.5L51,16.8l-0.7-0.7l-7.1,4.7v0c-0.9,0.4-2-0.1-2.3-1.1L39,11.9h-5h-1L31.1,19.7"/>
</g>
</svg>
