<svg id="emoji" viewBox="0 0 72 72" xmlns="http://www.w3.org/2000/svg">
  <g id="line">
    <path fill="none" stroke="#000" stroke-linecap="round" stroke-linejoin="round" stroke-width="1.9083" d="M38.3593,53.3015c.7194,2.8877,1.9365,3.03,1.9365,6.2157,0,4.5215-4.2132,6.9738-4.2132,6.9738l-.0154.009-.0153-.009s-4.2132-2.4523-4.2132-6.9738c0-3.1847,1.2166-3.3279,1.936-6.2137"/>
    <path fill="none" stroke="#000" stroke-linecap="round" stroke-linejoin="round" stroke-width="1.9083" d="M33.78,42.8976c-1.7823-7.1024-7.612-13.29-7.612-19.5871,0-7.4337,9.8842-17.7944,9.8842-17.7944L36.0673,5.5l.0153.0161s9.8843,10.3607,9.8843,17.7944c0,6.2974-5.83,12.4848-7.612,19.5872"/>
    <path fill="none" stroke="#000" stroke-linecap="round" stroke-linejoin="round" stroke-width="1.9083" d="M42.3976,42.8984c2.1073-3.01,5.6779-5.8795,8.4984-5.8795,4.28,0,5.43,1.93,5.43,3.77a19.4669,19.4669,0,0,1-1.3034,5.1371s8.6413-.46,8.6413-6.9005S58.55,29.7445,52.876,29.7445c-4.8767,0-12.547,4.2982-14.5211,13.1532"/>
    <path fill="none" stroke="#000" stroke-linecap="round" stroke-linejoin="round" stroke-width="1.9083" d="M38.3593,53.3015c2.18,6.6031,9.303,5.1565,9.303,5.1565a5.732,5.732,0,0,0,4.6-6.21,10.2325,10.2325,0,0,1-5.98,1.9168,6.1052,6.1052,0,0,1-3.3222-.861"/>
    <path fill="none" stroke="#000" stroke-linecap="round" stroke-linejoin="round" stroke-width="1.9083" d="M33.7747,53.3035c-2.18,6.6006-9.2022,5.1545-9.2022,5.1545a5.732,5.732,0,0,1-4.6-6.21,10.2325,10.2325,0,0,0,5.98,1.9168,6.106,6.106,0,0,0,3.3218-.8607"/>
    <path fill="none" stroke="#000" stroke-linecap="round" stroke-linejoin="round" stroke-width="1.9083" d="M29.8373,42.8984c-2.1073-3.01-5.678-5.8795-8.4985-5.8795-4.28,0-5.43,1.93-5.43,3.77a19.4669,19.4669,0,0,0,1.3034,5.1371s-8.6413-.46-8.6413-6.9005,5.1144-9.2814,10.7881-9.2814c4.8768,0,12.4469,4.2977,14.4209,13.1531"/>
    <line x1="45.672" x2="26.5892" y1="49.996" y2="49.996" fill="none" stroke="#000" stroke-linecap="round" stroke-linejoin="round" stroke-width="1.9083"/>
    <line x1="26.5892" x2="45.672" y1="46.4526" y2="46.4526" fill="none" stroke="#000" stroke-linecap="round" stroke-linejoin="round" stroke-width="1.9083"/>
  </g>
</svg>
