<svg id="emoji" viewBox="0 0 72 72" xmlns="http://www.w3.org/2000/svg">
  <g id="line">
    <path fill="none" stroke="#000" stroke-linecap="round" stroke-linejoin="round" stroke-width="1.8" d="m25.09,19.8l1.855-1.856,2.692,2.668-1.851,1.882m-2.701,2.68l-2.016,2.006-2.692-2.692,2.012-2.009"/>
    <path fill="none" stroke="#000" stroke-linecap="round" stroke-linejoin="round" stroke-width="1.8" d="m57.44,11.95h-12.39l-3.77,3.768h9.695l-8.269,8.263m2.692,2.689l8.27-8.259v9.686l3.77-3.768v-12.38"/>
    <path fill="none" stroke="#000" stroke-linecap="round" stroke-linejoin="round" stroke-width="1.8" d="m14.56,11.92v8.147l3.37,3.368v-5.455l4.502,4.498m2.697,2.695l1.564,1.563m2.691-2.69l-1.555-1.554m-2.696-2.694l-4.508-4.51h6.128l-3.37-3.368h-8.824"/>
    <path fill="none" stroke="#000" stroke-linecap="round" stroke-linejoin="round" stroke-width="1.8" d="m38.19,44.65v6.619h5.669v3.578h-5.669v5.245h-3.739v-5.245h-5.669v-3.578h5.669v-6.619"/>
    <path fill="none" stroke="#000" stroke-linecap="round" stroke-linejoin="round" stroke-width="1.8" d="m29.38,24.05c1.868-1.332,4.155-2.115,6.624-2.115,2.405,0,4.637.7432,6.478,2.012m2.865,2.836c1.309,1.857,2.077,4.121,2.077,6.565,0,5.506-3.902,10.1-9.094,11.18m-3.88.1325c-5.573-.757-9.868-5.531-9.868-11.31,0-2.461.7792-4.739,2.105-6.603"/>
    <circle cx="35.973" cy="33.34" r="7.716" fill="none" stroke="#000" stroke-linecap="round" stroke-linejoin="round" stroke-width="1.8"/>
  </g>
</svg>
