<?xml version="1.0" encoding="utf-8"?>
<!-- Generator: Adobe Illustrator 19.1.0, SVG Export Plug-In . SVG Version: 6.00 Build 0)  -->
<svg version="1.1" id="emoji" xmlns="http://www.w3.org/2000/svg" xmlns:xlink="http://www.w3.org/1999/xlink" x="0px" y="0px"
	 viewBox="0 0 72 72" enable-background="new 0 0 72 72" xml:space="preserve">
<g id="_x26C5__xFE0F__1_">
	<g>
		
			<polyline fill="none" stroke="#000000" stroke-width="1.9" stroke-linecap="round" stroke-linejoin="round" stroke-miterlimit="10" points="
			14.1,42.4 10.9,44.2 12.6,36.2 4.5,35.1 10.6,29.6 4.7,23.9 12.8,23 11.4,15 18.5,19.1 22.1,11.7 25.4,19.2 32.7,15.4 31,23.4 
			39.1,24.5 36.1,26.9 		"/>
		
			<path fill="none" stroke="#000000" stroke-width="1.9" stroke-linecap="round" stroke-linejoin="round" stroke-miterlimit="10" d="
			M17.1,39.5c-3.6-1.7-6.1-5.4-6.1-9.7c0-6,4.8-10.8,10.8-10.8c5.6,0,10.2,4.3,10.7,9.7"/>
	</g>
	<path fill="none" stroke="#000000" stroke-width="2" stroke-linecap="round" stroke-linejoin="round" stroke-miterlimit="10" d="
		M25.1,39.5c0,0.4-0.3,0.6-0.7,0.7c-4.4,0.5-7.7,4.8-7.7,10c0,5.5,3.8,10,8.6,10H58c5.2,0,9.4-4.7,9.4-10.6c0-5.6-3.9-10.2-8.8-10.6
		c-0.4,0-0.7-0.3-0.8-0.7c-1.1-5.6-6.2-9.9-12.1-9.9c-3.9,0-7.3,1.8-9.6,4.6c-0.2,0.3-0.6,0.4-0.9,0.3c-0.9-0.4-1.8-0.5-2.8-0.5
		C28.6,32.8,25.5,35.8,25.1,39.5z"/>
</g>
</svg>
