<?xml version="1.0" encoding="utf-8"?>
<!-- Generator: Adobe Illustrator 19.1.0, SVG Export Plug-In . SVG Version: 6.00 Build 0)  -->
<svg version="1.1" id="emoji" xmlns="http://www.w3.org/2000/svg" xmlns:xlink="http://www.w3.org/1999/xlink" x="0px" y="0px"
	 viewBox="0 0 72 72" enable-background="new 0 0 72 72" xml:space="preserve">
<g id="_x26C8__xFE0F__1_">
	<g>
		<g>
			
				<path fill="none" stroke="#000000" stroke-width="1.8" stroke-linecap="round" stroke-linejoin="round" stroke-miterlimit="10" d="
				M17.7,51.7c-0.8,1.2-2.1,1.6-3.1,1c-1-0.6-1.1-2.1-0.4-3.2c0,0,0.9-1.5,4-3c0,0,0.6-0.4,0.6,0.3C18.7,50.2,17.7,51.7,17.7,51.7"
				/>
		</g>
	</g>
	<g>
		<g>
			
				<path fill="none" stroke="#000000" stroke-width="1.8" stroke-linecap="round" stroke-linejoin="round" stroke-miterlimit="10" d="
				M24.1,59.3c-0.8,1.2-2.1,1.6-3.1,1c-1-0.6-1.1-2.1-0.4-3.2c0,0,0.9-1.5,4-3c0,0,0.6-0.4,0.6,0.3C25,57.8,24.1,59.3,24.1,59.3"/>
		</g>
	</g>
	<g>
		<g>
			
				<path fill="none" stroke="#000000" stroke-width="1.8" stroke-linecap="round" stroke-linejoin="round" stroke-miterlimit="10" d="
				M56.6,51.7c-0.8,1.2-2.1,1.6-3.1,1c-1-0.6-1.1-2.1-0.4-3.2c0,0,0.9-1.5,4-3c0,0,0.6-0.4,0.6,0.3C57.5,50.2,56.6,51.7,56.6,51.7"
				/>
		</g>
	</g>
	<g>
		<g>
			
				<path fill="none" stroke="#000000" stroke-width="1.8" stroke-linecap="round" stroke-linejoin="round" stroke-miterlimit="10" d="
				M48,59.3c-0.8,1.2-2.1,1.6-3.1,1c-1-0.6-1.1-2.1-0.4-3.2c0,0,0.9-1.5,4-3c0,0,0.6-0.4,0.6,0.3C48.9,57.8,48,59.3,48,59.3"/>
		</g>
	</g>
	<path fill="none" stroke="#000000" stroke-width="2" stroke-linecap="round" stroke-linejoin="round" stroke-miterlimit="10" d="
		M19.3,22.3c0,0.4-0.3,0.6-0.7,0.7c-4.3,0.5-7.6,4.7-7.6,9.8c0,5.5,3.8,9.9,8.5,9.9h32.2c5.1,0,9.3-4.7,9.3-10.4
		c0-5.5-3.8-10.1-8.7-10.4c-0.4,0-0.7-0.3-0.7-0.6c-1.1-5.5-6.1-9.7-12-9.7c-3.8,0-7.2,1.7-9.5,4.5c-0.2,0.3-0.6,0.4-0.9,0.3
		c-0.9-0.4-1.8-0.5-2.8-0.5C22.7,15.7,19.6,18.6,19.3,22.3z"/>
	<path fill="none" stroke="#000000" stroke-width="1.8" stroke-linecap="round" stroke-linejoin="round" stroke-miterlimit="10" d="
		M31.1,42.7l-3.8,6.8c-0.3,0.3-0.1,0.7,0.4,0.7h8.4l-5.8,9.2c-0.3,0.5,0.3,1,0.8,0.6l13.7-13.2c0.3-0.3,0.1-0.7-0.3-0.7h-8.2
		l1.5-3.4H31.1z"/>
</g>
</svg>
