<svg id="emoji" viewBox="0 0 72 72" xmlns="http://www.w3.org/2000/svg">
  <g id="line">
    <path fill="none" stroke="#000" stroke-linecap="round" stroke-linejoin="round" stroke-width="1.8" d="m24.0259,59.2555c-.7516,1.1632-2.1343,1.6031-3.0902.9854s-1.1216-2.0613-.37-3.2245c0,0,.8761-1.5078,4.0066-3.0386,0,0,.6168-.3534.5724.3205-.1914,3.5001-1.1188,4.9572-1.1188,4.9572"/>
    <path fill="none" stroke="#000" stroke-linecap="round" stroke-linejoin="round" stroke-width="1.8" d="m17.7257,51.6844c-.7516,1.1632-2.1343,1.6031-3.0902.9854s-1.1216-2.0613-.37-3.2245c0,0,.8761-1.5078,4.0066-3.0386,0,0,.6168-.3534.5724.3205-.1914,3.5001-1.1188,4.9572-1.1188,4.9572"/>
    <path fill="none" stroke="#000" stroke-linecap="round" stroke-linejoin="round" stroke-width="1.8" d="m56.4282,51.6844c-.7516,1.1632-2.1343,1.6031-3.0902.9854s-1.1216-2.0613-.37-3.2245c0,0,.8761-1.5078,4.0066-3.0386,0,0,.6168-.3534.5724.3205-.1914,3.5001-1.1188,4.9572-1.1188,4.9572"/>
    <path fill="none" stroke="#000" stroke-linecap="round" stroke-linejoin="round" stroke-width="1.8" d="m48.0021,59.2555c-.7516,1.1632-2.1343,1.6031-3.0902.9854s-1.1216-2.0613-.37-3.2245c0,0,.8761-1.5078,4.0066-3.0386,0,0,.6168-.3534.5724.3205-.1915,3.5001-1.1188,4.9572-1.1188,4.9572"/>
    <path fill="none" stroke="#000" stroke-linecap="round" stroke-linejoin="round" stroke-width="2" d="m19.2787,22.3066c-.031.3535-.3174.6396-.6721.6775-4.2996.4606-7.6066,4.6942-7.6066,9.8474,0,5.4608,3.7871,9.8877,8.4588,9.8877h32.248c5.1325,0,9.2932-4.6783,9.2932-10.4492,0-5.5305-3.8212-10.0575-8.6569-10.4251-.37-.0281-.67-.2871-.7406-.6494-1.0803-5.5472-6.0636-9.7159-11.9553-9.7159-3.829,0-7.2399,1.7335-9.4549,4.4912-.2164.2695-.5797.3929-.8992.2589-.8523-.3575-1.7525-.5304-2.7597-.5304-3.8062,0-6.9303,2.9047-7.2547,6.6073Z"/>
    <path fill="none" stroke="#000" stroke-linecap="round" stroke-linejoin="round" stroke-width="1.8" d="m31.0827,42.7192l-3.7893,6.7541c-.2732.2863-.0517.7346.3629.7346h8.4435l-5.845,9.2144c-.3172.5.3444,1.0389.7699.6271l13.669-13.2268c.2916-.2821.0737-.7475-.35-.7475h-8.1735l1.5388-3.3558h-6.6263,0Z"/>
  </g>
</svg>
