<svg id="emoji" viewBox="0 0 72 72" xmlns="http://www.w3.org/2000/svg">
  <g id="line">
    <path fill="none" stroke="#000000" stroke-linecap="round" stroke-linejoin="round" stroke-miterlimit="10" stroke-width="2" d="M39.5468,57.9985c0,2.3454-1.9013,4.2468-4.2468,4.2468s-4.2468-1.9013-4.2468-4.2468v-2.184 c0-2.3454,1.9013-4.2468,4.2468-4.2468c2.1645,0,3.9507,1.6193,4.2135,3.7125c0.022,0.175,0.0333,0.3533,0.0333,0.5342V57.9985z"/>
    <path fill="none" stroke="#000000" stroke-linecap="round" stroke-linejoin="round" stroke-miterlimit="10" stroke-width="2" d="M42.6925,58.8074c0,4.0828-3.3097,7.3925-7.3925,7.3925s-7.3925-3.3097-7.3925-7.3925v-3.8019 c0-4.0828,3.3097-7.3925,7.3925-7.3925c3.7678,0,6.8772,2.8188,7.3346,6.4625c0.0382,0.3046,0.0579,0.615,0.0579,0.93V58.8074z"/>
    <path fill="none" stroke="#000000" stroke-linecap="round" stroke-linejoin="round" stroke-miterlimit="10" stroke-width="2" d="M39.5468,37.1845c0,2.3454-1.9013,4.2468-4.2468,4.2468s-4.2468-1.9013-4.2468-4.2468v-2.184 c0-2.3454,1.9013-4.2468,4.2468-4.2468c2.1645,0,3.9507,1.6193,4.2135,3.7125c0.022,0.175,0.0333,0.3533,0.0333,0.5342V37.1845z"/>
    <path fill="none" stroke="#000000" stroke-linecap="round" stroke-linejoin="round" stroke-miterlimit="10" stroke-width="2" d="M42.6925,37.9934c0,4.0828-3.3097,7.3925-7.3925,7.3925s-7.3925-3.3097-7.3925-7.3925v-3.8019 c0-4.0828,3.3097-7.3925,7.3925-7.3925c3.7678,0,6.8772,2.8188,7.3346,6.4625c0.0382,0.3046,0.0579,0.615,0.0579,0.93V37.9934z"/>
    <path fill="none" stroke="#000000" stroke-linecap="round" stroke-linejoin="round" stroke-miterlimit="10" stroke-width="2" d="M39.5468,16.3705c0,2.3454-1.9013,4.2468-4.2468,4.2468s-4.2468-1.9013-4.2468-4.2468v-2.184 c0-2.3454,1.9013-4.2468,4.2468-4.2468c2.1645,0,3.9507,1.6193,4.2135,3.7125c0.022,0.175,0.0333,0.3533,0.0333,0.5342V16.3705z"/>
    <path fill="none" stroke="#000000" stroke-linecap="round" stroke-linejoin="round" stroke-miterlimit="10" stroke-width="2" d="M42.6925,17.1794c0,4.0828-3.3097,7.3925-7.3925,7.3925s-7.3925-3.3097-7.3925-7.3925v-3.8019 c0-4.0828,3.3097-7.3925,7.3925-7.3925c3.7678,0,6.8772,2.8188,7.3346,6.4625c0.0382,0.3046,0.0579,0.615,0.0579,0.93V17.1794z"/>
    <line x1="35.5" x2="35.5" y1="38.8919" y2="54" fill="none" stroke="#000000" stroke-linecap="round" stroke-linejoin="round" stroke-miterlimit="10" stroke-width="2"/>
    <line x1="35.5" x2="35.5" y1="17.9307" y2="33.0389" fill="none" stroke="#000000" stroke-linecap="round" stroke-linejoin="round" stroke-miterlimit="10" stroke-width="2"/>
  </g>
</svg>
