<?xml version="1.0" encoding="utf-8"?>
<!-- Generator: Adobe Illustrator 21.1.0, SVG Export Plug-In . SVG Version: 6.00 Build 0)  -->
<svg version="1.1" id="Ebene_3" xmlns="http://www.w3.org/2000/svg" xmlns:xlink="http://www.w3.org/1999/xlink" x="0px" y="0px"
	 viewBox="0 0 72 72" enable-background="new 0 0 72 72" xml:space="preserve">
<g id="_x26F5__xFE0F_">
	
		<polygon fill="none" stroke="#000000" stroke-width="2.0358" stroke-linecap="round" stroke-linejoin="round" stroke-miterlimit="10" points="
		39,5.8 39,37 57.7,37 	"/>
	<path fill="none" stroke="#000000" stroke-width="2" stroke-linecap="round" stroke-linejoin="round" stroke-miterlimit="10" d="
		M20,50h-1c0,0,0,0,0,0c-4-3-3-8-3-8h23h20c0,0-1.9,4.8-4.8,7.8"/>
	
		<polygon fill="none" stroke="#000000" stroke-width="2" stroke-linecap="round" stroke-linejoin="round" stroke-miterlimit="10" points="
		35.3,13 35.3,37 23.7,37 	"/>
	
		<line fill="none" stroke="#000000" stroke-width="2.0358" stroke-linecap="round" stroke-linejoin="round" stroke-miterlimit="10" x1="39" y1="6" x2="39" y2="42"/>
	<polyline fill="none" points="69,48.2 68,68 4,68 4,48.2 	"/>
	<path fill="none" d="M54.2,49.8C57.8,49.1,60.3,47,67,47h1v21H4V47h1c2.8,0,8.3,2.7,14,3c0.3,0,0.7,0,1,0c6,0,10-3,16-3s11,3,16,3"
		/>
	<path fill="none" stroke="#000000" stroke-width="2" stroke-linecap="round" stroke-linejoin="round" stroke-miterlimit="10" d="
		M67,47c-6.7,0-9.2,2.1-12.8,2.8C53.5,49.9,52.8,50,52,50c-5,0-10-3-16-3s-10,3-16,3c-0.3,0-0.7,0-1,0c-5.6-0.3-11.1-3-14-3"/>
</g>
</svg>
