<svg id="emoji" viewBox="0 0 72 72" xmlns="http://www.w3.org/2000/svg">
  <g id="line">
    <g>
      <path fill="none" stroke="#000" stroke-linecap="round" stroke-linejoin="round" stroke-width="2.1846" d="M15.9489,53.9144a5.265,5.265,0,0,1-3.43,2.4669"/>
      <path fill="none" stroke="#000" stroke-linecap="round" stroke-linejoin="round" stroke-width="2.1846" d="M38.8657,54.9569a3.4911,3.4911,0,0,1-2.5057,1.29H25.8628a4.1344,4.1344,0,0,1-4.1116-2.4455"/>
      <path fill="none" stroke="#000" stroke-linecap="round" stroke-linejoin="round" stroke-width="2.1846" d="M48.6066,38.7518a12.992,12.992,0,0,1-7.2457-4.2509l-2.79,2.2189,2.79-2.2189a23.9856,23.9856,0,0,1-3.08-4.1918L34.63,31.9909l3.6506-1.6818a28.4244,28.4244,0,0,1-2.2581-4.8254l-4.4137.99,4.4137-.99c-.088-.2495-.1734-.4966-.2458-.7281-.9735-3.1112-2.3327-12.83-2.3327-12.83L14.7825,15.4249s1.1664,8.1644,0,12.83-3.499,8.1644-2.3327,12.83l10.4971,2.3327s13.9962,5.8317,16.3289,5.8317c4.6654,0,19.8279-1.1663,19.8279-1.1663C59.1037,41.0845,55.6047,39.9181,48.6066,38.7518Z"/>
      <path fill="none" stroke="#000" stroke-linecap="round" stroke-linejoin="round" stroke-width="2.1846" d="M55.757,54.3411a2.59,2.59,0,0,1-2.485,1.906H47.44a3.8684,3.8684,0,0,1-3.22-1.3127"/>
      <path fill="none" stroke="#000" stroke-linecap="round" stroke-linejoin="round" stroke-width="2.1846" d="M7.7844,59.7461H52.1056c5.8318,0,6.7521-1.5811,7.29-2.2575a4.4763,4.4763,0,0,0,.6329-3.96c-.05-.2081-.1083-.414-.1731-.6163"/>
      <polyline fill="none" stroke="#000" stroke-linecap="round" stroke-linejoin="round" stroke-width="2.1846" points="13.043 45.576 13.634 50.306 22.965 50.306 22.965 47.754"/>
    </g>
  </g>
</svg>
