<svg id="emoji" viewBox="0 0 72 72" xmlns="http://www.w3.org/2000/svg">
  <g id="line">
    <g>
      <path fill="none" stroke="#000" stroke-linecap="round" stroke-linejoin="round" stroke-width="2.1846" d="m15.9489,53.9144c-.7488,1.2651-1.9924,2.1595-3.43,2.4669"/>
      <path fill="none" stroke="#000" stroke-linecap="round" stroke-linejoin="round" stroke-width="2.1846" d="m38.8657,54.9569c-.6168.763-1.5263,1.2312-2.5057,1.29h-10.4972c-1.7509.141-3.3997-.8397-4.1116-2.4455"/>
      <path fill="none" stroke="#000" stroke-linecap="round" stroke-linejoin="round" stroke-width="2.1846" d="m48.6066,38.7518c-2.8193-.5755-5.3679-2.0706-7.2457-4.2509l-2.79,2.2189,2.79-2.2189c-1.1756-1.2815-2.2083-2.687-3.08-4.1918l-3.6509,1.6818,3.6506-1.6818c-.9021-1.5342-1.6581-3.1498-2.2581-4.8254l-4.4137.99,4.4137-.99c-.088-.2495-.1734-.4966-.2458-.7281-.9735-3.1112-2.3327-12.83-2.3327-12.83l-18.6615,3.4993s1.1664,8.1644,0,12.83c-1.1664,4.6656-3.499,8.1644-2.3327,12.83l10.4971,2.3327s13.9962,5.8317,16.3289,5.8317c4.6654,0,19.8279-1.1663,19.8279-1.1663,0-6.9985-3.499-8.1649-10.4971-9.3312Z"/>
      <path fill="none" stroke="#000" stroke-linecap="round" stroke-linejoin="round" stroke-width="2.1846" d="m55.757,54.3411c-.3069,1.1209-1.3229,1.9001-2.485,1.906h-5.832c-1.2206.0967-2.4149-.3902-3.22-1.3127"/>
      <path fill="none" stroke="#000" stroke-linecap="round" stroke-linejoin="round" stroke-width="2.1846" d="m7.7844,59.7461h44.3212c5.8318,0,6.7521-1.5811,7.29-2.2575.8235-1.1464,1.0581-2.614.6329-3.96-.05-.2081-.1083-.414-.1731-.6163"/>
      <polyline fill="none" stroke="#000" stroke-linecap="round" stroke-linejoin="round" stroke-width="2.1846" points="13.043 45.576 13.634 50.306 22.965 50.306 22.965 47.754"/>
    </g>
  </g>
</svg>
