<?xml version="1.0" encoding="utf-8"?>
<!-- Generator: Adobe Illustrator 19.1.0, SVG Export Plug-In . SVG Version: 6.00 Build 0)  -->
<svg version="1.1" id="emoji" xmlns="http://www.w3.org/2000/svg" xmlns:xlink="http://www.w3.org/1999/xlink" x="0px" y="0px"
	 viewBox="0 0 72 72" enable-background="new 0 0 72 72" xml:space="preserve">
<g id="_x2702__1_">
	<g>
		<g>
			<path fill="none" stroke="#000000" stroke-width="2" stroke-linecap="round" stroke-linejoin="round" stroke-miterlimit="10" d="
				M29.6,39.6c3.1-6.9,6.7-14.6,7.8-16.9c2.1-4,5.7-10.2,12.5-11.2L37.3,42.1"/>
		</g>
	</g>
	<path fill="none" stroke="#000000" stroke-width="2" stroke-linecap="round" stroke-linejoin="round" stroke-miterlimit="10" d="
		M41.5,51c-1.1-2.5-3.3-4.3-5.8-5l1.6-3.8l-7.7-2.5c-2.5,5.6-4.9,11.2-5.1,12.3c-0.4,1.8-0.6,4.4,0.3,6.5c2,4.6,7.4,6.7,12,4.6
		C41.5,61,43.5,55.6,41.5,51z M37.9,55.7c-0.6,2.5-3,4-5.5,3.4c-2.5-0.6-4-3-3.4-5.5c0.6-2.5,3-4,5.5-3.4
		C36.9,50.8,38.5,53.3,37.9,55.7z"/>
	<g>
		<path fill="none" stroke="#000000" stroke-width="2" stroke-linecap="round" stroke-linejoin="round" stroke-miterlimit="10" d="
			M26.4,38.2c-0.8-2.3-2.5-4.3-4.9-5.4c-4.6-2-10,0-12,4.6c-2,4.6,0,10,4.6,12c2.1,1,4.7,0.7,6.5,0.3c0.3-0.1,0.9-0.3,1.7-0.6
			 M18.7,45.3c-2.5,0.6-4.9-1-5.5-3.4c-0.6-2.5,1-4.9,3.4-5.5c2.5-0.6,4.9,1,5.5,3.4C22.7,42.3,21.2,44.7,18.7,45.3z"/>
	</g>
	<g>
		<path fill="none" stroke="#000000" stroke-width="2" stroke-linecap="round" stroke-linejoin="round" stroke-miterlimit="10" d="
			M46.6,30.3l14.2-6c-1,6.8-7.2,10.5-11.2,12.5c-1.3,0.7-3.3,1.7-7.2,3.5"/>
	</g>
</g>
</svg>
