<svg id="emoji" viewBox="0 0 72 72" xmlns="http://www.w3.org/2000/svg">
  <g id="line">
    <path fill="none" stroke="#000000" stroke-linecap="round" stroke-linejoin="round" stroke-miterlimit="10" stroke-width="2" d="M29.5835,39.6214c3.0581-6.8803,6.6525-14.6439,7.7996-16.8652c2.0717-4.012,5.7336-10.1903,12.5418-11.1943L37.2636,42.1156"/>
    <path fill="none" stroke="#000000" stroke-linecap="round" stroke-linejoin="round" stroke-miterlimit="10" stroke-width="2" d="M41.4622,50.9758c-1.1378-2.5493-3.3045-4.3145-5.7916-5.0337l1.593-3.8265l-7.6801-2.4942 c-2.5052,5.6398-4.8798,11.2159-5.0918,12.2646c-0.3613,1.7873-0.6165,4.374,0.3383,6.5134 c2.0499,4.5928,7.435,6.6542,12.0278,4.6044C41.4507,60.9539,43.5121,55.5687,41.4622,50.9758z M37.9123,55.712 c-0.5596,2.4517-3.0009,3.9855-5.4525,3.4258c-2.4517-0.5597-3.9856-3.0008-3.4259-5.4525 c0.5597-2.4518,3.0009-3.9856,5.4526-3.4259C36.9382,50.8191,38.472,53.2603,37.9123,55.712z"/>
    <path fill="none" stroke="#000000" stroke-linecap="round" stroke-linejoin="round" stroke-miterlimit="10" stroke-width="2" d="M26.3726,38.2375c-0.7838-2.3259-2.4964-4.3306-4.9143-5.4099c-4.5928-2.0498-9.9779,0.0115-12.0279,4.6045 c-2.0499,4.5928,0.0116,9.9778,4.6044,12.0277c2.1394,0.955,4.7261,0.6996,6.5134,0.3384 c0.2928-0.0592,0.8983-0.2697,1.7418-0.5971 M18.749,45.256c-2.4518,0.5597-4.893-0.9741-5.4526-3.4259 c-0.5597-2.4517,0.974-4.8928,3.4258-5.4525c2.4517-0.5597,4.8929,0.974,5.4526,3.4257 C22.7344,42.2551,21.2007,44.6963,18.749,45.256z"/>
    <path fill="none" stroke="#000000" stroke-linecap="round" stroke-linejoin="round" stroke-miterlimit="10" stroke-width="2" d="M46.6251,30.3466l14.2472-5.9816c-1.004,6.8082-7.1823,10.4701-11.1943,12.5418c-1.3118,0.6774-3.3115,1.6931-7.1655,3.463"/>
  </g>
</svg>
