<?xml version="1.0" encoding="utf-8"?>
<!-- Generator: Adobe Illustrator 21.1.0, SVG Export Plug-In . SVG Version: 6.00 Build 0)  -->
<svg version="1.1" id="emoji" xmlns="http://www.w3.org/2000/svg" xmlns:xlink="http://www.w3.org/1999/xlink" x="0px" y="0px"
	 viewBox="0 0 72 72" enable-background="new 0 0 72 72" xml:space="preserve">
<g id="_x2705_">
	<g>
		<g>
			<path d="M26.3,33.1c3.2,4.5,5.9,9.2,7.9,14.4c0.8,2.1,4.2,2.6,4.8,0c2.8-12.6,8.2-27.2,20.7-33c2.9-1.4,0.4-5.7-2.5-4.3
				c-13.6,6.4-19.9,22.2-23,36c1.6,0,3.2,0,4.8,0c-2.2-5.6-5-10.7-8.4-15.6C28.8,27.9,24.5,30.4,26.3,33.1L26.3,33.1z"/>
		</g>
	</g>
	<g>
		<path fill="none" stroke="#000000" stroke-width="2" stroke-linecap="round" stroke-linejoin="round" stroke-miterlimit="10" d="
			M53,22.6v30.5c0,0.4-0.3,0.7-0.7,0.7H20.7c-0.4,0-0.7-0.3-0.7-0.7V21.4c0-0.4,0.3-0.7,0.7-0.7h20.1h0.6"/>
	</g>
</g>
</svg>
