<?xml version="1.0" encoding="utf-8"?>
<!-- Generator: Adobe Illustrator 21.1.0, SVG Export Plug-In . SVG Version: 6.00 Build 0)  -->
<svg version="1.1" id="emoji" xmlns="http://www.w3.org/2000/svg" xmlns:xlink="http://www.w3.org/1999/xlink" x="0px" y="0px"
	 viewBox="0 0 72 72" enable-background="new 0 0 72 72" xml:space="preserve">
<g id="_x2709__xFE0F_">
	<path fill="none" stroke="#1D1D1B" stroke-width="2" stroke-linecap="round" stroke-linejoin="round" stroke-miterlimit="10" d="
		M11.5,50.9c-0.3-0.6-0.6-1.4-0.6-2.3V22.1l15.9,14.7"/>
	<path fill="none" stroke="#1D1D1B" stroke-width="2" stroke-linecap="round" stroke-linejoin="round" stroke-miterlimit="10" d="
		M44.9,36.7l16-14.7v26.6c0,0.9-0.2,1.6-0.5,2.3"/>
	
		<line fill="none" stroke="#1D1D1B" stroke-width="2" stroke-linecap="round" stroke-linejoin="round" stroke-miterlimit="10" x1="11.5" y1="21.6" x2="11.5" y2="21.6"/>
	<path fill="none" stroke="#1D1D1B" stroke-width="2" stroke-linecap="round" stroke-linejoin="round" stroke-miterlimit="10" d="
		M23.5,39.8"/>
	<path fill="none" stroke="#1D1D1B" stroke-width="2" stroke-linecap="round" stroke-linejoin="round" stroke-miterlimit="10" d="
		M47.9,39.5l12.3,11.3c-0.4,0.8-1.1,1.3-1.8,1.3H13.2c-0.7,0-1.3-0.5-1.8-1.2l12.1-11.1"/>
	<path fill="none" stroke="#1D1D1B" stroke-width="2" stroke-linecap="round" stroke-linejoin="round" stroke-miterlimit="10" d="
		M60.8,22l-16,14.7l-4.5,4.2c-0.2,0.2-0.5,0.4-0.7,0.6c-2.4,1.8-5.2,1.8-7.7,0c-0.2-0.2-0.5-0.4-0.7-0.6l-4.5-4.1L10.9,22.1
		c0-0.1,0.1-0.1,0.1-0.2c0.4-0.6,1-1,1.6-1h46.5c0.6,0,1.2,0.4,1.6,0.9C60.7,21.9,60.8,21.9,60.8,22z"/>
</g>
</svg>
