<?xml version="1.0" encoding="utf-8"?>
<!-- Generator: Adobe Illustrator 19.1.0, SVG Export Plug-In . SVG Version: 6.00 Build 0)  -->
<svg version="1.1" id="emoji" xmlns="http://www.w3.org/2000/svg" xmlns:xlink="http://www.w3.org/1999/xlink" x="0px" y="0px"
	 viewBox="0 0 72 72" enable-background="new 0 0 72 72" xml:space="preserve">
<g id="_x2728_">
	
		<path fill="none" stroke="#000000" stroke-width="0.2549" stroke-linecap="round" stroke-linejoin="round" stroke-miterlimit="10" d="
		M20.7,29.5"/>
	<path fill="none" stroke="#000000" stroke-width="2" stroke-linecap="round" stroke-linejoin="round" stroke-miterlimit="10" d="
		M20,32l2.1-11.2l0.7,4.2c0.1,0.7,2.3,13.9,2.3,13.9c0.3,1.6,1.6,2.8,3.5,3.2L40,44.4l-11.3,2.3c-1.9,0.4-3.3,1.6-3.5,3.2l-3,18.1
		l-3-18.1c-0.3-1.6-1.6-2.8-3.5-3.2L4.3,44.4l11.3-2.3c1.9-0.4,3.1-2.6,3.4-4.1"/>
	
		<path fill="none" stroke="#000000" stroke-width="0.1841" stroke-linecap="round" stroke-linejoin="round" stroke-miterlimit="10" d="
		M43.1,11.6"/>
	<path fill="none" stroke="#000000" stroke-width="2" stroke-linecap="round" stroke-linejoin="round" stroke-miterlimit="10" d="
		M42.6,13.4l1.5-8.1l0.5,3c0.1,0.5,1.7,10,1.7,10c0.2,1.1,1.2,2,2.5,2.3l8.2,1.7l-8.2,1.7c-1.4,0.3-2.3,1.2-2.5,2.3l-2.2,13.1
		l-2.2-13.1c-0.2-1.1-1.2-2-2.5-2.3l-8.2-1.7l8.2-1.7c1.4-0.3,2.3-1.8,2.5-3"/>
	
		<path fill="none" stroke="#000000" stroke-width="0.1841" stroke-linecap="round" stroke-linejoin="round" stroke-miterlimit="10" d="
		M55.1,40.6"/>
	<path fill="none" stroke="#000000" stroke-width="2" stroke-linecap="round" stroke-linejoin="round" stroke-miterlimit="10" d="
		M53.8,44.3l1.2-6.4l0.4,2.4c0.1,0.4,1.3,8,1.3,8c0.2,0.9,0.9,1.6,2,1.8l6.5,1.3l-6.5,1.3c-1.1,0.2-1.9,0.9-2,1.8L55.1,65l-1.7-10.4
		c-0.2-0.9-0.9-1.6-2-1.8l-6.5-1.3l6.5-1.3c1.1-0.2,1.8-1.5,2-2.4"/>
</g>
</svg>
