<?xml version="1.0" encoding="utf-8"?>
<!-- Generator: Adobe Illustrator 21.1.0, SVG Export Plug-In . SVG Version: 6.00 Build 0)  -->
<svg version="1.1" id="emoji" xmlns="http://www.w3.org/2000/svg" xmlns:xlink="http://www.w3.org/1999/xlink" x="0px" y="0px"
	 viewBox="0 0 72 72" enable-background="new 0 0 72 72" xml:space="preserve">
<g id="_x274E__1_">
	<path fill="none" stroke="#000000" stroke-width="2" stroke-linecap="round" stroke-linejoin="round" stroke-miterlimit="10" d="
		M59,59.9H13c-0.5,0-1-0.4-1-1V12.9c0-0.5,0.4-1,1-1H59c0.5,0,1,0.4,1,1v46.1C60,59.5,59.6,59.9,59,59.9z"/>
	
		<polygon fill="none" stroke="#000000" stroke-width="2" stroke-linecap="round" stroke-linejoin="round" stroke-miterlimit="10" points="
		42.8,35.3 45.3,32.8 54,24 47.3,17.2 38.6,26 36.3,28.4 36,28.7 24.7,17.2 18,24 29.1,35.3 29.3,35.5 26.6,38.2 17.2,47.8 
		23.9,54.6 33.3,45 35.7,42.5 36,42.3 48.1,54.6 54.8,47.8 42.7,35.5 	"/>
</g>
</svg>
