<?xml version="1.0" encoding="utf-8"?>
<!-- Generator: Adobe Illustrator 21.1.0, SVG Export Plug-In . SVG Version: 6.00 Build 0)  -->
<svg version="1.1" id="emoji" xmlns="http://www.w3.org/2000/svg" xmlns:xlink="http://www.w3.org/1999/xlink" x="0px" y="0px"
	 viewBox="0 0 72 72" enable-background="new 0 0 72 72" xml:space="preserve">
<g id="_x2754__3_">
	<path fill="none" stroke="#000000" stroke-width="2" stroke-linecap="round" stroke-linejoin="round" stroke-miterlimit="10" d="
		M51.4,24.2c0,7.6-5.6,14-12.9,15.2v7.6c0,1.4-1.1,2.5-2.5,2.5c-1.4,0-2.5-1.1-2.5-2.5v-9.9c0-1.4,1.1-2.5,2.5-2.5
		c5.7,0,10.4-4.7,10.4-10.4c0-5.7-4.6-10.3-10.2-10.4h0c-4.9,0-9.1,3.4-10.2,8.1c0,0.2-0.1,0.4-0.1,0.6c-0.2,1.2-1.3,2.1-2.5,2.1
		c-0.1,0-0.3,0-0.4,0c-1.4-0.2-2.3-1.5-2-2.9c0-0.3,0.1-0.6,0.2-0.8c0.6-2.5,1.8-4.8,3.4-6.7c2.7-3.1,6.6-5.1,11-5.3
		c0.2,0,0.5,0,0.7,0c0.1,0,0.2,0,0.3,0C44.7,9.1,51.4,15.9,51.4,24.2z"/>
	
		<circle fill="none" stroke="#000000" stroke-width="2" stroke-linecap="round" stroke-linejoin="round" stroke-miterlimit="10" cx="36.1" cy="58.8" r="3"/>
</g>
</svg>
