<svg id="emoji" viewBox="0 0 72 72" xmlns="http://www.w3.org/2000/svg">
  <g id="line">
    <path transform="translate(0 0)" fill="none" stroke="#000" stroke-linecap="round" stroke-linejoin="round" stroke-width="2" d="M51.0551,38.55a8.0007,8.0007,0,0,0-15.04-3.8018,7.9991,7.9991,0,1,0-13.267,8.8185l-.0028.0022,2.946,3.6513"/>
    <path transform="translate(0 0)" fill="none" stroke="#000" stroke-linecap="round" stroke-linejoin="round" stroke-width="2" d="M34.4615,58.09l1.5536,1.9255,6.2851-7.79"/>
    <path transform="translate(0 0)" fill="none" stroke="#000" stroke-linecap="round" stroke-linejoin="round" stroke-width="2" d="M19.63,32.1845A20.7728,20.7728,0,0,1,22.7537,21.75c.3726,5.0516,2.7617,5.2416,4.132,5.2416,1.0236,0,2.3016-1.906,2.4353-4.0118a10.2418,10.2418,0,0,1,3.245-6.35,1.883,1.883,0,0,0,.8226.1982c1.151,0,3.004-1.0749,1.4831-9.1283,0,0,11.3024,6.5754,10.8772,17.4629A1.4254,1.4254,0,0,0,47.19,26.5719l.0176,0a1.813,1.813,0,0,0,.2072-.002,4.1811,4.1811,0,0,0,3.1887-1.85,12.724,12.724,0,0,1,1.7315,6.7043"/>
    <path transform="translate(0 0)" fill="none" stroke="#000" stroke-miterlimit="10" stroke-width="2" d="M32.4618,54.23a4.4581,4.4581,0,0,0,.9262-3.8142c-.2438-1.92-1.7576-4.8389-3.7253-5.2681-.4856-.1059.71,2.3744-.3283,4.1533-1.1264,1.93-2.0578,2.9-1.5336,4.8814.5386,2.0351,3.7443,3.7842,3.8745,3.2175a1.5336,1.5336,0,0,0-.0495-.5452,3.469,3.469,0,0,1,.836-2.6247Z"/>
    <path transform="translate(0 0)" fill="none" stroke="#000" stroke-miterlimit="10" stroke-width="2" d="M46.223,36.2711c.5993-.225-.5392,2.8218,1.0472,4.5927,1.721,1.9211,3.0491,2.8077,2.6857,5.1473-.3733,2.4033-4.1707,5.068-4.4218,4.46a1.5572,1.5572,0,0,1-.02-.6231,3.5041,3.5041,0,0,0-1.4585-2.7652,4.5134,4.5134,0,0,1-1.7537-4.0813C42.3191,40.7923,43.7941,37.183,46.223,36.2711Z"/>
  </g>
</svg>
