<svg id="emoji" viewBox="0 0 72 72" version="1.1" xmlns="http://www.w3.org/2000/svg">
  <g id="line" fill="none" stroke="#000" stroke-width="2">
    <path transform="translate(0)" stroke-linecap="round" stroke-linejoin="round" d="m51.06 38.55a8.001 8.001 0 0 0-15.04-3.802 7.999 7.999 0 1 0-13.27 8.818l-0.0028 0.0022 2.946 3.651"/>
    <path transform="translate(0)" stroke-linecap="round" stroke-linejoin="round" d="m34.46 58.09 1.554 1.926 6.285-7.79"/>
    <path transform="translate(0)" stroke-linecap="round" stroke-linejoin="round" d="m19.63 32.18a20.77 20.77 0 0 1 3.124-10.43c0.3726 5.052 2.762 5.242 4.132 5.242 1.024 0 2.302-1.906 2.435-4.012a10.24 10.24 0 0 1 3.245-6.35 1.883 1.883 0 0 0 0.8226 0.1982c1.151 0 3.004-1.075 1.483-9.128 0 0 11.3 6.575 10.88 17.46a1.425 1.425 0 0 0 1.441 1.409h0.0176a1.813 1.813 0 0 0 0.2072-2e-3 4.181 4.181 0 0 0 3.189-1.85 12.72 12.72 0 0 1 1.732 6.704"/>
    <path transform="translate(0)" stroke-miterlimit="10" d="m32.46 54.23a4.458 4.458 0 0 0 0.9262-3.814c-0.2438-1.92-1.758-4.839-3.725-5.268-0.4856-0.1059 0.71 2.374-0.3283 4.153-1.126 1.93-2.058 2.9-1.534 4.881 0.5386 2.035 3.744 3.784 3.874 3.218a1.534 1.534 0 0 0-0.0495-0.5452 3.469 3.469 0 0 1 0.836-2.625z"/>
    <path transform="translate(0)" stroke-miterlimit="10" d="m46.22 36.27c0.5993-0.225-0.5392 2.822 1.047 4.593 1.721 1.921 3.049 2.808 2.686 5.147-0.3733 2.403-4.171 5.068-4.422 4.46a1.557 1.557 0 0 1-0.02-0.6231 3.504 3.504 0 0 0-1.458-2.765 4.513 4.513 0 0 1-1.754-4.081c0.0172-2.209 1.492-5.818 3.921-6.73z"/>
  </g>
</svg>
