<?xml version="1.0" encoding="utf-8"?>
<!-- Generator: Adobe Illustrator 21.1.0, SVG Export Plug-In . SVG Version: 6.00 Build 0)  -->
<svg version="1.1" id="emoji" xmlns="http://www.w3.org/2000/svg" xmlns:xlink="http://www.w3.org/1999/xlink" x="0px" y="0px"
	 viewBox="0 0 72 72" enable-background="new 0 0 72 72" xml:space="preserve">
<g id="_x3297__xFE0F__1_">
	<g>
		<path fill="#1D1D1B" d="M27.9,24.5c0-0.3-0.2-0.5-0.6-0.5h-1.4c-0.3,0-0.6,0.2-0.6,0.5v2H22c-0.3,0-0.6,0.3-0.6,0.6v1.2
			c0,0.3,0.3,0.6,0.6,0.6h6.9c-0.7,2.3-2.8,6.5-7.5,6.5v2.4c1.5,0,2.8-0.3,4-0.9v9.5c0,0.3,0.2,0.5,0.6,0.5h1.4
			c0.3,0,0.6-0.2,0.6-0.5v-9.7c0.6,0.5,1.4,0.9,2.5,1.2c0.3,0.1,0.6-0.1,0.7-0.4l0.3-1.3c0.1-0.3-0.1-0.5-0.4-0.6
			c-1.3-0.4-1.9-1-2.2-1.4c1.7-2.1,2.6-4.6,2.9-6.4l0.2-1.4h-4.1V24.5z"/>
		<path fill="#1D1D1B" d="M49.2,40.1h-1c-0.4,0-0.7,0.3-0.7,0.8v2.5c0,0.2-0.1,0.5-0.2,0.6c-0.2,0.2-0.4,0.3-0.7,0.3
			c-0.2,0-0.5-0.1-0.7-0.3c-0.2-0.2-0.3-0.4-0.3-0.7v-9.8h0.2c1.3,0,2.4-1.1,2.4-2.4v-4.7c0-1.3-1.1-2.4-2.4-2.4h-7.7
			c-1.3,0-2.4,1.1-2.4,2.4v4.7c0,1.3,1.1,2.4,2.4,2.4h0.3c0.1,2.6-0.1,9.1-5.3,11.2c-0.2,0.1-0.3,0.3-0.2,0.4l0.6,1.8
			c0.1,0.2,0.3,0.3,0.5,0.2c6-2.3,7.2-9.2,7-13.6h2.2v9.8c0,0.9,0.4,1.8,1.1,2.5c0.6,0.7,1.5,1,2.4,1c0,0,0,0,0.1,0
			c1.3,0,2.4-0.8,3-2c0.2-0.5,0.3-1,0.3-1.5l0-2.5C49.9,40.5,49.6,40.1,49.2,40.1z M38.2,26.6h7.4V31h-7.4V26.6z"/>
	</g>
	<circle fill="none" stroke="#1D1D1B" stroke-width="2" stroke-miterlimit="10" cx="36" cy="36" r="28"/>
</g>
</svg>
