<svg id="emoji" viewBox="0 0 72 72" version="1.1" xmlns="http://www.w3.org/2000/svg">
  <g id="line" fill="none" stroke="#000" stroke-linecap="round" stroke-linejoin="round" stroke-width="2">
    <path d="m15.888 31.573-10.483-11.372"/>
    <path d="m32.803 36.632c3.6936 3.3355 6.4959 5.8242 16.144 5.3955 3.9938-0.17741 0.85426-4.6415 3.0901-6.6835 0.81828-0.74732 3.4747-2.5759 4.0777-2.1759 0.0402 0.0266 0.072 0.0635 0.0928 0.11082 0.0768 0.17521 0.0132 0.49928-0.24849 1.0206-0.69049 2.4736 2.2739 4.4802 1.9027 6.7544-0.1494 0.91522-0.70981 1.5619-1.1357 2.0359 0.85588 0.1648 2.5031 0.18754 3.2106 1.0387 1.1743 1.5149 2 4.1472 5.7048 4.1214-2.9652 2.4194-6.159 3.1053-10.613 0.0607-1.4945-0.88589-2.8986-1.0241-4.2574-0.93508-14.778 0.96833-23.977 2.7808-30.553-1.8429"/>
    <path d="m17.191 42.404c-0.767-0.941-1.419-1.862-2.141-3.089-3.0961-5.2608 2.6554-12.438 10.354-8.1869 1.3388 0.73932 2.4799 1.4873 3.4869 2.2268"/>
    <path d="m17.281 42.342c-2.9723 1.9034-4.202 5.1206-4.5667 9.0274-0.12068 1.2926 1.3955 2.1803 2.5643 1.6878 3.387-0.86001 6.3923-5.0451 4.8918-7.5275"/>
    <path d="m29.03 33.52c2.4163-3.2068 6.0504-4.0013 10.309-3.6415 1.2936 0.10928 1.8998 1.7583 1.2088 2.8218-1.4441 3.1822-6.0938 5.4018-8.2725 3.4869"/>
  </g>
</svg>
