<svg id="emoji" viewBox="0 0 72 72" version="1.1" xmlns="http://www.w3.org/2000/svg">
  <g id="line">
    <path fill="none" stroke="#000" stroke-linecap="round" stroke-linejoin="round" stroke-miterlimit="10" stroke-width="2" d="m34.98 24.01c1.763-0.7317 3.744-0.7332 5.507-0.0042 5.245 2.136 10.97 20.55 9.796 26.09-3.318-0.2344-8.878-4.857-11.38-6.965-2.392-1.88-4.31-4.295-5.599-7.051-1.473-4.584-1.456-10.68 1.68-12.07z"/>
    <path fill="none" stroke="#000" stroke-linecap="round" stroke-linejoin="round" stroke-width="2" d="m27.85 16.86-4.768 1.915a7.48 7.48 0 0 1-0.08-1.038 6.646 6.646 0 0 1 5.725-6.822"/>
    <path fill="none" stroke="#000" stroke-linecap="round" stroke-linejoin="round" stroke-width="2" d="m52.77 53.42c0.435 1.401 1.492 9.806 1.673 11.26 0.05333 1.684-0.7742 3.102-2.284 2.284-1.291-3.902-3.765-14.54-7.046-16.26"/>
    <path fill="none" stroke="#000" stroke-linecap="round" stroke-linejoin="round" stroke-width="2" d="m29.56 19.07a3.469 3.469 0 0 1-5.339-0.749"/>
    <path fill="none" stroke="#000" stroke-linecap="round" stroke-linejoin="round" stroke-width="2" d="m34.82 45.62-0.1244 6.378"/>
    <line x1="57.09" x2="61" y1="52" y2="52" fill="none" stroke="#000" stroke-linecap="round" stroke-linejoin="round" stroke-width="2"/>
    <line x1="13" x2="42.99" y1="52.17" y2="52.17" fill="none" stroke="#000" stroke-linecap="round" stroke-linejoin="round" stroke-width="2"/>
    <path fill="none" stroke="#000" stroke-linecap="round" stroke-linejoin="round" stroke-width="2" d="m34.82 45.62c-4.047-3.036-6.24-5.806-7.062-11.87-0.6936-5.112 0.7023-11.28 3.749-12.97-5.671-4.292-2.626-13.33 4.486-13.32 3.949 0.07524 7.178 3.171 7.418 7.114 0.12 2.217 0.0732 4.46 0.0353 6.694-0.0156 0.9227-0.03 1.844-0.03 2.761v1.705"/>
    <path fill="none" stroke="#000" stroke-linecap="round" stroke-linejoin="round" stroke-width="2" d="m31.7 20.78c-0.0874 0.0469-0.1714 0.1034-0.2575 0.1544 4.347-0.8279 5.867-2.954 7.147-6.93-0.3762-0.7827-3.251-3.376-7.587-4.006-0.1248-0.0181-0.2732-0.02-0.4079-0.0312"/>
    <line x1="40.7" x2="40.7" y1="48" y2="52" fill="none" stroke="#000" stroke-linecap="round" stroke-linejoin="round" stroke-width="2"/>
  </g>
</svg>
