<svg id="emoji" viewBox="0 0 72 72" xmlns="http://www.w3.org/2000/svg">
  <g id="line">
    <path fill="none" stroke="#000" stroke-linecap="round" stroke-linejoin="round" stroke-width="2" d="m17.8799,50.1671c4.21,5.3772,10.7615,8.8329,18.1201,8.8329,10.6402,0,19.5929-7.2252,22.2195-17.037h-12.9744c-1.9589,3.0309-5.3677,5.037-9.2451,5.037-5.738,0-10.4499-4.3935-10.9551-10h33.9338c.0141-.3316.0213-.6649.0213-1,0-7.4346-3.5275-14.0453-9-18.2497m-36.8061,15.2497c1.2984-9.9675,8.9784-17.93,18.8061-19.6534m4,11.6534c4.2747,0,7.9799,2.4383,9.8006,6h-19.6012c1.8207-3.5617,5.5259-6,9.8006-6Z"/>
    <path d="m56.8069,18.5776l-.7071.7071h0l.7071-.7071Zm3.192,6.7882l-.9909.1342c.0703.5194.5298.8964,1.053.8639.5231-.0325.9324-.4635.9379-.9876l-1-.0105Zm-34.0467.5408l.7071.7071-.7071-.7071Zm-7.329,30.8547l-.7072.7071h0l.7071-.7071Zm7.0976,3.2307l.0285.9996c.5244-.015.9481-.4327.9705-.9568.0225-.5242-.364-.9765-.8852-1.0363l-.1138.9935Zm-10.1577-3.5551l.7071-.7071h0l-.7071.7071Zm7.8603-33.0135l.7071.7071-.7071-.7071Zm33.0135-7.8603l-.7071.7071.7071-.7071Zm-.3371,3.7216c1.6052,1.6052,2.5713,3.7275,2.9082,6.2153l1.9819-.2684c-.3858-2.849-1.5131-5.3983-3.4759-7.3611l-1.4142,1.4142Zm-29.4405,7.329c5.1626-5.1626,11.0933-8.512,16.4692-9.7889,5.3942-1.2813,10.0598-.4516,12.9713,2.4599l1.4142-1.4142c-3.5849-3.585-9.0747-4.3629-14.8477-2.9916-5.7913,1.3756-12.0397,4.939-17.4213,10.3206l1.4143,1.4142Zm-7.329,29.4405c-2.9116-2.9115-3.7412-7.5771-2.4599-12.9713,1.2769-5.3759,4.6263-11.3066,9.7889-16.4692l-1.4143-1.4142c-5.3815,5.3815-8.9449,11.6299-10.3205,17.4212-1.3713,5.773-.5934,11.2628,2.9915,14.8477l1.4143-1.4142Zm6.5043,2.9443c-2.613-.2995-4.8379-1.2778-6.5043-2.9443l-1.4142,1.4142c2.0387,2.0388,4.7093,3.1754,7.6908,3.5171l.2277-1.987Zm-.1424-.0061c-3.8598.1102-7.1344-.975-9.422-3.2626l-1.4142,1.4142c2.771,2.7711,6.6329,3.9692,10.8933,3.8476l-.0571-1.9992Zm-9.422-3.2626c-3.1358-3.1358-4.0189-8.1548-2.6415-13.9401,1.3731-5.7667,4.9676-12.125,10.5018-17.6592l-1.4142-1.4142c-5.7528,5.7528-9.5613,12.4284-11.0332,18.6102-1.4674,6.1633-.6372,12.0075,3.1729,15.8175l1.4142-1.4142Zm7.8603-31.5993c5.5342-5.5342,11.8925-9.1287,17.6592-10.5018,5.7853-1.3774,10.8043-.4943,13.9401,2.6415l1.4142-1.4142c-3.81-3.8101-9.6542-4.6403-15.8175-3.1729-6.1818,1.4719-12.8574,5.2804-18.6102,11.0332l1.4142,1.4142Zm31.5993-7.8603c2.2211,2.2211,3.3081,5.3714,3.2692,9.0851l1.9999.021c.043-4.1123-1.1653-7.8308-3.8549-10.5203l-1.4142,1.4142Z"/>
  </g>
</svg>
