<svg id="emoji" viewBox="0 0 72 72" version="1.1" xmlns="http://www.w3.org/2000/svg">
  <g id="line">
    <path id="inner-shape" fill="none" stroke="#000000" stroke-opacity="1" stroke-dasharray="none" stroke-width="2" d="m 36.000802,28.035864 c -2.106684,0 -8.888497,12.302051 -7.853708,14.37903 1.034797,2.076988 14.684993,2.054293 15.707416,0 1.022423,-2.054293 -5.747015,-14.378002 -7.853708,-14.37903 z"/>
    <path id="outer-shape" fill="none" stroke="#000000" stroke-opacity="1" stroke-dasharray="none" stroke-width="2" d="m 36.002756,12.002654 c -6.347896,0 -26.7819622,37.06703 -23.666241,43.326858 3.115713,6.25982 44.250781,6.187631 47.332489,0 3.0817,-6.187639 -17.319381,-43.326858 -23.666248,-43.326858 z m 15.509525,37.895144 c -2.019085,4.055998 -28.970075,4.10137 -31.012863,0 -2.042789,-4.101369 11.347677,-28.38887 15.506431,-28.38887 4.158754,0 17.525508,24.331845 15.506432,28.38887 z"/>
  </g>
</svg>
