<svg id="emoji" viewBox="0 0 72 72" xmlns="http://www.w3.org/2000/svg">
  <g id="line">
    <path fill="none" stroke="#000" stroke-linecap="round" stroke-width="1.75" d="M28.8633 46.2124C32.1378 49.0776 39.9148 49.0776 42.78 46.2124"/>
    <circle cx="42.6587" cy="39.0635" r="2" fill="#000"/>
    <circle cx="29.334" cy="39.0635" r="2" fill="#000"/>
    <path fill="none" stroke="#000" stroke-width="2" d="M64 36C64 51.464 51.464 64 36 64C20.536 64 8 51.464 8 36C8 20.536 20.536 8 36 8C51.464 8 64 20.536 64 36ZM47.9865 25.4778C50.2003 25.4778 51.995 23.6831 51.995 21.4693C51.995 19.2555 50.2003 17.4608 47.9865 17.4608C46.7033 17.4608 45.5621 18.0639 44.8292 18.9996L38.3963 17.6323C37.9851 17.5449 37.5746 17.6098 37.2275 17.7883C36.7554 18.0162 36.387 18.4554 36.2708 19.0117L34.3284 28.3098C30.2804 28.5461 26.5888 29.7417 23.7283 31.6054C22.8893 31.048 21.8816 30.7226 20.7993 30.7226C17.8734 30.7226 15.5015 33.0946 15.5015 36.0205C15.5015 37.8738 16.4532 39.5034 17.8917 40.4496C17.8751 40.6772 17.8667 40.9064 17.8667 41.1368C17.8667 44.8303 20.0052 48.072 23.2562 50.3494C26.5104 52.6288 30.9528 54.007 35.8124 54.007C40.6719 54.007 45.1143 52.6288 48.3685 50.3494C51.6195 48.072 53.758 44.8303 53.758 41.1368C53.758 40.9508 53.7526 40.7657 53.7417 40.5815C55.2979 39.6596 56.3432 37.963 56.3432 36.0205C56.3432 33.0946 53.9713 30.7226 51.0454 30.7226C49.9161 30.7226 48.8682 31.0768 48.0085 31.6791C45.2763 29.8683 41.7686 28.6734 37.9096 28.3531L39.3561 21.4293L44.0956 22.4367C44.5286 24.1834 46.1062 25.4778 47.9865 25.4778Z"/>
  </g>
</svg>
