<svg id="emoji" viewBox="0 0 72 72" xmlns="http://www.w3.org/2000/svg">
  <g id="line">
    <path fill="none" stroke="#000" stroke-linecap="round" stroke-width="2" d="M25.9175 52.2133C25.9175 52.2133 24.0777 54.9707 23.8507 54.9707C23.814 54.9707 23.4893 54.8724 23.129 54.7522C19.6688 53.5977 16.6983 52.2168 13.9311 50.4764C13.227 50.0336 11.6374 48.9673 11.3217 48.7262C11.1194 48.5717 11.0785 48.1075 11.0157 45.2536C10.9654 42.9619 11.0374 40.9084 11.2099 39.7223C11.5347 37.4882 11.6931 36.5016 11.851 35.7268C12.0573 34.7146 12.8429 31.8295 13.0833 31.2012C13.1699 30.9751 13.336 30.5152 13.4527 30.1793C14.2126 27.9905 15.7426 24.8272 17.1824 22.4683C18.5869 20.1672 18.5208 20.2517 19.1428 19.9622C21.4057 18.9093 24.7618 17.8618 28.1258 17.1585C28.5169 17.0768 28.8739 17.0075 28.9192 17.0046C28.9644 17.0016 29.3 17.5963 29.6649 18.326C30.0297 19.0557 30.334 19.6628 30.3411 19.675C30.3481 19.6874 30.7536 19.6463 31.2423 19.584C34.3225 19.1908 38.2347 19.2187 41.5086 19.657V19.657C41.698 19.6824 41.8812 19.5789 41.9572 19.4036L42.0172 19.2652C42.1209 19.0262 42.4148 18.4187 42.6703 17.9153L43.0148 17.2365C43.0864 17.0955 43.2406 17.0165 43.3968 17.041V17.041C43.5409 17.0635 43.9789 17.1508 44.37 17.2349C47.1725 17.8381 49.4505 18.5174 51.6686 19.4116C53.5313 20.1623 53.4744 20.1256 53.9887 20.9111C55.9239 23.8665 57.7395 27.4348 58.6728 30.1173C58.7873 30.4462 58.9518 30.9003 59.0385 31.1264C59.3065 31.8255 60.1576 34.9988 60.3517 36.0224C60.4531 36.5568 60.6041 37.465 60.6875 38.0405C60.7707 38.6161 60.8721 39.3056 60.9128 39.5728C61.1667 41.2408 61.2484 45.1932 61.075 47.4213C60.9878 48.542 60.9782 48.5854 60.7808 48.7492C60.574 48.9208 58.8544 50.0784 58.0316 50.5998C56.7965 51.3825 51.3246 54.0043 49.59 54.7522C49.3091 54.8733 49.1231 54.9381 48.9999 54.9707V54.9707C48.841 55.0128 48.7023 54.898 48.6013 54.7682L46.6139 52.2133M23.5417 47.9359C24.5836 48.4645 27.4396 49.3323 29.5481 49.8433C33.0094 50.6823 37.5445 50.7835 41.3757 50.1072C43.4556 49.7399 47.1649 48.7051 48.7588 47.9359M28.7613 32.9949C30.3087 33.3901 31.4403 34.5165 32.0279 36.2466C32.3488 37.1914 32.3488 38.516 32.0279 39.4607C31.4725 41.096 30.4882 42.1658 29.0642 42.6819C28.0111 43.0636 27.0296 42.9921 25.9175 42.4527C22.8214 40.951 22.2643 36.3427 24.8919 33.967C25.9737 32.9889 27.367 32.6389 28.7613 32.9949ZM45.4374 32.9905C46.163 33.1758 46.534 33.3653 47.149 33.8647C48.7081 35.1307 49.2887 37.4289 48.7588 39.3433C48.4292 40.5345 47.5544 41.7338 46.6139 42.2843C45.522 42.9231 44.1902 43.1373 42.9941 42.6483C41.0416 41.8499 39.9195 39.9442 39.9186 37.891C39.918 36.7946 40.0358 36.2932 40.5269 35.3028C40.8965 34.5575 41.813 33.6386 42.5255 33.2991C43.4783 32.845 44.4603 32.741 45.4374 32.9905Z"/>
  </g>
</svg>
