<svg id="emoji" viewBox="0 0 72 72" version="1.1" xmlns="http://www.w3.org/2000/svg">
  <g id="line-supplement" stroke="#000">
    <rect x="6.95" y="36" rx="4.05" ry="4.31" width="58.1" height="29.02" fill="none" stroke-linecap="round" stroke-linejoin="round" stroke-width="3" display="none"/>
    <g transform="matrix(.8851 0 0 .8851 -134.7 18.68)" stroke-width="8">
      <path stroke-linecap="round" stroke-linejoin="round" d="m192.9-2.429v22"/>
      <path stroke-linecap="round" stroke-linejoin="round" d="m208.5 4.015-15.6 15.56"/>
      <line x1="214.9" x2="170.9" y1="19.57" y2="19.57" stroke-linecap="round" stroke-linejoin="round"/>
      <path stroke-linecap="round" stroke-linejoin="round" d="m192.9 19.57-15.6-15.56"/>
      <ellipse cx="192.9" cy="42.47" rx="0.8695" ry="0.8987" display="none"/>
      <ellipse cx="192.9" cy="-3.328" rx="0.8695" ry="0.8987"/>
      <ellipse cx="150.2" cy="-99.67" rx="0.8695" ry="0.8987" transform="rotate(45)" display="none"/>
      <ellipse cx="150.2" cy="-145.5" rx="0.8695" ry="0.8987" transform="rotate(45)"/>
      <ellipse cx="19.57" cy="-170" rx="0.8695" ry="0.8987" transform="rotate(90)"/>
      <ellipse cx="19.57" cy="-215.8" rx="0.8695" ry="0.8987" transform="rotate(90)"/>
      <ellipse cx="-122.6" cy="-127.3" rx="0.8695" ry="0.8987" transform="rotate(135)"/>
      <ellipse cx="-122.6" cy="-173.1" rx="0.8695" ry="0.8987" transform="rotate(135)" display="none"/>
    </g>
    <g transform="matrix(.886 0 0 .886 4.107 7.336)" fill="none" stroke-linecap="round" stroke-linejoin="round" stroke-miterlimit="10" stroke-width="3.386" clip-rule="evenodd">
      <path d="m55.64 41.53c-1.106-0.9832-2.563-1.578-4.161-1.578-3.461 0-6.27 2.807-6.27 6.27v5.016c0 3.461 2.809 6.27 6.27 6.27 3.464 0 6.27-2.809 6.27-6.27v-2.543h-5.016"/>
      <path d="m40.61 39.95-5.016 17.56-5.016-17.56"/>
      <path d="m25.15 43.45c-0.5138-2-2.735-3.501-5.396-3.501-3.043 0-5.509 1.963-5.509 4.386 0 2.421 2.466 4.386 5.509 4.386l-0.1128 0.01504c3.043 0 5.509 1.965 5.509 4.386 0 2.424-2.466 4.386-5.509 4.386-2.662 0-4.883-1.504-5.396-3.504"/>
    </g>
  </g>
  <g id="line" transform="matrix(.8621 0 0 .8621 4.97 4.974)" stroke="#000">
    <rect x="6.95" y="36" rx="4.698" ry="5" width="58.1" height="29.02" fill="none" stroke-linecap="round" stroke-linejoin="round" stroke-width="3" display="none"/>
  </g>
</svg>
