<svg id="emoji" viewBox="0 0 72 72" xmlns="http://www.w3.org/2000/svg">
  <g id="line">
    <path fill="none" stroke="#000" stroke-linecap="round" stroke-linejoin="round" stroke-width="2" d="m30.2458,35.1754l-.8973,3.1093c-.2684.8665-.7483,1.6525-1.3964,2.2871l-4.0583,3.6811c-.7142.5966-1.758.5787-2.4513-.0421-.3967-.7606-.2775-1.6878.2987-2.3233l4.1637-4.6711.3187-2.0831"/>
    <polyline fill="none" stroke="#000" stroke-linecap="round" stroke-linejoin="round" stroke-width="2" points="18.824 46.107 29.697 46.107 29.697 51.728 41.132 51.728 41.132 57.349 52.371 57.349 52.371 62.193"/>
    <path fill="none" stroke="#000" stroke-linecap="round" stroke-linejoin="round" stroke-width="2" d="m33.3071,27.6766v2.7558l3.487,4.9631c.2229.9307.2886,1.8921.1944,2.8445l-.3742,9.2773c-.0109.8421-.6689,1.5334-1.5094,1.586-.8716.024-1.5976-.6631-1.6216-1.5346-.0006-.0222-.0008-.0444-.0004-.0666l-.2389-9.97-5.6953-5.66c-.6094-.8199-.9368-1.8152-.9331-2.8368v-5.3953"/>
    <line x1="40.9226" x2="55.6084" y1="32.2169" y2="38.79" fill="none" stroke="#000" stroke-linecap="round" stroke-linejoin="round" stroke-width="2"/>
    <path fill="none" stroke="#000" stroke-linecap="round" stroke-linejoin="round" stroke-width="2" d="m40.2627,28.2575l-6.9556-3.936-.0311-3.4815c-.1861-1.5978-.7752-3.0314-3.0842-3.0314-3.2685,0-7.3183,4.1-7.3183,5.8843v6.1942"/>
    <path fill="none" stroke="#000" stroke-linecap="round" stroke-linejoin="round" stroke-width="2" d="m30.8582,12.4667c0-1.8035,1.4621-3.2656,3.2656-3.2656s3.2656,1.4621,3.2656,3.2656-1.4621,3.2656-3.2656,3.2656h0"/>
  </g>
</svg>
