<svg id="emoji" viewBox="0 0 72 72" xmlns="http://www.w3.org/2000/svg">
  <g id="line">
    <polyline fill="none" stroke="#000" stroke-linecap="round" stroke-linejoin="round" stroke-width="2" points="39.632 55.881 47.057 56.419 41.501 47.603 45.013 47.757 40.217 40.501 43.237 40.332 36.397 30.97 29.826 40.547 32.907 40.171 27.566 47.757 31.293 47.603 25.737 56.419 32.34 55.605"/>
    <line x1="36.3969" x2="36.3969" y1="57.2264" y2="63.2201" fill="none" stroke="#000" stroke-linecap="round" stroke-miterlimit="10" stroke-width="2"/>
    <path fill="none" stroke="#000" stroke-linecap="round" stroke-linejoin="round" stroke-width="2" d="M20.3488,55.8877a20.1948,20.1948,0,0,1-4.86-13.019A33.5825,33.5825,0,0,1,19.3876,27.778c.4651,7.3054,3.9113,10.2468,5.6219,10.2468,1.2778,0,2.4529-1.3022,2.4529-3.4259.0885-2.7421.1766-7.1072,3.8443-13.8946"/>
    <path fill="none" stroke="#000" stroke-linecap="round" stroke-linejoin="round" stroke-width="2" d="M46.871,60.436a20.6379,20.6379,0,0,1-10.8115,2.82,20.288,20.288,0,0,1-10.3243-2.8253"/>
    <path fill="none" stroke="#000" stroke-linecap="round" stroke-linejoin="round" stroke-width="2" d="M34.845,7.46s13.7792,9.5092,13.2485,25.2544a1.9324,1.9324,0,0,0,2.08,2.0345,5.14,5.14,0,0,0,3.9807-2.6742A20.7208,20.7208,0,0,1,56.3156,41.77a23.4673,23.4673,0,0,1-3.7862,13.28"/>
  </g>
</svg>
