<svg id="emoji" viewBox="0 0 72 72" xmlns="http://www.w3.org/2000/svg">
  <g id="line">
    <polyline fill="none" stroke="#000" stroke-linecap="round" stroke-linejoin="round" stroke-width="2" points="55.667 43.758 50.264 43.758 46.453 39.512"/>
    <path fill="none" stroke="#000" stroke-linecap="round" stroke-linejoin="round" stroke-width="2" d="M46.55,35.9786s-5.3819.91-6.5319,1.7338c-1.4689,1.0521-4.1343,6.2446-4.1343,6.2446"/>
    <path fill="none" stroke="#000" stroke-linecap="round" stroke-linejoin="round" stroke-width="2" d="M38.1489,50.2244l-2.6422,3.5848L33.4354,55.153"/>
    <path fill="none" stroke="#000" stroke-linecap="round" stroke-linejoin="round" stroke-width="2" d="M46.4845,43.9909v2.144l3.66,4.3682a4.3457,4.3457,0,0,1,.6671,2.3876l.3967,8.66c.0482,1.811-.9915,2.4007-1.7973,2.4007-.7887,0-1.44-.5994-1.7039-2.1969L46.9587,53.65l-6.0179-5.4492a2.9548,2.9548,0,0,1-.9225-2.1743,3.9655,3.9655,0,0,1,.615-2.1923l2.907-5.2487c1.0422-1.9472,2.0339-2.6234,3.4056-2.6234a2.4538,2.4538,0,0,1,2.32,2.337"/>
    <path fill="none" stroke="#000" stroke-linecap="round" stroke-linejoin="round" stroke-width="1.8212" d="M26.5434,55.5429A18.8048,18.8048,0,0,1,9.8758,37.0942a30.58,30.58,0,0,1,3.5507-13.7415c.4235,6.6522,3.5616,9.3307,5.1193,9.3307,1.1635,0,2.2336-1.1858,2.2336-3.12.0805-2.497.4612-6.7723,3.801-12.9528"/>
    <path fill="none" stroke="#000" stroke-linecap="round" stroke-linejoin="round" stroke-width="1.8212" d="M26.2908,4.851S39.1386,13.51,38.6553,27.8475A1.76,1.76,0,0,0,40.5489,29.7a4.68,4.68,0,0,0,3.6248-2.4351,13.8415,13.8415,0,0,1,1.28,3.3774"/>
    <path fill="none" stroke="#000" stroke-linecap="round" stroke-linejoin="round" stroke-width="2" d="M42.375,52.4469l-2.6421,3.5847-6.7443,4.3753"/>
    <path fill="none" stroke="#000" stroke-linecap="round" stroke-linejoin="round" stroke-width="2" d="M48.74,33.1515a3.135,3.135,0,1,1,3.135,3.135"/>
  </g>
</svg>
