<svg id="emoji" viewBox="0 0 72 72" xmlns="http://www.w3.org/2000/svg">
  <g id="line">
    <path fill="none" stroke="#000" stroke-linecap="round" stroke-linejoin="round" stroke-width="2" d="M54.7167,43.9549l5.1127,10.1522a4.4616,4.4616,0,0,1,.5748,1.9161,3.8914,3.8914,0,0,1-3.8322,3.8877H15.5783a3.8091,3.8091,0,0,1-3.8322-3.7919,3.4544,3.4544,0,0,1,.5748-1.9161l12.1164-23.954a27.5724,27.5724,0,0,1,5.8238-1.0549c6.27,0,11.27,3.4679,11.27,9.0242a7.2344,7.2344,0,0,1-.2708,1.8079c-1.1433,4.3752-5.8742,6.3523-7.8749,4.3843a5.4847,5.4847,0,0,0,.3443-1.6817,1.6184,1.6184,0,0,0-1.8053-1.8579c-2.0769,0-3.0454,1.8026-3.0454,3.4662,0,2.2466.9875,5.0339,5.9373,5.0339s12.75-5.8,17.72-5.7925A9.32,9.32,0,0,1,54.7167,43.9549Z"/>
    <path fill="none" stroke="#000" stroke-linecap="round" stroke-linejoin="round" stroke-width="2" d="M32.6741,13.9649a3.892,3.892,0,0,1,6.7063,0l20.449,40.1422a4.4616,4.4616,0,0,1,.5748,1.9161,3.8914,3.8914,0,0,1-3.8322,3.8877H15.5783a3.8091,3.8091,0,0,1-3.8322-3.7919,3.4544,3.4544,0,0,1,.5748-1.9161l20.3532-40.238"/>
  </g>
</svg>
