<svg id="emoji" viewBox="0 0 72 72" xmlns="http://www.w3.org/2000/svg">
  <g id="line">
    <path fill="none" stroke="#000" stroke-linecap="round" stroke-miterlimit="10" stroke-width="2" d="m24.2829,51.1876h-7.58c-1.1675.0103-2.1114.9542-2.1216,2.1217h0c.0103,1.1675.9541,2.1114,2.1216,2.1217h7.58"/>
    <path fill="none" stroke="#000" stroke-linecap="round" stroke-miterlimit="10" stroke-width="2" d="m24.2829,40.5791h-7.58c-1.1675.0103-2.1114.9542-2.1216,2.1217h0c.0102,1.1675.9541,2.1114,2.1216,2.1217h7.58"/>
    <path fill="none" stroke="#000" stroke-linecap="round" stroke-linejoin="round" stroke-width="2" d="m24.3472,59.9315h7.3938c6.4625-.0188,11.6862-5.2729,11.6675-11.7354-.0187-6.436-5.2315-11.6488-11.6675-11.6675h-7.3938v23.4029Z"/>
    <polyline fill="none" stroke="#000" stroke-linecap="round" stroke-linejoin="round" stroke-width="2" points="42.735 52.473 46.721 51.38 46.721 45.015 42.735 43.987"/>
    <polyline fill="none" stroke="#000" stroke-linecap="round" stroke-linejoin="round" stroke-width="2" points="55.929 50.802 46.721 50.802 46.721 45.594 55.929 45.594"/>
    <path fill="none" stroke="#000" stroke-linecap="round" stroke-linejoin="round" stroke-width="2" d="m53.6682,17.2111v-4.7024c.0206-.3401-.2385-.6325-.5787-.6531-.0248-.0015-.0497-.0015-.0744,0H18.2045c-.3401-.0206-.6325.2385-.6531.5787-.0015.0248-.0015.0497,0,.0744v16.3277c-.0206.3401.2385.6325.5787.6531.0248.0015.0497.0015.0744,0h34.8106c.3401.0206.6325-.2385.6531-.5787.0015-.0248.0015-.0497,0-.0744v-4.3758h3.3309v-7.25l-3.3309.0005Z"/>
    <rect x="21.4408" y="15.1572" width="5.5841" height="11.096" fill="none" stroke="#000" stroke-linecap="round" stroke-linejoin="round" stroke-width="2"/>
  </g>
</svg>
