<svg id="emoji" viewBox="0 0 72 72" xmlns="http://www.w3.org/2000/svg">
  <g id="line">
    <line x1="60.0633" x2="60.0633" y1="61.4636" y2="20.1288" fill="none" stroke="#000" stroke-linecap="round" stroke-linejoin="round" stroke-width="2"/>
    <line x1="35.7945" x2="63.8" y1="9.2474" y2="28.0984" fill="none" stroke="#000" stroke-linecap="round" stroke-linejoin="round" stroke-width="2"/>
    <line x1="11.4616" x2="11.4616" y1="61.4636" y2="20.1288" fill="none" stroke="#000" stroke-linecap="round" stroke-linejoin="round" stroke-width="2"/>
    <polyline fill="none" stroke="#000" stroke-linecap="round" stroke-linejoin="round" stroke-width="2" points="17.329 61.464 17.329 32.857 35.737 20.438 35.788 20.438 54.196 32.857 54.196 61.464"/>
    <line x1="35.7304" x2="7.7249" y1="9.2474" y2="28.0984" fill="none" stroke="#000" stroke-linecap="round" stroke-linejoin="round" stroke-width="2"/>
    <path fill="none" stroke="#000" stroke-linecap="round" stroke-linejoin="round" stroke-width="2" d="m30.0582,50.1659l-1.2382,11.2094c-.0477.51-.81.99-1.3913.99-.5803-.063-1.0427-.514-1.12-1.0926l1.2612-18.86"/>
    <path fill="none" stroke="#000" stroke-linecap="round" stroke-linejoin="round" stroke-width="2" d="m23.8757,51.3542s.6437-3.7629.7427-5.0008c.099-1.1387.1485-4.6046.1485-4.6046-.0287-1.3383,1.0329-2.4464,2.3712-2.4751.0113-.0002.0226-.0004.0339-.0005h7.2243"/>
    <path fill="none" stroke="#000" stroke-linecap="round" stroke-linejoin="round" stroke-width="2" d="m44.07,42.2877c-.5975.9681-.9067,2.0865-.8914,3.224,0,1.5625,1.34,3.4821,1.34,4.5112.2993,2.9933.8156,11.17.8156,11.17-.0441.6319-.5517,1.1322-1.1842,1.1671-.6708-.0095-1.2359-.5038-1.3345-1.1674l-1.2473-11.1226"/>
    <path fill="none" stroke="#000" stroke-linecap="round" stroke-linejoin="round" stroke-width="2" d="m36.6367,41.4589c.0813-1.2829,1.1871-2.257,2.47-2.1757.0415.0026.0829.0064.1242.0112h4.6445c1.4613-.0239,2.7107,1.0467,2.911,2.4944,0,0-.15,3.4923-.05,4.64.2768,1.6484.6432,3.2806,1.0976,4.8891"/>
    <path fill="none" stroke="#000" stroke-linecap="round" stroke-linejoin="round" stroke-width="2" d="m34.2682,62.9868l.24-6.293"/>
    <path fill="none" stroke="#000" stroke-linecap="round" stroke-linejoin="round" stroke-width="2" d="m36.9646,56.6938l.2388,6.3645"/>
    <g>
      <path fill="none" stroke="#000" stroke-linecap="round" stroke-linejoin="round" stroke-width="2" d="m37.0315,49.5446h.3109c.8241-.0955,1.5695.4952,1.665,1.3193.012.1035.0132.208.0035.3118l.4845,5.2043"/>
      <path fill="none" stroke="#000" stroke-linecap="round" stroke-linejoin="round" stroke-width="2" d="m34.366,49.5446h-.236c-.8241-.0955-1.5695.4952-1.665,1.3193-.012.1035-.0132.208-.0035.3118l-.4844,5.2043"/>
    </g>
    <path fill="none" stroke="#000" stroke-linecap="round" stroke-linejoin="round" stroke-width="2" d="m34.0081,47.1064c-.2754-.3267-.4152-.7465-.3906-1.1731.0002-1.1185.9071-2.0252,2.0256-2.025s2.0252.9071,2.025,2.0256c0,.4202-.1308.8299-.3741,1.1724"/>
    <circle cx="31.2056" cy="33.8729" r="2.7168" fill="none" stroke="#000" stroke-linecap="round" stroke-linejoin="round" stroke-width="2"/>
    <circle cx="40.7019" cy="33.8729" r="2.7168" fill="none" stroke="#000" stroke-linecap="round" stroke-linejoin="round" stroke-width="2"/>
  </g>
</svg>
