<svg id="emoji" viewBox="0 0 72 72" xmlns="http://www.w3.org/2000/svg">
  <g id="line">
    <path fill="none" stroke="#000" stroke-linecap="round" stroke-linejoin="round" stroke-width="2" d="m10.7037,26.0475c.3073-1.1151,1.3015-1.9028,2.4573-1.947h51.38c.8235-.0522,1.5333.5731,1.5855,1.3965.0117.1841-.0109.3688-.0665.5448l-5.4283,21.9164c-.3228,1.1137-1.3221,1.8959-2.4808,1.9418H7.1009c-.8358.0496-1.5536-.5878-1.6033-1.4236-.0105-.1767.01-.3538.0607-.5234l5.1454-21.9055Z"/>
    <polyline fill="none" stroke="#000" stroke-linecap="round" stroke-linejoin="round" stroke-width="2" points="14.81 24.1 23.087 36.966 12.26 49.9"/>
    <polyline fill="none" stroke="#000" stroke-linecap="round" stroke-linejoin="round" stroke-width="2" points="31.614 24.1 39.897 37.042 29.07 49.9"/>
    <polyline fill="none" stroke="#000" stroke-linecap="round" stroke-linejoin="round" stroke-width="2" points="47.562 24.1 55.839 37.116 45.012 49.9"/>
  </g>
</svg>
