<svg id="emoji" viewBox="0 0 72 72" xmlns="http://www.w3.org/2000/svg">
  <g id="line">
    <polyline fill="none" stroke="#000" stroke-linecap="round" stroke-linejoin="round" stroke-width="2" points="48.304 56 48.304 21.078 23.456 21.078 23.456 29.168"/>
    <polyline fill="none" stroke="#000" stroke-linecap="round" stroke-linejoin="round" stroke-width="2" points="4.951 55.814 19.554 55.814 23.456 55.852 23.456 53.271"/>
    <line x1="67.049" x2="4.951" y1="16.1862" y2="16.1862" fill="none" stroke="#000" stroke-linecap="round" stroke-linejoin="round" stroke-width="2"/>
    <line x1="45.4527" x2="67.049" y1="56.6138" y2="56.6138" fill="none" stroke="#000" stroke-linecap="round" stroke-linejoin="round" stroke-width="2"/>
    <polyline fill="none" stroke="#000" stroke-linecap="round" stroke-linejoin="round" stroke-width="1.6353" points="42.728 38.041 38.396 38.041 34.597 33.681"/>
    <path fill="none" stroke="#000" stroke-linecap="round" stroke-linejoin="round" stroke-width="1.6353" d="M34.3954,30.4144s-4.73,1.1064-5.7956,1.8694c-1.3608.9745-4.6392,5.8563-4.6392,5.8563"/>
    <g>
      <path fill="none" stroke="#000" stroke-linecap="round" stroke-linejoin="round" stroke-width="1.6353" d="M19.4124,49.9783a1.0108,1.0108,0,0,0,1.31.6686l4.9341-1.5127a4.3914,4.3914,0,0,0,1.7885-1.1381l4.18-4.2311"/>
      <path fill="none" stroke="#000" stroke-linecap="round" stroke-linejoin="round" stroke-width="1.6353" d="M27.0954,43.2891l-1.8222,2.7563L20.096,48.5541a1.1605,1.1605,0,0,0-.6836,1.4242"/>
    </g>
    <path fill="none" stroke="#000" stroke-linecap="round" stroke-linejoin="round" stroke-width="1.6353" d="M34.5782,37.9341v1.81l3.4021,4.19a5.4155,5.4155,0,0,1,.618,2.2117l.3316,7.4825c.07,1.4557-.6739,2.2238-1.4194,2.2238-.7932,0-1.4068-.746-1.54-2.1518l-.861-7.08-5.6548-4.8191a2.63,2.63,0,0,1-.91-1.9343,4.4293,4.4293,0,0,1,.6254-2.1106l2.6929-4.8621c.9328-1.8657,1.8444-2.5281,3.0759-2.5281A2.2194,2.2194,0,0,1,37.13,32.629"/>
    <path fill="none" stroke="#000" stroke-linecap="round" stroke-linejoin="round" stroke-width="1.6353" d="M36.5342,27.2117a2.67,2.67,0,1,1,2.67,2.67"/>
  </g>
</svg>
