<svg id="emoji" viewBox="0 0 72 72" xmlns="http://www.w3.org/2000/svg">
  <g id="line">
    <path fill="none" stroke="#000" stroke-linecap="round" stroke-linejoin="round" stroke-width="2" d="M22.0886,27.8861a37.8716,37.8716,0,0,1-.1192-4.0088c0-6.0131,5.0109-12.0262,14.0306-12.0262s14.0306,6.0131,14.0306,12.0262a37.3283,37.3283,0,0,1-.1191,4.0088"/>
    <path d="M41.9129,29.8905a2.0044,2.0044,0,1,1-2.0044-2.0044,2.01,2.01,0,0,1,2.0044,2.0044"/>
    <path d="M33.8954,29.8905a2.0044,2.0044,0,1,1-2.0044-2.0044,2.01,2.01,0,0,1,2.0044,2.0044"/>
    <path d="M41.9129,29.8905a2.0044,2.0044,0,1,1-2.0044-2.0044,2.01,2.01,0,0,1,2.0044,2.0044"/>
    <path d="M33.8954,29.8905a2.0044,2.0044,0,1,1-2.0044-2.0044,2.01,2.01,0,0,1,2.0044,2.0044"/>
    <path fill="none" stroke="#000" stroke-linecap="round" stroke-linejoin="round" stroke-width="2" d="M16.9584,59.9561V56.95c0-5.0109,5.011-9.02,10.0219-9.02q9.02,7.5165,18.0394,0c5.0109,0,10.0219,4.0088,10.0219,9.02v3.0066"/>
    <path fill="none" stroke="#000" stroke-linecap="round" stroke-linejoin="round" stroke-width="2" d="M32.6992,44.7333c-1.3329.0108-3.6242-1.852-4.4966-3.071a14.784,14.784,0,0,1-2.4335-5.8174l-.1394-.45,8.9093-2.2974a5.6017,5.6017,0,0,1,2.8794.0182l8.4081,2.2792H46.37a14.4865,14.4865,0,0,1-1.8409,5.7962c-.877,1.4159-3.28,3.4562-4.7422,3.4681Z"/>
    <line x1="46.1692" x2="49.4774" y1="35.1649" y2="32.5319" fill="none" stroke="#000" stroke-linecap="round" stroke-linejoin="round" stroke-width="2"/>
    <line x1="25.6297" x2="22.3298" y1="35.1649" y2="32.117" fill="none" stroke="#000" stroke-linecap="round" stroke-linejoin="round" stroke-width="2"/>
    <path fill="none" stroke="#000" stroke-linecap="round" stroke-linejoin="round" stroke-width="2" d="M46.9745,29.2526a11.6583,11.6583,0,0,0-.9629-3.998c-3-3-7-8-7-8-4,3-7,6-13,7,0,0-.9287.873-1.05,5.0693"/>
  </g>
</svg>
