<svg id="emoji" viewBox="0 0 72 72" xmlns="http://www.w3.org/2000/svg">
  <g id="line">
    <path d="M42.0354,28.8323a2,2,0,1,1-2-2,2,2,0,0,1,2,2"/>
    <path d="M34.0354,28.8323a2,2,0,1,1-2-2,2,2,0,0,1,2,2"/>
    <path fill="none" stroke="#000" stroke-linecap="round" stroke-linejoin="round" stroke-width="2" d="M18.5813,35.7722c.6148-1.774,1.4978-3.4939,2.1913-5.2759,1.6357-4.2-.209-6.4512,1.291-12.0342,1.48-5.5,7.2773-8.9658,13.709-8.9658,5.4,0,8,3,8,3a8.1323,8.1323,0,0,1,7.4052,8.0371c.3867,7.18,1.0244,7.1523,3.4287,12.8222A11.5987,11.5987,0,0,1,53.16,45.0187"/>
    <path fill="none" stroke="#000" stroke-linejoin="round" stroke-width="2" d="M46.2908,34.8314a17.717,17.717,0,0,0,.7446-5.1532c0-5-2-8-6-12-4,4-16,9-16,11v1a17.8993,17.8993,0,0,0,.5738,4.55"/>
    <path fill="none" stroke="#000" stroke-linecap="round" stroke-linejoin="round" stroke-width="2" d="M16.9584,59.9561V56.95c0-5.0109,5.011-9.02,10.0219-9.02q9.02,7.5165,18.0394,0c5.0109,0,10.0219,4.0088,10.0219,9.02v3.0066"/>
    <line x1="46.1692" x2="49.4774" y1="35.1649" y2="32.5319" fill="none" stroke="#000" stroke-linecap="round" stroke-linejoin="round" stroke-width="2"/>
    <line x1="25.6297" x2="22.3298" y1="35.1649" y2="32.117" fill="none" stroke="#000" stroke-linecap="round" stroke-linejoin="round" stroke-width="2"/>
    <path fill="none" stroke="#000" stroke-linecap="round" stroke-linejoin="round" stroke-width="2" d="M32.576,44.2883c-1.333.0108-3.6243-1.8519-4.4967-3.071A14.7835,14.7835,0,0,1,25.6459,35.4l-.1394-.45,8.9093-2.2974a5.6024,5.6024,0,0,1,2.8793.0181L45.7032,34.95h.5438a14.4865,14.4865,0,0,1-1.8409,5.7961c-.8769,1.416-3.2795,3.4563-4.7421,3.4681Z"/>
  </g>
</svg>
