<svg id="emoji" viewBox="0 0 72 72" xmlns="http://www.w3.org/2000/svg">
  <g id="line">
    <path fill="none" stroke="#000" stroke-linecap="round" stroke-linejoin="round" stroke-width="2" d="M22.0886,28.077a37.87,37.87,0,0,1-.1192-4.0087C21.9694,18.0552,26.98,12.042,36,12.042s14.0306,6.0132,14.0306,12.0263a37.3264,37.3264,0,0,1-.1191,4.0087"/>
    <path d="M41.9129,30.0814a2.0044,2.0044,0,1,1-2.0044-2.0044,2.01,2.01,0,0,1,2.0044,2.0044"/>
    <path d="M33.8954,30.0814A2.0044,2.0044,0,1,1,31.891,28.077a2.01,2.01,0,0,1,2.0044,2.0044"/>
    <path d="M41.9129,30.0814a2.0044,2.0044,0,1,1-2.0044-2.0044,2.01,2.01,0,0,1,2.0044,2.0044"/>
    <path d="M33.8954,30.0814A2.0044,2.0044,0,1,1,31.891,28.077a2.01,2.01,0,0,1,2.0044,2.0044"/>
    <path fill="none" stroke="#000" stroke-linecap="round" stroke-linejoin="round" stroke-width="2" d="M16.9584,60.1471V57.1405c0-5.0109,5.011-9.02,10.0219-9.02q9.02,7.5165,18.0394,0c5.0109,0,10.0219,4.0088,10.0219,9.02v3.0066"/>
    <line x1="46.1692" x2="49.4774" y1="35.3559" y2="32.7229" fill="none" stroke="#000" stroke-linecap="round" stroke-linejoin="round" stroke-width="2"/>
    <line x1="25.6297" x2="22.3298" y1="35.3559" y2="32.308" fill="none" stroke="#000" stroke-linecap="round" stroke-linejoin="round" stroke-width="2"/>
    <path fill="none" stroke="#000" stroke-linecap="round" stroke-linejoin="round" stroke-width="2" d="M47.05,29.6632c0-5-3-11-3-11-8,0-10,3-16,1,0,0-3,5-3.1,10"/>
    <path fill="none" stroke="#000" stroke-linecap="round" stroke-linejoin="round" stroke-width="2" d="M32.5955,45.0455c-1.333.0108-3.6243-1.8519-4.4967-3.071a14.785,14.785,0,0,1-2.4335-5.8173l-.1393-.45L34.4353,33.41a5.6014,5.6014,0,0,1,2.8793.0182l8.4081,2.2792h.5438a14.4865,14.4865,0,0,1-1.8409,5.7962c-.8769,1.4159-3.28,3.4562-4.7421,3.4681Z"/>
  </g>
</svg>
