<svg id="emoji" viewBox="0 0 72 72" xmlns="http://www.w3.org/2000/svg">
  <g id="line">
    <polyline fill="none" stroke="#000" stroke-linecap="round" stroke-linejoin="round" stroke-width="2" points="28.256 54.586 26.154 55.927 11.888 33.561 49.753 9.409 64.019 31.776 60.217 34.201"/>
    <line x1="40.6397" x2="40.6374" y1="39.9005" y2="24.0228" fill="none" stroke="#000" stroke-linecap="round" stroke-linejoin="round" stroke-width="1.7327"/>
    <path fill="none" stroke="#000" stroke-linecap="round" stroke-linejoin="round" stroke-width="2" d="M46.35,38.5154l-.1515-16.1778,0,.665c-.0005-3.0516,5.629-3.873,5.63.72l.0523,5.5746L51.98,39.9007l-.1142-12.1926c0-2.7491,4.8971-2.8421,4.8976.7032l.0031,21.1213c.0006,4.1454-.5144,6.8717-2.68,10.3392v2.2133H35.0317V59.8694c-1.8558-2.1982-3.0311-5.3354-4.2739-9.0062-.815-2.5337-2.5332-6.7293-4.5016-12.5434,1.18-2.3882,4.8619-.9094,6.6355,1.0892l2.0046,4.0962-.0029-19.9825c0-3.1749,5.7438-3.4111,5.7444.5l0-2.5311c-.0005-3.4183,5.56-4.61,5.5609,1.5109"/>
    <line x1="40.6397" x2="40.6374" y1="39.9005" y2="24.0228" fill="none" stroke="#000" stroke-linecap="round" stroke-linejoin="round" stroke-width="2"/>
    <circle cx="27.766" cy="10.9583" r="2"/>
    <circle cx="37.0851" cy="10.9583" r="2"/>
    <circle cx="15.1277" cy="16" r="2"/>
    <circle cx="19.1277" cy="20" r="2"/>
    <circle cx="15.383" cy="25.3378" r="2"/>
    <circle cx="23.3617" cy="24.6689" r="2"/>
    <circle cx="28.2562" cy="20.6689" r="2"/>
    <circle cx="23.766" cy="16" r="2"/>
    <circle cx="31.8085" cy="16" r="2"/>
    <circle cx="19.1277" cy="10.9583" r="2"/>
    <polyline fill="none" stroke="#000" stroke-linecap="round" stroke-linejoin="round" stroke-width="2" points="35.032 62.085 35.032 66.706 54.086 66.745 54.086 62.085"/>
  </g>
</svg>
