<svg id="emoji" viewBox="0 0 72 72" xmlns="http://www.w3.org/2000/svg">
  <g id="line">
    <path fill="none" stroke="#000" stroke-linecap="round" stroke-linejoin="round" stroke-width="1.6969" d="M51.282,11.2537h8.4751"/>
    <path fill="none" stroke="#000" stroke-linecap="round" stroke-linejoin="round" stroke-width="1.6969" d="M55.52,16.0509V11.2537"/>
    <path fill="none" stroke="#000" stroke-linecap="round" stroke-linejoin="round" stroke-width="1.6969" d="M60.5705,16.0509H49.9515c-6.32,0-6.8361,5.03-6.8361,6.8361a.6093.6093,0,0,0,.6449.6449h3.2246a.6858.6858,0,0,0,.6449-.58,2.4934,2.4934,0,0,1,2.3862-2.4507h9.7792"/>
    <path fill="none" stroke="#000" stroke-linecap="round" stroke-linejoin="round" stroke-width="2" d="M22.3057,43.46l-2.1972-.0179L24.33,32.7574s.2165-2.3313-2.3853-1.3887L11.8579,44.22a12.058,12.058,0,0,0-2.595,6.2619,9.8694,9.8694,0,0,0,.6683,4.7683c1.969,4.7126,9.05,4.7192,10.9623,4.6249"/>
    <path fill="none" stroke="#000" stroke-linecap="round" stroke-linejoin="round" stroke-width="2" d="M22.0851,43.4667H35.3406s2.3684.7844.99,3.2393"/>
    <path fill="none" stroke="#000" stroke-linecap="round" stroke-linejoin="round" stroke-width="2" d="M24.5867,47.5478H36.1278s1.5118.5235,1.5118,1.8715-1.5118,1.9124-1.5118,1.9124"/>
    <path fill="none" stroke="#000" stroke-linecap="round" stroke-linejoin="round" stroke-width="2" d="M24.555,51.8335H35.3406s1.6246-.3709,1.6246,1.6247a2.06,2.06,0,0,1-1.5542,2.2506H24.8733"/>
    <path fill="none" stroke="#000" stroke-linecap="round" stroke-linejoin="round" stroke-width="2" d="M32.8166,56.0638a2.5062,2.5062,0,0,1,.6313,2.1731,1.6922,1.6922,0,0,1-1.4447,1.6386h-6.635"/>
    <path fill="none" stroke="#000" stroke-linecap="round" stroke-linejoin="round" stroke-width="2" d="M25.7505,29.8135a5.9717,5.9717,0,0,1,5.7644.1979c1.6539.827,3.4629,3.4935,2.9111,5.862a10.3082,10.3082,0,0,1-1.9485,3.4244,3.1616,3.1616,0,0,1,1.8938,1.7615"/>
    <path fill="none" stroke="#000" stroke-linecap="round" stroke-linejoin="round" stroke-width="2" d="M30.49,33.2178a4.5106,4.5106,0,0,0-3.6907.2887"/>
    <path fill="none" stroke="#000" stroke-linecap="round" stroke-linejoin="round" stroke-width="2" d="M37.1616,32.5014l7.2316-3.136s1.9978-.3741,1.9809,1.1825a2.2545,2.2545,0,0,1-.8417,1.6578L37.64,38.91l4.2228,2.3918"/>
    <path fill="none" stroke="#000" stroke-linecap="round" stroke-linejoin="round" stroke-width="2" d="M41.4471,41.0756,50.35,45.9244a1.9542,1.9542,0,0,1,1.0656,1.6513,1.7322,1.7322,0,0,1-.18.79c-.5359,1.088-2.2139,1.0566-2.2139,1.0566"/>
    <path fill="none" stroke="#000" stroke-linecap="round" stroke-linejoin="round" stroke-width="2" d="M39.6555,44.503l9.3653,4.9194a2.7486,2.7486,0,0,1,1.4164,1.7007,1.8324,1.8324,0,0,1-.2335,1.5236c-.9176,1.39-2.8989,1.0031-2.8989,1.0031"/>
    <path fill="none" stroke="#000" stroke-linecap="round" stroke-linejoin="round" stroke-width="2" d="M39.75,49.8512,47.0981,53.52a1.8386,1.8386,0,0,1,.6977,2.8514,1.618,1.618,0,0,1-2.2849.543l-6.7306-2.98"/>
    <path fill="none" stroke="#000" stroke-linecap="round" stroke-linejoin="round" stroke-width="2" d="M43.0189,55.8106s.5473,1.9473-.3485,2.74a2.1873,2.1873,0,0,1-.6937.4152,2.3753,2.3753,0,0,1-1.8-.1132l-3.4154-1.5581"/>
    <circle cx="38.7404" cy="26.4445" r="2.1972" fill="none" stroke="#000" stroke-linecap="round" stroke-linejoin="round" stroke-width="2"/>
    <circle cx="29.7967" cy="22.2945" r="2.8655" fill="none" stroke="#000" stroke-linecap="round" stroke-linejoin="round" stroke-width="2"/>
  </g>
</svg>
