<svg id="emoji" viewBox="0 0 72 72" xmlns="http://www.w3.org/2000/svg">
  <g id="line">
    <g id="line-2">
      <path fill="none" stroke="#000" stroke-linecap="round" stroke-linejoin="round" stroke-width="2" d="M30.4881,40.6758a12.6005,12.6005,0,0,1-2.4173.1889c-1.59,0-2.8791-.1853-2.8791-.4138"/>
      <path fill="none" stroke="#000" stroke-linecap="round" stroke-linejoin="round" stroke-width="2" d="M30.4881,46.1487a12.6005,12.6005,0,0,1-2.4173.1889c-1.59,0-2.8791-.1853-2.8791-.4138"/>
      <path fill="none" stroke="#000" stroke-linecap="round" stroke-linejoin="round" stroke-width="2" d="M29.7591,35.3125a13.1556,13.1556,0,0,1-2.2837.07c-1.59,0-2.2837-.1762-2.2837-.4047"/>
      <path fill="none" stroke="#000" stroke-linecap="round" stroke-linejoin="round" stroke-width="2" d="M30.4881,29.73a12.6005,12.6005,0,0,1-2.4173.1889c-1.59,0-2.8791-.1853-2.8791-.4138"/>
      <path fill="none" stroke="#000" stroke-linecap="round" stroke-linejoin="round" stroke-width="2" d="M32.42,37.8876V48.719a2.1666,2.1666,0,0,0,.9233,1.5989,7.2252,7.2252,0,1,1-11.0861,2.5735"/>
      <path fill="none" stroke="#000" stroke-linecap="round" stroke-linejoin="round" stroke-width="2" d="M24.2854,50.3091a2.1032,2.1032,0,0,0,.9068-1.59V21.2835a3.6137,3.6137,0,0,1,7.2273,0L32.43,29.712"/>
      <path fill="none" stroke="#000" stroke-linecap="round" stroke-linejoin="round" stroke-width="2" d="M30.4881,24.2571a12.6005,12.6005,0,0,1-2.4173.1889c-1.59,0-2.8791-.1852-2.8791-.4138"/>
    </g>
    <path fill="none" stroke="#000" stroke-miterlimit="10" stroke-width="2" d="M37.2661,22.206a2.4562,2.4562,0,0,0-2.217,2.628l-.52,6.7082-2.32,3.5085a.2268.2268,0,0,0,.1471.3411s5.9633-2.6739,6.0742-2.6739H53.783A2.4562,2.4562,0,0,0,56,30.09V24.834a2.4562,2.4562,0,0,0-2.217-2.628Z"/>
  </g>
</svg>
