<svg id="emoji" viewBox="0 0 72 72" xmlns="http://www.w3.org/2000/svg">
  <g id="line">
    <g>
      <path fill="none" stroke="#000" stroke-miterlimit="10" stroke-width="2" d="M53.1156,49.0408a5.4454,5.4454,0,0,1-3.0172.42c-1.7444-.1649-9.25-1.7467-12.976-1.7928S26.7285,49.164,25.2,49.1553a33.5944,33.5944,0,0,1-6.276-.5534"/>
      <path fill="none" stroke="#000" stroke-miterlimit="10" stroke-width="2" d="M20.225,24.101a23.1805,23.1805,0,0,1,3.9214-.3553c1.7227,0,8.3141,1.2013,12.976,1.1552a123.7357,123.7357,0,0,0,12.9938-.8262,7.9161,7.9161,0,0,1,3.2613-.08"/>
      <path fill="none" stroke="#000" stroke-linecap="round" stroke-linejoin="round" stroke-width="2" d="M53.3775,23.9945s-2.3711,17.8525-.2619,25.0463"/>
      <path fill="none" stroke="#000" stroke-linecap="round" stroke-miterlimit="10" stroke-width="2" d="M20.3654,24.2858s2.23,19.3253.25,23.4284"/>
      <path fill="none" stroke="#000" stroke-miterlimit="10" stroke-width="2" d="M19.3643,48.7021a2.971,2.971,0,0,1-2.352-1.8341"/>
    </g>
    <path fill="none" stroke="#000" stroke-linecap="round" stroke-linejoin="round" stroke-width="1.6" d="M26.0669,31.6663h4.3449a3.4017,3.4017,0,0,1,2.2795.8592,3.8063,3.8063,0,0,0,2.574,1.113c1.9031-.0691,1.7567-1.8258,7.0268-1.9722"/>
    <path fill="none" stroke="#000" stroke-linecap="round" stroke-linejoin="round" stroke-width="1.6" d="M27.736,37.7425H33.32c.84,0,2.3659,1.9451,4.4633,2.0925s4.0724-2.2282,5.1207-2.2663c1.9031-.0691.9149.1381,6.185-.0083"/>
    <path fill="none" stroke="#000" stroke-miterlimit="10" stroke-width="2" d="M17.0777,47.0221a5.8667,5.8667,0,0,1-.2578-1.6364,1.9322,1.9322,0,0,1,.1837-.6757,1.6421,1.6421,0,0,0-.3692-1.4576,1.3983,1.3983,0,0,1-.2462-.8891,2.9824,2.9824,0,0,1,.5246-1.6419,1.9279,1.9279,0,0,0,.2007-1.7994,5.51,5.51,0,0,0-.25-.53c-.6477-1.21-.2123-1.6478.0258-2.4034s-1.1916-.62-.5007-2.1742q.0534-.12.1014-.2352a2.5077,2.5077,0,0,0-.4316-2.3747c-.1019-.1529-.0854-.4125.178-.8442.1233-.2021.235-.4042.3358-.6019.409-.8019.5671-1.4735-.0427-2.1356-.2028-.22-.0033-.7955.1608-1.58.3292-1.5747,3.8073-1.9821,3.8073-1.9821"/>
    <path fill="none" stroke="#000" stroke-miterlimit="10" stroke-width="2" d="M52.7458,49.1465s4.867-1.1035,4.0471-3.7689a1.93,1.93,0,0,0-.1837-.6757,1.6421,1.6421,0,0,1,.3692-1.4576,1.3983,1.3983,0,0,0,.2463-.8891A2.9832,2.9832,0,0,0,56.7,40.7133a1.9279,1.9279,0,0,1-.2008-1.7994,5.5346,5.5346,0,0,1,.25-.53c.6477-1.21.2124-1.6477-.0258-2.4034s1.1916-.62.5008-2.1741q-.0536-.12-.1015-.2352a2.508,2.508,0,0,1,.4316-2.3747c.1019-.1529.0854-.4125-.178-.8443-.1233-.202-.235-.4041-.3358-.6018-.4089-.8019-.567-1.4735.0427-2.1356.2028-.22.0033-.7956-.1607-1.58-.3293-1.5747-3.8984-2.1018-3.8984-2.1018"/>
  </g>
</svg>
