<svg id="emoji" viewBox="0 0 72 72" xmlns="http://www.w3.org/2000/svg">
  <g id="line">
    <path fill="none" stroke="#000000" stroke-linecap="round" stroke-linejoin="round" stroke-miterlimit="10" stroke-width="2" d="M60,57c0,1.6563-1.3428,3-3,3H15c-1.6572,0-3-1.3437-3-3v-1h48V57z"/>
    <circle cx="38.5" cy="15" r="2" fill="none" stroke="#000000" stroke-linecap="round" stroke-linejoin="round" stroke-miterlimit="10" stroke-width="2"/>
    <circle cx="33.5" cy="15" r="2" fill="none" stroke="#000000" stroke-linecap="round" stroke-linejoin="round" stroke-miterlimit="10" stroke-width="2"/>
    <circle cx="36" cy="11" r="2" fill="none" stroke="#000000" stroke-linecap="round" stroke-linejoin="round" stroke-miterlimit="10" stroke-width="2"/>
    <path fill="none" stroke="#000000" stroke-linecap="round" stroke-linejoin="round" stroke-miterlimit="10" stroke-width="2" d="M16.2334,34.4141L17,27c0-5.5229,4.4775-10,10-10h18c5.5225,0,10,4.4771,10,10l0.7666,7.4141"/>
    <polyline fill="none" stroke="#000000" stroke-linecap="round" stroke-linejoin="round" stroke-miterlimit="10" stroke-width="2" points="16.2334,34.4141 14,56 58,56 55.7666,34.4141"/>
    <path fill="none" stroke="#000000" stroke-linecap="round" stroke-linejoin="round" stroke-miterlimit="10" stroke-width="2" d="M16.2334,34.4141C16.7295,34.7773,17.3369,35,18,35c1.6572,0,3-1.3437,3-3v-2c0-1.6567,1.3428-3,3-3c1.6572,0,3,1.3433,3,3v2 c0,1.6563,1.3428,3,3,3c1.6572,0,3-1.3437,3-3v-2c0-1.6567,1.3428-3,3-3c1.6572,0,3,1.3433,3,3v2c0,1.6563,1.3428,3,3,3 c1.6572,0,3-1.3437,3-3v-2c0-1.6567,1.3428-3,3-3c1.6572,0,3,1.3433,3,3v2c0,1.6563,1.3428,3,3,3 c0.6631,0,1.2705-0.2227,1.7666-0.5859"/>
  </g>
</svg>
