<svg id="emoji" viewBox="0 0 72 72" xmlns="http://www.w3.org/2000/svg">
  <g id="line">
    <path fill="none" stroke="#000000" stroke-linecap="round" stroke-linejoin="round" stroke-miterlimit="10" stroke-width="2" d="M38.8294,54.5013h-5.5367c-4.9688,0-9.0342-4.0654-9.0342-9.0342V26.38c0-4.9688,4.0654-9.0342,9.0342-9.0342h5.5367 c4.9688,0,9.0342,4.0654,9.0342,9.0342v19.0871C47.8636,50.4359,43.7982,54.5013,38.8294,54.5013z"/>
    <path fill="none" stroke="#000000" stroke-linecap="round" stroke-linejoin="round" stroke-miterlimit="10" stroke-width="2" d="M36.1449,32.1553h-0.1677c-1.1161,0-2.0294-0.9132-2.0294-2.0294v-6.0465c0-1.1161,0.9132-2.0294,2.0294-2.0294h0.1677 c1.1161,0,2.0294,0.9132,2.0294,2.0294v6.0465C38.1743,31.2421,37.2611,32.1553,36.1449,32.1553z"/>
    <line x1="15.0322" x2="9.8166" y1="34.1909" y2="28.9753" fill="none" stroke="#000000" stroke-linecap="round" stroke-linejoin="round" stroke-miterlimit="10" stroke-width="2"/>
    <line x1="15.0322" x2="9.8166" y1="23.7172" y2="28.9328" fill="none" stroke="#000000" stroke-linecap="round" stroke-linejoin="round" stroke-miterlimit="10" stroke-width="2"/>
    <line x1="57.1564" x2="62.372" y1="23.7172" y2="28.9328" fill="none" stroke="#000000" stroke-linecap="round" stroke-linejoin="round" stroke-miterlimit="10" stroke-width="2"/>
    <line x1="57.1564" x2="62.372" y1="34.1909" y2="28.9753" fill="none" stroke="#000000" stroke-linecap="round" stroke-linejoin="round" stroke-miterlimit="10" stroke-width="2"/>
  </g>
</svg>
