<svg version="1.1" id="emoji" xmlns="http://www.w3.org/2000/svg" x="0" y="0" viewBox="0 0 72 72" enable-background="new 0 0 72 72" xml:space="preserve">
  <g id="line">
    <path fill="none" stroke="#000000" stroke-width="2" stroke-linecap="round" stroke-linejoin="round" stroke-miterlimit="10" d="M57.855,39.5861c5.9803,5.018,6.7603,13.9339,1.7423,19.9141s-13.9339,6.7603-19.9141,1.7423"/>
    <line fill="none" stroke="#000000" stroke-width="2" stroke-linecap="round" stroke-linejoin="round" stroke-miterlimit="10" x1="57.2801" y1="39.1037" x2="49.3839" y2="32.478"/>
    <path fill="none" stroke="#000000" stroke-width="2" stroke-linecap="round" stroke-linejoin="round" stroke-miterlimit="10" d="M45.3302,36.9171c-1.2261-1.1197-1.3124-3.0213-0.1927-4.2474c1.1197-1.2261,3.0213-1.3124,4.2474-0.1927"/>
    <path fill="none" stroke="#000000" stroke-width="2" stroke-linecap="round" stroke-linejoin="round" stroke-miterlimit="10" d="M41.3136,41.3926c-1.2261-1.1197-1.3124-3.0213-0.1927-4.2474c1.1197-1.2261,3.0213-1.3124,4.2474-0.1927"/>
    <path fill="none" stroke="#000000" stroke-width="2" stroke-linecap="round" stroke-linejoin="round" stroke-miterlimit="10" d="M41.2277,41.316c-1.1823-1.1659-1.1956-3.0694-0.0297-4.2516c1.1658-1.1823,3.0694-1.1956,4.2516-0.0297"/>
    <path fill="none" stroke="#000000" stroke-width="2" stroke-linecap="round" stroke-linejoin="round" stroke-miterlimit="10" d="M37.1131,45.7593c-1.201-1.1465-1.2452-3.0496-0.0987-4.2506s3.0496-1.2453,4.2506-0.0988"/>
    <path fill="none" stroke="#000000" stroke-width="2" stroke-linecap="round" stroke-linejoin="round" stroke-miterlimit="10" d="M29.2154,58.143c-1.6564,0.116-3.0931-1.1328-3.2091-2.7891c-0.116-1.6563,1.1328-3.0931,2.7891-3.2091"/>
    <path fill="none" stroke="#000000" stroke-width="2" stroke-linecap="round" stroke-linejoin="round" stroke-miterlimit="10" d="M18.5267,38.0128c-1.2719-1.0673-1.4379-2.9636-0.3706-4.2356s2.9636-1.4379,4.2356-0.3706"/>
    <line fill="none" stroke="#000000" stroke-width="2" stroke-linecap="round" stroke-linejoin="round" stroke-miterlimit="10" x1="37.0887" y1="45.7389" x2="22.3917" y2="33.4066"/>
    <line fill="none" stroke="#000000" stroke-width="2" stroke-linecap="round" stroke-linejoin="round" stroke-miterlimit="10" x1="18.5267" y1="38.0128" x2="36.8134" y2="53.3571"/>
    <line fill="none" stroke="#000000" stroke-width="2" stroke-linecap="round" stroke-linejoin="round" stroke-miterlimit="10" x1="31.3332" y1="52.0787" x2="28.7954" y2="52.1448"/>
    <path fill="none" stroke="#000000" stroke-width="2" stroke-linecap="round" stroke-linejoin="round" stroke-miterlimit="10" d="M31.7178,58.2606c2.4888-0.1011,5.263,0.6335,8.0883,3.0851"/>
    <line fill="none" stroke="#000000" stroke-width="2" stroke-linecap="round" stroke-linejoin="round" stroke-miterlimit="10" x1="29.2154" y1="58.143" x2="31.7873" y2="58.2587"/>
    <path fill="none" stroke="#000000" stroke-width="2" stroke-linecap="round" stroke-linejoin="round" stroke-miterlimit="10" d="M17.0896,30.8171c-0.165-0.5297-0.4788-1.0198-0.9353-1.4029c-1.2692-1.065-3.1615-0.8995-4.2265,0.3698 c-1.065,1.2692-0.8995,3.1615,0.3698,4.2265c0.6346,0.5325,1.425,0.7574,2.1898,0.6905"/>
    <line fill="none" stroke="#000000" stroke-width="2" stroke-linecap="round" stroke-linejoin="round" stroke-miterlimit="10" x1="13.4657" y1="24.5518" x2="13.4657" y2="7.466"/>
    <line fill="none" stroke="#000000" stroke-width="2" stroke-linecap="round" stroke-linejoin="round" stroke-miterlimit="10" x1="8.2932" y1="11.3372" x2="13.4943" y2="6.1355"/>
    <line fill="none" stroke="#000000" stroke-width="2" stroke-linecap="round" stroke-linejoin="round" stroke-miterlimit="10" x1="18.6961" y1="11.3367" x2="13.4943" y2="6.1355"/>
  </g>
</svg>
