<svg id="emoji" viewBox="0 0 72 72" xmlns="http://www.w3.org/2000/svg">
  <g id="line">
    <path fill="none" stroke="#000" stroke-linecap="round" stroke-linejoin="round" stroke-width="1.6" d="M27.49,31.4541h.07l17.53.85c10.46.2,11.28.15,12.05.1a15.2792,15.2792,0,0,0,0-1.54c-6.94-.21-10.46-.36-11.98-.42-1.53-.05-17.6-2.93-18.85-2.93-1.31,0-12.14.05-12.43.4s-.11,8.65-.11,8.65c-5.55,0-5.92.05-5.92.05s-.01,1.37,0,1.96c4.42-.04,4.35-.03,4.83-.05.16-.01,1.37-.01,3.23-.01"/>
    <path fill="none" stroke="#000" stroke-linecap="round" stroke-linejoin="round" stroke-width="1.6" d="M27.5,38.5141c6.39.01,13,.04,15.63.07,4.9.06,11.78.11,14.01-.05.03-.63.02-1.26,0-1.83-3.11-.15-5.76-.1-13.41-.1a87.3409,87.3409,0,0,1-15.95-1.63"/>
    <g>
      <path fill="none" stroke="#000" stroke-miterlimit="10" stroke-width="1.6" d="M19.6457,41.914a18.5816,18.5816,0,0,0,7.9109-.7889"/>
      <path fill="none" stroke="#000" stroke-miterlimit="10" stroke-width="1.6" d="M15.9489,41.4118c-.0032.0007.9347.128,2.0658.3187"/>
      <path fill="none" stroke="#000" stroke-miterlimit="10" stroke-width="1.6" d="M16.1369,31.4466c.3111-.5289,6.4383-3.1164,11.42,0,0,0,.0416,8.9476-.2341,9.7982-.0037.0113-.0178.0136-.0294.0108-1.1989-.2891-.0768-1.3447-5.4808-1.516-4.8095.23-5.8164,1.0321-5.8634,1.6722S15.8258,31.9755,16.1369,31.4466Z"/>
    </g>
    <path fill="none" d="M24.1163,31.1324s2.6444.3145,2.9333,1.0867c.0021.77-.1719,7.5842-.1719,7.5842a6.3387,6.3387,0,0,0-2.7614-.8818Z"/>
    <path fill="none" stroke="#000" stroke-linecap="round" stroke-linejoin="round" stroke-width="1.6" d="M24.4381,44.1636s4.1976,1.927,0,4.2585c-1.1832.6572,0,1.9312,0,1.9312"/>
    <path fill="none" d="M23.7608,52.3945a.7981.7981,0,0,1-.5864-.2559,2.5593,2.5593,0,0,1-.7188-1.9453,1.6885,1.6885,0,0,1,.9165-1.23c.9385-.5215,1.4683-1.0527,1.4541-1.458-.0181-.501-.8467-1.1162-1.4009-1.374a.8.8,0,0,1,.669-1.4541c.2319.1064,2.2666,1.0879,2.3305,2.7656.0415,1.0752-.7246,2.0576-2.2758,2.9189a.3476.3476,0,0,0-.1158.0879,1.23,1.23,0,0,0,.314.6006.8.8,0,0,1-.5864,1.3438Z"/>
    <path fill="none" stroke="#000" stroke-linecap="round" stroke-linejoin="round" stroke-width="1.6" d="M20.3892,40.83a9.2588,9.2588,0,0,1-.6445,2.887c-.5514,1.1608.6445,3.2722.6445,3.2722"/>
  </g>
</svg>
