<svg id="emoji" xmlns="http://www.w3.org/2000/svg" viewBox="0 0 72 72">
  <g id="line">
    <path d="M40.5015,20.6474h23.389A3.4091,3.4091,0,0,1,67.3,24.0566V55.9434a3.4091,3.4091,0,0,1-3.4091,3.4092H8.11A3.4091,3.4091,0,0,1,4.7,55.9434V24.0566A3.4091,3.4091,0,0,1,8.11,20.6474H31.396" fill="none" stroke="#000" stroke-linecap="round" stroke-linejoin="round" stroke-width="2"/>
    <rect x="11.4738" y="31.3668" width="47.9998" height="19.7312" rx="2.9184" ry="2.9184" fill="none" stroke="#000" stroke-linecap="round" stroke-linejoin="round" stroke-width="2"/>
    <polyline points="52.396 38.141 48.396 38.141 48.396 45.141 52.396 45.141" fill="none" stroke="#000" stroke-linecap="round" stroke-linejoin="round" stroke-width="2"/>
    <line x1="48.396" y1="41.641" x2="51.396" y2="41.641" fill="none" stroke="#000" stroke-linecap="round" stroke-linejoin="round" stroke-width="2"/>
    <polyline points="34.396 45.141 31.396 38.141 28.396 45.141" fill="none" stroke="#000" stroke-linecap="round" stroke-linejoin="round" stroke-width="2"/>
    <line x1="29.396" y1="43.4649" x2="33.396" y2="43.4649" fill="none" stroke="#000" stroke-linecap="round" stroke-linejoin="round" stroke-width="2"/>
    <polyline points="19.396 45.141 19.396 38.141 24.396 45.141 24.396 38.141" fill="none" stroke="#000" stroke-linecap="round" stroke-linejoin="round" stroke-width="2"/>
    <polyline points="44.396 45.141 44.396 38.141 41.396 44.141 38.396 38.141 38.396 45.141" fill="none" stroke="#000" stroke-linecap="round" stroke-linejoin="round" stroke-width="2"/>
    <rect x="31.4986" y="10.2372" width="9.0029" height="15.6727" rx="1.5573" ry="1.5573" fill="none" stroke="#000" stroke-miterlimit="10" stroke-width="2"/>
  </g>
</svg>
