<svg id="emoji" viewBox="0 0 72 72" version="1.1" xmlns="http://www.w3.org/2000/svg">
  <g id="line" fill="none" stroke="#000">
    <path transform="matrix(.09775 0 0 .09775 10.98 10.98)" stroke-linecap="round" stroke-linejoin="round" stroke-width="20.46" d="m377 486c-1.719 0-3.453-0.422-5.016-1.25l-317.3-169c-2.078-1.109-3.734-2.875-4.703-5.03-4.344-9.641-41.42-96.51-8.437-178.2 13.54-33.5 32.35-61.03 56.13-82.23 8.878-7.914 18.45-14.95 28.69-21.07 32.42-19.37 70.5-29.2 113.2-29.2 38.64 0 80.28 8.562 117.2 24.11 34.53 14.53 62.75 34.3 77.4 54.22 23.81 32.34 39.28 70.62 46.01 113.8 5.828 37.45 4.812 78.72-2.969 119.3-14.81 77.39-52.82 146.9-94.57 172.9-1.718 1.078-3.687 1.625-5.64 1.625z"/>
    <path stroke-linecap="round" stroke-linejoin="round" stroke-width="2" d="m16 44.46 30.21 16.01"/>
    <path transform="matrix(.09775 0 0 .09775 10.98 10.98)" stroke-width="20.46" d="m476.2 171.2c-11.12-1.625-45.56-6.843-86.87-15.05-66.15-13.17-119.6-27.98-154.6-42.87-3.25-1.374-34.89-6.326-37.86-4.405-18.69 3.56-34.1 21.12-34.1 51.11 0 2.547-0.031 62.72 15.16 93.89 5.343 10.98 27.31 28.17 149.7 72.43 64.47 23.31 128.1 43.54 133.1 45.12 6.952-18.97 12.61-39.2 16.59-60 7.781-40.61 8.797-81.87 2.969-119.3-1.11-7.109-2.469-14.08-4.047-20.91z"/>
  </g>
</svg>
