<svg id="emoji" viewBox="0 0 72 72" xmlns="http://www.w3.org/2000/svg">
  <g id="line">
    <g id="line_2">
      <path fill="none" stroke="#000" stroke-linejoin="round" stroke-width="2" d="m20.6878,18.8563c0-1.5379,1.2466-2.7845,2.7845-2.7845h20.4199c1.5379,0,2.7845,1.2466,2.7845,2.7845v38.0552c0,2.0504-1.6623,3.7127-3.7127,3.7127h-18.5635c-2.0504,0-3.7127-1.6623-3.7127-3.7127V24.8894l-4.1768-3.2486,4.1768-2.3204v-.4641Z"/>
    </g>
    <path d="m46.6767,51.3424h-.9282v.9282h.9282v-.9282Zm0-3.7127v-.9282h-.9282v.9282h.9282Zm0-22.2762v-.9282h-.9282v.9282h.9282Zm0,3.7127h-.9282v.9282h.9282v-.9282Zm.9282,22.2762v-3.7127h-1.8564v3.7127h1.8564Zm11.1381-12.9945c0,6.664-5.4023,12.0663-12.0663,12.0663v1.8564c7.6893,0,13.9226-6.2333,13.9226-13.9226h-1.8564Zm-12.0663-12.0663c6.664,0,12.0663,5.4023,12.0663,12.0663h1.8564c0-7.6893-6.2333-13.9226-13.9226-13.9226v1.8564Zm.9282,2.7845v-3.7127h-1.8564v3.7127h1.8564Zm-.9282.9282c4.6136,0,8.3536,3.74,8.3536,8.3536h1.8564c0-5.6388-4.5712-10.2099-10.2099-10.2099v1.8564Zm8.3536,8.3536c0,4.6136-3.74,8.3536-8.3536,8.3536v1.8564c5.6388,0,10.2099-4.5712,10.2099-10.2099h-1.8564Z"/>
    <path fill="none" stroke="#000" stroke-linecap="round" stroke-width="2" d="m20.6878,19.3204h23.2044"/>
    <path fill="none" stroke="#000" stroke-linecap="round" stroke-width="2" d="m30.2822,14.2154c-.2005-.422-.3126-.894-.3126-1.3923,0-1.7942,1.4545-3.2486,3.2486-3.2486s3.2486,1.4545,3.2486,3.2486c0,.4982-.1121.9703-.3126,1.3923"/>
    <path fill="none" stroke="#000" stroke-linecap="round" stroke-width="2" d="m31.8259,19.7845v7.4254"/>
    <line x1="34.6104" x2="34.6104" y1="19.7845" y2="29.0662" fill="none" stroke="#000" stroke-linecap="round" stroke-width="2"/>
    <line x1="21.616" x2="29.0414" y1="25.3535" y2="25.3535" fill="none" stroke="#000" stroke-linecap="round" stroke-width="2"/>
    <path fill="none" stroke="#000" stroke-linecap="round" stroke-width="2" d="m37.395,25.3535h9.2818"/>
  </g>
</svg>
