<svg id="emoji" viewBox="0 0 72 72" xmlns="http://www.w3.org/2000/svg">
  <g id="line-supplement">
    <path fill="none" stroke="#000" stroke-linecap="round" stroke-linejoin="round" stroke-width="2" d="m29.7565,17.5555l1.38,14.5"/>
    <path fill="none" stroke="#000" stroke-linecap="round" stroke-linejoin="round" stroke-width="2" d="m31.4666,41.0555l-.4314,1-1.1613,17.5"/>
  </g>
  <g id="line">
    <path fill="none" stroke="#000" stroke-linejoin="round" stroke-width="2" d="m24.7566,41.5555l-3,19.5.5,1h24l1-1-3-19.5-1-1h-17.5l-1,1Z"/>
    <path fill="none" stroke="#000" stroke-linecap="round" stroke-linejoin="round" stroke-width="2" d="m51.2566,15.5555h4l4,5-10.25,17.75v-6l6.4445-11.3188-1.6945-1.9312h-5.5"/>
    <path fill="none" stroke="#000" stroke-linecap="round" stroke-linejoin="round" stroke-width="2" d="m39.7566,17.5555l-1.3503,14.5"/>
    <path fill="none" stroke="#000" stroke-linecap="round" stroke-linejoin="round" stroke-width="2" d="m38.0311,40.5555l.4314,1,1.1614,17.5"/>
    <path fill="none" stroke="#000" stroke-linejoin="round" stroke-width="2" d="m31.7566,7.0555h5l-1,6h-3l-1-6Z"/>
    <path fill="none" stroke="#000" stroke-linecap="round" stroke-linejoin="round" stroke-width="2" d="m21.3441,17.5555h18.4125"/>
    <path fill="none" stroke="#000" stroke-linecap="round" stroke-width="2" d="m25.7454,17.63l-1.2951,7.3566"/>
    <path fill="none" stroke="#000" stroke-linecap="round" stroke-width="2" d="m26.7566,35.3055v2.75"/>
    <path fill="none" stroke="#000" stroke-linecap="round" stroke-width="2" d="m42.7566,35.3055v4.75"/>
    <path fill="none" stroke="#000" stroke-miterlimit="10" stroke-width="2" d="m16.8806,17.5083h4.2763l11.5-4.5h3.5l11.8569,4.2685c.3629.1307.5642.5186.462.8906l-4.4519,16.9471h-18.8303l-1.2987-6.2864-7.5179-10.3303c-.2996-.4117-.0055-.9895.5037-.9895Z"/>
  </g>
</svg>
