<svg id="emoji" viewBox="0 0 72 72" xmlns="http://www.w3.org/2000/svg">
  <g id="line">
    <circle cx="54.9688" cy="8.0938" r="3" fill="none" stroke="#000" stroke-miterlimit="10" stroke-width="2"/>
    <path fill="none" stroke="#000" stroke-linecap="round" stroke-linejoin="round" stroke-width="2" d="m49,35l-3.0479,30.0098c-.1113,1.0947.5684,1.9902,1.5098,1.9902s1.9492-.8682,2.2383-1.9297l5.4863-20.1152c.2891-1.0615,1.043-2.667,1.6739-3.5674l2.1992-3.1397c.6308-.9003,1.1035-2.5371,1.0508-3.6357l-.4922-10.1191"/>
    <path fill="none" stroke="#000" stroke-linecap="round" stroke-linejoin="round" stroke-width="2" d="m59.1348,38.1406l1.8203,11.5254c.1709,1.0869.7793,2.7451,1.3496,3.6846l4.8242,7.9404c.5703.9395.3633,2.1592-.4619,2.709-.8252.5498-2.0342.2764-2.6875-.6094l-5.2686-7.1357c-.6533-.8858-1.5146-2.4483-1.914-3.4727l-2.2031-5.6533"/>
    <path fill="none" stroke="#000" stroke-linecap="round" stroke-linejoin="round" stroke-width="2" d="m59.6584,25.5257l-.36-6.7711c-.2066-1.8809-2.0464-3.7546-4.2466-3.7546h-.0518c-2.2002,0-4.2002,1.8306-4.4463,4.0171l-.4697,4.2129"/>
    <path fill="none" stroke="#000" stroke-linecap="round" stroke-linejoin="round" stroke-width="2" d="m55.167,20l-3.0684,6.4443c-.4726.9932-1.6269,2.2754-2.5654,2.8487l-7.5957,4.6445"/>
    <path fill="none" stroke="#000" stroke-linecap="round" stroke-linejoin="round" stroke-width="2" d="m13,57l5-5s17-6,23.9375-18.0625"/>
    <path fill="none" stroke="#000" stroke-linecap="round" stroke-linejoin="round" stroke-width="2" d="m40,47c2,5-4,8-7,6-.7715-.5137-3.8535-1.3145-7-1l-8.3281.3281-1.6719-1.0156"/>
    <path fill="none" stroke="#000" stroke-linecap="round" stroke-linejoin="round" stroke-width="2" d="m27,58c0,2,1.25,4.501,1.25,4.501,0,0,.3828,1.2344-.25,2.499-1,2,2,3,3,1s.832-3.6641,1-4c.4033-.8066,1.999-1.917,2-4v-1"/>
    <path fill="none" stroke="#000" stroke-linecap="round" stroke-linejoin="round" stroke-width="2" d="m27,60c-2.041,2.001-4.625,2-8,2"/>
    <path fill="none" stroke="#000" stroke-linecap="round" stroke-linejoin="round" stroke-width="2" d="m14,59c-1.0156.9287-2,1-3,2s-1,3,0,4"/>
    <path fill="none" stroke="#000" stroke-linecap="round" stroke-linejoin="round" stroke-width="2" d="m14,48l-1,2s-2.2441.2998-3,1c-.5801.5371-1,3-1,3,0,0-2.8779,1.5928-3,2-.0937.3125,1.293,2,2,2,1,0,4-1,4-1,2,0,2,3,3,4,.4102.4102,0,3-.334,3.959-.6797,1.9541,2.334,3.041,3.168.875.3047-.794,1.166-2.834,1.166-4.834"/>
  </g>
</svg>
