<svg id="emoji" viewBox="0 0 72 72" xmlns="http://www.w3.org/2000/svg">
  <g id="line">
    <path fill="none" stroke="#000" stroke-linecap="round" stroke-linejoin="round" stroke-width="2" d="M36,20c8-3,12,5,12,10,.6-9-3-15.5-12-15.5"/>
    <path fill="none" stroke="#000" stroke-linecap="round" stroke-linejoin="round" stroke-width="2" d="M36,20c-8-3-12,5-12,10-.6-9,3-15.5,12-15.5"/>
    <path d="M41.6,29a1.8,1.8,0,1,1-1.8-1.8A1.7925,1.7925,0,0,1,41.6,29"/>
    <path d="M33.6,29a1.8,1.8,0,1,1-1.8-1.8A1.7925,1.7925,0,0,1,33.6,29"/>
    <path d="M38.5,51A1.5,1.5,0,1,1,37,49.5,1.538,1.538,0,0,1,38.5,51"/>
    <path fill="none" stroke="#000" stroke-linecap="round" stroke-linejoin="round" stroke-width="2" d="M33,36.5a6.6712,6.6712,0,0,0,6,0"/>
    <path fill="none" stroke="#000" stroke-miterlimit="10" stroke-width="2" d="M26.8,22.3A15.6515,15.6515,0,0,0,25,30c0,7.2,3.7,13,11,13s11-5.8,11-13a16.3259,16.3259,0,0,0-1.8-7.8"/>
    <path fill="none" stroke="#000" stroke-linecap="round" stroke-linejoin="round" stroke-width="2" d="M43.6,40a1.33,1.33,0,0,0,.3.8,2.2524,2.2524,0,0,0,.5.5c-.5,1-1.1,2.3-.4,3.4a7.365,7.365,0,0,0,.5.6c-.5,1.1-1.1,2.3-.4,3.4a2.6513,2.6513,0,0,0,.5.6h0c-.5,1.1-1.1,2.3-.4,3.4a1.6979,1.6979,0,0,0,.6.6v.1c-.5,1-1.1,2.2-.4,3.3a1.6979,1.6979,0,0,0,.6.6c0,.1-.1.1-.1.2-.5,1-1.1,2.2-.5,3.2a1.966,1.966,0,0,0,1.7.9,1.3671,1.3671,0,0,0,1.4-1.4.9748.9748,0,0,0-.4-.9c.1-.2.2-.3.2-.4.5-1,1.1-2.2.5-3.2-.1-.2-.3-.3-.5-.5,0-.1.1-.2.1-.3.5-1,1.1-2.2.4-3.3a2.2524,2.2524,0,0,0-.5-.5c0-.1.1-.1.1-.2.5-1.1,1.1-2.3.4-3.4-.1-.1-.2-.3-.4-.5a.0979.0979,0,0,1,.1-.1c.5-1.1,1.2-2.3.4-3.5-.1-.1-.2-.3-.4-.4v-.1c.5-1,1.2-2.4.4-3.5-.1-.1-.2-.3-.3-.4.5-1.1,1.2-2.4.4-3.6-.1-.1-.1-.2-.2-.3.6-1.1,1.2-2.5.4-3.8a2.56,2.56,0,0,0-1.3-1"/>
    <path fill="none" stroke="#000" stroke-linecap="round" stroke-linejoin="round" stroke-width="2" d="M28.4,40a1.33,1.33,0,0,1-.3.8,2.2524,2.2524,0,0,1-.5.5c.5,1,1.1,2.3.4,3.4a7.365,7.365,0,0,1-.5.6c.5,1.1,1.1,2.3.4,3.4a2.6513,2.6513,0,0,1-.5.6h0c.5,1.1,1.1,2.3.4,3.4a1.6979,1.6979,0,0,1-.6.6v.1c.5,1,1.1,2.2.4,3.3a1.6979,1.6979,0,0,1-.6.6c0,.1.1.1.1.2.5,1,1.1,2.2.5,3.2a1.966,1.966,0,0,1-1.7.9,1.3671,1.3671,0,0,1-1.4-1.4.9748.9748,0,0,1,.4-.9c-.1-.2-.2-.3-.2-.4-.5-1-1.1-2.2-.5-3.2.1-.2.3-.3.5-.5,0-.1-.1-.2-.1-.3-.5-1-1.1-2.2-.4-3.3a2.2524,2.2524,0,0,1,.5-.5c0-.1-.1-.1-.1-.2-.5-1.1-1.1-2.3-.4-3.4.1-.1.2-.3.4-.5a.0979.0979,0,0,0-.1-.1c-.5-1.1-1.2-2.3-.4-3.5.1-.1.2-.3.4-.4v-.1c-.5-1-1.2-2.4-.4-3.5.1-.1.2-.3.3-.4-.5-1.1-1.2-2.4-.4-3.6.1-.1.1-.2.2-.3-.6-1.1-1.2-2.5-.4-3.8a2.56,2.56,0,0,1,1.3-1"/>
    <path fill="none" stroke="#000" stroke-linecap="round" stroke-linejoin="round" stroke-width="2" d="M20.3,47.4a8.0936,8.0936,0,0,1,3.3-11.7"/>
    <path fill="none" stroke="#000" stroke-linecap="round" stroke-linejoin="round" stroke-width="2" d="M27.7,45.5A16.0657,16.0657,0,0,0,33,48.3"/>
    <path fill="none" stroke="#000" stroke-linecap="round" stroke-linejoin="round" stroke-width="2" d="M17,58V54c0-4,3.1-7.3,6.9-8.5"/>
    <path fill="none" stroke="#000" stroke-linecap="round" stroke-linejoin="round" stroke-width="2" d="M44.3,45.1,33,47V58"/>
    <path fill="none" stroke="#000" stroke-linecap="round" stroke-linejoin="round" stroke-width="2" d="M55,58V54c0-4-3.1-7.3-6.9-8.5"/>
    <path fill="none" stroke="#000" stroke-linecap="round" stroke-linejoin="round" stroke-width="2" d="M51.7,47.4A7.5782,7.5782,0,0,0,53,43a8.1434,8.1434,0,0,0-4.6-7.3"/>
  </g>
</svg>
