<svg id="emoji" viewBox="0 0 72 72" version="1.1" xmlns="http://www.w3.org/2000/svg">
  <g id="line">
    <path fill="none" stroke="#000000" stroke-linecap="round" stroke-linejoin="round" stroke-miterlimit="10" stroke-width="2" d="M55.4,33.8c1.2,2.7,2.2,5.2,2.2,5.2l-4.1,1.4c0,0,2,9.5-0.8,10.9s-8.7,0.8-13.2-0.5"/>
    <path fill="none" stroke="#000000" stroke-linecap="round" stroke-linejoin="round" stroke-miterlimit="10" stroke-width="2" d="M15.9,22c1.4-5,4.6-9.3,9.4-11.1C36.5,6.4,47.6,9.7,51,14.7c0.7,1,1.1,2,1.4,2.9"/>
    <path fill="none" stroke="#000000" stroke-linecap="round" stroke-linejoin="round" stroke-miterlimit="10" stroke-width="2" d="M15.3,30.1c0.5,4.5,2.6,8.9,6.3,12c5.1,4.3,5.3,15.5,5.3,15.5v5.8h17.2c0,0,1-6.8,1.1-10.8"/>
    <path fill="none" stroke="#000000" stroke-linecap="round" stroke-linejoin="round" stroke-miterlimit="10" stroke-width="2" d="M59.2,18v15.7H44.7c0,0-8.7-7.5,0-16.2h14.5V18z"/>
    <path fill="none" stroke="#000000" stroke-linecap="round" stroke-linejoin="round" stroke-miterlimit="10" stroke-width="2" d="M41.6,22H14.5c0,0-2,6.1,0,8.1H42"/>
    <line x1="54.8" x2="54.8" y1="17.6" y2="33.6" fill="none" stroke="#000000" stroke-miterlimit="10" stroke-width="2"/>
  </g>
</svg>
