<svg id="emoji" viewBox="0 0 72 72" xmlns="http://www.w3.org/2000/svg">
  <g id="line">
    <path fill="none" stroke="#000000" stroke-linecap="round" stroke-linejoin="round" stroke-miterlimit="10" stroke-width="2" d="M58.8744,31.433c-1.784-9.0631-9.3335-16.482-18.3729-18.3317"/>
    <path fill="none" stroke="#000000" stroke-linecap="round" stroke-linejoin="round" stroke-miterlimit="10" stroke-width="2" d="M40.5016,58.8163c9.1275-1.7899,16.5775-9.2979,18.3729-18.4234"/>
    <path fill="none" stroke="#000000" stroke-linecap="round" stroke-linejoin="round" stroke-miterlimit="10" stroke-width="2" d="M13.1201,40.3929c1.7832,9.1158,9.3162,16.611,18.4216,18.4234"/>
    <path fill="none" stroke="#000000" stroke-linecap="round" stroke-linejoin="round" stroke-miterlimit="10" stroke-width="2" d="M31.5417,13.1012c-9.07,1.8049-16.6032,9.2666-18.4216,18.3317"/>
    <circle cx="36.0216" cy="35.9191" r="15" fill="none" stroke="#000000" stroke-linecap="round" stroke-linejoin="round" stroke-miterlimit="10" stroke-width="2"/>
    <line x1="31.5417" x2="31.5417" y1="13.1012" y2="8.6598" fill="none" stroke="#000000" stroke-linecap="round" stroke-linejoin="round" stroke-miterlimit="10" stroke-width="2"/>
    <line x1="40.5016" x2="40.5016" y1="13.1012" y2="8.6598" fill="none" stroke="#000000" stroke-linecap="round" stroke-linejoin="round" stroke-miterlimit="10" stroke-width="2"/>
    <line x1="31.5417" x2="31.5417" y1="63.2578" y2="58.8163" fill="none" stroke="#000000" stroke-linecap="round" stroke-linejoin="round" stroke-miterlimit="10" stroke-width="2"/>
    <line x1="40.5016" x2="40.5016" y1="63.2578" y2="58.8163" fill="none" stroke="#000000" stroke-linecap="round" stroke-linejoin="round" stroke-miterlimit="10" stroke-width="2"/>
    <line x1="58.8744" x2="63.3159" y1="31.433" y2="31.433" fill="none" stroke="#000000" stroke-linecap="round" stroke-linejoin="round" stroke-miterlimit="10" stroke-width="2"/>
    <line x1="58.8744" x2="63.3159" y1="40.3929" y2="40.3929" fill="none" stroke="#000000" stroke-linecap="round" stroke-linejoin="round" stroke-miterlimit="10" stroke-width="2"/>
    <line x1="8.6786" x2="13.1201" y1="31.433" y2="31.433" fill="none" stroke="#000000" stroke-linecap="round" stroke-linejoin="round" stroke-miterlimit="10" stroke-width="2"/>
    <line x1="8.6786" x2="13.1201" y1="40.3929" y2="40.3929" fill="none" stroke="#000000" stroke-linecap="round" stroke-linejoin="round" stroke-miterlimit="10" stroke-width="2"/>
  </g>
</svg>
