<svg id="emoji" viewBox="0 0 72 72" version="1.1" xmlns="http://www.w3.org/2000/svg">
  <g id="line">
    <path fill="none" stroke="#000000" stroke-linecap="round" stroke-linejoin="round" stroke-miterlimit="10" stroke-width="2" d="M24.797,8.743 L25.443,8.715 C27.801,9.071 28.605,11.616 29.014,13.543 L32.701,32.414 C32.701,32.414 33.943,36.724 34.921,32.107 L35.554,14.029 C36.062,8.559 42.792,9.558 42.492,14.846 L41.804,33.632 C41.872,36.522 42.82,36.375 43.574,34.426 L48.326,16.203 C49.193,14.628 49.724,14.397 51.352,13.847 C51.779,13.891 52.223,13.851 52.631,13.981 C55.211,14.797 55.242,17.464 54.448,19.515 C48.937,39.183 48.005,42.338 49.592,42.728 C51.091,43.292 55.991,41.979 58.13,41.242 C58.239,41.205 58.353,41.169 58.476,41.136 C62.499,40.045 65.208,40.047 66.659,43.499 C67.2,44.886 67.155,47.547 65.589,47.494 C58.235,47.741 47.828,56.384 47.828,56.384 C47.828,56.384 43.337,62.497 37.62,63.832 C31.904,65.169 25.652,65.837 19.944,59.981 C17.12,56.598 14.342,48.077 12.282,44.203 C10.701,41.231 5.524,32.548 5.524,32.548 C3.077,27.762 8.046,25.012 11.243,29.74 L14.96,35.654 C16.045,37.404 18.507,37.85 17.541,34.733 L12.505,21.384 C10.518,15.609 16.474,13.08 18.996,19.37 L24.508,34.361 C24.589,34.903 26.853,38.528 25.483,31.728 L22.116,14.495 C21.922,12.853 21.9,11.012 23.036,9.652 C23.328,9.303 23.779,9.119 24.149,8.853 z"/>
  </g>
</svg>
