<svg id="emoji" viewBox="0 0 72 72" xmlns="http://www.w3.org/2000/svg">
  <g id="line">
    <polygon fill="none" stroke="#000000" stroke-linecap="round" stroke-linejoin="round" stroke-width="2" points="27.44 43.224 44.56 43.224 43.519 48.724 28.385 48.724 27.44 43.224"/>
    <rect x="5.0191" y="62.5276" width="61.9618" height="4.5" fill="none" stroke="#000000" stroke-linecap="round" stroke-linejoin="round" stroke-width="2"/>
    <path fill="none" stroke="#000000" stroke-miterlimit="10" stroke-width="2" d="M29.7858,62.0276c0-5.314,2.8457-9.6218,6.3561-9.6218s6.356,4.3078,6.356,9.6218"/>
    <path fill="none" stroke="#000000" stroke-linecap="round" stroke-linejoin="round" stroke-width="2" d="M42.8775,49.5279a17.0418,17.0418,0,0,0,3.03,5.8265,25.0285,25.0285,0,0,0,8.3533,6.6732"/>
    <path fill="none" stroke="#000000" stroke-linecap="round" stroke-linejoin="round" stroke-width="2" d="M28.832,49.353a17.8744,17.8744,0,0,1-3.3641,7.0014,18.5363,18.5363,0,0,1-7.6913,5.5376"/>
    <path fill="none" stroke="#000000" stroke-linecap="round" stroke-linejoin="round" stroke-width="2" d="M31.14,42.594a156.7777,156.7777,0,0,0,4.4836-25.8015q.3567-4.0348.4949-7.8574"/>
    <path fill="none" stroke="#000000" stroke-linecap="round" stroke-linejoin="round" stroke-width="2" d="M41.0282,42.594a156.7675,156.7675,0,0,1-4.4835-25.8015q-.3567-4.0348-.4949-7.8574"/>
  </g>
</svg>
