<svg id="emoji" viewBox="0 0 72 72" xmlns="http://www.w3.org/2000/svg">
  <g id="line-supplement">
    <polyline fill="none" stroke="#000" stroke-linecap="round" stroke-linejoin="round" stroke-width="2" points="27 31 30 30 32 32 35 30 37 31 39 30 41 32 42 31"/>
  </g>
  <g id="line">
    <path fill="none" stroke="#000" stroke-linecap="round" stroke-linejoin="round" stroke-width="2" d="m61.2,34.43c3.4343.3331,5.9929,3.3182,5.797,6.763,0,4.83-3.864,5.797-5.797,5.797-1.9454.1886-3.6754-1.2356-3.864-3.181-.022-.2271-.022-.4559,0-.683"/>
    <path fill="none" stroke="#000" stroke-linecap="round" stroke-linejoin="round" stroke-width="2" d="m21.59,28.63s-3.864-.9661-6.763,0-4.83,2.898-4.83,7.729c-.0171,2.845,1.0146,5.5966,2.898,7.729"/>
    <polyline fill="none" stroke="#000" stroke-linecap="round" stroke-linejoin="round" stroke-width="2" points="16.76 45.06 19.66 34.43 21.59 39.26 27.39 23.8 29.88 26.8 35.31 12.45 38.02 18.01 40.92 27.67 42.85 23.8 45.75 36.36 48.64 29.6 51 40"/>
    <path fill="none" stroke="#000" stroke-linecap="round" stroke-linejoin="round" stroke-width="2" d="m19.66,44.09c-3.4343.3331-5.9929,3.3182-5.797,6.763,0,4.83,3.864,5.797,5.797,5.797,1.9454.1886,3.6754-1.2356,3.864-3.181.022-.2271.022-.4559,0-.683"/>
    <path fill="none" stroke="#000" stroke-linecap="round" stroke-linejoin="round" stroke-width="2" d="m25.46,56.65c1.3686,1.8245,3.5163,2.8982,5.797,2.898,3.864,0,6.763-3.864,6.763-4.83"/>
    <path fill="none" stroke="#000" stroke-linecap="round" stroke-linejoin="round" stroke-width="2" d="m39.95,57.62c.8305,1.3102,2.3175,2.0537,3.864,1.932,2.5948-.1679,4.6621-2.2352,4.83-4.83"/>
    <path fill="none" stroke="#000" stroke-linecap="round" stroke-linejoin="round" stroke-width="2" d="m23.53,45.06c-1.932-1.932.9661-8.695,6.763-8.695,2.898,0,8.695.9661,8.695,6.763"/>
    <path fill="none" stroke="#000" stroke-linecap="round" stroke-linejoin="round" stroke-width="2" d="m41.88,40.23s3.864-1.932,6.763-.9661c3.6388,1.3022,5.9943,4.8352,5.797,8.695.0171,2.845-1.0146,5.5966-2.898,7.729"/>
    <path fill="none" stroke="#000" stroke-linecap="round" stroke-miterlimit="10" stroke-width="2" d="m57.34,35.4c1.932-1.932-.9661-8.695-6.763-8.695-2.3589-.0768-4.6778.6234-6.6,1.993"/>
  </g>
</svg>
