<svg id="emoji" viewBox="0 0 72 72" xmlns="http://www.w3.org/2000/svg">
  <g id="line">
    <polygon fill="none" stroke="#000" stroke-linecap="round" stroke-linejoin="round" stroke-width="2" points="20.039 25.833 9.884 32.48 14.06 40.833 22.25 46.965 41.96 46.965 55.187 42.387 61.75 30.808 48.75 22.833 30.5 28.583 20.039 25.833"/>
    <polyline fill="none" stroke="#000" stroke-linecap="round" stroke-linejoin="round" stroke-width="2" points="9.884 32.48 9.884 39.48 14.06 47.833 22.25 53.965 41.96 53.965 55.187 49.387 61.75 37.808 61.75 30.808"/>
    <polyline fill="none" stroke="#000" stroke-linecap="round" stroke-linejoin="round" stroke-width="2" points="33.25 53.965 34.375 50.958 32.875 49.583 33.937 46.965"/>
    <path fill="none" stroke="#000" stroke-linecap="round" stroke-linejoin="round" stroke-width="2" d="M30.5,28.5833l4.1875,5.3125L31.5,37.5833l1.0938,3.25-1.7813,2.125a32.0088,32.0088,0,0,0,1.125,4.0065"/>
  </g>
</svg>
