<svg id="emoji" viewBox="0 0 72 72" xmlns="http://www.w3.org/2000/svg">
  <g id="line">
    <path fill="none" stroke="#000" stroke-linecap="round" stroke-linejoin="round" stroke-width="1.6" d="M29.2905,42.6607s7.5113-10.0817,16.2839.0268"/>
    <g>
      <path fill="none" stroke="#000" stroke-linecap="round" stroke-linejoin="round" stroke-width="2" d="M26.1405,35.3177c1.046,6.5885,5.7366,11.56,11.37,11.56s10.3239-4.972,11.37-11.5606"/>
      <path fill="none" stroke="#000" stroke-linecap="round" stroke-linejoin="round" stroke-width="2" d="M48.4772,27.9284c-1.554-5.6522-5.8715-9.7244-10.9669-9.7244s-9.4129,4.0722-10.9669,9.7244"/>
    </g>
    <path fill="none" stroke="#000" stroke-linecap="round" stroke-linejoin="round" stroke-width="1.6438" d="M27.4429,48.9029a9.459,9.459,0,0,0-9.458,9.6571v3.351"/>
    <path fill="none" stroke="#000" stroke-linecap="round" stroke-linejoin="round" stroke-width="1.6438" d="M56.6131,61.911V58.56a9.796,9.796,0,0,0-9.8561-9.6571"/>
    <path fill="none" stroke="#000" stroke-linecap="round" stroke-linejoin="round" stroke-width="2" d="M57.3717,32.654c-1.1146-1.227-.1538-1.991.3925-2.7954a.6286.6286,0,0,0-.0141-.7235,4.0621,4.0621,0,0,1-.8484-1.4712c-.15-.75-.31-1.11-1.14-1.21-1.04-.12-1.2-.68-.6-1.52.17-.23.36-.44.63-.76-1.47-1.45-3.2-2.72-2.52-5.08a10.307,10.307,0,0,1-1.52-.1,1.3375,1.3375,0,0,1-.35-.1.5607.5607,0,0,1-.15-.1c-.1917-.1749-.1264-.4749.0916-.9694a.6321.6321,0,0,0-.0879-.6291c-.3852-.5056-.6945-.9235-1.0037-1.3415-.14-.19-.32-.56-.43-.54-1.38.24-1.28-.69-1.39-1.58-.1-.77-.35-1.39-1.44-.91-1.5.66-2.28.36-2.98-1.16a1.66,1.66,0,0,0-1.93-.89c-1.43.59-1.57-.16-1.68-1.2a7.2571,7.2571,0,0,0-.26-.98c-.21.11-.43.21-.64.3s-.42.18-.62.27a3.941,3.941,0,0,0-.54.29,1.83,1.83,0,0,0-.41.37,1.9072,1.9072,0,0,1-.72.63c-.56.25-1.07-.08-1.6-.48-.06-.04-.11-.09-.17-.13a5.0742,5.0742,0,0,1-.72-.9c-.14.13-.27.19-.32.3-.83,1.77-.82,1.75-2.89,1.52-.36-.04-1.02.16-1.11.4-.51,1.45-1.63,1.55-2.78,1.42a1.9613,1.9613,0,0,0-.34.8c-.02.11-.05.23-.07.34-.02.05-.03.11-.05.16a1.0113,1.0113,0,0,1-.13.3,1.0475,1.0475,0,0,1-1.05.47,6.3732,6.3732,0,0,0-2.23.91,3.8579,3.8579,0,0,0-1.21.91c-.34.39-.95.94-.86,1.27.5394,2.0463-.9974,3.0112-1.9872,4.2706a.619.619,0,0,0-.073.6157c.2118.5088.2586.7493-.06.9338a1.5349,1.5349,0,0,1-.18.09,10.78,10.78,0,0,1-1.47.37c.44,1.02.65,1.5.4,1.82a.6368.6368,0,0,1-.15.13,1.9444,1.9444,0,0,1-.21.12,1.4844,1.4844,0,0,1-.28.11,2.5947,2.5947,0,0,1-.36.11c-.13.04-.27.08-.43.12-.16.05-.6212.0065-.51.14a9.4863,9.4863,0,0,1,.74.67c.6.65.95,1.39.29,2.1-1.13,1.2.46,2.48-.48,3.5.87.89-.05,1.48-.38,2.15a10.0308,10.0308,0,0,1-.81,1.19,2.0512,2.0512,0,0,1,.65.46c.6724.7037.1832,1.5786-.01,2.424a.6237.6237,0,0,0,.5331.7629c.79.0951,1.4765.295.8765,1.583a1.0489,1.0489,0,0,1,.4462,1.6551.6213.6213,0,0,0,.4967.915A2.2276,2.2276,0,0,1,21.02,45.71a.6364.6364,0,0,0,.52.3992c.5434.0554,1.0726.0465,1.2825.3048a25.4277,25.4277,0,0,1,1.85,2.95c.22-.16.51-.57.82-.58.7-.02,1.63-.08,2.06.31a3.2251,3.2251,0,0,0,.99.63,2.999,2.999,0,0,0,.58.18,2.0456,2.0456,0,0,0,1.63-.23,3.5955,3.5955,0,0,1,.4-.23c.57-.23.9.1,1.08.82.04.16.07.33.11.5l.09.48h.01a2.4631,2.4631,0,0,0,.27.04c.17.02.32.05.46.07h.01a3.575,3.575,0,0,0,2.48-.35c.24-.1.5-.22.82-.37a8.4562,8.4562,0,0,1,.99-.39,7.9382,7.9382,0,0,1,.8426-.2127c.0624-.0116.1255-.0282.1874-.0373.02,0,.04-.01.06-.01a1.4623,1.4623,0,0,1,.86.49,4.2337,4.2337,0,0,1,.54.98c.82-.04,1.71.24,2.04-.87.04-.13.45-.21.69-.22.75-.03,1.5-.01,2.24-.01-.04-.1-.09-.19-.14-.29.45-.35.89-.99,1.35-1.01.36-.01.72-.02,1.06-.03a5.0235,5.0235,0,0,0,1.25-.18,2.7268,2.7268,0,0,0,.47-.19,3.5711,3.5711,0,0,0,.44-.28,1.7712,1.7712,0,0,0,.2-.19,2.55,2.55,0,0,0,.39-.46.5289.5289,0,0,1,.1-.11,1.5257,1.5257,0,0,1,.28-.19,3.7478,3.7478,0,0,1,.5-.21,3.3154,3.3154,0,0,0,.33-.14c.16-.08.43-.1.47-.22.6-1.56,1.45-2.72,3.38-2.52.24.02.5-.19.73-.28-.36-.78-1.07-1.6-.89-2.1a16.6424,16.6424,0,0,1,1.9208-3.2272.6025.6025,0,0,0,.0827-.1908c.0621-.26.1536-.6547.2065-1.0421a1.1813,1.1813,0,0,0-.01-.46.2981.2981,0,0,0-.04-.1l-.02-.02c-.49-.56-.31-.96.16-1.43.2-.2.29-.86.15-.98C56.4916,33.7939,56.6517,33.204,57.3717,32.654Zm-29.61-8.34"/>
    <g>
      <path fill="none" stroke="#000" stroke-linecap="round" stroke-linejoin="round" stroke-width="2" d="M37.5729,32.31c-3.498.1944-1.0649,4.6633-5.7,4.6965-5.0527.0361-6.3806-1.0689-6.8341-5.409-.5385-5.1543,6.8625-5.4738,6.8625-5.4738h5.6721"/>
      <path fill="none" stroke="#000" stroke-linecap="round" stroke-linejoin="round" stroke-width="2" d="M37.4477,32.31c3.498.1944,1.0649,4.6633,5.7005,4.6965,5.0527.0361,6.3806-1.0689,6.8341-5.409.5385-5.1543-6.8625-5.4738-6.8625-5.4738H37.4477"/>
    </g>
  </g>
</svg>
