<svg id="emoji" viewBox="0 0 72 72" version="1.1" xmlns="http://www.w3.org/2000/svg">
  <g id="line">
    <line x1="37.8381" x2="22.2977" y1="51.446" y2="51.7478" fill="none" stroke="#000000" stroke-linecap="round" stroke-linejoin="round" stroke-width="2"/>
    <path fill="none" stroke="#000000" stroke-linecap="round" stroke-linejoin="round" stroke-width="2" d="M8.04,51.7478 c-0.6789-0.1509-1.2824-0.3772-1.3579-0.7544c-0.0754-0.7544-0.2263-2.8667-0.2263-3.8474 c-0.0168-0.3991,0.0885-0.7938,0.3018-1.1316c0.83-1.5088,3.621-5.13,11.24-4.8281l7.77-5.2052 c0.3634-0.2269,0.779-0.3568,1.207-0.3772l14.786-0.0754c0.2289-0.0123,0.4583,0.0132,0.6789,0.0754 c1.66,0.4526,8.8263,3.0175,7.8456,9.5053l0.83,0.4526c0.3816,0.1639,0.662,0.5003,0.7544,0.9052 c0.2897,1.0705,0.2369,2.2049-0.1509,3.2439"/>
    <polyline fill="none" stroke="#000000" stroke-linecap="round" stroke-linejoin="round" stroke-width="2" points="20.714,43.072 43.496,42.921 43.496,39.088"/>
    <circle cx="14.9802" cy="50.9934" r="3.7719" fill="none" stroke="#000000" stroke-linecap="round" stroke-linejoin="round" stroke-width="2"/>
    <circle cx="45.0047" cy="50.9934" r="3.7719" fill="none" stroke="#000000" stroke-linecap="round" stroke-linejoin="round" stroke-width="2"/>
    <polyline fill="none" stroke="#000000" stroke-linecap="round" stroke-linejoin="round" stroke-width="2" points="11.208,45.335 9.85,46.995 7.059,46.92"/>
    <path fill="none" stroke="#000000" stroke-linecap="round" stroke-linejoin="round" stroke-width="2" d="M40.4374,22.8912 c-0.1422-2.9005,2.0938-5.3671,4.9942-5.5093c1.5263-0.0748,3.0097,0.518,4.0639,1.6242c1.2318-1.9622,3.8211-2.5544,5.7833-1.3226 c1.1742,0.7371,1.9084,2.0066,1.9616,3.392c0.0071-0.0003,0.0136-0.0026,0.0207-0.0029c2.3294-0.1067,4.3043,1.6951,4.411,4.0245 s-1.6951,4.3043-4.0245,4.411c-0.0015,0.0001-0.0029,0.0001-0.0044,0.0002c-0.0685,0.0031-0.1329-0.011-0.2007-0.0109 c0.6791,1.5807-0.0519,3.4127-1.6326,4.0917c-0.0428,0.0184-0.086,0.0358-0.1296,0.0523c0.0086,0.063,0.0422,0.116,0.0451,0.1806 c0.0538,1.1647-0.8468,2.1524-2.0115,2.2062s-2.1524-0.8468-2.2062-2.0115c-0.0001-0.0012-0.0001-0.0024-0.0002-0.0036 c-0.0182-0.514,0.1543-1.0167,0.4842-1.4113c-0.2072-0.2833-0.3655-0.5992-0.4685-0.9347c-1.5768,0.7263-3.4438,0.0368-4.17-1.54 c-0.1105-0.2398-0.1903-0.4926-0.2375-0.7523c-1.9253,1.2922-4.5336,0.779-5.8259-1.1463 c-0.7307-1.0887-0.9109-2.4563-0.487-3.6971C40.5934,24.008,40.4699,23.4541,40.4374,22.8912z"/>
  </g>
</svg>
