<svg id="emoji" viewBox="0 0 72 72" version="1.1" xmlns="http://www.w3.org/2000/svg">
  <g id="line">
    <path id="Bone_Line_1" fill="none" stroke="#000000" stroke-linecap="round" stroke-linejoin="round" stroke-width="2" d="M50.2264,10.0821c0.6267,1.0969,4.6661-1.1327,5.8507-0.0661c0.681,0.558,1.0898,1.3813,1.1229,2.2611 c-0.0489,1.4169-1.3473,2.2707-2.014,2.7091c-1.0375,0.6612-2.2559,0.9811-3.4844,0.915c-4.1585,3.5428-7.9978,9.8859-9.45,12.52 c-0.3905,0.7734-0.4682,1.6674-0.2171,2.4966c0.2935,0.9748,0.2903,2.015-0.0092,2.988c-0.1007,0.3158-0.8595,2.695-2.778,2.9822 c-1.0259,0.1187-2.0459-0.2652-2.7389-1.0309c-0.9009-1.0156-1.3047-3.8681-3.04-3.6491"/>
    <path id="Bone_Line_1-2" fill="none" stroke="#000000" stroke-linecap="round" stroke-linejoin="round" stroke-width="2" d="M37.2119,31.9643c-0.6267-1.0969-4.6661,1.1327-5.8507,0.066c-0.6811-0.5579-1.0902-1.3812-1.1233-2.261 c0.0489-1.4169,1.3473-2.2707,2.014-2.7091c1.0212-0.6646,2.2247-0.9932,3.442-0.94c4.1123-3.247,7.3859-7.433,9.5461-12.2066 c0.3745-0.8815,0.4325-1.8654,0.164-2.7848c-0.2934-0.9748-0.2902-2.0149,0.0093-2.9879c0.1007-0.3158,0.8594-2.6951,2.778-2.9823 C49.2172,5.0402,50.2371,5.4243,50.93,6.19c0.9008,1.0156,1.3046,3.8681,3.04,3.6491"/>
    <path id="Bone_Line_1-2-2" fill="none" stroke="#000000" stroke-linecap="round" stroke-linejoin="round" stroke-width="2" d="M32.2863,40.1741c0.6267,1.0969,4.6661-1.1327,5.8507-0.066c0.681,0.558,1.0899,1.3813,1.123,2.2611 c-0.0489,1.4168-1.3473,2.2706-2.014,2.7091c-1.0375,0.6611-2.2559,0.9811-3.4844,0.9149c-4.1585,3.5429-7.9978,9.886-9.45,12.52 c-0.3905,0.7734-0.4682,1.6675-0.2171,2.4967c0.2935,0.9748,0.2903,2.0149-0.0092,2.9879c-0.1007,0.3158-0.86,2.695-2.778,2.9822 c-1.0258,0.1187-2.0459-0.2652-2.7389-1.0308c-0.9009-1.0156-1.3047-3.8681-3.04-3.6492"/>
    <path id="Bone_Line_1-2-3" fill="none" stroke="#000000" stroke-linecap="round" stroke-linejoin="round" stroke-width="2" d="M19.2719,62.0564c-0.6268-1.097-4.6662,1.1326-5.8508,0.066c-0.6811-0.5579-1.0901-1.3813-1.1233-2.2611 c0.0489-1.4168,1.3473-2.2707,2.014-2.7091c1.0213-0.6645,2.2247-0.9931,3.442-0.94c4.1121-3.2471,7.3855-7.4331,9.5456-12.2067 c0.3746-0.8815,0.4325-1.8654,0.164-2.7848c-0.2934-0.9749-0.2902-2.015,0.0093-2.988c0.1007-0.3158,0.86-2.695,2.778-2.9822 c1.026-0.1188,2.0463,0.2652,2.7393,1.0311c0.9008,1.0156,1.3046,3.8681,3.04,3.6491"/>
    <polyline fill="none" stroke="#000000" stroke-linecap="round" stroke-linejoin="round" stroke-width="2" points="28.005,26.658 25.061,23.258 27.832,22.231 24.133,17.96"/>
    <polyline fill="none" stroke="#000000" stroke-linecap="round" stroke-linejoin="round" stroke-width="2" points="24.521,35.066 20.027,35.245 21.174,37.969 15.528,38.194"/>
    <polyline fill="none" stroke="#000000" stroke-linecap="round" stroke-linejoin="round" stroke-width="2" points="25.661,30.553 21.806,28.237 21.27,31.143 16.427,28.233"/>
  </g>
</svg>
