<svg id="emoji" viewBox="0 0 72 72" xmlns="http://www.w3.org/2000/svg">
  <g id="line">
    <path fill="none" stroke="#000" stroke-linecap="round" stroke-linejoin="round" stroke-width="2" d="M28.4384,43.7691c-.0087,0-.0175.0088-.0263.0088a6.3265,6.3265,0,0,1-1.6928.5789,8.3128,8.3128,0,0,1-3.2015.2017c-.9648-.3771-.8069-2.298.2719-2.64,0,0,8.359-1.6753,8.7624-1.7893a1.442,1.442,0,0,1,.1667-.0351"/>
    <ellipse cx="34.8301" cy="25.9579" rx="3.7478" ry="3.8073" fill="none" stroke="#000" stroke-linecap="round" stroke-linejoin="round" stroke-width="2"/>
    <ellipse cx="45.3622" cy="33.7938" rx="3.7478" ry="3.8073" fill="none" stroke="#000" stroke-linecap="round" stroke-linejoin="round" stroke-width="2"/>
    <line x1="37.3675" x2="35.4028" y1="28.8231" y2="35.3488" fill="none" stroke="#000" stroke-linecap="round" stroke-linejoin="round" stroke-width="2"/>
    <line x1="41.9724" x2="37.7973" y1="32.1736" y2="37.7872" fill="none" stroke="#000" stroke-linecap="round" stroke-linejoin="round" stroke-width="2"/>
    <path fill="none" stroke="#000" stroke-linecap="round" stroke-linejoin="round" stroke-width="2" d="M24.2836,47.1122s8.3412-6.635,8.4676-7.0773.78-3.5549,1.7646-4.3054c.9107-.6942,2.2162-.5281,2.9824.9378s.09,4.73-.6357,5.8347-9.6907,6.6726-10.3866,7.082S23.1147,49.9212,24.2836,47.1122Z"/>
  </g>
</svg>
