<svg id="emoji" viewBox="0 0 72 72" xmlns="http://www.w3.org/2000/svg">
  <g id="line">
    <path d="M41.8372,29.4237a2,2,0,1,1-2-2,2.0007,2.0007,0,0,1,2,2"/>
    <path d="M33.8372,29.4237a2,2,0,1,1-2-2,2.0007,2.0007,0,0,1,2,2"/>
    <path d="M35.8371,39.4261a7.6531,7.6531,0,0,1-3.4473-.8579,1,1,0,1,1,.8946-1.789,5.3777,5.3777,0,0,0,5.1054,0,1,1,0,0,1,.8946,1.789A7.6528,7.6528,0,0,1,35.8371,39.4261Z"/>
    <path fill="none" stroke="#000" stroke-linecap="round" stroke-linejoin="round" stroke-width="2" d="M16.8949,60.2813s-2-13,10-13c3.16,2.09,5.86,3.56,8.88,3.59h.12c3.02-.03,5.73-1.5,8.88-3.59.15,0,.29,0,.43.01"/>
    <path fill="none" stroke="#000" stroke-linecap="round" stroke-linejoin="round" stroke-width="2" d="M51.0549,49.0513c4.9,3.55,3.72,11.23,3.72,11.23"/>
    <line x1="21.9667" x2="21.9667" y1="48.2299" y2="60.4339" fill="none" stroke="#000" stroke-linecap="round" stroke-linejoin="round" stroke-width="2"/>
    <line x1="49.4575" x2="49.4575" y1="50.9156" y2="60.4339" fill="none" stroke="#000" stroke-linecap="round" stroke-linejoin="round" stroke-width="2"/>
    <polyline fill="none" stroke="#000" stroke-linecap="round" stroke-linejoin="round" stroke-width="2" points="27.105 47.533 27.105 60.434 44.554 60.42 44.554 47.513"/>
    <path fill="none" stroke="#000" stroke-linecap="round" stroke-linejoin="round" stroke-width="2" d="M16.2232,38.8794C15,38.1046,15.0052,36.77,15.78,35.5468s1.908-1.6877,3.1313-.9129"/>
    <path fill="none" stroke="#000" stroke-linecap="round" stroke-linejoin="round" stroke-width="2" d="M18.7912,41.4474a2.5681,2.5681,0,1,1-2.568-2.568"/>
    <path fill="none" stroke="#000" stroke-linecap="round" stroke-linejoin="round" stroke-width="2" d="M9.579,49.06c6.3524-.3944,4.5577-5.6759,4.5577-5.6759S8.5922,42.7724,9.579,49.06Z"/>
    <path fill="none" stroke="#000" stroke-linecap="round" stroke-linejoin="round" stroke-width="2" d="M23.1575,38.5582s.8726,2.5851-1.0791,3.5473c-1.2988.64-2.6056.62-3.2872-.6581"/>
    <path fill="none" stroke="#000" stroke-linecap="round" stroke-linejoin="round" stroke-width="2" d="M18.9112,34.6339c-4.662-9.0993,7.3379-17.851,7.3379-17.851s9.7081-7.3365,19.9831.446C48.6236,19.04,57.0417,26.7458,53,34.6339"/>
    <path fill="none" stroke="#000" stroke-linecap="round" stroke-linejoin="round" stroke-width="2" d="M53,34.6339A2.498,2.498,0,0,1,56.7649,36.57"/>
    <path fill="none" stroke="#000" stroke-linecap="round" stroke-linejoin="round" stroke-width="2" d="M51.6536,42.1681a2.3306,2.3306,0,0,1-1.82-.0626c-1.9517-.9622-1.0791-3.5473-1.0791-3.5473"/>
    <path fill="none" stroke="#000" stroke-linecap="round" stroke-linejoin="round" stroke-width="2" d="M35.7149,19.7913c5.82,0,10.55,5.63,10.55,12.58s-4.73,12.59-10.55,12.59c-5.83,0-10.55-5.64-10.55-12.59a14.9823,14.9823,0,0,1,.29-2.95"/>
    <path fill="none" stroke="#000" stroke-linecap="round" stroke-linejoin="round" stroke-width="2" d="M49.8491,45.8871c1.6957,2.0754,1.1915,5.2935,1.1915,5.2935s-3.2538-.1474-4.95-2.2229-1.1915-5.2935-1.1915-5.2935S48.1534,43.8133,49.8491,45.8871Z"/>
    <path fill="none" stroke="#000" stroke-linecap="round" stroke-linejoin="round" stroke-width="2" d="M53.8511,50.3887c-1.46,1.507-2.3594,5.5789-1.5748,10.0344"/>
    <path fill="none" stroke="#000" stroke-linecap="round" stroke-linejoin="round" stroke-width="2" d="M56.5813,38.2343a2.1238,2.1238,0,1,1,4.2451-.1473"/>
    <path fill="none" stroke="#000" stroke-linecap="round" stroke-linejoin="round" stroke-width="2" d="M63.2589,44.912a2.1239,2.1239,0,1,0,.1473-4.2452"/>
    <path fill="none" stroke="#000" stroke-linecap="round" stroke-linejoin="round" stroke-width="2" d="M63.4063,40.6668a1.84,1.84,0,0,0-2.58-2.58"/>
    <path fill="none" stroke="#000" stroke-linecap="round" stroke-linejoin="round" stroke-width="2" d="M60.6785,47.4913a1.84,1.84,0,0,0,2.58-2.58"/>
    <path fill="none" stroke="#000" stroke-linecap="round" stroke-linejoin="round" stroke-width="2" d="M60.6772,47.49a2.1239,2.1239,0,0,1-4.2452.1474"/>
    <path fill="none" stroke="#000" stroke-linecap="round" stroke-linejoin="round" stroke-width="2" d="M53.8548,45.0548a1.84,1.84,0,0,0,2.58,2.58"/>
    <path fill="none" stroke="#000" stroke-linecap="round" stroke-linejoin="round" stroke-width="2" d="M56.5813,38.2343c-1.6529-1.2446-4.1446.7-2.8789,2.5776"/>
    <path fill="none" stroke="#000" stroke-linecap="round" stroke-linejoin="round" stroke-width="2" d="M53.8511,45.0585a2.1239,2.1239,0,0,1-.1473-4.2452"/>
    <circle cx="58.5553" cy="43.0237" r="1.8896" fill="none" stroke="#000" stroke-miterlimit="10" stroke-width="1.5"/>
    <path fill="none" stroke="#000" stroke-linecap="round" stroke-linejoin="round" stroke-width="2" d="M25.4519,29.4237s5.13-2.6373,10.26-9.6355h0"/>
  </g>
</svg>
