<svg id="emoji" viewBox="0 0 72 72" version="1.1" xmlns="http://www.w3.org/2000/svg">
  <g id="line">
    <path fill="none" d="m36.05 35.73-0.3291 24.55s-8.668-6.463-9.35-7.823-0.3219-16.47-0.3219-16.47z"/>
    <path fill="none" d="m45.52 36.17 0.1245 15.42s-7.773 7.626-9.913 9.168c-0.02504-2.061-0.1614-24.29-0.1614-24.29z"/>
    <path fill="none" stroke="#000" stroke-linecap="round" stroke-linejoin="round" stroke-width="2" d="m41.07 19.57c0-4.163-2.359-7.537-5.269-7.537s-5.269 3.375-5.269 7.537h0.0026l1.651 8.866h-1.439v3.156h9.927v-3.156h-1.019z"/>
    <path fill="#000" d="m32.46 31.59h6.932v4.528h-6.932z"/>
    <path fill="none" stroke="#000" stroke-linecap="round" stroke-linejoin="round" stroke-width="2" d="m43.83 51.9-0.1874-15.78h-15.48v15.86l7.832 8.001z"/>
    <path fill="none" stroke="#000" stroke-linecap="round" stroke-linejoin="round" stroke-width="2" d="m32.38 36.12 2.281 5.303c0.4681 1.149 2.091 1.216 2.654 0.1089l2.296-5.412"/>
    <ellipse cx="35.8" cy="17.76" rx="1.915" ry="1.89"/>
  </g>
</svg>
