<svg id="emoji" viewBox="0 0 72 72" version="1.1" xmlns="http://www.w3.org/2000/svg">
  <g id="line">
    <g fill="none">
      <path stroke="#000" stroke-linecap="round" stroke-linejoin="round" stroke-width="2" d="m34.66 24.76c-0.04016 0.2039-0.0022 0.4507 0.1384 0.7666 0.1851 0.4156 0.3298 0.848 0.4321 1.291 0.4985 2.162 1.495 3.658 5.317 5.819 3.394 1.919 10.32 15.51 11.83 18.53 0.1945 0.3888 0.2999 0.8161 0.3086 1.251l0.1292 5.814c0.01454 0.6546 0.2464 1.286 0.659 1.794l1.853 2.283c1.015 1.25 2.845 1.454 4.11 0.4574l3.483-2.744c1.169-0.9207 1.468-2.568 0.6995-3.842l-21.14-34.74c-0.3143-0.5205-0.5248-0.8075-0.7317-0.9177"/>
      <rect x="14.32" y="25.04" rx="2.359" ry="2.359" width="13.56" height="13.46" transform="rotate(-30.014) skewX(-.028)" stroke="#000" stroke-linecap="round" stroke-linejoin="round" stroke-width="2"/>
      <path stroke="#000" stroke-linecap="round" stroke-linejoin="round" stroke-width="2" d="m31.02 24.98-9.465 11.24c-3.463 4.049-17.14-17.64-12.65-19.27l17.34-3.026"/>
    </g>
  </g>
</svg>
