<svg id="emoji" viewBox="0 0 72 72" version="1.1" xmlns="http://www.w3.org/2000/svg">
  <g id="line" stroke-linecap="round" stroke-linejoin="round" stroke-width="2">
    <path fill="none" stroke="#000" d="m37.66 55.14 0.1448-5.113-4.704-0.174 2.129-4.509-5.047 0.01558 2.164-4.039-4.638 0.2295 2.033-4.019-4.323 0.4922 1.982-4.506-4.735 0.2672 2.296-4.566-4.853 0.6287 2.171-4.636-4.748 0.6693 2.442-4.36-4.543 0.8141 2.332-4.353-5.063 0.1439 2.273-4.419-5.385-0.05985 7.644-5.701 32.42 31.72 7.138 7.683"/>
    <path fill="none" stroke="#000" d="m37.66 55.14 8.158-6.568 10.97-1.225 3.843 3.993c0.8109 0.7796 0.0028 2.209-0.9039 2.875l-12.91 9.489c-0.7709 0.5664-1.852 0.4259-2.452-0.3187l-5.554-6.892z"/>
    <path fill="#000" stroke="#000" stroke-miterlimit="10" d="m49.62 39.67-3.798 8.911 10.92-1.229s-3.572-4.236-7.124-7.682zm1.288 8.282c-2.51 0.2806-4.118-2.596-2.561-4.581 1.557-1.985 4.75-1.119 5.07 1.382 0.2015 1.574-0.931 3.007-2.509 3.199z"/>
  </g>
</svg>
