<?xml version="1.0" encoding="utf-8"?>
<!-- Generator: Adobe Illustrator 19.1.0, SVG Export Plug-In . SVG Version: 6.00 Build 0)  -->
<svg version="1.1" id="emoji" xmlns="http://www.w3.org/2000/svg" xmlns:xlink="http://www.w3.org/1999/xlink" x="0px" y="0px"
	 viewBox="0 0 72 72" enable-background="new 0 0 72 72" xml:space="preserve">
<g id="_xDB80__xDC1E_">
	<path fill="none" stroke="#000000" stroke-width="2" stroke-linecap="round" stroke-linejoin="round" stroke-miterlimit="10" d="
		M38.8,54.5h-5.5c-5,0-9-4.1-9-9V26.4c0-5,4.1-9,9-9h5.5c5,0,9,4.1,9,9v19.1C47.8,50.4,43.7,54.5,38.8,54.5z"/>
	<path fill="none" stroke="#000000" stroke-width="2" stroke-linecap="round" stroke-linejoin="round" stroke-miterlimit="10" d="
		M36.1,32.2h-0.2c-1.1,0-2-0.9-2-2v-6c0-1.1,0.9-2,2-2h0.2c1.1,0,2,0.9,2,2v6C38.1,31.2,37.2,32.2,36.1,32.2z"/>
	<g>
		
			<line fill="none" stroke="#000000" stroke-width="2" stroke-linecap="round" stroke-linejoin="round" stroke-miterlimit="10" x1="41.3" y1="60" x2="36.1" y2="65.2"/>
		
			<line fill="none" stroke="#000000" stroke-width="2" stroke-linecap="round" stroke-linejoin="round" stroke-miterlimit="10" x1="30.8" y1="60" x2="36" y2="65.2"/>
	</g>
	<g>
		
			<line fill="none" stroke="#000000" stroke-width="2" stroke-linecap="round" stroke-linejoin="round" stroke-miterlimit="10" x1="30.8" y1="11.9" x2="36" y2="6.7"/>
		
			<line fill="none" stroke="#000000" stroke-width="2" stroke-linecap="round" stroke-linejoin="round" stroke-miterlimit="10" x1="41.3" y1="11.9" x2="36.1" y2="6.7"/>
	</g>
</g>
</svg>
