<svg id="emoji" xmlns="http://www.w3.org/2000/svg" viewBox="0 0 72 72">
  
  
  
  
  
  <g id="line">
    <path fill="none" stroke="#000000" stroke-width="2" stroke-linecap="round" stroke-linejoin="round" stroke-miterlimit="10" d="
		M18.613,6.6826c0-0.6728,0.3732-1.2182,0.8335-1.2182h35.8977c0.4603,0,0.8335,0.5454,0.8335,1.2182v52.466
		c0,0.6728-0.3732,1.2182-0.8335,1.2182"></path>
    <path fill="none" stroke="#000000" stroke-width="2" stroke-linecap="round" stroke-linejoin="round" stroke-miterlimit="10" d="
		M51.1805,66.4522H15.2828c-0.4603,0-0.8335-0.5454-0.8335-1.2182v-7.1774V23.3439v-3.9428V12.768
		c0-0.6728,0.3732-1.2182,0.8335-1.2182h35.8977c0.4603,0,0.8335,0.5454,0.8335,1.2182v52.466
		C52.014,65.9068,51.6408,66.4522,51.1805,66.4522z"></path>
    <line fill="none" stroke="#000000" stroke-width="2" stroke-linecap="round" stroke-linejoin="round" stroke-miterlimit="10" x1="12.3558" y1="20.5008" x2="19.628" y2="20.5008"></line>
    <line fill="none" stroke="#000000" stroke-width="2" stroke-linecap="round" stroke-linejoin="round" stroke-miterlimit="10" x1="12.3558" y1="27.8644" x2="19.628" y2="27.8644"></line>
    <line fill="none" stroke="#000000" stroke-width="2" stroke-linecap="round" stroke-linejoin="round" stroke-miterlimit="10" x1="11" y1="35.3193" x2="18.2722" y2="35.3193"></line>
    <line fill="none" stroke="#000000" stroke-width="2" stroke-linecap="round" stroke-linejoin="round" stroke-miterlimit="10" x1="18.2722" y1="42.6828" x2="11" y2="42.6828"></line>
    <line fill="none" stroke="#000000" stroke-width="2" stroke-linecap="round" stroke-linejoin="round" stroke-miterlimit="10" x1="11" y1="50.0464" x2="18.2722" y2="50.0464"></line>
    <line fill="none" stroke="#000000" stroke-width="2" stroke-linecap="round" stroke-linejoin="round" stroke-miterlimit="10" x1="11" y1="57.4099" x2="18.2722" y2="57.4099"></line>
  </g>
</svg>