<?xml version="1.0" encoding="utf-8"?>
<!-- Generator: Adobe Illustrator 19.1.0, SVG Export Plug-In . SVG Version: 6.00 Build 0)  -->
<svg version="1.1" id="emoji" xmlns="http://www.w3.org/2000/svg" xmlns:xlink="http://www.w3.org/1999/xlink" x="0px" y="0px"
	 viewBox="0 0 72 72" enable-background="new 0 0 72 72" xml:space="preserve">
<g id="_xDB80__xDC2D__1_">
	<path fill="none" stroke="#1D1D1B" stroke-width="2" stroke-linecap="round" stroke-linejoin="round" stroke-miterlimit="10" d="
		M59,16.7c0,0-2.6,2.1-6.2,2.5c0,0-5.7-6.4-13.9-0.8c-3.7,2.6-4,8-3.4,10c0,0-11.1,0.9-20.8-10.5c0,0-4.3,7.5,2.8,13.5
		c0,0-2.1,0.3-4.1-1.3c0,0-1,7.8,7.7,9.9c0,0-0.6,1-4.1,0c0,0,0.6,6.3,8.8,7.2c0,0-4.5,4.6-14.5,4c0,0,16.6,12.4,34.5-2.6
		c10-8.5,9.7-20.7,9.5-22.6c0,0,3.9-3,5-4.9c0,0-3.1,1-5.6,1C54.9,22.1,58.2,20.3,59,16.7z"/>
</g>
</svg>
