<?xml version="1.0" encoding="utf-8"?>
<!-- Generator: Adobe Illustrator 19.1.0, SVG Export Plug-In . SVG Version: 6.00 Build 0)  -->
<svg version="1.1" id="Emoji" xmlns="http://www.w3.org/2000/svg" xmlns:xlink="http://www.w3.org/1999/xlink" x="0px" y="0px"
	 viewBox="0 0 72 72" enable-background="new 0 0 72 72" xml:space="preserve">
<g id="_xDB80__xDC2C_">
	<path fill="none" stroke="#000000" stroke-width="2" stroke-miterlimit="10" d="M47.9,67H63c2.2,0,4-1.8,4-4V9c0-2.2-1.8-4-4-4H9
		C6.8,5,5,6.8,5,9v54c0,2.2,1.8,4,4,4h29.1"/>
	<path fill="none" stroke="#000000" stroke-width="2" stroke-linecap="round" stroke-linejoin="round" stroke-miterlimit="10" d="
		M47.9,67V42.5h8.8l1-9.8h-9.8v-5.9c0-3.9,2.9-3.9,3.9-3.9s5.9,0,5.9,0V14c-4-0.4-19.6-3.9-19.6,12.8v5.9h-7.9v9.8h7.9V67"/>
</g>
</svg>
