<?xml version="1.0" encoding="utf-8"?>
<!-- Generator: Adobe Illustrator 21.1.0, SVG Export Plug-In . SVG Version: 6.00 Build 0)  -->
<svg version="1.1" id="Ebene_3" xmlns="http://www.w3.org/2000/svg" xmlns:xlink="http://www.w3.org/1999/xlink" x="0px" y="0px"
	 viewBox="0 0 72 72" enable-background="new 0 0 72 72" xml:space="preserve">
<g id="_xDB80__xDC25_">
	<circle fill="#000100" cx="13" cy="26" r="2"/>
	<circle fill="#000100" cx="20" cy="26" r="2"/>
	<circle fill="#000100" cx="27" cy="26" r="2"/>
	<g>
		<path fill="none" stroke="#1D1D1B" stroke-width="2" stroke-linecap="round" stroke-linejoin="round" stroke-miterlimit="10" d="
			M11.9,37.4c-1.1,2.9-4,6.7-6.9,8.6c6,0,10.2-1.8,13.4-6.1"/>
	</g>
	<path fill="none" stroke="#1D1D1B" stroke-width="2" stroke-linecap="round" stroke-miterlimit="10" d="M22.3,39.8
		C28.9,38.7,34,33,34,26c0-7.7-6.3-14-14-14S6,18.3,6,26c0,3.3,1.2,6.4,3.1,8.8"/>
	<circle fill="#000100" cx="59" cy="41.3" r="2"/>
	<circle fill="#000100" cx="52" cy="41.3" r="2"/>
	<circle fill="#000100" cx="45" cy="41.3" r="2"/>
	<g>
		<path fill="none" stroke="#1D1D1B" stroke-width="2" stroke-linecap="round" stroke-linejoin="round" stroke-miterlimit="10" d="
			M60.1,52.7c1.1,2.9,4,6.7,6.9,8.6c-6,0-10.2-1.8-13.4-6.1"/>
	</g>
	<path fill="none" stroke="#1D1D1B" stroke-width="2" stroke-linecap="round" stroke-miterlimit="10" d="M49.7,55.1
		C43.1,54,38,48.2,38,41.3c0-7.7,6.3-14,14-14s14,6.3,14,14c0,3.3-1.2,6.4-3.1,8.8"/>
</g>
</svg>
