<?xml version="1.0" encoding="utf-8"?>
<!-- Generator: Adobe Illustrator 21.1.0, SVG Export Plug-In . SVG Version: 6.00 Build 0)  -->
<svg version="1.1" id="emoji" xmlns="http://www.w3.org/2000/svg" xmlns:xlink="http://www.w3.org/1999/xlink" x="0px" y="0px"
	 viewBox="0 0 72 72" enable-background="new 0 0 72 72" xml:space="preserve">
<g id="_xDB80__xDC24__1_">
	<g>
		<path fill="none" stroke="#000000" stroke-width="2" stroke-linecap="round" stroke-linejoin="round" stroke-miterlimit="10" d="
			M51.3,13.9c-1.5,0.2-2.7,1.4-2.7,3c0,1.5,1.1,2.8,2.6,3"/>
		<g>
			<path fill="none" stroke="#000000" stroke-width="2" stroke-linecap="round" stroke-linejoin="round" stroke-miterlimit="10" d="
				M50.5,66.8l-1.6-13c-0.1-1.1-0.9-2.6-1.7-3.4L44,47.2c-0.8-0.8-2.1-2-3-2.7l-2.9-2.4c-0.8-0.7-1.5-2.2-1.5-3.3l0,0
				c0-1.1,0.4-2.8,1-3.8l5-9.2"/>
		</g>
		<g>
			<path fill="none" stroke="#000000" stroke-width="2" stroke-linecap="round" stroke-linejoin="round" stroke-miterlimit="10" d="
				M47.8,35.2c0,0-0.3,0.6-0.6,1.3c-0.3,0.7-0.1,2.1,0.5,3l3.4,5.4"/>
		</g>
		<g>
			<path fill="none" stroke="#000000" stroke-width="2" stroke-linecap="round" stroke-linejoin="round" stroke-miterlimit="10" d="
				M50.6,27.8"/>
		</g>
		<g>
			<path fill="none" stroke="#000000" stroke-width="2" stroke-linecap="round" stroke-linejoin="round" stroke-miterlimit="10" d="
				M36.6,39.8l-5.9,8.4c-0.6,0.9-1.9,2.1-2.9,2.7l-6.7,4c-0.9,0.6-1.5,1.7-1.2,2.5s1.3,1.2,2.3,0.7l8.5-3.5c1-0.4,2.5-1.4,3.3-2.1
				l7.5-6.7"/>
		</g>
		<path fill="none" stroke="#000000" stroke-width="2" stroke-linecap="round" stroke-linejoin="round" stroke-miterlimit="10" d="
			M42.6,25.8c2-4,4.4-4.2,6-3.6c1.6,0.6,2.4,2.2,2.4,3.8"/>
		<g>
			
				<line fill="none" stroke="#000000" stroke-width="2" stroke-linecap="round" stroke-linejoin="round" stroke-miterlimit="10" x1="47.5" y1="26.9" x2="51.2" y2="32.4"/>
		</g>
	</g>
	<line fill="#FFFFFF" x1="51.8" y1="32.5" x2="51.8" y2="19.9"/>
	<path fill="#FFFFFF" d="M51.8,32.5"/>
	
		<line fill="none" stroke="#000000" stroke-width="2" stroke-linecap="round" stroke-linejoin="round" stroke-miterlimit="10" x1="54.7" y1="4.9" x2="54.7" y2="66.8"/>
	<g>
		
			<line fill="none" stroke="#000000" stroke-width="2" stroke-linecap="round" stroke-linejoin="round" stroke-miterlimit="10" x1="14" y1="20.9" x2="33.4" y2="20.9"/>
		
			<line fill="none" stroke="#000000" stroke-width="2" stroke-linecap="round" stroke-linejoin="round" stroke-miterlimit="10" x1="28.8" y1="16.1" x2="33.7" y2="20.9"/>
		
			<line fill="none" stroke="#000000" stroke-width="2" stroke-linecap="round" stroke-linejoin="round" stroke-miterlimit="10" x1="28.8" y1="25.7" x2="33.7" y2="20.9"/>
	</g>
</g>
</svg>
