<?xml version="1.0" encoding="utf-8"?>
<!-- Generator: Adobe Illustrator 19.1.0, SVG Export Plug-In . SVG Version: 6.00 Build 0)  -->
<svg version="1.1" id="emoji" xmlns="http://www.w3.org/2000/svg" xmlns:xlink="http://www.w3.org/1999/xlink" x="0px" y="0px"
	 viewBox="0 0 72 72" enable-background="new 0 0 72 72" xml:space="preserve">
<g id="_xDB80__xDC2E__1_">
	<path fill="none" stroke="#000000" stroke-width="2" stroke-linecap="round" stroke-linejoin="round" stroke-miterlimit="10" d="
		M50.2,13.3c3.4,2.5,5.8,6.2,6.4,10.8l0,0c0.3,1.9,0.3,3.8,0.2,5.6c-0.3,4.4-1.8,8.7-4.2,12c-2.4,3.3-5.8,5.7-10,6.2
		c-1,0.1-2.1,0.2-3.2,0.1h0c-2.5-0.2-3.9-1.2-5.6-2.3c-0.3-0.2-0.6-0.4-1-0.7c-0.6,3.3-1.4,6.6-2.5,9.4c-1.2,3.2-3,5.9-5.5,7.7
		l-0.8,0.6L24,61.8c-1.1-8.1,0.6-14.6,2.3-21c0.6-2.2,1.2-4.4,1.6-6.5c-1-1.8-1.3-4.2-0.9-6.5c0.2-1.6,0.8-3.1,1.6-4.4
		c0.8-1.3,2-2.2,3.3-2.6c1-0.3,2.2-0.3,3.5,0.2v0c4.2,1.7,2.7,6.2,1.3,10.8c-0.5,1.4-0.9,2.9-1.2,4.2c-0.5,2.7-0.2,4.9,2.8,5.5v0
		c1.7,0.3,3.2,0,4.5-0.8c1.8-1.1,3.2-3.1,4.2-5.4c1-2.4,1.5-5.2,1.6-7.9c0-3.6-0.9-6.9-2.8-8.9c-2.2-2.2-4.9-3.3-7.6-3.5
		c-2.7-0.2-5.4,0.4-7.9,1.7c-2.4,1.3-4.6,3.1-6,5.5c-1.6,2.5-2.3,5.6-1.8,8.9c0.2,1,0.6,1.8,1.1,2.6c1,1.7,2,3.2,0.2,6.4l-0.2,0.4
		l-0.4-0.1c-2.8-0.6-4.8-2-6-3.9c-1.2-1.9-1.7-4.3-1.8-7.1v0c0.1-5.3,2-10,5.2-13.5c3.2-3.5,7.7-5.9,13-6.4c0.5-0.1,1-0.1,1.6-0.1
		c0.5,0,1,0,1.6,0C41.7,9.2,46.5,10.6,50.2,13.3L50.2,13.3z"/>
</g>
</svg>
