<?xml version="1.0" encoding="utf-8"?>
<!-- Generator: Adobe Illustrator 19.1.0, SVG Export Plug-In . SVG Version: 6.00 Build 0)  -->
<svg version="1.1" id="emoji" xmlns="http://www.w3.org/2000/svg" xmlns:xlink="http://www.w3.org/1999/xlink" x="0px" y="0px"
	 viewBox="0 0 72 72" enable-background="new 0 0 72 72" xml:space="preserve">
<g id="_xDB80__xDC39_">
	<g>
		<path fill="none" stroke="#000000" stroke-width="2" stroke-linecap="round" stroke-linejoin="round" d="M8.1,51.4"/>
		
			<line fill="none" stroke="#000000" stroke-width="2" stroke-linecap="round" stroke-linejoin="round" x1="47.6" y1="51" x2="27" y2="51.4"/>
		<path fill="none" stroke="#000000" stroke-width="2" stroke-linecap="round" stroke-linejoin="round" d="M8.1,51.4
			c-0.9-0.2-1.7-0.5-1.8-1c-0.1-1-0.3-3.8-0.3-5.1c0-0.5,0.1-1.1,0.4-1.5c1.1-2,4.8-6.8,14.9-6.4l10.3-6.9c0.5-0.3,1.1-0.5,1.6-0.5
			l19.6-0.1c0.3,0,0.6,0,0.9,0.1c2.2,0.6,11.7,4,10.4,12.6l1.1,0.6c0.5,0.2,0.9,0.7,1,1.2c0.4,1.4,0.3,2.9-0.2,4.3"/>
		<polyline fill="none" stroke="#000000" stroke-width="2" stroke-linecap="round" stroke-linejoin="round" points="24.9,39.9 
			55.1,39.7 55.1,35.2 		"/>
		
			<circle fill="none" stroke="#000000" stroke-width="2" stroke-linecap="round" stroke-linejoin="round" cx="17.3" cy="50.4" r="5"/>
		
			<circle fill="none" stroke="#000000" stroke-width="2" stroke-linecap="round" stroke-linejoin="round" cx="57.1" cy="50.4" r="5"/>
		<polyline fill="none" stroke="#000000" stroke-width="2" stroke-linecap="round" stroke-linejoin="round" points="12.3,42.9 
			10.5,45.1 6.8,45 		"/>
	</g>
	<path fill="none" stroke="#000000" stroke-width="2" stroke-linecap="round" stroke-linejoin="round" d="M17.3,27.9
		c1.7-4.7,5.6-8.5,10.8-9.8c4.7-1.2,9.4-0.1,13,2.6"/>
	<path fill="none" stroke="#000000" stroke-width="2" stroke-linecap="round" stroke-linejoin="round" d="M13.2,26.9
		c2-6,6.9-10.9,13.4-12.6c5.9-1.5,11.9,0,16.4,3.5"/>
	<path fill="none" stroke="#000000" stroke-width="2" stroke-linecap="round" stroke-linejoin="round" d="M21.2,28.7
		c1.3-3.3,4.2-5.9,7.8-6.8c3.5-0.9,7-0.1,9.6,1.9"/>
</g>
</svg>
