<?xml version="1.0" encoding="utf-8"?>
<!-- Generator: Adobe Illustrator 19.1.0, SVG Export Plug-In . SVG Version: 6.00 Build 0)  -->
<svg version="1.1" id="Ebene_3" xmlns="http://www.w3.org/2000/svg" xmlns:xlink="http://www.w3.org/1999/xlink" x="0px" y="0px"
	 viewBox="0 0 72 72" enable-background="new 0 0 72 72" xml:space="preserve">
<g id="_xDB80__xDC35__1_">
	<path fill="#000100" d="M26.8,46.5c-0.3,0-0.6-0.2-0.8-0.4c-3.5-5.3-1.7-9.5,0-13.2c0.3-0.7,0.6-1.4,0.9-2.1c0.7-1.9,0.7-3.3,0.6-5
		c-0.1-1.7-0.1-3.7,0.6-6.5c1.5-5.5,7.3-9.3,14.1-9.3c4.6,0,7.3,2.1,8.1,2.9c1.6,0.2,7.3,1.6,7.6,8.6c0.3,5.4,0.7,6.4,2.1,9.4
		c0.3,0.7,0.7,1.6,1.1,2.6c2.3,5.5,0,10.7-2,12.7c-0.4,0.4-1,0.4-1.4,0c-0.4-0.4-0.4-1,0-1.4c1.8-1.8,3.4-6.2,1.6-10.6
		c-0.4-1-0.8-1.8-1.1-2.5c-1.4-3.1-1.9-4.3-2.3-10.1c-0.3-6.4-6-6.8-6.2-6.8c-0.3,0-0.5-0.1-0.7-0.3c-0.1-0.1-2.3-2.6-7-2.6
		c-6,0-11,3.3-12.3,7.9c-0.7,2.5-0.6,4.3-0.5,5.9c0.1,1.8,0.1,3.5-0.7,5.7c-0.3,0.7-0.6,1.5-0.9,2.2c-1.6,3.7-3.1,6.9-0.1,11.3
		c0.3,0.4,0.2,1-0.3,1.3C27.1,46.4,27,46.5,26.8,46.5z"/>
	<path fill="#000100" d="M35.4,46c5.3,4.2,10.4,4.1,15.7-0.3c0.2-0.1,0.4-0.2,0.6-0.2h0c5.6,0,10.6,4.5,10.6,9.6V56c0,0.5-0.4,1-1,1
		c-0.5,0-1-0.4-1-1v-0.9c0-4.3-4.3-7.5-8.3-7.7c-6,4.8-12,4.8-18,0c0,0-0.5-0.6,0-1.2C34.6,45.6,35.4,46,35.4,46z"/>
	<path fill="#000100" d="M48.9,29.2c0,1.1-0.9,1.9-1.9,1.9S45,30.2,45,29.2c0-1.1,0.9-1.9,1.9-1.9S48.9,28.1,48.9,29.2"/>
	<path fill="#000100" d="M41.2,29.2c0,1.1-0.9,1.9-1.9,1.9c-1.1,0-1.9-0.9-1.9-1.9c0-1.1,0.9-1.9,1.9-1.9
		C40.3,27.3,41.2,28.1,41.2,29.2"/>
	<path fill="#000100" d="M43.1,44.6c-6.5,0-11.5-6.3-11.5-14.4v-1c0-1.5,2.2-2.8,7.1-5.6c3.2-1.8,6.8-3.9,8.5-5.6
		c0.4-0.4,1-0.4,1.4,0c3.9,3.9,6.1,7,6.1,12.2C54.7,38.2,49.6,44.6,43.1,44.6z M33.5,29.3v0.9c0,7,4.2,12.5,9.6,12.5
		s9.6-5.5,9.6-12.5c0-4.3-1.6-6.9-4.8-10.2c-2.1,1.8-5.3,3.6-8.2,5.3C37.2,26.6,33.9,28.5,33.5,29.3z M33.5,29.3L33.5,29.3
		L33.5,29.3z"/>
	<path fill="#000100" d="M43.1,38.8c-1.1,0-2.2-0.3-3.3-0.8c-0.5-0.2-0.7-0.8-0.4-1.3c0.2-0.5,0.8-0.7,1.3-0.4
		c1.7,0.8,3.3,0.8,4.9,0c0.5-0.2,1.1,0,1.3,0.4c0.2,0.5,0,1.1-0.4,1.3C45.3,38.5,44.2,38.8,43.1,38.8z"/>
	
		<polygon fill="none" stroke="#000000" stroke-width="2" stroke-linecap="round" stroke-linejoin="round" stroke-miterlimit="10" points="
		32,50.1 21.9,50.1 21.9,40 18.1,40 18.1,50.1 8,50.1 8,53.9 18.1,53.9 18.1,64 21.9,64 21.9,53.9 32,53.9 	"/>
</g>
</svg>
