<?xml version="1.0" encoding="utf-8"?>
<!-- Generator: Adobe Illustrator 21.1.0, SVG Export Plug-In . SVG Version: 6.00 Build 0)  -->
<svg version="1.1" id="emoji_1_" xmlns="http://www.w3.org/2000/svg" xmlns:xlink="http://www.w3.org/1999/xlink" x="0px" y="0px"
	 viewBox="0 0 72 72" enable-background="new 0 0 72 72" xml:space="preserve">
<g id="_xDB80__xDC4E__4_">
	<path fill="none" stroke="#1D1D1B" stroke-width="2" stroke-linecap="round" stroke-linejoin="round" stroke-miterlimit="10" d="
		M55.8,11.3c-4.3,19.9-17.4,13.1-19.2,9.6C34.8,17.4,36.6,3.4,55.8,11.3z"/>
	<path fill="none" stroke="#000000" stroke-width="2" stroke-linecap="round" stroke-linejoin="round" stroke-miterlimit="10" d="
		M45.6,15.3c-3.1,1.2-7.1,3.1-8.9,5.7"/>
	<path fill="none" stroke="#1D1D1B" stroke-width="2" stroke-linecap="round" stroke-linejoin="round" stroke-miterlimit="10" d="
		M16.3,11.3c4.3,19.9,17.4,13.1,19.2,9.6C37.3,17.4,35.6,3.4,16.3,11.3z"/>
	<path fill="none" stroke="#000000" stroke-width="2" stroke-linecap="round" stroke-linejoin="round" stroke-miterlimit="10" d="
		M26.6,15.3c3.1,1.2,7.1,3.1,8.9,5.7"/>
	<path fill="none" stroke="#000000" stroke-width="2" stroke-linecap="round" stroke-linejoin="round" stroke-miterlimit="10" d="
		M20,25.5c0,0-2.6,1.5-3.2,4.1s0,5.3,0,5.3s-4,1.7-4,6.9s3.4,6.7,3.4,6.7s0,6.2,3.9,9.5c3.8,3.3,7.8,3.4,7.8,3.4s2.1,4.4,8.2,4.4
		s8.2-4.4,8.2-4.4s4.1-0.6,7.8-3.4c3.7-2.8,3.6-9.5,3.6-9.5s3.7-1.5,3.7-6.7s-4-6.9-4-6.9s0.6-2.8,0-5.3s-3.2-4.1-3.2-4.1"/>
	<g>
		<path fill="none" stroke="#000000" stroke-width="2" stroke-linecap="round" stroke-linejoin="round" stroke-miterlimit="10" d="
			M42.2,29.5c0,0-2.6,2.8-5.8,2.8"/>
		<path fill="none" stroke="#000000" stroke-width="2" stroke-linecap="round" stroke-linejoin="round" stroke-miterlimit="10" d="
			M30.3,29.5c0,0,2.6,2.8,5.8,2.8"/>
	</g>
	<g>
		<path fill="none" stroke="#000000" stroke-width="2" stroke-linecap="round" stroke-linejoin="round" stroke-miterlimit="10" d="
			M16.7,35.1"/>
	</g>
	<g>
		<path fill="none" stroke="#000000" stroke-width="2" stroke-linecap="round" stroke-linejoin="round" stroke-miterlimit="10" d="
			M50.1,39.5c0,2.9-2.5,5.2-5.5,5.2"/>
		<path fill="none" stroke="#000000" stroke-width="2" stroke-linecap="round" stroke-linejoin="round" stroke-miterlimit="10" d="
			M38.8,39.5c0,2.9,2.5,5.2,5.5,5.2"/>
	</g>
	<g>
		<path fill="none" stroke="#000000" stroke-width="2" stroke-linecap="round" stroke-linejoin="round" stroke-miterlimit="10" d="
			M33.9,39.5c0,2.9-2.5,5.2-5.5,5.2"/>
		<path fill="none" stroke="#000000" stroke-width="2" stroke-linecap="round" stroke-linejoin="round" stroke-miterlimit="10" d="
			M22.6,39.5c0,2.9,2.5,5.2,5.5,5.2"/>
	</g>
	<g>
		<path fill="none" stroke="#000000" stroke-width="2" stroke-linecap="round" stroke-linejoin="round" stroke-miterlimit="10" d="
			M41.9,53.9c-1,1.4-3.2,2.3-5.6,2.3"/>
		<path fill="none" stroke="#000000" stroke-width="2" stroke-linecap="round" stroke-linejoin="round" stroke-miterlimit="10" d="
			M30.3,53.7c1,1.5,3.2,2.5,5.7,2.5"/>
	</g>
	<g>
		<path fill="none" stroke="#000000" stroke-width="2" stroke-linecap="round" stroke-linejoin="round" stroke-miterlimit="10" d="
			M30.3,54c0,1.2-0.8,2.4-2,3.1"/>
	</g>
	<g>
		<path fill="none" stroke="#000000" stroke-width="2" stroke-linecap="round" stroke-linejoin="round" stroke-miterlimit="10" d="
			M42,54c0,1.4,0.9,2.6,2.3,3.3"/>
	</g>
	<g>
		<path fill="none" stroke="#000000" stroke-width="2" stroke-linecap="round" stroke-linejoin="round" stroke-miterlimit="10" d="
			M23.4,42.7c0,2.4-1.7,4.4-3.9,5"/>
	</g>
	<g>
		<path fill="none" stroke="#000000" stroke-width="2" stroke-linecap="round" stroke-linejoin="round" stroke-miterlimit="10" d="
			M25,29.4c0,3.1-2.5,5.6-5.5,5.6"/>
	</g>
	<g>
		<path fill="none" stroke="#000000" stroke-width="2" stroke-linecap="round" stroke-linejoin="round" stroke-miterlimit="10" d="
			M52.1,35"/>
		<path fill="none" stroke="#000000" stroke-width="2" stroke-linecap="round" stroke-linejoin="round" stroke-miterlimit="10" d="
			M57.7,29.4"/>
		<path fill="none" stroke="#000000" stroke-width="2" stroke-linecap="round" stroke-linejoin="round" stroke-miterlimit="10" d="
			M46.4,29.4c0,3.1,2.5,5.6,5.5,5.6"/>
	</g>
	<g>
		<path fill="none" stroke="#000000" stroke-width="2" stroke-linecap="round" stroke-linejoin="round" stroke-miterlimit="10" d="
			M49.3,42.7c0,2.3,1.5,4.2,3.6,4.9"/>
	</g>
</g>
</svg>
