<?xml version="1.0" encoding="utf-8"?>
<!-- Generator: Adobe Illustrator 21.1.0, SVG Export Plug-In . SVG Version: 6.00 Build 0)  -->
<svg version="1.1" id="emoji" xmlns="http://www.w3.org/2000/svg" xmlns:xlink="http://www.w3.org/1999/xlink" x="0px" y="0px"
	 viewBox="0 0 72 72" enable-background="new 0 0 72 72" xml:space="preserve">
<g id="_xDB80__xDC40__1_">
	<circle fill="none" stroke="#000000" stroke-width="2" stroke-miterlimit="10" cx="21" cy="17" r="3"/>
	<path fill="none" stroke="#000000" stroke-width="2" stroke-linecap="round" stroke-linejoin="round" stroke-miterlimit="10" d="
		M15,30c0,0,1-4.3,3-5.3s4-1,6,0s3,5.3,3,5.3"/>
	<circle fill="none" stroke="#000000" stroke-width="2" stroke-miterlimit="10" cx="56" cy="26.3" r="3"/>
	<path fill="none" stroke="#000000" stroke-width="2" stroke-linecap="round" stroke-linejoin="round" stroke-miterlimit="10" d="
		M50,39.3c0,0,1-4.3,3-5.3s4-1,6,0s3,5.3,3,5.3"/>
	<circle fill="none" stroke="#000000" stroke-width="2" stroke-miterlimit="10" cx="30" cy="47" r="3"/>
	<path fill="none" stroke="#000000" stroke-width="2" stroke-linecap="round" stroke-linejoin="round" stroke-miterlimit="10" d="
		M24,60c0,0,1-4.3,3-5.3s4-1,6,0s3,5.3,3,5.3"/>
	<path fill="none" stroke="#000000" stroke-width="2" stroke-linecap="round" stroke-linejoin="round" stroke-miterlimit="10" d="
		M52.6,20.1C48.3,15.2,42,12,35,12c-2.8,0-5.4,0.5-7.9,1.4"/>
	<path fill="none" stroke="#000000" stroke-width="2" stroke-linecap="round" stroke-linejoin="round" stroke-miterlimit="10" d="
		M39.4,57.6C47.6,56,54.3,50,56.9,42.2"/>
	<path fill="none" stroke="#000000" stroke-width="2" stroke-linecap="round" stroke-linejoin="round" stroke-miterlimit="10" d="
		M12.1,33C12,33.7,12,34.3,12,35c0,8,4.1,15,10.2,19.1"/>
</g>
</svg>
