<svg id="emoji" xmlns="http://www.w3.org/2000/svg" viewBox="0 0 72 72">
  <g id="line">
    <path fill="none" stroke="#000000" stroke-width="2" stroke-linecap="round" stroke-linejoin="round" stroke-miterlimit="10" d="
		M22.4239,29.0885c0,0-0.6771-0.4107-1.2037-5h7c0,0-0.3044,3.881-1.4329,5"></path>
    <rect x="16" y="29.1033" fill="none" stroke="#000000" stroke-width="2" stroke-linecap="round" stroke-linejoin="round" stroke-miterlimit="10" width="40" height="3.8349"></rect>
    <rect x="46" y="34" transform="matrix(6.123234e-17 -1 1 6.123234e-17 30 102)" fill="none" stroke="#000000" stroke-width="2" stroke-linecap="round" stroke-linejoin="round" stroke-miterlimit="10" width="40" height="4"></rect>
    <rect x="24.5" y="42.5" transform="matrix(6.123234e-17 -1 1 6.123234e-17 -8.5 80.5)" fill="none" stroke="#000000" stroke-width="2" stroke-linecap="round" stroke-linejoin="round" stroke-miterlimit="10" width="23" height="4"></rect>
    <rect x="36.75" y="44.7292" transform="matrix(6.123234e-17 -1 1 6.123234e-17 -0.7292 92.7292)" fill="none" stroke="#000000" stroke-width="2" stroke-linecap="round" stroke-linejoin="round" stroke-miterlimit="10" width="18.5" height="4"></rect>
    <rect x="44" y="37.0729" transform="matrix(-1 -1.224647e-16 1.224647e-16 -1 108 78.1459)" fill="none" stroke="#000000" stroke-width="2" stroke-linecap="round" stroke-linejoin="round" stroke-miterlimit="10" width="20" height="4"></rect>
    <path fill="none" stroke="#000000" stroke-width="2" stroke-linecap="round" stroke-linejoin="round" stroke-miterlimit="10" d="
		M22.9658,19.4167c0,0,0.5833-2.0208,0-4.0417"></path>
    <path fill="none" stroke="#000000" stroke-width="2" stroke-linecap="round" stroke-linejoin="round" stroke-miterlimit="10" d="
		M25.787,19.4167c0,0,0.5833-1.7507,0-3.5014"></path>
    <rect x="-14" y="34" transform="matrix(4.488327e-11 -1 1 4.488327e-11 -30 42)" fill="none" stroke="#000000" stroke-width="2" stroke-linecap="round" stroke-linejoin="round" stroke-miterlimit="10" width="40" height="4"></rect>
    <rect x="16.75" y="44.7292" transform="matrix(4.493390e-11 -1 1 4.493390e-11 -20.7292 72.7292)" fill="none" stroke="#000000" stroke-width="2" stroke-linecap="round" stroke-linejoin="round" stroke-miterlimit="10" width="18.5" height="4"></rect>
    <rect x="8" y="37.0729" fill="none" stroke="#000000" stroke-width="2" stroke-linecap="round" stroke-linejoin="round" stroke-miterlimit="10" width="20" height="4"></rect>
  </g>
</svg>