<?xml version="1.0" encoding="utf-8"?>
<!-- Generator: Adobe Illustrator 19.1.0, SVG Export Plug-In . SVG Version: 6.00 Build 0)  -->
<svg version="1.1" id="emoji" xmlns="http://www.w3.org/2000/svg" xmlns:xlink="http://www.w3.org/1999/xlink" x="0px" y="0px"
	 viewBox="0 0 72 72" enable-background="new 0 0 72 72" xml:space="preserve">
<g id="_xDB80__xDC57_">
	<g>
		<path fill="none" stroke="#000000" stroke-width="2" stroke-linecap="round" stroke-linejoin="round" stroke-miterlimit="10" d="
			M57.7,39.9c6,5,6.8,13.9,1.7,19.9s-13.9,6.8-19.9,1.7"/>
		
			<line fill="none" stroke="#000000" stroke-width="2" stroke-linecap="round" stroke-linejoin="round" stroke-miterlimit="10" x1="57.2" y1="39.4" x2="49.3" y2="32.8"/>
		<path fill="none" stroke="#000000" stroke-width="2" stroke-linecap="round" stroke-linejoin="round" stroke-miterlimit="10" d="
			M45.2,37.2c-1.2-1.1-1.3-3-0.2-4.2s3-1.3,4.2-0.2"/>
		<path fill="none" stroke="#000000" stroke-width="2" stroke-linecap="round" stroke-linejoin="round" stroke-miterlimit="10" d="
			M41.2,41.7c-1.2-1.1-1.3-3-0.2-4.2c1.1-1.2,3-1.3,4.2-0.2"/>
		<path fill="none" stroke="#000000" stroke-width="2" stroke-linecap="round" stroke-linejoin="round" stroke-miterlimit="10" d="
			M41.1,41.6c-1.2-1.2-1.2-3.1,0-4.3c1.2-1.2,3.1-1.2,4.3,0"/>
		<path fill="none" stroke="#000000" stroke-width="2" stroke-linecap="round" stroke-linejoin="round" stroke-miterlimit="10" d="
			M37,46.1c-1.2-1.1-1.2-3-0.1-4.3c1.1-1.2,3-1.2,4.3-0.1"/>
		<path fill="none" stroke="#000000" stroke-width="2" stroke-linecap="round" stroke-linejoin="round" stroke-miterlimit="10" d="
			M29.1,58.5c-1.7,0.1-3.1-1.1-3.2-2.8c-0.1-1.7,1.1-3.1,2.8-3.2"/>
		<path fill="none" stroke="#000000" stroke-width="2" stroke-linecap="round" stroke-linejoin="round" stroke-miterlimit="10" d="
			M18.4,38.3c-1.3-1.1-1.4-3-0.4-4.2c1.1-1.3,3-1.4,4.2-0.4"/>
		
			<line fill="none" stroke="#000000" stroke-width="2" stroke-linecap="round" stroke-linejoin="round" stroke-miterlimit="10" x1="37" y1="46.1" x2="22.3" y2="33.7"/>
		
			<line fill="none" stroke="#000000" stroke-width="2" stroke-linecap="round" stroke-linejoin="round" stroke-miterlimit="10" x1="18.4" y1="38.3" x2="36.7" y2="53.7"/>
		
			<line fill="none" stroke="#000000" stroke-width="2" stroke-linecap="round" stroke-linejoin="round" stroke-miterlimit="10" x1="31.2" y1="52.4" x2="28.7" y2="52.5"/>
		<path fill="none" stroke="#000000" stroke-width="2" stroke-linecap="round" stroke-linejoin="round" stroke-miterlimit="10" d="
			M31.6,58.6c2.5-0.1,5.3,0.6,8.1,3.1"/>
		
			<line fill="none" stroke="#000000" stroke-width="2" stroke-linecap="round" stroke-linejoin="round" stroke-miterlimit="10" x1="29.1" y1="58.5" x2="31.7" y2="58.6"/>
	</g>
	<path fill="none" stroke="#000000" stroke-width="2" stroke-linecap="round" stroke-linejoin="round" stroke-miterlimit="10" d="
		M17,30.9c-0.2-0.5-0.5-1-0.9-1.4c-1.3-1.1-3.2-0.9-4.2,0.4c-1.1,1.3-0.9,3.2,0.4,4.2c0.6,0.5,1.4,0.8,2.2,0.7"/>
	
		<line fill="none" stroke="#000000" stroke-width="2" stroke-linecap="round" stroke-linejoin="round" stroke-miterlimit="10" x1="13.5" y1="24.6" x2="13.5" y2="7.5"/>
	<g>
		
			<line fill="none" stroke="#000000" stroke-width="2" stroke-linecap="round" stroke-linejoin="round" stroke-miterlimit="10" x1="8.3" y1="11.3" x2="13.5" y2="6.1"/>
		
			<line fill="none" stroke="#000000" stroke-width="2" stroke-linecap="round" stroke-linejoin="round" stroke-miterlimit="10" x1="18.7" y1="11.3" x2="13.5" y2="6.1"/>
	</g>
</g>
</svg>
