<?xml version="1.0" encoding="utf-8"?>
<!-- Generator: Adobe Illustrator 19.1.0, SVG Export Plug-In . SVG Version: 6.00 Build 0)  -->
<svg version="1.1" id="emoji" xmlns="http://www.w3.org/2000/svg" xmlns:xlink="http://www.w3.org/1999/xlink" x="0px" y="0px"
	 viewBox="0 0 72 72" enable-background="new 0 0 72 72" xml:space="preserve">
<g id="_xDB80__xDC54__1_">
	<path fill="none" stroke="#1D1D1B" stroke-width="2" stroke-linecap="round" stroke-linejoin="round" stroke-miterlimit="10" d="
		M46.8,52.5c-0.1,4,1.4,7.7,1.4,7.7L27.6,62c0,0,3.1-13-8-20.6s-6.9-26.7,4.6-30.5s24-1.1,27.5,3.8s0,9.2,0,9.2s-1.9,1.5,0,4.6
		s3.4,9.2,3.4,9.2h-3.2l1.8,3.5c0,0-1.5,1-1.1,2.3s3.9,5.6,1,7.1s-9.5,3.1-14,1.7"/>
	
		<path fill="#FFFFFF" stroke="#1D1D1B" stroke-width="2" stroke-linecap="round" stroke-linejoin="round" stroke-miterlimit="10" d="
		M59.2,18v15.7H44.7c0,0-8.7-7.5,0-16.2h14.5L59.2,18z"/>
	
		<path fill="#FFFFFF" stroke="#1D1D1B" stroke-width="2" stroke-linecap="round" stroke-linejoin="round" stroke-miterlimit="10" d="
		M45.7,22H14.2c0,0-2,6.1,0,8.1h31.3"/>
	
		<line fill="#AAADB4" stroke="#1D1D1B" stroke-width="2" stroke-linecap="round" stroke-linejoin="round" stroke-miterlimit="10" x1="54.5" y1="17.6" x2="54.5" y2="33.8"/>
</g>
</svg>
