<?xml version="1.0" encoding="utf-8"?>
<!-- Generator: Adobe Illustrator 19.1.0, SVG Export Plug-In . SVG Version: 6.00 Build 0)  -->
<svg version="1.1" id="emoji" xmlns="http://www.w3.org/2000/svg" xmlns:xlink="http://www.w3.org/1999/xlink" x="0px" y="0px"
	 viewBox="0 0 72 72" enable-background="new 0 0 72 72" xml:space="preserve">
<g id="_xDB80__xDC65_">
	<circle fill="none" stroke="#000000" stroke-width="2" stroke-miterlimit="10" cx="13" cy="20.1" r="3"/>
	<path fill="none" stroke="#000000" stroke-width="2" stroke-linecap="round" stroke-linejoin="round" stroke-miterlimit="10" d="
		M7,33.1c0,0,1-4.3,3-5.3s4-1,6,0s3,5.3,3,5.3"/>
	<circle fill="none" stroke="#000000" stroke-width="2" stroke-miterlimit="10" cx="59.1" cy="42" r="3"/>
	<path fill="none" stroke="#000000" stroke-width="2" stroke-linecap="round" stroke-linejoin="round" stroke-miterlimit="10" d="
		M53.1,55c0,0,1-4.3,3-5.3s4-1,6,0s3,5.3,3,5.3"/>
	<path fill="none" stroke="#000000" stroke-width="2" stroke-miterlimit="10" d="M16,54.9c-1.7,0-3-1.3-3-3v-8.9l0-3.4
		c0-0.2,0.2-0.3,0.4-0.2l3.8,3.3c0.1,0.1,0.3,0.2,0.5,0.2H41c1.7,0,3,1.3,3,3v6c0,1.7-1.3,3-3,3H16z"/>
	<path fill="none" stroke="#000000" stroke-width="2" stroke-miterlimit="10" d="M58.6,32.5c0.2,0.1,0.4,0,0.4-0.2l0-3.2h0v-9
		c0-1.7-1.4-3-3-3H31.1c-1.7,0-3,1.4-3,3v6c0,1.7,1.4,3,3,3h23.3c0.2,0,0.4,0.1,0.5,0.2L58.6,32.5z"/>
</g>
</svg>
