<?xml version="1.0" encoding="utf-8"?>
<!-- Generator: Adobe Illustrator 21.1.0, SVG Export Plug-In . SVG Version: 6.00 Build 0)  -->
<svg version="1.1" xmlns="http://www.w3.org/2000/svg" xmlns:xlink="http://www.w3.org/1999/xlink" x="0px" y="0px"
	 viewBox="0 0 72 72" enable-background="new 0 0 72 72" xml:space="preserve">
<g id="color">
</g>
<g id="emoji">
	<g id="_xDB80__xDC6F_">
		<circle fill="none" stroke="#000000" stroke-width="2" stroke-miterlimit="10" cx="55" cy="8.1" r="3"/>
		<g>
			<path fill="none" stroke="#000000" stroke-width="2" stroke-linecap="round" stroke-linejoin="round" stroke-miterlimit="10" d="
				M49,35l-3,30c-0.1,1.1,0.6,2,1.5,2c0.9,0,1.9-0.9,2.2-1.9L55.2,45c0.3-1.1,1-2.7,1.7-3.6l2.2-3.1c0.6-0.9,1.1-2.5,1.1-3.6
				l-0.5-10.1"/>
		</g>
		<g>
			<path fill="none" stroke="#000000" stroke-width="2" stroke-linecap="round" stroke-linejoin="round" stroke-miterlimit="10" d="
				M50,24"/>
		</g>
		<g>
			<path fill="none" stroke="#000000" stroke-width="2" stroke-linecap="round" stroke-linejoin="round" stroke-miterlimit="10" d="
				M59.1,38.1L61,49.7c0.2,1.1,0.8,2.7,1.3,3.7l4.8,7.9c0.6,0.9,0.4,2.2-0.5,2.7c-0.8,0.5-2,0.3-2.7-0.6l-5.3-7.1
				c-0.7-0.9-1.5-2.4-1.9-3.5l-2.2-5.7"/>
		</g>
		<g>
			<path fill="none" stroke="#000000" stroke-width="2" stroke-linecap="round" stroke-linejoin="round" stroke-miterlimit="10" d="
				M59.9,29.6L59.3,19c-0.1-2.2-2-4-4.2-4H55c-2.2,0-4.2,1.8-4.4,4l-0.5,4.2"/>
		</g>
		<g>
			<path fill="none" stroke="#000000" stroke-width="2" stroke-linecap="round" stroke-linejoin="round" stroke-miterlimit="10" d="
				M55.2,20l-3.1,6.4c-0.5,1-1.6,2.3-2.6,2.8l-7.6,4.6"/>
		</g>
		<path fill="none" stroke="#000000" stroke-width="2" stroke-linecap="round" stroke-linejoin="round" stroke-miterlimit="10" d="
			M13,57l5-5c0,0,17-6,23.9-18.1"/>
		<path fill="none" stroke="#000000" stroke-width="2" stroke-linecap="round" stroke-linejoin="round" stroke-miterlimit="10" d="
			M40,47c2,5-4,8-7,6c-0.8-0.5-3.9-1.3-7-1l-8.3,0.3l-1.7-1"/>
		<path fill="none" stroke="#000000" stroke-width="2" stroke-linecap="round" stroke-linejoin="round" stroke-miterlimit="10" d="
			M27,58c0,2,1.2,4.5,1.2,4.5s0.4,1.2-0.2,2.5c-1,2,2,3,3,1s0.8-3.7,1-4c0.4-0.8,2-1.9,2-4c0-1,0-1,0-1"/>
		<path fill="none" stroke="#000000" stroke-width="2" stroke-linecap="round" stroke-linejoin="round" stroke-miterlimit="10" d="
			M27,60c-2,2-4.6,2-8,2"/>
		<path fill="none" stroke="#000000" stroke-width="2" stroke-linecap="round" stroke-linejoin="round" stroke-miterlimit="10" d="
			M14,59c-1,0.9-2,1-3,2s-1,3,0,4"/>
		<path fill="none" stroke="#000000" stroke-width="2" stroke-linecap="round" stroke-linejoin="round" stroke-miterlimit="10" d="
			M14,48l-1,2c0,0-2.2,0.3-3,1c-0.6,0.5-1,3-1,3s-2.9,1.6-3,2c-0.1,0.3,1.3,2,2,2c1,0,4-1,4-1c2,0,2,3,3,4c0.4,0.4,0,3-0.3,4
			c-0.7,2,2.3,3,3.2,0.9C18.1,65,19,63,19,61"/>
	</g>
</g>
</svg>
