<?xml version="1.0" encoding="utf-8"?>
<!-- Generator: Adobe Illustrator 21.1.0, SVG Export Plug-In . SVG Version: 6.00 Build 0)  -->
<svg version="1.1" id="emoji" xmlns="http://www.w3.org/2000/svg" xmlns:xlink="http://www.w3.org/1999/xlink" x="0px" y="0px"
	 viewBox="0 0 72 72" enable-background="new 0 0 72 72" xml:space="preserve">
<g id="_xDB80__xDC6E_">
	<circle fill="none" stroke="#000000" stroke-width="2" stroke-miterlimit="10" cx="35.2" cy="8" r="3"/>
	<path fill="none" stroke="#000000" stroke-width="2" stroke-linecap="round" stroke-linejoin="round" stroke-miterlimit="10" d="
		M30.1,12.6c-1.6,0.4-3.2-0.7-3.6-2.3c-0.4-1.6,0.7-3.2,2.3-3.6"/>
	<g>
		<path fill="none" stroke="#000000" stroke-width="2" stroke-linecap="round" stroke-linejoin="round" stroke-miterlimit="10" d="
			M32.5,30.6l-4.2,34.2c-0.1,1.1,0.5,2,1.5,2c0.9,0,1.9-0.9,2.2-1.9l5.5-20.1c0.3-1.1,1-2.7,1.7-3.6l2.2-3.1
			c0.6-0.9,1.1-2.5,1.1-3.6l-0.5-10.1"/>
	</g>
	<g>
		<path fill="none" stroke="#000000" stroke-width="2" stroke-linecap="round" stroke-linejoin="round" stroke-miterlimit="10" d="
			M41.4,38l1.8,11.5c0.2,1.1,0.5,2.9,0.8,3.9l2.4,10c0.3,1.1-0.2,2.4-1,2.9c-0.8,0.5-1.8,0.1-2.1-0.9l-2.9-9.1
			c-0.3-1-0.9-2.7-1.3-3.8L36.9,47"/>
	</g>
	<g>
		
			<line fill="none" stroke="#000000" stroke-width="2" stroke-linecap="round" stroke-linejoin="round" stroke-miterlimit="10" x1="41.9" y1="24.4" x2="41.4" y2="19"/>
	</g>
	<g>
		<path fill="none" stroke="#000000" stroke-width="2" stroke-linecap="round" stroke-linejoin="round" stroke-miterlimit="10" d="
			M37.1,20l-4,4.8c-0.7,0.9-2.1,1.8-3.2,2.1l-10.7,3"/>
	</g>
	<g>
		<g>
			<path fill="none" stroke="#000000" stroke-width="2" stroke-linecap="round" stroke-linejoin="round" stroke-miterlimit="10" d="
				M22.3,25.6l0.9-5.4c0.4-2.2,1.9-3.8,3.3-3.5c1.5,0.2,4.5,0.1,6.6-0.2l9.1-1.5"/>
		</g>
		<g>
			
				<line fill="none" stroke="#000000" stroke-width="2" stroke-linecap="round" stroke-linejoin="round" stroke-miterlimit="10" x1="22.1" y1="39.7" x2="22.3" y2="32.8"/>
		</g>
		<g>
			<path fill="none" stroke="#000000" stroke-width="2" stroke-linecap="round" stroke-linejoin="round" stroke-miterlimit="10" d="
				M22.1,39.7"/>
		</g>
	</g>
	<path fill="none" stroke="#000000" stroke-width="2" stroke-linecap="round" stroke-linejoin="round" stroke-miterlimit="10" d="
		M22.1,39.7l-1.1,9.8c-0.1,1.7-0.6,3.4-1,5l-2.4,9.9c-0.3,1.1,0.5,2.2,1.7,2.3h0c0.8,0.1,1.5-0.4,1.8-1.1L26,51.9"/>
</g>
</svg>
