<?xml version="1.0" encoding="utf-8"?>
<!-- Generator: Adobe Illustrator 19.1.0, SVG Export Plug-In . SVG Version: 6.00 Build 0)  -->
<svg version="1.1" id="emoji" xmlns="http://www.w3.org/2000/svg" xmlns:xlink="http://www.w3.org/1999/xlink" x="0px" y="0px"
	 viewBox="0 0 72 72" enable-background="new 0 0 72 72" xml:space="preserve">
<g id="_xDB80__xDC74__1_">
	<path fill="none" stroke="#1D1D1B" stroke-width="2" stroke-linecap="round" stroke-linejoin="round" stroke-miterlimit="10" d="
		M24.4,25c-2.2-1.4-3.6-3.8-3.6-6.6c0-4.3,3.5-7.7,7.7-7.7c2.6,0,5,1.3,6.3,3.3"/>
	<path fill="none" stroke="#1D1D1B" stroke-width="2" stroke-linecap="round" stroke-linejoin="round" stroke-miterlimit="10" d="
		M28.4,16.6c-0.1-0.4-0.1-0.8-0.1-1.2c0-4.3,3.5-7.7,7.7-7.7s7.7,3.5,7.7,7.7c0,1.1-0.2,2.2-0.7,3.2"/>
	<path fill="none" stroke="#1D1D1B" stroke-width="2" stroke-linecap="round" stroke-linejoin="round" stroke-miterlimit="10" d="
		M36.9,14c1.4-1.6,3.5-2.7,5.8-2.7c4.3,0,7.7,3.5,7.7,7.7c0,3.1-1.8,5.7-4.3,7"/>
	<path fill="none" stroke="#1D1D1C" stroke-width="2" stroke-linecap="round" stroke-linejoin="round" d="M31.6,20.7
		c0.3-1.9-1-3.7-3-4s-3.7,1-4,3c0,0.3,0,0.6,0,0.9l-0.3,19l0,1l0.2-1.6c0.3-1.9-1-3.7-3-4c-1.9-0.3-3.7,1-4,3c0,0.3,0,1.8,0,2.1
		l-0.2,3.9L17.4,54c0.4,8.3,7.8,13.6,16.1,13.2c4.8-0.3,9.3-2.3,12.7-5.7C49.1,58.4,56.3,50,56.3,50c1.5-2.2,0.3-5.5-0.8-4.7
		l-9.9,4.7l0-5.4l0,5.4l0-5.4l0-21.9c0.3-1.9-1-3.7-3-4s-3.7,1-4,3c0,0.3,0,0.6,0,0.9l-0.1,7l-0.2,10.6L38.7,18c0.3-1.9-1-3.7-3-4
		s-3.7,1-4,3c0,0.3,0,0.6,0,0.9l-0.2,20.5"/>
</g>
</svg>
