<?xml version="1.0" encoding="utf-8"?>
<!-- Generator: Adobe Illustrator 21.1.0, SVG Export Plug-In . SVG Version: 6.00 Build 0)  -->
<svg version="1.1" id="emoji" xmlns="http://www.w3.org/2000/svg" xmlns:xlink="http://www.w3.org/1999/xlink" x="0px" y="0px"
	 viewBox="0 0 72 72" enable-background="new 0 0 72 72" xml:space="preserve">
<g id="_xDB80__xDC77_">
	<g>
		<path fill="#1D1D1B" d="M61,41.7h-2.5c-0.6,0-1-0.4-1-1s0.4-1,1-1H60v-1.5c0-0.6,0.4-1,1-1s1,0.4,1,1v2.5
			C62,41.3,61.6,41.7,61,41.7z"/>
		<path fill="#1D1D1B" d="M54.6,41.7h-3.9c-0.6,0-1-0.4-1-1s0.4-1,1-1h3.9c0.6,0,1,0.4,1,1S55.1,41.7,54.6,41.7z M46.7,41.7h-3.9
			c-0.6,0-1-0.4-1-1s0.4-1,1-1h3.9c0.6,0,1,0.4,1,1S47.2,41.7,46.7,41.7z"/>
		<path fill="#1D1D1B" d="M36.3,35.3c-0.6,0-1-0.4-1-1v-3.9c0-0.6,0.4-1,1-1s1,0.4,1,1v3.9C37.3,34.8,36.9,35.3,36.3,35.3z
			 M36.3,27.4c-0.6,0-1-0.4-1-1v-3.9c0-0.6,0.4-1,1-1s1,0.4,1,1v3.9C37.3,27,36.9,27.4,36.3,27.4z"/>
		<path fill="#1D1D1B" d="M36.3,19.5c-0.6,0-1-0.4-1-1V16c0-0.6,0.4-1,1-1h2.5c0.6,0,1,0.4,1,1s-0.4,1-1,1h-1.5v1.5
			C37.3,19.1,36.9,19.5,36.3,19.5z"/>
		<path fill="#1D1D1B" d="M54.6,17h-3.9c-0.6,0-1-0.4-1-1s0.4-1,1-1h3.9c0.6,0,1,0.4,1,1S55.1,17,54.6,17z M46.7,17h-3.9
			c-0.6,0-1-0.4-1-1s0.4-1,1-1h3.9c0.6,0,1,0.4,1,1S47.2,17,46.7,17z"/>
		<path fill="#1D1D1B" d="M61,19.5c-0.6,0-1-0.4-1-1V17h-1.5c-0.6,0-1-0.4-1-1s0.4-1,1-1H61c0.6,0,1,0.4,1,1v2.5
			C62,19.1,61.6,19.5,61,19.5z"/>
		<path fill="#1D1D1B" d="M61,35.3c-0.6,0-1-0.4-1-1v-3.9c0-0.6,0.4-1,1-1s1,0.4,1,1v3.9C62,34.8,61.6,35.3,61,35.3z M61,27.4
			c-0.6,0-1-0.4-1-1v-3.9c0-0.6,0.4-1,1-1s1,0.4,1,1v3.9C62,27,61.6,27.4,61,27.4z"/>
	</g>
	
		<rect x="16" y="36.3" fill="none" stroke="#1D1D1B" stroke-width="2" stroke-linecap="round" stroke-linejoin="round" stroke-miterlimit="10" width="24.7" height="24.7"/>
	
		<polyline fill="none" stroke="#1D1D1B" stroke-width="2" stroke-linecap="round" stroke-linejoin="round" stroke-miterlimit="10" points="
		40.7,36.4 47.7,29.4 47.7,36 	"/>
	
		<line fill="none" stroke="#1D1D1B" stroke-width="2" stroke-linecap="round" stroke-linejoin="round" stroke-miterlimit="10" x1="47.7" y1="29.4" x2="41.2" y2="29.4"/>
</g>
</svg>
