<?xml version="1.0" encoding="utf-8"?>
<!-- Generator: Adobe Illustrator 21.1.0, SVG Export Plug-In . SVG Version: 6.00 Build 0)  -->
<svg version="1.1" id="emoji" xmlns="http://www.w3.org/2000/svg" xmlns:xlink="http://www.w3.org/1999/xlink" x="0px" y="0px"
	 viewBox="0 0 72 72" enable-background="new 0 0 72 72" xml:space="preserve">
<g id="_xDB80__xDC9F__1_">
	<path fill="none" stroke="#000000" stroke-width="2" stroke-linecap="round" stroke-linejoin="round" d="M47.5,38.2
		c1.8,0.6,6.2,2.3,8.4,4.6c3,3.2,3.5,13,3.5,14.3"/>
	<path fill="none" stroke="#000000" stroke-width="2" stroke-linecap="round" stroke-linejoin="round" d="M12.1,57.1
		c0.3-1.2,3.4-13.1,5.5-15.5c1.9-2.2,10.9-5.9,10.9-5.9l1.5,0.2"/>
	
		<line fill="none" stroke="#000000" stroke-width="2" stroke-linecap="round" stroke-linejoin="round" x1="46" y1="51.7" x2="45.2" y2="57.1"/>
	
		<line fill="none" stroke="#000000" stroke-width="2" stroke-linecap="round" stroke-linejoin="round" x1="30.9" y1="57.1" x2="30.3" y2="51.6"/>
	
		<line fill="none" stroke="#000000" stroke-width="2" stroke-linecap="round" stroke-linejoin="round" x1="20.3" y1="57.1" x2="20.3" y2="47.3"/>
	
		<line fill="none" stroke="#000000" stroke-width="2" stroke-linecap="round" stroke-linejoin="round" x1="53.5" y1="57.1" x2="53.5" y2="48.2"/>
	<polyline fill="none" stroke="#000000" stroke-width="2" stroke-linecap="round" stroke-linejoin="round" points="44.1,47.3 
		47,47.9 46.8,38.8 	"/>
	<polyline fill="none" stroke="#000000" stroke-width="2" stroke-linecap="round" stroke-linejoin="round" points="31.1,47.3 
		28.7,48.2 29.7,34.9 	"/>
	<path fill="none" stroke="#000000" stroke-width="2" stroke-linecap="round" stroke-linejoin="round" d="M39.7,42.6
		c0,0,1.3,0.8,1.3,2.3c0,1.6-1.4,3.2-1.4,3.2l1.9,9"/>
	<path fill="none" stroke="#000000" stroke-width="2" stroke-linecap="round" stroke-linejoin="round" d="M34.9,57.1l1.6-9
		c0,0-1.1-1.8-1.1-3.3s1.5-2.5,1.5-2.5"/>
	<path fill="none" stroke="#000000" stroke-width="2" stroke-linecap="round" stroke-linejoin="round" stroke-miterlimit="10" d="
		M27.8,24.2"/>
	<path fill="none" stroke="#000000" stroke-width="2" stroke-linecap="round" stroke-linejoin="round" d="M50.4,20.6
		c0.4,3.6,0.7,8.4,0.1,8.8c-0.4,0.2-0.8,0.5-1.1,0.8"/>
	<path fill="none" stroke="#000000" stroke-width="2" stroke-linecap="round" stroke-linejoin="round" d="M46.9,21
		c0.9,1.9,1.4,4,1.5,6.1c0.1,2.1,0.1,4.3-0.1,6.4c-0.2,2.9-1.6,5.7-3.9,7.5c-1.8,1.2-3.9,1.7-6.1,1.6c-4.1,0-8.2-4.6-9.5-10.5
		c-0.2-1-1.3-0.8-2.1-2.1c-0.7-1.4-1-3-0.9-4.5"/>
	<circle cx="43.2" cy="26.4" r="2"/>
	<circle cx="35.1" cy="26.4" r="2"/>
	<path fill="none" stroke="#000000" stroke-width="2" stroke-linecap="round" stroke-linejoin="round" stroke-miterlimit="10" d="
		M50,15.6c-3-1.3-6.5-3.8-10.6-4.8c-2.8-0.7-6-0.8-9,1.3c-2.5,1.8-5.2,8.1-4.6,13.5c0,0,0.9-2.8,2.9-0.3l0.6,2.7
		c-0.2-1-0.2-2.1-0.2-3.1c0.1-0.8,0.4-0.9,1.2-2.5c1.1-2.4,1-3.6,0.3-4.3c0.2,0.1,0.4,0.1,0.5,0.1c3,1,3.7,1.4,4.5,1.7
		c3.1,1,11.1,1.7,14.6,0.3c2.6-1.1,4-4.9,4-4.9C52.9,16,51.4,16.1,50,15.6z"/>
	<path fill="none" stroke="#000000" stroke-width="2" stroke-linecap="round" stroke-linejoin="round" d="M39.7,33.1L39.7,33.1
		c0.8,0.2,1.4,1,1.2,1.9l-0.3,1.2c-0.2,0.8-1,1.4-1.9,1.2h0c-0.8-0.2-1.4-1-1.2-1.9l0.3-1.2C38,33.5,38.9,33,39.7,33.1z"/>
	<path fill="none" stroke="#000000" stroke-width="2" stroke-linecap="round" stroke-linejoin="round" d="M25.8,25.5
		c0,0,0.9-2.8,2.9-0.3l0.6,2.7c-0.2-1-0.2-2.1-0.2-3.1c0.1-0.8,0.4-0.9,1.2-2.5c1.1-2.4,1-3.6,0.3-4.3c0.2,0.1,0.4,0.1,0.5,0.1
		c2.3,1,3.7,1.4,4.5,1.7c3.1,1,11.1,1.7,14.6,0.3c2.6-1.1,4-4.9,4-4.9c-1.3,0.7-2.8,0.8-4.2,0.3c-3-1.3-6.5-3.8-10.6-4.8
		c-2.8-0.7-6-0.8-9,1.3C28,13.7,25.2,20.1,25.8,25.5"/>
</g>
</svg>
