<?xml version="1.0" encoding="utf-8"?>
<!-- Generator: Adobe Illustrator 22.1.0, SVG Export Plug-In . SVG Version: 6.00 Build 0)  -->
<svg version="1.1" id="emoji" xmlns="http://www.w3.org/2000/svg" xmlns:xlink="http://www.w3.org/1999/xlink" x="0px" y="0px"
	 viewBox="0 0 72 72" enable-background="new 0 0 72 72" xml:space="preserve">
<g id="skid_row_1_">
	
		<path id="pfad_1_" fill="none" stroke="#000000" stroke-width="2" stroke-linecap="round" stroke-linejoin="round" stroke-miterlimit="10" d="
		M15,33.9c0,0,17.7,0,18.8,17S51.4,68,57,68"/>
	
		<line id="pfeil_3_" fill="none" stroke="#000000" stroke-width="2" stroke-linecap="round" stroke-linejoin="round" stroke-miterlimit="10" x1="31.5" y1="20.2" x2="44.8" y2="33"/>
	
		<line id="pfeil_2_" fill="none" stroke="#000000" stroke-width="2" stroke-linecap="round" stroke-linejoin="round" stroke-miterlimit="10" x1="44.3" y1="24.5" x2="44.8" y2="33"/>
	
		<line id="pfeil_1_" fill="none" stroke="#000000" stroke-width="2" stroke-linecap="round" stroke-linejoin="round" stroke-miterlimit="10" x1="37.1" y1="33.6" x2="44.8" y2="33"/>
	<polyline id="krone1_1_" fill="none" stroke="#000000" stroke-width="2" stroke-linecap="round" stroke-linejoin="round" points="
		17.3,25.6 23.2,26.1 19.3,18.1 21.6,18.5 18,11.9 20.1,12.1 15,4 10.1,12.3 12,11.9 8.3,18.5 10.8,18.1 6.9,26.1 12.6,25.6 	"/>
	
		<line id="stumpf1_1_" fill="none" stroke="#000000" stroke-width="2" stroke-linecap="round" stroke-miterlimit="10" x1="15" y1="26.7" x2="15" y2="31.1"/>
	<polyline id="krone2_1_" fill="none" stroke="#000000" stroke-width="2" stroke-linecap="round" stroke-linejoin="round" points="
		59.3,59.7 65.1,60.2 61.2,52.3 63.5,52.7 60,46.1 62.1,46.2 57,38.1 52.1,46.4 54,46.1 50.3,52.7 52.7,52.3 48.8,60.2 54.6,59.8 	
		"/>
	
		<line id="stumpf2_1_" fill="none" stroke="#000000" stroke-width="2" stroke-linecap="round" stroke-miterlimit="10" x1="57" y1="60.9" x2="57" y2="65.2"/>
</g>
</svg>
