<svg id="emoji" xmlns="http://www.w3.org/2000/svg" viewBox="0 0 72 72">
  <g id="grid">
    <path fill="#B3B3B3" d="M68,4v64H4V4H68 M72,0H0v72h72V0z"/>
    <path fill="none" stroke="#00A5FF" stroke-width="0.1" stroke-miterlimit="10" d="M12.923,10.9583h46.1539 c1.0621,0,1.9231,0.861,1.9231,1.9231v0v46.1538c0,1.0621-0.861,1.9231-1.9231,1.9231H12.9231 c-1.0621,0-1.9231-0.861-1.9231-1.9231l0,0V12.8813C11,11.8193,11.861,10.9583,12.923,10.9583L12.923,10.9583z"/>
    <path fill="none" stroke="#00A5FF" stroke-width="0.1" stroke-miterlimit="10" d="M18.2537,4h35.4926C54.991,4,56,5.009,56,6.2537 v59.4926C56,66.991,54.991,68,53.7463,68H18.2537C17.009,68,16,66.991,16,65.7463V6.2537C16,5.009,17.009,4,18.2537,4z"/>
    <path fill="none" stroke="#00A5FF" stroke-width="0.1" stroke-miterlimit="10" d="M68,18.2537v35.4926 C68,54.991,66.991,56,65.7463,56H6.2537C5.009,56,4,54.991,4,53.7463V18.2537C4,17.009,5.009,16,6.2537,16h59.4926 C66.991,16,68,17.009,68,18.2537z"/>
    <circle fill="none" stroke="#00A5FF" stroke-width="0.1" stroke-miterlimit="10" cx="36" cy="36" r="29"/>
  </g>
  <g id="color">
    <polygon id="SVGID_1_" fill="#FCEA2B" points="35.25,13.0508 26.6202,14.7305 21.3204,17.751 16.4297,22.8301 13,30.1807 13,42.5205 18.5996,51.9209 26.6202,57.3711 35.25,59.0508 42.4297,57.9004 50.1397,53.5704 55.25,47.4112 58.25,38.2012 57.5,30.2207 53.6905,22.3106 49.4805,17.9903 42.2305,14.1309"/>
  </g>
  <g id="hair"/>
  <g id="skin"/>
  <g id="skin-shadow"/>
  <g id="line">
    <path fill="none" stroke="#000000" stroke-width="2" stroke-linecap="round" stroke-linejoin="round" stroke-miterlimit="10" d="M35.8361,42.1418c0,0,10.5248,3.1956,0,5.5637c0,0,10.4577,2.9883,0,4.9125"/>
    <path fill="none" stroke="#000000" stroke-width="2" stroke-linecap="round" stroke-linejoin="round" stroke-miterlimit="10" d="M20.5293,27.251c0.7207-1.3857,1.9278-2.4541,3.3907-3c1.4052-0.7002,3.0205-0.8486,4.5302-0.4209"/>
    <path fill="none" stroke="#000000" stroke-width="2" stroke-linecap="round" stroke-linejoin="round" stroke-miterlimit="10" d="M50.1397,27.251c-1.582-2.7724-4.8037-4.1699-7.9092-3.4306"/>
    <path fill="none" stroke="#000000" stroke-width="2" stroke-linecap="round" stroke-linejoin="round" stroke-miterlimit="10" d="M22.9051,34.2946c0,0,3.9322-2.1695,8,0"/>
    <path fill="none" stroke="#000000" stroke-width="2" stroke-linecap="round" stroke-linejoin="round" stroke-miterlimit="10" d="M40.1551,34.2946c0,0,3.9322-2.1695,8,0"/>
    <ellipse fill="none" stroke="#000000" stroke-width="2" stroke-linecap="round" stroke-linejoin="round" stroke-miterlimit="10" cx="35.4208" cy="36.0494" rx="23.0001" ry="23.0001"/>
  </g>
</svg>
