<svg id="emoji" viewBox="0 0 72 72" xmlns="http://www.w3.org/2000/svg">
  <g id="grid">
    <path fill="#b3b3b3" d="M68,4V68H4V4H68m4-4H0V72H72V0Z"/>
    <path fill="none" stroke="#00a5ff" stroke-miterlimit="10" stroke-width="0.1" d="M12.923,10.9583H59.0769A1.9231,1.9231,0,0,1,61,12.8814V59.0352a1.9231,1.9231,0,0,1-1.9231,1.9231H12.9231A1.9231,1.9231,0,0,1,11,59.0352V12.8813A1.923,1.923,0,0,1,12.923,10.9583Z"/>
    <rect x="16" y="4" rx="2.2537" width="40" height="64" fill="none" stroke="#00a5ff" stroke-miterlimit="10" stroke-width="0.1"/>
    <rect x="16" y="4" rx="2.2537" width="40" height="64" transform="translate(72) rotate(90)" fill="none" stroke="#00a5ff" stroke-miterlimit="10" stroke-width="0.1"/>
    <circle cx="36" cy="36" r="29" fill="none" stroke="#00a5ff" stroke-miterlimit="10" stroke-width="0.1"/>
  </g>
  <g id="color">
    <rect x="24.7567" y="43.1038" width="3.6084" height="3.0321" transform="translate(39.3306 -5.7126) rotate(45)" fill="#d22f27"/>
    <rect x="44.738" y="21.5308" width="4.6432" height="4.4189" transform="translate(30.5703 -26.3228) rotate(45)" fill="#d0cfce"/>
    <rect x="45.2534" y="18.9191" width="9.5913" height="3.6634" transform="translate(29.332 -29.3122) rotate(45)" fill="#9b9b9a"/>
    <rect x="26.0378" y="35.1707" width="9.5913" height="9.5913" transform="translate(37.2914 -10.0967) rotate(45)" fill="#d22f27"/>
  </g>
  <g id="line">
    <rect x="31.6525" y="21.6157" width="9.5913" height="25.4719" transform="translate(34.9657 -15.7113) rotate(45)" fill="none" stroke="#000" stroke-linecap="round" stroke-linejoin="round" stroke-width="2"/>
    <rect x="24.7567" y="43.1038" width="3.6084" height="3.0321" transform="translate(39.3306 -5.7126) rotate(45)" fill="none" stroke="#000" stroke-linecap="round" stroke-linejoin="round" stroke-width="2"/>
    <rect x="44.738" y="21.5308" width="4.6432" height="4.4189" transform="translate(30.5703 -26.3228) rotate(45)" fill="none" stroke="#000" stroke-linecap="round" stroke-linejoin="round" stroke-width="2"/>
    <rect x="45.2534" y="18.9191" width="9.5913" height="3.6634" transform="translate(29.332 -29.3122) rotate(45)" fill="none" stroke="#000" stroke-linecap="round" stroke-linejoin="round" stroke-width="2"/>
    <line x1="25.0814" x2="15.0973" y1="46.0994" y2="56.0835" fill="none" stroke="#000" stroke-linecap="round" stroke-linejoin="round" stroke-width="2"/>
    <line x1="38.5257" x2="40.6075" y1="34.8564" y2="36.9381" fill="none" stroke="#000" stroke-linecap="round" stroke-linejoin="round" stroke-width="2"/>
    <line x1="40.6682" x2="43.8778" y1="30.4582" y2="33.6678" fill="none" stroke="#000" stroke-linecap="round" stroke-linejoin="round" stroke-width="2"/>
    <rect x="26.0378" y="35.1707" width="9.5913" height="9.5913" transform="translate(37.2914 -10.0967) rotate(45)" fill="none" stroke="#000" stroke-linecap="round" stroke-linejoin="round" stroke-width="2"/>
  </g>
</svg>
