<svg id="emoji" viewBox="0 0 72 72" xmlns="http://www.w3.org/2000/svg">
  <g id="grid">
    <path fill="#b3b3b3" d="M68,4V68H4V4H68m4-4H0V72H72V0Z"/>
    <path fill="none" stroke="#00a5ff" stroke-miterlimit="10" stroke-width="0.1" d="M12.923,10.9583H59.0769A1.9231,1.9231,0,0,1,61,12.8814V59.0352a1.9231,1.9231,0,0,1-1.9231,1.9231H12.9231A1.9231,1.9231,0,0,1,11,59.0352V12.8813A1.923,1.923,0,0,1,12.923,10.9583Z"/>
    <rect x="16" y="4" rx="2.2537" width="40" height="64" fill="none" stroke="#00a5ff" stroke-miterlimit="10" stroke-width="0.1"/>
    <rect x="16" y="4" rx="2.2537" width="40" height="64" transform="translate(72) rotate(90)" fill="none" stroke="#00a5ff" stroke-miterlimit="10" stroke-width="0.1"/>
    <circle cx="36" cy="36" r="29" fill="none" stroke="#00a5ff" stroke-miterlimit="10" stroke-width="0.1"/>
  </g>
  <g id="color">
    <rect x="23.2105" y="27.93" rx="4.6438" width="25.579" height="16.7093" fill="#92d3f5"/>
    <circle cx="29.0404" cy="33.0581" r="2.0455" fill="#9b9b9a"/>
    <circle cx="36.0864" cy="33.0581" r="2.0455" fill="#d0cfce"/>
    <circle cx="43.1325" cy="33.0581" r="2.0455" fill="#d0cfce"/>
    <circle cx="29.0404" cy="39.6843" r="2.0455" fill="#d0cfce"/>
    <circle cx="36.0864" cy="39.6843" r="2.0455" fill="#d0cfce"/>
    <circle cx="43.1325" cy="39.6843" r="2.0455" fill="#d0cfce"/>
    <rect x="27.5607" y="31.1854" width="1.4796" height="3.6876" fill="#d0cfce"/>
    <rect x="36.0864" y="31.1854" width="1.4796" height="3.6876" fill="#9b9b9a"/>
    <rect x="43.1325" y="31.1854" width="1.4796" height="3.6876" fill="#9b9b9a"/>
    <rect x="43.1325" y="37.8405" width="1.4796" height="3.6876" fill="#9b9b9a"/>
    <rect x="36.0864" y="37.8405" width="1.4796" height="3.6876" fill="#9b9b9a"/>
    <rect x="29.0404" y="37.8405" width="1.4796" height="3.6876" fill="#9b9b9a"/>
  </g>
  <g id="line">
    <rect x="23.2105" y="27.93" rx="4.6438" width="25.579" height="16.7093" fill="none" stroke="#000" stroke-linecap="round" stroke-linejoin="round" stroke-width="2"/>
    <circle cx="29.0404" cy="33.0581" r="2.0455" fill="none" stroke="#000" stroke-linecap="round" stroke-linejoin="round" stroke-width="1.7"/>
    <circle cx="36.0864" cy="33.0581" r="2.0455" fill="none" stroke="#000" stroke-linecap="round" stroke-linejoin="round" stroke-width="1.7"/>
    <circle cx="43.1325" cy="33.0581" r="2.0455" fill="none" stroke="#000" stroke-linecap="round" stroke-linejoin="round" stroke-width="1.7"/>
    <circle cx="29.0404" cy="39.6843" r="2.0455" fill="none" stroke="#000" stroke-linecap="round" stroke-linejoin="round" stroke-width="1.7"/>
    <circle cx="36.0864" cy="39.6843" r="2.0455" fill="none" stroke="#000" stroke-linecap="round" stroke-linejoin="round" stroke-width="1.7"/>
    <circle cx="43.1325" cy="39.6843" r="2.0455" fill="none" stroke="#000" stroke-linecap="round" stroke-linejoin="round" stroke-width="1.7"/>
  </g>
</svg>
