<svg id="emoji" viewBox="0 0 72 72" version="1.1" xmlns="http://www.w3.org/2000/svg">
  <g id="grid">
    <path fill="#B3B3B3" d="M68,4v64H4V4H68 M72,0H0v72h72V0z"/>
    <path fill="none" stroke="#00A5FF" stroke-miterlimit="10" stroke-width="0.1" d="M12.923,10.9583h46.1539 c1.0621,0,1.9231,0.861,1.9231,1.9231v0v46.1538c0,1.0621-0.861,1.9231-1.9231,1.9231H12.9231 c-1.0621,0-1.9231-0.861-1.9231-1.9231l0,0V12.8813C11,11.8193,11.861,10.9583,12.923,10.9583L12.923,10.9583z"/>
    <path fill="none" stroke="#00A5FF" stroke-miterlimit="10" stroke-width="0.1" d="M18.2537,4h35.4926C54.991,4,56,5.009,56,6.2537 v59.4926C56,66.991,54.991,68,53.7463,68H18.2537C17.009,68,16,66.991,16,65.7463V6.2537C16,5.009,17.009,4,18.2537,4z"/>
    <path fill="none" stroke="#00A5FF" stroke-miterlimit="10" stroke-width="0.1" d="M68,18.2537v35.4926 C68,54.991,66.991,56,65.7463,56H6.2537C5.009,56,4,54.991,4,53.7463V18.2537C4,17.009,5.009,16,6.2537,16h59.4926 C66.991,16,68,17.009,68,18.2537z"/>
    <circle cx="36" cy="36" r="29" fill="none" stroke="#00A5FF" stroke-miterlimit="10" stroke-width="0.1"/>
  </g>
  <g id="color">
    <path fill="#92D3F5" d="M47.5055,25.7401h-23.011l-1.7328,2.8825c-0.5174,0.8606-0.7908,1.8458-0.7908,2.85v16.6995 c0.0001,1.8284,1.4822,3.3105,3.3106,3.3105h21.437c1.8284,0,3.3105-1.4821,3.3106-3.3105V31.4726 c0-1.0042-0.2734-1.9894-0.7908-2.85L47.5055,25.7401z"/>
    <rect x="24.5178" y="20.5174" width="22.946" height="5.0964" fill="#D0CFCE"/>
    <polygon fill="#D22F27" points="29.912,40.2762 34.643,40.2762 34.643,45.0073 37.973,45.0073 37.973,40.2762 42.704,40.2762 42.704,36.9463 37.973,36.9463 37.973,32.2153 34.643,32.2153 34.643,36.9463 29.912,36.9463"/>
  </g>
  <g id="line">
    <path fill="none" stroke="#000000" stroke-linecap="round" stroke-linejoin="round" stroke-width="2" d="M47.5055,25.7401h-23.011 l-1.7328,2.8825c-0.5174,0.8606-0.7908,1.8458-0.7908,2.85v16.6995c0.0001,1.8284,1.4822,3.3105,3.3106,3.3105h21.437 c1.8284,0,3.3105-1.4821,3.3106-3.3105V31.4726c0-1.0042-0.2734-1.9894-0.7908-2.85L47.5055,25.7401z"/>
    <rect x="24.5178" y="20.5174" width="22.946" height="5.0964" fill="none" stroke="#000000" stroke-linecap="round" stroke-linejoin="round" stroke-width="2"/>
    <line x1="28.3256" x2="28.3256" y1="20.5174" y2="25.6138" fill="none" stroke="#000000" stroke-linecap="round" stroke-linejoin="round" stroke-width="2"/>
    <line x1="32.1628" x2="32.1628" y1="20.5174" y2="25.6138" fill="none" stroke="#000000" stroke-linecap="round" stroke-linejoin="round" stroke-width="2"/>
    <line x1="36" x2="36" y1="20.5174" y2="25.6138" fill="none" stroke="#000000" stroke-linecap="round" stroke-linejoin="round" stroke-width="2"/>
    <line x1="39.8372" x2="39.8372" y1="20.5174" y2="25.6138" fill="none" stroke="#000000" stroke-linecap="round" stroke-linejoin="round" stroke-width="2"/>
    <line x1="43.6744" x2="43.6744" y1="20.5174" y2="25.6138" fill="none" stroke="#000000" stroke-linecap="round" stroke-linejoin="round" stroke-width="2"/>
    <path d="M37.9732,32.2155v4.73h4.7306v3.33h-4.7306v4.7307h-3.33v-4.7298h-4.73v-3.33h4.73v-4.73h3.33 M37.9732,30.2165h-3.33 c-1.1046,0-2,0.8954-2,2v2.73h-2.73c-1.1046,0-2,0.8954-2,2v3.33c0,1.1046,0.8954,2,2,2h2.73v2.7307c0,1.1046,0.8954,2,2,2h3.33 c1.1046,0,2-0.8954,2-2v-2.7307h2.7306c1.1046,0,2-0.8954,2-2v-3.33c0-1.1046-0.8954-2-2-2h-2.7306v-2.73 C39.9732,31.1119,39.0778,30.2165,37.9732,30.2165z"/>
  </g>
</svg>
