<svg id="emoji" viewBox="0 0 72 72" version="1.1" xmlns="http://www.w3.org/2000/svg">
  <g id="grid">
    <path fill="#B3B3B3" d="M68,4v64H4V4H68 M72,0H0v72h72V0z"/>
    <path fill="none" stroke="#00A5FF" stroke-miterlimit="10" stroke-width="0.1" d="m12.92 10.96h46.15c1.062 0 1.923 0.861 1.923 1.923v46.15c0 1.062-0.861 1.923-1.923 1.923h-46.15c-1.062 0-1.923-0.861-1.923-1.923v-46.15c0-1.062 0.861-1.923 1.923-1.923z"/>
    <path fill="none" stroke="#00A5FF" stroke-miterlimit="10" stroke-width="0.1" d="M18.2537,4h35.4926C54.991,4,56,5.009,56,6.2537 v59.4926C56,66.991,54.991,68,53.7463,68H18.2537C17.009,68,16,66.991,16,65.7463V6.2537C16,5.009,17.009,4,18.2537,4z"/>
    <path fill="none" stroke="#00A5FF" stroke-miterlimit="10" stroke-width="0.1" d="M68,18.2537v35.4926 C68,54.991,66.991,56,65.7463,56H6.2537C5.009,56,4,54.991,4,53.7463V18.2537C4,17.009,5.009,16,6.2537,16h59.4926 C66.991,16,68,17.009,68,18.2537z"/>
    <circle cx="36" cy="36" r="29" fill="none" stroke="#00A5FF" stroke-miterlimit="10" stroke-width="0.1"/>
  </g>
  <g id="color">
    <path fill="#92d3f5" stroke-width="1.553" d="m53.87 20.06h-35.74l-2.692 4.478c-0.8037 1.337-1.228 2.867-1.228 4.427v25.94c1.55e-4 2.84 2.302 5.142 5.143 5.142h33.3c2.84 0 5.142-2.302 5.143-5.142v-25.94c0-1.56-0.4247-3.09-1.228-4.427z"/>
    <rect x="18.16" y="11.95" width="35.64" height="7.917" fill="#d0cfce" stroke-width="1.553"/>
    <polygon transform="translate(-19.92 -19.92) scale(1.553)" fill="#D22F27" points="37.97 45.01 37.97 40.28 42.7 40.28 42.7 36.95 37.97 36.95 37.97 32.22 34.64 32.22 34.64 36.95 29.91 36.95 29.91 40.28 34.64 40.28 34.64 45.01"/>
    <polygon transform="translate(-19.92 -19.92) scale(1.553)" fill="none" stroke="#000" stroke-linecap="round" stroke-linejoin="round" stroke-width="0.9998" points="34.64 32.22 34.64 36.95 29.91 36.95 29.91 40.28 34.64 40.28 34.64 45.01 37.97 45.01 37.97 40.28 42.7 40.28 42.7 36.95 37.97 36.95 37.97 32.22"/>
  </g>
  <g id="line">
    <path fill="none" stroke="#000" stroke-linecap="round" stroke-linejoin="round" stroke-width="1.766" d="m53.9 20.04h-35.8l-2.696 4.485c-0.805 1.339-1.23 2.872-1.23 4.434v25.98c1.55e-4 2.845 2.306 5.151 5.151 5.151h33.35c2.845 0 5.151-2.306 5.151-5.151v-25.98c0-1.562-0.4254-3.095-1.23-4.434z"/>
    <rect x="18.14" y="11.91" width="35.7" height="7.929" fill="none" stroke="#000" stroke-linecap="round" stroke-linejoin="round" stroke-width="1.766"/>
    <line x1="24.06" x2="24.06" y1="11.91" y2="19.84" fill="none" stroke="#000" stroke-linecap="round" stroke-linejoin="round" stroke-width="1.766"/>
    <line x1="30.03" x2="30.03" y1="11.91" y2="19.84" fill="none" stroke="#000" stroke-linecap="round" stroke-linejoin="round" stroke-width="1.766"/>
    <line x1="36" x2="36" y1="11.91" y2="19.84" fill="none" stroke="#000" stroke-linecap="round" stroke-linejoin="round" stroke-width="1.766"/>
    <line x1="41.97" x2="41.97" y1="11.91" y2="19.84" fill="none" stroke="#000" stroke-linecap="round" stroke-linejoin="round" stroke-width="1.766"/>
    <line x1="47.94" x2="47.94" y1="11.91" y2="19.84" fill="none" stroke="#000" stroke-linecap="round" stroke-linejoin="round" stroke-width="1.766"/>
  </g>
</svg>
