<svg id="emoji" viewBox="0 0 72 72" version="1.1" xmlns="http://www.w3.org/2000/svg">
  <g id="grid">
    <path fill="#B3B3B3" d="M68,4v64H4V4H68 M72,0H0v72h72V0z"/>
    <path fill="none" stroke="#00A5FF" stroke-miterlimit="10" stroke-width="0.1" d="M12.923,10.9583h46.1539 c1.0621,0,1.9231,0.861,1.9231,1.9231v0v46.1538c0,1.0621-0.861,1.9231-1.9231,1.9231H12.9231 c-1.0621,0-1.9231-0.861-1.9231-1.9231l0,0V12.8813C11,11.8193,11.861,10.9583,12.923,10.9583L12.923,10.9583z"/>
    <path fill="none" stroke="#00A5FF" stroke-miterlimit="10" stroke-width="0.1" d="M18.2537,4h35.4926C54.991,4,56,5.009,56,6.2537 v59.4926C56,66.991,54.991,68,53.7463,68H18.2537C17.009,68,16,66.991,16,65.7463V6.2537C16,5.009,17.009,4,18.2537,4z"/>
    <path fill="none" stroke="#00A5FF" stroke-miterlimit="10" stroke-width="0.1" d="M68,18.2537v35.4926 C68,54.991,66.991,56,65.7463,56H6.2537C5.009,56,4,54.991,4,53.7463V18.2537C4,17.009,5.009,16,6.2537,16h59.4926 C66.991,16,68,17.009,68,18.2537z"/>
    <circle cx="36" cy="36" r="29" fill="none" stroke="#00A5FF" stroke-miterlimit="10" stroke-width="0.1"/>
  </g>
  <g id="color">
    <rect x="11" y="21.3062" width="50" height="34.3876" fill="#D0CFCE"/>
    <polygon fill="#D22F27" points="27.706,40.8719 34.446,40.8719 34.446,47.6119 39.19,47.6119 39.19,40.8719 45.93,40.8719 45.93,36.1279 39.19,36.1279 39.19,29.3879 34.446,29.3879 34.446,36.1279 27.706,36.1279"/>
  </g>
  <g id="line">
    <polygon fill="none" points="27.706,40.901 34.446,40.901 34.446,47.641 39.19,47.641 39.19,40.901 45.93,40.901 45.93,36.157 39.19,36.157 39.19,29.417 34.446,29.417 34.446,36.157 27.706,36.157"/>
    <path fill="none" d="M18.9391,18.6936h2.8591c0.5127,0,0.9284,0.4157,0.9284,0.9284v1.8314c0,0.5127-0.4157,0.9284-0.9284,0.9284 h-2.8591c-0.5127,0-0.9284-0.4157-0.9284-0.9284V19.622C18.0107,19.1093,18.4264,18.6936,18.9391,18.6936z"/>
    <path fill="none" d="M51.2323,18.6936h2.8591c0.5127,0,0.9284,0.4157,0.9284,0.9284v1.8314c0,0.5127-0.4157,0.9284-0.9284,0.9284 h-2.8591c-0.5127,0-0.9284-0.4157-0.9284-0.9284V19.622C50.3039,19.1093,50.7196,18.6936,51.2323,18.6936z"/>
    <rect x="11" y="21.3353" width="50" height="34.3876" fill="none" stroke="#000000" stroke-linecap="round" stroke-linejoin="round" stroke-width="2"/>
    <path fill="none" stroke="#000000" stroke-linecap="round" stroke-linejoin="round" stroke-width="2" d="M28.1512,21.3353V18.344 c0-1.1415,0.9254-2.0669,2.0669-2.0669l0,0h11.5638c1.1415,0,2.0669,0.9254,2.0669,2.0669v2.9913"/>
    <path fill="#000" d="M39.19,29.4168v6.74h6.74v4.7442h-6.74v6.74h-4.7444v-6.74h-6.74v-4.7444h6.74v-6.74H39.19 M39.19,27.4166h-4.7444 c-1.1046,0-2,0.8954-2,2v4.74h-4.74c-1.1046,0-2,0.8954-2,2v4.7444c0,1.1046,0.8954,2,2,2h4.74v4.74c0,1.1046,0.8954,2,2,2H39.19 c1.1046,0,2-0.8954,2-2v-4.74h4.74c1.1046,0,2-0.8954,2-2v-4.7444c0-1.1046-0.8954-2-2-2h-4.74v-4.74 C41.19,28.312,40.2946,27.4166,39.19,27.4166z"/>
    <path fill="#000" d="M18.9391,18.6936h2.8591c0.5127,0,0.9284,0.4157,0.9284,0.9284v1.8314c0,0.5127-0.4157,0.9284-0.9284,0.9284h-2.8591 c-0.5127,0-0.9284-0.4157-0.9284-0.9284V19.622C18.0107,19.1093,18.4264,18.6936,18.9391,18.6936z"/>
    <path fill="#000" d="M51.2323,18.6936h2.8591c0.5127,0,0.9284,0.4157,0.9284,0.9284v1.8314c0,0.5127-0.4157,0.9284-0.9284,0.9284h-2.8591 c-0.5127,0-0.9284-0.4157-0.9284-0.9284V19.622C50.3039,19.1093,50.7196,18.6936,51.2323,18.6936z"/>
  </g>
</svg>
