<svg id="emoji" viewBox="0 0 72 72" version="1.1" xmlns="http://www.w3.org/2000/svg">
  <g id="grid">
    <path fill="#B3B3B3" d="M68,4v64H4V4H68 M72,0H0v72h72V0z"/>
    <path fill="none" stroke="#00A5FF" stroke-miterlimit="10" stroke-width="0.1" d="M12.923,10.9583h46.1539 c1.0621,0,1.9231,0.861,1.9231,1.9231v0v46.1538c0,1.0621-0.861,1.9231-1.9231,1.9231H12.9231 c-1.0621,0-1.9231-0.861-1.9231-1.9231l0,0V12.8813C11,11.8193,11.861,10.9583,12.923,10.9583L12.923,10.9583z"/>
    <path fill="none" stroke="#00A5FF" stroke-miterlimit="10" stroke-width="0.1" d="M18.2537,4h35.4926C54.991,4,56,5.009,56,6.2537 v59.4926C56,66.991,54.991,68,53.7463,68H18.2537C17.009,68,16,66.991,16,65.7463V6.2537C16,5.009,17.009,4,18.2537,4z"/>
    <path fill="none" stroke="#00A5FF" stroke-miterlimit="10" stroke-width="0.1" d="M68,18.2537v35.4926 C68,54.991,66.991,56,65.7463,56H6.2537C5.009,56,4,54.991,4,53.7463V18.2537C4,17.009,5.009,16,6.2537,16h59.4926 C66.991,16,68,17.009,68,18.2537z"/>
    <circle cx="36" cy="36" r="29" fill="none" stroke="#00A5FF" stroke-miterlimit="10" stroke-width="0.1"/>
  </g>
  <g id="color">
    <rect x="23.6057" y="44.0261" width="9.3598" height="4.777" fill="#D0CFCE"/>
    <path fill="#D22F27" d="M16,19.3085h25.0008v12.4959c0,3.8273-2.5211,6.93-5.6311,6.93H34.005c-3.13,0.5662-3,5.2918-3,5.2918 h-5.66c0,0,0.13-4.7256-3-5.2918h-0.7139c-3.11,0-5.6311-3.1026-5.6311-6.93L16,19.3085z"/>
    <path fill="#D22F27" d="M51.0863,20.5163h1.4182c1.0506,0,1.9023,0.8517,1.9023,1.9023v7.77c0,1.0506-0.8517,1.9023-1.9023,1.9023 h-1.4182c-1.0506,0-1.9023-0.8517-1.9023-1.9023v-7.77C49.184,21.368,50.0357,20.5163,51.0863,20.5163z"/>
    <path fill="#EA5A47" d="M32.0065,30.8364c0.1213,1.9364-1.3502,3.6045-3.2866,3.7258c-1.9364,0.1213-3.6045-1.3502-3.7258-3.2866 c-0.0092-0.1476-0.0092-0.2957,0.0003-0.4433c0,0-0.0384-2.5084,2.92-7.0452c0,0,0.5551-0.9414,1.1139-0.0618 C31.9865,28.262,32.0066,30.8364,32.0065,30.8364"/>
    <path fill="#D22F27" d="M28.5,23.35c2.2571,1.8189,3.4842,7.1657,3.4842,7.1657c0,2.63-1.5478,4.0542-3.4842,4.0542 c0,0,3.8568-3.1777,0-11.22"/>
  </g>
  <g id="line">
    <path fill="none" stroke="#000000" stroke-linecap="round" stroke-linejoin="round" stroke-width="2" d="M28.2856,49.9673v3.9319 l0,0c-0.0079,3.5364,2.5152,6.5721,5.9935,7.2108c2.5601,0.5178,5.2097,0.3777,7.7009-0.4071 c3.3446-1.1536,5.3437-4.5786,4.7034-8.0581c-0.1349-0.7062-0.21-1.4226-0.2243-2.1414c0.0158-2.6929,1.1733-5.2528,3.1847-7.0434 c1.9826-1.8649,4.2174-4.5336,2.0371-11.3694"/>
    <path fill="none" stroke="#000000" stroke-linecap="round" stroke-linejoin="round" stroke-width="2" d="M16,19.3085V17.572 c0-3.11,2.5211-5.6311,5.6311-5.6311c0,0,0.0001,0,0.0001,0H35.37c3.11-0.0001,5.6311,2.521,5.6312,5.631c0,0,0,0.0001,0,0.0001 v1.7758"/>
    <rect x="23.6057" y="44.0261" width="9.3598" height="4.777" fill="none" stroke="#000000" stroke-linecap="round" stroke-linejoin="round" stroke-width="2"/>
    <path fill="none" stroke="#000000" stroke-linecap="round" stroke-linejoin="round" stroke-width="2" d="M51.0863,20.5163h1.4182 c1.0506,0,1.9023,0.8517,1.9023,1.9023v7.77c0,1.0506-0.8517,1.9023-1.9023,1.9023h-1.4182c-1.0506,0-1.9023-0.8517-1.9023-1.9023 v-7.77C49.184,21.368,50.0357,20.5163,51.0863,20.5163z"/>
    <line x1="51.7954" x2="51.7954" y1="20.5163" y2="13.9132" fill="none" stroke="#000000" stroke-linecap="round" stroke-linejoin="round" stroke-width="2"/>
    <path fill="none" stroke="#000000" stroke-miterlimit="10" stroke-width="2" d="M16,19.3085h25.0008v12.4959 c0,3.8273-2.5211,6.93-5.6311,6.93H34.005c-3.13,0.5662-3,5.2918-3,5.2918h-5.66c0,0,0.13-4.7256-3-5.2918h-0.7139 c-3.11,0-5.6311-3.1026-5.6311-6.93L16,19.3085z"/>
    <path fill="none" stroke="#000000" stroke-linecap="round" stroke-linejoin="round" stroke-width="1.5" d="M32.0065,30.8364 c0.1213,1.9364-1.3502,3.6045-3.2866,3.7258c-1.9364,0.1213-3.6045-1.3502-3.7258-3.2866 c-0.0092-0.1476-0.0092-0.2957,0.0003-0.4433c0,0-0.0384-2.5084,2.92-7.0452c0,0,0.5551-0.9414,1.1139-0.0618 C31.9865,28.262,32.0066,30.8364,32.0065,30.8364"/>
  </g>
</svg>
