<?xml version="1.0" encoding="UTF-8"?>
<svg id="emoji" xmlns="http://www.w3.org/2000/svg" viewBox="0 0 72 72">
  <g id="grid">
    <path d="m68,4v64H4V4h64m4-4H0v72h72V0Z" fill="#b3b3b3"/>
    <path d="m12.923,10.9583h46.1539c1.0621,0,1.9231.861,1.9231,1.9231h0v46.1538c0,1.0621-.861,1.9231-1.9231,1.9231H12.9231c-1.0621,0-1.9231-.861-1.9231-1.9231h0V12.8813c0-1.062.861-1.923,1.923-1.923h0Z" fill="none" stroke="#00a5ff" stroke-miterlimit="10" stroke-width=".1"/>
    <rect x="16" y="4" width="40" height="64" rx="2.2537" ry="2.2537" fill="none" stroke="#00a5ff" stroke-miterlimit="10" stroke-width=".1"/>
    <rect x="4" y="16" width="64" height="40" rx="2.2537" ry="2.2537" fill="none" stroke="#00a5ff" stroke-miterlimit="10" stroke-width=".1"/>
    <circle cx="36" cy="36" r="29" fill="none" stroke="#00a5ff" stroke-miterlimit="10" stroke-width=".1"/>
  </g>
  <g id="color">
    <path d="m44.1912,19.0075s-2.4385-1.17-3.3436.5374c-.8757,1.6519.0042,7.6106.0042,7.6106l5.8271-3.053s2.8261-2.1693-.2587-4.1397l-2.2291-.9553Z" fill="#fff"/>
  </g>
  <g id="line">
    <ellipse cx="31.5843" cy="51.769" rx="3.7292" ry="3.0028" transform="translate(-29.0064 49.2472) rotate(-56.2294)" fill="none" stroke="#000" stroke-miterlimit="10" stroke-width="2"/>
    <path d="m30.5831,48.93l-.2992-2.1686s-1.1385.02-.5878-.7848l2.3613-.279.3392,2.4585c-.6709.0607-1.3055.3315-1.8135.7739Z"/>
    <line x1="31.221" y1="46.1526" x2="38.088" y2="32.7142" fill="none" stroke="#000" stroke-linecap="round" stroke-linejoin="round" stroke-width="2"/>
    <ellipse cx="23.5677" cy="47.5374" rx="3.7292" ry="3.0028" transform="translate(-29.4834 46.6315) rotate(-62.6508)" fill="none" stroke="#000" stroke-miterlimit="10" stroke-width="2"/>
    <path d="m26.2019,46.375l2.0434-.7854s.532,1.0067.971.1356l-.8-2.0978-2.3166.89c.2189.5951.2545,1.2421.1022,1.8576Z"/>
    <line x1="28.3397" y1="44.6479" x2="37.2929" y2="31.8871" fill="none" stroke="#000" stroke-linecap="round" stroke-linejoin="round" stroke-width="2"/>
    <path d="m47.0234,19.2768s4.32,2.9181-.5265,5.981l-5.8929,3.1068" fill="none" stroke="#000" stroke-linecap="round" stroke-linejoin="round" stroke-width="2"/>
    <path d="m44.32,18.1092s-4.7619-2.1223-4.7969,3.6111l.4813,6.6443" fill="none" stroke="#000" stroke-linecap="round" stroke-linejoin="round" stroke-width="2"/>
    <rect x="36.185" y="28.4226" width="5.6787" height="3.4715" rx="1.7358" ry="1.7358" transform="translate(-6.6057 48.8754) rotate(-60.0001)"/>
  </g>
  <g id="color-foreground">
    <circle cx="39.0202" cy="30.132" r=".6126" fill="#fff"/>
  </g>
</svg>