<svg id="emoji" viewBox="0 0 72 72" xmlns="http://www.w3.org/2000/svg">
  <g id="grid">
    <path fill="#b3b3b3" d="M68,4V68H4V4H68m4-4H0V72H72V0Z"/>
    <rect x="11" y="10.9583" rx="1.9231" width="50" height="50" fill="none" stroke="#00a5ff" stroke-miterlimit="10" stroke-width="0.1"/>
    <rect x="16" y="4" rx="2.2537" width="40" height="64" fill="none" stroke="#00a5ff" stroke-miterlimit="10" stroke-width="0.1"/>
    <rect x="16" y="4" rx="2.2537" width="40" height="64" transform="translate(72) rotate(90)" fill="none" stroke="#00a5ff" stroke-miterlimit="10" stroke-width="0.1"/>
    <circle cx="36" cy="36" r="29" fill="none" stroke="#00a5ff" stroke-miterlimit="10" stroke-width="0.1"/>
  </g>
  <g id="color"/>
  <g id="line">
    <path fill="none" stroke="#000" stroke-linecap="round" stroke-miterlimit="10" stroke-width="3.251" d="m23.21 63.42a4.609 4.609 0 0 0 3.514-2.904s22.26-40.97 25-51.13"/>
    <path fill="none" stroke="#000" stroke-linecap="round" stroke-miterlimit="10" stroke-width="3.251" d="m19.33 61.22a4.956 4.956 0 0 1 0.8883-4.53s24.13-39.9 31.51-47.4"/>
    <path fill="#000" stroke-width="1.625" d="m51.35 7.081 2.667 1.54a0.9753 0.9753 0 0 1 0.357 1.332l-5.254 9.101-4.356-2.515 5.254-9.101a0.9753 0.9753 0 0 1 1.332-0.357z"/>
  </g>
</svg>
