<?xml version="1.0" encoding="UTF-8"?>
<svg id="emoji" xmlns="http://www.w3.org/2000/svg" viewBox="0 0 72 72">
  <g id="grid">
    <path d="m68,4v64H4V4h64m4-4H0v72h72V0Z" fill="#b3b3b3"/>
    <rect x="11" y="10.9583" width="50" height="50" rx="1.9231" ry="1.9231" fill="none" stroke="#00a5ff" stroke-miterlimit="10" stroke-width=".1"/>
    <rect x="16" y="4" width="40" height="64" rx="2.2537" ry="2.2537" fill="none" stroke="#00a5ff" stroke-miterlimit="10" stroke-width=".1"/>
    <rect x="4" y="16" width="64" height="40" rx="2.2537" ry="2.2537" fill="none" stroke="#00a5ff" stroke-miterlimit="10" stroke-width=".1"/>
    <circle cx="36" cy="36" r="29" fill="none" stroke="#00a5ff" stroke-miterlimit="10" stroke-width=".1"/>
  </g>
  <g id="color">
    <path d="m46.3549,25.5221c-6.873-.9152-13.837-.9152-20.71,0,1.5564-4.3527,1.5564-9.1101,0-13.4628,6.8756.8756,13.8344.8756,20.71,0-.8753,4.4449-.8753,9.0179,0,13.4628Z" fill="#fff"/>
    <path d="m50.3055,61.5361c-9.4206-2.1072-19.1904-2.1072-28.611,0,2.1503-10.2219,2.1503-20.7794,0-31.0013,9.4304,2.0162,19.1806,2.0162,28.611,0-1.2093,10.2984-1.2093,20.7029,0,31.0013Z" fill="#fff"/>
    <path d="m45.1934,24.3867c-1.2266.083-1.7218-.3019-3.4987-.2399,1.091-4.4213,1.471-6.3368.38-10.7581,1.5257.0513,1.7156-.0682,3.1803-.2645-.3137,1.9007-.97,4.3039-.0615,11.2625Z" fill="#d0cfce"/>
    <path d="m49.3117,60.6023c-2.822-.998-2.2276-.3424-5.4449-.8831,1.5073-10.2788,1.5073-17.2745,0-27.5533,2.6698-.2026,2.5541-.0248,5.4449-.7819-.1377,10.4621-1.7207,11.1504,0,29.2182Z" fill="#d0cfce"/>
  </g>
  <g id="line">
    <path d="m46.3549,25.5221c-6.873-.9152-13.837-.9152-20.71,0,1.5564-4.3527,1.5564-9.1101,0-13.4628,6.8756.8756,13.8344.8756,20.71,0-.8753,4.4449-.8753,9.0179,0,13.4628Z" fill="none" stroke="#000" stroke-linecap="round" stroke-linejoin="round" stroke-width="2"/>
    <path d="m50.3055,61.5361c-9.4206-2.1072-19.1904-2.1072-28.611,0,2.1503-10.2219,2.1503-20.7794,0-31.0013,9.4304,2.0162,19.1806,2.0162,28.611,0-1.2093,10.2984-1.2093,20.7029,0,31.0013Z" fill="none" stroke="#000" stroke-linecap="round" stroke-linejoin="round" stroke-width="2"/>
  </g>
</svg>