<svg id="emoji" xmlns="http://www.w3.org/2000/svg" viewBox="0 0 72 72">
  <title>E323</title>
  <g id="grid">
    <path d="M68,4V68H4V4H68m4-4H0V72H72V0Z" fill="#b3b3b3"/>
    <path d="M12.923,10.9583H59.0769A1.9231,1.9231,0,0,1,61,12.8814V59.0352a1.9231,1.9231,0,0,1-1.9231,1.9231H12.9231A1.9231,1.9231,0,0,1,11,59.0352V12.8813A1.923,1.923,0,0,1,12.923,10.9583Z" fill="none" stroke="#00a5ff" stroke-miterlimit="10" stroke-width="0.1"/>
    <rect x="16" y="4" width="40" height="64" rx="2.2537" fill="none" stroke="#00a5ff" stroke-miterlimit="10" stroke-width="0.1"/>
    <rect x="16" y="4" width="40" height="64" rx="2.2537" transform="translate(72) rotate(90)" fill="none" stroke="#00a5ff" stroke-miterlimit="10" stroke-width="0.1"/>
    <circle cx="36" cy="36" r="29" fill="none" stroke="#00a5ff" stroke-miterlimit="10" stroke-width="0.1"/>
  </g>
  <g id="color">
    <path d="M35.4358,26.3108S34.13,34.5017,39.955,34.82h8.65a5.0817,5.0817,0,0,0,4.3779-4.4133l-.0353-4.6555c0,3-3.7892,5.4324-8.6511,5.4324s-8.8032-2.4322-8.8032-5.4324" fill="#92d3f5"/>
  </g>
  <g id="line">
    <circle cx="39.999" cy="14.8517" r="1.7123"/>
    <circle cx="48.3688" cy="14.858" r="1.7123"/>
    <ellipse cx="24.5231" cy="30.6351" rx="2.8608" ry="2.9258"/>
    <path d="M24.6794,37.2019A5.9831,5.9831,0,1,1,30.7911,31.22a5.8857,5.8857,0,0,1-.1241,1.2055" fill="none" stroke="#000" stroke-linecap="round" stroke-linejoin="round" stroke-width="2"/>
    <path d="M44.3666,36.0386c-.5039,2.4634-.4747,5.441.5061,7.0339a7.3273,7.3273,0,0,1,.3838,6.7366c-1.598,4.227-5.1625,7.1694-9.3032,7.1694-4.704,0-8.6642-3.7972-9.8427-8.9613a8.2671,8.2671,0,0,1,.4564-4.8981c.9176-2.291,1.9916-6.5421-.414-10.4845" fill="none" stroke="#000" stroke-linecap="round" stroke-linejoin="round" stroke-width="2"/>
    <path d="M48.34,14.5617h2.4685a2.1589,2.1589,0,0,1,2.159,2.1589V29.8949a4.9531,4.9531,0,0,1-4.9532,4.9531H40.446a4.9531,4.9531,0,0,1-4.9531-4.9531V16.7206a2.1588,2.1588,0,0,1,2.1589-2.1589h2.302" fill="none" stroke="#000" stroke-linecap="round" stroke-linejoin="round" stroke-width="2"/>
    <path d="M35.4358,26.3108S34.13,34.5017,39.955,34.82h8.65a5.0817,5.0817,0,0,0,4.3779-4.4133l-.0353-4.6555c0,3-3.7892,5.4324-8.6511,5.4324s-8.8032-2.4322-8.8032-5.4324" fill="none" stroke="#000" stroke-linecap="round" stroke-linejoin="round" stroke-width="2"/>
  </g>
</svg>
