<svg id="emoji" xmlns="http://www.w3.org/2000/svg" viewBox="0 0 72 72">
  <title>E329</title>
  <g id="grid">
    <path d="M68,4V68H4V4H68m4-4H0V72H72V0Z" fill="#b3b3b3"/>
    <rect x="11" y="10.9583" width="50" height="50" rx="1.9231" fill="none" stroke="#00a5ff" stroke-miterlimit="10" stroke-width="0.1"/>
    <rect x="16" y="4" width="40" height="64" rx="2.2537" fill="none" stroke="#00a5ff" stroke-miterlimit="10" stroke-width="0.1"/>
    <rect x="16" y="4" width="40" height="64" rx="2.2537" transform="translate(72 0) rotate(90)" fill="none" stroke="#00a5ff" stroke-miterlimit="10" stroke-width="0.1"/>
    <circle cx="36" cy="36" r="29" fill="none" stroke="#00a5ff" stroke-miterlimit="10" stroke-width="0.1"/>
  </g>
  <g id="color">
    <path d="M11.7973,32.1459H24.7654a1.6942,1.6942,0,0,1,1.2068.502,14.3889,14.3889,0,0,1,2.5537,3.0972l.0151.0527a1.6913,1.6913,0,0,1-1.6555,2.1059l-15.0669-.008a1.7012,1.7012,0,0,1-1.7-1.6852l-.0222-2.3473A1.7012,1.7012,0,0,1,11.7973,32.1459Z" fill="#92d3f5"/>
  </g>
  <g id="line">
    <path d="M16.9855,42.7615A20.43,20.43,0,0,0,56.586,35.2777a20.4308,20.4308,0,0,0-39.6845-7.2572s8.7984.2756,8.8872.1679c3.721-4.5128,6.0234-5.59,10.3188-5.59a12.6819,12.6819,0,0,1,0,25.3593,12.3643,12.3643,0,0,1-10.1984-5.412" fill="none" stroke="#000" stroke-linecap="round" stroke-linejoin="round" stroke-width="2"/>
    <line x1="17.3324" y1="42.412" x2="24.5731" y2="42.4557" fill="none" stroke="#000" stroke-linecap="round" stroke-linejoin="round" stroke-width="2"/>
    <path d="M10.186,40.904l26.07.0783a3.232,3.232,0,0,1-2.0356,1.4092c-1.2526.1566-24.0687.036-24.0687.036Z" stroke="#000" stroke-linecap="round" stroke-linejoin="round" stroke-width="2"/>
    <path d="M11.7973,32.1459H24.7654a1.6942,1.6942,0,0,1,1.2068.502,14.3889,14.3889,0,0,1,2.5537,3.0972l.0151.0527a1.6913,1.6913,0,0,1-1.6555,2.1059l-15.0669-.008a1.7012,1.7012,0,0,1-1.7-1.6852l-.0222-2.3473A1.7012,1.7012,0,0,1,11.7973,32.1459Z" fill="none" stroke="#000" stroke-miterlimit="10" stroke-width="2"/>
    <ellipse cx="32.7995" cy="34.8192" rx="3.2175" ry="3.1989"/>
  </g>
</svg>
