<?xml version="1.0" encoding="utf-8"?>
<!-- Generator: Adobe Illustrator 22.0.1, SVG Export Plug-In . SVG Version: 6.00 Build 0)  -->
<svg version="1.1" id="emoji" xmlns="http://www.w3.org/2000/svg" xmlns:xlink="http://www.w3.org/1999/xlink" x="0px" y="0px"
	 viewBox="0 0 72 72" enable-background="new 0 0 72 72" xml:space="preserve">
<g id="grid">
	<path fill="#B3B3B3" d="M68,4v64H4V4H68 M72,0H0v72h72V0z"/>
	<path fill="none" stroke="#00A5FF" stroke-width="0.1" stroke-miterlimit="10" d="M12.923,10.9583h46.1539
		c1.0621,0,1.9231,0.861,1.9231,1.9231v0v46.1538c0,1.0621-0.861,1.9231-1.9231,1.9231H12.9231
		c-1.0621,0-1.9231-0.861-1.9231-1.9231l0,0V12.8813C11,11.8193,11.861,10.9583,12.923,10.9583L12.923,10.9583z"/>
	<path fill="none" stroke="#00A5FF" stroke-width="0.1" stroke-miterlimit="10" d="M18.2537,4h35.4926C54.991,4,56,5.009,56,6.2537
		v59.4926C56,66.991,54.991,68,53.7463,68H18.2537C17.009,68,16,66.991,16,65.7463V6.2537C16,5.009,17.009,4,18.2537,4z"/>
	<path fill="none" stroke="#00A5FF" stroke-width="0.1" stroke-miterlimit="10" d="M68,18.2537v35.4926
		C68,54.991,66.991,56,65.7463,56H6.2537C5.009,56,4,54.991,4,53.7463V18.2537C4,17.009,5.009,16,6.2537,16h59.4926
		C66.991,16,68,17.009,68,18.2537z"/>
	<circle fill="none" stroke="#00A5FF" stroke-width="0.1" stroke-miterlimit="10" cx="36" cy="36" r="29"/>
</g>
<g id="color">
	<path fill="#F4AA41" d="M58.6655,49.6992c-3.5976,9.1169-12.6313,15.1546-23.2072,15.1546c-9.1173,0-19.256-5.8476-22.8536-14.9645
		l-0.1262-0.3127c-1.1415-2.8597-0.9573-6.3599-0.9573-9.6324L15.1881,7.573l10.2281,10.0799
		c2.9226-1.2477,6.137-1.9388,9.5103-1.9388H35.99c3.3733,0,6.5877,0.6911,9.5103,1.9388L56.7285,6.573l3.7223,33.8758
		c0,3.2725-0.6283,6.3969-1.7707,9.2566"/>
	<path fill="#E27022" d="M35.4583,64.8538c10.6088,0.3425,20.3541-6.004,23.9517-15.1208l0.1109-0.231
		c1.1415-2.8597,0.9579-6.8965,0.9579-10.169l-3.7503-32.76"/>
	<path fill="#FFFFFF" d="M55.1059,34.394c0,0-9.2757-9.2767-13.2519,6.6249C52.4561,48.9702,55.1059,34.394,55.1059,34.394z"/>
	<path fill="#FFFFFF" d="M16.8941,34.394c0,0,9.2757-9.2767,13.2519,6.6249C19.5439,48.9702,16.8941,34.394,16.8941,34.394z"/>
	<path fill="#92D3F5" d="M20.92,49.0609c-1.1993,1.4205-3.4442,4.4727-3.4442,7.4143c-0.0014,0.9206,0.3576,1.7853,1.0068,2.4345
		c0.6507,0.6507,1.5153,1.0097,2.4375,1.0098c1.8413-0.0001,3.4457-1.6044,3.4443-3.4443l0,0
		C24.3643,53.5336,22.1193,50.4815,20.92,49.0609z"/>
</g>
<g id="hair">
</g>
<g id="skin">
</g>
<g id="skin-shadow">
</g>
<g id="line">
	<path fill="none" stroke="#000000" stroke-width="2" stroke-linecap="round" stroke-linejoin="round" stroke-miterlimit="10" d="
		M64,56.0731"/>
	
		<line fill="none" stroke="#000000" stroke-width="2" stroke-linecap="round" stroke-linejoin="round" stroke-miterlimit="10" x1="40.16" y1="53.3812" x2="36" y2="48.1812"/>
	
		<line fill="none" stroke="#000000" stroke-width="2" stroke-linecap="round" stroke-linejoin="round" stroke-miterlimit="10" x1="31.84" y1="53.3812" x2="36" y2="48.1812"/>
	<path fill="none" stroke="#000000" stroke-width="2" stroke-linecap="round" stroke-linejoin="round" stroke-miterlimit="10" d="
		M55.1059,34.394c0,0-9.2757-9.2767-13.2519,6.6249C52.4561,48.9702,55.1059,34.394,55.1059,34.394z"/>
	
		<line fill="none" stroke="#000000" stroke-width="2" stroke-linecap="round" stroke-linejoin="round" stroke-miterlimit="10" x1="62" y1="54.8324" x2="52.64" y2="49.6324"/>
	<path fill="none" stroke="#000000" stroke-width="2" stroke-linecap="round" stroke-linejoin="round" stroke-miterlimit="10" d="
		M52.64,47.5524"/>
	<path fill="none" stroke="#000000" stroke-width="2" stroke-linecap="round" stroke-linejoin="round" stroke-miterlimit="10" d="
		M10,52.7524"/>
	
		<line fill="none" stroke="#000000" stroke-width="2" stroke-linecap="round" stroke-linejoin="round" stroke-miterlimit="10" x1="57.84" y1="60.0324" x2="48.48" y2="54.8324"/>
	<path fill="none" stroke="#000000" stroke-width="2" stroke-linecap="round" stroke-linejoin="round" stroke-miterlimit="10" d="
		M46.4,55.8724"/>
	<path fill="none" stroke="#000000" stroke-width="2" stroke-linecap="round" stroke-linejoin="round" stroke-miterlimit="10" d="
		M55.76,61.0724"/>
	<path fill="none" stroke="#000000" stroke-width="2" stroke-linecap="round" stroke-linejoin="round" stroke-miterlimit="10" d="
		M13.2916,48.7041c-1.1172-2.7655-1.7316-5.787-1.7316-8.9517l3.64-32.76l10.9799,10.7149c2.858-1.2066,6.0013-1.8749,9.3001-1.8749
		h1.04c3.2988,0,6.4421,0.6683,9.3001,1.8749L56.8,6.9924l3.64,32.76c0,3.1647-0.6144,6.1862-1.7316,8.9517"/>
	<path fill="none" stroke="#000000" stroke-width="2" stroke-linecap="round" stroke-linejoin="round" stroke-miterlimit="10" d="
		M27.004,62.3638c2.6348,0.9986,5.4916,1.5451,8.4762,1.5451h1.04c4.6465,0,8.9852-1.3243,12.6547-3.6176"/>
	<path fill="none" stroke="#000000" stroke-width="2" stroke-linecap="round" stroke-linejoin="round" stroke-miterlimit="10" d="
		M16.8941,34.394c0,0,9.2757-9.2767,13.2519,6.6249C19.5439,48.9702,16.8941,34.394,16.8941,34.394z"/>
	
		<line fill="none" stroke="#000000" stroke-width="2" stroke-linecap="round" stroke-linejoin="round" stroke-miterlimit="10" x1="31.84" y1="47.5524" x2="40.16" y2="47.5524"/>
	
		<line fill="none" stroke="#000000" stroke-width="2" stroke-linecap="round" stroke-linejoin="round" stroke-miterlimit="10" x1="10" y1="54.8324" x2="18.7195" y2="49.9882"/>
	<path fill="none" stroke="#000000" stroke-width="2" stroke-linecap="round" stroke-linejoin="round" stroke-miterlimit="10" d="
		M19.36,47.5524"/>
	<path fill="none" stroke="#000000" stroke-width="2" stroke-linecap="round" stroke-linejoin="round" stroke-miterlimit="10" d="
		M10,52.7524"/>
	
		<line fill="none" stroke="#000000" stroke-width="2" stroke-linecap="round" stroke-linejoin="round" stroke-miterlimit="10" x1="16.01" y1="58.9998" x2="14.16" y2="60.0298"/>
	<path fill="none" stroke="#000000" stroke-width="2" stroke-linecap="round" stroke-linejoin="round" stroke-miterlimit="10" d="
		M25.6,55.8724"/>
	<path fill="none" stroke="#000000" stroke-width="2" stroke-linecap="round" stroke-linejoin="round" stroke-miterlimit="10" d="
		M16.24,61.0724"/>
	<circle cx="23.52" cy="37.1524" r="2.08"/>
	<circle cx="48.48" cy="37.1524" r="2.08"/>
	<path d="M24.8268,60.3819c-1.0428,1.0428-2.4302,1.6172-3.9068,1.6173c-1.4765,0-2.864-0.5746-3.9082-1.6187
		c-1.0428-1.0428-1.6173-2.4302-1.6159-3.9053c0-4.8605,4.5933-9.5084,4.7887-9.7038c0.4065-0.4064,1.0643-0.4064,1.4708,0
		c0.1953,0.1953,4.7887,4.8432,4.7886,9.7037l0,0C26.4455,57.9502,25.871,59.3378,24.8268,60.3819z M20.92,49.0609
		c-1.1993,1.4205-3.4442,4.4727-3.4442,7.4143c-0.0014,0.9206,0.3576,1.7853,1.0068,2.4345
		c0.6507,0.6507,1.5153,1.0097,2.4375,1.0098c1.8413-0.0001,3.4457-1.6044,3.4443-3.4443l0,0
		C24.3643,53.5336,22.1193,50.4815,20.92,49.0609z"/>
</g>
</svg>
