<svg id="emoji" xmlns="http://www.w3.org/2000/svg" viewBox="0 0 72 72">
  <g id="grid">
    <path d="M68,4V68H4V4H68m4-4H0V72H72V0Z" fill="#b3b3b3"></path>
    <path d="M12.923,10.9583H59.0769A1.9231,1.9231,0,0,1,61,12.8814V59.0352a1.9231,1.9231,0,0,1-1.9231,1.9231H12.9231A1.9231,1.9231,0,0,1,11,59.0352V12.8813A1.923,1.923,0,0,1,12.923,10.9583Z" fill="none" stroke="#00a5ff" stroke-miterlimit="10" stroke-width="0.1"></path>
    <rect x="16" y="4" width="40" height="64" rx="2.2537" fill="none" stroke="#00a5ff" stroke-miterlimit="10" stroke-width="0.1"></rect>
    <rect x="16" y="4" width="40" height="64" rx="2.2537" transform="translate(72) rotate(90)" fill="none" stroke="#00a5ff" stroke-miterlimit="10" stroke-width="0.1"></rect>
    <circle cx="36" cy="36" r="29" fill="none" stroke="#00a5ff" stroke-miterlimit="10" stroke-width="0.1"></circle>
  </g>
  <g id="color">
    <path fill="#d0cfce" stroke="none" stroke-width="2" stroke-linecap="round" stroke-linejoin="round" stroke-miterlimit="10" d="
		M22.4239,29.0885c0,0-0.6771-0.4107-1.2037-5h7c0,0-0.3044,3.881-1.4329,5"></path>
    <rect x="16" y="29.1033" fill="#a57939" stroke="none" stroke-width="2" stroke-linecap="round" stroke-linejoin="round" stroke-miterlimit="10" width="40" height="3.8349"></rect>
    <rect x="46" y="34" transform="matrix(6.123234e-17 -1 1 6.123234e-17 30 102)" fill="#a57939" stroke="none" stroke-width="2" stroke-linecap="round" stroke-linejoin="round" stroke-miterlimit="10" width="40" height="4"></rect>
    <rect x="24.5" y="42.5" transform="matrix(6.123234e-17 -1 1 6.123234e-17 -8.5 80.5)" fill="#a57939" stroke="none" stroke-width="2" stroke-linecap="round" stroke-linejoin="round" stroke-miterlimit="10" width="23" height="4"></rect>
    <rect x="36.75" y="44.7292" transform="matrix(6.123234e-17 -1 1 6.123234e-17 -0.7292 92.7292)" fill="#a57939" stroke="none" stroke-width="2" stroke-linecap="round" stroke-linejoin="round" stroke-miterlimit="10" width="18.5" height="4"></rect>
    <rect x="44" y="37.0729" transform="matrix(-1 -1.224647e-16 1.224647e-16 -1 108 78.1459)" fill="#a57939" stroke="none" stroke-width="2" stroke-linecap="round" stroke-linejoin="round" stroke-miterlimit="10" width="20" height="4"></rect>
    <rect x="-14" y="34" transform="matrix(4.488327e-11 -1 1 4.488327e-11 -30 42)" fill="#a57939" stroke="none" stroke-width="2" stroke-linecap="round" stroke-linejoin="round" stroke-miterlimit="10" width="40" height="4"></rect>
    <rect x="16.75" y="44.7292" transform="matrix(4.493390e-11 -1 1 4.493390e-11 -20.7292 72.7292)" fill="#a57939" stroke="none" stroke-width="2" stroke-linecap="round" stroke-linejoin="round" stroke-miterlimit="10" width="18.5" height="4"></rect>
    <rect x="8" y="37.0729" fill="#a57939" stroke="none" stroke-width="2" stroke-linecap="round" stroke-linejoin="round" stroke-miterlimit="10" width="20" height="4"></rect>
  </g>
  <g id="hair">
  </g>
  <g id="skin">
  </g>
  <g id="skin-shadow">
  </g>
  <g id="line">
    <path fill="none" stroke="#000000" stroke-width="2" stroke-linecap="round" stroke-linejoin="round" stroke-miterlimit="10" d="
		M22.4239,29.0885c0,0-0.6771-0.4107-1.2037-5h7c0,0-0.3044,3.881-1.4329,5"></path>
    <rect x="16" y="29.1033" fill="none" stroke="#000000" stroke-width="2" stroke-linecap="round" stroke-linejoin="round" stroke-miterlimit="10" width="40" height="3.8349"></rect>
    <rect x="46" y="34" transform="matrix(6.123234e-17 -1 1 6.123234e-17 30 102)" fill="none" stroke="#000000" stroke-width="2" stroke-linecap="round" stroke-linejoin="round" stroke-miterlimit="10" width="40" height="4"></rect>
    <rect x="24.5" y="42.5" transform="matrix(6.123234e-17 -1 1 6.123234e-17 -8.5 80.5)" fill="none" stroke="#000000" stroke-width="2" stroke-linecap="round" stroke-linejoin="round" stroke-miterlimit="10" width="23" height="4"></rect>
    <rect x="36.75" y="44.7292" transform="matrix(6.123234e-17 -1 1 6.123234e-17 -0.7292 92.7292)" fill="none" stroke="#000000" stroke-width="2" stroke-linecap="round" stroke-linejoin="round" stroke-miterlimit="10" width="18.5" height="4"></rect>
    <rect x="44" y="37.0729" transform="matrix(-1 -1.224647e-16 1.224647e-16 -1 108 78.1459)" fill="none" stroke="#000000" stroke-width="2" stroke-linecap="round" stroke-linejoin="round" stroke-miterlimit="10" width="20" height="4"></rect>
    <path fill="none" stroke="#000000" stroke-width="2" stroke-linecap="round" stroke-linejoin="round" stroke-miterlimit="10" d="
		M22.9658,19.4167c0,0,0.5833-2.0208,0-4.0417"></path>
    <path fill="none" stroke="#000000" stroke-width="2" stroke-linecap="round" stroke-linejoin="round" stroke-miterlimit="10" d="
		M25.787,19.4167c0,0,0.5833-1.7507,0-3.5014"></path>
    <rect x="-14" y="34" transform="matrix(4.488327e-11 -1 1 4.488327e-11 -30 42)" fill="none" stroke="#000000" stroke-width="2" stroke-linecap="round" stroke-linejoin="round" stroke-miterlimit="10" width="40" height="4"></rect>
    <rect x="16.75" y="44.7292" transform="matrix(4.493390e-11 -1 1 4.493390e-11 -20.7292 72.7292)" fill="none" stroke="#000000" stroke-width="2" stroke-linecap="round" stroke-linejoin="round" stroke-miterlimit="10" width="18.5" height="4"></rect>
    <rect x="8" y="37.0729" fill="none" stroke="#000000" stroke-width="2" stroke-linecap="round" stroke-linejoin="round" stroke-miterlimit="10" width="20" height="4"></rect>
  </g>
</svg>