<svg id="emoji" viewBox="0 0 72 72" xmlns="http://www.w3.org/2000/svg">
  <g id="grid">
    <g>
      <path fill="#b3b3b3" d="m68,4v64H4V4h64m4-4H0v72h72V0Z"/>
      <path fill="none" stroke="#00a5ff" stroke-miterlimit="10" stroke-width="0.1" d="m12.923,10.9583h46.1539c1.0621,0,1.9231.861,1.9231,1.9231v46.1538c0,1.0621-.861,1.9231-1.9231,1.9231H12.9231c-1.0621,0-1.9231-.861-1.9231-1.9231V12.8813c0-1.062.861-1.923,1.923-1.923Z"/>
      <rect x="16" y="4" rx="2.2537" ry="2.2537" width="40" height="64" fill="none" stroke="#00a5ff" stroke-miterlimit="10" stroke-width="0.1"/>
      <rect x="4" y="16" rx="2.2537" ry="2.2537" width="64" height="40" fill="none" stroke="#00a5ff" stroke-miterlimit="10" stroke-width="0.1"/>
      <circle cx="36" cy="36" r="29" fill="none" stroke="#00a5ff" stroke-miterlimit="10" stroke-width="0.1"/>
    </g>
  </g>
  <g id="color">
    <g id="line-2">
      <polygon fill="none" stroke="#fff" stroke-linecap="round" stroke-linejoin="round" stroke-width="2" points="17.068 33.391 54.9463 33.3312 54.9463 38.4109 17.068 38.5603 17.068 33.391"/>
    </g>
    <g id="color-2">
      <polyline fill="#d0cfce" points="54.9391 32.334 17.0608 32.334 17.0608 22.429 54.9321 22.429"/>
    </g>
    <g id="color-3">
      <polyline fill="#d0cfce" points="54.9391 49.406 17.0608 49.406 17.0608 39.501 54.9321 39.501"/>
    </g>
  </g>
  <g id="line">
    <g id="line-2-2">
      <rect x="17.0608" y="22.3522" width="37.8783" height="10.2956" fill="none" stroke="#000" stroke-linecap="round" stroke-linejoin="round" stroke-width="2"/>
    </g>
    <g id="line-3">
      <rect x="17.0608" y="39.3522" width="37.8783" height="10.2956" fill="none" stroke="#000" stroke-linecap="round" stroke-linejoin="round" stroke-width="2"/>
    </g>
  </g>
</svg>
