<svg id="emoji" viewBox="0 0 72 72" xmlns="http://www.w3.org/2000/svg">
  <g id="grid">
    <path fill="#b3b3b3" d="M68,4V68H4V4H68m4-4H0V72H72V0Z"/>
    <path fill="none" stroke="#00a5ff" stroke-miterlimit="10" stroke-width="0.1" d="M12.923,10.9583H59.0769A1.9231,1.9231,0,0,1,61,12.8814V59.0352a1.9231,1.9231,0,0,1-1.9231,1.9231H12.9231A1.9231,1.9231,0,0,1,11,59.0352V12.8813A1.923,1.923,0,0,1,12.923,10.9583Z"/>
    <rect x="16" y="4" rx="2.2537" width="40" height="64" fill="none" stroke="#00a5ff" stroke-miterlimit="10" stroke-width="0.1"/>
    <rect x="16" y="4" rx="2.2537" width="40" height="64" transform="translate(72) rotate(90)" fill="none" stroke="#00a5ff" stroke-miterlimit="10" stroke-width="0.1"/>
    <circle cx="36" cy="36" r="29" fill="none" stroke="#00a5ff" stroke-miterlimit="10" stroke-width="0.1"/>
  </g>
  <g id="color">
    <polygon fill="#D0CFCE" stroke="none" points="31.8532,29.8741 31.8532,12.521 42.1488,12.521 42.1488,29.8805 42.1967,29.8806 46.2484,29.8832 59.6052,29.8832 59.6052,40.1789 46.2562,40.1789 42.1493,40.1762 42.1488,40.206 42.1488,58.8513 31.8532,58.8513 31.8532,40.1694 31.7534,40.1693 27.9357,40.1667 14,40.1667 14,29.8711 27.9331,29.8711 31.7687,29.8737"/>
  </g>
  <g id="hair"/>
  <g id="skin"/>
  <g id="skin-shadow"/>
  <g id="line">
    <polygon fill="none" stroke="#000000" stroke-linecap="round" stroke-linejoin="round" stroke-miterlimit="10" stroke-width="2" points="31.8532,29.8741 31.8532,12.521 42.1488,12.521 42.1488,29.8805 42.1967,29.8806 46.2484,29.8832 59.6052,29.8832 59.6052,40.1789 46.2562,40.1789 42.1493,40.1762 42.1488,40.206 42.1488,58.8513 31.8532,58.8513 31.8532,40.1694 31.7534,40.1693 27.9357,40.1667 14,40.1667 14,29.8711 27.9331,29.8711 31.7687,29.8737"/>
  </g>
</svg>
