<?xml version="1.0" encoding="utf-8"?>
<!-- Generator: Adobe Illustrator 22.0.1, SVG Export Plug-In . SVG Version: 6.00 Build 0)  -->
<svg version="1.1" id="emoji" xmlns="http://www.w3.org/2000/svg" xmlns:xlink="http://www.w3.org/1999/xlink" x="0px" y="0px"
	 viewBox="0 0 72 72" enable-background="new 0 0 72 72" xml:space="preserve">
<g id="grid">
	<path fill="#B3B3B3" d="M68,4v64H4V4H68 M72,0H0v72h72V0z"/>
	<path fill="none" stroke="#00A5FF" stroke-width="0.1" stroke-miterlimit="10" d="M12.923,10.9583h46.1539
		c1.0621,0,1.9231,0.861,1.9231,1.9231v0v46.1538c0,1.0621-0.861,1.9231-1.9231,1.9231H12.9231
		c-1.0621,0-1.9231-0.861-1.9231-1.9231l0,0V12.8813C11,11.8193,11.861,10.9583,12.923,10.9583L12.923,10.9583z"/>
	<path fill="none" stroke="#00A5FF" stroke-width="0.1" stroke-miterlimit="10" d="M18.2537,4h35.4926C54.991,4,56,5.009,56,6.2537
		v59.4926C56,66.991,54.991,68,53.7463,68H18.2537C17.009,68,16,66.991,16,65.7463V6.2537C16,5.009,17.009,4,18.2537,4z"/>
	<path fill="none" stroke="#00A5FF" stroke-width="0.1" stroke-miterlimit="10" d="M68,18.2537v35.4926
		C68,54.991,66.991,56,65.7463,56H6.2537C5.009,56,4,54.991,4,53.7463V18.2537C4,17.009,5.009,16,6.2537,16h59.4926
		C66.991,16,68,17.009,68,18.2537z"/>
	<circle fill="none" stroke="#00A5FF" stroke-width="0.1" stroke-miterlimit="10" cx="36" cy="36" r="29"/>
</g>
<g id="color">
	<path fill="#92D3F5" d="M12,60.958v-4.2187c0-4.9942,5.0078-9,10-9c6,5,12,5,18,0c1.3682,0,3.1221-0.2784,4.3887,0.2607
		c0,0,1.9863,1.125,3.2363,2.8125V60.958"/>
</g>
<g id="hair">
	<path fill="#F1B31C" d="M21,39c-4,0-4-6-4-13s4-14,14-14s14,7,14,14s0,13-4,13"/>
</g>
<g id="skin">
	<path fill="#FCEA2B" d="M19.9365,31c0,9,4.9365,14,11,14C36.873,45,42,40,42,31c0-3-1-5.0005-1-5.0005c-3-2.9995-7-8-7-8
		c-4,3-7,6-13,7.0005C21,25,19.9365,25.9995,19.9365,31z"/>
	<path fill="#FCEA2B" d="M55,60.958l-1.9375-14.2637L54,45.4443l6-2l5-6c0,0,1-1,0-2s-2,0-2,0l-3,3c-1,1-4,0-7,1s-5,3.2325-5,5
		C48,50,48,60.958,48,60.958"/>
</g>
<g id="skin-shadow">
</g>
<g id="line">
	<path fill="none" stroke="#000000" stroke-width="2" stroke-linecap="round" stroke-linejoin="round" d="M21,39c-4,0-4-6-4-13
		s4-14,14-14s14,7,14,14s0,13-4,13"/>
	<path fill="none" stroke="#000000" stroke-width="2" stroke-linecap="round" stroke-linejoin="round" d="M12,60v-3
		c0-4.9941,5.0078-9,10-9c6,5,12,5,18,0c1.3682,0,2.7363,0.3008,4.0029,0.8398"/>
	<path d="M36.873,30c0,1.1045-0.8955,2-2,2c-1.1044,0-2-0.8955-2-2s0.8956-2,2-2C35.9775,28,36.873,28.8955,36.873,30"/>
	<path d="M28.873,30c0,1.1045-0.8955,2-2,2c-1.1044,0-2-0.8955-2-2s0.8956-2,2-2C27.9775,28,28.873,28.8955,28.873,30"/>
	<path fill="none" stroke="#000000" stroke-width="2" stroke-linejoin="round" d="M19.9365,31c0,9,4.9365,14,11,14
		C36.873,45,42,40,42,31c0-3-1-5.0005-1-5.0005c-3-2.9995-7-8-7-8c-4,3-7,6-13,7.0005C21,25,19.9365,25.9995,19.9365,31z"/>
	<path fill="none" stroke="#000000" stroke-width="2" stroke-linecap="round" stroke-linejoin="round" d="M28,38
		c1.9385,0.9385,4,1,6,0"/>
	<path fill="none" stroke="#000000" stroke-width="2" stroke-linecap="round" stroke-linejoin="round" stroke-miterlimit="10" d="
		M55,60l-1.9375-13.3057L54,45.4443l6-2l5-6c0,0,1-1,0-2s-2,0-2,0l-3,3c-1,1-4,0-7,1s-5,3.2325-5,5C48,50,48,60,48,60"/>
</g>
</svg>
