<svg version="1.1" id="emoji" xmlns="http://www.w3.org/2000/svg" x="0" y="0" viewBox="0 0 72 72" enable-background="new 0 0 72 72" xml:space="preserve">
  <g id="grid">
    <path fill="#B3B3B3" d="M68,4v64H4V4H68 M72,0H0v72h72V0z"/>
    <path fill="none" stroke="#00A5FF" stroke-width=".1" stroke-miterlimit="10" d="M12.923,10.9583h46.1539 c1.0621,0,1.9231,0.861,1.9231,1.9231v0v46.1538c0,1.0621-0.861,1.9231-1.9231,1.9231H12.9231 c-1.0621,0-1.9231-0.861-1.9231-1.9231l0,0V12.8813C11,11.8193,11.861,10.9583,12.923,10.9583L12.923,10.9583z"/>
    <path fill="none" stroke="#00A5FF" stroke-width=".1" stroke-miterlimit="10" d="M18.2537,4h35.4926C54.991,4,56,5.009,56,6.2537 v59.4926C56,66.991,54.991,68,53.7463,68H18.2537C17.009,68,16,66.991,16,65.7463V6.2537C16,5.009,17.009,4,18.2537,4z"/>
    <path fill="none" stroke="#00A5FF" stroke-width=".1" stroke-miterlimit="10" d="M68,18.2537v35.4926 C68,54.991,66.991,56,65.7463,56H6.2537C5.009,56,4,54.991,4,53.7463V18.2537C4,17.009,5.009,16,6.2537,16h59.4926 C66.991,16,68,17.009,68,18.2537z"/>
    <circle fill="none" stroke="#00A5FF" stroke-width=".1" stroke-miterlimit="10" cx="36" cy="36" r="29"/>
  </g>
  <g id="color">
    <path fill="#92D3F5" d="M17,61v-4c0-4.9941,2.7617-7.1201,6.9844-9.4121c5.3633-2.458,16.5615-2.918,23.9482-0.1299 C51.251,48.9189,55,52.0059,55,57v4"/>
  </g>
  <g id="hair">
    <path fill="#F1B31C" d="M26,39c-4,0-5-5.9375-5-12.9375S26,12,36,12s15,7.0625,15,14.0625S50,39,46,39"/>
  </g>
  <g id="skin">
    <path fill="#FCEA2B" d="M25.833,30.334c0,9,4.04,14.666,10.1035,14.666c5.9365,0,10.1055-5.9307,10.1055-14.9307 C46.042,27.0693,46,26,46,26c-3-3-7-8-7-8c-4,3-7,6-13,7C26,25,25.833,25.334,25.833,30.334z"/>
    <path fill="#FCEA2B" d="M42.5557,38.4443l8-7c0,0,1-1,2,0s0,2,0,2l-5,6"/>
    <path fill="#FCEA2B" d="M50,60.958l-16-17l-3.5557-4l-1-1l-6-4.5557c0,0-1-1-2,0s0,2,0,2l3,3.5557c0,0,1,4,2,6 c0.6328,1.2647,3.5557,2,3.5557,2l2,2l8,11"/>
    <path fill="#FCEA2B" d="M22,60.958l16-17l3.5557-4l1-1l6-4.5557c0,0,1-1,2,0s0,2,0,2l-3,3.5557c0,0-1,4-2,6 c-0.6328,1.2647-3.5557,2-3.5557,2l-2,2l-8,11"/>
    <path fill="#FCEA2B" d="M29.4443,38.4443l-8-7c0,0-1-1-2,0s0,2,0,2l5,6"/>
  </g>
  <g id="skin-shadow"/>
  <g id="line">
    <path fill="none" stroke="#000000" stroke-width="2" stroke-linecap="round" stroke-linejoin="round" d="M22.0029,28 C22,27.3457,22,26.6777,22,26c0-7,5-14,14-14c8.834,0,14,7,14,14c0,0.5996,0.0039,1.1318,0.0049,1.666"/>
    <path d="M41.873,30c0,1.1045-0.8955,2-2,2c-1.1044,0-2-0.8955-2-2s0.8956-2,2-2C40.9775,28,41.873,28.8955,41.873,30"/>
    <path d="M33.873,30c0,1.1045-0.8955,2-2,2c-1.1044,0-2-0.8955-2-2s0.8956-2,2-2C32.9775,28,33.873,28.8955,33.873,30"/>
    <path fill="none" stroke="#000000" stroke-width="2" stroke-linecap="round" stroke-linejoin="round" d="M46.9629,29.998 C46.7813,27.5625,46,26,46,26c-3-3-7-8-7-8c-4,3-7,6-13,7c0,0-0.9287,0.873-1.0498,5.0693"/>
    <path fill="none" stroke="#000000" stroke-width="2" stroke-linecap="round" stroke-linejoin="round" d="M34,38 c1.75,0,1.5625,0,4,0"/>
    <path fill="none" stroke="#000000" stroke-width="2" stroke-linecap="round" stroke-linejoin="round" d="M47.9326,48.4492 C51.7822,49.627,55,52.9961,55,57v3"/>
    <path fill="none" stroke="#000000" stroke-width="2" stroke-linecap="round" stroke-linejoin="round" d="M17,60v-3 c0-3.9756,3.1719-7.3242,6.9844-8.5244"/>
    <path fill="none" stroke="#000000" stroke-width="2" stroke-linecap="round" stroke-linejoin="round" stroke-miterlimit="10" d="M42.5557,38.4443l8-7c0,0,1-1,2,0s0,2,0,2l-5,6"/>
    <path fill="none" stroke="#000000" stroke-width="2" stroke-linecap="round" stroke-linejoin="round" stroke-miterlimit="10" d="M29.4443,38.4443l-8-7c0,0-1-1-2,0s0,2,0,2l5,6"/>
    <line fill="none" stroke="#000000" stroke-width="2" stroke-linecap="round" stroke-linejoin="round" stroke-miterlimit="10" x1="36.002" y1="54.9473" x2="32" y2="60"/>
    <path fill="none" stroke="#000000" stroke-width="2" stroke-linecap="round" stroke-linejoin="round" stroke-miterlimit="10" d="M35.9688,45.5352l5.5869-6.0909l1-1l6-4.5556c0,0,1-1,2,0s0,2,0,2l-3,3.5556c0,0-1,4-2,6c-0.6328,1.2647-3.5557,2-3.5557,2 l-2.127,2"/>
    <line fill="none" stroke="#000000" stroke-width="2" stroke-linecap="round" stroke-linejoin="round" stroke-miterlimit="10" x1="22" y1="60" x2="32" y2="49.4443"/>
    <path fill="none" stroke="#000000" stroke-width="2" stroke-linecap="round" stroke-linejoin="round" stroke-miterlimit="10" d="M50,60L34,43.4443l-3.5557-4l-1-1l-6-4.5556c0,0-1-1-2,0s0,2,0,2l3,3.5556c0,0,1,4,2,6c0.6328,1.2647,3.5557,2,3.5557,2l2,2L40,60"/>
  </g>
</svg>
