<svg version="1.1" id="emoji" xmlns="http://www.w3.org/2000/svg" x="0" y="0" viewBox="0 0 72 72" enable-background="new 0 0 72 72" xml:space="preserve">
  <g id="grid">
    <path fill="#B3B3B3" d="M68,4v64H4V4H68 M72,0H0v72h72V0z"/>
    <path fill="none" stroke="#00A5FF" stroke-width=".1" stroke-miterlimit="10" d="M12.923,10.9583h46.1539 c1.0621,0,1.9231,0.861,1.9231,1.9231v0v46.1538c0,1.0621-0.861,1.9231-1.9231,1.9231H12.9231 c-1.0621,0-1.9231-0.861-1.9231-1.9231l0,0V12.8813C11,11.8193,11.861,10.9583,12.923,10.9583L12.923,10.9583z"/>
    <path fill="none" stroke="#00A5FF" stroke-width=".1" stroke-miterlimit="10" d="M18.2537,4h35.4926C54.991,4,56,5.009,56,6.2537 v59.4926C56,66.991,54.991,68,53.7463,68H18.2537C17.009,68,16,66.991,16,65.7463V6.2537C16,5.009,17.009,4,18.2537,4z"/>
    <path fill="none" stroke="#00A5FF" stroke-width=".1" stroke-miterlimit="10" d="M68,18.2537v35.4926 C68,54.991,66.991,56,65.7463,56H6.2537C5.009,56,4,54.991,4,53.7463V18.2537C4,17.009,5.009,16,6.2537,16h59.4926 C66.991,16,68,17.009,68,18.2537z"/>
    <circle fill="none" stroke="#00A5FF" stroke-width=".1" stroke-miterlimit="10" cx="36" cy="36" r="29"/>
  </g>
  <g id="color">
    <path fill="#92D3F5" d="M17,61v-4c0-4.9941,5.0078-9,10-9c6,5,12,5,18,0c4.9941,0,10,4.0059,10,9v4"/>
  </g>
  <g id="hair">
    <path fill="#F1B31C" d="M26,39c-4,0-4-6-4-13s4-14,14-14s14,7,14,14s0,13-4,13"/>
  </g>
  <g id="skin">
    <path fill="#FCEA2B" d="M24.9365,31c0,9,4.9365,14,11,14C41.873,45,47,40,47,31c0-3-1-4-1-4c-3-3-7-6-7-6c-4,3-7,4-13,5 C26,26,24.9365,26,24.9365,31z"/>
  </g>
  <g id="skin-shadow"/>
  <g id="line">
    <path fill="none" stroke="#000000" stroke-width="2" stroke-linecap="round" stroke-linejoin="round" d="M26,39c-4,0-4-6-4-13 s4-14,14-14s14,7,14,14s0,13-4,13"/>
    <path fill="none" stroke="#000000" stroke-width="2" stroke-linecap="round" stroke-linejoin="round" d="M17,60v-3 c0-4.9941,5.0078-9,10-9c6,5,12,5,18,0c4.9941,0,10,4.0059,10,9v3"/>
    <path d="M42,31c0,1.1045-0.8955,1-2,1s-2,0.1045-2-1s1-2,1-2C40.1045,29,42,29.8955,42,31"/>
    <path d="M34,31c0,1.1045-0.8955,1-2,1s-2,0.1045-2-1c0-1,2.0225-2,3.127-2C33.127,29,34,29.8955,34,31"/>
    <path fill="none" stroke="#000000" stroke-width="2" stroke-linecap="round" stroke-linejoin="round" d="M38,38.75c-1-1-3-1-4,0"/>
    <path fill="none" stroke="#000000" stroke-width="2" stroke-linejoin="round" d="M24.9365,31c0,9,4.9365,14,11,14 C41.873,45,47,40,47,31c0-3-1-4-1-4c-3-3-7-6-7-6c-4,3-9,5-13,5C26,26,24.9365,26,24.9365,31z"/>
  </g>
</svg>
