<svg id="emoji" xmlns="http://www.w3.org/2000/svg" viewBox="0 0 72 72">
  <title>1F3C1</title>
  <g id="grid">
    <path d="M68,4V68H4V4H68m4-4H0V72H72V0Z" fill="#b3b3b3"/>
    <path d="M12.923,10.9583H59.0769A1.9231,1.9231,0,0,1,61,12.8814V59.0352a1.9231,1.9231,0,0,1-1.9231,1.9231H12.9231A1.9231,1.9231,0,0,1,11,59.0352V12.8813A1.923,1.923,0,0,1,12.923,10.9583Z" fill="none" stroke="#00a5ff" stroke-miterlimit="10" stroke-width="0.1"/>
    <rect x="16" y="4" width="40" height="64" rx="2.2537" fill="none" stroke="#00a5ff" stroke-miterlimit="10" stroke-width="0.1"/>
    <rect x="16" y="4" width="40" height="64" rx="2.2537" transform="translate(72) rotate(90)" fill="none" stroke="#00a5ff" stroke-miterlimit="10" stroke-width="0.1"/>
    <circle cx="36" cy="36" r="29" fill="none" stroke="#00a5ff" stroke-miterlimit="10" stroke-width="0.1"/>
  </g>
  <g id="color">
    <g>
      <path d="M67,30s-.758-.379-2.0988-.89a41.4813,41.4813,0,0,0-12.0007-2.5992v10A41.4813,41.4813,0,0,1,64.9012,39.11C66.242,39.621,67,40,67,40Z"/>
      <path d="M40.9256,27.921A29.5343,29.5343,0,0,0,36,30a29.5053,29.5053,0,0,1-7.0771,2.6738v10A29.5053,29.5053,0,0,0,36,40a29.5343,29.5343,0,0,1,4.9256-2.079Z"/>
      <path d="M16.9136,33.2576a39.4092,39.4092,0,0,1-11.8773-3.34v10a39.4092,39.4092,0,0,0,11.8773,3.34Z"/>
      <path d="M52.9005,15.5112a32.8093,32.8093,0,0,0-11.9749,1.41v11a32.8093,32.8093,0,0,1,11.9749-1.41Z"/>
      <path d="M28.9229,21.6738a34.1166,34.1166,0,0,1-12.0093.5838v11a34.1166,34.1166,0,0,0,12.0093-.5838Z"/>
      <path d="M67,9s-.758-.379-2.0988-.89A41.4813,41.4813,0,0,0,52.9005,5.5112v10A41.4813,41.4813,0,0,1,64.9012,18.11C66.242,18.621,67,19,67,19Z"/>
      <path d="M40.9256,6A39.3021,39.3021,0,0,0,35,8c-2.3571,1.2571-3.738,2.4434-6.0771,3V21.6738A29.5053,29.5053,0,0,0,36,19a29.5343,29.5343,0,0,1,4.9256-2.079Z"/>
      <path d="M16.9136,12.2576a39.4092,39.4092,0,0,1-11.8773-3.34v10a39.4092,39.4092,0,0,0,11.8773,3.34Z"/>
    </g>
  </g>
  <g id="line">
    <g>
      <path d="M66.9637,40s-16-8-31,0S5,39.9174,5,39.9174v-32S20.9637,16,35.9637,8s31,0,31,0Z" fill="none" stroke="#000" stroke-linecap="round" stroke-linejoin="round" stroke-width="2"/>
      <line x1="5" y1="8.2278" x2="5" y2="67.7722" fill="none" stroke="#000" stroke-linecap="round" stroke-linejoin="round" stroke-width="2"/>
    </g>
  </g>
</svg>
