<svg version="1.1" id="emoji" xmlns="http://www.w3.org/2000/svg" x="0" y="0" viewBox="0 0 72 72" enable-background="new 0 0 72 72" xml:space="preserve">
  <g id="grid">
    <path fill="#B3B3B3" d="M68,4v64H4V4H68 M72,0H0v72h72V0z"/>
    <path fill="none" stroke="#00A5FF" stroke-width=".1" stroke-miterlimit="10" d="M12.9,11h46.2c1.1,0,1.9,0.9,1.9,1.9l0,0V59 c0,1.1-0.9,1.9-1.9,1.9H12.9C11.9,61,11,60.1,11,59l0,0V12.9C11,11.8,11.9,11,12.9,11L12.9,11z"/>
    <path fill="none" stroke="#00A5FF" stroke-width=".1" stroke-miterlimit="10" d="M18.3,4h35.5C55,4,56,5,56,6.3v59.5 c0,1.2-1,2.3-2.3,2.3H18.3C17,68,16,67,16,65.7V6.3C16,5,17,4,18.3,4z"/>
    <path fill="none" stroke="#00A5FF" stroke-width=".1" stroke-miterlimit="10" d="M68,18.3v35.5c0,1.2-1,2.3-2.3,2.3H6.3 C5,56,4,55,4,53.7V18.3C4,17,5,16,6.3,16h59.5C67,16,68,17,68,18.3z"/>
    <circle fill="none" stroke="#00A5FF" stroke-width=".1" stroke-miterlimit="10" cx="36" cy="36" r="29"/>
  </g>
  <g id="color">
    <path fill="#FFFFFF" d="M33.3,31.9L33.3,31.9z"/>
    <path fill="#EA5A47" d="M52.9,21.2c0,0,0.1,0.1,0.1,0.3v15.1l0,0c-1.1,0.4-3.1,0.5-5.8,0c-2.4-0.5-5.4-1.4-9-3 c-2.3-1.1-5.6-1.9-9.4-0.8c-2,0.4-4.1,1.2-6.4,2.8c-0.1,0.1-0.2,0.2-0.2,0.2v-2.6v-2.5V25v-2.9V18l0,0c0.3,0.5,0.9,0.6,1.4,0.3 c2.6-1.6,7.9-4,13.5-1.4c0.8,0.4,1.5,0.8,2.2,1.2c2.7,1.6,5.7,3.4,13.3,3C52.7,21.1,52.8,21.2,52.9,21.2z"/>
    <path fill="#F4AA41" d="M53,23.3v13.3l0,0c0,0.2-0.3,0.3-0.4,0.4c-1.4,0.7-6.2,1-14.7-3c-2.3-1.1-5.4-1.9-9-1.2 c-2,0.4-4.1,1.2-6.4,2.8c-0.1,0.1-0.2,0.2-0.2,0.2v-2.6v-2.5V28v-2.9v-2.9c0,0,7.6-6.7,16.1-2.9C42,20.9,43.9,23.8,53,23.3L53,23.3 L53,23.3z"/>
    <path fill="#FCEA2B" d="M52.9,26.2L52.9,26.2L53,36.7l0,0c0,0.2-0.3,0.3-0.4,0.4c-1.4,0.7-6.2,1-14.7-3c-2.3-1.1-5.4-1.9-9-1.2 c-2,0.4-4.1,1.2-6.4,2.8c-0.1,0.1-0.2,0.2-0.2,0.2v-2.6v-2.5v-2.9V25l0,0c0.4-0.3,7.8-6.6,16-2.9C41.8,23.9,43.7,26.7,52.9,26.2z"/>
    <path fill="#B1CC33" d="M52.9,29L52.9,29l0.1,7.6l0,0c0,0.2-0.3,0.3-0.4,0.4c-1.4,0.7-6.2,1-14.7-3c-2.3-1.1-5.4-1.9-9-1.2 c-2,0.4-4.1,1.2-6.4,2.8c-0.1,0.1-0.2,0.2-0.2,0.2v-2.6v-2.5v-2.9l0,0c0.4-0.3,7.8-6.6,16-2.9C41.8,26.7,43.7,29.6,52.9,29z"/>
    <path fill="#92D3F5" d="M52.9,31.9L52.9,31.9l0.1,4.8l0,0c0,0.2-0.3,0.3-0.4,0.4c-1.4,0.7-6.2,1-14.7-3c-2.3-1.1-5.4-1.9-9-1.2 c-2,0.4-4.1,1.2-6.4,2.8c-0.1,0.1-0.2,0.2-0.2,0.2v-2.6v-2.5l0,0c0.4-0.3,7.8-6.6,16-2.9C41.8,29.6,43.7,32.4,52.9,31.9z"/>
    <path fill="#FFFFFF" d="M53,34.6v2.1l0,0c0,0.2-0.3,0.3-0.4,0.4c-1.4,0.7-6.2,1-14.7-3c-2.3-1.1-5.4-1.9-9-1.2 c-2,0.4-4.1,1.2-6.4,2.8c-0.1,0.1-0.2,0.2-0.2,0.2l0,0l-0.1-2.5c0,0,0,0,0.1-0.1l0,0c0.9-0.8,6.6-5.4,14.4-2.8 C40.5,31.8,44.7,35.8,53,34.6z"/>
  </g>
  <g id="hair"/>
  <g id="skin"/>
  <g id="skin-shadow"/>
  <g id="line">
    <path fill="none" stroke="#000000" stroke-width="2" stroke-linecap="round" stroke-linejoin="round" stroke-miterlimit="10" d="M23.1,17.5c2.9-1.8,8.4-4.2,14.4-1.5c3.7,1.7,5.6,4.7,15,4.1c0.8,0,1.5,0.6,1.5,1.4c0,3.3,0,11.1,0,15.1c0,0.6-0.4,1.1-1,1.4 c-1.9,1-7.3,0.9-15.5-3c-3.4-1.6-8.6-2.6-14.5,1.4"/>
    <line fill="none" stroke="#000000" stroke-width="2" stroke-linecap="round" stroke-miterlimit="10" x1="19.3" y1="12.9" x2="19.3" y2="59.8"/>
    <path d="M54.5,23.6c0,0.5-0.4,1-0.9,1.1c-0.1,0-0.8,0.1-1.9,0.1c-2.5,0-7-0.3-10.6-2.3l-0.4-0.2c-4.7-2.6-8.8-4.9-17-0.5 c-0.5,0.3-1.3,0.1-1.5-0.4v-3.8c9.2-4.9,14.7-1.5,19.5,1.1l0.4,0.2c4.5,2.5,11.2,2,11.3,2c0.5-0.1,1,0.4,1.1,0.9 c0,0.4-0.2,0.8-0.5,1C54.3,22.9,54.5,23.2,54.5,23.6z"/>
    <path d="M51.7,29.5c-2.5,0-7.1-0.3-10.6-2.3L40.7,27c-4.7-2.6-8.7-4.9-17-0.5c-0.5,0.3-1.1,0.1-1.4-0.4s-0.1-1.1,0.4-1.4 c9.2-4.9,14.1-2.2,18.9,0.5l0.4,0.2c4.5,2.5,11.2,2,11.3,2c0.5-0.1,1,0.4,1.1,0.9c0,0.5-0.4,1-0.9,1.1 C53.5,29.5,52.8,29.5,51.7,29.5z"/>
    <path d="M51.7,34.3c-2.5,0-7.1-0.3-10.6-2.3l-0.4-0.2c-4.7-2.6-8.7-4.9-17-0.5c-0.5,0.3-1.1,0.1-1.4-0.4s-0.1-1.1,0.4-1.4 c9.2-4.9,14.1-2.2,18.9,0.5l0.4,0.2c4.5,2.5,11.2,2,11.3,2c0.5-0.1,1,0.4,1.1,0.9c0,0.5-0.4,1-0.9,1.1 C53.5,34.2,52.8,34.3,51.7,34.3z"/>
  </g>
  <g id="color-foreground">
    <path fill="#FFFFFF" d="M33.3,31.9L33.3,31.9z"/>
    <path fill="#EA5A47" d="M52.9,21.2c0,0,0.1,0.1,0.1,0.3v15.1l0,0c-1.1,0.4-3.1,0.5-5.8,0c-2.4-0.5-5.4-1.4-9-3 c-2.3-1.1-5.6-1.9-9.4-0.8c-2,0.4-4.1,1.2-6.4,2.8c-0.1,0.1-0.2,0.2-0.2,0.2v-2.6v-2.5V25v-2.9V18l0,0c0.3,0.5,0.9,0.6,1.4,0.3 c2.6-1.6,7.9-4,13.5-1.4c0.8,0.4,1.5,0.8,2.2,1.2c2.7,1.6,5.7,3.4,13.3,3C52.7,21.1,52.8,21.2,52.9,21.2z"/>
    <path fill="#F4AA41" d="M53,23.3v13.3l0,0c0,0.2-0.3,0.3-0.4,0.4c-1.4,0.7-6.2,1-14.7-3c-2.3-1.1-5.4-1.9-9-1.2 c-2,0.4-4.1,1.2-6.4,2.8c-0.1,0.1-0.2,0.2-0.2,0.2v-2.6v-2.5V28v-2.9v-2.9c0,0,7.6-6.7,16.1-2.9C42,20.9,43.9,23.8,53,23.3L53,23.3 L53,23.3z"/>
    <path fill="#FCEA2B" d="M52.9,26.2L52.9,26.2L53,36.7l0,0c0,0.2-0.3,0.3-0.4,0.4c-1.4,0.7-6.2,1-14.7-3c-2.3-1.1-5.4-1.9-9-1.2 c-2,0.4-4.1,1.2-6.4,2.8c-0.1,0.1-0.2,0.2-0.2,0.2v-2.6v-2.5v-2.9V25l0,0c0.4-0.3,7.8-6.6,16-2.9C41.8,23.9,43.7,26.7,52.9,26.2z"/>
    <path fill="#B1CC33" d="M52.9,29L52.9,29l0.1,7.6l0,0c0,0.2-0.3,0.3-0.4,0.4c-1.4,0.7-6.2,1-14.7-3c-2.3-1.1-5.4-1.9-9-1.2 c-2,0.4-4.1,1.2-6.4,2.8c-0.1,0.1-0.2,0.2-0.2,0.2v-2.6v-2.5v-2.9l0,0c0.4-0.3,7.8-6.6,16-2.9C41.8,26.7,43.7,29.6,52.9,29z"/>
    <path fill="#92D3F5" d="M52.9,31.9L52.9,31.9l0.1,4.8l0,0c0,0.2-0.3,0.3-0.4,0.4c-1.4,0.7-6.2,1-14.7-3c-2.3-1.1-5.4-1.9-9-1.2 c-2,0.4-4.1,1.2-6.4,2.8c-0.1,0.1-0.2,0.2-0.2,0.2v-2.6v-2.5l0,0c0.4-0.3,7.8-6.6,16-2.9C41.8,29.6,43.7,32.4,52.9,31.9z"/>
    <path fill="#FFFFFF" d="M53,34.6v2.1l0,0c0,0.2-0.3,0.3-0.4,0.4c-1.4,0.7-6.2,1-14.7-3c-2.3-1.1-5.4-1.9-9-1.2 c-2,0.4-4.1,1.2-6.4,2.8c-0.1,0.1-0.2,0.2-0.2,0.2l0,0l-0.1-2.5c0,0,0,0,0.1-0.1l0,0c0.9-0.8,6.6-5.4,14.4-2.8 C40.5,31.8,44.7,35.8,53,34.6z"/>
  </g>
</svg>
