<svg id="emoji" viewBox="0 0 72 72" xmlns="http://www.w3.org/2000/svg">
  <g id="grid">
    <path fill="#b3b3b3" d="M68,4V68H4V4H68m4-4H0V72H72V0Z"/>
    <path fill="none" stroke="#00a5ff" stroke-miterlimit="10" stroke-width="0.1" d="M12.923,10.9583H59.0769A1.9231,1.9231,0,0,1,61,12.8814V59.0352a1.9231,1.9231,0,0,1-1.9231,1.9231H12.9231A1.9231,1.9231,0,0,1,11,59.0352V12.8813A1.923,1.923,0,0,1,12.923,10.9583Z"/>
    <rect x="16" y="4" rx="2.2537" width="40" height="64" fill="none" stroke="#00a5ff" stroke-miterlimit="10" stroke-width="0.1"/>
    <rect x="16" y="4" rx="2.2537" width="40" height="64" transform="rotate(90 36 36)" fill="none" stroke="#00a5ff" stroke-miterlimit="10" stroke-width="0.1"/>
    <circle cx="36" cy="36" r="29" fill="none" stroke="#00a5ff" stroke-miterlimit="10" stroke-width="0.1"/>
  </g>
  <g id="color">
    <path fill="#FFFFFF" stroke="none" d="M22.3025,17.488c2.958-1.7983,8.6348-4.2326,14.7802-1.488c3.7823,1.6892,5.7769,4.6976,15.4209,4.1142 C53.3121,20.0653,54,20.7109,54,21.5248c0,3.3025,0,11.1393,0,15.1253c0,0.6226-0.4342,1.0771-0.9892,1.354 C51.0146,39,45.5555,38.939,37.0827,35c-3.4504-1.6041-8.7871-2.5683-14.8238,1.4425"/>
    <path fill="#FFFFFF" stroke="none" stroke-linecap="round" stroke-linejoin="round" stroke-miterlimit="10" stroke-width="2" d="M23.0844,17.488C25.9694,15.6897,31.5062,13.2554,37.5,16c3.689,1.6892,5.6344,4.6976,15.0405,4.1142 C53.3291,20.0653,54,20.7109,54,21.5248c0,3.3025,0,11.1393,0,15.1253c0,0.6226-0.4235,1.0771-0.9648,1.354 C51.0882,39,45.7637,38.939,37.5,35c-3.3653-1.6041-8.5703-2.5683-14.4582,1.4425"/>
  </g>
  <g id="hair"/>
  <g id="skin"/>
  <g id="skin-shadow"/>
  <g id="line">
    <path fill="none" stroke="#000000" stroke-linecap="round" stroke-linejoin="round" stroke-miterlimit="10" stroke-width="2" d="M23.0844,17.488C25.9694,15.6897,31.5062,13.2554,37.5,16c3.689,1.6892,5.6344,4.6976,15.0405,4.1142 C53.3291,20.0653,54,20.7109,54,21.5248c0,3.3025,0,11.1393,0,15.1253c0,0.6226-0.4235,1.0771-0.9648,1.354 C51.0882,39,45.7637,38.939,37.5,35c-3.3653-1.6041-8.5703-2.5683-14.4582,1.4425"/>
    <line x1="19.3271" x2="19.3271" y1="12.875" y2="59.8348" fill="none" stroke="#000000" stroke-linecap="round" stroke-miterlimit="10" stroke-width="2"/>
  </g>
</svg>
