<?xml version="1.0" encoding="UTF-8"?>
<svg id="emoji" xmlns="http://www.w3.org/2000/svg" viewBox="0 0 72 72">
  <g id="grid">
    <path d="m68,4v64H4V4h64M72,0H0v72h72V0Z" fill="#b3b3b3"/>
    <path d="m12.923,10.9583h46.1539c1.0621,0,1.9231.861,1.9231,1.9231h0v46.1538c0,1.0621-.861,1.9231-1.9231,1.9231H12.9231c-1.0621,0-1.9231-.861-1.9231-1.9231h0V12.8813c0-1.062.861-1.923,1.923-1.923h0Z" fill="none" stroke="#00a5ff" stroke-miterlimit="10" stroke-width=".1"/>
    <rect x="16" y="4" width="40" height="64" rx="2.2537" ry="2.2537" fill="none" stroke="#00a5ff" stroke-miterlimit="10" stroke-width=".1"/>
    <rect x="4" y="16" width="64" height="40" rx="2.2537" ry="2.2537" fill="none" stroke="#00a5ff" stroke-miterlimit="10" stroke-width=".1"/>
    <circle cx="36" cy="36" r="29" fill="none" stroke="#00a5ff" stroke-miterlimit="10" stroke-width=".1"/>
  </g>
  <g id="color">
    <polygon points="41.8465 36.3544 33.3056 36.3172 31.3127 36.3172 31.3127 39.2746 31.322 42.3685 39.0268 42.4022 41.8465 42.4022 41.8465 36.3544" fill="#fcea2b"/>
    <path d="m31.4162,41.6188l-.3429-3.7443c-.0066-.058-.0547-.1023-.113-.1044,0,0-18.948-1.9874-18.9454-1.8667l.259,7.6637,17.8099-1.608c.019,0,.0334.7369.0507.7291.14-.0634.9309-.6263,1.2009-.6934.0551-.0137.0872-.3197.0808-.3761Z" fill="#6a462f"/>
    <path d="m57.1237,38.6643h-14.9225v3.4808c0,.0911.512.1733.4892.2571l17.1333-.1903.253-6.0799c-.2349,1.9835-2.213,1.9629-2.953,2.5323Z" fill="#6a462f"/>
    <path d="m12.2584,36.8135s-.2216,1.9088,3.7599,1.8508c2.983-.0435,14.8516,0,14.8516,0l1.0237-1.8983,9.3992-.0793,1.3976,1.6962s11.9705.5109,14.4333.2814c3.2389-.3018,3-3.8906,3-3.9999v-14.7435H12.2584v16.8926Z" fill="#a57939"/>
    <path d="m42.7422,41.6533H12.7828l.0006.0206c.5383.0165-.525,1.3157-.525,1.858l.4953,15.3184h46.9289v-16.1626c0-.4933-.387-.8842.0825-.9664l-.2483-.068s-16.7746,0-16.7746,0Z" fill="#a57939"/>
  </g>
  <g id="line">
    <polyline points="31.4557 15.8909 31.4557 12.0523 41.7807 12.0523 41.7807 15.8909" fill="none" stroke="#000" stroke-linecap="round" stroke-linejoin="round" stroke-width="2"/>
    <polyline points="59.4326 42.6877 59.4326 58.8503 12.5037 58.8503 12.5037 42.668" fill="none" stroke="#000" stroke-linecap="round" stroke-linejoin="round" stroke-width="2"/>
    <path d="m41.9512,38.6643h14.9225c1.6569,0,3-1.3431,3-3v-15.7434H12.0084v15.7434c0,1.6569,1.3431,3,3,3h15.6115" fill="none" stroke="#000" stroke-linecap="round" stroke-linejoin="round" stroke-width="2"/>
    <rect x="31.167" y="36.3172" width="10.325" height="5.8279" fill="none" stroke="#000" stroke-linecap="round" stroke-linejoin="round" stroke-width="2"/>
  </g>
</svg>