<svg id="emoji" viewBox="0 0 72 72" xmlns="http://www.w3.org/2000/svg">
  <g id="grid">
    <path fill="#b3b3b3" d="M68,4V68H4V4H68m4-4H0V72H72V0Z"/>
    <path fill="none" stroke="#00a5ff" stroke-miterlimit="10" stroke-width="0.1" d="M12.923,10.9583H59.0769A1.9231,1.9231,0,0,1,61,12.8814V59.0352a1.9231,1.9231,0,0,1-1.9231,1.9231H12.9231A1.9231,1.9231,0,0,1,11,59.0352V12.8813A1.923,1.923,0,0,1,12.923,10.9583Z"/>
    <rect x="16" y="4" rx="2.2537" width="40" height="64" fill="none" stroke="#00a5ff" stroke-miterlimit="10" stroke-width="0.1"/>
    <rect x="16" y="4" rx="2.2537" width="40" height="64" transform="translate(72) rotate(90)" fill="none" stroke="#00a5ff" stroke-miterlimit="10" stroke-width="0.1"/>
    <circle cx="36" cy="36" r="29" fill="none" stroke="#00a5ff" stroke-miterlimit="10" stroke-width="0.1"/>
  </g>
  <g id="color">
    <polygon fill="#FCEA2B" stroke="none" points="41.5965,36.3544 33.0556,36.3172 31.0627,36.3172 31.0627,39.2746 31.072,42.3685 38.7768,42.4022 41.5965,42.4022"/>
    <path fill="#6A462F" stroke="none" d="M31.531,42.1451l-0.364-3.1784l-13.2004-0.4533c-1.9096,0-6.4631-0.1957-6.8589-1.9877l0.4298,5.8765h0.02 c0.1183-0.4203,0.4878,0.5745,0.9462,0.5745c0.4584,0,0.8283-0.9948,0.9466-0.5745h16.7685 C30.196,42.3184,31.531,42.2362,31.531,42.1451z"/>
    <path fill="#6A462F" stroke="none" d="M56.8737,38.6643H41.9512v3.4808c0,0.0911,0.512,0.1733,0.4892,0.2571h16.0498 c0.1244-0.4106,0.4909,0.7837,0.9424,0.7837s0.8181-1.1943,0.9425-0.7837h0.0119l0.4397-6.2702 C60.5918,38.1155,57.6137,38.0949,56.8737,38.6643z"/>
    <polygon fill="#6A462F" stroke="none" points="60.874,35.2788 60.874,35.4572 60.8865,35.2788"/>
    <path fill="#A57939" stroke="none" d="M12.0084,36.8135c0,0-0.2216,1.9088,3.7599,1.8508c2.983-0.0435,14.8516,0,14.8516,0l1.0237-1.8983 l9.3992-0.0793l1.3976,1.6962c0,0,11.9705,0.5109,14.4333,0.2814c3.2389-0.3018,3-3.8906,3-3.9999V19.9209H12.0084V36.8135z"/>
    <path fill="#A57939" stroke="none" d="M42.4922,41.6533H30.167H12.5328l0.0006,0.0206c0.5383,0.0165-0.525,1.3157-0.525,1.858l0.4953,15.3184 h46.9289V42.6877c0-0.4933-0.637-0.8842-0.1675-0.9664l0.0017-0.068H42.4922z"/>
  </g>
  <g id="hair"/>
  <g id="skin"/>
  <g id="skin-shadow"/>
  <g id="line">
    <polyline fill="none" stroke="#000000" stroke-linecap="round" stroke-linejoin="round" stroke-miterlimit="10" stroke-width="2" points="31.4557,15.8909 31.4557,12.0523 41.7807,12.0523 41.7807,15.8909"/>
    <polyline fill="none" stroke="#000000" stroke-linecap="round" stroke-linejoin="round" stroke-miterlimit="10" stroke-width="2" points="59.4326,42.6877 59.4326,58.8503 12.5037,58.8503 12.5037,42.668"/>
    <path fill="none" stroke="#000000" stroke-linecap="round" stroke-linejoin="round" stroke-miterlimit="10" stroke-width="2" d="M41.9512,38.6643h14.9225c1.6569,0,3-1.3431,3-3V19.9209H12.0084v15.7434c0,1.6569,1.3431,3,3,3h15.6115"/>
    <rect x="31.167" y="36.3172" width="10.325" height="5.8279" fill="none" stroke="#000000" stroke-linecap="round" stroke-linejoin="round" stroke-miterlimit="10" stroke-width="2"/>
  </g>
</svg>
