<svg id="emoji" xmlns="http://www.w3.org/2000/svg" viewBox="0 0 72 72">
  <g id="grid">
    <path d="M68,4V68H4V4H68m4-4H0V72H72V0Z" fill="#b3b3b3"/>
    <path d="M12.923,10.9583H59.0769A1.9231,1.9231,0,0,1,61,12.8814V59.0352a1.9231,1.9231,0,0,1-1.9231,1.9231H12.9231A1.9231,1.9231,0,0,1,11,59.0352V12.8813A1.923,1.923,0,0,1,12.923,10.9583Z" fill="none" stroke="#00a5ff" stroke-miterlimit="10" stroke-width="0.1"/>
    <rect x="16" y="4" width="40" height="64" rx="2.2537" ry="2.2537" fill="none" stroke="#00a5ff" stroke-miterlimit="10" stroke-width="0.1"/>
    <rect x="16" y="4" width="40" height="64" rx="2.2537" ry="2.2537" transform="translate(72) rotate(90)" fill="none" stroke="#00a5ff" stroke-miterlimit="10" stroke-width="0.1"/>
    <circle cx="36" cy="36" r="29" fill="none" stroke="#00a5ff" stroke-miterlimit="10" stroke-width="0.1"/>
  </g>
  <g id="color">
    <rect x="11" y="18.1926" width="9" height="4.8074" fill="#ea5a47"/>
    <rect x="22.8604" y="18.1926" width="9" height="4.8074" fill="#b1cc33"/>
    <rect x="34.7209" y="18.1926" width="9" height="4.8074" fill="#92d3f5"/>
    <rect x="11" y="23" width="50" height="30" fill="#d0cfce"/>
  </g>
  <g id="line">
    <path d="M11.9008,18.1926h7.1985A.9008.9008,0,0,1,20,19.0934V23a0,0,0,0,1,0,0H11a0,0,0,0,1,0,0V19.0934A.9008.9008,0,0,1,11.9008,18.1926Z" fill="none" stroke="#000" stroke-linecap="round" stroke-linejoin="round" stroke-width="2"/>
    <path d="M23.7612,18.1926H30.96a.9008.9008,0,0,1,.9008.9008V23a0,0,0,0,1,0,0h-9a0,0,0,0,1,0,0V19.0934A.9008.9008,0,0,1,23.7612,18.1926Z" fill="none" stroke="#000" stroke-linecap="round" stroke-linejoin="round" stroke-width="2"/>
    <path d="M35.6216,18.1926H42.82a.9008.9008,0,0,1,.9008.9008V23a0,0,0,0,1,0,0h-9a0,0,0,0,1,0,0V19.0934A.9008.9008,0,0,1,35.6216,18.1926Z" fill="none" stroke="#000" stroke-linecap="round" stroke-linejoin="round" stroke-width="2"/>
    <rect x="11" y="23" width="50" height="30" fill="none" stroke="#000" stroke-linecap="round" stroke-linejoin="round" stroke-width="2"/>
  </g>
</svg>
