<svg id="emoji" viewBox="0 0 72 72" xmlns="http://www.w3.org/2000/svg">
  <g id="grid">
    <path fill="#b3b3b3" d="M68,4V68H4V4H68m4-4H0V72H72V0Z"/>
    <path fill="none" stroke="#00a5ff" stroke-miterlimit="10" stroke-width="0.1" d="M12.923,10.9583H59.0769A1.9231,1.9231,0,0,1,61,12.8814V59.0352a1.9231,1.9231,0,0,1-1.9231,1.9231H12.9231A1.9231,1.9231,0,0,1,11,59.0352V12.8813A1.923,1.923,0,0,1,12.923,10.9583Z"/>
    <rect x="16" y="4" rx="2.2537" ry="2.2537" width="40" height="64" fill="none" stroke="#00a5ff" stroke-miterlimit="10" stroke-width="0.1"/>
    <rect x="16" y="4" rx="2.2537" ry="2.2537" width="40" height="64" transform="translate(72) rotate(90)" fill="none" stroke="#00a5ff" stroke-miterlimit="10" stroke-width="0.1"/>
    <circle cx="36" cy="36" r="29" fill="none" stroke="#00a5ff" stroke-miterlimit="10" stroke-width="0.1"/>
  </g>
  <g id="color">
    <path  fill="#ea5a47" stroke="none" stroke-linecap="round" stroke-linejoin="round" stroke-width="2" d="m 18.6 7 h 5.87 a 1.57 1.57 0 0 1 1.56 1.57 v 3.43 a 0 0 0 0 1 0 0 h -9 a 0 0 0 0 1 0 0 v -3.43 a 1.57 1.57 0 0 1 1.57 -1.57 z"/>
    <path  fill="#b1cc33" stroke="none" stroke-linecap="round" stroke-linejoin="round" stroke-width="2" d="m 30 7 h 5.87 a 1.57 1.57 0 0 1 1.56 1.57 v 3.43 a 0 0 0 0 1 0 0 h -9 a 0 0 0 0 1 0 0 v -3.43 a 1.57 1.57 0 0 1 1.57 -1.57 z"/>
    <path  fill="#92d3f5" stroke="none" stroke-linecap="round" stroke-linejoin="round" stroke-width="2" d="m 45 7 h 5.87 a 1.57 1.57 0 0 1 1.56 1.57 v 3.43 a 0 0 0 0 1 0 0 h -9 a 0 0 0 0 1 0 0 v -3.43 a 1.57 1.57 0 0 1 1.57 -1.57 z"/>
    <rect x="17" y="12" width="38" height="22" fill="#d0cfce" stroke="none" stroke-linecap="round" stroke-linejoin="round" stroke-width="2"/>
    <rect x="17" y="38" width="38" height="22" fill="#d0cfce" stroke="none" stroke-linecap="round" stroke-linejoin="round" stroke-width="2"/>
  </g>
  <g id="line">
    <path d="m 18.6 7 h 5.87 a 1.57 1.57 0 0 1 1.56 1.57 v 3.43 a 0 0 0 0 1 0 0 h -9 a 0 0 0 0 1 0 0 v -3.43 a 1.57 1.57 0 0 1 1.57 -1.57 z" fill="none" stroke="#000000" stroke-linecap="round" stroke-linejoin="round" stroke-width="2"/>
    <path d="m 30 7 h 5.87 a 1.57 1.57 0 0 1 1.56 1.57 v 3.43 a 0 0 0 0 1 0 0 h -9 a 0 0 0 0 1 0 0 v -3.43 a 1.57 1.57 0 0 1 1.57 -1.57 z" fill="none" stroke="#000000" stroke-linecap="round" stroke-linejoin="round" stroke-width="2"/>
    <path d="m 45 7 h 5.87 a 1.57 1.57 0 0 1 1.56 1.57 v 3.43 a 0 0 0 0 1 0 0 h -9 a 0 0 0 0 1 0 0 v -3.43 a 1.57 1.57 0 0 1 1.57 -1.57 z" fill="none" stroke="#000000" stroke-linecap="round" stroke-linejoin="round" stroke-width="2"/>
    <rect x="17" y="12" width="38" height="22" fill="none" stroke="#000" stroke-linecap="round" stroke-linejoin="round" stroke-width="2"/>
    <rect x="17" y="38" width="38" height="22" fill="none" stroke="#000" stroke-linecap="round" stroke-linejoin="round" stroke-width="2"/>
    <path fill="none" stroke="#000" stroke-linecap="round" stroke-linejoin="round" stroke-width="2" d="M28,31 v10"/>
    <path fill="none" stroke="#000" stroke-linecap="round" stroke-linejoin="round" stroke-width="2" d="M44,31 v10"/>
    <rect x="12" y="32" width="2" height="8" fill="#000" stroke="#000" stroke-linecap="round" stroke-linejoin="round" stroke-width="2"/>
    <rect x="58" y="32" width="2" height="8" fill="#000" stroke="#000" stroke-linecap="round" stroke-linejoin="round" stroke-width="2"/>
    <path fill="none" stroke="#000" stroke-linecap="round" stroke-linejoin="round" stroke-width="2" d="M22,18 h10"/>
    <path fill="none" stroke="#000" stroke-linecap="round" stroke-linejoin="round" stroke-width="2" d="M22,22 h19"/>
    <path fill="none" stroke="#000" stroke-linecap="round" stroke-linejoin="round" stroke-width="2" d="M22,26 h10"/>
  </g>
</svg>
