<?xml version="1.0" encoding="UTF-8"?>
<svg id="emoji" xmlns="http://www.w3.org/2000/svg" viewBox="0 0 72 72">
  <g id="grid">
    <path d="m68,4v64H4V4h64M72,0H0v72h72V0Z" fill="#b3b3b3"/>
    <path d="m12.923,10.9583h46.1539c1.0621,0,1.9231.861,1.9231,1.9231h0v46.1538c0,1.0621-.861,1.9231-1.9231,1.9231H12.9231c-1.0621,0-1.9231-.861-1.9231-1.9231h0V12.8813c0-1.062.861-1.923,1.923-1.923h0Z" fill="none" stroke="#00a5ff" stroke-miterlimit="10" stroke-width=".1"/>
    <rect x="16" y="4" width="40" height="64" rx="2.2537" ry="2.2537" fill="none" stroke="#00a5ff" stroke-miterlimit="10" stroke-width=".1"/>
    <rect x="4" y="16" width="64" height="40" rx="2.2537" ry="2.2537" fill="none" stroke="#00a5ff" stroke-miterlimit="10" stroke-width=".1"/>
    <circle cx="36" cy="36" r="29" fill="none" stroke="#00a5ff" stroke-miterlimit="10" stroke-width=".1"/>
  </g>
  <g id="color">
    <path d="m11.997,27.9165v32.1753l31.6594-.0054,16.489-11.9v-20.0946l-48.1484-.1753Z" fill="#fff"/>
    <path d="m19.2073,18.736c.0059-.6514-.7503-2.3148-.4458-2.8811-.1466-.5021,1.6993-3.5815,1.6993-3.5815h-8.4608l-.003,15,48.1484.305-.1454-15.305-6.6506-.375-1.9644,3.4982c.3652,1.0116.6716,1.8772.7819,2.139.3596.5433.7323,3.2262.7323,3.2264-.0197,1.9187-2.6538,2.2379-2.9272,2.2379-2.4384-.3664-2.7436-2.0798-2.7231-4.2859.0058-.6514-.3112-2.6719-.307-2.7145.0141-.1445,1.5385-3.7261,1.5385-3.7261h-22.9147l-2.2003,3.1232c.3652,1.0116,1.6155,4.6319,1.6155,4.6321-.0205,2.1914-1.2224,2.7459-3.0285,2.9712-1.8061.2253-2.7656-2.0578-2.7451-4.2639Z" fill="#ea5a47"/>
    <path d="m60.1454,48.1864l-17.2117-.3533s.7574,3.9405.2047,3.9405c-.502,0-.8989,2.3688-.9709,1.8871v5.9346l1.6823-.0774,16.2956-11.3315Z" fill="#d0cfce"/>
  </g>
  <g id="line">
    <polyline points="53.3494 12.2734 60 12.2734 60 28.2734 12 28.2734 12 12.2734 20.4608 12.2734" fill="none" stroke="#000" stroke-linecap="round" stroke-linejoin="round" stroke-width="2"/>
    <line x1="25.5657" y1="12.2734" x2="48.4804" y2="12.2734" fill="none" stroke="#000" stroke-linecap="round" stroke-linejoin="round" stroke-width="2"/>
    <path d="m53.3494,12.2752l-1.9644,3.1214s.9936,2.767,1.0851,2.8995c.3399.4916.5366,1.0894.5304,1.7326-.0158,1.6567-1.3717,2.987-3.0285,2.9712-1.6568-.0159-2.987-1.3718-2.9712-3.0286.006-.6212.2003-1.1966.5284-1.6723.0816-.1184-.9091-2.9024-.9091-2.9024l1.8603-3.1332" fill="none" stroke="#000" stroke-linecap="round" stroke-linejoin="round" stroke-width="2"/>
    <path d="m25.3298,12.2752l-1.9644,3.1214s.9936,2.767,1.0851,2.8995c.3399.4916.5366,1.0894.5304,1.7326-.0158,1.6567-1.3717,2.987-3.0285,2.9712-1.6568-.0159-2.987-1.3718-2.9712-3.0286.006-.6212.2003-1.1966.5284-1.6723.0816-.1184-.9091-2.9024-.9091-2.9024l1.8603-3.1332" fill="none" stroke="#000" stroke-linecap="round" stroke-linejoin="round" stroke-width="2"/>
    <path d="m34.3355,38.092c.5248-2.5644,2.7937-4.4936,5.5134-4.4936h0c1.5539,0,2.9609.63,3.9793,1.6484,1.5843,1.5842,1.438,4.2167-.0484,5.8928l-9.5586,10.7799h4.7601" fill="none" stroke="#000" stroke-linecap="round" stroke-linejoin="round" stroke-width="2"/>
    <polyline points="23.2764 37.3982 28.3485 33.5984 28.3485 51.9195" fill="none" stroke="#000" stroke-linecap="round" stroke-linejoin="round" stroke-width="2"/>
    <polyline points="11.997 28.0918 11.997 60.0918 43.6564 60.0864 59.997 48.0382 59.997 28.0918" fill="none" stroke="#000" stroke-linecap="round" stroke-linejoin="round" stroke-width="2"/>
    <polyline points="59.7462 48.0382 43.1384 48.0382 43.1384 53.5175" fill="none" stroke="#000" stroke-linecap="round" stroke-linejoin="round" stroke-width="2"/>
  </g>
</svg>