<svg id="emoji" viewBox="0 0 72 72" xmlns="http://www.w3.org/2000/svg">
  <g id="grid">
    <path fill="#B3B3B3" d="M68,4v64H4V4H68 M72,0H0v72h72V0z"/>
    <path fill="none" stroke="#00A5FF" stroke-miterlimit="10" stroke-width="0.1" d="M12.923,10.9583h46.1539 c1.0621,0,1.9231,0.861,1.9231,1.9231l0,0v46.1538c0,1.0621-0.861,1.9231-1.9231,1.9231H12.9231 c-1.0621,0-1.9231-0.861-1.9231-1.9231l0,0V12.8813C11,11.8193,11.861,10.9583,12.923,10.9583L12.923,10.9583z"/>
    <path fill="none" stroke="#00A5FF" stroke-miterlimit="10" stroke-width="0.1" d="M18.2537,4h35.4926C54.991,4,56,5.009,56,6.2537 v59.4926C56,66.991,54.991,68,53.7463,68H18.2537C17.009,68,16,66.991,16,65.7463V6.2537C16,5.009,17.009,4,18.2537,4z"/>
    <path fill="none" stroke="#00A5FF" stroke-miterlimit="10" stroke-width="0.1" d="M68,18.2537v35.4926 C68,54.991,66.991,56,65.7463,56H6.2537C5.009,56,4,54.991,4,53.7463V18.2537C4,17.009,5.009,16,6.2537,16h59.4926 C66.991,16,68,17.009,68,18.2537z"/>
    <circle cx="36" cy="36" r="29" fill="none" stroke="#00A5FF" stroke-miterlimit="10" stroke-width="0.1"/>
  </g>
  <g id="color">
    <circle cx="36" cy="35.974" r="22.974" fill="none" stroke="#FCEA2B" stroke-miterlimit="10" stroke-width="1.8"/>
    <path fill="#FCEA2B" d="M58.974,35.974C58.974,23.2858,48.6882,13,36,13S13.026,23.2858,13.026,35.974 c0,9.2251,5.4399,17.1755,13.2845,20.8309c0.7285,1.3763,1.0178,1.7228,1.1104,1.8066c-0.103,0.1788-0.486,1.4095-1.9045,7.7929 l9.7777,1.7777c0.0049-0.569-0.5494-1.9978,0.1463-6.5499c0.1984-1.2991,1.2104-1.764,2.1262-2.7433 C49.5233,58.0827,58.974,48.1351,58.974,35.974z"/>
  </g>
  <g id="hair"/>
  <g id="skin"/>
  <g id="skin-shadow"/>
  <g id="line">
    <path fill="none" stroke="#000000" stroke-linecap="round" stroke-linejoin="round" stroke-miterlimit="10" stroke-width="2" d="M48.1465,45.9216"/>
    <path fill="none" stroke="#000000" stroke-linecap="round" stroke-linejoin="round" stroke-miterlimit="10" stroke-width="2" d="M25.8128,65.6061c0.986-4.1556,1.6866-6.9627,1.6866-6.9627s-0.2806-0.0701-1.6914-2.8918 c-0.6304-1.2618-1.0776-5.4826-1.4109-8.467c-0.3128-2.8037,0.1092-3.5934,1.1069-3.5934s1.2238,0.816,1.7149,2.1825 c0.5241,1.4537,1.2783,2.8061,1.2783,2.8061c1.4976-4.4435,3.5699-8.1888,4.9886-9.9772c1.9954-2.5163,4.5589-0.3527,2.9932,1.9954 c-1.9954,2.9932-2.9932,5.9863-2.9932,5.9863"/>
    <path fill="none" stroke="#000000" stroke-linecap="round" stroke-linejoin="round" stroke-miterlimit="10" stroke-width="2" d="M36.4789,40.6981l0.9977-1.9954c2.2449-4.4897,4.9886-1.9954,3.9909,0c-1.0241,2.0475-2.9932,5.9863-3.9909,8.9795"/>
    <path fill="none" stroke="#000000" stroke-linecap="round" stroke-linejoin="round" stroke-miterlimit="10" stroke-width="2" d="M35.1734,67.3531c-0.0056-2.0734,0.0684-4.1501,0.3078-5.7165c0.266-1.7421,1.9954-1.9818,2.9932-3.9772 c2.9932-5.9863,1.8288-8.314,3.9909-13.9681c1.1273-2.9474-1.5609-3.7151-3.1199-0.5987"/>
    <path fill="none" stroke="#000000" stroke-linecap="round" stroke-linejoin="round" stroke-miterlimit="10" stroke-width="2" d="M42.7622,57.9594c9.3742-2.8817,16.1987-11.5988,16.2228-21.9205c0.0297-12.6949-10.2374-23.0091-22.9314-23.0388 c-12.6948-0.0297-23.0091,10.2365-23.0387,22.9313c-0.0165,7.0449,3.1383,13.3572,8.1194,17.5852"/>
    <path d="M30,31c0,1.6568-1.3448,3-3,3c-1.6553,0-3-1.3433-3-3c0-1.6552,1.3447-3,3-3C28.6552,28,30,29.3448,30,31"/>
    <path d="M48,31c0,1.6568-1.3447,3-3,3s-3-1.3433-3-3c0-1.6552,1.3447-3,3-3S48,29.3448,48,31"/>
  </g>
</svg>
