<svg id="emoji" viewBox="0 0 72 72" xmlns="http://www.w3.org/2000/svg">
  <g id="grid">
    <path fill="#B3B3B3" d="M68,4v64H4V4H68 M72,0H0v72h72V0z"/>
    <path fill="none" stroke="#00A5FF" stroke-miterlimit="10" stroke-width="0.1" d="M12.923,10.9583h46.1539 c1.0621,0,1.9231,0.861,1.9231,1.9231l0,0v46.1538c0,1.0621-0.861,1.9231-1.9231,1.9231H12.9231 c-1.0621,0-1.9231-0.861-1.9231-1.9231l0,0V12.8813C11,11.8193,11.861,10.9583,12.923,10.9583L12.923,10.9583z"/>
    <path fill="none" stroke="#00A5FF" stroke-miterlimit="10" stroke-width="0.1" d="M18.2537,4h35.4926C54.991,4,56,5.009,56,6.2537 v59.4926C56,66.991,54.991,68,53.7463,68H18.2537C17.009,68,16,66.991,16,65.7463V6.2537C16,5.009,17.009,4,18.2537,4z"/>
    <path fill="none" stroke="#00A5FF" stroke-miterlimit="10" stroke-width="0.1" d="M68,18.2537v35.4926 C68,54.991,66.991,56,65.7463,56H6.2537C5.009,56,4,54.991,4,53.7463V18.2537C4,17.009,5.009,16,6.2537,16h59.4926 C66.991,16,68,17.009,68,18.2537z"/>
    <circle cx="36" cy="36" r="29" fill="none" stroke="#00A5FF" stroke-miterlimit="10" stroke-width="0.1"/>
  </g>
  <g id="color">
    <circle cx="36" cy="36.1" r="23" fill="none" stroke="#FCEA2B" stroke-miterlimit="10" stroke-width="1.8"/>
    <path fill="#FCEA2B" d="m40.9 46.2c0.3-0.5 0.5-0.9 0.6-1 0.4-0.8 1.2-1.7 1.6-2.7 0.9-2.2-1.4-3.2-2.7-1.6 0.2-0.5 0.5-0.9 0.7-1.2 0.9-1.8-1.5-4.1-3.7-0.1l-1.1 1.9v-0.1c1.6-2.3-1-4.5-3-2-1.4 1.8-3.5 5.5-5 10 0 0-0.8-1.4-1.3-2.8s-0.7-2.2-1.7-2.2-1.4 0.8-1.1 3.6c0.3 3 0.8 7.2 1.4 8.5 1.4 2.8 1.7 2.9 1.7 2.9s-0.7 2.8-1.7 7l10 0.3c0.2-1.8 0.4-3.5 0.8-4.9 0.4-1.5 1.8-1.5 2.8-3.1 2.5-4 2.4-6.2 3.6-9.4 0.2-0.7 0.6-1.2 1-2 1.2-2.3-1.6-3.8-2.9-1.1z"/>
    <path fill="#FCEA2B" d="m59 36.1c0-12.7-10.3-23-23-23s-23 10.3-23 23c0 9.2 5.4 17.2 13.3 20.8 0.7 1.4 1.4-1.6 1.5-1.6-0.1 0.2 4-12.2 2.5-5.9l9.4 4.9c0-0.6-5 11.9-4.3 7.3 0.2-1.3 1.2-1.8 2.1-2.7 12-0.7 21.5-10.6 21.5-22.8z"/>
  </g>
  <g id="hair"/>
  <g id="skin"/>
  <g id="skin-shadow"/>
  <g id="line">
    <path fill="none" stroke="#000000" stroke-linecap="round" stroke-linejoin="round" stroke-miterlimit="10" stroke-width="2" d="m48 45.9"/>
    <g transform="translate(-.1 -.1)">
      <path fill="none" stroke="#000000" stroke-linecap="round" stroke-linejoin="round" stroke-miterlimit="10" stroke-width="2" d="m25.5 66.3c1-4.2 1.7-7 1.7-7s-0.3-0.1-1.7-2.9c-0.6-1.3-1.1-5.5-1.4-8.5-0.3-2.8 0.1-3.6 1.1-3.6s1.2 0.8 1.7 2.2c0.5 1.5 1.3 2.8 1.3 2.8 1.5-4.4 3.6-8.2 5-10 2-2.5 4.6-0.4 3 2-2 3-3 6-3 6"/>
      <path fill="none" stroke="#000000" stroke-linecap="round" stroke-linejoin="round" stroke-miterlimit="10" stroke-width="2" d="m25.5 66.3"/>
      <path fill="none" stroke="#000000" stroke-linecap="round" stroke-linejoin="round" stroke-miterlimit="10" stroke-width="2" d="m41.6 45.3c1.3-2.184 3.667-0.3666 2.3 2.1l-1 2c-1.2 3.3-1.3 5.2-3.8 9.2-1 1.6-2.4 1.7-2.8 3.1-0.3 1.3-0.6 3.1-0.8 4.9"/>
      <path fill="none" stroke="#000000" stroke-linecap="round" stroke-linejoin="round" stroke-miterlimit="10" stroke-width="2" d="m36.2 41.3c0.3236-0.5736 1.825-2.857 2.073-3.246 1.327-2.078 3.702-0.5025 2.684 1.532-0.2682 0.447-0.3331 0.709-0.6567 1.313-1.124 2.1-2.691 5.148-3.7 7.4"/>
      <path fill="none" stroke="#000000" stroke-linecap="round" stroke-linejoin="round" stroke-miterlimit="10" stroke-width="2" d="m40.3 40.9c1.2-1.6 3.6-0.6 2.7 1.6-0.4 1-1 2-1.4 2.8-0.3 0.5-2.1 3.633-2.9 5.2"/>
    </g>
    <path fill="none" stroke="#000000" stroke-linecap="round" stroke-linejoin="round" stroke-miterlimit="10" stroke-width="2" d="m42.7 58c9.3-2.9 16.2-11.6 16.2-22 0-12.7-10.2-23-22.9-23s-23 10.2-23 22.9c0 7 3.1 13.4 8.1 17.6"/>
    <path d="m29.9 31c0 1.7-1.3 3-3 3s-3-1.3-3-3 1.3-3 3-3 3 1.4 3 3"/>
    <path d="m47.9 31c0 1.7-1.3 3-3 3s-3-1.3-3-3 1.3-3 3-3 3 1.4 3 3"/>
  </g>
</svg>
