<svg id="emoji" xmlns="http://www.w3.org/2000/svg" viewBox="0 0 72 72">
  <g id="grid">
    <path d="M68,4V68H4V4H68m4-4H0V72H72V0Z" fill="#b3b3b3"></path>
    <path d="M12.923,10.9583H59.0769A1.9231,1.9231,0,0,1,61,12.8814V59.0352a1.9231,1.9231,0,0,1-1.9231,1.9231H12.9231A1.9231,1.9231,0,0,1,11,59.0352V12.8813A1.923,1.923,0,0,1,12.923,10.9583Z" fill="none" stroke="#00a5ff" stroke-miterlimit="10" stroke-width="0.1"></path>
    <rect x="16" y="4" width="40" height="64" rx="2.2537" fill="none" stroke="#00a5ff" stroke-miterlimit="10" stroke-width="0.1"></rect>
    <rect x="16" y="4" width="40" height="64" rx="2.2537" transform="translate(72) rotate(90)" fill="none" stroke="#00a5ff" stroke-miterlimit="10" stroke-width="0.1"></rect>
    <circle cx="36" cy="36" r="29" fill="none" stroke="#00a5ff" stroke-miterlimit="10" stroke-width="0.1"></circle>
  </g>
  <g id="color">
    <path fill="#fcea2b" d="M37.2002,13.3163c-12.5719,0-22.7998,10.2279-22.7998,22.7998c0,12.5718,10.2279,22.7998,22.7998,22.7998
		C49.772,58.9159,60,48.6879,60,36.1161C60,23.5442,49.772,13.3163,37.2002,13.3163z" stroke="none"></path>
  </g>
  <g id="hair">
  </g>
  <g id="skin">
  </g>
  <g id="skin-shadow">
  </g>
  <g id="line">
    <circle fill="none" stroke="#000000" stroke-width="2" stroke-miterlimit="10" cx="37" cy="36" r="23"></circle>
    <path fill="#000000" d="M31.3173,30.9252c0,1.6568-1.3448,3-3,3c-1.6553,0-3-1.3433-3-3c0-1.6552,1.3447-3,3-3
		C29.9725,27.9252,31.3173,29.27,31.3173,30.9252" stroke="none"></path>
    <path fill="#000000" d="M49.3173,30.9252c0,1.6568-1.3447,3-3,3s-3-1.3433-3-3c0-1.6552,1.3447-3,3-3
		S49.3173,29.27,49.3173,30.9252" stroke="none"></path>
    <path fill="none" stroke="#000000" stroke-width="2" stroke-linecap="round" stroke-linejoin="round" stroke-miterlimit="10" d="
		M48.6442,24.5833c-0.449,0.2959-2.431,1.5305-5.0607,1.0799c-2.1334-0.3656-3.4503-1.6274-3.8834-2.0815"></path>
    <path fill="none" stroke="#000000" stroke-width="2" stroke-linecap="round" stroke-linejoin="round" stroke-miterlimit="10" d="
		M25.7001,24.5833c0.449,0.2959,2.431,1.5305,5.0607,1.0799c2.1334-0.3656,3.4503-1.6274,3.8834-2.0815"></path>
    <path fill="#000000" stroke="#000000" stroke-width="2" stroke-miterlimit="10" d="M43,45c0,2.2091-2.7909,4-5,4s-5-1.7909-5-4
		s2.7909-3,5-3S43,42.7909,43,45z"></path>
  </g>
</svg>