<?xml version="1.0" encoding="utf-8"?>
<!-- Generator: Adobe Illustrator 22.0.1, SVG Export Plug-In . SVG Version: 6.00 Build 0)  -->
<svg version="1.1" id="emoji" xmlns="http://www.w3.org/2000/svg" xmlns:xlink="http://www.w3.org/1999/xlink" x="0px" y="0px"
	 viewBox="0 0 72 72" enable-background="new 0 0 72 72" xml:space="preserve">
<g id="grid">
	<path fill="#B3B3B3" d="M68,4v64H4V4H68 M72,0H0v72h72V0z"/>
	<path fill="none" stroke="#00A5FF" stroke-width="0.1" stroke-miterlimit="10" d="M12.923,10.9583h46.1539
		c1.0621,0,1.9231,0.861,1.9231,1.9231v0v46.1538c0,1.0621-0.861,1.9231-1.9231,1.9231H12.9231
		c-1.0621,0-1.9231-0.861-1.9231-1.9231l0,0V12.8813C11,11.8193,11.861,10.9583,12.923,10.9583L12.923,10.9583z"/>
	<path fill="none" stroke="#00A5FF" stroke-width="0.1" stroke-miterlimit="10" d="M18.2537,4h35.4926C54.991,4,56,5.009,56,6.2537
		v59.4926C56,66.991,54.991,68,53.7463,68H18.2537C17.009,68,16,66.991,16,65.7463V6.2537C16,5.009,17.009,4,18.2537,4z"/>
	<path fill="none" stroke="#00A5FF" stroke-width="0.1" stroke-miterlimit="10" d="M68,18.2537v35.4926
		C68,54.991,66.991,56,65.7463,56H6.2537C5.009,56,4,54.991,4,53.7463V18.2537C4,17.009,5.009,16,6.2537,16h59.4926
		C66.991,16,68,17.009,68,18.2537z"/>
	<circle fill="none" stroke="#00A5FF" stroke-width="0.1" stroke-miterlimit="10" cx="36" cy="36" r="29"/>
</g>
<g id="color">
	<circle fill="#FCEA2B" cx="40.4748" cy="32.5265" r="22.8242"/>
	<circle fill="none" stroke="#FCEA2B" stroke-width="1.8" stroke-miterlimit="10" cx="40.4748" cy="32.5265" r="22.8242"/>
	<path fill="#FFFFFF" d="M10.6492,43.5081c0,0,16.1561,1.2359,24.9516-9.8598c0.6645-0.8383,1.9857-2.2668,3.8806-0.9725
		c0,0,9.3223,7.9456-10.9712,28.6664c0,0,0.0158-4.8296-2.3762-4.3161c-4.3887,0.9421-12.0961,4.156-17.8809,1.6287
		C8.2531,58.6548,22.3798,52.318,10.6492,43.5081z"/>
</g>
<g id="hair">
</g>
<g id="skin">
</g>
<g id="skin-shadow">
</g>
<g id="line">
	<path fill="none" stroke="#000000" stroke-width="2" stroke-linecap="round" stroke-linejoin="round" stroke-miterlimit="10" d="
		M54.4206,40.5019"/>
	<path fill="none" stroke="#000000" stroke-width="2" stroke-linecap="round" stroke-linejoin="round" stroke-miterlimit="10" d="
		M26.5795,40.5019"/>
	
		<polyline fill="none" stroke="#000000" stroke-width="2" stroke-linecap="round" stroke-linejoin="round" stroke-miterlimit="10" points="
		30.1384,23.9391 36.7254,27.9531 30.1384,31.691 	"/>
	
		<polyline fill="none" stroke="#000000" stroke-width="2" stroke-linecap="round" stroke-linejoin="round" stroke-miterlimit="10" points="
		51.8028,23.9391 45.2158,27.9531 51.8028,31.691 	"/>
	<path fill="none" stroke="#000000" stroke-width="2" stroke-linecap="round" stroke-linejoin="round" stroke-miterlimit="10" d="
		M39.7338,55.5086c0.3041,0.0119,0.6098,0.0179,0.9169,0.0179c12.7022,0,23-10.2978,23-23c0-12.7031-10.2978-23-23-23
		c-12.7031,0-23,10.2969-23,23c0,1.914,0.2338,3.7733,0.6744,5.5511"/>
	
		<polyline fill="none" stroke="#000000" stroke-width="2" stroke-linecap="round" stroke-linejoin="round" stroke-miterlimit="10" points="
		39.58,46.5298 42.78,47.6198 45.73,42.7998 49.36,45.6498 51.42,43.2898 	"/>
	<path fill="none" stroke="#000000" stroke-width="2" stroke-linecap="round" stroke-linejoin="round" stroke-miterlimit="10" d="
		M10.6492,43.5081c0,0,16.1561,1.2359,24.9516-9.8598c0.6645-0.8383,1.9857-2.2668,3.8806-0.9725c0,0,9.3223,7.9456-10.9712,28.6664
		c0,0,0.0158-4.8296-2.3762-4.3161c-4.3887,0.9421-12.0961,4.156-17.8809,1.6287C8.2531,58.6548,22.3798,52.318,10.6492,43.5081z"/>
</g>
</svg>
