<?xml version="1.0" encoding="utf-8"?>
<!-- Generator: Adobe Illustrator 23.0.1, SVG Export Plug-In . SVG Version: 6.00 Build 0)  -->
<svg version="1.1" id="emoji" xmlns="http://www.w3.org/2000/svg" xmlns:xlink="http://www.w3.org/1999/xlink" x="0px" y="0px"
	 viewBox="0 0 72 72" enable-background="new 0 0 72 72" xml:space="preserve">
<g id="grid">
	<path fill="#B3B3B3" d="M68,4v64H4V4H68 M72,0H0v72h72V0z"/>
	<path fill="none" stroke="#00A5FF" stroke-width="0.1" stroke-miterlimit="10" d="M12.923,10.9583h46.1539
		c1.0621,0,1.9231,0.861,1.9231,1.9231v0v46.1538c0,1.0621-0.861,1.9231-1.9231,1.9231H12.9231
		c-1.0621,0-1.9231-0.861-1.9231-1.9231l0,0V12.8813C11,11.8193,11.861,10.9583,12.923,10.9583L12.923,10.9583z"/>
	<path fill="none" stroke="#00A5FF" stroke-width="0.1" stroke-miterlimit="10" d="M18.2537,4h35.4926C54.991,4,56,5.009,56,6.2537
		v59.4926C56,66.991,54.991,68,53.7463,68H18.2537C17.009,68,16,66.991,16,65.7463V6.2537C16,5.009,17.009,4,18.2537,4z"/>
	<path fill="none" stroke="#00A5FF" stroke-width="0.1" stroke-miterlimit="10" d="M68,18.2537v35.4926
		C68,54.991,66.991,56,65.7463,56H6.2537C5.009,56,4,54.991,4,53.7463V18.2537C4,17.009,5.009,16,6.2537,16h59.4926
		C66.991,16,68,17.009,68,18.2537z"/>
	<circle fill="none" stroke="#00A5FF" stroke-width="0.1" stroke-miterlimit="10" cx="36" cy="36" r="29"/>
</g>
<g id="color">
	<path fill="#FCEA2B" d="M60.8015,37.0192c0,13.1452-10.6563,23.8015-23.8015,23.8015S13.1985,50.1644,13.1985,37.0192
		S23.8781,12.4357,37,13.2177C45.4297,13.72,60.8015,23.8739,60.8015,37.0192z"/>
	<path fill="#92D3F5" d="M23.8473,12c-1.9329,1.978-4.592,5.2614-4.9104,9.6211c-0.1995,2.7305,2.0079,5.2834,4.7331,5.4814
		c2.8173,0.2052,5.2757-1.9175,5.4836-4.7329l0,0C29.471,18.0087,26,14,23.8473,12z"/>
</g>
<g id="hair">
</g>
<g id="skin">
</g>
<g id="skin-shadow">
</g>
<g id="line">
	<path fill="none" stroke="#000000" stroke-width="2" stroke-miterlimit="10" d="M20.5608,25.0122
		c-0.956-0.956-1.4825-2.227-1.4822-3.5789c-0.0001-4.4502,4.2068-8.7082,4.3857-8.8871c0.3722-0.3722,0.975-0.372,1.347,0
		c0.1792,0.1792,4.386,4.4373,4.3869,8.8883l0.0003,0.0003c-0.0013,2.7888-2.2715,5.0583-5.0605,5.0579
		C22.7874,26.4944,21.5168,25.9682,20.5608,25.0122z"/>
	<path fill="none" stroke="#000000" stroke-width="2" stroke-linecap="round" stroke-linejoin="round" stroke-miterlimit="10" d="
		M29,47c1.5805-2.5575,4.9043-4.1349,8.4211-4.0038C40.6499,43.1166,43.5622,44.6595,45,47"/>
	<path fill="none" stroke="#000000" stroke-width="2" stroke-linecap="round" stroke-linejoin="round" stroke-miterlimit="10" d="
		M41,33.7253c0.4132-0.344,2.2456-1.7915,4.9091-1.6364c2.1608,0.1259,3.61,1.2333,4.0909,1.6364"/>
	<path fill="none" stroke="#000000" stroke-width="2" stroke-linecap="round" stroke-linejoin="round" stroke-miterlimit="10" d="
		M23,33.7253c0.4132-0.344,2.2456-1.7915,4.9091-1.6364c2.1608,0.1259,3.61,1.2333,4.0909,1.6364"/>
	<path fill="none" stroke="#000000" stroke-width="2" stroke-linecap="round" stroke-linejoin="round" stroke-miterlimit="10" d="
		M31.6099,14.6188c0.9899-0.237,2.4251-0.5152,3.8985-0.5704c8.5112-0.319,23.4779,6.6056,24.4433,21.4598
		c0.8239,12.6758-8.784,23.6194-21.4598,24.4433s-23.6194-8.784-24.4433-21.4598c-0.3424-5.2686,1.3034-9.5859,2.4456-11.8925"/>
</g>
</svg>
