<svg id="emoji" xmlns="http://www.w3.org/2000/svg" viewBox="0 0 72 72">
  <g id="grid">
    <path d="M68,4V68H4V4H68m4-4H0V72H72V0Z" fill="#b3b3b3"></path>
    <path d="M12.923,10.9583H59.0769A1.9231,1.9231,0,0,1,61,12.8814V59.0352a1.9231,1.9231,0,0,1-1.9231,1.9231H12.9231A1.9231,1.9231,0,0,1,11,59.0352V12.8813A1.923,1.923,0,0,1,12.923,10.9583Z" fill="none" stroke="#00a5ff" stroke-miterlimit="10" stroke-width="0.1"></path>
    <rect x="16" y="4" width="40" height="64" rx="2.2537" fill="none" stroke="#00a5ff" stroke-miterlimit="10" stroke-width="0.1"></rect>
    <rect x="16" y="4" width="40" height="64" rx="2.2537" transform="translate(72) rotate(90)" fill="none" stroke="#00a5ff" stroke-miterlimit="10" stroke-width="0.1"></rect>
    <circle cx="36" cy="36" r="29" fill="none" stroke="#00a5ff" stroke-miterlimit="10" stroke-width="0.1"></circle>
  </g>
  <g id="color">
    <rect x="7.8871" y="8.0565" clip-path="url(#SVGID_2_)" fill="#FCEA2B" width="55.25" height="56" stroke="none"></rect>
    <circle fill="none" stroke="#fcea2b" stroke-miterlimit="10" cx="35.8871" cy="36.0565" r="23"></circle>
  </g>
  <g id="hair">
  </g>
  <g id="skin">
  </g>
  <g id="skin-shadow">
  </g>
  <g id="line">
    <polygon id="SVGID_1_" points="35.8871,59.0565 44.5169,57.3768 49.8167,54.3563 54.7074,49.2772 58.1371,41.9266 
				58.1371,29.5868 52.5375,20.1864 44.5169,14.7362 35.8871,13.0565 28.7074,14.2069 20.9974,18.5369 15.8871,24.6961 
				12.8871,33.9061 13.6371,41.8866 17.4466,49.7967 21.6566,54.117 28.9066,57.9764 			" fill="#000000" stroke="none"></polygon>
    <circle fill="none" stroke="#000000" stroke-width="2" stroke-linecap="round" stroke-linejoin="round" stroke-miterlimit="10" cx="35.8871" cy="36.0565" r="23"></circle>
    <circle cx="26.8225" cy="40.076" r="2.5556" fill="#000000" stroke="none"></circle>
    <circle cx="44.0725" cy="40.076" r="2.5556" fill="#000000" stroke="none"></circle>
    <path fill="none" stroke="#000000" stroke-width="2" stroke-linecap="round" stroke-linejoin="round" stroke-miterlimit="10" d="
		M26.0724,27.2509c6.574-3.5248,14.0454-3.6576,19.6295,0"></path>
  </g>
</svg>