<svg id="emoji" xmlns="http://www.w3.org/2000/svg" viewBox="0 0 72 72">
  <g id="grid">
    <path d="M68,4V68H4V4H68m4-4H0V72H72V0Z" fill="#b3b3b3"></path>
    <path d="M12.923,10.9583H59.0769A1.9231,1.9231,0,0,1,61,12.8814V59.0352a1.9231,1.9231,0,0,1-1.9231,1.9231H12.9231A1.9231,1.9231,0,0,1,11,59.0352V12.8813A1.923,1.923,0,0,1,12.923,10.9583Z" fill="none" stroke="#00a5ff" stroke-miterlimit="10" stroke-width="0.1"></path>
    <rect x="16" y="4" width="40" height="64" rx="2.2537" fill="none" stroke="#00a5ff" stroke-miterlimit="10" stroke-width="0.1"></rect>
    <rect x="16" y="4" width="40" height="64" rx="2.2537" transform="translate(72) rotate(90)" fill="none" stroke="#00a5ff" stroke-miterlimit="10" stroke-width="0.1"></rect>
    <circle cx="36" cy="36" r="29" fill="none" stroke="#00a5ff" stroke-miterlimit="10" stroke-width="0.1"></circle>
  </g>
  <g id="color">
    <rect x="8" y="8.5991" clip-path="url(#SVGID_2_)" fill="#FCEA2B" width="56" height="56" stroke="none"></rect>
    <rect x="33" y="19.5991" clip-path="url(#SVGID_4_)" fill="#FFFFFF" width="26" height="26" stroke="none"></rect>
    <rect x="13" y="19.5991" clip-path="url(#SVGID_8_)" fill="#FFFFFF" width="26" height="26" stroke="none"></rect>
  </g>
  <g id="hair">
  </g>
  <g id="skin">
  </g>
  <g id="skin-shadow">
  </g>
  <g id="line">
    <circle id="SVGID_1_" cx="36" cy="36.5991" r="23" fill="#000000" stroke="none"></circle>
    <circle id="SVGID_3_" cx="46" cy="32.5991" r="6.5" fill="#000000" stroke="none"></circle>
    <circle id="SVGID_5_" cx="46.0556" cy="28.5991" r="2.5556" fill="#000000" stroke="none"></circle>
    <rect x="37.1111" y="19.6547" clip-path="url(#SVGID_6_)" width="17.8889" height="17.8889" fill="#000000" stroke="none"></rect>
    <circle id="SVGID_7_" cx="26" cy="32.5991" r="6.5" fill="#000000" stroke="none"></circle>
    <circle id="SVGID_9_" cx="26.0556" cy="28.5991" r="2.5556" fill="#000000" stroke="none"></circle>
    <rect x="17.1111" y="19.6547" clip-path="url(#SVGID_10_)" width="17.8889" height="17.8889" fill="#000000" stroke="none"></rect>
    <circle fill="none" stroke="#000000" stroke-width="2" stroke-linecap="round" stroke-linejoin="round" stroke-miterlimit="10" cx="36" cy="36.5991" r="23"></circle>
    <circle fill="none" stroke="#000000" stroke-width="2" stroke-miterlimit="10" cx="46" cy="32.5991" r="6.5"></circle>
    <circle fill="none" stroke="#000000" stroke-width="2" stroke-miterlimit="10" cx="26" cy="32.5991" r="6.5"></circle>
    <line fill="none" stroke="#000000" stroke-width="2" stroke-linecap="round" stroke-linejoin="round" stroke-miterlimit="10" x1="31" y1="50.0958" x2="41" y2="50.0958"></line>
  </g>
</svg>