<?xml version="1.0" encoding="utf-8"?>
<!-- Generator: Adobe Illustrator 23.0.1, SVG Export Plug-In . SVG Version: 6.00 Build 0)  -->
<svg version="1.1" id="emoji" xmlns="http://www.w3.org/2000/svg" xmlns:xlink="http://www.w3.org/1999/xlink" x="0px" y="0px"
	 viewBox="0 0 72 72" enable-background="new 0 0 72 72" xml:space="preserve">
<g id="grid">
	<path fill="#B3B3B3" d="M68,4v64H4V4H68 M72,0H0v72h72V0z"/>
	<path fill="none" stroke="#00A5FF" stroke-width="0.1" stroke-miterlimit="10" d="M12.923,10.9583h46.1539
		c1.0621,0,1.9231,0.861,1.9231,1.9231v0v46.1538c0,1.0621-0.861,1.9231-1.9231,1.9231H12.9231
		c-1.0621,0-1.9231-0.861-1.9231-1.9231l0,0V12.8813C11,11.8193,11.861,10.9583,12.923,10.9583L12.923,10.9583z"/>
	<path fill="none" stroke="#00A5FF" stroke-width="0.1" stroke-miterlimit="10" d="M18.2537,4h35.4926C54.991,4,56,5.009,56,6.2537
		v59.4926C56,66.991,54.991,68,53.7463,68H18.2537C17.009,68,16,66.991,16,65.7463V6.2537C16,5.009,17.009,4,18.2537,4z"/>
	<path fill="none" stroke="#00A5FF" stroke-width="0.1" stroke-miterlimit="10" d="M68,18.2537v35.4926
		C68,54.991,66.991,56,65.7463,56H6.2537C5.009,56,4,54.991,4,53.7463V18.2537C4,17.009,5.009,16,6.2537,16h59.4926
		C66.991,16,68,17.009,68,18.2537z"/>
	<circle fill="none" stroke="#00A5FF" stroke-width="0.1" stroke-miterlimit="10" cx="36" cy="36" r="29"/>
</g>
<g id="color">
	<ellipse fill="#FCEA2B" cx="35.2942" cy="35.7493" rx="22.2958" ry="22.2958"/>
	<path fill="#9B9B9A" d="M58.2965,54.5549l-1.9462,1.9462c-0.9381,0.9381-2.459,0.9381-3.397,0l-4.8606-4.8606
		c-0.9381-0.9381-0.9381-2.459,0-3.397l1.9462-1.9462c0.9381-0.9381,2.459-0.9381,3.397,0l4.8606,4.8606
		C59.2345,52.0959,59.2345,53.6168,58.2965,54.5549z"/>
	<path fill="#D0CFCE" d="M50.3547,48.1442l-0.5122,0.5122c-0.2878,0.2878-0.7544,0.2878-1.0421,0l-1.6157-1.6157
		c-0.2878-0.2878-0.2878-0.7544,0-1.0421l0.5122-0.5122c0.2878-0.2878,0.7544-0.2878,1.0421,0l1.6157,1.6157
		C50.6425,47.3898,50.6425,47.8564,50.3547,48.1442z"/>
</g>
<g id="hair">
</g>
<g id="skin">
</g>
<g id="skin-shadow">
</g>
<g id="line">
	<ellipse cx="43.2389" cy="31.8836" rx="2.4773" ry="2.4773"/>
	<ellipse cx="26.5149" cy="31.821" rx="2.4773" ry="2.4773"/>
	
		<line fill="none" stroke="#000000" stroke-width="2" stroke-linecap="round" stroke-linejoin="round" stroke-miterlimit="10" x1="47.7051" y1="46.0939" x2="24.0398" y2="46.0051"/>
	
		<line fill="none" stroke="#000000" stroke-width="2" stroke-linecap="round" stroke-linejoin="round" stroke-miterlimit="10" x1="24.5607" y1="46.2751" x2="24.5607" y2="49.5781"/>
	
		<line fill="none" stroke="#000000" stroke-width="2" stroke-linecap="round" stroke-linejoin="round" stroke-miterlimit="10" x1="26.4723" y1="42.4353" x2="26.4723" y2="45.7383"/>
	
		<line fill="none" stroke="#000000" stroke-width="2" stroke-linecap="round" stroke-linejoin="round" stroke-miterlimit="10" x1="28.4129" y1="46.2751" x2="28.4129" y2="49.5781"/>
	
		<line fill="none" stroke="#000000" stroke-width="2" stroke-linecap="round" stroke-linejoin="round" stroke-miterlimit="10" x1="30.3245" y1="42.4353" x2="30.3245" y2="45.7383"/>
	
		<line fill="none" stroke="#000000" stroke-width="2" stroke-linecap="round" stroke-linejoin="round" stroke-miterlimit="10" x1="32.2527" y1="46.2751" x2="32.2527" y2="49.5781"/>
	
		<line fill="none" stroke="#000000" stroke-width="2" stroke-linecap="round" stroke-linejoin="round" stroke-miterlimit="10" x1="34.1643" y1="42.4353" x2="34.1643" y2="45.7383"/>
	
		<line fill="none" stroke="#000000" stroke-width="2" stroke-linecap="round" stroke-linejoin="round" stroke-miterlimit="10" x1="36.1049" y1="46.2751" x2="36.1049" y2="49.5781"/>
	
		<line fill="none" stroke="#000000" stroke-width="2" stroke-linecap="round" stroke-linejoin="round" stroke-miterlimit="10" x1="38.0165" y1="42.4353" x2="38.0165" y2="45.7383"/>
	
		<line fill="none" stroke="#000000" stroke-width="2" stroke-linecap="round" stroke-linejoin="round" stroke-miterlimit="10" x1="39.9323" y1="46.2751" x2="39.9323" y2="49.5781"/>
	
		<line fill="none" stroke="#000000" stroke-width="2" stroke-linecap="round" stroke-linejoin="round" stroke-miterlimit="10" x1="41.8439" y1="42.4353" x2="41.8439" y2="45.7383"/>
	
		<line fill="none" stroke="#000000" stroke-width="2" stroke-linecap="round" stroke-linejoin="round" stroke-miterlimit="10" x1="43.8134" y1="46.2751" x2="43.8134" y2="49.5781"/>
	
		<line fill="none" stroke="#000000" stroke-width="2" stroke-linecap="round" stroke-linejoin="round" stroke-miterlimit="10" x1="45.7003" y1="42.4353" x2="45.7003" y2="45.7383"/>
	<path fill="none" stroke="#000000" stroke-width="2" stroke-linecap="round" stroke-miterlimit="10" d="M50.9177,45.7373
		c0.8493-0.3076,1.8373-0.121,2.5182,0.56l4.8606,4.8606c0.938,0.938,0.938,2.4589,0,3.397l-1.9462,1.9462
		c-0.9381,0.9381-2.459,0.9381-3.397,0l-4.8606-4.8606c-0.6461-0.6461-0.8472-1.5687-0.6033-2.3869"/>
	<path fill="none" stroke="#000000" stroke-width="2" stroke-miterlimit="10" d="M48.6244,47.9266"/>
	<path fill="none" stroke="#000000" stroke-width="2" stroke-linecap="round" stroke-linejoin="round" stroke-miterlimit="10" d="
		M55.6911,44.7255c1.2216-2.7579,1.9002-5.8098,1.9002-9.0202c0-12.3141-9.9825-22.2956-22.2956-22.2956
		C22.9824,13.4096,13,23.3912,13,35.7053c0,12.3132,9.9824,22.2956,22.2956,22.2956c4.3513,0,8.4116-1.2467,11.8431-3.4023"/>
</g>
</svg>
