<svg id="emoji" viewBox="0 0 72 72" version="1.1" xmlns="http://www.w3.org/2000/svg">
  <g id="grid">
    <path fill="#b3b3b3" d="M68,4V68H4V4H68m4-4H0V72H72V0Z"/>
    <path fill="none" stroke="#00a5ff" stroke-miterlimit="10" stroke-width="0.1" d="m12.92 10.96h46.15a1.923 1.923 0 0 1 1.923 1.923v46.15a1.923 1.923 0 0 1-1.923 1.923h-46.15a1.923 1.923 0 0 1-1.923-1.923v-46.15a1.923 1.923 0 0 1 1.923-1.923z"/>
    <rect x="16" y="4" rx="2.254" ry="2.254" width="40" height="64" fill="none" stroke="#00a5ff" stroke-miterlimit="10" stroke-width="0.1"/>
    <rect x="16" y="4" rx="2.254" ry="2.254" width="40" height="64" transform="translate(72) rotate(90)" fill="none" stroke="#00a5ff" stroke-miterlimit="10" stroke-width="0.1"/>
    <circle cx="36" cy="36" r="29" fill="none" stroke="#00a5ff" stroke-miterlimit="10" stroke-width="0.1"/>
  </g>
  <g id="color">
    <rect x="12" y="12" width="48" height="47.83" fill="#92d3f5"/>
  </g>
  <g id="line" fill="none" stroke="#000" stroke-linecap="round" stroke-linejoin="round">
    <line x1="12.99" x2="12.99" y1="25.97" y2="44.71" transform="matrix(.8996 0 0 .8996 24.19 4.291)" stroke-width="5.314"/>
    <line x1="5.148" x2="20.83" y1="30.2" y2="40.47" transform="matrix(.8996 0 0 .8996 24.19 4.291)" stroke-width="5.314"/>
    <line x1="5.139" x2="20.84" y1="40.46" y2="30.22" transform="matrix(.8996 0 0 .8996 24.19 4.291)" stroke-width="5.314"/>
    <rect x="12" y="12" width="48" height="48" stroke-width="2"/>
  </g>
</svg>
