<svg id="emoji" viewBox="0 0 72 72" version="1.1" xmlns="http://www.w3.org/2000/svg">
  <g id="grid">
    <path fill="#b3b3b3" d="m68 4v64h-64v-64h64m4-4h-72v72h72z"/>
    <path fill="none" stroke="#00a5ff" stroke-miterlimit="10" stroke-width="0.1" d="m12.92 10.96h46.15a1.923 1.923 0 0 1 1.923 1.923v46.15a1.923 1.923 0 0 1-1.923 1.923h-46.15a1.923 1.923 0 0 1-1.923-1.923v-46.15a1.923 1.923 0 0 1 1.923-1.923z"/>
    <rect x="16" y="4" rx="2.254" ry="2.254" width="40" height="64" fill="none" stroke="#00a5ff" stroke-miterlimit="10" stroke-width="0.1"/>
    <rect x="16" y="4" rx="2.254" ry="2.254" width="40" height="64" transform="rotate(90,36,36)" fill="none" stroke="#00a5ff" stroke-miterlimit="10" stroke-width="0.1"/>
    <circle cx="36" cy="36" r="29" fill="none" stroke="#00a5ff" stroke-miterlimit="10" stroke-width="0.1"/>
  </g>
  <g id="color">
    <rect x="12" y="12" width="48" height="47.83" fill="#92d3f5"/>
  </g>
  <g id="line" fill="none" stroke="#000" stroke-linecap="round" stroke-linejoin="round">
    <path transform="matrix(2.415,0,0,2.415,36,35.28)" stroke-miterlimit="10" stroke-width="2" d="m0 3.763c0.923 0 1.672-0.749 1.672-1.671v-0.42c0-0.923-0.749-1.672-1.672-1.672s-1.671 0.749-1.671 1.672v0.42c0 0.922 0.748 1.671 1.671 1.671z" clip-rule="evenodd"/>
    <path transform="matrix(-.9845 2.205 2.205 .9845 38.17 36.37)" stroke-miterlimit="10" stroke-width="2" d="m-3.132-2.031h4.45" clip-rule="evenodd"/>
    <rect x="12" y="12" width="48" height="48" stroke-width="2"/>
  </g>
</svg>
