<svg id="emoji" viewBox="0 0 72 72" version="1.1" xmlns="http://www.w3.org/2000/svg">
  <g id="grid">
    <path fill="#b3b3b3" d="M68,4V68H4V4H68m4-4H0V72H72V0Z"/>
    <path fill="none" stroke="#00a5ff" stroke-miterlimit="10" stroke-width="0.1" d="m12.92 10.96h46.15a1.923 1.923 0 0 1 1.923 1.923v46.15a1.923 1.923 0 0 1-1.923 1.923h-46.15a1.923 1.923 0 0 1-1.923-1.923v-46.15a1.923 1.923 0 0 1 1.923-1.923z"/>
    <rect x="16" y="4" rx="2.254" ry="2.254" width="40" height="64" fill="none" stroke="#00a5ff" stroke-miterlimit="10" stroke-width="0.1"/>
    <rect x="16" y="4" rx="2.254" ry="2.254" width="40" height="64" transform="translate(72) rotate(90)" fill="none" stroke="#00a5ff" stroke-miterlimit="10" stroke-width="0.1"/>
    <circle cx="36" cy="36" r="29" fill="none" stroke="#00a5ff" stroke-miterlimit="10" stroke-width="0.1"/>
  </g>
  <g id="color">
    <rect x="12" y="12" width="48" height="47.83" fill="#92d3f5"/>
  </g>
  <g id="line" fill="none" stroke="#000" stroke-linecap="round" stroke-linejoin="round">
    <path transform="translate(-5.417 -.1646)" stroke-miterlimit="10" stroke-width="4.781" d="m47.26 44.44c-2.529 0-4.58-2.048-4.58-4.58v-7.572c0-2.529 2.051-4.58 4.58-4.58s4.58 2.051 4.58 4.58v7.572c0 2.531-2.051 4.58-4.58 4.58z" clip-rule="evenodd"/>
    <path transform="translate(-5.417 -.1646)" stroke-miterlimit="10" stroke-width="4.781" d="m31.25 31.19 4.63-3.471v16.73" clip-rule="evenodd"/>
    <rect x="12" y="12" width="48" height="48" stroke-width="2"/>
  </g>
</svg>
