<svg version="1.1" id="emoji" xmlns="http://www.w3.org/2000/svg" x="0" y="0" viewBox="0 0 72 72" enable-background="new 0 0 72 72" xml:space="preserve">
  <g id="grid">
    <path fill="#B3B3B3" d="M68,4v64H4V4H68 M72,0H0v72h72V0z"/>
    <path fill="none" stroke="#00A5FF" stroke-width="0.1" stroke-miterlimit="10" d="M12.923,10.9583h46.1539 c1.0621,0,1.9231,0.861,1.9231,1.9231v0v46.1538c0,1.0621-0.861,1.9231-1.9231,1.9231H12.9231 c-1.0621,0-1.9231-0.861-1.9231-1.9231l0,0V12.8813C11,11.8193,11.861,10.9583,12.923,10.9583L12.923,10.9583z"/>
    <path fill="none" stroke="#00A5FF" stroke-width="0.1" stroke-miterlimit="10" d="M18.2537,4h35.4926C54.991,4,56,5.009,56,6.2537 v59.4926C56,66.991,54.991,68,53.7463,68H18.2537C17.009,68,16,66.991,16,65.7463V6.2537C16,5.009,17.009,4,18.2537,4z"/>
    <path fill="none" stroke="#00A5FF" stroke-width="0.1" stroke-miterlimit="10" d="M68,18.2537v35.4926 C68,54.991,66.991,56,65.7463,56H6.2537C5.009,56,4,54.991,4,53.7463V18.2537C4,17.009,5.009,16,6.2537,16h59.4926 C66.991,16,68,17.009,68,18.2537z"/>
    <circle fill="none" stroke="#00A5FF" stroke-width="0.1" stroke-miterlimit="10" cx="36" cy="36" r="29"/>
  </g>
  <g id="color">
    <path fill="#B399C8" d="M4,70.6667v-17.5L26.75,52.25l16.6667-17.9167c1.0833,2.2917,7.6667,6.25,10.0833,6.5L38.5,65.75 C37.4583,67.625,23.0693,70.6667,4,70.6667z"/>
    <polyline fill="#92D3F5" points="64.2079,27.8958 64.2498,4.9708 49.6758,5.0494 49.6368,26.3997"/>
  </g>
  <g id="hair"/>
  <g id="skin">
    <path fill="#FCEA2B" d="M64.837,20.0537c1.0597,0.1522,1.6563,0.9253,1.6457,1.9381c-0.0099,0.9466-0.5375,1.9321-1.6843,1.9033 c0,0-1.2147-0.0379-1.6188-0.015c-0.1713,0.0097-0.3427,0.0192-0.5125-0.0051c-1.0597-0.1522-1.7953-1.1346-1.6431-2.1943 s1.1346-1.7953,2.1943-1.6431C63.2183,20.0376,64.837,20.0539,64.837,20.0537z"/>
    <path fill="#FCEA2B" d="M64.8758,16.1978c1.0597,0.1522,1.6563,0.9253,1.6457,1.9381c-0.0099,0.9466-0.5375,1.9321-1.6843,1.9033 c0,0-1.2147-0.0379-1.6188-0.015c-0.1713,0.0097-0.3427,0.0192-0.5125-0.0051c-1.0597-0.1522-1.7953-1.1346-1.6431-2.1943 s1.1346-1.7953,2.1943-1.6431C63.257,16.1818,64.8758,16.198,64.8758,16.1978z"/>
    <path fill="#FCEA2B" d="M51.2751,26.2517c-0.2374-0.9177-0.7139-1.7561-1.381-2.4296l0.0252-0.0391l0.5511-0.8399 c0.2598-0.396,1.1637-0.3694,2.008,0.0605l0.4053,0.2057c0.8445,0.4295,1.8686,0.2729,2.3229-0.4194 c0.4543-0.6923,0.1396-1.6255-0.6525-2.1452l-3.6001-2.3623c-0.7818-0.5361-1.8459-0.3709-2.4284,0.377l-2.8853,3.8816 c-2.0153,3.1257,1.0264,12.2507-0.9736,13.1465c1.6544,1.5527,3.2083,2.7292,7.1282,4.6602 c1.7052-4.6602,9.7468-6.5977,11.5385-12.681"/>
  </g>
  <g id="skin-shadow"/>
  <g id="line">
    <line fill="none" stroke="#000000" stroke-width="2" stroke-linecap="round" stroke-linejoin="round" stroke-miterlimit="10" x1="4" y1="53.1667" x2="4" y2="70.6667"/>
    <line fill="none" stroke="#000000" stroke-width="2" stroke-linecap="round" stroke-linejoin="round" stroke-miterlimit="10" x1="26.75" y1="52.25" x2="4" y2="53.1667"/>
    <line fill="none" stroke="#000000" stroke-width="2" stroke-linecap="round" stroke-linejoin="round" stroke-miterlimit="10" x1="53.5" y1="40.8333" x2="38.5" y2="65.75"/>
    <line fill="none" stroke="#000000" stroke-width="2" stroke-linecap="round" stroke-linejoin="round" stroke-miterlimit="10" x1="43.4167" y1="34.3333" x2="26.75" y2="52.25"/>
    <path fill="none" stroke="#000000" stroke-width="2" stroke-linecap="round" stroke-linejoin="round" stroke-miterlimit="10" d="M38.5,65.75c-1.0417,1.875-15.4307,4.9167-34.5,4.9167"/>
    <path fill="none" stroke="#000000" stroke-width="2" stroke-linecap="round" stroke-linejoin="round" stroke-miterlimit="10" d="M43.4167,34.3333c1.0833,2.2917,7.6667,6.25,10.0833,6.5"/>
    <path fill="none" stroke="#000000" stroke-width="2" stroke-linecap="round" stroke-linejoin="round" d="M49.9193,23.783 l0.5511-0.8399c0.2598-0.396,1.1637-0.3694,2.008,0.0605l0.4053,0.2057c0.8445,0.4295,1.8686,0.2729,2.3229-0.4194 c0.4543-0.6923,0.1396-1.6255-0.6525-2.1452l-3.6001-2.3623c-0.7818-0.5361-1.8459-0.3709-2.4284,0.377l-2.8853,3.8816"/>
    <path fill="none" stroke="#000000" stroke-width="2" stroke-linecap="round" stroke-linejoin="round" d="M51.2751,26.2517 c-0.2374-0.9177-0.7139-1.7561-1.381-2.4296"/>
    <path fill="none" stroke="#000000" stroke-width="2" stroke-linecap="round" stroke-linejoin="round" d="M45.6403,22.541 c-2.0153,3.1257,1.0264,12.2507-0.9736,13.1465"/>
    <path fill="none" stroke="#000000" stroke-width="2" stroke-linecap="round" stroke-linejoin="round" d="M63.3333,27.6667 C61.5417,33.75,53.5,35.6875,51.7948,40.3477"/>
    <path fill="none" stroke="#000000" stroke-width="2" stroke-linecap="round" stroke-linejoin="round" d="M64.837,20.0537 c1.0597,0.1522,1.6563,0.9253,1.6457,1.9381c-0.0099,0.9466-0.5375,1.9321-1.6843,1.9033c0,0-1.2147-0.0379-1.6188-0.015 c-0.1713,0.0097-0.3427,0.0192-0.5125-0.0051c-1.0597-0.1522-1.7953-1.1346-1.6431-2.1943s1.1346-1.7953,2.1943-1.6431 C63.2183,20.0376,64.837,20.0539,64.837,20.0537z"/>
    <path fill="none" stroke="#000000" stroke-width="2" stroke-linecap="round" stroke-linejoin="round" d="M64.8758,16.1978 c1.0597,0.1522,1.6563,0.9253,1.6457,1.9381c-0.0099,0.9466-0.5375,1.9321-1.6843,1.9033c0,0-1.2147-0.0379-1.6188-0.015 c-0.1713,0.0097-0.3427,0.0192-0.5125-0.0051c-1.0597-0.1522-1.7953-1.1346-1.6431-2.1943s1.1346-1.7953,2.1943-1.6431 C63.257,16.1818,64.8758,16.198,64.8758,16.1978z"/>
    <line fill="none" stroke="#000000" stroke-width="2" stroke-linecap="round" stroke-linejoin="round" x1="63.28" y1="12.6399" x2="63.28" y2="4"/>
    <line fill="none" stroke="#000000" stroke-width="2" stroke-linecap="round" stroke-linejoin="round" x1="50.5846" y1="4" x2="63.28" y2="4"/>
    <line fill="none" stroke="#000000" stroke-width="2" stroke-linecap="round" stroke-linejoin="round" x1="50.5846" y1="4" x2="50.5846" y2="14.5552"/>
  </g>
</svg>
