<?xml version="1.0" encoding="UTF-8"?>
<svg id="emoji" xmlns="http://www.w3.org/2000/svg" viewBox="0 0 72 72">
  <g id="grid">
    <path d="m68,4v64H4V4h64M72,0H0v72h72V0Z" fill="#b3b3b3"/>
    <path d="m12.923,10.9583h46.1539c1.0621,0,1.9231.861,1.9231,1.9231h0v46.1538c0,1.0621-.861,1.9231-1.9231,1.9231H12.9231c-1.0621,0-1.9231-.861-1.9231-1.9231h0V12.8813c0-1.062.861-1.923,1.923-1.923h0Z" fill="none" stroke="#00a5ff" stroke-miterlimit="10" stroke-width=".1"/>
    <rect x="16" y="4" width="40" height="64" rx="2.2537" ry="2.2537" fill="none" stroke="#00a5ff" stroke-miterlimit="10" stroke-width=".1"/>
    <rect x="4" y="16" width="64" height="40" rx="2.2537" ry="2.2537" fill="none" stroke="#00a5ff" stroke-miterlimit="10" stroke-width=".1"/>
    <circle cx="36" cy="36" r="29" fill="none" stroke="#00a5ff" stroke-miterlimit="10" stroke-width=".1"/>
  </g>
  <g id="color">
    <polyline points="56 27.9166 56 45.896 16 45.896 16 27.9166" fill="#3f3f3f" stroke="#3f3f3f" stroke-miterlimit="10" stroke-width="2"/>
    <line x1="10.0432" y1="28.5" x2="10.0432" y2="36.9063" fill="none" stroke="#f1b31c" stroke-miterlimit="10" stroke-width="2"/>
    <circle cx="10.0432" cy="36.9063" r="2" fill="#f1b31c"/>
    <polygon points="12.0432 45.896 8.25 45.896 10.1466 37.7763 10.1466 37.7763 12.0432 45.896" fill="#f1b31c" stroke="#f1b31c" stroke-linecap="round" stroke-linejoin="round" stroke-width="1.747"/>
    <rect x="4" y="22.875" width="64" height="5.0417" fill="#3f3f3f"/>
    <polyline points="56 30.9166 56 45.896 16 45.896 16 30.9166" fill="#3f3f3f"/>
  </g>
  <g id="line">
    <circle cx="36" cy="22.0023" r="3"/>
    <rect x="4" y="22.875" width="64" height="5.0417" fill="none" stroke="#000" stroke-linecap="round" stroke-linejoin="round" stroke-width="2"/>
    <polyline points="56 30.9166 56 45.896 16 45.896 16 30.9166" fill="none" stroke="#000" stroke-linecap="round" stroke-linejoin="round" stroke-width="1.747"/>
  </g>
</svg>