<svg id="emoji" viewBox="0 0 72 72" xmlns="http://www.w3.org/2000/svg">
  <g id="grid">
    <path fill="#b3b3b2" d="m68.0573,3.9045v64H4.0573V3.9045h64M72.0573-.0955H.0573v72h72V-.0955Z"/>
    <path fill="none" stroke="#429bd5" stroke-miterlimit="10" stroke-width="0.1" d="m12.9803,10.8628h46.1539c1.0621,0,1.9231.861,1.9231,1.9231h0v46.1538c0,1.0621-.861,1.9231-1.9231,1.9231H12.9804c-1.0621,0-1.9231-.861-1.9231-1.9231h0V12.7858c0-1.062.861-1.923,1.923-1.923h0Z"/>
    <rect x="16.0573" y="3.9045" rx="2.2537" ry="2.2537" width="40" height="64" fill="none" stroke="#429bd5" stroke-miterlimit="10" stroke-width="0.1"/>
    <rect x="4.0573" y="15.9045" rx="2.2537" ry="2.2537" width="64" height="40" fill="none" stroke="#429bd5" stroke-miterlimit="10" stroke-width="0.1"/>
    <circle cx="36.0573" cy="35.9045" r="29" fill="none" stroke="#429bd5" stroke-miterlimit="10" stroke-width="0.1"/>
  </g>
  <g id="color">
    <path fill="#fcea2b" d="m52.4776,51.4994l-15.7387,1.9401c-.0392.0023-.3512.0023-.3903,0l-15.7604-1.3132c-.5746-.0335-1.0213-.4806-1.0488-1.1176l-.9272-17.7602c-.0306-.7084.4794-1.3014,1.1193-1.3014h33.2341c.6297,0,1.4478.5931,1.4322,1.2909l-.8589,17.0518c-.0145.6486-.4769,1.1755-1.0614,1.2096h0Z"/>
    <polygon fill="#3f3f3f" points="55.355 32.3764 56.5 7.0833 16.5 7.0833 17.645 32.3764 55.355 32.3764"/>
    <path fill="#3f3f3f" d="m54.5,51.262s-11.2908,1.7703-17.5,1.7703-18.5-1.7703-18.5-1.7703c-7.3129-1.1586-14-2.0756-14-.04,0,3.5608,14.3269,6.4474,32,6.4474s32-2.8866,32-6.4474c0-2.0356-6.6871-1.1186-14,.04Z"/>
  </g>
  <g id="line">
    <polygon fill="none" stroke="#000" stroke-linecap="round" stroke-linejoin="round" stroke-width="2" points="55.355 32.3764 54.6817 47.2519 56.5 7.0833 16.5 7.0833 18.3184 47.2519 17.645 32.3764 55.355 32.3764"/>
    <path fill="none" stroke="#000" stroke-linecap="round" stroke-linejoin="round" stroke-width="2" d="m54.5,51.262s-11.2908,1.7703-17.5,1.7703-18.5-1.7703-18.5-1.7703c-7.3129-1.1586-14-2.0756-14-.04,0,3.5608,14.3269,6.4474,32,6.4474s32-2.8866,32-6.4474c0-2.0356-6.6871-1.1186-14,.04Z"/>
  </g>
</svg>
