<?xml version="1.0" encoding="UTF-8"?>
<svg id="emoji" xmlns="http://www.w3.org/2000/svg" viewBox="0 0 72 72">
  <g id="grid">
    <path d="m68,4v64H4V4h64M72,0H0v72h72V0Z" fill="#b3b3b3"/>
    <path d="m12.923,10.9583h46.1539c1.0621,0,1.9231.861,1.9231,1.9231h0v46.1538c0,1.0621-.861,1.9231-1.9231,1.9231H12.9231c-1.0621,0-1.9231-.861-1.9231-1.9231h0V12.8813c0-1.062.861-1.923,1.923-1.923h0Z" fill="none" stroke="#00a5ff" stroke-miterlimit="10" stroke-width=".1"/>
    <rect x="16" y="4" width="40" height="64" rx="2.2537" ry="2.2537" fill="none" stroke="#00a5ff" stroke-miterlimit="10" stroke-width=".1"/>
    <rect x="4" y="16" width="64" height="40" rx="2.2537" ry="2.2537" fill="none" stroke="#00a5ff" stroke-miterlimit="10" stroke-width=".1"/>
    <circle cx="36" cy="36" r="29" fill="none" stroke="#00a5ff" stroke-miterlimit="10" stroke-width=".1"/>
  </g>
  <g id="color">
    <path d="m39.92,33.62c-.8273-.4052,6.7334,2.8814,14.27.5-.0457-8.429-6.999-12.9-6.999-12.9,0,0-7.227,3.975-7.273,12.4h.002Z" fill="#b399c8"/>
    <path d="m17.54,33.82s6.758,3.627,14.55,0c-.0466-8.591-7.133-13.15-7.133-13.15,0,0-7.366,4.561-7.413,13.15h-.004Z" fill="#b399c8"/>
    <path d="m19.358,43.5631l-.0707,1.0496s4.7751,2.1801,8.3019,4.9415c2.526,1.655,6.505,7.759,7.969,9.313,0,0,3.7153-6.8676,9.084-10.04,1.945-2.4,8.113-4.0091,8.113-4.0091l-.0349-1.1853" fill="#b399c8"/>
  </g>
  <g id="line">
    <path d="m39.66,33.44s6.605,3.51,14.22,0c-.0455-8.313-6.972-12.73-6.972-12.73,0,0-7.2,4.414-7.245,12.73h-.003Z" fill="none" stroke="#000" stroke-linecap="round" stroke-linejoin="round" stroke-width="2"/>
    <path d="m18.12,33.44s6.605,3.51,14.22,0c-.0455-8.313-6.972-12.73-6.972-12.73,0,0-7.2,4.414-7.245,12.73h-.003Z" fill="none" stroke="#000" stroke-linecap="round" stroke-linejoin="round" stroke-width="2"/>
    <line x1="34.63" y1="33.09" x2="37.37" y2="33.1" fill="none" stroke="#000" stroke-linecap="round" stroke-linejoin="round" stroke-width="2"/>
    <line x1="25.23" y1="11.77" x2="25.23" y2="20.17" fill="none" stroke="#000" stroke-linecap="round" stroke-linejoin="round" stroke-width="2"/>
    <line x1="46.77" y1="12.01" x2="46.77" y2="20.71" fill="none" stroke="#000" stroke-linecap="round" stroke-linejoin="round" stroke-width="2"/>
    <path d="m35.76,42.86l-17.16.0003-.0004,2.445s7.12,2.194,11.2,6.873c4.082,4.679,5.957,8.172,5.957,8.172h.0643s1.332-3.312,5.414-7.991,12.17-7.054,12.17-7.054l-.0005-2.445-17.59-.0003" fill="none" stroke="#000" stroke-linecap="round" stroke-linejoin="round" stroke-width="2"/>
  </g>
</svg>