<svg id="emoji" viewBox="0 0 72 72" xmlns="http://www.w3.org/2000/svg">
  <g id="grid">
    <path fill="#b3b3b3" d="M68,4V68H4V4H68m4-4H0V72H72V0Z"/>
    <path fill="none" stroke="#00a5ff" stroke-miterlimit="10" stroke-width="0.1" d="M12.923,10.9583H59.0769A1.9231,1.9231,0,0,1,61,12.8814V59.0352a1.9231,1.9231,0,0,1-1.9231,1.9231H12.9231A1.9231,1.9231,0,0,1,11,59.0352V12.8813A1.923,1.923,0,0,1,12.923,10.9583Z"/>
    <rect x="16" y="4" rx="2.2537" width="40" height="64" fill="none" stroke="#00a5ff" stroke-miterlimit="10" stroke-width="0.1"/>
    <rect x="16" y="4" rx="2.2537" width="40" height="64" transform="translate(72) rotate(90)" fill="none" stroke="#00a5ff" stroke-miterlimit="10" stroke-width="0.1"/>
    <circle cx="36" cy="36" r="29" fill="none" stroke="#00a5ff" stroke-miterlimit="10" stroke-width="0.1"/>
  </g>
  <g id="color">
    <path fill="#9B9B9A" stroke="none" stroke-linecap="round" stroke-linejoin="round" stroke-miterlimit="10" stroke-width="2" d="M7,52.0608c-2.2485-1.8528-3-8.2556-3-11.3966c0-2.7896,1.1307-10.3151,2.9588-12.1432c0,0,2.6586-1.1324,4.0412,0 c4.5288,3.7092,13.6575,12.2147,25.0042,0c0,0,17.5773,8.3421,22.3198,9.5458c8.1427,2.0668,8.4167,4.1197,8.4167,6.8223 c0,8.6515-10.0838,7.5391-16.8102,7.1718C46.2237,51.8584,11.1297,52.2863,7,52.0608"/>
    <path fill="#D0CFCE" stroke="none" d="M7,45.8841c0,0,16.134-1.5287,25.4956,1.0426s28.3456,0.2299,28.3456,0.2299l5.2681-0.0261 c0,0-0.9366,5.7896-5.523,5.7896S6,51.1287,6,51.1287S2.6177,46.4381,7,45.8841z"/>
  </g>
  <g id="hair"/>
  <g id="skin"/>
  <g id="skin-shadow"/>
  <g id="line">
    <path fill="none" stroke="#000000" stroke-linecap="round" stroke-linejoin="round" stroke-miterlimit="10" stroke-width="2" d="M7,52.0608c-2.2485-1.8528-3-8.2556-3-11.3966c0-2.7896,1.1307-10.3151,2.9588-12.1432c0,0,2.6586-1.1324,4.0412,0 c4.5288,3.7092,13.6575,12.2147,25.0042,0c0,0,17.5773,8.3421,22.3198,9.5458c8.1427,2.0668,8.4167,4.1197,8.4167,6.8223 c0,8.6515-10.0838,7.5391-16.8102,7.1718C46.2237,51.8584,11.1297,52.2863,7,52.0608"/>
    <path fill="none" stroke="#000000" stroke-linecap="round" stroke-linejoin="round" stroke-miterlimit="10" stroke-width="2" d="M8,46.8163c0,0,15.134-2.4608,24.4956,0.1105s28.3456,1.2299,28.3456,1.2299"/>
    <line x1="40.4419" x2="35.3703" y1="35.9583" y2="41.8963" fill="none" stroke="#000000" stroke-linecap="round" stroke-linejoin="round" stroke-miterlimit="10" stroke-width="2"/>
    <line x1="45.5264" x2="41.9942" y1="37.7606" y2="41.8963" fill="none" stroke="#000000" stroke-linecap="round" stroke-linejoin="round" stroke-miterlimit="10" stroke-width="2"/>
    <path fill="none" stroke="#000000" stroke-linecap="round" stroke-linejoin="round" stroke-miterlimit="10" stroke-width="2" d="M7,52.0608c-2.2485-1.8528-3-8.2556-3-11.3966c0-2.7896,1.1307-10.3151,2.9588-12.1432c0,0,2.6586-1.1324,4.0412,0 c4.5288,3.7092,13.6575,12.2147,25.0042,0c0,0,17.5773,8.3421,22.3198,9.5458c8.1427,2.0668,8.4167,4.1197,8.4167,6.8223 c0,8.6515-10.0838,7.5391-16.8102,7.1718C46.2237,51.8584,11.1297,52.2863,7,52.0608"/>
  </g>
</svg>
