<svg id="emoji" viewBox="0 0 72 72" xmlns="http://www.w3.org/2000/svg">
  <g id="grid">
    <path fill="#b3b3b3" d="M68,4V68H4V4H68m4-4H0V72H72V0Z"/>
    <path fill="none" stroke="#00a5ff" stroke-miterlimit="10" stroke-width="0.1" d="M12.923,10.9583H59.0769A1.9231,1.9231,0,0,1,61,12.8814V59.0352a1.9231,1.9231,0,0,1-1.9231,1.9231H12.9231A1.9231,1.9231,0,0,1,11,59.0352V12.8813A1.923,1.923,0,0,1,12.923,10.9583Z"/>
    <rect x="16" y="4" rx="2.2537" width="40" height="64" fill="none" stroke="#00a5ff" stroke-miterlimit="10" stroke-width="0.1"/>
    <rect x="16" y="4" rx="2.2537" width="40" height="64" transform="translate(72) rotate(90)" fill="none" stroke="#00a5ff" stroke-miterlimit="10" stroke-width="0.1"/>
    <circle cx="36" cy="36" r="29" fill="none" stroke="#00a5ff" stroke-miterlimit="10" stroke-width="0.1"/>
  </g>
  <g id="color">
    <path fill="#F1B31C" stroke="#F1B31C" stroke-miterlimit="10" stroke-width="1.8" d="M30.4261,32.0382 C32.5596,14.9829,47.519,9.4299,47.519,9.4299l14.8565,7.1733l0.1213,20.7757h-8.1556V22.0555l-4.1926,13.9028l2.9151,31.0208 l-15,1l-15-1l2.9151-31.0208l-5.07-13.9028v14.9061h-8.7225V17l14.8565-7.1733c0,0,2.4071-0.053,5.4619,2.1273 c0,0,5.1203,3.6409,5.1203,4.046"/>
  </g>
  <g id="hair"/>
  <g id="skin"/>
  <g id="skin-shadow"/>
  <g id="line">
    <polyline fill="none" stroke="#000000" stroke-linecap="round" stroke-linejoin="round" stroke-miterlimit="10" stroke-width="2" points="25.9788,35.9583 22.0637,67.9792 38.0637,67.9792 54.0637,67.9792 50.1486,35.9583"/>
    <line x1="33.7458" x2="42.3901" y1="35.9583" y2="35.9583" fill="none" stroke="#000000" stroke-linecap="round" stroke-linejoin="round" stroke-miterlimit="10" stroke-width="2"/>
    <path fill="none" stroke="#000000" stroke-linecap="round" stroke-linejoin="round" stroke-miterlimit="10" stroke-width="2" d="M54.3412,22.0555v15.9061h8.7225V16L48.2072,8.8267c0,0-15.6476,6.1562-17.7811,23.2115"/>
    <path fill="none" stroke="#000000" stroke-linecap="round" stroke-linejoin="round" stroke-miterlimit="10" stroke-width="2" d="M20.9088,22.0555v15.9061h-8.7225V16l14.8565-7.1733c0,0,2.4071,0.947,5.4619,3.1273"/>
    <line x1="33.7458" x2="42.3901" y1="35.9583" y2="35.9583" fill="none" stroke="#000000" stroke-linecap="round" stroke-linejoin="round" stroke-miterlimit="10" stroke-width="2"/>
  </g>
</svg>
