<svg id="emoji" viewBox="0 0 72 72" xmlns="http://www.w3.org/2000/svg">
  <g id="grid">
    <path fill="#b3b3b3" d="M68,4V68H4V4H68m4-4H0V72H72V0Z"/>
    <path fill="none" stroke="#00a5ff" stroke-miterlimit="10" stroke-width="0.1" d="M12.923,10.9583H59.0769A1.9231,1.9231,0,0,1,61,12.8814V59.0352a1.9231,1.9231,0,0,1-1.9231,1.9231H12.9231A1.9231,1.9231,0,0,1,11,59.0352V12.8813A1.923,1.923,0,0,1,12.923,10.9583Z"/>
    <rect x="16" y="4" rx="2.2537" width="40" height="64" fill="none" stroke="#00a5ff" stroke-miterlimit="10" stroke-width="0.1"/>
    <rect x="16" y="4" rx="2.2537" width="40" height="64" transform="translate(72) rotate(90)" fill="none" stroke="#00a5ff" stroke-miterlimit="10" stroke-width="0.1"/>
    <circle cx="36" cy="36" r="29" fill="none" stroke="#00a5ff" stroke-miterlimit="10" stroke-width="0.1"/>
  </g>
  <g id="color">
    <path fill="#9B9B9A" stroke="#9B9B9A" stroke-linejoin="round" stroke-miterlimit="10" stroke-width="2" d="M37.5891,34.151 c1.0309-0.1557,2.3936-0.355,3.1719,3.5553c0.5088,2.5561,2.4518,2.3815,3.5921,4.0059c2.3054,3.2843,7.0505,5.5111,11.3652,5.5111 c6.9036,0,12.5-5.5964,12.5-12.5l0.105-4.9141l1.895,0.0501v-4.1273c0,0-18.9318-16.1788-29.4804,5.3212h-2.9812h-0.4615H34.314 c-10.5486-21.5-29.4804-5.3212-29.4804-5.3212v4.1273l1.895-0.0501l0.105,4.9141c0,6.9036,5.5964,12.5,12.5,12.5 c4.3147,0,9.1189-2.1861,11.3652-5.5111"/>
    <path fill="#9B9B9A" stroke="#9B9B9A" stroke-miterlimit="10" stroke-width="2" d="M37.5891,34.151 c1.0309-0.1557,2.3936-0.355,3.1719,3.5553c0.5088,2.5561,2.4518,2.3815,3.5921,4.0059c2.3054,3.2843,7.0505,5.5111,11.3652,5.5111"/>
    <path fill="#9B9B9A" stroke="#9B9B9A" stroke-miterlimit="10" stroke-width="2" d="M37.7915,33.8289 c-6.7199-0.9921-2.7978,3.4384-3.0884,3.9105c-1.3989,2.2732-2.5354,2.0263-3.6757,3.6507 c-2.3054,3.2843-7.0505,5.5111-11.3652,5.5111"/>
    <circle cx="19.7664" cy="33.5577" r="9.5798" fill="#D0CFCE" stroke="none" stroke-linecap="round" stroke-linejoin="round" stroke-miterlimit="10" stroke-width="1.8457"/>
    <circle cx="55.2856" cy="33.5577" r="9.5798" fill="#D0CFCE" stroke="none" stroke-linecap="round" stroke-linejoin="round" stroke-miterlimit="10" stroke-width="1.8457"/>
  </g>
  <g id="hair"/>
  <g id="skin"/>
  <g id="skin-shadow"/>
  <g id="line">
    <path fill="none" stroke="#000000" stroke-linecap="round" stroke-linejoin="round" stroke-miterlimit="10" stroke-width="2" d="M30.6989,41.7122c-2.2463,3.325-7.0505,5.5111-11.3652,5.5111c-6.9036,0-12.5-5.5964-12.5-12.5l-0.105-4.9141l-1.895,0.0501 v-4.1273c0,0,18.9318-16.1788,29.4804,5.3212h2.9812h0.4615h2.9812c10.5486-21.5,29.4804-5.3212,29.4804-5.3212v4.1273 l-1.895-0.0501l-0.105,4.9141c0,6.9036-5.5964,12.5-12.5,12.5c-4.3147,0-9.1189-2.1861-11.3652-5.5111"/>
    <path fill="none" stroke="#000000" stroke-linecap="round" stroke-linejoin="round" stroke-miterlimit="10" stroke-width="2" d="M34.761,37.7063c0-1.6569,1.3431-3,3-3c1.6569,0,3,1.3431,3,3"/>
    <circle cx="19.7664" cy="33.5577" r="9.5798" fill="none" stroke="#000000" stroke-linecap="round" stroke-linejoin="round" stroke-miterlimit="10" stroke-width="1.8457"/>
    <circle cx="55.2856" cy="33.5577" r="9.5798" fill="none" stroke="#000000" stroke-linecap="round" stroke-linejoin="round" stroke-miterlimit="10" stroke-width="1.8457"/>
  </g>
</svg>
