<svg id="emoji" xmlns="http://www.w3.org/2000/svg" viewBox="0 0 72 72">
  <g id="grid">
    <path d="M68,4V68H4V4H68m4-4H0V72H72V0Z" fill="#b3b3b3"/>
    <path d="M12.923,10.9583H59.0769A1.9231,1.9231,0,0,1,61,12.8814V59.0352a1.9231,1.9231,0,0,1-1.9231,1.9231H12.9231A1.9231,1.9231,0,0,1,11,59.0352V12.8813A1.923,1.923,0,0,1,12.923,10.9583Z" fill="none" stroke="#00a5ff" stroke-miterlimit="10" stroke-width="0.1"/>
    <rect x="16" y="4" width="40" height="64" rx="2.2537" fill="none" stroke="#00a5ff" stroke-miterlimit="10" stroke-width="0.1"/>
    <rect x="16" y="4" width="40" height="64" rx="2.2537" transform="rotate(90 36 36)" fill="none" stroke="#00a5ff" stroke-miterlimit="10" stroke-width="0.1"/>
    <circle cx="36" cy="36" r="29" fill="none" stroke="#00a5ff" stroke-miterlimit="10" stroke-width="0.1"/>
  </g>
  <g id="color">
    <path fill="#A57939" d="M7.6821,50.4643C5.4335,48.6114,4,45.8052,4,42.6642c0-2.7896,1.1307-12.3151,2.9588-14.1432 c0,0,16.4385,9.1248,29.0454,0L48.478,36c0,0,6.7551,0.8268,11.6292,1.2555c4.8929,0.4303,6.6336,4.931,6.6336,7.6336 c0,8.6515-13.338,7.2227-20.0644,6.8554c-3.7068-0.2024-9.1385-0.499-13.2682-0.7245l-20.7127-0.3202L7.6821,50.4643z" stroke="none"/>
    <path fill="#A57939" stroke="#A57939" stroke-width="2" stroke-miterlimit="10" d="M7.6821,50.4643 C5.4335,48.6114,4,45.8052,4,42.6642c0-2.7896,1.1307-12.3151,2.9588-14.1432c0,0,16.4385,9.1248,29.0454,0L48.478,36 c0,0,6.7551,0.8268,11.6292,1.2555c4.8929,0.4303,6.6336,4.931,6.6336,7.6336c0,8.6515-13.338,7.2227-20.0644,6.8554 c-3.7068-0.2024-9.1385-0.499-13.2682-0.7245L7.6821,50.4643z"/>
    <rect x="11" y="50.6997" fill="#3F3F3F" stroke="none" stroke-width="2" stroke-linecap="round" stroke-linejoin="round" stroke-miterlimit="10" width="16.544" height="3.3003"/>
  </g>
  <g id="hair"/>
  <g id="skin"/>
  <g id="skin-shadow"/>
  <g id="line">
    <path fill="none" stroke="#000000" stroke-width="2" stroke-linecap="round" stroke-linejoin="round" stroke-miterlimit="10" d="M7.6821,50.4643C5.4335,48.6114,4,45.8052,4,42.6642c0-2.7896,1.1307-12.3151,2.9588-14.1432c0,0,16.4385,9.1248,29.0454,0 L48.478,36c0,0,6.7551,0.8268,11.6292,1.2555c4.8929,0.4303,6.6336,4.931,6.6336,7.6336c0,8.6515-13.338,7.2227-20.0644,6.8554 c-3.7068-0.2024-9.1385-0.499-13.2682-0.7245"/>
    <rect x="11" y="50.6997" fill="none" stroke="#000000" stroke-width="2" stroke-linecap="round" stroke-linejoin="round" stroke-miterlimit="10" width="16.544" height="3.3003"/>
    <line fill="none" stroke="#000000" stroke-width="2" stroke-linecap="round" stroke-linejoin="round" stroke-miterlimit="10" x1="37.0975" y1="33.3846" x2="34.3277" y2="35.2963"/>
    <line fill="none" stroke="#000000" stroke-width="2" stroke-linecap="round" stroke-linejoin="round" stroke-miterlimit="10" x1="40.6625" y1="35.2478" x2="37.8927" y2="37.1594"/>
    <line fill="none" stroke="#000000" stroke-width="2" stroke-linecap="round" stroke-linejoin="round" stroke-miterlimit="10" x1="44.2274" y1="37.1109" x2="41.4576" y2="39.0226"/>
  </g>
</svg>
