<svg version="1.1" id="emoji" xmlns="http://www.w3.org/2000/svg" x="0" y="0" viewBox="0 0 72 72" xml:space="preserve">
  <g id="grid">
    <path fill="#B3B3B3" d="M68,4v64H4V4H68 M72,0H0v72h72V0z"/>
    <path fill="none" stroke="#00A5FF" stroke-width="0.1" stroke-miterlimit="10" d="M12.923,10.9583h46.1539 c1.0621,0,1.9231,0.861,1.9231,1.9231v0v46.1538c0,1.0621-0.861,1.9231-1.9231,1.9231H12.9231 c-1.0621,0-1.9231-0.861-1.9231-1.9231l0,0V12.8813C11,11.8193,11.861,10.9583,12.923,10.9583L12.923,10.9583z"/>
    <path fill="none" stroke="#00A5FF" stroke-width="0.1" stroke-miterlimit="10" d="M18.2537,4h35.4926C54.991,4,56,5.009,56,6.2537 v59.4926C56,66.991,54.991,68,53.7463,68H18.2537C17.009,68,16,66.991,16,65.7463V6.2537C16,5.009,17.009,4,18.2537,4z"/>
    <path fill="none" stroke="#00A5FF" stroke-width="0.1" stroke-miterlimit="10" d="M68,18.2537v35.4926 C68,54.991,66.991,56,65.7463,56H6.2537C5.009,56,4,54.991,4,53.7463V18.2537C4,17.009,5.009,16,6.2537,16h59.4926 C66.991,16,68,17.009,68,18.2537z"/>
    <circle fill="none" stroke="#00A5FF" stroke-width="0.1" stroke-miterlimit="10" cx="36" cy="36" r="29"/>
  </g>
  <g id="color">
    <rect x="4" y="51.624" fill="#FFFFFF" width="64" height="7.2668"/>
    <path fill="#FFFFFF" d="M24.0332,33.812"/>
    <path fill="#FFFFFF" d="M36.0042,16"/>
    <circle fill="#FFFFFF" cx="35.9962" cy="16.008" r="5"/>
    <rect x="4" y="51.624" fill="#F1B31C" width="64" height="7.2668"/>
    <path fill="#FFFFFF" d="M24.0332,33.812"/>
    <path fill="#FFFFFF" d="M36.0042,16"/>
    <path fill="#FCEA2B" d="M7,11c2.7614,0,5,2.2386,5,5s-2.2386,5-5,5"/>
    <path fill="#FCEA2B" d="M65,21c-2.7614,0-5-2.2386-5-5s2.2386-5,5-5"/>
    <path fill="#FCEA2B" d="M64.9674,17.4945c0,9.0811-7.3617,16.4428-16.4428,16.4428H48.238 c-9.0811,0-11.4428-7.3617-11.4428-16.4428h-2.0738c0,9.0811-2.3617,16.4428-11.4428,16.4428h0.1643 c-5.3121,0-10.0359-2.519-13.0419-6.4277C8.2681,24.7363,7,21.2635,7,17.4945V11v40.624h58V11"/>
    <circle fill="#FCEA2B" cx="35.9962" cy="16.008" r="5"/>
  </g>
  <g id="hair"/>
  <g id="skin"/>
  <g id="skin-shadow"/>
  <g id="line">
    <rect x="4" y="51.624" fill="none" stroke="#000000" stroke-width="2" stroke-linecap="round" stroke-linejoin="round" stroke-miterlimit="10" width="64" height="7.2668"/>
    <path fill="none" stroke="#000000" stroke-width="2" stroke-linecap="round" stroke-linejoin="round" stroke-miterlimit="10" d="M24.0332,33.812"/>
    <path fill="none" stroke="#000000" stroke-width="2" stroke-linecap="round" stroke-linejoin="round" stroke-miterlimit="10" d="M36.0042,16"/>
    <polyline fill="none" stroke="#000000" stroke-width="2" stroke-linecap="round" stroke-linejoin="round" stroke-miterlimit="10" points="7,11 7,51.624 65,51.624 65,11"/>
    <path fill="none" stroke="#000000" stroke-width="2" stroke-linecap="round" stroke-linejoin="round" stroke-miterlimit="10" d="M7,11c2.7614,0,5,2.2386,5,5s-2.2386,5-5,5"/>
    <path fill="none" stroke="#000000" stroke-width="2" stroke-linecap="round" stroke-linejoin="round" stroke-miterlimit="10" d="M23.4428,33.9373c-5.3121,0-10.0359-2.519-13.0419-6.4277C8.2681,24.7363,7,21.2635,7,17.4945"/>
    <path fill="none" stroke="#000000" stroke-width="2" stroke-linecap="round" stroke-linejoin="round" stroke-miterlimit="10" d="M64.9674,17.4945c0,9.0811-7.3617,16.4428-16.4428,16.4428"/>
    <path fill="none" stroke="#000000" stroke-width="2" stroke-linecap="round" stroke-linejoin="round" stroke-miterlimit="10" d="M48.238,33.9373"/>
    <path fill="none" stroke="#000000" stroke-width="2" stroke-linecap="round" stroke-linejoin="round" stroke-miterlimit="10" d="M23.2786,33.9373"/>
    <circle fill="none" stroke="#000000" stroke-width="2" stroke-linecap="round" stroke-linejoin="round" stroke-miterlimit="10" cx="35.9962" cy="16.008" r="5"/>
    <path fill="none" stroke="#000000" stroke-width="2" stroke-linecap="round" stroke-linejoin="round" stroke-miterlimit="10" d="M65,21c-2.7614,0-5-2.2386-5-5s2.2386-5,5-5"/>
    <rect x="4" y="51.624" fill="none" stroke="#000000" stroke-width="2" stroke-linecap="round" stroke-linejoin="round" stroke-miterlimit="10" width="64" height="7.2668"/>
    <path fill="none" stroke="#000000" stroke-width="2" stroke-linecap="round" stroke-linejoin="round" stroke-miterlimit="10" d="M24.0332,33.812"/>
    <path fill="none" stroke="#000000" stroke-width="2" stroke-linecap="round" stroke-linejoin="round" stroke-miterlimit="10" d="M36.0042,16"/>
    <path fill="none" stroke="#000000" stroke-width="2" stroke-linecap="round" stroke-linejoin="round" stroke-miterlimit="10" d="M7,11c2.7614,0,5,2.2386,5,5s-2.2386,5-5,5"/>
    <path fill="none" stroke="#000000" stroke-width="2" stroke-linecap="round" stroke-linejoin="round" stroke-miterlimit="10" d="M65,21c-2.7614,0-5-2.2386-5-5s2.2386-5,5-5"/>
    <path fill="none" stroke="#000000" stroke-width="2" stroke-linecap="round" stroke-linejoin="round" stroke-miterlimit="10" d="M34.597,20.8744c-0.5876,7.4597-3.3959,13.0629-11.3184,13.0629h0.1643c-5.3121,0-10.0359-2.519-13.0419-6.4277 C8.2681,24.7363,7,21.2635,7,17.4945V11v40.624h58V11"/>
    <path fill="none" stroke="#000000" stroke-width="2" stroke-linecap="round" stroke-linejoin="round" stroke-miterlimit="10" d="M64.9674,17.4945c0,9.0811-7.3617,16.4428-16.4428,16.4428H48.238c-7.9061,0-10.7191-5.5799-11.3147-13.0163"/>
    <circle fill="none" stroke="#000000" stroke-width="2" stroke-linecap="round" stroke-linejoin="round" stroke-miterlimit="10" cx="35.9962" cy="16.008" r="5"/>
  </g>
</svg>
