<svg id="emoji" viewBox="0 0 72 72" version="1.1" xmlns="http://www.w3.org/2000/svg">
  <g id="grid">
    <path fill="#B3B3B3" d="M68,4v64H4V4H68 M72,0H0v72h72V0z"/>
    <path fill="none" stroke="#00A5FF" stroke-miterlimit="10" stroke-width="0.1" d="M12.923,10.9583h46.1539 c1.0621,0,1.9231,0.861,1.9231,1.9231l0,0v46.1538c0,1.0621-0.861,1.9231-1.9231,1.9231H12.9231 c-1.0621,0-1.9231-0.861-1.9231-1.9231l0,0V12.8813C11,11.8193,11.861,10.9583,12.923,10.9583L12.923,10.9583z"/>
    <path fill="none" stroke="#00A5FF" stroke-miterlimit="10" stroke-width="0.1" d="M18.2537,4h35.4926C54.991,4,56,5.009,56,6.2537 v59.4926C56,66.991,54.991,68,53.7463,68H18.2537C17.009,68,16,66.991,16,65.7463V6.2537C16,5.009,17.009,4,18.2537,4z"/>
    <path fill="none" stroke="#00A5FF" stroke-miterlimit="10" stroke-width="0.1" d="M68,18.2537v35.4926 C68,54.991,66.991,56,65.7463,56H6.2537C5.009,56,4,54.991,4,53.7463V18.2537C4,17.009,5.009,16,6.2537,16h59.4926 C66.991,16,68,17.009,68,18.2537z"/>
    <circle cx="36" cy="36" r="29" fill="none" stroke="#00A5FF" stroke-miterlimit="10" stroke-width="0.1"/>
  </g>
  <g id="line-supplement">
    <circle fill="#000" id="xx_1_" cx="40.4665" cy="54" r="1.95"/>
  </g>
  <g id="color">
    <polygon fill="#F1B31C" points="37.3037,56.9264 38.6067,53.2677 42.4051,53.5098 42.7217,57.9283"/>
    <polyline fill="#F1B31C" points="41.5621,55.2169 42.4051,65.9918 35.281,64.8074 39.0648,54.9973"/>
    <circle cx="40.4665" cy="54" r="2" fill="#FCEA2B"/>
    <polyline fill="#F1B31C" points="41.7833,58.045 42.4051,65.9918 35.281,64.8074 38.124,57.4366"/>
  </g>
  <g id="hair"/>
  <g id="skin"/>
  <g id="skin-shadow"/>
  <g id="line">
    <polyline fill="none" stroke="#000000" stroke-linecap="round" stroke-linejoin="round" stroke-miterlimit="10" stroke-width="2" points="41.7833,58.045 42.4051,65.9918 35.281,64.8074 38.124,57.4366"/>
    <path fill="none" stroke="#000000" stroke-dasharray="0,6.7346,0,0,0,0" stroke-linecap="round" stroke-linejoin="round" stroke-width="4" d="M47.6095,12.8474c1.1383,11.1934-2.5564,14.3792,7.9682,15.4424c10.5246,1.0632,0.6967,20.0417-13.9754,20.0417 S25.2386,38.0801,29.4125,33.9062c4.1738-4.1738-3.1185-6.2607-4.3102-4.1738s-17.9028,0.1524-9.9347-10.6242 S46.4711,1.654,47.6095,12.8474z"/>
  </g>
  <g id="color-foreground">
    <path id="xx" fill="none" stroke="#D22F27" stroke-dasharray="0,6.7346,0,0,0,0" stroke-linecap="round" stroke-linejoin="round" stroke-width="4" d="M47.6095,12.8474c1.1383,11.1934-2.5564,14.3792,7.9682,15.4424c10.5246,1.0632,0.6967,20.0417-13.9754,20.0417 S25.2386,38.0801,29.4125,33.9062c4.1738-4.1738-3.1185-6.2607-4.3102-4.1738s-17.9028,0.1524-9.9347-10.6242 S46.4711,1.654,47.6095,12.8474z"/>
  </g>
</svg>
