<svg id="emoji" viewBox="0 0 72 72" xmlns="http://www.w3.org/2000/svg">
  <g id="grid">
    <path fill="#b3b3b3" d="M68,4V68H4V4H68m4-4H0V72H72V0Z"/>
    <path fill="none" stroke="#00a5ff" stroke-miterlimit="10" stroke-width="0.1" d="M12.923,10.9583H59.0769A1.9231,1.9231,0,0,1,61,12.8814V59.0352a1.9231,1.9231,0,0,1-1.9231,1.9231H12.9231A1.9231,1.9231,0,0,1,11,59.0352V12.8813A1.923,1.923,0,0,1,12.923,10.9583Z"/>
    <rect x="16" y="4" rx="2.2537" width="40" height="64" fill="none" stroke="#00a5ff" stroke-miterlimit="10" stroke-width="0.1"/>
    <rect x="16" y="4" rx="2.2537" width="40" height="64" transform="translate(72) rotate(90)" fill="none" stroke="#00a5ff" stroke-miterlimit="10" stroke-width="0.1"/>
    <circle cx="36" cy="36" r="29" fill="none" stroke="#00a5ff" stroke-miterlimit="10" stroke-width="0.1"/>
  </g>
  <g id="color">
    <line x1="25.7466" x2="36.0014" y1="21.0015" y2="21.0015" fill="#EA5A47" stroke="none"/>
    <polyline fill="#FCEA2B" stroke="none" points="36.0015,60.9598 61.0015,60.9598 56.0015,20.0932 53.4318,20.0932 18.5712,20.0932 16.0015,20.0932 11.0015,60.9598 36.0015,60.9598"/>
    <line x1="46.2563" x2="36.0016" y1="21.0015" y2="21.0015" fill="#EA5A47" stroke="none"/>
  </g>
  <g id="hair"/>
  <g id="skin"/>
  <g id="skin-shadow"/>
  <g id="line">
    <polyline fill="none" stroke="#000000" stroke-linecap="round" stroke-linejoin="round" stroke-miterlimit="10" stroke-width="2" points="36.0015,60.9598 11.0015,60.9598 16.0015,21.0015 18.5712,21.0015"/>
    <line x1="25.7466" x2="36.0014" y1="21.0015" y2="21.0015" fill="none" stroke="#000000" stroke-linecap="round" stroke-linejoin="round" stroke-miterlimit="10" stroke-width="2"/>
    <polyline fill="none" stroke="#000000" stroke-linecap="round" stroke-linejoin="round" stroke-miterlimit="10" stroke-width="2" points="36.0015,60.9598 61.0015,60.9598 56.0015,21.0015 53.4318,21.0015"/>
    <line x1="46.2563" x2="36.0016" y1="21.0015" y2="21.0015" fill="none" stroke="#000000" stroke-linecap="round" stroke-linejoin="round" stroke-miterlimit="10" stroke-width="2"/>
    <path fill="none" stroke="#000000" stroke-linecap="round" stroke-linejoin="round" stroke-miterlimit="10" stroke-width="2" d="M22.049,27.662v-6.6199c0-7.7544,6.2862-14.0406,14.0406-14.0406s14.0406,6.2862,14.0406,14.0406v6.6199"/>
  </g>
</svg>
