<svg id="emoji" xmlns="http://www.w3.org/2000/svg" viewBox="0 0 72 72">
  <g id="grid">
    <path d="M68,4V68H4V4H68m4-4H0V72H72V0Z" fill="#b3b3b3"/>
    <path d="M12.923,10.9583H59.0769A1.9231,1.9231,0,0,1,61,12.8814V59.0352a1.9231,1.9231,0,0,1-1.9231,1.9231H12.9231A1.9231,1.9231,0,0,1,11,59.0352V12.8813A1.923,1.923,0,0,1,12.923,10.9583Z" fill="none" stroke="#00a5ff" stroke-miterlimit="10" stroke-width="0.1"/>
    <rect x="16" y="4" width="40" height="64" rx="2.2537" fill="none" stroke="#00a5ff" stroke-miterlimit="10" stroke-width="0.1"/>
    <rect x="16" y="4" width="40" height="64" rx="2.2537" transform="translate(72) rotate(90)" fill="none" stroke="#00a5ff" stroke-miterlimit="10" stroke-width="0.1"/>
    <circle cx="36" cy="36" r="29" fill="none" stroke="#00a5ff" stroke-miterlimit="10" stroke-width="0.1"/>
  </g>
  <g id="color">
    <path id="Goggles_Color_1" data-name="Goggles Color 1" d="M61.1838,27.995c-4.4209-2.1333-14.9-3.9756-25.2155-3.7365C22.3166,23.942,8.884,29.1326,8.884,29.1326l.0977,7.6946c0,6.424,2.9308,15.8283,22.5434,10.7755L33.4372,40l2.55-2.0909,2.8876,2.1029,1.3277,5.279a3.9665,3.9665,0,0,0,3.0453,2.9015C60.6485,51.8567,63.33,42.9843,63.33,36.8391l.0667-5.2537A3.925,3.925,0,0,0,61.1838,27.995Z" fill="#d0cfce"/>
    <path id="Goggles_Color_2" data-name="Goggles Color 2" d="M43.8847,48.8524C61.9275,50.73,63.4758,43.2512,63.4758,36.8272l-.0477-7.6826-6.9541-3.099C54.5376,37.2328,43.8847,48.8524,43.8847,48.8524Z" fill="#9b9b9a"/>
    <polygon id="Goggles_Color_3" data-name="Goggles Color 3" points="9.503 29.17 5.168 31.951 5.549 40.438 10.078 43.096 9.503 29.17" fill="#9b9b9a"/>
    <polygon id="Goggles_Color_4" data-name="Goggles Color 4" points="62.117 28.984 66.452 31.765 66.071 40.252 61.542 42.91 62.117 28.984" fill="#9b9b9a"/>
  </g>
  <g id="line">
    <path id="Goggles_Line_1" data-name="Goggles Line 1" d="M60.9993,28.0757c-4.3022-2.1077-14.5834-4.0517-25.0311-3.8172-10.4477-.2345-20.729,1.7095-25.0311,3.8172a3.6433,3.6433,0,0,0-2.0242,3.3275l.0689,5.424c0,5.8974,2.47,14.3065,18.0489,11.7363a6.9243,6.9243,0,0,0,5.5518-5.1653l.899-3.1641a2.43,2.43,0,0,1,.7017-1.1973,2.7591,2.7591,0,0,1,2.9227-.4146,2.6605,2.6605,0,0,1,1.3933,1.7426l.8547,3.0334a6.9243,6.9243,0,0,0,5.5518,5.1653c15.5789,2.57,18.0489-5.8389,18.0489-11.7363l.0689-5.424A3.6433,3.6433,0,0,0,60.9993,28.0757Z" fill="none" stroke="#000" stroke-linecap="round" stroke-linejoin="round" stroke-width="2"/>
    <polyline id="Goggles_Line_2" data-name="Goggles Line 2" points="9.503 29.17 5.168 31.951 5.549 40.438 10.078 43.096" fill="none" stroke="#000" stroke-linecap="round" stroke-linejoin="round" stroke-width="2"/>
    <polyline id="Goggles_Line_3" data-name="Goggles Line 3" points="62.405 29.17 66.74 31.951 66.359 40.438 61.83 43.096" fill="none" stroke="#000" stroke-linecap="round" stroke-linejoin="round" stroke-width="2"/>
  </g>
</svg>
