<svg id="emoji" xmlns="http://www.w3.org/2000/svg" viewBox="0 0 72 72">
  <g id="grid">
    <path d="M68,4V68H4V4H68m4-4H0V72H72V0Z" fill="#b3b3b3"/>
    <path d="M12.923,10.9583H59.0769A1.9231,1.9231,0,0,1,61,12.8814V59.0352a1.9231,1.9231,0,0,1-1.9231,1.9231H12.9231A1.9231,1.9231,0,0,1,11,59.0352V12.8813A1.923,1.923,0,0,1,12.923,10.9583Z" fill="none" stroke="#00a5ff" stroke-miterlimit="10" stroke-width="0.1"/>
    <rect x="16" y="4" width="40" height="64" rx="2.2537" ry="2.2537" fill="none" stroke="#00a5ff" stroke-miterlimit="10" stroke-width="0.1"/>
    <rect x="16" y="4" width="40" height="64" rx="2.2537" ry="2.2537" transform="translate(72) rotate(90)" fill="none" stroke="#00a5ff" stroke-miterlimit="10" stroke-width="0.1"/>
    <circle cx="36" cy="36" r="29" fill="none" stroke="#00a5ff" stroke-miterlimit="10" stroke-width="0.1"/>
  </g>
  <g id="color">
    <path d="M23.1141,22.5l3.5,16.5-6.5,14.5c7.4469,3.4679,11.7477,8.9461,13.175,15.5h4.65c.5613-6.3319,5.6639-11.2823,13.175-15.5l-6.5-14.5,4.05-16.5C47.1141,28.5,26.1141,29.5,23.1141,22.5Z" fill="#b399c8"/>
    <path d="M44.8859,4.5s6.6123,18.22,2,21c-3.9956,2.4081-16.822,2.8488-22,0-5.8774-3.2336,2-21,2-21-.2888.29-2.0408,4.0444,2,12,6.1492,6.2577,8.1287,6.8691,13,0C47.0908,7.395,45.0772,4.6421,44.8859,4.5Z" fill="#8967aa"/>
  </g>
  <g id="line">
    <path d="M23.1141,22.5l3.5,16.5-6.5,14.5c7.4469,3.4679,11.7477,8.9461,13.175,15.5h4.65c.5613-6.3319,5.6639-11.2823,13.175-15.5l-6.5-14.5,4.05-16.5" fill="none" stroke="#000" stroke-linecap="round" stroke-linejoin="round" stroke-width="2"/>
    <path d="M45.1218,4.5s6.6123,18.22,2,21c-3.9956,2.4081-16.822,2.8488-22,0-5.8774-3.2336,2-21,2-21s-3.4311,4.2216,2,12c4.1942,6.0068,9.225,6.4472,13,0C47.0982,8.0009,45.1218,4.5,45.1218,4.5Z" fill="none" stroke="#000" stroke-linecap="round" stroke-linejoin="round" stroke-width="2"/>
  </g>
</svg>
