<svg id="emoji" x="0" y="0" viewBox="0 0 72 72" version="1.1" xmlns="http://www.w3.org/2000/svg">
  <g id="grid">
    <path fill="#B3B3B3" d="M68,4v64H4V4H68 M72,0H0v72h72V0z"/>
    <path fill="none" stroke="#00A5FF" stroke-miterlimit="10" stroke-width="0.1" d="M12.923,10.9583h46.1539 c1.0621,0,1.9231,0.861,1.9231,1.9231v0v46.1538c0,1.0621-0.861,1.9231-1.9231,1.9231H12.9231 c-1.0621,0-1.9231-0.861-1.9231-1.9231l0,0V12.8813C11,11.8193,11.861,10.9583,12.923,10.9583L12.923,10.9583z"/>
    <path fill="none" stroke="#00A5FF" stroke-miterlimit="10" stroke-width="0.1" d="M18.2537,4h35.4926C54.991,4,56,5.009,56,6.2537 v59.4926C56,66.991,54.991,68,53.7463,68H18.2537C17.009,68,16,66.991,16,65.7463V6.2537C16,5.009,17.009,4,18.2537,4z"/>
    <path fill="none" stroke="#00A5FF" stroke-miterlimit="10" stroke-width="0.1" d="M68,18.2537v35.4926 C68,54.991,66.991,56,65.7463,56H6.2537C5.009,56,4,54.991,4,53.7463V18.2537C4,17.009,5.009,16,6.2537,16h59.4926 C66.991,16,68,17.009,68,18.2537z"/>
    <circle cx="36" cy="36" r="29" fill="none" stroke="#00A5FF" stroke-miterlimit="10" stroke-width="0.1"/>
  </g>
  <g id="color">
    <path fill="#61B2E4" d="M8.1924,30.2063c0-1.6819,0.996-1.5227,2.2246-1.5227h51.166c1.2286,0,2.2246-0.1592,2.2246,1.5227v1.5749 c0,2.6857-0.8443,2.68-2.7141,3.4932c-12.8582,5.5906-10.02,6.2746-16.19,14.72c-5.5122,7.5445-12.3623,7.4371-17.88-0.1 c-6.4513-8.8121-3.815-9.0294-16.0148-14.6507c-1.8973-0.8742-2.8163-3.8808-2.8163-6.6213L8.1924,30.2063z"/>
    <path fill="#92D3F5" d="M8.1924,28.6836c0-1.6819,0.996-1.5226,2.2246-1.5226h51.166c1.2286,0,2.2246,1.3634,2.2246,3.0453v-1.47 c0,2.6857-0.7522,6.5385-2.7141,6.5385c-20.6443,0-18.9758,15.6932-22.8639,20.2543h-4.5323 c-2.7027-2.9387-2.1465-19.993-22.6886-20.285c-2.0018-0.0284-2.8163-0.8354-2.8163-3.576V28.6836z"/>
  </g>
  <g id="line">
    <path fill="none" stroke="#000000" stroke-miterlimit="10" stroke-width="2" d="M61.0935,35.2744 c-12.8582,5.5906-10.02,6.2746-16.19,14.72c-5.5122,7.5445-12.3623,7.4371-17.88-0.1c-6.4513-8.8121-3.815-9.0294-16.0148-14.6507"/>
    <path fill="none" stroke="#000000" stroke-miterlimit="10" stroke-width="2" d="M32.585,54.5615c0,0-1.59-19.3178-21.5763-19.3178 c-2.0019,0-2.8163-2.3581-2.8163-5.0986v-1.4615c0-1.6819,0.996-1.5226,2.2246-1.5226h51.166c1.2286,0,2.2246-0.1593,2.2246,1.5226 v1.5749c0,2.6858-0.7522,4.9848-2.7141,4.9848c-20.0881,0-21.7516,19.3188-21.7516,19.3188"/>
  </g>
</svg>
