<svg id="emoji" viewBox="0 0 72 72" xmlns="http://www.w3.org/2000/svg">
  <g id="grid">
    <path fill="#b3b3b3" d="M68,4V68H4V4H68m4-4H0V72H72V0Z"/>
    <path fill="none" stroke="#00a5ff" stroke-miterlimit="10" stroke-width="0.1" d="M12.923,10.9583H59.0769A1.9231,1.9231,0,0,1,61,12.8814V59.0352a1.9231,1.9231,0,0,1-1.9231,1.9231H12.9231A1.9231,1.9231,0,0,1,11,59.0352V12.8813A1.923,1.923,0,0,1,12.923,10.9583Z"/>
    <rect x="16" y="4" rx="2.2537" width="40" height="64" fill="none" stroke="#00a5ff" stroke-miterlimit="10" stroke-width="0.1"/>
    <rect x="16" y="4" rx="2.2537" width="40" height="64" transform="translate(72) rotate(90)" fill="none" stroke="#00a5ff" stroke-miterlimit="10" stroke-width="0.1"/>
    <circle cx="36" cy="36" r="29" fill="none" stroke="#00a5ff" stroke-miterlimit="10" stroke-width="0.1"/>
  </g>
  <g id="color">
    <path fill="#fcea2b" stroke="#fcea2b" stroke-linecap="round" stroke-linejoin="round" stroke-miterlimit="10" stroke-width="0.75" d="m50.46 50.44c-11.2 13.24-28.24 12.54-35.31 6.547l-0.4132-1.901c12.72-3.783 15.02-2.284 25.01-11.49 5.776-6.855 10.6-16.93 10.32-24.26 6.04-0.1879 0 0 4.682-0.1879 3.885 9.759 2.355 22.91-4.282 31.29z"/>
    <path fill="#f1b31c" stroke="#f1b31c" stroke-linecap="round" stroke-linejoin="round" stroke-miterlimit="10" stroke-width="0.75" d="m53.21 19.66c4.526-0.4236 5.228 22.66-1.408 31.04-11.8 11.01-24.25 12.1-36.84 5.362 25.96 5.489 39.47-15.38 38.25-36.4z"/>
  </g>
  <g id="hair"/>
  <g id="skin"/>
  <g id="skin-shadow"/>
  <g id="line">
    <line x1="52.09" x2="51.52" y1="15.49" y2="11.2" fill="none" stroke="#000" stroke-linecap="round" stroke-linejoin="round" stroke-miterlimit="10" stroke-width="2"/>
    <path fill="none" stroke="#000" stroke-linecap="round" stroke-linejoin="round" stroke-miterlimit="10" stroke-width="2" d="m25.79 56.55c16.7-2.905 24.45-11.14 26.67-27.09"/>
    <path fill="none" stroke="#000" stroke-linecap="round" stroke-linejoin="round" stroke-miterlimit="10" stroke-width="2" d="m47.54 54.03c-8.106 7.212-23.05 9.45-32.43 2.757l-0.4132-1.901c18.42-2.206 32.78-13.96 35.36-35.55 1.105-0.0041 4.645-0.3957 4.645-0.3957 5.599 15.1 1.754 27.15-7.164 35.08z"/>
  </g>
</svg>
