<svg id="emoji" xmlns="http://www.w3.org/2000/svg" viewBox="0 0 72 72">
  <g id="grid">
    <path d="M68,4V68H4V4H68m4-4H0V72H72V0Z" fill="#b3b3b3"/>
    <path d="M12.923,10.9583H59.0769A1.9231,1.9231,0,0,1,61,12.8814V59.0352a1.9231,1.9231,0,0,1-1.9231,1.9231H12.9231A1.9231,1.9231,0,0,1,11,59.0352V12.8813A1.923,1.923,0,0,1,12.923,10.9583Z" fill="none" stroke="#00a5ff" stroke-miterlimit="10" stroke-width="0.1"/>
    <rect x="16" y="4" width="40" height="64" rx="2.2537" ry="2.2537" fill="none" stroke="#00a5ff" stroke-miterlimit="10" stroke-width="0.1"/>
    <rect x="16" y="4" width="40" height="64" rx="2.2537" ry="2.2537" transform="translate(72) rotate(90)" fill="none" stroke="#00a5ff" stroke-miterlimit="10" stroke-width="0.1"/>
    <circle cx="36" cy="36" r="29" fill="none" stroke="#00a5ff" stroke-miterlimit="10" stroke-width="0.1"/>
  </g>
  <g id="color">
    <polyline points="23.389 53.859 23.389 56.988 19.487 59.95 12.884 59.95 12.884 10.322 58.982 10.322 58.982 59.75 44.726 59.75 48.237 56.329 48.237 15.214 23.389 15.214 23.389 43.468" fill="#9b9b9a"/>
  </g>
  <g id="skin">
    <path d="M35.3,36.7914v2.214L39.4612,44.13a6.6228,6.6228,0,0,1,.7557,2.7049l.4056,9.1511c.0862,1.7805-.8241,2.72-1.7359,2.72-.97,0-1.7205-.9125-1.8839-2.6318L35.95,47.4148l-6.9159-5.8937a3.2164,3.2164,0,0,1-1.1132-2.3658,5.417,5.417,0,0,1,.7648-2.5812l3.2934-5.9464c1.141-2.2818,2.2558-3.092,3.7619-3.092a2.7144,2.7144,0,0,1,2.681,2.7675Z" fill="#fcea2b"/>
    <path d="M26.1488,43.3406,23.92,46.7116,17.5885,49.78a1.42,1.42,0,0,0-.8361,1.7419,1.2361,1.2361,0,0,0,1.6025.8177l6.0345-1.85a5.3711,5.3711,0,0,0,2.1873-1.3919l5.1124-5.1746Z" fill="#fcea2b"/>
    <circle cx="40.9582" cy="23.6777" r="3.2656" fill="#fcea2b"/>
  </g>
  <g id="skin-shadow">
    <path d="M16.7524,51.5216a1.2361,1.2361,0,0,0,1.6025.8177l6.0346-1.85a5.3735,5.3735,0,0,0,2.1872-1.3919l5.1124-5.1747L29.58,43.7358l-3.9931,4.0417A5.3718,5.3718,0,0,1,23.4,49.1694l-3.7532,1.402Z" fill="#f1b31c"/>
  </g>
  <g id="line">
    <polyline points="48.237 56.329 48.237 15.214 23.389 15.214 23.389 28.304" fill="none" stroke="#000" stroke-linecap="round" stroke-linejoin="round" stroke-width="2"/>
    <polyline points="45.386 59.75 58.982 59.75 58.982 10.322 12.884 10.322 12.884 59.95 19.487 59.95 23.389 56.988 23.389 54.201" fill="none" stroke="#000" stroke-linecap="round" stroke-linejoin="round" stroke-width="2"/>
    <polyline points="45.268 36.922 39.97 36.922 35.323 31.59" fill="none" stroke="#000" stroke-linecap="round" stroke-linejoin="round" stroke-width="2"/>
    <path d="M35.0768,27.5948s-5.7852,1.3531-7.0881,2.2862c-1.6642,1.1919-5.6737,7.1624-5.6737,7.1624" fill="none" stroke="#000" stroke-linecap="round" stroke-linejoin="round" stroke-width="2"/>
    <g>
      <path d="M16.7524,51.5216a1.2361,1.2361,0,0,0,1.6025.8177l6.0345-1.85a5.3711,5.3711,0,0,0,2.1873-1.3919l5.1124-5.1746" fill="none" stroke="#000" stroke-linecap="round" stroke-linejoin="round" stroke-width="2"/>
      <path d="M26.1488,43.3406,23.92,46.7116,17.5885,49.78a1.42,1.42,0,0,0-.8361,1.7419" fill="none" stroke="#000" stroke-linecap="round" stroke-linejoin="round" stroke-width="2"/>
    </g>
    <path d="M35.3,36.7914v2.214L39.4612,44.13a6.6228,6.6228,0,0,1,.7557,2.7049l.4056,9.1511c.0862,1.7805-.8241,2.72-1.7359,2.72-.97,0-1.7205-.9125-1.8839-2.6318L35.95,47.4148l-6.9159-5.8937a3.2164,3.2164,0,0,1-1.1132-2.3658,5.417,5.417,0,0,1,.7648-2.5812l3.2934-5.9464c1.141-2.2818,2.2558-3.092,3.7619-3.092a2.7144,2.7144,0,0,1,2.681,2.7675" fill="none" stroke="#000" stroke-linecap="round" stroke-linejoin="round" stroke-width="2"/>
    <path d="M37.6925,23.6777a3.2657,3.2657,0,1,1,3.2657,3.2656" fill="none" stroke="#000" stroke-linecap="round" stroke-linejoin="round" stroke-width="2"/>
  </g>
</svg>
