<svg xmlns="http://www.w3.org/2000/svg" viewBox="0 0 72 72">
  <title>Guemil_Private_Area_037</title>
  <g id="emoji">
    <g id="grid">
      <path d="M68,4V68H4V4H68m4-4H0V72H72V0Z" fill="#b3b3b3"/>
      <path d="M12.923,10.9583H59.0769A1.9231,1.9231,0,0,1,61,12.8814V59.0352a1.9231,1.9231,0,0,1-1.9231,1.9231H12.9231A1.9231,1.9231,0,0,1,11,59.0352V12.8813A1.923,1.923,0,0,1,12.923,10.9583Z" fill="none" stroke="#00a5ff" stroke-miterlimit="10" stroke-width="0.1"/>
      <rect x="16" y="4" width="40" height="64" rx="2.2537" ry="2.2537" fill="none" stroke="#00a5ff" stroke-miterlimit="10" stroke-width="0.1"/>
      <rect x="16" y="4" width="40" height="64" rx="2.2537" ry="2.2537" transform="translate(72) rotate(90)" fill="none" stroke="#00a5ff" stroke-miterlimit="10" stroke-width="0.1"/>
      <circle cx="36" cy="36" r="29" fill="none" stroke="#00a5ff" stroke-miterlimit="10" stroke-width="0.1"/>
    </g>
    <g id="color">
      <circle cx="35.9393" cy="29.2806" r="3.15" fill="#3f3f3f"/>
      <polyline points="46.439 64.56 36.838 32.3 35.041 32.3 25.439 64.56" fill="#d0cfce"/>
    </g>
    <g id="line">
      <path d="M18.8627,46.3572a24.1519,24.1519,0,0,1-1.7821-32.1636" fill="none" stroke="#000" stroke-linecap="round" stroke-miterlimit="10" stroke-width="2"/>
      <path d="M54.798,14.1936a24.1519,24.1519,0,0,1-1.7821,32.1636" fill="none" stroke="#000" stroke-linecap="round" stroke-miterlimit="10" stroke-width="2"/>
      <path d="M48.2384,19.4412a15.7512,15.7512,0,0,1-1.1622,20.9763" fill="none" stroke="#000" stroke-linecap="round" stroke-miterlimit="10" stroke-width="2"/>
      <path d="M24.8024,40.4175A15.7511,15.7511,0,0,1,23.64,19.4413" fill="none" stroke="#000" stroke-linecap="round" stroke-miterlimit="10" stroke-width="2"/>
      <circle cx="35.9393" cy="29.2806" r="3.15" fill="none" stroke="#000" stroke-miterlimit="10" stroke-width="2"/>
      <line x1="28.5893" y1="55.4773" x2="43.2893" y2="55.4773" fill="#d0cfce" stroke="#000" stroke-linecap="round" stroke-linejoin="round" stroke-width="2"/>
      <line x1="31.7393" y1="43.6128" x2="40.1393" y2="43.6128" fill="#d0cfce" stroke="#000" stroke-linecap="round" stroke-linejoin="round" stroke-width="2"/>
      <line x1="35.0407" y1="32.2999" x2="25.4393" y2="64.5596" fill="none" stroke="#000" stroke-linecap="round" stroke-linejoin="round" stroke-width="2"/>
      <line x1="46.4393" y1="64.5596" x2="36.838" y2="32.3001" fill="none" stroke="#000" stroke-linecap="round" stroke-linejoin="round" stroke-width="2"/>
    </g>
  </g>
</svg>
