<svg xmlns="http://www.w3.org/2000/svg" viewBox="0 0 72 72">
  <title>23F2</title>
  <g id="emoji">
    <g id="grid">
      <path d="M68,4V68H4V4H68m4-4H0V72H72V0Z" fill="#b3b3b3"/>
      <path d="M12.923,10.9583H59.0769A1.9231,1.9231,0,0,1,61,12.8814V59.0352a1.9231,1.9231,0,0,1-1.9231,1.9231H12.9231A1.9231,1.9231,0,0,1,11,59.0352V12.8813A1.923,1.923,0,0,1,12.923,10.9583Z" fill="none" stroke="#00a5ff" stroke-miterlimit="10" stroke-width="0.1"/>
      <rect x="16" y="4" width="40" height="64" rx="2.2537" ry="2.2537" fill="none" stroke="#00a5ff" stroke-miterlimit="10" stroke-width="0.1"/>
      <rect x="16" y="4" width="40" height="64" rx="2.2537" ry="2.2537" transform="translate(72) rotate(90)" fill="none" stroke="#00a5ff" stroke-miterlimit="10" stroke-width="0.1"/>
      <circle cx="36" cy="36" r="29" fill="none" stroke="#00a5ff" stroke-miterlimit="10" stroke-width="0.1"/>
    </g>
    <g id="color">
      <circle cx="35.9047" cy="36.0138" r="27.0345" fill="#fcea2b"/>
      <circle cx="36.0058" cy="36.0369" r="21.8709" fill="#fff"/>
    </g>
    <g id="line">
      <path d="M55.1092,25.38a21.8626,21.8626,0,1,1-8.0938-8.2451" fill="none" stroke="#000" stroke-linecap="round" stroke-linejoin="round" stroke-width="2"/>
      <path d="M62.9392,35.9973a27.0463,27.0463,0,1,1-5.265-16.0382" fill="none" stroke="#000" stroke-linecap="round" stroke-linejoin="round" stroke-width="2"/>
      <polyline points="47.394 21.578 58.432 20.418 57.272 9.38" fill="none" stroke="#000" stroke-linecap="round" stroke-linejoin="round" stroke-width="2"/>
      <polyline points="49.975 36.354 35.987 36.354 35.891 36.354 35.891 18.52" fill="none" stroke="#000" stroke-linecap="round" stroke-linejoin="round" stroke-width="2"/>
      <line x1="35.8906" y1="53.9106" x2="35.8906" y2="50.0661" fill="none" stroke="#000" stroke-linecap="round" stroke-linejoin="round" stroke-width="2"/>
      <polyline points="21.143 36.354 18.086 36.354 18.086 36.354" fill="none" stroke="#000" stroke-linecap="round" stroke-linejoin="round" stroke-width="2"/>
      <circle cx="35.8906" cy="36.3538" r="3.7371"/>
      <circle cx="48.6938" cy="47.9371" r="1.4802"/>
      <circle cx="23.0873" cy="24.7172" r="1.4802"/>
      <circle cx="23.0873" cy="47.9371" r="1.4802"/>
    </g>
  </g>
</svg>
