<svg id="emoji" viewBox="0 0 72 72" xmlns="http://www.w3.org/2000/svg">
  <g id="grid">
    <path fill="#b3b3b3" d="M68,4V68H4V4H68m4-4H0V72H72V0Z"/>
    <path fill="none" stroke="#00a5ff" stroke-miterlimit="10" stroke-width="0.1" d="M12.923,10.9583H59.0769A1.9231,1.9231,0,0,1,61,12.8814V59.0352a1.9231,1.9231,0,0,1-1.9231,1.9231H12.9231A1.9231,1.9231,0,0,1,11,59.0352V12.8813A1.923,1.923,0,0,1,12.923,10.9583Z"/>
    <rect x="16" y="4" rx="2.2537" width="40" height="64" fill="none" stroke="#00a5ff" stroke-miterlimit="10" stroke-width="0.1"/>
    <rect x="16" y="4" rx="2.2537" width="40" height="64" transform="translate(72) rotate(90)" fill="none" stroke="#00a5ff" stroke-miterlimit="10" stroke-width="0.1"/>
    <circle cx="36" cy="36" r="29" fill="none" stroke="#00a5ff" stroke-miterlimit="10" stroke-width="0.1"/>
  </g>
  <g id="color">
    <path fill="#92d3f5" stroke="none" d="M31.3882,26.7177c0,0,9.2367-1.8188,8.4221-9.1964c-1.3538-12.261-1.4678-10.4237-1.4678-10.4237 l-5.5293,1.0104C32.8133,8.1081,35.9998,21.7018,31.3882,26.7177z"/>
    <path fill="#92d3f5" stroke="none" stroke-linecap="round" stroke-linejoin="round" stroke-miterlimit="10" stroke-width="2" d="M34.5417,7.0359c-8.1462,0-14.75,7.496-14.75,16.7427v16.388h29.5"/>
    <rect x="26.8333" y="44.5" width="4" height="22.095" fill="#d0cfce" stroke="none" stroke-linecap="round" stroke-linejoin="round" stroke-miterlimit="10" stroke-width="2"/>
    <rect x="41.3333" y="44.5" width="4" height="16.4792" fill="#d0cfce" stroke="none" stroke-linecap="round" stroke-linejoin="round" stroke-miterlimit="10" stroke-width="2"/>
    <path fill="#61b2e4" stroke="none" d="M34.5417,7.5625c0,0,15.3232,0.5495,15.9047,13.875c0.9664,22.1458,0.0665,18.9191,0.0665,18.9191 l-9.3254-0.19C41.1875,40.1667,42.6247,15.125,34.5417,7.5625z"/>
    <rect x="43.3333" y="40.7917" width="11.8333" height="3.0833" fill="#61b2e4" stroke="none"/>
    <rect x="16.3353" y="40.7917" width="26.998" height="3.0833" fill="#92d3f5" stroke="none"/>
  </g>
  <g id="hair"/>
  <g id="skin"/>
  <g id="skin-shadow"/>
  <g id="line">
    <path fill="none" stroke="#000000" stroke-linecap="round" stroke-linejoin="round" stroke-miterlimit="10" stroke-width="2" d="M34.5417,7.0359c-8.1462,0-14.75,7.496-14.75,16.7427v16.388h29.5"/>
    <rect x="26.8333" y="44.5" width="4" height="22.095" fill="none" stroke="#000000" stroke-linecap="round" stroke-linejoin="round" stroke-miterlimit="10" stroke-width="2"/>
    <rect x="41.3333" y="44.5" width="4" height="16.4792" fill="none" stroke="#000000" stroke-linecap="round" stroke-linejoin="round" stroke-miterlimit="10" stroke-width="2"/>
    <path fill="none" stroke="#000000" stroke-linecap="round" stroke-linejoin="round" stroke-miterlimit="10" stroke-width="2" d="M35.2497,7.0359c8.1462,0,14.75,7.496,14.75,16.7427v7.388"/>
    <polygon fill="none" stroke="#000000" stroke-linecap="round" stroke-linejoin="round" stroke-miterlimit="10" stroke-width="2" points="16,44.5 45.5309,44.5 45.9063,44.5 56,44.5 56,40.1667 45.9063,40.1667 45.4999,40.1667 16,40.1667"/>
  </g>
</svg>
