<svg id="emoji" viewBox="0 0 72 72" xmlns="http://www.w3.org/2000/svg">
  <g id="grid">
    <path fill="#b3b3b3" d="M68,4V68H4V4H68m4-4H0V72H72V0Z"/>
    <path fill="none" stroke="#00a5ff" stroke-miterlimit="10" stroke-width="0.1" d="M12.923,10.9583H59.0769A1.9231,1.9231,0,0,1,61,12.8814V59.0352a1.9231,1.9231,0,0,1-1.9231,1.9231H12.9231A1.9231,1.9231,0,0,1,11,59.0352V12.8813A1.923,1.923,0,0,1,12.923,10.9583Z"/>
    <rect x="16" y="4" rx="2.2537" width="40" height="64" fill="none" stroke="#00a5ff" stroke-miterlimit="10" stroke-width="0.1"/>
    <rect x="16" y="4" rx="2.2537" width="40" height="64" transform="translate(72) rotate(90)" fill="none" stroke="#00a5ff" stroke-miterlimit="10" stroke-width="0.1"/>
    <circle cx="36" cy="36" r="29" fill="none" stroke="#00a5ff" stroke-miterlimit="10" stroke-width="0.1"/>
  </g>
  <g id="color">
    <rect x="29" y="4" width="14" height="18" fill="#9B9B9A" stroke="none"/>
    <rect x="29" y="50" width="14" height="18" fill="#9B9B9A" stroke="none"/>
    <circle cx="36" cy="36" r="15" fill="#3F3F3F" stroke="none"/>
    <rect x="28" y="28" width="6" height="6" fill="#92D3F5" stroke="none"/>
    <rect x="38" y="28" width="6" height="6" fill="#EA5A47" stroke="none"/>
    <rect x="38" y="38" width="6" height="6" fill="#92D3F5" stroke="none"/>
    <rect x="28" y="38" width="6" height="6" fill="#B399C8" stroke="none"/>
  </g>
  <g id="hair"/>
  <g id="skin"/>
  <g id="skin-shadow"/>
  <g id="line">
    <circle cx="36" cy="36" r="15" fill="none" stroke="#000000" stroke-linecap="round" stroke-linejoin="round" stroke-miterlimit="10" stroke-width="2"/>
    <line x1="29" x2="29" y1="22" y2="5" fill="none" stroke="#000000" stroke-linecap="round" stroke-linejoin="round" stroke-miterlimit="10" stroke-width="2"/>
    <line x1="43" x2="43" y1="22" y2="5" fill="none" stroke="#000000" stroke-linecap="round" stroke-linejoin="round" stroke-miterlimit="10" stroke-width="2"/>
    <line x1="29" x2="29" y1="67" y2="50" fill="none" stroke="#000000" stroke-linecap="round" stroke-linejoin="round" stroke-miterlimit="10" stroke-width="2"/>
    <line x1="43" x2="43" y1="67" y2="50" fill="none" stroke="#000000" stroke-linecap="round" stroke-linejoin="round" stroke-miterlimit="10" stroke-width="2"/>
    <path fill="none" stroke="#000000" stroke-linecap="round" stroke-linejoin="round" stroke-miterlimit="10" stroke-width="2" d="M33,34h-4c-0.5523,0-1-0.4477-1-1v-4c0-0.5523,0.4477-1,1-1h4c0.5523,0,1,0.4477,1,1v4C34,33.5523,33.5523,34,33,34z"/>
    <path fill="none" stroke="#000000" stroke-linecap="round" stroke-linejoin="round" stroke-miterlimit="10" stroke-width="2" d="M43,34h-4c-0.5523,0-1-0.4477-1-1v-4c0-0.5523,0.4477-1,1-1h4c0.5523,0,1,0.4477,1,1v4C44,33.5523,43.5523,34,43,34z"/>
    <path fill="none" stroke="#000000" stroke-linecap="round" stroke-linejoin="round" stroke-miterlimit="10" stroke-width="2" d="M43,44h-4c-0.5523,0-1-0.4477-1-1v-4c0-0.5523,0.4477-1,1-1h4c0.5523,0,1,0.4477,1,1v4C44,43.5523,43.5523,44,43,44z"/>
    <path fill="none" stroke="#000000" stroke-linecap="round" stroke-linejoin="round" stroke-miterlimit="10" stroke-width="2" d="M33,44h-4c-0.5523,0-1-0.4477-1-1v-4c0-0.5523,0.4477-1,1-1h4c0.5523,0,1,0.4477,1,1v4C34,43.5523,33.5523,44,33,44z"/>
    <circle cx="36" cy="66" r="2" fill="#000000" stroke="none"/>
  </g>
</svg>
