<svg id="emoji" x="0" y="0" viewBox="0 0 72 72" version="1.1" xmlns="http://www.w3.org/2000/svg">
  <g id="grid">
    <path fill="#B3B3B3" d="M68,4v64H4V4H68 M72,0H0v72h72V0z"/>
    <path fill="none" stroke="#00A5FF" stroke-miterlimit="10" stroke-width="0.1" d="M12.9,11h46.2c1.1,0,1.9,0.9,1.9,1.9l0,0V59 c0,1.1-0.9,1.9-1.9,1.9H12.9C11.9,61,11,60.1,11,59l0,0V12.9C11,11.8,11.9,11,12.9,11L12.9,11z"/>
    <path fill="none" stroke="#00A5FF" stroke-miterlimit="10" stroke-width="0.1" d="M18.3,4h35.5C55,4,56,5,56,6.3v59.5 c0,1.2-1,2.3-2.3,2.3H18.3C17,68,16,67,16,65.7V6.3C16,5,17,4,18.3,4z"/>
    <path fill="none" stroke="#00A5FF" stroke-miterlimit="10" stroke-width="0.1" d="M68,18.3v35.5c0,1.2-1,2.3-2.3,2.3H6.3 C5,56,4,55,4,53.7V18.3C4,17,5,16,6.3,16h59.5C67,16,68,17,68,18.3z"/>
    <circle cx="36" cy="36" r="29" fill="none" stroke="#00A5FF" stroke-miterlimit="10" stroke-width="0.1"/>
  </g>
  <g id="color">
    <rect x="4" y="24" width="64" height="24" fill="#FFFFFF"/>
    <polygon fill="#D0CFCE" points="59,24 68,24 68,48 32,48"/>
  </g>
  <g id="hair"/>
  <g id="skin"/>
  <g id="skin-shadow"/>
  <g id="line">
    <rect x="4" y="24" width="64" height="24" fill="none" stroke="#000000" stroke-linecap="round" stroke-linejoin="round" stroke-miterlimit="10" stroke-width="2"/>
    <path d="M41,44H9c-0.6,0-1-0.4-1-1V29c0-0.6,0.4-1,1-1h32c0.6,0,1,0.4,1,1v14C42,43.6,41.6,44,41,44z"/>
    <path d="M63,44h-8c-0.6,0-1-0.4-1-1V29c0-0.6,0.4-1,1-1h8c0.6,0,1,0.4,1,1v14C64,43.6,63.6,44,63,44z"/>
    <path d="M49.3,40.3v-0.7c0-0.6-0.4-1-1-1h-0.7c-0.6,0-1,0.4-1,1v0.7c0,0.6-0.4,1-1,1H45c-0.6,0-1,0.4-1,1V43c0,0.6,0.4,1,1,1h1.7 h2.7H51c0.6,0,1-0.4,1-1v-0.7c0-0.6-0.4-1-1-1h-0.7C49.8,41.3,49.3,40.9,49.3,40.3z"/>
    <path d="M51,34h-6c-0.6,0-1-0.4-1-1v-4c0-0.6,0.4-1,1-1h6c0.6,0,1,0.4,1,1v4C52,33.6,51.6,34,51,34z"/>
  </g>
  <g id="color-foreground">
    <path fill="#3F3F3F" d="M41,44H9c-0.6,0-1-0.4-1-1V29c0-0.6,0.4-1,1-1h32c0.6,0,1,0.4,1,1v14C42,43.6,41.6,44,41,44z"/>
    <path fill="#3F3F3F" d="M63,44h-8c-0.6,0-1-0.4-1-1V29c0-0.6,0.4-1,1-1h8c0.6,0,1,0.4,1,1v14C64,43.6,63.6,44,63,44z"/>
    <path fill="#3F3F3F" d="M49.3,40.3v-0.7c0-0.6-0.4-1-1-1h-0.7c-0.6,0-1,0.4-1,1v0.7c0,0.6-0.4,1-1,1H45c-0.6,0-1,0.4-1,1V43 c0,0.6,0.4,1,1,1h1.7h2.7H51c0.6,0,1-0.4,1-1v-0.7c0-0.6-0.4-1-1-1h-0.7C49.8,41.3,49.3,40.9,49.3,40.3z"/>
    <path fill="#3F3F3F" d="M51,34h-6c-0.6,0-1-0.4-1-1v-4c0-0.6,0.4-1,1-1h6c0.6,0,1,0.4,1,1v4C52,33.6,51.6,34,51,34z"/>
  </g>
</svg>
