<svg id="emoji" viewBox="0 0 72 72" version="1.1" xmlns="http://www.w3.org/2000/svg">
  <g id="grid">
    <path fill="#B3B3B3" d="M68,4v64H4V4H68 M72,0H0v72h72V0z"/>
    <path fill="none" stroke="#00A5FF" stroke-miterlimit="10" stroke-width="0.1" d="M12.9,11h46.2c1.1,0,1.9,0.9,1.9,1.9l0,0V59 c0,1.1-0.9,1.9-1.9,1.9H12.9C11.9,61,11,60.1,11,59l0,0V12.9C11,11.8,11.9,11,12.9,11L12.9,11z"/>
    <path fill="none" stroke="#00A5FF" stroke-miterlimit="10" stroke-width="0.1" d="M18.3,4h35.5C55,4,56,5,56,6.3v59.5 c0,1.2-1,2.3-2.3,2.3H18.3C17,68,16,67,16,65.7V6.3C16,5,17,4,18.3,4z"/>
    <path fill="none" stroke="#00A5FF" stroke-miterlimit="10" stroke-width="0.1" d="M68,18.3v35.5c0,1.2-1,2.3-2.3,2.3H6.3 C5,56,4,55,4,53.7V18.3C4,17,5,16,6.3,16h59.5C67,16,68,17,68,18.3z"/>
    <circle cx="36" cy="36" r="29" fill="none" stroke="#00A5FF" stroke-miterlimit="10" stroke-width="0.1"/>
  </g>
  <g id="color">
    <rect x="21" y="30" width="6" height="12" fill="#FFFFFF"/>
    <circle cx="41" cy="36" r="15" fill="#FFFFFF"/>
    <path fill="#D0CFCE" d="M30.4,46.6C33.1,49.3,36.9,51,41,51c8.3,0,15-6.7,15-15c0-3.6-1.3-6.9-3.4-9.5c-0.3-0.4-0.7-0.8-1.1-1.2"/>
  </g>
  <g id="hair"/>
  <g id="skin"/>
  <g id="skin-shadow"/>
  <g id="line">
    <line x1="21" x2="16" y1="32" y2="32" fill="none" stroke="#000000" stroke-linecap="round" stroke-linejoin="round" stroke-miterlimit="10" stroke-width="2"/>
    <line x1="21" x2="16" y1="36" y2="36" fill="none" stroke="#000000" stroke-linecap="round" stroke-linejoin="round" stroke-miterlimit="10" stroke-width="2"/>
    <line x1="21" x2="16" y1="40" y2="40" fill="none" stroke="#000000" stroke-linecap="round" stroke-linejoin="round" stroke-miterlimit="10" stroke-width="2"/>
    <polyline fill="none" stroke="#000000" stroke-linecap="round" stroke-linejoin="round" stroke-miterlimit="10" stroke-width="2" points="27,41.4 27,42 21,42 21,30 27,30 27,30.6"/>
    <circle cx="41" cy="36" r="15" fill="none" stroke="#000000" stroke-linecap="round" stroke-linejoin="round" stroke-miterlimit="10" stroke-width="2"/>
    <circle cx="41" cy="36" r="4"/>
  </g>
  <g id="color-foreground">
    <path fill="#E27022" d="M20.005,30.99v2.02h-4.04c-0.606,0-1.01-0.505-1.01-1.01c0-0.505,0.404-1.01,1.01-1.01H20.005z"/>
    <path fill="#E27022" d="M20.005,34.99v2.02h-4.04c-0.606,0-1.01-0.505-1.01-1.01s0.404-1.01,1.01-1.01H20.005z"/>
    <path fill="#E27022" d="M20.005,38.99v2.02h-4.04c-0.606,0-1.01-0.505-1.01-1.01s0.404-1.01,1.01-1.01H20.005z"/>
  </g>
</svg>
