<svg id="emoji" viewBox="0 0 72 72" xmlns="http://www.w3.org/2000/svg">
  <g id="grid">
    <path fill="#B3B3B3" d="M68 4V68H4V4H68ZM72 0H0V72H72V0Z"/>
    <path fill="none" stroke="#00A5FF" stroke-miterlimit="10" stroke-width="0.1" d="M12.923 10.9583H59.0769C59.5869 10.9583 60.0761 11.1609 60.4367 11.5216C60.7974 11.8822 61 12.3714 61 12.8814V59.0352C61 59.5452 60.7974 60.0344 60.4367 60.3951C60.0761 60.7557 59.5869 60.9583 59.0769 60.9583H12.9231C12.4131 60.9583 11.9239 60.7557 11.5633 60.3951C11.2026 60.0344 11 59.5452 11 59.0352V12.8813C11 12.3713 11.2026 11.8822 11.5632 11.5215C11.9239 11.1609 12.413 10.9583 12.923 10.9583V10.9583Z"/>
    <path fill="none" stroke="#00A5FF" stroke-miterlimit="10" stroke-width="0.1" d="M53.7463 4H18.2537C17.009 4 16 5.00902 16 6.2537V65.7463C16 66.991 17.009 68 18.2537 68H53.7463C54.991 68 56 66.991 56 65.7463V6.2537C56 5.00902 54.991 4 53.7463 4Z"/>
    <path fill="none" stroke="#00A5FF" stroke-miterlimit="10" stroke-width="0.1" d="M68 53.7463V18.2537C68 17.009 66.991 16 65.7463 16L6.2537 16C5.00902 16 4 17.009 4 18.2537V53.7463C4 54.991 5.00902 56 6.2537 56L65.7463 56C66.991 56 68 54.991 68 53.7463Z"/>
    <path fill="none" stroke="#00A5FF" stroke-miterlimit="10" stroke-width="0.1" d="M36 65C52.0163 65 65 52.0163 65 36C65 19.9837 52.0163 7 36 7C19.9837 7 7 19.9837 7 36C7 52.0163 19.9837 65 36 65Z"/>
  </g>
  <g id="line-supplement">
    <rect x="20" y="20" width="4" height="4" fill="#000"/>
    <rect x="20" y="48" width="4" height="4" fill="#000"/>
    <rect x="48" y="20" width="4" height="4" fill="#000"/>
  </g>
  <g id="color">
    <rect x="12" y="12" width="48" height="48" fill="#fff" stroke="#000" stroke-linejoin="round" stroke-width="2"/>
    <rect x="20" y="20" width="4" height="4" fill="#3F3F3F" stroke="#000" stroke-linejoin="round" stroke-width="2"/>
    <rect x="20" y="48" width="4" height="4" fill="#3F3F3F" stroke="#000" stroke-linejoin="round" stroke-width="2"/>
    <rect x="48" y="20" width="4" height="4" fill="#3F3F3F" stroke="#000" stroke-linejoin="round" stroke-width="2"/>
  </g>
  <g id="line">
    <circle cx="18" cy="40" r="1" fill="#000"/>
    <circle cx="16" cy="38" r="1" fill="#000"/>
    <circle cx="20" cy="38" r="1" fill="#000"/>
    <circle cx="34" cy="46" r="1" fill="#000"/>
    <circle cx="40" cy="38" r="1" fill="#000"/>
    <circle cx="40" cy="28" r="1" fill="#000"/>
    <circle cx="32" cy="16" r="1" fill="#000"/>
    <circle cx="46" cy="32" r="1" fill="#000"/>
    <circle cx="52" cy="32" r="1" fill="#000"/>
    <circle cx="52" cy="44" r="1" fill="#000"/>
    <circle cx="54" cy="48" r="1" fill="#000"/>
    <circle cx="56" cy="56" r="1" fill="#000"/>
    <circle cx="32" cy="56" r="1" fill="#000"/>
    <circle cx="44" cy="56" r="1" fill="#000"/>
    <circle cx="46" cy="54" r="1" fill="#000"/>
    <circle cx="44" cy="52" r="1" fill="#000"/>
    <circle cx="16" cy="32" r="1" fill="#000"/>
    <circle cx="40" cy="54" r="1" fill="#000"/>
    <rect x="12" y="12" width="48" height="48" fill="none" stroke="#000" stroke-linejoin="round" stroke-width="2"/>
    <rect x="16" y="16" width="12" height="12" fill="none" stroke="#000" stroke-linejoin="round" stroke-width="2"/>
    <rect x="20" y="20" width="4" height="4" fill="none" stroke="#000" stroke-linejoin="round" stroke-width="2"/>
    <rect x="16" y="44" width="12" height="12" fill="none" stroke="#000" stroke-linejoin="round" stroke-width="2"/>
    <rect x="20" y="48" width="4" height="4" fill="none" stroke="#000" stroke-linejoin="round" stroke-width="2"/>
    <rect x="44" y="16" width="12" height="12" fill="none" stroke="#000" stroke-linejoin="round" stroke-width="2"/>
    <rect x="48" y="20" width="4" height="4" fill="none" stroke="#000" stroke-linejoin="round" stroke-width="2"/>
    <path fill="none" stroke="#000" stroke-linecap="round" stroke-linejoin="round" stroke-width="2" d="M18 36V34H26"/>
    <path fill="none" stroke="#000" stroke-linecap="round" stroke-linejoin="round" stroke-width="2" d="M20 34V32"/>
    <path fill="none" stroke="#000" stroke-linecap="round" stroke-linejoin="round" stroke-width="2" d="M24 34V40"/>
    <path fill="none" stroke="#000" stroke-linecap="round" stroke-linejoin="round" stroke-width="2" d="M24 38H26"/>
    <path fill="none" stroke="#000" stroke-linecap="round" stroke-linejoin="round" stroke-width="2" d="M38 32V30"/>
    <path fill="none" stroke="#000" stroke-linecap="round" stroke-linejoin="round" stroke-width="2" d="M56 34H54"/>
    <path fill="none" stroke="#000" stroke-linecap="round" stroke-linejoin="round" stroke-width="2" d="M42 42H44V40"/>
    <path fill="none" stroke="#000" stroke-linecap="round" stroke-linejoin="round" stroke-width="2" d="M28 32H30"/>
    <path fill="none" stroke="#000" stroke-linecap="round" stroke-linejoin="round" stroke-width="2" d="M34 32H40"/>
    <path fill="none" stroke="#000" stroke-linecap="round" stroke-linejoin="round" stroke-width="2" d="M38 16V20H36V28"/>
    <path fill="none" stroke="#000" stroke-linecap="round" stroke-linejoin="round" stroke-width="2" d="M36 26H32V28"/>
    <path fill="none" stroke="#000" stroke-linecap="round" stroke-linejoin="round" stroke-width="2" d="M36 20H32"/>
    <path fill="none" stroke="#000" stroke-linecap="round" stroke-linejoin="round" stroke-width="2" d="M36 22H34V18"/>
    <path fill="none" stroke="#000" stroke-linecap="round" stroke-linejoin="round" stroke-width="2" d="M28 36H36"/>
    <path fill="none" stroke="#000" stroke-linecap="round" stroke-linejoin="round" stroke-width="2" d="M30 36V40H28"/>
    <path fill="none" stroke="#000" stroke-linecap="round" stroke-linejoin="round" stroke-width="2" d="M34 36V38"/>
    <path fill="none" stroke="#000" stroke-linecap="round" stroke-linejoin="round" stroke-width="2" d="M32 44V42H38V48H42V46H50V56"/>
    <path fill="none" stroke="#000" stroke-linecap="round" stroke-linejoin="round" stroke-width="2" d="M36 40V44H42M46 40H42V48H44"/>
    <path fill="none" stroke="#000" stroke-linecap="round" stroke-linejoin="round" stroke-width="2" d="M48 34V38H50V42H48V46"/>
    <path fill="none" stroke="#000" stroke-linecap="round" stroke-linejoin="round" stroke-width="2" d="M50 38V36H52"/>
    <path fill="none" stroke="#000" stroke-linecap="round" stroke-linejoin="round" stroke-width="2" d="M52 50H48V52"/>
    <path fill="none" stroke="#000" stroke-linecap="round" stroke-linejoin="round" stroke-width="2" d="M32 52H34V54H36V50"/>
    <path fill="none" stroke="#000" stroke-linecap="round" stroke-linejoin="round" stroke-width="2" d="M56 32V38H54"/>
    <path fill="none" stroke="#000" stroke-linecap="round" stroke-linejoin="round" stroke-width="2" d="M44 36V34"/>
    <path fill="none" stroke="#000" stroke-linecap="round" stroke-linejoin="round" stroke-width="2" d="M56 42V44"/>
    <path fill="none" stroke="#000" stroke-linecap="round" stroke-linejoin="round" stroke-width="2" d="M54 52H56"/>
    <path fill="none" stroke="#000" stroke-linecap="round" stroke-linejoin="round" stroke-width="2" d="M40 22V24"/>
  </g>
</svg>
