<svg id="emoji" xmlns="http://www.w3.org/2000/svg" viewBox="0 0 72 72">
  <g id="grid">
    <path d="M68,4V68H4V4H68m4-4H0V72H72V0Z" fill="#b3b3b3"></path>
    <path d="M12.923,10.9583H59.0769A1.9231,1.9231,0,0,1,61,12.8814V59.0352a1.9231,1.9231,0,0,1-1.9231,1.9231H12.9231A1.9231,1.9231,0,0,1,11,59.0352V12.8813A1.923,1.923,0,0,1,12.923,10.9583Z" fill="none" stroke="#00a5ff" stroke-miterlimit="10" stroke-width="0.1"></path>
    <rect x="16" y="4" width="40" height="64" rx="2.2537" fill="none" stroke="#00a5ff" stroke-miterlimit="10" stroke-width="0.1"></rect>
    <rect x="16" y="4" width="40" height="64" rx="2.2537" transform="translate(72) rotate(90)" fill="none" stroke="#00a5ff" stroke-miterlimit="10" stroke-width="0.1"></rect>
    <circle cx="36" cy="36" r="29" fill="none" stroke="#00a5ff" stroke-miterlimit="10" stroke-width="0.1"></circle>
  </g>
  <g id="color">
    <path fill="#9B9B9A" d="M36.0216,12.9316c-12.6956,0-22.9874,10.2918-22.9874,22.9874S23.326,58.9065,36.0216,58.9065
			S59.009,48.6147,59.009,35.9191S48.7172,12.9316,36.0216,12.9316z M36.0216,50.8832c-8.2645,0-14.9642-6.6997-14.9642-14.9642
			s6.6997-14.9642,14.9642-14.9642s14.9642,6.6997,14.9642,14.9642S44.2861,50.8832,36.0216,50.8832z" stroke="none"></path>
    <rect x="31.5295" y="7.661" fill="#9B9B9A" width="8.9825" height="11.1898" stroke="none"></rect>
    <rect x="31.5295" y="53.0691" fill="#9B9B9A" width="8.9825" height="11.1898" stroke="none"></rect>
    <rect x="8.7828" y="30.3067" transform="matrix(-1.836970e-16 1 -1 -1.836970e-16 49.1756 22.6276)" fill="#9B9B9A" width="8.9825" height="11.1898" stroke="none"></rect>
    <rect x="54.223" y="30.3067" transform="matrix(-1.836970e-16 1 -1 -1.836970e-16 94.6159 -22.8127)" fill="#9B9B9A" width="8.9825" height="11.1898" stroke="none"></rect>
  </g>
  <g id="hair">
  </g>
  <g id="skin">
  </g>
  <g id="skin-shadow">
  </g>
  <g id="line">
    <path fill="none" stroke="#000000" stroke-width="2" stroke-linecap="round" stroke-linejoin="round" stroke-miterlimit="10" d="
				M58.8744,31.433c-1.784-9.0631-9.3335-16.482-18.3729-18.3317"></path>
    <path fill="none" stroke="#000000" stroke-width="2" stroke-linecap="round" stroke-linejoin="round" stroke-miterlimit="10" d="
				M40.5016,58.8163c9.1275-1.7899,16.5775-9.2979,18.3729-18.4234"></path>
    <path fill="none" stroke="#000000" stroke-width="2" stroke-linecap="round" stroke-linejoin="round" stroke-miterlimit="10" d="
				M13.1201,40.3929c1.7832,9.1158,9.3162,16.611,18.4216,18.4234"></path>
    <path fill="none" stroke="#000000" stroke-width="2" stroke-linecap="round" stroke-linejoin="round" stroke-miterlimit="10" d="
				M31.5417,13.1012c-9.07,1.8049-16.6032,9.2666-18.4216,18.3317"></path>
    <circle fill="none" stroke="#000000" stroke-width="2" stroke-linecap="round" stroke-linejoin="round" stroke-miterlimit="10" cx="36.0216" cy="35.9191" r="15"></circle>
    <line fill="none" stroke="#000000" stroke-width="2" stroke-linecap="round" stroke-linejoin="round" stroke-miterlimit="10" x1="31.5417" y1="13.1012" x2="31.5417" y2="8.6598"></line>
    <line fill="none" stroke="#000000" stroke-width="2" stroke-linecap="round" stroke-linejoin="round" stroke-miterlimit="10" x1="40.5016" y1="13.1012" x2="40.5016" y2="8.6598"></line>
    <line fill="none" stroke="#000000" stroke-width="2" stroke-linecap="round" stroke-linejoin="round" stroke-miterlimit="10" x1="31.5417" y1="63.2578" x2="31.5417" y2="58.8163"></line>
    <line fill="none" stroke="#000000" stroke-width="2" stroke-linecap="round" stroke-linejoin="round" stroke-miterlimit="10" x1="40.5016" y1="63.2578" x2="40.5016" y2="58.8163"></line>
    <line fill="none" stroke="#000000" stroke-width="2" stroke-linecap="round" stroke-linejoin="round" stroke-miterlimit="10" x1="58.8744" y1="31.433" x2="63.3159" y2="31.433"></line>
    <line fill="none" stroke="#000000" stroke-width="2" stroke-linecap="round" stroke-linejoin="round" stroke-miterlimit="10" x1="58.8744" y1="40.3929" x2="63.3159" y2="40.3929"></line>
    <line fill="none" stroke="#000000" stroke-width="2" stroke-linecap="round" stroke-linejoin="round" stroke-miterlimit="10" x1="8.6786" y1="31.433" x2="13.1201" y2="31.433"></line>
    <line fill="none" stroke="#000000" stroke-width="2" stroke-linecap="round" stroke-linejoin="round" stroke-miterlimit="10" x1="8.6786" y1="40.3929" x2="13.1201" y2="40.3929"></line>
  </g>
</svg>