<svg version="1.1" id="emoji" xmlns="http://www.w3.org/2000/svg" x="0" y="0" viewBox="0 0 72 72" enable-background="new 0 0 72 72" xml:space="preserve">
  <g id="grid">
    <path fill="#B3B3B3" d="M68,4v64H4V4H68 M72,0H0v72h72V0z"/>
    <path fill="none" stroke="#00A5FF" stroke-width=".1" stroke-miterlimit="10" d="M12.923,10.9583h46.1539 c1.0621,0,1.9231,0.861,1.9231,1.9231v0v46.1538c0,1.0621-0.861,1.9231-1.9231,1.9231H12.9231 c-1.0621,0-1.9231-0.861-1.9231-1.9231l0,0V12.8813C11,11.8193,11.861,10.9583,12.923,10.9583L12.923,10.9583z"/>
    <path fill="none" stroke="#00A5FF" stroke-width=".1" stroke-miterlimit="10" d="M18.2537,4h35.4926C54.991,4,56,5.009,56,6.2537 v59.4926C56,66.991,54.991,68,53.7463,68H18.2537C17.009,68,16,66.991,16,65.7463V6.2537C16,5.009,17.009,4,18.2537,4z"/>
    <path fill="none" stroke="#00A5FF" stroke-width=".1" stroke-miterlimit="10" d="M68,18.2537v35.4926 C68,54.991,66.991,56,65.7463,56H6.2537C5.009,56,4,54.991,4,53.7463V18.2537C4,17.009,5.009,16,6.2537,16h59.4926 C66.991,16,68,17.009,68,18.2537z"/>
    <circle fill="none" stroke="#00A5FF" stroke-width=".1" stroke-miterlimit="10" cx="36" cy="36" r="29"/>
  </g>
  <g id="color">
    <polygon fill="#9B9B9A" points="16.5637,17.0645 54.2492,17.0645 57.3744,27.9106 60.1319,27.9106 60.1319,41.9967 56.9608,41.9967 50.3888,56.979 19.2293,56.979 13.2547,42.7701 11.0487,42.7701 11.0487,26.5319 13.2547,26.5319"/>
    <circle fill="#D0CFCE" cx="25.3876" cy="29.2749" r="5.8826"/>
    <circle fill="#D0CFCE" cx="27.4098" cy="46.11" r="4.0443"/>
    <circle fill="#D0CFCE" cx="44.3223" cy="36.0232" r="7.8499"/>
    <path fill="#FFFFFF" d="M20.75,15.9438c0-1.5947,1.1753-2.8875,2.625-2.8875S26,14.349,26,15.9438"/>
    <path fill="#FFFFFF" d="M28.625,15.9438c0-1.5947,1.1753-2.8875,2.625-2.8875s2.625,1.2928,2.625,2.8875"/>
    <path fill="#FFFFFF" d="M36.5,15.9438c0-1.5947,1.1753-2.8875,2.625-2.8875s2.625,1.2928,2.625,2.8875"/>
    <path fill="#FFFFFF" d="M44.375,15.9438c0-1.5947,1.1753-2.8875,2.625-2.8875s2.625,1.2928,2.625,2.8875"/>
  </g>
  <g id="hair"/>
  <g id="skin"/>
  <g id="skin-shadow"/>
  <g id="line">
    <polygon fill="none" stroke="#000000" stroke-width="2" stroke-linecap="round" stroke-linejoin="round" stroke-miterlimit="10" points="16.5637,17.0645 54.2492,17.0645 57.3744,27.9106 60.1319,27.9106 60.1319,41.9967 56.9608,41.9967 50.3888,56.979 19.2293,56.979 13.2547,42.7701 11.0487,42.7701 11.0487,26.5319 13.2547,26.5319"/>
    <circle fill="none" stroke="#000000" stroke-width="2" stroke-linecap="round" stroke-linejoin="round" stroke-miterlimit="10" cx="25.3876" cy="29.2749" r="5.8826"/>
    <circle fill="none" stroke="#000000" stroke-width="2" stroke-linecap="round" stroke-linejoin="round" stroke-miterlimit="10" cx="27.4098" cy="46.11" r="4.0443"/>
    <circle fill="none" stroke="#000000" stroke-width="2" stroke-linecap="round" stroke-linejoin="round" stroke-miterlimit="10" cx="44.3223" cy="36.0232" r="7.8499"/>
    <line fill="none" stroke="#000000" stroke-width="2" stroke-linecap="round" stroke-linejoin="round" stroke-miterlimit="10" x1="25.3876" y1="23.3923" x2="44.3223" y2="28.1732"/>
    <path fill="none" stroke="#000000" stroke-width="2" stroke-linecap="round" stroke-linejoin="round" stroke-miterlimit="10" d="M19.505,29.2749c0,0,2.2519,14.9967,3.8605,18.4436c1.6085,3.4468,4.0443,2.4358,4.0443,2.4358 c4.0443-0.3677,20.9103-7.3842,20.9103-7.3842"/>
    <path fill="none" stroke="#000000" stroke-width="2" stroke-linecap="round" stroke-linejoin="round" stroke-miterlimit="10" d="M20.75,15.9438c0-1.5947,1.1753-2.8875,2.625-2.8875S26,14.349,26,15.9438"/>
    <path fill="none" stroke="#000000" stroke-width="2" stroke-linecap="round" stroke-linejoin="round" stroke-miterlimit="10" d="M28.625,15.9438c0-1.5947,1.1753-2.8875,2.625-2.8875s2.625,1.2928,2.625,2.8875"/>
    <path fill="none" stroke="#000000" stroke-width="2" stroke-linecap="round" stroke-linejoin="round" stroke-miterlimit="10" d="M36.5,15.9438c0-1.5947,1.1753-2.8875,2.625-2.8875s2.625,1.2928,2.625,2.8875"/>
    <path fill="none" stroke="#000000" stroke-width="2" stroke-linecap="round" stroke-linejoin="round" stroke-miterlimit="10" d="M44.375,15.9438c0-1.5947,1.1753-2.8875,2.625-2.8875s2.625,1.2928,2.625,2.8875"/>
  </g>
</svg>
