<svg id="emoji" xmlns="http://www.w3.org/2000/svg" viewBox="0 0 72 72">
  <g id="grid">
    <path d="M68,4V68H4V4H68m4-4H0V72H72V0Z" fill="#b3b3b3"></path>
    <path d="M12.923,10.9583H59.0769A1.9231,1.9231,0,0,1,61,12.8814V59.0352a1.9231,1.9231,0,0,1-1.9231,1.9231H12.9231A1.9231,1.9231,0,0,1,11,59.0352V12.8813A1.923,1.923,0,0,1,12.923,10.9583Z" fill="none" stroke="#00a5ff" stroke-miterlimit="10" stroke-width="0.1"></path>
    <rect x="16" y="4" width="40" height="64" rx="2.2537" fill="none" stroke="#00a5ff" stroke-miterlimit="10" stroke-width="0.1"></rect>
    <rect x="16" y="4" width="40" height="64" rx="2.2537" transform="translate(72) rotate(90)" fill="none" stroke="#00a5ff" stroke-miterlimit="10" stroke-width="0.1"></rect>
    <circle cx="36" cy="36" r="29" fill="none" stroke="#00a5ff" stroke-miterlimit="10" stroke-width="0.1"></circle>
  </g>
  <g id="color">
    <path fill="#fcea2b" stroke="none" stroke-width="2" stroke-linecap="round" stroke-linejoin="round" stroke-miterlimit="10" d="
		M45.1425,52.544c-0.0953,4.0257-1.121,10.8055-1.121,10.8055l-17.1748,0.0509l0.0555-5.8104c0,0-0.1832-11.2082-5.3183-15.473
		c-10.3369-8.5849-7.6008-26.7205,3.7013-31.2386c11.1986-4.4768,22.326-1.1441,25.7584,3.8138s0.5669,9.1531,0.5669,9.1531
		s-0.773,1.5255,1.1339,4.5765s4.8497,10.5704,4.8497,10.5704l-4.0921,1.4173c0,0,2.0254,9.4571-0.835,10.8873
		s-8.6841,0.7833-13.1652-0.5515"></path>
    <path fill="#b399c8" stroke="none" stroke-width="2" stroke-linecap="round" stroke-linejoin="round" stroke-miterlimit="10" d="
		M59.2381,18.0293v15.7318H44.7458c0,0-8.724-7.4846,0-16.2086H59.25L59.2381,18.0293z"></path>
    <path fill="#b399c8" stroke="none" stroke-width="2" stroke-linecap="round" stroke-linejoin="round" stroke-miterlimit="10" d="
		M44.8488,22.0337H14.5189c0,0-2.0022,6.102,0,8.1043h30.1391"></path>
    <line fill="#b399c8" stroke="none" stroke-width="2" stroke-linecap="round" stroke-linejoin="round" stroke-miterlimit="10" x1="54.4709" y1="17.5525" x2="54.4709" y2="33.7611"></line>
    <line fill="#b399c8" stroke="none" stroke-width="2" stroke-linecap="round" stroke-linejoin="round" stroke-miterlimit="10" x1="55.9167" y1="17.5525" x2="55.9167" y2="33.7611"></line>
    <line fill="#b399c8" stroke="none" stroke-width="2" stroke-linecap="round" stroke-linejoin="round" stroke-miterlimit="10" x1="57.3625" y1="17.5525" x2="57.3625" y2="33.7611"></line>
  </g>
  <g id="hair">
  </g>
  <g id="skin">
  </g>
  <g id="skin-shadow">
  </g>
  <g id="line">
    <path fill="none" stroke="#000000" stroke-width="2" stroke-linecap="round" stroke-linejoin="round" stroke-miterlimit="10" d="
		M45.1425,52.544c-0.0953,4.0257-1.121,10.8055-1.121,10.8055l-17.1748,0.0509l0.0555-5.8104c0,0-0.1832-11.2082-5.3183-15.473
		c-10.3369-8.5849-7.6008-26.7205,3.7013-31.2386c11.1986-4.4768,22.326-1.1441,25.7584,3.8138s0.5669,9.1531,0.5669,9.1531
		s-0.773,1.5255,1.1339,4.5765s4.8497,10.5704,4.8497,10.5704l-4.0921,1.4173c0,0,2.0254,9.4571-0.835,10.8873
		s-8.6841,0.7833-13.1652-0.5515"></path>
    <path fill="none" stroke="#000000" stroke-width="2" stroke-linecap="round" stroke-linejoin="round" stroke-miterlimit="10" d="
		M59.2381,18.0293v15.7318H44.7458c0,0-8.724-7.4846,0-16.2086H59.25L59.2381,18.0293z"></path>
    <path fill="none" stroke="#000000" stroke-width="2" stroke-linecap="round" stroke-linejoin="round" stroke-miterlimit="10" d="
		M44.8488,22.0337H14.5189c0,0-2.0022,6.102,0,8.1043h30.1391"></path>
    <line fill="none" stroke="#000000" stroke-width="2" stroke-linecap="round" stroke-linejoin="round" stroke-miterlimit="10" x1="54.4709" y1="17.5525" x2="54.4709" y2="33.7611"></line>
    <line fill="none" stroke="#000000" stroke-width="2" stroke-linecap="round" stroke-linejoin="round" stroke-miterlimit="10" x1="55.9167" y1="17.5525" x2="55.9167" y2="33.7611"></line>
    <line fill="none" stroke="#000000" stroke-width="2" stroke-linecap="round" stroke-linejoin="round" stroke-miterlimit="10" x1="57.3625" y1="17.5525" x2="57.3625" y2="33.7611"></line>
  </g>
</svg>