<svg id="emoji" viewBox="0 0 72 72" xmlns="http://www.w3.org/2000/svg">
  <g id="grid">
    <path fill="#b3b3b3" d="m68,4v64H4V4h64M72,0H0v72h72V0Z"/>
    <path fill="none" stroke="#00a5ff" stroke-miterlimit="10" stroke-width="0.1" d="m12.923,10.9583h46.1539c1.0621,0,1.9231.861,1.9231,1.9231h0v46.1538c0,1.0621-.861,1.9231-1.9231,1.9231H12.9231c-1.0621,0-1.9231-.861-1.9231-1.9231h0V12.8813c0-1.062.861-1.923,1.923-1.923h0Z"/>
    <rect x="16" y="4" rx="2.2537" ry="2.2537" width="40" height="64" fill="none" stroke="#00a5ff" stroke-miterlimit="10" stroke-width="0.1"/>
    <rect x="4" y="16" rx="2.2537" ry="2.2537" width="64" height="40" fill="none" stroke="#00a5ff" stroke-miterlimit="10" stroke-width="0.1"/>
    <circle cx="36" cy="36" r="29" fill="none" stroke="#00a5ff" stroke-miterlimit="10" stroke-width="0.1"/>
  </g>
  <g id="color">
    <rect x="14.5" y="41.5" width="23" height="16" fill="#fff"/>
    <polygon fill="#fff" points="34.61 26.9 56.61 26.9 57.4233 42.9987 34.3451 42.7952 34.61 26.9"/>
    <rect x="48.5" y="32" width="5" height="4" fill="#92d3f5"/>
    <polygon fill="#ea5a47" points="57.5 26.3271 35 26.1818 46 15 57.5 25.5366 57.5 26.3271"/>
    <polygon fill="#ea5a47" points="21 34.5811 17 38.246 17 32 21 32 21 34.5811"/>
    <polygon fill="#ea5a47" points="41 19.5811 37 23.246 37 17 41 17 41 19.5811"/>
    <rect x="38" y="33" width="8" height="9.9915" fill="#a57939"/>
    <rect x="19" y="47" width="6" height="10" fill="#a57939"/>
    <rect x="28.5" y="47" width="5" height="4" fill="#92d3f5"/>
    <polygon fill="#ea5a47" points="37.5 42 14.5 42.0003 14.5 40.5366 26 30 37.5 40.5366 37.5 42"/>
  </g>
  <g id="line">
    <rect x="48.5" y="32" width="5" height="4" fill="none" stroke="#000" stroke-linecap="round" stroke-linejoin="round" stroke-width="2"/>
    <line x1="57.5" x2="34.5" y1="27" y2="27" fill="none" stroke="#000" stroke-linecap="round" stroke-linejoin="round" stroke-width="2"/>
    <polygon fill="none" stroke="#000" stroke-linecap="round" stroke-linejoin="round" stroke-width="2" points="21 34.5811 17 38.246 17 32 21 32 21 34.5811"/>
    <polygon fill="none" stroke="#000" stroke-linecap="round" stroke-linejoin="round" stroke-width="2" points="41 19.5811 37 23.246 37 17 41 17 41 19.5811"/>
    <polyline fill="none" stroke="#000" stroke-linecap="round" stroke-linejoin="round" stroke-width="2" points="34.5 33 34.5 27 34.5 25.5366 46 15 57.5 25.5366 57.5 27.0003 57.5 42 41.5 42"/>
    <polyline fill="none" stroke="#000" stroke-linecap="round" stroke-linejoin="round" stroke-width="2" points="45 42 45 32 39 32 39 36.0882"/>
    <rect x="19" y="47" width="6" height="10" fill="none" stroke="#000" stroke-linecap="round" stroke-linejoin="round" stroke-width="2"/>
    <rect x="28.5" y="47" width="5" height="4" fill="none" stroke="#000" stroke-linecap="round" stroke-linejoin="round" stroke-width="2"/>
    <polygon fill="none" stroke="#000" stroke-linecap="round" stroke-linejoin="round" stroke-width="2" points="37.5 42 14.5 42.0003 14.5 40.5366 26 30 37.5 40.5366 37.5 42"/>
    <rect x="14.5" y="42.0003" width="23" height="14.9997" fill="none" stroke="#000" stroke-linecap="round" stroke-linejoin="round" stroke-width="2"/>
  </g>
</svg>
