<svg id="emoji" viewBox="0 0 72 72" version="1.1" xmlns="http://www.w3.org/2000/svg">
  <g id="grid">
    <path fill="#B3B3B3" d="M68,4v64H4V4H68 M72,0H0v72h72V0z"/>
    <path fill="none" stroke="#00A5FF" stroke-miterlimit="10" stroke-width="0.1" d="M12.923,10.9583h46.1539 c1.0621,0,1.9231,0.861,1.9231,1.9231v0v46.1538c0,1.0621-0.861,1.9231-1.9231,1.9231H12.9231 c-1.0621,0-1.9231-0.861-1.9231-1.9231l0,0V12.8813C11,11.8193,11.861,10.9583,12.923,10.9583L12.923,10.9583z"/>
    <path fill="none" stroke="#00A5FF" stroke-miterlimit="10" stroke-width="0.1" d="M18.2537,4h35.4926C54.991,4,56,5.009,56,6.2537 v59.4926C56,66.991,54.991,68,53.7463,68H18.2537C17.009,68,16,66.991,16,65.7463V6.2537C16,5.009,17.009,4,18.2537,4z"/>
    <path fill="none" stroke="#00A5FF" stroke-miterlimit="10" stroke-width="0.1" d="M68,18.2537v35.4926 C68,54.991,66.991,56,65.7463,56H6.2537C5.009,56,4,54.991,4,53.7463V18.2537C4,17.009,5.009,16,6.2537,16h59.4926 C66.991,16,68,17.009,68,18.2537z"/>
    <circle cx="36" cy="36" r="29" fill="none" stroke="#00A5FF" stroke-miterlimit="10" stroke-width="0.1"/>
  </g>
  <g id="color">
    <rect x="16" y="26" width="40" height="34" fill="#9B9B9A"/>
    <rect x="14" y="22" width="44" height="4" fill="#D0CFCE"/>
    <polyline fill="#FFFFFF" points="19.5,26 21.5525,26 21.5525,60 19.5,60"/>
    <polyline fill="#FFFFFF" points="24.9331,26 26.9708,26 26.9708,60 24.9331,60"/>
    <polyline fill="#FFFFFF" points="47.0669,60 45.0177,60 45.0177,26 47.0669,26"/>
    <polyline fill="#FFFFFF" points="52.5,60 50.4816,60 50.4816,26 52.5,26"/>
    <polygon fill="#D0CFCE" points="36,12 19,22 53,22"/>
    <rect x="31.5" y="50" width="9" height="10" fill="#92D3F5"/>
    <circle cx="36" cy="35" r="5" fill="#FCEA2B"/>
    <path fill="none" stroke="#F4AA41" stroke-linecap="round" stroke-linejoin="round" stroke-miterlimit="10" d="M36.9482,34.2622 c-0.0977-0.3803-0.5204-0.6665-1.0269-0.6665l0,0c-0.5789,0-1.0483,0.3737-1.0483,0.8347c0,0.461,0.4693,0.8347,1.0483,0.8347 L35.9,35.2682c0.5789,0,1.0483,0.3737,1.0483,0.8347c0,0.461-0.4693,0.8347-1.0483,0.8347l0,0 c-0.5066,0-0.9293-0.2861-1.027-0.6665"/>
    <line x1="35.9106" x2="35.9106" y1="33.5958" y2="32.8" fill="none" stroke="#F4AA41" stroke-linecap="round" stroke-linejoin="round" stroke-miterlimit="10"/>
    <line x1="35.9106" x2="35.9106" y1="37.7333" y2="36.9375" fill="none" stroke="#F4AA41" stroke-linecap="round" stroke-linejoin="round" stroke-miterlimit="10"/>
  </g>
  <g id="hair"/>
  <g id="skin"/>
  <g id="skin-shadow"/>
  <g id="line">
    <rect x="16" y="26" width="40" height="34" fill="none" stroke="#000000" stroke-linecap="round" stroke-linejoin="round" stroke-miterlimit="10" stroke-width="2"/>
    <rect x="14" y="22" width="44" height="4" fill="none" stroke="#000000" stroke-linecap="round" stroke-linejoin="round" stroke-miterlimit="10" stroke-width="2"/>
    <polyline fill="none" stroke="#000000" stroke-linecap="round" stroke-linejoin="round" stroke-miterlimit="10" stroke-width="2" points="19.5,26 22.5,26 22.5,60 19.5,60"/>
    <polyline fill="none" stroke="#000000" stroke-linecap="round" stroke-linejoin="round" stroke-miterlimit="10" stroke-width="2" points="24.9331,26 27.9331,26 27.9331,60 24.9331,60"/>
    <polyline fill="none" stroke="#000000" stroke-linecap="round" stroke-linejoin="round" stroke-miterlimit="10" stroke-width="2" points="47.0669,60 44.0669,60 44.0669,26 47.0669,26"/>
    <polyline fill="none" stroke="#000000" stroke-linecap="round" stroke-linejoin="round" stroke-miterlimit="10" stroke-width="2" points="52.5,60 49.5,60 49.5,26 52.5,26"/>
    <polygon fill="none" stroke="#000000" stroke-linecap="round" stroke-linejoin="round" stroke-miterlimit="10" stroke-width="2" points="36,12 19,21.7491 53,21.7491"/>
    <rect x="31.5" y="50" width="9" height="10" fill="none" stroke="#000000" stroke-linecap="round" stroke-linejoin="round" stroke-miterlimit="10" stroke-width="2"/>
    <line x1="36" x2="36" y1="60" y2="50" fill="none" stroke="#000000" stroke-linecap="round" stroke-linejoin="round" stroke-miterlimit="10" stroke-width="2"/>
    <circle cx="36" cy="35" r="5" fill="none" stroke="#000000" stroke-miterlimit="10" stroke-width="2"/>
    <path fill="none" stroke="#000000" stroke-linecap="round" stroke-linejoin="round" stroke-miterlimit="10" d="M36.9482,34.2622 c-0.0977-0.3803-0.5204-0.6665-1.0269-0.6665l0,0c-0.5789,0-1.0483,0.3737-1.0483,0.8347c0,0.461,0.4693,0.8347,1.0483,0.8347 L35.9,35.2682c0.5789,0,1.0483,0.3737,1.0483,0.8347c0,0.461-0.4693,0.8347-1.0483,0.8347l0,0 c-0.5066,0-0.9293-0.2861-1.027-0.6665"/>
    <line x1="35.9106" x2="35.9106" y1="33.5958" y2="32.8" fill="none" stroke="#000000" stroke-linecap="round" stroke-linejoin="round" stroke-miterlimit="10"/>
    <line x1="35.9106" x2="35.9106" y1="37.7333" y2="36.9375" fill="none" stroke="#000000" stroke-linecap="round" stroke-linejoin="round" stroke-miterlimit="10"/>
  </g>
</svg>
