<?xml version="1.0" encoding="utf-8"?>
<!-- Generator: Adobe Illustrator 22.0.1, SVG Export Plug-In . SVG Version: 6.00 Build 0)  -->
<svg version="1.1" id="emoji" xmlns="http://www.w3.org/2000/svg" xmlns:xlink="http://www.w3.org/1999/xlink" x="0px" y="0px"
	 viewBox="0 0 72 72" style="enable-background:new 0 0 72 72;" xml:space="preserve">
<style type="text/css">
	.st0{fill:#B3B3B3;}
	.st1{fill:none;stroke:#00A5FF;stroke-width:0.1;stroke-miterlimit:10;}
	.st2{fill:#D0CFCE;}
	.st3{fill:#FCEA2B;}
	.st4{fill:#92D3F5;}
	.st5{fill:none;stroke:#92D3F5;stroke-width:2;stroke-linecap:round;stroke-linejoin:round;stroke-miterlimit:10;}
	.st6{fill:none;stroke:#000000;stroke-width:2;stroke-linecap:round;stroke-linejoin:round;stroke-miterlimit:10;}
</style>
<g id="grid">
	<path class="st0" d="M68,4v64H4V4H68 M72,0H0v72h72V0z"/>
	<path class="st1" d="M12.9,11h46.2c1.1,0,1.9,0.9,1.9,1.9l0,0V59c0,1.1-0.9,1.9-1.9,1.9H12.9C11.9,61,11,60.1,11,59l0,0V12.9
		C11,11.8,11.9,11,12.9,11L12.9,11z"/>
	<path class="st1" d="M18.3,4h35.5C55,4,56,5,56,6.3v59.5c0,1.2-1,2.3-2.3,2.3H18.3C17,68,16,67,16,65.7V6.3C16,5,17,4,18.3,4z"/>
	<path class="st1" d="M68,18.3v35.5c0,1.2-1,2.3-2.3,2.3H6.3C5,56,4,55,4,53.7V18.3C4,17,5,16,6.3,16h59.5C67,16,68,17,68,18.3z"/>
	<circle class="st1" cx="36" cy="36" r="29"/>
</g>
<g id="color">
	<rect x="13" y="14" class="st2" width="46" height="46"/>
	<circle class="st3" cx="37" cy="37" r="6"/>
	<rect x="29.5" y="50" class="st4" width="13" height="10"/>
	<rect x="51" y="30" class="st5" width="2" height="5"/>
	<rect x="51" y="20" class="st5" width="2" height="5"/>
	<rect x="35" y="20" class="st5" width="2" height="5"/>
	<rect x="43" y="20" class="st5" width="2" height="5"/>
	<rect x="27" y="20" class="st5" width="2" height="5"/>
	<rect x="51" y="40" class="st5" width="2" height="5"/>
	<rect x="51" y="50" class="st5" width="2" height="5"/>
	<rect x="19" y="30" class="st5" width="2" height="5"/>
	<rect x="19" y="20" class="st5" width="2" height="5"/>
	<rect x="19" y="40" class="st5" width="2" height="5"/>
	<rect x="19" y="50" class="st5" width="2" height="5"/>
	<circle class="st2" cx="37" cy="37" r="3"/>
	<polygon class="st3" points="31,34.5 26.7,38.8 32,41 33,40 	"/>
	<polygon class="st3" points="47,37 43,41 41,39 44.9,35 	"/>
	<path class="st3" d="M43,41c-1.6,1.4-3.7,2-6,2c-2.3,0-4.4-0.6-6-2l2-2c0.9,0.5,2.9,1,4,1c1.1,0,3.1-0.5,4-1L43,41z"/>
</g>
<g id="hair">
</g>
<g id="skin">
</g>
<g id="skin-shadow">
</g>
<g id="line">
	<rect x="13" y="14" class="st6" width="46" height="46"/>
	<path class="st6" d="M43,36.9L41,39c-0.8,0.5-2.7,0.9-3.8,1c1.6-0.1,2.8-1.4,2.8-3c0-1.7-1.3-3-3-3s-3,1.3-3,3c0,1.6,1.2,2.9,2.8,3
		c-1.1,0-3-0.5-3.8-1l-0.3,0.3l-1.5-4c0.7-2.5,3-4.3,5.8-4.3C40.3,31,43,33.7,43,36.9z"/>
	<rect x="29.5" y="50" class="st6" width="13" height="10"/>
	<line class="st6" x1="36" y1="60" x2="36" y2="50"/>
	<polygon class="st6" points="32.7,39.3 31.3,40.7 26.7,38.8 31,34.5 31.2,35.3 	"/>
	<polygon class="st6" points="47,37 43,41 41,39 43,36.9 44.9,35 	"/>
	<path class="st6" d="M43,41c-1.5,1.3-3.4,1.9-5.5,2c-0.2,0-0.3,0-0.5,0c-0.1,0-0.3,0-0.4,0c-2.2-0.1-4.1-0.7-5.6-2l2-2
		c0.8,0.5,2.7,0.9,3.8,1c0.1,0,0.1,0,0.2,0s0.1,0,0.2,0c1.1,0,3-0.5,3.8-1L43,41z"/>
	<polyline class="st6" points="21,25 19,25 19,20 	"/>
	<polyline class="st6" points="53,35 51,35 51,30 	"/>
	<polyline class="st6" points="45,25 43,25 43,20 	"/>
	<polyline class="st6" points="53,25 51,25 51,20 	"/>
	<polyline class="st6" points="37,25 35,25 35,20 	"/>
	<polyline class="st6" points="29,25 27,25 27,20 	"/>
	<polyline class="st6" points="21,35 19,35 19,30 	"/>
	<polyline class="st6" points="21,45 19,45 19,40 	"/>
	<polyline class="st6" points="53,45 51,45 51,40 	"/>
	<polyline class="st6" points="53,55 51,55 51,50 	"/>
	<polyline class="st6" points="21,55 19,55 19,50 	"/>
</g>
</svg>
