<svg id="emoji" viewBox="0 0 72 72" xmlns="http://www.w3.org/2000/svg">
  <g id="grid">
    <path fill="#b3b3b3" d="M68,4V68H4V4H68m4-4H0V72H72V0Z"/>
    <path fill="none" stroke="#00a5ff" stroke-miterlimit="10" stroke-width="0.1" d="M12.923,10.9583H59.0769A1.9231,1.9231,0,0,1,61,12.8814V59.0352a1.9231,1.9231,0,0,1-1.9231,1.9231H12.9231A1.9231,1.9231,0,0,1,11,59.0352V12.8813A1.923,1.923,0,0,1,12.923,10.9583Z"/>
    <rect x="16" y="4" rx="2.2537" width="40" height="64" fill="none" stroke="#00a5ff" stroke-miterlimit="10" stroke-width="0.1"/>
    <rect x="16" y="4" rx="2.2537" width="40" height="64" transform="translate(72 0) rotate(90)" fill="none" stroke="#00a5ff" stroke-miterlimit="10" stroke-width="0.1"/>
    <circle cx="36" cy="36" r="29" fill="none" stroke="#00a5ff" stroke-miterlimit="10" stroke-width="0.1"/>
  </g>
  <g id="color"/>
  <g id="skin">
    <circle cx="45.0312" cy="13.0938" r="3" fill="#fcea2b"/>
    <path fill="#fcea2b" d="M45.335,22.585s-.3038,3.708-3.3038,9.042c-.2441,.4345-1.5316,2.7838-1.5316,2.7838L47,45l.25,18h-3.4238L42,48l-6,-6l-6,-5V33L36,22"/>
    <polyline fill="#fcea2b" points="30 36 23 46 12.833 52 13.833 55 26 50 35 42"/>
    <path fill="#fcea2b" d="M36,22c2,-4,4.3594,-4.2329,6.0312,-3.583A4.1078,4.1078,0,0,1,44,24"/>
  </g>
  <g id="line">
    <circle cx="45.0312" cy="13.0938" r="3" fill="none" stroke="#000" stroke-miterlimit="10" stroke-width="2"/>
    <path fill="none" stroke="#000" stroke-linecap="round" stroke-linejoin="round" stroke-width="2" d="M30,36l-5.8535,8.3613a11.0249,11.0249,0,0,1-2.8692,2.6553l-6.7216,3.9668A2.3633,2.3633,0,0,0,13.333,53.5a1.69,1.69,0,0,0,2.35,.74L24.15,50.76a14.1043,14.1043,0,0,0,3.3447,-2.0889L35,42"/>
    <path fill="none" stroke="#000" stroke-linecap="round" stroke-linejoin="round" stroke-width="2" d="M40.9161,31.5874s-.26,.5937-.5761,1.32a4.72,4.72,0,0,0,.3515,3.46l5.2343,6.9444A8.3233,8.3233,0,0,1,47.0273,47l.1954,14a1.8486,1.8486,0,0,1-1.6846,2a2.1751,2.1751,0,0,1-1.9541,-1.9854l-1.3418,-11.0292a6.789,6.789,0,0,0-1.6563,-3.3995l-3.1718,-3.1718c-.7774,-.7774-2.1055,-1.99-2.95,-2.6944L31.5361,38.28A4.8637,4.8637,0,0,1,30,35h0c-.2291,-1.9913,2.9451,-5.7835,3.4724,-6.7494l2.5217,-6.2574"/>
    <path fill="none" stroke="#000" stroke-linecap="round" stroke-linejoin="round" stroke-width="2" d="M36.0663,21.7988c1.5315,-4.06,4.2931,-4.0317,5.9649,-3.3818A3.859,3.859,0,0,1,44.4,22.251"/>
    <path fill="none" stroke="#000" stroke-linecap="round" stroke-linejoin="round" stroke-width="2" d="M41.0625,22l1.4189,5.0771A2.7758,2.7758,0,0,0,45,29H52"/>
  </g>
</svg>
