<svg id="emoji" viewBox="0 0 72 72" xmlns="http://www.w3.org/2000/svg">
  <g id="grid">
    <path fill="#b3b3b3" d="M68,4V68H4V4H68m4-4H0V72H72V0Z"/>
    <rect x="11" y="10.9583" rx="1.9231" width="50" height="50" fill="none" stroke="#00a5ff" stroke-miterlimit="10" stroke-width="0.1"/>
    <rect x="16" y="4" rx="2.2537" width="40" height="64" fill="none" stroke="#00a5ff" stroke-miterlimit="10" stroke-width="0.1"/>
    <rect x="16" y="4" rx="2.2537" width="40" height="64" transform="translate(72) rotate(90)" fill="none" stroke="#00a5ff" stroke-miterlimit="10" stroke-width="0.1"/>
    <circle cx="36" cy="36" r="29" fill="none" stroke="#00a5ff" stroke-miterlimit="10" stroke-width="0.1"/>
  </g>
  <g id="color">
    <g id="skin">
      <circle cx="30.7736" cy="10.1266" r="3" fill="#fcea2b"/>
      <path fill="#fcea2b" d="M22.95,19.1578l3.458,-1.333l9.709,-.2085l3.416,4.458l.542,4.2915l1.667,1.167l6.666,-6.1665s1.459,1.729,.459,3.104s-3.7881,5.3242-5.916,5.7285a4.1625,4.1625,0,0,1-4.375,-1.416a13.9159,13.9159,0,0,1-1.834,-5.75l1.7,41h-3.3l-3.4,-25h-2l-3.4,25h-3.3l1.7,-41S22.048,39.724,21.06,41.149a1.3558,1.3558,0,0,1-2.3546,.2476z"/>
    </g>
  </g>
  <g id="line">
    <g>
      <g id="line-2">
        <circle cx="30.7736" cy="10.1266" r="3" fill="none" stroke="#000" stroke-miterlimit="10" stroke-width="2"/>
        <path fill="none" stroke="#000" stroke-linecap="round" stroke-linejoin="round" stroke-width="2" d="M25.7424,23.0328L23.174,62.0367a1.7151,1.7151,0,0,0,1.5176,1.9961a2.1831,2.1831,0,0,0,1.92,-1.9814L29.4729,41.0142c.1484,-1.09,.72,-1.9814,1.27,-1.9814s1.1211,.8916,1.2695,1.9814L34.8733,62.0514a2.1831,2.1831,0,0,0,1.92,1.9814a1.7151,1.7151,0,0,0,1.5176,-1.9961l-2.5684,-39.0039"/>
        <path fill="none" stroke="#000" stroke-linecap="round" stroke-linejoin="round" stroke-width="2" d="M47.7424,22.0328l-3.707,4.2373c-1.8116,2.0693-3.6631,1.543-4.1153,-1.1694l-.3554,-2.1358c-.4522,-2.7129-2.6221,-5.1572-4.8223,-5.4321a38.9051,38.9051,0,0,0-8,0c-2.2,.2749-4.37,2.7192-4.8223,5.4321l-.3554,2.1358c-.4522,2.7124-2.3794,13.6435-2.593,15.7239"/>
      </g>
      <line x1="47.8003" x2="52.2653" y1="22.101" y2="61.6725" fill="none" stroke="#000" stroke-linecap="round" stroke-miterlimit="10" stroke-width="2"/>
    </g>
  </g>
  <g id="color-foreground">
    <g>
      <line x1="49.6384" x2="53.1874" y1="21.6975" y2="52.5305" fill="none" stroke="#d0cfce" stroke-linecap="round" stroke-miterlimit="10" stroke-width="2"/>
      <line x1="53.1874" x2="54.2629" y1="52.5305" y2="62.0921" fill="none" stroke="#d22f27" stroke-linecap="round" stroke-miterlimit="10" stroke-width="2"/>
      <circle cx="54.2629" cy="62.1715" r="1.0973" fill="#d0cfce"/>
      <line x1="49.6384" x2="50.4279" y1="21.6975" y2="28.5561" fill="none" stroke="#000" stroke-linecap="round" stroke-miterlimit="10" stroke-width="2"/>
    </g>
  </g>
</svg>
