<svg id="emoji" viewBox="0 0 72 72" xmlns="http://www.w3.org/2000/svg">
  <g id="grid">
    <path fill="#b3b3b3" d="M0,68.6355H68.6357V0H0ZM3.8132,3.8131h61.01v61.01H3.8132Z"/>
    <path fill="none" stroke="#00a5ff" stroke-miterlimit="10" stroke-width="0.1" d="M56.3165,58.11H12.3193a1.8326,1.8326,0,0,1-1.8332-1.8331V12.28a1.8334,1.8334,0,0,1,1.8332-1.834H56.3165A1.8334,1.8334,0,0,1,58.15,12.28V56.2764A1.8326,1.8326,0,0,1,56.3165,58.11Z"/>
    <path fill="none" stroke="#00a5ff" stroke-miterlimit="10" stroke-width="0.1" d="M51.2347,64.8224H17.4012a2.1484,2.1484,0,0,1-2.1487-2.1486V5.9618a2.1484,2.1484,0,0,1,2.1487-2.1487H51.2347a2.1484,2.1484,0,0,1,2.1486,2.1487v56.712A2.1484,2.1484,0,0,1,51.2347,64.8224Z"/>
    <path fill="none" stroke="#00a5ff" stroke-miterlimit="10" stroke-width="0.1" d="M3.8132,51.2345V17.401a2.1485,2.1485,0,0,1,2.1487-2.1486h56.712a2.1485,2.1485,0,0,1,2.1487,2.1486V51.2345a2.1485,2.1485,0,0,1-2.1487,2.1487H5.9619A2.1485,2.1485,0,0,1,3.8132,51.2345Z"/>
    <circle cx="34.3179" cy="34.3178" r="27.6449" fill="none" stroke="#00a5ff" stroke-miterlimit="10" stroke-width="0.1"/>
  </g>
  <g id="color"/>
  <g id="skin">
    <circle cx="34.37" cy="10.73" r="3" fill="#fcea2b"/>
    <path fill="#fcea2b" d="m31.19 19.48-4.872 42.77 1.689 2.021 2.016-2.205 3.646-15.09 8.79 14.17 3.414-0.8954-6.826-14.91-0.7835-26.22-5.001-2.252z"/>
  </g>
  <g id="line">
    <ellipse cx="34.44" cy="10.67" rx="2.702" ry="2.719" fill="none" stroke="#000" stroke-miterlimit="10" stroke-width="2"/>
    <path fill="none" stroke="#000" stroke-linecap="round" stroke-linejoin="round" stroke-miterlimit="10" stroke-width="2" d="m26.32 62.25c-0.09673 0.992 0.5172 1.804 1.365 1.804 0.8479 0 1.756-0.7868 2.016-1.749l4.941-18.23c0.2604-0.9619 0.9394-2.417 1.508-3.233l1.981-2.845c0.5682-0.8159 0.9939-2.299 0.9464-3.295l-0.4498-9.289-0.2873-4.827c-0.1187-1.99-1.837-3.656-3.819-3.656h-0.04666c-1.982 0-3.783 1.659-4.005 3.64l-0.4987 4.506z"/>
    <path fill="none" stroke="#000" stroke-linecap="round" stroke-linejoin="round" stroke-miterlimit="10" stroke-width="2" d="m38.2 37.9 1.64 10.44c0.1539 0.985 0.7019 2.488 1.216 3.339l4.345 7.196c0.5137 0.8514 0.3272 1.957-0.416 2.455s-1.832 0.2505-2.421-0.5522l-4.745-6.466c-0.5884-0.8027-1.364-2.219-1.724-3.147l-1.984-5.123"/>
    <path fill="none" stroke="#000" stroke-linecap="round" stroke-linejoin="round" stroke-miterlimit="10" stroke-width="2" d="m34.62 21.46 0.04927 5.664c0.0087 0.9969-0.1768 2.604-0.4117 3.573l-2.562 10.55"/>
    <path fill="none" stroke="#000" stroke-linecap="round" stroke-linejoin="round" stroke-width="2" d="m37.86 8.885s0.5706-0.3283 0.9522-0.0639c0.4492 0.31 0.8462 1.582 1.39 2.1a3.363 3.363 0 0 0 1.958 0.94"/>
  </g>
</svg>
