<svg id="emoji" viewBox="0 0 72 72" xmlns="http://www.w3.org/2000/svg">
  <g id="grid">
    <path fill="#b3b3b3" d="M68,4V68H4V4H68m4-4H0V72H72V0Z"/>
    <path fill="none" stroke="#00a5ff" stroke-miterlimit="10" stroke-width="0.1" d="M12.923,10.9583H59.0769A1.9231,1.9231,0,0,1,61,12.8814V59.0352a1.9231,1.9231,0,0,1-1.9231,1.9231H12.9231A1.9231,1.9231,0,0,1,11,59.0352V12.8813A1.923,1.923,0,0,1,12.923,10.9583Z"/>
    <rect x="16" y="4" rx="2.2537" width="40" height="64" fill="none" stroke="#00a5ff" stroke-miterlimit="10" stroke-width="0.1"/>
    <rect x="16" y="4" rx="2.2537" width="40" height="64" transform="translate(72) rotate(90)" fill="none" stroke="#00a5ff" stroke-miterlimit="10" stroke-width="0.1"/>
    <circle cx="36" cy="36" r="29" fill="none" stroke="#00a5ff" stroke-miterlimit="10" stroke-width="0.1"/>
  </g>
  <g id="color"/>
  <g id="hair"/>
  <g id="skin">
    <polyline fill="#FCEA2B" stroke="none" points="31,24 26.75,67 30.1738,67 36.7129,43.0254 41.207,36.6104 40.6182,24.4932"/>
    <polyline fill="#FCEA2B" stroke="none" points="40.1348,38.1406 42.2666,51.6416 49.167,63 46.167,65 38.5234,54.6455 35.5938,47.1289"/>
    <path fill="#FCEA2B" stroke="none" d="M40.9248,29.5811L40.292,19.0347C40.1602,16.8389,38.252,15,36.0518,15H36 c-2.2002,0-4.2002,1.8306-4.4463,4.0171L31,23.979"/>
    <circle cx="35.9688" cy="8.0938" r="3" fill="#FCEA2B" stroke="none"/>
  </g>
  <g id="skin-shadow"/>
  <g id="line">
    <circle cx="35.9688" cy="8.0938" r="3" fill="none" stroke="#000000" stroke-miterlimit="10" stroke-width="2"/>
    <path fill="none" stroke="#000000" stroke-linecap="round" stroke-linejoin="round" stroke-miterlimit="10" stroke-width="2" d="M31,24l-4.0537,41.0098C26.8389,66.1045,27.5205,67,28.4619,67s1.9492-0.8682,2.2383-1.9297l5.4863-20.1152 c0.2891-1.0615,1.043-2.667,1.6739-3.5674l2.1992-3.1397c0.6308-0.9003,1.1035-2.5371,1.0508-3.6357l-0.4922-10.1191"/>
    <path fill="none" stroke="#000000" stroke-linecap="round" stroke-linejoin="round" stroke-miterlimit="10" stroke-width="2" d="M40.1348,38.1406l1.8203,11.5254c0.1709,1.0869,0.7793,2.7451,1.3496,3.6846l4.8242,7.9404 c0.5703,0.9395,0.3633,2.1592-0.4619,2.709c-0.8252,0.5498-2.0342,0.2764-2.6875-0.6094l-5.2686-7.1357 c-0.6533-0.8858-1.5146-2.4483-1.914-3.4727l-2.2031-5.6533"/>
    <path fill="none" stroke="#000000" stroke-linecap="round" stroke-linejoin="round" stroke-miterlimit="10" stroke-width="2" d="M40.9248,29.5811L40.292,19.0347C40.1602,16.8389,38.252,15,36.0518,15H36c-2.2002,0-4.2002,1.8306-4.4463,4.0171L31,23.979"/>
    <path fill="none" stroke="#000000" stroke-linecap="round" stroke-linejoin="round" stroke-miterlimit="10" stroke-width="2" d="M36.167,20l0.0547,6.25c0.0097,1.1001-0.1963,2.874-0.4571,3.9424L32.9199,41.834"/>
  </g>
</svg>
