<svg id="emoji" xmlns="http://www.w3.org/2000/svg" viewBox="0 0 68.636 68.636">
  <title>1F9D7-200D-2642-FE0F_2</title>
  <g id="grid">
    <path d="M.0006,68.6355H68.6361V0H.0006ZM3.8137,3.8131h61.01v61.01H3.8137Z" fill="#b3b3b3"></path>
    <path d="M56.317,58.11H12.32a1.8325,1.8325,0,0,1-1.8331-1.8331V12.28A1.8333,1.8333,0,0,1,12.32,10.446H56.317A1.8333,1.8333,0,0,1,58.15,12.28V56.2764A1.8326,1.8326,0,0,1,56.317,58.11Z" fill="none" stroke="#00a5ff" stroke-miterlimit="10" stroke-width="0.1"></path>
    <path d="M51.2351,64.8224H17.4016a2.1485,2.1485,0,0,1-2.1487-2.1486V5.9618a2.1485,2.1485,0,0,1,2.1487-2.1487H51.2351a2.1485,2.1485,0,0,1,2.1487,2.1487v56.712A2.1485,2.1485,0,0,1,51.2351,64.8224Z" fill="none" stroke="#00a5ff" stroke-miterlimit="10" stroke-width="0.1"></path>
    <path d="M3.8137,51.2345V17.401a2.1484,2.1484,0,0,1,2.1486-2.1486h56.712A2.1484,2.1484,0,0,1,64.823,17.401V51.2345a2.1484,2.1484,0,0,1-2.1487,2.1487H5.9623A2.1484,2.1484,0,0,1,3.8137,51.2345Z" fill="none" stroke="#00a5ff" stroke-miterlimit="10" stroke-width="0.1"></path>
    <circle cx="34.3183" cy="34.3178" r="27.6449" fill="none" stroke="#00a5ff" stroke-miterlimit="10" stroke-width="0.1"></circle>
  </g>
  <g id="hair">
    <path d="M24.366,36.7c-3,0-4-7-4-14,0-6,5-12,14-12s14,6,14,12c0,7-1,14-4,14" fill="#f1b31c"></path>
  </g>
  <g id="skin">
    <path d="M52.9544,58.1836a.9006.9006,0,0,1-.9532-.9533v-2.86c0-4.29-4.29-8.3888-8.2935-8.5794-5.91,4.7663-11.9159,4.7663-17.8261,0-4.0038.1906-9.2468,4.29-9.2468,8.5794v2.86a.9006.9006,0,0,1-.9532.9533" fill="#fcea2b"></path>
    <path d="M23.266,29.2922c-.1,7.6738,4.1,13.4291,11,13.4291,7.1,0,11.1-5.7553,11.1-13.4291,0-4.7961-3-9.5922-3-9.5922-8,0-10,2.8777-16,.9592A16.206,16.206,0,0,0,23.266,29.2922Z" fill="#fcea2b"></path>
  </g>
  <g id="color">
    <path d="M29,58.1836s-.9094-3.6072-.9094-4.1791l-.0162-6.263c0-4.29-3.4442-4.7216-3.4442-4.7216l-3.38,2.8713-.734,8.3554.13,3.937Z" fill="#92d3f5"></path>
    <path d="M39.6506,58.1836s.9094-3.6072.9094-4.1791l.0162-6.263c0-4.29,3.4442-4.7216,3.4442-4.7216l3.38,2.8713.734,8.3554-.13,3.937Z" fill="#92d3f5"></path>
  </g>
  <g id="line">
    <path d="M20.6347,57.2294l-.08-8.2906c0-.9552.0782-2.6339.713-3.1639a5.2776,5.2776,0,0,1,1.5729-.5015c.9009-.3145,1.3842-2.7635,2.0982-2.8683.5786-.0849,2.9208,2.7635,3.0638,2.9a6.0315,6.0315,0,0,1,.1153,2.1678,28.1171,28.1171,0,0,0-.2259,6.0561c.1.8789.837,3.7006.837,3.7006" fill="none" stroke="#000" stroke-linecap="round" stroke-linejoin="round" stroke-width="2"></path>
    <path d="M48.0149,57.2294l.08-8.2906c0-.9552-.0781-2.6339-.713-3.1639a5.2776,5.2776,0,0,0-1.5729-.5015c-.9008-.3145-1.3841-2.7635-2.0982-2.8683-.5786-.0849-2.9208,2.7635-3.0638,2.9a6.0315,6.0315,0,0,0-.1153,2.1678,28.1171,28.1171,0,0,1,.2259,6.0561c-.1.8789-.8369,3.7006-.8369,3.7006" fill="none" stroke="#000" stroke-linecap="round" stroke-linejoin="round" stroke-width="2"></path>
    <path d="M31.506,36.5a7.7957,7.7957,0,0,0,6,0" fill="none" stroke="#000000" stroke-linecap="round" stroke-linejoin="round" stroke-width="2"></path>
    <path d="M32.4591,28.9065A1.9066,1.9066,0,1,1,30.5525,27a1.9122,1.9122,0,0,1,1.9066,1.9065" fill="#000000"></path>
    <path d="M40.0851,28.9065A1.9066,1.9066,0,1,1,38.1785,27a1.9122,1.9122,0,0,1,1.9066,1.9065" fill="#000000"></path>
    <path d="M23.3758,28.2157c0,7.6262,5.3656,14.7156,11.0852,14.7156s10.486-5.72,10.486-13.3458c0-4.7664-.756-6.2954-2.581-10.8855,0,0-5.4469.4865-6.5085.7341-1.6961.3916-4.0485,1.1286-6.0674.9418A20.1963,20.1963,0,0,1,26.366,19.7C24.5154,23.7,23.3758,27.299,23.3758,28.2157Z" fill="none" stroke="#000000" stroke-linejoin="round" stroke-width="2"></path>
    <path d="M28.2208,47.5319a11.3882,11.3882,0,0,0,7.78,1.7042h0a12.3373,12.3373,0,0,0,3.9668-1.3941" fill="none" stroke="#000000" stroke-linecap="round" stroke-linejoin="round" stroke-width="2"></path>
    <path d="M16.2609,57.23v-2.86a8.921,8.921,0,0,1,.5752-2.7366c.447-1.3278,1.1068-2.2681,3.1717-3.6339" fill="none" stroke="#000000" stroke-linecap="round" stroke-linejoin="round" stroke-width="2"></path>
    <path d="M24.366,36.7c-3,0-4-7-4-14,0-6,5-12,14-12s14,6,14,12c0,7-1,14-4,14" fill="none" stroke="#000000" stroke-linecap="round" stroke-linejoin="round" stroke-width="2"></path>
    <path d="M52.4526,57.23v-2.86a8.918,8.918,0,0,0-.5752-2.7366C51.43,50.3061,50.7706,49.3658,48.7057,48" fill="none" stroke="#000000" stroke-linecap="round" stroke-linejoin="round" stroke-width="2"></path>
  </g>
</svg>