<svg id="emoji" xmlns="http://www.w3.org/2000/svg" viewBox="0 0 72 72">
  <g id="grid">
    <path d="M68,4V68H4V4H68m4-4H0V72H72V0Z" fill="#b3b3b3"/>
    <path d="M12.923,10.9583H59.0769A1.9231,1.9231,0,0,1,61,12.8814V59.0352a1.9231,1.9231,0,0,1-1.9231,1.9231H12.9231A1.9231,1.9231,0,0,1,11,59.0352V12.8813A1.923,1.923,0,0,1,12.923,10.9583Z" fill="none" stroke="#00a5ff" stroke-miterlimit="10" stroke-width=".1"/>
    <rect x="16" y="4" width="40" height="64" rx="2.2537" fill="none" stroke="#00a5ff" stroke-miterlimit="10" stroke-width=".1"/>
    <rect x="16" y="4" width="40" height="64" rx="2.2537" transform="translate(72) rotate(90)" fill="none" stroke="#00a5ff" stroke-miterlimit="10" stroke-width=".1"/>
    <circle cx="36" cy="36" r="29" fill="none" stroke="#00a5ff" stroke-miterlimit="10" stroke-width=".1"/>
  </g>
  <g id="color">
    <path fill="#B1CC33" d="M39.9167,47.3583c0,0,7.8819-2.3583,13.9826-0.8583S68,46,68,46s-7.6667,0.6667-15.3333-3.6667 S39,40.8333,32.5,40.4167c-6.5-0.4167-14.1667-4.5833-17.8333-7C11,31,8.5833,31.25,8.5833,31.25S8,32,6,33s-5,2,1,4 s8.8333,5.8333,8.8333,5.8333S21.8333,48.8583,39.9167,47.3583z" stroke="none"/>
  </g>
  <g id="hair"/>
  <g id="skin"/>
  <g id="skin-shadow"/>
  <g id="line">
    <path fill="none" stroke="#000000" stroke-width="2" stroke-linecap="round" stroke-linejoin="round" stroke-miterlimit="10" d="M39.9167,46.5c0,0,7.8819-1.5,13.9826,0S68,46,68,46s-7.6667,0.6667-15.3333-3.6667S39,40.8333,32.5,40.4167 c-6.5-0.4167-14.1667-4.5833-17.8333-7C11,31,8.5833,31.25,8.5833,31.25S8,32,6,33s-5,2,1,4s8.8333,4.8333,8.8333,4.8333"/>
    <path fill="none" stroke="#000000" stroke-width="2" stroke-linecap="round" stroke-linejoin="round" stroke-miterlimit="10" d="M21.387,45.0264c0,0,5.7159,1.8069,10.613,1.3902"/>
    <line fill="none" stroke="#000000" stroke-width="2" stroke-linecap="round" stroke-linejoin="round" stroke-miterlimit="10" x1="19" y1="43" x2="16" y2="50"/>
    <line fill="none" stroke="#000000" stroke-width="2" stroke-linecap="round" stroke-linejoin="round" stroke-miterlimit="10" x1="16" y1="48" x2="15" y2="48"/>
    <line fill="none" stroke="#000000" stroke-width="2" stroke-linecap="round" stroke-linejoin="round" stroke-miterlimit="10" x1="17" y1="48" x2="18" y2="49"/>
    <line fill="none" stroke="#000000" stroke-width="2" stroke-linecap="round" stroke-linejoin="round" stroke-miterlimit="10" x1="36.5466" y1="46.5061" x2="36.0791" y2="53.3712"/>
    <line fill="none" stroke="#000000" stroke-width="2" stroke-linecap="round" stroke-linejoin="round" stroke-miterlimit="10" x1="35.4177" y1="51.7302" x2="34.4902" y2="52.104"/>
    <line fill="none" stroke="#000000" stroke-width="2" stroke-linecap="round" stroke-linejoin="round" stroke-miterlimit="10" x1="36.3451" y1="51.3563" x2="37.6034" y2="51.803"/>
  </g>
</svg>
