<svg id="emoji" xmlns="http://www.w3.org/2000/svg" viewBox="0 0 72 72">
  <g id="grid">
    <path d="M68,4V68H4V4H68m4-4H0V72H72V0Z" fill="#b3b3b3"></path>
    <path d="M12.923,10.9583H59.0769A1.9231,1.9231,0,0,1,61,12.8814V59.0352a1.9231,1.9231,0,0,1-1.9231,1.9231H12.9231A1.9231,1.9231,0,0,1,11,59.0352V12.8813A1.923,1.923,0,0,1,12.923,10.9583Z" fill="none" stroke="#00a5ff" stroke-miterlimit="10" stroke-width="0.1"></path>
    <rect x="16" y="4" width="40" height="64" rx="2.2537" fill="none" stroke="#00a5ff" stroke-miterlimit="10" stroke-width="0.1"></rect>
    <rect x="16" y="4" width="40" height="64" rx="2.2537" transform="translate(72) rotate(90)" fill="none" stroke="#00a5ff" stroke-miterlimit="10" stroke-width="0.1"></rect>
    <circle cx="36" cy="36" r="29" fill="none" stroke="#00a5ff" stroke-miterlimit="10" stroke-width="0.1"></circle>
  </g>
  <g id="color">
    <rect x="16" y="52" fill="#9b9b9a" stroke="#9b9b9a" stroke-width="2" stroke-miterlimit="10" width="40" height="4"></rect>
    <rect x="52" y="38" fill="#9b9b9a" stroke="#9b9b9a" stroke-width="2" stroke-miterlimit="10" width="4" height="14"></rect>
    <rect x="16" y="44" fill="#9b9b9a" stroke="#9b9b9a" stroke-width="2" stroke-miterlimit="10" width="4" height="8"></rect>
    <rect x="16" y="16" fill="#EA5A47" stroke="#EA5A47" stroke-width="2" stroke-miterlimit="10" width="40" height="4"></rect>
    <rect x="16" y="20" fill="#EA5A47" stroke="#EA5A47" stroke-width="2" stroke-miterlimit="10" width="4" height="8"></rect>
    <rect x="52" y="20" fill="#EA5A47" stroke="#EA5A47" stroke-width="2" stroke-miterlimit="10" width="4" height="14"></rect>
    <circle fill="#FFFFFF" stroke="none" stroke-width="2" stroke-linecap="round" stroke-linejoin="round" stroke-miterlimit="10" cx="18" cy="36" r="8"></circle>
  </g>
  <g id="hair">
  </g>
  <g id="skin">
  </g>
  <g id="skin-shadow">
  </g>
  <g id="line">
    <polyline fill="none" stroke="#000000" stroke-width="2" stroke-linecap="round" stroke-linejoin="round" stroke-miterlimit="10" points="
		56,38 56,56 16,56 16,16 56,16 56,30.5 	"></polyline>
    <polyline fill="none" stroke="#000000" stroke-width="2" stroke-linecap="round" stroke-linejoin="round" stroke-miterlimit="10" points="
		52,41.5 52,52 20,52 20,20 52,20 52,34 	"></polyline>
    <circle fill="none" stroke="#000000" stroke-width="2" stroke-linecap="round" stroke-linejoin="round" stroke-miterlimit="10" cx="18" cy="36" r="8"></circle>
    <line fill="none" stroke="#000000" stroke-width="2" stroke-linecap="round" stroke-linejoin="round" stroke-miterlimit="10" x1="23.6569" y1="30.3431" x2="12.3431" y2="41.6569"></line>
    <line fill="none" stroke="#000000" stroke-width="2" stroke-linecap="round" stroke-linejoin="round" stroke-miterlimit="10" x1="12.3431" y1="30.3431" x2="23.6569" y2="41.6569"></line>
    <line fill="none" stroke="#000000" stroke-width="2" stroke-linecap="round" stroke-linejoin="round" stroke-miterlimit="10" x1="49" y1="34" x2="59" y2="34"></line>
    <line fill="none" stroke="#000000" stroke-width="2" stroke-linecap="round" stroke-linejoin="round" stroke-miterlimit="10" x1="44" y1="38" x2="64" y2="38"></line>
  </g>
</svg>