<svg id="emoji" xmlns="http://www.w3.org/2000/svg" viewBox="0 0 72 72">
  <g id="grid">
    <path d="M68,4V68H4V4H68m4-4H0V72H72V0Z" fill="#b3b3b3"/>
    <path d="M12.923,10.9583H59.0769A1.9231,1.9231,0,0,1,61,12.8814V59.0352a1.9231,1.9231,0,0,1-1.9231,1.9231H12.9231A1.9231,1.9231,0,0,1,11,59.0352V12.8813A1.923,1.923,0,0,1,12.923,10.9583Z" fill="none" stroke="#00a5ff" stroke-miterlimit="10" stroke-width="0.1"/>
    <rect x="16" y="4" width="40" height="64" rx="2.2537" fill="none" stroke="#00a5ff" stroke-miterlimit="10" stroke-width="0.1"/>
    <rect x="16" y="4" width="40" height="64" rx="2.2537" transform="translate(72) rotate(90)" fill="none" stroke="#00a5ff" stroke-miterlimit="10" stroke-width="0.1"/>
    <circle cx="36" cy="36" r="29" fill="none" stroke="#00a5ff" stroke-miterlimit="10" stroke-width="0.1"/>
  </g>
  <g id="color">
    <path fill="#F4AA41" stroke="none" stroke-width="2" stroke-miterlimit="10" d="M52,33.7806V60H18V33.7806 c0-0.3181,0.1513-0.6173,0.4076-0.8057l15.9731-11.744c0.3555-0.3077,0.8831-0.3077,1.2386,0l15.9731,11.744 C51.8487,33.1634,52,33.4625,52,33.7806z"/>
    <rect x="8" y="39" fill="#F4AA41" stroke="none" stroke-width="2" stroke-linecap="round" stroke-linejoin="round" stroke-miterlimit="10" width="10" height="21"/>
    <rect x="52" y="39" fill="#F4AA41" stroke="none" stroke-width="2" stroke-linecap="round" stroke-linejoin="round" stroke-miterlimit="10" width="10" height="21"/>
    <path fill="#A57939" stroke="none" stroke-width="2" stroke-linecap="round" stroke-linejoin="round" stroke-miterlimit="10" d="M39,60h-8v-6c0-1.6569,1.3431-3,3-3h2c1.6569,0,3,1.3431,3,3V60z"/>
    <polygon fill="#3F3F3F" stroke="none" stroke-width="2" stroke-linecap="round" stroke-linejoin="round" stroke-miterlimit="10" points="57,30 52,39 62,39"/>
    <polygon fill="#3F3F3F" stroke="none" stroke-width="2" stroke-linecap="round" stroke-linejoin="round" stroke-miterlimit="10" points="13,30 8,39 18,39"/>
    <polygon fill="#FFFFFF" stroke="none" stroke-width="2" stroke-linecap="round" stroke-linejoin="round" stroke-miterlimit="10" points="35,27 26.3397,42 43.6603,42"/>
    <polygon fill="#D0CFCE" stroke="none" stroke-width="2" stroke-linecap="round" stroke-linejoin="round" stroke-miterlimit="10" points="35,47 43.6603,32 26.3397,32"/>
    <polygon fill="#D0CFCE" stroke="none" stroke-width="2" stroke-linecap="round" stroke-linejoin="round" stroke-miterlimit="10" points="35,27 26.3397,42 43.6603,42"/>
  </g>
  <g id="hair"/>
  <g id="skin"/>
  <g id="skin-shadow"/>
  <g id="line">
    <path fill="none" stroke="#000000" stroke-width="2" stroke-miterlimit="10" d="M52,33.7806V60H18V33.7806 c0-0.3181,0.1513-0.6173,0.4076-0.8057l15.9731-11.744c0.3555-0.3077,0.8831-0.3077,1.2386,0l15.9731,11.744 C51.8487,33.1634,52,33.4625,52,33.7806z"/>
    <rect x="8" y="39" fill="none" stroke="#000000" stroke-width="2" stroke-linecap="round" stroke-linejoin="round" stroke-miterlimit="10" width="10" height="21"/>
    <rect x="52" y="39" fill="none" stroke="#000000" stroke-width="2" stroke-linecap="round" stroke-linejoin="round" stroke-miterlimit="10" width="10" height="21"/>
    <path fill="none" stroke="#000000" stroke-width="2" stroke-linecap="round" stroke-linejoin="round" stroke-miterlimit="10" d="M39,60h-8v-6c0-1.6569,1.3431-3,3-3h2c1.6569,0,3,1.3431,3,3V60z"/>
    <path fill="none" stroke="#000000" stroke-width="2" stroke-linecap="round" stroke-linejoin="round" stroke-miterlimit="10" d="M14,47h-2v-3c0-0.5523,0.4477-1,1-1l0,0"/>
    <path fill="none" stroke="#000000" stroke-width="2" stroke-linecap="round" stroke-linejoin="round" stroke-miterlimit="10" d="M58,47h-2v-3c0-0.5523,0.4477-1,1-1l0,0"/>
    <line fill="none" stroke="#000000" stroke-width="2" stroke-linecap="round" stroke-linejoin="round" stroke-miterlimit="10" x1="35" y1="60" x2="35" y2="51"/>
    <polygon fill="none" stroke="#000000" stroke-width="2" stroke-linecap="round" stroke-linejoin="round" stroke-miterlimit="10" points="57,30 52,39 62,39"/>
    <polygon fill="none" stroke="#000000" stroke-width="2" stroke-linecap="round" stroke-linejoin="round" stroke-miterlimit="10" points="13,30 8,39 18,39"/>
    <polygon fill="none" stroke="#000000" stroke-width="2" stroke-linecap="round" stroke-linejoin="round" stroke-miterlimit="10" points="35,27 26.3397,42 43.6603,42"/>
    <polygon fill="none" stroke="#000000" stroke-width="2" stroke-linecap="round" stroke-linejoin="round" stroke-miterlimit="10" points="35,47 43.6603,32 26.3397,32"/>
    <polygon fill="none" stroke="#000000" stroke-width="2" stroke-linecap="round" stroke-linejoin="round" stroke-miterlimit="10" points="35,27 26.3397,42 43.6603,42"/>
    <polygon fill="none" stroke="#000000" stroke-width="2" stroke-linecap="round" stroke-linejoin="round" stroke-miterlimit="10" points="35,47 43.6603,32 26.3397,32"/>
  </g>
</svg>
