<svg id="emoji" xmlns="http://www.w3.org/2000/svg" viewBox="0 0 72 72">
  <g id="grid">
    <path d="M68,4V68H4V4H68m4-4H0V72H72V0Z" fill="#b3b3b3"></path>
    <path d="M12.923,10.9583H59.0769A1.9231,1.9231,0,0,1,61,12.8814V59.0352a1.9231,1.9231,0,0,1-1.9231,1.9231H12.9231A1.9231,1.9231,0,0,1,11,59.0352V12.8813A1.923,1.923,0,0,1,12.923,10.9583Z" fill="none" stroke="#00a5ff" stroke-miterlimit="10" stroke-width="0.1"></path>
    <rect x="16" y="4" width="40" height="64" rx="2.2537" fill="none" stroke="#00a5ff" stroke-miterlimit="10" stroke-width="0.1"></rect>
    <rect x="16" y="4" width="40" height="64" rx="2.2537" transform="translate(72) rotate(90)" fill="none" stroke="#00a5ff" stroke-miterlimit="10" stroke-width="0.1"></rect>
    <circle cx="36" cy="36" r="29" fill="none" stroke="#00a5ff" stroke-miterlimit="10" stroke-width="0.1"></circle>
  </g>
  <g id="color">
    <rect x="17.5" y="26" fill="#D0CFCE" stroke="none" stroke-width="2" stroke-linecap="round" stroke-linejoin="round" stroke-miterlimit="10" width="7" height="34"></rect>
    <ellipse fill="#F4AA41" stroke="none" stroke-width="2" stroke-linecap="round" stroke-linejoin="round" stroke-miterlimit="10" cx="42" cy="36" rx="12.5" ry="10"></ellipse>
    <rect x="29" y="40" fill="#D0CFCE" stroke="none" stroke-width="2" stroke-linecap="round" stroke-linejoin="round" stroke-miterlimit="10" width="26" height="20"></rect>
    <polygon fill="#F4AA41" stroke="none" stroke-width="2" stroke-linecap="round" stroke-linejoin="round" stroke-miterlimit="10" points="
		21,17 17.5,26 24.5,26 	"></polygon>
    <polygon fill="#3F3F3F" stroke="none" stroke-width="2" stroke-linecap="round" stroke-linejoin="round" stroke-miterlimit="10" points="
		24.5,36 17.5,36 15.5,31 26.5,31 	"></polygon>
    <circle fill="#F4AA41" stroke="none" stroke-width="2" stroke-linecap="round" stroke-linejoin="round" stroke-miterlimit="10" cx="42" cy="24" r="2"></circle>
    <rect x="42" y="19" transform="matrix(-1 -1.224647e-16 1.224647e-16 -1 84 41)" fill="#FFFFFF" stroke="none" stroke-width="2" stroke-linecap="round" stroke-linejoin="round" stroke-miterlimit="10" width="0" height="3"></rect>
    <path fill="#9B9B9A" stroke="none" stroke-width="2" stroke-linecap="round" stroke-linejoin="round" stroke-miterlimit="10" d="
		M42,45l-3.4962,5.2442C38.1753,50.737,38,51.3161,38,51.9083V60h8v-8.0917c0-0.5922-0.1753-1.1713-0.5038-1.6641L42,45z"></path>
  </g>
  <g id="hair">
  </g>
  <g id="skin">
  </g>
  <g id="skin-shadow">
  </g>
  <g id="line">
    <rect x="17.5" y="26" fill="none" stroke="#000000" stroke-width="2" stroke-linecap="round" stroke-linejoin="round" stroke-miterlimit="10" width="7" height="34"></rect>
    <ellipse fill="none" stroke="#000000" stroke-width="2" stroke-linecap="round" stroke-linejoin="round" stroke-miterlimit="10" cx="42" cy="36" rx="12.5" ry="10"></ellipse>
    <rect x="29" y="40" fill="none" stroke="#000000" stroke-width="2" stroke-linecap="round" stroke-linejoin="round" stroke-miterlimit="10" width="26" height="20"></rect>
    <polygon fill="none" stroke="#000000" stroke-width="2" stroke-linecap="round" stroke-linejoin="round" stroke-miterlimit="10" points="
		21,17 17.5,26 24.5,26 	"></polygon>
    <polygon fill="none" stroke="#000000" stroke-width="2" stroke-linecap="round" stroke-linejoin="round" stroke-miterlimit="10" points="
		24.5,36 17.5,36 15.5,31 26.5,31 	"></polygon>
    <circle fill="none" stroke="#000000" stroke-width="2" stroke-linecap="round" stroke-linejoin="round" stroke-miterlimit="10" cx="42" cy="24" r="2"></circle>
    <rect x="42" y="19" transform="matrix(-1 -1.224647e-16 1.224647e-16 -1 84 41)" fill="none" stroke="#000000" stroke-width="2" stroke-linecap="round" stroke-linejoin="round" stroke-miterlimit="10" width="0" height="3"></rect>
    <path fill="none" stroke="#000000" stroke-width="2" stroke-linecap="round" stroke-linejoin="round" stroke-miterlimit="10" d="
		M42,45l-3.4962,5.2442C38.1753,50.737,38,51.3161,38,51.9083V60h8v-8.0917c0-0.5922-0.1753-1.1713-0.5038-1.6641L42,45z"></path>
  </g>
</svg>