<svg id="emoji" version="1.1" viewBox="0 0 72 72" xmlns="http://www.w3.org/2000/svg">
 <g id="grid">
  <path d="M68,4V68H4V4H68m4-4H0V72H72V0Z" fill="#b3b3b3"/>
  <path d="m12.92 10.96h46.15a1.923 1.923 0 0 1 1.923 1.923v46.15a1.922 1.922 0 0 1-1.922 1.922h-46.16a1.923 1.923 0 0 1-1.923-1.923v-46.15a1.923 1.923 0 0 1 1.923-1.923z" fill="none" stroke="#00a5ff" stroke-miterlimit="10" stroke-width=".1"/>
  <rect x="16" y="4" width="40" height="64" rx="2.254" ry="2.254" fill="none" stroke="#00a5ff" stroke-miterlimit="10" stroke-width=".1"/>
  <rect transform="rotate(90 36 36)" x="16" y="4" width="40" height="64" rx="2.254" ry="2.254" fill="none" stroke="#00a5ff" stroke-miterlimit="10" stroke-width=".1"/>
  <circle cx="36" cy="36" r="29" fill="none" stroke="#00a5ff" stroke-miterlimit="10" stroke-width=".1"/>
 </g>
 <g id="line-supplement" fill="none" stroke="#000" stroke-linecap="round" stroke-miterlimit="10" stroke-width="3">
  <path d="m36 48.84c3.087-16.36 6.337-26.33 11.64-25.68 2.611 0.586 3.711 3.609 2.58 5.817"/>
  <path d="m36 48.84c-3.087-16.36-6.337-26.33-11.64-25.68-2.611 0.586-3.711 3.609-2.58 5.817"/>
 </g>
 <g id="color">
  <rect x="12" y="12" width="48" height="48" fill="#8967aa"/>
  <path d="m36 48.84c3.087-16.36 6.337-26.33 11.64-25.68 2.611 0.586 3.711 3.609 2.58 5.817" fill="none" stroke="#fff" stroke-linecap="round" stroke-width="3"/>
  <path d="m36 48.84c-3.087-16.36-6.337-26.33-11.64-25.68-2.611 0.586-3.711 3.609-2.58 5.817" fill="none" stroke="#fff" stroke-linecap="round" stroke-width="3"/>
 </g>
 <g id="line">
  <rect x="12" y="12" width="48" height="48" fill="none" stroke="#000" stroke-linecap="round" stroke-linejoin="round" stroke-width="2"/>
 </g>
</svg>
