<svg id="emoji" xmlns="http://www.w3.org/2000/svg" viewBox="0 0 72 72">
  <title>264D</title>
  <g id="grid">
    <path d="M68,4V68H4V4H68m4-4H0V72H72V0Z" fill="#b3b3b3"/>
    <path d="M12.9228,10.959H59.0771A1.9229,1.9229,0,0,1,61,12.8819V59.0361a1.9219,1.9219,0,0,1-1.9219,1.9219H12.9229A1.9229,1.9229,0,0,1,11,59.0351V12.8818A1.9228,1.9228,0,0,1,12.9228,10.959Z" fill="none" stroke="#00a5ff" stroke-miterlimit="10" stroke-width="0.1"/>
    <rect x="16" y="4" width="40" height="64" rx="2.2539" ry="2.2539" fill="none" stroke="#00a5ff" stroke-miterlimit="10" stroke-width="0.1"/>
    <rect x="16" y="4" width="40" height="64" rx="2.2539" ry="2.2539" transform="translate(72) rotate(90)" fill="none" stroke="#00a5ff" stroke-miterlimit="10" stroke-width="0.1"/>
    <circle cx="36" cy="36" r="29" fill="none" stroke="#00a5ff" stroke-miterlimit="10" stroke-width="0.1"/>
  </g>
  <g id="color">
    <rect x="12" y="12" width="48" height="47.834" fill="#b399c8"/>
  </g>
  <g id="line">
    <rect x="12.25" y="11.75" width="48" height="48" fill="none" stroke="#000" stroke-linecap="round" stroke-linejoin="round" stroke-width="2"/>
    <path d="M49.0156,43.2949s-1.7646-6.75,4.294-6.4365" fill="none" stroke="#000" stroke-linecap="round" stroke-miterlimit="10" stroke-width="3"/>
    <path d="M53.2871,36.8574s2.5469,5.6455-4.2949,6.4365A4.49,4.49,0,0,0,44.75,45.1875" fill="none" stroke="#000" stroke-linecap="round" stroke-miterlimit="10" stroke-width="3"/>
    <path d="M47.8828,47.7666a4.4681,4.4681,0,0,0,1.0244-4.208" fill="none" stroke="#000" stroke-linecap="round" stroke-miterlimit="10" stroke-width="3"/>
    <line x1="33.417" y1="45.375" x2="33.542" y2="31.3125" fill="none" stroke="#000" stroke-linecap="round" stroke-linejoin="round" stroke-width="3"/>
    <line x1="21.5" y1="45" x2="21.5" y2="28" fill="none" stroke="#000" stroke-linecap="round" stroke-linejoin="round" stroke-width="3"/>
    <line x1="44.459" y1="45.375" x2="44.584" y2="31" fill="none" stroke="#000" stroke-linecap="round" stroke-linejoin="round" stroke-width="3"/>
    <path d="M21.251,31.2949s2.6181-6.3125,6.3769-6.2636c3.7559.0478,5.6934,5.0742,5.7891,6.4716" fill="none" stroke="#000" stroke-linecap="round" stroke-linejoin="round" stroke-width="3"/>
    <path d="M33.542,31.5859s1.7637-6.6347,5.52-6.5859,5.4258,4.6055,5.5215,6.0029" fill="none" stroke="#000" stroke-linecap="round" stroke-linejoin="round" stroke-width="3"/>
    <line x1="21.5" y1="39" x2="21.5" y2="23" fill="none" stroke="#000" stroke-linecap="round" stroke-linejoin="round" stroke-width="3"/>
  </g>
</svg>
