<svg id="emoji" version="1.1" viewBox="0 0 72 72" xmlns="http://www.w3.org/2000/svg">
 <g id="grid">
  <path d="M68,4V68H4V4H68m4-4H0V72H72V0Z" fill="#b3b3b3"/>
  <path d="m12.92 10.96h46.15a1.923 1.923 0 0 1 1.923 1.923v46.15a1.922 1.922 0 0 1-1.922 1.922h-46.16a1.923 1.923 0 0 1-1.923-1.923v-46.15a1.923 1.923 0 0 1 1.923-1.923z" fill="none" stroke="#00a5ff" stroke-miterlimit="10" stroke-width=".1"/>
  <rect x="16" y="4" width="40" height="64" rx="2.254" ry="2.254" fill="none" stroke="#00a5ff" stroke-miterlimit="10" stroke-width=".1"/>
  <rect transform="rotate(90 36 36)" x="16" y="4" width="40" height="64" rx="2.254" ry="2.254" fill="none" stroke="#00a5ff" stroke-miterlimit="10" stroke-width=".1"/>
  <circle cx="36" cy="36" r="29" fill="none" stroke="#00a5ff" stroke-miterlimit="10" stroke-width=".1"/>
 </g>
 <g id="line-supplement" fill="none" stroke="#000" stroke-linecap="round" stroke-linejoin="round" stroke-width="3">
  <path d="m30.53 39.5h-10.53"/>
  <path d="m52 39.5h-9.53"/>
  <path d="m52 44.5h-32"/>
  <path d="m30.53 39.5a8.443 8.443 0 0 1-1.83-9.201 8.443 8.443 0 0 1 7.8-5.212 8.443 8.443 0 0 1 7.8 5.212 8.443 8.443 0 0 1-1.83 9.201" paint-order="normal"/>
 </g>
 <g id="color">
  <rect x="12" y="12" width="48" height="48" fill="#8967aa"/>
  <path d="M 30.53,39.5 H 20" fill="none" stroke="#fff" stroke-linecap="round" stroke-width="3"/>
  <path d="m52 39.5h-9.53" fill="none" stroke="#fff" stroke-linecap="round" stroke-width="3"/>
  <path d="m52 44.5h-32" fill="none" stroke="#fff" stroke-linecap="round" stroke-width="3"/>
  <path d="m30.53 39.5a8.443 8.443 0 0 1-1.83-9.201 8.443 8.443 0 0 1 7.8-5.212 8.443 8.443 0 0 1 7.8 5.212 8.443 8.443 0 0 1-1.83 9.201" fill="none" stroke="#fff" stroke-linecap="round" stroke-width="3" paint-order="normal"/>
 </g>
 <g id="line">
  <rect x="12" y="12" width="48" height="48" fill="none" stroke="#000" stroke-linecap="round" stroke-linejoin="round" stroke-width="2"/>
 </g>
</svg>
