<svg id="emoji" xmlns="http://www.w3.org/2000/svg" viewBox="0 0 72 72">
  <g id="grid">
    <path fill="#B3B3B3" d="M68,4v64H4V4H68 M72,0H0v72h72V0z"/>
    <path fill="none" stroke="#00A5FF" stroke-width="0.1" stroke-miterlimit="10" d="M12.923,10.9583h46.1539 c1.0621,0,1.9231,0.861,1.9231,1.9231l0,0v46.1538c0,1.0621-0.861,1.9231-1.9231,1.9231H12.9231 c-1.0621,0-1.9231-0.861-1.9231-1.9231l0,0V12.8813C11,11.8193,11.861,10.9583,12.923,10.9583L12.923,10.9583z"/>
    <path fill="none" stroke="#00A5FF" stroke-width="0.1" stroke-miterlimit="10" d="M18.2537,4h35.4926C54.991,4,56,5.009,56,6.2537 v59.4926C56,66.991,54.991,68,53.7463,68H18.2537C17.009,68,16,66.991,16,65.7463V6.2537C16,5.009,17.009,4,18.2537,4z"/>
    <path fill="none" stroke="#00A5FF" stroke-width="0.1" stroke-miterlimit="10" d="M68,18.2537v35.4926 C68,54.991,66.991,56,65.7463,56H6.2537C5.009,56,4,54.991,4,53.7463V18.2537C4,17.009,5.009,16,6.2537,16h59.4926 C66.991,16,68,17.009,68,18.2537z"/>
    <circle fill="none" stroke="#00A5FF" stroke-width="0.1" stroke-miterlimit="10" cx="36" cy="36" r="29"/>
  </g>
  <g id="color">
    <circle fill="#FCEA2B" cx="36" cy="36" r="24"/>
  </g>
  <g id="hair"/>
  <g id="skin"/>
  <g id="skin-shadow"/>
  <g id="line">
    <path fill="none" stroke="#000000" stroke-width="2" stroke-linecap="round" stroke-linejoin="round" stroke-miterlimit="10" d="M28.8233,44.2876c2.3686-0.6663,11.8642,0.535,14.0445,2.0632"/>
    <path fill="none" stroke="#000000" stroke-width="2" stroke-linecap="round" stroke-linejoin="round" stroke-miterlimit="10" d="M22.3012,23.3391c1.2822-0.889,2.8466-1.271,4.3937-1.0722c1.5679,0.0356,3.0646,0.6567,4.1996,1.7378"/>
    <path fill="none" stroke="#000000" stroke-width="2" stroke-linecap="round" stroke-linejoin="round" stroke-miterlimit="10" d="M49.0443,27.3182c-2.4149-1.7243-5.3513,0-8.2333-0.2604"/>
    <ellipse id="SVGID_3_" cx="43.7496" cy="33.6218" rx="2.6032" ry="2.6032"/>
    <ellipse cx="26.8296" cy="30.3607" rx="2.6032" ry="2.6032"/>
    <path fill="none" stroke="#000000" stroke-width="2" stroke-linecap="round" stroke-linejoin="round" stroke-miterlimit="10" d="M55.6437,47.9697c2.1202-3.4721,3.346-7.5506,3.3562-11.916c0.0296-12.7031-10.2441-23.0241-22.9462-23.0537 c-12.7031-0.0297-23.0239,10.2431-23.0536,22.9462c-0.0296,12.7022,10.2432,23.0241,22.9462,23.0537 c5.209,0.0122,10.0176-1.7084,13.8804-4.6186"/>
    <circle fill="none" stroke="#000000" stroke-width="2" stroke-linecap="round" stroke-linejoin="round" stroke-miterlimit="10" cx="43.9286" cy="30.8098" r="9.4209"/>
    <path fill="none" stroke="#000000" stroke-width="2" stroke-linecap="round" stroke-linejoin="round" stroke-miterlimit="10" d="M53.6876,30.9567c0,0,2.2127,0.5511,1.9237,4.0128s-3.5691,7.9621-3.5691,7.9621s-2.0208,2.3624-1.4607,4.3219 c0.7165,2.5065,4.3147,6.4367,4.1809,8.6099"/>
  </g>
</svg>
