<?xml version="1.0" encoding="UTF-8"?>
<svg id="emoji" xmlns="http://www.w3.org/2000/svg" viewBox="0 0 72 72">
  <g id="grid">
    <path d="m68,4v64H4V4h64m4-4H0v72h72V0h0Z" fill="#b3b3b3"/>
    <path d="m59.0769,60.9583H12.9231c-1.0621,0-1.9231-.861-1.9231-1.923V12.8814c0-1.0621.861-1.9231,1.9231-1.9231h46.1538c1.0621,0,1.9231.861,1.9231,1.9231v46.1539c0,1.062-.861,1.923-1.9231,1.923Z" fill="none" stroke="#00a5ff" stroke-miterlimit="10" stroke-width=".1"/>
    <path d="m53.7463,68H18.2537c-1.2447,0-2.2537-1.009-2.2537-2.2537V6.2537c0-1.2447,1.009-2.2537,2.2537-2.2537h35.4926c1.2447,0,2.2537,1.009,2.2537,2.2537v59.4926c0,1.2447-1.009,2.2537-2.2537,2.2537Z" fill="none" stroke="#00a5ff" stroke-miterlimit="10" stroke-width=".1"/>
    <path d="m4,53.7463V18.2537c0-1.2447,1.009-2.2537,2.2537-2.2537h59.4926c1.2447,0,2.2537,1.009,2.2537,2.2537v35.4926c0,1.2447-1.009,2.2537-2.2537,2.2537H6.2537c-1.2447,0-2.2537-1.009-2.2537-2.2537Z" fill="none" stroke="#00a5ff" stroke-miterlimit="10" stroke-width=".1"/>
    <circle cx="36" cy="36" r="29" fill="none" stroke="#00a5ff" stroke-miterlimit="10" stroke-width=".1"/>
  </g>
  <g id="color">
    <circle cx="36.0101" cy="21.1858" r="3.4779" fill="#fff"/>
    <path d="m46.289,21.3899c0-6.0159-4.6073-10.9096-10.271-10.9096s-10.271,4.8937-10.271,10.9123c.0018.3005.1445,7.4974,8.3708,20.1793.53.8288,1.1424,1.2493,1.8196,1.2493,1.1879,0,1.9983-1.3088,2.0771-1.442,8.2789-12.689,8.2789-19.7028,8.2745-19.9893Zm-10.2709,4.3941c-2.5222,0-4.5742-2.052-4.5742-4.5742s2.052-4.5742,4.5742-4.5742,4.5742,2.052,4.5742,4.5742-2.052,4.5742-4.5742,4.5742Z" fill="#d22f27"/>
    <path d="m46.289,21.3899c0-6.0159-4.6073-10.9096-10.271-10.9096-.8622,0-1.6952.1258-2.4958.3393,5.4217.2902,9.7514,5.0521,9.7514,10.8817.0044.2865.0044,7.3003-8.2745,19.9892-.0296.0499-.1621.2652-.3788.5149.4037.406.8442.6157,1.3171.6157,1.1879,0,1.9983-1.3088,2.0771-1.442,8.2789-12.6889,8.2789-19.7027,8.2745-19.9892Z" fill="#ea5a47"/>
    <path d="m11.3402,60.6539v-2.285c0-3.23,1.9102-5.45,5.1402-5.45,1.9123,1.6148,4.1757,2.4223,6.1092,2.4225,1.934.0002,4.1979-.8073,6.1107-2.4225,3.23,0,5.1402,2.22,5.1402,5.45v2.285H11.3402Z" fill="#92d3f5"/>
    <path d="m38.142,60.6539v-2.285c0-3.23,1.9102-5.45,5.1402-5.45,1.9123,1.6148,4.1757,2.4223,6.1092,2.4225,1.934.0002,4.1979-.8073,6.1107-2.4225,3.23,0,5.1402,2.22,5.1402,5.45v2.285h-22.5003Z" fill="#92d3f5"/>
  </g>
  <g id="skin">
    <circle cx="22.5904" cy="45.397" r="5" fill="#fcea2b"/>
    <circle cx="49.3921" cy="45.397" r="5" fill="#fcea2b"/>
  </g>
  <g id="line">
    <path d="m11.3402,60.3239v-1.955c0-3.23,1.9102-5.45,5.1402-5.45,1.9123,1.6148,4.1757,2.4223,6.1092,2.4225,1.934.0002,4.1979-.8073,6.1107-2.4225,3.23,0,5.1402,2.22,5.1402,5.45v1.955" fill="none" stroke="#000" stroke-linecap="round" stroke-linejoin="round" stroke-width="2"/>
    <path d="m38.142,60.3239v-1.955c0-3.23,1.9102-5.45,5.1402-5.45,1.9123,1.6148,4.1757,2.4223,6.1092,2.4225,1.934.0002,4.1979-.8073,6.1107-2.4225,3.23,0,5.1402,2.22,5.1402,5.45v1.955" fill="none" stroke="#000" stroke-linecap="round" stroke-linejoin="round" stroke-width="2"/>
    <path d="m35.9374,42.8211c-.6772,0-1.2896-.4205-1.8196-1.2493-8.2263-12.6819-8.3691-19.8788-8.3708-20.1793,0-6.0186,4.6072-10.9123,10.271-10.9123s10.271,4.8937,10.271,10.9096c.0044.2865.0044,7.3003-8.2744,19.9892-.0789.1333-.8893,1.4421-2.0772,1.4421Z" fill="none" stroke="#000" stroke-miterlimit="10" stroke-width="2"/>
    <path d="m36.0181,25.784c-2.5222,0-4.5742-2.052-4.5742-4.5742s2.052-4.5742,4.5742-4.5742,4.5742,2.052,4.5742,4.5742-2.052,4.5742-4.5742,4.5742Z" fill="none" stroke="#000" stroke-miterlimit="10" stroke-width="2"/>
    <circle cx="22.5904" cy="45.397" r="5" fill="none" stroke="#000" stroke-linecap="round" stroke-linejoin="round" stroke-width="2"/>
    <circle cx="49.3921" cy="45.397" r="5" fill="none" stroke="#000" stroke-linecap="round" stroke-linejoin="round" stroke-width="2"/>
  </g>
</svg>