<svg id="emoji" xmlns="http://www.w3.org/2000/svg" viewBox="0 0 72 72">
  <g id="grid">
    <path d="M68,4V68H4V4H68m4-4H0V72H72V0Z" fill="#b3b3b3"/>
    <path d="M12.923,10.9583H59.0769A1.9231,1.9231,0,0,1,61,12.8814V59.0352a1.9231,1.9231,0,0,1-1.9231,1.9231H12.9231A1.9231,1.9231,0,0,1,11,59.0352V12.8813A1.923,1.923,0,0,1,12.923,10.9583Z" fill="none" stroke="#00a5ff" stroke-miterlimit="10" stroke-width="0.1"/>
    <rect x="16" y="4" width="40" height="64" rx="2.2537" ry="2.2537" fill="none" stroke="#00a5ff" stroke-miterlimit="10" stroke-width="0.1"/>
    <rect x="16" y="4" width="40" height="64" rx="2.2537" ry="2.2537" transform="translate(72) rotate(90)" fill="none" stroke="#00a5ff" stroke-miterlimit="10" stroke-width="0.1"/>
    <circle cx="36" cy="36" r="29" fill="none" stroke="#00a5ff" stroke-miterlimit="10" stroke-width="0.1"/>
  </g>
  <g id="color">
    <rect x="13.0463" y="40.7795" width="45.606" height="20.6526" fill="#92d3f5"/>
    <rect x="18.355" y="46.0122" width="12.2734" height="15.4199" fill="#a57939"/>
    <rect x="35.927" y="44.8695" width="6.4666" height="12.5623" fill="#fff"/>
    <rect x="47.0129" y="44.8695" width="6.4666" height="12.5623" fill="#fff"/>
    <path d="M27.9173,18.74A13.5224,13.5224,0,0,1,34.85,16.9228c4.5419,0,8.4377,6.247,14.3339,6.247.8691,0,1.3042-.3913,2.1813-.3913.7275,0,1.018.52,1.018,1.4385v1.5653c0,.7168-.783,1.531-3.0816,1.531-6.91,0-10.8056-3.9084-14.8143-3.9084a11.7385,11.7385,0,0,0-6.6492,2.219V21.3567Z" fill="#d0cfce"/>
    <rect x="8.8314" y="61.4321" width="54.0357" height="3.4194" fill="#d0cfce"/>
  </g>
  <g id="line">
    <line x1="13.0463" y1="61.4321" x2="13.0463" y2="45.3988" fill="none" stroke="#000" stroke-linecap="round" stroke-linejoin="round" stroke-width="2"/>
    <line x1="8.8314" y1="64.8515" x2="62.8671" y2="64.8515" fill="none" stroke="#000" stroke-linecap="round" stroke-linejoin="round" stroke-width="2"/>
    <line x1="62.8671" y1="61.4321" x2="8.8314" y2="61.4321" fill="none" stroke="#000" stroke-linecap="round" stroke-linejoin="round" stroke-width="2"/>
    <polyline points="19.991 33.303 12.461 33.303 8.831 40.779 62.867 40.779 59.238 33.303 28.828 33.303" fill="none" stroke="#000" stroke-linecap="round" stroke-linejoin="round" stroke-width="2"/>
    <line x1="58.6523" y1="61.4321" x2="58.6523" y2="45.3988" fill="none" stroke="#000" stroke-linecap="round" stroke-linejoin="round" stroke-width="2"/>
    <line x1="26.4521" y1="55.1141" x2="26.4521" y2="52.3302" fill="none" stroke="#000" stroke-linecap="round" stroke-linejoin="round" stroke-width="2"/>
    <line x1="22.5337" y1="55.1141" x2="22.5337" y2="52.3302" fill="none" stroke="#000" stroke-linecap="round" stroke-linejoin="round" stroke-width="2"/>
    <rect x="18.3562" y="46.0122" width="12.2734" height="15.4199" fill="none" stroke="#000" stroke-linecap="round" stroke-linejoin="round" stroke-width="2"/>
    <path d="M27.9173,9.34A13.4159,13.4159,0,0,1,34.85,7.1922c4.5419,0,8.4377,3.9373,14.3339,3.9373.8691,0,1.3042-.3912,2.1813-.3912.7275,0,1.018.52,1.018,1.4384V25.7823c0,.7168-.783,1.531-3.0816,1.531-6.91,0-10.8056-3.9084-14.8143-3.9084a11.7385,11.7385,0,0,0-6.6492,2.219V21.3567" fill="none" stroke="#000" stroke-linecap="round" stroke-linejoin="round" stroke-width="2"/>
    <line x1="24.5786" y1="7.3472" x2="24.5786" y2="40.7795" fill="none" stroke="#000" stroke-linecap="round" stroke-miterlimit="10" stroke-width="2"/>
    <rect x="35.927" y="44.8695" width="6.4666" height="12.5623" fill="none" stroke="#000" stroke-linecap="round" stroke-linejoin="round" stroke-width="2"/>
    <rect x="47.0129" y="44.8695" width="6.4666" height="12.5623" fill="none" stroke="#000" stroke-linecap="round" stroke-linejoin="round" stroke-width="2"/>
  </g>
</svg>
