<svg id="emoji" xmlns="http://www.w3.org/2000/svg" viewBox="0 0 72 72">
  <g id="grid">
    <path d="M68,4V68H4V4H68m4-4H0V72H72V0Z" fill="#b3b3b3"/>
    <path d="M12.923,10.9583H59.0769A1.9231,1.9231,0,0,1,61,12.8814V59.0352a1.9231,1.9231,0,0,1-1.9231,1.9231H12.9231A1.9231,1.9231,0,0,1,11,59.0352V12.8813A1.923,1.923,0,0,1,12.923,10.9583Z" fill="none" stroke="#00a5ff" stroke-miterlimit="10" stroke-width="0.1"/>
    <rect x="16" y="4" width="40" height="64" rx="2.2537" ry="2.2537" fill="none" stroke="#00a5ff" stroke-miterlimit="10" stroke-width="0.1"/>
    <rect x="16" y="4" width="40" height="64" rx="2.2537" ry="2.2537" transform="translate(72) rotate(90)" fill="none" stroke="#00a5ff" stroke-miterlimit="10" stroke-width="0.1"/>
    <circle cx="36" cy="36" r="29" fill="none" stroke="#00a5ff" stroke-miterlimit="10" stroke-width="0.1"/>
  </g>
  <g id="color">
    <rect x="14.1816" y="7.9787" width="34.0431" height="55.9423" rx="3.68" ry="3.68" fill="#9b9b9a"/>
    <path d="M44.3929,54.9961H18.0135a.9747.9747,0,0,1-.9727-.9727V15.117a.9748.9748,0,0,1,.9727-.9727H44.3929a.9748.9748,0,0,1,.9727.9727V54.0234A.919.919,0,0,1,44.3929,54.9961Z" fill="#3f3f3f"/>
    <path d="M46.2852,7.6752a13.0323,13.0323,0,0,0-9.2634,22.2024l-2.6729,8.5816,7.1733-5.6237a13.0317,13.0317,0,1,0,4.763-25.16Z" fill="#fcea2b"/>
  </g>
  <g id="line">
    <path d="M45.3656,37.4681V54.0234a.919.919,0,0,1-.9727.9727H18.0135a.9747.9747,0,0,1-.9727-.9727V15.117a.9748.9748,0,0,1,.9727-.9727H31.572" fill="none" stroke="#000" stroke-linecap="round" stroke-linejoin="round" stroke-width="2"/>
    <circle cx="31.2032" cy="59.2523" r="1.9453" fill="#000000"/>
    <line x1="33.3345" y1="11.2263" x2="26.3399" y2="11.2263" fill="none" stroke="#000" stroke-linecap="round" stroke-linejoin="round" stroke-width="2"/>
    <path d="M48.2248,36.861v23.38a3.6908,3.6908,0,0,1-3.68,3.68H17.8616a3.6908,3.6908,0,0,1-3.68-3.68V11.6587a3.6908,3.6908,0,0,1,3.68-3.68H36.9708" fill="none" stroke="#000" stroke-linecap="round" stroke-linejoin="round" stroke-width="2"/>
    <polyline points="46.892 26.339 46.892 20.594 43.989 20.594" fill="none" stroke="#000" stroke-linecap="round" stroke-linejoin="round" stroke-width="2.5"/>
    <line x1="49.6516" y1="26.3389" x2="43.9228" y2="26.3389" fill="none" stroke="#000" stroke-linecap="round" stroke-linejoin="round" stroke-width="2.5"/>
    <circle cx="46.5887" cy="15.602" r="1.9093"/>
    <path d="M46.2851,7.6752A13.0261,13.0261,0,0,0,37.2562,30.1l-2.6037,8.36,7.0766-5.5479a13.03,13.03,0,1,0,4.556-25.2361Z" fill="none" stroke="#000" stroke-linecap="round" stroke-linejoin="round" stroke-width="2"/>
  </g>
</svg>
