<svg id="emoji" xmlns="http://www.w3.org/2000/svg" viewBox="0 0 72 72">
  <g id="grid">
    <path d="M68,4V68H4V4H68m4-4H0V72H72V0Z" fill="#b3b3b3"/>
    <path d="M12.923,10.9583H59.0769A1.9231,1.9231,0,0,1,61,12.8814V59.0352a1.9231,1.9231,0,0,1-1.9231,1.9231H12.9231A1.9231,1.9231,0,0,1,11,59.0352V12.8813A1.923,1.923,0,0,1,12.923,10.9583Z" fill="none" stroke="#00a5ff" stroke-miterlimit="10" stroke-width="0.1"/>
    <rect x="16" y="4" width="40" height="64" rx="2.2537" ry="2.2537" fill="none" stroke="#00a5ff" stroke-miterlimit="10" stroke-width="0.1"/>
    <rect x="16" y="4" width="40" height="64" rx="2.2537" ry="2.2537" transform="translate(72) rotate(90)" fill="none" stroke="#00a5ff" stroke-miterlimit="10" stroke-width="0.1"/>
    <circle cx="36" cy="36" r="29" fill="none" stroke="#00a5ff" stroke-miterlimit="10" stroke-width="0.1"/>
  </g>
  <g id="color">
    <path d="M53.6682,17.2111V12.5087a.617.617,0,0,0-.6531-.6531H18.2045a.617.617,0,0,0-.6531.6531V28.8364a.617.617,0,0,0,.6531.6531H53.0151a.617.617,0,0,0,.6531-.6531V24.4606h3.3309v-7.25Z" fill="#fff"/>
    <path d="M43.2851,52.7306,47,52V45l-3.7149-1.1419Z" fill="#9b9b9a"/>
    <path d="M24.9258,51.1876a.6074.6074,0,0,1-.6429.6429h-7.58a1.4788,1.4788,0,0,0,0,2.9575h7.58a.6074.6074,0,0,1,.6429.643" fill="#fcea2b"/>
    <path d="M24.9258,40.5791a.6073.6073,0,0,1-.6429.6429h-7.58a1.4788,1.4788,0,0,0,0,2.9576h7.58a.6073.6073,0,0,1,.6429.6429" fill="#fcea2b"/>
    <path d="M24.99,44.8007A152.9463,152.9463,0,0,1,43,44.865C41,40,38,37.1715,31.6767,37.1715H24.99Z" fill="#9b9b9a"/>
    <path d="M56.5721,45.594a.6074.6074,0,0,1-.6429.643H47.3643v3.9219h8.5649a.6073.6073,0,0,1,.6429.6429Z" fill="#d0cfce"/>
    <path d="M21.7673,25.9267h4.931V15.4838h-4.931Z" fill="#b1cc33"/>
  </g>
  <g id="line">
    <path d="M24.2829,51.1876h-7.58a2.1405,2.1405,0,0,0-2.1216,2.1217h0a2.1406,2.1406,0,0,0,2.1216,2.1217h7.58" fill="none" stroke="#000" stroke-linecap="round" stroke-miterlimit="10" stroke-width="2"/>
    <path d="M24.2829,40.5791h-7.58a2.1405,2.1405,0,0,0-2.1216,2.1217h0a2.1405,2.1405,0,0,0,2.1216,2.1217h7.58" fill="none" stroke="#000" stroke-linecap="round" stroke-miterlimit="10" stroke-width="2"/>
    <path d="M24.3472,59.9315H31.741a11.7015,11.7015,0,0,0,0-23.4029H24.3472Z" fill="none" stroke="#000" stroke-linecap="round" stroke-linejoin="round" stroke-width="2"/>
    <polyline points="42.735 52.473 46.721 51.38 46.721 45.015 42.735 43.987" fill="none" stroke="#000" stroke-linecap="round" stroke-linejoin="round" stroke-width="2"/>
    <polyline points="55.929 50.802 46.721 50.802 46.721 45.594 55.929 45.594" fill="none" stroke="#000" stroke-linecap="round" stroke-linejoin="round" stroke-width="2"/>
    <path d="M53.6682,17.2111V12.5087a.617.617,0,0,0-.6531-.6531H18.2045a.617.617,0,0,0-.6531.6531V28.8364a.617.617,0,0,0,.6531.6531H53.0151a.617.617,0,0,0,.6531-.6531V24.4606h3.3309v-7.25Z" fill="none" stroke="#000" stroke-linecap="round" stroke-linejoin="round" stroke-width="2"/>
    <rect x="21.4408" y="15.1572" width="5.5841" height="11.096" fill="none" stroke="#000" stroke-linecap="round" stroke-linejoin="round" stroke-width="2"/>
  </g>
</svg>
