<?xml version="1.0" encoding="UTF-8"?>
<svg id="emoji" xmlns="http://www.w3.org/2000/svg" viewBox="0 0 72 72">
  <g id="grid">
    <path d="m68,4v64H4V4h64m4-4H0v72h72V0Z" fill="#b3b3b3"/>
    <rect x="11" y="10.9583" width="50" height="50" rx="1.9231" ry="1.9231" fill="none" stroke="#00a5ff" stroke-miterlimit="10" stroke-width=".1"/>
    <rect x="16" y="4" width="40" height="64" rx="2.2537" ry="2.2537" fill="none" stroke="#00a5ff" stroke-miterlimit="10" stroke-width=".1"/>
    <rect x="4" y="16" width="64" height="40" rx="2.2537" ry="2.2537" fill="none" stroke="#00a5ff" stroke-miterlimit="10" stroke-width=".1"/>
    <circle cx="36" cy="36" r="29" fill="none" stroke="#00a5ff" stroke-miterlimit="10" stroke-width=".1"/>
  </g>
  <g id="color">
    <rect x="17.4678" y="25.8874" width="36.7212" height="25.7556" fill="#fff"/>
    <polygon points="41.051 31.123 30.741 31.123 30.741 44.767 41.051 48 41.051 31.123" fill="#a57939"/>
    <path d="m9.9469,60.0494c5.3061,0,5.1545,3.1836,10.4605,3.1836s5.3061-3.1836,10.4606-3.1836,5.1544,3.1836,10.3089,3.1836,5.1544-3.1836,10.3089-3.1836,5.1542,3.1836,10.3089,3.1836v-6.3591c-5.1544,0-5.1544-3.1836-10.3089-3.1836s-5.1545,3.1836-10.3089,3.1836-5.1545-3.1839-10.3089-3.1839-5.1545,3.1836-10.4606,3.1836-5.1544-3.1836-10.4605-3.1836v6.3594Z" fill="#61b2e4"/>
    <path d="m9.9469,52.441c5.3061,0,5.1545,3.1837,10.4605,3.1837s5.3061-3.1837,10.4606-3.1837,5.1544,3.1837,10.3089,3.1837,5.1544-3.1837,10.3089-3.1837,5.1545,3.1837,10.3089,3.1837v-6.3591c-5.1544,0-5.1544-3.1837-10.3089-3.1837s-5.1545,3.1837-10.3089,3.1837-5.1545-3.1837-10.3089-3.1837-5.1545,3.1837-10.4606,3.1837-5.1544-3.1837-10.46-3.1837l-.0005,6.3591Z" fill="#92d3f5"/>
    <path d="m9.9469,45.4168c5.3061,0,5.1545,3.1836,10.4605,3.1836s5.3061-3.1836,10.4606-3.1836,5.1544,3.1832,10.3089,3.1832,5.1544-3.1836,10.3089-3.1836,5.1542,3.1836,10.3089,3.1836v-6.3587c-5.1544,0-5.1544-3.1836-10.3089-3.1836s-5.1545,3.1836-10.3089,3.1836-5.1545-3.1836-10.3089-3.1836-5.1545,3.1836-10.4606,3.1836-5.1544-3.1836-10.46-3.1836l-.0005,6.3591Z" fill="#92d3f5"/>
    <polygon points="16.6 25.201 35.686 8.917 55.192 25.201 16.6 25.201" fill="#ea5a47"/>
    <polygon points="28.922 14.674 28.922 10.009 22.991 10.009 22.991 19.743 28.922 14.674" fill="#ea5a47"/>
  </g>
  <g id="line">
    <line x1="55.1849" y1="50.4349" x2="55.1849" y2="25.2007" fill="none" stroke="#000" stroke-linecap="round" stroke-linejoin="round" stroke-width="2"/>
    <line x1="16.6073" y1="25.2007" x2="16.6073" y2="50.9457" fill="none" stroke="#000" stroke-linecap="round" stroke-linejoin="round" stroke-width="2"/>
    <polygon points="16.6 25.201 35.686 8.917 55.192 25.201 16.6 25.201" fill="none" stroke="#000" stroke-linecap="round" stroke-linejoin="round" stroke-width="2"/>
    <polygon points="28.922 14.674 28.922 10.009 22.991 10.009 22.991 19.743 28.922 14.674" fill="none" stroke="#000" stroke-linecap="round" stroke-linejoin="round" stroke-width="2"/>
    <polyline points="30.741 41.21 30.741 31.123 41.051 31.123 41.051 44.197" fill="none" stroke="#000" stroke-linecap="round" stroke-linejoin="round" stroke-width="2"/>
    <path d="m61.7947,56.4009c-5.1544,0-5.1544-3.1836-10.3089-3.1836s-5.1545,3.1836-10.3089,3.1836-5.1545-3.1836-10.3089-3.1836-5.1545,3.1836-10.4606,3.1836-5.1544-3.1836-10.46-3.1836" fill="none" stroke="#000" stroke-linecap="round" stroke-linejoin="round" stroke-width="2"/>
    <path d="m61.7947,48.9356c-5.1544,0-5.1544-3.1836-10.3089-3.1836s-5.1545,3.1836-10.3089,3.1836-5.1545-3.1836-10.3089-3.1836-5.1545,3.1836-10.4606,3.1836-5.1544-3.1836-10.4605-3.1836" fill="none" stroke="#000" stroke-linecap="round" stroke-linejoin="round" stroke-width="2"/>
    <path d="m61.7947,63.8662c-5.1544,0-5.1544-3.1836-10.3089-3.1836s-5.1545,3.1836-10.3089,3.1836-5.1545-3.1836-10.3089-3.1836-5.1545,3.1836-10.4606,3.1836-5.1544-3.1836-10.46-3.1836" fill="none" stroke="#000" stroke-linecap="round" stroke-linejoin="round" stroke-width="2"/>
  </g>
</svg>