<svg id="emoji" viewBox="0 0 72 72" xmlns="http://www.w3.org/2000/svg">
  <g id="grid">
    <path fill="#b3b3b3" d="M68,4V68H4V4H68m4-4H0V72H72V0Z"/>
    <path fill="none" stroke="#00a5ff" stroke-miterlimit="10" stroke-width="0.1" d="M12.923,10.9583H59.0769A1.9231,1.9231,0,0,1,61,12.8814V59.0352a1.9231,1.9231,0,0,1-1.9231,1.9231H12.9231A1.9231,1.9231,0,0,1,11,59.0352V12.8813A1.923,1.923,0,0,1,12.923,10.9583Z"/>
    <rect x="16" y="4" rx="2.2537" ry="2.2537" width="40" height="64" fill="none" stroke="#00a5ff" stroke-miterlimit="10" stroke-width="0.1"/>
    <rect x="16" y="4" rx="2.2537" ry="2.2537" width="40" height="64" transform="rotate(90 36 36)" fill="none" stroke="#00a5ff" stroke-miterlimit="10" stroke-width="0.1"/>
    <circle cx="36" cy="36" r="29" fill="none" stroke="#00a5ff" stroke-miterlimit="10" stroke-width="0.1"/>
  </g>
  <g id="color">
    <path fill="#fcea2b" d="M10.7037,26.0475a2.6542,2.6542,0,0,1,2.4573-1.947h51.38A1.494,1.494,0,0,1,66.06,26.0418L60.6317,47.9582A2.6939,2.6939,0,0,1,58.1509,49.9H7.1009a1.5161,1.5161,0,0,1-1.5426-1.947Z"/>
    <path fill="#f1b31c" d="M60.2493,48.6138,63.744,35.1853A193.6507,193.6507,0,0,1,38.7913,44.14a218.0268,218.0268,0,0,1-28.8,5.76H58.5491A1.7112,1.7112,0,0,0,60.2493,48.6138Z"/>
    <polygon points="18.929 36.928 10.697 24.1 19.099 24.1 27.376 36.966 16.549 49.9 8.103 49.9 18.929 36.928"/>
    <polygon points="35.74 37.005 27.507 24.1 35.904 24.1 44.186 37.042 33.36 49.9 24.913 49.9 35.74 37.005"/>
    <polygon points="51.682 37.079 43.449 24.1 51.851 24.1 60.128 37.116 49.302 49.9 40.855 49.9 51.682 37.079"/>
  </g>
  <g id="line">
    <path fill="none" stroke="#000" stroke-linecap="round" stroke-linejoin="round" stroke-width="2" d="M10.7037,26.0475a2.6542,2.6542,0,0,1,2.4573-1.947h51.38A1.494,1.494,0,0,1,66.06,26.0418L60.6317,47.9582A2.6939,2.6939,0,0,1,58.1509,49.9H7.1009a1.5161,1.5161,0,0,1-1.5426-1.947Z"/>
    <polyline fill="none" stroke="#000" stroke-linecap="round" stroke-linejoin="round" stroke-width="2" points="14.81 24.1 23.087 36.966 12.26 49.9"/>
    <polyline fill="none" stroke="#000" stroke-linecap="round" stroke-linejoin="round" stroke-width="2" points="31.614 24.1 39.897 37.042 29.07 49.9"/>
    <polyline fill="none" stroke="#000" stroke-linecap="round" stroke-linejoin="round" stroke-width="2" points="47.562 24.1 55.839 37.116 45.012 49.9"/>
  </g>
</svg>
