<svg id="emoji" xmlns="http://www.w3.org/2000/svg" viewBox="0 0 72 72">
  <g id="grid">
    <path d="M68,4V68H4V4H68m4-4H0V72H72V0Z" fill="#b3b3b3"/>
    <path d="M12.923,10.9583H59.0769A1.9231,1.9231,0,0,1,61,12.8814V59.0352a1.9231,1.9231,0,0,1-1.9231,1.9231H12.9231A1.9231,1.9231,0,0,1,11,59.0352V12.8813A1.923,1.923,0,0,1,12.923,10.9583Z" fill="none" stroke="#00a5ff" stroke-miterlimit="10" stroke-width="0.1"/>
    <rect x="16" y="4" width="40" height="64" rx="2.2537" ry="2.2537" fill="none" stroke="#00a5ff" stroke-miterlimit="10" stroke-width="0.1"/>
    <rect x="16" y="4" width="40" height="64" rx="2.2537" ry="2.2537" transform="translate(72) rotate(90)" fill="none" stroke="#00a5ff" stroke-miterlimit="10" stroke-width="0.1"/>
    <circle cx="36" cy="36" r="29" fill="none" stroke="#00a5ff" stroke-miterlimit="10" stroke-width="0.1"/>
  </g>
  <g id="color">
    <path d="M52.5733,29.11c0-9.3149-7.1338-16.8923-15.9034-16.8923S20.7665,19.795,20.7665,29.114c.0027.4653.2238,11.6088,12.9612,31.2452a3.4626,3.4626,0,0,0,2.8174,1.9343c1.8394,0,3.0941-2.0266,3.2162-2.2327C52.58,40.4135,52.58,29.5534,52.5733,29.11ZM36.67,35.9135a7.0826,7.0826,0,1,1,7.0826-7.0826A7.0907,7.0907,0,0,1,36.67,35.9135Z" fill="#d22f27"/>
    <path d="M52.5733,29.11c0-9.3149-7.1338-16.8923-15.9034-16.8923a14.96,14.96,0,0,0-3.8645.5254c8.3948.4493,15.0989,7.8225,15.0989,16.849.0068.4436.0068,11.3036-12.812,30.9509a5.8543,5.8543,0,0,1-.5865.7972,2.8549,2.8549,0,0,0,2.0393.9534c1.8394,0,3.0941-2.0266,3.2162-2.2327C52.58,40.4135,52.58,29.5534,52.5733,29.11Z" fill="#ea5a47"/>
  </g>
  <g id="line">
    <path d="M36.5451,62.2935a3.4628,3.4628,0,0,1-2.8174-1.9343C20.99,40.7228,20.7692,29.5793,20.7665,29.114c0-9.3191,7.1337-16.8964,15.9034-16.8964S52.5733,19.7949,52.5733,29.11c.0068.4436.0068,11.3036-12.812,30.9509C39.6392,60.2669,38.3845,62.2935,36.5451,62.2935Z" fill="none" stroke="#000" stroke-linecap="round" stroke-linejoin="round" stroke-width="2"/>
    <path d="M36.67,35.9135a7.0826,7.0826,0,1,1,7.0827-7.0826A7.0906,7.0906,0,0,1,36.67,35.9135Z" fill="none" stroke="#000" stroke-linecap="round" stroke-linejoin="round" stroke-width="2"/>
  </g>
</svg>
