<svg id="emoji" viewBox="0 0 72 72" xmlns="http://www.w3.org/2000/svg">
  <g id="grid">
    <path fill="#b3b3b3" d="M68,4V68H4V4H68m4-4H0V72H72V0Z"/>
    <path fill="none" stroke="#00a5ff" stroke-miterlimit="10" stroke-width="0.1" d="M12.923,10.9583H59.0769A1.9231,1.9231,0,0,1,61,12.8814V59.0352a1.9231,1.9231,0,0,1-1.9231,1.9231H12.9231A1.9231,1.9231,0,0,1,11,59.0352V12.8813A1.923,1.923,0,0,1,12.923,10.9583Z"/>
    <rect x="16" y="4" rx="2.2537" width="40" height="64" fill="none" stroke="#00a5ff" stroke-miterlimit="10" stroke-width="0.1"/>
    <rect x="16" y="4" rx="2.2537" width="40" height="64" transform="translate(72) rotate(90)" fill="none" stroke="#00a5ff" stroke-miterlimit="10" stroke-width="0.1"/>
    <circle cx="36" cy="36" r="29" fill="none" stroke="#00a5ff" stroke-miterlimit="10" stroke-width="0.1"/>
  </g>
  <g id="color">
    <path fill="#92d3f5" d="M32.088,60.1489H15.8129V30.6956H23.8a105.3443,105.3443,0,0,1,7.2549,9.6081C34.1674,45.2491,32.088,60.1489,32.088,60.1489Z"/>
    <polyline fill="#ea5a47" points="32.157 43.944 22.542 43.944 22.606 57.397 32.189 57.397"/>
    <path fill="#fff" d="M23.8,30.6956h0a11.9539,11.9539,0,0,0,.7-4.0306V22.84l8.4869-3.1131V16h-8.844c-5.918,0-8.33,6.4915-8.33,6.4915v8.2041"/>
    <path fill="#fff" d="M27.9347,22.5106c-.3521,2.1438,3.8126,8.5738,3.8126,8.5738l.4227-.1161a1.2323,1.2323,0,0,0,.86-1.55,38.2716,38.2716,0,0,1-.94-7.477l.1662-1.6927"/>
  </g>
  <g id="skin-shadow">
    <path fill="#d0cfce" d="M31.2128,22.0638s-2.6171,1.6117-1.8511,5.9761L27.33,22.83l-.2022-1.0392,4.0851-1.4134Z"/>
    <path fill="#61b2e4" d="M21.7819,31.0844s7.2394,8.1232,8.7181,12.86l2.2682-.4974L24.2905,30.6956Z"/>
    <path fill="#d22f27" d="M30.2872,43.9574s.3192,11.5213-.4787,13.2128l2.96.2271-.1193-13.44Z"/>
    <polygon fill="#61b2e4" points="30.702 57.553 29.809 59.628 31.851 59.787 31.851 57.713 30.702 57.553"/>
  </g>
  <g id="line">
    <path fill="none" stroke="#000" stroke-linecap="round" stroke-linejoin="round" stroke-width="2" d="M32.1972,60.1489H15.9221V30.6956h7.9866a105.3443,105.3443,0,0,1,7.2549,9.6081C34.2766,45.2491,32.1972,60.1489,32.1972,60.1489Z"/>
    <polyline fill="none" stroke="#000" stroke-linecap="round" stroke-linejoin="round" stroke-width="2" points="32.266 43.944 22.651 43.944 22.715 57.397 32.298 57.397"/>
    <path fill="none" stroke="#000" stroke-linecap="round" stroke-linejoin="round" stroke-width="2" d="M15.9221,30.6956V22.4915S18.3336,16,24.2517,16h8.844v3.7266L24.6088,22.84v5.9014l-.7,1.9545"/>
    <path fill="none" stroke="#000" stroke-linecap="round" stroke-linejoin="round" stroke-width="2" d="M27.3511,22.5106c-.3522,2.1438,3.8125,8.5738,3.8125,8.5738l.4227-.1161a1.2323,1.2323,0,0,0,.86-1.55,38.2716,38.2716,0,0,1-.94-7.477l.1662-1.6927"/>
    <rect fill="#000" x="33.0319" y="14.9945" width="2.9783" height="5.6013"/>
    <circle fill="#000" cx="54.0426" cy="17.7906" r="2"/>
    <circle fill="#000" cx="54.0426" cy="8.7906" r="2"/>
    <circle fill="#000" cx="47.8363" cy="13.7906" r="2"/>
    <circle fill="#000" cx="47.8363" cy="21.7906" r="2"/>
    <circle fill="#000" cx="54.0426" cy="26.9555" r="2"/>
    <circle fill="#000" cx="40.8701" cy="17.7906" r="2"/>
  </g>
</svg>
