<?xml version="1.0" encoding="UTF-8"?>
<svg id="emoji" xmlns="http://www.w3.org/2000/svg" viewBox="0 0 72 72">
  <g id="grid">
    <path d="m68,4v64H4V4h64m4-4H0v72h72V0Z" fill="#b3b3b3"/>
    <path d="m12.923,10.9583h46.1539c1.0621,0,1.9231.861,1.9231,1.9231h0v46.1538c0,1.0621-.861,1.9231-1.9231,1.9231H12.9231c-1.0621,0-1.9231-.861-1.9231-1.9231h0V12.8813c0-1.062.861-1.923,1.923-1.923h0Z" fill="none" stroke="#00a5ff" stroke-miterlimit="10" stroke-width=".1"/>
    <rect x="16" y="4" width="40" height="64" rx="2.2537" ry="2.2537" fill="none" stroke="#00a5ff" stroke-miterlimit="10" stroke-width=".1"/>
    <rect x="4" y="16" width="64" height="40" rx="2.2537" ry="2.2537" fill="none" stroke="#00a5ff" stroke-miterlimit="10" stroke-width=".1"/>
    <circle cx="36" cy="36" r="29" fill="none" stroke="#00a5ff" stroke-miterlimit="10" stroke-width=".1"/>
  </g>
  <g id="color">
    <path d="m32.088,60.1489H15.8129v-29.4533h7.9871c2.5995,3.0618,5.0217,6.2697,7.2549,9.6081,3.1125,4.9454,1.0331,19.8452,1.0331,19.8452Z" fill="#92d3f5"/>
    <polyline points="32.157 43.944 22.542 43.944 22.606 57.397 32.189 57.397" fill="#ea5a47"/>
    <path d="m23.8,30.6956h0c.4632-1.2933.7-2.6568.7-4.0306v-3.825l8.4869-3.1131v-3.7269h-8.844c-5.918,0-8.33,6.4915-8.33,6.4915v8.2041" fill="#fff"/>
    <path d="m27.9347,22.5106c-.3521,2.1438,3.8126,8.5738,3.8126,8.5738l.4227-.1161c.6574-.176,1.0477-.8516.8717-1.509-.0037-.0137-.0076-.0274-.0117-.041-.5585-2.4553-.8734-4.9598-.94-7.477l.1662-1.6927" fill="#fff"/>
  </g>
  <g id="skin-shadow">
    <path d="m31.2128,22.0638s-2.6171,1.6117-1.8511,5.9761l-2.0317-5.2099-.2022-1.0392,4.0851-1.4134v1.6864Z" fill="#d0cfce"/>
    <path d="m21.7819,31.0844s7.2394,8.1232,8.7181,12.86l.7606-.841c.2928-.3238.3179-.8087.0601-1.1609l-7.6811-10.4945-1.8577-.3636Z" fill="#61b2e4"/>
    <path d="m30.1931,43.7694s.3192,11.5213-.4787,13.2128l.4919.0377c1.3276.1019,2.4579-.9544,2.4461-2.2859l-.0764-8.6029c-.0116-1.3078-1.0751-2.3619-2.383-2.3618h0Z" fill="#d22f27"/>
    <path d="m30.702,57.553l-.893,2.075.579.0451c.7889.0614,1.463-.5622,1.463-1.3535v-.6066l-1.149-.16Z" fill="#61b2e4"/>
  </g>
  <g id="line">
    <path d="m32.1972,60.1489H15.9221v-29.4533h7.9866c2.5995,3.0618,5.0217,6.2697,7.2549,9.6081,3.113,4.9454,1.0336,19.8452,1.0336,19.8452Z" fill="none" stroke="#000" stroke-linecap="round" stroke-linejoin="round" stroke-width="2"/>
    <polyline points="32.266 43.944 22.651 43.944 22.715 57.397 32.298 57.397" fill="none" stroke="#000" stroke-linecap="round" stroke-linejoin="round" stroke-width="2"/>
    <path d="m15.9221,30.6956v-7.605c0-.4267.0912-.8435.2759-1.2282.7825-1.6297,3.2749-5.8623,8.0537-5.8623h8.844v3.7266l-8.4869,3.1134v5.6479c0,.1677-.0289.3342-.0855.4921l-.6145,1.7159" fill="none" stroke="#000" stroke-linecap="round" stroke-linejoin="round" stroke-width="2"/>
    <path d="m27.3511,22.5106c-.3522,2.1438,3.8125,8.5738,3.8125,8.5738l.4227-.1161c.6574-.176,1.0477-.8516.8717-1.509-.0037-.0137-.0076-.0274-.0117-.041-.5585-2.4553-.8734-4.9598-.94-7.477l.1662-1.6927" fill="none" stroke="#000" stroke-linecap="round" stroke-linejoin="round" stroke-width="2"/>
    <rect x="32.2713" y="15.0122" width="2.9783" height="5.6013" rx=".9511" ry=".9511"/>
    <circle cx="54.0426" cy="17.7906" r="2"/>
    <circle cx="54.0426" cy="8.7906" r="2"/>
    <circle cx="47.8363" cy="13.7906" r="2"/>
    <circle cx="47.8363" cy="21.7906" r="2"/>
    <circle cx="54.0426" cy="26.9555" r="2"/>
    <circle cx="40.8701" cy="17.7906" r="2"/>
  </g>
</svg>