<svg id="emoji" xmlns="http://www.w3.org/2000/svg" viewBox="0 0 72 72">
  <g id="grid">
    <path d="M68,4V68H4V4H68m4-4H0V72H72V0Z" fill="#b3b3b3"/>
    <path d="M12.923,10.9583H59.0769A1.9231,1.9231,0,0,1,61,12.8814V59.0352a1.9231,1.9231,0,0,1-1.9231,1.9231H12.9231A1.9231,1.9231,0,0,1,11,59.0352V12.8813A1.923,1.923,0,0,1,12.923,10.9583Z" fill="none" stroke="#00a5ff" stroke-miterlimit="10" stroke-width=".1"/>
    <rect x="16" y="4" width="40" height="64" rx="2.2537" ry="2.2537" fill="none" stroke="#00a5ff" stroke-miterlimit="10" stroke-width=".1"/>
    <rect x="16" y="4" width="40" height="64" rx="2.2537" ry="2.2537" transform="translate(72) rotate(90)" fill="none" stroke="#00a5ff" stroke-miterlimit="10" stroke-width=".1"/>
    <circle cx="36" cy="36" r="29" fill="none" stroke="#00a5ff" stroke-miterlimit="10" stroke-width=".1"/>
  </g>
  <g id="color">
    <path d="M11.6022,27.0359a2.7339,2.7339,0,0,1,2.5041-1.9354h50.72a1.4722,1.4722,0,0,1,1.4959,1.9354L60.6105,48.9641A2.7341,2.7341,0,0,1,58.1063,50.9H7.3863a1.4721,1.4721,0,0,1-1.4958-1.9354Z" fill="#fcea2b"/>
    <path d="M60.4443,49.6138,63.939,36.1853A193.6507,193.6507,0,0,1,38.9863,45.14a218.0268,218.0268,0,0,1-28.8,5.76H58.7441A1.7112,1.7112,0,0,0,60.4443,49.6138Z" fill="#f1b31c"/>
    <polygon points="34.006 25.1 43.606 25.1 36.886 50.9 27.286 50.9 34.006 25.1"/>
    <polygon points="49.667 25.1 59.267 25.1 52.547 50.9 42.947 50.9 49.667 25.1"/>
    <polygon points="18.346 25.1 27.946 25.1 21.226 50.9 11.626 50.9 18.346 25.1"/>
    <path d="M11.6022,27.0359a2.7339,2.7339,0,0,1,2.5041-1.9354h50.72a1.4722,1.4722,0,0,1,1.4959,1.9354L60.6105,48.9641A2.7341,2.7341,0,0,1,58.1063,50.9H7.3863a1.4721,1.4721,0,0,1-1.4958-1.9354Z" fill="none"/>
  </g>
  <g id="line">
    <path d="M10.9891,27.0475a2.6542,2.6542,0,0,1,2.4573-1.947h51.38a1.4939,1.4939,0,0,1,1.5192,1.9413L60.9171,48.9582A2.6938,2.6938,0,0,1,58.4363,50.9H7.3863a1.5161,1.5161,0,0,1-1.5426-1.947Z" fill="none" stroke="#000" stroke-linecap="round" stroke-linejoin="round" stroke-width="2"/>
    <line x1="38.6705" y1="25.1005" x2="31.9505" y2="50.8995" fill="none" stroke="#000" stroke-linecap="round" stroke-linejoin="round" stroke-width="2"/>
    <line x1="54.0007" y1="25.1005" x2="47.2807" y2="50.8995" fill="none" stroke="#000" stroke-linecap="round" stroke-linejoin="round" stroke-width="2"/>
    <line x1="23.0104" y1="25.1005" x2="16.2904" y2="50.8995" fill="none" stroke="#000" stroke-linecap="round" stroke-linejoin="round" stroke-width="2"/>
  </g>
</svg>
