<svg id="emoji" viewBox="0 0 72 72" xmlns="http://www.w3.org/2000/svg">
  <g id="grid">
    <path fill="#B3B3B3" d="M68,4v64H4V4H68 M72,0H0v72h72V0z"/>
    <path fill="none" stroke="#00A5FF" stroke-miterlimit="10" stroke-width="0.1" d="M12.923,10.9583h46.1539 c1.0621,0,1.9231,0.861,1.9231,1.9231v0v46.1538c0,1.0621-0.861,1.9231-1.9231,1.9231H12.9231 c-1.0621,0-1.9231-0.861-1.9231-1.9231l0,0V12.8813C11,11.8193,11.861,10.9583,12.923,10.9583L12.923,10.9583z"/>
    <path fill="none" stroke="#00A5FF" stroke-miterlimit="10" stroke-width="0.1" d="M18.2537,4h35.4926C54.991,4,56,5.009,56,6.2537 v59.4926C56,66.991,54.991,68,53.7463,68H18.2537C17.009,68,16,66.991,16,65.7463V6.2537C16,5.009,17.009,4,18.2537,4z"/>
    <path fill="none" stroke="#00A5FF" stroke-miterlimit="10" stroke-width="0.1" d="M68,18.2537v35.4926 C68,54.991,66.991,56,65.7463,56H6.2537C5.009,56,4,54.991,4,53.7463V18.2537C4,17.009,5.009,16,6.2537,16h59.4926 C66.991,16,68,17.009,68,18.2537z"/>
    <circle cx="36" cy="36" r="29" fill="none" stroke="#00A5FF" stroke-miterlimit="10" stroke-width="0.1"/>
  </g>
  <g id="color">
    <rect x="11" y="11" width="50" height="50" fill="#B399C8"/>
    <g id="line_2_">
      <path fill="#FFFFFF" d="M52,30.6393c0-4.7003-3.8103-8.5106-8.5106-8.5106c-3.2363,0-6.0501,1.8067-7.4894,4.4662 c-1.4392-2.6595-4.2531-4.4662-7.4894-4.4662C23.8103,22.1287,20,25.939,20,30.6393c0,2.0221,0.7083,3.8769,1.8862,5.337 l-0.0029,0.0023L36,53.4748l14.1167-17.4962l-0.0029-0.0023C51.2917,34.5161,52,32.6613,52,30.6393z"/>
    </g>
  </g>
  <g id="hair"/>
  <g id="skin"/>
  <g id="skin-shadow"/>
  <g id="line">
    <rect x="11" y="11" width="50" height="50" fill="none" stroke="#000000" stroke-linecap="round" stroke-linejoin="round" stroke-miterlimit="10" stroke-width="2"/>
    <g id="line_1_">
      <path fill="none" stroke="#000000" stroke-linejoin="round" stroke-miterlimit="10" stroke-width="2" d="M52,30.6393 c0-4.7003-3.8103-8.5106-8.5106-8.5106c-3.2363,0-6.0501,1.8067-7.4894,4.4662c-1.4392-2.6595-4.2531-4.4662-7.4894-4.4662 C23.8103,22.1287,20,25.939,20,30.6393c0,2.0221,0.7083,3.8769,1.8862,5.337l-0.0029,0.0023L36,53.4748l14.1167-17.4962 l-0.0029-0.0023C51.2917,34.5161,52,32.6613,52,30.6393z"/>
    </g>
  </g>
</svg>
