<svg id="emoji" viewBox="0 0 72 72" xmlns="http://www.w3.org/2000/svg">
  <g id="grid">
    <path fill="#B3B3B3" d="M68,4v64H4V4H68 M72,0H0v72h72V0z"/>
    <path fill="none" stroke="#00A5FF" stroke-miterlimit="10" stroke-width="0.1" d="M12.923,10.9583h46.1539 c1.0621,0,1.9231,0.861,1.9231,1.9231v0v46.1538c0,1.0621-0.861,1.9231-1.9231,1.9231H12.9231 c-1.0621,0-1.9231-0.861-1.9231-1.9231l0,0V12.8813C11,11.8193,11.861,10.9583,12.923,10.9583L12.923,10.9583z"/>
    <path fill="none" stroke="#00A5FF" stroke-miterlimit="10" stroke-width="0.1" d="M18.2537,4h35.4926C54.991,4,56,5.009,56,6.2537 v59.4926C56,66.991,54.991,68,53.7463,68H18.2537C17.009,68,16,66.991,16,65.7463V6.2537C16,5.009,17.009,4,18.2537,4z"/>
    <path fill="none" stroke="#00A5FF" stroke-miterlimit="10" stroke-width="0.1" d="M68,18.2537v35.4926 C68,54.991,66.991,56,65.7463,56H6.2537C5.009,56,4,54.991,4,53.7463V18.2537C4,17.009,5.009,16,6.2537,16h59.4926 C66.991,16,68,17.009,68,18.2537z"/>
    <circle cx="36" cy="36" r="29" fill="none" stroke="#00A5FF" stroke-miterlimit="10" stroke-width="0.1"/>
  </g>
  <g id="color">
    <path fill="#A57939" d="M59.5,25c0-6.9036-5.5964-12.5-12.5-12.5c-4.7533,0-8.8861,2.6536-11,6.5598 C33.8861,15.1536,29.7533,12.5,25,12.5c-6.9036,0-12.5,5.5964-12.5,12.5c0,2.9699,1.0403,5.6942,2.7703,7.8387l-0.0043,0.0034 L36,58.5397l20.7339-25.6975l-0.0043-0.0034C58.4597,30.6942,59.5,27.9699,59.5,25z"/>
  </g>
  <g id="line">
    <path fill="none" stroke="#000000" stroke-linejoin="round" stroke-miterlimit="10" stroke-width="2" d="M59.5,25 c0-6.9036-5.5964-12.5-12.5-12.5c-4.7533,0-8.8861,2.6536-11,6.5598C33.8861,15.1536,29.7533,12.5,25,12.5 c-6.9036,0-12.5,5.5964-12.5,12.5c0,2.9699,1.0403,5.6942,2.7703,7.8387l-0.0043,0.0034L36,58.5397l20.7339-25.6975l-0.0043-0.0034 C58.4597,30.6942,59.5,27.9699,59.5,25z"/>
  </g>
</svg>
