<svg id="emoji" viewBox="0 0 72 72" version="1.1" xmlns="http://www.w3.org/2000/svg">
  <g id="grid">
    <path transform="translate(0)" fill="#b3b3b3" d="M68,4V68H4V4H68m4-4H0V72H72Z"/>
    <path transform="translate(0)" fill="none" stroke="#00a5ff" stroke-miterlimit="10" stroke-width="0.1" d="m12.92 10.96h46.15a1.923 1.923 0 0 1 1.923 1.923v46.15a1.923 1.923 0 0 1-1.923 1.923h-46.15a1.923 1.923 0 0 1-1.923-1.923v-46.15a1.923 1.923 0 0 1 1.923-1.923z"/>
    <rect x="16" y="4" rx="2.254" width="40" height="64" fill="none" stroke="#00a5ff" stroke-miterlimit="10" stroke-width="0.1"/>
    <rect x="4" y="16" rx="2.254" width="64" height="40" fill="none" stroke="#00a5ff" stroke-miterlimit="10" stroke-width="0.1"/>
    <circle cx="36" cy="36" r="29" fill="none" stroke="#00a5ff" stroke-miterlimit="10" stroke-width="0.1"/>
  </g>
  <g id="color">
    <path transform="translate(0)" fill="#fcea2b" d="m18.63 32.33c0.1652-3.639 1.89-7.337 3.864-10.56 0.3726 5.052 2.762 5.242 4.132 5.242a2.608 2.608 0 0 0 2.194-2.664c0.0709-1.896 0.5482-3.004 3.486-7.697a1.886 1.886 0 0 0 0.8226 0.1982c1.151 0 3.004-1.075 1.483-9.128 0 0 11.3 6.575 10.88 17.46a1.425 1.425 0 0 0 1.441 1.409h0.0178a1.789 1.789 0 0 0 0.2071-2e-3 4.181 4.181 0 0 0 3.189-1.849c1.198 2.08 2.743 4.503 2.682 6.826 1.698 13.28-4.631 16.32-16.88 28.93a0.1908 0.1908 0 0 1-0.2578 0.023c-12.08-11.92-17.95-12.91-17.25-28.2z"/>
    <path transform="translate(0)" fill="#f1b31c" d="m37.07 21.15c-0.307 1.019-1.33 2.718-4.299 5.641-0.1023 0.0679-0.1023 0.1359-0.2047 0.2039a4.761 4.761 0 0 0-1.654 3.276 3.174 3.174 0 0 0 0.5287 1.549 4.146 4.146 0 0 1-2.437 1.032c-0.5977 0-1.849-0.4916-1.946-1.259a3.111 3.111 0 0 0-1.363 2.538c0 3.034 1.616 6.308 6.324 8.755 0 0 1.366 0.6226 1.469 1.234 0 0 0 0.068 0.1023 0.068h5.425c0.2047 0 0.2047 0 0.2047-0.068 0-0.1359 0.4094-0.8835 3.275-2.582a10.44 10.44 0 0 0 3.787-3.602 0.573 0.573 0 0 0-0.3872-0.774 0.7864 0.7864 0 0 0-0.2269-0.0415 1.546 1.546 0 0 1-1.023-0.8156s-0.2048-0.5438 0.6141-1.767a2.995 2.995 0 0 0 0.6737-1.631 1.012 1.012 0 0 0-1.232-0.511 1.044 1.044 0 0 0-0.0987 0.0353 2.502 2.502 0 0 1-2.926-0.7476s-0.7164-1.087-0.1023-3.738c0.4094-2.039-1.024-5.369-2.866-7.068-0.5121-0.4076-1.536-0.2717-1.638 0.2721z"/>
    <path transform="translate(0)" fill="#d22f27" d="m52.01 38.55a8.261 8.261 0 0 0-8.499-8 8.674 8.674 0 0 0-6.764 3.156 0.91 0.91 0 0 1-1.43 0 8.674 8.674 0 0 0-6.764-3.156 8.261 8.261 0 0 0-8.499 8 8.386 8.386 0 0 0 1.616 5.197l12.98 16.05c0.363 0.4235 2.236 0.661 2.659 0.1471 2.644-3.211 13.13-16.22 13.13-16.22l0.0242-0.0325a7.729 7.729 0 0 0 1.546-5.134z"/>
    <path transform="translate(0)" fill="#fcea2b" d="m29.66 45.15c-0.4856-0.1059 0.71 2.374-0.3283 4.153-1.126 1.93-2.058 2.9-1.534 4.881 0.5386 2.035 3.744 3.784 3.874 3.218a1.534 1.534 0 0 0-0.0495-0.5452 3.469 3.469 0 0 1 0.836-2.625 4.458 4.458 0 0 0 0.9262-3.814c-0.2438-1.92-1.758-4.839-3.725-5.268z"/>
    <path transform="translate(0)" fill="#fcea2b" d="m46.22 36.27c0.5993-0.225-0.5392 2.822 1.047 4.593 1.721 1.921 3.049 2.808 2.686 5.147-0.3733 2.403-4.171 5.068-4.422 4.46a1.557 1.557 0 0 1-0.02-0.6231 3.504 3.504 0 0 0-1.458-2.765 4.513 4.513 0 0 1-1.754-4.081c0.0172-2.209 1.492-5.818 3.921-6.73z"/>
  </g>
  <g id="line" fill="none" stroke="#000" stroke-width="2">
    <path transform="translate(0)" stroke-linecap="round" stroke-linejoin="round" d="m51.06 38.55a8.001 8.001 0 0 0-15.04-3.802 7.999 7.999 0 1 0-13.27 8.818l-0.0028 0.0022 2.946 3.651"/>
    <path transform="translate(0)" stroke-linecap="round" stroke-linejoin="round" d="m34.46 58.09 1.554 1.926 6.285-7.79"/>
    <path transform="translate(0)" stroke-linecap="round" stroke-linejoin="round" d="m19.63 32.18a20.77 20.77 0 0 1 3.124-10.43c0.3726 5.052 2.762 5.242 4.132 5.242 1.024 0 2.302-1.906 2.435-4.012a10.24 10.24 0 0 1 3.245-6.35 1.883 1.883 0 0 0 0.8226 0.1982c1.151 0 3.004-1.075 1.483-9.128 0 0 11.3 6.575 10.88 17.46a1.425 1.425 0 0 0 1.441 1.409h0.0176a1.813 1.813 0 0 0 0.2072-2e-3 4.181 4.181 0 0 0 3.189-1.85 12.72 12.72 0 0 1 1.732 6.704"/>
    <path transform="translate(0)" stroke-miterlimit="10" d="m32.46 54.23a4.458 4.458 0 0 0 0.9262-3.814c-0.2438-1.92-1.758-4.839-3.725-5.268-0.4856-0.1059 0.71 2.374-0.3283 4.153-1.126 1.93-2.058 2.9-1.534 4.881 0.5386 2.035 3.744 3.784 3.874 3.218a1.534 1.534 0 0 0-0.0495-0.5452 3.469 3.469 0 0 1 0.836-2.625z"/>
    <path transform="translate(0)" stroke-miterlimit="10" d="m46.22 36.27c0.5993-0.225-0.5392 2.822 1.047 4.593 1.721 1.921 3.049 2.808 2.686 5.147-0.3733 2.403-4.171 5.068-4.422 4.46a1.557 1.557 0 0 1-0.02-0.6231 3.504 3.504 0 0 0-1.458-2.765 4.513 4.513 0 0 1-1.754-4.081c0.0172-2.209 1.492-5.818 3.921-6.73z"/>
  </g>
</svg>
