<svg id="emoji" viewBox="0 0 72 72" version="1.1" xmlns="http://www.w3.org/2000/svg">
  <g id="grid">
    <path fill="#b3b3b3" d="M68,4V68H4V4H68m4-4H0V72H72V0Z"/>
    <path fill="none" stroke="#00a5ff" stroke-miterlimit="10" stroke-width="0.1" d="m12.92 10.96h46.15a1.923 1.923 0 0 1 1.923 1.923v46.15a1.923 1.923 0 0 1-1.923 1.923h-46.15a1.923 1.923 0 0 1-1.923-1.923v-46.15a1.923 1.923 0 0 1 1.923-1.923z"/>
    <rect x="16" y="4" rx="2.254" width="40" height="64" fill="none" stroke="#00a5ff" stroke-miterlimit="10" stroke-width="0.1"/>
    <rect x="16" y="4" rx="2.254" width="40" height="64" transform="translate(72) rotate(90)" fill="none" stroke="#00a5ff" stroke-miterlimit="10" stroke-width="0.1"/>
    <circle cx="36" cy="36" r="29" fill="none" stroke="#00a5ff" stroke-miterlimit="10" stroke-width="0.1"/>
  </g>
  <g id="color">
    <rect x="12" y="12" width="48" height="47.83" fill="#92d3f5"/>
    <path fill="#fff" stroke-width="0.9439" d="m51.95 40.6-0.6049-14.45c-0.08655-1.736-1.292-3.532-2.991-3.548l-5.813-0.1022c-1.699 0.01652-3.481 1.809-3.568 3.545l-0.6146 14.55c-0.0044 0.09826 0.4023 0.7596 0.3628 0.8492l2.561-1.996-0.704 16.7c-0.02454 0.2379 0.1998 0.4921 0.345 0.6796 0.02869 0.03653 0.06957 0.06079 0.1148 0.06805 0.1616 0 0.4961-0.323 0.5558-0.8499l1.92-17.02 3.088 0.02492 2.189 16.99c0.05965 0.5277 0.3934 0.8499 0.555 0.8499 0.04521-0.0073 0.08608-0.03143 0.1148-0.06796 0.1453-0.1876 0.213-0.4257 0.1888-0.6637l-0.5389-16.72 2.343 1.912c-0.05475-0.1014 0.5042-0.6496 0.4989-0.7653z"/>
    <circle cx="45.14" cy="17.23" r="2.242" fill="#fff" stroke-width="0.9439"/>
    <path fill="#fff" stroke-width="0.9439" d="m33.64 40.6-0.6223-14.63c-0.08656-1.736-1.049-3.293-2.748-3.31l-6.17-0.1515c-1.699 0.01652-3.313 1.526-3.399 3.262l-0.6519 14.83c-0.0044 0.09826 0.3348 0.7015 0.2953 0.7911l1.865-0.7851-0.189 15.59c-0.02464 0.2379 0.4503 0.4387 0.5954 0.6263 0.0286 0.03653 0.06957 0.06079 0.1148 0.06806 0.1615 0 0.496-0.323 0.5556-0.8499l1.919-17.02h3.356l1.556 17.12c0.05965 0.5276 0.757 0.7418 0.9185 0.7418 0.04521-0.0073 0.08618-0.03143 0.1148-0.06796 0.1453-0.1876 0.7849-0.4359 0.7607-0.6739l-0.184-15.59 1.59 0.8682c-0.05475-0.1014 0.3303-0.7143 0.325-0.8299z"/>
    <circle cx="26.89" cy="17.23" r="2.242" fill="#fff" stroke-width="0.9439"/>
  </g>
  <g id="line" fill="none" stroke="#000" stroke-width="2">
    <circle cx="45.14" cy="17.23" r="2.242" stroke-miterlimit="10"/>
    <path stroke-linecap="round" stroke-linejoin="round" d="m48.93 27 1.435 28.69c0.04153 0.8306-0.4342 1.51-1.057 1.51-0.7374-0.1247-1.284-0.7529-1.305-1.501l-1.917-16.63c-0.09515-0.8253-0.5127-1.501-0.928-1.501s-0.8306 0.6751-0.928 1.501l-1.92 16.63c-0.02161 0.7476-0.5682 1.376-1.305 1.501-0.623 0-1.099-0.6796-1.057-1.51l1.435-28.69"/>
    <path stroke-linecap="round" stroke-linejoin="round" d="m38.36 40.6 0.5981-14.35c0.109-2.099 1.831-3.752 3.932-3.776h4.531c2.102 0.0235 3.824 1.676 3.932 3.776l0.5981 14.35"/>
    <circle cx="26.9" cy="17.23" r="2.242" stroke-miterlimit="10"/>
    <path stroke-linecap="round" stroke-linejoin="round" d="m30.65 27.3c-1.776 2.667-0.5112 4.612-0.02388 6.041 0.3463 1.016 0.5704 3.172 0.6777 4.239 0.4534 4.513 0.757 18.12 0.757 18.12 0.04153 0.8306-0.4342 1.51-1.057 1.51-0.7374-0.1247-1.284-0.7529-1.305-1.501l-1.917-16.63c-0.09515-0.8253-0.5127-1.501-0.928-1.501s-0.8306 0.6751-0.928 1.501l-1.92 16.63c-0.02162 0.7476-0.5682 1.376-1.305 1.501-0.623 0-1.099-0.6796-1.057-1.51 0 0 0.3946-13.47 0.8103-17.94 0.1034-1.112 0.2799-3.359 0.6244-4.421 0.4662-1.437 1.825-3.578 0.02162-6.041"/>
    <path stroke-linecap="round" stroke-linejoin="round" d="m20.05 40.6 0.5981-14.35c0.109-2.099 1.831-3.752 3.932-3.776h4.531c2.102 0.0235 3.824 1.676 3.932 3.776l0.5981 14.35"/>
    <rect x="12" y="12" width="48" height="48" fill="none" stroke="#000" stroke-linecap="round" stroke-linejoin="round"/>
  </g>
</svg>
