<svg id="emoji" viewBox="0 0 72 72" version="1.1" xmlns="http://www.w3.org/2000/svg">
  <g id="grid">
    <path fill="#b3b3b3" d="M68,4V68H4V4H68m4-4H0V72H72V0Z"/>
    <path fill="none" stroke="#00a5ff" stroke-miterlimit="10" stroke-width="0.1" d="m12.92 10.96h46.15a1.923 1.923 0 0 1 1.923 1.923v46.15a1.923 1.923 0 0 1-1.923 1.923h-46.15a1.923 1.923 0 0 1-1.923-1.923v-46.15a1.923 1.923 0 0 1 1.923-1.923z"/>
    <rect x="16" y="4" rx="2.254" width="40" height="64" fill="none" stroke="#00a5ff" stroke-miterlimit="10" stroke-width="0.1"/>
    <rect x="16" y="4" rx="2.254" width="40" height="64" transform="translate(72) rotate(90)" fill="none" stroke="#00a5ff" stroke-miterlimit="10" stroke-width="0.1"/>
    <circle cx="36" cy="36" r="29" fill="none" stroke="#00a5ff" stroke-miterlimit="10" stroke-width="0.1"/>
  </g>
  <g id="color">
    <rect x="12" y="12" width="48" height="47.83" fill="#92d3f5"/>
    <path transform="translate(-1.3 .2001)" fill="#fff" d="m26.45 45.4 2.137 10.32 9.624 0.0556 2.115-10.17s-7-4.375-14.08-0.2083"/>
    <path transform="translate(-1.3 .2001)" fill="#fff" stroke-linecap="round" stroke-linejoin="round" stroke-miterlimit="10" stroke-width="2" d="m58.5 24.68v4.87c0 0.56-0.45 1-1 1h-16.88c-2.84 0-3.51 2.46-3.66 3.83-0.06 0.5-0.48 0.88-0.99 0.88h-5.02c-0.55 0-0.99-0.43-1-0.9801-0.0101-2.8 0.82-10.6 10.63-10.6h5.17v-4.45h-4.75v-3.21h13.25v3.21h-4.75v4.45h8c0.55 0 1 0.45 1 1z"/>
  </g>
  <g id="line" fill="none" stroke="#000" stroke-linecap="round" stroke-linejoin="round" stroke-width="2">
    <rect x="12" y="12" width="48" height="48" fill="none" stroke="#000" stroke-linejoin="round"/>
    <polyline transform="translate(-1.3 .2001)" stroke-miterlimit="10" points="24.33 34.82 28.26 55.77 38.74 55.77 42.67 34.82"/>
    <path transform="translate(-1.3 .2001)" stroke-miterlimit="10" d="m26.73 45.04s6.548-2.619 13.1 0"/>
    <path transform="translate(-1.3 .2001)" stroke-miterlimit="10" d="m58.5 24.68v4.87c0 0.56-0.45 1-1 1h-16.88c-2.84 0-3.51 2.46-3.66 3.83-0.06 0.5-0.48 0.88-0.99 0.88h-5.02c-0.55 0-0.99-0.43-1-0.9801-0.0101-2.8 0.82-10.6 10.63-10.6h5.17v-4.45h-4.75v-3.21h13.25v3.21h-4.75v4.45h8c0.55 0 1 0.45 1 1z"/>
  </g>
</svg>
