<svg id="emoji" x="0" y="0" viewBox="0 0 72 72" version="1.1" xmlns="http://www.w3.org/2000/svg">
  <g id="grid">
    <path fill="#B3B3B3" d="M68,4v64H4V4H68 M72,0H0v72h72V0z"/>
    <path fill="none" stroke="#00A5FF" stroke-miterlimit="10" stroke-width="0.1" d="M12.923,10.9583h46.1539 c1.0621,0,1.9231,0.861,1.9231,1.9231v0v46.1538c0,1.0621-0.861,1.9231-1.9231,1.9231H12.9231 c-1.0621,0-1.9231-0.861-1.9231-1.9231l0,0V12.8813C11,11.8193,11.861,10.9583,12.923,10.9583L12.923,10.9583z"/>
    <path fill="none" stroke="#00A5FF" stroke-miterlimit="10" stroke-width="0.1" d="M18.2537,4h35.4926C54.991,4,56,5.009,56,6.2537 v59.4926C56,66.991,54.991,68,53.7463,68H18.2537C17.009,68,16,66.991,16,65.7463V6.2537C16,5.009,17.009,4,18.2537,4z"/>
    <path fill="none" stroke="#00A5FF" stroke-miterlimit="10" stroke-width="0.1" d="M68,18.2537v35.4926 C68,54.991,66.991,56,65.7463,56H6.2537C5.009,56,4,54.991,4,53.7463V18.2537C4,17.009,5.009,16,6.2537,16h59.4926 C66.991,16,68,17.009,68,18.2537z"/>
    <circle cx="36" cy="36" r="29" fill="none" stroke="#00A5FF" stroke-miterlimit="10" stroke-width="0.1"/>
  </g>
  <g id="line-supplement">
    <path fill="none" stroke="#000000" stroke-linecap="round" stroke-linejoin="round" stroke-miterlimit="10" stroke-width="2" d="M50.0852,41.7317c-0.8686,0.7704-2.0115,1.2382-3.2639,1.2382l0,0c-2.7175,0-4.9206-2.203-4.9206-4.9206v-3.9364v3.9364v-3.9364 c0-2.7176,2.2031-4.9206,4.9206-4.9206l0,0c1.2524,0,2.3953,0.4679,3.2639,1.2384"/>
    <polyline fill="none" stroke="#000000" stroke-linecap="round" stroke-linejoin="round" stroke-miterlimit="10" stroke-width="2" points="37.6606,29.1923 33.7242,42.9699 29.7877,29.1923 25.8512,42.9699 21.9148,29.1923"/>
  </g>
  <g id="color">
    <path fill="#61B2E4" d="M60,61H12c-0.5523,0-1-0.4477-1-1V12c0-0.5523,0.4477-1,1-1h48c0.5523,0,1,0.4477,1,1v48 C61,60.5523,60.5523,61,60,61z"/>
    <path fill="none" stroke="#FFFFFF" stroke-linecap="round" stroke-linejoin="round" stroke-miterlimit="10" stroke-width="2" d="M50.0852,41.7317c-0.8686,0.7704-2.0115,1.2382-3.2639,1.2382l0,0c-2.7175,0-4.9206-2.203-4.9206-4.9206v-3.9364v3.9364v-3.9364 c0-2.7176,2.2031-4.9206,4.9206-4.9206l0,0c1.2524,0,2.3953,0.4679,3.2639,1.2384"/>
    <polyline fill="none" stroke="#FFFFFF" stroke-linecap="round" stroke-linejoin="round" stroke-miterlimit="10" stroke-width="2" points="37.6606,29.1923 33.7242,42.9699 29.7877,29.1923 25.8512,42.9699 21.9148,29.1923"/>
  </g>
  <g id="hair"/>
  <g id="skin"/>
  <g id="skin-shadow"/>
  <g id="line">
    <path fill="none" stroke="#000000" stroke-linecap="round" stroke-linejoin="round" stroke-miterlimit="10" stroke-width="2" d="M60,61H12c-0.5523,0-1-0.4477-1-1V12c0-0.5523,0.4477-1,1-1h48c0.5523,0,1,0.4477,1,1v48C61,60.5523,60.5523,61,60,61z"/>
  </g>
</svg>
