<svg id="emoji" viewBox="0 0 72 72" xmlns="http://www.w3.org/2000/svg">
  <g id="grid">
    <path fill="#b3b3b3" d="M68,4V68H4V4H68m4-4H0V72H72V0Z"/>
    <path fill="none" stroke="#00a5ff" stroke-miterlimit="10" stroke-width="0.1" d="M12.923,10.9583H59.0769A1.9231,1.9231,0,0,1,61,12.8814V59.0352a1.9231,1.9231,0,0,1-1.9231,1.9231H12.9231A1.9231,1.9231,0,0,1,11,59.0352V12.8813A1.923,1.923,0,0,1,12.923,10.9583Z"/>
    <rect x="16" y="4" rx="2.2537" width="40" height="64" fill="none" stroke="#00a5ff" stroke-miterlimit="10" stroke-width="0.1"/>
    <rect x="16" y="4" rx="2.2537" width="40" height="64" transform="translate(72) rotate(90)" fill="none" stroke="#00a5ff" stroke-miterlimit="10" stroke-width="0.1"/>
    <circle cx="36" cy="36" r="29" fill="none" stroke="#00a5ff" stroke-miterlimit="10" stroke-width="0.1"/>
  </g>
  <g id="color" stroke-miterlimit="10">
    <path fill="#61b2e4" stroke-linecap="round" stroke-linejoin="round" stroke-width="2" d="m60 61h-48c-0.5523 0-1-0.4477-1-1v-48c0-0.5523 0.4477-1 1-1h48c0.5523 0 1 0.4477 1 1v48c0 0.5523-0.4477 1-1 1z"/>
    <path fill="#fff" d="m38.51 36.8 5.888 0.9834c0.9375 0.1566 2.057 0.5144 2.8 1.107 0.589 0.4701 1.112 1.099 1.112 1.848 0 1.567-0.7362 11.44-1.112 12-1.116 1.661-2.582 0.6676-2.839-0.2416-0.3292-1.165 0.144-10.27 0.144-10.27l-10.27 0.5681s-1.712 0-1.712-1.712-0.2879-10.27 2.28-14.55c2.568-4.28 5.992-0.856 4.28 2.568-1.712 3.424-0.5682 7.704-0.5682 7.704z"/>
    <circle cx="41.19" cy="19.51" r="3" fill="#fff"/>
    <path fill="#fff" stroke-width="2" d="m37 45"/>
    <path fill="none" stroke="#fff" stroke-linecap="round" stroke-linejoin="round" stroke-miterlimit="10" stroke-width="2" d="m37.16 26.8-7.339 4.299c-0.3889 0.2206-0.5841 0.6727-0.478 1.107l-0.0681 6.496"/>
  </g>
  <g id="line" stroke-miterlimit="10">
    <path fill="none" stroke="#000" stroke-linecap="round" stroke-linejoin="round" stroke-width="2" d="m60 61h-48c-0.5523 0-1-0.4477-1-1v-48c0-0.5523 0.4477-1 1-1h48c0.5523 0 1 0.4477 1 1v48c0 0.5523-0.4477 1-1 1z"/>
    <circle cx="41.19" cy="19.51" r="3" fill="none" stroke="#000" stroke-linecap="round" stroke-linejoin="round" stroke-miterlimit="10" stroke-width="2"/>
    <path fill="none" stroke="#000" stroke-miterlimit="10" stroke-width="2" d="m39.69 45.49"/>
    <path fill="none" stroke="#000" stroke-linecap="round" stroke-linejoin="round" stroke-miterlimit="10" stroke-width="2" d="m39.69 45.49c0 5.617-4.631 10.15-10.28 9.996-5.218-0.1446-9.568-4.495-9.712-9.713-0.117-4.234 2.399-7.896 6.031-9.466"/>
    <path fill="none" stroke="#000" stroke-linecap="round" stroke-linejoin="round" stroke-miterlimit="10" stroke-width="2" d="m29.28 38.7-1.772-7.246c-0.1012-0.4138 0.0709-0.8463 0.4288-1.078l7.67-5.105c2.601-2.135 4.981 0.7993 3.47 3.821-1.712 3.424-0.5682 7.704-0.5682 7.704l5.888 0.9834c0.9375 0.1566 2.057 0.5144 2.8 1.107 0.589 0.4701 1.112 1.099 1.112 1.848 0 1.567-0.7362 11.44-1.112 12-1.116 1.661-2.582 0.6676-2.839-0.2416-0.3292-1.165 0.144-10.27 0.144-10.27l-10.27 0.5681s-1.712 0-1.712-1.712c0-1.291-0.2938-5.694 0.7262-10"/>
  </g>
</svg>
