<svg id="emoji" xmlns="http://www.w3.org/2000/svg" viewBox="0 0 72 72">
  <g id="grid">
    <path d="M68,4V68H4V4H68m4-4H0V72H72V0Z" fill="#b3b3b3"></path>
    <path d="M12.923,10.9583H59.0769A1.9231,1.9231,0,0,1,61,12.8814V59.0352a1.9231,1.9231,0,0,1-1.9231,1.9231H12.9231A1.9231,1.9231,0,0,1,11,59.0352V12.8813A1.923,1.923,0,0,1,12.923,10.9583Z" fill="none" stroke="#00a5ff" stroke-miterlimit="10" stroke-width="0.1"></path>
    <rect x="16" y="4" width="40" height="64" rx="2.2537" fill="none" stroke="#00a5ff" stroke-miterlimit="10" stroke-width="0.1"></rect>
    <rect x="16" y="4" width="40" height="64" rx="2.2537" transform="translate(72) rotate(90)" fill="none" stroke="#00a5ff" stroke-miterlimit="10" stroke-width="0.1"></rect>
    <circle cx="36" cy="36" r="29" fill="none" stroke="#00a5ff" stroke-miterlimit="10" stroke-width="0.1"></circle>
  </g>
  <g id="color">
    <ellipse transform="matrix(0.7071 -0.7071 0.7071 0.7071 -4.3053 31.6073)" fill="#fcea2b" cx="35.9997" cy="21.0005" rx="9.9998" ry="10.0005" stroke="none"></ellipse>
    <path fill="#f1b31c" d="M43.0703,13.9375c-2.5937-2.5937-6.2578-3.4551-9.5713-2.6016c1.6748,0.4317,3.2608,1.2911,4.5713,2.6016
			c3.9063,3.9063,3.9063,10.2378,0.001,14.1421c-1.3106,1.311-2.8975,2.1724-4.5713,2.602c3.3135,0.8536,6.9766-0.0078,9.5713-2.602
			C46.9766,24.1753,46.9766,17.8438,43.0703,13.9375z" stroke="none"></path>
    <path fill="#fcea2b" d="M52.0703,23.9297c3.9063,3.9043,3.9063,10.2363,0.001,14.1426C48.166,41.9766,39.9053,44.9043,36,41
			c-3.9053-3.9062-1.9766-13.166,1.9287-17.0713S48.166,20.0234,52.0703,23.9297z" stroke="none"></path>
    <path fill="#f1b31c" d="M52.0703,23.9375c-2.5937-2.5937-6.2578-3.4551-9.5713-2.6016c1.6748,0.4317,3.2608,1.2911,4.5713,2.6016
			c3.9063,3.9063,3.9063,10.2383,0.001,14.1426c-1.3106,1.3105-2.8975,2.1719-4.5713,2.6015
			c3.3135,0.8536,6.9766-0.0078,9.5713-2.6015C55.9766,34.1758,55.9766,27.8438,52.0703,23.9375z" stroke="none"></path>
    <ellipse transform="matrix(0.7071 -0.7071 0.7071 0.7071 -14.0129 28.1731)" fill="#fcea2b" cx="26.9997" cy="31.0007" rx="10" ry="10.0007" stroke="none"></ellipse>
    <path fill="#f1b31c" d="M34.0703,23.9375c-2.5937-2.5937-6.2578-3.4551-9.5713-2.6016c1.6748,0.4317,3.2608,1.2911,4.5713,2.6016
			c3.9063,3.9063,3.9063,10.2383,0.001,14.1426c-1.3106,1.3105-2.8975,2.1719-4.5713,2.6015
			c3.3135,0.8536,6.9766-0.0078,9.5713-2.6015C37.9766,34.1758,37.9766,27.8438,34.0703,23.9375z" stroke="none"></path>
    <path fill="#FFFFFF" stroke="none" stroke-width="1.9467" stroke-linecap="round" stroke-linejoin="round" stroke-miterlimit="10" d="
		M33,60v-6c0-2.7617-2.2393-5-5-5h-4h-3c-2.7607,0-5-2.2383-5-5v-3c0-1.1045,0.8955-2,2-2h36c1.1045,0,2,0.8955,2,2v3
		c0,2.7617-2.2393,5-5,5h-3h-4c-2.7607,0-5,2.2383-5,5v6"></path>
  </g>
  <g id="hair">
  </g>
  <g id="skin">
  </g>
  <g id="skin-shadow">
  </g>
  <g id="line">
    <circle fill="none" stroke="#000000" stroke-width="2" stroke-linecap="round" stroke-linejoin="round" stroke-miterlimit="10" cx="36" cy="21" r="10"></circle>
    <path fill="none" stroke="#000000" stroke-width="2" stroke-linecap="round" stroke-linejoin="round" stroke-miterlimit="10" d="
		M35,31c0-5.5234,4.4775-10,10-10c5.5225,0,10,4.4766,10,10s-4.4775,10-10,10"></path>
    <circle fill="none" stroke="#000000" stroke-width="2" stroke-linecap="round" stroke-linejoin="round" stroke-miterlimit="10" cx="27" cy="31" r="10"></circle>
    <path fill="none" stroke="#000000" stroke-width="1.9467" stroke-linecap="round" stroke-linejoin="round" stroke-miterlimit="10" d="
		M33,60v-6c0-2.7617-2.2393-5-5-5h-4h-3c-2.7607,0-5-2.2383-5-5v-3c0-1.1045,0.8955-2,2-2h36c1.1045,0,2,0.8955,2,2v3
		c0,2.7617-2.2393,5-5,5h-3h-4c-2.7607,0-5,2.2383-5,5v6"></path>
    <line fill="none" stroke="#000000" stroke-width="1.9467" stroke-linecap="round" stroke-linejoin="round" stroke-miterlimit="10" x1="29" y1="60" x2="43" y2="60"></line>
  </g>
</svg>