<svg version="1.1" id="emoji" xmlns="http://www.w3.org/2000/svg" x="0" y="0" viewBox="0 0 72 72" enable-background="new 0 0 72 72" xml:space="preserve">
  <g id="grid">
    <path fill="#B3B3B3" d="M68,4v64H4V4H68 M72,0H0v72h72V0z"/>
    <path fill="none" stroke="#00A5FF" stroke-width="0.1" stroke-miterlimit="10" d="M12.923,10.9583h46.1539 c1.0621,0,1.9231,0.861,1.9231,1.9231v0v46.1538c0,1.0621-0.861,1.9231-1.9231,1.9231H12.9231 c-1.0621,0-1.9231-0.861-1.9231-1.9231l0,0V12.8813C11,11.8193,11.861,10.9583,12.923,10.9583L12.923,10.9583z"/>
    <path fill="none" stroke="#00A5FF" stroke-width="0.1" stroke-miterlimit="10" d="M18.2537,4h35.4926C54.991,4,56,5.009,56,6.2537 v59.4926C56,66.991,54.991,68,53.7463,68H18.2537C17.009,68,16,66.991,16,65.7463V6.2537C16,5.009,17.009,4,18.2537,4z"/>
    <path fill="none" stroke="#00A5FF" stroke-width="0.1" stroke-miterlimit="10" d="M68,18.2537v35.4926 C68,54.991,66.991,56,65.7463,56H6.2537C5.009,56,4,54.991,4,53.7463V18.2537C4,17.009,5.009,16,6.2537,16h59.4926 C66.991,16,68,17.009,68,18.2537z"/>
    <circle fill="none" stroke="#00A5FF" stroke-width="0.1" stroke-miterlimit="10" cx="36" cy="36" r="29"/>
  </g>
  <g id="color">
    <ellipse transform="matrix(0.7071 -0.7071 0.7071 0.7071 -4.3062 31.6067)" fill="#FCEA2B" cx="35.9995" cy="21.0014" rx="9.9997" ry="10.0004"/>
    <path fill="#F1B31C" d="M43.0703,13.9375c-2.5937-2.5937-6.2578-3.4551-9.5713-2.6016c1.6748,0.4317,3.2608,1.2911,4.5713,2.6016 c3.9063,3.9063,3.9063,10.2378,0.001,14.1421c-1.3106,1.311-2.8975,2.1724-4.5713,2.602c3.3135,0.8536,6.9766-0.0078,9.5713-2.602 C46.9766,24.1753,46.9766,17.8438,43.0703,13.9375z"/>
    <path fill="#FCEA2B" d="M52.0703,23.9297c3.9063,3.9043,3.9063,10.2363,0.001,14.1426C48.166,41.9766,39.9053,44.9043,36,41 c-3.9053-3.9062-1.9766-13.166,1.9287-17.0713S48.166,20.0234,52.0703,23.9297z"/>
    <path fill="#F1B31C" d="M52.0703,23.9375c-2.5937-2.5937-6.2578-3.4551-9.5713-2.6016c1.6748,0.4317,3.2608,1.2911,4.5713,2.6016 c3.9063,3.9063,3.9063,10.2383,0.001,14.1426c-1.3106,1.3105-2.8975,2.1719-4.5713,2.6015 c3.3135,0.8536,6.9766-0.0078,9.5713-2.6015C55.9766,34.1758,55.9766,27.8438,52.0703,23.9375z"/>
    <ellipse transform="matrix(0.7071 -0.7071 0.7071 0.7071 -14.014 28.1716)" fill="#FCEA2B" cx="26.9992" cy="31.0022" rx="9.9999" ry="10.0006"/>
    <path fill="#F1B31C" d="M34.0703,23.9375c-2.5937-2.5937-6.2578-3.4551-9.5713-2.6016c1.6748,0.4317,3.2608,1.2911,4.5713,2.6016 c3.9063,3.9063,3.9063,10.2383,0.001,14.1426c-1.3106,1.3105-2.8975,2.1719-4.5713,2.6015 c3.3135,0.8536,6.9766-0.0078,9.5713-2.6015C37.9766,34.1758,37.9766,27.8438,34.0703,23.9375z"/>
    <path fill="#FFFFFF" d="M33,60v-6c0-2.7617-2.2393-5-5-5h-4h-3c-2.7607,0-5-2.2383-5-5v-3c0-1.1045,0.8955-2,2-2h36 c1.1045,0,2,0.8955,2,2v3c0,2.7617-2.2393,5-5,5h-3h-4c-2.7607,0-5,2.2383-5,5v6"/>
  </g>
  <g id="hair"/>
  <g id="skin"/>
  <g id="skin-shadow"/>
  <g id="line">
    <path fill="none" stroke="#000000" stroke-width="2" stroke-linecap="round" stroke-linejoin="round" stroke-miterlimit="10" d="M26,21c0-5.5228,4.4772-10,10-10s10,4.4772,10,10"/>
    <path fill="none" stroke="#000000" stroke-width="2" stroke-linecap="round" stroke-linejoin="round" stroke-miterlimit="10" d="M36.0657,26.5031C37.7119,23.2387,41.0947,21,45,21c5.5225,0,10,4.4766,10,10c0,3.1787-1.4829,6.0107-3.7946,7.8423"/>
    <path fill="none" stroke="#000000" stroke-width="2" stroke-linecap="round" stroke-linejoin="round" stroke-miterlimit="10" d="M20.6391,38.7165C18.4166,36.8823,17,34.1066,17,31c0-5.5228,4.4772-10,10-10s10,4.4772,10,10 c0,3.1784-1.4828,6.0105-3.7945,7.8421"/>
    <path fill="none" stroke="#000000" stroke-width="1.9467" stroke-linecap="round" stroke-linejoin="round" stroke-miterlimit="10" d="M33,60v-6c0-2.7617-2.2393-5-5-5h-4h-3c-2.7607,0-5-2.2383-5-5v-3c0-1.1045,0.8955-2,2-2h36c1.1045,0,2,0.8955,2,2v3 c0,2.7617-2.2393,5-5,5h-3h-4c-2.7607,0-5,2.2383-5,5v6"/>
    <line fill="none" stroke="#000000" stroke-width="1.9467" stroke-linecap="round" stroke-linejoin="round" stroke-miterlimit="10" x1="29" y1="60" x2="43" y2="60"/>
  </g>
</svg>
