<svg id="emoji" xmlns="http://www.w3.org/2000/svg" viewBox="0 0 72 72">
  <g id="grid">
    <path d="M68,4V68H4V4H68m4-4H0V72H72V0Z" fill="#b3b3b3"></path>
    <path d="M12.923,10.9583H59.0769A1.9231,1.9231,0,0,1,61,12.8814V59.0352a1.9231,1.9231,0,0,1-1.9231,1.9231H12.9231A1.9231,1.9231,0,0,1,11,59.0352V12.8813A1.923,1.923,0,0,1,12.923,10.9583Z" fill="none" stroke="#00a5ff" stroke-miterlimit="10" stroke-width="0.1"></path>
    <rect x="16" y="4" width="40" height="64" rx="2.2537" fill="none" stroke="#00a5ff" stroke-miterlimit="10" stroke-width="0.1"></rect>
    <rect x="16" y="4" width="40" height="64" rx="2.2537" transform="translate(72) rotate(90)" fill="none" stroke="#00a5ff" stroke-miterlimit="10" stroke-width="0.1"></rect>
    <circle cx="36" cy="36" r="29" fill="none" stroke="#00a5ff" stroke-miterlimit="10" stroke-width="0.1"></circle>
  </g>
  <g id="color">
    <polyline fill="#f4aa41" points="55,17 55,11 17,11 17,17 	" stroke="none"></polyline>
    <path fill="#f4aa41" d="M45,60c8.2842,0,15-6.7158,15-15V22c0-2.7612-2.2383-5-5-5H17c-2.7617,0-5,2.2388-5,5v23
		c0,8.2842,6.7158,15,15,15H45z" stroke="none"></path>
    <path fill="#fcea2b" d="M35,17v14c0,2.7617,2.2393,5,5,5c2.7617,0,5-2.2383,5-5v11c0,1.6563,1.3428,3,3,3c1.6572,0,3-1.3437,3-3V23
		c0,1.6567,1.3428,3,3,3c1.6563,0,3-1.3433,3-3v-5.5781C56.3867,17.1538,55.7119,17,55,17H35h-2v-6h22v6" stroke="none"></path>
  </g>
  <g id="hair">
  </g>
  <g id="skin">
  </g>
  <g id="skin-shadow">
  </g>
  <g id="line">
    <polyline fill="none" stroke="#000000" stroke-width="2" stroke-linecap="round" stroke-linejoin="round" stroke-miterlimit="10" points="
		55,17 55,11 17,11 17,17 	"></polyline>
    <path fill="none" stroke="#000000" stroke-width="2" stroke-linecap="round" stroke-linejoin="round" stroke-miterlimit="10" d="
		M51,42c0,1.6563-1.3428,3-3,3c-1.6572,0-3-1.3437-3-3"></path>
    <path fill="none" stroke="#000000" stroke-width="2" stroke-linecap="round" stroke-linejoin="round" stroke-miterlimit="10" d="
		M51,23c0,1.6567,1.3428,3,3,3c1.6563,0,3-1.3433,3-3v-5"></path>
    <path fill="none" stroke="#000000" stroke-width="2" stroke-linecap="round" stroke-linejoin="round" stroke-miterlimit="10" d="
		M45,31c0,2.7617-2.2383,5-5,5c-2.7607,0-5-2.2383-5-5"></path>
    <line fill="none" stroke="#000000" stroke-width="2" stroke-linecap="round" stroke-linejoin="round" stroke-miterlimit="10" x1="45" y1="42" x2="45" y2="31"></line>
    <line fill="none" stroke="#000000" stroke-width="2" stroke-linecap="round" stroke-linejoin="round" stroke-miterlimit="10" x1="51" y1="42" x2="51" y2="23"></line>
    <line fill="none" stroke="#000000" stroke-width="2" stroke-linecap="round" stroke-linejoin="round" stroke-miterlimit="10" x1="35" y1="31" x2="35" y2="17"></line>
    <line fill="none" stroke="#000000" stroke-width="2" stroke-linecap="round" stroke-linejoin="round" stroke-miterlimit="10" x1="33" y1="17" x2="33" y2="11"></line>
    <path fill="none" stroke="#000000" stroke-width="2" stroke-linecap="round" stroke-linejoin="round" stroke-miterlimit="10" d="
		M45,60c8.2842,0,15-6.7158,15-15V22c0-2.7612-2.2383-5-5-5H17c-2.7617,0-5,2.2388-5,5v23c0,8.2842,6.7158,15,15,15H45z"></path>
  </g>
</svg>