<svg id="emoji" viewBox="0 0 72 72" xmlns="http://www.w3.org/2000/svg">
  <g id="grid">
    <path fill="#b3b3b3" d="m68,4v64H4V4h64M72,0H0v72h72V0Z"/>
    <path fill="none" stroke="#00a5ff" stroke-miterlimit="10" stroke-width="0.1" d="m12.923,10.9583h46.1539c1.0621,0,1.9231.861,1.9231,1.9231h0v46.1538c0,1.0621-.861,1.9231-1.9231,1.9231H12.9231c-1.0621,0-1.9231-.861-1.9231-1.9231h0V12.8813c0-1.062.861-1.923,1.923-1.923h0Z"/>
    <rect x="16" y="4" rx="2.2537" ry="2.2537" width="40" height="64" fill="none" stroke="#00a5ff" stroke-miterlimit="10" stroke-width="0.1"/>
    <rect x="4" y="16" rx="2.2537" ry="2.2537" width="64" height="40" fill="none" stroke="#00a5ff" stroke-miterlimit="10" stroke-width="0.1"/>
    <circle cx="36" cy="36" r="29" fill="none" stroke="#00a5ff" stroke-miterlimit="10" stroke-width="0.1"/>
  </g>
  <g id="color">
    <path fill="#fff" d="m57.5367,18.0513l-16.5406,2.5102-2.0738.4311-31.9223,5.0074c-1.1045,0-2,.8965-2,2v12h1c2.7617,0,5-2.2383,5-4.999s2.2383-5.001,5-5.001,5,2.2393,5,5.001,2.2383,4.999,5,4.999,5-2.2383,5-4.999,2.2383-5.001,5-5.001,5,2.2393,5,5.001,2.2383,4.999,5,4.999,5-2.2383,5-4.999,2.2383-5.001,5-5.001,5,2.2393,5,5.001,2.2383,4.999,5,4.999h1v-12c0-4.7112-3.2599-8.6632-7.647-9.7215-.4344-.1048-1.3618-.1812-1.8163-.2272"/>
    <circle cx="49.5" cy="18.0005" r="5" fill="#ea5a47"/>
    <path fill="#fcea2b" d="m67,39v20c0,1.1055-.8955,2-2,2H7c-1.1045,0-2-.8945-2-2v-20"/>
    <path fill="#fcea2b" d="m67,40h-1c-2.7607,0-5-2.2383-5-5s-2.2393-5-5-5-5,2.2383-5,5-2.2393,5-5,5-5-2.2383-5-5-2.2393-5-5-5-5,2.2383-5,5-2.2393,5-5,5-5-2.2383-5-5-2.2393-5-5-5-5,2.2383-5,5-2.2393,5-5,5h-1"/>
  </g>
  <g id="line">
    <path fill="none" stroke="#000" stroke-linecap="round" stroke-linejoin="round" stroke-width="2" d="m67,28v31c0,1.1055-.8955,2-2,2H7c-1.1045,0-2-.8945-2-2v-31c0-1.1035.8955-2,2-2l33.9961-5.4385"/>
    <path fill="none" stroke="#000" stroke-linecap="round" stroke-linejoin="round" stroke-width="2" d="m58.0186,18.0513c5.0439.5102,8.9814,4.771,8.9814,9.9487"/>
    <path fill="none" stroke="#000" stroke-linecap="round" stroke-linejoin="round" stroke-width="2" d="m5,40h1c2.7617,0,5-2.2383,5-4.999s2.2383-5.001,5-5.001,5,2.2393,5,5.001,2.2383,4.999,5,4.999,5-2.2383,5-4.999,2.2383-5.001,5-5.001,5,2.2393,5,5.001,2.2383,4.999,5,4.999,5-2.2383,5-4.999,2.2383-5.001,5-5.001,5,2.2393,5,5.001,2.2383,4.999,5,4.999h1"/>
    <line x1="5" x2="67" y1="48" y2="48" fill="none" stroke="#000" stroke-linecap="round" stroke-linejoin="round" stroke-width="2"/>
    <line x1="5" x2="67" y1="52" y2="52" fill="none" stroke="#000" stroke-linecap="round" stroke-linejoin="round" stroke-width="2"/>
    <circle cx="49.5" cy="18.0005" r="5" fill="none" stroke="#000" stroke-linecap="round" stroke-linejoin="round" stroke-width="2"/>
    <path fill="none" stroke="#000" stroke-linecap="round" stroke-linejoin="round" stroke-width="2" d="m49.5,16c0-5.5229,4.4766-10,10-10"/>
  </g>
</svg>
