<svg id="emoji" viewBox="0 0 72 72" xmlns="http://www.w3.org/2000/svg">
  <g id="grid">
    <path fill="#b3b3b3" d="M68,4V68H4V4H68m4-4H0V72H72V0Z"/>
    <path fill="none" stroke="#00a5ff" stroke-miterlimit="10" stroke-width="0.1" d="M12.923,10.9583H59.0769A1.9231,1.9231,0,0,1,61,12.8814V59.0352a1.9231,1.9231,0,0,1-1.9231,1.9231H12.9231A1.9231,1.9231,0,0,1,11,59.0352V12.8813A1.923,1.923,0,0,1,12.923,10.9583Z"/>
    <rect x="16" y="4" rx="2.2537" width="40" height="64" fill="none" stroke="#00a5ff" stroke-miterlimit="10" stroke-width="0.1"/>
    <rect x="16" y="4" rx="2.2537" width="40" height="64" transform="translate(72) rotate(90)" fill="none" stroke="#00a5ff" stroke-miterlimit="10" stroke-width="0.1"/>
    <circle cx="36" cy="36" r="29" fill="none" stroke="#00a5ff" stroke-miterlimit="10" stroke-width="0.1"/>
  </g>
  <g id="color">
    <path fill="#fcea2b" stroke="none" d="M11,37c0,1.1045,50,2.1045,50,1v-7h-1V20c0-2.7612-2.2393-5-5-5H17c-2.7607,0-5,2.2388-5,5v11h-1V37z"/>
    <path fill="#FFFFFF" stroke="none" d="M12,21.9238c1.9443-1.3081,4.6025-1.1064,6.3213,0.6123c1.9531,1.9522,5.1191,1.9522,7.0723,0 c1.9521-1.9521,5.1181-1.9521,7.0703,0c1.9531,1.9522,5.1191,1.9522,7.0722,0c1.9522-1.9521,5.1182-1.9521,7.0703,0 c1.9532,1.9522,5.1192,1.9522,7.0723,0c1.7188-1.7187,4.377-1.9204,6.3213-0.6123V20c0-2.7612-2.2393-5-5-5H17 c-2.7607,0-5,2.2388-5,5V21.9238z"/>
    <path fill="#fcea2b" stroke="none" d="M5,60c0,1.1045,0.8955,2,2,2h58c1.1045,0,2-0.8955,2-2V41c0-2.7617-2.2393-5-5-5H10 c-2.7607,0-5,2.2383-5,5V60z"/>
    <circle cx="36" cy="12" r="3" fill="#ea5a47" stroke="none"/>
    <path fill="#FFFFFF" stroke="none" stroke-linecap="round" stroke-linejoin="round" stroke-miterlimit="10" stroke-width="2" d="M11.251,45.5361c1.9521,1.9522,5.1181,1.9522,7.0703,0c1.9531-1.9521,5.1191-1.9521,7.0723,0 c1.9521,1.9522,5.1181,1.9522,7.0703,0c1.9531-1.9521,5.1191-1.9521,7.0722,0c1.9522,1.9522,5.1182,1.9522,7.0703,0 c1.9532-1.9521,5.1192-1.9521,7.0723,0c1.9522,1.9522,5.1182,1.9522,7.0703,0c1.6992-1.6982,4.3135-1.915,6.251-0.6591V41 c0-2.7617-2.2393-5-5-5H10c-2.7607,0-5,2.2383-5,5v3.877C6.9375,43.6211,9.5518,43.8379,11.251,45.5361z"/>
  </g>
  <g id="hair"/>
  <g id="skin"/>
  <g id="skin-shadow"/>
  <g id="line">
    <circle cx="36" cy="12" r="3" fill="none" stroke="#000000" stroke-linecap="round" stroke-linejoin="round" stroke-miterlimit="10" stroke-width="2"/>
    <path fill="none" stroke="#000000" stroke-linecap="round" stroke-linejoin="round" stroke-miterlimit="10" stroke-width="2" d="M36,10.75c0-2.7617,2.2383-5,5-5"/>
    <path fill="none" stroke="#000000" stroke-linecap="round" stroke-linejoin="round" stroke-miterlimit="10" stroke-width="2" d="M11.251,45.5361c1.9521,1.9522,5.1181,1.9522,7.0703,0c1.9531-1.9521,5.1191-1.9521,7.0723,0 c1.9521,1.9522,5.1181,1.9522,7.0703,0c1.9531-1.9521,5.1191-1.9521,7.0722,0c1.9522,1.9522,5.1182,1.9522,7.0703,0 c1.9532-1.9521,5.1192-1.9521,7.0723,0c1.9522,1.9522,5.1182,1.9522,7.0703,0c1.6992-1.6982,4.3135-1.915,6.251-0.6591V41 c0-2.7617-2.2393-5-5-5H10c-2.7607,0-5,2.2383-5,5v3.877C6.9375,43.6211,9.5518,43.8379,11.251,45.5361z"/>
    <path fill="none" stroke="#000000" stroke-linecap="round" stroke-linejoin="round" stroke-miterlimit="10" stroke-width="2" d="M5,44.877V60c0,1.1045,0.8955,2,2,2h58c1.1045,0,2-0.8955,2-2V44.877"/>
    <path fill="none" stroke="#000000" stroke-linecap="round" stroke-linejoin="round" stroke-miterlimit="10" stroke-width="2" d="M11.251,45.5361c1.9521,1.9522,5.1181,1.9522,7.0703,0c1.9531-1.9521,5.1191-1.9521,7.0723,0 c1.9521,1.9522,5.1181,1.9522,7.0703,0c1.9531-1.9521,5.1191-1.9521,7.0722,0c1.9522,1.9522,5.1182,1.9522,7.0703,0 c1.9532-1.9521,5.1192-1.9521,7.0723,0c1.9522,1.9522,5.1182,1.9522,7.0703,0c1.6992-1.6982,4.3135-1.915,6.251-0.6591V41 c0-2.7617-2.2393-5-5-5H10c-2.7607,0-5,2.2383-5,5v3.877C6.9375,43.6211,9.5518,43.8379,11.251,45.5361z"/>
    <line x1="60" x2="60" y1="21.9238" y2="32" fill="none" stroke="#000000" stroke-linecap="round" stroke-linejoin="round" stroke-miterlimit="10" stroke-width="2"/>
    <line x1="12" x2="12" y1="21.9238" y2="32" fill="none" stroke="#000000" stroke-linecap="round" stroke-linejoin="round" stroke-miterlimit="10" stroke-width="2"/>
    <path fill="none" stroke="#000000" stroke-linecap="round" stroke-linejoin="round" stroke-miterlimit="10" stroke-width="2" d="M12,21.9238c1.9443-1.3081,4.6025-1.1064,6.3213,0.6123c1.9531,1.9522,5.1191,1.9522,7.0723,0 c1.9521-1.9521,5.1181-1.9521,7.0703,0c1.9531,1.9522,5.1191,1.9522,7.0722,0c1.9522-1.9521,5.1182-1.9521,7.0703,0 c1.9532,1.9522,5.1192,1.9522,7.0723,0c1.7188-1.7187,4.377-1.9204,6.3213-0.6123V20c0-2.7612-2.2393-5-5-5H17 c-2.7607,0-5,2.2388-5,5V21.9238z"/>
  </g>
</svg>
