<svg id="emoji" xmlns="http://www.w3.org/2000/svg" viewBox="0 0 72 72">
  <g id="grid">
    <path d="M68,4V68H4V4H68m4-4H0V72H72V0Z" fill="#b3b3b3"/>
    <path d="M12.923,10.9583H59.0769A1.9231,1.9231,0,0,1,61,12.8814V59.0352a1.9231,1.9231,0,0,1-1.9231,1.9231H12.9231A1.9231,1.9231,0,0,1,11,59.0352V12.8813A1.923,1.923,0,0,1,12.923,10.9583Z" fill="none" stroke="#00a5ff" stroke-miterlimit="10" stroke-width="0.1"/>
    <rect x="16" y="4" width="40" height="64" rx="2.2537" ry="2.2537" fill="none" stroke="#00a5ff" stroke-miterlimit="10" stroke-width="0.1"/>
    <rect x="16" y="4" width="40" height="64" rx="2.2537" ry="2.2537" transform="translate(72 0) rotate(90)" fill="none" stroke="#00a5ff" stroke-miterlimit="10" stroke-width="0.1"/>
    <circle cx="36" cy="36" r="29" fill="none" stroke="#00a5ff" stroke-miterlimit="10" stroke-width="0.1"/>
  </g>
  <g id="color"/>
  <g id="skin">
    <path d="M30.3742,41.4385H43.94a10.3091,10.3091,0,0,0-2.3566-6.8293,9.873,9.873,0,0,0-6.0846-3.4484,9.6907,9.6907,0,0,0-5.1247.6923Z" fill="#fcea2b" stroke="#fcea2b" stroke-miterlimit="10" stroke-width="2"/>
  </g>
  <g id="line">
    <path d="M44.6378,41.4385a15.496,15.496,0,0,0-2.7266-6.877,9.4984,9.4984,0,0,0-.84-.944,10.6167,10.6167,0,0,0-7.16-2.806h-.0635a10.8889,10.8889,0,0,0-3.6845.6608" fill="none" stroke="#000" stroke-linecap="round" stroke-linejoin="round" stroke-width="2"/>
  </g>
</svg>
