<svg id="emoji" xmlns="http://www.w3.org/2000/svg" viewBox="0 0 72 72">
  <g id="grid">
    <path d="M68,4V68H4V4H68m4-4H0V72H72V0Z" fill="#b3b3b3"/>
    <path d="M12.923,10.9583H59.077A1.923,1.923,0,0,1,61,12.8813V59.0352a1.9231,1.9231,0,0,1-1.9231,1.9231H12.9231A1.9231,1.9231,0,0,1,11,59.0352V12.8813a1.923,1.923,0,0,1,1.923-1.923Z" fill="none" stroke="#00a5ff" stroke-miterlimit="10" stroke-width="0.1"/>
    <rect x="16" y="4" width="40" height="64" rx="2.2537" ry="2.2537" fill="none" stroke="#00a5ff" stroke-miterlimit="10" stroke-width="0.1"/>
    <rect x="16" y="4" width="40" height="64" rx="2.2537" ry="2.2537" transform="translate(72 0) rotate(90)" fill="none" stroke="#00a5ff" stroke-miterlimit="10" stroke-width="0.1"/>
    <circle cx="36" cy="36" r="29" fill="none" stroke="#00a5ff" stroke-miterlimit="10" stroke-width="0.1"/>
  </g>
  <g id="color"/>
  <g id="hair">
    <path d="M27.1565,43.8968H43.8776c.0746-1.2492.9659-2.542.9659-3.8353,0-6-5-12-14-12-1.32,0-2.5424.949-3.687,1.188Z" fill="#f4aa41" stroke="#f4aa41" stroke-miterlimit="10" stroke-width="2"/>
  </g>
  <g id="skin">
    <path d="M27.1565,43.9087H40.5724c-.7189-3.9874-1.667-7.377-1.667-7.377-5.7976,0-8.4475,2.018-11.7489,2.1243Z" fill="#fcea2b" stroke="#fcea2b" stroke-miterlimit="10" stroke-width="2"/>
  </g>
  <g id="line">
    <path d="M44.7321,43.9385c.0763-1.262.1114-2.5694.1114-3.877,0-6-5-12-14-12a17.9318,17.9318,0,0,0-3.687.3816" fill="none" stroke="#000" stroke-linecap="round" stroke-linejoin="round" stroke-width="2"/>
    <path d="M41.5162,43.9385a34.78,34.78,0,0,0-2.6727-7.877c-5.7613,0-8.4143,1.5478-11.687,1.6716" fill="none" stroke="#000" stroke-linecap="round" stroke-linejoin="round" stroke-width="2"/>
  </g>
</svg>
