<svg id="emoji" viewBox="0 0 72 72" xmlns="http://www.w3.org/2000/svg">
  <g id="grid">
    <path fill="#b3b3b3" d="M68,4V68H4V4H68m4-4H0V72H72Z"/>
    <rect x="11" y="10.9601" rx="1.92" width="50" height="50" fill="none" stroke="#00a5ff" stroke-miterlimit="10" stroke-width="0.1"/>
    <rect x="16" y="4.0001" rx="2.25" width="40" height="64" fill="none" stroke="#00a5ff" stroke-miterlimit="10" stroke-width="0.1"/>
    <rect x="4" y="16.0001" rx="2.25" width="64" height="40" fill="none" stroke="#00a5ff" stroke-miterlimit="10" stroke-width="0.1"/>
    <circle cx="36" cy="36.0001" r="29" fill="none" stroke="#00a5ff" stroke-miterlimit="10" stroke-width="0.1"/>
  </g>
  <g id="color">
    <path fill="#d0cfce" stroke="#d0cfce" stroke-miterlimit="10" stroke-width="2" d="M16,53.86H53.82C54,51,56,48.11,56,45.19c0-13.57-11.31-27.14-31.66-27.14-3,0-5.75,2.14-8.34,2.68Z"/>
    <path fill="#fcea2b" stroke="#fcea2b" stroke-miterlimit="10" stroke-width="2" d="M16,53.89H46.34c-1.63-9-3.77-16.69-3.77-16.69C29.46,37.2,23.47,41.77,16,42Z"/>
  </g>
  <g id="line">
    <path fill="none" stroke="#000" stroke-linecap="round" stroke-linejoin="round" stroke-width="2" d="M55.75,54c.17-2.85.25-5.81.25-8.76C56,31.67,44.69,18.1,24.34,18.1a40.5956,40.5956,0,0,0-8.34.86"/>
    <path fill="none" stroke="#000" stroke-linecap="round" stroke-linejoin="round" stroke-width="2" d="M48.48,54a78.845,78.845,0,0,0-6-17.81c-13,0-19,3.5-26.43,3.78"/>
  </g>
</svg>
