<svg id="emoji" viewBox="0 0 72 72" xmlns="http://www.w3.org/2000/svg">
  <g id="grid">
    <path fill="#b3b3b3" d="M68,4V68H4V4H68m4-4H0V72H72Z"/>
    <rect x="11" y="10.9601" rx="1.92" width="50" height="50" fill="none" stroke="#00a5ff" stroke-miterlimit="10" stroke-width="0.1"/>
    <rect x="16" y="4.0001" rx="2.25" width="40" height="64" fill="none" stroke="#00a5ff" stroke-miterlimit="10" stroke-width="0.1"/>
    <rect x="4" y="16.0001" rx="2.25" width="64" height="40" fill="none" stroke="#00a5ff" stroke-miterlimit="10" stroke-width="0.1"/>
    <circle cx="36" cy="36.0001" r="29" fill="none" stroke="#00a5ff" stroke-miterlimit="10" stroke-width="0.1"/>
  </g>
  <g id="color">
    <path fill="#fcea2b" stroke="#fcea2b" stroke-miterlimit="10" stroke-width="2" d="M16.9,51H54.09a28.31,28.31,0,0,0-6.46-18.7A27.08,27.08,0,0,0,31,22.85a26.5,26.5,0,0,0-14,1.9Z"/>
  </g>
  <g id="line">
    <path fill="none" stroke="#000" stroke-linecap="round" stroke-linejoin="round" stroke-width="2" d="M56,51c-1.12-6.83-3.55-13.82-7.47-18.85a28.3839,28.3839,0,0,0-2.31-2.59c-8-7.83-18.82-7.71-19.63-7.69h-.17a29.9986,29.9986,0,0,0-10.1,1.81"/>
  </g>
</svg>
