<svg id="emoji" xmlns="http://www.w3.org/2000/svg" viewBox="0 0 72 72">
  <g id="grid">
    <path d="M68,4V68H4V4H68m4-4H0V72H72V0Z" fill="#b3b3b3"/>
    <path d="M12.9231,10.9583H59.077A1.923,1.923,0,0,1,61,12.8813V59.0352a1.9231,1.9231,0,0,1-1.9231,1.9231H12.9231A1.9231,1.9231,0,0,1,11,59.0352V12.8814A1.9231,1.9231,0,0,1,12.9231,10.9583Z" fill="none" stroke="#00a5ff" stroke-miterlimit="10" stroke-width="0.1"/>
    <rect x="16" y="4" width="40" height="64" rx="2.2537" ry="2.2537" fill="none" stroke="#00a5ff" stroke-miterlimit="10" stroke-width="0.1"/>
    <rect x="16" y="4" width="40" height="64" rx="2.2537" ry="2.2537" transform="translate(72 0) rotate(90)" fill="none" stroke="#00a5ff" stroke-miterlimit="10" stroke-width="0.1"/>
    <circle cx="36" cy="36" r="29" fill="none" stroke="#00a5ff" stroke-miterlimit="10" stroke-width="0.1"/>
  </g>
  <g id="color"/>
  <g id="hair">
    <path d="M26.15,43.7463H45.14c.0161-.2582.9621-.5278.9208-.8114a4.2113,4.2113,0,0,0-1.646-2.72,4.1147,4.1147,0,0,0,.695-4.2694,3.9155,3.9155,0,0,0-2.3562-2.0736,3.5927,3.5927,0,0,0-1.4689-3.3222,3.3754,3.3754,0,0,0-4.0753.2575,3.6761,3.6761,0,0,0-2.9626-2.418,3.81,3.81,0,0,0-3.2818,1.405A5.03,5.03,0,0,0,26.15,28.7828Z" fill="#f4aa41" stroke="#f4aa41" stroke-miterlimit="10" stroke-width="2"/>
  </g>
  <g id="skin">
    <path d="M26.1175,43.7463H39.6958a6.5541,6.5541,0,0,0-1.3942-5.4024,8.2022,8.2022,0,0,1-1.322.8222,7.6685,7.6685,0,0,1-2.2732.7417c-2.2863.304-3.0317-1.2162-4.8026-.652a9.1038,9.1038,0,0,1-1.598.6358,4.8053,4.8053,0,0,1-2.1629-.0965Z" fill="#fcea2b" stroke="#fcea2b" stroke-miterlimit="10" stroke-width="2"/>
  </g>
  <g id="line">
    <path d="M46.091,43.7463a3.9045,3.9045,0,0,0-.0306-.8114,4.2113,4.2113,0,0,0-1.646-2.72,4.1147,4.1147,0,0,0,.695-4.2694,3.9155,3.9155,0,0,0-2.3562-2.0736,3.5927,3.5927,0,0,0-1.4689-3.3222,3.3754,3.3754,0,0,0-4.0753.2575,3.6761,3.6761,0,0,0-2.9626-2.418,3.81,3.81,0,0,0-3.2818,1.405,4.7853,4.7853,0,0,0-5.0021-1.2584" fill="none" stroke="#000" stroke-linecap="round" stroke-linejoin="round" stroke-width="2"/>
    <path d="M40.5182,43.7463A25.0763,25.0763,0,0,0,38.2014,37.47a4.1911,4.1911,0,0,1-6.9654.704,3.16,3.16,0,0,1-5.1149.1075l-.0036.0089" fill="none" stroke="#000" stroke-linecap="round" stroke-linejoin="round" stroke-width="2"/>
  </g>
</svg>
