<svg id="emoji" xmlns="http://www.w3.org/2000/svg" viewBox="0 0 72 72">
  <g id="grid">
    <path fill="#B3B3B3" d="M68,4v64H4V4H68 M72,0H0v72h72V0z"/>
    <path fill="none" stroke="#00A5FF" stroke-width="0.1" stroke-miterlimit="10" d="M12.923,10.9583h46.1539 c1.0621,0,1.9231,0.861,1.9231,1.9231v0v46.1538c0,1.0621-0.861,1.9231-1.9231,1.9231H12.9231 c-1.0621,0-1.9231-0.861-1.9231-1.9231l0,0V12.8813C11,11.8193,11.861,10.9583,12.923,10.9583L12.923,10.9583z"/>
    <path fill="none" stroke="#00A5FF" stroke-width="0.1" stroke-miterlimit="10" d="M18.2537,4h35.4926C54.991,4,56,5.009,56,6.2537 v59.4926C56,66.991,54.991,68,53.7463,68H18.2537C17.009,68,16,66.991,16,65.7463V6.2537C16,5.009,17.009,4,18.2537,4z"/>
    <path fill="none" stroke="#00A5FF" stroke-width="0.1" stroke-miterlimit="10" d="M68,18.2537v35.4926 C68,54.991,66.991,56,65.7463,56H6.2537C5.009,56,4,54.991,4,53.7463V18.2537C4,17.009,5.009,16,6.2537,16h59.4926 C66.991,16,68,17.009,68,18.2537z"/>
    <circle fill="none" stroke="#00A5FF" stroke-width="0.1" stroke-miterlimit="10" cx="36" cy="36" r="29"/>
  </g>
  <g id="color">
    <path fill="#FFA7C0" d="M60.5,25c0-7.4438-6.0557-13.5-13.5-13.5c-4.4033,0-8.4844,2.1377-11,5.6724 C33.4844,13.6377,29.4038,11.5,25,11.5c-7.4438,0-13.5,6.0562-13.5,13.5c0,2.7285,0.8403,5.4082,2.3833,7.6504l-0.0347,0.0273 l20.866,25.8619h2.5708l20.2273-25.0695l0.668-0.8369l-0.0352-0.0244C59.6699,30.3755,60.5,27.7119,60.5,25z"/>
    <polyline fill="#61B2E4" points="19.8211,52.1789 20.0962,58.9038 14.1071,64.8929 13.832,58.168 19.8211,52.1789"/>
    <polyline fill="#92D3F5" points="7.8823,57.668 14.332,57.668 20.3211,51.6789 13.8713,51.6789 7.8823,57.668"/>
    <polygon fill="#92D3F5" points="68.1798,3.6284 66.9243,8.4798 65.6689,13.3311 62.073,9.7352 58.477,6.1393 63.3284,4.8839"/>
  </g>
  <g id="hair"/>
  <g id="skin"/>
  <g id="skin-shadow"/>
  <g id="line">
    <g id="line_1_">
      <path fill="none" stroke="#000000" stroke-width="2" stroke-linecap="round" stroke-linejoin="round" stroke-miterlimit="10" d="M28.2632,48.9508L36,58.5397l20.7339-25.6975l-0.0043-0.0034C58.4597,30.6942,59.5,27.9699,59.5,25 c0-6.9036-5.5964-12.5-12.5-12.5c-4.7533,0-8.8861,2.6536-11,6.5598C33.8861,15.1536,29.7533,12.5,25,12.5 c-6.9036,0-12.5,5.5964-12.5,12.5c0,2.9699,1.0403,5.6942,2.7703,7.8387l-0.0043,0.0034l7.8527,9.7326"/>
    </g>
    <line fill="none" stroke="#000000" stroke-width="2" stroke-linecap="round" stroke-linejoin="round" stroke-miterlimit="10" x1="34.5" y1="37.5" x2="21" y2="51"/>
    <line fill="none" stroke="#000000" stroke-width="2" stroke-linecap="round" stroke-linejoin="round" stroke-miterlimit="10" x1="62.0919" y1="9.9081" x2="58" y2="14"/>
    <polygon fill="none" stroke="#000000" stroke-width="2" stroke-linecap="round" stroke-linejoin="round" stroke-miterlimit="10" points="20.5962,51.4541 13.6464,51.4541 7.1931,57.9074 14.1429,57.9074 14.1429,64.8571 20.5962,58.4038"/>
    <polygon fill="none" stroke="#000000" stroke-width="2" stroke-linecap="round" stroke-linejoin="round" stroke-miterlimit="10" points="68.1798,3.6284 66.9243,8.4798 65.6689,13.3311 62.073,9.7352 58.477,6.1393 63.3284,4.8839"/>
  </g>
</svg>
