<svg id="emoji" viewBox="0 0 72 72" xmlns="http://www.w3.org/2000/svg">
  <g id="grid">
    <path fill="#B3B3B3" d="M68,4v64H4V4H68 M72,0H0v72h72V0z"/>
    <path fill="none" stroke="#00A5FF" stroke-miterlimit="10" stroke-width="0.1" d="M12.923,10.9583h46.1539 c1.0621,0,1.9231,0.861,1.9231,1.9231v0v46.1538c0,1.0621-0.861,1.9231-1.9231,1.9231H12.9231 c-1.0621,0-1.9231-0.861-1.9231-1.9231l0,0V12.8813C11,11.8193,11.861,10.9583,12.923,10.9583L12.923,10.9583z"/>
    <path fill="none" stroke="#00A5FF" stroke-miterlimit="10" stroke-width="0.1" d="M18.2537,4h35.4926C54.991,4,56,5.009,56,6.2537 v59.4926C56,66.991,54.991,68,53.7463,68H18.2537C17.009,68,16,66.991,16,65.7463V6.2537C16,5.009,17.009,4,18.2537,4z"/>
    <path fill="none" stroke="#00A5FF" stroke-miterlimit="10" stroke-width="0.1" d="M68,18.2537v35.4926 C68,54.991,66.991,56,65.7463,56H6.2537C5.009,56,4,54.991,4,53.7463V18.2537C4,17.009,5.009,16,6.2537,16h59.4926 C66.991,16,68,17.009,68,18.2537z"/>
    <circle cx="36" cy="36" r="29" fill="none" stroke="#00A5FF" stroke-miterlimit="10" stroke-width="0.1"/>
  </g>
  <g id="color">
    <path fill="#fff" d="m17.09 50.75c-3.184-4.073-5.088-9.191-5.088-14.75 0-13.23 10.77-24 24-24s24 10.77 24 24-10.77 24-24 24c-1.955 0-3.855-0.2406-5.676-0.6839-5.919-1.481-10.33-4.341-13.24-8.567z"/>
    <circle cx="23.48" cy="54.97" r="5" fill="#fff"/>
    <circle cx="-15.8" cy="62.94" r="2.5" transform="scale(-1 1)" fill="#fff"/>
  </g>
  <g id="hair"/>
  <g id="skin"/>
  <g id="skin-shadow"/>
  <g id="line">
    <path fill="none" stroke="#000" stroke-linecap="round" stroke-miterlimit="10" stroke-width="2" d="m31.54 58.56c1.442 0.2858 2.93 0.4391 4.455 0.4391 12.68 0 23-10.32 23-23s-10.32-23-23-23-23 10.32-23 23c0 4.913 1.552 9.467 4.187 13.21"/>
    <circle cx="26.79" cy="36" r="2"/>
    <circle cx="36" cy="36" r="2"/>
    <circle cx="45.21" cy="36" r="2"/>
    <circle cx="-4.026" cy="64.73" r="2.5" transform="scale(-1 1) rotate(10.539)" fill="none" stroke="#000" stroke-miterlimit="10" stroke-width="2"/>
    <circle cx="-13.58" cy="57.88" r="4.981" transform="scale(-1 1) rotate(10.539)" fill="none" stroke="#000" stroke-miterlimit="10" stroke-width="2"/>
  </g>
</svg>
