<svg id="emoji" xmlns="http://www.w3.org/2000/svg" viewBox="0 0 72 72">
  <g id="grid">
    <path fill="#B3B3B3" d="M68,4v64H4V4H68 M72,0H0v72h72V0z"/>
    <path fill="none" stroke="#00A5FF" stroke-width="0.1" stroke-miterlimit="10" d="M12.923,10.9583h46.1539 c1.0621,0,1.9231,0.861,1.9231,1.9231v0v46.1538c0,1.0621-0.861,1.9231-1.9231,1.9231H12.9231 c-1.0621,0-1.9231-0.861-1.9231-1.9231l0,0V12.8813C11,11.8193,11.861,10.9583,12.923,10.9583L12.923,10.9583z"/>
    <path fill="none" stroke="#00A5FF" stroke-width="0.1" stroke-miterlimit="10" d="M18.2537,4h35.4926C54.991,4,56,5.009,56,6.2537 v59.4926C56,66.991,54.991,68,53.7463,68H18.2537C17.009,68,16,66.991,16,65.7463V6.2537C16,5.009,17.009,4,18.2537,4z"/>
    <path fill="none" stroke="#00A5FF" stroke-width="0.1" stroke-miterlimit="10" d="M68,18.2537v35.4926 C68,54.991,66.991,56,65.7463,56H6.2537C5.009,56,4,54.991,4,53.7463V18.2537C4,17.009,5.009,16,6.2537,16h59.4926 C66.991,16,68,17.009,68,18.2537z"/>
    <circle fill="none" stroke="#00A5FF" stroke-width="0.1" stroke-miterlimit="10" cx="36" cy="36" r="29"/>
  </g>
  <g id="color">
    <path fill="#EA5A47" d="M36,16.54c-8.293,0-16.662-4.3137-16.662-4.3137c-0.9777-0.504-1.3268-0.1374-0.7757,0.8146 c0,0,5.9136,10.2144,17.4377,10.1261c11.5242,0.0883,17.4377-10.1261,17.4377-10.1261c0.5512-0.952,0.2021-1.3186-0.7757-0.8146 C52.662,12.2263,44.2931,16.54,36,16.54z"/>
    <path fill="#EA5A47" d="M36,55.46c8.2931,0,16.662,4.3137,16.662,4.3137c0.9778,0.504,1.3269,0.1374,0.7757-0.8145 c0,0-5.9135-10.2145-17.4377-10.1262c-11.5241-0.0883-17.4377,10.1262-17.4377,10.1262c-0.5511,0.9519-0.202,1.3185,0.7757,0.8145 C19.338,59.7737,27.707,55.46,36,55.46z"/>
    <path fill="#EA5A47" d="M55.46,36c0-8.293,4.3137-16.662,4.3137-16.662c0.504-0.9777,0.1374-1.3268-0.8146-0.7756 c0,0-10.2144,5.9135-10.1261,17.4376c-0.0883,11.5242,10.1261,17.4377,10.1261,17.4377c0.952,0.5512,1.3186,0.2021,0.8146-0.7756 C59.7737,52.6619,55.46,44.2931,55.46,36z"/>
    <path fill="#EA5A47" d="M16.54,36c0,8.2931-4.3137,16.6621-4.3137,16.6621c-0.504,0.9777-0.1374,1.3268,0.8145,0.7756 c0,0,10.2145-5.9135,10.1262-17.4377c0.0883-11.5241-10.1262-17.4376-10.1262-17.4376c-0.9519-0.5512-1.3185-0.2021-0.8145,0.7756 C12.2266,19.3379,16.54,27.7069,16.54,36z"/>
  </g>
  <g id="line">
    <path fill="none" stroke="#000000" stroke-width="2" stroke-linecap="round" stroke-miterlimit="10" d="M36,16.54 c-8.293,0-16.662-4.3137-16.662-4.3137c-0.9777-0.504-1.3268-0.1374-0.7757,0.8146c0,0,5.9136,10.2144,17.4377,10.1261 c11.5242,0.0883,17.4377-10.1261,17.4377-10.1261c0.5512-0.952,0.2021-1.3186-0.7757-0.8146C52.662,12.2263,44.2931,16.54,36,16.54 z"/>
    <path fill="none" stroke="#000000" stroke-width="2" stroke-linecap="round" stroke-miterlimit="10" d="M36,55.46 c8.2931,0,16.662,4.3137,16.662,4.3137c0.9778,0.504,1.3269,0.1374,0.7757-0.8145c0,0-5.9135-10.2145-17.4377-10.1262 c-11.5241-0.0883-17.4377,10.1262-17.4377,10.1262c-0.5511,0.9519-0.202,1.3185,0.7757,0.8145 C19.338,59.7737,27.707,55.46,36,55.46z"/>
    <path fill="none" stroke="#000000" stroke-width="2" stroke-linecap="round" stroke-miterlimit="10" d="M55.46,36 c0-8.293,4.3137-16.662,4.3137-16.662c0.504-0.9777,0.1374-1.3268-0.8146-0.7756c0,0-10.2144,5.9135-10.1261,17.4376 c-0.0883,11.5242,10.1261,17.4377,10.1261,17.4377c0.952,0.5512,1.3186,0.2021,0.8146-0.7756 C59.7737,52.6619,55.46,44.2931,55.46,36z"/>
    <path fill="none" stroke="#000000" stroke-width="2" stroke-linecap="round" stroke-miterlimit="10" d="M16.54,36 c0,8.2931-4.3137,16.6621-4.3137,16.6621c-0.504,0.9777-0.1374,1.3268,0.8145,0.7756c0,0,10.2145-5.9135,10.1262-17.4377 c0.0883-11.5241-10.1262-17.4376-10.1262-17.4376c-0.9519-0.5512-1.3185-0.2021-0.8145,0.7756 C12.2266,19.3379,16.54,27.7069,16.54,36z"/>
  </g>
</svg>
