<?xml version="1.0" encoding="UTF-8"?>
<svg id="emoji" xmlns="http://www.w3.org/2000/svg" viewBox="0 0 72 72">
  <g id="grid">
    <path d="m68,4v64H4V4h64M72,0H0v72h72V0Z" fill="#b3b3b3"/>
    <path d="m12.923,10.9583h46.1539c1.0621,0,1.9231.861,1.9231,1.9231h0v46.1538c0,1.0621-.861,1.9231-1.9231,1.9231H12.9231c-1.0621,0-1.9231-.861-1.9231-1.9231h0V12.8813c0-1.062.861-1.923,1.923-1.923h0Z" fill="none" stroke="#00a5ff" stroke-miterlimit="10" stroke-width=".1"/>
    <path d="m18.2537,4h35.4926c1.2447,0,2.2537,1.009,2.2537,2.2537v59.4926c0,1.2447-1.009,2.2537-2.2537,2.2537H18.2537c-1.2447,0-2.2537-1.009-2.2537-2.2537V6.2537c0-1.2447,1.009-2.2537,2.2537-2.2537Z" fill="none" stroke="#00a5ff" stroke-miterlimit="10" stroke-width=".1"/>
    <path d="m68,18.2537v35.4926c0,1.2447-1.009,2.2537-2.2537,2.2537H6.2537c-1.2447,0-2.2537-1.009-2.2537-2.2537V18.2537c0-1.2447,1.009-2.2537,2.2537-2.2537h59.4926c1.2447,0,2.2537,1.009,2.2537,2.2537Z" fill="none" stroke="#00a5ff" stroke-miterlimit="10" stroke-width=".1"/>
    <circle cx="36" cy="36" r="29" fill="none" stroke="#00a5ff" stroke-miterlimit="10" stroke-width=".1"/>
  </g>
  <g id="color">
    <path d="m36,16.54c-8.293,0-16.662-4.3137-16.662-4.3137-.9777-.504-1.3268-.1374-.7757.8146,0,0,5.9136,10.2144,17.4377,10.1261,11.5242.0883,17.4377-10.1261,17.4377-10.1261.5512-.952.2021-1.3186-.7757-.8146,0,0-8.3689,4.3137-16.662,4.3137Z" fill="#ea5a47"/>
    <path d="m36,55.46c8.2931,0,16.662,4.3137,16.662,4.3137.9778.504,1.3269.1374.7757-.8145,0,0-5.9135-10.2145-17.4377-10.1262-11.5241-.0883-17.4377,10.1262-17.4377,10.1262-.5511.9519-.202,1.3185.7757.8145,0,0,8.369-4.3137,16.662-4.3137Z" fill="#ea5a47"/>
    <path d="m55.46,36c0-8.293,4.3137-16.662,4.3137-16.662.504-.9777.1374-1.3268-.8146-.7756,0,0-10.2144,5.9135-10.1261,17.4376-.0883,11.5242,10.1261,17.4377,10.1261,17.4377.952.5512,1.3186.2021.8146-.7756,0-.0002-4.3137-8.369-4.3137-16.6621Z" fill="#ea5a47"/>
    <path d="m22.167,35.9999c.0971-12.6769-8.1349-16.2848-10.1261-17.4376-.952-.5512-1.3186-.2021-.8146.7756,0,0,5.0637,8.369,5.0637,16.662s-5.0637,16.6619-5.0637,16.6621c-.504.9777-.1374,1.3268.8146.7756,1.9912-1.1528,10.2232-4.7607,10.1261-17.4377" fill="#ea5a47"/>
  </g>
  <g id="line">
    <path d="m36,16.54c-8.293,0-16.662-4.3137-16.662-4.3137-.9777-.504-1.3268-.1374-.7757.8146,0,0,5.9136,10.2144,17.4377,10.1261,11.5242.0883,17.4377-10.1261,17.4377-10.1261.5512-.952.2021-1.3186-.7757-.8146,0,0-8.3689,4.3137-16.662,4.3137Z" fill="none" stroke="#000" stroke-linecap="round" stroke-miterlimit="10" stroke-width="2"/>
    <path d="m36,55.46c8.2931,0,16.662,4.3137,16.662,4.3137.9778.504,1.3269.1374.7757-.8145,0,0-5.9135-10.2145-17.4377-10.1262-11.5241-.0883-17.4377,10.1262-17.4377,10.1262-.5511.9519-.202,1.3185.7757.8145,0,0,8.369-4.3137,16.662-4.3137Z" fill="none" stroke="#000" stroke-linecap="round" stroke-miterlimit="10" stroke-width="2"/>
    <path d="m55.46,36c0-8.293,4.3137-16.662,4.3137-16.662.504-.9777.1374-1.3268-.8146-.7756,0,0-10.2144,5.9135-10.1261,17.4376-.0883,11.5242,10.1261,17.4377,10.1261,17.4377.952.5512,1.3186.2021.8146-.7756,0-.0002-4.3137-8.369-4.3137-16.6621Z" fill="none" stroke="#000" stroke-linecap="round" stroke-miterlimit="10" stroke-width="2"/>
    <path d="m11.2263,52.662c-.504.9777.6126,1.3268,1.5646.7756,0,0,9.9644-5.9135,9.8761-17.4377.0883-11.5241-9.8761-17.4376-9.8761-17.4376-.952-.5512-1.3186-.2021-.8146.7756,0,0,4.3137,8.369,4.3137,16.662s-5.0637,16.6619-5.0637,16.6621Z" fill="none" stroke="#000" stroke-linecap="round" stroke-miterlimit="10" stroke-width="2"/>
  </g>
</svg>