<svg id="emoji" xmlns="http://www.w3.org/2000/svg" viewBox="0 0 72 72">
  <g id="grid">
    <path fill="#B3B3B3" d="M68,4v64H4V4H68 M72,0H0v72h72V0z"/>
    <path fill="none" stroke="#00A5FF" stroke-width="0.1" stroke-miterlimit="10" d="M12.923,10.9583h46.1539 c1.0621,0,1.9231,0.861,1.9231,1.9231v0v46.1538c0,1.0621-0.861,1.9231-1.9231,1.9231H12.9231 c-1.0621,0-1.9231-0.861-1.9231-1.9231l0,0V12.8813C11,11.8193,11.861,10.9583,12.923,10.9583L12.923,10.9583z"/>
    <path fill="none" stroke="#00A5FF" stroke-width="0.1" stroke-miterlimit="10" d="M18.2537,4h35.4926C54.991,4,56,5.009,56,6.2537 v59.4926C56,66.991,54.991,68,53.7463,68H18.2537C17.009,68,16,66.991,16,65.7463V6.2537C16,5.009,17.009,4,18.2537,4z"/>
    <path fill="none" stroke="#00A5FF" stroke-width="0.1" stroke-miterlimit="10" d="M68,18.2537v35.4926 C68,54.991,66.991,56,65.7463,56H6.2537C5.009,56,4,54.991,4,53.7463V18.2537C4,17.009,5.009,16,6.2537,16h59.4926 C66.991,16,68,17.009,68,18.2537z"/>
    <circle fill="none" stroke="#00A5FF" stroke-width="0.1" stroke-miterlimit="10" cx="36" cy="36" r="29"/>
  </g>
  <g id="color">
    <rect x="42.9998" y="15.7214" transform="rotate(-45.001 48.5 23.5)" fill="#9B9B9A" width="10.9999" height="15.5562"/>
    <polygon fill="#3F3F3F" points="46.0339,22.2119 50.512,17.7338 57.8891,25.1109 52.5221,30.4779"/>
    <circle fill="#9B9B9A" cx="31.769" cy="40.4038" r="23"/>
    <path fill="#3F3F3F" d="M19.6333,55.7374c12.7025,0,23-10.2975,23-23c0-5.5327-1.9548-10.6081-5.2097-14.5762 c9.8615,2.5932,17.1357,11.5674,17.1357,22.2428c0,12.7025-10.2975,23-23,23c-7.1697,0-13.5723-3.2816-17.7903-8.4237 C15.6416,55.4725,17.6063,55.7374,19.6333,55.7374z"/>
  </g>
  <g id="hair"/>
  <g id="skin"/>
  <g id="skin-shadow"/>
  <g id="line">
    <polyline fill="none" stroke="#000000" stroke-width="2" stroke-linecap="round" stroke-linejoin="round" stroke-miterlimit="10" points="41.4601,19.5393 46.8889,14.1105 57.8887,25.1103 52.5218,30.4773"/>
    <circle fill="none" stroke="#000000" stroke-width="2" stroke-linecap="round" stroke-linejoin="round" stroke-miterlimit="10" cx="31.769" cy="40.4038" r="23"/>
    <line fill="none" stroke="#000000" stroke-width="2" stroke-linecap="round" stroke-linejoin="round" stroke-miterlimit="10" x1="55.7574" y1="16.2426" x2="64.2426" y2="7.7574"/>
  </g>
</svg>
