<svg id="emoji" xmlns="http://www.w3.org/2000/svg" viewBox="0 0 72 72">
  <g id="grid">
    <path fill="#B3B3B3" d="M68,4v64H4V4H68 M72,0H0v72h72V0z"/>
    <path fill="none" stroke="#00A5FF" stroke-width="0.1" stroke-miterlimit="10" d="M12.923,10.9583h46.1539 c1.0621,0,1.9231,0.861,1.9231,1.9231v0v46.1538c0,1.0621-0.861,1.9231-1.9231,1.9231H12.9231 c-1.0621,0-1.9231-0.861-1.9231-1.9231l0,0V12.8813C11,11.8193,11.861,10.9583,12.923,10.9583L12.923,10.9583z"/>
    <path fill="none" stroke="#00A5FF" stroke-width="0.1" stroke-miterlimit="10" d="M18.2537,4h35.4926C54.991,4,56,5.009,56,6.2537 v59.4926C56,66.991,54.991,68,53.7463,68H18.2537C17.009,68,16,66.991,16,65.7463V6.2537C16,5.009,17.009,4,18.2537,4z"/>
    <path fill="none" stroke="#00A5FF" stroke-width="0.1" stroke-miterlimit="10" d="M68,18.2537v35.4926 C68,54.991,66.991,56,65.7463,56H6.2537C5.009,56,4,54.991,4,53.7463V18.2537C4,17.009,5.009,16,6.2537,16h59.4926 C66.991,16,68,17.009,68,18.2537z"/>
    <circle fill="none" stroke="#00A5FF" stroke-width="0.1" stroke-miterlimit="10" cx="36" cy="36" r="29"/>
  </g>
  <g id="color">
    <path fill="#FFFFFF" d="M54.9122,50.7492C58.0957,46.6764,60,41.5579,60,36c0-13.2334-10.7666-24-24-24S12,22.7666,12,36 s10.7666,24,24,24c1.9554,0,3.8548-0.2406,5.6757-0.6839C47.5946,57.8354,52.0012,54.9747,54.9122,50.7492z"/>
    <circle fill="#FFFFFF" cx="48.9523" cy="55.7733" r="5"/>
    <circle fill="#FFFFFF" cx="58.5311" cy="62.6404" r="2.5"/>
  </g>
  <g id="hair"/>
  <g id="skin"/>
  <g id="skin-shadow"/>
  <g id="line">
    <path transform="matrix(-.9831 .1829 .1829 .9831 0 0)" fill="none" stroke="#000" stroke-miterlimit="10" stroke-width="2" d="m-10.55 53.91a5 5 0 0 1 1.809 5.122 5 5 0 0 1-3.93 3.749 5 5 0 0 1-5.031-2.047"/>
    <path fill="none" stroke="#000" stroke-linecap="round" stroke-miterlimit="10" stroke-width="2" d="m31.54 58.56c1.442 0.2858 2.93 0.4391 4.455 0.4391 12.68 0 23-10.32 23-23 0-12.68-10.32-23-23-23s-23 10.32-23 23c0 4.913 1.552 9.467 4.187 13.21"/>
    <circle cx="26.79" cy="36" r="2"/>
    <circle cx="36" cy="36" r="2"/>
    <circle cx="45.21" cy="36" r="2"/>
    <circle cx="-4.026" cy="64.73" r="2.5" transform="matrix(-.9831 .1829 .1829 .9831 0 0)" fill="none" stroke="#000" stroke-miterlimit="10" stroke-width="2"/>
  </g>
</svg>
