<svg id="emoji" xmlns="http://www.w3.org/2000/svg" viewBox="0 0 72 72">
  <title>1F90E</title>
  <g id="grid">
    <path d="M68,4V68H4V4H68m4-4H0V72H72V0Z" fill="#b3b3b3"/>
    <path d="M12.923,10.9583H59.0769A1.9231,1.9231,0,0,1,61,12.8814V59.0352a1.9231,1.9231,0,0,1-1.9231,1.9231H12.9231A1.9231,1.9231,0,0,1,11,59.0352V12.8813A1.923,1.923,0,0,1,12.923,10.9583Z" fill="none" stroke="#00a5ff" stroke-miterlimit="10" stroke-width="0.1"/>
    <rect x="16" y="4" width="40" height="64" rx="2.2537" fill="none" stroke="#00a5ff" stroke-miterlimit="10" stroke-width="0.1"/>
    <rect x="16" y="4" width="40" height="64" rx="2.2537" transform="translate(72) rotate(90)" fill="none" stroke="#00a5ff" stroke-miterlimit="10" stroke-width="0.1"/>
    <circle cx="36" cy="36" r="29" fill="none" stroke="#00a5ff" stroke-miterlimit="10" stroke-width="0.1"/>
  </g>
  <g id="color">
    <g id="color-2" data-name="color">
      <path d="M36.6963,21.8137a1,1,0,0,1-1.8007,0A11.5185,11.5185,0,1,0,15.2134,33.6018L35.7959,59.9934l20.4624-26.23.66-.9737A11.5184,11.5184,0,1,0,36.6963,21.8137Z" fill="#a57939"/>
      <path d="M47.0674,15.2859A11.526,11.526,0,0,1,56.9185,32.79l-.66.9737-20.4624,26.23-1.5667-2.0088C56.6176,27.389,47.0674,15.2859,47.0674,15.2859Z" fill="#6a462f"/>
    </g>
  </g>
  <g id="line">
    <path id="Heart" d="M35.0074,62.2342,13.6187,34.8084A13.52,13.52,0,1,1,35.7959,19.3538a13.4015,13.4015,0,0,1,11.2715-6.0679A13.5247,13.5247,0,0,1,58.6011,33.87l-.7261,1.0688-21.29,27.2954a1,1,0,0,1-1.5771,0Zm1.6889-40.4205a1,1,0,0,1-1.8007,0A11.5185,11.5185,0,1,0,15.2134,33.6018L35.7959,59.9934l20.4624-26.23.66-.9737A11.5184,11.5184,0,1,0,36.6963,21.8137Z"/>
  </g>
</svg>
