<svg id="emoji" xmlns="http://www.w3.org/2000/svg" viewBox="0 0 72 72">
  <g id="grid">
    <path d="M68,4V68H4V4H68m4-4H0V72H72V0Z" fill="#b3b3b3"/>
    <path d="M12.923,10.9583H59.0769A1.9231,1.9231,0,0,1,61,12.8814V59.0352a1.9231,1.9231,0,0,1-1.9231,1.9231H12.9231A1.9231,1.9231,0,0,1,11,59.0352V12.8813A1.923,1.923,0,0,1,12.923,10.9583Z" fill="none" stroke="#00a5ff" stroke-miterlimit="10" stroke-width="0.1"/>
    <rect x="16" y="4" width="40" height="64" rx="2.2537" fill="none" stroke="#00a5ff" stroke-miterlimit="10" stroke-width="0.1"/>
    <rect x="16" y="4" width="40" height="64" rx="2.2537" transform="translate(72) rotate(90)" fill="none" stroke="#00a5ff" stroke-miterlimit="10" stroke-width="0.1"/>
    <circle cx="36" cy="36" r="29" fill="none" stroke="#00a5ff" stroke-miterlimit="10" stroke-width="0.1"/>
  </g>
  <g id="color">
    <path id="Heart_Color_1" data-name="Heart Color 1" d="M24.7275,13.3332a11.526,11.526,0,0,0-9.8511,17.5039l.66.9737,20.4624,26.23L56.5815,31.6491A11.5192,11.5192,0,1,0,36.8994,19.861a1,1,0,0,1-1.8007,0A11.4423,11.4423,0,0,0,24.7275,13.3332Z" fill="#f4aa41"/>
    <path id="Heart_Color_2" data-name="Heart Color 2" d="M47.8066,13.3332A11.6911,11.6911,0,0,1,57.86,31.1047l-.6738.9885L36.3036,58.7241l-1.5989-2.04C57.553,25.6214,47.8066,13.3332,47.8066,13.3332Z" fill="#e27022"/>
  </g>
  <g id="line">
    <path id="Heart_Line_1" data-name="Heart Line 1" d="M35.999,60.6667a1.0006,1.0006,0,0,1-.7886-.3848L13.92,32.9866l-.7261-1.0688A13.5187,13.5187,0,0,1,35.999,17.4012,13.4012,13.4012,0,0,1,47.27,11.3333,13.5241,13.5241,0,0,1,58.1763,32.8558L36.7876,60.2815A1,1,0,0,1,35.999,60.6667ZM24.7275,13.3332a11.526,11.526,0,0,0-9.8511,17.5039l.66.9737,20.4624,26.23L56.5815,31.6491A11.5192,11.5192,0,1,0,36.8994,19.861a1,1,0,0,1-1.8007,0A11.4423,11.4423,0,0,0,24.7275,13.3332Z"/>
  </g>
</svg>
