<svg id="emoji" xmlns="http://www.w3.org/2000/svg" viewBox="0 0 72 72">
  <g id="grid">
    <path d="M68,4V68H4V4H68m4-4H0V72H72V0Z" fill="#b3b3b3"/>
    <path d="M12.923,10.9583H59.0769A1.9231,1.9231,0,0,1,61,12.8814V59.0352a1.9231,1.9231,0,0,1-1.9231,1.9231H12.9231A1.9231,1.9231,0,0,1,11,59.0352V12.8813A1.923,1.923,0,0,1,12.923,10.9583Z" fill="none" stroke="#00a5ff" stroke-miterlimit="10" stroke-width="0.1"/>
    <rect x="16" y="4" width="40" height="64" rx="2.2537" fill="none" stroke="#00a5ff" stroke-miterlimit="10" stroke-width="0.1"/>
    <rect x="16" y="4" width="40" height="64" rx="2.2537" transform="rotate(90 36 36)" fill="none" stroke="#00a5ff" stroke-miterlimit="10" stroke-width="0.1"/>
    <circle cx="36" cy="36" r="29" fill="none" stroke="#00a5ff" stroke-miterlimit="10" stroke-width="0.1"/>
  </g>
  <g id="color">
    <rect x="19.125" y="9.871" width="32.7367" height="52.2643" rx="11" fill="#ea5a47"/>
    <g>
      <path d="M46.4141,10.7429,40.2278,9.871c7.6518,1.92,6.6782,13.5373,6.7861,15.7853,1.7573,36.6011-12.681,36.6353-13.409,36.6779L43.0106,62h.0607A9.1128,9.1128,0,0,0,52,52.9873V19.4727S51.3852,13.6529,46.4141,10.7429Z" fill="#d22f27"/>
      <path d="M33.6038,62.41l-.05.0013S33.5718,62.4119,33.6038,62.41Z" fill="#d22f27"/>
    </g>
    <rect x="29.3502" y="18.3318" width="12.2864" height="35.6176" rx="2" fill="#fff"/>
    <polyline points="26.84 8.018 26.84 4.972 44.146 4.972 44.146 8.018" fill="#3f3f3f"/>
    <polyline points="44.146 64.184 44.146 67.05 26.84 67.05 26.84 64.184" fill="#3f3f3f"/>
  </g>
  <g id="line">
    <polyline points="26.84 7.481 26.84 4.972 44.146 4.972 44.146 7.481" fill="none" stroke="#000" stroke-linecap="round" stroke-linejoin="round" stroke-width="2"/>
    <polyline points="44.146 64.657 44.146 67.05 26.84 67.05 26.84 64.657" fill="none" stroke="#000" stroke-linecap="round" stroke-linejoin="round" stroke-width="2"/>
    <rect x="19.125" y="9.871" width="32.7367" height="52.2643" rx="11" stroke-width="2" stroke="#000" stroke-linecap="round" stroke-linejoin="round" fill="none"/>
    <g>
      <rect x="31.3396" y="31.6894" width="8.3074" height="8.9339" stroke-width="1.5" stroke="#000" stroke-linecap="round" stroke-linejoin="round" fill="none"/>
      <rect x="31.3396" y="42.5391" width="8.3074" height="8.9339" stroke-width="1.5" stroke="#000" stroke-linecap="round" stroke-linejoin="round" fill="none"/>
      <rect x="31.3396" y="20.8397" width="8.3074" height="8.9339" stroke-width="1.5" stroke="#000" stroke-linecap="round" stroke-linejoin="round" fill="none"/>
    </g>
  </g>
</svg>
