<svg id="emoji" viewBox="0 0 72 72" xmlns="http://www.w3.org/2000/svg">
  <g id="grid">
    <path fill="#b3b3b3" d="M68,4V68H4V4H68m4-4H0V72H72V0Z"/>
    <path fill="none" stroke="#00a5ff" stroke-miterlimit="10" stroke-width="0.1" d="M12.923,10.9583H59.0769A1.9231,1.9231,0,0,1,61,12.8814V59.0352a1.9231,1.9231,0,0,1-1.9231,1.9231H12.9231A1.9231,1.9231,0,0,1,11,59.0352V12.8813A1.923,1.923,0,0,1,12.923,10.9583Z"/>
    <rect x="16" y="4" rx="2.2537" width="40" height="64" fill="none" stroke="#00a5ff" stroke-miterlimit="10" stroke-width="0.1"/>
    <rect x="16" y="4" rx="2.2537" width="40" height="64" transform="rotate(90 36 36)" fill="none" stroke="#00a5ff" stroke-miterlimit="10" stroke-width="0.1"/>
    <circle cx="36" cy="36" r="29" fill="none" stroke="#00a5ff" stroke-miterlimit="10" stroke-width="0.1"/>
  </g>
  <g id="color">
    <polygon fill="#D0CFCE" stroke="none" points="55.2808,53.1841 56.8424,53.1827 56.8424,53.1797"/>
    <path fill="#D0CFCE" stroke="none" d="M56.9266,51.1826L56.8398,32.207c0.0006,0-3.5428,0.002-6.0229,0.0034l0.0839-9.2465 c0,0-11.988,0.852-11.988,0.2998l-0.3192-2.7549L15.2914,20.71l-0.1605,35.4266l35.4702-0.1364l0.0255-2.8145l5.7991-0.006 C55.8772,53.1769,56.9266,51.1826,56.9266,51.1826z"/>
    <polygon fill="#3F3F3F" stroke="none" points="62.5882,24.3129 54.3197,11.4424 51.3992,16.8445 42.8797,23.2636 50.137,23.7636 51.0027,30.3178 56.7998,25.7422 56.7998,25.7422"/>
    <path fill="#9B9B9A" stroke="none" d="M45.3017,49.7968V32.5206c0-1.2146-0.9887-2.2032-2.2032-2.2032H23.7052V52h19.3933 C44.313,52,45.3017,51.0113,45.3017,49.7968z"/>
    <circle cx="34.2588" cy="43.3369" r="4.9996" fill="#D0CFCE" stroke="none"/>
    <rect x="11.8384" y="20.5967" width="3.453" height="18.7402" fill="#3F3F3F" stroke="none"/>
  </g>
  <g id="hair"/>
  <g id="skin"/>
  <g id="skin-shadow"/>
  <g id="line">
    <line x1="57.5768" x2="51.0027" y1="25.1289" y2="30.3178" fill="none" stroke="#000000" stroke-linecap="round" stroke-linejoin="round" stroke-miterlimit="10" stroke-width="2"/>
    <line x1="43.8978" x2="51.0114" y1="22.9639" y2="17.5618" fill="none" stroke="#000000" stroke-linecap="round" stroke-linejoin="round" stroke-miterlimit="10" stroke-width="2"/>
    <polygon fill="none" stroke="#000000" stroke-linecap="round" stroke-linejoin="round" stroke-miterlimit="10" stroke-width="2" points="51.0114,17.5731 57.5917,25.1289 62.5882,24.3129 54.3197,11.4424"/>
    <polyline fill="none" stroke="#000000" stroke-linecap="round" stroke-linejoin="round" stroke-miterlimit="10" stroke-width="2" points="15.2914,39.4247 15.2914,55.9761 50.6011,55.9761 50.6011,23.2636 38.5936,23.2636 38.5936,20.5088 15.521,20.5088"/>
    <polyline fill="none" stroke="#000000" stroke-linecap="round" stroke-linejoin="round" stroke-miterlimit="10" stroke-width="2" points="54.7787,33.2126 56.8424,33.2067 56.8424,52.1795 54.7787,52.1854"/>
    <path fill="none" stroke="#000000" stroke-linecap="round" stroke-linejoin="round" stroke-miterlimit="10" stroke-width="2" d="M42.3054,52H23.7011V30.3178h18.6043c1.6569,0,3,1.3431,3,3V49C45.3054,50.6569,43.9623,52,42.3054,52z"/>
    <circle cx="34.2585" cy="43.3366" r="5" fill="none" stroke="#000000" stroke-linecap="round" stroke-linejoin="round" stroke-miterlimit="10" stroke-width="2"/>
    <rect x="11.6659" y="20.5088" width="3.6255" height="18.9159" fill="none" stroke="#000000" stroke-linecap="round" stroke-linejoin="round" stroke-miterlimit="10" stroke-width="2"/>
  </g>
</svg>
