<svg id="emoji" version="1.1" viewBox="0 0 72 72" xmlns="http://www.w3.org/2000/svg">
 <g id="grid">
  <path d="M68,4V68H4V4H68m4-4H0V72H72V0Z" fill="#b3b3b3"/>
  <path d="m12.92 10.96h46.15a1.923 1.923 0 0 1 1.923 1.923v46.15a1.923 1.923 0 0 1-1.923 1.923h-46.15a1.923 1.923 0 0 1-1.923-1.923v-46.15a1.923 1.923 0 0 1 1.923-1.923z" fill="none" stroke="#00a5ff" stroke-miterlimit="10" stroke-width=".1"/>
  <rect x="16" y="4" width="40" height="64" rx="2.254" ry="2.254" fill="none" stroke="#00a5ff" stroke-miterlimit="10" stroke-width=".1"/>
  <rect transform="translate(72) rotate(90)" x="16" y="4" width="40" height="64" rx="2.254" ry="2.254" fill="none" stroke="#00a5ff" stroke-miterlimit="10" stroke-width=".1"/>
  <circle cx="36" cy="36" r="29" fill="none" stroke="#00a5ff" stroke-miterlimit="10" stroke-width=".1"/>
 </g>
 <g id="color" style="fill:#fcea2b">
  <rect x="12.01" y="15.29" width="48.14" height="41.43" fill="none" stroke-linecap="round" stroke-linejoin="round" stroke-width="1.925" style="fill:#9b9b9a"/>
  <rect x="17.28" y="19.31" width="5.524" height="18.83" style="fill:#fff"/>
  <rect x="17.48" y="19.23" width="37.51" height="25.11" fill="none" stroke-linecap="round" stroke-linejoin="round" stroke-width="1.925" style="fill:#3f3f3f"/>
  <polygon transform="matrix(1 -.065522 0 1 -8.0462 3.2008)" points="57.228 45.736 63 46 63 20 48.326 19.676" fill="#fff" style="fill:#fff"/>
 </g>
 <g id="line">
  <rect x="12.05" y="15.32" width="48.14" height="41.43" fill="none" stroke="#000" stroke-linecap="round" stroke-linejoin="round" stroke-width="1.925" style="stroke-width:2"/>
  <rect x="17.48" y="19.23" width="37.51" height="25.11" fill="none" stroke="#000" stroke-linecap="round" stroke-linejoin="round" stroke-width="1.925" style="stroke-width:2"/>
  <circle cx="19.502" cy="50.503" r="2.5" style="stroke-width:1.25"/>
  <circle cx="52.504" cy="50.503" r="2.5" style="stroke-width:1.25"/>
 </g>
</svg>
