<svg id="emoji" xmlns="http://www.w3.org/2000/svg" viewBox="0 0 72 72">
  <g id="grid">
    <path d="M68,4V68H4V4H68m4-4H0V72H72V0Z" fill="#b3b3b3"></path>
    <path d="M12.923,10.9583H59.0769A1.9231,1.9231,0,0,1,61,12.8814V59.0352a1.9231,1.9231,0,0,1-1.9231,1.9231H12.9231A1.9231,1.9231,0,0,1,11,59.0352V12.8813A1.923,1.923,0,0,1,12.923,10.9583Z" fill="none" stroke="#00a5ff" stroke-miterlimit="10" stroke-width="0.1"></path>
    <rect x="16" y="4" width="40" height="64" rx="2.2537" fill="none" stroke="#00a5ff" stroke-miterlimit="10" stroke-width="0.1"></rect>
    <rect x="16" y="4" width="40" height="64" rx="2.2537" transform="translate(72) rotate(90)" fill="none" stroke="#00a5ff" stroke-miterlimit="10" stroke-width="0.1"></rect>
    <circle cx="36" cy="36" r="29" fill="none" stroke="#00a5ff" stroke-miterlimit="10" stroke-width="0.1"></circle>
  </g>
  <g id="color">
    <ellipse transform="matrix(0.5379 -0.843 0.843 0.5379 -1.1578 48.8391)" fill="#FFFFFF" cx="43.9713" cy="25.4757" rx="11.1657" ry="11.1656" stroke="none"></ellipse>
    <path fill="#92D3F5" d="M53.4402,31.8458c1.461-2.289,2.284-6.5149,1.6981-9.1673c-0.4014-1.8161-2.6553-3.8396-3.8988-5.1585
		c0.6487,2.3544,1.0384,7.3509-2.1852,11.9716c-2.7358,3.9212-6.6908,5.6353-8.9477,6.0576
		C44.3554,36.8323,50.9377,35.7667,53.4402,31.8458z" stroke="none"></path>
    <path fill="#D0CFCE" d="M51.7774,13.2414c-3.2684-2.0837-7.1512-2.7717-10.9373-1.9372c-3.785,0.8366-7.0182,3.097-9.1041,6.3645
		c-4.3036,6.746-2.3176,15.7369,4.4283,20.0415c6.745,4.3047,15.7348,2.3197,20.0415-4.4273
		c2.0849-3.2675,2.7728-7.1524,1.9362-10.9374C57.3054,18.5604,55.046,15.3273,51.7774,13.2414z M53.6137,31.629
		c-2.1788,3.4147-5.8819,5.2814-9.6611,5.2814c-2.1045,0.0009-4.2319-0.5785-6.1343-1.7924
		c-5.3172-3.3926-6.8818-10.4791-3.4892-15.7954c1.6436-2.5754,4.1915-4.3576,7.1747-5.0159
		c2.9841-0.6584,6.0444-0.1176,8.6208,1.5269c2.5755,1.6426,4.3567,4.1905,5.016,7.1747
		C55.7999,25.9914,55.2572,29.0526,53.6137,31.629z" stroke="none"></path>
    <path fill="#3F3F3F" d="M31.4429,40.2651l-6.918,10.335l-3.7106,5.8155c-0.4778,0.75,0.3797,3.2105,1.1294,3.6888
		c0.3613,0.2305,2.5325,0.011,2.5325,0.011L36,42.9231L31.4429,40.2651z" stroke="none"></path>
  </g>
  <g id="hair">
  </g>
  <g id="skin">
  </g>
  <g id="skin-shadow">
  </g>
  <g id="line">
    <ellipse transform="matrix(0.5379 -0.843 0.843 0.5379 -1.1578 48.8391)" fill="none" stroke="#000000" stroke-width="2" stroke-linecap="round" stroke-linejoin="round" stroke-miterlimit="10" cx="43.9712" cy="25.4757" rx="14.6372" ry="14.6372"></ellipse>
    <ellipse transform="matrix(0.5379 -0.843 0.843 0.5379 -1.1578 48.8391)" fill="none" stroke="#000000" stroke-width="2" stroke-linecap="round" stroke-linejoin="round" stroke-miterlimit="10" cx="43.9713" cy="25.4757" rx="11.1657" ry="11.1656"></ellipse>
    <path fill="none" stroke="#000000" stroke-width="2" stroke-linecap="round" stroke-linejoin="round" stroke-miterlimit="10" d="
		M31.3102,39.9657l4.4057,2.811L25.22,59.2267c-0.7499,1.1753-2.344,1.4986-3.5606,0.7224l0,0
		c-1.2166-0.7763-1.595-2.3582-0.8451-3.5335L31.3102,39.9657z"></path>
  </g>
</svg>