<svg id="emoji" viewBox="0 0 72 72" xmlns="http://www.w3.org/2000/svg">
  <g id="grid">
    <path fill="#b3b3b3" d="M68,4V68H4V4H68m4-4H0V72H72V0Z"/>
    <path fill="none" stroke="#00a5ff" stroke-miterlimit="10" stroke-width="0.1" d="M12.923,10.9583H59.0769A1.9231,1.9231,0,0,1,61,12.8814V59.0352a1.9231,1.9231,0,0,1-1.9231,1.9231H12.9231A1.9231,1.9231,0,0,1,11,59.0352V12.8813A1.923,1.923,0,0,1,12.923,10.9583Z"/>
    <rect x="16" y="4" rx="2.2537" width="40" height="64" fill="none" stroke="#00a5ff" stroke-miterlimit="10" stroke-width="0.1"/>
    <rect x="16" y="4" rx="2.2537" width="40" height="64" transform="rotate(90 36 36)" fill="none" stroke="#00a5ff" stroke-miterlimit="10" stroke-width="0.1"/>
    <circle cx="36" cy="36" r="29" fill="none" stroke="#00a5ff" stroke-miterlimit="10" stroke-width="0.1"/>
  </g>
  <g id="color">
    <ellipse cx="29.5854" cy="24.8305" rx="11.1656" ry="11.1657" transform="rotate(-36.813 29.584 24.83)" fill="#FFFFFF" stroke="none"/>
    <path fill="#92D3F5" stroke="none" d="M39,19c-1.6269-2.1743-5.3114-4.6131-8-5c-1.841-0.2648-5,0-5.3126,1.4508 c2.432,0.2232,6.261,1.3933,9.4483,6.0391c2.7047,3.9427,2.9098,7.2606,2.5092,9.5215C40,31,41.7867,22.7243,39,19z"/>
    <path fill="#D0CFCE" stroke="none" d="M20.717,13.2532c-3.1395,2.3517-5.1766,5.7832-5.7372,9.6663c-0.5584,3.883,0.4286,7.7514,2.7785,10.8927 c4.8528,6.4827,14.0758,7.8101,20.5595,2.9577c6.4832-4.8514,7.8112-14.073,2.9587-20.5591 c-2.3504-3.1402-5.7839-5.1778-9.6668-5.7362C27.7267,9.9161,23.8587,10.9022,20.717,13.2532z M38.1933,18.3883 c2.2813,3.0482,2.696,6.924,1.4434,10.248c-0.6965,1.8514-1.9113,3.5306-3.6095,4.8016c-4.7463,3.5525-11.498,2.58-15.0496-2.166 c-1.7206-2.2992-2.4437-5.1309-2.0341-7.9731c0.41-2.8429,1.8999-5.3554,4.2002-7.0765c2.2984-1.721,5.1298-2.4433,7.9731-2.0341 C33.9592,14.5969,36.4719,16.0889,38.1933,18.3883z"/>
    <path fill="#3F3F3F" stroke="none" d="M39,42l10,14c0,0,3,4,5,2s0-5,0-5L43,39L39,42z"/>
  </g>
  <g id="hair"/>
  <g id="skin"/>
  <g id="skin-shadow"/>
  <g id="line">
    <ellipse cx="29.5854" cy="24.8305" rx="14.6372" ry="14.6372" transform="rotate(-36.813 29.584 24.83)" fill="none" stroke="#000000" stroke-linecap="round" stroke-linejoin="round" stroke-miterlimit="10" stroke-width="2"/>
    <ellipse cx="29.5854" cy="24.8305" rx="11.1656" ry="11.1657" transform="rotate(-36.813 29.584 24.83)" fill="none" stroke="#000000" stroke-linecap="round" stroke-linejoin="round" stroke-miterlimit="10" stroke-width="2"/>
    <path fill="none" stroke="#000000" stroke-linecap="round" stroke-linejoin="round" stroke-miterlimit="10" stroke-width="2" d="M38.6805,41.7876l4.1839-3.1316l11.6927,15.622c0.8354,1.1162,0.5758,2.7219-0.5795,3.5867l0,0 c-1.1554,0.8647-2.7691,0.661-3.6045-0.4551L38.6805,41.7876z"/>
  </g>
</svg>
