<svg id="emoji" xmlns="http://www.w3.org/2000/svg" viewBox="0 0 72 72">
  <title>1FA94</title>
  <g id="grid">
    <path d="M68,4V68H4V4H68m4-4H0V72H72V0Z" fill="#b3b3b3"/>
    <path d="M12.923,10.9583H59.0769A1.9231,1.9231,0,0,1,61,12.8814V59.0352a1.9231,1.9231,0,0,1-1.9231,1.9231H12.9231A1.9231,1.9231,0,0,1,11,59.0352V12.8813A1.923,1.923,0,0,1,12.923,10.9583Z" fill="none" stroke="#00a5ff" stroke-miterlimit="10" stroke-width="0.1"/>
    <rect x="16" y="4" width="40" height="64" rx="2.2537" ry="2.2537" fill="none" stroke="#00a5ff" stroke-miterlimit="10" stroke-width="0.1"/>
    <rect x="16" y="4" width="40" height="64" rx="2.2537" ry="2.2537" transform="translate(72) rotate(90)" fill="none" stroke="#00a5ff" stroke-miterlimit="10" stroke-width="0.1"/>
    <circle cx="36" cy="36" r="29" fill="none" stroke="#00a5ff" stroke-miterlimit="10" stroke-width="0.1"/>
  </g>
  <g id="color">
    <path d="M6.5,34.5s4,2.5,4.35,4.1815C12.2991,43.0449,17.7225,56,37.6875,56,61.0625,56,64.5,35.5,64.5,35.5H11Z" fill="#a57939"/>
    <path d="M50.21,37.0055S49.5,51.5,44.5,54.5s18-2,20-19Z" fill="#6a462f"/>
    <path d="M5.8906,30s0-11.2658,1.6094-12.8752S9.1094,30,9.1094,30Z" fill="#ea5a47"/>
    <path d="M6.6953,30.5s0-5.6329.8047-6.4376S8.3047,30.5,8.3047,30.5Z" fill="#f1b31c"/>
    <path d="M7.1286,30s0-1.6.3714-1.9712S7.8714,30,7.8714,30Z" fill="#fcea2b"/>
  </g>
  <g id="line">
    <path d="M6.5,34.5s4,2.5,4.35,4.1815C12.2991,43.0449,17.7225,56,37.6875,56,61.0625,56,64.5,35.5,64.5,35.5s-20.85,1.01-27.8063,1C30.2654,36.4905,11,35.5,11,35.5Z" fill="none" stroke="#000" stroke-linecap="round" stroke-linejoin="round" stroke-width="2"/>
    <line x1="7.5" y1="34.5" x2="7.5" y2="32" fill="none" stroke="#000" stroke-linecap="round" stroke-linejoin="round"/>
    <path d="M5.8287,30.5s0-11.6991,1.6713-13.37S9.1713,30.5,9.1713,30.5Z" fill="none" stroke="#000" stroke-linecap="round" stroke-linejoin="round"/>
  </g>
</svg>
