<svg id="emoji" xmlns="http://www.w3.org/2000/svg" viewBox="0 0 72 72">
  <g id="grid">
    <path d="M68,4V68H4V4H68m4-4H0V72H72V0Z" fill="#b3b3b3"></path>
    <path d="M12.923,10.9583H59.0769A1.9231,1.9231,0,0,1,61,12.8814V59.0352a1.9231,1.9231,0,0,1-1.9231,1.9231H12.9231A1.9231,1.9231,0,0,1,11,59.0352V12.8813A1.923,1.923,0,0,1,12.923,10.9583Z" fill="none" stroke="#00a5ff" stroke-miterlimit="10" stroke-width="0.1"></path>
    <rect x="16" y="4" width="40" height="64" rx="2.2537" fill="none" stroke="#00a5ff" stroke-miterlimit="10" stroke-width="0.1"></rect>
    <rect x="16" y="4" width="40" height="64" rx="2.2537" transform="translate(72) rotate(90)" fill="none" stroke="#00a5ff" stroke-miterlimit="10" stroke-width="0.1"></rect>
    <circle cx="36" cy="36" r="29" fill="none" stroke="#00a5ff" stroke-miterlimit="10" stroke-width="0.1"></circle>
  </g>
  <g id="color">
    <rect x="58.6522" y="54.8388" fill="#a57939" width="4.2028" height="4.2028" stroke="none"></rect>
    <path fill="#b1cc33" d="M54.9702,59.0416c0,0,2-13.9922-10-13.9922c-3.1919,2.1279-5.9264,3.5985-9,3.5922h0.125
		c-3.0736,0.0063-5.8082-1.4643-9-3.5922c-12,0-10,13.9922-10,13.9922" stroke="none"></path>
    <polyline fill="#5c9e31" stroke="none" stroke-width="2" stroke-linecap="round" stroke-linejoin="round" stroke-miterlimit="10" points="
		27.0327,45.0494 32.8364,53.9364 36.0327,48.6416 	"></polyline>
    <polyline fill="#5c9e31" stroke="none" stroke-width="2" stroke-linecap="round" stroke-linejoin="round" stroke-miterlimit="10" points="
		45.0327,45.0494 39.2289,53.9364 36.0327,48.6416 	"></polyline>
    <rect x="57.9121" y="39.4534" fill="#9b9b9a" stroke="none" stroke-width="2" stroke-linecap="round" stroke-linejoin="round" stroke-miterlimit="10" width="5.4802" height="4.2448"></rect>
    <polyline fill="#a57939" stroke="none" stroke-width="2" stroke-linecap="round" stroke-linejoin="round" stroke-miterlimit="10" points="
		62.6522,58.0692 62.6522,43.7392 58.6522,43.7392 58.6522,58.0592 	"></polyline>
    <rect x="22.1623" y="45.0897" fill="#61b2e4" width="4.2883" height="13.9706" stroke="none"></rect>
    <polygon fill="#61b2e4" points="49.653,58.2054 22.1623,58.0353 22.1623,59.0132 49.653,59.0132 	" stroke="none"></polygon>
    <polygon fill="#61b2e4" points="48.9196,45.0897 44.6313,45.0897 44.6313,50.7728 44.6313,59.032 48.9196,59.032 	" stroke="none"></polygon>
    <path fill="#6a462f" stroke="none" stroke-miterlimit="10" d="M24.724,24.9937c-0.2098,1.0778-0.321,2.2038-0.321,3.3623
		c0,0.7929,0.0521,1.5707,0.1523,2.3282l-0.4737-0.5234c0,0-4.6525-6.8512,2.5534-13.8906h18.2132
		c7.206,7.0394,2.5535,13.8906,2.5535,13.8906l-5.6599-12.6244c0,0-1.4782,3.8056-5.6542,3.4931c0,0,1.0645-4.7593-0.2835-4.7593
		c0,0-5.1834,6.2171-11.0729,8.7249"></path>
    <polyline fill="#f4aa41" points="27.185,16.2702 27.185,8.0684 35.9702,9.4857 44.7553,8.0684 44.7553,16.2702 	" stroke="none"></polyline>
    <rect x="27.185" y="12.8535" fill="#e27022" width="17.4463" height="2.6585" stroke="none"></rect>
  </g>
  <g id="hair">
  </g>
  <g id="skin">
    <ellipse fill="#fcea2b" cx="35.7416" cy="28.356" rx="11.3386" ry="14.1733" stroke="none"></ellipse>
  </g>
  <g id="skin-shadow">
  </g>
  <g id="line">
    <path fill="#000000" d="M41.9703,26.9951c0,1.1045-0.8965,2-2,2s-2-0.8955-2-2c0-1.1035,0.8965-2,2-2
		S41.9703,25.8916,41.9703,26.9951" stroke="none"></path>
    <path fill="#000000" d="M33.9703,26.9951c0,1.1045-0.8965,2-2,2c-1.1035,0-2-0.8955-2-2c0-1.1035,0.8965-2,2-2
		C33.0738,24.9951,33.9703,25.8916,33.9703,26.9951" stroke="none"></path>
    <path fill="#000000" d="M35.9702,36.9976c-1.1519,0-2.3038-0.2862-3.4473-0.8579c-0.4942-0.2471-0.6943-0.8477-0.4473-1.3418
		c0.2466-0.4937,0.8462-0.6944,1.3418-0.4473c1.7178,0.8594,3.3877,0.8594,5.1055,0c0.4946-0.2471,1.0947-0.0464,1.3418,0.4473
		c0.2471,0.4941,0.0469,1.0947-0.4473,1.3418C38.2739,36.7114,37.122,36.9976,35.9702,36.9976z" stroke="none"></path>
    <polyline fill="none" stroke="#000000" stroke-width="2" stroke-linecap="round" stroke-linejoin="round" stroke-miterlimit="10" points="
		27.0327,45.0494 32.8364,53.9364 36.0327,48.6416 	"></polyline>
    <polyline fill="none" stroke="#000000" stroke-width="2" stroke-linecap="round" stroke-linejoin="round" stroke-miterlimit="10" points="
		45.0327,45.0494 39.2289,53.9364 36.0327,48.6416 	"></polyline>
    <path fill="none" stroke="#000000" stroke-width="2" stroke-linecap="round" stroke-linejoin="round" stroke-miterlimit="10" d="
		M53.4805,23.7951c0,0-2.3766,15.4155,7.0845,15.6583V23.7951"></path>
    <path fill="none" stroke="#000000" stroke-width="2" stroke-linecap="round" stroke-linejoin="round" stroke-miterlimit="10" d="
		M67.6495,23.7951c0,0,2.3767,15.4155-7.0845,15.6583V23.7951"></path>
    <rect x="57.9121" y="39.4534" fill="none" stroke="#000000" stroke-width="2" stroke-linecap="round" stroke-linejoin="round" stroke-miterlimit="10" width="5.4802" height="4.2448"></rect>
    <polyline fill="none" stroke="#000000" stroke-width="2" stroke-linecap="round" stroke-linejoin="round" stroke-miterlimit="10" points="
		62.6522,58.0692 62.6522,43.7392 58.6522,43.7392 58.6522,58.0592 	"></polyline>
    <path fill="none" stroke="#000000" stroke-width="2" stroke-linecap="round" stroke-linejoin="round" stroke-miterlimit="10" d="
		M54.9702,58.0494c0,0,2-13-10-13c-3.1919,2.1279-5.9264,3.5985-9,3.5922h0.125c-3.0736,0.0063-5.8082-1.4643-9-3.5922
		c-12,0-10,13-10,13"></path>
    <line fill="none" stroke="#000000" stroke-width="2" stroke-linecap="round" stroke-linejoin="round" stroke-miterlimit="10" x1="22.1623" y1="46.0014" x2="22.1623" y2="58.0353"></line>
    <line fill="none" stroke="#000000" stroke-width="2" stroke-linecap="round" stroke-linejoin="round" stroke-miterlimit="10" x1="49.653" y1="46.0014" x2="49.653" y2="58.0637"></line>
    <polyline fill="none" stroke="#000000" stroke-width="2" stroke-linecap="round" stroke-linejoin="round" stroke-miterlimit="10" points="
		27.301,45.3046 27.301,58.0353 44.7492,58.0211 44.7492,45.2839 	"></polyline>
    <path fill="none" stroke="#000000" stroke-width="2" stroke-linecap="round" stroke-linejoin="round" stroke-miterlimit="10" d="
		M10.4409,24.7685"></path>
    <path fill="none" stroke="#000000" stroke-miterlimit="10" d="M24.724,24.9937c-0.2098,1.0778-0.321,2.2038-0.321,3.3623
		c0,0.7929,0.0521,1.5707,0.1523,2.3282l-0.4737-0.5234c0,0-4.6525-6.8512,2.5534-13.8906h18.2132
		c7.206,7.0394,2.5535,13.8906,2.5535,13.8906l-5.6599-12.6244c0,0-1.4782,3.8056-5.6542,3.4931c0,0,1.0645-4.7593-0.2835-4.7593
		c0,0-5.1834,6.2171-11.0729,8.7249"></path>
    <path fill="none" stroke="#000000" stroke-width="2" stroke-miterlimit="10" d="M24.9525,24.9937
		c-0.2097,1.0778-0.3209,2.2038-0.3209,3.3623c0,7.8276,5.0764,14.1732,11.3386,14.1732c5.9698,0,10.8621-5.7671,11.3058-13.0874"></path>
    <path fill="none" stroke="#000000" stroke-width="2" stroke-linecap="round" stroke-linejoin="round" stroke-miterlimit="10" d="
		M45.0768,16.2702c7.2059,7.0394,2.5534,13.8906,2.5534,13.8906l-5.6599-12.6244c0,0-1.4782,3.8056-5.6542,3.4931
		c0,0,1.0646-4.7593-0.2834-4.7593c0,0-5.1834,6.2171-11.0729,8.7249"></path>
    <path fill="none" stroke="#000000" stroke-width="2" stroke-linecap="round" stroke-linejoin="round" stroke-miterlimit="10" d="
		M24.3101,30.1608c0,0-4.6525-6.8512,2.5534-13.8906"></path>
    <polyline fill="none" stroke="#000000" stroke-width="2" stroke-linecap="round" stroke-linejoin="round" stroke-miterlimit="10" points="
		27.185,16.2702 27.185,8.0684 35.9702,9.4857 44.7553,8.0684 44.7553,16.2702 	"></polyline>
    <line fill="none" stroke="#000000" stroke-width="2" stroke-linecap="round" stroke-linejoin="round" stroke-miterlimit="10" x1="27.185" y1="12.7654" x2="44.7553" y2="12.7654"></line>
    <line fill="none" stroke="#000000" stroke-width="2" stroke-linecap="round" stroke-linejoin="round" stroke-miterlimit="10" x1="19.5127" y1="16.2702" x2="52.0809" y2="16.2702"></line>
  </g>
</svg>