<svg id="emoji" xmlns="http://www.w3.org/2000/svg" viewBox="0 0 72 72">
  <g id="grid">
    <path d="M68,4V68H4V4H68m4-4H0V72H72V0Z" fill="#b3b3b3"></path>
    <path d="M12.923,10.9583H59.0769A1.9231,1.9231,0,0,1,61,12.8814V59.0352a1.9231,1.9231,0,0,1-1.9231,1.9231H12.9231A1.9231,1.9231,0,0,1,11,59.0352V12.8813A1.923,1.923,0,0,1,12.923,10.9583Z" fill="none" stroke="#00a5ff" stroke-miterlimit="10" stroke-width="0.1"></path>
    <rect x="16" y="4" width="40" height="64" rx="2.2537" fill="none" stroke="#00a5ff" stroke-miterlimit="10" stroke-width="0.1"></rect>
    <rect x="16" y="4" width="40" height="64" rx="2.2537" transform="translate(72) rotate(90)" fill="none" stroke="#00a5ff" stroke-miterlimit="10" stroke-width="0.1"></rect>
    <circle cx="36" cy="36" r="29" fill="none" stroke="#00a5ff" stroke-miterlimit="10" stroke-width="0.1"></circle>
  </g>
  <g id="color">
    <path fill="#ffa7c0" d="M54.5509,58.8718c0,0,2-13.7973-10-13.7973c-3.1918,2.1192-5.9264,3.5837-9,3.5775h0.125
		c-3.0736,0.0062-5.8081-1.4583-9-3.5775c-12,0-10,13.7973-10,13.7973" stroke="none"></path>
    <polygon fill="#FFFFFF" points="35.8323,57.6636 32.9258,52.6293 30.0192,47.5951 35.8323,47.5951 41.6454,47.5951 
		38.7388,52.6293 	" stroke="none"></polygon>
    <path fill="none" d="M47.6172,27.8152c0-1.1581-0.1111-2.2838-0.3208-3.3613c-0.7817-4.0178-2.9333-7.3654-5.8015-9.2263
		c-1.5615-1.0131-3.3354-1.5856-5.2163-1.5856c-6.2621,0-11.3385,6.3456-11.3385,14.1732c0,7.8277,5.0764,14.1733,11.3385,14.1733
		C42.5408,41.9885,47.6172,35.6429,47.6172,27.8152z" stroke="none"></path>
    <path fill="#f4aa41" d="M42.0901,15.2276c4.1993,0.1683,5.4644,3.9222,5.2347,9.2263l-0.0027,0.0005
		c-2.7022,2.0473-7.303-6.0499-7.303-6.0499L42.0901,15.2276z" stroke="none"></path>
    <path fill="#a57939" d="M24.9348,21.003" stroke="none"></path>
    <path fill="#f4aa41" d="M40.6829,19.1163c0,0,1.8004-0.3126,3.5826-3.5399c1.7821-3.2272-4.5603-9.3453-13.4295-5.5725
		c-2.1058,0.8958-3.9799,2.6516-5.6162,4.2515c0,0-2.2375,3.282-3.3208,4.9348c0,0-1.687-0.2842-3.2671-1.7638
		c0,0-0.4349,6.6434,7.5762,7.5773c0,0,2.8585,0.0224,6.1914-2.8191" stroke="none"></path>
    <ellipse fill="#f4aa41" cx="34.1337" cy="19.1902" rx="6.4724" ry="2.4105" stroke="none"></ellipse>
    <path fill="none" d="M39.4239,18.4045c-0.0034-0.463-3.2918,6.1828-13.917,2.8403" stroke="none"></path>
    <polygon fill="#fcea2b" stroke="none" stroke-width="2" stroke-linecap="round" stroke-linejoin="round" stroke-miterlimit="10" points="
		31.4697,16.6382 31.4713,6.8949 34.5866,9.5465 36.0017,6.0006 37.4702,9.4101 40.3145,6.8949 40.3145,16.6382 	"></polygon>
    <path fill="#e67a94" stroke="none" stroke-width="2" stroke-linecap="round" stroke-linejoin="round" stroke-miterlimit="10" d="
		M26.7074,45.5127c0,0,8.353,8.1081,9.1847,12.6615l-0.0009-0.0399l-1.1954,0.0321c-7.9884,0-5.061-4.7397-5.061-4.7397
		c-8.7662,0-2.8498-8.2603-2.8498-8.2603"></path>
    <path fill="#e67a94" stroke="none" stroke-width="2" stroke-linecap="round" stroke-linejoin="round" stroke-miterlimit="10" d="
		M44.9413,45.5127c0,0-8.353,8.1081-9.1847,12.6615l0.0009-0.0399l1.1954,0.0321c7.9884,0,5.0609-4.7397,5.0609-4.7397
		c8.7663,0,2.8499-8.2603,2.8499-8.2603"></path>
    <path fill="#a57939" stroke="none" stroke-width="2" stroke-linecap="round" stroke-linejoin="round" stroke-miterlimit="10" d="
		M25.8945,20.7444"></path>
  </g>
  <g id="hair">
  </g>
  <g id="skin">
    <ellipse fill="#fcea2b" cx="35.9652" cy="28.5829" rx="11.3385" ry="14.1733" stroke="none"></ellipse>
  </g>
  <g id="skin-shadow">
  </g>
  <g id="line">
    <path fill="#000000" d="M41.8791,27.0302c0,1.1045-0.8965,2-2,2s-2-0.8955-2-2c0-1.1035,0.8965-2,2-2
		S41.8791,25.9267,41.8791,27.0302" stroke="none"></path>
    <path fill="#000000" d="M33.8791,27.0302c0,1.1045-0.8965,2-2,2s-2-0.8955-2-2c0-1.1035,0.8965-2,2-2
		S33.8791,25.9267,33.8791,27.0302" stroke="none"></path>
    <path fill="#000000" d="M35.879,37.0326c-1.1519,0-2.3037-0.2861-3.4473-0.8579c-0.4941-0.2471-0.6943-0.8476-0.4472-1.3418
		c0.2466-0.4936,0.8462-0.6943,1.3418-0.4473c1.7177,0.8594,3.3877,0.8594,5.1054,0c0.4947-0.247,1.0948-0.0463,1.3418,0.4473
		c0.2471,0.4942,0.0469,1.0947-0.4472,1.3418C38.1827,36.7465,37.0309,37.0326,35.879,37.0326z" stroke="none"></path>
    <path fill="none" stroke="#000000" stroke-width="2" stroke-miterlimit="10" d="M24.9194,24.7438
		c-0.2472,1.1637-0.379,2.3862-0.379,3.6472c0,7.8277,5.0765,14.1732,11.3386,14.1732c6.2621,0,11.3386-6.3455,11.3386-14.1732
		c0-1.1581-0.1111-2.2838-0.3208-3.3613"></path>
    <path fill="none" stroke="#000000" stroke-width="2" stroke-linecap="round" stroke-linejoin="round" stroke-miterlimit="10" d="
		M16.8191,57.883c0,0-2-13,10-13c3.1918,2.1279,5.9264,3.5984,9,3.5921h-0.125c3.0736,0.0063,5.8081-1.4642,9-3.5921
		c12,0,10,13,10,13"></path>
    <polygon fill="none" stroke="#000000" stroke-width="2" stroke-linecap="round" stroke-linejoin="round" stroke-miterlimit="10" points="
		31.4697,16.6382 31.4713,6.8949 34.5866,9.5465 36.0017,6.0006 37.4702,9.4101 40.3145,6.8949 40.3145,16.6382 	"></polygon>
    <path fill="none" stroke="#000000" stroke-width="2" stroke-linecap="round" stroke-linejoin="round" stroke-miterlimit="10" d="
		M26.7074,45.5127c0,0,8.353,8.1081,9.1847,12.6615l-0.0009-0.0399l-1.1954,0.0321c-7.9884,0-5.061-4.7397-5.061-4.7397
		c-8.7662,0-2.8498-8.2603-2.8498-8.2603"></path>
    <path fill="none" stroke="#000000" stroke-width="2" stroke-linecap="round" stroke-linejoin="round" stroke-miterlimit="10" d="
		M44.9413,45.5127c0,0-8.353,8.1081-9.1847,12.6615l0.0009-0.0399l1.1954,0.0321c7.9884,0,5.0609-4.7397,5.0609-4.7397
		c8.7663,0,2.8499-8.2603,2.8499-8.2603"></path>
    <path fill="none" stroke="#000000" stroke-width="2" stroke-linecap="round" stroke-linejoin="round" stroke-miterlimit="10" d="
		M44.1837,15.8194c2.6323,2.029,4.1215,5.5213,4.1007,8.3759l-0.0026,0.0005c-2.7022,2.0473-6.7361-4.9161-6.7361-4.9161
		L44.1837,15.8194z"></path>
    <path fill="none" stroke="#000000" stroke-width="2" stroke-linecap="round" stroke-linejoin="round" stroke-miterlimit="10" d="
		M47.9727,24.1953"></path>
    <path fill="none" stroke="#000000" stroke-width="2" stroke-linecap="round" stroke-linejoin="round" stroke-miterlimit="10" d="
		M25.8945,20.7444"></path>
    <path fill="none" stroke="#000000" stroke-width="2" stroke-linecap="round" stroke-linejoin="round" stroke-miterlimit="10" d="
		M28.6729,12.3492c-1.1387,0.7329-2.1947,1.5972-3.1667,2.5476c0,0-2.8375,2.382-3.9208,4.0348c0,0-1.687-0.2843-3.2671-1.7638
		c0,0-0.435,6.6434,7.5762,7.5773c0,0,2.8585,0.3058,6.1913-2.5357"></path>
    <path fill="none" stroke="#000000" stroke-width="2" stroke-linecap="round" stroke-linejoin="round" stroke-miterlimit="10" d="
		M41.8009,18.9963c-0.0034-0.463-4.7091,5.3323-15.3343,1.9899"></path>
    <path fill="none" stroke="#000000" stroke-width="2" stroke-linecap="round" stroke-linejoin="round" stroke-miterlimit="10" d="
		M44.1837,15.8194c0,0,0.7576-1.7372-1.1344-3.4702"></path>
  </g>
</svg>