<svg version="1.1" id="emoji" xmlns="http://www.w3.org/2000/svg" x="0" y="0" viewBox="0 0 72 72" enable-background="new 0 0 72 72" xml:space="preserve">
  <g id="grid">
    <path fill="#B3B3B3" d="M68,4v64H4V4H68 M72,0H0v72h72V0z"/>
    <path fill="none" stroke="#00A5FF" stroke-width="0.1" stroke-miterlimit="10" d="M12.923,10.9583h46.1539 c1.0621,0,1.9231,0.861,1.9231,1.9231l0,0v46.1538c0,1.0621-0.861,1.9231-1.9231,1.9231H12.9231 c-1.0621,0-1.9231-0.861-1.9231-1.9231l0,0V12.8813C11,11.8193,11.861,10.9583,12.923,10.9583L12.923,10.9583z"/>
    <path fill="none" stroke="#00A5FF" stroke-width="0.1" stroke-miterlimit="10" d="M18.2537,4h35.4926C54.991,4,56,5.009,56,6.2537 v59.4926C56,66.991,54.991,68,53.7463,68H18.2537C17.009,68,16,66.991,16,65.7463V6.2537C16,5.009,17.009,4,18.2537,4z"/>
    <path fill="none" stroke="#00A5FF" stroke-width="0.1" stroke-miterlimit="10" d="M68,18.2537v35.4926 C68,54.991,66.991,56,65.7463,56H6.2537C5.009,56,4,54.991,4,53.7463V18.2537C4,17.009,5.009,16,6.2537,16h59.4926 C66.991,16,68,17.009,68,18.2537z"/>
    <circle fill="none" stroke="#00A5FF" stroke-width="0.1" stroke-miterlimit="10" cx="36" cy="36" r="29"/>
  </g>
  <g id="color">
    <polygon fill="#D0CFCE" points="46.9583,12.625 50.1145,17.8102 50.1145,54.7777 41.9167,54.7777 42.205,20.7592"/>
    <polygon fill="#D0CFCE" points="25.1804,12.875 21.755,17.6799 21.755,54.6474 30.0625,54.2813 29.633,21.0195"/>
    <path fill="#F4AA41" d="M28.3148,57.4378c0,0,1.2601-31.8982,1.0101-39.8965c-0.24-7.6278,6.64-11.4654,6.64-11.4654 s6.88,3.8376,6.64,11.4654c-0.25,7.9983,1.01,39.8965,1.01,39.8965H28.3148z"/>
    <path fill="#FFFFFF" d="M39.5098,59.8696l16.0986-1.2525c0.1851-3.1745-3.2684-6.958-3.2684-6.958 c-8.25-5.9369-9.5834-9.42-9.5834-9.42L39.34,33.0566"/>
    <path fill="#FFFFFF" d="M32.4299,59.841l-16.0383-1.2239c-0.1851-3.1745,3.2684-6.958,3.2684-6.958 c8.25-5.9369,9.5834-9.42,9.5834-9.42l3.4166-9.1825"/>
    <path fill="#FFFFFF" d="M40.0299,65.778c-0.0101,0.0665-0.0101,0.1045-0.0101,0.1045h-8.1099c0,0,0-0.038-0.0101-0.114 c-0.0499-0.6744-0.2699-4.1796,0.5301-5.9275c-0.02-6.7253-0.06-29.0008,0.51-34.0069c0.66-5.918,3.0199-6.7919,3.0199-6.7919 s2.37,0.8739,3.0401,6.7919c0.56,5.0156,0.53,27.3386,0.5099,34.0355C40.2899,61.6269,40.0699,65.1226,40.0299,65.778z"/>
  </g>
  <g id="hair"/>
  <g id="skin"/>
  <g id="skin-shadow"/>
  <g id="line">
    <polyline fill="none" stroke="#000000" stroke-width="1.9493" stroke-linecap="round" stroke-linejoin="round" stroke-miterlimit="10" points="45.43,17.2598 47.7,13.1398 50.11,17.8098 50.11,49.9798"/>
    <polyline fill="none" stroke="#000000" stroke-width="1.9493" stroke-linecap="round" stroke-linejoin="round" stroke-miterlimit="10" points="21.75,50.0898 21.75,17.6798 24.17,13.0098 26.44,17.1298"/>
    <path fill="none" stroke="#000000" stroke-width="1.9493" stroke-linecap="round" stroke-linejoin="round" stroke-miterlimit="10" d="M43.09,42.8598c-0.31-9.52-0.63-20.96-0.49-25.32c0.24-7.63-6.64-11.46-6.64-11.46s-6.88,3.83-6.64,11.46 c0.14,4.38-0.18,15.9-0.49,25.45c0.31-0.49,0.41-0.75,0.41-0.75l3.36-9.01v-0.01c0.07-3.32,0.18-6.01,0.34-7.39 c0.66-5.91,3.02-6.79,3.02-6.79s2.37,0.88,3.04,6.79c0.15,1.36,0.26,3.99,0.34,7.23c0.18,7.54,0.19,18.41,0.17,24.38"/>
    <path fill="none" stroke="#000000" stroke-width="1.9493" stroke-linecap="round" stroke-linejoin="round" stroke-miterlimit="10" d="M40.1733,59.8126l15.4351-1.1955c0.1851-3.1745-3.2684-6.958-3.2684-6.958c-8.25-5.9369-9.5834-9.42-9.5834-9.42L39.34,33.0566"/>
    <path fill="none" stroke="#000000" stroke-width="1.9493" stroke-linecap="round" stroke-linejoin="round" stroke-miterlimit="10" d="M32.43,57.4398c-0.02-5.92-0.01-16.68,0.17-24.21l-3.36,9.01c0,0-0.1,0.26-0.41,0.75v0.01"/>
    <polyline fill="none" stroke="#000000" stroke-width="1.9493" stroke-linecap="round" stroke-linejoin="round" stroke-miterlimit="10" points="32.66,33.0598 32.6,33.2198 32.6,33.2298"/>
    <path fill="none" stroke="#000000" stroke-width="1.9493" stroke-linecap="round" stroke-linejoin="round" stroke-miterlimit="10" d="M28.83,42.9998c-0.73,1.16-2.61,3.61-7.08,7.09c-0.64,0.5-1.34,1.03-2.09,1.57c0,0-3.45,3.78-3.27,6.96l15.44,1.19"/>
    <path fill="none" stroke="#000000" stroke-width="1.9493" stroke-linecap="round" stroke-linejoin="round" stroke-miterlimit="10" d="M40.03,65.7798c-0.01,0.06-0.01,0.1-0.01,0.1h-8.11c0,0,0-0.04-0.0099-0.11c-0.05-0.68-0.27-4.18,0.53-5.93v-2.4 c-0.02-5.92-0.01-16.68,0.17-24.21v-0.0099c0.07-3.32,0.1801-6.01,0.34-7.39c0.66-5.91,3.02-6.79,3.02-6.79s2.37,0.88,3.04,6.79 c0.15,1.36,0.26,3.99,0.34,7.23c0.18,7.54,0.19,18.41,0.17,24.38v2.43C40.29,61.6298,40.07,65.1198,40.03,65.7798z"/>
  </g>
</svg>
