<svg id="emoji" viewBox="0 0 72 72" xmlns="http://www.w3.org/2000/svg">
  <g id="grid">
    <path fill="#b2b2b2" d="M68,4V68H4V4H68m4-4H0V72H72V0Z"/>
    <path fill="none" stroke="#00a4ff" stroke-miterlimit="10" stroke-width="0.1" d="M12.923,10.9583H59.0769A1.9231,1.9231,0,0,1,61,12.8814V59.0352a1.9231,1.9231,0,0,1-1.9231,1.9231H12.9231A1.9231,1.9231,0,0,1,11,59.0352V12.8813A1.923,1.923,0,0,1,12.923,10.9583Z"/>
    <rect x="16" y="4" rx="2.2537" width="40" height="64" fill="none" stroke="#00a4ff" stroke-miterlimit="10" stroke-width="0.1"/>
    <rect x="16" y="4" rx="2.2537" width="40" height="64" transform="translate(72) rotate(90)" fill="none" stroke="#00a4ff" stroke-miterlimit="10" stroke-width="0.1"/>
    <circle cx="36" cy="36" r="29" fill="none" stroke="#00a4ff" stroke-miterlimit="10" stroke-width="0.1"/>
  </g>
  <g id="color">
    <rect x="13.5" y="28.5" width="43" height="24" fill="#fcea2b" stroke="#fcea2b" stroke-linejoin="round"/>
    <line x1="14" x2="56" y1="47.5" y2="47.5" fill="none" stroke="#61b2e4" stroke-linejoin="round" stroke-width="2"/>
    <rect x="16.5" y="32.5" width="13" height="10" fill="#d0cfce" stroke="#d0cfce" stroke-linecap="round" stroke-linejoin="round" stroke-width="2"/>
    <rect x="40.5" y="32.5" width="13" height="10" fill="#d0cfce" stroke="#d0cfce" stroke-linecap="round" stroke-linejoin="round" stroke-width="2"/>
    <rect x="30.5" y="32.5" width="4" height="10" fill="#9b9b9a" stroke="#9b9b9a" stroke-linecap="round" stroke-linejoin="round"/>
    <rect x="35.5" y="32.5" width="4" height="10" fill="#9b9b9a" stroke="#9b9b9a" stroke-linecap="round" stroke-linejoin="round"/>
  </g>
  <g id="line">
    <path fill="none" stroke="#000" stroke-linecap="round" stroke-linejoin="round" stroke-width="2.0324" d="M14.146,29H55.854A1.146,1.146,0,0,1,57,30.146V52a0,0,0,0,1,0,0H13a0,0,0,0,1,0,0V30.146A1.146,1.146,0,0,1,14.146,29Z"/>
    <rect fill="#000" x="5" y="17" width="62" height="3" stroke="#000" stroke-linecap="round" stroke-linejoin="round" stroke-width="2"/>
    <line x1="16" x2="19" y1="19" y2="25" fill="none" stroke="#000" stroke-linecap="round" stroke-linejoin="round" stroke-width="2"/>
    <line x1="25" x2="23" y1="19" y2="25" fill="none" stroke="#000" stroke-linecap="round" stroke-linejoin="round" stroke-width="2"/>
    <line x1="43" x2="46" y1="19" y2="25" fill="none" stroke="#000" stroke-linecap="round" stroke-linejoin="round" stroke-width="2"/>
    <line x1="52" x2="50" y1="19" y2="25" fill="none" stroke="#000" stroke-linecap="round" stroke-linejoin="round" stroke-width="2"/>
    <line x1="19" x2="23" y1="25" y2="25" fill="none" stroke="#000" stroke-linecap="round" stroke-linejoin="round" stroke-width="2"/>
    <line x1="46" x2="50" y1="25" y2="25" fill="none" stroke="#000" stroke-linecap="round" stroke-linejoin="round" stroke-width="2"/>
    <line x1="48" x2="48" y1="25" y2="28" fill="none" stroke="#000" stroke-linecap="round" stroke-linejoin="round" stroke-width="2"/>
    <line x1="21" x2="21" y1="25" y2="28" fill="none" stroke="#000" stroke-linecap="round" stroke-linejoin="round" stroke-width="2"/>
    <line x1="16" x2="54" y1="43" y2="43" fill="none" stroke="#000" stroke-linecap="round" stroke-linejoin="round" stroke-width="1.9877"/>
    <line x1="16" x2="16" y1="32" y2="43" fill="none" stroke="#000" stroke-linecap="round" stroke-linejoin="round" stroke-width="1.9877"/>
    <line x1="54" x2="54" y1="32" y2="43" fill="none" stroke="#000" stroke-linecap="round" stroke-linejoin="round" stroke-width="1.9877"/>
    <line x1="16" x2="54" y1="32" y2="32" fill="none" stroke="#000" stroke-linecap="round" stroke-linejoin="round" stroke-width="1.9877"/>
    <line x1="40" x2="40" y1="33" y2="42" fill="none" stroke="#000" stroke-linecap="round" stroke-linejoin="round" stroke-width="1.9877"/>
    <line x1="30" x2="30" y1="33" y2="42" fill="none" stroke="#000" stroke-linecap="round" stroke-linejoin="round" stroke-width="1.9877"/>
    <rect x="40" y="32" width="14" height="11" fill="none" stroke="#000" stroke-linecap="round" stroke-linejoin="round" stroke-width="2"/>
    <rect x="16" y="32" width="14" height="11" fill="none" stroke="#000" stroke-linecap="round" stroke-linejoin="round" stroke-width="2"/>
    <line x1="35" x2="35" y1="32" y2="43" fill="none" stroke="#000" stroke-linecap="round" stroke-linejoin="round" stroke-width="1.9877"/>
    <rect x="30" y="32" width="5" height="11" fill="none" stroke="#000" stroke-linecap="round" stroke-linejoin="round" stroke-width="2"/>
    <rect x="35" y="32" width="5" height="11" fill="none" stroke="#000" stroke-linecap="round" stroke-linejoin="round"/>
    <line x1="30" x2="30" y1="43" y2="51" fill="none" stroke="#000" stroke-linecap="round" stroke-linejoin="round" stroke-width="2"/>
    <line x1="40" x2="40" y1="43" y2="51" fill="none" stroke="#000" stroke-linecap="round" stroke-linejoin="round" stroke-width="2"/>
  </g>
</svg>
