<svg id="emoji" xmlns="http://www.w3.org/2000/svg" viewBox="0 0 72 72">
  <g id="grid">
    <path d="M68,4V68H4V4H68m4-4H0V72H72V0Z" fill="#b3b3b3"></path>
    <path d="M12.923,10.9583H59.0769A1.9231,1.9231,0,0,1,61,12.8814V59.0352a1.9231,1.9231,0,0,1-1.9231,1.9231H12.9231A1.9231,1.9231,0,0,1,11,59.0352V12.8813A1.923,1.923,0,0,1,12.923,10.9583Z" fill="none" stroke="#00a5ff" stroke-miterlimit="10" stroke-width="0.1"></path>
    <rect x="16" y="4" width="40" height="64" rx="2.2537" fill="none" stroke="#00a5ff" stroke-miterlimit="10" stroke-width="0.1"></rect>
    <rect x="16" y="4" width="40" height="64" rx="2.2537" transform="translate(72) rotate(90)" fill="none" stroke="#00a5ff" stroke-miterlimit="10" stroke-width="0.1"></rect>
    <circle cx="36" cy="36" r="29" fill="none" stroke="#00a5ff" stroke-miterlimit="10" stroke-width="0.1"></circle>
  </g>
  <g id="color">
    <path fill="#3f3f3f" stroke="none" stroke-width="2" stroke-linecap="round" stroke-linejoin="round" stroke-miterlimit="10" d="
		M40.6875,27.0313c0-0.3452-0.3498-0.625-0.7812-0.625h-7.8125c-0.4315,0-0.7813,0.2798-0.7813,0.625v0.9375h9.375V27.0313z"></path>
    <path fill="#b1cc33" stroke="none" stroke-width="2" stroke-linecap="round" stroke-linejoin="round" stroke-miterlimit="10" d="
		M58.6563,58.8281H13.3438c-1.2891,0-2.3438-1.0547-2.3438-2.3437V29.9219c0-1.2891,1.0547-2.3438,2.3438-2.3438h45.3125
		c1.289,0,2.3437,1.0547,2.3437,2.3438v26.5625C61,57.7734,59.9453,58.8281,58.6563,58.8281z"></path>
    <path fill="#3f3f3f" stroke="none" stroke-width="2" stroke-linecap="round" stroke-linejoin="round" stroke-miterlimit="10" d="
			M20.375,33.2c0-1.1412-1.0547-2.075-2.3437-2.075H11v8.6458h9.375V33.2z"></path>
    <path fill="#9b9b9a" stroke="none" stroke-width="2" stroke-linecap="round" stroke-linejoin="round" stroke-miterlimit="10" d="
			M11,39.7708v8.6459h7.0313c1.289,0,2.3437-0.9338,2.3437-2.075v-6.5709H11z"></path>
    <path fill="#9b9b9a" stroke="none" stroke-width="2" stroke-linecap="round" stroke-linejoin="round" stroke-miterlimit="10" d="
			M51.625,39.7708v6.5709c0,1.1412,1.0547,2.075,2.3438,2.075H61v-8.6459H51.625z"></path>
    <path fill="#3f3f3f" stroke="none" stroke-width="2" stroke-linecap="round" stroke-linejoin="round" stroke-miterlimit="10" d="
			M61,31.125h-7.0312c-1.2891,0-2.3438,0.9338-2.3438,2.075v6.5708H61V31.125z"></path>
    <rect x="11" y="51.75" fill="#5c9e31" stroke="none" stroke-width="2" stroke-linecap="round" stroke-linejoin="round" stroke-miterlimit="10" width="50" height="3.8723"></rect>
    <path fill="#9b9b9a" stroke="none" stroke-width="2" stroke-linecap="round" stroke-linejoin="round" stroke-miterlimit="10" d="
			M24.2813,38.9062v5.5581c0,1.2278,1.0492,2.2232,2.3437,2.2232h4.6875c1.2945,0,2.3438-0.9954,2.3438-2.2232v-5.5581H24.2813z"></path>
    <path fill="#3f3f3f" stroke="none" stroke-width="2" stroke-linecap="round" stroke-linejoin="round" stroke-miterlimit="10" d="
			M33.6563,33.3482c0-1.2278-1.0493-2.2232-2.3438-2.2232H26.625c-1.2945,0-2.3437,0.9954-2.3437,2.2232v5.558h9.375V33.3482z"></path>
    <path fill="#3f3f3f" stroke="none" stroke-width="2" stroke-linecap="round" stroke-linejoin="round" stroke-miterlimit="10" d="
			M33.6563,33.3482c0-1.2278-1.0493-2.2232-2.3438-2.2232H26.625c-1.2945,0-2.3437,0.9954-2.3437,2.2232v5.558h9.375V33.3482z"></path>
    <path fill="#3f3f3f" stroke="none" stroke-width="2" stroke-linecap="round" stroke-linejoin="round" stroke-miterlimit="10" d="
			M47.7188,33.3482c0-1.2278-1.0493-2.2232-2.3438-2.2232h-4.6875c-1.2945,0-2.3437,0.9954-2.3437,2.2232v5.558h9.375V33.3482z"></path>
    <path fill="#9b9b9a" stroke="none" stroke-width="2" stroke-linecap="round" stroke-linejoin="round" stroke-miterlimit="10" d="
			M38.3438,38.9062v5.5581c0,1.2278,1.0492,2.2232,2.3437,2.2232h4.6875c1.2945,0,2.3438-0.9954,2.3438-2.2232v-5.5581H38.3438z"></path>
    <circle fill="#9b9b9a" stroke="none" stroke-width="2" stroke-miterlimit="10" cx="33.9509" cy="11.9557" r="2"></circle>
    <circle fill="#9b9b9a" stroke="none" stroke-width="2" stroke-miterlimit="10" cx="38.7188" cy="13.625" r="2"></circle>
  </g>
  <g id="hair">
  </g>
  <g id="skin">
  </g>
  <g id="skin-shadow">
  </g>
  <g id="line">
    <line fill="none" stroke="#000000" stroke-width="2" stroke-linecap="round" stroke-linejoin="round" stroke-miterlimit="10" x1="36" y1="26.4063" x2="36" y2="12.875"></line>
    <path fill="none" stroke="#000000" stroke-width="2" stroke-linecap="round" stroke-linejoin="round" stroke-miterlimit="10" d="
		M40.6875,27.0313c0-0.3452-0.3498-0.625-0.7812-0.625h-7.8125c-0.4315,0-0.7813,0.2798-0.7813,0.625v0.9375h9.375V27.0313z"></path>
    <path fill="none" stroke="#000000" stroke-width="2" stroke-linecap="round" stroke-linejoin="round" stroke-miterlimit="10" d="
		M58.6563,58.8281H13.3438c-1.2891,0-2.3438-1.0547-2.3438-2.3437V29.9219c0-1.2891,1.0547-2.3438,2.3438-2.3438h45.3125
		c1.289,0,2.3437,1.0547,2.3437,2.3438v26.5625C61,57.7734,59.9453,58.8281,58.6563,58.8281z"></path>
    <path fill="none" stroke="#000000" stroke-width="2" stroke-linecap="round" stroke-linejoin="round" stroke-miterlimit="10" d="
			M20.375,33.2c0-1.1412-1.0547-2.075-2.3437-2.075H11v8.6458h9.375V33.2z"></path>
    <path fill="none" stroke="#000000" stroke-width="2" stroke-linecap="round" stroke-linejoin="round" stroke-miterlimit="10" d="
			M11,39.7708v8.6459h7.0313c1.289,0,2.3437-0.9338,2.3437-2.075v-6.5709H11z"></path>
    <path fill="none" stroke="#000000" stroke-width="2" stroke-linecap="round" stroke-linejoin="round" stroke-miterlimit="10" d="
			M51.625,39.7708v6.5709c0,1.1412,1.0547,2.075,2.3438,2.075H61v-8.6459H51.625z"></path>
    <path fill="none" stroke="#000000" stroke-width="2" stroke-linecap="round" stroke-linejoin="round" stroke-miterlimit="10" d="
			M61,31.125h-7.0312c-1.2891,0-2.3438,0.9338-2.3438,2.075v6.5708H61V31.125z"></path>
    <rect x="11" y="51.75" fill="none" stroke="#000000" stroke-width="2" stroke-linecap="round" stroke-linejoin="round" stroke-miterlimit="10" width="50" height="3.8723"></rect>
    <path fill="none" stroke="#000000" stroke-width="2" stroke-linecap="round" stroke-linejoin="round" stroke-miterlimit="10" d="
			M24.2813,38.9062v5.5581c0,1.2278,1.0492,2.2232,2.3437,2.2232h4.6875c1.2945,0,2.3438-0.9954,2.3438-2.2232v-5.5581H24.2813z"></path>
    <path fill="none" stroke="#000000" stroke-width="2" stroke-linecap="round" stroke-linejoin="round" stroke-miterlimit="10" d="
			M33.6563,33.3482c0-1.2278-1.0493-2.2232-2.3438-2.2232H26.625c-1.2945,0-2.3437,0.9954-2.3437,2.2232v5.558h9.375V33.3482z"></path>
    <path fill="none" stroke="#000000" stroke-width="2" stroke-linecap="round" stroke-linejoin="round" stroke-miterlimit="10" d="
			M33.6563,33.3482c0-1.2278-1.0493-2.2232-2.3438-2.2232H26.625c-1.2945,0-2.3437,0.9954-2.3437,2.2232v5.558h9.375V33.3482z"></path>
    <path fill="none" stroke="#000000" stroke-width="2" stroke-linecap="round" stroke-linejoin="round" stroke-miterlimit="10" d="
			M47.7188,33.3482c0-1.2278-1.0493-2.2232-2.3438-2.2232h-4.6875c-1.2945,0-2.3437,0.9954-2.3437,2.2232v5.558h9.375V33.3482z"></path>
    <path fill="none" stroke="#000000" stroke-width="2" stroke-linecap="round" stroke-linejoin="round" stroke-miterlimit="10" d="
			M38.3438,38.9062v5.5581c0,1.2278,1.0492,2.2232,2.3437,2.2232h4.6875c1.2945,0,2.3438-0.9954,2.3438-2.2232v-5.5581H38.3438z"></path>
    <line fill="none" stroke="#000000" stroke-width="2" stroke-linecap="round" stroke-linejoin="round" stroke-miterlimit="10" x1="4" y1="4" x2="68" y2="21"></line>
    <circle fill="none" stroke="#000000" stroke-width="2" stroke-miterlimit="10" cx="33.9509" cy="11.9557" r="2"></circle>
    <circle fill="none" stroke="#000000" stroke-width="2" stroke-miterlimit="10" cx="38.7188" cy="13.625" r="2"></circle>
  </g>
</svg>