<svg id="emoji" viewBox="0 0 72 72" xmlns="http://www.w3.org/2000/svg">
  <g id="grid">
    <path fill="#b3b3b3" d="M68,4V68H4V4H68m4-4H0V72H72V0Z"/>
    <path fill="none" stroke="#00a5ff" stroke-miterlimit="10" stroke-width="0.1" d="M12.923,10.9583H59.0769A1.9231,1.9231,0,0,1,61,12.8814V59.0352a1.9231,1.9231,0,0,1-1.9231,1.9231H12.9231A1.9231,1.9231,0,0,1,11,59.0352V12.8813A1.923,1.923,0,0,1,12.923,10.9583Z"/>
    <rect x="16" y="4" rx="2.2537" width="40" height="64" fill="none" stroke="#00a5ff" stroke-miterlimit="10" stroke-width="0.1"/>
    <rect x="16" y="4" rx="2.2537" width="40" height="64" transform="rotate(90 36 36)" fill="none" stroke="#00a5ff" stroke-miterlimit="10" stroke-width="0.1"/>
    <circle cx="36" cy="36" r="29" fill="none" stroke="#00a5ff" stroke-miterlimit="10" stroke-width="0.1"/>
  </g>
  <g id="color">
    <path fill="#d0cfce" stroke="none" stroke-linecap="round" stroke-linejoin="round" stroke-miterlimit="10" stroke-width="2" d="M24.2814,24.4049c3.6326-3.6326,3.934-9.4125,0.8702-13.3997c-0.3699-0.4815-1.0826-0.53-1.512-0.1007L11.0003,23.5439 c-0.4196,0.4196-0.3828,1.1114,0.0737,1.4905C14.9386,28.2441,20.6405,28.0457,24.2814,24.4049z"/>
    <path fill="#3f3f3f" stroke="none" stroke-linecap="round" stroke-linejoin="round" stroke-miterlimit="10" stroke-width="2" d="M15.7278,67.7278L4.4142,56.4142c-0.3906-0.3906-0.3906-1.0237,0-1.4143l15.1005-15.1005c0.3905-0.3905,1.0236-0.3905,1.4142,0 l11.3137,11.3137c0.3905,0.3906,0.3905,1.0237,0,1.4142L17.1421,67.7278C16.7515,68.1184,16.1184,68.1184,15.7278,67.7278z"/>
    <path fill="#3f3f3f" stroke="none" stroke-linecap="round" stroke-linejoin="round" stroke-miterlimit="10" stroke-width="2" d="M51.2131,32.2426L39.8994,20.9289c-0.3905-0.3905-0.3905-1.0237,0-1.4142L54.9999,4.4142c0.3906-0.3906,1.0237-0.3906,1.4143,0 l11.3136,11.3136c0.3906,0.3906,0.3906,1.0237,0,1.4143L52.6273,32.2426C52.2368,32.6331,51.6036,32.6331,51.2131,32.2426z"/>
    <path fill="#d0cfce" stroke="none" stroke-linecap="round" stroke-linejoin="round" stroke-miterlimit="10" stroke-width="2" d="M51.9203,39.1924L39.1924,51.9203c-0.3905,0.3905-1.0237,0.3905-1.4142,0L23.636,37.7782c-0.3905-0.3905-0.3905-1.0237,0-1.4142 l12.728-12.728c0.3905-0.3905,1.0237-0.3905,1.4142,0l14.1421,14.1422C52.3108,38.1687,52.3108,38.8019,51.9203,39.1924z"/>
    <path fill="#9b9b9a" stroke="none" stroke-linecap="round" stroke-linejoin="round" stroke-miterlimit="10" stroke-width="2" d="M36.364,23.636L23.636,36.364c-0.3905,0.3905-1.0237,0.3905-1.4142,0l-4.2426-4.2427c-0.3905-0.3905-0.3905-1.0237,0-1.4142 l12.7279-12.7279c0.3905-0.3905,1.0237-0.3905,1.4142,0l4.2427,4.2426C36.7545,22.6123,36.7545,23.2455,36.364,23.636z"/>
    <path fill="#9b9b9a" stroke="none" stroke-linecap="round" stroke-linejoin="round" stroke-miterlimit="10" stroke-width="2" d="M53.3345,44.8492l-8.4853,8.4853c-0.3905,0.3905-1.0236,0.3905-1.4142,0l-2.1213-2.1213c-0.3905-0.3905-0.3905-1.0237,0-1.4142 l8.4853-8.4853c0.3905-0.3905,1.0237-0.3905,1.4142,0l2.1213,2.1213C53.725,43.8256,53.725,44.4587,53.3345,44.8492z"/>
    <ellipse cx="12.3223" cy="12.3223" rx="2" ry="2" transform="rotate(-45.001 12.322 12.323)" fill="#3f3f3f" stroke="none" stroke-linecap="round" stroke-linejoin="round" stroke-miterlimit="10" stroke-width="2"/>
  </g>
  <g id="hair"/>
  <g id="skin"/>
  <g id="skin-shadow"/>
  <g id="line">
    <line x1="45.5" x2="43.07" y1="26.5" y2="28.93" fill="none" stroke="#000000" stroke-miterlimit="10" stroke-width="2"/>
    <polyline fill="none" stroke="#000000" stroke-miterlimit="10" stroke-width="2" points="28.93,43.07 26.52,45.49 26,46"/>
    <line x1="12" x2="12" y1="14" y2="22" fill="none" stroke="#000000" stroke-miterlimit="10" stroke-width="2"/>
    <line x1="23" x2="14" y1="12" y2="12" fill="none" stroke="#000000" stroke-miterlimit="10" stroke-width="2"/>
    <path fill="none" stroke="#000000" stroke-linecap="round" stroke-linejoin="round" stroke-miterlimit="10" stroke-width="2" d="M24.2814,24.4049c3.6326-3.6326,3.934-9.4125,0.8702-13.3997c-0.3699-0.4815-1.0826-0.53-1.512-0.1007L11.0003,23.5439 c-0.4196,0.4196-0.3828,1.1114,0.0737,1.4905C14.9386,28.2441,20.6405,28.0457,24.2814,24.4049z"/>
    <path fill="none" stroke="#000000" stroke-linecap="round" stroke-linejoin="round" stroke-miterlimit="10" stroke-width="2" d="M15.7278,67.7278L4.4142,56.4142c-0.3906-0.3906-0.3906-1.0237,0-1.4143l15.1005-15.1005c0.3905-0.3905,1.0236-0.3905,1.4142,0 l11.3137,11.3137c0.3905,0.3906,0.3905,1.0237,0,1.4142L17.1421,67.7278C16.7515,68.1184,16.1184,68.1184,15.7278,67.7278z"/>
    <path fill="none" stroke="#000000" stroke-linecap="round" stroke-linejoin="round" stroke-miterlimit="10" stroke-width="2" d="M51.2131,32.2426L39.8994,20.9289c-0.3905-0.3905-0.3905-1.0237,0-1.4142L54.9999,4.4142c0.3906-0.3906,1.0237-0.3906,1.4143,0 l11.3136,11.3136c0.3906,0.3906,0.3906,1.0237,0,1.4143L52.6273,32.2426C52.2368,32.6331,51.6036,32.6331,51.2131,32.2426z"/>
    <path fill="none" stroke="#000000" stroke-linecap="round" stroke-linejoin="round" stroke-miterlimit="10" stroke-width="2" d="M51.9203,39.1924L39.1924,51.9203c-0.3905,0.3905-1.0237,0.3905-1.4142,0L23.636,37.7782c-0.3905-0.3905-0.3905-1.0237,0-1.4142 l12.728-12.728c0.3905-0.3905,1.0237-0.3905,1.4142,0l14.1421,14.1422C52.3108,38.1687,52.3108,38.8019,51.9203,39.1924z"/>
    <path fill="none" stroke="#000000" stroke-linecap="round" stroke-linejoin="round" stroke-miterlimit="10" stroke-width="2" d="M36.364,23.636L23.636,36.364c-0.3905,0.3905-1.0237,0.3905-1.4142,0l-4.2426-4.2427c-0.3905-0.3905-0.3905-1.0237,0-1.4142 l12.7279-12.7279c0.3905-0.3905,1.0237-0.3905,1.4142,0l4.2427,4.2426C36.7545,22.6123,36.7545,23.2455,36.364,23.636z"/>
    <path fill="none" stroke="#000000" stroke-linecap="round" stroke-linejoin="round" stroke-miterlimit="10" stroke-width="2" d="M53.3345,44.8492l-8.4853,8.4853c-0.3905,0.3905-1.0236,0.3905-1.4142,0l-2.1213-2.1213c-0.3905-0.3905-0.3905-1.0237,0-1.4142 l8.4853-8.4853c0.3905-0.3905,1.0237-0.3905,1.4142,0l2.1213,2.1213C53.725,43.8256,53.725,44.4587,53.3345,44.8492z"/>
    <ellipse cx="12.3223" cy="12.3223" rx="2" ry="2" transform="rotate(-45.001 12.322 12.323)" fill="none" stroke="#000000" stroke-linecap="round" stroke-linejoin="round" stroke-miterlimit="10" stroke-width="2"/>
  </g>
</svg>
