<?xml version="1.0" encoding="UTF-8"?>
<svg id="emoji" xmlns="http://www.w3.org/2000/svg" viewBox="0 0 72 72">
  <g id="grid">
    <path d="m68,4.4067v64H4V4.4067h64m4-4H0v72h72V.4067Z" fill="#b3b3b3"/>
    <path d="m12.923,11.365h46.1539c1.0621,0,1.9231.861,1.9231,1.9231h0v46.1538c0,1.0621-.861,1.9231-1.9231,1.9231H12.9231c-1.0621,0-1.9231-.861-1.9231-1.9231h0V13.288c0-1.062.861-1.923,1.923-1.923h0Z" fill="none" stroke="#00a5ff" stroke-miterlimit="10" stroke-width=".1"/>
    <rect x="16" y="4.4067" width="40" height="64" rx="2.2537" ry="2.2537" fill="none" stroke="#00a5ff" stroke-miterlimit="10" stroke-width=".1"/>
    <rect x="4" y="16.4067" width="64" height="40" rx="2.2537" ry="2.2537" fill="none" stroke="#00a5ff" stroke-miterlimit="10" stroke-width=".1"/>
    <circle cx="36" cy="36.4067" r="29" fill="none" stroke="#00a5ff" stroke-miterlimit="10" stroke-width=".1"/>
  </g>
  <g id="color">
    <polygon points="38.6069 58.9361 59.6924 32.9366 39.8577 29.9882 13.5009 33.294 32.7995 59.2041 38.6069 58.9361" fill="#fff"/>
    <path d="m60.709,28.9912c-1.9879-11.9821-12.4224-20.7206-24.5674-20.5742-13.7193,0-24.841,10.88-24.841,24.3005,0,0,3.0573-1.8827,5.1108-.2893.2137.1642.5015.1942.7445.0778,3.2218-1.543,6.9739-1.5198,10.1763.0629.167.0925.3642.1141.5473.06,1.5773-.4857,9.6051-2.708,16.679-.0346.2018.0755.4263.0605.6163-.0411,3.196-1.5665,6.9329-1.5849,10.1442-.05.2478.1179.5409.0858.7574-.0829,2.0348-1.5919,4.906.1853,4.906.1853" fill="#b1cc33"/>
    <path d="m55.72,32.5682c-4.4638-25.4955-19.5784-24.1512-19.5784-24.1512,0,0,7.76.7192,8.73,24.2229,3.2933-2.1354,7.5271-2.1634,10.8484-.0717Z" fill="#5c9e31"/>
    <path d="m56.3414,31.952c1.6572-.05,3.4387-.54,5.5345.6879,0-20.2924-21.8072-23.19-21.8072-23.19,0,0,4.8854,1.1285,9.3779,6.7089l6.8948,15.7932Z" fill="#5c9e31"/>
    <rect x="32.0805" y="58.353" width="6.5859" height="6.5859" rx="1.4199" ry="1.4199"/>
  </g>
  <g id="line">
    <path d="m60.9824,32.6058l-22.316,27.1671" fill="none" stroke="#000" stroke-linecap="round" stroke-linejoin="round" stroke-width="2"/>
    <path d="m60.709,28.9912c-1.9879-11.9821-12.4224-20.7206-24.5674-20.5742-13.7193,0-24.841,10.88-24.841,24.3005,0,0,3.0573-1.8827,5.1108-.2893.2137.1642.5015.1942.7445.0778,3.2218-1.543,6.9739-1.5198,10.1763.0629.167.0925.3642.1141.5473.06,1.5773-.4857,9.6051-2.708,16.679-.0346.2018.0755.4263.0605.6163-.0411,3.196-1.5665,6.9329-1.5849,10.1442-.05.2478.1179.5409.0858.7574-.0829,2.0348-1.5919,4.906.1853,4.906.1853" fill="none" stroke="#000" stroke-linecap="round" stroke-linejoin="round" stroke-width="2"/>
    <path d="m16.7606,32.57c4.4636-25.4954,19.381-24.153,19.381-24.153,0,0-7.5643.7338-8.5346,24.2376l6.78,25.0408" fill="none" stroke="#000" stroke-linecap="round" stroke-linejoin="round" stroke-width="2"/>
    <path d="m44.8716,32.64l-7.6251,25.713" fill="none" stroke="#000" stroke-linecap="round" stroke-linejoin="round" stroke-width="2"/>
    <path d="m55.72,32.5682c-4.4638-25.4955-19.5784-24.1512-19.5784-24.1512,0,0,7.76.7192,8.73,24.2229" fill="none" stroke="#000" stroke-linecap="round" stroke-linejoin="round" stroke-width="2"/>
    <line x1="16.7606" y1="32.6598" x2="33.5004" y2="58.353" fill="none" stroke="#000" stroke-linecap="round" stroke-linejoin="round" stroke-width="2"/>
    <line x1="55.7199" y1="32.6898" x2="37.2465" y2="58.353" fill="none" stroke="#000" stroke-linecap="round" stroke-linejoin="round" stroke-width="2"/>
    <polyline points="32.0805 59.7729 11.3006 32.7175 32.0805 59.7729" fill="none" stroke="#000" stroke-linecap="round" stroke-linejoin="round" stroke-width="2"/>
    <rect x="32.0805" y="58.353" width="6.5859" height="6.5859" rx="1.4199" ry="1.4199" fill="none" stroke="#000" stroke-linecap="round" stroke-linejoin="round" stroke-width="2"/>
  </g>
</svg>