<svg id="emoji" viewBox="0 0 72 72" xmlns="http://www.w3.org/2000/svg">
  <g id="grid">
    <path fill="#b3b3b3" d="M68,4V68H4V4H68m4-4H0V72H72V0Z"/>
    <path fill="none" stroke="#00a5ff" stroke-miterlimit="10" stroke-width="0.1" d="M12.923,10.9583H59.077A1.923,1.923,0,0,1,61,12.8813V59.0352a1.9231,1.9231,0,0,1-1.9231,1.9231H12.9231A1.9231,1.9231,0,0,1,11,59.0352V12.8813a1.923,1.923,0,0,1,1.923-1.923Z"/>
    <rect x="16" y="4" rx="2.2537" width="40" height="64" fill="none" stroke="#00a5ff" stroke-miterlimit="10" stroke-width="0.1"/>
    <rect x="16" y="4" rx="2.2537" width="40" height="64" transform="rotate(90 36 36)" fill="none" stroke="#00a5ff" stroke-miterlimit="10" stroke-width="0.1"/>
    <circle cx="36" cy="36" r="29" fill="none" stroke="#00a5ff" stroke-miterlimit="10" stroke-width="0.1"/>
  </g>
  <g id="color">
    <path fill="#fcea2b" d="M12.2856,36a24,24,0,1,0,24-24A24.0272,24.0272,0,0,0,12.2856,36Z"/>
    <path fill="#92d3f5" d="M19.683,55.2042c-.165,0-.33-.0069-.4951-.02a6.0679,6.0679,0,0,1-5.5606-6.52c.3887-4.8672,5.2237-9.0215,5.4288-9.1963a1.9057,1.9057,0,0,1,1.42-.459,1.9411,1.9411,0,0,1,1.331.6788c.4405.52,4.28,5.1943,3.9024,9.9355A6.02,6.02,0,0,1,23.6,53.7559h0A6.0065,6.0065,0,0,1,19.683,55.2042Z"/>
  </g>
  <g id="line">
    <path d="M48.2846,35.1737a3,3,0,1,1-3-3A3.0011,3.0011,0,0,1,48.2846,35.1737Z"/>
    <path d="M30.2846,35.1737a3,3,0,1,1-3-3A3.0011,3.0011,0,0,1,30.2846,35.1737Z"/>
    <path fill="none" stroke="#000" stroke-linecap="round" stroke-linejoin="round" stroke-width="2" d="M25.4512,56.2934a22.9635,22.9635,0,1,0-11.3767-14.299"/>
    <path fill="none" stroke="#000" stroke-miterlimit="10" stroke-width="2" d="M22.9511,52.9953a5.0262,5.0262,0,0,0,1.7615-3.45c.3532-4.4362-3.5025-9.0145-3.6667-9.2071a.9522.9522,0,0,0-1.3428-.1068c-.1929.1645-4.7241,4.0753-5.0783,8.5123l0,0a5.0608,5.0608,0,0,0,8.3267,4.2513Z"/>
    <path fill="none" stroke="#000" stroke-linecap="round" stroke-linejoin="round" stroke-width="2" d="M42.7856,46a12.4489,12.4489,0,0,0-6.8422-1.8532A10.3886,10.3886,0,0,0,29.7856,46"/>
    <path fill="none" stroke="#000" stroke-linecap="round" stroke-linejoin="round" stroke-width="2" d="M51.4223,26.2978a7.4028,7.4028,0,0,1-5.3048-.3243,7.4,7.4,0,0,1-4.11-3.4111"/>
    <path fill="none" stroke="#000" stroke-linecap="round" stroke-linejoin="round" stroke-width="2" d="M21.1854,26.2871a8.44,8.44,0,0,0,9.413-3.7176"/>
  </g>
</svg>
