<svg id="emoji" xmlns="http://www.w3.org/2000/svg" viewBox="0 0 72 72">
  <g id="grid">
    <path fill="#B3B3B3" d="M68,4v64H4V4H68 M72,0H0v72h72V0z"/>
    <path fill="none" stroke="#00A5FF" stroke-width="0.1" stroke-miterlimit="10" d="M12.923,10.9583h46.1539 c1.0621,0,1.9231,0.861,1.9231,1.9231v0v46.1538c0,1.0621-0.861,1.9231-1.9231,1.9231H12.9231 c-1.0621,0-1.9231-0.861-1.9231-1.9231l0,0V12.8813C11,11.8193,11.861,10.9583,12.923,10.9583L12.923,10.9583z"/>
    <path fill="none" stroke="#00A5FF" stroke-width="0.1" stroke-miterlimit="10" d="M18.2537,4h35.4926C54.991,4,56,5.009,56,6.2537 v59.4926C56,66.991,54.991,68,53.7463,68H18.2537C17.009,68,16,66.991,16,65.7463V6.2537C16,5.009,17.009,4,18.2537,4z"/>
    <path fill="none" stroke="#00A5FF" stroke-width="0.1" stroke-miterlimit="10" d="M68,18.2537v35.4926 C68,54.991,66.991,56,65.7463,56H6.2537C5.009,56,4,54.991,4,53.7463V18.2537C4,17.009,5.009,16,6.2537,16h59.4926 C66.991,16,68,17.009,68,18.2537z"/>
    <circle fill="none" stroke="#00A5FF" stroke-width="0.1" stroke-miterlimit="10" cx="36" cy="36" r="29"/>
  </g>
  <g id="color">
    <g id="color_1_">
      <path fill="#FCEA2B" d="M36,12c-13.2337,0-24,10.7663-24,24c0,13.2336,10.7663,24,24,24c13.2336,0,24-10.7664,24-24 C60,22.7663,49.2336,12,36,12z"/>
    </g>
    <path fill="#FFFFFF" d="M31.4626,32.4626c0,2.4645-2.0004,4.4626-4.4626,4.4626s-4.4626-1.9981-4.4626-4.4626 C22.5374,30.0004,24.5378,28,27,28S31.4626,30.0004,31.4626,32.4626"/>
    <path fill="#FFFFFF" d="M49.4626,32.4626c0,2.4645-2.0004,4.4626-4.4626,4.4626s-4.4626-1.9981-4.4626-4.4626 C40.5374,30.0004,42.5378,28,45,28S49.4626,30.0004,49.4626,32.4626"/>
    <path fill="#92D3F5" d="M24.8117,10.5867c0.1789,0.1789,4.3858,4.4369,4.3857,8.8871c0,2.7193-2.2652,4.9237-5.0594,4.9237 s-5.0594-2.2044-5.0594-4.9237c-0.0001-4.4502,4.2068-8.7082,4.3857-8.8871c0.3722-0.3722,0.975-0.372,1.347,0H24.8117z"/>
  </g>
  <g id="hair"/>
  <g id="skin"/>
  <g id="skin-shadow"/>
  <g id="line">
    <path fill="none" stroke="#000000" stroke-width="2" stroke-miterlimit="10" d="M31.4626,32.4626 c0,2.4645-2.0004,4.4626-4.4626,4.4626s-4.4626-1.9981-4.4626-4.4626C22.5374,30.0004,24.5378,28,27,28 S31.4626,30.0004,31.4626,32.4626"/>
    <path d="M29,32.9252c0,1.1045-0.8965,2-2,2s-2-0.8955-2-2c0-1.1035,0.8965-2,2-2C28.1035,30.9252,29,31.8217,29,32.9252"/>
    <path fill="none" stroke="#000000" stroke-width="2" stroke-miterlimit="10" d="M49.4626,32.4626 c0,2.4645-2.0004,4.4626-4.4626,4.4626s-4.4626-1.9981-4.4626-4.4626C40.5374,30.0004,42.5378,28,45,28 S49.4626,30.0004,49.4626,32.4626"/>
    <path d="M47,32.9252c0,1.1045-0.8965,2-2,2s-2-0.8955-2-2c0-1.1035,0.8965-2,2-2C46.1035,30.9252,47,31.8217,47,32.9252"/>
    <path d="M22.5374,32c0-2.4622,2.0004-4.4626,4.4626-4.4626S31.4626,29.5378,31.4626,32"/>
    <path d="M31.7799,32"/>
    <path d="M40.5374,32c0-2.4622,2.0004-4.4626,4.4626-4.4626S49.4626,29.5378,49.4626,32"/>
    <path d="M49.7799,32"/>
    <path fill="none" stroke="#000000" stroke-width="2" stroke-linecap="round" stroke-linejoin="round" stroke-miterlimit="10" d="M28,47c1.5805-2.5575,4.9043-4.1349,8.4211-4.0038C39.6499,43.1166,42.5622,44.6595,44,47"/>
    <path fill="none" stroke="#000000" stroke-width="2" stroke-linecap="round" stroke-miterlimit="10" d="M32.0757,13.3335 C33.3509,13.1142,34.6621,13,36,13c12.7025,0,23,10.2975,23,23S48.7025,59,36,59S13,48.7025,13,36 c0-4.2618,1.1591-8.2528,3.1793-11.675"/>
    <path fill="none" stroke="#000000" stroke-width="2" stroke-miterlimit="10" d="M24.8117,10.5867 c0.1789,0.1789,4.3858,4.4369,4.3857,8.8871c0,2.7193-2.2652,4.9237-5.0594,4.9237s-5.0594-2.2044-5.0594-4.9237 c-0.0001-4.4502,4.2068-8.7082,4.3857-8.8871c0.3722-0.3722,0.975-0.372,1.347,0H24.8117z"/>
  </g>
</svg>
