<svg id="emoji" version="1.1" viewBox="0 0 72 72" xmlns="http://www.w3.org/2000/svg">
 <g id="grid">
  <path d="M68,4V68H4V4H68m4-4H0V72H72V0Z" fill="#b3b3b3"/>
  <path d="M12.923,10.9583H59.077A1.923,1.923,0,0,1,61,12.8813V59.0352a1.9231,1.9231,0,0,1-1.9231,1.9231H12.9231A1.9231,1.9231,0,0,1,11,59.0352V12.8813a1.923,1.923,0,0,1,1.923-1.923Z" fill="none" stroke="#00a5ff" stroke-miterlimit="10" stroke-width=".1"/>
  <rect x="16" y="4" width="40" height="64" rx="2.2537" fill="none" stroke="#00a5ff" stroke-miterlimit="10" stroke-width=".1"/>
  <rect transform="rotate(90 36 36)" x="16" y="4" width="40" height="64" rx="2.2537" fill="none" stroke="#00a5ff" stroke-miterlimit="10" stroke-width=".1"/>
  <circle cx="36" cy="36" r="29" fill="none" stroke="#00a5ff" stroke-miterlimit="10" stroke-width=".1"/>
 </g>
 <g id="line-supplement">
  <path d="m42.847 45.658c0-2.592-3.834-4.694-6.869-4.694s-6.869 2.101-6.869 4.694 3.659 0.9248 6.694 0.9248 7.044 1.6669 7.044-0.9248z"/>
 </g>
 <g id="color">
  <path d="m35.977 12.958a23 23 0 1 0 23 23 23.026 23.026 0 0 0-23-23z" fill="#fcea2b"/>
  <path d="m42.847 45.658c0-2.592-3.834-4.694-6.869-4.694s-6.869 2.101-6.869 4.694 3.659 0.9248 6.694 0.9248 7.044 1.6669 7.044-0.9248z"/>
 </g>
 <g id="line">
  <path d="m29.356 22.669a8.44 8.44 0 0 0-9.0659 4.4981" fill="none" stroke="#000" stroke-linecap="round" stroke-linejoin="round" stroke-width="2"/>
  <path d="m51.664 27.167a8.44 8.44 0 0 0-9.0659-4.4981" fill="none" stroke="#000" stroke-linecap="round" stroke-linejoin="round" stroke-width="2"/>
  <circle cx="35.977" cy="35.958" r="23" fill="none" stroke="#000" stroke-miterlimit="10" stroke-width="2"/>
  <path d="m42.847 45.658c0-2.592-3.834-4.694-6.869-4.694s-6.869 2.101-6.869 4.694 3.659 0.9248 6.694 0.9248 7.044 1.6669 7.044-0.9248z" fill="none" stroke="#000" stroke-miterlimit="10" stroke-width="2"/>
  <path d="m29.977 32.958a3 3 0 1 1-3-3 3.0011 3.0011 0 0 1 3 3"/>
  <path d="m47.977 32.958a3 3 0 1 1-3-3 3.0011 3.0011 0 0 1 3 3"/>
 </g>
</svg>
