<svg id="emoji" viewBox="0 0 72 72" xmlns="http://www.w3.org/2000/svg">
  <g id="grid">
    <path fill="#b3b3b3" d="M68,4V68H4V4H68m4-4H0V72H72V0Z"/>
    <path fill="none" stroke="#00a5ff" stroke-miterlimit="10" stroke-width="0.1" d="M12.923,10.9583H59.077A1.923,1.923,0,0,1,61,12.8813V59.0352a1.9231,1.9231,0,0,1-1.9231,1.9231H12.9231A1.9231,1.9231,0,0,1,11,59.0352V12.8813a1.923,1.923,0,0,1,1.923-1.923Z"/>
    <rect x="16" y="4" rx="2.2537" width="40" height="64" fill="none" stroke="#00a5ff" stroke-miterlimit="10" stroke-width="0.1"/>
    <rect x="16" y="4" rx="2.2537" width="40" height="64" transform="rotate(90 36 36)" fill="none" stroke="#00a5ff" stroke-miterlimit="10" stroke-width="0.1"/>
    <circle cx="36" cy="36" r="29" fill="none" stroke="#00a5ff" stroke-miterlimit="10" stroke-width="0.1"/>
  </g>
  <g id="line-supplement">
    <path d="M42.8472,45.6583c0-2.592-3.834-4.694-6.869-4.694s-6.869,2.101-6.869,4.694,3.659.9248,6.694.9248S42.8472,48.25,42.8472,45.6583Z"/>
  </g>
  <g id="color">
    <path fill="#fcea2b" d="M35.9772,12.9583a23,23,0,1,0,23,23A23.026,23.026,0,0,0,35.9772,12.9583Z"/>
    <path fill="#92d3f5" d="M35.9772,24.7689A23.0392,23.0392,0,0,1,58.2053,41.8636a23,23,0,1,0-44.4561,0A23.0389,23.0389,0,0,1,35.9772,24.7689Z"/>
    <path d="M42.8472,45.6583c0-2.592-3.834-4.694-6.869-4.694s-6.869,2.101-6.869,4.694,3.659.9248,6.694.9248S42.8472,48.25,42.8472,45.6583Z"/>
  </g>
  <g id="line">
    <path fill="none" stroke="#000" stroke-linecap="round" stroke-linejoin="round" stroke-width="2" d="M29.3564,22.669a8.44,8.44,0,0,0-9.0659,4.4981"/>
    <path fill="none" stroke="#000" stroke-linecap="round" stroke-linejoin="round" stroke-width="2" d="M51.664,27.1671a8.44,8.44,0,0,0-9.0659-4.4981"/>
    <circle cx="35.9772" cy="35.9583" r="23" fill="none" stroke="#000" stroke-miterlimit="10" stroke-width="2"/>
    <path fill="none" stroke="#000" stroke-miterlimit="10" stroke-width="2" d="M42.8472,45.6583c0-2.592-3.834-4.694-6.869-4.694s-6.869,2.101-6.869,4.694,3.659.9248,6.694.9248S42.8472,48.25,42.8472,45.6583Z"/>
    <path d="M29.9772,32.9583a3,3,0,1,1-3-3,3.0011,3.0011,0,0,1,3,3"/>
    <path d="M47.9772,32.9583a3,3,0,1,1-3-3,3.0011,3.0011,0,0,1,3,3"/>
  </g>
</svg>
