<svg id="emoji" xmlns="http://www.w3.org/2000/svg" viewBox="0 0 72 72">
  <g id="grid">
    <path fill="#B3B3B3" d="M68,4v64H4V4H68 M72,0H0v72h72V0z"/>
    <path fill="none" stroke="#00A5FF" stroke-width="0.1" stroke-miterlimit="10" d="M12.923,10.9583h46.1539 c1.0621,0,1.9231,0.861,1.9231,1.9231v0v46.1538c0,1.0621-0.861,1.9231-1.9231,1.9231H12.9231 c-1.0621,0-1.9231-0.861-1.9231-1.9231l0,0V12.8813C11,11.8193,11.861,10.9583,12.923,10.9583L12.923,10.9583z"/>
    <path fill="none" stroke="#00A5FF" stroke-width="0.1" stroke-miterlimit="10" d="M18.2537,4h35.4926C54.991,4,56,5.009,56,6.2537 v59.4926C56,66.991,54.991,68,53.7463,68H18.2537C17.009,68,16,66.991,16,65.7463V6.2537C16,5.009,17.009,4,18.2537,4z"/>
    <path fill="none" stroke="#00A5FF" stroke-width="0.1" stroke-miterlimit="10" d="M68,18.2537v35.4926 C68,54.991,66.991,56,65.7463,56H6.2537C5.009,56,4,54.991,4,53.7463V18.2537C4,17.009,5.009,16,6.2537,16h59.4926 C66.991,16,68,17.009,68,18.2537z"/>
    <circle fill="none" stroke="#00A5FF" stroke-width="0.1" stroke-miterlimit="10" cx="36" cy="36" r="29"/>
  </g>
  <g id="color">
    <circle fill="#FCEA2B" cx="36" cy="36" r="24"/>
    <path fill="#92D3F5" d="M9.2458,27.724c-0.2538-1.041-0.087-2.1185,0.4698-3.0339c1.8322-3.0136,6.4342-4.1651,6.629-4.2126 c0.4053-0.0988,0.8134,0.1495,0.9122,0.5546c0.0476,0.1952,1.1432,4.8107-0.6888,7.8253l0.0001,0.0004 c-1.1491,1.888-3.6208,2.4902-5.5094,1.3416C10.1434,29.6445,9.4996,28.765,9.2458,27.724z"/>
  </g>
  <g id="hair"/>
  <g id="skin"/>
  <g id="skin-shadow"/>
  <g id="line">
    <path d="M30,31c0,1.6568-1.3448,3-3,3c-1.6553,0-3-1.3433-3-3c0-1.6552,1.3447-3,3-3C28.6552,28,30,29.3448,30,31"/>
    <path d="M48,31c0,1.6568-1.3447,3-3,3s-3-1.3433-3-3c0-1.6552,1.3447-3,3-3S48,29.3448,48,31"/>
    <path fill="none" stroke="#000000" stroke-width="2" stroke-linecap="round" stroke-linejoin="round" stroke-miterlimit="10" d="M26.5,48c1.8768-3.8326,5.8239-6.1965,10-6c3.8343,0.1804,7.2926,2.4926,9,6"/>
    <path fill="none" stroke="#000000" stroke-width="2" stroke-linecap="round" stroke-linejoin="round" stroke-miterlimit="10" d="M23.1483,24.2501c0.4872,0.2275,2.6277,1.1608,5.1639,0.3327c2.0576-0.6718,3.1771-2.1117,3.5396-2.6239"/>
    <path fill="none" stroke="#000000" stroke-width="2" stroke-linecap="round" stroke-linejoin="round" stroke-miterlimit="10" d="M48.8517,24.2501c-0.4872,0.2275-2.6277,1.1608-5.1639,0.3327c-2.0576-0.6718-3.1771-2.1117-3.5396-2.6239"/>
    <path fill="none" stroke="#000000" stroke-width="2" stroke-miterlimit="10" d="M9.2458,27.724 c-0.2538-1.041-0.087-2.1185,0.4698-3.0339c1.8322-3.0136,6.4342-4.1651,6.629-4.2126c0.4053-0.0988,0.8134,0.1495,0.9122,0.5546 c0.0476,0.1952,1.1432,4.8107-0.6888,7.8253l0.0001,0.0004c-1.1491,1.888-3.6208,2.4902-5.5094,1.3416 C10.1434,29.6445,9.4996,28.765,9.2458,27.724z"/>
    <path fill="none" stroke="#000000" stroke-width="2" stroke-linecap="round" stroke-miterlimit="10" d="M21.9967,17.7451 c3.8787-2.9798,8.7341-4.7512,14.0033-4.7512c12.7059,0,23.0061,10.3002,23.0061,23.0061S48.7059,59.0061,36,59.0061 S12.9939,48.7059,12.9939,36c0-0.396,0.01-0.7896,0.0298-1.1807"/>
  </g>
</svg>
