<svg id="emoji" version="1.1" viewBox="0 0 72 72" xmlns="http://www.w3.org/2000/svg">
 <g id="grid">
  <path d="M68,4v64H4V4H68 M72,0H0v72h72V0z" fill="#B3B3B3"/>
  <path d="m12.923 10.958h46.154c1.0621 0 1.9231 0.861 1.9231 1.9231v46.154c0 1.0621-0.861 1.9231-1.9231 1.9231h-46.154c-1.0621 0-1.9231-0.861-1.9231-1.9231v-46.154c0-1.062 0.861-1.923 1.923-1.923z" fill="none" stroke="#00A5FF" stroke-miterlimit="10" stroke-width=".1"/>
  <path d="M18.2537,4h35.4926C54.991,4,56,5.009,56,6.2537 v59.4926C56,66.991,54.991,68,53.7463,68H18.2537C17.009,68,16,66.991,16,65.7463V6.2537C16,5.009,17.009,4,18.2537,4z" fill="none" stroke="#00A5FF" stroke-miterlimit="10" stroke-width=".1"/>
  <path d="M68,18.2537v35.4926 C68,54.991,66.991,56,65.7463,56H6.2537C5.009,56,4,54.991,4,53.7463V18.2537C4,17.009,5.009,16,6.2537,16h59.4926 C66.991,16,68,17.009,68,18.2537z" fill="none" stroke="#00A5FF" stroke-miterlimit="10" stroke-width=".1"/>
  <circle cx="36" cy="36" r="29" fill="none" stroke="#00A5FF" stroke-miterlimit="10" stroke-width=".1"/>
 </g>
 <g id="line-supplement">
  <path d="m41.004 46.432h-10.008a5.2452 6.5383 0 0 0-0.24024 1.9629 5.2452 6.5383 0 0 0 5.2441 6.5391 5.2452 6.5383 0 0 0 5.2461-6.5391 5.2452 6.5383 0 0 0-0.24219-1.9629z"/>
 </g>
 <g id="color">
  <circle cx="36" cy="36" r="23" fill="#FCEA2B"/>
  <ellipse cx="36" cy="48.395" rx="5.2452" ry="6.5383" fill="#fff"/>
  <path d="m41.004 46.432h-10.008a5.2452 6.5383 0 0 0-0.24024 1.9629 5.2452 6.5383 0 0 0 5.2441 6.5391 5.2452 6.5383 0 0 0 5.2461-6.5391 5.2452 6.5383 0 0 0-0.24219-1.9629z" style=""/>
 </g>
 <g id="line">
  <circle cx="36" cy="36" r="23" fill="none" stroke="#000" stroke-linecap="round" stroke-linejoin="round" stroke-miterlimit="10" stroke-width="2"/>
  <path d="m20.695 27.2c0.7207-1.3857 1.9278-2.4541 3.3907-3 1.4052-0.7002 3.0205-0.8486 4.5302-0.4209" fill="none" stroke="#000" stroke-linecap="round" stroke-linejoin="round" stroke-miterlimit="10" stroke-width="2"/>
  <path d="m51.305 27.2c-1.582-2.7724-4.8037-4.1699-7.9092-3.4306" fill="none" stroke="#000" stroke-linecap="round" stroke-linejoin="round" stroke-miterlimit="10" stroke-width="2"/>
  <ellipse cx="36" cy="48.395" rx="5.2452" ry="6.5383" fill="none" stroke="#000" stroke-linecap="round" stroke-linejoin="round" stroke-miterlimit="10" stroke-width="2"/>
  <path d="m30 35c0 1.6568-1.3448 3-3 3-1.6553 0-3-1.3433-3-3 0-1.6552 1.3447-3 3-3 1.6552 0 3 1.3448 3 3"/>
  <path d="m48 35c0 1.6568-1.3447 3-3 3s-3-1.3433-3-3c0-1.6552 1.3447-3 3-3s3 1.3448 3 3"/>
 </g>
</svg>
