<svg id="emoji" xmlns="http://www.w3.org/2000/svg" viewBox="0 0 72 72">
  <g id="grid">
    <path fill="#B3B3B3" d="M68,4v64H4V4H68 M72,0H0v72h72V0z"/>
    <path fill="none" stroke="#00A5FF" stroke-width="0.1" stroke-miterlimit="10" d="M12.923,10.9583h46.1539 c1.0621,0,1.9231,0.861,1.9231,1.9231l0,0v46.1538c0,1.0621-0.861,1.9231-1.9231,1.9231H12.9231 c-1.0621,0-1.9231-0.861-1.9231-1.9231l0,0V12.8813C11,11.8193,11.861,10.9583,12.923,10.9583L12.923,10.9583z"/>
    <path fill="none" stroke="#00A5FF" stroke-width="0.1" stroke-miterlimit="10" d="M18.2537,4h35.4926C54.991,4,56,5.009,56,6.2537 v59.4926C56,66.991,54.991,68,53.7463,68H18.2537C17.009,68,16,66.991,16,65.7463V6.2537C16,5.009,17.009,4,18.2537,4z"/>
    <path fill="none" stroke="#00A5FF" stroke-width="0.1" stroke-miterlimit="10" d="M68,18.2537v35.4926 C68,54.991,66.991,56,65.7463,56H6.2537C5.009,56,4,54.991,4,53.7463V18.2537C4,17.009,5.009,16,6.2537,16h59.4926 C66.991,16,68,17.009,68,18.2537z"/>
    <circle fill="none" stroke="#00A5FF" stroke-width="0.1" stroke-miterlimit="10" cx="36" cy="36" r="29"/>
  </g>
  <g id="line-supplement">
    <line fill="none" stroke="#000000" stroke-width="2" stroke-linecap="round" stroke-linejoin="round" stroke-miterlimit="10" x1="18" y1="39.8839" x2="20" y2="37.8839"/>
    <line fill="none" stroke="#000000" stroke-width="2" stroke-linecap="round" stroke-linejoin="round" stroke-miterlimit="10" x1="20" y1="43.8839" x2="24" y2="39.8839"/>
    <line fill="none" stroke="#000000" stroke-width="2" stroke-linecap="round" stroke-linejoin="round" stroke-miterlimit="10" x1="54" y1="39.8839" x2="52" y2="37.8839"/>
    <line fill="none" stroke="#000000" stroke-width="2" stroke-linecap="round" stroke-linejoin="round" stroke-miterlimit="10" x1="52" y1="43.8839" x2="48" y2="39.8839"/>
  </g>
  <g id="color">
    <path fill="#FCEA2B" d="m36 13c-12.68 0-23 10.32-23 23s10.32 23 23 23 23-10.32 23-23-10.32-23-23-23z"/>
    <path fill="#fff" d="m33.5 32.31c0 3.59-2.914 6.5-6.5 6.5s-6.5-2.91-6.5-6.5c0-3.586 2.914-6.5 6.5-6.5s6.5 2.914 6.5 6.5"/>
    <path fill="#fff" d="m51.5 32.31c0 3.59-2.914 6.5-6.5 6.5s-6.5-2.91-6.5-6.5c0-3.586 2.914-6.5 6.5-6.5s6.5 2.914 6.5 6.5"/>
  </g>
  <g id="hair"/>
  <g id="skin"/>
  <g id="skin-shadow"/>
  <g id="line">
    <path d="m29.56 32.43c0 1.411-1.146 2.556-2.556 2.556s-2.556-1.144-2.556-2.556c0-1.41 1.146-2.556 2.556-2.556s2.556 1.146 2.556 2.556"/>
    <path d="m47.56 32.43c0 1.411-1.146 2.556-2.556 2.556s-2.556-1.144-2.556-2.556c0-1.41 1.146-2.556 2.556-2.556s2.556 1.146 2.556 2.556"/>
    <circle cx="36" cy="36" r="23" fill="none" stroke="#000" stroke-miterlimit="10" stroke-width="2"/>
    <path fill="none" stroke="#000" stroke-miterlimit="10" stroke-width="2" d="m33.5 32.43c0 3.59-2.914 6.5-6.5 6.5s-6.5-2.91-6.5-6.5c0-3.586 2.914-6.5 6.5-6.5s6.5 2.914 6.5 6.5"/>
    <path fill="none" stroke="#000" stroke-miterlimit="10" stroke-width="2" d="m51.5 32.43c0 3.59-2.914 6.5-6.5 6.5s-6.5-2.91-6.5-6.5c0-3.586 2.914-6.5 6.5-6.5s6.5 2.914 6.5 6.5"/>
    <path fill="none" stroke="#000" stroke-linecap="round" stroke-linejoin="round" stroke-miterlimit="10" stroke-width="2" d="m21.69 22.44c0.3525-0.406 1.928-2.129 4.582-2.405 2.153-0.2232 3.761 0.6367 4.301 0.9572"/>
    <path fill="none" stroke="#000" stroke-linecap="round" stroke-linejoin="round" stroke-miterlimit="10" stroke-width="2" d="m41.43 20.97c0.464-0.2717 2.509-1.4 5.111-0.8103 2.111 0.4781 3.359 1.808 3.768 2.284"/>
    <path fill="none" stroke="#000" stroke-linecap="round" stroke-linejoin="round" stroke-miterlimit="10" stroke-width="2" d="m42.5 47h-13"/>
  </g>
</svg>
