<svg id="emoji" viewBox="0 0 72 72" xmlns="http://www.w3.org/2000/svg">
  <g id="grid">
    <path fill="#B3B3B3" d="M68,4v64H4V4H68 M72,0H0v72h72V0z"/>
    <path fill="none" stroke="#00A5FF" stroke-miterlimit="10" stroke-width="0.1" d="M12.923,10.9583h46.1539 c1.0621,0,1.9231,0.861,1.9231,1.9231v0v46.1538c0,1.0621-0.861,1.9231-1.9231,1.9231H12.9231 c-1.0621,0-1.9231-0.861-1.9231-1.9231l0,0V12.8813C11,11.8193,11.861,10.9583,12.923,10.9583L12.923,10.9583z"/>
    <path fill="none" stroke="#00A5FF" stroke-miterlimit="10" stroke-width="0.1" d="M18.2537,4h35.4926C54.991,4,56,5.009,56,6.2537 v59.4926C56,66.991,54.991,68,53.7463,68H18.2537C17.009,68,16,66.991,16,65.7463V6.2537C16,5.009,17.009,4,18.2537,4z"/>
    <path fill="none" stroke="#00A5FF" stroke-miterlimit="10" stroke-width="0.1" d="M68,18.2537v35.4926 C68,54.991,66.991,56,65.7463,56H6.2537C5.009,56,4,54.991,4,53.7463V18.2537C4,17.009,5.009,16,6.2537,16h59.4926 C66.991,16,68,17.009,68,18.2537z"/>
    <circle cx="36" cy="36" r="29" fill="none" stroke="#00A5FF" stroke-miterlimit="10" stroke-width="0.1"/>
  </g>
  <g id="color"/>
  <g id="skin">
    <path fill="#FCEA2B" d="M40.5,45.1c0.3-0.5,0.5-0.9,0.6-1c0.4-0.8,1.2-1.7,1.6-2.7c0.9-2.2-1.4-3.2-2.7-1.6c0.2-0.5,0.5-0.9,0.7-1.2 c0.9-1.8-1.5-4.1-3.7-0.1l-1.1,1.9l0,0c0,0,0,0,0-0.1c1.6-2.3-1-4.5-3-2c-1.4,1.8-3.5,5.5-5,10c0,0-0.8-1.4-1.3-2.8 c-0.5-1.4-0.7-2.2-1.7-2.2s-1.4,0.8-1.1,3.6c0.3,3,0.8,7.2,1.4,8.5c1.4,2.8,1.7,2.9,1.7,2.9s-0.7,2.8-1.7,7l10,0.3 c0.2-1.8,0.4-3.5,0.8-4.9c0.4-1.5,1.8-1.5,2.8-3.1c2.5-4,2.4-6.2,3.6-9.4c0.2-0.7,0.6-1.2,1-2C44.6,43.9,41.8,42.4,40.5,45.1z"/>
    <path fill="#FCEA2B" d="M59,35.9c0-12.7-10.3-23-23-23s-23,10.3-23,23c0,8.9,5.2,17.1,13.3,20.8c0.3,0.6,10.3,3.1,11.3,2.1 C49.6,58,59,48,59,35.9z"/>
    <circle cx="36" cy="35.9" r="23" fill="none" stroke="#FCEA2B" stroke-miterlimit="10" stroke-width="1.8"/>
  </g>
  <g id="skin-shadow"/>
  <g id="hair"/>
  <g id="line">
      <path fill="none" stroke="#000000" stroke-linecap="round" stroke-linejoin="round" stroke-miterlimit="10" stroke-width="2" d="M25.2,65.2c1-4.2,1.7-7,1.7-7s-0.3-0.1-1.7-2.9c-0.6-1.3-1.1-5.5-1.4-8.5c-0.3-2.8,0.1-3.6,1.1-3.6 s1.2,0.8,1.7,2.2c0.5,1.5,1.3,2.8,1.3,2.8c1.5-4.4,3.6-8.2,5-10c2-2.5,4.6-0.4,3,2c-2,3-3,6-3,6"/>
      <path fill="none" stroke="#000000" stroke-linecap="round" stroke-linejoin="round" stroke-miterlimit="10" stroke-width="2" d="M25.2,65.2"/>
      <path fill="none" stroke="#000000" stroke-linecap="round" stroke-linejoin="round" stroke-miterlimit="10" stroke-width="2" d="M40.6,45.1c1.3-2.7,4.1-1.2,2.8,1c-0.4,0.8-0.7,1.4-1,2c-1.2,3.3-1.1,5.4-3.6,9.4c-1,1.6-2.4,1.7-2.8,3.1 c-0.3,1.3-0.6,3.1-0.8,4.9"/>
      <path fill="none" stroke="#000000" stroke-linecap="round" stroke-linejoin="round" stroke-miterlimit="10" stroke-width="2" d="M34.3,43l2.7-4.5c2.2-3.9,4.6-1.7,3.7,0.1c-1.2,2-3.1,5.9-4.4,8.8"/>
      <path fill="none" stroke="#000000" stroke-linecap="round" stroke-linejoin="round" stroke-miterlimit="10" stroke-width="2" d="M40,39.8c1.2-1.6,3.6-0.6,2.7,1.6c-0.4,1-1.2,1.9-1.6,2.7c-0.3,0.5-2.1,3.7-2.7,5.3"/>
      <path fill="none" stroke="#000000" stroke-linecap="round" stroke-linejoin="round" stroke-width="2" d="M42.8,57.9c12.1-3.7,19-16.6,15.2-28.7S41.4,10.2,29.3,14S10.3,30.5,14,42.7c1.3,4.2,3.8,7.9,7.1,10.8"/>
      <path fill="none" stroke="#000000" stroke-linecap="round" stroke-miterlimit="10" stroke-width="2" d="M31.7,32.3c-1.1-2.4-3.9-3.5-6.2-2.4c-1.1,0.5-1.9,1.3-2.4,2.4"/>
      <path fill="none" stroke="#000000" stroke-linecap="round" stroke-miterlimit="10" stroke-width="2" d="M48.9,32.3c-1.1-2.4-3.9-3.5-6.2-2.4c-1.1,0.5-1.9,1.3-2.4,2.4"/>
      <path fill="none" stroke="#000000" stroke-linecap="round" stroke-linejoin="round" stroke-width="2" d="M23.1,25.1c4.4-0.1,7.9-1.4,8.8-3.1"/>
      <path fill="none" stroke="#000000" stroke-linecap="round" stroke-linejoin="round" stroke-width="2" d="M48.9,25.1C44.5,25,41,23.7,40.1,22"/>
  </g>
</svg>
