<?xml version="1.0" encoding="UTF-8"?>
<svg id="emoji" xmlns="http://www.w3.org/2000/svg" viewBox="0 0 72 72">
  <g id="grid">
    <path d="m68,4v64H4V4h64m4-4H0v72h72V0Z" fill="#b3b3b3"/>
    <path d="m12.923,10.9583h46.1539c1.0621,0,1.9231.861,1.9231,1.9231h0v46.1538c0,1.0621-.861,1.9231-1.9231,1.9231H12.9231c-1.0621,0-1.9231-.861-1.9231-1.9231h0V12.8813c0-1.062.861-1.923,1.923-1.923h0Z" fill="none" stroke="#00a5ff" stroke-miterlimit="10" stroke-width=".1"/>
    <rect x="16" y="4" width="40" height="64" rx="2.2537" ry="2.2537" fill="none" stroke="#00a5ff" stroke-miterlimit="10" stroke-width=".1"/>
    <rect x="4" y="16" width="64" height="40" rx="2.2537" ry="2.2537" fill="none" stroke="#00a5ff" stroke-miterlimit="10" stroke-width=".1"/>
    <circle cx="36" cy="36" r="29" fill="none" stroke="#00a5ff" stroke-miterlimit="10" stroke-width=".1"/>
  </g>
  <g id="color">
    <path d="m32.7519,14.2705l-2.2833.4438c-1.9976.3883-3.918,1.1015-5.6849,2.1111l-.2283.1305c-1.537.8783-2.9409,1.9713-4.1693,3.246l-.8095.8401c-1.4243,1.478-2.5945,3.1814-3.4631,5.0413l-.3195.6841c-1.152,2.4667-1.7491,5.1561-1.7491,7.8786v2.8894c0,3.3534.9057,6.6446,2.6214,9.526l.7741,1.2999c1.3927,2.3388,3.2812,4.3438,5.5326,5.8737l1.3181.8957c2.0855,1.4173,4.4372,2.3961,6.9124,2.8773l1.5022.292c2.1466.4173,4.3499.4531,6.5089.1059l.53-.0852c2.1646-.3481,4.2508-1.0758,6.1623-2.1495l1.6855-.9468c1.9876-1.1164,3.7532-2.5884,5.2091-4.3426l.5559-.6698c1.5025-1.8104,2.6482-3.8891,3.3766-6.1262l.6554-2.0129c.7868-2.4166,1.0706-4.9686.8339-7.499l-.0644-.6878c-.2064-2.2058-.8048-4.3571-1.7671-6.3527l-.9825-2.0376c-.8711-1.8065-2.0284-3.4604-3.4271-4.8978h0c-1.3468-1.384-2.9007-2.5501-4.606-3.4564l-1.7884-.9505c-1.8346-.975-3.8194-1.6361-5.8721-1.9558l-.5452-.0849c-2.1303-.3318-4.3021-.2912-6.4185.1202Z" fill="#fcea2b"/>
    <circle cx="44.45" cy="31.38" r="6.5" fill="#fff"/>
    <circle cx="27.76" cy="31.38" r="6.5" fill="#fff"/>
  </g>
  <g id="line">
    <circle cx="36" cy="36" r="23" fill="none" stroke="#000" stroke-miterlimit="10" stroke-width="2"/>
    <path d="m29.02,46.68c1.379-1.678,4.279-2.713,7.347-2.628,2.817.079,5.358,1.091,6.612,2.628" fill="none" stroke="#000" stroke-linecap="round" stroke-linejoin="round" stroke-width="2"/>
    <circle cx="27.56" cy="31.38" r="6.5" fill="none" stroke="#000" stroke-miterlimit="10" stroke-width="2"/>
    <circle cx="44.65" cy="31.38" r="6.5" fill="none" stroke="#000" stroke-miterlimit="10" stroke-width="2"/>
    <path d="m27.53,25.77c-2.5405.0149-4.592,2.0785-4.592,4.619,0,2.551,2.068,4.619,4.619,4.619s4.619-2.068,4.619-4.619-2.068-4.619-4.619-4.619c-.0091,0-.0182,0-.0273,0h.0003Zm-1.453,1.828c1.1046,0,2,.8954,2,2s-.8954,2-2,2-2-.8954-2-2,.8954-2,2-2Z" fill-rule="evenodd"/>
    <path d="m44.62,25.77c-2.5405.0149-4.592,2.0785-4.592,4.619,0,2.551,2.068,4.619,4.619,4.619s4.619-2.068,4.619-4.619-2.068-4.619-4.619-4.619c-.0091,0-.0182,0-.0273,0h.0003Zm-1.453,1.828c1.1046,0,2,.8954,2,2s-.8954,2-2,2-2-.8954-2-2,.8954-2,2-2Z" fill-rule="evenodd"/>
    <path d="m41.31,18.02c1.185,2.421,3,5,9,4" fill="none" stroke="#000" stroke-linecap="round" stroke-linejoin="round" stroke-width="2"/>
    <path d="m30.96,18.02c-1.185,2.421-3,5-9,4" fill="none" stroke="#000" stroke-linecap="round" stroke-linejoin="round" stroke-width="2"/>
  </g>
</svg>