<svg id="emoji" xmlns="http://www.w3.org/2000/svg" viewBox="0 0 72 72">
  <g id="grid">
    <path d="M68,4V68H4V4H68m4-4H0V72H72V0Z" fill="#b3b3b3"/>
    <path d="M12.923,10.9583H59.0769A1.9231,1.9231,0,0,1,61,12.8814V59.0352a1.9231,1.9231,0,0,1-1.9231,1.9231H12.9231A1.9231,1.9231,0,0,1,11,59.0352V12.8813A1.923,1.923,0,0,1,12.923,10.9583Z" fill="none" stroke="#00a5ff" stroke-miterlimit="10" stroke-width="0.1"/>
    <rect x="16" y="4" width="40" height="64" rx="2.2537" ry="2.2537" fill="none" stroke="#00a5ff" stroke-miterlimit="10" stroke-width="0.1"/>
    <rect x="16" y="4" width="40" height="64" rx="2.2537" ry="2.2537" transform="translate(72) rotate(90)" fill="none" stroke="#00a5ff" stroke-miterlimit="10" stroke-width="0.1"/>
    <circle cx="36" cy="36" r="29" fill="none" stroke="#00a5ff" stroke-miterlimit="10" stroke-width="0.1"/>
  </g>
  <g id="color">
    <path d="M68.1967,49H18.769c-6.2907,0-11.4375-4.4743-11.4375-9.9429h0C7.3315,33.5886,21.0565,20,27.3471,20H68.3315V48.8828A.1273.1273,0,0,1,68.1967,49Z" fill="#cfcdcd"/>
    <polyline points="30.331 38 40.92 29 45.331 29 45.331 38 30.331 38" fill="#94d3f3"/>
    <polyline points="49.331 38 59.92 29 64.331 29 64.331 38 49.331 38" fill="#94d3f3"/>
    <path d="M10.3315,37s5-7,10-8a22.7948,22.7948,0,0,1,8,0l-7.569,7.7824Z" fill="#94d3f3"/>
    <line x1="64.3315" y1="43" x2="12.3315" y2="43" fill="none" stroke="#e85948" stroke-linecap="round" stroke-linejoin="round" stroke-width="2"/>
    <polygon points="68.331 56 11.331 56 17.566 52 68.331 52 68.331 56" fill="#3f3f3f"/>
  </g>
  <g id="line">
    <polygon points="68.331 56 11.331 56 17.566 52 68.331 52 68.331 56" fill="none" stroke="#000" stroke-linecap="round" stroke-linejoin="round" stroke-width="2"/>
    <polyline points="31.331 38 45.331 38 45.331 29.643" fill="none" stroke="#000" stroke-linecap="round" stroke-linejoin="round" stroke-width="2"/>
    <polyline points="50.331 38 64.331 38 64.331 29.643" fill="none" stroke="#000" stroke-linecap="round" stroke-linejoin="round" stroke-width="2"/>
    <polyline points="28.331 30 21.331 37 11.331 37" fill="none" stroke="#000" stroke-linecap="round" stroke-linejoin="round" stroke-width="2"/>
    <path d="M68.1967,49H18.769c-6.2907,0-11.4375-4.4743-11.4375-9.9429h0C7.3315,33.5886,21.0565,20,27.3471,20H68.3315V48.8828A.1273.1273,0,0,1,68.1967,49Z" fill="none" stroke="#000" stroke-linecap="round" stroke-linejoin="round" stroke-width="2"/>
  </g>
</svg>
