<svg version="1.1" id="emoji" xmlns="http://www.w3.org/2000/svg" x="0" y="0" viewBox="0 0 72 72" enable-background="new 0 0 72 72" xml:space="preserve">
  <g id="grid">
    <path fill="#B3B3B3" d="M68,4v64H4V4H68 M72,0H0v72h72V0z"/>
    <path fill="none" stroke="#00A5FF" stroke-width=".1" stroke-miterlimit="10" d="M12.9,11h46.2c1.1,0,1.9,0.9,1.9,1.9l0,0V59 c0,1.1-0.9,1.9-1.9,1.9H12.9C11.9,61,11,60.1,11,59l0,0V12.9C11,11.8,11.9,11,12.9,11L12.9,11z"/>
    <path fill="none" stroke="#00A5FF" stroke-width=".1" stroke-miterlimit="10" d="M18.3,4h35.5C55,4,56,5,56,6.3v59.5 c0,1.2-1,2.3-2.3,2.3H18.3C17,68,16,67,16,65.7V6.3C16,5,17,4,18.3,4z"/>
    <path fill="none" stroke="#00A5FF" stroke-width=".1" stroke-miterlimit="10" d="M68,18.3v35.5c0,1.2-1,2.3-2.3,2.3H6.3 C5,56,4,55,4,53.7V18.3C4,17,5,16,6.3,16h59.5C67,16,68,17,68,18.3z"/>
    <circle fill="none" stroke="#00A5FF" stroke-width=".1" stroke-miterlimit="10" cx="36" cy="36" r="29"/>
  </g>
  <g id="line-supplement_1_">
    <path id="xx" fill="none" stroke="#000000" stroke-width="2" stroke-linecap="round" stroke-linejoin="round" stroke-miterlimit="10" d="M15.1,47.5c0,0,14.4-2.1,49.4-1"/>
  </g>
  <g id="color">
    <path fill="#D0CFCE" d="M52.6,26.7c0,0-13.7-1-23.8,5.6S12.6,44,12.6,44s-1.8,1.8-1.9,3.9c-0.2,3,6.9,3.9,6.9,3.9L33,52.9 c0.3,0,0.7,0,1,0h34.5c0,0-0.2-26.2,0-26.2C68.6,26.7,52.6,26.7,52.6,26.7z"/>
    <path fill="#3F3F3F" d="M27.8,38.1l3,3h34.7v-7c0-0.6-0.4-1-1-1h-19c0,0-8.6-0.2-18.1,4.1"/>
    <path fill="none" stroke="#EA5A47" stroke-width="2" stroke-linecap="round" stroke-linejoin="round" stroke-miterlimit="10" d="M15.1,47.5c0,0,14.4-2.1,49.4-1"/>
  </g>
  <g id="hair"/>
  <g id="skin"/>
  <g id="skin-shadow"/>
  <g id="line">
    <circle cx="42.2" cy="54" r="2"/>
    <circle cx="55.3" cy="54" r="2"/>
    <line fill="none" stroke="#000000" stroke-width="2" stroke-linecap="round" stroke-linejoin="round" stroke-miterlimit="10" x1="4.4" y1="56" x2="67.5" y2="56"/>
    <path fill="none" stroke="#000000" stroke-width="2" stroke-linecap="round" stroke-linejoin="round" stroke-miterlimit="10" d="M52.6,26.7c0,0-13.7-1-23.8,5.6S12.6,44,12.6,44s-1.8,1.8-1.9,3.9c-0.2,3,6.9,3.9,6.9,3.9L33,52.9c0.3,0,0.7,0,1,0h34.5 c0,0-0.2-26.2,0-26.2C68.6,26.7,52.6,26.7,52.6,26.7z"/>
    <polyline fill="none" stroke="#000000" stroke-width="2" stroke-linecap="round" stroke-linejoin="round" stroke-miterlimit="10" points="27.8,38.1 30.8,41.2 64.5,41.2"/>
  </g>
</svg>
