<svg id="emoji" xmlns="http://www.w3.org/2000/svg" viewBox="0 0 72 72">
  <g id="grid">
    <path d="M68,4V68H4V4H68m4-4H0V72H72V0Z" fill="#b3b3b3"></path>
    <path d="M12.923,10.9583H59.0769A1.9231,1.9231,0,0,1,61,12.8814V59.0352a1.9231,1.9231,0,0,1-1.9231,1.9231H12.9231A1.9231,1.9231,0,0,1,11,59.0352V12.8813A1.923,1.923,0,0,1,12.923,10.9583Z" fill="none" stroke="#00a5ff" stroke-miterlimit="10" stroke-width="0.1"></path>
    <rect x="16" y="4" width="40" height="64" rx="2.2537" fill="none" stroke="#00a5ff" stroke-miterlimit="10" stroke-width="0.1"></rect>
    <rect x="16" y="4" width="40" height="64" rx="2.2537" transform="translate(72) rotate(90)" fill="none" stroke="#00a5ff" stroke-miterlimit="10" stroke-width="0.1"></rect>
    <circle cx="36" cy="36" r="29" fill="none" stroke="#00a5ff" stroke-miterlimit="10" stroke-width="0.1"></circle>
  </g>
  <g id="color">
    <path fill="#d0cfce" stroke="none" stroke-width="2" stroke-linecap="round" stroke-linejoin="round" stroke-miterlimit="10" d="
		M52.625,26.7494c0,0-13.6875-1-23.75,5.625s-16.25,11.625-16.25,11.625s-1.7671,1.7819-1.875,3.875
		c-0.1563,3.0312,6.875,3.9375,6.875,3.9375l15.4187,1.0884c0.3458,0.0244,0.6923,0.0366,1.0389,0.0366h34.4799
		c0,0-0.1875-26.1875,0-26.1875H52.625z"></path>
    <path fill="#3f3f3f" d="M27.75,38.1244l3.0313,3.0312H65.5v-6.9687c0-0.5523-0.4477-1-1-1h-19c0,0-8.5625-0.25-18.125,4.125" stroke="none"></path>
    <path fill="none" stroke="#ea5a47" stroke-width="2" stroke-linecap="round" stroke-linejoin="round" stroke-miterlimit="10" d="
		M15.125,47.4994c0,0,14.375-2.125,49.375-1"></path>
  </g>
  <g id="hair">
  </g>
  <g id="skin">
  </g>
  <g id="skin-shadow">
  </g>
  <g id="line">
    <circle cx="42.2153" cy="54.0013" r="2" fill="#000000" stroke="none"></circle>
    <circle cx="55.2778" cy="54.0013" r="2" fill="#000000" stroke="none"></circle>
    <line fill="none" stroke="#000000" stroke-width="2" stroke-linecap="round" stroke-linejoin="round" stroke-miterlimit="10" x1="4.4375" y1="55.9994" x2="67.5" y2="55.9994"></line>
    <path fill="none" stroke="#000000" stroke-width="2" stroke-linecap="round" stroke-linejoin="round" stroke-miterlimit="10" d="
		M52.625,26.7494c0,0-13.6875-1-23.75,5.625s-16.25,11.625-16.25,11.625s-1.7671,1.7819-1.875,3.875
		c-0.1563,3.0312,6.875,3.9375,6.875,3.9375l15.4187,1.0884c0.3458,0.0244,0.6923,0.0366,1.0389,0.0366h34.4799
		c0,0-0.1875-26.1875,0-26.1875H52.625z"></path>
    <polyline fill="none" stroke="#000000" stroke-width="2" stroke-linecap="round" stroke-linejoin="round" stroke-miterlimit="10" points="
		27.75,38.1244 30.7813,41.1556 64.5,41.1556 	"></polyline>
  </g>
</svg>