<svg version="1.1" id="emoji" xmlns="http://www.w3.org/2000/svg" x="0" y="0" viewBox="0 0 72 72" xml:space="preserve">
  <g id="grid">
    <path fill="#B3B3B3" d="M68,4v64H4V4H68 M72,0H0v72h72V0z"/>
    <path fill="none" stroke="#00A5FF" stroke-width="0.1" stroke-miterlimit="10" d="M12.9,11h46.2c1.1,0,1.9,0.9,1.9,1.9l0,0V59 c0,1.1-0.9,1.9-1.9,1.9H12.9C11.9,61,11,60.1,11,59l0,0V12.9C11,11.8,11.9,11,12.9,11L12.9,11z"/>
    <path fill="none" stroke="#00A5FF" stroke-width="0.1" stroke-miterlimit="10" d="M18.3,4h35.5C55,4,56,5,56,6.3v59.5 c0,1.2-1,2.3-2.3,2.3H18.3C17,68,16,67,16,65.7V6.3C16,5,17,4,18.3,4z"/>
    <path fill="none" stroke="#00A5FF" stroke-width="0.1" stroke-miterlimit="10" d="M68,18.3v35.5c0,1.2-1,2.3-2.3,2.3H6.3 C5,56,4,55,4,53.7V18.3C4,17,5,16,6.3,16h59.5C67,16,68,17,68,18.3z"/>
    <circle fill="none" stroke="#00A5FF" stroke-width="0.1" stroke-miterlimit="10" cx="36" cy="36" r="29"/>
  </g>
  <g id="color">
    <path fill="#3F3F3F" d="M68,45v3.8H4V42h22.5l1.2,2.5c0.2,0.3,0.5,0.5,0.9,0.5H68z"/>
    <rect x="14" y="48.8" fill="#3F3F3F" width="4" height="19.2"/>
    <rect x="54" y="48.8" fill="#3F3F3F" width="4" height="19.2"/>
    <path fill="#D0CFCE" d="M68,41H26l0.5,1c0,0-1-0.2-2.4-0.5c-0.1,0-0.2,0-0.3-0.1c-1.1-0.3-2.5-0.6-4-1.1c-0.3-0.1-0.5-0.2-0.8-0.3 c-0.2-0.1-0.3-0.1-0.5-0.2c-0.4-0.1-0.8-0.3-1.2-0.5h-0.1c-0.4-0.1-0.7-0.3-1.1-0.4c-0.4-0.2-0.8-0.3-1.2-0.5 c-0.2-0.1-0.4-0.2-0.6-0.2c-0.1,0-0.1-0.1-0.2-0.1c-0.6-0.3-1.1-0.5-1.5-0.8c-0.7-0.5-1.2-0.9-1.4-1.3c-0.3-0.7-0.4-1.3-0.3-1.8 c0-0.1,0-0.2,0-0.3s0.1-0.2,0.1-0.3s0.1-0.2,0.1-0.3s0.1-0.2,0.1-0.3s0.1-0.2,0.2-0.3c0.1-0.1,0.1-0.2,0.2-0.2l0.1-0.1l0,0 C13.2,29.8,19.3,24,26,21c9-4,42-3,42-3V41z"/>
    <path fill="#D0CFCE" d="M11,36c0,0-0.8-0.8-0.2-2.5C10.6,34.2,10.5,35.1,11,36z"/>
    <path fill="#D0CFCE" d="M10.9,33.3c0,0.1-0.1,0.2-0.1,0.3C10.8,33.5,10.8,33.4,10.9,33.3z"/>
    <path fill="#D0CFCE" d="M18.4,39.9c-0.5-0.2-0.9-0.3-1.4-0.5C17.5,39.5,17.9,39.7,18.4,39.9z"/>
    <path fill="#D0CFCE" d="M17,39.4c-0.3-0.1-0.7-0.2-1-0.4c-5-2-5-3-5-3C11.5,37,14.2,38.3,17,39.4z"/>
    <path fill="#61B2E4" d="M11,33c0.2-0.4,0.4-0.6,0.4-0.6C11.2,32.6,11.1,32.8,11,33z"/>
    <path fill="#61B2E4" d="M23.8,41.4c-1-0.2-2.4-0.6-4-1.1C21.3,40.8,22.7,41.1,23.8,41.4z"/>
    <path fill="#92D3F5" d="M68,40.2V45H28.6c-0.4,0-0.7-0.3-0.9-0.7l-1.2-3L26,40.2H68z"/>
    <path fill="#3F3F3F" d="M59,30l-21.9,0.1v-7c0-0.5,0.4-1,0.9-1c7-0.5,14.6-0.6,21,0V30z"/>
    <polyline fill="#D0CFCE" points="34,23 34,30 19,30"/>
    <path fill="#3F3F3F" d="M33.9,23.1v-1c0,0-3.9,0.9-6.9,1.9c0,0-6.9,2.8-8.9,5.8h1.3L19,30h15v-7L33.9,23.1z"/>
    <polyline fill="#3F3F3F" points="59,23 59,30 38,30"/>
  </g>
  <g id="hair"/>
  <g id="skin"/>
  <g id="skin-shadow"/>
  <g id="line">
    <path fill="none" stroke="#000000" stroke-width="2" stroke-linecap="round" stroke-linejoin="round" stroke-miterlimit="10" d="M68,45v3.8H4V42h22.5l1.2,2.5c0.2,0.3,0.5,0.5,0.9,0.5H68z"/>
    <rect x="14" y="48.8" fill="none" stroke="#000000" stroke-width="2" stroke-linecap="round" stroke-linejoin="round" stroke-miterlimit="10" width="4" height="19.2"/>
    <rect x="54" y="48.8" fill="none" stroke="#000000" stroke-width="2" stroke-linecap="round" stroke-linejoin="round" stroke-miterlimit="10" width="4" height="19.2"/>
    <path fill="none" stroke="#000000" stroke-width="2" stroke-linecap="round" stroke-linejoin="round" stroke-miterlimit="10" d="M68,41H26l0.5,1c0,0-1-0.2-2.4-0.5c-0.1,0-0.2,0-0.3-0.1c-1.1-0.3-2.5-0.6-4-1.1c-0.3-0.1-0.5-0.2-0.8-0.3 c-0.2-0.1-0.3-0.1-0.5-0.2c-0.4-0.1-0.8-0.3-1.2-0.5h-0.1c-0.4-0.1-0.7-0.3-1.1-0.4c-0.4-0.2-0.8-0.3-1.2-0.5 c-0.2-0.1-0.4-0.2-0.6-0.2c-0.1,0-0.1-0.1-0.2-0.1c-0.6-0.3-1.1-0.5-1.5-0.8c-0.7-0.5-1.2-0.9-1.4-1.3c-0.3-0.7-0.4-1.3-0.3-1.8 c0-0.1,0-0.2,0-0.3s0.1-0.2,0.1-0.3s0.1-0.2,0.1-0.3s0.1-0.2,0.1-0.3s0.1-0.2,0.2-0.3c0.1-0.1,0.1-0.2,0.2-0.2l0.1-0.1l0,0 C13.2,29.8,19.3,24,26,21c9-4,42-3,42-3V41z"/>
    <path fill="none" stroke="#000000" stroke-width="2" stroke-linecap="round" stroke-linejoin="round" stroke-miterlimit="10" d="M11,36c0,0-0.8-0.8-0.2-2.5C10.6,34.2,10.5,35.1,11,36z"/>
    <path fill="none" stroke="#000000" stroke-width="2" stroke-linecap="round" stroke-linejoin="round" stroke-miterlimit="10" d="M10.9,33.3c0,0.1-0.1,0.2-0.1,0.3C10.8,33.5,10.8,33.4,10.9,33.3z"/>
    <path fill="none" stroke="#000000" stroke-width="2" stroke-linecap="round" stroke-linejoin="round" stroke-miterlimit="10" d="M18.4,39.9c-0.5-0.2-0.9-0.3-1.4-0.5C17.5,39.5,17.9,39.7,18.4,39.9z"/>
    <path fill="none" stroke="#000000" stroke-width="2" stroke-linecap="round" stroke-linejoin="round" stroke-miterlimit="10" d="M17,39.4c-0.3-0.1-0.7-0.2-1-0.4c-5-2-5-3-5-3C11.5,37,14.2,38.3,17,39.4z"/>
    <path fill="none" stroke="#000000" stroke-width="2" stroke-linecap="round" stroke-linejoin="round" stroke-miterlimit="10" d="M11,33c0.2-0.4,0.4-0.6,0.4-0.6C11.2,32.6,11.1,32.8,11,33z"/>
    <path fill="none" stroke="#000000" stroke-width="2" stroke-linecap="round" stroke-linejoin="round" stroke-miterlimit="10" d="M23.8,41.4c-1-0.2-2.4-0.6-4-1.1C21.3,40.8,22.7,41.1,23.8,41.4z"/>
    <path fill="none" stroke="#000000" stroke-width="2" stroke-linecap="round" stroke-linejoin="round" stroke-miterlimit="10" d="M68,40.2V45H28.6c-0.4,0-0.7-0.3-0.9-0.7l-1.2-3L26,40.2H68z"/>
    <polyline fill="none" stroke="#000000" stroke-width="2" stroke-linecap="round" stroke-linejoin="round" stroke-miterlimit="10" points="34,23 34,30 19,30"/>
    <polyline fill="none" stroke="#000000" stroke-width="2" stroke-linecap="round" stroke-linejoin="round" stroke-miterlimit="10" points="34,23 34,30 19,30"/>
    <polyline fill="none" stroke="#000000" stroke-width="2" stroke-linecap="round" stroke-linejoin="round" stroke-miterlimit="10" points="59,23 59,30 38,30"/>
  </g>
</svg>
