<svg id="emoji" viewBox="0 0 72 72" version="1.1" xmlns="http://www.w3.org/2000/svg">
  <g id="grid">
    <path fill="#B3B3B3" d="M68,4v64H4V4H68 M72,0H0v72h72V0z"/>
    <path fill="none" stroke="#00A5FF" stroke-miterlimit="10" stroke-width="0.1" d="m12.92 10.96h46.15c1.062 0 1.923 0.861 1.923 1.923v46.15c0 1.062-0.861 1.923-1.923 1.923h-46.15c-1.062 0-1.923-0.861-1.923-1.923v-46.15c0-1.062 0.861-1.923 1.923-1.923z"/>
    <path fill="none" stroke="#00A5FF" stroke-miterlimit="10" stroke-width="0.1" d="M18.2537,4h35.4926C54.991,4,56,5.009,56,6.2537 v59.4926C56,66.991,54.991,68,53.7463,68H18.2537C17.009,68,16,66.991,16,65.7463V6.2537C16,5.009,17.009,4,18.2537,4z"/>
    <path fill="none" stroke="#00A5FF" stroke-miterlimit="10" stroke-width="0.1" d="M68,18.2537v35.4926 C68,54.991,66.991,56,65.7463,56H6.2537C5.009,56,4,54.991,4,53.7463V18.2537C4,17.009,5.009,16,6.2537,16h59.4926 C66.991,16,68,17.009,68,18.2537z"/>
    <circle cx="36" cy="36" r="29" fill="none" stroke="#00A5FF" stroke-miterlimit="10" stroke-width="0.1"/>
  </g>
  <g id="color">
    <path fill="#fff" d="m15.35 59.08h-1.779c-0.6839 0-1.238-0.578-1.238-1.291v-34.83c0-0.713 0.5544-1.291 1.238-1.291h1.779c0.6839 0 1.238 0.578 1.238 1.291v34.83c0 0.713-0.5545 1.291-1.238 1.291z"/>
    <path fill="#fff" d="m58.46 59.08h-1.779c-0.6839 0-1.238-0.7131-1.238-1.593v-32.97c0-0.8796 0.5544-1.593 1.238-1.593h1.779c0.6839 0 1.238 0.7131 1.238 1.593v32.97c0 0.8796-0.5545 1.593-1.238 1.593z"/>
    <path fill="#fcea2b" d="m7.45 43.47h7.743l-7.743 7.743z"/>
    <path fill="#3F3F3F" d="m15.19 43.47h12.34l-7.743 7.743-12.34-0.05808z"/>
    <path fill="#fcea2b" d="m27.48 43.47h12.34l-7.743 7.743h-12.29z"/>
    <path fill="#3F3F3F" d="m39.82 43.47h12.34l-7.743 7.743h-12.34z"/>
    <path fill="#fcea2b" d="m52.16 43.47 11.89-0.1839-7.612 7.612h-11.7z"/>
    <path fill="#3F3F3F" d="m64.05 43.29v7.612h-7.612z"/>
    <path fill="#fcea2b" d="m7.95 28.33 7.646-0.03371-7.646 7.646z"/>
    <path fill="#3F3F3F" d="m15.6 28.3h11.94l-7.695 7.646h-11.89z"/>
    <path fill="#fcea2b" d="m27.48 28.3h12.34l-7.743 7.743h-12.29z"/>
    <path fill="#3F3F3F" d="m39.82 28.3h12.34l-7.743 7.743h-12.34z"/>
    <path fill="#fcea2b" d="m52.16 28.3h12.34l-8.062 7.646-12.02 0.09764z"/>
    <path fill="#3F3F3F" d="m64.05 28.33v7.612h-7.612z"/>
  </g>
  <g id="line" fill="none" stroke="#000" stroke-linecap="round" stroke-linejoin="round" stroke-miterlimit="10" stroke-width="2">
    <path d="m12.74 42.72v-6.348"/>
    <path d="m16.92 50.9v6.509c0 0.6723-0.5448 1.217-1.217 1.217h-1.748c-0.672 0-1.217-0.5451-1.217-1.217v-6.071"/>
    <path d="m16.92 36.37v6.348"/>
    <path d="m12.74 28.24v-5.907m4.181 0v5.812"/>
    <path d="m55.1 43.29v-6.921"/>
    <path d="m59.28 51.34v6.071c0 0.6723-0.5448 1.217-1.217 1.217h-1.748c-0.672 0-1.217-0.5451-1.217-1.217v-6.071"/>
    <path d="m59.28 36.37v5.969"/>
    <path d="m55.1 28.03v-5.891m4.181 0v5.796"/>
    <path d="m7.95 28.33h56.1v7.612h-56.1z"/>
    <path d="m7.95 43.29h56.1v7.612h-56.1z"/>
    <ellipse cx="14.83" cy="17.97" rx="4.594" ry="4.596"/>
    <ellipse cx="57.19" cy="17.97" rx="4.594" ry="4.596"/>
  </g>
  <g id="color-foreground" transform="translate(-2.525 -.094)" fill="#f4aa41" fill-rule="evenodd" stroke="#e27022" stroke-linecap="round" stroke-linejoin="round" stroke-miterlimit="10" stroke-width="2">
    <ellipse cx="17.36" cy="18.06" rx="4.594" ry="4.596"/>
    <ellipse cx="59.71" cy="18.06" rx="4.594" ry="4.596"/>
  </g>
</svg>
