<svg id="emoji" viewBox="0 0 72 72" xmlns="http://www.w3.org/2000/svg">
  <g id="grid">
    <path fill="#b3b3b3" d="M68,4V68H4V4H68m4-4H0V72H72Z"/>
    <path fill="none" stroke="#00a5ff" stroke-miterlimit="10" stroke-width="0.1" d="M12.9,11H59.1A1.8987,1.8987,0,0,1,61,12.9h0V59a1.8987,1.8987,0,0,1-1.9,1.9H12.9A1.8371,1.8371,0,0,1,11,59h0V12.9A1.8987,1.8987,0,0,1,12.9,11Z"/>
    <path fill="none" stroke="#00a5ff" stroke-miterlimit="10" stroke-width="0.1" d="M18.3,4H53.8A2.2425,2.2425,0,0,1,56,6.3V65.8a2.3261,2.3261,0,0,1-2.3,2.3H18.3A2.4139,2.4139,0,0,1,16,65.7V6.3A2.263,2.263,0,0,1,18.3,4Z"/>
    <path fill="none" stroke="#00a5ff" stroke-miterlimit="10" stroke-width="0.1" d="M68,18.3V53.8a2.3261,2.3261,0,0,1-2.3,2.3H6.3A2.4139,2.4139,0,0,1,4,53.7V18.3A2.263,2.263,0,0,1,6.3,16H65.8A2.2425,2.2425,0,0,1,68,18.3Z"/>
    <circle cx="36" cy="36" r="29" fill="none" stroke="#00a5ff" stroke-miterlimit="10" stroke-width="0.1"/>
  </g>
  <g id="color">
    <path fill="#ea5a47" d="M21.4,51V36A14.9585,14.9585,0,0,1,36.3,21h0A15.0887,15.0887,0,0,1,51.2,36V51"/>
    <path fill="#d0cfce" d="M21.4,51h30a4.9514,4.9514,0,0,1,5,5h0a4.9514,4.9514,0,0,1-5,5h-30a4.9514,4.9514,0,0,1-5-5h0A4.9514,4.9514,0,0,1,21.4,51Z"/>
    <path fill="#d22f27" d="M51.4,36A14.9381,14.9381,0,0,0,36.6,21h0a14.7059,14.7059,0,0,0-4.2.6C41.8,25.4,42.7,44.8,42.8,51h8.7V36Z"/>
  </g>
  <g id="line">
    <line x1="17.8" x2="13.1" y1="23.5" y2="18.8" fill="none" stroke="#000" stroke-linecap="round" stroke-linejoin="round" stroke-width="2"/>
    <line x1="54.1" x2="58.8" y1="23.5" y2="18.8" fill="none" stroke="#000" stroke-linecap="round" stroke-linejoin="round" stroke-width="2"/>
    <line x1="36.4" x2="36.4" y1="14" y2="8" fill="none" stroke="#000" stroke-linecap="round" stroke-linejoin="round" stroke-width="2"/>
    <path fill="none" stroke="#000" stroke-linecap="round" stroke-linejoin="round" stroke-width="2" d="M21.4,51V36A14.9585,14.9585,0,0,1,36.3,21h0A15.0887,15.0887,0,0,1,51.2,36V51"/>
    <path fill="none" stroke="#000" stroke-linecap="round" stroke-linejoin="round" stroke-width="2" d="M21.1,51H51.6a4.8011,4.8011,0,0,1,4.8,4.8h0a4.8011,4.8011,0,0,1-4.8,4.8H21.1a4.8011,4.8011,0,0,1-4.8-4.8h0A4.9353,4.9353,0,0,1,21.1,51Z"/>
  </g>
</svg>
