<svg id="emoji" xmlns="http://www.w3.org/2000/svg" viewBox="0 0 72 72">
  <g id="grid">
    <path d="M68,4V68H4V4H68m4-4H0V72H72V0Z" fill="#b3b3b3"></path>
    <path d="M12.923,10.9583H59.0769A1.9231,1.9231,0,0,1,61,12.8814V59.0352a1.9231,1.9231,0,0,1-1.9231,1.9231H12.9231A1.9231,1.9231,0,0,1,11,59.0352V12.8813A1.923,1.923,0,0,1,12.923,10.9583Z" fill="none" stroke="#00a5ff" stroke-miterlimit="10" stroke-width="0.1"></path>
    <rect x="16" y="4" width="40" height="64" rx="2.2537" fill="none" stroke="#00a5ff" stroke-miterlimit="10" stroke-width="0.1"></rect>
    <rect x="16" y="4" width="40" height="64" rx="2.2537" transform="translate(72) rotate(90)" fill="none" stroke="#00a5ff" stroke-miterlimit="10" stroke-width="0.1"></rect>
    <circle cx="36" cy="36" r="29" fill="none" stroke="#00a5ff" stroke-miterlimit="10" stroke-width="0.1"></circle>
  </g>
  <g id="color">
    <path fill="#FFFFFF" stroke="none" stroke-width="2" stroke-linecap="round" stroke-linejoin="round" stroke-miterlimit="10" d="
		M15.732,56.0208h-1.6364c-0.6292,0-1.1392-0.5101-1.1392-1.1393V24.1436c0-0.6292,0.51-1.1393,1.1392-1.1393h1.6364
		c0.6292,0,1.1393,0.5101,1.1393,1.1393v30.7379C16.8713,55.5107,16.3612,56.0208,15.732,56.0208z"></path>
    <path fill="#FFFFFF" stroke="none" stroke-width="2" stroke-linecap="round" stroke-linejoin="round" stroke-miterlimit="10" d="
		M59.2728,56.0208h-1.6364c-0.6292,0-1.1392-0.5101-1.1392-1.1393V24.1436c0-0.6292,0.51-1.1393,1.1392-1.1393h1.6364
		c0.6292,0,1.1393,0.5101,1.1393,1.1393v30.7379C60.4121,55.5107,59.902,56.0208,59.2728,56.0208z"></path>
    <rect x="8.1213" y="27.6667" fill="#FFFFFF" stroke="none" stroke-width="2" stroke-linecap="round" stroke-linejoin="round" stroke-miterlimit="10" width="56.7574" height="7.1236"></rect>
    <rect x="8.1213" y="27.6667" fill="#ea5a47" stroke="none" stroke-width="2" stroke-linecap="round" stroke-linejoin="round" stroke-miterlimit="10" width="11.3514" height="7.1236"></rect>
    <rect x="19.4727" y="27.6667" fill="#FFFFFF" stroke="none" stroke-width="2" stroke-linecap="round" stroke-linejoin="round" stroke-miterlimit="10" width="11.3514" height="7.1236"></rect>
    <rect x="30.7789" y="27.6667" fill="#ea5a47" stroke="none" stroke-width="2" stroke-linecap="round" stroke-linejoin="round" stroke-miterlimit="10" width="11.3514" height="7.1236"></rect>
    <rect x="42.1303" y="27.6667" fill="#FFFFFF" stroke="none" stroke-width="2" stroke-linecap="round" stroke-linejoin="round" stroke-miterlimit="10" width="11.3514" height="7.1236"></rect>
    <rect x="53.4817" y="27.6667" fill="#ea5a47" stroke="none" stroke-width="2" stroke-linecap="round" stroke-linejoin="round" stroke-miterlimit="10" width="11.3514" height="7.1236"></rect>
    <rect x="8.1213" y="41.6667" fill="#FFFFFF" stroke="none" stroke-width="2" stroke-linecap="round" stroke-linejoin="round" stroke-miterlimit="10" width="56.7574" height="7.1236"></rect>
    <rect x="8.1213" y="41.6667" fill="#ea5a47" stroke="none" stroke-width="2" stroke-linecap="round" stroke-linejoin="round" stroke-miterlimit="10" width="11.3514" height="7.1236"></rect>
    <rect x="19.4727" y="41.6667" fill="#FFFFFF" stroke="none" stroke-width="2" stroke-linecap="round" stroke-linejoin="round" stroke-miterlimit="10" width="11.3514" height="7.1236"></rect>
    <rect x="30.7789" y="41.6667" fill="#ea5a47" stroke="none" stroke-width="2" stroke-linecap="round" stroke-linejoin="round" stroke-miterlimit="10" width="11.3514" height="7.1236"></rect>
    <rect x="42.1303" y="41.6667" fill="#FFFFFF" stroke="none" stroke-width="2" stroke-linecap="round" stroke-linejoin="round" stroke-miterlimit="10" width="11.3514" height="7.1236"></rect>
    <rect x="53.4817" y="41.6667" fill="#ea5a47" stroke="none" stroke-width="2" stroke-linecap="round" stroke-linejoin="round" stroke-miterlimit="10" width="11.3514" height="7.1236"></rect>
  </g>
  <g id="hair">
  </g>
  <g id="skin">
  </g>
  <g id="skin-shadow">
  </g>
  <g id="line">
    <path fill="none" stroke="#000000" stroke-width="2" stroke-linecap="round" stroke-linejoin="round" stroke-miterlimit="10" d="
		M15.732,56.0208h-1.6364c-0.6292,0-1.1392-0.5101-1.1392-1.1393V24.1436c0-0.6292,0.51-1.1393,1.1392-1.1393h1.6364
		c0.6292,0,1.1393,0.5101,1.1393,1.1393v30.7379C16.8713,55.5107,16.3612,56.0208,15.732,56.0208z"></path>
    <path fill="none" stroke="#000000" stroke-width="2" stroke-linecap="round" stroke-linejoin="round" stroke-miterlimit="10" d="
		M59.2728,56.0208h-1.6364c-0.6292,0-1.1392-0.5101-1.1392-1.1393V24.1436c0-0.6292,0.51-1.1393,1.1392-1.1393h1.6364
		c0.6292,0,1.1393,0.5101,1.1393,1.1393v30.7379C60.4121,55.5107,59.902,56.0208,59.2728,56.0208z"></path>
    <rect x="8.1213" y="27.6667" fill="none" stroke="#000000" stroke-width="2" stroke-linecap="round" stroke-linejoin="round" stroke-miterlimit="10" width="56.7574" height="7.1236"></rect>
    <rect x="8.1213" y="27.6667" fill="none" stroke="#000000" stroke-width="2" stroke-linecap="round" stroke-linejoin="round" stroke-miterlimit="10" width="11.3514" height="7.1236"></rect>
    <rect x="19.4727" y="27.6667" fill="none" stroke="#000000" stroke-width="2" stroke-linecap="round" stroke-linejoin="round" stroke-miterlimit="10" width="11.3514" height="7.1236"></rect>
    <rect x="30.7789" y="27.6667" fill="none" stroke="#000000" stroke-width="2" stroke-linecap="round" stroke-linejoin="round" stroke-miterlimit="10" width="11.3514" height="7.1236"></rect>
    <rect x="42.1303" y="27.6667" fill="none" stroke="#000000" stroke-width="2" stroke-linecap="round" stroke-linejoin="round" stroke-miterlimit="10" width="11.3514" height="7.1236"></rect>
    <rect x="53.4817" y="27.6667" fill="none" stroke="#000000" stroke-width="2" stroke-linecap="round" stroke-linejoin="round" stroke-miterlimit="10" width="11.3514" height="7.1236"></rect>
    <rect x="8.1213" y="41.6667" fill="none" stroke="#000000" stroke-width="2" stroke-linecap="round" stroke-linejoin="round" stroke-miterlimit="10" width="56.7574" height="7.1236"></rect>
    <rect x="8.1213" y="41.6667" fill="none" stroke="#000000" stroke-width="2" stroke-linecap="round" stroke-linejoin="round" stroke-miterlimit="10" width="11.3514" height="7.1236"></rect>
    <rect x="19.4727" y="41.6667" fill="none" stroke="#000000" stroke-width="2" stroke-linecap="round" stroke-linejoin="round" stroke-miterlimit="10" width="11.3514" height="7.1236"></rect>
    <rect x="30.7789" y="41.6667" fill="none" stroke="#000000" stroke-width="2" stroke-linecap="round" stroke-linejoin="round" stroke-miterlimit="10" width="11.3514" height="7.1236"></rect>
    <rect x="42.1303" y="41.6667" fill="none" stroke="#000000" stroke-width="2" stroke-linecap="round" stroke-linejoin="round" stroke-miterlimit="10" width="11.3514" height="7.1236"></rect>
    <rect x="53.4817" y="41.6667" fill="none" stroke="#000000" stroke-width="2" stroke-linecap="round" stroke-linejoin="round" stroke-miterlimit="10" width="11.3514" height="7.1236"></rect>
  </g>
</svg>