<?xml version="1.0" encoding="utf-8"?>
<!-- Generator: Adobe Illustrator 22.0.1, SVG Export Plug-In . SVG Version: 6.00 Build 0)  -->
<svg version="1.1" id="emoji" xmlns="http://www.w3.org/2000/svg" xmlns:xlink="http://www.w3.org/1999/xlink" x="0px" y="0px"
	 viewBox="0 0 72 72" style="enable-background:new 0 0 72 72;" xml:space="preserve">
<style type="text/css">
	.st0{fill:#B3B3B3;}
	.st1{fill:none;stroke:#00A5FF;stroke-width:0.1;stroke-miterlimit:10;}
	.st2{fill:none;stroke:#000000;stroke-width:2;stroke-linecap:round;stroke-linejoin:round;}
	.st3{fill:none;stroke:#000000;stroke-width:2;stroke-linecap:round;stroke-linejoin:round;stroke-miterlimit:10;}
	.st4{fill:none;stroke:#EA5A47;stroke-width:2.1;stroke-linecap:round;stroke-linejoin:round;stroke-miterlimit:10;}
</style>
<g id="grid">
	<path class="st0" d="M68,4v64H4V4H68L68,4z M72,0H0v72h72V0z"/>
	<path class="st1" d="M12.9,11h46.2c1.1,0,1.9,0.9,1.9,1.9l0,0V59c0,1.1-0.9,1.9-1.9,1.9H12.9C11.9,61,11,60.1,11,59l0,0V12.9
		C11,11.8,11.9,11,12.9,11L12.9,11z"/>
	<path class="st1" d="M18.3,4h35.5C55,4,56,5,56,6.3v59.5c0,1.2-1,2.3-2.3,2.3H18.3C17,68,16,67,16,65.7V6.3C16,5,17,4,18.3,4z"/>
	<path class="st1" d="M68,18.3v35.5c0,1.2-1,2.3-2.3,2.3H6.3C5,56,4,55,4,53.7V18.3C4,17,5,16,6.3,16h59.5C67,16,68,17,68,18.3z"/>
	<circle class="st1" cx="36" cy="36" r="29"/>
</g>
<g id="color">
</g>
<g id="hair">
</g>
<g id="skin">
</g>
<g id="skin-shadow">
</g>
<g id="line">
	<g>
		<path d="M31,45c-0.6,0-1,0.4-1,1c0,5.1-4.1,9.2-9.2,9.2s-9.2-4.1-9.2-9.2s4.1-9.2,9.2-9.2c0,0,0,0,0,0l0.2-2c-0.1,0-0.1,0-0.2,0
			c-6.2,0-11.2,5-11.2,11.2s5,11.2,11.2,11.2S32,52.2,32,46C32,45.4,31.6,45,31,45z"/>
		<path d="M52.8,34.8c-1.4,0-2.7,0.3-3.9,0.7l0.9,1.8c1-0.3,2-0.5,3-0.5c5.1,0,9.2,4.1,9.2,9.2s-4.1,9.2-9.2,9.2
			c-4.9,0-8.9-3.9-9.1-8.7l-2-0.1c0.2,6,5.1,10.8,11.1,10.8C59,57.2,64,52.2,64,46S59,34.8,52.8,34.8z"/>
		<path d="M48,38.2l-0.9-1.8c-2.8,1.7-4.8,4.5-5.3,7.9l2,0.1C44.3,41.8,45.8,39.6,48,38.2z"/>
		<line class="st2" x1="23" y1="22" x2="27" y2="22"/>
		<line class="st3" x1="42" y1="25.7" x2="48" y2="25.7"/>
	</g>
	<g>
		<line class="st3" x1="21.1" y1="46" x2="22.8" y2="24.6"/>
		<line class="st3" x1="36" y1="45" x2="23" y2="30"/>
		<line class="st3" x1="45" y1="30" x2="53" y2="46"/>
		<line class="st3" x1="23" y1="30" x2="44" y2="30"/>
		<line class="st3" x1="46" y1="28.4" x2="36" y2="45"/>
		<line class="st3" x1="36" y1="45" x2="53" y2="46"/>
	</g>
</g>
<g id="color-foreground">
	<line class="st4" x1="21.1" y1="46" x2="22.8" y2="24.6"/>
	<line class="st4" x1="36" y1="45" x2="23" y2="30"/>
	<line class="st4" x1="45" y1="30" x2="53" y2="46"/>
	<line class="st4" x1="23" y1="30" x2="44" y2="30"/>
	<line class="st4" x1="46" y1="28.4" x2="36" y2="45"/>
	<line class="st4" x1="36" y1="45" x2="53" y2="46"/>
</g>
</svg>
