<svg id="emoji" viewBox="0 0 72 72" xmlns="http://www.w3.org/2000/svg">
  <g id="grid">
    <path fill="#b3b3b3" d="M68,4V68H4V4H68m4-4H0V72H72V0Z"/>
    <path fill="none" stroke="#00a5ff" stroke-miterlimit="10" stroke-width="0.1" d="M12.923,10.9583H59.0769A1.9231,1.9231,0,0,1,61,12.8814V59.0352a1.9231,1.9231,0,0,1-1.9231,1.9231H12.9231A1.9231,1.9231,0,0,1,11,59.0352V12.8813A1.923,1.923,0,0,1,12.923,10.9583Z"/>
    <rect x="16" y="4" rx="2.2537" width="40" height="64" fill="none" stroke="#00a5ff" stroke-miterlimit="10" stroke-width="0.1"/>
    <rect x="16" y="4" rx="2.2537" width="40" height="64" transform="translate(72) rotate(90)" fill="none" stroke="#00a5ff" stroke-miterlimit="10" stroke-width="0.1"/>
    <circle cx="36" cy="36" r="29" fill="none" stroke="#00a5ff" stroke-miterlimit="10" stroke-width="0.1"/>
  </g>
  <g id="color">
    <path fill="#ea5a47" stroke="none" d="M39.222,36.977c0,0-5.9629,17.859-15.6839-4.1085c-1.2636-2.8555-1.6273-7.5414-1.5838-6.9559 L16.0542,38.049c-0.3763,0.782-1.2391,1.4836-0.4093,1.747c9.8168,3.1162,10.5619,9.6178,10.5214,11.7569 c-0.0074,0.394,15.7484,0.3425,15.7974,0c0.4531-3.1672,3.4645-17.5662,19.8563-6.2237 c0.9994,0.6916-2.5161-11.2087-3.9506-11.2087c0,0-17.6354,0.4864-17.6354,1.1235L39.222,36.977"/>
    <ellipse cx="16.1562" cy="50.8929" rx="5.4763" ry="5.4764" transform="matrix(0.9997 -0.0233 0.0233 0.9997 -1.1828 0.3907)" fill="#d0cfce" stroke="none" stroke-miterlimit="10" stroke-width="2"/>
    <circle cx="51.3977" cy="50.893" r="5.4764" fill="#d0cfce" stroke="none" stroke-miterlimit="10" stroke-width="2"/>
    <rect x="40.4364" y="29.5156" width="18.4261" height="5.6695" fill="#a57939" stroke="none" stroke-linecap="round" stroke-linejoin="round" stroke-miterlimit="10" stroke-width="2"/>
  </g>
  <g id="hair"/>
  <g id="skin"/>
  <g id="skin-shadow"/>
  <g id="line">
    <ellipse cx="16.1562" cy="50.8929" rx="5.4763" ry="5.4764" transform="matrix(0.9997 -0.0233 0.0233 0.9997 -1.1828 0.3907)" fill="none" stroke="#000000" stroke-miterlimit="10" stroke-width="2"/>
    <circle cx="51.3977" cy="50.893" r="5.4764" fill="none" stroke="#000000" stroke-miterlimit="10" stroke-width="2"/>
    <path fill="none" stroke="#000000" stroke-linecap="round" stroke-linejoin="round" stroke-miterlimit="10" stroke-width="2" d="M26.2624,50.7765c-0.0016-0.4688-0.0365-0.9374-0.1044-1.4022c-0.2986-2.0411-1.2365-4.0074-2.8138-5.5781 c-3.8908-3.8746-10.1993-3.8746-14.0904,0.0001"/>
    <path fill="none" stroke="#000000" stroke-linecap="round" stroke-linejoin="round" stroke-miterlimit="10" stroke-width="2" d="M61.6972,50.7765c0-5.4798-4.4421-9.9218-9.9218-9.9218c-5.4795,0-9.9216,4.442-9.9216,9.9218"/>
    <rect x="40.4364" y="29.5156" width="18.4261" height="5.6695" fill="none" stroke="#000000" stroke-linecap="round" stroke-linejoin="round" stroke-miterlimit="10" stroke-width="2"/>
    <polyline fill="none" stroke="#000000" stroke-linecap="round" stroke-linejoin="round" stroke-miterlimit="10" stroke-width="2" points="14.9234,40.8547 23.4277,23.846 29.0973,23.846"/>
    <line x1="26.2624" x2="41.8538" y1="50.8929" y2="50.8928" fill="none" stroke="#000000" stroke-linecap="round" stroke-linejoin="round" stroke-miterlimit="10" stroke-width="2"/>
    <path fill="none" stroke="#000000" stroke-linecap="round" stroke-linejoin="round" stroke-miterlimit="10" stroke-width="2" d="M40.4364,35.1851c0,0-5.6696,21.2609-17.0087,0"/>
    <path fill="none" stroke="#000000" stroke-linecap="round" stroke-linejoin="round" stroke-miterlimit="10" stroke-width="2" d="M58.8625,35.1851c0,0,4.2521,7.0871,2.8347,15.5914"/>
  </g>
</svg>
