<svg id="emoji" viewBox="0 0 72 72" xmlns="http://www.w3.org/2000/svg">
  <g id="grid">
    <path fill="#b3b3b3" d="M68,4.4067v64H4v-64H68m4-4H0v72H72v-72Z"/>
    <path fill="none" stroke="#00a5ff" stroke-miterlimit="10" stroke-width="0.1" d="M12.923,11.365H59.0769A1.9231,1.9231,0,0,1,61,13.2881V59.4419a1.9231,1.9231,0,0,1-1.9231,1.9231H12.9231A1.9231,1.9231,0,0,1,11,59.4419V13.288A1.923,1.923,0,0,1,12.923,11.365Z"/>
    <rect x="16" y="4.4067" rx="2.2537" width="40" height="64" fill="none" stroke="#00a5ff" stroke-miterlimit="10" stroke-width="0.1"/>
    <rect x="16" y="4.4067" rx="2.2537" width="40" height="64" transform="translate(72.4067 0.4067) rotate(90)" fill="none" stroke="#00a5ff" stroke-miterlimit="10" stroke-width="0.1"/>
    <circle cx="36" cy="36.4067" r="29" fill="none" stroke="#00a5ff" stroke-miterlimit="10" stroke-width="0.1"/>
  </g>
  <g id="color">
    <path fill="#a57939" d="M53.5813,29.472a3.5128,3.5128,0,0,1-1,.0729H35.4045a1.0029,1.0029,0,0,0-1,1v2.0076a1.0029,1.0029,0,0,0,1,1H56.5888a1.0029,1.0029,0,0,0,1-1V11.3682a1.0029,1.0029,0,0,0-1-1H54.5813a1.0029,1.0029,0,0,0-1,1V29.472Z"/>
    <path fill="#ea5a47" d="M41.3058,33.5525c-7.8,2.8289-8.5532,11.1565-8.5532,11.1565l-9.29.1483a14.883,14.883,0,0,1,1.9152,7.0546l10.81.1463v-.1463a12.4838,12.4838,0,1,1,24.9676,0c1.7835-10.7-3.5667-19.6176-3.5667-19.6176"/>
    <circle cx="48.1964" cy="50.8002" r="6.2912" fill="#d0cfce"/>
    <circle cx="15.1762" cy="50.8002" r="6.2912" fill="#d0cfce"/>
  </g>
  <g id="line">
    <path fill="none" stroke="#000" stroke-linecap="round" stroke-linejoin="round" stroke-width="2" d="M23.6968,45.7191a10.9438,10.9438,0,0,1,1.6812,6.1928l10.81.1463v-.1463a12.4838,12.4838,0,1,1,24.9676,0c1.7835-10.7-3.5667-19.6176-3.5667-19.6176"/>
    <path fill="none" stroke="#000" stroke-linecap="round" stroke-linejoin="round" stroke-width="2" d="M41.3058,33.5525c-7.8,2.8289-8.7086,12.14-8.7086,12.14l-4.079.0123"/>
    <circle cx="48.1964" cy="50.8002" r="6.2912" fill="none" stroke="#000" stroke-miterlimit="10" stroke-width="2"/>
    <path fill="none" stroke="#000" stroke-linecap="round" stroke-linejoin="round" stroke-width="2" d="M25.378,51.9119a12.505,12.505,0,0,0-8.3441-11.7237"/>
    <path fill="none" stroke="#000" stroke-linecap="round" stroke-linejoin="round" stroke-width="2" d="M53.5813,29.472a3.5128,3.5128,0,0,1-1,.0729H35.4045a1.0029,1.0029,0,0,0-1,1v2.0076a1.0029,1.0029,0,0,0,1,1H56.5888a1.0029,1.0029,0,0,0,1-1V11.3682a1.0029,1.0029,0,0,0-1-1H54.5813a1.0029,1.0029,0,0,0-1,1V29.472Z"/>
    <polyline fill="none" stroke="#000" stroke-linecap="round" stroke-linejoin="round" stroke-width="2" points="21.275 42.528 30.619 20.544 34.405 20.581 37.301 20.61"/>
    <line x1="34.4045" x2="34.4045" y1="18.4809" y2="20.581" fill="none" stroke="#000" stroke-linecap="round" stroke-linejoin="round" stroke-width="2"/>
    <circle cx="15.1762" cy="50.7988" r="6.2911" transform="translate(-1.1795 0.3674) rotate(-1.3352)" fill="none" stroke="#000" stroke-miterlimit="10" stroke-width="2"/>
  </g>
</svg>
