<svg id="emoji" xmlns="http://www.w3.org/2000/svg" viewBox="0 0 72 72">
  <g id="grid">
    <path d="M68,4V68H4V4H68m4-4H0V72H72V0Z" fill="#b3b3b3"></path>
    <path d="M12.923,10.9583H59.0769A1.9231,1.9231,0,0,1,61,12.8814V59.0352a1.9231,1.9231,0,0,1-1.9231,1.9231H12.9231A1.9231,1.9231,0,0,1,11,59.0352V12.8813A1.923,1.923,0,0,1,12.923,10.9583Z" fill="none" stroke="#00a5ff" stroke-miterlimit="10" stroke-width="0.1"></path>
    <rect x="16" y="4" width="40" height="64" rx="2.2537" fill="none" stroke="#00a5ff" stroke-miterlimit="10" stroke-width="0.1"></rect>
    <rect x="16" y="4" width="40" height="64" rx="2.2537" transform="translate(72) rotate(90)" fill="none" stroke="#00a5ff" stroke-miterlimit="10" stroke-width="0.1"></rect>
    <circle cx="36" cy="36" r="29" fill="none" stroke="#00a5ff" stroke-miterlimit="10" stroke-width="0.1"></circle>
  </g>
  <g id="color">
    <ellipse fill="#FCEA2B" stroke="none" stroke-width="2" stroke-miterlimit="10" cx="17.1788" cy="41.0647" rx="8.6999" ry="11.3478"></ellipse>
    <path fill="#A57939" d="M6.2093,35.7691c0.6446-8.7616,7.2633-8.8549,10.5912-8.3217c0.3231,0.0518,1.2284,0.0356,1.513,0
		c6.0521-0.7565,9.0782,6.0521,9.0782,9.0782c0,1.0705,0,3.7826-1.513,5.2956c0,0-3.4648-4.1939-3.6237-6.6361
		c0,0-11.5066,4.3665-12.2632,0.5839c0,0-0.7565,3.0261-1.513,3.7826c0,0,0,2.2696,0,3.0261
		C8.4789,42.5778,5.9318,39.5415,6.2093,35.7691z" stroke="none"></path>
    <path fill="#EA5A47" d="M37.8038,18.7404c-0.9287,0.4161-1.6794,1.1487-2.1179,2.0671c-0.0899,0.1856-0.3133,0.2632-0.4989,0.1733
			c-0.0756-0.0366-0.1367-0.0977-0.1733-0.1733c-1.0304-2.1406-3.601-3.0405-5.7415-2.0101
			c-2.1406,1.0304-3.0405,3.601-2.0101,5.7415c0.0605,0.1257,0.1271,0.2484,0.1996,0.3677l0.2465,0.3637l7.3101,9.3723
			C38.488,29.9897,40.8445,23.5371,37.8038,18.7404z" stroke="none"></path>
    <path fill="#D22F27" d="M39.559,18.3692c-0.6046-0.0011-1.2027,0.1253-1.7553,0.3708c3.0407,4.7967,0.6831,11.2497-2.7856,15.9007
			l0.3328,0.425l0.5852-0.7503l7.1017-9.106c1.4007-1.9206,0.9792-4.613-0.9414-6.0137c-0.7364-0.5371-1.6244-0.8265-2.5359-0.8266
			H39.559z" stroke="none"></path>
    <ellipse fill="#FCEA2B" stroke="none" stroke-width="2" stroke-miterlimit="10" cx="55.0672" cy="40.6151" rx="9.0108" ry="11.7532"></ellipse>
    <path fill="#A57939" d="M45.9464,28.6693c-0.0393,0.2721,13.7161-7.0351,16.337,1.4384c0,0,3.6112,1.7719,2.9497,7.853
		c-0.1126,1.035-0.1141,3.3949-1.1552,4.436l-2.9001-7.3407c0,0-7.6627,2.9646-12.8713-0.6208l-2.3602,7.7685
		c0,0-0.9125-1.3505-1.0411-3.1233c0,0-0.3826-4.139,0.4576-5.6684C45.3629,33.412,46.9875,30.7515,45.9464,28.6693z" stroke="none"></path>
  </g>
  <g id="hair">
  </g>
  <g id="skin">
  </g>
  <g id="skin-shadow">
  </g>
  <g id="line">
    <ellipse fill="none" stroke="#000000" stroke-width="2" stroke-miterlimit="10" cx="17.1788" cy="41.0647" rx="8.6999" ry="11.3478"></ellipse>
    <path fill="none" stroke="#000000" stroke-width="2" stroke-linecap="round" stroke-linejoin="round" d="M16.9073,47.4287
		c0.6425,0.6853,1.4135,0.6853,2.0561,0"></path>
    <path fill="none" stroke="#000000" stroke-width="2" stroke-linecap="round" stroke-miterlimit="10" d="M19.2106,41.8212
		c0,0,1.513,1.513,3.0261,0"></path>
    <path fill="none" stroke="#000000" stroke-width="2" stroke-linecap="round" stroke-miterlimit="10" d="M11.6454,41.0647
		c0,0,1.513,1.513,3.0261,0"></path>
    <path fill="none" stroke="#000000" stroke-width="2" stroke-linecap="round" stroke-linejoin="round" d="M6.2093,35.7691
		c0.6446-8.7616,7.2633-8.8549,10.5912-8.3217c0.3231,0.0518,1.2284,0.0356,1.513,0c6.0521-0.7565,9.0782,6.0521,9.0782,9.0782
		c0,1.0705,0,3.7826-1.513,5.2956c0,0-3.4648-4.1939-3.6237-6.6361c0,0-11.5066,4.3665-12.2632,0.5839
		c0,0-0.7565,3.0261-1.513,3.7826c0,0,0,2.2696,0,3.0261C8.4789,42.5778,5.9318,39.5415,6.2093,35.7691z"></path>
    <path fill="none" stroke="#000000" stroke-width="2" stroke-linecap="round" stroke-linejoin="round" d="M35.3509,35.6846
			L27.4,25.4892l-0.2562-0.3787c-1.3447-2.2041-0.6481-5.0809,1.5559-6.4257c2.2041-1.3448,5.0809-0.6481,6.4257,1.5559
			c0.0821,0.1346,0.1574,0.2733,0.2255,0.4155c1.1211-2.3258,3.9153-3.3025,6.2411-2.1814
			c2.3258,1.1211,3.3025,3.9153,2.1814,6.2411c-0.1243,0.2579-0.272,0.5039-0.4414,0.7347L35.3509,35.6846z"></path>
    <ellipse fill="none" stroke="#000000" stroke-width="2" stroke-miterlimit="10" cx="55.0672" cy="40.6151" rx="9.0108" ry="11.7532"></ellipse>
    <path fill="none" stroke="#000000" stroke-width="2" stroke-linecap="round" stroke-linejoin="round" d="M53.0335,47.4225
		c0.6424,0.6852,1.4132,0.6852,2.0556,0"></path>
    <path fill="none" stroke="#000000" stroke-width="2" stroke-linecap="round" stroke-miterlimit="10" d="M49.7727,41.8162
		c0,0,1.5127,1.5127,3.0254,0"></path>
    <path fill="none" stroke="#000000" stroke-width="2" stroke-linecap="round" stroke-miterlimit="10" d="M57.0891,41.0599
		c0,0,1.5127,1.5127,3.0254,0"></path>
    <path fill="none" stroke="#000000" stroke-width="2" stroke-linecap="round" stroke-linejoin="round" d="M60.4,28.2996"></path>
    <path fill="none" stroke="#000000" stroke-width="2" stroke-linejoin="round" stroke-miterlimit="10" d="M45.9464,28.6693
		c-0.0393,0.2721,13.7161-7.0351,16.337,1.4384c0,0,3.6112,1.7719,2.9497,7.853c-0.1126,1.035-0.1141,3.3949-1.1552,4.436
		l-2.9001-7.3407c0,0-7.6627,2.9646-12.8713-0.6208l-2.3602,7.7685c0,0-0.9125-1.3505-1.0411-3.1233c0,0-0.3826-4.139,0.4576-5.6684
		C45.3629,33.412,46.9875,30.7515,45.9464,28.6693z"></path>
  </g>
</svg>