<svg id="emoji" xmlns="http://www.w3.org/2000/svg" viewBox="0 0 72 72">
  <g id="grid">
    <path d="M68,4V68H4V4H68m4-4H0V72H72Z" fill="#b3b3b3"/>
    <rect x="11" y="10.9583" width="50" height="50" rx="1.9231" fill="none" stroke="#00a5ff" stroke-miterlimit="10" stroke-width="0.1"/>
    <rect x="16" y="4" width="40" height="64" rx="2.2537" fill="none" stroke="#00a5ff" stroke-miterlimit="10" stroke-width="0.1"/>
    <rect x="4" y="16" width="64" height="40" rx="2.2537" fill="none" stroke="#00a5ff" stroke-miterlimit="10" stroke-width="0.1"/>
    <circle cx="36" cy="36" r="29" fill="none" stroke="#00a5ff" stroke-miterlimit="10" stroke-width="0.1"/>
  </g>
  <g id="color">
    <path fill="#FCEA2B" d="M36,13c-12.6823,0-23,10.3177-23,23c0,12.6822,10.3177,23,23,23c12.6822,0,23-10.3178,23-23 C59,23.3177,48.6822,13,36,13z"/>
  </g>
  <g id="hair"/>
  <g id="skin"/>
  <g id="skin-shadow"/>
  <g id="line">
    <circle fill="none" stroke="#000000" stroke-width="2" stroke-miterlimit="10" cx="36" cy="36" r="23"/>
    <path fill="none" stroke="#000000" stroke-width="2" stroke-linecap="round" stroke-linejoin="round" stroke-miterlimit="10" d="M29.5,43c1.2841-0.6376,3.9847-1.0308,6.8421-0.9981c2.6235,0.03,4.9897,0.4146,6.1579,0.9981"/>
    <line fill="none" stroke="#000000" stroke-width="2" stroke-linecap="round" stroke-linejoin="round" stroke-miterlimit="10" x1="47.5" y1="29" x2="42.5" y2="33"/>
    <line fill="none" stroke="#000000" stroke-width="2" stroke-linecap="round" stroke-linejoin="round" stroke-miterlimit="10" x1="42.5" y1="29" x2="47.5" y2="33"/>
    <line fill="none" stroke="#000000" stroke-width="2" stroke-linecap="round" stroke-linejoin="round" stroke-miterlimit="10" x1="29.5" y1="29" x2="24.5" y2="33"/>
    <line fill="none" stroke="#000000" stroke-width="2" stroke-linecap="round" stroke-linejoin="round" stroke-miterlimit="10" x1="24.5" y1="29" x2="29.5" y2="33"/>
  </g>
</svg>
