<svg id="emoji" xmlns="http://www.w3.org/2000/svg" viewBox="0 0 72 72">
  <g id="grid">
    <path d="M68,4V68H4V4H68m4-4H0V72H72Z" fill="#b3b3b3"/>
    <rect x="11" y="10.9583" width="50" height="50" rx="1.9231" fill="none" stroke="#00a5ff" stroke-miterlimit="10" stroke-width="0.1"/>
    <rect x="16" y="4" width="40" height="64" rx="2.2537" fill="none" stroke="#00a5ff" stroke-miterlimit="10" stroke-width="0.1"/>
    <rect x="4" y="16" width="64" height="40" rx="2.2537" fill="none" stroke="#00a5ff" stroke-miterlimit="10" stroke-width="0.1"/>
    <circle cx="36" cy="36" r="29" fill="none" stroke="#00a5ff" stroke-miterlimit="10" stroke-width="0.1"/>
  </g>
  <g id="color">
    <circle fill="#FCEA2B" cx="36" cy="36" r="24"/>
    <path fill="#FFFFFF" d="M37.9763,26.7191c6.7831,0.247,13.8395,0.8443,19.6935,2.1435l0.2159,0.0451 C54.8961,19.6755,46.2274,13,36,13c-12.7031,0-23,10.2969-23,23c0,2.8816,0.5299,5.6395,1.4977,8.1814l-0.0013-0.0023 c0,0,3.79-3.84,9.95-8.55c1.21-0.93,2.52-1.89,3.91-2.86C31.2463,30.7291,34.4864,28.6491,37.9763,26.7191"/>
  </g>
  <g id="hair"/>
  <g id="skin"/>
  <g id="skin-shadow"/>
  <g id="line">
    <path fill="none" stroke="#000000" stroke-width="2" stroke-linecap="round" stroke-linejoin="round" stroke-miterlimit="10" d="M44.9164,27.1091c0.56,0.97,1.38,1.78,2.38,2.34c1.29,0.89,2.87,1.27,4.43,1.07"/>
    <path d="M29.5763,34.9791c0,1.44-1.16,2.61-2.6,2.61c-1.21,0-2.24-0.83-2.53-1.96c1.21-0.93,2.52-1.89,3.91-2.86 C29.0863,33.2291,29.5763,34.0491,29.5763,34.9791z"/>
    <circle cx="44.2239" cy="34.9805" r="2.6038"/>
    <path fill="none" stroke="#000000" stroke-width="2" stroke-linecap="round" stroke-linejoin="round" stroke-miterlimit="10" d="M33.1081,46.8878c0,0,5.7328-1.0685,11.6633,2.0944"/>
    <path fill="none" stroke="#000000" stroke-width="2" stroke-linecap="round" stroke-linejoin="round" stroke-miterlimit="10" d="M14.4963,44.1791c0,0,3.79-3.84,9.95-8.55c1.21-0.93,2.52-1.89,3.91-2.86c2.89-2.04,6.13-4.12,9.62-6.05"/>
    <path fill="none" stroke="#000000" stroke-width="2" stroke-linecap="round" stroke-linejoin="round" stroke-miterlimit="10" d="M57.6698,28.8626c-15.9396-3.5376-41.9481-1.9371-41.9481-1.9371"/>
    <path fill="none" stroke="#000000" stroke-width="2" stroke-linecap="round" stroke-linejoin="round" stroke-miterlimit="10" d="M19.3657,20.2796c0,0,21.5837-1.5544,34.954,1.9832"/>
    <path fill="none" stroke="#000000" stroke-width="2" stroke-linecap="round" stroke-linejoin="round" stroke-miterlimit="10" d="M57.8857,28.9077C54.8961,19.6755,46.2274,13,36,13c-12.7031,0-23,10.2969-23,23c0,2.8816,0.5299,5.6395,1.4977,8.1814"/>
    <path fill="none" stroke="#000000" stroke-width="2" stroke-linecap="round" stroke-linejoin="round" stroke-miterlimit="10" d="M16.0847,47.5135C20.0633,54.3807,27.4919,59,35.9999,59c12.7022,0,23-10.2978,23-23c0-1.243-0.0986-2.4629-0.2884-3.6525"/>
  </g>
</svg>
