<svg id="emoji" xmlns="http://www.w3.org/2000/svg" viewBox="0 0 72 72">
  <g id="grid">
    <path d="M68,4V68H4V4H68m4-4H0V72H72Z" fill="#b3b3b3"/>
    <rect x="11" y="10.9583" width="50" height="50" rx="1.9231" fill="none" stroke="#00a5ff" stroke-miterlimit="10" stroke-width="0.1"/>
    <rect x="16" y="4" width="40" height="64" rx="2.2537" fill="none" stroke="#00a5ff" stroke-miterlimit="10" stroke-width="0.1"/>
    <rect x="4" y="16" width="64" height="40" rx="2.2537" fill="none" stroke="#00a5ff" stroke-miterlimit="10" stroke-width="0.1"/>
    <circle cx="36" cy="36" r="29" fill="none" stroke="#00a5ff" stroke-miterlimit="10" stroke-width="0.1"/>
  </g>
  <g id="color">
    <circle fill="#FCEA2B" cx="36" cy="36" r="23"/>
  </g>
  <g id="hair"/>
  <g id="skin"/>
  <g id="skin-shadow"/>
  <g id="line">
    <circle fill="none" stroke="#000000" stroke-width="2" stroke-miterlimit="10" cx="36" cy="36" r="23"/>
    <path d="M30.3173,32.9252c0,1.6569-1.3431,3-3,3s-3-1.3431-3-3c0-1.6569,1.3431-3,3-3 C28.9739,29.9258,30.3167,31.2686,30.3173,32.9252"/>
    <path d="M48.3173,30.9252c0,1.6569-1.3431,3-3,3s-3-1.3431-3-3s1.3431-3,3-3C46.9739,27.9258,48.3167,29.2686,48.3173,30.9252"/>
    <path fill="none" stroke="#000000" stroke-width="2" stroke-linecap="round" stroke-linejoin="round" d="M21.2638,27.6286 c1.1139-1.3946,2.7077-2.3238,4.47-2.6062c1.4909-0.2133,3.011,0.0546,4.3392,0.7648"/>
    <path fill="none" stroke="#000000" stroke-width="2" stroke-linecap="round" stroke-linejoin="round" d="M41,27.0774 c1.3758,1.1372,3.1261,1.7207,4.9091,1.6364c1.503-0.0963,2.9361-0.6696,4.0909-1.6364"/>
    <path fill="none" stroke="#000000" stroke-width="2" stroke-linecap="round" stroke-linejoin="round" d="M24,40.9991 C23.7435,40.795,23.52,49,29,49c5,0,4-8.0009,9-5.6007"/>
    <path fill="none" stroke="#000000" stroke-width="2" stroke-linecap="round" stroke-linejoin="round" d="M49,40.9991 c0,0-0.8892,6.146-5,6.4007c-3.7688,0.2335-5.1617-6.1179-9-4.0005"/>
  </g>
</svg>
