<svg id="emoji" viewBox="0 0 72 72" version="1.1" xmlns="http://www.w3.org/2000/svg">
  <g transform="matrix(-.542 0 0 .542 55.84 18.6)">
    <path fill="#fcea2b" stroke="#fcea2b" stroke-linecap="round" stroke-width="3.356" d="m11.47 41.95c-2.854-3.418-5.349-4.313-7.553-8.194-2.521-8.146 2.176-22.42 13.19-23.95 2.1-0.2904 2.075 0.0154 4.734 0.1351"/>
    <path fill="#fcea2b" stroke="#fcea2b" stroke-linecap="round" stroke-width="3.356" d="m11.96 42.37c2.177 2.283 25.48 15.61 25.48 13.72 3.095 2.277 11.42 4.06 10.15-2.138 1.649 0.6019 6.782 0.8884 5.183-4.635 4.104 1.997 7.604-1.128 7.062-4.644 3.633 0.6562 5.854-2.305 4.833-5.836 8.333-5.669 8.552-22.59 0-27.88-3.229-2.458-4.417 6.229-9.667 4.335l-17.92-5.558-10.1-2.502c-2.161-0.5672-4.396 0.6115-5.15 2.715 2.667 7.835-11.63 31.27-9.873 32.42"/>
    <path fill="#fcea2b" d="m30.93 53.76c1.177-1.555 2.935-1.825 4.54-0.9155 1.5 0.85 2.607 2.56 1.55 4.363 0 0-1.131 1.903-1.451 2.568-0.1355 0.2817-0.2713 0.5633-0.4599 0.8126-1.177 1.555-3.391 1.862-4.946 0.6856s-1.862-3.391-0.6856-4.946c-1e-4 0 1.452-2.566 1.452-2.566z"/>
    <path fill="#fcea2b" d="m24.82 50.3c1.177-1.555 2.935-1.825 4.54-0.9155 1.5 0.85 2.607 2.56 1.55 4.363 0 0-1.131 1.903-1.451 2.568-0.1355 0.2817-0.2713 0.5633-0.4599 0.8126-1.177 1.555-3.391 1.862-4.946 0.6856s-1.862-3.391-0.6856-4.946c-1e-4 1e-4 1.452-2.566 1.452-2.566z"/>
    <path fill="#fcea2b" d="m18.7 46.84c1.177-1.555 2.935-1.825 4.54-0.9155 1.5 0.85 2.607 2.56 1.55 4.363 0 0-1.131 1.903-1.451 2.568-0.1355 0.2817-0.2713 0.5633-0.4599 0.8126-1.177 1.555-3.391 1.862-4.946 0.6856s-1.862-3.391-0.6856-4.946c-1e-4 1e-4 1.452-2.566 1.452-2.566z"/>
  </g>
  <g transform="matrix(-.542 0 0 .542 55.84 18.6)" stroke-width="3.356">
    <path fill="none" stroke="#000" stroke-linecap="round" stroke-linejoin="round" stroke-miterlimit="4" stroke-width="3.356" d="m11.47 41.95c-1.892-1.792-6.345-6.113-7.553-8.194-5.048-8.697 1.778-23.01 13.19-23.95"/>
    <path fill="none" stroke="#000" stroke-linecap="round" stroke-linejoin="round" stroke-width="3.356" d="m40.92 42.85 11.85 6.466"/>
    <path fill="none" stroke="#000" stroke-linecap="round" stroke-linejoin="round" stroke-width="3.356" d="m36.03 48.15 11.56 5.803"/>
    <path fill="none" stroke="#000" stroke-linecap="round" stroke-linejoin="round" stroke-width="3.356" d="m59.83 44.67c-3.391-3.729-7.517-5.832-11.9-8.113"/>
    <path fill="none" stroke="#000" stroke-linecap="round" stroke-linejoin="round" stroke-width="3.356" d="m37.44 56.09c9.289 5.896 11.67-0.3111 10.15-2.138 2.975 1.712 6.788-0.5756 5.183-4.635 4.104 1.997 7.604-1.128 7.062-4.644 3.633 0.6562 5.854-2.305 4.833-5.836 6.353-4.322 7.99-15.18 4.62-22.44m-27.6-5.227-4.604-1.428-10.1-2.502c-2.161-0.5672-4.396 0.6115-5.15 2.715-0.8102 3.019-1.806 5.33-3.879 8.981-0.785 1.915 0.1129 4.105 2.016 4.918 2.055 0.511 2.994-0.4138 4.806-1.808 2.366-2.253 2.832-3.213 4.1-4.904l5.589 1.587m20.91 10.89 2.251 1.302c2.708 1.792 6.458 6.279 7.042 7.919"/>
    <path fill="none" stroke="#000" stroke-linecap="round" stroke-linejoin="round" stroke-width="3.356" d="m30.93 53.76c1.177-1.555 2.935-1.825 4.54-0.9155 1.5 0.85 2.607 2.56 1.55 4.363 0 0-1.131 1.903-1.451 2.568-0.1355 0.2817-0.2713 0.5633-0.4599 0.8126-1.177 1.555-3.391 1.862-4.946 0.6856s-1.862-3.391-0.6856-4.946c-1e-4 0 1.452-2.566 1.452-2.566z"/>
    <path fill="none" stroke="#000" stroke-linecap="round" stroke-linejoin="round" stroke-width="3.356" d="m31.32 52.39c-0.01697 0.4359-0.1457 0.8907-0.4158 1.352 0 0-1.131 1.903-1.451 2.568-0.1355 0.2817-0.2713 0.5633-0.4599 0.8126-0.9026 1.193-2.416 1.652-3.774 1.269"/>
    <path fill="none" stroke="#000" stroke-linecap="round" stroke-linejoin="round" stroke-width="3.356" d="m18.7 46.84c1.177-1.555 2.935-1.825 4.54-0.9155 1.5 0.85 2.607 2.56 1.55 4.363 0 0-1.131 1.903-1.451 2.568-0.1355 0.2817-0.2713 0.5633-0.4599 0.8126-1.177 1.555-3.391 1.862-4.946 0.6856s-1.862-3.391-0.6856-4.946c-1e-4 1e-4 1.452-2.566 1.452-2.566z"/>
  </g>
  <g id="grid">
    <path fill="#b3b3b3" d="M68,4V68H4V4H68m4-4H0V72H72V0Z"/>
    <path fill="none" stroke="#00a5ff" stroke-miterlimit="10" stroke-width="0.1" d="m12.92 10.96h46.15a1.923 1.923 0 0 1 1.923 1.923v46.15a1.923 1.923 0 0 1-1.923 1.923h-46.15a1.923 1.923 0 0 1-1.923-1.923v-46.15a1.923 1.923 0 0 1 1.923-1.923z"/>
    <rect x="16" y="4" rx="2.254" width="40" height="64" fill="none" stroke="#00a5ff" stroke-miterlimit="10" stroke-width="0.1"/>
    <rect x="16" y="4" rx="2.254" width="40" height="64" transform="translate(72) rotate(90)" fill="none" stroke="#00a5ff" stroke-miterlimit="10" stroke-width="0.1"/>
    <circle cx="36" cy="36" r="29" fill="none" stroke="#00a5ff" stroke-miterlimit="10" stroke-width="0.1"/>
  </g>
  <g id="color">
    <path id="_xD83D__xDEAB_" fill="#ea5a47" stroke-linecap="round" stroke-linejoin="round" stroke-miterlimit="10" stroke-width="2" d="m36 7c-16.02 0-29 12.98-29 29s12.98 29 29 29 29-12.98 29-29-12.98-29-29-29zm-23 29c0-5.075 1.648-9.764 4.432-13.57l32.14 32.14c-3.805 2.784-8.493 4.432-13.57 4.432-12.7 0-23-10.3-23-23zm41.57 13.57-32.14-32.14c3.805-2.784 8.493-4.432 13.57-4.432 12.7 0 23 10.3 23 23 0 5.075-1.648 9.764-4.432 13.57z"/>
  </g>
  <g id="line">
    <path fill="none" stroke="#000" stroke-linecap="round" stroke-linejoin="round" stroke-miterlimit="10" stroke-width="2" d="m36 7c-16.02 0-29 12.98-29 29s12.98 29 29 29 29-12.98 29-29-12.98-29-29-29zm-23 29c0-5.075 1.648-9.764 4.432-13.57l32.14 32.14c-3.805 2.784-8.493 4.432-13.57 4.432-12.7 0-23-10.3-23-23zm41.57 13.57-32.14-32.14c3.805-2.784 8.493-4.432 13.57-4.432 12.7 0 23 10.3 23 23 0 5.075-1.648 9.764-4.432 13.57z"/>
  </g>
</svg>
