<svg id="emoji" viewBox="0 0 72 72" xmlns="http://www.w3.org/2000/svg">
  <g id="grid">
    <path fill="#B3B3B3" d="M68 4V68H4V4H68ZM72 0H0V72H72V0Z"/>
    <path fill="none" stroke="#00A5FF" stroke-miterlimit="10" stroke-width="0.1" d="M12.923 10.9583H59.0769C59.5869 10.9583 60.0761 11.1609 60.4367 11.5216C60.7974 11.8822 61 12.3714 61 12.8814V59.0352C61 59.5452 60.7974 60.0344 60.4367 60.3951C60.0761 60.7557 59.5869 60.9583 59.0769 60.9583H12.9231C12.4131 60.9583 11.9239 60.7557 11.5633 60.3951C11.2026 60.0344 11 59.5452 11 59.0352V12.8813C11 12.3713 11.2026 11.8822 11.5632 11.5215C11.9239 11.1609 12.413 10.9583 12.923 10.9583V10.9583Z"/>
    <path fill="none" stroke="#00A5FF" stroke-miterlimit="10" stroke-width="0.1" d="M53.7463 4H18.2537C17.009 4 16 5.00902 16 6.2537V65.7463C16 66.991 17.009 68 18.2537 68H53.7463C54.991 68 56 66.991 56 65.7463V6.2537C56 5.00902 54.991 4 53.7463 4Z"/>
    <path fill="none" stroke="#00A5FF" stroke-miterlimit="10" stroke-width="0.1" d="M68 53.7463V18.2537C68 17.009 66.991 16 65.7463 16L6.2537 16C5.00902 16 4 17.009 4 18.2537V53.7463C4 54.991 5.00902 56 6.2537 56L65.7463 56C66.991 56 68 54.991 68 53.7463Z"/>
    <path fill="none" stroke="#00A5FF" stroke-miterlimit="10" stroke-width="0.1" d="M36 65C52.0163 65 65 52.0163 65 36C65 19.9837 52.0163 7 36 7C19.9837 7 7 19.9837 7 36C7 52.0163 19.9837 65 36 65Z"/>
  </g>
  <g id="color">
    <circle cx="31.84" cy="14.4" r="2" fill="#EA5A47"/>
    <circle cx="32" cy="47" r="2" fill="#92D3F5"/>
    <circle cx="52.14" cy="27.26" r="2" fill="#92D3F5"/>
    <circle cx="52" cy="45" r="2" fill="#92D3F5"/>
    <circle cx="22.5" cy="30" r="2" fill="#92D3F5"/>
    <circle cx="12.91" cy="46.93" r="2" fill="#EA5A47"/>
  </g>
  <g id="line">
    <path fill="none" stroke="#000" stroke-linecap="round" stroke-linejoin="round" stroke-width="2" d="M31.8431 16.5V25.0714"/>
    <path fill="none" stroke="#000" stroke-linecap="round" stroke-linejoin="round" stroke-width="2" d="M53.3522 28.8408L58.8213 36L53.1785 43.3866M50 27.9192L41.3356 30.5966L41.3356 41.4034L50.0889 44.1083"/>
    <circle cx="31.9428" cy="56.9428" r="2" fill="#000"/>
    <circle cx="31.84" cy="14.4" r="2" fill="none" stroke="#000" stroke-width="2"/>
    <circle cx="32" cy="47" r="2" fill="none" stroke="#000" stroke-width="2"/>
    <circle cx="41.34" cy="41.4" r="2" fill="#000"/>
    <circle cx="12.91" cy="25.07" r="2" fill="#000"/>
    <circle cx="41.34" cy="30.6" r="2" fill="#000"/>
    <circle cx="58.82" cy="36" r="2" fill="#000"/>
    <circle cx="52.14" cy="27.26" r="2" fill="none" stroke="#000" stroke-width="2"/>
    <circle cx="55" cy="17" r="2" fill="#000"/>
    <circle cx="52" cy="45" r="2" fill="none" stroke="#000" stroke-width="2"/>
    <circle cx="22.5" cy="30" r="2" fill="none" stroke="#000" stroke-width="2"/>
    <circle cx="22.39" cy="41.46" r="2" fill="#000"/>
    <circle cx="32" cy="25" r="2" fill="#000"/>
    <path fill="none" stroke="#000" stroke-linecap="round" stroke-linejoin="round" stroke-width="2" d="M22.3928 32V41.4643L30.1403 45.9373M24.5 29.3191L31.8572 25.0714L41.3216 30.5357V41.4643L34 45.6914"/>
    <path fill="none" stroke="#000" stroke-linecap="round" stroke-linejoin="round" stroke-width="2" d="M31.843 49V57.8572"/>
    <path fill="none" stroke="#000" stroke-linecap="round" stroke-linejoin="round" stroke-width="2" d="M12.9143 25.0714L20.4449 29.4192M22.3787 41.4643L14.7463 45.8708"/>
    <path fill="none" stroke="#000" stroke-width="2" d="M55.1714 16.3286L52.859 25"/>
    <circle cx="12.91" cy="46.93" r="2" fill="none" stroke="#000" stroke-width="2"/>
  </g>
</svg>
