<svg id="emoji" xmlns="http://www.w3.org/2000/svg" viewBox="0 0 68.636 68.636">
  <title>1F6A3-200D-2642-FE0F</title>
  <g id="grid">
    <path d="M0,68.6355H68.6358V0H0ZM3.8134,3.8131h61.01v61.01H3.8134Z" fill="#b3b3b3"/>
    <path d="M56.3167,58.11H12.3194a1.8325,1.8325,0,0,1-1.8331-1.8331V12.28a1.8333,1.8333,0,0,1,1.8331-1.834H56.3167A1.8333,1.8333,0,0,1,58.15,12.28V56.2764A1.8325,1.8325,0,0,1,56.3167,58.11Z" fill="none" stroke="#00a5ff" stroke-miterlimit="10" stroke-width="0.1"/>
    <path d="M51.2348,64.8224H17.4013a2.1485,2.1485,0,0,1-2.1487-2.1486V5.9618a2.1485,2.1485,0,0,1,2.1487-2.1487H51.2348a2.1485,2.1485,0,0,1,2.1487,2.1487v56.712A2.1485,2.1485,0,0,1,51.2348,64.8224Z" fill="none" stroke="#00a5ff" stroke-miterlimit="10" stroke-width="0.1"/>
    <path d="M3.8134,51.2345V17.401A2.1484,2.1484,0,0,1,5.962,15.2524H62.674a2.1484,2.1484,0,0,1,2.1487,2.1486V51.2345a2.1484,2.1484,0,0,1-2.1487,2.1487H5.962A2.1484,2.1484,0,0,1,3.8134,51.2345Z" fill="none" stroke="#00a5ff" stroke-miterlimit="10" stroke-width="0.1"/>
    <circle cx="34.318" cy="34.3178" r="27.6449" fill="none" stroke="#00a5ff" stroke-miterlimit="10" stroke-width="0.1"/>
  </g>
  <g id="color"/>
  <g id="skin">
    <circle cx="33.505" cy="21.785" r="3" fill="#fcea2b"/>
    <path d="M44.804,31.4579c-3.8131-.9532-10.5813-3.05-14.299-3.813-4.7664-.9533-9.5327,10.4859-9.5327,10.4859h7.6261l4.29-7.4355,9.7234,2.0972" fill="#fcea2b"/>
  </g>
  <g id="color">
    <path d="M55.29,45.757l7.6262-7.9121-20.972-.6673H31.4582L5.72,38.4168l5.72,7.34,5.72,2.0972L25.548,46.52l8.77-1.7159,6.8636,1.144L49.57,47.6636Z" fill="#d0cfce"/>
    <path d="M64.8227,44.8037c-7.6261,0-10.486,2.86-15.2523,2.86s-9.5327-2.86-15.2524-2.86-9.5327,2.86-15.2523,2.86-12.3925-2.86-15.2523-2.86V56.91c0,1.3346,1.3346,7.9121,6.6729,7.9121H59.1984c5.529,0,5.6243-5.5289,5.6243-10.0093Z" fill="#92d3f5"/>
    <path d="M23.8321,46.71s2.9551-2.0972,3.8131-2.86a8.3129,8.3129,0,0,1,4.7663-1.9066L44.804,31.4579l.7626-.6672s.858,1.5252.572,2.0972-5.8149,4.957-5.8149,4.957L34.318,43.1832l.286,2.0018-8.8654,1.2393Z" fill="#a57939"/>
  </g>
  <g id="line">
    <path d="M11.44,45.757l-5.72-7.34,25.7383-.2859" fill="none" stroke="#000" stroke-linecap="round" stroke-linejoin="round" stroke-width="2"/>
    <path d="M4.7669,44.8038c2.86,0,8.58,2.86,14.2991,2.86s9.5327-2.86,15.2523-2.86,10.486,2.86,15.2524,2.86,6.6729-2.86,14.299-2.86" fill="none" stroke="#000" stroke-linecap="round" stroke-linejoin="round" stroke-width="2"/>
    <path d="M23.8323,46.71s2.9552-2.0972,3.8131-2.86a8.3133,8.3133,0,0,1,4.7664-1.9066L44.8043,31.458" fill="none" stroke="#000" stroke-linecap="round" stroke-linejoin="round" stroke-width="2"/>
    <path d="M54.337,46.71l8.5795-8.8654-20.972.286" fill="none" stroke="#000" stroke-linecap="round" stroke-linejoin="round" stroke-width="2"/>
    <circle cx="33.3648" cy="21.9252" r="3" fill="none" stroke="#000" stroke-linecap="round" stroke-linejoin="round" stroke-width="2"/>
    <path d="M44.804,31.4579c-3.8131-.9532-10.5813-3.05-14.299-3.813-4.7664-.9533-9.5327,10.4859-9.5327,10.4859" fill="none" stroke="#000" stroke-linecap="round" stroke-linejoin="round" stroke-width="2"/>
    <path d="M28.5984,38.1308l3.8131-6.6729" fill="none" stroke="#000" stroke-linecap="round" stroke-linejoin="round" stroke-width="2"/>
  </g>
</svg>
