<svg id="emoji" viewBox="0 0 72 72" xmlns="http://www.w3.org/2000/svg">
  <g id="grid">
    <path fill="#b3b3b3" d="M68,4V68H4V4H68m4-4H0V72H72V0Z"/>
    <path fill="none" stroke="#00a5ff" stroke-miterlimit="10" stroke-width="0.1" d="M12.923,10.9583H59.0769A1.9231,1.9231,0,0,1,61,12.8814V59.0352a1.9231,1.9231,0,0,1-1.9231,1.9231H12.9231A1.9231,1.9231,0,0,1,11,59.0352V12.8813A1.923,1.923,0,0,1,12.923,10.9583Z"/>
    <rect x="16" y="4" rx="2.2537" width="40" height="64" fill="none" stroke="#00a5ff" stroke-miterlimit="10" stroke-width="0.1"/>
    <rect x="16" y="4" rx="2.2537" width="40" height="64" transform="translate(72) rotate(90)" fill="none" stroke="#00a5ff" stroke-miterlimit="10" stroke-width="0.1"/>
    <circle cx="36" cy="36" r="29" fill="none" stroke="#00a5ff" stroke-miterlimit="10" stroke-width="0.1"/>
  </g>
  <g id="color">
    <path fill="#EA5A47" stroke="none" d="m48.404 49.73c-0.25209-3.4943-0.5041-6.9874-1.0432-8.6034-0.53913-1.616-1.3658-1.3525-3.368-1.5878s-5.1805-0.96966-7.224-2.0002c-2.0435-1.0305-2.9518-2.358-3.6623-4.2679-0.71048-1.9099-1.2226-4.402-2.899-6.6031-1.6764-2.2011-4.518-4.1106-5.31-4.9958-0.79204-0.88524 0.46558-0.74551 4.6534 0.61855 4.1878 1.3641 11.306 3.9521 16.15 5.3815s7.4144 1.7005 10.021 3.7432c2.6069 2.0428 5.2504 5.856 5.6869 10.485 0.43642 4.629-1.3333 10.074-4.5886 13.063s-7.9969 3.5228-10.602 3.4643c-2.6052-0.05847-3.0738-0.71035-3.2108-1.3465-0.13695-0.63616 0.05881-1.256 0.80964-1.7622 0.75084-0.50612 2.0559-0.89763 3.3603-1.2889"/>
    <path fill="#EA5A47" stroke="none" d="m36.5 57.5 s-5-1-5-4c0-2.8125 7.9101 0.5273 8.8989 2.6038 0.0659 0.1384 0.1011 0.2712 0.1011 0.3962 0 2-1 6-7 7s3-6 3-6z"/>
  </g>
  <g id="hair"/>
  <g id="skin"/>
  <g id="skin-shadow"/>
  <g id="line">
    <path fill="none" stroke="#000000" stroke-linecap="round" stroke-linejoin="round" stroke-miterlimit="10" stroke-width="2" d="m49.677 32.699c0.62935 1.4335 1.2582 2.8658 0.50663 4.0882-0.75152 1.2224-2.8832 2.2363-5.5379 2.3763s-5.8329-0.59444-7.8764-1.625c-2.0435-1.0305-2.9518-2.358-3.6623-4.2679-0.71048-1.9099-1.2226-4.402-2.899-6.6031-1.6764-2.2011-4.518-4.1106-5.31-4.9958-0.79204-0.88524 0.46558-0.74551 4.6534 0.61855 4.1878 1.3641 11.306 3.9521 16.15 5.3815s7.4144 1.7005 10.021 3.7432c2.6069 2.0428 5.2504 5.856 5.6869 10.485 0.43642 4.629-1.3333 10.074-4.5886 13.063s-7.9969 3.5228-10.602 3.4643c-2.6052-0.05847-3.0738-0.71035-3.2108-1.3465-0.13695-0.63616 0.05881-1.256 0.80964-1.7622 0.75084-0.50612 2.0559-0.89763 3.3603-1.2889"/>
    <path fill="none" stroke="#000000" stroke-linecap="round" stroke-linejoin="round" stroke-miterlimit="10" stroke-width="2" d="m30.383 26.89c-3.0961-0.68076-6.1933-1.3618-8.2662-2.9071-2.073-1.5453-3.121-3.9557-2.702-6.1397 0.41895-2.184 2.3053-4.1403 5.2404-5.136 2.9351-0.99567 6.9174-1.0306 10.149-0.06944 3.2316 0.96116 5.7118 2.9174 8.6987 3.8253 2.9869 0.90786 6.4803 0.76813 9.9728 0.62843"/>
    <path fill="none" stroke="#000000" stroke-linecap="round" stroke-linejoin="round" stroke-miterlimit="10" stroke-width="2" d="m30.383 26.89c-3.5014-0.04745-7.0038-0.09491-9.8032-1.533-2.7994-1.4381-4.8954-4.2676-5.0531-6.8184s1.6239-4.8214 4.1497-6.665 5.7948-3.2595 9.97-2.9797c4.1751 0.27982 9.2551 2.2547 13.28 3.1022 4.0247 0.84748 6.9941 0.56801 9.9626 0.28862"/>
    <path fill="none" stroke="#000000" stroke-linecap="round" stroke-linejoin="round" stroke-miterlimit="10" stroke-width="2" d="m57.259 42.284c-1.2072 1.1745-2.4143 2.3491-4.0289 2.9853-1.6146 0.63621-3.6374 0.73409-4.6982-0.01578-1.0608-0.74987-1.1587-2.3485-1.2566-3.9483"/>
    <path fill="none" stroke="#000000" stroke-linecap="round" stroke-linejoin="round" stroke-miterlimit="10" stroke-width="2" d="m55.204 52.463c-1.6632 0.39134-3.3271 0.78285-4.632 0.53872-1.3049-0.24414-2.251-1.125-2.5127-2.0388-0.26164-0.91381 0.1625-1.8599 0.58684-2.8066"/>
    <path fill="none" stroke="#000000" stroke-linecap="round" stroke-linejoin="round" stroke-miterlimit="10" stroke-width="2" d="m36.5 57.5 s-5-1-5-4c0-2.8125 7.9101 0.5273 8.8989 2.6038 0.0659 0.1384 0.1011 0.2712 0.1011 0.3962 0 2-1 6-7 7s3-6 3-6z"/>
  </g>
</svg>
