<svg version="1.1" id="emoji" xmlns="http://www.w3.org/2000/svg" x="0" y="0" viewBox="0 0 72 72" enable-background="new 0 0 72 72" xml:space="preserve">
  <g id="grid">
    <path fill="#B3B3B3" d="M68,4v64H4V4H68 M72,0H0v72h72V0z"/>
    <path fill="none" stroke="#00A5FF" stroke-width="0.1" stroke-miterlimit="10" d="M12.923,10.9583h46.1539 c1.0621,0,1.9231,0.861,1.9231,1.9231v0v46.1538c0,1.0621-0.861,1.9231-1.9231,1.9231H12.9231 c-1.0621,0-1.9231-0.861-1.9231-1.9231l0,0V12.8813C11,11.8193,11.861,10.9583,12.923,10.9583L12.923,10.9583z"/>
    <path fill="none" stroke="#00A5FF" stroke-width="0.1" stroke-miterlimit="10" d="M18.2537,4h35.4926C54.991,4,56,5.009,56,6.2537 v59.4926C56,66.991,54.991,68,53.7463,68H18.2537C17.009,68,16,66.991,16,65.7463V6.2537C16,5.009,17.009,4,18.2537,4z"/>
    <path fill="none" stroke="#00A5FF" stroke-width="0.1" stroke-miterlimit="10" d="M68,18.2537v35.4926 C68,54.991,66.991,56,65.7463,56H6.2537C5.009,56,4,54.991,4,53.7463V18.2537C4,17.009,5.009,16,6.2537,16h59.4926 C66.991,16,68,17.009,68,18.2537z"/>
    <circle fill="none" stroke="#00A5FF" stroke-width="0.1" stroke-miterlimit="10" cx="36" cy="36" r="29"/>
  </g>
  <g id="color">
    <path fill="#D0CFCE" d="M36,65.0208c0,0-3.091-5.9737-13.8722-26.8922C20,34,17.3106,30.4224,17.3106,25.6045 c0-10.3214,8.3671-18.6885,18.6885-18.6885l0.0001,8.0285c0,0-10.4584,0.5199-10.4584,10.3971s10.4587,10.7561,10.4587,10.7561 L36,65.0208z"/>
    <path fill="#D0CFCE" d="M35.9736,65.0172c0,0,2.998-6.0172,13.8722-26.8922c2.0634-3.9611,4.8173-7.7062,4.8173-12.5242 c0-10.3214-8.3671-18.6885-18.6885-18.6885l-0.2836,8.0321c0,0,11.1773,0.2666,11.0085,10.7347S35.6907,36.0975,35.6907,36.0975 L35.9736,65.0172z"/>
    <path fill="#9B9B9A" d="M36.8281,7.5469c0,0,9.7494,4.0365,11.8385,15.2865C50.7057,33.8135,39.5,53,36.5,62.6667 S54.6914,28,54.6914,28S55.1562,7.2812,36.8281,7.5469z"/>
  </g>
  <g id="hair"/>
  <g id="skin"/>
  <g id="skin-shadow"/>
  <g id="line">
    <circle fill="none" stroke="#000000" stroke-width="2" stroke-linecap="round" stroke-linejoin="round" stroke-miterlimit="10" cx="36.001" cy="25.5211" r="10.5766"/>
    <path fill="none" stroke="#000000" stroke-width="2" stroke-linecap="round" stroke-linejoin="round" stroke-miterlimit="10" d="M36,65.0208c0,0-3.091-5.9737-13.8722-26.8922C20,34,17.3106,30.4224,17.3106,25.6045c0-10.3214,8.3671-18.6885,18.6885-18.6885"/>
    <path fill="none" stroke="#000000" stroke-width="2" stroke-linecap="round" stroke-linejoin="round" stroke-miterlimit="10" d="M36.002,65.0172c0,0,2.998-6.0172,13.8722-26.8922c2.0634-3.9611,4.8173-7.7062,4.8173-12.5242 c0-10.3214-8.3671-18.6885-18.6885-18.6885"/>
  </g>
</svg>
