<svg id="emoji" xmlns="http://www.w3.org/2000/svg" viewBox="0 0 72 72">
  <g id="grid">
    <path d="M68,4V68H4V4H68m4-4H0V72H72V0Z" fill="#b3b3b3"/>
    <path d="M12.923,10.9583H59.0769A1.9231,1.9231,0,0,1,61,12.8814V59.0352a1.9231,1.9231,0,0,1-1.9231,1.9231H12.9231A1.9231,1.9231,0,0,1,11,59.0352V12.8813A1.923,1.923,0,0,1,12.923,10.9583Z" fill="none" stroke="#00a5ff" stroke-miterlimit="10" stroke-width=".1"/>
    <rect x="16" y="4" width="40" height="64" rx="2.2537" fill="none" stroke="#00a5ff" stroke-miterlimit="10" stroke-width=".1"/>
    <rect x="16" y="4" width="40" height="64" rx="2.2537" transform="translate(72) rotate(90)" fill="none" stroke="#00a5ff" stroke-miterlimit="10" stroke-width=".1"/>
    <circle cx="36" cy="36" r="29" fill="none" stroke="#00a5ff" stroke-miterlimit="10" stroke-width=".1"/>
  </g>
  <g id="color">
    <path fill="#d0cfce" stroke="none" stroke-width="2" stroke-linecap="round" stroke-linejoin="round" stroke-miterlimit="10" d="M20.9453,45.9794h30.0406c5.5116,0,9.9797-4.4681,9.9797-9.9797v0c0-5.5116-4.4681-9.9797-9.9797-9.9797H20.9453 c-5.5116,0-9.9797,4.4681-9.9797,9.9797v0C10.9656,41.5114,15.4336,45.9794,20.9453,45.9794z"/>
    <circle fill="#b1cc33" stroke="none" stroke-width="2" stroke-linecap="round" stroke-linejoin="round" stroke-miterlimit="10" cx="50.9647" cy="36" r="10.0009"/>
    <path fill="#5c9e31" stroke="none" stroke-width="2" stroke-linecap="round" stroke-linejoin="round" stroke-miterlimit="10" d="M43.9618,43.0717c3.9056,3.9056,10.2378,3.9056,14.1434,0s3.9056-10.2378,0-14.1434"/>
  </g>
  <g id="hair"/>
  <g id="skin"/>
  <g id="skin-shadow"/>
  <g id="line">
    <path fill="none" stroke="#000000" stroke-width="2" stroke-linecap="round" stroke-linejoin="round" stroke-miterlimit="10" d="M20.9453,45.9794h30.0406c5.5116,0,9.9797-4.4681,9.9797-9.9797v0c0-5.5116-4.4681-9.9797-9.9797-9.9797H20.9453 c-5.5116,0-9.9797,4.4681-9.9797,9.9797v0C10.9656,41.5114,15.4336,45.9794,20.9453,45.9794z"/>
    <circle fill="none" stroke="#000000" stroke-width="2" stroke-linecap="round" stroke-linejoin="round" stroke-miterlimit="10" cx="50.9647" cy="36" r="10.0009"/>
    <path fill="none" stroke="#000000" stroke-width="2" stroke-linecap="round" stroke-linejoin="round" stroke-miterlimit="10" d="M43.9618,43.0717c3.9056,3.9056,10.2378,3.9056,14.1434,0s3.9056-10.2378,0-14.1434"/>
  </g>
</svg>
