<svg id="emoji" viewBox="0 0 72 72" xmlns="http://www.w3.org/2000/svg">
  <g id="grid">
    <path fill="#b3b3b3" d="M68,4V68H4V4H68m4-4H0V72H72V0Z"/>
    <path fill="none" stroke="#00a5ff" stroke-miterlimit="10" stroke-width="0.1" d="M12.923,10.9583H59.0769A1.9231,1.9231,0,0,1,61,12.8814V59.0352a1.9231,1.9231,0,0,1-1.9231,1.9231H12.9231A1.9231,1.9231,0,0,1,11,59.0352V12.8813A1.923,1.923,0,0,1,12.923,10.9583Z"/>
    <rect x="16" y="4" rx="2.2537" width="40" height="64" fill="none" stroke="#00a5ff" stroke-miterlimit="10" stroke-width="0.1"/>
    <rect x="16" y="4" rx="2.2537" width="40" height="64" transform="translate(72) rotate(90)" fill="none" stroke="#00a5ff" stroke-miterlimit="10" stroke-width="0.1"/>
    <circle cx="36" cy="36" r="29" fill="none" stroke="#00a5ff" stroke-miterlimit="10" stroke-width="0.1"/>
  </g>
  <g id="color">
    <circle cx="21" cy="17" r="3" fill="#FCEA2B" stroke="none"/>
    <circle cx="55.9917" cy="26.3237" r="3" fill="#FCEA2B" stroke="none"/>
    <circle cx="29.9928" cy="47.0078" r="3" fill="#FCEA2B" stroke="none"/>
    <polygon fill="#FCEA2B" stroke="none" points="15.4366,27.1041 18.5181,24.3901 23.3523,24.1922 26.3208,27.0193 27.0051,30.9992 14.924,30.9914"/>
    <polygon fill="#FCEA2B" stroke="none" points="50.4911,36.4303 53.5726,33.7163 58.4069,33.5184 61.3753,36.3454 62.0596,40.3254 49.9785,40.3176"/>
    <polygon fill="#FCEA2B" stroke="none" points="24.4847,57.1118 27.5662,54.3979 32.4005,54.2 35.3689,57.027 36.0532,61.007 23.9721,60.9992"/>
  </g>
  <g id="hair"/>
  <g id="skin"/>
  <g id="skin-shadow"/>
  <g id="line">
    <circle cx="21" cy="17" r="3" fill="none" stroke="#000000" stroke-miterlimit="10" stroke-width="2"/>
    <path fill="none" stroke="#000000" stroke-linecap="round" stroke-linejoin="round" stroke-miterlimit="10" stroke-width="2" d="M15,30c0,0,1-4.3112,3-5.3112s4-1,6,0S27,30,27,30"/>
    <circle cx="55.9917" cy="26.3237" r="3" fill="none" stroke="#000000" stroke-miterlimit="10" stroke-width="2"/>
    <path fill="none" stroke="#000000" stroke-linecap="round" stroke-linejoin="round" stroke-miterlimit="10" stroke-width="2" d="M49.9917,39.3237c0,0,1-4.3112,3-5.3112s4-1,6,0s3,5.3112,3,5.3112"/>
    <circle cx="29.9928" cy="47.0078" r="3" fill="none" stroke="#000000" stroke-miterlimit="10" stroke-width="2"/>
    <path fill="none" stroke="#000000" stroke-linecap="round" stroke-linejoin="round" stroke-miterlimit="10" stroke-width="2" d="M23.9928,60.0078c0,0,1-4.3112,3-5.3112s4-1,6,0s3,5.3112,3,5.3112"/>
    <path fill="none" stroke="#000000" stroke-linecap="round" stroke-linejoin="round" stroke-miterlimit="10" stroke-width="2" d="M52.552,20.1356C48.333,15.1588,42.0354,12,35,12c-2.7693,0-5.4243,0.4894-7.8832,1.3865"/>
    <path fill="none" stroke="#000000" stroke-linecap="round" stroke-linejoin="round" stroke-miterlimit="10" stroke-width="2" d="M39.4332,57.5731c8.2126-1.6036,14.8614-7.5774,17.4267-15.4016"/>
    <path fill="none" stroke="#000000" stroke-linecap="round" stroke-linejoin="round" stroke-miterlimit="10" stroke-width="2" d="M12.0868,32.9884C12.0293,33.6513,12,34.3222,12,35c0,7.9743,4.0582,15.0008,10.2221,19.1268"/>
  </g>
</svg>
