<svg id="emoji" xmlns="http://www.w3.org/2000/svg" viewBox="0 0 72 72">
  <g id="grid">
    <path d="M68,4V68H4V4H68m4-4H0V72H72V0Z" fill="#b3b3b3"/>
    <path d="M12.923,10.9583H59.0769A1.9231,1.9231,0,0,1,61,12.8814V59.0352a1.9231,1.9231,0,0,1-1.9231,1.9231H12.9231A1.9231,1.9231,0,0,1,11,59.0352V12.8813A1.923,1.923,0,0,1,12.923,10.9583Z" fill="none" stroke="#00a5ff" stroke-miterlimit="10" stroke-width="0.1"/>
    <rect x="16" y="4" width="40" height="64" rx="2.2537" fill="none" stroke="#00a5ff" stroke-miterlimit="10" stroke-width="0.1"/>
    <rect x="16" y="4" width="40" height="64" rx="2.2537" transform="translate(72) rotate(90)" fill="none" stroke="#00a5ff" stroke-miterlimit="10" stroke-width="0.1"/>
    <circle cx="36" cy="36" r="29" fill="none" stroke="#00a5ff" stroke-miterlimit="10" stroke-width="0.1"/>
  </g>
  <g id="color">
    <ellipse fill="#FCEA2B" stroke="#FCEA2B" stroke-width="2" stroke-miterlimit="10" cx="20" cy="26.0208" rx="13.8" ry="13.8205"/>
    <path fill="#FCEA2B" d="M18.3981,39.9096C15.2441,44.248,11,46,5,46c2.874-1.916,5.748-5.6676,6.8636-8.617L18.3981,39.9096z" stroke="none"/>
    <circle fill="#FCEA2B" stroke="#FCEA2B" stroke-width="2" stroke-miterlimit="10" cx="52" cy="41.28" r="13.8"/>
    <path fill="#FCEA2B" d="M53.6019,55.1896C56.7559,59.528,61,61.28,67,61.28c-2.874-1.916-5.748-5.6676-6.8636-8.617 L53.6019,55.1896z" stroke="none"/>
  </g>
  <g id="hair"/>
  <g id="skin"/>
  <g id="skin-shadow"/>
  <g id="line">
    <circle fill="#000000" cx="13" cy="26" r="2" stroke="none"/>
    <circle fill="#000000" cx="20" cy="26" r="2" stroke="none"/>
    <circle fill="#000000" cx="27" cy="26" r="2" stroke="none"/>
    <path fill="none" stroke="#000000" stroke-width="2" stroke-linecap="round" stroke-linejoin="round" stroke-miterlimit="10" d="M11.8636,37.383C10.748,40.3324,7.874,44.084,5,46c6,0,10.2441-1.752,13.3981-6.0904"/>
    <path fill="none" stroke="#000000" stroke-width="2" stroke-linecap="round" stroke-miterlimit="10" d="M22.2749,39.8161 C28.9249,38.7295,34,32.9574,34,26c0-7.732-6.268-14-14-14S6,18.268,6,26c0,3.3337,1.1652,6.3952,3.1105,8.7995"/>
    <circle fill="#000000" cx="59" cy="41.28" r="2" stroke="none"/>
    <circle fill="#000000" cx="52" cy="41.28" r="2" stroke="none"/>
    <circle fill="#000000" cx="45" cy="41.28" r="2" stroke="none"/>
    <path fill="none" stroke="#000000" stroke-width="2" stroke-linecap="round" stroke-linejoin="round" stroke-miterlimit="10" d="M60.1364,52.663C61.252,55.6124,64.126,59.364,67,61.28c-6,0-10.2441-1.752-13.3981-6.0904"/>
    <path fill="none" stroke="#000000" stroke-width="2" stroke-linecap="round" stroke-miterlimit="10" d="M49.7251,55.0961 C43.0751,54.0095,38,48.2374,38,41.28c0-7.732,6.268-14,14-14s14,6.268,14,14c0,3.3337-1.1652,6.3952-3.1105,8.7995"/>
  </g>
</svg>
