<svg id="emoji" xmlns="http://www.w3.org/2000/svg" viewBox="0 0 72 72">
  <g id="grid">
    <path d="M68,4V68H4V4H68m4-4H0V72H72V0Z" fill="#b3b3b3"/>
    <path d="M12.923,10.9583H59.0769A1.9231,1.9231,0,0,1,61,12.8814V59.0352a1.9231,1.9231,0,0,1-1.9231,1.9231H12.9231A1.9231,1.9231,0,0,1,11,59.0352V12.8813A1.923,1.923,0,0,1,12.923,10.9583Z" fill="none" stroke="#00a5ff" stroke-miterlimit="10" stroke-width=".1"/>
    <rect x="16" y="4" width="40" height="64" rx="2.2537" fill="none" stroke="#00a5ff" stroke-miterlimit="10" stroke-width=".1"/>
    <rect x="16" y="4" width="40" height="64" rx="2.2537" transform="translate(72) rotate(90)" fill="none" stroke="#00a5ff" stroke-miterlimit="10" stroke-width=".1"/>
    <circle cx="36" cy="36" r="29" fill="none" stroke="#00a5ff" stroke-miterlimit="10" stroke-width=".1"/>
  </g>
  <g id="color">
    <ellipse transform="matrix(0.7071 -0.7071 0.7071 0.7071 -14.9117 36)" fill="#FCEA2B" cx="36" cy="36" rx="25" ry="25" stroke="none"/>
    <path fill="#F1B31C" d="M37.4047,57.8288c-1.1317,1.1317-2.3078,2.1903-3.5108,3.2004c7.0546,0.5441,14.3056-1.8734,19.7134-7.2812 c9.8019-9.8019,9.8334-25.6625,0.0703-35.4256c-0.1668-0.1668-0.3489-0.3079-0.5192-0.469 C53.6602,32.2447,48.4137,46.8198,37.4047,57.8288z" stroke="none"/>
  </g>
  <g id="hair"/>
  <g id="skin"/>
  <g id="skin-shadow"/>
  <g id="line">
    <circle fill="none" stroke="#000000" stroke-width="2" stroke-linecap="round" stroke-linejoin="round" stroke-miterlimit="10" cx="36" cy="36" r="25"/>
  </g>
</svg>
