<svg id="emoji" xmlns="http://www.w3.org/2000/svg" viewBox="0 0 72 72">
  <g id="grid">
    <path d="M68,4V68H4V4H68m4-4H0V72H72V0Z" fill="#b3b3b3"/>
    <path d="M12.923,10.9583H59.0769A1.9231,1.9231,0,0,1,61,12.8814V59.0352a1.9231,1.9231,0,0,1-1.9231,1.9231H12.9231A1.9231,1.9231,0,0,1,11,59.0352V12.8813A1.923,1.923,0,0,1,12.923,10.9583Z" fill="none" stroke="#00a5ff" stroke-miterlimit="10" stroke-width="0.1"/>
    <rect x="16" y="4" width="40" height="64" rx="2.2537" fill="none" stroke="#00a5ff" stroke-miterlimit="10" stroke-width="0.1"/>
    <rect x="16" y="4" width="40" height="64" rx="2.2537" transform="rotate(90 36 36)" fill="none" stroke="#00a5ff" stroke-miterlimit="10" stroke-width="0.1"/>
    <circle cx="36" cy="36" r="29" fill="none" stroke="#00a5ff" stroke-miterlimit="10" stroke-width="0.1"/>
  </g>
  <g id="color">
    <circle fill="#FCEA2B" cx="36" cy="35" r="20.8" stroke="none"/>
    <path fill="#FCEA2B" d="M23.437,50.3563C22.1049,53.8785,18.4321,58.7119,15,61c7.1652,0,12.2335-2.0922,16-7.2731" stroke="none"/>
  </g>
  <g id="hair"/>
  <g id="skin"/>
  <g id="skin-shadow"/>
  <g id="line">
    <circle fill="#000000" cx="26.0001" cy="35.0788" r="2.8571" stroke="none"/>
    <circle fill="#000000" cx="36.0001" cy="35.0788" r="2.8571" stroke="none"/>
    <circle fill="#000000" cx="46.0001" cy="35.0788" r="2.8571" stroke="none"/>
    <path fill="none" stroke="#000000" stroke-width="2" stroke-linecap="round" stroke-linejoin="round" stroke-miterlimit="10" d="M23.437,50.3563C22.1049,53.8785,18.4321,58.7119,15,61c7.1652,0,12.2335-2.0922,16-7.2731"/>
    <path fill="none" stroke="#000000" stroke-width="2" stroke-linecap="round" stroke-linejoin="round" stroke-miterlimit="10" d="M23.437,50.3563C22.1049,53.8785,18.4321,58.7119,15,61c7.1652,0,12.2335-2.0922,16-7.2731"/>
    <path fill="none" stroke="#000000" stroke-width="2" stroke-linecap="round" stroke-miterlimit="10" d="M20.4809,47.6168 C17.6795,44.1751,16,39.7837,16,35c0-11.0457,8.9543-20,20-20s20,8.9543,20,20s-8.9543,20-20,20 c-0.3703,0-0.7383-0.0101-1.1037-0.0299"/>
  </g>
</svg>
