<svg id="emoji" xmlns="http://www.w3.org/2000/svg" viewBox="0 0 72 72">
  <g id="grid">
    <path d="M68,4V68H4V4H68m4-4H0V72H72V0Z" fill="#b3b3b3"></path>
    <path d="M12.923,10.9583H59.0769A1.9231,1.9231,0,0,1,61,12.8814V59.0352a1.9231,1.9231,0,0,1-1.9231,1.9231H12.9231A1.9231,1.9231,0,0,1,11,59.0352V12.8813A1.923,1.923,0,0,1,12.923,10.9583Z" fill="none" stroke="#00a5ff" stroke-miterlimit="10" stroke-width="0.1"></path>
    <rect x="16" y="4" width="40" height="64" rx="2.2537" fill="none" stroke="#00a5ff" stroke-miterlimit="10" stroke-width="0.1"></rect>
    <rect x="16" y="4" width="40" height="64" rx="2.2537" transform="translate(72) rotate(90)" fill="none" stroke="#00a5ff" stroke-miterlimit="10" stroke-width="0.1"></rect>
    <circle cx="36" cy="36" r="29" fill="none" stroke="#00a5ff" stroke-miterlimit="10" stroke-width="0.1"></circle>
  </g>
  <g id="color">
    <path fill="#f4aa41" d="M35.7572,9.408c-8.86,0-14.2541,7.3863-16.8425,16.0425v18.014c0,17.49,33.155,18.1657,33.155,0
		c0-16.6561-0.27-18.014-0.27-18.014C51.7997,16.5904,44.6173,9.408,35.7572,9.408z" stroke="none"></path>
    <path fill="#f4aa41" d="M35.7578,10.4171c-7.6247,0-13.9343,5.5615-15.1364,12.8456c8.8261,3.0574,13.1564-3.9388,13.1564-3.9388
		c2.0412-2.4204,1.98-5.0592,1.98-5.0592h0.0826c0,0,0.1388,2.6388,2.18,5.0592c0,0,3.413,6.4598,12.8727,3.9301
		C49.6873,15.9742,43.3795,10.4171,35.7578,10.4171z" stroke="none"></path>
    <path fill="#b1cc33" d="M54.8549,59.4647c0,0,2-14.0268-10-14.0268c-3.1919,2.1279-5.9264,3.5984-9,3.5921h0.125
		c-3.0736,0.0063-5.8082-1.4642-9-3.5921c-12,0-10,14.0268-10,14.0268" stroke="none"></path>
    <path fill="#5c9e31" d="M45.2409,45.4379c-3.1699,2.1133-4.875,3-8.9375,3.5885c13.0625,0.4115,12.9775,6.395,13.7396,10.395
		c4.2379,0,5.1129,0,5.1129,0S57.2409,45.4379,45.2409,45.4379z" stroke="none"></path>
    <path fill="#fcea2b" stroke="none" stroke-width="2" stroke-linecap="round" stroke-linejoin="round" stroke-miterlimit="10" d="
		M25.3625,23.2242L14.045,21.6071c0,0,6.1889,9.7351,10.3663,8.6973"></path>
    <path fill="#f1b31c" stroke="none" stroke-width="2" stroke-linecap="round" stroke-linejoin="round" stroke-miterlimit="10" d="
		M35.9174,14.2647c0,0-1.0389,2.6388-3.0801,5.0592"></path>
    <path fill="#fcea2b" stroke="none" stroke-width="2" stroke-linecap="round" stroke-linejoin="round" stroke-miterlimit="10" d="
		M46.4722,23.243l11.4497-1.6359c0,0-6.2678,9.8488-10.494,8.7989"></path>
    <polyline fill="#6a462f" stroke="none" stroke-width="2" stroke-linecap="round" stroke-linejoin="round" stroke-miterlimit="10" points="
			17.9887,50.5971 17.9887,41.032 25.0737,41.032 25.0737,44.5966 		"></polyline>
    <line fill="#6a462f" stroke="none" stroke-width="2" stroke-linecap="round" stroke-linejoin="round" stroke-miterlimit="10" x1="19.9229" y1="40.9932" x2="19.9229" y2="36.25"></line>
    <line fill="#6a462f" stroke="none" stroke-width="2" stroke-linecap="round" stroke-linejoin="round" stroke-miterlimit="10" x1="23.2944" y1="41.032" x2="23.2944" y2="37.5907"></line>
    <path fill="#a57939" d="M47.8998,59.4915c-18.4989-5.1358-20.9199-14.0536-20.9199-14.0536s-4.2004,0.2046-5.6776,1.3537
		c3.1163,6.4287,5.9346,9.5505,14.1044,12.6807" stroke="none"></path>
    <path fill="#f1b31c" stroke="none" stroke-width="2" stroke-linecap="round" stroke-linejoin="round" stroke-miterlimit="10" d="
		M28.232,23.2646"></path>
    <path fill="#f1b31c" d="M51.0111,29.3665c-1.235,0.8439-2.4788,1.3138-3.5832,1.0395" stroke="none"></path>
    <line fill="#f1b31c" x1="46.4722" y1="23.243" x2="48.5884" y2="22.9407" stroke="none"></line>
  </g>
  <g id="hair">
  </g>
  <g id="skin">
    <ellipse fill="#fcea2b" cx="35.7572" cy="28.4379" rx="11.3386" ry="14.1732" stroke="none"></ellipse>
  </g>
  <g id="skin-shadow">
  </g>
  <g id="line">
    <path d="M41.9175,27.0771c0,1.1045-0.8965,2-2,2c-1.1035,0-2-0.8955-2-2c0-1.1035,0.8965-2,2-2
		C41.021,25.0771,41.9175,25.9736,41.9175,27.0771" fill="#000000" stroke="none"></path>
    <path d="M33.9175,27.0771c0,1.1045-0.8965,2-2,2c-1.1035,0-2-0.8955-2-2c0-1.1035,0.8965-2,2-2
		C33.021,25.0771,33.9175,25.9736,33.9175,27.0771" fill="#000000" stroke="none"></path>
    <path d="M35.9174,37.0795c-1.1519,0-2.3037-0.2861-3.4473-0.8579c-0.4941-0.2471-0.6943-0.8477-0.4472-1.3418
		c0.2465-0.4937,0.8461-0.6943,1.3417-0.4473c1.7178,0.8594,3.3877,0.8594,5.1055,0c0.4946-0.247,1.0947-0.0464,1.3418,0.4473
		c0.2471,0.4941,0.0469,1.0947-0.4473,1.3418C38.2211,36.7934,37.0692,37.0795,35.9174,37.0795z" fill="#000000" stroke="none"></path>
    <path fill="none" stroke="#000000" stroke-width="2" stroke-linecap="round" stroke-linejoin="round" stroke-miterlimit="10" d="
		M50.8648,22.6384C46.3914,9.0176,35.9174,10.4171,35.9174,10.4171S25.5642,9.0337,21.0482,22.4035"></path>
    <path fill="none" stroke="#000000" stroke-width="2" stroke-linecap="round" stroke-linejoin="round" stroke-miterlimit="10" d="
		M28.6087,21.3236"></path>
    <path fill="none" stroke="#000000" stroke-width="2" stroke-linecap="round" stroke-linejoin="round" stroke-miterlimit="10" d="
		M26.7371,20.0717c1.1968,1.0863,3.1987,2.1856,6.0977,1.5354"></path>
    <path fill="none" stroke="#000000" stroke-width="2" stroke-linecap="round" stroke-linejoin="round" stroke-miterlimit="10" d="
		M45.0976,20.0717C43.9009,21.158,41.899,22.2573,39,21.6071"></path>
    <circle cx="35.9174" cy="20.6384" r="1.5" fill="#000000" stroke="none"></circle>
    <path fill="none" stroke="#000000" stroke-width="2" stroke-linecap="round" stroke-linejoin="round" stroke-miterlimit="10" d="
		M25.3625,23.2242L14.045,21.6071c0,0,6.1889,9.7351,10.3663,8.6973"></path>
    <path fill="none" stroke="#000000" stroke-width="2" stroke-linecap="round" stroke-linejoin="round" stroke-miterlimit="10" d="
		M35.9174,14.2647c0,0-1.0389,2.6388-3.0801,5.0592"></path>
    <path fill="none" stroke="#000000" stroke-width="2" stroke-linecap="round" stroke-linejoin="round" stroke-miterlimit="10" d="
		M46.4722,23.243l11.4497-1.6359c0,0-6.2678,9.8488-10.494,8.7989"></path>
    <path fill="none" stroke="#000000" stroke-width="2" stroke-linecap="round" stroke-linejoin="round" stroke-miterlimit="10" d="
		M35.9174,14.2647c0,0,1.0388,2.6388,3.08,5.0592"></path>
    <line fill="none" stroke="#000000" stroke-width="2" stroke-linecap="round" stroke-linejoin="round" stroke-miterlimit="10" x1="51.1171" y1="29.5217" x2="51.1171" y2="43.0244"></line>
    <polyline fill="none" stroke="#000000" stroke-width="2" stroke-linecap="round" stroke-linejoin="round" stroke-miterlimit="10" points="
			17.9887,50.5971 17.9887,41.032 25.0737,41.032 25.0737,44.5966 		"></polyline>
    <line fill="none" stroke="#000000" stroke-width="2" stroke-linecap="round" stroke-linejoin="round" stroke-miterlimit="10" x1="19.9229" y1="40.9932" x2="19.9229" y2="36.25"></line>
    <line fill="none" stroke="#000000" stroke-width="2" stroke-linecap="round" stroke-linejoin="round" stroke-miterlimit="10" x1="23.2944" y1="41.032" x2="23.2944" y2="37.5907"></line>
    <path fill="none" stroke="#000000" stroke-width="2" stroke-linecap="round" stroke-linejoin="round" stroke-miterlimit="10" d="
		M28.232,23.2646"></path>
    <path fill="none" stroke="#000000" stroke-width="2" stroke-linecap="round" stroke-linejoin="round" stroke-miterlimit="10" d="
		M54.8549,58.4379c0,0,2-13-10-13c-3.1919,2.1279-5.9264,3.5984-9,3.5921h0.125c-3.0736,0.0063-5.8082-1.4642-9-3.5921
		c-12,0-10,13-10,13"></path>
    <path fill="none" stroke="#000000" stroke-width="2" stroke-linecap="round" stroke-linejoin="round" stroke-miterlimit="10" d="
		M26.3403,23.0353l-0.9825,0.2293c-0.5029,1.6027-0.779,3.3477-0.779,5.1733c0,7.8276,5.0765,14.1732,11.3386,14.1732
		S47.256,36.2655,47.256,28.4379c0-1.8256-0.2762-3.5706-0.7791-5.1733l-0.8123-0.3239"></path>
    <path fill="none" stroke="#000000" stroke-width="2" stroke-linecap="round" stroke-linejoin="round" stroke-miterlimit="10" d="
		M46.4722,23.243l11.4497-1.6359c0,0-6.2678,9.8488-10.494,8.7989"></path>
    <line fill="none" stroke="#000000" stroke-width="2" stroke-linecap="round" stroke-linejoin="round" stroke-miterlimit="10" x1="19.848" y1="28.8217" x2="19.848" y2="31.9898"></line>
    <path fill="none" stroke="#000000" stroke-width="2" stroke-linecap="round" stroke-linejoin="round" stroke-miterlimit="10" d="
		M47.7967,58.4946c-18.4989-5.1358-20.8168-13.0567-20.8168-13.0567s-4.2004,0.2046-5.6776,1.3537
		c3.1163,6.4287,5.6897,8.6387,13.8595,11.7689"></path>
  </g>
</svg>