<svg id="Ebene_1" data-name="Ebene 1" xmlns="http://www.w3.org/2000/svg" width="500" height="500" viewBox="0 0 500 500">
  <defs>
    <style>
      .cls-1 {
        fill: none;
        stroke: #000;
        stroke-linecap: round;
        stroke-linejoin: round;
        stroke-width: 14.42px;
      }
    </style>
  </defs>
  <title>blume</title>
  <g>
    <path class="cls-1" d="M277.11,422.31c7.51,7.51,41.92-1.13,61.19-20.4s14.73-39.66,6.8-47.59-28.33-12.46-47.59,6.8S269.6,414.8,277.11,422.31Z"/>
    <line class="cls-1" x1="250.52" y1="299.72" x2="250.52" y2="424.71"/>
    <circle class="cls-1" cx="249.98" cy="179.89" r="33.65" transform="matrix(0.5, -0.87, 0.87, 0.5, -30.8, 306.43)"/>
    <g>
      <path class="cls-1" d="M225.34,84.23c-12.39-11.13-26.7-10.71-34.26-6.34-9.71,5.61-19.37,24.14-5.75,47.73,8.91,15.43,25.25,28.15,38.07,33.62"/>
      <path class="cls-1" d="M225.39,84.2a47.72,47.72,0,0,1,7.08,8"/>
      <path class="cls-1" d="M274.66,275.51c12.39,11.13,26.7,10.71,34.26,6.34,9.71-5.61,19.37-24.14,5.75-47.73-8.91-15.44-25.27-28.16-38.09-33.62"/>
      <path class="cls-1" d="M274.61,275.54a47.72,47.72,0,0,1-7.08-8"/>
    </g>
    <g>
      <path class="cls-1" d="M154.84,153.4c-15.84,5.17-22.62,17.77-22.62,26.5,0,11.22,11.22,28.84,38.46,28.84,17.82,0,37-7.8,48.15-16.16"/>
      <path class="cls-1" d="M154.84,153.35a47.72,47.72,0,0,1,10.5-2.11"/>
      <path class="cls-1" d="M345.16,206.34c15.84-5.17,22.62-17.77,22.62-26.5,0-11.22-11.22-28.84-38.46-28.84-17.82,0-37,7.8-48.16,16.17"/>
      <path class="cls-1" d="M345.16,206.4a47.72,47.72,0,0,1-10.5,2.11"/>
    </g>
    <g>
      <path class="cls-1" d="M179.5,249c-3.44,16.3,4.08,28.48,11.64,32.84,9.71,5.61,30.59,4.71,44.21-18.88,8.91-15.43,11.75-35.95,10.08-49.78"/>
      <path class="cls-1" d="M179.45,249a47.72,47.72,0,0,1,3.42-10.15"/>
      <path class="cls-1" d="M320.5,110.7c3.44-16.3-4.08-28.48-11.64-32.84-9.71-5.61-30.59-4.71-44.21,18.88-8.91,15.44-11.75,36-10.08,49.79"/>
      <path class="cls-1" d="M320.55,110.73a47.72,47.72,0,0,1-3.42,10.15"/>
    </g>
  </g>
</svg>
