<svg id="emoji" xmlns="http://www.w3.org/2000/svg" viewBox="0 0 72 72">
  <g id="grid">
    <path d="M68,4V68H4V4H68m4-4H0V72H72V0Z" fill="#b3b3b3"></path>
    <path d="M12.923,10.9583H59.0769A1.9231,1.9231,0,0,1,61,12.8814V59.0352a1.9231,1.9231,0,0,1-1.9231,1.9231H12.9231A1.9231,1.9231,0,0,1,11,59.0352V12.8813A1.923,1.923,0,0,1,12.923,10.9583Z" fill="none" stroke="#00a5ff" stroke-miterlimit="10" stroke-width="0.1"></path>
    <rect x="16" y="4" width="40" height="64" rx="2.2537" fill="none" stroke="#00a5ff" stroke-miterlimit="10" stroke-width="0.1"></rect>
    <rect x="16" y="4" width="40" height="64" rx="2.2537" transform="translate(72) rotate(90)" fill="none" stroke="#00a5ff" stroke-miterlimit="10" stroke-width="0.1"></rect>
    <circle cx="36" cy="36" r="29" fill="none" stroke="#00a5ff" stroke-miterlimit="10" stroke-width="0.1"></circle>
  </g>
  <g id="color">
    <path fill="#d0cfce" d="M36,65.0208c0,0-3.091-5.9737-13.8722-26.8922C20,34,17.3106,30.4224,17.3106,25.6045
			c0-10.3214,8.3671-18.6885,18.6885-18.6885l0.0001,8.0285c0,0-10.4584,0.5199-10.4584,10.3971s10.4587,10.7561,10.4587,10.7561
			L36,65.0208z" stroke="none"></path>
    <path fill="#d0cfce" d="M35.9736,65.0172c0,0,2.998-6.0172,13.8722-26.8922c2.0634-3.9611,4.8173-7.7062,4.8173-12.5242
			c0-10.3214-8.3671-18.6885-18.6885-18.6885l-0.2836,8.0321c0,0,11.1773,0.2666,11.0085,10.7347
			c-0.1688,10.4681-11.0088,10.4184-11.0088,10.4184L35.9736,65.0172z" stroke="none"></path>
    <path fill="#b399c8" d="M36.8281,7.5469c0,0,9.7494,4.0365,11.8385,15.2865C50.7057,33.8135,39.5,53,36.5,62.6667
		S54.6914,28,54.6914,28S55.1562,7.2812,36.8281,7.5469z" stroke="none"></path>
  </g>
  <g id="hair">
  </g>
  <g id="skin">
  </g>
  <g id="skin-shadow">
  </g>
  <g id="line">
    <circle fill="none" stroke="#000000" stroke-width="2" stroke-linecap="round" stroke-linejoin="round" stroke-miterlimit="10" cx="36.001" cy="25.5211" r="10.5766"></circle>
    <path fill="none" stroke="#000000" stroke-width="2" stroke-linecap="round" stroke-linejoin="round" stroke-miterlimit="10" d="
			M36,65.0208c0,0-3.091-5.9737-13.8722-26.8922C20,34,17.3106,30.4224,17.3106,25.6045c0-10.3214,8.3671-18.6885,18.6885-18.6885"></path>
    <path fill="none" stroke="#000000" stroke-width="2" stroke-linecap="round" stroke-linejoin="round" stroke-miterlimit="10" d="
			M36.002,65.0172c0,0,2.998-6.0172,13.8722-26.8922c2.0634-3.9611,4.8173-7.7062,4.8173-12.5242
			c0-10.3214-8.3671-18.6885-18.6885-18.6885"></path>
  </g>
</svg>