<?xml version="1.0" encoding="utf-8"?>
<!-- Generator: Adobe Illustrator 22.0.1, SVG Export Plug-In . SVG Version: 6.00 Build 0)  -->
<svg version="1.1" id="emoji" xmlns="http://www.w3.org/2000/svg" xmlns:xlink="http://www.w3.org/1999/xlink" x="0px" y="0px"
	 viewBox="0 0 72 72" enable-background="new 0 0 72 72" xml:space="preserve">
<g id="grid">
	<path fill="#B3B3B3" d="M68,4v64H4V4H68 M72,0H0v72h72V0z"/>
	<path fill="none" stroke="#00A5FF" stroke-width="0.1" stroke-miterlimit="10" d="M12.923,10.9583h46.1539
		c1.0621,0,1.9231,0.861,1.9231,1.9231v0v46.1538c0,1.0621-0.861,1.9231-1.9231,1.9231H12.9231
		c-1.0621,0-1.9231-0.861-1.9231-1.9231l0,0V12.8813C11,11.8193,11.861,10.9583,12.923,10.9583L12.923,10.9583z"/>
	<path fill="none" stroke="#00A5FF" stroke-width="0.1" stroke-miterlimit="10" d="M18.2537,4h35.4926C54.991,4,56,5.009,56,6.2537
		v59.4926C56,66.991,54.991,68,53.7463,68H18.2537C17.009,68,16,66.991,16,65.7463V6.2537C16,5.009,17.009,4,18.2537,4z"/>
	<path fill="none" stroke="#00A5FF" stroke-width="0.1" stroke-miterlimit="10" d="M68,18.2537v35.4926
		C68,54.991,66.991,56,65.7463,56H6.2537C5.009,56,4,54.991,4,53.7463V18.2537C4,17.009,5.009,16,6.2537,16h59.4926
		C66.991,16,68,17.009,68,18.2537z"/>
	<circle fill="none" stroke="#00A5FF" stroke-width="0.1" stroke-miterlimit="10" cx="36" cy="36" r="29"/>
</g>
<g id="color">
	<path fill="#9B9B9A" d="M45.5,25.1h-3.75c0-3.18-2.57-5.75-5.75-5.75s-5.75,2.57-5.75,5.75H26.5c0-5.25,4.25-9.5,9.5-9.5
		S45.5,19.85,45.5,25.1z"/>
	<rect x="10.83" y="25.1" fill="#D0CFCE" width="50.17" height="30.9"/>
	<polyline fill="#EA5A47" points="38.9194,36.7604 43.7943,36.7604 43.7943,43.3437 38.9188,43.3437 38.961,43.3021 38.961,48.1771 
		32.3776,48.1771 32.3776,43.3015 	"/>
	<polyline fill="#EA5A47" points="32.3362,43.3437 27.5443,43.3437 27.5443,36.7604 32.336,36.7604 32.3776,36.7189 
		32.3776,31.9271 38.961,31.9271 38.961,36.7188 	"/>
</g>
<g id="hair">
</g>
<g id="skin">
</g>
<g id="skin-shadow">
</g>
<g id="line">
	<path fill="none" stroke="#000000" stroke-width="2" stroke-linecap="round" stroke-linejoin="round" stroke-miterlimit="10" d="
		M45.5,25.1h-3.75c0-3.18-2.57-5.75-5.75-5.75s-5.75,2.57-5.75,5.75H26.5c0-5.25,4.25-9.5,9.5-9.5S45.5,19.85,45.5,25.1z"/>
	<path fill="none" stroke="#000000" stroke-width="2" stroke-linecap="round" stroke-linejoin="round" stroke-miterlimit="10" d="
		M30.25,25.1c0-3.18,2.57-5.75,5.75-5.75s5.75,2.57,5.75,5.75"/>
	
		<rect x="10.83" y="25.1" fill="none" stroke="#000000" stroke-width="2" stroke-linecap="round" stroke-linejoin="round" stroke-miterlimit="10" width="50.17" height="30.9"/>
	
		<polyline fill="none" stroke="#000000" stroke-width="2" stroke-linecap="round" stroke-linejoin="round" stroke-miterlimit="10" points="
		38.9194,36.7604 43.7943,36.7604 43.7943,43.3437 38.9188,43.3437 38.961,43.3021 38.961,48.1771 32.3776,48.1771 32.3776,43.3015 
			"/>
	
		<polyline fill="none" stroke="#000000" stroke-width="2" stroke-linecap="round" stroke-linejoin="round" stroke-miterlimit="10" points="
		32.3362,43.3437 27.5443,43.3437 27.5443,36.7604 32.336,36.7604 32.3776,36.7189 32.3776,31.9271 38.961,31.9271 38.961,36.7188 	
		"/>
</g>
</svg>
