<svg id="emoji" viewBox="0 0 72 72" version="1.1" xmlns="http://www.w3.org/2000/svg">
  <g id="grid">
    <path fill="#b3b3b3" d="M68,4V68H4V4H68m4-4H0V72H72V0Z"/>
    <path fill="none" stroke="#00a5ff" stroke-miterlimit="10" stroke-width="0.1" d="m12.92 10.96h46.15a1.923 1.923 0 0 1 1.923 1.923v46.15a1.923 1.923 0 0 1-1.923 1.923h-46.15a1.923 1.923 0 0 1-1.923-1.923v-46.15a1.923 1.923 0 0 1 1.923-1.923z"/>
    <rect x="16" y="4" rx="2.254" width="40" height="64" fill="none" stroke="#00a5ff" stroke-miterlimit="10" stroke-width="0.1"/>
    <rect x="16" y="4" rx="2.254" width="40" height="64" transform="translate(72) rotate(90)" fill="none" stroke="#00a5ff" stroke-miterlimit="10" stroke-width="0.1"/>
    <circle cx="36" cy="36" r="29" fill="none" stroke="#00a5ff" stroke-miterlimit="10" stroke-width="0.1"/>
  </g>
  <g id="color">
    <circle cx="36" cy="36" r="26.68" fill="#fff" fill-rule="evenodd" paint-order="normal"/>
  </g>
  <g id="line">
    <circle cx="36" cy="36" fill="none" r="26.68" stroke="#000" stroke-linecap="round" stroke-linejoin="round" stroke-width="4.74"/>
    <path fill="none" stroke="#000" stroke-linecap="round" stroke-linejoin="round" stroke-width="4.74" d="m 54.49 54.46 l -36.46 -36.46 l .4581 -.4581"/>
    <path fill="none" stroke="#000" stroke-linecap="round" stroke-linejoin="round" stroke-width="6.3" d="m 42.88 27.333584 c -.64862 -2.524872 -3.451924 -4.420108 -6.812092 -4.420108 c -3.841096 0 -6.954472 2.477412 -6.954472 5.537 c 0 3.056424 3.024784 6.210932 6.884864 7.54614 c 3.86008 1.3342588 6.963964 4.20812 6.884864 7.54614 c -.07391104 3.0586388 -3.113376 5.537 -6.954472 5.537 c -3.360168 0 -6.163472 -1.8984 -6.812092 -4.423272"/>
    <path fill="none" stroke="#000" stroke-linecap="round" stroke-linejoin="round" stroke-width="6.3" d="m36.00,17.6 v5.28"/>
    <path fill="none" stroke="#000" stroke-linecap="round" stroke-linejoin="round" stroke-width="6.3" d="m36.00,54.4 v-5.28"/>
  </g>
</svg>
