<svg id="emoji" viewBox="0 0 72 72" xmlns="http://www.w3.org/2000/svg">
  <g id="grid">
    <path fill="#b3b3b3" d="M68,4V68H4V4H68m4-4H0V72H72V0Z"/>
    <path fill="none" stroke="#00a5ff" stroke-miterlimit="10" stroke-width="0.1" d="M12.923,10.9583H59.0769A1.9231,1.9231,0,0,1,61,12.8814V59.0352a1.9231,1.9231,0,0,1-1.9231,1.9231H12.9231A1.9231,1.9231,0,0,1,11,59.0352V12.8813A1.923,1.923,0,0,1,12.923,10.9583Z"/>
    <rect x="16" y="4" rx="2.2537" width="40" height="64" fill="none" stroke="#00a5ff" stroke-miterlimit="10" stroke-width="0.1"/>
    <rect x="16" y="4" rx="2.2537" width="40" height="64" transform="translate(72) rotate(90)" fill="none" stroke="#00a5ff" stroke-miterlimit="10" stroke-width="0.1"/>
    <circle cx="36" cy="36" r="29" fill="none" stroke="#00a5ff" stroke-miterlimit="10" stroke-width="0.1"/>
  </g>
  <g id="color">
    <circle cx="36" cy="36" r="28" fill="#ea5a47" stroke="none" stroke-linejoin="round" stroke-miterlimit="10" stroke-width="2"/>
  </g>
  <g id="hair"/>
  <g id="skin"/>
  <g id="skin-shadow"/>
  <g id="line">
    <circle cx="36" cy="36" r="28" fill="none" stroke="#000000" stroke-linejoin="round" stroke-width="2"/>
    <path fill="none" stroke="#000" stroke-linecap="round" stroke-linejoin="round" stroke-miterlimit="10" stroke-width="2" d="M 13.2 33 a23,23,0,0,1,45.6,0 H39 v-14.8 a18,18,0,0,1,13.1,9.8 H45 M 13.2 33 H33 v-14.8 a18,18,0,0,0,-13.1,9.8 H27  M 13.2 39 a23,23,0,0,0,45.6,0 H39 v14.8 a18,18,0,0,0,13.1,-9.8 H45 M 13.2 39 H33 v14.8 a18,18,0,0,1,-13.1,-9.8 H 27 M19.8,19.8 l3.2,3.2 M52.2,52.2 l-3.2,-3.2 M19.8,52.2 l3.2,-3.2 M52.2,19.8 l-3.2,3.2
 M 18.1 39 a18,18,0,0,1,0,-6 M 53.9 39 a18,18,0,0,0,0,-6"/>
  </g>
</svg>
