<svg id="emoji" viewBox="0 0 72 72" xmlns="http://www.w3.org/2000/svg">
  <g id="grid">
    <path fill="#b3b3b3" d="M68,4V68H4V4H68m4-4H0V72H72V0Z"/>
    <path fill="none" stroke="#00a5ff" stroke-miterlimit="10" stroke-width="0.1" d="M12.923,10.9583H59.0769A1.9231,1.9231,0,0,1,61,12.8814V59.0352a1.9231,1.9231,0,0,1-1.9231,1.9231H12.9231A1.9231,1.9231,0,0,1,11,59.0352V12.8813A1.923,1.923,0,0,1,12.923,10.9583Z"/>
    <rect x="16" y="4" rx="2.2537" width="40" height="64" fill="none" stroke="#00a5ff" stroke-miterlimit="10" stroke-width="0.1"/>
    <rect x="16" y="4" rx="2.2537" width="40" height="64" transform="translate(72) rotate(90)" fill="none" stroke="#00a5ff" stroke-miterlimit="10" stroke-width="0.1"/>
    <circle cx="36" cy="36" r="29" fill="none" stroke="#00a5ff" stroke-miterlimit="10" stroke-width="0.1"/>
  </g>
  <g id="color">
    <circle cx="36" cy="36" r="28" fill="#ea5a47" stroke="none" stroke-linejoin="round" stroke-miterlimit="10" stroke-width="2"/>
  </g>
  <g id="hair"/>
  <g id="skin"/>
  <g id="skin-shadow"/>
  <g id="line">
    <circle cx="36" cy="36" r="28" fill="none" stroke="#000000" stroke-linejoin="round" stroke-miterlimit="10" stroke-width="2"/>
    <path stroke-width="2" stroke-linecap="round" stroke-linejoin="round" stroke="#000000" fill="none" d="M39,36 H58.8 a23,23,0,0,0,-1,-6 H39z"/>
    <path stroke-width="2" stroke-linecap="round" stroke-linejoin="round" stroke="#000000" fill="none" d="M33,36 H13.2 a23,23,0,0,1,1,-6 H33z"/>
    <path stroke-width="2" stroke-linecap="round" stroke-linejoin="round" stroke="#000000" fill="none" d="M16.5,24 H55.5  M22,18 H50  M31,13.5 V24  M41,13.5 V24"/>
    <path stroke-width="2" stroke-linecap="round" stroke-linejoin="round" stroke="#000000" fill="none" d="M14,42 H58  M28,36 V48  M44,36 V48"/>
    <path stroke-width="2" stroke-linecap="round" stroke-linejoin="round" stroke="#000000" fill="none" d="M33,48 H16.5 A23,23,0,0,0,33,58.8z"/>
    <path stroke-width="2" stroke-linecap="round" stroke-linejoin="round" stroke="#000000" fill="none" d="M39,48 H55.5 A23,23,0,0,1,39,58.8z"/>
  </g>
</svg>
