<svg id="emoji" version="1.1" viewBox="0 0 72 72" xmlns="http://www.w3.org/2000/svg">
 <g id="grid">
  <path d="M68,4V68H4V4H68m4-4H0V72H72V0Z" fill="#b3b3b3"/>
  <path d="m12.92 10.96h46.15a1.923 1.923 0 0 1 1.923 1.923v46.15a1.923 1.923 0 0 1-1.923 1.923h-46.15a1.923 1.923 0 0 1-1.923-1.923v-46.15a1.923 1.923 0 0 1 1.923-1.923z" fill="none" stroke="#00a5ff" stroke-miterlimit="10" stroke-width=".1"/>
  <rect x="16" y="4" width="40" height="64" rx="2.254" ry="2.254" fill="none" stroke="#00a5ff" stroke-miterlimit="10" stroke-width=".1"/>
  <rect transform="translate(72) rotate(90)" x="16" y="4" width="40" height="64" rx="2.254" ry="2.254" fill="none" stroke="#00a5ff" stroke-miterlimit="10" stroke-width=".1"/>
  <circle cx="36" cy="36" r="29" fill="none" stroke="#00a5ff" stroke-miterlimit="10" stroke-width=".1"/>
 </g>
 <g id="color" style="fill:#fcea2b">
  <rect x="12.01" y="15.29" width="48.14" height="41.43" fill="none" stroke-linecap="round" stroke-linejoin="round" stroke-width="1.925" style="fill:#fff"/>
  <rect x="17.28" y="19.31" width="5.524" height="18.83" style="fill:#fff"/>
  <rect x="23.03" y="19.22" width="6.585" height="19.05" style="fill:#fcea2b"/>
  <rect x="30.41" y="19.36" width="5.966" height="19.09" style="fill:#92d3f5"/>
  <rect x="37.12" y="19.45" width="4.906" height="18.69" style="fill:#b1cc33"/>
  <rect x="42.74" y="19.14" width="6.938" height="19.45" style="fill:#61b2e4"/>
  <rect x="50.47" y="19.49" width="4.375" height="18.65" style="fill:#ea5a47"/>
  <rect x="17.68" y="39.02" width="4.508" height="4.861" style="fill:#d0cfce"/>
  <rect x="22.98" y="38.63" width="6.938" height="5.789" style="fill:#d0cfce"/>
  <rect x="30.41" y="38.49" width="5.745" height="6.143" style="fill:#d0cfce"/>
  <rect x="36.99" y="39.11" width="5.392" height="4.685" style="fill:#9b9b9a"/>
  <rect x="43.09" y="39.24" width="6.231" height="4.906" style="fill:#3f3f3f"/>
  <rect x="50.2" y="39.11" width="4.906" height="4.994" style="fill:#000"/>
 </g>
 <g id="line">
  <rect x="12.05" y="15.32" width="48.14" height="41.43" fill="none" stroke="#000" stroke-linecap="round" stroke-linejoin="round" stroke-width="1.925" style="stroke-width:2"/>
  <rect x="17.48" y="19.23" width="37.51" height="25.11" fill="none" stroke="#000" stroke-linecap="round" stroke-linejoin="round" stroke-width="1.925" style="stroke-width:2"/>
  <path d="m22.58 19.84v24.07" style="fill:#fff;stroke-linecap:round;stroke-linejoin:round;stroke-width:2;stroke:#000"/>
  <path d="m29.99 19.84v24.07" style="fill:#fff;stroke-linecap:round;stroke-linejoin:round;stroke-width:2;stroke:#000"/>
  <path d="m36.52 19.84v24.07" style="fill:#fff;stroke-linecap:round;stroke-linejoin:round;stroke-width:2;stroke:#000"/>
  <path d="m42.5 19.84v24.07" style="fill:#fff;stroke-linecap:round;stroke-linejoin:round;stroke-width:2;stroke:#000"/>
  <path d="m49.8 19.84v24.07" style="fill:#fff;stroke-linecap:round;stroke-linejoin:round;stroke-width:2;stroke:#000"/>
  <path d="m54.32 38.59h-35.57" style="fill:#fff;stroke-linecap:round;stroke-linejoin:round;stroke-width:2;stroke:#000"/>
 </g>
</svg>
