<svg id="emoji" version="1.1" viewBox="0 0 72 72" xmlns="http://www.w3.org/2000/svg">
  <g id="grid">
    <path d="M68,4V68H4V4H68m4-4H0V72H72V0Z" fill="#b3b3b3"/>
    <path d="m12.92 10.96h46.15a1.923 1.923 0 0 1 1.923 1.923v46.15a1.923 1.923 0 0 1-1.923 1.923h-46.15a1.923 1.923 0 0 1-1.923-1.923v-46.15a1.923 1.923 0 0 1 1.923-1.923z" fill="none" stroke="#00a5ff" stroke-miterlimit="10" stroke-width=".1"/>
    <rect x="16" y="4" width="40" height="64" rx="2.254" fill="none" stroke="#00a5ff" stroke-miterlimit="10" stroke-width=".1"/>
    <rect transform="translate(72) rotate(90)" x="16" y="4" width="40" height="64" rx="2.254" fill="none" stroke="#00a5ff" stroke-miterlimit="10" stroke-width=".1"/>
    <circle cx="36" cy="36" r="29" fill="none" stroke="#00a5ff" stroke-miterlimit="10" stroke-width=".1"/>
  </g>
  <g id="line-supplement">
    <path d="m30.8 35.65v-2.434l3.921 0.124 0.2789 12.11-4.232-8.85z" stroke="#000" stroke-linejoin="round" stroke-width="2"/>
    <path d="m36 7v20c-4.425-0.05274-8.259-1.883-10-10 1.094-6.495 4.349-9.939 10-10z"/>
    <path d="m36 29.34 0.045 3.938-14.52 0.06155-1.878-2 1.878-2z"/>
    <path d="m36.04 33.28-0.045 26.82h-19.07l9.107-10.6 4.427-10.52 0.3355-5.768z"/>
  </g>
  <g id="color">
    <polygon points="41.15 37.08 44.99 48.08 53.53 60.1 16.93 60.1 27.58 48.16 30.8 35.36" fill="#fff"/>
    <polyline points="43.53 45.45 53.53 60.1 40.59 60.1" fill="#d0cfce"/>
    <rect x="20.66" y="29.34" width="32.26" height="3.726" fill="#fff"/>
    <circle cx="36" cy="17" r="10" fill="#fff"/>
    <path d="m41.38 8.58a9.989 9.989 0 0 1-13.8 13.8 9.994 9.994 0 1 0 13.8-13.8z" fill="#d0cfce"/>
    <path d="m30.8 35.65v-2.434l10.49 0.1249-0.04286 3.56c-2.441 3.547-1.324 6.32 2.281 8.552l-12.76-8.853z" fill="#fff" stroke="#fff" stroke-linecap="round" stroke-linejoin="round" stroke-width="2"/>
    <path d="m30.8 35.65v-2.434l3.921 0.124 0.2789 12.11-4.232-8.85z" fill="#3f3f3f" stroke="#3f3f3f" stroke-linejoin="round" stroke-width="2"/>
    <path d="m36 7v20c-4.425-0.05274-8.259-1.883-10-10 1.094-6.495 4.349-9.939 10-10z" fill="#3f3f3f"/>
    <path d="m36 29.34 0.045 3.938-14.52 0.06155-1.878-2 1.878-2z" fill="#3f3f3f"/>
    <path d="m36.04 33.28-0.045 26.82h-19.07l9.107-10.6 4.427-10.52 0.3355-5.768z" fill="#3f3f3f"/>
  </g>
  <g id="line" fill="none" stroke="#000" stroke-linecap="round" stroke-linejoin="round" stroke-width="2">
    <circle cx="36" cy="17" r="10"/>
    <path d="m21.53 29.34a2.019 2.019 0 0 0 0 4"/>
    <path d="m30.8 35.65c0 10.97-11.86 23.57-13.87 24.45h19.07"/>
    <path d="m41.25 36.9c0.8326 10.65 11.88 22.36 13.82 23.2h-19.07"/>
    <path d="m52.05 33.34a2.019 2.019 0 0 0 0-4"/>
    <line x1="21.53" x2="52.05" y1="29.34" y2="29.34"/>
    <line x1="21.53" x2="52.05" y1="33.34" y2="33.34"/>
  </g>
</svg>
