<svg id="emoji" version="1.1" viewBox="0 0 72 72" xmlns="http://www.w3.org/2000/svg">
  <g id="grid">
    <path d="M68,4V68H4V4H68m4-4H0V72H72V0Z" fill="#b3b3b3"/>
    <path d="m12.92 10.96h46.15a1.923 1.923 0 0 1 1.923 1.923v46.15a1.923 1.923 0 0 1-1.923 1.923h-46.15a1.923 1.923 0 0 1-1.923-1.923v-46.15a1.923 1.923 0 0 1 1.923-1.923z" fill="none" stroke="#00a5ff" stroke-miterlimit="10" stroke-width=".1"/>
    <rect x="16" y="4" width="40" height="64" rx="2.254" fill="none" stroke="#00a5ff" stroke-miterlimit="10" stroke-width=".1"/>
    <rect transform="translate(72) rotate(90)" x="16" y="4" width="40" height="64" rx="2.254" fill="none" stroke="#00a5ff" stroke-miterlimit="10" stroke-width=".1"/>
    <circle cx="36" cy="36" r="29" fill="none" stroke="#00a5ff" stroke-miterlimit="10" stroke-width=".1"/>
  </g>
  <g id="line-supplement" transform="matrix(.8974 0 0 .8974 3.693 6.164)">
    <path d="m27.58 48.16 3.22-12.8 5.528-2.078-0.3279 26.82h-19.07z" stroke="#000"/>
    <rect x="20.66" y="29.34" width="16.13" height="3.726" stroke="#fff"/>
    <path d="m29.74 35.79-0.02532-2.587 6.615 0.08291-0.09814 9.806-4.219-1.966z" stroke="#fff" stroke-linecap="round" stroke-linejoin="round" stroke-width="2"/>
    <path transform="rotate(90)" d="m7-36a2.5 2.5 0 0 1-2.496 2.5 2.5 2.5 0 0 1-2.504-2.492"/>
    <path transform="matrix(1.114 0 0 1.114 -4.115 -6.869)" d="m36 12.45c-4.957-1.38e-4 -8.975 4.018-8.975 8.975 9.4e-4 4.956 4.019 8.973 8.975 8.973 0 0-9.42e-4 -4.018-2e-6 -8.974 1.4e-4 -4.957 2e-6 -8.974 2e-6 -8.974zm0 2.646s-3.81e-4 12.24 0 12.66c5.08e-4 0.5523-1-0.4477-1-1v-4.328h-4.328c-0.5523 0-1-0.4477-1-1s0.4477-1 1-1h4.328v-4.328c0-0.5523 0.4478-0.9888 1-1zm-1 7.328c-35-22.42-35-22.42 0 0z"/>
    <path transform="matrix(1.114 0 0 1.114 -4.115 -6.869)" d="m36 15.09c-0.03226 0-0.07979 12.66 0 12.66 0.5523 0 1-0.4477 1-1v-10.66c0-0.5523-0.4477-1-1-1z" color="#000000" stroke-linecap="round" stroke-linejoin="round" style="-inkscape-stroke:none"/>
    <path transform="matrix(1.114 0 0 1.114 -4.115 -6.869)" d="m41.6 21.42h-2.959" fill="none" stroke="#000" stroke-linecap="round" stroke-linejoin="round" stroke-width="2"/>
    <path transform="matrix(1.114 0 0 1.114 -4.115 -6.869)" d="m41.6 21.42h-5.6" fill="none" stroke="#000" stroke-linejoin="round" stroke-width="2"/>
  </g>
  <g id="color" transform="matrix(.8974 0 0 .8974 3.693 6.164)">
    <polygon points="44.99 48.08 53.53 60.1 16.93 60.1 27.58 48.16 30.8 35.36 41.15 37.08" fill="#fff" stroke="#3f3f3f"/>
    <polyline points="43.53 45.45 53.53 60.1 40.59 60.1" fill="#d0cfce"/>
    <rect x="20.66" y="29.34" width="32.26" height="3.726" fill="#fff" stroke="#fff"/>
    <circle cx="36" cy="17" r="10" fill="#fff" stroke="#fff"/>
    <path d="m30.8 35.65v-2.434l10.49 0.1249-0.04286 3.56 0.0517 8.549-9.288-4.328z" fill="#fff" stroke="#fff" stroke-linecap="round" stroke-linejoin="round" stroke-width="2"/>
    <ellipse cx="36" cy="4.5" rx="2.5" ry="2.5" fill="#fff"/>
    <path d="m35.99 33.44v-4.035l-15.38 0.09614v3.726z" fill="#3f3f3f" stroke="#3f3f3f" stroke-width=".5571"/>
    <path d="m36 2 2e-6 5.001-2.5-2.501z" fill="#3f3f3f" stroke="#3f3f3f" stroke-width=".5571"/>
    <path d="m36 27 2e-6 -20-6.2 1.579-3.335 4.584-0.4655 3.837 1.58 5.379 4.806 4.061z" fill="#3f3f3f" stroke="#3f3f3f" stroke-width=".5571"/>
    <path d="m35.99 60.1h-19.06c0.8235 0.1224 4.642-4.262 10.65-11.94 1.92-4.8 3.55-9.663 3.22-14.94l5.245 0.06245z" fill="#3f3f3f" stroke="#3f3f3f" stroke-width=".5571"/>
    <path transform="matrix(1.114 0 0 1.114 -4.115 -6.869)" d="m31.33 35.97 0.1794 3.828 2.718 0.06718 0.1983-3.911z" fill="none" stroke="#3f3f3f" stroke-linecap="round" stroke-linejoin="round" stroke-width="2"/>
    <path d="m41.38 8.58a9.989 9.989 0 0 1-13.8 13.8 9.994 9.994 0 1 0 13.8-13.8z" fill="#d0cfce"/>
    <path d="m36 22.77c-2.702 1.071-5.385 1.551-8.42-0.3945 2.059 3.229 4.946 4.838 8.42 4.62z"/>
    <path transform="matrix(1.114 0 0 1.114 -4.115 -6.869)" d="m36 15.95v10.66" fill="none" stroke="#000" stroke-linecap="round" stroke-linejoin="round" stroke-width="2"/>
    <path transform="matrix(1.114 0 0 1.114 -4.115 -6.869)" d="m41.33 21.27h-10.66" fill="none" stroke="#000" stroke-linecap="round" stroke-linejoin="round" stroke-width="2"/>
  </g>
  <g id="line" transform="matrix(.8974 0 0 .8974 3.693 6.164)" fill="none" stroke="#000" stroke-linecap="round" stroke-linejoin="round" stroke-width="2.229">
    <circle cx="36" cy="17" r="10"/>
    <path d="m21.53 29.34a2.019 2.019 0 0 0 0 4"/>
    <path d="m30.8 35.65c0 10.97-11.86 23.57-13.87 24.45h19.07"/>
    <path d="m41.25 36.9c0.8326 10.65 11.88 22.36 13.82 23.2h-19.07"/>
    <path d="m52.05 33.34a2.019 2.019 0 0 0 0-4"/>
    <line x1="21.53" x2="52.05" y1="29.34" y2="29.34"/>
    <line x1="21.53" x2="52.05" y1="33.34" y2="33.34"/>
    <ellipse cx="36" cy="4.5" rx="2.5" ry="2.5"/>
  </g>
</svg>
