<svg id="emoji" viewBox="0 0 72 72" version="1.1" xmlns="http://www.w3.org/2000/svg">
  <g id="grid">
    <path fill="#b3b3b3" d="M68,4V68H4V4H68m4-4H0V72H72V0Z"/>
    <path fill="none" stroke="#00a5ff" stroke-miterlimit="10" stroke-width="0.1" d="m12.92 10.96h46.15a1.923 1.923 0 0 1 1.923 1.923v46.15a1.923 1.923 0 0 1-1.923 1.923h-46.15a1.923 1.923 0 0 1-1.923-1.923v-46.15a1.923 1.923 0 0 1 1.923-1.923z"/>
    <rect x="16" y="4" rx="2.254" width="40" height="64" fill="none" stroke="#00a5ff" stroke-miterlimit="10" stroke-width="0.1"/>
    <rect x="16" y="4" rx="2.254" width="40" height="64" transform="rotate(90 36 36)" fill="none" stroke="#00a5ff" stroke-miterlimit="10" stroke-width="0.1"/>
    <circle cx="36" cy="36" r="29" fill="none" stroke="#00a5ff" stroke-miterlimit="10" stroke-width="0.1"/>
  </g>
  <g id="color">
    <circle cx="36" cy="36" r="26.68" fill="#fff" fill-rule="evenodd" paint-order="normal"/>
  </g>
  <g id="line">
    <circle cx="36" cy="36" r="26.68" fill="none" stroke="#000" stroke-linecap="round" stroke-linejoin="round" stroke-width="4.74" paint-order="normal"/>
    <path fill="none" stroke="#000" stroke-linecap="round" stroke-linejoin="round" stroke-miterlimit="10" stroke-width="5.063" d="m52.74 44.86v-17.72l-7.594 15.19-7.594-15.19v17.72" clip-rule="evenodd"/>
    <path transform="translate(30.26 41.33) scale(2.529)" fill="none" fill-rule="evenodd" stroke="#000" stroke-linecap="round" stroke-linejoin="round" stroke-miterlimit="10" stroke-width="2" d="m0-4.212c-0.205-0.798-1.091-1.397-2.153-1.397-1.214 0-2.198 0.783-2.198 1.75 0 0.966 0.984 1.75 2.198 1.75l-0.045 6e-3c1.214 0 2.198 0.784 2.198 1.75 0 0.967-0.984 1.75-2.198 1.75-1.062 0-1.948-0.6-2.153-1.398" clip-rule="evenodd"/>
  </g>
</svg>
