<?xml version="1.0" encoding="UTF-8"?>
<svg id="emoji" xmlns="http://www.w3.org/2000/svg" viewBox="0 0 72 72">
  <g id="grid">
    <path d="m68,4v64H4V4h64m4-4H0v72h72V0Z" fill="#b3b3b3"/>
    <path d="m12.92,10.96h46.15c1.062,0,1.923.861,1.923,1.923h0v46.15c0,1.062-.861,1.923-1.923,1.923H12.92c-1.062,0-1.923-.861-1.923-1.923h0V12.883c0-1.062.861-1.923,1.923-1.923h0Z" fill="none" stroke="#00a5ff" stroke-miterlimit="10" stroke-width=".1"/>
    <rect x="16" y="4" width="40" height="64" rx="2.254" ry="2.254" fill="none" stroke="#00a5ff" stroke-miterlimit="10" stroke-width=".1"/>
    <rect x="4" y="16" width="64" height="40" rx="2.254" ry="2.254" fill="none" stroke="#00a5ff" stroke-miterlimit="10" stroke-width=".1"/>
    <circle cx="36" cy="36" r="29" fill="none" stroke="#00a5ff" stroke-miterlimit="10" stroke-width=".1"/>
  </g>
  <g id="color">
    <ellipse cx="21.4959" cy="30.4182" rx="3.0549" ry="4.0199" transform="translate(-10.082 50.1712) rotate(-86.7792)" fill="#fff"/>
    <ellipse cx="21.3262" cy="41.7422" rx="3.0549" ry="4.0199" transform="translate(-21.5482 60.6896) rotate(-86.7792)" fill="#fff"/>
    <rect x="30.7634" y="31.9203" width="3.9812" height="5.6272" rx=".5853" ry=".5853" fill="#fff"/>
  </g>
  <g id="line">
    <path d="m57.76,47.52v-23.03l-9.871,19.74-9.871-19.74v23.03" fill="none" stroke="#000" stroke-linecap="round" stroke-linejoin="round" stroke-width="6.581"/>
    <path d="m28.54,29.08c-.6739-2.623-3.586-4.592-7.077-4.592-3.991,0-7.225,2.574-7.225,5.753,0,3.175,3.235,5.753,7.225,5.753l-.1479.0197c3.991,0,7.225,2.577,7.225,5.753,0,3.179-3.235,5.753-7.225,5.753-3.491,0-6.403-1.972-7.077-4.596" fill="none" stroke="#000" stroke-linecap="round" stroke-linejoin="round" stroke-width="6.574"/>
  </g>
</svg>