<?xml version="1.0" encoding="UTF-8"?>
<svg id="emoji" xmlns="http://www.w3.org/2000/svg" viewBox="0 0 72 72">
  <g id="grid">
    <path d="m68,4v64H4V4h64Zm4-4H0v72h72V0Z" fill="#b3b3b3"/>
    <path d="m12.923,10.9583h46.1539c.51,0,.9992.2026,1.3598.5632.3607.3607.5633.8498.5633,1.3599v46.1537c0,.5101-.2026.9992-.5633,1.3599-.3606.3606-.8498.5633-1.3598.5633H12.9231c-.51,0-.9992-.2027-1.3598-.5633-.3607-.3607-.5633-.8498-.5633-1.3599V12.8813c0-.5101.2026-.9992.5632-1.3598.3607-.3606.8498-.5632,1.3598-.5632h0Z" fill="none" stroke="#00a5ff" stroke-miterlimit="10" stroke-width=".1"/>
    <path d="m53.7463,4H18.2537c-1.2447,0-2.2537,1.009-2.2537,2.2537v59.4926c0,1.2447,1.009,2.2537,2.2537,2.2537h35.4926c1.2447,0,2.2537-1.009,2.2537-2.2537V6.2537c0-1.2447-1.009-2.2537-2.2537-2.2537Z" fill="none" stroke="#00a5ff" stroke-miterlimit="10" stroke-width=".1"/>
    <path d="m68,53.7463V18.2537c0-1.2447-1.009-2.2537-2.2537-2.2537H6.2537c-1.2447,0-2.2537,1.009-2.2537,2.2537v35.4926c0,1.2447,1.009,2.2537,2.2537,2.2537h59.4926c1.2447,0,2.2537-1.009,2.2537-2.2537Z" fill="none" stroke="#00a5ff" stroke-miterlimit="10" stroke-width=".1"/>
    <path d="m36,65c16.0163,0,29-12.9837,29-29S52.0163,7,36,7,7,19.9837,7,36s12.9837,29,29,29Z" fill="none" stroke="#00a5ff" stroke-miterlimit="10" stroke-width=".1"/>
  </g>
  <g id="color">
    <path d="m36.7946,44.5356V8.9226c7.4261,0,13.7534,3.0274,19.0044,8.2784,5.251,5.251,7.6176,11.6901,7.6176,19.1162s-2.6864,13.5741-7.9374,18.8251-10.9775,8.0077-18.4036,8.0077l-.281-18.6143Z" fill="#fff"/>
    <path d="m37,44.2857l-1.8532-35.3021c-7.9565,0-13.6584,3.1402-19.2845,8.5788s-8.3703,14.6227-6.8135,22.5479c1.5453,7.8672,3.9269,11.6304,9.553,17.069,6.6731,4.8468,10.4418,6.0409,18.3983,6.0409v-18.9345Z" fill="#3f3f3f"/>
  </g>
  <g id="line">
    <path d="m36,64c15.464,0,28-12.536,28-28s-12.536-28-28-28-28,12.536-28,28,12.536,28,28,28Z" fill="none" stroke="#000" stroke-linejoin="round" stroke-width="2"/>
    <path d="m36,8v53" fill="none" stroke="#000" stroke-linecap="round" stroke-width="2"/>
  </g>
</svg>