<svg id="emoji" viewBox="0 0 72 72" version="1.1" xmlns="http://www.w3.org/2000/svg">
  <g id="grid">
    <path fill="#B3B3B3" d="M68,4v64H4V4H68 M72,0H0v72h72V0z"/>
    <path fill="none" stroke="#00A5FF" stroke-miterlimit="10" stroke-width="0.1" d="m12.92 10.96h46.15c1.062 0 1.923 0.861 1.923 1.923v46.15c0 1.062-0.861 1.923-1.923 1.923h-46.15c-1.062 0-1.923-0.861-1.923-1.923v-46.15c0-1.062 0.861-1.923 1.923-1.923z"/>
    <path fill="none" stroke="#00A5FF" stroke-miterlimit="10" stroke-width="0.1" d="M18.2537,4h35.4926C54.991,4,56,5.009,56,6.2537 v59.4926C56,66.991,54.991,68,53.7463,68H18.2537C17.009,68,16,66.991,16,65.7463V6.2537C16,5.009,17.009,4,18.2537,4z"/>
    <path fill="none" stroke="#00A5FF" stroke-miterlimit="10" stroke-width="0.1" d="M68,18.2537v35.4926 C68,54.991,66.991,56,65.7463,56H6.2537C5.009,56,4,54.991,4,53.7463V18.2537C4,17.009,5.009,16,6.2537,16h59.4926 C66.991,16,68,17.009,68,18.2537z"/>
    <circle cx="36" cy="36" r="29" fill="none" stroke="#00A5FF" stroke-miterlimit="10" stroke-width="0.1"/>
  </g>
  <g id="color">
    <path fill="#fff" d="m30.93 24.36h10.13c19.98 1e-6 19.98 18.65 8.25 22.78h-26.63c-11.68-2.578-11.73-22.78 8.25-22.78z"/>
    <path fill="#fff" d="m22.76 60.49 26.56 0.06014-0.0061-13.4h-26.63z"/>
    <circle cx="36" cy="24.36" r="5.065" fill="#fff" fill-opacity="0.9969"/>
    <path fill="#d0cfce" d="m36 47.15c13.09-5.749 13.32-3.324 19.71-16.19 2.732 4.795 1.575 15.19-6.399 16.19z"/>
    <path fill="#d0cfce" d="m49.32 60.55-26.56-0.06014c13.24-4.491 19.31 0.06014 26.56-13.34z"/>
    <path transform="translate(93.42 -37.29)" fill="#d0cfce" stroke-width="0.5067" d="m-55.09 56.99a5.062 5.062 0 0 1-6.993 6.993 5.064 5.064 0 1 0 6.993-6.993z"/>
  </g>
  <g id="line" fill="none" stroke="#000" stroke-linejoin="round" stroke-width="2">
    <circle cx="36" cy="24.36" r="5.065"/>
    <path stroke-linecap="round" d="m36 19.3v-7.848"/>
    <path stroke-linecap="round" d="m32.08 14.45h7.848"/>
    <path stroke-linecap="round" d="m22.68 47.15h26.64v13.4l-26.56-0.06014z"/>
    <path stroke-linecap="round" d="m36 29.43 0.0034 17.72"/>
    <path stroke-linecap="round" d="m30.93 24.36c-22.4 0-17.56 22.36-8.25 22.78"/>
    <path stroke-linecap="round" d="m41.07 24.36c22.4 0 17.56 22.36 8.25 22.78"/>
  </g>
</svg>
