<svg id="emoji" viewBox="0 0 72 72" version="1.1" xmlns="http://www.w3.org/2000/svg">
  <g id="grid">
    <path fill="#B3B3B3" d="M68,4v64H4V4H68 M72,0H0v72h72V0z"/>
    <path fill="none" stroke="#00A5FF" stroke-miterlimit="10" stroke-width="0.1" d="m12.92 10.96h46.15c1.062 0 1.923 0.861 1.923 1.923v46.15c0 1.062-0.861 1.923-1.923 1.923h-46.15c-1.062 0-1.923-0.861-1.923-1.923v-46.15c0-1.062 0.861-1.923 1.923-1.923z"/>
    <path fill="none" stroke="#00A5FF" stroke-miterlimit="10" stroke-width="0.1" d="M18.2537,4h35.4926C54.991,4,56,5.009,56,6.2537 v59.4926C56,66.991,54.991,68,53.7463,68H18.2537C17.009,68,16,66.991,16,65.7463V6.2537C16,5.009,17.009,4,18.2537,4z"/>
    <path fill="none" stroke="#00A5FF" stroke-miterlimit="10" stroke-width="0.1" d="M68,18.2537v35.4926 C68,54.991,66.991,56,65.7463,56H6.2537C5.009,56,4,54.991,4,53.7463V18.2537C4,17.009,5.009,16,6.2537,16h59.4926 C66.991,16,68,17.009,68,18.2537z"/>
    <circle cx="36" cy="36" r="29" fill="none" stroke="#00A5FF" stroke-miterlimit="10" stroke-width="0.1"/>
  </g>
  <g id="color">
    <path fill="#fff" d="m17.19 11.55h8.926l-0.1167 6.763h5.439l0.01563-6.466h8.926v6.466h5.454l-0.1167-6.763h8.926v6.466l-5.359 0.2973-2.458 8.831 1e-6 19.9c1.148 4.735 2.169 9.533 6.708 12.61h-35.24c3.672-2.563 5.853-6.829 6.708-12.61v-19.9l-2.458-8.831-5.359-0.2973z"/>
    <path fill="#d0cfce" d="m35.91 59.65 10.91-22.56v9.949c0.5487 5.209 2.784 9.413 6.708 12.61z"/>
    <path fill="#d0cfce" d="m35.91 27.14c10.51-4.422 19.04-14.07 18.73-15.59v6.466l-5.359 0.2973-2.458 8.831z"/>
  </g>
  <g id="line" fill="none" stroke="#000" stroke-width="2">
    <path stroke-linecap="round" stroke-linejoin="round" d="m22.55 18.31 2.458 8.831h10.91"/>
    <path stroke-linecap="round" stroke-linejoin="round" d="m49.28 18.31-2.458 8.831h-10.91"/>
    <path d="m26 18.31h5.439m9.053 0h5.343"/>
    <path stroke-linejoin="round" d="m25 27.14v19.9"/>
    <path stroke-linejoin="round" d="m46.82 27.14v19.9"/>
    <path stroke-linecap="round" stroke-linejoin="round" d="m22.55 18.31-5.359-0.2973v-6.466h8.926l-0.1167 6.763"/>
    <path stroke-linecap="round" stroke-linejoin="round" d="m31.45 18.31v-6.466h8.926v6.466"/>
    <path stroke-linecap="round" stroke-linejoin="round" d="m25 47.04c-1.083 5.186-2.534 10.06-6.708 12.61"/>
    <path stroke-linecap="round" stroke-linejoin="round" d="m46.82 47.04c1.083 5.186 2.534 10.06 6.708 12.61"/>
    <path stroke-linecap="round" stroke-linejoin="round" d="m18.3 59.65h35.24"/>
    <path stroke-linecap="round" stroke-linejoin="round" d="m49.28 18.31 5.359-0.2973v-6.466h-8.926l0.1167 6.763"/>
  </g>
</svg>
