<svg id="emoji" viewBox="0 0 72 72" version="1.1" xmlns="http://www.w3.org/2000/svg">
  <g id="grid">
    <path fill="#b3b3b3" d="m68,4v64H4V4h64M72,0H0v72h72V0Z"/>
    <path fill="none" stroke="#00a5ff" stroke-miterlimit="10" stroke-width="0.1" d="m12.92 10.96h46.15c1.062 0 1.923 0.861 1.923 1.923v46.15c0 1.062-0.861 1.923-1.923 1.923h-46.15c-1.062 0-1.923-0.861-1.923-1.923v-46.15c0-1.062 0.861-1.923 1.923-1.923z"/>
    <rect x="16" y="4" rx="2.254" ry="2.254" width="40" height="64" fill="none" stroke="#00a5ff" stroke-miterlimit="10" stroke-width="0.1"/>
    <rect x="4" y="16" rx="2.254" ry="2.254" width="64" height="40" fill="none" stroke="#00a5ff" stroke-miterlimit="10" stroke-width="0.1"/>
    <circle cx="36" cy="36" r="29" fill="none" stroke="#00a5ff" stroke-miterlimit="10" stroke-width="0.1"/>
  </g>
  <g id="color">
    <path fill="#fff" d="m22.8 11.6 1.785 6.502-4.542 5.088-9.243 15.24 1.046 3.55 2.073 0.7209 3.796 0.6557 2.658-2.481 7.39-2.289s0.2531 1.036 5.687 5.104c0.813 0.6087 1.099 1.14 1.87 2.358l0.497 3.28c0.1498 1.798-0.4553 3.845-1.069 5.542l-0.7455 1.64c-0.3802 1.052-1.799 1.96-2.484 2.844-0.434 0.5604-1.093 0.9738 0.4481 1.637 4.822 2.075 17.76 3.669 29.03-1.956-0.411-7.749 1.068-15.09-1.262-17.86l-1.552-5.931-1.996-4.05-2.396-4.374-3.145-4.476-4.012-3.751-5.167-4.167-5.631-0.9438c-0.6706-0.1124-1.353-0.1367-2.03-0.0722l-3.438 0.3276c-0.6924 0.1222-1.406 0.0126-2.03-0.3118l-1.129-0.5872c-1.369-0.712-2.87-1.136-4.409-1.246z"/>
    <path fill="#d0cfce" d="m29.67 13.11 1.28 3.676 6.734 2.659c5.559 2.111 18.37 25.06 10.05 44.16l13.26-4.563c1.33-6.222 0.7194-13.14-2.039-20.82-2.639-7.512-5.979-14.56-12.33-19.62-4.895-5.933-10.91-5.843-16.97-5.489z"/>
  </g>
  <g id="line">
    <path fill="none" stroke="#000" stroke-linecap="round" stroke-linejoin="round" stroke-width="2" d="m31.25 40.97s8.478 6.782 0 18.76"/>
    <path fill="none" stroke="#000" stroke-linecap="round" stroke-linejoin="round" stroke-width="2" d="m33.95 29.96c0.5489 8.356-9.322 9.703-11.95 10.33-0.3325 0.0798-0.6318 0.25-0.8736 0.4919l-2.223 2.223c-0.3494 0.3494-0.8234 0.5458-1.318 0.5458h-3.512c-1.203 0-2.271-0.7698-2.652-1.911l-0.531-1.593c-0.258-0.774-0.1649-1.622 0.2549-2.322l8.786-14.64 4.724-4.724-2.115-6.905s7.803-0.6987 8.414 5.331c0 0 16.93 2.442 10.55 19.38 0 0-1.625 5.949 2.375 11.18"/>
    <path fill="none" stroke="#000" stroke-linecap="round" stroke-linejoin="round" stroke-width="2" d="m29.67 13.11s6.185-1.118 11.7 1.341"/>
    <circle cx="23.17" cy="28.02" r="2"/>
    <path fill="none" stroke="#000" stroke-linecap="round" stroke-linejoin="round" stroke-width="2" d="m31.25 59.74c8.003 3.953 16.52 6.773 29.75-0.7003"/>
    <path fill="none" stroke="#000" stroke-width="2" d="m41.36 14.45c19.83 11.84 21.89 38.66 19.64 44.59"/>
  </g>
</svg>
