<svg id="emoji" viewBox="0 0 72 72" xmlns="http://www.w3.org/2000/svg">
  <g id="grid">
    <path fill="#b3b3b3" d="M68,4V68H4V4H68m4-4H0V72H72V0Z"/>
    <path fill="none" stroke="#00a5ff" stroke-miterlimit="10" stroke-width="0.1" d="M12.923,10.9583H59.0769A1.9231,1.9231,0,0,1,61,12.8814V59.0352a1.9231,1.9231,0,0,1-1.9231,1.9231H12.9231A1.9231,1.9231,0,0,1,11,59.0352V12.8813A1.923,1.923,0,0,1,12.923,10.9583Z"/>
    <rect x="16" y="4" rx="2.2537" ry="2.2537" width="40" height="64" fill="none" stroke="#00a5ff" stroke-miterlimit="10" stroke-width="0.1"/>
    <rect x="16" y="4" rx="2.2537" ry="2.2537" width="40" height="64" transform="translate(72) rotate(90)" fill="none" stroke="#00a5ff" stroke-miterlimit="10" stroke-width="0.1"/>
    <circle cx="36" cy="36" r="29" fill="none" stroke="#00a5ff" stroke-miterlimit="10" stroke-width="0.1"/>
  </g>
  <g id="color">
    <path fill="#3f3f3f" d="M65.1563,24.8639a47.7773,47.7773,0,0,0-14.4209,2.8752A34.6254,34.6254,0,0,0,36,24.8639a34.5656,34.5656,0,0,0-14.7354,2.8752,47.8142,47.8142,0,0,0-14.43-2.8752A1.7614,1.7614,0,0,0,4.9928,26.607a1.7977,1.7977,0,0,0,1.7431,1.8509A44.1922,44.1922,0,0,1,17.2124,30.174c-4.5644,3.4592-6.3254,7.8439-6.3254,10.6382,0,4.5554,2.8932,9.8745,11.0695,9.8745,3.9,0,7.5294-1.7521,9.0209-4.3667a11.2756,11.2756,0,0,0,.5121-9.8925,14.5656,14.5656,0,0,0-5.8851-6.5231A33.939,33.939,0,0,1,36,28.4579a34.0242,34.0242,0,0,1,10.3956,1.4465,14.4636,14.4636,0,0,0-5.8851,6.5231,11.2459,11.2459,0,0,0,.5121,9.8925c1.4915,2.6146,5.1124,4.3667,9.0209,4.3667,8.1673,0,11.0695-5.3191,11.0695-9.8745,0-2.7943-1.77-7.188-6.3524-10.6562a48.416,48.416,0,0,1,10.5035-1.6981,1.7978,1.7978,0,0,0-.1078-3.594ZM28.1741,37.82a7.6329,7.6329,0,0,1-.3235,6.7208c-.7278,1.2669-2.983,2.5517-5.8941,2.5517-6.7478,0-7.4755-4.3937-7.4755-6.2805,0-1.5364,1.4915-5.966,6.9184-9.0838C24.4453,33.139,27.033,35.1157,28.1741,37.82Zm29.3449,2.992c0,1.8868-.7277,6.2805-7.4755,6.2805-2.92,0-5.1753-1.2848-5.9031-2.5517a7.6626,7.6626,0,0,1-.3235-6.7208c1.1771-2.7763,3.7558-4.744,6.73-6.1188C56.0185,34.8193,57.519,39.2758,57.519,40.8122Z"/>
  </g>
  <g id="line">
    <path fill="none" stroke="#000" stroke-linecap="round" stroke-linejoin="round" stroke-width="1.797" d="M65.1563,24.8639a47.7773,47.7773,0,0,0-14.4209,2.8752A34.6254,34.6254,0,0,0,36,24.8639a34.5656,34.5656,0,0,0-14.7354,2.8752,47.8142,47.8142,0,0,0-14.43-2.8752A1.7614,1.7614,0,0,0,4.9928,26.607a1.7977,1.7977,0,0,0,1.7431,1.8509A44.1922,44.1922,0,0,1,17.2124,30.174c-4.5644,3.4592-6.3254,7.8439-6.3254,10.6382,0,4.5554,2.8932,9.8745,11.0695,9.8745,3.9,0,7.5294-1.7521,9.0209-4.3667a11.2756,11.2756,0,0,0,.5121-9.8925,14.5656,14.5656,0,0,0-5.8851-6.5231A33.939,33.939,0,0,1,36,28.4579a34.0242,34.0242,0,0,1,10.3956,1.4465,14.4636,14.4636,0,0,0-5.8851,6.5231,11.2459,11.2459,0,0,0,.5121,9.8925c1.4915,2.6146,5.1124,4.3667,9.0209,4.3667,8.1673,0,11.0695-5.3191,11.0695-9.8745,0-2.7943-1.77-7.188-6.3524-10.6562a48.416,48.416,0,0,1,10.5035-1.6981,1.7978,1.7978,0,0,0-.1078-3.594ZM28.1741,37.82a7.6329,7.6329,0,0,1-.3235,6.7208c-.7278,1.2669-2.983,2.5517-5.8941,2.5517-6.7478,0-7.4755-4.3937-7.4755-6.2805,0-1.5364,1.4915-5.966,6.9184-9.0838C24.4453,33.139,27.033,35.1157,28.1741,37.82Zm29.3449,2.992c0,1.8868-.7277,6.2805-7.4755,6.2805-2.92,0-5.1753-1.2848-5.9031-2.5517a7.6626,7.6626,0,0,1-.3235-6.7208c1.1771-2.7763,3.7558-4.744,6.73-6.1188C56.0185,34.8193,57.519,39.2758,57.519,40.8122Z"/>
  </g>
</svg>
