<svg id="emoji" viewBox="0 0 72 72" xmlns="http://www.w3.org/2000/svg">
  <g id="grid">
    <path fill="#B3B3B3" d="M68 4V68H4V4H68ZM72 0H0V72H72V0Z"/>
    <path fill="none" stroke="#00A5FF" stroke-miterlimit="10" stroke-width="0.1" d="M12.923 10.9583H59.0769C59.5869 10.9583 60.0761 11.1609 60.4367 11.5215C60.7974 11.8822 61 12.3713 61 12.8814V59.0351C61 59.5452 60.7974 60.0343 60.4367 60.395C60.0761 60.7556 59.5869 60.9583 59.0769 60.9583H12.9231C12.4131 60.9583 11.9239 60.7556 11.5633 60.395C11.2026 60.0343 11 59.5452 11 59.0351V12.8813C11 12.3712 11.2026 11.8821 11.5632 11.5215C11.9239 11.1609 12.413 10.9583 12.923 10.9583V10.9583Z"/>
    <path fill="none" stroke="#00A5FF" stroke-miterlimit="10" stroke-width="0.1" d="M53.7463 4H18.2537C17.009 4 16 5.00902 16 6.2537V65.7463C16 66.991 17.009 68 18.2537 68H53.7463C54.991 68 56 66.991 56 65.7463V6.2537C56 5.00902 54.991 4 53.7463 4Z"/>
    <path fill="none" stroke="#00A5FF" stroke-miterlimit="10" stroke-width="0.1" d="M68 53.7463V18.2537C68 17.009 66.991 16 65.7463 16L6.2537 16C5.00902 16 4 17.009 4 18.2537V53.7463C4 54.991 5.00902 56 6.2537 56L65.7463 56C66.991 56 68 54.991 68 53.7463Z"/>
    <path fill="none" stroke="#00A5FF" stroke-miterlimit="10" stroke-width="0.1" d="M36 65C52.0163 65 65 52.0163 65 36C65 19.9837 52.0163 7 36 7C19.9837 7 7 19.9837 7 36C7 52.0163 19.9837 65 36 65Z"/>
  </g>
  <g id="line-supplement">
    <path fill="#000" d="M8.2613 36.976C7.9129 36.3719 7.9129 35.6283 8.2613 35.0242L21.286 12.4657C21.6344 11.8616 22.2785 11.4897 22.9763 11.4897H49.0237C49.7215 11.4897 50.3656 11.8616 50.714 12.4657L63.7387 35.0242C64.0871 35.6283 64.0871 36.3719 63.7387 36.976L50.714 59.5345C50.3656 60.1386 49.7215 60.5104 49.0237 60.5104H22.9763C22.2785 60.5104 21.6344 60.1386 21.286 59.5345L8.2613 36.976Z"/>
  </g>
  <g id="color">
    <path fill="#3F3F3F" d="M8.2613 36.976C7.9129 36.3719 7.9129 35.6283 8.2613 35.0242L21.286 12.4657C21.6344 11.8616 22.2785 11.4897 22.9763 11.4897H49.0237C49.7215 11.4897 50.3656 11.8616 50.714 12.4657L63.7387 35.0242C64.0871 35.6283 64.0871 36.3719 63.7387 36.976L50.714 59.5345C50.3656 60.1386 49.7215 60.5104 49.0237 60.5104H22.9763C22.2785 60.5104 21.6344 60.1386 21.286 59.5345L8.2613 36.976Z"/>
  </g>
  <g id="line">
    <path fill="none" stroke="#000" stroke-width="2" d="M8.2613 36.976C7.9129 36.3719 7.9129 35.6283 8.2613 35.0242L21.286 12.4657C21.6344 11.8616 22.2785 11.4897 22.9763 11.4897H49.0237C49.7215 11.4897 50.3656 11.8616 50.714 12.4657L63.7387 35.0242C64.0871 35.6283 64.0871 36.3719 63.7387 36.976L50.714 59.5345C50.3656 60.1386 49.7215 60.5104 49.0237 60.5104H22.9763C22.2785 60.5104 21.6344 60.1386 21.286 59.5345L8.2613 36.976Z"/>
  </g>
</svg>
