<svg id="emoji" viewBox="0 0 72 72" xmlns="http://www.w3.org/2000/svg">
  <g id="grid">
    <path fill="#b3b3b3" d="M68,4V68H4V4H68m4-4H0V72H72V0Z"/>
    <path fill="none" stroke="#00a5ff" stroke-miterlimit="10" stroke-width="0.1" d="M12.923,10.9583H59.0769A1.9231,1.9231,0,0,1,61,12.8814V59.0352a1.9231,1.9231,0,0,1-1.9231,1.9231H12.9231A1.9231,1.9231,0,0,1,11,59.0352V12.8813A1.923,1.923,0,0,1,12.923,10.9583Z"/>
    <rect x="16" y="4" rx="2.2537" width="40" height="64" fill="none" stroke="#00a5ff" stroke-miterlimit="10" stroke-width="0.1"/>
    <rect x="16" y="4" rx="2.2537" width="40" height="64" transform="translate(72) rotate(90)" fill="none" stroke="#00a5ff" stroke-miterlimit="10" stroke-width="0.1"/>
    <circle cx="36" cy="36" r="29" fill="none" stroke="#00a5ff" stroke-miterlimit="10" stroke-width="0.1"/>
  </g>
  <g id="color"/>
  <g id="line">
    <path fill="#000000" stroke="#000000" stroke-width="2" d="M7.577,37 C7.22,36.381 7.22,35.619 7.577,35 L20.923,11.885 C21.28,11.266 21.94,10.885 22.655,10.885 L49.345,10.885 C50.06,10.885 50.72,11.266 51.077,11.885 L64.423,35 C64.78,35.619 64.78,36.381 64.423,37 L51.077,60.115 C50.72,60.734 50.06,61.115 49.345,61.115 L22.655,61.115 C21.94,61.115 21.28,60.734 20.923,60.115 L7.577,37 z"/>
  </g>
</svg>
