<svg id="emoji" viewBox="0 0 72 72" xmlns="http://www.w3.org/2000/svg">
  <g id="grid">
    <path fill="#b3b3b3" d="M68,4V68H4V4H68m4-4H0V72H72V0Z"/>
    <path fill="none" stroke="#00a5ff" stroke-miterlimit="10" stroke-width="0.1" d="M12.923,10.9583H59.0769A1.9231,1.9231,0,0,1,61,12.8814V59.0352a1.9231,1.9231,0,0,1-1.9231,1.9231H12.9231A1.9231,1.9231,0,0,1,11,59.0352V12.8813A1.923,1.923,0,0,1,12.923,10.9583Z"/>
    <rect x="16" y="4" rx="2.2537" width="40" height="64" fill="none" stroke="#00a5ff" stroke-miterlimit="10" stroke-width="0.1"/>
    <rect x="16" y="4" rx="2.2537" width="40" height="64" transform="translate(72) rotate(90)" fill="none" stroke="#00a5ff" stroke-miterlimit="10" stroke-width="0.1"/>
    <circle cx="36" cy="36" r="29" fill="none" stroke="#00a5ff" stroke-miterlimit="10" stroke-width="0.1"/>
  </g>
  <g id="color"/>
  <g id="line">
    <path d="M56,36 C56,52.016 47.046,65 36,65 C24.954,65 16,52.016 16,36 C16,19.984 24.954,7 36,7 C47.046,7 56,19.984 56,36 z"/>
    <path stroke="#000000" stroke-width="2" d="M56,35.957 C56.035,51.973 47.109,64.977 36.063,65.001 C25.017,65.025 16.034,52.06 16,36.043 C15.965,20.027 24.891,7.023 35.937,6.999 C46.983,6.975 55.966,19.94 56,35.957 z"/>
  </g>
</svg>
