<svg xmlns="http://www.w3.org/2000/svg" viewBox="0 0 72 72">
  <title>2199</title>
  <g id="emoji">
    <g id="grid">
      <path d="M68,4V68H4V4H68m4-4H0V72H72V0Z" fill="#b3b3b3"/>
      <path d="M12.923,10.9583H59.0769A1.9231,1.9231,0,0,1,61,12.8814V59.0352a1.9231,1.9231,0,0,1-1.9231,1.9231H12.9231A1.9231,1.9231,0,0,1,11,59.0352V12.8813A1.923,1.923,0,0,1,12.923,10.9583Z" fill="none" stroke="#00a5ff" stroke-miterlimit="10" stroke-width="0.1"/>
      <rect x="16" y="4" width="40" height="64" rx="2.2537" ry="2.2537" fill="none" stroke="#00a5ff" stroke-miterlimit="10" stroke-width="0.1"/>
      <rect x="16" y="4" width="40" height="64" rx="2.2537" ry="2.2537" transform="translate(72) rotate(90)" fill="none" stroke="#00a5ff" stroke-miterlimit="10" stroke-width="0.1"/>
      <circle cx="36" cy="36" r="29" fill="none" stroke="#00a5ff" stroke-miterlimit="10" stroke-width="0.1"/>
    </g>
    <g id="color">
      <polygon id="_" data-name="⬇️" points="40.337 55.328 16.083 56.247 17.002 31.993 22.518 32.276 21.952 46.418 53.277 15.093 57.237 19.053 25.912 50.378 40.054 49.812 40.337 55.328" fill="#3f3f3f"/>
    </g>
    <g id="line">
      <polygon id="_2" data-name="⬇️" points="40.337 55.328 16.083 56.247 17.002 31.993 22.518 32.276 21.952 46.418 53.277 15.093 57.237 19.053 25.912 50.378 40.054 49.812 40.337 55.328" fill="none" stroke="#000" stroke-linecap="round" stroke-linejoin="round" stroke-width="2"/>
    </g>
  </g>
</svg>
