<svg id="emoji" viewBox="0 0 72 72" xmlns="http://www.w3.org/2000/svg">
  <g id="grid">
    <path fill="#b3b3b3" d="M68,4V68H4V4H68m4-4H0V72H72V0Z"/>
    <path fill="none" stroke="#00a5ff" stroke-miterlimit="10" stroke-width="0.1" d="M12.923,10.9583H59.0769A1.9231,1.9231,0,0,1,61,12.8814V59.0352a1.9231,1.9231,0,0,1-1.9231,1.9231H12.9231A1.9231,1.9231,0,0,1,11,59.0352V12.8813A1.923,1.923,0,0,1,12.923,10.9583Z"/>
    <rect x="16" y="4" rx="2.2537" width="40" height="64" fill="none" stroke="#00a5ff" stroke-miterlimit="10" stroke-width="0.1"/>
    <rect x="16" y="4" rx="2.2537" width="40" height="64" transform="translate(72) rotate(90)" fill="none" stroke="#00a5ff" stroke-miterlimit="10" stroke-width="0.1"/>
    <circle cx="36" cy="36" r="29" fill="none" stroke="#00a5ff" stroke-miterlimit="10" stroke-width="0.1"/>
  </g>
  <g id="color">
    <circle cx="36" cy="36.1661" r="23" fill="#D0CFCE" stroke="none"/>
    <path fill="none" stroke="#FFFFFF" stroke-miterlimit="10" stroke-width="2" d="M47.0598,45.2754"/>
    <path fill="none" stroke="#FFFFFF" stroke-miterlimit="10" stroke-width="2" d="M48.0598,46.0893"/>
    <path fill="none" stroke="#FFFFFF" stroke-miterlimit="10" stroke-width="2" d="M45.4664,21.78"/>
  </g>
  <g id="hair"/>
  <g id="skin"/>
  <g id="skin-shadow"/>
  <g id="line">
    <path fill="none" stroke="#000000" stroke-miterlimit="10" d="M49.5153,16.245"/>
    <path fill="none" stroke="#000000" stroke-miterlimit="10" d="M49.5153,17.0589"/>
    <path fill="none" stroke="#000000" stroke-linecap="round" stroke-linejoin="round" stroke-width="2" d="M30.3679,21.9589"/>
    <circle cx="36" cy="35.9065" r="23" fill="none" stroke="#000000" stroke-linecap="round" stroke-linejoin="round" stroke-miterlimit="10" stroke-width="2"/>
    <path fill="none" stroke="#000000" stroke-linecap="round" stroke-linejoin="round" stroke-miterlimit="10" stroke-width="2" d="M43.4255,46.1597c-1.5761,1.3979-3.65,2.2468-5.9225,2.2468l0,0c-4.931,0-8.9286-3.9975-8.9286-8.9286v-7.1429v7.1429v-7.1429 c0-4.9311,3.9975-8.9286,8.9286-8.9286l0,0c2.2725,0,4.3464,0.8489,5.9225,2.2471"/>
  </g>
</svg>
