<svg id="emoji" xmlns="http://www.w3.org/2000/svg" viewBox="0 0 72 72">
  <g id="grid">
    <path d="M68,4V68H4V4H68m4-4H0V72H72V0Z" fill="#b3b3b3"/>
    <path d="M12.923,10.9583H59.0769A1.9231,1.9231,0,0,1,61,12.8814V59.0352a1.9231,1.9231,0,0,1-1.9231,1.9231H12.9231A1.9231,1.9231,0,0,1,11,59.0352V12.8813A1.923,1.923,0,0,1,12.923,10.9583Z" fill="none" stroke="#00a5ff" stroke-miterlimit="10" stroke-width="0.1"/>
    <rect x="16" y="4" width="40" height="64" rx="2.2537" ry="2.2537" fill="none" stroke="#00a5ff" stroke-miterlimit="10" stroke-width="0.1"/>
    <rect x="16" y="4" width="40" height="64" rx="2.2537" ry="2.2537" transform="translate(72) rotate(90)" fill="none" stroke="#00a5ff" stroke-miterlimit="10" stroke-width="0.1"/>
    <circle cx="36" cy="36" r="29" fill="none" stroke="#00a5ff" stroke-miterlimit="10" stroke-width="0.1"/>
  </g>
  <g id="color">
    <polygon points="17 12.007 16 48.007 35 64.007 35 24.007 17 12.007" fill="#fcea2b"/>
    <polygon points="55 12.007 56 48.007 37 64.007 37 24.007 55 12.007" fill="#5c9e31"/>
  </g>
  <g id="line">
    <path d="M17.6769,12.0972c-.9223-.6-1.6769-.19-1.6769.91v34a4.7349,4.7349,0,0,0,1.56,3.2518L34.3788,63.7555a2.6239,2.6239,0,0,0,3.1235.0047L54.4364,50.2543A4.7148,4.7148,0,0,0,56,47.0072v-34c0-1.1-.7546-1.5095-1.6769-.91l-16.6462,10.82a3.3519,3.3519,0,0,1-3.3538,0Z" fill="none" stroke="#000" stroke-linecap="round" stroke-miterlimit="10" stroke-width="2"/>
    <line x1="36" y1="24.0072" x2="36" y2="64.0072" fill="none" stroke="#000" stroke-linecap="round" stroke-miterlimit="10" stroke-width="2"/>
  </g>
</svg>
