<svg id="emoji" xmlns="http://www.w3.org/2000/svg" viewBox="0 0 72 72">
  <g id="grid">
    <path d="M68,4V68H4V4H68m4-4H0V72H72V0Z" fill="#b3b3b3"/>
    <path d="M12.923,10.9583H59.0769A1.9231,1.9231,0,0,1,61,12.8814V59.0352a1.9231,1.9231,0,0,1-1.9231,1.9231H12.9231A1.9231,1.9231,0,0,1,11,59.0352V12.8813A1.923,1.923,0,0,1,12.923,10.9583Z" fill="none" stroke="#00a5ff" stroke-miterlimit="10" stroke-width="0.1"/>
    <rect x="16" y="4" width="40" height="64" rx="2.2537" ry="2.2537" fill="none" stroke="#00a5ff" stroke-miterlimit="10" stroke-width="0.1"/>
    <rect x="16" y="4" width="40" height="64" rx="2.2537" ry="2.2537" transform="rotate(90 36 36)" fill="none" stroke="#00a5ff" stroke-miterlimit="10" stroke-width="0.1"/>
    <circle cx="36" cy="36" r="29" fill="none" stroke="#00a5ff" stroke-miterlimit="10" stroke-width="0.1"/>
  </g>
  <g id="line-supplement">
    <path d="M35.1062,18.8152s-.7537,16.3242-16.1286,16.37a.6482.6482,0,1,0,0,1.2963h.0046s16.3242,1.0989,16.37,16.4738l-.0005.1462a.6482.6482,0,0,0,1.2963,0c.0457-15.375,16.37-16.62,16.37-16.62h.0046a.6482.6482,0,1,0,0-1.2963c-15.3749-.0457-16.62-16.37-16.62-16.37a.6482.6482,0,0,0-1.2963,0Z" fill="none" stroke="#000" stroke-linecap="round" stroke-linejoin="round" stroke-width="2"/>
  </g>
  <g id="color">
    <path d="M60,61H12a.9448.9448,0,0,1-1-1V12a.9448.9448,0,0,1,1-1H60a.9448.9448,0,0,1,1,1V60A.9448.9448,0,0,1,60,61Z" fill="#5c9e31"/>
    <path d="M35.1062,18.8569s-.7537,16.3242-16.1286,16.37a.6482.6482,0,1,0,0,1.2963h.0046s16.3242,1.0989,16.37,16.4738l-.0005.1462a.6482.6482,0,0,0,1.2963,0c.0457-15.375,16.37-16.62,16.37-16.62h.0046a.6482.6482,0,1,0,0-1.2963c-15.3749-.0457-16.62-16.37-16.62-16.37a.6482.6482,0,0,0-1.2963,0Z" fill="#fff" stroke="#fff" stroke-linecap="round" stroke-linejoin="round" stroke-width="2"/>
  </g>
  <g id="line">
    <path d="M60,60.9583H12a.9448.9448,0,0,1-1-1v-48a.9448.9448,0,0,1,1-1H60a.9448.9448,0,0,1,1,1v48A.9448.9448,0,0,1,60,60.9583Z" fill="none" stroke="#000" stroke-linecap="round" stroke-linejoin="round" stroke-width="2"/>
  </g>
</svg>
