<svg id="emoji" viewBox="0 0 72 72" xmlns="http://www.w3.org/2000/svg">
  <g id="grid">
    <path fill="#b3b3b3" d="M68,4V68H4V4H68m4-4H0V72H72V0Z"/>
    <path fill="none" stroke="#00a5ff" stroke-miterlimit="10" stroke-width="0.1" d="M12.923,10.9583H59.0769A1.9231,1.9231,0,0,1,61,12.8814V59.0352a1.9231,1.9231,0,0,1-1.9231,1.9231H12.9231A1.9231,1.9231,0,0,1,11,59.0352V12.8813A1.923,1.923,0,0,1,12.923,10.9583Z"/>
    <rect x="16" y="4" rx="2.2537" width="40" height="64" fill="none" stroke="#00a5ff" stroke-miterlimit="10" stroke-width="0.1"/>
    <rect x="16" y="4" rx="2.2537" width="40" height="64" transform="rotate(90 36 36)" fill="none" stroke="#00a5ff" stroke-miterlimit="10" stroke-width="0.1"/>
    <circle cx="36" cy="36" r="29" fill="none" stroke="#00a5ff" stroke-miterlimit="10" stroke-width="0.1"/>
  </g>
  <g id="color">
    <polygon fill="#EA5A47" stroke="none" points="43.8322,36.0822 46.7582,33.1094 56.9705,22.72 49.0941,14.707 38.8758,25.1024 36.0948,27.928 35.736,28.2895 22.4569,14.7802 14.5805,22.7932 27.6292,36.0682 27.8559,36.2987 24.7331,39.4715 13.641,50.756 21.5174,58.769 32.6115,47.4825 35.464,44.5844 35.7307,44.3102 50.0244,58.8517 57.9008,50.8387 43.6131,36.3033"/>
    <path fill="none" stroke="#FFFFFF" stroke-miterlimit="10" stroke-width="2" d="M38.3068,50.0024"/>
    <path fill="none" stroke="#FFFFFF" stroke-miterlimit="10" stroke-width="2" d="M16.6317,32.5062"/>
    <path fill="none" stroke="#FFFFFF" stroke-miterlimit="10" stroke-width="2" d="M52.9015,35.2115"/>
    <path fill="none" stroke="#FFFFFF" stroke-miterlimit="10" stroke-width="2" d="M31.2264,17.7152"/>
  </g>
  <g id="hair"/>
  <g id="skin"/>
  <g id="skin-shadow"/>
  <g id="line">
    <polygon fill="none" stroke="#000000" stroke-linecap="round" stroke-linejoin="round" stroke-miterlimit="10" stroke-width="2" points="43.8322,36.0822 46.7582,33.1094 56.9705,22.72 49.0941,14.707 38.8758,25.1024 36.0948,27.928 35.736,28.2895 22.4569,14.7802 14.5805,22.7932 27.6292,36.0682 27.8559,36.2987 24.7331,39.4715 13.641,50.756 21.5174,58.769 32.6115,47.4825 35.464,44.5844 35.7307,44.3102 50.0244,58.8517 57.9008,50.8387 43.6131,36.3033"/>
  </g>
</svg>
