<svg id="emoji" xmlns="http://www.w3.org/2000/svg" viewBox="0 0 72 72">
  <g id="grid">
    <path d="M68,4V68H4V4H68m4-4H0V72H72V0Z" fill="#b3b3b3"/>
    <path d="M12.923,10.9583H59.0769A1.9231,1.9231,0,0,1,61,12.8814V59.0352a1.9231,1.9231,0,0,1-1.9231,1.9231H12.9231A1.9231,1.9231,0,0,1,11,59.0352V12.8813A1.923,1.923,0,0,1,12.923,10.9583Z" fill="none" stroke="#00a5ff" stroke-miterlimit="10" stroke-width="0.1"/>
    <rect x="16" y="4" width="40" height="64" rx="2.2537" ry="2.2537" fill="none" stroke="#00a5ff" stroke-miterlimit="10" stroke-width="0.1"/>
    <rect x="16" y="4" width="40" height="64" rx="2.2537" ry="2.2537" transform="rotate(90 36 36)" fill="none" stroke="#00a5ff" stroke-miterlimit="10" stroke-width="0.1"/>
    <circle cx="36" cy="36" r="29" fill="none" stroke="#00a5ff" stroke-miterlimit="10" stroke-width="0.1"/>
  </g>
  <g id="color">
    <path d="M60.9905,21.7168a1.0416,1.0416,0,0,0-.6263-1.017,25.4744,25.4744,0,0,0-9.87-2.0747,27.2926,27.2926,0,0,0-14.39,3.8742H35.741a27.292,27.292,0,0,0-14.39-3.8742,25.422,25.422,0,0,0-9.6957,2.0015,1.0417,1.0417,0,0,0-.635.9585l-.0122,1.3739a.9713.9713,0,0,0,1.3313.9166,17.822,17.822,0,0,1,6.9084-1.3763,24.7961,24.7961,0,0,1,10.0328,1.7289,1.0083,1.0083,0,0,1,.1826,1.7318c-2.8342,2.1263-9.33,7.7453-9.33,14.5821,0,8.7447,7.4163,14.8328,15.3862,14.8328h.8056c7.97,0,15.3862-6.0881,15.3862-14.8328,0-6.8368-6.4956-12.4558-9.33-14.5821a1.0083,1.0083,0,0,1,.1826-1.7318A24.7959,24.7959,0,0,1,52.597,22.4993a17.8225,17.8225,0,0,1,6.9588,1.3974.9776.9776,0,0,0,1.3676-.8424ZM47.2544,40.3091A11.0682,11.0682,0,0,1,35.9832,51.2772c-6.12,0-11.5741-3.5752-11.5741-11.0287,0-6.48,8.6115-11.77,10.86-13.04a1.0031,1.0031,0,0,1,1.0439.033C38.5517,28.691,47.36,34.7541,47.2544,40.3091Z" fill="#3f3f3f"/>
  </g>
  <g id="line">
    <path d="M60.9905,21.7168a1.0416,1.0416,0,0,0-.6263-1.017,25.4744,25.4744,0,0,0-9.87-2.0747,27.2926,27.2926,0,0,0-14.39,3.8742H35.741a27.292,27.292,0,0,0-14.39-3.8742,25.422,25.422,0,0,0-9.6957,2.0015,1.0417,1.0417,0,0,0-.635.9585l-.0122,1.3739a.9713.9713,0,0,0,1.3313.9166,17.822,17.822,0,0,1,6.9084-1.3763,24.7961,24.7961,0,0,1,10.0328,1.7289,1.0083,1.0083,0,0,1,.1826,1.7318c-2.8342,2.1263-9.33,7.7453-9.33,14.5821,0,8.7447,7.4163,14.8328,15.3862,14.8328h.8056c7.97,0,15.3862-6.0881,15.3862-14.8328,0-6.8368-6.4956-12.4558-9.33-14.5821a1.0083,1.0083,0,0,1,.1826-1.7318A24.7959,24.7959,0,0,1,52.597,22.4993a17.8225,17.8225,0,0,1,6.9588,1.3974.9776.9776,0,0,0,1.3676-.8424ZM47.2544,40.3091A11.0682,11.0682,0,0,1,35.9832,51.2772c-6.12,0-11.5741-3.5752-11.5741-11.0287,0-6.48,8.6115-11.77,10.86-13.04a1.0031,1.0031,0,0,1,1.0439.033C38.5517,28.691,47.36,34.7541,47.2544,40.3091Z" fill="none" stroke="#000" stroke-linecap="round" stroke-linejoin="round" stroke-width="2"/>
  </g>
</svg>
