<svg id="emoji" xmlns="http://www.w3.org/2000/svg" viewBox="0 0 72 72">
  <g id="grid">
    <path d="M68,4V68H4V4H68m4-4H0V72H72V0Z" fill="#b3b3b3"></path>
    <path d="M12.923,10.9583H59.0769A1.9231,1.9231,0,0,1,61,12.8814V59.0352a1.9231,1.9231,0,0,1-1.9231,1.9231H12.9231A1.9231,1.9231,0,0,1,11,59.0352V12.8813A1.923,1.923,0,0,1,12.923,10.9583Z" fill="none" stroke="#00a5ff" stroke-miterlimit="10" stroke-width="0.1"></path>
    <rect x="16" y="4" width="40" height="64" rx="2.2537" fill="none" stroke="#00a5ff" stroke-miterlimit="10" stroke-width="0.1"></rect>
    <rect x="16" y="4" width="40" height="64" rx="2.2537" transform="translate(72) rotate(90)" fill="none" stroke="#00a5ff" stroke-miterlimit="10" stroke-width="0.1"></rect>
    <circle cx="36" cy="36" r="29" fill="none" stroke="#00a5ff" stroke-miterlimit="10" stroke-width="0.1"></circle>
  </g>
  <g id="color">
    <path fill="#EA5A47" d="M35.5661,6.4066c-16.0162,0-29,12.9838-29,29c0,16.0164,12.9838,29,29,29s29-12.9836,29-29
		C64.5661,19.3903,51.5823,6.4066,35.5661,6.4066z M35.5661,55.4066c-11.0457,0-20-8.9543-20-20s8.9543-20,20-20s20,8.9543,20,20
		S46.6118,55.4066,35.5661,55.4066z" stroke="none"></path>
  </g>
  <g id="hair">
  </g>
  <g id="skin">
  </g>
  <g id="skin-shadow">
  </g>
  <g id="line">
    <path fill="none" stroke="#000000" stroke-miterlimit="10" d="M48.5153,25.5046"></path>
    <path fill="none" stroke="#000000" stroke-miterlimit="10" d="M66,37.6554"></path>
    <path fill="none" stroke="#000000" stroke-miterlimit="10" d="M48.5153,26.3185"></path>
    <circle fill="none" stroke="#000000" stroke-width="2" stroke-linecap="round" stroke-linejoin="round" cx="35.7952" cy="35.9372" r="29"></circle>
    <circle fill="none" stroke="#000000" stroke-width="2" stroke-linecap="round" stroke-linejoin="round" cx="35.7952" cy="35.9372" r="20"></circle>
  </g>
</svg>