<svg id="emoji" viewBox="0 0 72 72" xmlns="http://www.w3.org/2000/svg">
  <g id="grid">
    <path fill="#b3b3b3" d="M68,4V68H4V4H68m4-4H0V72H72V0h0Z"/>
    <rect x="11" y="10.9583" rx="1.923" ry="1.923" width="50" height="50" fill="none" stroke="#00a5ff" stroke-miterlimit="10" stroke-width="0.1"/>
    <rect x="16" y="4" rx="2.2537" ry="2.2537" width="40" height="64" fill="none" stroke="#00a5ff" stroke-miterlimit="10" stroke-width="0.1"/>
    <rect x="16" y="4" rx="2.2537" ry="2.2537" width="40" height="64" transform="translate(72) rotate(90)" fill="none" stroke="#00a5ff" stroke-miterlimit="10" stroke-width="0.1"/>
    <circle cx="36" cy="36" r="29" fill="none" stroke="#00a5ff" stroke-miterlimit="10" stroke-width="0.1"/>
  </g>
  <g id="color">
    <path d="M46,34.448h-8c-.5522,0-1,.4478-1,1s.4478,1,1,1h7v3.0562c0,4.9624-4.0376,9-9,9s-9-4.0376-9-9v-8c0-4.9624,4.0376-9,9-9,2.209,0,4.3301,.8037,5.9717,2.2637,.4131,.3677,1.0449,.3296,1.4121-.083,.3667-.4131,.3296-1.0449-.083-1.4121-2.0083-1.7852-4.6011-2.7686-7.3008-2.7686-6.0654,0-11,4.9346-11,11v8c0,6.0654,4.9346,11,11,11s11-4.9346,11-11v-4.0562c0-.5522-.4478-1-1-1Z"/>
  </g>
  <g id="skin"/>
  <g id="skin-shadow"/>
  <g id="hair"/>
  <g id="line">
    <g id="line-2">
      <circle cx="36" cy="36" r="28" fill="none" stroke="#000" stroke-linejoin="round" stroke-width="2"/>
    </g>
    <path fill="none" stroke="#000" stroke-linejoin="round" stroke-width="2" d="M46,34.448h-8c-.5522,0-1,.4478-1,1s.4478,1,1,1h7v3.0562c0,4.9624-4.0376,9-9,9s-9-4.0376-9-9v-8c0-4.9624,4.0376-9,9-9,2.209,0,4.3301,.8037,5.9717,2.2637,.4131,.3677,1.0449,.3296,1.4121-.083,.3667-.4131,.3296-1.0449-.083-1.4121-2.0083-1.7852-4.6011-2.7686-7.3008-2.7686-6.0654,0-11,4.9346-11,11v8c0,6.0654,4.9346,11,11,11s11-4.9346,11-11v-4.0562c0-.5522-.4478-1-1-1Z"/>
  </g>
</svg>
