<?xml version="1.0" encoding="UTF-8"?>
<svg id="emoji" xmlns="http://www.w3.org/2000/svg" viewBox="0 0 72 72">
  <g id="grid">
    <path d="m68,4v64H4V4h64m4-4H0v72h72V0h0Z" fill="#b3b3b3"/>
    <rect x="11" y="10.9583" width="50" height="50" rx="1.923" ry="1.923" fill="none" stroke="#00a5ff" stroke-miterlimit="10" stroke-width=".1"/>
    <rect x="16" y="4" width="40" height="64" rx="2.2537" ry="2.2537" fill="none" stroke="#00a5ff" stroke-miterlimit="10" stroke-width=".1"/>
    <rect x="16" y="4" width="40" height="64" rx="2.2537" ry="2.2537" transform="translate(72) rotate(90)" fill="none" stroke="#00a5ff" stroke-miterlimit="10" stroke-width=".1"/>
    <circle cx="36" cy="36" r="29" fill="none" stroke="#00a5ff" stroke-miterlimit="10" stroke-width=".1"/>
  </g>
  <g id="color">
    <circle cx="36" cy="36" r="27.5" fill="#fff"/>
    <path d="m37.3163,31.4598l7.7462-8.7889c.3652-.4141.3252-1.0464-.0889-1.4111-.4141-.3652-1.0449-.3252-1.4111.0889l-14.3281,16.2568v-15.5932c0-.5522-.4473-1-1-1s-1,.4478-1,1v28c0,.5522.4473,1,1,1s1-.4478,1-1v-9.3826l6.6624-7.5591,8.9802,17.412c.1777.3442.5273.5415.8896.5415.1543,0,.3105-.0356.457-.1113.4912-.2529.6836-.856.4307-1.3472l-9.338-18.1057Z"/>
  </g>
  <g id="line">
    <g id="line-2" data-name="line">
      <circle cx="36" cy="36" r="28" fill="none" stroke="#000" stroke-linejoin="round" stroke-width="2"/>
    </g>
    <path d="m37.3163,31.4598l7.7462-8.7889c.3652-.4141.3252-1.0464-.0889-1.4111-.4141-.3652-1.0449-.3252-1.4111.0889l-14.3281,16.2568v-15.5932c0-.5522-.4473-1-1-1s-1,.4478-1,1v28c0,.5522.4473,1,1,1s1-.4478,1-1v-9.3826l6.6624-7.5591,8.9802,17.412c.1777.3442.5273.5415.8896.5415.1543,0,.3105-.0356.457-.1113.4912-.2529.6836-.856.4307-1.3472l-9.338-18.1057Z" fill="none" stroke="#000" stroke-linejoin="round" stroke-width="2"/>
  </g>
</svg>