<svg id="emoji" viewBox="0 0 72 72" xmlns="http://www.w3.org/2000/svg">
  <g id="grid">
    <path fill="#b3b3b3" d="M68,4V68H4V4H68m4-4H0V72H72V0h0Z"/>
    <rect x="11" y="10.9583" rx="1.923" ry="1.923" width="50" height="50" fill="none" stroke="#00a5ff" stroke-miterlimit="10" stroke-width="0.1"/>
    <rect x="16" y="4" rx="2.2537" ry="2.2537" width="40" height="64" fill="none" stroke="#00a5ff" stroke-miterlimit="10" stroke-width="0.1"/>
    <rect x="16" y="4" rx="2.2537" ry="2.2537" width="40" height="64" transform="translate(72) rotate(90)" fill="none" stroke="#00a5ff" stroke-miterlimit="10" stroke-width="0.1"/>
    <circle cx="36" cy="36" r="29" fill="none" stroke="#00a5ff" stroke-miterlimit="10" stroke-width="0.1"/>
  </g>
  <g id="color">
    <path d="M46,21c-.5527,0-1,.4478-1,1v18c0,4.9624-4.0371,9-9,9s-9-4.0376-9-9V22c0-.5522-.4473-1-1-1s-1,.4478-1,1v18c0,6.0654,4.9346,11,11,11s11-4.9346,11-11V22c0-.5522-.4473-1-1-1Z"/>
  </g>
  <g id="skin"/>
  <g id="skin-shadow"/>
  <g id="hair"/>
  <g id="line">
    <g id="line-2">
      <circle cx="36" cy="36" r="28" fill="none" stroke="#000" stroke-linejoin="round" stroke-width="2"/>
    </g>
    <path fill="none" stroke="#000" stroke-linejoin="round" stroke-width="2" d="M46,21c-.5527,0-1,.4478-1,1v18c0,4.9624-4.0371,9-9,9s-9-4.0376-9-9V22c0-.5522-.4473-1-1-1s-1,.4478-1,1v18c0,6.0654,4.9346,11,11,11s11-4.9346,11-11V22c0-.5522-.4473-1-1-1Z"/>
  </g>
</svg>
