<svg id="emoji" viewBox="0 0 72 72" xmlns="http://www.w3.org/2000/svg">
  <g id="grid">
    <path fill="#b3b3b3" d="M68,4V68H4V4H68m4-4H0V72H72V0Z"/>
    <path fill="none" stroke="#00a5ff" stroke-miterlimit="10" stroke-width="0.1" d="M12.923,10.9583H59.0769A1.9231,1.9231,0,0,1,61,12.8814V59.0352a1.9231,1.9231,0,0,1-1.9231,1.9231H12.9231A1.9231,1.9231,0,0,1,11,59.0352V12.8813A1.923,1.923,0,0,1,12.923,10.9583Z"/>
    <rect x="16" y="4" rx="2.2537" width="40" height="64" fill="none" stroke="#00a5ff" stroke-miterlimit="10" stroke-width="0.1"/>
    <rect x="16" y="4" rx="2.2537" width="40" height="64" transform="rotate(90 36 36)" fill="none" stroke="#00a5ff" stroke-miterlimit="10" stroke-width="0.1"/>
    <circle cx="36" cy="36" r="29" fill="none" stroke="#00a5ff" stroke-miterlimit="10" stroke-width="0.1"/>
  </g>
  <g id="color">
    <circle cx="31.0752" cy="31.0752" r="15.9318" fill="#1e50a0"/>
    <path fill="#92d3f5" d="M31.1391,25.3086a6.83,6.83,0,0,0-3.1626-.4173,6.8188,6.8188,0,0,0-1.3688-2.88l-.0962-.0884-.0962.0884a7.1959,7.1959,0,0,0-1.3688,2.88,6.83,6.83,0,0,0-3.1626.4173l-.1132.0651.0552.1183a7.1677,7.1677,0,0,0,2.3152,2.1859,6.8412,6.8412,0,0,0-.6005,3.1348l.0268.1278.13-.0158A7.2429,7.2429,0,0,0,26.5115,29.4a7.1092,7.1092,0,0,0,2.7793,1.5246l.13.0158.0269-.1278a6.8058,6.8058,0,0,0-.5654-3.1348,7.1688,7.1688,0,0,0,2.3152-2.1859l.0552-.1183Z"/>
    <circle cx="46" cy="46" r="15" fill="#1e50a0"/>
    <path fill="#92d3f5" d="M45.8609,40.3086a6.83,6.83,0,0,1,3.1626-.4173,6.8188,6.8188,0,0,1,1.3688-2.88l.0962-.0884.0962.0884a7.1959,7.1959,0,0,1,1.3688,2.88,6.83,6.83,0,0,1,3.1626.4173l.1132.0651-.0552.1183a7.1677,7.1677,0,0,1-2.3152,2.1859,6.8412,6.8412,0,0,1,.6005,3.1348l-.0268.1278-.13-.0158A7.2429,7.2429,0,0,1,50.4885,44.4a7.1092,7.1092,0,0,1-2.7793,1.5246l-.13.0158-.0269-.1278a6.8058,6.8058,0,0,1,.5654-3.1348,7.1688,7.1688,0,0,1-2.3152-2.1859l-.0552-.1183Z"/>
  </g>
  <g id="line">
    <path fill="none" stroke="#000" stroke-linecap="round" stroke-linejoin="round" stroke-width="2" d="M31.1391,25.3086a6.83,6.83,0,0,0-3.1626-.4173,6.8188,6.8188,0,0,0-1.3688-2.88l-.0962-.0884-.0962.0884a7.1959,7.1959,0,0,0-1.3688,2.88,6.83,6.83,0,0,0-3.1626.4173l-.1132.0651.0552.1183a7.1677,7.1677,0,0,0,2.3152,2.1859,6.8412,6.8412,0,0,0-.6005,3.1348l.0268.1278.13-.0158A7.2429,7.2429,0,0,0,26.5115,29.4a7.1092,7.1092,0,0,0,2.7793,1.5246l.13.0158.0269-.1278a6.8058,6.8058,0,0,0-.5654-3.1348,7.1688,7.1688,0,0,0,2.3152-2.1859l.0552-.1183Z"/>
    <path fill="none" stroke="#000" stroke-linecap="round" stroke-linejoin="round" stroke-width="2" d="M26.5114,45.3169A15.0024,15.0024,0,1,1,45.5271,27.2485"/>
    <path fill="none" stroke="#000" stroke-linecap="round" stroke-linejoin="round" stroke-width="2" d="M45.8609,40.3086a6.83,6.83,0,0,1,3.1626-.4173,6.8188,6.8188,0,0,1,1.3688-2.88l.0962-.0884.0962.0884a7.1959,7.1959,0,0,1,1.3688,2.88,6.83,6.83,0,0,1,3.1626.4173l.1132.0651-.0552.1183a7.1677,7.1677,0,0,1-2.3152,2.1859,6.8412,6.8412,0,0,1,.6005,3.1348l-.0268.1278-.13-.0158A7.2429,7.2429,0,0,1,50.4885,44.4a7.1092,7.1092,0,0,1-2.7793,1.5246l-.13.0158-.0269-.1278a6.8058,6.8058,0,0,1,.5654-3.1348,7.1688,7.1688,0,0,1-2.3152-2.1859l-.0552-.1183Z"/>
    <circle cx="46" cy="46" r="15" fill="none" stroke="#000" stroke-linecap="round" stroke-linejoin="round" stroke-width="2"/>
  </g>
</svg>
