<svg id="emoji" viewBox="0 0 72 72" xmlns="http://www.w3.org/2000/svg">
  <g id="grid">
    <path fill="#B3B3B3" d="M68 4V68H4V4H68ZM72 0H0V72H72V0Z"/>
    <path fill="none" stroke="#00A5FF" stroke-miterlimit="10" stroke-width="0.1" d="M12.923 10.9583H59.0769C59.5869 10.9583 60.0761 11.1609 60.4367 11.5216C60.7974 11.8822 61 12.3714 61 12.8814V59.0352C61 59.5452 60.7974 60.0344 60.4367 60.3951C60.0761 60.7557 59.5869 60.9583 59.0769 60.9583H12.9231C12.4131 60.9583 11.9239 60.7557 11.5633 60.3951C11.2026 60.0344 11 59.5452 11 59.0352V12.8813C11 12.3713 11.2026 11.8822 11.5632 11.5215C11.9239 11.1609 12.413 10.9583 12.923 10.9583V10.9583Z"/>
    <path fill="none" stroke="#00A5FF" stroke-miterlimit="10" stroke-width="0.1" d="M53.7463 4H18.2537C17.009 4 16 5.00902 16 6.2537V65.7463C16 66.991 17.009 68 18.2537 68H53.7463C54.991 68 56 66.991 56 65.7463V6.2537C56 5.00902 54.991 4 53.7463 4Z"/>
    <path fill="none" stroke="#00A5FF" stroke-miterlimit="10" stroke-width="0.1" d="M68 53.7463V18.2537C68 17.009 66.991 16 65.7463 16L6.2537 16C5.00902 16 4 17.009 4 18.2537V53.7463C4 54.991 5.00902 56 6.2537 56L65.7463 56C66.991 56 68 54.991 68 53.7463Z"/>
    <path fill="none" stroke="#00A5FF" stroke-miterlimit="10" stroke-width="0.1" d="M36 65C52.0163 65 65 52.0163 65 36C65 19.9837 52.0163 7 36 7C19.9837 7 7 19.9837 7 36C7 52.0163 19.9837 65 36 65Z"/>
  </g>
  <g id="color">
    <ellipse cx="36" cy="36" rx="19" ry="28" fill="#6A462F"/>
    <g>
      <path fill="#A57939" fill-rule="evenodd" d="M36 11C36 11 42 22.1929 42 36C42 49.7599 36.0409 60.9235 36.0002 60.9996C36.0289 60.9459 39 55.3702 39 48.5C39 41.5964 36 36 36 36C36 36 33 30.4036 33 23.5C33 16.5964 36 11 36 11Z" clip-rule="evenodd"/>
      <path fill="#A57939" d="M36 11L36.8814 10.5275C36.7072 10.2027 36.3686 10 36 10C35.6314 10 35.2928 10.2027 35.1186 10.5275L36 11ZM36.0002 60.9996L35.1183 60.5283C34.858 61.0153 35.0417 61.6211 35.5287 61.8815C36.0157 62.1418 36.6215 61.9582 36.882 61.4713L36.0002 60.9996ZM43 36C43 28.9574 41.471 22.5975 39.9492 18.0076C39.1874 15.71 38.425 13.8487 37.8512 12.5583C37.5643 11.913 37.3243 11.4099 37.1549 11.066C37.0701 10.894 37.003 10.7617 36.9565 10.6713C36.9332 10.6261 36.915 10.5913 36.9024 10.5673C36.8961 10.5553 36.8911 10.5459 36.8876 10.5393C36.8858 10.536 36.8844 10.5333 36.8834 10.5314C36.8829 10.5304 36.8824 10.5296 36.8821 10.5289C36.8819 10.5286 36.8817 10.5283 36.8817 10.5281C36.8815 10.5278 36.8814 10.5275 36 11C35.1186 11.4725 35.1185 11.4723 35.1185 11.4721C35.1185 11.4722 35.1184 11.4721 35.1184 11.4721C35.1185 11.4721 35.1186 11.4723 35.1188 11.4727C35.1192 11.4735 35.12 11.4749 35.1211 11.4771C35.1233 11.4813 35.127 11.4882 35.132 11.4978C35.1421 11.5169 35.1576 11.5467 35.1783 11.5868C35.2196 11.6671 35.2814 11.7888 35.3608 11.9498C35.5194 12.2719 35.7482 12.7512 36.0238 13.3709C36.575 14.6107 37.3126 16.4106 38.0508 18.637C39.529 23.0954 41 29.2355 41 36H43ZM36.882 61.4713C36.9455 61.3525 43 50.0109 43 36H41C41 49.509 35.1364 60.4944 35.1184 60.5279L36.882 61.4713ZM38 48.5C38 51.7967 37.286 54.7986 36.5613 56.9923C35.8377 59.1829 35.1139 60.5365 35.1183 60.5283L36.8822 61.471C36.9337 61.3745 40 55.6209 40 48.5H38ZM36 36C35.1186 36.4725 35.1185 36.4723 35.1184 36.4721C35.1184 36.472 35.1183 36.4719 35.1183 36.4718C35.1182 36.4717 35.1182 36.4717 35.1182 36.4717C35.1183 36.4718 35.1185 36.4722 35.1189 36.473C35.1197 36.4745 35.1212 36.4773 35.1234 36.4815C35.1278 36.4899 35.1349 36.5035 35.1446 36.5223C35.164 36.5599 35.1935 36.6181 35.2319 36.6959C35.3085 36.8515 35.4201 37.0851 35.555 37.3886C35.825 37.9959 36.1876 38.8804 36.5508 39.9759C37.279 42.1722 38 45.1872 38 48.5H40C40 44.9092 39.221 41.6743 38.4492 39.3465C38.0624 38.1798 37.675 37.2338 37.3825 36.576C37.2362 36.2469 37.1134 35.9895 37.026 35.812C36.9822 35.7233 36.9473 35.6545 36.9228 35.6068C36.9105 35.5829 36.9007 35.5643 36.8938 35.551C36.8903 35.5444 36.8875 35.5391 36.8854 35.5352C36.8844 35.5332 36.8835 35.5316 36.8829 35.5303C36.8825 35.5297 36.8822 35.5292 36.882 35.5287C36.8818 35.5285 36.8817 35.5282 36.8816 35.5281C36.8815 35.5278 36.8814 35.5275 36 36ZM36 36C36.8814 35.5275 36.8815 35.5277 36.8816 35.5279C36.8816 35.528 36.8817 35.5281 36.8817 35.5282C36.8818 35.5283 36.8818 35.5283 36.8818 35.5283C36.8817 35.5282 36.8815 35.5278 36.8811 35.527C36.8803 35.5255 36.8788 35.5227 36.8766 35.5185C36.8722 35.5101 36.8651 35.4965 36.8554 35.4777C36.836 35.4401 36.8065 35.3819 36.7681 35.3041C36.6915 35.1485 36.5799 34.9149 36.445 34.6114C36.175 34.0041 35.8124 33.1196 35.4492 32.0241C34.721 29.8278 34 26.8128 34 23.5H32C32 27.0908 32.779 30.3257 33.5508 32.6535C33.9376 33.8202 34.325 34.7662 34.6175 35.424C34.7638 35.7531 34.8866 36.0105 34.974 36.188C35.0178 36.2767 35.0527 36.3455 35.0772 36.3932C35.0895 36.4171 35.0993 36.4357 35.1062 36.449C35.1097 36.4556 35.1125 36.4609 35.1146 36.4648C35.1156 36.4668 35.1165 36.4684 35.1171 36.4697C35.1175 36.4703 35.1178 36.4708 35.118 36.4713C35.1182 36.4715 35.1183 36.4718 35.1184 36.4719C35.1185 36.4722 35.1186 36.4725 36 36ZM34 23.5C34 20.1872 34.721 17.1722 35.4492 14.9759C35.8124 13.8804 36.175 12.9959 36.445 12.3886C36.5799 12.0851 36.6915 11.8515 36.7681 11.6959C36.8065 11.6181 36.836 11.5599 36.8554 11.5223C36.8651 11.5035 36.8722 11.4899 36.8766 11.4815C36.8788 11.4773 36.8803 11.4745 36.8811 11.473C36.8815 11.4722 36.8817 11.4718 36.8818 11.4717C36.8818 11.4717 36.8818 11.4717 36.8817 11.4718C36.8817 11.4719 36.8816 11.472 36.8816 11.4721C36.8815 11.4723 36.8814 11.4725 36 11C35.1186 10.5275 35.1185 10.5278 35.1184 10.5281C35.1183 10.5282 35.1182 10.5285 35.118 10.5287C35.1178 10.5292 35.1175 10.5297 35.1171 10.5303C35.1165 10.5316 35.1156 10.5332 35.1146 10.5352C35.1125 10.5391 35.1097 10.5444 35.1062 10.551C35.0993 10.5643 35.0895 10.5829 35.0772 10.6068C35.0527 10.6545 35.0178 10.7233 34.974 10.812C34.8866 10.9895 34.7638 11.2469 34.6175 11.576C34.325 12.2338 33.9376 13.1799 33.5508 14.3465C32.779 16.6743 32 19.9092 32 23.5H34Z"/>
    </g>
  </g>
  <g id="line">
    <ellipse cx="36" cy="36" rx="19" ry="28" fill="none" stroke="#000" stroke-width="2"/>
    <path fill="none" stroke="#000" stroke-linecap="round" stroke-linejoin="round" stroke-width="2" d="M36 36C36 36 33 30.4036 33 23.5C33 16.5964 36 11 36 11"/>
    <path fill="none" stroke="#000" stroke-linecap="round" stroke-linejoin="round" stroke-width="2" d="M36 36C36 36 39 41.5964 39 48.5C39 55.4036 36 61 36 61"/>
  </g>
</svg>
