<svg id="emoji" viewBox="0 0 72 72" xmlns="http://www.w3.org/2000/svg">
  <g id="grid">
    <path fill="#b3b3b3" d="M68,4V68H4V4H68m4-4H0V72H72V0Z"/>
    <path fill="none" stroke="#00a5ff" stroke-miterlimit="10" stroke-width="0.1" d="M12.923,10.9583H59.0769A1.9231,1.9231,0,0,1,61,12.8814V59.0352a1.9231,1.9231,0,0,1-1.9231,1.9231H12.9231A1.9231,1.9231,0,0,1,11,59.0352V12.8813A1.923,1.923,0,0,1,12.923,10.9583Z"/>
    <rect x="16" y="4" rx="2.2537" width="40" height="64" fill="none" stroke="#00a5ff" stroke-miterlimit="10" stroke-width="0.1"/>
    <rect x="16" y="4" rx="2.2537" width="40" height="64" transform="translate(72) rotate(90)" fill="none" stroke="#00a5ff" stroke-miterlimit="10" stroke-width="0.1"/>
    <circle cx="36" cy="36" r="29" fill="none" stroke="#00a5ff" stroke-miterlimit="10" stroke-width="0.1"/>
  </g>
  <g id="color">
    <path fill="#f1b31c" stroke="none" d="M33,17h29c2.7617,0,5,2.2393,5,5c0,1.6357-0.7969,3.0752-2.0117,3.9873 c-0.1074,0.0625-0.207,0.1348-0.2988,0.2168C64.2695,26.5703,64,27.1025,64,27.7031V53c0,1.1045-0.8955,2-2,2H33 c1.1045,0,2-0.8955,2-2V27.7031c0-0.6006,0.2695-1.1328,0.6895-1.499c0.0918-0.082,0.1914-0.1543,0.2988-0.2168 C37.2031,25.0752,38,23.6357,38,22C38,19.2393,35.7617,17,33,17z"/>
    <path fill="#fcea2b" stroke="none" d="M33,17c2.7617,0,5,2.2393,5,5c0,1.6357-0.7969,3.0752-2.0117,3.9873 c-0.1074,0.0625-0.207,0.1348-0.2988,0.2168C35.2695,26.5703,35,27.1025,35,27.7031V53c0,1.1045-0.8955,2-2,2H10 c-1.1045,0-2-0.8955-2-2V27.7031c0-0.6006-0.2695-1.1328-0.6895-1.499c-0.0917-0.082-0.1914-0.1543-0.2988-0.2168 C5.7969,25.0752,5,23.6357,5,22c0-2.7607,2.2383-5,5-5H33z"/>
  </g>
  <g id="hair"/>
  <g id="skin"/>
  <g id="skin-shadow"/>
  <g id="line">
    <path fill="none" stroke="#000000" stroke-linecap="round" stroke-linejoin="round" stroke-miterlimit="10" stroke-width="2" d="M33,17c2.7617,0,5,2.2393,5,5c0,1.6357-0.7969,3.0752-2.0117,3.9873c-0.1074,0.0625-0.207,0.1348-0.2988,0.2168 C35.2695,26.5703,35,27.1025,35,27.7031V53c0,1.1045-0.8955,2-2,2"/>
    <path fill="none" stroke="#000000" stroke-linecap="round" stroke-linejoin="round" stroke-miterlimit="10" stroke-width="2" d="M10,17h52c2.7617,0,5,2.2393,5,5c0,1.6357-0.7969,3.0752-2.0117,3.9873c-0.1074,0.0625-0.207,0.1348-0.2988,0.2168 C64.2695,26.5703,64,27.1025,64,27.7031V53c0,1.1045-0.8955,2-2,2H10c-1.1045,0-2-0.8955-2-2V27.7031 c0-0.6006-0.2695-1.1328-0.6895-1.499c-0.0917-0.082-0.1914-0.1543-0.2988-0.2168C5.7969,25.0752,5,23.6357,5,22 C5,19.2393,7.2383,17,10,17z"/>
  </g>
</svg>
