<svg id="emoji" xmlns="http://www.w3.org/2000/svg" viewBox="0 0 72 72">
  <g id="grid">
    <path d="M68,4V68H4V4H68m4-4H0V72H72V0Z" fill="#b3b3b3"/>
    <path d="M12.923,10.9583H59.0769A1.9231,1.9231,0,0,1,61,12.8814V59.0352a1.9231,1.9231,0,0,1-1.9231,1.9231H12.9231A1.9231,1.9231,0,0,1,11,59.0352V12.8813A1.923,1.923,0,0,1,12.923,10.9583Z" fill="none" stroke="#00a5ff" stroke-miterlimit="10" stroke-width="0.1"/>
    <rect x="16" y="4" width="40" height="64" rx="2.2537" fill="none" stroke="#00a5ff" stroke-miterlimit="10" stroke-width="0.1"/>
    <rect x="16" y="4" width="40" height="64" rx="2.2537" transform="translate(72) rotate(90)" fill="none" stroke="#00a5ff" stroke-miterlimit="10" stroke-width="0.1"/>
    <circle cx="36" cy="36" r="29" fill="none" stroke="#00a5ff" stroke-miterlimit="10" stroke-width="0.1"/>
  </g>
  <g id="color">
    <path fill="#f4aa41" d="M52.2637,19.7373c0.4765,0.4775,0.916,0.9775,1.3418,1.4854l2.9004-5.7286 c-11.3252-11.3252-29.6875-11.3252-41.0118,0l2.9004,5.7286c0.4258-0.5079,0.8653-1.0079,1.3418-1.4854 C28.7197,10.7539,43.2803,10.7539,52.2637,19.7373z" stroke="none"/>
    <path fill="#fcea2b" d="M53.6055,21.2227c-0.4258-0.5079-0.8653-1.0079-1.3418-1.4854c-8.9834-8.9834-23.544-8.9834-32.5274,0 c-0.4765,0.4775-0.916,0.9775-1.3418,1.4854L36,56L53.6055,21.2227z" stroke="none"/>
    <circle fill="#ea5a47" cx="31" cy="24" r="5" stroke="none"/>
    <circle fill="#ea5a47" cx="44" cy="24" r="3" stroke="none"/>
    <circle fill="#ea5a47" cx="37" cy="36" r="3" stroke="none"/>
  </g>
  <g id="hair"/>
  <g id="skin"/>
  <g id="skin-shadow"/>
  <g id="line">
    <path fill="none" stroke="#000000" stroke-width="2" stroke-linecap="round" stroke-linejoin="round" stroke-miterlimit="10" d="M52.2637,19.7373c0.4765,0.4775,0.916,0.9775,1.3418,1.4854l2.9004-5.7286c-11.3252-11.3252-29.6875-11.3252-41.0118,0 l2.9004,5.7286c0.4258-0.5079,0.8653-1.0079,1.3418-1.4854C28.7197,10.7539,43.2803,10.7539,52.2637,19.7373z"/>
    <path fill="none" stroke="#000000" stroke-width="2" stroke-linecap="round" stroke-linejoin="round" stroke-miterlimit="10" d="M53.6055,21.2227c-0.4258-0.5079-0.8653-1.0079-1.3418-1.4854c-8.9834-8.9834-23.544-8.9834-32.5274,0 c-0.4765,0.4775-0.916,0.9775-1.3418,1.4854L36,56L53.6055,21.2227z"/>
    <circle fill="none" stroke="#000000" stroke-width="2" stroke-linecap="round" stroke-linejoin="round" stroke-miterlimit="10" cx="31" cy="24" r="5"/>
    <circle fill="none" stroke="#000000" stroke-width="2" stroke-linecap="round" stroke-linejoin="round" stroke-miterlimit="10" cx="44" cy="24" r="3"/>
    <circle fill="none" stroke="#000000" stroke-width="2" stroke-linecap="round" stroke-linejoin="round" stroke-miterlimit="10" cx="37" cy="36" r="3"/>
  </g>
</svg>
