<svg id="emoji" viewBox="0 0 72 72" xmlns="http://www.w3.org/2000/svg">
  <g id="grid">
    <path fill="#b3b3b3" d="M68,4V68H4V4H68m4-4H0V72H72V0Z"/>
    <path fill="none" stroke="#00a5ff" stroke-miterlimit="10" stroke-width="0.1" d="M12.923,10.9583H59.0769A1.9231,1.9231,0,0,1,61,12.8814V59.0352a1.9231,1.9231,0,0,1-1.9231,1.9231H12.9231A1.9231,1.9231,0,0,1,11,59.0352V12.8813A1.923,1.923,0,0,1,12.923,10.9583Z"/>
    <rect x="16" y="4" rx="2.2537" width="40" height="64" fill="none" stroke="#00a5ff" stroke-miterlimit="10" stroke-width="0.1"/>
    <rect x="16" y="4" rx="2.2537" width="40" height="64" transform="rotate(90 36 36)" fill="none" stroke="#00a5ff" stroke-miterlimit="10" stroke-width="0.1"/>
    <circle cx="36" cy="36" r="29" fill="none" stroke="#00a5ff" stroke-miterlimit="10" stroke-width="0.1"/>
  </g>
  <g id="color">
    <polyline fill="#fcea2b" stroke="none" points="27,48.8418 27,9.5234 26,9.5234 26,7 22,7 22,11.5234 21,11.5234 21,48"/>
    <polyline fill="#fcea2b" stroke="none" points="43,46 43,9.5225 42,9.5225 42,5 38,5 38,8.5771 37,8.5225 37,47"/>
    <polyline fill="#fcea2b" stroke="none" points="35,42 35,8.5225 34,7.9971 34,5 30,5 30,9.5234 29,9.5234 29,41"/>
    <polyline fill="#fcea2b" stroke="none" points="51,40 51,11.5225 50,11.5225 50,7 46,7 46,9.5225 45,9.5225 45,40"/>
    <polyline fill="#fcea2b" stroke="none" points="23,41.4209 23,33.6289 22,33.6289 22,15.1055 18,15.1055 18,33.6299 17,33.6299 17,37.1055"/>
    <polyline fill="#fcea2b" stroke="none" points="47,44.5254 47,34.5244 46,34.5244 46,13 42,13 42,34.5791 41,34.5244 41,46.5254"/>
    <polyline fill="#fcea2b" stroke="none" points="39,45.5254 39,35.5244 38,35.5244 38,12 34,12 34,35.5791 33,35.5244 33,47.5254"/>
    <polyline fill="#fcea2b" stroke="none" points="31,46.5254 31,34.5244 30,33.999 30,13 26,13 26,34.5244 25,34.5244 25,44.5244"/>
    <polyline fill="#fcea2b" stroke="none" points="55,37 55,32.6289 54,32.6289 54,15.1055 50,15.1055 50,33.6299 49,33.6299 49,42.6309"/>
    <path fill="#ea5a47" stroke="none" d="M19,59.1973c10,7.7363,23,7.7363,34,0L55,37l-19,3l-19-3L19,59.1973z"/>
  </g>
  <g id="hair"/>
  <g id="skin"/>
  <g id="skin-shadow"/>
  <g id="line">
    <polyline fill="none" stroke="#000000" stroke-linecap="round" stroke-linejoin="round" stroke-miterlimit="10" stroke-width="2" points="42,10 42,5 38,5 38,9"/>
    <polyline fill="none" stroke="#000000" stroke-linecap="round" stroke-linejoin="round" stroke-miterlimit="10" stroke-width="2" points="34,9 34,5 30,5 30,10"/>
    <polyline fill="none" stroke="#000000" stroke-linecap="round" stroke-linejoin="round" stroke-miterlimit="10" stroke-width="2" points="50,12 50,7 46,7 46,10"/>
    <polyline fill="none" stroke="#000000" stroke-linecap="round" stroke-linejoin="round" stroke-miterlimit="10" stroke-width="2" points="26,10 26,7 22,7 22,12"/>
    <path fill="none" stroke="#000000" stroke-linecap="round" stroke-linejoin="round" stroke-miterlimit="10" stroke-width="2" d="M19,59.2637C29,67,42,67,53,59.2637L55,37l-19,3l-19-3L19,59.2637z"/>
    <polyline fill="none" stroke="#000000" stroke-linecap="round" stroke-linejoin="round" stroke-miterlimit="10" stroke-width="2" points="54,33.4736 54,15.1055 50,15.1055 50,34.1045"/>
    <polyline fill="none" stroke="#000000" stroke-linecap="round" stroke-linejoin="round" stroke-miterlimit="10" stroke-width="2" points="30,35.3682 30,13 26,13 26,34.7363"/>
    <polyline fill="none" stroke="#000000" stroke-linecap="round" stroke-linejoin="round" stroke-miterlimit="10" stroke-width="2" points="22,34.1045 22,15.1055 18,15.1055 18,33.4736"/>
    <polyline fill="none" stroke="#000000" stroke-linecap="round" stroke-linejoin="round" stroke-miterlimit="10" stroke-width="2" points="46,34.7363 46,13 42,13 42,35.3682"/>
    <polyline fill="none" stroke="#000000" stroke-linecap="round" stroke-linejoin="round" stroke-miterlimit="10" stroke-width="2" points="38,36 38,12 34,12 34,36"/>
  </g>
</svg>
