<svg id="emoji" xmlns="http://www.w3.org/2000/svg" viewBox="0 0 72 72">
  <g id="grid">
    <path d="M68,4V68H4V4H68m4-4H0V72H72V0Z" fill="#b3b3b3"/>
    <path d="M12.923,10.9583H59.0769A1.9231,1.9231,0,0,1,61,12.8814V59.0352a1.9231,1.9231,0,0,1-1.9231,1.9231H12.9231A1.9231,1.9231,0,0,1,11,59.0352V12.8813A1.923,1.923,0,0,1,12.923,10.9583Z" fill="none" stroke="#00a5ff" stroke-miterlimit="10" stroke-width="0.1"/>
    <rect x="16" y="4" width="40" height="64" rx="2.2537" fill="none" stroke="#00a5ff" stroke-miterlimit="10" stroke-width="0.1"/>
    <rect x="16" y="4" width="40" height="64" rx="2.2537" transform="translate(72) rotate(90)" fill="none" stroke="#00a5ff" stroke-miterlimit="10" stroke-width="0.1"/>
    <circle cx="36" cy="36" r="29" fill="none" stroke="#00a5ff" stroke-miterlimit="10" stroke-width="0.1"/>
  </g>
  <g id="color">
    <path fill="#FFFFFF" d="M7,36c0,16.0166,12.9834,29,29,29s29-12.9834,29-29H7z" stroke="none"/>
    <path fill="#d0cfce" d="M49,36c0,16.0156-4,29-13,29c16.0166,0,29-12.9844,29-29H49z" stroke="none"/>
  </g>
  <g id="hair"/>
  <g id="skin"/>
  <g id="skin-shadow"/>
  <g id="line">
    <path fill="none" stroke="#000000" stroke-width="2" stroke-linecap="round" stroke-linejoin="round" stroke-miterlimit="10" d="M7,36c0,16.0166,12.9834,29,29,29s29-12.9834,29-29H7z"/>
    <line fill="none" stroke="#000000" stroke-width="2" stroke-linecap="round" stroke-linejoin="round" stroke-miterlimit="10" x1="7" y1="25.1406" x2="14" y2="32.1406"/>
    <path fill="none" stroke="#000000" stroke-width="2" stroke-linecap="round" stroke-linejoin="round" stroke-miterlimit="10" d="M29.043,7.8457c0.1015,1.125,0.5605,2.2236,1.4209,3.084c1.9521,1.9512,1.9521,5.1172,0,7.0703 c-1.9522,1.9531-1.9522,5.1191,0,7.0703c1.9521,1.9512,1.9521,5.1172,0,7.0703c1.9521-1.9531,1.9521-5.1191,0-7.0703 c-1.9522-1.9512-1.9522-5.1172,0-7.0703c1.9521-1.9531,1.9521-5.1191,0-7.0703C29.6035,10.0693,29.1445,8.9707,29.043,7.8457"/>
    <path fill="none" stroke="#000000" stroke-width="2" stroke-linecap="round" stroke-linejoin="round" stroke-miterlimit="10" d="M34.5703,7.0361C34.4697,8.4336,34.9316,9.8623,36,10.9297c1.9521,1.9512,1.9521,5.1172,0,7.0703 c-1.9521,1.9531-1.9521,5.1191,0,7.0703c1.9521,1.9512,1.9521,5.1172,0,7.0703c1.9521-1.9531,1.9521-5.1191,0-7.0703 c-1.9521-1.9512-1.9521-5.1172,0-7.0703c1.9521-1.9531,1.9521-5.1191,0-7.0703C34.9316,9.8623,34.4697,8.4336,34.5703,7.0361"/>
    <path fill="none" stroke="#000000" stroke-width="2" stroke-linecap="round" stroke-linejoin="round" stroke-miterlimit="10" d="M40.0107,7.2832c-0.0302,1.3164,0.4483,2.6426,1.4532,3.6465c1.9521,1.9512,1.9521,5.1172,0,7.0703 c-1.9522,1.9531-1.9522,5.1191,0,7.0703c1.9521,1.9512,1.9521,5.1172,0,7.0703c1.9521-1.9531,1.9521-5.1191,0-7.0703 c-1.9522-1.9512-1.9522-5.1172,0-7.0703c1.9521-1.9531,1.9521-5.1191,0-7.0703C40.459,9.9258,39.9805,8.5996,40.0107,7.2832"/>
  </g>
</svg>
