<svg id="emoji" viewBox="0 0 72 72" xmlns="http://www.w3.org/2000/svg">
  <g id="grid">
    <path fill="#b3b3b3" d="M68,4V68H4V4H68m4-4H0V72H72V0Z"/>
    <path fill="none" stroke="#00a5ff" stroke-miterlimit="10" stroke-width="0.1" d="M12.923,10.9583H59.0769A1.9231,1.9231,0,0,1,61,12.8814V59.0352a1.9231,1.9231,0,0,1-1.9231,1.9231H12.9231A1.9231,1.9231,0,0,1,11,59.0352V12.8813A1.923,1.923,0,0,1,12.923,10.9583Z"/>
    <rect x="16" y="4" rx="2.2537" width="40" height="64" fill="none" stroke="#00a5ff" stroke-miterlimit="10" stroke-width="0.1"/>
    <rect x="16" y="4" rx="2.2537" width="40" height="64" transform="rotate(90 36 36)" fill="none" stroke="#00a5ff" stroke-miterlimit="10" stroke-width="0.1"/>
    <circle cx="36" cy="36" r="29" fill="none" stroke="#00a5ff" stroke-miterlimit="10" stroke-width="0.1"/>
  </g>
  <g id="color">
    <path fill="#f4aa41" stroke="none" d="M11.9307,45.9297c-3.9043,3.9043-3.9063,10.2363,0,14.1416c3.9043,3.9053,10.2382,3.9053,14.1425,0.001 l33.9991-34.001c3.9043-3.9063,3.9043-10.2373,0-14.1416c-3.9063-3.9063-10.2373-3.9063-14.1426-0.001L11.9307,45.9297z"/>
  </g>
  <g id="hair"/>
  <g id="skin"/>
  <g id="skin-shadow"/>
  <g id="line">
    <path fill="none" stroke="#000000" stroke-linecap="round" stroke-linejoin="round" stroke-miterlimit="10" stroke-width="2" d="M11.9307,45.9297c-3.9043,3.9043-3.9063,10.2363,0,14.1416c3.9043,3.9053,10.2382,3.9053,14.1425,0.001l33.9991-34.001 c3.9043-3.9063,3.9043-10.2373,0-14.1416c-3.9063-3.9063-10.2373-3.9063-14.1426-0.001L11.9307,45.9297z"/>
    <path fill="none" stroke="#000000" stroke-linecap="round" stroke-linejoin="round" stroke-miterlimit="10" stroke-width="2" d="M45.9297,11.9287c-3.9043,3.9053-3.9043,10.2373,0,14.1426"/>
    <path fill="none" stroke="#000000" stroke-linecap="round" stroke-linejoin="round" stroke-miterlimit="10" stroke-width="2" d="M37.4297,20.4287c-3.9043,3.9053-3.9043,10.2373,0,14.1426"/>
    <path fill="none" stroke="#000000" stroke-linecap="round" stroke-linejoin="round" stroke-miterlimit="10" stroke-width="2" d="M28.9297,28.9287c-3.9033,3.9063-3.9033,10.2383,0,14.1426"/>
    <path fill="none" stroke="#000000" stroke-linecap="round" stroke-linejoin="round" stroke-miterlimit="10" stroke-width="2" d="M20.4307,37.4297c-3.9043,3.9053-3.9043,10.2373,0,14.1426"/>
  </g>
</svg>
