<svg id="emoji" version="1.1" viewBox="0 0 72 72" xmlns="http://www.w3.org/2000/svg">
  <g id="grid">
    <path d="M68,4V68H4V4H68m4-4H0V72H72V0Z" fill="#b3b3b3"/>
    <path d="m12.92 10.96h46.15a1.923 1.923 0 0 1 1.923 1.923v46.15a1.923 1.923 0 0 1-1.923 1.923h-46.15a1.923 1.923 0 0 1-1.923-1.923v-46.15a1.923 1.923 0 0 1 1.923-1.923z" fill="none" stroke="#00a5ff" stroke-miterlimit="10" stroke-width=".1"/>
    <rect x="16" y="4" width="40" height="64" rx="2.254" fill="none" stroke="#00a5ff" stroke-miterlimit="10" stroke-width=".1"/>
    <rect transform="translate(72) rotate(90)" x="16" y="4" width="40" height="64" rx="2.254" fill="none" stroke="#00a5ff" stroke-miterlimit="10" stroke-width=".1"/>
    <circle cx="36" cy="36" r="29" fill="none" stroke="#00a5ff" stroke-miterlimit="10" stroke-width=".1"/>
  </g>
  <g id="color" transform="translate(-40.6 1.488)">
    <circle cx="76.6" cy="34.51" r="28" stroke-miterlimit="10" style="fill:#fff"/>
    <path transform="rotate(20)" d="m104.7 9.505c-0.9101 5.179-3.834 9.783-8.128 12.8-4.294 3.016-9.637 4.193-14.8 3.281l1.2-6.829c2.602-17.43 1.623-12.81 19.5-9.646z" style="fill:#a57939;paint-order:normal;stroke-width:2;stroke:#a57939"/>
    <ellipse transform="matrix(.9397 .342 -.342 .9397 0 0)" cx="80.73" cy="-3.872" rx="8.057" ry="7.993" style="fill:#61462f;paint-order:normal;stroke-width:2;stroke:#61462f"/>
    <ellipse transform="rotate(-10)" cx="61.84" cy="46.93" rx="8.057" ry="7.99" style="fill:#617000;paint-order:normal"/>
    <path d="m62.46 39.8a8.057 7.99 0 0 0 6.682 3.535 8.057 7.99 0 0 0 8.057-7.99 8.057 7.99 0 0 0-8.057-7.99 8.057 7.99 0 0 0-0.6387 0.0293 8.057 7.99 0 0 1 0.09765 0.1367 8.057 7.99 0 0 1 0.4004 0.6914 8.057 7.99 0 0 1 0.3281 0.7305 8.057 7.99 0 0 1 0.2539 0.7578 8.057 7.99 0 0 1 0.1777 0.7793 8.057 7.99 0 0 1 0.0957 0.793 8.057 7.99 0 0 1 0.02148 0.5645 8.057 7.99 0 0 1-0.04102 0.7969 8.057 7.99 0 0 1-0.1211 0.791 8.057 7.99 0 0 1-0.1992 0.7734 8.057 7.99 0 0 1-0.2754 0.75 8.057 7.99 0 0 1-0.3496 0.7187 8.057 7.99 0 0 1-0.4219 0.6816 8.057 7.99 0 0 1-0.4863 0.6367 8.057 7.99 0 0 1-0.5508 0.584 8.057 7.99 0 0 1-0.6035 0.5273 8.057 7.99 0 0 1-0.6562 0.4648 8.057 7.99 0 0 1-0.6973 0.3965 8.057 7.99 0 0 1-0.7363 0.3262 8.057 7.99 0 0 1-0.7637 0.252 8.057 7.99 0 0 1-0.7852 0.1758 8.057 7.99 0 0 1-0.7305 0.08789z" style="fill:#61462f;paint-order:normal"/>
    <ellipse transform="rotate(20)" cx="92.38" cy="4.501" rx="8.057" ry="7.99" style="fill:#61462f;paint-order:normal"/>
    <path d="m47.37 59.44a8.057 7.99 0 0 0 6.682 3.535 8.057 7.99 0 0 0 8.057-7.99 8.057 7.99 0 0 0-8.057-7.99 8.057 7.99 0 0 0-0.6387 0.0293 8.057 7.99 0 0 1 0.09765 0.1367 8.057 7.99 0 0 1 0.4004 0.6914 8.057 7.99 0 0 1 0.3281 0.7305 8.057 7.99 0 0 1 0.2539 0.7578 8.057 7.99 0 0 1 0.1777 0.7793 8.057 7.99 0 0 1 0.0957 0.793 8.057 7.99 0 0 1 0.02148 0.5645 8.057 7.99 0 0 1-0.04102 0.7969 8.057 7.99 0 0 1-0.1211 0.791 8.057 7.99 0 0 1-0.1992 0.7734 8.057 7.99 0 0 1-0.2754 0.75 8.057 7.99 0 0 1-0.3496 0.7187 8.057 7.99 0 0 1-0.4219 0.6816 8.057 7.99 0 0 1-0.4863 0.6367 8.057 7.99 0 0 1-0.5508 0.584 8.057 7.99 0 0 1-0.6035 0.5273 8.057 7.99 0 0 1-0.6562 0.4648 8.057 7.99 0 0 1-0.6973 0.3965 8.057 7.99 0 0 1-0.7363 0.3262 8.057 7.99 0 0 1-0.7637 0.252 8.057 7.99 0 0 1-0.7852 0.1758 8.057 7.99 0 0 1-0.7305 0.08789z" style="fill:none;paint-order:normal"/>
    <path d="m62.16 39.63a8.057 7.99 0 0 0 6.682 3.535 8.057 7.99 0 0 0 8.057-7.99 8.057 7.99 0 0 0-8.057-7.99 8.057 7.99 0 0 0-0.6387 0.0293 8.057 7.99 0 0 1 0.09765 0.1367 8.057 7.99 0 0 1 0.4004 0.6914 8.057 7.99 0 0 1 0.3281 0.7305 8.057 7.99 0 0 1 0.2539 0.7578 8.057 7.99 0 0 1 0.1777 0.7793 8.057 7.99 0 0 1 0.0957 0.793 8.057 7.99 0 0 1 0.02148 0.5645 8.057 7.99 0 0 1-0.04102 0.7969 8.057 7.99 0 0 1-0.1211 0.791 8.057 7.99 0 0 1-0.1992 0.7734 8.057 7.99 0 0 1-0.2754 0.75 8.057 7.99 0 0 1-0.3496 0.7187 8.057 7.99 0 0 1-0.4219 0.6816 8.057 7.99 0 0 1-0.4863 0.6367 8.057 7.99 0 0 1-0.5508 0.584 8.057 7.99 0 0 1-0.6035 0.5273 8.057 7.99 0 0 1-0.6562 0.4648 8.057 7.99 0 0 1-0.6973 0.3965 8.057 7.99 0 0 1-0.7363 0.3262 8.057 7.99 0 0 1-0.7637 0.252 8.057 7.99 0 0 1-0.7852 0.1758 8.057 7.99 0 0 1-0.7305 0.08789z" style="fill:#61462f;paint-order:normal;stroke-linecap:round;stroke-linejoin:round;stroke-miterlimit:0;stroke-opacity:.9895;stroke-width:2;stroke:#090909"/>
  </g>
  <g id="line">
    <path transform="rotate(20)" d="m65.09 24.45 1.937 0.3433c-1.899 10.78-12.15 17.98-22.9 16.08l1.2-6.829" style="fill:none;paint-order:normal;stroke-linecap:round;stroke-opacity:.9895;stroke-width:2;stroke:#000"/>
    <circle cx="36.01" cy="36" r="28" fill="#fff" stroke="#000" stroke-miterlimit="10" stroke-width="2" style="fill:none"/>
    <path transform="rotate(20)" d="m35.56 14.23c-0.3612-0.9076-0.5596-1.897-0.5596-2.932 0-4.413 3.607-7.99 8.057-7.99 3.745-4e-7 6.893 2.534 7.797 5.967" style="fill:none;paint-order:normal;stroke-linecap:round;stroke-opacity:.9895;stroke-width:2;stroke:#000"/>
    <ellipse transform="rotate(-10)" cx="21.44" cy="41.02" rx="8.057" ry="7.99" fill="#617000" stroke="#000" stroke-opacity=".9895" stroke-width="2" style="fill:none" paint-order="normal"/>
    <path d="m21.86 41.28a8.057 7.99 0 0 0 6.682 3.535 8.057 7.99 0 0 0 8.057-7.99 8.057 7.99 0 0 0-8.057-7.99 8.057 7.99 0 0 0-0.6387 0.0293 8.057 7.99 0 0 1 0.09765 0.1367 8.057 7.99 0 0 1 0.4004 0.6914 8.057 7.99 0 0 1 0.3281 0.7305 8.057 7.99 0 0 1 0.2539 0.7578 8.057 7.99 0 0 1 0.1777 0.7793 8.057 7.99 0 0 1 0.0957 0.793 8.057 7.99 0 0 1 0.02148 0.5645 8.057 7.99 0 0 1-0.04102 0.7969 8.057 7.99 0 0 1-0.1211 0.791 8.057 7.99 0 0 1-0.1992 0.7734 8.057 7.99 0 0 1-0.2754 0.75 8.057 7.99 0 0 1-0.3496 0.7187 8.057 7.99 0 0 1-0.4219 0.6816 8.057 7.99 0 0 1-0.4863 0.6367 8.057 7.99 0 0 1-0.5508 0.584 8.057 7.99 0 0 1-0.6035 0.5273 8.057 7.99 0 0 1-0.6562 0.4648 8.057 7.99 0 0 1-0.6973 0.3965 8.057 7.99 0 0 1-0.7363 0.3262 8.057 7.99 0 0 1-0.7637 0.252 8.057 7.99 0 0 1-0.7852 0.1758 8.057 7.99 0 0 1-0.7305 0.08789z" fill="#61462f" stroke-opacity=".9895" stroke-width="2" style="fill:none" paint-order="normal"/>
    <ellipse transform="rotate(20)" cx="54.89" cy="19.65" rx="8.411" ry="8.345" fill="#61462f" stroke="#000" stroke-opacity=".9895" stroke-width="2" style="fill:none" paint-order="normal"/>
  </g>
</svg>
