<svg id="emoji" xmlns="http://www.w3.org/2000/svg" viewBox="0 0 72 72">
  <g id="grid">
    <path d="M68,4V68H4V4H68m4-4H0V72H72V0Z" fill="#b3b3b3"/>
    <path d="M12.923,10.9583H59.0769A1.9231,1.9231,0,0,1,61,12.8814V59.0352a1.9231,1.9231,0,0,1-1.9231,1.9231H12.9231A1.9231,1.9231,0,0,1,11,59.0352V12.8813A1.923,1.923,0,0,1,12.923,10.9583Z" fill="none" stroke="#00a5ff" stroke-miterlimit="10" stroke-width="0.1"/>
    <rect x="16" y="4" width="40" height="64" rx="2.2537" fill="none" stroke="#00a5ff" stroke-miterlimit="10" stroke-width="0.1"/>
    <rect x="16" y="4" width="40" height="64" rx="2.2537" transform="translate(72) rotate(90)" fill="none" stroke="#00a5ff" stroke-miterlimit="10" stroke-width="0.1"/>
    <circle cx="36" cy="36" r="29" fill="none" stroke="#00a5ff" stroke-miterlimit="10" stroke-width="0.1"/>
  </g>
  <g id="color">
    <path d="M47.005,23.6808q-.0165-.1244-.0344-.2486c-.6379-4.42-3.0608-8.2535-7.464-9.6336-4.6024-1.4424-10.3.3264-12.82,4.5724-1.69,2.847-1.5438,6.097-1.7552,9.2756-.1392,2.0924-.2538,4.1868-.3806,6.28l-.91,15.01C23.61,49.45,23.1764,58,23.0915,58h26c-.65-10.7276-1.2233-21.46-1.8875-32.1728C47.16,25.11,47.1,24.3934,47.005,23.6808Z" fill="#fff"/>
    <path d="M47.204,25.8272c-.0445-.7175-.1045-1.4339-.199-2.1464q-.0163-.1244-.0344-.2486c-.6379-4.42-3.0609-8.2536-7.464-9.6336a11.4619,11.4619,0,0,0-5.43-.3033,10.62,10.62,0,0,1,1.27.3033c4.4031,1.38,6.8261,5.2141,7.464,9.6336q.018.1242.0344.2486c.0945.7125.1545,1.4289.199,2.1464C43.7082,36.54,44.2813,47.2724,44.9315,58h4.16C48.4413,47.2724,47.8682,36.54,47.204,25.8272Z" fill="#d0cfce"/>
  </g>
  <g id="line">
    <path d="M47.005,23.6808q-.0165-.1244-.0344-.2486c-.6379-4.42-3.0608-8.2535-7.464-9.6336-4.6024-1.4424-10.3.3264-12.82,4.5724-1.69,2.847-1.5438,6.097-1.7552,9.2756-.1392,2.0924-.2538,4.1868-.3806,6.28l-.91,15.01C23.61,49.45,23.1764,58,23.0915,58h26c-.65-10.7276-1.2233-21.46-1.8875-32.1728C47.16,25.11,47.1,24.3934,47.005,23.6808Z" fill="none" stroke="#000" stroke-linecap="round" stroke-linejoin="round" stroke-width="2"/>
  </g>
  <g id="color-foreground" data-name="Color foreground">
    <circle cx="36.6115" cy="17.5762" r="1.4703"/>
    <circle cx="39.7315" cy="19.6562" r="1.4703"/>
    <circle cx="33.4915" cy="19.6562" r="1.4703"/>
  </g>
</svg>
