<svg id="emoji" viewBox="0 0 72 72" xmlns="http://www.w3.org/2000/svg">
  <g id="grid">
    <path fill="#b3b3b3" d="M68,4V68H4V4H68m4-4H0V72H72V0Z"/>
    <path fill="none" stroke="#00a5ff" stroke-miterlimit="10" stroke-width="0.1" d="M12.923,10.9583H59.0769A1.9231,1.9231,0,0,1,61,12.8814V59.0352a1.9231,1.9231,0,0,1-1.9231,1.9231H12.9231A1.9231,1.9231,0,0,1,11,59.0352V12.8813A1.923,1.923,0,0,1,12.923,10.9583Z"/>
    <rect x="16" y="4" rx="2.2537" width="40" height="64" fill="none" stroke="#00a5ff" stroke-miterlimit="10" stroke-width="0.1"/>
    <rect x="16" y="4" rx="2.2537" width="40" height="64" transform="translate(72) rotate(90)" fill="none" stroke="#00a5ff" stroke-miterlimit="10" stroke-width="0.1"/>
    <circle cx="36" cy="36" r="29" fill="none" stroke="#00a5ff" stroke-miterlimit="10" stroke-width="0.1"/>
  </g>
  <g id="color">
    <path transform="translate(0 .408)" fill="#d0cfce" d="m5 18.09h62v35.82h-62z"/>
    <rect x="9" y="25" width="3" height="3" fill="#9b9b9a" fill-rule="evenodd" stroke="#9b9b9a" stroke-linecap="round" stroke-linejoin="round" stroke-width="2" opacity="0.999"/>
    <rect x="60" y="25" width="3" height="3" fill="#9b9b9a" fill-rule="evenodd" stroke="#9b9b9a" stroke-linecap="round" stroke-linejoin="round" stroke-width="2" opacity="0.999"/>
    <rect x="16.29" y="25" width="3" height="3" fill="#9b9b9a" fill-rule="evenodd" stroke="#9b9b9a" stroke-linecap="round" stroke-linejoin="round" stroke-width="2" opacity="0.999"/>
    <rect x="23.57" y="25" width="3" height="3" fill="#9b9b9a" fill-rule="evenodd" stroke="#9b9b9a" stroke-linecap="round" stroke-linejoin="round" stroke-width="2" opacity="0.999"/>
    <rect x="30.86" y="25" width="3" height="3" fill="#9b9b9a" fill-rule="evenodd" stroke="#9b9b9a" stroke-linecap="round" stroke-linejoin="round" stroke-width="2" opacity="0.999"/>
    <rect x="38.14" y="25" width="3" height="3" fill="#9b9b9a" fill-rule="evenodd" stroke="#9b9b9a" stroke-linecap="round" stroke-linejoin="round" stroke-width="2" opacity="0.999"/>
    <rect x="45.43" y="25" width="3" height="3" fill="#9b9b9a" fill-rule="evenodd" stroke="#9b9b9a" stroke-linecap="round" stroke-linejoin="round" stroke-width="2" opacity="0.999"/>
    <rect x="52.71" y="25" width="3" height="3" fill="#9b9b9a" fill-rule="evenodd" stroke="#9b9b9a" stroke-linecap="round" stroke-linejoin="round" stroke-width="2" opacity="0.999"/>
    <rect x="20.5" y="34.5" width="3" height="3" fill="#9b9b9a" fill-rule="evenodd" stroke="#9b9b9a" stroke-linecap="round" stroke-linejoin="round" stroke-width="2" opacity="0.999"/>
    <rect x="48.5" y="34.5" width="3" height="3" fill="#9b9b9a" fill-rule="evenodd" stroke="#9b9b9a" stroke-linecap="round" stroke-linejoin="round" stroke-width="2" opacity="0.999"/>
    <rect x="9" y="44" width="3" height="3" fill="#9b9b9a" fill-rule="evenodd" stroke="#9b9b9a" stroke-linecap="round" stroke-linejoin="round" stroke-width="2" opacity="0.999"/>
    <rect x="16" y="44" width="3" height="3" fill="#9b9b9a" fill-rule="evenodd" stroke="#9b9b9a" stroke-linecap="round" stroke-linejoin="round" stroke-width="2" opacity="0.999"/>
    <rect x="53" y="44" width="3" height="3" fill="#9b9b9a" fill-rule="evenodd" stroke="#9b9b9a" stroke-linecap="round" stroke-linejoin="round" stroke-width="2" opacity="0.999"/>
    <rect x="60" y="44" width="3" height="3" fill="#9b9b9a" fill-rule="evenodd" stroke="#9b9b9a" stroke-linecap="round" stroke-linejoin="round" stroke-width="2" opacity="0.999"/>
    <rect x="41.5" y="34.5" width="3" height="3" fill="#9b9b9a" fill-rule="evenodd" stroke="#9b9b9a" stroke-linecap="round" stroke-linejoin="round" stroke-width="2" opacity="0.999"/>
    <rect x="34.5" y="34.5" width="3" height="3" fill="#9b9b9a" fill-rule="evenodd" stroke="#9b9b9a" stroke-linecap="round" stroke-linejoin="round" stroke-width="2" opacity="0.999"/>
    <rect x="27.5" y="34.5" width="3" height="3" fill="#9b9b9a" fill-rule="evenodd" stroke="#9b9b9a" stroke-linecap="round" stroke-linejoin="round" stroke-width="2" opacity="0.999"/>
    <rect x="22.93" y="44" width="26.14" height="3" fill="#9b9b9a" fill-rule="evenodd" stroke="#9b9b9a" stroke-linecap="round" stroke-linejoin="round" stroke-width="2" opacity="0.999"/>
    <rect x="9" y="34.5" width="7.5" height="3" fill="#9b9b9a" fill-rule="evenodd" stroke="#9b9b9a" stroke-linecap="round" stroke-linejoin="round" stroke-width="2" opacity="0.999"/>
    <rect x="55.5" y="34.5" width="7.5" height="3" fill="#9b9b9a" fill-rule="evenodd" stroke="#9b9b9a" stroke-linecap="round" stroke-linejoin="round" stroke-width="2" opacity="0.999"/>
  </g>
  <g id="hair"/>
  <g id="skin"/>
  <g id="skin-shadow"/>
  <g id="line">
    <path fill="none" stroke="#000" stroke-linecap="round" stroke-linejoin="round" stroke-miterlimit="10" stroke-width="2" d="m5 18.5h62v35h-62z"/>
    <path fill="none" stroke="#000" stroke-linecap="round" stroke-linejoin="round" stroke-miterlimit="10" stroke-width="2" d="m9 47h3v-3"/>
    <path fill="none" stroke="#000" stroke-linecap="round" stroke-linejoin="round" stroke-miterlimit="10" stroke-width="2" d="m22.93 47h26.14v-3"/>
    <path fill="none" stroke="#000" stroke-linecap="round" stroke-linejoin="round" stroke-miterlimit="10" stroke-width="2" d="m16 47h3v-3"/>
    <path fill="none" stroke="#000" stroke-linecap="round" stroke-linejoin="round" stroke-miterlimit="10" stroke-width="2" d="m53 47h3v-3"/>
    <path fill="none" stroke="#000" stroke-linecap="round" stroke-linejoin="round" stroke-miterlimit="10" stroke-width="2" d="m60 47h3v-3"/>
    <path fill="none" stroke="#000" stroke-linecap="round" stroke-linejoin="round" stroke-miterlimit="10" stroke-width="2" d="m55.5 37.5h7.5v-3"/>
    <path fill="none" stroke="#000" stroke-linecap="round" stroke-linejoin="round" stroke-miterlimit="10" stroke-width="2" d="m16.29 28h3v-3"/>
    <path fill="none" stroke="#000" stroke-linecap="round" stroke-linejoin="round" stroke-miterlimit="10" stroke-width="2" d="m23.57 28h3v-3"/>
    <path fill="none" stroke="#000" stroke-linecap="round" stroke-linejoin="round" stroke-miterlimit="10" stroke-width="2" d="m30.86 28h3v-3"/>
    <path fill="none" stroke="#000" stroke-linecap="round" stroke-linejoin="round" stroke-miterlimit="10" stroke-width="2" d="m38.14 28h3v-3"/>
    <path fill="none" stroke="#000" stroke-linecap="round" stroke-linejoin="round" stroke-miterlimit="10" stroke-width="2" d="m45.43 28h3v-3"/>
    <path fill="none" stroke="#000" stroke-linecap="round" stroke-linejoin="round" stroke-miterlimit="10" stroke-width="2" d="m52.71 28h3v-3"/>
    <path fill="none" stroke="#000" stroke-linecap="round" stroke-linejoin="round" stroke-miterlimit="10" stroke-width="2" d="m60 28h3v-3"/>
    <path fill="none" stroke="#000" stroke-linecap="round" stroke-linejoin="round" stroke-miterlimit="10" stroke-width="2" d="m9 28h3v-3"/>
    <path fill="none" stroke="#000" stroke-linecap="round" stroke-linejoin="round" stroke-miterlimit="10" stroke-width="2" d="m9 37.5h7.5v-3"/>
    <path fill="none" stroke="#000" stroke-linecap="round" stroke-linejoin="round" stroke-miterlimit="10" stroke-width="2" d="m48.5 37.5h3v-3"/>
    <path fill="none" stroke="#000" stroke-linecap="round" stroke-linejoin="round" stroke-miterlimit="10" stroke-width="2" d="m41.5 37.5h3v-3"/>
    <path fill="none" stroke="#000" stroke-linecap="round" stroke-linejoin="round" stroke-miterlimit="10" stroke-width="2" d="m34.5 37.5h3v-3"/>
    <path fill="none" stroke="#000" stroke-linecap="round" stroke-linejoin="round" stroke-miterlimit="10" stroke-width="2" d="m27.5 37.5h3v-3"/>
    <path fill="none" stroke="#000" stroke-linecap="round" stroke-linejoin="round" stroke-miterlimit="10" stroke-width="2" d="m20.5 37.5h3v-3"/>
  </g>
</svg>
