<?xml version="1.0" encoding="UTF-8"?>
<svg id="emoji" version="1.1" viewBox="0 0 72 72" xmlns="http://www.w3.org/2000/svg" xmlns:cc="http://creativecommons.org/ns#" xmlns:dc="http://purl.org/dc/elements/1.1/" xmlns:rdf="http://www.w3.org/1999/02/22-rdf-syntax-ns#">
 <metadata>
  <rdf:RDF>
   <cc:Work rdf:about="">
    <dc:format>image/svg+xml</dc:format>
    <dc:type rdf:resource="http://purl.org/dc/dcmitype/StillImage"/>
    <dc:title/>
   </cc:Work>
  </rdf:RDF>
 </metadata>
 <rect x="6" y="18" width="60" height="36" fill="#fff" fill-rule="evenodd"/>
 <g id="grid">
  <path d="m68 4v64h-64v-64h64m4-4h-72v72h72z" fill="#b3b3b3"/>
  <g fill="none" stroke="#00a5ff" stroke-miterlimit="10" stroke-width=".1">
   <path d="m12.923 10.958h46.154a1.9231 1.9231 0 0 1 1.9231 1.9231v46.154a1.9231 1.9231 0 0 1-1.9231 1.9231h-46.154a1.9231 1.9231 0 0 1-1.9231-1.9231v-46.154a1.923 1.923 0 0 1 1.923-1.923z"/>
   <rect x="16" y="4" width="40" height="64" rx="2.2537"/>
   <rect transform="rotate(90,36,36)" x="16" y="4" width="40" height="64" rx="2.2537"/>
   <circle cx="36" cy="36" r="29"/>
  </g>
 </g>
 <g>
  <g fill="#003da5" stroke-width="1.849">
   <rect x="5" y="17" width="26" height="14.5"/>
   <rect x="5" y="40.5" width="26" height="14.5"/>
   <rect x="41" y="17" width="26" height="14.5"/>
   <rect x="41" y="40.5" width="26" height="14.5"/>
  </g>
  <g fill="#fff">
   <path d="m18.131 27.476c-0.34344 1.0399-1.4497 0.81206-1.4497 0.81206a0.90304 0.90304 0 0 1-0.7247-0.97835 1.6121 1.6121 0 0 0 0.94211 0.30198 0.96196 0.96196 0 0 0 0.52333-0.1356" stroke-width=".15754"/>
   <path d="m18.853 27.476c0.34344 1.0403 1.4656 0.81237 1.4656 0.81237a0.90304 0.90304 0 0 0 0.7247-0.97834 1.6121 1.6121 0 0 1-0.94211 0.30198 0.96183 0.96183 0 0 1-0.52339-0.13564" stroke-width=".15754"/>
   <path d="m17.39 25.837c-0.32002-0.47421-0.86228-0.92628-1.2906-0.92628-0.64998 0-0.82462 0.30406-0.82462 0.59394a2.9563 3.0669 0 0 0 0.19794 0.80932s-1.3123-0.07247-1.3123-1.0871c0-1.0147 0.77669-1.4622 1.6383-1.4622 0.74061 0 1.8902 0.67707 2.19 2.0722" stroke-width=".15468"/>
   <path d="m18.853 27.476c0.11334 0.45494 0.30508 0.47736 0.30508 0.97924 0 0.71233-0.66376 1.0987-0.66376 1.0987l-0.0024 0.0014-0.0024-0.0014s-0.66376-0.38634-0.66376-1.0987c0-0.50173 0.19167-0.52429 0.305-0.97893" stroke-width=".15754"/>
   <path d="m18.132 25.837c-0.28079-1.1189-1.1992-2.0938-1.1992-3.0858 0-1.1711 1.5572-2.8034 1.5572-2.8034l0.0024-0.0025 0.0024 0.0025s1.5572 1.6323 1.5572 2.8034c0 0.99211-0.91848 1.9669-1.1992 3.0858" stroke-width=".15754"/>
   <path d="m19.608 25.837c0.32026-0.47421 0.86291-0.92628 1.2916-0.92628 0.65046 0 0.82524 0.30406 0.82524 0.59394a2.9585 3.0669 0 0 1-0.19809 0.80932s1.3133-0.07247 1.3133-1.0871c0-1.0147-0.7772-1.4622-1.6395-1.4622-0.74115 0-1.9069 0.67715-2.2069 2.0722" stroke-width=".15474"/>
   <g stroke-width=".15754">
    <path d="m15.624 26.314a3.0669 3.0669 0 0 1-0.20534-0.80932c0-0.28988 0.18118-0.59394 0.85546-0.59394 0.44427 0 1.0069 0.45204 1.3389 0.92636h0.24301s-0.51726-1.3374-1.5688-1.3374c0 0-1.347-0.11816-1.347 0.99838 6.3e-5 -1.42e-4 -0.0346 0.81592 0.6838 0.81592z"/>
    <path d="m20.926 27.38a1.6121 1.6121 0 0 1-0.94211 0.30198 0.66852 0.66852 0 0 1-0.53176-0.20627h-0.24644s0.29177 0.50322 0.77256 0.50322c0 0 0.94775 0.03699 0.94775-0.59893z"/>
    <path d="m16.049 27.38a1.6121 1.6121 0 0 0 0.94211 0.30198 0.66855 0.66855 0 0 0 0.53177-0.20627h0.24637s-0.29177 0.50322-0.77256 0.50322c6.3e-5 0-0.94769 0.03699-0.94769-0.59893z"/>
   </g>
   <rect x="16.931" y="26.308" width="3.1705" height=".67188" stroke-width=".095664"/>
  </g>
  <g transform="translate(0 22.5)" fill="#fff">
   <path d="m18.131 27.476c-0.34344 1.0399-1.4497 0.81206-1.4497 0.81206a0.90304 0.90304 0 0 1-0.7247-0.97835 1.6121 1.6121 0 0 0 0.94211 0.30198 0.96196 0.96196 0 0 0 0.52333-0.1356" stroke-width=".15754"/>
   <path d="m18.853 27.476c0.34344 1.0403 1.4656 0.81237 1.4656 0.81237a0.90304 0.90304 0 0 0 0.7247-0.97834 1.6121 1.6121 0 0 1-0.94211 0.30198 0.96183 0.96183 0 0 1-0.52339-0.13564" stroke-width=".15754"/>
   <path d="m17.39 25.837c-0.32002-0.47421-0.86228-0.92628-1.2906-0.92628-0.64998 0-0.82462 0.30406-0.82462 0.59394a2.9563 3.0669 0 0 0 0.19794 0.80932s-1.3123-0.07247-1.3123-1.0871c0-1.0147 0.77669-1.4622 1.6383-1.4622 0.74061 0 1.8902 0.67707 2.19 2.0722" stroke-width=".15468"/>
   <path d="m18.853 27.476c0.11334 0.45494 0.30508 0.47736 0.30508 0.97924 0 0.71233-0.66376 1.0987-0.66376 1.0987l-0.0024 0.0014-0.0024-0.0014s-0.66376-0.38634-0.66376-1.0987c0-0.50173 0.19167-0.52429 0.305-0.97893" stroke-width=".15754"/>
   <path d="m18.132 25.837c-0.28079-1.1189-1.1992-2.0938-1.1992-3.0858 0-1.1711 1.5572-2.8034 1.5572-2.8034l0.0024-0.0025 0.0024 0.0025s1.5572 1.6323 1.5572 2.8034c0 0.99211-0.91848 1.9669-1.1992 3.0858" stroke-width=".15754"/>
   <path d="m19.608 25.837c0.32026-0.47421 0.86291-0.92628 1.2916-0.92628 0.65046 0 0.82524 0.30406 0.82524 0.59394a2.9585 3.0669 0 0 1-0.19809 0.80932s1.3133-0.07247 1.3133-1.0871c0-1.0147-0.7772-1.4622-1.6395-1.4622-0.74115 0-1.9069 0.67715-2.2069 2.0722" stroke-width=".15474"/>
   <g stroke-width=".15754">
    <path d="m15.624 26.314a3.0669 3.0669 0 0 1-0.20534-0.80932c0-0.28988 0.18118-0.59394 0.85546-0.59394 0.44427 0 1.0069 0.45204 1.3389 0.92636h0.24301s-0.51726-1.3374-1.5688-1.3374c0 0-1.347-0.11816-1.347 0.99838 6.3e-5 -1.42e-4 -0.0346 0.81592 0.6838 0.81592z"/>
    <path d="m20.926 27.38a1.6121 1.6121 0 0 1-0.94211 0.30198 0.66852 0.66852 0 0 1-0.53176-0.20627h-0.24644s0.29177 0.50322 0.77256 0.50322c0 0 0.94775 0.03699 0.94775-0.59893z"/>
    <path d="m16.049 27.38a1.6121 1.6121 0 0 0 0.94211 0.30198 0.66855 0.66855 0 0 0 0.53177-0.20627h0.24637s-0.29177 0.50322-0.77256 0.50322c6.3e-5 0-0.94769 0.03699-0.94769-0.59893z"/>
   </g>
   <rect x="16.931" y="26.308" width="3.1705" height=".67188" stroke-width=".095664"/>
  </g>
  <g transform="translate(35)" fill="#fff">
   <path d="m18.131 27.476c-0.34344 1.0399-1.4497 0.81206-1.4497 0.81206a0.90304 0.90304 0 0 1-0.7247-0.97835 1.6121 1.6121 0 0 0 0.94211 0.30198 0.96196 0.96196 0 0 0 0.52333-0.1356" stroke-width=".15754"/>
   <path d="m18.853 27.476c0.34344 1.0403 1.4656 0.81237 1.4656 0.81237a0.90304 0.90304 0 0 0 0.7247-0.97834 1.6121 1.6121 0 0 1-0.94211 0.30198 0.96183 0.96183 0 0 1-0.52339-0.13564" stroke-width=".15754"/>
   <path d="m17.39 25.837c-0.32002-0.47421-0.86228-0.92628-1.2906-0.92628-0.64998 0-0.82462 0.30406-0.82462 0.59394a2.9563 3.0669 0 0 0 0.19794 0.80932s-1.3123-0.07247-1.3123-1.0871c0-1.0147 0.77669-1.4622 1.6383-1.4622 0.74061 0 1.8902 0.67707 2.19 2.0722" stroke-width=".15468"/>
   <path d="m18.853 27.476c0.11334 0.45494 0.30508 0.47736 0.30508 0.97924 0 0.71233-0.66376 1.0987-0.66376 1.0987l-0.0024 0.0014-0.0024-0.0014s-0.66376-0.38634-0.66376-1.0987c0-0.50173 0.19167-0.52429 0.305-0.97893" stroke-width=".15754"/>
   <path d="m18.132 25.837c-0.28079-1.1189-1.1992-2.0938-1.1992-3.0858 0-1.1711 1.5572-2.8034 1.5572-2.8034l0.0024-0.0025 0.0024 0.0025s1.5572 1.6323 1.5572 2.8034c0 0.99211-0.91848 1.9669-1.1992 3.0858" stroke-width=".15754"/>
   <path d="m19.608 25.837c0.32026-0.47421 0.86291-0.92628 1.2916-0.92628 0.65046 0 0.82524 0.30406 0.82524 0.59394a2.9585 3.0669 0 0 1-0.19809 0.80932s1.3133-0.07247 1.3133-1.0871c0-1.0147-0.7772-1.4622-1.6395-1.4622-0.74115 0-1.9069 0.67715-2.2069 2.0722" stroke-width=".15474"/>
   <g stroke-width=".15754">
    <path d="m15.624 26.314a3.0669 3.0669 0 0 1-0.20534-0.80932c0-0.28988 0.18118-0.59394 0.85546-0.59394 0.44427 0 1.0069 0.45204 1.3389 0.92636h0.24301s-0.51726-1.3374-1.5688-1.3374c0 0-1.347-0.11816-1.347 0.99838 6.3e-5 -1.42e-4 -0.0346 0.81592 0.6838 0.81592z"/>
    <path d="m20.926 27.38a1.6121 1.6121 0 0 1-0.94211 0.30198 0.66852 0.66852 0 0 1-0.53176-0.20627h-0.24644s0.29177 0.50322 0.77256 0.50322c0 0 0.94775 0.03699 0.94775-0.59893z"/>
    <path d="m16.049 27.38a1.6121 1.6121 0 0 0 0.94211 0.30198 0.66855 0.66855 0 0 0 0.53177-0.20627h0.24637s-0.29177 0.50322-0.77256 0.50322c6.3e-5 0-0.94769 0.03699-0.94769-0.59893z"/>
   </g>
   <rect x="16.931" y="26.308" width="3.1705" height=".67188" stroke-width=".095664"/>
  </g>
  <g transform="translate(35 22.5)" fill="#fff">
   <path d="m18.131 27.476c-0.34344 1.0399-1.4497 0.81206-1.4497 0.81206a0.90304 0.90304 0 0 1-0.7247-0.97835 1.6121 1.6121 0 0 0 0.94211 0.30198 0.96196 0.96196 0 0 0 0.52333-0.1356" stroke-width=".15754"/>
   <path d="m18.853 27.476c0.34344 1.0403 1.4656 0.81237 1.4656 0.81237a0.90304 0.90304 0 0 0 0.7247-0.97834 1.6121 1.6121 0 0 1-0.94211 0.30198 0.96183 0.96183 0 0 1-0.52339-0.13564" stroke-width=".15754"/>
   <path d="m17.39 25.837c-0.32002-0.47421-0.86228-0.92628-1.2906-0.92628-0.64998 0-0.82462 0.30406-0.82462 0.59394a2.9563 3.0669 0 0 0 0.19794 0.80932s-1.3123-0.07247-1.3123-1.0871c0-1.0147 0.77669-1.4622 1.6383-1.4622 0.74061 0 1.8902 0.67707 2.19 2.0722" stroke-width=".15468"/>
   <path d="m18.853 27.476c0.11334 0.45494 0.30508 0.47736 0.30508 0.97924 0 0.71233-0.66376 1.0987-0.66376 1.0987l-0.0024 0.0014-0.0024-0.0014s-0.66376-0.38634-0.66376-1.0987c0-0.50173 0.19167-0.52429 0.305-0.97893" stroke-width=".15754"/>
   <path d="m18.132 25.837c-0.28079-1.1189-1.1992-2.0938-1.1992-3.0858 0-1.1711 1.5572-2.8034 1.5572-2.8034l0.0024-0.0025 0.0024 0.0025s1.5572 1.6323 1.5572 2.8034c0 0.99211-0.91848 1.9669-1.1992 3.0858" stroke-width=".15754"/>
   <path d="m19.608 25.837c0.32026-0.47421 0.86291-0.92628 1.2916-0.92628 0.65046 0 0.82524 0.30406 0.82524 0.59394a2.9585 3.0669 0 0 1-0.19809 0.80932s1.3133-0.07247 1.3133-1.0871c0-1.0147-0.7772-1.4622-1.6395-1.4622-0.74115 0-1.9069 0.67715-2.2069 2.0722" stroke-width=".15474"/>
   <g stroke-width=".15754">
    <path d="m15.624 26.314a3.0669 3.0669 0 0 1-0.20534-0.80932c0-0.28988 0.18118-0.59394 0.85546-0.59394 0.44427 0 1.0069 0.45204 1.3389 0.92636h0.24301s-0.51726-1.3374-1.5688-1.3374c0 0-1.347-0.11816-1.347 0.99838 6.3e-5 -1.42e-4 -0.0346 0.81592 0.6838 0.81592z"/>
    <path d="m20.926 27.38a1.6121 1.6121 0 0 1-0.94211 0.30198 0.66852 0.66852 0 0 1-0.53176-0.20627h-0.24644s0.29177 0.50322 0.77256 0.50322c0 0 0.94775 0.03699 0.94775-0.59893z"/>
    <path d="m16.049 27.38a1.6121 1.6121 0 0 0 0.94211 0.30198 0.66855 0.66855 0 0 0 0.53177-0.20627h0.24637s-0.29177 0.50322-0.77256 0.50322c6.3e-5 0-0.94769 0.03699-0.94769-0.59893z"/>
   </g>
   <rect x="16.931" y="26.308" width="3.1705" height=".67188" stroke-width=".095664"/>
  </g>
 </g>
 <path d="m67 17h-62v38h62z" fill="none" stroke="#000" stroke-linecap="round" stroke-linejoin="round" stroke-width="2"/>
</svg>
