<?xml version="1.0" encoding="UTF-8" standalone="no"?>
<!DOCTYPE svg PUBLIC "-//W3C//DTD SVG 1.1//EN" "http://www.w3.org/Graphics/SVG/1.1/DTD/svg11.dtd">
<svg width="100%" height="100%" viewBox="0 0 72 72" version="1.1" xmlns="http://www.w3.org/2000/svg" xmlns:xlink="http://www.w3.org/1999/xlink" xml:space="preserve" xmlns:serif="http://www.serif.com/" style="fill-rule:evenodd;clip-rule:evenodd;stroke-miterlimit:10;">
    <g id="grid">
        <path d="M68,4L68,68L4,68L4,4L68,4M72,0L0,0L0,72L72,72L72,0Z" style="fill:rgb(179,179,179);fill-rule:nonzero;"/>
        <path d="M12.923,10.958L59.077,10.958C60.132,10.958 61,11.826 61,12.881L61,59.035C61,60.09 60.132,60.958 59.077,60.958L12.923,60.958C11.868,60.958 11,60.09 11,59.035L11,12.881C11,11.826 11.868,10.958 12.923,10.958Z" style="fill:none;fill-rule:nonzero;stroke:rgb(0,165,255);stroke-width:0.1px;"/>
        <path d="M56,6.254L56,65.746C56,66.99 54.99,68 53.746,68L18.254,68C17.01,68 16,66.99 16,65.746L16,6.254C16,5.01 17.01,4 18.254,4L53.746,4C54.99,4 56,5.01 56,6.254Z" style="fill:none;stroke:rgb(0,165,255);stroke-width:0.1px;"/>
        <g transform="matrix(0,1,-1,0,72,0)">
            <path d="M56,6.254L56,65.746C56,66.99 54.99,68 53.746,68L18.254,68C17.01,68 16,66.99 16,65.746L16,6.254C16,5.01 17.01,4 18.254,4L53.746,4C54.99,4 56,5.01 56,6.254Z" style="fill:none;stroke:rgb(0,165,255);stroke-width:0.1px;"/>
        </g>
        <circle cx="36" cy="36" r="29" style="fill:none;stroke:rgb(0,165,255);stroke-width:0.1px;"/>
    </g>
    <g id="color">
        <rect x="5" y="17" width="62" height="38" style="fill:rgb(255,216,0);"/>
        <rect x="5" y="17" width="21" height="38" style="fill:rgb(33,60,121);"/>
        <rect x="46" y="17" width="21" height="38" style="fill:rgb(33,60,121);"/>
        <g>
            <g id="Forma-1" serif:id="Forma 1" transform="matrix(1,0,0,1,0.5,-0.405)">
                <rect x="28" y="35" width="15" height="2.81" style="fill:rgb(219,36,22);"/>
            </g>
            <g id="Forma-1-copy" serif:id="Forma 1 copy" transform="matrix(1,0,0,1,0.595,-0.5)">
                <rect x="34" y="29" width="2.81" height="15" style="fill:rgb(219,36,22);"/>
            </g>
        </g>
    </g>
    <g id="line">
        <rect x="5" y="17" width="62" height="38" style="fill:none;stroke:black;stroke-width:2px;stroke-linecap:round;stroke-linejoin:round;stroke-miterlimit:4;"/>
    </g>
    <g transform="matrix(0,-1,1.202797,0,-7.835045,71.976537)">
        <rect x="35.394" y="30.842" width="1.165" height="11.104" style="fill:rgb(235,235,235);"/>
    </g>
    <g transform="matrix(1,-0,-0,1.202797,0.023463,-7.774549)">
        <rect x="35.394" y="30.842" width="1.165" height="11.104" style="fill:rgb(235,235,235);"/>
    </g>
    <g transform="matrix(1,0,0,1,0,-0.241328)">
        <rect x="28.495" y="33.921" width="0.767" height="4.641" style="fill:rgb(219,36,22);"/>
    </g>
    <g transform="matrix(1,0,0,1,14.23871,-0.241328)">
        <rect x="28.495" y="33.921" width="0.767" height="4.641" style="fill:rgb(219,36,22);"/>
    </g>
    <g transform="matrix(0,1,-1,0,72.241328,0.005455)">
        <rect x="28.495" y="33.921" width="0.767" height="4.641" style="fill:rgb(219,36,22);"/>
    </g>
    <g transform="matrix(0,-1,1,0,-0.241328,71.994545)">
        <rect x="28.495" y="33.921" width="0.767" height="4.641" style="fill:rgb(219,36,22);"/>
    </g>
</svg>
