<svg id="emoji" viewBox="0 0 72 72" version="1.1" xmlns="http://www.w3.org/2000/svg">
  <g id="grid">
    <path fill="#b3b3b3" d="M68,4V68H4V4H68m4-4H0V72H72V0Z"/>
    <path fill="none" stroke="#00a5ff" stroke-miterlimit="10" stroke-width="0.1" d="m12.92 10.96h46.15a1.923 1.923 0 0 1 1.923 1.923v46.15a1.923 1.923 0 0 1-1.923 1.923h-46.15a1.923 1.923 0 0 1-1.923-1.923v-46.15a1.923 1.923 0 0 1 1.923-1.923z"/>
    <rect x="16" y="4" rx="2.254" ry="2.254" width="40" height="64" fill="none" stroke="#00a5ff" stroke-miterlimit="10" stroke-width="0.1"/>
    <rect x="16" y="4" rx="2.254" ry="2.254" width="40" height="64" transform="translate(72) rotate(90)" fill="none" stroke="#00a5ff" stroke-miterlimit="10" stroke-width="0.1"/>
    <circle cx="36" cy="36" r="29" fill="none" stroke="#00a5ff" stroke-miterlimit="10" stroke-width="0.1"/>
  </g>
  <g id="line-supplement" stroke="#000" stroke-linecap="round" stroke-linejoin="round" stroke-width="1.03">
    <path transform="matrix(.8291 0 0 .8291 16.47 12.14)" d="m36 31.25 1.234 3.551 3.759 0.07667-2.996 2.271 1.089 3.598-3.085-2.148-3.085 2.147 1.089-3.598-2.996-2.272 3.758-0.07657z"/>
    <path transform="matrix(.8291 0 0 .8291 6.147 12.13)" d="m36 31.25 1.234 3.551 3.759 0.07667-2.996 2.271 1.089 3.598-3.085-2.148-3.085 2.147 1.089-3.598-2.996-2.272 3.758-0.07657z"/>
    <path transform="matrix(.8291 0 0 .8291 -4.176 12.13)" d="m36 31.25 1.234 3.551 3.759 0.07667-2.996 2.271 1.089 3.598-3.085-2.148-3.085 2.147 1.089-3.598-2.996-2.272 3.758-0.07657z"/>
    <path transform="matrix(.8291 0 0 .8291 21.64 1.116)" d="m36 31.25 1.234 3.551 3.759 0.07667-2.996 2.271 1.089 3.598-3.085-2.148-3.085 2.147 1.089-3.598-2.996-2.272 3.758-0.07657z"/>
    <path transform="matrix(.8291 0 0 .8291 11.31 1.113)" d="m36 31.25 1.234 3.551 3.759 0.07667-2.996 2.271 1.089 3.598-3.085-2.148-3.085 2.147 1.089-3.598-2.996-2.272 3.758-0.07657z"/>
    <path transform="matrix(.8291 0 0 .8291 .9906 1.11)" d="m36 31.25 1.234 3.551 3.759 0.07667-2.996 2.271 1.089 3.598-3.085-2.148-3.085 2.147 1.089-3.598-2.996-2.272 3.758-0.07657z"/>
    <path transform="matrix(.8291 0 0 .8291 -9.332 1.107)" d="m36 31.25 1.234 3.551 3.759 0.07667-2.996 2.271 1.089 3.598-3.085-2.148-3.085 2.147 1.089-3.598-2.996-2.272 3.758-0.07657z"/>
  </g>
  <g id="color" stroke-linecap="round" stroke-linejoin="round">
    <rect x="5" y="17" width="62" height="38" fill="#d22f27" stroke="#000" stroke-width="2"/>
    <path transform="matrix(.8291 0 0 .8291 16.47 12.14)" fill="#fff" stroke="#fff" stroke-width="1.03" d="m36 31.25 1.234 3.551 3.759 0.07667-2.996 2.271 1.089 3.598-3.085-2.148-3.085 2.147 1.089-3.598-2.996-2.272 3.758-0.07657z"/>
    <path transform="matrix(.8291 0 0 .8291 6.147 12.13)" fill="#fff" stroke="#fff" stroke-width="1.03" d="m36 31.25 1.234 3.551 3.759 0.07667-2.996 2.271 1.089 3.598-3.085-2.148-3.085 2.147 1.089-3.598-2.996-2.272 3.758-0.07657z"/>
    <path transform="matrix(.8291 0 0 .8291 -4.176 12.13)" fill="#fff" stroke="#fff" stroke-width="1.03" d="m36 31.25 1.234 3.551 3.759 0.07667-2.996 2.271 1.089 3.598-3.085-2.148-3.085 2.147 1.089-3.598-2.996-2.272 3.758-0.07657z"/>
    <path transform="matrix(.8291 0 0 .8291 21.64 1.116)" fill="#fff" stroke="#fff" stroke-width="1.03" d="m36 31.25 1.234 3.551 3.759 0.07667-2.996 2.271 1.089 3.598-3.085-2.148-3.085 2.147 1.089-3.598-2.996-2.272 3.758-0.07657z"/>
    <path transform="matrix(.8291 0 0 .8291 11.31 1.113)" fill="#fff" stroke="#fff" stroke-width="1.03" d="m36 31.25 1.234 3.551 3.759 0.07667-2.996 2.271 1.089 3.598-3.085-2.148-3.085 2.147 1.089-3.598-2.996-2.272 3.758-0.07657z"/>
    <path transform="matrix(.8291 0 0 .8291 .9906 1.11)" fill="#fff" stroke="#fff" stroke-width="1.03" d="m36 31.25 1.234 3.551 3.759 0.07667-2.996 2.271 1.089 3.598-3.085-2.148-3.085 2.147 1.089-3.598-2.996-2.272 3.758-0.07657z"/>
    <path transform="matrix(.8291 0 0 .8291 -9.332 1.107)" fill="#fff" stroke="#fff" stroke-width="1.03" d="m36 31.25 1.234 3.551 3.759 0.07667-2.996 2.271 1.089 3.598-3.085-2.148-3.085 2.147 1.089-3.598-2.996-2.272 3.758-0.07657z"/>
  </g>
  <g id="line">
    <rect x="5" y="17" width="62" height="38" fill="none" stroke="#000" stroke-linecap="round" stroke-linejoin="round" stroke-width="2"/>
  </g>
</svg>
