<svg id="emoji" viewBox="0 0 72 72" xmlns="http://www.w3.org/2000/svg">
  <g id="grid">
    <path d="m68 4v64h-64v-64h64m4-4h-72v72h72z" style="fill:#b3b3b3"/>
    <path d="m12.92 10.96h46.15a1.923 1.923 0 0 1 1.923 1.923v46.15a1.923 1.923 0 0 1-1.923 1.923h-46.15a1.923 1.923 0 0 1-1.923-1.923v-46.15a1.923 1.923 0 0 1 1.923-1.923z" stroke-miterlimit="10" style="fill:none;stroke-miterlimit:10;stroke-width:.1;stroke:#00a5ff"/>
    <rect x="16" y="4" width="40" height="64" rx="2.254" ry="2.254" stroke-miterlimit="10" style="fill:none;stroke-miterlimit:10;stroke-width:.1;stroke:#00a5ff"/>
    <rect transform="rotate(90,36,36)" x="16" y="4" width="40" height="64" rx="2.254" ry="2.254" stroke-miterlimit="10" style="fill:none;stroke-miterlimit:10;stroke-width:.1;stroke:#00a5ff"/>
    <circle cx="36" cy="36" r="29" stroke-miterlimit="10" style="fill:none;stroke-miterlimit:10;stroke-width:.1;stroke:#00a5ff"/>
  </g>
  <g>
    <rect x="5" y="17" width="62" height="38" style="fill:#1e50a0"/>
    <g transform="matrix(.07028 0 0 .07028 14.77 14.95)" style="fill:#fcea2b">
      <path d="m272.6 297.1c2.564 4.686 6.176 8.642 10.49 11.5l-1.69 158.8c-1.948 0.3611-14.94 13.61-15.5 15.82-0.2331 1.095-0.4083 2.252-0.4083 3.347 0 7.426 5.769 13.45 12.94 13.45 3.728 0 7.341-1.704 9.789-4.686 3.263 3.043 7.457 4.686 11.77 4.686 4.371 0 8.565-1.643 11.77-4.686 2.447 2.982 6.06 4.686 9.789 4.686 7.166 0 12.94-6.025 12.94-13.45 0-1.095-0.1154-2.252-0.4072-3.286-0.3232-1.369-13.98-15.6-15.5-15.89l-1.69-158.8c4.371-2.921 7.983-6.878 10.55-11.5l88.45-0.7309c0.6415 5.447 11.64 20.09 17.07 20.09 5.768 0 10.43-4.93 10.43-10.9 0-3.53-1.573-6.756-4.312-8.825-2.39-1.826-1.166-5.783 1.806-5.783 1.049 0 2.039 0.5481 2.622 1.522 0.9325 0.2431 1.865 0.365 2.798 0.365 4.194 0 7.924-2.556 9.614-6.512 0.6985-1.765 1.107-3.652 1.107-5.539s-0.4081-3.713-1.107-5.478c-1.69-3.956-5.419-6.573-9.614-6.573-0.9325 0-1.865 0.1828-2.798 0.426-1.631 2.739-5.651 1.522-5.651-1.704 0-0.9741 0.4662-1.948 1.224-2.557 2.739-2.069 4.312-5.356 4.312-8.825 0-6.025-4.662-10.9-10.43-10.9-5.426 0-16.43 14.66-17.07 20.09l-88.44-0.7618c-2.786-5.115-6.813-9.36-11.71-12.28l-0.8271-109.3c4.945-0.635 19.17-12.67 19.17-17.83 0-5.965-4.662-10.9-10.43-10.9-3.321 0-6.467 1.705-8.39 4.504-1.748 2.496-5.535 1.218-5.535-1.886 0-1.096 0.5244-2.131 1.399-2.678 0.2912-0.974 0.4072-2.009 0.4072-2.983 0-4.321-2.447-8.277-6.235-9.982-1.689-0.791-3.496-1.156-5.302-1.156-1.806 0-3.612 0.365-5.244 1.156-3.845 1.705-6.293 5.661-6.293 9.982 0 1.035 0.1175 2.009 0.4083 2.983 0.8746 0.547 1.457 1.582 1.457 2.678 0 1.765-1.399 3.225-3.088 3.225-0.9906 0-1.865-0.486-2.447-1.339-1.981-2.799-5.127-4.504-8.449-4.504-5.769 0-10.43 4.93-10.43 10.9 0 5.663 14.03 17.25 19.23 17.83l-0.8735 109.3c-4.836 2.921-8.856 7.121-11.65 12.23l-88.51 0.7921c-0.6033-5.126-12.17-20.09-17.07-20.09-5.769 0-10.43 4.87-10.43 10.9 0 3.469 1.631 6.756 4.312 8.825 0.7575 0.609 1.224 1.583 1.224 2.557 0 1.765-1.341 3.226-3.03 3.226-1.05 0-2.039-0.5481-2.564-1.522-0.9316-0.2431-1.922-0.426-2.855-0.426-4.136 0-7.924 2.617-9.556 6.573-0.7574 1.704-1.107 3.591-1.107 5.478 0 1.948 0.3492 3.774 1.107 5.539 1.632 3.956 5.419 6.512 9.556 6.512 0.9326 0 1.923-0.1219 2.855-0.426 1.632-2.678 5.594-1.461 5.594 1.704 0 1.035-0.4663 2.009-1.224 2.618-2.68 2.008-4.312 5.295-4.312 8.825 0 5.965 4.661 10.9 10.43 10.9 4.88 0 16.47-14.99 17.07-20.09l88.51 0.7309-4e-5 2e-5z" style="fill:#fcea2b"/>
    </g>
  </g>
  <g id="line">
    <rect x="5" y="17" width="62" height="38" fill="none" stroke="#000" stroke-linecap="round" stroke-linejoin="round" stroke-width="2"/>
  </g>
</svg>
