<svg id="emoji" viewBox="0 0 72 72" xmlns="http://www.w3.org/2000/svg">
  <g id="grid">
    <path fill="#b3b3b3" d="M68,4V68H4V4H68m4-4H0V72H72V0Z"/>
    <path fill="none" stroke="#00a5ff" stroke-miterlimit="10" stroke-width="0.1" d="M12.923,10.9583H59.0769A1.9231,1.9231,0,0,1,61,12.8814V59.0352a1.9231,1.9231,0,0,1-1.9231,1.9231H12.9231A1.9231,1.9231,0,0,1,11,59.0352V12.8813A1.923,1.923,0,0,1,12.923,10.9583Z"/>
    <rect x="16" y="4" rx="2.2537" ry="2.2537" width="40" height="64" fill="none" stroke="#00a5ff" stroke-miterlimit="10" stroke-width="0.1"/>
    <rect x="16" y="4" rx="2.2537" ry="2.2537" width="40" height="64" transform="translate(72) rotate(90)" fill="none" stroke="#00a5ff" stroke-miterlimit="10" stroke-width="0.1"/>
    <circle cx="36" cy="36" r="29" fill="none" stroke="#00a5ff" stroke-miterlimit="10" stroke-width="0.1"/>
  </g>
  <g id="color">
    <defs>
      <clipPath id="ontario-shield">
        <path d="M44,27 H63 V46 Q53.5,53 44,46 Z"/>
      </clipPath>
    </defs>
    <rect x="5" y="17" width="62" height="38" fill="#d22f27"/>
    <rect x="5" y="17" width="31" height="19" fill="#1e50a0"/>
    <polygon fill="#fff" points="9.887 18 6 18 6 20.332 32.113 36 36 36 36 33.668 9.887 18"/>
    <polygon fill="#fff" points="36 20.332 36 18 32.113 18 6 33.668 6 36 9.887 36 36 20.332"/>
    <rect x="6" y="24" width="30" height="6" fill="#fff"/>
    <rect x="18" y="18" width="6" height="18" fill="#fff"/>
    <rect x="20" y="18" width="2" height="18" fill="#d22f27"/>
    <rect x="6" y="26" width="30" height="2" fill="#d22f27"/>
    <polygon fill="#d22f27" points="36 33.668 29.887 30 26 30 36 36 36 33.668"/>
    <polygon fill="#d22f27" points="36 18 32.113 18 24 22.868 24 24 26 24 36 18"/>
    <polygon fill="#d22f27" points="6 20.332 12.113 24 16 24 6 18 6 20.332"/>
    <polygon fill="#d22f27" points="6 36 9.887 36 18 31.132 18 30 16 30 6 36"/>
    <g clip-path="url(#ontario-shield)">
      <rect x="44" y="27" width="19" height="7" fill="#fff"/>
      <polygon fill="#d22f27" points="63,29.5 55,29.5 55,27 52,27 52,29.5 44,29.5 44,31.5 52,31.5 52,34 55,34 55,31.5 63,31.5"/>
      <rect x="44" y="34" width="19" height="20" fill="#5c9e31"/>
      <line x1="44" x2="63" y1="34" y2="34" stroke="#000" stroke-width="1"/>
      <line x1="53.5" x2="53.5" y1="50" y2="46" stroke="#f1b31c" stroke-linecap="round" stroke-width="1.5"/>
      <line x1="53.5" x2="49" y1="46" y2="43.5" stroke="#f1b31c" stroke-linecap="round" stroke-width="1.5"/>
      <line x1="53.5" x2="53.5" y1="46" y2="40" stroke="#f1b31c" stroke-linecap="round" stroke-width="1.5"/>
      <line x1="53.5" x2="58" y1="46" y2="43.5" stroke="#f1b31c" stroke-linecap="round" stroke-width="1.5"/>
      <g transform="translate(47,42) rotate(-60) scale(0.30) translate(-36,-33.5)">
        <polyline fill="#f1b31c" stroke="#f1b31c" stroke-linecap="round" stroke-linejoin="round" stroke-width="3" points="36,41 42.8,41 42,39 46,35 46,32 43,32 39,36 39,29 36,26"/>
        <polyline fill="#f1b31c" stroke="#f1b31c" stroke-linecap="round" stroke-linejoin="round" stroke-width="3" points="36,41 29.2,41 30,39 26,35 26,32 29,32 33,36 33,29 36,26"/>
      </g>
      <g transform="translate(53.5,37.5) scale(0.32) translate(-36,-33.5)">
        <polyline fill="#f1b31c" stroke="#f1b31c" stroke-linecap="round" stroke-linejoin="round" stroke-width="3" points="36,41 42.8,41 42,39 46,35 46,32 43,32 39,36 39,29 36,26"/>
        <polyline fill="#f1b31c" stroke="#f1b31c" stroke-linecap="round" stroke-linejoin="round" stroke-width="3" points="36,41 29.2,41 30,39 26,35 26,32 29,32 33,36 33,29 36,26"/>
      </g>
      <g transform="translate(60,42) rotate(60) scale(0.30) translate(-36,-33.5)">
        <polyline fill="#f1b31c" stroke="#f1b31c" stroke-linecap="round" stroke-linejoin="round" stroke-width="3" points="36,41 42.8,41 42,39 46,35 46,32 43,32 39,36 39,29 36,26"/>
        <polyline fill="#f1b31c" stroke="#f1b31c" stroke-linecap="round" stroke-linejoin="round" stroke-width="3" points="36,41 29.2,41 30,39 26,35 26,32 29,32 33,36 33,29 36,26"/>
      </g>
    </g>
    <path fill="none" stroke="#000" stroke-miterlimit="10" d="M44,27 H63 V46 Q53.5,53 44,46 Z"/>
  </g>
  <g id="line">
    <rect x="5" y="17" width="62" height="38" fill="none" stroke="#000" stroke-linecap="round" stroke-linejoin="round" stroke-width="2"/>
  </g>
</svg>
