<svg id="emoji" viewBox="0 0 72 72" version="1.1" xmlns="http://www.w3.org/2000/svg">
  <g id="grid">
    <path fill="#b3b3b3" d="M68,4V68H4V4H68m4-4H0V72H72V0Z"/>
    <path fill="none" stroke="#00a5ff" stroke-miterlimit="10" stroke-width="0.1" d="m12.92 10.96h46.15a1.923 1.923 0 0 1 1.923 1.923v46.15a1.923 1.923 0 0 1-1.923 1.923h-46.15a1.923 1.923 0 0 1-1.923-1.923v-46.15a1.923 1.923 0 0 1 1.923-1.923z"/>
    <rect x="16" y="4" rx="2.254" ry="2.254" width="40" height="64" fill="none" stroke="#00a5ff" stroke-miterlimit="10" stroke-width="0.1"/>
    <rect x="16" y="4" rx="2.254" ry="2.254" width="40" height="64" transform="translate(72) rotate(90)" fill="none" stroke="#00a5ff" stroke-miterlimit="10" stroke-width="0.1"/>
    <circle cx="36" cy="36" r="29" fill="none" stroke="#00a5ff" stroke-miterlimit="10" stroke-width="0.1"/>
  </g>
  <g id="line-supplement" fill="none" stroke="#000" stroke-linecap="round">
    <g transform="translate(5.2)" stroke-width="0.75">
      <g transform="translate(-.9004)">
        <path d="m50.89 44.14 0.4246 1.381h3.504l0.336-1.381"/>
        <path d="m52.99 44.27v1.229"/>
      </g>
      <g transform="translate(-6.169,2.403)">
        <path d="m50.89 44.14 0.4246 1.381h3.504l0.336-1.381"/>
        <path d="m52.99 44.27v1.229"/>
      </g>
      <g transform="translate(-.9544 2.403)">
        <path d="m50.89 44.14 0.4246 1.381h3.504l0.336-1.381"/>
        <path d="m52.99 44.27v1.229"/>
      </g>
      <g transform="translate(-.8852 7.151)">
        <path d="m50.89 44.14 0.4246 1.381h3.504l0.336-1.381"/>
        <path d="m52.99 44.27v1.229"/>
      </g>
      <g transform="translate(-3.792,4.853)">
        <path d="m50.89 44.14 0.4246 1.381h3.504l0.336-1.381"/>
        <path d="m52.99 44.27v1.229"/>
      </g>
      <g transform="translate(4.26,2.403)">
        <path d="m50.89 44.14 0.4246 1.381h3.504l0.336-1.381"/>
        <path d="m52.99 44.27v1.229"/>
      </g>
      <g transform="translate(1.922,4.853)">
        <path d="m50.89 44.14 0.4246 1.381h3.504l0.336-1.381"/>
        <path d="m52.99 44.27v1.229"/>
      </g>
    </g>
    <g transform="translate(0,1)">
      <g>
        <path stroke-width="1" d="m8.613 25.61s1.511-7.361 3.138 7.6e-5"/>
        <path stroke-width="0.9992" d="m10.18 18.58 0.0049 2.448"/>
        <path stroke-width="0.9238" d="m8.909 19.01v2.077"/>
        <path stroke-width="0.9285" d="m11.46 19v2.099"/>
        <path stroke-width="1" d="m8.544 21.09h3.286"/>
      </g>
      <g transform="translate(5.509 -.1145)">
        <path stroke-width="1" d="m8.613 25.61s1.511-7.361 3.138 7.6e-5"/>
        <path stroke-width="0.9992" d="m10.18 18.58 0.0049 2.448"/>
        <path stroke-width="0.9238" d="m8.909 19.01v2.077"/>
        <path stroke-width="0.9285" d="m11.46 19v2.099"/>
        <path stroke-width="1" d="m8.544 21.09h3.286"/>
      </g>
      <g transform="translate(5.509 -.1145)">
        <path stroke-width="1" d="m8.613 25.61s1.511-7.361 3.138 7.6e-5"/>
        <path stroke-width="0.9992" d="m10.18 18.58 0.0049 2.448"/>
        <path stroke-width="0.9238" d="m8.909 19.01v2.077"/>
        <path stroke-width="0.9285" d="m11.46 19v2.099"/>
        <path stroke-width="1" d="m8.544 21.09h3.286"/>
      </g>
      <g transform="translate(.0215 8.033)">
        <path stroke-width="1" d="m8.613 25.61s1.511-7.361 3.138 7.6e-5"/>
        <path stroke-width="0.9992" d="m10.18 18.58 0.0049 2.448"/>
        <path stroke-width="0.9238" d="m8.909 19.01v2.077"/>
        <path stroke-width="0.9285" d="m11.46 19v2.099"/>
        <path stroke-width="1" d="m8.544 21.09h3.286"/>
      </g>
      <g transform="translate(5.509,7.919)">
        <path stroke-width="1" d="m8.613 25.61s1.511-7.361 3.138 7.6e-5"/>
        <path stroke-width="0.9992" d="m10.18 18.58 0.0049 2.448"/>
        <path stroke-width="0.9238" d="m8.909 19.01v2.077"/>
        <path stroke-width="0.9285" d="m11.46 19v2.099"/>
        <path stroke-width="1" d="m8.544 21.09h3.286"/>
      </g>
    </g>
  </g>
  <g id="color">
    <rect x="5" y="17" width="62" height="38" fill="#781e32"/>
    <g transform="translate(5.2)" fill="none" stroke="#fcea2b" stroke-linecap="round" stroke-width="0.75">
      <g transform="translate(-.9004)">
        <path d="m50.89 44.14 0.4246 1.381h3.504l0.336-1.381"/>
        <path d="m52.99 44.27v1.229"/>
      </g>
      <g transform="translate(-6.169,2.403)">
        <path d="m50.89 44.14 0.4246 1.381h3.504l0.336-1.381"/>
        <path d="m52.99 44.27v1.229"/>
      </g>
      <g transform="translate(-.9544 2.403)">
        <path d="m50.89 44.14 0.4246 1.381h3.504l0.336-1.381"/>
        <path d="m52.99 44.27v1.229"/>
      </g>
      <g transform="translate(-.8852 7.151)">
        <path d="m50.89 44.14 0.4246 1.381h3.504l0.336-1.381"/>
        <path d="m52.99 44.27v1.229"/>
      </g>
      <g transform="translate(-3.792,4.853)">
        <path d="m50.89 44.14 0.4246 1.381h3.504l0.336-1.381"/>
        <path d="m52.99 44.27v1.229"/>
      </g>
      <g transform="translate(4.26,2.403)">
        <path d="m50.89 44.14 0.4246 1.381h3.504l0.336-1.381"/>
        <path d="m52.99 44.27v1.229"/>
      </g>
      <g transform="translate(1.922,4.853)">
        <path d="m50.89 44.14 0.4246 1.381h3.504l0.336-1.381"/>
        <path d="m52.99 44.27v1.229"/>
      </g>
    </g>
    <g transform="translate(0,1)" fill="none" stroke="#fcea2b" stroke-linecap="round">
      <g>
        <path stroke-width="1" d="m8.613 25.61s1.511-7.361 3.138 7.6e-5"/>
        <path stroke-width="0.9992" d="m10.18 18.58 0.0049 2.448"/>
        <path stroke-width="0.9238" d="m8.909 19.01v2.077"/>
        <path stroke-width="0.9285" d="m11.46 19v2.099"/>
        <path stroke-width="1" d="m8.544 21.09h3.286"/>
      </g>
      <g transform="translate(5.509 -.1145)">
        <path stroke-width="1" d="m8.613 25.61s1.511-7.361 3.138 7.6e-5"/>
        <path stroke-width="0.9992" d="m10.18 18.58 0.0049 2.448"/>
        <path stroke-width="0.9238" d="m8.909 19.01v2.077"/>
        <path stroke-width="0.9285" d="m11.46 19v2.099"/>
        <path stroke-width="1" d="m8.544 21.09h3.286"/>
      </g>
      <g transform="translate(5.509 -.1145)">
        <path stroke-width="1" d="m8.613 25.61s1.511-7.361 3.138 7.6e-5"/>
        <path stroke-width="0.9992" d="m10.18 18.58 0.0049 2.448"/>
        <path stroke-width="0.9238" d="m8.909 19.01v2.077"/>
        <path stroke-width="0.9285" d="m11.46 19v2.099"/>
        <path stroke-width="1" d="m8.544 21.09h3.286"/>
      </g>
      <g transform="translate(.0215 8.033)">
        <path stroke-width="1" d="m8.613 25.61s1.511-7.361 3.138 7.6e-5"/>
        <path stroke-width="0.9992" d="m10.18 18.58 0.0049 2.448"/>
        <path stroke-width="0.9238" d="m8.909 19.01v2.077"/>
        <path stroke-width="0.9285" d="m11.46 19v2.099"/>
        <path stroke-width="1" d="m8.544 21.09h3.286"/>
      </g>
      <g transform="translate(5.509,7.919)">
        <path stroke-width="1" d="m8.613 25.61s1.511-7.361 3.138 7.6e-5"/>
        <path stroke-width="0.9992" d="m10.18 18.58 0.0049 2.448"/>
        <path stroke-width="0.9238" d="m8.909 19.01v2.077"/>
        <path stroke-width="0.9285" d="m11.46 19v2.099"/>
        <path stroke-width="1" d="m8.544 21.09h3.286"/>
      </g>
    </g>
  </g>
  <g id="line">
    <rect x="5" y="17" width="62" height="38" fill="none" stroke="#000" stroke-linecap="round" stroke-linejoin="round" stroke-width="2"/>
  </g>
</svg>
