<?xml version="1.0" encoding="UTF-8" standalone="no"?>
<svg
   id="emoji"
   viewBox="0 0 72 72"
   version="1.1"
   sodipodi:docname="1F3F4-E0075-E0073-E0061-E006B-E007F.svg"
   xml:space="preserve"
   inkscape:version="1.3.2 (091e20e, 2023-11-25, custom)"
   xmlns:inkscape="http://www.inkscape.org/namespaces/inkscape"
   xmlns:sodipodi="http://sodipodi.sourceforge.net/DTD/sodipodi-0.dtd"
   xmlns="http://www.w3.org/2000/svg"
   xmlns:svg="http://www.w3.org/2000/svg"><defs
     id="defs23" /><sodipodi:namedview
     id="namedview23"
     pagecolor="#ffffff"
     bordercolor="#000000"
     borderopacity="0.25"
     inkscape:showpageshadow="2"
     inkscape:pageopacity="0.0"
     inkscape:pagecheckerboard="0"
     inkscape:deskcolor="#d1d1d1"
     inkscape:zoom="10.708333"
     inkscape:cx="31.237355"
     inkscape:cy="33.945526"
     inkscape:window-width="1920"
     inkscape:window-height="991"
     inkscape:window-x="-9"
     inkscape:window-y="-9"
     inkscape:window-maximized="1"
     inkscape:current-layer="color" /><g
     id="grid"><path
       fill="#b3b3b3"
       d="M68,4V68H4V4H68m4-4H0V72H72V0Z"
       id="path1" /><path
       fill="none"
       stroke="#00a5ff"
       stroke-miterlimit="10"
       stroke-width="0.1"
       d="M12.923,10.9583H59.0769A1.9231,1.9231,0,0,1,61,12.8814V59.0352a1.9231,1.9231,0,0,1-1.9231,1.9231H12.9231A1.9231,1.9231,0,0,1,11,59.0352V12.8813A1.923,1.923,0,0,1,12.923,10.9583Z"
       id="path2" /><rect
       x="16"
       y="4"
       rx="2.2537"
       ry="2.2537"
       width="40"
       height="64"
       fill="none"
       stroke="#00a5ff"
       stroke-miterlimit="10"
       stroke-width="0.1"
       id="rect2" /><rect
       x="16"
       y="4"
       rx="2.2537"
       ry="2.2537"
       width="40"
       height="64"
       transform="translate(72) rotate(90)"
       fill="none"
       stroke="#00a5ff"
       stroke-miterlimit="10"
       stroke-width="0.1"
       id="rect3" /><circle
       cx="36"
       cy="36"
       r="29"
       fill="none"
       stroke="#00a5ff"
       stroke-miterlimit="10"
       stroke-width="0.1"
       id="circle3" /></g><g
     id="color"><rect
       x="5"
       y="17"
       width="62"
       height="38"
       fill="#fff"
       id="rect4"
       style="fill:#1e50a0;fill-opacity:1" /><polygon
       fill="#f1b31c"
       stroke="#f1b31c"
       stroke-linecap="round"
       stroke-linejoin="round"
       points="62,22.467 58.707,25 60.035,21 61.18,24.939 58,22.565 "
       id="polygon4"
       transform="translate(-4.2199396,1.2547455)" /><polygon
       fill="#f1b31c"
       stroke="#f1b31c"
       stroke-linecap="round"
       stroke-linejoin="round"
       points="58,22.565 62,22.467 58.707,25 60.035,21 61.18,24.939 "
       id="polygon4-6"
       transform="matrix(0.68016324,0,0,0.70350879,-0.57837368,28.432025)" /><polygon
       fill="#f1b31c"
       stroke="#f1b31c"
       stroke-linecap="round"
       stroke-linejoin="round"
       points="58.707,25 60.035,21 61.18,24.939 58,22.565 62,22.467 "
       id="polygon4-6-5"
       transform="matrix(0.68016324,0,0,0.70350879,-3.1327978,32.799777)" /><polygon
       fill="#f1b31c"
       stroke="#f1b31c"
       stroke-linecap="round"
       stroke-linejoin="round"
       points="60.035,21 61.18,24.939 58,22.565 62,22.467 58.707,25 "
       id="polygon4-6-9"
       transform="matrix(0.6824779,0,0,0.68255491,-11.489577,30.526853)" /><polygon
       fill="#f1b31c"
       stroke="#f1b31c"
       stroke-linecap="round"
       stroke-linejoin="round"
       points="60.035,21 61.18,24.939 58,22.565 62,22.467 58.707,25 "
       id="polygon4-6-7"
       transform="matrix(0.68483239,0,0,0.66164053,-11.35069,26.572086)" /><polygon
       fill="#f1b31c"
       stroke="#f1b31c"
       stroke-linecap="round"
       stroke-linejoin="round"
       points="60.035,21 61.18,24.939 58,22.565 62,22.467 58.707,25 "
       id="polygon4-6-3"
       transform="matrix(0.6872284,0,0,0.64076732,-15.136475,23.176684)" /><polygon
       fill="#f1b31c"
       stroke="#f1b31c"
       stroke-linecap="round"
       stroke-linejoin="round"
       points="58.707,25 60.035,21 61.18,24.939 58,22.565 62,22.467 "
       id="polygon4-6-6"
       transform="matrix(0.68016324,0,0,0.70350879,-18.634744,18.325069)" /><polygon
       fill="#f1b31c"
       stroke="#f1b31c"
       stroke-linecap="round"
       stroke-linejoin="round"
       points="58.707,25 60.035,21 61.18,24.939 58,22.565 62,22.467 "
       id="polygon4-6-1"
       transform="matrix(0.68016324,0,0,0.70350879,-25.54525,16.177209)" /></g><g
     id="line"><rect
       x="5"
       y="17"
       width="62"
       height="38"
       fill="none"
       stroke="#000"
       stroke-linecap="round"
       stroke-linejoin="round"
       stroke-width="2"
       id="rect23" /></g></svg>
