<?xml version="1.0" encoding="UTF-8" standalone="no"?>
<!DOCTYPE svg PUBLIC "-//W3C//DTD SVG 1.1//EN" "http://www.w3.org/Graphics/SVG/1.1/DTD/svg11.dtd">
<svg width="100%" height="100%" viewBox="0 0 72 72" version="1.1" xmlns="http://www.w3.org/2000/svg" xmlns:xlink="http://www.w3.org/1999/xlink" xml:space="preserve" xmlns:serif="http://www.serif.com/" style="fill-rule:evenodd;clip-rule:evenodd;stroke-miterlimit:10;">
    <g id="grid">
        <path d="M68,4L68,68L4,68L4,4L68,4M72,0L0,0L0,72L72,72L72,0Z" style="fill:rgb(179,179,179);fill-rule:nonzero;"/>
        <path d="M12.923,10.958L59.077,10.958C60.132,10.958 61,11.826 61,12.881L61,59.035C61,60.09 60.132,60.958 59.077,60.958L12.923,60.958C11.868,60.958 11,60.09 11,59.035L11,12.881C11,11.826 11.868,10.958 12.923,10.958L12.923,10.958Z" style="fill:none;fill-rule:nonzero;stroke:rgb(0,165,255);stroke-width:0.1px;"/>
        <path d="M56,6.254L56,65.746C56,66.99 54.99,68 53.746,68L18.254,68C17.01,68 16,66.99 16,65.746L16,6.254C16,5.01 17.01,4 18.254,4L53.746,4C54.99,4 56,5.01 56,6.254Z" style="fill:none;stroke:rgb(0,165,255);stroke-width:0.1px;"/>
        <g transform="matrix(-0,1,-1,-0,72,0)">
            <path d="M56,6.254L56,65.746C56,66.99 54.99,68 53.746,68L18.254,68C17.01,68 16,66.99 16,65.746L16,6.254C16,5.01 17.01,4 18.254,4L53.746,4C54.99,4 56,5.01 56,6.254Z" style="fill:none;stroke:rgb(0,165,255);stroke-width:0.1px;"/>
        </g>
        <circle cx="36" cy="36" r="29" style="fill:none;stroke:rgb(0,165,255);stroke-width:0.1px;"/>
    </g>
    <g id="color">
        <rect x="5" y="17" width="62" height="38" style="fill:rgb(255,216,0);"/>
        <rect x="5" y="17" width="21" height="38" style="fill:rgb(33,60,121);"/>
        <rect x="46" y="17" width="21" height="38" style="fill:rgb(33,60,121);"/>
        <rect x="34.457" y="31.016" width="3.439" height="9.987" style="fill:white;"/>
        <g transform="matrix(0,-1,1,0,0.167545,72.185861)">
            <rect x="34.457" y="31.016" width="3.439" height="9.987" style="fill:white;"/>
        </g>
        <g transform="matrix(0.176011,0,0,0.177773,-12.563935,-14.04301)">
            <path d="M257.309,250.636C256.461,252.847 258.226,255.429 260.852,255.82C262.795,256.109 263,256.756 263,262.617L263,269.095L250.469,269.098C250.469,269.098 250.31,267.161 250.18,266.248C249.727,263.056 246.585,261.558 244.569,263.573C242.247,265.896 242.247,297.104 244.569,299.427C246.718,301.575 250,299.785 250,296.465C250,294.098 250.258,294 256.5,294L263,294L263,300.43C263,306.243 262.793,306.892 260.852,307.18C258.226,307.571 256.461,310.153 257.309,312.364C257.859,313.795 260.2,314 276,314C291.8,314 294.141,313.795 294.691,312.364C295.539,310.153 293.774,307.571 291.148,307.18C289.207,306.892 289,306.243 289,300.43L289,294L295.5,294C301.742,294 302,294.098 302,296.465C302,299.785 305.282,301.575 307.431,299.427C308.729,298.129 309,295.028 309,281.5C309,267.972 308.729,264.871 307.431,263.573C305.415,261.558 302.273,263.056 301.82,266.248C301.644,267.481 301.705,268.711 300.213,269.035C299.258,269.243 289,269.095 289,269.095L289,262.617C289,256.756 289.205,256.109 291.148,255.82C293.774,255.429 295.539,252.847 294.691,250.636C294.141,249.205 291.8,249 276,249C260.2,249 257.859,249.205 257.309,250.636M282,265.393C282,273.036 282.295,274.899 283.582,275.393C284.452,275.727 288.952,276 293.582,276L302,276L302,287L293.582,287C288.952,287 284.452,287.273 283.582,287.607C282.295,288.101 282,289.964 282,297.607L282,307L270,307L270,297.607C270,289.964 269.705,288.101 268.418,287.607C267.548,287.273 263.048,287 258.418,287L250,287L250,276L258.418,276C263.048,276 267.548,275.727 268.418,275.393C269.705,274.899 270,273.036 270,265.393L270,256L282,256L282,265.393" style="fill:rgb(219,36,22);"/>
        </g>
    </g>
    <g id="line">
        <rect x="5" y="17" width="62" height="38" style="fill:none;stroke:black;stroke-width:2px;stroke-linecap:round;stroke-linejoin:round;stroke-miterlimit:4;"/>
    </g>
</svg>
