<svg id="emoji" version="1.1" viewBox="0 0 72 72" xmlns="http://www.w3.org/2000/svg">
 <g id="grid">
  <path d="M68,4V68H4V4H68m4-4H0V72H72V0Z" fill="#b3b3b3"/>
  <path d="m12.92 10.96h46.15a1.923 1.923 0 0 1 1.923 1.923v46.15a1.923 1.923 0 0 1-1.923 1.923h-46.15a1.923 1.923 0 0 1-1.923-1.923v-46.15a1.923 1.923 0 0 1 1.923-1.923z" fill="none" stroke="#00a5ff" stroke-miterlimit="10" stroke-width=".1"/>
  <rect x="16" y="4" width="40" height="64" rx="2.254" ry="2.254" fill="none" stroke="#00a5ff" stroke-miterlimit="10" stroke-width=".1"/>
  <rect transform="translate(72) rotate(90)" x="16" y="4" width="40" height="64" rx="2.254" ry="2.254" fill="none" stroke="#00a5ff" stroke-miterlimit="10" stroke-width=".1"/>
  <circle cx="36" cy="36" r="29" fill="none" stroke="#00a5ff" stroke-miterlimit="10" stroke-width=".1"/>
 </g>
 <g id="color">
  <rect x="5" y="17" width="62" height="38" fill="#fff" style="fill:#1e50a0"/>
  <path d="m23.499 35.831c-0.08096-0.0197-0.18624-0.0897-0.28053-0.1574-0.11093-0.0797-0.2832-0.275-0.48992-0.5358-0.1984-0.25-0.36853-0.3846-0.50859-0.464-0.26016-0.1475-0.70208-0.2497-1.1335-0.2515-0.11616-5e-4 -0.14155 3e-3 -0.30453 0.0407-0.11893 0.0276-0.18251 0.0455-0.26496 0.0845-0.06944 0.0328-0.08576 0.037-0.03989 0.0425 0.25472 0.0309 0.52949 0.0663 0.57131 0.0738 0.02912 0.0052 0.08 0.014 0.11307 0.0195 0.3568 0.06 0.66197 0.142 0.85088 0.2097 0.11072 0.0397 0.22059 0.1022 0.2624 0.1367 0.05547 0.0461 0.056 0.0688-0.05696 0.0847-0.04075 0.0057-0.08907 0.017-0.0928 0.0205-0.01035 0.0099-5e-3 5e-3 0.12917 0.103 0.14997 0.1095 0.20181 0.1622 0.24683 0.2336 0.05067 0.0803 0.11744 0.1522 0.03701 0.1344-0.02635-0.0058-0.12437-0.0383-0.1632-0.0422-0.16992-0.0169-0.22421-0.02-0.30389-0.0583-0.09152-0.0441-0.16171-0.0691-0.2048-0.0732-0.07157-0.0068-0.072-0.0199 0.03413 0.0949 0.08181 0.0884 0.11765 0.1331 0.14112 0.1764 0.032 0.0591 0.05291 0.121-0.01408 0.1065-0.11147-0.0243-0.27019-0.0993-0.33781-0.143-0.04053-0.0263-0.24555-0.2082-0.28245-0.2449-0.08512-0.0848-0.31275-0.2565-0.45301-0.3436-0.16555-0.1028-0.3536-0.168-0.56747-0.1968-0.11093-0.015-0.27797-0.0299-0.29536-0.0135-0.01451 0.0137-0.03573 0.0203 0.01632 0.0362 0.15275 0.0463 0.31584 0.151 0.50485 0.3237 0.09344 0.0854 0.15019 0.149 0.20843 0.2337 0.06933 0.1006 0.09995 0.1695 0.08939 0.201-0.0048 0.0141 0.04853 0.0445-0.02795 0.0406-0.05301-0.0027-0.16064-0.0097-0.20352-0.0214-0.06741-0.0184-0.208-0.0758-0.24427-0.0999-0.08427-0.0556-0.19637-0.1584-0.22592-0.2041-0.02709-0.0421-0.12021-0.1479-0.17493-0.1888-0.13216-0.099-0.18603-0.1446-0.30987-0.1712-0.1728-0.0372-0.45429-0.0244-0.65781 0.0558-0.09376 0.037-0.30208 0.1104-0.46517 0.1641-0.04085 0.0135-0.08704 0.029-0.10261 0.0347-0.01557 0.0056-0.10304 0.0352-0.19456 0.0657-0.09141 0.0305-0.19947 0.0718-0.2432 0.0828-0.2496 0.0622-0.62059 0.2057-0.96608 0.3396-0.36213 0.1403-0.67328 0.4044-0.98741 0.6493s-0.4448 0.4178-0.64544 0.5991c-0.20075 0.1813-0.40363 0.4601-0.39381 0.4674-0.03051-0.0082 0.04939-0.2961 0.16651-0.5772 0.11712-0.2811 0.32437-0.5838 0.29163-0.5643-0.08 0.0474 0.28171-0.2874 0.86123-0.586 0.43979-0.2265 1.0489-0.3664 1.4272-0.4886 0.33141-0.107 0.41163-0.1269 0.54837-0.2593 0.10667-0.1033 0.16693-0.1874 0.18688-0.278 0.01472-0.0669 0.05099-0.2019 0.07179-0.258 0.0096-0.0257 0.04693-0.0829 0.05888-0.1157 0.02635-0.072 0.06155-0.1733 0.12384-0.2679 0.07648-0.116 0.25077-0.2664 0.29163-0.2542 0.04395 0.0132 0.03872 0.2375-0.01067 0.4205-0.03648 0.1358-0.08715 0.2734-0.13824 0.3761-0.01515 0.0304-0.0045 0.0223 0.01205 0.0223 0.01472 0 0.09824-0.089 0.15392-0.1599 0.06187-0.079 0.15744-0.2344 0.20053-0.331 0.04075-0.091 0.11392-0.3058 0.13888-0.4074 0.04672-0.1904 0.09504-0.37 0.13451-0.4536 0.03787-0.0801 0.14571-0.1855 0.17771-0.1812 0.01291 0.0018 0.01483 0.0289 0.01952 0.0907 0.0032 0.0425 0.01141 0.0857 0.02144 0.1135 0.02539 0.0698 0.0051 0.0622 0.12032-0.0429 0.10965-0.1 0.19499-0.1668 0.22091-0.1829 0.02976-0.0184 0.04469 0.024 0.05867 0.1452 0.016 0.1387-0.0015 0.1947-0.04864 0.2838-0.01109 0.021-5e-3 0.0197-0.0014 0.0218 0.01515 0.0089 0.03861-0.0232 0.14325-0.1055 0.07712-0.0607 0.13483-0.0565 0.11168 0.0169-0.0078 0.0246-0.03456 0.0726-0.03723 0.0854-0.032 0.1542-0.10837 0.2742-0.25963 0.4076-0.16704 0.1472-0.2288 0.194-0.47253 0.3591-0.12267 0.083-0.19051 0.1353-0.2752 0.2118-0.05856 0.053-0.08267 0.0803-0.1024 0.1155-0.02645 0.0476-0.02091 0.0361-0.0089 0.0431 0.01813 0.0106 0.24587-0.046 0.35819-0.0876 0.11253-0.0417 0.20192-0.0847 0.30933-0.161 0.18496-0.1312 0.2544-0.1986 0.43861-0.4774 0.21269-0.322 0.24427-0.505 0.16651-0.7246-0.02432-0.0689-0.08213-0.1853-0.12267-0.2337-0.20267-0.2417-0.28651-0.524-0.24523-0.6446 0.01995-0.058 0.08725-0.0461 0.10987 0.023 0.02656 0.0804 0.15605 0.1792 0.20459 0.1792 0.01419 0 0.01952-0.0073 0.02347-0.0448 0.01045-0.0976 0.0066-0.2304-0.0011-0.2689-0.0089-0.0444-0.0043-0.0512 0.02283-0.0448 0.04256 0.01 0.18315 0.1105 0.22283 0.1794 0.02645 0.046 0.01717 0.0446 0.02176-0.0115 0.0019-0.0238 0.01856-0.0427 0.02144-0.0418 0.01931-0.0022 0.01184 0.0203 0.01525 0.0203 0.0034 0 0.02229 0.0341 0.04192 0.0758 0.09248 0.1958 0.13099 0.3647 0.13024 0.5718-4.27e-4 0.1386-0.01813 0.238-0.06795 0.3819-0.04085 0.1177-0.08149 0.2011-0.16405 0.3368-0.07744 0.1272-0.07733 0.127-0.18283 0.2573-0.11573 0.143-0.14315 0.1733-0.29547 0.3275-0.04875 0.0493-0.08213 0.0884-0.07936 0.0927 0.01365 0.0209 0.17771-0.0162 0.2736-0.0619 0.07893-0.0376 0.20565-0.1233 0.26699-0.1805 0.09227-0.0861 0.22464-0.2386 0.28693-0.3305 0.03381-0.0498 0.09067-0.2187 0.12299-0.2907 0.05888-0.1313 0.10624-0.2763 0.10677-0.4375 5.34e-4 -0.1718-0.04416-0.3034-0.14315-0.4957-0.06112-0.1189-0.05973-0.1168-0.08373-0.203-0.0416-0.1497-0.06827-0.3806-0.0096-0.3778 0.0096 5e-4 0.03808 0.0184 0.07467 0.0483 0.03765 0.031 0.0512 0.0478 0.07061 0.0414 0.0064-0.0021 0.02261-0.0192 0.01941-0.0747-0.0042-0.0736 0.0021-0.084 0.02485-0.1332 0.01259-0.0276 0.03232-0.071 0.04373-0.0968s0.0432-0.0394 0.04843-0.0443c0.02368-0.0226 0.08757 0.0286 0.13984 0.1122 0.05813 0.0928 0.06293 0.1022 0.08085 0.1022 0.0192 0 0.02592-0.0153 0.09536-0.1833 0.06891-0.1668 0.13536-0.2594 0.16427-0.249 0.03275 0.0119 0.05525 0.3974 0.03381 0.5691-0.01077 0.0861-0.01909 0.1137-0.10667 0.3554-0.10955 0.303-0.15104 0.4746-0.11808 0.4746 0.03392 0 0.13056-0.1336 0.24853-0.3205 0.09685-0.1533 0.13184-0.2893 0.13931-0.376 0.0025-0.0283-0.0016-0.1314-0.01173-0.1921-0.07136-0.4313-0.08-0.4366-0.08075-0.6374-6.4e-4 -0.1393 0.03328-0.1789 0.04181-0.2003 0.02368-0.0597 0.05995-0.03 0.13088 0.1068 0.04224 0.0815 0.10965 0.2561 0.1232 0.319l0.02048 0.095c0.0079 0.0366 0.01664 0.0892 0.01931 0.1167 0.0027 0.0275 0.0064 0.0525 0.0083 0.0554 0.01067 0.0176 0.01899-0.0552 0.032-0.1203 0.02048-0.1017 6.4e-4 -0.276-0.04843-0.4388a3.2125 3.0117 0 0 0-0.08096-0.2218c-0.0077-0.0177-0.02347-0.063-0.03787-0.098-0.0144-0.0348-0.03957-0.0982-0.05899-0.138-0.04704-0.097-0.0097-0.1037 0.0816-0.0458 0.08896 0.0564 0.17867 0.146 0.25003 0.2496 0.04352 0.0633 0.04864 0.073 0.06677 0.1269 0.0086 0.0257 0.01824 0.0467 0.02133 0.0467 0.01099 0 0.03136-0.0422 0.04533-0.0937 0.02517-0.0929 0.0448-0.2596 0.06219-0.5304 0.0043-0.0659 0.0067-0.077 0.01749-0.079 0.0087-0.0016 0.01621 0.0054 0.02475 0.0233 0.01024 0.0213 0.02933 0.038 0.0288 0.1354-7.47e-4 0.1279-0.01813 0.2594-0.05525 0.4476-0.18208 0.7431 0.19285 0.0973 0.30101-0.0901 0.09291-0.1623 0.27776-0.5218 0.28619-0.5566 0.01845-0.0765-0.0036-0.1424-0.09173-0.2739-0.03627-0.0542-0.03797-0.057-0.14517-0.2426-0.17664-0.3057-0.3312-0.6324-0.35435-0.7486-0.0059-0.0296 0.01035-0.0394 0.03307-0.02 0.02005 0.0171 0.208 0.2617 0.24811 0.323 0.04224 0.0643 0.0864 0.1152 0.0864 0.1705-0.04224 0.0564 0.01163 0.0453 0.01248 0.0486 0.03989-0.0115 0.06901 0.0062 0.13205 0.0805 0.0736 0.087 0.10944 0.1209 0.12747 0.1209 0.01344 0-0.0031-0.0066-0.0031-0.038 0-0.078-0.03264-0.2642-0.09131-0.4044-0.04768-0.1142-0.13195-0.2854-0.15136-0.3077-0.0036-0.0042-0.03093-0.0523-0.06069-0.1068-0.02976-0.0546-0.06997-0.1192-0.08939-0.1436-0.03819-0.048-0.21589-0.2106-0.29621-0.271-0.05483-0.0413-0.06101-0.0565-0.03061-0.0752 0.09237-0.0571 0.29035 0.0907 0.53397 0.3987 0.06133 0.0777 0.10859 0.136 0.17152 0.212 0.0544 0.0656 0.05867 0.0608 0.0688-0.0751 0.0093-0.1253 0.01173-0.1338 0.03808-0.1327 0.01152 5e-4 0.0352 6e-3 0.05269 0.0123 0.02304 0.0083 0.04235 0.0104 0.06987 0.0074 0.0224-0.0025 0.08693 0.0015 0.09205 0.0055 0.0068 0.0054-0.01312 0.0674-0.01568 0.2756-0.0028 0.2311 0.0013 0.259 0.01035 0.2703 0.01419 0.0176 0.0052 0.018 0.05984-0.0299 0.05525-0.0484 0.0768-0.0844 0.13803-0.2316 0.1456-0.3497 0.30848-0.5107 0.52843-0.6442 0.04395-0.0267 0.09568-0.0482 0.19637-0.0785 0.11445-0.0343 0.1344-0.0316 0.11147 0.0775-0.01653 0.079-0.03243 0.114-0.06048 0.1798-0.0704 0.1658-0.16224 0.3227-0.24043 0.376-0.03211 0.0218-0.07083 0.0557-0.12224 0.0583-0.14272 0.0985-0.18517 0.259-0.32917 0.328-0.01579 0.0179-0.03179 0.0544-0.12395 0.1947-0.07328 0.1115-0.1424 0.2276-0.17707 0.3558-0.0128 0.0472-0.0384 0.063-0.03104 0.0673 5e-3 3e-3 0.01259 4e-3 0.01685 0.0024 0.0096-0.0036 0.05579-0.062 0.1552-0.196 0.10165-0.1372 0.19861-0.238 0.31947-0.3325 0.07723-0.0604 0.19307-0.1183 0.28949-0.1446 0.07189-0.0197 0.08405-0.0206 0.09568-0.0073a0.09472 0.0888 0 0 1 0.01205 0.1028c-0.04213 0.0797-0.07317 0.1328-0.20032 0.277-0.12512 0.1418-0.21003 0.2188-0.46261 0.4581a12.825 12.023 0 0 0-0.26976 0.2645c-0.08875 0.0908-0.14752 0.1553-0.33973 0.4681-0.04949 0.0806-0.13205 0.164-0.13888 0.1705-0.0029 0.0027-0.02475 0.1247-0.05227 0.1315-0.29493 0.1526-0.26272 0.4263-0.4176 0.6474l-0.05237 0.0887c-0.06677 0.1132-0.12971 0.2354-0.12971 0.252 0 7e-3 0.0029 0.0146 0.0064 0.0166s0.04736-4e-3 0.09728-0.0133c0.12555-0.0236 0.16885-0.0265 0.2064-0.0137 0.03307 0.0113 0.04885 0.0077 0.0736-0.0165 0.032-0.0314 0.15872-0.0767 0.18656-0.0767 0.0192 0 0.01675 4e-3 7e-3 0.0305-0.0047 0.0128 0.0015 0.0515-0.01867 0.0798-0.03744 0.0523-0.06827 0.0567-0.05717 0.0632 0.0034 2e-3 0.05632 6e-4 0.11755-3e-3 0.12416-0.0075 0.13088-6e-3 0.13088 0.0307 0 0.0534 0.0023 0.1136-0.08597 0.1773-0.04117 0.0296-0.09088 0.0375-0.05771 0.0425 0.08384 0.0327 0.15563 0.0511 0.15563 0.07 0 0.0161 0.02891 0.0138-0.056 0.0322-0.08448 0.0183-0.14656 0.0303-0.19979 0.078-0.12896 0.1156-0.32779 0.1997-0.62581 0.1983-0.08949-4e-4 -0.15819-0.0132-0.256 0.0308-0.06443 0.029-0.10421 0.0316-0.19019 0.1466-0.07467 0.1-0.18379 0.2425-0.23691 0.3094-0.02731 0.0342-0.07499 0.096-0.10613 0.137a7.6775 7.1977 0 0 1-0.13088 0.166c-0.09216 0.1131-0.1344 0.1688-0.1344 0.1772 0 0.01 0.01333 0.0078 0.07787-0.013 0.13781-0.0442 0.54421-0.2344 0.672-0.3144 0.02133-0.0134 0.05803-0.0345 0.08128-0.0469 0.02347-0.0123 0.06656-0.038 0.096-0.057s0.07872-0.0487 0.10965-0.0659c0.06656-0.037 0.05227-0.0284 0.15211-0.0921 0.08373-0.0535 0.13301-0.087 0.25173-0.1716 0.0384-0.0273 0.08245-0.0582 0.09792-0.0687a2.7414 2.5701 0 0 0 0.16971-0.122 7.5907 7.1163 0 0 0 0.2304-0.1967c0.04544-0.0425 0.168-0.2036 0.18336-0.2409 9e-3 -0.022 0.0053-0.0638 0.0091-0.1058 0.0085-0.0966-0.02187-0.1937-0.06539-0.4213-0.0544-0.2848-0.03232-0.505 0.0037-0.638 0.02368-0.0877 0.0832-0.1697 0.11595-0.1599 0.02837 0.0085 0.08981 0.1432 0.10987 0.241 0.02411 0.1174 0.02219 0.2052-0.01131 0.5002-0.02368 0.2075-0.01739 0.448 0.01227 0.4711 0.0208 0.0164 0.06795-0.03 0.09525-0.094 0.01685-0.0394 0.03339-0.0903 0.07701-0.237 0.0672-0.2263 0.08715-0.2631 0.19989-0.3704 0.04821-0.046 0.09547-0.0925 0.10507-0.1035 0.0096-0.011 0.03819-0.0375 0.06336-0.0588 0.08171-0.069 0.18059-0.1872 0.21909-0.2617 0.06955-0.1346 0.04715-0.205 0.01067-0.4139-0.01419-0.0807-0.0224-0.1634-0.02635-0.1836-0.0067-0.0348-0.0043-0.0537-0.0224-0.1944-0.01461-0.1125 0.02219-0.34 0.05248-0.3933 0.01109-0.0195 0.03669-0.016 0.06112 0.0086 0.06592 0.0663 0.11712 0.2015 0.13717 0.3622 0.0093 0.0741 9e-3 0.2804-5.33e-4 0.3595-0.0093 0.0778-0.0064 0.0921 0.01483 0.074 0.01632-0.014 0.05227-0.0681 0.08661-0.1307 0.0128-0.0233 0.03627-0.0635 0.05195-0.0892 0.01579-0.0257 0.05493-0.0938 0.08693-0.1513 0.032-0.0576 0.06187-0.1094 0.06645-0.1152 0.0045-0.0058 0.03157-0.0166 0.06005-0.024a0.6176 0.579 0 0 0 0.09461-0.034c0.02944-0.014 0.05931-0.015 0.06624-0.0134 0.04619 0.0098-0.03595 0.1224-0.1184 0.2704-0.01856 0.0335-0.04523 0.0948-0.0672 0.1362-0.03755 0.0711-0.05547 0.1005-0.04395 0.1113 0.0096 9e-3 0.02528 0.0101 0.07392 0.0101 0.0688 1e-4 0.05611-0.0208 0.06272 4e-3 0.0026 0.0096 0.01248 0.0327 0.02197 0.0514 0.02837 0.0555 0.05547 0.1028-0.01173 0.1262-0.03211 0.0112-0.08064 0.0092-0.09589 0.0141-0.03413 0.0112-0.05547 0.0168-0.03093 0.0274 0.02955 0.0127 0.18453-0.028 0.33632-0.0627 0.10421-0.0239 0.21621-0.0407 0.25685-0.0387 0.03509 0.0017 0.04053 0.0038 0.04245 0.0164 0.0015 0.0099 0.02069 0.0411 0.0045 0.0528-0.03392 0.0244-0.12181 0.0868-0.19605 0.1019l-0.16064 0.033c-0.09707 0.0197-0.21099 0.03-0.31136 0.0346-0.10581 0.0049-0.11808-0.015-0.20597 0.0397-0.05056 0.0315-0.08683 0.0531-0.12117 0.092a2.8373 2.66 0 0 1-0.16896 0.1744c-0.13013 0.1198-0.20192 0.1816-0.24299 0.2307-0.10731 0.1281-0.22315 0.2876-0.2256 0.3814l-9.6e-4 0.0334 0.02475-2e-3c0.01365-1e-3 0.05184-0.0145 0.08491-0.03 0.05568-0.026 0.06187-0.031 0.08267-0.0663 0.03947-0.0671 0.11221-0.127 0.18475-0.1759 0.06784-0.0456 0.16459-0.0892 0.24213-0.1054 0.02144-0.0045 0.11627-0.0229 0.14752-0.0298 0.07595-0.0167 0.15968-0.0284 0.27115-0.0368 0.05056-0.0038 0.15755-0.0051 0.21781-0.0104 0.15435-0.0136 0.21195-0.0347 0.21195-0.0184 0 0.0338-0.10816 0.1332-0.25707 0.1776-0.05035 0.015-0.13451 0.0382-0.19093 0.055-0.05653 0.017-0.16853 0.0503-0.20928 0.0666-0.04085 0.0162-0.11445 0.0262-0.14357 0.037-0.10325 0.0385-0.256 0.1185-0.31403 0.1593-0.04907 0.0346-0.06976 0.0358-0.06976 0.0526 0 0.0083-0.01579 0.0024 0.04-0.0203 0.08395-0.0341 0.31328-0.076 0.39819-0.0955 0.12128-0.0277 0.22549-0.0398 0.33067-0.0398 0.13771-1e-4 0.1888-2e-3 0.14357 0.0498-0.06187 0.0707-0.21835 0.1602-0.45013 0.203-0.18699 0.0345-0.44992 0.0989-0.5744 0.1411-0.01259 0.0043-0.09141 0.0241-0.12352 0.0479-0.03221 0.0237-0.15104 0.0969-0.24832 0.1663-0.2048 0.1463-0.22763 0.156-0.36085 0.273-0.09696 0.0852-0.16821 0.1396-0.18645 0.172-0.01376 0.0244-0.0093 0.0395 0.056 0.0257 0.15829-0.0335 0.29792-0.0984 0.46592-0.175 0.10229-0.0467 0.1696-0.089 0.26293-0.1653 0.112-0.0916 0.16853-0.1092 0.28661-0.1656 0.17173-0.082 0.34944-0.101 0.48512-0.1079 0.08629-0.0043 0.14261 0.0078 0.16107 0.0206 0.02784 0.0192-0.0065 0.0644-0.10411 0.1117-0.09664 0.0468-0.17429 0.0971-0.17429 0.0971 0.0018 0.0117-0.02912 0.0438 0 0.05 0.03872 0.0082 0.1152 0.0378 0.1152 0.0492 0 0.0216-0.01664 0.0527-0.05803 0.0819-0.04725 0.0334-0.20032 0.1266-0.21963 0.1266-0.06869-0.0902 0.06251 0.0261 0.096 0.034 0.12416 0.027 0.21867 0.0936 0.23051 0.123 0.0062 0.015-0.05547 0.0218-0.11755 0.041-0.11392 0.0352-0.1584 0.0483-0.22955 0.0525-0.03893 0.0022-0.24992 0.0035-0.41333-1e-3 -0.36715-0.0103-0.49984-0.0296-0.6944 8e-4 -0.24341 0.038-0.45184 0.0958-0.61248 0.1969-0.08256 0.0519-0.24288 0.1294-0.25067 0.1425-0.01088 0.0183 0.01728 0.0393 0.31307 0.0512 0.52416 0.021 0.60032 0.0164 0.97888-0.0975 0.20992-0.0631 0.25707-0.071 0.32277-0.0791 0.05579-0.0069 0.112 0.0061 0.12085 0.0131 0.01685 0.0132-0.0093 0.0205-0.04363 0.0603-0.03339 0.0387-0.06965 0.0916-0.06965 0.107 0 0.0148 0.05291 0.0164 0.16331 0.0274 0.10837 0.0108 0.14912 0.043 0.1776 0.0684 0.02133 0.019 0.02528 0.0157-0.01973 0.04-0.06955 0.0376-0.13227 0.0955-0.10165 0.1225 0.01387 0.0122-0.04789-1e-3 0.15189 0.0529 0.06955 0.0187 0.21472 0.0629 0.22741 0.0663 0.02603 0.0071 0.11008 0.0034 0.09749 0.0259-0.03659 0.0653-0.05952 0.0746-0.10603 0.0873-0.06976 0.019-0.14912 0.0466-0.24075 0.0581-0.07179 9e-3 -0.11872 0.0302-0.22752 0.0273-0.07627-2e-3 -0.15819 0.0037-0.17376 2e-3 -0.01557-0.0017-0.13771-0.0094-0.16501-0.012-0.0272-0.0027-0.13056-0.0211-0.1792-0.0304s-0.14155-0.027-0.15317-0.0287c-0.02976-0.0044-0.1632-0.0448-0.21867-0.0651-0.02528-0.0093-0.15787-0.061-0.21035-0.0806-0.12917-0.048-0.19573-0.0677-0.35147-0.103-0.29888-0.0679-0.45515-0.0891-0.53163-0.0891-0.04331 0-0.1568 7e-4 -0.21067 0.0125-0.05696 0.0125-0.14763 0.0361-0.21973 0.0605-0.1008 0.0341-0.128 0.0255-0.128 0.0391 0 0.0105 0.01344 0.012 0.13973 0.0157 0.21621 0.0062 0.34603 0.0346 0.61077 0.1002 0.09824 0.0243 0.26219 0.0859 0.37077 0.1247 0.12117 0.0433 0.17557 0.0659 0.20789 0.0793 0.01941 8e-3 0.09973 0.0335 0.14176 0.0497 0.09088 0.035 0.15936 0.0647 0.24821 0.1137 0.03499 0.0193 0.18187 0.098 0.20448 0.1102 0.14048 0.0764 0.32693 0.239 0.32693 0.271 0 0.0125-0.03648 0.0186-0.07061 0.0276-0.1568 0.0416-0.14421 0.0172-0.10656 0.0709 0.04075 0.058 0.11008 0.1132 0.23563 0.1833 0.15893 0.0888 0.20811 0.1075 0.18859 0.1245-0.03008 0.0263-0.13472 0.053-0.18624 0.0361-0.03947-0.0073-0.15445-0.0265-0.18731-0.0265-0.02837 0.0234-0.06517-5e-3 -0.08555 0.0241-0.0043 0.0352 0.02795 0.117 0.08885 0.202 0.03477 0.0487 0.10005 0.1334 0.07093 0.1334-0.0055 0-0.1056-0.0161-0.12949-0.022z" fill="#00843d" style="fill:#5c9e31;stroke-width:.10328"/>
  <path d="m20.021 37.427c0.0047-0.0117-0.02133-0.1291-0.03595-0.1623a1.0496 0.984 0 0 1-0.02848-0.0832c-0.03733-0.1248-0.09877-0.26-0.27605-0.6067-0.04043-0.079-0.0784-0.1569-0.08437-0.1731-0.01568-0.0422-0.03861-0.0677-0.11221-0.1254a9.5659 8.968 0 0 1-0.10731-0.0853c-0.0416-0.0338-0.18453-0.1372-0.25461-0.1842-0.11136-0.0746-0.26795-0.1579-0.52373-0.2785-0.15595-0.0736-0.22965-0.1035-0.44544-0.1811-0.04277-0.0154-0.09717-0.0351-0.12085-0.0438-0.07541-0.0276-0.07915-0.0274-0.22507 0.0128-0.07349 0.0203-0.14133 0.0417-0.15072 0.0475-0.03147 0.0194-0.02347 0.025 0.12416 0.0861 0.09451 0.0392 0.2496 0.1167 0.42037 0.21 0.22795 0.1245 0.24981 0.1385 0.57461 0.3687 0.22027 0.156 0.46443 0.3676 0.70411 0.6101 0.14752 0.1492 0.20352 0.2105 0.26837 0.2936 0.01717 0.022 0.05227 0.0641 0.07808 0.0935s0.0672 0.079 0.09205 0.1101c0.05056 0.0637 0.08469 0.1002 0.09344 0.1002 0.0032 0 0.0076-4e-3 0.0096-9e-3zm-8.4411-1.664c0.08096-0.0197 0.20224-0.0802 0.29653-0.148 0.11093-0.0796 0.26517-0.2448 0.472-0.5056 0.1984-0.25 0.33451-0.3827 0.47456-0.462 0.26027-0.1476 0.76-0.2555 1.1915-0.2573 0.11627-4e-4 0.1696 0.0067 0.33248 0.0445 0.11893 0.0276 0.18453 0.0493 0.26709 0.0883 0.06933 0.0328 0.07776 0.0464 0.03179 0.052-0.25472 0.0308-0.52949 0.0662-0.5712 0.0737-0.02923 0.0052-0.08011 0.014-0.11328 0.0195-0.35669 0.06-0.69173 0.1383-0.88064 0.206-0.11083 0.0396-0.19264 0.0795-0.23445 0.114-0.05557 0.0461-0.03808 0.065 0.07488 0.081 0.04075 0.0057 0.07701 0.0132 0.08075 0.0167 0.01045 0.0098-0.0027 0.0213-0.13685 0.1193-0.14987 0.1096-0.22581 0.18-0.27093 0.2514-0.05056 0.0803-0.04491 0.0922 0.03563 0.0744 0.02624-0.0058 0.07957-0.0137 0.1184-0.0176 0.16992-0.0169 0.23168-0.0305 0.31136-0.0689 0.09152-0.044 0.13195-0.0585 0.17493-0.0626 0.07168-0.0068 0.06453 0.0153-0.0416 0.13-0.08171 0.0885-0.11755 0.1332-0.14101 0.1765-0.032 0.0591-0.01941 0.0754 0.04757 0.0608 0.11147-0.0243 0.20693-0.0606 0.27445-0.1044 0.04064-0.0263 0.26421-0.2081 0.30112-0.2448 0.08512-0.0849 0.32395-0.267 0.46421-0.3542 0.16555-0.1028 0.3536-0.168 0.56747-0.1968 0.11093-0.015 0.3376-0.0123 0.35499 0.0041 0.0144 0.0137 6e-3 0.0203-0.04619 0.0362-0.15264 0.0463-0.31584 0.151-0.50485 0.3237-0.09333 0.0854-0.15008 0.149-0.20843 0.2337-0.06933 0.1006-0.09995 0.1695-0.08939 0.201 0.0048 0.0141 0.0073 0.0144 0.08373 0.0105a0.62624 0.5871 0 0 0 0.1424-0.0214c0.06752-0.0184 0.18944-0.0683 0.22581-0.0923 0.08416-0.0557 0.19371-0.1534 0.22315-0.1992 0.02709-0.042 0.13877-0.1554 0.19349-0.1963 0.13227-0.0989 0.21003-0.137 0.33387-0.1637 0.1728-0.0372 0.43829-0.0068 0.64192 0.0734 0.09365 0.037 0.30197 0.1104 0.46507 0.1641 0.04085 0.0135 0.08704 0.029 0.10261 0.0347 0.01557 0.0056 0.10315 0.0352 0.19456 0.0657 0.09141 0.0305 0.20085 0.0677 0.2432 0.0828 0.0848 0.03 0.09813 0.0317 0.14965 0.0179 0.06091-0.0164 0.23947-0.0773 0.24672-0.0842 0.01515-0.0143-0.02101-0.0297-0.18795-0.0801-0.34955-0.1057-0.3968-0.1288-0.53365-0.2612-0.10667-0.1033-0.16363-0.1905-0.18347-0.281a2.826 2.6494 0 0 0-0.071891-0.2488c-0.0096-0.0257-0.0272-0.0736-0.03915-0.1064-0.02635-0.072-0.09205-0.1955-0.15435-0.29-0.07648-0.1161-0.22027-0.2434-0.26112-0.2312-0.04395 0.0132-0.03861 0.2087 0.01067 0.3917 0.03648 0.1358 0.08715 0.2734 0.13835 0.3761 0.01504 0.0304 0.01419 0.0501-0.0023 0.0501-0.01472 0-0.12768-0.1137-0.18325-0.1846-0.06197-0.079-0.15008-0.226-0.19328-0.3226-0.04053-0.091-0.11392-0.3058-0.13877-0.4074-0.04683-0.1904-0.10421-0.3728-0.14368-0.4564-0.03787-0.0802-0.12437-0.174-0.15637-0.1697-0.0128 0.0017-0.01483 0.0087-0.01952 0.0705-0.0032 0.0425-0.01131 0.0857-0.02144 0.1135-0.02528 0.0698-0.03253 0.068-0.14773-0.0371-0.10965-0.1-0.16747-0.1496-0.19349-0.1657-0.02976-0.0183-0.03552-0.0048-0.04949 0.1164-0.016 0.1387-0.0077 0.2005 0.03947 0.2896 0.01109 0.021 0.01717 0.0399 0.01365 0.042-0.01525 0.0088-0.07221-0.0261-0.17685-0.1085-0.07723-0.0606-0.09515-0.0564-0.072 0.017 0.0077 0.0246 0.01621 0.0552 0.01888 0.0681 0.032 0.1542 0.10837 0.2742 0.25973 0.4075 0.16704 0.1473 0.22869 0.1942 0.47253 0.3592 0.12267 0.083 0.1904 0.1353 0.27499 0.2118 0.05867 0.053 0.08277 0.0803 0.1024 0.1155 0.02667 0.0476 0.03093 0.0639 0.01877 0.0709-0.01813 0.0106-0.25557-0.046-0.368-0.0876-0.11243-0.0417-0.22155-0.1002-0.32896-0.1764-0.18485-0.1313-0.25109-0.2048-0.4352-0.4837-0.2128-0.322-0.26069-0.5141-0.18304-0.7338 0.02443-0.0688 0.08533-0.1791 0.12597-0.2275 0.20267-0.2417 0.31723-0.5502 0.24395-0.6563-0.01813-0.026-0.03872-0.0167-0.06293 0.0285-0.04011 0.0751-0.19189 0.2039-0.24043 0.2039-0.01419 0-0.01621-0.0043-0.02027-0.0417-0.01035-0.0976-0.01301-0.2366-0.0053-0.275 0.0089-0.0445 0.0042-0.0544-0.02283-0.048-0.04267 0.01-0.15371 0.1167-0.19339 0.1855-0.02656 0.046-0.04011 0.0416-0.0448-0.0145-0.0018-0.0238-0.0059-0.0425-0.0087-0.0416a0.043307 0.0406 0 0 1-0.01152 0.0016c-0.0034 0-0.02229 0.0341-0.04192 0.0758-0.09248 0.1958-0.13088 0.3647-0.13013 0.5718 3.2e-4 0.1386 0.01813 0.238 0.06795 0.3819 0.04075 0.1177 0.08139 0.2011 0.16405 0.3368 0.07733 0.1272 0.07723 0.127 0.18272 0.2573 0.11573 0.143 0.14315 0.1733 0.29547 0.3275 0.04875 0.0493 0.08213 0.0884 0.07936 0.0927-0.01365 0.0209-0.17771-0.0162-0.2736-0.0619-0.07893-0.0376-0.20565-0.1233-0.26699-0.1805-0.09227-0.0861-0.22464-0.2386-0.28693-0.3305-0.03381-0.0498-0.12267-0.2137-0.15488-0.2857-0.05888-0.1312-0.09035-0.2863-0.09077-0.4475-5.33e-4 -0.1718 0.02816-0.2784 0.12715-0.4706 0.06112-0.119 0.06741-0.134 0.09141-0.2203 0.0416-0.1497 0.06219-0.3806 0.03392-0.3806-0.0097 0-0.03819 0.0184-0.07467 0.0483-0.03776 0.031-0.09067 0.0536-0.11008 0.0471-0.0064-0.0021-0.0075-0.022-0.0043-0.0775 0.0043-0.0736 0.0039-0.0754-0.01877-0.1247-0.01259-0.0275-0.03232-0.071-0.04373-0.0968s-0.02507-0.0508-0.03029-0.0557c-0.02368-0.0226-0.08757 0.0286-0.13984 0.1122-0.05813 0.0928-0.0752 0.1138-0.09312 0.1138-0.0192 0-0.03083-0.0222-0.10027-0.1903-0.06891-0.1668-0.11808-0.2455-0.14699-0.235-0.03285 0.0118-0.05536 0.3788-0.03381 0.5505 0.01067 0.0861 0.01899 0.1137 0.10645 0.3554 0.10976 0.303 0.15808 0.494 0.12512 0.494-0.03403 0-0.14443-0.1357-0.2624-0.3226-0.09685-0.1533-0.1568-0.2916-0.16427-0.3783-0.0025-0.0282 0.0016-0.0762 0.01173-0.1369 0.07136-0.4313 0.08-0.5068 0.08075-0.7076 6.4e-4 -0.1393-0.0014-0.1789-0.0098-0.2003-0.02379-0.0597-0.05995-0.03-0.13099 0.1068-0.04224 0.0815-0.10965 0.2561-0.1232 0.319l-0.02048 0.095c-0.0079 0.0366-0.01664 0.0892-0.01931 0.1167-0.0027 0.0275-0.0064 0.0525-0.0082 0.0555-0.01077 0.0175-0.04608-0.053-0.0592-0.118-0.02037-0.1017-5.34e-4 -0.2854 0.04853-0.4482 0.016-0.0533 0.0576-0.1671 0.07851-0.2148 0.0077-0.0177 0.02581-0.0607 0.04032-0.0956 0.0144-0.0349 0.04203-0.096 0.06133-0.1358 0.04715-0.097 0.03435-0.1083-0.05696-0.0504-0.08896 0.0564-0.17867 0.146-0.25003 0.2496-0.04352 0.0633-0.04853 0.073-0.06677 0.1269-0.0086 0.0257-0.01824 0.0467-0.02133 0.0467-0.01099 0-0.03136-0.0422-0.04533-0.0937-0.02517-0.0928-0.0448-0.2596-0.06219-0.5304-0.0043-0.0659-0.0067-0.077-0.01749-0.079-0.0087-0.0016-0.01611 0.0054-0.02475 0.0233-0.01024 0.0213-0.01216 0.045-0.01152 0.1424 7.46e-4 0.1278 0.01557 0.2524 0.05269 0.4406 0.05109 0.2592 0.05835 0.3667 0.02507 0.3728-0.04075 0.0074-0.17877-0.1802-0.34069-0.463-0.09301-0.1622-0.27787-0.5217-0.28629-0.5565-0.01845-0.0765 0.0036-0.1424 0.09173-0.2739 0.03627-0.0542 0.03797-0.057 0.14517-0.2426 0.17664-0.3057 0.33131-0.6324 0.35435-0.7486 0.0059-0.0296-0.01035-0.0394-0.03307-0.02-0.02005 0.0171-0.208 0.2617-0.24811 0.323-0.04224 0.0643-0.06219 0.121-0.06219 0.1762 0 0.0238-0.0027 0.0448-6e-3 0.0467-0.0032 0.0019-0.01707 2e-4 -0.03072-0.0038-0.03989-0.0115-0.06901 0.0062-0.13195 0.0805-0.07381 0.087-0.10955 0.1209-0.12757 0.1209-0.01344 0-0.01504-0.0037-0.01504-0.035 0-0.078 0.05077-0.2672 0.10944-0.4074 0.04779-0.1142 0.13195-0.2854 0.15147-0.3077 0.0035-0.0042 0.03093-0.0523 0.06059-0.1068 0.02987-0.0546 0.06997-0.1192 0.08939-0.1436 0.03819-0.048 0.21589-0.2106 0.29621-0.271 0.05483-0.0413 0.06101-0.0565 0.03061-0.0752-0.09237-0.0571-0.29035 0.0907-0.53397 0.3987-0.06133 0.0777-0.10859 0.136-0.17152 0.212-0.05429 0.0656-0.05867 0.0608-0.0688-0.0751-0.0093-0.1253-0.01173-0.1338-0.03808-0.1327a0.2144 0.201 0 0 0-0.05269 0.0123 0.1344 0.126 0 0 1-0.06987 0.0074c-0.02229-0.0024-0.0416-0.0013-0.04672 0.0027-0.0067 0.0053-8e-3 0.0674-0.0054 0.2755 0.0028 0.2311 0.0017 0.2705-0.0074 0.2818-0.01408 0.0175-0.03243 0.0094-0.08704-0.0385-0.05525-0.0484-0.0768-0.0844-0.13803-0.2316-0.1456-0.3497-0.27819-0.525-0.49813-0.6585-0.04395-0.0266-0.09867-0.0482-0.19947-0.0784-0.11445-0.0344-0.12821-0.0231-0.10539 0.086 0.01653 0.079 0.02645 0.111 0.0544 0.177 0.0704 0.1657 0.16533 0.3055 0.24352 0.3587 0.03211 0.022 0.04053 0.0244 0.09195 0.027 0.04075 2e-3 0.06613 0.0074 0.09067 0.0188 0.03563 0.0166 0.12917 0.0894 0.16128 0.1254 0.032 0.036 0.05653 0.0877 0.0608 0.1287 0.0043 0.0415 0.0192 0.0753 0.04672 0.1065 0.01579 0.0179 0.03488 0.0458 0.12693 0.1861a1.4715 1.3795 0 0 1 0.168 0.373c0.0128 0.0471 0.01419 0.0602 0.0068 0.0644-5e-3 3e-3 -0.01259 4e-3 -0.01685 0.0024-0.0096-0.0036-0.05579-0.062-0.1552-0.196-0.10165-0.1372-0.19861-0.238-0.31936-0.3325-0.07723-0.0604-0.19317-0.1183-0.2896-0.1446-0.07189-0.0197-0.08395-0.0206-0.09568-0.0073-0.01163 0.0132-0.0041 0.0437 0.02421 0.097 0.04213 0.0797 0.0672 0.1129 0.19435 0.2571 0.12501 0.1418 0.20693 0.2245 0.45952 0.4638a20.123 18.865 0 0 1 0.26379 0.2531c0.08864 0.0908 0.14741 0.1752 0.33973 0.4881 0.04949 0.0805 0.11093 0.1754 0.11776 0.1819 0.0029 0.0027 0.02773 0.0105 0.05525 0.0174 0.07221 0.0178 0.12459 0.0491 0.19723 0.1176 0.05867 0.0553 0.06784 0.0678 0.11136 0.1504 0.02752 0.0523 0.05824 0.1238 0.07307 0.1703 0.02443 0.076 0.02581 0.0861 0.02923 0.2016l0.0036 0.1216 0.05237 0.0887c0.06677 0.1132 0.12971 0.2354 0.12971 0.252 0 7e-3 -0.0029 0.0146-0.0064 0.0166s-0.04725-4e-3 -0.09728-0.0133c-0.12555-0.0236-0.16885-0.0265-0.2064-0.0137-0.03307 0.0113-0.04885 0.0077-0.0736-0.0165-0.03189-0.0314-0.14891-0.093-0.17664-0.093-0.0192 0-0.02667 0.0203-0.01696 0.0468 0.0047 0.0128 0.02507 0.0465 0.04533 0.0748 0.03733 0.0523 0.0416 0.0617 0.03061 0.0682-0.0035 2e-3 -0.05643 7e-4 -0.11765-3e-3 -0.12416-0.0075-0.13088-6e-3 -0.13088 0.0307 0 0.0534 0.04555 0.1136 0.13387 0.1773 0.04117 0.0296 0.04299 0.0375 0.0099 0.0425-0.09195 0.0139-0.14379 0.0323-0.14379 0.0512 0 0.016 0.02827 0.0275 0.11317 0.046 0.08448 0.0183 0.12 0.0353 0.17323 0.083 0.12896 0.1156 0.31179 0.1646 0.60981 0.1632 0.08949-4e-4 0.16352 0.0169 0.26133 0.061 0.06443 0.029 0.07232 0.0365 0.15829 0.1515 0.07467 0.1 0.18389 0.2425 0.23701 0.3094 0.0272 0.0342 0.07499 0.096 0.10603 0.137 0.03115 0.0412 0.09003 0.1158 0.13088 0.166 0.09216 0.1131 0.1344 0.1688 0.1344 0.1772 0 0.01-0.01333 0.0078-0.07787-0.0129-0.13781-0.0443-0.54421-0.2345-0.672-0.3145-0.02133-0.0134-0.05792-0.0345-0.08128-0.0469-0.02347-0.0123-0.06656-0.038-0.096-0.057-0.02933-0.019-0.07872-0.0487-0.10965-0.0659-0.06656-0.037-0.05227-0.0283-0.15211-0.0921-0.083753-0.0535-0.13303-0.087-0.25175-0.1716-0.03829-0.0273-0.08235-0.0582-0.09792-0.0687a2.7414 2.5701 0 0 1-0.1696-0.122 7.5907 7.1163 0 0 1-0.23061-0.1967c-0.04533-0.0425-0.16789-0.2036-0.18315-0.2409-0.0091-0.022-0.01739-0.0638-0.02112-0.1058-0.0085-0.0966 0.0019-0.1937 0.04544-0.4213 0.0544-0.2848 0.06421-0.505 0.02827-0.638-0.02379-0.0877-0.0832-0.1697-0.11605-0.1599-0.02827 0.0085-0.08981 0.1432-0.10987 0.241-0.02411 0.1174-0.02219 0.2052 0.01141 0.5002 0.02347 0.2075 0.01728 0.448-0.01237 0.4711-0.0208 0.0164-0.06795-0.03-0.09525-0.094-0.01685-0.0394-0.03339-0.0903-0.07701-0.237-0.0672-0.2263-0.08715-0.2631-0.19979-0.3704-0.04821-0.046-0.09557-0.0925-0.10517-0.1035-0.0096-0.011-0.03808-0.0375-0.06336-0.0588-0.0816-0.069-0.18059-0.1872-0.21909-0.2617-0.06955-0.1345-0.07627-0.205-0.03979-0.4139 0.01408-0.0807 0.0288-0.1634 0.03275-0.1835 0.0067-0.0349 0.01067-0.063 0.02901-0.2037 0.01451-0.1125-0.0061-0.3307-0.03627-0.384-0.0112-0.0196-0.0368-0.016-0.06123 0.0085-0.06592 0.0663-0.11712 0.2015-0.13717 0.3622-0.0093 0.0741-9e-3 0.2804 5.33e-4 0.3595 0.0093 0.0778 0.0064 0.0921-0.01483 0.074-0.01621-0.014-0.05216-0.0681-0.08651-0.1307-0.0128-0.0233-0.03627-0.0635-0.05205-0.0892a6.0764 5.6966 0 0 1-0.08683-0.1513 2.7499 2.578 0 0 0-0.06645-0.1152c-0.0046-0.0058-0.03157-0.0166-0.06016-0.024a0.6176 0.579 0 0 1-0.09461-0.034c-0.02933-0.014-0.04501-0.0182-0.05013-0.0134-7e-3 0.0068 0.04907 0.1224 0.13141 0.2704 0.01867 0.0335 0.05184 0.0948 0.07381 0.1362 0.03755 0.0711 0.03915 0.076 0.02773 0.0868-0.0096 9e-3 -0.02507 0.0114-0.07371 0.0115-0.0688 0-0.07573 0.0023-0.08245 0.0272a0.39573 0.371 0 0 1-0.02197 0.0513c-0.02837 0.0555-0.02624 0.06 0.04096 0.0834 0.03211 0.0112 0.07083 0.0244 0.08608 0.0294 0.03424 0.0111 0.03947 0.0229 0.01483 0.0334-0.02955 0.0127-0.18773-0.0065-0.33963-0.0412-0.10421-0.0239-0.21621-0.0407-0.25685-0.0387-0.035093 0.0017-0.040533 0.0038-0.042453 0.0164-0.00149 0.0099 0.00533 0.0197 0.021547 0.0314 0.033813 0.0244 0.15424 0.0684 0.22848 0.0835l0.13141 0.0268c0.09707 0.0198 0.20448 0.0331 0.30485 0.0377 0.10581 5e-3 0.13099 0.0126 0.21899 0.0673 0.05045 0.0315 0.08032 0.0562 0.11467 0.095 0.0256 0.0289 0.10155 0.1033 0.16896 0.1653 0.13013 0.1198 0.20512 0.1938 0.24619 0.2429 0.10731 0.1281 0.19072 0.2969 0.19328 0.3906l8.53e-4 0.0334-0.02475-2e-3c-0.01365-1e-3 -0.05184-0.0145-0.08491-0.03-0.05557-0.026-0.06187-0.031-0.08256-0.0663-0.03947-0.0671-0.11221-0.1424-0.18485-0.1912-0.06784-0.0456-0.20672-0.1045-0.28437-0.1207a9.6779 9.073 0 0 1-0.09547-0.0206c-0.07605-0.0168-0.1856-0.0315-0.29717-0.0399-0.05056-0.0038-0.14123-0.0112-0.2016-0.0165-0.15435-0.0136-0.16971-0.0133-0.16971 3e-3 0 0.0338 0.13088 0.1026 0.27968 0.147 0.05045 0.015 0.13781 0.0412 0.19424 0.0582 0.05643 0.0169 0.136 0.044 0.17685 0.0603 0.04085 0.0163 0.09813 0.0385 0.12736 0.0494 0.10325 0.0384 0.26571 0.1184 0.32373 0.1592 0.04907 0.0346 0.07947 0.0664 0.07947 0.0832 0 0.0083-0.02315 0.0024-0.07893-0.0203-0.08395-0.034-0.29376-0.1006-0.37867-0.12-0.12128-0.0276-0.24501-0.0428-0.35019-0.0429-0.1376 0-0.15637 0.0103-0.11115 0.062 0.06187 0.0708 0.23787 0.1389 0.46976 0.1817 0.18688 0.0345 0.48533 0.108 0.61003 0.1503 0.01259 0.0042 0.04907 0.0271 0.08128 0.0509 0.03221 0.0237 0.13813 0.1 0.23541 0.1694 0.2048 0.1462 0.22112 0.159 0.35435 0.276 0.09685 0.0852 0.16821 0.158 0.18635 0.1903 0.01387 0.0245-4.27e-4 0.0274-0.06571 0.0136-0.15819-0.0335-0.31403-0.0862-0.48213-0.1628-0.10229-0.0467-0.1696-0.089-0.26293-0.1653-0.112-0.0916-0.14891-0.1153-0.26709-0.1718-0.17173-0.082-0.34304-0.1315-0.47861-0.1384-0.0864-0.0044-0.16213 0.0017-0.18059 0.0144-0.02784 0.0192 0.01952 0.0644 0.11712 0.1117 0.09664 0.0469 0.16032 0.1045 0.15477 0.14-0.0018 0.0117-0.0097 0.0163-0.03893 0.0224-0.03861 0.0082-0.07296 0.0256-0.07296 0.037 0 0.0216 0.03285 0.0618 0.07413 0.091 0.04736 0.0335 0.18421 0.1022 0.20352 0.1022 0.0059 0 0.01451 0.0045 0.01941 0.01 0.01024 0.0116 0.01248 0.0106-0.06368 0.0272-0.12405 0.027-0.24768 0.0781-0.25963 0.1075-0.0061 0.015 0.01013 0.0249 0.07221 0.044 0.11392 0.0353 0.23296 0.0606 0.30421 0.0648 0.03883 0.0023 0.20437 5e-4 0.36779-4e-3 0.36725-0.0103 0.51285-5e-3 0.70741 0.0253 0.24341 0.038 0.46475 0.1142 0.62549 0.2152 0.08245 0.052 0.20715 0.1417 0.21493 0.1548 0.01088 0.0183-0.01387 0.021-0.30987 0.0328-0.52405 0.021-0.60117 0.0131-0.97973-0.1007-0.20992-0.0631-0.28235-0.0819-0.34805-0.09-0.05579-0.0069-0.07061-0.0068-0.07957 2e-4 -0.01675 0.0131-0.01365 0.0227 0.02069 0.0625 0.03339 0.0386 0.06741 0.0937 0.06741 0.1092 0 0.0147-0.02549 0.0206-0.13589 0.0316-0.10837 0.0108-0.16501 0.0258-0.1936 0.051-0.02133 0.019-0.016 0.0288 0.02891 0.0532 0.06965 0.0375 0.10709 0.0997 0.07648 0.1267-0.01387 0.0122-0.08288 0.0336-0.28267 0.0875l-0.14933 0.0404c-0.02613 0.0071-0.0304 0.024-0.01045 0.041 0.01675 0.0144 0.11232 0.0551 0.15883 0.0678 0.06976 0.019 0.19264 0.0423 0.28427 0.0539 0.07179 9e-3 0.12107 0.0107 0.22987 0.0078 0.07627-2e-3 0.15125-5e-3 0.16683-0.0066l0.07787-0.0078c0.0272-0.0027 0.08928-0.0125 0.13792-0.0217s0.09803-0.0183 0.10965-0.02c0.02976-0.0044 0.26635-0.073 0.32192-0.0933l0.14144-0.0524c0.12917-0.0481 0.15904-0.0569 0.31477-0.0923 0.29888-0.0678 0.46432-0.0977 0.5408-0.0977 0.04331 0 0.22251 0.0218 0.27627 0.0336 0.05696 0.0126 0.12949 0.0333 0.2016 0.0577 0.1008 0.034 0.13088 0.0483 0.13088 0.062 0 0.0104-0.01333 0.012-0.13973 0.0156-0.21611 0.0063-0.3488 0.0261-0.61365 0.0916-0.09824 0.0243-0.2912 0.0832-0.39968 0.122-0.12117 0.0433-0.19765 0.0716-0.22987 0.085-0.01952 8e-3 -0.06976 0.0278-0.11179 0.044-0.09099 0.035-0.2592 0.1137-0.34805 0.1627-0.03499 0.0193-0.08213 0.0452-0.10464 0.0574-0.14048 0.0765-0.29504 0.1957-0.29504 0.2276 0 0.0126 0.0065 0.0168 0.04064 0.0258 0.15691 0.0417 0.15221 0.038 0.11456 0.0916-0.04075 0.058-0.12203 0.1207-0.24757 0.1909-0.15904 0.0888-0.16619 0.0943-0.14667 0.1113 0.03008 0.0263 0.13472 0.0304 0.24608 0.0097 0.03947-0.0073 0.09867-0.0133 0.13141-0.0133h0.05963v0.0185c0 0.0546-0.05195 0.1735-0.11275 0.2585-0.03488 0.0487-0.03819 0.0768-0.0092 0.0768 0.0057 0 0.02987-0.0048 0.05365-0.0106z" fill="#00843d" style="fill:#5c9e31;stroke-width:.10328"/>
  <path d="m22.62 32.167c0.04309-0.0205 0.05547-0.0528 0.03915-0.1024-0.02016-0.0612-0.0144-0.0693 0.03445-0.0489 0.03061 0.0127 0.03435 0.013 0.05013 0.0033 0.02144-0.0133 0.02987-0.0283 0.03595-0.0637 0.0026-0.0154 0.0092-0.0297 0.01451-0.0316 0.0053-2e-3 0.02453 0.0072 0.04245 0.0204 0.05771 0.0425 0.10208 0.038 0.12779-0.0127 0.01067-0.0212 0.01067-0.0249 3.2e-4 -0.0454-0.01152-0.0227-0.0272-0.0313-0.0816-0.0444-0.01653-4e-3 -0.03008-0.0103-0.03008-0.014 0-0.0039 0.01163-0.0172 0.02571-0.0298 0.02283-0.0203 0.02528-0.0256 0.02155-0.0469-0.0051-0.0298-0.01461-0.041-0.04555-0.0531-0.02987-0.0119-0.02709-0.0213 0.01301-0.0434 0.04448-0.0245 0.05344-0.045 0.03861-0.088-0.0064-0.0185-0.0092-0.036-6e-3 -0.0387s0.01749-0.0085 0.032-0.0128c0.03136-0.0095 0.06933-0.048 0.06933-0.0705 0-0.048-0.03115-0.0661-0.10773-0.0625-0.07595 0.0036-0.12032 0.0266-0.20373 0.1056-0.08459 0.0801-0.13333 0.16-0.18123 0.2973-0.03029 0.0868-0.03285 0.0997-0.03616 0.1803-0.0066 0.1617 0.01451 0.217 0.08288 0.217 0.01973 0 0.04501-6e-3 0.06411-0.015zm-10.025-0.035c0.024-0.0117 0.03413-0.0369 0.04181-0.1041 0.01163-0.103-0.01109-0.2358-0.06101-0.3566-0.03157-0.0766-0.06208-0.1242-0.12277-0.192-0.08224-0.0917-0.1504-0.1317-0.23264-0.1364-0.0512-3e-3 -0.07189 0.0042-0.09408 0.0324-0.01205 0.0153-0.0128 0.0209-0.0059 0.0398 0.01173 0.0319 0.03349 0.0507 0.07253 0.063 0.03787 0.0118 0.03829 0.0124 0.02379 0.0364-0.01259 0.0207-0.01355 0.0607-0.0018 0.0747 0.0049 0.0058 0.0224 0.0185 0.03915 0.0282 0.01675 0.0098 0.02837 0.0206 0.02603 0.0242-0.0023 0.0036-0.01632 0.0124-0.03115 0.0195-0.02923 0.0141-0.03584 0.024-0.03584 0.0545 0 0.0136 0.0078 0.0274 0.02475 0.0439 0.02773 0.027 0.02411 0.042-0.01035 0.042-0.02528 0-0.07648 0.0354-0.08213 0.0568-0.0047 0.0173 0.01003 0.0456 0.03189 0.0615 0.02005 0.0146 0.05269 0.0095 0.0928-0.0146 0.02123-0.0128 0.04224-0.0233 0.04672-0.0234 0.01013-2e-4 0.01664 0.0154 0.01664 0.04 0 0.0247 0.03136 0.06 0.05333 0.06 0.0094 0 0.02816-0.0051 0.04203-0.0113 0.0352-0.0159 0.04352-0.0062 0.02901 0.034-0.01301 0.0362-0.0144 0.0726-0.0035 0.0918 0.0093 0.0164 0.07339 0.0455 0.10059 0.0456a0.10347 0.097 0 0 0 0.04-0.0098zm11.469-0.1305c0.01792-0.017 0.0208-0.0239 0.01728-0.0417-0.01035-0.0516-0.01451-0.0477 0.05547-0.0528 0.11211-0.0083 0.16853-0.0313 0.20213-0.0828 0.01173-0.018 0.01429-0.031 0.01248-0.0643l-0.0023-0.0418h0.12032c0.09312 0 0.12373-0.0022 0.13568-0.0097 0.0608-0.038 0.02389-0.1355-0.07083-0.1866-0.05259-0.0284-0.088-0.0325-0.12693-0.0147-0.03157 0.0144-0.10805 0.086-0.1536 0.1436-0.01376 0.0172-0.06933 0.0704-0.12384 0.1182-0.09792 0.0858-0.16256 0.1512-0.18027 0.1824-0.01312 0.0233-0.0041 0.047 0.02272 0.0595 0.03691 0.0172 0.06688 0.0141 0.09173-0.0093zm-12.92-0.0508c0.02027-0.0121 0.02539-0.0242 0.01963-0.046-0.0045-0.017-0.40629-0.41-0.45077-0.441a0.082773 0.0776 0 0 0-0.05163-0.0159c-0.08 4e-4 -0.1808 0.0832-0.1808 0.1485 0 0.058 0.02485 0.0677 0.17333 0.068l0.10613 4e-4 -0.0025 0.041c-0.0028 0.0483 0.0085 0.0735 0.04448 0.0993 0.03893 0.028 0.09291 0.044 0.16288 0.048 0.07659 0.0045 0.08267 0.0077 0.07275 0.0385-0.01941 0.0595 0.04555 0.0956 0.10645 0.0592zm12.534-0.1026c0.07072-0.0115 0.11509-0.0268 0.16032-0.0553 0.07275-0.0459 0.20992-0.1843 0.26805-0.2705 0.01152-0.0172 0.03072-0.0606 0.04256-0.0965 0.01835-0.0556 0.02144-0.0755 0.02123-0.1345-4.27e-4 -0.08-0.01643-0.15-0.04053-0.1769-0.05259-0.059-0.23029-0.0337-0.24917 0.0355-0.0074 0.027-0.02485 0.029-0.09749 0.011-0.08437-0.021-0.12203-0.0235-0.16661-0.0112-0.04597 0.0126-0.06155 0.0268-0.07051 0.0647-0.01013 0.0424 8e-3 0.0933 0.04725 0.1329 0.01728 0.0174 0.03147 0.035 0.03147 0.039s-0.01408 0.0132-0.03125 0.0204c-0.03413 0.0142-0.04277 0.0252-0.05259 0.0665-0.01184 0.0497 0.01621 0.1339 0.06229 0.1866 0.01184 0.0135 0.02155 0.027 0.02155 0.0298s-0.01632 0.0051-0.03616 0.0051c-0.03157 0-0.03904 0.0028-0.06005 0.0227-0.02027 0.0191-0.02411 0.0275-0.02411 0.0529 0 0.0684 0.06165 0.096 0.17387 0.0778zm-12.111-0.0547a0.091413 0.0857 0 0 0 0.03157-0.0289c0.03648-0.0556-0.0052-0.1164-0.07968-0.1165-0.03637 0-0.04501-0.0115-0.02091-0.028 0.03883-0.0267 0.07925-0.1105 0.07925-0.1642 0-0.0428-0.01856-0.0752-0.05259-0.0917-0.01525-0.0075-0.02912-0.0175-0.03093-0.0224-0.0016-0.0048 0.01131-0.0228 0.0288-0.0399 0.03904-0.038 0.04565-0.0498 0.0512-0.0916 0.01259-0.0965-0.08256-0.1322-0.24704-0.0927-0.07616 0.0183-0.07968 0.0176-0.09227-0.018-0.0055-0.0159-0.01728-0.0259-0.04768-0.0408-0.03413-0.0169-0.04885-0.02-0.09685-0.0207-0.04693-6e-4 -0.05984 0.0016-0.07637 0.0131-0.02859 0.02-0.04907 0.0587-0.06165 0.117-0.02667 0.1225 0.01323 0.2584 0.10795 0.3686 0.02197 0.0255 0.04981 0.0587 0.06187 0.0738 0.02592 0.0322 0.11445 0.1081 0.15893 0.1363 0.08 0.0505 0.22325 0.0738 0.2864 0.0466zm13.483-0.1314a0.078187 0.0733 0 0 0 0.04064-0.0359c0.02667-0.0528 0.0041-0.1779-0.03861-0.2143-0.02037-0.0174-0.02581-0.0188-0.05995-0.0155-0.02059 2e-3 -0.04629 0.0076-0.05696 0.0125-0.02635 0.012-0.05163 0.0556-0.05173 0.0894-3.2e-4 0.0631 0.04565 0.1428 0.0944 0.1637 0.03595 0.0154 0.03669 0.0154 0.07221 1e-4zm0.33536-0.0272c0.03051-0.0288 0.02773-0.0787-0.0081-0.1454-0.05387-0.1002-0.1568-0.162-0.20267-0.1216-0.04459 0.0393 0.0112 0.1635 0.11189 0.2489 0.04192 0.0355 0.07413 0.0414 0.09888 0.018zm-15.253-0.0305c0.07467-0.0292 0.12309-0.1446 0.08832-0.2099-0.0192-0.036-0.05259-0.0535-0.10219-0.0535-0.03413 0-0.0448 0.0028-0.05792 0.0153-0.02208 0.0208-0.04693 0.1009-0.04693 0.1513 0 0.0528 0.01387 0.0778 0.05184 0.0941 0.03605 0.0155 0.03456 0.0154 0.06699 0.0027zm-0.33387-0.0271c0.061333-0.0275 0.14891-0.1462 0.1568-0.2126 0.00725-0.0598-0.0384-0.0822-0.10347-0.0508-0.062507 0.03-0.13472 0.1314-0.1408 0.1975-0.00267 0.0301-7.467e-4 0.0358 0.018347 0.0551 0.024 0.0243 0.0352 0.026 0.069227 0.0108z" fill="#ffa300" style="fill:#f1b31c;stroke-width:.10328"/>
  <path d="m25.129 31.416c0.0051-0.0197-0.0044-0.039-0.01941-0.039-0.0128 0-0.01653 0.0254-0.0065 0.043 0.01056 0.0187 0.02027 0.0172 0.02581-4e-3z" fill="#121212" style="stroke-width:.10328"/>
  <path d="m10.021 31.341c0-0.015-0.0061-0.0203-0.01835-0.0158-0.010134 0.0036-0.01376 0.0297-0.00533 0.0377 0.00704 0.0066 0.023681-0.0089 0.023681-0.022zm15.647 0.0047c0.06933-0.0314 0.03019-0.1286-0.0624-0.1548-0.02133-6e-3 -0.07563-0.0128-0.12053-0.015-0.07872-0.0039-0.08213-0.0035-0.10112 0.012-0.02827 0.0229-0.03264 0.0617-0.01045 0.0925 0.02293 0.0319 0.06795 0.0602 0.11296 0.071 0.04416 0.0106 0.15317 0.0072 0.18155-0.0057zm-16.002-0.0665c0.039467-0.0137 0.076587-0.0437 0.087467-0.0706 0.00853-0.0215 0.00107-0.0578-0.014933-0.0715-0.029013-0.0247-0.18837-0.0176-0.25227 0.0112-0.081173 0.0367-0.0912 0.13-0.015253 0.142 0.074027 0.0116 0.14059 0.0078 0.19488-0.011zm15.361-0.0765c0.05632-0.05 0.05515-0.1393-0.0028-0.2202-0.048-0.067-0.15445-0.075-0.18517-0.0139-0.01941 0.0387-0.02197 0.0751-0.0085 0.122 0.01525 0.053 0.04331 0.0908 0.08715 0.1174 0.04149 0.025 0.07701 0.0234 0.10933-0.0053z" fill="#ffa300" style="fill:#f1b31c;stroke-width:.10328"/>
  <path d="m25.128 31.193c0.0067-0.0104-0.01493-0.0287-0.02827-0.0239-0.0061 0.0023-0.01109 0.0102-0.01109 0.0176 0 0.01 0.0046 0.0136 0.01728 0.0136 0.0095 0 0.01941-0.0033 0.02208-0.0073z" fill="#121212" style="stroke-width:.10328"/>
  <path d="m10.209 31.15c0.04437-0.0282 0.06101-0.0494 0.07573-0.0966 0.03925-0.1245-0.02453-0.2092-0.12459-0.1655-0.06379 0.0277-0.09013 0.0604-0.10453 0.1292-0.01749 0.0842 0.02688 0.1538 0.0992 0.1556 0.0098 2e-4 0.03413-0.01 0.05419-0.0227zm15.081 0.0156c0.07669-0.02 0.11776-0.1248 0.07275-0.1855-0.02944-0.0396-0.09963-0.0737-0.15232-0.0739-0.03275-2e-4 -0.04043 0.0027-0.06528 0.0239-0.03008 0.0257-0.04256 0.0548-0.04267 0.1 0 0.029 0.0224 0.098 0.03712 0.115 0.02304 0.026 0.09269 0.0356 0.1504 0.0205z" fill="#ffa300" style="fill:#f1b31c;stroke-width:.10328"/>
  <path d="m10.032 31.14c0.0062-0.0096-0.0144-0.029-0.02453-0.0232-0.0043 0.0025-0.00779 0.0104-0.00779 0.0175 0 0.0142 0.024 0.0184 0.03232 0.0057z" fill="#121212" style="stroke-width:.10328"/>
  <path d="m9.9632 31.102c0.029333-0.0201 0.045547-0.0584 0.04864-0.115 3e-3 -0.0563-0.0083-0.086-0.04128-0.1088-0.06144-0.0426-0.20149 0.0025-0.22613 0.0726-0.024107 0.0693 0.01536 0.14 0.0912 0.1633 0.031253 0.0095 0.10667 0.0024 0.12757-0.012z" fill="#ffa300" style="fill:#f1b31c;stroke-width:.10328"/>
  <path d="m25.099 30.94c0.03627-0.0484 0.05333-0.0568 0.11563-0.0568 0.04907 1e-4 0.05899 0.0025 0.10357 0.025 0.02709 0.0138 0.05365 0.025 0.05888 0.025 0.01461 0 0.18784-0.1183 0.25973-0.1774 0.09483-0.078 0.36384-0.3331 0.40779-0.3867 0.05355-0.0653 0.12608-0.1626 0.13493-0.1808a0.043733 0.041 0 0 0 0.0028-0.0265c-6e-3 -0.0147-0.04992-0.0097-0.12853 0.0145-0.14027 0.0432-0.18432 0.0694-0.40149 0.239-0.05131 0.04-0.11083 0.0849-0.13227 0.0998-0.02133 0.015-0.09621 0.0798-0.16619 0.1443a8.4125 7.8867 0 0 1-0.21696 0.1925c-0.04928 0.0415-0.0912 0.0794-0.09312 0.0843-0.0047 0.0113 0.01525 0.0386 0.02571 0.0353 0.0044-0.0014 0.01771-0.0155 0.02955-0.0314zm-15.026-0.0346c0.01024-0.0154 0.0017-0.0293-0.03211-0.0523-0.016743-0.0114-0.10389-0.0878-0.1936-0.1699-0.15851-0.145-0.21397-0.1914-0.40235-0.3372-0.10837-0.0839-0.17173-0.126-0.23573-0.1562-0.085013-0.0404-0.21365-0.084-0.24768-0.0843-0.052267-3e-4 -0.0128 0.0653 0.15115 0.2503 0.15936 0.1799 0.57429 0.524 0.63179 0.524 0.00693 0 0.03168-9e-3 0.055147-0.02 0.09824-0.0464 0.19168-0.0344 0.22613 0.029 0.01771 0.0327 0.03285 0.038 0.04725 0.0166z" fill="#00843d" style="fill:#5c9e31;stroke-width:.10328"/>
  <path d="m22.83 30.679c0.07371-0.0337 0.07787-0.128 9e-3 -0.202a0.144 0.135 0 0 0-0.04235-0.031c-0.03552-0.0139-0.02709-0.0292 0.03008-0.055 0.02816-0.0128 0.06251-0.0337 0.07627-0.0465 0.02912-0.027 0.04629-0.0692 0.03915-0.0961-0.0067-0.0251-0.048-0.0607-0.08021-0.0691-0.03947-0.0103-0.11904-0.0084-0.16576 4e-3 -0.02272 6e-3 -0.0432 0.0092-0.04544 7e-3 -0.0021-2e-3 -4.26e-4 -0.0191 0.0037-0.0379 0.024-0.1056-9e-3 -0.1974-0.08416-0.2342-0.02571-0.0125-0.09813-0.0114-0.12469 2e-3 -0.06251 0.0317-0.07787 0.1713-0.02667 0.2425 0.01888 0.0262 0.02176 0.043 0.0075 0.043-5e-3 0-0.032-0.0075-0.05995-0.0167-0.12512-0.0413-0.20651-0.0086-0.19755 0.0793 0.0029 0.028 0.0075 0.0368 0.02688 0.0522 0.03339 0.0262 0.08469 0.0405 0.16171 0.045 0.04107 0.0023 0.06773 0.0067 0.06933 0.0115 0.0015 0.0043-0.01717 0.0178-0.0416 0.03-0.05365 0.027-0.12032 0.0838-0.14507 0.1238a0.10315 0.0967 0 0 0 0.0078 0.1121c0.02496 0.0309 0.05227 0.0434 0.09461 0.0434 0.02773 0 0.04-0.0039 0.06048-0.0192 0.03659-0.0274 0.07275-0.0705 0.12096-0.144 0.02304-0.0352 0.04395-0.0616 0.04661-0.0588 0.0026 0.0028 0.01013 0.0213 0.01685 0.0412 0.03157 0.094 0.12725 0.1843 0.19808 0.187 0.0075 3e-4 0.02752-0.0058 0.04448-0.0135zm-10.001-0.029c0.02997-0.0147 0.06187-0.0526 0.06731-0.0801 0.01024-0.0512-0.04587-0.1214-0.14091-0.1762-0.03829-0.022-0.05653-0.0366-0.05653-0.045 0-0.0113 0.0067-0.0127 0.06795-0.0139 0.03744-7e-4 0.08043-0.0045 0.09557-0.0084 0.08896-0.023 0.12011-0.0927 0.06667-0.1492-0.01856-0.0197-0.024-0.0214-0.07211-0.0236a0.24309 0.2279 0 0 0-0.09717 0.0116c-0.07424 0.0227-0.08907 0.015-0.05483-0.0284 0.024-0.0305 0.03275-0.0605 0.03253-0.1107-3.2e-4 -0.0635-0.02251-0.112-0.05973-0.13-0.06453-0.0315-0.1472-0.0076-0.18507 0.0534-0.02293 0.0371-0.03008 0.1078-0.01707 0.17 0.0046 0.0224 0.0065 0.0425 0.0043 0.0447-0.0023 0.0022-0.02667-0.0016-0.05408-0.0083-0.072-0.0176-0.16-0.0114-0.19883 0.014-0.03264 0.0213-0.04107 0.0341-0.04107 0.0623 0 0.0494 0.04544 0.0984 0.12384 0.1337 0.02571 0.0116 0.04555 0.0246 0.04405 0.0289s-0.01387 0.013-0.02773 0.0191c-0.03371 0.0152-0.05813 0.044-0.07648 0.0904-0.03189 0.0802 0.01045 0.1487 0.09195 0.1487 0.03925 0 0.07456-0.0185 0.11765-0.0615 0.04096-0.0408 0.05653-0.066 0.07307-0.1183 0.0063-0.02 0.01515-0.0374 0.01963-0.0388 0.0046-0.0015 0.01653 0.0118 0.02667 0.0295 0.03595 0.0628 0.05291 0.0861 0.09461 0.1295 0.0608 0.0634 0.1072 0.0803 0.15573 0.0566zm11.93-0.0834c0.04864-0.0158 0.08896-0.0415 0.13547-0.0866 0.01941-0.0187 0.03925-0.034 0.04416-0.034 0.0049 0 0.01515 0.0116 0.02283 0.0257 0.02923 0.0541 0.09547 0.0921 0.17227 0.0989 0.05547 0.0049 0.0864-0.0078 0.10123-0.0414 0.02283-0.0517 0.0069-0.0876-0.07819-0.1757-0.06176-0.0638-0.07392-0.0856-0.04448-0.0791 0.12608 0.0274 0.12587 0.0274 0.17301 0.0198 0.06613-0.0107 0.10709-0.0324 0.13547-0.0721 0.02208-0.0307 0.02347-0.036 0.02037-0.0741-0.0042-0.0495-0.02667-0.0908-0.06027-0.1104-0.04853-0.0283-0.1312-0.0114-0.25429 0.052-0.03243 0.0166-0.064 0.0292-0.0704 0.028-0.0066-0.0011-0.0208-0.0226-0.03339-0.0502a0.40832 0.3828 0 0 0-0.13461-0.1587c-0.128-0.0863-0.2848-0.0845-0.33323 0.0037-0.02645 0.0483 0.0035 0.1187 0.08267 0.1941 0.05931 0.0566 0.09909 0.084 0.17867 0.1234 0.0608 0.03 0.06101 0.0353 0.0021 0.0454-0.04555 0.0077-0.13344 0.0375-0.18379 0.0622-0.06464 0.0318-0.11573 0.0842-0.12224 0.1257-0.0062 0.0386 0 0.0744 0.01547 0.0906 0.03211 0.0335 0.14773 0.04 0.23115 0.0128zm-14.19-0.0364c0.03381-0.0134 0.04661-0.0342 0.04661-0.0759 0-0.0618-0.02709-0.102-0.0992-0.1475-0.04331-0.0273-0.13995-0.0609-0.21739-0.0754-0.02432-0.0046-0.04416-0.0115-0.04416-0.0154s0.01824-0.0138 0.04064-0.022c0.06059-0.0222 0.12565-0.065 0.19072-0.1253 0.06688-0.0621 0.09387-0.1079 0.09387-0.1592 1.06e-4 -0.0288-0.0029-0.0354-0.02667-0.0578-0.09941-0.0938-0.3136-0.031-0.42005 0.1232-0.01493 0.0217-0.03093 0.051-0.03541 0.0651-0.01419 0.0449-0.01899 0.045-0.10688 0.0032-0.17653-0.084-0.24107-0.0852-0.28405-0.0052-0.03328 0.0619-0.030613 0.1113 0.00811 0.1547 0.029973 0.0337 0.098667 0.0596 0.15776 0.0595 0.02848 0 0.10784-0.013 0.1424-0.0234 0.02869-0.0086 0.01152 0.022-0.0432 0.077-0.086187 0.0866-0.10837 0.1385-0.078933 0.1841 0.014507 0.0223 0.053013 0.0429 0.08032 0.0429 0.026667 0 0.08992-0.0196 0.11797-0.0365 0.03371-0.0204 0.0688-0.0559 0.07787-0.0787 0.0041-0.01 0.01141-0.0183 0.01643-0.0183 5e-3 0 0.03115 0.0215 0.05813 0.0478 0.0512 0.0495 0.09632 0.0746 0.1536 0.0852 0.05024 0.0094 0.14539 0.0081 0.17152-0.0021z" fill="#ffa300" style="fill:#f1b31c;stroke-width:.10328"/>
  <path d="m25.161 30.042c0.10304-0.0475 0.15573-0.0574 0.21525-0.0404 0.0384 0.011 0.0448 0.011 0.08917 0.0013 0.04885-0.0107 0.14933-0.0502 0.18315-0.072a0.0896 0.084 0 0 1 0.02347-0.012c0.01387 0 0.10165-0.0648 0.16715-0.1232 0.04128-0.037 0.08576-0.0732 0.09867-0.0805 0.06027-0.0343 0.02496-0.0462-0.13472-0.0455-0.22187 1e-3 -0.40565 0.046-0.55723 0.1363-0.02496 0.0149-0.04725 0.0252-0.0496 0.023-0.0049-0.0046 0.0057-0.0348 0.03392-0.0971 0.06731-0.149 0.11435-0.2568 0.13088-0.3004 0.01707-0.045 0.05312-0.1676 0.06347-0.2153 0.0021-0.0101 0.0079-0.0183 0.01259-0.0183 0.0048 0 0.03264 0.038 0.06187 0.0845 0.05696 0.0907 0.11445 0.1533 0.1728 0.1882 0.08256 0.0494 0.08 0.0142-9e-3 -0.1226a1.5008 1.407 0 0 1-0.03957-0.0653 3.5552 3.333 0 0 0-0.08288-0.1302c-0.08373-0.1264-0.08576-0.1337-0.05408-0.1966 0.03872-0.0768 0.08011-0.1146 0.27136-0.248 0.07083-0.0495 0.23467-0.1827 0.32021-0.2604 0.08341-0.0758 0.20213-0.2318 0.19787-0.26-0.0032-0.0205-0.0352-0.0218-0.11029-0.0044-0.10421 0.024-0.23616 0.0907-0.33141 0.1672-0.07179 0.0577-0.12053 0.0985-0.19307 0.1616-0.04117 0.0358-0.07957 0.0643-0.08544 0.0634-0.01579-0.0026-0.01653-0.0387-0.0038-0.1678 0.01291-0.1298 0.02485-0.22 0.04715-0.3546 0.0192-0.1164 0.01963-0.1388 0.0032-0.1789-0.01835-0.0441-0.03243-0.05-0.0704-0.0289a0.20352 0.1908 0 0 0-0.03819 0.0257c-0.0049 0.0056-0.0096 0.0649-0.01237 0.159-0.0067 0.2261-0.04608 0.4537-0.0784 0.4537-0.01205 0-0.01728-0.011-0.04235-0.0901-0.03456-0.1095-0.0704-0.181-0.17707-0.3535-0.05472-0.0883-0.1312-0.1773-0.15232-0.1773-0.02219 0-0.0272 0.0233-0.0272 0.1268 0 0.1228 0.01749 0.2156 0.05675 0.3023 0.03733 0.0822 0.13003 0.2336 0.16693 0.2728 0.03509 0.0373 0.06283 0.086 0.09067 0.1592 0.04587 0.1204 0.05013 0.202 0.01835 0.3454-0.06688 0.3014-0.1504 0.5448-0.21963 0.6396-0.03403 0.0466-0.04373 0.0412-0.06325-0.0352-0.04576-0.1797-0.15968-0.4199-0.25877-0.5458-0.04661-0.0591-0.07605-0.0853-0.0928-0.0823-0.01088 2e-3 -0.01344 0.0099-0.01536 0.049-0.0026 0.0522 0.0061 0.1116 0.03179 0.2202 0.05237 0.2218 0.05355 0.2304 0.03093 0.2304-0.02517 0-0.08821-0.0312-0.11307-0.056-0.0256-0.0254-0.05696-0.0328-0.05696-0.0134 0 0.0402 0.04821 0.1555 0.09739 0.233 0.03552 0.0558 0.08565 0.1168 0.09611 0.1168 0.0049 0 0.0352 0.012 0.06752 0.0267 0.08768 0.04 0.14112 0.092 0.21781 0.212 0.0053 0.0082 0.01248 0.015 0.016 0.015 0.0034 0 0.04256-0.0168 0.08683-0.0371zm-15.073-0.053c0.01333-0.0254 0.0416-0.0595 0.07659-0.0926 0.04821-0.0456 0.06571-0.057 0.13493-0.088l0.07947-0.0358 0.03979-0.0563c0.04821-0.0685 0.09344-0.152 0.11595-0.2142 0.0192-0.0534 0.02037-0.066 0.0068-0.0767-0.0077-6e-3 -0.01771-0.0012-0.04768 0.0234-0.05621 0.0458-0.12491 0.0717-0.12715 0.0478-0.0023-0.0247 0.01045-0.0872 0.06112-0.2988 0.01611-0.067 0.02539-0.1546 0.01877-0.1769-0.0032-0.011-0.01152-0.021-0.01835-0.0223-0.02261-4e-3 -0.09333 0.078-0.17312 0.2011-0.05259 0.0811-0.1472 0.3044-0.1776 0.4186-0.01579 0.0593-0.02091 0.0705-0.03349 0.0723-0.02581 0.0035-0.047787-0.0306-0.10432-0.1623-0.067733-0.1577-0.17355-0.5568-0.17355-0.6547 0-0.1057 0.05888-0.2676 0.12693-0.349 0.04544-0.054 0.12715-0.1789 0.15733-0.2403 0.06229-0.1266 0.07968-0.2023 0.07989-0.3496 1.07e-4 -0.0977-0.0014-0.113-0.01237-0.1234-0.01184-0.0112-0.01429-0.0099-0.0544 0.03-0.10219 0.1012-0.24523 0.3482-0.29461 0.5087-0.0208 0.0671-0.02752 0.08-0.0416 0.08-0.033707 0-0.07392-0.2627-0.07424-0.484-2.133e-4 -0.1253-0.00181-0.131-0.045227-0.1562-0.0368-0.0215-0.048853-0.0183-0.067627 0.0178-0.0272 0.0524-0.028267 0.0626-0.014613 0.143 0.013973 0.0826 0.030613 0.1954 0.04256 0.2892 0.0096 0.076 0.017493 0.2655 0.011627 0.28-0.00725 0.0178-0.027307 0.0035-0.13909-0.0991-0.16096-0.1477-0.24501-0.206-0.37952-0.263-0.067093-0.0284-0.17451-0.0538-0.19563-0.0462-0.030613 0.0111 0 0.0663 0.10773 0.1938 0.066347 0.0783 0.15851 0.167 0.23125 0.222 0.018987 0.0145 0.055467 0.043 0.08096 0.0634s0.06848 0.0518 0.095467 0.0698c0.12885 0.0855 0.22251 0.1717 0.25536 0.235 0.034773 0.0668 0.029653 0.0846-0.06688 0.2322-0.11765 0.18-0.17824 0.2821-0.17824 0.3004 0 0.01 0.00811 0.013 0.028267 0.0102 0.021973-3e-3 0.10155-0.0632 0.1312-0.0994a1.7067 1.6 0 0 0 0.073387-0.101c0.0736-0.1103 0.072533-0.1097 0.085547-0.0483 0.026453 0.1246 0.0512 0.194 0.1376 0.3854 0.06816 0.1509 0.09184 0.2095 0.08672 0.2144-0.00235 0.0022-0.014187-0.0026-0.026133-0.0107-0.043947-0.0295-0.18955-0.0925-0.2592-0.1121-0.13621-0.0385-0.17899-0.0444-0.32459-0.0446-0.13141-3e-4 -0.16629 0.0046-0.16629 0.023 0 0.0034 0.015147 0.0157 0.0336 0.0275 0.018453 0.0117 0.065493 0.0506 0.10432 0.0863 0.1008 0.0924 0.19019 0.1443 0.32 0.1859 0.071467 0.0228 0.10229 0.0254 0.12928 0.0108 0.042667-0.023 0.13301-0.0047 0.22987 0.0467 0.074667 0.0396 0.085867 0.0382 0.11317-0.0133z" fill="#00843d" style="fill:#5c9e31;stroke-width:.10328"/>
  <path d="m23.964 29.579c0.10293-0.0334 0.18176-0.0926 0.21835-0.1639 0.02539-0.0496 0.0064-0.0946-0.04725-0.1113-0.05515-0.0171-0.11029 0.0073-0.21579 0.0958-0.07616 0.0639-0.11104 0.1456-0.07616 0.1784 0.01835 0.0174 0.06901 0.0178 0.12085 1e-3zm-12.678-0.0452c0.01941-0.0234 0.01856-0.0347-0.0069-0.0856-0.01749-0.035-0.03467-0.0542-0.09152-0.103-0.07787-0.067-0.09888-0.0793-0.14411-0.0852-0.06048-0.0078-0.11061 0.0246-0.11061 0.0716 0 0.0414 0.06869 0.1308 0.12832 0.167 0.048 0.029 0.12224 0.0519 0.17003 0.0524 0.0352 3e-4 0.04192-0.0018 0.05483-0.0172zm14.55-0.22c0.02539-0.0155 0.05131-0.0708 0.05131-0.1094 0-0.0185 0.0018-0.0336 0.0041-0.0336 0.0022 0 0.02827 0.011 0.05781 0.0244 0.04651 0.021 0.06219 0.0247 0.11787 0.0273 0.05899 0.0028 0.06635 0.0018 0.08896-0.0128 0.02645-0.017 0.04853-0.0602 0.04928-0.096 5.33e-4 -0.0299-0.03104-0.0845-0.06293-0.1087a0.47808 0.4482 0 0 0-0.08128-0.044c-0.03253-0.014-0.05355-0.027-0.05355-0.0332 0-0.0056 0.0051-0.0244 0.01141-0.0418 0.01419-0.0395 0.0093-0.0795-0.01568-0.1278-0.02507-0.0484-0.06144-0.0709-0.1152-0.0712-0.03563-1e-4 -0.04565 0.0033-0.09589 0.0328-0.17557 0.1032-0.29536 0.22-0.29536 0.2879 0 0.0446 0.02144 0.0704 0.08256 0.0997 0.04139 0.0198 0.05707 0.031 0.06069 0.0434 0.02411 0.0827 0.02987 0.0944 0.06432 0.1299 0.048 0.0497 0.088 0.0597 0.13163 0.033zm-16.425-0.0812c0.032747-0.0302 0.043947-0.0461 0.0528-0.0747 0.00619-0.02 0.011307-0.0443 0.011307-0.0542 0-0.0226 0.01024-0.0307 0.05472-0.0431 0.11787-0.033 0.12448-0.1237 0.016853-0.2322-0.047147-0.0476-0.12864-0.1101-0.20597-0.158-0.066667-0.0413-0.067627-0.0416-0.11061-0.039-0.033813 2e-3 -0.049067 0.0066-0.06912 0.021-0.05376 0.0388-0.078933 0.122-0.056853 0.1883 0.00715 0.0216 0.0096 0.0392 0.00597 0.0423a0.22144 0.2076 0 0 1-0.04021 0.017c-0.052053 0.018-0.098133 0.0506-0.12331 0.0868-0.029867 0.0433-0.034987 0.077-0.01856 0.1238 0.010667 0.0302 0.01792 0.0392 0.04128 0.0516 0.015573 0.0083 0.04032 0.0151 0.055147 0.0152 0.044373 1e-4 0.12629-0.02 0.16619-0.0408 0.020587-0.0108 0.04032-0.018 0.043733-0.016 0.00352 2e-3 0.00448 0.0142 0.00235 0.027-0.00501 0.0293 0.013013 0.0758 0.040107 0.1031 0.01728 0.0175 0.02496 0.0203 0.05632 0.0203 0.034667 0 0.038187-0.0018 0.077867-0.0384zm13.476 0.024c0.01376-0.012 0.01579-0.0192 0.01312-0.0457-0.01013-0.0992-0.17707-0.3135-0.28203-0.3622-0.0736-0.034-0.15499-0.0196-0.15499 0.0276 0 0.0361 0.05408 0.067 0.11808 0.0674 0.0288 2e-4 0.03371 0.0082 0.02027 0.033-0.01525 0.0276-0.01376 0.0695 0.0036 0.1015 0.02091 0.0388 0.06187 0.0548 0.1312 0.0515 0.05451-0.0026 0.06016 7e-4 0.04139 0.024-0.01973 0.0246-0.0085 0.0651 0.02613 0.0947 0.03072 0.0263 0.05952 0.0291 0.0832 0.0082zm-10.575-0.0294c0.04139-0.0201 0.06507-0.0888 0.03797-0.11-0.02155-0.017-0.0067-0.0227 0.05387-0.021 0.04971 0.0014 0.06347-5e-4 0.08267-0.0118 0.0496-0.0292 0.06891-0.088 0.04405-0.134-0.0086-0.0161-0.01259-0.0307-0.0091-0.034 0.0034-0.0032 0.02677-0.0079 0.05195-0.0103 0.03872-0.0038 0.04907-0.0078 0.06859-0.0261 0.04064-0.0382 0.02432-0.0749-0.03627-0.0813-0.06069-0.0064-0.13259 0.0315-0.21344 0.1126-0.08373 0.084-0.15861 0.2172-0.15872 0.2824-1.07e-4 0.0394 0.03531 0.0546 0.0784 0.0335z" fill="#ffa300" style="fill:#f1b31c;stroke-width:.10328"/>
  <path d="m9.5381 29.112c0.00203-0.0058-0.00139-0.0082-0.00939-0.0067-0.00693 0.0013-0.01408 0.0063-0.015787 0.0113-0.00213 0.0057 0.00139 0.0081 0.00939 0.0066 0.00693-0.0012 0.01408-0.0063 0.015787-0.0112z" fill="#121212" style="stroke-width:.10328"/>
  <path d="m25.168 29.094c0.05963-0.0146 0.12117-0.0454 0.13952-0.0697 0.0085-0.0113 0.01888-0.0392 0.02304-0.062 0.01888-0.1041-0.05355-0.3114-0.13888-0.3975-0.03669-0.037-0.06923-0.0488-0.14581-0.0528-0.0816-0.0042-0.11104 0.0032-0.14123 0.0357-0.0512 0.055-0.01045 0.1224 0.11456 0.189 0.04896 0.026 0.05152 0.0391 0.01099 0.0568-0.03989 0.0174-0.08747 0.0658-0.1008 0.1027-0.02059 0.057-0.01067 0.1282 0.02293 0.1639 0.0384 0.0408 0.12907 0.055 0.21568 0.0339zm-1.5172-0.0323c0.05984-0.0292 0.06112-0.0799 0.0032-0.1386-0.02795-0.0285-0.01909-0.0356 0.04512-0.0359 0.048-2e-4 0.06112-0.0029 0.08853-0.018 0.01781-0.0099 0.03787-0.026 0.0448-0.0358 0.032-0.0462 0.01419-0.1147-0.03819-0.1458-0.02773-0.0166-0.03733-0.0304-0.02112-0.0304 0.0224 0 0.05813-0.0246 0.07488-0.0515 0.01525-0.0246 0.01899-0.0403 0.02144-0.091 0.0028-0.0543 0.0013-0.0645-0.01333-0.0911-0.02368-0.0432-0.05419-0.0602-0.10773-0.06-0.06613 0-0.13131 0.0217-0.17173 0.0571l-0.01984 0.0173-0.0128-0.0156a0.664 0.6225 0 0 1-0.02848-0.0383c-0.0085-0.0125-0.02773-0.032-0.04267-0.0434-0.02421-0.0184-0.03307-0.0209-0.08267-0.023-0.05163-0.0022-0.05685-0.0012-0.07339 0.0144a0.098133 0.092 0 0 0-0.02251 0.0348c-0.0069 0.0257 0.0094 0.087 0.02891 0.1088 0.02699 0.0302 0.01632 0.0346-0.07851 0.0329-0.07168-0.0014-0.08779 2e-4 -0.10421 0.0104a0.10933 0.1025 0 0 0-0.04715 0.0797c0 0.03 0.03381 0.0693 0.08021 0.0935 0.04096 0.0213 0.03797 0.0324-0.01141 0.0417-0.04811 9e-3 -0.07467 0.0257-0.09173 0.0573-0.01664 0.0307-0.01568 0.0575 0.0034 0.0931 0.02901 0.054 0.08139 0.0595 0.15712 0.0165 0.02251-0.0128 0.04192-0.0233 0.04309-0.0233 0.0012 0 0.0018 0.0193 0.0015 0.0429-6.4e-4 0.037 0.0019 0.0462 0.01856 0.0668 0.04096 0.0507 0.11925 0.0663 0.16992 0.0338 0.03413-0.0218 0.04181-0.021 0.05525 0.0055 0.01963 0.039 0.08704 0.057 0.13152 0.0352zm-13.507-0.0273c0.06048-0.0286 0.08373-0.1288 0.04608-0.199-0.01824-0.0342-0.0672-0.0805-0.10549-0.0998-0.0128-0.0064-0.02176-0.0154-0.02027-0.02 0.0017-0.0045 0.02293-0.0191 0.04725-0.0324 0.05568-0.0304 0.104-0.0683 0.12149-0.0953 0.02677-0.0416 0.01131-0.0878-0.03797-0.1126-0.02581-0.013-0.03915-0.0149-0.0976-0.0137-0.03712 7e-4 -0.07691 0.0047-0.08843 0.0087-0.077653 0.0275-0.13312 0.1014-0.18283 0.2436-0.032427 0.093-0.041067 0.1802-0.0224 0.2265 0.0192 0.0474 0.075627 0.0859 0.15253 0.104 0.045547 0.0108 0.15605 0.0048 0.18763-0.01zm1.4288-0.013c0.01408-0.0055 0.03157-0.0208 0.04224-0.0367 0.01003-0.015 0.02059-0.0272 0.02347-0.027 0.0029 0 0.0192 9e-3 0.03627 0.02 0.05184 0.033 0.10688 0.0247 0.1568-0.024 0.02165-0.021 0.02421-0.0276 0.02667-0.0698 0.0016-0.0256 0.0043-0.0466 0.0061-0.0466 0.0017 0 0.01408 0.0079 0.02741 0.0175 0.07467 0.0538 0.16213 0.0449 0.18027-0.0184 0.02091-0.0733-0.01685-0.1246-0.10037-0.1367-0.03061-0.0044-0.04853-0.0128-0.04853-0.0228 0-0.0029 0.01675-0.0142 0.03723-0.0252 0.07264-0.039 0.09888-0.0866 0.07339-0.1331-0.02368-0.0432-0.03968-0.0489-0.13611-0.048-0.04779 4e-4 -0.09024-0.0012-0.0944-0.0036-0.01173-0.0068-0.0087-0.0204 0.0075-0.0342 0.03253-0.0278 0.0448-0.0835 0.02763-0.1261-0.01419-0.0352-0.09643-0.0483-0.15264-0.0242-0.03221 0.0138-0.06987 0.053-0.08245 0.0858-0.0046 0.012-0.01248 0.0217-0.01749 0.0217-5e-3 0-0.02315-0.0101-0.04043-0.0225-0.06261-0.0451-0.16608-0.0637-0.21973-0.0396-0.03029 0.0136-0.05739 0.0612-0.06432 0.113-0.0093 0.0687 0.03008 0.1485 0.08299 0.168 0.01493 0.0056 0.02709 0.0123 0.02709 0.015s-0.0097 0.0087-0.02165 0.0133c-0.0352 0.0138-0.05845 0.0486-0.06144 0.0923-0.0032 0.0471 0.01195 0.0725 0.05867 0.0983 0.0272 0.015 0.04192 0.0184 0.08501 0.019 0.06933 1e-3 0.07787 0.0093 0.04384 0.0423-0.04512 0.0439-0.05227 0.0822-0.02048 0.1109a0.10539 0.0988 0 0 0 0.11755 0.0214z" fill="#ffa300" style="fill:#f1b31c;stroke-width:.10328"/>
  <path d="m23.057 28.649c0.0047-0.0044 0.0085-0.0202 0.0085-0.035 0-0.0407 0.01237-0.075 0.03627-0.1006 0.02528-0.0272 0.05611-0.0366 0.12032-0.0366 0.03104 0 0.048-0.0029 0.05024-0.0084 0.0018-0.0046 0-0.0271-0.0041-0.05-0.0064-0.0363-0.0057-0.0457 0.0063-0.0728 0.01941-0.0441 0.04267-0.0582 0.10112-0.0613 0.03797-2e-3 0.05557 5e-4 0.08405 0.012 0.04277 0.0174 0.05579 0.0161 0.07445-0.0075 0.01749-0.0221 0.01899-0.0785 0.0027-0.102-0.03147-0.0452-0.09568-0.0673-0.14816-0.051-0.02336 0.0073-0.06912 0.0481-0.08704 0.0776-0.0075 0.0124-9e-3 0.0123-0.04608-0.0055-0.03147-0.015-0.04757-0.0182-0.09067-0.0182-0.06187 0-0.11883 0.0153-0.15083 0.0405-0.0208 0.0164-0.02293 0.0215-0.02251 0.0539 2.13e-4 0.0222 0.0078 0.054 0.01995 0.084 0.01077 0.0265 0.01781 0.0509 0.01568 0.0542-0.0021 0.0033-0.0192 0.0096-0.03776 0.014-0.09664 0.023-0.11925 0.0603-0.08661 0.1427 0.01749 0.044 0.03232 0.0575 0.07595 0.0685 0.04331 0.011 0.06752 0.0115 0.07819 0.0015zm-10.864-0.0524c0.02731-0.013 0.0352-0.0254 0.04907-0.077 0.01653-0.0613-0.0048-0.0936-0.07499-0.1135-0.06315-0.018-0.06432-0.02-0.04149-0.0739 0.02411-0.0565 0.02752-0.1143 0.0082-0.1345-0.0071-0.0074-0.02944-0.0205-0.0496-0.029-0.05237-0.0222-0.15637-0.0225-0.20331-7e-4a0.23787 0.223 0 0 1-0.03691 0.015c-0.0026 0-0.0099-0.0097-0.01632-0.0217-0.02667-0.0496-0.06432-0.0731-0.1168-0.0728-0.04139 4e-4 -0.09365 0.0266-0.10912 0.0549-0.01568 0.0285-0.01344 0.0809 0.0043 0.1021 0.0176 0.0212 0.02741 0.0217 0.08149 0.0038 0.04544-0.015 0.09056-0.0137 0.13525 4e-3 0.03669 0.0145 0.05365 0.0566 0.05045 0.1258l-0.0025 0.0543 0.05301 0.0035c0.09611 0.0065 0.14827 0.0502 0.14848 0.1245 1.07e-4 0.0476 0.01205 0.058 0.05952 0.052 0.01984-0.0026 0.04736-0.0101 0.06123-0.0167z" fill="#ffa300" style="fill:#f1b31c;stroke-width:.10328"/>
  <path d="m23.585 28.327c0.02261-0.0482 0.06293-0.078 0.14549-0.1078 0.20512-0.074 0.29333-0.1133 0.39221-0.175 0.08683-0.0542 0.11733-0.0791 0.20725-0.1701 0.06368-0.0645 0.17835-0.2073 0.17835-0.2223 0-0.0021 0.02379-0.0344 0.05301-0.0717 0.05451-0.0697 0.0608-0.0827 0.04256-0.0893-0.02891-0.0104-0.25067 0.081-0.32427 0.1337-0.01621 0.0117-0.09483 0.0622-0.17461 0.1122-0.07968 0.05-0.17205 0.109-0.20512 0.131l-0.09707 0.065c-0.03605 0.0238-0.05856 0.0268-0.05856 0.0077 0-0.0106 0.09099-0.0945 0.23307-0.2151 0.33781-0.2865 0.49227-0.4328 0.56896-0.5388 0.04352-0.06 0.02485-0.0737-0.05483-0.0406-0.05611 0.0234-0.1728 0.0943-0.22304 0.1356a10.142 9.508 0 0 1-0.14923 0.1176c-0.11584 0.0898-0.27989 0.241-0.36693 0.338-0.0288 0.032-0.05504 0.0565-0.05835 0.0545-0.0085-0.0049-0.0079-0.0675 7.47e-4 -0.0961 0.0054-0.0178 0.0048-0.0253-0.0028-0.0324-0.0084-8e-3 -0.01525-0.0077-0.04672 0.0022-0.03093 0.0097-0.03797 0.0101-0.04309 0.0025-0.0079-0.0118-0.0079-0.0101 0.0045-0.0926 0.01259-0.0834 0.01963-0.119 0.03776-0.1903 0.0704-0.277 0.07253-0.2902 0.04779-0.2991-0.01024-0.0038-0.09163 0.0446-0.11136 0.0663-0.0064 0.0069-0.01515 0.0275-0.01963 0.0459-0.01045 0.0436-0.04779 0.2589-0.06123 0.3532-0.03712 0.262-0.03445 0.251-0.06091 0.251-0.0075 0-0.02624-0.0122-0.0416-0.027-0.0448-0.0431-0.06155-0.0257-0.07808 0.0811-0.0047 0.03-0.0066 0.075-0.0044 0.1001 0.0069 0.0788-0.016 0.069-0.09707-0.0415-0.07253-0.0986-0.12203-0.1525-0.15051-0.1638-0.02837-0.0112-0.09547-0.0118-0.10688-1e-3 -0.01675 0.0157-0.0084 0.031 0.02859 0.0524 0.07584 0.044 0.15573 0.1336 0.21685 0.2433 0.03808 0.0682 0.07168 0.1169 0.08075 0.1169 0.0048 0 0.02037-0.0091 0.03467-0.0203 0.0336-0.026 0.06912-0.0398 0.10261-0.0398 0.12213 2e-4 0.19637 0.117 0.13259 0.2085-0.0176 0.025-0.02133 0.0392-0.01269 0.0474 0.01237 0.0116 0.02581 0.0013 0.04117-0.0315zm-11.988-0.0227c0.0011-0.0079-0.0064-0.0281-0.01696-0.045-0.01707-0.0275-0.01867-0.0355-0.01547-0.0769 0.0043-0.0572 0.0256-0.0872 0.07883-0.1105 0.0592-0.026 0.11477-0.0192 0.17045 0.021 0.01771 0.0126 0.03648 0.023 0.04192 0.023 0.01024 0 0.02379-0.019 0.0928-0.13 0.06912-0.1115 0.14208-0.1912 0.20907-0.229 0.02837-0.016 0.03787-0.0415 0.01941-0.0523-0.01419-0.0083-0.08235-0.0036-0.10453 0.0072-0.02528 0.0124-0.08683 0.079-0.14827 0.1605-0.05781 0.0765-0.07083 0.09-0.08672 0.09-0.01173 0-0.01291-7e-3 -0.01312-0.0784-2.13e-4 -0.1093-0.01675-0.1752-0.04405-0.1752-0.0078 0-0.02667 0.0107-0.04203 0.0238s-0.03307 0.0228-0.03957 0.0216c-0.01685-3e-3 -0.02955-0.0308-0.02965-0.0646-1.06e-4 -0.0267-0.01024-0.1004-0.02805-0.2044-0.0037-0.022-0.01195-0.0731-0.01813-0.1135-0.03552-0.23-0.04725-0.2661-0.09749-0.3012-0.06069-0.0424-0.06571-0.0445-0.07851-0.0324a0.04288 0.0402 0 0 0-0.01141 0.0242c0 0.0075 0.01749 0.081 0.03893 0.1632 0.03925 0.1515 0.06283 0.2659 0.06997 0.3408 5e-3 0.0517-0.0029 0.0602-0.04416 0.0485-0.04565-0.0129-0.05323-0.0064-0.04757 0.0406 0.0054 0.0457-6.4e-4 0.0868-0.01301 0.0868-0.0047 0-0.03733-0.0338-0.07285-0.0751-0.06571-0.0767-0.15648-0.1632-0.296-0.2821-0.18859-0.1608-0.2752-0.221-0.4224-0.2937-0.05152-0.0255-0.05472-0.0262-0.06656-0.015-0.01184 0.0111-0.01173 0.0126 0.0011 0.0333 0.05653 0.0912 0.19979 0.233 0.47403 0.4696 0.22101 0.1906 0.32747 0.288 0.33301 0.3045 0.0026 0.0074 0.0017 0.016-0.0018 0.0194-0.0069 0.0065-0.0384-0.0111-0.14827-0.083-0.03829-0.025-0.10464-0.0677-0.14741-0.0948a5.4227 5.0838 0 0 1-0.13632-0.0894c-0.10251-0.0704-0.26635-0.1556-0.36043-0.1875-0.06741-0.023-0.08299-0.0099-0.04459 0.0374 0.04747 0.0586 0.08 0.1057 0.09579 0.1384 0.01568 0.0327 0.03168 0.055 0.09995 0.1387 0.08373 0.1027 0.28885 0.256 0.42261 0.3158 0.04437 0.02 0.11541 0.0483 0.27307 0.1092 0.05227 0.0202 0.10795 0.0674 0.11627 0.0986 0.0097 0.0369 0.03339 0.048 0.03808 0.0179z" fill="#00843d" style="fill:#5c9e31;stroke-width:.10328"/>
  <path d="m22.809 28.066c0.06741-0.0371 0.09685-0.1077 0.11115-0.266l0.0078-0.0874 0.0672-0.0042c0.0832-0.0052 0.11328-0.0128 0.16213-0.0406 0.05163-0.0296 0.06581-0.0552 0.06272-0.1135-0.0027-0.0497-0.01493-0.0713-0.05493-0.097-0.03136-0.0201-0.11008-0.021-0.16779-0.0018-0.02197 0.0073-0.04128 0.0121-0.04277 0.0107-0.0015-0.0014 0.0029-0.0272 0.0096-0.0572 0.01045-0.0456 0.0112-0.0618 0.0047-0.0978-0.0093-0.051-0.02059-0.0693-0.05984-0.096-0.04267-0.0293-0.08128-0.028-0.11883 0.0041-0.03627 0.031-0.0704 0.0963-0.07573 0.145-0.0053 0.048-0.01675 0.0585-0.03648 0.0331-0.10389-0.1334-0.15787-0.1671-0.23787-0.1481-0.06379 0.0152-0.10368 0.0707-0.09344 0.1302 5e-3 0.0292 0.05056 0.0863 0.10155 0.1275 0.02069 0.0167 0.03765 0.0342 0.03765 0.039 0 5e-3 -0.01536 0.0118-0.03659 0.016-0.08917 0.0181-0.12128 0.0656-0.10475 0.1552 0.0096 0.0521 0.03115 0.0902 0.06219 0.11 0.03339 0.0212 0.09227 0.0266 0.14357 0.0131 0.05899-0.0154 0.05835-0.0157 0.05312 0.0217-0.0091 0.0647 0.02901 0.1672 0.0768 0.2068 0.0256 0.0211 0.02933 0.0222 0.06325 0.018 0.01973-0.0025 0.04928-0.0118 0.0656-0.0208zm3.0557 0.011c0.01451-0.0083 0.02667-0.0237 0.03488-0.0442 0.0112-0.0277 0.01173-0.0369 0.0043-0.0779a0.3952 0.3705 0 0 0-0.02731-0.0828c-0.01131-0.0218-0.01621-0.0386-0.01227-0.042 0.0036-0.0032 0.03776-0.0121 0.07584-0.02 0.03819-0.0077 0.08149-0.02 0.09643-0.0271 0.06667-0.0321 0.09461-0.1026 0.06507-0.1641-0.02741-0.0568-0.09813-0.088-0.18432-0.081-0.0256 2e-3 -0.05365 0.0057-0.0624 0.0082-0.02347 0.0067-0.02059-0.0112 0.0091-0.0566 0.10272-0.1571 0.06613-0.2942-0.0784-0.2942-0.03936 0-0.09707 0.0285-0.12672 0.0626-0.0256 0.0294-0.06016 0.0935-0.06027 0.1115-2.14e-4 0.0215-0.01024 0.0185-0.04192-0.0125-0.0384-0.0376-0.14635-0.0913-0.20683-0.103-0.03488-0.0067-0.04224-0.0062-0.05867 0.0039-0.02635 0.0163-0.03413 0.0403-0.03051 0.0943 0.0048 0.0713 0.03765 0.1393 0.08907 0.1846 0.0224 0.0197 0.04683 0.0393 0.0544 0.0437 0.01547 9e-3 0.02357 4e-4 -0.10848 0.1138-0.08576 0.0736-0.10091 0.1197-0.05493 0.167l0.02421 0.025h0.0624c0.05931 0 0.06549-0.0014 0.12267-0.0283 0.03307-0.0156 0.07691-0.0405 0.0976-0.0553 0.02059-0.0148 0.04053-0.0252 0.04405-0.023 0.0036 2e-3 0.01184 0.021 0.01824 0.0419 0.03019 0.0985 0.12267 0.23 0.18091 0.2571 0.03061 0.0143 0.04693 0.014 0.07392-0.0016zm-13.418-0.0368c0.04661-0.0227 0.08725-0.1108 0.08853-0.1918 4.27e-4 -0.0282 3e-3 -0.0532 0.0054-0.0556 0.0026-0.0024 0.01941 3e-4 0.03744 0.0061 0.03776 0.0121 0.10016 0.0138 0.12907 0.0034 0.02699-0.0096 0.04939-0.0304 0.07168-0.0662 0.01632-0.026 0.01867-0.0374 0.01888-0.0883 1.07e-4 -0.058 0-0.0585-0.02507-0.0822a0.192 0.18 0 0 0-0.07029-0.0385c-0.02475-0.0081-0.04597-0.0178-0.04725-0.0215-0.0013-0.0037 0.01515-0.0199 0.03648-0.036 0.02133-0.016 0.05216-0.0455 0.06848-0.0654 0.02453-0.03 0.03019-0.0426 0.03285-0.0729 0.0059-0.0668-0.02517-0.1054-0.09888-0.1228-0.05248-0.0125-0.10197 0.0042-0.1504 0.0506a0.45877 0.4301 0 0 0-0.06037 0.0736c-0.02901 0.0486-0.04427 0.0472-0.0512-0.0044-0.01013-0.0774-0.04907-0.143-0.09899-0.167-0.03552-0.0172-0.06357-0.0135-0.10315 0.0136-0.04971 0.034-0.06773 0.1165-0.0448 0.2053 5e-3 0.019 0.0071 0.0377 0.0048 0.0413-0.0028 0.0041-0.02208 4e-4 -0.05035-0.0097-0.05611-0.0199-0.10837-0.021-0.15019-3e-3 -0.02453 0.0105-0.0336 0.0196-0.04768 0.0482-0.0464 0.094 0.0032 0.1675 0.13163 0.195 0.02496 0.0052 0.06688 0.0117 0.09323 0.0142 0.02624 0.0025 0.0496 0.0074 0.05184 0.0108 0.0021 0.0034 0.0055 0.0413 0.0074 0.0843 0.0032 0.0768 0.01995 0.1559 0.04107 0.194 0.02187 0.0393 0.06112 0.0742 0.09461 0.084 0.04299 0.0124 0.06133 0.0126 0.08533 1e-3zm-3.1049-0.0237c0.059413-0.0286 0.14976-0.1521 0.17781-0.2429 0.00885-0.0288 0.01984-0.0537 0.024427-0.0553 0.00459-0.0017 0.033387 0.014 0.064 0.0347 0.071467 0.0483 0.084587 0.0545 0.14795 0.0698 0.10187 0.0246 0.15904-0.0048 0.15904-0.0818 0-0.0414-0.044053-0.0956-0.1264-0.1552-0.035413-0.0257-0.064533-0.0513-0.064533-0.0568s0.014507-0.0173 0.03232-0.0262c0.08064-0.0404 0.14571-0.1981 0.11552-0.28-0.01536-0.0415-0.054827-0.0446-0.14763-0.0116-0.074987 0.0266-0.12843 0.0574-0.1536 0.0884-0.00981 0.0123-0.020693 0.0208-0.024107 0.0188-0.00331-2e-3 -0.010667-0.0183-0.016427-0.0364-0.023147-0.0737-0.062933-0.1162-0.13216-0.141-0.04288-0.0154-0.0976-0.0122-0.13216 0.0076-0.028373 0.0163-0.05824 0.0743-0.058133 0.113 1.067e-4 0.0511 0.026027 0.1157 0.07168 0.1785 0.011093 0.0154 0.020267 0.0304 0.020267 0.0335 0 3e-3 -0.042453 0.0055-0.094293 0.0054-0.09248 0-0.094933 4e-4 -0.12832 0.02-0.040747 0.024-0.06048 0.0555-0.060267 0.0967 4.266e-4 0.084 0.07008 0.1387 0.19989 0.1571 0.018027 0.0026 0.0384 0.0085 0.045013 0.0131 0.01152 8e-3 0.010773 0.0117-0.01024 0.0561-0.046507 0.098-0.021973 0.2067 0.04672 0.2075 0.00885 1e-4 0.02848-0.0057 0.043626-0.013zm14.608-0.6896c0.03104-0.0146 0.04373-0.048 0.04-0.105-0.0053-0.0801-0.01365-0.098-0.0688-0.1473-0.07115-0.0637-0.06613-0.0705 0.03307-0.0455 0.07829 0.0199 0.18827 0.0208 0.22251 2e-3 0.04651-0.0257 0.06997-0.0791 0.05973-0.136-0.01013-0.0569-0.06165-0.0903-0.15648-0.1013-0.05429-0.0064-0.09173-0.0058-0.21419 3e-3 -0.02613 0.0019-0.02581-0.014 4.27e-4 -0.0271 0.03787-0.0188 0.08203-0.0666 0.09749-0.1057 0.01813-0.0459 0.02581-0.1306 0.01515-0.1677-0.02187-0.076-0.11136-0.1174-0.20064-0.0929-0.08181 0.0225-0.13056 0.1095-0.13845 0.2472-3e-3 0.0517-0.0075 0.0805-0.01291 0.0822-0.0046 0.0014-0.02261-0.0179-0.04011-0.0429-0.07264-0.1041-0.15936-0.1565-0.23627-0.1427-0.06677 0.012-0.11381 0.067-0.10496 0.1228 0.01333 0.0837 0.13312 0.1814 0.25205 0.2055 0.03232 0.0065 0.05045 0.0203 0.03989 0.0303-0.0021 2e-3 -0.04309 0.0164-0.09109 0.032-0.15979 0.052-0.23371 0.094-0.26581 0.1506-0.02965 0.0525-0.0099 0.1122 0.04523 0.1369 0.02037 0.0091 0.03755 0.0108 0.07968 8e-3 0.0736-0.0048 0.0928-0.0114 0.18176-0.062 0.07072-0.0404 0.09355-0.0552 0.18624-0.1208 0.04693-0.0333 0.05429-0.0306 0.05952 0.022 0.0098 0.0995 0.0656 0.2162 0.11861 0.2482 0.02709 0.0164 0.07093 0.0191 0.09835 0.0062zm-12.675-0.0556c0.02955-0.014 0.06699-0.0476 0.08064-0.0723 0.02144-0.0387 0.04533-0.1148 0.05227-0.1673 0.0041-0.0294 0.01003-0.056 0.01333-0.0592 0.0066-0.0063 0.02997 0.0077 0.09013 0.0536 0.06475 0.0495 0.19947 0.13 0.24021 0.1434 0.0512 0.017 0.1184 0.0226 0.15595 0.013 0.05717-0.0147 0.08555-0.074 0.06251-0.1307-0.02453-0.0605-0.11552-0.1157-0.27488-0.1666-0.06816-0.0218-0.08629-0.0301-0.08629-0.0398 0-0.0095 0.01109-0.0148 0.05077-0.0243 0.06293-0.0151 0.08608-0.0262 0.14176-0.0677 0.08939-0.0669 0.12149-0.1536 0.07712-0.2086-0.02549-0.0316-0.06784-0.0502-0.11467-0.0504-0.07307-3e-4 -0.1632 0.0622-0.21525 0.1493-0.01536 0.0257-0.02667 0.0375-0.03435 0.036-0.0095-0.0018-0.01109-0.0098-0.0094-0.0454 0.0027-0.0536-0.01387-0.1368-0.03627-0.1824-0.02336-0.0475-0.072-0.0946-0.10731-0.1038-0.06421-0.0166-0.12843-0.0048-0.16779 0.0308-0.07947 0.0717-0.03413 0.274 0.07392 0.3302 0.03595 0.0188 0.04085 0.0367 9e-3 0.0332-0.01173-0.0013-0.07531-0.0028-0.14144-0.0034l-0.12032-1e-3 -0.0384 0.02c-0.05515 0.0289-0.06773 0.0479-0.06763 0.1024 0 0.1204 0.10432 0.155 0.30976 0.103 0.04224-0.0106 0.0592-0.0066 0.05067 0.0122-0.0023 0.0052-0.02187 0.0226-0.04341 0.0387-0.04331 0.0324-0.0544 0.0518-0.06976 0.123-0.0085 0.0397-0.0089 0.0537-0.0015 0.0812 0.01472 0.0549 0.06752 0.0781 0.12053 0.0529z" fill="#ffa300" style="fill:#f1b31c;stroke-width:.10328"/>
  <path d="m19.623 28.876c-7.47e-4 -0.01-0.0192-0.0715-0.04117-0.1368a110.27 103.38 0 0 0-0.18347-0.5426c-0.01707-0.0495-0.04907-0.1442-0.07104-0.2103-0.02197-0.066-0.04907-0.1457-0.06016-0.1769a12.604 11.816 0 0 1-0.05664-0.1669c-0.02027-0.0605-0.05056-0.1507-0.06752-0.2002l-0.06603-0.1936c-0.01931-0.057-0.0432-0.126-0.05312-0.1536-0.07008-0.1959-0.14539-0.4272-0.14187-0.436 0.0053-0.0132 0.06357-0.0548 0.26485-0.1892 0.15765-0.1053 0.26816-0.1807 0.30069-0.2053 0.01557-0.0118 0.04267-0.0305 0.06005-0.0416a8.0562 7.5527 0 0 0 0.20779-0.1426c0.09739-0.07 0.15189-0.108 0.26624-0.1856 0.072-0.049 0.15787-0.1064 0.19093-0.1278a8.3413 7.82 0 0 0 0.19221-0.1314c0.07253-0.051 0.21504-0.1482 0.31648-0.2161s0.18656-0.1292 0.18891-0.136c0.0025-0.0073 2.13e-4 -0.015-0.0053-0.0183-0.0053-0.0032-0.21173-0.0061-0.45877-0.0066s-0.57493-0.0018-0.72864-3e-3 -0.50571-0.0024-0.78229-3e-3c-0.52715-1e-3 -0.53376-0.0015-0.53952-0.0302-0.0015-0.0073-0.04096-0.1214-0.08779-0.2536a56.57 53.034 0 0 1-0.095173-0.2703 72.934 68.375 0 0 0-0.20725-0.6009c-0.02667-0.0752-0.07787-0.2224-0.1136-0.327a37.684 35.329 0 0 0-0.08864-0.2571l-0.04395-0.1235a3.6107 3.385 0 0 1-0.03157-0.0935c-0.0112-0.0357-0.02731-0.0819-0.0704-0.2024-0.02133-0.0599-0.03595-0.0757-0.05152-0.0557-0.0087 0.0113-0.12352 0.3335-0.26197 0.7355-0.04181 0.1211-0.09259 0.2668-0.11296 0.3237s-0.04896 0.1396-0.06347 0.1836-0.03381 0.0997-0.04288 0.1235c-0.0091 0.0239-0.03083 0.0855-0.04821 0.1369-0.21141 0.6223-0.23595 0.6892-0.25483 0.6957-0.0082 0.0029-0.19488 0.0045-0.41472 0.0037-1.0246-0.0037-2.0617-0.0015-2.0678 0.0044-0.0037 0.0034-5e-3 0.0106-0.0028 0.0159 0.0039 0.0099 0.19797 0.1488 0.31456 0.2253 0.08565 0.0562 0.07851 0.0513 0.27072 0.187a15.199 14.249 0 0 0 0.22261 0.155c0.03115 0.0207 0.07733 0.053 0.10261 0.0716 0.06997 0.0517 0.31659 0.2264 0.36747 0.2603 0.04043 0.027 0.15648 0.1084 0.30453 0.2136 0.06251 0.0443 0.14219 0.099 0.2384 0.1632 0.11627 0.0777 0.18603 0.132 0.18603 0.1446 0 0.0065-0.01237 0.0458-0.02763 0.0873-0.01515 0.0416-0.06101 0.1717-0.10176 0.2892a223.13 209.19 0 0 1-0.47627 1.3544c-0.08704 0.2456-0.15829 0.4536-0.15829 0.4623 0 0.033 0.01579 0.0247 0.22741-0.1192 0.06091-0.0414 0.14688-0.101 0.19093-0.1325 0.04427-0.0314 0.13931-0.0959 0.2112-0.1432a10.048 9.42 0 0 0 0.22645-0.1535 5.3911 5.0542 0 0 1 0.15189-0.1038c0.03115-0.02 0.08213-0.0536 0.11328-0.0748 0.13248-0.0899 0.216-0.1469 0.27243-0.186 0.03307-0.0228 0.10155-0.0684 0.15211-0.1013a8.7776 8.229 0 0 0 0.32032-0.2173c0.06464-0.0454 0.128-0.0872 0.14059-0.093 0.02208-0.0099 0.02421-0.0096 0.05333 0.0084 0.032 0.0197 0.10091 0.067 0.18965 0.1302 0.02912 0.0208 0.0896 0.0614 0.1344 0.0903 0.128 0.0827 0.24736 0.1627 0.29355 0.1968 0.02336 0.0172 0.06155 0.0437 0.08491 0.0588s0.06944 0.046 0.10251 0.0688c0.03307 0.0227 0.11627 0.0768 0.18496 0.1204 0.06869 0.0435 0.13803 0.0895 0.15413 0.1022 0.032 0.0253 0.15285 0.106 0.31531 0.2107 0.03115 0.02 0.08683 0.0577 0.12373 0.0836 0.07339 0.0515 0.27627 0.1878 0.36085 0.2423 0.05931 0.0382 0.08213 0.042 0.08 0.013z" fill="#fff" style="stroke-width:.10328"/>
  <path transform="matrix(.10667 0 0 .1 4 16)" d="m181.78 92.288c1.13-0.24 2.325-1.102 3.273-2.363 0.703-0.935 1.152-1.391 1.894-1.926 0.735-0.53 1.179-0.77 2.598-1.402 1.771-0.79 4.429-1.61 6.764-2.088 1.418-0.29 2.612-0.597 2.714-0.7 0.137-0.138 0.059-0.188-0.521-0.334-1.817-0.456-3.794-2.107-5.949-4.965-0.825-1.095-1.43-1.952-1.888-2.68-0.233-0.371-0.755-1.176-1.158-1.789s-0.876-1.34-1.048-1.615a28.897 28.897 0 0 0-0.737-1.101 104.76 104.76 0 0 1-1.139-1.67c-0.942-1.407-1.658-2.36-3.235-4.305-0.764-0.942-2.977-3.317-4.468-4.795-1.822-1.805-2.994-2.864-4.557-4.116a35.742 35.742 0 0 1-0.834-0.7c-0.706-0.612-1.668-1.34-3.144-2.38-0.438-0.307-1.02-0.722-1.293-0.921a51.325 51.325 0 0 0-3.523-2.315 78.71 78.71 0 0 1-1.717-1.06c-0.722-0.482-2.528-1.459-3.68-1.992-0.475-0.219-1.274-0.597-1.776-0.84s-0.946-0.442-0.986-0.442-0.405-0.162-0.81-0.362c-1.406-0.688-4.872-1.92-7.703-2.737-0.182-0.053-0.63-0.186-0.995-0.296-0.777-0.236-2.405-0.67-2.785-0.744a44.789 44.789 0 0 1-0.895-0.194 36.771 36.771 0 0 0-1.391-0.275 17.533 17.533 0 0 1-1.016-0.203 6.639 6.639 0 0 0-0.731-0.126 24.307 24.307 0 0 1-1.074-0.162c-0.75-0.132-2.51-0.362-3.382-0.443a34.773 34.773 0 0 1-1.16-0.129c-1.464-0.196-4.345-0.353-7.13-0.386-3.76-0.045-6.313 0.065-9.716 0.42a78.77 78.77 0 0 0-5.438 0.795c-2.136 0.39-4.81 0.993-5.042 1.138-0.02 0.012-0.453 0.13-0.962 0.262-0.51 0.132-1.18 0.32-1.49 0.416-1.466 0.459-4.959 1.642-5.67 1.922-2.368 0.93-6.734 2.999-8.456 4.006-2.293 1.341-4.755 2.871-5.434 3.377-0.24 0.179-0.885 0.649-1.434 1.045-2.202 1.59-2.604 1.895-3.412 2.592-0.347 0.299-0.81 0.687-1.028 0.862a6.861 6.861 0 0 0-0.497 0.429c-0.055 0.06-0.264 0.244-0.465 0.41-0.699 0.575-1.5 1.31-2.652 2.436-1.634 1.595-1.92 1.887-2.854 2.903a277.24 277.24 0 0 1-1.36 1.468 41.629 41.629 0 0 0-2.622 3.134l-0.66 0.868c-0.128 0.168-0.59 0.813-1.028 1.432-0.437 0.62-0.969 1.37-1.182 1.669a64.84 64.84 0 0 0-0.986 1.444c-0.33 0.496-0.768 1.127-0.976 1.402-0.207 0.275-0.583 0.801-0.836 1.168s-0.728 1.028-1.057 1.469-0.661 0.895-0.74 1.01c-0.078 0.115-0.456 0.581-0.838 1.035-1.348 1.6-2.689 2.753-3.937 3.385-0.63 0.319-1.456 0.612-1.727 0.612a0.517 0.517 0 0 0-0.258 0.096c-0.295 0.22-0.116 0.277 3.453 1.104 1.88 0.436 4.329 1.182 5.703 1.738 0.935 0.378 2.127 0.987 2.764 1.413 0.716 0.478 1.573 1.313 2.18 2.124 1.007 1.348 1.825 1.985 3.034 2.364 0.698 0.219 1.478 0.232 2.34 0.038 1.517-0.34 3.016-1.493 4.512-3.47 0.739-0.976 0.726-0.956 1.534-2.47 0.343-0.643 0.781-1.424 0.975-1.736s0.487-0.792 0.653-1.068a29.55 29.55 0 0 1 1.476-2.203c0.256-0.349 0.634-0.874 0.84-1.168a26.072 26.072 0 0 1 1.573-1.972c0.149-0.167 0.638-0.728 1.087-1.248 1.063-1.23 4.203-4.281 5.238-5.092 2.634-2.063 3.526-2.72 4.739-3.495 0.21-0.134 0.538-0.345 0.73-0.47 2.431-1.586 6.028-3.377 9.134-4.548 0.42-0.158 0.883-0.34 1.029-0.402 0.146-0.063 0.444-0.166 0.663-0.23 0.219-0.065 0.74-0.228 1.16-0.363 1.78-0.575 4.505-1.24 6.6-1.61 3.713-0.659 6.527-0.897 10.61-0.897 2.57 0 6.116 0.22 7.428 0.462 0.183 0.034 0.526 0.08 0.763 0.104 0.53 0.053 2.462 0.381 3.581 0.608 0.705 0.143 2.01 0.467 4.384 1.086 0.278 0.072 0.934 0.282 1.46 0.465 1.427 0.5 1.905 0.683 3.242 1.246l0.783 0.329c0.496 0.208 2.35 1.054 3.084 1.406 0.545 0.262 2.282 1.224 2.732 1.514 0.146 0.094 0.534 0.33 0.862 0.524 0.87 0.516 2.628 1.705 3.31 2.24 0.325 0.254 0.802 0.625 1.061 0.823 0.259 0.199 0.65 0.515 0.868 0.703 0.22 0.188 0.622 0.52 0.896 0.74 1.139 0.912 3.98 3.777 4.94 4.978 0.11 0.139 0.5 0.592 0.867 1.008 0.666 0.753 1.165 1.392 1.919 2.455 0.219 0.309 0.579 0.804 0.8 1.1 0.363 0.485 1.45 2.196 2.23 3.51 0.163 0.275 0.523 0.937 0.798 1.47 0.706 1.366 1.038 1.915 1.691 2.79 2.01 2.693 4.318 3.916 6.513 3.451z" fill="#ffa300" style="fill:#f1b31c"/>
  <path d="m16.394 29.942-0.57284-0.11796-0.19864 0.94066 0.57283 0.11796" style="clip-rule:evenodd;fill:none;stroke-linecap:round;stroke-linejoin:round;stroke-miterlimit:10;stroke-width:.28342px;stroke:#f1b31c"/>
  <path d="m15.721 30.295 0.42963 0.08847" style="clip-rule:evenodd;fill:none;stroke-linecap:round;stroke-linejoin:round;stroke-miterlimit:10;stroke-width:.28342px;stroke:#f1b31c"/>
  <path d="m14.357 30.407 0.35389-0.88596 0.27824 1.1151 0.35389-0.88596" style="clip-rule:evenodd;fill:none;stroke-linecap:round;stroke-linejoin:round;stroke-miterlimit:10;stroke-width:.27069px;stroke:#f1b31c"/>
  <path d="m17.484 30.088-0.31814 0.9393-0.22819-0.96373" style="clip-rule:evenodd;fill:none;stroke-linecap:round;stroke-linejoin:round;stroke-miterlimit:10;stroke-width:.2728px;stroke:#f1b31c"/>
  <path d="m18.594 30.904-0.47296-0.80601-0.30504 0.88335" style="clip-rule:evenodd;fill:none;stroke-linecap:round;stroke-linejoin:round;stroke-miterlimit:10;stroke-width:.25141px;stroke:#f1b31c"/>
  <path d="m17.926 30.766 0.51867-0.05156" style="clip-rule:evenodd;fill:none;stroke-linecap:round;stroke-linejoin:round;stroke-miterlimit:10;stroke-width:.25141px;stroke:#f1b31c"/>
  <path d="m19.427 30.788-0.32879 0.08877-0.25225-0.9079 0.32879-0.08877c0.15552-0.04199 0.31546 0.04513 0.35698 0.19457l0.02694 0.09695 0.07488 0.26952c0.04156 0.14958-0.05103 0.30487-0.20655 0.34686z" style="clip-rule:evenodd;fill:none;stroke-linecap:round;stroke-linejoin:round;stroke-miterlimit:10;stroke-width:.27538px;stroke:#f1b31c"/>
  <path d="m20.801 30.265-0.72799-0.64511 0.03137 0.96206" style="clip-rule:evenodd;fill:none;stroke-linecap:round;stroke-linejoin:round;stroke-miterlimit:10;stroke-width:.25451px;stroke:#f1b31c"/>
  <path d="m20.13 30.336 0.46442-0.2113" style="clip-rule:evenodd;fill:none;stroke-linecap:round;stroke-linejoin:round;stroke-miterlimit:10;stroke-width:.25451px;stroke:#f1b31c"/>
  <path transform="matrix(.10667 0 0 .1 4 16)" d="m213.87 113.17c0.03-0.083-0.039-0.18-0.25-0.351-0.627-0.508-1.546-1.46-1.837-1.904-0.57-0.872-1.16-2.257-1.509-3.544-0.27-1.002-0.37-1.72-0.426-3.1-0.052-1.254-0.062-1.321-0.266-1.814a5.989 5.989 0 0 0-0.402-0.802c-0.368-0.559-1.743-1.844-2.455-2.295a57.077 57.077 0 0 0-1.26-0.744c-1.578-0.911-3.539-2.182-3.946-2.558a4.022 4.022 0 0 0-0.497-0.37c-0.164-0.101-0.463-0.325-0.663-0.497s-0.47-0.383-0.597-0.47c-0.771-0.524-3.724-3.348-4.57-4.37-1-1.207-2.087-2.813-2.57-3.795-0.187-0.382-0.295-0.527-0.414-0.557-0.15-0.038-1.421 0.355-2.096 0.649l-0.829 0.362c-0.671 0.293-1.707 0.844-2.12 1.128-0.416 0.286-1.288 1.137-1.577 1.54-0.134 0.187-0.432 0.558-0.66 0.825-0.23 0.268-0.418 0.519-0.418 0.559 0 0.226 1.29 1.992 2.063 2.824 0.835 0.898 3.135 2.746 4.305 3.458 0.564 0.344 2.3 1.247 2.85 1.483 0.201 0.086 0.679 0.299 1.062 0.473 2.164 0.98 4.511 1.698 9.232 2.82 0.872 0.208 1.325 0.438 1.735 0.884 0.28 0.304 0.375 0.468 0.467 0.807 0.49 1.8 1.179 3.59 1.782 4.632 1.216 2.095 2.29 3.247 3.924 4.202 0.888 0.519 1.845 0.777 1.941 0.524zm-172.46-0.755c1.64-0.51 3.192-1.683 4.233-3.2l0.531-0.772c0.75-1.091 1.604-3.135 2.051-4.907 0.308-1.216 0.72-1.623 2.056-2.025 0.31-0.093 0.818-0.219 1.128-0.28 0.31-0.06 0.787-0.171 1.061-0.246 0.274-0.074 0.796-0.204 1.16-0.29 0.813-0.19 2.362-0.64 2.711-0.789 0.142-0.06 0.302-0.109 0.356-0.109s0.49-0.139 0.97-0.31c1.786-0.634 4.2-1.674 4.854-2.09 0.233-0.148 0.441-0.27 0.462-0.27 0.168 0 2.727-1.706 3.447-2.298 1.307-1.075 1.892-1.666 2.85-2.876 0.663-0.839 0.898-1.2 0.896-1.38-3e-3 -0.192-1.241-1.814-1.773-2.321-0.51-0.487-1.701-1.26-2.618-1.7-0.882-0.424-3.14-1.255-3.332-1.227-0.093 0.013-0.24 0.213-0.479 0.653a22.996 22.996 0 0 1-2.37 3.502c-1.09 1.333-4.363 4.385-5.48 5.11-0.142 0.092-0.803 0.56-1.47 1.038-1.392 1-1.977 1.379-3.04 1.966-1.113 0.615-1.829 1.052-2.281 1.393-0.669 0.505-1.661 1.574-1.983 2.137-0.475 0.83-0.52 1.021-0.577 2.445-0.093 2.308-0.555 4.061-1.563 5.927-0.603 1.116-1.212 1.837-1.983 2.347-0.53 0.351-0.573 0.417-0.391 0.6 0.126 0.128 0.064 0.131 0.574-0.028z" fill="#ffa300" style="fill:#f1b31c"/>
  <path transform="matrix(.10667 0 0 .1 4 16)" d="m200.96 83.116c0.913-0.48 1.526-1.454 1.526-2.425 0-0.854-0.43-2.284-0.942-3.137a7.225 7.225 0 0 1-0.336-0.604c-0.061-0.162-1.13-1.754-1.428-2.127-0.135-0.168-0.47-0.568-0.743-0.888s-0.65-0.768-0.836-0.996c-0.186-0.227-0.813-0.878-1.394-1.447-0.58-0.57-1.28-1.32-1.555-1.67-0.612-0.775-1.533-2.182-1.899-2.903-0.556-1.093-0.878-2.344-0.88-3.418-2e-3 -0.754-0.065-0.882-0.301-0.606-0.18 0.21-1.246 2.104-1.878 3.336-0.259 0.504-0.55 1.045-0.647 1.202-0.47 0.758-1.316 2.01-1.679 2.482-0.222 0.29-0.404 0.563-0.404 0.607 0 0.045 0.118 0.258 0.261 0.475 0.289 0.434 1.854 2.824 3.144 4.8 0.83 1.272 2.144 3.041 3.023 4.072 0.96 1.125 2.009 2.034 3.089 2.674 0.993 0.59 1.68 0.772 2.795 0.741 0.672-0.018 0.85-0.046 1.084-0.168zm-144.7-0.668c0.726-0.19 1.892-0.808 2.643-1.403 1.004-0.795 2.944-2.886 3.6-3.879 0.329-0.499 1.202-1.73 1.608-2.27 0.31-0.41 1.251-1.758 2.077-2.97 0.3-0.441 0.663-0.967 0.807-1.169 0.143-0.202 0.262-0.43 0.263-0.506 0-0.076-0.17-0.36-0.38-0.632-0.39-0.506-1.47-2.162-1.858-2.85-0.119-0.212-0.45-0.82-0.737-1.352-0.784-1.46-1.417-2.574-1.58-2.784-0.214-0.275-0.259-0.147-0.305 0.88-0.022 0.49-0.086 1.072-0.143 1.292-0.143 0.557-0.641 1.78-0.887 2.18a16.05 16.05 0 0 0-0.315 0.534c-0.18 0.329-1.154 1.632-1.624 2.174-0.24 0.278-0.89 0.936-1.445 1.462s-1.059 1.024-1.122 1.106-0.455 0.52-0.87 0.975c-1.422 1.553-2.096 2.484-3.037 4.197-0.232 0.422-0.576 1.423-0.69 2.01-0.285 1.454 0.55 2.847 1.876 3.13 0.424 0.092 1.542 0.025 2.119-0.125z" fill="#ffa300" style="fill:#f1b31c"/>
  <path transform="matrix(.10667 0 0 .1 4 16)" d="m194.13 65.522c0.707-0.744 1.227-1.18 2.216-1.858 2.221-1.521 4.087-2.335 6.93-3.021 0.712-0.172 1.412-0.362 1.556-0.423 0.39-0.164 0.902-0.71 1.23-1.312 0.276-0.505 1.021-1.4 1.905-2.288 0.192-0.194 0.35-0.393 0.35-0.443 0-0.232-0.156-0.25-1.935-0.215-1.672 0.032-2.733 0.12-4.1 0.343l-1.061 0.17c-1.205 0.187-3.066 0.777-4.268 1.352-2.085 0.997-3.659 2.648-4.099 4.3-0.17 0.639-0.18 1.742-0.024 2.504 0.09 0.437 0.365 1.29 0.474 1.467 0.084 0.137 0.274 5e-3 0.826-0.576zm-132.33-0.105c0.505-1.45 0.543-2.945 0.103-4.05-0.398-1-1.393-2.19-2.422-2.895-0.827-0.567-2.47-1.358-3.469-1.67a25.129 25.129 0 0 0-4.443-0.959c-1.92-0.232-4.868-0.31-5.015-0.131-0.052 0.064 0.11 0.28 0.65 0.872 1.167 1.279 1.313 1.458 1.615 1.97 0.34 0.576 0.785 1.072 1.156 1.29 0.162 0.095 0.696 0.25 1.354 0.396 1.108 0.243 2.972 0.835 3.987 1.265 0.813 0.345 2.049 1.055 3.328 1.912 0.678 0.455 1.783 1.407 2.284 1.968 0.567 0.635 0.661 0.638 0.872 0.032zm147.05-9.935c0.36-0.143 0.639-0.375 0.777-0.647 0.037-0.074 0.102-0.434 0.144-0.801 0.139-1.215 0.386-1.797 1.086-2.55 0.386-0.414 1.172-0.989 1.764-1.288 0.162-0.082 0.71-0.294 1.219-0.47 1.37-0.476 1.377-0.558 0.053-0.63-2.316-0.127-4.393 0.397-5.816 1.467-0.754 0.567-1.21 1.164-1.64 2.149-0.292 0.67-0.42 1.132-0.543 1.956-0.12 0.8-0.12 0.77 0.011 0.903 0.097 0.097 0.26 0.108 1.343 0.084 1.074-0.023 1.28-0.045 1.602-0.173zm-159.84-0.28c0.073-0.073 0.133-0.159 0.133-0.19 0-0.238-0.36-1.747-0.519-2.18-0.282-0.764-0.34-0.888-0.636-1.335-0.796-1.204-2.036-2.055-3.686-2.527-0.999-0.286-1.844-0.394-3.084-0.397-0.948-1e-3 -1.253 0.042-1.21 0.171 0.034 0.103 0.127 0.148 0.878 0.424 0.784 0.288 1.614 0.672 2.034 0.94 0.829 0.529 1.575 1.288 1.9 1.933 0.21 0.414 0.41 1.208 0.41 1.625 1e-3 0.974 0.449 1.466 1.46 1.603 0.2 0.027 0.774 0.053 1.276 0.058 0.83 8e-3 0.924-3e-3 1.044-0.125z" fill="#ffa300" style="fill:#f1b31c"/>
 </g>
 <g id="line">
  <rect x="5" y="17" width="62" height="38" fill="none" stroke="#000" stroke-linecap="round" stroke-linejoin="round" stroke-width="2"/>
  <path d="m21.726 22.855 0.66972-0.68109-0.22906 1.1672 0.66972-0.68109" style="clip-rule:evenodd;fill:none;stroke-linecap:round;stroke-linejoin:round;stroke-miterlimit:10;stroke-width:.26741px;stroke:#000"/>
  <path d="m21.417 22.1-0.11289 0.50574" style="clip-rule:evenodd;fill:none;stroke-linecap:round;stroke-linejoin:round;stroke-miterlimit:10;stroke-width:.26499px;stroke:#000"/>
  <path d="m20.862 22.266 0.5397-0.76553 0.27776 0.21369c0.10022 0.0771 0.12128 0.22504 0.04704 0.33036-0.07425 0.10532-0.21566 0.12809-0.31588 0.05098l-0.27776-0.21369" style="clip-rule:evenodd;fill:none;stroke-linecap:round;stroke-linejoin:round;stroke-miterlimit:10;stroke-width:.26498px;stroke:#000"/>
  <path d="m20.107 21.946c-0.15677-0.08788-0.21152-0.28647-0.12206-0.44352l0.12954-0.22745c0.08945-0.15706 0.28916-0.21299 0.44593-0.1251 0.15688 0.08795 0.21152 0.28647 0.12206 0.44352l-0.12955 0.22745c-0.08945 0.15706-0.28905 0.21305-0.44593 0.1251z" style="clip-rule:evenodd;fill:none;stroke-linecap:round;stroke-linejoin:round;stroke-miterlimit:10;stroke-width:.2611px;stroke:#000"/>
  <path d="m18.861 21.484 0.23171-0.84357" style="clip-rule:evenodd;fill:none;stroke-linecap:round;stroke-linejoin:round;stroke-miterlimit:10;stroke-width:.25409px;stroke:#000"/>
  <path d="m19.31 21.152-0.33239-0.0913 0.11543-0.42022 0.33239 0.0913c0.11993 0.03294 0.19134 0.15377 0.15946 0.26983-0.03188 0.11605-0.15496 0.18333-0.27489 0.15039z" style="clip-rule:evenodd;fill:none;stroke-linecap:round;stroke-linejoin:round;stroke-miterlimit:10;stroke-width:.25409px;stroke:#000"/>
  <path d="m19.194 21.572-0.33239-0.0913 0.11543-0.42022 0.33239 0.0913c0.11993 0.03294 0.19137 0.15366 0.1595 0.26971-0.03188 0.11605-0.15499 0.18345-0.27492 0.15051z" style="clip-rule:evenodd;fill:none;stroke-linecap:round;stroke-linejoin:round;stroke-miterlimit:10;stroke-width:.25409px;stroke:#000"/>
  <path d="m17.82 20.509h-0.52803v0.87001h0.52803" style="clip-rule:evenodd;fill:none;stroke-linecap:round;stroke-linejoin:round;stroke-miterlimit:10;stroke-width:.25618px;stroke:#000"/>
  <path d="m17.292 20.944h0.39602" style="clip-rule:evenodd;fill:none;stroke-linecap:round;stroke-linejoin:round;stroke-miterlimit:10;stroke-width:.25618px;stroke:#000"/>
  <path d="m16.235 20.557 0.17873 0.9357 0.35233-0.0673" style="clip-rule:evenodd;fill:none;stroke-linecap:round;stroke-linejoin:round;stroke-miterlimit:10;stroke-width:.25512px;stroke:#000"/>
  <path d="m15.103 20.949 0.51717-0.20472" style="clip-rule:evenodd;fill:none;stroke-linecap:round;stroke-linejoin:round;stroke-miterlimit:10;stroke-width:.26353px;stroke:#000"/>
  <path d="m15.362 20.847 0.32168 0.81264" style="clip-rule:evenodd;fill:none;stroke-linecap:round;stroke-linejoin:round;stroke-miterlimit:10;stroke-width:.26353px;stroke:#000"/>
  <path d="m14.094 21.378 0.47566-0.28832" style="clip-rule:evenodd;fill:none;stroke-linecap:round;stroke-linejoin:round;stroke-miterlimit:10;stroke-width:.26353px;stroke:#000"/>
  <path d="m14.331 21.234 0.45304 0.7474" style="clip-rule:evenodd;fill:none;stroke-linecap:round;stroke-linejoin:round;stroke-miterlimit:10;stroke-width:.26353px;stroke:#000"/>
  <path d="m14.317 22.248-0.8503-0.51872 0.21667 0.97218" style="clip-rule:evenodd;fill:none;stroke-linecap:round;stroke-linejoin:round;stroke-miterlimit:10;stroke-width:.26082px;stroke:#000"/>
  <path d="m13.661 22.446 0.42242-0.30231" style="clip-rule:evenodd;fill:none;stroke-linecap:round;stroke-linejoin:round;stroke-miterlimit:10;stroke-width:.26082px;stroke:#000"/>
  <path d="m13 23.294-0.64448-0.58965" style="clip-rule:evenodd;fill:none;stroke-linecap:round;stroke-linejoin:round;stroke-miterlimit:10;stroke-width:.25543px;stroke:#000"/>
  <path d="m13.233 23.034-0.23549 0.25738-0.32104-0.29373 0.23549-0.25738c0.08497-0.09287 0.22569-0.10248 0.31435-0.02136 0.08866 0.08112 0.09166 0.22222 0.0067 0.31509z" style="clip-rule:evenodd;fill:none;stroke-linecap:round;stroke-linejoin:round;stroke-miterlimit:10;stroke-width:.25543px;stroke:#000"/>
  <path d="m12.912 22.74-0.23549 0.25738-0.32104-0.29373 0.23549-0.25738c0.08497-0.09287 0.22578-0.10239 0.31444-0.02127 0.08866 0.08112 0.09157 0.22214 0.0066 0.315z" style="clip-rule:evenodd;fill:none;stroke-linecap:round;stroke-linejoin:round;stroke-miterlimit:10;stroke-width:.25543px;stroke:#000"/>
 </g>
</svg>
