<svg id="emoji" viewBox="0 0 72 72" xmlns="http://www.w3.org/2000/svg">
  <g id="grid">
    <path fill="#b3b3b3" d="M68,4V68H4V4H68m4-4H0V72H72V0Z"/>
    <path fill="none" stroke="#00a5ff" stroke-miterlimit="10" stroke-width="0.1" d="M12.923,10.9583H59.0769A1.9231,1.9231,0,0,1,61,12.8814V59.0352a1.9231,1.9231,0,0,1-1.9231,1.9231H12.9231A1.9231,1.9231,0,0,1,11,59.0352V12.8813A1.923,1.923,0,0,1,12.923,10.9583Z"/>
    <rect x="16" y="4" rx="2.2537" ry="2.2537" width="40" height="64" fill="none" stroke="#00a5ff" stroke-miterlimit="10" stroke-width="0.1"/>
    <rect x="16" y="4" rx="2.2537" ry="2.2537" width="40" height="64" transform="translate(72) rotate(90)" fill="none" stroke="#00a5ff" stroke-miterlimit="10" stroke-width="0.1"/>
    <circle cx="36" cy="36" r="29" fill="none" stroke="#00a5ff" stroke-miterlimit="10" stroke-width="0.1"/>
  </g>
  <g id="color">
    <rect x="5" y="17" width="62" height="38" fill="#fff"/>
    <rect x="5" y="29" width="62" height="7" fill="#d22f27"/>
    <rect x="5" y="41" width="62" height="7" fill="#d22f27"/>
    <path fill="#d22f27" d="M24,18.5 L24.75,21.25 L27.5,21.25 L25.375,22.75 L26.125,25.5 L24,24 L21.875,25.5 L22.625,22.75 L20.5,21.25 L23.25,21.25 Z"/>
    <path fill="#d22f27" d="M36,18.5 L36.75,21.25 L39.5,21.25 L37.375,22.75 L38.125,25.5 L36,24 L33.875,25.5 L34.625,22.75 L32.5,21.25 L35.25,21.25 Z"/>
    <path fill="#d22f27" d="M48,18.5 L48.75,21.25 L51.5,21.25 L49.375,22.75 L50.125,25.5 L48,24 L45.875,25.5 L46.625,22.75 L44.5,21.25 L47.25,21.25 Z"/>
  </g>
  <g id="line">
    <rect x="5" y="17" width="62" height="38" fill="none" stroke="#000" stroke-linecap="round" stroke-linejoin="round" stroke-width="2"/>
  </g>
</svg>
