<svg id="emoji" xmlns="http://www.w3.org/2000/svg" viewBox="0 0 72 72">
  <g id="grid">
    <path d="M68,4V68H4V4H68m4-4H0V72H72V0Z" fill="#b3b3b3"/>
    <path d="M12.923,10.9583H59.0769A1.9231,1.9231,0,0,1,61,12.8814V59.0352a1.9231,1.9231,0,0,1-1.9231,1.9231H12.9231A1.9231,1.9231,0,0,1,11,59.0352V12.8813A1.923,1.923,0,0,1,12.923,10.9583Z" fill="none" stroke="#00a5ff" stroke-miterlimit="10" stroke-width="0.1"/>
    <rect x="16" y="4" width="40" height="64" rx="2.2537" fill="none" stroke="#00a5ff" stroke-miterlimit="10" stroke-width="0.1"/>
    <rect x="16" y="4" width="40" height="64" rx="2.2537" transform="translate(72) rotate(90)" fill="none" stroke="#00a5ff" stroke-miterlimit="10" stroke-width="0.1"/>
    <circle cx="36" cy="36" r="29" fill="none" stroke="#00a5ff" stroke-miterlimit="10" stroke-width="0.1"/>
  </g>
  <g id="color">
    <path fill="#fcea2b" d="M36.2002,13.3163c-12.5719,0-22.7998,10.2279-22.7998,22.7998c0,12.5718,10.2279,22.7998,22.7998,22.7998 C48.772,58.9159,59,48.6879,59,36.1161C59,23.5442,48.772,13.3163,36.2002,13.3163z" stroke="none"/>
  </g>
  <g id="hair"/>
  <g id="skin"/>
  <g id="skin-shadow"/>
  <g id="line">
    <circle cx="36" cy="36" r="23" fill="none" stroke="#000" stroke-width="2" stroke-miterlimit="10"/>
    <path d="m30.09 43.09c3.126-0.7889 4.815-1.229 8.332-1.098 3.229 0.1204 6.141 0.5955 7.579 2.936" fill="none" stroke-linecap="round" stroke-linejoin="round" stroke-miterlimit="10" stroke-width="2" stroke="#000"/>
    <path d="m23.29 26.7c0.3266-0.4271 1.792-2.245 4.424-2.685 2.135-0.3566 3.794 0.4017 4.352 0.688" fill="none" stroke="#000" stroke-linecap="round" stroke-linejoin="round" stroke-width="2" stroke-miterlimit="10"/>
    <path d="m32.32 30.92c0 1.657-1.345 3-3 3-1.432-0.2211-2.413-1.214-1.328-3.552 0.2863-0.6164-1.672 1.284-1.672 0.5518 0-1.655 1.345-3 3-3s3 1.345 3 3"/>
    <path d="m50.32 30.92c0 1.657-1.345 3-3 3-1.432-0.2211-2.413-1.214-1.328-3.552 0.2863-0.6164-1.672 1.284-1.672 0.5518 0-1.655 1.345-3 3-3s3 1.345 3 3"/>
    <path d="m42.93 25c0.4667-0.25 2.52-1.1 5.042-0.5743 2.118 0.3921 2.421 0.8283 3.73 1.725" stroke-miterlimit="10" fill="none" stroke-linecap="round" stroke-linejoin="round" stroke-miterlimit="10" stroke-width="2" stroke="#000"/>
  </g>
</svg>
