<svg id="emoji" version="1.1" viewBox="0 0 72 72" xmlns="http://www.w3.org/2000/svg">
 <g id="grid">
  <path d="M68,4v64H4V4H68 M72,0H0v72h72V0z" fill="#B3B3B3"/>
  <path d="m12.923 10.958h46.154c1.0621 0 1.9231 0.861 1.9231 1.9231v46.154c0 1.0621-0.861 1.9231-1.9231 1.9231h-46.154c-1.0621 0-1.9231-0.861-1.9231-1.9231v-46.154c0-1.062 0.861-1.923 1.923-1.923z" fill="none" stroke="#00A5FF" stroke-miterlimit="10" stroke-width=".1"/>
  <path d="M18.2537,4h35.4926C54.991,4,56,5.009,56,6.2537 v59.4926C56,66.991,54.991,68,53.7463,68H18.2537C17.009,68,16,66.991,16,65.7463V6.2537C16,5.009,17.009,4,18.2537,4z" fill="none" stroke="#00A5FF" stroke-miterlimit="10" stroke-width=".1"/>
  <path d="M68,18.2537v35.4926 C68,54.991,66.991,56,65.7463,56H6.2537C5.009,56,4,54.991,4,53.7463V18.2537C4,17.009,5.009,16,6.2537,16h59.4926 C66.991,16,68,17.009,68,18.2537z" fill="none" stroke="#00A5FF" stroke-miterlimit="10" stroke-width=".1"/>
  <circle cx="36" cy="36" r="29" fill="none" stroke="#00A5FF" stroke-miterlimit="10" stroke-width=".1"/>
 </g>
 <g id="color" transform="translate(-.46572 .27943)">
  <circle cx="36.466" cy="35.721" r="24" fill="#fcea2b" stroke-width="1.0435"/>
  <path transform="translate(.46572 -.27943)" d="m57.356 45.995c-0.11229-0.02554-0.2261-0.04508-0.34083-0.05855 0.08258-1.0624-0.62908-2.0404-1.7267-2.3733-0.39964-0.09053-0.81952-0.0689-1.2058 0.06203 0.07885-1.5558-0.97987-2.9683-2.5865-3.4508-1.9341-0.44729-3.9821 0.95319-4.5744 3.1282-0.04699 0.17711-0.08333 0.35647-0.10884 0.53728l-5.927 0.07073-1.9667 5.5381 5.7933 1.9698-0.0073 0.02295c-0.59275 2.1749 0.49535 4.3007 2.4294 4.748 1.4829 0.26268 2.9877-0.34615 3.7816-1.5301 0.28479 0.35372 0.69219 0.60711 1.1546 0.71815 1.2475 0.18708 2.4592-0.48353 2.8662-1.5864 0.08985 0.02944 0.17994 0.0584 0.27414 0.08021 1.934 0.44727 3.9821-0.95319 4.5744-3.1282s-0.49535-4.3007-2.4297-4.7481z" fill="#d0cfce" stroke-width="2.155"/>
  <path transform="translate(.46572 -.27943)" d="m57.491 46.026a3.024 2.7872 0.0025507 0 0-0.34036-0.0588 2.5211 2.3237 0.0025507 0 0-1.7267-2.3733 2.0654 1.9037 0.0025507 0 0-1.2058 0.06203 3.7535 3.4596 0.0025507 0 0-2.5865-3.4508c-1.9341-0.44729-3.9821 0.95319-4.5744 3.1282a5.3663 4.9461 0.0025507 0 0-0.10884 0.53728l-1.307 0.28558a4.2921 3.956 0.0025507 0 1 1.091 2.6314 2.0655 1.9038 0.0025507 0 1 1.2059-0.06201 2.5208 2.3234 0.0025507 0 1 1.7266 2.3732 3.01 2.7743 0.0025507 0 1 0.34092 0.05857c1.9339 0.44778 3.0217 2.5731 2.4294 4.748a5.2431 4.8326 0.0025507 0 1-0.62462 1.3639 1.9739 1.8193 0.0025507 0 0 0.39622 0.13912 2.5886 2.386 0.0025507 0 0 2.8662-1.5865c0.08985 0.02944 0.18003 0.05842 0.27414 0.08021 1.934 0.44727 3.982-0.95321 4.5743-3.1282s-0.49638-4.3006-2.4304-4.7479z" fill="#fff" stroke-width="2.3457"/>
  <ellipse cx="36.318" cy="44.553" rx="5.052" ry="5.0025" fill="#fff" stroke-width="2.4967"/>
 </g>
 <g id="line" fill="none" stroke="#000" stroke-linecap="round" stroke-linejoin="round" stroke-width="2">
  <path d="m43.532 57.738c-2.3599 0.81758-4.8942 1.2617-7.5323 1.2617-12.703 0-23-10.297-23-23s10.297-23 23-23 23 10.297 23 23c0 1.8029-0.20743 3.5573-0.59972 5.2407" stroke-miterlimit="10"/>
  <path d="m35.852 48.836c-2.2378 0-4.0519-1.792-4.0519-4.0025s1.8141-4.0025 4.0519-4.0025c0.9292 0 1.7854 0.30896 2.4689 0.82857" stroke-miterlimit="10"/>
  <path d="m22.88 24.62c5.102-0.06134 7.273-1.882 8.383-3.346" stroke-miterlimit="10"/>
  <path d="m49.12 24.62c-5.102-0.06134-7.273-1.882-8.383-3.346" stroke-miterlimit="10"/>
  <path d="m48.24 31.21c-6.199 1.47-7.079 1.059-8.868-1.961" stroke-miterlimit="10"/>
  <path d="m23.76 31.21c6.199 1.47 7.079 1.059 8.868-1.961" stroke-miterlimit="10"/>
  <path d="m38.585 49.161 6.2987 2.2974-0.0073 0.02295c-0.59275 2.1749 0.48375 4.298 2.4034 4.742 1.4772 0.25821 2.9737-0.3532 3.7581-1.5355 0.2814 0.35262 0.68574 0.60541 1.1453 0.71598 1.2437 0.18238 2.4483-0.49004 2.8492-1.5904 0.08911 0.02927 0.17864 0.0581 0.27182 0.07967 1.9198 0.44396 3.9562-0.95921 4.5484-3.1342 0.59229-2.175-0.48366-4.298-2.4034-4.742-0.11146-0.02535-0.22443-0.04469-0.33832-0.05796 0.08733-1.058-0.61765-2.035-1.71-2.3698-0.3971-0.08976-0.8143-0.06749-1.1975 0.06394 0.08599-1.5493-0.96314-2.9601-2.5619-3.4451-1.9197-0.44394-3.9562 0.95921-4.5484 3.1342-0.04698 0.1771-0.08342 0.35644-0.10912 0.53721l-6.3672-0.87382" fill="none" stroke="#000" stroke-linecap="round" stroke-linejoin="round"/>
 </g>
</svg>
