<svg id="emoji" viewBox="0 0 72 72" xmlns="http://www.w3.org/2000/svg">
  <g id="grid">
    <path fill="#B3B3B3" d="M68,4v64H4V4H68 M72,0H0v72h72V0z"/>
    <path fill="none" stroke="#00A5FF" stroke-miterlimit="10" stroke-width="0.1" d="M12.923,10.9583h46.1539 c1.0621,0,1.9231,0.861,1.9231,1.9231l0,0v46.1538c0,1.0621-0.861,1.9231-1.9231,1.9231H12.9231 c-1.0621,0-1.9231-0.861-1.9231-1.9231l0,0V12.8813C11,11.8193,11.861,10.9583,12.923,10.9583L12.923,10.9583z"/>
    <path fill="none" stroke="#00A5FF" stroke-miterlimit="10" stroke-width="0.1" d="M18.2537,4h35.4926C54.991,4,56,5.009,56,6.2537 v59.4926C56,66.991,54.991,68,53.7463,68H18.2537C17.009,68,16,66.991,16,65.7463V6.2537C16,5.009,17.009,4,18.2537,4z"/>
    <path fill="none" stroke="#00A5FF" stroke-miterlimit="10" stroke-width="0.1" d="M68,18.2537v35.4926 C68,54.991,66.991,56,65.7463,56H6.2537C5.009,56,4,54.991,4,53.7463V18.2537C4,17.009,5.009,16,6.2537,16h59.4926 C66.991,16,68,17.009,68,18.2537z"/>
    <circle cx="36" cy="36" r="29" fill="none" stroke="#00A5FF" stroke-miterlimit="10" stroke-width="0.1"/>
  </g>
  <g id="color">
    <ellipse cx="36" cy="35.6432" rx="23" ry="23" fill="#FCEA2B"/>
    <path fill="#9B9B9A" d="M58.2965,54.1981l-1.9462,1.9462c-0.9381,0.9381-2.459,0.9381-3.397,0l-4.8606-4.8606 c-0.9381-0.9381-0.9381-2.459,0-3.397l1.9462-1.9462c0.9381-0.9381,2.459-0.9381,3.397,0l4.8606,4.8606 C59.2345,51.7391,59.2345,53.26,58.2965,54.1981z"/>
    <path fill="#D0CFCE" d="M50.3547,47.7874l-0.5122,0.5122c-0.2878,0.2878-0.7544,0.2878-1.0421,0l-1.6157-1.6157 c-0.2878-0.2878-0.2878-0.7544,0-1.0421l0.5122-0.5122c0.2878-0.2878,0.7544-0.2878,1.0421,0l1.6157,1.6157 C50.6425,47.033,50.6425,47.4996,50.3547,47.7874z"/>
  </g>
  <g id="hair"/>
  <g id="skin"/>
  <g id="skin-shadow"/>
  <g id="line">
    <line x1="47.7051" x2="24.0398" y1="45.6842" y2="45.5954" fill="none" stroke="#000000" stroke-linecap="round" stroke-linejoin="round" stroke-miterlimit="10" stroke-width="2"/>
    <line x1="24.5607" x2="24.5607" y1="45.8654" y2="49.1684" fill="none" stroke="#000000" stroke-linecap="round" stroke-linejoin="round" stroke-miterlimit="10" stroke-width="2"/>
    <line x1="26.4723" x2="26.4723" y1="42.0256" y2="45.3286" fill="none" stroke="#000000" stroke-linecap="round" stroke-linejoin="round" stroke-miterlimit="10" stroke-width="2"/>
    <line x1="28.4129" x2="28.4129" y1="45.8654" y2="49.1684" fill="none" stroke="#000000" stroke-linecap="round" stroke-linejoin="round" stroke-miterlimit="10" stroke-width="2"/>
    <line x1="30.3245" x2="30.3245" y1="42.0256" y2="45.3286" fill="none" stroke="#000000" stroke-linecap="round" stroke-linejoin="round" stroke-miterlimit="10" stroke-width="2"/>
    <line x1="32.2527" x2="32.2527" y1="45.8654" y2="49.1684" fill="none" stroke="#000000" stroke-linecap="round" stroke-linejoin="round" stroke-miterlimit="10" stroke-width="2"/>
    <line x1="34.1643" x2="34.1643" y1="42.0256" y2="45.3286" fill="none" stroke="#000000" stroke-linecap="round" stroke-linejoin="round" stroke-miterlimit="10" stroke-width="2"/>
    <line x1="36.1049" x2="36.1049" y1="45.8654" y2="49.1684" fill="none" stroke="#000000" stroke-linecap="round" stroke-linejoin="round" stroke-miterlimit="10" stroke-width="2"/>
    <line x1="38.0165" x2="38.0165" y1="42.0256" y2="45.3286" fill="none" stroke="#000000" stroke-linecap="round" stroke-linejoin="round" stroke-miterlimit="10" stroke-width="2"/>
    <line x1="39.9323" x2="39.9323" y1="45.8654" y2="49.1684" fill="none" stroke="#000000" stroke-linecap="round" stroke-linejoin="round" stroke-miterlimit="10" stroke-width="2"/>
    <line x1="41.8439" x2="41.8439" y1="42.0256" y2="45.3286" fill="none" stroke="#000000" stroke-linecap="round" stroke-linejoin="round" stroke-miterlimit="10" stroke-width="2"/>
    <line x1="43.8134" x2="43.8134" y1="45.8654" y2="49.1684" fill="none" stroke="#000000" stroke-linecap="round" stroke-linejoin="round" stroke-miterlimit="10" stroke-width="2"/>
    <line x1="45.7003" x2="45.7003" y1="42.0256" y2="45.3286" fill="none" stroke="#000000" stroke-linecap="round" stroke-linejoin="round" stroke-miterlimit="10" stroke-width="2"/>
    <path fill="none" stroke="#000000" stroke-linecap="round" stroke-miterlimit="10" stroke-width="2" d="M50.9177,45.3276 c0.8493-0.3076,1.8373-0.121,2.5182,0.56l4.8606,4.8606c0.938,0.938,0.938,2.4589,0,3.397l-1.9462,1.9462 c-0.9381,0.9381-2.459,0.9381-3.397,0l-4.8606-4.8606c-0.6461-0.6461-0.8472-1.5687-0.6033-2.3869"/>
    <path fill="none" stroke="#000000" stroke-linecap="round" stroke-linejoin="round" stroke-miterlimit="10" stroke-width="2" d="M57.4811,44.2366C58.4623,41.6794,59,38.9025,59,36c0-12.7031-10.2979-23-23-23c-12.7023-0.0001-23,10.2969-23,23 c0,12.7022,10.2978,23,23,23c4.0701,0,7.8933-1.0574,11.21-2.9123"/>
    <path d="M30,31c0,1.6568-1.3448,3-3,3c-1.6553,0-3-1.3433-3-3c0-1.6552,1.3447-3,3-3C28.6552,28,30,29.3448,30,31"/>
    <path d="M48,31c0,1.6568-1.3447,3-3,3s-3-1.3433-3-3c0-1.6552,1.3447-3,3-3S48,29.3448,48,31"/>
  </g>
</svg>
