<svg id="emoji" xmlns="http://www.w3.org/2000/svg" viewBox="0 0 72 72">
  <g id="grid">
    <path fill="#B3B3B3" d="M68,4v64H4V4H68 M72,0H0v72h72V0z"/>
    <path fill="none" stroke="#00A5FF" stroke-width="0.1" stroke-miterlimit="10" d="M12.923,10.9583h46.1539 c1.0621,0,1.9231,0.861,1.9231,1.9231v0v46.1538c0,1.0621-0.861,1.9231-1.9231,1.9231H12.9231 c-1.0621,0-1.9231-0.861-1.9231-1.9231l0,0V12.8813C11,11.8193,11.861,10.9583,12.923,10.9583L12.923,10.9583z"/>
    <path fill="none" stroke="#00A5FF" stroke-width="0.1" stroke-miterlimit="10" d="M18.2537,4h35.4926C54.991,4,56,5.009,56,6.2537 v59.4926C56,66.991,54.991,68,53.7463,68H18.2537C17.009,68,16,66.991,16,65.7463V6.2537C16,5.009,17.009,4,18.2537,4z"/>
    <path fill="none" stroke="#00A5FF" stroke-width="0.1" stroke-miterlimit="10" d="M68,18.2537v35.4926 C68,54.991,66.991,56,65.7463,56H6.2537C5.009,56,4,54.991,4,53.7463V18.2537C4,17.009,5.009,16,6.2537,16h59.4926 C66.991,16,68,17.009,68,18.2537z"/>
    <circle fill="none" stroke="#00A5FF" stroke-width="0.1" stroke-miterlimit="10" cx="36" cy="36" r="29"/>
  </g>
  <g id="color">
    <circle fill="none" stroke="#FCEA2B" stroke-width="1.8" stroke-miterlimit="10" cx="34.0193" cy="38.6638" r="22.9758"/>
    <path fill="#FCEA2B" d="M34.0193,15.688c12.6892,0,22.9758,10.2866,22.9758,22.9758c0,1.1833-0.0895,2.3457-0.262,3.4808 c2.6745,1.926,2.6745,6.1265-2.1892,6.8563c-3.7833,7.4971-11.5535,12.6386-20.5246,12.6386 c-12.6892,0-22.9758-10.2866-22.9758-22.9758S21.3301,15.688,34.0193,15.688z"/>
  </g>
  <g id="hair"/>
  <g id="skin"/>
  <g id="skin-shadow"/>
  <g id="line">
    <path fill="none" stroke="#000000" stroke-width="2" stroke-linecap="round" stroke-linejoin="round" stroke-miterlimit="10" d="M18.9869,29.9408c0.851-1.3097,2.1554-2.2567,3.6642-2.659c1.4662-0.5614,3.0882-0.5534,4.5496,0.0179"/>
    <path fill="none" stroke="#000000" stroke-width="2" stroke-linecap="round" stroke-linejoin="round" stroke-miterlimit="10" d="M48.5963,28.9362c-1.3537-2.8907-4.4525-4.543-7.6074-4.056"/>
    <path fill="none" stroke="#000000" stroke-width="2" stroke-linecap="round" stroke-linejoin="round" stroke-miterlimit="10" d="M57.001,37.3631C56.3266,25.2653,46.303,15.664,34.0374,15.664c-12.703,0-22.9998,10.2968-22.9998,22.9998 c0,12.7021,10.2968,22.9998,22.9998,22.9998c7.0803,0,13.4135-3.1996,17.6326-8.2316"/>
    <circle cx="25.2868" cy="34.6731" r="2.7493"/>
    <circle cx="42.5366" cy="34.6731" r="2.7493"/>
    <path fill="none" stroke="#000000" stroke-width="2" stroke-linecap="round" stroke-linejoin="round" stroke-miterlimit="10" d="M37.76,53.2994c0,0-5.7186-1.8346-8.8718,1.5503"/>
    <path fill="none" stroke="#000000" stroke-width="2" stroke-linecap="round" stroke-linejoin="round" stroke-miterlimit="10" d="M58.4422,45.7324c-0.2143,1.636-1.9061,2.7858-1.9061,2.7858c-2.3855,1.4362-9.1328-0.7961-9.1328-0.7961 c-4.9712-1.2549-12.0651-0.6709-12.0651-0.6709 M58.4419,45.5718c0.0273-1.8145-1.4933-3.1744-1.4933-3.1744 c-2.2253-1.579-9.1884-0.046-9.1884-0.046c-5.3852,0.6915-12.0826-0.4781-12.0826-0.4781"/>
  </g>
</svg>
