<svg id="emoji" xmlns="http://www.w3.org/2000/svg" viewBox="0 0 72 72">
  <g id="grid">
    <path fill="#B3B3B3" d="M68,4v64H4V4H68 M72,0H0v72h72V0z"/>
    <path fill="none" stroke="#00A5FF" stroke-width="0.1" stroke-miterlimit="10" d="M12.923,10.9583h46.1539 c1.0621,0,1.9231,0.861,1.9231,1.9231l0,0v46.1538c0,1.0621-0.861,1.9231-1.9231,1.9231H12.9231 c-1.0621,0-1.9231-0.861-1.9231-1.9231l0,0V12.8813C11,11.8193,11.861,10.9583,12.923,10.9583L12.923,10.9583z"/>
    <path fill="none" stroke="#00A5FF" stroke-width="0.1" stroke-miterlimit="10" d="M18.2537,4h35.4926C54.991,4,56,5.009,56,6.2537 v59.4926C56,66.991,54.991,68,53.7463,68H18.2537C17.009,68,16,66.991,16,65.7463V6.2537C16,5.009,17.009,4,18.2537,4z"/>
    <path fill="none" stroke="#00A5FF" stroke-width="0.1" stroke-miterlimit="10" d="M68,18.2537v35.4926 C68,54.991,66.991,56,65.7463,56H6.2537C5.009,56,4,54.991,4,53.7463V18.2537C4,17.009,5.009,16,6.2537,16h59.4926 C66.991,16,68,17.009,68,18.2537z"/>
    <circle fill="none" stroke="#00A5FF" stroke-width="0.1" stroke-miterlimit="10" cx="36" cy="36" r="29"/>
  </g>
  <g id="color">
    <path fill="#FCEA2B" d="M36,12c-13.2337,0-24,10.7663-24,24s10.7663,24,24,24s24-10.7664,24-24C60.0001,22.7663,49.2337,12,36,12z"/>
    <path fill="#FCEA2B" d="M37.4298,44.1622c0,0,8.7363-0.0809,12.075,0.5893c3.3387,0.6701,6.7322,2.0667,9.1412,0.9499 c1.1362-0.5267,1.6476-1.6404,1.7222-2.7085c0.1014-1.0659-0.2206-2.2484-1.255-2.9542c-2.1935-1.4965-5.7742-0.6235-9.1776-0.5096 s-12.0084-1.3976-12.0084-1.3976"/>
  </g>
  <g id="hair"/>
  <g id="skin"/>
  <g id="skin-shadow"/>
  <g id="line">
    <path fill="none" stroke="#000000" stroke-width="2" stroke-linecap="round" stroke-linejoin="round" stroke-miterlimit="10" d="M20.9493,27.2768c0.851-1.3097,2.1554-2.2567,3.6642-2.659c1.4662-0.5614,3.0882-0.5534,4.5496,0.0179"/>
    <path fill="none" stroke="#000000" stroke-width="2" stroke-linecap="round" stroke-linejoin="round" stroke-miterlimit="10" d="M50.5587,26.2722c-1.3537-2.8907-4.4525-4.543-7.6074-4.056"/>
    <path fill="none" stroke="#000000" stroke-width="2" stroke-linecap="round" stroke-linejoin="round" stroke-miterlimit="10" d="M58.9634,34.6991C58.289,22.6013,48.2654,13,35.9998,13C23.2968,13,13,23.2968,13,35.9998 c0,12.7021,10.2968,22.9998,22.9998,22.9998c7.0803,0,13.4135-3.1996,17.6326-8.2316"/>
    <circle cx="27.2492" cy="32.0091" r="2.7493"/>
    <circle cx="44.499" cy="32.0091" r="2.7493"/>
    <path fill="none" stroke="#000000" stroke-width="2" stroke-linecap="round" stroke-linejoin="round" stroke-miterlimit="10" d="M39.7224,50.6354c0,0-5.7186-1.8346-8.8718,1.5503"/>
    <path fill="none" stroke="#000000" stroke-width="2" stroke-linecap="round" stroke-linejoin="round" stroke-miterlimit="10" d="M37.4298,44.1622c0,0,8.7363-0.0809,12.075,0.5893c3.3387,0.6701,6.7322,2.0667,9.1412,0.9499 c1.1362-0.5267,1.6476-1.6404,1.7222-2.7085c0.1014-1.0659-0.2206-2.2484-1.255-2.9542c-2.1935-1.4965-5.7742-0.6235-9.1776-0.5096 s-12.0084-1.3976-12.0084-1.3976"/>
  </g>
</svg>
