<svg id="emoji" viewBox="0 0 72 72" xmlns="http://www.w3.org/2000/svg">
  <g id="grid">
    <path fill="#b3b3b3" d="m68,4v64H4V4h64m4-4H0v72h72V0Z"/>
    <path fill="none" stroke="#00a5ff" stroke-miterlimit="10" stroke-width="0.1" d="m12.923,10.9583h46.1539c1.0621,0,1.9231.861,1.9231,1.9231h0v46.1538c0,1.0621-.861,1.9231-1.9231,1.9231H12.9231c-1.0621,0-1.9231-.861-1.9231-1.9231h0V12.8813c0-1.062.861-1.923,1.923-1.923h0Z"/>
    <rect x="16" y="4" rx="2.2537" ry="2.2537" width="40" height="64" fill="none" stroke="#00a5ff" stroke-miterlimit="10" stroke-width="0.1"/>
    <rect x="4" y="16" rx="2.2537" ry="2.2537" width="64" height="40" fill="none" stroke="#00a5ff" stroke-miterlimit="10" stroke-width="0.1"/>
    <circle cx="36" cy="36" r="29" fill="none" stroke="#00a5ff" stroke-miterlimit="10" stroke-width="0.1"/>
  </g>
  <g id="color">
    <circle cx="35.9773" cy="35.9583" r="23" fill="none" stroke="#f4aa41" stroke-dasharray="0 0 0 0 0 0 5.1598 5.1598" stroke-linecap="round" stroke-miterlimit="10" stroke-width="2"/>
  </g>
  <g id="line">
    <path d="m29.9772,32.9583c0,1.6569-1.3431,3-3,3s-3-1.3431-3-3,1.3431-3,3-3c1.6566.0006,2.9994,1.3434,3,3"/>
    <path d="m47.9772,32.9583c0,1.6569-1.3431,3-3,3s-3-1.3431-3-3,1.3431-3,3-3c1.6566.0006,2.9994,1.3434,3,3"/>
    <line x1="29.9772" x2="41.9772" y1="43.7964" y2="43.7964" fill="none" stroke="#000" stroke-linecap="round" stroke-miterlimit="10" stroke-width="2"/>
  </g>
</svg>
