<svg id="emoji" xmlns="http://www.w3.org/2000/svg" viewBox="0 0 72 72">
  <g id="grid">
    <path d="M68,4V68H4V4H68m4-4H0V72H72V0Z" fill="#b3b3b3"/>
    <path d="M12.923,10.9583H59.0769A1.9231,1.9231,0,0,1,61,12.8814V59.0352a1.9231,1.9231,0,0,1-1.9231,1.9231H12.9231A1.9231,1.9231,0,0,1,11,59.0352V12.8813A1.923,1.923,0,0,1,12.923,10.9583Z" fill="none" stroke="#00a5ff" stroke-miterlimit="10" stroke-width="0.1"/>
    <rect x="16" y="4" width="40" height="64" rx="2.2537" ry="2.2537" fill="none" stroke="#00a5ff" stroke-miterlimit="10" stroke-width="0.1"/>
    <rect x="16" y="4" width="40" height="64" rx="2.2537" ry="2.2537" transform="translate(72) rotate(90)" fill="none" stroke="#00a5ff" stroke-miterlimit="10" stroke-width="0.1"/>
    <circle cx="36" cy="36" r="29" fill="none" stroke="#00a5ff" stroke-miterlimit="10" stroke-width="0.1"/>
  </g>
  <g id="color">
    <path d="M36.2,12.9257a22.8,22.8,0,1,0,22.8,22.8A22.8,22.8,0,0,0,36.2,12.9257Z" fill="#fcea2b"/>
    <path d="M42,37.4966,55.7469,43.81s3.8107-4.3777,7.3934-.753a4.4751,4.4751,0,0,1,.2081,6.3254q-.0328.0352-.0666.07s3.46,3.3212.3024,6.4791a4.4177,4.4177,0,0,1-6.0282.313S55.0341,60.0009,51.47,56.03s.8088-7.42.8088-7.42Z" fill="#d0cfce"/>
    <path d="M30.9191,37.4966,17.1722,43.81s-3.8107-4.3777-7.3934-.753a4.4751,4.4751,0,0,0-.2081,6.3254q.0328.0352.0666.07s-3.46,3.3212-.3024,6.4791a4.4178,4.4178,0,0,0,6.0283.313s2.5218,3.7566,6.0858-.2148-.8088-7.42-.8088-7.42Z" fill="#d0cfce"/>
  </g>
  <g id="line">
    <path d="M46.7165,56.3562A23.04,23.04,0,0,1,25.1786,56.3" fill="none" stroke="#000" stroke-linecap="round" stroke-linejoin="round" stroke-width="2"/>
    <path d="M47.4511,55.9513q-.3631.209-.7346.4049" fill="none" stroke="#000" stroke-linecap="round" stroke-linejoin="round" stroke-width="2"/>
    <path d="M13.1224,38.3876A23.2738,23.2738,0,0,1,13,36a23,23,0,0,1,46,0q0,.7564-.0482,1.501" fill="none" stroke="#000" stroke-linecap="round" stroke-linejoin="round" stroke-width="2"/>
    <line x1="23" y1="24.0001" x2="30" y2="28.0001" fill="none" stroke="#000" stroke-linecap="round" stroke-linejoin="round" stroke-width="2"/>
    <line x1="49" y1="24.0001" x2="42" y2="28.0001" fill="none" stroke="#000" stroke-linecap="round" stroke-linejoin="round" stroke-width="2"/>
    <path d="M30,43a17.6255,17.6255,0,0,1,6.8421-.9981A16.3629,16.3629,0,0,1,43,43" fill="none" stroke="#000" stroke-linecap="round" stroke-linejoin="round" stroke-width="2"/>
    <path d="M22.5,33.0775a7.174,7.174,0,0,0,4.9091,1.6364A7.0779,7.0779,0,0,0,31.5,33.0775" fill="none" stroke="#000" stroke-linecap="round" stroke-linejoin="round" stroke-width="2"/>
    <path d="M40.5,33.0775a7.174,7.174,0,0,0,4.9091,1.6364A7.0779,7.0779,0,0,0,49.5,33.0775" fill="none" stroke="#000" stroke-linecap="round" stroke-linejoin="round" stroke-width="2"/>
    <path d="M30.9191,37.4966,17.1722,43.81s-3.8107-4.3777-7.3934-.753a4.4751,4.4751,0,0,0-.2081,6.3254q.0328.0352.0666.07s-3.46,3.3212-.3024,6.4791a4.4178,4.4178,0,0,0,6.0283.313s2.5218,3.7566,6.0858-.2148-.8088-7.42-.8088-7.42Z" fill="none" stroke="#000" stroke-linecap="round" stroke-linejoin="round" stroke-width="2"/>
    <path d="M42,37.4966,55.7469,43.81s3.8107-4.3777,7.3934-.753a4.4751,4.4751,0,0,1,.2081,6.3254q-.0328.0352-.0666.07s3.46,3.3212.3024,6.4791a4.4177,4.4177,0,0,1-6.0282.313S55.0341,60.0009,51.47,56.03s.8088-7.42.8088-7.42Z" fill="none" stroke="#000" stroke-linecap="round" stroke-linejoin="round" stroke-width="2"/>
  </g>
</svg>
