<svg id="emoji" viewBox="0 0 72 72" xmlns="http://www.w3.org/2000/svg">
  <g id="grid">
    <path fill="#b3b3b3" d="M68,4V68H4V4H68m4-4H0V72H72V0Z"/>
    <path fill="none" stroke="#00a5ff" stroke-miterlimit="10" stroke-width="0.1" d="M12.9229,10.959H59.0771A1.9229,1.9229,0,0,1,61,12.8819V59.0361a1.9219,1.9219,0,0,1-1.9219,1.9219H12.9229A1.9229,1.9229,0,0,1,11,59.0351V12.8819A1.9229,1.9229,0,0,1,12.9229,10.959Z"/>
    <rect x="16" y="4" rx="2.2539" ry="2.2539" width="40" height="64" fill="none" stroke="#00a5ff" stroke-miterlimit="10" stroke-width="0.1"/>
    <rect x="16" y="4" rx="2.2539" ry="2.2539" width="40" height="64" transform="translate(72) rotate(90)" fill="none" stroke="#00a5ff" stroke-miterlimit="10" stroke-width="0.1"/>
    <circle cx="36" cy="36" r="29" fill="none" stroke="#00a5ff" stroke-miterlimit="10" stroke-width="0.1"/>
  </g>
  <g id="color">
    <rect x="12" y="12" width="48" height="47.83" fill="#b399c8"/>
  </g>
  <g id="line">
    <line x1="36" x2="36" y1="50.15" y2="21.85" fill="none" stroke="#000" stroke-linecap="round" stroke-linejoin="round" stroke-width="3"/>
    <line x1="30.81" x2="41.19" y1="50.26" y2="50.26" fill="none" stroke="#000" stroke-linecap="round" stroke-linejoin="round" stroke-width="3"/>
    <rect x="12" y="12" width="48" height="48" fill="none" stroke="#000" stroke-linecap="round" stroke-linejoin="round" stroke-width="2"/>
    <path fill="none" stroke="#000" stroke-linecap="round" stroke-linejoin="round" stroke-width="2" d="m40.64 21.34a4.635 4.618 0 0 1-2.318 4 4.635 4.618 0 0 1-4.635-1e-6 4.635 4.618 0 0 1-2.318-4"/>
    <path fill="none" stroke="#000" stroke-linecap="round" stroke-linejoin="round" stroke-width="2" d="m44.87 21.34a8.871 8.858 0 0 1-4.435 7.671 8.871 8.858 0 0 1-8.871 0 8.871 8.858 0 0 1-4.435-7.671"/>
    <path fill="none" stroke="#000" stroke-linecap="round" stroke-linejoin="round" stroke-width="2" d="m49.11 21.34a13.11 13.09 0 0 1-6.552 11.34 13.11 13.09 0 0 1-13.11-2e-6 13.11 13.09 0 0 1-6.552-11.34"/>
    <path fill="none" stroke="#000" stroke-linecap="round" stroke-linejoin="round" stroke-width="2" d="m53.34 21.34a17.34 17.34 0 0 1-8.67 15.02 17.34 17.34 0 0 1-17.34-1e-6 17.34 17.34 0 0 1-8.67-15.02"/>
  </g>
</svg>
