<?xml version="1.0" encoding="UTF-8"?>
<svg id="emoji" xmlns="http://www.w3.org/2000/svg" viewBox="0 0 72 72">
  <g id="grid">
    <path d="m68,4v64H4V4h64m4-4H0v72h72V0Z" fill="#b3b3b3"/>
    <path d="m12.923,10.9583h46.1539c1.0621,0,1.9231.861,1.9231,1.9231h0v46.1538c0,1.0621-.861,1.9231-1.9231,1.9231H12.9231c-1.0621,0-1.9231-.861-1.9231-1.9231h0V12.8813c0-1.062.861-1.923,1.923-1.923h0Z" fill="none" stroke="#00a5ff" stroke-miterlimit="10" stroke-width=".1"/>
    <rect x="16" y="4" width="40" height="64" rx="2.2537" ry="2.2537" fill="none" stroke="#00a5ff" stroke-miterlimit="10" stroke-width=".1"/>
    <rect x="4" y="16" width="64" height="40" rx="2.2537" ry="2.2537" fill="none" stroke="#00a5ff" stroke-miterlimit="10" stroke-width=".1"/>
    <circle cx="36" cy="36" r="29" fill="none" stroke="#00a5ff" stroke-miterlimit="10" stroke-width=".1"/>
  </g>
  <g id="color">
    <polygon points="35.676 45.588 36.9395 49.1927 34.5983 49.0069 34.4868 47.2231 35.676 45.588" fill="#fff"/>
    <circle cx="32.02" cy="25.04" r="3" fill="#fcea2b" stroke="#fcea2b" stroke-linecap="round" stroke-linejoin="round" stroke-width="1.8"/>
    <path d="m47.86,53.59l-1.4895,2.9113c-.2151.4204-.1054.9638.3007,1.2048.3727.2212.6688.6192.6688,1.3239,0,1.91-1.82,1.93-1.82,1.93l-13.31-.02s-5.72.61-5.72-4.62c0-5.05,5.31-5.14,5.7-5.14h6.3304c.5494,0,.9902-.4627.9455-1.0103-.2579-3.161-2.6477-9.2505-4.7459-6.4887-.3418.4495-2.372,2.349-3.272,2.87-2.74,1.584-9.22-3.191-8.526-6.356.0952-.434,4.15,5.601,6.753,4.617,1.2358-.4677,2.994-4.5673,3.325-5.569.01-.0303.0161-.0542.023-.0853.5231-2.367,1.557-5.6653,4.528-7.0266,5.23-2.41,14.21,14.38,10.31,21.46l-.001-.001Z" fill="#fcea2b" stroke="#fcea2b" stroke-linecap="round" stroke-linejoin="round" stroke-width="1.8"/>
  </g>
  <g id="line">
    <circle cx="32.02" cy="25.04" r="3" fill="none" stroke="#000" stroke-linecap="round" stroke-linejoin="round" stroke-width="2"/>
    <path d="m36.54,43.58c2.15,2.33,2.92,7.6,2.92,7.6l-6.848-.0016s-6.124-.094-6.124,5.138,5.724,4.624,5.724,4.624l13.31.0216s1.824-.0216,1.824-1.932-2.171-1.563-2.171-1.563h-8.004l-5.206-1.39" fill="none" stroke="#000" stroke-linecap="round" stroke-linejoin="round" stroke-width="2"/>
    <path d="m23.29,39.46s2.67,4.92,6.02,4.92,1.649-9.221,8.239-12.25c5.227-2.407,14.21,14.38,10.31,21.46" fill="none" stroke="#000" stroke-linecap="round" stroke-linejoin="round" stroke-width="2"/>
    <path d="m10.6165,24.0605c-.5261.2976-.7008.972-.3852,1.4876l.0064.0105c.2621.4282.8167.5711,1.2531.3229l24.3488-13.8477c.0737-.0419.1637-.0427.2381-.0021l24.3348,13.2849c.4454.2432,1.0037.0729,1.2376-.3774h0c.2752-.5297.076-1.1821-.448-1.4679l-24.8772-13.581c-.2022-.1104-.447-.1086-.6475.0048l-25.0609,14.1654Z" fill="#000"/>
  </g>
</svg>
