<svg id="emoji" viewBox="0 0 72 72" xmlns="http://www.w3.org/2000/svg">
  <g id="grid">
    <path fill="#b3b3b3" d="M68,4V68H4V4H68m4-4H0V72H72V0Z"/>
    <path fill="none" stroke="#00a5ff" stroke-miterlimit="10" stroke-width="0.1" d="M12.9228,10.959H59.0771A1.9229,1.9229,0,0,1,61,12.8819V59.0361a1.9219,1.9219,0,0,1-1.9219,1.9219H12.9229A1.9229,1.9229,0,0,1,11,59.0351V12.8818A1.9228,1.9228,0,0,1,12.9228,10.959Z"/>
    <rect x="16" y="4" rx="2.2539" ry="2.2539" width="40" height="64" fill="none" stroke="#00a5ff" stroke-miterlimit="10" stroke-width="0.1"/>
    <rect x="16" y="4" rx="2.2539" ry="2.2539" width="40" height="64" transform="translate(72) rotate(90)" fill="none" stroke="#00a5ff" stroke-miterlimit="10" stroke-width="0.1"/>
    <circle cx="36" cy="36" r="29" fill="none" stroke="#00a5ff" stroke-miterlimit="10" stroke-width="0.1"/>
  </g>
  <g id="color">
    <rect x="12" y="12" width="48" height="47.834" fill="#b399c8"/>
  </g>
  <g id="line">
    <line x1="35.5" x2="35.5" y1="53" y2="19" fill="none" stroke="#000" stroke-linecap="round" stroke-linejoin="round" stroke-width="3"/>
    <line x1="47" x2="25" y1="28.5" y2="28.5" fill="none" stroke="#000" stroke-linecap="round" stroke-linejoin="round" stroke-width="3"/>
    <line x1="40" x2="32" y1="23.5" y2="23.5" fill="none" stroke="#000" stroke-linecap="round" stroke-linejoin="round" stroke-width="3"/>
    <line x1="39.4072" x2="32.2588" y1="49.6309" y2="46.0371" fill="none" stroke="#000" stroke-linecap="round" stroke-linejoin="round" stroke-width="3"/>
    <rect x="12.25" y="11.75" width="48" height="48" fill="none" stroke="#000" stroke-linecap="round" stroke-linejoin="round" stroke-width="2"/>
  </g>
</svg>
