<svg id="emoji" xmlns="http://www.w3.org/2000/svg" viewBox="0 0 72 72">
  <g id="grid">
    <path d="M68,4V68H4V4H68m4-4H0V72H72V0Z" fill="#b3b3b3"/>
    <path d="M12.923,10.9583H59.0769A1.9231,1.9231,0,0,1,61,12.8814V59.0352a1.9231,1.9231,0,0,1-1.9231,1.9231H12.9231A1.9231,1.9231,0,0,1,11,59.0352V12.8813A1.923,1.923,0,0,1,12.923,10.9583Z" fill="none" stroke="#00a5ff" stroke-miterlimit="10" stroke-width="0.1"/>
    <rect x="16" y="4" width="40" height="64" rx="2.2537" fill="none" stroke="#00a5ff" stroke-miterlimit="10" stroke-width="0.1"/>
    <rect x="16" y="4" width="40" height="64" rx="2.2537" transform="translate(72) rotate(90)" fill="none" stroke="#00a5ff" stroke-miterlimit="10" stroke-width="0.1"/>
    <circle cx="36" cy="36" r="29" fill="none" stroke="#00a5ff" stroke-miterlimit="10" stroke-width="0.1"/>
  </g>
  <g id="color">
    <path fill="#B399C8" stroke="none" stroke-width="2" stroke-linecap="round" stroke-linejoin="round" stroke-miterlimit="10" d="M45.0001,57c1.9749,0,3.9-0.275,5.7124-0.8C46.5875,59.2249,41.5,61,36,61c-13.8124,0-25-11.1875-25-25s11.1876-25,25-25 c5.5,0,10.5875,1.775,14.7125,4.8C48.9001,15.275,46.975,15,45.0001,15C33.4001,15,24,24.4,24,36C24,47.6,33.4001,57,45.0001,57z"/>
    <polygon fill="#B399C8" stroke="none" stroke-width="2" stroke-linecap="round" stroke-linejoin="round" stroke-miterlimit="10" points="50.6518,27.8958 53.0244,32.7032 58.3297,33.4741 54.4907,37.2162 55.397,42.5 50.6518,40.0053 45.9066,42.5 46.8129,37.2162 42.9739,33.4741 48.2792,32.7032"/>
  </g>
  <g id="hair"/>
  <g id="skin"/>
  <g id="skin-shadow"/>
  <g id="line">
    <path fill="none" stroke="#000000" stroke-width="2" stroke-linecap="round" stroke-linejoin="round" stroke-miterlimit="10" d="M45.0001,57c1.9749,0,3.9-0.275,5.7124-0.8C46.5875,59.2249,41.5,61,36,61c-13.8124,0-25-11.1875-25-25s11.1876-25,25-25 c5.5,0,10.5875,1.775,14.7125,4.8C48.9001,15.275,46.975,15,45.0001,15C33.4001,15,24,24.4,24,36C24,47.6,33.4001,57,45.0001,57z"/>
    <polygon fill="none" stroke="#000000" stroke-width="2" stroke-linecap="round" stroke-linejoin="round" stroke-miterlimit="10" points="50.6518,27.8958 53.0244,32.7032 58.3297,33.4741 54.4907,37.2162 55.397,42.5 50.6518,40.0053 45.9066,42.5 46.8129,37.2162 42.9739,33.4741 48.2792,32.7032"/>
  </g>
</svg>
