<svg id="emoji" xmlns="http://www.w3.org/2000/svg" viewBox="0 0 72 72">
  <g id="grid">
    <path d="M68,4V68H4V4H68m4-4H0V72H72V0Z" fill="#b3b3b3"/>
    <path d="M12.923,10.9583H59.0769A1.9231,1.9231,0,0,1,61,12.8814V59.0352a1.9231,1.9231,0,0,1-1.9231,1.9231H12.9231A1.9231,1.9231,0,0,1,11,59.0352V12.8813A1.923,1.923,0,0,1,12.923,10.9583Z" fill="none" stroke="#00a5ff" stroke-miterlimit="10" stroke-width="0.1"/>
    <rect x="16" y="4" width="40" height="64" rx="2.2537" fill="none" stroke="#00a5ff" stroke-miterlimit="10" stroke-width="0.1"/>
    <rect x="16" y="4" width="40" height="64" rx="2.2537" transform="rotate(90 36 36)" fill="none" stroke="#00a5ff" stroke-miterlimit="10" stroke-width="0.1"/>
    <circle cx="36" cy="36" r="29" fill="none" stroke="#00a5ff" stroke-miterlimit="10" stroke-width="0.1"/>
  </g>
  <g id="color">
    <path fill="#B399C8" stroke="none" stroke-width="2" stroke-linecap="round" stroke-linejoin="round" stroke-miterlimit="10" d="M53.13,28.38v2.91c0,1.6569-1.3431,3-3,3H43.45c-1.6569,0-3,1.3431-3,3v20.72c0,1.6569-1.3431,3-3,3h-2.9c-1.6569,0-3-1.3431-3-3 V37.29c0-1.6569-1.3431-3-3-3H21.87c-1.6569,0-3-1.3431-3-3v-2.91c0-1.6569,1.3431-3,3-3h6.6799c1.6569,0,3-1.3431,3-3v-8.39 c0-1.6569,1.3431-3,3-3h2.9c1.6569,0,3,1.3431,3,3v8.39c0,1.6569,1.3431,3,3,3H50.13C51.7869,25.38,53.13,26.7232,53.13,28.38z"/>
  </g>
  <g id="hair"/>
  <g id="skin"/>
  <g id="skin-shadow"/>
  <g id="line">
    <path fill="none" stroke="#000000" stroke-width="2" stroke-linecap="round" stroke-linejoin="round" stroke-miterlimit="10" d="M53.13,28.38v2.91c0,1.6569-1.3431,3-3,3H43.45c-1.6569,0-3,1.3431-3,3v20.72c0,1.6569-1.3431,3-3,3h-2.9c-1.6569,0-3-1.3431-3-3 V37.29c0-1.6569-1.3431-3-3-3H21.87c-1.6569,0-3-1.3431-3-3v-2.91c0-1.6569,1.3431-3,3-3h6.6799c1.6569,0,3-1.3431,3-3v-8.39 c0-1.6569,1.3431-3,3-3h2.9c1.6569,0,3,1.3431,3,3v8.39c0,1.6569,1.3431,3,3,3H50.13C51.7869,25.38,53.13,26.7232,53.13,28.38z"/>
  </g>
</svg>
