<svg id="emoji" viewBox="0 0 72 72" version="1.1" xmlns="http://www.w3.org/2000/svg">
  <g id="grid">
    <path fill="#b3b3b3" d="M68,4V68H4V4H68m4-4H0V72H72V0Z"/>
    <path fill="none" stroke="#00a5ff" stroke-miterlimit="10" stroke-width="0.1" d="m12.92 10.96h46.15a1.923 1.923 0 0 1 1.923 1.923v46.15a1.922 1.922 0 0 1-1.922 1.922h-46.16a1.923 1.923 0 0 1-1.923-1.923v-46.15a1.923 1.923 0 0 1 1.923-1.923z"/>
    <rect x="16" y="4" rx="2.254" ry="2.254" width="40" height="64" fill="none" stroke="#00a5ff" stroke-miterlimit="10" stroke-width="0.1"/>
    <rect x="16" y="4" rx="2.254" ry="2.254" width="40" height="64" transform="translate(72) rotate(90)" fill="none" stroke="#00a5ff" stroke-miterlimit="10" stroke-width="0.1"/>
    <circle cx="36" cy="36" r="29" fill="none" stroke="#00a5ff" stroke-miterlimit="10" stroke-width="0.1"/>
  </g>
  <g id="line-supplement" fill="none" stroke="#000" stroke-linecap="round" stroke-linejoin="round" stroke-width="2.696">
    <path d="m36 18.67 14.97 25.96-14.97-1.113e-6h-14.97l7.486-12.98z" paint-order="stroke fill markers"/>
    <path d="m21.01 27.39 29.97 0.01892-14.97 25.93-7.5-12.97z" paint-order="stroke fill markers"/>
  </g>
  <g id="color">
    <rect x="12" y="12.08" width="48" height="47.83" fill="#8967aa"/>
    <path fill="none" stroke="#fff" stroke-linecap="round" stroke-linejoin="round" stroke-width="3" d="m36 18.67 14.97 25.96-14.97-1e-6h-14.97l7.486-12.98z" paint-order="stroke fill markers"/>
    <path fill="none" stroke="#fff" stroke-linecap="round" stroke-linejoin="round" stroke-width="3" d="m21.01 27.39 29.97 0.01892-14.97 25.93-7.5-12.97z" paint-order="stroke fill markers"/>
  </g>
  <g id="line" fill="none">
    <rect x="12" y="12" width="48" height="48" fill="none" stroke="#000" stroke-linecap="round" stroke-linejoin="round" stroke-width="2"/>
  </g>
</svg>
