<svg id="emoji" version="1.1" viewBox="0 0 72 72" xmlns="http://www.w3.org/2000/svg">
  <g id="grid">
    <path d="M68,4V68H4V4H68m4-4H0V72H72V0Z" fill="#b3b3b3"/>
    <path d="m12.92 10.96h46.15a1.923 1.923 0 0 1 1.923 1.923v46.15a1.923 1.923 0 0 1-1.923 1.923h-46.15a1.923 1.923 0 0 1-1.923-1.923v-46.15a1.923 1.923 0 0 1 1.923-1.923z" fill="none" stroke="#00a5ff" stroke-miterlimit="10" stroke-width=".1"/>
    <rect x="16" y="4" width="40" height="64" rx="2.254" fill="none" stroke="#00a5ff" stroke-miterlimit="10" stroke-width=".1"/>
    <rect transform="translate(72) rotate(90)" x="16" y="4" width="40" height="64" rx="2.254" fill="none" stroke="#00a5ff" stroke-miterlimit="10" stroke-width=".1"/>
    <circle cx="36" cy="36" r="29" fill="none" stroke="#00a5ff" stroke-miterlimit="10" stroke-width=".1"/>
  </g>
  <g id="color">
    <path d="m16.48 28.78c-0.3462 6.948-4.696 25.79 18.64 25.57 13.45-5.695 15.07-2.113 20.36-13.33 0.5706-13.94-5.315-19.4-13.85-20l-6.75-3.02c-8.786-2.415-14.51 2.63-18.4 10.78z" style="fill:#ea5a47;stroke-width:2;stroke:#ea5a47"/>
  </g>
  <g id="line">
    <ellipse transform="matrix(.9122 -.4098 .4075 .9132 0 0)" cx="18.2" cy="47.59" rx="4.287" ry="4.297"/>
    <path d="m34.88 18c-10.65-5.164-22.85 8.647-19.35 23.57 3.456 14.74 15.18 14.33 19.59 12.78" stroke-miterlimit="10" style="fill:none;stroke-linecap:round;stroke-linejoin:round;stroke-miterlimit:10;stroke-width:2;stroke:#000"/>
    <path d="m39.6 21.18c8.678-4.503 19.89 6.453 17.04 19.46-2.817 12.85-12.37 12.49-15.97 11.15" stroke-miterlimit="10" style="fill:none;stroke-linecap:round;stroke-linejoin:round;stroke-miterlimit:10;stroke-width:2;stroke:#000"/>
  </g>
</svg>
