<svg id="emoji" viewBox="0 0 72 72" version="1.1" xmlns="http://www.w3.org/2000/svg">
  <g id="grid">
    <path fill="#b3b3b3" d="M68,4V68H4V4H68m4-4H0V72H72V0Z"/>
    <path fill="none" stroke="#00a5ff" stroke-miterlimit="10" stroke-width="0.1" d="m12.92 10.96h46.15a1.923 1.923 0 0 1 1.923 1.923v46.15a1.923 1.923 0 0 1-1.923 1.923h-46.15a1.923 1.923 0 0 1-1.923-1.923v-46.15a1.923 1.923 0 0 1 1.923-1.923z"/>
    <rect x="16" y="4" rx="2.254" width="40" height="64" fill="none" stroke="#00a5ff" stroke-miterlimit="10" stroke-width="0.1"/>
    <rect x="16" y="4" rx="2.254" width="40" height="64" transform="translate(72) rotate(90)" fill="none" stroke="#00a5ff" stroke-miterlimit="10" stroke-width="0.1"/>
    <circle cx="36" cy="36" r="29" fill="none" stroke="#00a5ff" stroke-miterlimit="10" stroke-width="0.1"/>
  </g>
  <g id="color">
    <path fill="#ea5a47" stroke="#ea5a47" stroke-width="2" d="m21.42 31.02c-0.2666 5.057-3.616 18.77 14.35 18.61 10.36-4.145 11.6-1.538 15.68-9.703 0.4394-10.15-4.093-14.12-10.66-14.56l-5.197-2.198c-6.765-1.758-11.17 1.914-14.17 7.847z"/>
    <path fill="#5c9e31" stroke="#5c9e31" stroke-linejoin="round" stroke-width="2" d="m44.15 21.53c2.001-1.553 3.465-2.721 2.603-5.464 3.185 1.3 3.777-1.47 4.755-2.943 0.8448 0.5992 3.358-1.114 5.374-1.679-0.2676 1.166-1.21 4.002-0.5279 5.718 0.1262 0.3173-4.426 0.9444-2.215 4.325 0.1008 0.1542-4.974-1.219-5.815 2.295l-1.958-1.057z"/>
  </g>
  <g id="line">
    <ellipse cx="16.81" cy="47.52" rx="3.35" ry="3.213" transform="matrix(.9218 -.3876 .4303 .9027 0 0)" stroke-width="1.001"/>
    <path stroke="#000" stroke-linecap="round" stroke-linejoin="round" stroke-width="2" d="m36 53.63v7.508"/>
    <path fill="none" stroke="#000" stroke-linecap="round" stroke-linejoin="round" stroke-miterlimit="10" stroke-width="2" d="m35.11 23.08c-8.409-3.817-18.04 6.391-15.28 17.42 2.729 10.89 11.99 10.59 15.47 9.446"/>
    <path fill="none" stroke="#000" stroke-linecap="round" stroke-linejoin="round" stroke-width="2" d="m44.15 21.52c3.6-2.616 2.369-3.718 2.271-5.522 3.167 0.3627 4.262-1.02 4.415-3.267 2.437 0.3827 6.159-1.887 6.159-1.887s-0.8357 4.279-0.3308 6.426c-2.669 0.5262-2.788 2.225-2.438 4.51-2.79-0.0308-4.13 0.05471-5.902 1.992" paint-order="normal"/>
    <path fill="none" stroke="#000" stroke-linecap="round" stroke-linejoin="round" stroke-miterlimit="10" stroke-width="2" d="m38.84 25.43c6.852-3.328 15.7 4.769 13.45 14.38-2.224 9.497-9.767 9.231-12.61 8.241"/>
  </g>
</svg>
