<svg id="emoji" viewBox="0 0 72 72" version="1.1" xmlns="http://www.w3.org/2000/svg">
  <g id="grid">
    <path fill="#b3b3b3" d="M68,4V68H4V4H68m4-4H0V72H72V0Z"/>
    <path fill="none" stroke="#00a5ff" stroke-miterlimit="10" stroke-width="0.1" d="M12.923,10.9583H59.0769A1.9231,1.9231,0,0,1,61,12.8814V59.0352a1.9231,1.9231,0,0,1-1.9231,1.9231H12.9231A1.9231,1.9231,0,0,1,11,59.0352V12.8813A1.923,1.923,0,0,1,12.923,10.9583Z"/>
    <rect x="16" y="4" rx="2.2537" width="40" height="64" fill="none" stroke="#00a5ff" stroke-miterlimit="10" stroke-width="0.1"/>
    <rect x="16" y="4" rx="2.2537" width="40" height="64" transform="translate(72) rotate(90)" fill="none" stroke="#00a5ff" stroke-miterlimit="10" stroke-width="0.1"/>
    <circle cx="36" cy="36" r="29" fill="none" stroke="#00a5ff" stroke-miterlimit="10" stroke-width="0.1"/>
  </g>
  <g id="color">
    <path fill="#3f3f3f" d="m30.488 54.618c0.40316 1.0322 1.1544 4.1685 0.56439 4.5874-0.0393 0.0283-0.0851 0.0437-0.13677 0.0467-0.19108 0.009-0.47061-0.16726-0.86303-0.59882-2.0599-1.5336-4.9982 0.51116-6.9868-0.6529-0.80032-0.46845-1.2022-1.2239-1.4915-1.7917-0.46148 0.7394-1.075 2.2683-2.1236 2.6224-1.8358 0.5511-4.5889 0.37522-5.8969 3.8416-1.1916-3.6368-2.3829-6.2308 2.0593-9.292 1.5604-1.057 3.9738-2.9534 4.04-4.4242-0.016-2.082 0.215-16.534 11.348-23.956 0 0 24-15 33 9 0 0 2 4-16 4 0 0-2 5-9 5 0 0-2 0 1-5 0 0-12.846 1.3245-16.145 11.339-1.0633 4.0723 5.5319 2.4578 6.6335 5.2783z"/>
    <path fill="#fff" d="m52.984 33.612c-1.0181-0.0458-2.2292 0.0491-3.7988 0.41406-4.1857 0.9733-3.1856 0.97461-3.1856 0.97461l2.9863 2.9863c9.9552-0.0888 13.402-1.4506 14.531-2.5625l-0.51758-0.42383s-3.5-0.16739-5.75-0.58399c-1.4062-0.26043-2.5688-0.72836-4.2656-0.80468z"/>
  </g>
  <g id="hair"/>
  <g id="skin"/>
  <g id="skin-shadow"/>
  <g id="line">
    <line x1="40" x2="37" y1="16" y2="7" fill="none" stroke="#000" stroke-linecap="round" stroke-linejoin="round" stroke-miterlimit="10" stroke-width="2"/>
    <path fill="none" stroke="#000" stroke-linecap="round" stroke-linejoin="round" stroke-miterlimit="10" stroke-width="2" d="m43.571 16.947s-0.8919-8.1978 1.8078-5.8079"/>
    <path fill="none" stroke="#000" stroke-linecap="round" stroke-linejoin="round" stroke-miterlimit="10" stroke-width="2" d="m38.268 18.596s-5.2012-6.399-5.4005-2.799"/>
    <circle fill="#000" cx="47" cy="13" r="1"/>
    <path fill="none" stroke="#000" stroke-linecap="round" stroke-linejoin="round" stroke-miterlimit="10" stroke-width="2" d="m63 35s-3.5-0.167-5.75-0.583c-2.25-0.417-3.879-1.364-8.064-0.39-4.186 0.973-3.186 0.973-3.186 0.973l3 3"/>
    <path fill="none" stroke="#000" stroke-linecap="round" stroke-linejoin="round" stroke-miterlimit="10" stroke-width="2" d="m30.488 54.618c0.40316 1.0322 1.1544 4.1685 0.56439 4.5874v0c-0.0393 0.0283-0.0851 0.0437-0.13677 0.0467-0.19108 0.009-0.47061-0.16726-0.86303-0.59882-2.0599-1.5336-4.9982 0.51116-6.9868-0.6529-0.80032-0.46845-1.2022-1.2239-1.4915-1.7917-0.46148 0.7394-1.075 2.2683-2.1236 2.6224-1.8358 0.5511-4.5889 0.37522-5.8969 3.8416-1.1916-3.6368-2.3829-6.2308 2.0593-9.292 1.5604-1.057 3.9738-2.9534 4.04-4.4242-0.016-2.082 0.215-16.534 11.348-23.956 0 0 24-15 33 9 0 0 2 4-16 4 0 0-2 5-9 5 0 0-2 0 1-5 0 0-12.846 1.3245-16.145 11.339-1.0633 4.0723 5.5319 2.4578 6.6335 5.2783z"/>
  </g>
</svg>
