<svg id="emoji" xmlns="http://www.w3.org/2000/svg" viewBox="0 0 72 72">
  <g id="grid">
    <path d="M68,4V68H4V4H68m4-4H0V72H72V0Z" fill="#b3b3b3"></path>
    <path d="M12.923,10.9583H59.0769A1.9231,1.9231,0,0,1,61,12.8814V59.0352a1.9231,1.9231,0,0,1-1.9231,1.9231H12.9231A1.9231,1.9231,0,0,1,11,59.0352V12.8813A1.923,1.923,0,0,1,12.923,10.9583Z" fill="none" stroke="#00a5ff" stroke-miterlimit="10" stroke-width="0.1"></path>
    <rect x="16" y="4" width="40" height="64" rx="2.2537" fill="none" stroke="#00a5ff" stroke-miterlimit="10" stroke-width="0.1"></rect>
    <rect x="16" y="4" width="40" height="64" rx="2.2537" transform="translate(72) rotate(90)" fill="none" stroke="#00a5ff" stroke-miterlimit="10" stroke-width="0.1"></rect>
    <circle cx="36" cy="36" r="29" fill="none" stroke="#00a5ff" stroke-miterlimit="10" stroke-width="0.1"></circle>
  </g>
  <g id="color">
    <path fill="#F1B31C" d="M10,50c0-1,10.9255-10.6791,24-8.5c0.3311,0.0552,0.6606,0.1119,0.9885,0.17l5.5038,1.1217
		C49.5282,44.8554,59,49,60,49.4953c0,0,1.0586,1.1176,0.6667,2.4214C60.2708,53.2333,57.1563,54,57.1563,54h-28.573H11.75
		c0,0-1.2199-0.5756-1.75-1.8333C9.4688,50.9063,10,50,10,50z" stroke="none"></path>
    <path fill="#92D3F5" d="M12,55.5c1.7419-2.0295,4.3382-5.4262,7-5c2.888,0.4624,4.6471,4.065,6.4235,4.065
		c2.8824,0,4.5234-3.588,8.5765-4.065c3.6107-0.4249,3.5938,2.2813,6.0156,3.6719C40.9893,54.731,42.6139,54.4981,43,54.5
		c3.6617,0.0176,4.9681-3.9727,8-4c4.0625-0.0366,7.4063,1.5625,8,5" stroke="none"></path>
    <path fill="#FFFFFF" stroke="none" stroke-width="2" stroke-linecap="round" stroke-linejoin="round" stroke-miterlimit="10" d="
		M52.2263,33.4883C53.3772,26.9616,48.7987,20.6988,42,19.5c-6.7987-1.1988-13.243,3.1204-14.3939,9.6471L52.2263,33.4883z"></path>
    <path fill="#EA5A47" stroke="none" stroke-width="2" stroke-linecap="round" stroke-linejoin="round" stroke-miterlimit="10" d="
		M44.8403,32.1859C45.9911,25.6592,44.7195,19.9795,42,19.5c-2.7195-0.4795-5.857,4.4227-7.0078,10.9495L44.8403,32.1859z"></path>
    <polygon fill="#FFFFFF" stroke="none" stroke-width="2" stroke-linecap="round" stroke-linejoin="round" stroke-miterlimit="10" points="
		37.3115,46.0898 37.3115,46.0898 39.9162,31.3177 39.9162,31.3177 	"></polygon>
  </g>
  <g id="hair">
  </g>
  <g id="skin">
  </g>
  <g id="skin-shadow">
  </g>
  <g id="line">
    <path fill="none" stroke="#000000" stroke-width="2" stroke-linecap="round" stroke-linejoin="round" stroke-miterlimit="10" d="
		M12,54.5c1.7419-2.0295,4.3382-4.4262,7-4c2.888,0.4624,3.3025,3.4841,6,4c3.091,0.5912,4.9469-3.523,9-4
		c3.6107-0.4249,4.0565,2.411,6.6667,3.5456C41.6964,54.4932,42.6139,54.4981,43,54.5c3.6617,0.0176,4.9951-3.5954,8-4
		c1.3292-0.179,3.3015,0.2273,6,3"></path>
    <path fill="none" stroke="#000000" stroke-width="2" stroke-linecap="round" stroke-linejoin="round" stroke-miterlimit="10" d="
		M41.687,44.0801C50.7229,46.1438,56.7475,48.5,60,48.5"></path>
    <path fill="none" stroke="#000000" stroke-width="2" stroke-linecap="round" stroke-linejoin="round" stroke-miterlimit="10" d="
		M10,49c3.572-0.3572,9.7488-8.8785,22.8233-6.6994c0.3311,0.0552,0.6606,0.1119,0.9885,0.17"></path>
    <path fill="none" stroke="#000000" stroke-width="2" stroke-linecap="round" stroke-linejoin="round" stroke-miterlimit="10" d="
		M52.2263,33.4883C53.3772,26.9616,48.7987,20.6988,42,19.5c-6.7987-1.1988-13.243,3.1204-14.3939,9.6471L52.2263,33.4883z"></path>
    <path fill="none" stroke="#000000" stroke-width="2" stroke-linecap="round" stroke-linejoin="round" stroke-miterlimit="10" d="
		M44.8403,32.1859C45.9911,25.6592,44.7195,19.9795,42,19.5c-2.7195-0.4795-5.857,4.4227-7.0078,10.9495L44.8403,32.1859z"></path>
    <polygon fill="none" stroke="#000000" stroke-width="2" stroke-linecap="round" stroke-linejoin="round" stroke-miterlimit="10" points="
		37.3115,46.0898 37.3115,46.0898 39.9162,31.3177 39.9162,31.3177 	"></polygon>
  </g>
</svg>