<svg id="emoji" xmlns="http://www.w3.org/2000/svg" viewBox="0 0 72 72">
  <g id="grid">
    <path d="M68,4V68H4V4H68m4-4H0V72H72V0Z" fill="#b3b3b3"></path>
    <path d="M12.923,10.9583H59.0769A1.9231,1.9231,0,0,1,61,12.8814V59.0352a1.9231,1.9231,0,0,1-1.9231,1.9231H12.9231A1.9231,1.9231,0,0,1,11,59.0352V12.8813A1.923,1.923,0,0,1,12.923,10.9583Z" fill="none" stroke="#00a5ff" stroke-miterlimit="10" stroke-width="0.1"></path>
    <rect x="16" y="4" width="40" height="64" rx="2.2537" fill="none" stroke="#00a5ff" stroke-miterlimit="10" stroke-width="0.1"></rect>
    <rect x="16" y="4" width="40" height="64" rx="2.2537" transform="translate(72) rotate(90)" fill="none" stroke="#00a5ff" stroke-miterlimit="10" stroke-width="0.1"></rect>
    <circle cx="36" cy="36" r="29" fill="none" stroke="#00a5ff" stroke-miterlimit="10" stroke-width="0.1"></circle>
  </g>
  <g id="color">
    <path fill="#3F3F3F" d="M53,46c0,0-0.8176-10.9-1.1176-11.4765C51.5792,33.9411,50.8828,32.4662,50.603,32l-1.8-3l-5.5374-4.1406
		L39.3333,29.75L38.6364,32L42,34" stroke="none"></path>
    <polyline fill="#9B9B9A" points="50,39 53.4207,48.131 60,56 12,56 16,49 18,37 25,18 29,22 33,25 37,33 42,33 50,39 	" stroke="none"></polyline>
    <path fill="#FFFFFF" stroke="none" stroke-width="2" stroke-linecap="round" stroke-linejoin="round" stroke-miterlimit="10" d="
		M29,31c0,0-0.8254,0.6517-1.3058,0.9495C26,33,25.7957,34.753,25,35c-1.2668,0.3933-0.9456-2.7349-3-3
		c-2.0072-0.259-2.0981,1.548-3,1c-1.1927-0.7247-0.1669-4.4214,0-5c0.3074-1.0659,1.2092-2.7251,3-6
		c1.5511-2.8365,1.7485-3.0757,2-4c0.4453-1.6367,0.3001-1.6281,1-2c0.8737-0.4643,2.3463,0.3463,3,1c1,1,0.3754,0.6874,2,2
		c1.2587,1.0169,1.5469,0.7936,3,2c0.2884,0.2394,1.104,0.9347,2,2c0.5698,0.6774,1.3611,1.6182,2,3
		c0.7007,1.5155,0.3615,1.7089,1,3c0.9356,1.8918,2.2283,2.6175,2,3c-0.3137,0.5256-2.662-0.9993-4,0
		c-0.4308,0.3218-0.3345,0.5898-1,2c-0.8193,1.736-1.2289,3.6041-2,4c-1.1747,0.6031-3.03-0.9005-4-2C27.4465,34.2389,29,31,29,31z"></path>
    <path fill="#FFFFFF" stroke="none" stroke-width="2" stroke-linecap="round" stroke-linejoin="round" stroke-miterlimit="10" d="
		M44,23c0.77-0.77,1.9315,1.2689,3,3c0.8563,1.3873,2.3607,3.2045,2,4c-0.4535,1.0002-3.0381,0.4449-4,0
		c-0.3356-0.1552-0.3873-0.3225-1-1c-1.318-1.4574-1.739-1.4134-2-2C41.3998,25.6515,43,24,44,23z"></path>
  </g>
  <g id="hair">
  </g>
  <g id="skin">
  </g>
  <g id="skin-shadow">
  </g>
  <g id="line">
    <polyline fill="none" stroke="#000000" stroke-width="2" stroke-linecap="round" stroke-linejoin="round" stroke-miterlimit="10" points="
		60,55 53.4207,48.131 50,39 	"></polyline>
    <polyline fill="none" stroke="#000000" stroke-width="2" stroke-linecap="round" stroke-linejoin="round" stroke-miterlimit="10" points="
		37,33 33,25 29,22 25,18 18,37 16,49 12,55 	"></polyline>
    <polyline fill="none" stroke="#000000" stroke-width="2" stroke-linecap="round" stroke-linejoin="round" stroke-miterlimit="10" points="
		31,24 32,33 42,33 50,39 49,45 50,50 48,52 45,55 	"></polyline>
    <polyline fill="none" stroke="#000000" stroke-width="2" stroke-linecap="round" stroke-linejoin="round" stroke-miterlimit="10" points="
		42,28 44,25 48,29 51,35 	"></polyline>
    <path fill="none" stroke="#000000" stroke-width="2" stroke-linecap="round" stroke-linejoin="round" stroke-miterlimit="10" d="
		M29,31c0,0-0.8254,0.6517-1.3058,0.9495C26,33,25.7957,34.753,25,35c-1.2668,0.3933-0.9456-2.7349-3-3
		c-2.0072-0.259-2.0981,1.548-3,1c-1.1927-0.7247-0.1669-4.4214,0-5c0.3074-1.0659,1.2092-2.7251,3-6
		c1.5511-2.8365,1.7485-3.0757,2-4c0.4453-1.6367,0.3001-1.6281,1-2c0.8737-0.4643,2.3463,0.3463,3,1c1,1,0.3754,0.6874,2,2
		c1.2587,1.0169,1.5469,0.7936,3,2c0.2884,0.2394,1.104,0.9347,2,2c0.5698,0.6774,1.3611,1.6182,2,3
		c0.7007,1.5155,0.3615,1.7089,1,3c0.9356,1.8918,2.2283,2.6175,2,3c-0.3137,0.5256-2.662-0.9993-4,0
		c-0.4308,0.3218-0.3345,0.5898-1,2c-0.8193,1.736-1.2289,3.6041-2,4c-1.1747,0.6031-3.03-0.9005-4-2C27.4465,34.2389,29,31,29,31z"></path>
    <path fill="none" stroke="#000000" stroke-width="2" stroke-linecap="round" stroke-linejoin="round" stroke-miterlimit="10" d="
		M44,23c0.77-0.77,1.9315,1.2689,3,3c0.8563,1.3873,2.3607,3.2045,2,4c-0.4535,1.0002-3.0381,0.4449-4,0
		c-0.3356-0.1552-0.3873-0.3225-1-1c-1.318-1.4574-1.739-1.4134-2-2C41.3998,25.6515,43,24,44,23z"></path>
  </g>
</svg>