<?xml version="1.0" encoding="UTF-8"?>
<svg id="emoji" xmlns="http://www.w3.org/2000/svg" viewBox="0 0 72 72">
  <g id="grid">
    <path d="M68,4v64H4V4h64M72,0H0v72h72V0h0Z" fill="#b3b3b3"/>
    <rect x="11" y="10.9583" width="50" height="50" rx="1.923" ry="1.923" fill="none" stroke="#00a5ff" stroke-miterlimit="10" stroke-width=".1"/>
    <rect x="16" y="4" width="40" height="64" rx="2.2537" ry="2.2537" fill="none" stroke="#00a5ff" stroke-miterlimit="10" stroke-width=".1"/>
    <rect x="16" y="4" width="40" height="64" rx="2.2537" ry="2.2537" transform="translate(72) rotate(90)" fill="none" stroke="#00a5ff" stroke-miterlimit="10" stroke-width=".1"/>
    <circle cx="36" cy="36" r="29" fill="none" stroke="#00a5ff" stroke-miterlimit="10" stroke-width=".1"/>
  </g>
  <g id="color">
    <path d="M36.5296,36.0471c5.4673,5.4673,6.4162,13.3828,2.1194,17.6796-2.7221,2.7221-6.8965,3.3389-10.9807,2.0353v-.0002c-3.7456-1.2011-10.3696-.4837-13.0589,2.2056,2.6894-2.6894,3.4068-9.3134,2.2056-13.059h-.0002c-1.3036-4.0841-.6868-8.2586,2.0353-10.9807,4.2968-4.2968,12.2123-3.348,17.6796,2.1194Z" fill="#d22f27"/>
    <path d="M14.6093,57.9674c2.6894-2.6894,3.4068-9.3134,2.2056-13.059h-.0002c-1.3036-4.0841-.6868-8.2586,2.0353-10.9807,4.2968-4.2968,12.2123-3.348,17.6796,2.1194,2.7337,2.7337,1.4665,8.433-2.8304,12.7299-2.7221,2.7221-6.0071,4.2283-8.7444,4.2716v-.0002c-2.5088.0356-7.6562,2.2296-10.3456,4.919Z" fill="#ea5a47"/>
    <path d="M38.2284,37.6337c3.6858-2.7285,9.2696-4.0029,15.5087-1.908,2.6948.9049,6.6736,2.5891,8.1202.1421,1.5005-2.5381-.0815-9.0328-7.7731-10.6665-4.7543-1.0098-10.6578-.3264-13.7046,3.67.5805-2.399,2.7935-9.5922-2.2284-14.5562-1.1801-1.1665-3.2822-1.6624-4.5482-.5897-3.3217,2.8148,1.0089,11.5688,1.8388,14.6934.5474,2.061,1.0245,4.4873-.3247,6.1387" fill="#b1cc33"/>
  </g>
  <g id="line">
    <line x1="20.052" y1="40.2732" x2="22.6291" y2="42.8503" fill="none" stroke="#000" stroke-linecap="round" stroke-linejoin="round" stroke-width="2"/>
    <line x1="24.9515" y1="51.8417" x2="29.2871" y2="56.1773" fill="none" stroke="#000" stroke-linecap="round" stroke-linejoin="round" stroke-width="2"/>
    <path d="M38.2284,37.6337c3.6858-2.7285,9.2696-4.0029,15.5087-1.908,2.6948.9049,6.6736,2.5891,8.1202.1421,1.5005-2.5381-.0815-9.0328-7.7731-10.6665-4.7543-1.0098-10.6578-.3264-13.7046,3.67.5805-2.399,2.7935-9.5922-2.2284-14.5562-1.1801-1.1665-3.2822-1.6624-4.5482-.5897-3.3217,2.8148,1.0089,11.5688,1.8388,14.6934.5474,2.061,1.0245,4.4873-.3247,6.1387" fill="none" stroke="#000" stroke-linecap="round" stroke-linejoin="round" stroke-width="2"/>
    <path d="M36.5296,36.0471c5.4673,5.4673,6.4162,13.3828,2.1194,17.6796-2.7221,2.7221-6.8965,3.3389-10.9807,2.0353v-.0002c-3.7456-1.2011-10.3696-.4837-13.0589,2.2056,2.6894-2.6894,3.4068-9.3134,2.2056-13.059h-.0002c-1.3036-4.0841-.6868-8.2586,2.0353-10.9807,4.2968-4.2968,12.2123-3.348,17.6796,2.1194Z" fill="none" stroke="#000" stroke-linecap="round" stroke-linejoin="round" stroke-width="2"/>
    <line x1="40.3796" y1="28.8714" x2="39.8534" y2="30.8772" fill="none" stroke="#000" stroke-linecap="round" stroke-linejoin="round" stroke-width="2"/>
  </g>
</svg>