<?xml version="1.0" encoding="UTF-8"?>
<svg id="emoji" xmlns="http://www.w3.org/2000/svg" version="1.1" viewBox="0 0 72 72">
  <!-- Generator: Adobe Illustrator 29.3.1, SVG Export Plug-In . SVG Version: 2.1.0 Build 151)  -->
  <defs>
    <style>
      .st0 {
        fill: none;
        stroke: #000;
        stroke-linecap: round;
        stroke-miterlimit: 10;
        stroke-width: 2px;
      }

      .st1 {
        fill: #d22f27;
      }

      .st2 {
        fill: #781e32;
      }

      .st3 {
        fill: #f2c1be;
      }
    </style>
  </defs>
  <g id="color">
    <path class="st1" d="M40.2664,44.0073c-3.2717-1.0385-5.9691.985-9.4785-.129-3.4209-1.0858-3.078-1.8136-6.1779-2.7975-3.3385-1.0597-5.7947.7742-7.0107,4.6051-1.3219,4.1645.6594,9.0828,11.5211,12.5304h-.0001c8.0833,2.5657,14.5747-.1369,16.2899-5.5404,1.7151-5.4035-2.2651-7.7549-5.1438-8.6686Z"/>
    <path class="st3" d="M27.6887,45.2792c-.1765-.2902.1246-.6355.4312-.4895.9357.4456,2.5058,1.0772,4.2978,1.3212,1.5792.215,3.4598-.045,4.4917-.231.305-.055.5222.298.3296.5409-.6633.8367-2.1479,2.0943-4.9612,1.8128-2.5406-.2542-3.9343-1.8776-4.5892-2.9544h0Z"/>
    <path class="st1" d="M43.8832,36.4351c3.0654,7.9073,9.2393,11.2728,14.5252,9.2236s4.6244-6.6246,3.5327-9.4405c-1.2407-3.2005-4.5079-4.0348-5.8388-7.4678-1.2973-3.3464-.5153-3.5352-1.6909-6.5676-1.2661-3.2658-4.2344-4.0309-7.9819-2.5781-4.0738,1.5793-6.6654,6.2052-2.5463,16.8304Z"/>
    <path class="st3" d="M53.0685,27.213c.1156-.3193.5734-.3011.6517.0293.2391,1.0084.7306,2.6278,1.6634,4.1773.822,1.3654,2.203,2.6682,2.9946,3.3558.234.2033.0949.5937-.215.5958-1.0677.0073-2.9781-.3617-4.5215-2.7305-1.3938-2.1393-1.002-4.2427-.5731-5.4277h0Z"/>
    <path class="st1" d="M30.3053,33.0186c7.0586-4.7009,9.0113-11.4559,5.8689-16.1744-3.1424-4.7185-7.467-3.0845-9.9807-1.4104-2.857,1.9027-2.966,5.2729-6.0305,7.3138-2.9873,1.9894-3.3405,1.2667-6.0475,3.0694-2.9153,1.9415-3.0213,5.005-.7934,8.3503,2.4219,3.6366,7.4983,5.1679,16.9831-1.1487h.0001Z"/>
    <path class="st3" d="M19.3171,26.0418c-.3367-.0439-.4178-.4948-.1121-.6427.933-.4512,2.408-1.2809,3.7194-2.5263,1.1557-1.0975,2.1294-2.7273,2.6299-3.6487.1479-.2724.5592-.2209.6282.0813.2377,1.0409.2901,2.9859-1.6895,5.0045-1.7877,1.823-3.9262,1.8946-5.1759,1.7318h0Z"/>
    <path class="st2" d="M44.9885,53.7414c-2.9007,1.8161-6.7985,2.2024-11.2603,2.1044-5.4659-.1201-11.963-2.6905-16.0195-5.5241,1.1193,2.8453,4.4183,5.6748,11.4116,7.8946,7.5312,2.3905,13.6762.2048,15.8682-4.4749Z"/>
    <path class="st2" d="M61.9411,36.2182c-.2861-.738-.6829-1.347-1.1359-1.8942h0s1.7374,8.61-6.1899,7.9974c-4.2227-.3263-9.0803-4.1798-11.5462-8.1991.2382.7408.5004,1.5037.8141,2.3129,3.0654,7.9073,9.2393,11.2728,14.5251,9.2236,5.2859-2.0492,4.6244-6.6246,3.5327-9.4406h0Z"/>
    <path class="st2" d="M19.387,33.8176c-2.6418.5871-5.0359-.163-6.9559-1.2512.2365.5242.5297,1.0583.8911,1.601,2.4219,3.6366,7.4983,5.1679,16.9832-1.1487,2.9299-1.9512,4.9663-4.2574,6.1376-6.624-3.667,2.5643-8.9353,5.6184-17.0559,7.423h-.0001Z"/>
  </g>
  <g id="line">
    <path class="st0" d="M40.2664,44.0073c-3.2717-1.0385-5.9691.985-9.4785-.129-3.4209-1.0858-3.078-1.8136-6.1779-2.7975-3.3385-1.0597-5.7947.7742-7.0107,4.6051-1.3219,4.1645.6594,9.0828,11.5211,12.5304,8.0833,2.5657,14.5746-.1369,16.2899-5.5404,1.7151-5.4035-2.2651-7.7549-5.1438-8.6686Z"/>
    <path class="st0" d="M43.8832,36.4351c3.0654,7.9073,9.2393,11.2728,14.5252,9.2236s4.6244-6.6246,3.5327-9.4405c-1.2407-3.2005-4.5079-4.0348-5.8388-7.4678-1.2973-3.3464-.5153-3.5352-1.6909-6.5676-1.2661-3.2658-4.2344-4.0309-7.9819-2.5781-4.0738,1.5793-6.6654,6.2052-2.5463,16.8304Z"/>
    <path class="st0" d="M30.3053,33.0186c7.0586-4.7009,9.0113-11.4559,5.8689-16.1744-3.1424-4.7185-7.467-3.0845-9.9807-1.4104-2.857,1.9027-2.966,5.2729-6.0305,7.3138-2.9873,1.9894-3.3405,1.2667-6.0475,3.0694-2.9153,1.9415-3.0213,5.005-.7934,8.3503,2.4219,3.6366,7.4983,5.1679,16.9831-1.1487h.0001Z"/>
  </g>
</svg>