<svg id="emoji" version="1.1" viewBox="0 0 72 72" xmlns="http://www.w3.org/2000/svg">
 <g id="grid">
  <path d="M68,4V68H4V4H68m4-4H0V72H72V0Z" fill="#b3b3b3"/>
  <path d="m12.92 10.96h46.15a1.923 1.923 0 0 1 1.923 1.923v46.15a1.923 1.923 0 0 1-1.923 1.923h-46.15a1.923 1.923 0 0 1-1.923-1.923v-46.15a1.923 1.923 0 0 1 1.923-1.923z" fill="none" stroke="#00a5ff" stroke-miterlimit="10" stroke-width=".1"/>
  <rect x="16" y="4" width="40" height="64" rx="2.254" fill="none" stroke="#00a5ff" stroke-miterlimit="10" stroke-width=".1"/>
  <rect transform="translate(72) rotate(90)" x="16" y="4" width="40" height="64" rx="2.254" fill="none" stroke="#00a5ff" stroke-miterlimit="10" stroke-width=".1"/>
  <circle cx="36" cy="36" r="29" fill="none" stroke="#00a5ff" stroke-miterlimit="10" stroke-width=".1"/>
 </g>
 <g id="color" stroke-linecap="round" stroke-linejoin="round" stroke-miterlimit="10" stroke-width="2">
  <circle cx="35.96" cy="35.99" r="23" fill="#fff"/>
  <line x1="36" x2="36" y1="36.06" y2="53.06" fill="#fff"/>
  <line x1="47.42" x2="36.29" y1="39.12" y2="36.07" fill="none" style="fill:#fff"/>
 </g>
 <g id="line" fill="none" stroke="#000" stroke-linecap="round" stroke-linejoin="round" stroke-miterlimit="10" stroke-width="2">
  <circle cx="35.96" cy="35.99" r="23"/>
  <line x1="36" x2="36" y1="36.06" y2="53.06"/>
  <line x1="47.42" x2="36.29" y1="39.12" y2="36.07"/>
 </g>
</svg>
