<?xml version="1.0" encoding="UTF-8"?>
<svg id="emoji" xmlns="http://www.w3.org/2000/svg" viewBox="0 0 72 72">
  <g id="grid">
    <path d="m68,4v64H4V4h64m4-4H0v72h72V0Z" fill="#b3b3b3"/>
    <path d="m12.923,10.9583h46.1539c1.0621,0,1.9231.861,1.9231,1.9231h0v46.1538c0,1.0621-.861,1.9231-1.9231,1.9231H12.9231c-1.0621,0-1.9231-.861-1.9231-1.9231h0V12.8813c0-1.062.861-1.923,1.923-1.923h0Z" fill="none" stroke="#00a5ff" stroke-miterlimit="10" stroke-width=".1"/>
    <rect x="16" y="4" width="40" height="64" rx="2.2537" ry="2.2537" fill="none" stroke="#00a5ff" stroke-miterlimit="10" stroke-width=".1"/>
    <rect x="4" y="16" width="64" height="40" rx="2.2537" ry="2.2537" fill="none" stroke="#00a5ff" stroke-miterlimit="10" stroke-width=".1"/>
    <circle cx="36" cy="36" r="29" fill="none" stroke="#00a5ff" stroke-miterlimit="10" stroke-width=".1"/>
  </g>
  <g id="color">
    <path d="m35.4423,37.8357h1.0165c7.6245,0,13.8146,6.1901,13.8146,13.8146v6.4581h-28.3282v-6.7757c0-7.4492,6.0478-13.4971,13.4971-13.4971Z" fill="#fff"/>
    <path d="m35.2673,13.5925h1.0165c7.6245,0,13.8146,6.1901,13.8146,13.8146v6.4581h-28.3282v-6.7757c0-7.4492,6.0478-13.4971,13.4971-13.4971Z" transform="translate(71.8686 47.4577) rotate(180)" fill="#fff"/>
    <path d="m39.2568,33.55s-2.8222,2.0175-.1707,4.5474c0,0-2.0336-.5557-6.3872.0707,0,0,2.7562-2.0985-.094-4.7294l6.6519.1114Z" fill="#fff"/>
    <path d="m44.0449,43h-16.0888c-2.8204,2.584-3.9561,6.665-3.9561,9.3184v6.6816h24v-6.6816c0-2.6534-1.1357-6.7344-3.9551-9.3184Z" fill="#9b9b9a"/>
    <path d="m55,11c0,1.1001-.9004,2-2,2H19c-1.0996,0-2-.8999-2-2v-1c0-1.1001.9004-2,2-2h34c1.0996,0,2,.8999,2,2v1Z" fill="#a57939"/>
    <path d="m55,62c0,1.0996-.9004,2-2,2H19c-1.0996,0-2-.9004-2-2v-1c0-1.0996.9004-2,2-2h34c1.0996,0,2,.9004,2,2v1Z" fill="#a57939"/>
  </g>
  <g id="line">
    <path d="m31,34c-7.2725-1.9092-10-9.5454-10-14.3184v-6.6816" fill="none" stroke="#000" stroke-linecap="round" stroke-linejoin="round" stroke-width="2"/>
    <path d="m21,59v-6.6816c0-4.7725,2.7275-12.4092,10-14.3184" fill="none" stroke="#000" stroke-linecap="round" stroke-linejoin="round" stroke-width="2"/>
    <path d="m31,38c1-.2715,2-.8945,2-2,0-1.1045-1-1.7285-2-2" fill="none" stroke="#000" stroke-linecap="round" stroke-linejoin="round" stroke-width="2"/>
    <path d="m41,34c7.2725-1.9092,10-9.5454,10-14.3184v-6.6816" fill="none" stroke="#000" stroke-linecap="round" stroke-linejoin="round" stroke-width="2"/>
    <path d="m51,59v-6.6816c0-4.7725-2.7275-12.4092-10-14.3184" fill="none" stroke="#000" stroke-linecap="round" stroke-linejoin="round" stroke-width="2"/>
    <path d="m41,38c-1-.2715-2-.8945-2-2,0-1.1045,1-1.7285,2-2" fill="none" stroke="#000" stroke-linecap="round" stroke-linejoin="round" stroke-width="2"/>
    <path d="m55,11c0,1.1001-.9004,2-2,2H19c-1.0996,0-2-.8999-2-2v-1c0-1.1001.9004-2,2-2h34c1.0996,0,2,.8999,2,2v1Z" fill="none" stroke="#000" stroke-linecap="round" stroke-linejoin="round" stroke-width="2"/>
    <path d="m55,62c0,1.0996-.9004,2-2,2H19c-1.0996,0-2-.9004-2-2v-1c0-1.0996.9004-2,2-2h34c1.0996,0,2,.9004,2,2v1Z" fill="none" stroke="#000" stroke-linecap="round" stroke-linejoin="round" stroke-width="2"/>
    <line x1="29" y1="43" x2="43" y2="43" fill="none" stroke="#000" stroke-linecap="round" stroke-linejoin="round" stroke-width="2"/>
  </g>
</svg>