<svg id="emoji" xmlns="http://www.w3.org/2000/svg" viewBox="0 0 72 72">
  <g id="grid">
    <path d="M68,4V68H4V4H68m4-4H0V72H72V0Z" fill="#b3b3b3"></path>
    <path d="M12.923,10.9583H59.0769A1.9231,1.9231,0,0,1,61,12.8814V59.0352a1.9231,1.9231,0,0,1-1.9231,1.9231H12.9231A1.9231,1.9231,0,0,1,11,59.0352V12.8813A1.923,1.923,0,0,1,12.923,10.9583Z" fill="none" stroke="#00a5ff" stroke-miterlimit="10" stroke-width="0.1"></path>
    <rect x="16" y="4" width="40" height="64" rx="2.2537" fill="none" stroke="#00a5ff" stroke-miterlimit="10" stroke-width="0.1"></rect>
    <rect x="16" y="4" width="40" height="64" rx="2.2537" transform="translate(72) rotate(90)" fill="none" stroke="#00a5ff" stroke-miterlimit="10" stroke-width="0.1"></rect>
    <circle cx="36" cy="36" r="29" fill="none" stroke="#00a5ff" stroke-miterlimit="10" stroke-width="0.1"></circle>
  </g>
  <g id="color">
    <line fill="#FFFFFF" stroke="none" stroke-width="2" stroke-linecap="round" stroke-linejoin="round" stroke-miterlimit="10" x1="50.258" y1="55.036" x2="53.1419" y2="59.8645"></line>
    <line fill="#FFFFFF" stroke="none" stroke-width="2" stroke-linecap="round" stroke-linejoin="round" stroke-miterlimit="10" x1="21.7419" y1="55.036" x2="18.858" y2="59.8645"></line>
    <path fill="#d0cfce" stroke="#d0cfce" stroke-width="2" stroke-miterlimit="10" d="M36,19"></path>
    <path fill="#d0cfce" stroke="#d0cfce" stroke-width="2" stroke-miterlimit="10" d="M36,19"></path>
    <path fill="#d0cfce" d="M46.1859,14.7917c2.2534-4.6476,4.2653-4.0842,6.1673-4.3168c1.2869-0.1573,6.4609,3.1641,6.4609,6.5799
			s-2.2433,4.739-3.5597,5.4867" stroke="none"></path>
    <path fill="#d0cfce" d="M25.8141,14.7917c-2.2533-4.6476-4.2652-4.0842-6.1672-4.3168c-1.287-0.1573-6.461,3.1641-6.461,6.5799
			s2.2433,4.739,3.5597,5.4867" stroke="none"></path>
    <circle fill="#FFFFFF" stroke="none" stroke-width="2" stroke-linecap="round" stroke-linejoin="round" stroke-miterlimit="10" cx="36" cy="36.2941" r="23"></circle>
    <line fill="#FFFFFF" stroke="none" stroke-width="2" stroke-linecap="round" stroke-linejoin="round" stroke-miterlimit="10" x1="36.0257" y1="18.9893" x2="36.0257" y2="35.9893"></line>
    <line fill="#FFFFFF" stroke="none" stroke-width="2.0785" stroke-linecap="round" stroke-linejoin="round" stroke-miterlimit="10" x1="35.9742" y1="35.9349" x2="29.9742" y2="46.3272"></line>
  </g>
  <g id="hair">
  </g>
  <g id="skin">
  </g>
  <g id="skin-shadow">
  </g>
  <g id="line">
    <path fill="none" stroke="#000000" stroke-width="2" stroke-linecap="round" stroke-linejoin="round" stroke-miterlimit="10" d="
		M36,12.6326"></path>
    <path fill="none" stroke="#000000" stroke-width="2" stroke-linecap="round" stroke-linejoin="round" stroke-miterlimit="10" d="
		M36,19.0725"></path>
    <path fill="none" stroke="#000000" stroke-width="2" stroke-linecap="round" stroke-linejoin="round" stroke-miterlimit="10" d="
		M36,19.2478"></path>
    <path fill="none" stroke="#000000" stroke-width="2" stroke-linecap="round" stroke-linejoin="round" stroke-miterlimit="10" d="
		M36,12.7539"></path>
    <line fill="none" stroke="#000000" stroke-width="2" stroke-linecap="round" stroke-linejoin="round" stroke-miterlimit="10" x1="50.258" y1="55.036" x2="53.1419" y2="59.8645"></line>
    <line fill="none" stroke="#000000" stroke-width="2" stroke-linecap="round" stroke-linejoin="round" stroke-miterlimit="10" x1="21.7419" y1="55.036" x2="18.858" y2="59.8645"></line>
    <path fill="none" stroke="#000000" stroke-width="2" stroke-linecap="round" stroke-linejoin="round" stroke-miterlimit="10" d="
			M48.8497,12.5761c0.9692-0.8502,2.2395-1.3655,3.6301-1.3655c3.0417,0,5.5076,2.4657,5.5076,5.5075
			c0,1.1088-0.3277,2.1411-0.8914,3.0052"></path>
    <path fill="none" stroke="#000000" stroke-width="2" stroke-linecap="round" stroke-linejoin="round" stroke-miterlimit="10" d="
			M23.1504,12.5761c-0.9693-0.8502-2.2396-1.3655-3.6302-1.3655c-3.0417,0-5.5075,2.4657-5.5075,5.5075
			c0,1.1088,0.3276,2.1411,0.8914,3.0052"></path>
    <circle fill="none" stroke="#000000" stroke-width="2" stroke-linecap="round" stroke-linejoin="round" stroke-miterlimit="10" cx="36" cy="36.2941" r="23"></circle>
    <line fill="none" stroke="#000000" stroke-width="2" stroke-linecap="round" stroke-linejoin="round" stroke-miterlimit="10" x1="36.0257" y1="18.9893" x2="36.0257" y2="35.9893"></line>
    <line fill="none" stroke="#000000" stroke-width="2.0785" stroke-linecap="round" stroke-linejoin="round" stroke-miterlimit="10" x1="35.9742" y1="35.9349" x2="29.9742" y2="46.3272"></line>
  </g>
</svg>