<svg id="emoji" xmlns="http://www.w3.org/2000/svg" viewBox="0 0 72 72">
  <g id="grid">
    <path d="M68,4V68H4V4H68m4-4H0V72H72V0Z" fill="#b3b3b3"/>
    <path d="M12.923,10.9583H59.0769A1.9231,1.9231,0,0,1,61,12.8814V59.0352a1.9231,1.9231,0,0,1-1.9231,1.9231H12.9231A1.9231,1.9231,0,0,1,11,59.0352V12.8813A1.923,1.923,0,0,1,12.923,10.9583Z" fill="none" stroke="#00a5ff" stroke-miterlimit="10" stroke-width=".1"/>
    <rect x="16" y="4" width="40" height="64" rx="2.2537" fill="none" stroke="#00a5ff" stroke-miterlimit="10" stroke-width=".1"/>
    <rect x="16" y="4" width="40" height="64" rx="2.2537" transform="translate(72) rotate(90)" fill="none" stroke="#00a5ff" stroke-miterlimit="10" stroke-width=".1"/>
    <circle cx="36" cy="36" r="29" fill="none" stroke="#00a5ff" stroke-miterlimit="10" stroke-width=".1"/>
  </g>
  <g id="color">
    <path fill="#9b9b9a" stroke="none" stroke-width="2" stroke-linecap="round" stroke-linejoin="round" stroke-miterlimit="10" d="M12.6048,57.6825v-23c0-12.7025,10.2975-23,23-23s23,10.2975,23,23v23H12.6048z"/>
    <circle fill="#d0cfce" stroke="none" stroke-width="2" stroke-linecap="round" stroke-linejoin="round" stroke-miterlimit="10" cx="35.6048" cy="34.6825" r="15"/>
    <circle fill="#FFFFFF" stroke="none" stroke-width="2" stroke-linecap="round" stroke-linejoin="round" stroke-miterlimit="10" cx="35.6048" cy="34.6825" r="15"/>
    <line fill="#FFFFFF" stroke="none" stroke-width="1.7585" stroke-linecap="round" stroke-linejoin="round" stroke-miterlimit="10" x1="35.4172" y1="35.0875" x2="28.6048" y2="35.0875"/>
  </g>
  <g id="hair"/>
  <g id="skin"/>
  <g id="skin-shadow"/>
  <g id="line">
    <path fill="none" stroke="#000000" stroke-width="2" stroke-linecap="round" stroke-linejoin="round" stroke-miterlimit="10" d="M12.6048,57.6825v-23c0-12.7025,10.2975-23,23-23s23,10.2975,23,23v23H12.6048z"/>
    <circle fill="none" stroke="#000000" stroke-width="2" stroke-linecap="round" stroke-linejoin="round" stroke-miterlimit="10" cx="35.6048" cy="34.6825" r="15"/>
    <circle fill="none" stroke="#000000" stroke-width="2" stroke-linecap="round" stroke-linejoin="round" stroke-miterlimit="10" cx="35.6048" cy="34.6825" r="15"/>
    <path fill="none" stroke="#000000" stroke-width="2" stroke-linecap="round" stroke-linejoin="round" stroke-miterlimit="10" d="M12.6048,57.6825v-23c0-12.7025,10.2975-23,23-23s23,10.2975,23,23v23H12.6048z"/>
    <circle fill="none" stroke="#000000" stroke-width="2" stroke-linecap="round" stroke-linejoin="round" stroke-miterlimit="10" cx="35.6048" cy="34.6825" r="15"/>
    <line fill="none" stroke="#000000" stroke-width="1.7585" stroke-linecap="round" stroke-linejoin="round" stroke-miterlimit="10" x1="35.4172" y1="35.0875" x2="28.6048" y2="35.0875"/>
    <circle cx="24.4069" cy="34.9878" r="1" fill="#000000" stroke="none"/>
    <circle cx="46.6779" cy="34.9878" r="1" fill="#000000" stroke="none"/>
    <ellipse transform="matrix(0.7071 -0.7071 0.7071 0.7071 -22.204 32.1184)" cx="27.6684" cy="42.8618" rx="1" ry="1" fill="#000000" stroke="none"/>
    <ellipse transform="matrix(0.7071 -0.7071 0.7071 0.7071 -6.456 38.6415)" cx="43.4164" cy="27.1138" rx="1" ry="1" fill="#000000" stroke="none"/>
    <circle cx="35.5424" cy="46.1233" r="1" fill="#000000" stroke="none"/>
    <circle cx="35.5424" cy="23.8523" r="1" fill="#000000" stroke="none"/>
    <ellipse transform="matrix(0.7071 -0.7071 0.7071 0.7071 -17.5915 43.254)" cx="43.4164" cy="42.8618" rx="1" ry="1" fill="#000000" stroke="none"/>
    <ellipse transform="matrix(0.7071 -0.7071 0.7071 0.7071 -11.0685 27.506)" cx="27.6684" cy="27.1138" rx="1" ry="1" fill="#000000" stroke="none"/>
  </g>
</svg>
