<?xml version="1.0" encoding="UTF-8"?>
<svg id="emoji" xmlns="http://www.w3.org/2000/svg" viewBox="0 0 72 72">
  <g id="grid">
    <path d="m68,4v64H4V4h64m4-4H0v72h72V0Z" fill="#b3b3b3"/>
    <path d="m12.923,10.9583h46.1539c1.0621,0,1.9231.861,1.9231,1.9231h0v46.1538c0,1.0621-.861,1.9231-1.9231,1.9231H12.9231c-1.0621,0-1.9231-.861-1.9231-1.9231h0V12.8813c0-1.062.861-1.923,1.923-1.923h0Z" fill="none" stroke="#00a5ff" stroke-miterlimit="10" stroke-width=".1"/>
    <rect x="16" y="4" width="40" height="64" rx="2.2537" ry="2.2537" fill="none" stroke="#00a5ff" stroke-miterlimit="10" stroke-width=".1"/>
    <rect x="4" y="16" width="64" height="40" rx="2.2537" ry="2.2537" fill="none" stroke="#00a5ff" stroke-miterlimit="10" stroke-width=".1"/>
    <circle cx="36" cy="36" r="29" fill="none" stroke="#00a5ff" stroke-miterlimit="10" stroke-width=".1"/>
  </g>
  <g id="color">
    <path d="m35.498,37.967h1.0165c7.6245,0,13.8146,6.1901,13.8146,13.8146v6.4581h-28.3282v-6.7757c0-7.4492,6.0478-13.4971,13.4971-13.4971Z" fill="#fff"/>
    <path d="m35.323,13.7238h1.0165c7.6245,0,13.8146,6.1901,13.8146,13.8146v6.4581h-28.3282v-6.7757c0-7.4492,6.0478-13.4971,13.4971-13.4971Z" transform="translate(71.98 47.7203) rotate(180)" fill="#fff"/>
    <path d="m39.3125,33.6813s-2.8222,2.0175-.1707,4.5474c0,0-2.0336-.5557-6.3872.0707,0,0,2.7562-2.0985-.094-4.7294l6.6519.1114Z" fill="#fff"/>
    <path d="m40.2139,31.1055c.0039-.002.0068-.002.0107-.002.0049-.0019.0088-.0039.0137-.0058,5.6543-1.4844,7.7617-7.7901,7.7617-11.4161v-1.6816h-24v1.6816c0,3.626,2.1074,9.9317,7.7617,11.4161.0049.0019.0088.0039.0137.0058.0039,0,.0068,0,.0107.002,1.792.4863,3.0996,1.5361,3.7491,2.8945h.9296c.6495-1.3584,1.9571-2.4082,3.7491-2.8945Z" fill="#9b9b9a"/>
    <path d="m47,55c-6.0742,0-11-4.9258-11-11,0,6.0742-4.9258,11-11,11h-1v4h24v-4h-1Z" fill="#9b9b9a"/>
    <path d="m55,11c0,1.1001-.9004,2-2,2H19c-1.0996,0-2-.8999-2-2v-1c0-1.1001.9004-2,2-2h34c1.0996,0,2,.8999,2,2v1Z" fill="#a57939"/>
    <path d="m55,62c0,1.0996-.9004,2-2,2H19c-1.0996,0-2-.9004-2-2v-1c0-1.0996.9004-2,2-2h34c1.0996,0,2,.9004,2,2v1Z" fill="#a57939"/>
  </g>
  <g id="line">
    <path d="m31,34c-7.2725-1.9092-10-9.5454-10-14.3184v-6.6816" fill="none" stroke="#000" stroke-linecap="round" stroke-linejoin="round" stroke-width="2"/>
    <path d="m21,59v-6.6816c0-4.7725,2.7275-12.4092,10-14.3184" fill="none" stroke="#000" stroke-linecap="round" stroke-linejoin="round" stroke-width="2"/>
    <path d="m31,38c1-.2715,2-.8945,2-2,0-1.1045-1-1.7285-2-2" fill="none" stroke="#000" stroke-linecap="round" stroke-linejoin="round" stroke-width="2"/>
    <path d="m41,34c7.2725-1.9092,10-9.5454,10-14.3184v-6.6816" fill="none" stroke="#000" stroke-linecap="round" stroke-linejoin="round" stroke-width="2"/>
    <path d="m51,59v-6.6816c0-4.7725-2.7275-12.4092-10-14.3184" fill="none" stroke="#000" stroke-linecap="round" stroke-linejoin="round" stroke-width="2"/>
    <path d="m41,38c-1-.2715-2-.8945-2-2,0-1.1045,1-1.7285,2-2" fill="none" stroke="#000" stroke-linecap="round" stroke-linejoin="round" stroke-width="2"/>
    <path d="m25,55c6.0742,0,11-4.9258,11-11,0,6.0742,4.9258,11,11,11" fill="none" stroke="#000" stroke-linecap="round" stroke-linejoin="round" stroke-width="2"/>
    <path d="m55,11c0,1.1001-.9004,2-2,2H19c-1.0996,0-2-.8999-2-2v-1c0-1.1001.9004-2,2-2h34c1.0996,0,2,.8999,2,2v1Z" fill="none" stroke="#000" stroke-linecap="round" stroke-linejoin="round" stroke-width="2"/>
    <line x1="47" y1="18" x2="25" y2="18" fill="none" stroke="#000" stroke-linecap="round" stroke-linejoin="round" stroke-width="2"/>
    <path d="m55,62c0,1.0996-.9004,2-2,2H19c-1.0996,0-2-.9004-2-2v-1c0-1.0996.9004-2,2-2h34c1.0996,0,2,.9004,2,2v1Z" fill="none" stroke="#000" stroke-linecap="round" stroke-linejoin="round" stroke-width="2"/>
    <line x1="36" y1="39" x2="36" y2="44" fill="none" stroke="#000" stroke-linecap="round" stroke-linejoin="round" stroke-width="2"/>
  </g>
</svg>