<svg id="emoji" viewBox="0 0 72 72" version="1.1" xmlns="http://www.w3.org/2000/svg">
  <g id="grid">
    <path fill="#B3B3B3" d="M68,4v64H4V4H68 M72,0H0v72h72V0z"/>
    <path fill="none" stroke="#00A5FF" stroke-miterlimit="10" stroke-width="0.1" d="M12.9,11h46.2 c1.0486-0.0007,1.8993,0.8488,1.9,1.8974c0,0.0009,0,0.0017,0,0.0026l0,0V59c0.0007,1.0486-0.8488,1.8993-1.8974,1.9 c-0.0009,0-0.0017,0-0.0026,0H12.9c-1.014,0.0354-1.8646-0.758-1.9-1.772c-0.0015-0.0427-0.0015-0.0854,0-0.128l0,0V12.9 c-0.0007-1.0486,0.8488-1.8993,1.8974-1.9C12.8983,11,12.8991,11,12.9,11z"/>
    <path fill="none" stroke="#00A5FF" stroke-miterlimit="10" stroke-width="0.1" d="M18.3,4h35.5 c1.2383,0.0231,2.2234,1.0456,2.2004,2.2839C56.0003,6.2892,56.0001,6.2946,56,6.3v59.5c-0.0141,1.2644-1.0356,2.2859-2.3,2.3H18.3 c-1.2831-0.0606-2.294-1.1155-2.3-2.4V6.3c-0.0206-1.2497,0.9757-2.2794,2.2254-2.3C18.2503,3.9996,18.2751,3.9996,18.3,4z"/>
    <path fill="none" stroke="#00A5FF" stroke-miterlimit="10" stroke-width="0.1" d="M68,18.3v35.5 c-0.0141,1.2644-1.0356,2.2859-2.3,2.3H6.3c-1.2831-0.0606-2.294-1.1155-2.3-2.4V18.3c-0.0206-1.2497,0.9757-2.2794,2.2254-2.3 c0.0249-0.0004,0.0497-0.0004,0.0746,0h59.5c1.2383,0.0231,2.2234,1.0456,2.2004,2.2839C68.0003,18.2892,68.0001,18.2946,68,18.3z"/>
    <circle cx="36" cy="36.0001" r="29" fill="none" stroke="#00A5FF" stroke-miterlimit="10" stroke-width="0.1"/>
  </g>
  <g id="color">
    <path fill="#92D3F5" d="M58,25.7l-11.9-4.8c-0.2-4.3-1.9-11.3-10.6-11.6c-12,0-14.6,11-14.6,11l-1,2l-0.6,1.2L14,25.7"/>
    <path fill="#61B2E4" d="M19.0858,25.7L16.8,31.4c-0.3115,0.5831-0.3832,1.2648-0.2,1.9L19.5,44 c0.0564,0.1933,0.2588,0.3043,0.4521,0.2479C20.0717,44.213,20.1651,44.1195,20.2,44l0.2-7.7l0.6-0.6l1-1.3l8-8.8"/>
    <path fill="#92D3F5" d="M17,60.949v-4c0-4.9941,5.0078-9,10-9c6,5,12,5,18,0c4.9941,0,10,4.0059,10,9v4"/>
    <path fill="#61B2E4" d="M45.6624,60.949v-4.0122c-0.1404-2.631-1.5943-5.2619-3.6479-6.9125 c0.9952-0.5542,1.9904-1.246,2.9855-2.0753c4.9941,0,10,4.0059,10,9v4"/>
    <path fill="#61B2E4" d="M53.3683,40.539c-2.5437-1.0747-3.7346-4.008-2.6599-6.5517s4.008-3.7346,6.5517-2.6599 s3.7346,4.008,2.6599,6.5517c-0.4479,1.0601-1.2477,1.9332-2.2646,2.4721"/>
    <path fill="#92D3F5" d="M55.3145,32.4717c-0.8786,0.137-1.6948,0.5381-2.34,1.15c1.5407-0.3467,3.1393-0.3467,4.68,0 C57.0093,33.0098,56.1931,32.6087,55.3145,32.4717z"/>
    <polyline fill="#A57939" points="57.314,61 57.314,40.539 53.314,40.539 53.314,61"/>
  </g>
  <g id="skin">
    <path fill="#FCEA2B" d="M25.9065,25.7998C25.3022,27.3152,25,28.9565,25,30.9c0,8,5,14,11,14s11-6,11-14 c0-1.9435-0.3022-3.5848-0.9065-5.1002"/>
  </g>
  <g id="line">
    <path fill="none" stroke="#000000" stroke-linecap="round" stroke-linejoin="round" stroke-width="2" d="M19.0858,25.8L16.9,31.4 c-0.3115,0.5831-0.3832,1.2648-0.2,1.9L19.5,44c0.0564,0.1933,0.2588,0.3043,0.4521,0.2479C20.0717,44.213,20.1651,44.1195,20.2,44 l0.2-7.7c0.0103-0.473,0.0775-0.943,0.2-1.4"/>
    <path fill="none" stroke="#000000" stroke-linecap="round" stroke-linejoin="round" stroke-width="2" d="M26.9,17.5 c-0.4245,1.0967-0.7263,2.2369-0.9,3.4l0,0l-12,4.9h44l-11.9-4.9c-0.2-4.3-2.2-11.3-10.9-11.6C22.2,9.3,20,22.8,20,22.8"/>
    <path fill="none" stroke="#000000" stroke-linecap="round" stroke-linejoin="round" stroke-width="2" d="M53.3683,40.59 c-2.5437-1.0747-3.7346-4.008-2.6599-6.5517s4.008-3.7346,6.5517-2.6599s3.7346,4.008,2.6599,6.5517 c-0.4479,1.0601-1.2477,1.9332-2.2646,2.4721"/>
    <polyline fill="none" stroke="#000000" stroke-linecap="round" stroke-linejoin="round" stroke-width="2" points="57.314,60.051 57.314,40.605 53.314,40.605 53.314,60.051"/>
    <path fill="none" stroke="#000000" stroke-linecap="round" stroke-linejoin="round" stroke-width="2" d="M17,60v-3 c0-4.9941,5.0078-9,10-9c6,5,12,5,18,0c3.2121,0,6.4292,1.6572,8.316,4.1687"/>
    <path d="M42,29.9c0,1.1-0.9,2-2,2s-2-0.9-2-2s0.9-2,2-2S42,28.8,42,29.9"/>
    <path d="M34,29.9c0,1.1-0.9,2-2,2c-1.1,0-2-0.9-2-2s0.9-2,2-2C33.1,27.9,34,28.8,34,29.9"/>
    <path fill="none" stroke="#000000" stroke-linecap="round" stroke-linejoin="round" stroke-width="2" d="M25.9065,25.7998 C25.3022,27.3152,25,28.9565,25,30.9c0,8,5,14,11,14s11-6,11-14c0-1.9435-0.3022-3.5848-0.9065-5.1002"/>
    <path fill="none" stroke="#000000" stroke-linecap="round" stroke-linejoin="round" stroke-width="2" d="M33,38.1c1.9,1,4.1,1,6,0"/>
  </g>
</svg>
