<?xml version="1.0" encoding="UTF-8"?>
<svg id="emoji" xmlns="http://www.w3.org/2000/svg" viewBox="0 0 72 72">
  <g id="grid">
    <path d="m68,4v64H4V4h64m4-4H0v72h72V0Z" fill="#b3b3b3"/>
    <rect x="11" y="10.9583" width="50" height="50" rx="1.9231" ry="1.9231" fill="none" stroke="#00a5ff" stroke-miterlimit="10" stroke-width=".1"/>
    <rect x="16" y="4" width="40" height="64" rx="2.2537" ry="2.2537" fill="none" stroke="#00a5ff" stroke-miterlimit="10" stroke-width=".1"/>
    <rect x="4" y="16" width="64" height="40" rx="2.2537" ry="2.2537" fill="none" stroke="#00a5ff" stroke-miterlimit="10" stroke-width=".1"/>
    <circle cx="36" cy="36" r="29" fill="none" stroke="#00a5ff" stroke-miterlimit="10" stroke-width=".1"/>
  </g>
  <g id="color">
    <path d="m42.3729,61.9361l-12.0312-.0873.5302-5.4325c.2664-2.7294,2.7308-4.8196,5.6826-4.8196h0c2.5196,0,4.6458,1.74,4.9623,4.0607l.8562,6.2786Z" fill="#fff"/>
    <path d="m36.16,48.8886l-.0183,2.5862s-3.0975.0769-5.3547,3.6928c-1.065,2.0302-1.6193,4.2893-1.6149,6.5818l-10.541-.2452s6.8354-3.1377,8.8827-6.7536c.9947-1.9297,1.8684-3.9194,2.6162-5.9575" fill="#d0cfce"/>
    <path d="m36.1219,48.4489l-.0035,3.0259s3.0974.0769,5.3547,3.6928c1.0649,2.0302,1.6192,4.2893,1.6148,6.5818l10.541-.2452s-6.8354-3.1377-8.8826-6.7536c-1.0273-1.9982-1.9283-4.059-2.6976-6.17" fill="#9b9b9a"/>
    <rect x="5.9595" y="63.4401" width="30.0405" height="2.5875" fill="#b1cc33"/>
    <rect x="36" y="63.4401" width="30.0405" height="2.5875" fill="#5c9e31"/>
    <g>
      <polygon points="36.111 42.528 30.13 42.528 36 19.286 36.111 24.224 36.111 42.528" fill="#d0cfce"/>
      <polygon points="40.931 42.528 36.111 42.528 36.075 20.881 37.143 25.528 40.931 42.528" fill="#9b9b9a"/>
    </g>
    <polygon points="36.178 48.012 28.583 48.012 28.005 43.899 36.178 43.887 36.178 48.012" fill="#d0cfce"/>
    <polygon points="43.031 48.012 36.178 48.012 36.178 43.935 44.04 43.935 43.031 48.012" fill="#9b9b9a"/>
  </g>
  <g id="line">
    <polygon points="27.44 43.224 44.56 43.224 43.519 48.724 28.385 48.724 27.44 43.224" fill="none" stroke="#000" stroke-linecap="round" stroke-linejoin="round" stroke-width="2"/>
    <rect x="5.0191" y="62.5276" width="61.9618" height="4.5" fill="none" stroke="#000" stroke-linecap="round" stroke-linejoin="round" stroke-width="2"/>
    <path d="m29.7858,62.0276c0-5.314,2.8457-9.6218,6.3561-9.6218s6.356,4.3078,6.356,9.6218" fill="none" stroke="#000" stroke-miterlimit="10" stroke-width="2"/>
    <path d="m42.8775,49.5279c.6227,2.1202,1.6518,4.0992,3.03,5.8265,2.2713,2.8001,5.1207,5.0764,8.3533,6.6732" fill="none" stroke="#000" stroke-linecap="round" stroke-linejoin="round" stroke-width="2"/>
    <path d="m28.832,49.353c-.5946,2.5522-1.7431,4.9424-3.3641,7.0014-2.0406,2.4812-4.691,4.3894-7.6913,5.5376" fill="none" stroke="#000" stroke-linecap="round" stroke-linejoin="round" stroke-width="2"/>
    <path d="m31.14,42.594c2.2115-8.4604,3.7113-17.091,4.4836-25.8015.2378-2.6899.4028-5.309.4949-7.8574" fill="none" stroke="#000" stroke-linecap="round" stroke-linejoin="round" stroke-width="2"/>
    <path d="m41.0282,42.594c-2.2115-8.4604-3.7112-17.091-4.4835-25.8015-.2378-2.6899-.4028-5.309-.4949-7.8574" fill="none" stroke="#000" stroke-linecap="round" stroke-linejoin="round" stroke-width="2"/>
  </g>
</svg>