<svg id="emoji" viewBox="0 0 72 72" xmlns="http://www.w3.org/2000/svg">
  <g id="grid">
    <path fill="#b3b3b3" d="M68,4V68H4V4H68m4-4H0V72H72V0Z"/>
    <path fill="none" stroke="#00a5ff" stroke-miterlimit="10" stroke-width="0.1" d="M12.923,10.9583H59.0769A1.9231,1.9231,0,0,1,61,12.8814V59.0352a1.9231,1.9231,0,0,1-1.9231,1.9231H12.9231A1.9231,1.9231,0,0,1,11,59.0352V12.8813A1.923,1.923,0,0,1,12.923,10.9583Z"/>
    <rect x="16" y="4" rx="2.2537" width="40" height="64" fill="none" stroke="#00a5ff" stroke-miterlimit="10" stroke-width="0.1"/>
    <rect x="16" y="4" rx="2.2537" width="40" height="64" transform="rotate(90 36 36)" fill="none" stroke="#00a5ff" stroke-miterlimit="10" stroke-width="0.1"/>
    <circle cx="36" cy="36" r="29" fill="none" stroke="#00a5ff" stroke-miterlimit="10" stroke-width="0.1"/>
  </g>
  <g id="color">
    <rect x="12.0687" y="12.2354" width="48.3378" height="47.8639" fill="#61B2E4" stroke="none"/>
  </g>
  <g id="hair"/>
  <g id="skin"/>
  <g id="skin-shadow"/>
  <g id="line">
    <path fill="none" stroke="#000000" stroke-linecap="round" stroke-linejoin="round" stroke-miterlimit="10" stroke-width="2" d="M59.1766,59.9266l-45.9998,0.1466c-0.5523,0.0018-1.0014-0.4445-1.0032-0.9968L12.027,13.0766 c-0.0018-0.5523,0.4445-1.0014,0.9968-1.0032l45.9998-0.1466c0.5523-0.0018,1.0014,0.4445,1.0032,0.9968l0.1466,45.9998 C60.1752,59.4757,59.7289,59.9248,59.1766,59.9266z"/>
    <line x1="19.062" x2="36.0365" y1="27.0479" y2="18.0001" fill="none" stroke="#000000" stroke-linecap="round" stroke-linejoin="round" stroke-miterlimit="10" stroke-width="2"/>
    <line x1="53.0619" x2="36.0365" y1="26.9522" y2="18.0001" fill="none" stroke="#000000" stroke-linecap="round" stroke-linejoin="round" stroke-miterlimit="10" stroke-width="2"/>
    <path fill="none" stroke="#000000" stroke-linecap="round" stroke-linejoin="round" stroke-miterlimit="10" stroke-width="2" d="M30.0226,53.0078v-22h8.3889c3.0263,0,5.4793,2.4533,5.4793,5.4796l0,0c0,3.0263-2.453,5.4793-5.4793,5.4793h-8.3889"/>
  </g>
</svg>
