<svg id="emoji" viewBox="0 0 72 72" xmlns="http://www.w3.org/2000/svg">
  <g id="grid">
    <path fill="#b3b3b3" d="M68,4V68H4V4H68m4-4H0V72H72V0Z"/>
    <path fill="none" stroke="#00a5ff" stroke-miterlimit="10" stroke-width="0.1" d="M12.923,10.9583H59.0769A1.9231,1.9231,0,0,1,61,12.8814V59.0352a1.9231,1.9231,0,0,1-1.9231,1.9231H12.9231A1.9231,1.9231,0,0,1,11,59.0352V12.8813A1.923,1.923,0,0,1,12.923,10.9583Z"/>
    <rect x="16" y="4" rx="2.2537" width="40" height="64" fill="none" stroke="#00a5ff" stroke-miterlimit="10" stroke-width="0.1"/>
    <rect x="16" y="4" rx="2.2537" width="40" height="64" transform="translate(72) rotate(90)" fill="none" stroke="#00a5ff" stroke-miterlimit="10" stroke-width="0.1"/>
    <circle cx="36" cy="36" r="29" fill="none" stroke="#00a5ff" stroke-miterlimit="10" stroke-width="0.1"/>
  </g>
  <g id="color">
    <rect x="4" y="4" width="64" height="64" fill="#92d3f5"/>
    <path fill="#61b2e4" d="M9.5508,36.7741l-.5426.8373a6.0547,6.0547,0,0,0-.2276,6.2048l4.3152,7.8676a6.0545,6.0545,0,0,0,1.68,1.9353L20.37,57.8069a6.0555,6.0555,0,0,0,3.4784,1.2059l16.9841.4217a6.0541,6.0541,0,0,0,1.8789-.25l11.4443-3.4089a6.055,6.055,0,0,0,3.5273-2.7967l5.3387-9.3336a6.055,6.055,0,0,0-1.6049-7.8367h0"/>
    <polygon fill="#fff" points="19.705 25.833 9.551 32.48 13.726 40.833 21.917 46.965 41.627 46.965 54.854 42.387 61.417 30.808 48.417 22.833 30.167 28.583 19.705 25.833"/>
    <polyline fill="#fff" points="9.551 32.48 9.551 39.48 13.726 47.833 21.917 53.965 41.627 53.965 54.854 49.387 61.417 37.808 61.417 30.808"/>
    <polyline fill="#fff" points="32.917 53.965 34.042 50.958 32.542 49.583 33.604 46.965"/>
    <path fill="#fff" d="M30.1667,28.5833l4.1874,5.3125-3.1874,3.6875,1.0937,3.25-1.7813,2.125a32.0259,32.0259,0,0,0,1.125,4.0065"/>
  </g>
  <g id="line">
    <polygon fill="none" stroke="#000" stroke-linecap="round" stroke-linejoin="round" stroke-width="2" points="19.705 25.833 9.551 32.48 13.726 40.833 21.917 46.965 41.627 46.965 54.854 42.387 61.417 30.808 48.417 22.833 30.167 28.583 19.705 25.833"/>
    <polyline fill="none" stroke="#000" stroke-linecap="round" stroke-linejoin="round" stroke-width="2" points="9.551 32.48 9.551 39.48 13.726 47.833 21.917 53.965 41.627 53.965 54.854 49.387 61.417 37.808 61.417 30.808"/>
  </g>
</svg>
