<svg id="emoji" viewBox="0 0 72 72" xmlns="http://www.w3.org/2000/svg">
  <g id="grid">
    <path fill="#b3b3b3" d="M68,4V68H4V4H68m4-4H0V72H72V0Z"/>
    <path fill="none" stroke="#00a5ff" stroke-miterlimit="10" stroke-width="0.1" d="M12.923,10.9583H59.0769A1.9231,1.9231,0,0,1,61,12.8814V59.0352a1.9231,1.9231,0,0,1-1.9231,1.9231H12.9231A1.9231,1.9231,0,0,1,11,59.0352V12.8813A1.923,1.923,0,0,1,12.923,10.9583Z"/>
    <rect x="16" y="4" rx="2.2537" width="40" height="64" fill="none" stroke="#00a5ff" stroke-miterlimit="10" stroke-width="0.1"/>
    <rect x="16" y="4" rx="2.2537" width="40" height="64" transform="translate(72) rotate(90)" fill="none" stroke="#00a5ff" stroke-miterlimit="10" stroke-width="0.1"/>
    <circle cx="36" cy="36" r="29" fill="none" stroke="#00a5ff" stroke-miterlimit="10" stroke-width="0.1"/>
  </g>
  <g id="color">
    <rect x="4" y="4" width="64" height="64" fill="#92d3f5"/>
    <path fill="#61b2e4" d="M9.8841,36.7741l-.5426.8373a6.0551,6.0551,0,0,0-.2276,6.2048l4.3153,7.8676a6.0542,6.0542,0,0,0,1.68,1.9353l5.5939,4.1878a6.0555,6.0555,0,0,0,3.4784,1.2059l16.9842.4217a6.0538,6.0538,0,0,0,1.8788-.25l11.4443-3.4089a6.0552,6.0552,0,0,0,3.5274-2.7967l5.3386-9.3336A6.0549,6.0549,0,0,0,61.75,35.8085h0"/>
    <polygon fill="#fff" points="20.039 25.833 9.884 32.48 14.06 40.833 22.25 46.965 41.96 46.965 55.187 42.387 61.75 30.808 48.75 22.833 30.5 28.583 20.039 25.833"/>
    <polyline fill="#fff" points="9.884 32.48 9.884 39.48 14.06 47.833 22.25 53.965 41.96 53.965 55.187 49.387 61.75 37.808 61.75 30.808"/>
    <polyline fill="#fff" points="33.25 53.965 34.375 50.958 32.875 49.583 33.937 46.965"/>
    <path fill="#fff" d="M30.5,28.5833l4.1875,5.3125L31.5,37.5833l1.0938,3.25-1.7813,2.125a32.0088,32.0088,0,0,0,1.125,4.0065"/>
  </g>
  <g id="line">
    <polygon fill="none" stroke="#000" stroke-linecap="round" stroke-linejoin="round" stroke-width="2" points="20.039 25.833 9.884 32.48 14.06 40.833 22.25 46.965 41.96 46.965 55.187 42.387 61.75 30.808 48.75 22.833 30.5 28.583 20.039 25.833"/>
    <polyline fill="none" stroke="#000" stroke-linecap="round" stroke-linejoin="round" stroke-width="2" points="9.884 32.48 9.884 39.48 14.06 47.833 22.25 53.965 41.96 53.965 55.187 49.387 61.75 37.808 61.75 30.808"/>
    <polyline fill="none" stroke="#000" stroke-linecap="round" stroke-linejoin="round" stroke-width="2" points="33.25 53.965 34.375 50.958 32.875 49.583 33.937 46.965"/>
    <path fill="none" stroke="#000" stroke-linecap="round" stroke-linejoin="round" stroke-width="2" d="M30.5,28.5833l4.1875,5.3125L31.5,37.5833l1.0938,3.25-1.7813,2.125a32.0088,32.0088,0,0,0,1.125,4.0065"/>
  </g>
</svg>
