<svg id="emoji" viewBox="0 0 72 72" xmlns="http://www.w3.org/2000/svg">
  <g id="grid">
    <path fill="#b3b3b3" d="M68,4V68H4V4H68m4-4H0V72H72V0Z"/>
    <path fill="none" stroke="#00a5ff" stroke-miterlimit="10" stroke-width="0.1" d="M12.923,10.9583H59.0769A1.9231,1.9231,0,0,1,61,12.8814V59.0352a1.9231,1.9231,0,0,1-1.9231,1.9231H12.9231A1.9231,1.9231,0,0,1,11,59.0352V12.8813A1.923,1.923,0,0,1,12.923,10.9583Z"/>
    <rect x="16" y="4" rx="2.2537" width="40" height="64" fill="none" stroke="#00a5ff" stroke-miterlimit="10" stroke-width="0.1"/>
    <rect x="16" y="4" rx="2.2537" width="40" height="64" transform="translate(72) rotate(90)" fill="none" stroke="#00a5ff" stroke-miterlimit="10" stroke-width="0.1"/>
    <circle cx="36" cy="36" r="29" fill="none" stroke="#00a5ff" stroke-miterlimit="10" stroke-width="0.1"/>
  </g>
  <g id="color">
    <path fill="#fff" d="M27.002,33.6525l-1.17.6371L22.54,36.0818a10.1613,10.1613,0,1,0,9.7169,17.849l18.4865-10.064A13.79,13.79,0,1,0,30.7086,28.7262,7.3584,7.3584,0,0,1,27.002,33.6525Z"/>
    <path fill="#ea5a47" d="M30.3026,35.1613c1.5936-.8676,2.38-2.4641,3.0519-4.7411,1.0033-3.399,2.3861-6.4832,5.59-8.2272a10.8871,10.8871,0,1,1,10.411,19.1239L30.8686,51.3809a7.2581,7.2581,0,1,1-6.9407-12.7493l-.3186-.6327,6.3837-3.5011Z"/>
    <circle cx="44.1496" cy="31.755" r="3.629" fill="#fff"/>
    <path fill="#d0cfce" d="M33.68,43.5638s-2.2178-2.102-4.2685-4.1527c-1.538-1.538-2.0367-2.971-1.7578-4.0236h0L12.8766,20.64a1.4692,1.4692,0,0,1,2.0778-2.0778l14.3377,15.18h0c1.0533-.2837,2.49.2136,4.0319,1.7557,2.0507,2.0507,4.1526,4.2685,4.1526,4.2685"/>
  </g>
  <g id="line">
    <g id="line-2">
      <path fill="none" stroke="#000" stroke-linecap="round" stroke-linejoin="round" stroke-width="2" d="M31.7786,33.8967A10.4378,10.4378,0,0,0,33.3545,30.42c1.0033-3.399,2.3861-6.4832,5.59-8.2272a10.8871,10.8871,0,1,1,10.411,19.1239L30.8686,51.3809a7.2581,7.2581,0,1,1-6.9407-12.7493"/>
      <path fill="none" stroke="#000" stroke-linecap="round" stroke-linejoin="round" stroke-width="2" d="M25.8317,34.29,22.54,36.0818a10.1613,10.1613,0,1,0,9.7169,17.849l18.4865-10.064A13.79,13.79,0,1,0,30.7086,28.7262a7.2546,7.2546,0,0,1-2.1611,3.811"/>
      <circle cx="44.1496" cy="31.755" r="3.629" fill="none" stroke="#000" stroke-linecap="round" stroke-linejoin="round" stroke-width="2"/>
    </g>
    <path fill="none" stroke="#000" stroke-linecap="round" stroke-linejoin="round" stroke-width="2" d="M33.68,43.5638s-2.2178-2.102-4.2685-4.1527c-1.538-1.538-2.0367-2.971-1.7578-4.0236h0L12.8766,20.64a1.4692,1.4692,0,0,1,2.0778-2.0778l14.3377,15.18h0c1.0533-.2837,2.49.2136,4.0319,1.7557,2.0507,2.0507,4.1526,4.2685,4.1526,4.2685"/>
    <line x1="35.5782" x2="30.5993" y1="41.6652" y2="36.6863" fill="none" stroke="#000" stroke-linecap="round" stroke-linejoin="round" stroke-width="2"/>
  </g>
</svg>
