<svg id="emoji" viewBox="0 0 72 72" xmlns="http://www.w3.org/2000/svg">
  <g id="grid">
    <path fill="#b3b3b3" d="M68,4V68H4V4H68m4-4H0V72H72V0Z"/>
    <path fill="none" stroke="#00a5ff" stroke-miterlimit="10" stroke-width="0.1" d="M12.923,10.9583H59.0769A1.9231,1.9231,0,0,1,61,12.8814V59.0352a1.9231,1.9231,0,0,1-1.9231,1.9231H12.9231A1.9231,1.9231,0,0,1,11,59.0352V12.8813A1.923,1.923,0,0,1,12.923,10.9583Z"/>
    <rect x="16" y="4" rx="2.2537" width="40" height="64" fill="none" stroke="#00a5ff" stroke-miterlimit="10" stroke-width="0.1"/>
    <rect x="16" y="4" rx="2.2537" width="40" height="64" transform="translate(72) rotate(90)" fill="none" stroke="#00a5ff" stroke-miterlimit="10" stroke-width="0.1"/>
    <circle cx="36" cy="36" r="29" fill="none" stroke="#00a5ff" stroke-miterlimit="10" stroke-width="0.1"/>
  </g>
  <g id="color">
    <path fill="#3f3f3f" d="M50.8135,46.1653l-.83-.4526a.6613.6613,0,0,1-.3772-.7544c.2263-1.4334.3772-6.4123-7.3175-8.6755a.9575.9575,0,0,0-.4527-.0754L27.05,36.2828a1.5209,1.5209,0,0,0-.83.2264l-7.77,5.2052a1.0717,1.0717,0,0,1-.4527.1509,19.9183,19.9183,0,0,0-4.2245.3018c-4.0737.83-5.7334,3.0175-6.3369,4.1491a1.3606,1.3606,0,0,0-.1508.7544c.0754,1.8105-1.1316,3.8473.6789,5.507L22.6,52.5021l15.3895-.3772,12.1456-.1508a3.8323,3.8323,0,0,0,2.1123-1.66C53.5293,48.2776,50.9644,46.2407,50.8135,46.1653Z"/>
    <path fill="#9b9b9a" d="M14.98,47.9758a3.0176,3.0176,0,1,0,3.0175,3.0176A3.0264,3.0264,0,0,0,14.98,47.9758Z"/>
    <path fill="#9b9b9a" d="M45.0047,47.9758a3.0176,3.0176,0,1,0,3.0176,3.0176A3.0264,3.0264,0,0,0,45.0047,47.9758Z"/>
    <path fill="#92d3f5" d="M44.25,42.62V39.3758a1.322,1.322,0,0,0-1.2825-1.2824H26.9749c-.0754,0-.1509,0-.1509.0754l-6.035,4.3c-.1509.0754-.1509.3018-.0755.4526.0755.0755.1509.1509.2263.1509,4.2246,0,20.5193-.1509,22.9334-.0754A.3564.3564,0,0,0,44.25,42.62Z"/>
    <polygon fill="#fcea2b" points="8.643 43.525 11.661 44.732 10.077 46.92 6.305 46.995 8.643 43.525"/>
    <g id="color-2">
      <path fill="#d0cfce" d="M45.8282,22.1172a.3662.3662,0,0,1-.3254.328c-2.0817.223-3.6828,2.2727-3.6828,4.7677C41.82,29.8567,43.6535,32,45.9153,32h15.613a4.8038,4.8038,0,0,0,4.4993-5.059,4.8518,4.8518,0,0,0-4.1912-5.0473.39.39,0,0,1-.3586-.3144A5.91,5.91,0,0,0,51.112,19.05a.3772.3772,0,0,1-.4353.1254,3.3842,3.3842,0,0,0-1.3362-.2568A3.5189,3.5189,0,0,0,45.8282,22.1172Z"/>
    </g>
  </g>
  <g id="line">
    <g>
      <line x1="37.8381" x2="22.2977" y1="51.446" y2="51.7478" fill="none" stroke="#000" stroke-linecap="round" stroke-linejoin="round" stroke-width="2"/>
      <path fill="none" stroke="#000" stroke-linecap="round" stroke-linejoin="round" stroke-width="2" d="M8.04,51.7478c-.6789-.1509-1.2824-.3772-1.3579-.7544-.0754-.7544-.2263-2.8667-.2263-3.8474a1.9648,1.9648,0,0,1,.3018-1.1316c.83-1.5088,3.621-5.13,11.24-4.8281l7.77-5.2052a2.5045,2.5045,0,0,1,1.207-.3772l14.786-.0754a2.0893,2.0893,0,0,1,.6789.0754c1.66.4526,8.8263,3.0175,7.8456,9.5053l.83.4526a1.3,1.3,0,0,1,.7544.9052,5.31,5.31,0,0,1-.1509,3.2439"/>
      <polyline fill="none" stroke="#000" stroke-linecap="round" stroke-linejoin="round" stroke-width="2" points="20.714 43.072 43.496 42.921 43.496 39.088"/>
      <circle cx="14.9802" cy="50.9934" r="3.7719" fill="none" stroke="#000" stroke-linecap="round" stroke-linejoin="round" stroke-width="2"/>
      <circle cx="45.0047" cy="50.9934" r="3.7719" fill="none" stroke="#000" stroke-linecap="round" stroke-linejoin="round" stroke-width="2"/>
      <polyline fill="none" stroke="#000" stroke-linecap="round" stroke-linejoin="round" stroke-width="2" points="11.208 45.335 9.85 46.995 7.059 46.92"/>
    </g>
    <g id="line-2">
      <path fill="none" stroke="#000" stroke-linecap="round" stroke-linejoin="round" stroke-width="2" d="M45.8282,21.3527a.3652.3652,0,0,1-.3239.3278c-2.0824.2222-3.6843,2.2723-3.6843,4.7679,0,2.6438,1.8335,4.7871,4.0953,4.7871h15.613a4.8038,4.8038,0,0,0,4.4993-5.059,4.8516,4.8516,0,0,0-4.1926-5.0474.3889.3889,0,0,1-.3572-.3145,5.91,5.91,0,0,0-10.3669-2.528.3739.3739,0,0,1-.4319.125,3.3842,3.3842,0,0,0-1.3384-.2578A3.5189,3.5189,0,0,0,45.8282,21.3527Z"/>
    </g>
  </g>
</svg>
