<svg id="emoji" viewBox="0 0 72 72" xmlns="http://www.w3.org/2000/svg">
  <g id="grid">
    <path fill="#b3b3b3" d="M68,4V68H4V4H68m4-4H0V72H72V0Z"/>
    <path fill="none" stroke="#00a5ff" stroke-miterlimit="10" stroke-width="0.1" d="M12.923,10.9583H59.0769A1.9231,1.9231,0,0,1,61,12.8814V59.0352a1.9231,1.9231,0,0,1-1.9231,1.9231H12.9231A1.9231,1.9231,0,0,1,11,59.0352V12.8813A1.923,1.923,0,0,1,12.923,10.9583Z"/>
    <rect x="16" y="4" rx="2.2537" width="40" height="64" fill="none" stroke="#00a5ff" stroke-miterlimit="10" stroke-width="0.1"/>
    <rect x="16" y="4" rx="2.2537" width="40" height="64" transform="translate(72) rotate(90)" fill="none" stroke="#00a5ff" stroke-miterlimit="10" stroke-width="0.1"/>
    <circle cx="36" cy="36" r="29" fill="none" stroke="#00a5ff" stroke-miterlimit="10" stroke-width="0.1"/>
  </g>
  <g id="color">
    <path fill="#d0cfce" d="M36.096,36.3716a4.9892,4.9892,0,0,1-2.8267-.8749L31.08,63.9608H41.1122l-2.19-28.4641A4.9891,4.9891,0,0,1,36.096,36.3716Z"/>
    <path fill="#92d3f5" d="M31.08,28.8473a5.0436,5.0436,0,0,1,.1038-1.0173,3.1649,3.1649,0,0,0-2.3515-.5655,6.3191,6.3191,0,0,0-1.9.7656,86.1112,86.1112,0,0,0-8.0476,4.8159,11.603,11.603,0,0,0-2.1754,1.8048,2.4355,2.4355,0,0,0-.7079,1.4544,1.1118,1.1118,0,0,0,.9119,1.18,1.68,1.68,0,0,0,.6109-.1123l14.8655-4.6967a.48.48,0,0,0,.157-.085A5,5,0,0,1,31.08,28.8473Z"/>
    <path fill="#92d3f5" d="M32.3667,24.4379a.483.483,0,0,0,.05.1818.8389.8389,0,0,0,.5144.3652,4.7947,4.7947,0,0,1,4.5117-.9476,3.1448,3.1448,0,0,0,.8038-1.8876,6.3165,6.3165,0,0,0-.3167-2.0241,86.13,86.13,0,0,0-2.8739-8.9274,11.6,11.6,0,0,0-1.2669-2.5268,2.4359,2.4359,0,0,0-1.2569-1.018,1.1119,1.1119,0,0,0-1.3551.6219,1.6808,1.6808,0,0,0-.0286.6206Q31.7577,16.667,32.3667,24.4379Z"/>
    <path fill="#92d3f5" d="M56.6074,29.7271a1.6829,1.6829,0,0,0-.5863-.2051l-15.24-3.284a.4843.4843,0,0,0-.1885-.0041.5714.5714,0,0,0-.1842.09,4.916,4.916,0,0,1-.2553,5.4519,3.0885,3.0885,0,0,0,1.1365.7509,6.3178,6.3178,0,0,0,2.03.2763,86.11,86.11,0,0,0,9.3765-.1969,11.6024,11.6024,0,0,0,2.7837-.49,2.4356,2.4356,0,0,0,1.3354-.9128A1.1118,1.1118,0,0,0,56.6074,29.7271Z"/>
    <circle cx="35.9461" cy="28.9461" r="1.3528" fill="#d0cfce"/>
  </g>
  <g id="line">
    <path fill="none" stroke="#000" stroke-linecap="round" stroke-linejoin="round" stroke-width="2" d="M36.096,36.3716a4.9892,4.9892,0,0,1-2.8267-.8749L31.08,63.9608H41.1122l-2.19-28.4641A4.9891,4.9891,0,0,1,36.096,36.3716Z"/>
    <path fill="none" stroke="#000" stroke-linecap="round" stroke-linejoin="round" stroke-width="2" d="M32.3667,24.4379a.483.483,0,0,0,.05.1818.8389.8389,0,0,0,.5144.3652,4.7947,4.7947,0,0,1,4.5117-.9476,3.1448,3.1448,0,0,0,.8038-1.8876,6.3165,6.3165,0,0,0-.3167-2.0241,86.13,86.13,0,0,0-2.8739-8.9274,11.6,11.6,0,0,0-1.2669-2.5268,2.4359,2.4359,0,0,0-1.2569-1.018,1.1119,1.1119,0,0,0-1.3551.6219,1.6808,1.6808,0,0,0-.0286.6206Q31.7577,16.667,32.3667,24.4379Z"/>
    <path fill="none" stroke="#000" stroke-linecap="round" stroke-linejoin="round" stroke-width="2" d="M31.08,28.8473a5.0436,5.0436,0,0,1,.1038-1.0173,3.1649,3.1649,0,0,0-2.3515-.5655,6.3191,6.3191,0,0,0-1.9.7656,86.1112,86.1112,0,0,0-8.0476,4.8159,11.603,11.603,0,0,0-2.1754,1.8048,2.4355,2.4355,0,0,0-.7079,1.4544,1.1118,1.1118,0,0,0,.9119,1.18,1.68,1.68,0,0,0,.6109-.1123l14.8655-4.6967a.48.48,0,0,0,.157-.085A5,5,0,0,1,31.08,28.8473Z"/>
    <path fill="none" stroke="#000" stroke-linecap="round" stroke-linejoin="round" stroke-width="2" d="M56.6074,29.7271a1.6829,1.6829,0,0,0-.5863-.2051l-15.24-3.284a.4843.4843,0,0,0-.1885-.0041.5714.5714,0,0,0-.1842.09,4.916,4.916,0,0,1-.2553,5.4519,3.0885,3.0885,0,0,0,1.1365.7509,6.3178,6.3178,0,0,0,2.03.2763,86.11,86.11,0,0,0,9.3765-.1969,11.6024,11.6024,0,0,0,2.7837-.49,2.4356,2.4356,0,0,0,1.3354-.9128A1.1118,1.1118,0,0,0,56.6074,29.7271Z"/>
    <circle cx="36.2966" cy="29.2966" r="1.7034" fill="none" stroke="#000" stroke-linecap="round" stroke-linejoin="round" stroke-width="2"/>
  </g>
</svg>
