<svg id="emoji" viewBox="0 0 72 72" xmlns="http://www.w3.org/2000/svg">
  <g id="grid">
    <path fill="#B3B3B3" d="M68 4V68H4V4H68ZM72 0H0V72H72V0Z"/>
    <path fill="none" stroke="#00A5FF" stroke-miterlimit="10" stroke-width="0.1" d="M12.923 10.9583H59.0769C59.5869 10.9583 60.0761 11.1609 60.4367 11.5216C60.7974 11.8822 61 12.3714 61 12.8814V59.0352C61 59.5452 60.7974 60.0344 60.4367 60.395C60.0761 60.7557 59.5869 60.9583 59.0769 60.9583H12.9231C12.4131 60.9583 11.9239 60.7557 11.5633 60.395C11.2026 60.0344 11 59.5452 11 59.0352V12.8813C11 12.3713 11.2026 11.8822 11.5632 11.5215C11.9239 11.1609 12.413 10.9583 12.923 10.9583V10.9583Z"/>
    <path fill="none" stroke="#00A5FF" stroke-miterlimit="10" stroke-width="0.1" d="M53.7463 4H18.2537C17.009 4 16 5.00902 16 6.2537V65.7463C16 66.991 17.009 68 18.2537 68H53.7463C54.991 68 56 66.991 56 65.7463V6.2537C56 5.00902 54.991 4 53.7463 4Z"/>
    <path fill="none" stroke="#00A5FF" stroke-miterlimit="10" stroke-width="0.1" d="M68 53.7463V18.2537C68 17.009 66.991 16 65.7463 16L6.2537 16C5.00902 16 4 17.009 4 18.2537V53.7463C4 54.991 5.00902 56 6.2537 56L65.7463 56C66.991 56 68 54.991 68 53.7463Z"/>
    <path fill="none" stroke="#00A5FF" stroke-miterlimit="10" stroke-width="0.1" d="M36 65C52.0163 65 65 52.0163 65 36C65 19.9837 52.0163 7 36 7C19.9837 7 7 19.9837 7 36C7 52.0163 19.9837 65 36 65Z"/>
  </g>
  <g id="line-supplement">
    <rect x="19" y="30" rx="5" width="34" height="26" fill="none" stroke="#000" stroke-width="2"/>
  </g>
  <g id="color">
    <path fill="#fff" fill-rule="evenodd" d="M19 19C18.4477 19 18 19.4477 18 20V22.5C18 23.8836 17.7705 24.8394 17.4571 25.564C17.1415 26.2941 16.7182 26.8447 16.2351 27.4184C16.1702 27.4954 16.1029 27.5742 16.0339 27.6551L16.0337 27.6553C15.6101 28.1515 15.1237 28.7214 14.7494 29.3997C14.2913 30.2301 14 31.2092 14 32.5V51C14 56.5228 18.4772 61 24 61H36H48C53.5228 61 58 56.5228 58 51V32.5C58 31.2092 57.7087 30.2301 57.2506 29.3997C56.8763 28.7214 56.3899 28.1515 55.9663 27.6553C55.8973 27.5744 55.8299 27.4955 55.7649 27.4184C55.2818 26.8447 54.8585 26.2941 54.5429 25.564C54.2295 24.8394 54 23.8836 54 22.5V20C54 19.4477 53.5523 19 53 19H36H19Z" clip-rule="evenodd"/>
    <path fill="#E27022" fill-rule="evenodd" d="M24 29H48C51.3137 29 54 31.6863 54 35V51C54 54.3137 51.3137 57 48 57H24C20.6863 57 18 54.3137 18 51V35C18 31.6863 20.6863 29 24 29Z" clip-rule="evenodd"/>
    <path fill="#F4AA41" fill-rule="evenodd" d="M24 57H41C44.3137 57 47 54.3137 47 51V35C47 31.6863 44.3137 29 41 29H24C20.6863 29 18 31.6863 18 35V51C18 54.3137 20.6863 57 24 57Z" clip-rule="evenodd"/>
    <path fill="none" stroke="#fff" stroke-linecap="round" stroke-linejoin="round" stroke-width="2" d="M24 51C24 51 24 37.2456 24 32.8246C24 28.4035 26 28.8947 26 23"/>
    <path fill="#D0CFCE" d="M54 12H18C17.4477 12 17 12.4477 17 13V19C17 19.5523 17.4477 20 18 20H53.5H54C54.5523 20 55 19.5523 55 19V13C55 12.4477 54.5523 12 54 12Z"/>
  </g>
  <g id="line">
    <path fill="none" stroke="#000" stroke-linecap="round" stroke-linejoin="round" stroke-width="2" d="M36 60H48C52.9706 60 57 55.9706 57 51C57 51 57 37 57 32.5C57 28 53 28.5 53 22.5"/>
    <path fill="none" stroke="#000" stroke-linecap="round" stroke-linejoin="round" stroke-width="2" d="M36 60H24C19.0294 60 15 55.9706 15 51C15 51 15 37 15 32.5C15 28 19 28.5 19 22.5"/>
    <path fill="none" stroke="#000" stroke-linecap="round" stroke-linejoin="round" stroke-width="2" d="M54 12H18C17.4477 12 17 12.4477 17 13V19C17 19.5523 17.4477 20 18 20H53.5H54C54.5523 20 55 19.5523 55 19V13C55 12.4477 54.5523 12 54 12Z"/>
  </g>
</svg>
