<svg id="emoji" viewBox="0 0 72 72" xmlns="http://www.w3.org/2000/svg">
  <g id="grid">
    <path fill="#b3b3b3" d="M68,4V68H4V4H68m4-4H0V72H72V0Z"/>
    <path fill="none" stroke="#00a5ff" stroke-miterlimit="10" stroke-width="0.1" d="M12.923,10.9583H59.0769A1.9231,1.9231,0,0,1,61,12.8814V59.0352a1.9231,1.9231,0,0,1-1.9231,1.9231H12.9231A1.9231,1.9231,0,0,1,11,59.0352V12.8813A1.923,1.923,0,0,1,12.923,10.9583Z"/>
    <rect x="16" y="4" rx="2.2537" width="40" height="64" fill="none" stroke="#00a5ff" stroke-miterlimit="10" stroke-width="0.1"/>
    <rect x="16" y="4" rx="2.2537" width="40" height="64" transform="rotate(90 36 36)" fill="none" stroke="#00a5ff" stroke-miterlimit="10" stroke-width="0.1"/>
    <circle cx="36" cy="36" r="29" fill="none" stroke="#00a5ff" stroke-miterlimit="10" stroke-width="0.1"/>
  </g>
  <g id="color">
    <ellipse cx="36" cy="43" rx="15" ry="11" fill="#FCEA2B" stroke="#FCEA2B" stroke-miterlimit="10" stroke-width="1.8"/>
    <path fill="#FCEA2B" stroke="none" d="M42.25,36c2,9,9,9,9,9c2-6-6-11-6-11c7-6,1-10,1-10c0-10-10.375-11-10.375-11C25.5,15,26.25,24,26.25,24 c-6,4,0.625,9.75,0.625,9.75S19.25,38,21.25,45c0,0,8,0,8-9"/>
    <path fill="#F1B31C" stroke="none" d="M36.6219,26.6032c0,0,5.9251-0.2907,0,5.2324C36.6219,31.8356,30.6968,26.6032,36.6219,26.6032z"/>
  </g>
  <g id="hair"/>
  <g id="skin"/>
  <g id="skin-shadow"/>
  <g id="line">
    <path fill="none" stroke="#000000" stroke-linecap="round" stroke-linejoin="round" stroke-miterlimit="10" stroke-width="2" d="M23,49c0,0,4.7974,5.0246,13.48,5.0122C45,54,49,49,49,49"/>
    <line x1="33.625" x2="31.125" y1="13.5" y2="11.625" fill="none" stroke="#000000" stroke-linecap="round" stroke-linejoin="round" stroke-miterlimit="10" stroke-width="2"/>
    <line x1="35.125" x2="34.125" y1="12.875" y2="10.75" fill="none" stroke="#000000" stroke-linecap="round" stroke-linejoin="round" stroke-miterlimit="10" stroke-width="2"/>
    <line x1="37.125" x2="37.25" y1="13.25" y2="10" fill="none" stroke="#000000" stroke-linecap="round" stroke-linejoin="round" stroke-miterlimit="10" stroke-width="2"/>
    <polyline fill="none" stroke="#000000" stroke-linecap="round" stroke-linejoin="round" stroke-miterlimit="10" stroke-width="2" points="31.3458,53.7306 30.375,58.25 27.25,60"/>
    <line x1="33.25" x2="30.25" y1="59" y2="58" fill="none" stroke="#000000" stroke-linecap="round" stroke-linejoin="round" stroke-miterlimit="10" stroke-width="2"/>
    <polyline fill="none" stroke="#000000" stroke-linecap="round" stroke-linejoin="round" stroke-miterlimit="10" stroke-width="2" points="40.1542,53.7306 41.125,58.25 44.25,60"/>
    <line x1="38.25" x2="41.25" y1="59" y2="58" fill="none" stroke="#000000" stroke-linecap="round" stroke-linejoin="round" stroke-miterlimit="10" stroke-width="2"/>
    <circle cx="32.25" cy="23" r="2" fill="#000000" stroke="none"/>
    <circle cx="40.25" cy="23" r="2" fill="#000000" stroke="none"/>
    <path fill="none" stroke="#000000" stroke-linecap="round" stroke-linejoin="round" stroke-miterlimit="10" stroke-width="2" d="M36.3719,26.6032c0,0,5.9132-0.2907,0,5.2324C36.3719,31.8356,30.4587,26.6032,36.3719,26.6032z"/>
    <path fill="none" stroke="#000000" stroke-linecap="round" stroke-linejoin="round" stroke-miterlimit="10" stroke-width="2" d="M42,36c2,9,9,9,9,9c2-6-6-11-6-11c7-6,1-10,1-10c0-10-10.375-11-10.375-11C25.25,15,26,24,26,24c-6,4,0.625,9.75,0.625,9.75 S19,38,21,45c0,0,8,0,8-9"/>
  </g>
</svg>
