<svg id="emoji" viewBox="0 0 72 72" xmlns="http://www.w3.org/2000/svg">
  <g id="grid">
    <path fill="#b3b3b3" d="M68,4V68H4V4H68m4-4H0V72H72V0Z"/>
    <path fill="none" stroke="#00a5ff" stroke-miterlimit="10" stroke-width="0.1" d="M12.923,10.9583H59.0769A1.9231,1.9231,0,0,1,61,12.8814V59.0352a1.9231,1.9231,0,0,1-1.9231,1.9231H12.9231A1.9231,1.9231,0,0,1,11,59.0352V12.8813A1.923,1.923,0,0,1,12.923,10.9583Z"/>
    <rect x="16" y="4" rx="2.2537" width="40" height="64" fill="none" stroke="#00a5ff" stroke-miterlimit="10" stroke-width="0.1"/>
    <rect x="16" y="4" rx="2.2537" width="40" height="64" transform="translate(72) rotate(90)" fill="none" stroke="#00a5ff" stroke-miterlimit="10" stroke-width="0.1"/>
    <circle cx="36" cy="36" r="29" fill="none" stroke="#00a5ff" stroke-miterlimit="10" stroke-width="0.1"/>
  </g>
  <g id="color">
    <path fill="#9B9B9A" stroke="#9B9B9A" stroke-linecap="round" stroke-linejoin="round" stroke-miterlimit="10" stroke-width="1.8" d="M30,29l-3,2c-9.5,4.375-2,30-2,30s8.75-9.25,15.875-10.125S51.75,36.75,50,32l-2-4"/>
    <path fill="#9B9B9A" stroke="none" d="M30,30c0,0-6.5-5.5-0.25-14.75c0,0-0.75-3.25-2.75-3.25s5-3,6,1c0,0,7-3,11,0c0,0,5.25-3.5,7.125-1.75 C51.125,11.25,47,14,49,16s4,10-1,14"/>
    <path fill="#A57939" stroke="none" d="M40,30c0,0-10,0-10-7.875c0-8.7341,8.1907-4.7359,9-3.125c0,0,7-6,9.125,1.5C50.1834,27.7649,40,30,40,30z"/>
    <path fill="#A57939" stroke="none" d="M25.0192,59c0,0-0.8782-7,1.9027-9S40,40,37,35"/>
  </g>
  <g id="hair"/>
  <g id="skin"/>
  <g id="skin-shadow"/>
  <g id="line">
    <path fill="none" stroke="#000000" stroke-linecap="round" stroke-linejoin="round" stroke-miterlimit="10" stroke-width="1.5" d="M37,22c0,0,0.5-1.5-3-2"/>
    <path fill="none" stroke="#000000" stroke-linecap="round" stroke-linejoin="round" stroke-miterlimit="10" stroke-width="1.5" d="M41,22c0,0-0.5-1.5,3-2"/>
    <polyline fill="none" stroke="#000000" stroke-linecap="round" stroke-linejoin="round" stroke-miterlimit="10" stroke-width="1.5" points="37.625,25.43 39.375,27 41.375,25.3438"/>
    <path fill="none" stroke="#000000" stroke-linecap="round" stroke-linejoin="round" stroke-miterlimit="10" stroke-width="2" d="M38,60c0,0,1-4-5-3v-2.375"/>
    <path fill="none" stroke="#000000" stroke-linecap="round" stroke-linejoin="round" stroke-miterlimit="10" stroke-width="2" d="M43,57.375c0,0,1-4-5-3V52"/>
    <path fill="none" stroke="#000000" stroke-linecap="round" stroke-linejoin="round" stroke-miterlimit="10" stroke-width="2" d="M30,30c0,0-6.5-5.5-0.25-14.75c0,0-0.75-3.25-2.75-3.25s5-3,6,1c0,0,7-3,11,0c0,0,5.25-3.5,7.125-1.75C51.125,11.25,47,14,49,16 s4,10-1,14"/>
    <path fill="none" stroke="#000000" stroke-linecap="round" stroke-linejoin="round" stroke-miterlimit="10" stroke-width="2" d="M40,30c0,0-10,0-10-7.875c0-8.7341,8.1907-4.7359,9-3.125c0,0,7-6,9.125,1.5C50.1834,27.7649,40,30,40,30z"/>
    <path fill="none" stroke="#000000" stroke-linecap="round" stroke-linejoin="round" stroke-miterlimit="10" stroke-width="2" d="M27,31c-9.5,4.375-2,30-2,30s8.75-9.25,15.875-10.125S51.75,36.75,50,32"/>
    <path fill="none" stroke="#000000" stroke-linecap="round" stroke-linejoin="round" stroke-miterlimit="10" stroke-width="2" d="M25,59c0,0-0.75-7,1.625-9S37,41,36,35"/>
  </g>
</svg>
