<?xml version="1.0" encoding="utf-8"?>
<!-- Generator: Adobe Illustrator 22.0.1, SVG Export Plug-In . SVG Version: 6.00 Build 0)  -->
<svg version="1.1" id="emoji" xmlns="http://www.w3.org/2000/svg" xmlns:xlink="http://www.w3.org/1999/xlink" x="0px" y="0px"
	 viewBox="0 0 72 72" enable-background="new 0 0 72 72" xml:space="preserve">
<g id="grid">
	<path fill="#B3B3B3" d="M68,4v64H4V4H68 M72,0H0v72h72V0z"/>
	<path fill="none" stroke="#00A5FF" stroke-width="0.1" stroke-miterlimit="10" d="M12.9,11h46.2c1.1,0,1.9,0.9,1.9,1.9l0,0V59
		c0,1.1-0.9,1.9-1.9,1.9H12.9C11.9,61,11,60.1,11,59l0,0V12.9C11,11.8,11.9,11,12.9,11L12.9,11z"/>
	<path fill="none" stroke="#00A5FF" stroke-width="0.1" stroke-miterlimit="10" d="M18.3,4h35.5C55,4,56,5,56,6.3v59.5
		c0,1.2-1,2.3-2.3,2.3H18.3C17,68,16,67,16,65.7V6.3C16,5,17,4,18.3,4z"/>
	<path fill="none" stroke="#00A5FF" stroke-width="0.1" stroke-miterlimit="10" d="M68,18.3v35.5c0,1.2-1,2.3-2.3,2.3H6.3
		C5,56,4,55,4,53.7V18.3C4,17,5,16,6.3,16h59.5C67,16,68,17,68,18.3z"/>
	<circle fill="none" stroke="#00A5FF" stroke-width="0.1" stroke-miterlimit="10" cx="36" cy="36" r="29"/>
</g>
<g id="color">
	<path fill="#D0CFCE" d="M33.1,58h-3c-0.6,0-1-0.4-1-1V37c0-0.6,0.4-1,1-1h3c0.6,0,1,0.4,1,1v20C34.1,57.6,33.6,58,33.1,58z"/>
	<path fill="#9B9B9A" d="M38.4,35.4c1.7-2.9,0.7-6.5-2.2-8.2s-6.5-0.7-8.2,2.2s-0.7,6.5,2.2,8.2S36.7,38.3,38.4,35.4"/>
	
		<rect x="30.6033" y="10.0777" transform="matrix(0.5 -0.866 0.866 0.5 -6.5143 44.8714)" fill="#FFFFFF" width="9.9998" height="35.9992"/>
	
		<rect x="30.6019" y="10.0787" transform="matrix(0.5 -0.866 0.866 0.5 -6.5158 44.8707)" fill="#D0CFCE" width="9.9998" height="35.9992"/>
	<polygon fill="#9B9B9A" points="42.1,37.6 42.1,37.6 22.5,14.8 17.5,23.4 	"/>
</g>
<g id="hair">
</g>
<g id="skin">
</g>
<g id="skin-shadow">
</g>
<g id="line">
	
		<line fill="none" stroke="#000000" stroke-width="2" stroke-linecap="round" stroke-linejoin="round" stroke-miterlimit="10" x1="30" y1="36.4" x2="30" y2="57"/>
	
		<line fill="none" stroke="#000000" stroke-width="2" stroke-linecap="round" stroke-linejoin="round" stroke-miterlimit="10" x1="34.1" y1="39.4" x2="34.1" y2="57"/>
	<path fill="none" stroke="#000000" stroke-width="2" stroke-linecap="round" stroke-linejoin="round" stroke-miterlimit="10" d="
		M28.8,29.9c-1.3,2.2-0.7,4.9,1.2,6.4"/>
	
		<rect x="30.6033" y="10.0777" transform="matrix(0.5 -0.866 0.866 0.5 -6.5143 44.8714)" fill="none" stroke="#000000" stroke-width="2" stroke-linecap="round" stroke-linejoin="round" stroke-miterlimit="10" width="9.9998" height="35.9992"/>
	
		<rect x="30.6033" y="10.0777" transform="matrix(0.5 -0.866 0.866 0.5 -6.5143 44.8714)" fill="none" stroke="#000000" stroke-width="2" stroke-linecap="round" stroke-linejoin="round" stroke-miterlimit="10" width="9.9998" height="35.9992"/>
	<path d="M52.7,34.5c1.4,0.8,1.9,2.7,1.1,4.1s-2.7,1.9-4.1,1.1L52.7,34.5z"/>
</g>
<g id="color-foreground_1_">
	<path id="xx" fill="#D22F27" d="M54.2,37.1c0,1.7-1.4,3-3,3c-0.2,0-0.4,0-0.6-0.1l2.9-5C53.9,35.6,54.2,36.3,54.2,37.1z"/>
</g>
</svg>
