<svg id="emoji" xmlns="http://www.w3.org/2000/svg" viewBox="0 0 72 72">
  <g id="grid">
    <path d="M68,4V68H4V4H68m4-4H0V72H72V0Z" fill="#b3b3b3"/>
    <path d="M12.923,10.9583H59.0769A1.9231,1.9231,0,0,1,61,12.8814V59.0352a1.9231,1.9231,0,0,1-1.9231,1.9231H12.9231A1.9231,1.9231,0,0,1,11,59.0352V12.8813A1.923,1.923,0,0,1,12.923,10.9583Z" fill="none" stroke="#00a5ff" stroke-miterlimit="10" stroke-width="0.1"/>
    <rect x="16" y="4" width="40" height="64" rx="2.2537" fill="none" stroke="#00a5ff" stroke-miterlimit="10" stroke-width="0.1"/>
    <rect x="16" y="4" width="40" height="64" rx="2.2537" transform="translate(72) rotate(90)" fill="none" stroke="#00a5ff" stroke-miterlimit="10" stroke-width="0.1"/>
    <circle cx="36" cy="36" r="29" fill="none" stroke="#00a5ff" stroke-miterlimit="10" stroke-width="0.1"/>
  </g>
  <g id="color">
    <path fill="#B1CC33" d="M36.8349,18.0781c1.7393,1.6583,1.6481,4.5775,1.6481,4.5775s-2.9114,0.2303-4.651-1.428 c-1.7396-1.6582-1.6481-4.5775-1.6481-4.5775S35.0958,16.4213,36.8349,18.0781z" stroke="none"/>
    <path fill="#5C9E31" d="M42.0884,54.3627c-4.6114,1.465-9.3345-1.6943-9.3345-1.6943s2.7546-5.5346,7.3663-7.0003 s9.3345,1.6943,9.3345,1.6943S46.6971,52.8966,42.0884,54.3627z" stroke="none"/>
    <path fill="#B1CC33" d="M49.0484,35.6919c-3.6542,1.0489-7.2941-1.5366-7.2941-1.5366s2.2856-4.2862,5.9401-5.3357 s7.2941,1.5366,7.2941,1.5366S52.7005,34.642,49.0484,35.6919z" stroke="none"/>
    <path fill="#5C9E31" d="M27.0179,32.1509c3.0883,2.3003,3.5096,6.9616,3.5096,6.9616s-4.5864,0.9311-7.6753-1.3691 c-3.0889-2.3002-3.5096-6.9616-3.5096-6.9616S23.9302,29.8529,27.0179,32.1509z" stroke="none"/>
  </g>
  <g id="hair"/>
  <g id="skin"/>
  <g id="skin-shadow"/>
  <g id="line">
    <path fill="none" stroke="#000000" stroke-width="2" stroke-linecap="round" stroke-linejoin="round" d="M36.8349,18.0781 c1.7393,1.6583,1.6481,4.5775,1.6481,4.5775s-2.9114,0.2303-4.651-1.428c-1.7396-1.6582-1.6481-4.5775-1.6481-4.5775 S35.0958,16.4213,36.8349,18.0781z"/>
    <path fill="none" stroke="#000000" stroke-width="2" stroke-linecap="round" stroke-linejoin="round" d="M27.0179,32.1509 c3.0883,2.3003,3.5096,6.9616,3.5096,6.9616s-4.5864,0.9311-7.6753-1.3691c-3.0889-2.3002-3.5096-6.9616-3.5096-6.9616 S23.9302,29.8529,27.0179,32.1509z"/>
    <path fill="none" stroke="#000000" stroke-width="2" stroke-linecap="round" stroke-linejoin="round" d="M42.0884,54.3627 c-4.6114,1.465-9.3345-1.6943-9.3345-1.6943s2.7546-5.5346,7.3663-7.0003s9.3345,1.6943,9.3345,1.6943 S46.6971,52.8966,42.0884,54.3627z"/>
    <path fill="none" stroke="#000000" stroke-width="2" stroke-linecap="round" stroke-linejoin="round" d="M49.0484,35.6919 c-3.6542,1.0489-7.2941-1.5366-7.2941-1.5366s2.2856-4.2862,5.9401-5.3357s7.2941,1.5366,7.2941,1.5366 S52.7005,34.642,49.0484,35.6919z"/>
    <path fill="none" stroke="#000000" stroke-width="2" stroke-linecap="round" stroke-linejoin="round" d="M39.9046,25.7818 c0,4.7785-2.8879,10.0608-4.8815,13.1378c-0.8136,1.2558-1.7383,2.4273-2.7031,3.5711c-2.5753,3.0534-5.2237,8.2176-3.876,15.8715"/>
  </g>
</svg>
