<svg id="emoji" xmlns="http://www.w3.org/2000/svg" viewBox="0 0 72 72">
  <g id="grid">
    <path d="M68,4V68H4V4H68m4-4H0V72H72V0Z" fill="#b3b3b3"/>
    <path d="M12.923,10.9583H59.0769A1.9231,1.9231,0,0,1,61,12.8814V59.0352a1.9231,1.9231,0,0,1-1.9231,1.9231H12.9231A1.9231,1.9231,0,0,1,11,59.0352V12.8813a1.923,1.923,0,0,1,1.923-1.923Z" fill="none" stroke="#00a5ff" stroke-miterlimit="10" stroke-width=".1"/>
    <rect x="16" y="4" width="40" height="64" rx="2.2537" ry="2.2537" fill="none" stroke="#00a5ff" stroke-miterlimit="10" stroke-width=".1"/>
    <rect x="16" y="4" width="40" height="64" rx="2.2537" ry="2.2537" transform="translate(72) rotate(90)" fill="none" stroke="#00a5ff" stroke-miterlimit="10" stroke-width=".1"/>
    <circle cx="36" cy="36" r="29" fill="none" stroke="#00a5ff" stroke-miterlimit="10" stroke-width=".1"/>
  </g>
  <g id="color">
    <ellipse cx="35.8096" cy="10.1616" rx="3.4814" ry="5.1616" fill="#f4aa41"/>
    <ellipse cx="31.287" cy="19.2067" rx="3.4814" ry="5.1616" transform="translate(-4.4175 27.7488) rotate(-45)" fill="#f1b31c"/>
    <ellipse cx="31.287" cy="27.3474" rx="3.4814" ry="5.1616" transform="translate(-10.1737 30.1331) rotate(-45)" fill="#f1b31c"/>
    <ellipse cx="31.287" cy="35.488" rx="3.4814" ry="5.1616" transform="translate(-15.93 32.5174) rotate(-45)" fill="#f1b31c"/>
    <ellipse cx="31.287" cy="43.6286" rx="3.4814" ry="5.1616" transform="translate(-21.6863 34.9018) rotate(-45)" fill="#f1b31c"/>
    <ellipse cx="31.287" cy="51.7692" rx="3.4814" ry="5.1616" transform="translate(-27.4426 37.2861) rotate(-45)" fill="#f1b31c"/>
    <ellipse cx="40.713" cy="19.2067" rx="5.1616" ry="3.4814" transform="translate(-1.6567 34.414) rotate(-45)" fill="#f1b31c"/>
    <ellipse cx="40.713" cy="27.3474" rx="5.1616" ry="3.4814" transform="translate(-7.4129 36.7983) rotate(-45)" fill="#f1b31c"/>
    <ellipse cx="40.713" cy="35.488" rx="5.1616" ry="3.4814" transform="translate(-13.1692 39.1826) rotate(-45)" fill="#f1b31c"/>
    <ellipse cx="40.713" cy="43.6286" rx="5.1616" ry="3.4814" transform="translate(-18.9255 41.5669) rotate(-45)" fill="#f1b31c"/>
    <ellipse cx="40.713" cy="51.7692" rx="5.1616" ry="3.4814" transform="translate(-24.6818 43.9513) rotate(-45)" fill="#f1b31c"/>
    <path d="M35.79,56v9" fill="none" stroke="#000" stroke-miterlimit="10" stroke-width="2"/>
    <ellipse cx="35.8096" cy="10.1616" rx="3.4814" ry="5.1616" fill="#f4aa41"/>
    <ellipse cx="31.287" cy="19.2067" rx="3.4814" ry="5.1616" transform="translate(-4.4175 27.7488) rotate(-45)" fill="#f1b31c"/>
    <ellipse cx="31.287" cy="27.3474" rx="3.4814" ry="5.1616" transform="translate(-10.1737 30.1331) rotate(-45)" fill="#f1b31c"/>
    <ellipse cx="31.287" cy="35.488" rx="3.4814" ry="5.1616" transform="translate(-15.93 32.5174) rotate(-45)" fill="#f1b31c"/>
    <ellipse cx="31.287" cy="43.6286" rx="3.4814" ry="5.1616" transform="translate(-21.6863 34.9018) rotate(-45)" fill="#f1b31c"/>
    <ellipse cx="31.287" cy="51.7692" rx="3.4814" ry="5.1616" transform="translate(-27.4426 37.2861) rotate(-45)" fill="#f1b31c"/>
    <ellipse cx="40.713" cy="19.2067" rx="5.1616" ry="3.4814" transform="translate(-1.6567 34.414) rotate(-45)" fill="#f1b31c"/>
    <ellipse cx="40.713" cy="27.3474" rx="5.1616" ry="3.4814" transform="translate(-7.4129 36.7983) rotate(-45)" fill="#f1b31c"/>
    <ellipse cx="40.713" cy="35.488" rx="5.1616" ry="3.4814" transform="translate(-13.1692 39.1826) rotate(-45)" fill="#f1b31c"/>
    <ellipse cx="40.713" cy="43.6286" rx="5.1616" ry="3.4814" transform="translate(-18.9255 41.5669) rotate(-45)" fill="#f1b31c"/>
    <ellipse cx="40.713" cy="51.7692" rx="5.1616" ry="3.4814" transform="translate(-24.6818 43.9513) rotate(-45)" fill="#f1b31c"/>
    <ellipse cx="35.8096" cy="10.1616" rx="3.4814" ry="5.1616" fill="#f1b31c"/>
    <ellipse cx="31.287" cy="19.2067" rx="3.4814" ry="5.1616" transform="translate(-4.4175 27.7488) rotate(-45)" fill="#f1b31c"/>
    <ellipse cx="31.287" cy="27.3474" rx="3.4814" ry="5.1616" transform="translate(-10.1737 30.1331) rotate(-45)" fill="#f1b31c"/>
    <ellipse cx="31.287" cy="35.488" rx="3.4814" ry="5.1616" transform="translate(-15.93 32.5174) rotate(-45)" fill="#f1b31c"/>
    <ellipse cx="31.287" cy="43.6286" rx="3.4814" ry="5.1616" transform="translate(-21.6863 34.9018) rotate(-45)" fill="#f1b31c"/>
    <ellipse cx="31.287" cy="51.7692" rx="3.4814" ry="5.1616" transform="translate(-27.4426 37.2861) rotate(-45)" fill="#f1b31c"/>
    <ellipse cx="40.713" cy="19.2067" rx="5.1616" ry="3.4814" transform="translate(-1.6567 34.414) rotate(-45)" fill="#f1b31c"/>
    <ellipse cx="40.713" cy="27.3474" rx="5.1616" ry="3.4814" transform="translate(-7.4129 36.7983) rotate(-45)" fill="#f1b31c"/>
    <ellipse cx="40.713" cy="35.488" rx="5.1616" ry="3.4814" transform="translate(-13.1692 39.1826) rotate(-45)" fill="#f1b31c"/>
    <ellipse cx="40.713" cy="43.6286" rx="5.1616" ry="3.4814" transform="translate(-18.9255 41.5669) rotate(-45)" fill="#f1b31c"/>
    <ellipse cx="40.713" cy="51.7692" rx="5.1616" ry="3.4814" transform="translate(-24.6818 43.9513) rotate(-45)" fill="#f4aa41"/>
  </g>
  <g id="line">
    <ellipse cx="35.8096" cy="10.1616" rx="3.4814" ry="5.1616" fill="none" stroke="#1d1d1b" stroke-miterlimit="10" stroke-width="2"/>
    <ellipse cx="31.287" cy="19.2067" rx="3.4814" ry="5.1616" transform="translate(-4.4175 27.7488) rotate(-45)" fill="none" stroke="#1d1d1b" stroke-miterlimit="10" stroke-width="2"/>
    <ellipse cx="31.287" cy="27.3474" rx="3.4814" ry="5.1616" transform="translate(-10.1737 30.1331) rotate(-45)" fill="none" stroke="#1d1d1b" stroke-miterlimit="10" stroke-width="2"/>
    <ellipse cx="31.287" cy="35.488" rx="3.4814" ry="5.1616" transform="translate(-15.93 32.5174) rotate(-45)" fill="none" stroke="#1d1d1b" stroke-miterlimit="10" stroke-width="2"/>
    <ellipse cx="31.287" cy="43.6286" rx="3.4814" ry="5.1616" transform="translate(-21.6863 34.9018) rotate(-45)" fill="none" stroke="#1d1d1b" stroke-miterlimit="10" stroke-width="2"/>
    <ellipse cx="31.287" cy="51.7692" rx="3.4814" ry="5.1616" transform="translate(-27.4426 37.2861) rotate(-45)" fill="none" stroke="#1d1d1b" stroke-miterlimit="10" stroke-width="2"/>
    <ellipse cx="40.713" cy="19.2067" rx="5.1616" ry="3.4814" transform="translate(-1.6567 34.414) rotate(-45)" fill="none" stroke="#1d1d1b" stroke-miterlimit="10" stroke-width="2"/>
    <ellipse cx="40.713" cy="27.3474" rx="5.1616" ry="3.4814" transform="translate(-7.4129 36.7983) rotate(-45)" fill="none" stroke="#1d1d1b" stroke-miterlimit="10" stroke-width="2"/>
    <ellipse cx="40.713" cy="35.488" rx="5.1616" ry="3.4814" transform="translate(-13.1692 39.1826) rotate(-45)" fill="none" stroke="#1d1d1b" stroke-miterlimit="10" stroke-width="2"/>
    <ellipse cx="40.713" cy="43.6286" rx="5.1616" ry="3.4814" transform="translate(-18.9255 41.5669) rotate(-45)" fill="none" stroke="#1d1d1b" stroke-miterlimit="10" stroke-width="2"/>
    <ellipse cx="40.713" cy="51.7692" rx="5.1616" ry="3.4814" transform="translate(-24.6818 43.9513) rotate(-45)" fill="none" stroke="#1d1d1b" stroke-miterlimit="10" stroke-width="2"/>
  </g>
</svg>
