<svg id="emoji" xmlns="http://www.w3.org/2000/svg" viewBox="0 0 72 72"><title>1F342</title><g id="grid"><path d="M68,4V68H4V4H68m4-4H0V72H72V0Z" fill="#b3b3b3"/><path d="M12.923,10.9583H59.0769A1.9231,1.9231,0,0,1,61,12.8814V59.0352a1.9231,1.9231,0,0,1-1.9231,1.9231H12.9231A1.9231,1.9231,0,0,1,11,59.0352V12.8813A1.923,1.923,0,0,1,12.923,10.9583Z" fill="none" stroke="#00a5ff" stroke-miterlimit="10" stroke-width="0.1"/><rect x="16" y="4" width="40" height="64" rx="2.2537" fill="none" stroke="#00a5ff" stroke-miterlimit="10" stroke-width="0.1"/><rect x="16" y="4" width="40" height="64" rx="2.2537" transform="translate(72) rotate(90)" fill="none" stroke="#00a5ff" stroke-miterlimit="10" stroke-width="0.1"/><circle cx="36" cy="36" r="29" fill="none" stroke="#00a5ff" stroke-miterlimit="10" stroke-width="0.1"/></g><g id="color"><path d="M55.732,36.689c5.4323,6.2313,4.1316,16.317,4.1316,16.317s-9.9309-.223-15.3631-6.4543-4.1316-16.317-4.1316-16.317S50.4152,30.3037,55.732,36.689Z" fill="#a57939"/><path d="M19.7623,22.3615C26.1543,17.0075,36.05,18.5,36.05,18.5s-.47,10.065-6.7623,15.2543S13,37.6159,13,37.6159,13.37,27.7156,19.7623,22.3615Z" fill="#e27022"/></g><g id="line"><path d="M19.7623,22.3615C26.1543,17.0075,36.05,18.5,36.05,18.5s-.47,10.065-6.7623,15.2543S13,37.6159,13,37.6159,13.37,27.7156,19.7623,22.3615Z" fill="none" stroke="#000" stroke-linecap="round" stroke-linejoin="round" stroke-width="2"/><path d="M55.732,36.689c5.4323,6.2313,4.1316,16.317,4.1316,16.317s-9.9309-.223-15.3631-6.4543-4.1316-16.317-4.1316-16.317S50.4152,30.3037,55.732,36.689Z" fill="none" stroke="#000" stroke-linecap="round" stroke-linejoin="round" stroke-width="2"/></g></svg>