<svg id="emoji" xmlns="http://www.w3.org/2000/svg" viewBox="0 0 72 72">
  <g id="grid">
    <path d="M68,4V68H4V4H68m4-4H0V72H72V0Z" fill="#b3b3b3"/>
    <path d="M12.923,10.9583H59.0769A1.9231,1.9231,0,0,1,61,12.8814V59.0352a1.9231,1.9231,0,0,1-1.9231,1.9231H12.9231A1.9231,1.9231,0,0,1,11,59.0352V12.8813A1.923,1.923,0,0,1,12.923,10.9583Z" fill="none" stroke="#00a5ff" stroke-miterlimit="10" stroke-width="0.1"/>
    <rect x="16" y="4" width="40" height="64" rx="2.2537" fill="none" stroke="#00a5ff" stroke-miterlimit="10" stroke-width="0.1"/>
    <rect x="16" y="4" width="40" height="64" rx="2.2537" transform="rotate(90 36 36)" fill="none" stroke="#00a5ff" stroke-miterlimit="10" stroke-width="0.1"/>
    <circle cx="36" cy="36" r="29" fill="none" stroke="#00a5ff" stroke-miterlimit="10" stroke-width="0.1"/>
  </g>
  <g id="color">
    <path d="M28.919,27.91c8.1523-6.8285,20.7734-4.925,20.7734-4.925S49.0929,35.8214,41.0678,42.44s-20.7734,4.9249-20.7734,4.9249S20.7668,34.738,28.919,27.91Z" fill="#b1cc33"/>
  </g>
  <g id="line">
    <path d="M29.63,27.91c8.1523-6.8285,20.7734-4.925,20.7734-4.925S49.804,35.8214,41.7789,42.44s-20.7734,4.9249-20.7734,4.9249S21.4778,34.738,29.63,27.91Z" fill="none" stroke="#000" stroke-linecap="round" stroke-linejoin="round" stroke-width="2"/>
    <path d="M54.0855,38.5427a10.2458,10.2458,0,0,1-1.58,4.7407,11.317,11.317,0,0,1-7.901,4.7406" fill="none" stroke="#000" stroke-linecap="round" stroke-linejoin="round" stroke-width="2"/>
    <path d="M58.8261,41.7031a10.2451,10.2451,0,0,1-1.58,4.7407,11.3173,11.3173,0,0,1-7.9011,4.7406" fill="none" stroke="#000" stroke-linecap="round" stroke-linejoin="round" stroke-width="2"/>
    <path d="M17.7406,30.6417a10.2455,10.2455,0,0,1,1.58-4.7407A11.3173,11.3173,0,0,1,27.2219,21.16" fill="none" stroke="#000" stroke-linecap="round" stroke-linejoin="round" stroke-width="2"/>
    <path d="M13,27.4813a10.2451,10.2451,0,0,1,1.58-4.7407A11.3173,11.3173,0,0,1,22.4813,18" fill="none" stroke="#000" stroke-linecap="round" stroke-linejoin="round" stroke-width="2"/>
    <line x1="18" y1="50" x2="20.901" y2="47.024" fill="none" stroke="#000" stroke-linecap="round" stroke-linejoin="round" stroke-width="2"/>
  </g>
</svg>
