<svg id="emoji" viewBox="0 0 72 72" xmlns="http://www.w3.org/2000/svg">
  <g id="grid">
    <path fill="#b3b3b3" d="M68,4V68H4V4H68m4-4H0V72H72V0Z"/>
    <path fill="none" stroke="#00a5ff" stroke-miterlimit="10" stroke-width="0.1" d="M12.923,10.9583H59.0769A1.9231,1.9231,0,0,1,61,12.8814V59.0352a1.9231,1.9231,0,0,1-1.9231,1.9231H12.9231A1.9231,1.9231,0,0,1,11,59.0352V12.8813A1.923,1.923,0,0,1,12.923,10.9583Z"/>
    <rect x="16" y="4" rx="2.2537" width="40" height="64" fill="none" stroke="#00a5ff" stroke-miterlimit="10" stroke-width="0.1"/>
    <rect x="16" y="4" rx="2.2537" width="40" height="64" transform="translate(72) rotate(90)" fill="none" stroke="#00a5ff" stroke-miterlimit="10" stroke-width="0.1"/>
    <circle cx="36" cy="36" r="29" fill="none" stroke="#00a5ff" stroke-miterlimit="10" stroke-width="0.1"/>
  </g>
  <g id="color">
    <path fill="#f4aa41" stroke="none" d="M36.0441,11.1661c3.6923,4.6154,5.5385,8.3077,6.4615,15.6923c0.4173,3.3383,0,5.5385-0.2838,7.9244 c0,0,11.32-9.7705,18.7047-7.0013c0,0-6.4615,6.4615-7.3846,9.2308c-0.9231,2.7692-2.7692,6.4615-6.4615,6.4615 c0,0,0,4.6154,10.1539,2.7692c0,0-6.4615,10.1539-17.5385,5.5385c0,0-1.8462,0.9231-1.8462,7.3846h-0.9231h-1.7648h-0.9231 c0-6.4615-1.8462-7.3846-1.8462-7.3846C21.3155,56.3969,14.854,46.243,14.854,46.243c10.1538,1.8462,10.1538-2.7692,10.1538-2.7692 c-3.6923,0-5.5385-3.6923-6.4615-6.4615c-0.9231-2.7692-7.3846-9.2308-7.3846-9.2308c7.3846-2.7692,18.7047,7.0013,18.7047,7.0013 c-0.2838-2.3859-0.7011-4.5861-0.2838-7.9244C30.5056,19.4738,32.3518,15.7815,36.0441,11.1661L36.0441,11.1661z"/>
  </g>
  <g id="hair"/>
  <g id="skin"/>
  <g id="skin-shadow"/>
  <g id="line">
    <path fill="none" stroke="#000000" stroke-linecap="round" stroke-linejoin="round" stroke-miterlimit="10" stroke-width="2" d="M36.0441,10.9064c3.6923,4.6154,5.5385,8.3077,6.4615,15.6923c0.4173,3.3383,0,5.5385-0.2838,7.9244 c0,0,11.32-9.7705,18.7047-7.0013c0,0-6.4615,6.4615-7.3846,9.2308c-0.9231,2.7692-2.7692,6.4615-6.4615,6.4615 c0,0,0,4.6154,10.1539,2.7692c0,0-6.4615,10.1539-17.5385,5.5385c0,0-1.8462,0.9231-1.8462,7.3846h-0.9231h-1.7648h-0.9231 c0-6.4615-1.8462-7.3846-1.8462-7.3846c-11.0769,4.6154-17.5385-5.5385-17.5385-5.5385 c10.1538,1.8462,10.1538-2.7692,10.1538-2.7692c-3.6923,0-5.5385-3.6923-6.4615-6.4615c-0.9231-2.7692-7.3846-9.2308-7.3846-9.2308 c7.3846-2.7692,18.7047,7.0013,18.7047,7.0013c-0.2838-2.3859-0.7011-4.5861-0.2838-7.9244 C30.5056,19.2141,32.3518,15.5218,36.0441,10.9064L36.0441,10.9064z"/>
  </g>
</svg>
