<svg id="emoji" viewBox="0 0 72 72" xmlns="http://www.w3.org/2000/svg">
  <g id="grid">
    <path fill="#b2b2b2" d="M68,4V68H4V4H68m4-4H0V72H72Z"/>
    <path fill="none" stroke="#00a4ff" stroke-miterlimit="10" stroke-width="0.1" d="M12.9,11H59.1A1.8987,1.8987,0,0,1,61,12.9h0V59a1.8987,1.8987,0,0,1-1.9,1.9H12.9A1.8371,1.8371,0,0,1,11,59h0V12.9A1.8987,1.8987,0,0,1,12.9,11Z"/>
    <path fill="none" stroke="#00a4ff" stroke-miterlimit="10" stroke-width="0.1" d="M18.3,4H53.8A2.2425,2.2425,0,0,1,56,6.3V65.8a2.3261,2.3261,0,0,1-2.3,2.3H18.3A2.4139,2.4139,0,0,1,16,65.7V6.3A2.263,2.263,0,0,1,18.3,4Z"/>
    <path fill="none" stroke="#00a4ff" stroke-miterlimit="10" stroke-width="0.1" d="M68,18.3V53.8a2.3261,2.3261,0,0,1-2.3,2.3H6.3A2.4139,2.4139,0,0,1,4,53.7V18.3A2.263,2.263,0,0,1,6.3,16H65.8A2.2425,2.2425,0,0,1,68,18.3Z"/>
    <circle cx="36" cy="36" r="29" fill="none" stroke="#00a4ff" stroke-miterlimit="10" stroke-width="0.1"/>
  </g>
  <g id="color">
    <path fill="#f1b31c" stroke="#f1b31c" stroke-miterlimit="10" d="M36.4,16.8A17.6687,17.6687,0,0,0,18.7,34.5H54A17.5838,17.5838,0,0,0,36.4,16.8Z"/>
    <path fill="#f1b31c" d="M37.5,15.6a1.7713,1.7713,0,0,0,1.7-1.8,1.7524,1.7524,0,0,0-1.7-1.7,1.7713,1.7713,0,0,0-1.7,1.8A1.6855,1.6855,0,0,0,37.5,15.6Z"/>
    <path fill="#f1b31c" d="M36.7,41.6a1.7713,1.7713,0,0,0,1.7-1.8,1.7524,1.7524,0,0,0-1.7-1.7A1.7713,1.7713,0,0,0,35,39.9,1.6275,1.6275,0,0,0,36.7,41.6Z"/>
    <path fill="#fff" d="M40.8,23c.7-.1,1.3.5,1.9.8a4.0134,4.0134,0,0,1,1.6,1.3c1,1.6,3.6.1,2.6-1.5a7.8086,7.8086,0,0,0-2.7-2.4A6.0991,6.0991,0,0,0,40.8,20a1.5,1.5,0,0,0,0,3Z"/>
    <line x1="14.5" x2="56.5" y1="47.5" y2="47.5" fill="none" stroke="#6a462f" stroke-miterlimit="10" stroke-width="3"/>
    <line x1="17.9" x2="54.5" y1="43.7" y2="43.7" fill="none" stroke="#6a462f" stroke-miterlimit="10" stroke-width="2.3562"/>
    <line x1="16.2" x2="57.4" y1="36" y2="36" fill="none" stroke="#f1b31c" stroke-miterlimit="10" stroke-width="2.3562"/>
  </g>
  <g id="line">
    <path fill="none" stroke="#000" stroke-linecap="round" stroke-linejoin="round" stroke-width="2.3562" d="M19.1,33.3a17.65,17.65,0,0,1,35.3-.1v.1"/>
    <path fill="none" stroke="#000" stroke-linejoin="round" stroke-width="2" d="M17.3,34.3h39A1.7524,1.7524,0,0,1,58,36v.1a1.7524,1.7524,0,0,1-1.7,1.7h-39a1.7524,1.7524,0,0,1-1.7-1.7V36A1.6275,1.6275,0,0,1,17.3,34.3Z"/>
    <rect x="35" y="38.4" width="3.5" height="2.4" fill="none" stroke="#000" stroke-linecap="square" stroke-miterlimit="10" stroke-width="2"/>
    <rect x="17.4" y="41.9" width="37.7" height="3.5" fill="none" stroke="#000" stroke-linecap="square" stroke-linejoin="round" stroke-width="2"/>
    <rect x="15" y="45.5" width="42.4" height="3.5" fill="none" stroke="#000" stroke-linecap="square" stroke-linejoin="round" stroke-width="2"/>
    <path fill="none" stroke="#000" stroke-linecap="round" stroke-linejoin="round" stroke-width="2" d="M35,15a2.3505,2.3505,0,1,1,4.7-.1h0"/>
  </g>
</svg>
