<?xml version="1.0" encoding="utf-8"?>
<!-- Generator: Adobe Illustrator 23.0.1, SVG Export Plug-In . SVG Version: 6.00 Build 0)  -->
<svg version="1.1" id="Ebene_1" xmlns="http://www.w3.org/2000/svg" xmlns:xlink="http://www.w3.org/1999/xlink" x="0px" y="0px"
	 viewBox="0 0 72 72" style="enable-background:new 0 0 72 72;" xml:space="preserve">
<style type="text/css">
	.st0{fill:#B2B2B2;}
	.st1{fill:none;stroke:#00A4FF;stroke-width:0.1;stroke-miterlimit:10;}
	.st2{fill:#F1B31C;stroke:#F1B31C;stroke-miterlimit:10;}
	.st3{fill:#F1B31C;}
	.st4{fill:#FFFFFF;}
	.st5{fill:none;stroke:#6A462F;stroke-width:3;stroke-miterlimit:10;}
	.st6{fill:none;stroke:#6A462F;stroke-width:2.3562;stroke-miterlimit:10;}
	.st7{fill:none;stroke:#F1B31C;stroke-width:2.3562;stroke-miterlimit:10;}
	.st8{fill:none;stroke:#000000;stroke-width:2.3562;stroke-linecap:round;stroke-linejoin:round;}
	.st9{fill:none;stroke:#000000;stroke-width:2;stroke-linejoin:round;}
	.st10{fill:none;stroke:#000000;stroke-width:2;stroke-linecap:square;stroke-miterlimit:10;}
	.st11{fill:none;stroke:#000000;stroke-width:2;stroke-linecap:square;stroke-linejoin:round;}
	.st12{fill:none;stroke:#000000;stroke-width:2;stroke-linecap:round;stroke-linejoin:round;}
</style>
<title>1F6CE</title>
<g id="grid">
	<path class="st0" d="M68,4v64H4V4H68 M72,0H0v72h72V0z"/>
	<path class="st1" d="M12.9,11h46.2c1.1,0,1.9,0.9,1.9,1.9v0V59c0,1.1-0.9,1.9-1.9,1.9H12.9C11.9,61,11,60.1,11,59l0,0V12.9
		C11,11.8,11.9,11,12.9,11L12.9,11z"/>
	<path class="st1" d="M18.3,4h35.5C55,4,56,5,56,6.3v59.5c0,1.2-1,2.3-2.3,2.3H18.3C17,68,16,67,16,65.7V6.3C16,5,17,4,18.3,4z"/>
	<path class="st1" d="M68,18.3v35.5c0,1.2-1,2.3-2.3,2.3H6.3C5,56,4,55,4,53.7V18.3C4,17,5,16,6.3,16h59.5C67,16,68,17,68,18.3z"/>
	<circle class="st1" cx="36" cy="36" r="29"/>
</g>
<g id="emoji">
	<g id="color">
		<path class="st2" d="M36.4,16.8c-9.8,0-17.7,7.9-17.7,17.7c0,0,0,0,0,0h35.3C54.1,24.7,46.1,16.8,36.4,16.8L36.4,16.8z"/>
		<path class="st3" d="M37.5,15.6c1,0,1.7-0.9,1.7-1.8c0-0.9-0.8-1.7-1.7-1.7c-1,0-1.7,0.9-1.7,1.8C35.8,14.8,36.5,15.6,37.5,15.6z"
			/>
		<path class="st3" d="M36.7,41.6c1,0,1.7-0.9,1.7-1.8c0-0.9-0.8-1.7-1.7-1.7c-1,0-1.7,0.9-1.7,1.8C35,40.9,35.7,41.6,36.7,41.6z"/>
		<path class="st4" d="M40.8,23c0.7-0.1,1.3,0.5,1.9,0.8c0.6,0.3,1.2,0.7,1.6,1.3c1,1.6,3.6,0.1,2.6-1.5c-0.7-1-1.6-1.8-2.7-2.4
			c-1-0.7-2.2-1.2-3.4-1.2c-0.8,0-1.5,0.7-1.5,1.5C39.3,22.3,40,23,40.8,23L40.8,23z"/>
		<line class="st5" x1="14.5" y1="47.5" x2="56.5" y2="47.5"/>
		<line class="st6" x1="17.9" y1="43.7" x2="54.5" y2="43.7"/>
		<line class="st7" x1="16.2" y1="36" x2="57.4" y2="36"/>
	</g>
	<g id="line">
		<path class="st8" d="M19.1,33.3c0-9.8,7.9-17.7,17.6-17.7c9.8,0,17.7,7.9,17.7,17.6c0,0,0,0.1,0,0.1"/>
		<path class="st9" d="M17.3,34.3h39c0.9,0,1.7,0.8,1.7,1.7v0.1c0,0.9-0.8,1.7-1.7,1.7h-39c-0.9,0-1.7-0.8-1.7-1.7V36
			C15.6,35,16.3,34.3,17.3,34.3z"/>
		<rect x="35" y="38.4" class="st10" width="3.5" height="2.4"/>
		<rect x="17.4" y="41.9" class="st11" width="37.7" height="3.5"/>
		<rect x="15" y="45.5" class="st11" width="42.4" height="3.5"/>
		<path class="st12" d="M35,15c0-1.3,1-2.4,2.3-2.4c1.3,0,2.4,1,2.4,2.3c0,0,0,0,0,0"/>
	</g>
</g>
</svg>
