<svg id="emoji" viewBox="0 0 72 72" version="1.1" xmlns="http://www.w3.org/2000/svg">
  <g id="grid">
    <path fill="#b3b3b3" d="M68,4V68H4V4H68m4-4H0V72H72V0Z"/>
    <path fill="none" stroke="#00a5ff" stroke-miterlimit="10" stroke-width="0.1" d="m12.92 10.96h46.15a1.923 1.923 0 0 1 1.923 1.923v46.15a1.923 1.923 0 0 1-1.923 1.923h-46.15a1.923 1.923 0 0 1-1.923-1.923v-46.15a1.923 1.923 0 0 1 1.923-1.923z"/>
    <rect x="16" y="4" rx="2.254" width="40" height="64" fill="none" stroke="#00a5ff" stroke-miterlimit="10" stroke-width="0.1"/>
    <rect x="16" y="4" rx="2.254" width="40" height="64" transform="rotate(90 36 36)" fill="none" stroke="#00a5ff" stroke-miterlimit="10" stroke-width="0.1"/>
    <circle cx="36" cy="36" r="29" fill="none" stroke="#00a5ff" stroke-miterlimit="10" stroke-width="0.1"/>
  </g>
  <g id="color">
    <path fill="#b1cc33" d="m34.04 34.84h20.66a1.833 1.833 0 0 1 1.833 1.833v6.16a1.833 1.833 0 0 1-1.833 1.833h-19.47a1.833 1.833 0 0 1-1.833-1.833v-7.342a0.6513 0.6513 0 0 1 0.6513-0.6513z"/>
    <polygon transform="matrix(1.52 0 0 1.52 -14.33 -25.04)" fill="#5c9e31" stroke-width="0.6579" points="33.04 49.23 33.04 52.68 45.42 52.68 45.41 50.96 46.63 49.22 45.42 49.23 43.28 49.23 43.28 45.86 35.07 45.86 35.07 49.23"/>
    <circle cx="29.62" cy="52.29" r="7.618" fill="#d0cfce"/>
    <circle cx="59.08" cy="54.85" r="5.063" fill="#d0cfce"/>
  </g>
  <g id="line">
    <path fill="none" stroke="#000" stroke-linecap="round" stroke-linejoin="round" stroke-width="2" d="m7.95 7.957s19.41 5.496 25.24 26.36"/>
    <path fill="none" stroke="#000" stroke-linecap="round" stroke-linejoin="round" stroke-width="2" d="m33.16 34.42h21.05a1.868 1.872 0 0 1 1.868 1.872v6.288a1.868 1.872 0 0 1-1.868 1.872h-19.84a1.868 1.872 0 0 1-1.868-1.872v-7.494a0.6638 0.6649 0 0 1 0.6638-0.6649z"/>
    <line x1="53.32" x2="35.89" y1="55.03" y2="55.03" fill="none" stroke="#000" stroke-linecap="round" stroke-linejoin="round" stroke-width="2"/>
    <polyline transform="matrix(1.549 0 0 1.552 -16.13 -26.71)" fill="none" stroke="#000" stroke-linecap="round" stroke-linejoin="round" stroke-width="1.29" points="33.64 49.24 35.06 49.24 35.06 45.87 43.28 45.87 43.28 49.24 45.42 49.24 46.77 49.23 46.77 49.32"/>
    <ellipse cx="28.65" cy="52.23" rx="7.764" ry="7.776" fill="none" stroke="#000" stroke-linecap="round" stroke-linejoin="round" stroke-width="2"/>
    <ellipse cx="58.68" cy="54.63" rx="5.37" ry="5.379" fill="none" stroke="#000" stroke-linecap="round" stroke-linejoin="round" stroke-width="2"/>
    <rect x="45.58" y="30.7" rx="1.201" ry="1.201" width="6.725" height="3.728"/>
  </g>
</svg>
