<svg id="emoji" viewBox="0 0 72 72" xmlns="http://www.w3.org/2000/svg">
  <g id="grid">
    <path fill="#b3b3b3" d="M68,4V68H4V4H68m4-4H0V72H72V0Z"/>
    <path fill="none" stroke="#00a5ff" stroke-miterlimit="10" stroke-width="0.1" d="M12.923,10.9583H59.0769A1.9231,1.9231,0,0,1,61,12.8814V59.0352a1.9231,1.9231,0,0,1-1.9231,1.9231H12.9231A1.9231,1.9231,0,0,1,11,59.0352V12.8813A1.923,1.923,0,0,1,12.923,10.9583Z"/>
    <rect x="16" y="4" rx="2.2537" width="40" height="64" fill="none" stroke="#00a5ff" stroke-miterlimit="10" stroke-width="0.1"/>
    <rect x="16" y="4" rx="2.2537" width="40" height="64" transform="translate(72) rotate(90)" fill="none" stroke="#00a5ff" stroke-miterlimit="10" stroke-width="0.1"/>
    <circle cx="36" cy="36" r="29" fill="none" stroke="#00a5ff" stroke-miterlimit="10" stroke-width="0.1"/>
  </g>
  <g id="color">
    <path fill="#ea5a47" stroke-width="1.226" d="m64.05 34.59c-4.56-2.963-9.963-9.286-15.69-14.31-1.328-1.169-2.925-2.567-5.85-1.169l-3.851 2.05c-0.8882 0.5138-1.191 0.6898-2.663 0.6898s-1.775-0.176-2.663-0.6898l-3.851-2.05c-2.925-1.399-4.522 0-5.85 1.169-5.722 5.02-11.13 11.34-15.69 14.31l15.02 14.36c2.529 2.452 5.827 4.522 13.03 4.522s10.5-2.069 13.03-4.522z"/>
    <path fill="#fff" stroke-width="1.226" d="m36 39.06c-7.667 0-9.791-4.905-13.87-4.292 6.763-5.096 10.48-0.6131 13.87-0.6131s7.108-4.483 13.87 0.6131c-4.081-0.6131-6.204 4.292-13.87 4.292z"/>
    <path fill="#fff" stroke-linecap="round" stroke-linejoin="round" stroke-miterlimit="10" stroke-width="2.452" d="m36 39.06c-7.667 0-9.791-4.905-13.87-4.292 6.763-5.096 10.48-0.6131 13.87-0.6131s7.108-4.483 13.87 0.6131c-4.081-0.6131-6.204 4.292-13.87 4.292z"/>
  </g>
  <g id="hair"/>
  <g id="skin"/>
  <g id="skin-shadow"/>
  <g id="line">
    <path fill="none" stroke="#000" stroke-linecap="round" stroke-linejoin="round" stroke-miterlimit="10" stroke-width="2.434" d="m8.167 34.6c4.981 1.66 6.255 1.889 14.07 0.1774"/>
    <path fill="none" stroke="#000" stroke-linecap="round" stroke-linejoin="round" stroke-miterlimit="10" stroke-width="2.434" d="m63.83 34.6c-4.981 1.66-6.255 1.889-14.07 0.1774"/>
    <path fill="none" stroke="#000" stroke-linecap="round" stroke-linejoin="round" stroke-miterlimit="10" stroke-width="2.434" d="m8.167 34.6c4.981 1.66 6.255 1.889 14.07 0.1774"/>
    <path fill="none" stroke="#000" stroke-linecap="round" stroke-linejoin="round" stroke-miterlimit="10" stroke-width="2.434" d="m8.167 34.6 14.91 14.25c2.51 2.434 5.782 4.487 12.93 4.487s10.42-2.053 12.93-4.487l14.91-14.25"/>
    <path fill="none" stroke="#000" stroke-linecap="round" stroke-linejoin="round" stroke-miterlimit="10" stroke-width="2.434" d="m8.167 34.6c4.525-2.941 9.886-9.214 15.56-14.2 1.318-1.16 2.902-2.548 5.805-1.16l3.821 2.034c0.8813 0.5098 1.182 0.6844 2.643 0.6844s1.761-0.1746 2.643-0.6844l3.821-2.034c2.902-1.388 4.487 0 5.805 1.16 5.678 4.981 11.04 11.25 15.56 14.2"/>
    <path fill="none" stroke="#000" stroke-linecap="round" stroke-linejoin="round" stroke-miterlimit="10" stroke-width="2.434" d="m63.83 34.6c-4.981 1.66-6.255 1.889-14.07 0.1774"/>
    <path fill="none" stroke="#000" stroke-linecap="round" stroke-linejoin="round" stroke-miterlimit="10" stroke-width="2.434" d="m36 39.03c-7.608 0-9.715-4.867-13.76-4.259 6.711-5.057 10.4-0.6084 13.76-0.6084s7.053-4.449 13.76 0.6084c-4.049-0.6084-6.156 4.259-13.76 4.259z"/>
  </g>
</svg>
