<svg id="emoji" viewBox="0 0 72 72" xmlns="http://www.w3.org/2000/svg">
  <g id="grid">
    <path fill="#B3B3B3" d="M68,4v64H4V4H68 M72,0H0v72h72V0z"/>
    <path fill="none" stroke="#00A5FF" stroke-miterlimit="10" stroke-width="0.1" d="M12.923,10.9583h46.1539 c1.0621,0,1.9231,0.861,1.9231,1.9231v0v46.1538c0,1.0621-0.861,1.9231-1.9231,1.9231H12.9231 c-1.0621,0-1.9231-0.861-1.9231-1.9231l0,0V12.8813C11,11.8193,11.861,10.9583,12.923,10.9583L12.923,10.9583z"/>
    <path fill="none" stroke="#00A5FF" stroke-miterlimit="10" stroke-width="0.1" d="M18.2537,4h35.4926C54.991,4,56,5.009,56,6.2537 v59.4926C56,66.991,54.991,68,53.7463,68H18.2537C17.009,68,16,66.991,16,65.7463V6.2537C16,5.009,17.009,4,18.2537,4z"/>
    <path fill="none" stroke="#00A5FF" stroke-miterlimit="10" stroke-width="0.1" d="M68,18.2537v35.4926 C68,54.991,66.991,56,65.7463,56H6.2537C5.009,56,4,54.991,4,53.7463V18.2537C4,17.009,5.009,16,6.2537,16h59.4926 C66.991,16,68,17.009,68,18.2537z"/>
    <circle cx="36" cy="36" r="29" fill="none" stroke="#00A5FF" stroke-miterlimit="10" stroke-width="0.1"/>
  </g>
  <g id="color"/>
  <g id="skin">
    <path fill="#fcea2b" d="M59.4,15.2149c.19,5.4175.0283,11.99-.11,18.703-.0915,4.4412,8.0161,16.0372,1.036,19.9626-2.91,1.6364-13.7658-2.3348-31.6738,1.506-3.8055.8162-4.9993-.5507-8.7609-.2546-2.5606.2015-4.9285,2.0942-7.4189,1.8784a3.9473,3.9473,0,0,1-1.5381-7.5035c4.8836-2.438,11.2774-4.9428,15.43-7.208,6.3825-3.4816,10.2926-6.8349,12.3822-11.03a3.987,3.987,0,0,0,.4024-1.5681,62.9057,62.9057,0,0,0-.2919-12.5862"/>
    <path fill="#fcea2b" d="M59.4,15.2149c.19,5.4175.0283,11.99-.11,18.703-.0915,4.4412,8.0161,16.0372,1.036,19.9626-2.91,1.6364-13.7658-2.3348-31.6738,1.506-3.8055.8162-4.9993-.5507-8.7609-.2546-2.5606.2015-4.9285,2.0942-7.4189,1.8784a3.9473,3.9473,0,0,1-1.5381-7.5035c4.8836-2.438,11.2774-4.9428,15.43-7.208,6.3825-3.4816,10.2926-6.8349,12.3822-11.03a3.987,3.987,0,0,0,.4024-1.5681,62.9057,62.9057,0,0,0-.2919-12.5862"/>
  </g>
  <g id="line">
    <path fill="none" stroke="#000" stroke-linecap="round" stroke-linejoin="round" stroke-width="2" d="M59.4837,16.2057c.0937,5.42.06,11.55-.198,18.2591-.17,4.4389,7.73,16.177.6815,19.9779-2.9385,1.5844-12.1353-4.5295-29.697.67-2.7208.8055-6.3093-.308-9.8655-.0608-3.0914.2149-6.4939,1.9519-9.4251,1.5375A3.6938,3.6938,0,0,1,9.7418,49.673c1.6316-.8785,4.579-1.2415,6.5053-2.0734,3.905-1.6865,6.9812-3.7779,9.9694-5.34,6.1454-3.212,10.04-6.3472,12.2641-10.2373a5.7656,5.7656,0,0,0,.7664-2.4891A70.6816,70.6816,0,0,0,38.91,18.1283"/>
    <path fill="none" stroke="#000" stroke-linecap="round" stroke-linejoin="round" stroke-width="2" d="M53.2854,47.3146s3.97-2.7438,1.94-5.6732"/>
  </g>
</svg>
