<svg id="emoji" xmlns="http://www.w3.org/2000/svg" viewBox="0 0 72 72">
  <g id="grid">
    <path fill="#B3B3B3" d="M68,4v64H4V4H68 M72,0H0v72h72V0z"/>
    <path fill="none" stroke="#00A5FF" stroke-width="0.1" stroke-miterlimit="10" d="M12.923,10.9583h46.1539 c1.0621,0,1.9231,0.861,1.9231,1.9231v0v46.1538c0,1.0621-0.861,1.9231-1.9231,1.9231H12.9231 c-1.0621,0-1.9231-0.861-1.9231-1.9231l0,0V12.8813C11,11.8193,11.861,10.9583,12.923,10.9583L12.923,10.9583z"/>
    <path fill="none" stroke="#00A5FF" stroke-width="0.1" stroke-miterlimit="10" d="M18.2537,4h35.4926C54.991,4,56,5.009,56,6.2537 v59.4926C56,66.991,54.991,68,53.7463,68H18.2537C17.009,68,16,66.991,16,65.7463V6.2537C16,5.009,17.009,4,18.2537,4z"/>
    <path fill="none" stroke="#00A5FF" stroke-width="0.1" stroke-miterlimit="10" d="M68,18.2537v35.4926 C68,54.991,66.991,56,65.7463,56H6.2537C5.009,56,4,54.991,4,53.7463V18.2537C4,17.009,5.009,16,6.2537,16h59.4926 C66.991,16,68,17.009,68,18.2537z"/>
    <circle fill="none" stroke="#00A5FF" stroke-width="0.1" stroke-miterlimit="10" cx="36" cy="36" r="29"/>
  </g>
  <g id="color"/>
  <g id="skin">
    <path fill="#FCEA2B" d="M61.86,16.8c-0.024,5.42-0.445,11.98-0.848,18.68c-0.267,4.434,5.676,15.82-1.454,19.47 c-2.972,1.52-12.55-4.339-30.6-1.208c-3.834,0.665-4.688-0.362-8.458-0.215c-2.567,0.101-4.994,1.558-7.474,1.244 c-2.096-0.172-4.182-1.655-4.099-3.756c0.06-1.516,1.524-2.803,2.96-3.292c5.168-1.761,16.614-7.019,20.854-9.841 c6.053-4.028,5.586-1.749,7.846-5.855c0.258-0.48,0.416-1.008,0.464-1.551c0.489-4.179,0.557-8.396,0.205-12.59"/>
  </g>
  <g id="line">
    <path fill="none" stroke="#000000" stroke-width="2" stroke-linecap="round" stroke-linejoin="round" d="M61.6377,17.3246 c-0.0908,5.42-0.3316,11.5454-0.817,18.2428c-0.0795,1.0999-0.0982,2.8023,0.8858,4.7978 c2.7477,5.5694,2.1558,13.5209-4.6209,14.3116c-7.6607,0.1867-10.2145-2.6959-18.0686-2.412 c-2.8331,0.1024-6.3566,0.617-11.0586,1.8371c-2.7468,0.7133-5.0841-0.8199-8.6465-0.6936 c-3.0975,0.11-4.5518,1.6566-7.4682,1.1474c-1.8093-0.3162-3.142-1.4704-3.0797-3.3063c0.0461-1.3602,0.8563-3.0287,2.0763-3.6317 c1.6608-0.8211,4.6194-1.112,6.5725-1.8782c3.9599-1.5526,11.0438-4.6432,15.164-8.1185c3.0653-1.609,5.1749-1.3853,7.5296-5.1977 c0.4675-0.7446,0.7583-1.5872,0.8499-2.4616c0.3239-3.7952,0.3402-7.6108,0.0497-11.4049"/>
    <path fill="none" stroke="#000000" stroke-width="2" stroke-linecap="round" stroke-linejoin="round" d="M52.4494,38.3552 c0.8211-0.2443,2.8341-1.0155,2.1313-5.605"/>
  </g>
</svg>
