<svg id="emoji" viewBox="0 0 72 72" xmlns="http://www.w3.org/2000/svg">
  <g id="grid">
    <path fill="#b3b3b3" d="M68,4V68H4V4H68m4-4H0V72H72V0Z"/>
    <path fill="none" stroke="#00a5ff" stroke-miterlimit="10" stroke-width="0.1" d="M12.923,10.9583H59.0769A1.9231,1.9231,0,0,1,61,12.8814V59.0352a1.9231,1.9231,0,0,1-1.9231,1.9231H12.9231A1.9231,1.9231,0,0,1,11,59.0352V12.8813A1.923,1.923,0,0,1,12.923,10.9583Z"/>
    <rect x="16" y="4" rx="2.2537" width="40" height="64" fill="none" stroke="#00a5ff" stroke-miterlimit="10" stroke-width="0.1"/>
    <rect x="16" y="4" rx="2.2537" width="40" height="64" transform="rotate(90 36 36)" fill="none" stroke="#00a5ff" stroke-miterlimit="10" stroke-width="0.1"/>
    <circle cx="36" cy="36" r="29" fill="none" stroke="#00a5ff" stroke-miterlimit="10" stroke-width="0.1"/>
  </g>
  <g id="color">
    <path fill="#d22f27" stroke="#d22f27" stroke-miterlimit="10" stroke-width="2" d="M35.4655,10c-5.6661,0-10.2662,7.196-10.4107,16.1549-8.4986.45-15.1761,4.9212-15.1761,10.38,0,5.4648,6.6935,9.9393,15.2063,10.38.4412,8.5128,4.9157,15.2063,10.38,15.2063,5.4584,0,9.93-6.6775,10.38-15.1761C54.804,46.8007,62,42.2006,62,36.5345c0-5.66-7.18-10.2554-16.1248-10.41C45.7209,17.18,41.1252,10,35.4655,10Z"/>
    <path fill="#ea5a47" d="M53.1969,18.1743c-3.76-3.7595-11.5866-2.0371-17.6269,3.8114-5.9377-5.34-13.335-6.8044-16.9568-3.1826-3.626,3.626-2.1537,11.0363,3.202,16.9775-5.3557,5.9412-6.828,13.3514-3.202,16.9774C22.235,56.38,29.6323,54.9158,35.57,49.5754c6.04,5.8486,13.8673,7.571,17.6269,3.8114,3.7553-3.7553,2.0405-11.5688-3.7921-17.6062C55.2374,29.7432,56.9522,21.93,53.1969,18.1743Z"/>
    <circle cx="35.5906" cy="35.7806" r="8.0032" fill="#f4aa41" stroke="#f4aa41" stroke-miterlimit="10" stroke-width="2"/>
    <circle cx="35.5906" cy="35.7806" r="4.4462" fill="#fcea2b" stroke="#fcea2b" stroke-miterlimit="10" stroke-width="2"/>
  </g>
  <g id="line">
    <path fill="none" stroke="#000" stroke-linecap="round" stroke-linejoin="round" stroke-width="2" d="M53.1969,18.1743c-3.76-3.7595-11.5866-2.0371-17.6269,3.8114-5.9377-5.34-13.335-6.8044-16.9568-3.1826-3.626,3.626-2.1537,11.0363,3.202,16.9775-5.3557,5.9412-6.828,13.3514-3.202,16.9774C22.235,56.38,29.6323,54.9158,35.57,49.5754c6.04,5.8486,13.8673,7.571,17.6269,3.8114,3.7553-3.7553,2.0405-11.5688-3.7921-17.6062C55.2374,29.7432,56.9522,21.93,53.1969,18.1743Z"/>
    <path fill="none" stroke="#000" stroke-linecap="round" stroke-linejoin="round" stroke-width="2" d="M58.5472,42.8971A8.3115,8.3115,0,0,0,62,36.5345c0-2.5743-1.4854-4.9284-3.9467-6.7446"/>
    <path fill="none" stroke="#000" stroke-linecap="round" stroke-linejoin="round" stroke-width="2" d="M28.3914,57.7105c1.8569,2.7374,4.3417,4.4108,7.0741,4.4108a8.3057,8.3057,0,0,0,6.3507-3.4368"/>
    <path fill="none" stroke="#000" stroke-linecap="round" stroke-linejoin="round" stroke-width="2" d="M13.1246,30.3426a8.2069,8.2069,0,0,0-3.2459,6.1919,7.8549,7.8549,0,0,0,2.5668,5.57"/>
    <path fill="none" stroke="#000" stroke-linecap="round" stroke-linejoin="round" stroke-width="2" d="M42.0774,13.77C40.28,11.4144,37.9775,10,35.4655,10a8.3022,8.3022,0,0,0-6.3482,3.4352"/>
    <circle cx="35.5906" cy="35.7806" r="8.0032" fill="none" stroke="#000" stroke-linejoin="round" stroke-width="2"/>
    <circle cx="35.5906" cy="35.7806" r="4.4462" fill="none" stroke="#000" stroke-linejoin="round" stroke-width="2"/>
  </g>
</svg>
