<svg id="emoji" viewBox="0 0 72 72" version="1.1" xmlns="http://www.w3.org/2000/svg">
  <g id="color">
    <g stroke-width="0">
      <rect x="6" y="30" ry="0" width="60" height="12" fill="#fff"/>
      <rect x="6" y="42" ry="0" width="60" height="12" fill="#1e50a0"/>
      <rect x="6" y="18" ry="0" width="60" height="12" fill="#1e50a0"/>
    </g>
    <g stroke-linecap="round" stroke-linejoin="round">
      <path fill="#d22f27" stroke="#d22f27" stroke-width="0.3" d="m26.636 47.192c-1.8718-0.25552-3.7681-1.0406-5.3274-2.2057-0.29376-0.21948-0.8763-0.75399-1.2945-1.1878-1.5495-1.6071-2.5397-3.5049-2.9802-5.7114-0.21926-1.0984-0.22049-3.073-0.0026-4.154 0.82577-4.0964 3.6795-7.3597 7.5582-8.6429 1.3541-0.44797 1.9118-0.53144 3.5411-0.52991 1.2575 0.0012 1.5499 0.02163 2.1432 0.14993 2.9361 0.63494 5.4029 2.2224 7.0469 4.5348 0.45724 0.64316 0.93137 1.498 0.8646 1.5588-0.06359 0.0579-4.7547 1.8593-4.8413 1.8591-0.02783-6.5e-5 -0.13841-0.1391-0.24573-0.30896-0.26507-0.41955-1.0419-1.1944-1.5258-1.5219-1.2136-0.82136-2.6907-1.1885-4.1084-1.0213-2.6046 0.30718-4.6638 2.1629-5.2322 4.7153-0.16081 0.72204-0.146 1.9242 0.0328 2.6628 0.15465 0.63884 0.53023 1.4999 0.87461 2.0053 0.31502 0.46224 1.0229 1.1824 1.4938 1.5196 1.7215 1.233 4.1045 1.4556 6.0125 0.56144 1.0144-0.47536 1.9097-1.2179 2.45-2.0318 0.13092-0.19724 0.25669-0.35862 0.27949-0.35862 0.04957 0 4.8719 1.7933 4.9067 1.8247 0.04096 0.03691-0.45448 0.89241-0.85986 1.4848-1.5289 2.2341-3.8839 3.8796-6.501 4.5425-1.3596 0.34439-2.9413 0.4386-4.2848 0.2552z"/>
      <path fill="#d22f27" stroke="#d22f27" stroke-width="0.9" d="m27.559 23.684a12.331 12.331 0 0 0-1.7012 0.19726 12.331 12.331 0 0 0-10.055 12.176 12.331 12.331 0 0 0 10.168 12.084 12.331 12.331 0 0 0 13.715-7.8262l-6.877-2.5684a5.0024 5.0024 0 0 1-4.6758 3.2559 5.0024 5.0024 0 0 1-5.002-5.002 5.0024 5.0024 0 0 1 5.002-5.002 5.0024 5.0024 0 0 1 4.6699 3.209l6.8418-2.627a12.331 12.331 0 0 0-12.086-7.8965z"/>
      <circle cx="28.1" cy="36" r="4.999" fill="#f1b31c" stroke="#f1b31c" stroke-width="2.0019"/>
    </g>
  </g>
  <g id="line">
    <g stroke-width="2">
      <rect x="5" y="17" width="62" height="38" fill="none" stroke="#000" stroke-linecap="round" stroke-linejoin="round" stroke-width="2"/>
    </g>
  </g>
  <g id="grid" display="none">
    <g id="grid-lines">
      <path fill="#b3b3b3" d="m68 4v64h-64v-64h64m4-4h-72v72h72z"/>
      <g fill="none" stroke="#00a5ff" stroke-miterlimit="10" stroke-width="0.1">
        <path d="m12.923 10.958h46.154a1.9231 1.9231 0 0 1 1.9231 1.9231v46.154a1.9231 1.9231 0 0 1-1.9231 1.9231h-46.154a1.9231 1.9231 0 0 1-1.9231-1.9231v-46.154a1.923 1.923 0 0 1 1.923-1.923z"/>
        <rect x="16" y="4" rx="2.2537" width="40" height="64"/>
        <rect x="16" y="4" rx="2.2537" width="40" height="64" transform="rotate(90,36,36)"/>
        <circle id="circle-b7ae0ba1" cx="36" cy="36" r="29"/>
      </g>
    </g>
  </g>
</svg>
