<svg id="emoji" viewBox="0 0 72 72" xmlns="http://www.w3.org/2000/svg">
  <g id="grid">
    <path fill="#b3b3b3" d="m68,4v64H4V4h64M72,0H0v72h72V0Z"/>
    <path fill="none" stroke="#00a5ff" stroke-miterlimit="10" stroke-width="0.1" d="m12.923,10.9583h46.1539c1.0621,0,1.9231.861,1.9231,1.9231h0v46.1538c0,1.0621-.861,1.9231-1.9231,1.9231H12.9231c-1.0621,0-1.9231-.861-1.9231-1.9231h0V12.8813c0-1.062.861-1.923,1.923-1.923h0Z"/>
    <rect x="16" y="4" rx="2.2537" ry="2.2537" width="40" height="64" fill="none" stroke="#00a5ff" stroke-miterlimit="10" stroke-width="0.1"/>
    <rect x="4" y="16" rx="2.2537" ry="2.2537" width="64" height="40" fill="none" stroke="#00a5ff" stroke-miterlimit="10" stroke-width="0.1"/>
    <circle cx="36" cy="36" r="29" fill="none" stroke="#00a5ff" stroke-miterlimit="10" stroke-width="0.1"/>
  </g>
  <g id="color">
    <path fill="#d0cfce" d="m13.6707,21.3098c1.4142,9.8995,26.8701,35.3553,36.7696,36.7696,0,0,5.6569,0,8.4853-5.6569l-9.1924-9.1924-3.5355,3.5355c-7.0711-1.4142-19.799-14.1421-21.2132-21.2132l3.5355-3.5355-9.1924-9.1924c-5.6569,2.8284-5.6569,8.4853-5.6569,8.4853Z"/>
    <path fill="#9b9b9a" d="m25,26l-9.0844-8.9594,2.0831-2.729c.364-.4769,1.06-.5357,1.4989-.1267l8.2523,7.6901-2.75,4.125Z"/>
    <polygon fill="#9b9b9a" points="54.8934 55.9074 46.4524 47.5733 49.68 44.3223 58.1993 52.8075 54.8934 55.9074"/>
  </g>
  <g id="line">
    <path fill="none" stroke="#000" stroke-linecap="round" stroke-linejoin="round" stroke-width="2" d="m13.6707,21.3098c1.4142,9.8995,26.8701,35.3553,36.7696,36.7696,0,0,5.6569,0,8.4853-5.6569l-9.1924-9.1924-3.5355,3.5355c-7.0711-1.4142-19.799-14.1421-21.2132-21.2132l3.5355-3.5355-9.1924-9.1924c-5.6569,2.8284-5.6569,8.4853-5.6569,8.4853Z"/>
    <path fill="none" stroke="#000" stroke-linecap="round" stroke-linejoin="round" stroke-width="2" d="m13.6707,21.3098c1.4142,9.8995,26.8701,35.3553,36.7696,36.7696,0,0,5.6569,0,8.4853-5.6569l-9.1924-9.1924-3.5355,3.5355c-7.0711-1.4142-19.799-14.1421-21.2132-21.2132l3.5355-3.5355-9.1924-9.1924c-5.6569,2.8284-5.6569,8.4853-5.6569,8.4853Z"/>
  </g>
</svg>
