<svg id="emoji" viewBox="0 0 72 72" xmlns="http://www.w3.org/2000/svg">
  <g id="grid">
    <path fill="#b3b3b3" d="M68,4V68H4V4H68m4-4H0V72H72V0Z"/>
    <path fill="none" stroke="#00a5ff" stroke-miterlimit="10" stroke-width="0.1" d="M12.923,10.9583H59.0769A1.9231,1.9231,0,0,1,61,12.8814V59.0352a1.9231,1.9231,0,0,1-1.9231,1.9231H12.9231A1.9231,1.9231,0,0,1,11,59.0352V12.8813A1.923,1.923,0,0,1,12.923,10.9583Z"/>
    <rect x="16" y="4" rx="2.2537" width="40" height="64" fill="none" stroke="#00a5ff" stroke-miterlimit="10" stroke-width="0.1"/>
    <rect x="16" y="4" rx="2.2537" width="40" height="64" transform="translate(72) rotate(90)" fill="none" stroke="#00a5ff" stroke-miterlimit="10" stroke-width="0.1"/>
    <circle cx="36" cy="36" r="29" fill="none" stroke="#00a5ff" stroke-miterlimit="10" stroke-width="0.1"/>
  </g>
  <g id="color">
    <rect x="13" y="32" width="46" height="26" fill="#9B9B9A" stroke="none" stroke-linecap="round" stroke-linejoin="round" stroke-miterlimit="10" stroke-width="2"/>
    <path fill="#D0CFCE" stroke="none" stroke-linecap="round" stroke-linejoin="round" stroke-miterlimit="10" stroke-width="2" d="M21,55h-1c-1.6569,0-3-1.3431-3-3V38c0-1.6569,1.3431-3,3-3h1c1.6569,0,3,1.3431,3,3v14C24,53.6569,22.6569,55,21,55z"/>
    <rect x="17" y="13" width="38" height="19" fill="#9B9B9A" stroke="none" stroke-linecap="round" stroke-linejoin="round" stroke-miterlimit="10" stroke-width="2"/>
    <rect x="29" y="17" width="22" height="15" fill="#FFFFFF" stroke="none" stroke-linecap="round" stroke-linejoin="round" stroke-miterlimit="10" stroke-width="2"/>
    <rect x="46" y="37" width="9" height="8" fill="#B1CC33" stroke="none" stroke-linecap="round" stroke-linejoin="round" stroke-miterlimit="10" stroke-width="2"/>
  </g>
  <g id="hair"/>
  <g id="skin"/>
  <g id="skin-shadow"/>
  <g id="line">
    <rect x="13" y="32" width="46" height="26" fill="none" stroke="#000000" stroke-linecap="round" stroke-linejoin="round" stroke-miterlimit="10" stroke-width="2"/>
    <path fill="none" stroke="#000000" stroke-linecap="round" stroke-linejoin="round" stroke-miterlimit="10" stroke-width="2" d="M21,55h-1c-1.6569,0-3-1.3431-3-3V38c0-1.6569,1.3431-3,3-3h1c1.6569,0,3,1.3431,3,3v14C24,53.6569,22.6569,55,21,55z"/>
    <rect x="17" y="13" width="38" height="19" fill="none" stroke="#000000" stroke-linecap="round" stroke-linejoin="round" stroke-miterlimit="10" stroke-width="2"/>
    <rect x="29" y="17" width="22" height="15" fill="none" stroke="#000000" stroke-linecap="round" stroke-linejoin="round" stroke-miterlimit="10" stroke-width="2"/>
    <circle cx="29" cy="39" r="2" fill="#000000" stroke="none"/>
    <circle cx="35" cy="39" r="2" fill="#000000" stroke="none"/>
    <circle cx="41" cy="39" r="2" fill="#000000" stroke="none"/>
    <circle cx="29" cy="45" r="2" fill="#000000" stroke="none"/>
    <circle cx="35" cy="45" r="2" fill="#000000" stroke="none"/>
    <circle cx="41" cy="45" r="2" fill="#000000" stroke="none"/>
    <circle cx="29" cy="51" r="2" fill="#000000" stroke="none"/>
    <circle cx="35" cy="51" r="2" fill="#000000" stroke="none"/>
    <circle cx="41" cy="51" r="2" fill="#000000" stroke="none"/>
    <rect x="46" y="37" width="9" height="8" fill="none" stroke="#000000" stroke-linecap="round" stroke-linejoin="round" stroke-miterlimit="10" stroke-width="2"/>
  </g>
</svg>
