<svg id="emoji" xmlns="http://www.w3.org/2000/svg" viewBox="0 0 72 72">
  <g id="grid">
    <path d="M68,4V68H4V4H68m4-4H0V72H72V0Z" fill="#b3b3b3"/>
    <path d="M12.923,10.9583H59.0769A1.9231,1.9231,0,0,1,61,12.8814V59.0352a1.9231,1.9231,0,0,1-1.9231,1.9231H12.9231A1.9231,1.9231,0,0,1,11,59.0352V12.8813A1.923,1.923,0,0,1,12.923,10.9583Z" fill="none" stroke="#00a5ff" stroke-miterlimit="10" stroke-width="0.1"/>
    <rect x="16" y="4" width="40" height="64" rx="2.2537" fill="none" stroke="#00a5ff" stroke-miterlimit="10" stroke-width="0.1"/>
    <rect x="16" y="4" width="40" height="64" rx="2.2537" transform="rotate(90 36 36)" fill="none" stroke="#00a5ff" stroke-miterlimit="10" stroke-width="0.1"/>
    <circle cx="36" cy="36" r="29" fill="none" stroke="#00a5ff" stroke-miterlimit="10" stroke-width="0.1"/>
  </g>
  <g id="color">
    <path fill="#9B9B9A" stroke="none" stroke-width="2" stroke-linecap="round" stroke-linejoin="round" stroke-miterlimit="10" d="M52.5,64.7644h-33c-0.5523,0-1-0.4477-1-1v-56c0-0.5523,0.4477-1,1-1h33c0.5523,0,1,0.4477,1,1v56 C53.5,64.3167,53.0523,64.7644,52.5,64.7644z"/>
    <path fill="#D0CFCE" stroke="none" stroke-width="2" stroke-linecap="round" stroke-linejoin="round" stroke-miterlimit="10" d="M48.0339,55H23.9661C23.4325,55,23,54.5675,23,54.0339V13.9661C23,13.4325,23.4325,13,23.9661,13h24.0678 C48.5675,13,49,13.4325,49,13.9661v40.0678C49,54.5675,48.5675,55,48.0339,55z"/>
    <polygon fill="#FFFFFF" stroke="none" stroke-width="2" stroke-linecap="round" stroke-linejoin="round" stroke-miterlimit="10" points="31,10 41,10 41,10 31,10"/>
  </g>
  <g id="hair"/>
  <g id="skin"/>
  <g id="skin-shadow"/>
  <g id="line">
    <path fill="none" stroke="#000000" stroke-width="2" stroke-linecap="round" stroke-linejoin="round" stroke-miterlimit="10" d="M52.5,64.7644h-33c-0.5523,0-1-0.4477-1-1v-56c0-0.5523,0.4477-1,1-1h33c0.5523,0,1,0.4477,1,1v56 C53.5,64.3167,53.0523,64.7644,52.5,64.7644z"/>
    <path fill="none" stroke="#000000" stroke-width="2" stroke-linecap="round" stroke-linejoin="round" stroke-miterlimit="10" d="M48.0339,55H23.9661C23.4325,55,23,54.5675,23,54.0339V13.9661C23,13.4325,23.4325,13,23.9661,13h24.0678 C48.5675,13,49,13.4325,49,13.9661v40.0678C49,54.5675,48.5675,55,48.0339,55z"/>
    <circle stroke="#000000" stroke-miterlimit="10" cx="36" cy="60" r="2" fill="#000000"/>
    <polygon fill="none" stroke="#000000" stroke-width="2" stroke-linecap="round" stroke-linejoin="round" stroke-miterlimit="10" points="31,10 41,10 41,10 31,10"/>
  </g>
</svg>
