<?xml version="1.0" encoding="UTF-8"?>
<svg id="emoji" xmlns="http://www.w3.org/2000/svg" viewBox="0 0 72 72">
  <g id="grid">
    <path d="m68,4v64H4V4h64M72,0H0v72h72V0Z" fill="#b3b3b3"/>
    <path d="m12.923,10.9583h46.1539c1.0621,0,1.9231.861,1.9231,1.9231h0v46.1538c0,1.0621-.861,1.9231-1.9231,1.9231H12.9231c-1.0621,0-1.9231-.861-1.9231-1.9231h0V12.8813c0-1.062.861-1.923,1.923-1.923h0Z" fill="none" stroke="#00a5ff" stroke-miterlimit="10" stroke-width=".1"/>
    <rect x="16" y="4" width="40" height="64" rx="2.2537" ry="2.2537" fill="none" stroke="#00a5ff" stroke-miterlimit="10" stroke-width=".1"/>
    <rect x="4" y="16" width="64" height="40" rx="2.2537" ry="2.2537" fill="none" stroke="#00a5ff" stroke-miterlimit="10" stroke-width=".1"/>
    <circle cx="36" cy="36" r="29" fill="none" stroke="#00a5ff" stroke-miterlimit="10" stroke-width=".1"/>
  </g>
  <g id="color">
    <rect x="10.0579" y="19.9459" width="51.5526" height="32.8773" fill="#fff"/>
    <rect x="34.375" y="19.8844" width="22.5625" height="33.125" fill="#b399c8"/>
    <path d="m36.5686,21.8042v29.2855c0,.1053-.02.2011-.05.2969-.13.383-.51.6608-.95.6608h-15.34c-.44,0-.82-.2778-.95-.6608-.03-.0958-.05-.1915-.05-.2969v-29.2855c0-.1053.02-.2011.05-.2969.13-.3831.51-.6608.95-.6608h15.34c.44,0,.82.2777.95.6608.03.0958.05.1916.05.2969Z" fill="#d0cfce"/>
  </g>
  <g id="line">
    <path d="m41.7094,20.8465h17.8015c.5523,0,1,.4477,1,1v29.2008c0,.5523-.4477,1-1,1h-17.8015" fill="none" stroke="#000" stroke-linecap="round" stroke-linejoin="round" stroke-width="2"/>
    <path d="m36.5686,21.8042v29.2855c0,.1053-.02.2011-.05.2969-.13.383-.51.6608-.95.6608h-15.34c-.44,0-.82-.2778-.95-.6608-.03-.0958-.05-.1915-.05-.2969v-29.2855c0-.1053.02-.2011.05-.2969.13-.3831.51-.6608.95-.6608h15.34c.44,0,.82.2777.95.6608.03.0958.05.1916.05.2969Z" fill="none" stroke="#000" stroke-linecap="round" stroke-linejoin="round" stroke-width="2"/>
    <path d="m13.75,52.0473h-1.609c-.5523,0-1-.4477-1-1v-29.2008c0-.5523.4477-1,1-1h1.609" fill="none" stroke="#000" stroke-linecap="round" stroke-linejoin="round" stroke-width="2"/>
    <line x1="25.4131" y1="36.4371" x2="27.1909" y2="36.4371" fill="none" stroke="#000" stroke-linecap="round" stroke-linejoin="round" stroke-width="2"/>
    <path d="m30.0464,39.9502h-3.7444v-5.1343c0-1.034.8382-1.8722,1.8722-1.8722h0c.9693,0,1.7666.7367,1.8625,1.6807" fill="none" stroke="#000" stroke-linecap="round" stroke-linejoin="round" stroke-width="2"/>
    <path d="m53.2365,32.9437h0c-1.0579,0-1.9155-.8576-1.9155-1.9155v-3.1689c0-1.0579.8576-1.9156,1.9155-1.9156h0c1.058,0,1.9156.8577,1.9156,1.9156v3.1689c0,1.0579-.8576,1.9155-1.9156,1.9155Z" fill="none" stroke="#000" stroke-linecap="round" stroke-linejoin="round" stroke-width="2"/>
    <path d="m43.9538,27.6606c.2005-.9798,1.0674-1.7169,2.1065-1.7169h0c.5937,0,1.1313.2407,1.5204.6298.6053.6053.5494,1.6111-.0185,2.2515l-3.6521,4.1187h4.3004" fill="none" stroke="#000" stroke-linecap="round" stroke-linejoin="round" stroke-width="2"/>
  </g>
</svg>