<svg id="emoji" xmlns="http://www.w3.org/2000/svg" viewBox="0 0 72 72">
  <title>1F9FE</title>
  <g id="grid">
    <path d="M68,4V68H4V4H68m4-4H0V72H72V0Z" fill="#b3b3b3"/>
    <path d="M12.923,10.9583H59.0769A1.9231,1.9231,0,0,1,61,12.8814V59.0352a1.9231,1.9231,0,0,1-1.9231,1.9231H12.9231A1.9231,1.9231,0,0,1,11,59.0352V12.8813A1.923,1.923,0,0,1,12.923,10.9583Z" fill="none" stroke="#00a5ff" stroke-miterlimit="10" stroke-width="0.1"/>
    <rect x="16" y="4" width="40" height="64" rx="2.2537" ry="2.2537" fill="none" stroke="#00a5ff" stroke-miterlimit="10" stroke-width="0.1"/>
    <rect x="16" y="4" width="40" height="64" rx="2.2537" ry="2.2537" transform="translate(72) rotate(90)" fill="none" stroke="#00a5ff" stroke-miterlimit="10" stroke-width="0.1"/>
    <circle cx="36" cy="36" r="29" fill="none" stroke="#00a5ff" stroke-miterlimit="10" stroke-width="0.1"/>
  </g>
  <g id="color">
    <polygon points="48.031 57.253 48.031 53.067 48.031 20.375 48.031 15.646 48.031 14.658 23.729 14.658 23.729 15.646 23.729 20.375 23.729 53.067 23.729 57.253 48.031 57.253" fill="#d0cfce"/>
  </g>
  <g id="line">
    <polyline points="23.729 15.428 23.729 20.076 23.729 52.206 23.729 56.32" fill="none" stroke="#000" stroke-linecap="round" stroke-linejoin="round" stroke-width="2"/>
    <polyline points="48.031 56.32 48.031 52.206 48.031 20.076 48.031 15.428" fill="none" stroke="#000" stroke-linecap="round" stroke-linejoin="round" stroke-width="2"/>
    <polyline points="23.729 15.428 26.966 13.725 28.993 15.561 32.667 13.962 35.75 15.591 39.297 14.05 42.253 15.413 45.252 13.962 47.976 15.36" fill="none" stroke="#000" stroke-linecap="round" stroke-linejoin="round" stroke-width="2"/>
    <polyline points="48.031 56.32 44.507 58.186 42.479 56.349 38.805 57.949 35.722 56.32 32.175 57.86 29.219 56.498 26.22 57.949 23.776 56.434" fill="none" stroke="#000" stroke-linecap="round" stroke-linejoin="round" stroke-width="2"/>
    <line x1="27.2749" y1="28.2126" x2="35.6019" y2="28.2126" fill="none" stroke="#000" stroke-linecap="round" stroke-linejoin="round" stroke-width="2"/>
    <line x1="40.7287" y1="28.2154" x2="44.3164" y2="28.2154" fill="none" stroke="#000" stroke-linecap="round" stroke-linejoin="round" stroke-width="2"/>
    <line x1="27.2749" y1="33.7471" x2="34.9818" y2="33.7471" fill="none" stroke="#000" stroke-linecap="round" stroke-linejoin="round" stroke-width="2"/>
    <line x1="40.7287" y1="33.7519" x2="44.3164" y2="33.7519" fill="none" stroke="#000" stroke-linecap="round" stroke-linejoin="round" stroke-width="2"/>
    <line x1="27.2749" y1="39.2615" x2="34.0073" y2="39.2615" fill="none" stroke="#000" stroke-linecap="round" stroke-linejoin="round" stroke-width="2"/>
    <line x1="40.7287" y1="39.2885" x2="44.3164" y2="39.2885" fill="none" stroke="#000" stroke-linecap="round" stroke-linejoin="round" stroke-width="2"/>
    <line x1="40.7287" y1="45.8216" x2="44.3164" y2="45.8216" fill="none" stroke="#000" stroke-linecap="round" stroke-linejoin="round" stroke-width="2"/>
  </g>
</svg>
