<svg id="emoji" x="0" y="0" viewBox="0 0 72 72" version="1.1" xmlns="http://www.w3.org/2000/svg">
  <g id="grid">
    <path fill="#B3B3B3" d="M68,4v64H4V4H68 M72,0H0v72h72V0z"/>
    <path fill="none" stroke="#00A5FF" stroke-miterlimit="10" stroke-width="0.1" d="M12.923,10.9583h46.1539 c1.0621,0,1.9231,0.861,1.9231,1.9231v0v46.1538c0,1.0621-0.861,1.9231-1.9231,1.9231H12.9231 c-1.0621,0-1.9231-0.861-1.9231-1.9231l0,0V12.8813C11,11.8193,11.861,10.9583,12.923,10.9583L12.923,10.9583z"/>
    <path fill="none" stroke="#00A5FF" stroke-miterlimit="10" stroke-width="0.1" d="M18.2537,4h35.4926C54.991,4,56,5.009,56,6.2537 v59.4926C56,66.991,54.991,68,53.7463,68H18.2537C17.009,68,16,66.991,16,65.7463V6.2537C16,5.009,17.009,4,18.2537,4z"/>
    <path fill="none" stroke="#00A5FF" stroke-miterlimit="10" stroke-width="0.1" d="M68,18.2537v35.4926 C68,54.991,66.991,56,65.7463,56H6.2537C5.009,56,4,54.991,4,53.7463V18.2537C4,17.009,5.009,16,6.2537,16h59.4926 C66.991,16,68,17.009,68,18.2537z"/>
    <circle cx="36" cy="36" r="29" fill="none" stroke="#00A5FF" stroke-miterlimit="10" stroke-width="0.1"/>
  </g>
  <g id="color">
    <path fill="#ea5a47" d="m64.05 7.95v5.121c-27.56 0-51.03 23.42-51.03 50.98h-5.067c0-30.99 25.11-56.1 56.1-56.1z"/>
    <path fill="#f4aa41" d="m64.05 13.07v5.12c-24.4 0-45.86 21.46-45.86 45.86h-5.178c0-27.56 23.48-50.98 51.04-50.98z"/>
    <path fill="#fcea2b" d="m64.05 18.19v5.121c-21.51 0-40.74 19.25-40.74 40.74h-5.121c0-24.4 21.46-45.86 45.86-45.86z"/>
    <path fill="#b1cc33" d="m64.05 23.31v5.121c-18.88 0-35.61 16.83-35.61 35.62l-5.131-8.8e-5c0-21.48 19.23-40.74 40.74-40.74z"/>
    <path fill="#92d3f5" d="m64.05 28.43v5.12c-16.34 0-30.5 14.22-30.5 30.5h-5.11c0-18.78 16.73-35.62 35.61-35.62z"/>
    <path fill="#b399c8" d="m64.05 33.55v5.121c-14.02 0-25.38 11.36-25.38 25.38h-5.121c0-16.28 14.16-30.5 30.5-30.5z"/>
  </g>
  <g id="line" stroke-miterlimit="10">
    <path fill="none" stroke="#000" stroke-linecap="round" stroke-linejoin="round" stroke-miterlimit="10" stroke-width="2" d="m64.05 7.95v5.121c-27.56 0-51.04 23.42-51.04 50.98h-5.063c0-30.99 25.11-56.1 56.1-56.1z"/>
    <path fill="none" stroke="#000" stroke-linecap="round" stroke-linejoin="round" stroke-miterlimit="10" stroke-width="2" d="m64.05 13.07v5.12c-24.4 0-45.86 21.46-45.86 45.86h-5.174c0-27.56 23.47-50.98 51.03-50.98z"/>
    <path fill="none" stroke="#000" stroke-linecap="round" stroke-linejoin="round" stroke-miterlimit="10" stroke-width="2" d="m64.05 18.19v5.121c-21.51 0-40.74 19.25-40.74 40.74h-5.121c0-24.4 21.46-45.86 45.86-45.86z"/>
    <path fill="none" stroke="#000" stroke-linecap="round" stroke-linejoin="round" stroke-miterlimit="10" stroke-width="2" d="m64.05 23.31v5.121c-18.88 0-35.61 16.83-35.61 35.62h-5.131c0-21.48 19.23-40.74 40.74-40.74z"/>
    <path fill="none" stroke="#000" stroke-linecap="round" stroke-linejoin="round" stroke-miterlimit="10" stroke-width="2" d="m64.05 28.43v5.12c-16.34 0-30.5 14.22-30.5 30.5h-5.11c0-18.78 16.73-35.62 35.61-35.62z"/>
    <path fill="none" stroke="#000" stroke-linecap="round" stroke-linejoin="round" stroke-miterlimit="10" stroke-width="2" d="m64.05 33.55v5.121c-14.02 0-25.38 11.36-25.38 25.38h-5.121c0-16.28 14.16-30.5 30.5-30.5z"/>
  </g>
</svg>
