<svg id="emoji" viewBox="0 0 72 72" xmlns="http://www.w3.org/2000/svg">
  <g id="grid">
    <path fill="#b2b2b2" d="M68,4V68H4V4H68m4-4H0V72H72V0Z"/>
    <path fill="none" stroke="#00a4ff" stroke-miterlimit="10" stroke-width="0.1" d="M12.923,10.9583H59.0769A1.9231,1.9231,0,0,1,61,12.8814V59.0352a1.9231,1.9231,0,0,1-1.9231,1.9231H12.9231A1.9231,1.9231,0,0,1,11,59.0352V12.8813a1.923,1.923,0,0,1,1.923-1.923Z"/>
    <rect x="16" y="4" rx="2.2537" width="40" height="64" fill="none" stroke="#00a4ff" stroke-miterlimit="10" stroke-width="0.1"/>
    <rect x="16" y="4" rx="2.2537" width="40" height="64" transform="translate(72) rotate(90)" fill="none" stroke="#00a4ff" stroke-miterlimit="10" stroke-width="0.1"/>
    <circle cx="36" cy="36" r="29" fill="none" stroke="#00a4ff" stroke-miterlimit="10" stroke-width="0.1"/>
  </g>
  <g id="line-supplement">
    <path fill="#000000" d="M17,37A28.001,28.001,0,0,1,43.5465,9.0374,27.9995,27.9995,0,1,0,36,64q.7312,0,1.4535-.0374A28.0059,28.0059,0,0,1,17,37Z"/>
  </g>
  <g id="color">
    <circle cx="36" cy="36" r="28" fill="#fcea2b" stroke="#3f3f3f" stroke-linecap="round" stroke-linejoin="round" stroke-width="2"/>
    <path fill="#3f3f3f" d="M17,37A28.001,28.001,0,0,1,43.5465,9.0374,27.9995,27.9995,0,1,0,36,64q.7312,0,1.4535-.0374A28.0059,28.0059,0,0,1,17,37Z"/>
  </g>
  <g id="line">
    <circle cx="36" cy="36" r="28" fill="none" stroke="#000" stroke-linecap="round" stroke-linejoin="round" stroke-width="2"/>
    <path fill="none" stroke="#000" stroke-linecap="round" stroke-linejoin="round" stroke-width="2" d="M17,37A28.001,28.001,0,0,1,43.5465,9.0374,27.9995,27.9995,0,1,0,36,64q.7312,0,1.4535-.0374A28.0059,28.0059,0,0,1,17,37Z"/>
  </g>
</svg>
