<svg id="emoji" viewBox="0 0 72 72" xmlns="http://www.w3.org/2000/svg">
  <g id="grid">
    <path fill="#b3b3b3" d="M68,4V68H4V4H68m4-4H0V72H72V0Z"/>
    <path fill="none" stroke="#00a5ff" stroke-miterlimit="10" stroke-width="0.1" d="M12.923,10.9583H59.0769A1.9231,1.9231,0,0,1,61,12.8814V59.0352a1.9231,1.9231,0,0,1-1.9231,1.9231H12.9231A1.9231,1.9231,0,0,1,11,59.0352V12.8813A1.923,1.923,0,0,1,12.923,10.9583Z"/>
    <rect x="16" y="4" rx="2.2537" width="40" height="64" fill="none" stroke="#00a5ff" stroke-miterlimit="10" stroke-width="0.1"/>
    <rect x="16" y="4" rx="2.2537" width="40" height="64" transform="rotate(90 36 36)" fill="none" stroke="#00a5ff" stroke-miterlimit="10" stroke-width="0.1"/>
    <circle cx="36" cy="36" r="29" fill="none" stroke="#00a5ff" stroke-miterlimit="10" stroke-width="0.1"/>
  </g>
  <g id="color">
    <path fill="#FCEA2B" stroke="none" d="M7.3634,42.4095c4.5525,6.1703,11.874,10.1726,20.1303,10.1726c13.8071,0,25-11.1929,25-25 c0-8.5226-4.2646-16.0492-10.7763-20.5621c13.0383,2.8385,22.7812,14.4426,22.7812,28.3317c0,16.0163-12.9837,29-29,29 C21.9109,64.3517,10.5097,55.0229,7.3634,42.4095z"/>
    <path fill="#F1B31C" stroke="none" d="M45.8373,9.2108c8.25,4.25,16.1946,11.8724,16.1946,24.6742c0,15.4494-12.5242,27.9735-27.9735,27.9735 c-9.2431,0-19.7524-4.8353-24.294-15.5436c0,0,4.3805,18.6568,25.7189,18.665c19.327,0.0074,28.0419-20.6218,28.0419-20.6218 C70.033,12.3815,45.8373,9.2108,45.8373,9.2108z"/>
  </g>
  <g id="hair"/>
  <g id="skin"/>
  <g id="skin-shadow"/>
  <g id="line">
    <path fill="none" stroke="#000000" stroke-linecap="round" stroke-linejoin="round" stroke-miterlimit="10" stroke-width="2" d="M7.3634,42.4095c4.5525,6.1703,11.874,10.1726,20.1303,10.1726c13.8071,0,25-11.1929,25-25 c0-8.5226-4.2646-16.0492-10.7763-20.5621c13.0383,2.8385,22.7812,14.4426,22.7812,28.3317c0,16.0163-12.9837,29-29,29 C21.9109,64.3517,10.5097,55.0229,7.3634,42.4095z"/>
  </g>
</svg>
