<svg id="emoji" xmlns="http://www.w3.org/2000/svg" viewBox="0 0 72 72">
  <g id="grid">
    <path d="M68,4V68H4V4H68m4-4H0V72H72V0Z" fill="#b2b2b2"/>
    <path d="M12.923,10.9583H59.0769A1.9231,1.9231,0,0,1,61,12.8814V59.0352a1.9231,1.9231,0,0,1-1.9231,1.9231H12.9231A1.9231,1.9231,0,0,1,11,59.0352V12.8813A1.923,1.923,0,0,1,12.923,10.9583Z" fill="none" stroke="#00a4ff" stroke-miterlimit="10" stroke-width="0.1"/>
    <rect x="16" y="4" width="40" height="64" rx="2.2537" fill="none" stroke="#00a4ff" stroke-miterlimit="10" stroke-width="0.1"/>
    <rect x="16" y="4" width="40" height="64" rx="2.2537" transform="translate(72) rotate(90)" fill="none" stroke="#00a4ff" stroke-miterlimit="10" stroke-width="0.1"/>
    <circle cx="36" cy="36" r="29" fill="none" stroke="#00a4ff" stroke-miterlimit="10" stroke-width="0.1"/>
  </g>
  <g id="color">
    <circle cx="36" cy="36" r="28" fill="#fcea2b" stroke="#fcea2b" stroke-linecap="round" stroke-linejoin="round" stroke-width="2"/>
    <path d="M29,62c20.0033,0,16.6634-52,16.6634-52s24.9582,7,16.6388,35S13.4011,62,29,62Z" fill="#f1b31c" stroke-miterlimit="10" stroke-width="0.204" opacity="0.4"/>
  </g>
  <g id="line">
    <rect x="34" y="37" width="4" height="2" stroke-width="0.25" stroke="#000" stroke-linecap="round" stroke-linejoin="round"/>
    <path d="M36,64A28,28,0,0,1,36,8" fill="none" stroke="#000" stroke-linecap="round" stroke-linejoin="round" stroke-width="2"/>
    <path d="M36,8a28,28,0,0,1,0,56" fill="none" stroke="#000" stroke-linecap="round" stroke-linejoin="round" stroke-width="2"/>
    <path d="M36,39.5c1.1046,0,2.5-.8954,2.5-2H34A2,2,0,0,0,36,39.5Z" fill="none" stroke="#000" stroke-linecap="round" stroke-linejoin="round" stroke-width="2"/>
    <path d="m26.92 45.92s3.705 3.389 9.652 3.771c6.942 0.3136 10.42-3.695 10.42-3.695" fill="none" stroke="#000" stroke-linecap="round" stroke-linejoin="round" stroke-width="2"/>
    <circle cx="26.5" cy="27.5" r="5" fill="none" stroke="#000" stroke-linecap="round" stroke-linejoin="round" stroke-width="2"/>
    <circle cx="45.5" cy="27.5" r="5" fill="none" stroke="#000" stroke-linecap="round" stroke-linejoin="round" stroke-width="2"/>
    <circle cx="45.5" cy="27.5" r="5" fill="#fff" stroke="#000" stroke-linecap="round" stroke-linejoin="round"/>
    <circle cx="43.45" cy="27.75" r="1.75" stroke="#000" stroke-linecap="round" stroke-linejoin="round" stroke-width="2"/>
    <circle cx="26.5" cy="27.5" r="5" fill="#fff" stroke="#000" stroke-linecap="round" stroke-linejoin="round"/>
    <circle cx="24.25" cy="27.75" r="1.75" stroke="#000" stroke-linecap="round" stroke-linejoin="round" stroke-width="2"/>
  </g>
</svg>
