<svg id="emoji" viewBox="0 0 72 72" xmlns="http://www.w3.org/2000/svg">
  <g id="grid">
    <path fill="#b2b2b2" d="M68,4V68H4V4H68m4-4H0V72H72V0Z"/>
    <path fill="none" stroke="#00a4ff" stroke-miterlimit="10" stroke-width="0.1" d="M12.923,10.9583H59.0769A1.9231,1.9231,0,0,1,61,12.8814V59.0352a1.9231,1.9231,0,0,1-1.9231,1.9231H12.9231A1.9231,1.9231,0,0,1,11,59.0352V12.8813A1.923,1.923,0,0,1,12.923,10.9583Z"/>
    <rect x="16" y="4" rx="2.2537" width="40" height="64" fill="none" stroke="#00a4ff" stroke-miterlimit="10" stroke-width="0.1"/>
    <rect x="16" y="4" rx="2.2537" width="40" height="64" transform="translate(72) rotate(90)" fill="none" stroke="#00a4ff" stroke-miterlimit="10" stroke-width="0.1"/>
    <circle cx="36" cy="36" r="29" fill="none" stroke="#00a4ff" stroke-miterlimit="10" stroke-width="0.1"/>
  </g>
  <g id="line-supplement">
    <path fill="#000000" stroke="none" stroke-linecap="round" stroke-linejoin="round" stroke-width="2" d="m 36 8 a 28 28 0 0 1 4.69 .4 28 28 0 0 0 -4.69 -.4 z m -1.32 .09 a 28 28 0 0 0 -26.68 27.91 28 28 0 0 0 20.49 26.96 28 28 0 0 0 26.51 -27.96 28.01 28.01 0 0 0 -20.32 -26.91 z m 6.12 .33 a 28 28 0 0 1 4.48 1.17 28 28 0 0 0 -4.48 -1.17 z m 4.65 1.23 a 28 28 0 0 1 4.18 1.9 28 28 0 0 0 -4.18 -1.9 z m 4.35 2 a 28 28 0 0 1 3.81 2.6 28 28 0 0 0 -3.81 -2.6 z m 3.92 2.69 a 28 28 0 0 1 3.36 3.24 28 28 0 0 0 -3.36 -3.24 z m 3.4 3.29 a 28 28 0 0 1 2.77 3.79 28 28 0 0 0 -2.77 -3.79 z m 2.81 3.85 a 28 28 0 0 1 2.07 4.16 28 28 0 0 0 -2.07 -4.16 z m 2.13 4.32 a 28 28 0 0 1 1.32 4.43 28 28 0 0 0 -1.32 -4.43 z m 1.35 4.58 a 28 28 0 0 1 .55 4.6 28 28 0 0 0 -.55 -4.6 z m .56 4.73 a 28 28 0 0 1 -.24 4.62 28 28 0 0 0 .26 -3.73 28 28 0 0 0 -.02 -.89 z m -.33 5.11 a 28 28 0 0 1 -.85 3.75 28 28 0 0 0 .85 -3.75 z m -1.27 5.01 a 28 28 0 0 1 -1.19 2.89 28 28 0 0 0 1.19 -2.89 z m -1.79 4.1 a 28 28 0 0 1 -2.06 3.26 28 28 0 0 0 2.06 -3.26 z m -2.32 3.65 a 28 28 0 0 1 -2.89 3.2 28 28 0 0 0 2.89 -3.2 z m -3.81 4.01 a 28 28 0 0 1 -2.51 1.97 28 28 0 0 0 2.51 -1.97 z m -3.64 2.72 a 28 28 0 0 1 -3.03 1.64 28 28 0 0 0 3.03 -1.64 z m -3.84 2.04 a 28 28 0 0 1 -4.1 1.38 28 28 0 0 0 4.1 -1.38 z m -18.4 1.25 a 28 28 0 0 0 4.24 .8 28 28 0 0 1 -4.24 -.8 z m 13.29 .33 a 28 28 0 0 1 -3.28 .51 28 28 0 0 0 3.28 -.51 z m -7.88 .55 a 28 28 0 0 0 2.01 .13 28 28 0 0 0 1.2 -.08 28 28 0 0 1 -3.21 -.05 z"/>
  </g>
  <g id="color">
    <circle cx="36" cy="36" r="28" fill="#3f3f3f" stroke="#3f3f3f" stroke-linecap="round" stroke-linejoin="round" stroke-width="2"/>
    <path fill="#fcea2b" d="M55,35A28.001,28.001,0,0,1,28.4535,62.9626,27.9995,27.9995,0,1,0,36,8q-.7312,0-1.4535.0374A28.0059,28.0059,0,0,1,55,35Z"/>
  </g>
  <g id="line">
    <circle cx="36" cy="36" r="28" fill="none" stroke="#000" stroke-linecap="round" stroke-linejoin="round" stroke-width="2"/>
    <path fill="none" stroke="#000" stroke-linecap="round" stroke-linejoin="round" stroke-width="2" d="M55,35A28.001,28.001,0,0,1,28.4535,62.9626,27.9995,27.9995,0,1,0,36,8q-.7312,0-1.4535.0374A28.0059,28.0059,0,0,1,55,35Z"/>
  </g>
</svg>
