<svg xmlns="http://www.w3.org/2000/svg" viewBox="0 0 72 72">
  <title>1F316</title>
  <g id="grid">
    <path d="M68,4V68H4V4H68m4-4H0V72H72V0Z" fill="#b2b2b2"/>
    <rect x="11" y="10.9583" width="50" height="50" rx="1.9231" fill="none" stroke="#00a4ff" stroke-miterlimit="10" stroke-width="0.1"/>
    <rect x="16" y="4" width="40" height="64" rx="2.2537" fill="none" stroke="#00a4ff" stroke-miterlimit="10" stroke-width="0.1"/>
    <rect x="16" y="4" width="40" height="64" rx="2.2537" transform="translate(72) rotate(90)" fill="none" stroke="#00a4ff" stroke-miterlimit="10" stroke-width="0.1"/>
    <circle cx="36" cy="36" r="29" fill="none" stroke="#00a4ff" stroke-miterlimit="10" stroke-width="0.1"/>
  </g>
  <g id="emoji">
    <g id="color">
      <circle cx="36" cy="36" r="28" fill="#fcea2b" stroke="#3f3f3f" stroke-linecap="round" stroke-linejoin="round" stroke-width="2"/>
      <path d="M55,35A28.001,28.001,0,0,1,28.4535,62.9626,27.9995,27.9995,0,1,0,36,8q-.7312,0-1.4535.0374A28.0059,28.0059,0,0,1,55,35Z" fill="#3f3f3f"/>
    </g>
    <g id="line">
      <circle cx="36" cy="36" r="28" fill="none" stroke="#000" stroke-linecap="round" stroke-linejoin="round" stroke-width="2"/>
      <path d="M55,35A28.001,28.001,0,0,1,28.4535,62.9626,27.9995,27.9995,0,1,0,36,8q-.7312,0-1.4535.0374A28.0059,28.0059,0,0,1,55,35Z" fill="none" stroke="#000" stroke-linecap="round" stroke-linejoin="round" stroke-width="2"/>
    </g>
  </g>
</svg>
