<svg id="emoji" xmlns="http://www.w3.org/2000/svg" viewBox="0 0 72 72">
  <g id="grid">
    <path d="M68,4V68H4V4H68m4-4H0V72H72V0Z" fill="#b3b3b3"></path>
    <path d="M12.923,10.9583H59.0769A1.9231,1.9231,0,0,1,61,12.8814V59.0352a1.9231,1.9231,0,0,1-1.9231,1.9231H12.9231A1.9231,1.9231,0,0,1,11,59.0352V12.8813A1.923,1.923,0,0,1,12.923,10.9583Z" fill="none" stroke="#00a5ff" stroke-miterlimit="10" stroke-width="0.1"></path>
    <rect x="16" y="4" width="40" height="64" rx="2.2537" fill="none" stroke="#00a5ff" stroke-miterlimit="10" stroke-width="0.1"></rect>
    <rect x="16" y="4" width="40" height="64" rx="2.2537" transform="translate(72) rotate(90)" fill="none" stroke="#00a5ff" stroke-miterlimit="10" stroke-width="0.1"></rect>
    <circle cx="36" cy="36" r="29" fill="none" stroke="#00a5ff" stroke-miterlimit="10" stroke-width="0.1"></circle>
  </g>
  <g id="color">
    <path fill="none" stroke="#d0cfce" stroke-width="4" stroke-linecap="round" stroke-linejoin="round" stroke-miterlimit="10" d="
		M36,15.5432c-17.6731,0-32-1.5881-32-3.5471"></path>
    <path fill="none" stroke="#d0cfce" stroke-width="4" stroke-linecap="round" stroke-linejoin="round" stroke-miterlimit="10" d="
		M4,12.0067c0-1.959,14.3269-3.5471,32-3.5471s32,1.5881,32,3.5471v-0.0106"></path>
    <path fill="none" stroke="#d0cfce" stroke-width="2" stroke-linecap="round" stroke-linejoin="round" stroke-miterlimit="10" d="
		M66,17.0232c0,1.8366-13.4315,3.3254-30,3.3254S6,18.8598,6,17.0232"></path>
    <path fill="none" stroke="#d0cfce" stroke-width="2" stroke-linecap="round" stroke-linejoin="round" stroke-miterlimit="10" d="
		M64,22.3986c0,1.7141-12.536,3.1037-28,3.1037S8,24.1127,8,22.3986"></path>
    <path fill="none" stroke="#d0cfce" stroke-width="2" stroke-linecap="round" stroke-linejoin="round" stroke-miterlimit="10" d="
		M62,27.5023c0,1.5917-11.6406,2.882-26,2.882s-26-1.2903-26-2.882"></path>
    <path fill="none" stroke="#d0cfce" stroke-width="2" stroke-linecap="round" stroke-linejoin="round" stroke-miterlimit="10" d="
		M58,33.3643c0,1.3468-9.8497,2.4386-22,2.4386s-22-1.0918-22-2.4386"></path>
    <path fill="none" stroke="#d0cfce" stroke-width="2" stroke-linecap="round" stroke-linejoin="round" stroke-miterlimit="10" d="
		M54,38.803c0,1.1019-8.0589,1.9952-18,1.9952s-18-0.8933-18-1.9952"></path>
    <path fill="none" stroke="#d0cfce" stroke-width="2" stroke-linecap="round" stroke-linejoin="round" stroke-miterlimit="10" d="
		M50,43.7982c0,0.8571-6.268,1.5519-14,1.5519s-14-0.6948-14-1.5519"></path>
    <path fill="none" stroke="#d0cfce" stroke-width="2" stroke-linecap="round" stroke-linejoin="round" stroke-miterlimit="10" d="
		M46,48.8601c0,0.6122-4.4772,1.1085-10,1.1085s-10-0.4963-10-1.1085"></path>
    <path fill="none" stroke="#d0cfce" stroke-width="2" stroke-linecap="round" stroke-linejoin="round" stroke-miterlimit="10" d="
		M44,53.4685c0,0.4897-3.5817,0.8868-8,0.8868s-8-0.397-8-0.8868"></path>
    <path fill="none" stroke="#d0cfce" stroke-width="2" stroke-linecap="round" stroke-linejoin="round" stroke-miterlimit="10" d="
		M40,58.3553c0,0.2449-1.7909,0.4434-4,0.4434s-4-0.1985-4-0.4434"></path>
    <path fill="none" stroke="#d0cfce" stroke-width="2" stroke-linecap="round" stroke-linejoin="round" stroke-miterlimit="10" d="
		M38,62.7987c0,0.1224-0.8954,0.2217-2,0.2217s-2-0.0993-2-0.2217"></path>
  </g>
  <g id="hair">
  </g>
  <g id="skin">
  </g>
  <g id="skin-shadow">
  </g>
  <g id="line">
    <path fill="none" stroke="#000000" stroke-width="2" stroke-linecap="round" stroke-linejoin="round" stroke-miterlimit="10" d="
		M36,15.5432c-17.6731,0-32-1.5881-32-3.5471"></path>
    <path fill="none" stroke="#000000" stroke-width="2" stroke-linecap="round" stroke-linejoin="round" stroke-miterlimit="10" d="
		M4,12.0067c0-1.959,14.3269-3.5471,32-3.5471s32,1.5881,32,3.5471v-0.0106"></path>
    <path fill="none" stroke="#000000" stroke-width="2" stroke-linecap="round" stroke-linejoin="round" stroke-miterlimit="10" d="
		M66,18.0632c0,1.8366-13.4315,3.3254-30,3.3254S6,19.8998,6,18.0632"></path>
    <path fill="none" stroke="#000000" stroke-width="2" stroke-linecap="round" stroke-linejoin="round" stroke-miterlimit="10" d="
		M64,23.3886c0,1.7141-12.536,3.1037-28,3.1037S8,25.1027,8,23.3886"></path>
    <path fill="none" stroke="#000000" stroke-width="2" stroke-linecap="round" stroke-linejoin="round" stroke-miterlimit="10" d="
		M62,28.4923c0,1.5917-11.6406,2.882-26,2.882s-26-1.2903-26-2.882"></path>
    <path fill="none" stroke="#000000" stroke-width="2" stroke-linecap="round" stroke-linejoin="round" stroke-miterlimit="10" d="
		M58,34.3743c0,1.3468-9.8497,2.4386-22,2.4386s-22-1.0918-22-2.4386"></path>
    <path fill="none" stroke="#000000" stroke-width="2" stroke-linecap="round" stroke-linejoin="round" stroke-miterlimit="10" d="
		M54,39.813c0,1.1019-8.0589,1.9952-18,1.9952s-18-0.8933-18-1.9952"></path>
    <path fill="none" stroke="#000000" stroke-width="2" stroke-linecap="round" stroke-linejoin="round" stroke-miterlimit="10" d="
		M50,44.8082c0,0.8571-6.268,1.5519-14,1.5519s-14-0.6948-14-1.5519"></path>
    <path fill="none" stroke="#000000" stroke-width="2" stroke-linecap="round" stroke-linejoin="round" stroke-miterlimit="10" d="
		M46,49.8601c0,0.6122-4.4772,1.1085-10,1.1085s-10-0.4963-10-1.1085"></path>
    <path fill="none" stroke="#000000" stroke-width="2" stroke-linecap="round" stroke-linejoin="round" stroke-miterlimit="10" d="
		M44,54.4685c0,0.4897-3.5817,0.8868-8,0.8868s-8-0.397-8-0.8868"></path>
    <path fill="none" stroke="#000000" stroke-width="2" stroke-linecap="round" stroke-linejoin="round" stroke-miterlimit="10" d="
		M40,59.3553c0,0.2449-1.7909,0.4434-4,0.4434s-4-0.1985-4-0.4434"></path>
    <path fill="none" stroke="#000000" stroke-width="2" stroke-linecap="round" stroke-linejoin="round" stroke-miterlimit="10" d="
		M38,63.7987c0,0.1224-0.8954,0.2217-2,0.2217s-2-0.0993-2-0.2217"></path>
  </g>
</svg>