<svg id="emoji" xmlns="http://www.w3.org/2000/svg" viewBox="0 0 72 72">
  <g id="grid">
    <path d="M68,4V68H4V4H68m4-4H0V72H72V0Z" fill="#b3b3b3"></path>
    <path d="M12.923,10.9583H59.0769A1.9231,1.9231,0,0,1,61,12.8814V59.0352a1.9231,1.9231,0,0,1-1.9231,1.9231H12.9231A1.9231,1.9231,0,0,1,11,59.0352V12.8813A1.923,1.923,0,0,1,12.923,10.9583Z" fill="none" stroke="#00a5ff" stroke-miterlimit="10" stroke-width="0.1"></path>
    <rect x="16" y="4" width="40" height="64" rx="2.2537" fill="none" stroke="#00a5ff" stroke-miterlimit="10" stroke-width="0.1"></rect>
    <rect x="16" y="4" width="40" height="64" rx="2.2537" transform="translate(72) rotate(90)" fill="none" stroke="#00a5ff" stroke-miterlimit="10" stroke-width="0.1"></rect>
    <circle cx="36" cy="36" r="29" fill="none" stroke="#00a5ff" stroke-miterlimit="10" stroke-width="0.1"></circle>
  </g>
  <g id="color">
    <path fill="#92D3F5" d="M56.0001,46.7065c0,11.7749-8.9543,21.2965-20,21.2965s-20-9.5455-20-21.3204
				c0,0-0.2191-14.3086,16.6559-40.1878c0,0,3.1666-5.3703,6.3541-0.3523C55.8851,32.0216,56.0001,46.7065,56.0001,46.7065" stroke="none"></path>
    <path fill="#61B2E4" d="M36,3.9991C48.875,14.375,55.875,44.8744,55.875,44.8744c0,15.0006-8.8293,23.1265-19.875,23.1265
				C36,68.0009,58,49.8744,36,3.9991" stroke="none"></path>
  </g>
  <g id="hair">
  </g>
  <g id="skin">
  </g>
  <g id="skin-shadow">
  </g>
  <g id="line">
    <path fill="none" stroke="#000000" stroke-width="2" stroke-linecap="round" stroke-linejoin="round" stroke-miterlimit="10" d="
		M56.0001,46.7065c0,11.7749-8.9543,21.2965-20,21.2965s-20-9.5455-20-21.3204c0,0-0.2191-14.3086,16.6559-40.1878
		c0,0,3.1666-5.3703,6.3541-0.3523C55.8851,32.0216,56.0001,46.7065,56.0001,46.7065"></path>
  </g>
</svg>