<svg xmlns="http://www.w3.org/2000/svg" viewBox="0 0 72 72">
  <title>1F525</title>
  <g id="emoji">
    <g id="grid">
      <path d="M68,4V68H4V4H68m4-4H0V72H72V0Z" fill="#b3b3b3"/>
      <path d="M12.923,10.9583H59.0769A1.9231,1.9231,0,0,1,61,12.8814V59.0352a1.9231,1.9231,0,0,1-1.9231,1.9231H12.9231A1.9231,1.9231,0,0,1,11,59.0352V12.8813A1.923,1.923,0,0,1,12.923,10.9583Z" fill="none" stroke="#00a5ff" stroke-miterlimit="10" stroke-width="0.1"/>
      <rect x="16" y="4" width="40" height="64" rx="2.2537" ry="2.2537" fill="none" stroke="#00a5ff" stroke-miterlimit="10" stroke-width="0.1"/>
      <rect x="16" y="4" width="40" height="64" rx="2.2537" ry="2.2537" transform="translate(72) rotate(90)" fill="none" stroke="#00a5ff" stroke-miterlimit="10" stroke-width="0.1"/>
      <circle cx="36" cy="36" r="29" fill="none" stroke="#00a5ff" stroke-miterlimit="10" stroke-width="0.1"/>
    </g>
    <g id="color">
      <path d="M52.5408,55.9725c6.8748-8.8649,3.9351-19.4936,2.4878-22.84-.1809-.3619-.8141-.5428-.9046-.09-.0905.9951-2.1039,2.1259-4.0264,2.1259-.8157,0-1.176-.5427-1.176-1.7187C49.4643,19.88,38.4732,10.2461,35.0358,7.3514a.677.677,0,0,0-1.0855.6332c2.2615,13.84-1.4473,12.9355-2.8042,12.4832-.2714-.09-.4523.09-.6332.2714-4.1611,8.7745-3.0756,12.9355-3.166,15.74v.9046a1.7769,1.7769,0,0,1-2.3519,1.9c-1.9-.8141-5.3386-5.7893-5.3386-7.0557a.57.57,0,0,0-1.0855-.2714c-7.96,11.1264-2.0805,20.9863-.09,23.79.5427.8141,3.1273.8527,3.4545,1.57.2606.5708-.05.9555-.05,1.4519a2.13,2.13,0,0,0,.7577,1.3206c1.1759,1.0855,4.9752,4.7038,12.9355,4.7038a19.6487,19.6487,0,0,0,12.4832-4.2515,4.085,4.085,0,0,0,1.1759-3.28C49.2377,55.625,51.9431,56.7187,52.5408,55.9725Z" fill="#f6e016"/>
      <path d="M36.3989,30.5075c-.3528,1.3569-1.5287,3.6183-4.939,7.508-.1176.09-.1176.1809-.2352.2714a10.7412,10.7412,0,0,0-1.2935,6.4225h0s-.7056,3.89-3.5279,3.6183a7.0546,7.0546,0,0,1-1.5287-.4523c-.7056-.3618-1.6464.09-1.5288.8142.3528,2.8946,1.8815,7.3271,7.2909,10.5836,0,0,1.5288.995,1.6464,1.8091l3.205.6332s3.38-.5427,3.38-.6332c0-.1809.47-1.1759,3.7631-3.4374a12.981,12.981,0,0,0,4.351-4.7943.7934.7934,0,0,0-.7055-1.0855A1.8546,1.8546,0,0,1,45.101,50.68h0s-.2352-.7236.7056-2.3519a3.8015,3.8015,0,0,0,.47-2.171,1.11,1.11,0,0,0-1.5288-.6332,2.2758,2.2758,0,0,1-3.0575-.995s-.8231-1.4473-.1176-4.9752c.47-2.7137-1.1759-7.1462-3.2926-9.4076C37.6925,29.6029,36.5165,29.7838,36.3989,30.5075Z" fill="#f4ac0a"/>
    </g>
    <g id="line">
      <path d="M22.824,59.2744A17.692,17.692,0,0,0,35.4881,64.25a18.8507,18.8507,0,0,0,12.8451-4.9752" fill="none" stroke="#000" stroke-linecap="round" stroke-linejoin="round" stroke-width="2"/>
      <path d="M19.566,55.5656s-9.4981-10.1313-.4523-23.5191c0,0,1.122,2.3207,2.5134,4.547,1.0362,1.1941,2.9156,3.2324,3.9106,3.2324a2.1409,2.1409,0,0,0,2.171-2.3519V36.66c.09-2.8042-.4523-6.9652,3.2565-15.5587,0,0,6.3321,3.4374,3.6183-13.2069,0,0,14.4286,9.7244,13.8858,25.8259,0,1.176.53,2.0805,1.8073,2.0805,1.2576,0,4.39-1.2213,4.39-2.3972.09.09,5.6989,11.85-2.2614,22.1622" fill="none" stroke="#000" stroke-linecap="round" stroke-linejoin="round" stroke-width="2"/>
      <path d="M42.6315,57.6449a12.981,12.981,0,0,0,4.351-4.7943.7934.7934,0,0,0-.7055-1.0855A1.8546,1.8546,0,0,1,45.101,50.68h0s-.2352-.7236.7056-2.3519a3.8015,3.8015,0,0,0,.47-2.171,1.11,1.11,0,0,0-1.5288-.6332,2.2758,2.2758,0,0,1-3.0575-.995s-.8231-1.4473-.1176-4.9752c.39-2.2473-.6725-5.6733-2.2513-8.0689" fill="none" stroke="#000" stroke-linecap="round" stroke-linejoin="round" stroke-width="2"/>
      <path d="M35.5786,32.4569A32.6641,32.6641,0,0,1,31.46,38.0155c-.1176.09-.1176.1809-.2352.2714a10.7412,10.7412,0,0,0-1.2935,6.4225h0s-.7056,3.89-3.5279,3.6183a7.0546,7.0546,0,0,1-1.5287-.4523c-.7056-.3618-1.6464.09-1.5288.8142a13.7024,13.7024,0,0,0,4.7411,8.7352" fill="none" stroke="#000" stroke-linecap="round" stroke-linejoin="round" stroke-width="2"/>
    </g>
  </g>
</svg>
