<svg id="emoji" viewBox="0 0 72 72" xmlns="http://www.w3.org/2000/svg">
  <g id="grid">
    <path fill="#b3b3b3" d="M68,4.4067v64H4v-64H68m4-4H0v72H72v-72Z"/>
    <path fill="none" stroke="#00a5ff" stroke-miterlimit="10" stroke-width="0.1" d="M12.923,11.365H59.0769A1.9231,1.9231,0,0,1,61,13.2881V59.4419a1.9231,1.9231,0,0,1-1.9231,1.9231H12.9231A1.9231,1.9231,0,0,1,11,59.4419V13.288A1.923,1.923,0,0,1,12.923,11.365Z"/>
    <rect x="16" y="4.4067" rx="2.2537" width="40" height="64" fill="none" stroke="#00a5ff" stroke-miterlimit="10" stroke-width="0.1"/>
    <rect x="16" y="4.4067" rx="2.2537" width="40" height="64" transform="translate(72.4067 0.4067) rotate(90)" fill="none" stroke="#00a5ff" stroke-miterlimit="10" stroke-width="0.1"/>
    <circle cx="36" cy="36.4067" r="29" fill="none" stroke="#00a5ff" stroke-miterlimit="10" stroke-width="0.1"/>
  </g>
  <g id="color">
    <circle cx="35.5" cy="35.9583" r="21.5384" fill="#ea5a47"/>
    <path fill="#d22f27" d="M39.9254,15.0779A21.5347,21.5347,0,0,1,23.2822,53.8857,21.5352,21.5352,0,1,0,39.9254,15.0779Z"/>
  </g>
  <g id="line">
    <circle cx="35.5" cy="35.9583" r="21.5384" fill="none" stroke="#000" stroke-linecap="round" stroke-linejoin="round" stroke-width="2"/>
    <path fill="none" stroke="#000" stroke-linecap="round" stroke-linejoin="round" stroke-width="2" d="M48.2147,14.6573c3.57-1.1173,6.428-1.0032,8.03.5984,4.2057,4.2056-1.8456,17.0756-13.5159,28.7459s-24.54,17.7216-28.746,13.516c-1.8391-1.8391-1.7168-5.3351-.0209-9.6632"/>
  </g>
</svg>
