<svg id="emoji" viewBox="0 0 72 72" xmlns="http://www.w3.org/2000/svg">
  <g id="grid">
    <path fill="#b3b3b3" d="M68,4V68H4V4H68m4-4H0V72H72V0Z"/>
    <path fill="none" stroke="#00a5ff" stroke-miterlimit="10" stroke-width="0.1" d="M12.923,10.9583H59.0769A1.9231,1.9231,0,0,1,61,12.8814V59.0352a1.9231,1.9231,0,0,1-1.9231,1.9231H12.9231A1.9231,1.9231,0,0,1,11,59.0352V12.8813A1.923,1.923,0,0,1,12.923,10.9583Z"/>
    <rect x="16" y="4" rx="2.2537" width="40" height="64" fill="none" stroke="#00a5ff" stroke-miterlimit="10" stroke-width="0.1"/>
    <rect x="16" y="4" rx="2.2537" width="40" height="64" transform="translate(72) rotate(90)" fill="none" stroke="#00a5ff" stroke-miterlimit="10" stroke-width="0.1"/>
    <circle cx="36" cy="36" r="29" fill="none" stroke="#00a5ff" stroke-miterlimit="10" stroke-width="0.1"/>
  </g>
  <g id="color">
    <circle cx="36" cy="26.3184" r="12.3" fill="#FFFFFF" stroke="none"/>
    <circle cx="36" cy="53.007" r="15.85" fill="#FFFFFF" stroke="none"/>
    <path fill="#D0CFCE" stroke="none" d="M36,14.0184c8.8944,0,8.8944,24.6,0,24.6c6.7931,0,12.3-5.5069,12.3-12.3 C48.3,19.5253,42.7931,14.0184,36,14.0184z"/>
    <path fill="#D0CFCE" stroke="none" d="M36,37.157c9.1592,0,9.1592,31.7,0,31.7c8.7537,0,15.85-7.0963,15.85-15.85S44.7537,37.157,36,37.157z"/>
    <rect x="28.5332" y="2.997" width="14.9355" height="12.1683" fill="#3F3F3F" stroke="none"/>
  </g>
  <g id="hair"/>
  <g id="skin"/>
  <g id="skin-shadow"/>
  <g id="line">
    <line x1="43.5079" x2="67.999" y1="39.9986" y2="31.8971" fill="none" stroke="#000000" stroke-linecap="round" stroke-linejoin="round" stroke-miterlimit="10" stroke-width="2"/>
    <line x1="60.999" x2="64.1204" y1="34.2126" y2="25.9135" fill="none" stroke="#000000" stroke-linecap="round" stroke-linejoin="round" stroke-miterlimit="10" stroke-width="2"/>
    <circle cx="36.001" cy="48.9892" r="2" fill="#000000" stroke="none"/>
    <circle cx="36.001" cy="55.9892" r="2" fill="#000000" stroke="none"/>
    <circle cx="36.001" cy="62.9892" r="2" fill="#000000" stroke="none"/>
    <circle cx="31.8728" cy="23.326" r="1.75" fill="#000000" stroke="none"/>
    <circle cx="40.1292" cy="23.326" r="1.75" fill="#000000" stroke="none"/>
    <path fill="none" stroke="#000000" stroke-linecap="round" stroke-linejoin="round" stroke-miterlimit="10" stroke-width="1.8" d="M41.3474,30.7018c-1.4173,1.052-3.196,1.6942-5.0967,1.6942c-1.9267,0-3.6689-0.6163-5.0962-1.6946"/>
    <line x1="25.7043" x2="46.2976" y1="15.1653" y2="15.1653" fill="none" stroke="#000000" stroke-linecap="round" stroke-linejoin="round" stroke-width="2"/>
    <rect x="28.5332" y="2.997" width="14.9355" height="12.1683" fill="none" stroke="#000000" stroke-linecap="round" stroke-linejoin="round" stroke-width="2"/>
    <path fill="none" stroke="#000000" stroke-linecap="round" stroke-linejoin="round" stroke-miterlimit="10" stroke-width="2" d="M44.4429,18.755c1.8974,2.0507,3.0571,4.794,3.0571,7.8082c0,6.3513-5.1487,11.5-11.5,11.5s-11.5-5.1487-11.5-11.5 c0-3.0152,1.1604-5.7594,3.059-7.8103"/>
    <line x1="28.4921" x2="4.001" y1="40.0011" y2="31.8996" fill="none" stroke="#000000" stroke-linecap="round" stroke-linejoin="round" stroke-miterlimit="10" stroke-width="2"/>
    <line x1="11.001" x2="7.8796" y1="34.2152" y2="25.916" fill="none" stroke="#000000" stroke-linecap="round" stroke-linejoin="round" stroke-miterlimit="10" stroke-width="2"/>
    <path fill="none" stroke="#000000" stroke-linecap="round" stroke-linejoin="round" stroke-miterlimit="10" stroke-width="2" d="M47.1816,42.9917C49.5562,45.6446,51,49.148,51,52.9892c0,8.2843-6.7157,15-15,15s-15-6.7157-15-15 c0-3.8405,1.4433-7.344,3.8172-9.9975"/>
  </g>
</svg>
