<svg id="emoji" viewBox="0 0 72 72" xmlns="http://www.w3.org/2000/svg">
  <g id="grid">
    <path fill="#b3b3b3" d="M68,4V68H4V4H68m4-4H0V72H72V0Z"/>
    <path fill="none" stroke="#00a5ff" stroke-miterlimit="10" stroke-width="0.1" d="M12.923,10.9583H59.0769A1.9231,1.9231,0,0,1,61,12.8814V59.0352a1.9231,1.9231,0,0,1-1.9231,1.9231H12.9231A1.9231,1.9231,0,0,1,11,59.0352V12.8813A1.923,1.923,0,0,1,12.923,10.9583Z"/>
    <rect x="16" y="4" rx="2.2537" width="40" height="64" fill="none" stroke="#00a5ff" stroke-miterlimit="10" stroke-width="0.1"/>
    <rect x="16" y="4" rx="2.2537" width="40" height="64" transform="translate(72 0) rotate(90)" fill="none" stroke="#00a5ff" stroke-miterlimit="10" stroke-width="0.1"/>
    <circle cx="36" cy="36" r="29" fill="none" stroke="#00a5ff" stroke-miterlimit="10" stroke-width="0.1"/>
  </g>
  <g id="color">
    <path fill="#92d3f5" d="M11.9345,60.9431V56.7244c0-4.9942,5.0078-9,10-9q9,7.5,18,0c1.3682,0,3.1221-.2784,4.3887.2607A11.8771,11.8771,0,0,1,47.56,50.7976V60.9431"/>
  </g>
  <g id="skin">
    <path fill="#fcea2b" d="M19.871,30.9851c0,9,4.9365,14,11,14,5.9365,0,11.0635-5,11.0635-14a12.1371,12.1371,0,0,0-1-5c-3-3-7-8-7-8-4,3-7,6-13,7C20.9345,24.9851,19.871,25.9846,19.871,30.9851Z"/>
    <path fill="#fcea2b" d="M54.9345,60.9431,52.997,46.6794l.9375-1.25,6-2,5-6a1.4142,1.4142,0,0,0-2-2l-3,3c-1,1-4,0-7,1s-5,3.2325-5,5V60.9431"/>
  </g>
  <g id="hair">
    <path fill="#f1b31c" d="M41.0832,26.0769c-2.6615-.8554-7.3666-7.9368-7.3666-7.9368-2.6614,3.2317-12.737,6.9863-12.737,6.9863-2.9941,2.9942-.0451,13.8587-.0451,13.8587-4,0-4-6-4-13s4-14,14-14,14,7,14,14,0,13-4,13C42.2592,36.7325,41.0832,26.0769,41.0832,26.0769Z"/>
  </g>
  <g id="line">
    <path fill="none" stroke="#000" stroke-linecap="round" stroke-linejoin="round" stroke-width="2" d="M20.9345,38.9851c-4,0-4-6-4-13s4-14,14-14,14,7,14,14,0,13-4,13"/>
    <path fill="none" stroke="#000" stroke-linecap="round" stroke-linejoin="round" stroke-width="2" d="M11.9345,59.9851v-3c0-4.9941,5.0078-9,10-9q9,7.5,18,0a10.2713,10.2713,0,0,1,4.0029.84"/>
    <path fill="#000" d="M36.8075,29.9851a2,2,0,1,1-2-2,2,2,0,0,1,2,2"/>
    <path fill="#000" d="M28.8075,29.9851a2,2,0,1,1-2-2,2,2,0,0,1,2,2"/>
    <path fill="none" stroke="#000" stroke-linejoin="round" stroke-width="2" d="M19.871,30.9851c0,9,4.9365,14,11,14,5.9365,0,11.0635-5,11.0635-14a12.1371,12.1371,0,0,0-1-5c-3-3-7-8-7-8-4,3-7,6-13,7C20.9345,24.9851,19.871,25.9846,19.871,30.9851Z"/>
    <path fill="none" stroke="#000" stroke-linecap="round" stroke-linejoin="round" stroke-width="2" d="M27.9345,37.9851a6.5535,6.5535,0,0,0,6,0"/>
    <path fill="none" stroke="#000" stroke-linecap="round" stroke-linejoin="round" stroke-width="2" d="M54.9345,59.9851,52.997,46.6794l.9375-1.25,6-2,5-6a1.4142,1.4142,0,0,0-2-2l-3,3c-1,1-4,0-7,1s-5,3.2325-5,5V59.9851"/>
  </g>
</svg>
