<svg id="emoji" viewBox="0 0 72 72" xmlns="http://www.w3.org/2000/svg">
  <g id="grid">
    <path fill="#b3b3b3" d="M68,4V68H4V4H68m4-4H0V72H72V0Z"/>
    <path fill="none" stroke="#00a5ff" stroke-miterlimit="10" stroke-width="0.1" d="M12.923,10.9583H59.0769A1.9231,1.9231,0,0,1,61,12.8814V59.0352a1.9231,1.9231,0,0,1-1.9231,1.9231H12.9231A1.9231,1.9231,0,0,1,11,59.0352V12.8813A1.923,1.923,0,0,1,12.923,10.9583Z"/>
    <rect x="16" y="4" rx="2.2537" width="40" height="64" fill="none" stroke="#00a5ff" stroke-miterlimit="10" stroke-width="0.1"/>
    <rect x="16" y="4" rx="2.2537" width="40" height="64" transform="translate(72 0) rotate(90)" fill="none" stroke="#00a5ff" stroke-miterlimit="10" stroke-width="0.1"/>
    <circle cx="36" cy="36" r="29" fill="none" stroke="#00a5ff" stroke-miterlimit="10" stroke-width="0.1"/>
  </g>
  <g id="color">
    <path fill="#92d3f5" d="M21.1668,33.0423a23.705,23.705,0,0,0-3.665,2.333c-2.2159,1.7734-3.918,16.334-3.834,17.667s1.583,7.916,2.25,7.916H56.25s2.166-3.333,2.083-4.333.25-14.749-1.166-16.583-1.5459-4.1895-2.418-4.833a28.5671,28.5671,0,0,0-3.582-2.167"/>
  </g>
  <g id="skin">
    <path fill="#fcea2b" d="M39.1668,36.0423c0,4-14,2-14,6h0c0,4,4.873,8,10.9365,8,5.9365,0,11.0635-4,11.0635-10h0c0-2-7-2-8-4"/>
    <path fill="#fcea2b" d="M34.1668,58.0423a1.92,1.92,0,0,1-2,1.9414c-1.1025,0-6,.0586-6,.0586h-6s0-4,5-4h7A1.9588,1.9588,0,0,1,34.1668,58.0423Z"/>
    <path fill="#fcea2b" d="M38.1668,58.0423a1.92,1.92,0,0,0,2,1.9414c1.1025,0,6,.0586,6,.0586h6s0-4-5-4h-7A1.9588,1.9588,0,0,0,38.1668,58.0423Z"/>
  </g>
  <g id="hair">
    <path fill="#f1b31c" d="M39.0074,36.42c-2.1433,3.3257-14.7022,1.6463-13.8406,6.6223-2,0-3-3-3-10s4-14,14-14,14,7,14,14-1,10-3,10C49.4878,38.0615,39.0074,36.42,39.0074,36.42Z"/>
  </g>
  <g id="line">
    <path fill="none" stroke="#000" stroke-linecap="round" stroke-linejoin="round" stroke-width="2" d="M25.1668,43.0423c-2,0-3-3-3-10s4-14,14-14,14,7,14,14-1,10-3,10"/>
    <path fill="none" stroke="#000" stroke-linecap="round" stroke-linejoin="round" stroke-width="2" d="M39.1668,36.0423c0,4-14,2-14,6h0c0,4,4.873,8,10.9365,8,5.9365,0,11.0635-4,11.0635-10h0c0-2-7-2-8-4"/>
    <path fill="none" stroke="#000" stroke-linecap="round" stroke-linejoin="round" stroke-width="2" d="M34.1668,58.0423a1.92,1.92,0,0,1-2,1.9414c-1.1025,0-6,.0586-6,.0586h-6s0-4,5-4h7A1.9588,1.9588,0,0,1,34.1668,58.0423Z"/>
    <path fill="none" stroke="#000" stroke-linecap="round" stroke-linejoin="round" stroke-width="2" d="M38.1668,58.0423a1.92,1.92,0,0,0,2,1.9414c1.1025,0,6,.0586,6,.0586h6s0-4-5-4h-7A1.9588,1.9588,0,0,0,38.1668,58.0423Z"/>
    <path fill="none" stroke="#000" stroke-linecap="round" stroke-linejoin="round" stroke-width="2" d="M18.1668,36.0423s-4,3-4,12v4c0,3,0,6,2,8"/>
    <path fill="none" stroke="#000" stroke-linecap="round" stroke-linejoin="round" stroke-width="2" d="M54.1668,36.0423s4,3,4,12v5c0,3,0,5-2,7"/>
    <line x1="23.1668" x2="26.1668" y1="15.0423" y2="18.0423" fill="none" stroke="#000" stroke-linecap="round" stroke-linejoin="round" stroke-width="2"/>
    <line x1="31.1668" x2="29.1668" y1="15.0423" y2="12.0423" fill="none" stroke="#000" stroke-linecap="round" stroke-linejoin="round" stroke-width="2"/>
    <line x1="49.1668" x2="46.1668" y1="15.0423" y2="18.0423" fill="none" stroke="#000" stroke-linecap="round" stroke-linejoin="round" stroke-width="2"/>
    <line x1="41.1668" x2="43.1668" y1="15.0423" y2="12.0423" fill="none" stroke="#000" stroke-linecap="round" stroke-linejoin="round" stroke-width="2"/>
    <path fill="none" stroke="#000" stroke-linecap="round" stroke-linejoin="round" stroke-width="2" d="M39.1668,36.0423v-7"/>
    <path fill="none" stroke="#000" stroke-linecap="round" stroke-miterlimit="10" stroke-width="2" d="M33.1668,43.0423a2.7822,2.7822,0,0,1-3,0"/>
    <path fill="none" stroke="#000" stroke-linecap="round" stroke-miterlimit="10" stroke-width="2" d="M39.1668,43.0423a2.9662,2.9662,0,0,0,3,0"/>
  </g>
</svg>
